<svg id="Слой_1" data-name="Слой 1" xmlns="http://www.w3.org/2000/svg" viewBox="0 0 161.54991 207.99329"><title>1.11.09</title><polygon points="161.55 207.993 67.46 207.993 3.171 207.993 0.096 207.993 0.096 64.833 3.171 64.833 3.171 0 161.55 0 161.55 207.993" style="fill:#fff;fill-rule:evenodd"/><rect x="54.2718" y="96.1198" width="28.40549" height="17.26689" style="fill:#fff"/><path d="M214.1257,205.0966H186.4704v16.51689h27.6553Zm-28.0304-.75011h28.78049v18.017H185.72031v-18.017Z" transform="translate(-131.8235 -108.60181)" style="fill:#fff"/><rect x="40.3965" y="95.74469" width="13.88719" height="18.0168" style="fill:#fff"/><path d="M180.1497,213.528l2.7717-3.4861v-.714h-6.2997v.896h5.0119l-2.7162,3.4021v.74191h.7002c1.81979,0,2.6459.7699,2.6459,1.94589,0,1.21811-.8961,1.97411-2.52,1.97411a4.29286,4.29286,0,0,1-3.0379-1.13411l-.4901.79791a5.09541,5.09541,0,0,0,3.528,1.26c2.366,0,3.556-1.26,3.556-2.8979,0-1.56779-1.0499-2.6739-3.1498-2.7858" transform="translate(-131.8235 -108.60181)" style="fill:#fff;fill-rule:evenodd"/><path d="M208.7666,215.6378c-.5775,0-.9817-.4762-.9817-1.624s.40421-1.624.9817-1.624c.5845,0,.98869.4763.98869,1.624s-.40419,1.624-.98869,1.624m0,.989c1.2486,0,2.1653-.9456,2.1653-2.613s-.9167-2.613-2.1653-2.613c-1.24161,0-2.16541.94569-2.16541,2.613S207.525,216.6268,208.7666,216.6268Zm-4.56891-.8734c-.563,0-.88779-.3177-.88779-.7509a.79014.79014,0,0,1,.87329-.75771.7599.7599,0,1,1,.0145,1.50861Zm.23811-2.3819a1.70526,1.70526,0,0,0-1.2487.4473,1.34169,1.34169,0,0,1,1.42189-1.46521,1.66467,1.66467,0,0,1,.9456.25281l.43311-.8589a2.7268,2.7268,0,0,0-1.40761-.3467,2.45949,2.45949,0,0,0-2.57669,2.7213c0,1.6313.8662,2.5047,2.2592,2.5047a1.737,1.737,0,0,0,1.9128-1.68181A1.60269,1.60269,0,0,0,204.43581,213.37151Zm-3.55841,1.8261a.66878.66878,0,0,0-.70009.6927.62643.62643,0,0,0,.38979.61369l-.31749,1.14751h.7146l.4113-1.0392a1.67854,1.67854,0,0,0,.195-.722A.66313.66313,0,0,0,200.8774,215.1976Zm-3.39949.38969,1.1619-1.097a2.01628,2.01628,0,0,0,.8447-1.59529c0-.9167-.7509-1.4942-1.8768-1.4942a2.34692,2.34692,0,0,0-2.0067.9386l.8519.54849a1.23524,1.23524,0,0,1,1.04651-.5054c.534,0,.8084.231.8084.62811,0,.24519-.0793.50519-.5269.93089l-1.94879,1.84061V216.54h3.81819v-.9527Zm-4.29451-1.80449a.75993.75993,0,1,1-.0145-1.50861c.5556,0,.88049.31779.88049.7509A.78376.78376,0,0,1,193.1834,213.78281Zm-.08679-2.382a1.73693,1.73693,0,0,0-1.9128,1.68179,1.60263,1.60263,0,0,0,1.73959,1.5735,1.7264,1.7264,0,0,0,1.2558-.45461,1.34728,1.34728,0,0,1-1.42191,1.47231,1.63278,1.63278,0,0,1-.9453-.25259l-.4332.8589a2.69863,2.69863,0,0,0,1.4003.34669,2.45592,2.45592,0,0,0,2.57671-2.7213C195.3558,212.2742,194.4969,211.4008,193.0966,211.4008Z" transform="translate(-131.8235 -108.60181)" style="fill:#fff;fill-rule:evenodd"/><rect x="4.38831" width="0.44679" height="3.40979" style="fill:#fff"/><rect x="3.297" width="0.4467" height="3.40979" style="fill:#fff"/><path d="M286.31,123.1651v-2.54321h-6.9599v2.54321Zm0,4.33621V124.958h-6.9599v2.5433Zm-4.068,4.44159v-2.5433H279.3501v2.5433Zm4.068,0v-2.5433h-2.89191v2.5433Zm-8.174-12.7984h12.23492v14.12839H278.136Z" transform="translate(-131.8235 -108.60181)" style="fill:#fff;fill-rule:evenodd"/><path d="M277.79019,149.79489a.374.374,0,1,0-.37479-.6474l-13.9201,8.03992a.374.374,0,0,0,.37479.6474Z" transform="translate(-131.8235 -108.60181)" style="fill:#fff"/><path d="M267.94519,261.82719a.374.374,0,1,0-.37479-.6474l-13.92011,8.0399a.374.374,0,0,0,.3748.6474Z" transform="translate(-131.8235 -108.60181)" style="fill:#fff"/><path d="M255.82339,234.0862a.374.374,0,1,0,.6474-.37469l-8.0399-13.9201a.374.374,0,1,0-.6474.37469Z" transform="translate(-131.8235 -108.60181)" style="fill:#fff"/><path d="M238.61,263.7352a.374.374,0,0,1-.6474-.37469l8.0399-13.9201a.374.374,0,1,1,.6474.37469Z" transform="translate(-131.8235 -108.60181)" style="fill:#fff"/><path d="M167.0797,173.32249a.374.374,0,1,1-.6474-.3748l8.0399-13.92011a.374.374,0,0,1,.6474.37482Z" transform="translate(-131.8235 -108.60181)" style="fill:#fff"/><path d="M256.29279,170.4334a.374.374,0,1,0,.6474-.37469l-8.03989-13.92009a.374.374,0,1,0-.6474.37469Z" transform="translate(-131.8235 -108.60181)" style="fill:#fff"/><rect x="155.3264" y="95.99219" width="2.6022" height="43.48091" style="fill:#fff"/><rect x="124.1362" y="61.71309" width="2.60219" height="45.5681" style="fill:#fff"/><rect x="113.95419" y="135.02359" width="2.6022" height="5.98221" style="fill:#fff"/><rect x="113.95419" y="159.52199" width="2.6022" height="43.0713" style="fill:#fff"/><rect x="117.16161" y="161.19299" width="2.60219" height="41.4003" style="fill:#fff"/><rect x="148.4753" y="161.19299" width="2.6022" height="41.4003" style="fill:#fff"/><rect x="154.48479" y="161.19299" width="2.6022" height="41.4003" style="fill:#fff"/><rect x="124.1362" y="125.18509" width="2.60219" height="13.5961" style="fill:#fff"/><rect x="124.1362" y="4.1131" width="2.60219" height="39.854" style="fill:#fff"/><rect x="155.3264" y="95.99219" width="6.22351" height="2.6022" style="fill:#fff"/><rect x="145.84309" y="38.72778" width="12.64389" height="2.6022" style="fill:#fff"/><rect x="124.72639" y="38.72778" width="5.30731" height="2.6022" style="fill:#fff"/><rect x="156.80409" y="136.8709" width="4.74582" height="2.6022" style="fill:#fff"/><rect x="114.79379" y="160.1964" width="7.53281" height="2.6022" style="fill:#fff"/><rect x="138.13258" y="160.1964" width="23.41733" height="2.6022" style="fill:#fff"/><rect x="150.1877" y="171.96179" width="5.49869" height="0.8714" style="fill:#fff"/><rect x="150.1877" y="184.93289" width="5.49869" height="0.8714" style="fill:#fff"/><rect x="150.1877" y="180.04169" width="5.49869" height="1.55141" style="fill:#fff"/><rect x="150.1877" y="188.97739" width="5.49869" height="1.5514" style="fill:#fff"/><rect x="117.9207" y="198.1358" width="43.62921" height="2.6022" style="fill:#fff"/><rect x="6.99139" y="136.27109" width="113.3549" height="2.6022" style="fill:#fff"/><rect x="6.99139" y="70.39049" width="67.2151" height="2.6022" style="fill:#fff"/><rect x="94.09039" y="70.39049" width="27.51221" height="2.6022" style="fill:#fff"/><rect x="122.021" width="6.42561" height="3.06061" style="fill:#fff"/><rect x="155.2198" y="3.50168" width="6.33011" height="63.17291" style="fill:#fff"/><rect x="127.2668" width="34.28311" height="6.27341" style="fill:#fff"/><rect x="31.35829" width="8.16011" height="34.83328" style="fill:#fff"/><rect x="0.5264" y="199.83319" width="161.02351" height="8.1601" style="fill:#fff"/><rect x="36.5363" width="91.91031" height="6.27341" style="fill:#fff"/><rect x="0.0955" y="64.83319" width="35.3427" height="8.1601" style="fill:#fff"/><rect x="31.35829" y="64.6308" width="8.16011" height="10.50209" style="fill:#fff"/><rect x="0.0955" y="64.83319" width="8.1601" height="24.04181" style="fill:#fff"/><rect x="0.0955" y="118.45819" width="8.1601" height="36.4949" style="fill:#fff"/><rect x="0.0955" y="183.99319" width="8.1601" height="24.0001" style="fill:#fff"/><rect x="113.95419" y="64.59309" width="12.78419" height="8.1601" style="fill:#fff"/><rect x="113.95419" y="130.8331" width="12.78419" height="8.1601" style="fill:#fff"/><rect x="113.95419" y="64.8326" width="12.78419" height="8.1601" style="fill:#fff"/><rect x="0.4547" width="39.06371" height="10.45108" style="fill:#fff"/><rect x="3.0974" y="103.8223" width="2.2986" height="0.5018" style="fill:#fff"/><rect x="3.0974" y="102.6241" width="2.2986" height="0.50119" style="fill:#fff"/><rect x="3.0974" y="89.98669" width="2.2986" height="0.5015" style="fill:#fff"/><rect x="3.0974" y="88.7885" width="2.2986" height="0.50119" style="fill:#fff"/><rect x="3.0974" y="117.9341" width="2.2986" height="0.50169" style="fill:#fff"/><rect x="3.0974" y="116.7361" width="2.2986" height="0.50119" style="fill:#fff"/><rect x="0.0955" y="86.73169" width="0.5015" height="34.0937" style="fill:#fff"/><rect x="2.9426" y="86.73169" width="0.5015" height="34.0937" style="fill:#fff"/><rect x="5.114" y="86.73169" width="0.5014" height="34.0937" style="fill:#fff"/><rect x="7.755" y="86.73169" width="0.5015" height="34.0937" style="fill:#fff"/><rect x="3.0974" y="169.63399" width="2.2986" height="0.5018" style="fill:#fff"/><rect x="3.0974" y="168.43579" width="2.2986" height="0.50121" style="fill:#fff"/><rect x="3.0974" y="155.79839" width="2.2986" height="0.50151" style="fill:#fff"/><rect x="3.0974" y="154.60019" width="2.2986" height="0.50121" style="fill:#fff"/><rect x="3.0974" y="183.7457" width="2.2986" height="0.5018" style="fill:#fff"/><rect x="3.0974" y="182.54779" width="2.2986" height="0.50121" style="fill:#fff"/><rect x="0.0955" y="152.5434" width="0.5015" height="34.0937" style="fill:#fff"/><rect x="2.9426" y="152.5434" width="0.5015" height="34.0937" style="fill:#fff"/><rect x="5.114" y="152.5434" width="0.5014" height="34.0937" style="fill:#fff"/><rect x="7.755" y="152.5434" width="0.5015" height="34.0937" style="fill:#fff"/><path d="M166.5295,154.2782h1.66991v.697H166.5295Zm0-13.56921h1.66991V153.7767H166.5295Zm0-1.19818h1.66991v.69708H166.5295Zm1.66991-.50171H166.5295V133.2196h-.5015v21.75558h-2.3456V133.2196h-.50151v22.25681h8.161V133.2196h-.50151v21.75558h-2.13959V136.9234h-.5014Z" transform="translate(-131.8235 -108.60181)" style="fill:#fff;fill-rule:evenodd"/><rect x="4.4008" y="47.40158" width="1.29709" height="0.44702" style="fill:#fff"/><rect x="4.4008" y="46.33368" width="1.29709" height="0.44681" style="fill:#fff"/><rect x="4.4008" y="28.7995" width="1.29709" height="0.44699" style="fill:#fff"/><rect x="4.4008" y="27.73169" width="1.29709" height="0.44672" style="fill:#fff"/><rect x="4.4008" y="10.19708" width="1.29709" height="0.44702" style="fill:#fff"/><rect x="4.4008" y="9.1293" width="1.29709" height="0.44669" style="fill:#fff"/><rect x="4.4008" y="66.00389" width="1.29709" height="0.44701" style="fill:#fff"/><rect x="4.4008" y="64.9361" width="1.29709" height="0.4467" style="fill:#fff"/><rect x="3.1714" y="7.06259" width="0.4467" height="60.8213" style="fill:#fff"/><rect x="4.2627" y="7.06259" width="0.44681" height="60.8213" style="fill:#fff"/><rect x="5.3436" y="7.06259" width="0.4467" height="60.8213" style="fill:#fff"/><path d="M286.8432,135.63931v9.8223a.90528.90528,0,0,1-.904.9054h-4.61032a4.59568,4.59568,0,0,1-4.59088-4.5896V139.3252a4.59565,4.59565,0,0,1,4.59088-4.59048h4.61032a.90478.90478,0,0,1,.904.9046m-9.8606,6.13809a4.35094,4.35094,0,0,0,4.34628,4.34491h4.61032a.66137.66137,0,0,0,.65988-.66071v-9.8223a.66067.66067,0,0,0-.65988-.65991h-4.61032a4.3513,4.3513,0,0,0-4.34628,4.34579Z" transform="translate(-131.8235 -108.60181)" style="fill:#fff"/><path d="M278.07281,141.7771a3.25875,3.25875,0,0,0,3.25607,3.25449H284.017a.56784.56784,0,0,0,.5675-.5672V140.889h.24521v3.57538a.81406.81406,0,0,1-.81271.81241h-2.68811a3.50406,3.50406,0,0,1-3.5007-3.49969v-2.45221a3.50468,3.50468,0,0,1,3.5007-3.50079H284.017a.81449.81449,0,0,1,.81271.81351V140.213h-.24521V136.6376a.56821.56821,0,0,0-.5675-.5683h-2.68811a3.2593,3.2593,0,0,0-3.25607,3.25558Z" transform="translate(-131.8235 -108.60181)" style="fill:#fff"/><path d="M281.67651,140.55029a.78351.78351,0,1,1-.78351-.78378.78482.78482,0,0,1,.78351.78378m-1.32242,0a.53876.53876,0,1,0,.53891-.53918A.5397.5397,0,0,0,280.3541,140.55029Z" transform="translate(-131.8235 -108.60181)" style="fill:#fff"/><rect x="148.51161" y="31.82599" width="1.11658" height="0.2449" style="fill:#fff"/><rect x="148.94701" y="31.3909" width="0.24548" height="1.116" style="fill:#fff"/><path d="M285.66089,140.213v-.40372a.1737.1737,0,0,0-.1741-.17288h-.37927a.17362.17362,0,0,0-.174.17288v.40372h-.2449v-.40372a.41867.41867,0,0,1,.41891-.41809h.37927a.4186.4186,0,0,1,.4187.41809v.40561l-.03738-.00189Zm-.72739,1.07709a.17447.17447,0,0,0,.174.1741h.37927a.17455.17455,0,0,0,.1741-.1741V140.889h.20721l.03738-.0022v.40329a.41854.41854,0,0,1-.4187.4187h-.37927a.4186.4186,0,0,1-.41891-.4187V140.889h.2449Z" transform="translate(-131.8235 -108.60181)" style="fill:#fff"/><path d="M286.3284,140.55029a.461.461,0,0,1-.4603.46121h-3.08041a.46051.46051,0,0,1,0-.921h3.08041a.46061.46061,0,0,1,.4603.45981m-3.75671,0a.21678.21678,0,0,0,.216.21631h3.08041a.21561.21561,0,0,0,0-.43121h-3.08041A.21609.21609,0,0,0,282.57169,140.55029Z" transform="translate(-131.8235 -108.60181)" style="fill:#fff"/><path d="M293.37341,281.6312a.95012.95012,0,0,0-.56982.48041,1.24585,1.24585,0,0,1,.20471.20329.67822.67822,0,0,1,.36511-.3974Zm0,7.9942a.68011.68011,0,0,1-.36542-.39819,1.241,1.241,0,0,1-.205.20349.95021.95021,0,0,0,.5704.481Z" transform="translate(-131.8235 -108.60181)" style="fill:#fff"/><path d="M293.37341,282.7715v5.99989a1.35468,1.35468,0,0,1-1.319,1.0527h-1.4743a1.355,1.355,0,0,1-1.35382-1.3524v-5.4005a1.35479,1.35479,0,0,1,1.35382-1.3519h1.4743a1.35434,1.35434,0,0,1,1.319,1.0522m-.235,5.7002a1.08552,1.08552,0,0,1-1.084,1.0843h-1.4743a1.08587,1.08587,0,0,1-1.08511-1.0843v-5.4005a1.08593,1.08593,0,0,1,1.08511-1.08369h1.4743a1.08557,1.08557,0,0,1,1.084,1.08369Z" transform="translate(-131.8235 -108.60181)" style="fill:#fff"/><path d="M290.6286,285.772a.6881.6881,0,1,0,.68741-.6882.68809.68809,0,0,0-.68741.6882m1.10721,0a.41925.41925,0,1,1-.4198-.41951A.4195.4195,0,0,1,291.73581,285.772Z" transform="translate(-131.8235 -108.60181)" style="fill:#fff"/><path d="M268.73209,129.24969a3.917,3.917,0,0,1-3.91159-3.913v-5.66531a.67741.67741,0,0,1,.45612-.63919,1.24417,1.24417,0,0,1-.20352-.20489.94569.94569,0,0,0-.52158.84409v5.66531a4.18085,4.18085,0,1,0,8.36169,0v-5.66531a.94555.94555,0,0,0-.521-.8436,1.24178,1.24178,0,0,1-.20331.20471.67624.67624,0,0,1,.45551.63889v5.66531a3.91708,3.91708,0,0,1-3.91232,3.913" transform="translate(-131.8235 -108.60181)" style="fill:#fff"/><path d="M271.5358,120.75229h-5.60889a.204.204,0,0,0-.20132.20151v4.27069a3.00661,3.00661,0,1,0,6.01321,0V120.9538a.20468.20468,0,0,0-.203-.20151m-5.54141.2681h5.47592v4.2041a2.738,2.738,0,0,1-5.47592,0Z" transform="translate(-131.8235 -108.60181)" style="fill:#fff"/><path d="M268.73181,123.48318a1.00816,1.00816,0,1,0,1.00879,1.008,1.01,1.01,0,0,0-1.00879-1.008m0,1.74753a.73941.73941,0,1,1,.73978-.7395A.74032.74032,0,0,1,268.73181,125.23071Z" transform="translate(-131.8235 -108.60181)" style="fill:#fff"/><rect x="266.9761" y="121.28588" width="0.26856" height="2.24224" transform="translate(-152.0172 75.35027) rotate(-36.7112)" style="fill:#fff"/><rect x="269.18817" y="122.2726" width="2.24305" height="0.26918" transform="translate(-121.47093 156.8898) rotate(-53.19201)" style="fill:#fff"/><path d="M271.43259,115.25049H266.0321a1.355,1.355,0,0,0-1.35242,1.35382v1.4743a1.35343,1.35343,0,0,0,1.35242,1.35239h5.40048a1.35318,1.35318,0,0,0,1.3519-1.35239v-1.4743a1.35478,1.35478,0,0,0-1.3519-1.35382m-5.40048,3.91211a1.08543,1.08543,0,0,1-1.08429-1.084v-1.4743a1.08586,1.08586,0,0,1,1.08429-1.08511h5.40048a1.08594,1.08594,0,0,1,1.08371,1.08511v1.4743a1.0855,1.0855,0,0,1-1.08371,1.084Z" transform="translate(-131.8235 -108.60181)" style="fill:#fff"/><path d="M268.73181,116.6528a.6881.6881,0,1,0,.6882.68741.68811.68811,0,0,0-.6882-.68741m0,1.10721a.41925.41925,0,1,1,.41949-.4198A.41944.41944,0,0,1,268.73181,117.76Z" transform="translate(-131.8235 -108.60181)" style="fill:#fff"/><path d="M279.71829,298.3834h0v7.8395h-11.3479v-7.8395Zm.33081,8.1708v-8.5025h-12.0098v8.5025Z" transform="translate(-131.8235 -108.60181)" style="fill:#fff"/><path d="M277.32391,298.1589a.60441.60441,0,0,0-.59363-.61259h-5.37219a.60406.60406,0,0,0-.5939.61259h.33081a.26977.26977,0,0,1,.26309-.281h5.37219a.26955.26955,0,0,1,.26282.281Z" transform="translate(-131.8235 -108.60181)" style="fill:#fff"/><path d="M275.0661,300.7854h0v2.7077l-1.59729.6216a2.47347,2.47347,0,0,1,.0918-1.6747,4.15141,4.15141,0,0,0,.24118-1.2407,2.44926,2.44926,0,0,0-.1882-.9366Zm.33081,2.9342v-3.1669l-2.48-.8921.2247.3907a2.2657,2.2657,0,0,1,.32941,1.148,3.89455,3.89455,0,0,1-.22672,1.1438,3.89657,3.89657,0,0,0-.22818,1.144,2.01764,2.01764,0,0,0,.2179.9125l.0675.1358Z" transform="translate(-131.8235 -108.60181)" style="fill:#fff"/><path d="M251.29961,115.25049H239.5304v11.76892h11.76921ZM239.7798,115.5h11.2706v11.27051H239.7798Z" transform="translate(-131.8235 -108.60181)" style="fill:#fff"/><path d="M245.4151,125.9212a3.91958,3.91958,0,0,1-.9816-7.7142.29981.29981,0,0,1-.0743-.19751v-.04059a4.16846,4.16846,0,1,0,2.1115-.00031v.04089a.29857.29857,0,0,1-.0739.1973,3.9197,3.9197,0,0,1-.9817,7.71442" transform="translate(-131.8235 -108.60181)" style="fill:#fff"/><path d="M245.4151,118.5206a3.48151,3.48151,0,1,0,3.4812,3.48169,3.48569,3.48569,0,0,0-3.4812-3.48169m0,6.7135a3.2319,3.2319,0,1,1,3.2318-3.23181A3.2355,3.2355,0,0,1,245.4151,125.2341Z" transform="translate(-131.8235 -108.60181)" style="fill:#fff"/><path d="M245.4151,121.09979a.90225.90225,0,1,0,.9026.9025.90332.90332,0,0,0-.9026-.9025m0,1.55569a.653.653,0,1,1,.65311-.6532A.65432.65432,0,0,1,245.4151,122.65549Z" transform="translate(-131.8235 -108.60181)" style="fill:#fff"/><rect x="113.4669" y="12.74319" width="0.24939" height="1.3139" style="fill:#fff"/><rect x="112.9348" y="13.2753" width="1.3136" height="0.24969" style="fill:#fff"/><path d="M246.1689,117.19559h-1.50749a.42709.42709,0,0,0-.42661.42673v.38718a.42686.42686,0,0,0,.42661.42661h1.50749a.42693.42693,0,0,0,.42661-.42661v-.38718a.42716.42716,0,0,0-.42661-.42673m-1.50749.991a.17764.17764,0,0,1-.17751-.17709v-.38718a.17755.17755,0,0,1,.17751-.17722h1.50749a.17726.17726,0,0,1,.17709.17722v.38718a.17735.17735,0,0,1-.17709.17709Z" transform="translate(-131.8235 -108.60181)" style="fill:#fff"/><path d="M245.1951,117.3204v-.08652a.2197.2197,0,0,1,.43941,0v.08652h.24979v-.08652a.46945.46945,0,0,0-.93889,0v.08652Zm.22,2.59a.22052.22052,0,0,1-.22-.22061V118.3114h-.24969v1.37839a.46944.46944,0,1,0,.93889,0V118.3114h-.24979v1.37839A.22.22,0,0,1,245.4151,119.9104Z" transform="translate(-131.8235 -108.60181)" style="fill:#fff"/><path d="M222.6348,115.73181h7.1566a1.49611,1.49611,0,0,1,1.49411,1.49469v8.29871a1.496,1.496,0,0,1-1.49411,1.4942h-7.1566a1.49572,1.49572,0,0,1-1.4942-1.4942V117.2265a1.4958,1.4958,0,0,1,1.4942-1.49469m7.1566,11.0546a1.26265,1.26265,0,0,0,1.26111-1.2612V117.2265a1.26275,1.26275,0,0,0-1.26111-1.26169h-7.1566a1.263,1.263,0,0,0-1.2617,1.26169v8.29871a1.2629,1.2629,0,0,0,1.2617,1.2612Z" transform="translate(-131.8235 -108.60181)" style="fill:#fff"/><path d="M222.6348,116.55081h7.1566a.67612.67612,0,0,1,.6758.67569v7.01071a.67641.67641,0,0,1-.6758.67578h-7.1566a.67654.67654,0,0,1-.67639-.67578V117.2265a.67625.67625,0,0,1,.67639-.67569m7.1566,8.12918a.44329.44329,0,0,0,.4431-.44278V117.2265a.44347.44347,0,0,0-.4431-.443h-7.1566a.44378.44378,0,0,0-.44389.443v7.01071a.4436.4436,0,0,0,.44389.44278Z" transform="translate(-131.8235 -108.60181)" style="fill:#fff"/><path d="M229.0912,125.3316a.47424.47424,0,1,1-.4742.4743.475.475,0,0,1,.4742-.4743m0,.71548a.24124.24124,0,1,0-.2415-.24118A.24183.24183,0,0,0,229.0912,126.04709Z" transform="translate(-131.8235 -108.60181)" style="fill:#fff"/><path d="M227.49049,125.3316a.47424.47424,0,1,1-.47479.4743.475.475,0,0,1,.47479-.4743m0,.71548a.24124.24124,0,1,0-.24179-.24118A.24152.24152,0,0,0,227.49049,126.04709Z" transform="translate(-131.8235 -108.60181)" style="fill:#fff"/><rect x="94.9949" y="10.0914" width="2.71959" height="0.2327" style="fill:#fff"/><rect x="96.2382" y="8.84729" width="0.2327" height="2.71951" style="fill:#fff"/><path d="M228.17821,117.91251a.8969.8969,0,1,1-.89661.89688.898.898,0,0,1,.89661-.89688m0,1.5611a.66431.66431,0,1,0-.66391-.66422A.66556.66556,0,0,0,228.17821,119.4736Z" transform="translate(-131.8235 -108.60181)" style="fill:#fff"/><rect x="94.9949" y="13.93658" width="2.71959" height="0.23242" style="fill:#fff"/><rect x="96.2382" y="12.6922" width="0.2327" height="2.7204" style="fill:#fff"/><path d="M228.17821,121.7569a.89716.89716,0,1,1-.89661.8974.89858.89858,0,0,1,.89661-.8974m0,1.56189a.66475.66475,0,1,0-.66391-.66449A.66542.66542,0,0,0,228.17821,123.31879Z" transform="translate(-131.8235 -108.60181)" style="fill:#fff"/><rect x="91.06439" y="10.0914" width="2.7193" height="0.2327" style="fill:#fff"/><rect x="92.3071" y="8.84729" width="0.233" height="2.71951" style="fill:#fff"/><path d="M224.2471,117.91251a.8969.8969,0,1,1-.8969.89688.89783.89783,0,0,1,.8969-.89688m0,1.5611a.66431.66431,0,1,0-.66389-.66422A.66607.66607,0,0,0,224.2471,119.4736Z" transform="translate(-131.8235 -108.60181)" style="fill:#fff"/><rect x="91.06439" y="13.93658" width="2.7193" height="0.23242" style="fill:#fff"/><rect x="92.3071" y="12.6922" width="0.233" height="2.7204" style="fill:#fff"/><path d="M224.2471,121.7569a.89716.89716,0,1,1-.8969.8974.89845.89845,0,0,1,.8969-.8974m0,1.56189a.66475.66475,0,1,0-.66389-.66449A.66593.66593,0,0,0,224.2471,123.31879Z" transform="translate(-131.8235 -108.60181)" style="fill:#fff"/><path d="M224.7769,125.3316a.47424.47424,0,1,1-.4745.4743.47478.47478,0,0,1,.4745-.4743m0,.71548a.24124.24124,0,1,0-.24181-.24118A.24165.24165,0,0,0,224.7769,126.04709Z" transform="translate(-131.8235 -108.60181)" style="fill:#fff"/><path d="M223.17529,125.3316a.47424.47424,0,1,1-.47389.4743.47468.47468,0,0,1,.47389-.4743m0,.71548a.24124.24124,0,1,0-.24149-.24118A.24167.24167,0,0,0,223.17529,126.04709Z" transform="translate(-131.8235 -108.60181)" style="fill:#fff"/><path d="M285.24869,116.625a.80927.80927,0,1,0,.23471.57089.81009.81009,0,0,0-.23471-.57089m-.5726-1.03629a1.60687,1.60687,0,1,1-1.13638.47049A1.60312,1.60312,0,0,1,284.67609,115.58871Z" transform="translate(-131.8235 -108.60181)" style="fill:#fff"/><path d="M285.38251,272.524a.80929.80929,0,1,0,.23468.57089.81022.81022,0,0,0-.23468-.57089m-.5726-1.0363a1.60705,1.60705,0,1,1-1.13641.4705A1.603,1.603,0,0,1,284.80991,271.4877Z" transform="translate(-131.8235 -108.60181)" style="fill:#fff"/><path d="M232.83949,216.5318c-.73189,0-1.23589-.6179-1.23589-1.7399s.504-1.7399,1.23589-1.7399,1.2359.618,1.2359,1.7399-.504,1.7399-1.2359,1.7399m0,.396c.972,0,1.67981-.7979,1.67981-2.13589s-.70781-2.13589-1.67981-2.13589-1.67389.798-1.67389,2.13589S231.86749,216.9278,232.83949,216.9278Zm-4.5-.42009,1.4281-1.4037a1.729,1.729,0,0,0,.68991-1.3141c0-.7019-.54-1.1339-1.39211-1.1339a1.8874,1.8874,0,0,0-1.4879.59979l.30591.26421a1.42625,1.42625,0,0,1,1.146-.468c.64209,0,.984.2999.984.7861,0,.28769-.0899.5697-.5639,1.03769L227.7034,216.586v.3058h2.946v-.38409Zm-1.55989-.23981a.31414.31414,0,0,0-.3181.324.30323.30323,0,0,0,.216.30589l-.2041.8699h.288l.252-.828a.97556.97556,0,0,0,.0842-.34779A.314.314,0,0,0,226.7796,216.2679Zm-2.6221.294c-.74409,0-1.182-.324-1.182-.84621,0-.5159.43791-.8399,1.182-.8399.7439,0,1.188.324,1.188.8399C225.3455,216.2379,224.9014,216.5619,224.1575,216.5619Zm-1.038-2.78391c0-.468.40189-.756,1.038-.756.6299,0,1.044.288,1.044.7619,0,.4561-.39.75009-1.044.75009S223.11951,214.24,223.11951,213.778Zm1.8479.9119a.95116.95116,0,0,0,.67209-.9238c0-.684-.5941-1.11009-1.482-1.11009-.88811,0-1.47.42609-1.47,1.11009a.94774.94774,0,0,0,.6599.9238,1.04821,1.04821,0,0,0-.80989,1.0321c0,.74381.612,1.2058,1.62,1.2058,1.00211,0,1.6319-.462,1.6319-1.2058A1.05754,1.05754,0,0,0,224.96741,214.6899Zm-4.83-1.99789v.3838h.99019v3.816h.432V212.692Z" transform="translate(-131.8235 -108.60181)" style="fill:#fff;fill-rule:evenodd"/><path d="M232.3355,149.3317c-.73189,0-1.2359-.61789-1.2359-1.7399s.504-1.7399,1.2359-1.7399,1.2359.618,1.2359,1.7399-.504,1.7399-1.2359,1.7399m0,.396c.972,0,1.67981-.79788,1.67981-2.13589s-.70781-2.13589-1.67981-2.13589-1.67389.798-1.67389,2.13589S231.36349,149.72769,232.3355,149.72769Zm-4.5-.42011,1.4281-1.40369a1.729,1.729,0,0,0,.68991-1.31409c0-.7019-.54-1.13391-1.39211-1.13391a1.88745,1.88745,0,0,0-1.4879.59979l.30589.26419a1.42634,1.42634,0,0,1,1.146-.468c.64209,0,.984.2999.984.7861,0,.28769-.0899.5697-.5639,1.03769l-1.74609,1.71021v.30582h2.946v-.38412Zm-1.55989-.23978a.31413.31413,0,0,0-.3181.324.30321.30321,0,0,0,.216.30591l-.20409.8699h.288l.252-.828a.97549.97549,0,0,0,.0842-.34781A.314.314,0,0,0,226.2756,149.06781Zm-2.28621-1.77591,1.188-1.49411v-.30588h-2.7v.38379h2.1481l-1.16391,1.45819v.318h.29991c.77989,0,1.1339.33,1.1339.834,0,.52179-.3838.84579-1.08.84579a1.84167,1.84167,0,0,1-1.302-.48581l-.21.34183a2.1845,2.1845,0,0,0,1.512.54c1.014,0,1.5239-.54,1.5239-1.24179C225.33929,147.81381,224.8894,147.33981,223.9894,147.2919Zm-3.852-1.8v.38379h.99019v3.816h.432v-4.1998Z" transform="translate(-131.8235 -108.60181)" style="fill:#fff;fill-rule:evenodd"/><path d="M153.96941,149.3317c-.7319,0-1.2359-.61789-1.2359-1.7399s.504-1.7399,1.2359-1.7399,1.236.618,1.236,1.7399-.504,1.7399-1.236,1.7399m0,.396c.972,0,1.6799-.79788,1.6799-2.13589s-.7079-2.13589-1.6799-2.13589-1.67381.798-1.67381,2.13589S152.99741,149.72769,153.96941,149.72769Zm-4.5-.42011,1.4281-1.40369a1.72886,1.72886,0,0,0,.69-1.31409c0-.7019-.54-1.13391-1.39209-1.13391a1.88743,1.88743,0,0,0-1.4879.59979l.30589.26419a1.42619,1.42619,0,0,1,1.146-.468c.642,0,.9839.2999.9839.7861,0,.28769-.08989.5697-.5638,1.03769l-1.74609,1.71021v.30582h2.946v-.38412Zm-1.55991-.23978a.314.314,0,0,0-.318.324.30321.30321,0,0,0,.216.30591l-.2041.8699h.288l.252-.828a.97549.97549,0,0,0,.0842-.34781A.314.314,0,0,0,147.9095,149.06781Zm-2.2861-1.77591,1.188-1.49411v-.30588h-2.7v.38379h2.1481l-1.16391,1.45819v.318h.2999c.7798,0,1.13391.33,1.13391.834,0,.52179-.38391.84579-1.08.84579a1.84148,1.84148,0,0,1-1.302-.48581l-.21.34183a2.18456,2.18456,0,0,0,1.512.54c1.0139,0,1.5239-.54,1.5239-1.24179C146.9733,147.81381,146.52341,147.33981,145.6234,147.2919Z" transform="translate(-131.8235 -108.60181)" style="fill:#fff;fill-rule:evenodd"/><path d="M198.02721,282.53169c-.7319,0-1.2359-.61789-1.2359-1.7399s.504-1.7399,1.2359-1.7399,1.2359.618,1.2359,1.7399-.504,1.7399-1.2359,1.7399m0,.396c.972,0,1.67979-.7979,1.67979-2.13591s-.70779-2.13589-1.67979-2.13589-1.67381.798-1.67381,2.13589S197.05521,282.9277,198.02721,282.9277Zm-3.97191-.396c-.7319,0-1.2359-.61789-1.2359-1.7399s.504-1.7399,1.2359-1.7399,1.2359.618,1.2359,1.7399S194.7872,282.53169,194.0553,282.53169Zm0,.396c.972,0,1.67981-.7979,1.67981-2.13591s-.70781-2.13589-1.67981-2.13589-1.6739.798-1.6739,2.13589S193.0833,282.9277,194.0553,282.9277Zm-2.5498-.6599a.31405.31405,0,0,0-.318.324.30326.30326,0,0,0,.216.30591l-.2041.86989h.288l.252-.828a.97563.97563,0,0,0,.0842-.34781A.314.314,0,0,0,191.50549,282.26781Zm-2.34.294c-.72589,0-1.11-.438-1.11-.9a.97208.97208,0,0,1,1.08-.91791c.648,0,1.05591.35381,1.05591.906A.9189.9189,0,0,1,189.1655,282.5618Zm.036-2.1841a1.3427,1.3427,0,0,0-1.2841.72c-.0119-.1259-.01781-.2458-.01781-.3419,0-1.14011.58191-1.722,1.4879-1.722a1.47064,1.47064,0,0,1,.8158.1981l.1741-.3481a1.92855,1.92855,0,0,0-.9959-.22791c-1.14011,0-1.91991.74381-1.91991,2.17191,0,1.3261.6058,2.0999,1.7218,2.0999a1.3085,1.3085,0,0,0,1.434-1.29A1.2716,1.2716,0,0,0,189.20151,280.3777Zm-4.16411-1.68581v.3838h.9902v3.816h.432v-4.1998Z" transform="translate(-131.8235 -108.60181)" style="fill:#fff;fill-rule:evenodd"/><path d="M285.52539,194.07291c-.732,0-1.236-.6179-1.236-1.73991s.504-1.7399,1.236-1.7399,1.2359.618,1.2359,1.7399-.504,1.73991-1.2359,1.73991m0,.396c.972,0,1.67981-.7979,1.67981-2.13591s-.70779-2.13589-1.67981-2.13589-1.67389.798-1.67389,2.13589S284.55341,194.4689,285.52539,194.4689Zm-3.966-2.514h-.54l.144-1.338h1.91992v-.3838h-2.29782l-.216,2.10591h.8941c1.06781,0,1.40372.33589,1.40372.8759,0,.50989-.3779.858-1.09192.858a1.82131,1.82131,0,0,1-1.29-.48581l-.20981.3418a2.16818,2.16818,0,0,0,1.5058.54c1.02609,0,1.5239-.5578,1.5239-1.2719C283.3053,192.4529,282.82541,191.9549,281.55939,191.9549Zm-2.04578,1.85411a.31406.31406,0,0,0-.318.324.30316.30316,0,0,0,.216.30591l-.2041.86989h.288l.252-.828a.976.976,0,0,0,.0842-.34781A.314.314,0,0,0,279.51361,193.809Zm-2.56192-1.4281c-.648,0-1.05588-.354-1.05588-.9059a.919.919,0,0,1,1.02579-.91191c.726,0,1.11011.4379,1.11011.9A.97215.97215,0,0,1,276.95169,192.38091Zm-.04788-2.18381a1.30856,1.30856,0,0,0-1.43411,1.28979,1.2715,1.2715,0,0,0,1.41589,1.26,1.34223,1.34223,0,0,0,1.28412-.72c.0119.1261.01788.246.01788.3421,0,1.1398-.582,1.72209-1.48788,1.72209a1.472,1.472,0,0,1-.8158-.1982l-.1741.3481a1.92721,1.92721,0,0,0,.99579.22791c1.14011,0,1.91989-.74411,1.91989-2.17191C278.62549,190.971,278.01981,190.1971,276.90381,190.1971Z" transform="translate(-131.8235 -108.60181)" style="fill:#fff;fill-rule:evenodd"/><polygon points="161.408 151.544 160.568 151.544 160.568 150.572 160.148 150.572 160.148 151.544 158.324 151.544 160.472 148.832 159.992 148.832 157.766 151.616 157.766 151.928 160.136 151.928 160.136 153.032 160.568 153.032 160.568 151.928 161.408 151.928 161.408 151.544" style="fill:#fff;fill-rule:evenodd"/><path d="M271.73,140.374c-.7319,0-1.2359-.618-1.2359-1.7399s.504-1.7399,1.2359-1.7399,1.2359.61789,1.2359,1.7399-.504,1.7399-1.2359,1.7399m0,.396c.972,0,1.67978-.798,1.67978-2.13589s-.70779-2.13589-1.67978-2.13589-1.67392.79791-1.67392,2.13589S270.758,140.77,271.73,140.77Zm-3.90591-.366c-.74411,0-1.182-.324-1.182-.8461,0-.5159.4379-.8399,1.182-.8399.7438,0,1.188.324,1.188.8399C269.01209,140.08,268.5679,140.404,267.8241,140.404Zm-1.038-2.78391c0-.468.40189-.756,1.038-.756.62991,0,1.044.288,1.044.762,0,.45612-.39.75-1.044.75S266.7861,138.08221,266.7861,137.62009Zm1.8479.91193a.95109.95109,0,0,0,.67209-.92383c0-.684-.59418-1.11-1.482-1.11-.88809,0-1.47.426-1.47,1.11a.94769.94769,0,0,0,.65991.92383,1.04822,1.04822,0,0,0-.80991,1.03207c0,.7438.612,1.2059,1.62,1.2059,1.00211,0,1.6319-.4621,1.6319-1.2059A1.05764,1.05764,0,0,0,268.634,138.532Zm-3.40781,1.57809a.31408.31408,0,0,0-.31808.324.30309.30309,0,0,0,.216.30579l-.2041.87h.288l.252-.828a.97559.97559,0,0,0,.0842-.34778A.314.314,0,0,0,265.2262,140.11011Zm-2.75421-3.5759v.38379h.9902v3.816h.432v-4.1998Z" transform="translate(-131.8235 -108.60181)" style="fill:#fff;fill-rule:evenodd"/><path d="M269.6973,289.1727c-.7319,0-1.2359-.6179-1.2359-1.7399s.504-1.7399,1.2359-1.7399,1.2359.618,1.2359,1.7399-.504,1.7399-1.2359,1.7399m0,.396c.972,0,1.67981-.7979,1.67981-2.13589s-.70779-2.13589-1.67981-2.13589-1.67389.798-1.67389,2.13589S268.72531,289.5687,269.6973,289.5687Zm-3.6239-.36589c-.72589,0-1.11-.438-1.11-.9a.97212.97212,0,0,1,1.08-.91789c.648,0,1.05591.35379,1.05591.906A.91891.91891,0,0,1,266.07339,289.2028Zm.036-2.18411a1.34246,1.34246,0,0,0-1.284.72c-.012-.1259-.01791-.24579-.01791-.34189,0-1.14011.58191-1.722,1.48792-1.722a1.47064,1.47064,0,0,1,.8158.19809l.1741-.3481a1.92858,1.92858,0,0,0-.99591-.22789c-1.14,0-1.91989.74379-1.91989,2.17189,0,1.32611.6058,2.0999,1.7218,2.0999a1.30857,1.30857,0,0,0,1.43408-1.29A1.2717,1.2717,0,0,0,266.10941,287.01869Zm-2.61581,1.89011a.31406.31406,0,0,0-.318.324.30313.30313,0,0,0,.216.30589l-.2041.8699h.288l.252-.828a.97589.97589,0,0,0,.0842-.34779A.314.314,0,0,0,263.49359,288.9088Zm-3.24.23981,1.4281-1.4037a1.72912,1.72912,0,0,0,.69-1.3141c0-.7019-.54-1.1339-1.39209-1.1339a1.88726,1.88726,0,0,0-1.48792.59979l.30579.26421a1.42657,1.42657,0,0,1,1.14612-.468c.642,0,.98389.2999.98389.7861,0,.28769-.0899.5697-.56378,1.03769l-1.74622,1.71021v.3058h2.94611v-.38409Z" transform="translate(-131.8235 -108.60181)" style="fill:#fff;fill-rule:evenodd"/><path d="M284.79089,123.78729V121.0726H277.831v2.71469Zm0,4.62869v-2.71469H277.831V128.416Zm-4.068,4.74121v-2.715H277.831v2.715Zm4.068,0v-2.715H281.899v2.715Zm-8.174-19.11569h12.23489v20.53531H276.61691Z" transform="translate(-131.8235 -108.60181)" style="fill:#003915;fill-rule:evenodd"/><path d="M259.9274,212.13049a.374.374,0,1,1,.37469-.64749l13.9201,8.0399a.374.374,0,1,1-.37469.64749Z" transform="translate(-131.8235 -108.60181)" style="fill:#003915"/><path d="M214.0435,227.7825a.374.374,0,1,0-.6474.3748l8.0399,13.92009a.374.374,0,0,0,.6474-.37479Z" transform="translate(-131.8235 -108.60181)" style="fill:#003915"/><path d="M214.0435,263.7627a.374.374,0,0,1-.6474-.37469l8.0399-13.9201a.374.374,0,1,1,.6474.37471Z" transform="translate(-131.8235 -108.60181)" style="fill:#003915"/><path d="M245.65581,267.70171a.374.374,0,1,0,.6474-.37471l-8.0399-13.92009a.374.374,0,1,0-.6474.37469Z" transform="translate(-131.8235 -108.60181)" style="fill:#003915"/><path d="M166.98421,173.32249a.37408.37408,0,0,1-.64751-.3748l8.0399-13.92011a.37408.37408,0,0,1,.64749.37482Z" transform="translate(-131.8235 -108.60181)" style="fill:#003915"/><rect x="113.8586" y="135.02359" width="2.6022" height="5.98221" style="fill:#003915"/><rect x="113.8586" y="110.79269" width="2.6022" height="32.7187" style="fill:#003915"/><rect x="89.534" y="70.39049" width="2.6022" height="44.96201" style="fill:#003915"/><rect x="89.534" y="133.27229" width="2.6022" height="7.92371" style="fill:#003915"/><rect x="89.534" y="159.5107" width="2.6022" height="3.9619" style="fill:#003915"/><rect x="113.8586" y="158.93039" width="2.6022" height="42.6319" style="fill:#003915"/><rect x="110.6711" y="161.4325" width="2.6022" height="40.1298" style="fill:#003915"/><rect x="113.8586" y="110.79269" width="12.08441" height="2.6022" style="fill:#003915"/><rect x="141.9012" y="110.79269" width="16.34711" height="2.6022" style="fill:#003915"/><rect x="123.73109" y="64.8326" width="34.51721" height="2.6022" style="fill:#003915"/><rect x="119.1362" y="136.39099" width="39.11211" height="2.6022" style="fill:#003915"/><rect x="90.021" y="161.0161" width="26.4398" height="2.60219" style="fill:#003915"/><rect x="6.8958" y="136.27109" width="84.1003" height="2.6022" style="fill:#003915"/><rect x="6.8958" y="70.39049" width="85.2404" height="2.6022" style="fill:#003915"/><rect x="155.12431" y="3.50168" width="6.4256" height="84.25101" style="fill:#003915"/><rect x="155.12431" y="107.13179" width="6.4256" height="95.4008" style="fill:#003915"/><rect x="155.12431" y="170.6931" width="6.4256" height="31.83949" style="fill:#003915"/><rect x="127.17131" width="34.3786" height="6.27341" style="fill:#003915"/><rect x="31.2627" width="8.16011" height="34.83328" style="fill:#003915"/><rect x="0.43089" y="199.83319" width="161.11902" height="8.1601" style="fill:#003915"/><rect x="36.4408" width="91.91029" height="6.27341" style="fill:#003915"/><rect y="64.83319" width="35.34261" height="8.1601" style="fill:#003915"/><rect x="31.2627" y="64.6308" width="8.16011" height="8.36249" style="fill:#003915"/><rect y="64.83319" width="8.1601" height="24.04181" style="fill:#003915"/><rect y="118.45819" width="8.1601" height="36.4949" style="fill:#003915"/><rect y="183.99319" width="8.1601" height="24.0001" style="fill:#003915"/><rect x="113.8586" y="64.59309" width="12.7843" height="8.1601" style="fill:#003915"/><rect x="113.8586" y="130.8331" width="12.7843" height="8.1601" style="fill:#003915"/><rect x="113.8586" y="64.8326" width="12.7843" height="8.1601" style="fill:#003915"/><rect x="0.3591" width="39.06371" height="10.45108" style="fill:#003915"/><rect x="3.00189" y="103.8223" width="2.2986" height="0.5018" style="fill:#003915"/><rect x="3.00189" y="102.6241" width="2.2986" height="0.50119" style="fill:#003915"/><rect x="3.00189" y="89.98669" width="2.2986" height="0.5015" style="fill:#003915"/><rect x="3.00189" y="88.7885" width="2.2986" height="0.50119" style="fill:#003915"/><rect x="3.00189" y="117.9341" width="2.2986" height="0.50169" style="fill:#003915"/><rect x="3.00189" y="116.7361" width="2.2986" height="0.50119" style="fill:#003915"/><rect y="86.73169" width="0.5014" height="34.0937" style="fill:#003915"/><rect x="2.84709" y="86.73169" width="0.50151" height="34.0937" style="fill:#003915"/><rect x="5.01849" y="86.73169" width="0.5014" height="34.0937" style="fill:#003915"/><rect x="7.6595" y="86.73169" width="0.5014" height="34.0937" style="fill:#003915"/><rect x="3.00189" y="169.63399" width="2.2986" height="0.5018" style="fill:#003915"/><rect x="3.00189" y="168.43579" width="2.2986" height="0.50121" style="fill:#003915"/><rect x="3.00189" y="155.79839" width="2.2986" height="0.50151" style="fill:#003915"/><rect x="3.00189" y="154.60019" width="2.2986" height="0.50121" style="fill:#003915"/><rect x="3.00189" y="183.7457" width="2.2986" height="0.5018" style="fill:#003915"/><rect x="3.00189" y="182.54779" width="2.2986" height="0.50121" style="fill:#003915"/><rect y="152.5434" width="0.5014" height="34.0937" style="fill:#003915"/><rect x="2.84709" y="152.5434" width="0.50151" height="34.0937" style="fill:#003915"/><rect x="5.01849" y="152.5434" width="0.5014" height="34.0937" style="fill:#003915"/><rect x="7.6595" y="152.5434" width="0.5014" height="34.0937" style="fill:#003915"/><path d="M166.434,154.2782h1.6698v.697H166.434Zm0-13.56921h1.6698V153.7767H166.434Zm0-1.19818h1.6698v.69708H166.434Zm1.6698-.50171H166.434V133.2196h-.50151v21.75558h-2.34569V133.2196h-.5014v22.25681h8.1609V133.2196h-.5014v21.75558h-2.1396V136.9234h-.5015Z" transform="translate(-131.8235 -108.60181)" style="fill:#003915;fill-rule:evenodd"/><rect x="4.3053" y="47.40158" width="1.2971" height="0.44702" style="fill:#003915"/><rect x="4.3053" y="46.33368" width="1.2971" height="0.44681" style="fill:#003915"/><rect x="4.3053" y="28.7995" width="1.2971" height="0.44699" style="fill:#003915"/><rect x="4.3053" y="27.73169" width="1.2971" height="0.44672" style="fill:#003915"/><rect x="4.3053" y="10.19708" width="1.2971" height="0.44702" style="fill:#003915"/><rect x="4.3053" y="9.1293" width="1.2971" height="0.44669" style="fill:#003915"/><rect x="4.3053" y="66.00389" width="1.2971" height="0.44701" style="fill:#003915"/><rect x="4.3053" y="64.9361" width="1.2971" height="0.4467" style="fill:#003915"/><rect x="3.0759" y="7.06259" width="0.4467" height="60.8213" style="fill:#003915"/><rect x="4.16721" y="7.06259" width="0.44669" height="60.8213" style="fill:#003915"/><rect x="5.24809" y="7.06259" width="0.4467" height="60.8213" style="fill:#003915"/><path d="M248.4043,226.00349v9.82231a.90519.90519,0,0,0,.9039.9054h4.61031a4.59566,4.59566,0,0,0,4.591-4.58951v-2.4523a4.59572,4.59572,0,0,0-4.591-4.59039H249.3082a.90462.90462,0,0,0-.9039.9045m9.8606,6.1382a4.35108,4.35108,0,0,1-4.34639,4.34491H249.3082a.66144.66144,0,0,1-.6599-.6608v-9.82231a.66067.66067,0,0,1,.6599-.6599h4.61031a4.35146,4.35146,0,0,1,4.34639,4.34579Z" transform="translate(-131.8235 -108.60181)" style="fill:#003915"/><path d="M257.17459,232.1414a3.25867,3.25867,0,0,1-3.25609,3.25439h-2.68811a.56778.56778,0,0,1-.56749-.5672v-3.5753h-.24521v3.5753a.81405.81405,0,0,0,.8127.81241h2.68811a3.50408,3.50408,0,0,0,3.50081-3.4996v-2.4523a3.50472,3.50472,0,0,0-3.50081-3.50081h-2.68811a.8145.8145,0,0,0-.8127.8136v3.5753h.24521v-3.5753a.56829.56829,0,0,1,.56749-.56839h2.68811a3.25931,3.25931,0,0,1,3.25609,3.2556Z" transform="translate(-131.8235 -108.60181)" style="fill:#003915"/><path d="M253.571,230.91451a.7835.7835,0,1,0,.78351-.78371.78467.78467,0,0,0-.78351.78371m1.3223,0a.5387.5387,0,1,1-.53879-.53911A.53967.53967,0,0,1,254.8933,230.91451Z" transform="translate(-131.8235 -108.60181)" style="fill:#003915"/><rect x="121.9722" y="122.19029" width="1.11659" height="0.2449" style="fill:#003915"/><rect x="122.4079" y="121.75519" width="0.2455" height="1.116" style="fill:#003915"/><path d="M249.58659,230.57719v-.40359a.17367.17367,0,0,1,.174-.173h.37929a.17375.17375,0,0,1,.1741.173v.40359h.2449v-.40359a.4187.4187,0,0,0-.419-.41811h-.37929a.41856.41856,0,0,0-.41861.41811v.40559l.0374-.002Zm.7274,1.07721a.17446.17446,0,0,1-.1741.174h-.37929a.17439.17439,0,0,1-.174-.174v-.40111h-.2072l-.0374-.0023v.40341a.41855.41855,0,0,0,.41861.4187h.37929a.41869.41869,0,0,0,.419-.4187v-.40111h-.2449Z" transform="translate(-131.8235 -108.60181)" style="fill:#003915"/><path d="M248.919,230.91451a.46105.46105,0,0,0,.46039.4612h3.0804a.46045.46045,0,0,0,0-.9209h-3.0804a.46053.46053,0,0,0-.46039.4597m3.75679,0a.2167.2167,0,0,1-.216.21629h-3.0804a.21555.21555,0,0,1,0-.43109h3.0804A.216.216,0,0,1,252.6758,230.91451Z" transform="translate(-131.8235 -108.60181)" style="fill:#003915"/><path d="M272.94211,230.85471a3.917,3.917,0,0,0,3.9129,3.91159h5.66528a.67743.67743,0,0,0,.63931-.4561,1.24053,1.24053,0,0,0,.2049.20351.94583.94583,0,0,1-.84421.52159H276.855a4.18085,4.18085,0,1,1,0-8.36169h5.66528a.94524.94524,0,0,1,.8436.521,1.2446,1.2446,0,0,0-.20459.20331.67636.67636,0,0,0-.639-.4556H276.855a3.91713,3.91713,0,0,0-3.9129,3.9124" transform="translate(-131.8235 -108.60181)" style="fill:#003915"/><path d="M281.43951,228.051v5.6089a.204.204,0,0,1-.20151.20131h-4.27072a3.00661,3.00661,0,1,1,0-6.01321H281.238a.20468.20468,0,0,1,.20151.203m-.26822,5.5414V228.1165h-4.204a2.73795,2.73795,0,0,0,0,5.47589Z" transform="translate(-131.8235 -108.60181)" style="fill:#003915"/><path d="M278.70859,230.855a1.00815,1.00815,0,1,1-1.008-1.00879,1.01,1.01,0,0,1,1.008,1.00879m-1.74759,0a.73946.73946,0,1,0,.73959-.73979A.74046.74046,0,0,0,276.961,230.855Z" transform="translate(-131.8235 -108.60181)" style="fill:#003915"/><rect x="279.6505" y="231.35532" width="0.26857" height="2.2422" transform="translate(-205.68193 209.08785) rotate(-53.27122)" style="fill:#003915"/><rect x="278.66303" y="229.14251" width="2.24304" height="0.26918" transform="translate(-213.41636 104.74565) rotate(-36.80986)" style="fill:#003915"/><path d="M286.94131,228.15421v5.4005a1.35512,1.35512,0,0,1-1.35391,1.3524h-1.4743a1.35349,1.35349,0,0,1-1.35239-1.3524v-5.4005a1.3532,1.3532,0,0,1,1.35239-1.35191h1.4743a1.35483,1.35483,0,0,1,1.35391,1.35191m-3.91211,5.4005a1.08541,1.08541,0,0,0,1.08389,1.08429h1.4743a1.08586,1.08586,0,0,0,1.08508-1.08429v-5.4005a1.08594,1.08594,0,0,0-1.08508-1.08371h-1.4743a1.08549,1.08549,0,0,0-1.08389,1.08371Z" transform="translate(-131.8235 -108.60181)" style="fill:#003915"/><path d="M285.539,230.855a.68816.68816,0,1,1-.68741-.6882.68815.68815,0,0,1,.68741.6882m-1.1073,0a.41925.41925,0,1,0,.41989-.41949A.41951.41951,0,0,0,284.4317,230.855Z" transform="translate(-131.8235 -108.60181)" style="fill:#003915"/><path d="M272.94211,260.61569a3.91689,3.91689,0,0,0,3.9129,3.91151h5.66528a.67731.67731,0,0,0,.63931-.4561,1.24044,1.24044,0,0,0,.2049.20349.94584.94584,0,0,1-.84421.52161H276.855a4.1808,4.1808,0,1,1,0-8.3616h5.66528a.94524.94524,0,0,1,.8436.521,1.241,1.241,0,0,0-.20459.2032.67642.67642,0,0,0-.639-.45551H276.855a3.91708,3.91708,0,0,0-3.9129,3.9124" transform="translate(-131.8235 -108.60181)" style="fill:#003915"/><path d="M281.43951,257.8119v5.6089a.20393.20393,0,0,1-.20151.20129h-4.27072a3.00655,3.00655,0,1,1,0-6.01311H281.238a.20466.20466,0,0,1,.20151.20291m-.26822,5.54149v-5.476h-4.204a2.738,2.738,0,0,0,0,5.476Z" transform="translate(-131.8235 -108.60181)" style="fill:#003915"/><path d="M278.70859,260.616a1.00815,1.00815,0,1,1-1.008-1.0089,1.01,1.01,0,0,1,1.008,1.0089m-1.74759,0a.73946.73946,0,1,0,.73959-.7399A.74037.74037,0,0,0,276.961,260.616Z" transform="translate(-131.8235 -108.60181)" style="fill:#003915"/><rect x="279.6505" y="261.11628" width="0.26857" height="2.2422" transform="translate(-229.54832 220.97403) rotate(-53.25955)" style="fill:#003915"/><rect x="278.66303" y="258.9035" width="2.24305" height="0.2691" transform="translate(-231.24797 110.67914) rotate(-36.80986)" style="fill:#003915"/><path d="M286.94131,257.9151v5.4006a1.35513,1.35513,0,0,1-1.35391,1.3524h-1.4743a1.3535,1.3535,0,0,1-1.35239-1.3524v-5.4006a1.35317,1.35317,0,0,1,1.35239-1.35181h1.4743a1.35481,1.35481,0,0,1,1.35391,1.35181m-3.91211,5.4006a1.0854,1.0854,0,0,0,1.08389,1.0842h1.4743a1.08585,1.08585,0,0,0,1.08508-1.0842v-5.4006a1.08593,1.08593,0,0,0-1.08508-1.08369h-1.4743a1.08548,1.08548,0,0,0-1.08389,1.08369Z" transform="translate(-131.8235 -108.60181)" style="fill:#003915"/><path d="M285.539,260.616a.68816.68816,0,1,1-.68741-.68829.68814.68814,0,0,1,.68741.68829m-1.1073,0a.41925.41925,0,1,0,.41989-.4196A.41942.41942,0,0,0,284.4317,260.616Z" transform="translate(-131.8235 -108.60181)" style="fill:#003915"/><path d="M249.5307,299.8293h0v7.8395h11.348v-7.8395Zm-.3308,8.1709v-8.5025h12.0099v8.5025Z" transform="translate(-131.8235 -108.60181)" style="fill:#003915"/><path d="M251.9252,299.6048a.60437.60437,0,0,1,.59351-.61259H257.891a.60411.60411,0,0,1,.59381.61259H258.154a.26967.26967,0,0,0-.263-.2809h-5.37228a.26944.26944,0,0,0-.26271.2809Z" transform="translate(-131.8235 -108.60181)" style="fill:#003915"/><path d="M254.183,302.2314h0v2.7076l1.59731.6217a2.47367,2.47367,0,0,0-.0919-1.6747,4.15479,4.15479,0,0,1-.2412-1.2408,2.44915,2.44915,0,0,1,.1882-.9365Zm-.3308,2.9341V301.9987l2.48-.89211-.22482.3906a2.26622,2.26622,0,0,0-.32939,1.148,3.89083,3.89083,0,0,0,.22679,1.1438,3.90026,3.90026,0,0,1,.22821,1.1441,2.01815,2.01815,0,0,1-.218.9125l-.06752.1357Z" transform="translate(-131.8235 -108.60181)" style="fill:#003915"/><path d="M266.73819,305.8972v-30.085a2.161,2.161,0,0,1,2.16562-2.15149h10.41138a2.161,2.161,0,0,1,2.166,2.15149v30.085a2.1609,2.1609,0,0,1-2.166,2.1512H268.90381a2.161,2.161,0,0,1-2.16562-2.1512m14.51312-30.085a1.93118,1.93118,0,0,0-1.93613-1.92189H268.90381a1.931,1.931,0,0,0-1.93552,1.92189v30.085a1.93148,1.93148,0,0,0,1.93552,1.9221h10.41138a1.93161,1.93161,0,0,0,1.93613-1.9221Z" transform="translate(-131.8235 -108.60181)" style="fill:#003915"/><path d="M279.98929,278.7979a2.577,2.577,0,0,0-2.58209-2.56529h-6.59479a2.57659,2.57659,0,0,0-2.58182,2.56529v24.1132a2.57719,2.57719,0,0,0,2.58182,2.566h2.06189a.39651.39651,0,0,0-.142.2281h-1.91989a2.80638,2.80638,0,0,1-2.8125-2.7941V278.7979a2.80664,2.80664,0,0,1,2.8125-2.7944h6.59479a2.80662,2.80662,0,0,1,2.81232,2.7944v24.1132a2.80636,2.80636,0,0,1-2.81232,2.7941H275.487a.39577.39577,0,0,0-.14139-.2281h2.06158a2.57754,2.57754,0,0,0,2.58209-2.566Z" transform="translate(-131.8235 -108.60181)" style="fill:#003915"/><path d="M278.676,280.3454a1.26668,1.26668,0,0,0-1.2688-1.2612h-6.59479a1.26636,1.26636,0,0,0-1.26822,1.2612v22.5657a1.26623,1.26623,0,0,0,1.26822,1.2615h2.84488v.2287h-2.84488a1.49623,1.49623,0,0,1-1.499-1.4902V280.3454a1.49574,1.49574,0,0,1,1.499-1.4894h6.59479a1.49533,1.49533,0,0,1,1.499,1.4894v22.5657a1.49582,1.49582,0,0,1-1.499,1.4902H274.5621v-.2287h2.84509a1.26655,1.26655,0,0,0,1.2688-1.2615Z" transform="translate(-131.8235 -108.60181)" style="fill:#003915"/><path d="M273.37689,301.006a.73336.73336,0,1,1,.73361.7299.73146.73146,0,0,1-.73361-.7299m1.23651,0a.5033.5033,0,1,0-.5029.50031A.50185.50185,0,0,0,274.6134,301.006Z" transform="translate(-131.8235 -108.60181)" style="fill:#003915"/><rect x="141.76369" y="192.28989" width="1.04572" height="0.2294" style="fill:#003915"/><rect x="142.17159" y="191.8857" width="0.2308" height="1.0378" style="fill:#003915"/><path d="M273.65729,305.506h-.53748a.27982.27982,0,0,0-.2803.2786v.5052a.28033.28033,0,0,0,.2803.2792h.53748v.2287h-.53748a.51032.51032,0,0,1-.51111-.5079v-.5052a.5097.5097,0,0,1,.51111-.5074h.53748Zm1.722.2786a.27985.27985,0,0,0-.28009-.2786h-.53711v-.2288h.53711a.50924.50924,0,0,1,.51077.5074v.5052a.50985.50985,0,0,1-.51077.5079h-.53711v-.2287h.53711a.28036.28036,0,0,0,.28009-.2792Z" transform="translate(-131.8235 -108.60181)" style="fill:#003915"/><path d="M273.5419,306.7957v-3.2011a.56765.56765,0,0,1,1.13528,0v3.2011a.56765.56765,0,0,1-1.13528,0m.90509-3.2011a.33719.33719,0,0,0-.67438,0v3.2011a.3372.3372,0,0,0,.67438,0Z" transform="translate(-131.8235 -108.60181)" style="fill:#003915"/><path d="M273.57932,115.25049H261.81009v11.76892h11.76923ZM262.0596,115.5h11.27051v11.27051H262.0596Z" transform="translate(-131.8235 -108.60181)" style="fill:#003915"/><path d="M267.69489,125.9212a3.91958,3.91958,0,0,1-.98169-7.7142.29971.29971,0,0,1-.07419-.19751v-.04059a4.16847,4.16847,0,1,0,2.11148-.00031v.04089a.29871.29871,0,0,1-.074.1973,3.9197,3.9197,0,0,1-.98163,7.71442" transform="translate(-131.8235 -108.60181)" style="fill:#003915"/><path d="M267.69489,118.5206a3.48151,3.48151,0,1,0,3.4812,3.48169,3.48572,3.48572,0,0,0-3.4812-3.48169m0,6.7135a3.2319,3.2319,0,1,1,3.23172-3.23181A3.23542,3.23542,0,0,1,267.69489,125.2341Z" transform="translate(-131.8235 -108.60181)" style="fill:#003915"/><path d="M267.69489,121.09979a.90225.90225,0,1,0,.90253.9025.90335.90335,0,0,0-.90253-.9025m0,1.55569a.653.653,0,1,1,.65311-.6532A.65432.65432,0,0,1,267.69489,122.65549Z" transform="translate(-131.8235 -108.60181)" style="fill:#003915"/><rect x="135.7466" y="12.74319" width="0.24951" height="1.3139" style="fill:#003915"/><rect x="135.21458" y="13.2753" width="1.31363" height="0.24969" style="fill:#003915"/><path d="M268.44861,117.19559H266.9411a.42716.42716,0,0,0-.42661.42673v.38718a.42693.42693,0,0,0,.42661.42661h1.50751a.42687.42687,0,0,0,.42661-.42661v-.38718a.4271.4271,0,0,0-.42661-.42673m-1.50751.991a.17755.17755,0,0,1-.1774-.17709v-.38718a.17745.17745,0,0,1,.1774-.17722h1.50751a.17729.17729,0,0,1,.17719.17722v.38718a.17738.17738,0,0,1-.17719.17709Z" transform="translate(-131.8235 -108.60181)" style="fill:#003915"/><path d="M267.47491,117.3204v-.08652a.2197.2197,0,1,1,.43939,0v.08652h.24969v-.08652a.46941.46941,0,0,0-.93881,0v.08652Zm.22,2.59a.22044.22044,0,0,1-.22-.22061V118.3114h-.24973v1.37839a.46941.46941,0,1,0,.93881,0V118.3114h-.24969v1.37839A.22.22,0,0,1,267.69489,119.9104Z" transform="translate(-131.8235 -108.60181)" style="fill:#003915"/><path d="M244.91451,115.73181h7.1566a1.49612,1.49612,0,0,1,1.4942,1.49469v8.29871a1.496,1.496,0,0,1-1.4942,1.4942h-7.1566a1.49563,1.49563,0,0,1-1.49411-1.4942V117.2265a1.49571,1.49571,0,0,1,1.49411-1.49469m7.1566,11.0546a1.26267,1.26267,0,0,0,1.2612-1.2612V117.2265a1.26277,1.26277,0,0,0-1.2612-1.26169h-7.1566a1.26307,1.26307,0,0,0-1.2617,1.26169v8.29871a1.263,1.263,0,0,0,1.2617,1.2612Z" transform="translate(-131.8235 -108.60181)" style="fill:#003915"/><path d="M244.91451,116.55081h7.1566a.67613.67613,0,0,1,.6758.67569v7.01071a.67642.67642,0,0,1-.6758.67578h-7.1566a.67652.67652,0,0,1-.6763-.67578V117.2265a.67623.67623,0,0,1,.6763-.67569m7.1566,8.12918a.4433.4433,0,0,0,.4431-.44278V117.2265a.44348.44348,0,0,0-.4431-.443h-7.1566a.44385.44385,0,0,0-.44391.443v7.01071a.44367.44367,0,0,0,.44391.44278Z" transform="translate(-131.8235 -108.60181)" style="fill:#003915"/><path d="M251.371,125.3316a.47424.47424,0,1,1-.4742.4743.4751.4751,0,0,1,.4742-.4743m0,.71548a.24124.24124,0,1,0-.2415-.24118A.2419.2419,0,0,0,251.371,126.04709Z" transform="translate(-131.8235 -108.60181)" style="fill:#003915"/><path d="M249.77029,125.3316a.47424.47424,0,1,1-.47479.4743.475.475,0,0,1,.47479-.4743m0,.71548a.24124.24124,0,1,0-.24179-.24118A.24159.24159,0,0,0,249.77029,126.04709Z" transform="translate(-131.8235 -108.60181)" style="fill:#003915"/><rect x="117.2747" y="10.0914" width="2.7195" height="0.2327" style="fill:#003915"/><rect x="118.5179" y="8.84729" width="0.2328" height="2.71951" style="fill:#003915"/><path d="M250.458,117.91251a.8969.8969,0,1,1-.89659.89688.898.898,0,0,1,.89659-.89688m0,1.5611a.66431.66431,0,1,0-.66389-.66422A.66556.66556,0,0,0,250.458,119.4736Z" transform="translate(-131.8235 -108.60181)" style="fill:#003915"/><rect x="117.2747" y="13.93658" width="2.7195" height="0.23242" style="fill:#003915"/><rect x="118.5179" y="12.6922" width="0.2328" height="2.7204" style="fill:#003915"/><path d="M250.458,121.7569a.89716.89716,0,1,1-.89659.8974.89858.89858,0,0,1,.89659-.8974m0,1.56189a.66475.66475,0,1,0-.66389-.66449A.66542.66542,0,0,0,250.458,123.31879Z" transform="translate(-131.8235 -108.60181)" style="fill:#003915"/><rect x="113.34419" y="10.0914" width="2.71921" height="0.2327" style="fill:#003915"/><rect x="114.5869" y="8.84729" width="0.233" height="2.71951" style="fill:#003915"/><path d="M246.5269,117.91251a.8969.8969,0,1,1-.8969.89688.89783.89783,0,0,1,.8969-.89688m0,1.5611a.66431.66431,0,1,0-.66389-.66422A.66607.66607,0,0,0,246.5269,119.4736Z" transform="translate(-131.8235 -108.60181)" style="fill:#003915"/><rect x="113.34419" y="13.93658" width="2.71921" height="0.23242" style="fill:#003915"/><rect x="114.5869" y="12.6922" width="0.233" height="2.7204" style="fill:#003915"/><path d="M246.5269,121.7569a.89716.89716,0,1,1-.8969.8974.89845.89845,0,0,1,.8969-.8974m0,1.56189a.66475.66475,0,1,0-.66389-.66449A.66593.66593,0,0,0,246.5269,123.31879Z" transform="translate(-131.8235 -108.60181)" style="fill:#003915"/><path d="M247.0567,125.3316a.47424.47424,0,1,1-.47459.4743.47485.47485,0,0,1,.47459-.4743m0,.71548a.24124.24124,0,1,0-.24181-.24118A.24165.24165,0,0,0,247.0567,126.04709Z" transform="translate(-131.8235 -108.60181)" style="fill:#003915"/><path d="M245.45509,125.3316a.47424.47424,0,1,1-.474.4743.47465.47465,0,0,1,.474-.4743m0,.71548a.24124.24124,0,1,0-.2415-.24118A.24164.24164,0,0,0,245.45509,126.04709Z" transform="translate(-131.8235 -108.60181)" style="fill:#003915"/><path d="M282.73489,277.87579v-7.056h3.81232v7.056Zm0,6.5937v-5.37509h3.81232v5.37509Zm0,4.4218V286.407h3.81232v2.4843Zm0,12.7692v-6.48431h3.81232v6.48431Zm0-7.7187V290.079h3.81232v3.86281Zm4.44992-16.066v-7.056h2.49979v7.056Zm0,4.09381v-2.8752h2.49979v2.8752Zm0,4.4218v-2.4843h2.49979v2.4843Zm0,12.7692v-6.48419h2.49979v6.48419Zm0-7.7187V287.5791h2.49979v3.86279Zm3.6442-21.7471v40.6414h-9.688v-40.6414Z" transform="translate(-131.8235 -108.60181)" style="fill:#003915;fill-rule:evenodd"/><path d="M285.19229,272.5235a.80925.80925,0,1,0,.23471.5708.80985.80985,0,0,0-.23471-.5708m-.5726-1.03639a1.60726,1.60726,0,1,1-1.13638.4706A1.60277,1.60277,0,0,1,284.61969,271.48711Z" transform="translate(-131.8235 -108.60181)" style="fill:#003915"/><path d="M185.65109,215.81149c-.73189,0-1.23589-.61789-1.23589-1.7399s.504-1.7399,1.23589-1.7399,1.236.618,1.236,1.7399-.504,1.7399-1.236,1.7399m0,.396c.972,0,1.6799-.7979,1.6799-2.13591s-.7079-2.13589-1.6799-2.13589-1.6738.798-1.6738,2.13589S184.67909,216.2075,185.65109,216.2075Zm-3.97189-.396c-.7319,0-1.2359-.61789-1.2359-1.7399s.504-1.7399,1.2359-1.7399,1.2359.618,1.2359,1.7399S182.4111,215.81149,181.6792,215.81149Zm0,.396c.972,0,1.6799-.7979,1.6799-2.13591s-.7079-2.13589-1.6799-2.13589-1.6738.798-1.6738,2.13589S180.7072,216.2075,181.6792,216.2075Zm-2.5497-.65991a.31414.31414,0,0,0-.3181.324.30326.30326,0,0,0,.216.30591l-.2041.87h.288l.252-.828a.97644.97644,0,0,0,.0842-.3479A.314.314,0,0,0,179.1295,215.54759Zm-2.28619-1.77589,1.188-1.49409v-.30591h-2.7v.3838h2.1481l-1.16389,1.45821v.318h.2999c.7798,0,1.1339.33,1.1339.834,0,.5218-.3838.84579-1.08.84579a1.84129,1.84129,0,0,1-1.302-.48579l-.21.3418a2.18447,2.18447,0,0,0,1.512.54c1.0139,0,1.52391-.54,1.52391-1.24181C178.19321,214.29359,177.7433,213.8196,176.84331,213.7717Zm-3.852-1.8v.3838h.9902v3.816h.432v-4.1998Z" transform="translate(-131.8235 -108.60181)" style="fill:#6e6e6e;fill-rule:evenodd"/><path d="M153.8739,149.3317c-.7319,0-1.2359-.61789-1.2359-1.7399s.504-1.7399,1.2359-1.7399,1.2359.618,1.2359,1.7399-.504,1.7399-1.2359,1.7399m0,.396c.972,0,1.67979-.79788,1.67979-2.13589s-.70779-2.13589-1.67979-2.13589-1.6738.798-1.6738,2.13589S152.9019,149.72769,153.8739,149.72769Zm-4.5-.42011,1.4281-1.40369a1.72919,1.72919,0,0,0,.69-1.31409c0-.7019-.54-1.13391-1.39211-1.13391a1.88729,1.88729,0,0,0-1.4879.59979l.3058.26419a1.42651,1.42651,0,0,1,1.1461-.468c.642,0,.9839.2999.9839.7861,0,.28769-.0899.5697-.56381,1.03769l-1.7462,1.71021v.30582h2.94611v-.38412Zm-1.55991-.23978a.314.314,0,0,0-.318.324.3031.3031,0,0,0,.216.30591l-.2041.8699h.288l.252-.828a.97549.97549,0,0,0,.0842-.34781A.314.314,0,0,0,147.814,149.06781Zm-2.2861-1.77591,1.188-1.49411v-.30588h-2.7v.38379h2.1481l-1.16389,1.45819v.318H145.3c.7798,0,1.1338.33,1.1338.834,0,.52179-.3838.84579-1.08.84579a1.84146,1.84146,0,0,1-1.30191-.48581l-.2101.34183a2.18473,2.18473,0,0,0,1.512.54c1.014,0,1.5239-.54,1.5239-1.24179C146.8777,147.81381,146.4279,147.33981,145.52789,147.2919Z" transform="translate(-131.8235 -108.60181)" style="fill:#6e6e6e;fill-rule:evenodd"/><path d="M197.79359,282.53169c-.73189,0-1.2359-.61789-1.2359-1.7399s.504-1.7399,1.2359-1.7399,1.2359.618,1.2359,1.7399-.504,1.7399-1.2359,1.7399m0,.396c.972,0,1.67981-.7979,1.67981-2.13591s-.70781-2.13589-1.67981-2.13589-1.6738.798-1.6738,2.13589S196.82159,282.9277,197.79359,282.9277Zm-3.9659-2.514h-.54l.144-1.338h1.91989v-.3838H193.0538l-.216,2.10591h.8941c1.06779,0,1.4037.33589,1.4037.8759,0,.50989-.3779.858-1.0919.858a1.82178,1.82178,0,0,1-1.2901-.48579l-.2097.3418a2.1681,2.1681,0,0,0,1.50571.54c1.0262,0,1.5239-.5578,1.5239-1.27191C195.5735,280.9117,195.0936,280.4137,193.8277,280.4137Zm-2.04579,1.85411a.31405.31405,0,0,0-.318.324.30314.30314,0,0,0,.216.30591l-.2041.86989h.288l.252-.828a.97572.97572,0,0,0,.08421-.34781A.314.314,0,0,0,191.78191,282.26781Zm-.8461-.864h-.8399v-.972h-.4198v.972H187.852l2.1481-2.7119h-.48021l-2.2258,2.78391v.3118h2.3698v1.1041h.432v-1.1041h.8399Zm-5.99391-2.7119v.3838h.9902v3.816h.432v-4.1998Z" transform="translate(-131.8235 -108.60181)" style="fill:#6e6e6e;fill-rule:evenodd"/><path d="M280.4939,200.06171c-.7319,0-1.2359-.618-1.2359-1.73991s.504-1.7399,1.2359-1.7399,1.2359.6179,1.2359,1.7399-.504,1.73991-1.2359,1.73991m0,.396c.972,0,1.67981-.798,1.67981-2.13591s-.70779-2.13589-1.67981-2.13589-1.67389.7979-1.67389,2.13589S279.52191,200.4577,280.4939,200.4577Zm-4.5-.4201,1.4281-1.4037a1.729,1.729,0,0,0,.68991-1.31419c0-.7018-.54-1.1338-1.39212-1.1338a1.88737,1.88737,0,0,0-1.48788.59981l.30591.26419a1.42594,1.42594,0,0,1,1.146-.468c.64209,0,.98389.29991.98389.786,0,.28769-.08978.56979-.56378,1.0378l-1.74612,1.7101v.30589h2.946v-.38409Zm-1.55991-.23979a.31407.31407,0,0,0-.31808.324.30312.30312,0,0,0,.216.3058l-.2041.87h.288l.252-.828a.9759.9759,0,0,0,.08423-.34781A.314.314,0,0,0,274.434,199.79781Zm-.84619-.864h-.8399v-.972h-.4198v.972H270.504l2.1481-2.7119h-.48019l-2.2258,2.78391v.3118h2.36978v1.1041h.432v-1.1041h.8399Z" transform="translate(-131.8235 -108.60181)" style="fill:#6e6e6e;fill-rule:evenodd"/><path d="M240.8913,228.81149c-.7319,0-1.2359-.61789-1.2359-1.7399s.504-1.7399,1.2359-1.7399,1.2359.618,1.2359,1.7399-.504,1.7399-1.2359,1.7399m0,.396c.972,0,1.67981-.7979,1.67981-2.13591s-.70781-2.13589-1.67981-2.13589-1.67389.798-1.67389,2.13589S239.9193,229.2075,240.8913,229.2075Zm-5.20779-4.23581v1.16991h.426v-.7861h2.16l-1.728,3.816h.468l1.75809-3.89389v-.30591Zm-.7498,3.5759a.31406.31406,0,0,0-.318.324.30315.30315,0,0,0,.216.30591l-.2041.86989h.288l.252-.828a.97563.97563,0,0,0,.0842-.34781A.314.314,0,0,0,234.9337,228.54759Zm-.8461-.864h-.8399v-.972h-.4198v.972h-1.8241l2.1481-2.7119h-.48019l-2.2258,2.78391v.3118h2.3698v1.1041h.432v-1.1041h.8399Z" transform="translate(-131.8235 -108.60181)" style="fill:#6e6e6e;fill-rule:evenodd"/><path d="M271.35611,234.0616c-.7319,0-1.2359-.618-1.2359-1.7399s.504-1.7399,1.2359-1.7399,1.2359.6179,1.2359,1.7399-.504,1.7399-1.2359,1.7399m0,.396c.972,0,1.67978-.798,1.67978-2.13589s-.70779-2.13589-1.67978-2.13589-1.67392.7979-1.67392,2.13589S270.38409,234.4576,271.35611,234.4576Zm-3.97192-.396c-.73187,0-1.2359-.618-1.2359-1.7399s.504-1.7399,1.2359-1.7399,1.2359.6179,1.2359,1.7399S268.11609,234.0616,267.38419,234.0616Zm0,.396c.972,0,1.67981-.798,1.67981-2.13589s-.70779-2.13589-1.67981-2.13589-1.67389.7979-1.67389,2.13589S266.4122,234.4576,267.38419,234.4576Zm-2.54977-.6599a.314.314,0,0,0-.318.324.303.303,0,0,0,.216.3058l-.2041.87h.288l.252-.828a.97639.97639,0,0,0,.0842-.34779A.314.314,0,0,0,264.83441,233.7977Zm-3.24.23981,1.4281-1.4037a1.72914,1.72914,0,0,0,.69-1.31421c0-.7018-.54-1.13379-1.39209-1.13379a1.8873,1.8873,0,0,0-1.48792.59979l.30582.26421a1.42618,1.42618,0,0,1,1.14609-.468c.642,0,.98392.2999.98392.786,0,.2877-.0899.56981-.56381,1.0378l-1.74619,1.7101v.30591h2.94608v-.38409Z" transform="translate(-131.8235 -108.60181)" style="fill:#6e6e6e;fill-rule:evenodd"/><path d="M262.16159,149.31158c-.7319,0-1.2359-.61789-1.2359-1.7399s.504-1.7399,1.2359-1.7399,1.2359.618,1.2359,1.7399-.504,1.7399-1.2359,1.7399m0,.396c.972,0,1.67981-.79791,1.67981-2.13593s-.70779-2.13589-1.67981-2.13589-1.6738.798-1.6738,2.13589S261.18961,149.70761,262.16159,149.70761Zm-3.63-2.43582,1.188-1.49408v-.30591h-2.7v.38379h2.1481l-1.16388,1.45822v.318h.2999c.77979,0,1.13379.33,1.13379.834,0,.52182-.38379.84579-1.08.84579a1.84145,1.84145,0,0,1-1.30191-.48578l-.21011.3418a2.18478,2.18478,0,0,0,1.512.54c1.014,0,1.5239-.54,1.5239-1.24182C259.88141,147.7937,259.43161,147.3197,258.53159,147.27179Zm-2.42987,1.77591a.31406.31406,0,0,0-.318.324.30316.30316,0,0,0,.216.30591l-.2041.86987h.288l.252-.828a.9761.9761,0,0,0,.0842-.34781A.314.314,0,0,0,256.10172,149.0477Zm-3.666-3.5759v1.16989h.426v-.7861h2.16l-1.728,3.816h.468l1.7581-3.89389v-.30591Zm-2.304,0v.38379h.9901v3.816h.432v-4.1998Z" transform="translate(-131.8235 -108.60181)" style="fill:#6e6e6e;fill-rule:evenodd"/><path d="M264.7681,266.8116c-.7319,0-1.2359-.6179-1.2359-1.7399s.504-1.7399,1.2359-1.7399,1.2359.618,1.2359,1.7399-.504,1.7399-1.2359,1.7399m0,.396c.972,0,1.67981-.7979,1.67981-2.13589s-.70779-2.13589-1.67981-2.13589-1.67389.798-1.67389,2.13589S263.79611,267.2076,264.7681,267.2076Zm-4.5-.42009,1.4281-1.4037a1.729,1.729,0,0,0,.68991-1.3141c0-.7019-.54-1.1339-1.39212-1.1339a1.88736,1.88736,0,0,0-1.48788.59979l.30591.26421a1.42623,1.42623,0,0,1,1.146-.468c.64209,0,.984.2999.984.7861,0,.28769-.08987.5697-.56387,1.03769L259.632,266.8658v.3058h2.946v-.38409Zm-1.55991-.23981a.31414.31414,0,0,0-.31808.324.30323.30323,0,0,0,.216.30589l-.2041.8699h.288l.252-.828a.97541.97541,0,0,0,.08423-.34779A.314.314,0,0,0,258.70819,266.5477Zm-2.6221-1.8541h-.54l.144-1.338H257.61v-.3838H255.3123l-.216,2.1059h.894c1.06781,0,1.40372.33591,1.40372.8759,0,.5099-.37781.858-1.09192.858a1.82141,1.82141,0,0,1-1.29-.48579l-.20979.3418a2.16814,2.16814,0,0,0,1.5058.54c1.02609,0,1.5239-.5578,1.5239-1.2719C257.832,265.1916,257.35211,264.6936,256.08609,264.6936Z" transform="translate(-131.8235 -108.60181)" style="fill:#6e6e6e;fill-rule:evenodd"/><path d="M288.34409,202.3847a3.90784,3.90784,0,1,0,3.90793,3.9075,3.908,3.908,0,0,0-3.90793-3.9075" transform="translate(-131.8235 -108.60181)" style="fill:#558e42;fill-rule:evenodd"/><polygon points="154.117 97.69 155.432 97.312 156.746 96.934 156.746 97.69 156.746 98.447 155.432 98.069 154.117 97.69" style="fill:#fdfdfd;fill-rule:evenodd"/><rect x="156.64339" y="97.5116" width="2.28131" height="0.38409" style="fill:#fdfdfd"/><path d="M222.81509,119.55579c-.434,0-.68939-.18909-.68939-.4935,0-.30109.2554-.49017.68939-.49017s.693.18909.693.49017c0,.30441-.25911.4935-.693.4935m-.6055-1.624c0-.273.23471-.4411.6055-.4411.3676,0,.6091.16812.6091.44452,0,.26617-.2276.43768-.6091.43768C222.43381,118.37289,222.20959,118.20139,222.20959,117.93179Zm1.078.5321a.555.555,0,0,0,.392-.53918c0-.3988-.34639-.6474-.8645-.6474-.5179,0-.8575.2486-.8575.6474a.553.553,0,0,0,.38521.53918.61088.61088,0,0,0-.4725.60181c0,.4339.3568.70349.94479.70349.5845,0,.9521-.26959.9521-.70349A.61679.61679,0,0,0,223.2876,118.4639Zm-3.066,1.06039.8331-.81888a1.008,1.008,0,0,0,.4026-.76651c0-.40961-.315-.66159-.81221-.66159a1.10076,1.10076,0,0,0-.86789.3501l.1785.1539a.83228.83228,0,0,1,.6685-.273c.37439,0,.574.1749.574.4584,0,.16809-.05249.33249-.3288.60541l-1.01849.99759v.1785h1.71829v-.22391Zm-.9099-.14a.18315.18315,0,0,0-.18541.189.17664.17664,0,0,0,.1259.17828l-.11909.50772h.16809l.14711-.483a.574.574,0,0,0,.0491-.203A.18318.18318,0,0,0,219.31171,119.38431Zm-1.52931-1.08142h-.3149l.08391-.7807h1.12v-.22388h-1.3405l-.1259,1.22849h.5213c.62309,0,.8192.19589.8192.51111,0,.2973-.2205.50031-.63721.50031a1.06138,1.06138,0,0,1-.75229-.28351l-.12251.19958a1.26449,1.26449,0,0,0,.87851.31491c.5984,0,.8889-.32541.8889-.74179C218.8009,118.59311,218.5209,118.30289,217.78239,118.30289Z" transform="translate(-131.8235 -108.60181)" style="fill:#434242"/><path d="M151.2162,122.05139c-.3779,0-.616-.20639-.616-.52838a.53637.53637,0,0,1,.59869-.5321c.42351,0,.6474.25571.6474.525a.56706.56706,0,0,1-.6301.53549m-.0278-1.2739a.76324.76324,0,0,0-.8365.75259.74153.74153,0,0,0,.826.73471.78261.78261,0,0,0,.7489-.4198c.0071.07339.0105.14349.0105.19958,0,.665-.3396,1.0043-.868,1.0043a.85886.85886,0,0,1-.47591-.11539l-.1015.203a1.124,1.124,0,0,0,.5808.1329c.665,0,1.12-.4339,1.12-1.26712C152.1927,121.2291,151.8392,120.7775,151.1884,120.7775Zm-2.177.021v.22391h.57741v2.2261h.252v-2.45Zm-.3569,2.086a.18318.18318,0,0,0-.18539.18912.17663.17663,0,0,0,.1259.17828l-.11909.5076h.16809l.14711-.483a.57382.57382,0,0,0,.04909-.20288A.18322.18322,0,0,0,148.6545,122.88449Zm-1.6064-2.086v.22391h.57741v2.2261h.252v-2.45Z" transform="translate(-131.8235 -108.60181)" style="fill:#434242"/><path d="M140.39259,142.67511l-.87129-.69281h-.1786v1.575h.22391v-1.2529l.85069.67889h.18541v-.1749c0-.45532.1924-.66162.48639-.66162.3044,0,.4935.22391.4935.62982a1.07393,1.07393,0,0,1-.28349.75967l.1996.12253a1.27485,1.27485,0,0,0,.3149-.8822c0-.59131-.3149-.88892-.7245-.88892-.392,0-.6684.26251-.6965.78741m-1.0499,2.933h.6826v-.2486h-.45869v-1.26l2.22609,1.008v-.27292l-2.27139-1.0253h-.1786Zm2.086.43741a.18318.18318,0,0,0,.1891.18539.17668.17668,0,0,0,.1783-.12579l.5076.119V146.056l-.483-.14709a.573.573,0,0,0-.2029-.049A.18321.18321,0,0,0,141.4287,146.0455Zm.14,1.8902-.81889-.8331a1.00792,1.00792,0,0,0-.76649-.40259c-.40961,0-.66161.315-.66161.81219a1.10076,1.10076,0,0,0,.3501.86789l.1539-.1785a.83216.83216,0,0,1-.273-.6684c0-.37451.1749-.5741.45839-.5741.16811,0,.3325.05249.6055.32889l.99751,1.0184h.17859V146.5881h-.224Z" transform="translate(-131.8235 -108.60181)" style="fill:#434242"/><path d="M181.804,185.92619c-.3779,0-.616-.20639-.616-.5284a.53638.53638,0,0,1,.59869-.5321c.42351,0,.6474.25571.6474.525a.56712.56712,0,0,1-.6301.53549m-.0278-1.2739a.76318.76318,0,0,0-.8365.75259.74159.74159,0,0,0,.826.73471.78252.78252,0,0,0,.7489-.4198c.0071.07339.0105.1434.0105.1996,0,.665-.3396,1.0043-.868,1.0043a.85909.85909,0,0,1-.47591-.1154l-.1015.203a1.12406,1.12406,0,0,0,.58081.13289c.665,0,1.12-.434,1.12-1.26709C182.7805,185.10381,182.427,184.6523,181.7762,184.6523Zm-2.10359,2.26089c-.42691,0-.7211-.3606-.7211-1.01479,0-.65451.29419-1.01511.7211-1.01511s.72079.3606.72079,1.01511C180.3934,186.5526,180.0995,186.91319,179.67261,186.91319Zm0,.231c.56689,0,.97989-.46539.97989-1.24579,0-.7807-.413-1.24611-.97989-1.24611s-.9765.46541-.9765,1.24611C178.69611,186.6788,179.1057,187.1442,179.67261,187.1442Zm-1.48761-.3849a.18314.18314,0,0,0-.18539.189.1766.1766,0,0,0,.12579.1783l-.119.50769h.16811l.14709-.483a.57311.57311,0,0,0,.049-.203A.18317.18317,0,0,0,178.185,186.75929Zm-.4933-.504h-.4901v-.567h-.2449v.567h-1.0641l1.2529-1.58209h-.27979l-1.29851,1.624v.182h1.3824v.644h.252v-.644h.4901Z" transform="translate(-131.8235 -108.60181)" style="fill:#434242"/><path d="M190.2773,305.2012c-.42349,0-.64771-.2554-.64771-.5249a.56724.56724,0,0,1,.63011-.5355c.3779,0,.616.2064.616.5284a.53606.53606,0,0,1-.5984.532m.021-1.2738a.78342.78342,0,0,0-.74919.4198c-.00681-.0734-.0105-.1435-.0105-.1996,0-.6647.3396-1.0043.868-1.0043a.8609.8609,0,0,1,.4762.11539l.1015-.203a1.12609,1.12609,0,0,0-.58119-.1329c-.665,0-1.1199.4339-1.1199,1.267,0,.7733.3535,1.2249,1.00459,1.2249a.76339.76339,0,0,0,.8365-.75259A.74169.74169,0,0,0,190.29829,303.9274Zm-2.429-.9837v.224h.57741v2.226h.252v-2.45Zm-.35689,2.0861a.18315.18315,0,0,0-.18541.189.17666.17666,0,0,0,.1259.17831l-.11909.5077h.16811l.14709-.483a.57375.57375,0,0,0,.049-.203A.18316.18316,0,0,0,187.51241,305.0298Zm-1.52931-1.0815h-.3149l.08391-.7806H186.872v-.224h-1.3405l-.12579,1.2286h.5213c.623,0,.8192.1958.8192.5111,0,.29729-.2206.5003-.6373.5003a1.06163,1.06163,0,0,1-.7523-.2835l-.12239.1996a1.26463,1.26463,0,0,0,.87839.3149c.5984,0,.889-.32539.889-.7418C187.0016,304.2386,186.7215,303.9483,185.98309,303.9483Z" transform="translate(-131.8235 -108.60181)" style="fill:#434242"/><path d="M268.58041,249.92371v.68259h.2486v-.45869h1.26l-1.008,2.2261h.273l1.0253-2.27141v-.17859Zm-1.24271,1.2529c-.3779,0-.616-.20641-.616-.52841a.53636.53636,0,0,1,.59869-.53209c.42349,0,.6474.25569.6474.525A.56707.56707,0,0,1,267.33771,251.17661Zm-.0278-1.27391a.76319.76319,0,0,0-.83652.75261.74155.74155,0,0,0,.826.7347.78252.78252,0,0,0,.7489-.4198c.00708.07339.0105.14349.0105.1996,0,.665-.3396,1.0043-.86792,1.0043a.85939.85939,0,0,1-.476-.1154l-.1015.203a1.12437,1.12437,0,0,0,.5809.13289c.665,0,1.1199-.434,1.1199-1.26709C268.31421,250.35429,267.96078,249.90269,267.30991,249.90269Zm-1.31271,2.107a.18317.18317,0,0,0-.18539.1891.17677.17677,0,0,0,.12592.1783l-.11911.5076h.16809l.14709-.483a.57364.57364,0,0,0,.0491-.2029A.1832.1832,0,0,0,265.99719,252.0097Zm-1.60638-2.086v.22389h.57739v2.2261h.252v-2.45Z" transform="translate(-131.8235 -108.60181)" style="fill:#434242"/><line x1="83.9381" y1="9.98648" x2="39.42281" y2="9.98648" style="fill:none;stroke:#b1b2b2;stroke-miterlimit:22.92558479309082;stroke-width:0.2160000056028366px"/><line x1="13.1879" y1="13.48669" x2="6.4395" y2="13.48669" style="fill:none;stroke:#b1b2b2;stroke-miterlimit:22.92558479309082;stroke-width:0.2160000056028366px"/><line x1="42.68719" y1="77.3615" x2="8.2556" y2="77.3615" style="fill:none;stroke:#b1b2b2;stroke-miterlimit:22.92558479309082;stroke-width:0.2160000056028366px"/><line x1="51.68719" y1="195.632" x2="8.2556" y2="195.632" style="fill:none;stroke:#b1b2b2;stroke-miterlimit:22.92558479309082;stroke-width:0.2160000056028366px"/><line x1="130.93681" y1="142.61189" x2="116.4608" y2="142.61189" style="fill:none;stroke:#b1b2b2;stroke-miterlimit:22.92558479309082;stroke-width:0.2160000056028366px"/><line x1="144.79341" y1="9.98648" x2="93.3772" y2="9.98648" style="fill:none;stroke:#b1b2b2;stroke-miterlimit:22.92558479309082;stroke-width:0.2160000056028366px"/><line x1="29.3754" y1="13.48669" x2="22.627" y2="13.48669" style="fill:none;stroke:#b1b2b2;stroke-miterlimit:22.92558479309082;stroke-width:0.2160000056028366px"/><line x1="89.534" y1="77.3615" x2="52.1263" y2="77.3615" style="fill:none;stroke:#b1b2b2;stroke-miterlimit:22.92558479309082;stroke-width:0.2160000056028366px"/><line x1="110.6711" y1="195.632" x2="61.1263" y2="195.632" style="fill:none;stroke:#b1b2b2;stroke-miterlimit:22.92558479309082;stroke-width:0.2160000056028366px"/><line x1="154.12169" y1="142.61189" x2="140.3759" y2="142.61189" style="fill:none;stroke:#b1b2b2;stroke-miterlimit:22.92558479309082;stroke-width:0.2160000056028366px"/><path d="M174.7261,142.84518h.6826v-.2486h-.4586v-1.26l2.226,1.008v-.273l-2.27141-1.0253h-.17859Zm0,1.3439h.224v-.57739h2.226v-.252h-2.45Zm2.08609.3569a.18313.18313,0,0,0,.189.18539.17669.17669,0,0,0,.1783-.12589l.50769.11911v-.16812l-.483-.14709a.57421.57421,0,0,0-.203-.0491A.1832.1832,0,0,0,176.81219,144.546Zm-1.0361,1.3334-.8714-.69281h-.17859v1.575h.224v-1.253l.85069.67889h.1853v-.1749c0-.4552.1925-.66159.4865-.66159.3044,0,.4935.224.4935.62988a1.07435,1.07435,0,0,1-.28349.7597l.1996.12241a1.27476,1.27476,0,0,0,.3149-.88211c0-.59131-.3149-.88889-.7245-.88889C176.08051,145.092,175.8042,145.3544,175.77609,145.87939Z" transform="translate(-131.8235 -108.60181)" style="fill:#434242"/><path d="M146.2337,213.1804c0,.434-.1891.68939-.4935.68939-.3011,0-.4901-.2554-.4901-.68939s.189-.693.4901-.693c.3044,0,.4935.259.4935.693m-1.624.6055c-.27289,0-.441-.23471-.441-.6055,0-.3676.16811-.6091.4444-.6091.2662,0,.4377.2276.4377.6091C145.0508,213.56171,144.8793,213.7859,144.6097,213.7859Zm.5321-1.078a.555.555,0,0,0-.5392-.392c-.3988,0-.6474.34639-.6474.8645,0,.5179.2486.8575.6474.8575a.553.553,0,0,0,.5392-.38521.611.611,0,0,0,.60181.4725c.434,0,.70349-.3569.70349-.94479,0-.5845-.2695-.9521-.70349-.9521A.61686.61686,0,0,0,145.1418,212.7079Zm-1.1656,2.81729h.22391v-.57739h2.22609v-.252h-2.45Zm2.086.3569a.18318.18318,0,0,0,.1891.18541.17667.17667,0,0,0,.1783-.12581l.50771.119v-.16811l-.48311-.14709a.57276.57276,0,0,0-.2029-.049A.18319.18319,0,0,0,146.06219,215.8821Zm-1.0361,1.3334-.87129-.6927h-.1786v1.57491h.22391v-1.2529l.85069.67889h.18541v-.1749c0-.45531.19249-.66161.48639-.66161.3045,0,.4935.22391.4935.62981a1.07427,1.07427,0,0,1-.2834.7597l.19951.1225a1.27472,1.27472,0,0,0,.3149-.8822c0-.59131-.3149-.8889-.7245-.8889C145.3306,216.4281,145.0542,216.6906,145.02609,217.2155Z" transform="translate(-131.8235 -108.60181)" style="fill:#434242"/><path d="M146.2337,274.902c0,.434-.1891.68941-.4935.68941-.3011,0-.4901-.2554-.4901-.68941s.189-.6931.4901-.6931c.3044,0,.4935.25911.4935.6931m-1.624.6055c-.27289,0-.441-.2347-.441-.6055,0-.36769.16811-.60919.4444-.60919.2662,0,.4377.22769.4377.60919C145.0508,275.28329,144.8793,275.50749,144.6097,275.50749Zm.5321-1.078a.55507.55507,0,0,0-.5392-.39211c-.3988,0-.6474.34641-.6474.86459,0,.51791.2486.85751.6474.85751a.553.553,0,0,0,.5392-.38521.611.611,0,0,0,.60181.4725c.434,0,.70349-.3569.70349-.94481,0-.58449-.2695-.95219-.70349-.95219A.61685.61685,0,0,0,145.1418,274.4295Zm1.0743,2.7439c0,.4269-.36049.7211-1.0148.7211-.6545,0-1.01509-.2942-1.01509-.7211s.3606-.72079,1.01509-.72079C145.85561,276.45261,146.2161,276.74651,146.2161,277.1734Zm.231,0c0-.56689-.46539-.9799-1.2458-.9799-.78059,0-1.24609.413-1.24609.9799s.4655.9765,1.24609.9765C145.9817,278.1499,146.4471,277.7403,146.4471,277.1734Zm-.3849,1.48759a.18318.18318,0,0,0,.1891.18541.17667.17667,0,0,0,.1783-.12581l.50771.119v-.16811l-.48311-.14709a.57276.57276,0,0,0-.2029-.049A.18319.18319,0,0,0,146.06219,278.661Zm-1.0361,1.3334-.87129-.6927h-.1786v1.57491h.22391v-1.2529l.85069.67889h.18541v-.1749c0-.45531.19249-.66161.48639-.66161.3045,0,.4935.22391.4935.62981a1.07427,1.07427,0,0,1-.2834.7597l.19951.1225a1.27472,1.27472,0,0,0,.3149-.8822c0-.59131-.3149-.8889-.7245-.8889C145.3306,279.207,145.0542,279.4695,145.02609,279.9944Z" transform="translate(-131.8235 -108.60181)" style="fill:#434242"/><path d="M237.77631,288.98109l-.8714-.69279h-.17851v1.575h.22391v-1.253l.85069.67889h.18541v-.1749c0-.4552.1924-.66161.48639-.66161.30441,0,.4935.224.4935.6299a1.07438,1.07438,0,0,1-.28349.7597l.1996.12241a1.27431,1.27431,0,0,0,.3149-.88211c0-.59129-.3149-.8889-.7245-.8889-.392,0-.6684.26241-.69649.7874m1.2076,2.1351c0,.434-.1891.68941-.4935.68941-.3011,0-.4901-.2554-.4901-.68941s.189-.6931.4901-.6931C238.7948,290.4231,238.9839,290.68221,238.9839,291.1162Zm-1.624.6055c-.273,0-.4411-.2348-.4411-.6055,0-.36769.16811-.60919.4445-.60919.2662,0,.4377.2276.4377.60919C237.801,291.49741,237.6295,291.72169,237.35989,291.72169Zm.5321-1.07809a.555.555,0,0,0-.5392-.392c-.3988,0-.6474.34639-.6474.86459,0,.5179.2486.8575.6474.8575a.55308.55308,0,0,0,.5392-.3853.61085.61085,0,0,0,.60181.47261c.4339,0,.70349-.3569.70349-.94481,0-.5845-.26959-.95219-.70349-.95219A.61679.61679,0,0,0,237.892,290.6436Zm.92039,1.988a.18316.18316,0,0,0,.189.18541.17669.17669,0,0,0,.1783-.1259l.50769.11909v-.16809l-.483-.1472a.57549.57549,0,0,0-.203-.049A.18319.18319,0,0,0,238.81239,292.63159Zm-2.086,1.60641h.22391v-.57741h2.226v-.252h-2.44991Z" transform="translate(-131.8235 -108.60181)" style="fill:#434242"/><path d="M252.37469,278.951c0,.434-.189.68939-.4935.68939-.301,0-.4901-.2554-.4901-.68939s.1891-.6931.4901-.6931c.3045,0,.4935.25909.4935.6931m-1.6239.6055c-.273,0-.4411-.23471-.4411-.6055,0-.3676.16811-.60921.4445-.60921.2661,0,.43761.22771.43761.60921C251.1918,279.33231,251.02029,279.5565,250.75079,279.5565Zm.532-1.078a.55488.55488,0,0,0-.53911-.39211c-.3988,0-.6474.34641-.6474.86461,0,.5179.2486.8575.6474.8575a.55281.55281,0,0,0,.53911-.38521.611.611,0,0,0,.60179.4725c.434,0,.7036-.3569.7036-.94479,0-.5845-.26959-.9521-.7036-.9521A.61683.61683,0,0,0,251.28281,278.4785Zm.0873,2.7439c0,.3779-.2063.616-.52831.616a.53632.53632,0,0,1-.5321-.59869c0-.42351.25571-.6474.525-.6474A.56705.56705,0,0,1,251.3701,281.2224Zm-1.2738.0278a.76318.76318,0,0,0,.75261.8365.74158.74158,0,0,0,.7347-.826.78252.78252,0,0,0-.4198-.7489c.07339-.0071.1434-.0105.19949-.0105.665,0,1.00441.3396,1.00441.8679a.85945.85945,0,0,1-.1154.476l.2029.1015a1.12431,1.12431,0,0,0,.133-.5809c0-.665-.434-1.1199-1.26709-1.1199C250.54781,280.2459,250.0963,280.5994,250.0963,281.2502Zm2.1069,1.3127a.18318.18318,0,0,0,.1891.18541.17666.17666,0,0,0,.1783-.1259l.50769.11909v-.16811l-.483-.14709a.57451.57451,0,0,0-.203-.0491A.18321.18321,0,0,0,252.2032,282.5629Zm.14011,1.8902-.819-.8331a1.0078,1.0078,0,0,0-.7664-.4026c-.40961,0-.66161.315-.66161.81221a1.101,1.101,0,0,0,.35.8679l.154-.1786a.832.832,0,0,1-.273-.6684c0-.3744.1749-.574.4583-.574.16811,0,.3325.05251.6055.3288l.9975,1.01851h.1786V283.1055h-.22389Z" transform="translate(-131.8235 -108.60181)" style="fill:#434242"/><path d="M284.70251,238.11819l-.819-.8331a1.00765,1.00765,0,0,0-.76651-.4025c-.40961,0-.66159.3149-.66159.8121a1.1013,1.1013,0,0,0,.3501.868l.1539-.1786a.83187.83187,0,0,1-.27292-.6684c0-.3745.1749-.574.45831-.574.16809,0,.33249.0524.6055.32881l.9975,1.01849h.17859v-1.7184h-.22388Zm0,1.988-.819-.8331a1.00784,1.00784,0,0,0-.76651-.4026c-.40961,0-.66159.315-.66159.81219a1.10108,1.10108,0,0,0,.3501.8679l.1539-.1786a.83187.83187,0,0,1-.27292-.6684c0-.3744.1749-.574.45831-.574.16809,0,.33249.05251.6055.32881l.9975,1.01849h.17859v-1.71829h-.22388Zm-.14011.9099a.18316.18316,0,0,0,.18909.18539.17676.17676,0,0,0,.17831-.1259l.50769.11911v-.16811l-.483-.14709a.57429.57429,0,0,0-.203-.0491A.1832.1832,0,0,0,284.56241,241.0161Zm-2.086,1.6064h.22388v-.57739h2.2261v-.252h-2.45Z" transform="translate(-131.8235 -108.60181)" style="fill:#434242"/><path d="M284.71631,185.75861c0,.4269-.3605.72119-1.0148.72119-.65451,0-1.015-.2943-1.015-.72119s.3605-.72081,1.015-.72081c.6543,0,1.0148.2939,1.0148.72081m.23108,0c0-.56691-.46548-.9799-1.24588-.9799-.78061,0-1.24609.413-1.24609.9799s.46548.97659,1.24609.97659C284.4819,186.7352,284.94739,186.32559,284.94739,185.75861Zm-.24487,2.6252-.819-.8331a1.00767,1.00767,0,0,0-.76651-.40251c-.40961,0-.66159.31491-.66159.8121a1.10128,1.10128,0,0,0,.3501.868l.1539-.17859a.832.832,0,0,1-.27292-.66841c0-.3745.1749-.574.45831-.574.16809,0,.33249.0524.6055.3288l.9975,1.01849h.17859v-1.7184h-.22388Zm-.14011.9099a.18316.18316,0,0,0,.18909.18539.17666.17666,0,0,0,.17831-.1259l.50769.11911v-.16811l-.483-.14709a.574.574,0,0,0-.203-.0491A.18326.18326,0,0,0,284.56241,189.2937Zm.14011,1.8902-.819-.8331a1.00784,1.00784,0,0,0-.76651-.4026c-.40961,0-.66159.315-.66159.81221a1.10107,1.10107,0,0,0,.3501.86789l.1539-.1785a.83222.83222,0,0,1-.27292-.6685c0-.37439.1749-.574.45831-.574.16809,0,.33249.05249.6055.3288l.9975,1.01849h.17859V189.8363h-.22388Z" transform="translate(-131.8235 -108.60181)" style="fill:#434242"/><line x1="44.1927" y1="39.9776" x2="44.1927" y2="70.39049" style="fill:none;stroke:#b1b2b2;stroke-miterlimit:22.92558479309082;stroke-width:0.2160000056028366px"/><line x1="8.879" y1="40.79059" x2="8.879" y2="64.83319" style="fill:none;stroke:#b1b2b2;stroke-miterlimit:22.92558479309082;stroke-width:0.2160000056028366px"/><line x1="13.4427" y1="111.22789" x2="13.4427" y2="136.27109" style="fill:none;stroke:#b1b2b2;stroke-miterlimit:22.92558479309082;stroke-width:0.2160000056028366px"/><line x1="13.4427" y1="173.47809" x2="13.4427" y2="199.83319" style="fill:none;stroke:#b1b2b2;stroke-miterlimit:22.92558479309082;stroke-width:0.2160000056028366px"/><line x1="106.1929" y1="187.22809" x2="106.1929" y2="199.83319" style="fill:none;stroke:#b1b2b2;stroke-miterlimit:22.92558479309082;stroke-width:0.2160000056028366px"/><line x1="119.5838" y1="177.47809" x2="119.5838" y2="199.39839" style="fill:none;stroke:#b1b2b2;stroke-miterlimit:22.92558479309082;stroke-width:0.2160000056028366px"/><line x1="151.94301" y1="84.22809" x2="151.94301" y2="110.79269" style="fill:none;stroke:#b1b2b2;stroke-miterlimit:22.92558479309082;stroke-width:0.2160000056028366px"/><line x1="44.1927" y1="6.27341" x2="44.1927" y2="30.53848" style="fill:none;stroke:#b1b2b2;stroke-miterlimit:22.92558479309082;stroke-width:0.2160000056028366px"/><line x1="8.879" y1="10.45108" x2="8.879" y2="31.3515" style="fill:none;stroke:#b1b2b2;stroke-miterlimit:22.92558479309082;stroke-width:0.2160000056028366px"/><line x1="13.4427" y1="72.99329" x2="13.4427" y2="101.78879" style="fill:none;stroke:#b1b2b2;stroke-miterlimit:22.92558479309082;stroke-width:0.2160000056028366px"/><line x1="13.4427" y1="138.87329" x2="13.4427" y2="164.03899" style="fill:none;stroke:#b1b2b2;stroke-miterlimit:22.92558479309082;stroke-width:0.2160000056028366px"/><line x1="106.19431" y1="163.61829" x2="106.19431" y2="177.78899" style="fill:none;stroke:#b1b2b2;stroke-miterlimit:22.92558479309082;stroke-width:0.2160000056028366px"/><line x1="119.5838" y1="138.99319" x2="119.5838" y2="168.03899" style="fill:none;stroke:#b1b2b2;stroke-miterlimit:22.92558479309082;stroke-width:0.2160000056028366px"/><line x1="151.94301" y1="113.3949" x2="151.94301" y2="126.2892" style="fill:none;stroke:#b1b2b2;stroke-miterlimit:22.92558479309082;stroke-width:0.2160000056028366px"/><line x1="151.94301" y1="68.04059" x2="151.94301" y2="74.78909" style="fill:none;stroke:#b1b2b2;stroke-miterlimit:22.92558479309082;stroke-width:0.2160000056028366px"/></svg>