<svg id="Слой_1" data-name="Слой 1" xmlns="http://www.w3.org/2000/svg" viewBox="0 0 164.05879 136.35551"><title>2.06.02</title><polygon points="0 0 158.064 0 158.064 67.64 160.207 67.64 160.207 136.356 158.064 136.356 0 136.356 0 67.64 0 0" style="fill:#fff;fill-rule:evenodd"/><path d="M253.6319,154.47861c-.4269,0-.7211-.3606-.7211-1.0148,0-.65451.2942-1.01511.7211-1.01511s.7209.3606.7209,1.01511c0,.65421-.294,1.0148-.7209,1.0148m0,.231c.56691,0,.9799-.46539.9799-1.24579,0-.7807-.413-1.24609-.9799-1.24609s-.9765.46539-.9765,1.24609C252.6554,154.2442,253.065,154.70959,253.6319,154.70959Zm-2.6252-.2449.8331-.81888a1.008,1.008,0,0,0,.4026-.76651c0-.40961-.315-.66159-.81219-.66159a1.10077,1.10077,0,0,0-.8679.3501l.1786.1539a.83193.83193,0,0,1,.6684-.273c.3744,0,.574.1749.574.4584,0,.16809-.05251.33249-.32881.6055l-1.01849.9975v.1785h1.71829v-.22391Zm-.9099-.14a.18316.18316,0,0,0-.18539.18909.17659.17659,0,0,0,.12589.17819l-.11909.50772h.16811l.14709-.483a.574.574,0,0,0,.0491-.20291A.1832.1832,0,0,0,250.0968,154.32471Zm-.49319-.504h-.49011v-.56692h-.24489v.56692H247.8044l1.253-1.582h-.2798l-1.2986,1.6239v.182h1.38249v.644h.252v-.644h.49011Z" transform="translate(-138.4138 -144.42068)" style="fill:#434242"/><path d="M203.7419,272.979c-.4269,0-.72119-.36061-.72119-1.0148,0-.65451.2943-1.01511.72119-1.01511s.72081.3606.72081,1.01511c0,.65419-.29391,1.0148-.72081,1.0148m0,.231c.56691,0,.9799-.46541.9799-1.2458,0-.7807-.413-1.24611-.9799-1.24611s-.97659.46541-.97659,1.24611C202.7653,272.7446,203.1749,273.21,203.7419,273.21Zm-2.31709-1.218c-.37781,0-.61591-.20641-.61591-.52841a.53629.53629,0,0,1,.5986-.53209c.42349,0,.64749.25569.64749.525A.56715.56715,0,0,1,201.4248,271.992Zm-.0278-1.27391a.76318.76318,0,0,0-.8365.75261.74161.74161,0,0,0,.8261.7347.78257.78257,0,0,0,.7489-.4198c.0071.07339.0105.1434.0105.1996,0,.665-.3396,1.0043-.868,1.0043a.85941.85941,0,0,1-.476-.1154l-.10139.203a1.124,1.124,0,0,0,.5808.1329c.665,0,1.12-.434,1.12-1.26711C202.4014,271.1696,202.0479,270.71809,201.397,270.71809Zm-1.3127,2.107a.18314.18314,0,0,0-.18541.189.17669.17669,0,0,0,.1259.1783l-.11909.50771h.16811l.14709-.483a.57393.57393,0,0,0,.0491-.203A.18318.18318,0,0,0,200.0843,272.8251Zm-1.52931-1.0815h-.3149l.08391-.78061h1.12v-.224h-1.3405l-.1259,1.22861h.5213c.62309,0,.8192.19589.8192.51109,0,.2973-.2205.50031-.63721.50031a1.0614,1.0614,0,0,1-.75229-.28351l-.1225.1996a1.26492,1.26492,0,0,0,.87849.31491c.5984,0,.8889-.32541.8889-.74181C199.5735,272.03391,199.2934,271.74361,198.555,271.74361Z" transform="translate(-138.4138 -144.42068)" style="fill:#434242"/><path d="M285.2634,268.49339h-.31491l.08392-.78059h1.12v-.224h-1.34052l-.12588,1.22859h.5213c.62311,0,.81918.1958.81918.51111,0,.2973-.22049.50031-.63718.50031a1.06148,1.06148,0,0,1-.75232-.28351l-.1225.1996a1.265,1.265,0,0,0,.87851.3149c.59839,0,.88889-.32539.88889-.74179,0-.4343-.28-.72461-1.01849-.72461m-2.05789-1.00459v.224h.57739v2.226h.252v-2.45Zm-.3569,2.08611a.18314.18314,0,0,0-.18539.189.17675.17675,0,0,0,.12588.1783l-.11908.50771h.16809l.14709-.483a.5736.5736,0,0,0,.0491-.203A.18317.18317,0,0,0,282.8486,269.57491Zm-1.60641-2.08611v.224h.57742v2.226h.252v-2.45Z" transform="translate(-138.4138 -144.42068)" style="fill:#434242"/><path d="M177.41991,179.9915c-.3779,0-.616-.2063-.616-.52831a.53638.53638,0,0,1,.59871-.53209c.42349,0,.6474.25569.6474.525a.56705.56705,0,0,1-.6301.5354m-.0278-1.2738a.76317.76317,0,0,0-.8365.75261.74158.74158,0,0,0,.826.7347.78275.78275,0,0,0,.749-.4198c.007.07339.01041.1434.01041.19949,0,.6651-.3396,1.00441-.8679,1.00441a.85941.85941,0,0,1-.476-.1154l-.10141.2029a1.12367,1.12367,0,0,0,.58081.133c.665,0,1.11989-.434,1.11989-1.26709C178.39639,179.1692,178.043,178.7177,177.39211,178.7177Zm-2.10361,1.2738c-.37779,0-.61589-.2063-.61589-.52831a.53633.53633,0,0,1,.59859-.53209c.42351,0,.64751.25569.64751.525A.56709.56709,0,0,1,175.2885,179.9915Zm-.02769-1.2738a.76312.76312,0,0,0-.8365.75261.74158.74158,0,0,0,.826.7347.78262.78262,0,0,0,.7489-.4198c.0071.07339.0105.1434.0105.19949,0,.6651-.3396,1.00441-.868,1.00441a.85884.85884,0,0,1-.47589-.1154l-.1015.2029a1.12391,1.12391,0,0,0,.5808.133c.665,0,1.12-.434,1.12-1.26709C176.26511,179.1692,175.91161,178.7177,175.2608,178.7177Zm-1.31281,2.1069a.18322.18322,0,0,0-.18539.1891.17675.17675,0,0,0,.1259.1783l-.11911.50771h.16811l.1472-.483a.57583.57583,0,0,0,.049-.203A.18327.18327,0,0,0,173.948,180.8246Zm-1.89009.14011.8331-.81891a1.00793,1.00793,0,0,0,.4025-.76649c0-.40961-.3149-.66161-.8121-.66161a1.10125,1.10125,0,0,0-.868.35l.1786.154a.832.832,0,0,1,.6684-.273c.3745,0,.574.1749.574.4583,0,.16811-.0524.3325-.3288.6055l-1.01849.9975v.1786h1.7184v-.22389Z" transform="translate(-138.4138 -144.42068)" style="fill:#434242"/><line x1="107.9668" y1="9.108" x2="71.52739" y2="9.108" style="fill:none;stroke:#b1b2b2;stroke-miterlimit:22.92558479309082;stroke-width:0.2160000056028366px"/><line x1="58.2168" y1="127.60841" x2="6.33229" y2="127.60841" style="fill:none;stroke:#b1b2b2;stroke-miterlimit:22.92558479309082;stroke-width:0.2160000056028366px"/><line x1="140.7166" y1="124.35822" x2="133.96819" y2="124.35822" style="fill:none;stroke:#b1b2b2;stroke-miterlimit:22.92558479309082;stroke-width:0.2160000056028366px"/><line x1="31.96649" y1="35.60802" x2="6.63449" y2="35.60802" style="fill:none;stroke:#b1b2b2;stroke-miterlimit:22.92558479309082;stroke-width:0.2160000056028366px"/><line x1="152.90269" y1="9.108" x2="117.4059" y2="9.108" style="fill:none;stroke:#b1b2b2;stroke-miterlimit:22.92558479309082;stroke-width:0.2160000056028366px"/><line x1="123.52699" y1="127.60841" x2="67.6559" y2="127.60841" style="fill:none;stroke:#b1b2b2;stroke-miterlimit:22.92558479309082;stroke-width:0.2160000056028366px"/><line x1="156.9041" y1="124.35822" x2="150.15569" y2="124.35822" style="fill:none;stroke:#b1b2b2;stroke-miterlimit:22.92558479309082;stroke-width:0.2160000056028366px"/><line x1="64.5641" y1="35.60802" x2="41.40559" y2="35.60802" style="fill:none;stroke:#b1b2b2;stroke-miterlimit:22.92558479309082;stroke-width:0.2160000056028366px"/><path d="M293.3226,251.9306l-.81891-.8331a1.00775,1.00775,0,0,0-.76648-.40251c-.40961,0-.66162.31491-.66162.8121a1.101,1.101,0,0,0,.3501.868l.1539-.1786a.83217.83217,0,0,1-.273-.6684c0-.37451.1749-.574.4584-.574.16809,0,.33249.0524.6055.3288l.9975,1.01851h.17859V250.583h-.224Zm.03149,1.6274c0,.434-.18909.68941-.4935.68941-.30109,0-.49008-.2554-.49008-.68941s.189-.6931.49008-.6931C293.165,252.8649,293.3541,253.124,293.3541,253.558Zm-1.624.6055c-.273,0-.4411-.2348-.4411-.6055,0-.36771.16809-.60919.44449-.60919.2662,0,.43771.2276.43771.60919C292.1712,253.93919,291.99969,254.1635,291.7301,254.1635Zm.5321-1.07809a.555.555,0,0,0-.53922-.392c-.3988,0-.6474.34639-.6474.86459,0,.5179.2486.8575.6474.8575a.55313.55313,0,0,0,.53922-.3853.611.611,0,0,0,.60181.4726c.434,0,.70349-.35689.70349-.94479,0-.5845-.2695-.95219-.70349-.95219A.61686.61686,0,0,0,292.26221,253.0854Zm.92038,1.988a.18318.18318,0,0,0,.18912.18541.17685.17685,0,0,0,.17828-.1259l.5076.11909v-.16811l-.483-.14719a.57525.57525,0,0,0-.20288-.049A.18323.18323,0,0,0,293.18259,255.07339Zm.14,1.89011-.81891-.8331a1.00772,1.00772,0,0,0-.76648-.4025c-.40961,0-.66162.3149-.66162.81209a1.101,1.101,0,0,0,.3501.868l.1539-.1786a.832.832,0,0,1-.273-.6684c0-.37451.1749-.574.4584-.574.16809,0,.33249.0524.6055.3288l.9975,1.01851h.17859v-1.7184h-.224Z" transform="translate(-138.4138 -144.42068)" style="fill:#434242"/><path d="M258.0863,255.0983c0,.4269-.3606.72121-1.0148.72121-.6546,0-1.01511-.29431-1.01511-.72121s.3605-.72079,1.01511-.72079c.65421,0,1.0148.2939,1.0148.72079m.231,0c0-.56689-.46548-.9799-1.24579-.9799-.7807,0-1.24611.413-1.24611.9799s.46541.97661,1.24611.97661C257.85181,256.07491,258.31729,255.66521,258.31729,255.0983Zm-.2449,2.6252-.819-.8331a1.00753,1.00753,0,0,0-.76639-.4025c-.40961,0-.66161.3149-.66161.8121a1.10141,1.10141,0,0,0,.35.868l.154-.1786a.83215.83215,0,0,1-.273-.6684c0-.3745.1749-.5741.45831-.5741.16809,0,.33249.05249.6055.3289l.9975,1.01849h.17859v-1.7184h-.22391Zm-.14008.9099a.18323.18323,0,0,0,.18909.18541.17681.17681,0,0,0,.17831-.1259l.50769.11909v-.16809l-.483-.14711a.57443.57443,0,0,0-.203-.0491A.18326.18326,0,0,0,257.93231,258.63339Zm-1.036,1.3334-.8714-.69279h-.1786v1.575h.224v-1.253l.85059.67891h.18539V260.1c0-.4552.1925-.66161.48651-.66161.30438,0,.4935.224.4935.6299a1.07438,1.07438,0,0,1-.28351.7597l.19962.12239a1.27481,1.27481,0,0,0,.31488-.8821c0-.59129-.31488-.8889-.72449-.8889C257.20071,259.1794,256.92429,259.4418,256.8963,259.9668Z" transform="translate(-138.4138 -144.42068)" style="fill:#434242"/><path d="M286.041,179.4785l-.819-.8331a1.00753,1.00753,0,0,0-.76639-.4025c-.40961,0-.66159.3149-.66159.81209a1.101,1.101,0,0,0,.35.8679l.154-.1785a.83217.83217,0,0,1-.273-.6684c0-.37451.1749-.57411.45831-.57411.16809,0,.33249.05251.6055.3289l.9975,1.0184h.17859v-1.71829H286.041Zm-2.22607,1.7393h.224v-.57741h2.226v-.252h-2.45Zm2.086.3569a.18317.18317,0,0,0,.18909.18539.17678.17678,0,0,0,.17831-.1259l.50769.11909v-.16809l-.483-.14711a.57443.57443,0,0,0-.203-.0491A.18326.18326,0,0,0,285.90091,181.57471Zm-1.036,1.33339-.8714-.69279h-.17859v1.575h.224v-1.253l.85059.67891h.18539v-.1749c0-.4552.1925-.66161.48651-.66161.30441,0,.4935.224.4935.6299a1.07438,1.07438,0,0,1-.28351.7597l.19962.12239a1.27481,1.27481,0,0,0,.31488-.8821c0-.59129-.31488-.889-.72449-.889C285.16931,182.12061,284.89291,182.3831,284.8649,182.9081Z" transform="translate(-138.4138 -144.42068)" style="fill:#434242"/><path d="M161.8364,168.1886c0,.42691-.36049.72119-1.0148.72119-.6545,0-1.015-.29428-1.015-.72119s.3605-.72079,1.015-.72079c.65431,0,1.0148.294,1.0148.72079m.23111,0c0-.56689-.4655-.97989-1.24591-.97989-.78059,0-1.24609.413-1.24609.97989s.4655.97659,1.24609.97659C161.602,169.16519,162.0675,168.75558,162.0675,168.1886Zm-.23111,2.31711c0,.4269-.36049.7211-1.0148.7211-.6545,0-1.015-.2942-1.015-.7211s.3605-.7209,1.015-.7209C161.47591,169.78481,161.8364,170.0788,161.8364,170.50571Zm.23111,0c0-.56691-.4655-.9799-1.24591-.9799-.78059,0-1.24609.413-1.24609.9799s.4655.97649,1.24609.97649C161.602,171.48219,162.0675,171.0726,162.0675,170.50571Zm-.385,1.48759a.18317.18317,0,0,0,.1891.18539.17664.17664,0,0,0,.1783-.1259l.50771.11911v-.16811l-.483-.14709a.574.574,0,0,0-.203-.0491A.18322.18322,0,0,0,161.6825,171.9933Zm.14011,1.8902-.819-.83321a1.00765,1.00765,0,0,0-.76649-.4025c-.40961,0-.66161.315-.66161.81221a1.10112,1.10112,0,0,0,.3501.86789l.1539-.1786a.83194.83194,0,0,1-.2729-.6684c0-.37439.1748-.574.4583-.574.16811,0,.3325.05249.60551.3288l.9975,1.01849h.17859V172.5359h-.22389Z" transform="translate(-138.4138 -144.42068)" style="fill:#434242"/><path d="M150.1665,198.5721l-.8714-.69279h-.1786v1.57489h.224v-1.2529l.8506.67891h.18539v-.1749c0-.4552.1925-.66161.48651-.66161.3044,0,.4935.22389.4935.6299a1.07408,1.07408,0,0,1-.28351.7596l.1996.1225a1.27513,1.27513,0,0,0,.3149-.8821c0-.59129-.3149-.889-.72449-.889-.39211,0-.66841.2625-.6965.78749m.53209,1.0114v.4901h-.567v.2449h.567v1.0641l-1.58209-1.2529v.2798l1.624,1.29849h.182v-1.3824h.644v-.252h-.644v-.4901Zm.504,2.58661a.18314.18314,0,0,0,.189.18539.17676.17676,0,0,0,.1783-.1259l.50771.11909v-.16809l-.483-.14711a.57434.57434,0,0,0-.203-.04909A.18317.18317,0,0,0,151.20261,202.17011Zm-2.08611,1.6064h.224v-.57741h2.226v-.252h-2.45Z" transform="translate(-138.4138 -144.42068)" style="fill:#434242"/><line x1="153.97279" y1="114.22401" x2="153.97279" y2="128.63481" style="fill:none;stroke:#b1b2b2;stroke-miterlimit:22.92558479309082;stroke-width:0.2160000056028366px"/><line x1="118.72261" y1="117.72432" x2="118.72261" y2="131.65631" style="fill:none;stroke:#b1b2b2;stroke-miterlimit:22.92558479309082;stroke-width:0.2160000056028366px"/><line x1="146.69121" y1="41.22401" x2="146.69121" y2="64.03781" style="fill:none;stroke:#b1b2b2;stroke-miterlimit:22.92558479309082;stroke-width:0.2160000056028366px"/><line x1="22.47279" y1="30.97391" x2="22.47279" y2="39.17851" style="fill:none;stroke:#b1b2b2;stroke-miterlimit:22.92558479309082;stroke-width:0.2160000056028366px"/><line x1="11.9928" y1="60.97412" x2="11.9928" y2="67.72252" style="fill:none;stroke:#b1b2b2;stroke-miterlimit:22.92558479309082;stroke-width:0.2160000056028366px"/><line x1="153.97279" y1="73.50012" x2="153.97279" y2="104.78502" style="fill:none;stroke:#b1b2b2;stroke-miterlimit:22.92558479309082;stroke-width:0.2160000056028366px"/><line x1="118.72261" y1="68.78842" x2="118.72261" y2="108.28522" style="fill:none;stroke:#b1b2b2;stroke-miterlimit:22.92558479309082;stroke-width:0.2160000056028366px"/><line x1="146.69121" y1="5.53781" x2="146.69121" y2="31.78491" style="fill:none;stroke:#b1b2b2;stroke-miterlimit:22.92558479309082;stroke-width:0.2160000056028366px"/><line x1="22.47279" y1="4.79681" x2="22.47279" y2="21.53482" style="fill:none;stroke:#b1b2b2;stroke-miterlimit:22.92558479309082;stroke-width:0.2160000056028366px"/><line x1="11.9928" y1="44.78662" x2="11.9928" y2="51.53502" style="fill:none;stroke:#b1b2b2;stroke-miterlimit:22.92558479309082;stroke-width:0.2160000056028366px"/><path d="M161.65759,220.10519h-2.77509v-3.1785h2.77509Zm-8.90649,3.8905H149.976v-7.069h2.7751Zm4.4252,0h-2.7751v-7.069h2.7751Zm4.48129,0h-2.77509v-3.1785h2.77509Zm-11.90869-8.4563H162.1162v-.7126h1.76691v11.96251H144.0788v-2.4375h.01871v-9.525h5.6514Z" transform="translate(-138.4138 -144.42068)" style="fill:#003915;fill-rule:evenodd"/><path d="M168.4176,186.5705a.37407.37407,0,0,1,.3748-.64749l13.92009,8.0399a.37407.37407,0,0,1-.37479.64749Z" transform="translate(-138.4138 -144.42068)" style="fill:#003915"/><path d="M216.21629,193.93179a.374.374,0,1,1,.6474.37471l-8.03989,13.92009a.374.374,0,0,1-.6474-.37469Z" transform="translate(-138.4138 -144.42068)" style="fill:#003915"/><path d="M267.25629,219.49091a.37408.37408,0,0,1,.64752.37479l-8.03992,13.92011a.37407.37407,0,0,1-.64749-.3748Z" transform="translate(-138.4138 -144.42068)" style="fill:#003915"/><rect x="68.1619" y="1.88022" width="2.6022" height="43.99319" style="fill:#003915"/><rect x="65.1055" y="1.88022" width="2.6022" height="38.1008" style="fill:#003915"/><rect x="68.1619" y="63.17552" width="2.6022" height="4.46399" style="fill:#003915"/><rect y="119.02202" width="2.6022" height="17.3335" style="fill:#003915"/><rect x="23.6676" y="135.50201" width="2.60219" height="0.8535" style="fill:#003915"/><rect x="81.0654" y="135.50201" width="2.6022" height="0.8535" style="fill:#003915"/><rect x="85.0966" y="135.50201" width="2.60219" height="0.8535" style="fill:#003915"/><rect x="70.6297" y="65.03731" width="86.88979" height="2.6022" style="fill:#003915"/><rect x="46.31779" y="38.87581" width="23.75571" height="2.6022" style="fill:#003915"/><rect x="5.3858" y="38.87581" width="25.27939" height="2.6022" style="fill:#003915"/><rect x="5.47929" y="69.58771" width="41.0627" height="2.6022" style="fill:#003915"/><rect y="131.35352" width="161.51921" height="5.002" style="fill:#003915"/><rect width="152.30888" height="4.35522" style="fill:#003915"/><rect width="6.42549" height="41.47801" style="fill:#003915"/><rect y="61.65721" width="6.42549" height="74.5872" style="fill:#003915"/><rect x="154.0493" y="62.13321" width="9.92639" height="11.06421" style="fill:#003915"/><rect x="149.90401" y="129.43251" width="8.1601" height="6.923" style="fill:#003915"/><rect x="150.29341" y="49.18222" width="8.1601" height="23.45929" style="fill:#003915"/><rect x="150.29341" width="8.1601" height="19.32013" style="fill:#003915"/><rect x="127.67781" y="65.03731" width="35.2482" height="8.16011" style="fill:#003915"/><rect x="127.67781" y="128.33211" width="36.38098" height="8.02341" style="fill:#003915"/><rect x="153.25389" y="128.33211" width="10.8049" height="8.02341" style="fill:#003915"/><rect x="124.8372" y="105.15201" width="8.1601" height="27.44391" style="fill:#003915"/><rect x="124.8372" y="65.03731" width="8.1601" height="9.99611" style="fill:#003915"/><rect x="153.29451" y="34.72021" width="2.29858" height="0.50169" style="fill:#003915"/><rect x="153.29451" y="33.52202" width="2.29858" height="0.5011" style="fill:#003915"/><rect x="153.29451" y="20.88452" width="2.29858" height="0.5015" style="fill:#003915"/><rect x="153.29451" y="19.68631" width="2.29858" height="0.50119" style="fill:#003915"/><rect x="153.29451" y="48.83191" width="2.29858" height="0.50171" style="fill:#003915"/><rect x="153.29451" y="47.63402" width="2.29858" height="0.5011" style="fill:#003915"/><rect x="150.29259" y="17.62952" width="0.5014" height="34.0937" style="fill:#003915"/><rect x="153.13969" y="17.62952" width="0.5015" height="34.0937" style="fill:#003915"/><rect x="155.31111" y="17.62952" width="0.50137" height="34.0937" style="fill:#003915"/><rect x="157.9521" y="17.62952" width="0.5014" height="34.0937" style="fill:#003915"/><path d="M268.0625,238.5352h-1.66989v-.697h1.66989Zm0,13.5692h-1.66989V239.03661h1.66989Zm0,1.1982h-1.66989v-.6971h1.66989Zm-1.66989.50171h1.66989v5.78949h.5015V237.8382h2.34561v21.7556h.5015V237.337h-8.161V259.5938h.5015V237.8382h2.13962V255.89h.5014Z" transform="translate(-138.4138 -144.42068)" style="fill:#003915;fill-rule:evenodd"/><rect x="157.68019" y="108.59471" width="1.29721" height="0.44701" style="fill:#003915"/><rect x="157.68019" y="107.52692" width="1.29721" height="0.4467" style="fill:#003915"/><rect x="157.68019" y="89.99261" width="1.29721" height="0.4471" style="fill:#003915"/><rect x="157.68019" y="88.92482" width="1.29721" height="0.44679" style="fill:#003915"/><rect x="157.68019" y="71.39032" width="1.29721" height="0.44699" style="fill:#003915"/><rect x="157.68019" y="70.32251" width="1.29721" height="0.4467" style="fill:#003915"/><rect x="157.68019" y="127.19711" width="1.29721" height="0.44701" style="fill:#003915"/><rect x="157.68019" y="126.12932" width="1.29721" height="0.4467" style="fill:#003915"/><rect x="159.75999" y="68.25572" width="0.44681" height="60.82129" style="fill:#003915"/><rect x="158.66869" y="68.25572" width="0.44672" height="60.82129" style="fill:#003915"/><rect x="157.58778" y="68.25572" width="0.44681" height="60.82129" style="fill:#003915"/><path d="M176.0825,148.91479h9.8224a.90517.90517,0,0,1,.90529.9039V154.429a4.59566,4.59566,0,0,1-4.58949,4.591h-2.4523a4.59574,4.59574,0,0,1-4.59041-4.591V149.8187a.90462.90462,0,0,1,.90451-.9039m6.1382,9.8606a4.35108,4.35108,0,0,0,4.34489-4.34641V149.8187a.6614.6614,0,0,0-.66069-.65988h-9.8224a.66071.66071,0,0,0-.6599.65988V154.429a4.35146,4.35146,0,0,0,4.34579,4.34641Z" transform="translate(-138.4138 -144.42068)" style="fill:#003915"/><path d="M182.2204,157.68521a3.25877,3.25877,0,0,0,3.25439-3.25623v-2.68808a.56785.56785,0,0,0-.5672-.5675h-3.57529v-.24521h3.57529a.81406.81406,0,0,1,.81241.81271V154.429a3.50406,3.50406,0,0,1-3.4996,3.50082h-2.4523a3.5047,3.5047,0,0,1-3.50079-3.50082v-2.68808a.81449.81449,0,0,1,.8136-.81271h3.5753v.24521h-3.5753a.56837.56837,0,0,0-.56841.5675V154.429a3.25942,3.25942,0,0,0,3.2556,3.25623Z" transform="translate(-138.4138 -144.42068)" style="fill:#003915"/><path d="M180.9935,154.08151a.78349.78349,0,1,1-.78371.78348.78466.78466,0,0,1,.78371-.78348m0,1.3223a.53871.53871,0,1,0-.53909-.53882A.53963.53963,0,0,0,180.9935,155.40381Z" transform="translate(-138.4138 -144.42068)" style="fill:#003915"/><rect x="42.45729" y="9.88562" width="0.2449" height="1.11649" style="fill:#003915"/><rect x="42.0222" y="10.32123" width="1.116" height="0.24548" style="fill:#003915"/><path d="M180.6562,150.09711h-.40361a.17356.17356,0,0,0-.1729.174v.3793a.17366.17366,0,0,0,.1729.1741h.40361v.2449h-.40361a.41869.41869,0,0,1-.41809-.419v-.3793a.41852.41852,0,0,1,.41809-.41858h.40561l-.002.03738Zm1.07719.72739a.17447.17447,0,0,0,.174-.1741v-.3793a.17437.17437,0,0,0-.174-.174h-.40109v-.20721l-.0023-.03738h.4034a.41852.41852,0,0,1,.4187.41858v.3793a.41869.41869,0,0,1-.4187.419h-.40109v-.2449Z" transform="translate(-138.4138 -144.42068)" style="fill:#003915"/><path d="M180.9935,149.4295a.461.461,0,0,1,.4612.46039v3.08041a.46045.46045,0,0,1-.9209,0v-3.08041a.46053.46053,0,0,1,.4597-.46039m0,3.75681a.2167.2167,0,0,0,.21629-.216v-3.08041a.21555.21555,0,0,0-.43109,0v3.08041A.21607.21607,0,0,0,180.9935,153.18631Z" transform="translate(-138.4138 -144.42068)" style="fill:#003915"/><path d="M161.48129,162.91391a3.917,3.917,0,0,1-3.91159-3.9129v-5.66531a.67719.67719,0,0,1,.4561-.63919,1.2401,1.2401,0,0,1-.20351-.205.946.946,0,0,0-.52159.84421V159.001a4.18085,4.18085,0,1,0,8.36169,0v-5.66531a.94561.94561,0,0,0-.521-.8436,1.23985,1.23985,0,0,1-.20331.20459.67645.67645,0,0,1,.45551.639V159.001a3.91707,3.91707,0,0,1-3.91231,3.9129" transform="translate(-138.4138 -144.42068)" style="fill:#003915"/><path d="M164.285,154.4165h-5.6089a.204.204,0,0,0-.20131.2016v4.2706a3.00661,3.00661,0,1,0,6.01321,0v-4.2706a.2047.2047,0,0,0-.203-.2016m-5.5414.26819h5.47589v4.204a2.73795,2.73795,0,0,1-5.47589,0Z" transform="translate(-138.4138 -144.42068)" style="fill:#003915"/><path d="M161.481,157.1474a1.00815,1.00815,0,1,0,1.0088,1.008,1.01006,1.01006,0,0,0-1.0088-1.008m0,1.74759a.73944.73944,0,1,1,.73979-.73959A.74039.74039,0,0,1,161.481,158.895Z" transform="translate(-138.4138 -144.42068)" style="fill:#003915"/><rect x="159.72531" y="154.95016" width="0.26849" height="2.24218" transform="translate(-200.01165 -17.84406) rotate(-36.72676)" style="fill:#003915"/><rect x="161.93738" y="155.93687" width="2.24302" height="0.26922" transform="translate(-198.00844 48.69018) rotate(-53.19061)" style="fill:#003915"/><path d="M164.18179,148.91479h-5.4005a1.355,1.355,0,0,0-1.3524,1.35379v1.4743a1.35352,1.35352,0,0,0,1.3524,1.35242h5.4005a1.35328,1.35328,0,0,0,1.35191-1.35242v-1.4743a1.35479,1.35479,0,0,0-1.35191-1.35379m-5.4005,3.91211a1.08551,1.08551,0,0,1-1.08429-1.084v-1.4743a1.08586,1.08586,0,0,1,1.08429-1.08508h5.4005a1.08594,1.08594,0,0,1,1.08371,1.08508v1.4743a1.08559,1.08559,0,0,1-1.08371,1.084Z" transform="translate(-138.4138 -144.42068)" style="fill:#003915"/><path d="M161.481,150.31711a.6881.6881,0,1,0,.6882.68738.68809.68809,0,0,0-.6882-.68738m0,1.10718a.41925.41925,0,1,1,.41949-.4198A.41949.41949,0,0,1,161.481,151.42429Z" transform="translate(-138.4138 -144.42068)" style="fill:#003915"/><path d="M145.47231,174.9209h0v7.83951h11.348V174.9209Zm-.33081,8.1709v-8.5025h12.00981v8.5025Z" transform="translate(-138.4138 -144.42068)" style="fill:#003915"/><path d="M147.8667,174.6964a.60437.60437,0,0,1,.5936-.6125h5.37221a.604.604,0,0,1,.5939.6125h-.33081a.26974.26974,0,0,0-.26309-.2809H148.4603a.26951.26951,0,0,0-.2628.2809Z" transform="translate(-138.4138 -144.42068)" style="fill:#003915"/><path d="M150.1245,177.323h0v2.7077l1.5974.6216a2.47424,2.47424,0,0,0-.09189-1.6747,4.15137,4.15137,0,0,1-.24121-1.24071,2.44964,2.44964,0,0,1,.1882-.9366Zm-.3308,2.9342v-3.1669l2.4801-.89211-.22481.39061a2.26608,2.26608,0,0,0-.32939,1.14809,3.89037,3.89037,0,0,0,.22679,1.14371,3.9008,3.9008,0,0,1,.22821,1.1441,2.01813,2.01813,0,0,1-.218.91249l-.0675.1358Z" transform="translate(-138.4138 -144.42068)" style="fill:#003915"/><path d="M188.69389,151.066v30.08488a2.161,2.161,0,0,0,2.1656,2.1515H201.2709a2.161,2.161,0,0,0,2.166-2.1515V151.066a2.16091,2.16091,0,0,0-2.166-2.15121H190.8595a2.161,2.161,0,0,0-2.1656,2.15121M203.207,181.15089a1.93117,1.93117,0,0,1-1.9361,1.92191H190.8595a1.931,1.931,0,0,1-1.9355-1.92191V151.066a1.9315,1.9315,0,0,1,1.9355-1.92221H201.2709a1.93162,1.93162,0,0,1,1.9361,1.92221Z" transform="translate(-138.4138 -144.42068)" style="fill:#003915"/><path d="M201.945,178.16521a2.577,2.577,0,0,1-2.58211,2.56529h-6.5948a2.57658,2.57658,0,0,1-2.5818-2.56529V154.052a2.57708,2.57708,0,0,1,2.5818-2.56589H194.83a.397.397,0,0,1-.142-.22821H192.7681a2.80639,2.80639,0,0,0-2.8125,2.7941v24.1132a2.80664,2.80664,0,0,0,2.8125,2.79439h6.5948a2.80656,2.80656,0,0,0,2.81219-2.79439V154.052a2.80631,2.80631,0,0,0-2.81219-2.7941h-1.9202a.39607.39607,0,0,1-.1414.22821h2.0616A2.57747,2.57747,0,0,1,201.945,154.052Z" transform="translate(-138.4138 -144.42068)" style="fill:#003915"/><path d="M200.6317,176.6178a1.26665,1.26665,0,0,1-1.2688,1.26111h-6.5948a1.26634,1.26634,0,0,1-1.2682-1.26111V154.052a1.26615,1.26615,0,0,1,1.2682-1.26141h2.8448v-.22879h-2.8448a1.49621,1.49621,0,0,0-1.499,1.4902v22.5658a1.49571,1.49571,0,0,0,1.499,1.4893h6.5948a1.49539,1.49539,0,0,0,1.499-1.4893V154.052a1.49589,1.49589,0,0,0-1.499-1.4902h-2.84509v.22879h2.84509a1.26646,1.26646,0,0,1,1.2688,1.26141Z" transform="translate(-138.4138 -144.42068)" style="fill:#003915"/><path d="M195.3326,155.95721a.73331.73331,0,1,0,.7336-.73.73151.73151,0,0,0-.7336.73m1.23651,0a.50331.50331,0,1,1-.50291-.50043A.50191.50191,0,0,1,196.56911,155.95721Z" transform="translate(-138.4138 -144.42068)" style="fill:#003915"/><rect x="57.12909" y="11.42142" width="1.0457" height="0.22931" style="fill:#003915"/><rect x="57.537" y="11.01712" width="0.23079" height="1.03778" style="fill:#003915"/><path d="M195.6129,151.45721h-.5374a.28.28,0,0,1-.2804-.27872v-.5051a.28037.28037,0,0,1,.2804-.27921h.5374v-.22879h-.5374a.51035.51035,0,0,0-.51109.508v.5051a.50966.50966,0,0,0,.51109.50742h.5374Zm1.72211-.27872a.27995.27995,0,0,1-.28011.27872h-.53709v.2287h.53709a.50921.50921,0,0,0,.5108-.50742v-.5051a.5099.5099,0,0,0-.5108-.508h-.53709v.22879h.53709a.2803.2803,0,0,1,.28011.27921Z" transform="translate(-138.4138 -144.42068)" style="fill:#003915"/><path d="M195.4976,150.16739v3.2012a.56766.56766,0,0,0,1.1353,0v-3.2012a.56766.56766,0,0,0-1.1353,0m.90509,3.2012a.3372.3372,0,0,1-.67439,0v-3.2012a.3372.3372,0,0,1,.67439,0Z" transform="translate(-138.4138 -144.42068)" style="fill:#003915"/><path d="M145.1282,230.2348V242.004h11.76889V230.2348Zm.24939,11.5197V230.484h11.2706V241.7545Z" transform="translate(-138.4138 -144.42068)" style="fill:#003915"/><path d="M155.7989,236.1192a3.91958,3.91958,0,0,1-7.7142.9817.29985.29985,0,0,1-.1976.07419h-.0405a4.16846,4.16846,0,1,0-.00031-2.1115h.0408a.29823.29823,0,0,1,.1973.074,3.91975,3.91975,0,0,1,7.71451.9816" transform="translate(-138.4138 -144.42068)" style="fill:#003915"/><path d="M148.39819,236.1192A3.48155,3.48155,0,1,0,151.88,232.638a3.48579,3.48579,0,0,0-3.48181,3.4812m6.71361,0a3.2319,3.2319,0,1,1-3.2318-3.2317A3.23542,3.23542,0,0,1,155.1118,236.1192Z" transform="translate(-138.4138 -144.42068)" style="fill:#003915"/><path d="M150.97749,236.1192a.90225.90225,0,1,0,.90251-.9025.90335.90335,0,0,0-.90251.9025m1.5556,0a.65295.65295,0,1,1-.65309-.65311A.65424.65424,0,0,1,152.5331,236.1192Z" transform="translate(-138.4138 -144.42068)" style="fill:#003915"/><rect x="12.8089" y="91.57382" width="1.3138" height="0.2495" style="fill:#003915"/><rect x="13.3409" y="91.04172" width="0.2498" height="1.3136" style="fill:#003915"/><path d="M147.0733,235.36549V236.873a.42712.42712,0,0,0,.42659.42661h.38721a.427.427,0,0,0,.4267-.42661v-1.50751a.42688.42688,0,0,0-.4267-.42659h-.38721a.427.427,0,0,0-.42659.42659m.991,1.50751a.17759.17759,0,0,1-.1772.1774h-.38721a.17737.17737,0,0,1-.17709-.1774v-1.50751a.1772.1772,0,0,1,.17709-.1772h.38721a.17742.17742,0,0,1,.1772.1772Z" transform="translate(-138.4138 -144.42068)" style="fill:#003915"/><path d="M147.198,236.3392h-.0864a.2197.2197,0,0,1,0-.43941h.0864v-.24969h-.0864a.4694.4694,0,0,0,0,.9388h.0864Zm2.5901-.22a.22052.22052,0,0,1-.2206.22H148.189v.24969h1.37851a.4694.4694,0,1,0,0-.9388H148.189v.24969h1.37851A.22007.22007,0,0,1,149.7881,236.1192Z" transform="translate(-138.4138 -144.42068)" style="fill:#003915"/><path d="M145.6095,258.8996V251.7429a1.49613,1.49613,0,0,1,1.49471-1.49411h8.29869a1.496,1.496,0,0,1,1.4942,1.49411v7.15669a1.49562,1.49562,0,0,1-1.4942,1.49409H147.1042a1.49573,1.49573,0,0,1-1.49471-1.49409m11.0546-7.15669a1.26264,1.26264,0,0,0-1.2612-1.26111H147.1042a1.26275,1.26275,0,0,0-1.2617,1.26111v7.15669a1.26307,1.26307,0,0,0,1.2617,1.2617h8.29869a1.263,1.263,0,0,0,1.2612-1.2617Z" transform="translate(-138.4138 -144.42068)" style="fill:#003915"/><path d="M146.42841,258.8996V251.7429a.6762.6762,0,0,1,.6758-.6757h7.0107a.67632.67632,0,0,1,.6757.6757v7.15669a.67644.67644,0,0,1-.6757.6763h-7.0107a.67633.67633,0,0,1-.6758-.6763m8.1292-7.15669a.44322.44322,0,0,0-.4427-.443h-7.0107a.44348.44348,0,0,0-.443.443v7.15669a.44387.44387,0,0,0,.443.44391h7.0107a.44361.44361,0,0,0,.4427-.44391Z" transform="translate(-138.4138 -144.42068)" style="fill:#003915"/><path d="M155.2093,252.4431a.47425.47425,0,1,1,.47429.4742.47512.47512,0,0,1-.47429-.4742m.7155,0a.24125.24125,0,1,0-.24121.2415A.24194.24194,0,0,0,155.9248,252.4431Z" transform="translate(-138.4138 -144.42068)" style="fill:#003915"/><path d="M155.2093,254.04379a.47425.47425,0,1,1,.47429.47481.475.475,0,0,1-.47429-.47481m.7155,0a.24125.24125,0,1,0-.24121.24181A.24161.24161,0,0,0,155.9248,254.04379Z" transform="translate(-138.4138 -144.42068)" style="fill:#003915"/><rect x="10.1571" y="107.57571" width="0.2327" height="2.7195" style="fill:#003915"/><rect x="8.9129" y="108.81921" width="2.71959" height="0.2327" style="fill:#003915"/><path d="M147.79021,253.35609a.8969.8969,0,1,1,.8969.89661.898.898,0,0,1-.8969-.89661m1.561,0a.6643.6643,0,1,0-.66409.66391A.66546.66546,0,0,0,149.3512,253.35609Z" transform="translate(-138.4138 -144.42068)" style="fill:#003915"/><rect x="14.0023" y="107.57571" width="0.23239" height="2.7195" style="fill:#003915"/><rect x="12.7579" y="108.81921" width="2.7204" height="0.2327" style="fill:#003915"/><path d="M151.6346,253.35609a.89715.89715,0,1,1,.8974.89661.89858.89858,0,0,1-.8974-.89661m1.5618,0a.6647.6647,0,1,0-.6644.66391A.6654.6654,0,0,0,153.1964,253.35609Z" transform="translate(-138.4138 -144.42068)" style="fill:#003915"/><rect x="10.1571" y="111.50652" width="0.2327" height="2.71919" style="fill:#003915"/><rect x="8.9129" y="112.75002" width="2.71959" height="0.233" style="fill:#003915"/><path d="M147.79021,257.2872a.8969.8969,0,1,1,.8969.8969.89782.89782,0,0,1-.8969-.8969m1.561,0a.6643.6643,0,1,0-.66409.66389A.666.666,0,0,0,149.3512,257.2872Z" transform="translate(-138.4138 -144.42068)" style="fill:#003915"/><rect x="14.0023" y="111.50652" width="0.23239" height="2.71919" style="fill:#003915"/><rect x="12.7579" y="112.75002" width="2.7204" height="0.233" style="fill:#003915"/><path d="M151.6346,257.2872a.89715.89715,0,1,1,.8974.8969.89845.89845,0,0,1-.8974-.8969m1.5618,0a.6647.6647,0,1,0-.6644.66389A.66592.66592,0,0,0,153.1964,257.2872Z" transform="translate(-138.4138 -144.42068)" style="fill:#003915"/><path d="M155.2093,256.7574a.47425.47425,0,1,1,.47429.47459.47486.47486,0,0,1-.47429-.47459m.7155,0a.24125.24125,0,1,0-.24121.24181A.24167.24167,0,0,0,155.9248,256.7574Z" transform="translate(-138.4138 -144.42068)" style="fill:#003915"/><path d="M155.2093,258.359a.47425.47425,0,1,1,.47429.474.47466.47466,0,0,1-.47429-.474m.7155,0a.24125.24125,0,1,0-.24121.2415A.24167.24167,0,0,0,155.9248,258.359Z" transform="translate(-138.4138 -144.42068)" style="fill:#003915"/><path d="M146.5013,151.0033a.80927.80927,0,1,0-.2347-.57089.80978.80978,0,0,0,.2347.57089m.5726,1.03641a1.60711,1.60711,0,1,1,1.1364-.47061A1.60252,1.60252,0,0,1,147.0739,152.0397Z" transform="translate(-138.4138 -144.42068)" style="fill:#003915"/><rect x="37.96379" y="63.42412" width="8.5782" height="8.76579" style="fill:#003915"/><path d="M152.1544,157.3053v2.98041H149.0817V157.3053Zm0-4.2894v2.98041H145.1971V153.0159Zm-3.8846,4.2894v2.98041H145.1971V157.3053Zm4.8969,3.99911h-9.56441V152.1091h9.56441Z" transform="translate(-138.4138 -144.42068)" style="fill:#003915;fill-rule:evenodd"/><path d="M259.7403,191.8421c-.7319,0-1.2359-.618-1.2359-1.7399s.504-1.7399,1.2359-1.7399,1.2359.61789,1.2359,1.7399-.504,1.7399-1.2359,1.7399m0,.396c.972,0,1.67981-.798,1.67981-2.13589s-.70779-2.13591-1.67981-2.13591-1.67389.79791-1.67389,2.13591S258.76831,192.2381,259.7403,192.2381Zm-3.97189-.396c-.7319,0-1.2359-.618-1.2359-1.7399s.504-1.7399,1.2359-1.7399,1.2359.61789,1.2359,1.7399S256.50031,191.8421,255.7684,191.8421Zm0,.396c.972,0,1.67981-.798,1.67981-2.13589s-.70782-2.13591-1.67981-2.13591-1.6739.79791-1.6739,2.13591S254.7964,192.2381,255.7684,192.2381Zm-2.5498-.6599a.314.314,0,0,0-.318.324.303.303,0,0,0,.216.30579l-.20409.87h.288l.252-.828a.97605.97605,0,0,0,.0842-.34779A.314.314,0,0,0,253.2186,191.5782Zm-2.2861-1.77591,1.188-1.49419v-.3058h-2.7v.38379h2.1481l-1.16391,1.4581v.3181h.29991c.7798,0,1.13379.32991,1.13379.83391,0,.5219-.38379.8459-1.08.8459a1.841,1.841,0,0,1-1.30191-.4859l-.2101.3419a2.18517,2.18517,0,0,0,1.512.54c1.014,0,1.5239-.54,1.5239-1.2419C252.2823,190.3241,251.8325,189.8502,250.9325,189.80229Zm-3.852-1.8v.38379h.9901v3.816h.432v-4.1998Z" transform="translate(-138.4138 -144.42068)" style="fill:#6e6e6e;fill-rule:evenodd"/><path d="M177.8414,171.777c-.7319,0-1.2359-.61789-1.2359-1.7399s.504-1.73988,1.2359-1.73988,1.2359.618,1.2359,1.73988-.504,1.7399-1.2359,1.7399m0,.396c.972,0,1.67979-.7979,1.67979-2.13591s-.70779-2.13588-1.67979-2.13588-1.6738.798-1.6738,2.13588S176.8694,172.173,177.8414,172.173Zm-3.97189-.396c-.7319,0-1.2359-.61789-1.2359-1.7399s.504-1.73988,1.2359-1.73988,1.23589.618,1.23589,1.73988S174.60139,171.777,173.86951,171.777Zm0,.396c.972,0,1.67979-.7979,1.67979-2.13591s-.70779-2.13588-1.67979-2.13588-1.67381.798-1.67381,2.13588S172.89751,172.173,173.86951,172.173Zm-2.5498-.65991a.31407.31407,0,0,0-.318.324.30326.30326,0,0,0,.216.30591l-.2041.86989h.288l.252-.828a.976.976,0,0,0,.0842-.34781A.314.314,0,0,0,171.3197,171.51309Zm-2.622-1.8541h-.54l.144-1.338h1.91991v-.38382H167.9238l-.216,2.10591h.8941c1.06779,0,1.4037.33589,1.4037.8759,0,.50989-.3779.858-1.0919.858a1.82134,1.82134,0,0,1-1.29-.48579l-.20981.3418a2.16821,2.16821,0,0,0,1.5058.54c1.02611,0,1.52391-.5578,1.52391-1.27191C170.4436,170.157,169.9637,169.659,168.69769,169.659Z" transform="translate(-138.4138 -144.42068)" style="fill:#6e6e6e;fill-rule:evenodd"/><path d="M165.8996,202.277c-.7319,0-1.2359-.618-1.2359-1.7399s.504-1.7399,1.2359-1.7399,1.2359.6179,1.2359,1.7399-.504,1.7399-1.2359,1.7399m0,.396c.972,0,1.67981-.798,1.67981-2.13591s-.70781-2.13589-1.67981-2.13589-1.6738.7979-1.6738,2.13589S164.9276,202.673,165.8996,202.673Zm-3.62379-.366c-.72591,0-1.11-.43791-1.11-.9a.97206.97206,0,0,1,1.08-.9178c.648,0,1.05589.3537,1.05589.9059A.91885.91885,0,0,1,162.2758,202.307Zm.036-2.18411a1.34289,1.34289,0,0,0-1.2841.72c-.0119-.12579-.01779-.2457-.01779-.3418,0-1.14011.58189-1.72209,1.4879-1.72209a1.47067,1.47067,0,0,1,.8158.1982l.174-.3481a1.92688,1.92688,0,0,0-.99579-.22791c-1.14011,0-1.91991.74381-1.91991,2.17191,0,1.326.6058,2.0999,1.7218,2.0999a1.30852,1.30852,0,0,0,1.434-1.2901A1.27163,1.27163,0,0,0,162.3118,200.12289Zm-2.6158,1.8902a.314.314,0,0,0-.318.324.303.303,0,0,0,.216.3058l-.2041.87h.288l.252-.828a.9755.9755,0,0,0,.08411-.34781A.314.314,0,0,0,159.696,202.01309Zm-3.24.23981,1.4281-1.4037a1.729,1.729,0,0,0,.68991-1.31419c0-.7018-.54-1.1338-1.392-1.1338a1.88753,1.88753,0,0,0-1.488.59979l.30589.26421a1.42609,1.42609,0,0,1,1.1461-.468c.642,0,.9839.29991.9839.786,0,.28769-.0899.56979-.5639,1.0378l-1.74609,1.7101v.30589H158.766v-.38409Z" transform="translate(-138.4138 -144.42068)" style="fill:#6e6e6e;fill-rule:evenodd"/><path d="M200.0197,264.27721c-.7319,0-1.2359-.618-1.2359-1.73991s.504-1.7399,1.2359-1.7399,1.2359.6179,1.2359,1.7399-.504,1.73991-1.2359,1.73991m0,.396c.972,0,1.67979-.798,1.67979-2.13591s-.70779-2.13589-1.67979-2.13589-1.6739.7979-1.6739,2.13589S199.0477,264.6732,200.0197,264.6732Zm-2.07021-1.52391h-.83989v-.972h-.4198v.972h-1.8241l2.14809-2.7119h-.48019l-2.22569,2.78391v.3118h2.36969v1.10411h.432V263.5331h.83989Zm-4.43359.864a.31408.31408,0,0,0-.3181.324.30312.30312,0,0,0,.216.3058l-.2041.87h.288l.252-.828a.976.976,0,0,0,.0842-.34781A.314.314,0,0,0,193.5159,264.01331Zm-2.562-1.4281c-.648,0-1.05591-.35411-1.05591-.906a.91906.91906,0,0,1,1.02591-.9119c.72589,0,1.11.438,1.11.9A.97209.97209,0,0,1,190.9539,262.58521Zm-.0479-2.18381a1.30845,1.30845,0,0,0-1.434,1.2897,1.27144,1.27144,0,0,0,1.41589,1.26,1.3422,1.3422,0,0,0,1.2841-.72c.0119.12621.01781.24611.01781.34221,0,1.1398-.58191,1.722-1.4879,1.722a1.472,1.472,0,0,1-.81581-.1981l-.174.3481a1.928,1.928,0,0,0,.9958.22791c1.14011,0,1.91991-.74411,1.91991-2.17191C192.62781,261.1752,192.022,260.4014,190.906,260.4014Zm-3.7321.036v.3838h.99019v3.816h.432v-4.19981Z" transform="translate(-138.4138 -144.42068)" style="fill:#6e6e6e;fill-rule:evenodd"/><path d="M287.89261,247.27721c-.7319,0-1.2359-.6179-1.2359-1.73991s.504-1.7399,1.2359-1.7399,1.2359.618,1.2359,1.7399-.504,1.73991-1.2359,1.73991m0,.396c.972,0,1.67978-.7979,1.67978-2.13591s-.70779-2.13589-1.67978-2.13589-1.67392.798-1.67392,2.13589S286.92059,247.6732,287.89261,247.6732Zm-4.5-.42,1.4281-1.40381a1.729,1.729,0,0,0,.68988-1.3141c0-.70189-.54-1.1339-1.39209-1.1339a1.88733,1.88733,0,0,0-1.48788.59981l.30588.26419a1.42632,1.42632,0,0,1,1.146-.468c.64212,0,.98392.29991.98392.7861,0,.2877-.08981.5697-.56381,1.0377l-1.74609,1.71021v.3058h2.946v-.384Zm-1.55991-.2399a.31415.31415,0,0,0-.31812.324.30326.30326,0,0,0,.216.30591l-.2041.87h.288l.252-.828a.97677.97677,0,0,0,.0842-.3479A.314.314,0,0,0,281.8327,247.01331Zm-2.28619-1.77591,1.188-1.49409v-.30591h-2.7v.3838h2.1481l-1.16388,1.45821v.318h.2999c.77979,0,1.13391.33,1.13391.834,0,.5218-.38382.84581-1.08.84581a1.84129,1.84129,0,0,1-1.302-.48581l-.21.3418a2.18447,2.18447,0,0,0,1.512.54c1.01392,0,1.5239-.54,1.5239-1.24181C280.89639,245.75929,280.4465,245.28529,279.54651,245.2374Z" transform="translate(-138.4138 -144.42068)" style="fill:#6e6e6e;fill-rule:evenodd"/><path d="M143.9456,191.9538a3.9078,3.9078,0,1,1-3.9079,3.9075,3.908,3.908,0,0,1,3.9079-3.9075" transform="translate(-138.4138 -144.42068)" style="fill:#558e42;fill-rule:evenodd"/><polygon points="7.936 51.441 6.621 51.063 5.306 50.684 5.306 51.441 5.306 52.198 6.621 51.819 7.936 51.441" style="fill:#fdfdfd;fill-rule:evenodd"/><rect x="3.1277" y="51.26172" width="2.2813" height="0.38409" style="fill:#fdfdfd"/></svg>