<svg id="Слой_1" data-name="Слой 1" xmlns="http://www.w3.org/2000/svg" viewBox="0 0 161.69521 138.10989"><title>2.10.02</title><polygon points="161.695 138.11 155.042 138.11 3.349 138.11 0 138.11 0 63.837 3.349 63.837 3.349 2.501 155.042 2.501 155.042 63.837 161.695 63.837 161.695 138.11" style="fill:#fff;fill-rule:evenodd"/><path d="M245.399,255.38519c0,.42691-.3606.7211-1.0148.7211-.6546,0-1.01511-.29419-1.01511-.7211s.3605-.72089,1.01511-.72089c.65421,0,1.0148.294,1.0148.72089m.231,0c0-.56689-.4655-.98-1.2458-.98-.7807,0-1.2462.4131-1.2462.98s.4655.9765,1.2462.9765C245.16451,256.36169,245.63,255.9521,245.63,255.38519Zm-.2135,2.2785c0,.434-.189.68941-.4935.68941-.301,0-.4901-.2554-.4901-.68941s.18909-.6931.4901-.6931C245.22749,256.9706,245.4165,257.22971,245.4165,257.6637Zm-1.6239.6055c-.273,0-.4411-.2348-.4411-.6055,0-.36769.16811-.60919.4445-.60919.2661,0,.43759.2276.43759.60919C244.2336,258.04491,244.0621,258.2692,243.7926,258.2692Zm.532-1.07809a.55478.55478,0,0,0-.53909-.392c-.39891,0-.64751.34639-.64751.86459,0,.5179.2486.8575.64751.8575a.55288.55288,0,0,0,.53909-.3853.61113.61113,0,0,0,.60181.47261c.434,0,.7036-.3569.7036-.94481,0-.5845-.26961-.95219-.7036-.95219A.617.617,0,0,0,244.3246,257.1911Zm.92039,1.988a.18318.18318,0,0,0,.1891.18541.17676.17676,0,0,0,.1783-.1259l.50771.11909v-.16809l-.483-.1472a.57585.57585,0,0,0-.203-.049A.18322.18322,0,0,0,245.245,259.17909Zm-2.086,1.6064h.224v-.5775h2.226v-.252h-2.45Z" transform="translate(-128.1881 -143.5437)" style="fill:#434242"/><path d="M277.70911,222.3831l-.8714-.69281h-.17862v1.57491h.224v-1.2529l.85071.67889h.1853v-.1749c0-.4552.1925-.66159.48651-.66159.30438,0,.4935.224.4935.6299a1.07434,1.07434,0,0,1-.28351.75969l.19958.12241a1.27425,1.27425,0,0,0,.31491-.8821c0-.59131-.31491-.889-.72449-.889-.39212,0-.6684.2625-.6965.78751m.5321,1.0114v.4901h-.567v.2449h.567v1.06419l-1.58212-1.253v.2798l1.624,1.2986h.182V224.1366h.644v-.252h-.644v-.4901Zm.504,2.58659a.18315.18315,0,0,0,.189.18541.17652.17652,0,0,0,.17828-.1259l.50772.11909v-.16811l-.483-.14709a.57336.57336,0,0,0-.203-.049A.18316.18316,0,0,0,278.74521,225.98109Zm-2.08612,1.6064h.224v-.57739h2.226v-.252h-2.45Z" transform="translate(-128.1881 -143.5437)" style="fill:#434242"/><path d="M155.66341,185.48759v.315l-.78061-.08389v-1.12h-.224v1.3405l1.22861.1259v-.5213c0-.62309.1958-.8192.51109-.8192.2973,0,.50031.2205.50031.63721a1.06144,1.06144,0,0,1-.28351.7523l.1996.1225a1.265,1.265,0,0,0,.31491-.87851c0-.59839-.32541-.8889-.74181-.8889-.4343,0-.72459.28-.72459,1.0184m.24829,1.9846c0,.37781-.2063.61591-.52829.61591a.53635.53635,0,0,1-.5321-.5986c0-.42351.25569-.64751.525-.64751A.56709.56709,0,0,1,155.9117,187.4722Zm-1.2738.0278a.76318.76318,0,0,0,.75261.8365.74162.74162,0,0,0,.7347-.8261.78257.78257,0,0,0-.4198-.7489c.07339-.00711.1434-.01051.19951-.01051.6651,0,1.00439.33961,1.00439.868a.85871.85871,0,0,1-.1154.47589l.203.1015a1.12491,1.12491,0,0,0,.1329-.5808c0-.665-.434-1.12-1.26711-1.12C155.0894,186.49561,154.63789,186.84911,154.63789,187.5Zm2.107,1.3127a.18313.18313,0,0,0,.189.18539.17675.17675,0,0,0,.1783-.1259l.50771.11911v-.16811l-.483-.1472a.57617.57617,0,0,0-.203-.049A.18318.18318,0,0,0,156.7449,188.8127Zm.14,1.89011-.81891-.8331a1.00789,1.00789,0,0,0-.76649-.40251c-.40961,0-.66161.31491-.66161.8121a1.10128,1.10128,0,0,0,.35.868l.154-.17859a.832.832,0,0,1-.273-.66841c0-.3745.1749-.574.4583-.574.16811,0,.3325.0524.6055.3288l.99751,1.01849h.17859v-1.7184h-.22389Z" transform="translate(-128.1881 -143.5437)" style="fill:#434242"/><path d="M140.885,248.03951l-.81889-.8331a1.00778,1.00778,0,0,0-.76649-.40251c-.40961,0-.66161.31491-.66161.8121a1.10111,1.10111,0,0,0,.3501.868l.1539-.17859a.83219.83219,0,0,1-.273-.66841c0-.3745.1749-.5741.45839-.5741.16811,0,.3325.05251.60551.3289l.9975,1.01849h.1785v-1.7184H140.885Zm-2.226,1.73929h.22391v-.57739h2.226v-.252H138.659Zm2.086.3569a.18316.18316,0,0,0,.189.18541.1767.1767,0,0,0,.1783-.1259l.50769.11909v-.16811l-.483-.14709a.57387.57387,0,0,0-.203-.0491A.18319.18319,0,0,0,140.745,250.1357Zm-1.0361,1.3334-.8714-.69279h-.1785v1.575h.22391v-1.253l.85069.67891h.18541v-.17491c0-.4552.1924-.66159.48639-.66159.3044,0,.4935.224.4935.6299a1.07438,1.07438,0,0,1-.28349.7597l.1996.12239a1.27424,1.27424,0,0,0,.3149-.8821c0-.59131-.3149-.8889-.7245-.8889C140.0134,250.6817,139.737,250.94409,139.70889,251.4691Z" transform="translate(-128.1881 -143.5437)" style="fill:#434242"/><path d="M172.6489,172.65891c0,.4269-.3606.7211-1.0148.7211-.6545,0-1.01509-.2942-1.01509-.7211s.3606-.7209,1.01509-.7209c.65421,0,1.0148.294,1.0148.7209m.231,0c0-.56691-.46539-.98-1.2458-.98-.7807,0-1.24609.4131-1.24609.98s.46539.9765,1.24609.9765C172.41451,173.63541,172.8799,173.2258,172.8799,172.65891Zm-.2449,2.62509-.81889-.8331a1.00775,1.00775,0,0,0-.76649-.4025c-.40961,0-.66161.315-.66161.81219a1.10078,1.10078,0,0,0,.3501.8679l.1539-.1786a.832.832,0,0,1-.273-.6684c0-.3744.1749-.574.45839-.574.16811,0,.3325.05251.60551.32881l.9975,1.01849h.17859v-1.71831h-.224Zm-.14.91a.18317.18317,0,0,0,.1891.18539.17675.17675,0,0,0,.1783-.1259l.5076.11911v-.16811l-.483-.1472a.57563.57563,0,0,0-.2029-.049A.18322.18322,0,0,0,172.495,176.194Zm-1.0361,1.3334-.87129-.69281h-.1786v1.57491h.22391v-1.2529l.85069.67889h.18541v-.1749c0-.4552.1924-.66161.48639-.66161.3044,0,.4935.22391.4935.62991a1.07406,1.07406,0,0,1-.28349.75969l.1996.12241a1.27463,1.27463,0,0,0,.3149-.8821c0-.59131-.3149-.889-.7245-.889C171.7634,176.7399,171.487,177.0024,171.45889,177.5274Z" transform="translate(-128.1881 -143.5437)" style="fill:#434242"/><line x1="116.261" y1="118.6622" x2="116.261" y2="133.101" style="fill:none;stroke:#b1b2b2;stroke-miterlimit:22.92558479309082;stroke-width:0.2160000056028366px"/><line x1="149.76109" y1="85.66209" x2="149.76109" y2="92.4106" style="fill:none;stroke:#b1b2b2;stroke-miterlimit:22.92558479309082;stroke-width:0.2160000056028366px"/><line x1="27.7608" y1="48.91209" x2="27.7608" y2="64.0343" style="fill:none;stroke:#b1b2b2;stroke-miterlimit:22.92558479309082;stroke-width:0.2160000056028366px"/><line x1="11.76091" y1="110.662" x2="11.76091" y2="133.7621" style="fill:none;stroke:#b1b2b2;stroke-miterlimit:22.92558479309082;stroke-width:0.2160000056028366px"/><line x1="43.51091" y1="36.1618" x2="43.51091" y2="68.7251" style="fill:none;stroke:#b1b2b2;stroke-miterlimit:22.92558479309082;stroke-width:0.2160000056028366px"/><line x1="116.261" y1="97.7641" x2="116.261" y2="109.2231" style="fill:none;stroke:#b1b2b2;stroke-miterlimit:22.92558479309082;stroke-width:0.2160000056028366px"/><line x1="149.76109" y1="69.47459" x2="149.76109" y2="76.22299" style="fill:none;stroke:#b1b2b2;stroke-miterlimit:22.92558479309082;stroke-width:0.2160000056028366px"/><line x1="27.7608" y1="5.54599" x2="27.7608" y2="39.47299" style="fill:none;stroke:#b1b2b2;stroke-miterlimit:22.92558479309082;stroke-width:0.2160000056028366px"/><line x1="11.76091" y1="72.1944" x2="11.76091" y2="101.2229" style="fill:none;stroke:#b1b2b2;stroke-miterlimit:22.92558479309082;stroke-width:0.2160000056028366px"/><line x1="43.51091" y1="6.47519" x2="43.51091" y2="26.7227" style="fill:none;stroke:#b1b2b2;stroke-miterlimit:22.92558479309082;stroke-width:0.2160000056028366px"/><path d="M257.5069,245.8098c-.42691,0-.72119-.3606-.72119-1.01489,0-.65451.29428-1.015.72119-1.015s.72079.3605.72079,1.015c0,.6543-.29388,1.01489-.72079,1.01489m0,.231c.56689,0,.97989-.4655.97989-1.2459,0-.78061-.413-1.24611-.97989-1.24611s-.97659.4655-.97659,1.24611C256.5303,245.5753,256.93991,246.0408,257.5069,246.0408Zm-2.31709-1.21811c-.37781,0-.61591-.2063-.61591-.5284a.53628.53628,0,0,1,.5986-.532c.42349,0,.64751.25571.64751.525A.56708.56708,0,0,1,255.1898,244.82269Zm-.0278-1.2739a.76324.76324,0,0,0-.8365.75261.74168.74168,0,0,0,.8261.73479.78275.78275,0,0,0,.7489-.4198c.0071.07341.0105.1434.0105.19951,0,.665-.3396,1.0043-.868,1.0043a.85875.85875,0,0,1-.47591-.11531l-.10149.20291a1.124,1.124,0,0,0,.5808.133c.665,0,1.12-.434,1.12-1.26711C256.16641,244.0004,255.8129,243.5488,255.162,243.5488Zm-1.3127,2.107a.18318.18318,0,0,0-.18541.1891.17676.17676,0,0,0,.1259.1783l-.11909.50771h.16811l.14719-.483a.57585.57585,0,0,0,.049-.203A.18322.18322,0,0,0,253.8493,245.65579Zm-1.89011.14011.8331-.819a1.0076,1.0076,0,0,0,.4025-.76649c0-.40961-.3149-.66161-.81209-.66161a1.10136,1.10136,0,0,0-.868.3501l.1786.1539a.83225.83225,0,0,1,.6684-.2729c.37451,0,.574.17491.574.45831,0,.16809-.0524.33249-.3288.6055l-1.01851.9975v.1786h1.7184v-.22391Z" transform="translate(-128.1881 -143.5437)" style="fill:#434242"/><path d="M221.4794,153.78949c-.4269,0-.72121-.3606-.72121-1.0148,0-.65448.29431-1.01508.72121-1.01508s.72079.3606.72079,1.01508c0,.65421-.2939,1.0148-.72079,1.0148m0,.231c.56689,0,.9799-.46542.9799-1.24582,0-.7807-.413-1.24609-.9799-1.24609s-.97659.46539-.97659,1.24609C220.50281,153.55508,220.9124,154.02051,221.4794,154.02051Zm-2.3134-1.46631h-.3149l.08389-.7807h1.12v-.22391h-1.3405l-.1259,1.22852h.5213c.623,0,.8192.19589.8192.51108,0,.2973-.22049.50031-.63719.50031a1.06124,1.06124,0,0,1-.7523-.28348l-.1225.19958a1.26443,1.26443,0,0,0,.87849.31491c.5984,0,.8889-.32541.8889-.74182C220.18449,152.84439,219.9044,152.5542,219.166,152.5542Zm-1.1937,1.08139a.18312.18312,0,0,0-.1853.189.17662.17662,0,0,0,.12579.17831l-.119.50769h.16811l.14709-.483a.57535.57535,0,0,0,.049-.203A.1832.1832,0,0,0,217.97231,153.63559Zm-1.52921-1.08139h-.315l.08391-.7807h1.12v-.22391h-1.3405l-.1259,1.22852h.5213c.62309,0,.8192.19589.8192.51108,0,.2973-.2205.50031-.63721.50031a1.06139,1.06139,0,0,1-.75229-.28348l-.1225.19958a1.26443,1.26443,0,0,0,.87849.31491c.5984,0,.8889-.32541.8889-.74182C217.4615,152.84439,217.1815,152.5542,216.4431,152.5542Z" transform="translate(-128.1881 -143.5437)" style="fill:#434242"/><path d="M148.1479,152.80249c-.37781,0-.61591-.20639-.61591-.52838a.53635.53635,0,0,1,.5986-.5321c.42349,0,.64751.25571.64751.525a.56709.56709,0,0,1-.6302.53549m-.02771-1.2739a.76312.76312,0,0,0-.83649.75259.74152.74152,0,0,0,.826.73471.78259.78259,0,0,0,.7489-.4198c.00711.07339.0105.1434.0105.19958,0,.665-.3396,1.0043-.868,1.0043a.85884.85884,0,0,1-.47589-.11539l-.1015.203a1.124,1.124,0,0,0,.5808.1329c.665,0,1.12-.434,1.12-1.26712C149.1245,151.9801,148.771,151.5286,148.12019,151.5286Zm-2.17709.021v.22391h.5775v2.226h.252v-2.44992Zm-.3568,2.086a.18315.18315,0,0,0-.18541.189.17662.17662,0,0,0,.12581.17831l-.119.50769h.16811l.14709-.483a.57322.57322,0,0,0,.049-.203A.18318.18318,0,0,0,145.5863,153.63559Zm-1.6064-2.086v.22391h.57739v2.226h.252v-2.44992Z" transform="translate(-128.1881 -143.5437)" style="fill:#434242"/><path d="M181.9794,273.59979l.69279-.8714v-.17859h-1.57489v.224h1.2529l-.67891.8506v.18539h.17491c.4552,0,.66159.1925.66159.4864,0,.30449-.22389.49359-.62979.49359a1.07416,1.07416,0,0,1-.7597-.28349l-.1225.19949a1.27477,1.27477,0,0,0,.8822.315c.59129,0,.8889-.315.8889-.72459,0-.392-.26251-.66841-.78751-.69641m-2.49561,1.1761.8331-.819a1.00761,1.00761,0,0,0,.40251-.76649c0-.40961-.31491-.66161-.8121-.66161a1.10142,1.10142,0,0,0-.868.35011l.17859.1539a.83242.83242,0,0,1,.66841-.2729c.3745,0,.574.1749.574.4583,0,.16811-.0524.3325-.3288.6055l-1.01849.9975v.1786h1.7184v-.22391Zm-.9099-.14009a.18316.18316,0,0,0-.18539.1891.17667.17667,0,0,0,.1259.1783l-.11911.50769h.16811l.14709-.483a.574.574,0,0,0,.0491-.203A.18321.18321,0,0,0,178.5739,274.6358Zm-.49319-.504h-.4901v-.56691h-.245v.56691h-1.0641l1.2529-1.582h-.2798l-1.29849,1.624v.182h1.38249v.644h.252v-.644h.4901Z" transform="translate(-128.1881 -143.5437)" style="fill:#434242"/><line x1="122.1862" y1="101.31619" x2="100.02921" y2="101.31619" style="fill:none;stroke:#b1b2b2;stroke-miterlimit:22.92558479309082;stroke-width:0.2160000056028366px"/><line x1="86.25511" y1="9.2959" x2="39.28081" y2="9.2959" style="fill:none;stroke:#b1b2b2;stroke-miterlimit:22.92558479309082;stroke-width:0.2160000056028366px"/><line x1="13.75511" y1="9.2959" x2="7.00661" y2="9.2959" style="fill:none;stroke:#b1b2b2;stroke-miterlimit:22.92558479309082;stroke-width:0.2160000056028366px"/><line x1="46.5049" y1="130.2962" x2="9.69081" y2="130.2962" style="fill:none;stroke:#b1b2b2;stroke-miterlimit:22.92558479309082;stroke-width:0.2160000056028366px"/><line x1="154.64922" y1="101.31619" x2="131.62529" y2="101.31619" style="fill:none;stroke:#b1b2b2;stroke-miterlimit:22.92558479309082;stroke-width:0.2160000056028366px"/><line x1="148.06541" y1="9.2959" x2="95.6942" y2="9.2959" style="fill:none;stroke:#b1b2b2;stroke-miterlimit:22.92558479309082;stroke-width:0.2160000056028366px"/><line x1="29.94261" y1="9.2959" x2="23.1942" y2="9.2959" style="fill:none;stroke:#b1b2b2;stroke-miterlimit:22.92558479309082;stroke-width:0.2160000056028366px"/><line x1="91.1911" y1="130.2962" x2="55.944" y2="130.2962" style="fill:none;stroke:#b1b2b2;stroke-miterlimit:22.92558479309082;stroke-width:0.2160000056028366px"/><path d="M261.11649,205.4435h2.77512v3.1785h-2.77512Zm8.90652-3.8905h2.77509v7.069H270.023Zm-4.4252,0h2.77509v7.069h-2.77509Zm-4.48132,0h2.77512v3.17851h-2.77512Zm11.9086,8.4563H260.6579v.7126H258.891V198.75951h19.80432v2.4375h-.01871v9.52489h-5.65152Z" transform="translate(-128.1881 -143.5437)" style="fill:#003915;fill-rule:evenodd"/><path d="M247.1326,232.5096a.374.374,0,0,1,.3748-.6474l13.92009,8.0399a.374.374,0,1,1-.37479.6474Z" transform="translate(-128.1881 -143.5437)" style="fill:#003915"/><path d="M221.2047,217.6096a.374.374,0,1,1,.6474.37469l-8.0399,13.9201a.374.374,0,0,1-.6474-.37471Z" transform="translate(-128.1881 -143.5437)" style="fill:#003915"/><path d="M163.52589,204.0313a.374.374,0,1,1-.6474-.37469l8.0399-13.92011a.374.374,0,1,1,.6474.37471Z" transform="translate(-128.1881 -143.5437)" style="fill:#003915"/><rect x="93.069" y="92.31619" width="2.6022" height="45.7937" style="fill:#003915"/><rect x="96.05251" y="95.92639" width="2.6022" height="42.1835" style="fill:#003915"/><rect x="93.069" y="69.552" width="2.6022" height="5.1738" style="fill:#003915"/><rect x="132.32069" y="95.1216" width="29.37451" height="2.6022" style="fill:#003915"/><rect x="117.4201" y="65.04379" width="44.2751" height="2.6022" style="fill:#003915"/><rect x="93.069" y="95.1216" width="23.63791" height="2.6022" style="fill:#003915"/><rect x="37.817" y="69.552" width="57.8542" height="2.6022" style="fill:#003915"/><rect x="2.90581" width="152.9342" height="5.00198" style="fill:#003915"/><rect x="5.58281" y="133.7218" width="156.1124" height="4.38809" style="fill:#003915"/><rect x="155.2697" y="95.93629" width="6.42551" height="42.1736" style="fill:#003915"/><polygon points="161.695 76.02 155.27 76.02 155.27 61.061 155.84 61.061 155.84 61.114 161.695 61.114 161.695 76.02" style="fill:#003915;fill-rule:evenodd"/><polygon points="155.84 67.646 149.414 67.646 149.414 2.503 155.84 2.503 155.84 61.114 155.84 67.646" style="fill:#003915;fill-rule:evenodd"/><rect x="155.38051" width="0.4595" height="3.29889" style="fill:#003915"/><rect x="1.1284" y="63.99409" width="38.21471" height="8.16011" style="fill:#003915"/><rect y="63.8365" width="8.16011" height="24.25769" style="fill:#003915"/><rect y="117.1839" width="8.16011" height="20.92599" style="fill:#003915"/><rect x="31.183" width="8.16011" height="30.40579" style="fill:#003915"/><rect x="31.183" y="60.52451" width="8.16011" height="9.99609" style="fill:#003915"/><rect x="3.00191" y="103.0816" width="2.2986" height="0.50169" style="fill:#003915"/><rect x="3.00191" y="101.88339" width="2.2986" height="0.5011" style="fill:#003915"/><rect x="3.00191" y="89.246" width="2.2986" height="0.50139" style="fill:#003915"/><rect x="3.00191" y="88.04781" width="2.2986" height="0.5011" style="fill:#003915"/><rect x="3.00191" y="117.1933" width="2.2986" height="0.50169" style="fill:#003915"/><rect x="3.00191" y="115.99539" width="2.2986" height="0.50111" style="fill:#003915"/><rect y="85.99091" width="0.5014" height="34.09369" style="fill:#003915"/><rect x="2.84711" y="85.99091" width="0.5014" height="34.09369" style="fill:#003915"/><rect x="5.0184" y="85.99091" width="0.5015" height="34.09369" style="fill:#003915"/><rect x="7.6595" y="85.99091" width="0.5014" height="34.09369" style="fill:#003915"/><path d="M162.7197,184.987h1.66991v.6971H162.7197Zm0-13.56911h1.66991v13.0677H162.7197Zm0-1.1982h1.66991v.697H162.7197Zm1.66991-.5018H162.7197v-5.7894h-.50139v21.7556h-2.3457V163.9285h-.50151v22.2567h8.161V163.9285h-.50151v21.7556h-2.1395V167.6322h-.5015Z" transform="translate(-128.1881 -143.5437)" style="fill:#003915;fill-rule:evenodd"/><rect x="4.1351" y="44.78709" width="1.29721" height="0.44701" style="fill:#003915"/><rect x="4.1351" y="43.7193" width="1.29721" height="0.4467" style="fill:#003915"/><rect x="4.1351" y="26.185" width="1.29721" height="0.44701" style="fill:#003915"/><rect x="4.1351" y="25.11719" width="1.29721" height="0.44672" style="fill:#003915"/><rect x="4.1351" y="7.58261" width="1.29721" height="0.44708" style="fill:#003915"/><rect x="4.1351" y="6.5148" width="1.29721" height="0.44681" style="fill:#003915"/><rect x="4.1351" y="63.3895" width="1.29721" height="0.44701" style="fill:#003915"/><rect x="4.1351" y="62.32159" width="1.29721" height="0.44681" style="fill:#003915"/><rect x="2.90581" y="4.44809" width="0.4467" height="60.8213" style="fill:#003915"/><rect x="3.9971" y="4.44809" width="0.4467" height="60.8213" style="fill:#003915"/><rect x="5.07791" y="4.44809" width="0.44679" height="60.8213" style="fill:#003915"/><rect x="4.1351" width="1.29721" height="0.0842" style="fill:#003915"/><rect x="2.90581" width="0.4467" height="0.63211" style="fill:#003915"/><rect x="3.9971" width="0.4467" height="0.63211" style="fill:#003915"/><rect x="5.07791" width="0.44679" height="0.63211" style="fill:#003915"/><path d="M256.6976,276.935h-9.8224a.90526.90526,0,0,1-.9053-.904v-4.6102a4.59568,4.59568,0,0,1,4.58951-4.591h2.4523a4.59574,4.59574,0,0,1,4.59041,4.591v4.6102a.90471.90471,0,0,1-.90451.904m-6.1382-9.8606a4.351,4.351,0,0,0-4.34491,4.34641v4.6102a.66143.66143,0,0,0,.66071.6599h9.8224a.66075.66075,0,0,0,.65991-.6599v-4.6102a4.35141,4.35141,0,0,0-4.34581-4.34641Z" transform="translate(-128.1881 -143.5437)" style="fill:#003915"/><path d="M250.55969,268.1646a3.25871,3.25871,0,0,0-3.25439,3.25621v2.6881a.56785.56785,0,0,0,.5672.5675h3.5753v.24519h-3.5753a.814.814,0,0,1-.81239-.8127v-2.6881a3.50406,3.50406,0,0,1,3.49959-3.50081h2.4523a3.50469,3.50469,0,0,1,3.50079,3.50081v2.6881a.81447.81447,0,0,1-.81358.8127h-3.5753v-.24519h3.5753a.56837.56837,0,0,0,.56841-.5675v-2.6881a3.25942,3.25942,0,0,0-3.25562-3.25621Z" transform="translate(-128.1881 -143.5437)" style="fill:#003915"/><path d="M251.78661,271.7683a.7835.7835,0,1,1,.78369-.78349.78473.78473,0,0,1-.78369.78349m0-1.3224a.53876.53876,0,1,0,.53909.53891A.53972.53972,0,0,0,251.78661,270.44589Z" transform="translate(-128.1881 -143.5437)" style="fill:#003915"/><rect x="123.476" y="126.88319" width="0.2449" height="1.11661" style="fill:#003915"/><rect x="123.04001" y="127.3186" width="1.116" height="0.2455" style="fill:#003915"/><path d="M252.1239,275.7527h.40359a.17366.17366,0,0,0,.1729-.1741v-.3792a.1736.1736,0,0,0-.1729-.1741h-.40359v-.2449h.40359a.41869.41869,0,0,1,.41811.419v.3792a.41863.41863,0,0,1-.41811.4187h-.40559l.002-.0374Zm-1.07719-.7274a.17441.17441,0,0,0-.174.1741v.3792a.17448.17448,0,0,0,.174.1741h.40109v.2072l.0023.0374h-.4034a.41863.41863,0,0,1-.4187-.4187v-.3792a.41869.41869,0,0,1,.4187-.419h.40109v.2449Z" transform="translate(-128.1881 -143.5437)" style="fill:#003915"/><path d="M251.78661,276.4202a.461.461,0,0,1-.46121-.4603v-3.0804a.46046.46046,0,0,1,.92091,0v3.0804a.46045.46045,0,0,1-.4597.4603m0-3.7567a.21671.21671,0,0,0-.21631.216v3.0804a.21555.21555,0,0,0,.43111,0v-3.0804A.21607.21607,0,0,0,251.78661,272.6635Z" transform="translate(-128.1881 -143.5437)" style="fill:#003915"/><path d="M268.17679,262.93581a3.917,3.917,0,0,0-3.91159,3.913v5.6653a.67743.67743,0,0,0,.45612.63921,1.24068,1.24068,0,0,0-.20352.205.946.946,0,0,1-.52161-.84421v-5.6653a4.18086,4.18086,0,1,1,8.36172,0v5.6653a.94559.94559,0,0,1-.521.8436,1.2417,1.2417,0,0,0-.20331-.2047.67621.67621,0,0,0,.45551-.6389v-5.6653a3.91708,3.91708,0,0,0-3.91232-3.913" transform="translate(-128.1881 -143.5437)" style="fill:#003915"/><path d="M270.9805,271.4332h-5.60889a.204.204,0,0,1-.20132-.20149V266.961a3.00661,3.00661,0,1,1,6.01321,0v4.27071a.20468.20468,0,0,1-.203.20149m-5.54141-.2681H270.915V266.961a2.738,2.738,0,0,0-5.47592,0Z" transform="translate(-128.1881 -143.5437)" style="fill:#003915"/><path d="M268.17651,268.7023a1.0081,1.0081,0,1,1,1.00879-1.008,1.01,1.01,0,0,1-1.00879,1.008m0-1.7475a.7394.7394,0,1,0,.73978.7395A.74031.74031,0,0,0,268.17651,266.9548Z" transform="translate(-128.1881 -143.5437)" style="fill:#003915"/><rect x="265.43393" y="269.64423" width="2.2422" height="0.26858" transform="translate(-237.25344 178.59292) rotate(-53.27974)" style="fill:#003915"/><rect x="269.61981" y="268.65678" width="0.26914" height="2.24303" transform="translate(-236.04566 71.85654) rotate(-36.80799)" style="fill:#003915"/><path d="M270.87729,276.935h-5.40048a1.3551,1.3551,0,0,1-1.35251-1.35381V274.1069a1.35352,1.35352,0,0,1,1.35251-1.3524h5.40048a1.3532,1.3532,0,0,1,1.3519,1.3524v1.47429a1.35478,1.35478,0,0,1-1.3519,1.35381m-5.40048-3.91209a1.08546,1.08546,0,0,0-1.08432,1.084v1.47429a1.0859,1.0859,0,0,0,1.08432,1.08511h5.40048a1.086,1.086,0,0,0,1.08371-1.08511V274.1069a1.0855,1.0855,0,0,0-1.08371-1.084Z" transform="translate(-128.1881 -143.5437)" style="fill:#003915"/><path d="M268.17651,275.5327a.6881.6881,0,1,1,.68817-.68739.6881.6881,0,0,1-.68817.68739m0-1.10719a.41924.41924,0,1,0,.41949.4198A.41944.41944,0,0,0,268.17651,274.42551Z" transform="translate(-128.1881 -143.5437)" style="fill:#003915"/><path d="M282.8996,248.6781h0v-7.83951H271.5517v7.83951Zm.33081-8.17081v8.5025h-12.0098v-8.5025Z" transform="translate(-128.1881 -143.5437)" style="fill:#003915"/><path d="M280.50519,248.9026a.60439.60439,0,0,1-.5936.61259H274.5394a.60413.60413,0,0,1-.5939-.61259h.33081a.26968.26968,0,0,0,.26309.2809h5.37219a.26946.26946,0,0,0,.26282-.2809Z" transform="translate(-128.1881 -143.5437)" style="fill:#003915"/><path d="M278.24741,246.276h0v-2.7076l-1.59732-.62161a2.47374,2.47374,0,0,0,.09183,1.67471,4.15221,4.15221,0,0,1,.24118,1.24069,2.44791,2.44791,0,0,1-.1882.9366Zm.33078-2.9341v3.1669l-2.48.892.22479-.39061a2.26646,2.26646,0,0,0,.32932-1.148,3.89327,3.89327,0,0,0-.22672-1.1438,3.89667,3.89667,0,0,1-.22821-1.1441,2.01592,2.01592,0,0,1,.218-.9124l.06738-.1358Z" transform="translate(-128.1881 -143.5437)" style="fill:#003915"/><path d="M241.761,274.7838V244.6989a2.161,2.161,0,0,0-2.1657-2.1515H229.1839a2.16087,2.16087,0,0,0-2.16589,2.1515v30.0849a2.16081,2.16081,0,0,0,2.16589,2.1512h10.41141a2.161,2.161,0,0,0,2.1657-2.1512m-14.51311-30.0849a1.93108,1.93108,0,0,1,1.936-1.92191h10.41141a1.931,1.931,0,0,1,1.9355,1.92191v30.0849a1.93142,1.93142,0,0,1-1.9355,1.9222H229.1839a1.93152,1.93152,0,0,1-1.936-1.9222Z" transform="translate(-128.1881 -143.5437)" style="fill:#003915"/><path d="M228.5099,247.6846a2.577,2.577,0,0,1,2.582-2.5654h6.5948a2.5766,2.5766,0,0,1,2.58179,2.5654v24.1132a2.577,2.577,0,0,1-2.58179,2.56589h-2.0619a.39556.39556,0,0,1,.142.22821h1.91991a2.80641,2.80641,0,0,0,2.81259-2.7941V247.6846a2.80666,2.80666,0,0,0-2.81259-2.7944h-6.5948a2.80658,2.80658,0,0,0-2.81221,2.7944v24.1132a2.80633,2.80633,0,0,0,2.81221,2.7941h1.9202a.39536.39536,0,0,1,.14149-.22821H231.0919a2.57744,2.57744,0,0,1-2.582-2.56589Z" transform="translate(-128.1881 -143.5437)" style="fill:#003915"/><path d="M229.8231,249.232a1.26665,1.26665,0,0,1,1.2688-1.26109h6.5948a1.26635,1.26635,0,0,1,1.2683,1.26109v22.56581a1.26628,1.26628,0,0,1-1.2683,1.2614h-2.8448v.22879h2.8448a1.49626,1.49626,0,0,0,1.499-1.49019V249.232a1.49563,1.49563,0,0,0-1.499-1.48929h-6.5948a1.49522,1.49522,0,0,0-1.4989,1.48929v22.56581a1.49586,1.49586,0,0,0,1.4989,1.49019h2.8452v-.22879h-2.8452a1.26659,1.26659,0,0,1-1.2688-1.2614Z" transform="translate(-128.1881 -143.5437)" style="fill:#003915"/><path d="M235.12219,269.89259a.73331.73331,0,1,0-.7336.7299.73144.73144,0,0,0,.7336-.7299m-1.23639,0a.50326.50326,0,1,1,.50279.50031A.5018.5018,0,0,1,233.8858,269.89259Z" transform="translate(-128.1881 -143.5437)" style="fill:#003915"/><rect x="105.6781" y="126.2347" width="1.0457" height="0.22931" style="fill:#003915"/><rect x="106.08521" y="125.83051" width="0.2307" height="1.03769" style="fill:#003915"/><path d="M234.8419,274.39259h.5374a.27993.27993,0,0,1,.2804.2787v.50511a.28041.28041,0,0,1-.2804.27919h-.5374v.22881h.5374a.51035.51035,0,0,0,.51109-.508v-.50511a.50965.50965,0,0,0-.51109-.5074h-.5374Zm-1.72211.2787a.27986.27986,0,0,1,.28011-.2787h.5372v-.2287h-.5372a.5092.5092,0,0,0-.5108.5074v.50511a.5099.5099,0,0,0,.5108.508h.5372v-.22881h-.5372a.28035.28035,0,0,1-.28011-.27919Z" transform="translate(-128.1881 -143.5437)" style="fill:#003915"/><path d="M234.95731,275.6824v-3.2012a.56766.56766,0,0,0-1.1353,0v3.2012a.56766.56766,0,0,0,1.1353,0m-.90511-3.2012a.33715.33715,0,0,1,.6743,0v3.2012a.33716.33716,0,0,1-.6743,0Z" transform="translate(-128.1881 -143.5437)" style="fill:#003915"/><path d="M277.14389,194.03439V182.2652H265.375v11.7692Zm-.24948-11.5197V193.7852H265.6239V182.51469Z" transform="translate(-128.1881 -143.5437)" style="fill:#003915"/><path d="M266.47311,188.1499a3.91956,3.91956,0,0,1,7.71417-.9816.30012.30012,0,0,1,.1976-.07431h.04053a4.16857,4.16857,0,1,0,.00027,2.1116h-.0408a.29846.29846,0,0,1-.1973-.074,3.91973,3.91973,0,0,1-7.71448-.98169" transform="translate(-128.1881 -143.5437)" style="fill:#003915"/><path d="M273.87381,188.1499a3.48151,3.48151,0,1,0-3.48181,3.48129,3.48572,3.48572,0,0,0,3.48181-3.48129m-6.7135,0a3.2319,3.2319,0,1,1,3.23169,3.2318A3.23537,3.23537,0,0,1,267.16031,188.1499Z" transform="translate(-128.1881 -143.5437)" style="fill:#003915"/><path d="M271.29459,188.1499a.9023.9023,0,1,0-.90259.9026.90332.90332,0,0,0,.90259-.9026m-1.55569,0a.653.653,0,1,1,.65311.65309A.65418.65418,0,0,1,269.73889,188.1499Z" transform="translate(-128.1881 -143.5437)" style="fill:#003915"/><rect x="141.54741" y="44.48149" width="1.3139" height="0.24951" style="fill:#003915"/><rect x="142.07951" y="43.94949" width="0.24969" height="1.31351" style="fill:#003915"/><path d="M275.1987,188.9037v-1.50751a.427.427,0,0,0-.42661-.42659h-.38721a.42686.42686,0,0,0-.42657.42659v1.50751a.42693.42693,0,0,0,.42657.42661h.38721a.42707.42707,0,0,0,.42661-.42661m-.991-1.50751a.17765.17765,0,0,1,.17719-.1774h.38721a.17746.17746,0,0,1,.17722.1774v1.50751a.1772.1772,0,0,1-.17722.17709h-.38721a.17739.17739,0,0,1-.17719-.17709Z" transform="translate(-128.1881 -143.5437)" style="fill:#003915"/><path d="M275.074,187.93h.08649a.21965.21965,0,1,1,0,.4393H275.074v.2498h.08649a.46945.46945,0,0,0,0-.93889H275.074Zm-2.59.21991a.2204.2204,0,0,1,.22049-.21991H274.083v-.24979H272.7045a.46944.46944,0,1,0,0,.93889H274.083v-.2498H272.7045A.2199.2199,0,0,1,272.484,188.1499Z" transform="translate(-128.1881 -143.5437)" style="fill:#003915"/><path d="M276.6626,165.3696v7.1566a1.49616,1.49616,0,0,1-1.49481,1.4942h-8.29868a1.496,1.496,0,0,1-1.49411-1.4942v-7.1566a1.49561,1.49561,0,0,1,1.49411-1.49411h8.29868a1.49576,1.49576,0,0,1,1.49481,1.49411m-11.0546,7.1566a1.26264,1.26264,0,0,0,1.26111,1.2612h8.29868a1.26277,1.26277,0,0,0,1.26172-1.2612v-7.1566a1.26307,1.26307,0,0,0-1.26172-1.26169h-8.29868a1.26294,1.26294,0,0,0-1.26111,1.26169Z" transform="translate(-128.1881 -143.5437)" style="fill:#003915"/><path d="M275.8436,165.3696v7.1566a.67616.67616,0,0,1-.67581.6758H268.1572a.67633.67633,0,0,1-.67578-.6758v-7.1566a.67653.67653,0,0,1,.67578-.67639h7.01059a.67636.67636,0,0,1,.67581.67639m-8.12921,7.1566a.44333.44333,0,0,0,.44281.4431h7.01059a.44351.44351,0,0,0,.44312-.4431v-7.1566a.44388.44388,0,0,0-.44312-.44391H268.1572a.4437.4437,0,0,0-.44281.44391Z" transform="translate(-128.1881 -143.5437)" style="fill:#003915"/><path d="M267.06271,171.8261a.47421.47421,0,1,1-.47421-.47429.47511.47511,0,0,1,.47421.47429m-.71542,0a.24121.24121,0,1,0,.24121-.2415A.24193.24193,0,0,0,266.34729,171.8261Z" transform="translate(-128.1881 -143.5437)" style="fill:#003915"/><path d="M267.06271,170.2253a.47421.47421,0,1,1-.47421-.47479.47507.47507,0,0,1,.47421.47479m-.71542,0a.24121.24121,0,1,0,.24121-.24179A.24162.24162,0,0,0,266.34729,170.2253Z" transform="translate(-128.1881 -143.5437)" style="fill:#003915"/><rect x="145.28041" y="26.00949" width="0.2327" height="2.7196" style="fill:#003915"/><rect x="144.0377" y="27.25279" width="2.71951" height="0.23271" style="fill:#003915"/><path d="M274.4819,170.913a.8969.8969,0,1,1-.89691-.89659.898.898,0,0,1,.89691.89659m-1.5611,0a.66429.66429,0,1,0,.66418-.66379A.66565.66565,0,0,0,272.92081,170.913Z" transform="translate(-128.1881 -143.5437)" style="fill:#003915"/><rect x="141.4355" y="26.00949" width="0.23239" height="2.7196" style="fill:#003915"/><rect x="140.19191" y="27.25279" width="2.7204" height="0.23271" style="fill:#003915"/><path d="M270.63751,170.913a.89716.89716,0,1,1-.8974-.89659.89862.89862,0,0,1,.8974.89659m-1.56192,0a.66475.66475,0,1,0,.66452-.66379A.66554.66554,0,0,0,269.07559,170.913Z" transform="translate(-128.1881 -143.5437)" style="fill:#003915"/><rect x="145.28041" y="22.07901" width="0.2327" height="2.7193" style="fill:#003915"/><rect x="144.0377" y="23.32169" width="2.71951" height="0.233" style="fill:#003915"/><path d="M274.4819,166.9819a.8969.8969,0,1,1-.89691-.89679.89793.89793,0,0,1,.89691.89679m-1.5611,0a.66429.66429,0,1,0,.66418-.66382A.666.666,0,0,0,272.92081,166.9819Z" transform="translate(-128.1881 -143.5437)" style="fill:#003915"/><rect x="141.4355" y="22.07901" width="0.23239" height="2.7193" style="fill:#003915"/><rect x="140.19191" y="23.32169" width="2.7204" height="0.233" style="fill:#003915"/><path d="M270.63751,166.9819a.89716.89716,0,1,1-.8974-.89679.89857.89857,0,0,1,.8974.89679m-1.56192,0a.66475.66475,0,1,0,.66452-.66382A.66588.66588,0,0,0,269.07559,166.9819Z" transform="translate(-128.1881 -143.5437)" style="fill:#003915"/><path d="M267.06271,167.51169a.47421.47421,0,1,1-.47421-.47449.47486.47486,0,0,1,.47421.47449m-.71542,0a.24121.24121,0,1,0,.24121-.24179A.24162.24162,0,0,0,266.34729,167.51169Z" transform="translate(-128.1881 -143.5437)" style="fill:#003915"/><path d="M267.06271,165.91019a.47421.47421,0,1,1-.47421-.474.47467.47467,0,0,1,.47421.474m-.71542,0a.24121.24121,0,1,0,.24121-.24158A.24168.24168,0,0,0,266.34729,165.91019Z" transform="translate(-128.1881 -143.5437)" style="fill:#003915"/><path d="M281.876,274.92751a.80929.80929,0,1,0,.23468.57089.81022.81022,0,0,0-.23468-.57089m-.5726-1.0363a1.60687,1.60687,0,1,1-1.13641.47049A1.60289,1.60289,0,0,1,281.30341,273.8912Z" transform="translate(-128.1881 -143.5437)" style="fill:#003915"/><rect x="117.4201" y="65.04379" width="7.8284" height="8.78931" style="fill:#003915"/><path d="M276.2229,268.5141v-2.9803h3.07278v2.9803Zm0,4.2894v-2.9803h6.9574v2.9803Zm3.88461-4.2894v-2.9803h3.07278v2.9803Zm-4.89691-3.9991H284.775v8.93739H275.2106Z" transform="translate(-128.1881 -143.5437)" style="fill:#003915;fill-rule:evenodd"/><path d="M151.20171,191.38989c-.7319,0-1.2359-.61789-1.2359-1.7399s.504-1.7399,1.2359-1.7399,1.2359.618,1.2359,1.7399-.504,1.7399-1.2359,1.7399m0,.396c.972,0,1.67979-.7979,1.67979-2.13591s-.70779-2.13589-1.67979-2.13589-1.6739.798-1.6739,2.13589S150.22971,191.7859,151.20171,191.7859Zm-2.0701-1.52391h-.8399v-.972h-.41991v.972h-1.8241l2.1481-2.7119h-.4801l-2.2258,2.78391v.3118h2.3698v1.1041h.432v-1.1041h.8399Zm-4.4337.864a.31414.31414,0,0,0-.3181.324.30325.30325,0,0,0,.216.30591l-.2041.86989h.288l.252-.828a.97563.97563,0,0,0,.0842-.34781A.314.314,0,0,0,144.69791,191.126Zm-2.28621-1.77589,1.188-1.49409v-.30591h-2.7v.3838h2.1481l-1.16391,1.45821v.318h.29991c.77989,0,1.1339.33,1.1339.834,0,.5218-.3838.84579-1.08.84579a1.84166,1.84166,0,0,1-1.302-.48579l-.21.3418a2.18451,2.18451,0,0,0,1.512.54c1.014,0,1.5239-.54,1.5239-1.24181C143.7616,189.872,143.31171,189.398,142.4117,189.3501Z" transform="translate(-128.1881 -143.5437)" style="fill:#6e6e6e;fill-rule:evenodd"/><path d="M252.2001,183.4711c-.7319,0-1.2359-.618-1.2359-1.7399s.504-1.7399,1.2359-1.7399,1.2359.61789,1.2359,1.7399-.504,1.7399-1.2359,1.7399m0,.396c.972,0,1.67979-.798,1.67979-2.13589s-.70779-2.13589-1.67979-2.13589-1.6738.7979-1.6738,2.13589S251.2281,183.8671,252.2001,183.8671Zm-4.5-.42009,1.4281-1.4037a1.7292,1.7292,0,0,0,.69-1.31421c0-.7018-.54-1.13379-1.39211-1.13379a1.88724,1.88724,0,0,0-1.4879.59979l.3058.26421a1.42619,1.42619,0,0,1,1.1461-.468c.642,0,.98389.2999.98389.786,0,.2877-.08989.56981-.5638,1.0378l-1.7462,1.7101v.30591h2.94611V183.447Zm-1.55991-.23981a.314.314,0,0,0-.318.324.303.303,0,0,0,.216.3058l-.20409.87h.288l.252-.828a.97605.97605,0,0,0,.0842-.34779A.314.314,0,0,0,246.1402,183.2072Zm-2.622.2939c-.74411,0-1.1821-.324-1.1821-.8461,0-.5159.438-.8399,1.1821-.8399.74379,0,1.188.324,1.188.8399C244.70621,183.17709,244.262,183.5011,243.5182,183.5011Zm-1.0381-2.78391c0-.468.402-.756,1.0381-.756.62979,0,1.044.288,1.044.762,0,.4561-.39009.75-1.044.75S242.4801,181.17931,242.4801,180.71719Zm1.8479.91191a.9511.9511,0,0,0,.6721-.9238c0-.684-.5941-1.11-1.4819-1.11-.88811,0-1.47011.426-1.47011,1.11a.9478.9478,0,0,0,.6599.9238,1.04828,1.04828,0,0,0-.8098,1.03209c0,.7438.612,1.2059,1.62,1.2059,1.002,0,1.6319-.4621,1.6319-1.2059A1.05777,1.05777,0,0,0,244.328,181.6291Zm-4.82991-1.9978v.3838h.99011v3.816h.432v-4.1998Z" transform="translate(-128.1881 -143.5437)" style="fill:#6e6e6e;fill-rule:evenodd"/><path d="M271.72089,230.08479c-.73187,0-1.2359-.61789-1.2359-1.7399s.504-1.7399,1.2359-1.7399,1.2359.618,1.2359,1.7399-.504,1.7399-1.2359,1.7399m0,.396c.972,0,1.67981-.79791,1.67981-2.13591s-.70779-2.13589-1.67981-2.13589-1.6738.798-1.6738,2.13589S270.7489,230.4808,271.72089,230.4808Zm-3.96588-2.514h-.54l.144-1.338h1.91989v-.3838h-2.29779l-.216,2.10591h.894c1.0679,0,1.40381.33589,1.40381.8759,0,.50989-.3779.858-1.09189.858a1.82178,1.82178,0,0,1-1.2901-.48579l-.20981.3418a2.16818,2.16818,0,0,0,1.5058.54c1.02621,0,1.5239-.5578,1.5239-1.27191C269.50079,228.4648,269.0209,227.9668,267.755,227.9668Zm-2.04581,1.8541a.31414.31414,0,0,0-.31808.324.30324.30324,0,0,0,.216.30591l-.204.86989h.288l.252-.828a.97724.97724,0,0,0,.08408-.34781A.314.314,0,0,0,265.7092,229.82089Zm-3.24.23981,1.4281-1.4037a1.729,1.729,0,0,0,.68988-1.3141c0-.70189-.54-1.1339-1.39209-1.1339a1.88737,1.88737,0,0,0-1.48788.59979l.30588.26421a1.42636,1.42636,0,0,1,1.146-.468c.64212,0,.984.2999.984.7861,0,.2877-.0899.5697-.5639,1.0377L261.8331,230.139v.3058h2.946v-.38409Z" transform="translate(-128.1881 -143.5437)" style="fill:#6e6e6e;fill-rule:evenodd"/><path d="M262.36029,260.45979c-.7319,0-1.2359-.618-1.2359-1.7399s.504-1.7399,1.2359-1.7399,1.236.6179,1.236,1.7399-.504,1.7399-1.236,1.7399m0,.396c.972,0,1.6799-.798,1.6799-2.13591s-.70789-2.13589-1.6799-2.13589-1.6738.7979-1.6738,2.13589S261.38831,260.8558,262.36029,260.8558Zm-3.90579-.366c-.74411,0-1.1821-.324-1.1821-.8461,0-.5159.438-.83989,1.1821-.83989.7438,0,1.188.324,1.188.83989C259.64249,260.1658,259.1983,260.48979,258.4545,260.48979Zm-1.03809-2.78389c0-.468.402-.756,1.03809-.756.62979,0,1.044.288,1.044.762,0,.4561-.39011.75-1.044.75S257.41641,258.168,257.41641,257.7059Zm1.8479.9119a.95108.95108,0,0,0,.67209-.9238c0-.684-.59412-1.11-1.4819-1.11-.88809,0-1.47009.426-1.47009,1.11a.94776.94776,0,0,0,.65988.9238,1.04829,1.04829,0,0,0-.80978,1.0321c0,.74379.612,1.2059,1.62,1.2059,1.002,0,1.6319-.46211,1.6319-1.2059A1.0578,1.0578,0,0,0,259.26431,258.6178Zm-3.40781,1.57809a.314.314,0,0,0-.318.324.303.303,0,0,0,.216.3058l-.2041.87h.288l.252-.828a.97572.97572,0,0,0,.0842-.34781A.314.314,0,0,0,255.85651,260.19589Zm-.8461-.864h-.8399v-.972h-.4198v.972h-1.8241l2.1481-2.7119h-.48021l-2.2258,2.78391v.3118h2.3698v1.1041h.432v-1.1041h.8399Z" transform="translate(-128.1881 -143.5437)" style="fill:#6e6e6e;fill-rule:evenodd"/><path d="M183.07359,263.18069c-.73189,0-1.23589-.61789-1.23589-1.7399s.504-1.7399,1.23589-1.7399,1.2359.618,1.2359,1.7399-.504,1.7399-1.2359,1.7399m0,.396c.972,0,1.67981-.79791,1.67981-2.13591s-.70781-2.13589-1.67981-2.13589-1.67389.798-1.67389,2.13589S182.10159,263.57671,183.07359,263.57671Zm-4.098-4.23581v.3838h.9901v3.816h.432v-4.1998Zm-.6118,3.5759a.31406.31406,0,0,0-.318.324.30322.30322,0,0,0,.216.30589l-.2041.8699h.288l.252-.828a.97549.97549,0,0,0,.0842-.34779A.314.314,0,0,0,178.3638,262.91679Zm-2.2861-1.77589,1.188-1.49409v-.30591h-2.7v.3838h2.1481l-1.16391,1.45819v.318h.2999c.7798,0,1.13391.33,1.13391.834,0,.5218-.38391.84579-1.08.84579a1.84154,1.84154,0,0,1-1.302-.48579l-.21.3418a2.18451,2.18451,0,0,0,1.512.54c1.0139,0,1.5239-.54,1.5239-1.24181C177.4276,261.6628,176.97771,261.1888,176.0777,261.1409Zm-3.852-1.8v.3838h.99011v3.816h.432v-4.1998Z" transform="translate(-128.1881 -143.5437)" style="fill:#6e6e6e;fill-rule:evenodd"/><path d="M285.82779,225.6344a3.90785,3.90785,0,1,0,3.9079,3.90759,3.90808,3.90808,0,0,0-3.9079-3.90759" transform="translate(-128.1881 -143.5437)" style="fill:#558e42;fill-rule:evenodd"/><polygon points="155.236 85.998 156.551 85.62 157.865 85.242 157.865 85.998 157.865 86.755 156.551 86.377 155.236 85.998" style="fill:#fdfdfd;fill-rule:evenodd"/><rect x="157.7625" y="85.8194" width="2.28131" height="0.38409" style="fill:#fdfdfd"/><rect x="160.63481" y="61.1144" width="1.06039" height="10.1795" style="fill:#003915"/></svg>