<?xml version="1.0" encoding="utf-8"?>
<!-- Generator: Adobe Illustrator 23.0.2, SVG Export Plug-In . SVG Version: 6.00 Build 0)  -->
<svg version="1.1" id="Слой_1" xmlns="http://www.w3.org/2000/svg" xmlns:xlink="http://www.w3.org/1999/xlink" x="0px" y="0px"
	 viewBox="0 0 800 496.1" enable-background="new 0 0 800 496.1" xml:space="preserve">
<rect x="18.1" y="152.1" fill="#F3F3F3" stroke="#838383" width="33.4" height="178"/>
<g>
	<g>
		
			<rect x="381.6" y="68.2" fill-rule="evenodd" clip-rule="evenodd" fill="#F1F2F2" stroke="#848484" stroke-miterlimit="10" width="135.6" height="105.3"/>
		
			<rect x="387" y="70.6" fill-rule="evenodd" clip-rule="evenodd" fill="#F1F2F2" stroke="#848484" stroke-miterlimit="10" width="126.4" height="100.4"/>
		
			<rect x="390.3" y="129" fill-rule="evenodd" clip-rule="evenodd" fill="#F1F2F2" stroke="#848484" stroke-miterlimit="10" width="28.5" height="39"/>
		
			<rect x="390.3" y="73.8" fill-rule="evenodd" clip-rule="evenodd" fill="#F1F2F2" stroke="#848484" stroke-miterlimit="10" width="28.5" height="39"/>
		<polygon fill-rule="evenodd" clip-rule="evenodd" fill="#F1F2F2" stroke="#848484" stroke-miterlimit="10" points="433.4,171 
			415.9,141 415.9,100.5 415.9,141 415.9,100.5 433.4,70.6 513.4,70.6 513.4,70.7 513.4,171 		"/>
		<polyline fill-rule="evenodd" clip-rule="evenodd" fill="#F1F2F2" stroke="#848484" stroke-miterlimit="10" points="433.4,171 
			446.1,150 415.9,141 		"/>
		
			<line fill-rule="evenodd" clip-rule="evenodd" fill="#F1F2F2" stroke="#848484" stroke-miterlimit="10" x1="415.9" y1="141" x2="433.4" y2="171"/>
		<polyline fill-rule="evenodd" clip-rule="evenodd" fill="#F1F2F2" stroke="#848484" stroke-miterlimit="10" points="433.4,70.6 
			446.1,91.6 415.9,100.5 		"/>
		
			<line fill-rule="evenodd" clip-rule="evenodd" fill="#F1F2F2" stroke="#848484" stroke-miterlimit="10" x1="415.9" y1="100.5" x2="433.4" y2="70.6"/>
	</g>
	<g>
		
			<rect x="376.6" y="34.3" transform="matrix(6.123234e-17 -1 1 6.123234e-17 347.3603 442.7887)" fill="#F1F2F2" stroke="#848484" stroke-miterlimit="10" width="37" height="26.9"/>
		
			<rect x="401.6" y="47" transform="matrix(6.123234e-17 -1 1 6.123234e-17 361.5509 457.2687)" fill="#F1F2F2" stroke="#848484" stroke-miterlimit="10" width="15.5" height="1.8"/>
	</g>
	<g>
		
			<rect x="376.6" y="180.6" transform="matrix(6.123234e-17 -1 1 6.123234e-17 201.0242 589.1247)" fill="#F1F2F2" stroke="#848484" stroke-miterlimit="10" width="37" height="26.9"/>
		
			<rect x="401.6" y="193.3" transform="matrix(2.345403e-13 -1 1 2.345403e-13 215.2149 603.6048)" fill="#F1F2F2" stroke="#848484" stroke-miterlimit="10" width="15.5" height="1.8"/>
	</g>
</g>
<g>
	
		<rect x="381.8" y="218.9" transform="matrix(-1 4.488797e-11 -4.488797e-11 -1 876.6558 476.8167)" fill-rule="evenodd" clip-rule="evenodd" fill="#F1F2F2" stroke="#848484" stroke-miterlimit="10" width="113" height="39"/>
	<line fill="#F1F2F2" stroke="#848484" stroke-miterlimit="10" x1="490.7" y1="257.9" x2="490.7" y2="218.8"/>
	<line fill="#F1F2F2" stroke="#848484" stroke-miterlimit="10" x1="386" y1="257.9" x2="386" y2="218.9"/>
	<line fill="#F1F2F2" stroke="#848484" stroke-miterlimit="10" x1="490.7" y1="220.7" x2="386" y2="220.7"/>
	<line fill="#F1F2F2" stroke="#848484" stroke-miterlimit="10" x1="389.7" y1="238.7" x2="487.1" y2="238.7"/>
	
		<rect x="480.8" y="226.6" transform="matrix(-0.9868 -0.162 0.162 -0.9868 919.0608 551.8943)" fill="#F1F2F2" stroke="#848484" stroke-miterlimit="10" width="2.4" height="23.8"/>
	
		<rect x="472.1" y="226.6" transform="matrix(-0.9961 -8.815246e-02 8.815246e-02 -0.9961 923.6819 517.7629)" fill="#F1F2F2" stroke="#848484" stroke-miterlimit="10" width="2.4" height="23.8"/>
	
		<rect x="463.2" y="226.8" transform="matrix(-0.9734 -0.229 0.229 -0.9734 861.8237 577.3853)" fill="#F1F2F2" stroke="#848484" stroke-miterlimit="10" width="2.4" height="23.8"/>
	
		<rect x="453.3" y="226.5" transform="matrix(-0.9884 -0.152 0.152 -0.9884 867.5146 543.1813)" fill="#F1F2F2" stroke="#848484" stroke-miterlimit="10" width="2.4" height="23.8"/>
	
		<rect x="444.7" y="226.7" transform="matrix(-0.999 -4.511170e-02 4.511170e-02 -0.999 880.5859 496.9844)" fill="#F1F2F2" stroke="#848484" stroke-miterlimit="10" width="2.4" height="23.8"/>
	
		<rect x="435.9" y="226.7" transform="matrix(-0.9884 -0.152 0.152 -0.9884 832.9882 540.8065)" fill="#F1F2F2" stroke="#848484" stroke-miterlimit="10" width="2.4" height="23.8"/>
	
		<rect x="427.1" y="226.8" transform="matrix(-0.999 -4.511170e-02 4.511170e-02 -0.999 845.4073 496.4557)" fill="#F1F2F2" stroke="#848484" stroke-miterlimit="10" width="2.4" height="23.8"/>
	
		<rect x="418.4" y="226.8" transform="matrix(-0.9787 -0.2052 0.2052 -0.9787 781.3296 558.3899)" fill="#F1F2F2" stroke="#848484" stroke-miterlimit="10" width="2.4" height="23.8"/>
	
		<rect x="409.7" y="226.8" transform="matrix(-0.9884 -0.152 0.152 -0.9884 780.7781 537.0298)" fill="#F1F2F2" stroke="#848484" stroke-miterlimit="10" width="2.4" height="23.8"/>
	
		<rect x="401" y="226.8" transform="matrix(-0.9964 -8.473843e-02 8.473843e-02 -0.9964 782.785 510.6029)" fill="#F1F2F2" stroke="#848484" stroke-miterlimit="10" width="2.4" height="23.8"/>
	
		<rect x="392.3" y="226.5" transform="matrix(-0.9713 -0.2379 0.2379 -0.9713 719.0528 563.582)" fill="#F1F2F2" stroke="#848484" stroke-miterlimit="10" width="2.4" height="23.8"/>
</g>
<g>
	
		<rect x="658.5" y="400" transform="matrix(-1 4.488797e-11 -4.488797e-11 -1 1429.968 838.9017)" fill-rule="evenodd" clip-rule="evenodd" fill="#F1F2F2" stroke="#848484" stroke-miterlimit="10" width="113" height="39"/>
	<line fill="#F1F2F2" stroke="#848484" stroke-miterlimit="10" x1="767.4" y1="438.9" x2="767.4" y2="399.9"/>
	<line fill="#F1F2F2" stroke="#848484" stroke-miterlimit="10" x1="662.7" y1="438.9" x2="662.7" y2="400"/>
	<line fill="#F1F2F2" stroke="#848484" stroke-miterlimit="10" x1="767.4" y1="401.8" x2="662.7" y2="401.8"/>
	<line fill="#F1F2F2" stroke="#848484" stroke-miterlimit="10" x1="666.4" y1="419.7" x2="763.7" y2="419.7"/>
	
		<rect x="757.5" y="407.6" transform="matrix(-0.9868 -0.162 0.162 -0.9868 1439.3972 956.3979)" fill="#F1F2F2" stroke="#848484" stroke-miterlimit="10" width="2.4" height="23.8"/>
	
		<rect x="748.7" y="407.6" transform="matrix(-0.9961 -8.815246e-02 8.815246e-02 -0.9961 1459.9576 903.5311)" fill="#F1F2F2" stroke="#848484" stroke-miterlimit="10" width="2.4" height="23.8"/>
	
		<rect x="739.8" y="407.8" transform="matrix(-0.9734 -0.229 0.229 -0.9734 1366.3251 998.014)" fill="#F1F2F2" stroke="#848484" stroke-miterlimit="10" width="2.4" height="23.8"/>
	
		<rect x="730" y="407.6" transform="matrix(-0.9884 -0.152 0.152 -0.9884 1390.0845 945.2249)" fill="#F1F2F2" stroke="#848484" stroke-miterlimit="10" width="2.4" height="23.8"/>
	
		<rect x="721.3" y="407.7" transform="matrix(-0.999 -4.511170e-02 4.511170e-02 -0.999 1425.4492 871.3656)" fill="#F1F2F2" stroke="#848484" stroke-miterlimit="10" width="2.4" height="23.8"/>
	
		<rect x="712.6" y="407.7" transform="matrix(-0.9884 -0.152 0.152 -0.9884 1355.5581 942.85)" fill="#F1F2F2" stroke="#848484" stroke-miterlimit="10" width="2.4" height="23.8"/>
	
		<rect x="703.7" y="407.8" transform="matrix(-0.999 -4.511170e-02 4.511170e-02 -0.999 1390.2708 870.8369)" fill="#F1F2F2" stroke="#848484" stroke-miterlimit="10" width="2.4" height="23.8"/>
	
		<rect x="695" y="407.8" transform="matrix(-0.9787 -0.2052 0.2052 -0.9787 1291.6128 973.384)" fill="#F1F2F2" stroke="#848484" stroke-miterlimit="10" width="2.4" height="23.8"/>
	
		<rect x="686.4" y="407.8" transform="matrix(-0.9884 -0.152 0.152 -0.9884 1303.348 939.0733)" fill="#F1F2F2" stroke="#848484" stroke-miterlimit="10" width="2.4" height="23.8"/>
	
		<rect x="677.7" y="407.8" transform="matrix(-0.9964 -8.473843e-02 8.473843e-02 -0.9964 1319.7609 895.4802)" fill="#F1F2F2" stroke="#848484" stroke-miterlimit="10" width="2.4" height="23.8"/>
	
		<rect x="669" y="407.6" transform="matrix(-0.9713 -0.2379 0.2379 -0.9713 1221.3469 986.2906)" fill="#F1F2F2" stroke="#848484" stroke-miterlimit="10" width="2.4" height="23.8"/>
</g>
<g>
	
		<rect x="23.6" y="17" transform="matrix(-1 -1.224647e-16 1.224647e-16 -1 380.247 42.701)" fill="#F3F3F3" stroke="#000000" stroke-miterlimit="10" width="333.1" height="8.7"/>
	
		<rect x="23.6" y="14.1" transform="matrix(-1 -1.224647e-16 1.224647e-16 -1 380.247 31.1105)" fill="#F3F3F3" stroke="#000000" stroke-miterlimit="10" width="333.1" height="2.9"/>
	
		<rect x="23.6" y="11.3" transform="matrix(-1 -1.224647e-16 1.224647e-16 -1 380.247 25.3868)" fill="#F3F3F3" stroke="#000000" stroke-miterlimit="10" width="333.1" height="2.9"/>
	
		<rect x="23.6" y="5.2" transform="matrix(-1 -1.224647e-16 1.224647e-16 -1 380.247 16.4197)" fill="#F3F3F3" stroke="#000000" stroke-miterlimit="10" width="333.1" height="6.1"/>
	
		<rect x="23.6" y="11.3" transform="matrix(-1 -1.224647e-16 1.224647e-16 -1 50.3207 28.2487)" fill="#F3F3F3" stroke="#000000" stroke-miterlimit="10" width="3.1" height="5.7"/>
	
		<rect x="353.5" y="11.3" transform="matrix(-1 -1.224647e-16 1.224647e-16 -1 710.1799 28.2487)" fill="#F3F3F3" stroke="#000000" stroke-miterlimit="10" width="3.1" height="5.7"/>
</g>
<g>
	<rect x="87.1" y="104.4" fill="#F3F3F3" stroke="#000000" stroke-miterlimit="10" width="88.9" height="8.9"/>
	<rect x="87.1" y="100.4" fill="#F3F3F3" stroke="#000000" stroke-miterlimit="10" width="88.9" height="3.9"/>
	<rect x="90.4" y="92.5" fill="#F3F3F3" stroke="#000000" stroke-miterlimit="10" width="82.1" height="8"/>
	<rect x="87.1" y="100.4" fill="#F3F3F3" stroke="#000000" stroke-miterlimit="10" width="4.3" height="3.9"/>
	<rect x="171.8" y="100.4" fill="#F3F3F3" stroke="#000000" stroke-miterlimit="10" width="4.3" height="3.9"/>
	<rect x="129.7" y="100.4" fill="#F3F3F3" stroke="#000000" stroke-miterlimit="10" width="4.3" height="3.9"/>
</g>
<g>
	<rect x="429.2" y="17.8" fill="#F3F3F3" stroke="#000000" stroke-miterlimit="10" width="88" height="9.7"/>
	<rect x="429.2" y="13.5" fill="#F3F3F3" stroke="#000000" stroke-miterlimit="10" width="88" height="4.3"/>
	<rect x="432.4" y="4.8" fill="#F3F3F3" stroke="#000000" stroke-miterlimit="10" width="81.2" height="8.7"/>
	<rect x="429.2" y="13.5" fill="#F3F3F3" stroke="#000000" stroke-miterlimit="10" width="4.2" height="4.3"/>
	<rect x="512.9" y="13.5" fill="#F3F3F3" stroke="#000000" stroke-miterlimit="10" width="4.2" height="4.3"/>
	<rect x="471.3" y="13.5" fill="#F3F3F3" stroke="#000000" stroke-miterlimit="10" width="4.2" height="4.3"/>
</g>
<g>
	<rect x="628.7" y="17.8" fill="#F3F3F3" stroke="#000000" stroke-miterlimit="10" width="88.4" height="9.7"/>
	<rect x="628.7" y="13.5" fill="#F3F3F3" stroke="#000000" stroke-miterlimit="10" width="88.4" height="4.3"/>
	<rect x="631.9" y="4.8" fill="#F3F3F3" stroke="#000000" stroke-miterlimit="10" width="81.7" height="8.7"/>
	<rect x="628.7" y="13.5" fill="#F3F3F3" stroke="#000000" stroke-miterlimit="10" width="4.3" height="4.3"/>
	<rect x="712.9" y="13.5" fill="#F3F3F3" stroke="#000000" stroke-miterlimit="10" width="4.3" height="4.3"/>
	<rect x="671" y="13.5" fill="#F3F3F3" stroke="#000000" stroke-miterlimit="10" width="4.3" height="4.3"/>
</g>
<g>
	
		<rect x="752.3" y="325.8" transform="matrix(6.123234e-17 -1 1 6.123234e-17 462.0361 1121.8647)" fill="#F3F3F3" stroke="#000000" stroke-miterlimit="10" width="79.2" height="8.2"/>
	
		<rect x="741.7" y="326.9" transform="matrix(6.123234e-17 -1 1 6.123234e-17 455.1161 1114.7617)" fill="#F3F3F3" stroke="#000000" stroke-miterlimit="10" width="86.4" height="5.8"/>
	
		<rect x="734.5" y="325.5" transform="matrix(6.123234e-17 -1 1 6.123234e-17 447.8303 1107.476)" fill="#F3F3F3" stroke="#000000" stroke-miterlimit="10" width="86.4" height="8.7"/>
	
		<rect x="782.9" y="368" transform="matrix(6.123234e-17 -1 1 6.123234e-17 413.9824 1155.8954)" fill="#F3F3F3" stroke="#000000" stroke-miterlimit="10" width="4.1" height="5.8"/>
	
		<rect x="782.9" y="285.8" transform="matrix(6.123234e-17 -1 1 6.123234e-17 496.2498 1073.6279)" fill="#F3F3F3" stroke="#000000" stroke-miterlimit="10" width="4.1" height="5.8"/>
	
		<rect x="782.9" y="323.6" transform="matrix(6.123234e-17 -1 1 6.123234e-17 458.4104 1111.4673)" fill="#F3F3F3" stroke="#000000" stroke-miterlimit="10" width="4.1" height="5.8"/>
</g>
<line fill="#F3F3F3" stroke="#000000" stroke-miterlimit="10" x1="432.7" y1="330" x2="393.2" y2="306.8"/>
<line fill="#F3F3F3" stroke="#000000" stroke-miterlimit="10" x1="561.2" y1="261.6" x2="521.7" y2="238.4"/>
<line fill="#F3F3F3" stroke="#000000" stroke-miterlimit="10" x1="627.5" y1="353.2" x2="588" y2="330"/>
<line fill="#F3F3F3" stroke="#000000" stroke-miterlimit="10" x1="627" y1="267.4" x2="586.7" y2="289.2"/>
<line fill="#F3F3F3" stroke="#000000" stroke-miterlimit="10" x1="130.3" y1="410" x2="152.2" y2="372.2"/>
<line fill="#F3F3F3" stroke="#000000" stroke-miterlimit="10" x1="236.9" y1="457.4" x2="187.7" y2="485.1"/>
<rect x="260.5" y="101.8" fill="#F3F3F3" stroke="#000000" stroke-miterlimit="10" width="88.6" height="3.6"/>
<rect x="263.5" y="92.5" fill="#F3F3F3" stroke="#000000" stroke-miterlimit="10" width="32" height="9.3"/>
<rect x="260.5" y="105.5" fill="#F3F3F3" stroke="#000000" stroke-miterlimit="10" width="35" height="7.8"/>
<rect x="345.8" y="102.4" fill="#F3F3F3" stroke="#000000" stroke-miterlimit="10" width="3.2" height="3.1"/>
<rect x="260.5" y="101.8" fill="#F3F3F3" stroke="#000000" stroke-miterlimit="10" width="5.6" height="3.6"/>
<rect x="292.6" y="101.8" fill="#F3F3F3" stroke="#000000" stroke-miterlimit="10" width="5.2" height="3.6"/>
<line fill="#F3F3F3" stroke="#000000" stroke-miterlimit="10" x1="345.8" y1="105.5" x2="303.9" y2="126.3"/>
<rect x="773" y="373" fill="#838383" stroke="#000000" stroke-miterlimit="10" width="14.1" height="84.4"/>
<rect x="787.1" y="369.9" fill="#838383" stroke="#000000" stroke-miterlimit="10" width="8.5" height="87.5"/>
<rect x="236.9" y="439.9" fill="#838383" stroke="#000000" stroke-miterlimit="10" width="536.1" height="17.5"/>
<rect x="787.1" y="4.9" fill="#838383" stroke="#000000" stroke-miterlimit="10" width="8.5" height="285.8"/>
<rect x="773" y="13.9" fill="#838383" stroke="#000000" stroke-miterlimit="10" width="14.1" height="273.6"/>
<rect x="713.6" y="4.9" fill="#838383" stroke="#000000" stroke-miterlimit="10" width="73.6" height="9"/>
<rect x="717.1" y="13.9" fill="#838383" stroke="#000000" stroke-miterlimit="10" width="55.9" height="13.5"/>
<rect x="513.6" y="4.9" fill="#838383" stroke="#000000" stroke-miterlimit="10" width="118.2" height="9"/>
<rect x="570.8" y="13.9" fill="#838383" stroke="#000000" stroke-miterlimit="10" width="13.9" height="99.8"/>
<rect x="584.7" y="13.9" fill="#838383" stroke="#000000" stroke-miterlimit="10" width="44.6" height="13.5"/>
<rect x="517.2" y="13.9" fill="#838383" stroke="#000000" stroke-miterlimit="10" width="53.6" height="13.5"/>
<rect x="356.7" y="4.9" fill="#838383" stroke="#000000" stroke-miterlimit="10" width="75.2" height="9"/>
<rect x="380.2" y="13.9" fill="#838383" stroke="#000000" stroke-miterlimit="10" width="49.4" height="13.5"/>
<rect x="366.3" y="13.9" fill="#838383" stroke="#000000" stroke-miterlimit="10" width="13.9" height="99.2"/>
<rect x="356.7" y="13.9" fill="#838383" stroke="#000000" stroke-miterlimit="10" width="9.5" height="78.6"/>
<rect x="175.7" y="101.8" fill="#838383" stroke="#000000" stroke-miterlimit="10" width="28.6" height="29.6"/>
<rect x="175.7" y="330" fill="#838383" stroke="#000000" stroke-miterlimit="10" width="28.6" height="28.6"/>
<rect x="6" y="92.5" fill="#838383" stroke="#000000" stroke-miterlimit="10" width="83.9" height="9.3"/>
<rect x="6" y="101.8" fill="#838383" stroke="#000000" stroke-miterlimit="10" width="12" height="355.1"/>
<rect x="6" y="4.9" fill="#838383" stroke="#000000" stroke-miterlimit="10" width="12" height="87.6"/>
<rect x="18.1" y="4.9" fill="#838383" stroke="#000000" stroke-miterlimit="10" width="5.5" height="87.6"/>
<rect x="18.1" y="101.8" fill="#838383" stroke="#000000" stroke-miterlimit="10" width="68.9" height="11.3"/>
<rect x="171.8" y="92.5" fill="#838383" stroke="#000000" stroke-miterlimit="10" width="91.7" height="9.3"/>
<rect x="204.3" y="101.8" fill="#838383" stroke="#000000" stroke-miterlimit="10" width="56.2" height="11.3"/>
<rect x="347.2" y="92.5" fill="#838383" stroke="#000000" stroke-miterlimit="10" width="19.1" height="9.3"/>
<rect x="349.1" y="101.8" fill="#838383" stroke="#000000" stroke-miterlimit="10" width="17.2" height="11.3"/>
<rect x="358.6" y="330" fill="#838383" stroke="#000000" stroke-miterlimit="10" width="28.6" height="28.6"/>
<rect x="559.7" y="330" fill="#838383" stroke="#000000" stroke-miterlimit="10" width="28.3" height="28.3"/>
<rect x="114.4" y="439.9" fill="#838383" stroke="#000000" stroke-miterlimit="10" width="65.3" height="17.5"/>
<rect x="18.1" y="424.8" fill="#838383" stroke="#000000" stroke-miterlimit="10" width="113.5" height="15.1"/>
<rect x="432.7" y="330" fill="#C6C6C6" stroke="#000000" stroke-miterlimit="10" width="127" height="5.7"/>
<rect x="515" y="335.7" fill="#C6C6C6" stroke="#000000" stroke-miterlimit="10" width="4.9" height="104.2"/>
<rect x="506" y="335.7" fill="#C6C6C6" stroke="#000000" stroke-miterlimit="10" width="5.7" height="104.2"/>
<rect x="476" y="373.2" fill="#C6C6C6" stroke="#000000" stroke-miterlimit="10" width="29.8" height="4.9"/>
<rect x="476" y="378.1" fill="#C6C6C6" stroke="#000000" stroke-miterlimit="10" width="4.9" height="45.5"/>
<rect x="305.6" y="330" fill="#C6C6C6" stroke="#000000" stroke-miterlimit="10" width="53" height="5.7"/>
<rect x="18.1" y="330" fill="#C6C6C6" stroke="#000000" stroke-miterlimit="10" width="157.6" height="4.9"/>
<rect x="305.6" y="335.7" fill="#C6C6C6" stroke="#000000" stroke-miterlimit="10" width="5.7" height="104.2"/>
<rect x="570.8" y="113.7" fill="#C6C6C6" stroke="#000000" stroke-miterlimit="10" width="5.7" height="148"/>
<rect x="561.2" y="261.8" fill="#C6C6C6" stroke="#000000" stroke-miterlimit="10" width="15.2" height="5.7"/>
<rect x="627" y="261.8" fill="#C6C6C6" stroke="#000000" stroke-miterlimit="10" width="146" height="5.7"/>
<rect x="380.2" y="261.8" fill="#C6C6C6" stroke="#000000" stroke-miterlimit="10" width="133" height="5.7"/>
<rect x="374.5" y="113.1" fill="#C6C6C6" stroke="#000000" stroke-miterlimit="10" width="5.7" height="154.3"/>
<rect x="635" y="267.4" fill="#C6C6C6" stroke="#000000" stroke-miterlimit="10" width="5.7" height="68.3"/>
<rect x="125.9" y="408.1" fill="#C6C6C6" stroke="#000000" stroke-miterlimit="10" width="5.7" height="16.8"/>
<rect x="125.9" y="334.9" fill="#C6C6C6" stroke="#000000" stroke-miterlimit="10" width="5.7" height="31.6"/>
<rect x="73.3" y="334.9" fill="#C6C6C6" stroke="#000000" stroke-miterlimit="10" width="4.9" height="27"/>
<rect x="35.9" y="357" fill="#C6C6C6" stroke="#000000" stroke-miterlimit="10" width="37.4" height="4.9"/>
<rect x="18.1" y="453.3" fill="#C6C6C6" stroke="#000000" stroke-miterlimit="10" width="96.3" height="4.1"/>
<rect x="476" y="423.6" fill="#C6C6C6" stroke="#000000" stroke-miterlimit="10" width="2.4" height="16.3"/>
<rect x="18.1" y="359.2" fill="#C6C6C6" stroke="#000000" stroke-miterlimit="10" width="17.9" height="2.7"/>
<g>
	<path d="M221.7,143.7h-1.8v3.7H219v-8h0.8v3.6h1.8l2.7-3.6h0.9l-3,3.9l3.1,4.1h-1L221.7,143.7z"/>
	<path d="M231.7,141.3l-3,6.7c-0.2,0.6-0.5,1-0.8,1.2c-0.3,0.2-0.7,0.4-1.2,0.4c-0.3,0-0.6,0-0.8-0.1c-0.3-0.1-0.5-0.2-0.7-0.4
		l0.4-0.6c0.3,0.3,0.7,0.5,1.1,0.5c0.3,0,0.5-0.1,0.7-0.2c0.2-0.2,0.4-0.4,0.5-0.8l0.3-0.6l-2.7-6h0.8l2.3,5.1l2.3-5.1H231.7z"/>
	<path d="M236.4,147.3l-1.9-2.5l-1.9,2.5h-0.9l2.4-3.1l-2.3-2.9h0.9l1.8,2.4l1.8-2.4h0.9l-2.3,2.9l2.4,3.1H236.4z"/>
	<path d="M238.6,141.3h0.8v2.7h3.8v-2.7h0.8v6h-0.8v-2.7h-3.8v2.7h-0.8V141.3z"/>
	<path d="M251,141.3v6h-0.7v-2h-1.9h-0.2l-1.4,2h-0.9l1.5-2.1c-0.5-0.1-0.8-0.4-1.1-0.7c-0.3-0.3-0.4-0.7-0.4-1.2
		c0-0.7,0.2-1.2,0.7-1.5c0.5-0.4,1.1-0.5,1.9-0.5H251z M248.4,144.7h1.8V142h-1.8c-1.2,0-1.8,0.5-1.8,1.4
		C246.7,144.3,247.3,144.7,248.4,144.7z"/>
	<path d="M252.8,143.9h3v0.7h-3V143.9z"/>
	<path d="M219.8,160.7c-0.5-0.3-0.8-0.6-1.1-1.1s-0.4-1-0.4-1.6s0.1-1.1,0.4-1.6c0.3-0.5,0.6-0.8,1.1-1.1c0.5-0.3,1-0.4,1.6-0.4
		c0.5,0,1,0.1,1.4,0.3c0.4,0.2,0.7,0.5,1,0.9l-0.6,0.4c-0.2-0.3-0.5-0.5-0.8-0.7c-0.3-0.1-0.6-0.2-1-0.2c-0.4,0-0.8,0.1-1.2,0.3
		c-0.3,0.2-0.6,0.5-0.8,0.8c-0.2,0.4-0.3,0.8-0.3,1.2c0,0.5,0.1,0.9,0.3,1.2c0.2,0.4,0.5,0.6,0.8,0.8c0.3,0.2,0.7,0.3,1.2,0.3
		c0.4,0,0.7-0.1,1-0.2c0.3-0.1,0.6-0.4,0.8-0.7l0.6,0.4c-0.2,0.4-0.6,0.7-1,0.9s-0.9,0.3-1.4,0.3C220.8,161.1,220.2,161,219.8,160.7
		z"/>
	<path d="M229.4,155.8h-2.3v5.3h-0.8v-5.3H224v-0.7h5.4V155.8z"/>
	<path d="M231.2,160.7c-0.5-0.3-0.8-0.6-1.1-1.1c-0.3-0.5-0.4-1-0.4-1.6s0.1-1.1,0.4-1.6c0.3-0.5,0.6-0.8,1.1-1.1
		c0.5-0.3,1-0.4,1.6-0.4c0.6,0,1.1,0.1,1.6,0.4c0.5,0.3,0.8,0.6,1.1,1.1c0.3,0.5,0.4,1,0.4,1.6s-0.1,1.1-0.4,1.6
		c-0.3,0.5-0.6,0.8-1.1,1.1c-0.5,0.3-1,0.4-1.6,0.4C232.2,161.1,231.7,161,231.2,160.7z M233.9,160.1c0.3-0.2,0.6-0.5,0.8-0.8
		c0.2-0.4,0.3-0.8,0.3-1.2s-0.1-0.9-0.3-1.2c-0.2-0.4-0.5-0.6-0.8-0.8c-0.3-0.2-0.7-0.3-1.2-0.3c-0.4,0-0.8,0.1-1.2,0.3
		c-0.3,0.2-0.6,0.5-0.8,0.8c-0.2,0.4-0.3,0.8-0.3,1.2s0.1,0.9,0.3,1.2c0.2,0.4,0.5,0.6,0.8,0.8c0.3,0.2,0.7,0.3,1.2,0.3
		C233.2,160.4,233.6,160.3,233.9,160.1z"/>
	<path d="M242.5,155.1v6h-0.8v-5.3h-2.9l-0.1,1.5c-0.1,1.3-0.2,2.2-0.4,2.9c-0.2,0.7-0.6,1-1.2,1c-0.2,0-0.4,0-0.6-0.1l0.1-0.7
		c0.1,0,0.2,0,0.3,0c0.3,0,0.5-0.1,0.7-0.4s0.3-0.6,0.3-1.1c0.1-0.4,0.1-1,0.1-1.7l0.1-2.2H242.5z"/>
	<path d="M245.7,160.7c-0.5-0.3-0.8-0.6-1.1-1.1c-0.3-0.5-0.4-1-0.4-1.6s0.1-1.1,0.4-1.6c0.3-0.5,0.6-0.8,1.1-1.1
		c0.5-0.3,1-0.4,1.6-0.4c0.6,0,1.1,0.1,1.6,0.4c0.5,0.3,0.8,0.6,1.1,1.1c0.3,0.5,0.4,1,0.4,1.6s-0.1,1.1-0.4,1.6
		c-0.3,0.5-0.6,0.8-1.1,1.1c-0.5,0.3-1,0.4-1.6,0.4C246.7,161.1,246.2,161,245.7,160.7z M248.4,160.1c0.3-0.2,0.6-0.5,0.8-0.8
		c0.2-0.4,0.3-0.8,0.3-1.2s-0.1-0.9-0.3-1.2c-0.2-0.4-0.5-0.6-0.8-0.8c-0.3-0.2-0.7-0.3-1.2-0.3c-0.4,0-0.8,0.1-1.2,0.3
		c-0.3,0.2-0.6,0.5-0.8,0.8c-0.2,0.4-0.3,0.8-0.3,1.2s0.1,0.9,0.3,1.2c0.2,0.4,0.5,0.6,0.8,0.8c0.3,0.2,0.7,0.3,1.2,0.3
		C247.7,160.4,248.1,160.3,248.4,160.1z"/>
	<path d="M257.1,159.4c0,0.5-0.2,0.9-0.6,1.2c-0.4,0.3-1,0.4-1.7,0.4h-2.7v-6h2.7c0.7,0,1.2,0.1,1.6,0.4c0.4,0.3,0.6,0.6,0.6,1.1
		c0,0.3-0.1,0.6-0.3,0.8c-0.2,0.2-0.4,0.4-0.8,0.5C256.7,158.2,257.1,158.6,257.1,159.4z M252.9,157.7h1.8c0.5,0,0.8-0.1,1.1-0.3
		c0.2-0.2,0.4-0.4,0.4-0.8s-0.1-0.6-0.4-0.8s-0.6-0.3-1.1-0.3h-1.8V157.7z M255.9,160.2c0.3-0.2,0.4-0.4,0.4-0.8
		c0-0.4-0.1-0.6-0.4-0.8c-0.2-0.2-0.6-0.3-1.1-0.3h-2v2.1h1.9C255.3,160.4,255.7,160.4,255.9,160.2z"/>
	<path d="M262.9,155.6c0.4,0.4,0.6,1,0.6,1.7v3.7h-0.8v-0.9c-0.2,0.3-0.5,0.6-0.8,0.7c-0.4,0.2-0.8,0.3-1.3,0.3
		c-0.7,0-1.2-0.2-1.6-0.5c-0.4-0.3-0.6-0.7-0.6-1.3c0-0.5,0.2-0.9,0.6-1.2s1-0.5,1.8-0.5h1.9v-0.4c0-0.5-0.1-0.9-0.4-1.2
		s-0.7-0.4-1.3-0.4c-0.4,0-0.7,0.1-1.1,0.2c-0.4,0.1-0.7,0.3-0.9,0.5l-0.4-0.6c0.3-0.3,0.7-0.5,1.1-0.6c0.4-0.1,0.9-0.2,1.4-0.2
		C261.9,155,262.5,155.2,262.9,155.6z M262,160.2c0.3-0.2,0.6-0.5,0.7-0.9v-1h-1.9c-1,0-1.5,0.4-1.5,1.1c0,0.4,0.1,0.6,0.4,0.8
		c0.3,0.2,0.6,0.3,1.1,0.3C261.3,160.5,261.7,160.4,262,160.2z"/>
	<path d="M270.3,155.1v6h-0.7v-2h-1.9h-0.2l-1.4,2h-0.9l1.5-2.1c-0.5-0.1-0.8-0.4-1.1-0.7c-0.3-0.3-0.4-0.7-0.4-1.2
		c0-0.7,0.2-1.2,0.7-1.5c0.5-0.4,1.1-0.5,1.9-0.5H270.3z M267.8,158.5h1.8v-2.7h-1.8c-1.2,0-1.8,0.5-1.8,1.4
		C266.1,158,266.6,158.5,267.8,158.5z"/>
	<path d="M225.4,177v1.2h-7.2v-1l4.1-3.9c0.5-0.5,0.8-0.9,1-1.2c0.2-0.3,0.3-0.7,0.3-1.1c0-0.5-0.2-0.9-0.6-1.2s-0.9-0.4-1.6-0.4
		c-1.1,0-2,0.4-2.6,1.1l-1-0.8c0.4-0.5,0.9-0.8,1.5-1.1c0.6-0.3,1.3-0.4,2.1-0.4c1,0,1.9,0.3,2.5,0.8c0.6,0.5,0.9,1.2,0.9,2
		c0,0.5-0.1,1-0.3,1.5s-0.7,1-1.3,1.6l-3.1,2.9H225.4z"/>
	<path d="M232.7,173.4c0.5,0.5,0.8,1.2,0.8,2c0,0.6-0.1,1.1-0.4,1.6c-0.3,0.5-0.7,0.8-1.3,1.1c-0.6,0.3-1.3,0.4-2.1,0.4
		c-0.7,0-1.4-0.1-2.1-0.3s-1.2-0.5-1.6-0.9l0.7-1.1c0.3,0.3,0.8,0.6,1.3,0.8c0.5,0.2,1.1,0.3,1.7,0.3c0.7,0,1.3-0.2,1.7-0.5
		s0.6-0.7,0.6-1.3s-0.2-1-0.6-1.3c-0.4-0.3-1-0.5-1.9-0.5h-0.8v-1l2.5-3.1h-4.8v-1.2h6.6v1l-2.6,3.2
		C231.4,172.5,232.1,172.8,232.7,173.4z"/>
	<path d="M236.4,176.7c0.2,0.2,0.3,0.4,0.3,0.7c0,0.1,0,0.3,0,0.4c0,0.1-0.1,0.3-0.2,0.6l-0.7,2h-0.9l0.5-2.1
		c-0.2-0.1-0.3-0.2-0.4-0.3c-0.1-0.2-0.2-0.3-0.2-0.6c0-0.3,0.1-0.5,0.3-0.7c0.2-0.2,0.4-0.3,0.7-0.3
		C236,176.4,236.2,176.5,236.4,176.7z"/>
	<path d="M245.2,177v1.2H238v-1l4.1-3.9c0.5-0.5,0.8-0.9,1-1.2c0.2-0.3,0.3-0.7,0.3-1.1c0-0.5-0.2-0.9-0.6-1.2s-0.9-0.4-1.6-0.4
		c-1.1,0-2,0.4-2.6,1.1l-1-0.8c0.4-0.5,0.9-0.8,1.5-1.1c0.6-0.3,1.3-0.4,2.1-0.4c1,0,1.9,0.3,2.5,0.8c0.6,0.5,0.9,1.2,0.9,2
		c0,0.5-0.1,1-0.3,1.5s-0.7,1-1.3,1.6l-3.1,2.9H245.2z"/>
</g>
<g>
	<path d="M508.7,193.6c-0.6-0.4-1.1-0.8-1.5-1.5c-0.4-0.6-0.5-1.3-0.5-2.1c0-0.8,0.2-1.5,0.5-2.1c0.4-0.6,0.9-1.1,1.5-1.5
		c0.6-0.4,1.4-0.5,2.2-0.5c0.6,0,1.1,0.1,1.6,0.3c0.5,0.2,0.9,0.5,1.3,0.9l-0.5,0.5c-0.6-0.6-1.4-1-2.4-1c-0.6,0-1.2,0.1-1.7,0.4
		c-0.5,0.3-0.9,0.7-1.2,1.2c-0.3,0.5-0.4,1.1-0.4,1.7c0,0.6,0.1,1.2,0.4,1.7s0.7,0.9,1.2,1.2c0.5,0.3,1.1,0.4,1.7,0.4
		c1,0,1.8-0.3,2.4-1l0.5,0.5c-0.4,0.4-0.8,0.7-1.3,0.9c-0.5,0.2-1.1,0.3-1.7,0.3C510.1,194.1,509.4,193.9,508.7,193.6z"/>
	<path d="M520.8,188v6H520v-5.3h-3.8v5.3h-0.8v-6H520.8z"/>
	<path d="M527,188.6c0.4,0.4,0.6,1,0.6,1.7v3.7h-0.8v-0.9c-0.2,0.3-0.5,0.6-0.8,0.7c-0.4,0.2-0.8,0.3-1.3,0.3
		c-0.7,0-1.2-0.2-1.6-0.5c-0.4-0.3-0.6-0.7-0.6-1.3c0-0.5,0.2-0.9,0.6-1.2c0.4-0.3,1-0.5,1.8-0.5h1.9v-0.4c0-0.5-0.1-0.9-0.4-1.2
		s-0.7-0.4-1.3-0.4c-0.4,0-0.7,0.1-1.1,0.2c-0.4,0.1-0.7,0.3-0.9,0.5l-0.4-0.6c0.3-0.3,0.7-0.5,1.1-0.6c0.4-0.1,0.9-0.2,1.4-0.2
		C526,188,526.6,188.2,527,188.6z M526.1,193.2c0.3-0.2,0.6-0.5,0.7-0.9v-1h-1.9c-1,0-1.5,0.4-1.5,1.1c0,0.4,0.1,0.6,0.4,0.8
		c0.3,0.2,0.6,0.3,1.1,0.3C525.3,193.5,525.7,193.4,526.1,193.2z"/>
	<path d="M534.7,188v6h-0.8v-5.3H531l-0.1,1.5c-0.1,1.3-0.2,2.2-0.4,2.9c-0.2,0.7-0.6,1-1.2,1c-0.2,0-0.4,0-0.6-0.1l0.1-0.7
		c0.1,0,0.2,0,0.3,0c0.3,0,0.5-0.1,0.7-0.4s0.3-0.6,0.3-1.1c0.1-0.4,0.1-1,0.1-1.7l0.1-2.2H534.7z"/>
	<path d="M541.3,190.7c0.4,0.3,0.6,0.8,0.6,1.4c0,0.6-0.2,1.1-0.6,1.5c-0.4,0.3-1,0.5-1.8,0.5l-2.4,0v-6h0.8v2.1l1.8,0
		C540.3,190.2,540.9,190.3,541.3,190.7z M540.7,193.1c0.3-0.2,0.4-0.6,0.4-1c0-0.4-0.1-0.8-0.4-1c-0.3-0.2-0.7-0.3-1.3-0.3l-1.6,0
		v2.7l1.6,0C539.9,193.5,540.4,193.3,540.7,193.1z"/>
	<path d="M543.5,188h0.8v2.7h3.8V188h0.8v6h-0.8v-2.7h-3.8v2.7h-0.8V188z"/>
	<path d="M555.8,188v6h-0.7v-2h-1.9h-0.2l-1.4,2h-0.9l1.5-2.1c-0.5-0.1-0.8-0.4-1.1-0.7c-0.3-0.3-0.4-0.7-0.4-1.2
		c0-0.7,0.2-1.2,0.7-1.5c0.5-0.4,1.1-0.5,1.9-0.5H555.8z M553.2,191.5h1.8v-2.7h-1.8c-1.2,0-1.8,0.5-1.8,1.4
		C551.5,191,552.1,191.5,553.2,191.5z"/>
	<path d="M509.8,201.2v10h-1.4v-8.8h-2.3v-1.2H509.8z"/>
	<path d="M518.1,206.3c0.5,0.5,0.8,1.2,0.8,2c0,0.6-0.1,1.1-0.4,1.6c-0.3,0.5-0.7,0.8-1.3,1.1s-1.3,0.4-2.1,0.4
		c-0.7,0-1.4-0.1-2.1-0.3s-1.2-0.5-1.6-0.9l0.7-1.1c0.3,0.3,0.8,0.6,1.3,0.8c0.5,0.2,1.1,0.3,1.7,0.3c0.7,0,1.3-0.2,1.7-0.5
		c0.4-0.3,0.6-0.7,0.6-1.3s-0.2-1-0.6-1.3c-0.4-0.3-1-0.5-1.9-0.5h-0.8v-1l2.5-3.1h-4.8v-1.2h6.6v1l-2.6,3.2
		C516.8,205.5,517.6,205.8,518.1,206.3z"/>
	<path d="M521.8,209.6c0.2,0.2,0.3,0.4,0.3,0.7c0,0.1,0,0.3-0.1,0.4c0,0.1-0.1,0.3-0.2,0.6l-0.7,2h-0.9l0.5-2.1
		c-0.2-0.1-0.3-0.2-0.4-0.3c-0.1-0.2-0.2-0.3-0.2-0.6c0-0.3,0.1-0.5,0.3-0.7c0.2-0.2,0.4-0.3,0.7-0.3
		C521.4,209.3,521.6,209.4,521.8,209.6z"/>
	<path d="M529.5,206c0.7,0.5,1,1.3,1,2.2c0,0.6-0.1,1.1-0.4,1.6s-0.7,0.8-1.3,1.1c-0.6,0.3-1.3,0.4-2.1,0.4c-0.7,0-1.4-0.1-2-0.3
		s-1.2-0.5-1.6-0.9l0.7-1.1c0.3,0.3,0.8,0.6,1.3,0.8c0.5,0.2,1.1,0.3,1.7,0.3c0.8,0,1.3-0.2,1.8-0.5c0.4-0.3,0.6-0.8,0.6-1.3
		c0-0.6-0.2-1.1-0.7-1.4c-0.5-0.3-1.2-0.5-2.3-0.5h-2.3l0.5-5.2h5.7v1.2h-4.5l-0.3,2.7h1.1C527.7,205.2,528.8,205.5,529.5,206z"/>
</g>
<g>
	<path d="M600.4,201.5c-0.6-0.4-1.1-0.8-1.5-1.5c-0.4-0.6-0.5-1.3-0.5-2.1c0-0.8,0.2-1.5,0.5-2.1c0.4-0.6,0.9-1.1,1.5-1.5
		c0.6-0.4,1.4-0.5,2.2-0.5c0.6,0,1.1,0.1,1.6,0.3c0.5,0.2,0.9,0.5,1.3,0.9l-0.5,0.5c-0.6-0.6-1.4-1-2.4-1c-0.6,0-1.2,0.1-1.7,0.4
		c-0.5,0.3-0.9,0.7-1.2,1.2c-0.3,0.5-0.4,1.1-0.4,1.7c0,0.6,0.1,1.2,0.4,1.7s0.7,0.9,1.2,1.2c0.5,0.3,1.1,0.4,1.7,0.4
		c1,0,1.8-0.3,2.4-1l0.5,0.5c-0.4,0.4-0.8,0.7-1.3,0.9c-0.5,0.2-1.1,0.3-1.7,0.3C601.7,202,601,201.9,600.4,201.5z"/>
	<path d="M612.4,195.9v6h-0.8v-5.3h-3.8v5.3H607v-6H612.4z"/>
	<path d="M618.6,196.5c0.4,0.4,0.6,1,0.6,1.7v3.7h-0.8V201c-0.2,0.3-0.5,0.6-0.8,0.7c-0.4,0.2-0.8,0.3-1.3,0.3
		c-0.7,0-1.2-0.2-1.6-0.5c-0.4-0.3-0.6-0.7-0.6-1.3c0-0.5,0.2-0.9,0.6-1.2c0.4-0.3,1-0.5,1.8-0.5h1.9v-0.4c0-0.5-0.1-0.9-0.4-1.2
		s-0.7-0.4-1.3-0.4c-0.4,0-0.7,0.1-1.1,0.2c-0.4,0.1-0.7,0.3-0.9,0.5l-0.4-0.6c0.3-0.3,0.7-0.5,1.1-0.6c0.4-0.1,0.9-0.2,1.4-0.2
		C617.6,195.9,618.2,196.1,618.6,196.5z M617.7,201.1c0.3-0.2,0.6-0.5,0.7-0.9v-1h-1.9c-1,0-1.5,0.4-1.5,1.1c0,0.4,0.1,0.6,0.4,0.8
		c0.3,0.2,0.6,0.3,1.1,0.3C617,201.4,617.4,201.3,617.7,201.1z"/>
	<path d="M626.3,195.9v6h-0.8v-5.3h-2.9l-0.1,1.5c-0.1,1.3-0.2,2.2-0.4,2.9c-0.2,0.7-0.6,1-1.2,1c-0.2,0-0.4,0-0.6-0.1l0.1-0.7
		c0.1,0,0.2,0,0.3,0c0.3,0,0.5-0.1,0.7-0.4s0.3-0.6,0.3-1.1c0.1-0.4,0.1-1,0.1-1.7l0.1-2.2H626.3z"/>
	<path d="M633,198.6c0.4,0.3,0.6,0.8,0.6,1.4c0,0.6-0.2,1.1-0.6,1.5c-0.4,0.3-1,0.5-1.8,0.5l-2.4,0v-6h0.8v2.1l1.8,0
		C632,198.1,632.6,198.2,633,198.6z M632.3,201c0.3-0.2,0.4-0.6,0.4-1c0-0.4-0.1-0.8-0.4-1c-0.3-0.2-0.7-0.3-1.3-0.3l-1.6,0v2.7
		l1.6,0C631.6,201.4,632,201.3,632.3,201z"/>
	<path d="M635.1,195.9h0.8v2.7h3.8v-2.7h0.8v6h-0.8v-2.7h-3.8v2.7h-0.8V195.9z"/>
	<path d="M647.5,195.9v6h-0.7v-2h-1.9h-0.2l-1.4,2h-0.9l1.5-2.1c-0.5-0.1-0.8-0.4-1.1-0.7c-0.3-0.3-0.4-0.7-0.4-1.2
		c0-0.7,0.2-1.2,0.7-1.5c0.5-0.4,1.1-0.5,1.9-0.5H647.5z M644.9,199.4h1.8v-2.7h-1.8c-1.2,0-1.8,0.5-1.8,1.4
		C643.2,198.9,643.8,199.4,644.9,199.4z"/>
	<path d="M601.5,209.1v10h-1.4v-8.8h-2.3v-1.2H601.5z"/>
	<path d="M609.7,214.2c0.5,0.5,0.8,1.2,0.8,2c0,0.6-0.1,1.1-0.4,1.6c-0.3,0.5-0.7,0.8-1.3,1.1s-1.3,0.4-2.1,0.4
		c-0.7,0-1.4-0.1-2.1-0.3s-1.2-0.5-1.6-0.9l0.7-1.1c0.3,0.3,0.8,0.6,1.3,0.8c0.5,0.2,1.1,0.3,1.7,0.3c0.7,0,1.3-0.2,1.7-0.5
		c0.4-0.3,0.6-0.7,0.6-1.3s-0.2-1-0.6-1.3c-0.4-0.3-1-0.5-1.9-0.5h-0.8v-1l2.5-3.1h-4.8v-1.2h6.6v1l-2.6,3.2
		C608.5,213.4,609.2,213.7,609.7,214.2z"/>
	<path d="M613.5,217.5c0.2,0.2,0.3,0.4,0.3,0.7c0,0.1,0,0.3-0.1,0.4c0,0.1-0.1,0.3-0.2,0.6l-0.7,2h-0.9l0.5-2.1
		c-0.2-0.1-0.3-0.2-0.4-0.3c-0.1-0.2-0.2-0.3-0.2-0.6c0-0.3,0.1-0.5,0.3-0.7c0.2-0.2,0.4-0.3,0.7-0.3
		C613.1,217.3,613.3,217.4,613.5,217.5z"/>
	<path d="M622.2,209.1v1l-4,9h-1.5l4-8.8H616v1.8h-1.4v-3H622.2z"/>
</g>
<g>
	<path d="M643.3,371.7c-0.6-0.4-1.1-0.8-1.5-1.5c-0.4-0.6-0.5-1.3-0.5-2.1c0-0.8,0.2-1.5,0.5-2.1c0.4-0.6,0.9-1.1,1.5-1.5
		c0.6-0.4,1.4-0.5,2.2-0.5c0.6,0,1.1,0.1,1.6,0.3c0.5,0.2,0.9,0.5,1.3,0.9l-0.5,0.5c-0.6-0.6-1.4-1-2.4-1c-0.6,0-1.2,0.1-1.7,0.4
		c-0.5,0.3-0.9,0.7-1.2,1.2c-0.3,0.5-0.4,1.1-0.4,1.7c0,0.6,0.1,1.2,0.4,1.7s0.7,0.9,1.2,1.2c0.5,0.3,1.1,0.4,1.7,0.4
		c1,0,1.8-0.3,2.4-1l0.5,0.5c-0.4,0.4-0.8,0.7-1.3,0.9c-0.5,0.2-1.1,0.3-1.7,0.3C644.7,372.3,644,372.1,643.3,371.7z"/>
	<path d="M655.4,366.2v6h-0.8v-5.3h-3.8v5.3H650v-6H655.4z"/>
	<path d="M661.6,366.7c0.4,0.4,0.6,1,0.6,1.7v3.7h-0.8v-0.9c-0.2,0.3-0.5,0.6-0.8,0.7c-0.4,0.2-0.8,0.3-1.3,0.3
		c-0.7,0-1.2-0.2-1.6-0.5c-0.4-0.3-0.6-0.7-0.6-1.3c0-0.5,0.2-0.9,0.6-1.2c0.4-0.3,1-0.5,1.8-0.5h1.9v-0.4c0-0.5-0.1-0.9-0.4-1.2
		s-0.7-0.4-1.3-0.4c-0.4,0-0.7,0.1-1.1,0.2c-0.4,0.1-0.7,0.3-0.9,0.5l-0.4-0.6c0.3-0.3,0.7-0.5,1.1-0.6c0.4-0.1,0.9-0.2,1.4-0.2
		C660.6,366.1,661.2,366.3,661.6,366.7z M660.7,371.3c0.3-0.2,0.6-0.5,0.7-0.9v-1h-1.9c-1,0-1.5,0.4-1.5,1.1c0,0.4,0.1,0.6,0.4,0.8
		c0.3,0.2,0.6,0.3,1.1,0.3C659.9,371.6,660.3,371.5,660.7,371.3z"/>
	<path d="M669.3,366.2v6h-0.8v-5.3h-2.9l-0.1,1.5c-0.1,1.3-0.2,2.2-0.4,2.9c-0.2,0.7-0.6,1-1.2,1c-0.2,0-0.4,0-0.6-0.1l0.1-0.7
		c0.1,0,0.2,0,0.3,0c0.3,0,0.5-0.1,0.7-0.4s0.3-0.6,0.3-1.1c0.1-0.4,0.1-1,0.1-1.7l0.1-2.2H669.3z"/>
	<path d="M675.9,368.8c0.4,0.3,0.6,0.8,0.6,1.4c0,0.6-0.2,1.1-0.6,1.5c-0.4,0.3-1,0.5-1.8,0.5l-2.4,0v-6h0.8v2.1l1.8,0
		C675,368.3,675.5,368.5,675.9,368.8z M675.3,371.2c0.3-0.2,0.4-0.6,0.4-1c0-0.4-0.1-0.8-0.4-1c-0.3-0.2-0.7-0.3-1.3-0.3l-1.6,0v2.7
		l1.6,0C674.5,371.6,675,371.5,675.3,371.2z"/>
	<path d="M678.1,366.2h0.8v2.7h3.8v-2.7h0.8v6h-0.8v-2.7h-3.8v2.7h-0.8V366.2z"/>
	<path d="M690.4,366.2v6h-0.7v-2h-1.9h-0.2l-1.4,2h-0.9l1.5-2.1c-0.5-0.1-0.8-0.4-1.1-0.7c-0.3-0.3-0.4-0.7-0.4-1.2
		c0-0.7,0.2-1.2,0.7-1.5c0.5-0.4,1.1-0.5,1.9-0.5H690.4z M687.8,369.6h1.8v-2.7h-1.8c-1.2,0-1.8,0.5-1.8,1.4
		C686.1,369.1,686.7,369.6,687.8,369.6z"/>
	<path d="M644.4,379.3v10H643v-8.8h-2.3v-1.2H644.4z"/>
	<path d="M648.6,388.9c-0.6-0.4-1.1-1-1.5-1.8c-0.4-0.8-0.5-1.7-0.5-2.7c0-1.1,0.2-2,0.5-2.7c0.4-0.8,0.8-1.4,1.5-1.8
		c0.6-0.4,1.3-0.6,2.1-0.6c0.8,0,1.5,0.2,2.1,0.6c0.6,0.4,1.1,1,1.5,1.8c0.4,0.8,0.5,1.7,0.5,2.7c0,1.1-0.2,2-0.5,2.7
		c-0.4,0.8-0.8,1.4-1.5,1.8c-0.6,0.4-1.3,0.6-2.1,0.6C649.9,389.5,649.2,389.3,648.6,388.9z M652.6,387.2c0.5-0.7,0.7-1.6,0.7-2.9
		c0-1.2-0.2-2.2-0.7-2.9s-1.1-1-1.9-1c-0.8,0-1.5,0.3-1.9,1c-0.5,0.7-0.7,1.6-0.7,2.9c0,1.3,0.2,2.2,0.7,2.9c0.5,0.7,1.1,1,1.9,1
		C651.5,388.2,652.1,387.9,652.6,387.2z"/>
	<path d="M657.6,387.8c0.2,0.2,0.3,0.4,0.3,0.7c0,0.1,0,0.3-0.1,0.4s-0.1,0.3-0.2,0.6l-0.7,2h-0.9l0.5-2.1c-0.2-0.1-0.3-0.2-0.4-0.3
		c-0.1-0.2-0.2-0.3-0.2-0.6c0-0.3,0.1-0.5,0.3-0.7c0.2-0.2,0.4-0.3,0.7-0.3C657.2,387.5,657.4,387.6,657.6,387.8z"/>
	<path d="M665.3,384.1c0.7,0.5,1,1.3,1,2.2c0,0.6-0.1,1.1-0.4,1.6c-0.3,0.5-0.7,0.8-1.3,1.1c-0.6,0.3-1.3,0.4-2.1,0.4
		c-0.7,0-1.4-0.1-2-0.3c-0.7-0.2-1.2-0.5-1.6-0.9l0.7-1.1c0.3,0.3,0.8,0.6,1.3,0.8s1.1,0.3,1.7,0.3c0.8,0,1.3-0.2,1.8-0.5
		c0.4-0.3,0.6-0.8,0.6-1.3c0-0.6-0.2-1.1-0.7-1.4c-0.5-0.3-1.2-0.5-2.3-0.5h-2.3l0.5-5.2h5.7v1.2h-4.5l-0.3,2.7h1.1
		C663.5,383.3,664.6,383.6,665.3,384.1z"/>
</g>
<g>
	<path d="M495.3,300.1c0.7,0.5,1,1.3,1,2.2c0,0.6-0.1,1.1-0.4,1.6s-0.7,0.8-1.3,1.1c-0.6,0.3-1.3,0.4-2.1,0.4c-0.7,0-1.4-0.1-2-0.3
		s-1.2-0.5-1.6-0.9l0.7-1.1c0.3,0.3,0.8,0.6,1.3,0.8c0.5,0.2,1.1,0.3,1.7,0.3c0.8,0,1.3-0.2,1.8-0.5c0.4-0.3,0.6-0.8,0.6-1.3
		c0-0.6-0.2-1.1-0.7-1.4c-0.5-0.3-1.2-0.5-2.3-0.5h-2.3l0.5-5.2h5.7v1.2h-4.5l-0.3,2.7h1.1C493.5,299.3,494.6,299.6,495.3,300.1z"/>
	<path d="M499.1,303.7c0.2,0.2,0.3,0.4,0.3,0.7c0,0.1,0,0.3-0.1,0.4c0,0.1-0.1,0.3-0.2,0.6l-0.7,2h-0.9l0.5-2.1
		c-0.2-0.1-0.3-0.2-0.4-0.3c-0.1-0.2-0.2-0.3-0.2-0.6c0-0.3,0.1-0.5,0.3-0.7c0.2-0.2,0.4-0.3,0.7-0.3
		C498.7,303.5,498.9,303.6,499.1,303.7z"/>
	<path d="M502.5,304.8c-0.6-0.4-1.1-1-1.5-1.8c-0.4-0.8-0.5-1.7-0.5-2.7c0-1.1,0.2-2,0.5-2.7c0.4-0.8,0.8-1.4,1.5-1.8
		c0.6-0.4,1.3-0.6,2.1-0.6c0.8,0,1.5,0.2,2.1,0.6c0.6,0.4,1.1,1,1.5,1.8c0.4,0.8,0.5,1.7,0.5,2.7c0,1.1-0.2,2-0.5,2.7
		c-0.4,0.8-0.8,1.4-1.5,1.8c-0.6,0.4-1.3,0.6-2.1,0.6C503.8,305.4,503.1,305.2,502.5,304.8z M506.6,303.2c0.5-0.7,0.7-1.6,0.7-2.9
		c0-1.3-0.2-2.2-0.7-2.9s-1.1-1-1.9-1c-0.8,0-1.5,0.3-1.9,1c-0.5,0.7-0.7,1.6-0.7,2.9c0,1.2,0.2,2.2,0.7,2.9c0.5,0.7,1.1,1,1.9,1
		C505.4,304.2,506.1,303.8,506.6,303.2z"/>
</g>
<g>
	<path d="M234.3,403.7c0.7,0.5,1,1.3,1,2.2c0,0.6-0.1,1.1-0.4,1.6c-0.3,0.5-0.7,0.8-1.3,1.1c-0.6,0.3-1.3,0.4-2.1,0.4
		c-0.7,0-1.4-0.1-2-0.3c-0.7-0.2-1.2-0.5-1.6-0.9l0.7-1.1c0.3,0.3,0.8,0.6,1.3,0.8c0.5,0.2,1.1,0.3,1.7,0.3c0.8,0,1.3-0.2,1.8-0.5
		c0.4-0.3,0.6-0.8,0.6-1.3c0-0.6-0.2-1.1-0.7-1.4s-1.2-0.5-2.3-0.5h-2.3l0.5-5.2h5.7v1.2h-4.5l-0.3,2.7h1.1
		C232.5,402.8,233.6,403.1,234.3,403.7z"/>
	<path d="M238.1,407.3c0.2,0.2,0.3,0.4,0.3,0.7c0,0.1,0,0.3,0,0.4c0,0.1-0.1,0.3-0.2,0.6l-0.7,2h-0.9l0.5-2.1
		c-0.2-0.1-0.3-0.2-0.4-0.3c-0.1-0.2-0.2-0.3-0.2-0.6c0-0.3,0.1-0.5,0.3-0.7c0.2-0.2,0.4-0.3,0.7-0.3
		C237.7,407,237.9,407.1,238.1,407.3z"/>
	<path d="M245.9,404c0.5,0.5,0.8,1.2,0.8,2c0,0.6-0.1,1.1-0.4,1.6c-0.3,0.5-0.7,0.8-1.3,1.1c-0.6,0.3-1.3,0.4-2.1,0.4
		c-0.7,0-1.4-0.1-2.1-0.3c-0.7-0.2-1.2-0.5-1.6-0.9l0.7-1.1c0.3,0.3,0.8,0.6,1.3,0.8c0.5,0.2,1.1,0.3,1.7,0.3c0.7,0,1.3-0.2,1.7-0.5
		c0.4-0.3,0.6-0.7,0.6-1.3c0-0.6-0.2-1-0.6-1.3c-0.4-0.3-1-0.5-1.9-0.5H242v-1l2.5-3.1h-4.8v-1.2h6.6v1l-2.6,3.2
		C244.7,403.2,245.4,403.5,245.9,404z"/>
</g>
<g>
	<path d="M84.4,402.9v1.2h-7.2v-1l4.1-3.9c0.5-0.5,0.8-0.9,1-1.2c0.2-0.3,0.3-0.7,0.3-1.1c0-0.5-0.2-0.9-0.6-1.2s-0.9-0.4-1.6-0.4
		c-1.1,0-2,0.4-2.6,1.1l-1-0.8c0.4-0.5,0.9-0.8,1.5-1.1c0.6-0.3,1.3-0.4,2.1-0.4c1,0,1.9,0.3,2.5,0.8c0.6,0.5,0.9,1.2,0.9,2
		c0,0.5-0.1,1-0.3,1.5s-0.7,1-1.3,1.6l-3.1,2.9H84.4z"/>
	<path d="M87.4,402.5c0.2,0.2,0.3,0.4,0.3,0.7c0,0.1,0,0.3,0,0.4c0,0.1-0.1,0.3-0.2,0.6l-0.7,2h-0.9l0.5-2.1
		c-0.2-0.1-0.3-0.2-0.4-0.3c-0.1-0.2-0.2-0.3-0.2-0.6c0-0.3,0.1-0.5,0.3-0.7c0.2-0.2,0.4-0.3,0.7-0.3
		C87,402.3,87.2,402.4,87.4,402.5z"/>
	<path d="M97.6,401.7h-1.9v2.5h-1.4v-2.5h-5.6v-1l5.1-6.6h1.5l-4.9,6.3h3.8v-2.2h1.3v2.2h1.9V401.7z"/>
</g>
<g>
	<path d="M204.6,52.7c0.5,0.2,0.9,0.6,1.2,1.1c0.3,0.5,0.4,1,0.4,1.6c0,0.6-0.2,1.2-0.5,1.7c-0.3,0.5-0.7,0.8-1.3,1.1
		c-0.5,0.3-1.1,0.4-1.8,0.4c-1.3,0-2.4-0.4-3.1-1.3c-0.7-0.9-1.1-2.1-1.1-3.7c0-1.1,0.2-2.1,0.6-2.9c0.4-0.8,0.9-1.4,1.7-1.8
		c0.7-0.4,1.5-0.6,2.5-0.6c0.5,0,0.9,0,1.4,0.2c0.4,0.1,0.8,0.2,1.1,0.4l-0.5,1.1c-0.5-0.3-1.1-0.5-1.9-0.5c-1,0-1.9,0.3-2.4,1
		c-0.6,0.6-0.9,1.6-0.9,2.8c0,0.2,0,0.3,0,0.4c0.3-0.4,0.7-0.8,1.2-1c0.5-0.2,1.1-0.3,1.7-0.3C203.5,52.3,204.1,52.5,204.6,52.7z
		 M204.3,56.9c0.4-0.4,0.6-0.8,0.6-1.4c0-0.6-0.2-1.1-0.6-1.4c-0.4-0.3-1-0.5-1.7-0.5c-0.4,0-0.8,0.1-1.2,0.3s-0.6,0.4-0.8,0.7
		c-0.2,0.3-0.3,0.6-0.3,1c0,0.4,0.1,0.7,0.3,1c0.2,0.3,0.5,0.5,0.8,0.7c0.4,0.2,0.8,0.3,1.3,0.3C203.4,57.4,203.9,57.2,204.3,56.9z"
		/>
	<path d="M209.1,56.8c0.2,0.2,0.3,0.4,0.3,0.7c0,0.1,0,0.3,0,0.4c0,0.1-0.1,0.3-0.2,0.6l-0.7,2h-0.9l0.5-2.1
		c-0.2-0.1-0.3-0.2-0.4-0.3c-0.1-0.2-0.2-0.3-0.2-0.6c0-0.3,0.1-0.5,0.3-0.7c0.2-0.2,0.4-0.3,0.7-0.3
		C208.8,56.6,209,56.6,209.1,56.8z"/>
	<path d="M217.9,48.4v1l-4,9h-1.5l4-8.8h-4.6v1.8h-1.4v-3H217.9z"/>
</g>
<g>
	<path d="M402.7,396.5c0.7,0.5,1,1.3,1,2.2c0,0.6-0.1,1.1-0.4,1.6s-0.7,0.8-1.3,1.1c-0.6,0.3-1.3,0.4-2.1,0.4c-0.7,0-1.4-0.1-2-0.3
		s-1.2-0.5-1.6-0.9l0.7-1.1c0.3,0.3,0.8,0.6,1.3,0.8c0.5,0.2,1.1,0.3,1.7,0.3c0.8,0,1.3-0.2,1.8-0.5c0.4-0.3,0.6-0.8,0.6-1.3
		c0-0.6-0.2-1.1-0.7-1.4c-0.5-0.3-1.2-0.5-2.3-0.5h-2.3l0.5-5.2h5.7v1.2h-4.5l-0.3,2.7h1.1C400.9,395.7,402,396,402.7,396.5z"/>
	<path d="M406.5,400.1c0.2,0.2,0.3,0.4,0.3,0.7c0,0.1,0,0.3-0.1,0.4s-0.1,0.3-0.2,0.6l-0.7,2h-0.9l0.5-2.1c-0.2-0.1-0.3-0.2-0.4-0.3
		c-0.1-0.2-0.2-0.3-0.2-0.6c0-0.3,0.1-0.5,0.3-0.7c0.2-0.2,0.4-0.3,0.7-0.3C406.1,399.8,406.3,399.9,406.5,400.1z"/>
	<path d="M414.3,396.8c0.5,0.5,0.8,1.2,0.8,2c0,0.6-0.1,1.1-0.4,1.6c-0.3,0.5-0.7,0.8-1.3,1.1c-0.6,0.3-1.3,0.4-2.1,0.4
		c-0.7,0-1.4-0.1-2.1-0.3s-1.2-0.5-1.6-0.9l0.7-1.1c0.3,0.3,0.8,0.6,1.3,0.8c0.5,0.2,1.1,0.3,1.7,0.3c0.7,0,1.3-0.2,1.7-0.5
		c0.4-0.3,0.6-0.7,0.6-1.3s-0.2-1-0.6-1.3c-0.4-0.3-1-0.5-1.9-0.5h-0.8v-1l2.5-3.1h-4.8v-1.2h6.6v1l-2.6,3.2
		C413.1,396,413.8,396.3,414.3,396.8z"/>
</g>
<g id="moyka_2_5_">
	<path fill="#F3F3F3" stroke="#838383" d="M45.4,323.9c1,0,1.8-0.8,1.8-1.8v-26c0-1-0.8-1.8-1.8-1.8H23.9c-1,0-1.8,0.8-1.8,1.8v26
		c0,1,0.8,1.8,1.8,1.8H45.4z"/>
	<path fill="#F3F3F3" stroke="#838383" d="M43.6,322.1c1,0,1.8-0.8,1.8-1.8v-22.4c0-1-0.8-1.8-1.8-1.8H28.4c-1,0-1.8,0.8-1.8,1.8
		v22.4c0,1,0.8,1.8,1.8,1.8H43.6z"/>
	<rect x="24.8" y="308.6" fill="#F3F3F3" stroke="#838383" width="7.2" height="1.8"/>
	<circle fill="#F3F3F3" stroke="#838383" cx="36.9" cy="309.1" r="1.3"/>
</g>
<g id="plita_5_">
	<rect x="19.1" y="232.7" fill="#F3F3F3" stroke="#838383" width="32.3" height="31.4"/>
	<circle fill="#F3F3F3" stroke="#838383" cx="27.2" cy="255.2" r="5.4"/>
	<circle fill="#F3F3F3" stroke="#838383" cx="40.6" cy="241.7" r="5.4"/>
	<circle fill="#F3F3F3" stroke="#838383" cx="27.2" cy="241.7" r="4.5"/>
	<circle fill="#F3F3F3" stroke="#838383" cx="40.6" cy="255.2" r="4.5"/>
</g>
<g id="unitaz_8_">
	<path fill="#F3F3F3" stroke="#838383" d="M458.3,439.5v-7.5c0-1.2-1-2.1-2.1-2.1h-19.3c-1.2,0-2.1,1-2.1,2.1v7.5H458.3z"/>
	<path fill="#F3F3F3" stroke="#838383" d="M456.1,429.9c1.2,0,2.1-1,2.1-2.1h-23.5c0,1.2,1,2.1,2.1,2.1H456.1z"/>
	<path fill="#F3F3F3" stroke="#838383" d="M434.7,427.8h23.5c0,0,4.8-27.8-11.8-27.8C429.9,400,434.7,427.8,434.7,427.8z"/>
	<circle fill="#F3F3F3" stroke="#838383" cx="446.5" cy="435.3" r="2.1"/>
</g>
<g id="moyka_8_">
	<path fill="#F3F3F3" stroke="#838383" d="M419.2,439.2c0.6,0,1.2-0.5,1.2-1.2v-23c0-0.6-0.5-1.2-1.2-1.2h-34.5
		c-0.6,0-1.2,0.5-1.2,1.2v23c0,0.6,0.5,1.2,1.2,1.2H419.2z"/>
	<rect x="383.5" y="433.4" fill="#F3F3F3" stroke="#838383" width="36.8" height="2.3"/>
	<ellipse fill="#F3F3F3" stroke="#838383" cx="401.3" cy="423.6" rx="12.1" ry="7.5"/>
	<rect x="400.7" y="426.5" fill="#F3F3F3" stroke="#838383" width="2.3" height="9.2"/>
	<circle fill="#F3F3F3" stroke="#838383" cx="402.5" cy="422.5" r="1.7"/>
</g>
<g id="unitaz_9_">
	<path fill="#F3F3F3" stroke="#838383" d="M18.1,408h7.5c1.2,0,2.1-1,2.1-2.1v-19.3c0-1.2-1-2.1-2.1-2.1h-7.5V408z"/>
	<path fill="#F3F3F3" stroke="#838383" d="M27.7,405.9c0,1.2,1,2.1,2.1,2.1v-23.5c-1.2,0-2.1,1-2.1,2.1V405.9z"/>
	<path fill="#F3F3F3" stroke="#838383" d="M29.8,384.5V408c0,0,27.8,4.8,27.8-11.8C57.7,379.6,29.8,384.5,29.8,384.5z"/>
	<circle fill="#F3F3F3" stroke="#838383" cx="22.3" cy="396.2" r="2.1"/>
</g>
<g id="moyka_9_">
	<path fill="#F3F3F3" stroke="#838383" d="M84.7,336.2c-0.6,0-1.2,0.5-1.2,1.2v23c0,0.6,0.5,1.2,1.2,1.2h34.5c0.6,0,1.2-0.5,1.2-1.2
		v-23c0-0.6-0.5-1.2-1.2-1.2H84.7z"/>
	<rect x="83.6" y="339.6" fill="#F3F3F3" stroke="#838383" width="36.8" height="2.3"/>
	<ellipse fill="#F3F3F3" stroke="#838383" cx="102.6" cy="351.7" rx="12.1" ry="7.5"/>
	<rect x="100.9" y="339.6" fill="#F3F3F3" stroke="#838383" width="2.3" height="9.2"/>
	<circle fill="#F3F3F3" stroke="#838383" cx="101.4" cy="352.8" r="1.7"/>
</g>
<g id="stirka_5_">
	<rect x="472.2" y="337.1" fill="#F3F3F3" stroke="#838383" width="32.8" height="32.8"/>
	<path fill="#F3F3F3" stroke="#838383" d="M501.7,339.3c-1.2,0-2.2,1-2.2,2.2v7.7c0,1.2,1,2.2,2.2,2.2h3.3v-12H501.7z"/>
	<circle fill="#F3F3F3" stroke="#838383" cx="487.5" cy="353.5" r="8.7"/>
	<circle fill="#F3F3F3" stroke="#838383" cx="487.5" cy="353.5" r="6.6"/>
	<circle fill="#F3F3F3" stroke="#838383" cx="499.5" cy="364.4" r="2.2"/>
</g>
<g id="vanna_5_">
	<rect x="312.8" y="340.2" fill="#F3F3F3" stroke="#838383" width="38.6" height="98.5"/>
	<path fill="#F3F3F3" stroke="#838383" d="M326,346.3c-5.6,0-10.2,4.5-10.2,10.2v68h32.5v-68c0-5.6-4.5-10.2-10.2-10.2H326z"/>
	<path fill="#F3F3F3" stroke="#838383" d="M333.1,426h8.1v3.6h-13.7"/>
	<path id="Union_5_" fill="#F3F3F3" stroke="#838383" d="M325.8,430.6c-0.4,1.2-1.5,2-2.9,2c-1.7,0-3-1.4-3-3c0-1.7,1.4-3,3-3
		c1.3,0,2.5,0.8,2.9,2h1.2c0.6,0,1,0.5,1,1s-0.5,1-1,1H325.8z"/>
	<rect x="331.1" y="419.4" fill="#F3F3F3" stroke="#838383" width="2" height="8.1"/>
</g>
<g>
	<g>
		
			<rect x="634.6" y="69.2" transform="matrix(-1 -1.224647e-16 1.224647e-16 -1 1404.8447 243.6628)" fill-rule="evenodd" clip-rule="evenodd" fill="#F1F2F2" stroke="#848484" stroke-miterlimit="10" width="135.6" height="105.3"/>
		
			<rect x="638.4" y="71.6" transform="matrix(-1 -1.224647e-16 1.224647e-16 -1 1403.2295 243.5523)" fill-rule="evenodd" clip-rule="evenodd" fill="#F1F2F2" stroke="#848484" stroke-miterlimit="10" width="126.4" height="100.4"/>
		
			<rect x="733" y="130" transform="matrix(-1 -2.234993e-13 2.234993e-13 -1 1494.5898 299.0184)" fill-rule="evenodd" clip-rule="evenodd" fill="#F1F2F2" stroke="#848484" stroke-miterlimit="10" width="28.5" height="39"/>
		
			<rect x="733" y="74.8" transform="matrix(-1 -9.560165e-14 9.560165e-14 -1 1494.5898 188.6666)" fill-rule="evenodd" clip-rule="evenodd" fill="#F1F2F2" stroke="#848484" stroke-miterlimit="10" width="28.5" height="39"/>
		<polygon fill-rule="evenodd" clip-rule="evenodd" fill="#F1F2F2" stroke="#848484" stroke-miterlimit="10" points="718.5,172 
			735.9,142 735.9,101.5 735.9,142 735.9,101.5 718.5,71.6 638.4,71.6 638.4,71.7 638.4,172 		"/>
		<polyline fill-rule="evenodd" clip-rule="evenodd" fill="#F1F2F2" stroke="#848484" stroke-miterlimit="10" points="718.5,172 
			705.8,151 735.9,142 		"/>
		
			<line fill-rule="evenodd" clip-rule="evenodd" fill="#F1F2F2" stroke="#848484" stroke-miterlimit="10" x1="735.9" y1="142" x2="718.5" y2="172"/>
		<polyline fill-rule="evenodd" clip-rule="evenodd" fill="#F1F2F2" stroke="#848484" stroke-miterlimit="10" points="718.5,71.6 
			705.8,92.6 735.9,101.5 		"/>
		
			<line fill-rule="evenodd" clip-rule="evenodd" fill="#F1F2F2" stroke="#848484" stroke-miterlimit="10" x1="735.9" y1="101.5" x2="718.5" y2="71.6"/>
	</g>
	<g>
		
			<rect x="738.2" y="35.3" transform="matrix(6.123234e-17 -1 1 6.123234e-17 708.0561 805.4845)" fill="#F1F2F2" stroke="#848484" stroke-miterlimit="10" width="37" height="26.9"/>
		
			<rect x="734.7" y="48" transform="matrix(6.123234e-17 -1 1 6.123234e-17 693.576 791.2938)" fill="#F1F2F2" stroke="#848484" stroke-miterlimit="10" width="15.5" height="1.8"/>
	</g>
	<g>
		
			<rect x="738.2" y="181.6" transform="matrix(6.123234e-17 -1 1 6.123234e-17 561.72 951.8206)" fill="#F1F2F2" stroke="#848484" stroke-miterlimit="10" width="37" height="26.9"/>
		
			<rect x="734.7" y="194.3" transform="matrix(-2.344179e-13 -1 1 -2.344179e-13 547.24 937.6299)" fill="#F1F2F2" stroke="#848484" stroke-miterlimit="10" width="15.5" height="1.8"/>
	</g>
</g>
<g>
	
		<rect x="657" y="219.9" fill-rule="evenodd" clip-rule="evenodd" fill="#F1F2F2" stroke="#848484" stroke-miterlimit="10" width="113" height="39"/>
	<line fill="#F1F2F2" stroke="#848484" stroke-miterlimit="10" x1="661.1" y1="258.9" x2="661.1" y2="219.8"/>
	<line fill="#F1F2F2" stroke="#848484" stroke-miterlimit="10" x1="765.8" y1="258.9" x2="765.8" y2="219.9"/>
	<line fill="#F1F2F2" stroke="#848484" stroke-miterlimit="10" x1="661.1" y1="221.7" x2="765.8" y2="221.7"/>
	<line fill="#F1F2F2" stroke="#848484" stroke-miterlimit="10" x1="762.1" y1="239.7" x2="664.8" y2="239.7"/>
	
		<rect x="668.6" y="227.6" transform="matrix(0.9868 -0.162 0.162 0.9868 -29.9445 111.6503)" fill="#F1F2F2" stroke="#848484" stroke-miterlimit="10" width="2.4" height="23.8"/>
	
		<rect x="677.3" y="227.6" transform="matrix(0.9961 -8.815246e-02 8.815246e-02 0.9961 -18.4696 60.75)" fill="#F1F2F2" stroke="#848484" stroke-miterlimit="10" width="2.4" height="23.8"/>
	
		<rect x="686.2" y="227.8" transform="matrix(0.9734 -0.229 0.229 0.9734 -36.6212 163.7923)" fill="#F1F2F2" stroke="#848484" stroke-miterlimit="10" width="2.4" height="23.8"/>
	
		<rect x="696.1" y="227.5" transform="matrix(0.9884 -0.152 0.152 0.9884 -28.2953 108.805)" fill="#F1F2F2" stroke="#848484" stroke-miterlimit="10" width="2.4" height="23.8"/>
	
		<rect x="704.7" y="227.7" transform="matrix(0.999 -4.511170e-02 4.511170e-02 0.999 -10.0881 32.0902)" fill="#F1F2F2" stroke="#848484" stroke-miterlimit="10" width="2.4" height="23.8"/>
	
		<rect x="713.5" y="227.7" transform="matrix(0.9884 -0.152 0.152 0.9884 -28.1137 111.4451)" fill="#F1F2F2" stroke="#848484" stroke-miterlimit="10" width="2.4" height="23.8"/>
	
		<rect x="722.3" y="227.8" transform="matrix(0.999 -4.511170e-02 4.511170e-02 0.999 -10.0762 32.8841)" fill="#F1F2F2" stroke="#848484" stroke-miterlimit="10" width="2.4" height="23.8"/>
	
		<rect x="731" y="227.8" transform="matrix(0.9787 -0.2052 0.2052 0.9787 -33.5993 155.3277)" fill="#F1F2F2" stroke="#848484" stroke-miterlimit="10" width="2.4" height="23.8"/>
	
		<rect x="739.7" y="227.8" transform="matrix(0.9884 -0.152 0.152 0.9884 -27.8249 115.4373)" fill="#F1F2F2" stroke="#848484" stroke-miterlimit="10" width="2.4" height="23.8"/>
	
		<rect x="748.4" y="227.8" transform="matrix(0.9964 -8.473843e-02 8.473843e-02 0.9964 -17.6146 64.3834)" fill="#F1F2F2" stroke="#848484" stroke-miterlimit="10" width="2.4" height="23.8"/>
	
		<rect x="757.1" y="227.5" transform="matrix(0.9713 -0.2379 0.2379 0.9713 -35.1827 187.2918)" fill="#F1F2F2" stroke="#848484" stroke-miterlimit="10" width="2.4" height="23.8"/>
</g>
<g>
	
		<rect x="19.1" y="118.3" fill-rule="evenodd" clip-rule="evenodd" fill="#F1F2F2" stroke="#848484" stroke-miterlimit="10" width="2.1" height="30.1"/>
	
		<rect x="19.1" y="118.3" fill-rule="evenodd" clip-rule="evenodd" fill="#F1F2F2" stroke="#848484" stroke-miterlimit="10" width="2.1" height="30.1"/>
	
		<rect x="52.7" y="118" fill-rule="evenodd" clip-rule="evenodd" fill="#F1F2F2" stroke="#848484" stroke-miterlimit="10" width="2.9" height="9.9"/>
	
		<rect x="52.7" y="118" fill-rule="evenodd" clip-rule="evenodd" fill="#F1F2F2" stroke="#848484" stroke-miterlimit="10" width="2.9" height="9.9"/>
	
		<rect x="21" y="116.7" fill-rule="evenodd" clip-rule="evenodd" fill="#F1F2F2" stroke="#848484" stroke-miterlimit="10" width="33" height="33"/>
	
		<rect x="21" y="116.7" fill-rule="evenodd" clip-rule="evenodd" fill="#F1F2F2" stroke="#848484" stroke-miterlimit="10" width="33" height="33"/>
	<path fill-rule="evenodd" clip-rule="evenodd" fill="#F1F2F2" stroke="#848484" stroke-miterlimit="10" d="M51,149.7l0-33L51,149.7
		z"/>
	<path fill-rule="evenodd" clip-rule="evenodd" fill="#F1F2F2" stroke="#848484" stroke-miterlimit="10" d="M50.8,151.3
		c-0.6,0-1.3-0.6-1.3-1.3c0-0.8,0.6-1.3,1.3-1.3c0.8,0,1.4,0.6,1.4,1.3C52.3,150.7,51.6,151.3,50.8,151.3z"/>
	<path fill-rule="evenodd" clip-rule="evenodd" fill="#F1F2F2" stroke="#848484" stroke-miterlimit="10" d="M50.8,151.3
		c-0.6,0-1.3-0.6-1.3-1.3c0-0.8,0.6-1.3,1.3-1.3c0.8,0,1.4,0.6,1.4,1.3C52.3,150.7,51.6,151.3,50.8,151.3z"/>
	<path fill-rule="evenodd" clip-rule="evenodd" fill="#F1F2F2" stroke="#848484" stroke-miterlimit="10" d="M34,133.1l5.8,0
		L34,133.1z"/>
	<path fill-rule="evenodd" clip-rule="evenodd" fill="#F1F2F2" stroke="#848484" stroke-miterlimit="10" d="M36.8,135.9l0-5.8
		L36.8,135.9z"/>
	<path fill-rule="evenodd" clip-rule="evenodd" fill="#F1F2F2" stroke="#848484" stroke-miterlimit="10" d="M39,135.1l-4.2-4.2
		L39,135.1z"/>
	<path fill-rule="evenodd" clip-rule="evenodd" fill="#F1F2F2" stroke="#848484" stroke-miterlimit="10" d="M39,130.9l-4.2,4.2
		L39,130.9z"/>
	<path fill-rule="evenodd" clip-rule="evenodd" fill="#F1F2F2" stroke="#848484" stroke-miterlimit="10" d="M33.8,141.6h5.8H33.8z"
		/>
	<path fill-rule="evenodd" clip-rule="evenodd" fill="#F1F2F2" stroke="#848484" stroke-miterlimit="10" d="M36.6,144.5l0-5.8
		L36.6,144.5z"/>
	<path fill-rule="evenodd" clip-rule="evenodd" fill="#F1F2F2" stroke="#848484" stroke-miterlimit="10" d="M38.8,143.6l-4.2-4.2
		L38.8,143.6z"/>
	<path fill-rule="evenodd" clip-rule="evenodd" fill="#F1F2F2" stroke="#848484" stroke-miterlimit="10" d="M38.8,139.5l-4.2,4.2
		L38.8,139.5z"/>
	<path fill-rule="evenodd" clip-rule="evenodd" fill="#F1F2F2" stroke="#848484" stroke-miterlimit="10" d="M34,124.7l5.8,0
		L34,124.7z"/>
	<path fill-rule="evenodd" clip-rule="evenodd" fill="#F1F2F2" stroke="#848484" stroke-miterlimit="10" d="M36.8,127.5l0-5.8
		L36.8,127.5z"/>
	<path fill-rule="evenodd" clip-rule="evenodd" fill="#F1F2F2" stroke="#848484" stroke-miterlimit="10" d="M39,126.7l-4.2-4.2
		L39,126.7z"/>
	<path fill-rule="evenodd" clip-rule="evenodd" fill="#F1F2F2" stroke="#848484" stroke-miterlimit="10" d="M39,122.6l-4.2,4.2
		L39,122.6z"/>
</g>
<g>
	<path fill="#F1F2F2" stroke="#848484" stroke-miterlimit="10" d="M304.3,376.2v61.9H276v-61.9c1.2-3.2,5.4-9.9,10.8-13.6
		c6.1-4.2,14.5-4.1,17.5-3.9C304.3,364.6,304.3,370.4,304.3,376.2z M304.3,376.2H276"/>
	<rect x="300.7" y="428.7" fill="#F1F2F2" stroke="#848484" stroke-miterlimit="10" width="3.5" height="2.5"/>
	<rect x="300.7" y="413.4" fill="#F1F2F2" stroke="#848484" stroke-miterlimit="10" width="3.5" height="2.5"/>
	<rect x="300.7" y="398.3" fill="#F1F2F2" stroke="#848484" stroke-miterlimit="10" width="3.5" height="2.5"/>
	<rect x="300.7" y="383" fill="#F1F2F2" stroke="#848484" stroke-miterlimit="10" width="3.5" height="2.5"/>
	<rect x="303.7" y="426.9" fill="#F1F2F2" stroke="#848484" stroke-miterlimit="10" width="0.6" height="6.1"/>
	<rect x="303.7" y="411.7" fill="#F1F2F2" stroke="#848484" stroke-miterlimit="10" width="0.6" height="6.1"/>
	<rect x="303.7" y="396.5" fill="#F1F2F2" stroke="#848484" stroke-miterlimit="10" width="0.6" height="6.1"/>
	<rect x="303.7" y="381.2" fill="#F1F2F2" stroke="#848484" stroke-miterlimit="10" width="0.6" height="6.1"/>
</g>
<g>
	<g>
		<path fill="#F1F2F2" stroke="#848484" stroke-miterlimit="10" d="M122.4,216.3c0-5.8-1.7-10.4-3.9-10.4c-2.1,0-3.9,4.7-3.9,10.4
			c0,5.8,1.7,10.4,3.9,10.4C120.6,226.7,122.4,222,122.4,216.3z"/>
		<path fill="#F1F2F2" stroke="#848484" stroke-miterlimit="10" d="M139.8,216.3c0-5.8-4.7-10.4-10.4-10.4
			c-5.8,0-10.4,4.7-10.4,10.4c0,5.8,4.7,10.4,10.4,10.4C135.1,226.7,139.8,222,139.8,216.3z"/>
	</g>
	<g>
		<path fill="#F1F2F2" stroke="#848484" stroke-miterlimit="10" d="M171.7,216.3c0,5.8,1.7,10.4,3.9,10.4c2.1,0,3.9-4.7,3.9-10.4
			c0-5.8-1.7-10.4-3.9-10.4C173.4,205.8,171.7,210.5,171.7,216.3z"/>
		<path fill="#F1F2F2" stroke="#848484" stroke-miterlimit="10" d="M154.3,216.3c0,5.8,4.7,10.4,10.4,10.4c5.8,0,10.4-4.7,10.4-10.4
			c0-5.8-4.7-10.4-10.4-10.4C158.9,205.8,154.3,210.5,154.3,216.3z"/>
	</g>
	<g>
		<path fill="#F1F2F2" stroke="#848484" stroke-miterlimit="10" d="M122.4,243.7c0-5.8-1.7-10.4-3.9-10.4c-2.1,0-3.9,4.7-3.9,10.4
			c0,5.8,1.7,10.4,3.9,10.4C120.6,254.1,122.4,249.5,122.4,243.7z"/>
		<path fill="#F1F2F2" stroke="#848484" stroke-miterlimit="10" d="M139.8,243.7c0-5.8-4.7-10.4-10.4-10.4
			c-5.8,0-10.4,4.7-10.4,10.4c0,5.8,4.7,10.4,10.4,10.4C135.1,254.1,139.8,249.5,139.8,243.7z"/>
	</g>
	<g>
		<path fill="#F1F2F2" stroke="#848484" stroke-miterlimit="10" d="M171.7,243.7c0,5.8,1.7,10.4,3.9,10.4c2.1,0,3.9-4.7,3.9-10.4
			c0-5.8-1.7-10.4-3.9-10.4C173.4,233.3,171.7,238,171.7,243.7z"/>
		<path fill="#F1F2F2" stroke="#848484" stroke-miterlimit="10" d="M154.3,243.7c0,5.8,4.7,10.4,10.4,10.4c5.8,0,10.4-4.7,10.4-10.4
			c0-5.8-4.7-10.4-10.4-10.4C158.9,233.3,154.3,238,154.3,243.7z"/>
	</g>
	
		<rect x="112.8" y="208.5" transform="matrix(6.123234e-17 -1 1 6.123234e-17 -82.4536 376.5215)" fill="#F1F2F2" stroke="#848484" stroke-miterlimit="10" width="68.4" height="42"/>
</g>
<g>
	<path fill-rule="evenodd" clip-rule="evenodd" fill="#F1F2F2" stroke="#848484" stroke-miterlimit="10" d="M373.2,157v19.4h-16.1
		V157H373.2L373.2,157z M373.2,248.8h-24.1v-72.4h24.1V248.8z"/>
	<path fill-rule="evenodd" clip-rule="evenodd" fill="#F1F2F2" stroke="#848484" stroke-miterlimit="10" d="M364.6,219.8
		c4.2,0,4.6-3.8,4.6-8.5c0-4.6-0.4-8.5-4.6-8.5c-4.2,0-7.6,3.8-7.6,8.5C357,216,360.4,219.8,364.6,219.8z"/>
	
		<rect x="360.6" y="182.8" fill-rule="evenodd" clip-rule="evenodd" fill="#F1F2F2" stroke="#848484" stroke-miterlimit="10" width="3.2" height="56.8"/>
	
		<rect x="360.6" y="182.8" fill-rule="evenodd" clip-rule="evenodd" fill="#F1F2F2" stroke="#848484" stroke-miterlimit="10" width="3.2" height="56.8"/>
	<polygon fill-rule="evenodd" clip-rule="evenodd" fill="#F1F2F2" stroke="#848484" stroke-miterlimit="10" points="363.7,234.9 
		366.3,225.7 366.3,196.9 363.7,187.7 	"/>
	<polygon fill-rule="evenodd" clip-rule="evenodd" fill="#F1F2F2" stroke="#848484" stroke-miterlimit="10" points="363.7,234.9 
		366.3,225.7 366.3,196.9 363.7,187.7 	"/>
	<path fill-rule="evenodd" clip-rule="evenodd" fill="#F1F2F2" stroke="#848484" stroke-miterlimit="10" d="M355.3,158.7v16h-1.6
		v-16H355.3L355.3,158.7z M373.2,248.8v19.4H357v-19.4H373.2L373.2,248.8z M355.3,266.5h-1.6v-16h1.6V266.5z"/>
</g>
<g>
	<g>
		
			<rect x="562.6" y="91.8" fill-rule="evenodd" clip-rule="evenodd" fill="#F1F2F2" stroke="#848484" stroke-miterlimit="10" width="2.9" height="58.1"/>
		<polygon fill-rule="evenodd" clip-rule="evenodd" fill="#F1F2F2" stroke="#848484" stroke-miterlimit="10" points="565.5,145 
			567.8,135.6 567.8,106.1 565.5,96.8 		"/>
		
			<rect x="567.8" y="115.9" fill-rule="evenodd" clip-rule="evenodd" fill="#F1F2F2" stroke="#848484" stroke-miterlimit="10" width="2.6" height="9.9"/>
	</g>
</g>
<g>
	<g>
		
			<rect x="584" y="128.7" fill-rule="evenodd" clip-rule="evenodd" fill="#F1F2F2" stroke="#848484" stroke-miterlimit="10" width="2.9" height="58.1"/>
		<polygon fill-rule="evenodd" clip-rule="evenodd" fill="#F1F2F2" stroke="#848484" stroke-miterlimit="10" points="584,133.6 
			581.7,143 581.7,172.5 584,181.8 		"/>
		
			<rect x="579.2" y="152.8" transform="matrix(-1 -5.064539e-11 5.064539e-11 -1 1160.9088 315.4206)" fill-rule="evenodd" clip-rule="evenodd" fill="#F1F2F2" stroke="#848484" stroke-miterlimit="10" width="2.6" height="9.9"/>
	</g>
</g>
<g>
	<g>
		
			<rect x="641" y="268.1" fill-rule="evenodd" clip-rule="evenodd" fill="#F1F2F2" stroke="#848484" stroke-miterlimit="10" width="130.4" height="50.6"/>
		<polyline fill-rule="evenodd" clip-rule="evenodd" fill="#F1F2F2" stroke="#848484" stroke-miterlimit="10" points="677.4,270.2 
			647.4,270.2 647.4,316.6 692.9,316.6 		"/>
		
			<rect x="650.6" y="273.1" fill-rule="evenodd" clip-rule="evenodd" fill="#F1F2F2" stroke="#848484" stroke-miterlimit="10" width="27.8" height="40.6"/>
		<polygon fill-rule="evenodd" clip-rule="evenodd" fill="#F1F2F2" stroke="#848484" stroke-miterlimit="10" points="676.1,270.2 
			676.1,288.9 676.1,288.9 692.5,316.6 767.8,316.6 767.8,316.5 767.8,270.2 		"/>
		<polygon fill-rule="evenodd" clip-rule="evenodd" fill="#F1F2F2" stroke="#848484" stroke-miterlimit="10" points="692.6,316.1 
			704.1,297.8 676.7,290 		"/>
	</g>
</g>
<g>
	<g>
		<path fill="#F1F2F2" stroke="#848484" stroke-miterlimit="10" d="M563.8,400.4l0,23.9c0,1.1-0.9,2-2,2l-21.5,0c-1.1,0-2-0.9-2-2
			l0-23.9c0-1.1,0.9-2,2-2l21.5,0C562.9,398.4,563.8,399.3,563.8,400.4z"/>
		<path fill="#F1F2F2" stroke="#848484" stroke-miterlimit="10" d="M563.8,399.8l0,25.1c0,0.8,0.6,1.4,1.4,1.4l3.3,0
			c0.8,0,1.4-0.6,1.4-1.4l0-25.1c0-0.8-0.6-1.4-1.4-1.4l-3.3,0C564.5,398.4,563.8,399,563.8,399.8z"/>
	</g>
	
		<rect x="509" y="346.6" transform="matrix(7.339025e-11 -1 1 7.339025e-11 172.799 895.9612)" fill-rule="evenodd" clip-rule="evenodd" fill="#F1F2F2" stroke="#848484" stroke-miterlimit="10" width="50.9" height="30"/>
	
		<rect x="508.6" y="397.8" transform="matrix(7.230578e-11 -1 1 7.230578e-11 121.5583 947.202)" fill-rule="evenodd" clip-rule="evenodd" fill="#F1F2F2" stroke="#848484" stroke-miterlimit="10" width="51.6" height="30"/>
</g>
<g>
</g>
<g>
</g>
<g>
</g>
<g>
</g>
<g>
</g>
<g>
</g>
</svg>
