<svg id="Слой_1" data-name="Слой 1" xmlns="http://www.w3.org/2000/svg" viewBox="0 0 242.32961 235.80001"><title>1.07.09</title><polygon points="0 5.23 239.681 5.23 239.681 235.2 239.681 235.8 82.206 235.8 82.206 200.77 0 200.77 0 5.23" style="fill:#fff;fill-rule:evenodd"/><rect x="183.35451" y="4.0972" width="0.44699" height="1.29712" style="fill:#003915"/><rect x="184.42259" y="4.0972" width="0.44672" height="1.29712" style="fill:#003915"/><rect x="201.95659" y="4.0972" width="0.44702" height="1.29712" style="fill:#003915"/><rect x="203.02461" y="4.0972" width="0.44678" height="1.29712" style="fill:#003915"/><rect x="220.55888" y="4.0972" width="0.44702" height="1.29712" style="fill:#003915"/><rect x="221.627" y="4.0972" width="0.44681" height="1.29712" style="fill:#003915"/><rect x="164.75209" y="4.0972" width="0.44701" height="1.29712" style="fill:#003915"/><rect x="165.82019" y="4.0972" width="0.4467" height="1.29712" style="fill:#003915"/><rect x="157.27229" y="2.8678" width="85.0524" height="0.44672" style="fill:#003915"/><rect x="157.27229" y="3.95911" width="85.0524" height="0.44681" style="fill:#003915"/><rect x="157.27229" y="5.04001" width="85.0524" height="0.44672" style="fill:#003915"/><path d="M185.85809,240.4492H183.3148v6.8201h2.54329Zm4.4416,3.92819h-2.5433v2.89191h2.5433Zm0-3.96109h-2.5433v2.89189h2.5433Zm-10.8235.0329h2.5432v6.8201h-2.5432Zm-2.5294-1.1608H191.2975V250.5087H176.94679Z" transform="translate(-89.9391 -94.69849)" style="fill:#003915;fill-rule:evenodd"/><path d="M234.8541,290.87469h-2.54329v6.82011h2.54329Zm0,17.672h-2.54329v6.8202h2.54329Zm0-8.7423h-2.54329v2.7819h2.54329Zm0,3.9608h-2.54329v2.7819h2.54329Zm4.3123-12.8905h-2.5432v6.82011h2.5432Zm0,17.672h-2.5432v6.8202h2.5432Zm0-8.7423h-2.5432v2.7819h2.5432Zm0,3.9608h-2.5432v2.7819h2.5432Zm-7.9818-15.0497h9.2415v27.8626h-9.2415Z" transform="translate(-89.9391 -94.69849)" style="fill:#003915;fill-rule:evenodd"/><path d="M222.26849,181.8766a.374.374,0,0,1,.3748-.6474l13.92011,8.0399a.374.374,0,0,1-.3748.6474Z" transform="translate(-89.9391 -94.69849)" style="fill:#003915"/><path d="M195.6804,259.6142a.374.374,0,0,0,.37469.6474l13.9201-8.0399a.374.374,0,1,0-.37471-.6474Z" transform="translate(-89.9391 -94.69849)" style="fill:#003915"/><path d="M106.6751,129.4906a.374.374,0,1,1,.37469-.6474l13.9201,8.03989a.374.374,0,1,1-.3747.6474Z" transform="translate(-89.9391 -94.69849)" style="fill:#003915"/><path d="M256.82541,134.66071a.374.374,0,0,1,.37479-.6474l13.9201,8.03989a.374.374,0,0,1-.37479.6474Z" transform="translate(-89.9391 -94.69849)" style="fill:#003915"/><path d="M213.5137,280.2422a.374.374,0,1,0-.37469-.6474l-13.92011,8.0399a.374.374,0,0,0,.37469.6474Z" transform="translate(-89.9391 -94.69849)" style="fill:#003915"/><path d="M131.866,273.8495a.374.374,0,0,1-.6474-.37471l8.0399-13.92009a.374.374,0,1,1,.6474.37469Z" transform="translate(-89.9391 -94.69849)" style="fill:#003915"/><path d="M242.2361,215.64149a.37408.37408,0,0,1-.64751-.3748l8.0399-13.92009a.37408.37408,0,0,1,.64751.3748Z" transform="translate(-89.9391 -94.69849)" style="fill:#003915"/><path d="M242.4214,233.7702a.374.374,0,1,0-.6474.37469l8.0399,13.9201a.374.374,0,0,0,.64749-.37471Z" transform="translate(-89.9391 -94.69849)" style="fill:#003915"/><rect x="150.42329" y="193.17432" width="2.6022" height="38.7467" style="fill:#003915"/><rect x="149.8235" y="40.9158" width="2.6022" height="61.68451" style="fill:#003915"/><rect x="149.8235" y="121.41951" width="2.6022" height="18.0184" style="fill:#003915"/><rect x="150.42329" y="157.11621" width="2.6022" height="38.5117" style="fill:#003915"/><rect x="122.60229" y="95.03972" width="2.60231" height="62.33809" style="fill:#003915"/><rect x="40.3112" y="151.70651" width="2.60219" height="9.21291" style="fill:#003915"/><rect x="2.817" y="150.46721" width="40.09639" height="2.6022" style="fill:#003915"/><rect x="85.5697" y="120.77541" width="38.3338" height="2.6022" style="fill:#003915"/><rect x="118.9173" y="154.77562" width="4.98621" height="2.60219" style="fill:#003915"/><rect x="82.09329" y="154.77562" width="21.63141" height="2.60219" style="fill:#003915"/><rect x="85.5697" y="193.02571" width="11.0611" height="2.6022" style="fill:#003915"/><rect x="125.24879" y="193.02571" width="27.7767" height="2.6022" style="fill:#003915"/><rect x="85.1088" y="193.02571" width="24.5426" height="2.6022" style="fill:#003915"/><rect x="146.5072" y="94.64032" width="5.71629" height="2.60219" style="fill:#003915"/><rect x="122.60229" y="95.03972" width="5.7164" height="2.60219" style="fill:#003915"/><rect x="156.1178" y="120.90501" width="76.99519" height="2.6022" style="fill:#003915"/><rect x="87.1633" y="230.79801" width="147.68221" height="5.002" style="fill:#003915"/><rect y="9.63782" width="4.4654" height="189.1998" style="fill:#003915"/><rect x="82.09329" y="9.63782" width="5.002" height="147.44209" style="fill:#003915"/><rect y="194.50032" width="55.8887" height="6.4256" style="fill:#003915"/><rect x="75.7868" y="194.50032" width="10.70219" height="6.4256" style="fill:#003915"/><rect x="40.2131" y="177.40681" width="6.4256" height="23.5191" style="fill:#003915"/><rect x="81.7968" y="193.02571" width="6.42551" height="42.7743" style="fill:#003915"/><rect x="53.45599" y="30.89423" width="28.20871" height="8.1601" style="fill:#003915"/><rect x="204.75209" y="35.64001" width="37.57751" height="8.1601" style="fill:#003915"/><rect x="149.8235" y="35.64001" width="17.65271" height="8.1601" style="fill:#003915"/><rect y="30.89423" width="16.0934" height="8.1601" style="fill:#003915"/><rect y="5.51993" width="19.506" height="8.1601" style="fill:#003915"/><rect x="67.1411" y="5.51993" width="37.7804" height="8.1601" style="fill:#003915"/><rect x="133.685" y="5.51993" width="22.79851" height="8.1601" style="fill:#003915"/><rect x="231.425" y="36.54001" width="8.1601" height="30.92032" style="fill:#003915"/><rect x="231.425" y="96.41112" width="8.1601" height="29.7088" style="fill:#003915"/><rect x="231.425" y="154.80901" width="8.1601" height="29.7088" style="fill:#003915"/><rect x="231.425" y="213.78701" width="8.1601" height="22.013" style="fill:#003915"/><rect x="150.23759" y="120.90501" width="8.16011" height="12.78419" style="fill:#003915"/><rect x="149.8235" width="8.16" height="43.80011" style="fill:#003915"/><rect x="78.9352" y="10.44" width="8.1601" height="28.61432" style="fill:#003915"/><rect y="7.6427" width="4.3871" height="31.41162" style="fill:#003915"/><rect x="147.3616" width="10.6219" height="13.68002" style="fill:#003915"/><rect y="5.51993" width="6.849" height="33.16138" style="fill:#003915"/><rect x="118.43399" y="8.52182" width="0.50171" height="2.29858" style="fill:#003915"/><rect x="119.6328" y="8.52182" width="0.5011" height="2.29858" style="fill:#003915"/><rect x="132.2699" y="8.52182" width="0.5015" height="2.29858" style="fill:#003915"/><rect x="133.4684" y="8.52182" width="0.50121" height="2.29858" style="fill:#003915"/><rect x="104.3223" y="8.52182" width="0.50171" height="2.29858" style="fill:#003915"/><rect x="105.5208" y="8.52182" width="0.5011" height="2.29858" style="fill:#003915"/><rect x="101.93269" y="5.51993" width="34.0937" height="0.50137" style="fill:#003915"/><rect x="101.93269" y="8.367" width="34.0937" height="0.5014" style="fill:#003915"/><rect x="101.93269" y="10.5383" width="34.0937" height="0.50153" style="fill:#003915"/><rect x="101.93269" y="13.17941" width="34.0937" height="0.5014" style="fill:#003915"/><rect x="234.4269" y="82.24352" width="2.29861" height="0.5018" style="fill:#003915"/><rect x="234.4269" y="81.04532" width="2.29861" height="0.50119" style="fill:#003915"/><rect x="234.4269" y="68.4079" width="2.29861" height="0.50153" style="fill:#003915"/><rect x="234.4269" y="67.20972" width="2.29861" height="0.50119" style="fill:#003915"/><rect x="234.4269" y="96.35532" width="2.29861" height="0.50169" style="fill:#003915"/><rect x="234.4269" y="95.15732" width="2.29861" height="0.50119" style="fill:#003915"/><rect x="231.425" y="65.15292" width="0.5014" height="34.09369" style="fill:#003915"/><rect x="234.27211" y="65.15292" width="0.50137" height="34.09369" style="fill:#003915"/><rect x="236.44341" y="65.15292" width="0.5015" height="34.09369" style="fill:#003915"/><rect x="239.08449" y="65.15292" width="0.5014" height="34.09369" style="fill:#003915"/><rect x="234.4269" y="140.85831" width="2.29861" height="0.5018" style="fill:#003915"/><rect x="234.4269" y="139.66011" width="2.29861" height="0.50121" style="fill:#003915"/><rect x="234.4269" y="127.02272" width="2.29861" height="0.5015" style="fill:#003915"/><rect x="234.4269" y="125.82451" width="2.29861" height="0.50121" style="fill:#003915"/><rect x="234.4269" y="154.97011" width="2.29861" height="0.50171" style="fill:#003915"/><rect x="234.4269" y="153.77211" width="2.29861" height="0.50121" style="fill:#003915"/><rect x="231.425" y="123.76772" width="0.5014" height="34.0937" style="fill:#003915"/><rect x="234.27211" y="123.76772" width="0.50137" height="34.0937" style="fill:#003915"/><rect x="236.44341" y="123.76772" width="0.5015" height="34.0937" style="fill:#003915"/><rect x="239.08449" y="123.76772" width="0.5014" height="34.0937" style="fill:#003915"/><rect x="234.4269" y="199.29822" width="2.29861" height="0.5018" style="fill:#003915"/><rect x="234.4269" y="198.10001" width="2.29861" height="0.50121" style="fill:#003915"/><rect x="234.4269" y="185.46262" width="2.29861" height="0.5015" style="fill:#003915"/><rect x="234.4269" y="184.26442" width="2.29861" height="0.50119" style="fill:#003915"/><rect x="234.4269" y="213.41001" width="2.29861" height="0.5017" style="fill:#003915"/><rect x="234.4269" y="212.21201" width="2.29861" height="0.5012" style="fill:#003915"/><rect x="231.425" y="182.20761" width="0.5014" height="34.0937" style="fill:#003915"/><rect x="234.27211" y="182.20761" width="0.50137" height="34.0937" style="fill:#003915"/><rect x="236.44341" y="182.20761" width="0.5015" height="34.0937" style="fill:#003915"/><rect x="239.08449" y="182.20761" width="0.5014" height="34.0937" style="fill:#003915"/><path d="M124.9713,128.9404v1.66989h-.697V128.9404Zm17.2256,0v1.66989H125.4728V128.9404Zm1.1982,0v1.66989h-.6971V128.9404Zm.50171,1.66989V128.9404h2.1331v-.5014H124.2743v-2.3457h21.75561v-.5014H123.7731v8.16092h22.25681v-.5014H124.2743v-2.13962h21.70831v-.5015Z" transform="translate(-89.9391 -94.69849)" style="fill:#003915;fill-rule:evenodd"/><path d="M276.2674,133.68619v1.66992h-.697v-1.66992Zm17.22562,0v1.66992H276.76889v-1.66992Zm1.19818,0v1.66992h-.69708v-1.66992Zm.50171,1.66992v-1.66992H297.326v-.5015H275.5704v-2.34558H297.326v-.50153H275.06921v8.161H297.326v-.5015H275.5704v-2.13959H297.2786v-.5014Z" transform="translate(-89.9391 -94.69849)" style="fill:#003915;fill-rule:evenodd"/><rect x="239.7982" y="24.18661" width="1.29718" height="0.44699" style="fill:#003915"/><rect x="239.7982" y="23.1188" width="1.29718" height="0.44672" style="fill:#003915"/><rect x="239.7982" y="5.58371" width="1.29718" height="0.44699" style="fill:#003915"/><rect x="239.7982" y="4.51581" width="1.29718" height="0.44681" style="fill:#003915"/><rect x="241.87801" y="2.8678" width="0.44669" height="34.51242" style="fill:#003915"/><rect x="240.7867" y="2.8678" width="0.44669" height="34.51242" style="fill:#003915"/><rect x="239.7058" y="2.8678" width="0.44681" height="34.51242" style="fill:#003915"/><path d="M212.21381,325.336h-9.8224a.90535.90535,0,0,1-.90541-.904v-4.6102a4.59576,4.59576,0,0,1,4.58961-4.591h2.45229a4.59574,4.59574,0,0,1,4.59041,4.591v4.6102a.90476.90476,0,0,1-.9045.904m-6.1382-9.8606a4.35108,4.35108,0,0,0-4.34491,4.3464v4.6102a.66151.66151,0,0,0,.66071.66h9.8224a.66083.66083,0,0,0,.6599-.66v-4.6102a4.35147,4.35147,0,0,0-4.34581-4.3464Z" transform="translate(-89.9391 -94.69849)" style="fill:#003915"/><path d="M206.0759,316.5656a3.25879,3.25879,0,0,0-3.2545,3.2562v2.6881a.56794.56794,0,0,0,.56731.5675h3.5753v.2452h-3.5753a.814.814,0,0,1-.81241-.8127v-2.6881a3.50406,3.50406,0,0,1,3.4996-3.5008h2.4523a3.50461,3.50461,0,0,1,3.5007,3.5008v2.6881a.81447.81447,0,0,1-.81351.8127h-3.57529v-.2452h3.57529a.56828.56828,0,0,0,.56831-.5675v-2.6881a3.25933,3.25933,0,0,0-3.25551-3.2562Z" transform="translate(-89.9391 -94.69849)" style="fill:#003915"/><path d="M207.3027,320.1693a.7835.7835,0,1,1,.7838-.78349.78481.78481,0,0,1-.7838.78349m0-1.3224a.53875.53875,0,1,0,.5392.5389A.53968.53968,0,0,0,207.3027,318.8469Z" transform="translate(-89.9391 -94.69849)" style="fill:#003915"/><rect x="117.2412" y="224.12952" width="0.2449" height="1.11649" style="fill:#003915"/><rect x="116.80519" y="224.56491" width="1.11601" height="0.2454" style="fill:#003915"/><path d="M207.64011,324.1537h.40359a.17365.17365,0,0,0,.1729-.1741v-.3792a.17372.17372,0,0,0-.1729-.1741h-.40359v-.2449h.40359a.4187.4187,0,0,1,.41811.419v.3792a.41864.41864,0,0,1-.41811.4187h-.40559l.002-.0374Zm-1.07721-.7274a.17447.17447,0,0,0-.174.1741v.3792a.1744.1744,0,0,0,.174.1741h.40111v.2072l.00229.0374h-.4034a.41863.41863,0,0,1-.4187-.4187v-.3792a.41869.41869,0,0,1,.4187-.419h.40111v.2449Z" transform="translate(-89.9391 -94.69849)" style="fill:#003915"/><path d="M207.3027,324.8212a.461.461,0,0,1-.4612-.4603v-3.0804a.46049.46049,0,0,1,.921,0v3.0804a.46047.46047,0,0,1-.45979.4603m0-3.7567a.21668.21668,0,0,0-.2162.216v3.0804a.21555.21555,0,0,0,.43109,0v-3.0804A.21608.21608,0,0,0,207.3027,321.0645Z" transform="translate(-89.9391 -94.69849)" style="fill:#003915"/><path d="M124.1152,288.91679h-9.8223a.90528.90528,0,0,1-.9054-.904V283.4025a4.59576,4.59576,0,0,1,4.5896-4.591h2.4523a4.59573,4.59573,0,0,1,4.5904,4.591v4.61031a.90478.90478,0,0,1-.9046.904m-6.1381-9.8606a4.35093,4.35093,0,0,0-4.34489,4.3463v4.61031a.66136.66136,0,0,0,.6607.6599h9.8223a.66067.66067,0,0,0,.6599-.6599V283.4025a4.3513,4.3513,0,0,0-4.3457-4.3463Z" transform="translate(-89.9391 -94.69849)" style="fill:#003915"/><path d="M117.9774,280.14639a3.25877,3.25877,0,0,0-3.2545,3.2561v2.68811a.56785.56785,0,0,0,.5672.56749h3.5754v.24521h-3.5754a.81411.81411,0,0,1-.8124-.8127V283.4025a3.50406,3.50406,0,0,1,3.4997-3.5007h2.4522a3.50467,3.50467,0,0,1,3.50079,3.5007v2.68811a.81447.81447,0,0,1-.8135.8127h-3.5754v-.24521h3.5754a.56821.56821,0,0,0,.56831-.56749V283.4025a3.25933,3.25933,0,0,0-3.2556-3.2561Z" transform="translate(-89.9391 -94.69849)" style="fill:#003915"/><path d="M119.2042,283.75011a.7835.7835,0,1,1,.7838-.78351.78481.78481,0,0,1-.7838.78351m0-1.3224a.53875.53875,0,1,0,.5392.53889A.5397.5397,0,0,0,119.2042,282.4277Z" transform="translate(-89.9391 -94.69849)" style="fill:#003915"/><rect x="29.1427" y="187.71022" width="0.2449" height="1.11659" style="fill:#003915"/><rect x="28.7067" y="188.14561" width="1.116" height="0.2455" style="fill:#003915"/><path d="M119.5415,287.73441h.4037a.17364.17364,0,0,0,.1729-.174v-.37929a.17364.17364,0,0,0-.1729-.174h-.4037v-.24489h.4037a.4186.4186,0,0,1,.4181.4189v.37929a.41863.41863,0,0,1-.4181.4187h-.4056l.0019-.0374Zm-1.0771-.72731a.17447.17447,0,0,0-.1741.174v.37929a.17447.17447,0,0,0,.1741.174h.4011v.20729l.0022.0374h-.4033a.41863.41863,0,0,1-.4187-.4187v-.37929a.4186.4186,0,0,1,.4187-.4189h.4011v.24489Z" transform="translate(-89.9391 -94.69849)" style="fill:#003915"/><path d="M119.2042,288.402a.46109.46109,0,0,1-.4612-.4603v-3.08049a.4605.4605,0,0,1,.921,0v3.08049a.46054.46054,0,0,1-.4598.4603m0-3.75679a.21683.21683,0,0,0-.2163.216v3.08049a.2156.2156,0,0,0,.4312,0v-3.08049A.21614.21614,0,0,0,119.2042,284.6452Z" transform="translate(-89.9391 -94.69849)" style="fill:#003915"/><path d="M224.3401,311.3368a3.9169,3.9169,0,0,1,3.9115,3.913v5.6653a.67728.67728,0,0,1-.4561.6392,1.2459,1.2459,0,0,1,.2036.205.94605.94605,0,0,0,.5215-.8442v-5.6653a4.1808,4.1808,0,1,0-8.3616,0v5.6653a.94542.94542,0,0,0,.521.8436,1.23808,1.23808,0,0,1,.2032-.2047.67618.67618,0,0,1-.45549-.6389v-5.6653a3.91709,3.91709,0,0,1,3.9124-3.913" transform="translate(-89.9391 -94.69849)" style="fill:#003915"/><path d="M221.5363,319.8343h5.609a.204.204,0,0,0,.2012-.2016V315.362a3.00655,3.00655,0,1,0-6.01309,0v4.2707a.20473.20473,0,0,0,.2029.2016m5.5415-.2682h-5.476V315.362a2.738,2.738,0,0,1,5.476,0Z" transform="translate(-89.9391 -94.69849)" style="fill:#003915"/><path d="M224.34039,317.1034a1.00815,1.00815,0,1,0-1.0089-1.008,1.01005,1.01005,0,0,0,1.0089,1.008m0-1.7476a.7394.7394,0,1,1-.7399.7396A.74046.74046,0,0,1,224.34039,315.3558Z" transform="translate(-89.9391 -94.69849)" style="fill:#003915"/><rect x="225.82749" y="317.05843" width="0.26857" height="2.24219" transform="translate(-235.35336 103.57785) rotate(-36.72545)" style="fill:#003915"/><rect x="221.64093" y="318.04473" width="2.24309" height="0.26914" transform="translate(-255.39058 211.18787) rotate(-53.18983)" style="fill:#003915"/><path d="M221.6395,325.336h5.4006a1.355,1.355,0,0,0,1.3524-1.3538v-1.4743a1.35343,1.35343,0,0,0-1.3524-1.35239h-5.4006a1.35311,1.35311,0,0,0-1.35179,1.35239v1.4743a1.3547,1.3547,0,0,0,1.35179,1.3538m5.4006-3.9121a1.08543,1.08543,0,0,1,1.0842,1.084v1.4743a1.08585,1.08585,0,0,1-1.0842,1.0851h-5.4006a1.086,1.086,0,0,1-1.08369-1.0851v-1.4743a1.08558,1.08558,0,0,1,1.08369-1.084Z" transform="translate(-89.9391 -94.69849)" style="fill:#003915"/><path d="M224.34039,323.9337a.6881.6881,0,1,0-.68829-.6874.6881.6881,0,0,0,.68829.6874m0-1.1072a.41925.41925,0,1,1-.41949.4198A.41941.41941,0,0,1,224.34039,322.8265Z" transform="translate(-89.9391 -94.69849)" style="fill:#003915"/><path d="M108.7291,265.03059a3.9169,3.9169,0,0,0-3.913-3.9115H99.1508a.67728.67728,0,0,0-.63921.4561,1.241,1.241,0,0,0-.205-.20349.94594.94594,0,0,1,.8442-.52161h5.6653a4.1808,4.1808,0,1,1,0,8.3616H99.1508a.94541.94541,0,0,1-.84361-.521,1.23812,1.23812,0,0,0,.2047-.2032.67618.67618,0,0,0,.6389.45549h5.6653a3.91709,3.91709,0,0,0,3.913-3.9124" transform="translate(-89.9391 -94.69849)" style="fill:#003915"/><path d="M100.2317,267.8344v-5.6089a.20393.20393,0,0,1,.2015-.20129h4.27071a3.00655,3.00655,0,1,1,0,6.01309H100.4332a.20465.20465,0,0,1-.2015-.2029m.2681-5.5415v5.476h4.2041a2.738,2.738,0,0,0,0-5.476Z" transform="translate(-89.9391 -94.69849)" style="fill:#003915"/><path d="M102.9626,265.0303a1.0081,1.0081,0,1,1,1.008,1.0089,1.01,1.01,0,0,1-1.008-1.0089m1.7475,0a.7394.7394,0,1,0-.7395.7399A.7403.7403,0,0,0,104.7101,265.0303Z" transform="translate(-89.9391 -94.69849)" style="fill:#003915"/><rect x="101.75209" y="262.28783" width="0.26857" height="2.24219" transform="translate(-260.10378 92.85979) rotate(-53.27455)" style="fill:#003915"/><rect x="100.76507" y="266.4737" width="2.24306" height="0.2691" transform="translate(-229.36219 19.4943) rotate(-36.80799)" style="fill:#003915"/><path d="M94.7299,267.7312v-5.4006a1.355,1.355,0,0,1,1.35381-1.3524H97.558a1.35344,1.35344,0,0,1,1.3524,1.3524v5.4006A1.35311,1.35311,0,0,1,97.558,269.083H96.0837a1.3547,1.3547,0,0,1-1.35381-1.35179m3.9121-5.4006a1.08542,1.08542,0,0,0-1.084-1.0842H96.0837a1.08586,1.08586,0,0,0-1.08511,1.0842v5.4006a1.08594,1.08594,0,0,0,1.08511,1.08369H97.558a1.0855,1.0855,0,0,0,1.084-1.08369Z" transform="translate(-89.9391 -94.69849)" style="fill:#003915"/><path d="M96.1322,265.0303a.6881.6881,0,1,1,.6874.68829.68807.68807,0,0,1-.6874-.68829m1.1072,0a.41925.41925,0,1,0-.4198.4196A.41942.41942,0,0,0,97.2394,265.0303Z" transform="translate(-89.9391 -94.69849)" style="fill:#003915"/><path d="M178.44321,322.5714v-30.085a2.16108,2.16108,0,0,1,2.1657-2.1515h10.41139a2.16094,2.16094,0,0,1,2.16591,2.1515v30.085a2.16082,2.16082,0,0,1-2.16591,2.15121H180.6089a2.161,2.161,0,0,1-2.1657-2.15121m14.51309-30.085a1.93106,1.93106,0,0,0-1.936-1.9218H180.6089a1.931,1.931,0,0,0-1.9355,1.9218v30.085a1.93142,1.93142,0,0,0,1.9355,1.9222h10.41139a1.93153,1.93153,0,0,0,1.936-1.9222Z" transform="translate(-89.9391 -94.69849)" style="fill:#003915"/><path d="M191.69431,295.4722a2.577,2.577,0,0,0-2.582-2.5654H182.5174a2.57658,2.57658,0,0,0-2.5817,2.5654v24.1132a2.577,2.577,0,0,0,2.5817,2.5659h2.062a.39554.39554,0,0,0-.142.2282h-1.92a2.80639,2.80639,0,0,1-2.8125-2.79411V295.4722a2.80665,2.80665,0,0,1,2.8125-2.7944h6.59491a2.80658,2.80658,0,0,1,2.81219,2.7944v24.1132a2.80632,2.80632,0,0,1-2.81219,2.79411h-1.92021a.39524.39524,0,0,0-.14149-.2282h2.06171a2.57747,2.57747,0,0,0,2.582-2.5659Z" transform="translate(-89.9391 -94.69849)" style="fill:#003915"/><path d="M190.381,297.01959a1.26656,1.26656,0,0,0-1.26869-1.26109H182.5174a1.26632,1.26632,0,0,0-1.26819,1.26109v22.5658a1.26626,1.26626,0,0,0,1.26819,1.26141h2.84491v.2287H182.5174a1.49618,1.49618,0,0,1-1.4989-1.4901v-22.5658a1.49563,1.49563,0,0,1,1.4989-1.48929h6.59491a1.49523,1.49523,0,0,1,1.4989,1.48929v22.5658a1.49579,1.49579,0,0,1-1.4989,1.4901h-2.8452v-.2287h2.8452a1.2665,1.2665,0,0,0,1.26869-1.26141Z" transform="translate(-89.9391 -94.69849)" style="fill:#003915"/><path d="M185.082,317.6802a.73331.73331,0,1,1,.7336.7299.73145.73145,0,0,1-.7336-.7299m1.2364,0a.50331.50331,0,1,0-.50281.5003A.5019.5019,0,0,0,186.31841,317.6802Z" transform="translate(-89.9391 -94.69849)" style="fill:#003915"/><rect x="95.3532" y="222.86752" width="1.0457" height="0.22929" style="fill:#003915"/><rect x="95.76109" y="222.46331" width="0.2307" height="1.0377" style="fill:#003915"/><path d="M185.3623,322.1802h-.5374a.27993.27993,0,0,0-.28041.2787v.5051a.28042.28042,0,0,0,.28041.27921h.5374v.2288h-.5374a.51042.51042,0,0,1-.51111-.508v-.5051a.50964.50964,0,0,1,.51111-.5074h.5374Zm1.722.2787a.27978.27978,0,0,0-.28-.2787h-.5372v-.2287h.5372a.50925.50925,0,0,1,.51079.5074v.5051a.51.51,0,0,1-.51079.508h-.5372v-.2288h.5372a.28028.28028,0,0,0,.28-.27921Z" transform="translate(-89.9391 -94.69849)" style="fill:#003915"/><path d="M185.2469,323.47v-3.2012a.56766.56766,0,0,1,1.1353,0V323.47a.56766.56766,0,0,1-1.1353,0m.90509-3.2012a.33715.33715,0,0,0-.67429,0V323.47a.33715.33715,0,0,0,.67429,0Z" transform="translate(-89.9391 -94.69849)" style="fill:#003915"/><path d="M95.5054,233.049h11.7692V244.8179H95.5054Zm11.5198.2495H95.7546V244.569h11.2706Z" transform="translate(-89.9391 -94.69849)" style="fill:#003915"/><path d="M101.3899,243.7198a3.91956,3.91956,0,0,0,.9816-7.7142.30005.30005,0,0,0,.0743-.1976v-.0405a4.16847,4.16847,0,1,1-2.1115-.00031v.0408a.2979.2979,0,0,0,.074.1973,3.91973,3.91973,0,0,0,.9816,7.71451" transform="translate(-89.9391 -94.69849)" style="fill:#003915"/><path d="M101.3899,236.31909a3.48151,3.48151,0,1,1-3.4812,3.48181,3.48572,3.48572,0,0,1,3.4812-3.48181m0,6.7135a3.2319,3.2319,0,1,0-3.2318-3.23169A3.23546,3.23546,0,0,0,101.3899,243.03259Z" transform="translate(-89.9391 -94.69849)" style="fill:#003915"/><path d="M101.3899,238.8983a.9023.9023,0,1,1-.9026.9026.90334.90334,0,0,1,.9026-.9026m0,1.55569a.653.653,0,1,0-.6531-.65309A.65424.65424,0,0,0,101.3899,240.454Z" transform="translate(-89.9391 -94.69849)" style="fill:#003915"/><rect x="11.3261" y="144.44501" width="0.2494" height="1.3139" style="fill:#003915"/><rect x="10.794" y="144.97711" width="1.3136" height="0.24969" style="fill:#003915"/><path d="M100.6362,234.9942h1.5074a.427.427,0,0,1,.4266.42661v.38719a.42686.42686,0,0,1-.4266.42661h-1.5074a.427.427,0,0,1-.4267-.42661v-.38719a.42708.42708,0,0,1,.4267-.42661m1.5074.991a.17773.17773,0,0,0,.1775-.1772v-.38719a.17753.17753,0,0,0-.1775-.1772h-1.5074a.17728.17728,0,0,0-.1772.1772v.38719a.17747.17747,0,0,0,.1772.1772Z" transform="translate(-89.9391 -94.69849)" style="fill:#003915"/><path d="M101.6099,235.1189v-.0865a.2197.2197,0,0,0-.4394,0v.0865h-.2497v-.0865a.4694.4694,0,0,1,.9388,0v.0865Zm-.22,2.59a.22049.22049,0,0,0,.22-.22049v-1.37851h.24969v1.37851a.4694.4694,0,1,1-.9388,0v-1.37851h.2497v1.37851A.22.22,0,0,0,101.3899,237.70889Z" transform="translate(-89.9391 -94.69849)" style="fill:#003915"/><path d="M124.1702,233.5303H117.0136a1.49613,1.49613,0,0,0-1.4941,1.4948v8.29871a1.496,1.496,0,0,0,1.4941,1.49409h7.15659a1.49562,1.49562,0,0,0,1.4942-1.49409V235.0251a1.49577,1.49577,0,0,0-1.4942-1.4948m-7.15659,11.0546a1.26262,1.26262,0,0,1-1.2611-1.26109V235.0251a1.26275,1.26275,0,0,1,1.2611-1.2617h7.15659a1.263,1.263,0,0,1,1.2617,1.2617v8.29871a1.26288,1.26288,0,0,1-1.2617,1.26109Z" transform="translate(-89.9391 -94.69849)" style="fill:#003915"/><path d="M124.1702,234.3493H117.0136a.67622.67622,0,0,0-.6758.6758v7.0106a.67643.67643,0,0,0,.6758.6758h7.15659a.67649.67649,0,0,0,.67641-.6758v-7.0106a.67629.67629,0,0,0-.67641-.6758m-7.15659,8.1292a.44322.44322,0,0,1-.443-.44279v-7.0106a.44342.44342,0,0,1,.443-.4431h7.15659a.4438.4438,0,0,1,.4439.4431v7.0106a.44361.44361,0,0,1-.4439.44279Z" transform="translate(-89.9391 -94.69849)" style="fill:#003915"/><path d="M117.7138,243.1302a.4742.4742,0,1,0,.4742.4742.475.475,0,0,0-.4742-.4742m0,.71539a.2412.2412,0,1,1,.2415-.2412A.24185.24185,0,0,1,117.7138,243.8456Z" transform="translate(-89.9391 -94.69849)" style="fill:#003915"/><path d="M119.3145,243.1302a.4742.4742,0,1,0,.4748.4742.475.475,0,0,0-.4748-.4742m0,.71539a.2412.2412,0,1,1,.2418-.2412A.24153.24153,0,0,1,119.3145,243.8456Z" transform="translate(-89.9391 -94.69849)" style="fill:#003915"/><rect x="27.3279" y="141.79321" width="2.7196" height="0.2327" style="fill:#003915"/><rect x="28.5715" y="140.54912" width="0.2327" height="2.7195" style="fill:#003915"/><path d="M118.6268,235.711a.8969.8969,0,1,0,.8966.8969.898.898,0,0,0-.8966-.8969m0,1.5611a.6643.6643,0,1,1,.6639-.6642A.66556.66556,0,0,1,118.6268,237.27209Z" transform="translate(-89.9391 -94.69849)" style="fill:#003915"/><rect x="27.3279" y="145.63841" width="2.7196" height="0.23241" style="fill:#003915"/><rect x="28.5715" y="144.39401" width="0.2327" height="2.7204" style="fill:#003915"/><path d="M118.6268,239.5554a.89715.89715,0,1,0,.8966.8974.89857.89857,0,0,0-.8966-.8974m0,1.56189a.66475.66475,0,1,1,.6639-.66449A.66543.66543,0,0,1,118.6268,241.11729Z" transform="translate(-89.9391 -94.69849)" style="fill:#003915"/><rect x="31.2587" y="141.79321" width="2.7193" height="0.2327" style="fill:#003915"/><rect x="32.5023" y="140.54912" width="0.233" height="2.7195" style="fill:#003915"/><path d="M122.5579,235.711a.8969.8969,0,1,0,.8969.8969.89784.89784,0,0,0-.8969-.8969m0,1.5611a.6643.6643,0,1,1,.6639-.6642A.66607.66607,0,0,1,122.5579,237.27209Z" transform="translate(-89.9391 -94.69849)" style="fill:#003915"/><rect x="31.2587" y="145.63841" width="2.7193" height="0.23241" style="fill:#003915"/><rect x="32.5023" y="144.39401" width="0.233" height="2.7204" style="fill:#003915"/><path d="M122.5579,239.5554a.89715.89715,0,1,0,.8969.8974.89845.89845,0,0,0-.8969-.8974m0,1.56189a.66475.66475,0,1,1,.6639-.66449A.66594.66594,0,0,1,122.5579,241.11729Z" transform="translate(-89.9391 -94.69849)" style="fill:#003915"/><path d="M122.0281,243.1302a.4742.4742,0,1,0,.4745.4742.47484.47484,0,0,0-.4745-.4742m0,.71539a.2412.2412,0,1,1,.2418-.2412A.24166.24166,0,0,1,122.0281,243.8456Z" transform="translate(-89.9391 -94.69849)" style="fill:#003915"/><path d="M123.6297,243.1302a.4742.4742,0,1,0,.4739.4742.47466.47466,0,0,0-.4739-.4742m0,.71539a.2412.2412,0,1,1,.2415-.2412A.24159.24159,0,0,1,123.6297,243.8456Z" transform="translate(-89.9391 -94.69849)" style="fill:#003915"/><path d="M116.4427,248.4182h2.8752v2.49991h-2.8752Zm-4.0938,0h2.8752v2.49991h-2.8752Zm-4.4218,0h2.4843v2.49991h-2.4843Zm-8.7692,0h2.4843v2.49991H99.1579Zm3.7188,0h3.8627v2.49991h-3.8627Zm13.566,4.4498h2.8752v2.49991h-2.8752Zm-4.0938,0h2.8752v2.49991h-2.8752Zm-4.4218,0h2.4843v2.49991h-2.4843Zm-8.7692,0h2.4843v2.49991H99.1579Zm3.7188,0h3.8627v2.49991h-3.8627Zm17.5663,3.64421H97.9427V246.8243H120.443Z" transform="translate(-89.9391 -94.69849)" style="fill:#003915;fill-rule:evenodd"/><path d="M96.7209,249.4752a.809.809,0,1,0,.2348.57089.81.81,0,0,0-.2348-.57089m-.5726-1.0363a1.60689,1.60689,0,1,1-1.1364.47049A1.603,1.603,0,0,1,96.1483,248.4389Z" transform="translate(-89.9391 -94.69849)" style="fill:#003915"/><path d="M236.04041,323.0269a.80925.80925,0,1,0,.2347.5709.81025.81025,0,0,0-.2347-.5709m-.5726-1.0363a1.60707,1.60707,0,1,1-1.1364.4705A1.60311,1.60311,0,0,1,235.4678,321.9906Z" transform="translate(-89.9391 -94.69849)" style="fill:#003915"/><path d="M236.04041,323.0269a.80925.80925,0,1,0,.2347.5709.81025.81025,0,0,0-.2347-.5709m-.5726-1.0363a1.60707,1.60707,0,1,1-1.1364.4705A1.60311,1.60311,0,0,1,235.4678,321.9906Z" transform="translate(-89.9391 -94.69849)" style="fill:#003915"/><rect x="147.28839" y="221.03941" width="4.66391" height="10.8816" style="fill:#003915"/><path d="M126.0595,269.9238c-.7319,0-1.2359-.618-1.2359-1.7399s.504-1.7399,1.2359-1.7399,1.2359.6179,1.2359,1.7399-.504,1.7399-1.2359,1.7399m0,.396c.972,0,1.6798-.798,1.6798-2.13589s-.7078-2.13589-1.6798-2.13589-1.67381.7979-1.67381,2.13589S125.0875,270.31979,126.0595,270.31979Zm-3.9719-.396c-.7319,0-1.2359-.618-1.2359-1.7399s.504-1.7399,1.2359-1.7399,1.2359.6179,1.2359,1.7399S122.8195,269.9238,122.0876,269.9238Zm0,.396c.972,0,1.6798-.798,1.6798-2.13589s-.7078-2.13589-1.6798-2.13589-1.6738.7979-1.6738,2.13589S121.1156,270.31979,122.0876,270.31979Zm-2.5497-.6599a.31408.31408,0,0,0-.3181.324.30322.30322,0,0,0,.216.30589l-.2041.8699h.288l.252-.828a.976.976,0,0,0,.08421-.34779A.314.314,0,0,0,119.5379,269.6599Zm-2.2862-1.77589,1.188-1.4942v-.3058h-2.7v.3838h2.1481l-1.1639,1.4581v.3181h.2999c.77979,0,1.1339.3299,1.1339.83389,0,.5219-.3838.8459-1.08.8459a1.84129,1.84129,0,0,1-1.302-.4859l-.21.3419a2.18449,2.18449,0,0,0,1.512.54c1.0139,0,1.5239-.54,1.5239-1.2419C118.6016,268.40579,118.1517,267.9319,117.2517,267.884Z" transform="translate(-89.9391 -94.69849)" style="fill:#6e6e6e;fill-rule:evenodd"/><path d="M204.7484,233.424c-.7319,0-1.2359-.61789-1.2359-1.7399s.504-1.7399,1.2359-1.7399,1.2359.618,1.2359,1.7399-.504,1.7399-1.2359,1.7399m0,.396c.972,0,1.6799-.7979,1.6799-2.13589s-.7079-2.13589-1.6799-2.13589-1.6738.798-1.6738,2.13589S203.7764,233.82,204.7484,233.82Zm-3.9659-2.514h-.54l.144-1.338h1.91989v-.3838h-2.29779l-.216,2.1059h.8941c1.06779,0,1.40369.33591,1.40369.8759,0,.51-.3779.858-1.09189.858a1.82138,1.82138,0,0,1-1.2901-.48579l-.2097.3418a2.16806,2.16806,0,0,0,1.50569.54c1.0262,0,1.52391-.55779,1.52391-1.2719C202.52831,231.804,202.0484,231.306,200.7825,231.306Zm-2.04581,1.8541a.31406.31406,0,0,0-.318.324.30311.30311,0,0,0,.216.30589l-.2041.87h.288l.252-.828a.97651.97651,0,0,0,.0842-.3479A.314.314,0,0,0,198.73669,233.1601Zm-3.24.2399,1.4281-1.40379a1.72917,1.72917,0,0,0,.69-1.3141c0-.7019-.54-1.1339-1.39211-1.1339a1.88729,1.88729,0,0,0-1.4879.59979l.3058.26421a1.42648,1.42648,0,0,1,1.1461-.468c.642,0,.98389.2999.98389.7861,0,.2877-.08989.5697-.5638,1.0377l-1.7462,1.71019v.3058h2.94611V233.4Z" transform="translate(-89.9391 -94.69849)" style="fill:#6e6e6e;fill-rule:evenodd"/><path d="M212.13519,170.4238c-.73189,0-1.23589-.618-1.23589-1.7399s.504-1.7399,1.23589-1.7399,1.2359.61789,1.2359,1.7399-.504,1.7399-1.2359,1.7399m0,.396c.972,0,1.6799-.798,1.6799-2.13589s-.7079-2.13589-1.6799-2.13589-1.6738.79788-1.6738,2.13589S211.16319,170.81979,212.13519,170.81979Zm-4.098-4.23581v.38382h.9901v3.816h.432V166.584Zm-.61169,3.57591a.31408.31408,0,0,0-.3181.324.30312.30312,0,0,0,.216.3058l-.2041.87h.288l.252-.828a.976.976,0,0,0,.0842-.34779A.314.314,0,0,0,207.42551,170.1599Zm-2.6221-1.8542h-.54l.144-1.33789h1.91991V166.584h-2.2977l-.216,2.1058h.894c1.06781,0,1.4037.33591,1.4037.87592,0,.51-.37779.85809-1.0919.85809a1.821,1.821,0,0,1-1.29-.4859l-.20979.3419a2.16864,2.16864,0,0,0,1.5058.54c1.02609,0,1.5239-.55789,1.5239-1.2719C206.5493,168.8038,206.0694,168.30569,204.80341,168.30569Zm-3.528-1.72171v.38382h.99019v3.816h.432V166.584Z" transform="translate(-89.9391 -94.69849)" style="fill:#6e6e6e;fill-rule:evenodd"/><path d="M141.4661,171.4352c-.73189,0-1.2359-.618-1.2359-1.7399s.504-1.73988,1.2359-1.73988,1.2359.61789,1.2359,1.73988-.504,1.7399-1.2359,1.7399m0,.396c.972,0,1.67981-.798,1.67981-2.13589s-.70781-2.13591-1.67981-2.13591-1.6738.79791-1.6738,2.13591S140.49409,171.83119,141.4661,171.83119Zm-3.97189-.396c-.7319,0-1.2359-.618-1.2359-1.7399s.504-1.73988,1.2359-1.73988,1.2359.61789,1.2359,1.73988S138.2261,171.4352,137.4942,171.4352Zm0,.396c.972,0,1.67979-.798,1.67979-2.13589s-.70779-2.13591-1.67979-2.13591-1.6739.79791-1.6739,2.13591S136.5222,171.83119,137.4942,171.83119Zm-2.5498-.6599a.314.314,0,0,0-.318.324.3031.3031,0,0,0,.216.3058l-.2041.87h.288l.252-.828a.976.976,0,0,0,.0842-.34779A.314.314,0,0,0,134.9444,171.1713Zm-3.24.23981,1.4281-1.4037a1.72919,1.72919,0,0,0,.69-1.31419c0-.70181-.54-1.13382-1.39209-1.13382a1.88719,1.88719,0,0,0-1.4879.59982l.3058.26419a1.42612,1.42612,0,0,1,1.14609-.468c.642,0,.9839.2999.9839.786,0,.28772-.08989.56981-.5638,1.03781l-1.7462,1.7101v.30589h2.94611v-.38409Zm-3.40781,0,1.4281-1.4037a1.72921,1.72921,0,0,0,.69-1.31419c0-.70181-.54-1.13382-1.39211-1.13382a1.88721,1.88721,0,0,0-1.4879.59982l.3058.26419a1.42613,1.42613,0,0,1,1.1461-.468c.642,0,.9839.2999.9839.786,0,.28772-.0899.56981-.56381,1.03781l-1.74619,1.7101v.30589h2.9461v-.38409Z" transform="translate(-89.9391 -94.69849)" style="fill:#6e6e6e;fill-rule:evenodd"/><path d="M156.7063,279.4238c-.7319,0-1.2359-.6179-1.2359-1.7399s.504-1.7399,1.2359-1.7399,1.2359.618,1.2359,1.7399-.504,1.7399-1.2359,1.7399m0,.396c.972,0,1.67979-.7979,1.67979-2.13589s-.70779-2.13589-1.67979-2.13589-1.6739.798-1.6739,2.13589S155.7343,279.81979,156.7063,279.81979Zm-3.63-2.43579,1.188-1.49411V275.584h-2.7v.3838h2.148L152.5484,277.426v.318h.2999c.77991,0,1.1339.33,1.1339.834,0,.52179-.38379.84579-1.08.84579a1.84149,1.84149,0,0,1-1.30191-.48579l-.2101.3418a2.1845,2.1845,0,0,0,1.512.54c1.014,0,1.5239-.54,1.5239-1.24179C154.4261,277.9059,153.9763,277.4319,153.07629,277.384Zm-2.4299,1.77589a.31415.31415,0,0,0-.3181.324.30323.30323,0,0,0,.216.30589l-.204.8699h.288l.252-.828a.977.977,0,0,0,.08411-.34779A.314.314,0,0,0,150.64639,279.1599Zm-.8461-.864h-.84v-.972h-.4198v.972h-1.8241l2.1481-2.7119h-.48021l-2.22569,2.78391v.3118h2.36971v1.1041h.432v-1.1041h.84Z" transform="translate(-89.9391 -94.69849)" style="fill:#6e6e6e;fill-rule:evenodd"/><path d="M292.1301,276.3831c-.7319,0-1.2359-.6179-1.2359-1.7399s.504-1.7399,1.2359-1.7399,1.2359.61789,1.2359,1.7399-.504,1.7399-1.2359,1.7399m0,.396c.972,0,1.67981-.7979,1.67981-2.13589s-.70779-2.13591-1.67981-2.13591-1.67389.79791-1.67389,2.13591S291.15811,276.7791,292.1301,276.7791Zm-3.97189-.396c-.7319,0-1.2359-.6179-1.2359-1.7399s.504-1.7399,1.2359-1.7399,1.2359.61789,1.2359,1.7399S288.89011,276.3831,288.1582,276.3831Zm0,.396c.972,0,1.67981-.7979,1.67981-2.13589s-.70782-2.13591-1.67981-2.13591-1.67389.79791-1.67389,2.13591S287.18619,276.7791,288.1582,276.7791Zm-2.5498-.6599a.314.314,0,0,0-.318.324.30309.30309,0,0,0,.216.30589l-.2041.8699h.288l.252-.828a.9759.9759,0,0,0,.08423-.34779A.314.314,0,0,0,285.6084,276.1192Zm-2.75409-3.5759v.38379h.99008v3.816h.432v-4.1998ZM280.2626,276.359l1.428-1.40369a1.72892,1.72892,0,0,0,.69-1.3141c0-.7019-.54-1.13391-1.39212-1.13391a1.88733,1.88733,0,0,0-1.48788.59981l.30588.26419a1.426,1.426,0,0,1,1.146-.468c.64209,0,.98389.2999.98389.786,0,.2878-.08981.56979-.56381,1.0378l-1.74609,1.7101v.30591h2.946V276.359Z" transform="translate(-89.9391 -94.69849)" style="fill:#6e6e6e;fill-rule:evenodd"/><path d="M202.8662,270.7368c-.7319,0-1.2359-.618-1.2359-1.7399s.504-1.7399,1.2359-1.7399,1.2359.61789,1.2359,1.7399-.504,1.7399-1.2359,1.7399m0,.396c.972,0,1.67981-.798,1.67981-2.13589s-.70781-2.13591-1.67981-2.13591-1.6738.79791-1.6738,2.13591S201.8942,271.1328,202.8662,271.1328ZM197.6584,266.897v1.1698h.4261v-.786h2.16l-1.728,3.816h.468l1.758-3.894v-.3058Zm-.74969,3.5759a.31408.31408,0,0,0-.3181.324.30312.30312,0,0,0,.216.3058l-.2041.87h.288l.252-.828a.97605.97605,0,0,0,.0842-.34779A.314.314,0,0,0,196.90871,270.4729Zm-2.562-1.4281c-.648,0-1.05589-.3541-1.05589-.906a.91905.91905,0,0,1,1.02589-.9119c.72591,0,1.11.438,1.11.9A.97208.97208,0,0,1,194.34669,269.0448Zm-.0479-2.18381a1.30844,1.30844,0,0,0-1.434,1.2897,1.27145,1.27145,0,0,0,1.41589,1.26,1.34224,1.34224,0,0,0,1.2841-.72c.0119.12619.01779.24609.01779.34219,0,1.1398-.58189,1.722-1.4879,1.722a1.47184,1.47184,0,0,1-.8158-.1981l-.174.3481a1.92793,1.92793,0,0,0,.99579.22791c1.14011,0,1.91991-.74409,1.91991-2.17189C196.0206,267.6348,195.41479,266.861,194.2988,266.861Z" transform="translate(-89.9391 -94.69849)" style="fill:#6e6e6e;fill-rule:evenodd"/><path d="M215.95779,304.424c-.73189,0-1.2359-.618-1.2359-1.7399s.504-1.7399,1.2359-1.7399,1.2359.6179,1.2359,1.7399-.504,1.7399-1.2359,1.7399m0,.396c.972,0,1.67981-.798,1.67981-2.1359s-.70781-2.13589-1.67981-2.13589-1.67389.7979-1.67389,2.13589S214.98579,304.82,215.95779,304.82ZM210.75,300.5842v1.1698h.426v-.786h2.16l-1.728,3.816h.468l1.758-3.894v-.3058Zm-.7498,3.5759a.31408.31408,0,0,0-.3181.324.30312.30312,0,0,0,.216.3058l-.2041.87h.288l.252-.828a.97614.97614,0,0,0,.08421-.3478A.314.314,0,0,0,210.0002,304.1601Zm-.84619-.864h-.8399v-.972h-.4198v.972h-1.8241l2.1481-2.7119h-.48021l-2.22569,2.78391v.3118h2.36969v1.1041h.432v-1.1041h.8399Z" transform="translate(-89.9391 -94.69849)" style="fill:#6e6e6e;fill-rule:evenodd"/><path d="M305.2905,200.49429c-.7319,0-1.2359-.618-1.2359-1.74s.504-1.7399,1.2359-1.7399,1.2359.618,1.2359,1.7399-.504,1.74-1.2359,1.74m0,.396c.972,0,1.67981-.798,1.67981-2.136s-.70779-2.13591-1.67981-2.13591-1.67389.798-1.67389,2.13591S304.31851,200.8903,305.2905,200.8903Zm-4.5-.42011,1.4281-1.40379a1.72869,1.72869,0,0,0,.68991-1.3141c0-.7019-.54-1.13391-1.39212-1.13391a1.88712,1.88712,0,0,0-1.48788.5999l.30591.26411a1.42623,1.42623,0,0,1,1.146-.468c.64209,0,.98389.2999.98389.7861,0,.28769-.08978.56979-.56378,1.0378l-1.74612,1.7101v.30589h2.946v-.38409Zm-1.55991-.2399a.31413.31413,0,0,0-.31808.324.30315.30315,0,0,0,.216.30589l-.2041.87h.288l.252-.828a.97636.97636,0,0,0,.08423-.3479A.314.314,0,0,0,299.23059,200.2303Zm-2.6221-1.8541h-.54l.144-1.33791h1.91989v-.3839h-2.2977l-.216,2.1059h.894c1.06781,0,1.40372.33591,1.40372.8759,0,.51-.37781.85809-1.09192.85809a1.821,1.821,0,0,1-1.29-.4859l-.20978.3419a2.1686,2.1686,0,0,0,1.5058.54c1.02609,0,1.5239-.55791,1.5239-1.272C298.3544,198.8743,297.87451,198.37621,296.60849,198.37621Zm-3.528-1.7218v.3839h.9902v3.816h.432V196.6544Z" transform="translate(-89.9391 -94.69849)" style="fill:#6e6e6e;fill-rule:evenodd"/><path d="M290.3808,117.9151c-.7319,0-1.2359-.618-1.2359-1.7399s.504-1.7399,1.2359-1.7399,1.2359.61789,1.2359,1.7399-.504,1.7399-1.2359,1.7399m0,.396c.972,0,1.67981-.798,1.67981-2.13589s-.70779-2.13589-1.67981-2.13589-1.6738.79788-1.6738,2.13589S289.40881,118.3111,290.3808,118.3111Zm-3.62381-.366c-.72589,0-1.11-.4379-1.11-.9a.97206.97206,0,0,1,1.08-.91782c.648,0,1.05591.3537,1.05591.90591A.91885.91885,0,0,1,286.757,117.9451Zm.036-2.18411a1.34284,1.34284,0,0,0-1.28409.72c-.0119-.12579-.01782-.2457-.01782-.3418,0-1.14011.58191-1.72208,1.48791-1.72208a1.47079,1.47079,0,0,1,.8158.19818l.174-.34808a1.92688,1.92688,0,0,0-.99582-.22791c-1.14011,0-1.91989.7438-1.91989,2.17191,0,1.326.6058,2.09988,1.7218,2.09988a1.30851,1.30851,0,0,0,1.434-1.2901A1.27162,1.27162,0,0,0,286.793,115.761Zm-2.61581,1.89023a.314.314,0,0,0-.31808.324.30314.30314,0,0,0,.216.30582l-.204.87h.288l.252-.828a.9777.9777,0,0,0,.08411-.34781A.314.314,0,0,0,284.17719,117.65121Zm-2.62207-1.85422h-.54l.144-1.33789h1.92v-.38382h-2.29779l-.216,2.1058h.894c1.06781,0,1.40381.33591,1.40381.87592,0,.51-.3779.85809-1.092.85809a1.821,1.821,0,0,1-1.29-.4859l-.20981.34189a2.16853,2.16853,0,0,0,1.5058.54c1.02609,0,1.5239-.55789,1.5239-1.27191C283.301,116.29511,282.82111,115.797,281.55511,115.797Z" transform="translate(-89.9391 -94.69849)" style="fill:#6e6e6e;fill-rule:evenodd"/><path d="M137.83321,117.9151c-.7319,0-1.2359-.618-1.2359-1.7399s.504-1.7399,1.2359-1.7399,1.2359.61789,1.2359,1.7399-.504,1.7399-1.2359,1.7399m0,.396c.972,0,1.67979-.798,1.67979-2.13589s-.70779-2.13589-1.67979-2.13589-1.67381.79788-1.67381,2.13589S136.86121,118.3111,137.83321,118.3111Zm-3.97191-.396c-.7319,0-1.2359-.618-1.2359-1.7399s.504-1.7399,1.2359-1.7399,1.2359.61789,1.2359,1.7399S134.5932,117.9151,133.8613,117.9151Zm0,.396c.972,0,1.67981-.798,1.67981-2.13589s-.70781-2.13589-1.67981-2.13589-1.6738.79788-1.6738,2.13589S132.8893,118.3111,133.8613,118.3111Zm-2.5497-.65988a.31406.31406,0,0,0-.3181.324.30314.30314,0,0,0,.216.30582l-.2041.87h.288l.252-.828a.97591.97591,0,0,0,.0842-.34781A.314.314,0,0,0,131.3116,117.65121Zm-2.28619-1.77591,1.188-1.4942v-.30582h-2.7v.38382h2.1481l-1.16389,1.4581v.31808h.2999c.7798,0,1.1339.32989,1.1339.83392,0,.52188-.38379.84589-1.08.84589a1.84131,1.84131,0,0,1-1.302-.4859l-.21.34189a2.18484,2.18484,0,0,0,1.512.54c1.0139,0,1.52391-.54,1.52391-1.24188C130.37531,116.39709,129.9254,115.92319,129.02541,115.87531Z" transform="translate(-89.9391 -94.69849)" style="fill:#6e6e6e;fill-rule:evenodd"/><rect x="35.7596" y="8.38031" width="0.5017" height="2.29861" style="fill:#003915"/><rect x="34.5614" y="8.38031" width="0.5011" height="2.29861" style="fill:#003915"/><rect x="51.3062" y="8.38031" width="0.50169" height="2.29861" style="fill:#003915"/><rect x="50.108" y="8.38031" width="0.50119" height="2.29861" style="fill:#003915"/><rect x="20.2132" y="8.38031" width="0.5015" height="2.29861" style="fill:#003915"/><rect x="19.015" y="8.38031" width="0.5012" height="2.29861" style="fill:#003915"/><rect x="66.85249" y="8.38031" width="0.5018" height="2.29861" style="fill:#003915"/><rect x="65.6546" y="8.38031" width="0.50119" height="2.29861" style="fill:#003915"/><rect x="17.5288" y="13.17941" width="50.8045" height="0.5014" style="fill:#003915"/><rect x="17.5288" y="10.33231" width="50.8045" height="0.5014" style="fill:#003915"/><rect x="17.5288" y="8.16092" width="50.8045" height="0.5015" style="fill:#003915"/><rect x="17.5288" y="5.51993" width="50.8045" height="0.50137" style="fill:#003915"/><path d="M158.4839,291.7166a3.90785,3.90785,0,1,0-3.90761,3.90781,3.90806,3.90806,0,0,0,3.90761-3.90781" transform="translate(-89.9391 -94.69849)" style="fill:#558e42;fill-rule:evenodd"/><polygon points="64.637 194.614 65.015 195.929 65.394 197.244 64.637 197.244 63.88 197.244 64.258 195.929 64.637 194.614" style="fill:#fdfdfd;fill-rule:evenodd"/><rect x="64.43199" y="197.14081" width="0.38411" height="2.28131" style="fill:#fdfdfd"/><path d="M325.50409,111.57959v.4902h-.567v.2449h.567v1.06409l-1.58209-1.2529v.27982l1.624,1.29849h.182v-1.38239h.644v-.252h-.644v-.4902Zm0,2.31342v.49008h-.567v.2449h.567v1.06412l-1.58209-1.2529v.27979l1.624,1.29861h.182V114.6351h.644v-.252h-.644V113.893Zm.504,2.58661a.18316.18316,0,0,0,.189.18539.17657.17657,0,0,0,.17828-.12592l.50769.11911v-.16809l-.483-.14713a.57407.57407,0,0,0-.203-.0491A.18322.18322,0,0,0,326.00809,116.47961ZM323.922,118.086h.224v-.57739h2.226v-.252h-2.45Z" transform="translate(-89.9391 -94.69849)" style="fill:#434242"/><path d="M316.92871,175.85519c0,.42351-.2554.64771-.525.64771a.56718.56718,0,0,1-.5354-.6301c0-.3779.2063-.616.52832-.616a.53618.53618,0,0,1,.5321.59839m-1.27393-.02089a.78366.78366,0,0,0,.4198.74919c-.07339.00681-.14337.01041-.19949.01041-.6648,0-1.00439-.3396-1.00439-.8679a.86032.86032,0,0,1,.11542-.4762l-.203-.1015a1.12658,1.12658,0,0,0-.1329.5811c0,.665.434,1.1199,1.26709,1.1199.77332,0,1.22479-.35341,1.22479-1.00461a.76333.76333,0,0,0-.75259-.8365A.74179.74179,0,0,0,315.65479,175.8343Zm1.27393,2.317c0,.434-.18912.68939-.4935.68939-.30112,0-.49011-.2554-.49011-.68939s.189-.6931.49011-.6931C316.73959,177.45821,316.92871,177.7173,316.92871,178.15131Zm-1.624.6055c-.273,0-.441-.23471-.441-.6055,0-.36771.168-.60921.4444-.60921.2662,0,.43768.22771.43768.60921C315.74579,178.53259,315.57431,178.75681,315.30469,178.75681Zm.5321-1.078a.555.555,0,0,0-.53918-.39211c-.3988,0-.6474.34641-.6474.86461,0,.5179.2486.8575.6474.8575a.55307.55307,0,0,0,.53918-.3853.61093.61093,0,0,0,.60181.4726c.434,0,.70349-.3569.70349-.94479,0-.5845-.2695-.95221-.70349-.95221A.61686.61686,0,0,0,315.83679,177.6788Zm.92041,1.9879a.18316.18316,0,0,0,.18909.18539.17676.17676,0,0,0,.17831-.1259l.50769.11911v-.16811l-.48309-.14709a.5737.5737,0,0,0-.20291-.0491A.1832.1832,0,0,0,316.7572,179.6667Zm-1.0361,1.3334-.87131-.69281h-.17859v1.575h.22391v-1.253l.85068.67889h.18542v-.1749c0-.4552.19247-.66161.48639-.66161.30438,0,.4935.224.4935.6299a1.07418,1.07418,0,0,1-.28342.7597l.19952.12241a1.2743,1.2743,0,0,0,.31488-.88211c0-.59129-.31488-.889-.72449-.889C316.0256,180.2126,315.74921,180.4751,315.7211,181.00011Z" transform="translate(-89.9391 -94.69849)" style="fill:#434242"/><path d="M316.92871,271.5957c0,.434-.18912.68939-.4935.68939-.30112,0-.49011-.2554-.49011-.68939s.189-.6931.49011-.6931c.30438,0,.4935.25909.4935.6931m-1.624.6055c-.273,0-.441-.2348-.441-.6055,0-.36771.168-.60921.4444-.60921.2662,0,.43768.2276.43768.60921C315.74579,271.9769,315.57431,272.2012,315.30469,272.2012Zm.5321-1.07811a.55494.55494,0,0,0-.53918-.392c-.3988,0-.6474.34641-.6474.86461,0,.5179.2486.8575.6474.8575a.55307.55307,0,0,0,.53918-.3853.611.611,0,0,0,.60181.4726c.434,0,.70349-.3569.70349-.94479,0-.5845-.2695-.95221-.70349-.95221A.61688.61688,0,0,0,315.83679,271.12309Zm-.11569,2.5444-.87131-.69279h-.17859v1.575h.22391v-1.253l.85068.67891h.18542v-.1749c0-.4552.19247-.66161.48639-.66161.30438,0,.4935.224.4935.6299a1.07421,1.07421,0,0,1-.28342.7597l.19952.12239a1.27424,1.27424,0,0,0,.31488-.8821c0-.59129-.31488-.889-.72449-.889C316.0256,272.88,315.74921,273.1425,315.7211,273.6675Zm1.0361,1.4176a.18316.18316,0,0,0,.18909.18539.17666.17666,0,0,0,.17831-.1259l.50769.11911v-.16811l-.48309-.14709a.57339.57339,0,0,0-.20291-.049A.18317.18317,0,0,0,316.7572,275.0851Zm-1.08139,1.5293v.31491l-.7807-.08391v-1.1199h-.22391v1.3405l1.22849.12581v-.5213c0-.623.19592-.8192.51111-.8192.29739,0,.50031.2206.50031.6373a1.06146,1.06146,0,0,1-.28342.7523l.19952.12239a1.26434,1.26434,0,0,0,.31488-.8784c0-.59839-.32538-.889-.74179-.889C315.966,275.5959,315.67581,275.876,315.67581,276.6144Z" transform="translate(-89.9391 -94.69849)" style="fill:#434242"/><path d="M197.5524,307.6081c0,.434-.1891.6894-.4935.6894-.301,0-.4901-.2554-.4901-.6894s.1891-.693.4901-.693c.3044,0,.4935.2591.4935.693m-1.624.6055c-.2729,0-.441-.2347-.441-.6055,0-.3676.16811-.6091.4444-.6091.2662,0,.43771.2276.43771.6091C196.36951,307.9894,196.198,308.2136,195.92841,308.2136Zm.53209-1.078a.55494.55494,0,0,0-.53909-.392c-.3989,0-.64751.3464-.64751.8645,0,.5179.24861.8575.64751.8575a.553.553,0,0,0,.53909-.3852.611.611,0,0,0,.60181.4725c.434,0,.7036-.3569.7036-.9448,0-.5845-.26959-.9521-.7036-.9521A.61688.61688,0,0,0,196.4605,307.1356Zm-1.16559,3.46851h.68259v-.2486h-.45869v-1.26l2.2261,1.008v-.273l-2.27141-1.0253h-.17859Zm2.086.43739a.18322.18322,0,0,0,.1891.1854.17678.17678,0,0,0,.1783-.1259l.50769.119v-.168l-.48309-.1472a.57515.57515,0,0,0-.2029-.049A.18321.18321,0,0,0,197.38091,311.0415Zm-2.086,1.6064h.22389v-.5775h2.2261v-.252h-2.45Z" transform="translate(-89.9391 -94.69849)" style="fill:#434242"/><path d="M109.3022,275.0381c0,.4339-.189.68939-.4935.68939-.301,0-.4901-.25549-.4901-.68939s.18909-.6931.4901-.6931c.3045,0,.4935.25909.4935.6931m-1.6239.60539c-.273,0-.4411-.2347-.4411-.60539,0-.36771.1681-.60921.4445-.60921.2661,0,.4376.2276.4376.60921C108.1193,275.4193,107.9478,275.64349,107.6783,275.64349Zm.532-1.078a.55476.55476,0,0,0-.53909-.392c-.3989,0-.64751.34641-.64751.86461,0,.5179.2486.85739.64751.85739a.55279.55279,0,0,0,.53909-.38519.61112.61112,0,0,0,.60181.4726c.434,0,.7036-.3569.7036-.94479,0-.5845-.2696-.95219-.7036-.95219A.617.617,0,0,0,108.2103,274.56551Zm1.0919,2.5407c0,.42349-.2554.64771-.5249.64771a.56718.56718,0,0,1-.5355-.63011c0-.3779.2064-.616.5284-.616A.53606.53606,0,0,1,109.3022,277.1062Zm-1.2739-.021a.78351.78351,0,0,0,.4199.74919c-.07349.00681-.14349.0105-.1996.0105-.6647,0-1.0043-.3396-1.0043-.86789a.86021.86021,0,0,1,.1154-.4763l-.203-.10141a1.12561,1.12561,0,0,0-.133.5811c0,.665.434,1.1199,1.26711,1.1199.7733,0,1.2249-.35339,1.2249-1.00459a.76339.76339,0,0,0-.7526-.8365A.74176.74176,0,0,0,108.0283,277.08521Zm1.1024,1.5262a.18317.18317,0,0,0,.1891.18539.17666.17666,0,0,0,.1783-.1259l.5077.11909v-.16809l-.483-.14711a.57372.57372,0,0,0-.203-.049A.18319.18319,0,0,0,109.1307,278.6114Zm-2.086,1.6064h.224v-.57741h2.226v-.252h-2.45Z" transform="translate(-89.9391 -94.69849)" style="fill:#434242"/><path d="M99.5723,190.48509c0,.434-.1891.68941-.49351.68941-.301,0-.4901-.2554-.4901-.68941s.1891-.6931.4901-.6931c.30441,0,.49351.25911.49351.6931m-1.624.60551c-.2729,0-.441-.23471-.441-.60551,0-.3676.1681-.6091.4444-.6091.2662,0,.4377.2276.4377.6091C98.3894,190.86639,98.2179,191.09061,97.9483,191.09061Zm.5321-1.078a.555.555,0,0,0-.5391-.392c-.3989,0-.6475.3463-.6475.86449,0,.51791.2486.85751.6475.85751a.553.553,0,0,0,.5391-.38521.611.611,0,0,0,.6018.4725c.434,0,.7036-.3569.7036-.94481,0-.58449-.2696-.95209-.7036-.95209A.61687.61687,0,0,0,98.4804,190.0126Zm-.161,2.74019v.315l-.7807-.08389v-1.12h-.2239v1.3405l1.2285.1259v-.5213c0-.62311.1959-.81921.5111-.81921.2974,0,.50031.2205.50031.63721a1.0614,1.0614,0,0,1-.2834.7523l.1995.1225a1.2645,1.2645,0,0,0,.315-.87849c0-.5984-.3255-.889-.7419-.889C98.6097,191.7343,98.3194,192.0144,98.3194,192.75279Zm1.08141,1.19371a.18316.18316,0,0,0,.18909.18539.17666.17666,0,0,0,.17831-.1259l.5077.11911V193.957l-.483-.14709a.57406.57406,0,0,0-.203-.0491A.18321.18321,0,0,0,99.4008,193.9465Zm-1.08141,1.5293v.3149l-.7807-.08389v-1.1199h-.2239v1.3405l1.2285.12579v-.52129c0-.623.1959-.81921.5111-.81921.2974,0,.50031.2205.50031.63721a1.0616,1.0616,0,0,1-.2834.7524l.1995.12241a1.26443,1.26443,0,0,0,.315-.8784c0-.5984-.3255-.889-.7419-.889C98.6097,194.45731,98.3194,194.7374,98.3194,195.4758Z" transform="translate(-89.9391 -94.69849)" style="fill:#434242"/><path d="M182.0724,160.35709c0,.42352-.2554.64771-.525.64771a.56723.56723,0,0,1-.5354-.6301c0-.3779.20631-.616.52831-.616a.53607.53607,0,0,1,.5321.59839m-1.27391-.021a.78347.78347,0,0,0,.41982.74921c-.07341.00681-.1434.0105-.19951.0105-.66479,0-1.0043-.3396-1.0043-.868a.86076.86076,0,0,1,.11531-.47623l-.20291-.1015a1.126,1.126,0,0,0-.133.58112c0,.665.434,1.12,1.26711,1.12.7733,0,1.2249-.35349,1.2249-1.00461a.76339.76339,0,0,0-.75261-.83649A.74176.74176,0,0,0,180.79849,160.33609Zm.06641,2.156-.8714-.69269h-.1786v1.57489h.22391v-1.2529l.85069.67889h.18541v-.1749c0-.45529.19249-.66159.48639-.66159.3045,0,.4935.22391.4935.62979a1.07424,1.07424,0,0,1-.2834.7597l.19951.1225a1.27471,1.27471,0,0,0,.315-.8822c0-.59131-.315-.88889-.72461-.88889C181.1693,161.70471,180.8929,161.96719,180.8649,162.4921Zm1.036,1.41769a.18316.18316,0,0,0,.1891.1853.17668.17668,0,0,0,.1783-.12579l.50771.119v-.16809l-.48311-.14709a.57523.57523,0,0,0-.2029-.049A.18323.18323,0,0,0,181.90089,163.90979ZM180.8195,165.439v.315l-.7807-.08389v-1.12h-.22391v1.34048l1.2285.12592v-.5213c0-.62311.19591-.81921.51111-.81921.29739,0,.50029.22049.50029.63721a1.06124,1.06124,0,0,1-.2834.75229l.19951.1225a1.26443,1.26443,0,0,0,.315-.87848c0-.59842-.3255-.88892-.7419-.88892C181.1098,164.42059,180.8195,164.70059,180.8195,165.439Z" transform="translate(-89.9391 -94.69849)" style="fill:#434242"/><path d="M237.07249,145.77109c0,.42352-.2554.6478-.525.6478a.56732.56732,0,0,1-.53551-.63019c0-.37781.20641-.616.52841-.616a.53616.53616,0,0,1,.53209.59839m-1.2739-.02087a.7835.7835,0,0,0,.4198.74918c-.07339.00681-.1434.01041-.1996.01041-.6647,0-1.0043-.33951-1.0043-.86789a.86054.86054,0,0,1,.1154-.4762l-.203-.1015a1.12565,1.12565,0,0,0-.13289.58109c0,.665.434,1.1199,1.26709,1.1199.7733,0,1.22481-.35339,1.22481-1.00461a.76333.76333,0,0,0-.75261-.83649A.74172.74172,0,0,0,235.7986,145.75021Zm1.2563,2.35559c0,.42679-.3606.7211-1.0148.7211-.6545,0-1.01511-.29431-1.01511-.7211s.36061-.72092,1.01511-.72092C236.69431,147.38489,237.0549,147.67889,237.0549,148.1058Zm.231,0c0-.567-.46541-.98-1.2458-.98-.7807,0-1.24609.413-1.24609.98s.46539.9765,1.24609.9765C236.8205,149.08231,237.2859,148.6727,237.2859,148.1058Zm-.3849,1.48761a.18315.18315,0,0,0,.189.18539.17668.17668,0,0,0,.1783-.12592l.50771.11911v-.16809l-.483-.14722a.57576.57576,0,0,0-.203-.049A.1832.1832,0,0,0,236.901,149.59341Zm-.504.49319v.49008h-.567v.2449h.567v1.06421l-1.582-1.253v.27979l1.6239,1.29861h.182V150.8287h.644v-.252h-.644v-.49008Z" transform="translate(-89.9391 -94.69849)" style="fill:#434242"/><path d="M210.53481,232.2845c0,.4269-.36061.72121-1.0148.72121-.65451,0-1.01511-.29431-1.01511-.72121s.3606-.72079,1.01511-.72079c.65419,0,1.0148.2939,1.0148.72079m.231,0c0-.56689-.46539-.9799-1.24579-.9799-.7807,0-1.24611.413-1.24611.9799s.46541.97659,1.24611.97659C210.3004,233.26109,210.76579,232.8515,210.76579,232.2845Zm-.21339,2.1138c0,.42349-.2554.64771-.525.64771a.56731.56731,0,0,1-.53551-.63011c0-.3779.20641-.616.5284-.616A.53613.53613,0,0,1,210.5524,234.3983Zm-1.2739-.021a.78342.78342,0,0,0,.4198.74919c-.07341.00681-.1434.0105-.1996.0105-.6647,0-1.0043-.3396-1.0043-.86789a.861.861,0,0,1,.1154-.4763l-.203-.10139a1.12545,1.12545,0,0,0-.1329.5811c0,.665.434,1.11989,1.26711,1.11989.7733,0,1.22479-.3535,1.22479-1.00459a.76333.76333,0,0,0-.75259-.8365A.74173.74173,0,0,0,209.2785,234.3773Zm1.1024,1.5262a.18317.18317,0,0,0,.1891.18539.17675.17675,0,0,0,.1783-.1259l.5076.11909V235.914l-.483-.14709a.57364.57364,0,0,0-.2029-.0491A.18321.18321,0,0,0,210.38091,235.9035Zm-2.086,1.6064h.22389v-.57741h2.2261v-.252h-2.45Z" transform="translate(-89.9391 -94.69849)" style="fill:#434242"/><path d="M163.04491,115.10791h.6825v-.2486h-.4586v-1.26l2.226,1.008v-.273l-2.27139-1.02518h-.1785Zm2.25749,1.232c0,.4339-.1891.6893-.4935.6893-.3011,0-.4902-.2554-.4902-.6893s.1891-.69312.4902-.69312C165.1133,115.64679,165.3024,115.90591,165.3024,116.3399Zm-1.624.60541c-.273,0-.4411-.23471-.4411-.60541,0-.36771.16809-.60919.44449-.60919.2662,0,.43771.2276.43771.60919C164.11951,116.7211,163.948,116.94531,163.67841,116.94531Zm.53209-1.078a.555.555,0,0,0-.5392-.392c-.39879,0-.6474.34637-.6474.86459,0,.51788.24861.85739.6474.85739a.553.553,0,0,0,.5392-.38519.61089.61089,0,0,0,.60181.4725c.4339,0,.70349-.35681.70349-.9447,0-.5845-.26959-.95221-.70349-.95221A.61681.61681,0,0,0,164.2105,115.86731Zm.92041,1.988a.1831.1831,0,0,0,.189.1853.1766.1766,0,0,0,.1783-.12579l.50771.119v-.168l-.483-.14722a.57576.57576,0,0,0-.203-.049A.18319.18319,0,0,0,165.13091,117.85529Zm.1539,1.49442c0,.42691-.36061.7211-1.0148.7211-.65451,0-1.01511-.29419-1.01511-.7211s.3606-.72092,1.01511-.72092C164.92419,118.62878,165.28481,118.92279,165.28481,119.3497Zm.231,0c0-.56689-.46539-.97989-1.24579-.97989-.7807,0-1.24611.413-1.24611.97989s.46541.9765,1.24611.9765C165.0504,120.3262,165.51579,119.9166,165.51579,119.3497Z" transform="translate(-89.9391 -94.69849)" style="fill:#434242"/><path d="M175.5349,268.9473c0,.42691-.3606.7211-1.0148.7211-.6546,0-1.01509-.29419-1.01509-.7211s.36049-.7209,1.01509-.7209c.65421,0,1.0148.294,1.0148.7209m.231,0c0-.567-.4655-.98-1.2458-.98-.7807,0-1.24609.413-1.24609.98s.46539.9765,1.24609.9765C175.3004,269.9238,175.7659,269.51421,175.7659,268.9473Zm-.2135,2.2785c0,.4339-.189.6893-.4935.6893-.301,0-.4901-.2554-.4901-.6893s.1891-.6931.4901-.6931C175.3634,270.5327,175.5524,270.79179,175.5524,271.2258Zm-1.6239.60539c-.273,0-.4411-.2347-.4411-.60539,0-.36771.16811-.60921.4445-.60921.2661,0,.43761.2276.43761.60921C174.36951,271.607,174.198,271.83119,173.9285,271.83119Zm.532-1.078a.55477.55477,0,0,0-.53909-.392c-.3988,0-.6474.34639-.6474.86459,0,.51781.2486.85741.6474.85741a.55281.55281,0,0,0,.53909-.38521.611.611,0,0,0,.60181.4725c.434,0,.7036-.3568.7036-.9447,0-.58459-.26959-.95219-.7036-.95219A.617.617,0,0,0,174.4605,270.7532Zm.92041,1.988a.18315.18315,0,0,0,.1891.1853.1767.1767,0,0,0,.1783-.12579l.50769.119v-.16809l-.483-.14711a.5761.5761,0,0,0-.203-.049A.18327.18327,0,0,0,175.38091,272.7412Zm-2.086,1.60631h.224v-.57741h2.226v-.252h-2.45Z" transform="translate(-89.9391 -94.69849)" style="fill:#434242"/><line x1="235.27299" y1="24.80991" x2="235.27299" y2="36.54001" style="fill:none;stroke:#b1b2b2;stroke-miterlimit:22.92558479309082;stroke-width:0.2160000056028366px"/><line x1="226.02501" y1="88.44321" x2="226.02501" y2="120.25841" style="fill:none;stroke:#b1b2b2;stroke-miterlimit:22.92558479309082;stroke-width:0.2160000056028366px"/><line x1="226.02211" y1="183.94382" x2="226.02211" y2="230.79801" style="fill:none;stroke:#b1b2b2;stroke-miterlimit:22.92558479309082;stroke-width:0.2160000056028366px"/><line x1="106.6458" y1="219.56941" x2="106.6458" y2="230.79801" style="fill:none;stroke:#b1b2b2;stroke-miterlimit:22.92558479309082;stroke-width:0.2160000056028366px"/><line x1="18.3957" y1="187.06932" x2="18.3957" y2="193.81772" style="fill:none;stroke:#b1b2b2;stroke-miterlimit:22.92558479309082;stroke-width:0.2160000056028366px"/><line x1="8.66579" y1="102.81911" x2="8.66579" y2="150.46721" style="fill:none;stroke:#b1b2b2;stroke-miterlimit:22.92558479309082;stroke-width:0.2160000056028366px"/><line x1="91.1658" y1="72.81921" x2="91.1658" y2="120.77541" style="fill:none;stroke:#b1b2b2;stroke-miterlimit:22.92558479309082;stroke-width:0.2160000056028366px"/><line x1="146.16589" y1="58.56912" x2="146.16589" y2="94.64032" style="fill:none;stroke:#b1b2b2;stroke-miterlimit:22.92558479309082;stroke-width:0.2160000056028366px"/><line x1="119.6458" y1="144.31941" x2="119.6458" y2="154.77562" style="fill:none;stroke:#b1b2b2;stroke-miterlimit:22.92558479309082;stroke-width:0.2160000056028366px"/><line x1="74.3958" y1="26.81912" x2="74.3958" y2="30.89423" style="fill:none;stroke:#b1b2b2;stroke-miterlimit:22.92558479309082;stroke-width:0.2160000056028366px"/><line x1="84.6459" y1="181.06952" x2="84.6459" y2="193.02571" style="fill:none;stroke:#b1b2b2;stroke-miterlimit:22.92558479309082;stroke-width:0.2160000056028366px"/><line x1="235.27299" y1="5.48672" x2="235.27299" y2="15.37082" style="fill:none;stroke:#b1b2b2;stroke-miterlimit:22.92558479309082;stroke-width:0.2160000056028366px"/><line x1="226.02211" y1="43.80011" x2="226.02211" y2="79.00412" style="fill:none;stroke:#b1b2b2;stroke-miterlimit:22.92558479309082;stroke-width:0.2160000056028366px"/><line x1="226.02211" y1="123.50722" x2="226.02211" y2="174.50471" style="fill:none;stroke:#b1b2b2;stroke-miterlimit:22.92558479309082;stroke-width:0.2160000056028366px"/><line x1="106.6458" y1="196.25891" x2="106.6458" y2="210.13031" style="fill:none;stroke:#b1b2b2;stroke-miterlimit:22.92558479309082;stroke-width:0.2160000056028366px"/><line x1="18.3957" y1="161.81372" x2="18.3957" y2="177.63022" style="fill:none;stroke:#b1b2b2;stroke-miterlimit:22.92558479309082;stroke-width:0.2160000056028366px"/><line x1="8.66579" y1="39.05432" x2="8.66579" y2="93.38002" style="fill:none;stroke:#b1b2b2;stroke-miterlimit:22.92558479309082;stroke-width:0.2160000056028366px"/><line x1="91.1658" y1="13.68002" x2="91.1658" y2="63.38013" style="fill:none;stroke:#b1b2b2;stroke-miterlimit:22.92558479309082;stroke-width:0.2160000056028366px"/><line x1="146.16589" y1="13.68002" x2="146.16589" y2="49.13013" style="fill:none;stroke:#b1b2b2;stroke-miterlimit:22.92558479309082;stroke-width:0.2160000056028366px"/><line x1="119.6458" y1="124.13312" x2="119.6458" y2="134.88042" style="fill:none;stroke:#b1b2b2;stroke-miterlimit:22.92558479309082;stroke-width:0.2160000056028366px"/><line x1="74.3958" y1="13.68002" x2="74.3958" y2="17.38" style="fill:none;stroke:#b1b2b2;stroke-miterlimit:22.92558479309082;stroke-width:0.2160000056028366px"/><line x1="84.6459" y1="158.38332" x2="84.6459" y2="171.63042" style="fill:none;stroke:#b1b2b2;stroke-miterlimit:22.92558479309082;stroke-width:0.2160000056028366px"/><path d="M141.25121,139.61911c-.4339,0-.6893-.18912-.6893-.4935,0-.301.2554-.49011.6893-.49011s.6931.18909.6931.49011c0,.30438-.25911.4935-.6931.4935m-.60541-1.624c0-.27289.2347-.441.60541-.441.36769,0,.60919.16809.60919.4444,0,.2662-.2276.43768-.60919.43768C140.87,138.43619,140.6458,138.26471,140.6458,137.99509Zm1.078.5321a.55494.55494,0,0,0,.392-.53918c0-.3988-.34641-.6474-.86459-.6474-.51781,0-.85741.2486-.85741.6474a.553.553,0,0,0,.38521.53918.611.611,0,0,0-.4725.60181c0,.434.3568.70361.9447.70361.58449,0,.95219-.26962.95219-.70361A.61689.61689,0,0,0,141.7238,138.52719Zm-2.7054,1.09192c-.434,0-.68941-.18912-.68941-.4935,0-.301.2554-.49011.68941-.49011s.6931.18909.6931.49011C139.7115,139.43,139.45239,139.61911,139.0184,139.61911Zm-.6055-1.624c0-.27289.2347-.441.6055-.441.3676,0,.60919.16809.60919.4444,0,.2662-.22769.43768-.60919.43768C138.6371,138.43619,138.4129,138.26471,138.4129,137.99509Zm1.078.5321a.555.555,0,0,0,.39209-.53918c0-.3988-.34639-.6474-.86459-.6474-.5179,0-.8575.2486-.8575.6474a.553.553,0,0,0,.38519.53918.611.611,0,0,0-.4725.60181c0,.434.3569.70361.94481.70361.5845,0,.95219-.26962.95219-.70361A.61687.61687,0,0,0,139.49091,138.52719Zm-1.9879.92041a.18318.18318,0,0,0-.18541.18909.17666.17666,0,0,0,.1259.17831l-.11909.50769h.16809l.14711-.48309a.57347.57347,0,0,0,.0491-.20291A.1832.1832,0,0,0,137.503,139.4476Zm-1.3334-1.0361.69279-.87131v-.17859h-1.575v.22391h1.2529l-.67889.85068v.18542h.1749c.45529,0,.6617.19247.6617.48639,0,.3045-.224.4935-.6299.4935a1.07421,1.07421,0,0,1-.7597-.28342l-.12239.19952a1.27429,1.27429,0,0,0,.8821.315c.59129,0,.8889-.315.8889-.72461C136.957,138.716,136.6946,138.43961,136.1696,138.4115Z" transform="translate(-89.9391 -94.69849)" style="fill:#434242"/><path d="M211.8421,113.8692c-.42351,0-.64771-.2554-.64771-.525a.56734.56734,0,0,1,.6302-.53552c.37779,0,.61591.20642.61591.52841a.53613.53613,0,0,1-.5984.5321m.021-1.2739a.78349.78349,0,0,0-.74919.4198c-.00681-.07339-.01051-.1434-.01051-.19962,0-.6647.3396-1.0043.868-1.0043a.86058.86058,0,0,1,.4762.11542l.1015-.203a1.1259,1.1259,0,0,0-.5811-.1329c-.665,0-1.12.434-1.12,1.26709,0,.77332.3535,1.22482,1.00459,1.22482a.7633.7633,0,0,0,.8365-.75262A.74173.74173,0,0,0,211.8631,112.59531Zm-2.429-.98361v.22391h.57741v2.2261h.252v-2.45Zm-.3569,2.086a.18318.18318,0,0,0-.18539.18912.17674.17674,0,0,0,.1259.17828l-.11909.5076h.16809l.1472-.483a.5753.5753,0,0,0,.049-.20288A.1832.1832,0,0,0,209.07719,113.69769Zm-1.33339-1.0361.69279-.87128v-.17862h-1.57491v.22391h1.2529l-.67889.85071v.18539h.1749c.4552,0,.66161.19238.66161.48639,0,.30441-.22391.4935-.6299.4935a1.074,1.074,0,0,1-.7597-.28351l-.12241.19962a1.27465,1.27465,0,0,0,.88211.31491c.59129,0,.889-.31491.889-.72452C208.5313,112.9661,208.2688,112.6897,207.7438,112.66159Z" transform="translate(-89.9391 -94.69849)" style="fill:#434242"/><path d="M293.46521,105.60168c-.42691,0-.7211-.3606-.7211-1.01477,0-.6546.29419-1.01511.7211-1.01511s.72079.3605.72079,1.01511c0,.65417-.29391,1.01477-.72079,1.01477m0,.231c.56689,0,.97989-.46552.97989-1.24579,0-.7807-.413-1.24622-.97989-1.24622s-.9765.46552-.9765,1.24622C292.48871,105.36719,292.89828,105.8327,293.46521,105.8327Zm-2.317-.231c-.42688,0-.72119-.3606-.72119-1.01477,0-.6546.29431-1.01511.72119-1.01511s.72079.3605.72079,1.01511C291.869,105.24109,291.5751,105.60168,291.14819,105.60168Zm0,.231c.56689,0,.97992-.46552.97992-1.24579,0-.7807-.413-1.24622-.97992-1.24622s-.97659.46552-.97659,1.24622C290.1716,105.36719,290.58121,105.8327,291.14819,105.8327Zm-1.4877-.385a.18323.18323,0,0,0-.18539.18912.17672.17672,0,0,0,.12592.17828l-.119.50769h.168l.14722-.483a.57622.57622,0,0,0,.049-.203A.1832.1832,0,0,0,289.66049,105.44769Zm-.49319-.504h-.49011v-.56689h-.24487v.56689h-1.06412l1.2529-1.582h-.27979l-1.29861,1.624v.182h1.38251v.644h.252v-.644h.49011Z" transform="translate(-89.9391 -94.69849)" style="fill:#434242"/><path d="M289.04739,144.13919c-.42349,0-.64771-.2554-.64771-.5249a.56725.56725,0,0,1,.6301-.53549c.37793,0,.616.20639.616.52841a.53606.53606,0,0,1-.59842.532m.021-1.2739a.78348.78348,0,0,0-.74918.41989c-.00681-.07349-.01053-.14349-.01053-.19958,0-.6647.3396-1.0043.868-1.0043a.86091.86091,0,0,1,.4762.1153l.1015-.20288a1.12559,1.12559,0,0,0-.58109-.133c-.665,0-1.12.434-1.12,1.26712,0,.77328.35349,1.22488,1.00458,1.22488a.7634.7634,0,0,0,.83652-.75259A.74176.74176,0,0,0,289.06839,142.8653Zm-2.35559.26932c-.3779,0-.616-.2063-.616-.52832a.53633.53633,0,0,1,.59869-.5321c.42349,0,.6474.25571.6474.525A.56706.56706,0,0,1,286.7128,143.13461Zm-.0278-1.27393a.76323.76323,0,0,0-.83649.75262.74161.74161,0,0,0,.826.7348.78272.78272,0,0,0,.7489-.4198c.00711.07339.0105.14337.0105.19949,0,.665-.3396,1.0043-.86789,1.0043a.85923.85923,0,0,1-.476-.11533l-.1015.20291a1.12439,1.12439,0,0,0,.5809.133c.665,0,1.1199-.434,1.1199-1.26709C287.6893,142.31229,287.33578,141.86069,286.685,141.86069Zm-1.31268,2.107a.18316.18316,0,0,0-.18542.18909.17668.17668,0,0,0,.12592.17831l-.11911.50769h.16809l.14713-.483a.57477.57477,0,0,0,.0491-.203A.18321.18321,0,0,0,285.37231,143.96771Zm-1.3334-1.036.69278-.8714v-.17859h-1.575v.224h1.2529l-.67889.85059v.18539h.1749c.45529,0,.66159.1925.66159.48642,0,.30447-.22391.49359-.62979.49359a1.07436,1.07436,0,0,1-.7597-.28351l-.1225.19962a1.27523,1.27523,0,0,0,.8822.31488c.59128,0,.88889-.31488.88889-.72458C284.82629,143.23611,284.56381,142.95969,284.03891,142.9317Z" transform="translate(-89.9391 -94.69849)" style="fill:#434242"/><path d="M197.6494,212.1217c-.4269,0-.72119-.36061-.72119-1.0148,0-.65451.2943-1.01511.72119-1.01511s.72079.3606.72079,1.01511c0,.65419-.2939,1.0148-.72079,1.0148m0,.231c.56689,0,.9799-.46541.9799-1.2458,0-.7807-.413-1.24611-.9799-1.24611s-.97659.46541-.97659,1.24611C196.67281,211.8873,197.0824,212.35271,197.6494,212.35271Zm-2.2785-.21341c-.434,0-.68939-.1891-.68939-.4935,0-.3011.2554-.4902.68939-.4902s.693.1891.693.4902C196.0639,211.9502,195.8049,212.1393,195.3709,212.1393Zm-.6055-1.624c0-.273.23471-.4411.6055-.4411.3676,0,.6091.16809.6091.44449,0,.2662-.2276.43771-.6091.43771C194.98959,210.95641,194.7654,210.7849,194.7654,210.5153Zm1.078.53209a.555.555,0,0,0,.392-.5392c0-.39879-.34639-.6474-.8645-.6474-.5179,0-.8575.24861-.8575.6474a.553.553,0,0,0,.38521.5392.61088.61088,0,0,0-.4725.60181c0,.4339.3569.70351.94479.70351.5845,0,.9521-.26961.9521-.70351A.6168.6168,0,0,0,195.8434,211.04739Zm-1.9879.92041a.18313.18313,0,0,0-.18539.189.1766.1766,0,0,0,.12579.1783l-.119.50771h.16811l.14709-.483a.57338.57338,0,0,0,.049-.203A.18316.18316,0,0,0,193.8555,211.9678Zm-1.6064-2.086v.22389h.57741v2.226h.252v-2.44989Z" transform="translate(-89.9391 -94.69849)" style="fill:#434242"/><path d="M214.18871,295.6196c-.434,0-.68941-.1891-.68941-.4935,0-.3011.2554-.4901.68941-.4901s.693.189.693.4901c0,.3044-.25909.4935-.693.4935m-.6055-1.624c0-.273.2347-.4411.6055-.4411.3676,0,.6091.16809.6091.44449,0,.2662-.2276.43771-.6091.43771C213.8074,294.43671,213.58321,294.2652,213.58321,293.99561Zm1.078.53209a.555.555,0,0,0,.392-.5392c0-.39879-.34641-.6474-.8645-.6474-.5179,0-.8575.24861-.8575.6474a.553.553,0,0,0,.38519.5392.611.611,0,0,0-.4725.60181c0,.434.3569.70349.94481.70349.58449,0,.95209-.2695.95209-.70349A.61687.61687,0,0,0,214.66119,294.52769Zm-2.5407,1.0919c-.42349,0-.64771-.2554-.64771-.525a.56731.56731,0,0,1,.63011-.53551c.3779,0,.616.20641.616.5284A.53613.53613,0,0,1,212.1205,295.6196Zm.021-1.2739a.78342.78342,0,0,0-.74919.4198c-.00681-.07341-.0105-.1434-.0105-.1996,0-.6647.3396-1.0043.868-1.0043a.86088.86088,0,0,1,.4762.1154l.1015-.203a1.12575,1.12575,0,0,0-.5811-.1329c-.665,0-1.12.434-1.12,1.26711,0,.7733.3535,1.22479,1.00459,1.22479a.76333.76333,0,0,0,.8365-.75259A.74173.74173,0,0,0,212.14149,294.3457Zm-1.5262,1.1024a.18317.18317,0,0,0-.18539.1891.17686.17686,0,0,0,.1259.1783l-.11909.5076h.16809l.14711-.483a.57388.57388,0,0,0,.04909-.2029A.1832.1832,0,0,0,210.6153,295.4481Zm-1.89009.14.8331-.81891a1.00771,1.00771,0,0,0,.4025-.76649c0-.40961-.3149-.66161-.8121-.66161a1.101,1.101,0,0,0-.868.3501l.1786.1539a.832.832,0,0,1,.6684-.273c.3744,0,.574.1749.574.4584,0,.16809-.0524.3325-.32881.6055l-1.01849.9975v.1785h1.7184v-.22389Z" transform="translate(-89.9391 -94.69849)" style="fill:#434242"/><path d="M119.1495,261.8519c-.4269,0-.7211-.3606-.7211-1.0148,0-.6546.2942-1.01509.7211-1.01509s.7209.36049.7209,1.01509c0,.65421-.294,1.0148-.7209,1.0148m0,.231c.5669,0,.9799-.4655.9799-1.2458,0-.7807-.413-1.2462-.9799-1.2462s-.9765.4655-.9765,1.2462C118.173,261.6174,118.5826,262.0829,119.1495,262.0829Zm-2.2785-.2135c-.434,0-.6894-.189-.6894-.4935,0-.301.25539-.4901.6894-.4901s.6931.1891.6931.4901C117.5641,261.6804,117.305,261.8694,116.871,261.8694Zm-.6055-1.6239c0-.273.23479-.4411.6055-.4411.3677,0,.6092.16811.6092.4445,0,.2661-.2276.43759-.6092.43759C116.4898,260.68649,116.2655,260.515,116.2655,260.2455Zm1.07809.532a.55478.55478,0,0,0,.392-.53909c0-.39891-.3464-.64751-.8646-.64751-.5179,0-.85751.2486-.85751.64751a.55289.55289,0,0,0,.38531.53909.611.611,0,0,0-.4726.60181c0,.434.3569.7036.9448.7036.5845,0,.95219-.26961.95219-.7036A.617.617,0,0,0,117.3436,260.7775Zm-1.988.92041a.18316.18316,0,0,0-.1854.18909.17676.17676,0,0,0,.1259.1783l-.11909.50771h.1681l.1472-.483a.57592.57592,0,0,0,.049-.203A.1832.1832,0,0,0,115.3556,261.69791Zm-1.6064-2.086v.224h.5774v2.226h.252v-2.45Z" transform="translate(-89.9391 -94.69849)" style="fill:#434242"/><path d="M284.04739,322.6394c-.42349,0-.64771-.25539-.64771-.525a.56717.56717,0,0,1,.6301-.5354c.37793,0,.616.2063.616.5284a.53606.53606,0,0,1-.59842.532m.0209-1.2739a.78364.78364,0,0,0-.74921.4198c-.00681-.0734-.01041-.1434-.01041-.1995,0-.6647.3396-1.0043.86792-1.0043a.861.861,0,0,1,.47629.1153l.10141-.2029a1.12563,1.12563,0,0,0-.58112-.133c-.665,0-1.11987.434-1.11987,1.2671,0,.7733.35339,1.2249,1.00458,1.2249a.7634.7634,0,0,0,.83652-.7526A.74179.74179,0,0,0,284.0683,321.3655Zm-2.3555.26929c-.3779,0-.616-.2063-.616-.5284a.53631.53631,0,0,1,.59869-.532c.42349,0,.6474.2557.6474.525A.567.567,0,0,1,281.7128,321.6348Zm-.0278-1.2739a.76322.76322,0,0,0-.83649.7526.74159.74159,0,0,0,.826.73479.78276.78276,0,0,0,.7489-.4198c.00711.0734.0105.1434.0105.1995,0,.665-.3396,1.0043-.868,1.0043a.85879.85879,0,0,1-.47589-.1153l-.1015.2029a1.124,1.124,0,0,0,.58081.133c.665,0,1.12-.434,1.12-1.2671C282.6893,320.8125,282.33578,320.3609,281.685,320.3609Zm-1.31268,2.107a.18318.18318,0,0,0-.18542.18909.17667.17667,0,0,0,.12582.1783l-.119.50771h.16809l.14713-.483a.576.576,0,0,0,.049-.203A.18317.18317,0,0,0,280.37231,322.4679Zm-1.33353-1.036.69281-.8714v-.1786h-1.57489v.2239h1.2529l-.67889.8507v.1854h.1749c.45529,0,.66159.1925.66159.4864,0,.3045-.22391.4935-.62979.4935a1.07414,1.07414,0,0,1-.7597-.28339l-.1225.1995a1.27475,1.27475,0,0,0,.8822.315c.59128,0,.88889-.315.88889-.7246C279.82629,321.7363,279.56381,321.4599,279.03879,321.4319Z" transform="translate(-89.9391 -94.69849)" style="fill:#434242"/><line x1="44.1396" y1="43.95313" x2="5.3248" y2="43.95313" style="fill:none;stroke:#b1b2b2;stroke-miterlimit:22.92558479309082;stroke-width:0.2160000056028366px"/><line x1="115.13989" y1="18.20322" x2="108.3914" y2="18.20322" style="fill:none;stroke:#b1b2b2;stroke-miterlimit:22.92558479309082;stroke-width:0.2160000056028366px"/><line x1="196.13991" y1="9.95331" x2="157.98351" y2="9.95331" style="fill:none;stroke:#b1b2b2;stroke-miterlimit:22.92558479309082;stroke-width:0.2160000056028366px"/><line x1="191.88991" y1="48.47333" x2="152.4257" y2="48.47333" style="fill:none;stroke:#b1b2b2;stroke-miterlimit:22.92558479309082;stroke-width:0.2160000056028366px"/><line x1="100.8895" y1="116.47331" x2="88.0752" y2="116.47331" style="fill:none;stroke:#b1b2b2;stroke-miterlimit:22.92558479309082;stroke-width:0.2160000056028366px"/><line x1="117.14" y1="199.95361" x2="89.76579" y2="199.95361" style="fill:none;stroke:#b1b2b2;stroke-miterlimit:22.92558479309082;stroke-width:0.2160000056028366px"/><line x1="22.38969" y1="166.20351" x2="4.4654" y2="166.20351" style="fill:none;stroke:#b1b2b2;stroke-miterlimit:22.92558479309082;stroke-width:0.2160000056028366px"/><line x1="186.88979" y1="226.97351" x2="153.0255" y2="226.97351" style="fill:none;stroke:#b1b2b2;stroke-miterlimit:22.92558479309082;stroke-width:0.2160000056028366px"/><line x1="81.0748" y1="43.95313" x2="53.5787" y2="43.95313" style="fill:none;stroke:#b1b2b2;stroke-miterlimit:22.92558479309082;stroke-width:0.2160000056028366px"/><line x1="131.32739" y1="18.20322" x2="124.5789" y2="18.20322" style="fill:none;stroke:#b1b2b2;stroke-miterlimit:22.92558479309082;stroke-width:0.2160000056028366px"/><line x1="239.68141" y1="9.95331" x2="205.5789" y2="9.95331" style="fill:none;stroke:#b1b2b2;stroke-miterlimit:22.92558479309082;stroke-width:0.2160000056028366px"/><line x1="231.425" y1="48.47333" x2="201.32899" y2="48.47333" style="fill:none;stroke:#b1b2b2;stroke-miterlimit:22.92558479309082;stroke-width:0.2160000056028366px"/><line x1="121.4503" y1="116.47331" x2="110.3286" y2="116.47331" style="fill:none;stroke:#b1b2b2;stroke-miterlimit:22.92558479309082;stroke-width:0.2160000056028366px"/><line x1="141.2455" y1="199.95361" x2="126.5791" y2="199.95361" style="fill:none;stroke:#b1b2b2;stroke-miterlimit:22.92558479309082;stroke-width:0.2160000056028366px"/><line x1="38.57719" y1="166.20351" x2="31.8288" y2="166.20351" style="fill:none;stroke:#b1b2b2;stroke-miterlimit:22.92558479309082;stroke-width:0.2160000056028366px"/><line x1="231.425" y1="226.97351" x2="196.3289" y2="226.97351" style="fill:none;stroke:#b1b2b2;stroke-miterlimit:22.92558479309082;stroke-width:0.2160000056028366px"/></svg>