<svg id="Слой_1" data-name="Слой 1" xmlns="http://www.w3.org/2000/svg" viewBox="0 0 162.92612 205.19429"><title>2.04.01</title><rect y="62.15439" width="162.92612" height="140.5389" style="fill:#fff"/><rect x="12.93221" y="0.01788" width="147.27461" height="121.3755" style="fill:#fff"/><path d="M158.96069,205.8069a.374.374,0,1,1,.37471-.6474l13.92009,8.0399a.374.374,0,1,1-.37469.64749Z" transform="translate(-138.3205 -110.00131)" style="fill:#003915"/><path d="M218.5537,264.3387a.37405.37405,0,0,0,.64751-.37469l-8.0399-13.9201a.37405.37405,0,0,0-.64751.37469Z" transform="translate(-138.3205 -110.00131)" style="fill:#003915"/><path d="M218.5537,229.41949a.37408.37408,0,0,1,.64751.3748l-8.0399,13.9201a.37408.37408,0,0,1-.64751-.3748Z" transform="translate(-138.3205 -110.00131)" style="fill:#003915"/><path d="M192.22549,266.444a.37405.37405,0,0,1,.64751.37469l-8.0399,13.9201a.37405.37405,0,0,1-.64751-.37469Z" transform="translate(-138.3205 -110.00131)" style="fill:#003915"/><path d="M267.16309,172.1189a.374.374,0,1,0,.6474-.3748L259.7706,157.824a.374.374,0,0,0-.6474.37479Z" transform="translate(-138.3205 -110.00131)" style="fill:#003915"/><rect x="51.50951" width="2.6022" height="3.0257" style="fill:#003915"/><rect x="43.9671" y="58.31207" width="2.6022" height="37.46211" style="fill:#003915"/><rect y="54.48868" width="2.6022" height="7.6076" style="fill:#003915"/><rect x="70.6297" y="69.54829" width="2.6022" height="45.90369" style="fill:#003915"/><rect x="70.6297" y="133.27429" width="2.6022" height="7.11519" style="fill:#003915"/><rect x="70.6297" y="158.40399" width="2.6022" height="15.79829" style="fill:#003915"/><rect x="68.16191" y="202.71939" width="2.60219" height="2.4749" style="fill:#003915"/><rect x="65.10561" y="202.71939" width="2.6022" height="2.4749" style="fill:#003915"/><rect x="43.9671" y="135.97229" width="2.6022" height="17.517" style="fill:#003915"/><rect x="43.9671" y="170.07869" width="2.6022" height="30.4325" style="fill:#003915"/><rect x="47.1631" y="172.46159" width="2.6022" height="28.04959" style="fill:#003915"/><rect x="16.95201" y="58.31207" width="29.61729" height="2.60222" style="fill:#003915"/><rect x="70.6297" y="69.54829" width="63.9375" height="2.60219" style="fill:#003915"/><rect x="70.6297" y="135.97229" width="86.88989" height="2.6022" style="fill:#003915"/><rect x="37.6835" y="93.17198" width="8.8858" height="2.6022" style="fill:#003915"/><rect x="5.15201" y="93.17198" width="16.3494" height="2.6022" style="fill:#003915"/><rect x="5.15201" y="137.32559" width="41.4371" height="2.60219" style="fill:#003915"/><rect x="44.91611" y="171.60008" width="28.3158" height="2.6022" style="fill:#003915"/><rect y="200.19228" width="161.5192" height="5.00201" style="fill:#003915"/><rect x="12.93221" y="0.01788" width="148.58699" height="5.00201" style="fill:#003915"/><rect y="54.48868" width="6.4256" height="45.089" style="fill:#003915"/><rect y="118.60098" width="6.4256" height="86.59331" style="fill:#003915"/><polygon points="19.358 54.489 19.358 60.914 0 60.914 0 54.489 12.932 54.489 19.358 54.489" style="fill:#003915;fill-rule:evenodd"/><polygon points="19.358 60.534 12.932 60.534 12.932 54.489 12.932 2.521 19.358 2.521 19.358 60.534" style="fill:#003915;fill-rule:evenodd"/><rect x="154.76599" y="183.73779" width="8.16013" height="21.4565" style="fill:#003915"/><rect x="154.76599" y="117.19249" width="8.16013" height="37.2722" style="fill:#003915"/><rect x="154.76599" y="65.26569" width="8.16013" height="23.0721" style="fill:#003915"/><rect x="127.6778" y="63.99039" width="35.24832" height="8.1601" style="fill:#003915"/><rect x="124.83722" width="8.1601" height="32.0358" style="fill:#003915"/><rect x="124.83722" y="62.15439" width="8.1601" height="9.99609" style="fill:#003915"/><rect x="157.767" y="169.24789" width="2.29861" height="0.50169" style="fill:#003915"/><rect x="157.767" y="168.04968" width="2.29861" height="0.50121" style="fill:#003915"/><rect x="157.767" y="155.41229" width="2.29861" height="0.50139" style="fill:#003915"/><rect x="157.767" y="154.21408" width="2.29861" height="0.50121" style="fill:#003915"/><rect x="157.767" y="183.35959" width="2.29861" height="0.5018" style="fill:#003915"/><rect x="157.767" y="182.16168" width="2.29861" height="0.50121" style="fill:#003915"/><rect x="154.76511" y="152.15729" width="0.5015" height="34.0937" style="fill:#003915"/><rect x="157.6123" y="152.15729" width="0.5014" height="34.0937" style="fill:#003915"/><rect x="159.7836" y="152.15729" width="0.5014" height="34.0937" style="fill:#003915"/><rect x="162.42459" y="152.15729" width="0.50153" height="34.0937" style="fill:#003915"/><rect x="157.767" y="103.12099" width="2.29861" height="0.50169" style="fill:#003915"/><rect x="157.767" y="101.92279" width="2.29861" height="0.50119" style="fill:#003915"/><rect x="157.767" y="89.28539" width="2.29861" height="0.5014" style="fill:#003915"/><rect x="157.767" y="88.08719" width="2.29861" height="0.50121" style="fill:#003915"/><rect x="157.767" y="117.23268" width="2.29861" height="0.5018" style="fill:#003915"/><rect x="157.767" y="116.03479" width="2.29861" height="0.50119" style="fill:#003915"/><rect x="154.76511" y="86.03038" width="0.5015" height="34.0937" style="fill:#003915"/><rect x="157.6123" y="86.03038" width="0.5014" height="34.0937" style="fill:#003915"/><rect x="159.7836" y="86.03038" width="0.5014" height="34.0937" style="fill:#003915"/><rect x="162.42459" y="86.03038" width="0.50153" height="34.0937" style="fill:#003915"/><path d="M267.9693,153.07459h-1.66989v.697h1.66989Zm0-13.56918h-1.66989v13.06781h1.66989Zm0-1.19821h-1.66989v.69711h1.66989Zm-1.66989-.50168h1.66989V132.016h.5014v21.75562h2.3457V132.016h.5014V154.2728h-8.16092V132.016h.5014v21.75562h2.13962V135.71979h.5015Z" transform="translate(-138.3205 -110.00131)" style="fill:#003915;fill-rule:evenodd"/><rect x="157.6803" y="44.80499" width="1.29712" height="0.44699" style="fill:#003915"/><rect x="157.6803" y="43.73718" width="1.29712" height="0.44672" style="fill:#003915"/><rect x="157.6803" y="26.20288" width="1.29712" height="0.44702" style="fill:#003915"/><rect x="157.6803" y="25.1351" width="1.29712" height="0.44669" style="fill:#003915"/><rect x="157.6803" y="7.60049" width="1.29712" height="0.44708" style="fill:#003915"/><rect x="157.6803" y="6.53268" width="1.29712" height="0.44681" style="fill:#003915"/><rect x="157.6803" y="63.40729" width="1.29712" height="0.4471" style="fill:#003915"/><rect x="157.6803" y="62.33949" width="1.29712" height="0.44679" style="fill:#003915"/><rect x="159.7601" y="4.46597" width="0.44672" height="60.82132" style="fill:#003915"/><rect x="158.6687" y="4.46597" width="0.44681" height="60.82132" style="fill:#003915"/><rect x="157.58789" y="4.46597" width="0.44672" height="60.82132" style="fill:#003915"/><rect x="157.6806" width="1.29709" height="0.1752" style="fill:#003915"/><rect x="159.76041" width="0.44669" height="3.52087" style="fill:#003915"/><rect x="158.66901" width="0.44681" height="3.52087" style="fill:#003915"/><rect x="157.5882" width="0.44672" height="3.52087" style="fill:#003915"/><path d="M144.9323,279.292v9.82231a.90528.90528,0,0,0,.904.9054h4.61029a4.59559,4.59559,0,0,0,4.59091-4.58949v-2.4523a4.59566,4.59566,0,0,0-4.59091-4.59041H145.8363a.90471.90471,0,0,0-.904.9045m9.8606,6.13821a4.351,4.351,0,0,1-4.3463,4.34489H145.8363a.66143.66143,0,0,1-.6599-.6608V279.292a.66066.66066,0,0,1,.6599-.6599h4.61029a4.35139,4.35139,0,0,1,4.3463,4.34581Z" transform="translate(-138.3205 -110.00131)" style="fill:#003915"/><path d="M153.7027,285.4299a3.25868,3.25868,0,0,1-3.2561,3.25439h-2.6881a.56778.56778,0,0,1-.5675-.5672v-3.5753h-.24519v3.5753a.814.814,0,0,0,.8127.81241h2.6881a3.504,3.504,0,0,0,3.5007-3.4996v-2.4523a3.50467,3.50467,0,0,0-3.5007-3.50079h-2.6881a.81448.81448,0,0,0-.8127.8136v3.57529h.24519v-3.57529a.5683.5683,0,0,1,.5675-.56841h2.6881a3.25933,3.25933,0,0,1,3.2561,3.2556Z" transform="translate(-138.3205 -110.00131)" style="fill:#003915"/><path d="M150.099,284.203a.7835.7835,0,1,0,.78351-.78371.78474.78474,0,0,0-.78351.78371m1.3224,0a.53875.53875,0,1,1-.53889-.53911A.53969.53969,0,0,1,151.4214,284.203Z" transform="translate(-138.3205 -110.00131)" style="fill:#003915"/><rect x="12.00331" y="174.07928" width="1.11659" height="0.2449" style="fill:#003915"/><rect x="12.43901" y="173.64418" width="0.2455" height="1.11601" style="fill:#003915"/><path d="M146.11459,283.86569v-.40359a.17366.17366,0,0,1,.1741-.1729h.3793a.17357.17357,0,0,1,.174.1729v.40359h.2449v-.40359a.41867.41867,0,0,0-.4189-.41809h-.3793a.41862.41862,0,0,0-.4187.41809v.40561l.0374-.002Zm.7274,1.07721a.17438.17438,0,0,1-.174.174h-.3793a.17447.17447,0,0,1-.1741-.174v-.40111h-.2072l-.0374-.00229v.4034a.41863.41863,0,0,0,.4187.4187h.3793a.41867.41867,0,0,0,.4189-.4187v-.40111h-.2449Z" transform="translate(-138.3205 -110.00131)" style="fill:#003915"/><path d="M145.4471,284.203a.461.461,0,0,0,.4603.4612h3.0804a.46045.46045,0,0,0,0-.9209h-3.0804a.46052.46052,0,0,0-.4603.4597m3.7567,0a.2167.2167,0,0,1-.216.21629h-3.0804a.21555.21555,0,0,1,0-.43109h3.0804A.21606.21606,0,0,1,149.2038,284.203Z" transform="translate(-138.3205 -110.00131)" style="fill:#003915"/><path d="M145.15511,190.1302v9.8224a.90525.90525,0,0,0,.904.90529h4.61031a4.59558,4.59558,0,0,0,4.5909-4.58949v-2.4523a4.59565,4.59565,0,0,0-4.5909-4.59041H146.0591a.9047.9047,0,0,0-.904.90451m9.8606,6.1382a4.351,4.351,0,0,1-4.3463,4.34489H146.0591a.66142.66142,0,0,1-.6599-.66069v-9.8224a.66073.66073,0,0,1,.6599-.6599h4.61031a4.35137,4.35137,0,0,1,4.3463,4.34579Z" transform="translate(-138.3205 -110.00131)" style="fill:#003915"/><path d="M153.92551,196.2681a3.25869,3.25869,0,0,1-3.2561,3.25441h-2.68811a.56779.56779,0,0,1-.56749-.5672V195.38h-.24521v3.5753a.814.814,0,0,0,.8127.81239h2.68811a3.504,3.504,0,0,0,3.5007-3.4996v-2.4523a3.50467,3.50467,0,0,0-3.5007-3.50079h-2.68811a.81449.81449,0,0,0-.8127.8136v3.5753h.24521v-3.5753a.5683.5683,0,0,1,.56749-.56841h2.68811a3.25933,3.25933,0,0,1,3.2561,3.2556Z" transform="translate(-138.3205 -110.00131)" style="fill:#003915"/><path d="M150.32179,195.0412a.7835.7835,0,1,0,.78351-.78371.78476.78476,0,0,0-.78351.78371m1.3224,0a.53875.53875,0,1,1-.53889-.53909A.53971.53971,0,0,1,151.6442,195.0412Z" transform="translate(-138.3205 -110.00131)" style="fill:#003915"/><rect x="12.2261" y="84.91748" width="1.11659" height="0.2449" style="fill:#003915"/><rect x="12.6618" y="84.48239" width="0.2455" height="1.116" style="fill:#003915"/><path d="M146.3374,194.7039v-.40361a.17365.17365,0,0,1,.1741-.1729h.37929a.17358.17358,0,0,1,.174.1729v.40361h.24489v-.40361a.41866.41866,0,0,0-.4189-.41809h-.37929a.41862.41862,0,0,0-.4187.41809v.40561l.0374-.002Zm.7274,1.07719a.17439.17439,0,0,1-.174.174h-.37929a.17446.17446,0,0,1-.1741-.174V195.38h-.2072l-.0374-.0023v.4034a.41863.41863,0,0,0,.4187.4187h.37929a.41866.41866,0,0,0,.4189-.4187V195.38h-.24489Z" transform="translate(-138.3205 -110.00131)" style="fill:#003915"/><path d="M145.66991,195.0412a.461.461,0,0,0,.4603.4612h3.0804a.46045.46045,0,0,0,0-.9209h-3.0804a.46052.46052,0,0,0-.4603.4597m3.7567,0a.2167.2167,0,0,1-.216.21629h-3.0804a.21555.21555,0,0,1,0-.43109h3.0804A.21607.21607,0,0,1,149.42661,195.0412Z" transform="translate(-138.3205 -110.00131)" style="fill:#003915"/><path d="M158.9315,267.81281a3.917,3.917,0,0,1-3.9129,3.91159H149.3532a.67738.67738,0,0,1-.63919-.4561,1.24417,1.24417,0,0,1-.20491.20351.94568.94568,0,0,0,.8441.52159h5.66541a4.18085,4.18085,0,1,0,0-8.36169H149.3532a.94552.94552,0,0,0-.8436.521,1.24169,1.24169,0,0,1,.2047.20331.67626.67626,0,0,1,.6389-.45551h5.66541a3.91706,3.91706,0,0,1,3.9129,3.91231" transform="translate(-138.3205 -110.00131)" style="fill:#003915"/><path d="M150.4341,265.00909v5.6089a.204.204,0,0,0,.20151.20131h4.27069a3.0066,3.0066,0,1,0,0-6.0132H150.6356a.20467.20467,0,0,0-.20151.203m.2681,5.54141V265.0746h4.2041a2.738,2.738,0,0,1,0,5.47591Z" transform="translate(-138.3205 -110.00131)" style="fill:#003915"/><path d="M153.165,267.8131a1.00816,1.00816,0,1,0,1.008-1.00879,1.01,1.01,0,0,0-1.008,1.00879m1.74751,0a.7394.7394,0,1,1-.7395-.73979A.74031.74031,0,0,1,154.91251,267.8131Z" transform="translate(-138.3205 -110.00131)" style="fill:#003915"/><rect x="150.96768" y="269.30026" width="2.24224" height="0.26853" transform="translate(-269.21664 34.3513) rotate(-36.71054)" style="fill:#003915"/><rect x="151.95441" y="265.11367" width="0.26918" height="2.24306" transform="translate(-290.51402 118.49272) rotate(-53.19201)" style="fill:#003915"/><path d="M144.9323,265.1123v5.4005a1.355,1.355,0,0,0,1.35381,1.3524h1.4743a1.35352,1.35352,0,0,0,1.35249-1.3524v-5.4005a1.35328,1.35328,0,0,0-1.35249-1.3519h-1.4743a1.35479,1.35479,0,0,0-1.35381,1.3519m3.91211,5.4005a1.08545,1.08545,0,0,1-1.084,1.0843h-1.4743a1.08587,1.08587,0,0,1-1.0851-1.0843v-5.4005a1.08594,1.08594,0,0,1,1.0851-1.08371h1.4743a1.08552,1.08552,0,0,1,1.084,1.08371Z" transform="translate(-138.3205 -110.00131)" style="fill:#003915"/><path d="M146.33459,267.8131a.6881.6881,0,1,0,.68741-.6882.68809.68809,0,0,0-.68741.6882m1.10721,0a.41925.41925,0,1,1-.4198-.41949A.41944.41944,0,0,1,147.4418,267.8131Z" transform="translate(-138.3205 -110.00131)" style="fill:#003915"/><path d="M167.35609,189.67641a3.917,3.917,0,0,1-3.91159-3.9129V180.0981a.67742.67742,0,0,1,.4561-.63921,1.24408,1.24408,0,0,1-.20351-.20489.94567.94567,0,0,0-.52159.8441v5.66541a4.18085,4.18085,0,1,0,8.36169,0V180.0981a.94552.94552,0,0,0-.521-.8436,1.24168,1.24168,0,0,1-.20331.2047.67626.67626,0,0,1,.45551.6389v5.66541a3.91706,3.91706,0,0,1-3.91231,3.9129" transform="translate(-138.3205 -110.00131)" style="fill:#003915"/><path d="M170.15981,181.179h-5.6089a.204.204,0,0,0-.20131.20149v4.27071a3.0066,3.0066,0,1,0,6.0132,0v-4.27071a.20467.20467,0,0,0-.203-.20149m-5.54141.2681h5.47591v4.2041a2.738,2.738,0,0,1-5.47591,0Z" transform="translate(-138.3205 -110.00131)" style="fill:#003915"/><path d="M167.3558,183.9099a1.00815,1.00815,0,1,0,1.00879,1.008,1.01,1.01,0,0,0-1.00879-1.008m0,1.7475a.7394.7394,0,1,1,.73979-.7395A.7403.7403,0,0,1,167.3558,185.65739Z" transform="translate(-138.3205 -110.00131)" style="fill:#003915"/><rect x="165.6001" y="181.71258" width="0.26854" height="2.24223" transform="translate(-214.74266 25.33233) rotate(-36.71054)" style="fill:#003915"/><rect x="167.81217" y="182.69931" width="2.24306" height="0.26918" transform="translate(-216.9865 98.54675) rotate(-53.19201)" style="fill:#003915"/><path d="M170.05659,175.6772h-5.4005a1.355,1.355,0,0,0-1.3524,1.35381v1.47429a1.35353,1.35353,0,0,0,1.3524,1.35251h5.4005a1.3533,1.3533,0,0,0,1.3519-1.35251V177.031a1.35479,1.35479,0,0,0-1.3519-1.35381m-5.4005,3.91209a1.08544,1.08544,0,0,1-1.0843-1.084V177.031a1.08588,1.08588,0,0,1,1.0843-1.08511h5.4005a1.086,1.086,0,0,1,1.08371,1.08511v1.47429a1.08551,1.08551,0,0,1-1.08371,1.084Z" transform="translate(-138.3205 -110.00131)" style="fill:#003915"/><path d="M167.3558,177.0795a.6881.6881,0,1,0,.6882.68741.68809.68809,0,0,0-.6882-.68741m0,1.10721a.41925.41925,0,1,1,.41949-.4198A.41944.41944,0,0,1,167.3558,178.18671Z" transform="translate(-138.3205 -110.00131)" style="fill:#003915"/><path d="M173.9021,250.41631h7.83949v11.348H173.9021Zm8.1709-.33081h-8.5025v12.0099h8.5025Z" transform="translate(-138.3205 -110.00131)" style="fill:#003915"/><path d="M173.6776,252.81081a.60437.60437,0,0,0-.61259.59349v5.3723a.6041.6041,0,0,0,.61259.5938v-.3308a.26967.26967,0,0,1-.2809-.263v-5.3723a.26942.26942,0,0,1,.2809-.2627Z" transform="translate(-138.3205 -110.00131)" style="fill:#003915"/><path d="M176.3042,255.0686h2.7076l.6217,1.59729a2.47357,2.47357,0,0,1-1.6747-.09189,4.15475,4.15475,0,0,0-1.2408-.24121,2.44924,2.44924,0,0,0-.93651.1882Zm2.9341-.33081H176.0715l-.89211,2.48.39061-.22481a2.266,2.266,0,0,1,1.148-.32939,3.89039,3.89039,0,0,1,1.1438.22679,3.90081,3.90081,0,0,0,1.1441.22821,2.01813,2.01813,0,0,0,.91249-.218l.1357-.0675Z" transform="translate(-138.3205 -110.00131)" style="fill:#003915"/><path d="M147.0835,294.22859h30.085a2.161,2.161,0,0,1,2.1515,2.16571v10.4114a2.16088,2.16088,0,0,1-2.1515,2.16589h-30.085a2.16081,2.16081,0,0,1-2.1512-2.16589V296.3943a2.161,2.161,0,0,1,2.1512-2.16571m30.085,14.51311a1.93113,1.93113,0,0,0,1.92189-1.936V296.3943a1.931,1.931,0,0,0-1.92189-1.9355h-30.085a1.93132,1.93132,0,0,0-1.92209,1.9355v10.4114a1.93143,1.93143,0,0,0,1.92209,1.936Z" transform="translate(-138.3205 -110.00131)" style="fill:#003915"/><path d="M174.18269,307.4797a2.577,2.577,0,0,0,2.5654-2.582v-6.5948a2.5766,2.5766,0,0,0-2.5654-2.5818H150.0695a2.577,2.577,0,0,0-2.5659,2.5818v2.0619a.39548.39548,0,0,0-.2282-.142v-1.9199a2.8064,2.8064,0,0,1,2.7941-2.81261h24.11319a2.8066,2.8066,0,0,1,2.7944,2.81261v6.5948a2.80652,2.80652,0,0,1-2.7944,2.8122H150.0695a2.80632,2.80632,0,0,1-2.7941-2.8122v-1.9202a.39529.39529,0,0,0,.2282-.1415v2.0617a2.57746,2.57746,0,0,0,2.5659,2.582Z" transform="translate(-138.3205 -110.00131)" style="fill:#003915"/><path d="M172.6353,306.1664a1.26657,1.26657,0,0,0,1.26109-1.2687v-6.5948a1.26635,1.26635,0,0,0-1.26109-1.2683H150.0695a1.26628,1.26628,0,0,0-1.2614,1.2683v2.8448h-.2287v-2.8448a1.4962,1.4962,0,0,1,1.4901-1.499h22.5658a1.49565,1.49565,0,0,1,1.4893,1.499v6.5948a1.49524,1.49524,0,0,1-1.4893,1.4989H150.0695a1.49578,1.49578,0,0,1-1.4901-1.4989v-2.8452h.2287v2.8452a1.2665,1.2665,0,0,0,1.2614,1.2687Z" transform="translate(-138.3205 -110.00131)" style="fill:#003915"/><path d="M151.9747,300.8674a.73331.73331,0,1,1-.7299.7336.73144.73144,0,0,1,.7299-.7336m0,1.2364a.50331.50331,0,1,0-.50031-.5028A.5019.5019,0,0,0,151.9747,302.1038Z" transform="translate(-138.3205 -110.00131)" style="fill:#003915"/><rect x="13.53911" y="191.07639" width="0.22929" height="1.0457" style="fill:#003915"/><rect x="13.1349" y="191.48428" width="1.0378" height="0.23071" style="fill:#003915"/><path d="M147.4747,301.1477v-.5374a.2799.2799,0,0,0-.27859-.2804h-.5052a.28042.28042,0,0,0-.27921.2804v.5374h-.2287v-.5374a.51033.51033,0,0,1,.5079-.5111h.5052a.50972.50972,0,0,1,.5074.5111v.5374Zm-.27859,1.7221a.27984.27984,0,0,0,.27859-.2801v-.5372h.22881v.5372a.50927.50927,0,0,1-.5074.5108h-.5052a.50988.50988,0,0,1-.5079-.5108v-.5372h.2287v.5372a.28035.28035,0,0,0,.27921.2801Z" transform="translate(-138.3205 -110.00131)" style="fill:#003915"/><path d="M146.18491,301.0323h3.20119a.56766.56766,0,0,1,0,1.1353h-3.20119a.56766.56766,0,0,1,0-1.1353m3.20119.9051a.33715.33715,0,0,0,0-.6743h-3.20119a.33716.33716,0,0,0,0,.6743Z" transform="translate(-138.3205 -110.00131)" style="fill:#003915"/><path d="M157.92551,160.50989v-11.7692H169.6944v11.7692Zm.24939-11.51968v11.27051h11.2706V148.9902Z" transform="translate(-138.3205 -110.00131)" style="fill:#003915"/><path d="M168.59621,154.6254a3.91958,3.91958,0,0,0-7.7142-.9816.30009.30009,0,0,0-.1976-.07431h-.0405a4.16844,4.16844,0,1,1-.00031,2.1116h.0408a.29843.29843,0,0,0,.1973-.074,3.91975,3.91975,0,0,0,7.71451-.98169" transform="translate(-138.3205 -110.00131)" style="fill:#003915"/><path d="M161.1955,154.6254a3.48155,3.48155,0,1,1,3.48181,3.48129,3.48577,3.48577,0,0,1-3.48181-3.48129m6.71361,0a3.2319,3.2319,0,1,0-3.2318,3.23181A3.23539,3.23539,0,0,0,167.9091,154.6254Z" transform="translate(-138.3205 -110.00131)" style="fill:#003915"/><path d="M163.7748,154.6254a.90225.90225,0,1,1,.90251.90259.90334.90334,0,0,1-.90251-.90259m1.5556,0a.65295.65295,0,1,0-.65309.65311A.65427.65427,0,0,0,165.3304,154.6254Z" transform="translate(-138.3205 -110.00131)" style="fill:#003915"/><rect x="25.69951" y="44.49939" width="1.3138" height="0.24951" style="fill:#003915"/><rect x="26.23151" y="43.96729" width="0.2498" height="1.3136" style="fill:#003915"/><path d="M159.87061,155.37921V153.8717a.42706.42706,0,0,1,.42659-.42661h.38721a.42689.42689,0,0,1,.4267.42661v1.50751a.42693.42693,0,0,1-.4267.42657h-.38721a.42709.42709,0,0,1-.42659-.42657m.991-1.50751a.17758.17758,0,0,0-.1772-.1774h-.38721a.17736.17736,0,0,0-.17709.1774v1.50751a.17712.17712,0,0,0,.17709.17709h.38721a.17734.17734,0,0,0,.1772-.17709Z" transform="translate(-138.3205 -110.00131)" style="fill:#003915"/><path d="M159.9953,154.40549h-.0864a.21965.21965,0,1,0,0,.4393h.0864v.24982h-.0864a.46945.46945,0,0,1,0-.9389h.0864Zm2.5901.21991a.2205.2205,0,0,0-.2206-.21991H160.9863v-.24979h1.37851a.46945.46945,0,1,1,0,.9389H160.9863v-.24982h1.37851A.22.22,0,0,0,162.5854,154.6254Z" transform="translate(-138.3205 -110.00131)" style="fill:#003915"/><path d="M158.4068,131.84509v7.15662a1.49614,1.49614,0,0,0,1.49471,1.4942h8.29869a1.496,1.496,0,0,0,1.4942-1.4942v-7.15662a1.49572,1.49572,0,0,0-1.4942-1.4942H159.9015a1.49582,1.49582,0,0,0-1.49471,1.4942m11.0546,7.15662a1.26266,1.26266,0,0,1-1.2612,1.2612H159.9015a1.26277,1.26277,0,0,1-1.2617-1.2612v-7.15662a1.26307,1.26307,0,0,1,1.2617-1.26169h8.29869a1.263,1.263,0,0,1,1.2612,1.26169Z" transform="translate(-138.3205 -110.00131)" style="fill:#003915"/><path d="M159.22569,131.84509v7.15662a.67622.67622,0,0,0,.67581.67578h7.0107a.67632.67632,0,0,0,.67571-.67578v-7.15662a.67653.67653,0,0,0-.67571-.67639h-7.0107a.67643.67643,0,0,0-.67581.67639m8.12921,7.15662a.44323.44323,0,0,1-.4427.44308h-7.0107a.44349.44349,0,0,1-.443-.44308v-7.15662a.44384.44384,0,0,1,.443-.44388h7.0107a.44358.44358,0,0,1,.4427.44388Z" transform="translate(-138.3205 -110.00131)" style="fill:#003915"/><path d="M168.00661,138.30161a.47424.47424,0,1,0,.47429-.4743.47509.47509,0,0,0-.47429.4743m.7155,0a.24126.24126,0,1,1-.24121-.24161A.24191.24191,0,0,1,168.72211,138.30161Z" transform="translate(-138.3205 -110.00131)" style="fill:#003915"/><path d="M168.00661,136.70081a.47424.47424,0,1,0,.47429-.47479.475.475,0,0,0-.47429.47479m.7155,0a.24126.24126,0,1,1-.24121-.24182A.24163.24163,0,0,1,168.72211,136.70081Z" transform="translate(-138.3205 -110.00131)" style="fill:#003915"/><rect x="23.0477" y="26.02737" width="0.23271" height="2.7196" style="fill:#003915"/><rect x="21.8035" y="27.27069" width="2.7196" height="0.2327" style="fill:#003915"/><path d="M160.58749,137.38849a.8969.8969,0,1,0,.89691-.89658.898.898,0,0,0-.89691.89658m1.561,0a.6643.6643,0,1,1-.66409-.66388A.66553.66553,0,0,1,162.1485,137.38849Z" transform="translate(-138.3205 -110.00131)" style="fill:#003915"/><rect x="26.8929" y="26.02737" width="0.23241" height="2.7196" style="fill:#003915"/><rect x="25.64841" y="27.27069" width="2.7205" height="0.2327" style="fill:#003915"/><path d="M164.43179,137.38849a.8972.8972,0,1,0,.89751-.89658.89867.89867,0,0,0-.89751.89658m1.5619,0a.6647.6647,0,1,1-.6644-.66388A.6654.6654,0,0,1,165.9937,137.38849Z" transform="translate(-138.3205 -110.00131)" style="fill:#003915"/><rect x="23.0477" y="22.09689" width="0.23271" height="2.7193" style="fill:#003915"/><rect x="21.8035" y="23.3396" width="2.7196" height="0.233" style="fill:#003915"/><path d="M160.58749,133.4574a.8969.8969,0,1,0,.89691-.89679.89791.89791,0,0,0-.89691.89679m1.561,0a.6643.6643,0,1,1-.66409-.66379A.666.666,0,0,1,162.1485,133.4574Z" transform="translate(-138.3205 -110.00131)" style="fill:#003915"/><rect x="26.8929" y="22.09689" width="0.23241" height="2.7193" style="fill:#003915"/><rect x="25.64841" y="23.3396" width="2.7205" height="0.233" style="fill:#003915"/><path d="M164.43179,133.4574a.8972.8972,0,1,0,.89751-.89679.89862.89862,0,0,0-.89751.89679m1.5619,0a.6647.6647,0,1,1-.6644-.66379A.66587.66587,0,0,1,165.9937,133.4574Z" transform="translate(-138.3205 -110.00131)" style="fill:#003915"/><path d="M168.00661,133.98721a.47424.47424,0,1,0,.47429-.47452.47485.47485,0,0,0-.47429.47452m.7155,0a.24126.24126,0,1,1-.24121-.24182A.24159.24159,0,0,1,168.72211,133.98721Z" transform="translate(-138.3205 -110.00131)" style="fill:#003915"/><path d="M168.00661,132.38571a.47424.47424,0,1,0,.47429-.474.47464.47464,0,0,0-.47429.474m.7155,0a.24126.24126,0,1,1-.24121-.24161A.24167.24167,0,0,1,168.72211,132.38571Z" transform="translate(-138.3205 -110.00131)" style="fill:#003915"/><path d="M175.4912,172.22659a.80925.80925,0,1,0,.23471.57091.80979.80979,0,0,0-.23471-.57091m-.5726-1.0363a1.6069,1.6069,0,1,1-1.1364.4705A1.60253,1.60253,0,0,1,174.91859,171.19029Z" transform="translate(-138.3205 -110.00131)" style="fill:#003915"/><path d="M147.0311,252.5471a.80929.80929,0,1,1,.2347-.57091.80979.80979,0,0,1-.2347.57091m-.5726,1.03639a1.60724,1.60724,0,1,0-1.1364-.4706A1.60279,1.60279,0,0,0,146.4585,253.5835Z" transform="translate(-138.3205 -110.00131)" style="fill:#003915"/><rect x="46.2059" width="6.6288" height="0.98138" style="fill:#003915"/><path d="M146.9458,172.116v2.98041h7.40691V172.116Zm17.12241,0v2.98041h7.40689V172.116Zm-8.52551,0v2.98041h3.07271V172.116Zm4.26271,0v2.98041h3.0728V172.116Zm-16.8324-2.20079v6.6288h29.9339v-6.6288Z" transform="translate(-138.3205 -110.00131)" style="fill:#003915;fill-rule:evenodd"/><rect x="32.298" y="65.09479" width="6.52161" height="1.44791" style="fill:#003915"/><rect x="38.1441" y="65.08998" width="7.82851" height="8.78941" style="fill:#003915"/><rect x="38.01091" y="131.16188" width="8.5782" height="8.7659" style="fill:#003915"/><rect x="149.93152" y="129.56659" width="8.57819" height="12.7596" style="fill:#003915"/><path d="M148.9929,251.2596h2.98039v3.0728H148.9929Zm0,3.8846h2.98039v3.0728H148.9929Zm-.88861-5.6554h4.7579v9.5627h-4.7579Z" transform="translate(-138.3205 -110.00131)" style="fill:#003915;fill-rule:evenodd"/><path d="M203.16611,150.06851c-.7319,0-1.2359-.618-1.2359-1.7399s.504-1.74,1.2359-1.74,1.23589.618,1.23589,1.74-.504,1.7399-1.23589,1.7399m0,.396c.972,0,1.67989-.798,1.67989-2.13589s-.70789-2.136-1.67989-2.136-1.67381.798-1.67381,2.136S202.19411,150.46451,203.16611,150.46451Zm-5.20781-4.2359v1.16989h.4261v-.786h2.16l-1.728,3.816h.468l1.758-3.894v-.30588Zm-.74969,3.576a.31408.31408,0,0,0-.3181.324.30308.30308,0,0,0,.216.30579l-.2041.87h.288l.252-.828a.97619.97619,0,0,0,.0842-.34781A.314.314,0,0,0,197.2086,149.8046Zm-3.66611-3.576v1.16989h.4261v-.786h2.16l-1.728,3.816h.468l1.758-3.894v-.30588Zm-2.304,0v.38388h.9902v3.816h.432v-4.19989Z" transform="translate(-138.3205 -110.00131)" style="fill:#6e6e6e;fill-rule:evenodd"/><path d="M287.7146,150.06851c-.732,0-1.236-.618-1.236-1.7399s.504-1.74,1.236-1.74,1.2359.618,1.2359,1.74-.504,1.7399-1.2359,1.7399m0,.396c.972,0,1.67981-.798,1.67981-2.13589s-.70779-2.136-1.67981-2.136-1.67389.798-1.67389,2.136S286.74261,150.46451,287.7146,150.46451Zm-2.07019-1.5239h-.8399v-.972h-.4198v.972h-1.8241l2.1481-2.712h-.48022l-2.2258,2.784v.3118h2.36981v1.1041h.432v-1.1041h.8399Zm-4.43372.864a.314.314,0,0,0-.318.324.3031.3031,0,0,0,.216.30579l-.2041.87h.288l.252-.828a.97652.97652,0,0,0,.0842-.34781A.31406.31406,0,0,0,281.21069,149.8046Zm-2.2861-1.776,1.188-1.49411v-.30588h-2.7v.38388h2.1481l-1.16391,1.4581v.318h.2999c.77982,0,1.13391.33,1.13391.834,0,.52191-.38391.84592-1.08.84592a1.84106,1.84106,0,0,1-1.302-.4859l-.21.34189a2.185,2.185,0,0,0,1.512.54c1.01389,0,1.5239-.54,1.5239-1.24191C280.27451,148.55051,279.82459,148.0766,278.92459,148.0286Z" transform="translate(-138.3205 -110.00131)" style="fill:#6e6e6e;fill-rule:evenodd"/><path d="M258.92789,216.1098c-.73187,0-1.2359-.618-1.2359-1.74s.504-1.7399,1.2359-1.7399,1.2359.618,1.2359,1.7399-.504,1.74-1.2359,1.74m0,.396c.972,0,1.67981-.798,1.67981-2.136s-.70779-2.13589-1.67981-2.13589-1.67389.798-1.67389,2.13589S257.9559,216.5058,258.92789,216.5058Zm-3.97189-.396c-.73189,0-1.2359-.618-1.2359-1.74s.504-1.7399,1.2359-1.7399,1.2359.618,1.2359,1.7399S255.6879,216.1098,254.956,216.1098Zm0,.396c.972,0,1.67981-.798,1.67981-2.136s-.70781-2.13589-1.67981-2.13589-1.67389.798-1.67389,2.13589S253.984,216.5058,254.956,216.5058Zm-2.54979-.66a.31407.31407,0,0,0-.318.324.303.303,0,0,0,.216.30589l-.2041.87h.288l.252-.828a.97684.97684,0,0,0,.0842-.3479A.314.314,0,0,0,252.4062,215.84579Zm-2.2861-1.77589,1.188-1.49409v-.30591h-2.7v.3839h2.1481l-1.16389,1.4581v.318h.2999c.7798,0,1.1338.33,1.1338.834,0,.5219-.3838.8459-1.08.8459a1.841,1.841,0,0,1-1.3019-.4859l-.2101.3419a2.18513,2.18513,0,0,0,1.512.54c1.014,0,1.5239-.54,1.5239-1.2419C251.46989,214.5918,251.0201,214.1178,250.1201,214.0699Zm-3.852-1.8v.3839h.9901v3.816h.432V212.2699Z" transform="translate(-138.3205 -110.00131)" style="fill:#6e6e6e;fill-rule:evenodd"/><path d="M171.38409,198.1098c-.73189,0-1.2359-.618-1.2359-1.74s.504-1.7399,1.2359-1.7399,1.2359.618,1.2359,1.7399-.504,1.74-1.2359,1.74m0,.396c.972,0,1.67981-.798,1.67981-2.136s-.70781-2.13589-1.67981-2.13589-1.67389.798-1.67389,2.13589S170.41209,198.5058,171.38409,198.5058Zm-3.6301-2.4359,1.188-1.49409v-.30591h-2.7v.3839h2.1481l-1.16391,1.4581v.318h.2999c.77991,0,1.13391.33,1.13391.834,0,.5219-.3838.8459-1.08.8459a1.84131,1.84131,0,0,1-1.302-.4859l-.21.3419a2.185,2.185,0,0,0,1.512.54c1.014,0,1.5239-.54,1.5239-1.2419C169.1039,196.5918,168.654,196.1178,167.754,196.0699Zm-2.42979,1.77589a.31414.31414,0,0,0-.3181.324.30312.30312,0,0,0,.216.30589l-.2041.87h.288l.252-.828a.97651.97651,0,0,0,.0842-.3479A.314.314,0,0,0,165.3242,197.84579Zm-3.24.2399,1.4281-1.40379a1.72867,1.72867,0,0,0,.6899-1.3141c0-.7019-.54-1.1339-1.39209-1.1339a1.88713,1.88713,0,0,0-1.4879.5999l.30589.2641a1.42629,1.42629,0,0,1,1.146-.468c.64211,0,.9839.2999.9839.7861,0,.2877-.0898.56979-.5638,1.0378l-1.74609,1.7101v.30591h2.946v-.38411Z" transform="translate(-138.3205 -110.00131)" style="fill:#6e6e6e;fill-rule:evenodd"/><path d="M169.46359,226.6098c-.73189,0-1.23589-.6179-1.23589-1.7399s.504-1.7399,1.23589-1.7399,1.2359.618,1.2359,1.7399-.504,1.7399-1.2359,1.7399m0,.396c.972,0,1.67981-.7979,1.67981-2.13589s-.70781-2.13591-1.67981-2.13591-1.6738.798-1.6738,2.13591S168.49159,227.0058,169.46359,227.0058Zm-3.97189-.396c-.7319,0-1.2359-.6179-1.2359-1.7399s.504-1.7399,1.2359-1.7399,1.2359.618,1.2359,1.7399S166.2236,226.6098,165.4917,226.6098Zm0,.396c.972,0,1.67979-.7979,1.67979-2.13589s-.70779-2.13591-1.67979-2.13591-1.6738.798-1.6738,2.13591S164.5197,227.0058,165.4917,227.0058Zm-2.5497-.6599a.31413.31413,0,0,0-.3181.324.30323.30323,0,0,0,.216.30589l-.2041.87h.288l.252-.828a.97651.97651,0,0,0,.0842-.3479A.314.314,0,0,0,162.942,226.3459Zm-.84621-.864h-.83989v-.972h-.4198v.972H159.012l2.1481-2.7119h-.48019l-2.2258,2.78389v.3119h2.3698v1.104h.432v-1.104h.83989Z" transform="translate(-138.3205 -110.00131)" style="fill:#6e6e6e;fill-rule:evenodd"/><path d="M202.4538,250.6097c-.7319,0-1.2359-.618-1.2359-1.7399s.504-1.74,1.2359-1.74,1.2359.618,1.2359,1.74-.504,1.7399-1.2359,1.7399m0,.396c.972,0,1.67981-.798,1.67981-2.13591s-.70781-2.136-1.67981-2.136-1.67389.798-1.67389,2.136S201.4818,251.00571,202.4538,251.00571Zm-3.966-2.51411h-.54l.144-1.33789h1.91991v-.3839H197.714l-.216,2.1059h.894c1.06779,0,1.4037.33589,1.4037.8759,0,.51-.37781.85809-1.0919.85809a1.821,1.821,0,0,1-1.29-.4859l-.20981.3419a2.1687,2.1687,0,0,0,1.5058.54c1.02611,0,1.52391-.55791,1.52391-1.27191C200.2337,248.9897,199.7538,248.49159,198.48779,248.49159Zm-2.0457,1.8542a.31409.31409,0,0,0-.3181.324.30312.30312,0,0,0,.216.3058l-.2041.87h.288l.252-.828a.97632.97632,0,0,0,.0842-.34779A.314.314,0,0,0,196.44209,250.34579Zm-.84619-.864h-.8399v-.972h-.4198v.972h-1.8241l2.1481-2.712H194.18l-2.22569,2.784v.3118H194.324v1.1041h.432v-1.1041h.8399Z" transform="translate(-138.3205 -110.00131)" style="fill:#6e6e6e;fill-rule:evenodd"/><path d="M174.26379,279.1098c-.73189,0-1.2359-.618-1.2359-1.74s.504-1.7399,1.2359-1.7399,1.2359.618,1.2359,1.7399-.504,1.74-1.2359,1.74m0,.396c.972,0,1.67981-.798,1.67981-2.136s-.70781-2.13589-1.67981-2.13589-1.6738.798-1.6738,2.13589S173.29179,279.5058,174.26379,279.5058Zm-3.9659-2.5141h-.54l.144-1.33791h1.91989v-.3839H169.524l-.216,2.1059h.894c1.0679,0,1.40381.33591,1.40381.8759,0,.51-.3779.85811-1.0919.85811a1.82146,1.82146,0,0,1-1.2901-.4859l-.20979.3419a2.16864,2.16864,0,0,0,1.5058.54c1.0262,0,1.5239-.55789,1.5239-1.272C172.0437,277.48979,171.5638,276.9917,170.2979,276.9917Zm-2.04579,1.8541a.31414.31414,0,0,0-.3181.324.30313.30313,0,0,0,.216.30589l-.204.87h.288l.252-.828a.978.978,0,0,0,.08411-.3479A.314.314,0,0,0,168.25211,278.84579Zm-2.6221-1.8541h-.54l.144-1.33791h1.92v-.3839H164.8562l-.216,2.1059h.894c1.06781,0,1.40381.33591,1.40381.8759,0,.51-.3779.85811-1.092.85811a1.821,1.821,0,0,1-1.29-.4859l-.20979.3419a2.16864,2.16864,0,0,0,1.5058.54c1.02609,0,1.5239-.55789,1.5239-1.272C167.3759,277.48979,166.896,276.9917,165.63,276.9917Z" transform="translate(-138.3205 -110.00131)" style="fill:#6e6e6e;fill-rule:evenodd"/><path d="M256.81781,279.6098c-.7319,0-1.23592-.618-1.23592-1.7399s.504-1.7399,1.23592-1.7399,1.2359.61789,1.2359,1.7399-.504,1.7399-1.2359,1.7399m0,.396c.972,0,1.67978-.798,1.67978-2.13589s-.70779-2.13591-1.67978-2.13591-1.6739.79791-1.6739,2.13591S255.84579,280.0058,256.81781,280.0058ZM252.7197,275.77v.38379h.9902v3.816h.432V275.77Zm-.61169,3.5759a.314.314,0,0,0-.318.324.303.303,0,0,0,.216.30579l-.2041.87h.288l.252-.828a.97575.97575,0,0,0,.08409-.34779A.314.314,0,0,0,252.108,279.3459Zm-.8461-.864h-.8399v-.972h-.41989v.972H248.178l2.1481-2.7119h-.4801l-2.2258,2.78389v.3118H249.99v1.10411h.432v-1.10411h.8399ZM245.268,275.77v.38379h.9901v3.816h.432V275.77Z" transform="translate(-138.3205 -110.00131)" style="fill:#6e6e6e;fill-rule:evenodd"/><path d="M143.03,215.57339a3.90785,3.90785,0,1,1-3.9079,3.90761,3.90811,3.90811,0,0,1,3.9079-3.90761" transform="translate(-138.3205 -110.00131)" style="fill:#558e42;fill-rule:evenodd"/><polygon points="7.113 109.48 5.799 109.102 4.484 108.723 4.484 109.48 4.484 110.236 5.799 109.858 7.113 109.48" style="fill:#fdfdfd;fill-rule:evenodd"/><rect x="2.3054" y="109.30078" width="2.2813" height="0.38411" style="fill:#fdfdfd"/><path d="M212.8983,119.49231h-.3149l.08389-.7807h1.12v-.22391h-1.3405l-.12589,1.22849h.52129c.62311,0,.81921.19592.81921.51111,0,.2973-.2205.50031-.63721.50031a1.06091,1.06091,0,0,1-.7523-.28351l-.1225.19962a1.26441,1.26441,0,0,0,.87849.31488c.5984,0,.8889-.32538.8889-.74179,0-.4343-.28-.72449-1.01849-.72449m-2.3065,1.22141.8331-.81891a1.00777,1.00777,0,0,0,.4025-.76651c0-.40961-.3149-.66159-.81209-.66159a1.101,1.101,0,0,0-.868.3501l.1786.1539a.832.832,0,0,1,.6684-.273c.37451,0,.574.1749.574.4584,0,.16809-.0524.33249-.3288.6055l-1.01851.9975v.17862h1.71841v-.224Zm-.9099-.14a.18316.18316,0,0,0-.18539.18909.1767.1767,0,0,0,.12579.17831l-.119.5076h.16811l.14709-.483a.57339.57339,0,0,0,.049-.20291A.18317.18317,0,0,0,209.6819,120.5737Zm-1.5293-1.08139h-.315l.08389-.7807h1.12v-.22391H207.701l-.1259,1.22849h.5213c.62309,0,.81929.19592.81929.51111,0,.2973-.2206.50031-.6373.50031a1.06091,1.06091,0,0,1-.7523-.28351l-.12239.19962a1.264,1.264,0,0,0,.8784.31488c.59839,0,.889-.32538.889-.74179C209.1711,119.7825,208.891,119.49231,208.1526,119.49231Z" transform="translate(-138.3205 -110.00131)" style="fill:#434242"/><path d="M285.1387,119.49231h-.31491l.08392-.7807h1.12v-.22391H284.6871l-.12579,1.22849h.5213c.623,0,.81918.19592.81918.51111,0,.2973-.22049.50031-.63721.50031a1.06066,1.06066,0,0,1-.75229-.28351l-.1225.19962a1.26445,1.26445,0,0,0,.87851.31488c.5983,0,.88889-.32538.88889-.74179,0-.4343-.28009-.72449-1.01849-.72449m-2.05789-1.00461v.22391h.57739v2.2261h.252v-2.45Zm-.3569,2.086a.18315.18315,0,0,0-.18539.18909.1767.1767,0,0,0,.12579.17831l-.119.5076h.16812l.14709-.483a.57364.57364,0,0,0,.049-.20291A.18317.18317,0,0,0,282.72391,120.5737Zm-1.60641-2.086v.22391h.57739v2.2261h.252v-2.45Z" transform="translate(-138.3205 -110.00131)" style="fill:#434242"/><path d="M254.11321,187.7276c-.42691,0-.7211-.3606-.7211-1.0148,0-.6545.29419-1.01511.7211-1.01511s.7209.36061.7209,1.01511c0,.65421-.294,1.0148-.7209,1.0148m0,.231c.567,0,.98-.46541.98-1.2458,0-.7807-.413-1.24609-.98-1.24609s-.9765.46539-.9765,1.24609C253.1367,187.49319,253.5463,187.9586,254.11321,187.9586Zm-2.39041-2.471v.224h.57741v2.226h.252v-2.45Zm-.35689,2.08611a.18315.18315,0,0,0-.18541.189.17664.17664,0,0,0,.1259.1783l-.11909.50771h.16809l.14711-.483a.57393.57393,0,0,0,.0491-.203A.18318.18318,0,0,0,251.36591,187.5737Zm-.49321-.504h-.4901v-.567h-.245v.567h-1.0641l1.2529-1.58211h-.2798l-1.29851,1.624v.182h1.38251v.644h.252v-.644h.4901Z" transform="translate(-138.3205 -110.00131)" style="fill:#434242"/><path d="M238.38721,305.4884v.6826h.2486v-.45869h1.26l-1.008,2.2261h.273l1.02521-2.2714v-.1786Zm-1.57861,2.226.8331-.8189a1.00762,1.00762,0,0,0,.40251-.7665c0-.4096-.31491-.6616-.8121-.6616a1.10133,1.10133,0,0,0-.868.3501l.17859.1539a.832.832,0,0,1,.66841-.273c.37439,0,.574.1749.574.4584,0,.1681-.0524.3325-.3288.6055l-1.01849.9975v.1786h1.7184v-.224Zm-.91-.14a.18314.18314,0,0,0-.1853.18909.17669.17669,0,0,0,.12579.17831l-.119.5077h.16811l.14709-.4831a.575.575,0,0,0,.049-.2029A.18321.18321,0,0,0,235.89861,307.5744ZM234.3694,306.493h-.315l.08391-.78069h1.12v-.22391h-1.3405l-.1259,1.2285h.5213c.62309,0,.8192.1959.8192.5111,0,.2974-.2205.50031-.63721.50031a1.06136,1.06136,0,0,1-.75229-.2834l-.1225.1995a1.2645,1.2645,0,0,0,.87849.315c.5984,0,.8889-.3255.8889-.7419C235.3878,306.7833,235.1078,306.493,234.3694,306.493Z" transform="translate(-138.3205 -110.00131)" style="fill:#434242"/><path d="M167.7682,291.7149l.8331-.819a1.0076,1.0076,0,0,0,.4025-.76651c0-.40959-.3149-.66159-.8121-.66159a1.10145,1.10145,0,0,0-.868.3501l.1786.1539a.832.832,0,0,1,.6684-.2729c.3745,0,.5741.1749.5741.4583,0,.16811-.05249.3325-.3289.6055l-1.01849.9975v.1786h1.7184v-.22389Zm-1.6591-.97321c-.3779,0-.616-.2063-.616-.5284a.5363.5363,0,0,1,.59869-.532c.42351,0,.6474.25569.6474.525A.56705.56705,0,0,1,166.1091,290.7417Zm-.0278-1.2739a.76323.76323,0,0,0-.8365.75259.7416.7416,0,0,0,.826.7348.78267.78267,0,0,0,.7489-.4198c.0071.07339.0105.1434.0105.19949,0,.665-.3396,1.0043-.8679,1.0043a.85942.85942,0,0,1-.476-.1153l-.10139.2029a1.12365,1.12365,0,0,0,.5808.133c.665,0,1.1199-.434,1.1199-1.26709C167.0856,289.9194,166.73219,289.4678,166.0813,289.4678Zm-1.3127,2.107a.18317.18317,0,0,0-.18539.1891.17675.17675,0,0,0,.1259.1783l-.11911.50771h.16811l.14709-.483a.57443.57443,0,0,0,.0491-.203A.18322.18322,0,0,0,164.7686,291.5748Zm-1.6064-2.086v.22389h.57739v2.2261h.252v-2.45Z" transform="translate(-138.3205 -110.00131)" style="fill:#434242"/><line x1="67.6851" y1="9.7764" x2="20.6212" y2="9.7764" style="fill:none;stroke:#b1b2b2;stroke-miterlimit:22.92558479309082;stroke-width:0.2160000056028366px"/><line x1="140.68521" y1="9.7764" x2="133.93671" y2="9.7764" style="fill:none;stroke:#b1b2b2;stroke-miterlimit:22.92558479309082;stroke-width:0.2160000056028366px"/><line x1="108.93521" y1="76.77638" x2="74.6212" y2="76.77638" style="fill:none;stroke:#b1b2b2;stroke-miterlimit:22.92558479309082;stroke-width:0.2160000056028366px"/><line x1="93.9353" y1="196.77708" x2="49.7653" y2="196.77708" style="fill:none;stroke:#b1b2b2;stroke-miterlimit:22.92558479309082;stroke-width:0.2160000056028366px"/><line x1="23.1851" y1="180.77759" x2="6.4256" y2="180.77759" style="fill:none;stroke:#b1b2b2;stroke-miterlimit:22.92558479309082;stroke-width:0.2160000056028366px"/><line x1="124.83722" y1="9.7764" x2="77.12421" y2="9.7764" style="fill:none;stroke:#b1b2b2;stroke-miterlimit:22.92558479309082;stroke-width:0.2160000056028366px"/><line x1="156.87271" y1="9.7764" x2="150.1243" y2="9.7764" style="fill:none;stroke:#b1b2b2;stroke-miterlimit:22.92558479309082;stroke-width:0.2160000056028366px"/><line x1="154.76599" y1="76.77638" x2="118.37421" y2="76.77638" style="fill:none;stroke:#b1b2b2;stroke-miterlimit:22.92558479309082;stroke-width:0.2160000056028366px"/><line x1="153.12131" y1="196.77708" x2="103.3744" y2="196.77708" style="fill:none;stroke:#b1b2b2;stroke-miterlimit:22.92558479309082;stroke-width:0.2160000056028366px"/><line x1="43.9671" y1="180.77759" x2="32.62421" y2="180.77759" style="fill:none;stroke:#b1b2b2;stroke-miterlimit:22.92558479309082;stroke-width:0.2160000056028366px"/><path d="M288.46179,279.24181c0,.4269-.3606.72119-1.0148.72119-.6546,0-1.01511-.2943-1.01511-.72119s.3605-.72081,1.01511-.72081c.65421,0,1.0148.2939,1.0148.72081m.231,0c0-.56691-.46552-.9799-1.24582-.9799-.7807,0-1.24609.413-1.24609.9799s.46539.97659,1.24609.97659C288.22729,280.2184,288.69281,279.80879,288.69281,279.24181Zm-2.471,2.39049h.224v-.57739h2.226v-.252h-2.45Zm2.086.3569a.18318.18318,0,0,0,.18909.18541.17678.17678,0,0,0,.17831-.1259l.50769.11909v-.16811l-.483-.14709a.57429.57429,0,0,0-.203-.0491A.1832.1832,0,0,0,288.3078,281.9892Zm-1.036,1.3334-.8714-.69279h-.17859v1.57489h.224v-1.2529l.85059.67891h.18542v-.17491c0-.4552.19247-.66159.48648-.66159.30441,0,.4935.224.4935.6299a1.0743,1.0743,0,0,1-.28348.75969l.19959.12241a1.27468,1.27468,0,0,0,.31491-.8821c0-.59131-.31491-.889-.72452-.889C287.5762,282.5351,287.2998,282.79759,287.27179,283.3226Z" transform="translate(-138.3205 -110.00131)" style="fill:#434242"/><path d="M286.2218,210.6667h.224v-.5775h2.226v-.252h-2.45Zm2.2261,1.512-.819-.8331a1.00782,1.00782,0,0,0-.76642-.4026c-.40958,0-.66159.315-.66159.81221a1.101,1.101,0,0,0,.35.86789l.154-.1785a.83238.83238,0,0,1-.273-.6685c0-.37439.17493-.574.45831-.574.16809,0,.33249.05249.6055.3288l.9975,1.01849h.17862V210.8311h-.22391Zm-.14011.9099a.18318.18318,0,0,0,.18909.18541.17678.17678,0,0,0,.17831-.1259l.50769.11909v-.16809l-.483-.14711a.57429.57429,0,0,0-.203-.0491A.1832.1832,0,0,0,288.3078,213.08859Zm.14011,1.89011-.819-.8331a1.00763,1.00763,0,0,0-.76642-.4025c-.40958,0-.66159.3149-.66159.8121a1.10125,1.10125,0,0,0,.35.868l.154-.1786a.832.832,0,0,1-.273-.6684c0-.3744.17493-.574.45831-.574.16809,0,.33249.0524.6055.3288l.9975,1.01851h.17862v-1.7184h-.22391Z" transform="translate(-138.3205 -110.00131)" style="fill:#434242"/><path d="M293.4794,143.15161c0,.42349-.2554.6478-.525.6478a.56733.56733,0,0,1-.53549-.63022c0-.37778.20639-.616.52838-.616a.53618.53618,0,0,1,.5321.59842m-1.2739-.0209a.78352.78352,0,0,0,.4198.74921c-.07339.00677-.1434.01038-.19962.01038-.6647,0-1.0043-.33948-1.0043-.86789a.86054.86054,0,0,1,.11542-.4762l-.203-.1015a1.12566,1.12566,0,0,0-.1329.58109c0,.665.434,1.12,1.26709,1.12.77332,0,1.22482-.35352,1.22482-1.00461a.76338.76338,0,0,0-.75262-.83661A.74172.74172,0,0,0,292.20551,143.13071Zm.26929,2.35559c0,.37781-.20639.61591-.52838.61591a.53638.53638,0,0,1-.5321-.59869c0-.42352.25571-.6474.525-.6474A.56714.56714,0,0,1,292.47479,145.4863Zm-1.2739.02771a.76312.76312,0,0,0,.75259.83649.74152.74152,0,0,0,.73471-.826.78261.78261,0,0,0-.4198-.7489c.07339-.00711.1434-.0105.19959-.0105.665,0,1.0043.3396,1.0043.868a.859.859,0,0,1-.11539.47592l.203.1015a1.1241,1.1241,0,0,0,.1329-.58081c0-.665-.434-1.12-1.26712-1.12C291.6524,144.5097,291.2009,144.86319,291.2009,145.514Zm2.107,1.31281a.1831.1831,0,0,0,.189.18527.17662.17662,0,0,0,.17831-.12579l.50769.119v-.16812l-.483-.14709a.5755.5755,0,0,0-.203-.049A.18319.18319,0,0,0,293.30789,146.82681Zm.14,1.89008-.81891-.8331a1.00773,1.00773,0,0,0-.76651-.4025c-.40958,0-.66159.31491-.66159.8121a1.101,1.101,0,0,0,.3501.868l.1539-.17862a.83213.83213,0,0,1-.273-.6684c0-.37448.17493-.574.4584-.574.16812,0,.33252.0524.60541.32883l.99759,1.01849h.17853v-1.71841h-.22391Z" transform="translate(-138.3205 -110.00131)" style="fill:#434242"/><path d="M175.729,141.78479c0,.434-.189.68942-.4935.68942-.301,0-.4901-.2554-.4901-.68942s.18909-.69308.4901-.69308c.30449,0,.4935.25909.4935.69308m-1.6239.6055c-.273,0-.4411-.2348-.4411-.6055,0-.36768.16811-.60919.4445-.60919.2661,0,.43759.2276.43759.60919C174.5461,142.166,174.3746,142.39029,174.1051,142.39029Zm.532-1.07809a.5548.5548,0,0,0-.53909-.392c-.39891,0-.6474.34641-.6474.86459,0,.51791.24849.85751.6474.85751a.55292.55292,0,0,0,.53909-.38531.611.611,0,0,0,.60181.47263c.434,0,.7036-.3569.7036-.94482,0-.5845-.26961-.95218-.7036-.95218A.61693.61693,0,0,0,174.6371,141.31219Zm1.0919,2.54071c0,.42349-.2554.64771-.5249.64771a.56719.56719,0,0,1-.53551-.6301c0-.37793.20641-.616.52841-.616A.53612.53612,0,0,1,175.729,143.85291Zm-1.27391-.0209a.78372.78372,0,0,0,.41991.74921c-.0735.00681-.14349.01041-.1996.01041-.6647,0-1.0043-.3396-1.0043-.86792a.86054.86054,0,0,1,.1154-.4762l-.203-.1015a1.1257,1.1257,0,0,0-.13289.58112c0,.665.4339,1.11987,1.267,1.11987.7733,0,1.2249-.35339,1.2249-1.00458a.7634.7634,0,0,0-.75261-.83652A.7418.7418,0,0,0,174.45509,143.832Zm1.1024,1.52609a.18316.18316,0,0,0,.1891.18539.17668.17668,0,0,0,.1783-.12579l.50771.119v-.16812l-.483-.14709a.57347.57347,0,0,0-.203-.049A.18321.18321,0,0,0,175.5575,145.35809Zm.14011,1.8902-.819-.8331a1.00775,1.00775,0,0,0-.7664-.40259c-.40959,0-.66159.315-.66159.81219a1.10106,1.10106,0,0,0,.35.86789l.154-.1785a.83208.83208,0,0,1-.273-.6684c0-.37448.17491-.5741.4583-.5741.16811,0,.3325.05249.60551.32889l.9975,1.0184h.17859V145.9007h-.22389Z" transform="translate(-138.3205 -110.00131)" style="fill:#434242"/><path d="M157.2262,189.135v.31491l-.7807-.08391v-1.12h-.22389v1.3405l1.2285.1259v-.5213c0-.62311.19589-.8192.51109-.8192.29741,0,.50031.22049.50031.63719a1.061,1.061,0,0,1-.28351.7523l.1996.1225a1.26443,1.26443,0,0,0,.31491-.87849c0-.5984-.32541-.8889-.74181-.8889-.4343,0-.7245.28011-.7245,1.01849m.0453,1.7498-.87129-.69279h-.1786v1.57491h.22389V190.514l.85071.67891h.18539v-.1749c0-.4552.1924-.66161.4864-.66161.3044,0,.4935.224.4935.6299a1.07392,1.07392,0,0,1-.28351.7597l.1996.12239a1.27425,1.27425,0,0,0,.31491-.8821c0-.59129-.31491-.889-.7245-.889C157.576,190.09731,157.29961,190.3598,157.2715,190.8848Zm1.0361,1.4176a.18317.18317,0,0,0,.1891.18539.17664.17664,0,0,0,.1783-.1259l.5076.11911v-.16811l-.483-.14709a.574.574,0,0,0-.2029-.0491A.18321.18321,0,0,0,158.3076,192.3024Zm-2.086,1.6064h.22389v-.57739h2.2261v-.252h-2.45Z" transform="translate(-138.3205 -110.00131)" style="fill:#434242"/><path d="M151.9617,224.71739c0,.42691-.3606.72121-1.0148.72121-.6546,0-1.01511-.2943-1.01511-.72121s.3605-.72079,1.01511-.72079c.65421,0,1.0148.2939,1.0148.72079m.231,0c0-.56689-.4655-.97989-1.2458-.97989-.7807,0-1.24609.413-1.24609.97989s.46539.97661,1.24609.97661C151.7272,225.694,152.1927,225.28439,152.1927,224.71739Zm-2.471,2.3905h.224v-.57739h2.226v-.252h-2.45Zm2.086.3569a.18323.18323,0,0,0,.1891.18539.17675.17675,0,0,0,.1783-.1259l.50771.11911v-.16811l-.483-.1472a.57609.57609,0,0,0-.203-.049A.18327.18327,0,0,0,151.80769,227.4648Zm.14011,1.89011-.81889-.8331a1.00793,1.00793,0,0,0-.76651-.40251c-.40959,0-.66159.31491-.66159.8121a1.10127,1.10127,0,0,0,.35.868l.154-.17859a.832.832,0,0,1-.273-.66841c0-.3745.17491-.574.45831-.574.16809,0,.33249.0524.6055.3288l.9975,1.01849h.1786v-1.7184h-.22391Z" transform="translate(-138.3205 -110.00131)" style="fill:#434242"/><path d="M158.22169,279.06689h.22391v-.57739h2.2261v-.252h-2.45Zm2.2399,1.18291c0,.4269-.36049.72119-1.0148.72119-.6545,0-1.01509-.2943-1.01509-.72119s.3606-.72079,1.01509-.72079C160.1011,279.529,160.46159,279.82291,160.46159,280.2498Zm.23111,0c0-.56691-.4655-.9799-1.24591-.9799-.78059,0-1.24609.413-1.24609.9799s.4655.97659,1.24609.97659C160.2272,281.22639,160.6927,280.8168,160.6927,280.2498Zm-.385,1.4877a.18323.18323,0,0,0,.1891.18539.17676.17676,0,0,0,.1783-.1259l.50771.119v-.168l-.48309-.1472a.57493.57493,0,0,0-.20291-.049A.18322.18322,0,0,0,160.30769,281.7375Zm-1.036,1.33339-.8714-.69279h-.1786V283.953h.22391v-1.2529l.85069.67889h.18541v-.1749c0-.4552.19249-.66161.48639-.66161.3045,0,.4935.22391.4935.6299a1.07409,1.07409,0,0,1-.28339.75961l.19949.1225a1.27469,1.27469,0,0,0,.315-.88211c0-.59129-.315-.889-.72461-.889C159.5761,282.2834,159.2997,282.5459,159.2717,283.07089Z" transform="translate(-138.3205 -110.00131)" style="fill:#434242"/><path d="M191.4715,295.8035h.224v-.57739h2.226v-.252h-2.45Zm1.05.99051-.8714-.69281h-.1786v1.57491h.224v-1.2529l.8506.67889h.18541v-.1749c0-.4552.19249-.66161.4865-.66161.3044,0,.4935.22391.4935.6299a1.074,1.074,0,0,1-.28351.75961l.1996.12251a1.27508,1.27508,0,0,0,.31491-.88211c0-.5914-.31491-.889-.7245-.889C192.8259,296.0065,192.5495,296.269,192.5215,296.794Zm1.036,1.4176a.18318.18318,0,0,0,.1891.1854.17676.17676,0,0,0,.1783-.1259l.50771.11909v-.1681l-.483-.1472a.57592.57592,0,0,0-.203-.049A.18321.18321,0,0,0,193.5575,298.2116Zm-2.086,1.6064h.224v-.5774h2.226v-.252h-2.45Z" transform="translate(-138.3205 -110.00131)" style="fill:#434242"/><line x1="149.19141" y1="175.89349" x2="149.19141" y2="200.19228" style="fill:none;stroke:#b1b2b2;stroke-miterlimit:22.92558479309082;stroke-width:0.2160000056028366px"/><line x1="149.19141" y1="107.14339" x2="149.19141" y2="133.45738" style="fill:none;stroke:#b1b2b2;stroke-miterlimit:22.92558479309082;stroke-width:0.2160000056028366px"/><line x1="154.19141" y1="40.3931" x2="154.19141" y2="63.40729" style="fill:none;stroke:#b1b2b2;stroke-miterlimit:22.92558479309082;stroke-width:0.2160000056028366px"/><line x1="36.4411" y1="38.89297" x2="36.4411" y2="58.31207" style="fill:none;stroke:#b1b2b2;stroke-miterlimit:22.92558479309082;stroke-width:0.2160000056028366px"/><line x1="19.1911" y1="85.64319" x2="19.1911" y2="92.39159" style="fill:none;stroke:#b1b2b2;stroke-miterlimit:22.92558479309082;stroke-width:0.2160000056028366px"/><line x1="12.6913" y1="121.39339" x2="12.6913" y2="137.32559" style="fill:none;stroke:#b1b2b2;stroke-miterlimit:22.92558479309082;stroke-width:0.2160000056028366px"/><line x1="21.19121" y1="175.64339" x2="21.19121" y2="198.74039" style="fill:none;stroke:#b1b2b2;stroke-miterlimit:22.92558479309082;stroke-width:0.2160000056028366px"/><line x1="54.4411" y1="191.89329" x2="54.4411" y2="198.64178" style="fill:none;stroke:#b1b2b2;stroke-miterlimit:22.92558479309082;stroke-width:0.2160000056028366px"/><line x1="149.19141" y1="138.57449" x2="149.19141" y2="166.45439" style="fill:none;stroke:#b1b2b2;stroke-miterlimit:22.92558479309082;stroke-width:0.2160000056028366px"/><line x1="149.19141" y1="73.45729" x2="149.19141" y2="97.70428" style="fill:none;stroke:#b1b2b2;stroke-miterlimit:22.92558479309082;stroke-width:0.2160000056028366px"/><line x1="154.19141" y1="5.0199" x2="154.19141" y2="30.9541" style="fill:none;stroke:#b1b2b2;stroke-miterlimit:22.92558479309082;stroke-width:0.2160000056028366px"/><line x1="36.4411" y1="5.0199" x2="36.4411" y2="29.45398" style="fill:none;stroke:#b1b2b2;stroke-miterlimit:22.92558479309082;stroke-width:0.2160000056028366px"/><line x1="19.1911" y1="66.54269" x2="19.1911" y2="76.20409" style="fill:none;stroke:#b1b2b2;stroke-miterlimit:22.92558479309082;stroke-width:0.2160000056028366px"/><line x1="12.6913" y1="95.77419" x2="12.6913" y2="111.95428" style="fill:none;stroke:#b1b2b2;stroke-miterlimit:22.92558479309082;stroke-width:0.2160000056028366px"/><line x1="21.19121" y1="139.92778" x2="21.19121" y2="166.20439" style="fill:none;stroke:#b1b2b2;stroke-miterlimit:22.92558479309082;stroke-width:0.2160000056028366px"/><line x1="54.4411" y1="175.70578" x2="54.4411" y2="182.45419" style="fill:none;stroke:#b1b2b2;stroke-miterlimit:22.92558479309082;stroke-width:0.2160000056028366px"/></svg>