<svg id="Слой_1" data-name="Слой 1" xmlns="http://www.w3.org/2000/svg" viewBox="0 0 161.6936 187.34941"><title>2.07.01</title><polygon points="161.694 187.349 3.353 187.349 3.353 172.818 0 172.818 0 63.318 3.353 63.318 3.353 0 161.694 0 161.694 187.349" style="fill:#fff;fill-rule:evenodd"/><path d="M222.52,242.27721a.374.374,0,1,1,.37469-.6474l13.92011,8.03989a.374.374,0,0,1-.37471.6474Z" transform="translate(-131.7515 -118.92389)" style="fill:#003915"/><path d="M209.5058,242.27721a.374.374,0,1,0-.37469-.6474L195.211,249.66969a.374.374,0,1,0,.37469.6474Z" transform="translate(-131.7515 -118.92389)" style="fill:#003915"/><path d="M277.3324,155.8049a.374.374,0,0,0-.37479-.6474l-13.92011,8.03989a.374.374,0,0,0,.37479.6474Z" transform="translate(-131.7515 -118.92389)" style="fill:#003915"/><path d="M241.62891,213.7012a.37408.37408,0,0,1-.64751-.3748l8.04-13.9201a.374.374,0,0,1,.6474.3748Z" transform="translate(-131.7515 -118.92389)" style="fill:#003915"/><path d="M167.08929,178.564a.374.374,0,1,1-.6474-.37469l8.0399-13.9201a.374.374,0,1,1,.6474.37469Z" transform="translate(-131.7515 -118.92389)" style="fill:#003915"/><rect x="117.08841" y="66.22641" width="2.60219" height="15.47321" style="fill:#003915"/><rect x="121.8912" y="2.0546" width="2.6022" height="33.91791" style="fill:#003915"/><rect x="117.08841" y="96.25691" width="2.60219" height="25.3642" style="fill:#003915"/><rect x="82.63301" y="122.13211" width="2.60219" height="25.3642" style="fill:#003915"/><rect x="117.53011" y="66.40221" width="41.36311" height="2.6022" style="fill:#003915"/><rect x="145.3912" y="34.2973" width="13.50201" height="2.6022" style="fill:#003915"/><rect x="117.08841" y="117.48302" width="41.36319" height="2.60229" style="fill:#003915"/><rect x="109.4165" y="120.6703" width="49.0351" height="2.6022" style="fill:#003915"/><rect x="77.0726" y="120.6703" width="14.3002" height="2.6022" style="fill:#003915"/><rect x="5.3322" y="120.6703" width="53.7639" height="2.6022" style="fill:#003915"/><rect x="0.17601" width="161.51759" height="5.00201" style="fill:#003915"/><rect x="156.6933" y="132.59111" width="5.00031" height="49.5993" style="fill:#003915"/><rect x="80.2332" y="136.85901" width="5.002" height="45.3314" style="fill:#003915"/><rect x="155.26971" y="56.99341" width="6.42389" height="79.5356" style="fill:#003915"/><rect x="155.26971" width="6.42389" height="36.89951" style="fill:#003915"/><rect x="149.754" width="6.4256" height="2.10532" style="fill:#003915"/><rect y="179.18931" width="28.4709" height="8.1601" style="fill:#003915"/><rect x="57.56291" y="179.18931" width="46.57489" height="8.1601" style="fill:#003915"/><rect x="134.0654" y="179.18931" width="27.6282" height="8.1601" style="fill:#003915"/><rect y="61.51302" width="39.3432" height="8.1601" style="fill:#003915"/><rect y="62.18701" width="8.16011" height="26.0034" style="fill:#003915"/><rect y="117.72711" width="8.16011" height="69.6223" style="fill:#003915"/><rect x="31.18311" y="2.11441" width="8.1601" height="27.44391" style="fill:#003915"/><rect x="31.18311" width="8.1601" height="2.73572" style="fill:#003915"/><rect x="31.18311" y="59.67702" width="8.1601" height="9.99609" style="fill:#003915"/><rect x="42.33171" y="182.19041" width="0.5018" height="2.29861" style="fill:#003915"/><rect x="43.5305" y="182.19041" width="0.50121" height="2.29861" style="fill:#003915"/><rect x="56.1676" y="182.19041" width="0.5015" height="2.29861" style="fill:#003915"/><rect x="57.3661" y="182.19041" width="0.50121" height="2.29861" style="fill:#003915"/><rect x="28.22" y="182.19041" width="0.5018" height="2.29861" style="fill:#003915"/><rect x="29.4185" y="182.19041" width="0.50121" height="2.29861" style="fill:#003915"/><rect x="25.8304" y="179.18851" width="34.0937" height="0.5014" style="fill:#003915"/><rect x="25.8304" y="182.03561" width="34.0937" height="0.5014" style="fill:#003915"/><rect x="25.8304" y="184.20691" width="34.0937" height="0.5015" style="fill:#003915"/><rect x="25.8304" y="186.84801" width="34.0937" height="0.5014" style="fill:#003915"/><rect x="118.1956" y="182.19041" width="0.5018" height="2.29861" style="fill:#003915"/><rect x="119.39441" y="182.19041" width="0.50119" height="2.29861" style="fill:#003915"/><rect x="132.03162" y="182.19041" width="0.50137" height="2.29861" style="fill:#003915"/><rect x="133.23001" y="182.19041" width="0.50119" height="2.29861" style="fill:#003915"/><rect x="104.08391" y="182.19041" width="0.5018" height="2.29861" style="fill:#003915"/><rect x="105.28241" y="182.19041" width="0.50119" height="2.29861" style="fill:#003915"/><rect x="101.69431" y="179.18851" width="34.09369" height="0.5014" style="fill:#003915"/><rect x="101.69431" y="182.03561" width="34.09369" height="0.5014" style="fill:#003915"/><rect x="101.69431" y="184.20691" width="34.09369" height="0.5015" style="fill:#003915"/><rect x="101.69431" y="186.84801" width="34.09369" height="0.5014" style="fill:#003915"/><rect x="3.00191" y="102.84381" width="2.2986" height="0.50169" style="fill:#003915"/><rect x="3.00191" y="101.64561" width="2.2986" height="0.50119" style="fill:#003915"/><rect x="3.00191" y="89.00821" width="2.2986" height="0.5014" style="fill:#003915"/><rect x="3.00191" y="87.81001" width="2.2986" height="0.5011" style="fill:#003915"/><rect x="3.00191" y="116.95551" width="2.2986" height="0.5018" style="fill:#003915"/><rect x="3.00191" y="115.75761" width="2.2986" height="0.50119" style="fill:#003915"/><rect y="85.7532" width="0.5014" height="34.0937" style="fill:#003915"/><rect x="2.84711" y="85.7532" width="0.5015" height="34.0937" style="fill:#003915"/><rect x="5.01851" y="85.7532" width="0.50139" height="34.0937" style="fill:#003915"/><rect x="7.6595" y="85.7532" width="0.5014" height="34.0937" style="fill:#003915"/><path d="M166.2831,159.51971H167.953v.69708H166.2831Zm0-13.56912H167.953v13.06772H166.2831Zm0-1.19818H167.953v.697H166.2831Zm1.66991-.5018H166.2831v-5.7894h-.5014V160.2168H163.436V138.46121h-.5014V160.7179h8.1609V138.46121h-.5014V160.2168h-2.1396V142.16489h-.5015Z" transform="translate(-131.7515 -118.92389)" style="fill:#003915;fill-rule:evenodd"/><rect x="4.13521" y="42.58551" width="1.2971" height="0.44699" style="fill:#003915"/><rect x="4.13521" y="41.5177" width="1.2971" height="0.44672" style="fill:#003915"/><rect x="4.13521" y="23.9834" width="1.2971" height="0.44702" style="fill:#003915"/><rect x="4.13521" y="22.91562" width="1.2971" height="0.44669" style="fill:#003915"/><rect x="4.13521" y="5.38101" width="1.2971" height="0.44711" style="fill:#003915"/><rect x="4.13521" y="4.3132" width="1.2971" height="0.44681" style="fill:#003915"/><rect x="4.13521" y="61.18781" width="1.2971" height="0.4471" style="fill:#003915"/><rect x="4.13521" y="60.12001" width="1.2971" height="0.44679" style="fill:#003915"/><rect x="2.90581" y="2.24652" width="0.4467" height="60.82129" style="fill:#003915"/><rect x="3.9971" y="2.24652" width="0.44681" height="60.82129" style="fill:#003915"/><rect x="5.078" y="2.24652" width="0.4467" height="60.82129" style="fill:#003915"/><path d="M286.57809,210.56039v9.82231a.90519.90519,0,0,1-.9039.9054H281.0639a4.59575,4.59575,0,0,1-4.591-4.5896v-2.45221a4.59575,4.59575,0,0,1,4.591-4.5905h4.61029a.90471.90471,0,0,1,.9039.9046m-9.8606,6.13811a4.3511,4.3511,0,0,0,4.34641,4.345h4.61029a.66145.66145,0,0,0,.65991-.6608v-9.82231a.66068.66068,0,0,0-.65991-.6599H281.0639a4.3514,4.3514,0,0,0-4.34641,4.34579Z" transform="translate(-131.7515 -118.92389)" style="fill:#003915"/><path d="M277.80771,216.6982a3.25884,3.25884,0,0,0,3.2562,3.2545H283.752a.56789.56789,0,0,0,.56747-.5672V215.8101h.24521v3.57539a.814.814,0,0,1-.81268.81241H281.0639a3.50409,3.50409,0,0,1-3.50079-3.49971V214.246a3.5047,3.5047,0,0,1,3.50079-3.50081H283.752a.81448.81448,0,0,1,.81268.81351v3.57539h-.24521V211.5587a.56826.56826,0,0,0-.56747-.5683H281.0639a3.2594,3.2594,0,0,0-3.2562,3.2556Z" transform="translate(-131.7515 -118.92389)" style="fill:#003915"/><path d="M281.41141,215.47141a.78351.78351,0,1,1-.78351-.7838.78474.78474,0,0,1,.78351.7838m-1.3223,0a.5387.5387,0,1,0,.53879-.5392A.53959.53959,0,0,0,280.08911,215.47141Z" transform="translate(-131.7515 -118.92389)" style="fill:#003915"/><rect x="148.3186" y="96.425" width="1.11652" height="0.2449" style="fill:#003915"/><rect x="148.754" y="95.98991" width="0.24551" height="1.116" style="fill:#003915"/><path d="M285.39581,215.13409v-.4037a.17365.17365,0,0,0-.174-.1729h-.3793a.17373.17373,0,0,0-.1741.1729v.4037h-.2449v-.4037a.41869.41869,0,0,1,.419-.41809h.3793a.41855.41855,0,0,1,.41861.41809v.40561l-.03741-.00191Zm-.72742,1.0771a.17456.17456,0,0,0,.1741.1741h.3793a.17448.17448,0,0,0,.174-.1741v-.40109h.20718l.03741-.00221v.40331a.41848.41848,0,0,1-.41861.4187h-.3793a.41862.41862,0,0,1-.419-.4187v-.40109h.2449Z" transform="translate(-131.7515 -118.92389)" style="fill:#003915"/><path d="M286.06339,215.47141a.461.461,0,0,1-.46039.4612h-3.08038a.4605.4605,0,0,1,0-.921H285.603a.46061.46061,0,0,1,.46039.45981m-3.75677,0a.21676.21676,0,0,0,.216.21629H285.603a.2156.2156,0,0,0,0-.4312h-3.08038A.21609.21609,0,0,0,282.30661,215.47141Z" transform="translate(-131.7515 -118.92389)" style="fill:#003915"/><path d="M286.57809,139.50259v9.8223a.90518.90518,0,0,1-.9039.9054H281.0639a4.59574,4.59574,0,0,1-4.591-4.5896v-2.45218a4.59571,4.59571,0,0,1,4.591-4.59039h4.61029a.9046.9046,0,0,1,.9039.90448m-9.8606,6.13809a4.3511,4.3511,0,0,0,4.34641,4.345h4.61029a.66144.66144,0,0,0,.65991-.6608v-9.8223a.66067.66067,0,0,0-.65991-.65988H281.0639a4.35145,4.35145,0,0,0-4.34641,4.34579Z" transform="translate(-131.7515 -118.92389)" style="fill:#003915"/><path d="M277.80771,145.6405a3.25876,3.25876,0,0,0,3.2562,3.25439H283.752a.56789.56789,0,0,0,.56747-.5672v-3.57529h.24521v3.57529a.814.814,0,0,1-.81268.81241H281.0639a3.50406,3.50406,0,0,1-3.50079-3.4996v-2.4523a3.50468,3.50468,0,0,1,3.50079-3.50079H283.752a.81448.81448,0,0,1,.81268.8136v3.57529h-.24521V140.501a.56835.56835,0,0,0-.56747-.56842H281.0639a3.25941,3.25941,0,0,0-3.2562,3.25562Z" transform="translate(-131.7515 -118.92389)" style="fill:#003915"/><path d="M281.41141,144.4136a.78351.78351,0,1,1-.78351-.78381.78476.78476,0,0,1,.78351.78381m-1.3223,0a.5387.5387,0,1,0,.53879-.53909A.53961.53961,0,0,0,280.08911,144.4136Z" transform="translate(-131.7515 -118.92389)" style="fill:#003915"/><rect x="148.3186" y="25.36731" width="1.11652" height="0.2449" style="fill:#003915"/><rect x="148.754" y="24.9321" width="0.24551" height="1.116" style="fill:#003915"/><path d="M285.39581,144.07629v-.40369a.17365.17365,0,0,0-.174-.17291h-.3793a.17373.17373,0,0,0-.1741.17291v.40369h-.2449v-.40369a.41877.41877,0,0,1,.419-.41812h.3793a.41863.41863,0,0,1,.41861.41812v.4057l-.03741-.002Zm-.72742,1.07721a.17449.17449,0,0,0,.1741.174h.3793a.17441.17441,0,0,0,.174-.174v-.40109h.20718l.03741-.00232v.40341a.41848.41848,0,0,1-.41861.41861h-.3793a.41862.41862,0,0,1-.419-.41861v-.40109h.2449Z" transform="translate(-131.7515 -118.92389)" style="fill:#003915"/><path d="M286.06339,144.4136a.461.461,0,0,1-.46039.46118h-3.08038a.4605.4605,0,0,1,0-.921H285.603a.46061.46061,0,0,1,.46039.45981m-3.75677,0a.21672.21672,0,0,0,.216.21631H285.603a.21556.21556,0,0,0,0-.43112h-3.08038A.216.216,0,0,0,282.30661,144.4136Z" transform="translate(-131.7515 -118.92389)" style="fill:#003915"/><path d="M272.579,201.9294a3.917,3.917,0,0,0,3.9129,3.91161h5.66528a.67721.67721,0,0,0,.63919-.4561,1.24236,1.24236,0,0,0,.205.20349.946.946,0,0,1-.84421.52161h-5.66528a4.18085,4.18085,0,1,1,0-8.36169h5.66528a.94538.94538,0,0,1,.8436.521,1.24154,1.24154,0,0,0-.20459.20329.67628.67628,0,0,0-.639-.45549h-5.66528a3.917,3.917,0,0,0-3.9129,3.91229" transform="translate(-131.7515 -118.92389)" style="fill:#003915"/><path d="M281.07639,199.1257v5.6089a.204.204,0,0,1-.2016.20129h-4.2706a3.0066,3.0066,0,1,1,0-6.0132h4.2706a.20467.20467,0,0,1,.2016.203m-.26819,5.5414v-5.47591h-4.204a2.738,2.738,0,0,0,0,5.47591Z" transform="translate(-131.7515 -118.92389)" style="fill:#003915"/><path d="M278.34549,201.9297a1.00815,1.00815,0,1,1-1.008-1.0088,1.01,1.01,0,0,1,1.008,1.0088m-1.74759,0a.73946.73946,0,1,0,.73959-.73981A.7404.7404,0,0,0,276.5979,201.9297Z" transform="translate(-131.7515 -118.92389)" style="fill:#003915"/><rect x="279.28739" y="202.43005" width="0.26853" height="2.24215" transform="translate(-182.53575 186.96775) rotate(-53.29207)" style="fill:#003915"/><rect x="278.29993" y="200.2172" width="2.24301" height="0.2692" transform="translate(-196.08582 88.43912) rotate(-36.80986)" style="fill:#003915"/><path d="M286.57809,199.2289v5.4005a1.355,1.355,0,0,1-1.35379,1.3524H283.75a1.35349,1.35349,0,0,1-1.35239-1.3524v-5.4005A1.35325,1.35325,0,0,1,283.75,197.877h1.4743a1.35479,1.35479,0,0,1,1.35379,1.3519m-3.91211,5.4005a1.08552,1.08552,0,0,0,1.084,1.0843h1.4743a1.08587,1.08587,0,0,0,1.08508-1.0843v-5.4005a1.08593,1.08593,0,0,0-1.08508-1.08369H283.75a1.08558,1.08558,0,0,0-1.084,1.08369Z" transform="translate(-131.7515 -118.92389)" style="fill:#003915"/><path d="M285.17581,201.9297a.68811.68811,0,1,1-.68741-.6882.68809.68809,0,0,1,.68741.6882m-1.10721,0a.41925.41925,0,1,0,.4198-.41951A.41948.41948,0,0,0,284.0686,201.9297Z" transform="translate(-131.7515 -118.92389)" style="fill:#003915"/><path d="M268.70679,138.15079a3.9169,3.9169,0,0,1-3.9115-3.913v-5.66528a.67733.67733,0,0,1,.45612-.63922,1.23981,1.23981,0,0,1-.20349-.205.94592.94592,0,0,0-.52161.84421v5.66528a4.1808,4.1808,0,1,0,8.3616,0v-5.66528a.94537.94537,0,0,0-.521-.8436,1.23749,1.23749,0,0,1-.20322.20468.67619.67619,0,0,1,.45551.63892v5.66528a3.9171,3.9171,0,0,1-3.91241,3.913" transform="translate(-131.7515 -118.92389)" style="fill:#003915"/><path d="M271.51059,129.65329H265.9017a.204.204,0,0,0-.20129.2016v4.27072a3.00655,3.00655,0,1,0,6.01309,0v-4.27072a.20468.20468,0,0,0-.20291-.2016m-5.5415.26822h5.476v4.2041a2.738,2.738,0,0,1-5.476,0Z" transform="translate(-131.7515 -118.92389)" style="fill:#003915"/><path d="M268.7066,132.38419a1.00816,1.00816,0,1,0,1.00879,1.008,1.01006,1.01006,0,0,0-1.00879-1.008m0,1.74762a.73941.73941,0,1,1,.73981-.73959A.7404.7404,0,0,1,268.7066,134.13181Z" transform="translate(-131.7515 -118.92389)" style="fill:#003915"/><rect x="266.95084" y="130.18697" width="0.26857" height="2.2422" transform="translate(-157.25631 66.858) rotate(-36.72676)" style="fill:#003915"/><rect x="269.16292" y="131.17376" width="2.24305" height="0.26909" transform="translate(-128.5357 150.11564) rotate(-53.19201)" style="fill:#003915"/><path d="M271.40741,124.15161h-5.4006a1.355,1.355,0,0,0-1.35242,1.35379v1.4743a1.35343,1.35343,0,0,0,1.35242,1.35239h5.4006a1.3531,1.3531,0,0,0,1.35178-1.35239v-1.4743a1.35469,1.35469,0,0,0-1.35178-1.35379m-5.4006,3.91208a1.08547,1.08547,0,0,1-1.0842-1.084v-1.4743a1.08586,1.08586,0,0,1,1.0842-1.08511h5.4006a1.086,1.086,0,0,1,1.08368,1.08511v1.4743a1.08555,1.08555,0,0,1-1.08368,1.084Z" transform="translate(-131.7515 -118.92389)" style="fill:#003915"/><path d="M268.7066,125.55389a.6881.6881,0,1,0,.6882.68741.68811.68811,0,0,0-.6882-.68741m0,1.10721a.41925.41925,0,1,1,.41949-.4198A.41944.41944,0,0,1,268.7066,126.6611Z" transform="translate(-131.7515 -118.92389)" style="fill:#003915"/><path d="M260.20889,188.1933H252.3694v11.3479h7.83949Zm-8.1709-.3308h8.5025v12.0098H252.038Z" transform="translate(-131.7515 -118.92389)" style="fill:#003915"/><path d="M260.43341,190.58769a.60437.60437,0,0,1,.61249.59361v5.37219a.604.604,0,0,1-.61249.5939v-.3308a.26975.26975,0,0,0,.28088-.26311V191.1813a.2695.2695,0,0,0-.28088-.2628Z" transform="translate(-131.7515 -118.92389)" style="fill:#003915"/><path d="M257.80679,192.8455h-2.70769l-.62161,1.5974a2.47424,2.47424,0,0,0,1.6747-.0919,4.15147,4.15147,0,0,1,1.24072-.2412,2.44927,2.44927,0,0,1,.93658.1882Zm-2.93419-.33081h3.16689l.89212,2.4801-.39072-.22479a2.26553,2.26553,0,0,0-1.148-.32941,3.89148,3.89148,0,0,0-1.1438.22681,3.90018,3.90018,0,0,1-1.144.22809,2.01787,2.01787,0,0,1-.91251-.2179l-.1358-.0675Z" transform="translate(-131.7515 -118.92389)" style="fill:#003915"/><path d="M284.42691,221.4426H254.342a2.161,2.161,0,0,0-2.15149,2.1656v10.41139a2.161,2.161,0,0,0,2.15149,2.166h30.08492a2.1609,2.1609,0,0,0,2.15118-2.166V223.6082a2.161,2.161,0,0,0-2.15118-2.1656M254.342,235.9557a1.93117,1.93117,0,0,1-1.92189-1.93611V223.6082a1.931,1.931,0,0,1,1.92189-1.9355h30.08492a1.93147,1.93147,0,0,1,1.92218,1.9355v10.41139a1.9316,1.9316,0,0,1-1.92218,1.93611Z" transform="translate(-131.7515 -118.92389)" style="fill:#003915"/><path d="M257.3277,234.6937a2.577,2.577,0,0,1-2.56529-2.58209v-6.5948a2.57658,2.57658,0,0,1,2.56529-2.5818h24.11319a2.5771,2.5771,0,0,1,2.56592,2.5818v2.0619a.3967.3967,0,0,1,.22818-.142V225.5168a2.80637,2.80637,0,0,0-2.7941-2.8125H257.3277a2.80665,2.80665,0,0,0-2.7944,2.8125v6.5948a2.80661,2.80661,0,0,0,2.7944,2.8123h24.11319a2.80633,2.80633,0,0,0,2.7941-2.8123v-1.9202a.396.396,0,0,1-.22818-.1414v2.0616a2.57748,2.57748,0,0,1-2.56592,2.58209Z" transform="translate(-131.7515 -118.92389)" style="fill:#003915"/><path d="M258.87509,233.3804a1.26664,1.26664,0,0,1-1.26108-1.2688v-6.5948a1.26631,1.26631,0,0,1,1.26108-1.2682h22.5658a1.26615,1.26615,0,0,1,1.26141,1.2682v2.84489h.22879V225.5168a1.49621,1.49621,0,0,0-1.4902-1.499h-22.5658a1.4957,1.4957,0,0,0-1.48929,1.499v6.5948a1.49532,1.49532,0,0,0,1.48929,1.499h22.5658a1.49583,1.49583,0,0,0,1.4902-1.499v-2.84511h-.22879v2.84511a1.26647,1.26647,0,0,1-1.26141,1.2688Z" transform="translate(-131.7515 -118.92389)" style="fill:#003915"/><path d="M279.53571,228.0813a.73336.73336,0,1,0,.73.7336.73152.73152,0,0,0-.73-.7336m0,1.2365a.5033.5033,0,1,1,.5004-.5029A.50184.50184,0,0,1,279.53571,229.31779Z" transform="translate(-131.7515 -118.92389)" style="fill:#003915"/><rect x="147.67001" y="109.36771" width="0.22928" height="1.0457" style="fill:#003915"/><rect x="147.26581" y="109.7756" width="1.03781" height="0.2308" style="fill:#003915"/><path d="M284.03571,228.36169v-.53749a.27989.27989,0,0,1,.27869-.2803h.5051a.28026.28026,0,0,1,.27921.2803v.53749h.22882v-.53749a.51036.51036,0,0,0-.508-.51111h-.5051a.50964.50964,0,0,0-.50739.51111v.53749Zm.27869,1.722a.27992.27992,0,0,1-.27869-.28009v-.53711h-.2287v.53711a.50918.50918,0,0,0,.50739.51079h.5051a.5099.5099,0,0,0,.508-.51079v-.53711h-.22882v.53711a.28028.28028,0,0,1-.27921.28009Z" transform="translate(-131.7515 -118.92389)" style="fill:#003915"/><path d="M285.3255,228.24629h-3.2012a.56766.56766,0,0,0,0,1.1353h3.2012a.56766.56766,0,0,0,0-1.1353m-3.2012.90511a.3372.3372,0,0,1,0-.67439h3.2012a.3372.3372,0,0,1,0,.67439Z" transform="translate(-131.7515 -118.92389)" style="fill:#003915"/><path d="M241.0659,124.104H229.2968v11.7688h11.7691Zm-11.5197.24939h11.2706V135.624H229.5462Z" transform="translate(-131.7515 -118.92389)" style="fill:#003915"/><path d="M235.1815,134.77469a3.91958,3.91958,0,0,1-.9817-7.7142.29991.29991,0,0,1-.0742-.1976v-.0405a4.16853,4.16853,0,1,0,2.11151-.00027v.04077a.29848.29848,0,0,1-.074.19733,3.91973,3.91973,0,0,1-.9816,7.71448" transform="translate(-131.7515 -118.92389)" style="fill:#003915"/><path d="M235.1815,127.374a3.48151,3.48151,0,1,0,3.4812,3.48181,3.48571,3.48571,0,0,0-3.4812-3.48181m0,6.71359a3.23195,3.23195,0,1,1,3.2318-3.23178A3.23546,3.23546,0,0,1,235.1815,134.08759Z" transform="translate(-131.7515 -118.92389)" style="fill:#003915"/><path d="M235.1815,129.95319a.90231.90231,0,1,0,.9025.90262.90343.90343,0,0,0-.9025-.90262m0,1.55573a.653.653,0,1,1,.65309-.65311A.65426.65426,0,0,1,235.1815,131.50891Z" transform="translate(-131.7515 -118.92389)" style="fill:#003915"/><rect x="103.3053" y="11.27451" width="0.2494" height="1.3139" style="fill:#003915"/><rect x="102.77321" y="11.80661" width="1.3136" height="0.24969" style="fill:#003915"/><path d="M235.9352,126.0491H234.4277a.42705.42705,0,0,0-.42661.42661v.38718a.42686.42686,0,0,0,.42661.42661h1.50749a.42679.42679,0,0,0,.42661-.42661v-.38718a.427.427,0,0,0-.42661-.42661m-1.50749.991a.17772.17772,0,0,1-.1774-.17722v-.38718a.17752.17752,0,0,1,.1774-.17722h1.50749a.17729.17729,0,0,1,.1772.17722v.38718a.17748.17748,0,0,1-.1772.17722Z" transform="translate(-131.7515 -118.92389)" style="fill:#003915"/><path d="M234.9615,126.1738v-.0864a.2197.2197,0,1,1,.43939,0v.0864h.24971v-.0864a.4694.4694,0,0,0-.9388,0v.0864Zm.22,2.59a.22049.22049,0,0,1-.22-.22049v-1.37851h-.24969v1.37851a.4694.4694,0,1,0,.9388,0v-1.37851h-.24971v1.37851A.22.22,0,0,1,235.1815,128.76379Z" transform="translate(-131.7515 -118.92389)" style="fill:#003915"/><path d="M212.40109,124.5853h7.15671A1.49611,1.49611,0,0,1,221.0519,126.08v8.29871a1.496,1.496,0,0,1-1.49409,1.49411h-7.15671a1.49561,1.49561,0,0,1-1.49409-1.49411V126.08a1.49573,1.49573,0,0,1,1.49409-1.49469m7.15671,11.0545a1.26262,1.26262,0,0,0,1.26109-1.26111V126.08a1.26274,1.26274,0,0,0-1.26109-1.26169h-7.15671A1.26306,1.26306,0,0,0,211.1394,126.08v8.29871a1.26294,1.26294,0,0,0,1.26169,1.26111Z" transform="translate(-131.7515 -118.92389)" style="fill:#003915"/><path d="M212.40109,125.40421h7.15671a.67615.67615,0,0,1,.6757.67578v7.01062a.67632.67632,0,0,1-.6757.67578h-7.15671a.67645.67645,0,0,1-.6763-.67578V126.08a.67627.67627,0,0,1,.6763-.67578m7.15671,8.12918a.44321.44321,0,0,0,.443-.44278V126.08a.44353.44353,0,0,0-.443-.44308h-7.15671a.44392.44392,0,0,0-.44389.44308v7.01062a.4436.4436,0,0,0,.44389.44278Z" transform="translate(-131.7515 -118.92389)" style="fill:#003915"/><path d="M218.85761,134.18509a.47426.47426,0,1,1-.4742.47421.4751.4751,0,0,1,.4742-.47421m0,.71552a.24126.24126,0,1,0-.2415-.2413A.24194.24194,0,0,0,218.85761,134.9006Z" transform="translate(-131.7515 -118.92389)" style="fill:#003915"/><path d="M217.2569,134.18509a.47426.47426,0,1,1-.47479.47421.475.475,0,0,1,.47479-.47421m0,.71552a.24126.24126,0,1,0-.24179-.2413A.24162.24162,0,0,0,217.2569,134.9006Z" transform="translate(-131.7515 -118.92389)" style="fill:#003915"/><rect x="84.8333" y="8.62271" width="2.71951" height="0.23279" style="fill:#003915"/><rect x="86.0766" y="7.3786" width="0.23271" height="2.7196" style="fill:#003915"/><path d="M217.9446,126.766a.89685.89685,0,1,1-.89659.89691.89791.89791,0,0,1,.89659-.89691m0,1.561a.66429.66429,0,1,0-.66389-.66409A.66554.66554,0,0,0,217.9446,128.327Z" transform="translate(-131.7515 -118.92389)" style="fill:#003915"/><rect x="84.8333" y="12.4679" width="2.71951" height="0.23251" style="fill:#003915"/><rect x="86.0766" y="11.22351" width="0.23271" height="2.7204" style="fill:#003915"/><path d="M217.9446,130.61029a.89716.89716,0,1,1-.89659.89752.89861.89861,0,0,1,.89659-.89752m0,1.56192a.6647.6647,0,1,0-.66389-.6644A.66542.66542,0,0,0,217.9446,132.17221Z" transform="translate(-131.7515 -118.92389)" style="fill:#003915"/><rect x="80.9028" y="8.62271" width="2.71921" height="0.23279" style="fill:#003915"/><rect x="82.14551" y="7.3786" width="0.233" height="2.7196" style="fill:#003915"/><path d="M214.0135,126.766a.89685.89685,0,1,1-.89691.89691.89777.89777,0,0,1,.89691-.89691m0,1.561a.66429.66429,0,1,0-.66391-.66409A.666.666,0,0,0,214.0135,128.327Z" transform="translate(-131.7515 -118.92389)" style="fill:#003915"/><rect x="80.9028" y="12.4679" width="2.71921" height="0.23251" style="fill:#003915"/><rect x="82.14551" y="11.22351" width="0.233" height="2.7204" style="fill:#003915"/><path d="M214.0135,130.61029a.89716.89716,0,1,1-.89691.89752.89847.89847,0,0,1,.89691-.89752m0,1.56192a.6647.6647,0,1,0-.66391-.6644A.66593.66593,0,0,0,214.0135,132.17221Z" transform="translate(-131.7515 -118.92389)" style="fill:#003915"/><path d="M214.5433,134.18509a.47426.47426,0,1,1-.4745.47421.47485.47485,0,0,1,.4745-.47421m0,.71552a.24126.24126,0,1,0-.24181-.2413A.24169.24169,0,0,0,214.5433,134.9006Z" transform="translate(-131.7515 -118.92389)" style="fill:#003915"/><path d="M212.9417,134.18509a.47426.47426,0,1,1-.474.47421.47465.47465,0,0,1,.474-.47421m0,.71552a.24126.24126,0,1,0-.2415-.2413A.24168.24168,0,0,0,212.9417,134.9006Z" transform="translate(-131.7515 -118.92389)" style="fill:#003915"/><path d="M284.8045,190.35271a.80923.80923,0,1,0-.23471-.57091.80992.80992,0,0,0,.23471.57091m.5726,1.03639a1.60711,1.60711,0,1,1,1.13638-.4706A1.60282,1.60282,0,0,1,285.37711,191.3891Z" transform="translate(-131.7515 -118.92389)" style="fill:#003915"/><path d="M257.3912,124.932a.809.809,0,1,0,.57089-.2348.81.81,0,0,0-.57089.2348m-1.03632.5726a1.60692,1.60692,0,1,1,.47052,1.13638A1.60248,1.60248,0,0,1,256.35489,125.50461Z" transform="translate(-131.7515 -118.92389)" style="fill:#003915"/><path d="M255.84351,153.17551h2.98029v-7.40692h-2.98029Zm0-17.12241h2.98029v-7.40689h-2.98029Zm0,8.52551h2.98029V141.5058h-2.98029Zm0-4.26273h2.98029V137.2431h-2.98029Zm-2.20081,15.50751H260.998v-28.609H253.6427Z" transform="translate(-131.7515 -118.92389)" style="fill:#003915;fill-rule:evenodd"/><rect x="117.08841" y="60.23851" width="8.57819" height="8.7659" style="fill:#003915"/><path d="M282.84259,189.0652H279.8623v3.0728h2.98029Zm0,3.8846H279.8623v3.0728h2.98029Zm.8887-5.6554h-4.7579v9.5627h4.7579Z" transform="translate(-131.7515 -118.92389)" style="fill:#003915;fill-rule:evenodd"/><path d="M261.15851,275.2589c-.7319,0-1.2359-.618-1.2359-1.7399s.504-1.7399,1.2359-1.7399,1.2359.6179,1.2359,1.7399-.504,1.7399-1.2359,1.7399m0,.396c.972,0,1.67978-.798,1.67978-2.13589s-.70779-2.13589-1.67978-2.13589-1.67392.7979-1.67392,2.13589S260.18649,275.65489,261.15851,275.65489Zm-4.09811-4.23579v.3838h.9902v3.816h.432v-4.1998Zm-.61169,3.5759a.31408.31408,0,0,0-.31808.324.30309.30309,0,0,0,.216.3058l-.204.87h.288l.252-.828a.97711.97711,0,0,0,.08411-.34779A.314.314,0,0,0,256.4487,274.995Zm-2.562.2639c-.7319,0-1.2359-.618-1.2359-1.7399s.504-1.7399,1.2359-1.7399,1.2359.6179,1.2359,1.7399S254.61861,275.2589,253.8867,275.2589Zm0,.396c.972,0,1.6799-.798,1.6799-2.13589s-.7079-2.13589-1.6799-2.13589-1.6738.7979-1.6738,2.13589S252.9147,275.65489,253.8867,275.65489Zm-4.098-4.23579v.3838h.9901v3.816h.432v-4.1998Z" transform="translate(-131.7515 -118.92389)" style="fill:#6e6e6e;fill-rule:evenodd"/><path d="M180.2897,275.2589c-.7319,0-1.2359-.618-1.2359-1.7399s.504-1.7399,1.2359-1.7399,1.2359.6179,1.2359,1.7399-.504,1.7399-1.2359,1.7399m0,.396c.972,0,1.67979-.798,1.67979-2.13589s-.70779-2.13589-1.67979-2.13589-1.6739.7979-1.6739,2.13589S179.3177,275.65489,180.2897,275.65489Zm-4.5-.42009,1.4281-1.4037a1.729,1.729,0,0,0,.6899-1.31419c0-.70181-.54-1.1338-1.392-1.1338a1.88753,1.88753,0,0,0-1.488.59979l.30591.26421a1.426,1.426,0,0,1,1.1461-.468c.642,0,.98389.2999.98389.786,0,.2877-.08989.56981-.56389,1.03781l-1.74611,1.7101v.30589h2.94611v-.38409Zm-1.55991-.23981a.31409.31409,0,0,0-.3181.324.30312.30312,0,0,0,.216.3058l-.204.87h.288l.252-.828a.97778.97778,0,0,0,.08411-.34779A.314.314,0,0,0,174.2298,274.995Zm-2.562.2639c-.7319,0-1.2359-.618-1.2359-1.7399s.504-1.7399,1.2359-1.7399,1.2359.6179,1.2359,1.7399S172.3997,275.2589,171.6678,275.2589Zm0,.396c.972,0,1.6799-.798,1.6799-2.13589s-.7079-2.13589-1.6799-2.13589-1.6738.7979-1.6738,2.13589S170.6958,275.65489,171.6678,275.65489Zm-4.098-4.23579v.3838h.99011v3.816h.432v-4.1998Z" transform="translate(-131.7515 -118.92389)" style="fill:#6e6e6e;fill-rule:evenodd"/><path d="M219.7137,170.9675c-.7319,0-1.2359-.618-1.2359-1.74s.504-1.73988,1.2359-1.73988,1.2359.618,1.2359,1.73988-.504,1.74-1.2359,1.74m0,.396c.972,0,1.67979-.798,1.67979-2.136s-.70779-2.13588-1.67979-2.13588-1.6739.798-1.6739,2.13588S218.7417,171.36349,219.7137,171.36349Zm-5.20779-4.2359v1.16989h.426v-.786h2.16l-1.728,3.816h.468l1.7581-3.894v-.30591Zm-.7498,3.57591a.31413.31413,0,0,0-.3181.324.30316.30316,0,0,0,.216.30591l-.204.87h.288l.252-.828a.97814.97814,0,0,0,.08409-.3479A.314.314,0,0,0,213.7561,170.70351Zm-2.34.294c-.726,0-1.11011-.438-1.11011-.9a.97214.97214,0,0,1,1.08-.91791c.648,0,1.056.35381,1.056.906A.9189.9189,0,0,1,211.41611,170.9975Zm.036-2.18411a1.34253,1.34253,0,0,0-1.2841.72c-.0119-.1259-.0179-.2458-.0179-.3419,0-1.14.582-1.722,1.4879-1.722a1.47112,1.47112,0,0,1,.8159.19809l.174-.34811a1.928,1.928,0,0,0-.9958-.22787c-1.14009,0-1.91989.7439-1.91989,2.17189,0,1.3261.60579,2.1,1.7218,2.1a1.30856,1.30856,0,0,0,1.434-1.2901A1.27167,1.27167,0,0,0,211.4521,168.81339Zm-4.5661,2.13,1.4281-1.40381a1.72854,1.72854,0,0,0,.69-1.3141c0-.7019-.54-1.13388-1.39211-1.13388a1.8871,1.8871,0,0,0-1.4879.59988l.30589.2641a1.4262,1.4262,0,0,1,1.146-.468c.642,0,.9839.2999.9839.7861,0,.28769-.0899.56979-.56381,1.03778L206.25,171.02161v.30589h2.946v-.38409Z" transform="translate(-131.7515 -118.92389)" style="fill:#6e6e6e;fill-rule:evenodd"/><path d="M268.8038,213.21761c-.7319,0-1.2359-.618-1.2359-1.7399s.504-1.73991,1.2359-1.73991,1.2359.6179,1.2359,1.73991-.504,1.7399-1.2359,1.7399m0,.396c.972,0,1.67981-.798,1.67981-2.13589s-.70782-2.13591-1.67981-2.13591-1.67389.7979-1.67389,2.13591S267.83179,213.6136,268.8038,213.6136Zm-3.6301-2.43581,1.188-1.4942v-.3058h-2.7v.3838h2.1481l-1.16391,1.4581v.3181h.2999c.77979,0,1.13391.32991,1.13391.83391,0,.5219-.38382.8459-1.08.8459a1.84133,1.84133,0,0,1-1.302-.4859l-.21.34189a2.18489,2.18489,0,0,0,1.512.54c1.01392,0,1.5239-.54,1.5239-1.2419C266.52359,211.6996,266.0737,211.22569,265.17371,211.1778Zm-2.42981,1.77591a.31407.31407,0,0,0-.31808.324.30308.30308,0,0,0,.216.3058l-.2041.87h.288l.252-.828a.97572.97572,0,0,0,.0842-.34781A.314.314,0,0,0,262.7439,212.9537Zm-.84619-.864h-.8399v-.972h-.4198v.972h-1.8241l2.1481-2.71191h-.48019l-2.22571,2.78391v.3118h2.36969v1.10411h.432V212.4735h.8399Z" transform="translate(-131.7515 -118.92389)" style="fill:#6e6e6e;fill-rule:evenodd"/><path d="M273.14761,146.71759c-.7319,0-1.2359-.61789-1.2359-1.7399s.504-1.7399,1.2359-1.7399,1.2359.618,1.2359,1.7399-.504,1.7399-1.2359,1.7399m0,.396c.972,0,1.67978-.79788,1.67978-2.13589s-.70779-2.13589-1.67978-2.13589-1.67392.798-1.67392,2.13589S272.1756,147.11359,273.14761,147.11359Zm-3.97192-.396c-.7319,0-1.2359-.61789-1.2359-1.7399s.504-1.7399,1.2359-1.7399,1.2359.618,1.2359,1.7399S269.90759,146.71759,269.17569,146.71759Zm0,.396c.972,0,1.67981-.79788,1.67981-2.13589s-.70779-2.13589-1.67981-2.13589-1.67389.798-1.67389,2.13589S268.2037,147.11359,269.17569,147.11359Zm-2.5498-.65988a.31406.31406,0,0,0-.318.324.30311.30311,0,0,0,.216.30588l-.2041.8699h.288l.252-.828a.97583.97583,0,0,0,.0842-.34778A.314.314,0,0,0,266.62589,146.4537Zm-3.24.23981,1.4281-1.40372a1.7291,1.7291,0,0,0,.69-1.31409c0-.7019-.54-1.13391-1.39209-1.13391a1.88731,1.88731,0,0,0-1.48792.59979l.30582.26422a1.42643,1.42643,0,0,1,1.14609-.468c.642,0,.98392.2999.98392.7861,0,.28769-.0899.5697-.56381,1.03769l-1.74622,1.71021v.30582h2.94611v-.38409Z" transform="translate(-131.7515 -118.92389)" style="fill:#6e6e6e;fill-rule:evenodd"/><path d="M277.41971,172.25749c-.7319,0-1.2359-.618-1.2359-1.7399s.504-1.73988,1.2359-1.73988,1.2359.61789,1.2359,1.73988-.504,1.7399-1.2359,1.7399m0,.396c.972,0,1.67978-.798,1.67978-2.13591s-.70779-2.13588-1.67978-2.13588-1.67392.79788-1.67392,2.13588S276.44769,172.6535,277.41971,172.6535Zm-3.966-2.514h-.54l.144-1.338h1.91989v-.38382h-2.2977l-.216,2.1058h.894c1.06778,0,1.40369.336,1.40369.876,0,.50989-.37781.858-1.09189.858a1.821,1.821,0,0,1-1.29-.48589l-.20981.34189a2.16818,2.16818,0,0,0,1.5058.54c1.02612,0,1.5239-.55791,1.5239-1.27191C275.19959,170.6375,274.7197,170.1395,273.4537,170.1395Zm-2.04572,1.85411a.31406.31406,0,0,0-.31808.324.30326.30326,0,0,0,.216.30591l-.2041.86989h.288l.252-.828a.97638.97638,0,0,0,.0842-.34781A.314.314,0,0,0,271.408,171.99361Zm-3.24.23979,1.4281-1.4037a1.729,1.729,0,0,0,.68991-1.31419c0-.70181-.54-1.13379-1.39212-1.13379a1.88731,1.88731,0,0,0-1.48788.59979l.30591.26419a1.426,1.426,0,0,1,1.146-.468c.64209,0,.98389.2999.98389.786,0,.2878-.08978.56979-.56378,1.0378l-1.74612,1.7101v.30589h2.946v-.38409Z" transform="translate(-131.7515 -118.92389)" style="fill:#6e6e6e;fill-rule:evenodd"/><path d="M153.0459,151.96771c-.7319,0-1.2359-.618-1.2359-1.7399s.504-1.73993,1.2359-1.73993,1.2359.61792,1.2359,1.73993-.504,1.7399-1.2359,1.7399m0,.396c.972,0,1.67979-.798,1.67979-2.13589s-.70779-2.13593-1.67979-2.13593-1.6738.79791-1.6738,2.13593S152.0739,152.36371,153.0459,152.36371Zm-2.0701-1.5239h-.8399v-.972h-.4198v.972H147.892l2.1481-2.71191h-.48019l-2.2258,2.78391v.3118h2.3698v1.1041h.432v-1.1041h.8399Zm-4.4337.864a.314.314,0,0,0-.318.324.303.303,0,0,0,.216.30579l-.2041.87h.288l.252-.828a.97619.97619,0,0,0,.0842-.34781A.314.314,0,0,0,146.5421,151.7038Zm-2.2861-1.77591,1.188-1.4942v-.30579h-2.7v.38379h2.1481l-1.16391,1.4581v.31812h.29991c.7798,0,1.13379.3299,1.13379.83389,0,.52191-.38379.84592-1.08.84592a1.841,1.841,0,0,1-1.3019-.4859l-.2101.34189a2.18516,2.18516,0,0,0,1.512.54c1.014,0,1.52391-.54,1.52391-1.24191C145.6058,150.44971,145.156,149.9758,144.256,149.92789Z" transform="translate(-131.7515 -118.92389)" style="fill:#6e6e6e;fill-rule:evenodd"/><path d="M288.56891,161.78491a3.90784,3.90784,0,1,0,3.9079,3.90759,3.908,3.908,0,0,0-3.9079-3.90759" transform="translate(-131.7515 -118.92389)" style="fill:#558e42;fill-rule:evenodd"/><polygon points="154.414 46.769 155.728 46.39 157.043 46.012 157.043 46.769 157.043 47.525 155.728 47.147 154.414 46.769" style="fill:#fdfdfd;fill-rule:evenodd"/><rect x="156.94022" y="46.58972" width="2.28128" height="0.38409" style="fill:#fdfdfd"/><rect x="127.92361" y="3.38031" width="1.32288" height="5.77509" style="fill:#003915"/><path d="M255.22639,294.0778l.83311-.81891a1.00771,1.00771,0,0,0,.4025-.76649c0-.40961-.31491-.66161-.8121-.66161a1.101,1.101,0,0,0-.868.3501l.17859.1539a.832.832,0,0,1,.66841-.273c.37448,0,.574.1749.574.4584,0,.16809-.0524.3325-.32881.6055l-1.01849.9975v.1786h1.7184v-.224Zm-1.46269.03149c-.42351,0-.64771-.2554-.64771-.525a.56729.56729,0,0,1,.6301-.53551c.3779,0,.616.20641.616.5284A.53613.53613,0,0,1,253.7637,294.1093Zm.021-1.2739a.78342.78342,0,0,0-.74919.4198c-.00681-.07341-.01051-.1434-.01051-.1996,0-.6647.3396-1.0043.868-1.0043a.86044.86044,0,0,1,.4762.1154l.1015-.203a1.12575,1.12575,0,0,0-.5811-.1329c-.665,0-1.12.434-1.12,1.26711,0,.7733.35349,1.22479,1.00459,1.22479a.76333.76333,0,0,0,.8365-.75259A.74173.74173,0,0,0,253.7847,292.8354Zm-1.5262,1.1024a.18315.18315,0,0,0-.18539.18909.17685.17685,0,0,0,.1259.17831l-.11911.5076h.16811l.14709-.483a.574.574,0,0,0,.0491-.20291A.1832.1832,0,0,0,252.2585,293.93781Zm-1.3334-1.0361.69281-.8714v-.1785H250.043v.22389h1.2529l-.67889.85071v.18539h.1749c.4552,0,.66161.1924.66161.4864,0,.3044-.224.4935-.62991.4935a1.07434,1.07434,0,0,1-.75969-.28351l-.12241.1996a1.27444,1.27444,0,0,0,.8821.3149c.59131,0,.889-.3149.889-.72449C251.7126,293.20619,251.4501,292.92979,250.92509,292.9017Z" transform="translate(-131.7515 -118.92389)" style="fill:#434242"/><path d="M176.1897,294.0778l.8331-.81891a1.00771,1.00771,0,0,0,.4025-.76649c0-.40961-.3149-.66161-.81209-.66161a1.101,1.101,0,0,0-.868.3501l.1786.1539a.832.832,0,0,1,.6684-.273c.3744,0,.574.1749.574.4584,0,.16809-.0524.3325-.3288.6055l-1.01851.9975v.1786h1.7184v-.224Zm-2.4568-2.226v.6825h.24861v-.4586h1.26l-1.008,2.2261h.273l1.02519-2.2715v-.1785Zm-.43739,2.086a.18315.18315,0,0,0-.18539.18909.17686.17686,0,0,0,.12588.17831l-.11909.5076h.16811l.14709-.483a.574.574,0,0,0,.0491-.20291A.1832.1832,0,0,0,173.2955,293.93781Zm-1.3334-1.0361.69281-.8714v-.1785h-1.575v.22389h1.253l-.67889.85071v.18539h.1749c.4552,0,.66159.1924.66159.4864,0,.3044-.224.4935-.6299.4935a1.07434,1.07434,0,0,1-.75969-.28351l-.12241.1996a1.27424,1.27424,0,0,0,.8821.3149c.59131,0,.8889-.3149.8889-.72449C172.7495,293.20619,172.48711,292.92979,171.9621,292.9017Z" transform="translate(-131.7515 -118.92389)" style="fill:#434242"/><path d="M201.9677,128.952l.8331-.81891a1.00755,1.00755,0,0,0,.4025-.76648c0-.40961-.315-.66162-.81219-.66162a1.10133,1.10133,0,0,0-.8679.3501l.1786.1539a.832.832,0,0,1,.6684-.273c.3744,0,.574.1749.574.4584,0,.16809-.05251.33249-.3288.6055l-1.01851.9975v.17859h1.71831v-.224Zm-1.7394-2.226v.22388h.57739v2.2261h.252v-2.45Zm-.3569,2.086a.18321.18321,0,0,0-.18539.18909.17679.17679,0,0,0,.1259.17831l-.119.50769h.168l.1472-.48309a.57534.57534,0,0,0,.049-.20291A.1832.1832,0,0,0,199.8714,128.812Zm-.49319-.504h-.4901v-.56692h-.2449v.56692h-1.0641l1.2529-1.582h-.2798l-1.2986,1.624v.182h1.38249v.644h.252v-.644h.4901Z" transform="translate(-131.7515 -118.92389)" style="fill:#434242"/><path d="M152.74181,128.33411c-.3779,0-.616-.20642-.616-.52841a.5363.5363,0,0,1,.59871-.532c.42349,0,.6474.25558.6474.5249a.56707.56707,0,0,1-.6301.53549m-.0278-1.2739a.76321.76321,0,0,0-.8365.75259.74151.74151,0,0,0,.826.73468.78243.78243,0,0,0,.74889-.4198c.00711.07352.01051.14352.01051.19962,0,.665-.3396,1.0043-.868,1.0043a.85882.85882,0,0,1-.47589-.11542l-.1015.203a1.12374,1.12374,0,0,0,.5808.1329c.665,0,1.12-.4339,1.12-1.267C153.71831,127.51181,153.36481,127.06021,152.714,127.06021Zm-2.177.021v.22388h.57739v2.2261h.252v-2.45Zm-.3569,2.086a.18316.18316,0,0,0-.18539.18909.17666.17666,0,0,0,.1259.17831l-.11911.50769h.16811l.14709-.48309a.57347.57347,0,0,0,.0491-.20291A.1832.1832,0,0,0,150.1801,129.16721Zm-1.6064-2.086v.22388h.57739v2.2261h.252v-2.45Z" transform="translate(-131.7515 -118.92389)" style="fill:#434242"/><path d="M268.12149,219.5575l.8331-.81889a1.00775,1.00775,0,0,0,.4025-.76649c0-.40961-.31488-.66161-.81207-.66161a1.101,1.101,0,0,0-.868.3501l.17859.1539a.832.832,0,0,1,.6684-.273c.37451,0,.574.1749.574.45839,0,.16811-.0524.3325-.3288.6055l-1.01849.99751v.17859h1.71838v-.224Zm-1.62738.03151c-.434,0-.68942-.1891-.68942-.4935,0-.3011.2554-.49011.68942-.49011s.69308.189.69308.49011C267.18719,219.3999,266.9281,219.589,266.49411,219.589Zm-.6055-1.624c0-.273.23468-.441.6055-.441.36768,0,.60919.168.60919.4444,0,.2662-.2276.4377-.60919.4377C266.11292,218.4061,265.88861,218.2346,265.88861,217.965Zm1.078.5321a.55509.55509,0,0,0,.39209-.5392c0-.3988-.34641-.6474-.86459-.6474-.51791,0-.85751.2486-.85751.6474a.55309.55309,0,0,0,.38531.5392.61094.61094,0,0,0-.47263.60179c0,.434.3569.70351.94482.70351.5845,0,.95218-.2695.95218-.70351A.61683.61683,0,0,0,266.96661,218.4971Zm-1.98792.92039a.18318.18318,0,0,0-.18539.1891.17675.17675,0,0,0,.12589.1783l-.11908.50771h.16809l.14709-.48311a.57314.57314,0,0,0,.0491-.2029A.18321.18321,0,0,0,264.9787,219.4175Zm-1.60638-2.086v.22391h.57739v2.22609h.252v-2.45Z" transform="translate(-131.7515 -118.92389)" style="fill:#434242"/><path d="M199.3243,235.16341h-.4901v-.56691h-.2449v.56691h-1.06409l1.2529-1.582h-.2798l-1.29851,1.6239v.182h1.3824v.6441h.252v-.6441h.4901Zm-2.31329,0h-.4901v-.56691h-.2449v.56691h-1.06419l1.253-1.582h-.2798l-1.2986,1.6239v.182h1.38251v.6441h.252v-.6441h.4901Zm-2.58661.504a.18317.18317,0,0,0-.18539.1891.17667.17667,0,0,0,.1259.1783l-.11909.5076h.16809l.14711-.483a.57333.57333,0,0,0,.049-.2029A.18319.18319,0,0,0,194.42439,235.6674Zm-1.5293-1.08141h-.3149l.08389-.7807h1.1199v-.22389h-1.3405l-.12579,1.2285h.5213c.623,0,.8192.19589.8192.51109,0,.2973-.2206.50031-.6373.50031a1.06112,1.06112,0,0,1-.7523-.28351l-.12241.1996a1.26421,1.26421,0,0,0,.8784.3149c.5984,0,.889-.32539.889-.74179C193.9136,234.87621,193.6335,234.586,192.8951,234.586Z" transform="translate(-131.7515 -118.92389)" style="fill:#434242"/><path d="M281.47861,128.84119c-.42691,0-.7211-.3606-.7211-1.0148,0-.65448.29419-1.01508.7211-1.01508s.72089.3606.72089,1.01508c0,.65421-.294,1.0148-.72089,1.0148m0,.231c.56689,0,.98-.46539.98-1.24582,0-.78058-.41309-1.24609-.98-1.24609s-.9765.46552-.9765,1.24609C280.50211,128.60681,280.91171,129.0722,281.47861,129.0722Zm-2.11749-1.421.69278-.87131v-.17862H278.479v.22391h1.2529l-.67889.85071v.18539h.1749c.4552,0,.66159.1925.66159.48639,0,.30441-.22391.4935-.62979.4935a1.07414,1.07414,0,0,1-.7597-.28339l-.1225.19949a1.27467,1.27467,0,0,0,.8822.31491c.59131,0,.88889-.31491.88889-.72452C280.14859,127.95569,279.88611,127.67929,279.36111,127.65121Zm-1.4176,1.03607a.18319.18319,0,0,0-.18542.18912.17676.17676,0,0,0,.12592.17828l-.11911.5076h.16812l.14719-.483a.57559.57559,0,0,0,.049-.20288A.18324.18324,0,0,0,277.94351,128.68729Zm-1.60641-2.086v.22391h.57751v2.2261h.252v-2.45Z" transform="translate(-131.7515 -118.92389)" style="fill:#434242"/><line x1="116.87271" y1="174.21791" x2="86.12761" y2="174.21791" style="fill:none;stroke:#b1b2b2;stroke-miterlimit:22.92558479309082;stroke-width:0.2160000056028366px"/><line x1="37.8728" y1="174.21791" x2="9.1273" y2="174.21791" style="fill:none;stroke:#b1b2b2;stroke-miterlimit:22.92558479309082;stroke-width:0.2160000056028366px"/><line x1="63.84531" y1="9.0921" x2="40.97141" y2="9.0921" style="fill:none;stroke:#b1b2b2;stroke-miterlimit:22.92558479309082;stroke-width:0.2160000056028366px"/><line x1="14.78551" y1="9.4473" x2="8.03711" y2="9.4473" style="fill:none;stroke:#b1b2b2;stroke-miterlimit:22.92558479309082;stroke-width:0.2160000056028366px"/><line x1="130.03571" y1="99.69762" x2="120.3775" y2="99.69762" style="fill:none;stroke:#b1b2b2;stroke-miterlimit:22.92558479309082;stroke-width:0.2160000056028366px"/><line x1="59.28551" y1="115.94751" x2="9.47141" y2="115.94751" style="fill:none;stroke:#b1b2b2;stroke-miterlimit:22.92558479309082;stroke-width:0.2160000056028366px"/><line x1="143.03561" y1="8.96741" x2="129.24649" y2="8.96741" style="fill:none;stroke:#b1b2b2;stroke-miterlimit:22.92558479309082;stroke-width:0.2160000056028366px"/><line x1="155.62772" y1="174.21791" x2="126.3118" y2="174.21791" style="fill:none;stroke:#b1b2b2;stroke-miterlimit:22.92558479309082;stroke-width:0.2160000056028366px"/><line x1="78.62741" y1="174.21791" x2="47.3119" y2="174.21791" style="fill:none;stroke:#b1b2b2;stroke-miterlimit:22.92558479309082;stroke-width:0.2160000056028366px"/><line x1="121.8912" y1="9.0921" x2="73.28441" y2="9.0921" style="fill:none;stroke:#b1b2b2;stroke-miterlimit:22.92558479309082;stroke-width:0.2160000056028366px"/><line x1="30.97301" y1="9.4473" x2="24.22461" y2="9.4473" style="fill:none;stroke:#b1b2b2;stroke-miterlimit:22.92558479309082;stroke-width:0.2160000056028366px"/><line x1="154.8266" y1="99.69762" x2="139.47479" y2="99.69762" style="fill:none;stroke:#b1b2b2;stroke-miterlimit:22.92558479309082;stroke-width:0.2160000056028366px"/><line x1="115.4716" y1="115.94751" x2="68.72461" y2="115.94751" style="fill:none;stroke:#b1b2b2;stroke-miterlimit:22.92558479309082;stroke-width:0.2160000056028366px"/><line x1="154.65939" y1="8.96741" x2="152.4747" y2="8.96741" style="fill:none;stroke:#b1b2b2;stroke-miterlimit:22.92558479309082;stroke-width:0.2160000056028366px"/><path d="M145.49271,264.7869c0,.42691-.3605.7211-1.0148.7211-.65451,0-1.01511-.29419-1.01511-.7211s.3606-.7209,1.01511-.7209c.6543,0,1.0148.294,1.0148.7209m.231,0c0-.567-.46539-.98-1.24579-.98-.78061,0-1.24611.413-1.24611.98s.4655.9765,1.24611.9765C145.2583,265.7634,145.72369,265.35381,145.72369,264.7869Zm-.21339,2.2784c0,.434-.1891.68941-.4935.68941-.3011,0-.4901-.2554-.4901-.68941s.189-.693.4901-.693C145.3212,266.3723,145.5103,266.63139,145.5103,267.06529Zm-1.624.60551c-.2729,0-.441-.23471-.441-.60551,0-.3676.16811-.6091.4444-.6091.2662,0,.4377.2276.4377.6091C144.32739,267.44659,144.1559,267.67081,143.88631,267.67081Zm.53209-1.078a.555.555,0,0,0-.5392-.392c-.3988,0-.6474.34639-.6474.86449,0,.51791.2486.85751.6474.85751a.553.553,0,0,0,.5392-.38521.611.611,0,0,0,.60181.4725c.434,0,.70349-.3569.70349-.94481,0-.58449-.2695-.95209-.70349-.95209A.61687.61687,0,0,0,144.4184,266.5928Zm.92041,1.9879a.18316.18316,0,0,0,.18909.18539.17671.17671,0,0,0,.17831-.12579l.50769.119v-.16809l-.48309-.14711a.57289.57289,0,0,0-.20291-.049A.18318.18318,0,0,0,145.33881,268.5807Zm.14,1.8902-.81891-.8331a1.00771,1.00771,0,0,0-.76649-.4025c-.40961,0-.66161.3149-.66161.81209a1.10152,1.10152,0,0,0,.3501.868l.1539-.1786a.83216.83216,0,0,1-.273-.6684c0-.37451.1749-.57411.4584-.57411.16809,0,.33249.05251.6055.3289l.9975,1.01851h.1786v-1.7184h-.224Z" transform="translate(-131.7515 -118.92389)" style="fill:#434242"/><path d="M145.49271,210.3741c0,.4269-.3605.72121-1.0148.72121-.65451,0-1.01511-.29431-1.01511-.72121s.3606-.72079,1.01511-.72079c.6543,0,1.0148.2939,1.0148.72079m.231,0c0-.56689-.46539-.9799-1.24579-.9799-.78061,0-1.24611.413-1.24611.9799s.4655.97659,1.24611.97659C145.2583,211.35069,145.72369,210.9411,145.72369,210.3741Zm-.21339,2.1138c0,.42349-.2554.64771-.525.64771a.56716.56716,0,0,1-.5354-.63011c0-.3779.2063-.616.52829-.616A.53608.53608,0,0,1,145.5103,212.4879Zm-1.2739-.021a.78342.78342,0,0,0,.4198.74919c-.07341.00681-.1434.0105-.19951.0105-.66479,0-1.00439-.3396-1.00439-.86789a.861.861,0,0,1,.1154-.4763l-.2029-.10139a1.12547,1.12547,0,0,0-.133.5811c0,.665.434,1.11989,1.26711,1.11989.7733,0,1.22479-.35339,1.22479-1.00459a.76333.76333,0,0,0-.75259-.8365A.74173.74173,0,0,0,144.2364,212.4669Zm1.1024,1.5262a.18316.18316,0,0,0,.18909.18539.17668.17668,0,0,0,.17831-.1259l.50769.11909v-.16809l-.48309-.14709a.57265.57265,0,0,0-.20291-.049A.18318.18318,0,0,0,145.33881,213.9931Zm.14,1.8902-.81891-.8331a1.0079,1.0079,0,0,0-.76649-.4026c-.40961,0-.66161.315-.66161.81219a1.10113,1.10113,0,0,0,.3501.8679l.1539-.1785a.83239.83239,0,0,1-.273-.6685c0-.3744.1749-.574.4584-.574.16809,0,.33249.05251.6055.32881l.9975,1.01849h.1786v-1.71829h-.224Z" transform="translate(-131.7515 -118.92389)" style="fill:#434242"/><path d="M252.5029,208.29289h.6825v-.2486h-.45859v-1.26l2.22609,1.008v-.2729l-2.2715-1.0253h-.1785Zm1.582-.0141v.49011H253.518v.24489h.56689v1.0641l-1.582-1.2529v.2798l1.6239,1.29851h.182v-1.3824h.64409v-.252h-.64409v-.49011Zm.504,2.58661a.18317.18317,0,0,0,.1891.18539.17683.17683,0,0,0,.1783-.1259l.5076.11911v-.16811l-.483-.1472a.57537.57537,0,0,0-.2029-.049A.18322.18322,0,0,0,254.5889,210.8654Zm.14,1.89009-.81889-.8331a1.00775,1.00775,0,0,0-.76651-.4025c-.40959,0-.66159.3149-.66159.8121a1.101,1.101,0,0,0,.3501.868l.1539-.1786a.832.832,0,0,1-.273-.6684c0-.3745.1749-.574.45839-.574.16811,0,.3325.0524.6055.3288l.99751,1.01849h.17859v-1.7184h-.224Z" transform="translate(-131.7515 -118.92389)" style="fill:#434242"/><path d="M139.25281,159.20569h.68259v-.2486h-.45859v-1.26l2.226,1.008v-.273l-2.27141-1.0253h-.17859Zm2.25749,1.2319c0,.434-.189.68942-.4935.68942-.301,0-.4901-.2554-.4901-.68942s.1891-.69308.4901-.69308C141.3213,159.74451,141.5103,160.0036,141.5103,160.43759Zm-1.6239.6055c-.273,0-.4411-.23468-.4411-.6055,0-.36771.16811-.60919.4445-.60919.2661,0,.43759.2276.43759.60919C140.32739,160.81891,140.1559,161.04309,139.8864,161.04309Zm.532-1.078a.555.555,0,0,0-.53909-.39209c-.39891,0-.64751.34641-.64751.86459,0,.51791.2486.85751.64751.85751a.553.553,0,0,0,.53909-.38532.611.611,0,0,0,.60181.4726c.434,0,.7036-.35687.7036-.94479,0-.5845-.26961-.95218-.7036-.95218A.61692.61692,0,0,0,140.4184,159.96509Zm.92041,1.98792a.18316.18316,0,0,0,.18909.18539.17678.17678,0,0,0,.17831-.12589l.50769.11908v-.16809l-.483-.14709a.574.574,0,0,0-.203-.0491A.1832.1832,0,0,0,141.33881,161.953Zm.14009,1.89011-.819-.8331a1.00758,1.00758,0,0,0-.76649-.4025c-.40961,0-.66161.31488-.66161.81207a1.10134,1.10134,0,0,0,.3501.868l.1539-.17859a.8323.8323,0,0,1-.27289-.6684c0-.37442.1749-.574.4583-.574.16809,0,.33249.0524.6055.3288l.9975,1.01849h.1786v-1.71838h-.22391Z" transform="translate(-131.7515 -118.92389)" style="fill:#434242"/><path d="M251.229,137.4906l-.819-.8331a1.00775,1.00775,0,0,0-.7664-.40259c-.40961,0-.66161.315-.66161.81219a1.101,1.101,0,0,0,.35.86789l.154-.1785a.83223.83223,0,0,1-.273-.66849c0-.37442.1749-.574.4583-.574.16811,0,.3325.05249.6055.32889l.99751,1.0184h.17859V136.143H251.229Zm.0314,1.46259c0,.42352-.2554.64783-.5249.64783a.56728.56728,0,0,1-.53551-.63022c0-.37781.20641-.61591.5284-.61591A.536.536,0,0,1,251.26041,138.95319Zm-1.2738-.02087a.7835.7835,0,0,0,.4198.74918c-.0735.00681-.14351.0105-.1996.0105-.6647,0-1.0043-.3396-1.0043-.868a.86041.86041,0,0,1,.1154-.4762l-.203-.1015a1.12573,1.12573,0,0,0-.1329.58109c0,.665.4339,1.12,1.267,1.12.7733,0,1.22491-.35349,1.22491-1.00458a.76335.76335,0,0,0-.75261-.83652A.74164.74164,0,0,0,249.9866,138.93231Zm1.10229,1.52609a.18318.18318,0,0,0,.1891.18539.17668.17668,0,0,0,.1783-.12579l.50771.119v-.16809l-.483-.14709a.57354.57354,0,0,0-.203-.049A.18326.18326,0,0,0,251.0889,140.4584Zm-2.086,1.60638h.224v-.57739h2.226v-.252h-2.45Z" transform="translate(-131.7515 -118.92389)" style="fill:#434242"/><path d="M282.00589,169.02319c0,.37781-.20639.61591-.52838.61591a.53634.53634,0,0,1-.5321-.5986c0-.42349.25571-.64749.525-.64749a.56714.56714,0,0,1,.53549.63019m-1.2739.02771a.76321.76321,0,0,0,.75259.83659.74167.74167,0,0,0,.73471-.8261.78261.78261,0,0,0-.4198-.7489c.07339-.00711.1434-.0105.19962-.0105.665,0,1.00427.3396,1.00427.868a.85887.85887,0,0,1-.11539.47589l.203.1015a1.12406,1.12406,0,0,0,.1329-.58081c0-.665-.434-1.12-1.26712-1.12C281.1835,168.0466,280.732,168.40009,280.732,169.0509Zm1.603.9661v.4901h-.567v.2449h.567v1.0641l-1.58209-1.2529v.2798l1.624,1.2986h.182v-1.38251h.644v-.252h-.644v-.4901Zm.504,2.58659a.18316.18316,0,0,0,.189.18541.17657.17657,0,0,0,.17828-.1259l.50769.11909v-.16809l-.483-.14711a.57387.57387,0,0,0-.203-.0491A.18321.18321,0,0,0,282.839,172.60359ZM280.7529,174.21h.224v-.57741h2.226v-.252h-2.45Z" transform="translate(-131.7515 -118.92389)" style="fill:#434242"/><line x1="12.7933" y1="153.06351" x2="12.7933" y2="177.84772" style="fill:none;stroke:#b1b2b2;stroke-miterlimit:22.92558479309082;stroke-width:0.2160000056028366px"/><line x1="12.79131" y1="98.56351" x2="12.79131" y2="120.12721" style="fill:none;stroke:#b1b2b2;stroke-miterlimit:22.92558479309082;stroke-width:0.2160000056028366px"/><line x1="122.0414" y1="95.56361" x2="122.0414" y2="117.48302" style="fill:none;stroke:#b1b2b2;stroke-miterlimit:22.92558479309082;stroke-width:0.2160000056028366px"/><line x1="8.7914" y1="46.5636" x2="8.7914" y2="61.51302" style="fill:none;stroke:#b1b2b2;stroke-miterlimit:22.92558479309082;stroke-width:0.2160000056028366px"/><line x1="118.5415" y1="24.81342" x2="118.5415" y2="36.75211" style="fill:none;stroke:#b1b2b2;stroke-miterlimit:22.92558479309082;stroke-width:0.2160000056028366px"/><line x1="150.2915" y1="56.81342" x2="150.2915" y2="66.40221" style="fill:none;stroke:#b1b2b2;stroke-miterlimit:22.92558479309082;stroke-width:0.2160000056028366px"/><line x1="12.793" y1="124.09772" x2="12.793" y2="143.6244" style="fill:none;stroke:#b1b2b2;stroke-miterlimit:22.92558479309082;stroke-width:0.2160000056028366px"/><line x1="12.79131" y1="69.67311" x2="12.79131" y2="89.1244" style="fill:none;stroke:#b1b2b2;stroke-miterlimit:22.92558479309082;stroke-width:0.2160000056028366px"/><line x1="122.0414" y1="69.26941" x2="122.0414" y2="86.12451" style="fill:none;stroke:#b1b2b2;stroke-miterlimit:22.92558479309082;stroke-width:0.2160000056028366px"/><line x1="8.7914" y1="5.00201" x2="8.7914" y2="37.12451" style="fill:none;stroke:#b1b2b2;stroke-miterlimit:22.92558479309082;stroke-width:0.2160000056028366px"/><line x1="118.5415" y1="5.00201" x2="118.5415" y2="15.3743" style="fill:none;stroke:#b1b2b2;stroke-miterlimit:22.92558479309082;stroke-width:0.2160000056028366px"/><line x1="150.2926" y1="37.50211" x2="150.2926" y2="47.3743" style="fill:none;stroke:#b1b2b2;stroke-miterlimit:22.92558479309082;stroke-width:0.2160000056028366px"/></svg>