<svg id="Слой_1" data-name="Слой 1" xmlns="http://www.w3.org/2000/svg" viewBox="0 0 168.9454 137.47351"><title>2.09.01</title><polygon points="0 137.474 0 72.984 3.352 72.984 3.352 0 155.79 0 155.79 60.84 168.945 60.84 168.945 137.474 0 137.474" style="fill:#fff;fill-rule:evenodd"/><path d="M247.0703,232.5498a.374.374,0,1,1,.37471-.6474l13.92011,8.0399a.37405.37405,0,0,1-.37473.64749Z" transform="translate(-128.1257 -143.86169)" style="fill:#003915"/><path d="M221.1423,217.6498a.37407.37407,0,0,1,.64749.3748l-8.0399,13.92a.374.374,0,1,1-.64749-.37469Z" transform="translate(-128.1257 -143.86169)" style="fill:#003915"/><path d="M163.4635,204.07159a.374.374,0,1,1-.6474-.3748l8.0399-13.92009a.374.374,0,1,1,.6474.3748Z" transform="translate(-128.1257 -143.86169)" style="fill:#003915"/><rect x="93.06909" y="92.03841" width="2.6022" height="45.4351" style="fill:#003915"/><rect x="96.05251" y="95.64861" width="2.60219" height="41.82491" style="fill:#003915"/><rect x="93.06909" y="69.2742" width="2.6022" height="5.1738" style="fill:#003915"/><rect x="132.32071" y="94.8439" width="29.3746" height="2.6022" style="fill:#003915"/><rect x="117.4201" y="64.76601" width="44.27521" height="2.6022" style="fill:#003915"/><rect x="93.06909" y="94.8439" width="23.6378" height="2.6022" style="fill:#003915"/><rect x="37.817" y="69.2742" width="57.85429" height="2.6022" style="fill:#003915"/><rect x="32.957" width="122.83289" height="4.72421" style="fill:#003915"/><rect x="5.58279" y="133.44411" width="156.11252" height="4.0294" style="fill:#003915"/><rect x="160.6348" y="60.83971" width="1.06052" height="11.321" style="fill:#003915"/><rect x="155.26968" y="95.65851" width="6.42563" height="41.815" style="fill:#003915"/><polygon points="161.695 75.742 155.27 75.742 155.27 60.783 155.79 60.783 155.79 60.84 161.695 60.84 161.695 75.742" style="fill:#003915;fill-rule:evenodd"/><polygon points="155.84 67.368 149.414 67.368 149.414 2.225 155.79 2.225 155.79 60.84 155.84 60.84 155.84 67.368" style="fill:#003915;fill-rule:evenodd"/><rect width="109.4301" height="5.228" style="fill:#003915"/><rect x="1.12849" y="63.71631" width="38.21471" height="8.1601" style="fill:#003915"/><rect y="63.5587" width="8.1601" height="24.2578" style="fill:#003915"/><rect y="116.9062" width="8.1601" height="20.56731" style="fill:#003915"/><rect x="31.18311" y="2.68411" width="8.1601" height="27.44398" style="fill:#003915"/><rect x="31.18311" y="60.2467" width="8.1601" height="9.99609" style="fill:#003915"/><rect x="3.00189" y="102.8038" width="2.2986" height="0.5018" style="fill:#003915"/><rect x="3.00189" y="101.60561" width="2.2986" height="0.50121" style="fill:#003915"/><rect x="3.00189" y="88.9682" width="2.2986" height="0.50151" style="fill:#003915"/><rect x="3.00189" y="87.77" width="2.2986" height="0.50121" style="fill:#003915"/><rect x="3.00189" y="116.91551" width="2.2986" height="0.5018" style="fill:#003915"/><rect x="3.00189" y="115.71761" width="2.2986" height="0.50121" style="fill:#003915"/><rect y="85.71321" width="0.5014" height="34.09369" style="fill:#003915"/><rect x="2.84709" y="85.71321" width="0.50151" height="34.09369" style="fill:#003915"/><rect x="5.01849" y="85.71321" width="0.5014" height="34.09369" style="fill:#003915"/><rect x="7.6595" y="85.71321" width="0.5014" height="34.09369" style="fill:#003915"/><path d="M162.65739,185.0273h1.6698v.697h-1.6698Zm0-13.5692h1.6698v13.0677h-1.6698Zm0-1.1982h1.6698v.6971h-1.6698Zm1.6698-.50171h-1.6698v-5.7895h-.5015V185.7243h-2.3457V163.96869h-.50139v22.25681h8.16089V163.96869h-.50139V185.7243h-2.1396V167.67249h-.50151Z" transform="translate(-128.1257 -143.86169)" style="fill:#003915;fill-rule:evenodd"/><rect x="4.13519" y="44.50931" width="1.2971" height="0.4471" style="fill:#003915"/><rect x="4.13519" y="43.4415" width="1.2971" height="0.44681" style="fill:#003915"/><rect x="4.13519" y="25.9073" width="1.2971" height="0.44701" style="fill:#003915"/><rect x="4.13519" y="24.83951" width="1.2971" height="0.44669" style="fill:#003915"/><rect x="4.13519" y="7.3049" width="1.2971" height="0.44699" style="fill:#003915"/><rect x="4.13519" y="6.23709" width="1.2971" height="0.44672" style="fill:#003915"/><rect x="4.13519" y="63.11171" width="1.2971" height="0.44699" style="fill:#003915"/><rect x="4.13519" y="62.0439" width="1.2971" height="0.4467" style="fill:#003915"/><rect x="2.90579" y="4.17032" width="0.4467" height="60.82129" style="fill:#003915"/><rect x="3.9971" y="4.17032" width="0.44679" height="60.82129" style="fill:#003915"/><rect x="5.078" y="4.17032" width="0.4467" height="60.82129" style="fill:#003915"/><path d="M256.63519,276.9753h-9.8223a.90527.90527,0,0,1-.9054-.904V271.461a4.59576,4.59576,0,0,1,4.5896-4.591h2.45219a4.59568,4.59568,0,0,1,4.59041,4.591v4.61031a.9047.9047,0,0,1-.90451.904m-6.13809-9.8606a4.351,4.351,0,0,0-4.345,4.3463v4.61031a.66144.66144,0,0,0,.6608.6599h9.8223a.66068.66068,0,0,0,.65991-.6599V271.461a4.35139,4.35139,0,0,0-4.34581-4.3463Z" transform="translate(-128.1257 -143.86169)" style="fill:#003915"/><path d="M250.49741,268.2049a3.2587,3.2587,0,0,0-3.2545,3.2561v2.6881a.56784.56784,0,0,0,.5672.5675h3.5753v.24519h-3.5753a.814.814,0,0,1-.81241-.8127V271.461a3.50408,3.50408,0,0,1,3.49971-3.50079h2.45219a3.5047,3.5047,0,0,1,3.50081,3.50079v2.6881a.81447.81447,0,0,1-.81351.8127h-3.57541v-.24519h3.57541a.56827.56827,0,0,0,.5683-.5675V271.461a3.25933,3.25933,0,0,0-3.2556-3.2561Z" transform="translate(-128.1257 -143.86169)" style="fill:#003915"/><path d="M251.7242,271.80859a.7835.7835,0,1,1,.7838-.78349.78479.78479,0,0,1-.7838.78349m0-1.32239a.5387.5387,0,1,0,.53911.53889A.53971.53971,0,0,0,251.7242,270.48621Z" transform="translate(-128.1257 -143.86169)" style="fill:#003915"/><rect x="123.476" y="126.6055" width="0.2449" height="1.11661" style="fill:#003915"/><rect x="123.0401" y="127.04091" width="1.116" height="0.2455" style="fill:#003915"/><path d="M252.06149,275.79289h.4037a.17363.17363,0,0,0,.17291-.174v-.3793a.17364.17364,0,0,0-.17291-.174h-.4037v-.245h.4037a.41876.41876,0,0,1,.41811.419v.3793a.4187.4187,0,0,1-.41811.4187h-.4057l.002-.03749Zm-1.07719-.72729a.17438.17438,0,0,0-.174.174v.3793a.17437.17437,0,0,0,.174.174h.40111v.20721l.00229.03749h-.4034a.41854.41854,0,0,1-.41859-.4187v-.3793a.4186.4186,0,0,1,.41859-.419h.40111v.245Z" transform="translate(-128.1257 -143.86169)" style="fill:#003915"/><path d="M251.7242,276.46049a.461.461,0,0,1-.4612-.46039v-3.08041a.4605.4605,0,0,1,.921,0v3.08041a.46063.46063,0,0,1-.45981.46039m0-3.75679a.21675.21675,0,0,0-.21629.216v3.08041a.2156.2156,0,0,0,.4312,0v-3.08041A.21608.21608,0,0,0,251.7242,272.7037Z" transform="translate(-128.1257 -143.86169)" style="fill:#003915"/><path d="M268.11441,262.9761a3.91686,3.91686,0,0,0-3.9115,3.91289v5.66531a.67731.67731,0,0,0,.45609.6393,1.244,1.244,0,0,0-.20358.2049.94573.94573,0,0,1-.52151-.84419V266.889a4.1808,4.1808,0,1,1,8.3616,0v5.66531a.94534.94534,0,0,1-.521.8436,1.24111,1.24111,0,0,0-.20331-.20461.67634.67634,0,0,0,.4556-.639V266.889a3.91713,3.91713,0,0,0-3.91238-3.91289" transform="translate(-128.1257 -143.86169)" style="fill:#003915"/><path d="M270.91809,271.4735H265.3092a.20391.20391,0,0,1-.2012-.20149V267.0013a3.00655,3.00655,0,1,1,6.01309,0V271.272a.20466.20466,0,0,1-.203.20149m-5.54138-.26819h5.476v-4.204a2.738,2.738,0,0,0-5.476,0Z" transform="translate(-128.1257 -143.86169)" style="fill:#003915"/><path d="M268.11411,268.7426a1.00815,1.00815,0,1,1,1.00888-1.008,1.01,1.01,0,0,1-1.00888,1.008m0-1.7476a.73945.73945,0,1,0,.7399.73961A.74047.74047,0,0,0,268.11411,266.995Z" transform="translate(-128.1257 -143.86169)" style="fill:#003915"/><rect x="265.37159" y="269.68447" width="2.24222" height="0.26861" transform="translate(-237.26029 178.15544) rotate(-53.26667)" style="fill:#003915"/><rect x="269.55743" y="268.697" width="0.26918" height="2.24313" transform="translate(-236.02161 71.52156) rotate(-36.80986)" style="fill:#003915"/><path d="M270.815,276.9753h-5.4006a1.3551,1.3551,0,0,1-1.35239-1.3539v-1.4743a1.3535,1.3535,0,0,1,1.35239-1.3524h5.4006a1.35321,1.35321,0,0,1,1.35181,1.3524v1.4743a1.3548,1.3548,0,0,1-1.35181,1.3539m-5.4006-3.91209a1.08548,1.08548,0,0,0-1.08429,1.08389v1.4743a1.08592,1.08592,0,0,0,1.08429,1.0851h5.4006a1.08591,1.08591,0,0,0,1.08359-1.0851v-1.4743a1.08546,1.08546,0,0,0-1.08359-1.08389Z" transform="translate(-128.1257 -143.86169)" style="fill:#003915"/><path d="M268.11411,275.573a.68815.68815,0,1,1,.68829-.68739.68816.68816,0,0,1-.68829.68739m0-1.10719a.4192.4192,0,1,0,.41949.4198A.41943.41943,0,0,0,268.11411,274.46581Z" transform="translate(-128.1257 -143.86169)" style="fill:#003915"/><path d="M282.83731,248.7184h0v-7.83949h-11.348v7.83949Zm.33078-8.1709V249.05H271.1582v-8.5025Z" transform="translate(-128.1257 -143.86169)" style="fill:#003915"/><path d="M280.44281,248.9429a.60439.60439,0,0,1-.59351.61259H274.477a.6041.6041,0,0,1-.59378-.61259h.33078a.26967.26967,0,0,0,.263.2809h5.37231a.26942.26942,0,0,0,.2627-.2809Z" transform="translate(-128.1257 -143.86169)" style="fill:#003915"/><path d="M278.185,246.3163h0v-2.7077l-1.59729-.6216a2.47367,2.47367,0,0,0,.09189,1.6747,4.15423,4.15423,0,0,1,.24121,1.24071,2.44935,2.44935,0,0,1-.1882.9366Zm.33081-2.9341V246.549l-2.48.89211.22479-.39059a2.26605,2.26605,0,0,0,.32941-1.1481,3.89039,3.89039,0,0,0-.22681-1.14371,3.90127,3.90127,0,0,1-.22818-1.1441,2.01816,2.01816,0,0,1,.218-.91249l.0675-.1358Z" transform="translate(-128.1257 -143.86169)" style="fill:#003915"/><path d="M241.69859,274.824v-30.0849a2.161,2.161,0,0,0-2.1657-2.1515H229.1216a2.161,2.161,0,0,0-2.166,2.1515V274.824a2.161,2.161,0,0,0,2.166,2.15129h10.4113a2.161,2.161,0,0,0,2.1657-2.15129m-14.51309-30.0849a1.9311,1.9311,0,0,1,1.9361-1.92191h10.4113a1.931,1.931,0,0,1,1.9355,1.92191V274.824a1.93141,1.93141,0,0,1-1.9355,1.9222H229.1216a1.93154,1.93154,0,0,1-1.9361-1.9222Z" transform="translate(-128.1257 -143.86169)" style="fill:#003915"/><path d="M228.44749,247.72479a2.577,2.577,0,0,1,2.58211-2.56529h6.5948a2.57658,2.57658,0,0,1,2.5818,2.56529V271.838a2.57719,2.57719,0,0,1-2.5818,2.566h-2.0619a.39655.39655,0,0,1,.142.22809h1.91991a2.80638,2.80638,0,0,0,2.8125-2.7941v-24.1132a2.80664,2.80664,0,0,0-2.8125-2.79439h-6.5948a2.80659,2.80659,0,0,0-2.8123,2.79439V271.838a2.80634,2.80634,0,0,0,2.8123,2.7941h1.9202a.39514.39514,0,0,1,.1414-.22809h-2.0616a2.57758,2.57758,0,0,1-2.58211-2.566Z" transform="translate(-128.1257 -143.86169)" style="fill:#003915"/><path d="M229.7608,249.27229a1.26667,1.26667,0,0,1,1.2688-1.2612h6.5948a1.26634,1.26634,0,0,1,1.26819,1.2612V271.838a1.26621,1.26621,0,0,1-1.26819,1.26151H234.7795v.2287h2.84491a1.49613,1.49613,0,0,0,1.4989-1.4902v-22.5657a1.49565,1.49565,0,0,0-1.4989-1.4894h-6.5948a1.49535,1.49535,0,0,0-1.499,1.4894V271.838a1.49583,1.49583,0,0,0,1.499,1.4902h2.84509v-.2287H231.0296a1.26654,1.26654,0,0,1-1.2688-1.26151Z" transform="translate(-128.1257 -143.86169)" style="fill:#003915"/><path d="M235.05991,269.93289a.73336.73336,0,1,0-.73361.7299.7316.7316,0,0,0,.73361-.7299m-1.23651,0a.50331.50331,0,1,1,.5029.50031A.50186.50186,0,0,1,233.82339,269.93289Z" transform="translate(-128.1257 -143.86169)" style="fill:#003915"/><rect x="105.6781" y="125.95691" width="1.0457" height="0.2294" style="fill:#003915"/><rect x="106.08521" y="125.5527" width="0.2307" height="1.0378" style="fill:#003915"/><path d="M234.7795,274.43289h.53751a.27983.27983,0,0,1,.2803.27861v.5051a.28036.28036,0,0,1-.2803.2793h-.53751v.2287h.53751a.51034.51034,0,0,0,.51109-.508v-.5051a.5097.5097,0,0,0-.51109-.5074h-.53751Zm-1.722.27861a.27976.27976,0,0,1,.28-.27861h.5372v-.22879h-.5372a.50932.50932,0,0,0-.51079.5074v.5051a.51.51,0,0,0,.51079.508h.5372v-.2287h-.5372a.28029.28029,0,0,1-.28-.2793Z" transform="translate(-128.1257 -143.86169)" style="fill:#003915"/><path d="M234.8949,275.7226v-3.2011a.56766.56766,0,0,0-1.1353,0v3.2011a.56766.56766,0,0,0,1.1353,0m-.90509-3.2011a.3372.3372,0,0,1,.67439,0v3.2011a.3372.3372,0,0,1-.67439,0Z" transform="translate(-128.1257 -143.86169)" style="fill:#003915"/><path d="M277.08151,194.0746V182.3055H265.31259v11.7691Zm-.24942-11.5197v11.2706h-11.2706V182.5549Z" transform="translate(-128.1257 -143.86169)" style="fill:#003915"/><path d="M266.4108,188.1902a3.91956,3.91956,0,0,1,7.7142-.9816.29933.29933,0,0,1,.1976-.07431h.0405a4.16847,4.16847,0,1,0,.00031,2.11151h-.0408a.29823.29823,0,0,1-.1973-.074,3.91973,3.91973,0,0,1-7.71451-.9816" transform="translate(-128.1257 -143.86169)" style="fill:#003915"/><path d="M273.81149,188.1902a3.48155,3.48155,0,1,0-3.48178,3.4812,3.48577,3.48577,0,0,0,3.48178-3.4812m-6.71359,0a3.2319,3.2319,0,1,1,3.23181,3.2318A3.23541,3.23541,0,0,1,267.0979,188.1902Z" transform="translate(-128.1257 -143.86169)" style="fill:#003915"/><path d="M271.23221,188.1902a.90225.90225,0,1,0-.9025.9025.90325.90325,0,0,0,.9025-.9025m-1.5556,0a.653.653,0,1,1,.65311.65309A.65424.65424,0,0,1,269.67661,188.1902Z" transform="translate(-128.1257 -143.86169)" style="fill:#003915"/><rect x="141.54749" y="44.20381" width="1.31381" height="0.24939" style="fill:#003915"/><rect x="142.0795" y="43.67171" width="0.24979" height="1.3136" style="fill:#003915"/><path d="M275.13641,188.94389v-1.5074a.42715.42715,0,0,0-.42661-.4267h-.38721a.427.427,0,0,0-.4267.4267v1.5074a.42688.42688,0,0,0,.4267.42661h.38721a.42706.42706,0,0,0,.42661-.42661m-.991-1.5074a.17768.17768,0,0,1,.17722-.17749h.38721a.17746.17746,0,0,1,.17709.17749v1.5074a.1772.1772,0,0,1-.17709.1772h-.38721a.17742.17742,0,0,1-.17722-.1772Z" transform="translate(-128.1257 -143.86169)" style="fill:#003915"/><path d="M275.01169,187.9702h.08643a.2197.2197,0,0,1,0,.43941h-.08643v.24969h.08643a.4694.4694,0,0,0,0-.9388h-.08643Zm-2.59009.22a.22058.22058,0,0,1,.22061-.22h1.37848v-.24969h-1.37848a.4694.4694,0,1,0,0,.9388h1.37848v-.24969h-1.37848A.22008.22008,0,0,1,272.4216,188.1902Z" transform="translate(-128.1257 -143.86169)" style="fill:#003915"/><path d="M276.60019,165.40979v7.15671a1.49609,1.49609,0,0,1-1.49469,1.49409h-8.29871a1.496,1.496,0,0,1-1.4942-1.49409v-7.15671a1.49562,1.49562,0,0,1,1.4942-1.49408h8.29871a1.49571,1.49571,0,0,1,1.49469,1.49408m-11.0546,7.15671a1.26265,1.26265,0,0,0,1.2612,1.26111h8.29871a1.26275,1.26275,0,0,0,1.26169-1.26111v-7.15671a1.26306,1.26306,0,0,0-1.26169-1.26169h-8.29871a1.263,1.263,0,0,0-1.2612,1.26169Z" transform="translate(-128.1257 -143.86169)" style="fill:#003915"/><path d="M275.78131,165.40979v7.15671a.67631.67631,0,0,1-.67581.6758h-7.01071a.6764.6764,0,0,1-.67569-.6758v-7.15671a.67645.67645,0,0,1,.67569-.6763h7.01071a.67636.67636,0,0,1,.67581.6763m-8.12921,7.15671a.4432.4432,0,0,0,.44269.443h7.01071a.44346.44346,0,0,0,.443-.443v-7.15671a.44383.44383,0,0,0-.443-.44388h-7.01071a.44357.44357,0,0,0-.44269.44388Z" transform="translate(-128.1257 -143.86169)" style="fill:#003915"/><path d="M267.0004,171.8663a.47424.47424,0,1,1-.4743-.4742.475.475,0,0,1,.4743.4742m-.71548,0a.24124.24124,0,1,0,.24118-.2415A.2419.2419,0,0,0,266.28491,171.8663Z" transform="translate(-128.1257 -143.86169)" style="fill:#003915"/><path d="M267.0004,170.26559a.47424.47424,0,1,1-.4743-.47479.475.475,0,0,1,.4743.47479m-.71548,0a.24124.24124,0,1,0,.24118-.24179A.24159.24159,0,0,0,266.28491,170.26559Z" transform="translate(-128.1257 -143.86169)" style="fill:#003915"/><rect x="145.2804" y="25.73181" width="0.2327" height="2.71959" style="fill:#003915"/><rect x="144.03769" y="26.9751" width="2.7196" height="0.23271" style="fill:#003915"/><path d="M274.41949,170.95329a.8969.8969,0,1,1-.89688-.89659.898.898,0,0,1,.89688.89659m-1.561,0a.66431.66431,0,1,0,.66412-.66389A.66548.66548,0,0,0,272.85849,170.95329Z" transform="translate(-128.1257 -143.86169)" style="fill:#003915"/><rect x="141.43549" y="25.73181" width="0.23242" height="2.71959" style="fill:#003915"/><rect x="140.19189" y="26.9751" width="2.7204" height="0.23271" style="fill:#003915"/><path d="M270.5751,170.95329a.89716.89716,0,1,1-.8974-.89659.89858.89858,0,0,1,.8974.89659m-1.5618,0a.6647.6647,0,1,0,.6644-.66389A.6654.6654,0,0,0,269.01331,170.95329Z" transform="translate(-128.1257 -143.86169)" style="fill:#003915"/><rect x="145.2804" y="21.8013" width="0.2327" height="2.7193" style="fill:#003915"/><rect x="144.03769" y="23.04401" width="2.7196" height="0.233" style="fill:#003915"/><path d="M274.41949,167.02219a.8969.8969,0,1,1-.89688-.89688.89783.89783,0,0,1,.89688.89688m-1.561,0a.66431.66431,0,1,0,.66412-.66388A.666.666,0,0,0,272.85849,167.02219Z" transform="translate(-128.1257 -143.86169)" style="fill:#003915"/><rect x="141.43549" y="21.8013" width="0.23242" height="2.7193" style="fill:#003915"/><rect x="140.19189" y="23.04401" width="2.7204" height="0.233" style="fill:#003915"/><path d="M270.5751,167.02219a.89716.89716,0,1,1-.8974-.89688.89845.89845,0,0,1,.8974.89688m-1.5618,0a.6647.6647,0,1,0,.6644-.66388A.66592.66592,0,0,0,269.01331,167.02219Z" transform="translate(-128.1257 -143.86169)" style="fill:#003915"/><path d="M267.0004,167.552a.47424.47424,0,1,1-.4743-.47449.47484.47484,0,0,1,.4743.47449m-.71548,0a.24124.24124,0,1,0,.24118-.24179A.24163.24163,0,0,0,266.28491,167.552Z" transform="translate(-128.1257 -143.86169)" style="fill:#003915"/><path d="M267.0004,165.95041a.47424.47424,0,1,1-.4743-.47391.47464.47464,0,0,1,.4743.47391m-.71548,0a.24124.24124,0,1,0,.24118-.24152A.24165.24165,0,0,0,266.28491,165.95041Z" transform="translate(-128.1257 -143.86169)" style="fill:#003915"/><path d="M281.81369,274.9678a.80925.80925,0,1,0,.23471.57089.80977.80977,0,0,0-.23471-.57089m-.5726-1.03641a1.60726,1.60726,0,1,1-1.13638.4706A1.60277,1.60277,0,0,1,281.24109,273.9314Z" transform="translate(-128.1257 -143.86169)" style="fill:#003915"/><path d="M275.42661,202.9933a.80921.80921,0,1,1-.23471.57089.80977.80977,0,0,1,.23471-.57089m.5726-1.03641a1.60708,1.60708,0,1,0,1.13651.47061A1.60256,1.60256,0,0,0,275.99921,201.95689Z" transform="translate(-128.1257 -143.86169)" style="fill:#003915"/><rect x="117.4201" y="64.76601" width="7.8284" height="8.7894" style="fill:#003915"/><path d="M276.16049,268.5544V265.574h3.07281v2.98039Zm0,4.2894V269.8634h6.9574v2.98039Zm3.88461-4.2894V265.574h3.07278v2.98039Zm-4.89682-3.9991h9.56442v8.9373h-9.56442Z" transform="translate(-128.1257 -143.86169)" style="fill:#003915;fill-rule:evenodd"/><path d="M272.776,201.4818h-2.98041v3.0728H272.776Zm5.1037,0H274.085v6.9574h3.79471Zm-5.1037,3.8846h-2.98041v3.0728H272.776Zm-3.99912-4.89679V210.034h10.6015V200.4696Z" transform="translate(-128.1257 -143.86169)" style="fill:#003915;fill-rule:evenodd"/><path d="M149.42011,176.2782c-.7319,0-1.2359-.618-1.2359-1.7399s.504-1.74,1.2359-1.74,1.2359.618,1.2359,1.74-.504,1.7399-1.2359,1.7399m0,.396c.972,0,1.67979-.798,1.67979-2.13589s-.70779-2.136-1.67979-2.136-1.6738.798-1.6738,2.136S148.4481,176.67419,149.42011,176.67419Zm-2.0701-1.5239h-.8399v-.972h-.4198v.972h-1.8241l2.1481-2.712h-.48021l-2.2258,2.784v.3118h2.3698v1.1041h.432v-1.1041h.8399Zm-4.4337.864a.314.314,0,0,0-.318.324.303.303,0,0,0,.216.3058l-.2041.87h.288l.252-.828a.97639.97639,0,0,0,.0842-.34779A.314.314,0,0,0,142.91631,176.0143Zm-2.2861-1.776,1.188-1.49409v-.30591h-2.7v.38391h2.1481l-1.16389,1.4581v.318h.2999c.7798,0,1.1338.33,1.1338.834,0,.5219-.3838.8459-1.08.8459a1.841,1.841,0,0,1-1.3019-.4859l-.2101.3419a2.18512,2.18512,0,0,0,1.512.54c1.014,0,1.5239-.54,1.5239-1.2419C141.98,174.76019,141.5302,174.2863,140.6302,174.2383Z" transform="translate(-128.1257 -143.86169)" style="fill:#6e6e6e;fill-rule:evenodd"/><path d="M249.34821,183.0688c-.7319,0-1.2359-.6179-1.2359-1.7399s.504-1.7399,1.2359-1.7399,1.2359.618,1.2359,1.7399-.504,1.7399-1.2359,1.7399m0,.396c.972,0,1.67979-.7979,1.67979-2.13589s-.70779-2.13591-1.67979-2.13591-1.6739.798-1.6739,2.13591S248.37621,183.4648,249.34821,183.4648Zm-3.966-2.514h-.54l.144-1.338h1.91989V179.229h-2.2977l-.216,2.1059h.894c1.06779,0,1.40369.33591,1.40369.8759,0,.5099-.37779.858-1.09189.858a1.82136,1.82136,0,0,1-1.29-.48581l-.20979.34181a2.16815,2.16815,0,0,0,1.5058.54c1.02609,0,1.5239-.5578,1.5239-1.2719C247.1281,181.44881,246.64819,180.95081,245.3822,180.95081Zm-2.0457,1.8541a.31413.31413,0,0,0-.3181.324.30323.30323,0,0,0,.216.30589l-.2041.8699h.288l.252-.828a.97556.97556,0,0,0,.0842-.34779A.314.314,0,0,0,243.3365,182.8049Zm-2.6221.294c-.74409,0-1.182-.324-1.182-.84619,0-.5159.43791-.8399,1.182-.8399.74381,0,1.188.324,1.188.8399C241.9024,182.7749,241.45821,183.09889,240.7144,183.09889Zm-1.038-2.78389c0-.468.40189-.756,1.038-.756.6299,0,1.044.288,1.044.76189,0,.4561-.39.75011-1.044.75011S239.67641,180.777,239.67641,180.315Zm1.8479.9119a.95117.95117,0,0,0,.67209-.9238c0-.684-.59419-1.11011-1.482-1.11011-.88811,0-1.47.4261-1.47,1.11011a.94775.94775,0,0,0,.6599.9238,1.04819,1.04819,0,0,0-.80989,1.0321c0,.74379.612,1.2058,1.62,1.2058,1.00211,0,1.6319-.462,1.6319-1.2058A1.05753,1.05753,0,0,0,241.52431,181.2269Zm-4.83-1.99789v.38379h.99019v3.816h.432V179.229Z" transform="translate(-128.1257 -143.86169)" style="fill:#6e6e6e;fill-rule:evenodd"/><path d="M270.26221,226.569c-.7319,0-1.2359-.6179-1.2359-1.7399s.504-1.7399,1.2359-1.7399,1.2359.618,1.2359,1.7399-.504,1.7399-1.2359,1.7399m0,.396c.972,0,1.67978-.7979,1.67978-2.13589s-.70779-2.13589-1.67978-2.13589-1.67392.798-1.67392,2.13589S269.29019,226.965,270.26221,226.965Zm-3.96591-2.514h-.54l.144-1.338h1.91989v-.3838H265.5224l-.216,2.1059h.894c1.0679,0,1.40378.33591,1.40378.8759,0,.5099-.3779.858-1.09189.858a1.82168,1.82168,0,0,1-1.2901-.48579l-.20981.3418a2.16823,2.16823,0,0,0,1.5058.54c1.02612,0,1.52393-.5578,1.52393-1.2719C268.04211,224.949,267.56219,224.451,266.2963,224.451Zm-2.04581,1.8541a.31414.31414,0,0,0-.31808.324.30323.30323,0,0,0,.216.30589l-.2041.8699h.288l.252-.828a.9759.9759,0,0,0,.0842-.34779A.314.314,0,0,0,264.25049,226.3051Zm-3.24.23981,1.4281-1.4037a1.729,1.729,0,0,0,.68991-1.3141c0-.7019-.54-1.1339-1.39212-1.1339a1.88736,1.88736,0,0,0-1.48788.59979l.30591.26421a1.42623,1.42623,0,0,1,1.146-.468c.64209,0,.98389.2999.98389.7861,0,.28769-.08978.56969-.56378,1.03769l-1.74612,1.71021v.3058h2.946v-.38409Z" transform="translate(-128.1257 -143.86169)" style="fill:#6e6e6e;fill-rule:evenodd"/><path d="M263.62231,255.61031c-.7319,0-1.2359-.618-1.2359-1.74s.504-1.7399,1.2359-1.7399,1.23587.618,1.23587,1.7399-.504,1.74-1.23587,1.74m0,.396c.972,0,1.67978-.798,1.67978-2.136s-.70779-2.13589-1.67978-2.13589-1.67383.798-1.67383,2.13589S262.6503,256.0063,263.62231,256.0063Zm-3.90582-.366c-.74408,0-1.1821-.324-1.1821-.8461,0-.5159.438-.8399,1.1821-.8399.7438,0,1.188.324,1.188.8399C260.90451,255.3163,260.4603,255.6403,259.71649,255.6403Zm-1.03809-2.78391c0-.468.402-.756,1.03809-.756.62982,0,1.044.288,1.044.7619,0,.4561-.39011.75009-1.044.75009S258.67841,253.31841,258.67841,252.8564Zm1.8479.9119a.95114.95114,0,0,0,.67209-.9238c0-.684-.59409-1.11009-1.4819-1.11009-.88809,0-1.47009.42609-1.47009,1.11009a.94785.94785,0,0,0,.65991.9238,1.04822,1.04822,0,0,0-.80981,1.0321c0,.7438.612,1.2059,1.62,1.2059,1.002,0,1.6319-.4621,1.6319-1.2059A1.05761,1.05761,0,0,0,260.52631,253.7683Zm-3.40781,1.578a.31406.31406,0,0,0-.318.324.303.303,0,0,0,.216.30589l-.2041.87h.288l.252-.828a.97636.97636,0,0,0,.08423-.3479A.314.314,0,0,0,257.1185,255.3463Zm-.8461-.864h-.8399v-.972h-.4198v.972h-1.8241l2.1481-2.7119h-.48019l-2.2258,2.78391v.31189h2.3698v1.10411h.432V254.8662h.8399Z" transform="translate(-128.1257 -143.86169)" style="fill:#6e6e6e;fill-rule:evenodd"/><path d="M181.292,248.069c-.7319,0-1.2359-.618-1.2359-1.7399s.504-1.7399,1.2359-1.7399,1.23589.61789,1.23589,1.7399-.504,1.7399-1.23589,1.7399m0,.396c.972,0,1.67979-.798,1.67979-2.13589s-.70779-2.13589-1.67979-2.13589-1.67381.7979-1.67381,2.13589S180.32,248.465,181.292,248.465Zm-4.098-4.23579v.3838h.9901v3.816h.432v-4.1998Zm-.61169,3.5759a.31408.31408,0,0,0-.3181.324.30312.30312,0,0,0,.216.3058l-.2041.87h.288l.252-.828a.97606.97606,0,0,0,.0842-.34779A.314.314,0,0,0,176.58231,247.8051Zm-2.28621-1.77589,1.188-1.4942v-.3058h-2.7v.3838h2.1481l-1.16391,1.4581v.3181h.29991c.7798,0,1.1339.3299,1.1339.83389,0,.5219-.3838.8459-1.08.8459a1.84131,1.84131,0,0,1-1.302-.4859l-.21.3419a2.18493,2.18493,0,0,0,1.512.54c1.0139,0,1.5239-.54,1.5239-1.2419C175.646,246.551,175.19611,246.0771,174.2961,246.02921Zm-3.852-1.8v.3838h.99019v3.816h.432v-4.1998Z" transform="translate(-128.1257 -143.86169)" style="fill:#6e6e6e;fill-rule:evenodd"/><path d="M284.94312,225.13809a3.90785,3.90785,0,1,0,3.9079,3.90761,3.908,3.908,0,0,0-3.9079-3.90761" transform="translate(-128.1257 -143.86169)" style="fill:#558e42;fill-rule:evenodd"/><polygon points="154.414 85.184 155.728 84.806 157.043 84.427 157.043 85.184 157.043 85.941 155.728 85.563 154.414 85.184" style="fill:#fdfdfd;fill-rule:evenodd"/><rect x="156.94019" y="85.00511" width="2.28131" height="0.38409" style="fill:#fdfdfd"/><path d="M245.399,255.38519c0,.42691-.3606.7211-1.0148.7211-.6546,0-1.01511-.29419-1.01511-.7211s.3605-.72089,1.01511-.72089c.65421,0,1.0148.294,1.0148.72089m.231,0c0-.56689-.4655-.98-1.2458-.98-.7807,0-1.2462.4131-1.2462.98s.4655.9765,1.2462.9765C245.16451,256.36169,245.63,255.9521,245.63,255.38519Zm-.2135,2.2785c0,.434-.189.68941-.4935.68941-.301,0-.4901-.2554-.4901-.68941s.18909-.6931.4901-.6931C245.22749,256.9706,245.4165,257.22971,245.4165,257.6637Zm-1.6239.6055c-.273,0-.4411-.2348-.4411-.6055,0-.36769.16811-.60919.4445-.60919.2661,0,.43759.2276.43759.60919C244.2336,258.04491,244.0621,258.2692,243.7926,258.2692Zm.532-1.07809a.55478.55478,0,0,0-.53909-.392c-.39891,0-.64751.34639-.64751.86459,0,.5179.2486.8575.64751.8575a.55288.55288,0,0,0,.53909-.3853.61113.61113,0,0,0,.60181.47261c.434,0,.7036-.3569.7036-.94481,0-.5845-.26961-.95219-.7036-.95219A.617.617,0,0,0,244.3246,257.1911Zm.92039,1.988a.18318.18318,0,0,0,.1891.18541.17676.17676,0,0,0,.1783-.1259l.50771.11909v-.16809l-.483-.1472a.57585.57585,0,0,0-.203-.049A.18322.18322,0,0,0,245.245,259.17909Zm-2.086,1.6064h.224v-.5775h2.226v-.252h-2.45Z" transform="translate(-128.1257 -143.86169)" style="fill:#434242"/><path d="M277.70911,222.3831l-.8714-.69281h-.17862v1.57491h.224v-1.2529l.85071.67889h.1853v-.1749c0-.4552.1925-.66159.48651-.66159.30438,0,.4935.224.4935.6299a1.07434,1.07434,0,0,1-.28351.75969l.19958.12241a1.27425,1.27425,0,0,0,.31491-.8821c0-.59131-.31491-.889-.72449-.889-.39212,0-.6684.2625-.6965.78751m.5321,1.0114v.4901h-.567v.2449h.567v1.06419l-1.58212-1.253v.2798l1.624,1.2986h.182V224.1366h.644v-.252h-.644v-.4901Zm.504,2.58659a.18315.18315,0,0,0,.189.18541.17652.17652,0,0,0,.17828-.1259l.50772.11909v-.16811l-.483-.14709a.57336.57336,0,0,0-.203-.049A.18316.18316,0,0,0,278.74521,225.98109Zm-2.08612,1.6064h.224v-.57739h2.226v-.252h-2.45Z" transform="translate(-128.1257 -143.86169)" style="fill:#434242"/><path d="M155.66341,185.48759v.315l-.78061-.08389v-1.12h-.224v1.3405l1.22861.1259v-.5213c0-.62309.1958-.8192.51109-.8192.2973,0,.50031.2205.50031.63721a1.06144,1.06144,0,0,1-.28351.7523l.1996.1225a1.265,1.265,0,0,0,.31491-.87851c0-.59839-.32541-.8889-.74181-.8889-.4343,0-.72459.28-.72459,1.0184m.24829,1.9846c0,.37781-.2063.61591-.52829.61591a.53635.53635,0,0,1-.5321-.5986c0-.42351.25569-.64751.525-.64751A.56709.56709,0,0,1,155.9117,187.4722Zm-1.2738.0278a.76318.76318,0,0,0,.75261.8365.74162.74162,0,0,0,.7347-.8261.78257.78257,0,0,0-.4198-.7489c.07339-.00711.1434-.01051.19951-.01051.6651,0,1.00439.33961,1.00439.868a.85871.85871,0,0,1-.1154.47589l.203.1015a1.12491,1.12491,0,0,0,.1329-.5808c0-.665-.434-1.12-1.26711-1.12C155.0894,186.49561,154.63789,186.84911,154.63789,187.5Zm2.107,1.3127a.18313.18313,0,0,0,.189.18539.17675.17675,0,0,0,.1783-.1259l.50771.11911v-.16811l-.483-.1472a.57617.57617,0,0,0-.203-.049A.18318.18318,0,0,0,156.7449,188.8127Zm.14,1.89011-.81891-.8331a1.00789,1.00789,0,0,0-.76649-.40251c-.40961,0-.66161.31491-.66161.8121a1.10128,1.10128,0,0,0,.35.868l.154-.17859a.832.832,0,0,1-.273-.66841c0-.3745.1749-.574.4583-.574.16811,0,.3325.0524.6055.3288l.99751,1.01849h.17859v-1.7184h-.22389Z" transform="translate(-128.1257 -143.86169)" style="fill:#434242"/><path d="M140.885,248.03951l-.81889-.8331a1.00778,1.00778,0,0,0-.76649-.40251c-.40961,0-.66161.31491-.66161.8121a1.10111,1.10111,0,0,0,.3501.868l.1539-.17859a.83219.83219,0,0,1-.273-.66841c0-.3745.1749-.5741.45839-.5741.16811,0,.3325.05251.60551.3289l.9975,1.01849h.1785v-1.7184H140.885Zm-2.226,1.73929h.22391v-.57739h2.226v-.252H138.659Zm2.086.3569a.18316.18316,0,0,0,.189.18541.1767.1767,0,0,0,.1783-.1259l.50769.11909v-.16811l-.483-.14709a.57387.57387,0,0,0-.203-.0491A.18319.18319,0,0,0,140.745,250.1357Zm-1.0361,1.3334-.8714-.69279h-.1785v1.575h.22391v-1.253l.85069.67891h.18541v-.17491c0-.4552.1924-.66159.48639-.66159.3044,0,.4935.224.4935.6299a1.07438,1.07438,0,0,1-.28349.7597l.1996.12239a1.27424,1.27424,0,0,0,.3149-.8821c0-.59131-.3149-.8889-.7245-.8889C140.0134,250.6817,139.737,250.94409,139.70889,251.4691Z" transform="translate(-128.1257 -143.86169)" style="fill:#434242"/><path d="M172.6489,172.65891c0,.4269-.3606.7211-1.0148.7211-.6545,0-1.01509-.2942-1.01509-.7211s.3606-.7209,1.01509-.7209c.65421,0,1.0148.294,1.0148.7209m.231,0c0-.56691-.46539-.98-1.2458-.98-.7807,0-1.24609.4131-1.24609.98s.46539.9765,1.24609.9765C172.41451,173.63541,172.8799,173.2258,172.8799,172.65891Zm-.2449,2.62509-.81889-.8331a1.00775,1.00775,0,0,0-.76649-.4025c-.40961,0-.66161.315-.66161.81219a1.10078,1.10078,0,0,0,.3501.8679l.1539-.1786a.832.832,0,0,1-.273-.6684c0-.3744.1749-.574.45839-.574.16811,0,.3325.05251.60551.32881l.9975,1.01849h.17859v-1.71831h-.224Zm-.14.91a.18317.18317,0,0,0,.1891.18539.17675.17675,0,0,0,.1783-.1259l.5076.11911v-.16811l-.483-.1472a.57563.57563,0,0,0-.2029-.049A.18322.18322,0,0,0,172.495,176.194Zm-1.0361,1.3334-.87129-.69281h-.1786v1.57491h.22391v-1.2529l.85069.67889h.18541v-.1749c0-.4552.1924-.66161.48639-.66161.3044,0,.4935.22391.4935.62991a1.07406,1.07406,0,0,1-.28349.75969l.1996.12241a1.27463,1.27463,0,0,0,.3149-.8821c0-.59131-.3149-.889-.7245-.889C171.7634,176.7399,171.487,177.0024,171.45889,177.5274Z" transform="translate(-128.1257 -143.86169)" style="fill:#434242"/><line x1="116.32339" y1="118.34421" x2="116.32339" y2="132.783" style="fill:none;stroke:#b1b2b2;stroke-miterlimit:22.92558479309082;stroke-width:0.2160000056028366px"/><line x1="149.82349" y1="85.3441" x2="149.82349" y2="92.09261" style="fill:none;stroke:#b1b2b2;stroke-miterlimit:22.92558479309082;stroke-width:0.2160000056028366px"/><line x1="27.8232" y1="48.5941" x2="27.8232" y2="63.71631" style="fill:none;stroke:#b1b2b2;stroke-miterlimit:22.92558479309082;stroke-width:0.2160000056028366px"/><line x1="11.8233" y1="110.34401" x2="11.8233" y2="133.44411" style="fill:none;stroke:#b1b2b2;stroke-miterlimit:22.92558479309082;stroke-width:0.2160000056028366px"/><line x1="43.5733" y1="35.84381" x2="43.5733" y2="68.4071" style="fill:none;stroke:#b1b2b2;stroke-miterlimit:22.92558479309082;stroke-width:0.2160000056028366px"/><line x1="116.32339" y1="97.44611" x2="116.32339" y2="108.90511" style="fill:none;stroke:#b1b2b2;stroke-miterlimit:22.92558479309082;stroke-width:0.2160000056028366px"/><line x1="149.82349" y1="69.1566" x2="149.82349" y2="75.905" style="fill:none;stroke:#b1b2b2;stroke-miterlimit:22.92558479309082;stroke-width:0.2160000056028366px"/><line x1="27.8232" y1="5.228" x2="27.8232" y2="39.155" style="fill:none;stroke:#b1b2b2;stroke-miterlimit:22.92558479309082;stroke-width:0.2160000056028366px"/><line x1="11.8233" y1="71.8764" x2="11.8233" y2="100.90491" style="fill:none;stroke:#b1b2b2;stroke-miterlimit:22.92558479309082;stroke-width:0.2160000056028366px"/><line x1="43.5733" y1="6.1572" x2="43.5733" y2="26.40471" style="fill:none;stroke:#b1b2b2;stroke-miterlimit:22.92558479309082;stroke-width:0.2160000056028366px"/><path d="M257.5069,245.8098c-.42691,0-.72119-.3606-.72119-1.01489,0-.65451.29428-1.015.72119-1.015s.72079.3605.72079,1.015c0,.6543-.29388,1.01489-.72079,1.01489m0,.231c.56689,0,.97989-.4655.97989-1.2459,0-.78061-.413-1.24611-.97989-1.24611s-.97659.4655-.97659,1.24611C256.5303,245.5753,256.93991,246.0408,257.5069,246.0408Zm-2.31709-1.21811c-.37781,0-.61591-.2063-.61591-.5284a.53628.53628,0,0,1,.5986-.532c.42349,0,.64751.25571.64751.525A.56708.56708,0,0,1,255.1898,244.82269Zm-.0278-1.2739a.76324.76324,0,0,0-.8365.75261.74168.74168,0,0,0,.8261.73479.78275.78275,0,0,0,.7489-.4198c.0071.07341.0105.1434.0105.19951,0,.665-.3396,1.0043-.868,1.0043a.85875.85875,0,0,1-.47591-.11531l-.10149.20291a1.124,1.124,0,0,0,.5808.133c.665,0,1.12-.434,1.12-1.26711C256.16641,244.0004,255.8129,243.5488,255.162,243.5488Zm-1.3127,2.107a.18318.18318,0,0,0-.18541.1891.17676.17676,0,0,0,.1259.1783l-.11909.50771h.16811l.14719-.483a.57585.57585,0,0,0,.049-.203A.18322.18322,0,0,0,253.8493,245.65579Zm-1.89011.14011.8331-.819a1.0076,1.0076,0,0,0,.4025-.76649c0-.40961-.3149-.66161-.81209-.66161a1.10136,1.10136,0,0,0-.868.3501l.1786.1539a.83225.83225,0,0,1,.6684-.2729c.37451,0,.574.17491.574.45831,0,.16809-.0524.33249-.3288.6055l-1.01851.9975v.1786h1.7184v-.22391Z" transform="translate(-128.1257 -143.86169)" style="fill:#434242"/><path d="M221.4794,153.78949c-.4269,0-.72121-.3606-.72121-1.0148,0-.65448.29431-1.01508.72121-1.01508s.72079.3606.72079,1.01508c0,.65421-.2939,1.0148-.72079,1.0148m0,.231c.56689,0,.9799-.46542.9799-1.24582,0-.7807-.413-1.24609-.9799-1.24609s-.97659.46539-.97659,1.24609C220.50281,153.55508,220.9124,154.02051,221.4794,154.02051Zm-2.3134-1.46631h-.3149l.08389-.7807h1.12v-.22391h-1.3405l-.1259,1.22852h.5213c.623,0,.8192.19589.8192.51108,0,.2973-.22049.50031-.63719.50031a1.06124,1.06124,0,0,1-.7523-.28348l-.1225.19958a1.26443,1.26443,0,0,0,.87849.31491c.5984,0,.8889-.32541.8889-.74182C220.18449,152.84439,219.9044,152.5542,219.166,152.5542Zm-1.1937,1.08139a.18312.18312,0,0,0-.1853.189.17662.17662,0,0,0,.12579.17831l-.119.50769h.16811l.14709-.483a.57535.57535,0,0,0,.049-.203A.1832.1832,0,0,0,217.97231,153.63559Zm-1.52921-1.08139h-.315l.08391-.7807h1.12v-.22391h-1.3405l-.1259,1.22852h.5213c.62309,0,.8192.19589.8192.51108,0,.2973-.2205.50031-.63721.50031a1.06139,1.06139,0,0,1-.75229-.28348l-.1225.19958a1.26443,1.26443,0,0,0,.87849.31491c.5984,0,.8889-.32541.8889-.74182C217.4615,152.84439,217.1815,152.5542,216.4431,152.5542Z" transform="translate(-128.1257 -143.86169)" style="fill:#434242"/><path d="M148.1479,152.80249c-.37781,0-.61591-.20639-.61591-.52838a.53635.53635,0,0,1,.5986-.5321c.42349,0,.64751.25571.64751.525a.56709.56709,0,0,1-.6302.53549m-.02771-1.2739a.76312.76312,0,0,0-.83649.75259.74152.74152,0,0,0,.826.73471.78259.78259,0,0,0,.7489-.4198c.00711.07339.0105.1434.0105.19958,0,.665-.3396,1.0043-.868,1.0043a.85884.85884,0,0,1-.47589-.11539l-.1015.203a1.124,1.124,0,0,0,.5808.1329c.665,0,1.12-.434,1.12-1.26712C149.1245,151.9801,148.771,151.5286,148.12019,151.5286Zm-2.17709.021v.22391h.5775v2.226h.252v-2.44992Zm-.3568,2.086a.18315.18315,0,0,0-.18541.189.17662.17662,0,0,0,.12581.17831l-.119.50769h.16811l.14709-.483a.57322.57322,0,0,0,.049-.203A.18318.18318,0,0,0,145.5863,153.63559Zm-1.6064-2.086v.22391h.57739v2.226h.252v-2.44992Z" transform="translate(-128.1257 -143.86169)" style="fill:#434242"/><path d="M181.9794,273.59979l.69279-.8714v-.17859h-1.57489v.224h1.2529l-.67891.8506v.18539h.17491c.4552,0,.66159.1925.66159.4864,0,.30449-.22389.49359-.62979.49359a1.07416,1.07416,0,0,1-.7597-.28349l-.1225.19949a1.27477,1.27477,0,0,0,.8822.315c.59129,0,.8889-.315.8889-.72459,0-.392-.26251-.66841-.78751-.69641m-2.49561,1.1761.8331-.819a1.00761,1.00761,0,0,0,.40251-.76649c0-.40961-.31491-.66161-.8121-.66161a1.10142,1.10142,0,0,0-.868.35011l.17859.1539a.83242.83242,0,0,1,.66841-.2729c.3745,0,.574.1749.574.4583,0,.16811-.0524.3325-.3288.6055l-1.01849.9975v.1786h1.7184v-.22391Zm-.9099-.14009a.18316.18316,0,0,0-.18539.1891.17667.17667,0,0,0,.1259.1783l-.11911.50769h.16811l.14709-.483a.574.574,0,0,0,.0491-.203A.18321.18321,0,0,0,178.5739,274.6358Zm-.49319-.504h-.4901v-.56691h-.245v.56691h-1.0641l1.2529-1.582h-.2798l-1.29849,1.624v.182h1.38249v.644h.252v-.644h.4901Z" transform="translate(-128.1257 -143.86169)" style="fill:#434242"/><line x1="122.2486" y1="100.9982" x2="100.0916" y2="100.9982" style="fill:none;stroke:#b1b2b2;stroke-miterlimit:22.92558479309082;stroke-width:0.2160000056028366px"/><line x1="86.3175" y1="8.97791" x2="39.3432" y2="8.97791" style="fill:none;stroke:#b1b2b2;stroke-miterlimit:22.92558479309082;stroke-width:0.2160000056028366px"/><line x1="13.8175" y1="8.97791" x2="7.069" y2="8.97791" style="fill:none;stroke:#b1b2b2;stroke-miterlimit:22.92558479309082;stroke-width:0.2160000056028366px"/><line x1="46.56729" y1="129.97821" x2="9.7532" y2="129.97821" style="fill:none;stroke:#b1b2b2;stroke-miterlimit:22.92558479309082;stroke-width:0.2160000056028366px"/><line x1="154.71161" y1="100.9982" x2="131.68768" y2="100.9982" style="fill:none;stroke:#b1b2b2;stroke-miterlimit:22.92558479309082;stroke-width:0.2160000056028366px"/><line x1="148.12781" y1="8.97791" x2="95.75659" y2="8.97791" style="fill:none;stroke:#b1b2b2;stroke-miterlimit:22.92558479309082;stroke-width:0.2160000056028366px"/><line x1="30.005" y1="8.97791" x2="23.25659" y2="8.97791" style="fill:none;stroke:#b1b2b2;stroke-miterlimit:22.92558479309082;stroke-width:0.2160000056028366px"/><line x1="91.25349" y1="129.97821" x2="56.00639" y2="129.97821" style="fill:none;stroke:#b1b2b2;stroke-miterlimit:22.92558479309082;stroke-width:0.2160000056028366px"/></svg>