<svg id="Слой_1" data-name="Слой 1" xmlns="http://www.w3.org/2000/svg" viewBox="0 0 200.28949 163.19991"><title>1.06.02</title><path d="M174.02879,274.09039v2.5433h-6.9599v-2.5433Zm0-4.33609v2.5432h-6.9599v-2.5432Zm-4.068-4.4416v2.5432h-2.89191v-2.5432Zm4.068,0v2.5432H171.1369v-2.5432Zm-9.47989-2.5892H176.5488V283.915H164.5489Z" transform="translate(-112.4538 -130.4332)" style="fill:#003915;fill-rule:evenodd"/><path d="M255.02879,279.9661v2.5432h-6.9599v-2.5432Zm0-4.3362v2.5433h-6.9599v-2.5433Zm-4.068-4.4416v2.5433h-2.89191v-2.5433Zm4.068,0v2.5433H252.1369v-2.5433Zm-8.28-1.13719h9.58141v13.7316h-9.58141Z" transform="translate(-112.4538 -130.4332)" style="fill:#003915;fill-rule:evenodd"/><path d="M223.001,213.13029a.374.374,0,0,1,.37469-.64749l13.92011,8.0399a.374.374,0,1,1-.37471.64749Z" transform="translate(-112.4538 -130.4332)" style="fill:#003915"/><path d="M261.42349,212.94431a.374.374,0,1,0-.37469-.6474l-13.92011,8.03989a.374.374,0,1,0,.37471.6474Z" transform="translate(-112.4538 -130.4332)" style="fill:#003915"/><path d="M276.02139,244.85139a.374.374,0,0,1-.37479.6474l-13.9201-8.0399a.374.374,0,0,1,.37479-.6474Z" transform="translate(-112.4538 -130.4332)" style="fill:#003915"/><path d="M171.37421,165.22531a.374.374,0,0,0-.3748-.6474L157.0793,172.6178a.374.374,0,1,0,.3748.6474Z" transform="translate(-112.4538 -130.4332)" style="fill:#003915"/><path d="M215.4025,272.59889a.374.374,0,0,0,.6474-.37479L208.01,258.304a.374.374,0,1,0-.6474.3748Z" transform="translate(-112.4538 -130.4332)" style="fill:#003915"/><rect x="66.57051" y="28.3558" width="2.60219" height="63.6842" style="fill:#003915"/><rect x="130.4512" y="12.2204" width="2.6022" height="79.81961" style="fill:#003915"/><rect x="165.17279" y="89.43781" width="2.6022" height="25.3344" style="fill:#003915"/><rect x="102.97501" y="113.6851" width="2.6022" height="12.2706" style="fill:#003915"/><rect x="102.97501" y="141.7047" width="2.6022" height="16.8152" style="fill:#003915"/><rect x="132.173" y="115.08" width="2.6022" height="43.4399" style="fill:#003915"/><rect x="66.57051" y="89.43781" width="40.00449" height="2.6022" style="fill:#003915"/><rect x="124.6019" y="89.43781" width="10.43071" height="2.6022" style="fill:#003915"/><rect x="102.97501" y="113.6851" width="44.75989" height="2.6022" style="fill:#003915"/><rect x="163.4437" y="113.6851" width="35.28391" height="2.6022" style="fill:#003915"/><rect x="166.2514" y="110.5914" width="32.4762" height="2.6022" style="fill:#003915"/><rect x="152.78632" y="89.43781" width="14.98868" height="2.6022" style="fill:#003915"/><rect x="61.4928" y="113.6851" width="2.6022" height="18.8652" style="fill:#003915"/><rect width="5" height="157.32001" style="fill:#003915"/><rect x="195.28751" y="9.6377" width="5.00198" height="151.58221" style="fill:#003915"/><rect y="150.96581" width="64.095" height="6.4256" style="fill:#003915"/><rect x="58.0419" y="156.77431" width="18.8932" height="6.4256" style="fill:#003915"/><rect x="97.06" y="156.77431" width="103.22949" height="6.4256" style="fill:#003915"/><rect x="2.2198" y="30.8942" width="27.6608" height="8.16011" style="fill:#003915"/><rect x="58.67061" y="30.8942" width="10.50209" height="8.16011" style="fill:#003915"/><rect x="65.7213" y="5.5199" width="19.13271" height="8.1601" style="fill:#003915"/><rect x="113.6577" y="5.5199" width="34.9055" height="8.1601" style="fill:#003915"/><rect x="177.18939" y="5.5199" width="23.1001" height="8.1601" style="fill:#003915"/><rect x="62.47501" y="113.6851" width="8.1601" height="12.7843" style="fill:#003915"/><rect x="126.6151" y="113.6851" width="8.16011" height="12.7843" style="fill:#003915"/><rect x="61.0126" width="8.1601" height="39.05431" style="fill:#003915"/><rect x="61.0126" width="10.62199" height="13.67999" style="fill:#003915"/><rect x="98.7148" y="8.5217" width="0.5018" height="2.29871" style="fill:#003915"/><rect x="99.9136" y="8.5217" width="0.50121" height="2.29871" style="fill:#003915"/><rect x="112.5507" y="8.5217" width="0.5015" height="2.29871" style="fill:#003915"/><rect x="113.74921" y="8.5217" width="0.50119" height="2.29871" style="fill:#003915"/><rect x="84.6031" y="8.5217" width="0.50169" height="2.29871" style="fill:#003915"/><rect x="85.80161" y="8.5217" width="0.50121" height="2.29871" style="fill:#003915"/><rect x="82.2135" y="5.5199" width="34.0937" height="0.5014" style="fill:#003915"/><rect x="82.2135" y="8.367" width="34.0937" height="0.5014" style="fill:#003915"/><rect x="82.2135" y="10.5383" width="34.0937" height="0.5015" style="fill:#003915"/><rect x="82.2135" y="13.17941" width="34.0937" height="0.5014" style="fill:#003915"/><rect x="162.17322" y="8.5217" width="0.50168" height="2.29871" style="fill:#003915"/><rect x="163.37201" y="8.5217" width="0.5011" height="2.29871" style="fill:#003915"/><rect x="176.00909" y="8.5217" width="0.5014" height="2.29871" style="fill:#003915"/><rect x="177.20761" y="8.5217" width="0.50119" height="2.29871" style="fill:#003915"/><rect x="148.06149" y="8.5217" width="0.50171" height="2.29871" style="fill:#003915"/><rect x="149.26001" y="8.5217" width="0.5011" height="2.29871" style="fill:#003915"/><rect x="145.67191" y="5.5199" width="34.09369" height="0.5014" style="fill:#003915"/><rect x="145.67191" y="8.367" width="34.09369" height="0.5014" style="fill:#003915"/><rect x="145.67191" y="10.5383" width="34.09369" height="0.5015" style="fill:#003915"/><rect x="145.67191" y="13.17941" width="34.09369" height="0.5014" style="fill:#003915"/><path d="M151.996,164.67511V166.345h.697v-1.66989Zm-13.5692,0V166.345h13.0677v-1.66989Zm-1.1982,0V166.345h.697v-1.66989Zm-.50171,1.66989v-1.66989h-5.7895v-.5014H152.693V161.828h-21.7556v-.5015H153.1942v8.161H130.93739V168.986H152.693v-2.13959H134.6411v-.5014Z" transform="translate(-112.4538 -130.4332)" style="fill:#003915;fill-rule:evenodd"/><rect x="22.4816" y="3.84" width="0.44701" height="1.29721" style="fill:#003915"/><rect x="23.5497" y="3.84" width="0.4467" height="1.29721" style="fill:#003915"/><rect x="41.0836" y="3.84" width="0.4471" height="1.29721" style="fill:#003915"/><rect x="42.1517" y="3.84" width="0.44681" height="1.29721" style="fill:#003915"/><rect x="59.686" y="3.84" width="0.44701" height="1.29721" style="fill:#003915"/><rect x="60.7541" y="3.84" width="0.4467" height="1.29721" style="fill:#003915"/><rect x="4.9473" y="3.84" width="0.4467" height="1.29721" style="fill:#003915"/><rect x="2.4463" y="2.61069" width="60.8213" height="0.44672" style="fill:#003915"/><rect x="2.4463" y="3.702" width="60.8213" height="0.44672" style="fill:#003915"/><rect x="2.4463" y="4.78281" width="60.8213" height="0.44681" style="fill:#003915"/><path d="M288.55811,286.9864h-9.8223a.90527.90527,0,0,1-.9054-.904v-4.61029a4.59567,4.59567,0,0,1,4.5896-4.59091h2.4523a4.59566,4.59566,0,0,1,4.59039,4.59091v4.61029a.90479.90479,0,0,1-.9046.904M282.42,277.12579a4.351,4.351,0,0,0-4.34491,4.34631v4.61029a.66135.66135,0,0,0,.66071.6599h9.8223a.66066.66066,0,0,0,.65988-.6599v-4.61029a4.35129,4.35129,0,0,0-4.34567-4.34631Z" transform="translate(-112.4538 -130.4332)" style="fill:#003915"/><path d="M282.42029,278.216a3.25877,3.25877,0,0,0-3.25449,3.2561v2.6881a.56785.56785,0,0,0,.5672.5675h3.57541v.24519H279.733a.814.814,0,0,1-.81241-.8127v-2.6881a3.50406,3.50406,0,0,1,3.49969-3.5007h2.45221a3.50466,3.50466,0,0,1,3.50079,3.5007v2.6881a.81445.81445,0,0,1-.81348.8127h-3.57541v-.24519h3.57541a.56822.56822,0,0,0,.5683-.5675v-2.6881a3.25934,3.25934,0,0,0-3.25562-3.2561Z" transform="translate(-112.4538 -130.4332)" style="fill:#003915"/><path d="M283.64709,281.8197a.7835.7835,0,1,1,.78381-.78351.78482.78482,0,0,1-.78381.78351m0-1.3224a.53875.53875,0,1,0,.53922.53889A.53972.53972,0,0,0,283.64709,280.4973Z" transform="translate(-112.4538 -130.4332)" style="fill:#003915"/><rect x="171.07089" y="150.0451" width="0.2449" height="1.11659" style="fill:#003915"/><rect x="170.63492" y="150.4805" width="1.116" height="0.2455" style="fill:#003915"/><path d="M283.98441,285.804h.40369a.17363.17363,0,0,0,.17291-.174v-.3793a.17362.17362,0,0,0-.17291-.174h-.40369v-.2449h.40369a.41869.41869,0,0,1,.41812.4189v.3793a.41865.41865,0,0,1-.41812.4187h-.40558l.00189-.0374Zm-1.07712-.7273a.17446.17446,0,0,0-.1741.174v.3793a.17447.17447,0,0,0,.1741.174h.40112v.20731l.0022.0374h-.40332a.41864.41864,0,0,1-.4187-.4187v-.3793a.41868.41868,0,0,1,.4187-.4189h.40112v.2449Z" transform="translate(-112.4538 -130.4332)" style="fill:#003915"/><path d="M283.64709,286.4716a.46109.46109,0,0,1-.46118-.4603v-3.08041a.4605.4605,0,0,1,.921,0v3.08041a.46054.46054,0,0,1-.45981.4603m0-3.7567a.21676.21676,0,0,0-.21631.216v3.08041a.21561.21561,0,0,0,.43121,0v-3.08041A.21608.21608,0,0,0,283.64709,282.7149Z" transform="translate(-112.4538 -130.4332)" style="fill:#003915"/><path d="M244.4888,268.1683V258.346a.90528.90528,0,0,0-.904-.9054H238.9745a4.59576,4.59576,0,0,0-4.591,4.5896v2.45221a4.59567,4.59567,0,0,0,4.591,4.59039h4.61029a.90471.90471,0,0,0,.904-.9045m-9.8606-6.13811a4.351,4.351,0,0,1,4.3463-4.345h4.61029a.66145.66145,0,0,1,.65991.6608v9.82231a.66068.66068,0,0,1-.65991.6599H238.9745a4.35138,4.35138,0,0,1-4.3463-4.34579Z" transform="translate(-112.4538 -130.4332)" style="fill:#003915"/><path d="M235.7184,262.0304a3.25868,3.25868,0,0,1,3.2561-3.25439h2.6881a.56785.56785,0,0,1,.5675.5672v3.5753h.24519v-3.5753a.814.814,0,0,0-.8127-.81241h-2.6881a3.50407,3.50407,0,0,0-3.50081,3.4996v2.4523a3.50471,3.50471,0,0,0,3.50081,3.50081h2.6881a.81449.81449,0,0,0,.8127-.8136v-3.5753h-.24519v3.5753a.56829.56829,0,0,1-.5675.56839h-2.6881a3.25933,3.25933,0,0,1-3.2561-3.2556Z" transform="translate(-112.4538 -130.4332)" style="fill:#003915"/><path d="M239.322,263.25729a.78345.78345,0,1,0-.7834.7838.78471.78471,0,0,0,.7834-.7838m-1.32231,0a.5387.5387,0,1,1,.53891.53911A.53971.53971,0,0,1,237.99969,263.25729Z" transform="translate(-112.4538 -130.4332)" style="fill:#003915"/><rect x="125.5269" y="132.7016" width="1.11661" height="0.2449" style="fill:#003915"/><rect x="125.96231" y="132.2657" width="0.2455" height="1.116" style="fill:#003915"/><path d="M243.3064,263.5946v.4037a.17364.17364,0,0,1-.174.1729h-.3793a.17364.17364,0,0,1-.174-.1729v-.4037h-.245v.4037a.41874.41874,0,0,0,.419.41809h.3793a.41869.41869,0,0,0,.4187-.41809v-.4057l-.03751.002Zm-.72729-1.07721a.17438.17438,0,0,1,.174-.174h.3793a.17438.17438,0,0,1,.174.174v.40111h.2072l.03751.0023v-.40341a.41854.41854,0,0,0-.4187-.41859h-.3793a.41859.41859,0,0,0-.419.41859v.40111h.245Z" transform="translate(-112.4538 -130.4332)" style="fill:#003915"/><path d="M243.974,263.25729a.46105.46105,0,0,0-.4604-.4612h-3.0804a.4605.4605,0,0,0,0,.921h3.0804a.46062.46062,0,0,0,.4604-.45981m-3.75681,0a.2167.2167,0,0,1,.216-.21629h3.0804a.21555.21555,0,0,1,0,.43111h-3.0804A.216.216,0,0,1,240.21719,263.25729Z" transform="translate(-112.4538 -130.4332)" style="fill:#003915"/><path d="M262.83969,272.9872a3.9169,3.9169,0,0,0-3.9115,3.9129v5.66541a.67727.67727,0,0,0,.45612.63919,1.2484,1.2484,0,0,0-.20361.20491.94573.94573,0,0,1-.52161-.8441V276.9001a4.18086,4.18086,0,1,1,8.36172,0v5.66541a.94552.94552,0,0,1-.521.8436,1.23794,1.23794,0,0,0-.20328-.2047.67634.67634,0,0,0,.4556-.6389V276.9001a3.91715,3.91715,0,0,0-3.91241-3.9129" transform="translate(-112.4538 -130.4332)" style="fill:#003915"/><path d="M265.6434,281.4846h-5.60892a.2039.2039,0,0,1-.20117-.20151v-4.27069a3.00655,3.00655,0,1,1,6.01309,0v4.27069a.20468.20468,0,0,1-.203.20151m-5.54141-.2681h5.476v-4.2041a2.738,2.738,0,0,0-5.476,0Z" transform="translate(-112.4538 -130.4332)" style="fill:#003915"/><path d="M262.83939,278.75369a1.00815,1.00815,0,1,1,1.00891-1.008,1.01,1.01,0,0,1-1.00891,1.008m0-1.7475a.7394.7394,0,1,0,.73981.7395A.74038.74038,0,0,0,262.83939,277.0062Z" transform="translate(-112.4538 -130.4332)" style="fill:#003915"/><rect x="260.09686" y="279.69563" width="2.24223" height="0.26854" transform="translate(-231.71529 191.52716) rotate(-53.2888)" style="fill:#003915"/><rect x="264.28272" y="278.70817" width="0.26918" height="2.24306" transform="translate(-227.39747 83.77319) rotate(-36.80799)" style="fill:#003915"/><path d="M265.54031,286.9864h-5.4006a1.35509,1.35509,0,0,1-1.35242-1.35381v-1.4743a1.35352,1.35352,0,0,1,1.35242-1.35249h5.4006a1.35319,1.35319,0,0,1,1.35178,1.35249v1.4743a1.35476,1.35476,0,0,1-1.35178,1.35381m-5.4006-3.91211a1.08552,1.08552,0,0,0-1.08432,1.084v1.4743a1.086,1.086,0,0,0,1.08432,1.0851h5.4006a1.086,1.086,0,0,0,1.08359-1.0851v-1.4743a1.08549,1.08549,0,0,0-1.08359-1.084Z" transform="translate(-112.4538 -130.4332)" style="fill:#003915"/><path d="M262.83939,285.58411a.6881.6881,0,1,1,.68832-.68741.6881.6881,0,0,1-.68832.68741m0-1.10721a.41925.41925,0,1,0,.41953.4198A.41943.41943,0,0,0,262.83939,284.4769Z" transform="translate(-112.4538 -130.4332)" style="fill:#003915"/><path d="M232.0855,272.9872a3.91689,3.91689,0,0,0-3.9115,3.9129v5.66541a.6773.6773,0,0,0,.456.63919,1.24357,1.24357,0,0,0-.20351.20491.94568.94568,0,0,1-.52159-.8441V276.9001a4.18085,4.18085,0,1,1,8.36169,0v5.66541a.94552.94552,0,0,1-.521.8436,1.24169,1.24169,0,0,0-.20331-.2047.67634.67634,0,0,0,.4556-.6389V276.9001a3.91714,3.91714,0,0,0-3.9124-3.9129" transform="translate(-112.4538 -130.4332)" style="fill:#003915"/><path d="M234.88921,281.4846h-5.6089a.20391.20391,0,0,1-.2012-.20151v-4.27069a3.00655,3.00655,0,1,1,6.01309,0v4.27069a.20467.20467,0,0,1-.203.20151m-5.54141-.2681h5.47591v-4.2041a2.738,2.738,0,0,0-5.47591,0Z" transform="translate(-112.4538 -130.4332)" style="fill:#003915"/><path d="M232.08521,278.75369a1.00815,1.00815,0,1,1,1.00879-1.008,1.01,1.01,0,0,1-1.00879,1.008m0-1.7475a.7394.7394,0,1,0,.73979.7395A.74038.74038,0,0,0,232.08521,277.0062Z" transform="translate(-112.4538 -130.4332)" style="fill:#003915"/><rect x="229.34266" y="279.69563" width="2.24223" height="0.26854" transform="matrix(0.59781, -0.80164, 0.80164, 0.59781, -244.08578, 166.8605)" style="fill:#003915"/><rect x="233.5285" y="278.70817" width="0.26919" height="2.24306" transform="translate(-233.52839 65.34726) rotate(-36.80799)" style="fill:#003915"/><path d="M234.786,286.9864h-5.4005a1.35509,1.35509,0,0,1-1.3524-1.35381v-1.4743a1.35352,1.35352,0,0,1,1.3524-1.35249h5.4005a1.35321,1.35321,0,0,1,1.3519,1.35249v1.4743a1.35479,1.35479,0,0,1-1.3519,1.35381m-5.4005-3.91211a1.08552,1.08552,0,0,0-1.0843,1.084v1.4743a1.086,1.086,0,0,0,1.0843,1.0851h5.4005a1.086,1.086,0,0,0,1.08371-1.0851v-1.4743a1.08552,1.08552,0,0,0-1.08371-1.084Z" transform="translate(-112.4538 -130.4332)" style="fill:#003915"/><path d="M232.08521,285.58411a.6881.6881,0,1,1,.6882-.68741.68809.68809,0,0,1-.6882.68741m0-1.10721a.41925.41925,0,1,0,.41949.4198A.41944.41944,0,0,0,232.08521,284.4769Z" transform="translate(-112.4538 -130.4332)" style="fill:#003915"/><path d="M255.67171,247.421H247.8322v11.3479h7.83951Zm-8.17081-.33081h8.50249V259.1H247.5009Z" transform="translate(-112.4538 -130.4332)" style="fill:#003915"/><path d="M255.89619,249.8154a.60439.60439,0,0,1,.61259.5936v5.37221a.604.604,0,0,1-.61259.5938v-.3308a.26967.26967,0,0,0,.2809-.263V250.409a.26951.26951,0,0,0-.2809-.2628Z" transform="translate(-112.4538 -130.4332)" style="fill:#003915"/><path d="M253.26961,252.0732H250.562l-.62169,1.59731a2.47455,2.47455,0,0,0,1.67479-.0918,4.1514,4.1514,0,0,1,1.24071-.2413,2.44723,2.44723,0,0,1,.93649.18829Zm-2.93411-.3308h3.1669l.892,2.48-.39059-.22479a2.26674,2.26674,0,0,0-1.148-.32941,3.8903,3.8903,0,0,0-1.1438.22681,3.89724,3.89724,0,0,1-1.1441.2282,2.01728,2.01728,0,0,1-.9124-.218l-.1358-.0674Z" transform="translate(-112.4538 -130.4332)" style="fill:#003915"/><path d="M292.59241,284.83521v-30.085a2.161,2.161,0,0,1,2.16568-2.1515H305.1694a2.16088,2.16088,0,0,1,2.166,2.1515v30.085a2.16082,2.16082,0,0,1-2.166,2.1512H294.75809a2.161,2.161,0,0,1-2.16568-2.1512m14.51309-30.085a1.9311,1.9311,0,0,0-1.9361-1.92191H294.75809a1.931,1.931,0,0,0-1.93549,1.92191v30.085a1.93132,1.93132,0,0,0,1.93549,1.92209H305.1694a1.93145,1.93145,0,0,0,1.9361-1.92209Z" transform="translate(-112.4538 -130.4332)" style="fill:#003915"/><path d="M305.84351,257.736a2.57706,2.57706,0,0,0-2.58209-2.5654H296.6666a2.57658,2.57658,0,0,0-2.5817,2.5654v24.1132a2.577,2.577,0,0,0,2.5817,2.5659h2.062a.39548.39548,0,0,0-.142.2282h-1.92a2.80639,2.80639,0,0,1-2.8125-2.7941V257.736a2.80658,2.80658,0,0,1,2.8125-2.79439h6.59482a2.80651,2.80651,0,0,1,2.81229,2.79439v24.1132a2.80632,2.80632,0,0,1-2.81229,2.7941h-1.92011a.39538.39538,0,0,0-.14151-.2282h2.06162a2.57749,2.57749,0,0,0,2.58209-2.5659Z" transform="translate(-112.4538 -130.4332)" style="fill:#003915"/><path d="M304.53021,259.2834a1.2666,1.2666,0,0,0-1.2688-1.26111H296.6666a1.26633,1.26633,0,0,0-1.26819,1.26111v22.5658a1.26626,1.26626,0,0,0,1.26819,1.2614h2.84491v.2287H296.6666a1.49617,1.49617,0,0,1-1.4989-1.4901V259.2834a1.49562,1.49562,0,0,1,1.4989-1.4893h6.59482a1.49527,1.49527,0,0,1,1.499,1.4893v22.5658a1.49581,1.49581,0,0,1-1.499,1.4901h-2.84512v-.2287h2.84512a1.26653,1.26653,0,0,0,1.2688-1.2614Z" transform="translate(-112.4538 -130.4332)" style="fill:#003915"/><path d="M299.23111,279.944a.73336.73336,0,1,1,.7337.7299.73152.73152,0,0,1-.7337-.7299m1.23648,0a.5033.5033,0,1,0-.50278.50031A.50189.50189,0,0,0,300.46759,279.944Z" transform="translate(-112.4538 -130.4332)" style="fill:#003915"/><rect x="186.9877" y="149.39661" width="1.04572" height="0.22929" style="fill:#003915"/><rect x="187.3956" y="148.99231" width="0.23071" height="1.0378" style="fill:#003915"/><path d="M299.51151,284.444H298.974a.27989.27989,0,0,0-.2803.27859v.5052a.28042.28042,0,0,0,.2803.27921h.53751v.2287H298.974a.5103.5103,0,0,1-.511-.5079v-.5052a.50968.50968,0,0,1,.511-.5074h.53751Zm1.722.27859a.27975.27975,0,0,0-.28-.27859h-.5372v-.22881h.5372a.50933.50933,0,0,1,.5108.5074v.5052a.50994.50994,0,0,1-.5108.5079h-.5372v-.2287h.5372a.28027.28027,0,0,0,.28-.27921Z" transform="translate(-112.4538 -130.4332)" style="fill:#003915"/><path d="M299.39609,285.7338v-3.2012a.56767.56767,0,0,1,1.13531,0v3.2012a.56767.56767,0,0,1-1.13531,0m.90512-3.2012a.33716.33716,0,0,0-.67432,0v3.2012a.33717.33717,0,0,0,.67432,0Z" transform="translate(-112.4538 -130.4332)" style="fill:#003915"/><path d="M156.7505,269.2713H144.9814v11.7688h11.7691Zm-11.5197.2494h11.2706v11.2706H145.2308Z" transform="translate(-112.4538 -130.4332)" style="fill:#003915"/><path d="M150.8661,279.942a3.91958,3.91958,0,0,1-.9817-7.7142.29994.29994,0,0,1-.0742-.1976v-.0405a4.16847,4.16847,0,1,0,2.11151-.00031v.0408a.29837.29837,0,0,1-.074.1973,3.91975,3.91975,0,0,1-.9816,7.71451" transform="translate(-112.4538 -130.4332)" style="fill:#003915"/><path d="M150.8661,272.54131a3.4815,3.4815,0,1,0,3.4812,3.4818,3.4857,3.4857,0,0,0-3.4812-3.4818m0,6.71359a3.23195,3.23195,0,1,1,3.2318-3.2318A3.23549,3.23549,0,0,1,150.8661,279.2549Z" transform="translate(-112.4538 -130.4332)" style="fill:#003915"/><path d="M150.8661,275.12061a.90224.90224,0,1,0,.9025.9025.90334.90334,0,0,0-.9025-.9025m0,1.55559a.65295.65295,0,1,1,.65309-.65309A.65424.65424,0,0,1,150.8661,276.67619Z" transform="translate(-112.4538 -130.4332)" style="fill:#003915"/><rect x="38.2876" y="144.9326" width="0.2494" height="1.3138" style="fill:#003915"/><rect x="37.75551" y="145.4646" width="1.3136" height="0.24971" style="fill:#003915"/><path d="M151.6198,271.2164H150.1123a.42706.42706,0,0,0-.42661.42661v.38719a.42687.42687,0,0,0,.42661.42661h1.50749a.42681.42681,0,0,0,.42661-.42661V271.643a.427.427,0,0,0-.42661-.42661m-1.50749.991a.17771.17771,0,0,1-.1774-.1772V271.643a.17751.17751,0,0,1,.1774-.1772h1.50749a.17727.17727,0,0,1,.1772.1772v.38719a.17747.17747,0,0,1-.1772.1772Z" transform="translate(-112.4538 -130.4332)" style="fill:#003915"/><path d="M150.6461,271.3411v-.0864a.2197.2197,0,1,1,.43939,0v.0864h.24971v-.0864a.46941.46941,0,0,0-.93881,0v.0864Zm.22,2.59a.2205.2205,0,0,1-.22-.2205v-1.37851h-.24971v1.37851a.46941.46941,0,1,0,.93881,0v-1.37851h-.24971v1.37851A.22.22,0,0,1,150.8661,273.93111Z" transform="translate(-112.4538 -130.4332)" style="fill:#003915"/><path d="M128.08569,269.75259h7.15671a1.49612,1.49612,0,0,1,1.49409,1.49471V279.546a1.49592,1.49592,0,0,1-1.49409,1.49409h-7.15671a1.49553,1.49553,0,0,1-1.49409-1.49409V271.2473a1.49573,1.49573,0,0,1,1.49409-1.49471m7.15671,11.0545a1.26261,1.26261,0,0,0,1.26109-1.26109V271.2473a1.26275,1.26275,0,0,0-1.26109-1.2617h-7.15671a1.26308,1.26308,0,0,0-1.2617,1.2617V279.546a1.26294,1.26294,0,0,0,1.2617,1.26109Z" transform="translate(-112.4538 -130.4332)" style="fill:#003915"/><path d="M128.08569,270.5715h7.15671a.67621.67621,0,0,1,.6757.6758v7.0106a.67634.67634,0,0,1-.6757.6758h-7.15671a.67646.67646,0,0,1-.67629-.6758v-7.0106a.67633.67633,0,0,1,.67629-.6758m7.15671,8.1292a.44322.44322,0,0,0,.443-.44279v-7.0106a.44354.44354,0,0,0-.443-.4431h-7.15671a.44394.44394,0,0,0-.44389.4431v7.0106a.44362.44362,0,0,0,.44389.44279Z" transform="translate(-112.4538 -130.4332)" style="fill:#003915"/><path d="M134.54221,279.3524a.47425.47425,0,1,1-.47421.4742.47508.47508,0,0,1,.47421-.4742m0,.7155a.24125.24125,0,1,0-.2415-.2413A.24194.24194,0,0,0,134.54221,280.0679Z" transform="translate(-112.4538 -130.4332)" style="fill:#003915"/><path d="M132.9415,279.3524a.47425.47425,0,1,1-.47479.4742.475.475,0,0,1,.47479-.4742m0,.7155a.24125.24125,0,1,0-.24179-.2413A.24162.24162,0,0,0,132.9415,280.0679Z" transform="translate(-112.4538 -130.4332)" style="fill:#003915"/><rect x="19.8156" y="142.2807" width="2.71951" height="0.2328" style="fill:#003915"/><rect x="21.0589" y="141.03661" width="0.23271" height="2.71959" style="fill:#003915"/><path d="M133.6292,271.9333a.89685.89685,0,1,1-.89659.8969.8979.8979,0,0,1,.89659-.8969m0,1.561a.6643.6643,0,1,0-.66389-.66409A.66554.66554,0,0,0,133.6292,273.49429Z" transform="translate(-112.4538 -130.4332)" style="fill:#003915"/><rect x="19.8156" y="146.1259" width="2.71951" height="0.2325" style="fill:#003915"/><rect x="21.0589" y="144.8815" width="0.23271" height="2.7204" style="fill:#003915"/><path d="M133.6292,275.7776a.8972.8972,0,1,1-.89659.89749.8986.8986,0,0,1,.89659-.89749m0,1.56189a.6647.6647,0,1,0-.66389-.6644A.6654.6654,0,0,0,133.6292,277.33949Z" transform="translate(-112.4538 -130.4332)" style="fill:#003915"/><rect x="15.8851" y="142.2807" width="2.71921" height="0.2328" style="fill:#003915"/><rect x="17.12781" y="141.03661" width="0.233" height="2.71959" style="fill:#003915"/><path d="M129.6981,271.9333a.89685.89685,0,1,1-.89691.8969.89776.89776,0,0,1,.89691-.8969m0,1.561a.6643.6643,0,1,0-.66391-.66409A.666.666,0,0,0,129.6981,273.49429Z" transform="translate(-112.4538 -130.4332)" style="fill:#003915"/><rect x="15.8851" y="146.1259" width="2.71921" height="0.2325" style="fill:#003915"/><rect x="17.12781" y="144.8815" width="0.233" height="2.7204" style="fill:#003915"/><path d="M129.6981,275.7776a.8972.8972,0,1,1-.89691.89749.89847.89847,0,0,1,.89691-.89749m0,1.56189a.6647.6647,0,1,0-.66391-.6644A.66591.66591,0,0,0,129.6981,277.33949Z" transform="translate(-112.4538 -130.4332)" style="fill:#003915"/><path d="M130.22791,279.3524a.47425.47425,0,1,1-.4745.4742.47482.47482,0,0,1,.4745-.4742m0,.7155a.24125.24125,0,1,0-.24181-.2413A.24169.24169,0,0,0,130.22791,280.0679Z" transform="translate(-112.4538 -130.4332)" style="fill:#003915"/><path d="M128.6263,279.3524a.47425.47425,0,1,1-.474.4742.47464.47464,0,0,1,.474-.4742m0,.7155a.24125.24125,0,1,0-.2415-.2413A.24168.24168,0,0,0,128.6263,280.0679Z" transform="translate(-112.4538 -130.4332)" style="fill:#003915"/><path d="M249.842,284.94431a.80923.80923,0,1,0,.23471.57089.81019.81019,0,0,0-.23471-.57089m-.5726-1.0363a1.60705,1.60705,0,1,1-1.1364.47049A1.6027,1.6027,0,0,1,249.26939,283.908Z" transform="translate(-112.4538 -130.4332)" style="fill:#003915"/><path d="M199.4142,287.3214l.3781,1.3147.37851,1.3148h-.57771v2.17841H199.209V289.9509h-.55161l.37811-1.3148Zm3.90759,2.40381a3.90784,3.90784,0,1,0-3.90759,3.9079A3.9081,3.9081,0,0,0,203.32179,289.7252Z" transform="translate(-112.4538 -130.4332)" style="fill:#558e42;fill-rule:evenodd"/><path d="M230.7061,265.9698c-.7319,0-1.2359-.618-1.2359-1.74s.504-1.7399,1.2359-1.7399,1.2359.618,1.2359,1.7399-.504,1.74-1.2359,1.74m0,.396c.972,0,1.6799-.798,1.6799-2.136s-.7079-2.13589-1.6799-2.13589-1.6738.798-1.6738,2.13589S229.7341,266.3658,230.7061,266.3658Zm-3.62379-.366c-.72591,0-1.11-.438-1.11-.9a.97207.97207,0,0,1,1.08-.91789c.648,0,1.05589.35381,1.05589.906A.91884.91884,0,0,1,227.08231,265.9998Zm.036-2.1841a1.34272,1.34272,0,0,0-1.2841.72c-.0119-.1259-.01779-.2458-.01779-.3419,0-1.14.58189-1.722,1.4879-1.722a1.47055,1.47055,0,0,1,.8158.1981l.174-.34811a1.92813,1.92813,0,0,0-.9958-.22789c-1.14009,0-1.91989.7439-1.91989,2.17189,0,1.32611.6058,2.1,1.7218,2.1a1.30851,1.30851,0,0,0,1.434-1.2901A1.2716,1.2716,0,0,0,227.1183,263.8157Zm-2.6158,1.89009a.31407.31407,0,0,0-.318.324.303.303,0,0,0,.216.30589l-.2041.87h.288l.252-.828a.97684.97684,0,0,0,.0842-.3479A.314.314,0,0,0,224.5025,265.7058Zm-3.24.2399,1.4281-1.40379a1.72889,1.72889,0,0,0,.69-1.3141c0-.7019-.54-1.1339-1.39211-1.1339a1.887,1.887,0,0,0-1.4879.5999l.3058.2641a1.4265,1.4265,0,0,1,1.1461-.468c.642,0,.9839.2999.9839.7861,0,.2877-.0899.56979-.5638,1.0378l-1.7462,1.7101v.30591h2.94609v-.38411Z" transform="translate(-112.4538 -130.4332)" style="fill:#6e6e6e;fill-rule:evenodd"/><path d="M279.8342,265.9698c-.7319,0-1.2359-.618-1.2359-1.74s.504-1.7399,1.2359-1.7399,1.2359.618,1.2359,1.7399-.504,1.74-1.2359,1.74m0,.396c.972,0,1.67981-.798,1.67981-2.136s-.70779-2.13589-1.67981-2.13589-1.6738.798-1.6738,2.13589S278.86221,266.3658,279.8342,266.3658Zm-3.62381-.366c-.72589,0-1.11-.438-1.11-.9a.97207.97207,0,0,1,1.08-.91789c.648,0,1.05591.35381,1.05591.906A.91885.91885,0,0,1,276.21039,265.9998Zm.036-2.1841a1.34266,1.34266,0,0,0-1.28409.72c-.0119-.1259-.01782-.2458-.01782-.3419,0-1.14.58191-1.722,1.48792-1.722a1.47052,1.47052,0,0,1,.8158.1981l.174-.34811a1.92823,1.92823,0,0,0-.99582-.22789c-1.14011,0-1.91989.7439-1.91989,2.17189,0,1.32611.6058,2.1,1.7218,2.1a1.30851,1.30851,0,0,0,1.434-1.2901A1.2716,1.2716,0,0,0,276.2464,263.8157Zm-2.61578,1.89009a.31407.31407,0,0,0-.318.324.303.303,0,0,0,.216.30589l-.2041.87h.288l.252-.828a.97684.97684,0,0,0,.0842-.3479A.314.314,0,0,0,273.63062,265.7058Zm-2.622-1.8541h-.54l.144-1.33791h1.91989v-.3839h-2.29779l-.216,2.1059h.8941c1.06778,0,1.40369.33591,1.40369.8759,0,.51-.3779.85811-1.09189.85811a1.82143,1.82143,0,0,1-1.2901-.4859l-.20972.3419a2.16859,2.16859,0,0,0,1.50571.54c1.02621,0,1.5239-.55791,1.5239-1.272C272.75439,264.34979,272.27451,263.8517,271.00861,263.8517Z" transform="translate(-112.4538 -130.4332)" style="fill:#6e6e6e;fill-rule:evenodd"/><path d="M281.24481,188.26981c-.7319,0-1.2359-.6179-1.2359-1.73991s.504-1.7399,1.2359-1.7399,1.2359.618,1.2359,1.7399-.504,1.73991-1.2359,1.73991m0,.396c.972,0,1.67978-.7979,1.67978-2.13591s-.70779-2.13589-1.67978-2.13589-1.67392.798-1.67392,2.13589S280.2728,188.6658,281.24481,188.6658Zm-4.5-.42,1.4281-1.40381a1.729,1.729,0,0,0,.68988-1.3141c0-.70189-.54-1.1339-1.39209-1.1339a1.88744,1.88744,0,0,0-1.48791.59981l.30591.26419a1.42632,1.42632,0,0,1,1.146-.468c.64212,0,.98392.29991.98392.7861,0,.2877-.08981.5697-.56381,1.0377L276.1087,188.324v.3058h2.946v-.384Zm-1.55991-.2399a.31415.31415,0,0,0-.31812.324.30326.30326,0,0,0,.216.30591l-.2041.87h.288l.252-.828a.9767.9767,0,0,0,.0842-.3479A.314.314,0,0,0,275.18491,188.00591ZM272.89871,186.23l1.188-1.49409V184.43h-2.7v.3838h2.1481l-1.16388,1.45821v.318h.2999c.77979,0,1.13388.33,1.13388.834,0,.5218-.38379.84581-1.08.84581a1.84129,1.84129,0,0,1-1.302-.48581l-.21.3418a2.18447,2.18447,0,0,0,1.512.54c1.01389,0,1.5239-.54,1.5239-1.24181C274.2486,186.75189,273.79871,186.27789,272.89871,186.23Zm-3.852-1.8v.3838h.9902v3.816h.432V184.43Z" transform="translate(-112.4538 -130.4332)" style="fill:#6e6e6e;fill-rule:evenodd"/><path d="M215.67,188.26981c-.7319,0-1.2359-.6179-1.2359-1.73991s.504-1.7399,1.2359-1.7399,1.236.618,1.236,1.7399-.504,1.73991-1.236,1.73991m0,.396c.972,0,1.6799-.7979,1.6799-2.13591s-.7079-2.13589-1.6799-2.13589-1.6738.798-1.6738,2.13589S214.698,188.6658,215.67,188.6658Zm-3.62379-.36591c-.72591,0-1.11-.438-1.11-.9a.97208.97208,0,0,1,1.08-.91791c.648,0,1.05589.35381,1.05589.906A.91889.91889,0,0,1,212.0462,188.2999Zm.036-2.1841a1.34272,1.34272,0,0,0-1.2841.72c-.0119-.1259-.01779-.2458-.01779-.3419,0-1.14009.58189-1.722,1.4879-1.722a1.47064,1.47064,0,0,1,.8158.1981l.174-.3481a1.92793,1.92793,0,0,0-.99579-.22791c-1.14011,0-1.91991.7438-1.91991,2.17191,0,1.3261.6058,2.0999,1.7218,2.0999a1.30849,1.30849,0,0,0,1.434-1.29A1.2716,1.2716,0,0,0,212.0822,186.1158Zm-2.6158,1.89011a.31405.31405,0,0,0-.318.324.30315.30315,0,0,0,.216.30591l-.2041.87h.288l.252-.828a.97637.97637,0,0,0,.0842-.3479A.314.314,0,0,0,209.4664,188.00591ZM206.7123,184.43v.3838h.9901v3.816h.432V184.43Zm-2.166,0v.3838h.9902v3.816h.432V184.43Z" transform="translate(-112.4538 -130.4332)" style="fill:#6e6e6e;fill-rule:evenodd"/><path d="M202.12241,275.2699c-.7319,0-1.2359-.6179-1.2359-1.7399s.504-1.7399,1.2359-1.7399,1.2359.618,1.2359,1.7399-.504,1.7399-1.2359,1.7399m0,.396c.972,0,1.67979-.7979,1.67979-2.13589s-.70779-2.13589-1.67979-2.13589-1.67381.798-1.67381,2.13589S201.15041,275.66589,202.12241,275.66589ZM198.2166,275.3c-.74409,0-1.1821-.324-1.1821-.84621,0-.5159.438-.83989,1.1821-.83989.7438,0,1.188.324,1.188.83989C199.4046,274.976,198.9604,275.3,198.2166,275.3Zm-1.0381-2.78391c0-.468.402-.756,1.0381-.756.62981,0,1.044.288,1.044.7619,0,.4561-.39011.75009-1.044.75009S197.1785,272.9781,197.1785,272.5161Zm1.8479.9119a.95115.95115,0,0,0,.6721-.9238c0-.684-.5941-1.11009-1.4819-1.11009-.88809,0-1.47009.4261-1.47009,1.11009a.94785.94785,0,0,0,.6599.9238,1.04822,1.04822,0,0,0-.8098,1.0321c0,.7438.612,1.2058,1.62,1.2058,1.002,0,1.6319-.462,1.6319-1.2058A1.05764,1.05764,0,0,0,199.0264,273.428Zm-3.40779,1.578a.31407.31407,0,0,0-.318.324.30311.30311,0,0,0,.216.30589l-.2041.8699h.288l.252-.828a.97565.97565,0,0,0,.08421-.34779A.314.314,0,0,0,195.61861,275.006Zm-2.2861-1.77589,1.188-1.49411v-.30589h-2.7v.3838h2.1481l-1.16389,1.45819v.318h.2999c.7798,0,1.1338.33,1.1338.834,0,.52179-.3838.84579-1.08.84579a1.84145,1.84145,0,0,1-1.3019-.48579l-.21011.3418a2.18469,2.18469,0,0,0,1.512.54c1.014,0,1.5239-.54,1.5239-1.24179C194.6823,273.752,194.2325,273.278,193.3325,273.2301Z" transform="translate(-112.4538 -130.4332)" style="fill:#6e6e6e;fill-rule:evenodd"/><path d="M248.02921,234.6208c-.7319,0-1.2359-.6179-1.2359-1.7399s.504-1.7399,1.2359-1.7399,1.2359.618,1.2359,1.7399-.504,1.7399-1.2359,1.7399m0,.396c.972,0,1.67979-.7979,1.67979-2.13589s-.70779-2.13591-1.67979-2.13591-1.67381.798-1.67381,2.13591S247.05721,235.0168,248.02921,235.0168Zm-3.63-2.43581,1.188-1.49409V230.781h-2.7v.38379h2.14809L243.8714,232.623v.318h.2999c.7798,0,1.1338.33,1.1338.834,0,.5218-.3838.84581-1.08.84581a1.84139,1.84139,0,0,1-1.3019-.48581l-.2101.34181a2.1847,2.1847,0,0,0,1.512.54c1.014,0,1.5239-.54,1.5239-1.24181C245.749,233.10291,245.29919,232.62891,244.3992,232.581Zm-2.4299,1.77591a.31405.31405,0,0,0-.318.324.30313.30313,0,0,0,.216.30591l-.2041.8699h.288l.252-.828a.97556.97556,0,0,0,.0842-.34781A.314.314,0,0,0,241.9693,234.3569Zm-2.2861-1.77591,1.188-1.49409V230.781h-2.7v.38379h2.1481L239.1554,232.623v.318h.29991c.7798,0,1.13379.33,1.13379.834,0,.5218-.38379.84581-1.08.84581a1.84139,1.84139,0,0,1-1.3019-.48581l-.2101.34181a2.18472,2.18472,0,0,0,1.512.54c1.014,0,1.52391-.54,1.52391-1.24181C241.033,233.10291,240.58321,232.62891,239.6832,232.581Z" transform="translate(-112.4538 -130.4332)" style="fill:#6e6e6e;fill-rule:evenodd"/><path d="M152.3999,258.76981c-.7319,0-1.2359-.618-1.2359-1.74s.504-1.7399,1.2359-1.7399,1.2359.618,1.2359,1.7399-.504,1.74-1.2359,1.74m0,.396c.972,0,1.67979-.798,1.67979-2.136s-.70779-2.13589-1.67979-2.13589-1.6739.798-1.6739,2.13589S151.4279,259.1658,152.3999,259.1658Zm-3.9659-2.5141h-.54l.144-1.33791h1.91991v-.3839H147.6601l-.216,2.1059h.894c1.0679,0,1.40379.33591,1.40379.8759,0,.51-.3779.85811-1.0919.85811a1.8213,1.8213,0,0,1-1.2901-.4859l-.20979.34189a2.1686,2.1686,0,0,0,1.5058.54c1.02611,0,1.5239-.55791,1.5239-1.272C150.17979,257.1498,149.69991,256.6517,148.434,256.6517Zm-2.04581,1.8541a.31415.31415,0,0,0-.3181.324.30315.30315,0,0,0,.216.30589l-.2041.87h.288l.252-.828a.9766.9766,0,0,0,.08421-.3479A.314.314,0,0,0,146.3882,258.5058Zm-2.6221.294c-.74409,0-1.182-.324-1.182-.8461,0-.5159.4379-.8399,1.182-.8399.7439,0,1.188.324,1.188.8399C144.9541,258.4758,144.51,258.7998,143.7661,258.7998Zm-1.038-2.78391c0-.468.4019-.756,1.038-.756.6299,0,1.044.288,1.044.7619,0,.4561-.39.75009-1.044.75009S142.7281,256.47791,142.7281,256.0159Zm1.8479.9119a.95116.95116,0,0,0,.67209-.9238c0-.684-.59409-1.11009-1.482-1.11009-.88809,0-1.47.42609-1.47,1.11009a.94774.94774,0,0,0,.6599.9238,1.04821,1.04821,0,0,0-.80989,1.0321c0,.7438.612,1.2059,1.62,1.2059,1.00211,0,1.6319-.4621,1.6319-1.2059A1.05754,1.05754,0,0,0,144.576,256.9278Zm-4.83-1.99789v.3839h.9902v3.816h.432V254.9299Z" transform="translate(-112.4538 -130.4332)" style="fill:#6e6e6e;fill-rule:evenodd"/><path d="M146.7578,150.76981c-.7319,0-1.2359-.618-1.2359-1.74s.504-1.7399,1.2359-1.7399,1.2359.618,1.2359,1.7399-.504,1.74-1.2359,1.74m0,.396c.972,0,1.67981-.798,1.67981-2.136s-.70781-2.13589-1.67981-2.13589-1.6738.798-1.6738,2.13589S145.7858,151.1658,146.7578,151.1658Zm-4.5-.42011,1.4281-1.40381a1.72885,1.72885,0,0,0,.69-1.31409c0-.7019-.54-1.13391-1.39211-1.13391a1.887,1.887,0,0,0-1.4879.59991l.3058.2641a1.42655,1.42655,0,0,1,1.1461-.468c.642,0,.9839.29993.9839.7861,0,.28772-.0899.56982-.5638,1.03781l-1.7462,1.71011v.30588h2.94609v-.38409Zm-1.55989-.2399a.31406.31406,0,0,0-.318.324.30305.30305,0,0,0,.216.30591l-.2041.87h.288l.252-.828a.97667.97667,0,0,0,.08421-.3479A.31405.31405,0,0,0,140.69791,150.5058Zm-2.2861-1.77591,1.188-1.49408v-.30591h-2.7v.38391h2.1481l-1.16389,1.4581v.318h.2999c.7798,0,1.1338.33,1.1338.834,0,.52191-.3838.84592-1.08.84592a1.841,1.841,0,0,1-1.3019-.4859l-.21011.34189a2.1852,2.1852,0,0,0,1.512.54c1.014,0,1.5239-.54,1.5239-1.24191C139.7616,149.2518,139.3118,148.7778,138.4118,148.72989Z" transform="translate(-112.4538 -130.4332)" style="fill:#6e6e6e;fill-rule:evenodd"/><path d="M146.8528,140.11691l.69279-.8714v-.17862h-1.575v.224h1.253l-.67891.85062v.18539h.17491c.4552,0,.66159.1925.66159.48639,0,.3045-.224.49359-.6299.49359a1.07437,1.07437,0,0,1-.7597-.28348l-.12239.19949a1.27429,1.27429,0,0,0,.8821.315c.59131,0,.889-.315.889-.72461,0-.392-.2625-.6684-.78751-.69638m-2.1351,1.20749c-.434,0-.68939-.189-.68939-.4935,0-.301.2554-.49011.68939-.49011s.6931.18912.6931.49011C145.4108,141.13541,145.1517,141.3244,144.7177,141.3244Zm-.60539-1.6239c0-.273.2347-.4411.60539-.4411.36771,0,.60921.16809.60921.44449,0,.26611-.2276.43762-.60921.43762C144.3365,140.14151,144.1123,139.97,144.1123,139.7005Zm1.078.532a.5549.5549,0,0,0,.392-.53912c0-.3989-.34641-.64749-.86461-.64749-.5179,0-.85739.2486-.85739.64749a.55292.55292,0,0,0,.38519.53912.61107.61107,0,0,0-.4726.60178c0,.434.3569.70361.94479.70361.5845,0,.95221-.26959.95221-.70361A.61685.61685,0,0,0,145.19031,140.23251Zm-1.988.92038a.18317.18317,0,0,0-.18539.18912.17673.17673,0,0,0,.1259.17828l-.11911.50769h.16811l.1472-.483a.57631.57631,0,0,0,.049-.203A.18321.18321,0,0,0,143.2023,141.15289Zm-1.89011.14011.8331-.819a1.00763,1.00763,0,0,0,.40251-.76651c0-.40958-.31491-.66159-.8121-.66159a1.10128,1.10128,0,0,0-.868.3501l.17859.1539a.83227.83227,0,0,1,.66841-.27289c.3745,0,.574.1749.574.45828,0,.16812-.0524.33252-.3288.6055l-1.01849.9975v.17862h1.7184V141.293Z" transform="translate(-112.4538 -130.4332)" style="fill:#434242"/><path d="M213.802,149.5744c-.434,0-.68941-.18912-.68941-.4935,0-.30112.2554-.49011.68941-.49011s.6931.189.6931.49011c0,.30438-.25911.4935-.6931.4935m-.6055-1.624c0-.273.2347-.4411.6055-.4411.36769,0,.60919.16809.60919.44449,0,.2662-.2276.43771-.60919.43771C213.42081,148.39151,213.1965,148.22,213.1965,147.95041Zm1.07809.5321a.555.555,0,0,0,.392-.53922c0-.3988-.34639-.6474-.86459-.6474-.5179,0-.8575.2486-.8575.6474a.55313.55313,0,0,0,.3853.53922.6109.6109,0,0,0-.47261.60178c0,.434.3569.70352.94481.70352.5845,0,.95219-.2695.95219-.70352A.61683.61683,0,0,0,214.2746,148.48251Zm-2.744,1.07428c-.4269,0-.7211-.3606-.7211-1.0148,0-.65448.2942-1.01511.7211-1.01511s.7209.36063.7209,1.01511C212.2515,149.1962,211.9575,149.55679,211.53059,149.55679Zm0,.231c.56691,0,.98-.46542.98-1.24582,0-.7807-.4131-1.24609-.98-1.24609s-.9765.46539-.9765,1.24609C210.55409,149.32239,210.9637,149.78781,211.53059,149.78781Zm-1.48759-.38492a.18317.18317,0,0,0-.18539.18912.17673.17673,0,0,0,.1259.17828l-.11911.5076h.16811l.14709-.483a.57391.57391,0,0,0,.0491-.20288A.18321.18321,0,0,0,210.043,149.40289Zm-1.3334-1.0361.69281-.87128v-.17862h-1.575v.22391h1.25291l-.67891.85071v.18539h.1749c.45531,0,.66171.19238.66171.48639,0,.30441-.224.4935-.62991.4935a1.07381,1.07381,0,0,1-.75969-.28351l-.12241.19962a1.27425,1.27425,0,0,0,.8821.31491c.59131,0,.8889-.31491.8889-.72452C209.497,148.6713,209.2346,148.3949,208.70959,148.36679Z" transform="translate(-112.4538 -130.4332)" style="fill:#434242"/><path d="M277.5271,149.55679c-.42691,0-.7211-.3606-.7211-1.0148,0-.65448.29419-1.01511.7211-1.01511s.72089.36063.72089,1.01511c0,.65421-.294,1.0148-.72089,1.0148m0,.231c.56689,0,.98-.46542.98-1.24582,0-.7807-.41312-1.24609-.98-1.24609s-.9765.46539-.9765,1.24609C276.5506,149.32239,276.96021,149.78781,277.5271,149.78781Zm-2.39041-2.47092v.22391h.57742v2.2261h.252v-2.45Zm-.3569,2.086a.18318.18318,0,0,0-.18539.18912.17672.17672,0,0,0,.12592.17828l-.11911.5076h.16809l.14713-.483a.57351.57351,0,0,0,.049-.20288A.18318.18318,0,0,0,274.77979,149.40289Zm-1.33337-1.0361.69269-.87128v-.17862h-1.57489v.22391h1.2529l-.67889.85071v.18539h.1749c.45529,0,.66159.19238.66159.48639,0,.30441-.22391.4935-.62979.4935a1.07382,1.07382,0,0,1-.7597-.28351l-.1225.19962a1.27467,1.27467,0,0,0,.8822.31491c.59128,0,.88889-.31491.88889-.72452C274.2338,148.6713,273.97131,148.3949,273.44641,148.36679Z" transform="translate(-112.4538 -130.4332)" style="fill:#434242"/><path d="M296.1337,237.0717h-.31491l.08392-.7807h1.12v-.22391h-1.34052l-.12589,1.2285h.5213c.62311,0,.81918.19591.81918.51111,0,.2973-.22049.50031-.63718.50031a1.061,1.061,0,0,1-.75232-.28351l-.1225.1996a1.26446,1.26446,0,0,0,.87851.3149c.59839,0,.88889-.32539.88889-.74179,0-.43431-.28-.7245-1.01849-.7245m-1.74979.0453.69278-.87131v-.1786H293.5018v.22391h1.2529l-.67889.85069v.18541h.1749c.4552,0,.66159.1924.66159.48639,0,.30441-.224.49352-.62988.49352a1.07389,1.07389,0,0,1-.7597-.28351l-.12241.1996a1.27442,1.27442,0,0,0,.88211.3149c.59128,0,.889-.3149.889-.7245C295.17139,237.42149,294.90891,237.1451,294.38391,237.117Zm-1.4176,1.0361a.18314.18314,0,0,0-.18539.18909.17675.17675,0,0,0,.12588.1783l-.11911.50761h.16812l.14709-.483a.57431.57431,0,0,0,.0491-.20291A.18321.18321,0,0,0,292.96631,238.15311Zm-1.60641-2.086v.22391h.57739v2.2261h.252v-2.45Z" transform="translate(-112.4538 -130.4332)" style="fill:#434242"/><path d="M278.52151,252.0369c-.42691,0-.7211-.3606-.7211-1.0148,0-.6545.29419-1.01509.7211-1.01509s.72089.3606.72089,1.01509c0,.65421-.294,1.0148-.72089,1.0148m0,.231c.56689,0,.97989-.46539.97989-1.2458,0-.7807-.413-1.24609-.97989-1.24609s-.9765.46539-.9765,1.24609C277.545,251.80251,277.95459,252.2679,278.52151,252.2679Zm-2.317-.231c-.42691,0-.72119-.3606-.72119-1.0148,0-.6545.29428-1.01509.72119-1.01509s.72079.3606.72079,1.01509C276.92529,251.6763,276.63141,252.0369,276.2045,252.0369Zm0,.231c.56689,0,.97989-.46539.97989-1.2458,0-.7807-.413-1.24609-.97989-1.24609s-.97659.46539-.97659,1.24609C275.22791,251.80251,275.63751,252.2679,276.2045,252.2679Zm-1.48761-.3849a.18315.18315,0,0,0-.18539.189.17662.17662,0,0,0,.12579.1783l-.119.50769h.16809l.14709-.483a.57508.57508,0,0,0,.049-.203A.18317.18317,0,0,0,274.71689,251.883Zm-1.3335-1.0361.69281-.8714v-.1785h-1.57489v.22391h1.2529l-.67892.85069v.18541h.17493c.4552,0,.66159.1924.66159.48639,0,.3044-.22391.4935-.62979.4935a1.07413,1.07413,0,0,1-.7597-.28349l-.1225.1996a1.27473,1.27473,0,0,0,.8822.3149c.59128,0,.88889-.3149.88889-.7245C274.1709,251.1514,273.90839,250.875,273.38339,250.84689Z" transform="translate(-112.4538 -130.4332)" style="fill:#434242"/><path d="M232.9106,271.5994c-.4269,0-.7211-.3606-.7211-1.0148,0-.6546.2942-1.01509.7211-1.01509s.7209.36049.7209,1.01509c0,.65421-.294,1.0148-.7209,1.0148m0,.231c.567,0,.98-.4655.98-1.2458,0-.7807-.413-1.2462-.98-1.2462s-.9765.4655-.9765,1.2462C231.9341,271.3649,232.3437,271.8304,232.9106,271.8304Zm-1.2072-.889h-.4901v-.56691h-.245v.56691h-1.0641l1.2529-1.582h-.27971l-1.2986,1.624v.182h1.38251v.644h.252v-.644h.4901Zm-2.58659.504a.18317.18317,0,0,0-.18541.1891.1767.1767,0,0,0,.12581.1783l-.119.50769h.16809l.14711-.483a.57372.57372,0,0,0,.049-.203A.18318.18318,0,0,0,229.11681,271.4454Zm-1.6064-2.086v.224h.57739v2.226h.252v-2.45Z" transform="translate(-112.4538 -130.4332)" style="fill:#434242"/><path d="M201.5751,281.87891h-.4902V281.312H200.84v.56691h-1.0641l1.2529-1.582h-.2798l-1.29849,1.624v.182h1.3824v.644h.252v-.644h.4902Zm-3.4232-.3291c-.37781,0-.61591-.2063-.61591-.52841a.53628.53628,0,0,1,.5986-.532c.42351,0,.64751.25571.64751.5249A.5671.5671,0,0,1,198.1519,281.5498Zm-.02769-1.27391a.76318.76318,0,0,0-.8365.75261.7416.7416,0,0,0,.826.7348.78275.78275,0,0,0,.7489-.4198c.00711.07339.0105.14339.0105.19949,0,.665-.3396,1.0043-.868,1.0043a.85882.85882,0,0,1-.47589-.1153l-.1015.2029a1.124,1.124,0,0,0,.5808.133c.665,0,1.12-.434,1.12-1.26711C199.12849,280.72749,198.775,280.27589,198.12421,280.27589Zm-1.31281,2.107a.18322.18322,0,0,0-.18539.1891.17677.17677,0,0,0,.1259.1783l-.119.50769h.168l.1472-.48309a.57528.57528,0,0,0,.049-.2029A.18321.18321,0,0,0,196.8114,282.3829Zm-1.6064-2.086v.22389h.5775v2.2261h.252v-2.45Z" transform="translate(-112.4538 -130.4332)" style="fill:#434242"/><path d="M144.646,266.57471c-.42349,0-.64769-.2554-.64769-.525a.56722.56722,0,0,1,.6301-.53549c.3779,0,.616.20639.616.5284a.53613.53613,0,0,1-.5984.5321m.021-1.27391a.78343.78343,0,0,0-.74921.4198c-.00681-.07339-.0105-.1434-.0105-.1996,0-.6647.3396-1.0043.868-1.0043a.86054.86054,0,0,1,.4762.1154l.1015-.203a1.12586,1.12586,0,0,0-.5811-.13289c-.665,0-1.12.434-1.12,1.26709,0,.7733.3535,1.22481,1.00459,1.22481a.76334.76334,0,0,0,.8365-.75261A.74168.74168,0,0,0,144.667,265.3008Zm-2.156.0663.6927-.8714v-.1785H141.6288v.22389h1.2529l-.67889.85071v.18539h.1749c.45529,0,.66161.1924.66161.4864,0,.3044-.22391.4935-.62981.4935a1.07438,1.07438,0,0,1-.7597-.28349l-.1225.1996a1.27479,1.27479,0,0,0,.8822.3149c.59129,0,.8889-.3149.8889-.7245C143.2984,265.67149,143.0359,265.3952,142.511,265.3671Zm-1.4176,1.0361a.18314.18314,0,0,0-.18539.189.17659.17659,0,0,0,.12579.1783l-.119.50771h.16811l.14709-.483a.57338.57338,0,0,0,.049-.203A.18317.18317,0,0,0,141.0934,266.4032Zm-1.8902.14.8331-.81889a1.00775,1.00775,0,0,0,.4025-.76651c0-.40959-.3149-.66159-.8121-.66159a1.10115,1.10115,0,0,0-.868.3501l.1786.1539a.83209.83209,0,0,1,.6684-.273c.3745,0,.574.1749.574.45839,0,.16811-.0524.3325-.3288.60541l-1.01851.99759v.17851h1.7184v-.22391Z" transform="translate(-112.4538 -130.4332)" style="fill:#434242"/><path d="M148.36729,174.807c-.4269,0-.7211-.36061-.7211-1.0148,0-.65451.2942-1.01511.7211-1.01511s.7209.3606.7209,1.01511c0,.65419-.294,1.0148-.7209,1.0148m0,.231c.567,0,.98-.46539.98-1.24579,0-.7807-.413-1.24611-.98-1.24611s-.9765.46541-.9765,1.24611C147.39079,174.5726,147.8004,175.038,148.36729,175.038Zm-2.3904-2.471v.224h.57741v2.226h.252v-2.45Zm-.3569,2.08611a.18314.18314,0,0,0-.18539.189.17669.17669,0,0,0,.1259.1783l-.11909.50771h.16809l.14711-.483a.57384.57384,0,0,0,.04909-.203A.18317.18317,0,0,0,145.62,174.65311Zm-1.33339-1.0361.69279-.8714v-.1786h-1.575v.224h1.253l-.67889.85069v.1853h.1749c.4552,0,.66161.1925.66161.4865,0,.30441-.224.49352-.6299.49352a1.07436,1.07436,0,0,1-.7597-.28351l-.12241.1996a1.27481,1.27481,0,0,0,.88211.3149c.59129,0,.8889-.3149.8889-.7245C145.074,173.9214,144.8116,173.6451,144.28661,173.617Z" transform="translate(-112.4538 -130.4332)" style="fill:#434242"/><line x1="27.17041" y1="9.9238" x2="5" y2="9.9238" style="fill:none;stroke:#b1b2b2;stroke-miterlimit:22.92558479309082;stroke-width:0.2160000056028366px"/><line x1="94.1703" y1="18.17371" x2="69.1727" y2="18.17371" style="fill:none;stroke:#b1b2b2;stroke-miterlimit:22.92558479309082;stroke-width:0.2160000056028366px"/><line x1="158.42041" y1="18.17371" x2="133.05341" y2="18.17371" style="fill:none;stroke:#b1b2b2;stroke-miterlimit:22.92558479309082;stroke-width:0.2160000056028366px"/><line x1="177.1705" y1="106.9239" x2="170.422" y2="106.9239" style="fill:none;stroke:#b1b2b2;stroke-miterlimit:22.92558479309082;stroke-width:0.2160000056028366px"/><line x1="158.88611" y1="120.65381" x2="135.3784" y2="120.65381" style="fill:none;stroke:#b1b2b2;stroke-miterlimit:22.92558479309082;stroke-width:0.2160000056028366px"/><line x1="113.63611" y1="140.21631" x2="106.88771" y2="140.21631" style="fill:none;stroke:#b1b2b2;stroke-miterlimit:22.92558479309082;stroke-width:0.2160000056028366px"/><line x1="81.2608" y1="151.1537" x2="64.095" y2="151.1537" style="fill:none;stroke:#b1b2b2;stroke-miterlimit:22.92558479309082;stroke-width:0.2160000056028366px"/><line x1="25.0106" y1="135.174" x2="5" y2="135.174" style="fill:none;stroke:#b1b2b2;stroke-miterlimit:22.92558479309082;stroke-width:0.2160000056028366px"/><line x1="29.2606" y1="43.4239" x2="5" y2="43.4239" style="fill:none;stroke:#b1b2b2;stroke-miterlimit:22.92558479309082;stroke-width:0.2160000056028366px"/><line x1="61.0126" y1="9.9238" x2="36.60941" y2="9.9238" style="fill:none;stroke:#b1b2b2;stroke-miterlimit:22.92558479309082;stroke-width:0.2160000056028366px"/><line x1="130.4512" y1="18.17371" x2="103.60941" y2="18.17371" style="fill:none;stroke:#b1b2b2;stroke-miterlimit:22.92558479309082;stroke-width:0.2160000056028366px"/><line x1="195.28751" y1="18.17371" x2="167.8595" y2="18.17371" style="fill:none;stroke:#b1b2b2;stroke-miterlimit:22.92558479309082;stroke-width:0.2160000056028366px"/><line x1="193.358" y1="106.9239" x2="186.6095" y2="106.9239" style="fill:none;stroke:#b1b2b2;stroke-miterlimit:22.92558479309082;stroke-width:0.2160000056028366px"/><line x1="195.28751" y1="120.65381" x2="168.3252" y2="120.65381" style="fill:none;stroke:#b1b2b2;stroke-miterlimit:22.92558479309082;stroke-width:0.2160000056028366px"/><line x1="129.82361" y1="140.21631" x2="123.07521" y2="140.21631" style="fill:none;stroke:#b1b2b2;stroke-miterlimit:22.92558479309082;stroke-width:0.2160000056028366px"/><line x1="102.97501" y1="151.1537" x2="90.69991" y2="151.1537" style="fill:none;stroke:#b1b2b2;stroke-miterlimit:22.92558479309082;stroke-width:0.2160000056028366px"/><line x1="52.09511" y1="135.174" x2="34.44971" y2="135.174" style="fill:none;stroke:#b1b2b2;stroke-miterlimit:22.92558479309082;stroke-width:0.2160000056028366px"/><line x1="66.57051" y1="43.4239" x2="38.69971" y2="43.4239" style="fill:none;stroke:#b1b2b2;stroke-miterlimit:22.92558479309082;stroke-width:0.2160000056028366px"/><path d="M288.61029,261.243h.68262v-.2486h-.45871v-1.26l2.2261,1.008v-.273l-2.27139-1.02531h-.17862Zm2.2399,1.2424c0,.4269-.3605.7211-1.0148.7211-.65448,0-1.01508-.2942-1.01508-.7211s.3606-.72079,1.01508-.72079C290.48969,261.7646,290.85019,262.0585,290.85019,262.4854Zm.23111,0c0-.56689-.46548-.9799-1.24591-.9799-.78058,0-1.24609.413-1.24609.9799s.46552.9765,1.24609.9765C290.61581,263.4619,291.0813,263.05229,291.0813,262.4854Zm-.385,1.48759a.18318.18318,0,0,0,.18912.18541.17666.17666,0,0,0,.17828-.12581l.50772.119v-.16809l-.48312-.14711a.57283.57283,0,0,0-.20288-.049A.18321.18321,0,0,0,290.69629,263.973Zm.14,1.89021-.81891-.8331a1.00776,1.00776,0,0,0-.76651-.4026c-.40958,0-.66159.315-.66159.81219a1.10118,1.10118,0,0,0,.3501.8679l.1539-.1785a.83238.83238,0,0,1-.273-.6685c0-.3744.1749-.574.45837-.574.16812,0,.33252.05251.6055.3289l.99753,1.0184h.17859v-1.71831h-.224Z" transform="translate(-112.4538 -130.4332)" style="fill:#434242"/><path d="M305.3129,188.8257c0,.434-.18909.68941-.4935.68941-.30109,0-.49008-.2554-.49008-.68941s.189-.6931.49008-.6931c.30441,0,.4935.25909.4935.6931m-1.624.6055c-.273,0-.4411-.2347-.4411-.6055,0-.3676.16809-.6091.44449-.6091.2662,0,.43771.2276.43771.6091C304.13,189.207,303.9585,189.4312,303.6889,189.4312Zm.5321-1.078a.555.555,0,0,0-.53922-.392c-.3988,0-.6474.3463-.6474.8645,0,.5179.2486.8575.6474.8575a.553.553,0,0,0,.53922-.38519.61093.61093,0,0,0,.60181.47249c.434,0,.70349-.35689.70349-.94479,0-.5845-.2695-.9521-.70349-.9521A.61688.61688,0,0,0,304.221,188.3532Zm1.09189,2.7054c0,.434-.18909.68941-.4935.68941-.30109,0-.49008-.2554-.49008-.68941s.189-.6931.49008-.6931C305.12381,190.36549,305.3129,190.6246,305.3129,191.05859Zm-1.624.60541c-.273,0-.4411-.2347-.4411-.60541,0-.36769.16809-.60919.44449-.60919.2662,0,.43771.2276.43771.60919C304.13,191.4398,303.9585,191.664,303.6889,191.664Zm.5321-1.078a.555.555,0,0,0-.53922-.392c-.3988,0-.6474.34641-.6474.86459,0,.5179.2486.85741.6474.85741a.553.553,0,0,0,.53922-.38521.611.611,0,0,0,.60181.47261c.434,0,.70349-.3569.70349-.94481,0-.58449-.2695-.95219-.70349-.95219A.61686.61686,0,0,0,304.221,190.586Zm.92038,1.988a.18318.18318,0,0,0,.18912.18539.17685.17685,0,0,0,.17828-.1259l.5076.11909v-.16809l-.483-.1472a.57516.57516,0,0,0-.20288-.049A.18322.18322,0,0,0,305.14139,192.574Zm-.504.49319v.4901h-.56689v.2449h.56689v1.0641l-1.582-1.2529v.2798l1.6239,1.2986h.182V193.8093h.6441v-.252h-.6441v-.4901Z" transform="translate(-112.4538 -130.4332)" style="fill:#434242"/><path d="M247.8053,178.37689h.22391v-.57739h2.22609v-.252h-2.45Zm2.25751,1.1515c0,.4339-.1891.68941-.4935.68941-.301,0-.49011-.25551-.49011-.68941s.1891-.6931.49011-.6931C249.8737,178.8353,250.06281,179.09441,250.06281,179.5284Zm-1.624.60541c-.2729,0-.441-.23471-.441-.60541,0-.36769.16809-.60919.4444-.60919.2662,0,.4377.2276.4377.60919C248.8799,179.90961,248.7084,180.1338,248.4388,180.1338Zm.5321-1.078a.555.555,0,0,0-.5392-.392c-.3988,0-.6474.34639-.6474.86459,0,.5179.2486.85741.6474.85741a.553.553,0,0,0,.5392-.38521.611.611,0,0,0,.60179.47261c.434,0,.70361-.3569.70361-.94481,0-.5845-.26961-.95219-.70361-.95219A.61686.61686,0,0,0,248.9709,179.0558Zm.92039,1.988a.18323.18323,0,0,0,.1891.18541.17676.17676,0,0,0,.1783-.1259l.50771.119v-.168l-.48311-.1472a.575.575,0,0,0-.2029-.049A.18322.18322,0,0,0,249.8913,181.04379Zm-1.0361,1.3334-.87129-.69279h-.1786v1.57489h.22391v-1.2529l.85069.67891h.18541v-.1749c0-.4552.19249-.66161.48639-.66161.3045,0,.4935.22389.4935.6299a1.074,1.074,0,0,1-.2834.7596l.19951.1225a1.27475,1.27475,0,0,0,.315-.8821c0-.59129-.315-.889-.72461-.889C249.1597,181.58971,248.8833,181.8522,248.85519,182.3772Z" transform="translate(-112.4538 -130.4332)" style="fill:#434242"/><path d="M122.5451,212.6109c0,.4269-.3605.72119-1.0148.72119-.6545,0-1.0151-.2943-1.0151-.72119s.3606-.72079,1.0151-.72079c.6543,0,1.0148.2939,1.0148.72079m.2311,0c0-.56689-.4655-.9799-1.2459-.9799-.78059,0-1.24609.413-1.24609.9799s.4655.97659,1.24609.97659C122.3107,213.58749,122.7762,213.1779,122.7762,212.6109Zm-.2135,2.1138c0,.42349-.2554.6478-.525.6478a.56726.56726,0,0,1-.5354-.6302c0-.37779.20631-.616.52831-.616A.53612.53612,0,0,1,122.5627,214.7247Zm-1.2739-.0209a.78355.78355,0,0,0,.4198.74921c-.0734.00679-.1434.0105-.1995.0105-.6648,0-1.0043-.3396-1.0043-.868a.8605.8605,0,0,1,.1153-.47621l-.2029-.10149a1.12552,1.12552,0,0,0-.133.58109c0,.665.434,1.12,1.2671,1.12.7733,0,1.2249-.3535,1.2249-1.00461a.76334.76334,0,0,0-.7526-.8365A.7417.7417,0,0,0,121.2888,214.7038Zm1.10239,1.52611a.18318.18318,0,0,0,.1891.18539.17668.17668,0,0,0,.1783-.12579l.5077.119v-.16809l-.48309-.14711a.57286.57286,0,0,0-.2029-.049A.18319.18319,0,0,0,122.3912,216.2299Zm-1.0814,1.5293v.315l-.7807-.08391v-1.12h-.2239v1.3405l1.2285.12579v-.52119c0-.62309.1959-.81931.5111-.81931.2974,0,.5003.22061.5003.6373a1.06136,1.06136,0,0,1-.28339.7523l.19949.12241a1.26406,1.26406,0,0,0,.315-.8784c0-.5984-.3255-.889-.7419-.889C121.6001,216.74069,121.3098,217.0208,121.3098,217.7592Z" transform="translate(-112.4538 -130.4332)" style="fill:#434242"/><path d="M122.5627,147.2948c0,.42349-.2554.64771-.525.64771a.56727.56727,0,0,1-.5354-.63022c0-.37778.20631-.61588.52831-.61588a.536.536,0,0,1,.5321.59839m-1.2739-.021a.78355.78355,0,0,0,.4198.74921c-.0734.00677-.1434.0105-.1995.0105-.6648,0-1.0043-.3396-1.0043-.868a.86045.86045,0,0,1,.1153-.4762l-.2029-.1015a1.12581,1.12581,0,0,0-.133.58109c0,.665.434,1.12,1.2671,1.12.7733,0,1.2249-.35352,1.2249-1.00461a.76335.76335,0,0,0-.7526-.83652A.74177.74177,0,0,0,121.2888,147.2738Zm-.9836,2.429h.2239v-.57739h2.2261v-.252h-2.45Zm2.086.3569a.18316.18316,0,0,0,.1891.18539.17675.17675,0,0,0,.1783-.12589l.5077.11911v-.16812l-.48309-.14719a.57533.57533,0,0,0-.2029-.049A.18322.18322,0,0,0,122.3912,150.05969Zm-2.086,1.60641h.2239v-.57751h2.2261v-.252h-2.45Z" transform="translate(-112.4538 -130.4332)" style="fill:#434242"/><line x1="177.4465" y1="137.0831" x2="177.4465" y2="156.77431" style="fill:none;stroke:#b1b2b2;stroke-miterlimit:22.92558479309082;stroke-width:0.2160000056028366px"/><line x1="191.8916" y1="65.7697" x2="191.8916" y2="110.5914" style="fill:none;stroke:#b1b2b2;stroke-miterlimit:22.92558479309082;stroke-width:0.2160000056028366px"/><line x1="136.64151" y1="54.5195" x2="136.64151" y2="89.07671" style="fill:none;stroke:#b1b2b2;stroke-miterlimit:22.92558479309082;stroke-width:0.2160000056028366px"/><line x1="9.1414" y1="89.2697" x2="9.1414" y2="150.96581" style="fill:none;stroke:#b1b2b2;stroke-miterlimit:22.92558479309082;stroke-width:0.2160000056028366px"/><line x1="9.1414" y1="23.26959" x2="9.1414" y2="30.01801" style="fill:none;stroke:#b1b2b2;stroke-miterlimit:22.92558479309082;stroke-width:0.2160000056028366px"/><line x1="177.4465" y1="116.28731" x2="177.4465" y2="127.644" style="fill:none;stroke:#b1b2b2;stroke-miterlimit:22.92558479309082;stroke-width:0.2160000056028366px"/><line x1="191.8916" y1="13.67999" x2="191.8916" y2="56.3306" style="fill:none;stroke:#b1b2b2;stroke-miterlimit:22.92558479309082;stroke-width:0.2160000056028366px"/><line x1="136.64151" y1="13.67999" x2="136.64151" y2="45.08051" style="fill:none;stroke:#b1b2b2;stroke-miterlimit:22.92558479309082;stroke-width:0.2160000056028366px"/><line x1="9.1414" y1="39.05431" x2="9.1414" y2="79.8307" style="fill:none;stroke:#b1b2b2;stroke-miterlimit:22.92558479309082;stroke-width:0.2160000056028366px"/><line x1="9.1414" y1="7.082" x2="9.1414" y2="13.83051" style="fill:none;stroke:#b1b2b2;stroke-miterlimit:22.92558479309082;stroke-width:0.2160000056028366px"/></svg>