<svg id="Слой_1" data-name="Слой 1" xmlns="http://www.w3.org/2000/svg" viewBox="0 0 163.65059 137.50409"><title>1.10.02</title><polygon points="0.224 0 157.559 0 157.559 72.931 160.575 72.931 160.575 136.169 157.559 136.169 0.224 136.169 0.224 72.931 0.224 0" style="fill:#fff;fill-rule:evenodd"/><path d="M137.9673,156.31628V153.7731h6.82021v2.54318Zm3.9283,4.44162v-2.54321h2.89191v2.54321Zm-3.9612,0v-2.54321h2.89189v2.54321Zm-1.2061-8.10681h9.2415v9.14972h-9.2415Z" transform="translate(-130.7733 -143.84641)" style="fill:#003915;fill-rule:evenodd"/><path d="M144.8853,224.68849H142.342v6.95992h2.5433Zm4.33611,0h-2.5432v6.95992h2.5432Zm4.44159,4.068h-2.5432v2.89191h2.5432Zm0-4.068h-2.5432v2.89191h2.5432ZM136.3334,221.9106h20.06389v12.524H136.3334Z" transform="translate(-130.7733 -143.84641)" style="fill:#003915;fill-rule:evenodd"/><path d="M177.1869,194.3813a.374.374,0,0,1-.37471.64749l-13.92009-8.03989a.37405.37405,0,0,1,.37469-.64751Z" transform="translate(-130.7733 -143.84641)" style="fill:#003915"/><path d="M204.2677,207.47569a.374.374,0,0,1-.6474-.37469l8.0399-13.92011a.374.374,0,1,1,.6474.37471Z" transform="translate(-130.7733 -143.84641)" style="fill:#003915"/><path d="M259.67709,221.7263a.374.374,0,1,1,.6474.3748l-8.03989,13.92009a.374.374,0,1,1-.6474-.3748Z" transform="translate(-130.7733 -143.84641)" style="fill:#003915"/><rect x="68.8504" width="2.6022" height="1.12311" style="fill:#003915"/><rect x="67.31599" y="4.5502" width="2.6022" height="38.7468" style="fill:#003915"/><rect x="70.855" y="4.5502" width="2.60231" height="41.73189" style="fill:#003915"/><rect x="70.855" y="63.41389" width="2.60231" height="4.76669" style="fill:#003915"/><rect x="30.2003" width="2.6022" height="1.12311" style="fill:#003915"/><rect x="47.9707" y="40.70889" width="23.4819" height="2.6022" style="fill:#003915"/><rect x="70.855" y="65.5784" width="56.03992" height="2.60219" style="fill:#003915"/><rect x="5.13071" y="40.70889" width="27.39259" height="2.6022" style="fill:#003915"/><rect x="5.59039" width="147.6823" height="5.00198" style="fill:#003915"/><rect x="6.3306" y="132.50209" width="157.31999" height="5.002" style="fill:#003915"/><rect x="0.22389" width="6.42561" height="46.04199" style="fill:#003915"/><rect x="0.22389" y="65.29889" width="6.42561" height="72.2052" style="fill:#003915"/><rect x="124.6416" y="108.02669" width="8.16011" height="28.0153" style="fill:#003915"/><rect x="124.6416" y="132.2943" width="8.16011" height="5.20979" style="fill:#003915"/><rect x="124.6416" y="65.5784" width="38.87999" height="8.1601" style="fill:#003915"/><rect x="124.6416" y="67.4677" width="8.16011" height="10.50209" style="fill:#003915"/><rect x="149.8521" width="8.1601" height="13.06769" style="fill:#003915"/><rect x="149.8521" y="41.6767" width="8.1601" height="30.0787" style="fill:#003915"/><rect x="149.8521" y="63.1165" width="13.79849" height="10.62199" style="fill:#003915"/><rect x="152.85399" y="27.60039" width="2.29861" height="0.50171" style="fill:#003915"/><rect x="152.85399" y="26.40219" width="2.29861" height="0.50121" style="fill:#003915"/><rect x="152.85399" y="13.7648" width="2.29861" height="0.5014" style="fill:#003915"/><rect x="152.85399" y="12.56659" width="2.29861" height="0.5011" style="fill:#003915"/><rect x="152.85399" y="41.7121" width="2.29861" height="0.50169" style="fill:#003915"/><rect x="152.85399" y="40.51419" width="2.29861" height="0.50121" style="fill:#003915"/><rect x="149.8521" y="10.5097" width="0.5014" height="34.09369" style="fill:#003915"/><rect x="152.6992" y="10.5097" width="0.5015" height="34.09369" style="fill:#003915"/><rect x="154.8705" y="10.5097" width="0.5015" height="34.09369" style="fill:#003915"/><rect x="157.51161" y="10.5097" width="0.50137" height="34.09369" style="fill:#003915"/><path d="M260.22729,240.7706H258.5574v-.697h1.66989Zm0,13.5692H258.5574V241.272h1.66989Zm0,1.1982H258.5574v-.6971h1.66989Zm-1.66989.50171h1.66989v5.78949h.5014v-21.7556h2.3457v21.7556h.5014V239.5724h-8.1609v22.25679h.5014v-21.7556h2.1396v18.0518h.5015Z" transform="translate(-130.7733 -143.84641)" style="fill:#003915;fill-rule:evenodd"/><rect x="158.4955" y="112.82849" width="1.29709" height="0.4471" style="fill:#003915"/><rect x="158.4955" y="111.7607" width="1.29709" height="0.44679" style="fill:#003915"/><rect x="158.4955" y="94.2265" width="1.29709" height="0.44699" style="fill:#003915"/><rect x="158.4955" y="93.15869" width="1.29709" height="0.4467" style="fill:#003915"/><rect x="158.4955" y="75.6241" width="1.29709" height="0.44699" style="fill:#003915"/><rect x="158.4955" y="74.55629" width="1.29709" height="0.4467" style="fill:#003915"/><rect x="158.4955" y="131.43089" width="1.29709" height="0.44701" style="fill:#003915"/><rect x="158.4955" y="130.3631" width="1.29709" height="0.4467" style="fill:#003915"/><rect x="160.5753" y="72.48959" width="0.44669" height="60.8212" style="fill:#003915"/><rect x="159.4839" y="72.48959" width="0.44681" height="60.8212" style="fill:#003915"/><rect x="158.40309" y="72.48959" width="0.44672" height="60.8212" style="fill:#003915"/><rect x="158.4955" y="136.90039" width="1.29709" height="0.4467" style="fill:#003915"/><rect x="160.5753" y="134.83359" width="0.44669" height="2.6705" style="fill:#003915"/><rect x="159.4839" y="134.83359" width="0.44681" height="2.6705" style="fill:#003915"/><rect x="158.40309" y="134.83359" width="0.44672" height="2.6705" style="fill:#003915"/><path d="M179.0793,149.20331H169.257a.90528.90528,0,0,0-.90541.904v4.61029a4.59575,4.59575,0,0,0,4.5896,4.591h2.45221a4.59565,4.59565,0,0,0,4.59039-4.591V150.1073a.90469.90469,0,0,0-.9045-.904m-6.13811,9.8606a4.351,4.351,0,0,1-4.345-4.34631V150.1073a.66145.66145,0,0,1,.6608-.65991h9.8223a.66068.66068,0,0,1,.6599.65991v4.61029a4.35138,4.35138,0,0,1-4.34579,4.34631Z" transform="translate(-130.7733 -143.84641)" style="fill:#003915"/><path d="M172.94141,157.97369a3.25868,3.25868,0,0,1-3.25441-3.2561v-2.68808a.56784.56784,0,0,1,.5672-.5675h3.5753v-.24521h-3.5753a.814.814,0,0,0-.81239.81271v2.68808a3.504,3.504,0,0,0,3.4996,3.5007h2.4523a3.50467,3.50467,0,0,0,3.50079-3.5007v-2.68808a.81449.81449,0,0,0-.8136-.81271h-3.5753v.24521h3.5753a.5683.5683,0,0,1,.56841.5675v2.68808a3.25932,3.25932,0,0,1-3.2556,3.2561Z" transform="translate(-130.7733 -143.84641)" style="fill:#003915"/><path d="M174.1683,154.37a.78351.78351,0,1,0,.7838.78351.78482.78482,0,0,0-.7838-.78351m0,1.32242a.53876.53876,0,1,1,.53909-.53891A.53973.53973,0,0,1,174.1683,155.69241Z" transform="translate(-130.7733 -143.84641)" style="fill:#003915"/><rect x="43.27251" y="10.74838" width="0.24489" height="1.11661" style="fill:#003915"/><rect x="42.83659" y="11.18408" width="1.11601" height="0.24551" style="fill:#003915"/><path d="M174.5056,150.38571h.4037a.17362.17362,0,0,1,.1729.174v.3793a.17364.17364,0,0,1-.1729.174h-.4037v.2449h.4037a.41867.41867,0,0,0,.41809-.41891v-.3793a.41868.41868,0,0,0-.41809-.4187h-.4057l.002.03741Zm-1.07719.72729a.1744.1744,0,0,1-.174-.174v-.3793a.17437.17437,0,0,1,.174-.174h.40109v-.20731l.0023-.03741h-.4034a.41855.41855,0,0,0-.41861.4187v.3793a.41854.41854,0,0,0,.41861.41891h.40109v-.2449Z" transform="translate(-130.7733 -143.84641)" style="fill:#003915"/><path d="M174.1683,149.71811a.461.461,0,0,0-.4612.4603v3.08051a.4605.4605,0,0,0,.921,0v-3.08051a.46059.46059,0,0,0-.45979-.4603m0,3.75681a.21679.21679,0,0,1-.21631-.216v-3.08051a.21555.21555,0,0,1,.43111,0v3.08051A.21608.21608,0,0,1,174.1683,153.47491Z" transform="translate(-130.7733 -143.84641)" style="fill:#003915"/><path d="M153.3609,163.20251a3.917,3.917,0,0,1-3.91161-3.9129v-5.66541a.67746.67746,0,0,1,.4561-.63922,1.244,1.244,0,0,1-.20349-.2049.94581.94581,0,0,0-.52161.84412v5.66541a4.18085,4.18085,0,1,0,8.36171,0v-5.66541a.94561.94561,0,0,0-.5211-.8436,1.238,1.238,0,0,1-.2032.20468.67641.67641,0,0,1,.45549.63892v5.66541a3.91706,3.91706,0,0,1-3.91229,3.9129" transform="translate(-130.7733 -143.84641)" style="fill:#003915"/><path d="M156.1646,154.70511h-5.6089a.204.204,0,0,0-.20129.20148v4.27072a3.0066,3.0066,0,1,0,6.0132,0v-4.27072a.20467.20467,0,0,0-.203-.20148m-5.5415.2681h5.476v4.2041a2.738,2.738,0,0,1-5.476,0Z" transform="translate(-130.7733 -143.84641)" style="fill:#003915"/><path d="M153.3606,157.436a1.00815,1.00815,0,1,0,1.0088,1.008,1.01,1.01,0,0,0-1.0088-1.008m0,1.7475a.7394.7394,0,1,1,.73981-.7395A.74031.74031,0,0,1,153.3606,159.1835Z" transform="translate(-130.7733 -143.84641)" style="fill:#003915"/><rect x="151.60486" y="155.23868" width="0.26853" height="2.24222" transform="translate(-194.15248 -22.0881) rotate(-36.72154)" style="fill:#003915"/><rect x="153.81696" y="156.22544" width="2.24303" height="0.26912" transform="translate(-193.85322 42.88396) rotate(-53.19201)" style="fill:#003915"/><path d="M156.0614,149.20331h-5.4005a1.35519,1.35519,0,0,0-1.35251,1.35388v1.4743a1.3536,1.3536,0,0,0,1.35251,1.35242h5.4005a1.35328,1.35328,0,0,0,1.3519-1.35242v-1.4743a1.35486,1.35486,0,0,0-1.3519-1.35388m-5.4005,3.91208a1.08542,1.08542,0,0,1-1.0843-1.08389v-1.4743a1.086,1.086,0,0,1,1.0843-1.08521h5.4005a1.086,1.086,0,0,1,1.08369,1.08521v1.4743a1.08548,1.08548,0,0,1-1.08369,1.08389Z" transform="translate(-130.7733 -143.84641)" style="fill:#003915"/><path d="M153.3606,150.60559a.68811.68811,0,1,0,.6882.68741.68815.68815,0,0,0-.6882-.68741m0,1.10721a.41925.41925,0,1,1,.41951-.4198A.41936.41936,0,0,1,153.3606,151.7128Z" transform="translate(-130.7733 -143.84641)" style="fill:#003915"/><path d="M145.7271,172.7159h-7.8394v11.3479h7.8394Zm-8.17079-.3308h8.5025v12.0098h-8.5025Z" transform="translate(-130.7733 -143.84641)" style="fill:#003915"/><path d="M145.95171,175.11031a.60429.60429,0,0,1,.61249.5936v5.37219a.604.604,0,0,1-.61249.59381v-.33081a.26967.26967,0,0,0,.2809-.263V175.7039a.26952.26952,0,0,0-.2809-.2628Z" transform="translate(-130.7733 -143.84641)" style="fill:#003915"/><path d="M143.3251,177.3681h-2.7077l-.6216,1.59729a2.47412,2.47412,0,0,0,1.6747-.0918,4.15186,4.15186,0,0,1,1.24069-.2413,2.44737,2.44737,0,0,1,.9366.18831Zm-2.9342-.33081h3.1669l.89211,2.48-.3907-.22481a2.26659,2.26659,0,0,0-1.148-.32939,3.89166,3.89166,0,0,0-1.1438.22679,3.89665,3.89665,0,0,1-1.144.22821,2.01814,2.01814,0,0,1-.91249-.218l-.1358-.0675Z" transform="translate(-130.7733 -143.84641)" style="fill:#003915"/><path d="M183.1136,151.35449v30.085a2.161,2.161,0,0,0,2.1656,2.1515H195.6906a2.161,2.161,0,0,0,2.166-2.1515v-30.085a2.1609,2.1609,0,0,0-2.166-2.15118H185.27921a2.16094,2.16094,0,0,0-2.1656,2.15118m14.51309,30.085a1.93116,1.93116,0,0,1-1.9361,1.92191H185.27921a1.931,1.931,0,0,1-1.9355-1.92191v-30.085a1.93138,1.93138,0,0,1,1.9355-1.92209H195.6906a1.93151,1.93151,0,0,1,1.9361,1.92209Z" transform="translate(-130.7733 -143.84641)" style="fill:#003915"/><path d="M196.3647,178.4538a2.577,2.577,0,0,1-2.58211,2.56531h-6.59479a2.57659,2.57659,0,0,1-2.5818-2.56531V154.34061a2.57712,2.57712,0,0,1,2.5818-2.566h2.06189a.39654.39654,0,0,1-.142-.22821h-1.91989a2.80641,2.80641,0,0,0-2.8125,2.79422V178.4538a2.80654,2.80654,0,0,0,2.8125,2.7943h6.59479a2.8065,2.8065,0,0,0,2.8123-2.7943V154.34061a2.80636,2.80636,0,0,0-2.8123-2.79422h-1.9202a.39559.39559,0,0,1-.1414.22821h2.0616a2.5775,2.5775,0,0,1,2.58211,2.566Z" transform="translate(-130.7733 -143.84641)" style="fill:#003915"/><path d="M195.05141,176.9063a1.26668,1.26668,0,0,1-1.26881,1.2612h-6.59479a1.26635,1.26635,0,0,1-1.2682-1.2612V154.34061a1.26622,1.26622,0,0,1,1.2682-1.26151h2.84489v-.2287h-2.84489a1.49613,1.49613,0,0,0-1.4989,1.4902V176.9063a1.49556,1.49556,0,0,0,1.4989,1.4893h6.59479a1.49526,1.49526,0,0,0,1.499-1.4893V154.34061a1.49583,1.49583,0,0,0-1.499-1.4902H190.9375v.2287h2.84509a1.26655,1.26655,0,0,1,1.26881,1.26151Z" transform="translate(-130.7733 -143.84641)" style="fill:#003915"/><path d="M189.7523,156.2457a.73335.73335,0,1,0,.7336-.72989.73152.73152,0,0,0-.7336.72989m1.2365,0a.50331.50331,0,1,1-.5029-.50031A.50193.50193,0,0,1,190.9888,156.2457Z" transform="translate(-130.7733 -143.84641)" style="fill:#003915"/><rect x="59.1893" y="12.28418" width="1.0457" height="0.2294" style="fill:#003915"/><rect x="59.59731" y="11.88" width="0.2307" height="1.03778" style="fill:#003915"/><path d="M190.0327,151.7457h-.53751a.27981.27981,0,0,1-.28029-.27859v-.50519a.28031.28031,0,0,1,.28029-.27921h.53751v-.2287h-.53751a.51031.51031,0,0,0-.51109.5079v.50519a.50969.50969,0,0,0,.51109.50739h.53751Zm1.722-.27859a.27977.27977,0,0,1-.28011.27859h-.53709v.22879h.53709a.50925.50925,0,0,0,.5108-.50739v-.50519a.50987.50987,0,0,0-.5108-.5079h-.53709v.2287h.53709a.28027.28027,0,0,1,.28011.27921Z" transform="translate(-130.7733 -143.84641)" style="fill:#003915"/><path d="M189.9173,150.456v3.20111a.56766.56766,0,0,0,1.1353,0V150.456a.56766.56766,0,0,0-1.1353,0m.90511,3.20111a.33721.33721,0,0,1-.67441,0V150.456a.33721.33721,0,0,1,.67441,0Z" transform="translate(-130.7733 -143.84641)" style="fill:#003915"/><path d="M137.8284,236.2303v11.7692h11.76891V236.2303Zm.2495,11.51981V236.47949H149.3484v11.27061Z" transform="translate(-130.7733 -143.84641)" style="fill:#003915"/><path d="M148.4991,242.11479a3.91956,3.91956,0,0,1-7.7142.98161.29984.29984,0,0,1-.19749.0743h-.0406a4.16868,4.16868,0,1,0-.0002-2.1115h.0408a.29813.29813,0,0,1,.1973.074,3.91967,3.91967,0,0,1,7.7144.9816" transform="translate(-130.7733 -143.84641)" style="fill:#003915"/><path d="M141.0985,242.11479a3.4815,3.4815,0,1,0,3.48181-3.48119,3.48571,3.48571,0,0,0-3.48181,3.48119m6.7135,0a3.2319,3.2319,0,1,1-3.23169-3.2318A3.23546,3.23546,0,0,1,147.812,242.11479Z" transform="translate(-130.7733 -143.84641)" style="fill:#003915"/><path d="M143.6777,242.11479a.90224.90224,0,1,0,.9026-.90259.90334.90334,0,0,0-.9026.90259m1.55569,0a.653.653,0,1,1-.65309-.65309A.65425.65425,0,0,1,145.2334,242.11479Z" transform="translate(-130.7733 -143.84641)" style="fill:#003915"/><rect x="13.1496" y="98.14369" width="1.3139" height="0.2494" style="fill:#003915"/><rect x="13.6817" y="97.61159" width="0.24969" height="1.31361" style="fill:#003915"/><path d="M139.7735,241.3611v1.5074a.42708.42708,0,0,0,.4267.42661h.38721a.42686.42686,0,0,0,.42661-.42661v-1.5074a.42694.42694,0,0,0-.42661-.4267h-.38721a.42716.42716,0,0,0-.4267.4267m.991,1.5074a.17765.17765,0,0,1-.17709.17751h-.38721a.17755.17755,0,0,1-.1772-.17751v-1.5074a.17729.17729,0,0,1,.1772-.1772h.38721a.17739.17739,0,0,1,.17709.1772Z" transform="translate(-130.7733 -143.84641)" style="fill:#003915"/><path d="M139.8983,242.33479h-.0865a.2197.2197,0,1,1,0-.43939h.0865v-.24969h-.0865a.4694.4694,0,0,0,0,.9388h.0865Zm2.59-.22a.22051.22051,0,0,1-.2206.22h-1.3784v.24971h1.3784a.4694.4694,0,1,0,0-.9388h-1.3784v.24969h1.3784A.22.22,0,0,1,142.4883,242.11479Z" transform="translate(-130.7733 -143.84641)" style="fill:#003915"/><path d="M138.30969,264.8951v-7.1566a1.49612,1.49612,0,0,1,1.49471-1.49409h8.29871a1.496,1.496,0,0,1,1.4942,1.49409v7.1566a1.49565,1.49565,0,0,1-1.4942,1.4942H139.8044a1.49576,1.49576,0,0,1-1.49471-1.4942m11.05461-7.1566a1.26265,1.26265,0,0,0-1.2612-1.26109H139.8044a1.26275,1.26275,0,0,0-1.2617,1.26109v7.1566a1.263,1.263,0,0,0,1.2617,1.2617h8.29871a1.2629,1.2629,0,0,0,1.2612-1.2617Z" transform="translate(-130.7733 -143.84641)" style="fill:#003915"/><path d="M139.12869,264.8951v-7.1566a.67621.67621,0,0,1,.6757-.6758h7.0107a.67649.67649,0,0,1,.67581.6758v7.1566a.67656.67656,0,0,1-.67581.67641h-7.0107a.67628.67628,0,0,1-.6757-.67641m8.12921-7.1566a.44324.44324,0,0,0-.44281-.443h-7.0107a.44339.44339,0,0,0-.443.443v7.1566a.44378.44378,0,0,0,.443.44391h7.0107a.44363.44363,0,0,0,.44281-.44391Z" transform="translate(-130.7733 -143.84641)" style="fill:#003915"/><path d="M147.9095,258.43871a.47425.47425,0,1,1,.4743.4742.47505.47505,0,0,1-.4743-.4742m.7155,0a.2412.2412,0,1,0-.2412.2415A.24186.24186,0,0,0,148.625,258.43871Z" transform="translate(-130.7733 -143.84641)" style="fill:#003915"/><path d="M147.9095,260.0394a.47425.47425,0,1,1,.4743.47481.475.475,0,0,1-.4743-.47481m.7155,0a.2412.2412,0,1,0-.2412.24181A.24154.24154,0,0,0,148.625,260.0394Z" transform="translate(-130.7733 -143.84641)" style="fill:#003915"/><rect x="10.4978" y="114.14549" width="0.2327" height="2.7196" style="fill:#003915"/><rect x="9.25369" y="115.3891" width="2.71951" height="0.2327" style="fill:#003915"/><path d="M140.4904,259.3517a.8969.8969,0,1,1,.8969.89661.898.898,0,0,1-.8969-.89661m1.5611,0a.6643.6643,0,1,0-.6642.66389A.66556.66556,0,0,0,142.0515,259.3517Z" transform="translate(-130.7733 -143.84641)" style="fill:#003915"/><rect x="14.343" y="114.14549" width="0.23239" height="2.7196" style="fill:#003915"/><rect x="13.0986" y="115.3891" width="2.7204" height="0.2327" style="fill:#003915"/><path d="M144.33479,259.3517a.89716.89716,0,1,1,.8974.89661.89859.89859,0,0,1-.8974-.89661m1.5619,0a.66475.66475,0,1,0-.6645.66389A.66544.66544,0,0,0,145.8967,259.3517Z" transform="translate(-130.7733 -143.84641)" style="fill:#003915"/><rect x="10.4978" y="118.07629" width="0.2327" height="2.7193" style="fill:#003915"/><rect x="9.25369" y="119.3199" width="2.71951" height="0.23299" style="fill:#003915"/><path d="M140.4904,263.28281a.8969.8969,0,1,1,.8969.8969.89783.89783,0,0,1-.8969-.8969m1.5611,0a.6643.6643,0,1,0-.6642.66389A.66608.66608,0,0,0,142.0515,263.28281Z" transform="translate(-130.7733 -143.84641)" style="fill:#003915"/><rect x="14.343" y="118.07629" width="0.23239" height="2.7193" style="fill:#003915"/><rect x="13.0986" y="119.3199" width="2.7204" height="0.23299" style="fill:#003915"/><path d="M144.33479,263.28281a.89716.89716,0,1,1,.8974.8969.89846.89846,0,0,1-.8974-.8969m1.5619,0a.66475.66475,0,1,0-.6645.66389A.666.666,0,0,0,145.8967,263.28281Z" transform="translate(-130.7733 -143.84641)" style="fill:#003915"/><path d="M147.9095,262.753a.47425.47425,0,1,1,.4743.47449.47485.47485,0,0,1-.4743-.47449m.7155,0a.2412.2412,0,1,0-.2412.24179A.24166.24166,0,0,0,148.625,262.753Z" transform="translate(-130.7733 -143.84641)" style="fill:#003915"/><path d="M147.9095,264.3546a.47425.47425,0,1,1,.4743.47391.47468.47468,0,0,1-.4743-.47391m.7155,0a.2412.2412,0,1,0-.2412.2415A.2416.2416,0,0,0,148.625,264.3546Z" transform="translate(-130.7733 -143.84641)" style="fill:#003915"/><path d="M139.74071,150.0849a.80927.80927,0,1,0,.2347.57089.80978.80978,0,0,0-.2347-.57089m-.5726-1.03629a1.607,1.607,0,1,1-1.13641.47049A1.60263,1.60263,0,0,1,139.16811,149.04861Z" transform="translate(-130.7733 -143.84641)" style="fill:#003915"/><path d="M134.68111,195.5231a3.90785,3.90785,0,1,1-3.90781,3.90759,3.90809,3.90809,0,0,1,3.90781-3.90759" transform="translate(-130.7733 -143.84641)" style="fill:#558e42;fill-rule:evenodd"/><polygon points="6.312 55.584 4.997 55.206 3.682 54.828 3.682 55.584 3.682 56.341 4.997 55.963 6.312 55.584" style="fill:#fdfdfd;fill-rule:evenodd"/><rect x="1.50369" y="55.4054" width="2.2814" height="0.38409" style="fill:#fdfdfd"/><path d="M248.9689,182.2352c-.7319,0-1.2359-.618-1.2359-1.7399s.504-1.7399,1.2359-1.7399,1.2359.6179,1.2359,1.7399-.504,1.7399-1.2359,1.7399m0,.396c.972,0,1.67979-.798,1.67979-2.13589s-.70779-2.13589-1.67979-2.13589-1.6738.7979-1.6738,2.13589S247.9969,182.6312,248.9689,182.6312Zm-5.20781-4.23579v1.1698h.426v-.786h2.16l-1.728,3.816h.468l1.7581-3.894v-.3058Zm-.74979,3.5759a.314.314,0,0,0-.318.324.303.303,0,0,0,.216.3058l-.2041.87h.288l.252-.828a.97614.97614,0,0,0,.08421-.34779A.314.314,0,0,0,243.01131,181.9713Zm-2.7541-3.5759v.3838h.9901v3.816h.432v-4.1998Zm-2.166,0v.3838h.9902v3.816h.432v-4.1998Z" transform="translate(-130.7733 -143.84641)" style="fill:#6e6e6e;fill-rule:evenodd"/><path d="M177.827,250.1445c-.7319,0-1.2359-.618-1.2359-1.7399s.504-1.7399,1.2359-1.7399,1.2359.61789,1.2359,1.7399-.504,1.7399-1.2359,1.7399m0,.396c.972,0,1.67981-.798,1.67981-2.13589s-.70781-2.13591-1.67981-2.13591-1.67389.79791-1.67389,2.13591S176.855,250.5405,177.827,250.5405Zm-5.2079-4.23579v1.1698h.4261v-.786h2.16l-1.728,3.816h.468l1.758-3.894v-.3058Zm-.74969,3.5759a.31409.31409,0,0,0-.3181.324.30313.30313,0,0,0,.216.3058l-.2041.87h.288l.252-.828a.97605.97605,0,0,0,.0842-.34779A.314.314,0,0,0,171.8694,249.8806Zm-2.562.2639c-.7319,0-1.2359-.618-1.2359-1.7399s.504-1.7399,1.2359-1.7399,1.2359.61789,1.2359,1.7399S170.03931,250.1445,169.3074,250.1445Zm0,.396c.972,0,1.67979-.798,1.67979-2.13589s-.70779-2.13591-1.67979-2.13591-1.6738.79791-1.6738,2.13591S168.3354,250.5405,169.3074,250.5405Zm-4.5-.42011,1.4281-1.40369a1.7292,1.7292,0,0,0,.69-1.31421c0-.7018-.54-1.1338-1.39211-1.1338a1.88725,1.88725,0,0,0-1.4879.59981l.3058.26421a1.42619,1.42619,0,0,1,1.1461-.468c.642,0,.98389.2999.98389.786,0,.2877-.08989.56979-.5638,1.0378l-1.7462,1.7101v.30591h2.94611v-.38411Z" transform="translate(-130.7733 -143.84641)" style="fill:#6e6e6e;fill-rule:evenodd"/><path d="M150.4451,203.08679c-.7319,0-1.2359-.61789-1.2359-1.7399s.504-1.7399,1.2359-1.7399,1.2359.618,1.2359,1.7399-.504,1.7399-1.2359,1.7399m0,.396c.972,0,1.67979-.7979,1.67979-2.13591s-.70779-2.13589-1.67979-2.13589-1.6738.798-1.6738,2.13589S149.4731,203.4828,150.4451,203.4828Zm-3.9659-2.514h-.54l.144-1.338h1.91989v-.3838h-2.29779l-.216,2.10591h.8941c1.06779,0,1.40369.33589,1.40369.8759,0,.50989-.3779.858-1.09189.858a1.82175,1.82175,0,0,1-1.2901-.48579l-.2097.3418a2.16806,2.16806,0,0,0,1.50569.54c1.0262,0,1.52391-.5578,1.52391-1.2719C148.225,201.4668,147.7451,200.9688,146.4792,200.9688Zm-2.04581,1.85411a.31405.31405,0,0,0-.318.324.30314.30314,0,0,0,.216.30591l-.2041.86989h.288l.252-.828a.97563.97563,0,0,0,.0842-.34781A.314.314,0,0,0,144.4334,202.82291Zm-2.75409-3.57591v.3838h.9901v3.816h.432V199.247Z" transform="translate(-130.7733 -143.84641)" style="fill:#6e6e6e;fill-rule:evenodd"/><path d="M280.9675,249.5872c-.7319,0-1.2359-.618-1.2359-1.7399s.504-1.7399,1.2359-1.7399,1.2359.61789,1.2359,1.7399-.504,1.7399-1.2359,1.7399m0,.396c.972,0,1.67981-.798,1.67981-2.13589s-.70779-2.13591-1.67981-2.13591-1.6738.7979-1.6738,2.13591S279.99551,249.9832,280.9675,249.9832Zm-2.0701-1.5239h-.8399v-.972h-.4198v.972h-1.8241l2.1481-2.7119h-.48019l-2.2258,2.78389v.3118h2.36978v1.10411h.432v-1.10411h.8399Zm-4.43369.864a.314.314,0,0,0-.318.324.30315.30315,0,0,0,.216.30591l-.2041.8699h.288l.252-.828a.97638.97638,0,0,0,.0842-.34781A.314.314,0,0,0,274.46371,249.3233Zm-2.2861-1.77591,1.188-1.4942v-.30579h-2.7v.38379h2.1481l-1.16388,1.4581v.3181h.2999c.77979,0,1.13379.32991,1.13379.83391,0,.5219-.38379.8459-1.08.8459a1.8411,1.8411,0,0,1-1.30191-.4859l-.21011.3419a2.18478,2.18478,0,0,0,1.512.54c1.014,0,1.5239-.54,1.5239-1.2419C273.5274,248.0692,273.07761,247.59531,272.17761,247.54739Z" transform="translate(-130.7733 -143.84641)" style="fill:#6e6e6e;fill-rule:evenodd"/><path d="M172.6852,172.6351c-.7319,0-1.2359-.618-1.2359-1.7399s.504-1.7399,1.2359-1.7399,1.2359.61789,1.2359,1.7399-.504,1.7399-1.2359,1.7399m0,.396c.972,0,1.67981-.798,1.67981-2.13589s-.70781-2.13589-1.67981-2.13589-1.67389.7979-1.67389,2.13589S171.7132,173.0311,172.6852,173.0311Zm-4.5-.42011,1.4281-1.40369a1.729,1.729,0,0,0,.68991-1.31421c0-.70181-.54-1.13379-1.39211-1.13379a1.88743,1.88743,0,0,0-1.4879.59979l.30589.26421a1.426,1.426,0,0,1,1.146-.468c.64209,0,.984.2999.984.786,0,.2877-.0899.56979-.5639,1.0378l-1.74609,1.7101v.30591h2.946V172.611Zm-1.55989-.23979a.31408.31408,0,0,0-.3181.324.30309.30309,0,0,0,.216.30579l-.20409.87h.288l.252-.828a.97605.97605,0,0,0,.0842-.34779A.314.314,0,0,0,166.62531,172.3712Zm-2.6221-1.8542h-.54l.144-1.33789h1.91991v-.38382h-2.2977l-.216,2.1058h.894c1.06781,0,1.4037.33591,1.4037.8759,0,.51-.37779.85811-1.0919.85811a1.821,1.821,0,0,1-1.29-.4859l-.20979.3419a2.16864,2.16864,0,0,0,1.5058.54c1.02609,0,1.5239-.55789,1.5239-1.2719C165.7491,171.01511,165.2692,170.517,164.0032,170.517Z" transform="translate(-130.7733 -143.84641)" style="fill:#6e6e6e;fill-rule:evenodd"/><rect x="0.22389" y="119.7547" width="1.06041" height="17.74939" style="fill:#003915"/><path d="M242.9935,153.4913c-.42349,0-.64771-.2554-.64771-.525a.56716.56716,0,0,1,.63011-.5354c.3779,0,.616.2063.616.52829a.53613.53613,0,0,1-.5984.5321m.021-1.2739a.7834.7834,0,0,0-.74919.4198c-.00681-.07339-.0105-.1434-.0105-.19949,0-.66483.3396-1.00442.86789-1.00442a.86115.86115,0,0,1,.4763.11542l.10139-.20291a1.12561,1.12561,0,0,0-.5811-.133c-.665,0-1.11989.434-1.11989,1.26709,0,.77332.3535,1.22482,1.00459,1.22482a.76335.76335,0,0,0,.8365-.75262A.74173.74173,0,0,0,243.0145,152.21741Zm-2.31709,1.2739c-.434,0-.68941-.18912-.68941-.4935,0-.30112.2554-.49011.68941-.49011s.6931.189.6931.49011C241.3905,153.30219,241.13139,153.4913,240.6974,153.4913Zm-.6055-1.624c0-.273.2347-.441.6055-.441.36769,0,.60919.168.60919.4444,0,.2662-.2276.43771-.60919.43771C240.31619,152.30841,240.0919,152.1369,240.0919,151.86731Zm1.07809.5321a.555.555,0,0,0,.392-.53922c0-.3988-.34639-.6474-.86459-.6474-.5179,0-.8575.2486-.8575.6474a.55311.55311,0,0,0,.3853.53922.6109.6109,0,0,0-.47261.60178c0,.434.3569.70352.94481.70352.5845,0,.95219-.2695.95219-.70352A.61683.61683,0,0,0,241.17,152.39941Zm-1.988.92038a.18318.18318,0,0,0-.18541.18912.17674.17674,0,0,0,.1259.17828l-.11909.50769h.16809l.14711-.48309a.57348.57348,0,0,0,.0491-.20288A.18321.18321,0,0,0,239.182,153.31979Zm-1.3334-1.0361.69279-.87128v-.17862h-1.57489v.22391h1.2529l-.67891.85071v.18539h.1749c.4552,0,.66161.1925.66161.48639,0,.30441-.224.4935-.6299.4935a1.07433,1.07433,0,0,1-.7597-.28339l-.12239.19949a1.27425,1.27425,0,0,0,.8821.31491c.59129,0,.889-.31491.889-.72452C238.63609,152.5882,238.3736,152.3118,237.8486,152.28369Z" transform="translate(-130.7733 -143.84641)" style="fill:#434242"/><path d="M168.5455,181.4868c-.3779,0-.616-.2063-.616-.5284a.5363.5363,0,0,1,.59869-.532c.42351,0,.6474.25569.6474.525a.56705.56705,0,0,1-.6301.5354m-.0278-1.2739a.76323.76323,0,0,0-.8365.75259.7416.7416,0,0,0,.826.7348.78267.78267,0,0,0,.7489-.4198c.0071.07339.0105.1434.0105.19949,0,.665-.3396,1.0043-.868,1.0043a.8593.8593,0,0,1-.47591-.1153l-.1015.2029a1.12391,1.12391,0,0,0,.5808.133c.6651,0,1.12-.434,1.12-1.26709C169.522,180.66451,169.1685,180.21291,168.5177,180.21291Zm-2.10361,2.26089c-.4269,0-.7211-.3605-.7211-1.0148,0-.6545.2942-1.015.7211-1.015s.7209.3605.7209,1.015C167.135,182.1133,166.841,182.4738,166.41409,182.4738Zm0,.23109c.56691,0,.9799-.4655.9799-1.2459,0-.78059-.413-1.24609-.9799-1.24609s-.97649.4655-.97649,1.24609C165.43761,182.2394,165.8472,182.7049,166.41409,182.7049Zm-1.48759-.385a.18317.18317,0,0,0-.18539.1891.17664.17664,0,0,0,.1259.1783l-.11911.50769h.16811l.14709-.483a.57409.57409,0,0,0,.0491-.203A.18321.18321,0,0,0,164.9265,182.3199Zm-1.3334-1.036.69281-.8714v-.1786h-1.575v.22389h1.2529l-.67891.85071v.18539h.1749c.45531,0,.66161.1925.66161.4864,0,.3045-.22389.4935-.62981.4935a1.0743,1.0743,0,0,1-.75969-.2834l-.1225.19949a1.27473,1.27473,0,0,0,.88219.315c.59131,0,.8889-.315.8889-.72459C164.38049,181.5883,164.118,181.3119,163.59309,181.28391Z" transform="translate(-130.7733 -143.84641)" style="fill:#434242"/><path d="M199.06841,273.72389c-.42691,0-.72121-.36049-.72121-1.01479,0-.65451.2943-1.01511.72121-1.01511s.72079.3606.72079,1.01511c0,.6543-.2939,1.01479-.72079,1.01479m0,.231c.56689,0,.97989-.46539.97989-1.24579,0-.78061-.413-1.24611-.97989-1.24611s-.97661.4655-.97661,1.24611C198.0918,273.4895,198.5014,273.9549,199.06841,273.9549Zm-2.31711-1.218c-.37779,0-.61589-.20639-.61589-.5284a.53627.53627,0,0,1,.59859-.532c.42351,0,.64751.2556.64751.5249A.56709.56709,0,0,1,196.7513,272.73689Zm-.02769-1.2739a.76318.76318,0,0,0-.8365.75261.74153.74153,0,0,0,.826.7347.78262.78262,0,0,0,.7489-.4198c.0071.0735.0105.14349.0105.1996,0,.665-.3396,1.0043-.868,1.0043a.85886.85886,0,0,1-.47591-.1154l-.1015.203a1.124,1.124,0,0,0,.5808.13289c.665,0,1.12-.4339,1.12-1.267C197.72791,271.9146,197.3744,271.463,196.7236,271.463Zm-1.31281,2.107a.18323.18323,0,0,0-.18539.1891.17675.17675,0,0,0,.1259.1783l-.119.50771h.168l.1472-.48309a.57493.57493,0,0,0,.049-.20291A.18322.18322,0,0,0,195.4108,273.57Zm-1.5293-1.08139h-.3149l.08389-.7807h1.12V271.484H193.43l-.1259,1.2285h.5213c.62311,0,.81921.19591.81921.51111,0,.29739-.2205.50029-.63721.50029a1.06139,1.06139,0,0,1-.7523-.28339l-.1225.19949a1.26442,1.26442,0,0,0,.87849.3149c.5984,0,.8889-.32539.8889-.74179C194.9,272.7789,194.62,272.4886,193.8815,272.4886Z" transform="translate(-130.7733 -143.84641)" style="fill:#434242"/><path d="M278.3985,273.72389c-.42691,0-.7211-.36049-.7211-1.01479,0-.65451.29419-1.01511.7211-1.01511s.72079.3606.72079,1.01511c0,.6543-.29388,1.01479-.72079,1.01479m0,.231c.56689,0,.97989-.46539.97989-1.24579,0-.78061-.413-1.24611-.97989-1.24611s-.9765.4655-.9765,1.24611C277.422,273.4895,277.8316,273.9549,278.3985,273.9549Zm-2.62521-.24489.83313-.81891a1.00785,1.00785,0,0,0,.4025-.76649c0-.40961-.31491-.66161-.8121-.66161a1.10118,1.10118,0,0,0-.86792.3501l.1785.1539a.83223.83223,0,0,1,.66843-.273c.37448,0,.5741.1749.5741.4584,0,.16809-.05252.33249-.32892.6055l-1.0184.9975v.1786h1.71832v-.224Zm-.90988-.14a.18318.18318,0,0,0-.18539.1891.17675.17675,0,0,0,.12589.1783l-.11908.50771h.16809L275,273.962a.5732.5732,0,0,0,.0491-.20291A.18323.18323,0,0,0,274.8634,273.57Zm-1.60641-2.086v.22391h.57742v2.2261h.252v-2.45Z" transform="translate(-130.7733 -143.84641)" style="fill:#434242"/><line x1="104.9337" y1="8.6774" x2="73.45731" y2="8.6774" style="fill:none;stroke:#b1b2b2;stroke-miterlimit:22.92558479309082;stroke-width:0.2160000056028366px"/><line x1="30.68359" y1="37.6776" x2="7.1144" y2="37.6776" style="fill:none;stroke:#b1b2b2;stroke-miterlimit:22.92558479309082;stroke-width:0.2160000056028366px"/><line x1="61.18381" y1="128.9276" x2="6.64951" y2="128.9276" style="fill:none;stroke:#b1b2b2;stroke-miterlimit:22.92558479309082;stroke-width:0.2160000056028366px"/><line x1="140.9337" y1="128.9276" x2="134.18529" y2="128.9276" style="fill:none;stroke:#b1b2b2;stroke-miterlimit:22.92558479309082;stroke-width:0.2160000056028366px"/><line x1="149.8521" y1="8.6774" x2="114.3728" y2="8.6774" style="fill:none;stroke:#b1b2b2;stroke-miterlimit:22.92558479309082;stroke-width:0.2160000056028366px"/><line x1="67.31599" y1="37.6776" x2="40.1227" y2="37.6776" style="fill:none;stroke:#b1b2b2;stroke-miterlimit:22.92558479309082;stroke-width:0.2160000056028366px"/><line x1="124.6416" y1="128.9276" x2="70.62289" y2="128.9276" style="fill:none;stroke:#b1b2b2;stroke-miterlimit:22.92558479309082;stroke-width:0.2160000056028366px"/><line x1="157.12129" y1="128.9276" x2="150.37279" y2="128.9276" style="fill:none;stroke:#b1b2b2;stroke-miterlimit:22.92558479309082;stroke-width:0.2160000056028366px"/><path d="M285.4729,254.7468l-.8714-.69279h-.1785v1.575h.22391v-1.253l.85068.67891h.18542V254.88c0-.4552.19238-.66161.48639-.66161.30438,0,.4935.224.4935.6299a1.07438,1.07438,0,0,1-.28351.7597l.19962.12239a1.27424,1.27424,0,0,0,.31488-.8821c0-.59129-.31488-.8889-.72449-.8889-.392,0-.6684.26241-.6965.7874m.203,2.13881c0,.37779-.20639.61589-.52841.61589a.53636.53636,0,0,1-.5321-.5986c0-.42349.25571-.64749.525-.64749A.56711.56711,0,0,1,285.6759,256.8856Zm-1.2739.02769a.76311.76311,0,0,0,.75259.8365.74154.74154,0,0,0,.73471-.826.78261.78261,0,0,0-.4198-.7489c.07339-.0071.1434-.0105.19959-.0105.665,0,1.0043.3396,1.0043.868a.85889.85889,0,0,1-.11539.47591l.203.1015a1.12374,1.12374,0,0,0,.1329-.5808c0-.665-.434-1.12-1.26709-1.12C284.85349,255.909,284.402,256.2625,284.402,256.9133Zm2.107,1.31281a.1832.1832,0,0,0,.189.18539.1767.1767,0,0,0,.17831-.1259l.50769.119v-.168l-.483-.1472a.5754.5754,0,0,0-.203-.049A.18317.18317,0,0,0,286.509,258.2261Zm.14,1.89009-.81888-.8331a1.00777,1.00777,0,0,0-.76651-.4025c-.40961,0-.66159.3149-.66159.8121a1.101,1.101,0,0,0,.3501.868l.1539-.1786a.832.832,0,0,1-.273-.6684c0-.3745.1749-.574.4584-.574.16809,0,.33249.0524.6055.32881l.9975,1.01849h.1785v-1.7184H286.649Z" transform="translate(-130.7733 -143.84641)" style="fill:#434242"/><path d="M252.163,245.3432c0,.4269-.3606.7211-1.0148.7211-.6545,0-1.01509-.2942-1.01509-.7211s.3606-.7209,1.01509-.7209c.65421,0,1.0148.294,1.0148.7209m.231,0c0-.567-.46539-.98-1.2458-.98-.7807,0-1.24609.413-1.24609.98s.46539.9765,1.24609.9765C251.9286,246.3197,252.394,245.9101,252.394,245.3432Zm-.2449,2.62509-.81889-.8331a1.0078,1.0078,0,0,0-.76649-.4025c-.40961,0-.66161.3149-.66161.8121a1.101,1.101,0,0,0,.3501.868l.1539-.1786a.832.832,0,0,1-.273-.6684c0-.37439.1749-.574.4584-.574.16809,0,.33249.0524.60539.3288l.9976,1.01849h.1785v-1.7184h-.22391Zm-.14.91a.18313.18313,0,0,0,.189.1853.17662.17662,0,0,0,.1783-.12579l.50769.119v-.16809l-.483-.14711a.5756.5756,0,0,0-.203-.049A.18319.18319,0,0,0,252.00909,248.8783Zm-1.03609,1.3334-.87141-.69279h-.1785v1.57489h.22391v-1.2529l.85069.67891h.18541v-.17491c0-.4552.1924-.66159.48639-.66159.30441,0,.4935.22389.4935.6299a1.07407,1.07407,0,0,1-.28349.7596l.1996.1225a1.27463,1.27463,0,0,0,.3149-.8821c0-.5914-.3149-.889-.7245-.889C251.2774,249.42419,251.0011,249.68671,250.973,250.2117Z" transform="translate(-130.7733 -143.84641)" style="fill:#434242"/><path d="M153.9128,251.2126c0,.4269-.3606.7211-1.0148.7211-.6546,0-1.01509-.2942-1.01509-.7211s.36049-.7209,1.01509-.7209c.65421,0,1.0148.294,1.0148.7209m.231,0c0-.56689-.4655-.98-1.2458-.98-.7807,0-1.2462.4131-1.2462.98s.4655.9765,1.2462.9765C153.6783,252.1891,154.1438,251.7795,154.1438,251.2126Zm-2.471,2.3904h.224v-.57739h2.226v-.252h-2.45Zm2.086.3569a.18316.18316,0,0,0,.1891.18539.1767.1767,0,0,0,.1783-.12579l.50769.119v-.16811l-.483-.14709a.57381.57381,0,0,0-.203-.049A.18319.18319,0,0,0,153.7588,253.9599Zm.14009,1.8902-.819-.8331a1.00777,1.00777,0,0,0-.76649-.4026c-.40961,0-.66161.315-.66161.81221a1.10107,1.10107,0,0,0,.35011.86789l.1539-.1785a.83259.83259,0,0,1-.2729-.6685c0-.37439.1749-.574.4583-.574.16809,0,.3325.05249.6055.3288l.9975,1.01849h.1786V254.5025h-.22391Z" transform="translate(-130.7733 -143.84641)" style="fill:#434242"/><path d="M143.4305,207.868c0,.42351-.2554.64771-.525.64771a.56723.56723,0,0,1-.5354-.6301c0-.3779.2063-.616.5284-.616a.536.536,0,0,1,.532.5984m-1.2739-.021a.78346.78346,0,0,0,.4198.74921c-.07339.00679-.1434.0105-.19949.0105-.6647,0-1.0043-.3396-1.0043-.8679a.86112.86112,0,0,1,.1153-.4763l-.2029-.10139a1.1255,1.1255,0,0,0-.133.5811c0,.665.434,1.1199,1.26711,1.1199.7733,0,1.2249-.3535,1.2249-1.00461a.76339.76339,0,0,0-.75259-.8365A.74175.74175,0,0,0,142.1566,207.847Zm-.9836,3.07649h.6826v-.2486h-.45871v-1.26l2.2261,1.008v-.273l-2.27141-1.0253H141.173Zm2.086.43741a.18316.18316,0,0,0,.1891.18539.17677.17677,0,0,0,.1783-.1259l.50769.11911v-.16811l-.483-.1472a.57576.57576,0,0,0-.203-.049A.18321.18321,0,0,0,143.259,211.3609Zm-2.086,1.6064h.22389v-.5775h2.2261v-.252h-2.45Z" transform="translate(-130.7733 -143.84641)" style="fill:#434242"/><path d="M277.20059,176.09821c0,.42349-.2554.64769-.525.64769a.56726.56726,0,0,1-.53549-.6302c0-.37779.20639-.61589.52838-.61589a.53613.53613,0,0,1,.5321.5984m-1.2739-.021a.78358.78358,0,0,0,.4198.74921c-.07339.00681-.1434.0105-.19959.0105-.6647,0-1.0043-.3396-1.0043-.868a.86054.86054,0,0,1,.11539-.4762l-.203-.1015a1.12586,1.12586,0,0,0-.1329.5811c0,.665.434,1.12,1.26712,1.12.77328,0,1.22479-.3535,1.22479-1.00461a.76328.76328,0,0,0-.75259-.83649A.74168.74168,0,0,0,275.9267,176.07719Zm1.25632,2.35561c0,.4269-.36063.7211-1.0148.7211-.65451,0-1.01511-.2942-1.01511-.7211s.3606-.7209,1.01511-.7209C276.82239,177.7119,277.183,178.00591,277.183,178.4328Zm.231,0c0-.567-.46539-.98-1.24579-.98-.7807,0-1.24612.413-1.24612.98s.46542.9765,1.24612.9765C276.94861,179.4093,277.414,178.99969,277.414,178.4328Zm-.38489,1.48759a.18313.18313,0,0,0,.189.18541.17667.17667,0,0,0,.17828-.1259l.50772.11909v-.16811l-.483-.14709a.574.574,0,0,0-.203-.0491A.18318.18318,0,0,0,277.02911,179.92039Zm-1.0361,1.3334-.8714-.69279h-.1785v1.575h.22388v-1.253l.85071.67891h.18539V181.387c0-.4552.19241-.66159.48642-.66159.30438,0,.4935.224.4935.6299a1.07438,1.07438,0,0,1-.28351.7597l.19959.12239a1.27425,1.27425,0,0,0,.31491-.8821c0-.59131-.31491-.889-.72449-.889C276.29739,180.46629,276.02109,180.72881,275.993,181.2538Z" transform="translate(-130.7733 -143.84641)" style="fill:#434242"/><path d="M150.933,170.8192c0,.4269-.3606.7211-1.0148.7211-.6545,0-1.01509-.2942-1.01509-.7211s.3606-.7209,1.01509-.7209c.65421,0,1.0148.294,1.0148.7209m.231,0c0-.56689-.46541-.9799-1.2458-.9799-.7807,0-1.24609.413-1.24609.9799s.46539.9765,1.24609.9765C150.69859,171.7957,151.164,171.38609,151.164,170.8192Zm-.21339,2.2785c0,.434-.1891.68939-.49361.68939-.301,0-.4901-.2554-.4901-.68939s.1891-.6931.4901-.6931C150.76151,172.4046,150.95061,172.6637,150.95061,173.0977Zm-1.624.6055c-.273,0-.4411-.2347-.4411-.6055,0-.36771.16811-.60921.4445-.60921.2662,0,.4377.2276.4377.60921C149.7677,173.4789,149.59621,173.7032,149.3266,173.7032Zm.532-1.078a.55487.55487,0,0,0-.53909-.39211c-.3988,0-.6474.34641-.6474.86461,0,.5179.2486.8575.6474.8575a.55289.55289,0,0,0,.53909-.3853.611.611,0,0,0,.60181.4726c.434,0,.7036-.3569.7036-.94479,0-.5845-.26961-.95221-.7036-.95221A.617.617,0,0,0,149.8586,172.6252Zm.9205,1.9879a.18314.18314,0,0,0,.189.18539.17675.17675,0,0,0,.1783-.1259l.50771.11911v-.16811l-.483-.14709a.57393.57393,0,0,0-.203-.0491A.18319.18319,0,0,0,150.7791,174.6131Zm-2.08611,1.6064h.224v-.57739h2.226v-.252h-2.45Z" transform="translate(-130.7733 -143.84641)" style="fill:#434242"/><line x1="154.9377" y1="118.0434" x2="154.9377" y2="132.50209" style="fill:none;stroke:#b1b2b2;stroke-miterlimit:22.92558479309082;stroke-width:0.2160000056028366px"/><line x1="120.4398" y1="108.5434" x2="120.4398" y2="132.50209" style="fill:none;stroke:#b1b2b2;stroke-miterlimit:22.92558479309082;stroke-width:0.2160000056028366px"/><line x1="22.18961" y1="114.04349" x2="22.18961" y2="132.50209" style="fill:none;stroke:#b1b2b2;stroke-miterlimit:22.92558479309082;stroke-width:0.2160000056028366px"/><line x1="11.6898" y1="70.79359" x2="11.6898" y2="77.54199" style="fill:none;stroke:#b1b2b2;stroke-miterlimit:22.92558479309082;stroke-width:0.2160000056028366px"/><line x1="145.45979" y1="39.54359" x2="145.45979" y2="65.5784" style="fill:none;stroke:#b1b2b2;stroke-miterlimit:22.92558479309082;stroke-width:0.2160000056028366px"/><line x1="19.20979" y1="33.79349" x2="19.20979" y2="40.54199" style="fill:none;stroke:#b1b2b2;stroke-miterlimit:22.92558479309082;stroke-width:0.2160000056028366px"/><line x1="154.93971" y1="74.55629" x2="154.93971" y2="108.6044" style="fill:none;stroke:#b1b2b2;stroke-miterlimit:22.92558479309082;stroke-width:0.2160000056028366px"/><line x1="120.4398" y1="69.65829" x2="120.4398" y2="99.10429" style="fill:none;stroke:#b1b2b2;stroke-miterlimit:22.92558479309082;stroke-width:0.2160000056028366px"/><line x1="22.18961" y1="90.5882" x2="22.18961" y2="104.6044" style="fill:none;stroke:#b1b2b2;stroke-miterlimit:22.92558479309082;stroke-width:0.2160000056028366px"/><line x1="11.6898" y1="43.3111" x2="11.6898" y2="61.35449" style="fill:none;stroke:#b1b2b2;stroke-miterlimit:22.92558479309082;stroke-width:0.2160000056028366px"/><line x1="145.45979" y1="5.00198" x2="145.45979" y2="30.10449" style="fill:none;stroke:#b1b2b2;stroke-miterlimit:22.92558479309082;stroke-width:0.2160000056028366px"/><line x1="19.20979" y1="5.62558" x2="19.20979" y2="24.3544" style="fill:none;stroke:#b1b2b2;stroke-miterlimit:22.92558479309082;stroke-width:0.2160000056028366px"/></svg>