<?xml version="1.0" encoding="utf-8"?>
<!-- Generator: Adobe Illustrator 23.0.2, SVG Export Plug-In . SVG Version: 6.00 Build 0)  -->
<svg version="1.1" id="plan" xmlns="http://www.w3.org/2000/svg" xmlns:xlink="http://www.w3.org/1999/xlink" x="0px" y="0px"
	 viewBox="0 0 510 390" enable-background="new 0 0 510 390" xml:space="preserve">
<g id="back">
	<rect x="8.018" y="4.165" fill="#FFFFFF" width="468.471" height="365.249"/>
</g>
<g id="walls">
	
		<rect x="7.9" y="4.518" fill="#828282" stroke="#000000" stroke-linecap="round" stroke-linejoin="round" stroke-miterlimit="10" width="7.94" height="109.018"/>
	
		<rect x="7.9" y="185.274" fill="#828282" stroke="#000000" stroke-linecap="round" stroke-linejoin="round" stroke-miterlimit="10" width="7.941" height="55.157"/>
	
		<line fill="none" stroke="#000000" stroke-linecap="round" stroke-linejoin="round" stroke-miterlimit="10" x1="476.371" y1="4.518" x2="22.379" y2="4.518"/>
	<polyline fill="#828282" stroke="#000000" stroke-linecap="round" stroke-linejoin="round" stroke-miterlimit="10" points="
		476.371,4.518 15.84,4.518 15.84,17.596 476.371,17.596 476.371,4.518 	"/>
	
		<rect x="359.52" y="255.802" fill="#C7C7C7" stroke="#000000" stroke-linecap="round" stroke-linejoin="round" stroke-miterlimit="10" width="5.138" height="113.965"/>
	
		<line fill="#C7C7C7" stroke="#000000" stroke-linecap="round" stroke-linejoin="round" stroke-miterlimit="10" x1="344.658" y1="125.489" x2="339.52" y2="125.489"/>
	<polygon fill="#C7C7C7" stroke="#000000" stroke-linecap="round" stroke-linejoin="round" stroke-miterlimit="10" points="
		110.656,184.873 110.656,190.478 359.52,190.478 359.52,207.615 364.658,207.615 364.658,184.873 	"/>
	
		<rect x="396.503" y="119.884" fill="#C7C7C7" stroke="#000000" stroke-linecap="round" stroke-linejoin="round" stroke-miterlimit="10" width="63.522" height="5.605"/>
	
		<rect x="314" y="21.8" fill="#C7C7C7" stroke="#000000" stroke-linecap="round" stroke-linejoin="round" stroke-miterlimit="10" width="2.802" height="63.602"/>
	
		<rect x="290.478" y="82.6" fill="#C7C7C7" stroke="#000000" stroke-linecap="round" stroke-linejoin="round" stroke-miterlimit="10" width="23.522" height="2.802"/>
	
		<rect x="130.273" y="369.767" fill="#828282" stroke="#000000" stroke-linecap="round" stroke-linejoin="round" stroke-miterlimit="10" width="313.404" height="16.347"/>
	<polygon fill="#828282" stroke="#000000" stroke-linecap="round" stroke-linejoin="round" stroke-miterlimit="10" points="
		476.371,17.596 476.371,129.693 460.024,129.693 460.024,21.8 460.024,17.596 	"/>
	
		<rect x="15.84" y="209.536" fill="#828282" stroke="#000000" stroke-linecap="round" stroke-linejoin="round" stroke-miterlimit="10" width="13.078" height="26.158"/>
	
		<rect x="15.926" y="17.596" fill="#828282" stroke="#000000" stroke-linecap="round" stroke-linejoin="round" stroke-miterlimit="10" width="13.078" height="95.51"/>
	
		<rect x="400.239" y="270.441" fill="#C7C7C7" stroke="#000000" stroke-linecap="round" stroke-linejoin="round" stroke-miterlimit="10" width="59.785" height="5.605"/>
	
		<line fill="none" stroke="#000000" stroke-linecap="round" stroke-linejoin="round" stroke-miterlimit="10" x1="15.84" y1="4.518" x2="22.379" y2="4.518"/>
	<polygon fill="#828282" stroke="#000000" stroke-linecap="round" stroke-linejoin="round" stroke-miterlimit="10" points="
		7.9,386.114 7.9,369.767 15.84,369.767 15.84,370.545 15.841,386.114 	"/>
	<g>
		
			<polyline fill="none" stroke="#000000" stroke-width="0.5" stroke-linecap="round" stroke-linejoin="round" stroke-miterlimit="10" points="
			15.84,184.867 21.445,184.867 21.445,182.064 15.84,182.064 15.84,184.867 		"/>
		
			<line fill="none" stroke="#000000" stroke-width="0.5" stroke-linecap="round" stroke-linejoin="round" stroke-miterlimit="10" x1="27.05" y1="113.536" x2="27.05" y2="184.867"/>
		
			<line fill="none" stroke="#000000" stroke-width="0.5" stroke-linecap="round" stroke-linejoin="round" stroke-miterlimit="10" x1="7.9" y1="184.867" x2="7.9" y2="113.536"/>
		
			<rect x="18.176" y="116.338" fill="none" stroke="#000000" stroke-width="0.5" stroke-linecap="round" stroke-linejoin="round" stroke-miterlimit="10" width="1.401" height="65.726"/>
		
			<path fill="none" stroke="#000000" stroke-width="0.5" stroke-linecap="round" stroke-linejoin="round" stroke-miterlimit="10" d="
			M21.445,182.064v-65.726 M15.84,182.064v-65.726"/>
		
			<polyline fill="none" stroke="#000000" stroke-width="0.5" stroke-linecap="round" stroke-linejoin="round" stroke-miterlimit="10" points="
			15.84,113.536 15.84,116.338 21.445,116.338 21.445,113.536 15.84,113.536 		"/>
	</g>
	<g>
		
			<line fill="none" stroke="#000000" stroke-width="1.5" stroke-linecap="round" stroke-linejoin="round" stroke-miterlimit="10" x1="396.503" y1="125.489" x2="358.67" y2="146.974"/>
		
			<path fill="none" stroke="#000000" stroke-width="1.5" stroke-linecap="round" stroke-linejoin="round" stroke-miterlimit="10" d="
			M359.52,206.759l-23.755,42.503"/>
		
			<line fill="none" stroke="#000000" stroke-width="1.5" stroke-linecap="round" stroke-linejoin="round" stroke-miterlimit="10" x1="476.371" y1="183.873" x2="503.929" y2="136.699"/>
		
			<line fill="none" stroke="#000000" stroke-width="1.5" stroke-linecap="round" stroke-linejoin="round" stroke-miterlimit="10" x1="101.314" y1="347.064" x2="120.194" y2="307.247"/>
	</g>
	<polygon fill="#828282" stroke="#000000" stroke-linecap="round" stroke-linejoin="round" stroke-miterlimit="10" points="
		20.044,201.621 110.656,201.621 110.656,185.274 15.84,185.274 15.84,201.621 	"/>
	
		<rect x="443.677" y="183.873" fill="#828282" stroke="#000000" stroke-linecap="round" stroke-linejoin="round" stroke-miterlimit="10" width="32.695" height="32.695"/>
	
		<rect x="460.024" y="216.568" fill="#828282" stroke="#000000" stroke-linecap="round" stroke-linejoin="round" stroke-miterlimit="10" width="16.347" height="136.851"/>
	<g>
		<g>
			
				<line fill="none" stroke="#000000" stroke-width="0.5" stroke-linecap="round" stroke-linejoin="round" stroke-miterlimit="10" x1="28.918" y1="236.694" x2="28.918" y2="370.144"/>
			
				<line fill="none" stroke="#000000" stroke-width="0.5" stroke-linecap="round" stroke-linejoin="round" stroke-miterlimit="10" x1="7.9" y1="370.341" x2="7.9" y2="239.496"/>
			
				<path fill="none" stroke="#000000" stroke-width="0.5" stroke-linecap="round" stroke-linejoin="round" stroke-miterlimit="10" d="
				M20.044,236.694v133.45 M15.84,367.341h4.204 M15.84,239.496h4.204 M15.84,242.299h4.204 M15.84,364.539h4.204"/>
			
				<polyline fill="none" stroke="#000000" stroke-width="0.5" stroke-linecap="round" stroke-linejoin="round" stroke-miterlimit="10" points="
				15.84,236.694 15.84,370.144 20.044,370.144 			"/>
		</g>
	</g>
	
		<rect x="97.578" y="201.596" fill="#828282" stroke="#000000" stroke-linecap="round" stroke-linejoin="round" stroke-miterlimit="10" width="13.078" height="75.188"/>
	<polygon fill="#828282" stroke="#000000" stroke-linecap="round" stroke-linejoin="round" stroke-miterlimit="10" points="
		97.578,201.596 15.84,201.596 15.84,209.536 89.637,209.536 89.637,281.339 97.578,281.339 	"/>
	<polygon fill="#C7C7C7" stroke="#000000" stroke-linecap="round" stroke-linejoin="round" stroke-miterlimit="10" points="
		460.024,17.596 460.024,21.8 290.478,21.8 290.478,119.884 353.065,119.884 353.065,125.489 344.658,125.489 339.52,125.489 
		284.873,125.489 284.873,17.596 	"/>
	<g>
		
			<polyline fill="none" stroke="#000000" stroke-width="0.5" stroke-linecap="round" stroke-linejoin="round" stroke-miterlimit="10" points="
			110.656,276.537 110.656,300.824 101.314,300.824 		"/>
		
			<polyline fill="none" stroke="#000000" stroke-width="0.5" stroke-linecap="round" stroke-linejoin="round" stroke-miterlimit="10" points="
			89.637,279.339 89.637,300.824 97.578,300.824 		"/>
		
			<line fill="none" stroke="#000000" stroke-width="0.5" stroke-linecap="round" stroke-linejoin="round" stroke-miterlimit="10" x1="101.314" y1="276.537" x2="101.314" y2="303.627"/>
		
			<line fill="none" stroke="#000000" stroke-width="0.5" stroke-linecap="round" stroke-linejoin="round" stroke-miterlimit="10" x1="97.577" y1="349.867" x2="101.314" y2="349.867"/>
		
			<line fill="none" stroke="#000000" stroke-width="0.5" stroke-linecap="round" stroke-linejoin="round" stroke-miterlimit="10" x1="97.577" y1="279.339" x2="101.314" y2="279.339"/>
		
			<line fill="none" stroke="#000000" stroke-width="0.5" stroke-linecap="round" stroke-linejoin="round" stroke-miterlimit="10" x1="97.577" y1="282.142" x2="101.314" y2="282.142"/>
		
			<line fill="none" stroke="#000000" stroke-width="0.5" stroke-linecap="round" stroke-linejoin="round" stroke-miterlimit="10" x1="97.577" y1="298.489" x2="101.314" y2="298.489"/>
		
			<line fill="none" stroke="#000000" stroke-width="0.5" stroke-linecap="round" stroke-linejoin="round" stroke-miterlimit="10" x1="97.577" y1="300.824" x2="101.314" y2="300.824"/>
		
			<line fill="none" stroke="#000000" stroke-width="0.5" stroke-linecap="round" stroke-linejoin="round" stroke-miterlimit="10" x1="97.577" y1="303.627" x2="101.314" y2="303.627"/>
		
			<polyline fill="none" stroke="#000000" stroke-width="0.5" stroke-linecap="round" stroke-linejoin="round" stroke-miterlimit="10" points="
			97.578,276.537 97.578,303.627 101.314,303.627 		"/>
		
			<rect x="97.577" y="347.064" fill="none" stroke="#000000" stroke-width="0.5" stroke-linecap="round" stroke-linejoin="round" stroke-miterlimit="10" width="3.737" height="5.605"/>
	</g>
	
		<rect x="443.677" y="353.419" fill="#828282" stroke="#000000" stroke-linecap="round" stroke-linejoin="round" stroke-miterlimit="10" width="32.695" height="32.695"/>
	
		<rect x="97.578" y="353.419" fill="#828282" stroke="#000000" stroke-linecap="round" stroke-linejoin="round" stroke-miterlimit="10" width="32.695" height="32.695"/>
	<polygon fill="#828282" stroke="#000000" stroke-linecap="round" stroke-linejoin="round" stroke-miterlimit="10" points="
		15.84,369.767 15.841,386.114 28.918,386.114 97.578,386.114 97.578,369.767 28.918,369.767 	"/>
</g>
<g id="furniture">
	<g>
		<polygon fill="#F3F3F3" stroke="#595959" stroke-width="0.5" stroke-miterlimit="10" points="283.664,53.415 283.648,38.402 
			283.648,18.822 160.333,18.822 157.946,18.822 152,18.822 152,53.415 		"/>
	</g>
	<g>
		<path fill-rule="evenodd" clip-rule="evenodd" fill="#F3F3F3" stroke="#595959" stroke-width="0.5" stroke-miterlimit="10" d="
			M442.212,44.236c0,1.276-1.258,2.261-2.716,2.319c-1.391,0-2.584-1.044-2.584-2.319c0-1.276,1.193-2.203,2.584-2.203
			C441.02,42.032,442.212,42.96,442.212,44.236z"/>
		<path fill-rule="evenodd" clip-rule="evenodd" fill="#F3F3F3" stroke="#595959" stroke-width="0.5" stroke-miterlimit="10" d="
			M442.212,44.236c0,1.276-1.258,2.261-2.716,2.319c-1.391,0-2.584-1.044-2.584-2.319c0-1.276,1.193-2.203,2.584-2.203
			C441.02,42.032,442.212,42.96,442.212,44.236z"/>
		
			<polygon fill-rule="evenodd" clip-rule="evenodd" fill="#F3F3F3" stroke="#595959" stroke-width="0.5" stroke-miterlimit="10" points="
			458.551,23.034 420.575,23.034 420.575,118.181 458.551,118.181 458.551,23.034 		"/>
		<path fill-rule="evenodd" clip-rule="evenodd" fill="#F3F3F3" stroke="#595959" stroke-width="0.5" stroke-miterlimit="10" d="
			M423.727,36.661l31.67,0c0,0,0,65.466,0,65.802c0,9.263-5.578,10.815-12.394,10.815l-6.882,0c-6.817,0-12.395-1.552-12.395-10.815
			C423.727,102.127,423.727,36.661,423.727,36.661L423.727,36.661z"/>
		<path fill-rule="evenodd" clip-rule="evenodd" fill="#F3F3F3" stroke="#595959" stroke-width="0.5" stroke-miterlimit="10" d="
			M428.108,31.941c0,1.014,0.913,1.859,2.04,1.859c0.967,0,1.825-0.563,2.04-1.408h2.845c0.322,0,0.537-0.225,0.537-0.563
			c0-0.394-0.214-0.619-0.537-0.619h-2.953c-0.322-0.676-1.074-1.183-1.933-1.183C429.021,30.082,428.108,30.927,428.108,31.941
			L428.108,31.941z"/>
		
			<polyline fill-rule="evenodd" clip-rule="evenodd" fill="#F3F3F3" stroke="#595959" stroke-width="0.5" stroke-miterlimit="10" points="
			435.303,31.828 448.296,31.772 448.296,35.151 439.974,35.151 		"/>
		<path fill-rule="evenodd" clip-rule="evenodd" fill="#F3F3F3" stroke="#595959" stroke-width="0.5" stroke-miterlimit="10" d="
			M438.396,34.3v6.81v0.058h1.815v-0.058V34.3c0-0.458-0.41-0.859-0.878-0.859C438.806,33.442,438.396,33.842,438.396,34.3z"/>
		<path fill-rule="evenodd" clip-rule="evenodd" fill="#F3F3F3" stroke="#595959" stroke-width="0.5" stroke-miterlimit="10" d="
			M438.396,34.3v6.81v0.058h1.815v-0.058V34.3c0-0.458-0.41-0.859-0.878-0.859C438.806,33.442,438.396,33.842,438.396,34.3z"/>
	</g>
	<g>
		<path fill-rule="evenodd" clip-rule="evenodd" fill="#F3F3F3" stroke="#595959" stroke-width="0.5" stroke-miterlimit="10" d="
			M357.557,33.76c0.834,2.363,1.391,5.144,1.391,8.132c0,9.592-5.008,17.307-11.755,17.307c-6.676,0-11.754-7.715-11.754-17.307
			c0-2.92,0.557-5.7,1.461-8.132H357.557z"/>
		<path fill-rule="evenodd" clip-rule="evenodd" fill="#F3F3F3" stroke="#595959" stroke-width="0.5" stroke-miterlimit="10" d="
			M357.844,23.137v6.069c0,1.411-1.114,2.54-2.437,2.54h-15.874c-1.323,0.071-2.437-1.059-2.437-2.54v-6.069H357.844z"/>
		<path fill-rule="evenodd" clip-rule="evenodd" fill="#F3F3F3" stroke="#595959" stroke-width="0.5" stroke-miterlimit="10" d="
			M349.912,27.441c0-1.296-1.079-2.303-2.375-2.303s-2.303,1.08-2.303,2.303c0,1.367,1.08,2.375,2.303,2.375
			C348.905,29.815,349.912,28.808,349.912,27.441z"/>
		<path fill-rule="evenodd" clip-rule="evenodd" fill="#F3F3F3" stroke="#595959" stroke-width="0.5" stroke-miterlimit="10" d="
			M336.958,32.696v1.064h20.6c0.08,0.227,0.144,0.474,0.218,0.708v-1.772c0-0.574-0.487-1.005-0.905-1.005h-18.939
			C337.376,31.691,336.958,32.122,336.958,32.696z"/>
	</g>
	<g>
		
			<rect x="115.562" y="19.049" fill-rule="evenodd" clip-rule="evenodd" fill="#F3F3F3" stroke="#595959" stroke-width="0.5" stroke-miterlimit="10" width="30.487" height="2.158"/>
		
			<rect x="115.562" y="19.049" fill-rule="evenodd" clip-rule="evenodd" fill="#F3F3F3" stroke="#595959" stroke-width="0.5" stroke-miterlimit="10" width="30.487" height="2.158"/>
		
			<rect x="115.295" y="53.176" fill-rule="evenodd" clip-rule="evenodd" fill="#F3F3F3" stroke="#595959" stroke-width="0.5" stroke-miterlimit="10" width="10.023" height="2.958"/>
		
			<rect x="115.295" y="53.176" fill-rule="evenodd" clip-rule="evenodd" fill="#F3F3F3" stroke="#595959" stroke-width="0.5" stroke-miterlimit="10" width="10.023" height="2.958"/>
		
			<rect x="113.962" y="20.981" fill-rule="evenodd" clip-rule="evenodd" fill="#F3F3F3" stroke="#595959" stroke-width="0.5" stroke-miterlimit="10" width="33.486" height="33.42"/>
		
			<rect x="113.962" y="20.981" fill-rule="evenodd" clip-rule="evenodd" fill="#F3F3F3" stroke="#595959" stroke-width="0.5" stroke-miterlimit="10" width="33.486" height="33.42"/>
		<path fill-rule="evenodd" clip-rule="evenodd" fill="#F3F3F3" stroke="#595959" stroke-width="0.5" stroke-miterlimit="10" d="
			M147.448,51.402l-33.486,0L147.448,51.402z"/>
		<path fill-rule="evenodd" clip-rule="evenodd" fill="#F3F3F3" stroke="#595959" stroke-width="0.5" stroke-miterlimit="10" d="
			M149.048,51.283c0-0.653-0.584-1.307-1.312-1.307c-0.802,0-1.313,0.654-1.313,1.307c0,0.799,0.583,1.451,1.313,1.451
			C148.464,52.735,149.048,52.082,149.048,51.283z"/>
		<path fill-rule="evenodd" clip-rule="evenodd" fill="#F3F3F3" stroke="#595959" stroke-width="0.5" stroke-miterlimit="10" d="
			M149.048,51.283c0-0.653-0.584-1.307-1.312-1.307c-0.802,0-1.313,0.654-1.313,1.307c0,0.799,0.583,1.451,1.313,1.451
			C148.464,52.735,149.048,52.082,149.048,51.283z"/>
		<path fill-rule="evenodd" clip-rule="evenodd" fill="#F3F3F3" stroke="#595959" stroke-width="0.5" stroke-miterlimit="10" d="
			M130.525,34.179v5.891V34.179z"/>
		<path fill-rule="evenodd" clip-rule="evenodd" fill="#F3F3F3" stroke="#595959" stroke-width="0.5" stroke-miterlimit="10" d="
			M133.384,37.064l-5.89,0L133.384,37.064z"/>
		<path fill-rule="evenodd" clip-rule="evenodd" fill="#F3F3F3" stroke="#595959" stroke-width="0.5" stroke-miterlimit="10" d="
			M132.584,39.27l-4.291-4.291L132.584,39.27z"/>
		<path fill-rule="evenodd" clip-rule="evenodd" fill="#F3F3F3" stroke="#595959" stroke-width="0.5" stroke-miterlimit="10" d="
			M128.36,39.27l4.29-4.291L128.36,39.27z"/>
		<path fill-rule="evenodd" clip-rule="evenodd" fill="#F3F3F3" stroke="#595959" stroke-width="0.5" stroke-miterlimit="10" d="
			M139.193,33.98v5.89V33.98z"/>
		<path fill-rule="evenodd" clip-rule="evenodd" fill="#F3F3F3" stroke="#595959" stroke-width="0.5" stroke-miterlimit="10" d="
			M142.116,36.864l-5.89,0L142.116,36.864z"/>
		<path fill-rule="evenodd" clip-rule="evenodd" fill="#F3F3F3" stroke="#595959" stroke-width="0.5" stroke-miterlimit="10" d="
			M141.249,39.07l-4.291-4.291L141.249,39.07z"/>
		<path fill-rule="evenodd" clip-rule="evenodd" fill="#F3F3F3" stroke="#595959" stroke-width="0.5" stroke-miterlimit="10" d="
			M137.025,39.07l4.291-4.291L137.025,39.07z"/>
		<path fill-rule="evenodd" clip-rule="evenodd" fill="#F3F3F3" stroke="#595959" stroke-width="0.5" stroke-miterlimit="10" d="
			M122.056,34.179v5.891V34.179z"/>
		<path fill-rule="evenodd" clip-rule="evenodd" fill="#F3F3F3" stroke="#595959" stroke-width="0.5" stroke-miterlimit="10" d="
			M124.919,37.064l-5.89,0L124.919,37.064z"/>
		<path fill-rule="evenodd" clip-rule="evenodd" fill="#F3F3F3" stroke="#595959" stroke-width="0.5" stroke-miterlimit="10" d="
			M124.119,39.27l-4.291-4.291L124.119,39.27z"/>
		<path fill-rule="evenodd" clip-rule="evenodd" fill="#F3F3F3" stroke="#595959" stroke-width="0.5" stroke-miterlimit="10" d="
			M119.894,39.27l4.291-4.291L119.894,39.27z"/>
	</g>
	<g>
		
			<rect x="174.727" y="195.8" fill-rule="evenodd" clip-rule="evenodd" fill="#F3F3F3" stroke="#595959" stroke-width="0.5" stroke-miterlimit="10" width="55.37" height="3.118"/>
		
			<polygon fill-rule="evenodd" clip-rule="evenodd" fill="#F3F3F3" stroke="#595959" stroke-width="0.5" stroke-miterlimit="10" points="
			225.399,195.944 216.501,193.377 188.378,193.377 179.479,195.944 		"/>
		
			<rect x="201.079" y="187.298" transform="matrix(4.546147e-11 -1 1 4.546147e-11 10.4223 394.456)" fill-rule="evenodd" clip-rule="evenodd" fill="#F3F3F3" stroke="#595959" stroke-width="0.5" stroke-miterlimit="10" width="2.721" height="9.438"/>
	</g>
	<g>
		<g>
			
				<rect x="150.264" y="275.746" transform="matrix(6.123234e-17 -1 1 6.123234e-17 -113.7944 518.7808)" fill-rule="evenodd" clip-rule="evenodd" fill="#F3F3F3" stroke="#595959" stroke-width="0.5" stroke-miterlimit="10" width="104.458" height="81.082"/>
			
				<rect x="153.853" y="276.986" transform="matrix(6.123234e-17 -1 1 6.123234e-17 -113.1297 518.2012)" fill-rule="evenodd" clip-rule="evenodd" fill="#F3F3F3" stroke="#595959" stroke-width="0.5" stroke-miterlimit="10" width="97.365" height="77.358"/>
			
				<rect x="170.191" y="335.825" transform="matrix(6.123234e-17 -1 1 6.123234e-17 -169.6775 532.0254)" fill-rule="evenodd" clip-rule="evenodd" fill="#F3F3F3" stroke="#595959" stroke-width="0.5" stroke-miterlimit="10" width="21.965" height="30.054"/>
			
				<rect x="212.691" y="335.825" transform="matrix(6.123234e-17 -1 1 6.123234e-17 -127.1773 574.5256)" fill-rule="evenodd" clip-rule="evenodd" fill="#F3F3F3" stroke="#595959" stroke-width="0.5" stroke-miterlimit="10" width="21.965" height="30.054"/>
			
				<polygon fill-rule="evenodd" clip-rule="evenodd" fill="#F3F3F3" stroke="#595959" stroke-width="0.5" stroke-miterlimit="10" points="
				163.857,328.657 186.935,342.094 218.137,342.094 186.935,342.094 218.137,342.094 241.215,328.657 241.215,266.983 
				241.13,266.983 163.857,266.983 			"/>
			
				<polyline fill-rule="evenodd" clip-rule="evenodd" fill="#F3F3F3" stroke="#595959" stroke-width="0.5" stroke-miterlimit="10" points="
				163.857,328.657 180.052,318.853 186.935,342.094 			"/>
			
				<line fill-rule="evenodd" clip-rule="evenodd" fill="#F3F3F3" stroke="#595959" stroke-width="0.5" stroke-miterlimit="10" x1="186.935" y1="342.094" x2="163.857" y2="328.657"/>
			
				<polyline fill-rule="evenodd" clip-rule="evenodd" fill="#F3F3F3" stroke="#595959" stroke-width="0.5" stroke-miterlimit="10" points="
				241.215,328.657 225.019,318.853 218.137,342.094 			"/>
			
				<line fill-rule="evenodd" clip-rule="evenodd" fill="#F3F3F3" stroke="#595959" stroke-width="0.5" stroke-miterlimit="10" x1="218.137" y1="342.094" x2="241.215" y2="328.657"/>
		</g>
		<g>
			
				<rect x="244.544" y="347.783" fill="#F3F3F3" stroke="#595959" stroke-width="0.5" stroke-miterlimit="10" width="28.537" height="20.733"/>
			
				<rect x="252.719" y="346.432" fill="#F3F3F3" stroke="#595959" stroke-width="0.5" stroke-miterlimit="10" width="11.965" height="1.351"/>
		</g>
		<g>
			
				<rect x="131.826" y="347.783" fill="#F3F3F3" stroke="#595959" stroke-width="0.5" stroke-miterlimit="10" width="28.537" height="20.733"/>
			
				<rect x="140.001" y="346.432" fill="#F3F3F3" stroke="#595959" stroke-width="0.5" stroke-miterlimit="10" width="11.965" height="1.351"/>
		</g>
	</g>
	<g>
		<path fill-rule="evenodd" clip-rule="evenodd" fill="#F3F3F3" stroke="#595959" stroke-width="0.5" stroke-miterlimit="10" d="
			M392.965,26.444v1.033V26.444z"/>
		
			<line fill-rule="evenodd" clip-rule="evenodd" fill="#F3F3F3" stroke="#595959" stroke-width="0.5" stroke-miterlimit="10" x1="392.965" y1="26.444" x2="392.965" y2="27.477"/>
		<path fill-rule="evenodd" clip-rule="evenodd" fill="#F3F3F3" stroke="#595959" stroke-width="0.5" stroke-miterlimit="10" d="
			M392.175,34.043v-0.061v-6.747c0-0.487,0.425-0.852,0.851-0.852c0.487,0,0.851,0.365,0.851,0.852v6.747v0.061H392.175z"/>
		
			<rect x="377.586" y="23.101" fill-rule="evenodd" clip-rule="evenodd" fill="#F3F3F3" stroke="#595959" stroke-width="0.5" stroke-miterlimit="10" width="30.82" height="4.438"/>
		<path fill-rule="evenodd" clip-rule="evenodd" fill="#F3F3F3" stroke="#595959" stroke-width="0.5" stroke-miterlimit="10" d="
			M408.345,26.444h-30.698H408.345z"/>
		<path fill-rule="evenodd" clip-rule="evenodd" fill="#F3F3F3" stroke="#595959" stroke-width="0.5" stroke-miterlimit="10" d="
			M408.406,27.539v15.501c0,0.79-0.547,1.459-1.338,1.459h-28.205c-0.668,0-1.276-0.668-1.276-1.459V27.539H408.406z"/>
		<path fill-rule="evenodd" clip-rule="evenodd" fill="#F3F3F3" stroke="#595959" stroke-width="0.5" stroke-miterlimit="10" d="
			M392.905,30.03c5.714,0,10.394,2.918,10.456,6.504c0.061,3.647-4.438,6.565-10.213,6.626c-5.714,0-10.395-2.857-10.455-6.504
			C382.631,33.07,387.251,30.091,392.905,30.03z"/>
		<path fill-rule="evenodd" clip-rule="evenodd" fill="#F3F3F3" stroke="#595959" stroke-width="0.5" stroke-miterlimit="10" d="
			M394.728,36.717c0,0.973-0.79,1.763-1.763,1.763c-0.911,0-1.641-0.79-1.641-1.763c0-0.973,0.73-1.702,1.641-1.702
			C393.938,35.076,394.728,35.805,394.728,36.717z"/>
		<path fill-rule="evenodd" clip-rule="evenodd" fill="#F3F3F3" stroke="#595959" stroke-width="0.5" stroke-miterlimit="10" d="
			M392.175,34.043v-0.061v-6.747c0-0.487,0.425-0.852,0.851-0.852c0.487,0,0.851,0.365,0.851,0.852v6.747v0.061H392.175z"/>
	</g>
	<g>
		
			<rect x="293.978" y="303.844" transform="matrix(-4.488694e-11 1 -1 -4.488694e-11 662.3654 -21.5527)" fill-rule="evenodd" clip-rule="evenodd" fill="#F3F3F3" stroke="#595959" stroke-width="0.5" stroke-miterlimit="10" width="95.962" height="33.124"/>
		
			<line fill="#F3F3F3" stroke="#595959" stroke-width="0.5" stroke-miterlimit="10" x1="325.397" y1="275.898" x2="358.578" y2="275.898"/>
		
			<line fill="#F3F3F3" stroke="#595959" stroke-width="0.5" stroke-miterlimit="10" x1="325.397" y1="364.811" x2="358.521" y2="364.811"/>
		
			<line fill="#F3F3F3" stroke="#595959" stroke-width="0.5" stroke-miterlimit="10" x1="356.992" y1="275.898" x2="356.992" y2="364.811"/>
		
			<line fill="#F3F3F3" stroke="#595959" stroke-width="0.5" stroke-miterlimit="10" x1="341.721" y1="361.714" x2="341.721" y2="278.994"/>
		
			<rect x="340.856" y="273.191" transform="matrix(0.162 0.9868 -0.9868 0.162 566.0674 -99.9729)" fill="#F3F3F3" stroke="#595959" stroke-width="0.5" stroke-miterlimit="10" width="2.075" height="20.197"/>
		
			<rect x="340.856" y="280.625" transform="matrix(0.0882 0.9961 -0.9961 0.0882 601.3467 -75.4667)" fill="#F3F3F3" stroke="#595959" stroke-width="0.5" stroke-miterlimit="10" width="2.075" height="20.197"/>
		
			<rect x="340.684" y="288.152" transform="matrix(0.229 0.9734 -0.9734 0.229 553.7913 -102.6895)" fill="#F3F3F3" stroke="#595959" stroke-width="0.5" stroke-miterlimit="10" width="2.075" height="20.197"/>
		
			<rect x="340.909" y="296.551" transform="matrix(0.152 0.9884 -0.9884 0.152 593.0403 -77.9451)" fill="#F3F3F3" stroke="#595959" stroke-width="0.5" stroke-miterlimit="10" width="2.075" height="20.197"/>
		
			<rect x="340.796" y="303.876" transform="matrix(0.0451 0.999 -0.999 0.0451 640.0674 -41.6755)" fill="#F3F3F3" stroke="#595959" stroke-width="0.5" stroke-miterlimit="10" width="2.075" height="20.197"/>
		
			<rect x="340.796" y="311.291" transform="matrix(0.152 0.9884 -0.9884 0.152 607.5137 -65.3347)" fill="#F3F3F3" stroke="#595959" stroke-width="0.5" stroke-miterlimit="10" width="2.075" height="20.197"/>
		
			<rect x="340.684" y="318.821" transform="matrix(0.0451 0.999 -0.999 0.0451 654.8898 -27.292)" fill="#F3F3F3" stroke="#595959" stroke-width="0.5" stroke-miterlimit="10" width="2.075" height="20.197"/>
		
			<rect x="340.684" y="326.204" transform="matrix(0.2052 0.9787 -0.9787 0.2052 600.7598 -67.1471)" fill="#F3F3F3" stroke="#595959" stroke-width="0.5" stroke-miterlimit="10" width="2.075" height="20.197"/>
		
			<rect x="340.705" y="333.587" transform="matrix(0.152 0.9884 -0.9884 0.152 629.4728 -46.3381)" fill="#F3F3F3" stroke="#595959" stroke-width="0.5" stroke-miterlimit="10" width="2.075" height="20.197"/>
		
			<rect x="340.684" y="340.97" transform="matrix(0.0847 0.9964 -0.9964 0.0847 662.5698 -19.1726)" fill="#F3F3F3" stroke="#595959" stroke-width="0.5" stroke-miterlimit="10" width="2.075" height="20.197"/>
		
			<rect x="340.93" y="348.353" transform="matrix(0.2379 0.9713 -0.9713 0.2379 608.7645 -58.9793)" fill="#F3F3F3" stroke="#595959" stroke-width="0.5" stroke-miterlimit="10" width="2.075" height="20.197"/>
	</g>
	<path fill-rule="evenodd" clip-rule="evenodd" fill="#F3F3F3" stroke="#595959" stroke-width="0.5" stroke-miterlimit="10" d="
		M248.657,49.882c-1.191,0-2.244-1.31-2.244-2.919V25.278c0-1.608,1.053-2.919,2.244-2.919h28.662c1.282,0,2.29,1.311,2.29,2.919
		v21.685c0,1.608-1.008,2.919-2.29,2.919H248.657L248.657,49.882z M263.321,39.424c-0.757,0-1.389-0.596-1.389-1.311
		c0-0.715,0.632-1.251,1.389-1.251c0.758,0,1.326,0.536,1.326,1.251C264.646,38.827,264.079,39.424,263.321,39.424z M250.756,47.869
		c-1.017,0-1.915-0.969-1.915-2.159V29.673c0-1.189,0.899-2.159,1.915-2.159h24.47c1.094,0,1.955,0.969,1.955,2.159V45.71
		c0,1.189-0.86,2.159-1.955,2.159H250.756L250.756,47.869z M262.06,32.424v-6.906h2.182v6.906H262.06z"/>
	<g>
		
			<rect x="180.744" y="18.823" fill-rule="evenodd" clip-rule="evenodd" fill="#F3F3F3" stroke="#595959" stroke-width="0.5" stroke-miterlimit="10" width="34.462" height="34.592"/>
		
			<rect x="180.744" y="18.823" fill-rule="evenodd" clip-rule="evenodd" fill="#F3F3F3" stroke="#595959" stroke-width="0.5" stroke-miterlimit="10" width="34.462" height="34.592"/>
		<path fill-rule="evenodd" clip-rule="evenodd" fill="#F3F3F3" stroke="#595959" stroke-width="0.5" stroke-miterlimit="10" d="
			M196.262,27.006c0,3.315-2.652,6.034-6.034,6.034c-3.315,0-6.034-2.719-6.034-6.034c0-3.315,2.719-6.034,6.034-6.034
			C193.676,20.905,196.262,23.691,196.262,27.006z"/>
		<path fill-rule="evenodd" clip-rule="evenodd" fill="#F3F3F3" stroke="#595959" stroke-width="0.5" stroke-miterlimit="10" d="
			M196.262,27.006c0,3.315-2.652,6.034-6.034,6.034c-3.315,0-6.034-2.719-6.034-6.034c0-3.315,2.719-6.034,6.034-6.034
			C193.676,20.905,196.262,23.691,196.262,27.006z"/>
		<path fill-rule="evenodd" clip-rule="evenodd" fill="#F3F3F3" stroke="#595959" stroke-width="0.5" stroke-miterlimit="10" d="
			M194.439,27.007c0,2.273-1.872,4.144-4.212,4.144c-2.273,0-4.144-1.871-4.144-4.144c0-2.34,1.871-4.212,4.144-4.212
			C192.635,22.728,194.439,24.6,194.439,27.007z"/>
		<path fill-rule="evenodd" clip-rule="evenodd" fill="#F3F3F3" stroke="#595959" stroke-width="0.5" stroke-miterlimit="10" d="
			M194.439,27.007c0,2.273-1.872,4.144-4.212,4.144c-2.273,0-4.144-1.871-4.144-4.144c0-2.34,1.871-4.212,4.144-4.212
			C192.635,22.728,194.439,24.6,194.439,27.007z"/>
		<path fill-rule="evenodd" clip-rule="evenodd" fill="#F3F3F3" stroke="#595959" stroke-width="0.5" stroke-miterlimit="10" d="
			M211.431,27.006c0,3.315-2.652,6.034-6.034,6.034c-3.315,0-6.034-2.719-6.034-6.034c0-3.315,2.719-6.034,6.034-6.034
			C208.779,20.905,211.431,23.691,211.431,27.006z"/>
		<path fill-rule="evenodd" clip-rule="evenodd" fill="#F3F3F3" stroke="#595959" stroke-width="0.5" stroke-miterlimit="10" d="
			M211.431,27.006c0,3.315-2.652,6.034-6.034,6.034c-3.315,0-6.034-2.719-6.034-6.034c0-3.315,2.719-6.034,6.034-6.034
			C208.779,20.905,211.431,23.691,211.431,27.006z"/>
		<path fill-rule="evenodd" clip-rule="evenodd" fill="#F3F3F3" stroke="#595959" stroke-width="0.5" stroke-miterlimit="10" d="
			M209.543,27.007c0,2.273-1.872,4.144-4.145,4.144c-2.274,0-4.146-1.871-4.146-4.144c0-2.34,1.872-4.212,4.146-4.212
			C207.67,22.728,209.543,24.6,209.543,27.007z"/>
		<path fill-rule="evenodd" clip-rule="evenodd" fill="#F3F3F3" stroke="#595959" stroke-width="0.5" stroke-miterlimit="10" d="
			M209.543,27.007c0,2.273-1.872,4.144-4.145,4.144c-2.274,0-4.146-1.871-4.146-4.144c0-2.34,1.872-4.212,4.146-4.212
			C207.67,22.728,209.543,24.6,209.543,27.007z"/>
		<path fill-rule="evenodd" clip-rule="evenodd" fill="#F3F3F3" stroke="#595959" stroke-width="0.5" stroke-miterlimit="10" d="
			M211.431,40.807c0,3.315-2.652,6.034-6.034,6.034c-3.315,0-6.034-2.719-6.034-6.034c0-3.315,2.719-6.034,6.034-6.034
			C208.779,34.773,211.431,37.492,211.431,40.807z"/>
		<path fill-rule="evenodd" clip-rule="evenodd" fill="#F3F3F3" stroke="#595959" stroke-width="0.5" stroke-miterlimit="10" d="
			M211.431,40.807c0,3.315-2.652,6.034-6.034,6.034c-3.315,0-6.034-2.719-6.034-6.034c0-3.315,2.719-6.034,6.034-6.034
			C208.779,34.773,211.431,37.492,211.431,40.807z"/>
		<path fill-rule="evenodd" clip-rule="evenodd" fill="#F3F3F3" stroke="#595959" stroke-width="0.5" stroke-miterlimit="10" d="
			M190.729,50.185c0,0.505-0.505,1.082-1.154,1.082c-0.506,0-1.084-0.505-1.084-1.082c0-0.65,0.506-1.154,1.084-1.154
			C190.224,49.031,190.729,49.607,190.729,50.185z"/>
		<path fill-rule="evenodd" clip-rule="evenodd" fill="#F3F3F3" stroke="#595959" stroke-width="0.5" stroke-miterlimit="10" d="
			M190.729,50.185c0,0.505-0.505,1.082-1.154,1.082c-0.506,0-1.084-0.505-1.084-1.082c0-0.65,0.506-1.154,1.084-1.154
			C190.224,49.031,190.729,49.607,190.729,50.185z"/>
		<path fill-rule="evenodd" clip-rule="evenodd" fill="#F3F3F3" stroke="#595959" stroke-width="0.5" stroke-miterlimit="10" d="
			M195.221,50.185c0,0.505-0.434,1.082-1.087,1.082c-0.652,0-1.085-0.505-1.085-1.082c0-0.65,0.434-1.154,1.085-1.154
			C194.786,49.031,195.221,49.607,195.221,50.185z"/>
		<path fill-rule="evenodd" clip-rule="evenodd" fill="#F3F3F3" stroke="#595959" stroke-width="0.5" stroke-miterlimit="10" d="
			M195.221,50.185c0,0.505-0.434,1.082-1.087,1.082c-0.652,0-1.085-0.505-1.085-1.082c0-0.65,0.434-1.154,1.085-1.154
			C194.786,49.031,195.221,49.607,195.221,50.185z"/>
		<path fill-rule="evenodd" clip-rule="evenodd" fill="#F3F3F3" stroke="#595959" stroke-width="0.5" stroke-miterlimit="10" d="
			M199.843,50.185c0,0.505-0.505,1.082-1.155,1.082c-0.505,0-1.083-0.505-1.083-1.082c0-0.65,0.506-1.154,1.083-1.154
			C199.338,49.031,199.843,49.607,199.843,50.185z"/>
		<path fill-rule="evenodd" clip-rule="evenodd" fill="#F3F3F3" stroke="#595959" stroke-width="0.5" stroke-miterlimit="10" d="
			M199.843,50.185c0,0.505-0.505,1.082-1.155,1.082c-0.505,0-1.083-0.505-1.083-1.082c0-0.65,0.506-1.154,1.083-1.154
			C199.338,49.031,199.843,49.607,199.843,50.185z"/>
		<path fill-rule="evenodd" clip-rule="evenodd" fill="#F3F3F3" stroke="#595959" stroke-width="0.5" stroke-miterlimit="10" d="
			M194.915,40.807c0,2.575-2.06,4.687-4.687,4.687c-2.575,0-4.686-2.112-4.686-4.687c0-2.575,2.111-4.687,4.686-4.687
			C192.906,36.12,194.915,38.232,194.915,40.807z"/>
		<path fill-rule="evenodd" clip-rule="evenodd" fill="#F3F3F3" stroke="#595959" stroke-width="0.5" stroke-miterlimit="10" d="
			M194.915,40.807c0,2.575-2.06,4.687-4.687,4.687c-2.575,0-4.686-2.112-4.686-4.687c0-2.575,2.111-4.687,4.686-4.687
			C192.906,36.12,194.915,38.232,194.915,40.807z"/>
		<path fill-rule="evenodd" clip-rule="evenodd" fill="#F3F3F3" stroke="#595959" stroke-width="0.5" stroke-miterlimit="10" d="
			M193.607,40.808c0,1.769-1.457,3.227-3.228,3.227c-1.822,0-3.279-1.458-3.279-3.227c0-1.769,1.457-3.279,3.279-3.279
			C192.15,37.529,193.607,39.039,193.607,40.808z"/>
		<path fill-rule="evenodd" clip-rule="evenodd" fill="#F3F3F3" stroke="#595959" stroke-width="0.5" stroke-miterlimit="10" d="
			M193.607,40.808c0,1.769-1.457,3.227-3.228,3.227c-1.822,0-3.279-1.458-3.279-3.227c0-1.769,1.457-3.279,3.279-3.279
			C192.15,37.529,193.607,39.039,193.607,40.808z"/>
	</g>
	<g>
		<path fill="#F3F3F3" stroke="#595959" stroke-width="0.5" stroke-miterlimit="10" d="M400.31,269.582
			c-0.181-2.832-0.252-10.848,2.854-16.591c2.75-5.085,7.756-9.052,10.102-10.174h45.851v26.766h-45.851
			C408.948,269.582,404.629,269.582,400.31,269.582z M413.267,242.817v26.766"/>
		
			<rect x="451.433" y="266.988" transform="matrix(-5.455253e-13 1 -1 -5.455253e-13 721.0154 -185.1856)" fill="#F3F3F3" stroke="#595959" stroke-width="0.5" stroke-miterlimit="10" width="3.335" height="1.854"/>
		
			<rect x="440.098" y="266.988" transform="matrix(-5.455253e-13 1 -1 -5.455253e-13 709.6801 -173.8502)" fill="#F3F3F3" stroke="#595959" stroke-width="0.5" stroke-miterlimit="10" width="3.335" height="1.854"/>
		
			<rect x="428.878" y="266.988" transform="matrix(-1.836970e-16 1 -1 -1.836970e-16 698.4606 -162.6307)" fill="#F3F3F3" stroke="#595959" stroke-width="0.5" stroke-miterlimit="10" width="3.335" height="1.854"/>
		
			<rect x="417.543" y="266.988" transform="matrix(-5.455253e-13 1 -1 -5.455253e-13 687.1252 -151.2954)" fill="#F3F3F3" stroke="#595959" stroke-width="0.5" stroke-miterlimit="10" width="3.335" height="1.854"/>
		
			<rect x="452.823" y="267.07" transform="matrix(-1.836970e-16 1 -1 -1.836970e-16 722.4186 -183.7824)" fill="#F3F3F3" stroke="#595959" stroke-width="0.5" stroke-miterlimit="10" width="0.556" height="4.497"/>
		
			<rect x="441.534" y="267.07" transform="matrix(-1.836970e-16 1 -1 -1.836970e-16 711.1296 -172.4933)" fill="#F3F3F3" stroke="#595959" stroke-width="0.5" stroke-miterlimit="10" width="0.556" height="4.497"/>
		
			<rect x="430.268" y="267.07" transform="matrix(-1.836970e-16 1 -1 -1.836970e-16 699.8638 -161.2275)" fill="#F3F3F3" stroke="#595959" stroke-width="0.5" stroke-miterlimit="10" width="0.556" height="4.497"/>
		
			<rect x="418.932" y="267.07" transform="matrix(-1.836970e-16 1 -1 -1.836970e-16 688.5284 -149.8922)" fill="#F3F3F3" stroke="#595959" stroke-width="0.5" stroke-miterlimit="10" width="0.556" height="4.497"/>
	</g>
	<g>
		<g>
			<path fill="#F3F3F3" stroke="#595959" stroke-width="0.5" stroke-miterlimit="10" d="M174.939,126.613
				c-6.94,0-12.556-2.077-12.556-4.654c0-2.565,5.617-4.654,12.556-4.654s12.568,2.089,12.568,4.654
				C187.507,124.535,181.879,126.613,174.939,126.613z"/>
			<path fill="#F3F3F3" stroke="#595959" stroke-width="0.5" stroke-miterlimit="10" d="M174.939,147.629
				c-6.94,0-12.556-5.628-12.556-12.568s5.617-12.568,12.556-12.568s12.568,5.628,12.568,12.568S181.879,147.629,174.939,147.629z"
				/>
		</g>
		<g>
			<path fill="#F3F3F3" stroke="#595959" stroke-width="0.5" stroke-miterlimit="10" d="M145.226,158.795
				c0,6.94-2.077,12.556-4.654,12.556c-2.565,0-4.654-5.617-4.654-12.556s2.089-12.568,4.654-12.568
				C143.149,146.227,145.226,151.855,145.226,158.795z"/>
			<path fill="#F3F3F3" stroke="#595959" stroke-width="0.5" stroke-miterlimit="10" d="M166.242,158.795
				c0,6.94-5.628,12.556-12.568,12.556s-12.568-5.617-12.568-12.556s5.628-12.568,12.568-12.568S166.242,151.855,166.242,158.795z"
				/>
		</g>
		<g>
			<path fill="#F3F3F3" stroke="#595959" stroke-width="0.5" stroke-miterlimit="10" d="M204.664,158.795
				c0-6.951,2.077-12.568,4.654-12.568c2.565,0,4.654,5.617,4.654,12.568c0,6.94-2.089,12.556-4.654,12.556
				C206.741,171.351,204.664,165.734,204.664,158.795z"/>
			<path fill="#F3F3F3" stroke="#595959" stroke-width="0.5" stroke-miterlimit="10" d="M183.647,158.795
				c0-6.951,5.628-12.568,12.568-12.568c6.94,0,12.568,5.617,12.568,12.568c0,6.94-5.628,12.556-12.568,12.556
				C189.276,171.351,183.647,165.734,183.647,158.795z"/>
		</g>
		
			<rect x="149.638" y="133.482" transform="matrix(-4.488783e-11 1 -1 -4.488783e-11 333.7336 -16.1558)" fill="#F3F3F3" stroke="#595959" stroke-width="0.5" stroke-miterlimit="10" width="50.613" height="50.613"/>
	</g>
	<g>
		<path fill="#F3F3F3" stroke="#595959" stroke-width="0.5" stroke-miterlimit="10" d="M51.633,231.059
			c1.723,0.521,2.878,1.639,3.105,1.599c0.817-0.145-1.126-1.389,0.179-5.077c0.979-2.769,1.756-6.754,1.756-6.754
			s2.875,3.083,4.255,5.741c1.587,3.056,0.042,6.092,0.294,6.225c0.333,0.175,1.176-2.073,3.826-2.612
			c3.242-0.658,7.699,2.431,7.699,2.431s-3.373,0.067-5.673,2.381c-2.202,2.215-4.64,1.791-4.501,2.257
			c0.084,0.282,2.736,1.059,4.704,2.454c1.736,1.23,2.786,4.711,2.786,4.711s-1.672-1.469-6.18-1.064
			c-4.081,0.367-4.984-4.401-5.251-4.356c-0.385,0.065,0.49,2.381-0.662,5.673c-1.074,3.069-5.582,6.213-5.582,6.213
			s-0.628-4.647-0.763-6.693c-0.261-3.967,2.55-5.941,2.144-6.544c-0.307-0.456-3.177,1.076-5.84-0.776
			c-1.555-1.082-5.979-2.939-5.979-2.939s4.332-2.434,6.737-2.989C49.779,230.689,50.776,230.8,51.633,231.059"/>
		<path fill="#F3F3F3" stroke="#595959" stroke-width="0.5" stroke-miterlimit="10" d="M54.453,230.03
			c0.003-0.206,0.012-0.53,0.045-0.926c0.043-0.529,0.091-0.708,0.094-1.044c0.003-0.272-0.029-0.593-0.131-1.145
			c-0.293-1.583-1.977-2.501-2.629-2.929c-0.526-0.346-2.747-1.616-2.747-1.616s-1.333,3.418-0.841,5.802
			c0.449,1.313,3.391,2.889,3.391,2.889l3.347,1.78L54.453,230.03z"/>
		<path fill="#F3F3F3" stroke="#595959" stroke-width="0.5" stroke-miterlimit="10" d="M63.323,230.877c0,0,1.929-1.145,2.939-2.519
			c1.636-2.227,1.691-4.594,1.672-5.42c0,0-3.851,0.072-5.243,2.33c-0.943,1.531-1.017,3.047-1.038,3.579
			c-0.008,0.192-0.025,0.377-0.055,0.567l-0.681,3.637L63.323,230.877z"/>
		<path fill="#F3F3F3" stroke="#595959" stroke-width="0.5" stroke-miterlimit="10" d="M65.293,238.556c0,0,2.383,1.263,3.098,1.452
			c0.828,0.219,1.305,0.221,1.548,0.207c0.909-0.05,1.548-0.401,1.967-0.53c0.504-0.155,2.842-0.59,2.842-0.59
			s-2.284-2.83-4.654-3.699c-2.464-0.563-3.356,0.12-4.062,0.457c-0.205,0.098-0.412,0.178-0.631,0.24l-3.379,0.899L65.293,238.556z
			"/>
		<path fill="#F3F3F3" stroke="#595959" stroke-width="0.5" stroke-miterlimit="10" d="M58.494,242.767c0,0-0.23,2.941,0.253,3.863
			c0.181,0.346,0.405,1.385,2.197,2.048c1.729,0.64,2.764,1.856,2.764,1.856s0.602-2.403,0.135-3.942
			c-0.214-0.706-0.355-1.094-0.681-1.762c-0.369-0.756-1.443-1.491-2.226-2.123c-0.82-0.662-1.378-1.704-1.378-1.704l-0.92-2.186
			L58.494,242.767z"/>
		<path fill="#F3F3F3" stroke="#595959" stroke-width="0.5" stroke-miterlimit="10" d="M50.804,237.533c0,0-2.135-0.023-3.638,0.507
			c-1.078,0.381-1.588,1.328-2.702,2.91c-0.351,0.498-1.621,2.594-1.621,2.594s3.872,1.044,6.484,0.473
			c1.985-0.435,3.12-3.316,3.12-3.316l1.643-3.285L50.804,237.533z"/>
	</g>
	<g>
		
			<rect x="292.396" y="87.31" fill-rule="evenodd" clip-rule="evenodd" fill="#F3F3F3" stroke="#595959" stroke-width="0.5" stroke-miterlimit="10" width="31.701" height="31.64"/>
		<path fill-rule="evenodd" clip-rule="evenodd" fill="#F3F3F3" stroke="#595959" stroke-width="0.5" stroke-miterlimit="10" d="
			M320.795,114.655c0-1.072-0.882-1.954-1.952-1.954c-1.133,0-2.015,0.882-2.015,1.954c0,1.071,0.882,1.954,2.015,1.954
			C319.913,116.609,320.795,115.726,320.795,114.655z"/>
		<path fill-rule="evenodd" clip-rule="evenodd" fill="#F3F3F3" stroke="#595959" stroke-width="0.5" stroke-miterlimit="10" d="
			M320.795,114.62c0-1.052-0.847-1.919-1.874-1.919c-1.088,0-1.935,0.867-1.935,1.919c0,1.052,0.847,1.919,1.935,1.919
			C319.948,116.539,320.795,115.672,320.795,114.62L320.795,114.62z M295.037,118.89v-3.218c0-0.743,0.665-1.299,1.391-1.299h8.949
			c0.725,0,1.391,0.557,1.391,1.299v3.218H295.037z"/>
		<path fill-rule="evenodd" clip-rule="evenodd" fill="#F3F3F3" stroke="#595959" stroke-width="0.5" stroke-miterlimit="10" d="
			M316.893,102.289c0-4.733-3.823-8.617-8.617-8.617c-4.734,0-8.557,3.884-8.557,8.617c0,4.733,3.823,8.617,8.557,8.617
			C313.131,110.906,316.893,107.023,316.893,102.289z"/>
		<path fill-rule="evenodd" clip-rule="evenodd" fill="#F3F3F3" stroke="#595959" stroke-width="0.5" stroke-miterlimit="10" d="
			M316.893,102.289c0-4.733-3.823-8.617-8.617-8.617c-4.734,0-8.557,3.884-8.557,8.617c0,4.733,3.823,8.617,8.557,8.617
			C313.131,110.906,316.893,107.023,316.893,102.289z"/>
		<path fill-rule="evenodd" clip-rule="evenodd" fill="#F3F3F3" stroke="#595959" stroke-width="0.5" stroke-miterlimit="10" d="
			M314.612,102.289c0-3.533-2.802-6.335-6.335-6.335c-3.473,0-6.336,2.802-6.336,6.335c0,3.472,2.924,6.335,6.336,6.335
			C311.81,108.625,314.612,105.762,314.612,102.289z"/>
		<path fill-rule="evenodd" clip-rule="evenodd" fill="#F3F3F3" stroke="#595959" stroke-width="0.5" stroke-miterlimit="10" d="
			M314.612,102.289c0-3.533-2.802-6.335-6.335-6.335c-3.473,0-6.336,2.802-6.336,6.335c0,3.472,2.924,6.335,6.336,6.335
			C311.81,108.625,314.612,105.762,314.612,102.289z"/>
	</g>
	<g>
		
			<rect x="364.658" y="335.44" transform="matrix(-1 -5.514668e-11 5.514668e-11 -1 807.4229 704.0033)" fill-rule="evenodd" clip-rule="evenodd" fill="#F3F3F3" stroke="#595959" stroke-width="0.5" stroke-miterlimit="10" width="78.107" height="33.124"/>
		
			<line fill="#F3F3F3" stroke="#595959" stroke-width="0.5" stroke-miterlimit="10" x1="438.75" y1="335.411" x2="438.75" y2="368.592"/>
		
			<line fill="#F3F3F3" stroke="#595959" stroke-width="0.5" stroke-miterlimit="10" x1="369.38" y1="335.44" x2="369.38" y2="368.564"/>
		
			<line fill="#F3F3F3" stroke="#595959" stroke-width="0.5" stroke-miterlimit="10" x1="438.75" y1="367.035" x2="369.38" y2="367.035"/>
		
			<line fill="#F3F3F3" stroke="#595959" stroke-width="0.5" stroke-miterlimit="10" x1="372.278" y1="351.764" x2="435.5" y2="351.764"/>
		
			<rect x="429.864" y="341.837" transform="matrix(-0.9868 0.162 -0.162 -0.9868 913.116 629.4335)" fill="#F3F3F3" stroke="#595959" stroke-width="0.5" stroke-miterlimit="10" width="2.075" height="20.197"/>
		
			<rect x="422.43" y="341.837" transform="matrix(-0.9961 0.0882 -0.0882 -0.9961 876.311 665.1722)" fill="#F3F3F3" stroke="#595959" stroke-width="0.5" stroke-miterlimit="10" width="2.075" height="20.197"/>
		
			<rect x="414.904" y="341.665" transform="matrix(-0.9734 0.229 -0.229 -0.9734 901.3834 598.9285)" fill="#F3F3F3" stroke="#595959" stroke-width="0.5" stroke-miterlimit="10" width="2.075" height="20.197"/>
		
			<rect x="406.505" y="341.89" transform="matrix(-0.9884 0.152 -0.152 -0.9884 863.8637 637.9223)" fill="#F3F3F3" stroke="#595959" stroke-width="0.5" stroke-miterlimit="10" width="2.075" height="20.197"/>
		
			<rect x="399.18" y="341.778" transform="matrix(-0.999 0.0451 -0.0451 -0.999 815.9012 685.3398)" fill="#F3F3F3" stroke="#595959" stroke-width="0.5" stroke-miterlimit="10" width="2.075" height="20.197"/>
		
			<rect x="391.765" y="341.778" transform="matrix(-0.9884 0.152 -0.152 -0.9884 834.5374 639.9395)" fill="#F3F3F3" stroke="#595959" stroke-width="0.5" stroke-miterlimit="10" width="2.075" height="20.197"/>
		
			<rect x="384.235" y="341.665" transform="matrix(-0.999 0.0451 -0.0451 -0.999 786.0211 685.7888)" fill="#F3F3F3" stroke="#595959" stroke-width="0.5" stroke-miterlimit="10" width="2.075" height="20.197"/>
		
			<rect x="376.852" y="341.665" transform="matrix(-0.9787 0.2052 -0.2052 -0.9787 819.9097 618.5143)" fill="#F3F3F3" stroke="#595959" stroke-width="0.5" stroke-miterlimit="10" width="2.075" height="20.197"/>
	</g>
</g>
<g id="numbers">
	<g>
		<path d="M128.393,218.668c-0.724-0.399-1.292-0.951-1.703-1.658c-0.412-0.706-0.618-1.497-0.618-2.372s0.206-1.666,0.618-2.373
			c0.412-0.706,0.981-1.259,1.709-1.657s1.542-0.598,2.444-0.598c0.676,0,1.3,0.112,1.872,0.338
			c0.572,0.226,1.057,0.555,1.456,0.988l-0.611,0.61c-0.711-0.719-1.608-1.079-2.691-1.079c-0.719,0-1.374,0.165-1.963,0.494
			c-0.589,0.33-1.051,0.78-1.384,1.353c-0.334,0.571-0.5,1.213-0.5,1.924s0.167,1.352,0.5,1.924
			c0.333,0.572,0.795,1.022,1.384,1.352c0.589,0.33,1.244,0.494,1.963,0.494c1.092,0,1.989-0.363,2.691-1.092l0.611,0.611
			c-0.399,0.434-0.886,0.765-1.462,0.994c-0.577,0.229-1.203,0.345-1.878,0.345C129.929,219.265,129.116,219.066,128.393,218.668z"
			/>
		<path d="M142.075,212.349v6.838h-0.923v-6.019h-4.29v6.019h-0.923v-6.838H142.075z"/>
		<path d="M149.108,212.966c0.476,0.446,0.715,1.107,0.715,1.982v4.238h-0.884v-1.066c-0.208,0.355-0.513,0.633-0.917,0.832
			c-0.403,0.2-0.882,0.3-1.436,0.3c-0.763,0-1.37-0.183-1.82-0.547c-0.451-0.363-0.676-0.845-0.676-1.442
			c0-0.581,0.21-1.049,0.63-1.404s1.09-0.533,2.008-0.533h2.171v-0.416c0-0.589-0.165-1.037-0.494-1.345
			c-0.33-0.308-0.811-0.462-1.443-0.462c-0.434,0-0.85,0.071-1.248,0.215c-0.399,0.143-0.741,0.34-1.027,0.591l-0.416-0.688
			c0.347-0.295,0.763-0.522,1.248-0.683s0.997-0.24,1.534-0.24C147.946,212.298,148.631,212.52,149.108,212.966z M148.068,218.167
			c0.373-0.238,0.65-0.583,0.832-1.033v-1.118h-2.145c-1.17,0-1.755,0.407-1.755,1.222c0,0.399,0.152,0.713,0.455,0.942
			c0.303,0.23,0.728,0.345,1.274,0.345C147.249,218.524,147.695,218.405,148.068,218.167z"/>
		<path d="M157.87,212.349v6.838h-0.923v-6.019h-3.276l-0.091,1.689c-0.069,1.422-0.234,2.514-0.494,3.276
			c-0.26,0.763-0.724,1.144-1.391,1.144c-0.182,0-0.403-0.034-0.663-0.104l0.065-0.793c0.156,0.034,0.264,0.052,0.325,0.052
			c0.355,0,0.624-0.165,0.806-0.494c0.182-0.329,0.303-0.736,0.364-1.222s0.112-1.127,0.156-1.924l0.117-2.444H157.87z"/>
		<path d="M165.39,215.34c0.446,0.372,0.669,0.909,0.669,1.611c0,0.729-0.24,1.287-0.722,1.678c-0.481,0.39-1.176,0.58-2.086,0.571
			l-2.756-0.013v-6.838h0.923v2.392l2.015,0.026C164.292,214.776,164.944,214.966,165.39,215.34z M164.636,218.115
			c0.325-0.265,0.487-0.652,0.487-1.164c0-0.502-0.16-0.875-0.481-1.117c-0.321-0.243-0.802-0.369-1.443-0.378l-1.781-0.025v3.042
			l1.781,0.025C163.832,218.507,164.311,218.38,164.636,218.115z"/>
		<path d="M167.814,212.349h0.923v3.029h4.303v-3.029h0.923v6.838h-0.923v-3.016h-4.303v3.016h-0.923V212.349z"/>
		<path d="M181.841,212.349v6.838h-0.845v-2.262h-2.145h-0.26l-1.586,2.262h-1.001l1.703-2.392
			c-0.529-0.147-0.936-0.399-1.222-0.755c-0.286-0.354-0.429-0.806-0.429-1.352c0-0.763,0.26-1.343,0.78-1.742
			c0.52-0.398,1.23-0.598,2.132-0.598H181.841z M178.929,216.236h2.067v-3.067h-2.002c-1.334,0-2.002,0.516-2.002,1.547
			C176.992,215.729,177.638,216.236,178.929,216.236z"/>
		<path d="M129.322,226.187v9.8h-1.82v-8.274h-2.072v-1.525H129.322z"/>
		<path d="M137.4,230.786c0.663,0.537,0.994,1.268,0.994,2.191c0,0.588-0.145,1.12-0.434,1.596c-0.29,0.476-0.724,0.854-1.302,1.134
			c-0.579,0.28-1.292,0.42-2.142,0.42c-0.7,0-1.376-0.1-2.03-0.301c-0.653-0.2-1.204-0.479-1.652-0.833l0.77-1.414
			c0.364,0.299,0.8,0.534,1.309,0.707c0.508,0.173,1.033,0.259,1.575,0.259c0.644,0,1.15-0.133,1.519-0.398
			c0.369-0.267,0.553-0.633,0.553-1.1c0-0.504-0.199-0.884-0.595-1.141c-0.397-0.257-1.076-0.385-2.037-0.385h-2.366l0.504-5.334
			h5.754v1.525h-4.214l-0.21,2.269h0.938C135.715,229.981,136.737,230.25,137.4,230.786z"/>
		<path d="M141.362,234.083c0.214,0.215,0.322,0.495,0.322,0.84c0,0.149-0.021,0.307-0.063,0.47s-0.128,0.408-0.259,0.734
			l-0.714,1.975h-1.134l0.56-2.143c-0.206-0.084-0.367-0.217-0.483-0.398c-0.117-0.183-0.175-0.395-0.175-0.638
			c0-0.345,0.107-0.625,0.322-0.84c0.214-0.214,0.485-0.321,0.812-0.321C140.877,233.761,141.147,233.869,141.362,234.083z"/>
		<path d="M148.992,230.786c0.663,0.537,0.994,1.268,0.994,2.191c0,0.588-0.145,1.12-0.434,1.596
			c-0.29,0.476-0.724,0.854-1.302,1.134c-0.579,0.28-1.292,0.42-2.142,0.42c-0.7,0-1.376-0.1-2.03-0.301
			c-0.653-0.2-1.204-0.479-1.652-0.833l0.77-1.414c0.364,0.299,0.8,0.534,1.309,0.707c0.508,0.173,1.033,0.259,1.575,0.259
			c0.644,0,1.15-0.133,1.519-0.398c0.369-0.267,0.553-0.633,0.553-1.1c0-0.504-0.199-0.884-0.595-1.141
			c-0.397-0.257-1.076-0.385-2.037-0.385h-2.366l0.504-5.334h5.754v1.525h-4.214l-0.21,2.269h0.938
			C147.307,229.981,148.329,230.25,148.992,230.786z"/>
	</g>
	<g>
		<path d="M58.639,118.514h-2.08v4.173h-0.936v-9.1h0.936v4.082h2.08l3.081-4.082h1.04l-3.38,4.42l3.575,4.68h-1.105L58.639,118.514
			z"/>
		<path d="M70.015,115.849l-3.419,7.657c-0.277,0.642-0.598,1.096-0.962,1.365c-0.364,0.269-0.802,0.403-1.313,0.403
			c-0.33,0-0.637-0.052-0.923-0.156c-0.286-0.104-0.533-0.26-0.741-0.468l0.429-0.689c0.347,0.347,0.763,0.52,1.248,0.52
			c0.312,0,0.579-0.087,0.8-0.26c0.221-0.174,0.427-0.468,0.617-0.884l0.299-0.663l-3.055-6.825h0.962l2.574,5.811l2.574-5.811
			H70.015z"/>
		<path d="M75.344,122.687l-2.171-2.86l-2.184,2.86h-1.04l2.704-3.51l-2.574-3.328h1.04l2.054,2.678l2.054-2.678h1.014l-2.574,3.328
			l2.73,3.51H75.344z"/>
		<path d="M77.905,115.849h0.923v3.029h4.303v-3.029h0.923v6.838h-0.923v-3.016h-4.303v3.016h-0.923V115.849z"/>
		<path d="M91.932,115.849v6.838h-0.845v-2.262h-2.145h-0.26l-1.586,2.262h-1.001l1.703-2.392c-0.529-0.147-0.936-0.398-1.222-0.754
			s-0.429-0.806-0.429-1.352c0-0.763,0.26-1.343,0.78-1.742c0.52-0.398,1.23-0.598,2.132-0.598H91.932z M89.02,119.736h2.067v-3.068
			h-2.002c-1.334,0-2.002,0.516-2.002,1.547C87.083,119.229,87.729,119.736,89.02,119.736z"/>
		<path d="M94.025,118.761h3.406v0.806h-3.406V118.761z"/>
		<path d="M56.449,137.91c-0.533-0.294-0.951-0.708-1.254-1.242c-0.303-0.533-0.455-1.133-0.455-1.8s0.152-1.265,0.455-1.794
			s0.722-0.94,1.254-1.235c0.533-0.294,1.138-0.442,1.813-0.442c0.589,0,1.116,0.115,1.58,0.345c0.463,0.229,0.83,0.565,1.099,1.007
			l-0.689,0.468c-0.226-0.338-0.512-0.592-0.858-0.761c-0.347-0.169-0.724-0.253-1.131-0.253c-0.494,0-0.938,0.11-1.333,0.332
			c-0.395,0.221-0.702,0.535-0.923,0.942c-0.221,0.408-0.332,0.871-0.332,1.391c0,0.529,0.11,0.995,0.332,1.397
			s0.528,0.715,0.923,0.936s0.839,0.332,1.333,0.332c0.407,0,0.784-0.083,1.131-0.247c0.346-0.165,0.632-0.416,0.858-0.754
			L60.94,137c-0.269,0.442-0.637,0.778-1.105,1.008c-0.468,0.229-0.993,0.344-1.573,0.344
			C57.586,138.352,56.982,138.205,56.449,137.91z"/>
		<path d="M67.401,132.268h-2.587v6.019h-0.923v-6.019h-2.587v-0.819h6.097V132.268z"/>
		<path d="M69.468,137.903c-0.529-0.299-0.945-0.713-1.248-1.242c-0.303-0.528-0.455-1.126-0.455-1.794s0.152-1.265,0.455-1.794
			s0.719-0.94,1.248-1.235c0.528-0.294,1.122-0.442,1.781-0.442s1.252,0.147,1.781,0.442c0.528,0.295,0.942,0.707,1.242,1.235
			c0.299,0.529,0.448,1.126,0.448,1.794s-0.149,1.266-0.448,1.794c-0.299,0.529-0.713,0.942-1.242,1.242
			c-0.529,0.299-1.123,0.448-1.781,0.448S69.997,138.202,69.468,137.903z M72.556,137.201c0.386-0.221,0.687-0.535,0.904-0.942
			c0.216-0.407,0.325-0.871,0.325-1.391s-0.108-0.983-0.325-1.391c-0.217-0.407-0.518-0.722-0.904-0.942
			c-0.386-0.221-0.821-0.332-1.307-0.332s-0.921,0.11-1.306,0.332c-0.386,0.221-0.689,0.535-0.91,0.942
			c-0.221,0.408-0.332,0.871-0.332,1.391s0.11,0.984,0.332,1.391s0.524,0.721,0.91,0.942c0.385,0.221,0.821,0.332,1.306,0.332
			S72.17,137.423,72.556,137.201z"/>
		<path d="M82.248,131.449v6.838h-0.923v-6.019h-3.276l-0.091,1.69c-0.069,1.421-0.234,2.514-0.494,3.276
			c-0.26,0.763-0.724,1.144-1.391,1.144c-0.182,0-0.403-0.035-0.663-0.104l0.065-0.793c0.156,0.035,0.264,0.052,0.325,0.052
			c0.355,0,0.624-0.165,0.806-0.494c0.182-0.329,0.303-0.736,0.364-1.222c0.061-0.485,0.112-1.126,0.156-1.924l0.117-2.444H82.248z"
			/>
		<path d="M85.914,137.903c-0.529-0.299-0.945-0.713-1.248-1.242c-0.303-0.528-0.455-1.126-0.455-1.794s0.152-1.265,0.455-1.794
			s0.719-0.94,1.248-1.235c0.528-0.294,1.122-0.442,1.781-0.442s1.252,0.147,1.781,0.442c0.528,0.295,0.942,0.707,1.242,1.235
			c0.299,0.529,0.448,1.126,0.448,1.794s-0.149,1.266-0.448,1.794c-0.299,0.529-0.713,0.942-1.242,1.242
			c-0.529,0.299-1.123,0.448-1.781,0.448S86.442,138.202,85.914,137.903z M89.001,137.201c0.386-0.221,0.687-0.535,0.904-0.942
			c0.216-0.407,0.325-0.871,0.325-1.391s-0.108-0.983-0.325-1.391c-0.217-0.407-0.518-0.722-0.904-0.942
			c-0.386-0.221-0.821-0.332-1.307-0.332s-0.921,0.11-1.306,0.332c-0.386,0.221-0.689,0.535-0.91,0.942
			c-0.221,0.408-0.332,0.871-0.332,1.391s0.11,0.984,0.332,1.391s0.524,0.721,0.91,0.942c0.385,0.221,0.821,0.332,1.306,0.332
			S88.615,137.423,89.001,137.201z"/>
		<path d="M98.887,136.428c0,0.598-0.221,1.057-0.663,1.378s-1.101,0.481-1.976,0.481h-3.107v-6.838h3.016
			c0.78,0,1.391,0.152,1.833,0.455s0.663,0.736,0.663,1.3c0,0.373-0.102,0.691-0.306,0.956c-0.204,0.265-0.487,0.461-0.852,0.591
			C98.423,134.967,98.887,135.527,98.887,136.428z M94.038,134.491h2.054c0.528,0,0.934-0.1,1.215-0.299
			c0.282-0.199,0.422-0.489,0.422-0.871s-0.141-0.667-0.422-0.858c-0.282-0.19-0.687-0.286-1.215-0.286h-2.054V134.491z
			 M97.535,137.273c0.294-0.19,0.442-0.489,0.442-0.897c0-0.407-0.134-0.708-0.403-0.903c-0.269-0.195-0.693-0.292-1.274-0.292
			h-2.262v2.379h2.171C96.798,137.559,97.24,137.464,97.535,137.273z"/>
		<path d="M105.452,132.066c0.476,0.447,0.715,1.107,0.715,1.983v4.238h-0.884v-1.066c-0.208,0.355-0.513,0.633-0.917,0.832
			c-0.403,0.199-0.882,0.299-1.436,0.299c-0.763,0-1.37-0.182-1.82-0.546c-0.451-0.364-0.676-0.845-0.676-1.443
			c0-0.581,0.21-1.049,0.63-1.404c0.42-0.355,1.09-0.533,2.008-0.533h2.171v-0.416c0-0.589-0.165-1.038-0.494-1.346
			c-0.33-0.308-0.811-0.461-1.443-0.461c-0.434,0-0.85,0.071-1.248,0.214c-0.399,0.143-0.741,0.34-1.027,0.592l-0.416-0.689
			c0.347-0.295,0.763-0.522,1.248-0.683s0.997-0.241,1.534-0.241C104.291,131.397,104.975,131.62,105.452,132.066z M104.412,137.266
			c0.373-0.238,0.65-0.583,0.832-1.034v-1.118h-2.145c-1.17,0-1.755,0.407-1.755,1.222c0,0.399,0.152,0.713,0.455,0.943
			s0.728,0.344,1.274,0.344C103.593,137.624,104.039,137.505,104.412,137.266z"/>
		<path d="M113.876,131.449v6.838h-0.845v-2.262h-2.145h-0.26l-1.586,2.262h-1.001l1.703-2.392
			c-0.529-0.147-0.936-0.398-1.222-0.754s-0.429-0.806-0.429-1.352c0-0.763,0.26-1.343,0.78-1.742
			c0.52-0.398,1.23-0.598,2.132-0.598H113.876z M110.964,135.336h2.067v-3.068h-2.002c-1.334,0-2.002,0.516-2.002,1.547
			C109.027,134.829,109.672,135.336,110.964,135.336z"/>
		<path d="M58.093,145.287v9.8h-1.82v-8.274h-2.072v-1.526H58.093z"/>
		<path d="M66.228,149.41c0.513,0.247,0.915,0.6,1.204,1.057c0.29,0.458,0.434,0.985,0.434,1.582c0,0.635-0.159,1.192-0.476,1.673
			c-0.317,0.481-0.747,0.852-1.288,1.113c-0.542,0.261-1.148,0.392-1.82,0.392c-1.344,0-2.387-0.42-3.129-1.26
			c-0.742-0.84-1.113-2.044-1.113-3.612c0-1.101,0.2-2.042,0.602-2.821c0.401-0.779,0.964-1.372,1.687-1.778
			c0.724-0.406,1.561-0.609,2.513-0.609c0.504,0,0.978,0.054,1.421,0.161s0.828,0.264,1.155,0.469l-0.672,1.372
			c-0.485-0.317-1.106-0.476-1.862-0.476c-0.943,0-1.68,0.29-2.212,0.868c-0.532,0.579-0.798,1.414-0.798,2.506v0.014
			c0.289-0.336,0.658-0.59,1.106-0.763c0.448-0.172,0.952-0.259,1.512-0.259C65.135,149.039,65.714,149.162,66.228,149.41z
			 M65.569,153.343c0.354-0.303,0.532-0.707,0.532-1.211c0-0.513-0.178-0.919-0.532-1.218c-0.355-0.299-0.831-0.448-1.428-0.448
			c-0.588,0-1.066,0.159-1.435,0.476c-0.369,0.317-0.553,0.719-0.553,1.204c0,0.476,0.18,0.87,0.539,1.183
			c0.359,0.313,0.856,0.469,1.491,0.469C64.752,153.799,65.214,153.647,65.569,153.343z"/>
		<path d="M70.875,153.183c0.214,0.215,0.322,0.495,0.322,0.84c0,0.149-0.021,0.306-0.063,0.469
			c-0.042,0.164-0.128,0.409-0.259,0.735l-0.714,1.974h-1.134l0.56-2.142c-0.206-0.084-0.367-0.217-0.483-0.399
			c-0.117-0.182-0.175-0.395-0.175-0.637c0-0.345,0.107-0.625,0.322-0.84c0.214-0.215,0.485-0.322,0.812-0.322
			C70.39,152.861,70.661,152.968,70.875,153.183z"/>
		<path d="M79.611,153.547v1.54h-7.224v-1.218l3.892-3.696c0.439-0.42,0.735-0.786,0.889-1.099c0.154-0.313,0.231-0.623,0.231-0.931
			c0-0.458-0.154-0.807-0.462-1.05c-0.308-0.243-0.761-0.364-1.358-0.364c-0.999,0-1.764,0.341-2.296,1.022l-1.274-0.98
			c0.383-0.513,0.898-0.912,1.547-1.197c0.648-0.284,1.374-0.427,2.177-0.427c1.064,0,1.913,0.252,2.548,0.756
			s0.952,1.19,0.952,2.058c0,0.532-0.112,1.031-0.336,1.498s-0.653,0.999-1.288,1.596l-2.618,2.492H79.611z"/>
		<path d="M82.607,154.632c-0.616-0.396-1.102-0.975-1.456-1.736c-0.355-0.761-0.532-1.664-0.532-2.709s0.177-1.948,0.532-2.709
			c0.354-0.761,0.84-1.339,1.456-1.736c0.616-0.396,1.316-0.595,2.1-0.595c0.784,0,1.486,0.198,2.107,0.595
			c0.621,0.397,1.108,0.976,1.463,1.736c0.354,0.761,0.532,1.664,0.532,2.709s-0.178,1.948-0.532,2.709
			c-0.355,0.761-0.842,1.339-1.463,1.736c-0.621,0.397-1.323,0.595-2.107,0.595C83.923,155.227,83.223,155.028,82.607,154.632z
			 M86.366,152.777c0.406-0.579,0.609-1.442,0.609-2.59s-0.203-2.011-0.609-2.59c-0.406-0.578-0.959-0.868-1.659-0.868
			c-0.691,0-1.239,0.29-1.645,0.868c-0.406,0.579-0.609,1.442-0.609,2.59s0.203,2.011,0.609,2.59
			c0.406,0.579,0.954,0.868,1.645,0.868C85.407,153.645,85.96,153.356,86.366,152.777z"/>
	</g>
	<g>
		<path d="M53.082,312.353h9.1v0.949h-8.268v4.394l3.042,0.104c1.257,0.043,2.269,0.146,3.036,0.306s1.339,0.405,1.716,0.734
			s0.565,0.767,0.565,1.313c0,0.234-0.03,0.478-0.091,0.729l-0.858-0.078c0.035-0.147,0.052-0.29,0.052-0.429
			c0-0.382-0.151-0.691-0.455-0.93c-0.303-0.238-0.773-0.418-1.41-0.54c-0.637-0.121-1.48-0.203-2.529-0.247l-3.9-0.13V312.353z"/>
		<path d="M61.799,308.466c-0.299,0.528-0.713,0.944-1.242,1.248c-0.528,0.303-1.126,0.455-1.794,0.455s-1.265-0.152-1.794-0.455
			c-0.529-0.304-0.94-0.72-1.235-1.248c-0.294-0.528-0.442-1.122-0.442-1.781c0-0.658,0.147-1.252,0.442-1.781
			c0.295-0.528,0.707-0.942,1.235-1.241s1.126-0.448,1.794-0.448s1.266,0.149,1.794,0.448c0.529,0.299,0.942,0.713,1.242,1.241
			c0.299,0.529,0.448,1.123,0.448,1.781C62.247,307.344,62.098,307.938,61.799,308.466z M61.097,305.379
			c-0.221-0.386-0.535-0.687-0.942-0.903s-0.871-0.325-1.391-0.325s-0.983,0.108-1.391,0.325c-0.407,0.217-0.722,0.518-0.942,0.903
			c-0.221,0.386-0.332,0.821-0.332,1.307s0.11,0.921,0.332,1.307c0.221,0.386,0.535,0.688,0.942,0.91
			c0.408,0.221,0.871,0.331,1.391,0.331s0.984-0.11,1.391-0.331c0.407-0.222,0.721-0.524,0.942-0.91s0.332-0.821,0.332-1.307
			S61.318,305.764,61.097,305.379z"/>
		<path d="M61.376,294.608h2.457v0.871h-1.651v6.123h1.651v0.871h-2.457v-0.39c-0.026-0.46-0.364-0.771-1.014-0.937
			c-0.65-0.164-1.56-0.277-2.73-0.338l-2.288-0.091v-5.044h6.032V294.608z M60.083,300.212c0.628,0.121,1.06,0.338,1.293,0.649
			v-4.264h-5.213v3.289l1.521,0.078C58.655,300.007,59.455,300.09,60.083,300.212z"/>
		<path d="M59.14,286.821v1.482h3.042v0.923H59.14v1.482l3.042,2.093v1.104l-3.523-2.457l-3.315,2.263v-1.001l3.003-2.002v-1.482
			h-3.003v-0.923h3.003v-1.482l-3.003-2.015v-1.001l3.328,2.262l3.51-2.457v1.105L59.14,286.821z"/>
		<path d="M55.344,282.077v-0.923h5.434l-5.434-4.563v-0.819h6.838v0.924h-5.434l5.434,4.55v0.832H55.344z"/>
		<path d="M55.344,267.881h6.838v0.845H59.92v2.146v0.26l2.262,1.586v1.001l-2.392-1.703c-0.147,0.529-0.398,0.937-0.754,1.223
			s-0.806,0.429-1.352,0.429c-0.763,0-1.343-0.26-1.742-0.78c-0.398-0.52-0.598-1.23-0.598-2.132V267.881z M59.231,270.793v-2.067
			h-3.068v2.003c0,1.334,0.516,2.002,1.547,2.002C58.724,272.73,59.231,272.085,59.231,270.793z"/>
	</g>
	<g>
		<path d="M54.817,345.69c0.476,0.504,0.714,1.134,0.714,1.89c0,0.569-0.145,1.088-0.434,1.554c-0.29,0.468-0.726,0.838-1.309,1.113
			c-0.583,0.275-1.295,0.413-2.135,0.413c-0.7,0-1.374-0.101-2.023-0.301c-0.648-0.201-1.202-0.479-1.659-0.833l0.784-1.414
			c0.355,0.299,0.786,0.534,1.295,0.707s1.034,0.259,1.575,0.259c0.644,0,1.15-0.133,1.519-0.398
			c0.369-0.267,0.553-0.628,0.553-1.085c0-0.458-0.175-0.814-0.525-1.071c-0.35-0.257-0.884-0.385-1.603-0.385h-0.896v-1.246
			l2.226-2.646h-4.452v-1.525h6.678v1.218l-2.38,2.828C53.651,344.878,54.341,345.186,54.817,345.69z"/>
		<path d="M58.64,348.616c0.214,0.215,0.322,0.495,0.322,0.84c0,0.149-0.021,0.306-0.063,0.469
			c-0.042,0.164-0.128,0.409-0.259,0.735l-0.714,1.974h-1.134l0.56-2.142c-0.206-0.084-0.367-0.217-0.483-0.398
			c-0.117-0.183-0.175-0.395-0.175-0.638c0-0.345,0.107-0.625,0.322-0.84c0.214-0.215,0.485-0.322,0.812-0.322
			C58.154,348.294,58.425,348.401,58.64,348.616z"/>
		<path d="M67.375,348.98v1.54h-7.224v-1.218l3.892-3.696c0.439-0.42,0.735-0.786,0.889-1.1c0.154-0.313,0.231-0.623,0.231-0.931
			c0-0.457-0.154-0.807-0.462-1.05s-0.761-0.364-1.358-0.364c-0.999,0-1.764,0.341-2.296,1.022l-1.274-0.98
			c0.383-0.513,0.898-0.912,1.547-1.197c0.648-0.284,1.374-0.427,2.177-0.427c1.064,0,1.913,0.252,2.548,0.756
			s0.952,1.19,0.952,2.059c0,0.531-0.112,1.031-0.336,1.498s-0.653,0.998-1.288,1.596l-2.618,2.492H67.375z"/>
	</g>
	<g>
		<path d="M398.4,307.994v1.54h-7.224v-1.218l3.892-3.696c0.438-0.42,0.735-0.786,0.89-1.099c0.153-0.313,0.23-0.623,0.23-0.932
			c0-0.457-0.154-0.807-0.462-1.05c-0.308-0.242-0.761-0.364-1.358-0.364c-0.998,0-1.764,0.341-2.296,1.022l-1.273-0.98
			c0.382-0.513,0.897-0.912,1.547-1.196c0.648-0.285,1.374-0.428,2.177-0.428c1.064,0,1.913,0.252,2.548,0.757
			c0.635,0.504,0.952,1.189,0.952,2.058c0,0.532-0.112,1.031-0.336,1.498s-0.653,0.999-1.288,1.596l-2.618,2.492H398.4z"/>
		<path d="M401.508,307.63c0.215,0.215,0.322,0.495,0.322,0.84c0,0.149-0.021,0.307-0.063,0.47s-0.128,0.408-0.259,0.734
			l-0.714,1.975h-1.135l0.561-2.143c-0.205-0.084-0.366-0.217-0.483-0.398c-0.116-0.183-0.175-0.395-0.175-0.638
			c0-0.345,0.107-0.625,0.322-0.84c0.215-0.214,0.485-0.321,0.812-0.321C401.022,307.308,401.293,307.416,401.508,307.63z"/>
		<path d="M410.686,305.327c0.275,0.396,0.413,0.861,0.413,1.393c0,0.598-0.166,1.12-0.497,1.568
			c-0.332,0.448-0.801,0.791-1.407,1.029s-1.312,0.356-2.114,0.356s-1.505-0.118-2.106-0.356c-0.603-0.238-1.066-0.581-1.394-1.029
			c-0.326-0.448-0.49-0.971-0.49-1.568c0-0.531,0.136-0.996,0.406-1.393s0.658-0.712,1.162-0.945
			c-0.392-0.214-0.693-0.497-0.903-0.847s-0.314-0.754-0.314-1.211c0-0.551,0.151-1.031,0.455-1.442
			c0.303-0.41,0.729-0.728,1.281-0.951c0.55-0.225,1.185-0.337,1.903-0.337c0.729,0,1.367,0.112,1.918,0.337
			c0.551,0.224,0.98,0.541,1.288,0.951c0.309,0.411,0.462,0.892,0.462,1.442c0,0.457-0.107,0.858-0.321,1.204
			c-0.215,0.346-0.523,0.63-0.925,0.854C410.016,304.615,410.41,304.93,410.686,305.327z M408.677,307.826
			c0.392-0.28,0.588-0.667,0.588-1.162c0-0.485-0.196-0.868-0.588-1.147c-0.393-0.28-0.925-0.421-1.597-0.421
			s-1.199,0.141-1.582,0.421c-0.383,0.279-0.574,0.662-0.574,1.147c0,0.495,0.191,0.882,0.574,1.162s0.91,0.42,1.582,0.42
			S408.284,308.106,408.677,307.826z M405.729,301.385c-0.332,0.243-0.497,0.584-0.497,1.022c0,0.42,0.165,0.754,0.497,1.001
			c0.331,0.247,0.781,0.371,1.351,0.371c0.579,0,1.036-0.124,1.372-0.371s0.504-0.581,0.504-1.001c0-0.438-0.17-0.779-0.511-1.022
			c-0.341-0.242-0.796-0.363-1.365-0.363S406.061,301.143,405.729,301.385z"/>
	</g>
	<g>
		<path d="M400.038,174.641h-1.735v2.226h-1.765v-2.226h-5.376v-1.26l4.83-6.314h1.946l-4.55,6.034h3.206v-1.974h1.708v1.974h1.735
			V174.641z"/>
		<path d="M403.007,174.963c0.215,0.215,0.322,0.495,0.322,0.84c0,0.149-0.021,0.306-0.063,0.469
			c-0.042,0.164-0.128,0.409-0.259,0.735l-0.714,1.974h-1.135l0.561-2.142c-0.205-0.084-0.366-0.217-0.483-0.399
			c-0.116-0.182-0.175-0.395-0.175-0.637c0-0.345,0.107-0.625,0.322-0.84s0.485-0.322,0.812-0.322
			C402.521,174.641,402.792,174.748,403.007,174.963z"/>
		<path d="M406.324,176.412c-0.615-0.396-1.101-0.975-1.455-1.736c-0.355-0.761-0.532-1.664-0.532-2.709s0.177-1.948,0.532-2.709
			c0.354-0.761,0.84-1.339,1.455-1.736c0.616-0.396,1.316-0.595,2.101-0.595s1.486,0.198,2.106,0.595
			c0.621,0.397,1.108,0.976,1.464,1.736c0.354,0.761,0.531,1.664,0.531,2.709s-0.177,1.948-0.531,2.709
			c-0.355,0.761-0.843,1.339-1.464,1.736c-0.62,0.397-1.322,0.595-2.106,0.595S406.94,176.809,406.324,176.412z M410.084,174.557
			c0.405-0.579,0.608-1.442,0.608-2.59s-0.203-2.011-0.608-2.59c-0.406-0.578-0.959-0.868-1.659-0.868
			c-0.69,0-1.239,0.29-1.646,0.868c-0.405,0.579-0.608,1.442-0.608,2.59s0.203,2.011,0.608,2.59
			c0.406,0.579,0.955,0.868,1.646,0.868C409.125,175.425,409.678,175.136,410.084,174.557z"/>
	</g>
	<g>
		<path d="M362.751,82.161h-1.735v2.226h-1.765v-2.226h-5.376v-1.26l4.83-6.314h1.946l-4.55,6.034h3.206v-1.974h1.708v1.974h1.735
			V82.161z"/>
		<path d="M365.72,82.483c0.215,0.215,0.322,0.495,0.322,0.84c0,0.149-0.021,0.306-0.063,0.469
			c-0.042,0.164-0.128,0.409-0.259,0.735l-0.714,1.974h-1.135l0.561-2.142c-0.205-0.084-0.366-0.217-0.483-0.399
			c-0.116-0.182-0.175-0.395-0.175-0.637c0-0.345,0.107-0.625,0.322-0.84s0.485-0.322,0.812-0.322
			C365.234,82.161,365.505,82.268,365.72,82.483z"/>
		<path d="M374.399,74.587v1.218l-3.808,8.582h-1.946l3.682-8.26h-3.85v1.666h-1.694v-3.206H374.399z"/>
	</g>
</g>
<g>
</g>
<g>
</g>
<g>
</g>
<g>
</g>
<g>
</g>
<g>
</g>
</svg>
