<?xml version="1.0" encoding="utf-8"?>
<!-- Generator: Adobe Illustrator 23.0.2, SVG Export Plug-In . SVG Version: 6.00 Build 0)  -->
<svg version="1.1" id="Слой_1" xmlns="http://www.w3.org/2000/svg" xmlns:xlink="http://www.w3.org/1999/xlink" x="0px" y="0px"
	 viewBox="0 0 549.7 800" enable-background="new 0 0 549.7 800" xml:space="preserve">
<polygon fill="#F3F3F3" stroke="#838383" points="344.1,302.2 344.1,355 443.2,355 443.2,416.3 498.7,416.3 498.7,302.2 "/>
<g id="moyka_2_12_">
	<path fill="#F3F3F3" stroke="#838383" d="M435.5,311.5c0-1.6,1.3-2.8,2.8-2.8h41c1.6,0,2.8,1.3,2.8,2.8v33.9c0,1.6-1.3,2.8-2.8,2.8
		h-41c-1.6,0-2.8-1.3-2.8-2.8V311.5z"/>
	<path fill="#F3F3F3" stroke="#838383" d="M438.3,318.6c0-1.6,1.3-2.8,2.8-2.8h35.4c1.6,0,2.8,1.3,2.8,2.8v24c0,1.6-1.3,2.8-2.8,2.8
		h-35.4c-1.6,0-2.8-1.3-2.8-2.8V318.6z"/>
	<rect x="456.7" y="312.9" fill="#F3F3F3" stroke="#838383" width="2.8" height="11.3"/>
	<circle fill="#F3F3F3" stroke="#838383" cx="458.8" cy="332" r="2.1"/>
</g>
<g id="plita_12_">
	<rect x="356.9" y="303.1" fill="#F3F3F3" stroke="#838383" width="49.5" height="50.9"/>
	<circle fill="#F3F3F3" stroke="#838383" cx="392.2" cy="341.3" r="8.5"/>
	<circle fill="#F3F3F3" stroke="#838383" cx="371" cy="320.1" r="8.5"/>
	<circle fill="#F3F3F3" stroke="#838383" cx="371" cy="341.3" r="7.1"/>
	<circle fill="#F3F3F3" stroke="#838383" cx="392.2" cy="320.1" r="7.1"/>
</g>
<g id="stirka_10_">
	<rect x="354.7" y="31.6" fill="#F3F3F3" stroke="#838383" width="42.4" height="42.4"/>
	<path fill="#F3F3F3" stroke="#838383" d="M394.3,35.8c0,1.6-1.3,2.8-2.8,2.8h-9.9c-1.6,0-2.8-1.3-2.8-2.8v-4.2h15.6V35.8z"/>
	<circle fill="#F3F3F3" stroke="#838383" cx="375.9" cy="54.2" r="11.3"/>
	<circle fill="#F3F3F3" stroke="#838383" cx="375.9" cy="54.2" r="8.5"/>
	<circle fill="#F3F3F3" stroke="#838383" cx="361.8" cy="38.6" r="2.8"/>
</g>
<g id="unitaz_15_">
	<path fill="#F3F3F3" stroke="#838383" d="M491.7,117.2h-9.9c-1.6,0-2.8-1.3-2.8-2.8V89c0-1.6,1.3-2.8,2.8-2.8h9.9V117.2z"/>
	<path fill="#F3F3F3" stroke="#838383" d="M478.9,114.4c0,1.6-1.3,2.8-2.8,2.8V86.1c1.6,0,2.8,1.3,2.8,2.8V114.4z"/>
	<path fill="#F3F3F3" stroke="#838383" d="M439.3,101.7c0-21.9,36.8-15.6,36.8-15.6v31.1C476.1,117.2,439.3,123.6,439.3,101.7z"/>
	<circle fill="#F3F3F3" stroke="#838383" cx="486" cy="101.7" r="2.8"/>
</g>
<g id="moyka_14_">
	<path fill="#F3F3F3" stroke="#838383" d="M492.1,206.7c0,0.9-0.7,1.5-1.5,1.5h-30.9c-0.9,0-1.5-0.7-1.5-1.5v-46.3
		c0-0.9,0.7-1.5,1.5-1.5h30.9c0.9,0,1.5,0.7,1.5,1.5V206.7z"/>
	<rect x="484.4" y="158.9" fill="#F3F3F3" stroke="#838383" width="3.1" height="49.4"/>
	<ellipse fill="#F3F3F3" stroke="#838383" cx="471.3" cy="184.3" rx="10" ry="16.2"/>
	<rect x="475.2" y="182" fill="#F3F3F3" stroke="#838383" width="12.3" height="3.1"/>
	<circle fill="#F3F3F3" stroke="#838383" cx="469.8" cy="182.8" r="2.3"/>
</g>
<g id="vanna_12_">
	<rect x="358" y="235.2" fill="#F3F3F3" stroke="#838383" width="134.6" height="53.7"/>
	<path fill="#F3F3F3" stroke="#838383" d="M366.3,253.6c0-7.8,6.2-14.1,13.9-14.1h93v45.3h-93c-7.7,0-13.9-6.3-13.9-14.1V253.6z"/>
	<path fill="#F3F3F3" stroke="#838383" d="M480.2,268.5v-19.1h-4.9v11.3"/>
	<path id="Union_12_" fill="#F3F3F3" stroke="#838383" d="M481.6,269.2c0-0.8-0.6-1.4-1.4-1.4c-0.8,0-1.4,0.6-1.4,1.4v1.7
		c-1.6,0.6-2.8,2.2-2.8,4c0,2.3,1.9,4.2,4.2,4.2c2.3,0,4.2-1.9,4.2-4.2c0-1.8-1.2-3.4-2.8-4V269.2z"/>
	<rect x="466.3" y="260.7" fill="#F3F3F3" stroke="#838383" width="11.1" height="2.8"/>
</g>
<rect x="329.1" y="777.7" fill="#FFFFFF" stroke="#000000" stroke-miterlimit="10" width="125.5" height="6.6"/>
<rect x="329.1" y="777.7" fill="#FFFFFF" stroke="#000000" stroke-miterlimit="10" width="12.1" height="6.6"/>
<rect x="388.4" y="777.7" fill="#FFFFFF" stroke="#000000" stroke-miterlimit="10" width="6.6" height="6.6"/>
<rect x="442.3" y="777.7" fill="#FFFFFF" stroke="#000000" stroke-miterlimit="10" width="12.2" height="6.6"/>
<rect x="329.1" y="763.2" fill="#FFFFFF" stroke="#000000" stroke-miterlimit="10" width="125.5" height="14.5"/>
<rect x="335.1" y="784.3" fill="#FFFFFF" stroke="#000000" stroke-miterlimit="10" width="113.8" height="11.7"/>
<line fill="#FFFFFF" stroke="#000000" stroke-miterlimit="10" x1="344.1" y1="111.1" x2="312.5" y2="165.4"/>
<line fill="#FFFFFF" stroke="#000000" stroke-miterlimit="10" x1="47.5" y1="122.8" x2="7.6" y2="52.7"/>
<rect x="235.6" y="784.3" fill="#838383" stroke="#000000" stroke-miterlimit="10" width="99.5" height="11.7"/>
<rect x="235.6" y="186.1" fill="#838383" stroke="#000000" stroke-miterlimit="10" width="24.9" height="598.2"/>
<rect x="260.5" y="763.2" fill="#838383" stroke="#000000" stroke-miterlimit="10" width="68.6" height="21.1"/>
<rect x="448.9" y="784.3" fill="#838383" stroke="#000000" stroke-miterlimit="10" width="92.3" height="11.7"/>
<rect x="454.6" y="763.2" fill="#838383" stroke="#000000" stroke-miterlimit="10" width="44.1" height="21.1"/>
<rect x="498.7" y="6" fill="#838383" stroke="#000000" stroke-miterlimit="10" width="42.6" height="778.3"/>
<rect x="47.5" y="168.2" fill="#838383" stroke="#000000" stroke-miterlimit="10" width="213" height="17.9"/>
<rect x="47.5" y="122.8" fill="#838383" stroke="#000000" stroke-miterlimit="10" width="23" height="45.4"/>
<rect x="47.5" y="15" fill="#838383" stroke="#000000" stroke-miterlimit="10" width="23" height="29"/>
<rect x="70.5" y="15" fill="#838383" stroke="#000000" stroke-miterlimit="10" width="180.9" height="14.5"/>
<rect x="251.4" y="6" fill="#838383" stroke="#000000" stroke-miterlimit="10" width="247.3" height="23.6"/>
<rect x="344.1" y="29.5" fill="#C6C6C6" stroke="#000000" stroke-miterlimit="10" width="9.6" height="81.6"/>
<rect x="344.1" y="174.4" fill="#C6C6C6" stroke="#000000" stroke-miterlimit="10" width="9.6" height="127.8"/>
<rect x="353.7" y="292.6" fill="#C6C6C6" stroke="#000000" stroke-miterlimit="10" width="144.9" height="9.6"/>
<rect x="491.3" y="29.5" fill="#C6C6C6" stroke="#000000" stroke-miterlimit="10" width="7.4" height="263.1"/>
<rect x="405.9" y="29.5" fill="#C6C6C6" stroke="#000000" stroke-miterlimit="10" width="7.4" height="42.2"/>
<rect x="413.3" y="64.4" fill="#C6C6C6" stroke="#000000" stroke-miterlimit="10" width="50.7" height="7.4"/>
<rect x="464" y="68.8" fill="#C6C6C6" stroke="#000000" stroke-miterlimit="10" width="27.3" height="2.9"/>
<g>
	<path d="M423.2,705.6v17.6h-2.5v-15.4h-4v-2.2H423.2z"/>
	<path d="M440.1,715.6c0.5,0.7,0.8,1.6,0.8,2.6c0,1.1-0.3,2-0.9,2.8c-0.6,0.8-1.4,1.4-2.4,1.8c-1.1,0.4-2.3,0.6-3.7,0.6
		c-1.4,0-2.6-0.2-3.7-0.6c-1-0.4-1.9-1-2.4-1.8s-0.9-1.7-0.9-2.8c0-1,0.3-1.9,0.8-2.6s1.3-1.3,2.3-1.7c-0.8-0.4-1.4-0.9-1.8-1.5
		c-0.4-0.6-0.6-1.4-0.6-2.3c0-1,0.3-1.8,0.8-2.5c0.5-0.7,1.3-1.3,2.2-1.7c1-0.4,2.1-0.6,3.3-0.6c1.3,0,2.4,0.2,3.4,0.6
		s1.7,0.9,2.2,1.7s0.8,1.6,0.8,2.5c0,0.9-0.2,1.6-0.6,2.3c-0.4,0.6-1,1.2-1.9,1.5C438.8,714.3,439.6,714.9,440.1,715.6z
		 M437.2,720.5c0.8-0.6,1.2-1.4,1.2-2.4c0-1-0.4-1.7-1.2-2.3c-0.8-0.6-1.9-0.8-3.3-0.8c-1.4,0-2.5,0.3-3.3,0.8s-1.2,1.3-1.2,2.3
		c0,1,0.4,1.8,1.2,2.4s1.9,0.9,3.3,0.9C435.3,721.4,436.4,721.1,437.2,720.5z M431.1,708.2c-0.7,0.5-1,1.2-1,2.1
		c0,0.9,0.3,1.6,1,2.1c0.7,0.5,1.6,0.8,2.8,0.8c1.2,0,2.2-0.3,2.9-0.8c0.7-0.5,1-1.2,1-2.1c0-0.9-0.4-1.6-1.1-2.1
		c-0.7-0.5-1.7-0.8-2.9-0.8S431.8,707.7,431.1,708.2z"/>
	<path d="M446.3,720.4c0.3,0.3,0.5,0.7,0.5,1.2c0,0.3,0,0.5-0.1,0.7c-0.1,0.2-0.2,0.6-0.3,1.1l-1.2,3.5h-1.6l0.9-3.8
		c-0.3-0.1-0.6-0.3-0.8-0.6c-0.2-0.3-0.3-0.6-0.3-1c0-0.5,0.2-0.9,0.5-1.2c0.3-0.3,0.7-0.5,1.2-0.5
		C445.6,719.9,446,720.1,446.3,720.4z"/>
	<path d="M461.7,705.6v1.7l-7.1,15.9h-2.7l7-15.4h-8.1v3.1h-2.4v-5.3H461.7z"/>
</g>
<g>
	<path d="M400.9,181c1.2,0.9,1.8,2.2,1.8,3.9c0,1-0.2,2-0.7,2.8s-1.2,1.5-2.2,2c-1,0.5-2.2,0.7-3.7,0.7c-1.2,0-2.4-0.2-3.6-0.6
		c-1.2-0.4-2.1-0.9-2.9-1.6l1.2-2c0.6,0.6,1.4,1,2.3,1.4s1.9,0.5,3,0.5c1.3,0,2.4-0.3,3.1-0.8c0.7-0.6,1.1-1.3,1.1-2.3
		c0-1.1-0.4-1.9-1.2-2.4s-2.2-0.8-4.1-0.8h-4l0.9-9.2h9.9v2.2h-7.8l-0.5,4.8h2C397.9,179.6,399.7,180.1,400.9,181z"/>
	<path d="M407.6,187.4c0.3,0.3,0.5,0.7,0.5,1.2c0,0.3,0,0.5-0.1,0.7c-0.1,0.2-0.2,0.6-0.3,1.1l-1.2,3.5h-1.6l0.9-3.8
		c-0.3-0.1-0.6-0.3-0.8-0.6c-0.2-0.3-0.3-0.6-0.3-1c0-0.5,0.2-0.9,0.5-1.2c0.3-0.3,0.7-0.5,1.2-0.5
		C406.9,186.9,407.3,187,407.6,187.4z"/>
	<path d="M415.6,172.6v17.6h-2.5v-15.4h-4v-2.2H415.6z"/>
</g>
<g>
	<path d="M152.3,84.2c1.2,0.9,1.8,2.2,1.8,3.9c0,1-0.2,2-0.7,2.8c-0.5,0.8-1.2,1.5-2.2,2c-1,0.5-2.2,0.7-3.7,0.7
		c-1.2,0-2.4-0.2-3.6-0.6c-1.2-0.4-2.1-0.9-2.9-1.6l1.2-2c0.6,0.6,1.4,1,2.3,1.4s1.9,0.5,3,0.5c1.3,0,2.4-0.3,3.1-0.8
		c0.7-0.6,1.1-1.3,1.1-2.3c0-1.1-0.4-1.9-1.2-2.4c-0.8-0.5-2.2-0.8-4.1-0.8h-4l0.9-9.2h9.9v2.2h-7.8l-0.5,4.8h2
		C149.3,82.8,151.2,83.2,152.3,84.2z"/>
	<path d="M159.1,90.5c0.3,0.3,0.5,0.7,0.5,1.2c0,0.3,0,0.5-0.1,0.7c-0.1,0.2-0.2,0.6-0.3,1.1l-1.2,3.5h-1.6l0.9-3.8
		c-0.3-0.1-0.6-0.3-0.8-0.6s-0.3-0.6-0.3-1c0-0.5,0.2-0.9,0.5-1.2c0.3-0.3,0.7-0.5,1.2-0.5C158.4,90.1,158.8,90.2,159.1,90.5z"/>
	<path d="M172.5,84.2c1.2,0.9,1.8,2.2,1.8,3.9c0,1-0.2,2-0.7,2.8c-0.5,0.8-1.2,1.5-2.2,2c-1,0.5-2.2,0.7-3.7,0.7
		c-1.2,0-2.4-0.2-3.6-0.6c-1.2-0.4-2.1-0.9-2.9-1.6l1.2-2c0.6,0.6,1.4,1,2.3,1.4s1.9,0.5,3,0.5c1.3,0,2.4-0.3,3.1-0.8
		c0.7-0.6,1.1-1.3,1.1-2.3c0-1.1-0.4-1.9-1.2-2.4c-0.8-0.5-2.2-0.8-4.1-0.8h-4l0.9-9.2h9.9v2.2h-7.8l-0.5,4.8h2
		C169.5,82.8,171.3,83.2,172.5,84.2z"/>
</g>
<g>
	
		<rect x="493.7" y="426" fill-rule="evenodd" clip-rule="evenodd" fill="#F1F2F2" stroke="#848484" stroke-miterlimit="10" width="3.5" height="48.9"/>
	
		<rect x="493.7" y="426" fill-rule="evenodd" clip-rule="evenodd" fill="#F1F2F2" stroke="#848484" stroke-miterlimit="10" width="3.5" height="48.9"/>
	
		<rect x="437.7" y="459.3" fill-rule="evenodd" clip-rule="evenodd" fill="#F1F2F2" stroke="#848484" stroke-miterlimit="10" width="4.7" height="16.1"/>
	
		<rect x="437.7" y="459.3" fill-rule="evenodd" clip-rule="evenodd" fill="#F1F2F2" stroke="#848484" stroke-miterlimit="10" width="4.7" height="16.1"/>
	
		<rect x="440.5" y="423.8" fill-rule="evenodd" clip-rule="evenodd" fill="#F1F2F2" stroke="#848484" stroke-miterlimit="10" width="53.6" height="53.7"/>
	
		<rect x="440.5" y="423.8" fill-rule="evenodd" clip-rule="evenodd" fill="#F1F2F2" stroke="#848484" stroke-miterlimit="10" width="53.6" height="53.7"/>
	<path fill-rule="evenodd" clip-rule="evenodd" fill="#F1F2F2" stroke="#848484" stroke-miterlimit="10" d="M445.3,423.8l0,53.7
		L445.3,423.8z"/>
	<path fill-rule="evenodd" clip-rule="evenodd" fill="#F1F2F2" stroke="#848484" stroke-miterlimit="10" d="M445.5,421.2
		c1,0,2.1,0.9,2.1,2.1c0,1.3-1,2.1-2.1,2.1c-1.3,0-2.3-0.9-2.3-2.1C443.2,422.2,444.2,421.2,445.5,421.2z"/>
	<path fill-rule="evenodd" clip-rule="evenodd" fill="#F1F2F2" stroke="#848484" stroke-miterlimit="10" d="M445.5,421.2
		c1,0,2.1,0.9,2.1,2.1c0,1.3-1,2.1-2.1,2.1c-1.3,0-2.3-0.9-2.3-2.1C443.2,422.2,444.2,421.2,445.5,421.2z"/>
	<path fill-rule="evenodd" clip-rule="evenodd" fill="#F1F2F2" stroke="#848484" stroke-miterlimit="10" d="M472.9,450.9h-9.4H472.9
		z"/>
	<path fill-rule="evenodd" clip-rule="evenodd" fill="#F1F2F2" stroke="#848484" stroke-miterlimit="10" d="M468.3,446.3l0,9.4
		L468.3,446.3z"/>
	<path fill-rule="evenodd" clip-rule="evenodd" fill="#F1F2F2" stroke="#848484" stroke-miterlimit="10" d="M464.8,447.6l6.9,6.9
		L464.8,447.6z"/>
	<path fill-rule="evenodd" clip-rule="evenodd" fill="#F1F2F2" stroke="#848484" stroke-miterlimit="10" d="M464.8,454.4l6.9-6.9
		L464.8,454.4z"/>
	<path fill-rule="evenodd" clip-rule="evenodd" fill="#F1F2F2" stroke="#848484" stroke-miterlimit="10" d="M473.2,437h-9.4H473.2z"
		/>
	<path fill-rule="evenodd" clip-rule="evenodd" fill="#F1F2F2" stroke="#848484" stroke-miterlimit="10" d="M468.6,432.3v9.4V432.3z
		"/>
	<path fill-rule="evenodd" clip-rule="evenodd" fill="#F1F2F2" stroke="#848484" stroke-miterlimit="10" d="M465.1,433.7l6.9,6.9
		L465.1,433.7z"/>
	<path fill-rule="evenodd" clip-rule="evenodd" fill="#F1F2F2" stroke="#848484" stroke-miterlimit="10" d="M465.1,440.5l6.9-6.9
		L465.1,440.5z"/>
	<path fill-rule="evenodd" clip-rule="evenodd" fill="#F1F2F2" stroke="#848484" stroke-miterlimit="10" d="M472.9,464.5h-9.4H472.9
		z"/>
	<path fill-rule="evenodd" clip-rule="evenodd" fill="#F1F2F2" stroke="#848484" stroke-miterlimit="10" d="M468.3,459.9v9.4V459.9z
		"/>
	<path fill-rule="evenodd" clip-rule="evenodd" fill="#F1F2F2" stroke="#848484" stroke-miterlimit="10" d="M464.8,461.2l6.9,6.9
		L464.8,461.2z"/>
	<path fill-rule="evenodd" clip-rule="evenodd" fill="#F1F2F2" stroke="#848484" stroke-miterlimit="10" d="M464.8,467.9l6.9-6.9
		L464.8,467.9z"/>
</g>
<g>
	<path fill-rule="evenodd" clip-rule="evenodd" fill="#F1F2F2" stroke="#848484" stroke-miterlimit="10" d="M371.6,760.2h-57.4H268
		c-3.1,0-5.6-2.5-5.6-5.6v-46.3v-140c0-3.1,2.5-5.6,5.6-5.6h46.2c3.1,0,5.6,2.5,5.6,5.6v128.8c0,3.1,2.5,5.6,5.6,5.6h46.2
		c3.1,0,5.6,2.5,5.6,5.6v46.3C377.2,757.7,374.7,760.2,371.6,760.2z"/>
	<g>
		<path fill-rule="evenodd" clip-rule="evenodd" fill="#F1F2F2" stroke="#848484" stroke-miterlimit="10" d="M310.6,702.7
			c6.5,0,9.3,0.3,9.3,8.6V736c0,8.3-2.8,8.6-9.3,8.6h-24.5c-6.5,0-9.3-0.3-9.3-8.6v-24.6c0-8.3,2.8-8.6,9.3-8.6H310.6z"/>
		<path fill-rule="evenodd" clip-rule="evenodd" fill="#F1F2F2" stroke="#848484" stroke-miterlimit="10" d="M310.6,702.7
			c6.5,0,9.3,0.3,9.3,8.6V736c0,8.3-2.8,8.6-9.3,8.6h-24.5c-6.5,0-9.3-0.3-9.3-8.6v-24.6c0-8.3,2.8-8.6,9.3-8.6H310.6z"/>
		<path fill-rule="evenodd" clip-rule="evenodd" fill="#F1F2F2" stroke="#848484" stroke-miterlimit="10" d="M310.6,661.1
			c6.5,0,9.3,0.3,9.3,8.6v24.6c0,8.3-2.8,8.6-9.3,8.6h-24.5c-6.5,0-9.3-0.3-9.3-8.6v-24.6c0-8.3,2.8-8.6,9.3-8.6H310.6z"/>
		<path fill-rule="evenodd" clip-rule="evenodd" fill="#F1F2F2" stroke="#848484" stroke-miterlimit="10" d="M310.6,661.1
			c6.5,0,9.3,0.3,9.3,8.6v24.6c0,8.3-2.8,8.6-9.3,8.6h-24.5c-6.5,0-9.3-0.3-9.3-8.6v-24.6c0-8.3,2.8-8.6,9.3-8.6H310.6z"/>
		<path fill-rule="evenodd" clip-rule="evenodd" fill="#F1F2F2" stroke="#848484" stroke-miterlimit="10" d="M310.6,619.7
			c6.5,0,9.3,0.3,9.3,8.5v24.7c0,8.3-2.8,8.5-9.3,8.5h-24.5c-6.5,0-9.3-0.3-9.3-8.5v-24.7c0-8.3,2.8-8.5,9.3-8.5H310.6z"/>
		<path fill-rule="evenodd" clip-rule="evenodd" fill="#F1F2F2" stroke="#848484" stroke-miterlimit="10" d="M310.6,619.7
			c6.5,0,9.3,0.3,9.3,8.5v24.7c0,8.3-2.8,8.5-9.3,8.5h-24.5c-6.5,0-9.3-0.3-9.3-8.5v-24.7c0-8.3,2.8-8.5,9.3-8.5H310.6z"/>
		<path fill-rule="evenodd" clip-rule="evenodd" fill="#F1F2F2" stroke="#848484" stroke-miterlimit="10" d="M353.6,702.7
			c6.5,0,9.3,0.3,9.3,8.6V736c0,8.3-2.8,8.6-9.3,8.6h-24.5c-6.5,0-9.3-0.3-9.3-8.6v-24.6c0-8.3,2.8-8.6,9.3-8.6H353.6z"/>
		<path fill-rule="evenodd" clip-rule="evenodd" fill="#F1F2F2" stroke="#848484" stroke-miterlimit="10" d="M310.5,578.2
			c6.5,0,9.3,0.3,9.3,8.5v24.7c0,8.3-2.8,8.5-9.3,8.5h-24.5c-6.5,0-9.3-0.3-9.3-8.5v-24.7c0-8.3,2.8-8.5,9.3-8.5H310.5z"/>
		<path fill-rule="evenodd" clip-rule="evenodd" fill="#F1F2F2" stroke="#848484" stroke-miterlimit="10" d="M268.4,760.2h100.4h2.5
			c3.3,0,5.9-2.9,5.9-6.4v-2.6v-42c0-3.5-2.7-6.4-5.9-6.4h-2.5c-3.3,0-5.9,2.9-5.9,6.4v35.7h-86.1V578.2h37.1c3.3,0,5.9-2.9,5.9-6.4
			v-2.6c0-3.5-2.7-6.4-5.9-6.4h-43.1h-2.5c-3.3,0-5.9,2.9-5.9,6.4v2.6v179.4v2.6v0C262.5,757.3,265.1,760.2,268.4,760.2z"/>
	</g>
</g>
<g>
	
		<rect x="72.6" y="122.3" transform="matrix(-1 -4.488999e-11 4.488999e-11 -1 275.0042 289.4265)" fill-rule="evenodd" clip-rule="evenodd" fill="#F1F2F2" stroke="#848484" stroke-miterlimit="10" width="129.8" height="44.8"/>
	<line fill="#F1F2F2" stroke="#848484" stroke-miterlimit="10" x1="197.7" y1="122.3" x2="197.7" y2="167.2"/>
	<line fill="#F1F2F2" stroke="#848484" stroke-miterlimit="10" x1="77.4" y1="122.3" x2="77.4" y2="167.1"/>
	<line fill="#F1F2F2" stroke="#848484" stroke-miterlimit="10" x1="197.7" y1="165" x2="77.4" y2="165"/>
	<line fill="#F1F2F2" stroke="#848484" stroke-miterlimit="10" x1="81.6" y1="144.4" x2="193.5" y2="144.4"/>
	
		<rect x="186.3" y="131" transform="matrix(-0.9868 0.162 -0.162 -0.9868 396.3516 256.9379)" fill="#F1F2F2" stroke="#848484" stroke-miterlimit="10" width="2.8" height="27.3"/>
	
		<rect x="176.2" y="131" transform="matrix(-0.9961 8.815246e-02 -8.815246e-02 -0.9961 367.3537 273.0259)" fill="#F1F2F2" stroke="#848484" stroke-miterlimit="10" width="2.8" height="27.3"/>
	
		<rect x="166.1" y="130.7" transform="matrix(-0.9734 0.229 -0.229 -0.9734 363.552 246.5952)" fill="#F1F2F2" stroke="#848484" stroke-miterlimit="10" width="2.8" height="27.3"/>
	
		<rect x="154.7" y="131" transform="matrix(-0.9884 0.152 -0.152 -0.9884 332.4027 263.9748)" fill="#F1F2F2" stroke="#848484" stroke-miterlimit="10" width="2.8" height="27.3"/>
	
		<rect x="144.8" y="130.9" transform="matrix(-0.999 4.511170e-02 -4.511170e-02 -0.999 298.7754 282.3448)" fill="#F1F2F2" stroke="#848484" stroke-miterlimit="10" width="2.8" height="27.3"/>
	
		<rect x="134.8" y="130.9" transform="matrix(-0.9884 0.152 -0.152 -0.9884 292.7385 266.703)" fill="#F1F2F2" stroke="#848484" stroke-miterlimit="10" width="2.8" height="27.3"/>
	
		<rect x="124.6" y="130.7" transform="matrix(-0.999 4.511170e-02 -4.511170e-02 -0.999 258.362 282.9521)" fill="#F1F2F2" stroke="#848484" stroke-miterlimit="10" width="2.8" height="27.3"/>
	
		<rect x="114.6" y="130.7" transform="matrix(-0.9787 0.2052 -0.2052 -0.9787 259.1617 261.9113)" fill="#F1F2F2" stroke="#848484" stroke-miterlimit="10" width="2.8" height="27.3"/>
	
		<rect x="104.6" y="130.8" transform="matrix(-0.9884 0.152 -0.152 -0.9884 232.7591 271.0417)" fill="#F1F2F2" stroke="#848484" stroke-miterlimit="10" width="2.8" height="27.3"/>
	
		<rect x="94.6" y="130.7" transform="matrix(-0.9964 8.473843e-02 -8.473843e-02 -0.9964 203.9526 280.1258)" fill="#F1F2F2" stroke="#848484" stroke-miterlimit="10" width="2.8" height="27.3"/>
	
		<rect x="84.6" y="131.1" transform="matrix(-0.9713 0.2379 -0.2379 -0.9713 204.0533 264.8212)" fill="#F1F2F2" stroke="#848484" stroke-miterlimit="10" width="2.8" height="27.3"/>
</g>
<g>
	<path fill-rule="evenodd" clip-rule="evenodd" fill="#F1F2F2" stroke="#848484" stroke-miterlimit="10" d="M497.2,551.7V576h-20.1
		v-24.2H497.2L497.2,551.7z M497.2,666.3h-30.1V576h30.1V666.3z"/>
	<path fill-rule="evenodd" clip-rule="evenodd" fill="#F1F2F2" stroke="#848484" stroke-miterlimit="10" d="M486.5,630.1
		c5.2,0,5.7-4.7,5.7-10.6c0-5.8-0.5-10.6-5.7-10.6s-9.5,4.7-9.5,10.6C477,625.4,481.2,630.1,486.5,630.1z"/>
	
		<rect x="481.5" y="584" fill-rule="evenodd" clip-rule="evenodd" fill="#F1F2F2" stroke="#848484" stroke-miterlimit="10" width="4" height="70.9"/>
	
		<rect x="481.5" y="584" fill-rule="evenodd" clip-rule="evenodd" fill="#F1F2F2" stroke="#848484" stroke-miterlimit="10" width="4" height="70.9"/>
	<polygon fill-rule="evenodd" clip-rule="evenodd" fill="#F1F2F2" stroke="#848484" stroke-miterlimit="10" points="485.3,648.9 
		488.6,637.5 488.6,601.5 485.3,590.1 	"/>
	<polygon fill-rule="evenodd" clip-rule="evenodd" fill="#F1F2F2" stroke="#848484" stroke-miterlimit="10" points="485.3,648.9 
		488.6,637.5 488.6,601.5 485.3,590.1 	"/>
	<path fill-rule="evenodd" clip-rule="evenodd" fill="#F1F2F2" stroke="#848484" stroke-miterlimit="10" d="M474.9,553.8v20h-2v-20
		H474.9L474.9,553.8z M497.2,666.3v24.2H477v-24.2H497.2L497.2,666.3z M474.9,688.5h-2v-20h2V688.5z"/>
</g>
<g>
	<g>
		<path fill="#F1F2F2" stroke="#848484" stroke-miterlimit="10" d="M343.2,417.4c8.1,0,14.7-2.4,14.7-5.4c0-3-6.6-5.4-14.7-5.4
			c-8.1,0-14.7,2.4-14.7,5.4C328.5,414.9,335.1,417.4,343.2,417.4z"/>
		<path fill="#F1F2F2" stroke="#848484" stroke-miterlimit="10" d="M343.2,441.9c8.1,0,14.7-6.6,14.7-14.7s-6.6-14.7-14.7-14.7
			c-8.1,0-14.7,6.6-14.7,14.7S335.1,441.9,343.2,441.9z"/>
	</g>
	<g>
		<path fill="#F1F2F2" stroke="#848484" stroke-miterlimit="10" d="M343.2,491.4c-8.1,0-14.7,2.4-14.7,5.4c0,3,6.6,5.4,14.7,5.4
			s14.7-2.4,14.7-5.4C357.9,493.8,351.3,491.4,343.2,491.4z"/>
		<path fill="#F1F2F2" stroke="#848484" stroke-miterlimit="10" d="M343.2,466.8c-8.1,0-14.7,6.6-14.7,14.7
			c0,8.1,6.6,14.7,14.7,14.7s14.7-6.6,14.7-14.7C357.9,473.4,351.3,466.8,343.2,466.8z"/>
	</g>
	<g>
		<path fill="#F1F2F2" stroke="#848484" stroke-miterlimit="10" d="M308.5,453.8c0-8.1-2.4-14.7-5.4-14.7c-3,0-5.4,6.6-5.4,14.7
			c0,8.1,2.4,14.7,5.4,14.7C306.1,468.5,308.5,461.9,308.5,453.8z"/>
		<path fill="#F1F2F2" stroke="#848484" stroke-miterlimit="10" d="M333,453.8c0-8.1-6.6-14.7-14.7-14.7c-8.1,0-14.7,6.6-14.7,14.7
			c0,8.1,6.6,14.7,14.7,14.7C326.5,468.5,333,461.9,333,453.8z"/>
	</g>
	<g>
		<path fill="#F1F2F2" stroke="#848484" stroke-miterlimit="10" d="M377.9,453.8c0,8.1,2.4,14.7,5.4,14.7c3,0,5.4-6.6,5.4-14.7
			c0-8.1-2.4-14.7-5.4-14.7C380.4,439.1,377.9,445.7,377.9,453.8z"/>
		<path fill="#F1F2F2" stroke="#848484" stroke-miterlimit="10" d="M353.4,453.8c0,8.1,6.6,14.7,14.7,14.7c8.1,0,14.7-6.6,14.7-14.7
			c0-8.1-6.6-14.7-14.7-14.7C360,439.1,353.4,445.7,353.4,453.8z"/>
	</g>
	
		<rect x="313.6" y="424.2" transform="matrix(6.123234e-17 -1 1 6.123234e-17 -110.577 797.0032)" fill="#F1F2F2" stroke="#848484" stroke-miterlimit="10" width="59.2" height="59.2"/>
</g>
<g>
</g>
<g>
</g>
<g>
</g>
<g>
</g>
<g>
</g>
<g>
</g>
</svg>
