<?xml version="1.0" encoding="utf-8"?>
<!-- Generator: Adobe Illustrator 23.0.2, SVG Export Plug-In . SVG Version: 6.00 Build 0)  -->
<svg version="1.1" id="Слой_1" xmlns="http://www.w3.org/2000/svg" xmlns:xlink="http://www.w3.org/1999/xlink" x="0px" y="0px"
	 viewBox="0 0 800 782.3" enable-background="new 0 0 800 782.3" xml:space="preserve">
<polygon fill="#F3F3F3" stroke="#838383" points="306,150.1 306,30.3 91.4,30.3 91.4,82.5 251.6,82.5 251.6,150.1 "/>
<g>
	
		<rect x="115.7" y="638.5" transform="matrix(6.123234e-17 -1 1 6.123234e-17 -633.5204 890.8874)" fill="#FFFFFF" stroke="#000000" stroke-miterlimit="10" width="25.9" height="247.4"/>
	
		<rect x="132.1" y="644" transform="matrix(6.123234e-17 -1 1 6.123234e-17 -623.2095 896.3242)" fill="#FFFFFF" stroke="#000000" stroke-miterlimit="10" width="9" height="231.6"/>
	
		<rect x="132.9" y="645.9" transform="matrix(6.123234e-17 -1 1 6.123234e-17 -625.1553 894.1909)" fill="#FFFFFF" stroke="#000000" stroke-miterlimit="10" width="3.2" height="227.5"/>
</g>
<g id="moyka_2_10_">
	<path fill="#F3F3F3" stroke="#838383" d="M262.6,140.9c-1.6,0-2.8-1.3-2.8-2.8V97.3c0-1.6,1.3-2.8,2.8-2.8h33.8
		c1.6,0,2.8,1.3,2.8,2.8v40.8c0,1.6-1.3,2.8-2.8,2.8H262.6z"/>
	<path fill="#F3F3F3" stroke="#838383" d="M265.4,138.1c-1.6,0-2.8-1.3-2.8-2.8v-35.2c0-1.6,1.3-2.8,2.8-2.8h23.9
		c1.6,0,2.8,1.3,2.8,2.8v35.2c0,1.6-1.3,2.8-2.8,2.8H265.4z"/>
	<rect x="283.7" y="117" fill="#F3F3F3" stroke="#838383" width="11.3" height="2.8"/>
	<circle fill="#F3F3F3" stroke="#838383" cx="275.9" cy="117.7" r="2.1"/>
</g>
<g id="plita_10_">
	<rect x="167.8" y="31.9" fill="#F3F3F3" stroke="#838383" width="49.2" height="50.6"/>
	<circle fill="#F3F3F3" stroke="#838383" cx="181.9" cy="69.9" r="8.4"/>
	<circle fill="#F3F3F3" stroke="#838383" cx="203" cy="48.8" r="8.4"/>
	<circle fill="#F3F3F3" stroke="#838383" cx="203" cy="69.9" r="7"/>
	<circle fill="#F3F3F3" stroke="#838383" cx="181.9" cy="48.8" r="7"/>
</g>
<g id="unitaz_13_">
	<path fill="#F3F3F3" stroke="#838383" d="M685.6,169.4v9.8c0,1.6-1.3,2.8-2.8,2.8h-25.3c-1.6,0-2.8-1.3-2.8-2.8v-9.8H685.6z"/>
	<path fill="#F3F3F3" stroke="#838383" d="M682.8,182.1c1.6,0,2.8,1.3,2.8,2.8h-30.9c0-1.6,1.3-2.8,2.8-2.8H682.8z"/>
	<path fill="#F3F3F3" stroke="#838383" d="M654.7,184.9h30.9c0,0,6.3,36.6-15.5,36.6C648.4,221.4,654.7,184.9,654.7,184.9z"/>
	<circle fill="#F3F3F3" stroke="#838383" cx="670.2" cy="175" r="2.8"/>
</g>
<g id="unitaz_14_">
	<path fill="#F3F3F3" stroke="#838383" d="M551.8,169.8v9.8c0,1.6-1.3,2.8-2.8,2.8h-25.3c-1.6,0-2.8-1.3-2.8-2.8v-9.8H551.8z"/>
	<path fill="#F3F3F3" stroke="#838383" d="M549,182.4c1.6,0,2.8,1.3,2.8,2.8h-30.9c0-1.6,1.3-2.8,2.8-2.8H549z"/>
	<path fill="#F3F3F3" stroke="#838383" d="M520.8,185.2h30.9c0,0,6.3,36.6-15.5,36.6C514.5,221.8,520.8,185.2,520.8,185.2z"/>
	<circle fill="#F3F3F3" stroke="#838383" cx="536.3" cy="175.4" r="2.8"/>
</g>
<g id="moyka_13_">
	<path fill="#F3F3F3" stroke="#838383" d="M766.3,378.6c0,0.8-0.7,1.5-1.5,1.5h-30.7c-0.8,0-1.5-0.7-1.5-1.5v-46
		c0-0.8,0.7-1.5,1.5-1.5h30.7c0.8,0,1.5,0.7,1.5,1.5V378.6z"/>
	<rect x="758.6" y="331" fill="#F3F3F3" stroke="#838383" width="3.1" height="49.1"/>
	<ellipse fill="#F3F3F3" stroke="#838383" cx="745.6" cy="354.8" rx="10" ry="16.1"/>
	<rect x="749.4" y="354" fill="#F3F3F3" stroke="#838383" width="12.3" height="3.1"/>
	<circle fill="#F3F3F3" stroke="#838383" cx="744" cy="356.3" r="2.3"/>
</g>
<g id="moyka_17_">
	<path fill="#F3F3F3" stroke="#838383" d="M620.1,309.4c0,0.8-0.7,1.5-1.5,1.5h-30.7c-0.8,0-1.5-0.7-1.5-1.5v-46
		c0-0.8,0.7-1.5,1.5-1.5h30.7c0.8,0,1.5,0.7,1.5,1.5V309.4z"/>
	<rect x="612.4" y="261.8" fill="#F3F3F3" stroke="#838383" width="3.1" height="49.1"/>
	<ellipse fill="#F3F3F3" stroke="#838383" cx="599.3" cy="285.6" rx="10" ry="16.1"/>
	<rect x="603.2" y="284.8" fill="#F3F3F3" stroke="#838383" width="12.3" height="3.1"/>
	<circle fill="#F3F3F3" stroke="#838383" cx="597.8" cy="287.1" r="2.3"/>
</g>
<g id="vanna_11_">
	<rect x="714.2" y="170.9" fill="#F3F3F3" stroke="#838383" width="53.5" height="133.9"/>
	<path fill="#F3F3F3" stroke="#838383" d="M732.5,296.5c-7.8,0-14.1-6.2-14.1-13.8v-92.5h45v92.5c0,7.6-6.3,13.8-14.1,13.8H732.5z"
		/>
	<path fill="#F3F3F3" stroke="#838383" d="M742.4,188.1h11.3v-4.8h-19"/>
	<path id="Union_11_" fill="#F3F3F3" stroke="#838383" d="M732.3,181.9c-0.6-1.6-2.1-2.8-4-2.8c-2.3,0-4.2,1.9-4.2,4.1
		c0,2.3,1.9,4.1,4.2,4.1c1.8,0,3.4-1.2,4-2.8h1.6c0.8,0,1.4-0.6,1.4-1.4c0-0.8-0.6-1.4-1.4-1.4H732.3z"/>
	<rect x="739.6" y="186.1" fill="#F3F3F3" stroke="#838383" width="2.8" height="11"/>
</g>
<rect x="115.6" y="655.7" fill="#FFFFFF" stroke="#000000" stroke-miterlimit="10" width="128.2" height="6.4"/>
<rect x="115.6" y="655.7" fill="#FFFFFF" stroke="#000000" stroke-miterlimit="10" width="9" height="6.4"/>
<rect x="163.6" y="655.7" fill="#FFFFFF" stroke="#000000" stroke-miterlimit="10" width="9" height="6.4"/>
<rect x="234.5" y="655.7" fill="#FFFFFF" stroke="#000000" stroke-miterlimit="10" width="9.4" height="6.4"/>
<rect x="115.6" y="643.3" fill="#FFFFFF" stroke="#000000" stroke-miterlimit="10" width="54.2" height="12.4"/>
<rect x="118.6" y="662.1" fill="#FFFFFF" stroke="#000000" stroke-miterlimit="10" width="51.2" height="11.6"/>
<rect x="342.3" y="756.2" fill="#FFFFFF" stroke="#000000" stroke-miterlimit="10" width="122.4" height="6.7"/>
<rect x="342.3" y="756.2" fill="#FFFFFF" stroke="#000000" stroke-miterlimit="10" width="11.8" height="6.7"/>
<rect x="400.9" y="756.2" fill="#FFFFFF" stroke="#000000" stroke-miterlimit="10" width="4.3" height="6.7"/>
<rect x="452.5" y="756.2" fill="#FFFFFF" stroke="#000000" stroke-miterlimit="10" width="12.2" height="6.7"/>
<rect x="342.3" y="742" fill="#FFFFFF" stroke="#000000" stroke-miterlimit="10" width="122.4" height="14.2"/>
<rect x="345.4" y="763" fill="#FFFFFF" stroke="#000000" stroke-miterlimit="10" width="115.9" height="11.6"/>
<rect x="595.9" y="756.8" fill="#FFFFFF" stroke="#000000" stroke-miterlimit="10" width="124.9" height="6.2"/>
<rect x="595.9" y="756.8" fill="#FFFFFF" stroke="#000000" stroke-miterlimit="10" width="8.2" height="6.2"/>
<rect x="654.8" y="756.8" fill="#FFFFFF" stroke="#000000" stroke-miterlimit="10" width="6.2" height="6.2"/>
<rect x="712" y="756.8" fill="#FFFFFF" stroke="#000000" stroke-miterlimit="10" width="8.8" height="6.2"/>
<rect x="595.9" y="742" fill="#FFFFFF" stroke="#000000" stroke-miterlimit="10" width="124.9" height="14.8"/>
<rect x="598.9" y="763" fill="#FFFFFF" stroke="#000000" stroke-miterlimit="10" width="115.1" height="11.6"/>
<line fill="#FFFFFF" stroke="#000000" stroke-miterlimit="10" x1="545" y1="417.8" x2="606.4" y2="453.3"/>
<line fill="#FFFFFF" stroke="#000000" stroke-miterlimit="10" x1="622.6" y1="328.4" x2="592.9" y2="385.8"/>
<line fill="#FFFFFF" stroke="#000000" stroke-miterlimit="10" x1="559.1" y1="322.5" x2="505.6" y2="355.4"/>
<line fill="#FFFFFF" stroke="#000000" stroke-miterlimit="10" x1="505.6" y1="417.8" x2="443.7" y2="453.3"/>
<line fill="#FFFFFF" stroke="#000000" stroke-miterlimit="10" x1="234.5" y1="655.7" x2="181.2" y2="622.7"/>
<line fill="#FFFFFF" stroke="#000000" stroke-miterlimit="10" x1="467.3" y1="150.1" x2="396" y2="121"/>
<rect x="5" y="662.1" fill="#838383" stroke="#000000" stroke-miterlimit="10" width="113.6" height="11.6"/>
<rect x="5" y="673.7" fill="#838383" stroke="#000000" stroke-miterlimit="10" width="15.7" height="93"/>
<rect x="5" y="622.7" fill="#838383" stroke="#000000" stroke-miterlimit="10" width="39.4" height="39.4"/>
<rect x="44.4" y="643.3" fill="#838383" stroke="#000000" stroke-miterlimit="10" width="71.2" height="18.7"/>
<rect x="5" y="30.3" fill="#838383" stroke="#000000" stroke-miterlimit="10" width="24" height="592.4"/>
<rect x="243.8" y="643.3" fill="#838383" stroke="#000000" stroke-miterlimit="10" width="41.6" height="18.7"/>
<rect x="240.1" y="662.1" fill="#838383" stroke="#000000" stroke-miterlimit="10" width="24.6" height="11.6"/>
<rect x="252.4" y="673.7" fill="#838383" stroke="#000000" stroke-miterlimit="10" width="12.3" height="100.9"/>
<rect x="264.6" y="763" fill="#838383" stroke="#000000" stroke-miterlimit="10" width="80.8" height="11.6"/>
<rect x="285.5" y="742" fill="#838383" stroke="#000000" stroke-miterlimit="10" width="56.8" height="21"/>
<rect x="264.6" y="662.1" fill="#838383" stroke="#000000" stroke-miterlimit="10" width="20.8" height="100.9"/>
<rect x="461.3" y="763" fill="#838383" stroke="#000000" stroke-miterlimit="10" width="137.6" height="11.6"/>
<rect x="464.7" y="742" fill="#838383" stroke="#000000" stroke-miterlimit="10" width="55.5" height="21"/>
<rect x="520.2" y="586.7" fill="#838383" stroke="#000000" stroke-miterlimit="10" width="19.5" height="176.2"/>
<rect x="539.7" y="742" fill="#838383" stroke="#000000" stroke-miterlimit="10" width="56.2" height="21"/>
<rect x="714" y="763" fill="#838383" stroke="#000000" stroke-miterlimit="10" width="81" height="11.6"/>
<rect x="720.8" y="742" fill="#838383" stroke="#000000" stroke-miterlimit="10" width="49.9" height="21"/>
<rect x="770.6" y="167.9" fill="#838383" stroke="#000000" stroke-miterlimit="10" width="24.4" height="595"/>
<rect x="5" y="6.1" fill="#838383" stroke="#000000" stroke-miterlimit="10" width="366.7" height="24.2"/>
<rect x="264.6" y="150.1" fill="#838383" stroke="#000000" stroke-miterlimit="10" width="20.8" height="170.4"/>
<rect x="347.9" y="30.3" fill="#838383" stroke="#000000" stroke-miterlimit="10" width="23.8" height="143.2"/>
<rect x="371.7" y="150.1" fill="#838383" stroke="#000000" stroke-miterlimit="10" width="17.6" height="23.4"/>
<rect x="467.3" y="150.1" fill="#838383" stroke="#000000" stroke-miterlimit="10" width="15" height="23.4"/>
<rect x="482.3" y="150.1" fill="#838383" stroke="#000000" stroke-miterlimit="10" width="312.7" height="17.8"/>
<rect x="275.9" y="412.2" fill="#C6C6C6" stroke="#000000" stroke-miterlimit="10" width="9.6" height="231.2"/>
<rect x="285.5" y="412.2" fill="#C6C6C6" stroke="#000000" stroke-miterlimit="10" width="148.5" height="9.6"/>
<rect x="505.6" y="412.2" fill="#C6C6C6" stroke="#000000" stroke-miterlimit="10" width="39.4" height="9.6"/>
<rect x="615.9" y="412.2" fill="#C6C6C6" stroke="#000000" stroke-miterlimit="10" width="154.8" height="9.6"/>
<rect x="520.2" y="421.8" fill="#C6C6C6" stroke="#000000" stroke-miterlimit="10" width="9.6" height="165"/>
<rect x="482.3" y="167.9" fill="#C6C6C6" stroke="#000000" stroke-miterlimit="10" width="9.6" height="154.6"/>
<rect x="622.6" y="167.9" fill="#C6C6C6" stroke="#000000" stroke-miterlimit="10" width="9.6" height="160.5"/>
<rect x="622.6" y="390.5" fill="#C6C6C6" stroke="#000000" stroke-miterlimit="10" width="9.6" height="21.7"/>
<rect x="632.2" y="399.3" fill="#C6C6C6" stroke="#000000" stroke-miterlimit="10" width="138.4" height="7.3"/>
<rect x="559.1" y="312.9" fill="#C6C6C6" stroke="#000000" stroke-miterlimit="10" width="63.6" height="9.6"/>
<rect x="491.9" y="312.9" fill="#C6C6C6" stroke="#000000" stroke-miterlimit="10" width="7" height="9.6"/>
<rect x="583.8" y="251.2" fill="#C6C6C6" stroke="#000000" stroke-miterlimit="10" width="38.8" height="7.3"/>
<rect x="583.8" y="191.2" fill="#C6C6C6" stroke="#000000" stroke-miterlimit="10" width="7.3" height="60"/>
<rect x="583.8" y="167.9" fill="#C6C6C6" stroke="#000000" stroke-miterlimit="10" width="2.8" height="23.2"/>
<rect x="285.5" y="166.2" fill="#C6C6C6" stroke="#000000" stroke-miterlimit="10" width="62.4" height="7.3"/>
<rect x="285.5" y="150.1" fill="#C6C6C6" stroke="#000000" stroke-miterlimit="10" width="27.8" height="7.3"/>
<rect x="306" y="30.3" fill="#C6C6C6" stroke="#000000" stroke-miterlimit="10" width="7.3" height="119.8"/>
<g>
	<path d="M59.9,129.8h-3.2v6.4h-1.4v-14h1.4v6.3h3.2l4.7-6.3h1.6L61,129l5.5,7.2h-1.7L59.9,129.8z"/>
	<path d="M77.4,125.6l-5.3,11.8c-0.4,1-0.9,1.7-1.5,2.1c-0.6,0.4-1.2,0.6-2,0.6c-0.5,0-1-0.1-1.4-0.2c-0.4-0.2-0.8-0.4-1.1-0.7
		l0.7-1.1c0.5,0.5,1.2,0.8,1.9,0.8c0.5,0,0.9-0.1,1.2-0.4c0.3-0.3,0.7-0.7,1-1.4l0.5-1l-4.7-10.5h1.5l4,9l4-9H77.4z"/>
	<path d="M85.6,136.2l-3.3-4.4l-3.4,4.4h-1.6l4.2-5.4l-4-5.1h1.6l3.2,4.1l3.2-4.1H87l-4,5.1l4.2,5.4H85.6z"/>
	<path d="M89.6,125.6H91v4.7h6.6v-4.7h1.4v10.5h-1.4v-4.6H91v4.6h-1.4V125.6z"/>
	<path d="M111.2,125.6v10.5h-1.3v-3.5h-3.3h-0.4l-2.4,3.5h-1.5l2.6-3.7c-0.8-0.2-1.4-0.6-1.9-1.2c-0.4-0.5-0.7-1.2-0.7-2.1
		c0-1.2,0.4-2.1,1.2-2.7s1.9-0.9,3.3-0.9H111.2z M106.7,131.6h3.2v-4.7h-3.1c-2.1,0-3.1,0.8-3.1,2.4
		C103.7,130.9,104.7,131.6,106.7,131.6z"/>
	<path d="M114.4,130.1h5.2v1.2h-5.2V130.1z"/>
	<path d="M56.5,159.6c-0.8-0.5-1.5-1.1-1.9-1.9c-0.5-0.8-0.7-1.7-0.7-2.8c0-1,0.2-1.9,0.7-2.8c0.5-0.8,1.1-1.4,1.9-1.9
		s1.8-0.7,2.8-0.7c0.9,0,1.7,0.2,2.4,0.5c0.7,0.4,1.3,0.9,1.7,1.6l-1.1,0.7c-0.3-0.5-0.8-0.9-1.3-1.2c-0.5-0.3-1.1-0.4-1.7-0.4
		c-0.8,0-1.4,0.2-2.1,0.5c-0.6,0.3-1.1,0.8-1.4,1.5c-0.3,0.6-0.5,1.3-0.5,2.1c0,0.8,0.2,1.5,0.5,2.2c0.3,0.6,0.8,1.1,1.4,1.4
		c0.6,0.3,1.3,0.5,2.1,0.5c0.6,0,1.2-0.1,1.7-0.4c0.5-0.3,1-0.6,1.3-1.2l1.1,0.7c-0.4,0.7-1,1.2-1.7,1.6c-0.7,0.4-1.5,0.5-2.4,0.5
		C58.3,160.3,57.4,160.1,56.5,159.6z"/>
	<path d="M73.4,150.9h-4v9.3H68v-9.3h-4v-1.3h9.4V150.9z"/>
	<path d="M76.6,159.6c-0.8-0.5-1.5-1.1-1.9-1.9c-0.5-0.8-0.7-1.7-0.7-2.8c0-1,0.2-1.9,0.7-2.8c0.5-0.8,1.1-1.4,1.9-1.9
		c0.8-0.5,1.7-0.7,2.7-0.7c1,0,1.9,0.2,2.7,0.7s1.5,1.1,1.9,1.9c0.5,0.8,0.7,1.7,0.7,2.8c0,1-0.2,2-0.7,2.8
		c-0.5,0.8-1.1,1.5-1.9,1.9c-0.8,0.5-1.7,0.7-2.7,0.7C78.3,160.3,77.4,160.1,76.6,159.6z M81.3,158.5c0.6-0.3,1.1-0.8,1.4-1.5
		c0.3-0.6,0.5-1.3,0.5-2.1s-0.2-1.5-0.5-2.1s-0.8-1.1-1.4-1.5c-0.6-0.3-1.3-0.5-2-0.5c-0.7,0-1.4,0.2-2,0.5
		c-0.6,0.3-1.1,0.8-1.4,1.5c-0.3,0.6-0.5,1.3-0.5,2.1s0.2,1.5,0.5,2.1c0.3,0.6,0.8,1.1,1.4,1.5c0.6,0.3,1.3,0.5,2,0.5
		C80.1,159.1,80.8,158.9,81.3,158.5z"/>
	<path d="M96.3,149.7v10.5h-1.4v-9.3h-5l-0.1,2.6c-0.1,2.2-0.4,3.9-0.8,5c-0.4,1.2-1.1,1.8-2.1,1.8c-0.3,0-0.6-0.1-1-0.2l0.1-1.2
		c0.2,0.1,0.4,0.1,0.5,0.1c0.5,0,1-0.3,1.2-0.8c0.3-0.5,0.5-1.1,0.6-1.9c0.1-0.7,0.2-1.7,0.2-3l0.2-3.8H96.3z"/>
	<path d="M101.9,159.6c-0.8-0.5-1.5-1.1-1.9-1.9c-0.5-0.8-0.7-1.7-0.7-2.8c0-1,0.2-1.9,0.7-2.8c0.5-0.8,1.1-1.4,1.9-1.9
		c0.8-0.5,1.7-0.7,2.7-0.7c1,0,1.9,0.2,2.7,0.7s1.5,1.1,1.9,1.9c0.5,0.8,0.7,1.7,0.7,2.8c0,1-0.2,2-0.7,2.8
		c-0.5,0.8-1.1,1.5-1.9,1.9c-0.8,0.5-1.7,0.7-2.7,0.7C103.7,160.3,102.7,160.1,101.9,159.6z M106.7,158.5c0.6-0.3,1.1-0.8,1.4-1.5
		c0.3-0.6,0.5-1.3,0.5-2.1s-0.2-1.5-0.5-2.1s-0.8-1.1-1.4-1.5c-0.6-0.3-1.3-0.5-2-0.5c-0.7,0-1.4,0.2-2,0.5
		c-0.6,0.3-1.1,0.8-1.4,1.5c-0.3,0.6-0.5,1.3-0.5,2.1s0.2,1.5,0.5,2.1c0.3,0.6,0.8,1.1,1.4,1.5c0.6,0.3,1.3,0.5,2,0.5
		C105.4,159.1,106.1,158.9,106.7,158.5z"/>
	<path d="M121.9,157.4c0,0.9-0.3,1.6-1,2.1c-0.7,0.5-1.7,0.7-3,0.7h-4.8v-10.5h4.6c1.2,0,2.1,0.2,2.8,0.7s1,1.1,1,2
		c0,0.6-0.2,1.1-0.5,1.5c-0.3,0.4-0.8,0.7-1.3,0.9C121.2,155.1,121.9,156,121.9,157.4z M114.5,154.4h3.2c0.8,0,1.4-0.2,1.9-0.5
		c0.4-0.3,0.7-0.8,0.7-1.3c0-0.6-0.2-1-0.7-1.3s-1.1-0.4-1.9-0.4h-3.2V154.4z M119.8,158.7c0.5-0.3,0.7-0.8,0.7-1.4
		c0-0.6-0.2-1.1-0.6-1.4s-1.1-0.5-2-0.5h-3.5v3.7h3.3C118.7,159.1,119.4,159,119.8,158.7z"/>
	<path d="M132,150.6c0.7,0.7,1.1,1.7,1.1,3.1v6.5h-1.4v-1.6c-0.3,0.5-0.8,1-1.4,1.3c-0.6,0.3-1.4,0.5-2.2,0.5
		c-1.2,0-2.1-0.3-2.8-0.8c-0.7-0.6-1-1.3-1-2.2c0-0.9,0.3-1.6,1-2.2c0.6-0.5,1.7-0.8,3.1-0.8h3.3v-0.6c0-0.9-0.3-1.6-0.8-2.1
		c-0.5-0.5-1.2-0.7-2.2-0.7c-0.7,0-1.3,0.1-1.9,0.3s-1.1,0.5-1.6,0.9l-0.6-1.1c0.5-0.5,1.2-0.8,1.9-1.1s1.5-0.4,2.4-0.4
		C130.2,149.6,131.3,149.9,132,150.6z M130.4,158.6c0.6-0.4,1-0.9,1.3-1.6v-1.7h-3.3c-1.8,0-2.7,0.6-2.7,1.9c0,0.6,0.2,1.1,0.7,1.5
		c0.5,0.4,1.1,0.5,2,0.5C129.2,159.2,129.9,159,130.4,158.6z"/>
	<path d="M145,149.7v10.5h-1.3v-3.5h-3.3H140l-2.4,3.5H136l2.6-3.7c-0.8-0.2-1.4-0.6-1.9-1.2c-0.4-0.5-0.7-1.2-0.7-2.1
		c0-1.2,0.4-2.1,1.2-2.7s1.9-0.9,3.3-0.9H145z M140.5,155.7h3.2v-4.7h-3.1c-2.1,0-3.1,0.8-3.1,2.4
		C137.5,154.9,138.5,155.7,140.5,155.7z"/>
	<path d="M66.4,188.1v2.2H53.8v-1.7l7.1-6.9c0.9-0.8,1.5-1.6,1.8-2.2c0.3-0.6,0.5-1.2,0.5-1.8c0-0.9-0.3-1.6-1-2.1s-1.6-0.8-2.8-0.8
		c-1.9,0-3.4,0.6-4.5,1.9l-1.7-1.5c0.7-0.8,1.6-1.5,2.7-2c1.1-0.5,2.3-0.7,3.7-0.7c1.8,0,3.3,0.4,4.4,1.3c1.1,0.9,1.6,2.1,1.6,3.6
		c0,0.9-0.2,1.8-0.6,2.7c-0.4,0.8-1.2,1.8-2.3,2.9l-5.4,5.2H66.4z"/>
	<path d="M83.2,186h-3.3v4.3h-2.4V186h-9.7v-1.8l9-11.5h2.7l-8.6,11.1h6.7V180h2.4v3.8h3.3V186z"/>
	<path d="M88.1,187.5c0.3,0.3,0.5,0.7,0.5,1.2c0,0.3,0,0.5-0.1,0.7c-0.1,0.2-0.2,0.6-0.3,1.1l-1.2,3.5h-1.6l0.9-3.7
		c-0.3-0.1-0.6-0.3-0.8-0.6s-0.3-0.6-0.3-1c0-0.5,0.2-0.9,0.5-1.2c0.3-0.3,0.7-0.5,1.2-0.5C87.4,187,87.8,187.2,88.1,187.5z"/>
	<path d="M94.1,189.4c-1.1-0.7-1.9-1.7-2.5-3.1c-0.6-1.4-0.9-3-0.9-4.8c0-1.9,0.3-3.5,0.9-4.8c0.6-1.4,1.5-2.4,2.5-3.1
		c1.1-0.7,2.3-1.1,3.7-1.1c1.4,0,2.6,0.4,3.7,1.1c1.1,0.7,1.9,1.7,2.5,3.1c0.6,1.4,0.9,3,0.9,4.8c0,1.9-0.3,3.5-0.9,4.8
		c-0.6,1.4-1.5,2.4-2.5,3.1s-2.3,1.1-3.7,1.1C96.4,190.5,95.2,190.1,94.1,189.4z M101.2,186.5c0.8-1.2,1.3-2.8,1.3-5s-0.4-3.9-1.3-5
		s-2-1.7-3.4-1.7c-1.4,0-2.6,0.6-3.4,1.7s-1.3,2.8-1.3,5s0.4,3.9,1.3,5s2,1.7,3.4,1.7C99.2,188.2,100.3,187.7,101.2,186.5z"/>
</g>
<g>
	<path d="M412.2,503.3c-1.1-0.6-2-1.5-2.6-2.6c-0.6-1.1-1-2.3-1-3.7s0.3-2.6,1-3.7c0.6-1.1,1.5-1.9,2.6-2.6c1.1-0.6,2.4-0.9,3.8-0.9
		c1,0,2,0.2,2.9,0.5c0.9,0.3,1.6,0.9,2.2,1.5l-0.9,0.9c-1.1-1.1-2.5-1.7-4.1-1.7c-1.1,0-2.1,0.3-3,0.8c-0.9,0.5-1.6,1.2-2.1,2.1
		c-0.5,0.9-0.8,1.9-0.8,3c0,1.1,0.3,2.1,0.8,3c0.5,0.9,1.2,1.6,2.1,2.1s1.9,0.8,3,0.8c1.7,0,3.1-0.6,4.1-1.7l0.9,0.9
		c-0.6,0.7-1.4,1.2-2.3,1.5c-0.9,0.4-1.9,0.5-2.9,0.5C414.5,504.2,413.3,503.9,412.2,503.3z"/>
	<path d="M433.2,493.5v10.5h-1.4v-9.3h-6.6v9.3h-1.4v-10.5H433.2z"/>
	<path d="M444.1,494.5c0.7,0.7,1.1,1.7,1.1,3.1v6.5h-1.4v-1.6c-0.3,0.5-0.8,1-1.4,1.3s-1.4,0.5-2.2,0.5c-1.2,0-2.1-0.3-2.8-0.8
		c-0.7-0.6-1-1.3-1-2.2c0-0.9,0.3-1.6,1-2.2c0.6-0.5,1.7-0.8,3.1-0.8h3.3v-0.6c0-0.9-0.3-1.6-0.8-2.1c-0.5-0.5-1.2-0.7-2.2-0.7
		c-0.7,0-1.3,0.1-1.9,0.3c-0.6,0.2-1.1,0.5-1.6,0.9l-0.6-1.1c0.5-0.5,1.2-0.8,1.9-1.1s1.5-0.4,2.4-0.4
		C442.3,493.4,443.3,493.8,444.1,494.5z M442.5,502.5c0.6-0.4,1-0.9,1.3-1.6v-1.7h-3.3c-1.8,0-2.7,0.6-2.7,1.9
		c0,0.6,0.2,1.1,0.7,1.5c0.5,0.4,1.1,0.5,2,0.5C441.2,503,441.9,502.9,442.5,502.5z"/>
	<path d="M457.6,493.5v10.5h-1.4v-9.3h-5l-0.1,2.6c-0.1,2.2-0.4,3.9-0.8,5c-0.4,1.2-1.1,1.8-2.1,1.8c-0.3,0-0.6-0.1-1-0.2l0.1-1.2
		c0.2,0.1,0.4,0.1,0.5,0.1c0.5,0,1-0.3,1.2-0.8s0.5-1.1,0.6-1.9s0.2-1.7,0.2-3l0.2-3.8H457.6z"/>
	<path d="M469.2,498.1c0.7,0.6,1,1.4,1,2.5c0,1.1-0.4,2-1.1,2.6s-1.8,0.9-3.2,0.9l-4.2,0v-10.5h1.4v3.7l3.1,0
		C467.5,497.3,468.5,497.6,469.2,498.1z M468,502.4c0.5-0.4,0.8-1,0.8-1.8c0-0.8-0.2-1.3-0.7-1.7s-1.2-0.6-2.2-0.6l-2.7,0v4.7l2.7,0
		C466.8,503,467.5,502.8,468,502.4z"/>
	<path d="M472.9,493.5h1.4v4.7h6.6v-4.7h1.4v10.5H481v-4.6h-6.6v4.6h-1.4V493.5z"/>
	<path d="M494.5,493.5v10.5h-1.3v-3.5h-3.3h-0.4l-2.4,3.5h-1.5l2.6-3.7c-0.8-0.2-1.4-0.6-1.9-1.2c-0.4-0.5-0.7-1.2-0.7-2.1
		c0-1.2,0.4-2.1,1.2-2.7c0.8-0.6,1.9-0.9,3.3-0.9H494.5z M490,499.5h3.2v-4.7h-3.1c-2.1,0-3.1,0.8-3.1,2.4
		C487,498.7,488,499.5,490,499.5z"/>
	<path d="M414.1,516.6v17.5h-2.5v-15.3h-4v-2.2H414.1z"/>
	<path d="M423.3,516.6v17.5h-2.5v-15.3h-4v-2.2H423.3z"/>
	<path d="M430,531.3c0.3,0.3,0.5,0.7,0.5,1.2c0,0.3,0,0.5-0.1,0.7c-0.1,0.2-0.2,0.6-0.3,1.1l-1.2,3.5h-1.6l0.9-3.7
		c-0.3-0.1-0.6-0.3-0.8-0.6c-0.2-0.3-0.3-0.6-0.3-1c0-0.5,0.2-0.9,0.5-1.2c0.3-0.3,0.7-0.5,1.2-0.5C429.3,530.8,429.7,531,430,531.3
		z"/>
	<path d="M444,518.7c1.3,1.5,1.9,3.7,1.9,6.5c0,2-0.3,3.6-1,5c-0.7,1.4-1.7,2.4-2.9,3.1c-1.2,0.7-2.7,1.1-4.3,1.1
		c-0.9,0-1.7-0.1-2.4-0.3c-0.8-0.2-1.4-0.4-2-0.8l1-2c0.9,0.6,2,0.8,3.4,0.8c1.8,0,3.2-0.6,4.3-1.7s1.5-2.8,1.5-4.9v-0.6
		c-0.5,0.8-1.2,1.3-2.1,1.7c-0.9,0.4-1.9,0.6-3,0.6c-1.2,0-2.2-0.2-3.1-0.7c-0.9-0.4-1.6-1.1-2.1-1.9s-0.8-1.7-0.8-2.8
		c0-1.1,0.3-2.1,0.8-2.9c0.5-0.8,1.3-1.5,2.2-1.9c0.9-0.5,2-0.7,3.2-0.7C440.9,516.4,442.7,517.1,444,518.7z M440.8,524.7
		c0.6-0.3,1.1-0.7,1.4-1.2c0.3-0.5,0.5-1.1,0.5-1.7c0-0.6-0.2-1.2-0.5-1.7c-0.3-0.5-0.8-0.9-1.4-1.2c-0.6-0.3-1.4-0.5-2.3-0.5
		c-1.2,0-2.1,0.3-2.8,0.9c-0.7,0.6-1.1,1.4-1.1,2.5c0,1,0.4,1.9,1.1,2.5s1.7,0.9,2.9,0.9C439.5,525.2,440.2,525,440.8,524.7z"/>
</g>
<g>
	<path d="M557.4,498.1c-1.1-0.6-2-1.5-2.6-2.6c-0.6-1.1-1-2.3-1-3.7s0.3-2.6,1-3.7c0.6-1.1,1.5-1.9,2.6-2.6c1.1-0.6,2.4-0.9,3.8-0.9
		c1,0,2,0.2,2.9,0.5c0.9,0.3,1.6,0.9,2.2,1.5l-0.9,0.9c-1.1-1.1-2.5-1.7-4.1-1.7c-1.1,0-2.1,0.3-3,0.8c-0.9,0.5-1.6,1.2-2.1,2.1
		c-0.5,0.9-0.8,1.9-0.8,3c0,1.1,0.3,2.1,0.8,3c0.5,0.9,1.2,1.6,2.1,2.1s1.9,0.8,3,0.8c1.7,0,3.1-0.6,4.1-1.7l0.9,0.9
		c-0.6,0.7-1.4,1.2-2.3,1.5c-0.9,0.4-1.9,0.5-2.9,0.5C559.7,499.1,558.5,498.8,557.4,498.1z"/>
	<path d="M578.5,488.4v10.5H577v-9.3h-6.6v9.3H569v-10.5H578.5z"/>
	<path d="M589.3,489.4c0.7,0.7,1.1,1.7,1.1,3.1v6.5H589v-1.6c-0.3,0.5-0.8,1-1.4,1.3s-1.4,0.5-2.2,0.5c-1.2,0-2.1-0.3-2.8-0.8
		s-1-1.3-1-2.2c0-0.9,0.3-1.6,1-2.2c0.6-0.5,1.7-0.8,3.1-0.8h3.3v-0.6c0-0.9-0.3-1.6-0.8-2.1c-0.5-0.5-1.2-0.7-2.2-0.7
		c-0.7,0-1.3,0.1-1.9,0.3c-0.6,0.2-1.1,0.5-1.6,0.9l-0.6-1.1c0.5-0.5,1.2-0.8,1.9-1.1s1.5-0.4,2.4-0.4
		C587.5,488.3,588.6,488.7,589.3,489.4z M587.7,497.4c0.6-0.4,1-0.9,1.3-1.6v-1.7h-3.3c-1.8,0-2.7,0.6-2.7,1.9
		c0,0.6,0.2,1.1,0.7,1.5c0.5,0.4,1.1,0.5,2,0.5C586.4,497.9,587.1,497.7,587.7,497.4z"/>
	<path d="M602.8,488.4v10.5h-1.4v-9.3h-5l-0.1,2.6c-0.1,2.2-0.4,3.9-0.8,5c-0.4,1.2-1.1,1.8-2.1,1.8c-0.3,0-0.6-0.1-1-0.2l0.1-1.2
		c0.2,0.1,0.4,0.1,0.5,0.1c0.5,0,1-0.3,1.2-0.8s0.5-1.1,0.6-1.9s0.2-1.7,0.2-3l0.2-3.8H602.8z"/>
	<path d="M614.4,493c0.7,0.6,1,1.4,1,2.5c0,1.1-0.4,2-1.1,2.6s-1.8,0.9-3.2,0.9l-4.2,0v-10.5h1.4v3.7l3.1,0
		C612.7,492.2,613.7,492.4,614.4,493z M613.2,497.3c0.5-0.4,0.8-1,0.8-1.8c0-0.8-0.2-1.3-0.7-1.7s-1.2-0.6-2.2-0.6l-2.7,0v4.7l2.7,0
		C612,497.9,612.7,497.7,613.2,497.3z"/>
	<path d="M618.1,488.4h1.4v4.7h6.6v-4.7h1.4v10.5h-1.4v-4.6h-6.6v4.6h-1.4V488.4z"/>
	<path d="M639.7,488.4v10.5h-1.3v-3.5h-3.3h-0.4l-2.4,3.5h-1.5l2.6-3.7c-0.8-0.2-1.4-0.6-1.9-1.2c-0.4-0.5-0.7-1.2-0.7-2.1
		c0-1.2,0.4-2.1,1.2-2.7c0.8-0.6,1.9-0.9,3.3-0.9H639.7z M635.2,494.4h3.2v-4.7h-3.1c-2.1,0-3.1,0.8-3.1,2.4
		C632.3,493.6,633.3,494.4,635.2,494.4z"/>
	<path d="M559.3,511.5V529h-2.5v-15.3h-4v-2.2H559.3z"/>
	<path d="M575.4,526.8v2.2h-12.6v-1.7l7.1-6.9c0.9-0.8,1.5-1.6,1.8-2.2c0.3-0.6,0.5-1.2,0.5-1.8c0-0.9-0.3-1.6-1-2.1
		c-0.6-0.5-1.6-0.8-2.8-0.8c-1.9,0-3.4,0.6-4.5,1.9l-1.7-1.5c0.7-0.8,1.6-1.5,2.7-2c1.1-0.5,2.3-0.7,3.7-0.7c1.8,0,3.3,0.4,4.4,1.3
		c1.1,0.9,1.6,2.1,1.6,3.6c0,0.9-0.2,1.8-0.6,2.7c-0.4,0.8-1.2,1.8-2.3,2.9l-5.4,5.2H575.4z"/>
	<path d="M580.6,526.2c0.3,0.3,0.5,0.7,0.5,1.2c0,0.3,0,0.5-0.1,0.7c-0.1,0.2-0.2,0.6-0.3,1.1l-1.2,3.5h-1.6l0.9-3.7
		c-0.3-0.1-0.6-0.3-0.8-0.6c-0.2-0.3-0.3-0.6-0.3-1c0-0.5,0.2-0.9,0.5-1.2c0.3-0.3,0.7-0.5,1.2-0.5
		C579.9,525.7,580.3,525.9,580.6,526.2z"/>
	<path d="M586.6,528.1c-1.1-0.7-1.9-1.7-2.5-3.1c-0.6-1.4-0.9-3-0.9-4.8c0-1.9,0.3-3.5,0.9-4.8c0.6-1.4,1.5-2.4,2.5-3.1
		c1.1-0.7,2.3-1.1,3.7-1.1c1.4,0,2.6,0.4,3.7,1.1c1.1,0.7,1.9,1.7,2.5,3.1c0.6,1.4,0.9,3,0.9,4.8c0,1.9-0.3,3.5-0.9,4.8
		c-0.6,1.4-1.5,2.4-2.5,3.1c-1.1,0.7-2.3,1.1-3.7,1.1C588.9,529.2,587.7,528.8,586.6,528.1z M593.6,525.2c0.8-1.2,1.3-2.8,1.3-5
		s-0.4-3.9-1.3-5c-0.8-1.2-2-1.7-3.4-1.7c-1.4,0-2.5,0.6-3.4,1.7c-0.8,1.2-1.3,2.8-1.3,5s0.4,3.9,1.3,5c0.8,1.2,2,1.7,3.4,1.7
		C591.7,527,592.8,526.4,593.6,525.2z"/>
</g>
<g>
	<path d="M364.9,296.8h-3.3v4.3h-2.4v-4.3h-9.7v-1.8l9-11.5h2.7l-8.6,11.1h6.7v-3.8h2.4v3.8h3.3V296.8z"/>
	<path d="M369.8,298.3c0.3,0.3,0.5,0.7,0.5,1.2c0,0.3,0,0.5-0.1,0.7c-0.1,0.2-0.2,0.6-0.3,1.1l-1.2,3.5h-1.6l0.9-3.7
		c-0.3-0.1-0.6-0.3-0.8-0.6s-0.3-0.6-0.3-1c0-0.5,0.2-0.9,0.5-1.2c0.3-0.3,0.7-0.5,1.2-0.5C369.1,297.8,369.5,298,369.8,298.3z"/>
	<path d="M387.7,296.8h-3.3v4.3h-2.4v-4.3h-9.7v-1.8l9-11.5h2.7l-8.6,11.1h6.7v-3.8h2.4v3.8h3.3V296.8z"/>
</g>
<g>
	<path d="M535.2,286.4v2.2h-12.6v-1.7l7.1-6.9c0.9-0.8,1.5-1.6,1.8-2.2s0.5-1.2,0.5-1.8c0-0.9-0.3-1.6-1-2.1
		c-0.6-0.5-1.6-0.8-2.8-0.8c-1.9,0-3.4,0.6-4.5,1.9l-1.7-1.5c0.7-0.8,1.6-1.5,2.7-2s2.3-0.7,3.7-0.7c1.8,0,3.3,0.4,4.4,1.3
		s1.6,2.1,1.6,3.6c0,0.9-0.2,1.8-0.6,2.7c-0.4,0.8-1.2,1.8-2.3,2.9l-5.4,5.2H535.2z"/>
	<path d="M540.4,285.8c0.3,0.3,0.5,0.7,0.5,1.2c0,0.3,0,0.5-0.1,0.7c-0.1,0.2-0.2,0.6-0.3,1.1l-1.2,3.5h-1.6l0.9-3.7
		c-0.3-0.1-0.6-0.3-0.8-0.6c-0.2-0.3-0.3-0.6-0.3-1c0-0.5,0.2-0.9,0.5-1.2c0.3-0.3,0.7-0.5,1.2-0.5
		C539.7,285.3,540.1,285.4,540.4,285.8z"/>
	<path d="M554.1,280c0.9,0.9,1.4,2,1.4,3.4c0,1-0.3,1.9-0.8,2.7c-0.5,0.8-1.2,1.5-2.2,1.9c-1,0.5-2.2,0.7-3.6,0.7
		c-1.3,0-2.5-0.2-3.6-0.6c-1.2-0.4-2.1-0.9-2.8-1.6l1.2-2c0.6,0.6,1.4,1,2.3,1.4c0.9,0.3,1.9,0.5,3,0.5c1.3,0,2.3-0.3,3-0.8
		c0.7-0.6,1.1-1.3,1.1-2.3c0-1-0.4-1.7-1.1-2.3c-0.7-0.5-1.8-0.8-3.3-0.8h-1.4v-1.8l4.4-5.4h-8.4V271h11.6v1.7l-4.6,5.7
		C551.9,278.6,553.2,279.1,554.1,280z"/>
</g>
<g>
	<path d="M678.6,351.8h-3.3v4.3h-2.4v-4.3h-9.7v-1.8l9-11.5h2.7l-8.6,11.1h6.7v-3.8h2.4v3.8h3.3V351.8z"/>
	<path d="M683.5,353.3c0.3,0.3,0.5,0.7,0.5,1.2c0,0.3,0,0.5-0.1,0.7c-0.1,0.2-0.2,0.6-0.3,1.1l-1.2,3.5h-1.6l0.9-3.7
		c-0.3-0.1-0.6-0.3-0.8-0.6c-0.2-0.3-0.3-0.6-0.3-1c0-0.5,0.2-0.9,0.5-1.2c0.3-0.3,0.7-0.5,1.2-0.5
		C682.8,352.8,683.2,353,683.5,353.3z"/>
	<path d="M699.6,348.6c0.5,0.7,0.8,1.6,0.8,2.6c0,1.1-0.3,2-0.9,2.7c-0.6,0.8-1.4,1.4-2.4,1.8c-1.1,0.4-2.3,0.6-3.7,0.6
		c-1.4,0-2.6-0.2-3.7-0.6c-1-0.4-1.8-1-2.4-1.8c-0.6-0.8-0.9-1.7-0.9-2.7c0-1,0.3-1.9,0.8-2.6c0.5-0.7,1.3-1.3,2.3-1.7
		c-0.8-0.4-1.4-0.9-1.8-1.5s-0.6-1.4-0.6-2.3c0-1,0.3-1.8,0.8-2.5c0.5-0.7,1.3-1.3,2.2-1.7c1-0.4,2.1-0.6,3.3-0.6
		c1.3,0,2.4,0.2,3.3,0.6c1,0.4,1.7,0.9,2.2,1.7c0.5,0.7,0.8,1.6,0.8,2.5c0,0.9-0.2,1.6-0.6,2.2c-0.4,0.6-1,1.2-1.8,1.5
		C698.3,347.3,699,347.9,699.6,348.6z M696.7,353.4c0.8-0.6,1.2-1.4,1.2-2.3c0-1-0.4-1.7-1.2-2.3c-0.8-0.6-1.9-0.8-3.3-0.8
		c-1.4,0-2.5,0.3-3.3,0.8c-0.8,0.6-1.2,1.3-1.2,2.3c0,1,0.4,1.8,1.2,2.3c0.8,0.6,1.9,0.9,3.3,0.9C694.8,354.3,695.9,354,696.7,353.4
		z M690.6,341.2c-0.7,0.5-1,1.2-1,2.1c0,0.9,0.3,1.6,1,2.1c0.7,0.5,1.6,0.8,2.8,0.8c1.2,0,2.2-0.3,2.9-0.8c0.7-0.5,1-1.2,1-2.1
		c0-0.9-0.4-1.6-1.1-2.1c-0.7-0.5-1.7-0.8-2.8-0.8C692.2,340.4,691.3,340.7,690.6,341.2z"/>
</g>
<g>
	<path d="M537.4,375.8H534v4.3h-2.4v-4.3h-9.7V374l9-11.5h2.7l-8.6,11.1h6.7v-3.8h2.4v3.8h3.3V375.8z"/>
	<path d="M542.2,377.3c0.3,0.3,0.5,0.7,0.5,1.2c0,0.3,0,0.5-0.1,0.7c-0.1,0.2-0.2,0.6-0.3,1.1l-1.2,3.5h-1.6l0.9-3.7
		c-0.3-0.1-0.6-0.3-0.8-0.6c-0.2-0.3-0.3-0.6-0.3-1c0-0.5,0.2-0.9,0.5-1.2c0.3-0.3,0.7-0.5,1.2-0.5
		C541.5,376.8,541.9,377,542.2,377.3z"/>
	<path d="M557.5,362.6v1.7l-7.1,15.8h-2.7l6.9-15.3h-8v3.1h-2.4v-5.3H557.5z"/>
</g>
<g>
	<path d="M129.4,722.2v2.2h-12.6v-1.7l7.1-6.9c0.9-0.8,1.5-1.6,1.8-2.2c0.3-0.6,0.5-1.2,0.5-1.8c0-0.9-0.3-1.6-1-2.1
		c-0.6-0.5-1.6-0.8-2.8-0.8c-1.9,0-3.4,0.6-4.5,1.9l-1.7-1.5c0.7-0.8,1.6-1.5,2.7-2c1.1-0.5,2.3-0.7,3.7-0.7c1.8,0,3.3,0.4,4.4,1.3
		c1.1,0.9,1.6,2.1,1.6,3.6c0,0.9-0.2,1.8-0.6,2.7c-0.4,0.8-1.2,1.8-2.3,2.9l-5.4,5.2H129.4z"/>
	<path d="M134.5,721.5c0.3,0.3,0.5,0.7,0.5,1.2c0,0.3,0,0.5-0.1,0.7c-0.1,0.2-0.2,0.6-0.3,1.1l-1.2,3.5h-1.6l0.9-3.7
		c-0.3-0.1-0.6-0.3-0.8-0.6s-0.3-0.6-0.3-1c0-0.5,0.2-0.9,0.5-1.2c0.3-0.3,0.7-0.5,1.2-0.5C133.8,721.1,134.2,721.2,134.5,721.5z"/>
	<path d="M147.7,714.3c0.9,0.4,1.6,1.1,2.1,1.9s0.8,1.7,0.8,2.8c0,1.1-0.3,2.1-0.8,2.9s-1.3,1.5-2.2,1.9c-0.9,0.5-2,0.7-3.2,0.7
		c-2.4,0-4.2-0.8-5.4-2.3c-1.3-1.5-1.9-3.7-1.9-6.5c0-2,0.3-3.6,1-5c0.7-1.4,1.7-2.4,2.9-3.1c1.2-0.7,2.7-1.1,4.3-1.1
		c0.9,0,1.7,0.1,2.4,0.3c0.8,0.2,1.4,0.4,2,0.8l-1,2c-0.8-0.6-2-0.8-3.4-0.8c-1.8,0-3.2,0.6-4.3,1.7c-1,1.1-1.6,2.8-1.6,4.9
		c0,0.3,0,0.5,0,0.6c0.5-0.8,1.2-1.3,2.1-1.7c0.9-0.4,1.9-0.6,3-0.6C145.8,713.7,146.8,713.9,147.7,714.3z M147.1,721.6
		c0.7-0.6,1.1-1.4,1.1-2.5s-0.4-1.9-1.1-2.5c-0.7-0.6-1.7-0.9-2.9-0.9c-0.8,0-1.5,0.1-2.1,0.5c-0.6,0.3-1.1,0.7-1.4,1.2
		c-0.3,0.5-0.5,1.1-0.5,1.7c0,0.6,0.2,1.2,0.5,1.7c0.3,0.5,0.8,0.9,1.4,1.2s1.4,0.5,2.2,0.5C145.5,722.5,146.4,722.2,147.1,721.6z"
		/>
</g>
<g>
	
		<rect x="37.9" y="33.3" fill-rule="evenodd" clip-rule="evenodd" fill="#F1F2F2" stroke="#848484" stroke-miterlimit="10" width="45.7" height="3.2"/>
	
		<rect x="37.9" y="33.3" fill-rule="evenodd" clip-rule="evenodd" fill="#F1F2F2" stroke="#848484" stroke-miterlimit="10" width="45.7" height="3.2"/>
	
		<rect x="68.9" y="84.5" fill-rule="evenodd" clip-rule="evenodd" fill="#F1F2F2" stroke="#848484" stroke-miterlimit="10" width="15" height="4.4"/>
	
		<rect x="68.9" y="84.5" fill-rule="evenodd" clip-rule="evenodd" fill="#F1F2F2" stroke="#848484" stroke-miterlimit="10" width="15" height="4.4"/>
	
		<rect x="35.8" y="36.2" fill-rule="evenodd" clip-rule="evenodd" fill="#F1F2F2" stroke="#848484" stroke-miterlimit="10" width="50.2" height="50.1"/>
	
		<rect x="35.8" y="36.2" fill-rule="evenodd" clip-rule="evenodd" fill="#F1F2F2" stroke="#848484" stroke-miterlimit="10" width="50.2" height="50.1"/>
	<path fill-rule="evenodd" clip-rule="evenodd" fill="#F1F2F2" stroke="#848484" stroke-miterlimit="10" d="M35.8,81.8l50.2,0
		L35.8,81.8z"/>
	<path fill-rule="evenodd" clip-rule="evenodd" fill="#F1F2F2" stroke="#848484" stroke-miterlimit="10" d="M33.4,81.6
		c0-1,0.9-2,2-2c1.2,0,2,1,2,2c0,1.2-0.9,2.2-2,2.2C34.2,83.8,33.4,82.8,33.4,81.6z"/>
	<path fill-rule="evenodd" clip-rule="evenodd" fill="#F1F2F2" stroke="#848484" stroke-miterlimit="10" d="M33.4,81.6
		c0-1,0.9-2,2-2c1.2,0,2,1,2,2c0,1.2-0.9,2.2-2,2.2C34.2,83.8,33.4,82.8,33.4,81.6z"/>
	<path fill-rule="evenodd" clip-rule="evenodd" fill="#F1F2F2" stroke="#848484" stroke-miterlimit="10" d="M61.1,56l0,8.8L61.1,56z
		"/>
	<path fill-rule="evenodd" clip-rule="evenodd" fill="#F1F2F2" stroke="#848484" stroke-miterlimit="10" d="M56.8,60.3l8.8,0
		L56.8,60.3z"/>
	<path fill-rule="evenodd" clip-rule="evenodd" fill="#F1F2F2" stroke="#848484" stroke-miterlimit="10" d="M58,63.6l6.4-6.4
		L58,63.6z"/>
	<path fill-rule="evenodd" clip-rule="evenodd" fill="#F1F2F2" stroke="#848484" stroke-miterlimit="10" d="M64.4,63.6l-6.4-6.4
		L64.4,63.6z"/>
	<path fill-rule="evenodd" clip-rule="evenodd" fill="#F1F2F2" stroke="#848484" stroke-miterlimit="10" d="M48.1,55.7l0,8.8
		L48.1,55.7z"/>
	<path fill-rule="evenodd" clip-rule="evenodd" fill="#F1F2F2" stroke="#848484" stroke-miterlimit="10" d="M43.8,60l8.8,0L43.8,60z
		"/>
	<path fill-rule="evenodd" clip-rule="evenodd" fill="#F1F2F2" stroke="#848484" stroke-miterlimit="10" d="M45.1,63.3l6.4-6.4
		L45.1,63.3z"/>
	<path fill-rule="evenodd" clip-rule="evenodd" fill="#F1F2F2" stroke="#848484" stroke-miterlimit="10" d="M51.4,63.3L45,56.9
		L51.4,63.3z"/>
	<path fill-rule="evenodd" clip-rule="evenodd" fill="#F1F2F2" stroke="#848484" stroke-miterlimit="10" d="M73.8,56l0,8.8L73.8,56z
		"/>
	<path fill-rule="evenodd" clip-rule="evenodd" fill="#F1F2F2" stroke="#848484" stroke-miterlimit="10" d="M69.5,60.3l8.8,0
		L69.5,60.3z"/>
	<path fill-rule="evenodd" clip-rule="evenodd" fill="#F1F2F2" stroke="#848484" stroke-miterlimit="10" d="M70.7,63.6l6.4-6.4
		L70.7,63.6z"/>
	<path fill-rule="evenodd" clip-rule="evenodd" fill="#F1F2F2" stroke="#848484" stroke-miterlimit="10" d="M77.1,63.6l-6.4-6.4
		L77.1,63.6z"/>
</g>
<g>
	<g>
		<path fill="#F1F2F2" stroke="#848484" stroke-miterlimit="10" d="M104.7,234.2c8.2,0,14.8-2.5,14.8-5.5c0-3-6.6-5.5-14.8-5.5
			s-14.8,2.5-14.8,5.5C89.8,231.8,96.5,234.2,104.7,234.2z"/>
		<path fill="#F1F2F2" stroke="#848484" stroke-miterlimit="10" d="M104.7,259c8.2,0,14.8-6.6,14.8-14.8s-6.6-14.8-14.8-14.8
			s-14.8,6.6-14.8,14.8S96.5,259,104.7,259z"/>
	</g>
	<g>
		<path fill="#F1F2F2" stroke="#848484" stroke-miterlimit="10" d="M60.1,306.1c-8.2,0-14.8,2.5-14.8,5.5c0,3,6.6,5.5,14.8,5.5
			s14.8-2.5,14.8-5.5C74.9,308.6,68.3,306.1,60.1,306.1z"/>
		<path fill="#F1F2F2" stroke="#848484" stroke-miterlimit="10" d="M60.1,281.3c-8.2,0-14.8,6.6-14.8,14.8S51.9,311,60.1,311
			s14.8-6.6,14.8-14.8S68.3,281.3,60.1,281.3z"/>
	</g>
	<g>
		<path fill="#F1F2F2" stroke="#848484" stroke-miterlimit="10" d="M104.7,307.4c-8.2,0-14.8,2.5-14.8,5.5c0,3,6.6,5.5,14.8,5.5
			s14.8-2.5,14.8-5.5C119.5,309.8,112.9,307.4,104.7,307.4z"/>
		<path fill="#F1F2F2" stroke="#848484" stroke-miterlimit="10" d="M104.7,282.6c-8.2,0-14.8,6.6-14.8,14.8s6.6,14.8,14.8,14.8
			s14.8-6.6,14.8-14.8S112.9,282.6,104.7,282.6z"/>
	</g>
	<g>
		<path fill="#F1F2F2" stroke="#848484" stroke-miterlimit="10" d="M60.1,235.9c8.2,0,14.8-2.5,14.8-5.5c0-3-6.6-5.5-14.8-5.5
			c-8.2,0-14.8,2.5-14.8,5.5C45.2,233.5,51.9,235.9,60.1,235.9z"/>
		<path fill="#F1F2F2" stroke="#848484" stroke-miterlimit="10" d="M60.1,260.7c8.2,0,14.8-6.6,14.8-14.8S68.3,231,60.1,231
			c-8.2,0-14.8,6.6-14.8,14.8S51.9,260.7,60.1,260.7z"/>
	</g>
	
		<rect x="30.2" y="241.1" transform="matrix(-1 -1.224647e-16 1.224647e-16 -1 163.9128 542.0494)" fill="#F1F2F2" stroke="#848484" stroke-miterlimit="10" width="103.6" height="59.8"/>
</g>
<g>
	<path fill-rule="evenodd" clip-rule="evenodd" fill="#F1F2F2" stroke="#848484" stroke-miterlimit="10" d="M274.3,445v25.4h-21.1
		V445H274.3L274.3,445z M274.3,565h-31.5v-94.7h31.5V565z"/>
	<path fill-rule="evenodd" clip-rule="evenodd" fill="#F1F2F2" stroke="#848484" stroke-miterlimit="10" d="M263,527.1
		c5.5,0,6-4.9,6-11.1c0-6.1-0.5-11.1-6-11.1c-5.5,0-10,4.9-10,11.1C253.1,522.2,257.5,527.1,263,527.1z"/>
	
		<rect x="257.8" y="478.8" fill-rule="evenodd" clip-rule="evenodd" fill="#F1F2F2" stroke="#848484" stroke-miterlimit="10" width="4.2" height="74.3"/>
	
		<rect x="257.8" y="478.8" fill-rule="evenodd" clip-rule="evenodd" fill="#F1F2F2" stroke="#848484" stroke-miterlimit="10" width="4.2" height="74.3"/>
	<polygon fill-rule="evenodd" clip-rule="evenodd" fill="#F1F2F2" stroke="#848484" stroke-miterlimit="10" points="261.8,546.8 
		265.3,534.9 265.3,497.1 261.8,485.2 	"/>
	<polygon fill-rule="evenodd" clip-rule="evenodd" fill="#F1F2F2" stroke="#848484" stroke-miterlimit="10" points="261.8,546.8 
		265.3,534.9 265.3,497.1 261.8,485.2 	"/>
	<path fill-rule="evenodd" clip-rule="evenodd" fill="#F1F2F2" stroke="#848484" stroke-miterlimit="10" d="M250.9,447.2v21h-2.1
		v-21H250.9L250.9,447.2z M274.3,565v25.4h-21.1V565H274.3L274.3,565z M250.9,588.2h-2.1v-21h2.1V588.2z"/>
</g>
<g>
	<path fill-rule="evenodd" clip-rule="evenodd" fill="#F1F2F2" stroke="#848484" stroke-miterlimit="10" d="M98.2,441.8v171.8
		c0,3.3-2.7,6-6,6H36.6c-3.3,0-6-2.7-6-6V441.8c0-3.3,2.7-6,6-6h55.6C95.5,435.8,98.2,438.5,98.2,441.8z"/>
	<path fill-rule="evenodd" clip-rule="evenodd" fill="#F1F2F2" stroke="#848484" stroke-miterlimit="10" d="M87.4,552
		c7.7,0,10.9,0.4,10.9,10.2v29.1c0,9.8-3.3,10.2-10.9,10.2h-29c-7.7,0-10.9-0.4-10.9-10.2v-29.1c0-9.8,3.3-10.2,10.9-10.2H87.4z"/>
	<path fill-rule="evenodd" clip-rule="evenodd" fill="#F1F2F2" stroke="#848484" stroke-miterlimit="10" d="M87.4,552
		c7.7,0,10.9,0.4,10.9,10.2v29.1c0,9.8-3.3,10.2-10.9,10.2h-29c-7.7,0-10.9-0.4-10.9-10.2v-29.1c0-9.8,3.3-10.2,10.9-10.2H87.4z"/>
	<path fill-rule="evenodd" clip-rule="evenodd" fill="#F1F2F2" stroke="#848484" stroke-miterlimit="10" d="M87.4,503
		c7.7,0,10.9,0.4,10.9,10.1v29.2c0,9.8-3.3,10.1-10.9,10.1h-29c-7.7,0-10.9-0.4-10.9-10.1v-29.2c0-9.8,3.3-10.1,10.9-10.1H87.4z"/>
	<path fill-rule="evenodd" clip-rule="evenodd" fill="#F1F2F2" stroke="#848484" stroke-miterlimit="10" d="M87.4,503
		c7.7,0,10.9,0.4,10.9,10.1v29.2c0,9.8-3.3,10.1-10.9,10.1h-29c-7.7,0-10.9-0.4-10.9-10.1v-29.2c0-9.8,3.3-10.1,10.9-10.1H87.4z"/>
	<path fill-rule="evenodd" clip-rule="evenodd" fill="#F1F2F2" stroke="#848484" stroke-miterlimit="10" d="M87.3,454
		c7.7,0,10.9,0.4,10.9,10.1v29.2c0,9.8-3.3,10.1-10.9,10.1h-29c-7.7,0-10.9-0.4-10.9-10.1v-29.2c0-9.8,3.3-10.1,10.9-10.1H87.3z"/>
	<path fill-rule="evenodd" clip-rule="evenodd" fill="#F1F2F2" stroke="#848484" stroke-miterlimit="10" d="M30.6,601.1V446.5v-3.1
		c0-4.1,3.2-7.5,7-7.5h2.9h50.9c3.9,0,7,3.4,7,7.5v3.1c0,4.1-3.2,7.5-7,7.5H47.5l0,147.4h43.1c4.1,0,7.5,3.4,7.5,7.6v3.1
		c0,4.2-3.4,7.6-7.5,7.6H41.2h-3.1c-4.1,0-7.5-3.4-7.5-7.6V609v-10.1V601.1z"/>
</g>
<g>
	<path fill="#F1F2F2" stroke="#848484" stroke-miterlimit="10" d="M287.2,270.3v-94.6h43.3v94.6c-1.8,4.8-8.2,15.2-16.5,20.8
		c-9.3,6.4-22.2,6.3-26.8,5.9C287.2,288.1,287.2,279.2,287.2,270.3z M287.2,270.3h43.3"/>
	
		<rect x="287.2" y="186.1" transform="matrix(-1 -4.689461e-11 4.689461e-11 -1 579.7271 376.1254)" fill="#F1F2F2" stroke="#848484" stroke-miterlimit="10" width="5.4" height="3.8"/>
	
		<rect x="287.2" y="209.5" transform="matrix(-1 -4.622004e-11 4.622004e-11 -1 579.7271 422.9111)" fill="#F1F2F2" stroke="#848484" stroke-miterlimit="10" width="5.4" height="3.8"/>
	
		<rect x="287.2" y="232.7" transform="matrix(-1 -4.740087e-11 4.740087e-11 -1 579.7271 469.2185)" fill="#F1F2F2" stroke="#848484" stroke-miterlimit="10" width="5.4" height="3.8"/>
	
		<rect x="287.2" y="256.1" transform="matrix(-1 -4.672586e-11 4.672586e-11 -1 579.7271 516.0042)" fill="#F1F2F2" stroke="#848484" stroke-miterlimit="10" width="5.4" height="3.8"/>
	
		<rect x="287.1" y="183.4" transform="matrix(-1 -4.654511e-11 4.654511e-11 -1 575.1895 376.1254)" fill="#F1F2F2" stroke="#848484" stroke-miterlimit="10" width="0.9" height="9.3"/>
	
		<rect x="287.1" y="206.7" transform="matrix(-1 -4.958091e-11 4.958091e-11 -1 575.1895 422.7198)" fill="#F1F2F2" stroke="#848484" stroke-miterlimit="10" width="0.9" height="9.3"/>
	
		<rect x="287.1" y="230" transform="matrix(-1 -5.059254e-11 5.059254e-11 -1 575.1895 469.2185)" fill="#F1F2F2" stroke="#848484" stroke-miterlimit="10" width="0.9" height="9.3"/>
	
		<rect x="287.1" y="253.4" transform="matrix(-1 -5.059254e-11 5.059254e-11 -1 575.1895 516.0042)" fill="#F1F2F2" stroke="#848484" stroke-miterlimit="10" width="0.9" height="9.3"/>
</g>
<g>
	<g>
		
			<rect x="626.4" y="553" transform="matrix(-1 -1.224647e-16 1.224647e-16 -1 1395.6321 1216.7629)" fill-rule="evenodd" clip-rule="evenodd" fill="#F1F2F2" stroke="#848484" stroke-miterlimit="10" width="142.8" height="110.9"/>
		
			<rect x="630.4" y="555.4" transform="matrix(-1 -1.224647e-16 1.224647e-16 -1 1393.931 1216.6466)" fill-rule="evenodd" clip-rule="evenodd" fill="#F1F2F2" stroke="#848484" stroke-miterlimit="10" width="133.1" height="105.8"/>
		
			<rect x="730.1" y="617" transform="matrix(-1 -2.425952e-13 2.425952e-13 -1 1490.1464 1275.0602)" fill-rule="evenodd" clip-rule="evenodd" fill="#F1F2F2" stroke="#848484" stroke-miterlimit="10" width="30" height="41.1"/>
		
			<rect x="730.1" y="558.9" transform="matrix(-1 -1.213588e-13 1.213588e-13 -1 1490.1464 1158.8441)" fill-rule="evenodd" clip-rule="evenodd" fill="#F1F2F2" stroke="#848484" stroke-miterlimit="10" width="30" height="41.1"/>
		<polygon fill-rule="evenodd" clip-rule="evenodd" fill="#F1F2F2" stroke="#848484" stroke-miterlimit="10" points="714.7,661.2 
			733.1,629.7 733.1,587 733.1,629.7 733.1,587 714.7,555.4 630.4,555.4 630.4,555.6 630.4,661.2 		"/>
		<polyline fill-rule="evenodd" clip-rule="evenodd" fill="#F1F2F2" stroke="#848484" stroke-miterlimit="10" points="714.7,661.2 
			701.3,639.1 733.1,629.7 		"/>
		
			<line fill-rule="evenodd" clip-rule="evenodd" fill="#F1F2F2" stroke="#848484" stroke-miterlimit="10" x1="733.1" y1="629.7" x2="714.7" y2="661.2"/>
		<polyline fill-rule="evenodd" clip-rule="evenodd" fill="#F1F2F2" stroke="#848484" stroke-miterlimit="10" points="714.7,555.4 
			701.3,577.6 733.1,587 		"/>
		
			<line fill-rule="evenodd" clip-rule="evenodd" fill="#F1F2F2" stroke="#848484" stroke-miterlimit="10" x1="733.1" y1="587" x2="714.7" y2="555.4"/>
	</g>
	<g>
		
			<rect x="735.5" y="517.2" transform="matrix(6.123234e-17 -1 1 6.123234e-17 223.6734 1286.4308)" fill="#F1F2F2" stroke="#848484" stroke-miterlimit="10" width="39" height="28.3"/>
		
			<rect x="731.8" y="530.6" transform="matrix(6.123234e-17 -1 1 6.123234e-17 208.4238 1271.4861)" fill="#F1F2F2" stroke="#848484" stroke-miterlimit="10" width="16.4" height="1.8"/>
	</g>
	<g>
		
			<rect x="735.5" y="671.3" transform="matrix(6.123234e-17 -1 1 6.123234e-17 69.5608 1440.5433)" fill="#F1F2F2" stroke="#848484" stroke-miterlimit="10" width="39" height="28.3"/>
		
			<rect x="731.8" y="684.7" transform="matrix(-2.219834e-13 -1 1 -2.219834e-13 54.3112 1425.5986)" fill="#F1F2F2" stroke="#848484" stroke-miterlimit="10" width="16.4" height="1.8"/>
	</g>
</g>
<g>
	
		<rect x="650" y="423.1" fill-rule="evenodd" clip-rule="evenodd" fill="#F1F2F2" stroke="#848484" stroke-miterlimit="10" width="119" height="41.1"/>
	<line fill="#F1F2F2" stroke="#848484" stroke-miterlimit="10" x1="654.3" y1="464.2" x2="654.3" y2="423"/>
	<line fill="#F1F2F2" stroke="#848484" stroke-miterlimit="10" x1="764.6" y1="464.2" x2="764.6" y2="423.1"/>
	<line fill="#F1F2F2" stroke="#848484" stroke-miterlimit="10" x1="654.3" y1="425" x2="764.6" y2="425"/>
	<line fill="#F1F2F2" stroke="#848484" stroke-miterlimit="10" x1="760.7" y1="443.9" x2="658.2" y2="443.9"/>
	
		<rect x="662.2" y="431.2" transform="matrix(0.9868 -0.162 0.162 0.9868 -63.1085 113.3203)" fill="#F1F2F2" stroke="#848484" stroke-miterlimit="10" width="2.6" height="25"/>
	
		<rect x="671.4" y="431.2" transform="matrix(0.9961 -8.815246e-02 8.815246e-02 0.9961 -36.4968 61.0273)" fill="#F1F2F2" stroke="#848484" stroke-miterlimit="10" width="2.6" height="25"/>
	
		<rect x="680.7" y="431.4" transform="matrix(0.9734 -0.229 0.229 0.9734 -83.5389 167.9828)" fill="#F1F2F2" stroke="#848484" stroke-miterlimit="10" width="2.6" height="25"/>
	
		<rect x="691.2" y="431.1" transform="matrix(0.9884 -0.152 0.152 0.9884 -59.4047 110.4379)" fill="#F1F2F2" stroke="#848484" stroke-miterlimit="10" width="2.6" height="25"/>
	
		<rect x="700.2" y="431.3" transform="matrix(0.999 -4.511170e-02 4.511170e-02 0.999 -19.3064 32.0988)" fill="#F1F2F2" stroke="#848484" stroke-miterlimit="10" width="2.6" height="25"/>
	
		<rect x="709.4" y="431.3" transform="matrix(0.9884 -0.152 0.152 0.9884 -59.2134 113.2183)" fill="#F1F2F2" stroke="#848484" stroke-miterlimit="10" width="2.6" height="25"/>
	
		<rect x="718.8" y="431.4" transform="matrix(0.999 -4.511170e-02 4.511170e-02 0.999 -19.2939 32.9349)" fill="#F1F2F2" stroke="#848484" stroke-miterlimit="10" width="2.6" height="25"/>
	
		<rect x="727.9" y="431.4" transform="matrix(0.9787 -0.2052 0.2052 0.9787 -75.5692 159.0526)" fill="#F1F2F2" stroke="#848484" stroke-miterlimit="10" width="2.6" height="25"/>
	
		<rect x="737.1" y="431.4" transform="matrix(0.9884 -0.152 0.152 0.9884 -58.9093 117.4227)" fill="#F1F2F2" stroke="#848484" stroke-miterlimit="10" width="2.6" height="25"/>
	
		<rect x="746.2" y="431.4" transform="matrix(0.9964 -8.473843e-02 8.473843e-02 0.9964 -34.9302 64.9402)" fill="#F1F2F2" stroke="#848484" stroke-miterlimit="10" width="2.6" height="25"/>
	
		<rect x="755.4" y="431.1" transform="matrix(0.9713 -0.2379 0.2379 0.9713 -83.822 192.7673)" fill="#F1F2F2" stroke="#848484" stroke-miterlimit="10" width="2.6" height="25"/>
</g>
<g>
	<g>
		
			<rect x="286.4" y="553" fill-rule="evenodd" clip-rule="evenodd" fill="#F1F2F2" stroke="#848484" stroke-miterlimit="10" width="142.8" height="110.9"/>
		
			<rect x="292.1" y="555.4" fill-rule="evenodd" clip-rule="evenodd" fill="#F1F2F2" stroke="#848484" stroke-miterlimit="10" width="133.1" height="105.8"/>
		
			<rect x="295.5" y="617" fill-rule="evenodd" clip-rule="evenodd" fill="#F1F2F2" stroke="#848484" stroke-miterlimit="10" width="30" height="41.1"/>
		
			<rect x="295.5" y="558.9" fill-rule="evenodd" clip-rule="evenodd" fill="#F1F2F2" stroke="#848484" stroke-miterlimit="10" width="30" height="41.1"/>
		<polygon fill-rule="evenodd" clip-rule="evenodd" fill="#F1F2F2" stroke="#848484" stroke-miterlimit="10" points="340.9,661.2 
			322.5,629.7 322.5,587 322.5,629.7 322.5,587 340.9,555.4 425.2,555.4 425.2,555.6 425.2,661.2 		"/>
		<polyline fill-rule="evenodd" clip-rule="evenodd" fill="#F1F2F2" stroke="#848484" stroke-miterlimit="10" points="340.9,661.2 
			354.3,639.1 322.5,629.7 		"/>
		
			<line fill-rule="evenodd" clip-rule="evenodd" fill="#F1F2F2" stroke="#848484" stroke-miterlimit="10" x1="322.5" y1="629.7" x2="340.9" y2="661.2"/>
		<polyline fill-rule="evenodd" clip-rule="evenodd" fill="#F1F2F2" stroke="#848484" stroke-miterlimit="10" points="340.9,555.4 
			354.3,577.6 322.5,587 		"/>
		
			<line fill-rule="evenodd" clip-rule="evenodd" fill="#F1F2F2" stroke="#848484" stroke-miterlimit="10" x1="322.5" y1="587" x2="340.9" y2="555.4"/>
	</g>
	<g>
		
			<rect x="281.1" y="517.2" transform="matrix(4.489482e-11 -1 1 4.489482e-11 -230.7987 831.9587)" fill="#F1F2F2" stroke="#848484" stroke-miterlimit="10" width="39" height="28.3"/>
		
			<rect x="307.5" y="530.6" transform="matrix(4.492235e-11 -1 1 4.492235e-11 -215.854 847.2083)" fill="#F1F2F2" stroke="#848484" stroke-miterlimit="10" width="16.4" height="1.8"/>
	</g>
	<g>
		
			<rect x="281.1" y="671.3" transform="matrix(4.489482e-11 -1 1 4.489482e-11 -384.9113 986.0712)" fill="#F1F2F2" stroke="#848484" stroke-miterlimit="10" width="39" height="28.3"/>
		
			<rect x="307.5" y="684.7" transform="matrix(4.514440e-11 -1 1 4.514440e-11 -369.9665 1001.3209)" fill="#F1F2F2" stroke="#848484" stroke-miterlimit="10" width="16.4" height="1.8"/>
	</g>
</g>
<g>
	
		<rect x="286.6" y="423.1" transform="matrix(-1 -1.522150e-14 1.522150e-14 -1 692.264 887.2917)" fill-rule="evenodd" clip-rule="evenodd" fill="#F1F2F2" stroke="#848484" stroke-miterlimit="10" width="119" height="41.1"/>
	<line fill="#F1F2F2" stroke="#848484" stroke-miterlimit="10" x1="401.3" y1="464.2" x2="401.3" y2="423"/>
	<line fill="#F1F2F2" stroke="#848484" stroke-miterlimit="10" x1="291.1" y1="464.2" x2="291.1" y2="423.1"/>
	<line fill="#F1F2F2" stroke="#848484" stroke-miterlimit="10" x1="401.3" y1="425" x2="291.1" y2="425"/>
	<line fill="#F1F2F2" stroke="#848484" stroke-miterlimit="10" x1="294.9" y1="443.9" x2="397.5" y2="443.9"/>
	
		<rect x="390.9" y="431.2" transform="matrix(-0.9868 -0.162 0.162 -0.9868 707.2577 945.1111)" fill="#F1F2F2" stroke="#848484" stroke-miterlimit="10" width="2.6" height="25"/>
	
		<rect x="381.6" y="431.2" transform="matrix(-0.9961 -8.815246e-02 8.815246e-02 -0.9961 725.2633 919.4837)" fill="#F1F2F2" stroke="#848484" stroke-miterlimit="10" width="2.6" height="25"/>
	
		<rect x="372.3" y="431.4" transform="matrix(-0.9734 -0.229 0.229 -0.9734 635.6143 961.6403)" fill="#F1F2F2" stroke="#848484" stroke-miterlimit="10" width="2.6" height="25"/>
	
		<rect x="361.9" y="431.1" transform="matrix(-0.9884 -0.152 0.152 -0.9884 654.7014 937.3853)" fill="#F1F2F2" stroke="#848484" stroke-miterlimit="10" width="2.6" height="25"/>
	
		<rect x="352.8" y="431.3" transform="matrix(-0.999 -4.511170e-02 4.511170e-02 -0.999 687.8334 903.1253)" fill="#F1F2F2" stroke="#848484" stroke-miterlimit="10" width="2.6" height="25"/>
	
		<rect x="343.6" y="431.3" transform="matrix(-0.9884 -0.152 0.152 -0.9884 618.3402 934.8842)" fill="#F1F2F2" stroke="#848484" stroke-miterlimit="10" width="2.6" height="25"/>
	
		<rect x="334.3" y="431.4" transform="matrix(-0.999 -4.511170e-02 4.511170e-02 -0.999 650.7854 902.5685)" fill="#F1F2F2" stroke="#848484" stroke-miterlimit="10" width="2.6" height="25"/>
	
		<rect x="325.1" y="431.4" transform="matrix(-0.9787 -0.2052 0.2052 -0.9787 554.8203 945.409)" fill="#F1F2F2" stroke="#848484" stroke-miterlimit="10" width="2.6" height="25"/>
	
		<rect x="316" y="431.4" transform="matrix(-0.9884 -0.152 0.152 -0.9884 563.3556 930.9068)" fill="#F1F2F2" stroke="#848484" stroke-miterlimit="10" width="2.6" height="25"/>
	
		<rect x="306.8" y="431.4" transform="matrix(-0.9964 -8.473843e-02 8.473843e-02 -0.9964 577.5022 912.3944)" fill="#F1F2F2" stroke="#848484" stroke-miterlimit="10" width="2.6" height="25"/>
	
		<rect x="297.7" y="431.1" transform="matrix(-0.9713 -0.2379 0.2379 -0.9713 483.7861 945.6609)" fill="#F1F2F2" stroke="#848484" stroke-miterlimit="10" width="2.6" height="25"/>
</g>
<g>
</g>
<g>
</g>
<g>
</g>
<g>
</g>
<g>
</g>
<g>
</g>
</svg>
