<?xml version="1.0" encoding="utf-8"?>
<!-- Generator: Adobe Illustrator 23.0.2, SVG Export Plug-In . SVG Version: 6.00 Build 0)  -->
<svg version="1.1" id="Слой_1" xmlns="http://www.w3.org/2000/svg" xmlns:xlink="http://www.w3.org/1999/xlink" x="0px" y="0px"
	 viewBox="0 0 345 800" enable-background="new 0 0 345 800" xml:space="preserve">
<polygon fill="#F3F3F3" stroke="#838383" points="175,311.2 175,364 82.9,364 82.9,425.3 27.5,425.3 27.5,311.2 "/>
<g>
	
		<rect x="29" y="435" fill-rule="evenodd" clip-rule="evenodd" fill="#F1F2F2" stroke="#848484" stroke-miterlimit="10" width="3.5" height="48.9"/>
	
		<rect x="29" y="435" fill-rule="evenodd" clip-rule="evenodd" fill="#F1F2F2" stroke="#848484" stroke-miterlimit="10" width="3.5" height="48.9"/>
	
		<rect x="83.6" y="468.3" fill-rule="evenodd" clip-rule="evenodd" fill="#F1F2F2" stroke="#848484" stroke-miterlimit="10" width="4.7" height="16.1"/>
	
		<rect x="83.6" y="468.3" fill-rule="evenodd" clip-rule="evenodd" fill="#F1F2F2" stroke="#848484" stroke-miterlimit="10" width="4.7" height="16.1"/>
	
		<rect x="32.1" y="432.8" fill-rule="evenodd" clip-rule="evenodd" fill="#F1F2F2" stroke="#848484" stroke-miterlimit="10" width="53.6" height="53.7"/>
	
		<rect x="32.1" y="432.8" fill-rule="evenodd" clip-rule="evenodd" fill="#F1F2F2" stroke="#848484" stroke-miterlimit="10" width="53.6" height="53.7"/>
	<path fill-rule="evenodd" clip-rule="evenodd" fill="#F1F2F2" stroke="#848484" stroke-miterlimit="10" d="M80.8,432.8l0,53.7
		L80.8,432.8z"/>
	<path fill-rule="evenodd" clip-rule="evenodd" fill="#F1F2F2" stroke="#848484" stroke-miterlimit="10" d="M80.6,430.2
		c-1,0-2.1,0.9-2.1,2.1c0,1.3,1,2.1,2.1,2.1c1.3,0,2.3-0.9,2.3-2.1C82.9,431.2,81.9,430.2,80.6,430.2z"/>
	<path fill-rule="evenodd" clip-rule="evenodd" fill="#F1F2F2" stroke="#848484" stroke-miterlimit="10" d="M80.6,430.2
		c-1,0-2.1,0.9-2.1,2.1c0,1.3,1,2.1,2.1,2.1c1.3,0,2.3-0.9,2.3-2.1C82.9,431.2,81.9,430.2,80.6,430.2z"/>
	<path fill-rule="evenodd" clip-rule="evenodd" fill="#F1F2F2" stroke="#848484" stroke-miterlimit="10" d="M53.2,459.9h9.4H53.2z"
		/>
	<path fill-rule="evenodd" clip-rule="evenodd" fill="#F1F2F2" stroke="#848484" stroke-miterlimit="10" d="M57.8,455.3l0,9.4
		L57.8,455.3z"/>
	<path fill-rule="evenodd" clip-rule="evenodd" fill="#F1F2F2" stroke="#848484" stroke-miterlimit="10" d="M61.4,456.6l-6.9,6.9
		L61.4,456.6z"/>
	<path fill-rule="evenodd" clip-rule="evenodd" fill="#F1F2F2" stroke="#848484" stroke-miterlimit="10" d="M61.4,463.4l-6.9-6.9
		L61.4,463.4z"/>
	<path fill-rule="evenodd" clip-rule="evenodd" fill="#F1F2F2" stroke="#848484" stroke-miterlimit="10" d="M52.9,446h9.4H52.9z"/>
	<path fill-rule="evenodd" clip-rule="evenodd" fill="#F1F2F2" stroke="#848484" stroke-miterlimit="10" d="M57.5,441.3l0,9.4
		L57.5,441.3z"/>
	<path fill-rule="evenodd" clip-rule="evenodd" fill="#F1F2F2" stroke="#848484" stroke-miterlimit="10" d="M61,442.7l-6.9,6.9
		L61,442.7z"/>
	<path fill-rule="evenodd" clip-rule="evenodd" fill="#F1F2F2" stroke="#848484" stroke-miterlimit="10" d="M61,449.5l-6.9-6.9
		L61,449.5z"/>
	<path fill-rule="evenodd" clip-rule="evenodd" fill="#F1F2F2" stroke="#848484" stroke-miterlimit="10" d="M53.2,473.5h9.4H53.2z"
		/>
	<path fill-rule="evenodd" clip-rule="evenodd" fill="#F1F2F2" stroke="#848484" stroke-miterlimit="10" d="M57.8,468.9l0,9.4
		L57.8,468.9z"/>
	<path fill-rule="evenodd" clip-rule="evenodd" fill="#F1F2F2" stroke="#848484" stroke-miterlimit="10" d="M61.4,470.2l-6.9,6.9
		L61.4,470.2z"/>
	<path fill-rule="evenodd" clip-rule="evenodd" fill="#F1F2F2" stroke="#848484" stroke-miterlimit="10" d="M61.4,476.9l-6.9-6.9
		L61.4,476.9z"/>
</g>
<g id="moyka_2_9_">
	<path fill="#F3F3F3" stroke="#838383" d="M79.9,356.3c0,1.5-1.2,2.7-2.7,2.7H37.4c-1.5,0-2.7-1.2-2.7-2.7v-32.9
		c0-1.5,1.2-2.7,2.7-2.7h39.8c1.5,0,2.7,1.2,2.7,2.7V356.3z"/>
	<path fill="#F3F3F3" stroke="#838383" d="M77.2,353.5c0,1.5-1.2,2.7-2.7,2.7H40.2c-1.5,0-2.7-1.2-2.7-2.7v-23.3
		c0-1.5,1.2-2.7,2.7-2.7h34.3c1.5,0,2.7,1.2,2.7,2.7V353.5z"/>
	<rect x="56.6" y="324.7" fill="#F3F3F3" stroke="#838383" width="2.7" height="11"/>
	<circle fill="#F3F3F3" stroke="#838383" cx="57.3" cy="343.2" r="2.1"/>
</g>
<g id="plita_9_">
	<rect x="119.8" y="312.6" fill="#F3F3F3" stroke="#838383" width="48" height="49.4"/>
	<circle fill="#F3F3F3" stroke="#838383" cx="133.5" cy="349.6" r="8.2"/>
	<circle fill="#F3F3F3" stroke="#838383" cx="154" cy="329.1" r="8.2"/>
	<circle fill="#F3F3F3" stroke="#838383" cx="154" cy="349.6" r="6.9"/>
	<circle fill="#F3F3F3" stroke="#838383" cx="133.5" cy="329.1" r="6.9"/>
</g>
<g id="stirka_8_">
	<rect x="123.5" y="259.4" fill="#F3F3F3" stroke="#838383" width="41.1" height="41.1"/>
	<path fill="#F3F3F3" stroke="#838383" d="M126.2,296.5c0-1.5,1.2-2.7,2.7-2.7h9.6c1.5,0,2.7,1.2,2.7,2.7v4.1h-15.1V296.5z"/>
	<circle fill="#F3F3F3" stroke="#838383" cx="144" cy="278.6" r="11"/>
	<circle fill="#F3F3F3" stroke="#838383" cx="144" cy="278.6" r="8.2"/>
	<circle fill="#F3F3F3" stroke="#838383" cx="157.8" cy="293.7" r="2.7"/>
</g>
<g id="unitaz_11_">
	<path fill="#F3F3F3" stroke="#838383" d="M28.7,205.1h9.6c1.5,0,2.7,1.2,2.7,2.7v24.7c0,1.5-1.2,2.7-2.7,2.7h-9.6V205.1z"/>
	<path fill="#F3F3F3" stroke="#838383" d="M41,207.8c0-1.5,1.2-2.7,2.7-2.7v30.2c-1.5,0-2.7-1.2-2.7-2.7V207.8z"/>
	<path fill="#F3F3F3" stroke="#838383" d="M79.4,220.1c0,21.3-35.7,15.1-35.7,15.1v-30.2C43.8,205.1,79.4,198.9,79.4,220.1z"/>
	<circle fill="#F3F3F3" stroke="#838383" cx="34.2" cy="220.1" r="2.7"/>
</g>
<g id="moyka_11_">
	<path fill="#F3F3F3" stroke="#838383" d="M28.2,133.8c0-0.8,0.7-1.5,1.5-1.5h29.9c0.8,0,1.5,0.7,1.5,1.5v44.9
		c0,0.8-0.7,1.5-1.5,1.5H29.7c-0.8,0-1.5-0.7-1.5-1.5V133.8z"/>
	<rect x="32.7" y="132.3" fill="#F3F3F3" stroke="#838383" width="3" height="47.9"/>
	<ellipse fill="#F3F3F3" stroke="#838383" cx="48.4" cy="155.5" rx="9.7" ry="15.7"/>
	<rect x="32.7" y="154.8" fill="#F3F3F3" stroke="#838383" width="12" height="3"/>
	<circle fill="#F3F3F3" stroke="#838383" cx="49.9" cy="157" r="2.2"/>
</g>
<g id="vanna_9_">
	<rect x="27.7" y="69.6" fill="#F3F3F3" stroke="#838383" width="130.6" height="52.1"/>
	<path fill="#F3F3F3" stroke="#838383" d="M150.2,103.9c0,7.6-6,13.7-13.5,13.7H46.6V73.7h90.2c7.4,0,13.5,6.1,13.5,13.7V103.9z"/>
	<path fill="#F3F3F3" stroke="#838383" d="M39.8,89.5V108h4.7V97"/>
	<path id="Union_9_" fill="#F3F3F3" stroke="#838383" d="M38.5,88.8c0,0.8,0.6,1.4,1.3,1.4c0.7,0,1.3-0.6,1.3-1.4v-1.6
		c1.6-0.6,2.7-2.1,2.7-3.9c0-2.3-1.8-4.1-4-4.1c-2.2,0-4,1.8-4,4.1c0,1.8,1.1,3.3,2.7,3.9V88.8z"/>
	<rect x="42.5" y="94.3" fill="#F3F3F3" stroke="#838383" width="10.8" height="2.7"/>
</g>
<rect x="96.2" y="679.1" fill="#FFFFFF" stroke="#000000" stroke-miterlimit="10" width="125" height="6.4"/>
<rect x="96.2" y="679.1" fill="#FFFFFF" stroke="#000000" stroke-miterlimit="10" width="8.8" height="6.4"/>
<rect x="165.5" y="679.1" fill="#FFFFFF" stroke="#000000" stroke-miterlimit="10" width="8.8" height="6.4"/>
<rect x="211.9" y="679.1" fill="#FFFFFF" stroke="#000000" stroke-miterlimit="10" width="9.3" height="6.4"/>
<rect x="168.8" y="667.2" fill="#FFFFFF" stroke="#000000" stroke-miterlimit="10" width="52.4" height="11.9"/>
<rect x="168.8" y="685.5" fill="#FFFFFF" stroke="#000000" stroke-miterlimit="10" width="46.6" height="12.1"/>
<g>
	
		<rect x="170.6" y="637.6" transform="matrix(6.123234e-17 -1 1 6.123234e-17 -599.8406 966.2937)" fill="#FFFFFF" stroke="#000000" stroke-miterlimit="10" width="25.2" height="290.9"/>
	
		<rect x="171.2" y="642.9" transform="matrix(6.123234e-17 -1 1 6.123234e-17 -605.1403 956.2426)" fill="#FFFFFF" stroke="#000000" stroke-miterlimit="10" width="8.8" height="275.6"/>
	
		<rect x="171.6" y="645.2" transform="matrix(6.123234e-17 -1 1 6.123234e-17 -607.4756 953.7245)" fill="#FFFFFF" stroke="#000000" stroke-miterlimit="10" width="3.1" height="270.7"/>
</g>
<line fill="#FFFFFF" stroke="#000000" stroke-miterlimit="10" x1="105" y1="679.1" x2="158.7" y2="647.1"/>
<line fill="#FFFFFF" stroke="#000000" stroke-miterlimit="10" x1="174.5" y1="136.5" x2="206.3" y2="191.3"/>
<line fill="#FFFFFF" stroke="#000000" stroke-miterlimit="10" x1="189.4" y1="46.1" x2="257.1" y2="5.7"/>
<rect x="8.2" y="783.8" fill="#838383" stroke="#000000" stroke-miterlimit="10" width="29.6" height="11.3"/>
<rect x="8.2" y="46.1" fill="#838383" stroke="#000000" stroke-miterlimit="10" width="17.9" height="737.7"/>
<rect x="26.1" y="667.2" fill="#838383" stroke="#000000" stroke-miterlimit="10" width="70.2" height="18.3"/>
<rect x="26.1" y="685.5" fill="#838383" stroke="#000000" stroke-miterlimit="10" width="72.4" height="11.3"/>
<rect x="26.1" y="696.8" fill="#838383" stroke="#000000" stroke-miterlimit="10" width="11.7" height="87"/>
<rect x="215.4" y="685.5" fill="#838383" stroke="#000000" stroke-miterlimit="10" width="113.3" height="11.3"/>
<rect x="221.2" y="667.2" fill="#838383" stroke="#000000" stroke-miterlimit="10" width="92.1" height="18.3"/>
<rect x="313.3" y="696.8" fill="#838383" stroke="#000000" stroke-miterlimit="10" width="15.4" height="90.6"/>
<rect x="313.3" y="647.1" fill="#838383" stroke="#000000" stroke-miterlimit="10" width="23.4" height="38.4"/>
<rect x="313.3" y="69.6" fill="#838383" stroke="#000000" stroke-miterlimit="10" width="23.4" height="577.5"/>
<rect x="26.1" y="46.1" fill="#838383" stroke="#000000" stroke-miterlimit="10" width="163.4" height="14.8"/>
<rect x="175.3" y="60.9" fill="#838383" stroke="#000000" stroke-miterlimit="10" width="14.2" height="8.8"/>
<rect x="268.4" y="46.1" fill="#838383" stroke="#000000" stroke-miterlimit="10" width="68.3" height="23.6"/>
<rect x="166" y="60.9" fill="#C6C6C6" stroke="#000000" stroke-miterlimit="10" width="9.3" height="75.7"/>
<rect x="166" y="200.1" fill="#C6C6C6" stroke="#000000" stroke-miterlimit="10" width="9.3" height="111.3"/>
<rect x="26.1" y="302.1" fill="#C6C6C6" stroke="#000000" stroke-miterlimit="10" width="139.9" height="9.3"/>
<rect x="26.1" y="60.9" fill="#C6C6C6" stroke="#000000" stroke-miterlimit="10" width="139.9" height="7.1"/>
<rect x="69.6" y="264.3" fill="#C6C6C6" stroke="#000000" stroke-miterlimit="10" width="7.1" height="37.8"/>
<rect x="50" y="264.3" fill="#C6C6C6" stroke="#000000" stroke-miterlimit="10" width="19.5" height="7.1"/>
<rect x="26.1" y="264.3" fill="#C6C6C6" stroke="#000000" stroke-miterlimit="10" width="23.9" height="2.9"/>
<g>
	<path d="M106.6,219.6c1.1,0.9,1.7,2.2,1.7,3.8c0,1-0.2,1.9-0.7,2.7c-0.5,0.8-1.2,1.4-2.2,1.9c-1,0.5-2.2,0.7-3.6,0.7
		c-1.2,0-2.4-0.2-3.5-0.5c-1.1-0.4-2.1-0.9-2.8-1.5l1.1-1.9c0.6,0.6,1.3,1,2.2,1.3c0.9,0.3,1.9,0.5,2.9,0.5c1.3,0,2.3-0.3,3-0.8
		c0.7-0.5,1.1-1.3,1.1-2.2c0-1-0.4-1.8-1.2-2.3c-0.8-0.5-2.1-0.8-4-0.8h-3.9l0.9-8.9h9.6v2.1h-7.6l-0.5,4.7h1.9
		C103.7,218.2,105.5,218.7,106.6,219.6z"/>
	<path d="M113.1,225.8c0.3,0.3,0.5,0.7,0.5,1.2c0,0.2,0,0.5-0.1,0.7c-0.1,0.2-0.2,0.6-0.3,1l-1.1,3.4h-1.5l0.9-3.6
		c-0.3-0.1-0.6-0.3-0.7-0.6s-0.3-0.6-0.3-0.9c0-0.5,0.2-0.9,0.5-1.2c0.3-0.3,0.7-0.5,1.2-0.5C112.5,225.3,112.8,225.5,113.1,225.8z"
		/>
	<path d="M119,227.7c-1-0.7-1.9-1.7-2.5-3c-0.6-1.3-0.9-2.9-0.9-4.7s0.3-3.4,0.9-4.7c0.6-1.3,1.4-2.3,2.5-3c1-0.7,2.2-1,3.6-1
		c1.3,0,2.5,0.3,3.6,1c1,0.7,1.9,1.7,2.5,3c0.6,1.3,0.9,2.9,0.9,4.7s-0.3,3.4-0.9,4.7c-0.6,1.3-1.4,2.3-2.5,3c-1,0.7-2.2,1-3.6,1
		C121.2,228.7,120,228.4,119,227.7z M125.9,224.9c0.8-1.1,1.2-2.8,1.2-4.9c0-2.1-0.4-3.8-1.2-4.9c-0.8-1.1-1.9-1.7-3.3-1.7
		c-1.4,0-2.5,0.6-3.3,1.7c-0.8,1.1-1.2,2.8-1.2,4.9c0,2.1,0.4,3.8,1.2,4.9c0.8,1.1,1.9,1.7,3.3,1.7C124,226.5,125.1,226,125.9,224.9
		z"/>
</g>
<g>
	<path d="M173.4,738.5c0.9,0.9,1.3,2,1.3,3.3c0,1-0.2,1.9-0.7,2.6s-1.2,1.4-2.2,1.9s-2.2,0.7-3.6,0.7c-1.2,0-2.4-0.2-3.5-0.5
		c-1.1-0.4-2-0.9-2.8-1.5l1.1-1.9c0.6,0.6,1.3,1,2.2,1.3c0.9,0.3,1.9,0.5,2.9,0.5c1.3,0,2.3-0.3,3-0.8c0.7-0.5,1.1-1.3,1.1-2.2
		c0-0.9-0.4-1.7-1-2.2c-0.7-0.5-1.8-0.8-3.2-0.8h-1.4v-1.7l4.3-5.3h-8.2v-2.1H174v1.7l-4.5,5.5C171.2,737.1,172.5,737.7,173.4,738.5
		z"/>
	<path d="M179.7,744.2c0.3,0.3,0.5,0.7,0.5,1.2c0,0.2,0,0.5-0.1,0.7c-0.1,0.2-0.2,0.6-0.3,1l-1.1,3.4h-1.5l0.9-3.6
		c-0.3-0.1-0.6-0.3-0.7-0.6s-0.3-0.6-0.3-0.9c0-0.5,0.2-0.9,0.5-1.2c0.3-0.3,0.7-0.5,1.2-0.5C179.1,743.7,179.4,743.8,179.7,744.2z"
		/>
	<path d="M194.8,744.8v2.1h-12.3v-1.7l7-6.7c0.8-0.8,1.4-1.5,1.7-2.1c0.3-0.6,0.4-1.2,0.4-1.8c0-0.9-0.3-1.6-0.9-2.1
		c-0.6-0.5-1.5-0.7-2.7-0.7c-1.9,0-3.3,0.6-4.4,1.9l-1.7-1.4c0.7-0.8,1.5-1.4,2.6-1.9c1.1-0.5,2.3-0.7,3.6-0.7
		c1.8,0,3.2,0.4,4.3,1.3c1.1,0.9,1.6,2,1.6,3.5c0,0.9-0.2,1.8-0.6,2.6c-0.4,0.8-1.1,1.7-2.2,2.8l-5.2,5H194.8z"/>
</g>
<g>
	<path d="M156.3,569.5v2.1H144v-1.7l7-6.7c0.8-0.8,1.4-1.5,1.7-2.1s0.4-1.2,0.4-1.8c0-0.9-0.3-1.6-0.9-2.1c-0.6-0.5-1.5-0.7-2.7-0.7
		c-1.9,0-3.3,0.6-4.4,1.9l-1.7-1.4c0.7-0.8,1.5-1.4,2.6-1.9c1.1-0.5,2.3-0.7,3.6-0.7c1.8,0,3.2,0.4,4.3,1.3c1.1,0.9,1.6,2,1.6,3.5
		c0,0.9-0.2,1.8-0.6,2.6c-0.4,0.8-1.1,1.7-2.2,2.8l-5.2,5H156.3z"/>
	<path d="M170.3,569.5v2.1H158v-1.7l7-6.7c0.8-0.8,1.4-1.5,1.7-2.1s0.4-1.2,0.4-1.8c0-0.9-0.3-1.6-0.9-2.1c-0.6-0.5-1.5-0.7-2.7-0.7
		c-1.9,0-3.3,0.6-4.4,1.9l-1.7-1.4c0.7-0.8,1.5-1.4,2.6-1.9c1.1-0.5,2.3-0.7,3.6-0.7c1.8,0,3.2,0.4,4.3,1.3c1.1,0.9,1.6,2,1.6,3.5
		c0,0.9-0.2,1.8-0.6,2.6c-0.4,0.8-1.1,1.7-2.2,2.8l-5.2,5H170.3z"/>
	<path d="M175.3,568.9c0.3,0.3,0.5,0.7,0.5,1.2c0,0.2,0,0.5-0.1,0.7c-0.1,0.2-0.2,0.6-0.3,1l-1.1,3.4h-1.5l0.9-3.6
		c-0.3-0.1-0.6-0.3-0.7-0.6s-0.3-0.6-0.3-0.9c0-0.5,0.2-0.9,0.5-1.2c0.3-0.3,0.7-0.5,1.2-0.5C174.6,568.4,175,568.6,175.3,568.9z"/>
	<path d="M190.3,569.5v2.1h-12.3v-1.7l7-6.7c0.8-0.8,1.4-1.5,1.7-2.1s0.4-1.2,0.4-1.8c0-0.9-0.3-1.6-0.9-2.1
		c-0.6-0.5-1.5-0.7-2.7-0.7c-1.9,0-3.3,0.6-4.4,1.9l-1.7-1.4c0.7-0.8,1.5-1.4,2.6-1.9c1.1-0.5,2.3-0.7,3.6-0.7
		c1.8,0,3.2,0.4,4.3,1.3c1.1,0.9,1.6,2,1.6,3.5c0,0.9-0.2,1.8-0.6,2.6c-0.4,0.8-1.1,1.7-2.2,2.8l-5.2,5H190.3z"/>
</g>
<g>
	<path fill-rule="evenodd" clip-rule="evenodd" fill="#F1F2F2" stroke="#848484" stroke-miterlimit="10" d="M202.5,666.2h57.4h46.2
		c3.1,0,5.6-2.5,5.6-5.6v-46.3v-140c0-3.1-2.5-5.6-5.6-5.6h-46.2c-3.1,0-5.6,2.5-5.6,5.6v128.8c0,3.1-2.5,5.6-5.6,5.6h-46.2
		c-3.1,0-5.6,2.5-5.6,5.6v46.3C196.9,663.7,199.4,666.2,202.5,666.2z"/>
	<g>
		<path fill-rule="evenodd" clip-rule="evenodd" fill="#F1F2F2" stroke="#848484" stroke-miterlimit="10" d="M263.5,608.7
			c-6.5,0-9.3,0.3-9.3,8.6V642c0,8.3,2.8,8.6,9.3,8.6h24.5c6.5,0,9.3-0.3,9.3-8.6v-24.6c0-8.3-2.8-8.6-9.3-8.6H263.5z"/>
		<path fill-rule="evenodd" clip-rule="evenodd" fill="#F1F2F2" stroke="#848484" stroke-miterlimit="10" d="M263.5,608.7
			c-6.5,0-9.3,0.3-9.3,8.6V642c0,8.3,2.8,8.6,9.3,8.6h24.5c6.5,0,9.3-0.3,9.3-8.6v-24.6c0-8.3-2.8-8.6-9.3-8.6H263.5z"/>
		<path fill-rule="evenodd" clip-rule="evenodd" fill="#F1F2F2" stroke="#848484" stroke-miterlimit="10" d="M263.5,567.1
			c-6.5,0-9.3,0.3-9.3,8.6v24.6c0,8.3,2.8,8.6,9.3,8.6h24.5c6.5,0,9.3-0.3,9.3-8.6v-24.6c0-8.3-2.8-8.6-9.3-8.6H263.5z"/>
		<path fill-rule="evenodd" clip-rule="evenodd" fill="#F1F2F2" stroke="#848484" stroke-miterlimit="10" d="M263.5,567.1
			c-6.5,0-9.3,0.3-9.3,8.6v24.6c0,8.3,2.8,8.6,9.3,8.6h24.5c6.5,0,9.3-0.3,9.3-8.6v-24.6c0-8.3-2.8-8.6-9.3-8.6H263.5z"/>
		<path fill-rule="evenodd" clip-rule="evenodd" fill="#F1F2F2" stroke="#848484" stroke-miterlimit="10" d="M263.5,525.7
			c-6.5,0-9.3,0.3-9.3,8.5v24.7c0,8.3,2.8,8.5,9.3,8.5h24.5c6.5,0,9.3-0.3,9.3-8.5v-24.7c0-8.3-2.8-8.5-9.3-8.5H263.5z"/>
		<path fill-rule="evenodd" clip-rule="evenodd" fill="#F1F2F2" stroke="#848484" stroke-miterlimit="10" d="M263.5,525.7
			c-6.5,0-9.3,0.3-9.3,8.5v24.7c0,8.3,2.8,8.5,9.3,8.5h24.5c6.5,0,9.3-0.3,9.3-8.5v-24.7c0-8.3-2.8-8.5-9.3-8.5H263.5z"/>
		<path fill-rule="evenodd" clip-rule="evenodd" fill="#F1F2F2" stroke="#848484" stroke-miterlimit="10" d="M220.5,608.7
			c-6.5,0-9.3,0.3-9.3,8.6V642c0,8.3,2.8,8.6,9.3,8.6H245c6.5,0,9.3-0.3,9.3-8.6v-24.6c0-8.3-2.8-8.6-9.3-8.6H220.5z"/>
		<path fill-rule="evenodd" clip-rule="evenodd" fill="#F1F2F2" stroke="#848484" stroke-miterlimit="10" d="M263.7,484.2
			c-6.5,0-9.3,0.3-9.3,8.5v24.7c0,8.3,2.8,8.5,9.3,8.5h24.5c6.5,0,9.3-0.3,9.3-8.5v-24.7c0-8.3-2.8-8.5-9.3-8.5H263.7z"/>
		<path fill-rule="evenodd" clip-rule="evenodd" fill="#F1F2F2" stroke="#848484" stroke-miterlimit="10" d="M305.7,666.2H205.3
			h-2.5c-3.3,0-5.9-2.9-5.9-6.4v-2.6v-42c0-3.5,2.7-6.4,5.9-6.4h2.5c3.3,0,5.9,2.9,5.9,6.4v35.7h86.1V484.2h-37.1
			c-3.3,0-5.9-2.9-5.9-6.4v-2.6c0-3.5,2.7-6.4,5.9-6.4h43.1h2.5c3.3,0,5.9,2.9,5.9,6.4v2.6v179.4v2.6v0
			C311.7,663.3,309,666.2,305.7,666.2z"/>
	</g>
</g>
<g>
	<path fill-rule="evenodd" clip-rule="evenodd" fill="#F1F2F2" stroke="#848484" stroke-miterlimit="10" d="M26.9,507.7h20.1V532
		H26.9V507.7L26.9,507.7z M26.9,532H57v90.4H26.9V532z"/>
	<path fill-rule="evenodd" clip-rule="evenodd" fill="#F1F2F2" stroke="#848484" stroke-miterlimit="10" d="M37.7,586.1
		c-5.2,0-5.7-4.7-5.7-10.6c0-5.8,0.5-10.6,5.7-10.6s9.5,4.7,9.5,10.6C47.1,581.4,42.9,586.1,37.7,586.1z"/>
	
		<rect x="38.6" y="540" fill-rule="evenodd" clip-rule="evenodd" fill="#F1F2F2" stroke="#848484" stroke-miterlimit="10" width="4" height="70.9"/>
	
		<rect x="38.6" y="540" fill-rule="evenodd" clip-rule="evenodd" fill="#F1F2F2" stroke="#848484" stroke-miterlimit="10" width="4" height="70.9"/>
	<polygon fill-rule="evenodd" clip-rule="evenodd" fill="#F1F2F2" stroke="#848484" stroke-miterlimit="10" points="38.8,604.9 
		35.5,593.5 35.5,557.5 38.8,546.1 	"/>
	<polygon fill-rule="evenodd" clip-rule="evenodd" fill="#F1F2F2" stroke="#848484" stroke-miterlimit="10" points="38.8,604.9 
		35.5,593.5 35.5,557.5 38.8,546.1 	"/>
	<path fill-rule="evenodd" clip-rule="evenodd" fill="#F1F2F2" stroke="#848484" stroke-miterlimit="10" d="M49.2,509.8h2v20h-2
		V509.8L49.2,509.8z M26.9,622.3h20.2v24.2H26.9V622.3L26.9,622.3z M49.2,624.5h2v20h-2V624.5z"/>
</g>
<g>
</g>
<g>
</g>
<g>
</g>
<g>
</g>
<g>
</g>
<g>
</g>
</svg>
