<?xml version="1.0" encoding="utf-8"?>
<!-- Generator: Adobe Illustrator 23.0.2, SVG Export Plug-In . SVG Version: 6.00 Build 0)  -->
<svg version="1.1" id="Слой_1" xmlns="http://www.w3.org/2000/svg" xmlns:xlink="http://www.w3.org/1999/xlink" x="0px" y="0px"
	 viewBox="0 0 800 642.5" enable-background="new 0 0 800 642.5" xml:space="preserve">
<polygon fill-rule="evenodd" clip-rule="evenodd" fill="#F1F2F2" stroke="#848484" stroke-miterlimit="10" points="719,611.7 
	719,395.4 658.8,395.4 658.8,557.3 518.2,557.3 518.2,611.7 "/>
<g id="moyka_2_3_">
	<path fill="#F3F3F3" stroke="#838383" d="M670.9,471.4c-1.8,0-3.2-1.5-3.2-3.2v-47.1c0-1.8,1.5-3.2,3.2-3.2h39
		c1.8,0,3.2,1.5,3.2,3.2v47.1c0,1.8-1.5,3.2-3.2,3.2H670.9z"/>
	<path fill="#F3F3F3" stroke="#838383" d="M674.2,468.1c-1.8,0-3.2-1.5-3.2-3.2v-40.6c0-1.8,1.5-3.2,3.2-3.2h27.6
		c1.8,0,3.2,1.5,3.2,3.2v40.6c0,1.8-1.5,3.2-3.2,3.2H674.2z"/>
	<rect x="695.3" y="443.8" fill="#F3F3F3" stroke="#838383" width="13" height="3.2"/>
	<circle fill="#F3F3F3" stroke="#838383" cx="686.3" cy="444.6" r="2.4"/>
</g>
<g id="plita_3_">
	<rect x="659.4" y="495.8" fill="#F3F3F3" stroke="#838383" width="58.4" height="56.8"/>
	<circle fill="#F3F3F3" stroke="#838383" cx="674" cy="512.1" r="9.7"/>
	<circle fill="#F3F3F3" stroke="#838383" cx="698.4" cy="536.4" r="9.7"/>
	<circle fill="#F3F3F3" stroke="#838383" cx="674" cy="536.4" r="8.1"/>
	<circle fill="#F3F3F3" stroke="#838383" cx="698.4" cy="512.1" r="8.1"/>
</g>
<g id="unitaz_3_">
	<path fill="#F3F3F3" stroke="#838383" d="M659.4,26.2v11.4c0,1.8-1.5,3.2-3.2,3.2H627c-1.8,0-3.2-1.5-3.2-3.2V26.2H659.4z"/>
	<path fill="#F3F3F3" stroke="#838383" d="M656.2,40.8c1.8,0,3.2,1.5,3.2,3.2h-35.7c0-1.8,1.5-3.2,3.2-3.2H656.2z"/>
	<path fill="#F3F3F3" stroke="#838383" d="M641.6,86.3c-25.2,0-17.9-42.2-17.9-42.2h35.7C659.4,44.1,666.7,86.3,641.6,86.3z"/>
	<circle fill="#F3F3F3" stroke="#838383" cx="641.6" cy="32.7" r="3.2"/>
</g>
<g id="moyka_3_">
	<path fill="#F3F3F3" stroke="#838383" d="M581.6,27c1,0,1.8,0.8,1.8,1.8v35.4c0,1-0.8,1.8-1.8,1.8h-53.1c-1,0-1.8-0.8-1.8-1.8V28.8
		c0-1,0.8-1.8,1.8-1.8H581.6z"/>
	<rect x="526.7" y="32.3" fill="#F3F3F3" stroke="#838383" width="56.7" height="3.5"/>
	<ellipse fill="#F3F3F3" stroke="#838383" cx="555.9" cy="50.9" rx="18.6" ry="11.5"/>
	<rect x="553.2" y="32.3" fill="#F3F3F3" stroke="#838383" width="3.5" height="14.2"/>
	<circle fill="#F3F3F3" stroke="#838383" cx="554.1" cy="52.7" r="2.7"/>
</g>
<g id="stirka_2_">
	<rect x="670.9" y="138.3" fill="#F3F3F3" stroke="#838383" width="48.7" height="48.7"/>
	<path fill="#F3F3F3" stroke="#838383" d="M719.6,141.5v17.9h-4.9c-1.8,0-3.2-1.5-3.2-3.2v-11.4c0-1.8,1.5-3.2,3.2-3.2H719.6z"/>
	<circle fill="#F3F3F3" stroke="#838383" cx="693.7" cy="162.6" r="13"/>
	<circle fill="#F3F3F3" stroke="#838383" cx="693.7" cy="162.6" r="9.7"/>
	<circle fill="#F3F3F3" stroke="#838383" cx="711.5" cy="178.9" r="3.2"/>
</g>
<g id="vanna_2_">
	<rect x="442.7" y="27" fill="#F3F3F3" stroke="#838383" width="61.7" height="157.5"/>
	<path fill="#F3F3F3" stroke="#838383" d="M463.8,174.7c-9,0-16.2-7.3-16.2-16.2V49.7h51.9v108.8c0,9-7.3,16.2-16.2,16.2H463.8z"/>
	<path fill="#F3F3F3" stroke="#838383" d="M480.9,41.6H459v5.7h13"/>
	<path id="Union_2_" fill="#F3F3F3" stroke="#838383" d="M481.7,40c-0.9,0-1.6,0.7-1.6,1.6c0,0.9,0.7,1.6,1.6,1.6h1.9
		c0.7,1.9,2.5,3.2,4.6,3.2c2.7,0,4.9-2.2,4.9-4.9c0-2.7-2.2-4.9-4.9-4.9c-2.1,0-3.9,1.4-4.6,3.2H481.7z"/>
	<rect x="472" y="44.9" fill="#F3F3F3" stroke="#838383" width="3.2" height="13"/>
</g>
<rect x="155.6" y="356.9" fill="#FFFFFF" stroke="#000000" stroke-miterlimit="10" width="6.9" height="147.5"/>
<rect x="142.1" y="446" fill="#FFFFFF" stroke="#000000" stroke-miterlimit="10" width="13.4" height="54.5"/>
<rect x="162.5" y="446" fill="#FFFFFF" stroke="#000000" stroke-miterlimit="10" width="14.3" height="58.4"/>
<rect x="155.6" y="494.2" fill="#FFFFFF" stroke="#000000" stroke-miterlimit="10" width="6.9" height="11"/>
<rect x="155.6" y="438.2" fill="#FFFFFF" stroke="#000000" stroke-miterlimit="10" width="6.9" height="10.8"/>
<rect x="155.6" y="356.9" fill="#FFFFFF" stroke="#000000" stroke-miterlimit="10" width="6.9" height="10.4"/>
<rect x="17.5" y="98.6" fill="#FFFFFF" stroke="#000000" stroke-miterlimit="10" width="7.2" height="140.6"/>
<rect x="17.5" y="98.6" fill="#FFFFFF" stroke="#000000" stroke-miterlimit="10" width="7.2" height="12.4"/>
<rect x="17.5" y="163.6" fill="#FFFFFF" stroke="#000000" stroke-miterlimit="10" width="7.2" height="7.2"/>
<rect x="17.5" y="225.2" fill="#FFFFFF" stroke="#000000" stroke-miterlimit="10" width="7.2" height="14"/>
<rect x="24.8" y="98.6" fill="#FFFFFF" stroke="#000000" stroke-miterlimit="10" width="13.5" height="140.6"/>
<rect x="5" y="102.5" fill="#FFFFFF" stroke="#000000" stroke-miterlimit="10" width="12.5" height="133.3"/>
<g>
	<rect x="5" y="347.8" fill="#FFFFFF" stroke="#000000" stroke-miterlimit="10" width="29.9" height="283.8"/>
	<rect x="17.5" y="347.8" fill="#FFFFFF" stroke="#000000" stroke-miterlimit="10" width="10.4" height="265.6"/>
	<rect x="21" y="347.8" fill="#FFFFFF" stroke="#000000" stroke-miterlimit="10" width="3.7" height="261"/>
</g>
<line fill="#FFFFFF" stroke="#000000" stroke-miterlimit="10" x1="746.1" y1="201.1" x2="795" y2="279.9"/>
<line fill="#FFFFFF" stroke="#000000" stroke-miterlimit="10" x1="602.4" y1="201.1" x2="540.2" y2="240.5"/>
<line fill="#FFFFFF" stroke="#000000" stroke-miterlimit="10" x1="416.4" y1="301.9" x2="374.9" y2="229.2"/>
<line fill="#FFFFFF" stroke="#000000" stroke-miterlimit="10" x1="162.5" y1="367.3" x2="199.7" y2="428.3"/>
<rect x="5" y="6.4" fill="#838383" stroke="#000000" stroke-miterlimit="10" width="12.5" height="96"/>
<rect x="17.5" y="6.4" fill="#838383" stroke="#000000" stroke-miterlimit="10" width="728.6" height="19.5"/>
<rect x="17.5" y="25.9" fill="#838383" stroke="#000000" stroke-miterlimit="10" width="20.8" height="72.7"/>
<rect x="5" y="235.7" fill="#838383" stroke="#000000" stroke-miterlimit="10" width="12.5" height="110.3"/>
<rect x="17.5" y="239.2" fill="#838383" stroke="#000000" stroke-miterlimit="10" width="20.8" height="68.4"/>
<rect x="17.5" y="307.5" fill="#838383" stroke="#000000" stroke-miterlimit="10" width="159.2" height="25.1"/>
<rect x="155.6" y="332.6" fill="#838383" stroke="#000000" stroke-miterlimit="10" width="21.2" height="24.2"/>
<rect x="142.1" y="332.6" fill="#838383" stroke="#000000" stroke-miterlimit="10" width="13.4" height="31.6"/>
<rect x="17.5" y="332.6" fill="#838383" stroke="#000000" stroke-miterlimit="10" width="124.6" height="13.4"/>
<rect x="155.6" y="504.4" fill="#838383" stroke="#000000" stroke-miterlimit="10" width="21.2" height="109"/>
<rect x="142.1" y="500.5" fill="#838383" stroke="#000000" stroke-miterlimit="10" width="13.4" height="134.6"/>
<rect x="14.1" y="613.4" fill="#838383" stroke="#000000" stroke-miterlimit="10" width="128.1" height="18.2"/>
<rect x="155.6" y="613.4" fill="#838383" stroke="#000000" stroke-miterlimit="10" width="590.6" height="21.6"/>
<rect x="729.7" y="25.9" fill="#838383" stroke="#000000" stroke-miterlimit="10" width="16.4" height="175.2"/>
<rect x="719.7" y="293.7" fill="#838383" stroke="#000000" stroke-miterlimit="10" width="26.4" height="319.7"/>
<rect x="522.9" y="301.9" fill="#838383" stroke="#000000" stroke-miterlimit="10" width="44.6" height="47.6"/>
<rect x="416.1" y="25.9" fill="#C6C6C6" stroke="#000000" stroke-miterlimit="10" width="11" height="192.8"/>
<rect x="427.1" y="190.1" fill="#C6C6C6" stroke="#000000" stroke-miterlimit="10" width="103.2" height="11"/>
<rect x="602.4" y="190.1" fill="#C6C6C6" stroke="#000000" stroke-miterlimit="10" width="127.3" height="11"/>
<rect x="429" y="25.9" fill="#C6C6C6" stroke="#000000" stroke-miterlimit="10" width="8.5" height="164.2"/>
<rect x="721.2" y="25.9" fill="#C6C6C6" stroke="#000000" stroke-miterlimit="10" width="8.5" height="164.2"/>
<rect x="674.1" y="56.8" fill="#C6C6C6" stroke="#000000" stroke-miterlimit="10" width="8.5" height="69.9"/>
<rect x="682.5" y="118.3" fill="#C6C6C6" stroke="#000000" stroke-miterlimit="10" width="38.7" height="8.5"/>
<rect x="674.1" y="25.9" fill="#C6C6C6" stroke="#000000" stroke-miterlimit="10" width="3.4" height="30.9"/>
<rect x="567.4" y="341.1" fill="#C6C6C6" stroke="#000000" stroke-miterlimit="10" width="124.5" height="8.5"/>
<rect x="691.9" y="341.1" fill="#C6C6C6" stroke="#000000" stroke-miterlimit="10" width="27.8" height="3.6"/>
<rect x="618.6" y="386.8" fill="#C6C6C6" stroke="#000000" stroke-miterlimit="10" width="101.1" height="8.5"/>
<rect x="618.6" y="349.5" fill="#C6C6C6" stroke="#000000" stroke-miterlimit="10" width="8.5" height="37.3"/>
<rect x="416.1" y="301.9" fill="#C6C6C6" stroke="#000000" stroke-miterlimit="10" width="11" height="16.7"/>
<rect x="176.8" y="307.5" fill="#C6C6C6" stroke="#000000" stroke-miterlimit="10" width="239.4" height="11"/>
<g>
	<path d="M294.5,407.5h-3.7v7.4h-1.7v-16.2h1.7v7.3h3.7l5.5-7.3h1.8l-6,7.9l6.4,8.3h-2L294.5,407.5z"/>
	<path d="M314.8,402.7l-6.1,13.6c-0.5,1.1-1.1,1.9-1.7,2.4c-0.6,0.5-1.4,0.7-2.3,0.7c-0.6,0-1.1-0.1-1.6-0.3
		c-0.5-0.2-0.9-0.5-1.3-0.8l0.8-1.2c0.6,0.6,1.4,0.9,2.2,0.9c0.6,0,1-0.2,1.4-0.5c0.4-0.3,0.8-0.8,1.1-1.6l0.5-1.2l-5.4-12.1h1.7
		l4.6,10.3l4.6-10.3H314.8z"/>
	<path d="M324.2,414.9l-3.9-5.1l-3.9,5.1h-1.8l4.8-6.2l-4.6-5.9h1.8l3.7,4.8l3.7-4.8h1.8l-4.6,5.9l4.9,6.2H324.2z"/>
	<path d="M328.8,402.7h1.6v5.4h7.7v-5.4h1.6v12.2h-1.6v-5.4h-7.7v5.4h-1.6V402.7z"/>
	<path d="M353.7,402.7v12.2h-1.5v-4h-3.8H348l-2.8,4h-1.8l3-4.3c-0.9-0.3-1.7-0.7-2.2-1.3c-0.5-0.6-0.8-1.4-0.8-2.4
		c0-1.4,0.5-2.4,1.4-3.1c0.9-0.7,2.2-1.1,3.8-1.1H353.7z M348.6,409.6h3.7v-5.5h-3.6c-2.4,0-3.6,0.9-3.6,2.8
		C345.1,408.7,346.3,409.6,348.6,409.6z"/>
	<path d="M357.5,407.9h6.1v1.4h-6.1V407.9z"/>
	<path d="M290.6,441.9c-0.9-0.5-1.7-1.3-2.2-2.2c-0.5-0.9-0.8-2-0.8-3.2s0.3-2.3,0.8-3.2c0.5-0.9,1.3-1.7,2.2-2.2
		c0.9-0.5,2-0.8,3.2-0.8c1,0,2,0.2,2.8,0.6s1.5,1,2,1.8l-1.2,0.8c-0.4-0.6-0.9-1.1-1.5-1.4c-0.6-0.3-1.3-0.5-2-0.5
		c-0.9,0-1.7,0.2-2.4,0.6c-0.7,0.4-1.2,1-1.6,1.7c-0.4,0.7-0.6,1.5-0.6,2.5c0,0.9,0.2,1.8,0.6,2.5c0.4,0.7,0.9,1.3,1.6,1.7
		c0.7,0.4,1.5,0.6,2.4,0.6c0.7,0,1.4-0.1,2-0.4c0.6-0.3,1.1-0.7,1.5-1.3l1.2,0.8c-0.5,0.8-1.1,1.4-2,1.8c-0.8,0.4-1.8,0.6-2.8,0.6
		C292.7,442.7,291.6,442.5,290.6,441.9z"/>
	<path d="M310.1,431.9h-4.6v10.7h-1.6v-10.7h-4.6v-1.5h10.8V431.9z"/>
	<path d="M313.8,441.9c-0.9-0.5-1.7-1.3-2.2-2.2c-0.5-0.9-0.8-2-0.8-3.2s0.3-2.3,0.8-3.2c0.5-0.9,1.3-1.7,2.2-2.2
		c0.9-0.5,2-0.8,3.2-0.8c1.2,0,2.2,0.3,3.2,0.8c0.9,0.5,1.7,1.3,2.2,2.2c0.5,0.9,0.8,2,0.8,3.2s-0.3,2.3-0.8,3.2
		c-0.5,0.9-1.3,1.7-2.2,2.2c-0.9,0.5-2,0.8-3.2,0.8C315.8,442.7,314.7,442.5,313.8,441.9z M319.3,440.7c0.7-0.4,1.2-1,1.6-1.7
		c0.4-0.7,0.6-1.5,0.6-2.5s-0.2-1.7-0.6-2.5c-0.4-0.7-0.9-1.3-1.6-1.7c-0.7-0.4-1.5-0.6-2.3-0.6c-0.9,0-1.6,0.2-2.3,0.6
		c-0.7,0.4-1.2,1-1.6,1.7c-0.4,0.7-0.6,1.5-0.6,2.5s0.2,1.7,0.6,2.5c0.4,0.7,0.9,1.3,1.6,1.7c0.7,0.4,1.5,0.6,2.3,0.6
		C317.8,441.3,318.6,441.1,319.3,440.7z"/>
	<path d="M336.5,430.5v12.2h-1.6v-10.7H329l-0.2,3c-0.1,2.5-0.4,4.5-0.9,5.8s-1.3,2-2.5,2c-0.3,0-0.7-0.1-1.2-0.2l0.1-1.4
		c0.3,0.1,0.5,0.1,0.6,0.1c0.6,0,1.1-0.3,1.4-0.9s0.5-1.3,0.6-2.2s0.2-2,0.3-3.4l0.2-4.3H336.5z"/>
	<path d="M343,441.9c-0.9-0.5-1.7-1.3-2.2-2.2c-0.5-0.9-0.8-2-0.8-3.2s0.3-2.3,0.8-3.2c0.5-0.9,1.3-1.7,2.2-2.2
		c0.9-0.5,2-0.8,3.2-0.8c1.2,0,2.2,0.3,3.2,0.8c0.9,0.5,1.7,1.3,2.2,2.2c0.5,0.9,0.8,2,0.8,3.2s-0.3,2.3-0.8,3.2
		c-0.5,0.9-1.3,1.7-2.2,2.2c-0.9,0.5-2,0.8-3.2,0.8C345,442.7,344,442.5,343,441.9z M348.5,440.7c0.7-0.4,1.2-1,1.6-1.7
		c0.4-0.7,0.6-1.5,0.6-2.5s-0.2-1.7-0.6-2.5c-0.4-0.7-0.9-1.3-1.6-1.7c-0.7-0.4-1.5-0.6-2.3-0.6c-0.9,0-1.6,0.2-2.3,0.6
		c-0.7,0.4-1.2,1-1.6,1.7c-0.4,0.7-0.6,1.5-0.6,2.5s0.2,1.7,0.6,2.5c0.4,0.7,0.9,1.3,1.6,1.7c0.7,0.4,1.5,0.6,2.3,0.6
		C347.1,441.3,347.8,441.1,348.5,440.7z"/>
	<path d="M366.1,439.3c0,1.1-0.4,1.9-1.2,2.5c-0.8,0.6-2,0.9-3.5,0.9h-5.5v-12.2h5.4c1.4,0,2.5,0.3,3.3,0.8c0.8,0.5,1.2,1.3,1.2,2.3
		c0,0.7-0.2,1.2-0.5,1.7c-0.4,0.5-0.9,0.8-1.5,1.1C365.3,436.7,366.1,437.7,366.1,439.3z M357.5,435.9h3.7c0.9,0,1.7-0.2,2.2-0.5
		c0.5-0.4,0.8-0.9,0.8-1.5c0-0.7-0.3-1.2-0.8-1.5c-0.5-0.3-1.2-0.5-2.2-0.5h-3.7V435.9z M363.7,440.8c0.5-0.3,0.8-0.9,0.8-1.6
		s-0.2-1.3-0.7-1.6c-0.5-0.3-1.2-0.5-2.3-0.5h-4v4.2h3.9C362.4,441.3,363.2,441.1,363.7,440.8z"/>
	<path d="M377.8,431.6c0.8,0.8,1.3,2,1.3,3.5v7.5h-1.6v-1.9c-0.4,0.6-0.9,1.1-1.6,1.5c-0.7,0.4-1.6,0.5-2.6,0.5
		c-1.4,0-2.4-0.3-3.2-1c-0.8-0.6-1.2-1.5-1.2-2.6c0-1,0.4-1.9,1.1-2.5s1.9-0.9,3.6-0.9h3.9V435c0-1-0.3-1.8-0.9-2.4
		c-0.6-0.5-1.4-0.8-2.6-0.8c-0.8,0-1.5,0.1-2.2,0.4c-0.7,0.3-1.3,0.6-1.8,1.1l-0.7-1.2c0.6-0.5,1.4-0.9,2.2-1.2
		c0.9-0.3,1.8-0.4,2.7-0.4C375.7,430.4,376.9,430.8,377.8,431.6z M375.9,440.8c0.7-0.4,1.2-1,1.5-1.8v-2h-3.8
		c-2.1,0-3.1,0.7-3.1,2.2c0,0.7,0.3,1.3,0.8,1.7c0.5,0.4,1.3,0.6,2.3,0.6C374.5,441.4,375.3,441.2,375.9,440.8z"/>
	<path d="M392.8,430.5v12.2h-1.5v-4h-3.8H387l-2.8,4h-1.8l3-4.3c-0.9-0.3-1.7-0.7-2.2-1.3c-0.5-0.6-0.8-1.4-0.8-2.4
		c0-1.4,0.5-2.4,1.4-3.1c0.9-0.7,2.2-1.1,3.8-1.1H392.8z M387.6,437.4h3.7v-5.5h-3.6c-2.4,0-3.6,0.9-3.6,2.8
		C384.1,436.5,385.3,437.4,387.6,437.4z"/>
	<path d="M294.1,457.1v20.2h-2.9v-17.7h-4.6v-2.5H294.1z"/>
	<path d="M313.3,457.1v2l-8.2,18.3H302l8-17.7h-9.2v3.6H298v-6.1H313.3z"/>
	<path d="M317.6,474.1c0.4,0.4,0.5,0.8,0.5,1.4c0,0.3,0,0.6-0.1,0.8c-0.1,0.3-0.2,0.7-0.4,1.2l-1.4,4h-1.8l1.1-4.3
		c-0.4-0.1-0.7-0.4-0.9-0.7c-0.2-0.3-0.3-0.7-0.3-1.1c0-0.6,0.2-1,0.5-1.4c0.4-0.4,0.8-0.5,1.4-0.5
		C316.8,473.5,317.2,473.7,317.6,474.1z"/>
	<path d="M338.2,472.3h-3.8v5h-2.8v-5h-11.2v-2l10.3-13.2h3.1l-9.9,12.8h7.8v-4.4h2.7v4.4h3.8V472.3z"/>
</g>
<g>
	<path d="M65.4,246c-1.3-0.7-2.3-1.7-3-2.9s-1.1-2.7-1.1-4.2s0.4-3,1.1-4.2c0.7-1.3,1.7-2.2,3-2.9s2.7-1.1,4.3-1.1
		c1.2,0,2.3,0.2,3.3,0.6c1,0.4,1.9,1,2.6,1.8l-1.1,1.1c-1.3-1.3-2.9-1.9-4.8-1.9c-1.3,0-2.4,0.3-3.5,0.9c-1,0.6-1.9,1.4-2.5,2.4
		c-0.6,1-0.9,2.2-0.9,3.4s0.3,2.4,0.9,3.4c0.6,1,1.4,1.8,2.5,2.4c1,0.6,2.2,0.9,3.5,0.9c1.9,0,3.5-0.6,4.8-1.9l1.1,1.1
		c-0.7,0.8-1.6,1.4-2.6,1.8c-1,0.4-2.1,0.6-3.3,0.6C68.1,247,66.7,246.7,65.4,246z"/>
	<path d="M89.7,234.8v12.2h-1.6v-10.7h-7.6v10.7h-1.6v-12.2H89.7z"/>
	<path d="M102.2,235.8c0.8,0.8,1.3,2,1.3,3.5v7.5h-1.6V245c-0.4,0.6-0.9,1.1-1.6,1.5c-0.7,0.4-1.6,0.5-2.6,0.5c-1.4,0-2.4-0.3-3.2-1
		c-0.8-0.6-1.2-1.5-1.2-2.6c0-1,0.4-1.9,1.1-2.5c0.7-0.6,1.9-0.9,3.6-0.9h3.9v-0.7c0-1-0.3-1.8-0.9-2.4c-0.6-0.5-1.4-0.8-2.6-0.8
		c-0.8,0-1.5,0.1-2.2,0.4c-0.7,0.3-1.3,0.6-1.8,1.1l-0.7-1.2c0.6-0.5,1.4-0.9,2.2-1.2c0.9-0.3,1.8-0.4,2.7-0.4
		C100.2,234.7,101.4,235.1,102.2,235.8z M100.4,245.1c0.7-0.4,1.2-1,1.5-1.8v-2h-3.8c-2.1,0-3.1,0.7-3.1,2.2c0,0.7,0.3,1.3,0.8,1.7
		c0.5,0.4,1.3,0.6,2.3,0.6C98.9,245.7,99.7,245.5,100.4,245.1z"/>
	<path d="M117.8,234.8v12.2h-1.6v-10.7h-5.8l-0.2,3c-0.1,2.5-0.4,4.5-0.9,5.8s-1.3,2-2.5,2c-0.3,0-0.7-0.1-1.2-0.2l0.1-1.4
		c0.3,0.1,0.5,0.1,0.6,0.1c0.6,0,1.1-0.3,1.4-0.9s0.5-1.3,0.6-2.2s0.2-2,0.3-3.4l0.2-4.3H117.8z"/>
	<path d="M131.2,240.1c0.8,0.7,1.2,1.6,1.2,2.9c0,1.3-0.4,2.3-1.3,3c-0.9,0.7-2.1,1-3.7,1l-4.9,0v-12.2h1.6v4.3l3.6,0
		C129.2,239.1,130.4,239.4,131.2,240.1z M129.9,245c0.6-0.5,0.9-1.2,0.9-2.1c0-0.9-0.3-1.6-0.9-2c-0.6-0.4-1.4-0.7-2.6-0.7l-3.2,0
		v5.4l3.2,0C128.4,245.7,129.3,245.5,129.9,245z"/>
	<path d="M135.5,234.8h1.6v5.4h7.7v-5.4h1.6v12.2h-1.6v-5.4h-7.7v5.4h-1.6V234.8z"/>
	<path d="M160.4,234.8v12.2h-1.5v-4h-3.8h-0.5l-2.8,4h-1.8l3-4.3c-0.9-0.3-1.7-0.7-2.2-1.3c-0.5-0.6-0.8-1.4-0.8-2.4
		c0-1.4,0.5-2.4,1.4-3.1c0.9-0.7,2.2-1.1,3.8-1.1H160.4z M155.3,241.7h3.7v-5.5h-3.6c-2.4,0-3.6,0.9-3.6,2.8
		C151.8,240.8,153,241.7,155.3,241.7z"/>
	<path d="M67.6,261.4v20.2h-2.9v-17.7h-4.6v-2.5H67.6z"/>
	<path d="M86.2,279.1v2.5H71.7v-2l8.2-7.9c1-1,1.7-1.8,2-2.5c0.3-0.7,0.5-1.4,0.5-2.1c0-1.1-0.4-1.9-1.1-2.5
		c-0.7-0.6-1.8-0.9-3.2-0.9c-2.2,0-4,0.7-5.2,2.2l-2-1.7c0.8-1,1.8-1.7,3.1-2.3c1.3-0.5,2.7-0.8,4.3-0.8c2.1,0,3.8,0.5,5.1,1.5
		c1.3,1,1.9,2.4,1.9,4.1c0,1.1-0.2,2.1-0.7,3.1s-1.3,2.1-2.6,3.3l-6.2,6H86.2z"/>
	<path d="M92.2,278.4c0.4,0.4,0.5,0.8,0.5,1.4c0,0.3,0,0.6-0.1,0.8c-0.1,0.3-0.2,0.7-0.4,1.2l-1.4,4H89l1.1-4.3
		c-0.4-0.1-0.7-0.4-0.9-0.7c-0.2-0.3-0.3-0.7-0.3-1.1c0-0.6,0.2-1,0.5-1.4c0.4-0.4,0.8-0.5,1.4-0.5C91.4,277.8,91.8,278,92.2,278.4z
		"/>
	<path d="M108,271.7c1,1,1.6,2.3,1.6,3.9c0,1.2-0.3,2.2-0.9,3.1c-0.6,0.9-1.4,1.7-2.6,2.2c-1.1,0.5-2.5,0.8-4.2,0.8
		c-1.4,0-2.8-0.2-4.2-0.6s-2.4-1-3.3-1.8l1.3-2.3c0.7,0.7,1.6,1.2,2.7,1.6c1.1,0.4,2.2,0.6,3.4,0.6c1.5,0,2.7-0.3,3.5-1
		s1.3-1.5,1.3-2.6s-0.4-2-1.2-2.6c-0.8-0.6-2.1-0.9-3.8-0.9h-1.6v-2l5.1-6.2h-9.7v-2.5h13.3v2l-5.3,6.5
		C105.5,270,107,270.7,108,271.7z"/>
</g>
<g>
	<path d="M73.6,457.7c1,1,1.6,2.3,1.6,3.9c0,1.2-0.3,2.2-0.9,3.1c-0.6,0.9-1.4,1.7-2.6,2.2c-1.1,0.5-2.5,0.8-4.2,0.8
		c-1.4,0-2.8-0.2-4.2-0.7s-2.4-1-3.3-1.8l1.3-2.3c0.7,0.7,1.6,1.2,2.7,1.6c1.1,0.4,2.2,0.6,3.4,0.6c1.5,0,2.7-0.3,3.5-1
		s1.3-1.5,1.3-2.6s-0.4-2-1.2-2.6s-2.1-0.9-3.8-0.9h-1.6v-2l5.1-6.2H61v-2.5h13.3v2l-5.3,6.5C71.1,456.1,72.6,456.7,73.6,457.7z"/>
	<path d="M81.1,464.4c0.4,0.4,0.5,0.8,0.5,1.4c0,0.3,0,0.6-0.1,0.8c-0.1,0.3-0.2,0.7-0.4,1.2l-1.4,4H78l1.1-4.3
		c-0.4-0.1-0.7-0.4-0.9-0.7c-0.2-0.3-0.3-0.7-0.3-1.1c0-0.6,0.2-1,0.5-1.4c0.4-0.4,0.8-0.5,1.4-0.5C80.3,463.8,80.8,464,81.1,464.4z
		"/>
	<path d="M98.9,465.1v2.5H84.4v-2l8.2-7.9c1-1,1.7-1.8,2-2.5s0.5-1.4,0.5-2.1c0-1.1-0.4-1.9-1.1-2.5c-0.7-0.6-1.8-0.9-3.2-0.9
		c-2.2,0-4,0.7-5.2,2.2l-2-1.7c0.8-1,1.8-1.7,3.1-2.3c1.3-0.5,2.7-0.8,4.3-0.8c2.1,0,3.8,0.5,5.1,1.5c1.3,1,1.9,2.4,1.9,4.1
		c0,1.1-0.2,2.1-0.7,3.1c-0.5,1-1.3,2.1-2.6,3.3l-6.2,6H98.9z"/>
</g>
<g>
	<path d="M569.7,122.4c1.4,1.1,2,2.6,2,4.5c0,1.2-0.3,2.3-0.9,3.2c-0.6,1-1.4,1.7-2.6,2.3c-1.1,0.5-2.6,0.8-4.2,0.8
		c-1.4,0-2.8-0.2-4.1-0.6s-2.4-1-3.3-1.8l1.3-2.3c0.7,0.7,1.6,1.2,2.7,1.6c1.1,0.4,2.2,0.6,3.4,0.6c1.5,0,2.7-0.3,3.5-1
		s1.3-1.5,1.3-2.6c0-1.2-0.5-2.1-1.4-2.8c-0.9-0.6-2.5-0.9-4.7-0.9h-4.6l1.1-10.6h11.4v2.5h-9l-0.5,5.5h2.3
		C566.2,120.7,568.3,121.3,569.7,122.4z"/>
	<path d="M577.4,129.7c0.4,0.4,0.5,0.8,0.5,1.4c0,0.3,0,0.6-0.1,0.8c-0.1,0.3-0.2,0.7-0.4,1.2l-1.4,4h-1.8l1.1-4.3
		c-0.4-0.1-0.7-0.4-0.9-0.7s-0.3-0.7-0.3-1.1c0-0.6,0.2-1,0.5-1.4s0.8-0.5,1.4-0.5C576.6,129.1,577,129.3,577.4,129.7z"/>
	<path d="M584.3,131.9c-1.2-0.8-2.2-2-2.9-3.6c-0.7-1.6-1.1-3.4-1.1-5.5c0-2.1,0.4-4,1.1-5.5c0.7-1.6,1.7-2.7,2.9-3.6
		c1.2-0.8,2.7-1.2,4.3-1.2c1.6,0,3,0.4,4.2,1.2c1.2,0.8,2.2,2,2.9,3.6c0.7,1.6,1.1,3.4,1.1,5.5c0,2.1-0.4,4-1.1,5.5
		c-0.7,1.6-1.7,2.7-2.9,3.6c-1.2,0.8-2.7,1.2-4.2,1.2C587,133.1,585.6,132.7,584.3,131.9z M592.5,128.6c1-1.3,1.5-3.3,1.5-5.8
		c0-2.5-0.5-4.4-1.5-5.8s-2.3-2-3.9-2c-1.6,0-2.9,0.7-3.9,2s-1.5,3.3-1.5,5.8c0,2.5,0.5,4.4,1.5,5.8s2.3,2,3.9,2
		C590.2,130.5,591.5,129.9,592.5,128.6z"/>
</g>
<g>
	<path d="M625,274.5h-3.8v5h-2.8v-5h-11.2v-2l10.3-13.2h3.1l-9.9,12.8h7.8v-4.4h2.7v4.4h3.8V274.5z"/>
	<path d="M630.6,276.2c0.4,0.4,0.5,0.8,0.5,1.4c0,0.3,0,0.6-0.1,0.8c-0.1,0.3-0.2,0.7-0.4,1.2l-1.4,4h-1.8l1.1-4.3
		c-0.4-0.1-0.7-0.4-0.9-0.7c-0.2-0.3-0.3-0.7-0.3-1.1c0-0.6,0.2-1,0.5-1.4c0.4-0.4,0.8-0.5,1.4-0.5
		C629.8,275.7,630.2,275.8,630.6,276.2z"/>
	<path d="M648.4,276.9v2.5h-14.5v-2l8.2-7.9c1-1,1.7-1.8,2-2.5c0.3-0.7,0.5-1.4,0.5-2.1c0-1.1-0.4-1.9-1.1-2.5s-1.8-0.9-3.2-0.9
		c-2.2,0-4,0.7-5.2,2.2l-2-1.7c0.8-1,1.8-1.7,3.1-2.3c1.3-0.5,2.7-0.8,4.3-0.8c2.1,0,3.8,0.5,5.1,1.5s1.9,2.4,1.9,4.1
		c0,1.1-0.2,2.1-0.7,3.1s-1.3,2.1-2.6,3.3l-6.2,6H648.4z"/>
</g>
<g>
	
		<rect x="465.3" y="609.7" fill-rule="evenodd" clip-rule="evenodd" fill="#F1F2F2" stroke="#848484" stroke-miterlimit="10" width="48.2" height="3.4"/>
	
		<rect x="465.3" y="609.7" fill-rule="evenodd" clip-rule="evenodd" fill="#F1F2F2" stroke="#848484" stroke-miterlimit="10" width="48.2" height="3.4"/>
	
		<rect x="498.1" y="554.5" fill-rule="evenodd" clip-rule="evenodd" fill="#F1F2F2" stroke="#848484" stroke-miterlimit="10" width="15.8" height="4.7"/>
	
		<rect x="498.1" y="554.5" fill-rule="evenodd" clip-rule="evenodd" fill="#F1F2F2" stroke="#848484" stroke-miterlimit="10" width="15.8" height="4.7"/>
	
		<rect x="463.1" y="557.3" fill-rule="evenodd" clip-rule="evenodd" fill="#F1F2F2" stroke="#848484" stroke-miterlimit="10" width="52.9" height="52.8"/>
	
		<rect x="463.1" y="557.3" fill-rule="evenodd" clip-rule="evenodd" fill="#F1F2F2" stroke="#848484" stroke-miterlimit="10" width="52.9" height="52.8"/>
	<path fill-rule="evenodd" clip-rule="evenodd" fill="#F1F2F2" stroke="#848484" stroke-miterlimit="10" d="M463.1,562H516H463.1z"
		/>
	<path fill-rule="evenodd" clip-rule="evenodd" fill="#F1F2F2" stroke="#848484" stroke-miterlimit="10" d="M460.6,562.2
		c0,1,0.9,2.1,2.1,2.1c1.3,0,2.1-1,2.1-2.1c0-1.3-0.9-2.3-2.1-2.3C461.5,559.9,460.6,560.9,460.6,562.2z"/>
	<path fill-rule="evenodd" clip-rule="evenodd" fill="#F1F2F2" stroke="#848484" stroke-miterlimit="10" d="M460.6,562.2
		c0,1,0.9,2.1,2.1,2.1c1.3,0,2.1-1,2.1-2.1c0-1.3-0.9-2.3-2.1-2.3C461.5,559.9,460.6,560.9,460.6,562.2z"/>
	<path fill-rule="evenodd" clip-rule="evenodd" fill="#F1F2F2" stroke="#848484" stroke-miterlimit="10" d="M489.8,589.2v-9.3V589.2
		z"/>
	<path fill-rule="evenodd" clip-rule="evenodd" fill="#F1F2F2" stroke="#848484" stroke-miterlimit="10" d="M485.3,584.7h9.3H485.3z
		"/>
	<path fill-rule="evenodd" clip-rule="evenodd" fill="#F1F2F2" stroke="#848484" stroke-miterlimit="10" d="M486.6,581.2l6.8,6.8
		L486.6,581.2z"/>
	<path fill-rule="evenodd" clip-rule="evenodd" fill="#F1F2F2" stroke="#848484" stroke-miterlimit="10" d="M493.3,581.2l-6.8,6.8
		L493.3,581.2z"/>
	<path fill-rule="evenodd" clip-rule="evenodd" fill="#F1F2F2" stroke="#848484" stroke-miterlimit="10" d="M476.1,589.6v-9.3V589.6
		z"/>
	<path fill-rule="evenodd" clip-rule="evenodd" fill="#F1F2F2" stroke="#848484" stroke-miterlimit="10" d="M471.5,585h9.3H471.5z"
		/>
	<path fill-rule="evenodd" clip-rule="evenodd" fill="#F1F2F2" stroke="#848484" stroke-miterlimit="10" d="M472.9,581.5l6.8,6.8
		L472.9,581.5z"/>
	<path fill-rule="evenodd" clip-rule="evenodd" fill="#F1F2F2" stroke="#848484" stroke-miterlimit="10" d="M479.6,581.5l-6.8,6.8
		L479.6,581.5z"/>
	<path fill-rule="evenodd" clip-rule="evenodd" fill="#F1F2F2" stroke="#848484" stroke-miterlimit="10" d="M503.2,589.2v-9.3V589.2
		z"/>
	<path fill-rule="evenodd" clip-rule="evenodd" fill="#F1F2F2" stroke="#848484" stroke-miterlimit="10" d="M498.7,584.7h9.3H498.7z
		"/>
	<path fill-rule="evenodd" clip-rule="evenodd" fill="#F1F2F2" stroke="#848484" stroke-miterlimit="10" d="M500,581.2l6.8,6.8
		L500,581.2z"/>
	<path fill-rule="evenodd" clip-rule="evenodd" fill="#F1F2F2" stroke="#848484" stroke-miterlimit="10" d="M506.6,581.2l-6.8,6.8
		L506.6,581.2z"/>
</g>
<g>
	<g>
		
			<rect x="108.3" y="48.3" transform="matrix(-1.836970e-16 1 -1 -1.836970e-16 317.9427 -80.2675)" fill-rule="evenodd" clip-rule="evenodd" fill="#F1F2F2" stroke="#848484" stroke-miterlimit="10" width="181.7" height="141"/>
		
			<rect x="114.5" y="52.7" transform="matrix(-1.836970e-16 1 -1 -1.836970e-16 319.0985 -79.2597)" fill-rule="evenodd" clip-rule="evenodd" fill="#F1F2F2" stroke="#848484" stroke-miterlimit="10" width="169.3" height="134.5"/>
		
			<rect x="142.9" y="32.6" transform="matrix(2.138673e-13 1 -1 2.138673e-13 220.7599 -103.3003)" fill-rule="evenodd" clip-rule="evenodd" fill="#F1F2F2" stroke="#848484" stroke-miterlimit="10" width="38.2" height="52.3"/>
		
			<rect x="216.8" y="32.6" transform="matrix(-1.836970e-16 1 -1 -1.836970e-16 294.6693 -177.2097)" fill-rule="evenodd" clip-rule="evenodd" fill="#F1F2F2" stroke="#848484" stroke-miterlimit="10" width="38.2" height="52.3"/>
		<polygon fill-rule="evenodd" clip-rule="evenodd" fill="#F1F2F2" stroke="#848484" stroke-miterlimit="10" points="131.9,97.3 
			172,74 226.3,74 172,74 226.3,74 266.4,97.3 266.4,204.6 266.3,204.6 131.9,204.6 		"/>
		<polyline fill-rule="evenodd" clip-rule="evenodd" fill="#F1F2F2" stroke="#848484" stroke-miterlimit="10" points="131.9,97.3 
			160.1,114.4 172,74 		"/>
		
			<line fill-rule="evenodd" clip-rule="evenodd" fill="#F1F2F2" stroke="#848484" stroke-miterlimit="10" x1="172" y1="74" x2="131.9" y2="97.3"/>
		<polyline fill-rule="evenodd" clip-rule="evenodd" fill="#F1F2F2" stroke="#848484" stroke-miterlimit="10" points="266.4,97.3 
			238.3,114.4 226.3,74 		"/>
		
			<line fill-rule="evenodd" clip-rule="evenodd" fill="#F1F2F2" stroke="#848484" stroke-miterlimit="10" x1="226.3" y1="74" x2="266.4" y2="97.3"/>
	</g>
	<g>
		<rect x="272.2" y="28" fill="#F1F2F2" stroke="#848484" stroke-miterlimit="10" width="49.6" height="36.1"/>
		<rect x="286.4" y="64.1" fill="#F1F2F2" stroke="#848484" stroke-miterlimit="10" width="20.8" height="2.3"/>
	</g>
	<g>
		<rect x="76.2" y="28" fill="#F1F2F2" stroke="#848484" stroke-miterlimit="10" width="49.6" height="36.1"/>
		<rect x="90.4" y="64.1" fill="#F1F2F2" stroke="#848484" stroke-miterlimit="10" width="20.8" height="2.3"/>
	</g>
</g>
<g>
	
		<rect x="313" y="77.9" transform="matrix(-4.489292e-11 -1 1 -4.489292e-11 284.6611 492.6137)" fill-rule="evenodd" clip-rule="evenodd" fill="#F1F2F2" stroke="#848484" stroke-miterlimit="10" width="151.3" height="52.2"/>
	<line fill="#F1F2F2" stroke="#848484" stroke-miterlimit="10" x1="362.5" y1="174.2" x2="414.8" y2="174.2"/>
	<line fill="#F1F2F2" stroke="#848484" stroke-miterlimit="10" x1="362.5" y1="33.9" x2="414.8" y2="33.9"/>
	<line fill="#F1F2F2" stroke="#848484" stroke-miterlimit="10" x1="412.3" y1="174.2" x2="412.3" y2="33.9"/>
	<line fill="#F1F2F2" stroke="#848484" stroke-miterlimit="10" x1="388.3" y1="38.8" x2="388.3" y2="169.3"/>
	
		<rect x="386.9" y="146.6" transform="matrix(0.162 -0.9868 0.9868 0.162 165.2393 519.5934)" fill="#F1F2F2" stroke="#848484" stroke-miterlimit="10" width="3.3" height="31.9"/>
	
		<rect x="386.9" y="134.9" transform="matrix(8.815246e-02 -0.9961 0.9961 8.815246e-02 204.0837 524.5162)" fill="#F1F2F2" stroke="#848484" stroke-miterlimit="10" width="3.3" height="31.9"/>
	
		<rect x="386.6" y="123" transform="matrix(0.229 -0.9734 0.9734 0.229 164.1239 485.0494)" fill="#F1F2F2" stroke="#848484" stroke-miterlimit="10" width="3.3" height="31.9"/>
	
		<rect x="387" y="109.7" transform="matrix(0.152 -0.9884 0.9884 0.152 205.3204 490.664)" fill="#F1F2F2" stroke="#848484" stroke-miterlimit="10" width="3.3" height="31.9"/>
	
		<rect x="386.8" y="98.2" transform="matrix(4.511170e-02 -0.999 0.999 4.511170e-02 256.9124 497.0163)" fill="#F1F2F2" stroke="#848484" stroke-miterlimit="10" width="3.3" height="31.9"/>
	
		<rect x="386.8" y="86.5" transform="matrix(0.152 -0.9884 0.9884 0.152 228.1455 470.7767)" fill="#F1F2F2" stroke="#848484" stroke-miterlimit="10" width="3.3" height="31.9"/>
	
		<rect x="386.6" y="74.6" transform="matrix(4.511170e-02 -0.999 0.999 4.511170e-02 280.288 474.3329)" fill="#F1F2F2" stroke="#848484" stroke-miterlimit="10" width="3.3" height="31.9"/>
	
		<rect x="386.6" y="63" transform="matrix(0.2052 -0.9787 0.9787 0.2052 231.3748 442.7212)" fill="#F1F2F2" stroke="#848484" stroke-miterlimit="10" width="3.3" height="31.9"/>
	
		<rect x="386.7" y="51.3" transform="matrix(0.152 -0.9884 0.9884 0.152 262.7761 440.8184)" fill="#F1F2F2" stroke="#848484" stroke-miterlimit="10" width="3.3" height="31.9"/>
	
		<rect x="386.6" y="39.7" transform="matrix(8.473843e-02 -0.9964 0.9964 8.473843e-02 299.9405 437.7732)" fill="#F1F2F2" stroke="#848484" stroke-miterlimit="10" width="3.3" height="31.9"/>
	
		<rect x="387" y="28.1" transform="matrix(0.2379 -0.9713 0.9713 0.2379 253.4678 411.0046)" fill="#F1F2F2" stroke="#848484" stroke-miterlimit="10" width="3.3" height="31.9"/>
</g>
<g>
	<g>
		
			<rect x="201.6" y="291.7" fill-rule="evenodd" clip-rule="evenodd" fill="#F1F2F2" stroke="#848484" stroke-miterlimit="10" width="102.4" height="5.2"/>
		<polygon fill-rule="evenodd" clip-rule="evenodd" fill="#F1F2F2" stroke="#848484" stroke-miterlimit="10" points="295.3,296.8 
			278.8,300.9 226.8,300.9 210.4,296.8 		"/>
		
			<rect x="250.6" y="294.4" transform="matrix(5.139071e-11 1 -1 5.139071e-11 555.9208 50.2796)" fill-rule="evenodd" clip-rule="evenodd" fill="#F1F2F2" stroke="#848484" stroke-miterlimit="10" width="4.5" height="17.5"/>
	</g>
</g>
<g>
	<path fill-rule="evenodd" clip-rule="evenodd" fill="#F1F2F2" stroke="#848484" stroke-miterlimit="10" d="M179.6,498.9v59.4v47.8
		c0,3.2,2.6,5.8,5.8,5.8h47.9h144.9c3.2,0,5.8-2.6,5.8-5.8v-47.8c0-3.2-2.6-5.8-5.8-5.8H244.9c-3.2,0-5.8-2.6-5.8-5.8v-47.9
		c0-3.2-2.6-5.8-5.8-5.8h-47.9C182.2,493.1,179.6,495.7,179.6,498.9z"/>
	<g>
		<path fill-rule="evenodd" clip-rule="evenodd" fill="#F1F2F2" stroke="#848484" stroke-miterlimit="10" d="M239.1,562.1
			c0-6.8-0.3-9.6-8.9-9.6h-25.5c-8.6,0-8.9,2.9-8.9,9.6v25.4c0,6.8,0.3,9.6,8.9,9.6h25.5c8.6,0,8.9-2.9,8.9-9.6V562.1z"/>
		<path fill-rule="evenodd" clip-rule="evenodd" fill="#F1F2F2" stroke="#848484" stroke-miterlimit="10" d="M239.1,562.1
			c0-6.8-0.3-9.6-8.9-9.6h-25.5c-8.6,0-8.9,2.9-8.9,9.6v25.4c0,6.8,0.3,9.6,8.9,9.6h25.5c8.6,0,8.9-2.9,8.9-9.6V562.1z"/>
		<path fill-rule="evenodd" clip-rule="evenodd" fill="#F1F2F2" stroke="#848484" stroke-miterlimit="10" d="M282.2,562.1
			c0-6.8-0.3-9.6-8.9-9.6h-25.5c-8.6,0-8.9,2.9-8.9,9.6v25.4c0,6.8,0.3,9.6,8.9,9.6h25.5c8.6,0,8.9-2.9,8.9-9.6V562.1z"/>
		<path fill-rule="evenodd" clip-rule="evenodd" fill="#F1F2F2" stroke="#848484" stroke-miterlimit="10" d="M282.2,562.1
			c0-6.8-0.3-9.6-8.9-9.6h-25.5c-8.6,0-8.9,2.9-8.9,9.6v25.4c0,6.8,0.3,9.6,8.9,9.6h25.5c8.6,0,8.9-2.9,8.9-9.6V562.1z"/>
		<path fill-rule="evenodd" clip-rule="evenodd" fill="#F1F2F2" stroke="#848484" stroke-miterlimit="10" d="M325.1,562.1
			c0-6.8-0.3-9.6-8.9-9.6h-25.6c-8.6,0-8.9,2.9-8.9,9.6v25.4c0,6.8,0.3,9.6,8.9,9.6h25.6c8.6,0,8.9-2.9,8.9-9.6V562.1z"/>
		<path fill-rule="evenodd" clip-rule="evenodd" fill="#F1F2F2" stroke="#848484" stroke-miterlimit="10" d="M325.1,562.1
			c0-6.8-0.3-9.6-8.9-9.6h-25.6c-8.6,0-8.9,2.9-8.9,9.6v25.4c0,6.8,0.3,9.6,8.9,9.6h25.6c8.6,0,8.9-2.9,8.9-9.6V562.1z"/>
		<path fill-rule="evenodd" clip-rule="evenodd" fill="#F1F2F2" stroke="#848484" stroke-miterlimit="10" d="M239.1,517.5
			c0-6.8-0.3-9.6-8.9-9.6h-25.5c-8.6,0-8.9,2.9-8.9,9.6v25.4c0,6.8,0.3,9.6,8.9,9.6h25.5c8.6,0,8.9-2.9,8.9-9.6V517.5z"/>
		<path fill-rule="evenodd" clip-rule="evenodd" fill="#F1F2F2" stroke="#848484" stroke-miterlimit="10" d="M368.1,562.2
			c0-6.8-0.3-9.6-8.9-9.6h-25.6c-8.6,0-8.9,2.9-8.9,9.6v25.4c0,6.8,0.3,9.6,8.9,9.6h25.6c8.6,0,8.9-2.9,8.9-9.6V562.2z"/>
		<path fill-rule="evenodd" clip-rule="evenodd" fill="#F1F2F2" stroke="#848484" stroke-miterlimit="10" d="M179.6,605.8v-104v-2.5
			c0-3.4,3-6.1,6.6-6.1h2.7h43.5c3.6,0,6.6,2.8,6.6,6.1v2.5c0,3.4-3,6.1-6.6,6.1h-36.9v89.2h172.5v-38.4c0-3.4,3-6.1,6.6-6.1h2.7
			c3.6,0,6.6,2.8,6.6,6.1v44.6v2.5c0,3.4-3,6.1-6.6,6.1h-2.7H189h-2.7h0C182.6,611.9,179.6,609.2,179.6,605.8z"/>
	</g>
</g>
<g>
	<g>
		<path fill="#F1F2F2" stroke="#848484" stroke-miterlimit="10" d="M489.4,414.9c-8.7,0-15.7-2.6-15.7-5.8c0-3.2,7-5.8,15.7-5.8
			c8.7,0,15.7,2.6,15.7,5.8C505.1,412.3,498.1,414.9,489.4,414.9z"/>
		<path fill="#F1F2F2" stroke="#848484" stroke-miterlimit="10" d="M489.4,441.1c-8.7,0-15.7-7-15.7-15.7c0-8.7,7-15.7,15.7-15.7
			c8.7,0,15.7,7,15.7,15.7C505.1,434.1,498.1,441.1,489.4,441.1z"/>
	</g>
	<g>
		<path fill="#F1F2F2" stroke="#848484" stroke-miterlimit="10" d="M536.6,490.9c8.7,0,15.7,2.6,15.7,5.8c0,3.2-7,5.8-15.7,5.8
			c-8.7,0-15.7-2.6-15.7-5.8C520.9,493.5,528,490.9,536.6,490.9z"/>
		<path fill="#F1F2F2" stroke="#848484" stroke-miterlimit="10" d="M536.6,464.7c8.7,0,15.7,7,15.7,15.7c0,8.7-7,15.7-15.7,15.7
			c-8.7,0-15.7-7-15.7-15.7C520.9,471.7,528,464.7,536.6,464.7z"/>
	</g>
	<g>
		<path fill="#F1F2F2" stroke="#848484" stroke-miterlimit="10" d="M489.5,492.2c8.7,0,15.7,2.6,15.7,5.8c0,3.2-7,5.8-15.7,5.8
			c-8.7,0-15.7-2.6-15.7-5.8C473.8,494.8,480.8,492.2,489.5,492.2z"/>
		<path fill="#F1F2F2" stroke="#848484" stroke-miterlimit="10" d="M489.5,466c8.7,0,15.7,7,15.7,15.7c0,8.7-7,15.7-15.7,15.7
			c-8.7,0-15.7-7-15.7-15.7C473.8,473,480.8,466,489.5,466z"/>
	</g>
	<g>
		<path fill="#F1F2F2" stroke="#848484" stroke-miterlimit="10" d="M536.6,416.7c-8.7,0-15.7-2.6-15.7-5.8c0-3.2,7-5.8,15.7-5.8
			c8.7,0,15.7,2.6,15.7,5.8C552.3,414.1,545.3,416.7,536.6,416.7z"/>
		<path fill="#F1F2F2" stroke="#848484" stroke-miterlimit="10" d="M536.6,442.9c-8.7,0-15.7-7-15.7-15.7c0-8.7,7-15.7,15.7-15.7
			c8.7,0,15.7,7,15.7,15.7C552.3,435.9,545.3,442.9,536.6,442.9z"/>
	</g>
	<rect x="458.7" y="422.2" fill="#F1F2F2" stroke="#848484" stroke-miterlimit="10" width="109.5" height="63.2"/>
</g>
<g>
	<g>
		
			<rect x="275.6" y="329.2" fill-rule="evenodd" clip-rule="evenodd" fill="#F1F2F2" stroke="#848484" stroke-miterlimit="10" width="102.4" height="5.2"/>
		<polygon fill-rule="evenodd" clip-rule="evenodd" fill="#F1F2F2" stroke="#848484" stroke-miterlimit="10" points="284.3,329.2 
			300.7,325.2 352.7,325.2 369.2,329.2 		"/>
		
			<rect x="324.5" y="314.2" transform="matrix(-5.179495e-11 -1 1 -5.179495e-11 3.7724 649.6644)" fill-rule="evenodd" clip-rule="evenodd" fill="#F1F2F2" stroke="#848484" stroke-miterlimit="10" width="4.5" height="17.5"/>
	</g>
</g>
<g>
</g>
<g>
</g>
<g>
</g>
<g>
</g>
<g>
</g>
<g>
</g>
</svg>
