<?xml version="1.0" encoding="utf-8"?>
<!-- Generator: Adobe Illustrator 23.0.2, SVG Export Plug-In . SVG Version: 6.00 Build 0)  -->
<svg version="1.1" id="Слой_1" xmlns="http://www.w3.org/2000/svg" xmlns:xlink="http://www.w3.org/1999/xlink" x="0px" y="0px"
	 viewBox="0 0 800 583.2" enable-background="new 0 0 800 583.2" xml:space="preserve">
<rect x="20.5" y="183.8" fill="#F3F3F3" stroke="#838383" width="38.5" height="154.9"/>
<g>
	
		<rect x="21.5" y="145.7" fill-rule="evenodd" clip-rule="evenodd" fill="#F1F2F2" stroke="#848484" stroke-miterlimit="10" width="2.4" height="34.4"/>
	
		<rect x="21.5" y="145.7" fill-rule="evenodd" clip-rule="evenodd" fill="#F1F2F2" stroke="#848484" stroke-miterlimit="10" width="2.4" height="34.4"/>
	
		<rect x="60" y="145.4" fill-rule="evenodd" clip-rule="evenodd" fill="#F1F2F2" stroke="#848484" stroke-miterlimit="10" width="3.3" height="11.3"/>
	
		<rect x="60" y="145.4" fill-rule="evenodd" clip-rule="evenodd" fill="#F1F2F2" stroke="#848484" stroke-miterlimit="10" width="3.3" height="11.3"/>
	
		<rect x="23.6" y="143.9" fill-rule="evenodd" clip-rule="evenodd" fill="#F1F2F2" stroke="#848484" stroke-miterlimit="10" width="37.7" height="37.8"/>
	
		<rect x="23.6" y="143.9" fill-rule="evenodd" clip-rule="evenodd" fill="#F1F2F2" stroke="#848484" stroke-miterlimit="10" width="37.7" height="37.8"/>
	<path fill-rule="evenodd" clip-rule="evenodd" fill="#F1F2F2" stroke="#848484" stroke-miterlimit="10" d="M58,181.7l0-37.8
		L58,181.7z"/>
	<path fill-rule="evenodd" clip-rule="evenodd" fill="#F1F2F2" stroke="#848484" stroke-miterlimit="10" d="M57.8,183.5
		c-0.7,0-1.5-0.7-1.5-1.5c0-0.9,0.7-1.5,1.5-1.5c0.9,0,1.6,0.7,1.6,1.5C59.5,182.8,58.7,183.5,57.8,183.5z"/>
	<path fill-rule="evenodd" clip-rule="evenodd" fill="#F1F2F2" stroke="#848484" stroke-miterlimit="10" d="M57.8,183.5
		c-0.7,0-1.5-0.7-1.5-1.5c0-0.9,0.7-1.5,1.5-1.5c0.9,0,1.6,0.7,1.6,1.5C59.5,182.8,58.7,183.5,57.8,183.5z"/>
	<path fill-rule="evenodd" clip-rule="evenodd" fill="#F1F2F2" stroke="#848484" stroke-miterlimit="10" d="M38.5,162.6h6.6H38.5z"
		/>
	<path fill-rule="evenodd" clip-rule="evenodd" fill="#F1F2F2" stroke="#848484" stroke-miterlimit="10" d="M41.8,165.8l0-6.6
		L41.8,165.8z"/>
	<path fill-rule="evenodd" clip-rule="evenodd" fill="#F1F2F2" stroke="#848484" stroke-miterlimit="10" d="M44.3,164.9l-4.8-4.8
		L44.3,164.9z"/>
	<path fill-rule="evenodd" clip-rule="evenodd" fill="#F1F2F2" stroke="#848484" stroke-miterlimit="10" d="M44.3,160.2l-4.8,4.8
		L44.3,160.2z"/>
	<path fill-rule="evenodd" clip-rule="evenodd" fill="#F1F2F2" stroke="#848484" stroke-miterlimit="10" d="M38.3,172.4h6.6H38.3z"
		/>
	<path fill-rule="evenodd" clip-rule="evenodd" fill="#F1F2F2" stroke="#848484" stroke-miterlimit="10" d="M41.6,175.7l0-6.6
		L41.6,175.7z"/>
	<path fill-rule="evenodd" clip-rule="evenodd" fill="#F1F2F2" stroke="#848484" stroke-miterlimit="10" d="M44,174.7l-4.8-4.8
		L44,174.7z"/>
	<path fill-rule="evenodd" clip-rule="evenodd" fill="#F1F2F2" stroke="#848484" stroke-miterlimit="10" d="M44,169.9l-4.8,4.8
		L44,169.9z"/>
	<path fill-rule="evenodd" clip-rule="evenodd" fill="#F1F2F2" stroke="#848484" stroke-miterlimit="10" d="M38.5,153.1h6.6H38.5z"
		/>
	<path fill-rule="evenodd" clip-rule="evenodd" fill="#F1F2F2" stroke="#848484" stroke-miterlimit="10" d="M41.8,156.3l0-6.6
		L41.8,156.3z"/>
	<path fill-rule="evenodd" clip-rule="evenodd" fill="#F1F2F2" stroke="#848484" stroke-miterlimit="10" d="M44.3,155.4l-4.8-4.8
		L44.3,155.4z"/>
	<path fill-rule="evenodd" clip-rule="evenodd" fill="#F1F2F2" stroke="#848484" stroke-miterlimit="10" d="M44.3,150.6l-4.8,4.8
		L44.3,150.6z"/>
</g>
<g>
	
		<rect x="485.1" y="330.4" transform="matrix(-1 -4.489488e-11 4.489488e-11 -1 1054.5037 689.8816)" fill-rule="evenodd" clip-rule="evenodd" fill="#F1F2F2" stroke="#848484" stroke-miterlimit="10" width="84.3" height="29.1"/>
	<line fill="#F1F2F2" stroke="#848484" stroke-miterlimit="10" x1="566.3" y1="330.4" x2="566.3" y2="359.5"/>
	<line fill="#F1F2F2" stroke="#848484" stroke-miterlimit="10" x1="488.3" y1="330.4" x2="488.3" y2="359.5"/>
	<line fill="#F1F2F2" stroke="#848484" stroke-miterlimit="10" x1="566.3" y1="358.1" x2="488.3" y2="358.1"/>
	<line fill="#F1F2F2" stroke="#848484" stroke-miterlimit="10" x1="491" y1="344.7" x2="563.6" y2="344.7"/>
	
		<rect x="558.9" y="336" transform="matrix(-0.9868 0.162 -0.162 -0.9868 1168.1638 594.536)" fill="#F1F2F2" stroke="#848484" stroke-miterlimit="10" width="1.8" height="17.7"/>
	
		<rect x="552.4" y="336" transform="matrix(-0.9961 8.815246e-02 -8.815246e-02 -0.9961 1134.8872 639.6473)" fill="#F1F2F2" stroke="#848484" stroke-miterlimit="10" width="1.8" height="17.7"/>
	
		<rect x="545.8" y="335.9" transform="matrix(-0.9734 0.229 -0.229 -0.9734 1157.8347 555.1055)" fill="#F1F2F2" stroke="#848484" stroke-miterlimit="10" width="1.8" height="17.7"/>
	
		<rect x="538.4" y="336.1" transform="matrix(-0.9884 0.152 -0.152 -0.9884 1124.8406 603.8481)" fill="#F1F2F2" stroke="#848484" stroke-miterlimit="10" width="1.8" height="17.7"/>
	
		<rect x="532" y="336" transform="matrix(-0.999 4.511170e-02 -4.511170e-02 -0.999 1080.8148 665.2703)" fill="#F1F2F2" stroke="#848484" stroke-miterlimit="10" width="1.8" height="17.7"/>
	
		<rect x="525.5" y="336" transform="matrix(-0.9884 0.152 -0.152 -0.9884 1099.0858 605.6196)" fill="#F1F2F2" stroke="#848484" stroke-miterlimit="10" width="1.8" height="17.7"/>
	
		<rect x="518.9" y="335.9" transform="matrix(-0.999 4.511170e-02 -4.511170e-02 -0.999 1054.5736 665.6646)" fill="#F1F2F2" stroke="#848484" stroke-miterlimit="10" width="1.8" height="17.7"/>
	
		<rect x="512.4" y="335.9" transform="matrix(-0.9787 0.2052 -0.2052 -0.9787 1086.3915 576.8203)" fill="#F1F2F2" stroke="#848484" stroke-miterlimit="10" width="1.8" height="17.7"/>
	
		<rect x="505.9" y="335.9" transform="matrix(-0.9884 0.152 -0.152 -0.9884 1060.1399 608.4368)" fill="#F1F2F2" stroke="#848484" stroke-miterlimit="10" width="1.8" height="17.7"/>
	
		<rect x="499.4" y="335.9" transform="matrix(-0.9964 8.473843e-02 -8.473843e-02 -0.9964 1028.0603 645.827)" fill="#F1F2F2" stroke="#848484" stroke-miterlimit="10" width="1.8" height="17.7"/>
	
		<rect x="492.9" y="336.1" transform="matrix(-0.9713 0.2379 -0.2379 -0.9713 1055.5696 562.496)" fill="#F1F2F2" stroke="#848484" stroke-miterlimit="10" width="1.8" height="17.7"/>
</g>
<g>
	
		<rect x="546.3" y="266.5" transform="matrix(-4.488250e-11 1 -1 -4.488250e-11 885.3993 -315.2078)" fill-rule="evenodd" clip-rule="evenodd" fill="#F1F2F2" stroke="#848484" stroke-miterlimit="10" width="108" height="37.3"/>
	<line fill="#F1F2F2" stroke="#848484" stroke-miterlimit="10" x1="581.7" y1="235" x2="619" y2="235"/>
	<line fill="#F1F2F2" stroke="#848484" stroke-miterlimit="10" x1="581.7" y1="335.1" x2="618.9" y2="335.1"/>
	<line fill="#F1F2F2" stroke="#848484" stroke-miterlimit="10" x1="617.2" y1="235" x2="617.2" y2="335.1"/>
	<line fill="#F1F2F2" stroke="#848484" stroke-miterlimit="10" x1="600" y1="331.6" x2="600" y2="238.5"/>
	
		<rect x="599.1" y="232" transform="matrix(0.162 0.9868 -0.9868 0.162 743.1357 -388.3808)" fill="#F1F2F2" stroke="#848484" stroke-miterlimit="10" width="2.3" height="22.7"/>
	
		<rect x="599.1" y="240.3" transform="matrix(8.815246e-02 0.9961 -0.9961 8.815246e-02 798.0381 -368.381)" fill="#F1F2F2" stroke="#848484" stroke-miterlimit="10" width="2.3" height="22.7"/>
	
		<rect x="598.9" y="248.8" transform="matrix(0.229 0.9734 -0.9734 0.229 715.8813 -383.5011)" fill="#F1F2F2" stroke="#848484" stroke-miterlimit="10" width="2.3" height="22.7"/>
	
		<rect x="599.1" y="258.3" transform="matrix(0.152 0.9884 -0.9884 0.152 775.5034 -364.6858)" fill="#F1F2F2" stroke="#848484" stroke-miterlimit="10" width="2.3" height="22.7"/>
	
		<rect x="599" y="266.5" transform="matrix(4.511170e-02 0.999 -0.999 4.511170e-02 850.6641 -334.2274)" fill="#F1F2F2" stroke="#848484" stroke-miterlimit="10" width="2.3" height="22.7"/>
	
		<rect x="599" y="274.8" transform="matrix(0.152 0.9884 -0.9884 0.152 791.7874 -350.4978)" fill="#F1F2F2" stroke="#848484" stroke-miterlimit="10" width="2.3" height="22.7"/>
	
		<rect x="598.9" y="283.3" transform="matrix(4.511170e-02 0.999 -0.999 4.511170e-02 867.3408 -318.0445)" fill="#F1F2F2" stroke="#848484" stroke-miterlimit="10" width="2.3" height="22.7"/>
	
		<rect x="598.9" y="291.6" transform="matrix(0.2052 0.9787 -0.9787 0.2052 773.464 -346.4523)" fill="#F1F2F2" stroke="#848484" stroke-miterlimit="10" width="2.3" height="22.7"/>
	
		<rect x="598.9" y="299.9" transform="matrix(0.152 0.9884 -0.9884 0.152 816.4936 -329.1248)" fill="#F1F2F2" stroke="#848484" stroke-miterlimit="10" width="2.3" height="22.7"/>
	
		<rect x="598.9" y="308.2" transform="matrix(8.473843e-02 0.9964 -0.9964 8.473843e-02 867.6337 -305.3658)" fill="#F1F2F2" stroke="#848484" stroke-miterlimit="10" width="2.3" height="22.7"/>
	
		<rect x="599.1" y="316.5" transform="matrix(0.2379 0.9713 -0.9713 0.2379 775.9703 -333.1888)" fill="#F1F2F2" stroke="#848484" stroke-miterlimit="10" width="2.3" height="22.7"/>
</g>
<g>
	<g>
		<path fill="#F1F2F2" stroke="#848484" stroke-miterlimit="10" d="M423.1,85.7l30.5,0c1.1,0,2-0.9,2-2l0-27.6c0-1.1-0.9-2-2-2
			l-30.5,0c-1.1,0-2,0.9-2,2l0,27.6C421.1,84.8,422,85.7,423.1,85.7z"/>
		<path fill="#F1F2F2" stroke="#848484" stroke-miterlimit="10" d="M422.5,85.7l31.8,0c0.8,0,1.4,0.6,1.4,1.4l0,4.8
			c0,0.8-0.6,1.4-1.4,1.4l-31.8,0c-0.8,0-1.4-0.6-1.4-1.4l0-4.8C421.1,86.3,421.7,85.7,422.5,85.7z"/>
	</g>
	
		<rect x="403.1" y="30.7" transform="matrix(-1 2.065402e-11 -2.065402e-11 -1 876.7039 98.5263)" fill-rule="evenodd" clip-rule="evenodd" fill="#F1F2F2" stroke="#848484" stroke-miterlimit="10" width="70.5" height="37.1"/>
</g>
<g>
	<g>
		<path fill="#F1F2F2" stroke="#848484" stroke-miterlimit="10" d="M749.5,384.4l-30.5,0c-1.1,0-2,0.9-2,2l0,27.6c0,1.1,0.9,2,2,2
			l30.5,0c1.1,0,2-0.9,2-2l0-27.6C751.5,385.3,750.6,384.4,749.5,384.4z"/>
		<path fill="#F1F2F2" stroke="#848484" stroke-miterlimit="10" d="M750.1,384.4l-31.8,0c-0.8,0-1.4-0.6-1.4-1.4l0-4.8
			c0-0.8,0.6-1.4,1.4-1.4l31.8,0c0.8,0,1.4,0.6,1.4,1.4l0,4.8C751.5,383.8,750.9,384.4,750.1,384.4z"/>
	</g>
	
		<rect x="699" y="402.4" fill-rule="evenodd" clip-rule="evenodd" fill="#F1F2F2" stroke="#848484" stroke-miterlimit="10" width="70.5" height="37.1"/>
	
		<rect x="650.4" y="402.4" fill-rule="evenodd" clip-rule="evenodd" fill="#F1F2F2" stroke="#848484" stroke-miterlimit="10" width="57.1" height="37.1"/>
</g>
<g>
	<g>
		<path fill="#F1F2F2" stroke="#848484" stroke-miterlimit="10" d="M241.2,303.4c0,6.8,2,12.3,4.5,12.3c2.5,0,4.5-5.5,4.5-12.3
			s-2-12.3-4.5-12.3C243.2,291.1,241.2,296.6,241.2,303.4z"/>
		<path fill="#F1F2F2" stroke="#848484" stroke-miterlimit="10" d="M220.6,303.4c0,6.8,5.5,12.3,12.3,12.3c6.8,0,12.3-5.5,12.3-12.3
			s-5.5-12.3-12.3-12.3C226.1,291.1,220.6,296.6,220.6,303.4z"/>
	</g>
	<g>
		<path fill="#F1F2F2" stroke="#848484" stroke-miterlimit="10" d="M181.7,266.5c0-6.8-2-12.3-4.5-12.3c-2.5,0-4.5,5.5-4.5,12.3
			s2,12.3,4.5,12.3C179.7,278.7,181.7,273.3,181.7,266.5z"/>
		<path fill="#F1F2F2" stroke="#848484" stroke-miterlimit="10" d="M202.2,266.5c0-6.8-5.5-12.3-12.3-12.3
			c-6.8,0-12.3,5.5-12.3,12.3s5.5,12.3,12.3,12.3C196.7,278.7,202.2,273.3,202.2,266.5z"/>
	</g>
	<g>
		<path fill="#F1F2F2" stroke="#848484" stroke-miterlimit="10" d="M180.7,303.4c0-6.8-2-12.3-4.5-12.3c-2.5,0-4.5,5.5-4.5,12.3
			s2,12.3,4.5,12.3C178.6,315.6,180.7,310.1,180.7,303.4z"/>
		<path fill="#F1F2F2" stroke="#848484" stroke-miterlimit="10" d="M201.2,303.4c0-6.8-5.5-12.3-12.3-12.3
			c-6.8,0-12.3,5.5-12.3,12.3s5.5,12.3,12.3,12.3C195.7,315.6,201.2,310.1,201.2,303.4z"/>
	</g>
	<g>
		<path fill="#F1F2F2" stroke="#848484" stroke-miterlimit="10" d="M239.8,266.5c0,6.8,2,12.3,4.5,12.3c2.5,0,4.5-5.5,4.5-12.3
			c0-6.8-2-12.3-4.5-12.3C241.8,254.2,239.8,259.7,239.8,266.5z"/>
		<path fill="#F1F2F2" stroke="#848484" stroke-miterlimit="10" d="M219.2,266.5c0,6.8,5.5,12.3,12.3,12.3s12.3-5.5,12.3-12.3
			c0-6.8-5.5-12.3-12.3-12.3S219.2,259.7,219.2,266.5z"/>
	</g>
	
		<rect x="167.9" y="259.9" transform="matrix(6.123234e-17 -1 1 6.123234e-17 -73.8485 495.3152)" fill="#F1F2F2" stroke="#848484" stroke-miterlimit="10" width="85.6" height="49.4"/>
</g>
<g>
	<g>
		
			<rect x="396.8" y="184.2" fill-rule="evenodd" clip-rule="evenodd" fill="#F1F2F2" stroke="#848484" stroke-miterlimit="10" width="108.3" height="84"/>
		
			<rect x="401.2" y="186.2" fill-rule="evenodd" clip-rule="evenodd" fill="#F1F2F2" stroke="#848484" stroke-miterlimit="10" width="100.9" height="80.2"/>
		
			<rect x="403.8" y="188.5" fill-rule="evenodd" clip-rule="evenodd" fill="#F1F2F2" stroke="#848484" stroke-miterlimit="10" width="22.8" height="31.1"/>
		
			<rect x="403.8" y="232.6" fill-rule="evenodd" clip-rule="evenodd" fill="#F1F2F2" stroke="#848484" stroke-miterlimit="10" width="22.8" height="31.1"/>
		<polygon fill-rule="evenodd" clip-rule="evenodd" fill="#F1F2F2" stroke="#848484" stroke-miterlimit="10" points="438.2,186.2 
			424.2,210.1 424.2,242.4 424.2,210.1 424.2,242.4 438.2,266.3 502.1,266.3 502.1,266.3 502.1,186.2 		"/>
		<polyline fill-rule="evenodd" clip-rule="evenodd" fill="#F1F2F2" stroke="#848484" stroke-miterlimit="10" points="438.2,186.2 
			448.3,202.9 424.2,210.1 		"/>
		
			<line fill-rule="evenodd" clip-rule="evenodd" fill="#F1F2F2" stroke="#848484" stroke-miterlimit="10" x1="424.2" y1="210.1" x2="438.2" y2="186.2"/>
		<polyline fill-rule="evenodd" clip-rule="evenodd" fill="#F1F2F2" stroke="#848484" stroke-miterlimit="10" points="438.2,266.3 
			448.3,249.6 424.2,242.4 		"/>
		
			<line fill-rule="evenodd" clip-rule="evenodd" fill="#F1F2F2" stroke="#848484" stroke-miterlimit="10" x1="424.2" y1="242.4" x2="438.2" y2="266.3"/>
	</g>
	<g>
		
			<rect x="392.8" y="273.8" transform="matrix(-1.836970e-16 1 -1 -1.836970e-16 692.1674 -123.0037)" fill="#F1F2F2" stroke="#848484" stroke-miterlimit="10" width="29.6" height="21.5"/>
		
			<rect x="412.8" y="283.8" transform="matrix(-1.836970e-16 1 -1 -1.836970e-16 703.4966 -134.5639)" fill="#F1F2F2" stroke="#848484" stroke-miterlimit="10" width="12.4" height="1.4"/>
	</g>
	<g>
		
			<rect x="392.8" y="157" transform="matrix(-1.836970e-16 1 -1 -1.836970e-16 575.3393 -239.8318)" fill="#F1F2F2" stroke="#848484" stroke-miterlimit="10" width="29.6" height="21.5"/>
		
			<rect x="412.8" y="166.9" transform="matrix(1.463657e-13 1 -1 1.463657e-13 586.6685 -251.392)" fill="#F1F2F2" stroke="#848484" stroke-miterlimit="10" width="12.4" height="1.4"/>
	</g>
</g>
<g>
	<g>
		
			<rect x="672.7" y="130.3" transform="matrix(-1.836970e-16 1 -1 -1.836970e-16 899.1379 -554.5645)" fill-rule="evenodd" clip-rule="evenodd" fill="#F1F2F2" stroke="#848484" stroke-miterlimit="10" width="108.3" height="84"/>
		
			<rect x="676.3" y="132.8" transform="matrix(-1.836970e-16 1 -1 -1.836970e-16 899.7385 -553.8757)" fill-rule="evenodd" clip-rule="evenodd" fill="#F1F2F2" stroke="#848484" stroke-miterlimit="10" width="100.9" height="80.2"/>
		
			<rect x="737.6" y="120.9" transform="matrix(-2.399919e-13 1 -1 -2.399919e-13 885.4103 -612.4854)" fill-rule="evenodd" clip-rule="evenodd" fill="#F1F2F2" stroke="#848484" stroke-miterlimit="10" width="22.8" height="31.1"/>
		
			<rect x="693.5" y="120.9" transform="matrix(-1.600558e-13 1 -1 -1.600558e-13 841.3604 -568.4355)" fill-rule="evenodd" clip-rule="evenodd" fill="#F1F2F2" stroke="#848484" stroke-miterlimit="10" width="22.8" height="31.1"/>
		<polygon fill-rule="evenodd" clip-rule="evenodd" fill="#F1F2F2" stroke="#848484" stroke-miterlimit="10" points="766.9,159.5 
			743,145.5 710.6,145.5 743,145.5 710.6,145.5 686.7,159.5 686.7,223.4 686.8,223.4 766.9,223.4 		"/>
		<polyline fill-rule="evenodd" clip-rule="evenodd" fill="#F1F2F2" stroke="#848484" stroke-miterlimit="10" points="766.9,159.5 
			750.1,169.6 743,145.5 		"/>
		
			<line fill-rule="evenodd" clip-rule="evenodd" fill="#F1F2F2" stroke="#848484" stroke-miterlimit="10" x1="743" y1="145.5" x2="766.9" y2="159.5"/>
		<polyline fill-rule="evenodd" clip-rule="evenodd" fill="#F1F2F2" stroke="#848484" stroke-miterlimit="10" points="686.7,159.5 
			703.5,169.6 710.6,145.5 		"/>
		
			<line fill-rule="evenodd" clip-rule="evenodd" fill="#F1F2F2" stroke="#848484" stroke-miterlimit="10" x1="710.6" y1="145.5" x2="686.7" y2="159.5"/>
	</g>
	<g>
		
			<rect x="653.7" y="118.2" transform="matrix(-1 -1.224647e-16 1.224647e-16 -1 1336.9553 257.7955)" fill="#F1F2F2" stroke="#848484" stroke-miterlimit="10" width="29.6" height="21.5"/>
		
			<rect x="662.4" y="139.6" transform="matrix(-1 -1.224647e-16 1.224647e-16 -1 1337.1864 280.6849)" fill="#F1F2F2" stroke="#848484" stroke-miterlimit="10" width="12.4" height="1.4"/>
	</g>
</g>
<g>
	<path fill-rule="evenodd" clip-rule="evenodd" fill="#F1F2F2" stroke="#848484" stroke-miterlimit="10" d="M566.5,177.3v16.5h-13.7
		v-16.5H566.5L566.5,177.3z M566.5,255.3H546v-61.6h20.5V255.3z"/>
	<path fill-rule="evenodd" clip-rule="evenodd" fill="#F1F2F2" stroke="#848484" stroke-miterlimit="10" d="M559.2,230.7
		c3.6,0,3.9-3.2,3.9-7.2c0-3.9-0.3-7.2-3.9-7.2s-6.5,3.2-6.5,7.2C552.7,227.5,555.6,230.7,559.2,230.7z"/>
	
		<rect x="555.8" y="199.3" fill-rule="evenodd" clip-rule="evenodd" fill="#F1F2F2" stroke="#848484" stroke-miterlimit="10" width="2.7" height="48.3"/>
	
		<rect x="555.8" y="199.3" fill-rule="evenodd" clip-rule="evenodd" fill="#F1F2F2" stroke="#848484" stroke-miterlimit="10" width="2.7" height="48.3"/>
	<polygon fill-rule="evenodd" clip-rule="evenodd" fill="#F1F2F2" stroke="#848484" stroke-miterlimit="10" points="558.4,243.5 
		560.7,235.7 560.7,211.2 558.4,203.4 	"/>
	<polygon fill-rule="evenodd" clip-rule="evenodd" fill="#F1F2F2" stroke="#848484" stroke-miterlimit="10" points="558.4,243.5 
		560.7,235.7 560.7,211.2 558.4,203.4 	"/>
	<path fill-rule="evenodd" clip-rule="evenodd" fill="#F1F2F2" stroke="#848484" stroke-miterlimit="10" d="M551.3,178.7v13.6H550
		v-13.6H551.3L551.3,178.7z M566.5,255.3v16.5h-13.7v-16.5H566.5L566.5,255.3z M551.3,270.4H550v-13.6h1.4V270.4z"/>
</g>
<g>
	<path fill-rule="evenodd" clip-rule="evenodd" fill="#F1F2F2" stroke="#848484" stroke-miterlimit="10" d="M306.5,30.9h42.7h34.4
		c2.3,0,4.2,1.9,4.2,4.2v34.4v104.1c0,2.3-1.9,4.2-4.2,4.2h-34.4c-2.3,0-4.2-1.9-4.2-4.2V77.8c0-2.3-1.9-4.2-4.2-4.2h-34.4
		c-2.3,0-4.2-1.9-4.2-4.2V35.1C302.3,32.8,304.2,30.9,306.5,30.9z"/>
	<g>
		<path fill-rule="evenodd" clip-rule="evenodd" fill="#F1F2F2" stroke="#848484" stroke-miterlimit="10" d="M351.9,73.7
			c-4.9,0-6.9-0.2-6.9-6.4V48.9c0-6.2,2.1-6.4,6.9-6.4h18.2c4.9,0,6.9,0.2,6.9,6.4v18.3c0,6.2-2.1,6.4-6.9,6.4H351.9z"/>
		<path fill-rule="evenodd" clip-rule="evenodd" fill="#F1F2F2" stroke="#848484" stroke-miterlimit="10" d="M351.9,73.7
			c-4.9,0-6.9-0.2-6.9-6.4V48.9c0-6.2,2.1-6.4,6.9-6.4h18.2c4.9,0,6.9,0.2,6.9,6.4v18.3c0,6.2-2.1,6.4-6.9,6.4H351.9z"/>
		<path fill-rule="evenodd" clip-rule="evenodd" fill="#F1F2F2" stroke="#848484" stroke-miterlimit="10" d="M351.9,104.6
			c-4.9,0-6.9-0.2-6.9-6.4V79.8c0-6.2,2.1-6.4,6.9-6.4h18.2c4.9,0,6.9,0.2,6.9,6.4v18.3c0,6.2-2.1,6.4-6.9,6.4H351.9z"/>
		<path fill-rule="evenodd" clip-rule="evenodd" fill="#F1F2F2" stroke="#848484" stroke-miterlimit="10" d="M351.9,104.6
			c-4.9,0-6.9-0.2-6.9-6.4V79.8c0-6.2,2.1-6.4,6.9-6.4h18.2c4.9,0,6.9,0.2,6.9,6.4v18.3c0,6.2-2.1,6.4-6.9,6.4H351.9z"/>
		<path fill-rule="evenodd" clip-rule="evenodd" fill="#F1F2F2" stroke="#848484" stroke-miterlimit="10" d="M351.9,135.5
			c-4.9,0-6.9-0.2-6.9-6.4v-18.4c0-6.2,2.1-6.4,6.9-6.4h18.2c4.9,0,6.9,0.2,6.9,6.4v18.4c0,6.2-2.1,6.4-6.9,6.4H351.9z"/>
		<path fill-rule="evenodd" clip-rule="evenodd" fill="#F1F2F2" stroke="#848484" stroke-miterlimit="10" d="M351.9,135.5
			c-4.9,0-6.9-0.2-6.9-6.4v-18.4c0-6.2,2.1-6.4,6.9-6.4h18.2c4.9,0,6.9,0.2,6.9,6.4v18.4c0,6.2-2.1,6.4-6.9,6.4H351.9z"/>
		<path fill-rule="evenodd" clip-rule="evenodd" fill="#F1F2F2" stroke="#848484" stroke-miterlimit="10" d="M319.9,73.7
			c-4.9,0-6.9-0.2-6.9-6.4V48.9c0-6.2,2.1-6.4,6.9-6.4h18.2c4.9,0,6.9,0.2,6.9,6.4v18.3c0,6.2-2.1,6.4-6.9,6.4H319.9z"/>
		<path fill-rule="evenodd" clip-rule="evenodd" fill="#F1F2F2" stroke="#848484" stroke-miterlimit="10" d="M352,166.3
			c-4.9,0-6.9-0.2-6.9-6.4v-18.4c0-6.2,2.1-6.4,6.9-6.4h18.2c4.9,0,6.9,0.2,6.9,6.4V160c0,6.2-2.1,6.4-6.9,6.4H352z"/>
		<path fill-rule="evenodd" clip-rule="evenodd" fill="#F1F2F2" stroke="#848484" stroke-miterlimit="10" d="M383.3,30.9h-74.7h-1.8
			c-2.4,0-4.4,2.1-4.4,4.8v2v31.3c0,2.6,2,4.8,4.4,4.8h1.8c2.4,0,4.4-2.1,4.4-4.8V42.4H377v123.9h-27.6c-2.4,0-4.4,2.1-4.4,4.8v2
			c0,2.6,2,4.8,4.4,4.8h32h1.8c2.4,0,4.4-2.1,4.4-4.8v-2V37.6v-2v0C387.7,33,385.7,30.9,383.3,30.9z"/>
	</g>
</g>
<g>
	<g>
		
			<rect x="223.3" y="44.9" fill-rule="evenodd" clip-rule="evenodd" fill="#F1F2F2" stroke="#848484" stroke-miterlimit="10" width="3.5" height="69.7"/>
		<polygon fill-rule="evenodd" clip-rule="evenodd" fill="#F1F2F2" stroke="#848484" stroke-miterlimit="10" points="223.3,50.8 
			220.6,62.1 220.6,97.5 223.3,108.7 		"/>
		
			<rect x="217.6" y="73.8" transform="matrix(-1 -5.109614e-11 5.109614e-11 -1 438.1643 159.5386)" fill-rule="evenodd" clip-rule="evenodd" fill="#F1F2F2" stroke="#848484" stroke-miterlimit="10" width="3.1" height="11.9"/>
	</g>
</g>
<g id="moyka_2_12_">
	<path fill="#F3F3F3" stroke="#838383" d="M48.7,291.3c1.2,0,2.1,0.9,2.1,2.1v30.3c0,1.2-0.9,2.1-2.1,2.1H23.6
		c-1.2,0-2.1-0.9-2.1-2.1v-30.3c0-1.2,0.9-2.1,2.1-2.1H48.7z"/>
	<path fill="#F3F3F3" stroke="#838383" d="M46.6,293.4c1.2,0,2.1,0.9,2.1,2.1v26.1c0,1.2-0.9,2.1-2.1,2.1H28.8
		c-1.2,0-2.1-0.9-2.1-2.1v-26.1c0-1.2,0.9-2.1,2.1-2.1H46.6z"/>
	<rect x="24.6" y="307" fill="#F3F3F3" stroke="#838383" width="8.4" height="2.1"/>
	<circle fill="#F3F3F3" stroke="#838383" cx="38.7" cy="308.6" r="1.6"/>
</g>
<g id="plita_12_">
	<rect x="21.5" y="233.5" fill="#F3F3F3" stroke="#838383" width="37.6" height="36.6"/>
	<circle fill="#F3F3F3" stroke="#838383" cx="49.7" cy="259.6" r="6.3"/>
	<circle fill="#F3F3F3" stroke="#838383" cx="34" cy="244" r="6.3"/>
	<circle fill="#F3F3F3" stroke="#838383" cx="49.7" cy="244" r="5.2"/>
	<circle fill="#F3F3F3" stroke="#838383" cx="34" cy="259.6" r="5.2"/>
</g>
<g id="stirka_10_">
	<rect x="407.2" y="462.3" fill="#F3F3F3" stroke="#838383" width="31.4" height="31.4"/>
	<path fill="#F3F3F3" stroke="#838383" d="M410.4,464.4c1.2,0,2.1,0.9,2.1,2.1v7.3c0,1.2-0.9,2.1-2.1,2.1h-3.1v-11.5H410.4z"/>
	<circle fill="#F3F3F3" stroke="#838383" cx="424" cy="478" r="8.4"/>
	<circle fill="#F3F3F3" stroke="#838383" cx="424" cy="478" r="6.3"/>
	<circle fill="#F3F3F3" stroke="#838383" cx="412.5" cy="488.4" r="2.1"/>
</g>
<g id="unitaz_18_">
	<path fill="#F3F3F3" stroke="#838383" d="M477.4,561.1v-7.3c0-1.2-0.9-2.1-2.1-2.1h-18.8c-1.2,0-2.1,0.9-2.1,2.1v7.3H477.4z"/>
	<path fill="#F3F3F3" stroke="#838383" d="M475.3,551.7c1.2,0,2.1-0.9,2.1-2.1h-23c0,1.2,0.9,2.1,2.1,2.1H475.3z"/>
	<path fill="#F3F3F3" stroke="#838383" d="M465.9,522.4c-16.2,0-11.5,27.2-11.5,27.2h23C477.4,549.6,482.1,522.4,465.9,522.4z"/>
	<circle fill="#F3F3F3" stroke="#838383" cx="465.9" cy="556.9" r="2.1"/>
</g>
<g id="moyka_18_">
	<path fill="#F3F3F3" stroke="#838383" d="M529.3,561.1c0.6,0,1.1-0.5,1.1-1.1v-22.8c0-0.6-0.5-1.1-1.1-1.1h-34.2
		c-0.6,0-1.1,0.5-1.1,1.1v22.8c0,0.6,0.5,1.1,1.1,1.1H529.3z"/>
	<rect x="494" y="555.4" fill="#F3F3F3" stroke="#838383" width="36.5" height="2.3"/>
	<ellipse fill="#F3F3F3" stroke="#838383" cx="512.8" cy="545.7" rx="12" ry="7.4"/>
	<rect x="511.1" y="548.5" fill="#F3F3F3" stroke="#838383" width="2.3" height="9.1"/>
	<circle fill="#F3F3F3" stroke="#838383" cx="511.6" cy="544.5" r="1.7"/>
</g>
<g id="unitaz_9_">
	<path fill="#F3F3F3" stroke="#838383" d="M20.5,413.4h7.3c1.2,0,2.1-0.9,2.1-2.1v-18.8c0-1.2-0.9-2.1-2.1-2.1h-7.3V413.4z"/>
	<path fill="#F3F3F3" stroke="#838383" d="M29.9,411.3c0,1.2,0.9,2.1,2.1,2.1v-23c-1.2,0-2.1,0.9-2.1,2.1V411.3z"/>
	<path fill="#F3F3F3" stroke="#838383" d="M59.2,401.9c0-16.2-27.2-11.5-27.2-11.5v23C32,413.4,59.2,418.1,59.2,401.9z"/>
	<circle fill="#F3F3F3" stroke="#838383" cx="24.7" cy="401.9" r="2.1"/>
</g>
<g id="moyka_9_">
	<path fill="#F3F3F3" stroke="#838383" d="M111.7,448.9c0.6,0,1.1-0.5,1.1-1.1v-22.8c0-0.6-0.5-1.1-1.1-1.1H77.5
		c-0.6,0-1.1,0.5-1.1,1.1v22.8c0,0.6,0.5,1.1,1.1,1.1H111.7z"/>
	<rect x="76.4" y="443.2" fill="#F3F3F3" stroke="#838383" width="36.5" height="2.3"/>
	<ellipse fill="#F3F3F3" stroke="#838383" cx="95.2" cy="433.5" rx="12" ry="7.4"/>
	<rect x="93.5" y="436.3" fill="#F3F3F3" stroke="#838383" width="2.3" height="9.1"/>
	<circle fill="#F3F3F3" stroke="#838383" cx="94.1" cy="432.4" r="1.7"/>
</g>
<g id="vanna_13_">
	<rect x="538.5" y="464.4" fill="#F3F3F3" stroke="#838383" width="39.7" height="96.7"/>
	<path fill="#F3F3F3" stroke="#838383" d="M552.1,470.4c-5.8,0-10.5,4.5-10.5,10v66.8h33.4v-66.8c0-5.5-4.7-10-10.5-10H552.1z"/>
	<path fill="#F3F3F3" stroke="#838383" d="M563.1,552.1H549v-3.5h8.4"/>
	<path id="Union_13_" fill="#F3F3F3" stroke="#838383" d="M563.6,553.1c-0.6,0-1-0.4-1-1c0-0.6,0.5-1,1-1h1.2c0.4-1.2,1.6-2,3-2
		c1.7,0,3.1,1.3,3.1,3c0,1.7-1.4,3-3.1,3c-1.4,0-2.5-0.8-3-2H563.6z"/>
	<rect x="557.4" y="542.1" fill="#F3F3F3" stroke="#838383" width="2.1" height="8"/>
</g>
<rect x="737.5" y="237.7" transform="matrix(6.123234e-17 -1 1 6.123234e-17 543.7549 1024.0995)" fill="#FFFFFF" stroke="#000000" stroke-miterlimit="10" width="92.8" height="4.9"/>
<rect x="779.5" y="279.7" transform="matrix(6.123234e-17 -1 1 6.123234e-17 501.8315 1066.0229)" fill="#FFFFFF" stroke="#000000" stroke-miterlimit="10" width="8.9" height="4.9"/>
<rect x="781.5" y="237.8" transform="matrix(6.123234e-17 -1 1 6.123234e-17 543.6853 1024.1691)" fill="#FFFFFF" stroke="#000000" stroke-miterlimit="10" width="4.9" height="4.9"/>
<rect x="779.4" y="195.9" transform="matrix(6.123234e-17 -1 1 6.123234e-17 585.6088 982.2456)" fill="#FFFFFF" stroke="#000000" stroke-miterlimit="10" width="9.1" height="4.9"/>
<rect x="729.7" y="234.8" transform="matrix(6.123234e-17 -1 1 6.123234e-17 535.9552 1016.2997)" fill="#FFFFFF" stroke="#000000" stroke-miterlimit="10" width="92.8" height="10.7"/>
<rect x="748.6" y="235.7" transform="matrix(6.123234e-17 -1 1 6.123234e-17 550.6493 1030.7153)" fill="#FFFFFF" stroke="#000000" stroke-miterlimit="10" width="84.1" height="8.6"/>
<rect x="446" y="14.7" fill="#FFFFFF" stroke="#000000" stroke-miterlimit="10" width="92.5" height="5"/>
<rect x="446" y="14.7" fill="#FFFFFF" stroke="#000000" stroke-miterlimit="10" width="6.3" height="5"/>
<rect x="490.3" y="14.7" fill="#FFFFFF" stroke="#000000" stroke-miterlimit="10" width="4.3" height="5"/>
<rect x="532" y="14.7" fill="#FFFFFF" stroke="#000000" stroke-miterlimit="10" width="6.4" height="5"/>
<rect x="448.2" y="6.3" fill="#FFFFFF" stroke="#000000" stroke-miterlimit="10" width="86.4" height="8.4"/>
<rect x="446" y="19.7" fill="#FFFFFF" stroke="#000000" stroke-miterlimit="10" width="92.5" height="8.4"/>
<rect x="257.9" y="14.7" fill="#FFFFFF" stroke="#000000" stroke-miterlimit="10" width="90.5" height="5"/>
<rect x="257.9" y="14.7" fill="#FFFFFF" stroke="#000000" stroke-miterlimit="10" width="8.5" height="5"/>
<rect x="302.1" y="14.5" fill="#FFFFFF" stroke="#000000" stroke-miterlimit="10" width="4.3" height="5.2"/>
<rect x="340" y="14.7" fill="#FFFFFF" stroke="#000000" stroke-miterlimit="10" width="8.5" height="5"/>
<rect x="260.4" y="6.3" fill="#FFFFFF" stroke="#000000" stroke-miterlimit="10" width="84.8" height="8.2"/>
<rect x="257.9" y="19.7" fill="#FFFFFF" stroke="#000000" stroke-miterlimit="10" width="90.5" height="9.1"/>
<g>
	
		<rect x="662.6" y="-68" transform="matrix(-1.836970e-16 1 -1 -1.836970e-16 688.6769 -655.7017)" fill="#FFFFFF" stroke="#000000" stroke-miterlimit="10" width="19.2" height="168.9"/>
	
		<rect x="668.8" y="-66.1" transform="matrix(-1.836970e-16 1 -1 -1.836970e-16 690.4875 -653.8911)" fill="#FFFFFF" stroke="#000000" stroke-miterlimit="10" width="6.7" height="168.9"/>
	
		<rect x="672.5" y="-64.6" transform="matrix(-1.836970e-16 1 -1 -1.836970e-16 692.0443 -655.3086)" fill="#FFFFFF" stroke="#000000" stroke-miterlimit="10" width="2.4" height="165.9"/>
</g>
<g>
	
		<rect x="97.8" y="-66.1" transform="matrix(-1.836970e-16 1 -1 -1.836970e-16 123.8835 -90.9084)" fill="#FFFFFF" stroke="#000000" stroke-miterlimit="10" width="19.2" height="165.1"/>
	
		<rect x="104.1" y="-64.3" transform="matrix(-1.836970e-16 1 -1 -1.836970e-16 125.6942 -89.0978)" fill="#FFFFFF" stroke="#000000" stroke-miterlimit="10" width="6.7" height="165.1"/>
	
		<rect x="107.7" y="-62.7" transform="matrix(-1.836970e-16 1 -1 -1.836970e-16 127.218 -90.4823)" fill="#FFFFFF" stroke="#000000" stroke-miterlimit="10" width="2.4" height="162.2"/>
</g>
<line fill="#FFFFFF" stroke="#000000" stroke-miterlimit="10" x1="101.1" y1="133.2" x2="61" y2="111.1"/>
<line fill="#FFFFFF" stroke="#000000" stroke-miterlimit="10" x1="300.8" y1="469.1" x2="250.1" y2="498.5"/>
<line fill="#FFFFFF" stroke="#000000" stroke-miterlimit="10" x1="473.3" y1="391.7" x2="432.6" y2="368.9"/>
<rect x="55.7" y="105.2" fill="#FFFFFF" stroke="#000000" stroke-miterlimit="10" width="106.1" height="5.8"/>
<rect x="156.7" y="105.2" fill="#FFFFFF" stroke="#000000" stroke-miterlimit="10" width="5.2" height="5.8"/>
<rect x="55.7" y="105.2" fill="#FFFFFF" stroke="#000000" stroke-miterlimit="10" width="5.3" height="5.8"/>
<rect x="108" y="105.2" fill="#FFFFFF" stroke="#000000" stroke-miterlimit="10" width="5.8" height="5.8"/>
<rect x="110.9" y="96.3" fill="#FFFFFF" stroke="#000000" stroke-miterlimit="10" width="47.8" height="8.9"/>
<rect x="110.9" y="111.1" fill="#FFFFFF" stroke="#000000" stroke-miterlimit="10" width="50.9" height="8.9"/>
<line fill="#FFFFFF" stroke="#000000" stroke-miterlimit="10" x1="559.4" y1="411.9" x2="585.2" y2="368.9"/>
<line fill="#FFFFFF" stroke="#000000" stroke-miterlimit="10" x1="524.8" y1="451.2" x2="482.6" y2="429"/>
<line fill="#FFFFFF" stroke="#000000" stroke-miterlimit="10" x1="136.2" y1="424.7" x2="161.7" y2="385.6"/>
<rect x="593.5" y="104.7" fill="#FFFFFF" stroke="#000000" stroke-miterlimit="10" width="94.5" height="4.9"/>
<rect x="683.2" y="104.7" fill="#FFFFFF" stroke="#000000" stroke-miterlimit="10" width="4.9" height="4.9"/>
<rect x="650.4" y="104.7" fill="#FFFFFF" stroke="#000000" stroke-miterlimit="10" width="4.9" height="4.9"/>
<rect x="593.5" y="104.7" fill="#FFFFFF" stroke="#000000" stroke-miterlimit="10" width="4.8" height="4.9"/>
<rect x="652.8" y="96.3" fill="#FFFFFF" stroke="#000000" stroke-miterlimit="10" width="32.8" height="8.4"/>
<rect x="652.8" y="109.6" fill="#FFFFFF" stroke="#000000" stroke-miterlimit="10" width="35.2" height="8.4"/>
<line fill="#FFFFFF" stroke="#000000" stroke-miterlimit="10" x1="598.3" y1="109.6" x2="640.8" y2="132.5"/>
<rect x="770.5" y="286.6" fill="#838383" stroke="#000000" stroke-miterlimit="10" width="15.9" height="170.1"/>
<rect x="786.4" y="282.1" transform="matrix(-1 -1.224647e-16 1.224647e-16 -1 1581.3646 738.7241)" fill="#838383" stroke="#000000" stroke-miterlimit="10" width="8.6" height="174.5"/>
<rect x="770.5" y="6.3" fill="#838383" stroke="#000000" stroke-miterlimit="10" width="15.9" height="187.5"/>
<rect x="786.4" y="6.3" transform="matrix(-1 -1.224647e-16 1.224647e-16 -1 1581.3646 204.2902)" fill="#838383" stroke="#000000" stroke-miterlimit="10" width="8.6" height="191.7"/>
<rect x="685" y="96.3" fill="#838383" stroke="#000000" stroke-miterlimit="10" width="85.4" height="8.4"/>
<rect x="688" y="104.7" fill="#838383" stroke="#000000" stroke-miterlimit="10" width="82.5" height="13.4"/>
<rect x="587.8" y="96.3" fill="#838383" stroke="#000000" stroke-miterlimit="10" width="8.4" height="8.4"/>
<rect x="587.8" y="104.7" fill="#838383" stroke="#000000" stroke-miterlimit="10" width="5.8" height="13.4"/>
<rect x="534.5" y="6.3" fill="#838383" stroke="#000000" stroke-miterlimit="10" width="53.2" height="8.4"/>
<rect x="572.2" y="14.7" fill="#838383" stroke="#000000" stroke-miterlimit="10" width="15.6" height="117.8"/>
<rect x="538.4" y="14.7" fill="#838383" stroke="#000000" stroke-miterlimit="10" width="33.7" height="13.4"/>
<rect x="346.2" y="6.3" fill="#838383" stroke="#000000" stroke-miterlimit="10" width="102" height="8.4"/>
<rect x="403.6" y="14.7" fill="#838383" stroke="#000000" stroke-miterlimit="10" width="42.3" height="13.4"/>
<rect x="390" y="14.7" fill="#838383" stroke="#000000" stroke-miterlimit="10" width="13.6" height="102"/>
<rect x="348.5" y="14.7" fill="#838383" stroke="#000000" stroke-miterlimit="10" width="41.5" height="13.4"/>
<rect x="190" y="6.3" fill="#838383" stroke="#000000" stroke-miterlimit="10" width="70.5" height="8.4"/>
<rect x="216.1" y="14.7" fill="#838383" stroke="#000000" stroke-miterlimit="10" width="41.8" height="13.4"/>
<rect x="199.4" y="14.7" fill="#838383" stroke="#000000" stroke-miterlimit="10" width="16.7" height="105.3"/>
<rect x="201.4" y="340.3" fill="#838383" stroke="#000000" stroke-miterlimit="10" width="29.2" height="28.6"/>
<rect x="394.4" y="561.9" fill="#838383" stroke="#000000" stroke-miterlimit="10" width="200" height="13.2"/>
<rect x="390" y="340.3" fill="#838383" stroke="#000000" stroke-miterlimit="10" width="28.6" height="28.6"/>
<rect x="572.2" y="340.3" fill="#838383" stroke="#000000" stroke-miterlimit="10" width="28.6" height="28.6"/>
<rect x="5" y="16.1" fill="#838383" stroke="#000000" stroke-miterlimit="10" width="13.9" height="452.7"/>
<rect x="5" y="6.3" fill="#838383" stroke="#000000" stroke-miterlimit="10" width="20.1" height="9.7"/>
<rect x="158.8" y="96.3" fill="#838383" stroke="#000000" stroke-miterlimit="10" width="40.7" height="8.9"/>
<rect x="190" y="14.7" fill="#838383" stroke="#000000" stroke-miterlimit="10" width="9.5" height="81.6"/>
<rect x="161.8" y="105.2" fill="#838383" stroke="#000000" stroke-miterlimit="10" width="37.6" height="14.8"/>
<rect x="18.9" y="105.2" fill="#838383" stroke="#000000" stroke-miterlimit="10" width="36.8" height="14.8"/>
<rect x="18.9" y="96.3" fill="#838383" stroke="#000000" stroke-miterlimit="10" width="40.4" height="8.9"/>
<rect x="18.9" y="16.1" fill="#838383" stroke="#000000" stroke-miterlimit="10" width="6.1" height="80.2"/>
<rect x="756.9" y="6.3" fill="#838383" stroke="#000000" stroke-miterlimit="10" width="13.6" height="90"/>
<rect x="18.9" y="451.2" fill="#838383" stroke="#000000" stroke-miterlimit="10" width="222.2" height="17.5"/>
<rect x="300.8" y="451.2" fill="#838383" stroke="#000000" stroke-miterlimit="10" width="105.1" height="17.5"/>
<rect x="394.4" y="468.7" fill="#838383" stroke="#000000" stroke-miterlimit="10" width="11.5" height="93.2"/>
<rect x="578.3" y="440.7" fill="#838383" stroke="#000000" stroke-miterlimit="10" width="192.2" height="10.4"/>
<rect x="482.6" y="361.8" fill="#C6C6C6" stroke="#000000" stroke-miterlimit="10" width="89.6" height="7.1"/>
<rect x="418.5" y="361.8" fill="#C6C6C6" stroke="#000000" stroke-miterlimit="10" width="14.6" height="7.1"/>
<rect x="572.2" y="132.5" fill="#C6C6C6" stroke="#000000" stroke-miterlimit="10" width="7.1" height="207.8"/>
<rect x="390" y="116.6" fill="#C6C6C6" stroke="#000000" stroke-miterlimit="10" width="7.1" height="223.7"/>
<rect x="18.9" y="340.3" fill="#C6C6C6" stroke="#000000" stroke-miterlimit="10" width="117.3" height="7.1"/>
<rect x="129.1" y="347.4" fill="#C6C6C6" stroke="#000000" stroke-miterlimit="10" width="7.1" height="29.9"/>
<rect x="129.1" y="424.7" fill="#C6C6C6" stroke="#000000" stroke-miterlimit="10" width="7.1" height="26.5"/>
<rect x="74.4" y="347.8" fill="#C6C6C6" stroke="#000000" stroke-miterlimit="10" width="5.4" height="32"/>
<rect x="33.7" y="374.4" fill="#C6C6C6" stroke="#000000" stroke-miterlimit="10" width="40.7" height="5.4"/>
<rect x="18.9" y="377.7" fill="#C6C6C6" stroke="#000000" stroke-miterlimit="10" width="14.8" height="2.1"/>
<rect x="405.9" y="451.2" fill="#C6C6C6" stroke="#000000" stroke-miterlimit="10" width="68.2" height="5.4"/>
<rect x="524.8" y="451.2" fill="#C6C6C6" stroke="#000000" stroke-miterlimit="10" width="245.7" height="5.4"/>
<rect x="589" y="457" fill="#C6C6C6" stroke="#000000" stroke-miterlimit="10" width="5.4" height="104.9"/>
<rect x="578.3" y="457" fill="#C6C6C6" stroke="#000000" stroke-miterlimit="10" width="5.4" height="104.9"/>
<rect x="437.5" y="499.4" fill="#C6C6C6" stroke="#000000" stroke-miterlimit="10" width="5.4" height="38.9"/>
<rect x="405.9" y="499.4" fill="#C6C6C6" stroke="#000000" stroke-miterlimit="10" width="31.5" height="5.4"/>
<rect x="578.3" y="426.9" fill="#C6C6C6" stroke="#000000" stroke-miterlimit="10" width="7.1" height="13.8"/>
<rect x="440.8" y="538.3" fill="#C6C6C6" stroke="#000000" stroke-miterlimit="10" width="2.1" height="23.6"/>
<g>
	<path d="M267.4,189H265v4.8h-1.1v-10.4h1.1v4.7h2.4l3.5-4.7h1.2l-3.9,5.1l4.1,5.4h-1.3L267.4,189z"/>
	<path d="M280.4,185.9l-3.9,8.8c-0.3,0.7-0.7,1.3-1.1,1.6c-0.4,0.3-0.9,0.5-1.5,0.5c-0.4,0-0.7-0.1-1.1-0.2
		c-0.3-0.1-0.6-0.3-0.8-0.5l0.5-0.8c0.4,0.4,0.9,0.6,1.4,0.6c0.4,0,0.7-0.1,0.9-0.3c0.3-0.2,0.5-0.5,0.7-1l0.3-0.8l-3.5-7.8h1.1
		l2.9,6.7l2.9-6.7H280.4z"/>
	<path d="M286.5,193.8l-2.5-3.3l-2.5,3.3h-1.2l3.1-4l-2.9-3.8h1.2l2.4,3.1l2.4-3.1h1.2l-2.9,3.8l3.1,4H286.5z"/>
	<path d="M289.4,185.9h1.1v3.5h4.9v-3.5h1.1v7.8h-1.1v-3.5h-4.9v3.5h-1.1V185.9z"/>
	<path d="M305.5,185.9v7.8h-1v-2.6h-2.5h-0.3l-1.8,2.6h-1.1l1.9-2.7c-0.6-0.2-1.1-0.5-1.4-0.9c-0.3-0.4-0.5-0.9-0.5-1.5
		c0-0.9,0.3-1.5,0.9-2c0.6-0.5,1.4-0.7,2.4-0.7H305.5z M302.2,190.4h2.4v-3.5h-2.3c-1.5,0-2.3,0.6-2.3,1.8
		C300,189.8,300.7,190.4,302.2,190.4z"/>
	<path d="M307.9,189.3h3.9v0.9h-3.9V189.3z"/>
	<path d="M269.2,204.7h-4.5v6.9h-1.1v-7.8h5.5V204.7z"/>
	<path d="M271.6,211.2c-0.6-0.3-1.1-0.8-1.4-1.4c-0.3-0.6-0.5-1.3-0.5-2.1s0.2-1.4,0.5-2.1c0.3-0.6,0.8-1.1,1.4-1.4
		c0.6-0.3,1.3-0.5,2-0.5s1.4,0.2,2,0.5c0.6,0.3,1.1,0.8,1.4,1.4s0.5,1.3,0.5,2.1s-0.2,1.4-0.5,2.1c-0.3,0.6-0.8,1.1-1.4,1.4
		s-1.3,0.5-2,0.5S272.2,211.5,271.6,211.2z M275.1,210.4c0.4-0.3,0.8-0.6,1-1.1c0.2-0.5,0.4-1,0.4-1.6s-0.1-1.1-0.4-1.6
		s-0.6-0.8-1-1.1c-0.4-0.3-0.9-0.4-1.5-0.4s-1.1,0.1-1.5,0.4s-0.8,0.6-1,1.1s-0.4,1-0.4,1.6s0.1,1.1,0.4,1.6c0.3,0.5,0.6,0.8,1,1.1
		s0.9,0.4,1.5,0.4S274.7,210.6,275.1,210.4z"/>
	<path d="M281.1,211.2c-0.6-0.3-1.1-0.8-1.4-1.4c-0.3-0.6-0.5-1.3-0.5-2.1s0.2-1.4,0.5-2.1c0.3-0.6,0.8-1.1,1.4-1.4
		c0.6-0.3,1.3-0.5,2.1-0.5c0.7,0,1.3,0.1,1.8,0.4c0.5,0.3,1,0.6,1.3,1.2l-0.8,0.5c-0.3-0.4-0.6-0.7-1-0.9c-0.4-0.2-0.8-0.3-1.3-0.3
		c-0.6,0-1.1,0.1-1.5,0.4c-0.5,0.3-0.8,0.6-1.1,1.1s-0.4,1-0.4,1.6c0,0.6,0.1,1.1,0.4,1.6c0.3,0.5,0.6,0.8,1.1,1.1
		c0.5,0.3,1,0.4,1.5,0.4c0.5,0,0.9-0.1,1.3-0.3c0.4-0.2,0.7-0.5,1-0.9l0.8,0.5c-0.3,0.5-0.7,0.9-1.3,1.2s-1.1,0.4-1.8,0.4
		C282.4,211.7,281.7,211.5,281.1,211.2z"/>
	<path d="M293.6,204.7h-3v6.9h-1.1v-6.9h-3v-0.9h7V204.7z"/>
	<path d="M295.1,203.8h1.1v6.2l5.2-6.2h0.9v7.8h-1.1v-6.2l-5.2,6.2h-1V203.8z"/>
	<path d="M305.4,203.8h1.1v3.5h4.9v-3.5h1.1v7.8h-1.1v-3.5h-4.9v3.5h-1.1V203.8z"/>
	<path d="M320.5,204.5c0.5,0.5,0.8,1.3,0.8,2.3v4.9h-1v-1.2c-0.2,0.4-0.6,0.7-1,1c-0.5,0.2-1,0.3-1.6,0.3c-0.9,0-1.6-0.2-2.1-0.6
		c-0.5-0.4-0.8-1-0.8-1.7c0-0.7,0.2-1.2,0.7-1.6c0.5-0.4,1.2-0.6,2.3-0.6h2.5v-0.5c0-0.7-0.2-1.2-0.6-1.5s-0.9-0.5-1.7-0.5
		c-0.5,0-1,0.1-1.4,0.2c-0.5,0.2-0.8,0.4-1.2,0.7l-0.5-0.8c0.4-0.3,0.9-0.6,1.4-0.8c0.6-0.2,1.1-0.3,1.8-0.3
		C319.1,203.7,319.9,204,320.5,204.5z M319.3,210.5c0.4-0.3,0.7-0.7,1-1.2V208h-2.5c-1.3,0-2,0.5-2,1.4c0,0.5,0.2,0.8,0.5,1.1
		s0.8,0.4,1.5,0.4C318.3,210.9,318.8,210.7,319.3,210.5z"/>
	<path d="M330.1,203.8v7.8h-1V209h-2.5h-0.3l-1.8,2.6h-1.1l1.9-2.7c-0.6-0.2-1.1-0.5-1.4-0.9c-0.3-0.4-0.5-0.9-0.5-1.5
		c0-0.9,0.3-1.5,0.9-2c0.6-0.5,1.4-0.7,2.4-0.7H330.1z M326.8,208.3h2.4v-3.5h-2.3c-1.5,0-2.3,0.6-2.3,1.8
		C324.6,207.7,325.3,208.3,326.8,208.3z"/>
	<path d="M272.2,232.3v1.6h-9.4v-1.3l5.3-5.1c0.6-0.6,1.1-1.2,1.3-1.6c0.2-0.5,0.3-0.9,0.3-1.4c0-0.7-0.2-1.2-0.7-1.6
		c-0.5-0.4-1.2-0.6-2.1-0.6c-1.4,0-2.5,0.5-3.3,1.4l-1.3-1.1c0.5-0.6,1.2-1.1,2-1.5c0.8-0.3,1.7-0.5,2.8-0.5c1.4,0,2.4,0.3,3.3,1
		c0.8,0.7,1.2,1.5,1.2,2.7c0,0.7-0.1,1.4-0.4,2c-0.3,0.6-0.9,1.3-1.7,2.1l-4,3.8H272.2z"/>
	<path d="M282,222.5c0.9,1.1,1.4,2.7,1.4,4.8c0,1.5-0.3,2.7-0.8,3.7c-0.5,1-1.2,1.8-2.2,2.3c-0.9,0.5-2,0.8-3.2,0.8
		c-0.6,0-1.2-0.1-1.8-0.2c-0.6-0.1-1-0.3-1.5-0.6l0.7-1.5c0.6,0.4,1.5,0.6,2.5,0.6c1.4,0,2.4-0.4,3.2-1.3c0.8-0.8,1.1-2.1,1.1-3.7
		v-0.5c-0.4,0.6-0.9,1-1.5,1.3c-0.7,0.3-1.4,0.4-2.2,0.4c-0.9,0-1.6-0.2-2.3-0.5c-0.7-0.3-1.2-0.8-1.6-1.4c-0.4-0.6-0.6-1.3-0.6-2.1
		c0-0.8,0.2-1.5,0.6-2.2c0.4-0.6,1-1.1,1.6-1.4c0.7-0.3,1.5-0.5,2.3-0.5C279.7,220.8,281.1,221.3,282,222.5z M279.7,227
		c0.5-0.2,0.8-0.5,1.1-0.9c0.3-0.4,0.4-0.8,0.4-1.3c0-0.5-0.1-0.9-0.4-1.3c-0.2-0.4-0.6-0.7-1.1-0.9c-0.5-0.2-1-0.3-1.7-0.3
		c-0.9,0-1.5,0.2-2.1,0.7c-0.5,0.5-0.8,1.1-0.8,1.8c0,0.8,0.3,1.4,0.8,1.8c0.5,0.5,1.3,0.7,2.2,0.7
		C278.7,227.3,279.2,227.2,279.7,227z"/>
	<path d="M287.1,231.9c0.2,0.2,0.3,0.5,0.3,0.9c0,0.2,0,0.4-0.1,0.5c0,0.2-0.1,0.4-0.3,0.8l-0.9,2.6h-1.2l0.7-2.8
		c-0.2-0.1-0.4-0.2-0.6-0.4c-0.1-0.2-0.2-0.4-0.2-0.7c0-0.4,0.1-0.7,0.4-0.9c0.2-0.2,0.5-0.4,0.9-0.4
		C286.6,231.5,286.9,231.6,287.1,231.9z"/>
	<path d="M297.1,227.2c0.9,0.7,1.3,1.7,1.3,2.9c0,0.8-0.2,1.5-0.5,2.1c-0.4,0.6-0.9,1.1-1.7,1.5c-0.7,0.4-1.6,0.5-2.7,0.5
		c-0.9,0-1.8-0.1-2.7-0.4c-0.9-0.3-1.6-0.7-2.1-1.2l0.9-1.5c0.4,0.4,1,0.8,1.7,1c0.7,0.3,1.4,0.4,2.2,0.4c1,0,1.7-0.2,2.3-0.6
		s0.8-1,0.8-1.7c0-0.8-0.3-1.4-0.9-1.8c-0.6-0.4-1.6-0.6-3.1-0.6h-3l0.7-6.8h7.3v1.6h-5.8l-0.4,3.6h1.5
		C294.8,226.1,296.2,226.5,297.1,227.2z"/>
</g>
<g>
	<path d="M665.9,302.4c-0.8-0.5-1.5-1.1-1.9-1.9c-0.5-0.8-0.7-1.7-0.7-2.7c0-1,0.2-1.9,0.7-2.7c0.5-0.8,1.1-1.4,2-1.9
		c0.8-0.5,1.8-0.7,2.8-0.7c0.8,0,1.5,0.1,2.1,0.4c0.7,0.3,1.2,0.6,1.7,1.1l-0.7,0.7c-0.8-0.8-1.8-1.2-3.1-1.2
		c-0.8,0-1.6,0.2-2.2,0.6c-0.7,0.4-1.2,0.9-1.6,1.5s-0.6,1.4-0.6,2.2c0,0.8,0.2,1.5,0.6,2.2s0.9,1.2,1.6,1.5s1.4,0.6,2.2,0.6
		c1.3,0,2.3-0.4,3.1-1.3l0.7,0.7c-0.5,0.5-1,0.9-1.7,1.1c-0.7,0.3-1.4,0.4-2.2,0.4C667.7,303.1,666.7,302.8,665.9,302.4z"/>
	<path d="M681.6,295.2v7.8h-1.1v-6.9h-4.9v6.9h-1.1v-7.8H681.6z"/>
	<path d="M689.6,295.9c0.5,0.5,0.8,1.3,0.8,2.3v4.9h-1v-1.2c-0.2,0.4-0.6,0.7-1,1c-0.5,0.2-1,0.3-1.6,0.3c-0.9,0-1.6-0.2-2.1-0.6
		c-0.5-0.4-0.8-1-0.8-1.7c0-0.7,0.2-1.2,0.7-1.6c0.5-0.4,1.2-0.6,2.3-0.6h2.5v-0.5c0-0.7-0.2-1.2-0.6-1.5c-0.4-0.4-0.9-0.5-1.7-0.5
		c-0.5,0-1,0.1-1.4,0.2c-0.5,0.2-0.8,0.4-1.2,0.7l-0.5-0.8c0.4-0.3,0.9-0.6,1.4-0.8s1.1-0.3,1.8-0.3
		C688.3,295.1,689.1,295.3,689.6,295.9z M688.4,301.8c0.4-0.3,0.7-0.7,1-1.2v-1.3h-2.5c-1.3,0-2,0.5-2,1.4c0,0.5,0.2,0.8,0.5,1.1
		s0.8,0.4,1.5,0.4C687.5,302.2,688,302.1,688.4,301.8z"/>
	<path d="M699.7,295.2v7.8h-1.1v-6.9h-3.8l-0.1,1.9c-0.1,1.6-0.3,2.9-0.6,3.8s-0.8,1.3-1.6,1.3c-0.2,0-0.5,0-0.8-0.1l0.1-0.9
		c0.2,0,0.3,0.1,0.4,0.1c0.4,0,0.7-0.2,0.9-0.6c0.2-0.4,0.3-0.8,0.4-1.4s0.1-1.3,0.2-2.2l0.1-2.8H699.7z"/>
	<path d="M708.3,298.6c0.5,0.4,0.8,1,0.8,1.8c0,0.8-0.3,1.5-0.8,1.9c-0.6,0.4-1.3,0.7-2.4,0.7l-3.2,0v-7.8h1.1v2.7l2.3,0
		C707,297.9,707.8,298.1,708.3,298.6z M707.4,301.8c0.4-0.3,0.6-0.7,0.6-1.3c0-0.6-0.2-1-0.6-1.3c-0.4-0.3-0.9-0.4-1.7-0.4l-2,0v3.5
		l2,0C706.5,302.2,707,302.1,707.4,301.8z"/>
	<path d="M711,295.2h1.1v3.5h4.9v-3.5h1.1v7.8H717v-3.5h-4.9v3.5H711V295.2z"/>
	<path d="M727.1,295.2v7.8h-1v-2.6h-2.5h-0.3l-1.8,2.6h-1.1l2-2.7c-0.6-0.2-1.1-0.5-1.4-0.9c-0.3-0.4-0.5-0.9-0.5-1.5
		c0-0.9,0.3-1.5,0.9-2c0.6-0.5,1.4-0.7,2.4-0.7H727.1z M723.8,299.6h2.4v-3.5h-2.3c-1.5,0-2.3,0.6-2.3,1.8
		C721.6,299,722.3,299.6,723.8,299.6z"/>
	<path d="M667.3,312.3v13h-1.8v-11.4h-2.9v-1.6H667.3z"/>
	<path d="M678.1,317.9c0.7,0.3,1.2,0.8,1.6,1.4c0.4,0.6,0.6,1.3,0.6,2.1c0,0.8-0.2,1.5-0.6,2.2c-0.4,0.6-1,1.1-1.7,1.4
		c-0.7,0.3-1.5,0.5-2.4,0.5c-1.7,0-3.1-0.6-4-1.7c-0.9-1.1-1.4-2.7-1.4-4.8c0-1.5,0.3-2.7,0.8-3.7c0.5-1,1.2-1.8,2.2-2.3
		c0.9-0.5,2-0.8,3.2-0.8c0.6,0,1.2,0.1,1.8,0.2c0.6,0.1,1,0.3,1.5,0.6l-0.7,1.5c-0.6-0.4-1.5-0.6-2.5-0.6c-1.4,0-2.4,0.4-3.2,1.3
		c-0.8,0.8-1.2,2.1-1.2,3.7c0,0.2,0,0.4,0,0.5c0.4-0.6,0.9-1,1.5-1.3c0.7-0.3,1.4-0.4,2.2-0.4C676.6,317.4,677.4,317.6,678.1,317.9z
		 M677.6,323.3c0.5-0.5,0.8-1.1,0.8-1.8c0-0.8-0.3-1.4-0.8-1.8c-0.5-0.5-1.3-0.7-2.2-0.7c-0.6,0-1.1,0.1-1.6,0.3
		c-0.5,0.2-0.8,0.5-1.1,0.9c-0.3,0.4-0.4,0.8-0.4,1.3c0,0.5,0.1,0.9,0.4,1.3c0.2,0.4,0.6,0.7,1.1,0.9s1,0.3,1.7,0.3
		C676.4,323.9,677.1,323.7,677.6,323.3z"/>
	<path d="M683.9,323.2c0.2,0.2,0.3,0.5,0.3,0.9c0,0.2,0,0.4-0.1,0.5c0,0.2-0.1,0.4-0.3,0.8l-0.9,2.6h-1.2l0.7-2.8
		c-0.2-0.1-0.4-0.2-0.6-0.4c-0.1-0.2-0.2-0.4-0.2-0.7c0-0.4,0.1-0.7,0.4-0.9c0.2-0.2,0.5-0.4,0.9-0.4
		C683.4,322.9,683.7,323,683.9,323.2z"/>
	<path d="M694.3,313.8c0.9,1.1,1.4,2.7,1.4,4.8c0,1.5-0.3,2.7-0.8,3.7c-0.5,1-1.2,1.8-2.2,2.3c-0.9,0.5-2,0.8-3.2,0.8
		c-0.6,0-1.2-0.1-1.8-0.2c-0.6-0.1-1-0.3-1.5-0.6l0.7-1.5c0.6,0.4,1.5,0.6,2.5,0.6c1.4,0,2.4-0.4,3.2-1.3c0.8-0.8,1.1-2.1,1.1-3.7
		v-0.5c-0.4,0.6-0.9,1-1.5,1.3c-0.7,0.3-1.4,0.4-2.2,0.4c-0.9,0-1.6-0.2-2.3-0.5c-0.7-0.3-1.2-0.8-1.6-1.4c-0.4-0.6-0.6-1.3-0.6-2.1
		c0-0.8,0.2-1.5,0.6-2.2c0.4-0.6,1-1.1,1.6-1.4c0.7-0.3,1.5-0.5,2.3-0.5C692,312.1,693.4,312.7,694.3,313.8z M692,318.3
		c0.5-0.2,0.8-0.5,1.1-0.9c0.3-0.4,0.4-0.8,0.4-1.3c0-0.5-0.1-0.9-0.4-1.3c-0.2-0.4-0.6-0.7-1.1-0.9s-1-0.3-1.7-0.3
		c-0.9,0-1.5,0.2-2.1,0.7c-0.5,0.5-0.8,1.1-0.8,1.8c0,0.8,0.3,1.4,0.8,1.8s1.3,0.7,2.2,0.7C691,318.7,691.5,318.6,692,318.3z"/>
</g>
<g>
	<path d="M488.8,126.1c-0.8-0.5-1.5-1.1-1.9-1.9c-0.5-0.8-0.7-1.7-0.7-2.7c0-1,0.2-1.9,0.7-2.7c0.5-0.8,1.1-1.4,2-1.9
		c0.8-0.5,1.8-0.7,2.8-0.7c0.8,0,1.5,0.1,2.1,0.4c0.7,0.3,1.2,0.6,1.7,1.1l-0.7,0.7c-0.8-0.8-1.8-1.2-3.1-1.2
		c-0.8,0-1.6,0.2-2.2,0.6c-0.7,0.4-1.2,0.9-1.6,1.5s-0.6,1.4-0.6,2.2c0,0.8,0.2,1.5,0.6,2.2s0.9,1.2,1.6,1.5s1.4,0.6,2.2,0.6
		c1.3,0,2.3-0.4,3.1-1.3l0.7,0.7c-0.5,0.5-1,0.9-1.7,1.1c-0.7,0.3-1.4,0.4-2.2,0.4C490.6,126.8,489.7,126.6,488.8,126.1z"/>
	<path d="M504.5,118.9v7.8h-1.1v-6.9h-4.9v6.9h-1.1v-7.8H504.5z"/>
	<path d="M512.6,119.6c0.5,0.5,0.8,1.3,0.8,2.3v4.9h-1v-1.2c-0.2,0.4-0.6,0.7-1,1c-0.5,0.2-1,0.3-1.6,0.3c-0.9,0-1.6-0.2-2.1-0.6
		c-0.5-0.4-0.8-1-0.8-1.7c0-0.7,0.2-1.2,0.7-1.6c0.5-0.4,1.2-0.6,2.3-0.6h2.5v-0.5c0-0.7-0.2-1.2-0.6-1.5c-0.4-0.4-0.9-0.5-1.7-0.5
		c-0.5,0-1,0.1-1.4,0.2c-0.5,0.2-0.8,0.4-1.2,0.7l-0.5-0.8c0.4-0.3,0.9-0.6,1.4-0.8s1.1-0.3,1.8-0.3
		C511.2,118.8,512,119.1,512.6,119.6z M511.4,125.6c0.4-0.3,0.7-0.7,1-1.2v-1.3h-2.5c-1.3,0-2,0.5-2,1.4c0,0.5,0.2,0.8,0.5,1.1
		s0.8,0.4,1.5,0.4C510.4,126,510.9,125.8,511.4,125.6z"/>
	<path d="M522.6,118.9v7.8h-1.1v-6.9h-3.8l-0.1,1.9c-0.1,1.6-0.3,2.9-0.6,3.8s-0.8,1.3-1.6,1.3c-0.2,0-0.5,0-0.8-0.1l0.1-0.9
		c0.2,0,0.3,0.1,0.4,0.1c0.4,0,0.7-0.2,0.9-0.6c0.2-0.4,0.3-0.8,0.4-1.4s0.1-1.3,0.2-2.2l0.1-2.8H522.6z"/>
	<path d="M531.2,122.3c0.5,0.4,0.8,1,0.8,1.8c0,0.8-0.3,1.5-0.8,1.9c-0.6,0.4-1.3,0.7-2.4,0.7l-3.2,0v-7.8h1.1v2.7l2.3,0
		C529.9,121.7,530.7,121.9,531.2,122.3z M530.3,125.5c0.4-0.3,0.6-0.7,0.6-1.3c0-0.6-0.2-1-0.6-1.3c-0.4-0.3-0.9-0.4-1.7-0.4l-2,0
		v3.5l2,0C529.4,126,530,125.8,530.3,125.5z"/>
	<path d="M534,118.9h1.1v3.5h4.9v-3.5h1.1v7.8H540v-3.5H535v3.5H534V118.9z"/>
	<path d="M550,118.9v7.8h-1v-2.6h-2.5h-0.3l-1.8,2.6h-1.1l2-2.7c-0.6-0.2-1.1-0.5-1.4-0.9c-0.3-0.4-0.5-0.9-0.5-1.5
		c0-0.9,0.3-1.5,0.9-2c0.6-0.5,1.4-0.7,2.4-0.7H550z M546.7,123.4h2.4v-3.5h-2.3c-1.5,0-2.3,0.6-2.3,1.8
		C544.5,122.8,545.2,123.4,546.7,123.4z"/>
	<path d="M490.2,136v13h-1.8v-11.4h-2.9V136H490.2z"/>
	<path d="M501,141.6c0.7,0.3,1.2,0.8,1.6,1.4c0.4,0.6,0.6,1.3,0.6,2.1c0,0.8-0.2,1.5-0.6,2.2c-0.4,0.6-1,1.1-1.7,1.4
		c-0.7,0.3-1.5,0.5-2.4,0.5c-1.7,0-3.1-0.6-4-1.7c-0.9-1.1-1.4-2.7-1.4-4.8c0-1.5,0.3-2.7,0.8-3.7c0.5-1,1.2-1.8,2.2-2.3
		c0.9-0.5,2-0.8,3.2-0.8c0.6,0,1.2,0.1,1.8,0.2c0.6,0.1,1,0.3,1.5,0.6l-0.7,1.5c-0.6-0.4-1.5-0.6-2.5-0.6c-1.4,0-2.4,0.4-3.2,1.3
		c-0.8,0.8-1.2,2.1-1.2,3.7c0,0.2,0,0.4,0,0.5c0.4-0.6,0.9-1,1.5-1.3c0.7-0.3,1.4-0.4,2.2-0.4C499.6,141.1,500.3,141.3,501,141.6z
		 M500.6,147c0.5-0.5,0.8-1.1,0.8-1.8c0-0.8-0.3-1.4-0.8-1.8c-0.5-0.5-1.3-0.7-2.2-0.7c-0.6,0-1.1,0.1-1.6,0.3
		c-0.5,0.2-0.8,0.5-1.1,0.9c-0.3,0.4-0.4,0.8-0.4,1.3c0,0.5,0.1,0.9,0.4,1.3c0.2,0.4,0.6,0.7,1.1,0.9s1,0.3,1.7,0.3
		C499.3,147.7,500,147.5,500.6,147z"/>
	<path d="M506.9,147c0.2,0.2,0.3,0.5,0.3,0.9c0,0.2,0,0.4-0.1,0.5c0,0.2-0.1,0.4-0.3,0.8l-0.9,2.6h-1.2l0.7-2.8
		c-0.2-0.1-0.4-0.2-0.6-0.4c-0.1-0.2-0.2-0.4-0.2-0.7c0-0.4,0.1-0.7,0.4-0.9c0.2-0.2,0.5-0.4,0.9-0.4
		C506.4,146.6,506.6,146.7,506.9,147z"/>
	<path d="M517.1,142.7c0.7,0.7,1,1.5,1,2.5c0,0.7-0.2,1.4-0.6,2c-0.4,0.6-0.9,1.1-1.7,1.4c-0.7,0.4-1.6,0.5-2.7,0.5
		c-0.9,0-1.8-0.1-2.7-0.4c-0.9-0.3-1.6-0.7-2.1-1.2l0.9-1.5c0.4,0.4,1,0.8,1.7,1c0.7,0.3,1.4,0.4,2.2,0.4c1,0,1.7-0.2,2.3-0.6
		c0.5-0.4,0.8-1,0.8-1.7s-0.3-1.3-0.8-1.7s-1.3-0.6-2.4-0.6h-1v-1.3l3.3-4H509V136h8.6v1.3l-3.4,4.2
		C515.4,141.6,516.4,142,517.1,142.7z"/>
</g>
<g>
	<path d="M499.1,507.8h-2.5v3.2h-1.8v-3.2h-7.2v-1.3l6.7-8.5h2l-6.4,8.2h5v-2.8h1.7v2.8h2.5V507.8z"/>
	<path d="M502.7,508.9c0.2,0.2,0.3,0.5,0.3,0.9c0,0.2,0,0.4-0.1,0.5c0,0.2-0.1,0.4-0.3,0.8l-0.9,2.6h-1.2l0.7-2.8
		c-0.2-0.1-0.4-0.2-0.6-0.4c-0.1-0.2-0.2-0.4-0.2-0.7c0-0.4,0.1-0.7,0.4-0.9c0.2-0.2,0.5-0.4,0.9-0.4
		C502.2,508.6,502.5,508.7,502.7,508.9z"/>
	<path d="M516,507.8h-2.5v3.2h-1.8v-3.2h-7.2v-1.3l6.7-8.5h2l-6.4,8.2h5v-2.8h1.7v2.8h2.5V507.8z"/>
</g>
<g>
	<path d="M455,415.2h-2.5v3.2h-1.8v-3.2h-7.2v-1.3l6.7-8.5h2l-6.4,8.2h5v-2.8h1.7v2.8h2.5V415.2z"/>
	<path d="M458.6,416.4c0.2,0.2,0.3,0.5,0.3,0.9c0,0.2,0,0.4-0.1,0.5c0,0.2-0.1,0.4-0.3,0.8l-0.9,2.6h-1.2l0.7-2.8
		c-0.2-0.1-0.4-0.2-0.6-0.4c-0.1-0.2-0.2-0.4-0.2-0.7c0-0.4,0.1-0.7,0.4-0.9c0.2-0.2,0.5-0.4,0.9-0.4
		C458.1,416,458.3,416.1,458.6,416.4z"/>
	<path d="M470,416.8v1.6h-9.4v-1.3l5.3-5.1c0.6-0.6,1.1-1.2,1.3-1.6c0.2-0.5,0.3-0.9,0.3-1.4c0-0.7-0.2-1.2-0.7-1.6
		c-0.5-0.4-1.2-0.6-2.1-0.6c-1.4,0-2.5,0.5-3.3,1.4l-1.3-1.1c0.5-0.6,1.2-1.1,2-1.5c0.8-0.3,1.7-0.5,2.8-0.5c1.4,0,2.4,0.3,3.3,1
		s1.2,1.5,1.2,2.7c0,0.7-0.1,1.4-0.4,2s-0.9,1.3-1.7,2.1l-4,3.8H470z"/>
</g>
<g>
	<path d="M275,413.3c0.9,0.7,1.3,1.7,1.3,2.9c0,0.8-0.2,1.5-0.5,2.1c-0.4,0.6-0.9,1.1-1.7,1.5c-0.7,0.4-1.6,0.5-2.7,0.5
		c-0.9,0-1.8-0.1-2.7-0.4s-1.6-0.7-2.1-1.2l0.9-1.5c0.4,0.4,1,0.8,1.7,1c0.7,0.3,1.4,0.4,2.2,0.4c1,0,1.7-0.2,2.3-0.6
		c0.5-0.4,0.8-1,0.8-1.7c0-0.8-0.3-1.4-0.9-1.8c-0.6-0.4-1.6-0.6-3.1-0.6h-3l0.7-6.8h7.3v1.6h-5.8l-0.4,3.6h1.5
		C272.8,412.3,274.1,412.6,275,413.3z"/>
	<path d="M280,418c0.2,0.2,0.3,0.5,0.3,0.9c0,0.2,0,0.4-0.1,0.5c0,0.2-0.1,0.4-0.3,0.8l-0.9,2.6h-1.2l0.7-2.8
		c-0.2-0.1-0.4-0.2-0.6-0.4c-0.1-0.2-0.2-0.4-0.2-0.7c0-0.4,0.1-0.7,0.4-0.9c0.2-0.2,0.5-0.4,0.9-0.4
		C279.4,417.7,279.7,417.8,280,418z"/>
	<path d="M289.8,412.7c0.7,0.3,1.2,0.8,1.6,1.4c0.4,0.6,0.6,1.3,0.6,2.1c0,0.8-0.2,1.5-0.6,2.2c-0.4,0.6-1,1.1-1.7,1.4
		c-0.7,0.3-1.5,0.5-2.4,0.5c-1.7,0-3.1-0.6-4-1.7s-1.4-2.7-1.4-4.8c0-1.5,0.3-2.7,0.8-3.7c0.5-1,1.2-1.8,2.2-2.3
		c0.9-0.5,2-0.8,3.2-0.8c0.6,0,1.2,0.1,1.8,0.2c0.6,0.1,1,0.3,1.5,0.6l-0.7,1.5c-0.6-0.4-1.5-0.6-2.5-0.6c-1.4,0-2.4,0.4-3.2,1.3
		c-0.8,0.8-1.2,2.1-1.2,3.7c0,0.2,0,0.4,0,0.5c0.4-0.6,0.9-1,1.5-1.3c0.7-0.3,1.4-0.4,2.2-0.4C288.3,412.2,289.1,412.4,289.8,412.7z
		 M289.3,418.1c0.5-0.5,0.8-1.1,0.8-1.8c0-0.8-0.3-1.4-0.8-1.8c-0.5-0.5-1.3-0.7-2.2-0.7c-0.6,0-1.1,0.1-1.6,0.3
		c-0.5,0.2-0.8,0.5-1.1,0.9c-0.3,0.4-0.4,0.8-0.4,1.3c0,0.5,0.1,0.9,0.4,1.3c0.2,0.4,0.6,0.7,1.1,0.9c0.5,0.2,1,0.3,1.7,0.3
		C288.1,418.7,288.8,418.5,289.3,418.1z"/>
</g>
<g>
	<path d="M92.1,407.2v1.6h-9.4v-1.3l5.3-5.1c0.6-0.6,1.1-1.2,1.3-1.6c0.2-0.5,0.3-0.9,0.3-1.4c0-0.7-0.2-1.2-0.7-1.6
		c-0.5-0.4-1.2-0.6-2.1-0.6c-1.4,0-2.5,0.5-3.3,1.4l-1.3-1.1c0.5-0.6,1.2-1.1,2-1.5c0.8-0.3,1.7-0.5,2.8-0.5c1.4,0,2.4,0.3,3.3,1
		s1.2,1.5,1.2,2.7c0,0.7-0.1,1.4-0.4,2c-0.3,0.6-0.9,1.3-1.7,2.1l-4,3.8H92.1z"/>
	<path d="M95.9,406.7c0.2,0.2,0.3,0.5,0.3,0.9c0,0.2,0,0.4-0.1,0.5c0,0.2-0.1,0.4-0.3,0.8l-0.9,2.6h-1.2l0.7-2.8
		c-0.2-0.1-0.4-0.2-0.6-0.4c-0.1-0.2-0.2-0.4-0.2-0.7c0-0.4,0.1-0.7,0.4-0.9c0.2-0.2,0.5-0.4,0.9-0.4
		C95.4,406.4,95.7,406.5,95.9,406.7z"/>
	<path d="M107.2,395.8v1.3l-5.3,11.8h-2l5.2-11.4h-6v2.3h-1.8v-3.9H107.2z"/>
</g>
<g>
	<path d="M92.3,61.2c0.7,0.7,1,1.5,1,2.5c0,0.7-0.2,1.4-0.6,2c-0.4,0.6-0.9,1.1-1.7,1.4c-0.7,0.4-1.6,0.5-2.7,0.5
		c-0.9,0-1.8-0.1-2.7-0.4c-0.9-0.3-1.6-0.7-2.1-1.2l0.9-1.5c0.4,0.4,1,0.8,1.7,1c0.7,0.3,1.4,0.4,2.2,0.4c1,0,1.7-0.2,2.3-0.6
		c0.5-0.4,0.8-1,0.8-1.7s-0.3-1.3-0.8-1.7s-1.3-0.6-2.4-0.6h-1v-1.3l3.3-4h-6.3v-1.6h8.6v1.3L89.4,60C90.7,60.2,91.7,60.5,92.3,61.2
		z"/>
	<path d="M97.2,65.5c0.2,0.2,0.3,0.5,0.3,0.9c0,0.2,0,0.4-0.1,0.5c0,0.2-0.1,0.4-0.3,0.8l-0.9,2.6h-1.2l0.7-2.8
		c-0.2-0.1-0.4-0.2-0.6-0.4c-0.1-0.2-0.2-0.4-0.2-0.7c0-0.4,0.1-0.7,0.4-0.9c0.2-0.2,0.5-0.4,0.9-0.4C96.7,65.1,97,65.3,97.2,65.5z"
		/>
	<path d="M108.6,66v1.6h-9.4v-1.3l5.3-5.1c0.6-0.6,1.1-1.2,1.3-1.6c0.2-0.5,0.3-0.9,0.3-1.4c0-0.7-0.2-1.2-0.7-1.6
		c-0.5-0.4-1.2-0.6-2.1-0.6c-1.4,0-2.5,0.5-3.3,1.4l-1.3-1.1c0.5-0.6,1.2-1.1,2-1.5c0.8-0.3,1.7-0.5,2.8-0.5c1.4,0,2.4,0.3,3.3,1
		c0.8,0.7,1.2,1.5,1.2,2.7c0,0.7-0.1,1.4-0.4,2c-0.3,0.6-0.9,1.3-1.7,2.1l-4,3.8H108.6z"/>
</g>
<g>
	<path d="M672.2,62.3c0.7,0.7,1,1.5,1,2.5c0,0.7-0.2,1.4-0.6,2c-0.4,0.6-0.9,1.1-1.7,1.4c-0.7,0.4-1.6,0.5-2.7,0.5
		c-0.9,0-1.8-0.1-2.7-0.4c-0.9-0.3-1.6-0.7-2.1-1.2l0.9-1.5c0.4,0.4,1,0.8,1.7,1c0.7,0.3,1.4,0.4,2.2,0.4c1,0,1.7-0.2,2.3-0.6
		c0.5-0.4,0.8-1,0.8-1.7s-0.3-1.3-0.8-1.7s-1.3-0.6-2.4-0.6h-1v-1.3l3.3-4h-6.3v-1.6h8.6v1.3l-3.4,4.2
		C670.6,61.2,671.5,61.6,672.2,62.3z"/>
	<path d="M677.1,66.6c0.2,0.2,0.3,0.5,0.3,0.9c0,0.2,0,0.4-0.1,0.5c0,0.2-0.1,0.4-0.3,0.8l-0.9,2.6H675l0.7-2.8
		c-0.2-0.1-0.4-0.2-0.6-0.4c-0.1-0.2-0.2-0.4-0.2-0.7c0-0.4,0.1-0.7,0.4-0.9c0.2-0.2,0.5-0.4,0.9-0.4
		C676.5,66.2,676.8,66.3,677.1,66.6z"/>
	<path d="M688.5,67v1.6h-9.4v-1.3l5.3-5.1c0.6-0.6,1.1-1.2,1.3-1.6c0.2-0.5,0.3-0.9,0.3-1.4c0-0.7-0.2-1.2-0.7-1.6
		c-0.5-0.4-1.2-0.6-2.1-0.6c-1.4,0-2.5,0.5-3.3,1.4l-1.3-1.1c0.5-0.6,1.2-1.1,2-1.5c0.8-0.3,1.7-0.5,2.8-0.5c1.4,0,2.4,0.3,3.3,1
		c0.8,0.7,1.2,1.5,1.2,2.7c0,0.7-0.1,1.4-0.4,2s-0.9,1.3-1.7,2.1l-4,3.8H688.5z"/>
</g>
<g>
	<path fill="#F1F2F2" stroke="#848484" stroke-miterlimit="10" d="M304.7,450.6c-0.3-3.1-0.4-11.8,4-18.1c3.8-5.5,10.8-9.9,14-11.1
		h63.8v29.2h-63.8C316.7,450.6,310.7,450.6,304.7,450.6z M322.8,421.5v29.2"/>
	
		<rect x="376.3" y="447.5" transform="matrix(1.752192e-12 1 -1 1.752192e-12 826.9681 70.679)" fill="#F1F2F2" stroke="#848484" stroke-miterlimit="10" width="3.6" height="2.6"/>
	
		<rect x="360.6" y="447.5" transform="matrix(1.501726e-12 1 -1 1.501726e-12 811.2057 86.4415)" fill="#F1F2F2" stroke="#848484" stroke-miterlimit="10" width="3.6" height="2.6"/>
	
		<rect x="345" y="447.5" transform="matrix(2.753169e-12 1 -1 2.753169e-12 795.6045 102.0427)" fill="#F1F2F2" stroke="#848484" stroke-miterlimit="10" width="3.6" height="2.6"/>
	
		<rect x="329.2" y="447.5" transform="matrix(2.002659e-12 1 -1 2.002659e-12 779.842 117.8051)" fill="#F1F2F2" stroke="#848484" stroke-miterlimit="10" width="3.6" height="2.6"/>
	
		<rect x="377.8" y="447.2" transform="matrix(-1.836970e-16 1 -1 -1.836970e-16 828.4969 72.2078)" fill="#F1F2F2" stroke="#848484" stroke-miterlimit="10" width="0.6" height="6.3"/>
	
		<rect x="362.1" y="447.2" transform="matrix(4.504657e-12 1 -1 4.504657e-12 812.799 87.9057)" fill="#F1F2F2" stroke="#848484" stroke-miterlimit="10" width="0.6" height="6.3"/>
	
		<rect x="346.5" y="447.2" transform="matrix(3.003636e-12 1 -1 3.003636e-12 797.1332 103.5714)" fill="#F1F2F2" stroke="#848484" stroke-miterlimit="10" width="0.6" height="6.3"/>
	
		<rect x="330.7" y="447.2" transform="matrix(4.504657e-12 1 -1 4.504657e-12 781.3708 119.3339)" fill="#F1F2F2" stroke="#848484" stroke-miterlimit="10" width="0.6" height="6.3"/>
</g>
<g>
</g>
<g>
</g>
<g>
</g>
<g>
</g>
<g>
</g>
<g>
</g>
</svg>
