<?xml version="1.0" encoding="utf-8"?>
<!-- Generator: Adobe Illustrator 23.0.2, SVG Export Plug-In . SVG Version: 6.00 Build 0)  -->
<svg version="1.1" id="Слой_1" xmlns="http://www.w3.org/2000/svg" xmlns:xlink="http://www.w3.org/1999/xlink" x="0px" y="0px"
	 viewBox="0 0 800 778.1" enable-background="new 0 0 800 778.1" xml:space="preserve">
<rect x="734.4" y="280.2" fill="#F3F3F3" stroke="#838383" width="44.9" height="202"/>
<g id="moyka_2_8_">
	<path fill="#F3F3F3" stroke="#838383" d="M772,289.9c1.3,0,2.3,1,2.3,2.3v33.2c0,1.3-1,2.3-2.3,2.3h-27.5c-1.3,0-2.3-1-2.3-2.3
		v-33.2c0-1.3,1-2.3,2.3-2.3H772z"/>
	<path fill="#F3F3F3" stroke="#838383" d="M766.3,292.2c1.3,0,2.3,1,2.3,2.3v28.6c0,1.3-1,2.3-2.3,2.3h-19.5c-1.3,0-2.3-1-2.3-2.3
		v-28.6c0-1.3,1-2.3,2.3-2.3H766.3z"/>
	<rect x="761.7" y="307.1" fill="#F3F3F3" stroke="#838383" width="9.2" height="2.3"/>
	<circle fill="#F3F3F3" stroke="#838383" cx="755.4" cy="308.8" r="1.7"/>
</g>
<g id="plita_8_">
	<rect x="735.9" y="348.6" fill="#F3F3F3" stroke="#838383" width="41.2" height="40.1"/>
	<circle fill="#F3F3F3" stroke="#838383" cx="746.3" cy="377.2" r="6.9"/>
	<circle fill="#F3F3F3" stroke="#838383" cx="763.4" cy="360.1" r="6.9"/>
	<circle fill="#F3F3F3" stroke="#838383" cx="746.3" cy="360.1" r="5.7"/>
	<circle fill="#F3F3F3" stroke="#838383" cx="763.4" cy="377.2" r="5.7"/>
</g>
<g id="unitaz_8_">
	<path fill="#F3F3F3" stroke="#838383" d="M440.8,21.6v8c0,1.3,1,2.3,2.3,2.3h20.6c1.3,0,2.3-1,2.3-2.3v-8H440.8z"/>
	<path fill="#F3F3F3" stroke="#838383" d="M443.1,31.9c-1.3,0-2.3,1-2.3,2.3H466c0-1.3-1-2.3-2.3-2.3H443.1z"/>
	<path fill="#F3F3F3" stroke="#838383" d="M466,34.2h-25.2c0,0-5.2,29.8,12.6,29.8C471.2,64,466,34.2,466,34.2z"/>
	<circle fill="#F3F3F3" stroke="#838383" cx="453.4" cy="26.2" r="2.3"/>
</g>
<g id="moyka_8_">
	<path fill="#F3F3F3" stroke="#838383" d="M373.6,22.2c-0.7,0-1.2,0.6-1.2,1.2v25c0,0.7,0.6,1.2,1.2,1.2h37.5c0.7,0,1.2-0.6,1.2-1.2
		v-25c0-0.7-0.6-1.2-1.2-1.2H373.6z"/>
	<rect x="372.4" y="25.9" fill="#F3F3F3" stroke="#838383" width="40" height="2.5"/>
	<ellipse fill="#F3F3F3" stroke="#838383" cx="393" cy="39.1" rx="13.1" ry="8.1"/>
	<rect x="391.1" y="25.9" fill="#F3F3F3" stroke="#838383" width="2.5" height="10"/>
	<circle fill="#F3F3F3" stroke="#838383" cx="391.7" cy="40.3" r="1.9"/>
</g>
<g id="stirka_7_">
	<rect x="474.1" y="100.7" fill="#F3F3F3" stroke="#838383" width="34.3" height="34.3"/>
	<path fill="#F3F3F3" stroke="#838383" d="M505.1,103c-1.3,0-2.3,1-2.3,2.3v8c0,1.3,1,2.3,2.3,2.3h3.4V103H505.1z"/>
	<circle fill="#F3F3F3" stroke="#838383" cx="490.2" cy="117.8" r="9.2"/>
	<circle fill="#F3F3F3" stroke="#838383" cx="490.2" cy="117.8" r="6.9"/>
	<circle fill="#F3F3F3" stroke="#838383" cx="502.8" cy="129.3" r="2.3"/>
</g>
<g id="vanna_7_">
	<rect x="313.2" y="22.2" fill="#F3F3F3" stroke="#838383" width="43.5" height="111.1"/>
	<path fill="#F3F3F3" stroke="#838383" d="M341.8,126.4c6.3,0,11.4-5.1,11.4-11.4V38.2h-36.6v76.7c0,6.3,5.1,11.4,11.4,11.4H341.8z"
		/>
	<path fill="#F3F3F3" stroke="#838383" d="M333.8,36.5h-9.2v-4h15.5"/>
	<path id="Union_7_" fill="#F3F3F3" stroke="#838383" d="M342,31.4c0.5-1.3,1.7-2.3,3.2-2.3c1.9,0,3.4,1.5,3.4,3.4
		c0,1.9-1.5,3.4-3.4,3.4c-1.5,0-2.8-1-3.2-2.3h-1.3c-0.6,0-1.1-0.5-1.1-1.1c0-0.6,0.5-1.1,1.1-1.1H342z"/>
	<rect x="333.8" y="34.8" fill="#F3F3F3" stroke="#838383" width="2.3" height="9.2"/>
</g>
<g id="unitaz_10_">
	<path fill="#F3F3F3" stroke="#838383" d="M776.6,220.4h-8c-1.3,0-2.3-1-2.3-2.3v-20.6c0-1.3,1-2.3,2.3-2.3h8V220.4z"/>
	<path fill="#F3F3F3" stroke="#838383" d="M766.3,218.1c0,1.3-1,2.3-2.3,2.3v-25.2c1.3,0,2.3,1,2.3,2.3V218.1z"/>
	<path fill="#F3F3F3" stroke="#838383" d="M764.1,195.2v25.2c0,0-29.8,5.2-29.8-12.6C734.3,190,764.1,195.2,764.1,195.2z"/>
	<circle fill="#F3F3F3" stroke="#838383" cx="772.1" cy="207.8" r="2.3"/>
</g>
<g id="moyka_10_">
	<path fill="#F3F3F3" stroke="#838383" d="M724.5,143.2c0.7,0,1.2,0.6,1.2,1.2v25c0,0.7-0.6,1.2-1.2,1.2H687c-0.7,0-1.2-0.6-1.2-1.2
		v-25c0-0.7,0.6-1.2,1.2-1.2H724.5z"/>
	<rect x="685.8" y="147" fill="#F3F3F3" stroke="#838383" width="40" height="2.5"/>
	<ellipse fill="#F3F3F3" stroke="#838383" cx="705.1" cy="160.1" rx="13.1" ry="8.1"/>
	<rect x="704.5" y="147" fill="#F3F3F3" stroke="#838383" width="2.5" height="10"/>
	<circle fill="#F3F3F3" stroke="#838383" cx="706.4" cy="161.3" r="1.9"/>
</g>
<rect x="31.5" y="72.1" fill="#FFFFFF" stroke="#000000" stroke-miterlimit="10" width="4.9" height="101.3"/>
<rect x="31.5" y="72.1" fill="#FFFFFF" stroke="#000000" stroke-miterlimit="10" width="4.9" height="9.2"/>
<rect x="31.5" y="163.4" fill="#FFFFFF" stroke="#000000" stroke-miterlimit="10" width="4.9" height="9.9"/>
<rect x="31.5" y="120" fill="#FFFFFF" stroke="#000000" stroke-miterlimit="10" width="4.9" height="4.9"/>
<rect x="36.4" y="71.4" fill="#FFFFFF" stroke="#000000" stroke-miterlimit="10" width="9.8" height="101.9"/>
<rect x="22.3" y="76" fill="#FFFFFF" stroke="#000000" stroke-miterlimit="10" width="9.2" height="92.2"/>
<rect x="31.5" y="263.7" fill="#FFFFFF" stroke="#000000" stroke-miterlimit="10" width="4.9" height="101.3"/>
<rect x="36.4" y="263.7" fill="#FFFFFF" stroke="#000000" stroke-miterlimit="10" width="9.8" height="101.3"/>
<rect x="22.3" y="268" fill="#FFFFFF" stroke="#000000" stroke-miterlimit="10" width="9.2" height="91.8"/>
<rect x="32.1" y="263.7" fill="#FFFFFF" stroke="#000000" stroke-miterlimit="10" width="4.3" height="9.3"/>
<rect x="31.5" y="311.4" fill="#FFFFFF" stroke="#000000" stroke-miterlimit="10" width="4.9" height="4.9"/>
<rect x="31.5" y="355.2" fill="#FFFFFF" stroke="#000000" stroke-miterlimit="10" width="4.9" height="9.8"/>
<rect x="31.5" y="455" fill="#FFFFFF" stroke="#000000" stroke-miterlimit="10" width="4.7" height="98.3"/>
<rect x="36.2" y="455" fill="#FFFFFF" stroke="#000000" stroke-miterlimit="10" width="9.9" height="98.3"/>
<rect x="22.3" y="457.4" fill="#FFFFFF" stroke="#000000" stroke-miterlimit="10" width="9.2" height="94"/>
<rect x="31.5" y="455" fill="#FFFFFF" stroke="#000000" stroke-miterlimit="10" width="4.7" height="7.3"/>
<rect x="31.5" y="544.7" fill="#FFFFFF" stroke="#000000" stroke-miterlimit="10" width="4.7" height="8.5"/>
<rect x="31.5" y="502.9" fill="#FFFFFF" stroke="#000000" stroke-miterlimit="10" width="4.7" height="4.7"/>
<rect x="147.6" y="638.7" fill="#FFFFFF" stroke="#000000" stroke-miterlimit="10" width="116" height="4.9"/>
<rect x="147.6" y="626.5" fill="#FFFFFF" stroke="#000000" stroke-miterlimit="10" width="52.5" height="12.2"/>
<rect x="149.7" y="643.6" fill="#FFFFFF" stroke="#000000" stroke-miterlimit="10" width="50.3" height="10.1"/>
<rect x="147.6" y="638.7" fill="#FFFFFF" stroke="#000000" stroke-miterlimit="10" width="4.3" height="4.9"/>
<rect x="197.8" y="638.7" fill="#FFFFFF" stroke="#000000" stroke-miterlimit="10" width="7.8" height="4.9"/>
<rect x="256.2" y="638.7" fill="#FFFFFF" stroke="#000000" stroke-miterlimit="10" width="7.3" height="4.9"/>
<rect x="355.4" y="720" fill="#FFFFFF" stroke="#000000" stroke-miterlimit="10" width="101.6" height="5"/>
<rect x="359" y="725" fill="#FFFFFF" stroke="#000000" stroke-miterlimit="10" width="93.4" height="9.5"/>
<rect x="355.4" y="708" fill="#FFFFFF" stroke="#000000" stroke-miterlimit="10" width="101.6" height="12.1"/>
<rect x="355.4" y="720" fill="#FFFFFF" stroke="#000000" stroke-miterlimit="10" width="10.1" height="5"/>
<rect x="447.2" y="720" fill="#FFFFFF" stroke="#000000" stroke-miterlimit="10" width="9.8" height="5"/>
<rect x="403.9" y="720" fill="#FFFFFF" stroke="#000000" stroke-miterlimit="10" width="5" height="5"/>
<rect x="570.8" y="717.4" fill="#FFFFFF" stroke="#000000" stroke-miterlimit="10" width="163.6" height="7.6"/>
<rect x="570.8" y="717.4" fill="#FFFFFF" stroke="#000000" stroke-miterlimit="10" width="7.9" height="7.6"/>
<rect x="624.2" y="717.4" fill="#FFFFFF" stroke="#000000" stroke-miterlimit="10" width="5.2" height="7.6"/>
<rect x="677.9" y="717.4" fill="#FFFFFF" stroke="#000000" stroke-miterlimit="10" width="3.2" height="7.6"/>
<rect x="728.9" y="717.4" fill="#FFFFFF" stroke="#000000" stroke-miterlimit="10" width="4.9" height="7.6"/>
<rect x="570.8" y="708" fill="#FFFFFF" stroke="#000000" stroke-miterlimit="10" width="163.6" height="9.5"/>
<rect x="576.6" y="725" fill="#FFFFFF" stroke="#000000" stroke-miterlimit="10" width="154.7" height="9.5"/>
<polygon fill="#FFFFFF" stroke="#000000" stroke-miterlimit="10" points="25.5,749.2 25.5,653.6 4.2,653.6 4.2,773.4 21.6,773.4 
	25.5,773.4 285.5,773.4 285.5,749.2 "/>
<rect x="13.3" y="759.3" fill="#FFFFFF" stroke="#000000" stroke-miterlimit="10" width="7.3" height="4.7"/>
<rect x="13.3" y="653.6" fill="#FFFFFF" stroke="#000000" stroke-miterlimit="10" width="7.3" height="105.7"/>
<rect x="15.7" y="653.6" fill="#FFFFFF" stroke="#000000" stroke-miterlimit="10" width="2.5" height="105.7"/>
<rect x="20.6" y="756.6" fill="#FFFFFF" stroke="#000000" stroke-miterlimit="10" width="2.6" height="7.4"/>
<rect x="23.2" y="756.6" transform="matrix(-1 -1.224647e-16 1.224647e-16 -1 308.7325 1520.5021)" fill="#FFFFFF" stroke="#000000" stroke-miterlimit="10" width="262.3" height="7.4"/>
<rect x="23.2" y="759.3" transform="matrix(-1 -1.224647e-16 1.224647e-16 -1 308.7325 1520.9216)" fill="#FFFFFF" stroke="#000000" stroke-miterlimit="10" width="262.3" height="2.3"/>
<line fill="#FFFFFF" stroke="#000000" stroke-miterlimit="10" x1="663.3" y1="186.6" x2="639.3" y2="233.8"/>
<line fill="#FFFFFF" stroke="#000000" stroke-miterlimit="10" x1="617.6" y1="94.9" x2="562" y2="124.7"/>
<line fill="#FFFFFF" stroke="#000000" stroke-miterlimit="10" x1="268.7" y1="167.9" x2="294.9" y2="217.6"/>
<line fill="#FFFFFF" stroke="#000000" stroke-miterlimit="10" x1="450" y1="236.6" x2="405.6" y2="260.6"/>
<line fill="#FFFFFF" stroke="#000000" stroke-miterlimit="10" x1="319.4" y1="452.4" x2="371.5" y2="482.2"/>
<line fill="#FFFFFF" stroke="#000000" stroke-miterlimit="10" x1="304.5" y1="377.5" x2="275.7" y2="428.5"/>
<line fill="#FFFFFF" stroke="#000000" stroke-miterlimit="10" x1="256.2" y1="638.7" x2="209.2" y2="611.8"/>
<line fill="#FFFFFF" stroke="#000000" stroke-miterlimit="10" x1="427.2" y1="144.4" x2="384.8" y2="173.4"/>
<rect x="22.3" y="6.1" fill="#838383" stroke="#000000" stroke-miterlimit="10" width="9.2" height="69.9"/>
<rect x="31.5" y="6.1" fill="#838383" stroke="#000000" stroke-miterlimit="10" width="495.7" height="14.6"/>
<rect x="31.5" y="20.8" fill="#838383" stroke="#000000" stroke-miterlimit="10" width="14.6" height="50.7"/>
<rect x="22.3" y="168.2" fill="#838383" stroke="#000000" stroke-miterlimit="10" width="9.2" height="99.8"/>
<rect x="31.5" y="173.4" fill="#838383" stroke="#000000" stroke-miterlimit="10" width="14.6" height="90.3"/>
<rect x="22.3" y="359.8" fill="#838383" stroke="#000000" stroke-miterlimit="10" width="9.2" height="97.6"/>
<rect x="31.5" y="365" fill="#838383" stroke="#000000" stroke-miterlimit="10" width="14.6" height="90"/>
<rect x="46.1" y="369.6" fill="#838383" stroke="#000000" stroke-miterlimit="10" width="34.5" height="34.5"/>
<rect x="22.3" y="551.4" fill="#838383" stroke="#000000" stroke-miterlimit="10" width="9.2" height="75.1"/>
<rect x="31.5" y="553.3" fill="#838383" stroke="#000000" stroke-miterlimit="10" width="14.6" height="73.2"/>
<rect x="4.2" y="643.6" fill="#838383" stroke="#000000" stroke-miterlimit="10" width="145.6" height="10.1"/>
<rect x="4.2" y="626.5" fill="#838383" stroke="#000000" stroke-miterlimit="10" width="143.4" height="17.1"/>
<rect x="263.5" y="626.5" fill="#838383" stroke="#000000" stroke-miterlimit="10" width="31.4" height="17.1"/>
<rect x="258.6" y="643.6" fill="#838383" stroke="#000000" stroke-miterlimit="10" width="36.3" height="10.1"/>
<rect x="295" y="626.5" fill="#838383" stroke="#000000" stroke-miterlimit="10" width="15.3" height="146.3"/>
<rect x="285.5" y="653.6" fill="#838383" stroke="#000000" stroke-miterlimit="10" width="9.5" height="119.2"/>
<rect x="310.2" y="725" fill="#838383" stroke="#000000" stroke-miterlimit="10" width="48.8" height="9.5"/>
<rect x="310.2" y="708" fill="#838383" stroke="#000000" stroke-miterlimit="10" width="45.2" height="17.1"/>
<rect x="452.4" y="725" fill="#838383" stroke="#000000" stroke-miterlimit="10" width="124.2" height="9.5"/>
<rect x="457" y="708" fill="#838383" stroke="#000000" stroke-miterlimit="10" width="113.8" height="17.1"/>
<rect x="731.3" y="725" fill="#838383" stroke="#000000" stroke-miterlimit="10" width="47.9" height="9.5"/>
<rect x="734.4" y="708" fill="#838383" stroke="#000000" stroke-miterlimit="10" width="44.9" height="17.1"/>
<rect x="496.3" y="626.5" fill="#838383" stroke="#000000" stroke-miterlimit="10" width="30.8" height="31.4"/>
<rect x="508.6" y="657.9" fill="#838383" stroke="#000000" stroke-miterlimit="10" width="18.6" height="50"/>
<rect x="779.2" y="124.7" fill="#838383" stroke="#000000" stroke-miterlimit="10" width="15" height="648.1"/>
<rect x="512.8" y="20.8" fill="#838383" stroke="#000000" stroke-miterlimit="10" width="14.3" height="123.6"/>
<rect x="294.7" y="260.9" fill="#838383" stroke="#000000" stroke-miterlimit="10" width="15.6" height="116.4"/>
<rect x="512.8" y="260.6" fill="#838383" stroke="#000000" stroke-miterlimit="10" width="14.3" height="116.9"/>
<rect x="663.3" y="124.7" fill="#838383" stroke="#000000" stroke-miterlimit="10" width="116" height="12.4"/>
<rect x="626.5" y="124.7" transform="matrix(-1 -1.224647e-16 1.224647e-16 -1 1289.7483 269.0584)" fill="#838383" stroke="#000000" stroke-miterlimit="10" width="36.8" height="19.7"/>
<rect x="527.2" y="124.7" transform="matrix(-1 -1.224647e-16 1.224647e-16 -1 1089.1206 269.0584)" fill="#838383" stroke="#000000" stroke-miterlimit="10" width="34.8" height="19.7"/>
<rect x="4.2" y="604.2" fill="#838383" stroke="#000000" stroke-miterlimit="10" width="18.2" height="22.3"/>
<rect x="310.2" y="734.5" fill="#838383" stroke="#000000" stroke-miterlimit="10" width="11.2" height="38.3"/>
<rect x="770.7" y="734.5" fill="#838383" stroke="#000000" stroke-miterlimit="10" width="8.5" height="38.3"/>
<rect x="304.8" y="21.4" fill="#C6C6C6" stroke="#000000" stroke-miterlimit="10" width="6" height="115.8"/>
<rect x="294.7" y="20.8" fill="#C6C6C6" stroke="#000000" stroke-miterlimit="10" width="7.8" height="137.8"/>
<rect x="294.7" y="217.6" fill="#C6C6C6" stroke="#000000" stroke-miterlimit="10" width="7.8" height="43"/>
<rect x="427.2" y="136.6" fill="#C6C6C6" stroke="#000000" stroke-miterlimit="10" width="85.7" height="7.8"/>
<rect x="302.4" y="136.6" fill="#C6C6C6" stroke="#000000" stroke-miterlimit="10" width="75.1" height="7.8"/>
<rect x="478.9" y="87.8" fill="#C6C6C6" stroke="#000000" stroke-miterlimit="10" width="33.9" height="6"/>
<rect x="478.9" y="40.2" fill="#C6C6C6" stroke="#000000" stroke-miterlimit="10" width="6" height="47.6"/>
<rect x="478.9" y="20.8" fill="#C6C6C6" stroke="#000000" stroke-miterlimit="10" width="2.5" height="19.5"/>
<rect x="455.5" y="260.6" fill="#C6C6C6" stroke="#000000" stroke-miterlimit="10" width="57.3" height="7.8"/>
<rect x="391.7" y="369.6" fill="#C6C6C6" stroke="#000000" stroke-miterlimit="10" width="121.1" height="7.8"/>
<rect x="384.8" y="260.6" fill="#C6C6C6" stroke="#000000" stroke-miterlimit="10" width="20.8" height="7.8"/>
<rect x="384.8" y="268.4" fill="#C6C6C6" stroke="#000000" stroke-miterlimit="10" width="7.8" height="177.1"/>
<rect x="377.5" y="445.5" fill="#C6C6C6" stroke="#000000" stroke-miterlimit="10" width="15.1" height="7.8"/>
<rect x="80.6" y="369.6" fill="#C6C6C6" stroke="#000000" stroke-miterlimit="10" width="214.1" height="7.8"/>
<rect x="310.2" y="445.5" fill="#C6C6C6" stroke="#000000" stroke-miterlimit="10" width="9.2" height="7.8"/>
<rect x="302.4" y="435" fill="#C6C6C6" stroke="#000000" stroke-miterlimit="10" width="7.8" height="191.5"/>
<rect x="663.3" y="238.2" fill="#C6C6C6" stroke="#000000" stroke-miterlimit="10" width="7.8" height="42"/>
<rect x="663.3" y="137" fill="#C6C6C6" stroke="#000000" stroke-miterlimit="10" width="7.8" height="49.6"/>
<rect x="671" y="272.4" fill="#C6C6C6" stroke="#000000" stroke-miterlimit="10" width="108.2" height="7.8"/>
<rect x="671" y="241.9" fill="#C6C6C6" stroke="#000000" stroke-miterlimit="10" width="89" height="6"/>
<rect x="760.1" y="241.9" fill="#C6C6C6" stroke="#000000" stroke-miterlimit="10" width="19.1" height="2.3"/>
<rect x="671" y="137" fill="#C6C6C6" stroke="#000000" stroke-miterlimit="10" width="108.2" height="6"/>
<rect x="460.6" y="283.4" fill="#C6C6C6" stroke="#000000" stroke-miterlimit="10" width="52.3" height="6"/>
<rect x="460.6" y="268.4" fill="#C6C6C6" stroke="#000000" stroke-miterlimit="10" width="6" height="15"/>
<rect x="519.4" y="377.3" fill="#C6C6C6" stroke="#000000" stroke-miterlimit="10" width="7.8" height="249.1"/>
<g>
	<path d="M74,230.5c-0.9-0.5-1.6-1.2-2.1-2.1s-0.8-1.9-0.8-3c0-1.1,0.3-2.1,0.8-3c0.5-0.9,1.2-1.6,2.1-2.1c0.9-0.5,1.9-0.7,3.1-0.7
		c0.8,0,1.6,0.1,2.3,0.4s1.3,0.7,1.8,1.2l-0.8,0.8c-0.9-0.9-2-1.4-3.4-1.4c-0.9,0-1.7,0.2-2.5,0.6c-0.7,0.4-1.3,1-1.7,1.7
		s-0.6,1.5-0.6,2.4c0,0.9,0.2,1.7,0.6,2.4s1,1.3,1.7,1.7c0.7,0.4,1.6,0.6,2.5,0.6c1.4,0,2.5-0.5,3.4-1.4l0.8,0.8
		c-0.5,0.5-1.1,1-1.8,1.2c-0.7,0.3-1.5,0.4-2.4,0.4C75.9,231.2,74.9,231,74,230.5z"/>
	<path d="M91.2,222.6v8.6H90v-7.5h-5.4v7.5h-1.2v-8.6H91.2z"/>
	<path d="M100,223.3c0.6,0.6,0.9,1.4,0.9,2.5v5.3h-1.1v-1.3c-0.3,0.4-0.6,0.8-1.1,1s-1.1,0.4-1.8,0.4c-1,0-1.7-0.2-2.3-0.7
		c-0.6-0.5-0.8-1.1-0.8-1.8c0-0.7,0.3-1.3,0.8-1.8s1.4-0.7,2.5-0.7h2.7v-0.5c0-0.7-0.2-1.3-0.6-1.7c-0.4-0.4-1-0.6-1.8-0.6
		c-0.5,0-1.1,0.1-1.6,0.3c-0.5,0.2-0.9,0.4-1.3,0.7l-0.5-0.9c0.4-0.4,1-0.7,1.6-0.9c0.6-0.2,1.2-0.3,1.9-0.3
		C98.5,222.5,99.4,222.8,100,223.3z M98.7,229.9c0.5-0.3,0.8-0.7,1-1.3v-1.4H97c-1.5,0-2.2,0.5-2.2,1.5c0,0.5,0.2,0.9,0.6,1.2
		c0.4,0.3,0.9,0.4,1.6,0.4C97.7,230.3,98.2,230.2,98.7,229.9z"/>
	<path d="M111,222.6v8.6h-1.2v-7.5h-4.1l-0.1,2.1c-0.1,1.8-0.3,3.2-0.6,4.1s-0.9,1.4-1.7,1.4c-0.2,0-0.5,0-0.8-0.1l0.1-1
		c0.2,0,0.3,0.1,0.4,0.1c0.4,0,0.8-0.2,1-0.6c0.2-0.4,0.4-0.9,0.5-1.5c0.1-0.6,0.1-1.4,0.2-2.4l0.1-3.1H111z"/>
	<path d="M120.4,226.3c0.6,0.5,0.8,1.1,0.8,2c0,0.9-0.3,1.6-0.9,2.1c-0.6,0.5-1.5,0.7-2.6,0.7l-3.5,0v-8.6h1.2v3l2.5,0
		C119,225.6,119.8,225.8,120.4,226.3z M119.5,229.8c0.4-0.3,0.6-0.8,0.6-1.5c0-0.6-0.2-1.1-0.6-1.4c-0.4-0.3-1-0.5-1.8-0.5l-2.2,0
		v3.8l2.2,0C118.4,230.3,119,230.1,119.5,229.8z"/>
	<path d="M123.4,222.6h1.2v3.8h5.4v-3.8h1.2v8.6H130v-3.8h-5.4v3.8h-1.2V222.6z"/>
	<path d="M141,222.6v8.6H140v-2.8h-2.7H137l-2,2.8h-1.3l2.1-3c-0.7-0.2-1.2-0.5-1.5-0.9c-0.4-0.4-0.5-1-0.5-1.7c0-1,0.3-1.7,1-2.2
		c0.7-0.5,1.5-0.8,2.7-0.8H141z M137.4,227.4h2.6v-3.8h-2.5c-1.7,0-2.5,0.6-2.5,1.9C135,226.8,135.8,227.4,137.4,227.4z"/>
	<path d="M81.2,253.8v1.8H70.9v-1.4l5.8-5.6c0.7-0.7,1.2-1.3,1.4-1.8c0.2-0.5,0.4-1,0.4-1.5c0-0.7-0.3-1.3-0.8-1.7
		c-0.5-0.4-1.3-0.6-2.3-0.6c-1.6,0-2.8,0.5-3.6,1.5l-1.4-1.2c0.6-0.7,1.3-1.2,2.2-1.6c0.9-0.4,1.9-0.6,3-0.6c1.5,0,2.7,0.4,3.6,1.1
		c0.9,0.7,1.3,1.7,1.3,2.9c0,0.8-0.2,1.5-0.5,2.2c-0.3,0.7-0.9,1.5-1.9,2.3l-4.4,4.2H81.2z"/>
	<path d="M85.6,254.9c-0.9-0.6-1.6-1.4-2.1-2.5s-0.8-2.4-0.8-3.9s0.3-2.8,0.8-3.9s1.2-1.9,2.1-2.5c0.9-0.6,1.9-0.9,3-0.9
		c1.1,0,2.1,0.3,3,0.9c0.9,0.6,1.6,1.4,2.1,2.5s0.8,2.4,0.8,3.9s-0.3,2.8-0.8,3.9s-1.2,1.9-2.1,2.5c-0.9,0.6-1.9,0.9-3,0.9
		C87.5,255.8,86.5,255.5,85.6,254.9z M91.3,252.5c0.7-0.9,1-2.3,1-4.1s-0.3-3.1-1-4.1s-1.6-1.4-2.7-1.4c-1.2,0-2.1,0.5-2.8,1.4
		s-1,2.3-1,4.1s0.3,3.1,1,4.1s1.6,1.4,2.8,1.4C89.7,253.9,90.6,253.5,91.3,252.5z"/>
	<path d="M98.4,253.3c0.3,0.3,0.4,0.6,0.4,1c0,0.2,0,0.4-0.1,0.6c0,0.2-0.1,0.5-0.3,0.9l-1,2.8h-1.3l0.8-3c-0.3-0.1-0.5-0.3-0.6-0.5
		c-0.2-0.2-0.2-0.5-0.2-0.8c0-0.4,0.1-0.7,0.4-1c0.3-0.3,0.6-0.4,1-0.4C97.9,252.9,98.2,253.1,98.4,253.3z"/>
	<path d="M109.3,248.2c1,0.8,1.4,1.8,1.4,3.1c0,0.8-0.2,1.6-0.6,2.3c-0.4,0.7-1,1.2-1.8,1.6s-1.8,0.6-3,0.6c-1,0-2-0.2-2.9-0.5
		s-1.7-0.7-2.3-1.3l0.9-1.6c0.5,0.5,1.1,0.8,1.9,1.1c0.8,0.3,1.6,0.4,2.4,0.4c1.1,0,1.9-0.2,2.5-0.7c0.6-0.5,0.9-1.1,0.9-1.9
		c0-0.9-0.3-1.5-1-1.9c-0.7-0.4-1.8-0.7-3.3-0.7h-3.2l0.8-7.5h8v1.8h-6.3l-0.4,3.9h1.6C106.9,247,108.3,247.4,109.3,248.2z"/>
</g>
<g>
	<path d="M629.9,499.2h-2.6v5.2h-1.2V493h1.2v5.1h2.6l3.9-5.1h1.3l-4.2,5.5l4.5,5.9h-1.4L629.9,499.2z"/>
	<path d="M644.2,495.9l-4.3,9.6c-0.3,0.8-0.8,1.4-1.2,1.7c-0.5,0.3-1,0.5-1.6,0.5c-0.4,0-0.8-0.1-1.2-0.2c-0.4-0.1-0.7-0.3-0.9-0.6
		l0.5-0.9c0.4,0.4,1,0.7,1.6,0.7c0.4,0,0.7-0.1,1-0.3c0.3-0.2,0.5-0.6,0.8-1.1l0.4-0.8l-3.8-8.6h1.2l3.2,7.3l3.2-7.3H644.2z"/>
	<path d="M650.9,504.4l-2.7-3.6l-2.7,3.6h-1.3l3.4-4.4l-3.2-4.2h1.3l2.6,3.4l2.6-3.4h1.3l-3.2,4.2l3.4,4.4H650.9z"/>
	<path d="M654.1,495.9h1.2v3.8h5.4v-3.8h1.2v8.6h-1.2v-3.8h-5.4v3.8h-1.2V495.9z"/>
	<path d="M671.7,495.9v8.6h-1.1v-2.8h-2.7h-0.3l-2,2.8h-1.3l2.1-3c-0.7-0.2-1.2-0.5-1.5-0.9c-0.4-0.4-0.5-1-0.5-1.7
		c0-1,0.3-1.7,1-2.2s1.5-0.8,2.7-0.8H671.7z M668,500.7h2.6v-3.8h-2.5c-1.7,0-2.5,0.6-2.5,1.9C665.6,500.1,666.4,500.7,668,500.7z"
		/>
	<path d="M674.3,499.5h4.3v1h-4.3V499.5z"/>
	<path d="M627.2,523.5c-0.7-0.4-1.2-0.9-1.6-1.6c-0.4-0.7-0.6-1.4-0.6-2.3s0.2-1.6,0.6-2.3c0.4-0.7,0.9-1.2,1.6-1.5
		c0.7-0.4,1.4-0.6,2.3-0.6c0.7,0,1.4,0.1,2,0.4c0.6,0.3,1,0.7,1.4,1.3l-0.9,0.6c-0.3-0.4-0.6-0.7-1.1-1s-0.9-0.3-1.4-0.3
		c-0.6,0-1.2,0.1-1.7,0.4c-0.5,0.3-0.9,0.7-1.2,1.2c-0.3,0.5-0.4,1.1-0.4,1.7c0,0.7,0.1,1.2,0.4,1.8c0.3,0.5,0.7,0.9,1.2,1.2
		c0.5,0.3,1.1,0.4,1.7,0.4c0.5,0,1-0.1,1.4-0.3c0.4-0.2,0.8-0.5,1.1-0.9l0.9,0.6c-0.3,0.6-0.8,1-1.4,1.3s-1.2,0.4-2,0.4
		C628.6,524.1,627.8,523.9,627.2,523.5z"/>
	<path d="M640.9,516.4h-3.2v7.5h-1.2v-7.5h-3.2v-1h7.6V516.4z"/>
	<path d="M643.5,523.5c-0.7-0.4-1.2-0.9-1.6-1.6c-0.4-0.7-0.6-1.4-0.6-2.2s0.2-1.6,0.6-2.3c0.4-0.7,0.9-1.2,1.6-1.5
		c0.7-0.4,1.4-0.6,2.2-0.6c0.8,0,1.6,0.2,2.2,0.6c0.7,0.4,1.2,0.9,1.6,1.5s0.6,1.4,0.6,2.3s-0.2,1.6-0.6,2.2
		c-0.4,0.7-0.9,1.2-1.6,1.6c-0.7,0.4-1.4,0.6-2.2,0.6C644.9,524.1,644.1,523.9,643.5,523.5z M647.4,522.6c0.5-0.3,0.9-0.7,1.1-1.2
		c0.3-0.5,0.4-1.1,0.4-1.7c0-0.7-0.1-1.2-0.4-1.7c-0.3-0.5-0.7-0.9-1.1-1.2s-1-0.4-1.6-0.4c-0.6,0-1.2,0.1-1.6,0.4s-0.9,0.7-1.1,1.2
		c-0.3,0.5-0.4,1.1-0.4,1.7c0,0.7,0.1,1.2,0.4,1.7c0.3,0.5,0.7,0.9,1.1,1.2s1,0.4,1.6,0.4C646.3,523,646.9,522.9,647.4,522.6z"/>
	<path d="M659.5,515.4v8.6h-1.2v-7.5h-4.1l-0.1,2.1c-0.1,1.8-0.3,3.2-0.6,4.1s-0.9,1.4-1.7,1.4c-0.2,0-0.5,0-0.8-0.1l0.1-1
		c0.2,0,0.3,0.1,0.4,0.1c0.4,0,0.8-0.2,1-0.6c0.2-0.4,0.4-0.9,0.5-1.5c0.1-0.6,0.1-1.4,0.2-2.4l0.1-3.1H659.5z"/>
	<path d="M664.1,523.5c-0.7-0.4-1.2-0.9-1.6-1.6c-0.4-0.7-0.6-1.4-0.6-2.2s0.2-1.6,0.6-2.3c0.4-0.7,0.9-1.2,1.6-1.5
		c0.7-0.4,1.4-0.6,2.2-0.6c0.8,0,1.6,0.2,2.2,0.6c0.7,0.4,1.2,0.9,1.6,1.5s0.6,1.4,0.6,2.3s-0.2,1.6-0.6,2.2
		c-0.4,0.7-0.9,1.2-1.6,1.6c-0.7,0.4-1.4,0.6-2.2,0.6C665.5,524.1,664.8,523.9,664.1,523.5z M668,522.6c0.5-0.3,0.9-0.7,1.1-1.2
		c0.3-0.5,0.4-1.1,0.4-1.7c0-0.7-0.1-1.2-0.4-1.7c-0.3-0.5-0.7-0.9-1.1-1.2s-1-0.4-1.6-0.4c-0.6,0-1.2,0.1-1.6,0.4s-0.9,0.7-1.1,1.2
		c-0.3,0.5-0.4,1.1-0.4,1.7c0,0.7,0.1,1.2,0.4,1.7c0.3,0.5,0.7,0.9,1.1,1.2s1,0.4,1.6,0.4C667,523,667.5,522.9,668,522.6z"/>
	<path d="M680.4,521.7c0,0.8-0.3,1.3-0.8,1.7c-0.6,0.4-1.4,0.6-2.5,0.6h-3.9v-8.6h3.8c1,0,1.7,0.2,2.3,0.6c0.6,0.4,0.8,0.9,0.8,1.6
		c0,0.5-0.1,0.9-0.4,1.2c-0.3,0.3-0.6,0.6-1.1,0.7C679.8,519.8,680.4,520.5,680.4,521.7z M674.3,519.2h2.6c0.7,0,1.2-0.1,1.5-0.4
		c0.4-0.2,0.5-0.6,0.5-1.1s-0.2-0.8-0.5-1.1c-0.4-0.2-0.9-0.4-1.5-0.4h-2.6V519.2z M678.7,522.7c0.4-0.2,0.6-0.6,0.6-1.1
		s-0.2-0.9-0.5-1.1c-0.3-0.2-0.9-0.4-1.6-0.4h-2.8v3h2.7C677.8,523.1,678.3,523,678.7,522.7z"/>
	<path d="M688.6,516.2c0.6,0.6,0.9,1.4,0.9,2.5v5.3h-1.1v-1.3c-0.3,0.4-0.6,0.8-1.1,1c-0.5,0.3-1.1,0.4-1.8,0.4
		c-1,0-1.7-0.2-2.3-0.7c-0.6-0.5-0.8-1.1-0.8-1.8c0-0.7,0.3-1.3,0.8-1.8c0.5-0.4,1.4-0.7,2.5-0.7h2.7v-0.5c0-0.7-0.2-1.3-0.6-1.7
		s-1-0.6-1.8-0.6c-0.5,0-1.1,0.1-1.6,0.3c-0.5,0.2-0.9,0.4-1.3,0.7l-0.5-0.9c0.4-0.4,1-0.7,1.6-0.9c0.6-0.2,1.2-0.3,1.9-0.3
		C687.2,515.4,688,515.6,688.6,516.2z M687.3,522.7c0.5-0.3,0.8-0.7,1-1.3V520h-2.7c-1.5,0-2.2,0.5-2.2,1.5c0,0.5,0.2,0.9,0.6,1.2
		c0.4,0.3,0.9,0.4,1.6,0.4C686.3,523.2,686.8,523,687.3,522.7z"/>
	<path d="M699.2,515.4v8.6h-1.1v-2.8h-2.7h-0.3l-2,2.8h-1.3l2.1-3c-0.7-0.2-1.2-0.5-1.5-0.9c-0.4-0.4-0.5-1-0.5-1.7
		c0-1,0.3-1.7,1-2.2s1.5-0.8,2.7-0.8H699.2z M695.5,520.3h2.6v-3.8h-2.5c-1.7,0-2.5,0.6-2.5,1.9
		C693.1,519.7,693.9,520.3,695.5,520.3z"/>
	<path d="M635.2,546.7v1.8H625v-1.4l5.8-5.6c0.7-0.7,1.2-1.3,1.4-1.8s0.4-1,0.4-1.5c0-0.7-0.3-1.3-0.8-1.7s-1.3-0.6-2.3-0.6
		c-1.6,0-2.8,0.5-3.6,1.5l-1.4-1.2c0.6-0.7,1.3-1.2,2.2-1.6c0.9-0.4,1.9-0.6,3-0.6c1.5,0,2.7,0.4,3.6,1.1c0.9,0.7,1.3,1.7,1.3,2.9
		c0,0.8-0.2,1.5-0.5,2.2c-0.3,0.7-0.9,1.5-1.9,2.3l-4.4,4.2H635.2z"/>
	<path d="M645.5,540.3c0.7,0.4,1.3,0.9,1.7,1.5c0.4,0.7,0.6,1.4,0.6,2.3c0,0.9-0.2,1.7-0.7,2.4s-1,1.2-1.8,1.6
		c-0.8,0.4-1.6,0.6-2.6,0.6c-1.9,0-3.4-0.6-4.4-1.9s-1.6-3-1.6-5.3c0-1.6,0.3-2.9,0.8-4.1c0.6-1.1,1.4-2,2.4-2.5s2.2-0.9,3.5-0.9
		c0.7,0,1.3,0.1,2,0.2s1.1,0.4,1.6,0.6l-0.8,1.6c-0.7-0.4-1.6-0.7-2.7-0.7c-1.5,0-2.6,0.5-3.5,1.4c-0.8,0.9-1.3,2.3-1.3,4
		c0,0.2,0,0.4,0,0.5c0.4-0.6,1-1.1,1.7-1.4c0.7-0.3,1.5-0.5,2.4-0.5C643.9,539.8,644.7,540,645.5,540.3z M645,546.2
		c0.6-0.5,0.9-1.2,0.9-2c0-0.8-0.3-1.5-0.9-2c-0.6-0.5-1.4-0.7-2.4-0.7c-0.6,0-1.2,0.1-1.7,0.4c-0.5,0.2-0.9,0.6-1.2,1
		s-0.4,0.9-0.4,1.4c0,0.5,0.1,1,0.4,1.4c0.3,0.4,0.7,0.7,1.2,1c0.5,0.3,1.1,0.4,1.8,0.4C643.7,547,644.4,546.7,645,546.2z"/>
	<path d="M651.9,546.2c0.3,0.3,0.4,0.6,0.4,1c0,0.2,0,0.4-0.1,0.6c0,0.2-0.1,0.5-0.3,0.9l-1,2.8h-1.3l0.8-3
		c-0.3-0.1-0.5-0.3-0.6-0.5c-0.2-0.2-0.2-0.5-0.2-0.8c0-0.4,0.1-0.7,0.4-1s0.6-0.4,1-0.4C651.3,545.8,651.7,545.9,651.9,546.2z"/>
	<path d="M656.8,547.7c-0.9-0.6-1.6-1.4-2.1-2.5c-0.5-1.1-0.8-2.4-0.8-3.9c0-1.5,0.3-2.8,0.8-3.9c0.5-1.1,1.2-1.9,2.1-2.5
		c0.9-0.6,1.9-0.9,3-0.9c1.1,0,2.1,0.3,3,0.9c0.9,0.6,1.6,1.4,2.1,2.5c0.5,1.1,0.8,2.4,0.8,3.9c0,1.5-0.3,2.8-0.8,3.9
		c-0.5,1.1-1.2,1.9-2.1,2.5c-0.9,0.6-1.9,0.9-3,0.9C658.7,548.6,657.7,548.3,656.8,547.7z M662.5,545.4c0.7-0.9,1-2.3,1-4.1
		c0-1.8-0.3-3.1-1-4.1c-0.7-0.9-1.6-1.4-2.7-1.4c-1.2,0-2.1,0.5-2.8,1.4c-0.7,0.9-1,2.3-1,4.1c0,1.8,0.3,3.1,1,4.1
		c0.7,0.9,1.6,1.4,2.8,1.4C660.9,546.8,661.9,546.3,662.5,545.4z"/>
</g>
<g>
	<path d="M169.7,440.4c-0.9-0.5-1.6-1.2-2.1-2.1s-0.8-1.9-0.8-3s0.3-2.1,0.8-3s1.2-1.6,2.1-2.1s1.9-0.8,3.1-0.8
		c0.8,0,1.6,0.1,2.3,0.4c0.7,0.3,1.3,0.7,1.8,1.2l-0.8,0.8c-0.9-0.9-2-1.4-3.4-1.4c-0.9,0-1.7,0.2-2.5,0.6c-0.7,0.4-1.3,1-1.7,1.7
		c-0.4,0.7-0.6,1.5-0.6,2.4c0,0.9,0.2,1.7,0.6,2.4c0.4,0.7,1,1.3,1.7,1.7c0.7,0.4,1.6,0.6,2.5,0.6c1.4,0,2.5-0.5,3.4-1.4l0.8,0.8
		c-0.5,0.5-1.1,1-1.8,1.2c-0.7,0.3-1.5,0.4-2.4,0.4C171.6,441.2,170.6,440.9,169.7,440.4z"/>
	<path d="M186.8,432.5v8.6h-1.2v-7.5h-5.4v7.5h-1.2v-8.6H186.8z"/>
	<path d="M195.6,433.3c0.6,0.6,0.9,1.4,0.9,2.5v5.3h-1.1v-1.3c-0.3,0.4-0.6,0.8-1.1,1s-1.1,0.4-1.8,0.4c-1,0-1.7-0.2-2.3-0.7
		c-0.6-0.5-0.8-1.1-0.8-1.8c0-0.7,0.3-1.3,0.8-1.8c0.5-0.4,1.4-0.7,2.5-0.7h2.7v-0.5c0-0.7-0.2-1.3-0.6-1.7c-0.4-0.4-1-0.6-1.8-0.6
		c-0.5,0-1.1,0.1-1.6,0.3c-0.5,0.2-0.9,0.4-1.3,0.7l-0.5-0.9c0.4-0.4,1-0.7,1.6-0.9c0.6-0.2,1.2-0.3,1.9-0.3
		C194.2,432.4,195,432.7,195.6,433.3z M194.3,439.8c0.5-0.3,0.8-0.7,1-1.3v-1.4h-2.7c-1.5,0-2.2,0.5-2.2,1.5c0,0.5,0.2,0.9,0.6,1.2
		c0.4,0.3,0.9,0.4,1.6,0.4C193.3,440.2,193.9,440.1,194.3,439.8z"/>
	<path d="M206.6,432.5v8.6h-1.2v-7.5h-4.1l-0.1,2.1c-0.1,1.8-0.3,3.2-0.6,4.1s-0.9,1.4-1.7,1.4c-0.2,0-0.5,0-0.8-0.1l0.1-1
		c0.2,0,0.3,0.1,0.4,0.1c0.4,0,0.8-0.2,1-0.6c0.2-0.4,0.4-0.9,0.5-1.5c0.1-0.6,0.1-1.4,0.2-2.4l0.1-3.1H206.6z"/>
	<path d="M216.1,436.2c0.6,0.5,0.8,1.1,0.8,2c0,0.9-0.3,1.6-0.9,2.1s-1.5,0.7-2.6,0.7l-3.5,0v-8.6h1.2v3l2.5,0
		C214.7,435.5,215.5,435.8,216.1,436.2z M215.1,439.7c0.4-0.3,0.6-0.8,0.6-1.5c0-0.6-0.2-1.1-0.6-1.4c-0.4-0.3-1-0.5-1.8-0.5l-2.2,0
		v3.8l2.2,0C214.1,440.2,214.7,440,215.1,439.7z"/>
	<path d="M219.1,432.5h1.2v3.8h5.4v-3.8h1.2v8.6h-1.2v-3.8h-5.4v3.8h-1.2V432.5z"/>
	<path d="M236.7,432.5v8.6h-1.1v-2.8h-2.7h-0.3l-2,2.8h-1.3l2.1-3c-0.7-0.2-1.2-0.5-1.5-0.9c-0.4-0.4-0.5-1-0.5-1.7
		c0-1,0.3-1.7,1-2.2c0.7-0.5,1.5-0.8,2.7-0.8H236.7z M233,437.4h2.6v-3.8h-2.5c-1.7,0-2.5,0.6-2.5,1.9
		C230.6,436.7,231.4,437.4,233,437.4z"/>
	<path d="M171.2,451.2v14.3h-2V453H166v-1.8H171.2z"/>
	<path d="M182.9,458.1c1,0.8,1.4,1.8,1.4,3.1c0,0.8-0.2,1.6-0.6,2.3c-0.4,0.7-1,1.2-1.8,1.6c-0.8,0.4-1.8,0.6-3,0.6
		c-1,0-2-0.2-2.9-0.5s-1.7-0.7-2.3-1.3l0.9-1.6c0.5,0.5,1.1,0.8,1.9,1.1c0.8,0.3,1.6,0.4,2.4,0.4c1.1,0,1.9-0.2,2.5-0.7
		s0.9-1.1,0.9-1.9c0-0.9-0.3-1.5-1-1.9c-0.7-0.4-1.8-0.7-3.3-0.7h-3.2l0.8-7.5h8v1.8h-6.3l-0.4,3.9h1.6
		C180.4,456.9,181.9,457.3,182.9,458.1z"/>
	<path d="M188.3,463.2c0.3,0.3,0.4,0.6,0.4,1c0,0.2,0,0.4-0.1,0.6c0,0.2-0.1,0.5-0.3,0.9l-1,2.8h-1.3l0.8-3
		c-0.3-0.1-0.5-0.3-0.6-0.5c-0.2-0.2-0.2-0.5-0.2-0.8c0-0.4,0.1-0.7,0.4-1c0.3-0.3,0.6-0.4,1-0.4C187.8,462.8,188.1,463,188.3,463.2
		z"/>
	<path d="M200.9,463.7v1.8h-10.3v-1.4l5.8-5.6c0.7-0.7,1.2-1.3,1.4-1.8s0.4-1,0.4-1.5c0-0.7-0.3-1.3-0.8-1.7s-1.3-0.6-2.3-0.6
		c-1.6,0-2.8,0.5-3.6,1.5l-1.4-1.2c0.6-0.7,1.3-1.2,2.2-1.6c0.9-0.4,1.9-0.6,3-0.6c1.5,0,2.7,0.4,3.6,1.1c0.9,0.7,1.3,1.7,1.3,2.9
		c0,0.8-0.2,1.5-0.5,2.2c-0.3,0.7-0.9,1.5-1.9,2.3l-4.4,4.2H200.9z"/>
</g>
<g>
	<path d="M416.2,444.9c-0.9-0.5-1.6-1.2-2.1-2.1c-0.5-0.9-0.8-1.9-0.8-3s0.3-2.1,0.8-3c0.5-0.9,1.2-1.6,2.1-2.1s1.9-0.8,3.1-0.8
		c0.8,0,1.6,0.1,2.3,0.4c0.7,0.3,1.3,0.7,1.8,1.2l-0.8,0.8c-0.9-0.9-2-1.4-3.4-1.4c-0.9,0-1.7,0.2-2.5,0.6c-0.7,0.4-1.3,1-1.7,1.7
		c-0.4,0.7-0.6,1.5-0.6,2.4c0,0.9,0.2,1.7,0.6,2.4c0.4,0.7,1,1.3,1.7,1.7c0.7,0.4,1.6,0.6,2.5,0.6c1.4,0,2.5-0.5,3.4-1.4l0.8,0.8
		c-0.5,0.5-1.1,1-1.8,1.2c-0.7,0.3-1.5,0.4-2.4,0.4C418.1,445.6,417.1,445.4,416.2,444.9z"/>
	<path d="M433.4,437v8.6h-1.2V438h-5.4v7.5h-1.2V437H433.4z"/>
	<path d="M442.2,437.7c0.6,0.6,0.9,1.4,0.9,2.5v5.3H442v-1.3c-0.3,0.4-0.6,0.8-1.1,1c-0.5,0.3-1.1,0.4-1.8,0.4c-1,0-1.7-0.2-2.3-0.7
		c-0.6-0.5-0.8-1.1-0.8-1.8c0-0.7,0.3-1.3,0.8-1.8c0.5-0.4,1.4-0.7,2.5-0.7h2.7v-0.5c0-0.7-0.2-1.3-0.6-1.7s-1-0.6-1.8-0.6
		c-0.5,0-1.1,0.1-1.6,0.3c-0.5,0.2-0.9,0.4-1.3,0.7l-0.5-0.9c0.4-0.4,1-0.7,1.6-0.9s1.3-0.3,1.9-0.3
		C440.7,436.9,441.6,437.2,442.2,437.7z M440.9,444.3c0.5-0.3,0.8-0.7,1-1.3v-1.4h-2.7c-1.5,0-2.2,0.5-2.2,1.5
		c0,0.5,0.2,0.9,0.6,1.2c0.4,0.3,0.9,0.4,1.6,0.4C439.9,444.7,440.4,444.6,440.9,444.3z"/>
	<path d="M453.2,437v8.6H452V438h-4.1l-0.1,2.1c-0.1,1.8-0.3,3.2-0.6,4.1s-0.9,1.4-1.7,1.4c-0.2,0-0.5,0-0.8-0.1l0.1-1
		c0.2,0,0.3,0.1,0.4,0.1c0.4,0,0.8-0.2,1-0.6c0.2-0.4,0.4-0.9,0.5-1.5c0.1-0.6,0.1-1.4,0.2-2.4l0.1-3.1H453.2z"/>
	<path d="M462.6,440.7c0.6,0.5,0.8,1.1,0.8,2c0,0.9-0.3,1.6-0.9,2.1c-0.6,0.5-1.5,0.7-2.6,0.7l-3.5,0V437h1.2v3l2.5,0
		C461.2,440,462,440.2,462.6,440.7z M461.7,444.2c0.4-0.3,0.6-0.8,0.6-1.5c0-0.6-0.2-1.1-0.6-1.4c-0.4-0.3-1-0.5-1.8-0.5l-2.2,0v3.8
		l2.2,0C460.7,444.7,461.3,444.5,461.7,444.2z"/>
	<path d="M465.6,437h1.2v3.8h5.4V437h1.2v8.6h-1.2v-3.8h-5.4v3.8h-1.2V437z"/>
	<path d="M483.2,437v8.6h-1.1v-2.8h-2.7h-0.3l-2,2.8h-1.3l2.1-3c-0.7-0.2-1.2-0.5-1.5-0.9c-0.4-0.4-0.5-1-0.5-1.7c0-1,0.3-1.7,1-2.2
		c0.7-0.5,1.5-0.8,2.7-0.8H483.2z M479.6,441.8h2.6V438h-2.5c-1.7,0-2.5,0.6-2.5,1.9C477.2,441.2,478,441.8,479.6,441.8z"/>
	<path d="M417.8,455.7V470h-2v-12.5h-3.2v-1.8H417.8z"/>
	<path d="M433.3,466.5h-2.7v3.5h-2v-3.5h-7.9v-1.4l7.3-9.3h2.2l-7,9h5.5v-3.1h1.9v3.1h2.7V466.5z"/>
	<path d="M437.2,467.7c0.3,0.3,0.4,0.6,0.4,1c0,0.2,0,0.4-0.1,0.6c0,0.2-0.1,0.5-0.3,0.9l-1,2.8H435l0.8-3c-0.3-0.1-0.5-0.3-0.6-0.5
		c-0.2-0.2-0.2-0.5-0.2-0.8c0-0.4,0.1-0.7,0.4-1c0.3-0.3,0.6-0.4,1-0.4C436.7,467.3,437,467.5,437.2,467.7z"/>
	<path d="M448.1,462.6c1,0.8,1.4,1.8,1.4,3.1c0,0.8-0.2,1.6-0.6,2.3c-0.4,0.7-1,1.2-1.8,1.6c-0.8,0.4-1.8,0.6-3,0.6
		c-1,0-2-0.2-2.9-0.5s-1.7-0.7-2.3-1.3l0.9-1.6c0.5,0.5,1.1,0.8,1.9,1.1c0.8,0.3,1.6,0.4,2.4,0.4c1.1,0,1.9-0.2,2.5-0.7
		s0.9-1.1,0.9-1.9c0-0.9-0.3-1.5-1-1.9c-0.7-0.4-1.8-0.7-3.3-0.7h-3.2l0.8-7.5h8v1.8h-6.3l-0.4,3.9h1.6
		C445.7,461.4,447.2,461.8,448.1,462.6z"/>
</g>
<g>
	<path d="M423.5,104.9h-2.7v3.5h-2v-3.5h-7.9v-1.4l7.3-9.3h2.2l-7,9h5.5v-3.1h1.9v3.1h2.7V104.9z"/>
	<path d="M427.4,106.1c0.3,0.3,0.4,0.6,0.4,1c0,0.2,0,0.4-0.1,0.6c0,0.2-0.1,0.5-0.3,0.9l-1,2.8h-1.3l0.8-3
		c-0.3-0.1-0.5-0.3-0.6-0.5c-0.2-0.2-0.2-0.5-0.2-0.8c0-0.4,0.1-0.7,0.4-1c0.3-0.3,0.6-0.4,1-0.4
		C426.9,105.7,427.2,105.9,427.4,106.1z"/>
	<path d="M440.5,102.3c0.4,0.6,0.7,1.3,0.7,2.1c0,0.9-0.2,1.6-0.7,2.2c-0.5,0.6-1.1,1.1-2,1.5c-0.9,0.3-1.9,0.5-3,0.5
		c-1.1,0-2.1-0.2-3-0.5c-0.8-0.3-1.5-0.8-2-1.5c-0.5-0.6-0.7-1.4-0.7-2.2c0-0.8,0.2-1.5,0.6-2.1c0.4-0.6,1-1,1.9-1.3
		c-0.7-0.3-1.1-0.7-1.5-1.2c-0.3-0.5-0.5-1.1-0.5-1.8c0-0.8,0.2-1.5,0.6-2.1c0.4-0.6,1-1,1.8-1.3s1.7-0.5,2.7-0.5
		c1,0,1.9,0.2,2.7,0.5s1.4,0.8,1.8,1.3c0.4,0.6,0.6,1.3,0.6,2.1c0,0.7-0.2,1.3-0.5,1.8c-0.3,0.5-0.8,0.9-1.5,1.3
		C439.5,101.2,440.1,101.7,440.5,102.3z M438.2,106.2c0.7-0.5,1-1.1,1-1.9c0-0.8-0.3-1.4-1-1.9s-1.5-0.7-2.7-0.7
		c-1.1,0-2,0.2-2.6,0.7s-1,1.1-1,1.9c0,0.8,0.3,1.4,1,1.9c0.6,0.5,1.5,0.7,2.6,0.7C436.6,106.9,437.5,106.7,438.2,106.2z
		 M433.2,96.3c-0.6,0.4-0.8,1-0.8,1.7s0.3,1.3,0.8,1.7c0.5,0.4,1.3,0.6,2.3,0.6c1,0,1.8-0.2,2.3-0.6c0.6-0.4,0.8-1,0.8-1.7
		s-0.3-1.3-0.9-1.7s-1.3-0.6-2.3-0.6C434.5,95.6,433.8,95.8,433.2,96.3z"/>
</g>
<g>
	<path d="M550.2,214.6h-2.7v3.5h-2v-3.5h-7.9v-1.4l7.3-9.3h2.2l-7,9h5.5v-3.1h1.9v3.1h2.7V214.6z"/>
	<path d="M554.1,215.8c0.3,0.3,0.4,0.6,0.4,1c0,0.2,0,0.4-0.1,0.6c0,0.2-0.1,0.5-0.3,0.9l-1,2.8h-1.3l0.8-3
		c-0.3-0.1-0.5-0.3-0.6-0.5c-0.2-0.2-0.2-0.5-0.2-0.8c0-0.4,0.1-0.7,0.4-1c0.3-0.3,0.6-0.4,1-0.4
		C553.6,215.4,553.9,215.5,554.1,215.8z"/>
	<path d="M559,217.4c-0.9-0.6-1.6-1.4-2.1-2.5c-0.5-1.1-0.8-2.4-0.8-3.9s0.3-2.8,0.8-3.9c0.5-1.1,1.2-1.9,2.1-2.5
		c0.9-0.6,1.9-0.9,3-0.9c1.1,0,2.1,0.3,3,0.9c0.9,0.6,1.6,1.4,2.1,2.5c0.5,1.1,0.8,2.4,0.8,3.9s-0.3,2.8-0.8,3.9
		c-0.5,1.1-1.2,1.9-2.1,2.5c-0.9,0.6-1.9,0.9-3,0.9C560.9,218.2,559.9,217.9,559,217.4z M564.8,215c0.7-0.9,1-2.3,1-4.1
		s-0.3-3.1-1-4.1c-0.7-0.9-1.6-1.4-2.7-1.4c-1.2,0-2.1,0.5-2.8,1.4c-0.7,0.9-1,2.3-1,4.1s0.3,3.1,1,4.1c0.7,0.9,1.6,1.4,2.8,1.4
		C563.2,216.4,564.1,215.9,564.8,215z"/>
</g>
<g>
	<path d="M433.9,317.6v1.8h-10.3V318l5.8-5.6c0.7-0.7,1.2-1.3,1.4-1.8c0.2-0.5,0.4-1,0.4-1.5c0-0.7-0.3-1.3-0.8-1.7
		c-0.5-0.4-1.3-0.6-2.3-0.6c-1.6,0-2.8,0.5-3.6,1.5l-1.4-1.2c0.6-0.7,1.3-1.2,2.2-1.6c0.9-0.4,1.9-0.6,3-0.6c1.5,0,2.7,0.4,3.6,1.1
		c0.9,0.7,1.3,1.7,1.3,2.9c0,0.8-0.2,1.5-0.5,2.2c-0.3,0.7-0.9,1.5-1.9,2.3l-4.4,4.2H433.9z"/>
	<path d="M438.1,317.1c0.3,0.3,0.4,0.6,0.4,1c0,0.2,0,0.4-0.1,0.6c0,0.2-0.1,0.5-0.3,0.9l-1,2.8h-1.3l0.8-3
		c-0.3-0.1-0.5-0.3-0.6-0.5c-0.2-0.2-0.2-0.5-0.2-0.8c0-0.4,0.1-0.7,0.4-1s0.6-0.4,1-0.4C437.5,316.7,437.8,316.8,438.1,317.1z"/>
	<path d="M449.4,306.8c1,1.2,1.6,3,1.6,5.3c0,1.6-0.3,2.9-0.8,4.1c-0.6,1.1-1.4,2-2.4,2.5c-1,0.6-2.2,0.9-3.5,0.9
		c-0.7,0-1.3-0.1-2-0.2s-1.1-0.3-1.6-0.6l0.8-1.6c0.7,0.4,1.6,0.7,2.8,0.7c1.5,0,2.6-0.5,3.5-1.4s1.3-2.3,1.3-4v-0.5
		c-0.4,0.6-1,1.1-1.7,1.4c-0.7,0.3-1.5,0.5-2.4,0.5c-0.9,0-1.8-0.2-2.5-0.5s-1.3-0.9-1.7-1.5c-0.4-0.7-0.6-1.4-0.6-2.3
		c0-0.9,0.2-1.7,0.7-2.4c0.4-0.7,1-1.2,1.8-1.6s1.6-0.6,2.6-0.6C446.9,304.9,448.4,305.5,449.4,306.8z M446.9,311.7
		c0.5-0.2,0.9-0.6,1.2-1c0.3-0.4,0.4-0.9,0.4-1.4c0-0.5-0.1-1-0.4-1.4c-0.3-0.4-0.7-0.7-1.2-1c-0.5-0.3-1.1-0.4-1.8-0.4
		c-0.9,0-1.7,0.3-2.3,0.8c-0.6,0.5-0.9,1.2-0.9,2c0,0.8,0.3,1.5,0.9,2s1.4,0.7,2.4,0.7C445.8,312.1,446.4,312,446.9,311.7z"/>
</g>
<g>
	<path d="M697.9,220.2v1.8h-10.3v-1.4l5.8-5.6c0.7-0.7,1.2-1.3,1.4-1.8c0.2-0.5,0.4-1,0.4-1.5c0-0.7-0.3-1.3-0.8-1.7
		c-0.5-0.4-1.3-0.6-2.3-0.6c-1.6,0-2.8,0.5-3.6,1.5l-1.4-1.2c0.6-0.7,1.3-1.2,2.2-1.6s1.9-0.6,3-0.6c1.5,0,2.7,0.4,3.6,1.1
		c0.9,0.7,1.3,1.7,1.3,2.9c0,0.8-0.2,1.5-0.5,2.2c-0.3,0.7-0.9,1.5-1.9,2.3l-4.4,4.2H697.9z"/>
	<path d="M702.1,219.7c0.3,0.3,0.4,0.6,0.4,1c0,0.2,0,0.4-0.1,0.6c0,0.2-0.1,0.5-0.3,0.9l-1,2.8h-1.3l0.8-3
		c-0.3-0.1-0.5-0.3-0.6-0.5c-0.2-0.2-0.2-0.5-0.2-0.8c0-0.4,0.1-0.7,0.4-1c0.3-0.3,0.6-0.4,1-0.4
		C701.6,219.3,701.9,219.4,702.1,219.7z"/>
	<path d="M713,214.5c1,0.8,1.4,1.8,1.4,3.1c0,0.8-0.2,1.6-0.6,2.3c-0.4,0.7-1,1.2-1.8,1.6c-0.8,0.4-1.8,0.6-3,0.6
		c-1,0-2-0.2-2.9-0.5c-0.9-0.3-1.7-0.7-2.3-1.3l0.9-1.6c0.5,0.5,1.1,0.8,1.9,1.1c0.8,0.3,1.6,0.4,2.4,0.4c1.1,0,1.9-0.2,2.5-0.7
		c0.6-0.5,0.9-1.1,0.9-1.9c0-0.9-0.3-1.5-1-1.9c-0.7-0.4-1.8-0.7-3.3-0.7h-3.2l0.8-7.5h8v1.8h-6.3l-0.4,3.9h1.6
		C710.6,213.4,712.1,213.7,713,214.5z"/>
</g>
<g>
	<path d="M155.6,693.2h-2.7v3.5h-2v-3.5H143v-1.4l7.3-9.3h2.2l-7,9h5.5v-3.1h1.9v3.1h2.7V693.2z"/>
	<path d="M159.6,694.4c0.3,0.3,0.4,0.6,0.4,1c0,0.2,0,0.4-0.1,0.6c0,0.2-0.1,0.5-0.3,0.9l-1,2.8h-1.3l0.8-3
		c-0.3-0.1-0.5-0.3-0.6-0.5c-0.2-0.2-0.2-0.5-0.2-0.8c0-0.4,0.1-0.7,0.4-1c0.3-0.3,0.6-0.4,1-0.4C159,694,159.3,694.1,159.6,694.4z"
		/>
	<path d="M170.3,688.5c0.7,0.4,1.3,0.9,1.7,1.5c0.4,0.7,0.6,1.4,0.6,2.3c0,0.9-0.2,1.7-0.7,2.4c-0.4,0.7-1,1.2-1.8,1.6
		c-0.8,0.4-1.6,0.6-2.6,0.6c-1.9,0-3.4-0.6-4.4-1.9c-1-1.2-1.6-3-1.6-5.3c0-1.6,0.3-2.9,0.8-4.1c0.6-1.1,1.4-2,2.4-2.5
		s2.2-0.9,3.5-0.9c0.7,0,1.3,0.1,2,0.2s1.1,0.4,1.6,0.6l-0.8,1.6c-0.7-0.4-1.6-0.7-2.7-0.7c-1.5,0-2.6,0.5-3.5,1.4s-1.3,2.3-1.3,4
		c0,0.2,0,0.4,0,0.5c0.4-0.6,1-1.1,1.7-1.4c0.7-0.3,1.5-0.5,2.4-0.5C168.7,688,169.6,688.2,170.3,688.5z M169.8,694.4
		c0.6-0.5,0.9-1.2,0.9-2c0-0.8-0.3-1.5-0.9-2c-0.6-0.5-1.4-0.7-2.4-0.7c-0.6,0-1.2,0.1-1.7,0.4c-0.5,0.2-0.9,0.6-1.2,1
		c-0.3,0.4-0.4,0.9-0.4,1.4c0,0.5,0.1,1,0.4,1.4c0.3,0.4,0.7,0.7,1.2,1c0.5,0.3,1.1,0.4,1.8,0.4
		C168.5,695.2,169.2,694.9,169.8,694.4z"/>
</g>
<g>
	<path d="M346.3,339c1,1.2,1.6,3,1.6,5.3c0,1.6-0.3,2.9-0.8,4.1c-0.6,1.1-1.4,2-2.4,2.5c-1,0.6-2.2,0.9-3.5,0.9
		c-0.7,0-1.3-0.1-2-0.2s-1.1-0.3-1.6-0.6l0.8-1.6c0.7,0.4,1.6,0.7,2.8,0.7c1.5,0,2.6-0.5,3.5-1.4s1.3-2.3,1.3-4v-0.5
		c-0.4,0.6-1,1.1-1.7,1.4s-1.5,0.5-2.4,0.5c-0.9,0-1.8-0.2-2.5-0.5c-0.7-0.4-1.3-0.9-1.7-1.5c-0.4-0.7-0.6-1.4-0.6-2.3
		c0-0.9,0.2-1.7,0.7-2.4c0.4-0.7,1-1.2,1.8-1.6s1.6-0.6,2.6-0.6C343.8,337.2,345.3,337.8,346.3,339z M343.8,344
		c0.5-0.2,0.9-0.6,1.2-1c0.3-0.4,0.4-0.9,0.4-1.4c0-0.5-0.1-1-0.4-1.4c-0.3-0.4-0.7-0.7-1.2-1c-0.5-0.3-1.1-0.4-1.8-0.4
		c-0.9,0-1.7,0.3-2.3,0.8c-0.6,0.5-0.9,1.2-0.9,2c0,0.8,0.3,1.5,0.9,2s1.4,0.7,2.4,0.7C342.7,344.4,343.3,344.2,343.8,344z"/>
	<path d="M351.9,349.3c0.3,0.3,0.4,0.6,0.4,1c0,0.2,0,0.4-0.1,0.6c0,0.2-0.1,0.5-0.3,0.9l-1,2.8h-1.3l0.8-3
		c-0.3-0.1-0.5-0.3-0.6-0.5c-0.2-0.2-0.2-0.5-0.2-0.8c0-0.4,0.1-0.7,0.4-1c0.3-0.3,0.6-0.4,1-0.4
		C351.3,348.9,351.7,349.1,351.9,349.3z"/>
	<path d="M358.4,337.4v14.3h-2v-12.5h-3.2v-1.8H358.4z"/>
</g>
<g>
	<g>
		
			<rect x="153.1" y="260.1" transform="matrix(-1 -1.224647e-16 1.224647e-16 -1 445.7655 628.5579)" fill-rule="evenodd" clip-rule="evenodd" fill="#F1F2F2" stroke="#848484" stroke-miterlimit="10" width="139.6" height="108.4"/>
		
			<rect x="157" y="262.5" transform="matrix(-1 -1.224647e-16 1.224647e-16 -1 444.1023 628.4441)" fill-rule="evenodd" clip-rule="evenodd" fill="#F1F2F2" stroke="#848484" stroke-miterlimit="10" width="130.2" height="103.4"/>
		
			<rect x="254.4" y="322.7" transform="matrix(-1 -2.479242e-13 2.479242e-13 -1 538.1758 685.5574)" fill-rule="evenodd" clip-rule="evenodd" fill="#F1F2F2" stroke="#848484" stroke-miterlimit="10" width="29.4" height="40.2"/>
		
			<rect x="254.4" y="265.9" transform="matrix(-1 -1.240234e-13 1.240234e-13 -1 538.1758 571.9283)" fill-rule="evenodd" clip-rule="evenodd" fill="#F1F2F2" stroke="#848484" stroke-miterlimit="10" width="29.4" height="40.2"/>
		<polygon fill-rule="evenodd" clip-rule="evenodd" fill="#F1F2F2" stroke="#848484" stroke-miterlimit="10" points="239.4,365.9 
			257.4,335.1 257.4,293.4 257.4,335.1 257.4,293.4 239.4,262.5 157,262.5 157,262.6 157,365.9 		"/>
		<polyline fill-rule="evenodd" clip-rule="evenodd" fill="#F1F2F2" stroke="#848484" stroke-miterlimit="10" points="239.4,365.9 
			226.3,344.3 257.4,335.1 		"/>
		
			<line fill-rule="evenodd" clip-rule="evenodd" fill="#F1F2F2" stroke="#848484" stroke-miterlimit="10" x1="257.4" y1="335.1" x2="239.4" y2="365.9"/>
		<polyline fill-rule="evenodd" clip-rule="evenodd" fill="#F1F2F2" stroke="#848484" stroke-miterlimit="10" points="239.4,262.5 
			226.3,284.2 257.4,293.4 		"/>
		
			<line fill-rule="evenodd" clip-rule="evenodd" fill="#F1F2F2" stroke="#848484" stroke-miterlimit="10" x1="257.4" y1="293.4" x2="239.4" y2="262.5"/>
	</g>
	<g>
		
			<rect x="259.8" y="225.1" transform="matrix(6.123234e-17 -1 1 6.123234e-17 39.8544 517.835)" fill="#F1F2F2" stroke="#848484" stroke-miterlimit="10" width="38.1" height="27.7"/>
		
			<rect x="256.1" y="238.2" transform="matrix(6.123234e-17 -1 1 6.123234e-17 24.9443 503.2229)" fill="#F1F2F2" stroke="#848484" stroke-miterlimit="10" width="16" height="1.8"/>
	</g>
</g>
<g>
	<g>
		
			<rect x="378.7" y="495.8" transform="matrix(-1 -1.224647e-16 1.224647e-16 -1 896.9919 1100.0856)" fill-rule="evenodd" clip-rule="evenodd" fill="#F1F2F2" stroke="#848484" stroke-miterlimit="10" width="139.6" height="108.4"/>
		
			<rect x="382.6" y="498.4" transform="matrix(-1 -1.224647e-16 1.224647e-16 -1 895.3287 1100.1993)" fill-rule="evenodd" clip-rule="evenodd" fill="#F1F2F2" stroke="#848484" stroke-miterlimit="10" width="130.2" height="103.4"/>
		
			<rect x="480" y="501.5" transform="matrix(-1 2.476793e-13 -2.476793e-13 -1 989.4023 1043.0861)" fill-rule="evenodd" clip-rule="evenodd" fill="#F1F2F2" stroke="#848484" stroke-miterlimit="10" width="29.4" height="40.2"/>
		
			<rect x="480" y="558.3" transform="matrix(-1 1.237784e-13 -1.237784e-13 -1 989.4023 1156.7151)" fill-rule="evenodd" clip-rule="evenodd" fill="#F1F2F2" stroke="#848484" stroke-miterlimit="10" width="29.4" height="40.2"/>
		<polygon fill-rule="evenodd" clip-rule="evenodd" fill="#F1F2F2" stroke="#848484" stroke-miterlimit="10" points="465,498.4 
			483,529.2 483,571 483,529.2 483,571 465,601.8 382.6,601.8 382.6,601.7 382.6,498.4 		"/>
		<polyline fill-rule="evenodd" clip-rule="evenodd" fill="#F1F2F2" stroke="#848484" stroke-miterlimit="10" points="465,498.4 
			451.9,520 483,529.2 		"/>
		
			<line fill-rule="evenodd" clip-rule="evenodd" fill="#F1F2F2" stroke="#848484" stroke-miterlimit="10" x1="483" y1="529.2" x2="465" y2="498.4"/>
		<polyline fill-rule="evenodd" clip-rule="evenodd" fill="#F1F2F2" stroke="#848484" stroke-miterlimit="10" points="465,601.8 
			451.9,580.2 483,571 		"/>
		
			<line fill-rule="evenodd" clip-rule="evenodd" fill="#F1F2F2" stroke="#848484" stroke-miterlimit="10" x1="483" y1="571" x2="465" y2="601.8"/>
	</g>
</g>
<g>
	<g>
		<path fill="#F1F2F2" stroke="#848484" stroke-miterlimit="10" d="M104.6,42.5l0,31.5c0,1.1-0.9,2-2,2l-28.4,0c-1.1,0-2-0.9-2-2
			l0-31.5c0-1.1,0.9-2,2-2l28.4,0C103.7,40.5,104.6,41.4,104.6,42.5z"/>
		<path fill="#F1F2F2" stroke="#848484" stroke-miterlimit="10" d="M104.6,41.9l0,32.7c0,0.8,0.6,1.4,1.4,1.4l5,0
			c0.8,0,1.4-0.6,1.4-1.4l0-32.7c0-0.8-0.6-1.4-1.4-1.4l-5,0C105.2,40.5,104.6,41.1,104.6,41.9z"/>
	</g>
	
		<rect x="31" y="39.2" transform="matrix(6.556095e-11 -1 1 6.556095e-11 8.9411 125.3801)" fill-rule="evenodd" clip-rule="evenodd" fill="#F1F2F2" stroke="#848484" stroke-miterlimit="10" width="72.4" height="38.1"/>
	
		<rect x="30.4" y="112.1" transform="matrix(6.457952e-11 -1 1 6.457952e-11 -63.9752 198.2964)" fill-rule="evenodd" clip-rule="evenodd" fill="#F1F2F2" stroke="#848484" stroke-miterlimit="10" width="73.5" height="38.1"/>
</g>
<g>
	<g>
		<path fill="#F1F2F2" stroke="#848484" stroke-miterlimit="10" d="M371.6,645.6l34.1,0c1.1,0,2,0.9,2,2l0,30.9c0,1.1-0.9,2-2,2
			l-34.1,0c-1.1,0-2-0.9-2-2l0-30.9C369.6,646.5,370.5,645.6,371.6,645.6z"/>
		<path fill="#F1F2F2" stroke="#848484" stroke-miterlimit="10" d="M371,645.6l35.4,0c0.8,0,1.4-0.6,1.4-1.4l0-5.6
			c0-0.8-0.6-1.4-1.4-1.4l-35.4,0c-0.8,0-1.4,0.6-1.4,1.4l0,5.6C369.6,645,370.2,645.6,371,645.6z"/>
	</g>
	
		<rect x="324.7" y="665.4" transform="matrix(-1 -4.956714e-11 4.956714e-11 -1 752.2119 1371.7443)" fill-rule="evenodd" clip-rule="evenodd" fill="#F1F2F2" stroke="#848484" stroke-miterlimit="10" width="102.9" height="40.9"/>
	
		<rect x="427.6" y="665.4" transform="matrix(-1 -6.458180e-11 6.458180e-11 -1 934.0884 1371.7443)" fill-rule="evenodd" clip-rule="evenodd" fill="#F1F2F2" stroke="#848484" stroke-miterlimit="10" width="79" height="40.9"/>
</g>
<g>
	
		<rect x="215.2" y="59.7" transform="matrix(-4.488517e-11 1 -1 -4.488517e-11 352.7276 -193.3795)" fill-rule="evenodd" clip-rule="evenodd" fill="#F1F2F2" stroke="#848484" stroke-miterlimit="10" width="115.7" height="39.9"/>
	<line fill="#F1F2F2" stroke="#848484" stroke-miterlimit="10" x1="253.1" y1="26" x2="293.1" y2="26"/>
	<line fill="#F1F2F2" stroke="#848484" stroke-miterlimit="10" x1="253.1" y1="133.2" x2="293" y2="133.2"/>
	<line fill="#F1F2F2" stroke="#848484" stroke-miterlimit="10" x1="291.2" y1="26" x2="291.2" y2="133.2"/>
	<line fill="#F1F2F2" stroke="#848484" stroke-miterlimit="10" x1="272.8" y1="129.5" x2="272.8" y2="29.8"/>
	
		<rect x="271.7" y="22.8" transform="matrix(0.162 0.9868 -0.9868 0.162 263.2392 -240.0902)" fill="#F1F2F2" stroke="#848484" stroke-miterlimit="10" width="2.5" height="24.3"/>
	
		<rect x="271.7" y="31.7" transform="matrix(8.815246e-02 0.9961 -0.9961 8.815246e-02 292.639 -231.8827)" fill="#F1F2F2" stroke="#848484" stroke-miterlimit="10" width="2.5" height="24.3"/>
	
		<rect x="271.5" y="40.8" transform="matrix(0.229 0.9734 -0.9734 0.229 261.8655 -224.678)" fill="#F1F2F2" stroke="#848484" stroke-miterlimit="10" width="2.5" height="24.3"/>
	
		<rect x="271.8" y="50.9" transform="matrix(0.152 0.9884 -0.9884 0.152 293.8846 -216.3636)" fill="#F1F2F2" stroke="#848484" stroke-miterlimit="10" width="2.5" height="24.3"/>
	
		<rect x="271.7" y="59.8" transform="matrix(4.511170e-02 0.999 -0.999 4.511170e-02 332.4396 -203.9476)" fill="#F1F2F2" stroke="#848484" stroke-miterlimit="10" width="2.5" height="24.3"/>
	
		<rect x="271.7" y="68.7" transform="matrix(0.152 0.9884 -0.9884 0.152 311.3288 -201.1647)" fill="#F1F2F2" stroke="#848484" stroke-miterlimit="10" width="2.5" height="24.3"/>
	
		<rect x="271.5" y="77.8" transform="matrix(4.511170e-02 0.999 -0.999 4.511170e-02 350.3044 -186.6117)" fill="#F1F2F2" stroke="#848484" stroke-miterlimit="10" width="2.5" height="24.3"/>
	
		<rect x="271.5" y="86.7" transform="matrix(0.2052 0.9787 -0.9787 0.2052 313.5346 -188.4084)" fill="#F1F2F2" stroke="#848484" stroke-miterlimit="10" width="2.5" height="24.3"/>
	
		<rect x="271.5" y="95.6" transform="matrix(0.152 0.9884 -0.9884 0.152 337.7953 -178.2689)" fill="#F1F2F2" stroke="#848484" stroke-miterlimit="10" width="2.5" height="24.3"/>
	
		<rect x="271.5" y="104.5" transform="matrix(8.473843e-02 0.9964 -0.9964 8.473843e-02 365.8632 -165.0387)" fill="#F1F2F2" stroke="#848484" stroke-miterlimit="10" width="2.5" height="24.3"/>
	
		<rect x="271.8" y="113.4" transform="matrix(0.2379 0.9713 -0.9713 0.2379 330.0198 -169.5599)" fill="#F1F2F2" stroke="#848484" stroke-miterlimit="10" width="2.5" height="24.3"/>
</g>
<g>
	<g>
		<rect x="149.6" y="597.4" fill="#F1F2F2" stroke="#848484" stroke-miterlimit="10" width="37.4" height="27.2"/>
		<rect x="160.3" y="595.7" fill="#F1F2F2" stroke="#848484" stroke-miterlimit="10" width="15.7" height="1.8"/>
	</g>
	<g>
		
			<rect x="94.5" y="487.7" fill-rule="evenodd" clip-rule="evenodd" fill="#F1F2F2" stroke="#848484" stroke-miterlimit="10" width="53.1" height="136.9"/>
		<polyline fill-rule="evenodd" clip-rule="evenodd" fill="#F1F2F2" stroke="#848484" stroke-miterlimit="10" points="96.7,586.5 
			96.7,618 145.4,618 145.4,570.2 		"/>
		
			<rect x="106.5" y="578.7" transform="matrix(4.493034e-11 -1 1 4.493034e-11 -478.9348 721.0393)" fill-rule="evenodd" clip-rule="evenodd" fill="#F1F2F2" stroke="#848484" stroke-miterlimit="10" width="29.2" height="42.6"/>
		<polygon fill-rule="evenodd" clip-rule="evenodd" fill="#F1F2F2" stroke="#848484" stroke-miterlimit="10" points="96.7,587.8 
			116.4,587.8 116.4,587.8 145.4,570.6 145.4,491.6 145.3,491.6 96.7,491.6 		"/>
		<polygon fill-rule="evenodd" clip-rule="evenodd" fill="#F1F2F2" stroke="#848484" stroke-miterlimit="10" points="144.9,570.5 
			125.6,558.4 117.5,587.1 		"/>
	</g>
	<g>
		<rect x="54.9" y="597.4" fill="#F1F2F2" stroke="#848484" stroke-miterlimit="10" width="37.4" height="27.2"/>
		<rect x="65.7" y="595.7" fill="#F1F2F2" stroke="#848484" stroke-miterlimit="10" width="15.7" height="1.8"/>
	</g>
</g>
<g>
	<g>
		
			<rect x="111" y="385.7" fill-rule="evenodd" clip-rule="evenodd" fill="#F1F2F2" stroke="#848484" stroke-miterlimit="10" width="78.8" height="4"/>
		<polygon fill-rule="evenodd" clip-rule="evenodd" fill="#F1F2F2" stroke="#848484" stroke-miterlimit="10" points="183.1,385.7 
			170.4,382.6 130.4,382.6 117.7,385.7 		"/>
		
			<rect x="148.7" y="374.2" transform="matrix(5.154461e-11 -1 1 5.154461e-11 -230.4607 531.2714)" fill-rule="evenodd" clip-rule="evenodd" fill="#F1F2F2" stroke="#848484" stroke-miterlimit="10" width="3.5" height="13.4"/>
	</g>
</g>
<g>
	<g>
		
			<rect x="317.6" y="505.3" fill-rule="evenodd" clip-rule="evenodd" fill="#F1F2F2" stroke="#848484" stroke-miterlimit="10" width="4" height="78.8"/>
		<polygon fill-rule="evenodd" clip-rule="evenodd" fill="#F1F2F2" stroke="#848484" stroke-miterlimit="10" points="317.6,512 
			314.5,524.7 314.5,564.7 317.6,577.3 		"/>
		
			<rect x="311" y="538" transform="matrix(-1 -5.154422e-11 5.154422e-11 -1 625.5465 1089.3409)" fill-rule="evenodd" clip-rule="evenodd" fill="#F1F2F2" stroke="#848484" stroke-miterlimit="10" width="3.5" height="13.4"/>
	</g>
</g>
<g>
	
		<rect x="220.4" y="506.8" transform="matrix(-4.487984e-11 1 -1 -4.487984e-11 807.7538 247.1853)" fill-rule="evenodd" clip-rule="evenodd" fill="#F1F2F2" stroke="#848484" stroke-miterlimit="10" width="119.7" height="41.3"/>
	<line fill="#F1F2F2" stroke="#848484" stroke-miterlimit="10" x1="259.6" y1="472" x2="301" y2="472"/>
	<line fill="#F1F2F2" stroke="#848484" stroke-miterlimit="10" x1="259.6" y1="582.9" x2="300.9" y2="582.9"/>
	<line fill="#F1F2F2" stroke="#848484" stroke-miterlimit="10" x1="299" y1="472" x2="299" y2="582.9"/>
	<line fill="#F1F2F2" stroke="#848484" stroke-miterlimit="10" x1="280" y1="579" x2="280" y2="475.8"/>
	
		<rect x="278.9" y="468.6" transform="matrix(0.162 0.9868 -0.9868 0.162 709.6428 126.7398)" fill="#F1F2F2" stroke="#848484" stroke-miterlimit="10" width="2.6" height="25.2"/>
	
		<rect x="278.9" y="477.9" transform="matrix(8.815246e-02 0.9961 -0.9961 8.815246e-02 744.0415 168.103)" fill="#F1F2F2" stroke="#848484" stroke-miterlimit="10" width="2.6" height="25.2"/>
	
		<rect x="278.7" y="487.2" transform="matrix(0.229 0.9734 -0.9734 0.229 702.4236 112.8261)" fill="#F1F2F2" stroke="#848484" stroke-miterlimit="10" width="2.6" height="25.2"/>
	
		<rect x="279" y="497.7" transform="matrix(0.152 0.9884 -0.9884 0.152 742.0344 155.7128)" fill="#F1F2F2" stroke="#848484" stroke-miterlimit="10" width="2.6" height="25.2"/>
	
		<rect x="278.8" y="506.9" transform="matrix(4.511170e-02 0.999 -0.999 4.511170e-02 786.4091 216.1713)" fill="#F1F2F2" stroke="#848484" stroke-miterlimit="10" width="2.6" height="25.2"/>
	
		<rect x="278.8" y="516.1" transform="matrix(0.152 0.9884 -0.9884 0.152 760.0859 171.4409)" fill="#F1F2F2" stroke="#848484" stroke-miterlimit="10" width="2.6" height="25.2"/>
	
		<rect x="278.7" y="525.5" transform="matrix(4.511170e-02 0.999 -0.999 4.511170e-02 804.8959 234.1106)" fill="#F1F2F2" stroke="#848484" stroke-miterlimit="10" width="2.6" height="25.2"/>
	
		<rect x="278.7" y="534.7" transform="matrix(0.2052 0.9787 -0.9787 0.2052 758.1964 160.9777)" fill="#F1F2F2" stroke="#848484" stroke-miterlimit="10" width="2.6" height="25.2"/>
	
		<rect x="278.7" y="543.9" transform="matrix(0.152 0.9884 -0.9884 0.152 787.4738 195.1337)" fill="#F1F2F2" stroke="#848484" stroke-miterlimit="10" width="2.6" height="25.2"/>
	
		<rect x="278.7" y="553.1" transform="matrix(8.473843e-02 0.9964 -0.9964 8.473843e-02 819.9388 238.7939)" fill="#F1F2F2" stroke="#848484" stroke-miterlimit="10" width="2.6" height="25.2"/>
	
		<rect x="279" y="562.3" transform="matrix(0.2379 0.9713 -0.9713 0.2379 772.0177 165.8887)" fill="#F1F2F2" stroke="#848484" stroke-miterlimit="10" width="2.6" height="25.2"/>
</g>
<g>
	
		<rect x="392.6" y="378.5" fill-rule="evenodd" clip-rule="evenodd" fill="#F1F2F2" stroke="#848484" stroke-miterlimit="10" width="126.8" height="43.8"/>
	<line fill="#F1F2F2" stroke="#848484" stroke-miterlimit="10" x1="397.2" y1="422.2" x2="397.2" y2="378.4"/>
	<line fill="#F1F2F2" stroke="#848484" stroke-miterlimit="10" x1="514.7" y1="422.2" x2="514.7" y2="378.5"/>
	<line fill="#F1F2F2" stroke="#848484" stroke-miterlimit="10" x1="397.2" y1="380.5" x2="514.7" y2="380.5"/>
	<line fill="#F1F2F2" stroke="#848484" stroke-miterlimit="10" x1="510.6" y1="400.7" x2="401.3" y2="400.7"/>
	
		<rect x="405.6" y="387.1" transform="matrix(0.9868 -0.162 0.162 0.9868 -59.4852 71.2006)" fill="#F1F2F2" stroke="#848484" stroke-miterlimit="10" width="2.7" height="26.7"/>
	
		<rect x="415.4" y="387.1" transform="matrix(0.9961 -8.815246e-02 8.815246e-02 0.9961 -33.6777 38.2989)" fill="#F1F2F2" stroke="#848484" stroke-miterlimit="10" width="2.7" height="26.7"/>
	
		<rect x="425.4" y="387.3" transform="matrix(0.9734 -0.229 0.229 0.9734 -80.4148 108.3673)" fill="#F1F2F2" stroke="#848484" stroke-miterlimit="10" width="2.7" height="26.7"/>
	
		<rect x="436.4" y="387" transform="matrix(0.9884 -0.152 0.152 0.9884 -55.7835 71.2212)" fill="#F1F2F2" stroke="#848484" stroke-miterlimit="10" width="2.7" height="26.7"/>
	
		<rect x="446.1" y="387.2" transform="matrix(0.999 -4.511170e-02 4.511170e-02 0.999 -17.6127 20.5951)" fill="#F1F2F2" stroke="#848484" stroke-miterlimit="10" width="2.7" height="26.7"/>
	
		<rect x="455.9" y="387.2" transform="matrix(0.9884 -0.152 0.152 0.9884 -55.5797 74.1839)" fill="#F1F2F2" stroke="#848484" stroke-miterlimit="10" width="2.7" height="26.7"/>
	
		<rect x="465.9" y="387.3" transform="matrix(0.999 -4.511170e-02 4.511170e-02 0.999 -17.5993 21.486)" fill="#F1F2F2" stroke="#848484" stroke-miterlimit="10" width="2.7" height="26.7"/>
	
		<rect x="475.6" y="387.3" transform="matrix(0.9787 -0.2052 0.2052 0.9787 -72.0572 106.3867)" fill="#F1F2F2" stroke="#848484" stroke-miterlimit="10" width="2.7" height="26.7"/>
	
		<rect x="485.4" y="387.3" transform="matrix(0.9884 -0.152 0.152 0.9884 -55.2556 78.664)" fill="#F1F2F2" stroke="#848484" stroke-miterlimit="10" width="2.7" height="26.7"/>
	
		<rect x="495.1" y="387.3" transform="matrix(0.9964 -8.473843e-02 8.473843e-02 0.9964 -32.1665 43.5142)" fill="#F1F2F2" stroke="#848484" stroke-miterlimit="10" width="2.7" height="26.7"/>
	
		<rect x="504.9" y="387" transform="matrix(0.9713 -0.2379 0.2379 0.9713 -80.7134 131.9459)" fill="#F1F2F2" stroke="#848484" stroke-miterlimit="10" width="2.7" height="26.7"/>
</g>
<g>
	
		<rect x="392.5" y="327" fill-rule="evenodd" clip-rule="evenodd" fill="#F1F2F2" stroke="#848484" stroke-miterlimit="10" width="120.2" height="41.5"/>
	<line fill="#F1F2F2" stroke="#848484" stroke-miterlimit="10" x1="396.9" y1="368.5" x2="396.9" y2="326.9"/>
	<line fill="#F1F2F2" stroke="#848484" stroke-miterlimit="10" x1="508.3" y1="368.5" x2="508.3" y2="327"/>
	<line fill="#F1F2F2" stroke="#848484" stroke-miterlimit="10" x1="396.9" y1="328.9" x2="508.3" y2="328.9"/>
	<line fill="#F1F2F2" stroke="#848484" stroke-miterlimit="10" x1="504.4" y1="348.1" x2="400.8" y2="348.1"/>
	
		<rect x="404.9" y="335.2" transform="matrix(0.9868 -0.162 0.162 0.9868 -50.9755 70.3754)" fill="#F1F2F2" stroke="#848484" stroke-miterlimit="10" width="2.6" height="25.3"/>
	
		<rect x="414.2" y="335.2" transform="matrix(0.9961 -8.815246e-02 8.815246e-02 0.9961 -29.0455 37.9781)" fill="#F1F2F2" stroke="#848484" stroke-miterlimit="10" width="2.6" height="25.3"/>
	
		<rect x="423.6" y="335.4" transform="matrix(0.9734 -0.229 0.229 0.9734 -68.414 106.5494)" fill="#F1F2F2" stroke="#848484" stroke-miterlimit="10" width="2.6" height="25.3"/>
	
		<rect x="434.1" y="335.1" transform="matrix(0.9884 -0.152 0.152 0.9884 -47.8138 70.2435)" fill="#F1F2F2" stroke="#848484" stroke-miterlimit="10" width="2.6" height="25.3"/>
	
		<rect x="443.3" y="335.3" transform="matrix(0.999 -4.511170e-02 4.511170e-02 0.999 -15.2424 20.4102)" fill="#F1F2F2" stroke="#848484" stroke-miterlimit="10" width="2.6" height="25.3"/>
	
		<rect x="452.6" y="335.3" transform="matrix(0.9884 -0.152 0.152 0.9884 -47.6206 73.0524)" fill="#F1F2F2" stroke="#848484" stroke-miterlimit="10" width="2.6" height="25.3"/>
	
		<rect x="462" y="335.4" transform="matrix(0.999 -4.511170e-02 4.511170e-02 0.999 -15.2297 21.2548)" fill="#F1F2F2" stroke="#848484" stroke-miterlimit="10" width="2.6" height="25.3"/>
	
		<rect x="471.3" y="335.4" transform="matrix(0.9787 -0.2052 0.2052 0.9787 -61.3564 104.3559)" fill="#F1F2F2" stroke="#848484" stroke-miterlimit="10" width="2.6" height="25.3"/>
	
		<rect x="480.5" y="335.4" transform="matrix(0.9884 -0.152 0.152 0.9884 -47.3134 77.2999)" fill="#F1F2F2" stroke="#848484" stroke-miterlimit="10" width="2.6" height="25.3"/>
	
		<rect x="489.8" y="335.4" transform="matrix(0.9964 -8.473843e-02 8.473843e-02 0.9964 -27.7274 42.8627)" fill="#F1F2F2" stroke="#848484" stroke-miterlimit="10" width="2.6" height="25.3"/>
	
		<rect x="499" y="335.1" transform="matrix(0.9713 -0.2379 0.2379 0.9713 -68.3698 129.0171)" fill="#F1F2F2" stroke="#848484" stroke-miterlimit="10" width="2.6" height="25.3"/>
</g>
<g>
	<path fill="#F1F2F2" stroke="#848484" stroke-miterlimit="10" d="M556.7,145.9c0.3,3.5,0.4,13.3-4.4,20.3
		c-4.3,6.2-12.1,11.1-15.7,12.4H465v-32.7h71.5C543.2,145.9,550,145.9,556.7,145.9z M536.5,178.5v-32.7"/>
	
		<rect x="472.4" y="146.4" transform="matrix(-2.232819e-12 -1 1 -2.232819e-12 326.5226 622.303)" fill="#F1F2F2" stroke="#848484" stroke-miterlimit="10" width="4.1" height="2.9"/>
	
		<rect x="490" y="146.4" transform="matrix(-1.339312e-12 -1 1 -1.339312e-12 344.1945 639.9749)" fill="#F1F2F2" stroke="#848484" stroke-miterlimit="10" width="4.1" height="2.9"/>
	
		<rect x="507.5" y="146.4" transform="matrix(-2.679573e-12 -1 1 -2.679573e-12 361.6859 657.4662)" fill="#F1F2F2" stroke="#848484" stroke-miterlimit="10" width="4.1" height="2.9"/>
	
		<rect x="525.2" y="146.4" transform="matrix(-3.126327e-12 -1 1 -3.126327e-12 379.3578 675.1382)" fill="#F1F2F2" stroke="#848484" stroke-miterlimit="10" width="4.1" height="2.9"/>
	
		<rect x="474.1" y="142.7" transform="matrix(6.123234e-17 -1 1 6.123234e-17 328.2365 620.589)" fill="#F1F2F2" stroke="#848484" stroke-miterlimit="10" width="0.7" height="7"/>
	
		<rect x="491.7" y="142.7" transform="matrix(-5.357431e-12 -1 1 -5.357431e-12 345.8362 638.1887)" fill="#F1F2F2" stroke="#848484" stroke-miterlimit="10" width="0.7" height="7"/>
	
		<rect x="509.2" y="142.7" transform="matrix(-1.071492e-11 -1 1 -1.071492e-11 363.3998 655.7523)" fill="#F1F2F2" stroke="#848484" stroke-miterlimit="10" width="0.7" height="7"/>
	
		<rect x="526.9" y="142.7" transform="matrix(-8.036177e-12 -1 1 -8.036177e-12 381.0718 673.4243)" fill="#F1F2F2" stroke="#848484" stroke-miterlimit="10" width="0.7" height="7"/>
</g>
<g>
	<g>
		<path fill="#F1F2F2" stroke="#848484" stroke-miterlimit="10" d="M553.3,444.8c-7,0-12.7,2.1-12.7,4.7c0,2.6,5.7,4.7,12.7,4.7
			c7,0,12.8-2.1,12.8-4.7C566,446.9,560.3,444.8,553.3,444.8z"/>
		<path fill="#F1F2F2" stroke="#848484" stroke-miterlimit="10" d="M553.3,423.5c-7,0-12.7,5.7-12.7,12.8s5.7,12.8,12.7,12.8
			c7,0,12.8-5.7,12.8-12.8S560.3,423.5,553.3,423.5z"/>
	</g>
	<g>
		<path fill="#F1F2F2" stroke="#848484" stroke-miterlimit="10" d="M591.6,383c7,0,12.7-2.1,12.7-4.7c0-2.6-5.7-4.7-12.7-4.7
			s-12.8,2.1-12.8,4.7C578.9,380.9,584.6,383,591.6,383z"/>
		<path fill="#F1F2F2" stroke="#848484" stroke-miterlimit="10" d="M591.6,404.3c7,0,12.7-5.7,12.7-12.8c0-7-5.7-12.8-12.7-12.8
			s-12.8,5.7-12.8,12.8C578.9,398.6,584.6,404.3,591.6,404.3z"/>
	</g>
	<g>
		<path fill="#F1F2F2" stroke="#848484" stroke-miterlimit="10" d="M553.3,381.9c7,0,12.7-2.1,12.7-4.7c0-2.6-5.7-4.7-12.7-4.7
			c-7,0-12.8,2.1-12.8,4.7C540.5,379.8,546.2,381.9,553.3,381.9z"/>
		<path fill="#F1F2F2" stroke="#848484" stroke-miterlimit="10" d="M553.3,403.3c7,0,12.7-5.7,12.7-12.8c0-7-5.7-12.8-12.7-12.8
			c-7,0-12.8,5.7-12.8,12.8C540.5,397.6,546.2,403.3,553.3,403.3z"/>
	</g>
	<g>
		<path fill="#F1F2F2" stroke="#848484" stroke-miterlimit="10" d="M591.6,443.3c-7.1,0-12.8,2.1-12.8,4.7c0,2.6,5.7,4.7,12.8,4.7
			c7,0,12.7-2.1,12.7-4.7C604.4,445.4,598.7,443.3,591.6,443.3z"/>
		<path fill="#F1F2F2" stroke="#848484" stroke-miterlimit="10" d="M591.6,422c-7.1,0-12.8,5.7-12.8,12.8s5.7,12.8,12.8,12.8
			c7,0,12.7-5.7,12.7-12.8S598.7,422,591.6,422z"/>
	</g>
	<rect x="528.3" y="387.5" fill="#F1F2F2" stroke="#848484" stroke-miterlimit="10" width="89" height="51.4"/>
</g>
<g>
	<path fill-rule="evenodd" clip-rule="evenodd" fill="#F1F2F2" stroke="#848484" stroke-miterlimit="10" d="M775.5,565.9v24.2h-20.1
		v-24.2H775.5L775.5,565.9z M775.5,680.1h-30v-90h30V680.1z"/>
	<path fill-rule="evenodd" clip-rule="evenodd" fill="#F1F2F2" stroke="#848484" stroke-miterlimit="10" d="M764.8,644
		c5.2,0,5.7-4.7,5.7-10.6c0-5.8-0.5-10.5-5.7-10.5s-9.5,4.7-9.5,10.5C755.4,639.3,759.6,644,764.8,644z"/>
	
		<rect x="759.9" y="598.1" fill-rule="evenodd" clip-rule="evenodd" fill="#F1F2F2" stroke="#848484" stroke-miterlimit="10" width="4" height="70.7"/>
	
		<rect x="759.9" y="598.1" fill-rule="evenodd" clip-rule="evenodd" fill="#F1F2F2" stroke="#848484" stroke-miterlimit="10" width="4" height="70.7"/>
	<polygon fill-rule="evenodd" clip-rule="evenodd" fill="#F1F2F2" stroke="#848484" stroke-miterlimit="10" points="763.7,662.7 
		766.9,651.4 766.9,615.5 763.7,604.2 	"/>
	<polygon fill-rule="evenodd" clip-rule="evenodd" fill="#F1F2F2" stroke="#848484" stroke-miterlimit="10" points="763.7,662.7 
		766.9,651.4 766.9,615.5 763.7,604.2 	"/>
	<path fill-rule="evenodd" clip-rule="evenodd" fill="#F1F2F2" stroke="#848484" stroke-miterlimit="10" d="M753.3,568v19.9h-2V568
		H753.3L753.3,568z M775.5,680v24.1h-20.1V680H775.5L775.5,680z M753.3,702.1h-2v-19.9h2V702.1z"/>
</g>
<g>
	
		<rect x="775" y="487.3" fill-rule="evenodd" clip-rule="evenodd" fill="#F1F2F2" stroke="#848484" stroke-miterlimit="10" width="2.7" height="38.1"/>
	
		<rect x="775" y="487.3" fill-rule="evenodd" clip-rule="evenodd" fill="#F1F2F2" stroke="#848484" stroke-miterlimit="10" width="2.7" height="38.1"/>
	
		<rect x="731.3" y="513.2" fill-rule="evenodd" clip-rule="evenodd" fill="#F1F2F2" stroke="#848484" stroke-miterlimit="10" width="3.7" height="12.5"/>
	
		<rect x="731.3" y="513.2" fill-rule="evenodd" clip-rule="evenodd" fill="#F1F2F2" stroke="#848484" stroke-miterlimit="10" width="3.7" height="12.5"/>
	
		<rect x="733.5" y="485.6" fill-rule="evenodd" clip-rule="evenodd" fill="#F1F2F2" stroke="#848484" stroke-miterlimit="10" width="41.8" height="41.9"/>
	
		<rect x="733.5" y="485.6" fill-rule="evenodd" clip-rule="evenodd" fill="#F1F2F2" stroke="#848484" stroke-miterlimit="10" width="41.8" height="41.9"/>
	<path fill-rule="evenodd" clip-rule="evenodd" fill="#F1F2F2" stroke="#848484" stroke-miterlimit="10" d="M737.2,485.6v41.9V485.6
		z"/>
	<path fill-rule="evenodd" clip-rule="evenodd" fill="#F1F2F2" stroke="#848484" stroke-miterlimit="10" d="M737.4,483.6
		c0.8,0,1.6,0.7,1.6,1.6c0,1-0.8,1.6-1.6,1.6c-1,0-1.8-0.7-1.8-1.6C735.6,484.3,736.4,483.6,737.4,483.6z"/>
	<path fill-rule="evenodd" clip-rule="evenodd" fill="#F1F2F2" stroke="#848484" stroke-miterlimit="10" d="M737.4,483.6
		c0.8,0,1.6,0.7,1.6,1.6c0,1-0.8,1.6-1.6,1.6c-1,0-1.8-0.7-1.8-1.6C735.6,484.3,736.4,483.6,737.4,483.6z"/>
	<path fill-rule="evenodd" clip-rule="evenodd" fill="#F1F2F2" stroke="#848484" stroke-miterlimit="10" d="M758.7,506.7h-7.4H758.7
		z"/>
	<path fill-rule="evenodd" clip-rule="evenodd" fill="#F1F2F2" stroke="#848484" stroke-miterlimit="10" d="M755.1,503.1v7.4V503.1z
		"/>
	<path fill-rule="evenodd" clip-rule="evenodd" fill="#F1F2F2" stroke="#848484" stroke-miterlimit="10" d="M752.4,504.1l5.4,5.4
		L752.4,504.1z"/>
	<path fill-rule="evenodd" clip-rule="evenodd" fill="#F1F2F2" stroke="#848484" stroke-miterlimit="10" d="M752.4,509.4l5.4-5.4
		L752.4,509.4z"/>
	<path fill-rule="evenodd" clip-rule="evenodd" fill="#F1F2F2" stroke="#848484" stroke-miterlimit="10" d="M759,495.9h-7.4H759z"/>
	<path fill-rule="evenodd" clip-rule="evenodd" fill="#F1F2F2" stroke="#848484" stroke-miterlimit="10" d="M755.4,492.2v7.4V492.2z
		"/>
	<path fill-rule="evenodd" clip-rule="evenodd" fill="#F1F2F2" stroke="#848484" stroke-miterlimit="10" d="M752.6,493.3l5.4,5.4
		L752.6,493.3z"/>
	<path fill-rule="evenodd" clip-rule="evenodd" fill="#F1F2F2" stroke="#848484" stroke-miterlimit="10" d="M752.6,498.6l5.4-5.4
		L752.6,498.6z"/>
	<path fill-rule="evenodd" clip-rule="evenodd" fill="#F1F2F2" stroke="#848484" stroke-miterlimit="10" d="M758.7,517.3h-7.4H758.7
		z"/>
	<path fill-rule="evenodd" clip-rule="evenodd" fill="#F1F2F2" stroke="#848484" stroke-miterlimit="10" d="M755.1,513.7v7.4V513.7z
		"/>
	<path fill-rule="evenodd" clip-rule="evenodd" fill="#F1F2F2" stroke="#848484" stroke-miterlimit="10" d="M752.4,514.7l5.4,5.4
		L752.4,514.7z"/>
	<path fill-rule="evenodd" clip-rule="evenodd" fill="#F1F2F2" stroke="#848484" stroke-miterlimit="10" d="M752.4,520l5.4-5.4
		L752.4,520z"/>
</g>
<g>
	<path fill-rule="evenodd" clip-rule="evenodd" fill="#F1F2F2" stroke="#848484" stroke-miterlimit="10" d="M632.7,706.1h-54.5
		h-43.9c-2.9,0-5.3-2.4-5.3-5.3v-44v-133c0-2.9,2.4-5.3,5.3-5.3h43.9c2.9,0,5.3,2.4,5.3,5.3v122.4c0,2.9,2.4,5.3,5.3,5.3h43.9
		c2.9,0,5.3,2.4,5.3,5.3v44C638,703.7,635.6,706.1,632.7,706.1z"/>
	<g>
		<path fill-rule="evenodd" clip-rule="evenodd" fill="#F1F2F2" stroke="#848484" stroke-miterlimit="10" d="M574.6,651.5
			c6.2,0,8.8,0.3,8.8,8.2v23.4c0,7.9-2.7,8.2-8.8,8.2h-23.3c-6.2,0-8.8-0.3-8.8-8.2v-23.4c0-7.9,2.7-8.2,8.8-8.2H574.6z"/>
		<path fill-rule="evenodd" clip-rule="evenodd" fill="#F1F2F2" stroke="#848484" stroke-miterlimit="10" d="M574.6,651.5
			c6.2,0,8.8,0.3,8.8,8.2v23.4c0,7.9-2.7,8.2-8.8,8.2h-23.3c-6.2,0-8.8-0.3-8.8-8.2v-23.4c0-7.9,2.7-8.2,8.8-8.2H574.6z"/>
		<path fill-rule="evenodd" clip-rule="evenodd" fill="#F1F2F2" stroke="#848484" stroke-miterlimit="10" d="M574.6,612
			c6.2,0,8.8,0.3,8.8,8.2v23.4c0,7.9-2.7,8.2-8.8,8.2h-23.3c-6.2,0-8.8-0.3-8.8-8.2v-23.4c0-7.9,2.7-8.2,8.8-8.2H574.6z"/>
		<path fill-rule="evenodd" clip-rule="evenodd" fill="#F1F2F2" stroke="#848484" stroke-miterlimit="10" d="M574.6,612
			c6.2,0,8.8,0.3,8.8,8.2v23.4c0,7.9-2.7,8.2-8.8,8.2h-23.3c-6.2,0-8.8-0.3-8.8-8.2v-23.4c0-7.9,2.7-8.2,8.8-8.2H574.6z"/>
		<path fill-rule="evenodd" clip-rule="evenodd" fill="#F1F2F2" stroke="#848484" stroke-miterlimit="10" d="M574.6,572.5
			c6.2,0,8.8,0.3,8.8,8.1v23.5c0,7.9-2.7,8.1-8.8,8.1h-23.3c-6.2,0-8.8-0.3-8.8-8.1v-23.5c0-7.9,2.7-8.1,8.8-8.1H574.6z"/>
		<path fill-rule="evenodd" clip-rule="evenodd" fill="#F1F2F2" stroke="#848484" stroke-miterlimit="10" d="M574.6,572.5
			c6.2,0,8.8,0.3,8.8,8.1v23.5c0,7.9-2.7,8.1-8.8,8.1h-23.3c-6.2,0-8.8-0.3-8.8-8.1v-23.5c0-7.9,2.7-8.1,8.8-8.1H574.6z"/>
		<path fill-rule="evenodd" clip-rule="evenodd" fill="#F1F2F2" stroke="#848484" stroke-miterlimit="10" d="M615.6,651.5
			c6.2,0,8.8,0.3,8.8,8.2v23.4c0,7.9-2.7,8.2-8.8,8.2h-23.3c-6.2,0-8.8-0.3-8.8-8.2v-23.4c0-7.9,2.7-8.2,8.8-8.2H615.6z"/>
		<path fill-rule="evenodd" clip-rule="evenodd" fill="#F1F2F2" stroke="#848484" stroke-miterlimit="10" d="M574.5,533.1
			c6.2,0,8.8,0.3,8.8,8.1v23.5c0,7.9-2.7,8.1-8.8,8.1h-23.3c-6.2,0-8.8-0.3-8.8-8.1v-23.5c0-7.9,2.7-8.1,8.8-8.1H574.5z"/>
		<path fill-rule="evenodd" clip-rule="evenodd" fill="#F1F2F2" stroke="#848484" stroke-miterlimit="10" d="M534.5,706.1H630h2.3
			c3.1,0,5.6-2.7,5.6-6.1v-2.5v-40c0-3.3-2.5-6.1-5.6-6.1H630c-3.1,0-5.6,2.7-5.6,6.1v33.9h-81.8V533.1h35.3c3.1,0,5.6-2.7,5.6-6.1
			v-2.5c0-3.3-2.5-6.1-5.6-6.1h-40.9h-2.3c-3.1,0-5.6,2.7-5.6,6.1v2.5v170.5v2.5v0C528.9,703.4,531.4,706.1,534.5,706.1z"/>
	</g>
</g>
<g>
</g>
<g>
</g>
<g>
</g>
<g>
</g>
<g>
</g>
<g>
</g>
</svg>
