<?xml version="1.0" encoding="utf-8"?>
<!-- Generator: Adobe Illustrator 23.0.2, SVG Export Plug-In . SVG Version: 6.00 Build 0)  -->
<svg version="1.1" xmlns="http://www.w3.org/2000/svg" xmlns:xlink="http://www.w3.org/1999/xlink" x="0px" y="0px"
	 viewBox="0 0 666.9 800" enable-background="new 0 0 666.9 800" xml:space="preserve">
<g id="Слой_1">
	<rect x="258.5" y="722.7" fill="#F3F3F3" stroke="#868686" width="278.9" height="50"/>
	<g id="unitaz_1_">
		<path fill="#F3F3F3" stroke="#868686" d="M65.7,347.3h9.5c1.5,0,2.7,1.2,2.7,2.7v24.4c0,1.5-1.2,2.7-2.7,2.7h-9.5V347.3z"/>
		<path fill="#F3F3F3" stroke="#868686" d="M78,350c0-1.5,1.2-2.7,2.7-2.7v29.9c-1.5,0-2.7-1.2-2.7-2.7V350z"/>
		<path fill="#F3F3F3" stroke="#868686" d="M80.7,377.1v-29.9c0,0,35.3-6.1,35.3,14.9C116,383.3,80.7,377.1,80.7,377.1z"/>
		<circle fill="#F3F3F3" stroke="#868686" cx="71.2" cy="362.2" r="2.7"/>
	</g>
	<g id="moyka_1_">
		<path fill="#F3F3F3" stroke="#868686" d="M65,397.2c0-0.8,0.7-1.5,1.5-1.5h29.6c0.8,0,1.5,0.7,1.5,1.5v44.4c0,0.8-0.7,1.5-1.5,1.5
			H66.5c-0.8,0-1.5-0.7-1.5-1.5V397.2z"/>
		<rect x="69.4" y="395.7" fill="#F3F3F3" stroke="#868686" width="3" height="47.4"/>
		<ellipse fill="#F3F3F3" stroke="#868686" cx="85" cy="420.2" rx="9.6" ry="15.6"/>
		<rect x="69.4" y="417.9" fill="#F3F3F3" stroke="#868686" width="11.8" height="3"/>
		<circle fill="#F3F3F3" stroke="#868686" cx="86.5" cy="418.7" r="2.2"/>
	</g>
	<g id="unitaz_2_">
		<path fill="#F3F3F3" stroke="#868686" d="M159.2,771.3v-9.5c0-1.5,1.2-2.7,2.7-2.7h24.4c1.5,0,2.7,1.2,2.7,2.7v9.5H159.2z"/>
		<path fill="#F3F3F3" stroke="#868686" d="M162,759.1c-1.5,0-2.7-1.2-2.7-2.7h29.9c0,1.5-1.2,2.7-2.7,2.7H162z"/>
		<path fill="#F3F3F3" stroke="#868686" d="M189.1,756.4h-29.9c0,0-6.1-35.3,14.9-35.3C195.2,721.1,189.1,756.4,189.1,756.4z"/>
		<circle fill="#F3F3F3" stroke="#868686" cx="174.2" cy="765.9" r="2.7"/>
	</g>
	<g id="moyka_2_">
		<path fill="#F3F3F3" stroke="#868686" d="M94.8,675.8c0-0.8,0.7-1.5,1.5-1.5h29.6c0.8,0,1.5,0.7,1.5,1.5v44.4
			c0,0.8-0.7,1.5-1.5,1.5H96.3c-0.8,0-1.5-0.7-1.5-1.5V675.8z"/>
		<rect x="99.2" y="674.3" fill="#F3F3F3" stroke="#868686" width="3" height="47.4"/>
		<ellipse fill="#F3F3F3" stroke="#868686" cx="114.8" cy="698.8" rx="9.6" ry="15.6"/>
		<rect x="99.2" y="696.5" fill="#F3F3F3" stroke="#868686" width="11.8" height="3"/>
		<circle fill="#F3F3F3" stroke="#868686" cx="116.3" cy="697.3" r="2.2"/>
	</g>
	<g id="stirka_1_">
		<rect x="164.7" y="293.4" fill="#F3F3F3" stroke="#868686" width="40.7" height="40.7"/>
		<path fill="#F3F3F3" stroke="#868686" d="M202.7,297.4c0,1.5-1.2,2.7-2.7,2.7h-9.5c-1.5,0-2.7-1.2-2.7-2.7v-4.1h14.9V297.4z"/>
		<circle fill="#F3F3F3" stroke="#868686" cx="185" cy="315.1" r="10.9"/>
		<circle fill="#F3F3F3" stroke="#868686" cx="185" cy="315.1" r="8.1"/>
		<circle fill="#F3F3F3" stroke="#868686" cx="171.5" cy="300.1" r="2.7"/>
	</g>
	<g id="moyka_2_1_">
		<path fill="#F3F3F3" stroke="#868686" d="M281,733.3c0-1.5,1.2-2.7,2.7-2.7h39.4c1.5,0,2.7,1.2,2.7,2.7v32.6
			c0,1.5-1.2,2.7-2.7,2.7h-39.4c-1.5,0-2.7-1.2-2.7-2.7V733.3z"/>
		<path fill="#F3F3F3" stroke="#868686" d="M283.7,736c0-1.5,1.2-2.7,2.7-2.7h33.9c1.5,0,2.7,1.2,2.7,2.7v23.1
			c0,1.5-1.2,2.7-2.7,2.7h-33.9c-1.5,0-2.7-1.2-2.7-2.7V736z"/>
		<rect x="301.4" y="753.7" fill="#F3F3F3" stroke="#868686" width="2.7" height="10.9"/>
		<circle fill="#F3F3F3" stroke="#868686" cx="303.4" cy="746.2" r="2"/>
	</g>
	<g id="plita_1_">
		<rect x="387.4" y="722.7" fill="#F3F3F3" stroke="#868686" width="47.5" height="48.9"/>
		<circle fill="#F3F3F3" stroke="#868686" cx="421.3" cy="735" r="8.1"/>
		<circle fill="#F3F3F3" stroke="#868686" cx="400.9" cy="755.3" r="8.1"/>
		<circle fill="#F3F3F3" stroke="#868686" cx="400.9" cy="735" r="6.8"/>
		<circle fill="#F3F3F3" stroke="#868686" cx="421.3" cy="755.3" r="6.8"/>
	</g>
	<g id="vanna_1_">
		<rect x="65" y="457.4" fill="#F3F3F3" stroke="#868686" width="131.7" height="51.6"/>
		<path fill="#F3F3F3" stroke="#868686" d="M188.5,491.3c0,7.5-6.1,13.6-13.6,13.6H84v-43.4h91c7.5,0,13.6,6.1,13.6,13.6V491.3z"/>
		<path fill="#F3F3F3" stroke="#868686" d="M81.9,481.8V471h-4.8v18.3"/>
		<path id="Union_1_" fill="#F3F3F3" stroke="#868686" d="M75.8,491.6c-1.6,0.6-2.7,2.1-2.7,3.8c0,2.2,1.8,4.1,4.1,4.1
			c2.2,0,4.1-1.8,4.1-4.1c0-1.8-1.1-3.3-2.7-3.8V490c0-0.7-0.6-1.4-1.4-1.4c-0.7,0-1.4,0.6-1.4,1.4V491.6z"/>
		<rect x="79.9" y="481.8" fill="#F3F3F3" stroke="#868686" width="10.9" height="2.7"/>
	</g>
	<rect x="643.8" y="597.3" fill="#FFFFFF" stroke="#000000" stroke-miterlimit="10" width="6" height="118.3"/>
	<rect x="649.7" y="600.5" fill="#FFFFFF" stroke="#000000" stroke-miterlimit="10" width="11.2" height="111.8"/>
	<rect x="632.4" y="597.3" fill="#FFFFFF" stroke="#000000" stroke-miterlimit="10" width="11.4" height="118.3"/>
	<rect x="643.8" y="707.3" fill="#FFFFFF" stroke="#000000" stroke-miterlimit="10" width="6" height="8.3"/>
	<rect x="643.8" y="653.2" fill="#FFFFFF" stroke="#000000" stroke-miterlimit="10" width="6" height="6"/>
	<rect x="643.8" y="597.3" fill="#FFFFFF" stroke="#000000" stroke-miterlimit="10" width="6" height="6.9"/>
	<rect x="643.4" y="342.5" fill="#FFFFFF" stroke="#000000" stroke-miterlimit="10" width="6.3" height="120.5"/>
	<rect x="649.7" y="347.9" fill="#FFFFFF" stroke="#000000" stroke-miterlimit="10" width="11.2" height="111.8"/>
	<rect x="632.4" y="342.5" fill="#FFFFFF" stroke="#000000" stroke-miterlimit="10" width="11" height="120.5"/>
	<rect x="643.4" y="342.5" fill="#FFFFFF" stroke="#000000" stroke-miterlimit="10" width="6.3" height="8.3"/>
	<rect x="643.4" y="399.3" fill="#FFFFFF" stroke="#000000" stroke-miterlimit="10" width="6.3" height="6.3"/>
	<rect x="643.4" y="453.9" fill="#FFFFFF" stroke="#000000" stroke-miterlimit="10" width="6.3" height="9"/>
	<rect x="525.4" y="134.4" fill="#FFFFFF" stroke="#000000" stroke-miterlimit="10" width="6.3" height="115.8"/>
	<rect x="525.4" y="175.5" fill="#FFFFFF" stroke="#000000" stroke-miterlimit="10" width="6.3" height="5.6"/>
	<rect x="525.4" y="134.4" fill="#FFFFFF" stroke="#000000" stroke-miterlimit="10" width="6.3" height="9"/>
	<rect x="525.4" y="243.7" fill="#FFFFFF" stroke="#000000" stroke-miterlimit="10" width="6.3" height="6.5"/>
	<rect x="531.8" y="140.6" fill="#FFFFFF" stroke="#000000" stroke-miterlimit="10" width="11.2" height="37.7"/>
	<rect x="511.1" y="134.4" fill="#FFFFFF" stroke="#000000" stroke-miterlimit="10" width="14.3" height="43.9"/>
	<g>
		
			<rect x="636.1" y="43.2" transform="matrix(-1 -1.224647e-16 1.224647e-16 -1 1297.1406 299.567)" fill="#FFFFFF" stroke="#000000" stroke-miterlimit="10" width="25" height="213.2"/>
		
			<rect x="641.9" y="43.2" transform="matrix(-1 -1.224647e-16 1.224647e-16 -1 1292.436 299.567)" fill="#FFFFFF" stroke="#000000" stroke-miterlimit="10" width="8.7" height="213.2"/>
		
			<rect x="644.6" y="47" transform="matrix(-1 -1.224647e-16 1.224647e-16 -1 1292.2551 303.321)" fill="#FFFFFF" stroke="#000000" stroke-miterlimit="10" width="3.1" height="209.4"/>
	</g>
	<line fill="#FFFFFF" stroke="#000000" stroke-miterlimit="10" x1="43.6" y1="569.4" x2="5.2" y2="634.5"/>
	<line fill="#FFFFFF" stroke="#000000" stroke-miterlimit="10" x1="142.8" y1="666.7" x2="196.4" y2="638.4"/>
	<line fill="#FFFFFF" stroke="#000000" stroke-miterlimit="10" x1="215.1" y1="382.8" x2="246.6" y2="433.3"/>
	<line fill="#FFFFFF" stroke="#000000" stroke-miterlimit="10" x1="319" y1="313.6" x2="352.1" y2="372.2"/>
	<line fill="#FFFFFF" stroke="#000000" stroke-miterlimit="10" x1="226.7" y1="284.9" x2="287.9" y2="319"/>
	<line fill="#FFFFFF" stroke="#000000" stroke-miterlimit="10" x1="525.4" y1="243.7" x2="493" y2="189.4"/>
	<rect x="43.6" y="3.8" fill="#838383" stroke="#000000" stroke-miterlimit="10" width="617.4" height="28.4"/>
	<rect x="649.7" y="712.3" fill="#838383" stroke="#000000" stroke-miterlimit="10" width="11.2" height="81.4"/>
	<rect x="632.4" y="715.6" fill="#838383" stroke="#000000" stroke-miterlimit="10" width="17.4" height="57.2"/>
	<rect x="649.7" y="459.7" fill="#838383" stroke="#000000" stroke-miterlimit="10" width="11.2" height="140.8"/>
	<rect x="632.4" y="463" fill="#838383" stroke="#000000" stroke-miterlimit="10" width="17.4" height="57.2"/>
	<rect x="510.8" y="520.2" fill="#838383" stroke="#000000" stroke-miterlimit="10" width="139" height="17.7"/>
	<rect x="632.4" y="537.9" fill="#838383" stroke="#000000" stroke-miterlimit="10" width="17.4" height="59.3"/>
	<rect x="649.7" y="256.4" fill="#838383" stroke="#000000" stroke-miterlimit="10" width="11.2" height="91.6"/>
	<rect x="632.4" y="284.9" fill="#838383" stroke="#000000" stroke-miterlimit="10" width="17.4" height="57.5"/>
	<rect x="511.1" y="267.6" fill="#838383" stroke="#000000" stroke-miterlimit="10" width="138.6" height="17.4"/>
	<rect x="531.8" y="247.3" fill="#838383" stroke="#000000" stroke-miterlimit="10" width="11.2" height="20.3"/>
	<rect x="543" y="256.4" fill="#838383" stroke="#000000" stroke-miterlimit="10" width="106.8" height="11.2"/>
	<rect x="511.1" y="250.2" fill="#838383" stroke="#000000" stroke-miterlimit="10" width="20.6" height="17.4"/>
	<rect x="511.1" y="32.2" fill="#838383" stroke="#000000" stroke-miterlimit="10" width="20.6" height="102.2"/>
	<rect x="531.8" y="32.2" fill="#838383" stroke="#000000" stroke-miterlimit="10" width="11.2" height="108.4"/>
	<rect x="543" y="32.2" fill="#838383" stroke="#000000" stroke-miterlimit="10" width="118" height="11"/>
	<rect x="43.6" y="32.2" fill="#838383" stroke="#000000" stroke-miterlimit="10" width="21.7" height="252.4"/>
	<rect x="177.8" y="253.1" fill="#838383" stroke="#000000" stroke-miterlimit="10" width="37.3" height="38.6"/>
	<rect x="43.6" y="284.6" fill="#838383" stroke="#000000" stroke-miterlimit="10" width="16.3" height="284.8"/>
	<rect x="177.7" y="514.2" fill="#838383" stroke="#000000" stroke-miterlimit="10" width="37.5" height="37.5"/>
	<rect x="59.9" y="523.8" fill="#838383" stroke="#000000" stroke-miterlimit="10" width="7.1" height="45.6"/>
	<rect x="43.6" y="643.9" fill="#838383" stroke="#000000" stroke-miterlimit="10" width="44.2" height="22.8"/>
	<rect x="43.6" y="772.8" fill="#838383" stroke="#000000" stroke-miterlimit="10" width="606.2" height="21"/>
	<rect x="65.7" y="666.7" fill="#838383" stroke="#000000" stroke-miterlimit="10" width="22.1" height="106"/>
	<rect x="87.7" y="666.7" fill="#C6C6C6" stroke="#000000" stroke-miterlimit="10" width="55.1" height="9.2"/>
	<rect x="87.7" y="676" fill="#C6C6C6" stroke="#000000" stroke-miterlimit="10" width="7.1" height="96.8"/>
	<rect x="203.4" y="666.7" fill="#C6C6C6" stroke="#000000" stroke-miterlimit="10" width="55.1" height="9.2"/>
	<rect x="249.2" y="676" fill="#C6C6C6" stroke="#000000" stroke-miterlimit="10" width="9.2" height="96.8"/>
	<rect x="209.3" y="676" fill="#C6C6C6" stroke="#000000" stroke-miterlimit="10" width="7.1" height="69.5"/>
	<rect x="209.3" y="745.5" fill="#C6C6C6" stroke="#000000" stroke-miterlimit="10" width="3" height="27.1"/>
	<rect x="59.9" y="514.2" fill="#C6C6C6" stroke="#000000" stroke-miterlimit="10" width="117.8" height="9.2"/>
	<rect x="309.8" y="520.2" fill="#C6C6C6" stroke="#000000" stroke-miterlimit="10" width="201" height="9.2"/>
	<rect x="205.9" y="291.7" fill="#C6C6C6" stroke="#000000" stroke-miterlimit="10" width="9.2" height="91.2"/>
	<rect x="205.9" y="445.3" fill="#C6C6C6" stroke="#000000" stroke-miterlimit="10" width="9.2" height="68.9"/>
	<rect x="298.6" y="275.7" fill="#C6C6C6" stroke="#000000" stroke-miterlimit="10" width="212.5" height="9.2"/>
	<rect x="309.8" y="382.8" fill="#C6C6C6" stroke="#000000" stroke-miterlimit="10" width="9.2" height="137.3"/>
	<rect x="309.8" y="284.9" fill="#C6C6C6" stroke="#000000" stroke-miterlimit="10" width="9.2" height="28.7"/>
	<rect x="215.1" y="275.7" fill="#C6C6C6" stroke="#000000" stroke-miterlimit="10" width="11.6" height="9.2"/>
	<rect x="65.3" y="275.7" fill="#C6C6C6" stroke="#000000" stroke-miterlimit="10" width="112.5" height="7.1"/>
	<rect x="59.9" y="284.6" fill="#C6C6C6" stroke="#000000" stroke-miterlimit="10" width="118" height="7.1"/>
	<rect x="59.9" y="291.7" fill="#C6C6C6" stroke="#000000" stroke-miterlimit="10" width="7.1" height="222.5"/>
	<rect x="148.3" y="291.7" fill="#C6C6C6" stroke="#000000" stroke-miterlimit="10" width="7.1" height="39.4"/>
	<rect x="92.9" y="324" fill="#C6C6C6" stroke="#000000" stroke-miterlimit="10" width="55.5" height="7.1"/>
	<rect x="66.9" y="327.9" fill="#C6C6C6" stroke="#000000" stroke-miterlimit="10" width="25.9" height="3.2"/>
	<rect x="43.6" y="666.7" fill="#C6C6C6" stroke="#000000" stroke-miterlimit="10" width="4.7" height="106"/>
	<g>
		<path d="M356.8,215.8c-1.1-0.6-1.9-1.4-2.5-2.5c-0.6-1.1-0.9-2.2-0.9-3.5c0-1.3,0.3-2.5,0.9-3.5c0.6-1.1,1.5-1.9,2.5-2.5
			c1.1-0.6,2.3-0.9,3.6-0.9c1,0,1.9,0.2,2.8,0.5c0.9,0.3,1.6,0.8,2.2,1.5l-0.9,0.9c-1.1-1.1-2.4-1.6-4-1.6c-1.1,0-2,0.2-2.9,0.7
			c-0.9,0.5-1.6,1.2-2.1,2s-0.7,1.8-0.7,2.9c0,1.1,0.2,2,0.7,2.9c0.5,0.9,1.2,1.5,2.1,2c0.9,0.5,1.8,0.7,2.9,0.7c1.6,0,3-0.5,4-1.6
			l0.9,0.9c-0.6,0.6-1.3,1.1-2.2,1.5c-0.9,0.3-1.8,0.5-2.8,0.5C359.1,216.7,357.9,216.4,356.8,215.8z"/>
		<path d="M377.2,206.4v10.2h-1.4v-9h-6.4v9h-1.4v-10.2H377.2z"/>
		<path d="M387.7,207.3c0.7,0.7,1.1,1.6,1.1,2.9v6.3h-1.3V215c-0.3,0.5-0.8,0.9-1.4,1.2c-0.6,0.3-1.3,0.4-2.1,0.4
			c-1.1,0-2-0.3-2.7-0.8c-0.7-0.5-1-1.3-1-2.1c0-0.9,0.3-1.6,0.9-2.1c0.6-0.5,1.6-0.8,3-0.8h3.2v-0.6c0-0.9-0.2-1.5-0.7-2
			c-0.5-0.5-1.2-0.7-2.1-0.7c-0.6,0-1.3,0.1-1.9,0.3s-1.1,0.5-1.5,0.9l-0.6-1c0.5-0.4,1.1-0.8,1.9-1c0.7-0.2,1.5-0.4,2.3-0.4
			C385.9,206.3,386.9,206.6,387.7,207.3z M386.1,215c0.6-0.4,1-0.9,1.2-1.5v-1.7h-3.2c-1.7,0-2.6,0.6-2.6,1.8c0,0.6,0.2,1.1,0.7,1.4
			c0.5,0.3,1.1,0.5,1.9,0.5C384.9,215.6,385.6,215.4,386.1,215z"/>
		<path d="M400.7,206.4v10.2h-1.4v-9h-4.9l-0.1,2.5c-0.1,2.1-0.3,3.7-0.7,4.9s-1.1,1.7-2.1,1.7c-0.3,0-0.6-0.1-1-0.2l0.1-1.2
			c0.2,0.1,0.4,0.1,0.5,0.1c0.5,0,0.9-0.2,1.2-0.7c0.3-0.5,0.5-1.1,0.5-1.8c0.1-0.7,0.2-1.7,0.2-2.9l0.2-3.6H400.7z"/>
		<path d="M411.9,210.8c0.7,0.6,1,1.4,1,2.4c0,1.1-0.4,1.9-1.1,2.5c-0.7,0.6-1.8,0.9-3.1,0.9l-4.1,0v-10.2h1.4v3.6l3,0
			C410.2,210,411.2,210.3,411.9,210.8z M410.8,215c0.5-0.4,0.7-1,0.7-1.7c0-0.7-0.2-1.3-0.7-1.7s-1.2-0.5-2.1-0.6l-2.6,0v4.5l2.6,0
			C409.6,215.5,410.3,215.4,410.8,215z"/>
		<path d="M415.5,206.4h1.4v4.5h6.4v-4.5h1.4v10.2h-1.4v-4.5h-6.4v4.5h-1.4V206.4z"/>
		<path d="M436.3,206.4v10.2h-1.3v-3.4h-3.2h-0.4l-2.4,3.4h-1.5l2.5-3.6c-0.8-0.2-1.4-0.6-1.8-1.1c-0.4-0.5-0.6-1.2-0.6-2
			c0-1.1,0.4-2,1.2-2.6s1.8-0.9,3.2-0.9H436.3z M432,212.2h3.1v-4.6h-3c-2,0-3,0.8-3,2.3C429.1,211.4,430.1,212.2,432,212.2z"/>
		<path d="M358.7,228.6v16.9h-2.4v-14.8h-3.8v-2.1H358.7z"/>
		<path d="M374.9,238.3c0.5,0.7,0.8,1.5,0.8,2.5c0,1-0.3,1.9-0.8,2.6c-0.5,0.7-1.3,1.3-2.3,1.7c-1,0.4-2.2,0.6-3.6,0.6
			c-1.4,0-2.5-0.2-3.5-0.6c-1-0.4-1.8-1-2.3-1.7c-0.5-0.7-0.8-1.6-0.8-2.6c0-1,0.3-1.8,0.8-2.5c0.5-0.7,1.2-1.2,2.2-1.6
			c-0.8-0.4-1.4-0.9-1.8-1.5c-0.4-0.6-0.6-1.3-0.6-2.2c0-0.9,0.3-1.7,0.8-2.4c0.5-0.7,1.2-1.2,2.1-1.6c0.9-0.4,2-0.6,3.2-0.6
			c1.2,0,2.3,0.2,3.2,0.6c0.9,0.4,1.6,0.9,2.2,1.6c0.5,0.7,0.8,1.5,0.8,2.4c0,0.8-0.2,1.5-0.6,2.2c-0.4,0.6-1,1.1-1.8,1.5
			C373.7,237.1,374.4,237.6,374.9,238.3z M372.1,243c0.8-0.6,1.2-1.3,1.2-2.3c0-0.9-0.4-1.7-1.2-2.2c-0.8-0.5-1.8-0.8-3.2-0.8
			c-1.3,0-2.4,0.3-3.1,0.8c-0.8,0.5-1.1,1.3-1.1,2.2c0,1,0.4,1.7,1.1,2.3c0.8,0.6,1.8,0.8,3.1,0.8
			C370.3,243.8,371.4,243.5,372.1,243z M366.3,231.1c-0.7,0.5-1,1.2-1,2c0,0.8,0.3,1.5,1,2s1.6,0.7,2.7,0.7c1.2,0,2.1-0.2,2.8-0.7
			c0.7-0.5,1-1.1,1-2c0-0.8-0.3-1.5-1-2s-1.6-0.7-2.7-0.7C367.8,230.4,366.9,230.6,366.3,231.1z"/>
		<path d="M380.9,242.9c0.3,0.3,0.4,0.7,0.4,1.2c0,0.2,0,0.5-0.1,0.7c-0.1,0.2-0.2,0.6-0.3,1l-1.1,3.4h-1.5l0.9-3.6
			c-0.3-0.1-0.6-0.3-0.7-0.6c-0.2-0.3-0.3-0.6-0.3-0.9c0-0.5,0.2-0.9,0.5-1.2c0.3-0.3,0.7-0.5,1.2-0.5
			C380.3,242.4,380.6,242.5,380.9,242.9z"/>
		<path d="M386.7,244.7c-1-0.7-1.9-1.7-2.5-3c-0.6-1.3-0.9-2.9-0.9-4.6c0-1.8,0.3-3.3,0.9-4.6c0.6-1.3,1.4-2.3,2.5-3
			c1-0.7,2.2-1,3.6-1c1.3,0,2.5,0.3,3.5,1c1,0.7,1.9,1.7,2.5,3c0.6,1.3,0.9,2.9,0.9,4.6c0,1.8-0.3,3.3-0.9,4.6
			c-0.6,1.3-1.4,2.3-2.5,3c-1,0.7-2.2,1-3.5,1C389,245.7,387.8,245.4,386.7,244.7z M393.5,241.9c0.8-1.1,1.2-2.7,1.2-4.8
			c0-2.1-0.4-3.7-1.2-4.8s-1.9-1.7-3.3-1.7c-1.4,0-2.5,0.6-3.3,1.7s-1.2,2.7-1.2,4.8c0,2.1,0.4,3.7,1.2,4.8c0.8,1.1,1.9,1.7,3.3,1.7
			C391.6,243.6,392.7,243,393.5,241.9z"/>
	</g>
	<g>
		<path d="M382.8,346.5c-1.1-0.6-1.9-1.4-2.5-2.5c-0.6-1.1-0.9-2.2-0.9-3.5c0-1.3,0.3-2.5,0.9-3.5c0.6-1.1,1.5-1.9,2.5-2.5
			c1.1-0.6,2.3-0.9,3.6-0.9c1,0,1.9,0.2,2.8,0.5c0.9,0.3,1.6,0.8,2.2,1.5l-0.9,0.9c-1.1-1.1-2.4-1.6-4-1.6c-1.1,0-2,0.2-2.9,0.7
			c-0.9,0.5-1.6,1.2-2.1,2s-0.7,1.8-0.7,2.9c0,1.1,0.2,2,0.7,2.9c0.5,0.9,1.2,1.5,2.1,2c0.9,0.5,1.8,0.7,2.9,0.7c1.6,0,3-0.5,4-1.6
			l0.9,0.9c-0.6,0.6-1.3,1.1-2.2,1.5c-0.9,0.3-1.8,0.5-2.8,0.5C385.1,347.4,383.9,347.1,382.8,346.5z"/>
		<path d="M403.2,337.1v10.2h-1.4v-9h-6.4v9h-1.4v-10.2H403.2z"/>
		<path d="M413.6,338c0.7,0.7,1.1,1.6,1.1,2.9v6.3h-1.3v-1.6c-0.3,0.5-0.8,0.9-1.4,1.2c-0.6,0.3-1.3,0.4-2.1,0.4
			c-1.1,0-2-0.3-2.7-0.8c-0.7-0.5-1-1.3-1-2.1c0-0.9,0.3-1.6,0.9-2.1c0.6-0.5,1.6-0.8,3-0.8h3.2v-0.6c0-0.9-0.2-1.5-0.7-2
			c-0.5-0.5-1.2-0.7-2.1-0.7c-0.6,0-1.3,0.1-1.9,0.3s-1.1,0.5-1.5,0.9l-0.6-1c0.5-0.4,1.1-0.8,1.9-1c0.7-0.2,1.5-0.4,2.3-0.4
			C411.9,337,412.9,337.4,413.6,338z M412.1,345.8c0.6-0.4,1-0.9,1.2-1.5v-1.7h-3.2c-1.7,0-2.6,0.6-2.6,1.8c0,0.6,0.2,1.1,0.7,1.4
			c0.5,0.3,1.1,0.5,1.9,0.5C410.9,346.3,411.5,346.1,412.1,345.8z"/>
		<path d="M426.7,337.1v10.2h-1.4v-9h-4.9l-0.1,2.5c-0.1,2.1-0.3,3.7-0.7,4.9s-1.1,1.7-2.1,1.7c-0.3,0-0.6-0.1-1-0.2l0.1-1.2
			c0.2,0.1,0.4,0.1,0.5,0.1c0.5,0,0.9-0.2,1.2-0.7c0.3-0.5,0.5-1.1,0.5-1.8c0.1-0.7,0.2-1.7,0.2-2.9l0.2-3.6H426.7z"/>
		<path d="M437.9,341.6c0.7,0.6,1,1.4,1,2.4c0,1.1-0.4,1.9-1.1,2.5c-0.7,0.6-1.8,0.9-3.1,0.9l-4.1,0v-10.2h1.4v3.6l3,0
			C436.2,340.7,437.2,341,437.9,341.6z M436.7,345.7c0.5-0.4,0.7-1,0.7-1.7c0-0.7-0.2-1.3-0.7-1.7s-1.2-0.5-2.1-0.6l-2.6,0v4.5
			l2.6,0C435.5,346.3,436.3,346.1,436.7,345.7z"/>
		<path d="M441.5,337.1h1.4v4.5h6.4v-4.5h1.4v10.2h-1.4v-4.5h-6.4v4.5h-1.4V337.1z"/>
		<path d="M462.3,337.1v10.2h-1.3v-3.4h-3.2h-0.4l-2.4,3.4h-1.5l2.5-3.6c-0.8-0.2-1.4-0.6-1.8-1.1c-0.4-0.5-0.6-1.2-0.6-2
			c0-1.1,0.4-2,1.2-2.6s1.8-0.9,3.2-0.9H462.3z M458,342.9h3.1v-4.6h-3c-2,0-3,0.8-3,2.3C455.1,342.1,456.1,342.9,458,342.9z"/>
		<path d="M384.7,359.4v16.9h-2.4v-14.8h-3.8v-2.1H384.7z"/>
		<path d="M400.3,374.2v2.1h-12.2v-1.6l6.9-6.6c0.8-0.8,1.4-1.5,1.7-2.1c0.3-0.6,0.4-1.2,0.4-1.8c0-0.9-0.3-1.6-0.9-2.1
			s-1.5-0.7-2.7-0.7c-1.9,0-3.3,0.6-4.3,1.8l-1.6-1.4c0.7-0.8,1.5-1.4,2.6-1.9c1.1-0.5,2.3-0.7,3.6-0.7c1.8,0,3.2,0.4,4.2,1.3
			c1,0.8,1.6,2,1.6,3.4c0,0.9-0.2,1.8-0.6,2.6s-1.1,1.7-2.2,2.8l-5.2,5H400.3z"/>
		<path d="M405.2,373.6c0.3,0.3,0.4,0.7,0.4,1.2c0,0.2,0,0.5-0.1,0.7c-0.1,0.2-0.2,0.6-0.3,1l-1.1,3.4h-1.5l0.9-3.6
			c-0.3-0.1-0.6-0.3-0.7-0.6c-0.2-0.3-0.3-0.6-0.3-0.9c0-0.5,0.2-0.9,0.5-1.2c0.3-0.3,0.7-0.5,1.2-0.5
			C404.5,373.1,404.9,373.3,405.2,373.6z"/>
		<path d="M418.1,367.5c1.1,0.9,1.7,2.2,1.7,3.7c0,1-0.2,1.9-0.7,2.7c-0.5,0.8-1.2,1.4-2.2,1.9c-1,0.5-2.1,0.7-3.5,0.7
			c-1.2,0-2.3-0.2-3.5-0.5c-1.1-0.4-2-0.9-2.8-1.5l1.1-1.9c0.6,0.5,1.3,1,2.2,1.3c0.9,0.3,1.9,0.5,2.9,0.5c1.3,0,2.3-0.3,3-0.8
			c0.7-0.5,1.1-1.3,1.1-2.2c0-1-0.4-1.8-1.2-2.3c-0.8-0.5-2.1-0.8-4-0.8h-3.8l0.9-8.8h9.5v2.1h-7.5l-0.5,4.6h1.9
			C415.2,366.1,417,366.6,418.1,367.5z"/>
	</g>
	<g>
		<path d="M520.1,591.1H517v6.2h-1.4v-13.5h1.4v6.1h3.1l4.6-6.1h1.5l-5,6.6l5.3,7h-1.6L520.1,591.1z"/>
		<path d="M537,587.1l-5.1,11.4c-0.4,1-0.9,1.6-1.4,2c-0.5,0.4-1.2,0.6-2,0.6c-0.5,0-0.9-0.1-1.4-0.2c-0.4-0.2-0.8-0.4-1.1-0.7
			l0.6-1c0.5,0.5,1.1,0.8,1.9,0.8c0.5,0,0.9-0.1,1.2-0.4c0.3-0.3,0.6-0.7,0.9-1.3l0.4-1l-4.5-10.2h1.4l3.8,8.6l3.8-8.6H537z"/>
		<path d="M544.9,597.3l-3.2-4.3l-3.2,4.3h-1.5l4-5.2l-3.8-4.9h1.5l3.1,4l3.1-4h1.5l-3.8,4.9l4.1,5.2H544.9z"/>
		<path d="M548.8,587.1h1.4v4.5h6.4v-4.5h1.4v10.2h-1.4v-4.5h-6.4v4.5h-1.4V587.1z"/>
		<path d="M569.6,587.1v10.2h-1.3v-3.4h-3.2h-0.4l-2.4,3.4h-1.5l2.5-3.6c-0.8-0.2-1.4-0.6-1.8-1.1c-0.4-0.5-0.6-1.2-0.6-2
			c0-1.1,0.4-2,1.2-2.6s1.8-0.9,3.2-0.9H569.6z M565.3,592.9h3.1v-4.6h-3c-2,0-3,0.8-3,2.3C562.4,592.1,563.4,592.9,565.3,592.9z"/>
		<path d="M572.7,591.4h5.1v1.2h-5.1V591.4z"/>
		<path d="M516.8,619.9c-0.8-0.4-1.4-1.1-1.9-1.8s-0.7-1.7-0.7-2.7c0-1,0.2-1.9,0.7-2.7s1.1-1.4,1.9-1.8c0.8-0.4,1.7-0.7,2.7-0.7
			c0.9,0,1.7,0.2,2.3,0.5c0.7,0.3,1.2,0.8,1.6,1.5l-1,0.7c-0.3-0.5-0.8-0.9-1.3-1.1c-0.5-0.3-1.1-0.4-1.7-0.4c-0.7,0-1.4,0.2-2,0.5
			c-0.6,0.3-1,0.8-1.4,1.4c-0.3,0.6-0.5,1.3-0.5,2.1c0,0.8,0.2,1.5,0.5,2.1c0.3,0.6,0.8,1.1,1.4,1.4c0.6,0.3,1.2,0.5,2,0.5
			c0.6,0,1.2-0.1,1.7-0.4c0.5-0.2,0.9-0.6,1.3-1.1l1,0.7c-0.4,0.7-0.9,1.2-1.6,1.5c-0.7,0.3-1.5,0.5-2.3,0.5
			C518.5,620.6,517.6,620.3,516.8,619.9z"/>
		<path d="M533.1,611.5h-3.8v9h-1.4v-9h-3.8v-1.2h9.1V611.5z"/>
		<path d="M536.2,619.9c-0.8-0.4-1.4-1.1-1.9-1.8s-0.7-1.7-0.7-2.7c0-1,0.2-1.9,0.7-2.7s1.1-1.4,1.9-1.8c0.8-0.4,1.7-0.7,2.6-0.7
			s1.9,0.2,2.6,0.7s1.4,1.1,1.8,1.8s0.7,1.7,0.7,2.7c0,1-0.2,1.9-0.7,2.7s-1.1,1.4-1.8,1.8s-1.7,0.7-2.6,0.7S537,620.3,536.2,619.9z
			 M540.8,618.8c0.6-0.3,1-0.8,1.3-1.4c0.3-0.6,0.5-1.3,0.5-2.1s-0.2-1.5-0.5-2.1c-0.3-0.6-0.8-1.1-1.3-1.4
			c-0.6-0.3-1.2-0.5-1.9-0.5s-1.4,0.2-1.9,0.5c-0.6,0.3-1,0.8-1.4,1.4c-0.3,0.6-0.5,1.3-0.5,2.1s0.2,1.5,0.5,2.1
			c0.3,0.6,0.8,1.1,1.4,1.4c0.6,0.3,1.2,0.5,1.9,0.5S540.2,619.2,540.8,618.8z"/>
		<path d="M555.2,610.3v10.2h-1.4v-9H549l-0.1,2.5c-0.1,2.1-0.3,3.7-0.7,4.9c-0.4,1.1-1.1,1.7-2.1,1.7c-0.3,0-0.6-0.1-1-0.2l0.1-1.2
			c0.2,0.1,0.4,0.1,0.5,0.1c0.5,0,0.9-0.2,1.2-0.7c0.3-0.5,0.5-1.1,0.5-1.8c0.1-0.7,0.2-1.7,0.2-2.9l0.2-3.6H555.2z"/>
		<path d="M560.7,619.9c-0.8-0.4-1.4-1.1-1.9-1.8s-0.7-1.7-0.7-2.7c0-1,0.2-1.9,0.7-2.7s1.1-1.4,1.9-1.8c0.8-0.4,1.7-0.7,2.6-0.7
			s1.9,0.2,2.6,0.7s1.4,1.1,1.8,1.8s0.7,1.7,0.7,2.7c0,1-0.2,1.9-0.7,2.7s-1.1,1.4-1.8,1.8s-1.7,0.7-2.6,0.7
			S561.5,620.3,560.7,619.9z M565.3,618.8c0.6-0.3,1-0.8,1.3-1.4c0.3-0.6,0.5-1.3,0.5-2.1s-0.2-1.5-0.5-2.1
			c-0.3-0.6-0.8-1.1-1.3-1.4c-0.6-0.3-1.2-0.5-1.9-0.5s-1.4,0.2-1.9,0.5c-0.6,0.3-1,0.8-1.4,1.4c-0.3,0.6-0.5,1.3-0.5,2.1
			s0.2,1.5,0.5,2.1c0.3,0.6,0.8,1.1,1.4,1.4c0.6,0.3,1.2,0.5,1.9,0.5S564.7,619.2,565.3,618.8z"/>
		<path d="M580,617.7c0,0.9-0.3,1.6-1,2c-0.7,0.5-1.6,0.7-2.9,0.7h-4.6v-10.2h4.5c1.2,0,2.1,0.2,2.7,0.7c0.7,0.5,1,1.1,1,1.9
			c0,0.6-0.2,1-0.5,1.4c-0.3,0.4-0.7,0.7-1.3,0.9C579.3,615.5,580,616.4,580,617.7z M572.8,614.8h3.1c0.8,0,1.4-0.1,1.8-0.4
			c0.4-0.3,0.6-0.7,0.6-1.3s-0.2-1-0.6-1.3c-0.4-0.3-1-0.4-1.8-0.4h-3.1V614.8z M578,619c0.4-0.3,0.7-0.7,0.7-1.3
			c0-0.6-0.2-1.1-0.6-1.3s-1-0.4-1.9-0.4h-3.4v3.5h3.2C576.9,619.4,577.5,619.2,578,619z"/>
		<path d="M589.7,611.2c0.7,0.7,1.1,1.6,1.1,2.9v6.3h-1.3v-1.6c-0.3,0.5-0.8,0.9-1.4,1.2c-0.6,0.3-1.3,0.4-2.1,0.4
			c-1.1,0-2-0.3-2.7-0.8c-0.7-0.5-1-1.3-1-2.1c0-0.9,0.3-1.6,0.9-2.1s1.6-0.8,3-0.8h3.2v-0.6c0-0.9-0.2-1.5-0.7-2
			c-0.5-0.5-1.2-0.7-2.1-0.7c-0.6,0-1.3,0.1-1.9,0.3s-1.1,0.5-1.5,0.9l-0.6-1c0.5-0.4,1.1-0.8,1.9-1s1.5-0.4,2.3-0.4
			C588,610.2,589,610.5,589.7,611.2z M588.2,618.9c0.6-0.4,1-0.9,1.2-1.5v-1.7h-3.2c-1.7,0-2.6,0.6-2.6,1.8c0,0.6,0.2,1.1,0.7,1.4
			c0.5,0.3,1.1,0.5,1.9,0.5C587,619.5,587.6,619.3,588.2,618.9z"/>
		<path d="M602.3,610.3v10.2H601v-3.4h-3.2h-0.4l-2.4,3.4h-1.5l2.5-3.6c-0.8-0.2-1.4-0.6-1.8-1.1c-0.4-0.5-0.6-1.2-0.6-2
			c0-1.1,0.4-2,1.2-2.6s1.8-0.9,3.2-0.9H602.3z M597.9,616.1h3.1v-4.6h-3c-2,0-3,0.8-3,2.3C595,615.3,596,616.1,597.9,616.1z"/>
		<path d="M519.7,632.5v16.9h-2.4v-14.8h-3.8v-2.1H519.7z"/>
		<path d="M533.7,639.8c0.9,0.4,1.6,1,2.1,1.8c0.5,0.8,0.7,1.7,0.7,2.7c0,1.1-0.3,2-0.8,2.8c-0.5,0.8-1.2,1.4-2.2,1.9
			c-0.9,0.4-1.9,0.7-3.1,0.7c-2.3,0-4-0.7-5.3-2.2s-1.8-3.5-1.8-6.2c0-1.9,0.3-3.5,1-4.8c0.7-1.3,1.6-2.3,2.8-3c1.2-0.7,2.6-1,4.2-1
			c0.8,0,1.6,0.1,2.3,0.3c0.7,0.2,1.4,0.4,1.9,0.7l-0.9,1.9c-0.8-0.5-1.9-0.8-3.2-0.8c-1.8,0-3.1,0.5-4.1,1.6
			c-1,1.1-1.5,2.7-1.5,4.7c0,0.3,0,0.5,0,0.6c0.5-0.7,1.1-1.3,2-1.7s1.8-0.6,2.9-0.6C531.9,639.2,532.8,639.4,533.7,639.8z
			 M533.2,646.8c0.7-0.6,1-1.4,1-2.4s-0.4-1.8-1.1-2.4c-0.7-0.6-1.6-0.9-2.8-0.9c-0.8,0-1.4,0.1-2,0.4c-0.6,0.3-1,0.7-1.4,1.2
			s-0.5,1.1-0.5,1.7c0,0.6,0.2,1.1,0.5,1.6c0.3,0.5,0.8,0.9,1.4,1.2c0.6,0.3,1.3,0.4,2.2,0.4C531.6,647.7,532.5,647.4,533.2,646.8z"
			/>
		<path d="M541.3,646.8c0.3,0.3,0.4,0.7,0.4,1.2c0,0.2,0,0.5-0.1,0.7s-0.2,0.6-0.3,1l-1.1,3.4h-1.5l0.9-3.6
			c-0.3-0.1-0.6-0.3-0.7-0.6c-0.2-0.3-0.3-0.6-0.3-0.9c0-0.5,0.2-0.9,0.5-1.2c0.3-0.3,0.7-0.5,1.2-0.5
			C540.7,646.3,541,646.5,541.3,646.8z"/>
		<path d="M547.1,648.6c-1-0.7-1.9-1.7-2.5-3c-0.6-1.3-0.9-2.9-0.9-4.6c0-1.8,0.3-3.3,0.9-4.6c0.6-1.3,1.4-2.3,2.5-3
			c1-0.7,2.2-1,3.6-1c1.3,0,2.5,0.3,3.5,1c1,0.7,1.9,1.7,2.5,3c0.6,1.3,0.9,2.9,0.9,4.6c0,1.8-0.3,3.3-0.9,4.6
			c-0.6,1.3-1.4,2.3-2.5,3c-1,0.7-2.2,1-3.5,1C549.4,649.7,548.2,649.3,547.1,648.6z M554,645.8c0.8-1.1,1.2-2.7,1.2-4.8
			c0-2.1-0.4-3.7-1.2-4.8c-0.8-1.1-1.9-1.7-3.3-1.7c-1.4,0-2.5,0.6-3.3,1.7c-0.8,1.1-1.2,2.7-1.2,4.8c0,2.1,0.4,3.7,1.2,4.8
			c0.8,1.1,1.9,1.7,3.3,1.7C552.1,647.5,553.1,646.9,554,645.8z"/>
	</g>
	<g>
		<path d="M136,608.8c0.9,0.9,1.3,2,1.3,3.3c0,1-0.2,1.8-0.7,2.6c-0.5,0.8-1.2,1.4-2.2,1.9c-1,0.5-2.1,0.7-3.5,0.7
			c-1.2,0-2.4-0.2-3.5-0.5c-1.1-0.4-2-0.9-2.7-1.5l1.1-1.9c0.6,0.5,1.3,1,2.2,1.3s1.9,0.5,2.9,0.5c1.3,0,2.2-0.3,2.9-0.8
			c0.7-0.5,1.1-1.3,1.1-2.2s-0.3-1.7-1-2.2c-0.7-0.5-1.7-0.8-3.1-0.8h-1.4v-1.7l4.3-5.2h-8.1v-2.1h11.2v1.6l-4.4,5.5
			C133.8,607.5,135.1,608,136,608.8z"/>
		<path d="M142.3,614.4c0.3,0.3,0.4,0.7,0.4,1.2c0,0.2,0,0.5-0.1,0.7c-0.1,0.2-0.2,0.6-0.3,1l-1.1,3.4h-1.5l0.9-3.6
			c-0.3-0.1-0.6-0.3-0.7-0.6c-0.2-0.3-0.3-0.6-0.3-0.9c0-0.5,0.2-0.9,0.5-1.2c0.3-0.3,0.7-0.5,1.2-0.5
			C141.6,613.9,142,614.1,142.3,614.4z"/>
		<path d="M155.5,608.8c0.9,0.9,1.3,2,1.3,3.3c0,1-0.2,1.8-0.7,2.6c-0.5,0.8-1.2,1.4-2.2,1.9c-1,0.5-2.1,0.7-3.5,0.7
			c-1.2,0-2.4-0.2-3.5-0.5c-1.1-0.4-2-0.9-2.7-1.5l1.1-1.9c0.6,0.5,1.3,1,2.2,1.3s1.9,0.5,2.9,0.5c1.3,0,2.2-0.3,2.9-0.8
			c0.7-0.5,1.1-1.3,1.1-2.2s-0.3-1.7-1-2.2c-0.7-0.5-1.7-0.8-3.1-0.8h-1.4v-1.7l4.3-5.2H145v-2.1h11.2v1.6l-4.4,5.5
			C153.4,607.5,154.6,608,155.5,608.8z"/>
	</g>
	<g>
		<path d="M257,490.8c0.9,0.9,1.3,2,1.3,3.3c0,1-0.2,1.8-0.7,2.6c-0.5,0.8-1.2,1.4-2.2,1.9c-1,0.5-2.1,0.7-3.5,0.7
			c-1.2,0-2.4-0.2-3.5-0.5c-1.1-0.4-2-0.9-2.7-1.5l1.1-1.9c0.6,0.5,1.3,1,2.2,1.3c0.9,0.3,1.9,0.5,2.9,0.5c1.3,0,2.2-0.3,2.9-0.8
			s1.1-1.3,1.1-2.2s-0.3-1.7-1-2.2s-1.7-0.8-3.1-0.8h-1.4v-1.7l4.3-5.2h-8.1v-2.1h11.2v1.6l-4.4,5.5
			C254.9,489.5,256.1,490,257,490.8z"/>
		<path d="M263.3,496.4c0.3,0.3,0.4,0.7,0.4,1.2c0,0.2,0,0.5-0.1,0.7s-0.2,0.6-0.3,1l-1.1,3.4h-1.5l0.9-3.6
			c-0.3-0.1-0.6-0.3-0.7-0.6c-0.2-0.3-0.3-0.6-0.3-0.9c0-0.5,0.2-0.9,0.5-1.2c0.3-0.3,0.7-0.5,1.2-0.5
			C262.6,496,263,496.1,263.3,496.4z"/>
		<path d="M276,489.5c0.9,0.4,1.6,1,2.1,1.8c0.5,0.8,0.7,1.7,0.7,2.7c0,1.1-0.3,2-0.8,2.8s-1.2,1.4-2.2,1.9s-1.9,0.7-3.1,0.7
			c-2.3,0-4-0.7-5.3-2.2c-1.2-1.5-1.8-3.5-1.8-6.2c0-1.9,0.3-3.5,1-4.8c0.7-1.3,1.6-2.3,2.8-3c1.2-0.7,2.6-1,4.2-1
			c0.8,0,1.6,0.1,2.3,0.3c0.7,0.2,1.4,0.4,1.9,0.7l-0.9,1.9c-0.8-0.5-1.9-0.8-3.2-0.8c-1.8,0-3.1,0.5-4.1,1.6
			c-1,1.1-1.5,2.7-1.5,4.7c0,0.3,0,0.5,0,0.6c0.5-0.7,1.1-1.3,2-1.7s1.8-0.6,2.9-0.6C274.2,488.9,275.2,489.1,276,489.5z
			 M275.5,496.5c0.7-0.6,1-1.4,1-2.4s-0.4-1.8-1.1-2.4c-0.7-0.6-1.6-0.9-2.8-0.9c-0.8,0-1.4,0.1-2,0.4c-0.6,0.3-1,0.7-1.4,1.2
			c-0.3,0.5-0.5,1.1-0.5,1.7c0,0.6,0.2,1.1,0.5,1.6c0.3,0.5,0.8,0.9,1.4,1.2s1.3,0.4,2.2,0.4C273.9,497.4,274.8,497.1,275.5,496.5z"
			/>
	</g>
	<g>
		<path d="M578.4,126.1c0.9,0.9,1.3,2,1.3,3.3c0,1-0.2,1.8-0.7,2.6c-0.5,0.8-1.2,1.4-2.2,1.9c-1,0.5-2.1,0.7-3.5,0.7
			c-1.2,0-2.4-0.2-3.5-0.5c-1.1-0.4-2-0.9-2.7-1.5l1.1-1.9c0.6,0.5,1.3,1,2.2,1.3c0.9,0.3,1.9,0.5,2.9,0.5c1.3,0,2.2-0.3,2.9-0.8
			c0.7-0.5,1.1-1.3,1.1-2.2c0-0.9-0.3-1.7-1-2.2s-1.7-0.8-3.1-0.8h-1.4v-1.7l4.3-5.2h-8.1v-2.1H579v1.6l-4.4,5.5
			C576.2,124.7,577.5,125.2,578.4,126.1z"/>
		<path d="M584.7,131.6c0.3,0.3,0.4,0.7,0.4,1.2c0,0.2,0,0.5-0.1,0.7c-0.1,0.2-0.2,0.6-0.3,1l-1.1,3.4H582l0.9-3.6
			c-0.3-0.1-0.6-0.3-0.7-0.6c-0.2-0.3-0.3-0.6-0.3-0.9c0-0.5,0.2-0.9,0.5-1.2c0.3-0.3,0.7-0.5,1.2-0.5
			C584,131.2,584.4,131.3,584.7,131.6z"/>
		<path d="M599.5,132.2v2.1h-12.2v-1.6l6.9-6.6c0.8-0.8,1.4-1.5,1.7-2.1c0.3-0.6,0.4-1.2,0.4-1.8c0-0.9-0.3-1.6-0.9-2.1
			s-1.5-0.7-2.7-0.7c-1.9,0-3.3,0.6-4.3,1.8l-1.6-1.4c0.7-0.8,1.5-1.4,2.6-1.9c1.1-0.5,2.3-0.7,3.6-0.7c1.8,0,3.2,0.4,4.2,1.3
			c1,0.8,1.6,2,1.6,3.4c0,0.9-0.2,1.8-0.6,2.6s-1.1,1.7-2.2,2.8l-5.2,5H599.5z"/>
	</g>
	<g>
		<path d="M113,739.1V756h-2.4v-14.8h-3.8v-2.1H113z"/>
		<path d="M119.5,753.3c0.3,0.3,0.4,0.7,0.4,1.2c0,0.2,0,0.5-0.1,0.7c-0.1,0.2-0.2,0.6-0.3,1l-1.1,3.4h-1.5l0.9-3.6
			c-0.3-0.1-0.6-0.3-0.7-0.6c-0.2-0.3-0.3-0.6-0.3-0.9c0-0.5,0.2-0.9,0.5-1.2c0.3-0.3,0.7-0.5,1.2-0.5
			C118.8,752.8,119.2,753,119.5,753.3z"/>
		<path d="M133,741.1c1.2,1.5,1.8,3.5,1.8,6.2c0,1.9-0.3,3.5-1,4.8s-1.6,2.3-2.8,3c-1.2,0.7-2.6,1-4.2,1c-0.8,0-1.6-0.1-2.3-0.3
			c-0.7-0.2-1.4-0.4-1.9-0.7l0.9-1.9c0.8,0.5,1.9,0.8,3.3,0.8c1.8,0,3.1-0.5,4.1-1.6c1-1.1,1.5-2.7,1.5-4.7v-0.6
			c-0.5,0.7-1.2,1.3-2,1.7s-1.8,0.6-2.9,0.6c-1.1,0-2.1-0.2-3-0.6c-0.9-0.4-1.6-1-2.1-1.8c-0.5-0.8-0.7-1.7-0.7-2.7
			c0-1.1,0.3-2,0.8-2.8c0.5-0.8,1.2-1.4,2.1-1.9s1.9-0.7,3-0.7C130,738.9,131.7,739.6,133,741.1z M129.9,746.9
			c0.6-0.3,1.1-0.7,1.4-1.2c0.3-0.5,0.5-1.1,0.5-1.7c0-0.6-0.2-1.1-0.5-1.6c-0.3-0.5-0.8-0.9-1.4-1.2c-0.6-0.3-1.3-0.4-2.2-0.4
			c-1.1,0-2,0.3-2.7,0.9c-0.7,0.6-1,1.4-1,2.4s0.3,1.8,1,2.4c0.7,0.6,1.6,0.9,2.8,0.9C128.7,747.4,129.3,747.2,129.9,746.9z"/>
	</g>
	<g>
		<path d="M151.3,378.7h-3.2v4.2h-2.3v-4.2h-9.4V377l8.7-11.1h2.6l-8.3,10.7h6.5V373h2.3v3.7h3.2V378.7z"/>
		<path d="M156,380.2c0.3,0.3,0.4,0.7,0.4,1.2c0,0.2,0,0.5-0.1,0.7c-0.1,0.2-0.2,0.6-0.3,1l-1.1,3.4h-1.5l0.9-3.6
			c-0.3-0.1-0.6-0.3-0.7-0.6c-0.2-0.3-0.3-0.6-0.3-0.9c0-0.5,0.2-0.9,0.5-1.2c0.3-0.3,0.7-0.5,1.2-0.5
			C155.3,379.7,155.7,379.9,156,380.2z"/>
		<path d="M171.5,375.6c0.5,0.7,0.8,1.5,0.8,2.5c0,1-0.3,1.9-0.8,2.6c-0.5,0.7-1.3,1.3-2.3,1.7c-1,0.4-2.2,0.6-3.6,0.6
			c-1.4,0-2.5-0.2-3.5-0.6c-1-0.4-1.8-1-2.3-1.7c-0.5-0.7-0.8-1.6-0.8-2.6c0-1,0.3-1.8,0.8-2.5s1.2-1.2,2.2-1.6
			c-0.8-0.4-1.4-0.9-1.8-1.5c-0.4-0.6-0.6-1.3-0.6-2.2c0-0.9,0.3-1.7,0.8-2.4c0.5-0.7,1.2-1.2,2.1-1.6c0.9-0.4,2-0.6,3.2-0.6
			c1.2,0,2.3,0.2,3.2,0.6c0.9,0.4,1.6,0.9,2.2,1.6c0.5,0.7,0.8,1.5,0.8,2.4c0,0.8-0.2,1.5-0.6,2.2c-0.4,0.6-1,1.1-1.8,1.5
			C170.3,374.4,171,374.9,171.5,375.6z M168.7,380.3c0.8-0.6,1.2-1.3,1.2-2.3c0-0.9-0.4-1.7-1.2-2.2c-0.8-0.5-1.8-0.8-3.2-0.8
			s-2.4,0.3-3.1,0.8c-0.8,0.5-1.1,1.3-1.1,2.2c0,1,0.4,1.7,1.1,2.3c0.8,0.6,1.8,0.8,3.1,0.8S168,380.8,168.7,380.3z M162.9,368.5
			c-0.7,0.5-1,1.2-1,2c0,0.8,0.3,1.5,1,2s1.6,0.7,2.7,0.7c1.2,0,2.1-0.2,2.8-0.7c0.7-0.5,1-1.1,1-2c0-0.8-0.3-1.5-1-2
			c-0.7-0.5-1.6-0.7-2.7-0.7S163.5,368,162.9,368.5z"/>
	</g>
	<g>
		
			<rect x="277.5" y="430.5" transform="matrix(-4.488606e-11 1 -1 -4.488606e-11 796.9215 109.6685)" fill-rule="evenodd" clip-rule="evenodd" fill="#F1F2F2" stroke="#848484" stroke-miterlimit="10" width="132.3" height="45.7"/>
		<line fill="#F1F2F2" stroke="#848484" stroke-miterlimit="10" x1="320.8" y1="391.9" x2="366.5" y2="391.9"/>
		<line fill="#F1F2F2" stroke="#848484" stroke-miterlimit="10" x1="320.8" y1="514.5" x2="366.5" y2="514.5"/>
		<line fill="#F1F2F2" stroke="#848484" stroke-miterlimit="10" x1="364.4" y1="391.9" x2="364.4" y2="514.5"/>
		<line fill="#F1F2F2" stroke="#848484" stroke-miterlimit="10" x1="343.3" y1="510.3" x2="343.3" y2="396.2"/>
		
			<rect x="342.1" y="388.2" transform="matrix(0.162 0.9868 -0.9868 0.162 684.7036 -2.0114)" fill="#F1F2F2" stroke="#848484" stroke-miterlimit="10" width="2.9" height="27.8"/>
		
			<rect x="342.1" y="398.4" transform="matrix(8.815246e-02 0.9961 -0.9961 8.815246e-02 724.0156 33.8186)" fill="#F1F2F2" stroke="#848484" stroke-miterlimit="10" width="2.9" height="27.8"/>
		
			<rect x="341.9" y="408.8" transform="matrix(0.229 0.9734 -0.9734 0.229 676.1948 -8.2387)" fill="#F1F2F2" stroke="#848484" stroke-miterlimit="10" width="2.9" height="27.8"/>
		
			<rect x="342.2" y="420.4" transform="matrix(0.152 0.9884 -0.9884 0.152 720.6431 28.6767)" fill="#F1F2F2" stroke="#848484" stroke-miterlimit="10" width="2.9" height="27.8"/>
		
			<rect x="342" y="430.5" transform="matrix(4.511170e-02 0.999 -0.999 4.511170e-02 771.9335 81.2734)" fill="#F1F2F2" stroke="#848484" stroke-miterlimit="10" width="2.9" height="27.8"/>
		
			<rect x="342" y="440.7" transform="matrix(0.152 0.9884 -0.9884 0.152 740.5992 46.0642)" fill="#F1F2F2" stroke="#848484" stroke-miterlimit="10" width="2.9" height="27.8"/>
		
			<rect x="341.9" y="451.1" transform="matrix(4.511170e-02 0.999 -0.999 4.511170e-02 792.3708 101.1055)" fill="#F1F2F2" stroke="#848484" stroke-miterlimit="10" width="2.9" height="27.8"/>
		
			<rect x="341.9" y="461.3" transform="matrix(0.2052 0.9787 -0.9787 0.2052 737.9686 41.7198)" fill="#F1F2F2" stroke="#848484" stroke-miterlimit="10" width="2.9" height="27.8"/>
		
			<rect x="341.9" y="471.5" transform="matrix(0.152 0.9884 -0.9884 0.152 770.8766 72.2567)" fill="#F1F2F2" stroke="#848484" stroke-miterlimit="10" width="2.9" height="27.8"/>
		
			<rect x="341.9" y="481.6" transform="matrix(8.473843e-02 0.9964 -0.9964 8.473843e-02 807.9974 111.5146)" fill="#F1F2F2" stroke="#848484" stroke-miterlimit="10" width="2.9" height="27.8"/>
		
			<rect x="342.2" y="491.8" transform="matrix(0.2379 0.9713 -0.9713 0.2379 753.1083 51.6527)" fill="#F1F2F2" stroke="#848484" stroke-miterlimit="10" width="2.9" height="27.8"/>
	</g>
	<g>
		
			<rect x="543.9" y="767.7" fill-rule="evenodd" clip-rule="evenodd" fill="#F1F2F2" stroke="#848484" stroke-miterlimit="10" width="45.5" height="3.2"/>
		
			<rect x="543.9" y="767.7" fill-rule="evenodd" clip-rule="evenodd" fill="#F1F2F2" stroke="#848484" stroke-miterlimit="10" width="45.5" height="3.2"/>
		
			<rect x="543.5" y="715.6" fill-rule="evenodd" clip-rule="evenodd" fill="#F1F2F2" stroke="#848484" stroke-miterlimit="10" width="15" height="4.4"/>
		
			<rect x="543.5" y="715.6" fill-rule="evenodd" clip-rule="evenodd" fill="#F1F2F2" stroke="#848484" stroke-miterlimit="10" width="15" height="4.4"/>
		
			<rect x="541.6" y="718.2" fill-rule="evenodd" clip-rule="evenodd" fill="#F1F2F2" stroke="#848484" stroke-miterlimit="10" width="50" height="49.9"/>
		
			<rect x="541.6" y="718.2" fill-rule="evenodd" clip-rule="evenodd" fill="#F1F2F2" stroke="#848484" stroke-miterlimit="10" width="50" height="49.9"/>
		<path fill-rule="evenodd" clip-rule="evenodd" fill="#F1F2F2" stroke="#848484" stroke-miterlimit="10" d="M591.5,722.7h-50H591.5
			z"/>
		<path fill-rule="evenodd" clip-rule="evenodd" fill="#F1F2F2" stroke="#848484" stroke-miterlimit="10" d="M593.9,722.8
			c0,1-0.9,2-2,2c-1.2,0-2-1-2-2c0-1.2,0.9-2.2,2-2.2C593,720.7,593.9,721.6,593.9,722.8z"/>
		<path fill-rule="evenodd" clip-rule="evenodd" fill="#F1F2F2" stroke="#848484" stroke-miterlimit="10" d="M593.9,722.8
			c0,1-0.9,2-2,2c-1.2,0-2-1-2-2c0-1.2,0.9-2.2,2-2.2C593,720.7,593.9,721.6,593.9,722.8z"/>
		<path fill-rule="evenodd" clip-rule="evenodd" fill="#F1F2F2" stroke="#848484" stroke-miterlimit="10" d="M566.3,748.4v-8.8
			V748.4z"/>
		<path fill-rule="evenodd" clip-rule="evenodd" fill="#F1F2F2" stroke="#848484" stroke-miterlimit="10" d="M570.5,744.1h-8.8
			H570.5z"/>
		<path fill-rule="evenodd" clip-rule="evenodd" fill="#F1F2F2" stroke="#848484" stroke-miterlimit="10" d="M569.3,740.8l-6.4,6.4
			L569.3,740.8z"/>
		<path fill-rule="evenodd" clip-rule="evenodd" fill="#F1F2F2" stroke="#848484" stroke-miterlimit="10" d="M563,740.8l6.4,6.4
			L563,740.8z"/>
		<path fill-rule="evenodd" clip-rule="evenodd" fill="#F1F2F2" stroke="#848484" stroke-miterlimit="10" d="M579.2,748.7l0-8.8
			L579.2,748.7z"/>
		<path fill-rule="evenodd" clip-rule="evenodd" fill="#F1F2F2" stroke="#848484" stroke-miterlimit="10" d="M583.6,744.3h-8.8
			H583.6z"/>
		<path fill-rule="evenodd" clip-rule="evenodd" fill="#F1F2F2" stroke="#848484" stroke-miterlimit="10" d="M582.3,741.1l-6.4,6.4
			L582.3,741.1z"/>
		<path fill-rule="evenodd" clip-rule="evenodd" fill="#F1F2F2" stroke="#848484" stroke-miterlimit="10" d="M576,741.1l6.4,6.4
			L576,741.1z"/>
		<path fill-rule="evenodd" clip-rule="evenodd" fill="#F1F2F2" stroke="#848484" stroke-miterlimit="10" d="M553.6,748.4v-8.8
			V748.4z"/>
		<path fill-rule="evenodd" clip-rule="evenodd" fill="#F1F2F2" stroke="#848484" stroke-miterlimit="10" d="M557.9,744.1h-8.8
			H557.9z"/>
		<path fill-rule="evenodd" clip-rule="evenodd" fill="#F1F2F2" stroke="#848484" stroke-miterlimit="10" d="M556.7,740.8l-6.4,6.4
			L556.7,740.8z"/>
		<path fill-rule="evenodd" clip-rule="evenodd" fill="#F1F2F2" stroke="#848484" stroke-miterlimit="10" d="M550.4,740.8l6.4,6.4
			L550.4,740.8z"/>
	</g>
	<g>
		<path fill="#F1F2F2" stroke="#848484" stroke-miterlimit="10" d="M177.3,524.5c0.3,4.1,0.5,15.9-5.3,24.3
			c-5.1,7.4-14.5,13.2-18.9,14.9H67.6v-39.1h85.6C161.2,524.5,169.3,524.5,177.3,524.5z M153.1,563.6v-39.1"/>
		
			<rect x="76.4" y="525.2" transform="matrix(-2.051631e-12 -1 1 -2.051631e-12 -448.1009 605.6802)" fill="#F1F2F2" stroke="#848484" stroke-miterlimit="10" width="4.9" height="3.5"/>
		
			<rect x="97.5" y="525.2" transform="matrix(-1.305561e-12 -1 1 -1.305561e-12 -426.944 626.8371)" fill="#F1F2F2" stroke="#848484" stroke-miterlimit="10" width="4.9" height="3.5"/>
		
			<rect x="118.4" y="525.2" transform="matrix(-2.611183e-12 -1 1 -2.611183e-12 -406.0034 647.7776)" fill="#F1F2F2" stroke="#848484" stroke-miterlimit="10" width="4.9" height="3.5"/>
		
			<rect x="139.6" y="525.2" transform="matrix(-1.865114e-12 -1 1 -1.865114e-12 -384.8466 668.9345)" fill="#F1F2F2" stroke="#848484" stroke-miterlimit="10" width="4.9" height="3.5"/>
		
			<rect x="78.4" y="520.6" transform="matrix(6.123234e-17 -1 1 6.123234e-17 -446.0489 603.6283)" fill="#F1F2F2" stroke="#848484" stroke-miterlimit="10" width="0.8" height="8.4"/>
		
			<rect x="99.5" y="520.6" transform="matrix(-4.474582e-12 -1 1 -4.474582e-12 -424.9786 624.6987)" fill="#F1F2F2" stroke="#848484" stroke-miterlimit="10" width="0.8" height="8.4"/>
		
			<rect x="120.5" y="520.6" transform="matrix(-4.474582e-12 -1 1 -4.474582e-12 -403.9515 645.7257)" fill="#F1F2F2" stroke="#848484" stroke-miterlimit="10" width="0.8" height="8.4"/>
		
			<rect x="141.6" y="520.6" transform="matrix(-3.356365e-12 -1 1 -3.356365e-12 -382.7947 666.8826)" fill="#F1F2F2" stroke="#848484" stroke-miterlimit="10" width="0.8" height="8.4"/>
	</g>
	<g>
		<g>
			<path fill="#F1F2F2" stroke="#848484" stroke-miterlimit="10" d="M485.6,97.4l-35.7-0.1c-1.1,0-2-0.9-2-2l0-32.3c0-1.1,0.9-2,2-2
				l35.7,0.1c1.1,0,2,0.9,2,2l0,32.3C487.6,96.5,486.7,97.4,485.6,97.4z"/>
			<path fill="#F1F2F2" stroke="#848484" stroke-miterlimit="10" d="M486.2,97.4l-36.9-0.1c-0.8,0-1.4,0.6-1.4,1.4l0,5.9
				c0,0.8,0.6,1.4,1.4,1.4l36.9,0.1c0.8,0,1.4-0.6,1.4-1.4l0-5.9C487.6,98,487,97.4,486.2,97.4z"/>
		</g>
		
			<rect x="427.2" y="34.2" fill-rule="evenodd" clip-rule="evenodd" fill="#F1F2F2" stroke="#848484" stroke-miterlimit="10" width="81.1" height="42.6"/>
		
			<rect x="345" y="34.2" fill-rule="evenodd" clip-rule="evenodd" fill="#F1F2F2" stroke="#848484" stroke-miterlimit="10" width="82.3" height="42.6"/>
	</g>
	<g>
		
			<rect x="66" y="33.5" transform="matrix(-1 -4.488777e-11 4.488777e-11 -1 289.6656 121.5459)" fill-rule="evenodd" clip-rule="evenodd" fill="#F1F2F2" stroke="#848484" stroke-miterlimit="10" width="157.7" height="54.4"/>
		<line fill="#F1F2F2" stroke="#848484" stroke-miterlimit="10" x1="218" y1="33.5" x2="218" y2="88.1"/>
		<line fill="#F1F2F2" stroke="#848484" stroke-miterlimit="10" x1="71.8" y1="33.5" x2="71.8" y2="88"/>
		<line fill="#F1F2F2" stroke="#848484" stroke-miterlimit="10" x1="218" y1="85.5" x2="71.8" y2="85.5"/>
		<line fill="#F1F2F2" stroke="#848484" stroke-miterlimit="10" x1="76.9" y1="60.4" x2="212.9" y2="60.4"/>
		
			<rect x="204.1" y="44.1" transform="matrix(-0.9868 0.162 -0.162 -0.9868 418.7934 87.1895)" fill="#F1F2F2" stroke="#848484" stroke-miterlimit="10" width="3.4" height="33.2"/>
		
			<rect x="191.9" y="44.1" transform="matrix(-0.9961 8.815246e-02 -8.815246e-02 -0.9961 391.8402 104.0256)" fill="#F1F2F2" stroke="#848484" stroke-miterlimit="10" width="3.4" height="33.2"/>
		
			<rect x="179.5" y="43.8" transform="matrix(-0.9734 0.229 -0.229 -0.9734 371.5135 77.652)" fill="#F1F2F2" stroke="#848484" stroke-miterlimit="10" width="3.4" height="33.2"/>
		
			<rect x="165.7" y="44.2" transform="matrix(-0.9884 0.152 -0.152 -0.9884 342.1822 95.3389)" fill="#F1F2F2" stroke="#848484" stroke-miterlimit="10" width="3.4" height="33.2"/>
		
			<rect x="153.7" y="44" transform="matrix(-0.999 4.511170e-02 -4.511170e-02 -0.999 313.3855 114.0613)" fill="#F1F2F2" stroke="#848484" stroke-miterlimit="10" width="3.4" height="33.2"/>
		
			<rect x="141.5" y="44" transform="matrix(-0.9884 0.152 -0.152 -0.9884 293.9774 98.6546)" fill="#F1F2F2" stroke="#848484" stroke-miterlimit="10" width="3.4" height="33.2"/>
		
			<rect x="129.1" y="43.8" transform="matrix(-0.999 4.511170e-02 -4.511170e-02 -0.999 264.2703 114.7995)" fill="#F1F2F2" stroke="#848484" stroke-miterlimit="10" width="3.4" height="33.2"/>
		
			<rect x="117" y="43.8" transform="matrix(-0.9787 0.2052 -0.2052 -0.9787 247.2711 95.1248)" fill="#F1F2F2" stroke="#848484" stroke-miterlimit="10" width="3.4" height="33.2"/>
		
			<rect x="104.9" y="43.8" transform="matrix(-0.9884 0.152 -0.152 -0.9884 221.0832 103.9275)" fill="#F1F2F2" stroke="#848484" stroke-miterlimit="10" width="3.4" height="33.2"/>
		
			<rect x="92.7" y="43.8" transform="matrix(-0.9964 8.473843e-02 -8.473843e-02 -0.9964 193.6418 112.5441)" fill="#F1F2F2" stroke="#848484" stroke-miterlimit="10" width="3.4" height="33.2"/>
		
			<rect x="80.6" y="44.2" transform="matrix(-0.9713 0.2379 -0.2379 -0.9713 176.6924 100.2477)" fill="#F1F2F2" stroke="#848484" stroke-miterlimit="10" width="3.4" height="33.2"/>
	</g>
</g>
<g id="Слой_2">
	<g>
		<g>
			
				<rect x="425.7" y="395.2" transform="matrix(6.123234e-17 -1 1 6.123234e-17 46.0753 944.046)" fill-rule="evenodd" clip-rule="evenodd" fill="#F1F2F2" stroke="#848484" stroke-miterlimit="10" width="138.6" height="107.6"/>
			
				<rect x="430.5" y="396.8" transform="matrix(6.123234e-17 -1 1 6.123234e-17 46.9574 943.2768)" fill-rule="evenodd" clip-rule="evenodd" fill="#F1F2F2" stroke="#848484" stroke-miterlimit="10" width="129.2" height="102.7"/>
			
				<rect x="452.2" y="474.9" transform="matrix(2.496394e-13 -1 1 2.496394e-13 -28.091 961.6237)" fill-rule="evenodd" clip-rule="evenodd" fill="#F1F2F2" stroke="#848484" stroke-miterlimit="10" width="29.2" height="39.9"/>
			
				<rect x="508.6" y="474.9" transform="matrix(6.123234e-17 -1 1 6.123234e-17 28.3139 1018.0286)" fill-rule="evenodd" clip-rule="evenodd" fill="#F1F2F2" stroke="#848484" stroke-miterlimit="10" width="29.2" height="39.9"/>
			<polygon fill-rule="evenodd" clip-rule="evenodd" fill="#F1F2F2" stroke="#848484" stroke-miterlimit="10" points="443.8,465.4 
				474.4,483.2 515.8,483.2 474.4,483.2 515.8,483.2 546.5,465.4 546.5,383.5 546.3,383.5 443.8,383.5 			"/>
			<polyline fill-rule="evenodd" clip-rule="evenodd" fill="#F1F2F2" stroke="#848484" stroke-miterlimit="10" points="443.8,465.4 
				465.3,452.4 474.4,483.2 			"/>
			
				<line fill-rule="evenodd" clip-rule="evenodd" fill="#F1F2F2" stroke="#848484" stroke-miterlimit="10" x1="474.4" y1="483.2" x2="443.8" y2="465.4"/>
			<polyline fill-rule="evenodd" clip-rule="evenodd" fill="#F1F2F2" stroke="#848484" stroke-miterlimit="10" points="546.5,465.4 
				525,452.4 515.8,483.2 			"/>
			
				<line fill-rule="evenodd" clip-rule="evenodd" fill="#F1F2F2" stroke="#848484" stroke-miterlimit="10" x1="515.8" y1="483.2" x2="546.5" y2="465.4"/>
		</g>
		<g>
			<rect x="550.9" y="490.8" fill="#F1F2F2" stroke="#848484" stroke-miterlimit="10" width="37.9" height="27.5"/>
			<rect x="561.7" y="489" fill="#F1F2F2" stroke="#848484" stroke-miterlimit="10" width="15.9" height="1.8"/>
		</g>
		<g>
			<rect x="401.3" y="490.8" fill="#F1F2F2" stroke="#848484" stroke-miterlimit="10" width="37.9" height="27.5"/>
			<rect x="412.1" y="489" fill="#F1F2F2" stroke="#848484" stroke-miterlimit="10" width="15.9" height="1.8"/>
		</g>
	</g>
	<g>
		<path fill-rule="evenodd" clip-rule="evenodd" fill="#F1F2F2" stroke="#848484" stroke-miterlimit="10" d="M431.3,287.1H455v19.7
			h-23.8V287.1L431.3,287.1z M543.6,287.1v29.5H455v-29.5H543.6z"/>
		<path fill-rule="evenodd" clip-rule="evenodd" fill="#F1F2F2" stroke="#848484" stroke-miterlimit="10" d="M508.1,297.6
			c0-5.1-4.6-5.6-10.4-5.6c-5.7,0-10.4,0.5-10.4,5.6s4.6,9.4,10.4,9.4C503.5,306.9,508.1,302.8,508.1,297.6z"/>
		
			<rect x="462.9" y="298.6" fill-rule="evenodd" clip-rule="evenodd" fill="#F1F2F2" stroke="#848484" stroke-miterlimit="10" width="69.5" height="3.9"/>
		
			<rect x="462.9" y="298.6" fill-rule="evenodd" clip-rule="evenodd" fill="#F1F2F2" stroke="#848484" stroke-miterlimit="10" width="69.5" height="3.9"/>
		<polygon fill-rule="evenodd" clip-rule="evenodd" fill="#F1F2F2" stroke="#848484" stroke-miterlimit="10" points="526.6,298.7 
			515.4,295.5 480.1,295.5 468.9,298.7 		"/>
		<polygon fill-rule="evenodd" clip-rule="evenodd" fill="#F1F2F2" stroke="#848484" stroke-miterlimit="10" points="526.6,298.7 
			515.4,295.5 480.1,295.5 468.9,298.7 		"/>
		<path fill-rule="evenodd" clip-rule="evenodd" fill="#F1F2F2" stroke="#848484" stroke-miterlimit="10" d="M433.3,309H453v2h-19.6
			V309L433.3,309z M543.6,287.1h23.8v19.8h-23.8V287.1L543.6,287.1z M565.3,309v2h-19.6v-2H565.3z"/>
	</g>
	<g>
		<g>
			<path fill="#F1F2F2" stroke="#848484" stroke-miterlimit="10" d="M467.1,595.7c0,7.2,2.2,13.1,4.8,13.1c2.7,0,4.8-5.8,4.8-13.1
				c0-7.2-2.2-13.1-4.8-13.1C469.3,582.7,467.1,588.5,467.1,595.7z"/>
			<path fill="#F1F2F2" stroke="#848484" stroke-miterlimit="10" d="M445.2,595.7c0,7.2,5.9,13.1,13.1,13.1
				c7.2,0,13.1-5.8,13.1-13.1c0-7.2-5.9-13.1-13.1-13.1C451.1,582.7,445.2,588.5,445.2,595.7z"/>
		</g>
		<g>
			<path fill="#F1F2F2" stroke="#848484" stroke-miterlimit="10" d="M403.8,556.4c0-7.2-2.2-13.1-4.8-13.1c-2.7,0-4.8,5.8-4.8,13.1
				c0,7.2,2.2,13.1,4.8,13.1C401.6,569.5,403.8,563.7,403.8,556.4z"/>
			<path fill="#F1F2F2" stroke="#848484" stroke-miterlimit="10" d="M425.6,556.4c0-7.2-5.9-13.1-13.1-13.1
				c-7.2,0-13.1,5.8-13.1,13.1c0,7.2,5.9,13.1,13.1,13.1C419.8,569.5,425.6,563.7,425.6,556.4z"/>
		</g>
		<g>
			<path fill="#F1F2F2" stroke="#848484" stroke-miterlimit="10" d="M402.7,595.7c0-7.2-2.2-13.1-4.8-13.1c-2.7,0-4.8,5.8-4.8,13.1
				c0,7.2,2.2,13.1,4.8,13.1C400.5,608.8,402.7,603,402.7,595.7z"/>
			<path fill="#F1F2F2" stroke="#848484" stroke-miterlimit="10" d="M424.5,595.7c0-7.2-5.9-13.1-13.1-13.1
				c-7.2,0-13.1,5.8-13.1,13.1c0,7.2,5.9,13.1,13.1,13.1C418.7,608.8,424.5,603,424.5,595.7z"/>
		</g>
		<g>
			<path fill="#F1F2F2" stroke="#848484" stroke-miterlimit="10" d="M465.6,556.4c0,7.2,2.2,13.1,4.8,13.1c2.7,0,4.8-5.8,4.8-13.1
				c0-7.2-2.2-13.1-4.8-13.1C467.8,543.4,465.6,549.2,465.6,556.4z"/>
			<path fill="#F1F2F2" stroke="#848484" stroke-miterlimit="10" d="M443.7,556.4c0,7.2,5.9,13.1,13.1,13.1s13.1-5.8,13.1-13.1
				c0-7.2-5.9-13.1-13.1-13.1S443.7,549.2,443.7,556.4z"/>
		</g>
		
			<rect x="389.1" y="549.4" transform="matrix(6.123234e-17 -1 1 6.123234e-17 -141.0548 1010.4097)" fill="#F1F2F2" stroke="#848484" stroke-miterlimit="10" width="91.2" height="52.6"/>
	</g>
	<g>
		<g>
			<rect x="130.5" y="242.1" fill="#F1F2F2" stroke="#848484" stroke-miterlimit="10" width="41.5" height="30.2"/>
			<rect x="142.4" y="240.1" fill="#F1F2F2" stroke="#848484" stroke-miterlimit="10" width="17.4" height="2"/>
		</g>
		<g>
			
				<rect x="69.2" y="120.2" fill-rule="evenodd" clip-rule="evenodd" fill="#F1F2F2" stroke="#848484" stroke-miterlimit="10" width="59" height="152.1"/>
			<polyline fill-rule="evenodd" clip-rule="evenodd" fill="#F1F2F2" stroke="#848484" stroke-miterlimit="10" points="71.7,229.9 
				71.7,264.9 125.8,264.9 125.8,211.8 			"/>
			
				<rect x="82.5" y="221.3" transform="matrix(4.486018e-11 -1 1 4.486018e-11 -146.1776 343.6641)" fill-rule="evenodd" clip-rule="evenodd" fill="#F1F2F2" stroke="#848484" stroke-miterlimit="10" width="32.4" height="47.3"/>
			<polygon fill-rule="evenodd" clip-rule="evenodd" fill="#F1F2F2" stroke="#848484" stroke-miterlimit="10" points="71.7,231.4 
				93.6,231.4 93.6,231.4 125.8,212.3 125.8,124.5 125.7,124.5 71.7,124.5 			"/>
			<polygon fill-rule="evenodd" clip-rule="evenodd" fill="#F1F2F2" stroke="#848484" stroke-miterlimit="10" points="125.2,212.2 
				103.8,198.7 94.8,230.6 			"/>
		</g>
	</g>
	<g>
	</g>
	<g>
	</g>
	<g>
	</g>
	<g>
	</g>
	<g>
	</g>
	<g>
	</g>
</g>
</svg>
