<?xml version="1.0" encoding="utf-8"?>
<!-- Generator: Adobe Illustrator 23.0.2, SVG Export Plug-In . SVG Version: 6.00 Build 0)  -->
<svg version="1.1" id="plan" xmlns="http://www.w3.org/2000/svg" xmlns:xlink="http://www.w3.org/1999/xlink" x="0px" y="0px"
	 viewBox="0 0 350 350" enable-background="new 0 0 350 350" xml:space="preserve">
<g id="back">
	
		<rect x="4.602" y="26.723" transform="matrix(-1 -4.489177e-11 4.489177e-11 -1 347.4634 372.4538)" fill="#FFFFFF" width="338.258" height="319.008"/>
</g>
<g id="walls">
	
		<rect x="157.079" y="26.723" fill="#828282" stroke="#000000" stroke-linecap="round" stroke-linejoin="round" stroke-miterlimit="10" width="187.921" height="10.695"/>
	<polyline fill="#828282" stroke="#000000" stroke-linecap="round" stroke-linejoin="round" stroke-miterlimit="10" points="
		15.297,26.723 112.161,26.723 112.161,37.418 15.297,37.418 	"/>
	<polygon fill="#828282" stroke="#000000" stroke-linecap="round" stroke-linejoin="round" stroke-miterlimit="10" points="
		15.297,26.723 15.297,154.649 15.297,158.191 15.297,318.966 4.602,318.966 4.602,26.723 	"/>
	
		<rect x="171.44" y="260.784" fill="#828282" stroke="#000000" stroke-linecap="round" stroke-linejoin="round" stroke-miterlimit="10" width="10.695" height="78.224"/>
	
		<rect x="152.19" y="328.008" fill="#828282" stroke="#000000" stroke-linecap="round" stroke-linejoin="round" stroke-miterlimit="10" width="19.25" height="11"/>
	
		<rect x="82.521" y="328.008" fill="#828282" stroke="#000000" stroke-linecap="round" stroke-linejoin="round" stroke-miterlimit="10" width="22.612" height="11"/>
	
		<rect x="333.694" y="271.785" fill="#828282" stroke="#000000" stroke-linecap="round" stroke-linejoin="round" stroke-miterlimit="10" width="9.167" height="62.64"/>
	
		<line fill="none" stroke="#000000" stroke-linecap="round" stroke-linejoin="round" stroke-miterlimit="10" x1="182.135" y1="339.009" x2="188.857" y2="339.009"/>
	
		<rect x="80.382" y="339.008" fill="#828282" stroke="#000000" stroke-linecap="round" stroke-linejoin="round" stroke-miterlimit="10" width="26.89" height="6.722"/>
	<polygon fill="#828282" stroke="#000000" stroke-linecap="round" stroke-linejoin="round" stroke-miterlimit="10" points="
		4.603,339.009 37.909,339.009 37.909,345.731 19.095,345.731 10.196,345.731 4.603,345.731 	"/>
	<g>
		
			<line fill="none" stroke="#000000" stroke-width="1.5" stroke-linecap="round" stroke-linejoin="round" stroke-miterlimit="10" x1="156.967" y1="26.723" x2="118.161" y2="4.417"/>
		
			<path fill="none" stroke="#000000" stroke-width="1.5" stroke-linecap="round" stroke-linejoin="round" stroke-miterlimit="10" d="
			M118.578,121.142l-18.028-31.167 M121.522,171.31l35.14-20.167"/>
		
			<line fill="none" stroke="#000000" stroke-width="1.5" stroke-linecap="round" stroke-linejoin="round" stroke-miterlimit="10" x1="199.246" y1="268.423" x2="230.414" y2="250.701"/>
	</g>
	
		<line fill="none" stroke="#000000" stroke-linecap="round" stroke-linejoin="round" stroke-miterlimit="10" x1="199.246" y1="271.785" x2="199.246" y2="268.423"/>
	
		<line fill="none" stroke="#000000" stroke-linecap="round" stroke-linejoin="round" stroke-miterlimit="10" x1="279.915" y1="271.785" x2="279.915" y2="268.423"/>
	
		<line fill="none" stroke="#000000" stroke-linecap="round" stroke-linejoin="round" stroke-miterlimit="10" x1="152.19" y1="339.009" x2="152.19" y2="335.647"/>
	
		<line fill="none" stroke="#000000" stroke-linecap="round" stroke-linejoin="round" stroke-miterlimit="10" x1="82.521" y1="339.009" x2="82.521" y2="335.647"/>
	<polyline fill="#828282" stroke="#000000" stroke-linecap="round" stroke-linejoin="round" stroke-miterlimit="10" points="
		345,193.56 345,271.785 331.555,271.785 331.555,193.56 345,193.56 	"/>
	<polyline fill="#828282" stroke="#000000" stroke-linecap="round" stroke-linejoin="round" stroke-miterlimit="10" points="
		345,193.56 331.555,193.56 331.555,37.418 345,37.418 345,193.56 	"/>
	
		<rect x="279.915" y="260.784" fill="#828282" stroke="#000000" stroke-linecap="round" stroke-linejoin="round" stroke-miterlimit="10" width="51.64" height="11"/>
	
		<rect x="277.776" y="271.785" fill="#828282" stroke="#000000" stroke-linecap="round" stroke-linejoin="round" stroke-miterlimit="10" width="55.918" height="6.722"/>
	
		<rect x="24.513" y="328.009" fill="#828282" stroke="#000000" stroke-linecap="round" stroke-linejoin="round" stroke-miterlimit="10" width="10.949" height="11"/>
	
		<rect x="4.601" y="318.966" fill="#828282" stroke="#000000" stroke-linecap="round" stroke-linejoin="round" stroke-miterlimit="10" width="19.911" height="20.044"/>
	
		<rect x="150.051" y="339.009" fill="#828282" stroke="#000000" stroke-linecap="round" stroke-linejoin="round" stroke-miterlimit="10" width="38.806" height="6.722"/>
	<polygon fill="#828282" stroke="#000000" stroke-linecap="round" stroke-linejoin="round" stroke-miterlimit="10" points="
		182.135,339.009 188.857,339.009 188.857,278.507 197.107,278.507 197.107,271.785 182.135,271.785 	"/>
	
		<rect x="182.135" y="260.784" fill="#828282" stroke="#000000" stroke-linecap="round" stroke-linejoin="round" stroke-miterlimit="10" width="12.528" height="11"/>
	<g>
		<g>
			
				<line fill="none" stroke="#000000" stroke-width="0.5" stroke-linecap="round" stroke-linejoin="round" stroke-miterlimit="10" x1="152.19" y1="328.008" x2="105.133" y2="328.008"/>
			
				<line fill="none" stroke="#000000" stroke-width="0.5" stroke-linecap="round" stroke-linejoin="round" stroke-miterlimit="10" x1="107.272" y1="345.731" x2="150.051" y2="345.731"/>
			
				<line fill="none" stroke="#000000" stroke-width="0.5" stroke-linecap="round" stroke-linejoin="round" stroke-miterlimit="10" x1="152.19" y1="335.647" x2="105.133" y2="335.647"/>
			
				<line fill="none" stroke="#000000" stroke-width="0.5" stroke-linecap="round" stroke-linejoin="round" stroke-miterlimit="10" x1="107.272" y1="339.009" x2="107.272" y2="335.647"/>
			
				<line fill="none" stroke="#000000" stroke-width="0.5" stroke-linecap="round" stroke-linejoin="round" stroke-miterlimit="10" x1="150.051" y1="339.009" x2="150.051" y2="335.647"/>
			
				<line fill="none" stroke="#000000" stroke-width="0.5" stroke-linecap="round" stroke-linejoin="round" stroke-miterlimit="10" x1="147.606" y1="339.009" x2="147.606" y2="335.647"/>
			
				<line fill="none" stroke="#000000" stroke-width="0.5" stroke-linecap="round" stroke-linejoin="round" stroke-miterlimit="10" x1="109.716" y1="339.009" x2="109.716" y2="335.647"/>
			
				<polyline fill="none" stroke="#000000" stroke-width="0.5" stroke-linecap="round" stroke-linejoin="round" stroke-miterlimit="10" points="
				152.19,339.009 105.133,339.009 105.133,335.647 			"/>
		</g>
		<g>
			
				<line fill="none" stroke="#000000" stroke-width="0.5" stroke-linecap="round" stroke-linejoin="round" stroke-miterlimit="10" x1="82.521" y1="328.008" x2="35.464" y2="328.008"/>
			
				<line fill="none" stroke="#000000" stroke-width="0.5" stroke-linecap="round" stroke-linejoin="round" stroke-miterlimit="10" x1="37.909" y1="345.731" x2="80.382" y2="345.731"/>
			
				<line fill="none" stroke="#000000" stroke-width="0.5" stroke-linecap="round" stroke-linejoin="round" stroke-miterlimit="10" x1="82.521" y1="335.647" x2="35.464" y2="335.647"/>
			
				<line fill="none" stroke="#000000" stroke-width="0.5" stroke-linecap="round" stroke-linejoin="round" stroke-miterlimit="10" x1="37.909" y1="339.009" x2="37.909" y2="335.647"/>
			
				<line fill="none" stroke="#000000" stroke-width="0.5" stroke-linecap="round" stroke-linejoin="round" stroke-miterlimit="10" x1="80.382" y1="339.009" x2="80.382" y2="335.647"/>
			
				<line fill="none" stroke="#000000" stroke-width="0.5" stroke-linecap="round" stroke-linejoin="round" stroke-miterlimit="10" x1="78.243" y1="339.009" x2="78.243" y2="335.647"/>
			
				<line fill="none" stroke="#000000" stroke-width="0.5" stroke-linecap="round" stroke-linejoin="round" stroke-miterlimit="10" x1="40.048" y1="339.009" x2="40.048" y2="335.647"/>
			
				<polyline fill="none" stroke="#000000" stroke-width="0.5" stroke-linecap="round" stroke-linejoin="round" stroke-miterlimit="10" points="
				82.521,339.009 35.464,339.009 35.464,335.647 			"/>
		</g>
		<g>
			
				<line fill="none" stroke="#000000" stroke-width="0.5" stroke-linecap="round" stroke-linejoin="round" stroke-miterlimit="10" x1="188.857" y1="345.731" x2="342.861" y2="345.731"/>
			
				<line fill="none" stroke="#000000" stroke-width="0.5" stroke-linecap="round" stroke-linejoin="round" stroke-miterlimit="10" x1="333.694" y1="329.842" x2="188.857" y2="329.842"/>
			
				<line fill="none" stroke="#000000" stroke-width="0.5" stroke-linecap="round" stroke-linejoin="round" stroke-miterlimit="10" x1="342.861" y1="329.842" x2="268.221" y2="329.842"/>
			
				<polyline fill="none" stroke="#000000" stroke-width="0.5" stroke-linecap="round" stroke-linejoin="round" stroke-miterlimit="10" points="
				342.861,337.175 190.117,337.175 190.117,336.259 342.861,336.259 			"/>
			
				<line fill="none" stroke="#000000" stroke-width="0.5" stroke-linecap="round" stroke-linejoin="round" stroke-miterlimit="10" x1="268.871" y1="334.425" x2="342.861" y2="334.425"/>
			
				<line fill="none" stroke="#000000" stroke-width="0.5" stroke-linecap="round" stroke-linejoin="round" stroke-miterlimit="10" x1="191.312" y1="334.425" x2="334.888" y2="334.425"/>
			
				<line fill="none" stroke="#000000" stroke-width="0.5" stroke-linecap="round" stroke-linejoin="round" stroke-miterlimit="10" x1="190.117" y1="339.009" x2="342.861" y2="339.009"/>
			
				<rect x="188.857" y="334.425" fill="none" stroke="#000000" stroke-width="0.5" stroke-linecap="round" stroke-linejoin="round" stroke-miterlimit="10" width="2.445" height="4.583"/>
			
				<line fill="none" stroke="#000000" stroke-width="0.5" stroke-linecap="round" stroke-linejoin="round" stroke-miterlimit="10" x1="342.861" y1="334.425" x2="342.861" y2="345.731"/>
		</g>
		<g>
			
				<polyline fill="none" stroke="#000000" stroke-width="0.5" stroke-linecap="round" stroke-linejoin="round" stroke-miterlimit="10" points="
				279.915,260.784 237.442,260.784 237.442,268.423 			"/>
			
				<polyline fill="none" stroke="#000000" stroke-width="0.5" stroke-linecap="round" stroke-linejoin="round" stroke-miterlimit="10" points="
				277.776,278.507 237.442,278.507 237.442,271.785 			"/>
			
				<line fill="none" stroke="#000000" stroke-width="0.5" stroke-linecap="round" stroke-linejoin="round" stroke-miterlimit="10" x1="279.915" y1="268.423" x2="234.997" y2="268.423"/>
			
				<line fill="none" stroke="#000000" stroke-width="0.5" stroke-linecap="round" stroke-linejoin="round" stroke-miterlimit="10" x1="197.107" y1="271.785" x2="197.107" y2="268.423"/>
			
				<line fill="none" stroke="#000000" stroke-width="0.5" stroke-linecap="round" stroke-linejoin="round" stroke-miterlimit="10" x1="277.776" y1="271.785" x2="277.776" y2="268.423"/>
			
				<line fill="none" stroke="#000000" stroke-width="0.5" stroke-linecap="round" stroke-linejoin="round" stroke-miterlimit="10" x1="275.637" y1="271.785" x2="275.637" y2="268.423"/>
			
				<line fill="none" stroke="#000000" stroke-width="0.5" stroke-linecap="round" stroke-linejoin="round" stroke-miterlimit="10" x1="239.581" y1="271.785" x2="239.581" y2="268.423"/>
			
				<line fill="none" stroke="#000000" stroke-width="0.5" stroke-linecap="round" stroke-linejoin="round" stroke-miterlimit="10" x1="237.442" y1="271.785" x2="237.442" y2="268.423"/>
			
				<line fill="none" stroke="#000000" stroke-width="0.5" stroke-linecap="round" stroke-linejoin="round" stroke-miterlimit="10" x1="234.997" y1="271.785" x2="234.997" y2="268.423"/>
			
				<polyline fill="none" stroke="#000000" stroke-width="0.5" stroke-linecap="round" stroke-linejoin="round" stroke-miterlimit="10" points="
				279.915,271.785 234.997,271.785 234.997,268.423 			"/>
			
				<rect x="194.663" y="268.423" transform="matrix(-1 -4.524304e-11 4.524304e-11 -1 393.9093 540.2079)" fill="none" stroke="#000000" stroke-width="0.5" stroke-linecap="round" stroke-linejoin="round" stroke-miterlimit="10" width="4.583" height="3.361"/>
		</g>
	</g>
	<g>
		
			<rect x="15.297" y="171.56" fill="#C7C7C7" stroke="#000000" stroke-linecap="round" stroke-linejoin="round" stroke-miterlimit="10" width="106.031" height="4.583"/>
		
			<rect x="95.966" y="37.418" fill="#C7C7C7" stroke="#000000" stroke-linecap="round" stroke-linejoin="round" stroke-miterlimit="10" width="4.583" height="52.557"/>
		
			<rect x="15.297" y="58.502" fill="#C7C7C7" stroke="#000000" stroke-linecap="round" stroke-linejoin="round" stroke-miterlimit="10" width="35.742" height="2.444"/>
		
			<rect x="48.595" y="37.418" fill="#C7C7C7" stroke="#000000" stroke-linecap="round" stroke-linejoin="round" stroke-miterlimit="10" width="2.444" height="21.084"/>
		<polygon fill="#C7C7C7" stroke="#000000" stroke-linecap="round" stroke-linejoin="round" stroke-miterlimit="10" points="
			212.691,126.725 212.691,37.418 216.358,37.418 216.358,130.392 175.662,130.392 175.662,126.725 		"/>
		<polygon fill="#C7C7C7" stroke="#000000" stroke-linecap="round" stroke-linejoin="round" stroke-miterlimit="10" points="
			176.023,260.784 176.023,171.56 161.662,171.56 161.662,176.143 171.44,176.143 171.44,260.784 		"/>
		
			<rect x="188.551" y="37.546" fill="#C7C7C7" stroke="#000000" stroke-linecap="round" stroke-linejoin="round" stroke-miterlimit="10" width="2.139" height="25.019"/>
		
			<rect x="190.69" y="60.426" fill="#C7C7C7" stroke="#000000" stroke-linecap="round" stroke-linejoin="round" stroke-miterlimit="10" width="22.001" height="2.139"/>
		<polygon fill="#C7C7C7" stroke="#000000" stroke-linecap="round" stroke-linejoin="round" stroke-miterlimit="10" points="
			15.297,171.56 15.297,166.365 95.966,166.365 95.966,125.725 100.549,125.725 100.549,171.56 		"/>
	</g>
</g>
<g id="furniture">
	<path fill="#F3F3F3" stroke="#595959" stroke-width="0.5" stroke-miterlimit="10" d="M242.929,65.539
		c4.895,0,87.405-0.004,87.405-0.004l0-26.897c0,0-112.866,0-112.866,0v20.895h-0.012v29.86h25.473V65.539z"/>
	<g>
		<path fill-rule="evenodd" clip-rule="evenodd" fill="#F3F3F3" stroke="#595959" stroke-width="0.5" stroke-miterlimit="10" d="
			M33.751,146.816c1.056,0,1.872,1.077,1.92,2.324c0,1.191-0.864,2.211-1.92,2.211c-1.056,0-1.824-1.021-1.824-2.211
			C31.927,147.836,32.695,146.816,33.751,146.816z"/>
		<path fill-rule="evenodd" clip-rule="evenodd" fill="#F3F3F3" stroke="#595959" stroke-width="0.5" stroke-miterlimit="10" d="
			M33.751,146.816c1.056,0,1.872,1.077,1.92,2.324c0,1.191-0.864,2.211-1.92,2.211c-1.056,0-1.824-1.021-1.824-2.211
			C31.927,147.836,32.695,146.816,33.751,146.816z"/>
		
			<polygon fill-rule="evenodd" clip-rule="evenodd" fill="#F3F3F3" stroke="#595959" stroke-width="0.5" stroke-miterlimit="10" points="
			16.2,132.833 16.2,165.333 94.964,165.333 94.964,132.833 16.2,132.833 		"/>
		<path fill-rule="evenodd" clip-rule="evenodd" fill="#F3F3F3" stroke="#595959" stroke-width="0.5" stroke-miterlimit="10" d="
			M27.481,162.635l0-27.103c0,0,54.194,0,54.472,0c7.668,0,8.953,4.773,8.953,10.607v5.889c0,5.834-1.285,10.607-8.953,10.607
			C81.674,162.635,27.481,162.635,27.481,162.635L27.481,162.635z"/>
		<path fill-rule="evenodd" clip-rule="evenodd" fill="#F3F3F3" stroke="#595959" stroke-width="0.5" stroke-miterlimit="10" d="
			M23.573,158.886c0.839,0,1.539-0.781,1.539-1.746c0-0.827-0.466-1.562-1.166-1.746v-2.435c0-0.276-0.186-0.459-0.466-0.459
			c-0.326,0-0.513,0.183-0.513,0.459v2.527c-0.56,0.276-0.979,0.919-0.979,1.654C22.034,158.105,22.734,158.886,23.573,158.886
			L23.573,158.886z"/>
		
			<polyline fill-rule="evenodd" clip-rule="evenodd" fill="#F3F3F3" stroke="#595959" stroke-width="0.5" stroke-miterlimit="10" points="
			23.479,152.729 23.433,141.61 26.23,141.61 26.23,148.732 		"/>
		<path fill-rule="evenodd" clip-rule="evenodd" fill="#F3F3F3" stroke="#595959" stroke-width="0.5" stroke-miterlimit="10" d="
			M25.526,150.082h5.638h0.048v-1.553h-0.048h-5.638c-0.379,0-0.711,0.351-0.711,0.752
			C24.815,149.731,25.147,150.082,25.526,150.082z"/>
		<path fill-rule="evenodd" clip-rule="evenodd" fill="#F3F3F3" stroke="#595959" stroke-width="0.5" stroke-miterlimit="10" d="
			M25.526,150.082h5.638h0.048v-1.553h-0.048h-5.638c-0.379,0-0.711,0.351-0.711,0.752
			C24.815,149.731,25.147,150.082,25.526,150.082z"/>
	</g>
	<g>
		<path fill-rule="evenodd" clip-rule="evenodd" fill="#F3F3F3" stroke="#595959" stroke-width="0.5" stroke-miterlimit="10" d="
			M24.977,69.879c1.99-0.702,4.332-1.172,6.849-1.172c8.078,0,14.576,4.217,14.576,9.9c0,5.623-6.498,9.899-14.576,9.899
			c-2.459,0-4.8-0.469-6.849-1.23V69.879z"/>
		<path fill-rule="evenodd" clip-rule="evenodd" fill="#F3F3F3" stroke="#595959" stroke-width="0.5" stroke-miterlimit="10" d="
			M16.031,69.637h5.111c1.188,0,2.139,0.938,2.139,2.053v13.369c0.059,1.114-0.892,2.053-2.139,2.053h-5.111V69.637z"/>
		<path fill-rule="evenodd" clip-rule="evenodd" fill="#F3F3F3" stroke="#595959" stroke-width="0.5" stroke-miterlimit="10" d="
			M19.655,76.317c-1.091,0-1.94,0.909-1.94,2s0.909,1.94,1.94,1.94c1.151,0,2-0.91,2-1.94
			C21.655,77.166,20.806,76.317,19.655,76.317z"/>
		<path fill-rule="evenodd" clip-rule="evenodd" fill="#F3F3F3" stroke="#595959" stroke-width="0.5" stroke-miterlimit="10" d="
			M24.081,87.228h0.896V69.879c0.191-0.067,0.399-0.121,0.597-0.184h-1.493c-0.483,0-0.846,0.41-0.846,0.762v15.95
			C23.234,86.875,23.597,87.228,24.081,87.228z"/>
	</g>
	<g>
		
			<rect x="70.009" y="38.411" fill-rule="evenodd" clip-rule="evenodd" fill="#F3F3F3" stroke="#595959" stroke-width="0.5" stroke-miterlimit="10" width="24.92" height="24.873"/>
		<path fill-rule="evenodd" clip-rule="evenodd" fill="#F3F3F3" stroke="#595959" stroke-width="0.5" stroke-miterlimit="10" d="
			M72.604,41.788c0,0.843,0.693,1.536,1.535,1.536c0.891,0,1.584-0.693,1.584-1.536c0-0.842-0.693-1.536-1.584-1.536
			C73.298,40.252,72.604,40.946,72.604,41.788z"/>
		<path fill-rule="evenodd" clip-rule="evenodd" fill="#F3F3F3" stroke="#595959" stroke-width="0.5" stroke-miterlimit="10" d="
			M72.604,41.815c0,0.827,0.666,1.508,1.473,1.508c0.855,0,1.521-0.681,1.521-1.508c0-0.827-0.666-1.508-1.521-1.508
			C73.27,40.307,72.604,40.988,72.604,41.815L72.604,41.815z M92.853,38.458v2.53c0,0.584-0.523,1.022-1.093,1.022h-7.035
			c-0.57,0-1.093-0.438-1.093-1.022v-2.53H92.853z"/>
		<path fill-rule="evenodd" clip-rule="evenodd" fill="#F3F3F3" stroke="#595959" stroke-width="0.5" stroke-miterlimit="10" d="
			M75.672,51.509c0,3.721,3.005,6.774,6.774,6.774c3.722,0,6.727-3.053,6.727-6.774c0-3.721-3.005-6.774-6.727-6.774
			C78.629,44.735,75.672,47.788,75.672,51.509z"/>
		<path fill-rule="evenodd" clip-rule="evenodd" fill="#F3F3F3" stroke="#595959" stroke-width="0.5" stroke-miterlimit="10" d="
			M75.672,51.509c0,3.721,3.005,6.774,6.774,6.774c3.722,0,6.727-3.053,6.727-6.774c0-3.721-3.005-6.774-6.727-6.774
			C78.629,44.735,75.672,47.788,75.672,51.509z"/>
		<path fill-rule="evenodd" clip-rule="evenodd" fill="#F3F3F3" stroke="#595959" stroke-width="0.5" stroke-miterlimit="10" d="
			M77.465,51.509c0,2.777,2.203,4.98,4.98,4.98c2.73,0,4.981-2.203,4.981-4.98c0-2.73-2.299-4.98-4.981-4.98
			C79.668,46.528,77.465,48.779,77.465,51.509z"/>
		<path fill-rule="evenodd" clip-rule="evenodd" fill="#F3F3F3" stroke="#595959" stroke-width="0.5" stroke-miterlimit="10" d="
			M77.465,51.509c0,2.777,2.203,4.98,4.98,4.98c2.73,0,4.981-2.203,4.981-4.98c0-2.73-2.299-4.98-4.981-4.98
			C79.668,46.528,77.465,48.779,77.465,51.509z"/>
	</g>
	<g>
		
			<rect x="217.895" y="91.842" fill-rule="evenodd" clip-rule="evenodd" fill="#F3F3F3" stroke="#595959" stroke-width="0.5" stroke-miterlimit="10" width="1.642" height="23.456"/>
		
			<rect x="217.895" y="91.842" fill-rule="evenodd" clip-rule="evenodd" fill="#F3F3F3" stroke="#595959" stroke-width="0.5" stroke-miterlimit="10" width="1.642" height="23.456"/>
		
			<rect x="243.861" y="91.637" fill-rule="evenodd" clip-rule="evenodd" fill="#F3F3F3" stroke="#595959" stroke-width="0.5" stroke-miterlimit="10" width="2.251" height="7.712"/>
		
			<rect x="243.861" y="91.637" fill-rule="evenodd" clip-rule="evenodd" fill="#F3F3F3" stroke="#595959" stroke-width="0.5" stroke-miterlimit="10" width="2.251" height="7.712"/>
		
			<rect x="219.365" y="90.612" fill-rule="evenodd" clip-rule="evenodd" fill="#F3F3F3" stroke="#595959" stroke-width="0.5" stroke-miterlimit="10" width="25.428" height="25.764"/>
		
			<rect x="219.365" y="90.612" fill-rule="evenodd" clip-rule="evenodd" fill="#F3F3F3" stroke="#595959" stroke-width="0.5" stroke-miterlimit="10" width="25.428" height="25.764"/>
		<path fill-rule="evenodd" clip-rule="evenodd" fill="#F3F3F3" stroke="#595959" stroke-width="0.5" stroke-miterlimit="10" d="
			M242.511,116.375l0-25.764L242.511,116.375z"/>
		<path fill-rule="evenodd" clip-rule="evenodd" fill="#F3F3F3" stroke="#595959" stroke-width="0.5" stroke-miterlimit="10" d="
			M242.421,117.606c-0.497,0-0.994-0.449-0.994-1.009c0-0.617,0.497-1.01,0.994-1.01c0.608,0,1.104,0.449,1.104,1.01
			C243.526,117.157,243.029,117.606,242.421,117.606z"/>
		<path fill-rule="evenodd" clip-rule="evenodd" fill="#F3F3F3" stroke="#595959" stroke-width="0.5" stroke-miterlimit="10" d="
			M242.421,117.606c-0.497,0-0.994-0.449-0.994-1.009c0-0.617,0.497-1.01,0.994-1.01c0.608,0,1.104,0.449,1.104,1.01
			C243.526,117.157,243.029,117.606,242.421,117.606z"/>
		<path fill-rule="evenodd" clip-rule="evenodd" fill="#F3F3F3" stroke="#595959" stroke-width="0.5" stroke-miterlimit="10" d="
			M229.407,103.354l4.482,0L229.407,103.354z"/>
		<path fill-rule="evenodd" clip-rule="evenodd" fill="#F3F3F3" stroke="#595959" stroke-width="0.5" stroke-miterlimit="10" d="
			M231.602,105.554v-4.532V105.554z"/>
		<path fill-rule="evenodd" clip-rule="evenodd" fill="#F3F3F3" stroke="#595959" stroke-width="0.5" stroke-miterlimit="10" d="
			M233.281,104.939l-3.265-3.301L233.281,104.939z"/>
		<path fill-rule="evenodd" clip-rule="evenodd" fill="#F3F3F3" stroke="#595959" stroke-width="0.5" stroke-miterlimit="10" d="
			M233.28,101.689l-3.265,3.301L233.28,101.689z"/>
		<path fill-rule="evenodd" clip-rule="evenodd" fill="#F3F3F3" stroke="#595959" stroke-width="0.5" stroke-miterlimit="10" d="
			M229.255,110.024h4.481H229.255z"/>
		<path fill-rule="evenodd" clip-rule="evenodd" fill="#F3F3F3" stroke="#595959" stroke-width="0.5" stroke-miterlimit="10" d="
			M231.45,112.272v-4.532V112.272z"/>
		<path fill-rule="evenodd" clip-rule="evenodd" fill="#F3F3F3" stroke="#595959" stroke-width="0.5" stroke-miterlimit="10" d="
			M233.129,111.606l-3.265-3.301L233.129,111.606z"/>
		<path fill-rule="evenodd" clip-rule="evenodd" fill="#F3F3F3" stroke="#595959" stroke-width="0.5" stroke-miterlimit="10" d="
			M233.129,108.356l-3.265,3.301L233.129,108.356z"/>
		<path fill-rule="evenodd" clip-rule="evenodd" fill="#F3F3F3" stroke="#595959" stroke-width="0.5" stroke-miterlimit="10" d="
			M229.407,96.839h4.482H229.407z"/>
		<path fill-rule="evenodd" clip-rule="evenodd" fill="#F3F3F3" stroke="#595959" stroke-width="0.5" stroke-miterlimit="10" d="
			M231.602,99.041V94.51V99.041z"/>
		<path fill-rule="evenodd" clip-rule="evenodd" fill="#F3F3F3" stroke="#595959" stroke-width="0.5" stroke-miterlimit="10" d="
			M233.28,98.426l-3.265-3.301L233.28,98.426z"/>
		<path fill-rule="evenodd" clip-rule="evenodd" fill="#F3F3F3" stroke="#595959" stroke-width="0.5" stroke-miterlimit="10" d="
			M233.28,95.176l-3.265,3.301L233.28,95.176z"/>
	</g>
	<g>
		
			<rect x="143.621" y="268.135" transform="matrix(-4.490382e-11 1 -1 -4.490382e-11 438.311 106.5091)" fill-rule="evenodd" clip-rule="evenodd" fill="#F3F3F3" stroke="#595959" stroke-width="0.5" stroke-miterlimit="10" width="44.56" height="8.55"/>
		<g>
			
				<rect x="164.367" y="257.555" fill-rule="evenodd" clip-rule="evenodd" fill="#F3F3F3" stroke="#595959" stroke-width="0.5" stroke-miterlimit="10" width="1.671" height="29.678"/>
			
				<polygon fill-rule="evenodd" clip-rule="evenodd" fill="#F3F3F3" stroke="#595959" stroke-width="0.5" stroke-miterlimit="10" points="
				165.961,260.073 167.337,264.843 167.337,279.916 165.961,284.686 			"/>
			
				<rect x="167.337" y="269.85" fill-rule="evenodd" clip-rule="evenodd" fill="#F3F3F3" stroke="#595959" stroke-width="0.5" stroke-miterlimit="10" width="1.458" height="5.058"/>
		</g>
	</g>
	<g>
		<g>
			
				<rect x="16.538" y="231.25" fill-rule="evenodd" clip-rule="evenodd" fill="#F3F3F3" stroke="#595959" stroke-width="0.5" stroke-miterlimit="10" width="80.37" height="62.385"/>
			
				<rect x="19.745" y="232.65" fill-rule="evenodd" clip-rule="evenodd" fill="#F3F3F3" stroke="#595959" stroke-width="0.5" stroke-miterlimit="10" width="74.913" height="59.519"/>
			
				<rect x="21.68" y="267.284" fill-rule="evenodd" clip-rule="evenodd" fill="#F3F3F3" stroke="#595959" stroke-width="0.5" stroke-miterlimit="10" width="16.9" height="23.123"/>
			
				<rect x="21.68" y="234.584" fill-rule="evenodd" clip-rule="evenodd" fill="#F3F3F3" stroke="#595959" stroke-width="0.5" stroke-miterlimit="10" width="16.9" height="23.123"/>
			
				<polygon fill-rule="evenodd" clip-rule="evenodd" fill="#F3F3F3" stroke="#595959" stroke-width="0.5" stroke-miterlimit="10" points="
				47.206,292.17 36.868,274.414 36.868,250.406 36.868,274.414 36.868,250.406 47.206,232.65 94.658,232.65 94.658,232.716 
				94.658,292.17 			"/>
			
				<polyline fill-rule="evenodd" clip-rule="evenodd" fill="#F3F3F3" stroke="#595959" stroke-width="0.5" stroke-miterlimit="10" points="
				47.206,292.17 54.75,279.709 36.868,274.414 			"/>
			
				<line fill-rule="evenodd" clip-rule="evenodd" fill="#F3F3F3" stroke="#595959" stroke-width="0.5" stroke-miterlimit="10" x1="36.868" y1="274.414" x2="47.206" y2="292.17"/>
			
				<polyline fill-rule="evenodd" clip-rule="evenodd" fill="#F3F3F3" stroke="#595959" stroke-width="0.5" stroke-miterlimit="10" points="
				47.206,232.65 54.75,245.111 36.868,250.406 			"/>
			
				<line fill-rule="evenodd" clip-rule="evenodd" fill="#F3F3F3" stroke="#595959" stroke-width="0.5" stroke-miterlimit="10" x1="36.868" y1="250.406" x2="47.206" y2="232.65"/>
		</g>
		<g>
			
				<rect x="13.536" y="211.134" transform="matrix(8.972029e-11 -1 1 8.972029e-11 -194.596 243.6246)" fill="#F3F3F3" stroke="#595959" stroke-width="0.5" stroke-miterlimit="10" width="21.957" height="15.952"/>
			
				<rect x="28.407" y="218.676" transform="matrix(8.950891e-11 -1 1 8.950891e-11 -186.186 252.2061)" fill="#F3F3F3" stroke="#595959" stroke-width="0.5" stroke-miterlimit="10" width="9.206" height="1.039"/>
		</g>
		<g>
			
				<rect x="13.536" y="297.859" transform="matrix(8.980378e-11 -1 1 8.980378e-11 -281.3212 330.3497)" fill="#F3F3F3" stroke="#595959" stroke-width="0.5" stroke-miterlimit="10" width="21.957" height="15.952"/>
			
				<rect x="28.407" y="305.402" transform="matrix(8.990415e-11 -1 1 8.990415e-11 -272.9112 338.9313)" fill="#F3F3F3" stroke="#595959" stroke-width="0.5" stroke-miterlimit="10" width="9.206" height="1.039"/>
		</g>
	</g>
	<g>
		<path fill-rule="evenodd" clip-rule="evenodd" fill="#F3F3F3" stroke="#595959" stroke-width="0.5" stroke-miterlimit="10" d="
			M19.115,116.212h0.87H19.115z"/>
		
			<line fill-rule="evenodd" clip-rule="evenodd" fill="#F3F3F3" stroke="#595959" stroke-width="0.5" stroke-miterlimit="10" x1="19.115" y1="116.212" x2="19.985" y2="116.212"/>
		<path fill-rule="evenodd" clip-rule="evenodd" fill="#F3F3F3" stroke="#595959" stroke-width="0.5" stroke-miterlimit="10" d="
			M25.515,116.878h-0.051h-5.682c-0.41,0-0.717-0.358-0.717-0.717c0-0.41,0.307-0.716,0.717-0.716h5.682h0.051V116.878z"/>
		
			<rect x="16.3" y="103.209" fill-rule="evenodd" clip-rule="evenodd" fill="#F3F3F3" stroke="#595959" stroke-width="0.5" stroke-miterlimit="10" width="3.737" height="25.956"/>
		<path fill-rule="evenodd" clip-rule="evenodd" fill="#F3F3F3" stroke="#595959" stroke-width="0.5" stroke-miterlimit="10" d="
			M19.115,103.26v25.853V103.26z"/>
		<path fill-rule="evenodd" clip-rule="evenodd" fill="#F3F3F3" stroke="#595959" stroke-width="0.5" stroke-miterlimit="10" d="
			M20.037,103.209h13.054c0.666,0,1.228,0.461,1.228,1.127v23.754c0,0.563-0.563,1.075-1.228,1.075H20.037V103.209z"/>
		<path fill-rule="evenodd" clip-rule="evenodd" fill="#F3F3F3" stroke="#595959" stroke-width="0.5" stroke-miterlimit="10" d="
			M22.136,116.263c0-4.812,2.457-8.754,5.478-8.806c3.072-0.051,5.529,3.737,5.58,8.601c0,4.812-2.406,8.754-5.478,8.805
			C24.695,124.916,22.187,121.025,22.136,116.263z"/>
		<path fill-rule="evenodd" clip-rule="evenodd" fill="#F3F3F3" stroke="#595959" stroke-width="0.5" stroke-miterlimit="10" d="
			M27.767,114.728c0.819,0,1.485,0.666,1.485,1.485c0,0.767-0.666,1.382-1.485,1.382c-0.819,0-1.433-0.615-1.433-1.382
			C26.385,115.393,26.999,114.728,27.767,114.728z"/>
		<path fill-rule="evenodd" clip-rule="evenodd" fill="#F3F3F3" stroke="#595959" stroke-width="0.5" stroke-miterlimit="10" d="
			M25.515,116.878h-0.051h-5.682c-0.41,0-0.717-0.358-0.717-0.717c0-0.41,0.307-0.716,0.717-0.716h5.682h0.051V116.878z"/>
	</g>
	<g>
		
			<rect x="16.446" y="177.718" transform="matrix(-1 -4.485890e-11 4.485890e-11 -1 115.0038 383.7791)" fill-rule="evenodd" clip-rule="evenodd" fill="#F3F3F3" stroke="#595959" stroke-width="0.5" stroke-miterlimit="10" width="82.112" height="28.343"/>
		
			<line fill="#F3F3F3" stroke="#595959" stroke-width="0.5" stroke-miterlimit="10" x1="95.586" y1="206.061" x2="95.586" y2="177.669"/>
		
			<line fill="#F3F3F3" stroke="#595959" stroke-width="0.5" stroke-miterlimit="10" x1="19.506" y1="206.061" x2="19.506" y2="177.718"/>
		
			<line fill="#F3F3F3" stroke="#595959" stroke-width="0.5" stroke-miterlimit="10" x1="95.586" y1="179.026" x2="19.506" y2="179.026"/>
		
			<line fill="#F3F3F3" stroke="#595959" stroke-width="0.5" stroke-miterlimit="10" x1="22.156" y1="192.093" x2="92.938" y2="192.093"/>
		
			<rect x="88.374" y="183.305" transform="matrix(-0.9868 -0.162 0.162 -0.9868 146.256 395.8144)" fill="#F3F3F3" stroke="#595959" stroke-width="0.5" stroke-miterlimit="10" width="1.775" height="17.282"/>
		
			<rect x="82.013" y="183.305" transform="matrix(-0.9961 -0.0882 0.0882 -0.9961 148.5578 390.452)" fill="#F3F3F3" stroke="#595959" stroke-width="0.5" stroke-miterlimit="10" width="1.775" height="17.282"/>
		
			<rect x="75.572" y="183.452" transform="matrix(-0.9734 -0.229 0.229 -0.9734 106.8988 396.5912)" fill="#F3F3F3" stroke="#595959" stroke-width="0.5" stroke-miterlimit="10" width="1.775" height="17.282"/>
		
			<rect x="68.386" y="183.259" transform="matrix(-0.9884 -0.152 0.152 -0.9884 108.565 392.1024)" fill="#F3F3F3" stroke="#595959" stroke-width="0.5" stroke-miterlimit="10" width="1.775" height="17.282"/>
		
			<rect x="62.118" y="183.356" transform="matrix(-0.999 -0.0451 0.0451 -0.999 117.2861 386.6405)" fill="#F3F3F3" stroke="#595959" stroke-width="0.5" stroke-miterlimit="10" width="1.775" height="17.282"/>
		
			<rect x="55.773" y="183.356" transform="matrix(-0.9884 -0.152 0.152 -0.9884 83.4712 390.3763)" fill="#F3F3F3" stroke="#595959" stroke-width="0.5" stroke-miterlimit="10" width="1.775" height="17.282"/>
		
			<rect x="49.33" y="183.452" transform="matrix(-0.999 -0.0451 0.0451 -0.999 91.7184 386.2563)" fill="#F3F3F3" stroke="#595959" stroke-width="0.5" stroke-miterlimit="10" width="1.775" height="17.282"/>
		
			<rect x="43.012" y="183.452" transform="matrix(-0.9787 -0.2052 0.2052 -0.9787 47.4553 389.1069)" fill="#F3F3F3" stroke="#595959" stroke-width="0.5" stroke-miterlimit="10" width="1.775" height="17.282"/>
		
			<rect x="36.695" y="183.434" transform="matrix(-0.9884 -0.152 0.152 -0.9884 45.5249 387.6314)" fill="#F3F3F3" stroke="#595959" stroke-width="0.5" stroke-miterlimit="10" width="1.775" height="17.282"/>
		
			<rect x="30.377" y="183.452" transform="matrix(-0.9964 -0.0847 0.0847 -0.9964 46.1401 386.1449)" fill="#F3F3F3" stroke="#595959" stroke-width="0.5" stroke-miterlimit="10" width="1.775" height="17.282"/>
		
			<rect x="24.06" y="183.241" transform="matrix(-0.9713 -0.2379 0.2379 -0.9713 3.526 384.1904)" fill="#F3F3F3" stroke="#595959" stroke-width="0.5" stroke-miterlimit="10" width="1.775" height="17.282"/>
	</g>
	<path fill-rule="evenodd" clip-rule="evenodd" fill="#F3F3F3" stroke="#595959" stroke-width="0.5" stroke-miterlimit="10" d="
		M249.697,61.863h-22.289c-0.997,0-1.781-1.03-1.781-2.295V42.516c0-1.265,0.784-2.295,1.781-2.295h22.289
		c0.926,0,1.745,1.031,1.745,2.295v17.052C251.442,60.833,250.623,61.863,249.697,61.863L249.697,61.863z M237.263,52.609
		c0-0.562,0.442-0.984,1.031-0.984c0.589,0,1.08,0.422,1.08,0.984c0,0.562-0.492,1.031-1.08,1.031
		C237.704,53.639,237.263,53.17,237.263,52.609z M248.064,60.28h-19.029c-0.851,0-1.52-0.762-1.52-1.697V45.972
		c0-0.935,0.669-1.697,1.52-1.697h19.029c0.79,0,1.49,0.762,1.49,1.697v12.611C249.554,59.518,248.855,60.28,248.064,60.28
		L248.064,60.28z M237.578,48.135v-5.43h1.696v5.43H237.578z"/>
	<g>
		
			<rect x="270.623" y="38.638" fill-rule="evenodd" clip-rule="evenodd" fill="#F3F3F3" stroke="#595959" stroke-width="0.5" stroke-miterlimit="10" width="27.099" height="26.9"/>
		
			<rect x="270.623" y="38.638" fill-rule="evenodd" clip-rule="evenodd" fill="#F3F3F3" stroke="#595959" stroke-width="0.5" stroke-miterlimit="10" width="27.099" height="26.9"/>
		<path fill-rule="evenodd" clip-rule="evenodd" fill="#F3F3F3" stroke="#595959" stroke-width="0.5" stroke-miterlimit="10" d="
			M285.52,45.001c0,2.578,2.085,4.692,4.744,4.692c2.607,0,4.745-2.114,4.745-4.692c0-2.578-2.138-4.692-4.745-4.692
			C287.553,40.257,285.52,42.423,285.52,45.001z"/>
		<path fill-rule="evenodd" clip-rule="evenodd" fill="#F3F3F3" stroke="#595959" stroke-width="0.5" stroke-miterlimit="10" d="
			M285.52,45.001c0,2.578,2.085,4.692,4.744,4.692c2.607,0,4.745-2.114,4.745-4.692c0-2.578-2.138-4.692-4.745-4.692
			C287.553,40.257,285.52,42.423,285.52,45.001z"/>
		<path fill-rule="evenodd" clip-rule="evenodd" fill="#F3F3F3" stroke="#595959" stroke-width="0.5" stroke-miterlimit="10" d="
			M286.953,45.002c0,1.768,1.472,3.223,3.312,3.223c1.787,0,3.259-1.455,3.259-3.223c0-1.82-1.471-3.275-3.259-3.275
			C288.372,41.675,286.953,43.131,286.953,45.002z"/>
		<path fill-rule="evenodd" clip-rule="evenodd" fill="#F3F3F3" stroke="#595959" stroke-width="0.5" stroke-miterlimit="10" d="
			M286.953,45.002c0,1.768,1.472,3.223,3.312,3.223c1.787,0,3.259-1.455,3.259-3.223c0-1.82-1.471-3.275-3.259-3.275
			C288.372,41.675,286.953,43.131,286.953,45.002z"/>
		<path fill-rule="evenodd" clip-rule="evenodd" fill="#F3F3F3" stroke="#595959" stroke-width="0.5" stroke-miterlimit="10" d="
			M273.592,45.001c0,2.578,2.085,4.692,4.745,4.692c2.607,0,4.745-2.114,4.745-4.692c0-2.578-2.138-4.692-4.745-4.692
			C275.677,40.257,273.592,42.423,273.592,45.001z"/>
		<path fill-rule="evenodd" clip-rule="evenodd" fill="#F3F3F3" stroke="#595959" stroke-width="0.5" stroke-miterlimit="10" d="
			M273.592,45.001c0,2.578,2.085,4.692,4.745,4.692c2.607,0,4.745-2.114,4.745-4.692c0-2.578-2.138-4.692-4.745-4.692
			C275.677,40.257,273.592,42.423,273.592,45.001z"/>
		<path fill-rule="evenodd" clip-rule="evenodd" fill="#F3F3F3" stroke="#595959" stroke-width="0.5" stroke-miterlimit="10" d="
			M275.077,45.002c0,1.768,1.472,3.223,3.26,3.223c1.788,0,3.26-1.455,3.26-3.223c0-1.82-1.472-3.275-3.26-3.275
			C276.549,41.675,275.077,43.131,275.077,45.002z"/>
		<path fill-rule="evenodd" clip-rule="evenodd" fill="#F3F3F3" stroke="#595959" stroke-width="0.5" stroke-miterlimit="10" d="
			M275.077,45.002c0,1.768,1.472,3.223,3.26,3.223c1.788,0,3.26-1.455,3.26-3.223c0-1.82-1.472-3.275-3.26-3.275
			C276.549,41.675,275.077,43.131,275.077,45.002z"/>
		<path fill-rule="evenodd" clip-rule="evenodd" fill="#F3F3F3" stroke="#595959" stroke-width="0.5" stroke-miterlimit="10" d="
			M273.592,55.734c0,2.578,2.085,4.692,4.745,4.692c2.607,0,4.745-2.114,4.745-4.692c0-2.578-2.138-4.692-4.745-4.692
			C275.677,51.042,273.592,53.156,273.592,55.734z"/>
		<path fill-rule="evenodd" clip-rule="evenodd" fill="#F3F3F3" stroke="#595959" stroke-width="0.5" stroke-miterlimit="10" d="
			M273.592,55.734c0,2.578,2.085,4.692,4.745,4.692c2.607,0,4.745-2.114,4.745-4.692c0-2.578-2.138-4.692-4.745-4.692
			C275.677,51.042,273.592,53.156,273.592,55.734z"/>
		<path fill-rule="evenodd" clip-rule="evenodd" fill="#F3F3F3" stroke="#595959" stroke-width="0.5" stroke-miterlimit="10" d="
			M289.871,63.027c0,0.392,0.397,0.842,0.908,0.842c0.398,0,0.852-0.393,0.852-0.842c0-0.505-0.398-0.898-0.852-0.898
			C290.268,62.129,289.871,62.577,289.871,63.027z"/>
		<path fill-rule="evenodd" clip-rule="evenodd" fill="#F3F3F3" stroke="#595959" stroke-width="0.5" stroke-miterlimit="10" d="
			M289.871,63.027c0,0.392,0.397,0.842,0.908,0.842c0.398,0,0.852-0.393,0.852-0.842c0-0.505-0.398-0.898-0.852-0.898
			C290.268,62.129,289.871,62.577,289.871,63.027z"/>
		<path fill-rule="evenodd" clip-rule="evenodd" fill="#F3F3F3" stroke="#595959" stroke-width="0.5" stroke-miterlimit="10" d="
			M286.338,63.027c0,0.392,0.341,0.842,0.854,0.842c0.512,0,0.854-0.393,0.854-0.842c0-0.505-0.341-0.898-0.854-0.898
			C286.68,62.129,286.338,62.577,286.338,63.027z"/>
		<path fill-rule="evenodd" clip-rule="evenodd" fill="#F3F3F3" stroke="#595959" stroke-width="0.5" stroke-miterlimit="10" d="
			M286.338,63.027c0,0.392,0.341,0.842,0.854,0.842c0.512,0,0.854-0.393,0.854-0.842c0-0.505-0.341-0.898-0.854-0.898
			C286.68,62.129,286.338,62.577,286.338,63.027z"/>
		<path fill-rule="evenodd" clip-rule="evenodd" fill="#F3F3F3" stroke="#595959" stroke-width="0.5" stroke-miterlimit="10" d="
			M282.704,63.027c0,0.392,0.397,0.842,0.909,0.842c0.397,0,0.851-0.393,0.851-0.842c0-0.505-0.398-0.898-0.851-0.898
			C283.101,62.129,282.704,62.577,282.704,63.027z"/>
		<path fill-rule="evenodd" clip-rule="evenodd" fill="#F3F3F3" stroke="#595959" stroke-width="0.5" stroke-miterlimit="10" d="
			M282.704,63.027c0,0.392,0.397,0.842,0.909,0.842c0.397,0,0.851-0.393,0.851-0.842c0-0.505-0.398-0.898-0.851-0.898
			C283.101,62.129,282.704,62.577,282.704,63.027z"/>
		<path fill-rule="evenodd" clip-rule="evenodd" fill="#F3F3F3" stroke="#595959" stroke-width="0.5" stroke-miterlimit="10" d="
			M286.579,55.734c0,2.003,1.62,3.645,3.685,3.645c2.025,0,3.685-1.642,3.685-3.645c0-2.003-1.66-3.645-3.685-3.645
			C288.158,52.089,286.579,53.731,286.579,55.734z"/>
		<path fill-rule="evenodd" clip-rule="evenodd" fill="#F3F3F3" stroke="#595959" stroke-width="0.5" stroke-miterlimit="10" d="
			M286.579,55.734c0,2.003,1.62,3.645,3.685,3.645c2.025,0,3.685-1.642,3.685-3.645c0-2.003-1.66-3.645-3.685-3.645
			C288.158,52.089,286.579,53.731,286.579,55.734z"/>
		<path fill-rule="evenodd" clip-rule="evenodd" fill="#F3F3F3" stroke="#595959" stroke-width="0.5" stroke-miterlimit="10" d="
			M287.607,55.735c0,1.376,1.146,2.51,2.538,2.51c1.432,0,2.578-1.134,2.578-2.51c0-1.376-1.146-2.55-2.578-2.55
			C288.753,53.185,287.607,54.359,287.607,55.735z"/>
		<path fill-rule="evenodd" clip-rule="evenodd" fill="#F3F3F3" stroke="#595959" stroke-width="0.5" stroke-miterlimit="10" d="
			M287.607,55.735c0,1.376,1.146,2.51,2.538,2.51c1.432,0,2.578-1.134,2.578-2.51c0-1.376-1.146-2.55-2.578-2.55
			C288.753,53.185,287.607,54.359,287.607,55.735z"/>
	</g>
	<g>
		<g>
			<path fill="#F3F3F3" stroke="#595959" stroke-width="0.5" stroke-miterlimit="10" d="M286.892,128.545
				c0,5.261-1.575,9.519-3.528,9.519c-1.944,0-3.528-4.258-3.528-9.519s1.583-9.528,3.528-9.528
				C285.317,119.017,286.892,123.284,286.892,128.545z"/>
			<path fill="#F3F3F3" stroke="#595959" stroke-width="0.5" stroke-miterlimit="10" d="M302.824,128.545
				c0,5.261-4.267,9.519-9.527,9.519s-9.527-4.258-9.527-9.519s4.267-9.528,9.527-9.528S302.824,123.284,302.824,128.545z"/>
		</g>
		<g>
			<path fill="#F3F3F3" stroke="#595959" stroke-width="0.5" stroke-miterlimit="10" d="M311.288,151.069
				c5.261,0,9.519,1.575,9.519,3.528c0,1.944-4.258,3.528-9.519,3.528s-9.527-1.584-9.527-3.528
				C301.761,152.644,306.028,151.069,311.288,151.069z"/>
			<path fill="#F3F3F3" stroke="#595959" stroke-width="0.5" stroke-miterlimit="10" d="M311.288,135.138
				c5.261,0,9.519,4.267,9.519,9.527s-4.258,9.528-9.519,9.528s-9.527-4.267-9.527-9.528S306.028,135.138,311.288,135.138z"/>
		</g>
		<g>
			<path fill="#F3F3F3" stroke="#595959" stroke-width="0.5" stroke-miterlimit="10" d="M311.288,106.011
				c-5.27,0-9.527-1.575-9.527-3.528c0-1.944,4.258-3.528,9.527-3.528c5.261,0,9.519,1.584,9.519,3.528
				C320.807,104.436,316.549,106.011,311.288,106.011z"/>
			<path fill="#F3F3F3" stroke="#595959" stroke-width="0.5" stroke-miterlimit="10" d="M311.288,121.943
				c-5.27,0-9.527-4.267-9.527-9.528c0-5.261,4.258-9.528,9.527-9.528c5.261,0,9.519,4.267,9.519,9.528
				C320.807,117.676,316.549,121.943,311.288,121.943z"/>
		</g>
		
			<rect x="292.1" y="109.356" fill="#F3F3F3" stroke="#595959" stroke-width="0.5" stroke-miterlimit="10" width="38.369" height="38.369"/>
	</g>
	<g>
		<path fill="#F3F3F3" stroke="#595959" stroke-width="0.5" stroke-miterlimit="10" d="M309.258,293.497
			c1.233,0.373,2.059,1.173,2.222,1.144c0.585-0.104-0.806-0.994,0.128-3.633c0.701-1.981,1.257-4.833,1.257-4.833
			s2.057,2.206,3.045,4.108c1.136,2.187,0.03,4.359,0.211,4.454c0.239,0.125,0.841-1.484,2.737-1.869
			c2.32-0.471,5.509,1.74,5.509,1.74s-2.414,0.048-4.06,1.704c-1.576,1.585-3.32,1.282-3.221,1.615
			c0.06,0.202,1.958,0.758,3.366,1.756c1.242,0.88,1.993,3.371,1.993,3.371s-1.196-1.051-4.422-0.761
			c-2.92,0.262-3.567-3.149-3.758-3.117c-0.276,0.047,0.35,1.704-0.474,4.06c-0.768,2.196-3.994,4.446-3.994,4.446
			s-0.45-3.325-0.546-4.789c-0.187-2.839,1.825-4.251,1.534-4.683c-0.22-0.326-2.273,0.77-4.179-0.555
			c-1.113-0.774-4.278-2.103-4.278-2.103s3.1-1.741,4.821-2.138C307.932,293.232,308.645,293.312,309.258,293.497"/>
		<path fill="#F3F3F3" stroke="#595959" stroke-width="0.5" stroke-miterlimit="10" d="M311.276,292.76
			c0.002-0.148,0.009-0.379,0.032-0.663c0.031-0.379,0.065-0.506,0.067-0.747c0.002-0.195-0.021-0.425-0.094-0.819
			c-0.21-1.133-1.415-1.789-1.881-2.096c-0.376-0.247-1.966-1.156-1.966-1.156s-0.954,2.446-0.602,4.152
			c0.322,0.94,2.427,2.067,2.427,2.067l2.395,1.273L311.276,292.76z"/>
		<path fill="#F3F3F3" stroke="#595959" stroke-width="0.5" stroke-miterlimit="10" d="M317.624,293.367
			c0,0,1.381-0.819,2.103-1.803c1.171-1.594,1.21-3.287,1.196-3.878c0,0-2.755,0.051-3.751,1.667
			c-0.675,1.095-0.728,2.181-0.743,2.561c-0.006,0.138-0.018,0.27-0.039,0.406l-0.487,2.603L317.624,293.367z"/>
		<path fill="#F3F3F3" stroke="#595959" stroke-width="0.5" stroke-miterlimit="10" d="M319.033,298.862
			c0,0,1.705,0.904,2.216,1.039c0.592,0.157,0.934,0.158,1.108,0.148c0.65-0.036,1.108-0.287,1.407-0.379
			c0.361-0.111,2.034-0.422,2.034-0.422s-1.634-2.025-3.33-2.647c-1.763-0.403-2.401,0.086-2.907,0.327
			c-0.147,0.07-0.295,0.127-0.451,0.172l-2.418,0.643L319.033,298.862z"/>
		<path fill="#F3F3F3" stroke="#595959" stroke-width="0.5" stroke-miterlimit="10" d="M314.168,301.875
			c0,0-0.164,2.105,0.181,2.764c0.13,0.247,0.29,0.991,1.572,1.465c1.237,0.458,1.978,1.328,1.978,1.328s0.431-1.72,0.097-2.821
			c-0.153-0.505-0.254-0.783-0.487-1.261c-0.264-0.541-1.032-1.067-1.593-1.519c-0.587-0.473-0.986-1.219-0.986-1.219l-0.658-1.564
			L314.168,301.875z"/>
		<path fill="#F3F3F3" stroke="#595959" stroke-width="0.5" stroke-miterlimit="10" d="M308.665,298.13c0,0-1.528-0.017-2.603,0.363
			c-0.771,0.272-1.136,0.95-1.933,2.082c-0.251,0.357-1.16,1.856-1.16,1.856s2.77,0.747,4.639,0.338
			c1.421-0.311,2.232-2.373,2.232-2.373l1.175-2.351L308.665,298.13z"/>
	</g>
	<g>
		
			<rect x="181.024" y="191.266" fill-rule="evenodd" clip-rule="evenodd" fill="#F3F3F3" stroke="#595959" stroke-width="0.5" stroke-miterlimit="10" width="2.504" height="44.463"/>
		
			<polygon fill-rule="evenodd" clip-rule="evenodd" fill="#F3F3F3" stroke="#595959" stroke-width="0.5" stroke-miterlimit="10" points="
			181.139,231.957 179.078,224.812 179.078,202.229 181.139,195.082 		"/>
		
			<rect x="176.893" y="209.731" transform="matrix(-1 -4.495794e-11 4.495794e-11 -1 355.9711 427.0398)" fill-rule="evenodd" clip-rule="evenodd" fill="#F3F3F3" stroke="#595959" stroke-width="0.5" stroke-miterlimit="10" width="2.185" height="7.579"/>
	</g>
	<g>
		
			<rect x="167.841" y="81.889" transform="matrix(-5.453079e-11 1 -1 -5.453079e-11 293.4079 -103.8174)" fill-rule="evenodd" clip-rule="evenodd" fill="#F3F3F3" stroke="#595959" stroke-width="0.5" stroke-miterlimit="10" width="61.543" height="25.812"/>
		
			<line fill="#F3F3F3" stroke="#595959" stroke-width="0.5" stroke-miterlimit="10" x1="211.519" y1="66.494" x2="185.662" y2="66.494"/>
		
			<line fill="#F3F3F3" stroke="#595959" stroke-width="0.5" stroke-miterlimit="10" x1="211.519" y1="122.781" x2="185.706" y2="122.781"/>
		
			<line fill="#F3F3F3" stroke="#595959" stroke-width="0.5" stroke-miterlimit="10" x1="186.898" y1="66.494" x2="186.898" y2="122.781"/>
		
			<line fill="#F3F3F3" stroke="#595959" stroke-width="0.5" stroke-miterlimit="10" x1="198.798" y1="121.367" x2="198.798" y2="67.906"/>
		
			<rect x="197.902" y="63.295" transform="matrix(-0.0451 0.999 -0.999 -0.0451 278.7669 -124.1328)" fill="#F3F3F3" stroke="#595959" stroke-width="0.5" stroke-miterlimit="10" width="1.617" height="15.739"/>
		
			<rect x="197.902" y="69.074" transform="matrix(-0.152 0.9884 -0.9884 -0.152 304.9714 -107.7583)" fill="#F3F3F3" stroke="#595959" stroke-width="0.5" stroke-miterlimit="10" width="1.617" height="15.739"/>
		
			<rect x="197.99" y="74.942" transform="matrix(-0.0451 0.999 -0.999 -0.0451 290.493 -112.0489)" fill="#F3F3F3" stroke="#595959" stroke-width="0.5" stroke-miterlimit="10" width="1.617" height="15.739"/>
		
			<rect x="197.99" y="80.695" transform="matrix(-0.2052 0.9787 -0.9787 -0.2052 326.2651 -87.8343)" fill="#F3F3F3" stroke="#595959" stroke-width="0.5" stroke-miterlimit="10" width="1.617" height="15.739"/>
		
			<rect x="197.973" y="86.448" transform="matrix(-0.152 0.9884 -0.9884 -0.152 322.226 -87.8127)" fill="#F3F3F3" stroke="#595959" stroke-width="0.5" stroke-miterlimit="10" width="1.617" height="15.739"/>
		
			<rect x="197.99" y="92.202" transform="matrix(-0.0847 0.9964 -0.9964 -0.0847 315.3552 -89.5321)" fill="#F3F3F3" stroke="#595959" stroke-width="0.5" stroke-miterlimit="10" width="1.617" height="15.739"/>
		
			<rect x="197.798" y="97.955" transform="matrix(-0.2379 0.9713 -0.9713 -0.2379 348.6444 -61.9007)" fill="#F3F3F3" stroke="#595959" stroke-width="0.5" stroke-miterlimit="10" width="1.617" height="15.739"/>
		
			<rect x="197.673" y="103.509" transform="matrix(-0.2379 0.9713 -0.9713 -0.2379 353.8848 -54.9037)" fill="#F3F3F3" stroke="#595959" stroke-width="0.5" stroke-miterlimit="10" width="1.617" height="15.739"/>
		
			<rect x="197.948" y="108.567" transform="matrix(-0.2379 0.9713 -0.9713 -0.2379 359.1383 -48.9099)" fill="#F3F3F3" stroke="#595959" stroke-width="0.5" stroke-miterlimit="10" width="1.617" height="15.739"/>
	</g>
	<g>
		<path fill-rule="evenodd" clip-rule="evenodd" fill="#F3F3F3" stroke="#595959" stroke-width="0.5" stroke-miterlimit="10" d="
			M296.264,171.201v84.608c0,2.2,1.8,4,4,4h26.068c2.2,0,4-1.8,4-4v-84.608c0-2.2-1.8-4-4-4h-26.068
			C298.064,167.201,296.264,169.001,296.264,171.201z"/>
		<path fill-rule="evenodd" clip-rule="evenodd" fill="#F3F3F3" stroke="#595959" stroke-width="0.5" stroke-miterlimit="10" d="
			M301.702,225.742c-3.891,0-5.512,0.199-5.512,5.135v14.658c0,4.936,1.667,5.135,5.512,5.135h14.59
			c3.891,0,5.512-0.199,5.512-5.135v-14.658c0-4.936-1.667-5.135-5.512-5.135H301.702z"/>
		<path fill-rule="evenodd" clip-rule="evenodd" fill="#F3F3F3" stroke="#595959" stroke-width="0.5" stroke-miterlimit="10" d="
			M301.702,225.742c-3.891,0-5.512,0.199-5.512,5.135v14.658c0,4.936,1.667,5.135,5.512,5.135h14.59
			c3.891,0,5.512-0.199,5.512-5.135v-14.658c0-4.936-1.667-5.135-5.512-5.135H301.702z"/>
		<path fill-rule="evenodd" clip-rule="evenodd" fill="#F3F3F3" stroke="#595959" stroke-width="0.5" stroke-miterlimit="10" d="
			M301.702,201.058c-3.891,0-5.512,0.2-5.512,5.086v14.708c0,4.936,1.667,5.086,5.512,5.086h14.59c3.891,0,5.512-0.2,5.512-5.086
			v-14.708c0-4.936-1.667-5.086-5.512-5.086H301.702z"/>
		<path fill-rule="evenodd" clip-rule="evenodd" fill="#F3F3F3" stroke="#595959" stroke-width="0.5" stroke-miterlimit="10" d="
			M301.702,201.058c-3.891,0-5.512,0.2-5.512,5.086v14.708c0,4.936,1.667,5.086,5.512,5.086h14.59c3.891,0,5.512-0.2,5.512-5.086
			v-14.708c0-4.936-1.667-5.086-5.512-5.086H301.702z"/>
		<path fill-rule="evenodd" clip-rule="evenodd" fill="#F3F3F3" stroke="#595959" stroke-width="0.5" stroke-miterlimit="10" d="
			M301.776,176.374c-3.891,0-5.512,0.2-5.512,5.086v14.708c0,4.936,1.667,5.086,5.512,5.086h14.59c3.891,0,5.512-0.2,5.512-5.086
			v-14.708c0-4.936-1.667-5.086-5.512-5.086H301.776z"/>
		<path fill-rule="evenodd" clip-rule="evenodd" fill="#F3F3F3" stroke="#595959" stroke-width="0.5" stroke-miterlimit="10" d="
			M330.332,250.474v-77.901v-1.571c0-2.09-1.59-3.801-3.534-3.801h-1.461h-25.615c-1.943,0-3.534,1.71-3.534,3.801v1.571
			c0,2.09,1.59,3.801,3.534,3.801h22.081v74.237h-21.713c-2.08,0-3.782,1.715-3.782,3.811v1.576c0,2.096,1.702,3.811,3.782,3.811
			h24.895h1.564c2.08,0,3.782-1.715,3.782-3.811v-1.576v-5.074V250.474z"/>
	</g>
</g>
<g id="numbers">
	<g>
		<path d="M200.679,154.746h-2.08v4.173h-0.936v-9.1h0.936v4.082h2.08l3.081-4.082h1.04l-3.38,4.42l3.575,4.68h-1.105
			L200.679,154.746z"/>
		<path d="M212.054,152.081l-3.419,7.657c-0.277,0.642-0.598,1.096-0.962,1.365c-0.364,0.269-0.802,0.403-1.313,0.403
			c-0.33,0-0.638-0.052-0.924-0.156c-0.285-0.104-0.532-0.26-0.74-0.468l0.429-0.689c0.347,0.347,0.763,0.52,1.248,0.52
			c0.312,0,0.578-0.087,0.8-0.26c0.221-0.174,0.427-0.468,0.617-0.884l0.299-0.663l-3.055-6.825h0.962l2.574,5.811l2.573-5.811
			H212.054z"/>
		<path d="M217.384,158.919l-2.171-2.86l-2.185,2.86h-1.04l2.704-3.51l-2.573-3.328h1.04l2.054,2.678l2.054-2.678h1.014
			l-2.573,3.328l2.729,3.51H217.384z"/>
		<path d="M219.945,152.081h0.923v3.029h4.304v-3.029h0.923v6.838h-0.923v-3.016h-4.304v3.016h-0.923V152.081z"/>
		<path d="M233.972,152.081v6.838h-0.845v-2.262h-2.146h-0.26l-1.586,2.262h-1.001l1.703-2.392
			c-0.529-0.147-0.937-0.398-1.223-0.754s-0.429-0.806-0.429-1.352c0-0.763,0.26-1.343,0.78-1.742
			c0.52-0.398,1.23-0.598,2.132-0.598H233.972z M231.06,155.968h2.067V152.9h-2.003c-1.334,0-2.002,0.516-2.002,1.547
			C229.122,155.461,229.768,155.968,231.06,155.968z"/>
		<path d="M236.065,154.993h3.406v0.806h-3.406V154.993z"/>
		<path d="M198.489,174.142c-0.533-0.294-0.951-0.708-1.255-1.242c-0.303-0.533-0.455-1.133-0.455-1.8s0.152-1.265,0.455-1.794
			c0.304-0.529,0.722-0.94,1.255-1.235c0.533-0.294,1.138-0.442,1.813-0.442c0.589,0,1.115,0.115,1.579,0.345
			s0.83,0.565,1.099,1.007l-0.688,0.468c-0.226-0.338-0.512-0.592-0.858-0.761s-0.724-0.253-1.131-0.253
			c-0.494,0-0.938,0.11-1.333,0.332c-0.395,0.221-0.701,0.535-0.923,0.942c-0.221,0.408-0.331,0.871-0.331,1.391
			c0,0.529,0.11,0.995,0.331,1.397c0.222,0.403,0.528,0.715,0.923,0.936s0.839,0.332,1.333,0.332c0.407,0,0.784-0.083,1.131-0.247
			s0.633-0.416,0.858-0.754l0.688,0.468c-0.269,0.442-0.637,0.778-1.104,1.008c-0.469,0.229-0.993,0.344-1.573,0.344
			C199.626,174.584,199.022,174.437,198.489,174.142z"/>
		<path d="M209.441,168.5h-2.587v6.019h-0.923V168.5h-2.587v-0.819h6.097V168.5z"/>
		<path d="M211.508,174.136c-0.529-0.299-0.945-0.713-1.248-1.242c-0.304-0.528-0.455-1.126-0.455-1.794s0.151-1.265,0.455-1.794
			c0.303-0.529,0.719-0.94,1.248-1.235c0.528-0.294,1.122-0.442,1.78-0.442c0.659,0,1.253,0.147,1.781,0.442
			c0.528,0.295,0.942,0.707,1.242,1.235c0.299,0.529,0.448,1.126,0.448,1.794s-0.149,1.266-0.448,1.794
			c-0.3,0.529-0.714,0.942-1.242,1.242c-0.528,0.299-1.122,0.448-1.781,0.448C212.63,174.584,212.036,174.435,211.508,174.136z
			 M214.595,173.434c0.386-0.221,0.688-0.535,0.904-0.942c0.216-0.407,0.324-0.871,0.324-1.391s-0.108-0.983-0.324-1.391
			c-0.217-0.407-0.519-0.722-0.904-0.942c-0.386-0.221-0.821-0.332-1.307-0.332s-0.921,0.11-1.306,0.332
			c-0.386,0.221-0.689,0.535-0.91,0.942c-0.222,0.408-0.332,0.871-0.332,1.391s0.11,0.984,0.332,1.391
			c0.221,0.407,0.524,0.721,0.91,0.942c0.385,0.221,0.82,0.332,1.306,0.332S214.209,173.655,214.595,173.434z"/>
		<path d="M224.286,167.681v6.838h-0.923V168.5h-3.275l-0.092,1.69c-0.069,1.421-0.233,2.514-0.493,3.276
			c-0.261,0.763-0.724,1.144-1.392,1.144c-0.182,0-0.402-0.035-0.663-0.104l0.065-0.793c0.156,0.035,0.264,0.052,0.325,0.052
			c0.354,0,0.624-0.165,0.806-0.494c0.182-0.329,0.304-0.736,0.364-1.222c0.061-0.485,0.112-1.126,0.155-1.924l0.117-2.444H224.286z
			"/>
		<path d="M227.952,174.136c-0.528-0.299-0.944-0.713-1.248-1.242c-0.303-0.528-0.455-1.126-0.455-1.794s0.152-1.265,0.455-1.794
			c0.304-0.529,0.72-0.94,1.248-1.235c0.528-0.294,1.122-0.442,1.781-0.442c0.658,0,1.252,0.147,1.781,0.442
			c0.528,0.295,0.942,0.707,1.241,1.235s0.448,1.126,0.448,1.794s-0.149,1.266-0.448,1.794c-0.299,0.529-0.713,0.942-1.241,1.242
			c-0.529,0.299-1.123,0.448-1.781,0.448C229.075,174.584,228.481,174.435,227.952,174.136z M231.04,173.434
			c0.386-0.221,0.687-0.535,0.903-0.942s0.325-0.871,0.325-1.391s-0.108-0.983-0.325-1.391c-0.217-0.407-0.518-0.722-0.903-0.942
			c-0.386-0.221-0.821-0.332-1.307-0.332s-0.921,0.11-1.307,0.332c-0.386,0.221-0.688,0.535-0.91,0.942
			c-0.221,0.408-0.331,0.871-0.331,1.391s0.11,0.984,0.331,1.391c0.222,0.407,0.524,0.721,0.91,0.942s0.821,0.332,1.307,0.332
			S230.655,173.655,231.04,173.434z"/>
		<path d="M240.927,172.66c0,0.598-0.222,1.057-0.663,1.378c-0.442,0.321-1.101,0.481-1.977,0.481h-3.106v-6.838h3.016
			c0.78,0,1.392,0.152,1.833,0.455c0.442,0.303,0.663,0.736,0.663,1.3c0,0.373-0.102,0.691-0.306,0.956
			c-0.203,0.265-0.487,0.461-0.852,0.591C240.463,171.2,240.927,171.759,240.927,172.66z M236.077,170.723h2.055
			c0.528,0,0.934-0.1,1.215-0.299c0.282-0.199,0.423-0.489,0.423-0.871s-0.141-0.667-0.423-0.858
			c-0.281-0.19-0.687-0.286-1.215-0.286h-2.055V170.723z M239.575,173.505c0.295-0.19,0.442-0.489,0.442-0.897
			c0-0.407-0.135-0.708-0.403-0.903s-0.693-0.292-1.273-0.292h-2.263v2.379h2.171C238.838,173.791,239.28,173.696,239.575,173.505z"
			/>
		<path d="M247.492,168.299c0.477,0.447,0.715,1.107,0.715,1.983v4.238h-0.884v-1.066c-0.208,0.355-0.514,0.633-0.917,0.832
			c-0.402,0.199-0.882,0.299-1.436,0.299c-0.764,0-1.37-0.182-1.82-0.546c-0.451-0.364-0.676-0.845-0.676-1.443
			c0-0.581,0.21-1.049,0.63-1.404c0.421-0.355,1.09-0.533,2.009-0.533h2.171v-0.416c0-0.589-0.165-1.038-0.494-1.346
			s-0.811-0.461-1.442-0.461c-0.434,0-0.85,0.071-1.248,0.214c-0.399,0.143-0.741,0.34-1.027,0.592l-0.416-0.689
			c0.347-0.295,0.763-0.522,1.248-0.683s0.996-0.241,1.534-0.241C246.33,167.629,247.015,167.852,247.492,168.299z M246.451,173.499
			c0.373-0.238,0.65-0.583,0.832-1.034v-1.118h-2.145c-1.171,0-1.756,0.407-1.756,1.222c0,0.399,0.152,0.713,0.455,0.943
			c0.304,0.229,0.729,0.344,1.274,0.344C245.632,173.856,246.078,173.737,246.451,173.499z"/>
		<path d="M255.915,167.681v6.838h-0.845v-2.262h-2.146h-0.26l-1.586,2.262h-1.001l1.703-2.392
			c-0.529-0.147-0.937-0.398-1.223-0.754s-0.429-0.806-0.429-1.352c0-0.763,0.26-1.343,0.78-1.742
			c0.52-0.398,1.23-0.598,2.132-0.598H255.915z M253.003,171.568h2.067V168.5h-2.003c-1.334,0-2.002,0.516-2.002,1.547
			C251.066,171.061,251.711,171.568,253.003,171.568z"/>
		<path d="M200.133,181.519v9.8h-1.82v-8.274h-2.072v-1.526H200.133z"/>
		<path d="M209.471,181.519v1.218l-3.808,8.582h-1.946l3.682-8.26h-3.85v1.666h-1.694v-3.206H209.471z"/>
		<path d="M211.809,189.415c0.215,0.215,0.322,0.495,0.322,0.84c0,0.149-0.021,0.306-0.063,0.469
			c-0.042,0.164-0.128,0.409-0.259,0.735l-0.714,1.974h-1.134l0.56-2.142c-0.205-0.084-0.366-0.217-0.482-0.399
			c-0.117-0.182-0.176-0.395-0.176-0.637c0-0.345,0.107-0.625,0.322-0.84s0.485-0.322,0.813-0.322
			C211.324,189.093,211.594,189.201,211.809,189.415z"/>
		<path d="M219.327,185.642c0.513,0.247,0.914,0.6,1.203,1.057c0.29,0.458,0.435,0.985,0.435,1.582c0,0.635-0.159,1.192-0.477,1.673
			c-0.317,0.481-0.746,0.852-1.287,1.113c-0.542,0.261-1.148,0.392-1.82,0.392c-1.344,0-2.387-0.42-3.129-1.26
			c-0.742-0.84-1.113-2.044-1.113-3.612c0-1.101,0.2-2.042,0.602-2.821c0.401-0.779,0.964-1.372,1.688-1.778
			c0.724-0.406,1.561-0.609,2.513-0.609c0.504,0,0.978,0.054,1.421,0.161s0.828,0.264,1.155,0.469l-0.672,1.372
			c-0.485-0.317-1.106-0.476-1.862-0.476c-0.942,0-1.68,0.29-2.212,0.868s-0.798,1.414-0.798,2.506v0.014
			c0.289-0.336,0.658-0.59,1.106-0.763c0.447-0.172,0.951-0.259,1.512-0.259C218.235,185.271,218.814,185.395,219.327,185.642z
			 M218.669,189.576c0.354-0.303,0.532-0.707,0.532-1.211c0-0.513-0.178-0.919-0.532-1.218c-0.355-0.299-0.831-0.448-1.429-0.448
			c-0.588,0-1.066,0.159-1.435,0.476c-0.369,0.317-0.553,0.719-0.553,1.204c0,0.476,0.18,0.87,0.539,1.183
			c0.359,0.313,0.855,0.469,1.49,0.469C217.852,190.031,218.314,189.88,218.669,189.576z"/>
	</g>
	<g>
		<path d="M108.841,218.8c-0.724-0.4-1.291-0.951-1.703-1.658c-0.411-0.707-0.617-1.498-0.617-2.373s0.206-1.666,0.617-2.373
			c0.412-0.705,0.981-1.258,1.71-1.656c0.728-0.398,1.542-0.598,2.444-0.598c0.676,0,1.3,0.111,1.872,0.338
			c0.571,0.225,1.057,0.555,1.455,0.988l-0.61,0.609c-0.711-0.719-1.608-1.078-2.691-1.078c-0.72,0-1.373,0.164-1.963,0.494
			s-1.051,0.779-1.385,1.352c-0.333,0.572-0.5,1.213-0.5,1.924s0.167,1.352,0.5,1.924c0.334,0.572,0.795,1.023,1.385,1.352
			c0.59,0.33,1.243,0.494,1.963,0.494c1.092,0,1.989-0.363,2.691-1.092l0.61,0.611c-0.398,0.434-0.886,0.766-1.462,0.994
			c-0.576,0.23-1.202,0.346-1.879,0.346C110.377,219.398,109.564,219.199,108.841,218.8z"/>
		<path d="M122.523,212.482v6.838H121.6v-6.02h-4.29v6.02h-0.923v-6.838H122.523z"/>
		<path d="M129.555,213.099c0.477,0.445,0.715,1.107,0.715,1.982v4.238h-0.884v-1.066c-0.208,0.355-0.514,0.633-0.916,0.832
			c-0.403,0.199-0.882,0.299-1.437,0.299c-0.763,0-1.37-0.182-1.82-0.547c-0.45-0.363-0.676-0.844-0.676-1.441
			c0-0.582,0.21-1.049,0.63-1.404c0.421-0.355,1.09-0.533,2.009-0.533h2.171v-0.416c0-0.59-0.164-1.037-0.494-1.346
			c-0.329-0.307-0.81-0.461-1.442-0.461c-0.434,0-0.85,0.07-1.248,0.215c-0.398,0.143-0.741,0.34-1.027,0.59l-0.416-0.688
			c0.347-0.295,0.763-0.523,1.248-0.684s0.997-0.24,1.534-0.24C128.394,212.429,129.079,212.652,129.555,213.099z M128.515,218.298
			c0.373-0.238,0.65-0.582,0.832-1.033v-1.117h-2.145c-1.17,0-1.755,0.406-1.755,1.221c0,0.4,0.151,0.713,0.455,0.943
			c0.303,0.23,0.728,0.344,1.273,0.344C127.697,218.656,128.143,218.536,128.515,218.298z"/>
		<path d="M138.318,212.482v6.838h-0.923v-6.02h-3.276l-0.091,1.689c-0.069,1.422-0.234,2.514-0.494,3.277
			c-0.26,0.762-0.724,1.143-1.392,1.143c-0.182,0-0.402-0.033-0.662-0.104l0.064-0.793c0.156,0.035,0.265,0.053,0.325,0.053
			c0.355,0,0.624-0.166,0.806-0.494c0.183-0.33,0.304-0.736,0.364-1.223c0.061-0.484,0.112-1.127,0.156-1.924l0.117-2.443H138.318z"
			/>
		<path d="M145.837,215.472c0.446,0.371,0.67,0.908,0.67,1.611c0,0.729-0.24,1.287-0.722,1.678c-0.48,0.389-1.177,0.58-2.086,0.57
			l-2.755-0.012v-6.838h0.923v2.391l2.014,0.027C144.74,214.908,145.391,215.099,145.837,215.472z M145.083,218.247
			c0.325-0.266,0.488-0.652,0.488-1.164c0-0.502-0.161-0.875-0.481-1.117c-0.32-0.244-0.802-0.369-1.443-0.379l-1.78-0.025v3.043
			l1.78,0.025C144.28,218.638,144.759,218.511,145.083,218.247z"/>
		<path d="M148.263,212.482h0.923v3.029h4.303v-3.029h0.923v6.838h-0.923v-3.016h-4.303v3.016h-0.923V212.482z"/>
		<path d="M162.289,212.482v6.838h-0.846v-2.262h-2.145h-0.26l-1.587,2.262h-1.001l1.703-2.393
			c-0.528-0.146-0.936-0.398-1.222-0.754s-0.429-0.807-0.429-1.352c0-0.764,0.26-1.344,0.779-1.742
			c0.521-0.398,1.231-0.598,2.133-0.598H162.289z M159.377,216.368h2.066V213.3h-2.002c-1.335,0-2.002,0.516-2.002,1.547
			C157.44,215.861,158.085,216.368,159.377,216.368z"/>
		<path d="M109.77,226.32v9.799h-1.82v-8.273h-2.071v-1.525H109.77z"/>
		<path d="M115.104,226.32v9.799h-1.82v-8.273h-2.071v-1.525H115.104z"/>
		<path d="M118.969,234.214c0.215,0.215,0.322,0.496,0.322,0.84c0,0.15-0.021,0.307-0.063,0.471
			c-0.042,0.162-0.128,0.408-0.259,0.734l-0.714,1.975h-1.135l0.561-2.143c-0.205-0.084-0.366-0.217-0.483-0.398
			c-0.116-0.184-0.175-0.395-0.175-0.639c0-0.344,0.107-0.625,0.322-0.84c0.215-0.213,0.485-0.32,0.812-0.32
			C118.483,233.894,118.754,234.001,118.969,234.214z"/>
		<path d="M126.598,230.917c0.662,0.537,0.994,1.268,0.994,2.191c0,0.588-0.145,1.121-0.435,1.596
			c-0.289,0.477-0.723,0.855-1.302,1.135s-1.293,0.42-2.142,0.42c-0.7,0-1.377-0.1-2.03-0.301s-1.204-0.479-1.652-0.834l0.771-1.414
			c0.364,0.299,0.8,0.535,1.309,0.707c0.509,0.174,1.034,0.26,1.575,0.26c0.645,0,1.15-0.133,1.52-0.398
			c0.368-0.268,0.553-0.633,0.553-1.1c0-0.504-0.198-0.885-0.595-1.141c-0.397-0.258-1.076-0.385-2.037-0.385h-2.366l0.504-5.334
			h5.754v1.525h-4.214l-0.21,2.268h0.938C124.914,230.113,125.935,230.382,126.598,230.917z"/>
	</g>
	<g>
		<path d="M208.922,290.765v9.1h-0.948v-8.268h-4.395l-0.104,3.042c-0.044,1.256-0.146,2.269-0.306,3.035
			c-0.161,0.767-0.405,1.339-0.734,1.716c-0.33,0.377-0.768,0.565-1.313,0.565c-0.233,0-0.477-0.03-0.728-0.091l0.078-0.858
			c0.146,0.035,0.29,0.053,0.429,0.053c0.381,0,0.69-0.152,0.93-0.455c0.238-0.304,0.418-0.773,0.539-1.411
			c0.121-0.637,0.204-1.479,0.247-2.528l0.13-3.899H208.922z"/>
		<path d="M212.81,299.481c-0.529-0.299-0.945-0.713-1.248-1.241c-0.304-0.528-0.455-1.127-0.455-1.794s0.151-1.266,0.455-1.794
			c0.303-0.528,0.719-0.94,1.248-1.235c0.528-0.294,1.122-0.441,1.78-0.441c0.659,0,1.253,0.147,1.781,0.441
			c0.528,0.295,0.942,0.707,1.242,1.235c0.299,0.528,0.448,1.127,0.448,1.794s-0.149,1.266-0.448,1.794
			c-0.3,0.528-0.714,0.942-1.242,1.241s-1.122,0.449-1.781,0.449C213.932,299.93,213.338,299.78,212.81,299.481z M215.897,298.779
			c0.386-0.221,0.688-0.534,0.904-0.942c0.216-0.407,0.324-0.871,0.324-1.391c0-0.521-0.108-0.983-0.324-1.391
			c-0.217-0.407-0.519-0.722-0.904-0.943c-0.386-0.221-0.821-0.331-1.307-0.331s-0.921,0.11-1.306,0.331
			c-0.386,0.222-0.689,0.536-0.91,0.943c-0.222,0.407-0.332,0.87-0.332,1.391c0,0.52,0.11,0.983,0.332,1.391
			c0.221,0.408,0.524,0.722,0.91,0.942c0.385,0.222,0.82,0.332,1.306,0.332S215.511,299,215.897,298.779z"/>
		<path d="M226.667,299.059v2.457h-0.871v-1.651h-6.123v1.651h-0.87v-2.457h0.39c0.459-0.026,0.771-0.364,0.936-1.015
			c0.165-0.649,0.277-1.56,0.338-2.729l0.092-2.288h5.044v6.032H226.667z M221.065,297.765c-0.122,0.629-0.338,1.06-0.65,1.294
			h4.265v-5.213h-3.289l-0.078,1.521C221.268,296.337,221.186,297.137,221.065,297.765z"/>
		<path d="M234.454,296.823h-1.481v3.042h-0.924v-3.042h-1.481l-2.093,3.042h-1.105l2.457-3.523l-2.262-3.314h1.001l2.002,3.003
			h1.481v-3.003h0.924v3.003h1.481l2.015-3.003h1.001l-2.262,3.328l2.457,3.51h-1.104L234.454,296.823z"/>
		<path d="M239.2,293.027h0.923v5.434l4.563-5.434h0.819v6.838h-0.923v-5.434l-4.55,5.434H239.2V293.027z"/>
		<path d="M253.395,293.027v6.838h-0.845v-2.262h-2.145h-0.261l-1.586,2.262h-1.001l1.703-2.392
			c-0.528-0.147-0.936-0.399-1.222-0.755c-0.286-0.354-0.43-0.806-0.43-1.352c0-0.763,0.261-1.343,0.78-1.742
			c0.521-0.398,1.23-0.598,2.132-0.598H253.395z M250.483,296.913h2.067v-3.067h-2.002c-1.335,0-2.002,0.516-2.002,1.547
			C248.546,296.407,249.192,296.913,250.483,296.913z"/>
		<path d="M207.112,311.834c0.476,0.504,0.714,1.134,0.714,1.89c0,0.57-0.145,1.088-0.434,1.555c-0.29,0.467-0.727,0.838-1.31,1.112
			c-0.583,0.275-1.295,0.413-2.135,0.413c-0.7,0-1.374-0.1-2.023-0.301c-0.648-0.2-1.201-0.479-1.658-0.833l0.783-1.414
			c0.355,0.299,0.786,0.534,1.295,0.707s1.034,0.259,1.575,0.259c0.645,0,1.15-0.133,1.52-0.398
			c0.368-0.267,0.553-0.628,0.553-1.085s-0.175-0.814-0.525-1.071c-0.35-0.257-0.884-0.385-1.603-0.385h-0.896v-1.246l2.227-2.646
			h-4.452v-1.525h6.678v1.218l-2.38,2.828C205.945,311.023,206.635,311.33,207.112,311.834z"/>
		<path d="M210.934,314.76c0.214,0.215,0.321,0.495,0.321,0.84c0,0.149-0.021,0.307-0.063,0.47s-0.129,0.408-0.259,0.734
			l-0.715,1.975h-1.134l0.561-2.143c-0.206-0.084-0.367-0.217-0.483-0.398c-0.117-0.183-0.175-0.395-0.175-0.638
			c0-0.345,0.107-0.625,0.322-0.84c0.214-0.214,0.484-0.321,0.812-0.321S210.719,314.546,210.934,314.76z"/>
		<path d="M218.451,310.988c0.514,0.247,0.915,0.6,1.204,1.057c0.289,0.458,0.434,0.985,0.434,1.582
			c0,0.635-0.158,1.192-0.476,1.673c-0.317,0.481-0.747,0.852-1.288,1.113c-0.541,0.261-1.148,0.392-1.82,0.392
			c-1.344,0-2.387-0.42-3.129-1.26s-1.112-2.044-1.112-3.612c0-1.101,0.2-2.041,0.602-2.82s0.964-1.372,1.687-1.778
			c0.724-0.406,1.562-0.609,2.514-0.609c0.504,0,0.978,0.055,1.421,0.161c0.443,0.107,0.828,0.264,1.155,0.47l-0.673,1.371
			c-0.485-0.316-1.105-0.476-1.861-0.476c-0.943,0-1.681,0.289-2.212,0.868c-0.532,0.579-0.798,1.414-0.798,2.506v0.014
			c0.289-0.336,0.657-0.59,1.105-0.763s0.952-0.259,1.512-0.259C217.36,310.617,217.938,310.741,218.451,310.988z M217.793,314.921
			c0.354-0.303,0.532-0.707,0.532-1.211c0-0.513-0.178-0.919-0.532-1.218s-0.83-0.448-1.428-0.448c-0.588,0-1.066,0.159-1.435,0.477
			c-0.369,0.317-0.554,0.719-0.554,1.203c0,0.477,0.18,0.871,0.539,1.184s0.856,0.469,1.491,0.469
			C216.977,315.376,217.439,315.225,217.793,314.921z"/>
	</g>
	<g>
		<path d="M128.821,62.331c0.476,0.504,0.714,1.134,0.714,1.89c0,0.569-0.146,1.087-0.435,1.554
			c-0.289,0.467-0.726,0.838-1.309,1.113c-0.583,0.275-1.295,0.413-2.135,0.413c-0.7,0-1.375-0.101-2.023-0.301
			s-1.202-0.478-1.659-0.833l0.784-1.414c0.354,0.299,0.786,0.535,1.295,0.707c0.509,0.173,1.034,0.259,1.575,0.259
			c0.644,0,1.15-0.133,1.519-0.399c0.369-0.266,0.554-0.628,0.554-1.085c0-0.458-0.175-0.814-0.525-1.071
			c-0.35-0.256-0.884-0.385-1.603-0.385h-0.896v-1.246l2.227-2.646h-4.452v-1.526h6.678v1.218l-2.38,2.828
			C127.654,61.519,128.345,61.827,128.821,62.331z"/>
		<path d="M132.642,65.258c0.215,0.215,0.322,0.495,0.322,0.84c0,0.149-0.021,0.306-0.063,0.469
			c-0.042,0.164-0.128,0.409-0.259,0.735l-0.714,1.974h-1.135l0.561-2.142c-0.205-0.084-0.366-0.217-0.483-0.399
			c-0.116-0.182-0.175-0.395-0.175-0.637c0-0.345,0.107-0.625,0.322-0.84s0.485-0.322,0.812-0.322
			C132.157,64.935,132.428,65.043,132.642,65.258z"/>
		<path d="M142.805,64.935h-1.735v2.226h-1.765v-2.226h-5.376v-1.26l4.83-6.314h1.946l-4.55,6.034h3.206v-1.974h1.708v1.974h1.735
			V64.935z"/>
	</g>
	<g>
		<path d="M63.874,109.41h-1.735v2.226h-1.765v-2.226h-5.376v-1.26l4.83-6.314h1.946l-4.55,6.034h3.206v-1.974h1.708v1.974h1.735
			V109.41z"/>
		<path d="M66.843,109.733c0.215,0.215,0.322,0.495,0.322,0.84c0,0.149-0.021,0.306-0.063,0.469
			c-0.042,0.164-0.128,0.409-0.259,0.735l-0.714,1.974h-1.135l0.561-2.142c-0.205-0.084-0.366-0.217-0.483-0.399
			c-0.116-0.182-0.175-0.395-0.175-0.637c0-0.345,0.107-0.625,0.322-0.84s0.485-0.322,0.812-0.322
			C66.357,109.41,66.628,109.518,66.843,109.733z"/>
		<path d="M75.578,110.097v1.54h-7.224v-1.218l3.892-3.696c0.438-0.42,0.735-0.786,0.89-1.099c0.153-0.313,0.23-0.623,0.23-0.931
			c0-0.458-0.154-0.807-0.462-1.05c-0.308-0.243-0.761-0.364-1.358-0.364c-0.998,0-1.764,0.341-2.296,1.022l-1.273-0.98
			c0.382-0.513,0.897-0.912,1.547-1.197c0.648-0.284,1.374-0.427,2.177-0.427c1.064,0,1.913,0.252,2.548,0.756
			s0.952,1.19,0.952,2.058c0,0.532-0.112,1.031-0.336,1.498s-0.653,0.999-1.288,1.596l-2.618,2.492H75.578z"/>
	</g>
</g>
<g>
</g>
<g>
</g>
<g>
</g>
<g>
</g>
<g>
</g>
<g>
</g>
</svg>
