<?xml version="1.0" encoding="utf-8"?>
<!-- Generator: Adobe Illustrator 23.0.2, SVG Export Plug-In . SVG Version: 6.00 Build 0)  -->
<svg version="1.1" id="Слой_1" xmlns="http://www.w3.org/2000/svg" xmlns:xlink="http://www.w3.org/1999/xlink" x="0px" y="0px"
	 viewBox="0 0 750.2 800" enable-background="new 0 0 750.2 800" xml:space="preserve">
<polygon fill="#F3F3F3" stroke="#838383" points="710.6,75.4 710.6,29.3 405.3,29.3 405.3,147.6 448.1,147.6 448.1,75.4 "/>
<g>
	<polygon fill="#F3F3F3" stroke="#000000" stroke-miterlimit="10" points="714.2,672.6 714.2,769.1 455.8,769.1 455.8,795 
		742.1,795 742.1,769.1 742.1,672.6 	"/>
	
		<rect x="455.8" y="778.9" transform="matrix(-1 -1.224647e-16 1.224647e-16 -1 1177.3711 1561.7285)" fill="#F3F3F3" stroke="#000000" stroke-miterlimit="10" width="265.8" height="4"/>
	
		<rect x="455.8" y="774.9" transform="matrix(-1 -1.224647e-16 1.224647e-16 -1 1177.3711 1553.7648)" fill="#F3F3F3" stroke="#000000" stroke-miterlimit="10" width="265.8" height="4"/>
	
		<rect x="455.8" y="774.9" transform="matrix(-1 -1.224647e-16 1.224647e-16 -1 916.2454 1557.7466)" fill="#F3F3F3" stroke="#000000" stroke-miterlimit="10" width="4.7" height="8"/>
	
		<rect x="721.6" y="774.9" transform="matrix(-1 -1.224647e-16 1.224647e-16 -1 1451.1478 1557.7466)" fill="#F3F3F3" stroke="#000000" stroke-miterlimit="10" width="8" height="8"/>
	
		<rect x="672.4" y="721.8" transform="matrix(6.123234e-17 -1 1 6.123234e-17 -0.1749 1447.3409)" fill="#F3F3F3" stroke="#000000" stroke-miterlimit="10" width="102.3" height="4"/>
	
		<rect x="676.4" y="721.8" transform="matrix(6.123234e-17 -1 1 6.123234e-17 3.807 1451.3228)" fill="#F3F3F3" stroke="#000000" stroke-miterlimit="10" width="102.3" height="4"/>
	
		<rect x="723.2" y="671" transform="matrix(6.123234e-17 -1 1 6.123234e-17 50.6058 1400.542)" fill="#F3F3F3" stroke="#000000" stroke-miterlimit="10" width="4.7" height="8"/>
</g>
<g>
	
		<rect x="640.2" y="273.2" transform="matrix(6.123234e-17 -1 1 6.123234e-17 457.7027 1015.4628)" fill="#F3F3F3" stroke="#000000" stroke-miterlimit="10" width="192.9" height="11.4"/>
	
		<rect x="627.6" y="274.2" transform="matrix(6.123234e-17 -1 1 6.123234e-17 448.5724 1005.082)" fill="#F3F3F3" stroke="#000000" stroke-miterlimit="10" width="198.5" height="8.1"/>
	
		<rect x="617.4" y="272.2" transform="matrix(6.123234e-17 -1 1 6.123234e-17 438.4353 994.9448)" fill="#F3F3F3" stroke="#000000" stroke-miterlimit="10" width="198.5" height="12.1"/>
	
		<rect x="723.8" y="370.5" transform="matrix(6.123234e-17 -1 1 6.123234e-17 352.3021 1101.3523)" fill="#F3F3F3" stroke="#000000" stroke-miterlimit="10" width="6" height="8.1"/>
	
		<rect x="723.8" y="177.9" transform="matrix(6.123234e-17 -1 1 6.123234e-17 544.8427 908.8116)" fill="#F3F3F3" stroke="#000000" stroke-miterlimit="10" width="6" height="8.1"/>
	
		<rect x="723.8" y="306.2" transform="matrix(6.123234e-17 -1 1 6.123234e-17 416.5485 1037.106)" fill="#F3F3F3" stroke="#000000" stroke-miterlimit="10" width="6" height="8.1"/>
	
		<rect x="723.8" y="243.2" transform="matrix(6.123234e-17 -1 1 6.123234e-17 479.5377 974.1167)" fill="#F3F3F3" stroke="#000000" stroke-miterlimit="10" width="6" height="8.1"/>
</g>
<g>
	<rect x="230.7" y="783.3" fill="#F3F3F3" stroke="#000000" stroke-miterlimit="10" width="116.3" height="11.4"/>
	<rect x="227.8" y="775.2" fill="#F3F3F3" stroke="#000000" stroke-miterlimit="10" width="122.1" height="8.1"/>
	<rect x="227.8" y="763" fill="#F3F3F3" stroke="#000000" stroke-miterlimit="10" width="122.1" height="12.1"/>
	<rect x="227.8" y="775.2" fill="#F3F3F3" stroke="#000000" stroke-miterlimit="10" width="5.8" height="8.1"/>
	<rect x="344" y="775.2" fill="#F3F3F3" stroke="#000000" stroke-miterlimit="10" width="5.8" height="8.1"/>
	<rect x="290.6" y="775.2" fill="#F3F3F3" stroke="#000000" stroke-miterlimit="10" width="5.8" height="8.1"/>
</g>
<rect x="550.3" y="640.8" fill="#F3F3F3" stroke="#000000" stroke-miterlimit="10" width="66.4" height="14.1"/>
<rect x="550.3" y="654.8" fill="#F3F3F3" stroke="#000000" stroke-miterlimit="10" width="143.3" height="5.3"/>
<rect x="553.5" y="660.1" fill="#F3F3F3" stroke="#000000" stroke-miterlimit="10" width="64" height="12.5"/>
<rect x="550.3" y="654.8" fill="#F3F3F3" stroke="#000000" stroke-miterlimit="10" width="8.2" height="5.3"/>
<rect x="613.9" y="654.8" fill="#F3F3F3" stroke="#000000" stroke-miterlimit="10" width="8.1" height="5.3"/>
<rect x="685.7" y="654.8" fill="#F3F3F3" stroke="#000000" stroke-miterlimit="10" width="7.9" height="5.3"/>
<line fill="#F3F3F3" stroke="#000000" stroke-miterlimit="10" x1="308.5" y1="373.3" x2="341.9" y2="317.6"/>
<line fill="#F3F3F3" stroke="#000000" stroke-miterlimit="10" x1="335.5" y1="392.4" x2="398" y2="429.5"/>
<line fill="#F3F3F3" stroke="#000000" stroke-miterlimit="10" x1="442.2" y1="392.4" x2="503.2" y2="429.5"/>
<line fill="#F3F3F3" stroke="#000000" stroke-miterlimit="10" x1="250" y1="79.6" x2="218.1" y2="135.2"/>
<line fill="#F3F3F3" stroke="#000000" stroke-miterlimit="10" x1="685.7" y1="654.8" x2="630.2" y2="621"/>
<line fill="#F3F3F3" stroke="#000000" stroke-miterlimit="10" x1="45.4" y1="45.6" x2="5" y2="114.1"/>
<rect x="138.3" y="783.3" fill="#838383" stroke="#000000" stroke-miterlimit="10" width="91.8" height="11.7"/>
<rect x="138.3" y="453.6" fill="#838383" stroke="#000000" stroke-miterlimit="10" width="24.4" height="329.7"/>
<rect x="162.7" y="763.1" fill="#838383" stroke="#000000" stroke-miterlimit="10" width="65" height="20.2"/>
<rect x="346.9" y="783.3" fill="#838383" stroke="#000000" stroke-miterlimit="10" width="107.8" height="11.7"/>
<rect x="349.9" y="763.1" fill="#838383" stroke="#000000" stroke-miterlimit="10" width="73.3" height="20.2"/>
<rect x="423.1" y="481.2" fill="#838383" stroke="#000000" stroke-miterlimit="10" width="19.1" height="302.1"/>
<rect x="442.2" y="660.1" fill="#838383" stroke="#000000" stroke-miterlimit="10" width="111.2" height="12.5"/>
<rect x="442.2" y="640.8" fill="#838383" stroke="#000000" stroke-miterlimit="10" width="108" height="19.4"/>
<rect x="442.2" y="672.6" fill="#838383" stroke="#000000" stroke-miterlimit="10" width="12.5" height="110.7"/>
<rect x="693.6" y="640.8" fill="#838383" stroke="#000000" stroke-miterlimit="10" width="17" height="19.4"/>
<rect x="688.9" y="660.1" fill="#838383" stroke="#000000" stroke-miterlimit="10" width="21.8" height="12.5"/>
<rect x="710.6" y="378.5" fill="#838383" stroke="#000000" stroke-miterlimit="10" width="19.6" height="294.1"/>
<rect x="730.3" y="374.5" fill="#838383" stroke="#000000" stroke-miterlimit="10" width="11.8" height="298.5"/>
<rect x="710.6" y="5" fill="#838383" stroke="#000000" stroke-miterlimit="10" width="19.6" height="174.7"/>
<rect x="730.3" y="5" fill="#838383" stroke="#000000" stroke-miterlimit="10" width="11.8" height="177"/>
<rect x="45.4" y="5" fill="#838383" stroke="#000000" stroke-miterlimit="10" width="665.2" height="24.3"/>
<rect x="138.3" y="147.6" fill="#838383" stroke="#000000" stroke-miterlimit="10" width="18.6" height="306.1"/>
<rect x="45.4" y="147.6" fill="#838383" stroke="#000000" stroke-miterlimit="10" width="92.9" height="18.8"/>
<rect x="413.8" y="147.6" fill="#838383" stroke="#000000" stroke-miterlimit="10" width="39.4" height="39.4"/>
<rect x="45.4" y="123.7" fill="#838383" stroke="#000000" stroke-miterlimit="10" width="23.9" height="23.9"/>
<rect x="45.4" y="29.3" fill="#838383" stroke="#000000" stroke-miterlimit="10" width="23.9" height="16.3"/>
<rect x="156.9" y="235.7" fill="#C6C6C6" stroke="#000000" stroke-miterlimit="10" width="151.6" height="6.8"/>
<rect x="301.7" y="242.5" fill="#C6C6C6" stroke="#000000" stroke-miterlimit="10" width="6.8" height="66.7"/>
<rect x="301.7" y="373.3" fill="#C6C6C6" stroke="#000000" stroke-miterlimit="10" width="6.8" height="80.3"/>
<rect x="156.9" y="446.9" fill="#C6C6C6" stroke="#000000" stroke-miterlimit="10" width="144.8" height="6.8"/>
<rect x="162.7" y="458.8" fill="#C6C6C6" stroke="#000000" stroke-miterlimit="10" width="158.9" height="7.9"/>
<rect x="308.5" y="384.1" fill="#C6C6C6" stroke="#000000" stroke-miterlimit="10" width="27.1" height="7.9"/>
<rect x="313.7" y="392.4" fill="#C6C6C6" stroke="#000000" stroke-miterlimit="10" width="7.9" height="66.4"/>
<rect x="408.4" y="384.1" fill="#C6C6C6" stroke="#000000" stroke-miterlimit="10" width="33.8" height="7.9"/>
<rect x="514.3" y="384.1" fill="#C6C6C6" stroke="#000000" stroke-miterlimit="10" width="196.3" height="7.9"/>
<rect x="423.1" y="392" fill="#C6C6C6" stroke="#000000" stroke-miterlimit="10" width="7.9" height="89.3"/>
<rect x="250" y="147.6" fill="#C6C6C6" stroke="#000000" stroke-miterlimit="10" width="163.8" height="7.9"/>
<rect x="250" y="29.3" fill="#C6C6C6" stroke="#000000" stroke-miterlimit="10" width="6.8" height="50.3"/>
<rect x="250" y="143.6" fill="#C6C6C6" stroke="#000000" stroke-miterlimit="10" width="6.8" height="4"/>
<rect x="360.7" y="56.8" fill="#C6C6C6" stroke="#000000" stroke-miterlimit="10" width="6.8" height="90.7"/>
<rect x="398.5" y="29.3" fill="#C6C6C6" stroke="#000000" stroke-miterlimit="10" width="6.8" height="118.3"/>
<rect x="240.4" y="242.5" fill="#C6C6C6" stroke="#000000" stroke-miterlimit="10" width="6.8" height="42"/>
<rect x="183.4" y="277.8" fill="#C6C6C6" stroke="#000000" stroke-miterlimit="10" width="57.2" height="6.8"/>
<rect x="156.9" y="281.1" fill="#C6C6C6" stroke="#000000" stroke-miterlimit="10" width="26.5" height="3.4"/>
<rect x="360.7" y="29.3" fill="#C6C6C6" stroke="#000000" stroke-miterlimit="10" width="3.4" height="27.5"/>
<g>
	<path d="M623,127.6h-2.5v5.1h-1.1v-11.1h1.1v5h2.5l3.8-5h1.3l-4.1,5.4l4.4,5.7H627L623,127.6z"/>
	<path d="M637,124.3l-4.2,9.4c-0.3,0.8-0.7,1.3-1.2,1.7c-0.4,0.3-1,0.5-1.6,0.5c-0.4,0-0.8-0.1-1.1-0.2c-0.4-0.1-0.7-0.3-0.9-0.6
		l0.5-0.8c0.4,0.4,0.9,0.6,1.5,0.6c0.4,0,0.7-0.1,1-0.3c0.3-0.2,0.5-0.6,0.8-1.1l0.4-0.8l-3.7-8.4h1.2l3.2,7.1l3.2-7.1H637z"/>
	<path d="M643.5,132.7l-2.7-3.5l-2.7,3.5h-1.3l3.3-4.3l-3.2-4.1h1.3l2.5,3.3l2.5-3.3h1.2l-3.2,4.1l3.3,4.3H643.5z"/>
	<path d="M646.6,124.3h1.1v3.7h5.3v-3.7h1.1v8.4H653V129h-5.3v3.7h-1.1V124.3z"/>
	<path d="M663.8,124.3v8.4h-1v-2.8h-2.6h-0.3l-1.9,2.8h-1.2l2.1-2.9c-0.6-0.2-1.1-0.5-1.5-0.9s-0.5-1-0.5-1.7c0-0.9,0.3-1.6,1-2.1
		c0.6-0.5,1.5-0.7,2.6-0.7H663.8z M660.2,129.1h2.5v-3.8h-2.5c-1.6,0-2.5,0.6-2.5,1.9C657.9,128.5,658.7,129.1,660.2,129.1z"/>
	<path d="M666.4,127.9h4.2v1h-4.2V127.9z"/>
	<path d="M620.3,151.3c-0.7-0.4-1.2-0.9-1.5-1.5c-0.4-0.7-0.6-1.4-0.6-2.2c0-0.8,0.2-1.5,0.6-2.2c0.4-0.6,0.9-1.2,1.5-1.5
		c0.7-0.4,1.4-0.5,2.2-0.5c0.7,0,1.4,0.1,1.9,0.4c0.6,0.3,1,0.7,1.3,1.2l-0.8,0.6c-0.3-0.4-0.6-0.7-1.1-0.9
		c-0.4-0.2-0.9-0.3-1.4-0.3c-0.6,0-1.2,0.1-1.6,0.4c-0.5,0.3-0.9,0.7-1.1,1.2s-0.4,1.1-0.4,1.7c0,0.6,0.1,1.2,0.4,1.7
		c0.3,0.5,0.6,0.9,1.1,1.1c0.5,0.3,1,0.4,1.6,0.4c0.5,0,1-0.1,1.4-0.3c0.4-0.2,0.8-0.5,1.1-0.9l0.8,0.6c-0.3,0.5-0.8,1-1.4,1.2
		c-0.6,0.3-1.2,0.4-1.9,0.4C621.7,151.9,621,151.7,620.3,151.3z"/>
	<path d="M633.8,144.4h-3.2v7.4h-1.1v-7.4h-3.2v-1h7.5V144.4z"/>
	<path d="M636.3,151.3c-0.6-0.4-1.2-0.9-1.5-1.5c-0.4-0.6-0.6-1.4-0.6-2.2c0-0.8,0.2-1.5,0.6-2.2c0.4-0.6,0.9-1.2,1.5-1.5
		c0.6-0.4,1.4-0.5,2.2-0.5c0.8,0,1.5,0.2,2.2,0.5c0.6,0.4,1.2,0.9,1.5,1.5c0.4,0.6,0.5,1.4,0.5,2.2c0,0.8-0.2,1.6-0.5,2.2
		c-0.4,0.6-0.9,1.2-1.5,1.5s-1.4,0.5-2.2,0.5C637.7,151.9,636.9,151.7,636.3,151.3z M640.1,150.5c0.5-0.3,0.8-0.7,1.1-1.2
		c0.3-0.5,0.4-1.1,0.4-1.7c0-0.6-0.1-1.2-0.4-1.7c-0.3-0.5-0.6-0.9-1.1-1.2c-0.5-0.3-1-0.4-1.6-0.4s-1.1,0.1-1.6,0.4
		c-0.5,0.3-0.8,0.7-1.1,1.2s-0.4,1.1-0.4,1.7c0,0.6,0.1,1.2,0.4,1.7s0.6,0.9,1.1,1.2c0.5,0.3,1,0.4,1.6,0.4S639.6,150.7,640.1,150.5
		z"/>
	<path d="M651.9,143.4v8.4h-1.1v-7.4h-4l-0.1,2.1c-0.1,1.7-0.3,3.1-0.6,4c-0.3,0.9-0.9,1.4-1.7,1.4c-0.2,0-0.5,0-0.8-0.1l0.1-1
		c0.2,0,0.3,0.1,0.4,0.1c0.4,0,0.8-0.2,1-0.6c0.2-0.4,0.4-0.9,0.4-1.5s0.1-1.4,0.2-2.4l0.1-3H651.9z"/>
	<path d="M656.4,151.3c-0.6-0.4-1.2-0.9-1.5-1.5c-0.4-0.6-0.6-1.4-0.6-2.2c0-0.8,0.2-1.5,0.6-2.2c0.4-0.6,0.9-1.2,1.5-1.5
		c0.6-0.4,1.4-0.5,2.2-0.5c0.8,0,1.5,0.2,2.2,0.5c0.6,0.4,1.2,0.9,1.5,1.5c0.4,0.6,0.5,1.4,0.5,2.2c0,0.8-0.2,1.6-0.5,2.2
		c-0.4,0.6-0.9,1.2-1.5,1.5s-1.4,0.5-2.2,0.5C657.8,151.9,657.1,151.7,656.4,151.3z M660.2,150.5c0.5-0.3,0.8-0.7,1.1-1.2
		c0.3-0.5,0.4-1.1,0.4-1.7c0-0.6-0.1-1.2-0.4-1.7c-0.3-0.5-0.6-0.9-1.1-1.2c-0.5-0.3-1-0.4-1.6-0.4s-1.1,0.1-1.6,0.4
		c-0.5,0.3-0.8,0.7-1.1,1.2s-0.4,1.1-0.4,1.7c0,0.6,0.1,1.2,0.4,1.7s0.6,0.9,1.1,1.2c0.5,0.3,1,0.4,1.6,0.4S659.7,150.7,660.2,150.5
		z"/>
	<path d="M672.3,149.5c0,0.7-0.3,1.3-0.8,1.7c-0.5,0.4-1.3,0.6-2.4,0.6h-3.8v-8.4h3.7c1,0,1.7,0.2,2.2,0.6c0.5,0.4,0.8,0.9,0.8,1.6
		c0,0.5-0.1,0.8-0.4,1.2c-0.3,0.3-0.6,0.6-1,0.7C671.8,147.7,672.3,148.4,672.3,149.5z M666.4,147.2h2.5c0.6,0,1.1-0.1,1.5-0.4
		c0.3-0.2,0.5-0.6,0.5-1.1c0-0.5-0.2-0.8-0.5-1.1c-0.3-0.2-0.8-0.4-1.5-0.4h-2.5V147.2z M670.7,150.6c0.4-0.2,0.5-0.6,0.5-1.1
		c0-0.5-0.2-0.9-0.5-1.1c-0.3-0.2-0.8-0.4-1.6-0.4h-2.8v2.9h2.7C669.8,150.9,670.3,150.8,670.7,150.6z"/>
	<path d="M680.4,144.2c0.6,0.5,0.9,1.4,0.9,2.4v5.2h-1.1v-1.3c-0.3,0.4-0.6,0.8-1.1,1c-0.5,0.2-1.1,0.4-1.8,0.4
		c-0.9,0-1.7-0.2-2.2-0.7c-0.6-0.4-0.8-1-0.8-1.8c0-0.7,0.3-1.3,0.8-1.7c0.5-0.4,1.3-0.7,2.5-0.7h2.7v-0.5c0-0.7-0.2-1.3-0.6-1.6
		c-0.4-0.4-1-0.6-1.8-0.6c-0.5,0-1,0.1-1.5,0.3c-0.5,0.2-0.9,0.4-1.3,0.7l-0.5-0.8c0.4-0.4,0.9-0.6,1.5-0.8c0.6-0.2,1.2-0.3,1.9-0.3
		C679,143.4,679.8,143.6,680.4,144.2z M679.1,150.6c0.5-0.3,0.8-0.7,1-1.3v-1.4h-2.6c-1.4,0-2.2,0.5-2.2,1.5c0,0.5,0.2,0.9,0.6,1.2
		c0.4,0.3,0.9,0.4,1.6,0.4C678.1,151,678.6,150.9,679.1,150.6z"/>
	<path d="M690.7,143.4v8.4h-1V149H687h-0.3l-1.9,2.8h-1.2l2.1-2.9c-0.6-0.2-1.1-0.5-1.5-0.9s-0.5-1-0.5-1.7c0-0.9,0.3-1.6,1-2.1
		c0.6-0.5,1.5-0.7,2.6-0.7H690.7z M687.1,148.2h2.5v-3.8h-2.5c-1.6,0-2.5,0.6-2.5,1.9C684.8,147.6,685.5,148.2,687.1,148.2z"/>
	<path d="M628.2,174v1.7h-10v-1.4l5.7-5.5c0.7-0.7,1.2-1.2,1.4-1.7c0.2-0.5,0.4-1,0.4-1.5c0-0.7-0.3-1.3-0.8-1.7
		c-0.5-0.4-1.2-0.6-2.2-0.6c-1.5,0-2.7,0.5-3.6,1.5l-1.4-1.2c0.5-0.7,1.3-1.2,2.1-1.6c0.9-0.4,1.9-0.6,3-0.6c1.5,0,2.6,0.3,3.5,1
		c0.9,0.7,1.3,1.6,1.3,2.8c0,0.7-0.2,1.4-0.5,2.1c-0.3,0.7-0.9,1.4-1.8,2.3L621,174H628.2z"/>
	<path d="M632.5,175c-0.9-0.6-1.5-1.4-2-2.5s-0.7-2.3-0.7-3.8s0.2-2.7,0.7-3.8s1.2-1.9,2-2.5c0.9-0.6,1.8-0.8,2.9-0.8
		c1.1,0,2.1,0.3,2.9,0.8c0.9,0.6,1.5,1.4,2,2.5s0.7,2.3,0.7,3.8s-0.2,2.7-0.7,3.8s-1.2,1.9-2,2.5c-0.9,0.6-1.8,0.8-2.9,0.8
		C634.4,175.9,633.4,175.6,632.5,175z M638.1,172.7c0.7-0.9,1-2.2,1-4c0-1.7-0.3-3.1-1-4c-0.7-0.9-1.6-1.4-2.7-1.4
		c-1.1,0-2,0.5-2.7,1.4c-0.7,0.9-1,2.2-1,4c0,1.7,0.3,3.1,1,4s1.6,1.4,2.7,1.4C636.6,174.1,637.5,173.6,638.1,172.7z"/>
	<path d="M645.1,173.5c0.2,0.3,0.4,0.6,0.4,1c0,0.2,0,0.4-0.1,0.6c0,0.2-0.1,0.5-0.3,0.9l-0.9,2.8h-1.3l0.7-3
		c-0.3-0.1-0.5-0.2-0.6-0.5c-0.2-0.2-0.2-0.5-0.2-0.8c0-0.4,0.1-0.7,0.4-1s0.6-0.4,1-0.4C644.5,173.1,644.8,173.2,645.1,173.5z"/>
	<path d="M657.3,174v1.7h-10v-1.4l5.7-5.5c0.7-0.7,1.2-1.2,1.4-1.7c0.2-0.5,0.4-1,0.4-1.5c0-0.7-0.3-1.3-0.8-1.7
		c-0.5-0.4-1.2-0.6-2.2-0.6c-1.5,0-2.7,0.5-3.6,1.5l-1.4-1.2c0.5-0.7,1.3-1.2,2.1-1.6c0.9-0.4,1.9-0.6,3-0.6c1.5,0,2.6,0.3,3.5,1
		c0.9,0.7,1.3,1.6,1.3,2.8c0,0.7-0.2,1.4-0.5,2.1c-0.3,0.7-0.9,1.4-1.8,2.3l-4.3,4.1H657.3z"/>
</g>
<g>
	<path d="M331.5,526.9c-0.9-0.5-1.6-1.2-2.1-2s-0.8-1.8-0.8-2.9c0-1.1,0.3-2,0.8-2.9s1.2-1.5,2.1-2s1.9-0.7,3-0.7
		c0.8,0,1.6,0.1,2.3,0.4c0.7,0.3,1.3,0.7,1.8,1.2l-0.7,0.7c-0.9-0.9-2-1.3-3.3-1.3c-0.9,0-1.7,0.2-2.4,0.6s-1.3,1-1.7,1.7
		c-0.4,0.7-0.6,1.5-0.6,2.4c0,0.9,0.2,1.7,0.6,2.4c0.4,0.7,1,1.3,1.7,1.7c0.7,0.4,1.5,0.6,2.4,0.6c1.3,0,2.4-0.4,3.3-1.3l0.7,0.7
		c-0.5,0.5-1.1,0.9-1.8,1.2c-0.7,0.3-1.5,0.4-2.3,0.4C333.4,527.6,332.4,527.3,331.5,526.9z"/>
	<path d="M348.3,519.1v8.4h-1.1v-7.4h-5.3v7.4h-1.1v-8.4H348.3z"/>
	<path d="M356.9,519.9c0.6,0.5,0.9,1.4,0.9,2.4v5.2h-1.1v-1.3c-0.3,0.4-0.6,0.8-1.1,1c-0.5,0.2-1.1,0.4-1.8,0.4
		c-0.9,0-1.7-0.2-2.2-0.7c-0.6-0.4-0.8-1-0.8-1.8c0-0.7,0.3-1.3,0.8-1.7c0.5-0.4,1.3-0.7,2.5-0.7h2.7v-0.5c0-0.7-0.2-1.3-0.6-1.6
		c-0.4-0.4-1-0.6-1.8-0.6c-0.5,0-1,0.1-1.5,0.3c-0.5,0.2-0.9,0.4-1.3,0.7l-0.5-0.8c0.4-0.4,0.9-0.6,1.5-0.8c0.6-0.2,1.2-0.3,1.9-0.3
		C355.4,519.1,356.3,519.3,356.9,519.9z M355.6,526.2c0.5-0.3,0.8-0.7,1-1.3v-1.4H354c-1.4,0-2.2,0.5-2.2,1.5c0,0.5,0.2,0.9,0.6,1.2
		c0.4,0.3,0.9,0.4,1.6,0.4C354.6,526.7,355.1,526.5,355.6,526.2z"/>
	<path d="M367.6,519.1v8.4h-1.1v-7.4h-4l-0.1,2.1c-0.1,1.7-0.3,3.1-0.6,4c-0.3,0.9-0.9,1.4-1.7,1.4c-0.2,0-0.5,0-0.8-0.1l0.1-1
		c0.2,0,0.3,0.1,0.4,0.1c0.4,0,0.8-0.2,1-0.6c0.2-0.4,0.4-0.9,0.4-1.5c0.1-0.6,0.1-1.4,0.2-2.4l0.1-3H367.6z"/>
	<path d="M376.8,522.8c0.5,0.5,0.8,1.1,0.8,2c0,0.9-0.3,1.6-0.9,2.1c-0.6,0.5-1.4,0.7-2.6,0.7l-3.4,0v-8.4h1.1v2.9l2.5,0
		C375.5,522.1,376.3,522.3,376.8,522.8z M375.9,526.2c0.4-0.3,0.6-0.8,0.6-1.4c0-0.6-0.2-1.1-0.6-1.4c-0.4-0.3-1-0.5-1.8-0.5l-2.2,0
		v3.7l2.2,0C374.9,526.7,375.5,526.5,375.9,526.2z"/>
	<path d="M379.8,519.1h1.1v3.7h5.3v-3.7h1.1v8.4h-1.1v-3.7h-5.3v3.7h-1.1V519.1z"/>
	<path d="M397,519.1v8.4h-1v-2.8h-2.6H393l-1.9,2.8h-1.2l2.1-2.9c-0.6-0.2-1.1-0.5-1.5-0.9s-0.5-1-0.5-1.7c0-0.9,0.3-1.6,1-2.1
		c0.6-0.5,1.5-0.7,2.6-0.7H397z M393.4,523.9h2.5v-3.8h-2.5c-1.6,0-2.5,0.6-2.5,1.9C391,523.3,391.8,523.9,393.4,523.9z"/>
	<path d="M333,537.5v13.9h-2v-12.2h-3.1v-1.7H333z"/>
	<path d="M344.5,544.6c0.7,0.7,1.1,1.6,1.1,2.7c0,0.8-0.2,1.5-0.6,2.2c-0.4,0.6-1,1.2-1.8,1.5s-1.8,0.6-2.9,0.6c-1,0-2-0.1-2.9-0.4
		c-0.9-0.3-1.7-0.7-2.3-1.2l0.9-1.6c0.5,0.5,1.1,0.8,1.8,1.1c0.7,0.3,1.5,0.4,2.4,0.4c1,0,1.8-0.2,2.4-0.7c0.6-0.4,0.9-1,0.9-1.8
		c0-0.8-0.3-1.4-0.9-1.8c-0.6-0.4-1.4-0.6-2.6-0.6H339v-1.4l3.5-4.3h-6.7v-1.7h9.2v1.4l-3.6,4.5
		C342.7,543.4,343.8,543.9,344.5,544.6z"/>
	<path d="M349.7,549.2c0.2,0.3,0.4,0.6,0.4,1c0,0.2,0,0.4-0.1,0.6c0,0.2-0.1,0.5-0.3,0.9l-0.9,2.8h-1.3l0.7-3
		c-0.3-0.1-0.5-0.2-0.6-0.5c-0.2-0.2-0.2-0.5-0.2-0.8c0-0.4,0.1-0.7,0.4-1c0.3-0.3,0.6-0.4,1-0.4
		C349.1,548.8,349.4,548.9,349.7,549.2z"/>
	<path d="M363.9,548h-2.6v3.4h-1.9V548h-7.7v-1.4l7.1-9.1h2.2l-6.8,8.8h5.4v-3h1.9v3h2.6V548z"/>
</g>
<g>
	<path d="M510.7,495.3c-0.9-0.5-1.6-1.2-2.1-2c-0.5-0.9-0.8-1.8-0.8-2.9c0-1.1,0.3-2,0.8-2.9c0.5-0.9,1.2-1.5,2.1-2
		c0.9-0.5,1.9-0.7,3-0.7c0.8,0,1.6,0.1,2.3,0.4c0.7,0.3,1.3,0.7,1.8,1.2L517,487c-0.9-0.9-2-1.3-3.3-1.3c-0.9,0-1.7,0.2-2.4,0.6
		c-0.7,0.4-1.3,1-1.7,1.7c-0.4,0.7-0.6,1.5-0.6,2.4c0,0.9,0.2,1.7,0.6,2.4c0.4,0.7,1,1.3,1.7,1.7c0.7,0.4,1.5,0.6,2.4,0.6
		c1.3,0,2.4-0.4,3.3-1.3l0.7,0.7c-0.5,0.5-1.1,0.9-1.8,1.2s-1.5,0.4-2.3,0.4C512.6,496,511.6,495.7,510.7,495.3z"/>
	<path d="M527.4,487.5v8.4h-1.1v-7.4h-5.3v7.4h-1.1v-8.4H527.4z"/>
	<path d="M536.1,488.3c0.6,0.5,0.9,1.4,0.9,2.4v5.2h-1.1v-1.3c-0.3,0.4-0.6,0.8-1.1,1c-0.5,0.2-1.1,0.4-1.8,0.4
		c-0.9,0-1.7-0.2-2.2-0.7c-0.6-0.4-0.8-1-0.8-1.8c0-0.7,0.3-1.3,0.8-1.7c0.5-0.4,1.3-0.7,2.5-0.7h2.7v-0.5c0-0.7-0.2-1.3-0.6-1.6
		c-0.4-0.4-1-0.6-1.8-0.6c-0.5,0-1,0.1-1.5,0.3c-0.5,0.2-0.9,0.4-1.3,0.7l-0.5-0.8c0.4-0.4,0.9-0.6,1.5-0.8c0.6-0.2,1.2-0.3,1.9-0.3
		C534.6,487.5,535.5,487.7,536.1,488.3z M534.8,494.6c0.5-0.3,0.8-0.7,1-1.3V492h-2.6c-1.4,0-2.2,0.5-2.2,1.5c0,0.5,0.2,0.9,0.6,1.2
		c0.4,0.3,0.9,0.4,1.6,0.4C533.8,495.1,534.3,494.9,534.8,494.6z"/>
	<path d="M546.8,487.5v8.4h-1.1v-7.4h-4l-0.1,2.1c-0.1,1.7-0.3,3.1-0.6,4c-0.3,0.9-0.9,1.4-1.7,1.4c-0.2,0-0.5,0-0.8-0.1l0.1-1
		c0.2,0,0.3,0.1,0.4,0.1c0.4,0,0.8-0.2,1-0.6c0.2-0.4,0.4-0.9,0.4-1.5s0.1-1.4,0.2-2.4l0.1-3H546.8z"/>
	<path d="M556,491.2c0.5,0.5,0.8,1.1,0.8,2c0,0.9-0.3,1.6-0.9,2.1c-0.6,0.5-1.4,0.7-2.6,0.7l-3.4,0v-8.4h1.1v2.9l2.5,0
		C554.7,490.5,555.5,490.7,556,491.2z M555.1,494.6c0.4-0.3,0.6-0.8,0.6-1.4c0-0.6-0.2-1.1-0.6-1.4c-0.4-0.3-1-0.5-1.8-0.5l-2.2,0
		v3.7l2.2,0C554.1,495.1,554.7,494.9,555.1,494.6z"/>
	<path d="M559,487.5h1.1v3.7h5.3v-3.7h1.1v8.4h-1.1v-3.7h-5.3v3.7H559V487.5z"/>
	<path d="M576.2,487.5v8.4h-1v-2.8h-2.6h-0.3l-1.9,2.8H569l2.1-2.9c-0.6-0.2-1.1-0.5-1.5-0.9s-0.5-1-0.5-1.7c0-0.9,0.3-1.6,1-2.1
		c0.6-0.5,1.5-0.7,2.6-0.7H576.2z M572.6,492.3h2.5v-3.8h-2.5c-1.6,0-2.5,0.6-2.5,1.9C570.2,491.7,571,492.3,572.6,492.3z"/>
	<path d="M512.2,505.8v13.9h-2v-12.2h-3.1v-1.7H512.2z"/>
	<path d="M518,519.1c-0.9-0.6-1.5-1.4-2-2.5s-0.7-2.3-0.7-3.8s0.2-2.7,0.7-3.8s1.2-1.9,2-2.5c0.9-0.6,1.8-0.8,2.9-0.8
		c1.1,0,2.1,0.3,2.9,0.8c0.9,0.6,1.5,1.4,2,2.5s0.7,2.3,0.7,3.8s-0.2,2.7-0.7,3.8s-1.2,1.9-2,2.5c-0.9,0.6-1.8,0.8-2.9,0.8
		C519.8,519.9,518.8,519.7,518,519.1z M523.6,516.8c0.7-0.9,1-2.2,1-4c0-1.7-0.3-3.1-1-4c-0.7-0.9-1.6-1.4-2.7-1.4
		c-1.1,0-2,0.5-2.7,1.4c-0.7,0.9-1,2.2-1,4c0,1.7,0.3,3.1,1,4s1.6,1.4,2.7,1.4C522,518.2,522.9,517.7,523.6,516.8z"/>
	<path d="M530.5,517.6c0.2,0.3,0.4,0.6,0.4,1c0,0.2,0,0.4-0.1,0.6c0,0.2-0.1,0.5-0.3,0.9l-0.9,2.8h-1.3l0.7-3
		c-0.3-0.1-0.5-0.2-0.6-0.5c-0.2-0.2-0.2-0.5-0.2-0.8c0-0.4,0.1-0.7,0.4-1s0.6-0.4,1-0.4C530,517.2,530.3,517.3,530.5,517.6z"/>
	<path d="M541,511.8c0.7,0.3,1.3,0.8,1.7,1.5c0.4,0.6,0.6,1.4,0.6,2.2c0,0.9-0.2,1.6-0.6,2.3c-0.4,0.7-1,1.2-1.8,1.5
		c-0.8,0.4-1.6,0.5-2.5,0.5c-1.9,0-3.3-0.6-4.3-1.8c-1-1.2-1.5-2.9-1.5-5.1c0-1.6,0.3-2.9,0.8-4c0.6-1.1,1.3-1.9,2.3-2.5
		c1-0.6,2.1-0.8,3.5-0.8c0.7,0,1.3,0.1,1.9,0.2c0.6,0.1,1.1,0.3,1.6,0.6l-0.8,1.6c-0.7-0.4-1.6-0.7-2.7-0.7c-1.4,0-2.6,0.4-3.4,1.3
		c-0.8,0.9-1.2,2.2-1.2,3.9c0,0.2,0,0.4,0,0.5c0.4-0.6,0.9-1.1,1.6-1.4c0.7-0.3,1.5-0.5,2.4-0.5C539.5,511.3,540.3,511.5,541,511.8z
		 M540.6,517.6c0.6-0.5,0.9-1.1,0.9-2s-0.3-1.5-0.9-2c-0.6-0.5-1.4-0.7-2.3-0.7c-0.6,0-1.2,0.1-1.7,0.4c-0.5,0.2-0.9,0.6-1.1,1
		c-0.3,0.4-0.4,0.9-0.4,1.4c0,0.5,0.1,0.9,0.4,1.3c0.3,0.4,0.6,0.7,1.1,1c0.5,0.2,1.1,0.4,1.8,0.4
		C539.2,518.3,540,518.1,540.6,517.6z"/>
</g>
<g>
	<path d="M224.3,191.4c0.9,0.8,1.4,1.8,1.4,3.1c0,0.8-0.2,1.6-0.6,2.2c-0.4,0.7-1,1.2-1.8,1.6s-1.8,0.6-2.9,0.6
		c-1,0-1.9-0.1-2.8-0.4c-0.9-0.3-1.7-0.7-2.3-1.2l0.9-1.6c0.5,0.5,1.1,0.8,1.8,1.1c0.7,0.3,1.5,0.4,2.3,0.4c1,0,1.9-0.2,2.4-0.7
		c0.6-0.4,0.9-1.1,0.9-1.8c0-0.8-0.3-1.5-1-1.9c-0.6-0.4-1.7-0.6-3.3-0.6h-3.2l0.7-7.3h7.9v1.7h-6.2l-0.4,3.8h1.6
		C221.9,190.3,223.3,190.6,224.3,191.4z"/>
	<path d="M229.6,196.4c0.2,0.3,0.4,0.6,0.4,1c0,0.2,0,0.4-0.1,0.6c0,0.2-0.1,0.5-0.3,0.9l-0.9,2.8h-1.3l0.7-3
		c-0.3-0.1-0.5-0.2-0.6-0.5s-0.2-0.5-0.2-0.8c0-0.4,0.1-0.7,0.4-1c0.3-0.3,0.6-0.4,1-0.4C229,196,229.3,196.2,229.6,196.4z"/>
	<path d="M243.8,195.2h-2.6v3.4h-1.9v-3.4h-7.7v-1.4l7.1-9.1h2.2l-6.8,8.8h5.4v-3h1.9v3h2.6V195.2z"/>
</g>
<g>
	<path d="M279,93.5v13.9h-2V95.2h-3.1v-1.7H279z"/>
	<path d="M284.3,105.2c0.2,0.3,0.4,0.6,0.4,1c0,0.2,0,0.4-0.1,0.6c0,0.2-0.1,0.5-0.3,0.9l-0.9,2.8h-1.3l0.7-3
		c-0.3-0.1-0.5-0.2-0.6-0.5s-0.2-0.5-0.2-0.8c0-0.4,0.1-0.7,0.4-1c0.3-0.3,0.6-0.4,1-0.4C283.7,104.8,284,104.9,284.3,105.2z"/>
	<path d="M297.1,101.4c0.4,0.6,0.6,1.3,0.6,2.1c0,0.8-0.2,1.6-0.7,2.2c-0.5,0.6-1.1,1.1-1.9,1.4c-0.8,0.3-1.8,0.5-2.9,0.5
		c-1.1,0-2.1-0.2-2.9-0.5c-0.8-0.3-1.5-0.8-1.9-1.4s-0.7-1.3-0.7-2.2c0-0.8,0.2-1.5,0.6-2.1c0.4-0.6,1-1,1.8-1.3
		c-0.6-0.3-1.1-0.7-1.5-1.2c-0.3-0.5-0.5-1.1-0.5-1.8c0-0.8,0.2-1.4,0.6-2s1-1,1.8-1.3c0.8-0.3,1.6-0.5,2.6-0.5c1,0,1.9,0.2,2.7,0.5
		c0.8,0.3,1.4,0.7,1.8,1.3s0.6,1.2,0.6,2c0,0.7-0.2,1.3-0.5,1.8c-0.3,0.5-0.8,0.9-1.5,1.2C296,100.4,296.6,100.8,297.1,101.4z
		 M294.8,105.3c0.6-0.5,1-1.1,1-1.9c0-0.8-0.3-1.4-1-1.8c-0.6-0.4-1.5-0.7-2.6-0.7c-1.1,0-2,0.2-2.6,0.7c-0.6,0.4-0.9,1.1-0.9,1.8
		c0,0.8,0.3,1.4,0.9,1.9c0.6,0.5,1.5,0.7,2.6,0.7C293.3,105.9,294.1,105.7,294.8,105.3z M289.9,95.5c-0.5,0.4-0.8,1-0.8,1.6
		c0,0.7,0.3,1.2,0.8,1.6c0.5,0.4,1.3,0.6,2.2,0.6c1,0,1.7-0.2,2.3-0.6c0.6-0.4,0.8-0.9,0.8-1.6c0-0.7-0.3-1.2-0.8-1.6
		c-0.6-0.4-1.3-0.6-2.3-0.6C291.2,94.9,290.5,95.1,289.9,95.5z"/>
</g>
<g>
	<path d="M527.4,732.7c0.7,0.7,1.1,1.6,1.1,2.7c0,0.8-0.2,1.5-0.6,2.2c-0.4,0.6-1,1.2-1.8,1.5s-1.8,0.6-2.9,0.6c-1,0-2-0.1-2.9-0.4
		c-0.9-0.3-1.7-0.7-2.3-1.2l0.9-1.6c0.5,0.5,1.1,0.8,1.8,1.1c0.7,0.3,1.5,0.4,2.4,0.4c1,0,1.8-0.2,2.4-0.7c0.6-0.4,0.9-1,0.9-1.8
		c0-0.8-0.3-1.4-0.9-1.8c-0.6-0.4-1.4-0.6-2.6-0.6H522v-1.4l3.5-4.3h-6.7v-1.7h9.2v1.4l-3.6,4.5C525.7,731.6,526.7,732,527.4,732.7z
		"/>
	<path d="M532.6,737.3c0.2,0.3,0.4,0.6,0.4,1c0,0.2,0,0.4-0.1,0.6c0,0.2-0.1,0.5-0.3,0.9l-0.9,2.8h-1.3l0.7-3
		c-0.3-0.1-0.5-0.2-0.6-0.5c-0.2-0.2-0.2-0.5-0.2-0.8c0-0.4,0.1-0.7,0.4-1s0.6-0.4,1-0.4C532.1,736.9,532.4,737.1,532.6,737.3z"/>
	<path d="M543.7,727.3c1,1.2,1.5,2.9,1.5,5.1c0,1.6-0.3,2.9-0.8,4s-1.3,1.9-2.3,2.5c-1,0.6-2.1,0.8-3.5,0.8c-0.7,0-1.3-0.1-1.9-0.2
		s-1.1-0.3-1.6-0.6l0.8-1.6c0.7,0.4,1.6,0.7,2.7,0.7c1.4,0,2.6-0.4,3.4-1.3c0.8-0.9,1.2-2.2,1.2-3.9v-0.5c-0.4,0.6-0.9,1.1-1.7,1.4
		c-0.7,0.3-1.5,0.5-2.4,0.5c-0.9,0-1.7-0.2-2.5-0.5c-0.7-0.3-1.3-0.8-1.7-1.5c-0.4-0.6-0.6-1.4-0.6-2.2c0-0.9,0.2-1.6,0.6-2.3
		c0.4-0.7,1-1.2,1.8-1.5c0.7-0.4,1.6-0.5,2.5-0.5C541.3,725.4,542.7,726,543.7,727.3z M541.3,732.1c0.5-0.2,0.9-0.6,1.1-1
		s0.4-0.9,0.4-1.4c0-0.5-0.1-0.9-0.4-1.3c-0.3-0.4-0.6-0.7-1.1-1c-0.5-0.2-1.1-0.4-1.8-0.4c-0.9,0-1.7,0.2-2.2,0.7s-0.8,1.1-0.8,2
		c0,0.8,0.3,1.5,0.9,2s1.3,0.7,2.3,0.7C540.2,732.4,540.8,732.3,541.3,732.1z"/>
</g>
<g>
	<path d="M242.1,344c0.7,0.7,1.1,1.6,1.1,2.7c0,0.8-0.2,1.5-0.6,2.2c-0.4,0.6-1,1.2-1.8,1.5s-1.8,0.6-2.9,0.6c-1,0-2-0.1-2.9-0.4
		c-0.9-0.3-1.7-0.7-2.3-1.2l0.9-1.6c0.5,0.5,1.1,0.8,1.8,1.1c0.7,0.3,1.5,0.4,2.4,0.4c1,0,1.8-0.2,2.4-0.7c0.6-0.4,0.9-1,0.9-1.8
		c0-0.8-0.3-1.4-0.9-1.8c-0.6-0.4-1.4-0.6-2.6-0.6h-1.1v-1.4l3.5-4.3h-6.7v-1.7h9.2v1.4l-3.6,4.5C240.3,342.8,241.4,343.2,242.1,344
		z"/>
	<path d="M247.3,348.6c0.2,0.3,0.4,0.6,0.4,1c0,0.2,0,0.4-0.1,0.6c0,0.2-0.1,0.5-0.3,0.9l-0.9,2.8h-1.3l0.7-3
		c-0.3-0.1-0.5-0.2-0.6-0.5c-0.2-0.2-0.2-0.5-0.2-0.8c0-0.4,0.1-0.7,0.4-1s0.6-0.4,1-0.4C246.7,348.2,247,348.3,247.3,348.6z"/>
	<path d="M258.4,338.5c1,1.2,1.5,2.9,1.5,5.1c0,1.6-0.3,2.9-0.8,4s-1.3,1.9-2.3,2.5c-1,0.6-2.1,0.8-3.5,0.8c-0.7,0-1.3-0.1-1.9-0.2
		s-1.1-0.3-1.6-0.6l0.8-1.6c0.7,0.4,1.6,0.7,2.7,0.7c1.4,0,2.6-0.4,3.4-1.3c0.8-0.9,1.2-2.2,1.2-3.9v-0.5c-0.4,0.6-0.9,1.1-1.7,1.4
		c-0.7,0.3-1.5,0.5-2.4,0.5c-0.9,0-1.7-0.2-2.5-0.5c-0.7-0.3-1.3-0.8-1.7-1.5c-0.4-0.6-0.6-1.4-0.6-2.2c0-0.9,0.2-1.6,0.6-2.3
		c0.4-0.7,1-1.2,1.8-1.5c0.7-0.4,1.6-0.5,2.5-0.5C255.9,336.7,257.4,337.3,258.4,338.5z M255.9,343.3c0.5-0.2,0.9-0.6,1.1-1
		s0.4-0.9,0.4-1.4c0-0.5-0.1-0.9-0.4-1.3c-0.3-0.4-0.6-0.7-1.1-1c-0.5-0.2-1.1-0.4-1.8-0.4c-0.9,0-1.7,0.2-2.2,0.7s-0.8,1.1-0.8,2
		c0,0.8,0.3,1.5,0.9,2s1.3,0.7,2.3,0.7C254.8,343.7,255.4,343.6,255.9,343.3z"/>
</g>
<g id="moyka_2_4_">
	<path fill="#F3F3F3" stroke="#838383" d="M442.5,132.7c1.4,0,2.5-1.1,2.5-2.5V94c0-1.4-1.1-2.5-2.5-2.5h-30c-1.4,0-2.5,1.1-2.5,2.5
		v36.2c0,1.4,1.1,2.5,2.5,2.5H442.5z"/>
	<path fill="#F3F3F3" stroke="#838383" d="M440,130.2c1.4,0,2.5-1.1,2.5-2.5V96.5c0-1.4-1.1-2.5-2.5-2.5h-21.2
		c-1.4,0-2.5,1.1-2.5,2.5v31.2c0,1.4,1.1,2.5,2.5,2.5H440z"/>
	<rect x="413.7" y="111.5" fill="#F3F3F3" stroke="#838383" width="10" height="2.5"/>
	<circle fill="#F3F3F3" stroke="#838383" cx="430.6" cy="112.1" r="1.9"/>
</g>
<g id="plita_4_">
	<rect x="501.9" y="30.4" fill="#F3F3F3" stroke="#838383" width="43.7" height="45"/>
	<circle fill="#F3F3F3" stroke="#838383" cx="514.4" cy="41.7" r="7.5"/>
	<circle fill="#F3F3F3" stroke="#838383" cx="533.1" cy="60.4" r="7.5"/>
	<circle fill="#F3F3F3" stroke="#838383" cx="533.1" cy="41.7" r="6.2"/>
	<circle fill="#F3F3F3" stroke="#838383" cx="514.4" cy="60.4" r="6.2"/>
</g>
<g id="unitaz_6_">
	<path fill="#F3F3F3" stroke="#838383" d="M158.1,325.2h10.4c1.6,0,3-1.3,3-3v-26.8c0-1.6-1.3-3-3-3h-10.4V325.2z"/>
	<path fill="#F3F3F3" stroke="#838383" d="M171.5,322.2c0,1.6,1.3,3,3,3v-32.8c-1.6,0-3,1.3-3,3V322.2z"/>
	<path fill="#F3F3F3" stroke="#838383" d="M174.5,292.4v32.8c0,0,38.7,6.7,38.7-16.4C213.2,285.7,174.5,292.4,174.5,292.4z"/>
	<circle fill="#F3F3F3" stroke="#838383" cx="164.1" cy="308.8" r="3"/>
</g>
<g id="unitaz_7_">
	<path fill="#F3F3F3" stroke="#838383" d="M269.4,29.8v10.4c0,1.6,1.3,3,3,3h26.8c1.6,0,3-1.3,3-3V29.8H269.4z"/>
	<path fill="#F3F3F3" stroke="#838383" d="M272.4,43.2c-1.6,0-3,1.3-3,3h32.8c0-1.6-1.3-3-3-3H272.4z"/>
	<path fill="#F3F3F3" stroke="#838383" d="M302.2,46.2h-32.8c0,0-6.7,38.7,16.4,38.7C308.9,84.9,302.2,46.2,302.2,46.2z"/>
	<circle fill="#F3F3F3" stroke="#838383" cx="285.8" cy="35.8" r="3"/>
</g>
<g id="moyka_6_">
	<path fill="#F3F3F3" stroke="#838383" d="M158.1,385.1c0,0.9,0.7,1.6,1.6,1.6h32c0.9,0,1.6-0.7,1.6-1.6v-48.1
		c0-0.9-0.7-1.6-1.6-1.6h-32c-0.9,0-1.6,0.7-1.6,1.6V385.1z"/>
	<rect x="162.9" y="335.5" fill="#F3F3F3" stroke="#838383" width="3.2" height="51.3"/>
	<ellipse fill="#F3F3F3" stroke="#838383" cx="179.8" cy="360.3" rx="10.4" ry="16.8"/>
	<rect x="162.9" y="359.5" fill="#F3F3F3" stroke="#838383" width="12.8" height="3.2"/>
	<circle fill="#F3F3F3" stroke="#838383" cx="181.4" cy="361.9" r="2.4"/>
</g>
<g id="moyka_7_">
	<path fill="#F3F3F3" stroke="#838383" d="M359.2,95.6c0-0.9-0.7-1.6-1.6-1.6h-32c-0.9,0-1.6,0.7-1.6,1.6v48.1
		c0,0.9,0.7,1.6,1.6,1.6h32c0.9,0,1.6-0.7,1.6-1.6V95.6z"/>
	<rect x="351.2" y="94" fill="#F3F3F3" stroke="#838383" width="3.2" height="51.3"/>
	<ellipse fill="#F3F3F3" stroke="#838383" cx="337.6" cy="120.5" rx="10.4" ry="16.8"/>
	<rect x="341.6" y="118.1" fill="#F3F3F3" stroke="#838383" width="12.8" height="3.2"/>
	<circle fill="#F3F3F3" stroke="#838383" cx="336" cy="118.9" r="2.4"/>
</g>
<g id="stirka_4_">
	<rect x="250.4" y="244" fill="#F3F3F3" stroke="#838383" width="45.6" height="45.6"/>
	<path fill="#F3F3F3" stroke="#838383" d="M253.5,248.6c0,1.7,1.4,3,3,3h10.6c1.7,0,3-1.4,3-3V244h-16.7V248.6z"/>
	<circle fill="#F3F3F3" stroke="#838383" cx="273.3" cy="268.4" r="12.2"/>
	<circle fill="#F3F3F3" stroke="#838383" cx="273.3" cy="268.4" r="9.1"/>
	<circle fill="#F3F3F3" stroke="#838383" cx="288.5" cy="251.7" r="3"/>
</g>
<g id="vanna_4_">
	<rect x="158.1" y="389.9" fill="#F3F3F3" stroke="#838383" width="137.1" height="53.7"/>
	<path fill="#F3F3F3" stroke="#838383" d="M286.7,408.2c0-7.8-6.3-14.1-14.1-14.1h-94.7v45.2h94.7c7.8,0,14.1-6.3,14.1-14.1V408.2z"
		/>
	<path fill="#F3F3F3" stroke="#838383" d="M175.7,418.1v11.3h-4.9v-19.1"/>
	<path id="Union_4_" fill="#F3F3F3" stroke="#838383" d="M169.4,408c-1.6-0.6-2.8-2.2-2.8-4c0-2.3,1.9-4.2,4.2-4.2
		c2.3,0,4.2,1.9,4.2,4.2c0,1.8-1.2,3.4-2.8,4v1.7c0,0.8-0.6,1.4-1.4,1.4c-0.8,0-1.4-0.6-1.4-1.4V408z"/>
	<rect x="173.6" y="415.3" fill="#F3F3F3" stroke="#838383" width="11.3" height="2.8"/>
</g>
<g>
	<g>
		<path fill="#F1F2F2" stroke="#848484" stroke-miterlimit="10" d="M559,207.2c8.5,0,15.4-2.5,15.4-5.7c0-3.1-6.9-5.7-15.4-5.7
			s-15.4,2.6-15.4,5.7C543.6,204.7,550.5,207.2,559,207.2z"/>
		<path fill="#F1F2F2" stroke="#848484" stroke-miterlimit="10" d="M559,232.9c8.5,0,15.4-6.9,15.4-15.4c0-8.5-6.9-15.4-15.4-15.4
			s-15.4,6.9-15.4,15.4C543.6,226,550.5,232.9,559,232.9z"/>
	</g>
	<g>
		<path fill="#F1F2F2" stroke="#848484" stroke-miterlimit="10" d="M559,284.7c-8.5,0-15.4,2.5-15.4,5.7c0,3.1,6.9,5.7,15.4,5.7
			c8.5,0,15.4-2.6,15.4-5.7C574.4,287.2,567.5,284.7,559,284.7z"/>
		<path fill="#F1F2F2" stroke="#848484" stroke-miterlimit="10" d="M559,259c-8.5,0-15.4,6.9-15.4,15.4c0,8.5,6.9,15.4,15.4,15.4
			c8.5,0,15.4-6.9,15.4-15.4C574.4,265.9,567.5,259,559,259z"/>
	</g>
	<g>
		<path fill="#F1F2F2" stroke="#848484" stroke-miterlimit="10" d="M522.6,245.3c0-8.5-2.5-15.4-5.7-15.4c-3.1,0-5.7,6.9-5.7,15.4
			c0,8.5,2.6,15.4,5.7,15.4C520.1,260.7,522.6,253.8,522.6,245.3z"/>
		<path fill="#F1F2F2" stroke="#848484" stroke-miterlimit="10" d="M548.4,245.3c0-8.5-6.9-15.4-15.4-15.4
			c-8.5,0-15.4,6.9-15.4,15.4c0,8.5,6.9,15.4,15.4,15.4C541.5,260.7,548.4,253.8,548.4,245.3z"/>
	</g>
	<g>
		<path fill="#F1F2F2" stroke="#848484" stroke-miterlimit="10" d="M595.4,245.3c0,8.5,2.5,15.4,5.7,15.4c3.1,0,5.7-6.9,5.7-15.4
			c0-8.5-2.6-15.4-5.7-15.4C597.9,230,595.4,236.8,595.4,245.3z"/>
		<path fill="#F1F2F2" stroke="#848484" stroke-miterlimit="10" d="M569.7,245.3c0,8.5,6.9,15.4,15.4,15.4c8.5,0,15.4-6.9,15.4-15.4
			c0-8.5-6.9-15.4-15.4-15.4C576.5,230,569.7,236.8,569.7,245.3z"/>
	</g>
	
		<rect x="528" y="214.4" transform="matrix(6.123234e-17 -1 1 6.123234e-17 313.6679 804.3467)" fill="#F1F2F2" stroke="#848484" stroke-miterlimit="10" width="61.9" height="61.9"/>
</g>
<g>
	<g>
		
			<rect x="558" y="372" fill-rule="evenodd" clip-rule="evenodd" fill="#F1F2F2" stroke="#848484" stroke-miterlimit="10" width="90.8" height="4.6"/>
		<polygon fill-rule="evenodd" clip-rule="evenodd" fill="#F1F2F2" stroke="#848484" stroke-miterlimit="10" points="565.7,376.5 
			580.3,380.1 626.4,380.1 641,376.5 		"/>
		
			<rect x="601.4" y="374.3" transform="matrix(-5.064056e-11 1 -1 -5.064056e-11 985.4464 -221.2687)" fill-rule="evenodd" clip-rule="evenodd" fill="#F1F2F2" stroke="#848484" stroke-miterlimit="10" width="4" height="15.5"/>
	</g>
</g>
<g>
	<g>
		
			<rect x="162.6" y="575.1" fill-rule="evenodd" clip-rule="evenodd" fill="#F1F2F2" stroke="#848484" stroke-miterlimit="10" width="165.1" height="128.1"/>
		
			<rect x="169.2" y="578.1" fill-rule="evenodd" clip-rule="evenodd" fill="#F1F2F2" stroke="#848484" stroke-miterlimit="10" width="153.9" height="122.3"/>
		
			<rect x="173.2" y="581.7" fill-rule="evenodd" clip-rule="evenodd" fill="#F1F2F2" stroke="#848484" stroke-miterlimit="10" width="34.7" height="47.5"/>
		
			<rect x="173.2" y="648.9" fill-rule="evenodd" clip-rule="evenodd" fill="#F1F2F2" stroke="#848484" stroke-miterlimit="10" width="34.7" height="47.5"/>
		<polygon fill-rule="evenodd" clip-rule="evenodd" fill="#F1F2F2" stroke="#848484" stroke-miterlimit="10" points="225.6,578.1 
			204.4,614.6 204.4,663.9 204.4,614.6 204.4,663.9 225.6,700.4 323.1,700.4 323.1,700.2 323.1,578.1 		"/>
		<polyline fill-rule="evenodd" clip-rule="evenodd" fill="#F1F2F2" stroke="#848484" stroke-miterlimit="10" points="225.6,578.1 
			241.1,603.7 204.4,614.6 		"/>
		
			<line fill-rule="evenodd" clip-rule="evenodd" fill="#F1F2F2" stroke="#848484" stroke-miterlimit="10" x1="204.4" y1="614.6" x2="225.6" y2="578.1"/>
		<polyline fill-rule="evenodd" clip-rule="evenodd" fill="#F1F2F2" stroke="#848484" stroke-miterlimit="10" points="225.6,700.4 
			241.1,674.8 204.4,663.9 		"/>
		
			<line fill-rule="evenodd" clip-rule="evenodd" fill="#F1F2F2" stroke="#848484" stroke-miterlimit="10" x1="204.4" y1="663.9" x2="225.6" y2="700.4"/>
	</g>
	<g>
		
			<rect x="156.5" y="711.8" transform="matrix(-1.836970e-16 1 -1 -1.836970e-16 907.2064 549.1736)" fill="#F1F2F2" stroke="#848484" stroke-miterlimit="10" width="45.1" height="32.8"/>
		
			<rect x="187" y="726.9" transform="matrix(-1.836970e-16 1 -1 -1.836970e-16 924.4814 531.5463)" fill="#F1F2F2" stroke="#848484" stroke-miterlimit="10" width="18.9" height="2.1"/>
	</g>
	<g>
		
			<rect x="156.5" y="533.7" transform="matrix(-1.836970e-16 1 -1 -1.836970e-16 729.0634 371.0307)" fill="#F1F2F2" stroke="#848484" stroke-miterlimit="10" width="45.1" height="32.8"/>
		
			<rect x="187" y="548.8" transform="matrix(1.437012e-13 1 -1 1.437012e-13 746.3384 353.4033)" fill="#F1F2F2" stroke="#848484" stroke-miterlimit="10" width="18.9" height="2.1"/>
	</g>
</g>
<g>
	
		<rect x="163" y="472.5" transform="matrix(-1 -4.488821e-11 4.488821e-11 -1 463.4431 992.4664)" fill-rule="evenodd" clip-rule="evenodd" fill="#F1F2F2" stroke="#848484" stroke-miterlimit="10" width="137.5" height="47.5"/>
	<line fill="#F1F2F2" stroke="#848484" stroke-miterlimit="10" x1="295.5" y1="472.5" x2="295.5" y2="520.1"/>
	<line fill="#F1F2F2" stroke="#848484" stroke-miterlimit="10" x1="168.1" y1="472.5" x2="168.1" y2="520"/>
	<line fill="#F1F2F2" stroke="#848484" stroke-miterlimit="10" x1="295.5" y1="517.8" x2="168.1" y2="517.8"/>
	<line fill="#F1F2F2" stroke="#848484" stroke-miterlimit="10" x1="172.5" y1="495.9" x2="291.1" y2="495.9"/>
	
		<rect x="283.4" y="481.7" transform="matrix(-0.9868 0.162 -0.162 -0.9868 646.4312 939.5804)" fill="#F1F2F2" stroke="#848484" stroke-miterlimit="10" width="3" height="28.9"/>
	
		<rect x="272.8" y="481.7" transform="matrix(-0.9961 8.815246e-02 -8.815246e-02 -0.9961 591.1942 966.1699)" fill="#F1F2F2" stroke="#848484" stroke-miterlimit="10" width="3" height="28.9"/>
	
		<rect x="262" y="481.4" transform="matrix(-0.9734 0.229 -0.229 -0.9734 633.5098 918.2701)" fill="#F1F2F2" stroke="#848484" stroke-miterlimit="10" width="3" height="28.9"/>
	
		<rect x="250" y="481.7" transform="matrix(-0.9884 0.152 -0.152 -0.9884 575.3992 948.4319)" fill="#F1F2F2" stroke="#848484" stroke-miterlimit="10" width="3" height="28.9"/>
	
		<rect x="239.5" y="481.6" transform="matrix(-0.999 4.511170e-02 -4.511170e-02 -0.999 504.0133 980.7328)" fill="#F1F2F2" stroke="#848484" stroke-miterlimit="10" width="3" height="28.9"/>
	
		<rect x="228.8" y="481.6" transform="matrix(-0.9884 0.152 -0.152 -0.9884 533.3683 951.3229)" fill="#F1F2F2" stroke="#848484" stroke-miterlimit="10" width="3" height="28.9"/>
	
		<rect x="218" y="481.4" transform="matrix(-0.999 4.511170e-02 -4.511170e-02 -0.999 461.1885 981.3763)" fill="#F1F2F2" stroke="#848484" stroke-miterlimit="10" width="3" height="28.9"/>
	
		<rect x="207.5" y="481.4" transform="matrix(-0.9787 0.2052 -0.2052 -0.9787 515.1739 938.368)" fill="#F1F2F2" stroke="#848484" stroke-miterlimit="10" width="3" height="28.9"/>
	
		<rect x="196.9" y="481.4" transform="matrix(-0.9884 0.152 -0.152 -0.9884 469.8101 955.9205)" fill="#F1F2F2" stroke="#848484" stroke-miterlimit="10" width="3" height="28.9"/>
	
		<rect x="186.3" y="481.4" transform="matrix(-0.9964 8.473843e-02 -8.473843e-02 -0.9964 416.8983 974.0887)" fill="#F1F2F2" stroke="#848484" stroke-miterlimit="10" width="3" height="28.9"/>
	
		<rect x="175.7" y="481.8" transform="matrix(-0.9713 0.2379 -0.2379 -0.9713 467.3684 936.082)" fill="#F1F2F2" stroke="#848484" stroke-miterlimit="10" width="3" height="28.9"/>
</g>
<g>
	<g>
		
			<rect x="547.8" y="395.7" transform="matrix(-1 -4.494106e-11 4.494106e-11 -1 1141.1835 824.4523)" fill="#F1F2F2" stroke="#848484" stroke-miterlimit="10" width="45.5" height="33.1"/>
		
			<rect x="561.2" y="428.8" transform="matrix(-1 -4.482116e-11 4.482116e-11 -1 1141.5388 859.6585)" fill="#F1F2F2" stroke="#848484" stroke-miterlimit="10" width="19.1" height="2.2"/>
	</g>
	<g>
		
			<rect x="595.7" y="395.7" fill-rule="evenodd" clip-rule="evenodd" fill="#F1F2F2" stroke="#848484" stroke-miterlimit="10" width="64.6" height="166.5"/>
		<polyline fill-rule="evenodd" clip-rule="evenodd" fill="#F1F2F2" stroke="#848484" stroke-miterlimit="10" points="657.7,442.1 
			657.7,403.8 598.5,403.8 598.5,461.9 		"/>
		
			<rect x="610.3" y="399.7" transform="matrix(-4.481767e-11 1 -1 -4.481767e-11 1053.7196 -202.4023)" fill-rule="evenodd" clip-rule="evenodd" fill="#F1F2F2" stroke="#848484" stroke-miterlimit="10" width="35.5" height="51.8"/>
		<polygon fill-rule="evenodd" clip-rule="evenodd" fill="#F1F2F2" stroke="#848484" stroke-miterlimit="10" points="657.7,440.5 
			633.7,440.5 633.7,440.5 598.5,461.4 598.5,557.5 598.6,557.5 657.7,557.5 		"/>
		<polygon fill-rule="evenodd" clip-rule="evenodd" fill="#F1F2F2" stroke="#848484" stroke-miterlimit="10" points="599.1,461.5 
			622.5,476.3 632.4,441.3 		"/>
	</g>
	<g>
		
			<rect x="663" y="395.7" transform="matrix(-1 -4.494106e-11 4.494106e-11 -1 1371.4023 824.4523)" fill="#F1F2F2" stroke="#848484" stroke-miterlimit="10" width="45.5" height="33.1"/>
		
			<rect x="676.3" y="428.8" transform="matrix(-1 -4.539314e-11 4.539314e-11 -1 1371.7578 859.6585)" fill="#F1F2F2" stroke="#848484" stroke-miterlimit="10" width="19.1" height="2.2"/>
	</g>
</g>
<g>
	<g>
		<path fill="#F1F2F2" stroke="#848484" stroke-miterlimit="10" d="M504.6,615.8l0-32.7c0-1.1-0.9-2-2-2l-29.6,0c-1.1,0-2,0.9-2,2
			l0,32.7c0,1.1,0.9,2,2,2l29.6,0C503.7,617.8,504.6,616.9,504.6,615.8z"/>
		<path fill="#F1F2F2" stroke="#848484" stroke-miterlimit="10" d="M504.6,616.5l0-34c0-0.8,0.6-1.4,1.4-1.4l5.3,0
			c0.8,0,1.4,0.6,1.4,1.4l0,34c0,0.8-0.6,1.4-1.4,1.4l-5.3,0C505.3,617.8,504.6,617.2,504.6,616.5z"/>
	</g>
	
		<rect x="428.4" y="579.8" transform="matrix(6.553406e-11 1 -1 6.553406e-11 1065.363 133.6377)" fill-rule="evenodd" clip-rule="evenodd" fill="#F1F2F2" stroke="#848484" stroke-miterlimit="10" width="74.9" height="39.4"/>
	
		<rect x="427.8" y="504.3" transform="matrix(6.456506e-11 1 -1 6.456506e-11 989.8587 58.1333)" fill-rule="evenodd" clip-rule="evenodd" fill="#F1F2F2" stroke="#848484" stroke-miterlimit="10" width="76.1" height="39.4"/>
</g>
<g>
</g>
<g>
</g>
<g>
</g>
<g>
</g>
<g>
</g>
<g>
</g>
</svg>
