<svg id="Слой_1" data-name="Слой 1" xmlns="http://www.w3.org/2000/svg" viewBox="0 0 195.53451 180.82229"><title>1.02.02</title><path d="M178.3996,136.34341v-2.5433h-6.9599v2.5433Zm0,4.33609v-2.54321h-6.9599v2.54321Zm-4.068,4.44168v-2.54327H171.4397v2.54327Zm4.068,0v-2.54327h-2.89189v2.54327Zm-9.4632-18.5239H180.9193v20.9812H168.9364Z" transform="translate(-114.6883 -122.18921)" style="fill:#003915;fill-rule:evenodd"/><path d="M255.3667,135.82831V133.2851h-6.9599v2.54321Zm0,4.33618v-2.5433h-6.9599v2.5433Zm-4.068,4.44162V142.0629H248.4068v2.54321Zm4.068,0V142.0629h-2.89191v2.54321Zm-8.5674-12.4574H256.576V145.6915H246.7993Z" transform="translate(-114.6883 -122.18921)" style="fill:#003915;fill-rule:evenodd"/><path d="M208.09219,156.88889a.374.374,0,0,1-.6474-.37469l8.0399-13.92011a.374.374,0,1,1,.6474.37473Z" transform="translate(-114.6883 -122.18921)" style="fill:#003915"/><path d="M149.2877,269.0215a.37408.37408,0,0,0,.3748.64751l13.92009-8.0399a.37408.37408,0,0,0-.3748-.64751Z" transform="translate(-114.6883 -122.18921)" style="fill:#003915"/><path d="M225.06889,205.67371a.374.374,0,1,0,.37471.64749l13.92009-8.04a.374.374,0,1,0-.37469-.6474Z" transform="translate(-114.6883 -122.18921)" style="fill:#003915"/><path d="M264.0546,205.7775a.374.374,0,1,1-.37469.6474L249.7598,198.385a.374.374,0,1,1,.37471-.6474Z" transform="translate(-114.6883 -122.18921)" style="fill:#003915"/><path d="M276.7467,172.23509a.374.374,0,1,0-.37469-.6474l-13.9201,8.0399a.374.374,0,0,0,.37469.6474Z" transform="translate(-114.6883 -122.18921)" style="fill:#003915"/><rect x="100.6898" y="2.29199" width="2.6022" height="18.33029" style="fill:#003915"/><rect x="63.62879" y="24.2764" width="2.6022" height="25.59059" style="fill:#003915"/><rect x="130.10889" y="2.29199" width="2.6022" height="42.1019" style="fill:#003915"/><rect x="163.1625" y="48.94238" width="2.6022" height="26.85771" style="fill:#003915"/><rect x="64.26231" y="73.41899" width="2.60219" height="66.0761" style="fill:#003915"/><rect x="130.10889" y="73.41899" width="2.6022" height="104.4034" style="fill:#003915"/><rect x="100.6898" y="36.7894" width="2.6022" height="12.7531" style="fill:#003915"/><rect x="100.6898" y="47.4502" width="45.10121" height="2.60219" style="fill:#003915"/><rect x="124.8064" y="73.41899" width="10.6514" height="2.6022" style="fill:#003915"/><rect x="64.67139" y="73.41899" width="42.7036" height="2.6022" style="fill:#003915"/><rect x="153.2311" y="73.41899" width="12.5336" height="2.6022" style="fill:#003915"/><rect x="161.9085" y="47.4502" width="31.81259" height="2.60219" style="fill:#003915"/><rect x="164.76861" y="50.63779" width="28.95248" height="2.6022" style="fill:#003915"/><rect y="2.9823" width="5.0021" height="157.72108" style="fill:#003915"/><rect x="190.53249" y="2.9823" width="5.00201" height="173.52029" style="fill:#003915"/><rect width="76.671" height="6.42548" style="fill:#003915"/><rect x="96.87859" width="98.65591" height="6.42548" style="fill:#003915"/><rect y="142.57019" width="34.8914" height="8.1601" style="fill:#003915"/><rect y="172.66219" width="7.3112" height="8.1601" style="fill:#003915"/><rect x="66.64539" y="172.66219" width="15.75551" height="8.1601" style="fill:#003915"/><rect x="111.1533" y="172.66219" width="34.87779" height="8.1601" style="fill:#003915"/><rect x="174.5816" y="172.66219" width="20.95291" height="8.1601" style="fill:#003915"/><rect x="64.5512" y="37.26819" width="8.1601" height="12.78419" style="fill:#003915"/><rect x="124.551" y="37.26819" width="8.1601" height="12.78419" style="fill:#003915"/><rect x="124.551" y="135.0703" width="8.1601" height="12.78419" style="fill:#003915"/><rect y="142.90239" width="8.1601" height="37.9199" style="fill:#003915"/><rect x="64.26231" y="135.70239" width="8.1601" height="45.1199" style="fill:#003915"/><rect x="96.111" y="175.66319" width="0.50169" height="2.2986" style="fill:#003915"/><rect x="97.3097" y="175.66319" width="0.50121" height="2.2986" style="fill:#003915"/><rect x="109.94689" y="175.66319" width="0.5014" height="2.2986" style="fill:#003915"/><rect x="111.14539" y="175.66319" width="0.5011" height="2.2986" style="fill:#003915"/><rect x="81.99931" y="175.66319" width="0.50169" height="2.2986" style="fill:#003915"/><rect x="83.1977" y="175.66319" width="0.50121" height="2.2986" style="fill:#003915"/><rect x="79.6097" y="172.66129" width="34.09369" height="0.50151" style="fill:#003915"/><rect x="79.6097" y="175.50849" width="34.09369" height="0.5014" style="fill:#003915"/><rect x="79.6097" y="177.67979" width="34.09369" height="0.5014" style="fill:#003915"/><rect x="79.6097" y="180.32079" width="34.09369" height="0.5015" style="fill:#003915"/><rect x="159.71221" y="175.66319" width="0.50168" height="2.2986" style="fill:#003915"/><rect x="160.911" y="175.66319" width="0.5011" height="2.2986" style="fill:#003915"/><rect x="173.54809" y="175.66319" width="0.50153" height="2.2986" style="fill:#003915"/><rect x="174.7466" y="175.66319" width="0.50119" height="2.2986" style="fill:#003915"/><rect x="145.60049" y="175.66319" width="0.50171" height="2.2986" style="fill:#003915"/><rect x="146.799" y="175.66319" width="0.5011" height="2.2986" style="fill:#003915"/><rect x="143.2109" y="172.66129" width="34.09369" height="0.50151" style="fill:#003915"/><rect x="143.2109" y="175.50849" width="34.09369" height="0.5014" style="fill:#003915"/><rect x="143.2109" y="177.67979" width="34.09369" height="0.5014" style="fill:#003915"/><rect x="143.2109" y="180.32079" width="34.09369" height="0.5015" style="fill:#003915"/><path d="M169.5495,269.5717v-1.66991h-.697v1.66991Zm12.98981.5015H168.85249v2.3457h13.68681v.5014h-14.188v-8.1609h14.188v.5014H168.85249v2.1396h13.68681v.50139H170.051v1.66991h12.48831Z" transform="translate(-114.6883 -122.18921)" style="fill:#003915;fill-rule:evenodd"/><rect x="17.0638" y="176.19359" width="0.44699" height="1.2971" style="fill:#003915"/><rect x="18.1319" y="176.19359" width="0.4467" height="1.2971" style="fill:#003915"/><rect x="35.66579" y="176.19359" width="0.4471" height="1.2971" style="fill:#003915"/><rect x="36.73389" y="176.19359" width="0.44681" height="1.2971" style="fill:#003915"/><rect x="54.2682" y="176.19359" width="0.44701" height="1.2971" style="fill:#003915"/><rect x="55.3363" y="176.19359" width="0.4467" height="1.2971" style="fill:#003915"/><rect x="72.8711" y="176.19359" width="0.4471" height="1.2971" style="fill:#003915"/><rect x="73.9392" y="176.19359" width="0.44679" height="1.2971" style="fill:#003915"/><rect y="174.96419" width="76.034" height="0.4467" style="fill:#003915"/><rect y="176.05549" width="76.034" height="0.4468" style="fill:#003915"/><rect y="177.13639" width="76.034" height="0.4467" style="fill:#003915"/><path d="M286.20511,129.06491h-9.8223a.90521.90521,0,0,0-.90543.9039v4.61029a4.59578,4.59578,0,0,0,4.5896,4.591h2.45221a4.59567,4.59567,0,0,0,4.59039-4.591v-4.61029a.9046.9046,0,0,0-.90448-.9039m-6.13812,9.8606a4.35112,4.35112,0,0,1-4.345-4.34641v-4.61029a.66152.66152,0,0,1,.66083-.65991h9.8223a.66073.66073,0,0,1,.65988.65991v4.61029a4.35147,4.35147,0,0,1-4.34579,4.34641Z" transform="translate(-114.6883 -122.18921)" style="fill:#003915"/><path d="M280.0672,137.8353a3.2587,3.2587,0,0,1-3.25439-3.25619V131.891a.56792.56792,0,0,1,.5672-.5675h3.57529v-.24518H277.38a.814.814,0,0,0-.81241.81268v2.68811a3.50406,3.50406,0,0,0,3.4996,3.50079h2.4523a3.5047,3.5047,0,0,0,3.50079-3.50079V131.891a.81446.81446,0,0,0-.8136-.81268h-3.57529v.24518h3.57529a.56835.56835,0,0,1,.56839.5675v2.68811a3.25932,3.25932,0,0,1-3.25558,3.25619Z" transform="translate(-114.6883 -122.18921)" style="fill:#003915"/><path d="M281.2941,134.2316a.78351.78351,0,1,0,.78381.78351.78482.78482,0,0,0-.78381-.78351m0,1.3223a.5387.5387,0,1,1,.53909-.53879A.53963.53963,0,0,1,281.2941,135.55389Z" transform="translate(-114.6883 -122.18921)" style="fill:#003915"/><rect x="166.4833" y="12.26718" width="0.2449" height="1.11652" style="fill:#003915"/><rect x="166.04739" y="12.70279" width="1.11603" height="0.24551" style="fill:#003915"/><path d="M281.63141,130.24719h.40369a.17365.17365,0,0,1,.17291.174v.3793a.17373.17373,0,0,1-.17291.1741h-.40369v.2449h.40369a.41875.41875,0,0,0,.41809-.419v-.3793a.41866.41866,0,0,0-.41809-.41861h-.4057l.002.03741Zm-1.07721.72742a.17449.17449,0,0,1-.174-.1741v-.3793a.17441.17441,0,0,1,.174-.174h.40109V130.04l.00232-.03741h-.40341a.41854.41854,0,0,0-.41861.41861v.3793a.41862.41862,0,0,0,.41861.419h.40109v-.2449Z" transform="translate(-114.6883 -122.18921)" style="fill:#003915"/><path d="M281.2941,129.57959a.46107.46107,0,0,0-.46121.46042v3.08038a.46051.46051,0,0,0,.921,0V130.04a.46063.46063,0,0,0-.45981-.46042m0,3.75681a.21672.21672,0,0,1-.21631-.216V130.04a.21556.21556,0,0,1,.43112,0v3.08038A.216.216,0,0,1,281.2941,133.3364Z" transform="translate(-114.6883 -122.18921)" style="fill:#003915"/><path d="M244.6532,156.95831V147.136a.90535.90535,0,0,0-.904-.9054H239.1389a4.59577,4.59577,0,0,0-4.591,4.5896v2.4523a4.59572,4.59572,0,0,0,4.591,4.59039h4.61031a.90478.90478,0,0,0,.904-.90457m-9.8606-6.13812a4.35091,4.35091,0,0,1,4.3463-4.34488h4.61031a.66135.66135,0,0,1,.6599.66068v9.82233a.66075.66075,0,0,1-.6599.66H239.1389a4.35136,4.35136,0,0,1-4.3463-4.34579Z" transform="translate(-114.6883 -122.18921)" style="fill:#003915"/><path d="M235.8828,150.8205a3.25877,3.25877,0,0,1,3.2561-3.25449h2.6881a.56785.56785,0,0,1,.5675.5672v3.57538h.24519v-3.57538a.8141.8141,0,0,0-.8127-.81241h-2.6881a3.50413,3.50413,0,0,0-3.50079,3.49969v2.45221a3.50468,3.50468,0,0,0,3.50079,3.50079h2.6881a.81447.81447,0,0,0,.8127-.81351v-3.57538h-.24519V155.96a.5682.5682,0,0,1-.5675.5683h-2.6881a3.25931,3.25931,0,0,1-3.2561-3.25558Z" transform="translate(-114.6883 -122.18921)" style="fill:#003915"/><path d="M239.4865,152.0473a.7835.7835,0,1,0-.78349.78378.7848.7848,0,0,0,.78349-.78378m-1.3224,0a.5387.5387,0,1,1,.53891.53918A.53971.53971,0,0,1,238.16409,152.0473Z" transform="translate(-114.6883 -122.18921)" style="fill:#003915"/><rect x="123.45679" y="29.73569" width="1.11661" height="0.2449" style="fill:#003915"/><rect x="123.8922" y="29.29968" width="0.2455" height="1.116" style="fill:#003915"/><path d="M243.47079,152.38461v.40369a.17365.17365,0,0,1-.174.17291h-.3793a.17365.17365,0,0,1-.174-.17291v-.40369h-.2449v.40369a.4186.4186,0,0,0,.4189.41809h.3793a.41862.41862,0,0,0,.4187-.41809v-.40561l-.03751.00192Zm-.72729-1.07712a.17447.17447,0,0,1,.174-.1741h.3793a.17447.17447,0,0,1,.174.1741v.40109h.2072l.03751.00232v-.40341a.41864.41864,0,0,0-.4187-.4187h-.3793a.41861.41861,0,0,0-.4189.4187v.40109h.2449Z" transform="translate(-114.6883 -122.18921)" style="fill:#003915"/><path d="M244.1384,152.0473a.46112.46112,0,0,0-.4604-.46121h-3.0804a.46051.46051,0,0,0,0,.921h3.0804a.46056.46056,0,0,0,.4604-.45981m-3.75679,0a.21676.21676,0,0,1,.216-.21631h3.0804a.21561.21561,0,0,1,0,.43121h-3.0804A.21608.21608,0,0,1,240.38161,152.0473Z" transform="translate(-114.6883 -122.18921)" style="fill:#003915"/><path d="M229.2211,143.064a3.91691,3.91691,0,0,1-3.91161-3.9129v-5.66528a.67725.67725,0,0,1,.4561-.63922,1.241,1.241,0,0,1-.20349-.205.946.946,0,0,0-.52161.84421v5.66528a4.18085,4.18085,0,1,0,8.36171,0v-5.66528a.94536.94536,0,0,0-.521-.8436,1.24686,1.24686,0,0,1-.20329.20468.67609.67609,0,0,1,.45551.63892v5.66528a3.917,3.917,0,0,1-3.91231,3.9129" transform="translate(-114.6883 -122.18921)" style="fill:#003915"/><path d="M232.0248,134.56659h-5.6089a.20409.20409,0,0,0-.20129.2016v4.27072a3.0066,3.0066,0,1,0,6.0132,0v-4.27072a.20477.20477,0,0,0-.203-.2016m-5.5414.26822h5.47591v4.2041a2.738,2.738,0,0,1-5.47591,0Z" transform="translate(-114.6883 -122.18921)" style="fill:#003915"/><path d="M229.22079,137.29749a1.00816,1.00816,0,1,0,1.0088,1.008,1.01007,1.01007,0,0,0-1.0088-1.008m0,1.74762a.73941.73941,0,1,1,.73981-.73959A.74039.74039,0,0,1,229.22079,139.04511Z" transform="translate(-114.6883 -122.18921)" style="fill:#003915"/><rect x="227.46509" y="135.10027" width="0.26857" height="2.2422" transform="translate(-150.97572 40.89282) rotate(-36.71314)" style="fill:#003915"/><rect x="229.6772" y="136.08697" width="2.24301" height="0.26921" transform="translate(-131.23811 117.19763) rotate(-53.19014)" style="fill:#003915"/><path d="M231.9216,129.06491h-5.4005a1.355,1.355,0,0,0-1.3524,1.35379v1.4743a1.35343,1.35343,0,0,0,1.3524,1.35239h5.4005a1.35319,1.35319,0,0,0,1.3519-1.35239v-1.4743a1.35479,1.35479,0,0,0-1.3519-1.35379m-5.4005,3.91208a1.0855,1.0855,0,0,1-1.0843-1.084v-1.4743a1.08589,1.08589,0,0,1,1.0843-1.08511h5.4005a1.086,1.086,0,0,1,1.08369,1.08511v1.4743a1.08555,1.08555,0,0,1-1.08369,1.084Z" transform="translate(-114.6883 -122.18921)" style="fill:#003915"/><path d="M229.22079,130.46719a.68811.68811,0,1,0,.6882.68741.6881.6881,0,0,0-.6882-.68741m0,1.10721a.41925.41925,0,1,1,.41951-.4198A.41951.41951,0,0,1,229.22079,131.5744Z" transform="translate(-114.6883 -122.18921)" style="fill:#003915"/><path d="M266.93149,143.064a3.91683,3.91683,0,0,1-3.9115-3.9129v-5.66528a.67712.67712,0,0,1,.45612-.63922,1.2453,1.2453,0,0,1-.20361-.205.94587.94587,0,0,0-.52148.84421v5.66528a4.1808,4.1808,0,1,0,8.3616,0v-5.66528a.94537.94537,0,0,0-.521-.8436,1.24276,1.24276,0,0,1-.20331.20468.67615.67615,0,0,1,.4556.63892v5.66528a3.91708,3.91708,0,0,1-3.91241,3.9129" transform="translate(-114.6883 -122.18921)" style="fill:#003915"/><path d="M269.7352,134.56659h-5.60889a.204.204,0,0,0-.2012.2016v4.27072a3.00655,3.00655,0,1,0,6.01309,0v-4.27072a.20478.20478,0,0,0-.203-.2016m-5.54141.26822h5.476v4.2041a2.738,2.738,0,0,1-5.476,0Z" transform="translate(-114.6883 -122.18921)" style="fill:#003915"/><path d="M266.93121,137.29749a1.00816,1.00816,0,1,0,1.00888,1.008,1.01006,1.01006,0,0,0-1.00888-1.008m0,1.74762a.73941.73941,0,1,1,.7399-.73959A.74046.74046,0,0,1,266.93121,139.04511Z" transform="translate(-114.6883 -122.18921)" style="fill:#003915"/><rect x="265.17554" y="135.10027" width="0.26857" height="2.2422" transform="translate(-143.48367 63.50636) rotate(-36.72676)" style="fill:#003915"/><rect x="267.38761" y="136.08699" width="2.24303" height="0.26917" transform="translate(-116.12667 147.38084) rotate(-53.18827)" style="fill:#003915"/><path d="M269.63211,129.06491h-5.4006a1.355,1.355,0,0,0-1.35242,1.35379v1.4743a1.35343,1.35343,0,0,0,1.35242,1.35239h5.4006a1.3531,1.3531,0,0,0,1.35178-1.35239v-1.4743a1.35469,1.35469,0,0,0-1.35178-1.35379m-5.4006,3.91208a1.08557,1.08557,0,0,1-1.08432-1.084v-1.4743a1.086,1.086,0,0,1,1.08432-1.08511h5.4006a1.08593,1.08593,0,0,1,1.08359,1.08511v1.4743a1.08553,1.08553,0,0,1-1.08359,1.084Z" transform="translate(-114.6883 -122.18921)" style="fill:#003915"/><path d="M266.93121,130.46719a.68811.68811,0,1,0,.68829.68741.68811.68811,0,0,0-.68829-.68741m0,1.10721a.41925.41925,0,1,1,.41949-.4198A.41943.41943,0,0,1,266.93121,131.5744Z" transform="translate(-114.6883 -122.18921)" style="fill:#003915"/><path d="M255.9574,157.86151H248.118V169.2094h7.8394Zm-8.17079-.33081h8.50249v12.0098h-8.50249Z" transform="translate(-114.6883 -122.18921)" style="fill:#003915"/><path d="M256.182,160.25589a.60432.60432,0,0,1,.61249.5936v5.37222a.60394.60394,0,0,1-.61249.59378v-.33078a.26966.26966,0,0,0,.28088-.263v-5.37222a.26949.26949,0,0,0-.28088-.26279Z" transform="translate(-114.6883 -122.18921)" style="fill:#003915"/><path d="M253.5554,162.5137h-2.7077l-.6216,1.59729a2.47421,2.47421,0,0,0,1.6747-.0918,4.15139,4.15139,0,0,1,1.24069-.2413,2.44764,2.44764,0,0,1,.9366.18829Zm-2.9342-.33081h3.1669l.89211,2.48-.3907-.22479a2.26639,2.26639,0,0,0-1.148-.32941,3.89167,3.89167,0,0,0-1.1438.22681,3.89761,3.89761,0,0,1-1.144.22818,2.017,2.017,0,0,1-.91251-.218l-.13579-.06741Z" transform="translate(-114.6883 -122.18921)" style="fill:#003915"/><path d="M290.23941,131.2161V161.301a2.161,2.161,0,0,0,2.16559,2.15152h10.41141a2.161,2.161,0,0,0,2.166-2.15152V131.2161a2.16087,2.16087,0,0,0-2.166-2.15118H292.405a2.1609,2.1609,0,0,0-2.16559,2.15118M304.7525,161.301a1.93116,1.93116,0,0,1-1.9361,1.92191H292.405a1.931,1.931,0,0,1-1.93549-1.92191V131.2161a1.93148,1.93148,0,0,1,1.93549-1.92221h10.41141a1.93162,1.93162,0,0,1,1.9361,1.92221Z" transform="translate(-114.6883 -122.18921)" style="fill:#003915"/><path d="M303.49051,158.31531a2.577,2.577,0,0,1-2.58212,2.56528H294.3136a2.57656,2.57656,0,0,1-2.58179-2.56528V134.20209a2.57708,2.57708,0,0,1,2.58179-2.56589h2.06189a.397.397,0,0,1-.142-.22821H294.3136a2.80638,2.80638,0,0,0-2.8125,2.7941v24.11322a2.80664,2.80664,0,0,0,2.8125,2.7944h6.59479a2.8066,2.8066,0,0,0,2.81232-2.7944V134.20209a2.80634,2.80634,0,0,0-2.81232-2.7941h-1.9202a.39578.39578,0,0,1-.14139.22821h2.06158a2.57749,2.57749,0,0,1,2.58212,2.56589Z" transform="translate(-114.6883 -122.18921)" style="fill:#003915"/><path d="M302.17719,156.76791a1.26664,1.26664,0,0,1-1.2688,1.26108H294.3136a1.26633,1.26633,0,0,1-1.26819-1.26108V134.20209a1.2662,1.2662,0,0,1,1.26819-1.26138h2.84491v-.22879H294.3136a1.4962,1.4962,0,0,0-1.499,1.49017v22.56583a1.4957,1.4957,0,0,0,1.499,1.48929h6.59479a1.49534,1.49534,0,0,0,1.499-1.48929V134.20209a1.49584,1.49584,0,0,0-1.499-1.49017h-2.84509v.22879h2.84509a1.2665,1.2665,0,0,1,1.2688,1.26138Z" transform="translate(-114.6883 -122.18921)" style="fill:#003915"/><path d="M296.87811,136.1073a.73334.73334,0,1,0,.73358-.73.73151.73151,0,0,0-.73358.73m1.23648,0a.5033.5033,0,1,1-.5029-.5004A.50181.50181,0,0,1,298.11459,136.1073Z" transform="translate(-114.6883 -122.18921)" style="fill:#003915"/><rect x="182.40011" y="13.80298" width="1.04568" height="0.22931" style="fill:#003915"/><rect x="182.80801" y="13.3988" width="0.2308" height="1.03769" style="fill:#003915"/><path d="M297.15851,131.6073H296.621a.27984.27984,0,0,1-.2803-.27869v-.50513a.28025.28025,0,0,1,.2803-.27917h.53751v-.22882H296.621a.51036.51036,0,0,0-.51111.508v.50513a.50965.50965,0,0,0,.51111.50739h.53751Zm1.722-.27869a.27985.27985,0,0,1-.28009.27869h-.53711v.2287h.53711a.50919.50919,0,0,0,.5108-.50739v-.50513a.5099.5099,0,0,0-.5108-.508h-.53711v.22882h.53711a.28026.28026,0,0,1,.28009.27917Z" transform="translate(-114.6883 -122.18921)" style="fill:#003915"/><path d="M297.04309,130.3175v3.2012a.56767.56767,0,0,0,1.13531,0v-3.2012a.56767.56767,0,0,0-1.13531,0m.90512,3.2012a.33721.33721,0,0,1-.67441,0v-3.2012a.33721.33721,0,0,1,.67441,0Z" transform="translate(-114.6883 -122.18921)" style="fill:#003915"/><path d="M161.0708,140.83521h-11.7692V129.06628h11.7692Zm-11.5197-.24951h11.27049V129.31519H149.5511Z" transform="translate(-114.6883 -122.18921)" style="fill:#003915"/><path d="M155.1864,130.1644a3.91958,3.91958,0,0,0-.9817,7.7142.3.3,0,0,0-.0742.1976v.0405a4.16847,4.16847,0,1,1,2.11151.00031v-.0408a.2984.2984,0,0,0-.074-.1973,3.91975,3.91975,0,0,0-.9816-7.71451" transform="translate(-114.6883 -122.18921)" style="fill:#003915"/><path d="M155.1864,137.56509a3.48149,3.48149,0,1,1,3.4812-3.48178,3.48579,3.48579,0,0,1-3.4812,3.48178m0-6.71359a3.23195,3.23195,0,1,0,3.2317,3.23181A3.23549,3.23549,0,0,0,155.1864,130.8515Z" transform="translate(-114.6883 -122.18921)" style="fill:#003915"/><path d="M155.1864,134.9859a.9023.9023,0,1,1,.9025-.90259.90337.90337,0,0,1-.9025.90259m0-1.55569a.653.653,0,1,0,.65309.65311A.65424.65424,0,0,0,155.1864,133.43021Z" transform="translate(-114.6883 -122.18921)" style="fill:#003915"/><rect x="40.3733" y="11.23758" width="0.2495" height="1.3139" style="fill:#003915"/><rect x="39.8413" y="11.76968" width="1.31349" height="0.24969" style="fill:#003915"/><path d="M155.94009,138.89H154.4326a.42707.42707,0,0,1-.42661-.42661v-.38721a.42687.42687,0,0,1,.42661-.42661h1.50749a.42681.42681,0,0,1,.42661.42661v.38721a.427.427,0,0,1-.42661.42661m-1.50749-.991a.17765.17765,0,0,0-.1774.17722v.38721a.17745.17745,0,0,0,.1774.17719h1.50749a.17728.17728,0,0,0,.1772-.17719v-.38721a.17748.17748,0,0,0-.1772-.17722Z" transform="translate(-114.6883 -122.18921)" style="fill:#003915"/><path d="M154.9664,138.76529v.08652a.2197.2197,0,0,0,.43941,0v-.08652h.24969v.08652a.4694.4694,0,0,1-.9388,0v-.08652Zm.22-2.59a.22044.22044,0,0,0-.22.22052v1.37848h-.24969v-1.37848a.4694.4694,0,1,1,.9388,0v1.37848h-.24969v-1.37848A.22.22,0,0,0,155.1864,136.17529Z" transform="translate(-114.6883 -122.18921)" style="fill:#003915"/><path d="M132.406,140.35379h7.1566a1.49605,1.49605,0,0,0,1.49419-1.49469v-8.29871a1.496,1.496,0,0,0-1.49419-1.49411H132.406a1.49561,1.49561,0,0,0-1.49411,1.49411v8.29871a1.49565,1.49565,0,0,0,1.49411,1.49469m7.1566-11.0545a1.26267,1.26267,0,0,1,1.2612,1.26111v8.29871a1.26277,1.26277,0,0,1-1.2612,1.26169H132.406a1.26307,1.26307,0,0,1-1.2617-1.26169v-8.29871a1.263,1.263,0,0,1,1.2617-1.26111Z" transform="translate(-114.6883 -122.18921)" style="fill:#003915"/><path d="M132.406,139.53491h7.1566a.67617.67617,0,0,0,.6758-.67581v-7.01059a.67637.67637,0,0,0-.6758-.67581H132.406a.67647.67647,0,0,0-.6763.67581v7.01059a.67627.67627,0,0,0,.6763.67581m7.1566-8.12921a.44333.44333,0,0,1,.4431.44281v7.01059a.4435.4435,0,0,1-.4431.44308H132.406a.44387.44387,0,0,1-.44391-.44308v-7.01059a.4437.4437,0,0,1,.44391-.44281Z" transform="translate(-114.6883 -122.18921)" style="fill:#003915"/><path d="M138.8625,130.754a.4742.4742,0,1,0-.4742-.47421.47508.47508,0,0,0,.4742.47421m0-.71539a.2412.2412,0,1,1-.2415.24118A.24192.24192,0,0,1,138.8625,130.0386Z" transform="translate(-114.6883 -122.18921)" style="fill:#003915"/><path d="M137.2618,130.754a.4742.4742,0,1,0-.47479-.47421.475.475,0,0,0,.47479.47421m0-.71539a.2412.2412,0,1,1-.24179.24118A.24161.24161,0,0,1,137.2618,130.0386Z" transform="translate(-114.6883 -122.18921)" style="fill:#003915"/><rect x="21.90141" y="14.97058" width="2.7195" height="0.2327" style="fill:#003915"/><rect x="23.1446" y="13.72791" width="0.2328" height="2.71948" style="fill:#003915"/><path d="M137.9494,138.17319a.8969.8969,0,1,0-.8965-.89688.898.898,0,0,0,.8965.89688m0-1.5611a.66431.66431,0,1,1-.6638.66422A.6656.6656,0,0,1,137.9494,136.61209Z" transform="translate(-114.6883 -122.18921)" style="fill:#003915"/><rect x="21.90141" y="11.1257" width="2.7195" height="0.23239" style="fill:#003915"/><rect x="23.1446" y="9.88208" width="0.2328" height="2.7204" style="fill:#003915"/><path d="M137.9494,134.3288a.89716.89716,0,1,0-.8965-.8974.8986.8986,0,0,0,.8965.8974m0-1.56189a.66475.66475,0,1,1-.6638.66449A.66544.66544,0,0,1,137.9494,132.76691Z" transform="translate(-114.6883 -122.18921)" style="fill:#003915"/><rect x="17.9708" y="14.97058" width="2.7193" height="0.2327" style="fill:#003915"/><rect x="19.2136" y="13.72791" width="0.233" height="2.71948" style="fill:#003915"/><path d="M134.0184,138.17319a.8969.8969,0,1,0-.8969-.89688.89783.89783,0,0,0,.8969.89688m0-1.5611a.66431.66431,0,1,1-.66389.66422A.66609.66609,0,0,1,134.0184,136.61209Z" transform="translate(-114.6883 -122.18921)" style="fill:#003915"/><rect x="17.9708" y="11.1257" width="2.7193" height="0.23239" style="fill:#003915"/><rect x="19.2136" y="9.88208" width="0.233" height="2.7204" style="fill:#003915"/><path d="M134.0184,134.3288a.89716.89716,0,1,0-.8969-.8974.89845.89845,0,0,0,.8969.8974m0-1.56189a.66475.66475,0,1,1-.66389.66449A.66593.66593,0,0,1,134.0184,132.76691Z" transform="translate(-114.6883 -122.18921)" style="fill:#003915"/><path d="M134.5482,130.754a.4742.4742,0,1,0-.47461-.47421.47483.47483,0,0,0,.47461.47421m0-.71539a.2412.2412,0,1,1-.24181.24118A.24167.24167,0,0,1,134.5482,130.0386Z" transform="translate(-114.6883 -122.18921)" style="fill:#003915"/><path d="M132.94659,130.754a.4742.4742,0,1,0-.474-.47421.47463.47463,0,0,0,.474.47421m0-.71539a.2412.2412,0,1,1-.2415.24118A.24166.24166,0,0,1,132.94659,130.0386Z" transform="translate(-114.6883 -122.18921)" style="fill:#003915"/><path d="M250.0118,129.88071a.80921.80921,0,1,0,.23471.57089.80976.80976,0,0,0-.23471-.57089m-.5726-1.03641a1.60726,1.60726,0,1,1-1.1364.47061A1.60274,1.60274,0,0,1,249.43919,128.8443Z" transform="translate(-114.6883 -122.18921)" style="fill:#003915"/><path d="M203.8918,126.097a3.90785,3.90785,0,1,1-3.9075-3.90778,3.908,3.908,0,0,1,3.9075,3.90778" transform="translate(-114.6883 -122.18921)" style="fill:#558e42;fill-rule:evenodd"/><polygon points="85.296 6.312 85.674 4.997 86.052 3.682 85.296 3.682 84.539 3.682 84.917 4.997 85.296 6.312" style="fill:#fdfdfd;fill-rule:evenodd"/><rect x="85.09071" y="1.50369" width="0.38409" height="2.2814" style="fill:#fdfdfd"/><path d="M221.41451,235.1671c-.7319,0-1.2359-.618-1.2359-1.7399s.504-1.7399,1.2359-1.7399,1.2359.6179,1.2359,1.7399-.504,1.7399-1.2359,1.7399m0,.396c.972,0,1.67979-.798,1.67979-2.13589s-.70779-2.13589-1.67979-2.13589-1.6739.7979-1.6739,2.13589S220.4425,235.5631,221.41451,235.5631Zm-5.2079-4.23579v1.1698h.4261v-.786h2.16l-1.728,3.816h.468l1.758-3.894v-.3058Zm-.74971,3.5759a.31409.31409,0,0,0-.3181.324.30313.30313,0,0,0,.216.3058l-.2041.87h.288l.252-.828a.97639.97639,0,0,0,.0842-.34779A.314.314,0,0,0,215.45689,234.9032Zm-.84619-.864h-.8399v-.972h-.4198v.972h-1.8241l2.1481-2.7119h-.48021l-2.22569,2.78391v.3118h2.36971v1.1041h.432V234.423h.8399Zm-5.9938-2.7119v.3838h.9901v3.816h.432v-4.1998Z" transform="translate(-114.6883 -122.18921)" style="fill:#6e6e6e;fill-rule:evenodd"/><path d="M283.52689,235.1671c-.73187,0-1.2359-.618-1.2359-1.7399s.504-1.7399,1.2359-1.7399,1.2359.6179,1.2359,1.7399-.504,1.7399-1.2359,1.7399m0,.396c.972,0,1.67981-.798,1.67981-2.13589s-.70779-2.13589-1.67981-2.13589-1.6738.7979-1.6738,2.13589S282.5549,235.5631,283.52689,235.5631Zm-3.63-2.43579,1.188-1.4942v-.3058h-2.7v.3838h2.1481l-1.16388,1.4581v.3181h.2999c.77979,0,1.13379.32989,1.13379.83389,0,.5219-.38379.8459-1.08.8459a1.8411,1.8411,0,0,1-1.30191-.4859l-.21011.3419a2.18521,2.18521,0,0,0,1.512.54c1.014,0,1.5239-.54,1.5239-1.2419C281.2467,233.64909,280.79691,233.1752,279.89691,233.1273Zm-2.4299,1.77589a.314.314,0,0,0-.318.324.303.303,0,0,0,.216.3058l-.2041.87h.288l.252-.828a.97639.97639,0,0,0,.0842-.34779A.314.314,0,0,0,277.467,234.9032Zm-2.622-1.8542h-.54l.144-1.33789h1.91989v-.3838h-2.29779l-.216,2.1058h.8941c1.06778,0,1.40369.33589,1.40369.8759,0,.51-.3779.85809-1.09189.85809a1.82143,1.82143,0,0,1-1.2901-.4859l-.20972.3419a2.16865,2.16865,0,0,0,1.50571.54c1.02621,0,1.5239-.55789,1.5239-1.2719C276.59079,233.5471,276.1109,233.049,274.845,233.049Zm-3.528-1.72169v.3838h.99011v3.816h.432v-4.1998Z" transform="translate(-114.6883 -122.18921)" style="fill:#6e6e6e;fill-rule:evenodd"/><path d="M153.1942,155.54581c-.7319,0-1.2359-.61792-1.2359-1.7399s.504-1.7399,1.2359-1.7399,1.2359.618,1.2359,1.7399-.504,1.7399-1.2359,1.7399m0,.396c.972,0,1.67979-.79791,1.67979-2.13589S154.1662,151.67,153.1942,151.67s-1.6739.798-1.6739,2.13589S152.2222,155.9418,153.1942,155.9418Zm-4.0981-4.23581v.38382h.9902v3.816h.432V151.706Zm-.61169,3.5759a.31408.31408,0,0,0-.318.324.30313.30313,0,0,0,.216.30591l-.2041.87h.288l.252-.828a.97677.97677,0,0,0,.0842-.3479A.31405.31405,0,0,0,148.48441,155.28189Zm-2.622-1.8541h-.54l.144-1.338h1.91991V151.706H145.0885l-.216,2.1059h.8941c1.06779,0,1.4037.33591,1.4037.87592,0,.51-.3779.858-1.0919.858a1.82142,1.82142,0,0,1-1.2901-.48581l-.2097.3418a2.16806,2.16806,0,0,0,1.50571.54c1.0262,0,1.5239-.5578,1.5239-1.27191C147.6082,153.92581,147.1283,153.4278,145.8624,153.4278Z" transform="translate(-114.6883 -122.18921)" style="fill:#6e6e6e;fill-rule:evenodd"/><path d="M156.9801,244.5461c-.7319,0-1.2359-.618-1.2359-1.7399s.504-1.7399,1.2359-1.7399,1.2359.6179,1.2359,1.7399-.504,1.7399-1.2359,1.7399m0,.396c.972,0,1.67979-.798,1.67979-2.13589s-.70779-2.13589-1.67979-2.13589-1.6738.7979-1.6738,2.13589S156.0081,244.94209,156.9801,244.94209Zm-3.9659-2.5141h-.54l.144-1.33789h1.91991v-.3838H152.2403l-.216,2.1058h.89409c1.06781,0,1.4037.33589,1.4037.8759,0,.51-.3779.85809-1.0919.85809a1.82146,1.82146,0,0,1-1.2901-.4859l-.2097.3419a2.16862,2.16862,0,0,0,1.50571.54c1.0262,0,1.5239-.55789,1.5239-1.2719C154.76,242.9261,154.28011,242.428,153.01421,242.428Zm-2.04581,1.8542a.314.314,0,0,0-.318.324.303.303,0,0,0,.216.3058l-.2041.87h.288l.252-.828a.976.976,0,0,0,.0842-.34779A.314.314,0,0,0,150.9684,244.2822Zm-2.34.2939c-.72591,0-1.11-.4379-1.11-.9a.97206.97206,0,0,1,1.08-.9178c.648,0,1.05589.3537,1.05589.9059A.91884.91884,0,0,1,148.6284,244.5761Zm.036-2.1841a1.34289,1.34289,0,0,0-1.2841.72c-.0119-.12579-.01779-.2457-.01779-.3418,0-1.14011.58189-1.72211,1.4879-1.72211a1.47067,1.47067,0,0,1,.8158.1982l.174-.3481a1.927,1.927,0,0,0-.99579-.22789c-1.14011,0-1.91991.74379-1.91991,2.17189,0,1.326.6058,2.0999,1.7218,2.0999a1.30852,1.30852,0,0,0,1.434-1.2901A1.27162,1.27162,0,0,0,148.6644,242.392Zm-4.16409-1.6857v.3838h.99019v3.816h.432v-4.1998Z" transform="translate(-114.6883 -122.18921)" style="fill:#6e6e6e;fill-rule:evenodd"/><path d="M206.4929,148.79568c-.7319,0-1.2359-.61789-1.2359-1.7399s.504-1.7399,1.2359-1.7399,1.2359.61792,1.2359,1.7399-.504,1.7399-1.2359,1.7399m0,.396c.972,0,1.67979-.79791,1.67979-2.13593s-.70779-2.13589-1.67979-2.13589-1.6739.79791-1.6739,2.13589S205.5209,149.19171,206.4929,149.19171Zm-2.07021-1.52393h-.8399v-.972h-.4198v.972h-1.8241l2.1481-2.71188h-.48019l-2.22571,2.78391v.3118h2.36971v1.1041h.432v-1.1041h.8399Zm-4.43359.864a.31408.31408,0,0,0-.3181.324.30326.30326,0,0,0,.216.30591l-.20409.86987h.288l.252-.828a.97619.97619,0,0,0,.0842-.34781A.314.314,0,0,0,199.98911,148.5318Zm-2.28621-1.77591,1.188-1.49408v-.30591h-2.7v.38379h2.1481l-1.16391,1.4581v.31812h.29991c.7798,0,1.1339.32989,1.1339.83389,0,.52191-.3838.84589-1.08.84589a1.84129,1.84129,0,0,1-1.302-.48587l-.21.34189a2.18451,2.18451,0,0,0,1.512.54c1.0139,0,1.5239-.54,1.5239-1.24191C199.0528,147.2778,198.60291,146.8038,197.7029,146.75589Z" transform="translate(-114.6883 -122.18921)" style="fill:#6e6e6e;fill-rule:evenodd"/><path d="M247.20261,187.7959c-.7319,0-1.2359-.618-1.2359-1.7399s.504-1.7399,1.2359-1.7399,1.236.6179,1.236,1.7399-.504,1.7399-1.236,1.7399m0,.396c.972,0,1.6799-.798,1.6799-2.13589s-.7079-2.13589-1.6799-2.13589-1.67381.7979-1.67381,2.13589S246.23061,188.19189,247.20261,188.19189Zm-3.96591-2.5141h-.54l.144-1.33789h1.91991v-.3838H242.4628l-.216,2.1058h.8941c1.06779,0,1.4037.33589,1.4037.8759,0,.51-.3779.85809-1.0919.85809a1.82146,1.82146,0,0,1-1.2901-.4859l-.2097.3419a2.16862,2.16862,0,0,0,1.50571.54c1.0262,0,1.524-.55789,1.524-1.2719C244.98261,186.1759,244.50259,185.6778,243.23669,185.6778Zm-2.04579,1.8542a.314.314,0,0,0-.318.324.303.303,0,0,0,.216.3058l-.2041.87h.288l.252-.828a.97639.97639,0,0,0,.0842-.34779A.314.314,0,0,0,241.1909,187.532Zm-2.2861-1.77589,1.188-1.4942v-.3058h-2.7v.3838h2.14809L238.377,185.798v.3181h.2999c.7798,0,1.1338.32989,1.1338.83389,0,.5219-.3838.8459-1.08.8459a1.841,1.841,0,0,1-1.3019-.4859l-.2101.3419a2.18512,2.18512,0,0,0,1.512.54c1.014,0,1.5239-.54,1.5239-1.2419C240.25459,186.27789,239.80479,185.804,238.9048,185.7561Z" transform="translate(-114.6883 -122.18921)" style="fill:#6e6e6e;fill-rule:evenodd"/><path d="M230.2764,154.31729c-.7319,0-1.2359-.61789-1.2359-1.7399s.504-1.7399,1.2359-1.7399,1.2359.618,1.2359,1.7399-.504,1.7399-1.2359,1.7399m0,.396c.972,0,1.67981-.79788,1.67981-2.13589s-.70781-2.13589-1.67981-2.13589-1.6738.798-1.6738,2.13589S229.3044,154.71329,230.2764,154.71329Zm-3.62379-.36588c-.726,0-1.11-.438-1.11-.9a.97207.97207,0,0,1,1.08-.91788c.648,0,1.05589.35379,1.05589.906A.919.919,0,0,1,226.6526,154.34741Zm.036-2.18411a1.34264,1.34264,0,0,0-1.2841.72c-.0119-.12592-.0179-.24579-.0179-.34189,0-1.14011.582-1.722,1.488-1.722a1.47123,1.47123,0,0,1,.8158.19809l.174-.34808a1.927,1.927,0,0,0-.99579-.22791c-1.14011,0-1.91991.7438-1.91991,2.17191,0,1.32611.6058,2.09988,1.7218,2.09988a1.3085,1.3085,0,0,0,1.434-1.29A1.27162,1.27162,0,0,0,226.6886,152.1633Zm-2.6158,1.89011a.31414.31414,0,0,0-.3181.324.30321.30321,0,0,0,.216.30588l-.2041.8699h.288l.252-.828a.9755.9755,0,0,0,.0842-.34778A.314.314,0,0,0,224.0728,154.05341Zm-3.24.23981,1.4281-1.40372a1.72893,1.72893,0,0,0,.68991-1.31409c0-.7019-.54-1.13391-1.39211-1.13391a1.88745,1.88745,0,0,0-1.4879.59979l.30589.26422a1.42627,1.42627,0,0,1,1.146-.468c.64209,0,.9839.2999.9839.786,0,.28778-.08981.56979-.56381,1.03778l-1.74609,1.71021v.30582h2.946v-.38409Z" transform="translate(-114.6883 -122.18921)" style="fill:#6e6e6e;fill-rule:evenodd"/><path d="M277.1127,154.31729c-.7319,0-1.2359-.61789-1.2359-1.7399s.504-1.7399,1.2359-1.7399,1.2359.618,1.2359,1.7399-.504,1.7399-1.2359,1.7399m0,.396c.972,0,1.67981-.79788,1.67981-2.13589s-.70782-2.13589-1.67981-2.13589-1.67389.798-1.67389,2.13589S276.14069,154.71329,277.1127,154.71329Zm-3.966-2.514h-.54l.144-1.338h1.91989v-.38379h-2.2977l-.216,2.1059h.894c1.06781,0,1.40369.33591,1.40369.87589,0,.50992-.37778.858-1.09189.858a1.82151,1.82151,0,0,1-1.29-.48578l-.20978.3418a2.16818,2.16818,0,0,0,1.5058.54c1.02609,0,1.5239-.5578,1.5239-1.27188C274.89261,152.6973,274.41269,152.19931,273.1467,152.19931Zm-2.04568,1.8541a.31414.31414,0,0,0-.31812.324.30321.30321,0,0,0,.216.30588l-.2041.8699h.288l.252-.828a.97583.97583,0,0,0,.0842-.34778A.314.314,0,0,0,271.101,154.05341Zm-2.6221-1.8541h-.54l.144-1.338h1.91992v-.38379h-2.2977l-.216,2.1059h.894c1.06781,0,1.40372.33591,1.40372.87589,0,.50992-.37781.858-1.09192.858a1.82143,1.82143,0,0,1-1.29-.48578l-.20981.3418a2.16824,2.16824,0,0,0,1.5058.54c1.02609,0,1.5239-.5578,1.5239-1.27188C270.22479,152.6973,269.7449,152.19931,268.47891,152.19931Z" transform="translate(-114.6883 -122.18921)" style="fill:#6e6e6e;fill-rule:evenodd"/><path d="M155.0923,286.16721c-.732,0-1.236-.618-1.236-1.73991s.504-1.7399,1.236-1.7399,1.2359.6179,1.2359,1.7399-.504,1.73991-1.2359,1.73991m0,.396c.972,0,1.67979-.798,1.67979-2.13591s-.70779-2.13589-1.67979-2.13589-1.6739.7979-1.6739,2.13589S154.1203,286.5632,155.0923,286.5632Zm-4.5-.42011,1.428-1.4037a1.72883,1.72883,0,0,0,.69-1.31419c0-.7018-.54-1.1338-1.39209-1.1338a1.88736,1.88736,0,0,0-1.4879.59981l.30589.26419a1.426,1.426,0,0,1,1.146-.468c.64211,0,.9839.29991.9839.786,0,.28769-.0898.56979-.5638,1.0378l-1.74609,1.7101v.30591h2.946v-.38411Zm-1.56-.23979a.314.314,0,0,0-.318.324.30312.30312,0,0,0,.216.3058l-.2041.87h.288l.252-.828a.97638.97638,0,0,0,.0842-.34781A.314.314,0,0,0,149.0323,285.90331Zm-2.2861-1.77591,1.188-1.4942v-.3058h-2.7v.3838h2.14809l-1.16389,1.4581v.3181h.2999c.7798,0,1.13391.32991,1.13391.83391,0,.5219-.38391.8459-1.08.8459a1.84111,1.84111,0,0,1-1.302-.4859l-.21.34189a2.18494,2.18494,0,0,0,1.512.54c1.0139,0,1.5239-.54,1.5239-1.2419C148.0961,284.6492,147.64619,284.17529,146.7462,284.1274Z" transform="translate(-114.6883 -122.18921)" style="fill:#6e6e6e;fill-rule:evenodd"/><path d="M278.7287,292.4921c-.434,0-.68939-.1891-.68939-.4935,0-.301.2554-.4901.68939-.4901s.69312.1891.69312.4901c0,.3044-.25912.4935-.69312.4935m-.6055-1.624c0-.2729.2348-.441.6055-.441.36771,0,.60919.16811.60919.44441,0,.26619-.2276.4377-.60919.4377C278.3475,291.3092,278.1232,291.1377,278.1232,290.8681Zm1.07809.53209a.55492.55492,0,0,0,.392-.53909c0-.3989-.34641-.64751-.86459-.64751-.51791,0-.85751.24861-.85751.64751a.55307.55307,0,0,0,.38531.53909.61092.61092,0,0,0-.4726.60181c0,.434.3569.7036.94479.7036.5845,0,.95221-.26959.95221-.7036A.61689.61689,0,0,0,279.20129,291.40019Zm-2.70538,1.0919c-.434,0-.68942-.1891-.68942-.4935,0-.301.2554-.4901.68942-.4901s.693.1891.693.4901C277.1889,292.303,276.9299,292.4921,276.49591,292.4921Zm-.6055-1.624c0-.2729.23468-.441.6055-.441.36758,0,.6091.16811.6091.44441,0,.26619-.2276.4377-.6091.4377C276.11459,291.3092,275.89041,291.1377,275.89041,290.8681Zm1.078.53209a.555.555,0,0,0,.392-.53909c0-.3989-.34641-.64751-.8645-.64751-.51791,0-.85751.24861-.85751.64751a.553.553,0,0,0,.38519.53909.611.611,0,0,0-.4725.60181c0,.434.3569.7036.94482.7036.5845,0,.95209-.26959.95209-.7036A.61689.61689,0,0,0,276.96841,291.40019Zm-1.98791.92041a.18317.18317,0,0,0-.18539.1891.1767.1767,0,0,0,.12579.1783l-.119.50769H274.97l.14709-.48309a.57265.57265,0,0,0,.049-.2029A.1832.1832,0,0,0,274.9805,292.3206Zm-1.8902.14.8331-.81891a1.00775,1.00775,0,0,0,.40259-.76649c0-.40959-.315-.66161-.81219-.66161a1.10107,1.10107,0,0,0-.86789.35011l.1785.1539a.83219.83219,0,0,1,.66849-.273c.37442,0,.574.17491.574.4584,0,.16811-.05249.3325-.32889.6055l-1.0184.9975v.1786h1.71829v-.224Z" transform="translate(-114.6883 -122.18921)" style="fill:#434242"/><path d="M215.28909,292.4745c-.4269,0-.72119-.3605-.72119-1.0148,0-.6545.2943-1.01511.72119-1.01511s.72081.36061.72081,1.01511c0,.6543-.2939,1.0148-.72081,1.0148m0,.23109c.56691,0,.9799-.4655.9799-1.2459,0-.78061-.413-1.24611-.9799-1.24611s-.97659.4655-.97659,1.24611C214.3125,292.2401,214.72211,292.7056,215.28909,292.7056ZM212.972,291.4875c-.37781,0-.61591-.2063-.61591-.5284a.53628.53628,0,0,1,.5986-.532c.42351,0,.64751.25571.64751.5249A.5671.5671,0,0,1,212.972,291.4875Zm-.02769-1.27391a.76328.76328,0,0,0-.83661.75261.74169.74169,0,0,0,.82611.7348.78274.78274,0,0,0,.74889-.4198c.00711.07339.01051.1434.01051.19949,0,.665-.3396,1.0043-.868,1.0043a.85882.85882,0,0,1-.47589-.1153l-.1015.2029a1.124,1.124,0,0,0,.5808.133c.665,0,1.12-.434,1.12-1.26711C213.94859,290.66521,213.59509,290.21359,212.94431,290.21359Zm-1.31281,2.107a.18316.18316,0,0,0-.18539.1891.17677.17677,0,0,0,.1259.1783l-.11911.50769h.16811l.1472-.48309a.57528.57528,0,0,0,.049-.2029A.18321.18321,0,0,0,211.6315,292.3206Zm-1.89011.14.8331-.81891a1.00761,1.00761,0,0,0,.40251-.76649c0-.40959-.31491-.66161-.8121-.66161a1.10129,1.10129,0,0,0-.868.35011l.17859.1539a.832.832,0,0,1,.66841-.273c.3745,0,.574.17491.574.4584,0,.16811-.0524.3325-.3288.6055l-1.01849.9975v.1786h1.7184v-.224Z" transform="translate(-114.6883 -122.18921)" style="fill:#434242"/><path d="M152.1201,294.58611l.8331-.819a1.00762,1.00762,0,0,0,.4025-.76651c0-.40959-.3149-.66159-.8121-.66159a1.10106,1.10106,0,0,0-.86789.3501l.1785.1539a.83237.83237,0,0,1,.6684-.2729c.3745,0,.5741.1749.5741.4583,0,.16811-.05249.3325-.32889.6055l-1.0184.9975v.1786h1.71829v-.22389Zm-1.6273.03139c-.434,0-.68939-.189-.68939-.4935,0-.301.2554-.4901.68939-.4901s.693.1891.693.4901C151.18581,294.4285,150.9267,294.61749,150.4928,294.61749Zm-.6055-1.62389c0-.273.2347-.4411.6055-.4411.3676,0,.6091.16809.6091.44449,0,.2661-.2276.43761-.6091.43761C150.1115,293.4346,149.8873,293.26309,149.8873,292.99361Zm1.078.532a.55487.55487,0,0,0,.392-.53911c0-.3989-.34641-.64749-.8645-.64749-.5179,0-.8575.2486-.8575.64749a.55289.55289,0,0,0,.38519.53911.611.611,0,0,0-.47249.60179c0,.434.3569.7036.94479.7036.5845,0,.9521-.26959.9521-.7036A.61694.61694,0,0,0,150.9653,293.5256Zm-1.9879.92039a.18317.18317,0,0,0-.18539.1891.17668.17668,0,0,0,.12579.1783l-.119.50771h.16811l.14709-.483a.57378.57378,0,0,0,.049-.203A.18318.18318,0,0,0,148.9774,294.446Zm-1.8902.14011.8331-.819a1.00762,1.00762,0,0,0,.4025-.76651c0-.40959-.3149-.66159-.8121-.66159a1.10145,1.10145,0,0,0-.868.3501l.1786.1539a.83237.83237,0,0,1,.6684-.2729c.3745,0,.574.1749.574.4583,0,.16811-.0524.3325-.32881.6055l-1.01849.9975v.1786h1.7184v-.22389Z" transform="translate(-114.6883 -122.18921)" style="fill:#434242"/><path d="M278.104,167.5545c-.434,0-.68939-.189-.68939-.4935,0-.301.2554-.49011.68939-.49011s.693.18912.693.49011c0,.3045-.259.4935-.693.4935m-.6055-1.6239c0-.273.23468-.4411.6055-.4411.36758,0,.6091.16809.6091.44449,0,.26611-.2276.43762-.6091.43762C277.72269,166.37161,277.4985,166.2001,277.4985,165.9306Zm1.078.532a.55477.55477,0,0,0,.392-.53909c0-.3989-.34641-.64749-.8645-.64749-.51791,0-.85751.2486-.85751.64749a.55277.55277,0,0,0,.38522.53909.611.611,0,0,0-.4725.60181c0,.434.3569.70361.94479.70361.5845,0,.95209-.26959.95209-.70361A.617.617,0,0,0,278.57651,166.46259Zm-2.70541,1.09192c-.434,0-.68939-.189-.68939-.4935,0-.301.2554-.49011.68939-.49011s.69312.18912.69312.49011C276.56421,167.36551,276.30511,167.5545,275.87109,167.5545Zm-.6055-1.6239c0-.273.23471-.4411.6055-.4411.36771,0,.60919.16809.60919.44449,0,.26611-.2276.43762-.60919.43762C275.4899,166.37161,275.26559,166.2001,275.26559,165.9306Zm1.07809.532a.55474.55474,0,0,0,.392-.53909c0-.3989-.34637-.64749-.86459-.64749-.51788,0-.85748.2486-.85748.64749a.55286.55286,0,0,0,.38528.53909.611.611,0,0,0-.4726.60181c0,.434.3569.70361.94479.70361.5845,0,.95221-.26959.95221-.70361A.617.617,0,0,0,276.34369,166.46259Zm-1.988.92041a.18319.18319,0,0,0-.18542.18912.17678.17678,0,0,0,.12592.17828l-.11911.50769h.16812l.14709-.483a.57464.57464,0,0,0,.0491-.203A.18322.18322,0,0,0,274.35571,167.383Zm-1.89011.14011.8331-.819a1.00758,1.00758,0,0,0,.4025-.76639c0-.40973-.31491-.66171-.8121-.66171a1.10133,1.10133,0,0,0-.868.3501l.17862.1539a.83221.83221,0,0,1,.6684-.27289c.37451,0,.574.1749.574.45828,0,.16812-.0524.33252-.3288.6055l-1.01852.9975v.17862h1.71841v-.22391Z" transform="translate(-114.6883 -122.18921)" style="fill:#434242"/><path d="M231.7901,145.9744c-.4269,0-.7211-.3606-.7211-1.0148,0-.65451.2942-1.01511.7211-1.01511s.7209.3606.7209,1.01511c0,.65421-.294,1.0148-.7209,1.0148m0,.231c.56689,0,.9799-.46542.9799-1.24582,0-.7807-.413-1.24609-.9799-1.24609s-.9765.46539-.9765,1.24609C230.8136,145.74,231.22321,146.20541,231.7901,146.20541Zm-1.20731-.88892h-.4901v-.567h-.2449v.567h-1.06409l1.2529-1.58209h-.2798l-1.29851,1.624v.182h1.3824v.644h.252v-.644h.4901Zm-2.58659.504a.18314.18314,0,0,0-.18539.189.17669.17669,0,0,0,.1259.17831l-.11911.50769h.16811l.1472-.483a.57559.57559,0,0,0,.049-.203A.18318.18318,0,0,0,227.9962,145.8205Zm-1.6064-2.08609v.224h.57739v2.226h.252v-2.45Z" transform="translate(-114.6883 -122.18921)" style="fill:#434242"/><path d="M200.2411,136.21069l.8331-.81891a1.00768,1.00768,0,0,0,.4025-.76648c0-.40961-.3149-.66159-.8121-.66159a1.101,1.101,0,0,0-.868.3501l.1786.1539a.83193.83193,0,0,1,.6684-.273c.3744,0,.574.1749.574.4584,0,.16809-.0524.33249-.32881.6055l-1.01849.9975v.17859h1.7184v-.224Zm-2.4568-2.226v.68259h.2486v-.45871h1.26l-1.008,2.2261h.273l1.02519-2.27139v-.17859Zm-.43741,2.086a.18317.18317,0,0,0-.18539.18909.17678.17678,0,0,0,.1259.17831l-.11909.50769h.16809l.14711-.48309a.574.574,0,0,0,.04909-.20291A.1832.1832,0,0,0,197.34689,136.07071Zm-1.6064-2.086v.22388h.57741v2.2261h.252v-2.45Z" transform="translate(-114.6883 -122.18921)" style="fill:#434242"/><path d="M150.84,144.56671h-.4901v-.56692h-.2449v.56692h-1.0641l1.2529-1.582H150.014l-1.29861,1.6239v.182h1.38251v.6441h.252v-.6441h.4901Zm-2.3134,0h-.4901v-.56692h-.2449v.56692h-1.0641l1.2529-1.582h-.27979l-1.29851,1.6239v.182h1.3824v.6441h.252v-.6441h.4901Zm-2.58659.504a.18318.18318,0,0,0-.18541.18909.17678.17678,0,0,0,.1259.17831l-.11909.50769h.16811l.1472-.48309a.57577.57577,0,0,0,.049-.20291A.1832.1832,0,0,0,145.94,145.07071Zm-1.89011.14.8331-.81891a1.00771,1.00771,0,0,0,.40251-.76648c0-.40961-.31491-.66159-.8121-.66159a1.101,1.101,0,0,0-.868.3501l.1786.1539a.832.832,0,0,1,.6684-.273c.37451,0,.574.1749.574.4584,0,.16809-.0524.33249-.3288.6055l-1.01851.9975v.17859h1.71841v-.224Z" transform="translate(-114.6883 -122.18921)" style="fill:#434242"/><path d="M149.7742,260.7424c-.42351,0-.64771-.2554-.64771-.525a.56724.56724,0,0,1,.63011-.53549c.3779,0,.616.20641.616.5284a.53613.53613,0,0,1-.5984.5321m.0209-1.2739a.78337.78337,0,0,0-.7491.4198c-.00691-.07341-.0105-.1434-.0105-.1996,0-.6647.3396-1.0043.86789-1.0043a.861.861,0,0,1,.4763.1154l.10139-.203a1.12545,1.12545,0,0,0-.5811-.1329c-.665,0-1.11989.434-1.11989,1.26711,0,.7733.35339,1.22479,1.00459,1.22479a.76333.76333,0,0,0,.8365-.75259A.74177.74177,0,0,0,149.79511,259.46851Zm-2.3555.26929c-.3779,0-.616-.20639-.616-.5284a.53639.53639,0,0,1,.59871-.5321c.42349,0,.6474.25571.6474.525A.56706.56706,0,0,1,147.43961,259.73779Zm-.0278-1.2739a.76317.76317,0,0,0-.8365.75261.74153.74153,0,0,0,.826.7347.78262.78262,0,0,0,.7489-.4198c.0071.07339.0105.14349.0105.1996,0,.665-.3396,1.0043-.868,1.0043a.85884.85884,0,0,1-.47589-.1154l-.1015.203a1.124,1.124,0,0,0,.5808.13289c.665,0,1.12-.434,1.12-1.26709C148.41611,258.9155,148.06261,258.4639,147.4118,258.4639Zm-1.3127,2.107a.18318.18318,0,0,0-.18541.1891.17675.17675,0,0,0,.12581.1783l-.119.5076h.16809l.14711-.483a.57339.57339,0,0,0,.049-.20291A.18319.18319,0,0,0,146.09911,260.57089Zm-1.89021.14.83311-.81891a1.0078,1.0078,0,0,0,.4025-.76649c0-.40961-.31491-.66161-.8121-.66161a1.10113,1.10113,0,0,0-.868.3501l.17859.1539a.83219.83219,0,0,1,.66841-.273c.3745,0,.574.1749.574.4584,0,.16809-.0524.33249-.3288.6055l-1.01849.9975v.1786h1.7184v-.224Z" transform="translate(-114.6883 -122.18921)" style="fill:#434242"/><line x1="156.84328" y1="169.33539" x2="132.7111" y2="169.33539" style="fill:none;stroke:#b1b2b2;stroke-miterlimit:22.92558479309082;stroke-width:0.2160000056028366px"/><line x1="93.46819" y1="169.33539" x2="72.4224" y2="169.33539" style="fill:none;stroke:#b1b2b2;stroke-miterlimit:22.92558479309082;stroke-width:0.2160000056028366px"/><line x1="30.7177" y1="171.46089" x2="8.1601" y2="171.46089" style="fill:none;stroke:#b1b2b2;stroke-miterlimit:22.92558479309082;stroke-width:0.2160000056028366px"/><line x1="156.2185" y1="44.39789" x2="133.0983" y2="44.39789" style="fill:none;stroke:#b1b2b2;stroke-miterlimit:22.92558479309082;stroke-width:0.2160000056028366px"/><line x1="110.28111" y1="22.8353" x2="103.5326" y2="22.8353" style="fill:none;stroke:#b1b2b2;stroke-miterlimit:22.92558479309082;stroke-width:0.2160000056028366px"/><line x1="79.3429" y1="13.08548" x2="66.231" y2="13.08548" style="fill:none;stroke:#b1b2b2;stroke-miterlimit:22.92558479309082;stroke-width:0.2160000056028366px"/><line x1="27.8431" y1="22.08548" x2="5.0021" y2="22.08548" style="fill:none;stroke:#b1b2b2;stroke-miterlimit:22.92558479309082;stroke-width:0.2160000056028366px"/><line x1="27.8431" y1="137.58569" x2="5.0021" y2="137.58569" style="fill:none;stroke:#b1b2b2;stroke-miterlimit:22.92558479309082;stroke-width:0.2160000056028366px"/><line x1="190.53249" y1="169.33539" x2="166.28231" y2="169.33539" style="fill:none;stroke:#b1b2b2;stroke-miterlimit:22.92558479309082;stroke-width:0.2160000056028366px"/><line x1="130.10889" y1="169.33539" x2="102.9073" y2="169.33539" style="fill:none;stroke:#b1b2b2;stroke-miterlimit:22.92558479309082;stroke-width:0.2160000056028366px"/><line x1="64.26231" y1="171.46089" x2="40.15679" y2="171.46089" style="fill:none;stroke:#b1b2b2;stroke-miterlimit:22.92558479309082;stroke-width:0.2160000056028366px"/><line x1="190.53249" y1="44.39789" x2="165.65759" y2="44.39789" style="fill:none;stroke:#b1b2b2;stroke-miterlimit:22.92558479309082;stroke-width:0.2160000056028366px"/><line x1="130.10889" y1="22.8353" x2="119.72019" y2="22.8353" style="fill:none;stroke:#b1b2b2;stroke-miterlimit:22.92558479309082;stroke-width:0.2160000056028366px"/><line x1="100.6898" y1="13.08548" x2="88.78201" y2="13.08548" style="fill:none;stroke:#b1b2b2;stroke-miterlimit:22.92558479309082;stroke-width:0.2160000056028366px"/><line x1="54.2481" y1="22.08548" x2="37.2822" y2="22.08548" style="fill:none;stroke:#b1b2b2;stroke-miterlimit:22.92558479309082;stroke-width:0.2160000056028366px"/><line x1="64.26231" y1="137.58569" x2="37.2822" y2="137.58569" style="fill:none;stroke:#b1b2b2;stroke-miterlimit:22.92558479309082;stroke-width:0.2160000056028366px"/><path d="M259.74741,154.61719H260.43v-.2486h-.45868v-1.26l2.22607,1.008v-.273l-2.27139-1.0253h-.17859Zm2.2399,1.2424c0,.42691-.3606.72122-1.0148.72122-.65451,0-1.01511-.29431-1.01511-.72122s.3606-.72079,1.01511-.72079C261.62671,155.13879,261.9873,155.43271,261.9873,155.85959Zm.231,0c0-.56689-.46539-.97989-1.24579-.97989-.7807,0-1.24609.413-1.24609.97989s.46539.97662,1.24609.97662C261.7529,156.83621,262.21829,156.42661,262.21829,155.85959Zm-.38489,1.4877a.18315.18315,0,0,0,.18909.1853.17677.17677,0,0,0,.17831-.12579l.5076.119v-.168l-.483-.14719a.57587.57587,0,0,0-.20291-.049A.18321.18321,0,0,0,261.8334,157.34729Zm.14,1.89011-.81888-.8331a1.00777,1.00777,0,0,0-.76651-.4025c-.40961,0-.66159.31491-.66159.8121a1.101,1.101,0,0,0,.3501.868l.1539-.17859a.832.832,0,0,1-.273-.6684c0-.37451.1749-.574.4584-.574.16809,0,.33249.0524.6055.3288l.9975,1.01849h.17859V157.8898h-.224Z" transform="translate(-114.6883 -122.18921)" style="fill:#434242"/><path d="M218.8616,181.825c0,.4269-.3606.7211-1.0148.7211-.6545,0-1.01511-.2942-1.01511-.7211s.36061-.7209,1.01511-.7209c.65421,0,1.0148.294,1.0148.7209m.231,0c0-.56689-.4655-.9799-1.2458-.9799-.7807,0-1.24611.413-1.24611.9799s.46541.9765,1.24611.9765C218.62711,182.8015,219.09261,182.39191,219.09261,181.825Zm-.2449,2.6252-.81891-.8331a1.008,1.008,0,0,0-.76649-.4026c-.40959,0-.66161.315-.66161.81221a1.10106,1.10106,0,0,0,.35.86789l.154-.17859a.832.832,0,0,1-.273-.66841c0-.37439.17491-.574.4583-.574.16811,0,.33261.05249.6055.3288l.99751,1.01849h.17859V183.1026h-.22389Zm-.14.9099a.18314.18314,0,0,0,.189.18541.17676.17676,0,0,0,.1783-.1259l.50771.11909v-.16809l-.483-.14711a.57393.57393,0,0,0-.203-.0491A.18318.18318,0,0,0,218.7077,185.36009Zm-2.08611,1.60641h.224v-.57741h2.226v-.252h-2.45Z" transform="translate(-114.6883 -122.18921)" style="fill:#434242"/><path d="M251.50079,243.92529v.31491l-.78059-.08391v-1.12h-.224v1.3405l1.22859.1259v-.5213c0-.62309.1958-.8192.511-.8192.29741,0,.50041.2205.50041.63719a1.06142,1.06142,0,0,1-.28351.7523l.1996.1225a1.26491,1.26491,0,0,0,.3149-.87849c0-.5984-.32539-.8889-.74179-.8889-.4343,0-.72461.28011-.72461,1.01849m1.2529,1.946c0,.43391-.189.6893-.4935.6893-.301,0-.4901-.25539-.4901-.6893s.1891-.6931.4901-.6931C252.5647,245.17819,252.75369,245.4373,252.75369,245.87129Zm-1.62389.60541c-.273,0-.4411-.2347-.4411-.60541,0-.36769.16809-.60919.44449-.60919.26611,0,.43761.2276.43761.60919C251.5708,246.2525,251.39931,246.4767,251.12981,246.4767Zm.532-1.078a.55487.55487,0,0,0-.53911-.392c-.3989,0-.64749.34641-.64749.86459,0,.51791.2486.85741.64749.85741a.55289.55289,0,0,0,.53911-.38519.611.611,0,0,0,.60179.47249c.434,0,.7036-.3568.7036-.9447,0-.58449-.26959-.95219-.7036-.95219A.617.617,0,0,0,251.6618,245.3987Zm.92039,1.988a.18316.18316,0,0,0,.1891.1853.17669.17669,0,0,0,.1783-.12581l.50771.119v-.168l-.483-.1472a.57583.57583,0,0,0-.203-.049A.18322.18322,0,0,0,252.5822,247.3867Zm-.504.49319v.4901h-.56689v.2449h.56689v1.0641l-1.582-1.2529v.2798l1.624,1.2986h.182V248.622h.644v-.252h-.644v-.4901Z" transform="translate(-114.6883 -122.18921)" style="fill:#434242"/><path d="M302.15961,244.3542l-.81891-.8331a1.00793,1.00793,0,0,0-.76651-.4026c-.40958,0-.66159.315-.66159.81219a1.10077,1.10077,0,0,0,.3501.8679l.1539-.1786a.832.832,0,0,1-.273-.6684c0-.3744.17493-.574.4584-.574.16812,0,.33252.05251.6055.32881l.9975,1.01849h.17862v-1.71831h-.224Zm.01389,1.6588c0,.4269-.3606.7211-1.0148.7211-.65448,0-1.01511-.2942-1.01511-.7211s.36063-.7209,1.01511-.7209C301.8129,245.2921,302.17349,245.58611,302.17349,246.013Zm.231,0c0-.56689-.46542-.9799-1.24582-.9799-.7807,0-1.24609.413-1.24609.9799s.46539.9765,1.24609.9765C301.93909,246.9895,302.40451,246.5799,302.40451,246.013Zm-.38492,1.48759a.18318.18318,0,0,0,.18912.18541.17663.17663,0,0,0,.17828-.1259l.5076.11909v-.16811l-.483-.14709a.57391.57391,0,0,0-.20288-.0491A.18321.18321,0,0,0,302.01959,247.5006Zm.17151,1.3649c0,.42351-.2554.64771-.525.64771a.56728.56728,0,0,1-.53549-.6301c0-.3779.20639-.616.52838-.616A.53611.53611,0,0,1,302.1911,248.86549Zm-1.2739-.021a.78343.78343,0,0,0,.4198.74921c-.07339.00679-.1434.0105-.19962.0105-.6647,0-1.0043-.3396-1.0043-.868a.86106.86106,0,0,1,.11542-.47621l-.203-.1015a1.12593,1.12593,0,0,0-.1329.5811c0,.665.434,1.12,1.26709,1.12.77332,0,1.22482-.3535,1.22482-1.00461a.76336.76336,0,0,0-.75262-.8365A.74173.74173,0,0,0,300.91721,248.8445Z" transform="translate(-114.6883 -122.18921)" style="fill:#434242"/><path d="M124.736,196.11951c0,.4269-.3605.72119-1.0148.72119-.6545,0-1.0151-.2943-1.0151-.72119s.3606-.72081,1.0151-.72081c.6543,0,1.0148.2939,1.0148.72081m.2311,0c0-.56691-.4655-.9799-1.2459-.9799-.7806,0-1.2461.413-1.2461.9799s.4655.97659,1.2461.97659C124.5016,197.0961,124.9671,196.68649,124.9671,196.11951Zm-.2135,2.27849c0,.434-.1891.68941-.4935.68941-.301,0-.4901-.2554-.4901-.68941s.1891-.693.4901-.693C124.5645,197.705,124.7536,197.964,124.7536,198.398Zm-1.624.6055c-.2729,0-.441-.2347-.441-.6055,0-.3676.1681-.6091.4444-.6091.2662,0,.4377.2276.4377.6091C123.5707,198.7793,123.3992,199.00349,123.1296,199.00349Zm.5321-1.078a.55494.55494,0,0,0-.5391-.392c-.3989,0-.6475.34641-.6475.8645,0,.5179.2486.8575.6475.8575a.553.553,0,0,0,.5391-.38519.611.611,0,0,0,.6018.4725c.434,0,.70361-.3569.70361-.94481,0-.5845-.2696-.9521-.70361-.9521A.61688.61688,0,0,0,123.6617,197.92551Zm.9204,1.9879a.18317.18317,0,0,0,.1891.18539.17669.17669,0,0,0,.1783-.12581l.5077.119v-.16809l-.4831-.14711a.57283.57283,0,0,0-.2029-.049A.18319.18319,0,0,0,124.5821,199.91341Zm.1715,1.3649c0,.42349-.2554.64769-.525.64769a.56722.56722,0,0,1-.5354-.6301c0-.3779.2063-.616.5283-.616A.53608.53608,0,0,1,124.7536,201.27831Zm-1.2739-.021a.78346.78346,0,0,0,.4198.74921c-.07339.00681-.14339.0105-.1995.0105-.66479,0-1.0043-.3396-1.0043-.8679a.861.861,0,0,1,.1153-.47629l-.2029-.10141a1.12561,1.12561,0,0,0-.133.5811c0,.665.434,1.1199,1.26711,1.1199.7733,0,1.2249-.3535,1.2249-1.00459a.76339.76339,0,0,0-.7526-.8365A.74175.74175,0,0,0,123.4797,201.25729Z" transform="translate(-114.6883 -122.18921)" style="fill:#434242"/><path d="M127.0006,283.5088v.315l-.7806-.08391v-1.12h-.224v1.3405l1.2286.1259v-.5213c0-.62311.1958-.8192.5111-.8192.2973,0,.50029.22049.50029.63719a1.06141,1.06141,0,0,1-.28349.7523l.1996.1225a1.26491,1.26491,0,0,0,.3149-.87849c0-.5984-.32539-.889-.7418-.889-.4343,0-.72459.28011-.72459,1.01851m-1.0046,2.058h.224v-.57741h2.226v-.252h-2.45Zm2.086.3569a.18323.18323,0,0,0,.1891.18539.17676.17676,0,0,0,.1783-.1259l.50771.11909v-.16809l-.483-.1472a.57583.57583,0,0,0-.203-.049A.18326.18326,0,0,0,128.082,285.92371Zm-2.086,1.6064h.224v-.5775h2.226v-.252h-2.45Z" transform="translate(-114.6883 -122.18921)" style="fill:#434242"/><line x1="146.34911" y1="38.70139" x2="146.34911" y2="47.5154" style="fill:none;stroke:#b1b2b2;stroke-miterlimit:22.92558479309082;stroke-width:0.2160000056028366px"/><line x1="103.2234" y1="66.32729" x2="103.2234" y2="73.07568" style="fill:none;stroke:#b1b2b2;stroke-miterlimit:22.92558479309082;stroke-width:0.2160000056028366px"/><line x1="137.098" y1="128.95248" x2="137.098" y2="172.66219" style="fill:none;stroke:#b1b2b2;stroke-miterlimit:22.92558479309082;stroke-width:0.2160000056028366px"/><line x1="186.5353" y1="128.95248" x2="186.5353" y2="172.66219" style="fill:none;stroke:#b1b2b2;stroke-miterlimit:22.92558479309082;stroke-width:0.2160000056028366px"/><line x1="9.0978" y1="81.20259" x2="9.0978" y2="142.57019" style="fill:none;stroke:#b1b2b2;stroke-miterlimit:22.92558479309082;stroke-width:0.2160000056028366px"/><line x1="12.5978" y1="167.4527" x2="12.5978" y2="174.2011" style="fill:none;stroke:#b1b2b2;stroke-miterlimit:22.92558479309082;stroke-width:0.2160000056028366px"/><line x1="146.34911" y1="6.42548" x2="146.34911" y2="29.2623" style="fill:none;stroke:#b1b2b2;stroke-miterlimit:22.92558479309082;stroke-width:0.2160000056028366px"/><line x1="103.2234" y1="50.13969" x2="103.2234" y2="56.88818" style="fill:none;stroke:#b1b2b2;stroke-miterlimit:22.92558479309082;stroke-width:0.2160000056028366px"/><line x1="137.098" y1="76.02119" x2="137.098" y2="119.5134" style="fill:none;stroke:#b1b2b2;stroke-miterlimit:22.92558479309082;stroke-width:0.2160000056028366px"/><line x1="186.5353" y1="53.23999" x2="186.5353" y2="119.5134" style="fill:none;stroke:#b1b2b2;stroke-miterlimit:22.92558479309082;stroke-width:0.2160000056028366px"/><line x1="9.0978" y1="6.42548" x2="9.0978" y2="71.76349" style="fill:none;stroke:#b1b2b2;stroke-miterlimit:22.92558479309082;stroke-width:0.2160000056028366px"/><line x1="12.5978" y1="151.26509" x2="12.5978" y2="158.0136" style="fill:none;stroke:#b1b2b2;stroke-miterlimit:22.92558479309082;stroke-width:0.2160000056028366px"/><path d="M294.35049,179.36819l.69272-.8714v-.1785h-1.57492v.22391h1.2529l-.67889.85069v.18539h.1749c.45529,0,.66162.19241.66162.4864,0,.3044-.22391.4935-.62982.4935a1.0744,1.0744,0,0,1-.7597-.28349l-.1225.1996a1.27485,1.27485,0,0,0,.8822.3149c.59131,0,.88892-.3149.88892-.7245,0-.39211-.26251-.6684-.78741-.6965m-2.4957,1.1761.8331-.81889a1.008,1.008,0,0,0,.40262-.76651c0-.40959-.315-.66159-.81223-.66159a1.10076,1.10076,0,0,0-.86789.3501l.1785.1539a.83236.83236,0,0,1,.66849-.273c.37442,0,.574.1749.574.45839,0,.16811-.05249.3325-.3288.60541l-1.01849.9976v.1785h1.71829v-.22391Zm-.90991-.14a.18315.18315,0,0,0-.18539.189.17672.17672,0,0,0,.12592.17831l-.11911.50769h.16809l.14713-.483a.57427.57427,0,0,0,.0491-.203A.18321.18321,0,0,0,290.94489,180.4043Zm-1.60638-2.086v.22391h.57739v2.226h.252V178.3183Z" transform="translate(-114.6883 -122.18921)" style="fill:#434242"/><line x1="172.93581" y1="57.4191" x2="166.1874" y2="57.4191" style="fill:none;stroke:#b1b2b2;stroke-miterlimit:22.92558479309082;stroke-width:0.2160000056028366px"/><line x1="190.53249" y1="57.4191" x2="182.3749" y2="57.4191" style="fill:none;stroke:#b1b2b2;stroke-miterlimit:22.92558479309082;stroke-width:0.2160000056028366px"/></svg>