<svg id="Слой_1" data-name="Слой 1" xmlns="http://www.w3.org/2000/svg" viewBox="0 0 200.41031 152.98041"><title>2.07.02</title><polygon points="194.416 3.78 194.416 152.98 0 152.98 0 0 40.066 0 40.066 3.78 194.416 3.78" style="fill:#fff;fill-rule:evenodd"/><path d="M179.3055,158.66339v-2.77509H176.127v2.77509Zm3.89061-8.90649v-2.77509H176.127v2.77509Zm0,4.4252V151.407H176.127v2.77509Zm0,4.48129v-2.77509h-3.17851v2.77509Zm1.0499.93741V146.0444h-9.5063v13.5564Z" transform="translate(-112.3931 -136.1084)" style="fill:#003915;fill-rule:evenodd"/><path d="M122.8048,181.6144v2.7751h-3.1785v-2.7751Zm3.8905,8.9064V193.296h-7.069V190.5208Zm0-4.42509v2.7751h-7.069v-2.7751Zm0-4.48131v2.7751h-3.1784v-2.7751ZM118.239,193.523V181.1557h-.7126v-1.7668h11.96251v19.80431H127.0514v-.01881h-9.525V193.523Z" transform="translate(-112.3931 -136.1084)" style="fill:#003915;fill-rule:evenodd"/><path d="M214.3134,210.873a.374.374,0,1,1,.37469-.6474l13.92011,8.0399a.374.374,0,1,1-.37469.6474Z" transform="translate(-112.3931 -136.1084)" style="fill:#003915"/><path d="M194.74921,180.4689a.374.374,0,1,1,.37479-.6474l13.92011,8.0399a.374.374,0,1,1-.3748.6474Z" transform="translate(-112.3931 -136.1084)" style="fill:#003915"/><path d="M284.67349,204.8999a.37408.37408,0,0,1,.37482-.64751l13.9201,8.0399a.37408.37408,0,0,1-.37482.64751Z" transform="translate(-112.3931 -136.1084)" style="fill:#003915"/><path d="M236.3275,202.7506a.374.374,0,1,1-.6474-.37469L243.72,188.4558a.374.374,0,0,1,.6474.37471Z" transform="translate(-112.3931 -136.1084)" style="fill:#003915"/><path d="M141.404,167.00351a.374.374,0,0,1-.6474-.37482l8.03989-13.92011a.374.374,0,1,1,.6474.37482Z" transform="translate(-112.3931 -136.1084)" style="fill:#003915"/><rect x="36.3515" width="2.6022" height="17.02689" style="fill:#003915"/><rect x="36.3515" y="31.07199" width="2.6022" height="13.32991" style="fill:#003915"/><rect x="60.0191" y="5.45731" width="2.6022" height="38.9446" style="fill:#003915"/><rect x="99.09871" y="110.4846" width="2.60219" height="38.9446" style="fill:#003915"/><rect x="117.41701" y="5.45731" width="2.60219" height="38.9446" style="fill:#003915"/><rect x="121.4482" y="5.45731" width="2.6022" height="42.8887" style="fill:#003915"/><rect x="121.4482" y="66.17821" width="2.6022" height="8.05119" style="fill:#003915"/><rect x="36.3515" y="41.7997" width="46.5183" height="2.6022" style="fill:#003915"/><rect x="118.72861" y="71.6618" width="48.70569" height="2.6022" style="fill:#003915"/><rect y="1.7294" width="3.6236" height="2.6022" style="fill:#003915"/><rect x="98.86481" y="41.7997" width="21.0365" height="2.6022" style="fill:#003915"/><rect x="96.6989" y="72.1794" width="5.002" height="45.3382" style="fill:#003915"/><rect x="1.42361" y="67.9184" width="5.002" height="83.4395" style="fill:#003915"/><rect x="36.3515" y="1.30881" width="158.06409" height="5.00198" style="fill:#003915"/><rect x="36.3515" width="6.4256" height="6.19962" style="fill:#003915"/><rect width="6.42561" height="152.98041" style="fill:#003915"/><rect x="1.4922" width="15.5415" height="6.39609" style="fill:#003915"/><rect y="144.8203" width="27.5412" height="8.16011" style="fill:#003915"/><rect x="76.286" y="144.8203" width="44.74431" height="8.16011" style="fill:#003915"/><rect x="150.37909" y="144.8203" width="50.03122" height="8.16011" style="fill:#003915"/><rect x="186.25549" y="1.30881" width="8.1601" height="24.62988" style="fill:#003915"/><rect x="185.56931" y="69.2059" width="14.841" height="10.46581" style="fill:#003915"/><rect x="186.25549" y="55.4088" width="8.1601" height="23.9165" style="fill:#003915"/><rect x="161.18881" y="71.6618" width="8.1601" height="75.2426" style="fill:#003915"/><rect x="134.9088" y="147.8214" width="0.50171" height="2.2986" style="fill:#003915"/><rect x="136.1075" y="147.8214" width="0.50121" height="2.2986" style="fill:#003915"/><rect x="148.74469" y="147.8214" width="0.5014" height="2.2986" style="fill:#003915"/><rect x="149.94321" y="147.8214" width="0.5011" height="2.2986" style="fill:#003915"/><rect x="120.797" y="147.8214" width="0.5018" height="2.2986" style="fill:#003915"/><rect x="121.9955" y="147.8214" width="0.50121" height="2.2986" style="fill:#003915"/><rect x="118.40741" y="144.8195" width="34.09369" height="0.5014" style="fill:#003915"/><rect x="118.40741" y="147.6666" width="34.09369" height="0.50151" style="fill:#003915"/><rect x="118.40741" y="149.83791" width="34.09369" height="0.5015" style="fill:#003915"/><rect x="118.40741" y="152.479" width="34.09369" height="0.5014" style="fill:#003915"/><rect x="189.25659" y="41.3226" width="2.29861" height="0.50169" style="fill:#003915"/><rect x="189.25659" y="40.1244" width="2.29861" height="0.50119" style="fill:#003915"/><rect x="189.25659" y="27.487" width="2.29861" height="0.5014" style="fill:#003915"/><rect x="189.25659" y="26.28879" width="2.29861" height="0.5011" style="fill:#003915"/><rect x="189.25659" y="55.4343" width="2.29861" height="0.5018" style="fill:#003915"/><rect x="189.25659" y="54.2364" width="2.29861" height="0.50119" style="fill:#003915"/><rect x="186.2547" y="24.23199" width="0.5014" height="34.0937" style="fill:#003915"/><rect x="189.10181" y="24.23199" width="0.5014" height="34.0937" style="fill:#003915"/><rect x="191.2731" y="24.23199" width="0.5015" height="34.0937" style="fill:#003915"/><rect x="193.91422" y="24.23199" width="0.50137" height="34.0937" style="fill:#003915"/><rect x="194.0318" y="128.4384" width="1.29709" height="0.44701" style="fill:#003915"/><rect x="194.0318" y="127.3705" width="1.29709" height="0.44681" style="fill:#003915"/><rect x="194.0318" y="96.582" width="1.29709" height="0.4471" style="fill:#003915"/><rect x="194.0318" y="95.51421" width="1.29709" height="0.44679" style="fill:#003915"/><rect x="194.0318" y="112.51021" width="1.29709" height="0.44699" style="fill:#003915"/><rect x="194.0318" y="111.4424" width="1.29709" height="0.4467" style="fill:#003915"/><rect x="194.0318" y="80.65359" width="1.29709" height="0.44701" style="fill:#003915"/><rect x="194.0318" y="79.5858" width="1.29709" height="0.4467" style="fill:#003915"/><rect x="194.0318" y="144.3665" width="1.29709" height="0.44701" style="fill:#003915"/><rect x="194.0318" y="143.29871" width="1.29709" height="0.4467" style="fill:#003915"/><rect x="196.1116" y="79.14191" width="0.44669" height="67.77469" style="fill:#003915"/><rect x="195.02029" y="79.14191" width="0.44672" height="67.77469" style="fill:#003915"/><rect x="193.93939" y="79.14191" width="0.44672" height="67.77469" style="fill:#003915"/><path d="M202.40331,142.85541h9.82239a.90534.90534,0,0,1,.90541.904v4.61029a4.59567,4.59567,0,0,1-4.5896,4.59091h-2.4523a4.59566,4.59566,0,0,1-4.59041-4.59091V143.7594a.90477.90477,0,0,1,.90451-.904m6.1382,9.8606a4.351,4.351,0,0,0,4.34489-4.34631V143.7594a.66143.66143,0,0,0-.66071-.65991h-9.82239a.66075.66075,0,0,0-.65991.65991v4.61029a4.35139,4.35139,0,0,0,4.34581,4.34631Z" transform="translate(-112.3931 -136.1084)" style="fill:#003915"/><path d="M208.5412,151.62579a3.25876,3.25876,0,0,0,3.2545-3.2561v-2.68808a.56787.56787,0,0,0-.56731-.5675h-3.57529v-.24521h3.57529a.81413.81413,0,0,1,.8125.81271v2.68808a3.50411,3.50411,0,0,1-3.49969,3.5007h-2.4523a3.50459,3.50459,0,0,1-3.5007-3.5007v-2.68808a.81448.81448,0,0,1,.81351-.81271h3.5753v.24521h-3.5753a.5682.5682,0,0,0-.5683.5675v2.68808a3.25928,3.25928,0,0,0,3.25549,3.2561Z" transform="translate(-112.3931 -136.1084)" style="fill:#003915"/><path d="M207.31441,148.02209a.78351.78351,0,1,1-.78381.78351.78481.78481,0,0,1,.78381-.78351m0,1.32242a.53876.53876,0,1,0-.5392-.53891A.53971.53971,0,0,0,207.31441,149.34451Z" transform="translate(-112.3931 -136.1084)" style="fill:#003915"/><rect x="94.7988" y="12.13849" width="0.2449" height="1.11661" style="fill:#003915"/><rect x="94.36371" y="12.57419" width="1.116" height="0.24551" style="fill:#003915"/><path d="M206.977,144.03781h-.40361a.17363.17363,0,0,0-.1729.174v.3793a.17365.17365,0,0,0,.1729.174h.40361v.2449h-.40361a.41867.41867,0,0,1-.41809-.41891v-.3793a.41862.41862,0,0,1,.41809-.4187h.40561l-.002.03741Zm1.07719.72729a.17449.17449,0,0,0,.1741-.174v-.3793a.17446.17446,0,0,0-.1741-.174h-.40109v-.20731l-.0023-.03741h.4034a.41863.41863,0,0,1,.4187.4187v.3793a.41867.41867,0,0,1-.4187.41891h-.40109v-.2449Z" transform="translate(-112.3931 -136.1084)" style="fill:#003915"/><path d="M207.31441,143.37021a.46108.46108,0,0,1,.4612.4603v3.08038a.4605.4605,0,0,1-.921,0v-3.08038a.46053.46053,0,0,1,.45981-.4603m0,3.75668a.21667.21667,0,0,0,.21619-.216v-3.08038a.21555.21555,0,0,0-.43109,0v3.08038A.21609.21609,0,0,0,207.31441,147.12689Z" transform="translate(-112.3931 -136.1084)" style="fill:#003915"/><path d="M158.6188,177.5529h9.82239a.90536.90536,0,0,0,.90541-.904v-4.6102a4.5957,4.5957,0,0,0-4.5896-4.591h-2.4523a4.59569,4.59569,0,0,0-4.59041,4.591v4.6102a.90478.90478,0,0,0,.90451.904m6.1382-9.86061a4.351,4.351,0,0,1,4.34489,4.34641v4.6102a.66141.66141,0,0,1-.66071.6599H158.6188a.66074.66074,0,0,1-.65991-.6599v-4.6102a4.35142,4.35142,0,0,1,4.34581-4.34641Z" transform="translate(-112.3931 -136.1084)" style="fill:#003915"/><path d="M164.7567,168.7825a3.2587,3.2587,0,0,1,3.25439,3.2562v2.68811a.56784.56784,0,0,1-.5672.56749h-3.57529v.24521h3.57529a.81411.81411,0,0,0,.81241-.8127V172.0387a3.50406,3.50406,0,0,0-3.4996-3.50079h-2.4523a3.50461,3.50461,0,0,0-3.5007,3.50079v2.68811a.81453.81453,0,0,0,.81351.8127h3.5753v-.24521h-3.5753a.56827.56827,0,0,1-.5683-.56749V172.0387a3.25931,3.25931,0,0,1,3.25549-3.2562Z" transform="translate(-112.3931 -136.1084)" style="fill:#003915"/><path d="M163.52991,172.3862a.7835.7835,0,1,0-.78381-.78349.78481.78481,0,0,0,.78381.78349m0-1.3224a.53875.53875,0,1,1-.5392.53891A.53969.53969,0,0,1,163.52991,171.0638Z" transform="translate(-112.3931 -136.1084)" style="fill:#003915"/><rect x="51.0143" y="34.9364" width="0.2449" height="1.11659" style="fill:#003915"/><rect x="50.57921" y="35.3718" width="1.116" height="0.2455" style="fill:#003915"/><path d="M163.1925,176.37061h-.40361a.17373.17373,0,0,1-.1729-.1741v-.3793a.17364.17364,0,0,1,.1729-.174h.40361v-.2449h-.40361a.41867.41867,0,0,0-.41809.4189v.3793a.41862.41862,0,0,0,.41809.4187h.40561l-.002-.0374Zm1.07719-.7274a.17438.17438,0,0,1,.174.174v.3793a.17447.17447,0,0,1-.174.1741h-.40109v.2072l-.0023.0374h.4034a.41863.41863,0,0,0,.4187-.4187v-.3793a.41867.41867,0,0,0-.4187-.4189h-.40109v.2449Z" transform="translate(-112.3931 -136.1084)" style="fill:#003915"/><path d="M163.52991,177.0381a.46109.46109,0,0,0,.4612-.4603v-3.0804a.4605.4605,0,0,0-.921,0v3.0804a.46054.46054,0,0,0,.45981.4603m0-3.7567a.21667.21667,0,0,1,.21619.216v3.0804a.21555.21555,0,0,1-.43109,0v-3.0804A.21609.21609,0,0,1,163.52991,173.2814Z" transform="translate(-112.3931 -136.1084)" style="fill:#003915"/><path d="M194.1338,156.13461a3.9169,3.9169,0,0,1-3.9115-3.9129V146.5563a.67724.67724,0,0,1,.4561-.63919,1.24485,1.24485,0,0,1-.20351-.20493.9457.9457,0,0,0-.52161.84412v5.66541a4.1808,4.1808,0,1,0,8.3616,0V146.5563a.94552.94552,0,0,0-.521-.8436,1.2368,1.2368,0,0,1-.2032.20468.67642.67642,0,0,1,.45551.63892v5.66541a3.91709,3.91709,0,0,1-3.9124,3.9129" transform="translate(-112.3931 -136.1084)" style="fill:#003915"/><path d="M196.93761,147.63721h-5.6089a.20393.20393,0,0,0-.20131.20151v4.27069a3.00655,3.00655,0,1,0,6.01311,0v-4.27069a.20465.20465,0,0,0-.2029-.20151m-5.5415.2681h5.476v4.2041a2.738,2.738,0,0,1-5.476,0Z" transform="translate(-112.3931 -136.1084)" style="fill:#003915"/><path d="M194.1335,150.3681a1.00815,1.00815,0,1,0,1.0089,1.008,1.01,1.01,0,0,0-1.0089-1.008m0,1.7475a.7394.7394,0,1,1,.7399-.7395A.74029.74029,0,0,1,194.1335,152.1156Z" transform="translate(-112.3931 -136.1084)" style="fill:#003915"/><rect x="192.37786" y="148.17078" width="0.26853" height="2.24224" transform="translate(-163.45467 8.61828) rotate(-36.7196)" style="fill:#003915"/><rect x="194.58992" y="149.15755" width="2.24306" height="0.26909" transform="translate(-153.46967 80.43349) rotate(-53.19201)" style="fill:#003915"/><path d="M196.8344,142.13541h-5.40059a1.35508,1.35508,0,0,0-1.3524,1.35379v1.4743a1.35353,1.35353,0,0,0,1.3524,1.35251h5.40059a1.35322,1.35322,0,0,0,1.35181-1.35251v-1.4743a1.35477,1.35477,0,0,0-1.35181-1.35379m-5.40059,3.91208a1.08542,1.08542,0,0,1-1.08421-1.084v-1.4743a1.08591,1.08591,0,0,1,1.08421-1.08508h5.40059a1.086,1.086,0,0,1,1.08371,1.08508v1.4743a1.08551,1.08551,0,0,1-1.08371,1.084Z" transform="translate(-112.3931 -136.1084)" style="fill:#003915"/><path d="M194.1335,143.53769a.68811.68811,0,1,0,.68829.68741.68807.68807,0,0,0-.68829-.68741m0,1.10721a.41925.41925,0,1,1,.4196-.4198A.41934.41934,0,0,1,194.1335,144.6449Z" transform="translate(-112.3931 -136.1084)" style="fill:#003915"/><path d="M163.4185,156.13461a3.917,3.917,0,0,1-3.91161-3.9129V146.5563a.67739.67739,0,0,1,.4561-.63919,1.24536,1.24536,0,0,1-.20349-.20493.9457.9457,0,0,0-.52161.84412v5.66541a4.18085,4.18085,0,1,0,8.36169,0V146.5563a.94569.94569,0,0,0-.521-.8436,1.2421,1.2421,0,0,1-.20329.20468.67641.67641,0,0,1,.45549.63892v5.66541a3.91706,3.91706,0,0,1-3.91229,3.9129" transform="translate(-112.3931 -136.1084)" style="fill:#003915"/><path d="M166.2222,147.63721h-5.6089a.204.204,0,0,0-.20129.20151v4.27069a3.0066,3.0066,0,1,0,6.0132,0v-4.27069a.20467.20467,0,0,0-.203-.20151m-5.5414.2681h5.47589v4.2041a2.73795,2.73795,0,0,1-5.47589,0Z" transform="translate(-112.3931 -136.1084)" style="fill:#003915"/><path d="M163.4182,150.3681a1.00815,1.00815,0,1,0,1.0088,1.008,1.01,1.01,0,0,0-1.0088-1.008m0,1.7475a.7394.7394,0,1,1,.73981-.7395A.74032.74032,0,0,1,163.4182,152.1156Z" transform="translate(-112.3931 -136.1084)" style="fill:#003915"/><rect x="161.66251" y="148.17077" width="0.26848" height="2.24226" transform="translate(-169.55027 -9.73899) rotate(-36.72154)" style="fill:#003915"/><rect x="163.87456" y="149.15754" width="2.24303" height="0.26912" transform="translate(-165.78238 55.84129) rotate(-53.19201)" style="fill:#003915"/><path d="M166.119,142.13541h-5.4005a1.35517,1.35517,0,0,0-1.35251,1.35379v1.4743a1.35362,1.35362,0,0,0,1.35251,1.35251h5.4005a1.3533,1.3533,0,0,0,1.3519-1.35251v-1.4743a1.35484,1.35484,0,0,0-1.3519-1.35379m-5.4005,3.91208a1.08544,1.08544,0,0,1-1.0843-1.084v-1.4743a1.08593,1.08593,0,0,1,1.0843-1.08508h5.4005a1.086,1.086,0,0,1,1.08369,1.08508v1.4743a1.0855,1.0855,0,0,1-1.08369,1.084Z" transform="translate(-112.3931 -136.1084)" style="fill:#003915"/><path d="M163.4182,143.53769a.68811.68811,0,1,0,.6882.68741.68809.68809,0,0,0-.6882-.68741m0,1.10721a.41925.41925,0,1,1,.41951-.4198A.41936.41936,0,0,1,163.4182,144.6449Z" transform="translate(-112.3931 -136.1084)" style="fill:#003915"/><path d="M175.6256,169.3299h0v7.83951h11.3479V169.3299Zm-.3308,8.17081v-8.5025h12.0098v8.5025Z" transform="translate(-112.3931 -136.1084)" style="fill:#003915"/><path d="M178.02,169.10541a.60439.60439,0,0,1,.5936-.61261h5.37219a.60412.60412,0,0,1,.5939.61261h-.3308a.2697.2697,0,0,0-.26311-.28091H178.6136a.26946.26946,0,0,0-.2628.28091Z" transform="translate(-112.3931 -136.1084)" style="fill:#003915"/><path d="M180.2778,171.732h0v2.70761l1.59731.6216a2.4736,2.4736,0,0,0-.09181-1.6747,4.152,4.152,0,0,1-.24129-1.24071,2.448,2.448,0,0,1,.18829-.9366Zm-.3308,2.9341v-3.16689l2.48-.892-.22481.39061a2.26673,2.26673,0,0,0-.3293,1.148,3.89365,3.89365,0,0,0,.2267,1.1438,3.89676,3.89676,0,0,1,.22821,1.1441,2.0161,2.0161,0,0,1-.218.9124l-.0674.1358Z" transform="translate(-112.3931 -136.1084)" style="fill:#003915"/><path d="M215.01469,145.00659v30.085a2.161,2.161,0,0,0,2.1656,2.1515h10.41141a2.161,2.161,0,0,0,2.166-2.1515v-30.085a2.16091,2.16091,0,0,0-2.166-2.15118H217.1803a2.161,2.161,0,0,0-2.1656,2.15118m14.51311,30.085a1.93117,1.93117,0,0,1-1.9361,1.92191H217.1803a1.931,1.931,0,0,1-1.93539-1.92191v-30.085a1.9313,1.9313,0,0,1,1.93539-1.92209h10.41141a1.93152,1.93152,0,0,1,1.9361,1.92209Z" transform="translate(-112.3931 -136.1084)" style="fill:#003915"/><path d="M228.26579,172.1058a2.577,2.577,0,0,1-2.58209,2.5654h-6.5948a2.57667,2.57667,0,0,1-2.5818-2.5654V147.99258a2.5771,2.5771,0,0,1,2.5818-2.56589h2.0619a.39647.39647,0,0,1-.142-.22821H219.0889a2.80639,2.80639,0,0,0-2.8125,2.7941V172.1058a2.80657,2.80657,0,0,0,2.8125,2.79439h6.5948a2.80652,2.80652,0,0,0,2.8123-2.79439V147.99258a2.80635,2.80635,0,0,0-2.8123-2.7941h-1.9202a.39513.39513,0,0,1-.1414.22821h2.0616a2.57747,2.57747,0,0,1,2.58209,2.56589Z" transform="translate(-112.3931 -136.1084)" style="fill:#003915"/><path d="M226.9525,170.5584a1.26659,1.26659,0,0,1-1.2688,1.26111h-6.5948a1.26627,1.26627,0,0,1-1.2682-1.26111V147.99258a1.2662,1.2662,0,0,1,1.2682-1.26138h2.84491v-.2287H219.0889a1.4961,1.4961,0,0,0-1.4989,1.49008V170.5584a1.49556,1.49556,0,0,0,1.4989,1.4893h6.5948a1.49526,1.49526,0,0,0,1.499-1.4893V147.99258a1.4958,1.4958,0,0,0-1.499-1.49008h-2.84511v.2287h2.84511a1.26651,1.26651,0,0,1,1.2688,1.26138Z" transform="translate(-112.3931 -136.1084)" style="fill:#003915"/><path d="M221.6534,149.8978a.73336.73336,0,1,0,.7336-.72989.73152.73152,0,0,0-.7336.72989m1.2365,0a.5033.5033,0,1,1-.5029-.50031A.50192.50192,0,0,1,222.88989,149.8978Z" transform="translate(-112.3931 -136.1084)" style="fill:#003915"/><rect x="109.4706" y="13.67429" width="1.0457" height="0.22931" style="fill:#003915"/><rect x="109.8786" y="13.27011" width="0.2307" height="1.03778" style="fill:#003915"/><path d="M221.93381,145.3978h-.53751a.27983.27983,0,0,1-.2803-.27859V144.614a.28033.28033,0,0,1,.2803-.27921h.53751v-.2287h-.53751a.51032.51032,0,0,0-.51111.5079v.50519a.50971.50971,0,0,0,.51111.50739h.53751Zm1.722-.27859a.27978.27978,0,0,1-.28011.27859h-.53711v.22879h.53711a.50933.50933,0,0,0,.51089-.50739V144.614a.50994.50994,0,0,0-.51089-.5079h-.53711v.2287h.53711a.28028.28028,0,0,1,.28011.27921Z" transform="translate(-112.3931 -136.1084)" style="fill:#003915"/><path d="M221.81841,144.108v3.2012a.56766.56766,0,0,0,1.1353,0V144.108a.56766.56766,0,0,0-1.1353,0m.90509,3.2012a.3372.3372,0,0,1-.67439,0V144.108a.3372.3372,0,0,1,.67439,0Z" transform="translate(-112.3931 -136.1084)" style="fill:#003915"/><path d="M119.0713,199.88589v11.76921h11.7689V199.88589Zm.2494,11.51981V200.1351h11.27059v11.2706Z" transform="translate(-112.3931 -136.1084)" style="fill:#003915"/><path d="M129.742,205.7704a3.91958,3.91958,0,0,1-7.7142.9816.3.3,0,0,1-.1976.0743h-.0405a4.16846,4.16846,0,1,0-.00031-2.1115h.0408a.29831.29831,0,0,1,.1973.0739,3.91975,3.91975,0,0,1,7.71451.9817" transform="translate(-112.3931 -136.1084)" style="fill:#003915"/><path d="M122.3413,205.7704a3.4815,3.4815,0,1,0,3.4818-3.4812,3.48578,3.48578,0,0,0-3.4818,3.4812m6.7136,0a3.2319,3.2319,0,1,1-3.2318-3.2318A3.23548,3.23548,0,0,1,129.0549,205.7704Z" transform="translate(-112.3931 -136.1084)" style="fill:#003915"/><path d="M124.9206,205.7704a.90225.90225,0,1,0,.9025-.9026.90332.90332,0,0,0-.9025.9026m1.5556,0a.65295.65295,0,1,1-.6531-.65311A.65425.65425,0,0,1,126.4762,205.7704Z" transform="translate(-112.3931 -136.1084)" style="fill:#003915"/><rect x="12.77271" y="69.53731" width="1.3138" height="0.24939" style="fill:#003915"/><rect x="13.3047" y="69.0052" width="0.2498" height="1.3136" style="fill:#003915"/><path d="M121.0164,205.0166v1.50749a.427.427,0,0,0,.4266.42661h.3872a.42688.42688,0,0,0,.4267-.42661V205.0166a.427.427,0,0,0-.4267-.42661h-.3872a.42706.42706,0,0,0-.4266.42661m.991,1.50749a.17773.17773,0,0,1-.1772.17751h-.3872a.17745.17745,0,0,1-.1771-.17751V205.0166a.17718.17718,0,0,1,.1771-.17711h.3872a.17746.17746,0,0,1,.1772.17711Z" transform="translate(-112.3931 -136.1084)" style="fill:#003915"/><path d="M121.1411,205.9903h-.0864a.21965.21965,0,1,1,0-.4393h.0864v-.2498h-.0864a.46945.46945,0,0,0,0,.9389h.0864Zm2.59-.21989a.22041.22041,0,0,1-.2205.21989H122.1321v.2498h1.37849a.46945.46945,0,1,0,0-.9389H122.1321v.2498h1.37849A.22.22,0,0,1,123.7311,205.7704Z" transform="translate(-112.3931 -136.1084)" style="fill:#003915"/><path d="M119.5526,228.55071v-7.1566A1.49605,1.49605,0,0,1,121.0473,219.9H129.346a1.49594,1.49594,0,0,1,1.4942,1.49411v7.1566a1.49571,1.49571,0,0,1-1.4942,1.4942H121.0473a1.49582,1.49582,0,0,1-1.49471-1.4942m11.0545-7.1566A1.26257,1.26257,0,0,0,129.346,220.133H121.0473a1.26276,1.26276,0,0,0-1.2617,1.26111v7.1566a1.26307,1.26307,0,0,0,1.2617,1.26169H129.346a1.26288,1.26288,0,0,0,1.26111-1.26169Z" transform="translate(-112.3931 -136.1084)" style="fill:#003915"/><path d="M120.3715,228.55071v-7.1566a.67624.67624,0,0,1,.6758-.67581h7.0107a.67635.67635,0,0,1,.6757.67581v7.1566a.67653.67653,0,0,1-.6757.67639h-7.0107a.67642.67642,0,0,1-.6758-.67639m8.1292-7.1566a.44323.44323,0,0,0-.4427-.4431h-7.0107a.44348.44348,0,0,0-.443.4431v7.1566a.44378.44378,0,0,0,.443.44389h7.0107a.44353.44353,0,0,0,.4427-.44389Z" transform="translate(-112.3931 -136.1084)" style="fill:#003915"/><path d="M129.1524,222.0943a.47425.47425,0,1,1,.4742.4742.475.475,0,0,1-.4742-.4742m.7155,0a.24125.24125,0,1,0-.2413.2415A.24189.24189,0,0,0,129.8679,222.0943Z" transform="translate(-112.3931 -136.1084)" style="fill:#003915"/><path d="M129.1524,223.695a.47425.47425,0,1,1,.4742.47481.475.475,0,0,1-.4742-.47481m.7155,0a.24125.24125,0,1,0-.2413.24181A.24156.24156,0,0,0,129.8679,223.695Z" transform="translate(-112.3931 -136.1084)" style="fill:#003915"/><rect x="10.1209" y="85.53911" width="0.2327" height="2.71959" style="fill:#003915"/><rect x="8.8767" y="86.7827" width="2.7196" height="0.2327" style="fill:#003915"/><path d="M121.7333,223.00729a.8969.8969,0,1,1,.8969.89661.898.898,0,0,1-.8969-.89661m1.561,0a.6643.6643,0,1,0-.66409.66391A.66553.66553,0,0,0,123.2943,223.00729Z" transform="translate(-112.3931 -136.1084)" style="fill:#003915"/><rect x="13.966" y="85.53911" width="0.2325" height="2.71959" style="fill:#003915"/><rect x="12.7216" y="86.7827" width="2.7204" height="0.2327" style="fill:#003915"/><path d="M125.5776,223.00729a.8972.8972,0,1,1,.8975.89661.89867.89867,0,0,1-.8975-.89661m1.5619,0a.6647.6647,0,1,0-.66441.66391A.6654.6654,0,0,0,127.1395,223.00729Z" transform="translate(-112.3931 -136.1084)" style="fill:#003915"/><rect x="10.1209" y="89.46989" width="0.2327" height="2.7193" style="fill:#003915"/><rect x="8.8767" y="90.7135" width="2.7196" height="0.233" style="fill:#003915"/><path d="M121.7333,226.9384a.8969.8969,0,1,1,.8969.8969.89783.89783,0,0,1-.8969-.8969m1.561,0a.6643.6643,0,1,0-.66409.66389A.66605.66605,0,0,0,123.2943,226.9384Z" transform="translate(-112.3931 -136.1084)" style="fill:#003915"/><rect x="13.966" y="89.46989" width="0.2325" height="2.7193" style="fill:#003915"/><rect x="12.7216" y="90.7135" width="2.7204" height="0.233" style="fill:#003915"/><path d="M125.5776,226.9384a.8972.8972,0,1,1,.8975.8969.89854.89854,0,0,1-.8975-.8969m1.5619,0a.6647.6647,0,1,0-.66441.66389A.66593.66593,0,0,0,127.1395,226.9384Z" transform="translate(-112.3931 -136.1084)" style="fill:#003915"/><path d="M129.1524,226.4086a.47425.47425,0,1,1,.4742.4745.47477.47477,0,0,1-.4742-.4745m.7155,0a.24125.24125,0,1,0-.2413.24181A.24169.24169,0,0,0,129.8679,226.4086Z" transform="translate(-112.3931 -136.1084)" style="fill:#003915"/><path d="M129.1524,228.01019a.47425.47425,0,1,1,.4742.47391.47466.47466,0,0,1-.4742-.47391m.7155,0a.24125.24125,0,1,0-.2413.2415A.2417.2417,0,0,0,129.8679,228.01019Z" transform="translate(-112.3931 -136.1084)" style="fill:#003915"/><path d="M176.5276,144.70929a.80921.80921,0,1,0-.23471-.57089.81.81,0,0,0,.23471.57089m.5726,1.03632a1.60692,1.60692,0,1,1,1.1364-.47052A1.60289,1.60289,0,0,1,177.1002,145.74561Z" transform="translate(-112.3931 -136.1084)" style="fill:#003915"/><rect x="42.8069" y="147.8214" width="0.50171" height="2.2986" style="fill:#003915"/><rect x="44.0056" y="147.8214" width="0.50121" height="2.2986" style="fill:#003915"/><rect x="58.93001" y="147.8214" width="0.5015" height="2.2986" style="fill:#003915"/><rect x="60.12851" y="147.8214" width="0.50119" height="2.2986" style="fill:#003915"/><rect x="74.61951" y="147.8214" width="0.5015" height="2.2986" style="fill:#003915"/><rect x="75.81801" y="147.8214" width="0.50119" height="2.2986" style="fill:#003915"/><rect x="27.4014" y="147.8214" width="0.5018" height="2.2986" style="fill:#003915"/><rect x="28.5999" y="147.8214" width="0.50121" height="2.2986" style="fill:#003915"/><rect x="25.01181" y="144.8195" width="52.1093" height="0.5014" style="fill:#003915"/><rect x="25.01181" y="147.6666" width="52.1093" height="0.50151" style="fill:#003915"/><rect x="25.01181" y="149.83791" width="52.1093" height="0.5015" style="fill:#003915"/><rect x="25.01181" y="152.479" width="52.1093" height="0.5014" style="fill:#003915"/><path d="M274.54111,182.4852c-.7319,0-1.2359-.618-1.2359-1.7399s.504-1.7399,1.2359-1.7399,1.2359.6179,1.2359,1.7399-.504,1.7399-1.2359,1.7399m0,.396c.972,0,1.67978-.798,1.67978-2.13589s-.70779-2.13589-1.67978-2.13589-1.67392.7979-1.67392,2.13589S273.56909,182.8812,274.54111,182.8812Zm-4.098-4.23579v.3838h.99008v3.816h.432v-4.1998Zm-.61182,3.5759a.314.314,0,0,0-.318.324.303.303,0,0,0,.216.3058l-.2041.87h.288l.252-.828a.9759.9759,0,0,0,.08423-.34779A.314.314,0,0,0,269.8313,182.2213Zm-2.75409-3.5759v.3838h.99008v3.816h.432v-4.1998Zm-2.166,0v.3838h.9902v3.816h.432v-4.1998Z" transform="translate(-112.3931 -136.1084)" style="fill:#6e6e6e;fill-rule:evenodd"/><path d="M250.0829,242.73531c-.7319,0-1.2359-.618-1.2359-1.73991s.504-1.7399,1.2359-1.7399,1.2359.6179,1.2359,1.7399-.504,1.73991-1.2359,1.73991m0,.396c.972,0,1.67979-.798,1.67979-2.13591s-.70779-2.13589-1.67979-2.13589-1.6738.7979-1.6738,2.13589S249.1109,243.1313,250.0829,243.1313Zm-3.9659-2.5141h-.54l.144-1.33791h1.91991v-.3838h-2.29781l-.216,2.1058h.89409c1.06781,0,1.4037.33591,1.4037.8759,0,.51-.3779.85811-1.0919.85811a1.82146,1.82146,0,0,1-1.2901-.4859l-.20969.34189a2.16849,2.16849,0,0,0,1.50569.54c1.0262,0,1.5239-.55791,1.5239-1.2719C247.86279,241.1153,247.3829,240.6172,246.117,240.6172Zm-2.04581,1.8542a.314.314,0,0,0-.318.324.303.303,0,0,0,.216.3058l-.20409.87h.288l.252-.828a.976.976,0,0,0,.0842-.34781A.314.314,0,0,0,244.0712,242.47141Zm-2.5619.2639c-.73189,0-1.23589-.618-1.23589-1.73991s.504-1.7399,1.23589-1.7399,1.2359.6179,1.2359,1.7399S242.2412,242.73531,241.50929,242.73531Zm0,.396c.972,0,1.67981-.798,1.67981-2.13591s-.70781-2.13589-1.67981-2.13589-1.67389.7979-1.67389,2.13589S240.53729,243.1313,241.50929,243.1313Zm-4.0981-4.23581v.3838h.9902v3.816h.432v-4.19981Z" transform="translate(-112.3931 -136.1084)" style="fill:#6e6e6e;fill-rule:evenodd"/><path d="M175.54221,224.92039c-.7319,0-1.2359-.618-1.2359-1.7399s.504-1.7399,1.2359-1.7399,1.2359.6179,1.2359,1.7399-.504,1.7399-1.2359,1.7399m0,.396c.972,0,1.67979-.798,1.67979-2.13591s-.70779-2.13589-1.67979-2.13589-1.67381.7979-1.67381,2.13589S174.57021,225.31641,175.54221,225.31641Zm-3.90581-.366c-.74409,0-1.1821-.324-1.1821-.8461,0-.5159.438-.83989,1.1821-.83989.7438,0,1.188.324,1.188.83989C172.8244,224.6264,172.3802,224.95039,171.6364,224.95039Zm-1.0381-2.78389c0-.468.402-.756,1.0381-.756.62981,0,1.044.288,1.044.762,0,.4561-.39011.75-1.044.75S170.5983,222.6286,170.5983,222.1665Zm1.8479.9119a.95107.95107,0,0,0,.6721-.9238c0-.684-.5941-1.11-1.4819-1.11-.88809,0-1.47009.426-1.47009,1.11a.94777.94777,0,0,0,.6599.9238,1.04829,1.04829,0,0,0-.8098,1.0321c0,.74379.612,1.2059,1.62,1.2059,1.002,0,1.6319-.46211,1.6319-1.2059A1.05778,1.05778,0,0,0,172.4462,223.0784Zm-3.40779,1.57809a.314.314,0,0,0-.318.324.303.303,0,0,0,.216.3058l-.2041.87h.288l.252-.828a.97607.97607,0,0,0,.08421-.34779A.31405.31405,0,0,0,169.03841,224.65649Zm-2.2861-1.77589,1.188-1.4942v-.3058h-2.7v.3838h2.1481l-1.16389,1.4581v.3181h.2999c.7798,0,1.1338.32989,1.1338.83389,0,.52191-.3838.8459-1.08.8459a1.841,1.841,0,0,1-1.3019-.4859l-.21011.3419a2.1852,2.1852,0,0,0,1.512.54c1.014,0,1.5239-.54,1.5239-1.24191C168.1021,223.4024,167.6523,222.9285,166.7523,222.8806Zm-4.2778,2.0157,1.4281-1.4037a1.72919,1.72919,0,0,0,.69-1.31419c0-.70181-.54-1.1338-1.39211-1.1338a1.88729,1.88729,0,0,0-1.4879.59979l.3058.26421a1.42619,1.42619,0,0,1,1.1461-.468c.642,0,.9839.2999.9839.786,0,.2877-.0899.56981-.56381,1.03781l-1.7462,1.7101v.30589h2.94611v-.38409Z" transform="translate(-112.3931 -136.1084)" style="fill:#6e6e6e;fill-rule:evenodd"/><path d="M301.38751,248.444c-.7319,0-1.2359-.618-1.2359-1.7399s.504-1.7399,1.2359-1.7399,1.2359.61789,1.2359,1.7399-.504,1.7399-1.2359,1.7399m0,.396c.972,0,1.67978-.798,1.67978-2.13589s-.70779-2.13589-1.67978-2.13589-1.67392.7979-1.67392,2.13589S300.4155,248.84,301.38751,248.84Zm-3.90591-.366c-.74411,0-1.182-.324-1.182-.8461,0-.5159.4379-.8399,1.182-.8399.7438,0,1.188.324,1.188.8399C298.66959,248.15,298.2254,248.474,297.4816,248.474Zm-1.038-2.78391c0-.468.40189-.756,1.038-.756.62991,0,1.044.288,1.044.762,0,.4561-.39.75-1.044.75S296.4436,246.15221,296.4436,245.69009Zm1.8479.91191a.95108.95108,0,0,0,.67209-.92381c0-.684-.59421-1.11-1.482-1.11-.88809,0-1.47.426-1.47,1.11a.94767.94767,0,0,0,.65991.92381,1.04825,1.04825,0,0,0-.80991,1.03209c0,.74381.612,1.2059,1.62,1.2059,1.00211,0,1.6319-.4621,1.6319-1.2059A1.05765,1.05765,0,0,0,298.2915,246.602Zm-3.40781,1.57809a.31408.31408,0,0,0-.31808.324.30311.30311,0,0,0,.216.3058l-.20407.87h.288l.252-.828a.97572.97572,0,0,0,.0842-.34779A.314.314,0,0,0,294.8837,248.1801Zm-2.28619-1.77589,1.188-1.4942v-.3058h-2.7v.3838h2.1481l-1.16391,1.4581v.3181h.2999c.77982,0,1.13391.3299,1.13391.83389,0,.5219-.38382.8459-1.08.8459a1.84133,1.84133,0,0,1-1.302-.4859l-.21.3419a2.185,2.185,0,0,0,1.512.54c1.01392,0,1.5239-.54,1.5239-1.2419C293.94739,246.926,293.4975,246.4521,292.5975,246.40421Z" transform="translate(-112.3931 -136.1084)" style="fill:#6e6e6e;fill-rule:evenodd"/><path d="M205.84711,167.87878c-.7319,0-1.2359-.61789-1.2359-1.7399s.504-1.7399,1.2359-1.7399,1.236.618,1.236,1.7399-.504,1.7399-1.236,1.7399m0,.396c.972,0,1.67989-.79791,1.67989-2.13593s-.70789-2.13589-1.67989-2.13589-1.67381.798-1.67381,2.13589S204.87511,168.27481,205.84711,168.27481Zm-3.96591-2.514h-.54l.144-1.338h1.91991V164.039H201.1073l-.216,2.1059h.8941c1.06779,0,1.4037.33591,1.4037.87592,0,.50989-.3779.858-1.0919.858a1.8218,1.8218,0,0,1-1.2901-.48578l-.2097.3418a2.1682,2.1682,0,0,0,1.50571.54c1.0262,0,1.524-.5578,1.524-1.27191C203.62711,166.25879,203.14709,165.7608,201.8812,165.7608Zm-2.04579,1.8541a.31406.31406,0,0,0-.318.324.30316.30316,0,0,0,.216.30591l-.2041.86987h.288l.252-.828a.9761.9761,0,0,0,.0842-.34781A.31405.31405,0,0,0,199.8354,167.6149Zm-.8461-.864h-.8399v-.972h-.4198v.972h-1.8241l2.1481-2.71188h-.48021l-2.2258,2.7839v.3118h2.36981v1.1041h.432v-1.1041h.8399Z" transform="translate(-112.3931 -136.1084)" style="fill:#6e6e6e;fill-rule:evenodd"/><path d="M136.45081,161.42011c-.7319,0-1.2359-.618-1.2359-1.7399s.504-1.7399,1.2359-1.7399,1.2359.61789,1.2359,1.7399-.504,1.7399-1.2359,1.7399m0,.396c.972,0,1.67979-.798,1.67979-2.13589s-.70779-2.13589-1.67979-2.13589-1.6739.79788-1.6739,2.13589S135.47881,161.8161,136.45081,161.8161Zm-3.62381-.366c-.726,0-1.11009-.4379-1.11009-.9a.97213.97213,0,0,1,1.08-.91782c.648,0,1.05589.3537,1.05589.90591A.91881.91881,0,0,1,132.827,161.4501Zm.036-2.18411a1.34268,1.34268,0,0,0-1.2841.72c-.0119-.12579-.0179-.2457-.0179-.3418,0-1.14011.582-1.72211,1.4879-1.72211a1.47057,1.47057,0,0,1,.8158.19821l.1741-.34811a1.9273,1.9273,0,0,0-.9958-.22787c-1.14011,0-1.91991.74377-1.91991,2.17188,0,1.326.60571,2.09991,1.72171,2.09991a1.3086,1.3086,0,0,0,1.4341-1.2901A1.27166,1.27166,0,0,0,132.863,159.266Zm-2.61591,1.8902a.314.314,0,0,0-.318.324.30314.30314,0,0,0,.216.30582l-.2041.87h.288l.252-.828a.976.976,0,0,0,.0842-.34781A.314.314,0,0,0,130.2471,161.15619Zm-3.24.23981,1.42809-1.40369a1.72886,1.72886,0,0,0,.69-1.31421c0-.70181-.54-1.13379-1.3921-1.13379a1.88734,1.88734,0,0,0-1.4879.59979l.3059.26419a1.42589,1.42589,0,0,1,1.146-.468c.642,0,.9839.2999.9839.786,0,.28772-.0899.56982-.5638,1.03781l-1.7461,1.71011v.30588h2.946V161.396Z" transform="translate(-112.3931 -136.1084)" style="fill:#6e6e6e;fill-rule:evenodd"/><path d="M167.30141,164.67029c-.732,0-1.236-.618-1.236-1.7399s.504-1.7399,1.236-1.7399,1.23589.61792,1.23589,1.7399-.504,1.7399-1.23589,1.7399m0,.396c.972,0,1.67979-.798,1.67979-2.13589s-.70779-2.13589-1.67979-2.13589-1.6739.79791-1.6739,2.13589S166.32941,165.06628,167.30141,165.06628Zm-3.972-.396c-.7319,0-1.2359-.618-1.2359-1.7399s.504-1.7399,1.2359-1.7399,1.236.61792,1.236,1.7399S164.0614,164.67029,163.32941,164.67029Zm0,.396c.972,0,1.67989-.798,1.67989-2.13589s-.70789-2.13589-1.67989-2.13589-1.67381.79791-1.67381,2.13589S162.35741,165.06628,163.32941,165.06628Zm-2.54971-.65988a.31409.31409,0,0,0-.3181.324.3031.3031,0,0,0,.216.30579l-.2041.87h.288l.252-.828a.97625.97625,0,0,0,.0842-.34778A.314.314,0,0,0,160.77969,164.4064Zm-3.24.23981,1.4281-1.40372a1.729,1.729,0,0,0,.6899-1.31418c0-.70181-.54-1.13382-1.39211-1.13382a1.88745,1.88745,0,0,0-1.4879.59979l.30591.26422a1.42593,1.42593,0,0,1,1.146-.468c.64211,0,.9839.2999.9839.786,0,.28769-.0898.56979-.5638,1.03781l-1.74611,1.71008v.30591h2.946v-.38409Z" transform="translate(-112.3931 -136.1084)" style="fill:#6e6e6e;fill-rule:evenodd"/><path d="M143.13969,141.40891a3.90784,3.90784,0,1,1-3.90759-3.90781,3.908,3.908,0,0,1,3.90759,3.90781" transform="translate(-112.3931 -136.1084)" style="fill:#558e42;fill-rule:evenodd"/><polygon points="26.839 7.704 27.217 6.39 27.596 5.075 26.839 5.075 26.082 5.075 26.46 6.39 26.839 7.704" style="fill:#fdfdfd;fill-rule:evenodd"/><rect x="26.6338" y="2.89639" width="0.38409" height="2.2814" style="fill:#fdfdfd"/><rect x="161.18881" y="71.6618" width="9.13889" height="8.1601" style="fill:#003915"/><path d="M285.20789,243.49921l-.8714-.69281h-.17859v1.575h.224v-1.2529l.85062.67891h.18539v-.17491c0-.45529.1925-.66159.48639-.66159.3045,0,.49359.22389.49359.62979a1.07434,1.07434,0,0,1-.28348.7597l.19959.1225a1.27515,1.27515,0,0,0,.31491-.8822c0-.59129-.31491-.8889-.72461-.8889-.392,0-.6684.26251-.69641.78741m1.17612,2.4957-.819-.8331a1.00742,1.00742,0,0,0-.76639-.4026c-.40973,0-.66171.315-.66171.81219a1.10108,1.10108,0,0,0,.3501.8679l.1539-.1786a.83224.83224,0,0,1-.27289-.6684c0-.3744.1749-.574.45828-.574.16809,0,.33252.05251.6055.32881l.9975,1.01849h.17862v-1.71831H286.384Zm-.14011.9099a.18317.18317,0,0,0,.18912.18539.17675.17675,0,0,0,.17828-.1259l.50769.11911v-.16811l-.483-.1472a.576.576,0,0,0-.203-.049A.18321.18321,0,0,0,286.2439,246.9048Zm-1.036,1.3334-.8714-.69281h-.17859v1.57491h.224v-1.2529l.85062.67889h.18539v-.1749c0-.4552.1925-.66161.48639-.66161.3045,0,.49359.224.49359.62991a1.07433,1.07433,0,0,1-.28348.75969l.19959.12241a1.27487,1.27487,0,0,0,.31491-.8821c0-.59131-.31491-.889-.72461-.889C285.5123,247.4507,285.2359,247.7132,285.20789,248.23821Z" transform="translate(-112.3931 -136.1084)" style="fill:#434242"/><path d="M269.88409,242.0434l-.819-.8331a1.00775,1.00775,0,0,0-.76648-.4026c-.40961,0-.66162.315-.66162.81221a1.10117,1.10117,0,0,0,.3501.86789l.1539-.17859a.83227.83227,0,0,1-.27289-.66841c0-.37439.1749-.574.45828-.574.16812,0,.33252.05249.6055.3288l.99753,1.01849h.17859V240.6958h-.22391Zm-1.2215,1.6449v.31491l-.78061-.08391v-1.1199h-.224v1.3405l1.22861.12581v-.5213c0-.623.1958-.8192.511-.8192.29739,0,.5004.2206.5004.63719a1.06172,1.06172,0,0,1-.28351.75241l.19949.12239a1.26439,1.26439,0,0,0,.315-.8784c0-.59839-.32541-.889-.74191-.889C268.95291,242.6698,268.6626,242.94991,268.6626,243.68829ZM269.744,244.882a.18318.18318,0,0,0,.18912.18539.17674.17674,0,0,0,.17828-.1259l.50772.11909v-.16809l-.483-.1472a.57583.57583,0,0,0-.203-.049A.18323.18323,0,0,0,269.744,244.882Zm-1.036,1.33339-.8714-.69279H267.658v1.57491h.224v-1.2529l.85062.67889h.18539v-.1749c0-.4552.1925-.66161.48639-.66161.3045,0,.49362.22391.49362.6299a1.07455,1.07455,0,0,1-.28351.7597l.19949.12241a1.27469,1.27469,0,0,0,.315-.88211c0-.59129-.315-.889-.72461-.889C269.01239,245.4279,268.736,245.6904,268.708,246.21539Z" transform="translate(-112.3931 -136.1084)" style="fill:#434242"/><path d="M122.1576,250.6275h.6826v-.2486h-.4586v-1.26l2.226,1.008v-.273l-2.2714-1.0253h-.1786Zm2.24,1.2424c0,.4269-.3606.72119-1.0148.72119-.6545,0-1.0151-.2943-1.0151-.72119s.3606-.72081,1.0151-.72081C124.037,251.14909,124.3976,251.443,124.3976,251.8699Zm.231,0c0-.56691-.4655-.9799-1.2458-.9799-.7807,0-1.24609.413-1.24609.9799s.46539.97659,1.24609.97659C124.1631,252.8465,124.6286,252.4369,124.6286,251.8699Zm-.3849,1.4877a.18312.18312,0,0,0,.189.18529.17669.17669,0,0,0,.1783-.12579l.5077.119V253.368l-.483-.14709a.57529.57529,0,0,0-.203-.049A.18318.18318,0,0,0,124.2437,253.35761Zm-.504.49319v.4901h-.567v.2449h.567v1.0641l-1.5821-1.2529v.2798l1.624,1.2986h.182V254.5929h.644v-.252h-.644v-.4901Z" transform="translate(-112.3931 -136.1084)" style="fill:#434242"/><path d="M293.9108,170.6199c0,.3779-.20639.616-.52841.616a.53631.53631,0,0,1-.532-.59869c0-.42351.25558-.64742.5249-.64742a.56706.56706,0,0,1,.53549.63011m-1.2739.0278a.76323.76323,0,0,0,.75259.83649.74159.74159,0,0,0,.7348-.826.78256.78256,0,0,0-.41989-.7489c.07349-.0071.14349-.0105.19959-.0105.665,0,1.0043.3396,1.0043.868a.85855.85855,0,0,1-.11539.47591l.203.10149a1.124,1.124,0,0,0,.133-.5808c0-.6651-.434-1.12-1.26712-1.12C293.0885,169.6434,292.6369,169.9969,292.6369,170.64771Zm2.247,2.4256-.81891-.8331a1.00776,1.00776,0,0,0-.76651-.40251c-.40961,0-.66159.31491-.66159.8121a1.10133,1.10133,0,0,0,.3501.868l.1539-.1786a.832.832,0,0,1-.273-.6684c0-.37451.1749-.574.4584-.574.16809,0,.33252.0524.6055.3288l.9975,1.01849h.17862v-1.7184h-.224Zm-.14.9099a.18317.18317,0,0,0,.18912.18539.17669.17669,0,0,0,.17828-.12579l.50769.119v-.16811l-.48309-.14709a.57293.57293,0,0,0-.20288-.049A.18319.18319,0,0,0,294.7439,173.9832Zm-1.0361,1.3334-.87131-.6927h-.17859v1.57491h.22391v-1.25291l.85071.67891h.18539v-.1749c0-.45531.1925-.66161.48639-.66161.3045,0,.4935.22391.4935.62981a1.07429,1.07429,0,0,1-.28339.75969l.19949.1225a1.2747,1.2747,0,0,0,.315-.88219c0-.59131-.315-.8889-.72461-.8889C294.0123,174.52921,293.7359,174.7917,293.70779,175.3166Z" transform="translate(-112.3931 -136.1084)" style="fill:#434242"/><path d="M121.1576,164.3602h.2239v-.57739h2.2261v-.252h-2.45Zm2.2575,1.1514c0,.434-.1891.68939-.4935.68939-.3011,0-.4901-.2554-.4901-.68939s.189-.69308.4901-.69308C123.226,164.81851,123.4151,165.07761,123.4151,165.5116Zm-1.624.6055c-.273,0-.4411-.23471-.4411-.6055,0-.36758.1681-.60919.4445-.60919.2662,0,.4377.22769.4377.60919C122.2322,165.89291,122.0607,166.1171,121.7911,166.1171Zm.5321-1.078a.55508.55508,0,0,0-.5392-.39209c-.3988,0-.6474.34641-.6474.86459,0,.51791.2486.85751.6474.85751a.553.553,0,0,0,.5392-.38522.61093.61093,0,0,0,.60181.4725c.434,0,.7035-.3569.7035-.94479,0-.5845-.2695-.95209-.7035-.95209A.61676.61676,0,0,0,122.3232,165.03909Zm.9204,1.98792a.18317.18317,0,0,0,.1891.18539.17665.17665,0,0,0,.1783-.12592l.5076.11911v-.16809l-.483-.14709a.5736.5736,0,0,0-.2029-.0491A.1832.1832,0,0,0,123.2436,167.027Zm-2.086,1.60638h.2239V168.056h2.2261v-.252h-2.45Z" transform="translate(-112.3931 -136.1084)" style="fill:#434242"/><path d="M191.39751,163.5098c0,.42691-.3605.7211-1.0148.7211-.65451,0-1.015-.29419-1.015-.7211s.36049-.72089,1.015-.72089c.6543,0,1.0148.294,1.0148.72089m.23109,0c0-.56689-.4655-.98-1.2459-.98-.78061,0-1.24611.41312-1.24611.98s.4655.9765,1.24611.9765C191.1631,164.4863,191.6286,164.07669,191.6286,163.5098Zm-.2135,2.2785c0,.434-.1891.68939-.4935.68939-.301,0-.4901-.2554-.4901-.68939s.1891-.69312.4901-.69312C191.226,165.09518,191.4151,165.35431,191.4151,165.7883Zm-1.624.6055c-.2729,0-.441-.2348-.441-.6055,0-.36771.16811-.60919.4445-.60919.2661,0,.43759.2276.43759.60919C190.23219,166.16949,190.0607,166.3938,189.79111,166.3938Zm.53209-1.07809a.55492.55492,0,0,0-.53909-.392c-.39891,0-.64751.34641-.64751.86459,0,.51791.2486.85751.64751.85751a.55307.55307,0,0,0,.53909-.38531.61113.61113,0,0,0,.60181.4726c.434,0,.7036-.3569.7036-.94479,0-.5845-.26961-.95221-.7036-.95221A.61689.61689,0,0,0,190.3232,165.3157Zm.92041,1.988a.18316.18316,0,0,0,.18909.18539.17677.17677,0,0,0,.1783-.12592l.50771.11911v-.16809l-.483-.14722a.576.576,0,0,0-.203-.049A.1832.1832,0,0,0,191.24361,167.30371Zm-2.086,1.60638h.22391v-.57748h2.2261v-.252h-2.45Z" transform="translate(-112.3931 -136.1084)" style="fill:#434242"/><line x1="173.0549" y1="114.4726" x2="173.0549" y2="144.8203" style="fill:none;stroke:#b1b2b2;stroke-miterlimit:22.92558479309082;stroke-width:0.2160000056028366px"/><line x1="156.55499" y1="112.4725" x2="156.55499" y2="144.8203" style="fill:none;stroke:#b1b2b2;stroke-miterlimit:22.92558479309082;stroke-width:0.2160000056028366px"/><line x1="11.0546" y1="120.9725" x2="11.0546" y2="143.4118" style="fill:none;stroke:#b1b2b2;stroke-miterlimit:22.92558479309082;stroke-width:0.2160000056028366px"/><line x1="181.55481" y1="41.47231" x2="181.55481" y2="69.2059" style="fill:none;stroke:#b1b2b2;stroke-miterlimit:22.92558479309082;stroke-width:0.2160000056028366px"/><line x1="10.0545" y1="34.4724" x2="10.0545" y2="41.22079" style="fill:none;stroke:#b1b2b2;stroke-miterlimit:22.92558479309082;stroke-width:0.2160000056028366px"/><line x1="78.0546" y1="34.22211" x2="78.0546" y2="40.9705" style="fill:none;stroke:#b1b2b2;stroke-miterlimit:22.92558479309082;stroke-width:0.2160000056028366px"/><line x1="173.0549" y1="79.9118" x2="173.0549" y2="105.03351" style="fill:none;stroke:#b1b2b2;stroke-miterlimit:22.92558479309082;stroke-width:0.2160000056028366px"/><line x1="156.55499" y1="74.26401" x2="156.55499" y2="103.0334" style="fill:none;stroke:#b1b2b2;stroke-miterlimit:22.92558479309082;stroke-width:0.2160000056028366px"/><line x1="11.0546" y1="63.7775" x2="11.0546" y2="111.5334" style="fill:none;stroke:#b1b2b2;stroke-miterlimit:22.92558479309082;stroke-width:0.2160000056028366px"/><line x1="181.55481" y1="7.28619" x2="181.55481" y2="32.0332" style="fill:none;stroke:#b1b2b2;stroke-miterlimit:22.92558479309082;stroke-width:0.2160000056028366px"/><line x1="10.0545" y1="7.03671" x2="10.0545" y2="25.03329" style="fill:none;stroke:#b1b2b2;stroke-miterlimit:22.92558479309082;stroke-width:0.2160000056028366px"/><line x1="78.0546" y1="6.31079" x2="78.0546" y2="24.78299" style="fill:none;stroke:#b1b2b2;stroke-miterlimit:22.92558479309082;stroke-width:0.2160000056028366px"/><path d="M295.994,278.0575c-.42349,0-.64767-.2554-.64767-.5249a.56722.56722,0,0,1,.6301-.53549c.3779,0,.616.20641.616.5284a.53605.53605,0,0,1-.59842.532m.021-1.2739a.78351.78351,0,0,0-.74921.41991c-.00681-.0735-.0105-.14351-.0105-.1996,0-.6647.3396-1.0043.86789-1.0043a.861.861,0,0,1,.47629.1153l.10141-.2029a1.12552,1.12552,0,0,0-.58109-.133c-.665,0-1.1199.434-1.1199,1.26709,0,.7733.35349,1.2249,1.00458,1.2249a.76339.76339,0,0,0,.83652-.75259A.74175.74175,0,0,0,296.015,276.7836Zm-2.66382,1.24249.8331-.819a1.0078,1.0078,0,0,0,.40262-.76649c0-.40959-.315-.66159-.81223-.66159a1.10107,1.10107,0,0,0-.86789.3501l.17859.1539a.83229.83229,0,0,1,.66843-.2729c.37439,0,.574.1749.574.4583,0,.16811-.05249.3325-.3288.6055l-1.01849.9975v.1786h1.71829v-.22391Zm-.90988-.14009a.18318.18318,0,0,0-.18542.1891.17679.17679,0,0,0,.12592.1783l-.11911.50769h.16809l.14722-.483a.57633.57633,0,0,0,.049-.203A.18322.18322,0,0,0,292.44131,277.886ZM290.8349,275.8v.224h.57739v2.226h.252V275.8Z" transform="translate(-112.3931 -136.1084)" style="fill:#434242"/><path d="M244.374,278.04c-.4269,0-.72119-.3606-.72119-1.0148,0-.65459.2943-1.01509.72119-1.01509s.72081.3605.72081,1.01509c0,.65421-.2939,1.0148-.72081,1.0148m0,.231c.56691,0,.9799-.4655.9799-1.2458,0-.78069-.413-1.24619-.9799-1.24619s-.97659.4655-.97659,1.24619C243.3974,277.8055,243.807,278.271,244.374,278.271Zm-2.31709-.231c-.4269,0-.7211-.3606-.7211-1.0148,0-.65459.2942-1.01509.7211-1.01509s.7209.3605.7209,1.01509C242.7778,277.6794,242.4838,278.04,242.0569,278.04Zm0,.231c.56689,0,.98-.4655.98-1.2458,0-.78069-.4131-1.24619-.98-1.24619s-.9765.4655-.9765,1.24619C241.0804,277.8055,241.49,278.271,242.0569,278.271Zm-1.48759-.385a.18318.18318,0,0,0-.18541.1891.17666.17666,0,0,0,.1259.1783l-.11909.50769h.16811l.14709-.483a.5745.5745,0,0,0,.0491-.203A.18321.18321,0,0,0,240.56931,277.886Zm-1.3334-1.036.69279-.87141V275.8h-1.575v.224h1.2529l-.67889.8506V277.06h.1749c.45531,0,.6617.1925.6617.4864,0,.3045-.224.49359-.6299.49359a1.07438,1.07438,0,0,1-.7597-.28349l-.12239.19949a1.27429,1.27429,0,0,0,.8821.315c.59129,0,.8889-.315.8889-.72459C240.0233,277.1544,239.76089,276.878,239.2359,276.85Z" transform="translate(-112.3931 -136.1084)" style="fill:#434242"/><path d="M163.9857,278.04c-.4269,0-.72121-.3606-.72121-1.0148,0-.65459.29431-1.01509.72121-1.01509s.72079.3605.72079,1.01509c0,.65421-.2939,1.0148-.72079,1.0148m0,.231c.56689,0,.9799-.4655.9799-1.2458,0-.78069-.413-1.24619-.9799-1.24619s-.97661.4655-.97661,1.24619C163.00909,277.8055,163.4187,278.271,163.9857,278.271Zm-2.1138-.2135c-.42351,0-.64771-.2554-.64771-.5249a.56718.56718,0,0,1,.6301-.53549c.3779,0,.616.20641.616.5284A.536.536,0,0,1,161.8719,278.0575Zm.021-1.2739a.7835.7835,0,0,0-.74919.41991c-.00681-.0735-.01051-.14351-.01051-.1996,0-.6647.3396-1.0043.8679-1.0043a.86112.86112,0,0,1,.4763.1153l.10139-.2029a1.12546,1.12546,0,0,0-.5811-.133c-.665,0-1.11989.434-1.11989,1.26709,0,.7733.35339,1.2249,1.00459,1.2249a.76339.76339,0,0,0,.8365-.75259A.74175.74175,0,0,0,161.8929,276.7836Zm-1.5262,1.1024a.18317.18317,0,0,0-.18539.1891.17669.17669,0,0,0,.12579.1783l-.119.50769h.16811l.14709-.483a.574.574,0,0,0,.049-.203A.18319.18319,0,0,0,160.3667,277.886Zm-.4933-.504h-.4901v-.56691h-.2449v.56691h-1.0641l1.2529-1.582h-.2798l-1.29849,1.624v.182h1.3824v.644h.252v-.644h.4901Z" transform="translate(-112.3931 -136.1084)" style="fill:#434242"/><path d="M270.70551,148.05731c-.42349,0-.64771-.2554-.64771-.525a.56733.56733,0,0,1,.63019-.53549c.37781,0,.61591.20639.61591.52841a.53614.53614,0,0,1-.59839.5321m.021-1.27393a.78358.78358,0,0,0-.74921.4198c-.00681-.07339-.0105-.14337-.0105-.19958,0-.6647.3396-1.0043.868-1.0043a.86053.86053,0,0,1,.4762.11539l.1015-.203a1.12562,1.12562,0,0,0-.58112-.1329c-.665,0-1.12.434-1.12,1.26709,0,.77332.35352,1.22479,1.00461,1.22479a.76327.76327,0,0,0,.83649-.75259A.74175.74175,0,0,0,270.7265,146.78339Zm-2.429-.98358v.22391h.57742v2.22607h.252v-2.45Zm-.35687,2.086a.18318.18318,0,0,0-.18542.18909.17687.17687,0,0,0,.12592.17831l-.11911.5076h.16812l.14719-.483a.57586.57586,0,0,0,.049-.20291A.18321.18321,0,0,0,267.94061,147.8858Zm-1.3334-1.0361.69278-.8714v-.1785H265.7251v.22391h1.2529l-.67889.85068v.18542h.1749c.4552,0,.66159.19238.66159.48639,0,.30438-.22388.4935-.62988.4935a1.07452,1.07452,0,0,1-.7597-.28351l-.12241.19962a1.27483,1.27483,0,0,0,.88211.31488c.59128,0,.889-.31488.889-.72449C267.39471,147.15421,267.1322,146.87781,266.60721,146.8497Z" transform="translate(-112.3931 -136.1084)" style="fill:#434242"/><path d="M203.3212,174.0544h-.3149l.08389-.7807h1.1199v-.22389h-1.3405l-.12579,1.2285h.5213c.623,0,.8192.19589.8192.51109,0,.29739-.22061.50031-.63721.50031a1.0616,1.0616,0,0,1-.7524-.2834l-.12241.19949a1.26438,1.26438,0,0,0,.8784.31491c.5984,0,.889-.32541.889-.74181,0-.4343-.28011-.7245-1.01851-.7245m-2.70909-1.00459v.6826h.2486v-.45871h1.26l-1.008,2.2261h.273l1.0253-2.27141v-.17859Zm-.43741,2.086a.18315.18315,0,0,0-.1853.1891.1767.1767,0,0,0,.12581.1783l-.119.50769h.16811l.14709-.48309a.57494.57494,0,0,0,.049-.2029A.18321.18321,0,0,0,200.1747,175.1358Zm-1.89009.14.8331-.81891a1.00776,1.00776,0,0,0,.4025-.76649c0-.40961-.3149-.66161-.8121-.66161a1.101,1.101,0,0,0-.868.35011l.1786.1539a.8321.8321,0,0,1,.6684-.273c.3745,0,.574.1749.574.4584,0,.16811-.0524.3325-.3288.6055l-1.01849.9975v.1786h1.7184v-.224Z" transform="translate(-112.3931 -136.1084)" style="fill:#434242"/><path d="M162.3334,158.78979c-.42691,0-.72121-.3606-.72121-1.0148,0-.65448.2943-1.01511.72121-1.01511s.72079.36063.72079,1.01511c0,.65421-.2939,1.0148-.72079,1.0148m0,.231c.56689,0,.97989-.46542.97989-1.24582,0-.7807-.413-1.24609-.97989-1.24609s-.97661.46539-.97661,1.24609C161.3568,158.55539,161.7664,159.02081,162.3334,159.02081Zm-2.3905-2.47092v.22391h.57739v2.2261h.252v-2.45Zm-.3569,2.086a.18317.18317,0,0,0-.18539.18912.17675.17675,0,0,0,.1259.17828l-.11911.5076h.16811l.14709-.483a.57357.57357,0,0,0,.0491-.20288A.18321.18321,0,0,0,159.586,158.63589Zm-1.6064-2.086v.22391h.57741v2.2261h.252v-2.45Z" transform="translate(-112.3931 -136.1084)" style="fill:#434242"/><line x1="176.79919" y1="140.9817" x2="170.05069" y2="140.9817" style="fill:none;stroke:#b1b2b2;stroke-miterlimit:22.92558479309082;stroke-width:0.2160000056028366px"/><line x1="124.7993" y1="140.9817" x2="102.45401" y2="140.9817" style="fill:none;stroke:#b1b2b2;stroke-miterlimit:22.92558479309082;stroke-width:0.2160000056028366px"/><line x1="44.2993" y1="140.9817" x2="8.2038" y2="140.9817" style="fill:none;stroke:#b1b2b2;stroke-miterlimit:22.92558479309082;stroke-width:0.2160000056028366px"/><line x1="151.54932" y1="10.98141" x2="124.0504" y2="10.98141" style="fill:none;stroke:#b1b2b2;stroke-miterlimit:22.92558479309082;stroke-width:0.2160000056028366px"/><line x1="84.0493" y1="38.2314" x2="63.2325" y2="38.2314" style="fill:none;stroke:#b1b2b2;stroke-miterlimit:22.92558479309082;stroke-width:0.2160000056028366px"/><line x1="43.64281" y1="21.73151" x2="36.89441" y2="21.73151" style="fill:none;stroke:#b1b2b2;stroke-miterlimit:22.92558479309082;stroke-width:0.2160000056028366px"/><line x1="192.98669" y1="140.9817" x2="186.23819" y2="140.9817" style="fill:none;stroke:#b1b2b2;stroke-miterlimit:22.92558479309082;stroke-width:0.2160000056028366px"/><line x1="160.32901" y1="140.9817" x2="134.2384" y2="140.9817" style="fill:none;stroke:#b1b2b2;stroke-miterlimit:22.92558479309082;stroke-width:0.2160000056028366px"/><line x1="98.3288" y1="140.9817" x2="53.7384" y2="140.9817" style="fill:none;stroke:#b1b2b2;stroke-miterlimit:22.92558479309082;stroke-width:0.2160000056028366px"/><line x1="184.95441" y1="10.98141" x2="160.98831" y2="10.98141" style="fill:none;stroke:#b1b2b2;stroke-miterlimit:22.92558479309082;stroke-width:0.2160000056028366px"/><line x1="117.41701" y1="38.2314" x2="93.4883" y2="38.2314" style="fill:none;stroke:#b1b2b2;stroke-miterlimit:22.92558479309082;stroke-width:0.2160000056028366px"/><line x1="59.83031" y1="21.73151" x2="53.08191" y2="21.73151" style="fill:none;stroke:#b1b2b2;stroke-miterlimit:22.92558479309082;stroke-width:0.2160000056028366px"/></svg>