<svg id="Слой_1" data-name="Слой 1" xmlns="http://www.w3.org/2000/svg" viewBox="0 0 163.5222 137.12938"><title>1.09.09</title><polygon points="161.085 0 161.085 69.683 158.087 69.683 158.087 137.129 0.238 137.129 0.238 51.803 6.426 51.803 6.426 0 161.085 0" style="fill:#fff;fill-rule:evenodd"/><path d="M224.1198,176.1163h-27.6553v16.51689h27.6553Zm-28.0304-.75h28.7805v18.017H195.7144v-18.017Z" transform="translate(-130.8373 -144.03381)" style="fill:#fff"/><rect x="51.3768" y="31.33249" width="13.8873" height="18.01669" style="fill:#fff"/><path d="M137.884,268.6964v2.5432h6.8201v-2.5432Zm3.92819-4.44159v2.5432h2.89191v-2.5432Zm-3.96109,0v2.5432H140.743v-2.5432Zm-4.1219-.92921H145.9641V272.412H133.7292Z" transform="translate(-130.8373 -144.03381)" style="fill:#fff;fill-rule:evenodd"/><path d="M150.8409,193.40759h-2.54329v6.9599h2.54329Zm4.33611,0h-2.5432v6.9599h2.5432Zm4.4416,4.068h-2.54321v2.89189h2.54321Zm0-4.068h-2.54321v2.89191h2.54321Zm-17.47331-2.72009h20.0639v12.524h-20.0639Z" transform="translate(-130.8373 -144.03381)" style="fill:#fff;fill-rule:evenodd"/><path d="M177.36321,230.1299a.374.374,0,1,0-.37471-.6474l-13.92009,8.0399a.374.374,0,1,0,.37469.6474Z" transform="translate(-130.8373 -144.03381)" style="fill:#fff"/><path d="M204.20329,217.5336a.374.374,0,1,0-.6474.37469l8.0399,13.92011a.374.374,0,1,0,.6474-.37469Z" transform="translate(-130.8373 -144.03381)" style="fill:#fff"/><path d="M259.6127,203.2872a.374.374,0,1,0,.64749-.37469l-8.03989-13.92011a.37405.37405,0,0,0-.64751.37469Z" transform="translate(-130.8373 -144.03381)" style="fill:#fff"/><rect x="67.18761" y="93.39899" width="2.6022" height="38.7468" style="fill:#fff"/><rect x="70.7267" y="91.09758" width="2.6022" height="41.7319" style="fill:#fff"/><rect x="70.7267" y="91.09758" width="2.6022" height="41.7319" style="fill:#fff"/><rect x="70.7267" y="68.75198" width="2.6022" height="4.9122" style="fill:#fff"/><rect x="70.7267" y="68.75198" width="56.03979" height="2.6022" style="fill:#fff"/><rect x="5.0023" y="93.39899" width="27.39259" height="2.6022" style="fill:#fff"/><rect x="47.67081" y="93.39899" width="24.8913" height="2.6022" style="fill:#fff"/><rect x="5.4621" y="132.12738" width="147.68221" height="5.002" style="fill:#fff"/><rect x="6.20221" width="157.31999" height="4.94958" style="fill:#fff"/><rect x="0.09561" width="6.42549" height="4.68738" style="fill:#fff"/><rect x="0.09561" y="51.80258" width="6.42549" height="19.6653" style="fill:#fff"/><rect x="0.09561" y="91.63438" width="6.42549" height="45.495" style="fill:#fff"/><rect x="6.44231" y="2.28748" width="6.4256" height="56.89021" style="fill:#fff"/><rect x="124.51331" width="8.15999" height="3.4874" style="fill:#fff"/><rect x="124.51331" width="8.15999" height="27.75508" style="fill:#fff"/><rect x="124.51331" y="63.19418" width="38.87999" height="8.16" style="fill:#fff"/><rect x="124.51331" y="59.16359" width="8.15999" height="10.50209" style="fill:#fff"/><rect x="149.72371" y="63.49348" width="8.1601" height="23.5137" style="fill:#fff"/><rect x="149.72371" y="116.51439" width="8.1601" height="20.61499" style="fill:#fff"/><rect x="149.72371" y="63.19418" width="13.79849" height="10.6219" style="fill:#fff"/><rect x="152.7256" y="102.00558" width="2.29861" height="0.50169" style="fill:#fff"/><rect x="152.7256" y="100.80739" width="2.29861" height="0.5011" style="fill:#fff"/><rect x="152.7256" y="88.16989" width="2.29861" height="0.5015" style="fill:#fff"/><rect x="152.7256" y="86.97168" width="2.29861" height="0.50121" style="fill:#fff"/><rect x="152.7256" y="116.11728" width="2.29861" height="0.50171" style="fill:#fff"/><rect x="152.7256" y="114.91939" width="2.29861" height="0.5011" style="fill:#fff"/><rect x="149.72371" y="84.91489" width="0.5015" height="34.0937" style="fill:#fff"/><rect x="152.57091" y="84.91489" width="0.5014" height="34.0937" style="fill:#fff"/><rect x="154.7422" y="84.91489" width="0.5014" height="34.0937" style="fill:#fff"/><rect x="157.38319" y="84.91489" width="0.5015" height="34.0937" style="fill:#fff"/><path d="M260.1629,184.2429H258.493v.6971h1.66989Zm0-13.56911H258.493v13.0677h1.66989Zm0-1.1982H258.493v.697h1.66989Zm-1.66989-.50182h1.66989v-5.7894h.5015V184.94H263.01V163.18439h.5015v22.25681h-8.1609V163.18439h.5014V184.94h2.1396V166.88809h.5014Z" transform="translate(-130.8373 -144.03381)" style="fill:#fff;fill-rule:evenodd"/><rect x="158.36711" y="42.61798" width="1.29718" height="0.4471" style="fill:#fff"/><rect x="158.36711" y="41.55019" width="1.29718" height="0.44679" style="fill:#fff"/><rect x="158.36711" y="24.01599" width="1.29718" height="0.44699" style="fill:#fff"/><rect x="158.36711" y="22.94809" width="1.29718" height="0.44681" style="fill:#fff"/><rect x="158.36711" y="5.41357" width="1.29718" height="0.44702" style="fill:#fff"/><rect x="158.36711" y="4.34579" width="1.29718" height="0.44669" style="fill:#fff"/><rect x="158.36711" y="61.22038" width="1.29718" height="0.44701" style="fill:#fff"/><rect x="158.36711" y="60.15259" width="1.29718" height="0.4467" style="fill:#fff"/><rect x="160.44691" y="2.27899" width="0.44678" height="60.82129" style="fill:#fff"/><rect x="159.35561" y="2.27899" width="0.44669" height="60.82129" style="fill:#fff"/><rect x="158.2747" y="2.27899" width="0.44681" height="60.82129" style="fill:#fff"/><path d="M179.015,275.7269h-9.8224a.90535.90535,0,0,1-.9054-.904V270.2126a4.59567,4.59567,0,0,1,4.5896-4.5909h2.4523a4.59564,4.59564,0,0,1,4.59039,4.5909v4.61031a.90477.90477,0,0,1-.9045.904m-6.1382-9.8606a4.351,4.351,0,0,0-4.34489,4.3463v4.61031a.66142.66142,0,0,0,.66069.6599h9.8224a.66073.66073,0,0,0,.6599-.6599V270.2126a4.35137,4.35137,0,0,0-4.34579-4.3463Z" transform="translate(-130.8373 -144.03381)" style="fill:#fff"/><path d="M172.87711,266.9565a3.25877,3.25877,0,0,0-3.2545,3.2561v2.6881a.56787.56787,0,0,0,.56729.5675h3.5753v.24519h-3.5753a.81412.81412,0,0,1-.8125-.8127v-2.6881a3.50413,3.50413,0,0,1,3.49971-3.5007h2.4523a3.50458,3.50458,0,0,1,3.50069,3.5007v2.6881a.81446.81446,0,0,1-.81349.8127h-3.5753v-.24519h3.5753a.56821.56821,0,0,0,.5683-.5675v-2.6881a3.2593,3.2593,0,0,0-3.25549-3.2561Z" transform="translate(-130.8373 -144.03381)" style="fill:#fff"/><path d="M174.1039,270.5602a.7835.7835,0,1,1,.7838-.78349.78479.78479,0,0,1-.7838.78349m0-1.3224a.53875.53875,0,1,0,.5392.53891A.53963.53963,0,0,0,174.1039,269.23779Z" transform="translate(-130.8373 -144.03381)" style="fill:#fff"/><rect x="43.14421" y="125.18498" width="0.24489" height="1.11661" style="fill:#fff"/><rect x="42.70821" y="125.62039" width="1.116" height="0.2455" style="fill:#fff"/><path d="M174.4413,274.5446h.40359a.17374.17374,0,0,0,.17291-.1741v-.3793a.17364.17364,0,0,0-.17291-.174h-.40359v-.2449h.40359a.41867.41867,0,0,1,.41811.4189v.3793a.41863.41863,0,0,1-.41811.4187h-.40559l.002-.0374Zm-1.07719-.7274a.17446.17446,0,0,0-.1741.174v.3793a.17456.17456,0,0,0,.1741.1741h.40109v.2072l.0023.0374h-.4034a.41863.41863,0,0,1-.4187-.4187v-.3793a.41867.41867,0,0,1,.4187-.4189h.40109v.2449Z" transform="translate(-130.8373 -144.03381)" style="fill:#fff"/><path d="M174.1039,275.2121a.46109.46109,0,0,1-.4612-.4603v-3.0804a.4605.4605,0,0,1,.921,0v3.0804a.46054.46054,0,0,1-.45981.4603m0-3.7567a.21669.21669,0,0,0-.2162.216v3.0804a.21555.21555,0,0,0,.43111,0v-3.0804A.21609.21609,0,0,0,174.1039,271.4554Z" transform="translate(-130.8373 -144.03381)" style="fill:#fff"/><path d="M153.29649,261.72771a3.91687,3.91687,0,0,0-3.9115,3.91289V271.306a.67729.67729,0,0,0,.4561.63921,1.24882,1.24882,0,0,0-.2036.2049.94578.94578,0,0,1-.5215-.8441v-5.66541a4.1808,4.1808,0,1,1,8.3616,0V271.306a.94552.94552,0,0,1-.521.8436,1.23808,1.23808,0,0,0-.2032-.2047.67639.67639,0,0,0,.45549-.6389v-5.66541a3.91706,3.91706,0,0,0-3.9124-3.91289" transform="translate(-130.8373 -144.03381)" style="fill:#fff"/><path d="M156.1003,270.2251h-5.609a.20391.20391,0,0,1-.2012-.20149V265.7529a3.00655,3.00655,0,1,1,6.01311,0v4.27071a.20466.20466,0,0,1-.20291.20149m-5.54149-.2681h5.476v-4.2041a2.738,2.738,0,0,0-5.476,0Z" transform="translate(-130.8373 -144.03381)" style="fill:#fff"/><path d="M153.2962,267.4942a1.00815,1.00815,0,1,1,1.0089-1.008,1.01,1.01,0,0,1-1.0089,1.008m0-1.7475a.7394.7394,0,1,0,.7399.7395A.74037.74037,0,0,0,153.2962,265.7467Z" transform="translate(-130.8373 -144.03381)" style="fill:#fff"/><rect x="150.55371" y="268.43613" width="2.24223" height="0.26853" transform="translate(-285.12395 85.51238) rotate(-53.27585)" style="fill:#fff"/><rect x="154.73955" y="267.44865" width="0.26914" height="2.24309" transform="translate(-260.87734 2.30765) rotate(-36.81017)" style="fill:#fff"/><path d="M155.9971,275.7269h-5.4006a1.355,1.355,0,0,1-1.3524-1.35381V272.8988a1.35353,1.35353,0,0,1,1.3524-1.35251h5.4006a1.35322,1.35322,0,0,1,1.35181,1.35251v1.47429a1.35471,1.35471,0,0,1-1.35181,1.35381m-5.4006-3.91209a1.08542,1.08542,0,0,0-1.0842,1.084v1.47429a1.08586,1.08586,0,0,0,1.0842,1.08511h5.4006a1.086,1.086,0,0,0,1.08369-1.08511V272.8988a1.08557,1.08557,0,0,0-1.08369-1.084Z" transform="translate(-130.8373 -144.03381)" style="fill:#fff"/><path d="M153.2962,274.3246a.6881.6881,0,1,1,.68829-.68739.68809.68809,0,0,1-.68829.68739m0-1.10721a.41925.41925,0,1,0,.41949.41981A.41936.41936,0,0,0,153.2962,273.21739Z" transform="translate(-130.8373 -144.03381)" style="fill:#fff"/><path d="M145.6628,252.21429H137.8233v-11.3479h7.83949Zm-8.1709.3309h8.50261v-12.0099H137.4919Z" transform="translate(-130.8373 -144.03381)" style="fill:#fff"/><path d="M145.8873,249.8199a.6044.6044,0,0,0,.61259-.5936V243.8541a.604.604,0,0,0-.61259-.5938v.3308a.26967.26967,0,0,1,.2809.263v5.37221a.26945.26945,0,0,1-.2809.2628Z" transform="translate(-130.8373 -144.03381)" style="fill:#fff"/><path d="M143.2607,247.5621h-2.7076l-.6217-1.59731a2.47426,2.47426,0,0,1,1.6747.0918,4.15152,4.15152,0,0,0,1.2408.2413,2.44918,2.44918,0,0,0,.93651-.1882Zm-2.9341.3308h3.16679l.89211-2.48-.39059.22479a2.26675,2.26675,0,0,1-1.148.32941,3.8904,3.8904,0,0,1-1.1438-.22681,3.89773,3.89773,0,0,0-1.14409-.2282,2.01724,2.01724,0,0,0-.9124.218l-.1358.06749Z" transform="translate(-130.8373 -144.03381)" style="fill:#fff"/><path d="M183.04919,273.5757v-30.085a2.161,2.161,0,0,1,2.16571-2.15149H195.6263a2.16087,2.16087,0,0,1,2.16591,2.15149v30.085a2.16082,2.16082,0,0,1-2.16591,2.1512H185.2149a2.161,2.161,0,0,1-2.16571-2.1512m14.51311-30.085a1.93114,1.93114,0,0,0-1.936-1.92189H185.2149a1.931,1.931,0,0,0-1.9355,1.92189v30.085a1.93134,1.93134,0,0,0,1.9355,1.9221H195.6263a1.93145,1.93145,0,0,0,1.936-1.9221Z" transform="translate(-130.8373 -144.03381)" style="fill:#fff"/><path d="M196.30029,246.4765a2.577,2.577,0,0,0-2.582-2.5654h-6.5948a2.5766,2.5766,0,0,0-2.5818,2.5654v24.1132a2.577,2.577,0,0,0,2.5818,2.56589h2.06189a.39564.39564,0,0,0-.142.22821H187.1235a2.80641,2.80641,0,0,1-2.81261-2.7941V246.4765a2.8066,2.8066,0,0,1,2.81261-2.7944h6.5948a2.80651,2.80651,0,0,1,2.81219,2.7944v24.1132a2.80632,2.80632,0,0,1-2.81219,2.7941H191.7981a.39536.39536,0,0,0-.14149-.22821h2.06171a2.57744,2.57744,0,0,0,2.582-2.56589Z" transform="translate(-130.8373 -144.03381)" style="fill:#fff"/><path d="M194.98711,248.0239a1.26665,1.26665,0,0,0-1.2688-1.26109h-6.5948a1.26636,1.26636,0,0,0-1.26831,1.26109v22.56581a1.26629,1.26629,0,0,0,1.26831,1.2614h2.8448v.2287h-2.8448a1.49621,1.49621,0,0,1-1.499-1.4901V248.0239a1.49564,1.49564,0,0,1,1.499-1.48929h6.5948a1.49522,1.49522,0,0,1,1.49889,1.48929v22.56581a1.49579,1.49579,0,0,1-1.49889,1.4901h-2.84521v-.2287h2.84521a1.26659,1.26659,0,0,0,1.2688-1.2614Z" transform="translate(-130.8373 -144.03381)" style="fill:#fff"/><path d="M189.688,268.68449a.73331.73331,0,1,1,.7336.7299.73144.73144,0,0,1-.7336-.7299m1.23639,0a.50326.50326,0,1,0-.50279.50031A.50189.50189,0,0,0,190.92439,268.68449Z" transform="translate(-130.8373 -144.03381)" style="fill:#fff"/><rect x="59.061" y="124.53648" width="1.0457" height="0.22931" style="fill:#fff"/><rect x="59.4689" y="124.13219" width="0.2307" height="1.0378" style="fill:#fff"/><path d="M189.96831,273.18449h-.53741a.27991.27991,0,0,0-.2804.27861v.50519a.28042.28042,0,0,0,.2804.27921h.53741v.2287h-.53741a.51032.51032,0,0,1-.51109-.5079v-.50519a.50971.50971,0,0,1,.51109-.5074h.53741Zm1.72209.27861a.27985.27985,0,0,0-.28011-.27861h-.5372v-.22879h.5372a.50926.50926,0,0,1,.5108.5074v.50519a.50987.50987,0,0,1-.5108.5079h-.5372v-.2287h.5372a.28035.28035,0,0,0,.28011-.27921Z" transform="translate(-130.8373 -144.03381)" style="fill:#fff"/><path d="M189.85291,274.4743v-3.2012a.56766.56766,0,0,1,1.1353,0v3.2012a.56766.56766,0,0,1-1.1353,0m.90509-3.2012a.33715.33715,0,0,0-.6743,0v3.2012a.33716.33716,0,0,0,.6743,0Z" transform="translate(-130.8373 -144.03381)" style="fill:#fff"/><path d="M144.01421,187.7724V176.0032H155.7831v11.7692Zm.24939-11.51981v11.2706h11.2706v-11.2706Z" transform="translate(-130.8373 -144.03381)" style="fill:#fff"/><path d="M154.68491,181.88789a3.91958,3.91958,0,0,0-7.7142-.9816.30008.30008,0,0,0-.1976-.0743h-.0405a4.16846,4.16846,0,1,1-.00031,2.1115h.0408a.29834.29834,0,0,0,.1973-.0739,3.91975,3.91975,0,0,0,7.71451-.9817" transform="translate(-130.8373 -144.03381)" style="fill:#fff"/><path d="M147.28419,181.88789a3.4815,3.4815,0,1,1,3.48181,3.48131,3.48578,3.48578,0,0,1-3.48181-3.48131m6.71361,0a3.2319,3.2319,0,1,0-3.2318,3.23181A3.23548,3.23548,0,0,0,153.9978,181.88789Z" transform="translate(-130.8373 -144.03381)" style="fill:#fff"/><path d="M149.86349,181.88789a.90225.90225,0,1,1,.90251.9026.90333.90333,0,0,1-.90251-.9026m1.5556,0a.65295.65295,0,1,0-.65309.65311A.65424.65424,0,0,0,151.4191,181.88789Z" transform="translate(-130.8373 -144.03381)" style="fill:#fff"/><rect x="19.27141" y="37.72939" width="1.3138" height="0.2494" style="fill:#fff"/><rect x="19.80341" y="37.19728" width="0.2498" height="1.3136" style="fill:#fff"/><path d="M145.9593,182.64169V181.1342a.427.427,0,0,1,.42659-.42661h.38721a.42681.42681,0,0,1,.42661.42661v1.50749a.42687.42687,0,0,1-.42661.42661h-.38721a.42706.42706,0,0,1-.42659-.42661m.991-1.50749a.17773.17773,0,0,0-.1772-.17751h-.38721a.17745.17745,0,0,0-.17709.17751v1.50749a.17711.17711,0,0,0,.17709.17711h.38721a.17739.17739,0,0,0,.1772-.17711Z" transform="translate(-130.8373 -144.03381)" style="fill:#fff"/><path d="M146.084,181.668h-.0864a.21965.21965,0,1,0,0,.4393h.0864v.2498h-.0864a.46945.46945,0,0,1,0-.9389h.0864Zm2.59.21989a.2204.2204,0,0,0-.22049-.21989H147.075v-.2498h1.37851a.46945.46945,0,1,1,0,.9389H147.075v-.2498h1.37851A.22.22,0,0,0,148.674,181.88789Z" transform="translate(-130.8373 -144.03381)" style="fill:#fff"/><path d="M144.4955,159.10761v7.15659a1.496,1.496,0,0,0,1.49471,1.49411h8.29869a1.49593,1.49593,0,0,0,1.4942-1.49411v-7.15659a1.4957,1.4957,0,0,0-1.4942-1.4942H145.9902a1.4958,1.4958,0,0,0-1.49471,1.4942m11.0545,7.15659a1.26256,1.26256,0,0,1-1.26111,1.26111H145.9902a1.26275,1.26275,0,0,1-1.2617-1.26111v-7.15659a1.26307,1.26307,0,0,1,1.2617-1.26172h8.29869a1.26289,1.26289,0,0,1,1.26111,1.26172Z" transform="translate(-130.8373 -144.03381)" style="fill:#fff"/><path d="M145.31441,159.10761v7.15659a.67623.67623,0,0,0,.6758.67581h7.0107a.67635.67635,0,0,0,.6757-.67581v-7.15659a.67653.67653,0,0,0-.6757-.67639h-7.0107a.67642.67642,0,0,0-.6758.67639m8.1292,7.15659a.44324.44324,0,0,1-.4427.44312h-7.0107a.44358.44358,0,0,1-.4431-.44312v-7.15659a.44387.44387,0,0,1,.4431-.44391h7.0107a.44353.44353,0,0,1,.4427.44391Z" transform="translate(-130.8373 -144.03381)" style="fill:#fff"/><path d="M154.09531,165.564a.47424.47424,0,1,0,.4742-.47418.47511.47511,0,0,0-.4742.47418m.7155,0a.24126.24126,0,1,1-.2413-.24149A.24187.24187,0,0,1,154.81081,165.564Z" transform="translate(-130.8373 -144.03381)" style="fill:#fff"/><path d="M154.09531,163.96329a.47424.47424,0,1,0,.4742-.47479.475.475,0,0,0-.4742.47479m.7155,0a.24126.24126,0,1,1-.2413-.24179A.24163.24163,0,0,1,154.81081,163.96329Z" transform="translate(-130.8373 -144.03381)" style="fill:#fff"/><rect x="16.6196" y="19.25739" width="0.23271" height="2.7196" style="fill:#fff"/><rect x="15.37541" y="20.50067" width="2.71959" height="0.23273" style="fill:#fff"/><path d="M146.67619,164.651a.8969.8969,0,1,0,.89691-.89661.898.898,0,0,0-.89691.89661m1.561,0a.6643.6643,0,1,1-.66409-.66391A.66555.66555,0,0,1,148.2372,164.651Z" transform="translate(-130.8373 -144.03381)" style="fill:#fff"/><rect x="20.46471" y="19.25739" width="0.2325" height="2.7196" style="fill:#fff"/><rect x="19.22031" y="20.50067" width="2.7204" height="0.23273" style="fill:#fff"/><path d="M150.52049,164.651a.8972.8972,0,1,0,.89751-.89661.89867.89867,0,0,0-.89751.89661m1.5619,0a.6647.6647,0,1,1-.6644-.66391A.66542.66542,0,0,1,152.0824,164.651Z" transform="translate(-130.8373 -144.03381)" style="fill:#fff"/><rect x="16.6196" y="15.32687" width="0.23271" height="2.7193" style="fill:#fff"/><rect x="15.37541" y="16.56958" width="2.71959" height="0.233" style="fill:#fff"/><path d="M146.67619,160.71991a.8969.8969,0,1,0,.89691-.89691.89783.89783,0,0,0-.89691.89691m1.561,0a.6643.6643,0,1,1-.66409-.66391A.666.666,0,0,1,148.2372,160.71991Z" transform="translate(-130.8373 -144.03381)" style="fill:#fff"/><rect x="20.46471" y="15.32687" width="0.2325" height="2.7193" style="fill:#fff"/><rect x="19.22031" y="16.56958" width="2.7204" height="0.233" style="fill:#fff"/><path d="M150.52049,160.71991a.8972.8972,0,1,0,.89751-.89691.89853.89853,0,0,0-.89751.89691m1.5619,0a.6647.6647,0,1,1-.6644-.66391A.66592.66592,0,0,1,152.0824,160.71991Z" transform="translate(-130.8373 -144.03381)" style="fill:#fff"/><path d="M154.09531,161.24969a.47424.47424,0,1,0,.4742-.47449.47477.47477,0,0,0-.4742.47449m.7155,0a.24126.24126,0,1,1-.2413-.24179A.2417.2417,0,0,1,154.81081,161.24969Z" transform="translate(-130.8373 -144.03381)" style="fill:#fff"/><path d="M154.09531,159.6481a.47424.47424,0,1,0,.4742-.47391.47467.47467,0,0,0-.4742.47391m.7155,0a.24126.24126,0,1,1-.2413-.24152A.24172.24172,0,0,1,154.81081,159.6481Z" transform="translate(-130.8373 -144.03381)" style="fill:#fff"/><path d="M139.73129,273.7562a.80936.80936,0,1,0,.23471.57091.81017.81017,0,0,0-.23471-.57091m-.57259-1.0363a1.6069,1.6069,0,1,1-1.13641.4705A1.60309,1.60309,0,0,1,139.15871,272.71989Z" transform="translate(-130.8373 -144.03381)" style="fill:#fff"/><rect x="0.09561" width="1.06039" height="59.63869" style="fill:#fff"/><path d="M244.7289,187.3772c-.732,0-1.236-.6179-1.236-1.7399s.504-1.7399,1.236-1.7399,1.2359.618,1.2359,1.7399-.504,1.7399-1.2359,1.7399m0,.396c.972,0,1.67981-.7979,1.67981-2.13589s-.70781-2.13589-1.67981-2.13589-1.6739.798-1.6739,2.13589S243.7569,187.77319,244.7289,187.77319Zm-3.6301-2.43579,1.188-1.49411v-.30589h-2.7v.3838h2.14809l-1.16389,1.45819v.318h.2999c.7798,0,1.13391.33,1.13391.834,0,.52179-.38391.84579-1.08.84579a1.84154,1.84154,0,0,1-1.302-.48579l-.21.3418a2.1845,2.1845,0,0,0,1.512.54c1.0139,0,1.5239-.54,1.5239-1.24179C242.4487,185.8593,241.99879,185.3853,241.0988,185.3374Zm-2.4299,1.77589a.31406.31406,0,0,0-.318.324.30322.30322,0,0,0,.216.30589l-.2041.8699h.288l.252-.828a.97556.97556,0,0,0,.0842-.34779A.314.314,0,0,0,238.6689,187.1133Zm-2.5619-1.4281c-.648,0-1.05589-.354-1.05589-.9059a.919.919,0,0,1,1.0258-.9119c.726,0,1.11009.4379,1.11009.9A.97212.97212,0,0,1,236.107,185.6852Zm-.0479-2.18379a1.30854,1.30854,0,0,0-1.4341,1.28979,1.27149,1.27149,0,0,0,1.41589,1.26,1.34218,1.34218,0,0,0,1.2841-.72c.0119.12611.0179.246.0179.3421,0,1.1398-.582,1.72211-1.4879,1.72211a1.472,1.472,0,0,1-.8158-.1982l-.1741.3481a1.9273,1.9273,0,0,0,.9958.22789c1.14011,0,1.92-.74409,1.92-2.17189C237.7809,184.2753,237.17509,183.5014,236.0591,183.5014Zm-3.7321.036v.3838h.9901v3.816h.432v-4.1998Z" transform="translate(-130.8373 -144.03381)" style="fill:#fff;fill-rule:evenodd"/><path d="M243.2047,248.57719c-.7319,0-1.2359-.61789-1.2359-1.7399s.504-1.7399,1.2359-1.7399,1.2359.618,1.2359,1.7399-.504,1.7399-1.2359,1.7399m0,.396c.972,0,1.67981-.79791,1.67981-2.13591s-.70781-2.13589-1.67981-2.13589-1.67389.798-1.67389,2.13589S242.2327,248.97321,243.2047,248.97321Zm-5.20779-4.23581v1.16991h.426v-.7861h2.16l-1.728,3.816h.468l1.758-3.89389v-.30591Zm-.7498,3.5759a.31414.31414,0,0,0-.3181.324.30326.30326,0,0,0,.216.30591l-.2041.86989h.288l.252-.828a.97549.97549,0,0,0,.0842-.34779A.314.314,0,0,0,237.2471,248.31329Zm-2.7542-3.5759v.3838h.99019v3.816h.432v-4.1998Zm-2.16591,0v.3838h.9901v3.816h.432v-4.1998Z" transform="translate(-130.8373 -144.03381)" style="fill:#fff;fill-rule:evenodd"/><path d="M170.6709,254.57761c-.7319,0-1.2359-.618-1.2359-1.73991s.504-1.7399,1.2359-1.7399,1.2359.6179,1.2359,1.7399-.504,1.73991-1.2359,1.73991m0,.396c.972,0,1.67979-.798,1.67979-2.13591s-.70779-2.13589-1.67979-2.13589-1.6739.7979-1.6739,2.13589S169.6989,254.9736,170.6709,254.9736Zm-4.5-.42011,1.4281-1.4037a1.729,1.729,0,0,0,.6899-1.31419c0-.7018-.54-1.1338-1.392-1.1338a1.88745,1.88745,0,0,0-1.488.59981l.30589.26419a1.42609,1.42609,0,0,1,1.1461-.468c.642,0,.9839.29991.9839.786,0,.28769-.0899.56979-.5639,1.0378l-1.74609,1.7101v.30591h2.94609v-.38411Zm-1.55991-.23979a.31408.31408,0,0,0-.3181.324.30312.30312,0,0,0,.216.3058l-.204.87h.288l.252-.828a.97751.97751,0,0,0,.08411-.34781A.314.314,0,0,0,164.611,254.31371Zm-2.62209-1.8542h-.54l.144-1.33791h1.92v-.3838H161.2151l-.216,2.1058h.894c1.06781,0,1.40381.33591,1.40381.8759,0,.51-.3779.85811-1.092.85811a1.821,1.821,0,0,1-1.29-.4859l-.20981.34189a2.16864,2.16864,0,0,0,1.50581.54c1.02609,0,1.5239-.55791,1.5239-1.2719C163.7348,252.9576,163.2549,252.4595,161.98891,252.4595Z" transform="translate(-130.8373 -144.03381)" style="fill:#fff;fill-rule:evenodd"/><path d="M155.01,224.32c-.73189,0-1.2359-.61789-1.2359-1.7399s.504-1.7399,1.2359-1.7399,1.236.618,1.236,1.7399-.504,1.7399-1.236,1.7399m0,.396c.972,0,1.6799-.7979,1.6799-2.13591s-.7079-2.13589-1.6799-2.13589-1.6738.798-1.6738,2.13589S154.038,224.716,155.01,224.716Zm-3.97189-.396c-.7319,0-1.2359-.61789-1.2359-1.7399s.504-1.7399,1.2359-1.7399,1.2359.618,1.2359,1.7399S151.77,224.32,151.0381,224.32Zm0,.396c.972,0,1.6799-.7979,1.6799-2.13591s-.7079-2.13589-1.6799-2.13589-1.6738.798-1.6738,2.13589S150.0661,224.716,151.0381,224.716Zm-2.5497-.6599a.31413.31413,0,0,0-.3181.324.30324.30324,0,0,0,.216.30591l-.2041.86989h.288l.252-.828a.97563.97563,0,0,0,.0842-.34781A.314.314,0,0,0,148.4884,224.05611Zm-3.24.23979,1.4281-1.4037a1.729,1.729,0,0,0,.6899-1.3141c0-.70189-.54-1.1339-1.39209-1.1339a1.88738,1.88738,0,0,0-1.4879.59981l.30589.26419a1.42634,1.42634,0,0,1,1.146-.468c.64211,0,.9839.29991.9839.7861,0,.2877-.0898.5697-.5638,1.0377l-1.74609,1.71021V224.68h2.946v-.38409Z" transform="translate(-130.8373 -144.03381)" style="fill:#fff;fill-rule:evenodd"/><path d="M280.9032,183.51869c-.7319,0-1.2359-.618-1.2359-1.7399s.504-1.7399,1.2359-1.7399,1.2359.6179,1.2359,1.7399-.504,1.7399-1.2359,1.7399m0,.396c.972,0,1.67981-.798,1.67981-2.13591s-.70779-2.13589-1.67981-2.13589-1.67389.7979-1.67389,2.13589S279.93121,183.9147,280.9032,183.9147Zm-2.07019-1.52391h-.8399v-.972h-.4198v.972h-1.8241l2.1481-2.7119h-.48019l-2.22571,2.78391v.3118h2.36969v1.1041h.432v-1.1041h.8399Zm-4.43359.864a.31408.31408,0,0,0-.31812.324.30312.30312,0,0,0,.216.3058l-.2041.87h.288l.252-.828a.97638.97638,0,0,0,.0842-.34781A.314.314,0,0,0,274.39941,183.25481Zm-2.28622-1.77591,1.188-1.4942v-.3058h-2.7v.3838h2.1481l-1.16391,1.4581v.3181h.29993c.77979,0,1.13388.3299,1.13388.83391,0,.5219-.38379.84589-1.08.84589a1.84127,1.84127,0,0,1-1.302-.48589l-.21.34189a2.185,2.185,0,0,0,1.512.54c1.01389,0,1.5239-.54,1.5239-1.2419C273.4631,182.0007,273.01321,181.52679,272.11319,181.4789Z" transform="translate(-130.8373 -144.03381)" style="fill:#fff;fill-rule:evenodd"/><path d="M137.78841,264.2001v2.5432h6.82019v-2.5432Zm3.9283-4.4416v2.5432h2.89189v-2.5432Zm-3.96111,0v2.5432h2.89191v-2.5432Zm.03281,8.37441h6.82019v2.5432h-6.82019Zm-4.15471-9.3036h12.23491v13.37129H133.6337Z" transform="translate(-130.8373 -144.03381)" style="fill:#003915;fill-rule:evenodd"/><path d="M150.7453,193.40759h-2.5432v6.9599h2.5432Zm4.3362,0h-2.5433v6.9599h2.5433Zm4.4416,4.068h-2.5433v2.89189h2.5433Zm0-4.068h-2.5433v2.89191h2.5433Zm-17.4733-2.72009h20.06389v12.524H142.0498Z" transform="translate(-130.8373 -144.03381)" style="fill:#003915;fill-rule:evenodd"/><path d="M177.2677,230.1299a.374.374,0,1,0-.3748-.6474l-13.92,8.0399a.374.374,0,1,0,.37469.6474Z" transform="translate(-130.8373 -144.03381)" style="fill:#003915"/><path d="M204.1078,217.5336a.374.374,0,1,0-.6474.37469l8.0399,13.92011a.374.374,0,1,0,.6474-.37469Z" transform="translate(-130.8373 -144.03381)" style="fill:#003915"/><path d="M259.51721,203.2872a.374.374,0,1,0,.6474-.37469l-8.03992-13.92011a.374.374,0,1,0-.6474.37469Z" transform="translate(-130.8373 -144.03381)" style="fill:#003915"/><rect x="67.0921" y="93.39899" width="2.6022" height="38.7468" style="fill:#003915"/><rect x="70.63121" y="91.09758" width="2.60219" height="41.7319" style="fill:#003915"/><rect x="70.63121" y="91.09758" width="2.60219" height="41.7319" style="fill:#003915"/><rect x="70.63121" y="68.75198" width="2.60219" height="4.9122" style="fill:#003915"/><rect x="70.63121" y="68.75198" width="56.03979" height="2.6022" style="fill:#003915"/><rect x="4.9068" y="93.39899" width="27.39261" height="2.6022" style="fill:#003915"/><rect x="47.5753" y="93.39899" width="24.8913" height="2.6022" style="fill:#003915"/><rect x="5.36661" y="132.12738" width="147.68221" height="5.002" style="fill:#003915"/><rect x="6.1067" width="157.32001" height="4.94958" style="fill:#003915"/><rect y="51.80258" width="6.4256" height="19.6653" style="fill:#003915"/><rect y="91.63438" width="6.4256" height="45.495" style="fill:#003915"/><rect x="6.1067" y="2.28748" width="6.4256" height="56.89021" style="fill:#003915"/><rect x="124.41771" width="8.1601" height="3.4874" style="fill:#003915"/><rect x="124.41771" width="8.1601" height="27.75508" style="fill:#003915"/><rect x="124.41771" y="63.19418" width="38.88" height="8.16" style="fill:#003915"/><rect x="124.41771" y="59.16359" width="8.1601" height="10.50209" style="fill:#003915"/><rect x="149.62822" y="63.49348" width="8.1601" height="23.5137" style="fill:#003915"/><rect x="149.62822" y="116.51439" width="8.1601" height="20.61499" style="fill:#003915"/><rect x="149.62822" y="63.19418" width="13.79849" height="10.6219" style="fill:#003915"/><rect x="152.63011" y="102.00558" width="2.29858" height="0.50169" style="fill:#003915"/><rect x="152.63011" y="100.80739" width="2.29858" height="0.5011" style="fill:#003915"/><rect x="152.63011" y="88.16989" width="2.29858" height="0.5015" style="fill:#003915"/><rect x="152.63011" y="86.97168" width="2.29858" height="0.50121" style="fill:#003915"/><rect x="152.63011" y="116.11728" width="2.29858" height="0.50171" style="fill:#003915"/><rect x="152.63011" y="114.91939" width="2.29858" height="0.5011" style="fill:#003915"/><rect x="149.62822" y="84.91489" width="0.5015" height="34.0937" style="fill:#003915"/><rect x="152.4753" y="84.91489" width="0.5015" height="34.0937" style="fill:#003915"/><rect x="154.64671" y="84.91489" width="0.5014" height="34.0937" style="fill:#003915"/><rect x="157.2877" y="84.91489" width="0.5015" height="34.0937" style="fill:#003915"/><path d="M260.06741,184.2429h-1.66992v.6971h1.66992Zm0-13.56911h-1.66992v13.0677h1.66992Zm0-1.1982h-1.66992v.697h1.66992Zm-1.66992-.50182h1.66992v-5.7894h.5015V184.94h2.34558V163.18439h.5015v22.25681h-8.161V163.18439h.5015V184.94h2.13959V166.88809h.5014Z" transform="translate(-130.8373 -144.03381)" style="fill:#003915;fill-rule:evenodd"/><rect x="158.27159" y="42.61798" width="1.29712" height="0.4471" style="fill:#003915"/><rect x="158.27159" y="41.55019" width="1.29712" height="0.44679" style="fill:#003915"/><rect x="158.27159" y="24.01599" width="1.29712" height="0.44699" style="fill:#003915"/><rect x="158.27159" y="22.94809" width="1.29712" height="0.44681" style="fill:#003915"/><rect x="158.27159" y="5.41357" width="1.29712" height="0.44702" style="fill:#003915"/><rect x="158.27159" y="4.34579" width="1.29712" height="0.44669" style="fill:#003915"/><rect x="158.27159" y="61.22038" width="1.29712" height="0.44701" style="fill:#003915"/><rect x="158.27159" y="60.15259" width="1.29712" height="0.4467" style="fill:#003915"/><rect x="160.35139" y="2.27899" width="0.44672" height="60.82129" style="fill:#003915"/><rect x="159.26012" y="2.27899" width="0.44669" height="60.82129" style="fill:#003915"/><rect x="158.17921" y="2.27899" width="0.44669" height="60.82129" style="fill:#003915"/><path d="M178.9194,275.7269h-9.8223a.90528.90528,0,0,1-.90541-.904V270.2126a4.59567,4.59567,0,0,1,4.5896-4.5909h2.45221a4.59567,4.59567,0,0,1,4.5905,4.5909v4.61031a.9048.9048,0,0,1-.9046.904m-6.13811-9.8606a4.351,4.351,0,0,0-4.345,4.3463v4.61031a.66145.66145,0,0,0,.66081.6599h9.8223a.66067.66067,0,0,0,.6599-.6599V270.2126a4.35131,4.35131,0,0,0-4.34579-4.3463Z" transform="translate(-130.8373 -144.03381)" style="fill:#003915"/><path d="M172.7816,266.9565a3.25877,3.25877,0,0,0-3.2545,3.2561v2.6881a.56785.56785,0,0,0,.5672.5675h3.57539v.24519H170.0943a.814.814,0,0,1-.81239-.8127v-2.6881a3.50406,3.50406,0,0,1,3.49969-3.5007h2.45219a3.50468,3.50468,0,0,1,3.50081,3.5007v2.6881a.81446.81446,0,0,1-.81351.8127H174.3457v-.24519h3.57539a.56821.56821,0,0,0,.5683-.5675v-2.6881a3.25932,3.25932,0,0,0-3.2556-3.2561Z" transform="translate(-130.8373 -144.03381)" style="fill:#003915"/><path d="M174.00841,270.5602a.7835.7835,0,1,1,.7838-.78349.7848.7848,0,0,1-.7838.78349m0-1.3224a.53875.53875,0,1,0,.5392.53891A.53971.53971,0,0,0,174.00841,269.23779Z" transform="translate(-130.8373 -144.03381)" style="fill:#003915"/><rect x="43.04871" y="125.18498" width="0.2449" height="1.11661" style="fill:#003915"/><rect x="42.6127" y="125.62039" width="1.116" height="0.2455" style="fill:#003915"/><path d="M174.3457,274.5446h.4037a.17373.17373,0,0,0,.1729-.1741v-.3793a.17364.17364,0,0,0-.1729-.174h-.4037v-.2449h.4037a.41867.41867,0,0,1,.41809.4189v.3793a.41862.41862,0,0,1-.41809.4187h-.4057l.002-.0374Zm-1.0771-.7274a.17447.17447,0,0,0-.1741.174v.3793a.17457.17457,0,0,0,.1741.1741h.40109v.2072l.00221.0374h-.40331a.41857.41857,0,0,1-.4187-.4187v-.3793a.41861.41861,0,0,1,.4187-.4189h.40109v.2449Z" transform="translate(-130.8373 -144.03381)" style="fill:#003915"/><path d="M174.00841,275.2121a.461.461,0,0,1-.46121-.4603v-3.0804a.4605.4605,0,0,1,.921,0v3.0804a.4606.4606,0,0,1-.45979.4603m0-3.7567a.21677.21677,0,0,0-.21631.216v3.0804a.2156.2156,0,0,0,.4312,0v-3.0804A.21608.21608,0,0,0,174.00841,271.4554Z" transform="translate(-130.8373 -144.03381)" style="fill:#003915"/><path d="M153.201,261.72771a3.917,3.917,0,0,0-3.91161,3.91289V271.306a.67744.67744,0,0,0,.4561.63921,1.244,1.244,0,0,0-.20349.2049.94568.94568,0,0,1-.52161-.8441v-5.66541a4.18085,4.18085,0,1,1,8.36169,0V271.306a.94552.94552,0,0,1-.521.8436,1.24219,1.24219,0,0,0-.20329-.2047.67636.67636,0,0,0,.4556-.6389v-5.66541a3.91713,3.91713,0,0,0-3.9124-3.91289" transform="translate(-130.8373 -144.03381)" style="fill:#003915"/><path d="M156.0047,270.2251h-5.6089a.20391.20391,0,0,1-.2012-.20149V265.7529a3.00655,3.00655,0,1,1,6.01311,0v4.27071a.20467.20467,0,0,1-.203.20149m-5.5414-.2681h5.47589v-4.2041a2.73795,2.73795,0,0,0-5.47589,0Z" transform="translate(-130.8373 -144.03381)" style="fill:#003915"/><path d="M153.2007,267.4942a1.00815,1.00815,0,1,1,1.0088-1.008,1.01,1.01,0,0,1-1.0088,1.008m0-1.7475a.7394.7394,0,1,0,.73981.7395A.74037.74037,0,0,0,153.2007,265.7467Z" transform="translate(-130.8373 -144.03381)" style="fill:#003915"/><rect x="150.45816" y="268.43613" width="2.24223" height="0.26854" transform="matrix(0.59777, -0.80167, 0.80167, 0.59777, -285.17164, 85.50848)" style="fill:#003915"/><rect x="154.64402" y="267.44867" width="0.26917" height="2.24306" transform="translate(-260.89172 2.23955) rotate(-36.80799)" style="fill:#003915"/><path d="M155.9015,275.7269H150.501a1.355,1.355,0,0,1-1.3524-1.35381V272.8988a1.35353,1.35353,0,0,1,1.3524-1.35251h5.4005a1.35324,1.35324,0,0,1,1.3519,1.35251v1.47429a1.35473,1.35473,0,0,1-1.3519,1.35381m-5.4005-3.91209a1.08544,1.08544,0,0,0-1.0843,1.084v1.47429a1.08588,1.08588,0,0,0,1.0843,1.08511h5.4005a1.08594,1.08594,0,0,0,1.08369-1.08511V272.8988a1.0855,1.0855,0,0,0-1.08369-1.084Z" transform="translate(-130.8373 -144.03381)" style="fill:#003915"/><path d="M153.2007,274.3246a.6881.6881,0,1,1,.6882-.68739.68809.68809,0,0,1-.6882.68739m0-1.10721a.41925.41925,0,1,0,.41949.41981A.41945.41945,0,0,0,153.2007,273.21739Z" transform="translate(-130.8373 -144.03381)" style="fill:#003915"/><path d="M145.56731,252.21429H137.7278v-11.3479h7.83951Zm-8.17091.3309h8.5025v-12.0099h-8.5025Z" transform="translate(-130.8373 -144.03381)" style="fill:#003915"/><path d="M145.79179,249.8199a.60432.60432,0,0,0,.6125-.5936V243.8541a.604.604,0,0,0-.6125-.5938v.3308a.26967.26967,0,0,1,.2809.263v5.37221a.26945.26945,0,0,1-.2809.2628Z" transform="translate(-130.8373 -144.03381)" style="fill:#003915"/><path d="M143.16521,247.5621h-2.7077l-.6216-1.59731a2.4743,2.4743,0,0,1,1.6747.0918,4.15129,4.15129,0,0,0,1.24069.2413,2.44924,2.44924,0,0,0,.9366-.1882Zm-2.93411.3308h3.16681l.89209-2.48-.39059.22479a2.26711,2.26711,0,0,1-1.1481.32941,3.89029,3.89029,0,0,1-1.14369-.22681,3.89783,3.89783,0,0,0-1.1441-.2282,2.018,2.018,0,0,0-.91251.218l-.13579.06749Z" transform="translate(-130.8373 -144.03381)" style="fill:#003915"/><path d="M182.9537,273.5757v-30.085a2.161,2.161,0,0,1,2.1657-2.15149h10.4113a2.16089,2.16089,0,0,1,2.166,2.15149v30.085a2.16084,2.16084,0,0,1-2.166,2.1512H185.1194a2.161,2.161,0,0,1-2.1657-2.1512m14.51309-30.085a1.93116,1.93116,0,0,0-1.9361-1.92189H185.1194a1.931,1.931,0,0,0-1.9355,1.92189v30.085a1.93134,1.93134,0,0,0,1.9355,1.9221h10.4113a1.93147,1.93147,0,0,0,1.9361-1.9221Z" transform="translate(-130.8373 -144.03381)" style="fill:#003915"/><path d="M196.2048,246.4765a2.57706,2.57706,0,0,0-2.58211-2.5654h-6.5948a2.57666,2.57666,0,0,0-2.58179,2.5654v24.1132a2.57707,2.57707,0,0,0,2.58179,2.56589h2.062a.39626.39626,0,0,0-.14211.22821h-1.91991a2.80639,2.80639,0,0,1-2.8125-2.7941V246.4765a2.80658,2.80658,0,0,1,2.8125-2.7944h6.5948a2.80654,2.80654,0,0,1,2.8123,2.7944v24.1132a2.80635,2.80635,0,0,1-2.8123,2.7941h-1.92009a.39538.39538,0,0,0-.14151-.22821h2.0616a2.57748,2.57748,0,0,0,2.58211-2.56589Z" transform="translate(-130.8373 -144.03381)" style="fill:#003915"/><path d="M194.89149,248.0239a1.26658,1.26658,0,0,0-1.2688-1.26109h-6.5948a1.26625,1.26625,0,0,0-1.26819,1.26109v22.56581a1.26619,1.26619,0,0,0,1.26819,1.2614h2.84491v.2287h-2.84491a1.49617,1.49617,0,0,1-1.49889-1.4901V248.0239a1.4956,1.4956,0,0,1,1.49889-1.48929h6.5948a1.49525,1.49525,0,0,1,1.499,1.48929v22.56581a1.49582,1.49582,0,0,1-1.499,1.4901H190.7776v-.2287h2.84509a1.26652,1.26652,0,0,0,1.2688-1.2614Z" transform="translate(-130.8373 -144.03381)" style="fill:#003915"/><path d="M189.59241,268.68449a.73335.73335,0,1,1,.7336.7299.73151.73151,0,0,1-.7336-.7299m1.2365,0a.50331.50331,0,1,0-.5029.50031A.50192.50192,0,0,0,190.8289,268.68449Z" transform="translate(-130.8373 -144.03381)" style="fill:#003915"/><rect x="58.9655" y="124.53648" width="1.0457" height="0.22931" style="fill:#003915"/><rect x="59.3734" y="124.13219" width="0.23071" height="1.0378" style="fill:#003915"/><path d="M189.8728,273.18449h-.53751a.27989.27989,0,0,0-.2803.27861v.50519a.2804.2804,0,0,0,.2803.27921h.53751v.2287h-.53751a.5103.5103,0,0,1-.511-.5079v-.50519a.50969.50969,0,0,1,.511-.5074h.53751Zm1.722.27861a.27976.27976,0,0,0-.28-.27861h-.5372v-.22879h.5372a.50933.50933,0,0,1,.5108.5074v.50519a.50994.50994,0,0,1-.5108.5079h-.5372v-.2287h.5372a.28027.28027,0,0,0,.28-.27921Z" transform="translate(-130.8373 -144.03381)" style="fill:#003915"/><path d="M189.7574,274.4743v-3.2012a.56766.56766,0,0,1,1.1353,0v3.2012a.56766.56766,0,0,1-1.1353,0m.90511-3.2012a.33715.33715,0,0,0-.6743,0v3.2012a.33716.33716,0,0,0,.6743,0Z" transform="translate(-130.8373 -144.03381)" style="fill:#003915"/><path d="M143.91859,187.7724V176.0032H155.6875v11.7692Zm.24951-11.51981v11.2706H155.4386v-11.2706Z" transform="translate(-130.8373 -144.03381)" style="fill:#003915"/><path d="M154.5894,181.88789a3.91958,3.91958,0,0,0-7.7142-.9816.3.3,0,0,0-.1976-.0743h-.0405a4.16846,4.16846,0,1,1-.00031,2.1115h.0408a.29828.29828,0,0,0,.1973-.0739,3.91975,3.91975,0,0,0,7.71451-.9817" transform="translate(-130.8373 -144.03381)" style="fill:#003915"/><path d="M147.18871,181.88789a3.4815,3.4815,0,1,1,3.4818,3.48131,3.48577,3.48577,0,0,1-3.4818-3.48131m6.71359,0a3.23195,3.23195,0,1,0-3.2318,3.23181A3.23554,3.23554,0,0,0,153.9023,181.88789Z" transform="translate(-130.8373 -144.03381)" style="fill:#003915"/><path d="M149.7679,181.88789a.9023.9023,0,1,1,.9026.9026.90334.90334,0,0,1-.9026-.9026m1.55569,0a.65295.65295,0,1,0-.65309.65311A.65424.65424,0,0,0,151.32359,181.88789Z" transform="translate(-130.8373 -144.03381)" style="fill:#003915"/><rect x="19.17581" y="37.72939" width="1.31389" height="0.2494" style="fill:#003915"/><rect x="19.7079" y="37.19728" width="0.24971" height="1.3136" style="fill:#003915"/><path d="M145.8638,182.64169V181.1342a.427.427,0,0,1,.42661-.42661h.38719a.42681.42681,0,0,1,.42661.42661v1.50749a.42687.42687,0,0,1-.42661.42661h-.38719a.42706.42706,0,0,1-.42661-.42661m.991-1.50749a.17773.17773,0,0,0-.1772-.17751h-.38719a.17753.17753,0,0,0-.1772.17751v1.50749a.17719.17719,0,0,0,.1772.17711h.38719a.17739.17739,0,0,0,.1772-.17711Z" transform="translate(-130.8373 -144.03381)" style="fill:#003915"/><path d="M145.98849,181.668h-.0865a.21965.21965,0,0,0,0,.4393h.0865v.2498h-.0865a.46945.46945,0,0,1,0-.9389h.0865Zm2.59.21989a.22042.22042,0,0,0-.2205-.21989h-1.37849v-.2498H148.358a.46945.46945,0,1,1,0,.9389h-1.37849v-.2498H148.358A.22.22,0,0,0,148.57851,181.88789Z" transform="translate(-130.8373 -144.03381)" style="fill:#003915"/><path d="M144.4,159.10761v7.15659a1.496,1.496,0,0,0,1.49471,1.49411h8.29871a1.49591,1.49591,0,0,0,1.49409-1.49411v-7.15659a1.49567,1.49567,0,0,0-1.49409-1.4942H145.8947a1.49581,1.49581,0,0,0-1.49471,1.4942m11.0545,7.15659a1.26262,1.26262,0,0,1-1.26109,1.26111H145.8947a1.26276,1.26276,0,0,1-1.2617-1.26111v-7.15659a1.26308,1.26308,0,0,1,1.2617-1.26172h8.29871a1.26294,1.26294,0,0,1,1.26109,1.26172Z" transform="translate(-130.8373 -144.03381)" style="fill:#003915"/><path d="M145.2189,159.10761v7.15659a.67617.67617,0,0,0,.6758.67581h7.0106a.67636.67636,0,0,0,.6758-.67581v-7.15659a.67654.67654,0,0,0-.6758-.67639h-7.0106a.67636.67636,0,0,0-.6758.67639m8.1292,7.15659a.44326.44326,0,0,1-.44279.44312h-7.0106a.44351.44351,0,0,1-.4431-.44312v-7.15659a.4438.4438,0,0,1,.4431-.44391h7.0106a.44355.44355,0,0,1,.44279.44391Z" transform="translate(-130.8373 -144.03381)" style="fill:#003915"/><path d="M153.9998,165.564a.47425.47425,0,1,0,.4742-.47418.47511.47511,0,0,0-.4742.47418m.71539,0a.2412.2412,0,1,1-.2412-.24149A.24178.24178,0,0,1,154.71519,165.564Z" transform="translate(-130.8373 -144.03381)" style="fill:#003915"/><path d="M153.9998,163.96329a.47425.47425,0,1,0,.4742-.47479.475.475,0,0,0-.4742.47479m.71539,0a.2412.2412,0,1,1-.2412-.24179A.24154.24154,0,0,1,154.71519,163.96329Z" transform="translate(-130.8373 -144.03381)" style="fill:#003915"/><rect x="16.524" y="19.25739" width="0.2327" height="2.7196" style="fill:#003915"/><rect x="15.27991" y="20.50067" width="2.7196" height="0.23273" style="fill:#003915"/><path d="M146.5807,164.651a.89685.89685,0,1,0,.89679-.89661.89787.89787,0,0,0-.89679.89661m1.561,0a.6643.6643,0,1,1-.6642-.66391A.66557.66557,0,0,1,148.14169,164.651Z" transform="translate(-130.8373 -144.03381)" style="fill:#003915"/><rect x="20.3692" y="19.25739" width="0.2325" height="2.7196" style="fill:#003915"/><rect x="19.1248" y="20.50067" width="2.7204" height="0.23273" style="fill:#003915"/><path d="M150.425,164.651a.89715.89715,0,1,0,.89749-.89661.8986.8986,0,0,0-.89749.89661m1.56189,0a.66475.66475,0,1,1-.6644-.66391A.66541.66541,0,0,1,151.98689,164.651Z" transform="translate(-130.8373 -144.03381)" style="fill:#003915"/><rect x="16.524" y="15.32687" width="0.2327" height="2.7193" style="fill:#003915"/><rect x="15.27991" y="16.56958" width="2.7196" height="0.233" style="fill:#003915"/><path d="M146.5807,160.71991a.89685.89685,0,1,0,.89679-.89691.89774.89774,0,0,0-.89679.89691m1.561,0a.6643.6643,0,1,1-.6642-.66391A.66607.66607,0,0,1,148.14169,160.71991Z" transform="translate(-130.8373 -144.03381)" style="fill:#003915"/><rect x="20.3692" y="15.32687" width="0.2325" height="2.7193" style="fill:#003915"/><rect x="19.1248" y="16.56958" width="2.7204" height="0.233" style="fill:#003915"/><path d="M150.425,160.71991a.89715.89715,0,1,0,.89749-.89691.89846.89846,0,0,0-.89749.89691m1.56189,0a.66475.66475,0,1,1-.6644-.66391A.66591.66591,0,0,1,151.98689,160.71991Z" transform="translate(-130.8373 -144.03381)" style="fill:#003915"/><path d="M153.9998,161.24969a.47425.47425,0,1,0,.4742-.47449.47477.47477,0,0,0-.4742.47449m.71539,0a.2412.2412,0,1,1-.2412-.24179A.24161.24161,0,0,1,154.71519,161.24969Z" transform="translate(-130.8373 -144.03381)" style="fill:#003915"/><path d="M153.9998,159.6481a.47425.47425,0,1,0,.4742-.47391.47467.47467,0,0,0-.4742.47391m.71539,0a.2412.2412,0,1,1-.2412-.24152A.24163.24163,0,0,1,154.71519,159.6481Z" transform="translate(-130.8373 -144.03381)" style="fill:#003915"/><path d="M139.6474,273.6097a.80929.80929,0,1,0,.2347.57091.80982.80982,0,0,0-.2347-.57091m-.5726-1.03639a1.60705,1.60705,0,1,1-1.1364.4706A1.60273,1.60273,0,0,1,139.0748,272.5733Z" transform="translate(-130.8373 -144.03381)" style="fill:#003915"/><path d="M244.6333,187.3772c-.7319,0-1.2359-.6179-1.2359-1.7399s.504-1.7399,1.2359-1.7399,1.2359.618,1.2359,1.7399-.504,1.7399-1.2359,1.7399m0,.396c.972,0,1.67979-.7979,1.67979-2.13589s-.70779-2.13589-1.67979-2.13589-1.6738.798-1.6738,2.13589S243.6613,187.77319,244.6333,187.77319Zm-3.63-2.43579,1.188-1.49411v-.30589h-2.7v.3838h2.1481l-1.16391,1.45819v.318h.29991c.7798,0,1.13379.33,1.13379.834,0,.52179-.38379.84579-1.08.84579a1.84145,1.84145,0,0,1-1.3019-.48579l-.2101.3418a2.18465,2.18465,0,0,0,1.512.54c1.014,0,1.52391-.54,1.52391-1.24179C242.3531,185.8593,241.90331,185.3853,241.0033,185.3374Zm-2.4299,1.77589a.31406.31406,0,0,0-.318.324.30311.30311,0,0,0,.216.30589l-.2041.8699h.288l.252-.828a.97556.97556,0,0,0,.0842-.34779A.314.314,0,0,0,238.57339,187.1133Zm-2.56189-1.4281c-.648,0-1.05591-.354-1.05591-.9059a.919.919,0,0,1,1.0258-.9119c.726,0,1.11011.4379,1.11011.9A.97212.97212,0,0,1,236.01151,185.6852Zm-.04791-2.18379a1.30855,1.30855,0,0,0-1.4341,1.28979,1.2715,1.2715,0,0,0,1.41591,1.26,1.34219,1.34219,0,0,0,1.2841-.72c.01189.12611.0179.246.0179.3421,0,1.1398-.582,1.72211-1.4879,1.72211a1.472,1.472,0,0,1-.81581-.1982l-.17409.3481a1.92724,1.92724,0,0,0,.99579.22789c1.14011,0,1.91991-.74409,1.91991-2.17189C237.6853,184.2753,237.07961,183.5014,235.96359,183.5014Zm-3.73209.036v.3838h.9901v3.816h.432v-4.1998Z" transform="translate(-130.8373 -144.03381)" style="fill:#6e6e6e;fill-rule:evenodd"/><path d="M243.1091,248.57719c-.7319,0-1.2359-.61789-1.2359-1.7399s.504-1.7399,1.2359-1.7399,1.2359.618,1.2359,1.7399-.504,1.7399-1.2359,1.7399m0,.396c.972,0,1.67979-.79791,1.67979-2.13591s-.70779-2.13589-1.67979-2.13589-1.6738.798-1.6738,2.13589S242.1371,248.97321,243.1091,248.97321Zm-5.20779-4.23581v1.16991h.42609v-.7861h2.16l-1.728,3.816h.468l1.758-3.89389v-.30591Zm-.74971,3.5759a.31415.31415,0,0,0-.3181.324.30326.30326,0,0,0,.216.30591l-.2041.86989h.288l.252-.828a.97583.97583,0,0,0,.0842-.34779A.314.314,0,0,0,237.1516,248.31329Zm-2.7542-3.5759v.3838h.9902v3.816h.432v-4.1998Zm-2.16589,0v.3838h.9901v3.816h.432v-4.1998Z" transform="translate(-130.8373 -144.03381)" style="fill:#6e6e6e;fill-rule:evenodd"/><path d="M171.03709,254.57761c-.73189,0-1.2359-.618-1.2359-1.73991s.504-1.7399,1.2359-1.7399,1.2359.6179,1.2359,1.7399-.504,1.73991-1.2359,1.73991m0,.396c.972,0,1.67981-.798,1.67981-2.13591s-.70781-2.13589-1.67981-2.13589-1.6738.7979-1.6738,2.13589S170.06509,254.9736,171.03709,254.9736Zm-3.97189-.396c-.7319,0-1.2359-.618-1.2359-1.73991s.504-1.7399,1.2359-1.7399,1.2359.6179,1.2359,1.7399S167.7971,254.57761,167.0652,254.57761Zm0,.396c.972,0,1.67979-.798,1.67979-2.13591s-.70779-2.13589-1.67979-2.13589-1.6738.7979-1.6738,2.13589S166.0932,254.9736,167.0652,254.9736Zm-2.5497-.6599a.31407.31407,0,0,0-.3181.324.3031.3031,0,0,0,.216.3058l-.2041.87h.288l.252-.828a.976.976,0,0,0,.0842-.34781A.314.314,0,0,0,164.5155,254.31371Zm-2.6221-1.8542h-.54l.144-1.33791h1.91989v-.3838h-2.2977l-.216,2.1058h.894c1.06779,0,1.40369.33591,1.40369.8759,0,.51-.37779.85811-1.09189.85811a1.821,1.821,0,0,1-1.29-.4859l-.20979.34189a2.16858,2.16858,0,0,0,1.5058.54c1.02609,0,1.5239-.55791,1.5239-1.2719C163.6393,252.9576,163.15939,252.4595,161.8934,252.4595Z" transform="translate(-130.8373 -144.03381)" style="fill:#6e6e6e;fill-rule:evenodd"/><path d="M154.91451,224.32c-.7319,0-1.2359-.61789-1.2359-1.7399s.504-1.7399,1.2359-1.7399,1.2359.618,1.2359,1.7399-.504,1.7399-1.2359,1.7399m0,.396c.972,0,1.67979-.7979,1.67979-2.13591s-.70779-2.13589-1.67979-2.13589-1.6738.798-1.6738,2.13589S153.9425,224.716,154.91451,224.716Zm-3.97191-.396c-.7319,0-1.2359-.61789-1.2359-1.7399s.504-1.7399,1.2359-1.7399,1.2359.618,1.2359,1.7399S151.6745,224.32,150.9426,224.32Zm0,.396c.972,0,1.67981-.7979,1.67981-2.13591s-.70781-2.13589-1.67981-2.13589-1.6738.798-1.6738,2.13589S149.9706,224.716,150.9426,224.716Zm-2.5497-.6599a.31414.31414,0,0,0-.3181.324.30326.30326,0,0,0,.216.30591l-.2041.86989h.288l.252-.828a.97572.97572,0,0,0,.08421-.34781A.314.314,0,0,0,148.3929,224.05611Zm-3.24.23979,1.428-1.4037a1.72881,1.72881,0,0,0,.69-1.3141c0-.70189-.54-1.1339-1.39211-1.1339a1.88741,1.88741,0,0,0-1.4879.59981l.30589.26419a1.42635,1.42635,0,0,1,1.146-.468c.64209,0,.9839.29991.9839.7861,0,.2877-.08981.5697-.56381,1.0377l-1.74609,1.71021V224.68h2.946v-.38409Z" transform="translate(-130.8373 -144.03381)" style="fill:#6e6e6e;fill-rule:evenodd"/><path d="M280.80771,183.51869c-.732,0-1.236-.618-1.236-1.7399s.504-1.7399,1.236-1.7399,1.2359.6179,1.2359,1.7399-.504,1.7399-1.2359,1.7399m0,.396c.972,0,1.67978-.798,1.67978-2.13591s-.70779-2.13589-1.67978-2.13589-1.67392.7979-1.67392,2.13589S279.83569,183.9147,280.80771,183.9147Zm-2.07022-1.52391h-.83987v-.972h-.4198v.972h-1.82413l2.1481-2.7119h-.48019l-2.2258,2.78391v.3118h2.36981v1.1041h.432v-1.1041h.83987Zm-4.43369.864a.314.314,0,0,0-.318.324.30312.30312,0,0,0,.216.3058l-.2041.87h.288l.252-.828a.97572.97572,0,0,0,.0842-.34781A.314.314,0,0,0,274.3038,183.25481Zm-2.2861-1.77591,1.188-1.4942v-.3058h-2.7v.3838h2.1481l-1.16391,1.4581v.3181h.2999c.77982,0,1.13391.3299,1.13391.83391,0,.5219-.38391.84589-1.08.84589a1.84116,1.84116,0,0,1-1.302-.48589l-.21.34189a2.185,2.185,0,0,0,1.512.54c1.01392,0,1.52393-.54,1.52393-1.2419C273.36761,182.0007,272.91769,181.52679,272.0177,181.4789Z" transform="translate(-130.8373 -144.03381)" style="fill:#6e6e6e;fill-rule:evenodd"/><path d="M134.8407,220.75909a3.90785,3.90785,0,1,1-3.90779,3.90761,3.90811,3.90811,0,0,1,3.90779-3.90761" transform="translate(-130.8373 -144.03381)" style="fill:#fff;fill-rule:evenodd"/><polygon points="6.407 80.633 5.092 80.255 3.778 79.876 3.778 80.633 3.778 81.39 5.092 81.012 6.407 80.633" style="fill:#fff;fill-rule:evenodd"/><rect x="1.5993" y="80.45398" width="2.2814" height="0.38411" style="fill:#fff"/><path d="M134.74519,220.75909a3.90785,3.90785,0,1,1-3.9079,3.90761,3.90811,3.90811,0,0,1,3.9079-3.90761" transform="translate(-130.8373 -144.03381)" style="fill:#558e42;fill-rule:evenodd"/><polygon points="6.312 80.633 4.997 80.255 3.682 79.876 3.682 80.633 3.682 81.39 4.997 81.012 6.312 80.633" style="fill:#fdfdfd;fill-rule:evenodd"/><rect x="1.5038" y="80.45398" width="2.28131" height="0.38411" style="fill:#fdfdfd"/><path d="M285.7218,176.5208l-.8714-.69279h-.17859v1.57489h.224V176.15l.85068.67891h.1853v-.1749c0-.4552.1925-.66161.48651-.66161.30438,0,.4935.224.4935.6299a1.07438,1.07438,0,0,1-.28351.7597l.19962.12239a1.27481,1.27481,0,0,0,.31488-.8821c0-.59129-.31488-.889-.72449-.889-.39209,0-.6684.2625-.6965.78749m.203,2.1387c0,.3779-.20639.616-.52841.616a.53639.53639,0,0,1-.5321-.59869c0-.42351.25571-.6474.525-.6474A.56713.56713,0,0,1,285.9248,178.6595Zm-1.2739.0278a.76317.76317,0,0,0,.75259.8365.7416.7416,0,0,0,.73471-.826.78261.78261,0,0,0-.4198-.7489c.07339-.0071.14337-.0105.19959-.0105.665,0,1.0043.3396,1.0043.868a.85864.85864,0,0,1-.11542.47591l.203.1015a1.12376,1.12376,0,0,0,.1329-.58081c0-.665-.434-1.12-1.26709-1.12C285.10239,177.683,284.65091,178.0365,284.65091,178.6873ZM286.7579,180a.18314.18314,0,0,0,.189.18539.17662.17662,0,0,0,.17831-.12579l.50769.119v-.16811l-.483-.14709a.57549.57549,0,0,0-.203-.049A.18316.18316,0,0,0,286.7579,180Zm-1.0361,1.3335-.8714-.69279h-.17859v1.57491h.224v-1.25291l.85068.67891h.1853v-.1749c0-.4552.1925-.66161.48651-.66161.30438,0,.4935.22391.4935.62981a1.07415,1.07415,0,0,1-.28351.75969l.19962.1225a1.27521,1.27521,0,0,0,.31488-.88219c0-.59131-.31488-.8889-.72449-.8889C286.02621,180.546,285.74991,180.8085,285.7218,181.3335Z" transform="translate(-130.8373 -144.03381)" style="fill:#434242"/><path d="M252.1619,173.84261c0,.4269-.3606.72119-1.0148.72119-.6546,0-1.01509-.2943-1.01509-.72119s.36049-.72081,1.01509-.72081c.65421,0,1.0148.2939,1.0148.72081m.231,0c0-.56691-.4655-.9799-1.2458-.9799-.7807,0-1.2462.413-1.2462.9799s.4655.97659,1.2462.97659C251.9274,174.8192,252.3929,174.40961,252.3929,173.84261Zm-.2449,2.6252-.819-.8331a1.00758,1.00758,0,0,0-.76639-.40251c-.40971,0-.66171.31491-.66171.8121a1.10129,1.10129,0,0,0,.35011.868l.1539-.17859a.83242.83242,0,0,1-.2729-.66841c0-.3745.1749-.574.4583-.574.16811,0,.3325.0524.6055.3288l.9975,1.01849h.1786v-1.7184H252.148Zm-.14009.9099a.18316.18316,0,0,0,.1891.18539.17667.17667,0,0,0,.1783-.1259l.50769.11911v-.16811l-.483-.14709a.574.574,0,0,0-.203-.0491A.18326.18326,0,0,0,252.0079,177.3777Zm-1.036,1.3334-.8714-.69281h-.17859v1.575h.224v-1.2529l.8506.67891h.18539v-.1749c0-.45531.1925-.66161.4864-.66161.30449,0,.49359.22389.49359.62981a1.07434,1.07434,0,0,1-.28349.75969l.1996.1225a1.27518,1.27518,0,0,0,.3149-.88219c0-.59131-.3149-.8889-.72459-.8889C251.27631,177.92371,250.99989,178.1862,250.97189,178.71111Z" transform="translate(-130.8373 -144.03381)" style="fill:#434242"/><path d="M160.4115,170.712c0,.4269-.3606.72119-1.0148.72119-.6546,0-1.01509-.2943-1.01509-.72119s.36049-.72081,1.01509-.72081c.65421,0,1.0148.294,1.0148.72081m.231,0c0-.56691-.4655-.9799-1.2458-.9799-.7807,0-1.24609.413-1.24609.9799s.46539.97659,1.24609.97659C160.177,171.6886,160.6425,171.279,160.6425,170.712Zm-2.471,2.39049h.224v-.57739h2.226v-.252h-2.45Zm2.086.3569a.18317.18317,0,0,0,.18909.18541.17676.17676,0,0,0,.1783-.1259l.50771.11909v-.16811l-.483-.14709a.57436.57436,0,0,0-.203-.0491A.1832.1832,0,0,0,160.25751,173.4594Zm.14009,1.89011-.819-.8331a1.00756,1.00756,0,0,0-.7664-.4025c-.40959,0-.66159.3149-.66159.81209a1.1013,1.1013,0,0,0,.35.868l.154-.1786a.832.832,0,0,1-.273-.6684c0-.3744.1749-.574.4583-.574.16809,0,.33249.0524.6055.3288l.9975,1.01851h.1786v-1.71841h-.22391Z" transform="translate(-130.8373 -144.03381)" style="fill:#434242"/><path d="M277.42929,244.8477c0,.42349-.2554.64769-.525.64769a.56726.56726,0,0,1-.5354-.63019c0-.37781.2063-.61591.52841-.61591a.53605.53605,0,0,1,.532.5984m-1.2739-.021a.7836.7836,0,0,0,.4198.74919c-.07339.00681-.1434.0105-.19949.0105-.6647,0-1.0043-.3396-1.0043-.868a.86051.86051,0,0,1,.1153-.4762l-.20288-.1015a1.12561,1.12561,0,0,0-.133.5811c0,.665.434,1.12,1.26712,1.12.77328,0,1.22488-.3535,1.22488-1.00459a.76334.76334,0,0,0-.75259-.8365A.74175.74175,0,0,0,276.1554,244.82671Zm1.25632,2.35559c0,.4269-.3605.7211-1.0148.7211-.65451,0-1.015-.2942-1.015-.7211s.3605-.7209,1.015-.7209C277.05121,246.4614,277.41171,246.7554,277.41171,247.1823Zm.23108,0c0-.56689-.46548-.98-1.24588-.98-.78061,0-1.24612.4131-1.24612.98s.46552.9765,1.24612.9765C277.17731,248.1588,277.64279,247.74921,277.64279,247.1823Zm-.385,1.48761a.18315.18315,0,0,0,.18909.18539.17669.17669,0,0,0,.17831-.1259l.50769.11909v-.16809l-.483-.14711a.57443.57443,0,0,0-.203-.0491A.18321.18321,0,0,0,277.25781,248.66991Zm-1.036,1.33339-.8714-.69279h-.17859v1.575h.22388v-1.2529l.85071.67889h.18539v-.1749c0-.45529.1925-.6617.48642-.6617.30447,0,.4935.224.4935.6299a1.07434,1.07434,0,0,1-.28342.7597l.19949.12239a1.27429,1.27429,0,0,0,.315-.8821c0-.59129-.315-.8889-.72458-.8889C276.52621,249.2159,276.24979,249.4783,276.2218,250.0033Z" transform="translate(-130.8373 -144.03381)" style="fill:#434242"/><path d="M180.66161,253.8188c0,.4269-.36061.7211-1.0148.7211-.65451,0-1.01511-.2942-1.01511-.7211s.3606-.7209,1.01511-.7209c.65419,0,1.0148.294,1.0148.7209m.231,0c0-.567-.46539-.98-1.24579-.98-.7807,0-1.24611.413-1.24611.98s.46541.9765,1.24611.9765C180.4272,254.7953,180.89259,254.3857,180.89259,253.8188Zm-.21339,2.2784c0,.434-.1891.68941-.4935.68941-.3011,0-.4901-.2554-.4901-.68941s.189-.693.4901-.693C180.4901,255.40421,180.6792,255.6633,180.6792,256.0972Zm-1.624.6055c-.273,0-.4411-.2347-.4411-.6055,0-.3676.16809-.6091.44449-.6091.2662,0,.43771.2276.43771.6091C179.49631,256.4785,179.3248,256.7027,179.05521,256.7027Zm.53209-1.078a.555.555,0,0,0-.5392-.392c-.39879,0-.6474.34641-.6474.8645,0,.5179.24861.8575.6474.8575a.553.553,0,0,0,.5392-.38519.61093.61093,0,0,0,.60181.47249c.434,0,.70349-.3568.70349-.94479,0-.5845-.2695-.9521-.70349-.9521A.61689.61689,0,0,0,179.5873,255.62469Zm.92041,1.9879a.18317.18317,0,0,0,.18909.18541.17678.17678,0,0,0,.17831-.12581l.5076.119v-.16811l-.483-.14709a.57536.57536,0,0,0-.20291-.049A.18318.18318,0,0,0,180.50771,257.61259Zm-2.086,1.6064h.22389v-.57739h2.2261v-.252h-2.45Z" transform="translate(-130.8373 -144.03381)" style="fill:#434242"/><path d="M142.429,220.1174c0,.42349-.2554.64771-.5249.64771a.56727.56727,0,0,1-.53549-.6302c0-.37781.20639-.61591.5284-.61591a.53606.53606,0,0,1,.532.5984m-1.2739-.021a.78349.78349,0,0,0,.41989.74919c-.0735.00681-.14349.0105-.1996.0105-.6647,0-1.0043-.3396-1.0043-.868a.86057.86057,0,0,1,.1154-.4762l-.203-.1015a1.1259,1.1259,0,0,0-.13289.5811c0,.665.4339,1.12,1.267,1.12.7733,0,1.2249-.3535,1.2249-1.00459a.76335.76335,0,0,0-.75261-.8365A.74175.74175,0,0,0,141.15511,220.09641Zm-.98361,3.0764h.6826v-.24861h-.4586v-1.26l2.226,1.008v-.2729l-2.27141-1.0253h-.1786Zm2.086.43739a.18315.18315,0,0,0,.18909.18539.17668.17668,0,0,0,.1783-.12579l.50771.119v-.16811l-.483-.14709a.57371.57371,0,0,0-.203-.049A.18317.18317,0,0,0,142.25751,223.6102Zm-2.086,1.6064h.224v-.57739h2.226v-.252h-2.45Z" transform="translate(-130.8373 -144.03381)" style="fill:#434242"/><line x1="155.12462" y1="39.60568" x2="155.12462" y2="63.19418" style="fill:none;stroke:#b1b2b2;stroke-miterlimit:22.92558479309082;stroke-width:0.2160000056028366px"/><line x1="120.37471" y1="36.85548" x2="120.37471" y2="68.75198" style="fill:none;stroke:#b1b2b2;stroke-miterlimit:22.92558479309082;stroke-width:0.2160000056028366px"/><line x1="28.6243" y1="33.35548" x2="28.6243" y2="46.65369" style="fill:none;stroke:#b1b2b2;stroke-miterlimit:22.92558479309082;stroke-width:0.2160000056028366px"/><line x1="145.62462" y1="108.10568" x2="145.62462" y2="132.12738" style="fill:none;stroke:#b1b2b2;stroke-miterlimit:22.92558479309082;stroke-width:0.2160000056028366px"/><line x1="48.87561" y1="116.60568" x2="48.87561" y2="132.12738" style="fill:none;stroke:#b1b2b2;stroke-miterlimit:22.92558479309082;stroke-width:0.2160000056028366px"/><line x1="10.6248" y1="82.85548" x2="10.6248" y2="93.39899" style="fill:none;stroke:#b1b2b2;stroke-miterlimit:22.92558479309082;stroke-width:0.2160000056028366px"/><line x1="155.12462" y1="5.8606" x2="155.12462" y2="30.16658" style="fill:none;stroke:#b1b2b2;stroke-miterlimit:22.92558479309082;stroke-width:0.2160000056028366px"/><line x1="120.37671" y1="4.94958" x2="120.37671" y2="27.41638" style="fill:none;stroke:#b1b2b2;stroke-miterlimit:22.92558479309082;stroke-width:0.2160000056028366px"/><line x1="28.6243" y1="4.94958" x2="28.6243" y2="23.91647" style="fill:none;stroke:#b1b2b2;stroke-miterlimit:22.92558479309082;stroke-width:0.2160000056028366px"/><line x1="145.62462" y1="72.04419" x2="145.62462" y2="98.66658" style="fill:none;stroke:#b1b2b2;stroke-miterlimit:22.92558479309082;stroke-width:0.2160000056028366px"/><line x1="48.8744" y1="96.35748" x2="48.8744" y2="107.16658" style="fill:none;stroke:#b1b2b2;stroke-miterlimit:22.92558479309082;stroke-width:0.2160000056028366px"/><line x1="10.6243" y1="59.17769" x2="10.6243" y2="73.41649" style="fill:none;stroke:#b1b2b2;stroke-miterlimit:22.92558479309082;stroke-width:0.2160000056028366px"/><path d="M278.8974,153.47321c-.42691,0-.7211-.3606-.7211-1.01489,0-.65451.29419-1.015.7211-1.015s.72079.3605.72079,1.015c0,.6543-.29388,1.01489-.72079,1.01489m0,.231c.56689,0,.97989-.46548.97989-1.24588,0-.78061-.413-1.24612-.97989-1.24612s-.9765.46552-.9765,1.24612C277.9209,153.23871,278.33051,153.70419,278.8974,153.70419Zm-2.62521-.2449.8331-.819a1.00761,1.00761,0,0,0,.40253-.76648c0-.40961-.31491-.66162-.8121-.66162a1.10157,1.10157,0,0,0-.868.3501l.17859.1539a.83254.83254,0,0,1,.66843-.27289c.37448,0,.5741.1749.5741.45831,0,.16809-.05252.33249-.32892.6055l-1.01849.9975v.17859h1.71841v-.22391Zm-.90988-.14008a.18314.18314,0,0,0-.18539.18909.17673.17673,0,0,0,.12588.17828l-.11911.50772h.16812l.14709-.483a.57409.57409,0,0,0,.0491-.203A.18321.18321,0,0,0,275.3623,153.31921Zm-1.60641-2.086v.224h.57742v2.226h.252v-2.45Z" transform="translate(-130.8373 -144.03381)" style="fill:#434242"/><path d="M201.7979,153.47321c-.4269,0-.72119-.3606-.72119-1.01489,0-.65451.2943-1.015.72119-1.015s.72081.3605.72081,1.015c0,.6543-.29391,1.01489-.72081,1.01489m0,.231c.56691,0,.9799-.46548.9799-1.24588,0-.78061-.413-1.24612-.9799-1.24612s-.97659.46552-.97659,1.24612C200.8213,153.23871,201.2309,153.70419,201.7979,153.70419Zm-2.1138-.2135c-.42349,0-.6478-.2554-.6478-.5249a.56727.56727,0,0,1,.6302-.53549c.37779,0,.616.2063.616.52841A.5361.5361,0,0,1,199.6841,153.49069Zm.0209-1.2739a.78373.78373,0,0,0-.74921.4198c-.00679-.07339-.01039-.1434-.01039-.19949,0-.6647.33949-1.0043.86789-1.0043a.86057.86057,0,0,1,.47621.1153l.1015-.20291a1.12569,1.12569,0,0,0-.5811-.133c-.665,0-1.1199.434-1.1199,1.26712,0,.77328.35339,1.22488,1.00459,1.22488a.76339.76339,0,0,0,.8365-.75259A.74178.74178,0,0,0,199.705,152.2168Zm-1.52611,1.10242a.18315.18315,0,0,0-.18539.18909.17666.17666,0,0,0,.12579.17828l-.119.50772h.16809l.14711-.483a.57379.57379,0,0,0,.049-.203A.18318.18318,0,0,0,198.17889,153.31921Zm-1.5293-1.08142h-.315l.084-.78058h1.1199v-.224H196.198l-.12579,1.22861h.52119c.62311,0,.81931.1958.81931.511,0,.29739-.22061.5004-.6373.5004a1.06142,1.06142,0,0,1-.7523-.28351l-.12241.19949a1.26406,1.26406,0,0,0,.8784.315c.5984,0,.889-.32541.889-.74188C197.66811,152.52811,197.388,152.23779,196.6496,152.23779Z" transform="translate(-130.8373 -144.03381)" style="fill:#434242"/><path d="M243.4924,274.26109c-.42351,0-.64771-.25539-.64771-.525a.56724.56724,0,0,1,.6301-.53551c.37791,0,.616.20641.616.52841a.53612.53612,0,0,1-.5984.53209m.021-1.2739a.78342.78342,0,0,0-.74919.4198c-.00681-.07339-.01051-.1434-.01051-.19949,0-.66481.33961-1.00441.8679-1.00441a.86114.86114,0,0,1,.4763.1154l.10139-.203a1.12651,1.12651,0,0,0-.5811-.13289c-.665,0-1.11989.434-1.11989,1.26709,0,.7733.35339,1.22481,1.00459,1.22481a.76334.76334,0,0,0,.8365-.75261A.74173.74173,0,0,0,243.5134,272.9872Zm-2.31709,1.2739c-.434,0-.68941-.18909-.68941-.4935,0-.30109.2554-.4901.68941-.4901s.6931.189.6931.4901C241.8894,274.072,241.63029,274.26109,241.1963,274.26109Zm-.6055-1.624c0-.273.2347-.4411.6055-.4411.36769,0,.60919.16811.60919.4445,0,.26619-.2276.4377-.60919.4377C240.81509,273.0782,240.59081,272.90669,240.59081,272.6371Zm1.07809.5321a.555.555,0,0,0,.392-.5392c0-.3988-.34641-.6474-.86459-.6474-.5179,0-.8575.2486-.8575.6474a.55309.55309,0,0,0,.3853.5392.61093.61093,0,0,0-.47261.60179c0,.434.3569.70351.94481.70351.5845,0,.95219-.2695.95219-.70351A.61686.61686,0,0,0,241.6689,273.1692Zm-1.988.92039a.18318.18318,0,0,0-.18539.1891.17676.17676,0,0,0,.1259.1783l-.11909.5076h.16809l.14711-.483a.57388.57388,0,0,0,.04909-.2029A.1832.1832,0,0,0,239.68089,274.0896Zm-1.33339-1.0361.69279-.87129v-.1786h-1.57491v.22389h1.25291l-.67891.85071v.18539h.1749c.4552,0,.66161.1924.66161.4864,0,.3044-.224.4935-.6299.4935a1.074,1.074,0,0,1-.7597-.28349l-.12239.1996a1.27432,1.27432,0,0,0,.8821.3149c.59129,0,.889-.3149.889-.7245C239.135,273.358,238.8725,273.0816,238.3475,273.0535Z" transform="translate(-130.8373 -144.03381)" style="fill:#434242"/><path d="M166.7942,243.98621c-.37781,0-.61591-.20631-.61591-.52841a.53627.53627,0,0,1,.5986-.532c.42349,0,.64749.25571.64749.525a.56708.56708,0,0,1-.63019.5354m-.02771-1.27391a.76319.76319,0,0,0-.8365.75261.74161.74161,0,0,0,.826.7348.78276.78276,0,0,0,.7489-.41981c.0071.07341.0105.1434.0105.19951,0,.665-.3396,1.0043-.868,1.0043a.85875.85875,0,0,1-.47591-.11531l-.10149.20291a1.124,1.124,0,0,0,.5808.133c.665,0,1.12-.434,1.12-1.26711C167.7708,243.16389,167.4173,242.7123,166.76649,242.7123Zm-2.10359,2.26091c-.42691,0-.72121-.3605-.72121-1.0148,0-.65451.2943-1.015.72121-1.015s.72079.36049.72079,1.015C165.3837,244.6127,165.0898,244.97321,164.6629,244.97321Zm0,.23109c.56689,0,.9799-.4655.9799-1.2459,0-.78061-.413-1.24611-.9799-1.24611s-.97661.4655-.97661,1.24611C163.68629,244.7388,164.0959,245.2043,164.6629,245.2043Zm-1.4877-.385a.18314.18314,0,0,0-.1853.18909.17671.17671,0,0,0,.12581.17831l-.119.50769h.16809l.14711-.483a.5761.5761,0,0,0,.049-.203A.1832.1832,0,0,0,163.1752,244.81931Zm-1.3334-1.036.69281-.8714v-.17859H160.9597v.22389h1.2529l-.67889.85069v.18541h.1749c.4552,0,.66159.1925.66159.4864,0,.30449-.22389.4935-.6299.4935a1.07409,1.07409,0,0,1-.7596-.2834l-.1225.19949a1.27468,1.27468,0,0,0,.8821.315c.5914,0,.889-.315.889-.72459C162.6293,244.08769,162.36681,243.81129,161.8418,243.78329Z" transform="translate(-130.8373 -144.03381)" style="fill:#434242"/><line x1="141.36861" y1="8.48947" x2="134.62019" y2="8.48947" style="fill:none;stroke:#b1b2b2;stroke-miterlimit:22.92558479309082;stroke-width:0.2160000056028366px"/><line x1="63.86861" y1="8.48947" x2="12.93221" y2="8.48947" style="fill:none;stroke:#b1b2b2;stroke-miterlimit:22.92558479309082;stroke-width:0.2160000056028366px"/><line x1="105.36861" y1="129.25978" x2="73.39331" y2="129.25978" style="fill:none;stroke:#b1b2b2;stroke-miterlimit:22.92558479309082;stroke-width:0.2160000056028366px"/><line x1="28.8683" y1="99.98959" x2="7.0504" y2="99.98959" style="fill:none;stroke:#b1b2b2;stroke-miterlimit:22.92558479309082;stroke-width:0.2160000056028366px"/><line x1="157.55611" y1="8.48947" x2="150.80769" y2="8.48947" style="fill:none;stroke:#b1b2b2;stroke-miterlimit:22.92558479309082;stroke-width:0.2160000056028366px"/><line x1="124.57761" y1="8.48947" x2="73.3076" y2="8.48947" style="fill:none;stroke:#b1b2b2;stroke-miterlimit:22.92558479309082;stroke-width:0.2160000056028366px"/><line x1="149.7881" y1="129.25978" x2="114.80771" y2="129.25978" style="fill:none;stroke:#b1b2b2;stroke-miterlimit:22.92558479309082;stroke-width:0.2160000056028366px"/><line x1="66.7894" y1="99.98959" x2="38.3074" y2="99.98959" style="fill:none;stroke:#b1b2b2;stroke-miterlimit:22.92558479309082;stroke-width:0.2160000056028366px"/></svg>