<?xml version="1.0" encoding="utf-8"?>
<!-- Generator: Adobe Illustrator 23.0.2, SVG Export Plug-In . SVG Version: 6.00 Build 0)  -->
<svg version="1.1" id="Слой_1" xmlns="http://www.w3.org/2000/svg" xmlns:xlink="http://www.w3.org/1999/xlink" x="0px" y="0px"
	 viewBox="0 0 623.5 800" enable-background="new 0 0 623.5 800" xml:space="preserve">
<polygon fill="#F3F3F3" stroke="#838383" points="395.9,105.3 593,105.3 593,232.7 536,232.7 536,158.7 395.9,158.7 "/>
<g>
	
		<rect x="338" y="781" transform="matrix(-1 -1.224647e-16 1.224647e-16 -1 952.8014 1576.0238)" fill="#F3F3F3" stroke="#000000" stroke-miterlimit="10" width="276.8" height="14"/>
	
		<rect x="338" y="776.4" transform="matrix(-1 -1.224647e-16 1.224647e-16 -1 933.2499 1557.4652)" fill="#F3F3F3" stroke="#000000" stroke-miterlimit="10" width="257.2" height="4.6"/>
	
		<rect x="338" y="771.9" transform="matrix(-1 -1.224647e-16 1.224647e-16 -1 933.2499 1548.3004)" fill="#F3F3F3" stroke="#000000" stroke-miterlimit="10" width="257.2" height="4.6"/>
	
		<rect x="338" y="762.1" transform="matrix(-1 -1.224647e-16 1.224647e-16 -1 933.2499 1533.9424)" fill="#F3F3F3" stroke="#000000" stroke-miterlimit="10" width="257.2" height="9.8"/>
	
		<rect x="338" y="771.9" transform="matrix(-1 -1.224647e-16 1.224647e-16 -1 680.4192 1552.8828)" fill="#F3F3F3" stroke="#000000" stroke-miterlimit="10" width="4.4" height="9.2"/>
	
		<rect x="590.8" y="771.9" transform="matrix(-1 -1.224647e-16 1.224647e-16 -1 1186.0806 1552.8828)" fill="#F3F3F3" stroke="#000000" stroke-miterlimit="10" width="4.4" height="9.2"/>
</g>
<g>
	<rect x="81.4" y="781.6" fill="#F3F3F3" stroke="#000000" stroke-miterlimit="10" width="132.3" height="13.1"/>
	<rect x="75.6" y="772.2" fill="#F3F3F3" stroke="#000000" stroke-miterlimit="10" width="144.2" height="9.4"/>
	<rect x="75.6" y="758.2" fill="#F3F3F3" stroke="#000000" stroke-miterlimit="10" width="144.2" height="14"/>
	<rect x="75.6" y="772.2" fill="#F3F3F3" stroke="#000000" stroke-miterlimit="10" width="6.9" height="9.4"/>
	<rect x="212.9" y="772.2" fill="#F3F3F3" stroke="#000000" stroke-miterlimit="10" width="6.9" height="9.4"/>
	<rect x="149.8" y="772.2" fill="#F3F3F3" stroke="#000000" stroke-miterlimit="10" width="6.9" height="9.4"/>
</g>
<rect x="429.2" y="617.2" fill="#F3F3F3" stroke="#000000" stroke-miterlimit="10" width="60.6" height="16.5"/>
<rect x="344.4" y="633.7" fill="#F3F3F3" stroke="#000000" stroke-miterlimit="10" width="145.4" height="5.8"/>
<rect x="429.2" y="639.5" fill="#F3F3F3" stroke="#000000" stroke-miterlimit="10" width="55.8" height="14.4"/>
<rect x="425.8" y="633.7" fill="#F3F3F3" stroke="#000000" stroke-miterlimit="10" width="9.2" height="5.8"/>
<rect x="480.8" y="633.7" fill="#F3F3F3" stroke="#000000" stroke-miterlimit="10" width="9.1" height="5.8"/>
<rect x="344.4" y="633.7" fill="#F3F3F3" stroke="#000000" stroke-miterlimit="10" width="8.2" height="5.8"/>
<line fill="#F3F3F3" stroke="#000000" stroke-miterlimit="10" x1="209.7" y1="49.9" x2="290.4" y2="5"/>
<line fill="#F3F3F3" stroke="#000000" stroke-miterlimit="10" x1="207.9" y1="173.2" x2="246.4" y2="237.8"/>
<line fill="#F3F3F3" stroke="#000000" stroke-miterlimit="10" x1="298.6" y1="359.2" x2="229" y2="402.7"/>
<line fill="#F3F3F3" stroke="#000000" stroke-miterlimit="10" x1="352.7" y1="633.7" x2="414.5" y2="595.2"/>
<rect x="8.4" y="781.6" fill="#838383" stroke="#000000" stroke-miterlimit="10" width="73.6" height="13.4"/>
<rect x="8.4" y="72.4" fill="#838383" stroke="#000000" stroke-miterlimit="10" width="22" height="709.2"/>
<rect x="30.4" y="758.3" fill="#838383" stroke="#000000" stroke-miterlimit="10" width="46.1" height="23.2"/>
<rect x="219.8" y="758.3" fill="#838383" stroke="#000000" stroke-miterlimit="10" width="83.4" height="23.2"/>
<rect x="213.7" y="781.6" fill="#838383" stroke="#000000" stroke-miterlimit="10" width="124.3" height="13.4"/>
<rect x="303.2" y="431" fill="#838383" stroke="#000000" stroke-miterlimit="10" width="22.3" height="350.6"/>
<rect x="325.5" y="639.5" fill="#838383" stroke="#000000" stroke-miterlimit="10" width="21.7" height="14.4"/>
<rect x="325.5" y="617.2" fill="#838383" stroke="#000000" stroke-miterlimit="10" width="18" height="22.3"/>
<rect x="325.5" y="653.9" fill="#838383" stroke="#000000" stroke-miterlimit="10" width="12.5" height="127.7"/>
<rect x="485" y="639.5" fill="#838383" stroke="#000000" stroke-miterlimit="10" width="110.3" height="14.4"/>
<rect x="489.8" y="617.2" fill="#838383" stroke="#000000" stroke-miterlimit="10" width="105.4" height="22.3"/>
<rect x="595.2" y="78.3" fill="#838383" stroke="#000000" stroke-miterlimit="10" width="19.6" height="707.8"/>
<rect x="367.8" y="78.3" fill="#838383" stroke="#000000" stroke-miterlimit="10" width="227.4" height="26.6"/>
<rect x="340.8" y="49.9" fill="#838383" stroke="#000000" stroke-miterlimit="10" width="27" height="55"/>
<rect x="8.4" y="49.9" fill="#838383" stroke="#000000" stroke-miterlimit="10" width="201.3" height="22.5"/>
<rect x="303.2" y="49.9" fill="#838383" stroke="#000000" stroke-miterlimit="10" width="37.6" height="22.5"/>
<rect x="201.9" y="72.4" fill="#C6C6C6" stroke="#000000" stroke-miterlimit="10" width="7.8" height="100.8"/>
<rect x="30.4" y="350.1" fill="#C6C6C6" stroke="#000000" stroke-miterlimit="10" width="184.8" height="9.1"/>
<rect x="201.9" y="245.6" fill="#C6C6C6" stroke="#000000" stroke-miterlimit="10" width="7.8" height="104.5"/>
<rect x="30.4" y="338.4" fill="#C6C6C6" stroke="#000000" stroke-miterlimit="10" width="171.5" height="7.8"/>
<rect x="303.2" y="350.1" fill="#C6C6C6" stroke="#000000" stroke-miterlimit="10" width="9.1" height="81"/>
<rect x="298.6" y="350.1" fill="#C6C6C6" stroke="#000000" stroke-miterlimit="10" width="4.6" height="9.1"/>
<rect x="387" y="104.9" fill="#C6C6C6" stroke="#000000" stroke-miterlimit="10" width="7.8" height="128.3"/>
<rect x="340.8" y="225.4" fill="#C6C6C6" stroke="#000000" stroke-miterlimit="10" width="46.3" height="7.8"/>
<rect x="340.8" y="136.2" fill="#C6C6C6" stroke="#000000" stroke-miterlimit="10" width="7.8" height="89.2"/>
<rect x="123.3" y="72.4" fill="#C6C6C6" stroke="#000000" stroke-miterlimit="10" width="7.8" height="47.4"/>
<rect x="60.9" y="112" fill="#C6C6C6" stroke="#000000" stroke-miterlimit="10" width="62.4" height="7.8"/>
<rect x="30.7" y="115.9" fill="#C6C6C6" stroke="#000000" stroke-miterlimit="10" width="30.2" height="3.9"/>
<rect x="340.8" y="104.9" fill="#C6C6C6" stroke="#000000" stroke-miterlimit="10" width="3.9" height="31.3"/>
<g>
	<path d="M397.4,273h-2.9v5.9h-1.3v-12.8h1.3v5.8h2.9l4.3-5.8h1.5l-4.8,6.2l5,6.6h-1.6L397.4,273z"/>
	<path d="M413.4,269.2l-4.8,10.8c-0.4,0.9-0.8,1.5-1.4,1.9c-0.5,0.4-1.1,0.6-1.9,0.6c-0.5,0-0.9-0.1-1.3-0.2s-0.8-0.4-1-0.7l0.6-1
		c0.5,0.5,1.1,0.7,1.8,0.7c0.4,0,0.8-0.1,1.1-0.4c0.3-0.2,0.6-0.7,0.9-1.2l0.4-0.9l-4.3-9.6h1.4l3.6,8.2l3.6-8.2H413.4z"/>
	<path d="M420.9,278.9l-3.1-4l-3.1,4h-1.5l3.8-4.9l-3.6-4.7h1.5l2.9,3.8l2.9-3.8h1.4l-3.6,4.7l3.8,4.9H420.9z"/>
	<path d="M424.5,269.2h1.3v4.3h6.1v-4.3h1.3v9.6h-1.3v-4.3h-6.1v4.3h-1.3V269.2z"/>
	<path d="M444.3,269.2v9.6h-1.2v-3.2h-3h-0.4l-2.2,3.2h-1.4l2.4-3.4c-0.7-0.2-1.3-0.6-1.7-1.1s-0.6-1.1-0.6-1.9
		c0-1.1,0.4-1.9,1.1-2.5c0.7-0.6,1.7-0.8,3-0.8H444.3z M440.2,274.7h2.9v-4.3h-2.8c-1.9,0-2.8,0.7-2.8,2.2
		C437.5,274,438.4,274.7,440.2,274.7z"/>
	<path d="M447.2,273.4h4.8v1.1h-4.8V273.4z"/>
	<path d="M394.3,300.4c-0.8-0.4-1.3-1-1.8-1.8c-0.4-0.8-0.6-1.6-0.6-2.5c0-0.9,0.2-1.8,0.6-2.5c0.4-0.7,1-1.3,1.8-1.7
		c0.8-0.4,1.6-0.6,2.6-0.6c0.8,0,1.6,0.2,2.2,0.5c0.7,0.3,1.2,0.8,1.5,1.4l-1,0.7c-0.3-0.5-0.7-0.8-1.2-1.1c-0.5-0.2-1-0.4-1.6-0.4
		c-0.7,0-1.3,0.2-1.9,0.5c-0.6,0.3-1,0.8-1.3,1.3s-0.5,1.2-0.5,2c0,0.7,0.2,1.4,0.5,2s0.7,1,1.3,1.3c0.6,0.3,1.2,0.5,1.9,0.5
		c0.6,0,1.1-0.1,1.6-0.3c0.5-0.2,0.9-0.6,1.2-1.1l1,0.7c-0.4,0.6-0.9,1.1-1.6,1.4c-0.7,0.3-1.4,0.5-2.2,0.5
		C395.9,301,395,300.8,394.3,300.4z"/>
	<path d="M409.7,292.4h-3.6v8.5h-1.3v-8.5h-3.6v-1.2h8.6V292.4z"/>
	<path d="M412.6,300.3c-0.7-0.4-1.3-1-1.8-1.8s-0.6-1.6-0.6-2.5c0-0.9,0.2-1.8,0.6-2.5c0.4-0.7,1-1.3,1.8-1.7
		c0.7-0.4,1.6-0.6,2.5-0.6s1.8,0.2,2.5,0.6c0.7,0.4,1.3,1,1.8,1.7c0.4,0.7,0.6,1.6,0.6,2.5c0,0.9-0.2,1.8-0.6,2.5s-1,1.3-1.8,1.8
		c-0.7,0.4-1.6,0.6-2.5,0.6S413.4,300.8,412.6,300.3z M417,299.4c0.5-0.3,1-0.8,1.3-1.3s0.5-1.2,0.5-2c0-0.7-0.2-1.4-0.5-2
		s-0.7-1-1.3-1.3s-1.2-0.5-1.8-0.5s-1.3,0.2-1.8,0.5c-0.5,0.3-1,0.8-1.3,1.3s-0.5,1.2-0.5,2c0,0.7,0.2,1.4,0.5,2s0.7,1,1.3,1.3
		c0.5,0.3,1.2,0.5,1.8,0.5S416.4,299.7,417,299.4z"/>
	<path d="M430.6,291.2v9.6h-1.3v-8.5h-4.6l-0.1,2.4c-0.1,2-0.3,3.5-0.7,4.6c-0.4,1.1-1,1.6-2,1.6c-0.3,0-0.6,0-0.9-0.1l0.1-1.1
		c0.2,0,0.4,0.1,0.5,0.1c0.5,0,0.9-0.2,1.1-0.7c0.3-0.5,0.4-1,0.5-1.7c0.1-0.7,0.2-1.6,0.2-2.7l0.2-3.4H430.6z"/>
	<path d="M435.8,300.3c-0.7-0.4-1.3-1-1.8-1.8s-0.6-1.6-0.6-2.5c0-0.9,0.2-1.8,0.6-2.5c0.4-0.7,1-1.3,1.8-1.7
		c0.7-0.4,1.6-0.6,2.5-0.6s1.8,0.2,2.5,0.6c0.7,0.4,1.3,1,1.8,1.7c0.4,0.7,0.6,1.6,0.6,2.5c0,0.9-0.2,1.8-0.6,2.5s-1,1.3-1.8,1.8
		c-0.7,0.4-1.6,0.6-2.5,0.6S436.6,300.8,435.8,300.3z M440.2,299.4c0.5-0.3,1-0.8,1.3-1.3s0.5-1.2,0.5-2c0-0.7-0.2-1.4-0.5-2
		s-0.7-1-1.3-1.3s-1.2-0.5-1.8-0.5s-1.3,0.2-1.8,0.5c-0.5,0.3-1,0.8-1.3,1.3s-0.5,1.2-0.5,2c0,0.7,0.2,1.4,0.5,2s0.7,1,1.3,1.3
		c0.5,0.3,1.2,0.5,1.8,0.5S439.6,299.7,440.2,299.4z"/>
	<path d="M454.1,298.3c0,0.8-0.3,1.5-0.9,1.9s-1.6,0.7-2.8,0.7H446v-9.6h4.3c1.1,0,2,0.2,2.6,0.6s0.9,1,0.9,1.8c0,0.5-0.1,1-0.4,1.3
		c-0.3,0.4-0.7,0.7-1.2,0.8C453.5,296.2,454.1,297,454.1,298.3z M447.3,295.5h2.9c0.7,0,1.3-0.1,1.7-0.4c0.4-0.3,0.6-0.7,0.6-1.2
		s-0.2-0.9-0.6-1.2c-0.4-0.3-1-0.4-1.7-0.4h-2.9V295.5z M452.2,299.5c0.4-0.3,0.6-0.7,0.6-1.3s-0.2-1-0.6-1.3
		c-0.4-0.3-1-0.4-1.8-0.4h-3.2v3.4h3.1C451.2,299.9,451.8,299.7,452.2,299.5z"/>
	<path d="M463.4,292.1c0.7,0.6,1,1.6,1,2.8v6h-1.2v-1.5c-0.3,0.5-0.7,0.9-1.3,1.2c-0.6,0.3-1.2,0.4-2,0.4c-1.1,0-1.9-0.3-2.6-0.8
		c-0.6-0.5-1-1.2-1-2c0-0.8,0.3-1.5,0.9-2s1.5-0.8,2.8-0.8h3.1v-0.6c0-0.8-0.2-1.5-0.7-1.9c-0.5-0.4-1.1-0.7-2-0.7
		c-0.6,0-1.2,0.1-1.8,0.3c-0.6,0.2-1,0.5-1.4,0.8l-0.6-1c0.5-0.4,1.1-0.7,1.8-1c0.7-0.2,1.4-0.3,2.2-0.3
		C461.7,291.2,462.7,291.5,463.4,292.1z M461.9,299.4c0.5-0.3,0.9-0.8,1.2-1.5v-1.6h-3c-1.6,0-2.5,0.6-2.5,1.7c0,0.6,0.2,1,0.6,1.3
		c0.4,0.3,1,0.5,1.8,0.5C460.7,299.9,461.4,299.8,461.9,299.4z"/>
	<path d="M475.2,291.2v9.6H474v-3.2h-3h-0.4l-2.2,3.2H467l2.4-3.4c-0.7-0.2-1.3-0.6-1.7-1.1s-0.6-1.1-0.6-1.9c0-1.1,0.4-1.9,1.1-2.5
		c0.7-0.6,1.7-0.8,3-0.8H475.2z M471.1,296.7h2.9v-4.3h-2.8c-1.9,0-2.8,0.7-2.8,2.2C468.4,296,469.3,296.7,471.1,296.7z"/>
	<path d="M397,312.3v16h-2.3v-14h-3.6v-2H397z"/>
	<path d="M412.2,312.3v1.6l-6.5,14.5h-2.4l6.3-14h-7.3v2.9h-2.2v-4.9H412.2z"/>
	<path d="M415.6,325.8c0.3,0.3,0.4,0.7,0.4,1.1c0,0.2,0,0.5-0.1,0.7s-0.2,0.5-0.3,1l-1.1,3.2h-1.4l0.8-3.4c-0.3-0.1-0.5-0.3-0.7-0.5
		s-0.3-0.5-0.3-0.9c0-0.5,0.1-0.8,0.4-1.1s0.7-0.4,1.1-0.4C415,325.4,415.3,325.5,415.6,325.8z"/>
	<path d="M422.9,312.3v16h-2.3v-14H417v-2H422.9z"/>
</g>
<g>
	<path d="M175.3,699.9c-1-0.6-1.8-1.3-2.4-2.3c-0.6-1-0.9-2.1-0.9-3.3c0-1.2,0.3-2.3,0.9-3.3c0.6-1,1.4-1.8,2.4-2.3
		c1-0.6,2.2-0.8,3.4-0.8c1,0,1.8,0.2,2.6,0.5c0.8,0.3,1.5,0.8,2.1,1.4l-0.9,0.9c-1-1-2.3-1.5-3.8-1.5c-1,0-1.9,0.2-2.8,0.7
		c-0.8,0.5-1.5,1.1-2,1.9c-0.5,0.8-0.7,1.7-0.7,2.7c0,1,0.2,1.9,0.7,2.7c0.5,0.8,1.1,1.4,2,1.9c0.8,0.5,1.8,0.7,2.8,0.7
		c1.5,0,2.8-0.5,3.8-1.5l0.9,0.9c-0.6,0.6-1.2,1.1-2.1,1.4c-0.8,0.3-1.7,0.5-2.6,0.5C177.4,700.7,176.3,700.5,175.3,699.9z"/>
	<path d="M194.5,691v9.6h-1.3v-8.5h-6v8.5h-1.3V691H194.5z"/>
	<path d="M204.5,691.9c0.7,0.6,1,1.6,1,2.8v6h-1.2v-1.5c-0.3,0.5-0.7,0.9-1.3,1.2s-1.2,0.4-2,0.4c-1.1,0-1.9-0.3-2.6-0.8
		c-0.6-0.5-1-1.2-1-2c0-0.8,0.3-1.5,0.9-2s1.5-0.8,2.8-0.8h3.1v-0.6c0-0.8-0.2-1.5-0.7-1.9c-0.5-0.4-1.1-0.7-2-0.7
		c-0.6,0-1.2,0.1-1.8,0.3c-0.6,0.2-1,0.5-1.4,0.8l-0.6-1c0.5-0.4,1.1-0.7,1.8-1c0.7-0.2,1.4-0.3,2.2-0.3
		C202.8,690.9,203.8,691.2,204.5,691.9z M203,699.2c0.5-0.3,0.9-0.8,1.2-1.5v-1.6h-3c-1.6,0-2.5,0.6-2.5,1.7c0,0.6,0.2,1,0.6,1.3
		c0.4,0.3,1,0.5,1.8,0.5C201.8,699.7,202.5,699.5,203,699.2z"/>
	<path d="M216.8,691v9.6h-1.3v-8.5h-4.6l-0.1,2.4c-0.1,2-0.3,3.5-0.7,4.6s-1,1.6-2,1.6c-0.3,0-0.6,0-0.9-0.1l0.1-1.1
		c0.2,0,0.4,0.1,0.5,0.1c0.5,0,0.9-0.2,1.1-0.7c0.3-0.5,0.4-1,0.5-1.7c0.1-0.7,0.2-1.6,0.2-2.7l0.2-3.4H216.8z"/>
	<path d="M227.4,695.2c0.6,0.5,0.9,1.3,0.9,2.3c0,1-0.3,1.8-1,2.4s-1.7,0.8-2.9,0.8l-3.9,0V691h1.3v3.4l2.8,0
		C225.9,694.4,226.8,694.7,227.4,695.2z M226.4,699.1c0.5-0.4,0.7-0.9,0.7-1.6c0-0.7-0.2-1.2-0.7-1.6c-0.5-0.3-1.1-0.5-2-0.5l-2.5,0
		v4.3l2.5,0C225.2,699.7,225.9,699.5,226.4,699.1z"/>
	<path d="M230.8,691h1.3v4.3h6.1V691h1.3v9.6h-1.3v-4.3h-6.1v4.3h-1.3V691z"/>
	<path d="M250.6,691v9.6h-1.2v-3.2h-3H246l-2.2,3.2h-1.4l2.4-3.4c-0.7-0.2-1.3-0.6-1.7-1.1s-0.6-1.1-0.6-1.9c0-1.1,0.4-1.9,1.1-2.5
		c0.7-0.6,1.7-0.8,3-0.8H250.6z M246.5,696.5h2.9v-4.3h-2.8c-1.9,0-2.8,0.7-2.8,2.2C243.8,695.8,244.7,696.5,246.5,696.5z"/>
	<path d="M177,712.1v16h-2.3v-14h-3.6v-2H177z"/>
	<path d="M191.8,726.1v2h-11.5v-1.6l6.5-6.3c0.8-0.8,1.3-1.4,1.6-2s0.4-1.1,0.4-1.7c0-0.8-0.3-1.5-0.9-2c-0.6-0.5-1.4-0.7-2.5-0.7
		c-1.8,0-3.1,0.6-4.1,1.7l-1.6-1.4c0.6-0.8,1.4-1.4,2.5-1.8c1-0.4,2.1-0.6,3.4-0.6c1.7,0,3,0.4,4,1.2c1,0.8,1.5,1.9,1.5,3.3
		c0,0.9-0.2,1.7-0.5,2.4s-1.1,1.6-2.1,2.6l-4.9,4.7H191.8z"/>
	<path d="M196.5,725.6c0.3,0.3,0.4,0.7,0.4,1.1c0,0.2,0,0.5-0.1,0.7s-0.2,0.5-0.3,1l-1.1,3.2H194l0.8-3.4c-0.3-0.1-0.5-0.3-0.7-0.5
		c-0.2-0.3-0.3-0.5-0.3-0.9c0-0.5,0.1-0.8,0.4-1.1c0.3-0.3,0.7-0.4,1.1-0.4C195.8,725.1,196.2,725.3,196.5,725.6z"/>
	<path d="M209.3,714c1.2,1.4,1.8,3.4,1.8,5.9c0,1.8-0.3,3.3-1,4.6c-0.6,1.3-1.5,2.2-2.7,2.9c-1.1,0.6-2.5,1-4,1
		c-0.8,0-1.5-0.1-2.2-0.2c-0.7-0.2-1.3-0.4-1.8-0.7l0.9-1.8c0.8,0.5,1.8,0.8,3.1,0.8c1.7,0,3-0.5,3.9-1.5s1.4-2.5,1.4-4.5v-0.6
		c-0.5,0.7-1.1,1.2-1.9,1.6c-0.8,0.4-1.7,0.5-2.7,0.5c-1.1,0-2-0.2-2.8-0.6c-0.8-0.4-1.5-1-1.9-1.7s-0.7-1.6-0.7-2.6
		c0-1,0.2-1.9,0.7-2.7c0.5-0.8,1.2-1.4,2-1.8s1.8-0.6,2.9-0.6C206.4,711.9,208.1,712.6,209.3,714z M206.4,719.6
		c0.6-0.3,1-0.6,1.3-1.1c0.3-0.5,0.5-1,0.5-1.6c0-0.6-0.1-1.1-0.4-1.5s-0.7-0.8-1.3-1.1c-0.6-0.3-1.3-0.4-2.1-0.4
		c-1.1,0-1.9,0.3-2.6,0.8c-0.6,0.6-1,1.3-1,2.3s0.3,1.7,1,2.3s1.5,0.8,2.7,0.8C205.2,720,205.8,719.8,206.4,719.6z"/>
</g>
<g>
	<path d="M443.5,732.5c0.8,0.8,1.2,1.9,1.2,3.1c0,0.9-0.2,1.7-0.7,2.5c-0.5,0.7-1.1,1.3-2.1,1.8s-2,0.7-3.3,0.7
		c-1.1,0-2.2-0.2-3.3-0.5c-1.1-0.3-1.9-0.8-2.6-1.4l1.1-1.8c0.5,0.5,1.3,0.9,2.1,1.2c0.9,0.3,1.8,0.5,2.7,0.5c1.2,0,2.1-0.3,2.8-0.8
		s1-1.2,1-2.1s-0.3-1.6-1-2.1c-0.7-0.5-1.7-0.7-3-0.7h-1.3v-1.6l4-4.9h-7.7v-2h10.6v1.6l-4.2,5.2
		C441.5,731.2,442.7,731.7,443.5,732.5z"/>
	<path d="M449.5,737.8c0.3,0.3,0.4,0.7,0.4,1.1c0,0.2,0,0.5-0.1,0.7s-0.2,0.5-0.3,1l-1.1,3.2H447l0.8-3.4c-0.3-0.1-0.5-0.3-0.7-0.5
		s-0.3-0.5-0.3-0.9c0-0.5,0.1-0.8,0.4-1.1s0.7-0.4,1.1-0.4C448.8,737.3,449.2,737.5,449.5,737.8z"/>
	<path d="M461.7,732c1.1,0.9,1.6,2,1.6,3.5c0,0.9-0.2,1.8-0.7,2.6s-1.1,1.4-2,1.8s-2,0.7-3.4,0.7c-1.1,0-2.2-0.2-3.3-0.5
		c-1.1-0.3-1.9-0.8-2.6-1.4l1.1-1.8c0.5,0.5,1.3,0.9,2.1,1.2c0.9,0.3,1.8,0.5,2.7,0.5c1.2,0,2.1-0.3,2.8-0.8c0.7-0.5,1-1.2,1-2.1
		c0-1-0.4-1.7-1.1-2.2s-2-0.7-3.8-0.7h-3.6l0.8-8.4h9v2h-7.1l-0.4,4.4h1.8C458.9,730.7,460.6,731.1,461.7,732z"/>
</g>
<g>
	<path d="M136.2,238.7h-3v3.9h-2.2v-3.9H122v-1.6l8.2-10.5h2.5l-7.9,10.1h6.2v-3.5h2.2v3.5h3V238.7z"/>
	<path d="M140.6,240.1c0.3,0.3,0.4,0.7,0.4,1.1c0,0.2,0,0.5-0.1,0.7s-0.2,0.5-0.3,1l-1.1,3.2h-1.4l0.8-3.4c-0.3-0.1-0.5-0.3-0.7-0.5
		c-0.2-0.3-0.3-0.5-0.3-0.9c0-0.5,0.1-0.8,0.4-1.1c0.3-0.3,0.7-0.4,1.1-0.4C140,239.7,140.3,239.8,140.6,240.1z"/>
	<path d="M152.8,234.3c1.1,0.9,1.6,2,1.6,3.5c0,0.9-0.2,1.8-0.7,2.6c-0.5,0.8-1.1,1.4-2,1.8s-2,0.7-3.4,0.7c-1.1,0-2.2-0.2-3.3-0.5
		c-1.1-0.3-1.9-0.8-2.6-1.4l1.1-1.8c0.6,0.5,1.3,0.9,2.1,1.2c0.9,0.3,1.8,0.5,2.7,0.5c1.2,0,2.1-0.3,2.8-0.8c0.7-0.5,1-1.2,1-2.1
		c0-1-0.4-1.7-1.1-2.2c-0.7-0.5-2-0.7-3.8-0.7h-3.6l0.8-8.4h9.1v2h-7.1L146,233h1.8C150.1,233,151.8,233.5,152.8,234.3z"/>
</g>
<g>
	<path d="M266.4,199.1v2h-11.5v-1.6l6.5-6.3c0.8-0.8,1.3-1.4,1.6-2c0.3-0.6,0.4-1.1,0.4-1.7c0-0.8-0.3-1.5-0.9-2
		c-0.6-0.5-1.4-0.7-2.5-0.7c-1.8,0-3.1,0.6-4.1,1.7l-1.6-1.4c0.6-0.8,1.4-1.4,2.5-1.8c1-0.4,2.1-0.6,3.4-0.6c1.7,0,3,0.4,4,1.2
		c1,0.8,1.5,1.9,1.5,3.3c0,0.9-0.2,1.7-0.5,2.4c-0.4,0.8-1.1,1.6-2.1,2.6l-4.9,4.7H266.4z"/>
	<path d="M271.1,198.6c0.3,0.3,0.4,0.7,0.4,1.1c0,0.2,0,0.5-0.1,0.7s-0.2,0.5-0.3,1l-1.1,3.2h-1.4l0.8-3.4c-0.3-0.1-0.5-0.3-0.7-0.5
		c-0.2-0.3-0.3-0.5-0.3-0.9c0-0.5,0.1-0.8,0.4-1.1c0.3-0.3,0.7-0.4,1.1-0.4C270.4,198.1,270.8,198.3,271.1,198.6z"/>
	<path d="M287.4,197.2h-3v3.9h-2.2v-3.9h-8.9v-1.6l8.2-10.5h2.5l-7.9,10.1h6.2v-3.5h2.2v3.5h3V197.2z"/>
</g>
<g id="moyka_2_2_">
	<path fill="#F3F3F3" stroke="#838383" d="M455.2,145.5c0,1.6-1.3,2.9-2.9,2.9h-41.7c-1.6,0-2.9-1.3-2.9-2.9v-34.5
		c0-1.6,1.3-2.9,2.9-2.9h41.7c1.6,0,2.9,1.3,2.9,2.9V145.5z"/>
	<path fill="#F3F3F3" stroke="#838383" d="M452.3,142.7c0,1.6-1.3,2.9-2.9,2.9h-35.9c-1.6,0-2.9-1.3-2.9-2.9v-24.4
		c0-1.6,1.3-2.9,2.9-2.9h35.9c1.6,0,2.9,1.3,2.9,2.9V142.7z"/>
	<rect x="430.7" y="112.5" fill="#F3F3F3" stroke="#838383" width="2.9" height="11.5"/>
	<circle fill="#F3F3F3" stroke="#838383" cx="431.4" cy="131.9" r="2.2"/>
</g>
<g id="plita_2_">
	<rect x="483.7" y="105.9" fill="#F3F3F3" stroke="#838383" width="51.7" height="50.3"/>
	<circle fill="#F3F3F3" stroke="#838383" cx="522.5" cy="141.8" r="8.6"/>
	<circle fill="#F3F3F3" stroke="#838383" cx="501" cy="120.3" r="8.6"/>
	<circle fill="#F3F3F3" stroke="#838383" cx="522.5" cy="120.3" r="7.2"/>
	<circle fill="#F3F3F3" stroke="#838383" cx="501" cy="141.8" r="7.2"/>
</g>
<g id="unitaz_3_">
	<path fill="#F3F3F3" stroke="#838383" d="M30.7,181.6h12c1.9,0,3.4-1.5,3.4-3.4v-30.8c0-1.9-1.5-3.4-3.4-3.4h-12V181.6z"/>
	<path fill="#F3F3F3" stroke="#838383" d="M46.1,178.2c0,1.9,1.5,3.4,3.4,3.4v-37.7c-1.9,0-3.4,1.5-3.4,3.4V178.2z"/>
	<path fill="#F3F3F3" stroke="#838383" d="M49.5,143.9v37.7c0,0,44.5,7.7,44.5-18.8C94.1,136.2,49.5,143.9,49.5,143.9z"/>
	<circle fill="#F3F3F3" stroke="#838383" cx="37.6" cy="162.8" r="3.4"/>
</g>
<g id="moyka_3_">
	<path fill="#F3F3F3" stroke="#838383" d="M31.4,258.9c0,1,0.8,1.8,1.8,1.8h36.9c1,0,1.8-0.8,1.8-1.8v-55.3c0-1-0.8-1.8-1.8-1.8
		H33.3c-1,0-1.8,0.8-1.8,1.8V258.9z"/>
	<rect x="37" y="201.8" fill="#F3F3F3" stroke="#838383" width="3.7" height="59"/>
	<ellipse fill="#F3F3F3" stroke="#838383" cx="56.3" cy="230.3" rx="12" ry="19.4"/>
	<rect x="37" y="229.4" fill="#F3F3F3" stroke="#838383" width="14.7" height="3.7"/>
	<circle fill="#F3F3F3" stroke="#838383" cx="58.2" cy="232.2" r="2.8"/>
</g>
<g id="stirka_2_">
	<rect x="144.7" y="75.1" fill="#F3F3F3" stroke="#838383" width="52.5" height="52.5"/>
	<path fill="#F3F3F3" stroke="#838383" d="M148.2,80.4c0,1.9,1.6,3.5,3.5,3.5h12.3c1.9,0,3.5-1.6,3.5-3.5v-5.3h-19.3V80.4z"/>
	<circle fill="#F3F3F3" stroke="#838383" cx="170.9" cy="103.1" r="14"/>
	<circle fill="#F3F3F3" stroke="#838383" cx="170.9" cy="103.1" r="10.5"/>
	<circle fill="#F3F3F3" stroke="#838383" cx="188.4" cy="83.9" r="3.5"/>
</g>
<g id="vanna_2_">
	<rect x="31.4" y="271.4" fill="#F3F3F3" stroke="#838383" width="157.7" height="61.8"/>
	<path fill="#F3F3F3" stroke="#838383" d="M179.4,292.6c0-9-7.3-16.3-16.3-16.3h-109v52h109c9,0,16.3-7.3,16.3-16.3V292.6z"/>
	<path fill="#F3F3F3" stroke="#838383" d="M51.7,304v13H46v-22"/>
	<path id="Union_2_" fill="#F3F3F3" stroke="#838383" d="M44.4,292.3c-1.9-0.7-3.3-2.5-3.3-4.6c0-2.7,2.2-4.9,4.9-4.9
		c2.7,0,4.9,2.2,4.9,4.9c0,2.1-1.4,3.9-3.3,4.6v1.9c0,0.9-0.7,1.6-1.6,1.6c-0.9,0-1.6-0.7-1.6-1.6V292.3z"/>
	<rect x="49.3" y="300.7" fill="#F3F3F3" stroke="#838383" width="13" height="3.3"/>
</g>
<g>
	<g>
		
			<rect x="31.5" y="502.9" fill-rule="evenodd" clip-rule="evenodd" fill="#F1F2F2" stroke="#848484" stroke-miterlimit="10" width="193.4" height="150.1"/>
		
			<rect x="39.2" y="506.4" fill-rule="evenodd" clip-rule="evenodd" fill="#F1F2F2" stroke="#848484" stroke-miterlimit="10" width="180.3" height="143.2"/>
		
			<rect x="43.9" y="510.7" fill-rule="evenodd" clip-rule="evenodd" fill="#F1F2F2" stroke="#848484" stroke-miterlimit="10" width="40.7" height="55.7"/>
		
			<rect x="43.9" y="589.4" fill-rule="evenodd" clip-rule="evenodd" fill="#F1F2F2" stroke="#848484" stroke-miterlimit="10" width="40.7" height="55.7"/>
		<polygon fill-rule="evenodd" clip-rule="evenodd" fill="#F1F2F2" stroke="#848484" stroke-miterlimit="10" points="105.3,506.4 
			80.4,549.1 80.4,606.9 80.4,549.1 80.4,606.9 105.3,649.7 219.5,649.7 219.5,649.5 219.5,506.4 		"/>
		<polyline fill-rule="evenodd" clip-rule="evenodd" fill="#F1F2F2" stroke="#848484" stroke-miterlimit="10" points="105.3,506.4 
			123.5,536.4 80.4,549.1 		"/>
		
			<line fill-rule="evenodd" clip-rule="evenodd" fill="#F1F2F2" stroke="#848484" stroke-miterlimit="10" x1="80.4" y1="549.1" x2="105.3" y2="506.4"/>
		<polyline fill-rule="evenodd" clip-rule="evenodd" fill="#F1F2F2" stroke="#848484" stroke-miterlimit="10" points="105.3,649.7 
			123.5,619.7 80.4,606.9 		"/>
		
			<line fill-rule="evenodd" clip-rule="evenodd" fill="#F1F2F2" stroke="#848484" stroke-miterlimit="10" x1="80.4" y1="606.9" x2="105.3" y2="649.7"/>
	</g>
	<g>
		
			<rect x="24.3" y="663.1" transform="matrix(-1.836970e-16 1 -1 -1.836970e-16 732.9655 631.5315)" fill="#F1F2F2" stroke="#848484" stroke-miterlimit="10" width="52.8" height="38.4"/>
		
			<rect x="60.1" y="680.8" transform="matrix(-1.836970e-16 1 -1 -1.836970e-16 753.2059 610.8782)" fill="#F1F2F2" stroke="#848484" stroke-miterlimit="10" width="22.2" height="2.5"/>
	</g>
	<g>
		
			<rect x="24.3" y="454.3" transform="matrix(-1.836970e-16 1 -1 -1.836970e-16 524.2432 422.8092)" fill="#F1F2F2" stroke="#848484" stroke-miterlimit="10" width="52.8" height="38.4"/>
		
			<rect x="60.1" y="472.1" transform="matrix(1.641293e-13 1 -1 1.641293e-13 544.4836 402.156)" fill="#F1F2F2" stroke="#848484" stroke-miterlimit="10" width="22.2" height="2.5"/>
	</g>
</g>
<g>
	
		<rect x="32.3" y="361.7" transform="matrix(-1 -4.488155e-11 4.488155e-11 -1 225.7612 778.9637)" fill-rule="evenodd" clip-rule="evenodd" fill="#F1F2F2" stroke="#848484" stroke-miterlimit="10" width="161.1" height="55.6"/>
	<line fill="#F1F2F2" stroke="#848484" stroke-miterlimit="10" x1="187.6" y1="361.7" x2="187.6" y2="417.4"/>
	<line fill="#F1F2F2" stroke="#848484" stroke-miterlimit="10" x1="38.3" y1="361.7" x2="38.3" y2="417.3"/>
	<line fill="#F1F2F2" stroke="#848484" stroke-miterlimit="10" x1="187.6" y1="414.7" x2="38.3" y2="414.7"/>
	<line fill="#F1F2F2" stroke="#848484" stroke-miterlimit="10" x1="43.5" y1="389.1" x2="182.4" y2="389.1"/>
	
		<rect x="173.5" y="372.4" transform="matrix(-0.9868 0.162 -0.162 -0.9868 411.1679 745.2244)" fill="#F1F2F2" stroke="#848484" stroke-miterlimit="10" width="3.5" height="33.9"/>
	
		<rect x="161" y="372.4" transform="matrix(-0.9961 8.815246e-02 -8.815246e-02 -0.9961 359.1396 762.8829)" fill="#F1F2F2" stroke="#848484" stroke-miterlimit="10" width="3.5" height="33.9"/>
	
		<rect x="148.3" y="372.1" transform="matrix(-0.9734 0.229 -0.229 -0.9734 385.2831 733.4551)" fill="#F1F2F2" stroke="#848484" stroke-miterlimit="10" width="3.5" height="33.9"/>
	
		<rect x="134.2" y="372.5" transform="matrix(-0.9884 0.152 -0.152 -0.9884 329.5976 753.7181)" fill="#F1F2F2" stroke="#848484" stroke-miterlimit="10" width="3.5" height="33.9"/>
	
		<rect x="121.9" y="372.3" transform="matrix(-0.999 4.511170e-02 -4.511170e-02 -0.999 264.7985 772.5668)" fill="#F1F2F2" stroke="#848484" stroke-miterlimit="10" width="3.5" height="33.9"/>
	
		<rect x="109.5" y="372.3" transform="matrix(-0.9884 0.152 -0.152 -0.9884 280.3518 757.1054)" fill="#F1F2F2" stroke="#848484" stroke-miterlimit="10" width="3.5" height="33.9"/>
	
		<rect x="96.8" y="372.1" transform="matrix(-0.999 4.511170e-02 -4.511170e-02 -0.999 214.6227 773.3208)" fill="#F1F2F2" stroke="#848484" stroke-miterlimit="10" width="3.5" height="33.9"/>
	
		<rect x="84.4" y="372.1" transform="matrix(-0.9787 0.2052 -0.2052 -0.9787 250.368 752.2047)" fill="#F1F2F2" stroke="#848484" stroke-miterlimit="10" width="3.5" height="33.9"/>
	
		<rect x="72" y="372.2" transform="matrix(-0.9884 0.152 -0.152 -0.9884 205.8835 762.4922)" fill="#F1F2F2" stroke="#848484" stroke-miterlimit="10" width="3.5" height="33.9"/>
	
		<rect x="59.6" y="372.1" transform="matrix(-0.9964 8.473843e-02 -8.473843e-02 -0.9964 155.533 771.5626)" fill="#F1F2F2" stroke="#848484" stroke-miterlimit="10" width="3.5" height="33.9"/>
	
		<rect x="47.3" y="372.5" transform="matrix(-0.9713 0.2379 -0.2379 -0.9713 189.2502 756.1505)" fill="#F1F2F2" stroke="#848484" stroke-miterlimit="10" width="3.5" height="33.9"/>
</g>
<g>
	<path fill-rule="evenodd" clip-rule="evenodd" fill="#F1F2F2" stroke="#848484" stroke-miterlimit="10" d="M467.1,615.2H533h53.1
		c3.5,0,6.4-2.9,6.4-6.4v-53.2V394.7c0-3.5-2.9-6.4-6.4-6.4H533c-3.5,0-6.4,2.9-6.4,6.4v148c0,3.5-2.9,6.4-6.4,6.4h-53.1
		c-3.5,0-6.4,2.9-6.4,6.4v53.2C460.7,612.3,463.6,615.2,467.1,615.2z"/>
	<g>
		<path fill-rule="evenodd" clip-rule="evenodd" fill="#F1F2F2" stroke="#848484" stroke-miterlimit="10" d="M537.2,549.1
			c-7.5,0-10.6,0.4-10.6,9.9v28.3c0,9.5,3.2,9.9,10.6,9.9h28.2c7.5,0,10.6-0.4,10.6-9.9V559c0-9.5-3.2-9.9-10.6-9.9H537.2z"/>
		<path fill-rule="evenodd" clip-rule="evenodd" fill="#F1F2F2" stroke="#848484" stroke-miterlimit="10" d="M537.2,549.1
			c-7.5,0-10.6,0.4-10.6,9.9v28.3c0,9.5,3.2,9.9,10.6,9.9h28.2c7.5,0,10.6-0.4,10.6-9.9V559c0-9.5-3.2-9.9-10.6-9.9H537.2z"/>
		<path fill-rule="evenodd" clip-rule="evenodd" fill="#F1F2F2" stroke="#848484" stroke-miterlimit="10" d="M537.2,501.4
			c-7.5,0-10.6,0.4-10.6,9.9v28.3c0,9.5,3.2,9.9,10.6,9.9h28.2c7.5,0,10.6-0.4,10.6-9.9v-28.3c0-9.5-3.2-9.9-10.6-9.9H537.2z"/>
		<path fill-rule="evenodd" clip-rule="evenodd" fill="#F1F2F2" stroke="#848484" stroke-miterlimit="10" d="M537.2,501.4
			c-7.5,0-10.6,0.4-10.6,9.9v28.3c0,9.5,3.2,9.9,10.6,9.9h28.2c7.5,0,10.6-0.4,10.6-9.9v-28.3c0-9.5-3.2-9.9-10.6-9.9H537.2z"/>
		<path fill-rule="evenodd" clip-rule="evenodd" fill="#F1F2F2" stroke="#848484" stroke-miterlimit="10" d="M537.2,453.7
			c-7.5,0-10.6,0.4-10.6,9.8v28.4c0,9.5,3.2,9.8,10.6,9.8h28.2c7.5,0,10.6-0.4,10.6-9.8v-28.4c0-9.5-3.2-9.8-10.6-9.8H537.2z"/>
		<path fill-rule="evenodd" clip-rule="evenodd" fill="#F1F2F2" stroke="#848484" stroke-miterlimit="10" d="M537.2,453.7
			c-7.5,0-10.6,0.4-10.6,9.8v28.4c0,9.5,3.2,9.8,10.6,9.8h28.2c7.5,0,10.6-0.4,10.6-9.8v-28.4c0-9.5-3.2-9.8-10.6-9.8H537.2z"/>
		<path fill-rule="evenodd" clip-rule="evenodd" fill="#F1F2F2" stroke="#848484" stroke-miterlimit="10" d="M487.8,549.1
			c-7.5,0-10.6,0.4-10.6,9.9v28.3c0,9.5,3.2,9.9,10.6,9.9H516c7.5,0,10.6-0.4,10.6-9.9V559c0-9.5-3.2-9.9-10.6-9.9H487.8z"/>
		<path fill-rule="evenodd" clip-rule="evenodd" fill="#F1F2F2" stroke="#848484" stroke-miterlimit="10" d="M537.4,406
			c-7.5,0-10.6,0.4-10.6,9.8v28.4c0,9.5,3.2,9.8,10.6,9.8h28.2c7.5,0,10.6-0.4,10.6-9.8v-28.4c0-9.5-3.2-9.8-10.6-9.8H537.4z"/>
		<path fill-rule="evenodd" clip-rule="evenodd" fill="#F1F2F2" stroke="#848484" stroke-miterlimit="10" d="M585.7,615.2H470.3
			h-2.8c-3.8,0-6.8-3.3-6.8-7.3v-3v-48.3c0-4,3.1-7.3,6.8-7.3h2.8c3.8,0,6.8,3.3,6.8,7.3v41h98.9V406h-42.6c-3.8,0-6.8-3.3-6.8-7.3
			v-3c0-4,3.1-7.3,6.8-7.3h49.5h2.8c3.8,0,6.8,3.3,6.8,7.3v3v206.1v3v0C592.5,611.9,589.5,615.2,585.7,615.2z"/>
	</g>
</g>
<g>
	
		<rect x="589.5" y="240.2" fill-rule="evenodd" clip-rule="evenodd" fill="#F1F2F2" stroke="#848484" stroke-miterlimit="10" width="3.5" height="49"/>
	
		<rect x="589.5" y="240.2" fill-rule="evenodd" clip-rule="evenodd" fill="#F1F2F2" stroke="#848484" stroke-miterlimit="10" width="3.5" height="49"/>
	
		<rect x="533.3" y="273.5" fill-rule="evenodd" clip-rule="evenodd" fill="#F1F2F2" stroke="#848484" stroke-miterlimit="10" width="4.8" height="16.1"/>
	
		<rect x="533.3" y="273.5" fill-rule="evenodd" clip-rule="evenodd" fill="#F1F2F2" stroke="#848484" stroke-miterlimit="10" width="4.8" height="16.1"/>
	
		<rect x="536.1" y="237.9" fill-rule="evenodd" clip-rule="evenodd" fill="#F1F2F2" stroke="#848484" stroke-miterlimit="10" width="53.7" height="53.9"/>
	
		<rect x="536.1" y="237.9" fill-rule="evenodd" clip-rule="evenodd" fill="#F1F2F2" stroke="#848484" stroke-miterlimit="10" width="53.7" height="53.9"/>
	<path fill-rule="evenodd" clip-rule="evenodd" fill="#F1F2F2" stroke="#848484" stroke-miterlimit="10" d="M540.9,237.9v53.9V237.9
		z"/>
	<path fill-rule="evenodd" clip-rule="evenodd" fill="#F1F2F2" stroke="#848484" stroke-miterlimit="10" d="M541.1,235.3
		c1.1,0,2.1,0.9,2.1,2.1c0,1.3-1.1,2.1-2.1,2.1c-1.3,0-2.3-0.9-2.3-2.1C538.8,236.3,539.8,235.3,541.1,235.3z"/>
	<path fill-rule="evenodd" clip-rule="evenodd" fill="#F1F2F2" stroke="#848484" stroke-miterlimit="10" d="M541.1,235.3
		c1.1,0,2.1,0.9,2.1,2.1c0,1.3-1.1,2.1-2.1,2.1c-1.3,0-2.3-0.9-2.3-2.1C538.8,236.3,539.8,235.3,541.1,235.3z"/>
	<path fill-rule="evenodd" clip-rule="evenodd" fill="#F1F2F2" stroke="#848484" stroke-miterlimit="10" d="M568.6,265.1h-9.5H568.6
		z"/>
	<path fill-rule="evenodd" clip-rule="evenodd" fill="#F1F2F2" stroke="#848484" stroke-miterlimit="10" d="M564,260.5v9.5V260.5z"
		/>
	<path fill-rule="evenodd" clip-rule="evenodd" fill="#F1F2F2" stroke="#848484" stroke-miterlimit="10" d="M560.4,261.8l6.9,6.9
		L560.4,261.8z"/>
	<path fill-rule="evenodd" clip-rule="evenodd" fill="#F1F2F2" stroke="#848484" stroke-miterlimit="10" d="M560.4,268.6l6.9-6.9
		L560.4,268.6z"/>
	<path fill-rule="evenodd" clip-rule="evenodd" fill="#F1F2F2" stroke="#848484" stroke-miterlimit="10" d="M568.9,251.2l-9.5,0
		L568.9,251.2z"/>
	<path fill-rule="evenodd" clip-rule="evenodd" fill="#F1F2F2" stroke="#848484" stroke-miterlimit="10" d="M564.3,246.5v9.5V246.5z
		"/>
	<path fill-rule="evenodd" clip-rule="evenodd" fill="#F1F2F2" stroke="#848484" stroke-miterlimit="10" d="M560.7,247.9l6.9,6.9
		L560.7,247.9z"/>
	<path fill-rule="evenodd" clip-rule="evenodd" fill="#F1F2F2" stroke="#848484" stroke-miterlimit="10" d="M560.7,254.7l6.9-6.9
		L560.7,254.7z"/>
	<path fill-rule="evenodd" clip-rule="evenodd" fill="#F1F2F2" stroke="#848484" stroke-miterlimit="10" d="M568.6,278.8h-9.5H568.6
		z"/>
	<path fill-rule="evenodd" clip-rule="evenodd" fill="#F1F2F2" stroke="#848484" stroke-miterlimit="10" d="M564,274.2v9.5V274.2z"
		/>
	<path fill-rule="evenodd" clip-rule="evenodd" fill="#F1F2F2" stroke="#848484" stroke-miterlimit="10" d="M560.4,275.4l6.9,6.9
		L560.4,275.4z"/>
	<path fill-rule="evenodd" clip-rule="evenodd" fill="#F1F2F2" stroke="#848484" stroke-miterlimit="10" d="M560.4,282.2l6.9-6.9
		L560.4,282.2z"/>
</g>
<g>
	<g>
		
			<rect x="335.8" y="485.1" fill-rule="evenodd" clip-rule="evenodd" fill="#F1F2F2" stroke="#848484" stroke-miterlimit="10" width="4.1" height="80.6"/>
		<polygon fill-rule="evenodd" clip-rule="evenodd" fill="#F1F2F2" stroke="#848484" stroke-miterlimit="10" points="335.8,492 
			332.7,504.9 332.7,545.9 335.8,558.8 		"/>
		
			<rect x="329.1" y="518.5" transform="matrix(-1 -5.139279e-11 5.139279e-11 -1 661.7924 1050.7915)" fill-rule="evenodd" clip-rule="evenodd" fill="#F1F2F2" stroke="#848484" stroke-miterlimit="10" width="3.5" height="13.7"/>
	</g>
</g>
<g>
	<g>
		<path fill="#F1F2F2" stroke="#848484" stroke-miterlimit="10" d="M382.7,365.1c7.8,0,14.1-2.3,14.1-5.2c0-2.9-6.3-5.2-14.1-5.2
			c-7.8,0-14.1,2.3-14.1,5.2C368.7,362.8,375,365.1,382.7,365.1z"/>
		<path fill="#F1F2F2" stroke="#848484" stroke-miterlimit="10" d="M382.7,388.7c7.8,0,14.1-6.3,14.1-14.1c0-7.8-6.3-14.1-14.1-14.1
			c-7.8,0-14.1,6.3-14.1,14.1C368.7,382.4,375,388.7,382.7,388.7z"/>
	</g>
	<g>
		<path fill="#F1F2F2" stroke="#848484" stroke-miterlimit="10" d="M382.7,431.7c-7.8,0-14.1,2.3-14.1,5.2c0,2.9,6.3,5.2,14.1,5.2
			c7.8,0,14.1-2.3,14.1-5.2C396.8,434,390.5,431.7,382.7,431.7z"/>
		<path fill="#F1F2F2" stroke="#848484" stroke-miterlimit="10" d="M382.7,408.2c-7.8,0-14.1,6.3-14.1,14.1
			c0,7.8,6.3,14.1,14.1,14.1c7.8,0,14.1-6.3,14.1-14.1C396.8,414.5,390.5,408.2,382.7,408.2z"/>
	</g>
	<g>
		<path fill="#F1F2F2" stroke="#848484" stroke-miterlimit="10" d="M345.7,365.1c7.8,0,14.1-2.3,14.1-5.2c0-2.9-6.3-5.2-14.1-5.2
			c-7.8,0-14.1,2.3-14.1,5.2C331.6,362.8,337.9,365.1,345.7,365.1z"/>
		<path fill="#F1F2F2" stroke="#848484" stroke-miterlimit="10" d="M345.7,388.7c7.8,0,14.1-6.3,14.1-14.1c0-7.8-6.3-14.1-14.1-14.1
			c-7.8,0-14.1,6.3-14.1,14.1C331.6,382.4,337.9,388.7,345.7,388.7z"/>
	</g>
	<g>
		<path fill="#F1F2F2" stroke="#848484" stroke-miterlimit="10" d="M345.7,431.7c-7.8,0-14.1,2.3-14.1,5.2c0,2.9,6.3,5.2,14.1,5.2
			c7.8,0,14.1-2.3,14.1-5.2C359.8,434,353.5,431.7,345.7,431.7z"/>
		<path fill="#F1F2F2" stroke="#848484" stroke-miterlimit="10" d="M345.7,408.2c-7.8,0-14.1,6.3-14.1,14.1
			c0,7.8,6.3,14.1,14.1,14.1c7.8,0,14.1-6.3,14.1-14.1C359.8,414.5,353.5,408.2,345.7,408.2z"/>
	</g>
	<rect x="318.7" y="370.1" fill="#F1F2F2" stroke="#848484" stroke-miterlimit="10" width="92.4" height="56.7"/>
</g>
<g>
</g>
<g>
</g>
<g>
</g>
<g>
</g>
<g>
</g>
<g>
</g>
</svg>
