<svg id="plan" xmlns="http://www.w3.org/2000/svg" viewBox="0 0 550 380"><style>.st1{fill:#c7c7c7}.st1,.st2,.st3,.st4,.st5{stroke:#000;stroke-linecap:round;stroke-linejoin:round;stroke-miterlimit:10}.st2{stroke-width:.5;fill:none}.st3,.st4,.st5{fill:#828282}.st4,.st5{fill:none}.st5{stroke-width:1.5}.st6,.st7,.st8{stroke-width:.5;stroke-miterlimit:10}.st6{stroke-linecap:round;stroke-linejoin:round;fill:#828282;stroke:#000}.st7,.st8{fill:#f3f3f3;stroke:#595959}.st8{fill-rule:evenodd;clip-rule:evenodd}</style><path fill="#fff" d="M10.4 8.984h530v341.345h-530z" id="back"/><g id="walls"><path class="st1" d="M362.534 99.551v147.786H271.64v4.904h102.992v-4.904h-7.193V99.551zM189.9 99.551v147.786h-9.482v4.904h28.773v-4.904h-14.386V99.551zM21.844 247.337h105.607v14.386h-3.596v-9.482H21.844z"/><path class="st1" d="M44.404 252.241h2.616v19.291h-2.616zM509.666 313.709h18.964v2.289h-18.964zM442.312 338.558v-20.925h67.354v-3.924h-67.354v-9.482h-10.135v34.331z"/><path class="st1" d="M21.844 338.558v-3.596h21.252v-63.43h3.923v63.43h76.836v-34.658h3.596v38.254zM127.451 247.337h9.809v4.904h-9.809zM355.995 27.62v71.931h11.444V27.62M528.629 196.985h-86.317v68.661h-10.135v-13.405H417.79v-4.904h14.387v-60.488h96.452zM438.389 304.227v34.331"/><path class="st2" d="M168.321 99.551h-35.965v-8.174M166.032 80.915h-33.676v7.193M168.321 91.378h-38.254M89.197 88.108v3.269M166.032 88.108v3.269M163.417 88.108v3.269M134.644 88.108v3.269M132.356 88.108v3.269M130.067 88.108v3.269"/><path class="st2" d="M168.321 88.108h-38.254v3.269M86.908 88.108h4.578v3.27h-4.578z"/><path class="st3" d="M540.4 16.177h-55.583V8.984H540.4zM183.361 16.177h11.444v83.374h-11.444zM540.4 350.329H198.728v-11.771h329.901V16.177H540.4zM288.969 16.177h-23.868"/><path class="st4" d="M355.995 16.177H339.32M339.32 27.62h16.675M214.749 16.177h-19.944M176.168 16.177h7.193"/><path class="st2" d="M176.168 25.659H29.037M29.037 8.984h147.131M31.652 17.812h141.9v1.308h-141.9zM173.552 16.177h-141.9m141.9 4.904h-141.9"/><path class="st2" d="M173.552 16.177h2.616v4.904h-2.616zM29.037 16.177h2.616v4.904h-2.616z"/><path class="st5" d="M180.418 247.337l-37.6-21.58M271.64 247.337l-35.312-20.271m-27.137 20.271l18.637-10.79m-100.377 25.176l19.291 33.35M198.728 350.329l-41.851 23.868m275.3-69.97l-18.964-33.35m-38.581-23.54l37.6-21.579M91.486 91.377l33.35 19.291"/><path class="st4" d="M168.321 88.108v3.269"/><path class="st3" d="M150.665 350.329H10.4V16.177h11.444v322.381h128.821v11.771H21.844z"/><path class="st4" d="M262.485 8.984v7.193"/><g><path class="st2" d="M265.101 27.62h-50.679M216.711 8.984h45.774M214.422 16.177h50.679m-2.616 3.269v-3.27m-45.447 3.27v-3.27m2.289 3.27v-3.27m40.869 3.27v-3.27M214.422 19.446h50.679v-3.269"/></g><path class="st4" d="M214.422 19.446v-3.269"/><path class="st3" d="M528.629 16.177h-41.524l.001 11.443h41.523z"/><g><path class="st2" d="M487.106 27.62H417.79M420.079 8.984h64.738M487.106 19.447H417.79m2.289-3.27v3.27m64.738-3.27v3.27m-2.289-3.27v3.27m-28.445-3.27v3.27m-1.635-3.27v3.27m-1.635-3.27v3.27m-28.445-3.27v3.27M487.106 16.177H417.79v3.269"/></g><path class="st4" d="M487.106 16.177v3.269"/><path class="st3" d="M265.101 16.177h23.868v11.444h-23.868z"/><g><path class="st6" d="M291.258 8.984h45.774M306.044 27.62h-.211"/><path class="st2" d="M288.969 16.177h50.352m-2.289 3.269v-3.27m-45.775 3.27v-3.27m2.616 3.27v-3.27m40.543 3.27v-3.27M288.969 19.446h50.351v-3.269M339.32 27.62h-50.678"/></g><path class="st4" d="M288.969 19.446v-3.269"/><path class="st3" d="M262.485 8.984h28.772v7.193h-28.772zM368.559 16.177h-31.527V8.984h83.047v7.193h-52.64zM176.168 8.984h40.543v7.193h-40.543zM21.843 16.177h7.194v64.738h60.16v7.193H21.844zM10.4 8.984h18.637v7.193H10.4zM21.844 88.108h65.065v11.444H21.844zM183.361 16.177h-7.193v64.738h-10.136v7.193h17.329zM194.805 16.177V27.62h19.617V16.177 27.62"/><path class="st3" d="M194.805 16.177h19.617v11.444h-19.617zM168.321 88.108h15.04v11.444h-15.04zM367.439 16.177h50.352V27.62h-50.352zM339.32 16.177h16.675v11.444H339.32zM355.995 27.62V16.177h11.444V27.62"/><path class="st4" d="M438.389 265.646v-72.257h90.24"/></g><g id="furniture"><path class="st7" d="M22.779 246.432V134.833l30.708.001.004 81.212H89.13v30.4H40.163v-.014z"/><path class="st8" d="M508.916 217.176c-1.132 0-2.007-1.117-2.059-2.411 0-1.235.927-2.294 2.059-2.294 1.133 0 1.956 1.059 1.956 2.294 0 1.353-.824 2.411-1.956 2.411z"/><path class="st8" d="M508.916 217.176c-1.132 0-2.007-1.117-2.059-2.411 0-1.235.927-2.294 2.059-2.294 1.133 0 1.956 1.059 1.956 2.294 0 1.353-.824 2.411-1.956 2.411z"/><path class="st8" d="M527.738 231.681v-33.715h-84.471v33.715h84.471z"/><path class="st8" d="M515.64 200.765v28.117h-58.42c-8.224 0-9.602-4.952-9.602-11.003v-6.11c0-6.052 1.378-11.004 9.602-11.004h58.42zM519.831 204.654c-.9 0-1.65.81-1.65 1.811 0 .858.5 1.62 1.25 1.812v2.526c0 .286.2.477.5.477.35 0 .55-.19.55-.477v-2.621c.6-.286 1.05-.953 1.05-1.716-.05-1.002-.8-1.812-1.7-1.812z"/><path class="st8" d="M519.931 211.041l.05 11.536h-3v-7.389"/><path class="st8" d="M517.736 213.788h-6.097v1.611h6.097c.407 0 .762-.364.762-.78.001-.467-.355-.831-.762-.831z"/><path class="st8" d="M517.736 213.788h-6.097v1.611h6.097c.407 0 .762-.364.762-.78.001-.467-.355-.831-.762-.831zM518.532 305.581a21.82 21.82 0 0 1-7.22 1.235c-8.516 0-15.365-4.446-15.365-10.436 0-5.927 6.85-10.435 15.365-10.435 2.592 0 5.06.495 7.22 1.297v18.339zM527.962 305.836h-5.388c-1.253 0-2.255-.989-2.255-2.164v-14.093c-.063-1.175.94-2.164 2.255-2.164h5.388v18.421z"/><path class="st8" d="M524.142 298.794c1.15 0 2.045-.958 2.045-2.108 0-1.15-.959-2.045-2.045-2.045-1.214 0-2.108.959-2.108 2.045 0 1.213.894 2.108 2.108 2.108zM519.477 287.292h-.945v18.288c-.201.071-.421.128-.629.194h1.573c.51 0 .892-.433.892-.803v-16.814c.001-.493-.382-.865-.891-.865zM96.661 307.788h26.297v26.247H96.661z"/><path class="st8" d="M120.219 330.472c0-.889-.732-1.621-1.619-1.621-.94 0-1.672.732-1.672 1.621s.732 1.621 1.672 1.621a1.63 1.63 0 0 0 1.619-1.621z"/><path class="st8" d="M120.219 330.442c0-.873-.702-1.592-1.555-1.592a1.592 1.592 0 1 0 0 3.184c.852 0 1.555-.719 1.555-1.592zm-21.367 3.543v-2.669c0-.616.552-1.078 1.154-1.078h7.423c.602 0 1.154.462 1.154 1.078v2.669h-9.731zM116.982 320.214a7.143 7.143 0 0 0-7.148-7.148c-3.927 0-7.098 3.222-7.098 7.148 0 3.926 3.171 7.148 7.098 7.148 4.027 0 7.148-3.222 7.148-7.148z"/><path class="st8" d="M116.982 320.214a7.143 7.143 0 0 0-7.148-7.148c-3.927 0-7.098 3.222-7.098 7.148 0 3.926 3.171 7.148 7.098 7.148 4.027 0 7.148-3.222 7.148-7.148z"/><path class="st8" d="M115.09 320.214a5.22 5.22 0 0 0-5.255-5.255 5.252 5.252 0 0 0-5.256 5.255c0 2.88 2.425 5.255 5.256 5.255a5.251 5.251 0 0 0 5.255-5.255z"/><path class="st8" d="M115.09 320.214a5.22 5.22 0 0 0-5.255-5.255 5.252 5.252 0 0 0-5.256 5.255c0 2.88 2.425 5.255 5.256 5.255a5.251 5.251 0 0 0 5.255-5.255z"/><g><path class="st8" d="M57.182 272.342a21.82 21.82 0 0 1 7.22-1.235c8.516 0 15.365 4.446 15.365 10.436 0 5.927-6.85 10.435-15.365 10.435-2.592 0-5.06-.495-7.22-1.297v-18.339zM47.752 272.087h5.388c1.253 0 2.255.989 2.255 2.164v14.093c.063 1.175-.94 2.164-2.255 2.164h-5.388v-18.421z"/><path class="st8" d="M51.572 279.13c-1.15 0-2.045.958-2.045 2.108s.959 2.045 2.045 2.045c1.214 0 2.108-.959 2.108-2.045 0-1.214-.894-2.108-2.108-2.108zM56.237 290.631h.945v-18.288c.201-.071.421-.128.629-.194h-1.573c-.51 0-.892.433-.892.803v16.814c-.001.493.382.865.891.865z"/></g><g><path class="st8" d="M22.98 102.443h1.916v27.066H22.98z"/><path class="st8" d="M22.98 102.443h1.916v27.066H22.98zM53.279 102.206h2.626v8.899h-2.626z"/><path class="st8" d="M53.279 102.206h2.626v8.899h-2.626z"/><path class="st8" d="M24.696 101.023h29.67v29.729h-29.67z"/><path class="st8" d="M24.696 101.023h29.67v29.729h-29.67zM51.703 130.752v-29.729 29.729z"/><path class="st8" d="M51.598 132.172c-.58 0-1.16-.518-1.16-1.165 0-.712.58-1.166 1.16-1.166.709 0 1.289.518 1.289 1.166 0 .647-.579 1.165-1.289 1.165z"/><path class="st8" d="M51.598 132.172c-.58 0-1.16-.518-1.16-1.165 0-.712.58-1.166 1.16-1.166.709 0 1.289.518 1.289 1.166 0 .647-.579 1.165-1.289 1.165zM36.413 115.727h5.23-5.23zM38.974 118.265v-5.229 5.229zM40.933 117.555l-3.809-3.809 3.809 3.809zM40.933 113.805l-3.809 3.809 3.809-3.809zM36.236 123.423h5.229-5.229zM38.797 126.018v-5.229 5.229zM40.756 125.248l-3.809-3.809 3.809 3.809zM40.756 121.498l-3.809 3.809 3.809-3.809zM36.413 108.209h5.23-5.23zM38.974 110.75v-5.229 5.229zM40.933 110.04l-3.809-3.809 3.809 3.809zM40.933 106.29l-3.809 3.809 3.809-3.809z"/></g><g><path class="st8" d="M196.555 156.265v-14.347h11.912v14.347h-11.912zm0-67.802h17.804v53.455h-17.804V88.463z"/><path class="st8" d="M202.914 109.873c-3.098 0-3.395 2.788-3.395 6.294 0 3.422.297 6.252 3.395 6.252s5.645-2.788 5.645-6.252c-.043-3.506-2.547-6.294-5.645-6.294z"/><path class="st8" d="M203.484 95.182h2.363v41.968h-2.363z"/><path class="st8" d="M203.484 95.182h2.363v41.968h-2.363z"/><path class="st8" d="M203.593 98.742l-1.946 6.745v21.316l1.946 6.746z"/><path class="st8" d="M203.593 98.742l-1.946 6.745v21.316l1.946 6.746zM209.757 155.013V143.18h1.181v11.832h-1.181v.001zM196.555 88.49V74.148h11.936V88.49h-11.936zm13.202-13.129h1.181v11.833h-1.181V75.361z"/></g><g><path class="st8" d="M276.014 29.57h74.17c2.2 0 4 1.8 4 4v133.347c0 2.2-1.8 4-4 4h-33.085c-2.2 0-4-1.8-4-4V74.71a4 4 0 0 0-3.999-3.999h-33.085c-2.2 0-4-1.8-4-4V33.57a4.01 4.01 0 0 1 3.999-4z"/><path class="st8" d="M319.732 70.711c-4.682 0-6.633-.24-6.633-6.179V46.893c0-5.94 2.006-6.179 6.633-6.179h17.557c4.682 0 6.633.24 6.633 6.179v17.638c0 5.94-2.006 6.179-6.633 6.179h-17.557z"/><path class="st8" d="M319.732 70.711c-4.682 0-6.633-.24-6.633-6.179V46.893c0-5.94 2.006-6.179 6.633-6.179h17.557c4.682 0 6.633.24 6.633 6.179v17.638c0 5.94-2.006 6.179-6.633 6.179h-17.557z"/><path class="st8" d="M319.732 100.473c-4.682 0-6.633-.24-6.633-6.18V76.655c0-5.94 2.006-6.18 6.633-6.18h17.557c4.682 0 6.633.24 6.633 6.18v17.638c0 5.94-2.006 6.18-6.633 6.18h-17.557z"/><path class="st8" d="M319.732 100.473c-4.682 0-6.633-.24-6.633-6.18V76.655c0-5.94 2.006-6.18 6.633-6.18h17.557c4.682 0 6.633.24 6.633 6.18v17.638c0 5.94-2.006 6.18-6.633 6.18h-17.557z"/><path class="st8" d="M319.732 130.176c-4.682 0-6.633-.24-6.633-6.12v-17.699c0-5.94 2.006-6.12 6.633-6.12h17.557c4.682 0 6.633.24 6.633 6.12v17.699c0 5.939-2.006 6.12-6.633 6.12h-17.557z"/><path class="st8" d="M319.732 130.176c-4.682 0-6.633-.24-6.633-6.12v-17.699c0-5.94 2.006-6.12 6.633-6.12h17.557c4.682 0 6.633.24 6.633 6.12v17.699c0 5.939-2.006 6.12-6.633 6.12h-17.557zM288.909 70.711c-4.682 0-6.633-.24-6.633-6.179V46.893c0-5.94 2.006-6.179 6.633-6.179h17.557c4.682 0 6.633.24 6.633 6.179v17.638c0 5.94-2.006 6.179-6.633 6.179h-17.557z"/><path class="st8" d="M319.821 159.879c-4.682 0-6.633-.24-6.633-6.12V136.06c0-5.94 2.006-6.12 6.633-6.12h17.557c4.682 0 6.633.24 6.633 6.12v17.699c0 5.939-2.006 6.12-6.633 6.12h-17.557z"/><path class="st8" d="M349.932 29.57h-73.666c-2.339 0-4.252 2.058-4.252 4.573v31.994c0 2.515 1.913 4.573 4.252 4.573h1.758c2.339 0 4.252-2.058 4.252-4.573v-25.53h61.646v119.272h-26.571c-2.339 0-4.252 2.058-4.252 4.573v1.891c0 2.515 1.913 4.573 4.252 4.573h32.581c2.339 0 4.252-2.058 4.252-4.573v-132.2c0-2.515-1.914-4.573-4.252-4.573z"/></g><g><path class="st8" d="M520.165 65.223h2.768v49.157h-2.768z"/><path class="st8" d="M522.806 110.211l2.278-7.901V77.343l-2.278-7.901z"/><path class="st8" d="M525.084 85.637h2.416v8.379h-2.416z"/></g><g><path class="st8" d="M368.128 54.855h90.448v70.207h-90.448z"/><path class="st8" d="M371.737 56.504h84.306v66.983h-84.306z"/><path class="st8" d="M373.914 58.487h19.019V84.51h-19.019zM373.914 95.287h19.019v26.023h-19.019z"/><path class="st8" d="M402.642 56.504l-11.636 19.983v27.017-27.017 27.017l11.636 19.983h53.402V56.504z"/><path class="st8" d="M402.642 56.504l8.489 14.023-20.125 5.96M391.006 76.487l11.636-19.983M402.642 123.487l8.489-14.023-20.125-5.96M391.006 103.504l11.636 19.983"/><g><path transform="rotate(90 377.104 138.725)" class="st7" d="M364.749 129.749h24.71v17.952h-24.71z"/><path transform="rotate(90 386.665 138.628)" class="st7" d="M381.485 138.043h10.36v1.17h-10.36z"/></g><g><path transform="rotate(90 377.104 41.125)" class="st7" d="M364.749 32.149h24.71v17.952h-24.71z"/><path transform="rotate(90 386.665 41.028)" class="st7" d="M381.485 40.443h10.36v1.17h-10.36z"/></g></g><g><path class="st8" d="M524.711 255.156h-.917.917zM524.711 255.156h-.917M517.965 254.455H524.009c.432 0 .756.378.756.755a.737.737 0 0 1-.756.755H517.965v-1.51z"/><path class="st8" d="M523.739 241.503h3.94v27.362h-3.94zM524.711 268.81v-27.253 27.253zM523.739 268.865h-13.762c-.702 0-1.295-.486-1.295-1.188v-25.041c0-.593.593-1.133 1.295-1.133h13.762v27.362z"/><path class="st8" d="M521.527 255.103c0 5.073-2.59 9.228-5.775 9.283-3.238.054-5.828-3.94-5.883-9.067 0-5.073 2.536-9.228 5.774-9.282 3.186-.055 5.83 4.047 5.884 9.066z"/><path class="st8" d="M515.591 256.722a1.566 1.566 0 0 1-1.565-1.565c0-.809.702-1.457 1.565-1.457.864 0 1.511.648 1.511 1.457-.054.863-.701 1.565-1.511 1.565zM517.965 254.455H524.009c.432 0 .756.378.756.755a.737.737 0 0 1-.756.755H517.965v-1.51z"/></g><g><path class="st8" d="M50.881 315.984h.917-.917zM50.881 315.984h.917M57.627 316.686H51.583a.772.772 0 0 1-.756-.755c0-.432.324-.755.756-.755H57.627v1.51z"/><path class="st8" d="M47.913 302.276h3.94v27.362h-3.94zM50.881 302.33v27.253-27.253z"/><path class="st8" d="M51.852 302.276h13.762c.702 0 1.295.486 1.295 1.188v25.041c0 .593-.593 1.133-1.295 1.133H51.852v-27.362z"/><path class="st8" d="M54.065 316.038c0-5.073 2.59-9.228 5.775-9.283 3.238-.054 5.828 3.94 5.883 9.067 0 5.073-2.536 9.228-5.774 9.282-3.186.055-5.83-4.047-5.884-9.066z"/><path class="st8" d="M60.001 314.419c.864 0 1.565.702 1.565 1.565 0 .809-.702 1.457-1.565 1.457-.864 0-1.511-.648-1.511-1.457.054-.863.701-1.565 1.511-1.565zM57.627 316.686H51.583a.772.772 0 0 1-.756-.755c0-.432.324-.755.756-.755H57.627v1.51z"/></g><g><path transform="rotate(-180 485.197 171.291)" class="st8" d="M442.6 156.588h85.195v29.408H442.6z"/><path class="st7" d="M524.712 156.588v29.458M445.774 156.588v29.407M524.712 184.638h-78.938M448.524 171.08h73.439"/><path transform="rotate(170.68 518.145 171.241)" class="st7" d="M517.228 162.268h1.842v17.931h-1.842z"/><path transform="rotate(174.938 511.547 171.246)" class="st7" d="M510.628 162.268h1.842v17.931h-1.842z"/><path transform="scale(-1) rotate(-13.239 -1474.306 4350.73)" class="st7" d="M503.946 162.114h1.842v17.931h-1.842z"/><path transform="rotate(171.265 497.409 171.267)" class="st7" d="M496.49 162.314h1.842v17.931h-1.842z"/><path transform="rotate(177.437 490.904 171.175)" class="st7" d="M489.987 162.214h1.842v17.931h-1.842z"/><path transform="rotate(171.265 484.323 171.168)" class="st7" d="M483.403 162.214h1.842v17.931h-1.842z"/><path transform="rotate(177.437 477.636 171.076)" class="st7" d="M476.718 162.114h1.842v17.931h-1.842z"/><path transform="rotate(168.153 471.087 171.09)" class="st7" d="M470.164 162.114h1.842v17.931h-1.842z"/><path transform="rotate(171.265 464.528 171.087)" class="st7" d="M463.609 162.133h1.842v17.931h-1.842z"/><path transform="rotate(175.137 457.98 171.072)" class="st7" d="M457.054 162.114h1.842v17.931h-1.842z"/><path transform="rotate(166.24 451.42 171.292)" class="st7" d="M450.5 162.333h1.842v17.931H450.5z"/></g><path class="st8" d="M57.947 219.175h25.446c1.138 0 2.033 1.163 2.033 2.591v19.252c0 1.428-.895 2.591-2.033 2.591H57.947c-1.057 0-1.992-1.164-1.992-2.591v-19.252c0-1.428.935-2.591 1.992-2.591zm14.195 10.449c0 .634-.504 1.111-1.177 1.111-.672 0-1.233-.476-1.233-1.111 0-.634.561-1.164 1.233-1.164.673 0 1.177.529 1.177 1.164zm-12.331-8.662h21.724c.972 0 1.735.86 1.735 1.916v14.238c0 1.056-.764 1.916-1.735 1.916H59.811c-.902 0-1.701-.861-1.701-1.916v-14.238c0-1.056.798-1.916 1.701-1.916zm11.972 13.712v6.131h-1.937v-6.131h1.937z"/><g><path class="st8" d="M22.78 163.952h30.711v30.595H22.78z"/><path class="st8" d="M22.78 163.952h30.711v30.595H22.78z"/><path class="st8" d="M30.045 177.729a5.339 5.339 0 0 0 5.357-5.357c0-2.943-2.414-5.357-5.357-5.357s-5.357 2.414-5.357 5.357c-.059 3.061 2.413 5.357 5.357 5.357z"/><path class="st8" d="M30.045 177.729a5.339 5.339 0 0 0 5.357-5.357c0-2.943-2.414-5.357-5.357-5.357s-5.357 2.414-5.357 5.357c-.059 3.061 2.413 5.357 5.357 5.357z"/><path class="st8" d="M30.045 176.111c2.018 0 3.679-1.662 3.679-3.74a3.697 3.697 0 0 0-3.679-3.679c-2.077 0-3.739 1.661-3.739 3.679-.059 2.138 1.603 3.74 3.739 3.74z"/><path class="st8" d="M30.045 176.111c2.018 0 3.679-1.662 3.679-3.74a3.697 3.697 0 0 0-3.679-3.679c-2.077 0-3.739 1.661-3.739 3.679-.059 2.138 1.603 3.74 3.739 3.74zM30.045 191.196a5.339 5.339 0 0 0 5.357-5.357c0-2.943-2.414-5.357-5.357-5.357s-5.357 2.414-5.357 5.357c-.059 3.002 2.413 5.357 5.357 5.357z"/><path class="st8" d="M30.045 191.196a5.339 5.339 0 0 0 5.357-5.357c0-2.943-2.414-5.357-5.357-5.357s-5.357 2.414-5.357 5.357c-.059 3.002 2.413 5.357 5.357 5.357z"/><path class="st8" d="M30.045 189.519a3.698 3.698 0 0 0 3.679-3.68c0-2.019-1.661-3.681-3.679-3.681-2.077 0-3.739 1.662-3.739 3.681-.059 2.018 1.603 3.68 3.739 3.68z"/><path class="st8" d="M30.045 189.519a3.698 3.698 0 0 0 3.679-3.68c0-2.019-1.661-3.681-3.679-3.681-2.077 0-3.739 1.662-3.739 3.681-.059 2.018 1.603 3.68 3.739 3.68zM42.297 191.196a5.339 5.339 0 0 0 5.357-5.357c0-2.943-2.414-5.357-5.357-5.357s-5.357 2.414-5.357 5.357a5.34 5.34 0 0 0 5.357 5.357z"/><path class="st8" d="M42.297 191.196a5.339 5.339 0 0 0 5.357-5.357c0-2.943-2.414-5.357-5.357-5.357s-5.357 2.414-5.357 5.357a5.34 5.34 0 0 0 5.357 5.357zM50.623 172.816c.448 0 .961-.448.961-1.025 0-.449-.448-.962-.961-.962-.577 0-1.025.449-1.025.962 0 .577.513 1.025 1.025 1.025z"/><path class="st8" d="M50.623 172.816c.448 0 .961-.448.961-1.025 0-.449-.448-.962-.961-.962-.577 0-1.025.449-1.025.962 0 .577.513 1.025 1.025 1.025zM50.623 176.804c.448 0 .961-.386.961-.965a.945.945 0 0 0-.961-.964c-.577 0-1.025.385-1.025.964 0 .58.513.965 1.025.965z"/><path class="st8" d="M50.623 176.804c.448 0 .961-.386.961-.965a.945.945 0 0 0-.961-.964c-.577 0-1.025.385-1.025.964 0 .58.513.965 1.025.965zM50.623 180.908c.448 0 .961-.448.961-1.026 0-.448-.448-.961-.961-.961-.577 0-1.025.449-1.025.961 0 .578.513 1.026 1.025 1.026z"/><path class="st8" d="M50.623 180.908c.448 0 .961-.448.961-1.026 0-.448-.448-.961-.961-.961-.577 0-1.025.449-1.025.961 0 .578.513 1.026 1.025 1.026zM42.297 176.533a4.147 4.147 0 0 0 4.161-4.161 4.176 4.176 0 0 0-4.161-4.16 4.176 4.176 0 0 0-4.161 4.16c.001 2.378 1.875 4.161 4.161 4.161z"/><path class="st8" d="M42.297 176.533a4.147 4.147 0 0 0 4.161-4.161 4.176 4.176 0 0 0-4.161-4.16 4.176 4.176 0 0 0-4.161 4.16c.001 2.378 1.875 4.161 4.161 4.161z"/><path class="st8" d="M42.298 175.372a2.88 2.88 0 0 0 2.865-2.865c0-1.617-1.295-2.911-2.865-2.911-1.571 0-2.911 1.294-2.911 2.911 0 1.571 1.341 2.865 2.911 2.865z"/><path class="st8" d="M42.298 175.372a2.88 2.88 0 0 0 2.865-2.865c0-1.617-1.295-2.911-2.865-2.911-1.571 0-2.911 1.294-2.911 2.911 0 1.571 1.341 2.865 2.911 2.865z"/></g><g><path class="st7" d="M289.107 337.243c-.175-3.109-.242-11.912 2.749-18.219 2.649-5.584 7.471-9.94 9.731-11.173h44.165v29.392H289.107zm12.48-29.391v29.392"/><path transform="rotate(90 339.955 335.412)" class="st7" d="M338.124 334.519h3.662v1.786h-3.662z"/><path transform="rotate(90 329.037 335.412)" class="st7" d="M327.206 334.519h3.662v1.786h-3.662z"/><path transform="rotate(90 318.23 335.412)" class="st7" d="M316.399 334.519h3.662v1.786h-3.662z"/><path transform="rotate(90 307.312 335.412)" class="st7" d="M305.481 334.519h3.662v1.786h-3.662z"/><path transform="rotate(90 339.955 336.953)" class="st7" d="M339.65 334.787h.61v4.332h-.61z"/><path transform="rotate(90 329.082 336.953)" class="st7" d="M328.776 334.787h.61v4.332h-.61z"/><path transform="rotate(90 318.23 336.953)" class="st7" d="M317.925 334.787h.61v4.332h-.61z"/><path transform="rotate(90 307.312 336.953)" class="st7" d="M307.006 334.787h.61v4.332h-.61z"/></g><g><path class="st7" d="M137.866 160.78c0-6.161-1.844-11.148-4.131-11.148-2.277 0-4.131 4.987-4.131 11.148s1.854 11.158 4.131 11.158c2.287 0 4.131-4.997 4.131-11.158z"/><path class="st7" d="M156.524 160.78c0-6.161-4.997-11.148-11.158-11.148s-11.158 4.987-11.158 11.148 4.997 11.158 11.158 11.158 11.158-4.997 11.158-11.158zM166.437 134.401c6.161 0 11.148-1.844 11.148-4.131 0-2.277-4.987-4.131-11.148-4.131s-11.158 1.854-11.158 4.131c.001 2.287 4.997 4.131 11.158 4.131z"/><path class="st7" d="M166.437 153.059c6.161 0 11.148-4.997 11.148-11.158s-4.987-11.158-11.148-11.158-11.158 4.997-11.158 11.158c.001 6.161 4.997 11.158 11.158 11.158z"/><g><path class="st7" d="M166.437 187.17c-6.171 0-11.158 1.844-11.158 4.131 0 2.277 4.987 4.131 11.158 4.131 6.161 0 11.148-1.854 11.148-4.131 0-2.287-4.987-4.131-11.148-4.131z"/><path class="st7" d="M166.437 168.512c-6.171 0-11.158 4.997-11.158 11.158s4.987 11.158 11.158 11.158c6.161 0 11.148-4.997 11.148-11.158s-4.987-11.158-11.148-11.158z"/></g><path class="st7" d="M143.965 138.318H188.9v44.935h-44.935z"/></g><g><path transform="rotate(-180 388.35 322.555)" class="st8" d="M345.752 307.852h85.195v29.408h-85.195z"/><path class="st7" d="M427.864 307.852v29.458M348.926 307.852v29.407M427.864 335.902h-78.938M351.676 322.344h73.44"/><path transform="rotate(170.68 421.295 322.503)" class="st7" d="M420.38 313.532h1.842v17.931h-1.842z"/><path transform="rotate(174.938 414.695 322.508)" class="st7" d="M413.78 313.532h1.842v17.931h-1.842z"/><path transform="scale(-1) rotate(-13.239 -2777.834 3516.133)" class="st7" d="M407.098 313.379h1.842v17.931h-1.842z"/><path transform="rotate(171.265 400.565 322.532)" class="st7" d="M399.642 313.579h1.842v17.931h-1.842z"/><path transform="rotate(177.437 394.058 322.439)" class="st7" d="M393.139 313.479h1.842v17.931h-1.842z"/><path transform="rotate(171.265 387.48 322.432)" class="st7" d="M386.555 313.479h1.842v17.931h-1.842z"/><path transform="rotate(177.437 380.79 322.339)" class="st7" d="M379.87 313.379h1.842v17.931h-1.842z"/><path transform="rotate(168.153 374.235 322.355)" class="st7" d="M373.316 313.379h1.842v17.931h-1.842z"/><path transform="rotate(171.265 367.685 322.351)" class="st7" d="M366.761 313.397h1.842v17.931h-1.842z"/><path transform="rotate(175.137 361.134 322.338)" class="st7" d="M360.206 313.379h1.842v17.931h-1.842z"/><path transform="rotate(166.24 354.574 322.557)" class="st7" d="M353.652 313.597h1.842v17.931h-1.842z"/></g><g><path class="st7" d="M214.444 42.877c1.53.462 2.555 1.455 2.757 1.42.725-.129-.999-1.233.158-4.507.869-2.458 1.559-5.996 1.559-5.996s2.552 2.737 3.777 5.097c1.409 2.713.037 5.409.261 5.526.296.156 1.044-1.841 3.396-2.319 2.878-.585 6.835 2.159 6.835 2.159s-2.995.06-5.037 2.114c-1.955 1.966-4.119 1.59-3.996 2.004.075.251 2.429.941 4.176 2.178 1.541 1.092 2.473 4.182 2.473 4.182s-1.484-1.304-5.486-.944c-3.623.326-4.425-3.907-4.662-3.867-.342.058.435 2.114-.588 5.037-.953 2.724-4.955 5.516-4.955 5.516s-.558-4.126-.678-5.942c-.232-3.522 2.264-5.275 1.904-5.81-.273-.405-2.821.956-5.185-.689-1.381-.96-5.308-2.609-5.308-2.609s3.846-2.161 5.981-2.653a5.015 5.015 0 0 1 2.618.103"/><path class="st7" d="M216.947 41.963c.003-.183.011-.47.04-.822.038-.47.08-.628.084-.927.003-.241-.026-.527-.116-1.016-.261-1.405-1.755-2.22-2.334-2.601-.467-.307-2.439-1.434-2.439-1.434s-1.184 3.035-.747 5.151c.399 1.166 3.011 2.565 3.011 2.565l2.972 1.58-.471-2.496zM224.823 42.716s1.713-1.016 2.61-2.236c1.453-1.977 1.501-4.078 1.484-4.812 0 0-3.419.064-4.654 2.069-.838 1.359-.903 2.706-.922 3.177a4.256 4.256 0 0 1-.049.504l-.604 3.229 2.135-1.931zM226.571 49.533s2.116 1.122 2.75 1.289c.735.194 1.159.196 1.374.184.807-.045 1.374-.356 1.746-.47.448-.137 2.523-.523 2.523-.523s-2.027-2.513-4.132-3.284c-2.188-.5-2.979.107-3.607.406a3.508 3.508 0 0 1-.56.213l-3 .798 2.906 1.387zM220.535 53.271s-.204 2.611.225 3.43c.161.307.359 1.23 1.951 1.818 1.535.568 2.454 1.647 2.454 1.647s.534-2.133.12-3.5a8.902 8.902 0 0 0-.605-1.564c-.328-.671-1.281-1.324-1.976-1.885-.728-.587-1.224-1.513-1.224-1.513l-.817-1.941-.128 3.508zM213.708 48.625s-1.896-.021-3.23.45c-.957.338-1.41 1.179-2.398 2.584-.311.442-1.439 2.303-1.439 2.303s3.437.927 5.756.42c1.763-.386 2.77-2.944 2.77-2.944l1.458-2.917-2.917.104z"/></g><g><path transform="rotate(-180 324.775 232.302)" class="st8" d="M287.997 218.254h73.556v28.096h-73.556z"/><path transform="rotate(-180 329.13 216.943)" class="st8" d="M328.223 215.633h1.814v2.621h-1.814z"/><path transform="rotate(-180 320.314 216.943)" class="st8" d="M319.406 215.633h1.814v2.621h-1.814z"/></g></g><g id="numbers"><path d="M240.507 99.867h-4.849l.013 8.268h-.949v-9.1h5.785v.832zM240.989 107.752a3.265 3.265 0 0 1-1.248-1.242c-.303-.528-.455-1.126-.455-1.794s.152-1.265.455-1.794.719-.94 1.248-1.235c.528-.294 1.122-.442 1.781-.442s1.252.147 1.781.442c.528.295.942.707 1.242 1.235.299.529.448 1.126.448 1.794s-.149 1.266-.448 1.794a3.23 3.23 0 0 1-1.242 1.242c-.529.299-1.123.448-1.781.448s-1.253-.149-1.781-.448zm3.087-.702c.386-.221.687-.535.904-.942.216-.407.325-.871.325-1.391s-.108-.983-.325-1.391a2.307 2.307 0 0 0-.904-.942c-.386-.221-.821-.332-1.307-.332s-.921.11-1.306.332a2.353 2.353 0 0 0-.91.942c-.221.408-.332.871-.332 1.391s.11.984.332 1.391.524.721.91.942c.385.221.821.332 1.306.332s.921-.111 1.307-.332zM249.263 107.758a3.186 3.186 0 0 1-1.254-1.242c-.303-.533-.455-1.133-.455-1.8s.152-1.265.455-1.794.722-.94 1.254-1.235c.533-.294 1.138-.442 1.813-.442.589 0 1.116.115 1.58.345.463.229.83.565 1.099 1.007l-.689.468a2.166 2.166 0 0 0-.858-.761 2.548 2.548 0 0 0-1.131-.253c-.494 0-.938.11-1.333.332a2.326 2.326 0 0 0-.923.942 2.872 2.872 0 0 0-.332 1.391c0 .529.11.995.332 1.397s.528.715.923.936.839.332 1.333.332c.407 0 .784-.083 1.131-.247.346-.165.632-.416.858-.754l.689.468a2.62 2.62 0 0 1-1.105 1.008 3.534 3.534 0 0 1-1.573.344c-.677 0-1.281-.147-1.814-.442zM260.215 102.116h-2.587v6.019h-.923v-6.019h-2.587v-.819h6.097v.819zM261.554 101.297h.923v5.434l4.563-5.434h.819v6.838h-.923v-5.434l-4.55 5.434h-.832v-6.838zM270.498 101.297h.923v3.029h4.303v-3.029h.923v6.838h-.923v-3.016h-4.303v3.016h-.923v-6.838zM283.68 101.914c.477.447.715 1.107.715 1.983v4.238h-.884v-1.066a2.118 2.118 0 0 1-.917.832c-.402.199-.882.299-1.436.299-.764 0-1.37-.182-1.82-.546-.451-.364-.676-.845-.676-1.443 0-.581.21-1.049.63-1.404.421-.355 1.09-.533 2.009-.533h2.171v-.416c0-.589-.165-1.038-.494-1.346s-.811-.461-1.442-.461c-.434 0-.85.071-1.248.214a3.13 3.13 0 0 0-1.027.592l-.416-.689c.347-.295.763-.522 1.248-.683s.996-.241 1.534-.241c.892.001 1.576.224 2.053.67zm-1.04 5.201c.373-.238.65-.583.832-1.034v-1.118h-2.145c-1.171 0-1.756.407-1.756 1.222 0 .399.152.713.455.943.304.229.729.344 1.274.344.52 0 .967-.119 1.34-.357zM292.104 101.297v6.838h-.845v-2.262h-2.406l-1.586 2.262h-1.001l1.703-2.392c-.528-.147-.936-.398-1.222-.754s-.43-.806-.43-1.352c0-.763.261-1.343.78-1.742.521-.398 1.23-.598 2.132-.598h2.875zm-2.913 3.887h2.067v-3.068h-2.002c-1.335 0-2.002.516-2.002 1.547.001 1.014.646 1.521 1.937 1.521zM237.192 115.135v9.8h-1.82v-8.274H233.3v-1.526h3.892zM245.271 119.734c.663.537.994 1.267.994 2.191 0 .588-.145 1.12-.434 1.596-.29.476-.724.854-1.302 1.134-.579.28-1.292.42-2.142.42-.7 0-1.376-.101-2.03-.301s-1.204-.478-1.652-.833l.77-1.414c.364.299.8.535 1.309.707a4.852 4.852 0 0 0 1.575.259c.644 0 1.15-.133 1.519-.399s.553-.632.553-1.099c0-.504-.199-.884-.595-1.141-.397-.256-1.076-.385-2.037-.385h-2.366l.504-5.334h5.754v1.526h-4.214l-.21 2.268h.938c1.38 0 2.402.268 3.066.805zM249.232 123.031c.214.215.322.495.322.84 0 .149-.021.306-.063.469a6.524 6.524 0 0 1-.259.735l-.714 1.974h-1.134l.56-2.142a1.01 1.01 0 0 1-.483-.399 1.153 1.153 0 0 1-.175-.637c0-.345.107-.625.322-.84.214-.215.485-.322.812-.322.327 0 .598.107.812.322zM257.912 115.135v1.218l-3.808 8.582h-1.946l3.682-8.26h-3.85v1.666h-1.694v-3.206h7.616z"/><g><path d="M404.143 146.148a4.371 4.371 0 0 1-1.703-1.658c-.411-.706-.617-1.497-.617-2.372s.206-1.666.617-2.373a4.363 4.363 0 0 1 1.71-1.658c.728-.398 1.542-.598 2.444-.598.676 0 1.3.113 1.872.338a3.88 3.88 0 0 1 1.455.988l-.61.611c-.711-.719-1.608-1.079-2.691-1.079-.72 0-1.373.165-1.963.494-.59.33-1.051.78-1.385 1.352a3.753 3.753 0 0 0-.5 1.924c0 .71.167 1.352.5 1.924a3.606 3.606 0 0 0 1.385 1.352c.59.33 1.243.494 1.963.494 1.092 0 1.989-.364 2.691-1.092l.61.611a3.928 3.928 0 0 1-1.462.995 5.02 5.02 0 0 1-1.879.345c-.901 0-1.714-.199-2.437-.598zM417.825 139.83v6.838h-.923v-6.019h-4.29v6.019h-.923v-6.838h6.136zM424.857 140.447c.477.447.715 1.107.715 1.983v4.238h-.884v-1.066a2.12 2.12 0 0 1-.916.832c-.403.199-.882.299-1.437.299-.763 0-1.37-.182-1.82-.546-.45-.364-.676-.845-.676-1.443 0-.581.21-1.049.63-1.404.421-.355 1.09-.533 2.009-.533h2.171v-.416c0-.589-.164-1.038-.494-1.346-.329-.308-.81-.461-1.442-.461-.434 0-.85.071-1.248.214s-.741.34-1.027.592l-.416-.689c.347-.295.763-.522 1.248-.683s.997-.241 1.534-.241c.892.001 1.577.224 2.053.67zm-1.04 5.2c.373-.238.65-.583.832-1.034v-1.118h-2.145c-1.17 0-1.755.407-1.755 1.222 0 .399.151.713.455.943.303.229.728.344 1.273.344.522.001.968-.118 1.34-.357zM433.62 139.83v6.838h-.923v-6.019h-3.276l-.091 1.69c-.069 1.421-.234 2.514-.494 3.276-.26.763-.724 1.144-1.392 1.144-.182 0-.402-.035-.662-.104l.064-.793c.156.035.265.052.325.052.355 0 .624-.165.806-.494.183-.329.304-.736.364-1.222.061-.485.112-1.126.156-1.924l.117-2.444h5.006zM441.14 142.82c.446.373.67.91.67 1.612 0 .728-.24 1.287-.722 1.677-.48.39-1.177.581-2.086.572l-2.756-.013v-6.838h.923v2.392l2.015.026c.858.009 1.509.199 1.956.572zm-.754 2.776c.325-.265.488-.652.488-1.164 0-.503-.161-.875-.481-1.118s-.802-.368-1.443-.377l-1.78-.026v3.042l1.78.026c.632.009 1.112-.119 1.436-.383zM443.565 139.83h.923v3.029h4.303v-3.029h.923v6.838h-.923v-3.016h-4.303v3.016h-.923v-6.838zM457.592 139.83v6.838h-.846v-2.262H454.341l-1.587 2.262h-1.001l1.703-2.392c-.528-.147-.936-.398-1.222-.754s-.429-.806-.429-1.352c0-.763.26-1.343.779-1.742.521-.398 1.231-.598 2.133-.598h2.875zm-2.912 3.887h2.066v-3.068h-2.002c-1.335 0-2.002.516-2.002 1.547 0 1.014.646 1.521 1.938 1.521zM405.072 153.668v9.8h-1.82v-8.274h-2.071v-1.526h3.891zM414.116 161.928v1.54h-7.224v-1.218l3.892-3.696c.438-.42.735-.786.89-1.099.153-.313.23-.623.23-.931 0-.458-.154-.807-.462-1.05-.308-.243-.761-.364-1.358-.364-.998 0-1.764.341-2.296 1.022l-1.273-.98c.382-.513.897-.912 1.547-1.197.648-.284 1.374-.427 2.177-.427 1.064 0 1.913.252 2.548.756s.952 1.19.952 2.058c0 .532-.112 1.031-.336 1.498s-.653.999-1.288 1.596l-2.618 2.492h4.619zM417.224 161.564c.215.215.322.495.322.84 0 .149-.021.306-.063.469a6.524 6.524 0 0 1-.259.735l-.714 1.974h-1.135l.561-2.142a1.019 1.019 0 0 1-.483-.399 1.162 1.162 0 0 1-.175-.637c0-.345.107-.625.322-.84s.485-.322.812-.322c.326 0 .597.107.812.322zM425.903 153.668v1.218l-3.808 8.582h-1.946l3.682-8.26h-3.85v1.666h-1.694v-3.206h7.616z"/></g><g><path d="M51.819 36.85v9.1h-.949v-8.268h-4.394l-.104 3.042c-.043 1.257-.146 2.269-.306 3.036-.161.767-.405 1.339-.734 1.716-.33.377-.767.565-1.313.565a3.08 3.08 0 0 1-.728-.091l.078-.858c.147.035.29.052.429.052.381 0 .691-.151.93-.455.238-.303.418-.773.54-1.41.121-.637.204-1.48.247-2.529l.13-3.9h6.174zM55.707 45.567a3.265 3.265 0 0 1-1.248-1.242c-.303-.528-.455-1.126-.455-1.794s.152-1.265.455-1.794.719-.94 1.248-1.235c.528-.294 1.122-.442 1.781-.442s1.252.147 1.781.442c.528.295.942.707 1.242 1.235.299.529.448 1.126.448 1.794s-.149 1.266-.448 1.794a3.23 3.23 0 0 1-1.242 1.242c-.529.299-1.123.448-1.781.448s-1.253-.149-1.781-.448zm3.087-.702c.386-.221.687-.535.904-.942.216-.407.325-.871.325-1.391s-.108-.983-.325-1.391a2.307 2.307 0 0 0-.904-.942c-.386-.221-.821-.332-1.307-.332s-.921.11-1.306.332a2.353 2.353 0 0 0-.91.942c-.221.408-.332.871-.332 1.391s.11.984.332 1.391.524.721.91.942c.385.221.821.332 1.306.332s.921-.111 1.307-.332zM69.564 45.144v2.457h-.871V45.95H62.57v1.651h-.87v-2.457h.39c.459-.026.771-.364.936-1.014.165-.65.277-1.56.338-2.73l.091-2.288h5.044v6.032h1.065zm-5.603-1.294c-.122.628-.338 1.06-.65 1.293h4.264V39.93h-3.289l-.078 1.521c-.043.972-.125 1.771-.247 2.399zM77.352 42.908H75.87v3.042h-.923v-3.042h-1.482l-2.093 3.042h-1.105l2.457-3.523-2.262-3.315h1.001l2.002 3.003h1.482v-3.003h.923v3.003h1.482l2.015-3.003h1.001l-2.262 3.328 2.457 3.51h-1.105l-2.106-3.042zM82.096 39.112h.923v5.434l4.563-5.434h.819v6.838h-.923v-5.434l-4.55 5.434h-.832v-6.838zM96.292 39.112v6.838h-.845v-2.262H93.042l-1.586 2.262h-1.001l1.703-2.392c-.529-.147-.936-.398-1.222-.754s-.429-.806-.429-1.352c0-.763.26-1.343.78-1.742.52-.398 1.23-.598 2.132-.598h2.873zm-2.912 3.887h2.067v-3.068h-2.002c-1.334 0-2.002.516-2.002 1.547 0 1.014.645 1.521 1.937 1.521zM50.008 57.92c.476.504.714 1.134.714 1.89 0 .569-.145 1.087-.434 1.554-.29.467-.726.838-1.309 1.113s-1.295.413-2.135.413a6.83 6.83 0 0 1-2.023-.301c-.648-.201-1.202-.478-1.659-.833l.784-1.414c.355.299.786.535 1.295.707a4.86 4.86 0 0 0 1.575.259c.644 0 1.15-.133 1.519-.399s.553-.628.553-1.085c0-.458-.175-.814-.525-1.071-.35-.256-.884-.385-1.603-.385h-.896v-1.246l2.226-2.646h-4.452V52.95h6.678v1.218l-2.38 2.828c.906.112 1.596.42 2.072.924zM53.831 60.846c.214.215.322.495.322.84 0 .149-.021.306-.063.469a6.524 6.524 0 0 1-.259.735l-.714 1.974h-1.134l.56-2.142a1.01 1.01 0 0 1-.483-.399 1.153 1.153 0 0 1-.175-.637c0-.345.107-.625.322-.84.214-.215.485-.322.812-.322.326 0 .597.107.812.322zM63.995 60.524h-1.736v2.226h-1.764v-2.226h-5.376v-1.26l4.83-6.314h1.946l-4.55 6.034h3.206V57.01h1.708v1.974h1.736v1.54z"/></g><g><path d="M66.116 151.457h-2.08v4.173H63.1v-9.1h.936v4.082h2.08l3.081-4.082h1.04l-3.38 4.42 3.575 4.68h-1.105l-3.211-4.173z"/><path d="M77.492 148.792l-3.419 7.657c-.277.642-.598 1.096-.962 1.365-.364.269-.802.403-1.313.403-.33 0-.637-.052-.923-.156a2 2 0 0 1-.741-.468l.429-.689c.347.347.763.52 1.248.52.312 0 .579-.087.8-.26.221-.174.427-.468.617-.884l.299-.663-3.055-6.825h.962l2.574 5.811 2.574-5.811h.91zM82.821 155.63l-2.171-2.86-2.184 2.86h-1.04l2.704-3.51-2.574-3.328h1.04l2.054 2.678 2.054-2.678h1.014l-2.574 3.328 2.73 3.51h-1.053zM85.382 148.792h.923v3.029h4.303v-3.029h.923v6.838h-.923v-3.016h-4.303v3.016h-.923v-6.838zM99.409 148.792v6.838h-.845v-2.262H96.159l-1.586 2.262h-1.001l1.703-2.392c-.529-.147-.936-.398-1.222-.754s-.429-.806-.429-1.352c0-.763.26-1.343.78-1.742.52-.398 1.23-.598 2.132-.598h2.873zm-2.912 3.887h2.067v-3.068h-2.002c-1.334 0-2.002.516-2.002 1.547 0 1.014.646 1.521 1.937 1.521zM101.502 151.704h3.406v.806h-3.406v-.806zM63.926 170.853a3.186 3.186 0 0 1-1.254-1.242c-.303-.533-.455-1.133-.455-1.8s.152-1.265.455-1.794.722-.94 1.254-1.235c.533-.294 1.138-.442 1.813-.442.589 0 1.116.115 1.58.345.463.229.83.565 1.099 1.007l-.689.468a2.166 2.166 0 0 0-.858-.761 2.548 2.548 0 0 0-1.131-.253c-.494 0-.938.11-1.333.332a2.326 2.326 0 0 0-.923.942 2.872 2.872 0 0 0-.332 1.391c0 .529.11.995.332 1.397s.528.715.923.936.839.332 1.333.332c.407 0 .784-.083 1.131-.247.346-.165.632-.416.858-.754l.689.468a2.62 2.62 0 0 1-1.105 1.008 3.534 3.534 0 0 1-1.573.344c-.677 0-1.281-.147-1.814-.442zM74.878 165.211h-2.587v6.019h-.923v-6.019h-2.587v-.819h6.097v.819zM76.945 170.847a3.265 3.265 0 0 1-1.248-1.242c-.303-.528-.455-1.126-.455-1.794s.152-1.265.455-1.794.719-.94 1.248-1.235c.528-.294 1.122-.442 1.781-.442s1.252.147 1.781.442c.528.295.942.707 1.242 1.235.299.529.448 1.126.448 1.794s-.149 1.266-.448 1.794a3.23 3.23 0 0 1-1.242 1.242c-.529.299-1.123.448-1.781.448s-1.252-.15-1.781-.448zm3.088-.703c.386-.221.687-.535.904-.942.216-.407.325-.871.325-1.391s-.108-.983-.325-1.391a2.307 2.307 0 0 0-.904-.942c-.386-.221-.821-.332-1.307-.332s-.921.11-1.306.332a2.353 2.353 0 0 0-.91.942c-.221.408-.332.871-.332 1.391s.11.984.332 1.391.524.721.91.942c.385.221.821.332 1.306.332s.921-.11 1.307-.332zM89.725 164.392v6.838h-.923v-6.019h-3.276l-.091 1.69c-.069 1.421-.234 2.514-.494 3.276-.26.763-.724 1.144-1.391 1.144-.182 0-.403-.035-.663-.104l.065-.793c.156.035.264.052.325.052.355 0 .624-.165.806-.494.182-.329.303-.736.364-1.222.061-.485.112-1.126.156-1.924l.117-2.444h5.005zM93.391 170.847a3.265 3.265 0 0 1-1.248-1.242c-.303-.528-.455-1.126-.455-1.794s.152-1.265.455-1.794.719-.94 1.248-1.235c.528-.294 1.122-.442 1.781-.442s1.252.147 1.781.442c.528.295.942.707 1.242 1.235.299.529.448 1.126.448 1.794s-.149 1.266-.448 1.794a3.23 3.23 0 0 1-1.242 1.242c-.529.299-1.123.448-1.781.448s-1.253-.15-1.781-.448zm3.087-.703c.386-.221.687-.535.904-.942.216-.407.325-.871.325-1.391s-.108-.983-.325-1.391a2.307 2.307 0 0 0-.904-.942c-.386-.221-.821-.332-1.307-.332s-.921.11-1.306.332a2.353 2.353 0 0 0-.91.942c-.221.408-.332.871-.332 1.391s.11.984.332 1.391.524.721.91.942c.385.221.821.332 1.306.332s.921-.11 1.307-.332zM106.364 169.371c0 .598-.221 1.057-.663 1.378s-1.101.481-1.976.481h-3.107v-6.838h3.016c.78 0 1.391.152 1.833.455s.663.736.663 1.3c0 .373-.102.691-.306.956-.204.265-.487.461-.852.591.928.216 1.392.776 1.392 1.677zm-4.849-1.937h2.054c.528 0 .934-.1 1.215-.299.282-.199.422-.489.422-.871s-.141-.667-.422-.858c-.282-.19-.687-.286-1.215-.286h-2.054v2.314zm3.497 2.782c.294-.19.442-.489.442-.897 0-.407-.134-.708-.403-.903-.269-.195-.693-.292-1.274-.292h-2.262v2.379h2.171c.589-.001 1.031-.096 1.326-.287zM112.929 165.009c.476.447.715 1.107.715 1.983v4.238h-.884v-1.066a2.112 2.112 0 0 1-.917.832c-.403.199-.882.299-1.436.299-.763 0-1.37-.182-1.82-.546-.451-.364-.676-.845-.676-1.443 0-.581.21-1.049.63-1.404.42-.355 1.09-.533 2.008-.533h2.171v-.416c0-.589-.165-1.038-.494-1.346-.33-.308-.811-.461-1.443-.461-.434 0-.85.071-1.248.214a3.13 3.13 0 0 0-1.027.592l-.416-.689c.347-.295.763-.522 1.248-.683s.997-.241 1.534-.241c.894.001 1.578.224 2.055.67zm-1.04 5.2c.373-.238.65-.583.832-1.034v-1.118h-2.145c-1.17 0-1.755.407-1.755 1.222 0 .399.152.713.455.943s.728.344 1.274.344c.52.001.966-.118 1.339-.357zM121.353 164.392v6.838h-.845v-2.262H118.103l-1.586 2.262h-1.001l1.703-2.392c-.529-.147-.936-.398-1.222-.754s-.429-.806-.429-1.352c0-.763.26-1.343.78-1.742.52-.398 1.23-.598 2.132-.598h2.873zm-2.912 3.887h2.067v-3.068h-2.002c-1.334 0-2.002.516-2.002 1.547 0 1.014.645 1.521 1.937 1.521zM65.57 178.23v9.8h-1.82v-8.274h-2.072v-1.526h3.892zM69.504 187.575c-.616-.396-1.102-.975-1.456-1.736-.355-.761-.532-1.664-.532-2.709s.177-1.948.532-2.709c.354-.761.84-1.339 1.456-1.736.616-.396 1.316-.595 2.1-.595s1.486.198 2.107.595c.621.397 1.108.976 1.463 1.736.354.761.532 1.664.532 2.709s-.178 1.948-.532 2.709c-.355.761-.842 1.339-1.463 1.736-.621.397-1.323.595-2.107.595-.784 0-1.483-.198-2.1-.595zm3.759-1.855c.406-.579.609-1.442.609-2.59s-.203-2.011-.609-2.59c-.406-.578-.959-.868-1.659-.868-.691 0-1.239.29-1.645.868-.406.579-.609 1.442-.609 2.59s.203 2.011.609 2.59c.406.579.954.868 1.645.868.7 0 1.253-.289 1.659-.868zM78.688 186.126c.214.215.322.495.322.84 0 .149-.021.306-.063.469a6.524 6.524 0 0 1-.259.735l-.714 1.974H76.84l.56-2.142a1.01 1.01 0 0 1-.483-.399 1.153 1.153 0 0 1-.175-.637c0-.345.107-.625.322-.84.214-.215.485-.322.812-.322.327 0 .598.107.812.322zM86.619 179.349c.742.84 1.113 2.044 1.113 3.612 0 1.101-.201 2.042-.602 2.821s-.964 1.372-1.687 1.778c-.724.406-1.561.609-2.513.609-.504 0-.978-.054-1.421-.161s-.829-.264-1.155-.469l.672-1.372c.485.317 1.106.476 1.862.476.943 0 1.68-.289 2.212-.868.532-.579.798-1.414.798-2.506v-.014c-.29.336-.658.59-1.106.763a4.17 4.17 0 0 1-1.512.259c-.644 0-1.223-.124-1.736-.371a2.85 2.85 0 0 1-1.204-1.057c-.29-.457-.434-.984-.434-1.582 0-.634.159-1.192.476-1.673.317-.48.747-.852 1.288-1.113s1.148-.392 1.82-.392c1.344.001 2.387.421 3.129 1.26zm-1.554 3.025a1.52 1.52 0 0 0 .553-1.204c0-.476-.18-.87-.539-1.183-.359-.313-.856-.469-1.491-.469-.569 0-1.031.152-1.386.455-.354.304-.532.707-.532 1.211 0 .514.177.919.532 1.218.355.299.831.448 1.428.448.588-.001 1.066-.159 1.435-.476z"/></g><g><path d="M99.2 279.666v1.54h-7.224v-1.218l3.892-3.696c.439-.42.735-.786.889-1.099s.231-.623.231-.932c0-.457-.154-.807-.462-1.05-.308-.242-.761-.364-1.358-.364-.999 0-1.764.341-2.296 1.022l-1.274-.98c.383-.513.898-.912 1.547-1.196.648-.285 1.374-.428 2.177-.428 1.064 0 1.913.252 2.548.757.635.504.952 1.189.952 2.058 0 .532-.112 1.031-.336 1.498s-.653.999-1.288 1.596l-2.618 2.492h4.62zM102.308 279.302c.214.215.322.495.322.84 0 .149-.021.307-.063.47s-.128.408-.259.734l-.714 1.975h-1.134l.56-2.143a1.013 1.013 0 0 1-.483-.398 1.157 1.157 0 0 1-.175-.638c0-.345.107-.625.322-.84.214-.214.485-.321.812-.321.327 0 .597.107.812.321zM111.484 276.999c.275.396.413.861.413 1.393 0 .598-.166 1.12-.497 1.568-.331.448-.8.791-1.407 1.029-.607.238-1.312.356-2.114.356s-1.505-.118-2.107-.356-1.066-.581-1.393-1.029-.49-.971-.49-1.568c0-.531.135-.996.406-1.393.271-.396.658-.712 1.162-.945-.392-.214-.693-.497-.903-.847s-.315-.754-.315-1.211c0-.551.151-1.031.455-1.442.303-.41.73-.728 1.281-.951.551-.225 1.185-.337 1.904-.337.728 0 1.367.112 1.918.337.551.224.98.541 1.288.951.308.411.462.892.462 1.442 0 .457-.107.858-.322 1.204-.215.346-.523.63-.924.854.514.233.908.549 1.183.945zm-2.008 2.499c.392-.28.588-.667.588-1.162 0-.485-.196-.868-.588-1.147-.392-.28-.924-.421-1.596-.421s-1.199.141-1.582.421c-.383.279-.574.662-.574 1.147 0 .495.191.882.574 1.162s.91.42 1.582.42 1.203-.139 1.596-.42zm-2.947-6.44c-.332.243-.497.584-.497 1.022 0 .42.166.754.497 1.001.331.247.781.371 1.351.371.579 0 1.036-.124 1.372-.371s.504-.581.504-1.001c0-.438-.17-.779-.511-1.022-.341-.242-.796-.363-1.365-.363s-1.02.121-1.351.363z"/></g><g><path d="M467.928 278.98h-1.735v2.226h-1.765v-2.226h-5.376v-1.261l4.83-6.313h1.946l-4.55 6.034h3.206v-1.975h1.708v1.975h1.735v1.54zM470.896 279.301c.215.215.322.495.322.84 0 .149-.021.307-.063.47s-.128.408-.259.734l-.714 1.975h-1.135l.561-2.143a1.023 1.023 0 0 1-.483-.398 1.165 1.165 0 0 1-.175-.638c0-.345.107-.625.322-.84.215-.214.485-.321.812-.321.327 0 .598.107.812.321zM481.06 278.98h-1.735v2.226h-1.765v-2.226h-5.376v-1.261l4.83-6.313h1.946l-4.55 6.034h3.206v-1.975h1.708v1.975h1.735v1.54z"/></g><g><path d="M213.195 285.273v9.8h-1.82v-8.274h-2.072v-1.525h3.892zM218.529 285.273v9.8h-1.82v-8.274h-2.072v-1.525h3.892zM222.393 293.168c.215.215.322.495.322.84 0 .149-.021.307-.063.47s-.128.408-.259.734l-.714 1.975h-1.135l.561-2.143a1.023 1.023 0 0 1-.483-.398 1.165 1.165 0 0 1-.175-.638c0-.345.107-.625.322-.84.215-.214.485-.321.812-.321.326 0 .597.107.812.321zM230.022 289.871c.662.537.994 1.268.994 2.191 0 .588-.145 1.12-.435 1.596-.289.476-.723.854-1.302 1.134-.579.28-1.293.42-2.142.42-.7 0-1.377-.1-2.03-.301-.653-.2-1.204-.479-1.652-.833l.771-1.414c.364.299.8.534 1.309.707s1.034.259 1.575.259c.645 0 1.15-.133 1.52-.398.368-.267.553-.633.553-1.1 0-.504-.198-.884-.595-1.141-.397-.257-1.076-.385-2.037-.385h-2.366l.504-5.334h5.754v1.525h-4.214l-.21 2.269h.938c1.381.001 2.402.269 3.065.805z"/></g></g></svg>