<svg id="Слой_1" data-name="Слой 1" xmlns="http://www.w3.org/2000/svg" viewBox="0 0 135.72711 180.82601"><title>1.01.02</title><path d="M156.76241,129.38321h-2.54321v6.9599h2.54321Zm4.3362,0h-2.5433v6.9599h2.5433Zm4.4416,4.068h-2.5433v2.89191h2.5433Zm0-4.068h-2.5433v2.89188h2.5433Zm-12.7281-5.25171h13.909v13.46539h-13.909Z" transform="translate(-144.4819 -122.18549)" style="fill:#003915;fill-rule:evenodd"/><path d="M224.9575,136.344v-2.5433h-6.9599v2.5433Zm0,4.33609V138.1369h-6.9599v2.54318Zm-4.068,4.44162v-2.54321H217.9976v2.54321Zm4.068,0v-2.54321H222.0656v2.54321ZM215.7392,128.204h11.9702v19.7977H215.7392Z" transform="translate(-144.4819 -122.18549)" style="fill:#003915;fill-rule:evenodd"/><path d="M194.4133,151.01889a.37405.37405,0,1,0,.64751-.37469l-8.0399-13.9201a.37405.37405,0,0,0-.64751.37469Z" transform="translate(-144.4819 -122.18549)" style="fill:#003915"/><path d="M194.4133,187.35941a.37408.37408,0,0,0,.64751-.3748l-8.0399-13.92011a.37408.37408,0,0,0-.64751.3748Z" transform="translate(-144.4819 -122.18549)" style="fill:#003915"/><path d="M194.292,211.03571a.374.374,0,0,0,.37469.64749l13.92011-8.0399a.374.374,0,1,0-.37471-.64749Z" transform="translate(-144.4819 -122.18549)" style="fill:#003915"/><path d="M247.458,269.0215a.37405.37405,0,1,1-.37469.64751l-13.92011-8.0399a.37408.37408,0,0,1,.3748-.64751Z" transform="translate(-144.4819 -122.18549)" style="fill:#003915"/><rect x="40.2565" y="5.72711" width="2.6022" height="9.27951" style="fill:#003915"/><rect x="69.93689" y="6.01852" width="2.6022" height="44.03758" style="fill:#003915"/><rect x="40.2565" y="30.78821" width="2.6022" height="21.37091" style="fill:#003915"/><rect x="40.2565" y="67.58672" width="2.6022" height="13.8793" style="fill:#003915"/><rect x="64.44029" y="79.42621" width="2.6022" height="58.68001" style="fill:#003915"/><rect x="1.8958" y="38.73511" width="40.0269" height="2.6022" style="fill:#003915"/><rect x="1.8958" y="76.23862" width="40.0269" height="2.6022" style="fill:#003915"/><rect x="1.8958" y="79.42621" width="44.20261" height="2.6022" style="fill:#003915"/><rect x="63.5834" y="79.42621" width="2.91508" height="2.6022" style="fill:#003915"/><rect y="2.98602" width="5.002" height="173.52029" style="fill:#003915"/><rect x="130.7251" y="2.98602" width="5.00201" height="173.52029" style="fill:#003915"/><rect y="0.00372" width="42.8587" height="6.42548" style="fill:#003915"/><rect x="62.19319" y="0.00372" width="73.53392" height="6.42548" style="fill:#003915"/><rect x="102.2122" y="142.57391" width="33.51491" height="8.1601" style="fill:#003915"/><rect y="172.66591" width="19.7388" height="8.1601" style="fill:#003915"/><rect x="48.8653" y="172.66591" width="23.3932" height="8.1601" style="fill:#003915"/><rect x="64.379" y="37.27191" width="8.1601" height="12.78419" style="fill:#003915"/><rect x="64.44029" y="135.70612" width="8.16011" height="45.1199" style="fill:#003915"/><rect x="127.7569" y="142.90611" width="7.97021" height="37.9199" style="fill:#003915"/><rect x="33.59959" y="175.66692" width="0.50171" height="2.2986" style="fill:#003915"/><rect x="34.7984" y="175.66692" width="0.5011" height="2.2986" style="fill:#003915"/><rect x="47.4355" y="175.66692" width="0.5015" height="2.2986" style="fill:#003915"/><rect x="48.634" y="175.66692" width="0.50119" height="2.2986" style="fill:#003915"/><rect x="19.4879" y="175.66692" width="0.50169" height="2.2986" style="fill:#003915"/><rect x="20.6864" y="175.66692" width="0.5011" height="2.2986" style="fill:#003915"/><rect x="17.0983" y="172.66501" width="34.0937" height="0.50151" style="fill:#003915"/><rect x="17.0983" y="175.51221" width="34.0937" height="0.5014" style="fill:#003915"/><rect x="17.0983" y="177.68351" width="34.0937" height="0.5014" style="fill:#003915"/><rect x="17.0983" y="180.32452" width="34.0937" height="0.5015" style="fill:#003915"/><path d="M228.977,269.5717v-1.66991h.697v1.66991Zm-12.98981.5015H229.674v2.3457H215.9872v.5014h14.188v-8.1609h-14.188v.5014H229.674v2.1396H215.9872v.50139h12.4884v1.66991H215.9872Z" transform="translate(-144.4819 -122.18549)" style="fill:#003915;fill-rule:evenodd"/><rect x="75.80299" y="176.19731" width="0.44701" height="1.2971" style="fill:#003915"/><rect x="76.871" y="176.19731" width="0.44679" height="1.2971" style="fill:#003915"/><rect x="94.405" y="176.19731" width="0.4471" height="1.2971" style="fill:#003915"/><rect x="95.4731" y="176.19731" width="0.44679" height="1.2971" style="fill:#003915"/><rect x="113.00739" y="176.19731" width="0.44702" height="1.2971" style="fill:#003915"/><rect x="114.0755" y="176.19731" width="0.44669" height="1.2971" style="fill:#003915"/><rect x="131.61029" y="176.19731" width="0.44702" height="1.2971" style="fill:#003915"/><rect x="132.67841" y="176.19731" width="0.44678" height="1.2971" style="fill:#003915"/><rect x="57.20059" y="176.19731" width="0.44701" height="1.2971" style="fill:#003915"/><rect x="58.26869" y="176.19731" width="0.4467" height="1.2971" style="fill:#003915"/><rect x="55.7677" y="174.96791" width="79.00549" height="0.4467" style="fill:#003915"/><rect x="55.7677" y="176.05921" width="79.00549" height="0.4468" style="fill:#003915"/><rect x="55.7677" y="177.14011" width="79.00549" height="0.4467" style="fill:#003915"/><path d="M180.2514,163.632h-9.82231a.90519.90519,0,0,0-.9054.9039v4.61032a4.59576,4.59576,0,0,0,4.5896,4.591h2.45221a4.59576,4.59576,0,0,0,4.5905-4.591v-4.61032a.90471.90471,0,0,0-.9046-.9039m-6.13811,9.86061a4.35111,4.35111,0,0,1-4.345-4.34639v-4.61032a.66144.66144,0,0,1,.6608-.65988h9.82231a.66067.66067,0,0,1,.6599.65988v4.61032a4.3514,4.3514,0,0,1-4.34579,4.34639Z" transform="translate(-144.4819 -122.18549)" style="fill:#003915"/><path d="M174.1136,172.4023a3.25877,3.25877,0,0,1-3.2545-3.25609V166.4581a.56792.56792,0,0,1,.5672-.5675h3.57539v-.24521H171.4263a.814.814,0,0,0-.81239.81271v2.68811a3.50407,3.50407,0,0,0,3.49969,3.50079h2.45219a3.5047,3.5047,0,0,0,3.50081-3.50079V166.4581a.81448.81448,0,0,0-.81351-.81271H175.6777v.24521h3.57539a.56828.56828,0,0,1,.5683.5675v2.68811a3.25932,3.25932,0,0,1-3.2556,3.25609Z" transform="translate(-144.4819 -122.18549)" style="fill:#003915"/><path d="M175.34039,168.79871a.78349.78349,0,1,0,.78381.78349.78473.78473,0,0,0-.78381-.78349m0,1.3223a.5387.5387,0,1,1,.5392-.5388A.53967.53967,0,0,1,175.34039,170.121Z" transform="translate(-144.4819 -122.18549)" style="fill:#003915"/><rect x="30.7361" y="46.83801" width="0.2449" height="1.1165" style="fill:#003915"/><rect x="30.30009" y="47.27362" width="1.116" height="0.2455" style="fill:#003915"/><path d="M175.6777,164.8143h.4037a.17363.17363,0,0,1,.1729.174v.37927a.17371.17371,0,0,1-.1729.1741h-.4037v.2449h.4037a.41869.41869,0,0,0,.41809-.419v-.37927a.41855.41855,0,0,0-.41809-.41861h-.4057l.002.03738Zm-1.0771.72739a.17455.17455,0,0,1-.1741-.1741v-.37927a.17447.17447,0,0,1,.1741-.174h.40109v-.20721l.00221-.03738h-.4033a.41849.41849,0,0,0-.4187.41861v.37927a.41863.41863,0,0,0,.4187.419h.40109v-.2449Z" transform="translate(-144.4819 -122.18549)" style="fill:#003915"/><path d="M175.34039,164.1467a.46106.46106,0,0,0-.4612.46039v3.08041a.4605.4605,0,0,0,.921,0v-3.08041a.46063.46063,0,0,0-.45981-.46039m0,3.75681a.21676.21676,0,0,1-.21629-.216v-3.08041a.2156.2156,0,0,1,.4312,0v3.08041A.21609.21609,0,0,1,175.34039,167.9035Z" transform="translate(-144.4819 -122.18549)" style="fill:#003915"/><path d="M164.0392,146.8324a3.91694,3.91694,0,0,1-3.9129,3.91159H154.461a.67719.67719,0,0,1-.63921-.45609,1.241,1.241,0,0,1-.205.20349.9459.9459,0,0,0,.84419.52161h5.6653a4.18085,4.18085,0,1,0,0-8.36169H154.461a.94537.94537,0,0,0-.8436.521,1.24113,1.24113,0,0,1,.20461.20331.67634.67634,0,0,1,.639-.4556h5.6653a3.91711,3.91711,0,0,1,3.9129,3.91238" transform="translate(-144.4819 -122.18549)" style="fill:#003915"/><path d="M155.54179,144.02869v5.60892a.20408.20408,0,0,0,.2016.20129H160.014a3.00659,3.00659,0,1,0,0-6.01318h-4.27061a.20474.20474,0,0,0-.2016.203m.2682,5.54141v-5.47589h4.204a2.73795,2.73795,0,0,1,0,5.47589Z" transform="translate(-144.4819 -122.18549)" style="fill:#003915"/><path d="M158.27271,146.8327a1.00815,1.00815,0,1,0,1.008-1.00879,1.01,1.01,0,0,0-1.008,1.00879m1.74759,0a.73945.73945,0,1,1-.73959-.73981A.74045.74045,0,0,1,160.02029,146.8327Z" transform="translate(-144.4819 -122.18549)" style="fill:#003915"/><rect x="156.07548" y="148.31986" width="2.24215" height="0.26854" transform="translate(-202.0471 1.23313) rotate(-36.71248)" style="fill:#003915"/><rect x="157.06216" y="144.1333" width="0.26922" height="2.24302" transform="translate(-197.76631 61.8953) rotate(-53.19038)" style="fill:#003915"/><path d="M150.0401,144.1319v5.40051a1.355,1.355,0,0,0,1.35381,1.35239h1.47429a1.35344,1.35344,0,0,0,1.3524-1.35239V144.1319a1.35314,1.35314,0,0,0-1.3524-1.3519h-1.47429a1.35472,1.35472,0,0,0-1.35381,1.3519m3.91209,5.40051a1.0855,1.0855,0,0,1-1.084,1.08429h-1.47429a1.08586,1.08586,0,0,1-1.0851-1.08429V144.1319a1.086,1.086,0,0,1,1.0851-1.08371h1.47429a1.08559,1.08559,0,0,1,1.084,1.08371Z" transform="translate(-144.4819 -122.18549)" style="fill:#003915"/><path d="M151.4424,146.8327a.6881.6881,0,1,0,.68741-.6882.68808.68808,0,0,0-.68741.6882m1.10721,0a.41925.41925,0,1,1-.4198-.41949A.41952.41952,0,0,1,152.54961,146.8327Z" transform="translate(-144.4819 -122.18549)" style="fill:#003915"/><path d="M171.99921,152.52069h0v7.83951h11.3479v-7.83951Zm-.33081,8.1709v-8.5025h12.00981v8.5025Z" transform="translate(-144.4819 -122.18549)" style="fill:#003915"/><path d="M174.3936,152.2962a.60446.60446,0,0,1,.5936-.61261h5.37221a.60412.60412,0,0,1,.59389.61261h-.3308a.26974.26974,0,0,0-.26309-.28091H174.9872a.26951.26951,0,0,0-.2628.28091Z" transform="translate(-144.4819 -122.18549)" style="fill:#003915"/><path d="M176.6514,154.92279h0v2.70761l1.5974.6217a2.47426,2.47426,0,0,0-.09189-1.67471,4.15131,4.15131,0,0,1-.24121-1.24078,2.44932,2.44932,0,0,1,.1882-.93652Zm-.3308,2.93411v-3.16681l2.4801-.89209-.22481.39059a2.266,2.266,0,0,0-.32939,1.148,3.89049,3.89049,0,0,0,.22679,1.1438,3.90051,3.90051,0,0,1,.2281,1.1441,2.018,2.018,0,0,1-.2179.91248l-.0675.13571Z" transform="translate(-144.4819 -122.18549)" style="fill:#003915"/><path d="M149.85471,165.7832v30.0849a2.161,2.161,0,0,0,2.16559,2.15149H162.4317a2.161,2.161,0,0,0,2.166-2.15149V165.7832a2.1609,2.1609,0,0,0-2.166-2.15121H152.02029a2.16094,2.16094,0,0,0-2.16559,2.15121m14.51309,30.0849a1.93116,1.93116,0,0,1-1.9361,1.92189H152.02029a1.93094,1.93094,0,0,1-1.93539-1.92189V165.7832a1.9314,1.9314,0,0,1,1.93539-1.92221H162.4317a1.93162,1.93162,0,0,1,1.9361,1.92221Z" transform="translate(-144.4819 -122.18549)" style="fill:#003915"/><path d="M163.1058,192.8824a2.577,2.577,0,0,1-2.58211,2.56529h-6.5948a2.57657,2.57657,0,0,1-2.58179-2.56529V168.7692a2.57708,2.57708,0,0,1,2.58179-2.56589h2.0619a.39685.39685,0,0,1-.142-.22821h-1.91991a2.80639,2.80639,0,0,0-2.8125,2.7941v24.1132a2.80665,2.80665,0,0,0,2.8125,2.7944h6.5948a2.80661,2.80661,0,0,0,2.8123-2.7944V168.7692a2.80635,2.80635,0,0,0-2.8123-2.7941h-1.9202a.39544.39544,0,0,1-.1414.22821h2.0616a2.57749,2.57749,0,0,1,2.58211,2.56589Z" transform="translate(-144.4819 -122.18549)" style="fill:#003915"/><path d="M161.7925,191.3349a1.26667,1.26667,0,0,1-1.2688,1.2612h-6.5948a1.26634,1.26634,0,0,1-1.26819-1.2612V168.7692a1.26611,1.26611,0,0,1,1.26819-1.26138h2.84491V167.279h-2.84491a1.49613,1.49613,0,0,0-1.4989,1.4902v22.5657a1.49564,1.49564,0,0,0,1.4989,1.4894h6.5948a1.49534,1.49534,0,0,0,1.499-1.4894V168.7692a1.49583,1.49583,0,0,0-1.499-1.4902H157.6786v.22882h2.84509a1.26644,1.26644,0,0,1,1.2688,1.26138Z" transform="translate(-144.4819 -122.18549)" style="fill:#003915"/><path d="M156.49339,170.6743a.73336.73336,0,1,0,.73361-.7299.73161.73161,0,0,0-.73361.7299m1.23651,0a.50331.50331,0,1,1-.5029-.50031A.50185.50185,0,0,1,157.7299,170.6743Z" transform="translate(-144.4819 -122.18549)" style="fill:#003915"/><rect x="12.2218" y="48.37381" width="1.0457" height="0.22931" style="fill:#003915"/><rect x="12.62979" y="47.96951" width="0.23071" height="1.0378" style="fill:#003915"/><path d="M156.7738,166.17429h-.53751a.27983.27983,0,0,1-.2803-.27859v-.5051a.28029.28029,0,0,1,.2803-.27921h.53751v-.22879h-.53751a.51035.51035,0,0,0-.51109.508v.5051a.50972.50972,0,0,0,.51109.50742h.53751Zm1.722-.27859a.27978.27978,0,0,1-.28011.27859h-.53709v.22882h.53709a.50935.50935,0,0,0,.51089-.50742v-.5051a.51.51,0,0,0-.51089-.508h-.53709v.22879h.53709a.28024.28024,0,0,1,.28011.27921Z" transform="translate(-144.4819 -122.18549)" style="fill:#003915"/><path d="M156.6584,164.88461v3.20117a.56766.56766,0,0,0,1.1353,0v-3.20117a.56766.56766,0,0,0-1.1353,0m.90511,3.20117a.33721.33721,0,0,1-.67441,0v-3.20117a.33721.33721,0,0,1,.67441,0Z" transform="translate(-144.4819 -122.18549)" style="fill:#003915"/><path d="M230.17349,140.83521H241.9427V129.06628H230.17349Zm11.51971-.24951H230.4227V129.31519h11.27051Z" transform="translate(-144.4819 -122.18549)" style="fill:#003915"/><path d="M236.058,130.1644a3.91958,3.91958,0,0,1,.9816,7.7142.30006.30006,0,0,1,.07431.1976v.0405a4.16852,4.16852,0,1,0-2.1116.00031v-.0408a.29847.29847,0,0,1,.074-.1973,3.91975,3.91975,0,0,1,.9817-7.71451" transform="translate(-144.4819 -122.18549)" style="fill:#003915"/><path d="M236.058,137.56509a3.48149,3.48149,0,1,0-3.48129-3.48178,3.48577,3.48577,0,0,0,3.48129,3.48178m0-6.71359a3.23195,3.23195,0,1,1-3.2318,3.23181A3.23548,3.23548,0,0,1,236.058,130.8515Z" transform="translate(-144.4819 -122.18549)" style="fill:#003915"/><path d="M236.058,134.9859a.9023.9023,0,1,0-.9026-.90259.90334.90334,0,0,0,.9026.90259m0-1.55569a.653.653,0,1,1-.65309.65311A.65417.65417,0,0,1,236.058,133.43021Z" transform="translate(-144.4819 -122.18549)" style="fill:#003915"/><rect x="91.45129" y="11.2413" width="0.2495" height="1.3139" style="fill:#003915"/><rect x="90.9193" y="11.77341" width="1.31351" height="0.24969" style="fill:#003915"/><path d="M235.3042,138.89h1.50751a.427.427,0,0,0,.42659-.42661v-.38721a.4268.4268,0,0,0-.42659-.42661H235.3042a.42681.42681,0,0,0-.42661.42661v.38721a.427.427,0,0,0,.42661.42661m1.50751-.991a.17766.17766,0,0,1,.1774.17722v.38721a.17746.17746,0,0,1-.1774.17719H235.3042a.1772.1772,0,0,1-.17709-.17719v-.38721a.1774.1774,0,0,1,.17709-.17722Z" transform="translate(-144.4819 -122.18549)" style="fill:#003915"/><path d="M236.27789,138.76529v.08652a.21965.21965,0,1,1-.4393,0v-.08652h-.24979v.08652a.46945.46945,0,0,0,.93889,0v-.08652Zm-.21989-2.59a.22041.22041,0,0,1,.21989.22052v1.37848h.2498v-1.37848a.46944.46944,0,1,0-.93889,0v1.37848h.24979v-1.37848A.21993.21993,0,0,1,236.058,136.17529Z" transform="translate(-144.4819 -122.18549)" style="fill:#003915"/><path d="M258.83829,140.35379H251.6817a1.49606,1.49606,0,0,1-1.4942-1.49469v-8.29871a1.496,1.496,0,0,1,1.4942-1.49411h7.15659a1.49561,1.49561,0,0,1,1.49411,1.49411v8.29871a1.49565,1.49565,0,0,1-1.49411,1.49469m-7.15659-11.0545a1.26266,1.26266,0,0,0-1.2612,1.26111v8.29871a1.26276,1.26276,0,0,0,1.2612,1.26169h7.15659A1.26307,1.26307,0,0,0,260.1,138.8591v-8.29871a1.263,1.263,0,0,0-1.26172-1.26111Z" transform="translate(-144.4819 -122.18549)" style="fill:#003915"/><path d="M258.83829,139.53491H251.6817a.67616.67616,0,0,1-.6758-.67581v-7.01059a.67636.67636,0,0,1,.6758-.67581h7.15659a.67646.67646,0,0,1,.6763.67581v7.01059a.67626.67626,0,0,1-.6763.67581m-7.15659-8.12921a.44333.44333,0,0,0-.4431.44281v7.01059a.4435.4435,0,0,0,.4431.44308h7.15659a.44387.44387,0,0,0,.44391-.44308v-7.01059a.4437.4437,0,0,0-.44391-.44281Z" transform="translate(-144.4819 -122.18549)" style="fill:#003915"/><path d="M252.38181,130.754a.4742.4742,0,1,1,.47429-.47421.47508.47508,0,0,1-.47429.47421m0-.71539a.2412.2412,0,1,0,.2415.24118A.24192.24192,0,0,0,252.38181,130.0386Z" transform="translate(-144.4819 -122.18549)" style="fill:#003915"/><path d="M253.98261,130.754a.4742.4742,0,1,1,.47479-.47421.475.475,0,0,1-.47479.47421m0-.71539a.2412.2412,0,1,0,.2417.24118A.24162.24162,0,0,0,253.98261,130.0386Z" transform="translate(-144.4819 -122.18549)" style="fill:#003915"/><rect x="107.4532" y="14.9743" width="2.7195" height="0.2327" style="fill:#003915"/><rect x="108.6967" y="13.73163" width="0.2328" height="2.71948" style="fill:#003915"/><path d="M253.29491,138.17319a.8969.8969,0,1,1,.89659-.89688.898.898,0,0,1-.89659.89688m0-1.5611a.66431.66431,0,1,0,.66379.66422A.6656.6656,0,0,0,253.29491,136.61209Z" transform="translate(-144.4819 -122.18549)" style="fill:#003915"/><rect x="107.4532" y="11.12943" width="2.7195" height="0.23239" style="fill:#003915"/><rect x="108.6967" y="9.8858" width="0.2328" height="2.7204" style="fill:#003915"/><path d="M253.29491,134.3288a.89716.89716,0,1,1,.89659-.8974.8986.8986,0,0,1-.89659.8974m0-1.56189a.66475.66475,0,1,0,.66379.66449A.66545.66545,0,0,0,253.29491,132.76691Z" transform="translate(-144.4819 -122.18549)" style="fill:#003915"/><rect x="111.384" y="14.9743" width="2.7193" height="0.2327" style="fill:#003915"/><rect x="112.6275" y="13.73163" width="0.23309" height="2.71948" style="fill:#003915"/><path d="M257.226,138.17319a.8969.8969,0,1,1,.89679-.89688.89791.89791,0,0,1-.89679.89688m0-1.5611a.66431.66431,0,1,0,.66379.66422A.666.666,0,0,0,257.226,136.61209Z" transform="translate(-144.4819 -122.18549)" style="fill:#003915"/><rect x="111.384" y="11.12943" width="2.7193" height="0.23239" style="fill:#003915"/><rect x="112.6275" y="9.8858" width="0.23309" height="2.7204" style="fill:#003915"/><path d="M257.226,134.3288a.89716.89716,0,1,1,.89679-.8974.89853.89853,0,0,1-.89679.8974m0-1.56189a.66475.66475,0,1,0,.66379.66449A.66588.66588,0,0,0,257.226,132.76691Z" transform="translate(-144.4819 -122.18549)" style="fill:#003915"/><path d="M256.6962,130.754a.4742.4742,0,1,1,.47449-.47421.47486.47486,0,0,1-.47449.47421m0-.71539a.2412.2412,0,1,0,.24179.24118A.24169.24169,0,0,0,256.6962,130.0386Z" transform="translate(-144.4819 -122.18549)" style="fill:#003915"/><path d="M258.2977,130.754a.4742.4742,0,1,1,.474-.47421.47462.47462,0,0,1-.474.47421m0-.71539a.2412.2412,0,1,0,.24152.24118A.24165.24165,0,0,0,258.2977,130.0386Z" transform="translate(-144.4819 -122.18549)" style="fill:#003915"/><path d="M151.7114,130.18369a.80925.80925,0,1,0,.23471.57092.81024.81024,0,0,0-.23471-.57092m-.5726-1.03629a1.60705,1.60705,0,1,1-1.1364.47049A1.60277,1.60277,0,0,1,151.13879,129.1474Z" transform="translate(-144.4819 -122.18549)" style="fill:#003915"/><path d="M200.3584,126.09329a3.90785,3.90785,0,1,1-3.9075-3.90781,3.90809,3.90809,0,0,1,3.9075,3.90781" transform="translate(-144.4819 -122.18549)" style="fill:#558e42;fill-rule:evenodd"/><polygon points="51.969 6.312 52.347 4.997 52.725 3.682 51.969 3.682 51.212 3.682 51.59 4.997 51.969 6.312" style="fill:#fdfdfd;fill-rule:evenodd"/><rect x="51.7637" y="1.50372" width="0.38409" height="2.2814" style="fill:#fdfdfd"/><path d="M185.1282,249.45821c-.7319,0-1.2359-.6179-1.2359-1.73991s.504-1.7399,1.2359-1.7399,1.2359.618,1.2359,1.7399-.504,1.73991-1.2359,1.73991m0,.396c.972,0,1.67979-.7979,1.67979-2.13591s-.70779-2.13589-1.67979-2.13589-1.6739.798-1.6739,2.13589S184.1562,249.8542,185.1282,249.8542Zm-3.966-2.514h-.54l.144-1.338h1.91989v-.3838h-2.29779l-.216,2.10591h.8941c1.06779,0,1.40369.33589,1.40369.8759,0,.50989-.37779.858-1.09189.858a1.82139,1.82139,0,0,1-1.29-.48581l-.20979.3418a2.16815,2.16815,0,0,0,1.5058.54c1.02609,0,1.5239-.5578,1.5239-1.2719C182.9081,247.8382,182.42821,247.34019,181.1622,247.34019Zm-2.04581,1.85411a.31405.31405,0,0,0-.318.324.30326.30326,0,0,0,.216.30591l-.2041.86989h.288l.252-.828a.97563.97563,0,0,0,.0842-.34781A.314.314,0,0,0,179.11639,249.19431Zm-2.28609-1.77591,1.188-1.49409v-.30591h-2.7v.3838h2.1481l-1.16389,1.45821v.318h.2999c.7798,0,1.1339.33,1.1339.834,0,.5218-.3839.84581-1.08.84581a1.84153,1.84153,0,0,1-1.302-.48581l-.21.3418a2.18449,2.18449,0,0,0,1.512.54c1.0139,0,1.52391-.54,1.52391-1.24181C178.18021,247.94029,177.7303,247.46629,176.83031,247.4184Zm-3.852-1.8v.3838h.9901v3.816h.432v-4.19981Z" transform="translate(-144.4819 -122.18549)" style="fill:#6e6e6e;fill-rule:evenodd"/><path d="M250.1501,236.7959c-.7319,0-1.2359-.618-1.2359-1.7399s.504-1.74,1.2359-1.74,1.2359.618,1.2359,1.74-.504,1.7399-1.2359,1.7399m0,.396c.972,0,1.67979-.798,1.67979-2.13589s-.70779-2.136-1.67979-2.136-1.6738.798-1.6738,2.136S249.1781,237.19189,250.1501,237.19189Zm-3.90581-.366c-.74409,0-1.1821-.324-1.1821-.8461,0-.5159.438-.8399,1.1821-.8399.7438,0,1.188.324,1.188.8399C247.4323,236.50189,246.9881,236.8259,246.24429,236.8259Zm-1.03809-2.78391c0-.468.402-.756,1.03809-.756.62981,0,1.044.288,1.044.762,0,.456-.39011.75-1.044.75S245.20621,234.504,245.20621,234.042Zm1.84789.91191a.95116.95116,0,0,0,.6721-.9238c0-.684-.5941-1.11011-1.4819-1.11011-.88809,0-1.47009.4261-1.47009,1.11011a.94775.94775,0,0,0,.6599.9238,1.04828,1.04828,0,0,0-.8098,1.03209c0,.74381.612,1.2059,1.62,1.2059,1.002,0,1.63191-.4621,1.63191-1.2059A1.05779,1.05779,0,0,0,247.05409,234.9539ZM243.6463,236.532a.314.314,0,0,0-.318.324.303.303,0,0,0,.216.3058l-.2041.87h.288l.252-.828a.97542.97542,0,0,0,.08409-.34779A.314.314,0,0,0,243.6463,236.532Zm-2.34.2939c-.726,0-1.11-.4379-1.11-.9a.97208.97208,0,0,1,1.08-.91791c.648,0,1.05589.35381,1.05589.906A.9189.9189,0,0,1,241.3063,236.8259Zm.036-2.1841a1.34261,1.34261,0,0,0-1.2841.72c-.0119-.12581-.0179-.2458-.0179-.3418,0-1.14011.582-1.72211,1.488-1.72211a1.47111,1.47111,0,0,1,.8158.1981l.174-.348a1.92706,1.92706,0,0,0-.9958-.228c-1.14009,0-1.91989.7439-1.91989,2.172,0,1.326.6058,2.0999,1.7218,2.0999a1.30851,1.30851,0,0,0,1.434-1.2901A1.2716,1.2716,0,0,0,241.3423,234.6418Zm-4.16409-1.68581v.38391h.9901v3.816h.432V232.956Z" transform="translate(-144.4819 -122.18549)" style="fill:#6e6e6e;fill-rule:evenodd"/><path d="M247.2222,155.2428c-.7319,0-1.2359-.61789-1.2359-1.7399s.504-1.7399,1.2359-1.7399,1.2359.618,1.2359,1.7399-.504,1.7399-1.2359,1.7399m0,.396c.972,0,1.67979-.79788,1.67979-2.13589s-.70779-2.13589-1.67979-2.13589-1.6739.798-1.6739,2.13589S246.2502,155.63879,247.2222,155.63879Zm-4.5-.4201,1.4281-1.40369a1.7292,1.7292,0,0,0,.69-1.31412c0-.70187-.54-1.13388-1.39211-1.13388a1.88732,1.88732,0,0,0-1.4879.59979l.3058.26419a1.42641,1.42641,0,0,1,1.1461-.468c.642,0,.9839.2999.9839.7861,0,.28769-.0899.5697-.5638,1.03769l-1.7462,1.71021v.30582h2.94609v-.38412Zm-1.55991-.23978a.314.314,0,0,0-.318.324.30313.30313,0,0,0,.216.30591l-.2041.8699h.288l.252-.828a.97494.97494,0,0,0,.08411-.34781A.31394.31394,0,0,0,241.16229,154.97891Zm-2.622-1.85413h-.54l.144-1.338h1.91989V151.403H237.7664l-.216,2.10593h.894c1.0679,0,1.40381.33588,1.40381.87588,0,.50992-.3779.858-1.0919.858a1.8216,1.8216,0,0,1-1.2901-.48581l-.20981.3418a2.16815,2.16815,0,0,0,1.50581.54c1.02609,0,1.5239-.5578,1.5239-1.27188C240.2861,153.6228,239.8062,153.12479,238.5403,153.12479Z" transform="translate(-144.4819 -122.18549)" style="fill:#6e6e6e;fill-rule:evenodd"/><path d="M175.7381,184.99409c-.7319,0-1.2359-.61789-1.2359-1.7399s.504-1.7399,1.2359-1.7399,1.2359.618,1.2359,1.7399-.504,1.7399-1.2359,1.7399m0,.396c.972,0,1.67979-.79791,1.67979-2.13591s-.70779-2.13589-1.67979-2.13589-1.6738.798-1.6738,2.13589S174.7661,185.39011,175.7381,185.39011Zm-4.5-.4201,1.4281-1.4037a1.72917,1.72917,0,0,0,.69-1.3141c0-.7019-.54-1.1339-1.39211-1.1339a1.88732,1.88732,0,0,0-1.4879.59979l.3058.26421a1.42654,1.42654,0,0,1,1.1461-.468c.642,0,.9839.2999.9839.7861,0,.2877-.0899.5697-.5638,1.0377l-1.7462,1.71019v.3058h2.94609V184.97Zm-1.55989-.23981a.31407.31407,0,0,0-.318.324.30311.30311,0,0,0,.216.30589l-.2041.8699h.288l.252-.828a.97565.97565,0,0,0,.08421-.34779A.31405.31405,0,0,0,169.67821,184.73019Zm-2.2861-1.77589,1.188-1.49409v-.30591h-2.7v.3838h2.1481l-1.16389,1.45819v.318h.2999c.7798,0,1.1338.33,1.1338.834,0,.5218-.3838.84579-1.08.84579a1.84145,1.84145,0,0,1-1.3019-.48579l-.21011.3418a2.1847,2.1847,0,0,0,1.512.54c1.014,0,1.5239-.54,1.5239-1.24181C168.7419,183.4762,168.2921,183.0022,167.39211,182.9543Z" transform="translate(-144.4819 -122.18549)" style="fill:#6e6e6e;fill-rule:evenodd"/><path d="M175.65759,144.28119c-.73189,0-1.23589-.61789-1.23589-1.7399s.504-1.7399,1.23589-1.7399,1.2359.618,1.2359,1.7399-.504,1.7399-1.2359,1.7399m0,.396c.972,0,1.67981-.79788,1.67981-2.13589s-.70781-2.13589-1.67981-2.13589-1.67389.798-1.67389,2.13589S174.68559,144.67719,175.65759,144.67719Zm-2.0701-1.5239h-.83989v-.972h-.41991v.972h-1.824l2.148-2.71188h-.4801l-2.2258,2.78391v.31189h2.3698v1.104h.432v-1.104h.83989Zm-4.4337.864a.31414.31414,0,0,0-.3181.324.30321.30321,0,0,0,.216.30588l-.204.87h.288l.252-.828a.97838.97838,0,0,0,.08411-.3479A.314.314,0,0,0,169.15379,144.0173Zm-3.24.2399,1.4281-1.40381a1.729,1.729,0,0,0,.6899-1.31409c0-.7019-.54-1.13391-1.39211-1.13391a1.88745,1.88745,0,0,0-1.4879.59979l.30591.26422a1.42621,1.42621,0,0,1,1.146-.468c.64211,0,.984.2999.984.7861,0,.28772-.0899.5697-.5639,1.03772l-1.74611,1.71017v.30582h2.946v-.384Z" transform="translate(-144.4819 -122.18549)" style="fill:#6e6e6e;fill-rule:evenodd"/><path d="M208.4924,146.29581c-.7319,0-1.2359-.61792-1.2359-1.7399s.504-1.7399,1.2359-1.7399,1.2359.618,1.2359,1.7399-.504,1.7399-1.2359,1.7399m0,.396c.972,0,1.6799-.79791,1.6799-2.13589s-.7079-2.13589-1.6799-2.13589-1.6738.798-1.6738,2.13589S207.5204,146.6918,208.4924,146.6918Zm-3.62379-.36591c-.72591,0-1.11-.438-1.11-.9a.97207.97207,0,0,1,1.08-.91791c.648,0,1.05591.35379,1.05591.906A.91889.91889,0,0,1,204.86861,146.3259Zm.036-2.18411a1.34273,1.34273,0,0,0-1.2841.72c-.0119-.12589-.01779-.24579-.01779-.34189,0-1.14011.58189-1.722,1.4879-1.722a1.47055,1.47055,0,0,1,.8158.19809l.174-.34811a1.92828,1.92828,0,0,0-.9958-.22787c-1.14009,0-1.91989.74377-1.91989,2.17188,0,1.32611.60579,2.09991,1.7218,2.09991a1.30849,1.30849,0,0,0,1.434-1.29A1.27162,1.27162,0,0,0,204.9046,144.14178Zm-2.6158,1.89011a.31408.31408,0,0,0-.318.324.30313.30313,0,0,0,.216.30591l-.2041.8699h.288l.252-.828a.976.976,0,0,0,.0842-.34781A.31405.31405,0,0,0,202.2888,146.03189Zm-3.24.23981,1.4281-1.40369a1.7292,1.7292,0,0,0,.69-1.31412c0-.7019-.54-1.13388-1.39211-1.13388a1.88722,1.88722,0,0,0-1.4879.59979l.3058.26419a1.42653,1.42653,0,0,1,1.1461-.468c.642,0,.9839.2999.9839.7861,0,.28769-.0899.5697-.5638,1.03769L198.4127,146.35v.30579h2.94609v-.38409Z" transform="translate(-144.4819 -122.18549)" style="fill:#6e6e6e;fill-rule:evenodd"/><path d="M246.01891,286.16721c-.7319,0-1.2359-.618-1.2359-1.73991s.504-1.7399,1.2359-1.7399,1.2359.6179,1.2359,1.7399-.504,1.73991-1.2359,1.73991m0,.396c.972,0,1.67979-.798,1.67979-2.13591s-.70779-2.13589-1.67979-2.13589-1.6739.7979-1.6739,2.13589S245.04691,286.5632,246.01891,286.5632Zm-4.5-.42011,1.4281-1.4037a1.729,1.729,0,0,0,.6899-1.31419c0-.7018-.54-1.1338-1.392-1.1338a1.88749,1.88749,0,0,0-1.488.59981l.30591.26419a1.426,1.426,0,0,1,1.14609-.468c.642,0,.9839.29991.9839.786,0,.28769-.08989.56979-.56389,1.0378l-1.74611,1.7101v.30591h2.94611v-.38411Zm-1.55991-.23979a.31408.31408,0,0,0-.3181.324.30312.30312,0,0,0,.216.3058l-.204.87h.288l.252-.828a.97775.97775,0,0,0,.08409-.34781A.314.314,0,0,0,239.959,285.90331Zm-2.2861-1.77591,1.188-1.4942v-.3058h-2.7v.3838h2.148l-1.16389,1.4581v.3181h.2999c.77989,0,1.1339.32991,1.1339.83391,0,.5219-.38379.8459-1.08.8459a1.841,1.841,0,0,1-1.3019-.4859l-.2101.34189a2.18492,2.18492,0,0,0,1.512.54c1.014,0,1.52391-.54,1.52391-1.2419C239.02271,284.6492,238.57291,284.17529,237.6729,284.1274Z" transform="translate(-144.4819 -122.18549)" style="fill:#6e6e6e;fill-rule:evenodd"/><path d="M179.6579,291.90019c-.434,0-.68939-.189-.68939-.4935,0-.301.2554-.4901.68939-.4901s.693.1891.693.4901c0,.3045-.25911.4935-.693.4935m-.6055-1.62389c0-.273.2347-.4411.6055-.4411.3676,0,.6091.16809.6091.44449,0,.26611-.2276.43761-.6091.43761C179.2766,290.7173,179.0524,290.54581,179.0524,290.27631Zm1.078.532a.55479.55479,0,0,0,.392-.53911c0-.3989-.34641-.6474-.8645-.6474-.5179,0-.8575.2485-.8575.6474a.55281.55281,0,0,0,.38519.53911.611.611,0,0,0-.47249.60179c0,.434.3569.7036.94479.7036.5845,0,.9521-.26959.9521-.7036A.61694.61694,0,0,0,180.1304,290.8083Zm-2.7439.0873c-.3779,0-.616-.2063-.616-.52831a.53633.53633,0,0,1,.59871-.53209c.42349,0,.6474.25569.6474.525A.56705.56705,0,0,1,177.38651,290.8956Zm-.0278-1.2738a.76316.76316,0,0,0-.8365.7525.7416.7416,0,0,0,.826.7348.78262.78262,0,0,0,.7489-.4198c.0071.07339.0105.1434.0105.19949,0,.665-.3396,1.00441-.868,1.00441a.85884.85884,0,0,1-.47589-.1154l-.1015.2029a1.1239,1.1239,0,0,0,.5808.133c.665,0,1.12-.434,1.12-1.26709C178.363,290.0733,178.00951,289.6218,177.3587,289.6218Zm-1.3127,2.1069a.18318.18318,0,0,0-.18541.1891.17667.17667,0,0,0,.12581.1783l-.119.50771h.16811l.14709-.483a.57583.57583,0,0,0,.049-.203A.18319.18319,0,0,0,176.046,291.7287Zm-1.8902.14011.8331-.819a1.00763,1.00763,0,0,0,.4025-.7664c0-.40961-.3149-.66161-.8121-.66161a1.10138,1.10138,0,0,0-.868.35l.17859.154a.83219.83219,0,0,1,.66841-.273c.3745,0,.574.1749.574.4583,0,.16811-.0524.3325-.3288.6055l-1.01849.9975v.1786h1.7184v-.22389Z" transform="translate(-144.4819 -122.18549)" style="fill:#434242"/><path d="M152.3945,244.72749h.6826v-.2486h-.4586v-1.26l2.226,1.008v-.273l-2.27139-1.0253h-.1786Zm1.00459,1.218v.315l-.78059-.08389v-1.12h-.224v1.3405l1.22859.12581v-.52121c0-.62309.1958-.81929.511-.81929.29741,0,.50041.2206.50041.6373a1.06144,1.06144,0,0,1-.28351.7523l.1996.12239a1.26448,1.26448,0,0,0,.3149-.8784c0-.59839-.32539-.889-.74179-.889C153.68941,244.927,153.39909,245.20709,153.39909,245.9455Zm1.08141,1.19371a.18318.18318,0,0,0,.1891.18539.17676.17676,0,0,0,.1783-.1259l.50771.11909v-.16809l-.483-.14711a.57434.57434,0,0,0-.203-.04909A.18321.18321,0,0,0,154.4805,247.13921Zm-.504.49319v.4901h-.56689v.245h.56689v1.0641l-1.582-1.2529v.27971l1.624,1.2986h.182V248.3745h.644v-.252h-.644v-.4901Z" transform="translate(-144.4819 -122.18549)" style="fill:#434242"/><path d="M269.1618,283.3833v.3149l-.7807-.08389v-1.12h-.22391v1.3405l1.22852.1259v-.5213c0-.62309.19589-.8192.51108-.8192.29742,0,.50031.2205.50031.63721a1.06139,1.06139,0,0,1-.28339.7523l.19949.1225a1.26451,1.26451,0,0,0,.315-.87851c0-.59839-.3255-.8889-.74191-.8889-.4342,0-.72449.28-.72449,1.01851m-1.00461,2.05789h.22391v-.57739h2.2261v-.252h-2.45Zm2.086.3569a.18318.18318,0,0,0,.18912.18541.17677.17677,0,0,0,.17828-.1259l.50769.11909v-.16811l-.48309-.14709a.57348.57348,0,0,0-.20288-.0491A.18321.18321,0,0,0,270.24319,285.7981Zm-2.086,1.6064h.22391v-.57739h2.2261v-.252h-2.45Z" transform="translate(-144.4819 -122.18549)" style="fill:#434242"/><path d="M272.615,199.11749c0,.42711-.36029.7211-1.0148.7211s-1.0148-.294-1.0148-.7211c0-.4269.3602-.72089,1.0148-.72089s1.0148.294,1.0148.72089m.231,0c0-.567-.46552-.97969-1.24582-.97969s-1.24588.4127-1.24588.97969c0,.5672.46548.9765,1.24588.9765S272.846,199.68469,272.846,199.11749Zm-.2135,2.2785c0,.4339-.189.6893-.4935.6893-.301,0-.48981-.2554-.48981-.6893s.18881-.6931.48981-.6931C272.44351,200.7029,272.63251,200.962,272.63251,201.396Zm-1.6239.60541c-.273,0-.4408-.23441-.4408-.60541,0-.3674.16779-.6089.44449-.6089.26581,0,.43729.22731.43729.6089S271.27811,202.0014,271.00861,202.0014Zm.532-1.078a.55439.55439,0,0,0-.53879-.39171c-.3992,0-.64749.34641-.64749.8643s.24829.85741.64749.85741a.55277.55277,0,0,0,.53879-.3849.61118.61118,0,0,0,.60211.4722c.43369,0,.70331-.3568.70331-.9447,0-.5845-.26962-.9519-.70331-.9519A.6171.6171,0,0,0,271.54059,200.9234Zm.92041,1.988a.18314.18314,0,0,0,.18909.1853.1767.1767,0,0,0,.17831-.12579l.50769.119v-.16811l-.483-.14709a.57392.57392,0,0,0-.203-.04871A.183.183,0,0,0,272.461,202.91139Zm.17151,1.36481c0,.42351-.2554.64751-.5249.64751a.56727.56727,0,0,1-.53549-.6302c0-.37781.20657-.61571.52838-.61571A.536.536,0,0,1,272.63251,204.2762Zm-1.2739-.0209a.783.783,0,0,0,.42007.7489c-.0737.00681-.14368.0105-.19949.0105-.665,0-1.0043-.3396-1.0043-.868a.85882.85882,0,0,1,.1153-.47589l-.20288-.1015a1.124,1.124,0,0,0-.133.5808c0,.665.434,1.12,1.26678,1.12.77332,0,1.22491-.3535,1.22491-1.0043a.76338.76338,0,0,0-.75232-.83659A.74183.74183,0,0,0,271.35861,204.25529Z" transform="translate(-144.4819 -122.18549)" style="fill:#434242"/><path d="M183.4897,179.5683c0,.4272-.36031.72121-1.0148.72121s-1.0148-.294-1.0148-.72121c0-.4269.36031-.72079,1.0148-.72079s1.0148.2939,1.0148.72079m.23109,0c0-.56689-.4655-.9796-1.2459-.9796s-1.2458.4127-1.2458.9796c0,.5672.4655.97661,1.2458.97661S183.72079,180.1355,183.72079,179.5683Zm-.2135,2.2785c0,.434-.18909.68939-.4935.68939-.301,0-.48979-.2554-.48979-.68939s.1888-.693.48979-.693C183.31821,181.15379,183.50729,181.4128,183.50729,181.8468Zm-1.624.6055c-.2729,0-.4407-.23441-.4407-.6055,0-.36731.1678-.6089.4444-.6089.2659,0,.43741.2274.43741.6089S182.15289,182.4523,181.8833,182.4523Zm.5321-1.078a.55471.55471,0,0,0-.53891-.3918c-.39909,0-.6474.34641-.6474.8643s.24831.8575.6474.8575a.553.553,0,0,0,.53891-.3849.61108.61108,0,0,0,.6021.4722c.4337,0,.70329-.3569.70329-.94479,0-.5845-.26959-.9519-.70329-.9519A.617.617,0,0,0,182.41541,181.3743Zm.92039,1.9879a.18317.18317,0,0,0,.1891.18539.17668.17668,0,0,0,.1783-.12579l.50771.119v-.16811l-.48311-.14709a.57163.57163,0,0,0-.2029-.0488A.183.183,0,0,0,183.3358,183.3622Zm-2.08569,1.6064h.22389v-.57739h2.2258v-.252h-2.44969Z" transform="translate(-144.4819 -122.18549)" style="fill:#434242"/><path d="M182.9752,142.8931l-.81891-.8331a1.00758,1.00758,0,0,0-.76649-.4025c-.40961,0-.66161.31491-.66161.8121a1.10132,1.10132,0,0,0,.3501.868l.1539-.17859a.832.832,0,0,1-.273-.6684c0-.37451.1749-.574.4584-.574.16809,0,.3325.0524.6055.3288l.9975,1.01849h.1786V141.5455h-.224Zm.03149,1.46271c0,.42349-.2554.64771-.525.64771a.56723.56723,0,0,1-.5354-.6301c0-.3779.2063-.616.52829-.616A.53608.53608,0,0,1,183.0067,144.3558Zm-1.2739-.021a.78338.78338,0,0,0,.4198.74918c-.07341.00681-.1434.01053-.19951.01053-.66479,0-1.00429-.3396-1.00429-.868a.86078.86078,0,0,1,.1153-.4762l-.2029-.1015a1.12574,1.12574,0,0,0-.133.58109c0,.665.434,1.12,1.26711,1.12.7733,0,1.2249-.35352,1.2249-1.00461a.7634.7634,0,0,0-.75259-.83652A.74176.74176,0,0,0,181.7328,144.33481Zm1.1024,1.52618a.18315.18315,0,0,0,.1891.18539.17678.17678,0,0,0,.1783-.12589l.50769.11911v-.16812l-.48309-.14709a.57389.57389,0,0,0-.2029-.0491A.18322.18322,0,0,0,182.83521,145.861Zm-2.086,1.60641h.22389V146.89h2.2261v-.252h-2.45Z" transform="translate(-144.4819 -122.18549)" style="fill:#434242"/><path d="M247.0258,294.5878c-.42351,0-.6478-.2554-.6478-.525a.56726.56726,0,0,1,.63019-.53551c.37781,0,.616.20641.616.5284a.53618.53618,0,0,1-.5984.5321m.0209-1.2739a.78355.78355,0,0,0-.74921.4198c-.00681-.07341-.01041-.1434-.01041-.1996,0-.6647.33951-1.0043.8679-1.0043a.86041.86041,0,0,1,.4762.1154l.1015-.203a1.12549,1.12549,0,0,0-.5811-.1329c-.665,0-1.1199.434-1.1199,1.26711,0,.7733.35341,1.22479,1.00461,1.22479a.76333.76333,0,0,0,.8365-.75259A.74171.74171,0,0,0,247.04671,293.3139Zm-3.0764-.9836v.6825h.2486v-.4586h1.26l-1.008,2.226h.273l1.0253-2.27139v-.1785Zm-.43741,2.086a.18313.18313,0,0,0-.18539.189.17667.17667,0,0,0,.1259.1783l-.11911.50771h.16811l.14709-.483a.57359.57359,0,0,0,.0491-.203A.18318.18318,0,0,0,243.5329,294.41631Zm-1.89009.14.8331-.81891a1.00776,1.00776,0,0,0,.4025-.76649c0-.40961-.3149-.66161-.8121-.66161a1.101,1.101,0,0,0-.868.3501l.1786.1539a.832.832,0,0,1,.6684-.273c.37439,0,.574.1749.574.4584,0,.16809-.0524.33249-.3288.60539l-1.01849.9976v.1785h1.7184v-.22389Z" transform="translate(-144.4819 -122.18549)" style="fill:#434242"/><path d="M249.53641,144.0545c-.434,0-.68941-.18912-.68941-.4935,0-.30112.2554-.49011.68941-.49011s.6931.189.6931.49011c0,.30438-.25911.4935-.6931.4935m-.60551-1.624c0-.273.23471-.4411.60551-.4411.36769,0,.60919.16809.60919.44449,0,.2662-.2276.43771-.60919.43771C249.15511,142.87161,248.93089,142.7001,248.93089,142.43051Zm1.078.53207a.555.555,0,0,0,.39211-.53918c0-.3988-.34641-.6474-.86459-.6474-.51791,0-.85751.2486-.85751.6474a.55307.55307,0,0,0,.3853.53918.61086.61086,0,0,0-.4726.60181c0,.4339.3569.70352.94481.70352.58449,0,.95219-.26962.95219-.70352A.61682.61682,0,0,0,250.0089,142.96259Zm-2.5443-.11569.69279-.8714v-.1785h-1.575v.22391h1.2529l-.67889.85071v.18539h.1749c.45531,0,.66161.19238.66161.48639,0,.30441-.22391.4935-.62981.4935a1.07438,1.07438,0,0,1-.7597-.28351l-.1225.19962a1.27473,1.27473,0,0,0,.8822.31491c.59131,0,.8889-.31491.8889-.72452C248.252,143.1514,247.9895,142.875,247.4646,142.84689Zm-1.4176,1.0361a.18314.18314,0,0,0-.18539.189.17662.17662,0,0,0,.12579.17831l-.119.50769h.16811l.14709-.483a.573.573,0,0,0,.049-.203A.18316.18316,0,0,0,246.047,143.883Zm-1.8902.14.8331-.81891a1.00773,1.00773,0,0,0,.4025-.76651c0-.40961-.3149-.66159-.81209-.66159a1.10116,1.10116,0,0,0-.868.3501l.1786.1539a.83217.83217,0,0,1,.6684-.273c.37451,0,.57411.1749.57411.4584,0,.16812-.05251.33252-.3289.6055l-1.01851.9975v.1785h1.7184V144.023Z" transform="translate(-144.4819 -122.18549)" style="fill:#434242"/><path d="M246.92059,253.2243c-.4269,0-.7211-.3605-.7211-1.0148,0-.65451.2942-1.01511.7211-1.01511s.72081.3606.72081,1.01511c0,.6543-.2939,1.0148-.72081,1.0148m0,.23109c.56691,0,.9799-.4655.9799-1.2459,0-.78061-.413-1.24611-.9799-1.24611s-.97649.4655-.97649,1.24611C245.94411,252.9899,246.3537,253.4554,246.92059,253.4554Zm-2.6252-.245.8331-.81891a1.00777,1.00777,0,0,0,.4026-.76649c0-.40961-.315-.66161-.81219-.66161a1.10113,1.10113,0,0,0-.8679.3501l.1785.1539a.83239.83239,0,0,1,.6685-.273c.3744,0,.574.1749.574.4584,0,.16809-.05251.3325-.3289.6055l-1.0184.9975v.1786H245.643v-.224Zm-.9099-.14a.18316.18316,0,0,0-.18539.1891.17677.17677,0,0,0,.1259.1783l-.11911.50769h.16811l.14709-.48309a.57321.57321,0,0,0,.0491-.2029A.18321.18321,0,0,0,243.3855,253.0704Zm-1.3334-1.0361.69281-.87131v-.17859H241.17v.22389h1.2529l-.67889.85071v.18539h.1749c.4552,0,.66161.1925.66161.4864,0,.30449-.224.4935-.6299.4935a1.07431,1.07431,0,0,1-.7597-.2834l-.12241.19949a1.27436,1.27436,0,0,0,.88211.315c.59129,0,.889-.315.889-.72459C242.8396,252.33881,242.5771,252.06239,242.05209,252.0343Z" transform="translate(-144.4819 -122.18549)" style="fill:#434242"/><path d="M174.6947,196.494c-.4269,0-.72121-.36061-.72121-1.0148,0-.6545.29431-1.01511.72121-1.01511s.72079.36061.72079,1.01511c0,.65419-.2939,1.0148-.72079,1.0148m0,.231c.56689,0,.9799-.46541.9799-1.2458,0-.7807-.413-1.24611-.9799-1.24611s-.97661.46541-.97661,1.24611C173.71809,196.2596,174.1277,196.725,174.6947,196.725Zm-2.2785-.21341c-.434,0-.68939-.1891-.68939-.4935,0-.3011.25539-.4901.68939-.4901s.6931.189.6931.4901C173.1093,196.32249,172.8502,196.5116,172.4162,196.5116Zm-.6055-1.624c0-.273.2347-.4411.6055-.4411.3676,0,.60921.16809.60921.4445,0,.26619-.22771.4377-.60921.4377C172.0349,195.3287,171.8107,195.1572,171.8107,194.8876Zm1.078.53209a.55507.55507,0,0,0,.39211-.5392c0-.39879-.34641-.6474-.86461-.6474-.5179,0-.8575.24861-.8575.6474a.553.553,0,0,0,.38519.5392.611.611,0,0,0-.47249.60181c0,.434.35689.70351.94479.70351.5845,0,.9521-.2695.9521-.70351A.61678.61678,0,0,0,172.8887,195.41969Zm-1.9879.92041a.18317.18317,0,0,0-.18541.1891.17676.17676,0,0,0,.1259.1783l-.11909.5076h.16811l.14709-.483a.574.574,0,0,0,.0491-.2029A.18321.18321,0,0,0,170.9008,196.3401Zm-1.6064-2.086v.22389h.57739v2.226h.252V194.2541Z" transform="translate(-144.4819 -122.18549)" style="fill:#434242"/><path d="M166.35339,159.22379c-.42679,0-.7211-.3606-.7211-1.0148,0-.65448.29431-1.01508.7211-1.01508s.7209.3606.7209,1.01508c0,.65421-.294,1.0148-.7209,1.0148m0,.231c.567,0,.98-.46539.98-1.24582,0-.78067-.413-1.24609-.98-1.24609s-.97649.46542-.97649,1.24609C165.37691,158.98941,165.7865,159.4548,166.35339,159.4548Zm-2.2784-.21341c-.434,0-.68939-.18909-.68939-.4935,0-.30109.2554-.49008.68939-.49008s.693.189.693.49008C164.768,159.05231,164.5089,159.24139,164.075,159.24139Zm-.6055-1.624c0-.273.2347-.4411.6055-.4411.3676,0,.6091.16809.6091.44449,0,.2662-.2276.43771-.6091.43771C163.6937,158.0585,163.4695,157.887,163.4695,157.6174Zm1.078.5321a.555.555,0,0,0,.392-.53922c0-.3988-.3464-.6474-.8645-.6474-.5179,0-.8575.2486-.8575.6474a.553.553,0,0,0,.38521.53922.61085.61085,0,0,0-.4725.60181c0,.4339.3569.70349.94479.70349.5845,0,.9521-.26959.9521-.70349A.61676.61676,0,0,0,164.5475,158.14951Zm-1.9879.92038a.18315.18315,0,0,0-.18539.189.17658.17658,0,0,0,.12579.17828l-.119.50769h.16811l.14709-.483a.57336.57336,0,0,0,.049-.203A.18317.18317,0,0,0,162.5596,159.06989Zm-1.6064-2.086v.22391h.57739v2.226h.252v-2.44992Z" transform="translate(-144.4819 -122.18549)" style="fill:#434242"/><path d="M202.9785,134.59891c-.4269,0-.7211-.3605-.7211-1.0148,0-.65451.2942-1.015.7211-1.015s.72079.3605.72079,1.015c0,.6543-.2939,1.0148-.72079,1.0148m0,.23108c.56689,0,.9799-.46548.9799-1.24588,0-.78061-.413-1.24609-.9799-1.24609s-.9765.46548-.9765,1.24609C202.002,134.3645,202.41161,134.83,202.9785,134.83Zm-1.20731-.889h-.4901v-.56692h-.2449v.56692h-1.06409l1.2529-1.582h-.2798l-1.2986,1.624v.182h1.38249v.644h.252v-.644h.4901Zm-2.58659.504a.18316.18316,0,0,0-.18539.18909.17676.17676,0,0,0,.1259.17831l-.11911.50769h.16811l.14709-.483a.57429.57429,0,0,0,.0491-.203A.1832.1832,0,0,0,199.1846,134.445Zm-1.6064-2.086v.22388h.57739v2.2261h.252v-2.45Z" transform="translate(-144.4819 -122.18549)" style="fill:#434242"/><line x1="28.0471" y1="168.74731" x2="5.002" y2="168.74731" style="fill:none;stroke:#b1b2b2;stroke-miterlimit:22.92558479309082;stroke-width:0.2160000056028366px"/><line x1="9.2027" y1="128.83632" x2="9.2027" y2="172.66591" style="fill:none;stroke:#b1b2b2;stroke-miterlimit:22.92558479309082;stroke-width:0.2160000056028366px"/><line x1="124.9653" y1="167.33081" x2="124.9653" y2="175.41461" style="fill:none;stroke:#b1b2b2;stroke-miterlimit:22.92558479309082;stroke-width:0.2160000056028366px"/><line x1="127.1832" y1="84.20432" x2="127.1832" y2="142.57391" style="fill:none;stroke:#b1b2b2;stroke-miterlimit:22.92558479309082;stroke-width:0.2160000056028366px"/><line x1="38.05789" y1="64.20381" x2="38.05789" y2="76.23862" style="fill:none;stroke:#b1b2b2;stroke-miterlimit:22.92558479309082;stroke-width:0.2160000056028366px"/><line x1="37.5573" y1="26.95432" x2="37.5573" y2="38.5061" style="fill:none;stroke:#b1b2b2;stroke-miterlimit:22.92558479309082;stroke-width:0.2160000056028366px"/><line x1="95.39209" y1="171.43481" x2="72.6004" y2="171.43481" style="fill:none;stroke:#b1b2b2;stroke-miterlimit:22.92558479309082;stroke-width:0.2160000056028366px"/><line x1="97.98689" y1="20.90152" x2="83.22749" y2="20.90152" style="fill:none;stroke:#b1b2b2;stroke-miterlimit:22.92558479309082;stroke-width:0.2160000056028366px"/><line x1="95.39209" y1="130.08891" x2="67.0425" y2="130.08891" style="fill:none;stroke:#b1b2b2;stroke-miterlimit:22.92558479309082;stroke-width:0.2160000056028366px"/><line x1="23.39209" y1="73.35861" x2="5.002" y2="73.35861" style="fill:none;stroke:#b1b2b2;stroke-miterlimit:22.92558479309082;stroke-width:0.2160000056028366px"/><line x1="15.0508" y1="36.08841" x2="5.002" y2="36.08841" style="fill:none;stroke:#b1b2b2;stroke-miterlimit:22.92558479309082;stroke-width:0.2160000056028366px"/><line x1="51.6759" y1="11.46362" x2="42.8587" y2="11.46362" style="fill:none;stroke:#b1b2b2;stroke-miterlimit:22.92558479309082;stroke-width:0.2160000056028366px"/><line x1="64.44029" y1="168.74731" x2="37.48619" y2="168.74731" style="fill:none;stroke:#b1b2b2;stroke-miterlimit:22.92558479309082;stroke-width:0.2160000056028366px"/><line x1="9.2027" y1="82.02841" x2="9.2027" y2="119.39722" style="fill:none;stroke:#b1b2b2;stroke-miterlimit:22.92558479309082;stroke-width:0.2160000056028366px"/><line x1="124.9653" y1="151.14331" x2="124.9653" y2="157.89171" style="fill:none;stroke:#b1b2b2;stroke-miterlimit:22.92558479309082;stroke-width:0.2160000056028366px"/><line x1="127.1832" y1="6.4292" x2="127.1832" y2="74.76521" style="fill:none;stroke:#b1b2b2;stroke-miterlimit:22.92558479309082;stroke-width:0.2160000056028366px"/><line x1="38.05789" y1="41.33731" x2="38.05789" y2="54.76482" style="fill:none;stroke:#b1b2b2;stroke-miterlimit:22.92558479309082;stroke-width:0.2160000056028366px"/><line x1="37.5573" y1="6.4292" x2="37.5573" y2="17.51523" style="fill:none;stroke:#b1b2b2;stroke-miterlimit:22.92558479309082;stroke-width:0.2160000056028366px"/><line x1="127.7569" y1="171.43481" x2="104.8311" y2="171.43481" style="fill:none;stroke:#b1b2b2;stroke-miterlimit:22.92558479309082;stroke-width:0.2160000056028366px"/><line x1="130.7251" y1="20.90152" x2="107.42599" y2="20.90152" style="fill:none;stroke:#b1b2b2;stroke-miterlimit:22.92558479309082;stroke-width:0.2160000056028366px"/><line x1="130.7251" y1="130.08891" x2="104.8311" y2="130.08891" style="fill:none;stroke:#b1b2b2;stroke-miterlimit:22.92558479309082;stroke-width:0.2160000056028366px"/><line x1="39.57959" y1="73.35861" x2="32.8311" y2="73.35861" style="fill:none;stroke:#b1b2b2;stroke-miterlimit:22.92558479309082;stroke-width:0.2160000056028366px"/><line x1="40.2565" y1="36.08841" x2="24.4899" y2="36.08841" style="fill:none;stroke:#b1b2b2;stroke-miterlimit:22.92558479309082;stroke-width:0.2160000056028366px"/><line x1="69.93689" y1="11.46362" x2="61.11499" y2="11.46362" style="fill:none;stroke:#b1b2b2;stroke-miterlimit:22.92558479309082;stroke-width:0.2160000056028366px"/></svg>