<?xml version="1.0" encoding="utf-8"?>
<!-- Generator: Adobe Illustrator 23.0.2, SVG Export Plug-In . SVG Version: 6.00 Build 0)  -->
<svg version="1.1" id="Слой_1" xmlns="http://www.w3.org/2000/svg" xmlns:xlink="http://www.w3.org/1999/xlink" x="0px" y="0px"
	 viewBox="0 0 800 638.6" enable-background="new 0 0 800 638.6" xml:space="preserve">
<polygon fill-rule="evenodd" clip-rule="evenodd" fill="#F1F2F2" stroke="#848484" stroke-miterlimit="10" points="731.3,28.5 
	731.3,222.8 671.1,222.8 671.1,82.9 530.4,82.9 530.4,28.5 "/>
<g id="moyka_2_6_">
	<path fill="#F3F3F3" stroke="#838383" d="M720.5,164c1.8,0,3.2,1.5,3.2,3.2v47.1c0,1.8-1.5,3.2-3.2,3.2h-39c-1.8,0-3.2-1.5-3.2-3.2
		v-47.1c0-1.8,1.5-3.2,3.2-3.2H720.5z"/>
	<path fill="#F3F3F3" stroke="#838383" d="M712.4,167.3c1.8,0,3.2,1.5,3.2,3.2v40.6c0,1.8-1.5,3.2-3.2,3.2h-27.6
		c-1.8,0-3.2-1.5-3.2-3.2v-40.6c0-1.8,1.5-3.2,3.2-3.2H712.4z"/>
	<rect x="705.9" y="188.4" fill="#F3F3F3" stroke="#838383" width="13" height="3.2"/>
	<circle fill="#F3F3F3" stroke="#838383" cx="697" cy="190.8" r="2.4"/>
</g>
<g id="plita_6_">
	<rect x="671.1" y="90.8" fill="#F3F3F3" stroke="#838383" width="58.4" height="56.8"/>
	<circle fill="#F3F3F3" stroke="#838383" cx="685.7" cy="131.4" r="9.7"/>
	<circle fill="#F3F3F3" stroke="#838383" cx="710" cy="107" r="9.7"/>
	<circle fill="#F3F3F3" stroke="#838383" cx="685.7" cy="107" r="8.1"/>
	<circle fill="#F3F3F3" stroke="#838383" cx="710" cy="131.4" r="8.1"/>
</g>
<g id="unitaz_7_">
	<path fill="#F3F3F3" stroke="#838383" d="M625.3,610.4V599c0-1.8,1.5-3.2,3.2-3.2h29.2c1.8,0,3.2,1.5,3.2,3.2v11.4H625.3z"/>
	<path fill="#F3F3F3" stroke="#838383" d="M628.5,595.8c-1.8,0-3.2-1.5-3.2-3.2H661c0,1.8-1.5,3.2-3.2,3.2H628.5z"/>
	<path fill="#F3F3F3" stroke="#838383" d="M661,592.5h-35.7c0,0-7.3-42.2,17.9-42.2C668.3,550.3,661,592.5,661,592.5z"/>
	<circle fill="#F3F3F3" stroke="#838383" cx="643.2" cy="603.9" r="3.2"/>
</g>
<g id="moyka_7_">
	<path fill="#F3F3F3" stroke="#838383" d="M530,609.6c-1,0-1.8-0.8-1.8-1.8v-35.4c0-1,0.8-1.8,1.8-1.8h53.1c1,0,1.8,0.8,1.8,1.8
		v35.4c0,1-0.8,1.8-1.8,1.8H530z"/>
	<rect x="528.2" y="600.7" fill="#F3F3F3" stroke="#838383" width="56.7" height="3.5"/>
	<ellipse fill="#F3F3F3" stroke="#838383" cx="557.5" cy="585.7" rx="18.6" ry="11.5"/>
	<rect x="554.8" y="590.1" fill="#F3F3F3" stroke="#838383" width="3.5" height="14.2"/>
	<circle fill="#F3F3F3" stroke="#838383" cx="555.7" cy="583.9" r="2.7"/>
</g>
<g id="stirka_6_">
	<rect x="672.5" y="449.6" fill="#F3F3F3" stroke="#838383" width="48.7" height="48.7"/>
	<path fill="#F3F3F3" stroke="#838383" d="M716.3,495.1c-1.8,0-3.2-1.5-3.2-3.2v-11.4c0-1.8,1.5-3.2,3.2-3.2h4.9v17.9H716.3z"/>
	<circle fill="#F3F3F3" stroke="#838383" cx="695.2" cy="474" r="13"/>
	<circle fill="#F3F3F3" stroke="#838383" cx="695.2" cy="474" r="9.7"/>
	<circle fill="#F3F3F3" stroke="#838383" cx="713.1" cy="457.7" r="3.2"/>
</g>
<g id="vanna_6_">
	<rect x="444.3" y="452.1" fill="#F3F3F3" stroke="#838383" width="61.7" height="157.5"/>
	<path fill="#F3F3F3" stroke="#838383" d="M484.9,461.9c9,0,16.2,7.3,16.2,16.2v108.8h-51.9V478.1c0-9,7.3-16.2,16.2-16.2H484.9z"/>
	<path fill="#F3F3F3" stroke="#838383" d="M473.5,589.3h-13v5.7h21.9"/>
	<path id="Union_6_" fill="#F3F3F3" stroke="#838383" d="M485.2,596.6c0.7,1.9,2.5,3.2,4.6,3.2c2.7,0,4.9-2.2,4.9-4.9
		c0-2.7-2.2-4.9-4.9-4.9c-2.1,0-3.9,1.4-4.6,3.2h-1.9c-0.9,0-1.6,0.7-1.6,1.6s0.7,1.6,1.6,1.6H485.2z"/>
	<rect x="473.5" y="578.7" fill="#F3F3F3" stroke="#838383" width="3.2" height="13"/>
</g>
<rect x="157.5" y="133.6" fill="#FFFFFF" stroke="#000000" stroke-miterlimit="10" width="6.2" height="149.6"/>
<rect x="157.5" y="133.6" fill="#FFFFFF" stroke="#000000" stroke-miterlimit="10" width="6.2" height="11.1"/>
<rect x="157.5" y="275" fill="#FFFFFF" stroke="#000000" stroke-miterlimit="10" width="6.2" height="8.2"/>
<rect x="157.5" y="192.6" fill="#FFFFFF" stroke="#000000" stroke-miterlimit="10" width="6.2" height="6.2"/>
<rect x="143.8" y="141.4" fill="#FFFFFF" stroke="#000000" stroke-miterlimit="10" width="13.6" height="54.2"/>
<rect x="163.6" y="133.6" fill="#FFFFFF" stroke="#000000" stroke-miterlimit="10" width="14.6" height="62"/>
<rect x="19.1" y="433.3" fill="#FFFFFF" stroke="#000000" stroke-miterlimit="10" width="6.7" height="144.9"/>
<rect x="25.8" y="433.3" fill="#FFFFFF" stroke="#000000" stroke-miterlimit="10" width="14.1" height="144.9"/>
<rect x="6.2" y="438.5" fill="#FFFFFF" stroke="#000000" stroke-miterlimit="10" width="13" height="135.8"/>
<rect x="19.1" y="433.3" fill="#FFFFFF" stroke="#000000" stroke-miterlimit="10" width="6.7" height="10.6"/>
<rect x="19.1" y="501.9" fill="#FFFFFF" stroke="#000000" stroke-miterlimit="10" width="6.7" height="6.7"/>
<rect x="19.1" y="567.9" fill="#FFFFFF" stroke="#000000" stroke-miterlimit="10" width="6.7" height="10.4"/>
<g>
	<rect x="6.6" y="6.4" fill="#FFFFFF" stroke="#000000" stroke-miterlimit="10" width="29.9" height="288"/>
	<rect x="19.1" y="23.2" fill="#FFFFFF" stroke="#000000" stroke-miterlimit="10" width="10.4" height="271.2"/>
	<rect x="22.6" y="23.2" fill="#FFFFFF" stroke="#000000" stroke-miterlimit="10" width="3.7" height="266.5"/>
</g>
<line fill="#FFFFFF" stroke="#000000" stroke-miterlimit="10" x1="747.7" y1="330.3" x2="796.2" y2="408.7"/>
<line fill="#FFFFFF" stroke="#000000" stroke-miterlimit="10" x1="604.3" y1="437" x2="541.8" y2="403"/>
<line fill="#FFFFFF" stroke="#000000" stroke-miterlimit="10" x1="418.3" y1="340.6" x2="376.1" y2="412.5"/>
<line fill="#FFFFFF" stroke="#000000" stroke-miterlimit="10" x1="163.6" y1="275" x2="200.8" y2="208.4"/>
<rect x="143.8" y="6.4" fill="#838383" stroke="#000000" stroke-miterlimit="10" width="13.6" height="135"/>
<rect x="16.3" y="6.4" fill="#838383" stroke="#000000" stroke-miterlimit="10" width="127.5" height="17.8"/>
<rect x="157.5" y="6.4" fill="#838383" stroke="#000000" stroke-miterlimit="10" width="573.8" height="22.1"/>
<rect x="157.5" y="28.5" fill="#838383" stroke="#000000" stroke-miterlimit="10" width="20.8" height="105.1"/>
<rect x="157.5" y="283.2" fill="#838383" stroke="#000000" stroke-miterlimit="10" width="20.8" height="26.3"/>
<rect x="143.8" y="279.3" fill="#838383" stroke="#000000" stroke-miterlimit="10" width="13.6" height="30.2"/>
<rect x="6.2" y="294.4" fill="#838383" stroke="#000000" stroke-miterlimit="10" width="13" height="144.1"/>
<rect x="19.1" y="329.9" fill="#838383" stroke="#000000" stroke-miterlimit="10" width="20.8" height="103.4"/>
<rect x="19.1" y="309.5" fill="#838383" stroke="#000000" stroke-miterlimit="10" width="159.1" height="20.4"/>
<rect x="19.1" y="294.4" fill="#838383" stroke="#000000" stroke-miterlimit="10" width="124.7" height="15.1"/>
<rect x="6.2" y="574.4" fill="#838383" stroke="#000000" stroke-miterlimit="10" width="13" height="58"/>
<rect x="19.1" y="578.2" fill="#838383" stroke="#000000" stroke-miterlimit="10" width="20.8" height="33.3"/>
<rect x="19.1" y="611.6" fill="#838383" stroke="#000000" stroke-miterlimit="10" width="728.6" height="20.8"/>
<rect x="731.3" y="6.4" fill="#838383" stroke="#000000" stroke-miterlimit="10" width="16.4" height="323.9"/>
<rect x="731.3" y="422.9" fill="#838383" stroke="#000000" stroke-miterlimit="10" width="16.4" height="188.6"/>
<rect x="418" y="318.9" fill="#C6C6C6" stroke="#000000" stroke-miterlimit="10" width="11" height="21.7"/>
<rect x="178.2" y="318.9" fill="#C6C6C6" stroke="#000000" stroke-miterlimit="10" width="239.8" height="11"/>
<rect x="418" y="422.9" fill="#C6C6C6" stroke="#000000" stroke-miterlimit="10" width="11" height="188.6"/>
<rect x="722.8" y="422.9" fill="#C6C6C6" stroke="#000000" stroke-miterlimit="10" width="8.5" height="188.6"/>
<rect x="429.1" y="436.2" fill="#C6C6C6" stroke="#000000" stroke-miterlimit="10" width="102.9" height="11"/>
<rect x="604.3" y="436.2" fill="#C6C6C6" stroke="#000000" stroke-miterlimit="10" width="118.5" height="11"/>
<rect x="432" y="447.2" fill="#C6C6C6" stroke="#000000" stroke-miterlimit="10" width="8.5" height="164.3"/>
<rect x="675.7" y="511.1" fill="#C6C6C6" stroke="#000000" stroke-miterlimit="10" width="47.1" height="8.5"/>
<rect x="675.7" y="519.6" fill="#C6C6C6" stroke="#000000" stroke-miterlimit="10" width="8.5" height="64.7"/>
<rect x="675.7" y="584.3" fill="#C6C6C6" stroke="#000000" stroke-miterlimit="10" width="3.6" height="27.3"/>
<rect x="619.2" y="222.8" fill="#C6C6C6" stroke="#000000" stroke-miterlimit="10" width="112.1" height="8.5"/>
<rect x="722.8" y="271.5" fill="#C6C6C6" stroke="#000000" stroke-miterlimit="10" width="8.5" height="58.8"/>
<rect x="619.2" y="231.3" fill="#C6C6C6" stroke="#000000" stroke-miterlimit="10" width="8.5" height="47.7"/>
<rect x="627.6" y="270.5" fill="#C6C6C6" stroke="#000000" stroke-miterlimit="10" width="69.8" height="8.5"/>
<rect x="697.4" y="275.2" fill="#C6C6C6" stroke="#000000" stroke-miterlimit="10" width="25.4" height="3.7"/>
<g>
	<path d="M457.3,161.1h-3.7v7.4h-1.7v-16.2h1.7v7.3h3.7l5.5-7.3h1.8l-6,7.9l6.4,8.3h-2L457.3,161.1z"/>
	<path d="M477.5,156.4l-6.1,13.6c-0.5,1.1-1.1,1.9-1.7,2.4c-0.6,0.5-1.4,0.7-2.3,0.7c-0.6,0-1.1-0.1-1.6-0.3
		c-0.5-0.2-0.9-0.5-1.3-0.8l0.8-1.2c0.6,0.6,1.4,0.9,2.2,0.9c0.6,0,1-0.2,1.4-0.5c0.4-0.3,0.8-0.8,1.1-1.6l0.5-1.2l-5.4-12.1h1.7
		l4.6,10.3l4.6-10.3H477.5z"/>
	<path d="M487,168.5l-3.9-5.1l-3.9,5.1h-1.8l4.8-6.2l-4.6-5.9h1.8l3.7,4.8l3.7-4.8h1.8l-4.6,5.9l4.9,6.2H487z"/>
	<path d="M491.5,156.4h1.6v5.4h7.7v-5.4h1.6v12.2h-1.6v-5.4h-7.7v5.4h-1.6V156.4z"/>
	<path d="M516.5,156.4v12.2H515v-4h-3.8h-0.5l-2.8,4h-1.8l3-4.3c-0.9-0.3-1.7-0.7-2.2-1.3c-0.5-0.6-0.8-1.4-0.8-2.4
		c0-1.4,0.5-2.4,1.4-3.1s2.2-1.1,3.8-1.1H516.5z M511.3,163.3h3.7v-5.5h-3.6c-2.4,0-3.6,0.9-3.6,2.8
		C507.9,162.4,509,163.3,511.3,163.3z"/>
	<path d="M520.2,161.5h6.1v1.4h-6.1V161.5z"/>
	<path d="M453.4,195.6c-0.9-0.5-1.7-1.3-2.2-2.2s-0.8-2-0.8-3.2c0-1.2,0.3-2.2,0.8-3.2c0.5-0.9,1.3-1.7,2.2-2.2
		c0.9-0.5,2-0.8,3.2-0.8c1,0,2,0.2,2.8,0.6c0.8,0.4,1.5,1,2,1.8l-1.2,0.8c-0.4-0.6-0.9-1.1-1.5-1.4c-0.6-0.3-1.3-0.5-2-0.5
		c-0.9,0-1.7,0.2-2.4,0.6s-1.2,1-1.6,1.7c-0.4,0.7-0.6,1.5-0.6,2.5c0,0.9,0.2,1.8,0.6,2.5c0.4,0.7,0.9,1.3,1.6,1.7s1.5,0.6,2.4,0.6
		c0.7,0,1.4-0.1,2-0.4c0.6-0.3,1.1-0.7,1.5-1.3l1.2,0.8c-0.5,0.8-1.1,1.4-2,1.8c-0.8,0.4-1.8,0.6-2.8,0.6
		C455.4,196.4,454.3,196.1,453.4,195.6z"/>
	<path d="M472.9,185.5h-4.6v10.7h-1.6v-10.7H462v-1.5h10.8V185.5z"/>
	<path d="M476.5,195.6c-0.9-0.5-1.7-1.3-2.2-2.2c-0.5-0.9-0.8-2-0.8-3.2c0-1.2,0.3-2.2,0.8-3.2c0.5-0.9,1.3-1.7,2.2-2.2
		c0.9-0.5,2-0.8,3.2-0.8c1.2,0,2.2,0.3,3.2,0.8c0.9,0.5,1.7,1.3,2.2,2.2c0.5,0.9,0.8,2,0.8,3.2c0,1.2-0.3,2.3-0.8,3.2
		c-0.5,0.9-1.3,1.7-2.2,2.2c-0.9,0.5-2,0.8-3.2,0.8C478.5,196.4,477.5,196.1,476.5,195.6z M482,194.3c0.7-0.4,1.2-1,1.6-1.7
		c0.4-0.7,0.6-1.5,0.6-2.5s-0.2-1.7-0.6-2.5c-0.4-0.7-0.9-1.3-1.6-1.7s-1.5-0.6-2.3-0.6c-0.9,0-1.6,0.2-2.3,0.6
		c-0.7,0.4-1.2,1-1.6,1.7c-0.4,0.7-0.6,1.5-0.6,2.5s0.2,1.7,0.6,2.5c0.4,0.7,0.9,1.3,1.6,1.7c0.7,0.4,1.5,0.6,2.3,0.6
		C480.6,194.9,481.3,194.7,482,194.3z"/>
	<path d="M499.3,184.1v12.2h-1.6v-10.7h-5.8l-0.2,3c-0.1,2.5-0.4,4.5-0.9,5.8c-0.5,1.4-1.3,2-2.5,2c-0.3,0-0.7-0.1-1.2-0.2l0.1-1.4
		c0.3,0.1,0.5,0.1,0.6,0.1c0.6,0,1.1-0.3,1.4-0.9c0.3-0.6,0.5-1.3,0.6-2.2c0.1-0.9,0.2-2,0.3-3.4l0.2-4.3H499.3z"/>
	<path d="M505.8,195.6c-0.9-0.5-1.7-1.3-2.2-2.2s-0.8-2-0.8-3.2c0-1.2,0.3-2.2,0.8-3.2c0.5-0.9,1.3-1.7,2.2-2.2
		c0.9-0.5,2-0.8,3.2-0.8s2.2,0.3,3.2,0.8c0.9,0.5,1.7,1.3,2.2,2.2c0.5,0.9,0.8,2,0.8,3.2c0,1.2-0.3,2.3-0.8,3.2
		c-0.5,0.9-1.3,1.7-2.2,2.2c-0.9,0.5-2,0.8-3.2,0.8S506.7,196.1,505.8,195.6z M511.3,194.3c0.7-0.4,1.2-1,1.6-1.7
		c0.4-0.7,0.6-1.5,0.6-2.5s-0.2-1.7-0.6-2.5c-0.4-0.7-0.9-1.3-1.6-1.7s-1.5-0.6-2.3-0.6s-1.6,0.2-2.3,0.6s-1.2,1-1.6,1.7
		c-0.4,0.7-0.6,1.5-0.6,2.5s0.2,1.7,0.6,2.5c0.4,0.7,0.9,1.3,1.6,1.7s1.5,0.6,2.3,0.6S510.6,194.7,511.3,194.3z"/>
	<path d="M528.9,192.9c0,1.1-0.4,1.9-1.2,2.4c-0.8,0.6-2,0.9-3.5,0.9h-5.5v-12.2h5.4c1.4,0,2.5,0.3,3.3,0.8c0.8,0.5,1.2,1.3,1.2,2.3
		c0,0.7-0.2,1.2-0.5,1.7c-0.4,0.5-0.9,0.8-1.5,1.1C528,190.3,528.9,191.3,528.9,192.9z M520.2,189.5h3.7c0.9,0,1.7-0.2,2.2-0.5
		c0.5-0.4,0.8-0.9,0.8-1.5s-0.3-1.2-0.8-1.5c-0.5-0.3-1.2-0.5-2.2-0.5h-3.7V189.5z M526.4,194.4c0.5-0.3,0.8-0.9,0.8-1.6
		c0-0.7-0.2-1.3-0.7-1.6c-0.5-0.3-1.2-0.5-2.3-0.5h-4v4.2h3.9C525.1,195,525.9,194.8,526.4,194.4z"/>
	<path d="M540.5,185.2c0.8,0.8,1.3,2,1.3,3.5v7.5h-1.6v-1.9c-0.4,0.6-0.9,1.1-1.6,1.5c-0.7,0.4-1.6,0.5-2.6,0.5
		c-1.4,0-2.4-0.3-3.2-1c-0.8-0.6-1.2-1.5-1.2-2.6c0-1,0.4-1.9,1.1-2.5c0.7-0.6,1.9-0.9,3.6-0.9h3.9v-0.7c0-1-0.3-1.8-0.9-2.4
		c-0.6-0.5-1.4-0.8-2.6-0.8c-0.8,0-1.5,0.1-2.2,0.4c-0.7,0.3-1.3,0.6-1.8,1.1l-0.7-1.2c0.6-0.5,1.4-0.9,2.2-1.2
		c0.9-0.3,1.8-0.4,2.7-0.4C538.5,184,539.7,184.4,540.5,185.2z M538.7,194.4c0.7-0.4,1.2-1,1.5-1.8v-2h-3.8c-2.1,0-3.1,0.7-3.1,2.2
		c0,0.7,0.3,1.3,0.8,1.7c0.5,0.4,1.3,0.6,2.3,0.6C537.2,195.1,538,194.9,538.7,194.4z"/>
	<path d="M555.5,184.1v12.2H554v-4h-3.8h-0.5l-2.8,4h-1.8l3-4.3c-0.9-0.3-1.7-0.7-2.2-1.3c-0.5-0.6-0.8-1.4-0.8-2.4
		c0-1.4,0.5-2.4,1.4-3.1c0.9-0.7,2.2-1.1,3.8-1.1H555.5z M550.3,191h3.7v-5.5h-3.6c-2.4,0-3.6,0.9-3.6,2.8
		C546.9,190.1,548,191,550.3,191z"/>
	<path d="M456.9,210.7v20.2H454v-17.7h-4.6v-2.5H456.9z"/>
	<path d="M476,210.7v2l-8.2,18.3h-3.1l8-17.7h-9.2v3.6h-2.8v-6.1H476z"/>
	<path d="M480.3,227.7c0.4,0.4,0.5,0.8,0.5,1.4c0,0.3,0,0.6-0.1,0.8c-0.1,0.3-0.2,0.7-0.4,1.2l-1.4,4h-1.8l1.1-4.3
		c-0.4-0.1-0.7-0.4-0.9-0.7s-0.3-0.7-0.3-1.1c0-0.6,0.2-1,0.5-1.4s0.8-0.5,1.4-0.5C479.5,227.1,480,227.3,480.3,227.7z"/>
	<path d="M498,210.7v2l-8.2,18.3h-3.1l8-17.7h-9.2v3.6h-2.8v-6.1H498z"/>
</g>
<g>
	<path d="M69.8,375.7c-1.3-0.7-2.3-1.7-3-2.9c-0.7-1.3-1.1-2.7-1.1-4.2s0.4-3,1.1-4.2s1.7-2.2,3-2.9c1.3-0.7,2.7-1.1,4.3-1.1
		c1.2,0,2.3,0.2,3.3,0.6c1,0.4,1.9,1,2.6,1.8l-1.1,1.1c-1.3-1.3-2.9-1.9-4.8-1.9c-1.3,0-2.4,0.3-3.5,0.9c-1,0.6-1.9,1.4-2.5,2.4
		c-0.6,1-0.9,2.2-0.9,3.4s0.3,2.4,0.9,3.4c0.6,1,1.4,1.8,2.5,2.4c1,0.6,2.2,0.9,3.5,0.9c1.9,0,3.5-0.6,4.8-1.9l1.1,1.1
		c-0.7,0.8-1.6,1.4-2.6,1.8c-1,0.4-2.1,0.6-3.3,0.6C72.6,376.7,71.1,376.4,69.8,375.7z"/>
	<path d="M94.2,364.4v12.2h-1.6v-10.7h-7.6v10.7h-1.6v-12.2H94.2z"/>
	<path d="M106.7,365.5c0.8,0.8,1.3,2,1.3,3.5v7.5h-1.6v-1.9c-0.4,0.6-0.9,1.1-1.6,1.5c-0.7,0.4-1.6,0.5-2.6,0.5
		c-1.4,0-2.4-0.3-3.2-1c-0.8-0.6-1.2-1.5-1.2-2.6c0-1,0.4-1.9,1.1-2.5s1.9-0.9,3.6-0.9h3.9V369c0-1-0.3-1.8-0.9-2.4
		c-0.6-0.5-1.4-0.8-2.6-0.8c-0.8,0-1.5,0.1-2.2,0.4c-0.7,0.3-1.3,0.6-1.8,1.1l-0.7-1.2c0.6-0.5,1.4-0.9,2.2-1.2
		c0.9-0.3,1.8-0.4,2.7-0.4C104.6,364.3,105.8,364.7,106.7,365.5z M104.8,374.8c0.7-0.4,1.2-1,1.5-1.8v-2h-3.8
		c-2.1,0-3.1,0.7-3.1,2.2c0,0.7,0.3,1.3,0.8,1.7c0.5,0.4,1.3,0.6,2.3,0.6C103.4,375.4,104.2,375.2,104.8,374.8z"/>
	<path d="M122.3,364.4v12.2h-1.6v-10.7h-5.8l-0.2,3c-0.1,2.5-0.4,4.5-0.9,5.8s-1.3,2-2.5,2c-0.3,0-0.7-0.1-1.2-0.2l0.1-1.4
		c0.3,0.1,0.5,0.1,0.6,0.1c0.6,0,1.1-0.3,1.4-0.9s0.5-1.3,0.6-2.2s0.2-2,0.3-3.4l0.2-4.3H122.3z"/>
	<path d="M135.6,369.7c0.8,0.7,1.2,1.6,1.2,2.9c0,1.3-0.4,2.3-1.3,3c-0.9,0.7-2.1,1-3.7,1l-4.9,0v-12.2h1.6v4.3l3.6,0
		C133.7,368.7,134.8,369.1,135.6,369.7z M134.3,374.7c0.6-0.5,0.9-1.2,0.9-2.1c0-0.9-0.3-1.6-0.9-2c-0.6-0.4-1.4-0.7-2.6-0.7l-3.2,0
		v5.4l3.2,0C132.9,375.4,133.7,375.1,134.3,374.7z"/>
	<path d="M139.9,364.4h1.6v5.4h7.7v-5.4h1.6v12.2h-1.6v-5.4h-7.7v5.4h-1.6V364.4z"/>
	<path d="M164.9,364.4v12.2h-1.5v-4h-3.8h-0.5l-2.8,4h-1.8l3-4.3c-0.9-0.3-1.7-0.7-2.2-1.3c-0.5-0.6-0.8-1.4-0.8-2.4
		c0-1.4,0.5-2.4,1.4-3.1c0.9-0.7,2.2-1.1,3.8-1.1H164.9z M159.7,371.3h3.7v-5.5h-3.6c-2.4,0-3.6,0.9-3.6,2.8
		C156.3,370.4,157.4,371.3,159.7,371.3z"/>
	<path d="M72,391v20.2h-2.9v-17.7h-4.6V391H72z"/>
	<path d="M82.7,391v20.2h-2.9v-17.7h-4.6V391H82.7z"/>
	<path d="M90.4,408c0.4,0.4,0.5,0.8,0.5,1.4c0,0.3,0,0.6-0.1,0.8c-0.1,0.3-0.2,0.7-0.4,1.2l-1.4,4h-1.8l1.1-4.3
		c-0.4-0.1-0.7-0.4-0.9-0.7c-0.2-0.3-0.3-0.7-0.3-1.1c0-0.6,0.2-1,0.5-1.4c0.4-0.4,0.8-0.5,1.4-0.5C89.6,407.5,90.1,407.7,90.4,408z
		"/>
	<path d="M105.9,400.7c1.4,1.1,2,2.6,2,4.5c0,1.2-0.3,2.3-0.9,3.2c-0.6,1-1.4,1.7-2.6,2.3c-1.1,0.5-2.6,0.8-4.2,0.8
		c-1.4,0-2.8-0.2-4.1-0.7s-2.4-1-3.3-1.8l1.3-2.3c0.7,0.7,1.6,1.2,2.7,1.6c1.1,0.4,2.2,0.6,3.4,0.6c1.5,0,2.7-0.3,3.5-1
		c0.8-0.6,1.3-1.5,1.3-2.6c0-1.2-0.5-2.1-1.4-2.8c-0.9-0.6-2.5-0.9-4.7-0.9h-4.6l1.1-10.6h11.4v2.5h-9l-0.5,5.5h2.3
		C102.4,399.1,104.5,399.6,105.9,400.7z"/>
</g>
<g>
	<path d="M96.7,177c1,1,1.6,2.3,1.6,3.9c0,1.2-0.3,2.2-0.9,3.1c-0.6,0.9-1.4,1.7-2.6,2.2c-1.1,0.5-2.5,0.8-4.2,0.8
		c-1.4,0-2.8-0.2-4.2-0.6s-2.4-1-3.3-1.8l1.3-2.3c0.7,0.7,1.6,1.2,2.7,1.6c1.1,0.4,2.2,0.6,3.4,0.6c1.5,0,2.7-0.3,3.5-1
		s1.3-1.5,1.3-2.6s-0.4-2-1.2-2.6c-0.8-0.6-2.1-0.9-3.8-0.9h-1.6v-2l5.1-6.2h-9.7v-2.5h13.3v2l-5.3,6.5
		C94.1,175.4,95.6,176,96.7,177z"/>
	<path d="M104.2,183.7c0.4,0.4,0.5,0.8,0.5,1.4c0,0.3,0,0.6-0.1,0.8c-0.1,0.3-0.2,0.7-0.4,1.2l-1.4,4h-1.8l1.1-4.3
		c-0.4-0.1-0.7-0.4-0.9-0.7c-0.2-0.3-0.3-0.7-0.3-1.1c0-0.6,0.2-1,0.5-1.4c0.4-0.4,0.8-0.5,1.4-0.5
		C103.4,183.1,103.8,183.3,104.2,183.7z"/>
	<path d="M124.8,181.9H121v5h-2.8v-5h-11.2v-2l10.3-13.2h3.1l-9.9,12.8h7.8V175h2.7v4.4h3.8V181.9z"/>
</g>
<g>
	<path d="M575.2,530.1c1.4,1.1,2,2.6,2,4.5c0,1.2-0.3,2.3-0.9,3.2c-0.6,1-1.4,1.7-2.6,2.3c-1.1,0.5-2.6,0.8-4.2,0.8
		c-1.4,0-2.8-0.2-4.1-0.7s-2.4-1-3.3-1.8l1.3-2.3c0.7,0.7,1.6,1.2,2.7,1.6c1.1,0.4,2.2,0.6,3.4,0.6c1.5,0,2.7-0.3,3.5-1
		c0.8-0.6,1.3-1.5,1.3-2.6c0-1.2-0.5-2.1-1.4-2.8c-0.9-0.6-2.5-0.9-4.7-0.9h-4.6l1.1-10.6h11.4v2.5h-9l-0.5,5.5h2.3
		C571.7,528.5,573.9,529,575.2,530.1z"/>
	<path d="M582.9,537.4c0.4,0.4,0.5,0.8,0.5,1.4c0,0.3,0,0.6-0.1,0.8c-0.1,0.3-0.2,0.7-0.4,1.2l-1.4,4h-1.8l1.1-4.3
		c-0.4-0.1-0.7-0.4-0.9-0.7c-0.2-0.3-0.3-0.7-0.3-1.1c0-0.6,0.2-1,0.5-1.4c0.4-0.4,0.8-0.5,1.4-0.5
		C582.1,536.8,582.6,537,582.9,537.4z"/>
	<path d="M589.9,539.6c-1.2-0.8-2.2-2-2.9-3.6c-0.7-1.6-1.1-3.4-1.1-5.5c0-2.1,0.4-4,1.1-5.5c0.7-1.6,1.7-2.7,2.9-3.6
		c1.2-0.8,2.7-1.2,4.3-1.2c1.6,0,3,0.4,4.2,1.2c1.2,0.8,2.2,2,2.9,3.6s1.1,3.4,1.1,5.5c0,2.1-0.4,4-1.1,5.5
		c-0.7,1.6-1.7,2.8-2.9,3.6c-1.2,0.8-2.7,1.2-4.2,1.2C592.5,540.9,591.1,540.4,589.9,539.6z M598,536.3c1-1.3,1.5-3.3,1.5-5.8
		s-0.5-4.5-1.5-5.8s-2.3-2-3.9-2c-1.6,0-2.9,0.7-3.9,2s-1.5,3.3-1.5,5.8s0.5,4.4,1.5,5.8s2.3,2,3.9,2
		C595.7,538.3,597,537.6,598,536.3z"/>
</g>
<g>
	<path d="M645.5,375.5h-3.8v5h-2.8v-5h-11.2v-2l10.3-13.2h3.1l-9.9,12.8h7.8v-4.4h2.7v4.4h3.8V375.5z"/>
	<path d="M651.1,377.3c0.4,0.4,0.5,0.8,0.5,1.4c0,0.3,0,0.6-0.1,0.8c-0.1,0.3-0.2,0.7-0.4,1.2l-1.4,4H648l1.1-4.3
		c-0.4-0.1-0.7-0.4-0.9-0.7c-0.2-0.3-0.3-0.7-0.3-1.1c0-0.6,0.2-1,0.5-1.4c0.4-0.4,0.8-0.5,1.4-0.5
		C650.3,376.7,650.8,376.9,651.1,377.3z"/>
	<path d="M671.7,375.5h-3.8v5h-2.8v-5h-11.2v-2l10.3-13.2h3.1l-9.9,12.8h7.8v-4.4h2.7v4.4h3.8V375.5z"/>
</g>
<g>
	<g>
		
			<rect x="109.1" y="448.3" transform="matrix(6.123234e-17 -1 1 6.123234e-17 -318.8888 718.673)" fill-rule="evenodd" clip-rule="evenodd" fill="#F1F2F2" stroke="#848484" stroke-miterlimit="10" width="181.7" height="141"/>
		
			<rect x="115.3" y="450.4" transform="matrix(6.123234e-17 -1 1 6.123234e-17 -317.733 717.6652)" fill-rule="evenodd" clip-rule="evenodd" fill="#F1F2F2" stroke="#848484" stroke-miterlimit="10" width="169.3" height="134.5"/>
		
			<rect x="143.7" y="552.8" transform="matrix(2.141122e-13 -1 1 2.141122e-13 -416.0716 741.7057)" fill-rule="evenodd" clip-rule="evenodd" fill="#F1F2F2" stroke="#848484" stroke-miterlimit="10" width="38.2" height="52.3"/>
		
			<rect x="217.6" y="552.8" transform="matrix(6.123234e-17 -1 1 6.123234e-17 -342.1623 815.6152)" fill-rule="evenodd" clip-rule="evenodd" fill="#F1F2F2" stroke="#848484" stroke-miterlimit="10" width="38.2" height="52.3"/>
		<polygon fill-rule="evenodd" clip-rule="evenodd" fill="#F1F2F2" stroke="#848484" stroke-miterlimit="10" points="132.7,540.3 
			172.8,563.7 227.1,563.7 172.8,563.7 227.1,563.7 267.2,540.3 267.2,433 267.1,433 132.7,433 		"/>
		<polyline fill-rule="evenodd" clip-rule="evenodd" fill="#F1F2F2" stroke="#848484" stroke-miterlimit="10" points="132.7,540.3 
			160.9,523.2 172.8,563.7 		"/>
		
			<line fill-rule="evenodd" clip-rule="evenodd" fill="#F1F2F2" stroke="#848484" stroke-miterlimit="10" x1="172.8" y1="563.7" x2="132.7" y2="540.3"/>
		<polyline fill-rule="evenodd" clip-rule="evenodd" fill="#F1F2F2" stroke="#848484" stroke-miterlimit="10" points="267.2,540.3 
			239.1,523.2 227.1,563.7 		"/>
		
			<line fill-rule="evenodd" clip-rule="evenodd" fill="#F1F2F2" stroke="#848484" stroke-miterlimit="10" x1="227.1" y1="563.7" x2="267.2" y2="540.3"/>
	</g>
	<g>
		<rect x="273" y="573.6" fill="#F1F2F2" stroke="#848484" stroke-miterlimit="10" width="49.6" height="36.1"/>
		<rect x="287.2" y="571.2" fill="#F1F2F2" stroke="#848484" stroke-miterlimit="10" width="20.8" height="2.3"/>
	</g>
	<g>
		<rect x="77" y="573.6" fill="#F1F2F2" stroke="#848484" stroke-miterlimit="10" width="49.6" height="36.1"/>
		<rect x="91.2" y="571.2" fill="#F1F2F2" stroke="#848484" stroke-miterlimit="10" width="20.8" height="2.3"/>
	</g>
</g>
<g>
	
		<rect x="313.8" y="507.5" transform="matrix(-4.489316e-11 1 -1 -4.489316e-11 923.0665 144.2178)" fill-rule="evenodd" clip-rule="evenodd" fill="#F1F2F2" stroke="#848484" stroke-miterlimit="10" width="151.3" height="52.2"/>
	<line fill="#F1F2F2" stroke="#848484" stroke-miterlimit="10" x1="363.3" y1="463.5" x2="415.6" y2="463.5"/>
	<line fill="#F1F2F2" stroke="#848484" stroke-miterlimit="10" x1="363.3" y1="603.7" x2="415.5" y2="603.7"/>
	<line fill="#F1F2F2" stroke="#848484" stroke-miterlimit="10" x1="413.1" y1="463.5" x2="413.1" y2="603.7"/>
	<line fill="#F1F2F2" stroke="#848484" stroke-miterlimit="10" x1="389" y1="598.8" x2="389" y2="468.3"/>
	
		<rect x="387.7" y="459.2" transform="matrix(0.162 0.9868 -0.9868 0.162 795.0984 13.9757)" fill="#F1F2F2" stroke="#848484" stroke-miterlimit="10" width="3.3" height="31.9"/>
	
		<rect x="387.7" y="470.9" transform="matrix(8.815246e-02 0.9961 -0.9961 8.815246e-02 839.9376 56.1108)" fill="#F1F2F2" stroke="#848484" stroke-miterlimit="10" width="3.3" height="31.9"/>
	
		<rect x="387.4" y="482.8" transform="matrix(0.229 0.9734 -0.9734 0.229 785.4052 5.7876)" fill="#F1F2F2" stroke="#848484" stroke-miterlimit="10" width="3.3" height="31.9"/>
	
		<rect x="387.8" y="496" transform="matrix(0.152 0.9884 -0.9884 0.152 836.1933 49.2323)" fill="#F1F2F2" stroke="#848484" stroke-miterlimit="10" width="3.3" height="31.9"/>
	
		<rect x="387.6" y="507.6" transform="matrix(4.511170e-02 0.999 -0.999 4.511170e-02 894.6332 111.0519)" fill="#F1F2F2" stroke="#848484" stroke-miterlimit="10" width="3.3" height="31.9"/>
	
		<rect x="387.6" y="519.3" transform="matrix(0.152 0.9884 -0.9884 0.152 859.0185 69.1195)" fill="#F1F2F2" stroke="#848484" stroke-miterlimit="10" width="3.3" height="31.9"/>
	
		<rect x="387.4" y="531.1" transform="matrix(4.511170e-02 0.999 -0.999 4.511170e-02 918.0088 133.7353)" fill="#F1F2F2" stroke="#848484" stroke-miterlimit="10" width="3.3" height="31.9"/>
	
		<rect x="387.4" y="542.8" transform="matrix(0.2052 0.9787 -0.9787 0.2052 856.0549 63.3096)" fill="#F1F2F2" stroke="#848484" stroke-miterlimit="10" width="3.3" height="31.9"/>
	
		<rect x="387.4" y="554.4" transform="matrix(0.152 0.9884 -0.9884 0.152 893.649 99.0779)" fill="#F1F2F2" stroke="#848484" stroke-miterlimit="10" width="3.3" height="31.9"/>
	
		<rect x="387.4" y="566.1" transform="matrix(8.473843e-02 0.9964 -0.9964 8.473843e-02 935.9859 145.0303)" fill="#F1F2F2" stroke="#848484" stroke-miterlimit="10" width="3.3" height="31.9"/>
	
		<rect x="387.8" y="577.7" transform="matrix(0.2379 0.9713 -0.9713 0.2379 873.3765 74.1467)" fill="#F1F2F2" stroke="#848484" stroke-miterlimit="10" width="3.3" height="31.9"/>
</g>
<g>
	<g>
		
			<rect x="202.4" y="341.8" fill-rule="evenodd" clip-rule="evenodd" fill="#F1F2F2" stroke="#848484" stroke-miterlimit="10" width="102.4" height="5.2"/>
		<polygon fill-rule="evenodd" clip-rule="evenodd" fill="#F1F2F2" stroke="#848484" stroke-miterlimit="10" points="296.1,341.8 
			279.6,337.8 227.6,337.8 211.1,341.8 		"/>
		
			<rect x="251.4" y="326.8" transform="matrix(5.139095e-11 -1 1 5.139095e-11 -81.9107 589.1259)" fill-rule="evenodd" clip-rule="evenodd" fill="#F1F2F2" stroke="#848484" stroke-miterlimit="10" width="4.5" height="17.5"/>
	</g>
</g>
<g>
	
		<rect x="476.1" y="28.5" fill-rule="evenodd" clip-rule="evenodd" fill="#F1F2F2" stroke="#848484" stroke-miterlimit="10" width="48.2" height="3.4"/>
	
		<rect x="476.1" y="28.5" fill-rule="evenodd" clip-rule="evenodd" fill="#F1F2F2" stroke="#848484" stroke-miterlimit="10" width="48.2" height="3.4"/>
	
		<rect x="508.9" y="82.4" fill-rule="evenodd" clip-rule="evenodd" fill="#F1F2F2" stroke="#848484" stroke-miterlimit="10" width="15.8" height="4.7"/>
	
		<rect x="508.9" y="82.4" fill-rule="evenodd" clip-rule="evenodd" fill="#F1F2F2" stroke="#848484" stroke-miterlimit="10" width="15.8" height="4.7"/>
	
		<rect x="473.9" y="31.5" fill-rule="evenodd" clip-rule="evenodd" fill="#F1F2F2" stroke="#848484" stroke-miterlimit="10" width="52.9" height="52.8"/>
	
		<rect x="473.9" y="31.5" fill-rule="evenodd" clip-rule="evenodd" fill="#F1F2F2" stroke="#848484" stroke-miterlimit="10" width="52.9" height="52.8"/>
	<path fill-rule="evenodd" clip-rule="evenodd" fill="#F1F2F2" stroke="#848484" stroke-miterlimit="10" d="M473.9,79.6l52.9,0
		L473.9,79.6z"/>
	<path fill-rule="evenodd" clip-rule="evenodd" fill="#F1F2F2" stroke="#848484" stroke-miterlimit="10" d="M471.4,79.4
		c0-1,0.9-2.1,2.1-2.1c1.3,0,2.1,1,2.1,2.1c0,1.3-0.9,2.3-2.1,2.3C472.3,81.7,471.4,80.7,471.4,79.4z"/>
	<path fill-rule="evenodd" clip-rule="evenodd" fill="#F1F2F2" stroke="#848484" stroke-miterlimit="10" d="M471.4,79.4
		c0-1,0.9-2.1,2.1-2.1c1.3,0,2.1,1,2.1,2.1c0,1.3-0.9,2.3-2.1,2.3C472.3,81.7,471.4,80.7,471.4,79.4z"/>
	<path fill-rule="evenodd" clip-rule="evenodd" fill="#F1F2F2" stroke="#848484" stroke-miterlimit="10" d="M500.6,52.4v9.3V52.4z"
		/>
	<path fill-rule="evenodd" clip-rule="evenodd" fill="#F1F2F2" stroke="#848484" stroke-miterlimit="10" d="M496.1,56.9l9.3,0
		L496.1,56.9z"/>
	<path fill-rule="evenodd" clip-rule="evenodd" fill="#F1F2F2" stroke="#848484" stroke-miterlimit="10" d="M497.4,60.4l6.8-6.8
		L497.4,60.4z"/>
	<path fill-rule="evenodd" clip-rule="evenodd" fill="#F1F2F2" stroke="#848484" stroke-miterlimit="10" d="M504,60.4l-6.8-6.8
		L504,60.4z"/>
	<path fill-rule="evenodd" clip-rule="evenodd" fill="#F1F2F2" stroke="#848484" stroke-miterlimit="10" d="M486.9,52.1v9.3V52.1z"
		/>
	<path fill-rule="evenodd" clip-rule="evenodd" fill="#F1F2F2" stroke="#848484" stroke-miterlimit="10" d="M482.3,56.6l9.3,0
		L482.3,56.6z"/>
	<path fill-rule="evenodd" clip-rule="evenodd" fill="#F1F2F2" stroke="#848484" stroke-miterlimit="10" d="M483.7,60.1l6.8-6.8
		L483.7,60.1z"/>
	<path fill-rule="evenodd" clip-rule="evenodd" fill="#F1F2F2" stroke="#848484" stroke-miterlimit="10" d="M490.4,60.1l-6.8-6.8
		L490.4,60.1z"/>
	<path fill-rule="evenodd" clip-rule="evenodd" fill="#F1F2F2" stroke="#848484" stroke-miterlimit="10" d="M514,52.4v9.3V52.4z"/>
	<path fill-rule="evenodd" clip-rule="evenodd" fill="#F1F2F2" stroke="#848484" stroke-miterlimit="10" d="M509.5,56.9l9.3,0
		L509.5,56.9z"/>
	<path fill-rule="evenodd" clip-rule="evenodd" fill="#F1F2F2" stroke="#848484" stroke-miterlimit="10" d="M510.7,60.4l6.8-6.8
		L510.7,60.4z"/>
	<path fill-rule="evenodd" clip-rule="evenodd" fill="#F1F2F2" stroke="#848484" stroke-miterlimit="10" d="M517.4,60.4l-6.8-6.8
		L517.4,60.4z"/>
</g>
<g>
	<path fill-rule="evenodd" clip-rule="evenodd" fill="#F1F2F2" stroke="#848484" stroke-miterlimit="10" d="M179.4,143.8V84.3V36.5
		c0-3.2,2.6-5.8,5.8-5.8h47.9H378c3.2,0,5.8,2.6,5.8,5.8v47.8c0,3.2-2.6,5.8-5.8,5.8H244.7c-3.2,0-5.8,2.6-5.8,5.8v47.9
		c0,3.2-2.6,5.8-5.8,5.8h-47.9C182,149.5,179.4,146.9,179.4,143.8z"/>
	<g>
		<path fill-rule="evenodd" clip-rule="evenodd" fill="#F1F2F2" stroke="#848484" stroke-miterlimit="10" d="M238.9,80.5
			c0,6.8-0.3,9.6-8.9,9.6h-25.5c-8.6,0-8.9-2.9-8.9-9.6V55.1c0-6.8,0.3-9.6,8.9-9.6H230c8.6,0,8.9,2.9,8.9,9.6V80.5z"/>
		<path fill-rule="evenodd" clip-rule="evenodd" fill="#F1F2F2" stroke="#848484" stroke-miterlimit="10" d="M238.9,80.5
			c0,6.8-0.3,9.6-8.9,9.6h-25.5c-8.6,0-8.9-2.9-8.9-9.6V55.1c0-6.8,0.3-9.6,8.9-9.6H230c8.6,0,8.9,2.9,8.9,9.6V80.5z"/>
		<path fill-rule="evenodd" clip-rule="evenodd" fill="#F1F2F2" stroke="#848484" stroke-miterlimit="10" d="M281.9,80.5
			c0,6.8-0.3,9.6-8.9,9.6h-25.5c-8.6,0-8.9-2.9-8.9-9.6V55.1c0-6.8,0.3-9.6,8.9-9.6H273c8.6,0,8.9,2.9,8.9,9.6V80.5z"/>
		<path fill-rule="evenodd" clip-rule="evenodd" fill="#F1F2F2" stroke="#848484" stroke-miterlimit="10" d="M281.9,80.5
			c0,6.8-0.3,9.6-8.9,9.6h-25.5c-8.6,0-8.9-2.9-8.9-9.6V55.1c0-6.8,0.3-9.6,8.9-9.6H273c8.6,0,8.9,2.9,8.9,9.6V80.5z"/>
		<path fill-rule="evenodd" clip-rule="evenodd" fill="#F1F2F2" stroke="#848484" stroke-miterlimit="10" d="M324.9,80.5
			c0,6.8-0.3,9.6-8.9,9.6h-25.6c-8.6,0-8.9-2.9-8.9-9.6V55.1c0-6.8,0.3-9.6,8.9-9.6h25.6c8.6,0,8.9,2.9,8.9,9.6V80.5z"/>
		<path fill-rule="evenodd" clip-rule="evenodd" fill="#F1F2F2" stroke="#848484" stroke-miterlimit="10" d="M324.9,80.5
			c0,6.8-0.3,9.6-8.9,9.6h-25.6c-8.6,0-8.9-2.9-8.9-9.6V55.1c0-6.8,0.3-9.6,8.9-9.6h25.6c8.6,0,8.9,2.9,8.9,9.6V80.5z"/>
		<path fill-rule="evenodd" clip-rule="evenodd" fill="#F1F2F2" stroke="#848484" stroke-miterlimit="10" d="M238.9,125.1
			c0,6.8-0.3,9.6-8.9,9.6h-25.5c-8.6,0-8.9-2.9-8.9-9.6V99.7c0-6.8,0.3-9.6,8.9-9.6H230c8.6,0,8.9,2.9,8.9,9.6V125.1z"/>
		<path fill-rule="evenodd" clip-rule="evenodd" fill="#F1F2F2" stroke="#848484" stroke-miterlimit="10" d="M367.9,80.4
			c0,6.8-0.3,9.6-8.9,9.6h-25.6c-8.6,0-8.9-2.9-8.9-9.6V55c0-6.8,0.3-9.6,8.9-9.6H359c8.6,0,8.9,2.9,8.9,9.6V80.4z"/>
		<path fill-rule="evenodd" clip-rule="evenodd" fill="#F1F2F2" stroke="#848484" stroke-miterlimit="10" d="M179.4,36.8v104v2.5
			c0,3.4,3,6.1,6.6,6.1h2.7h43.5c3.6,0,6.6-2.8,6.6-6.1v-2.5c0-3.4-3-6.1-6.6-6.1h-36.9V45.5h172.5V84c0,3.4,3,6.1,6.6,6.1h2.7
			c3.6,0,6.6-2.8,6.6-6.1V39.4v-2.5c0-3.4-3-6.1-6.6-6.1h-2.7H188.7H186h0C182.4,30.7,179.4,33.5,179.4,36.8z"/>
	</g>
</g>
<g>
	<g>
		<path fill="#F1F2F2" stroke="#848484" stroke-miterlimit="10" d="M305.3,277.8c-8.7,0-15.7,2.6-15.7,5.8c0,3.2,7,5.8,15.7,5.8
			c8.7,0,15.7-2.6,15.7-5.8C321,280.4,313.9,277.8,305.3,277.8z"/>
		<path fill="#F1F2F2" stroke="#848484" stroke-miterlimit="10" d="M305.3,251.6c-8.7,0-15.7,7-15.7,15.7c0,8.7,7,15.7,15.7,15.7
			c8.7,0,15.7-7,15.7-15.7C321,258.6,313.9,251.6,305.3,251.6z"/>
	</g>
	<g>
		<path fill="#F1F2F2" stroke="#848484" stroke-miterlimit="10" d="M352.5,201.8c8.7,0,15.7-2.6,15.7-5.8c0-3.2-7-5.8-15.7-5.8
			s-15.7,2.6-15.7,5.8C336.8,199.2,343.8,201.8,352.5,201.8z"/>
		<path fill="#F1F2F2" stroke="#848484" stroke-miterlimit="10" d="M352.5,228.1c8.7,0,15.7-7,15.7-15.7s-7-15.7-15.7-15.7
			s-15.7,7-15.7,15.7S343.8,228.1,352.5,228.1z"/>
	</g>
	<g>
		<path fill="#F1F2F2" stroke="#848484" stroke-miterlimit="10" d="M305.3,200.5c8.7,0,15.7-2.6,15.7-5.8c0-3.2-7-5.8-15.7-5.8
			c-8.7,0-15.7,2.6-15.7,5.8C289.6,197.9,296.6,200.5,305.3,200.5z"/>
		<path fill="#F1F2F2" stroke="#848484" stroke-miterlimit="10" d="M305.3,226.7c8.7,0,15.7-7,15.7-15.7c0-8.7-7-15.7-15.7-15.7
			c-8.7,0-15.7,7-15.7,15.7C289.6,219.7,296.6,226.7,305.3,226.7z"/>
	</g>
	<g>
		<path fill="#F1F2F2" stroke="#848484" stroke-miterlimit="10" d="M352.5,276c-8.7,0-15.7,2.6-15.7,5.8c0,3.2,7,5.8,15.7,5.8
			c8.7,0,15.7-2.6,15.7-5.8C368.1,278.6,361.1,276,352.5,276z"/>
		<path fill="#F1F2F2" stroke="#848484" stroke-miterlimit="10" d="M352.5,249.8c-8.7,0-15.7,7-15.7,15.7s7,15.7,15.7,15.7
			c8.7,0,15.7-7,15.7-15.7S361.1,249.8,352.5,249.8z"/>
	</g>
	<rect x="274.5" y="207.3" fill="#F1F2F2" stroke="#848484" stroke-miterlimit="10" width="109.5" height="63.2"/>
</g>
<g>
	<g>
		
			<rect x="276.4" y="304.3" fill-rule="evenodd" clip-rule="evenodd" fill="#F1F2F2" stroke="#848484" stroke-miterlimit="10" width="102.4" height="5.2"/>
		<polygon fill-rule="evenodd" clip-rule="evenodd" fill="#F1F2F2" stroke="#848484" stroke-miterlimit="10" points="285,309.4 
			301.5,313.4 353.5,313.4 370,309.4 		"/>
		
			<rect x="325.3" y="306.9" transform="matrix(-5.139108e-11 1 -1 -5.139108e-11 643.1779 -11.833)" fill-rule="evenodd" clip-rule="evenodd" fill="#F1F2F2" stroke="#848484" stroke-miterlimit="10" width="4.5" height="17.5"/>
	</g>
</g>
<g>
</g>
<g>
</g>
<g>
</g>
<g>
</g>
<g>
</g>
<g>
</g>
</svg>
