<?xml version="1.0" encoding="utf-8"?>
<!-- Generator: Adobe Illustrator 23.0.2, SVG Export Plug-In . SVG Version: 6.00 Build 0)  -->
<svg version="1.1" id="Слой_1" xmlns="http://www.w3.org/2000/svg" xmlns:xlink="http://www.w3.org/1999/xlink" x="0px" y="0px"
	 viewBox="0 0 800 592.8" enable-background="new 0 0 800 592.8" xml:space="preserve">
<rect x="442.4" y="519.1" fill="#F3F3F3" stroke="#838383" width="322.3" height="42"/>
<g>
	<rect x="326.9" y="23.6" fill="#F3F3F3" stroke="#000000" stroke-miterlimit="10" width="112" height="12.4"/>
	<rect x="326.9" y="18.1" fill="#F3F3F3" stroke="#000000" stroke-miterlimit="10" width="112" height="5.5"/>
	<rect x="331" y="7" fill="#F3F3F3" stroke="#000000" stroke-miterlimit="10" width="103.4" height="11.1"/>
	<rect x="326.9" y="18.1" fill="#F3F3F3" stroke="#000000" stroke-miterlimit="10" width="5.4" height="5.5"/>
	<rect x="433.6" y="18.1" fill="#F3F3F3" stroke="#000000" stroke-miterlimit="10" width="5.4" height="5.5"/>
	<rect x="380.6" y="18.1" fill="#F3F3F3" stroke="#000000" stroke-miterlimit="10" width="5.4" height="5.5"/>
</g>
<g>
	<rect x="581" y="23.6" fill="#F3F3F3" stroke="#000000" stroke-miterlimit="10" width="112.6" height="12.4"/>
	<rect x="581" y="18.1" fill="#F3F3F3" stroke="#000000" stroke-miterlimit="10" width="112.6" height="5.5"/>
	<rect x="585" y="7" fill="#F3F3F3" stroke="#000000" stroke-miterlimit="10" width="104" height="11.1"/>
	<rect x="581" y="18.1" fill="#F3F3F3" stroke="#000000" stroke-miterlimit="10" width="5.4" height="5.5"/>
	<rect x="688.1" y="18.1" fill="#F3F3F3" stroke="#000000" stroke-miterlimit="10" width="5.4" height="5.5"/>
	<rect x="634.9" y="18.1" fill="#F3F3F3" stroke="#000000" stroke-miterlimit="10" width="5.4" height="5.5"/>
</g>
<g>
	
		<rect x="737.2" y="414.5" transform="matrix(6.123234e-17 -1 1 6.123234e-17 369.1943 1208.5212)" fill="#F3F3F3" stroke="#000000" stroke-miterlimit="10" width="103.4" height="10.4"/>
	
		<rect x="723.6" y="415.8" transform="matrix(6.123234e-17 -1 1 6.123234e-17 360.3853 1199.4734)" fill="#F3F3F3" stroke="#000000" stroke-miterlimit="10" width="112.7" height="7.4"/>
	
		<rect x="714.3" y="414" transform="matrix(6.123234e-17 -1 1 6.123234e-17 351.1076 1190.1958)" fill="#F3F3F3" stroke="#000000" stroke-miterlimit="10" width="112.7" height="11.1"/>
	
		<rect x="777.2" y="469.5" transform="matrix(6.123234e-17 -1 1 6.123234e-17 306.7268 1253.1318)" fill="#F3F3F3" stroke="#000000" stroke-miterlimit="10" width="5.4" height="7.4"/>
	
		<rect x="777.2" y="362.2" transform="matrix(6.123234e-17 -1 1 6.123234e-17 414.0437 1145.8149)" fill="#F3F3F3" stroke="#000000" stroke-miterlimit="10" width="5.4" height="7.4"/>
	
		<rect x="777.2" y="411.5" transform="matrix(6.123234e-17 -1 1 6.123234e-17 364.6827 1195.176)" fill="#F3F3F3" stroke="#000000" stroke-miterlimit="10" width="5.4" height="7.4"/>
</g>
<line fill="#F3F3F3" stroke="#000000" stroke-miterlimit="10" x1="331.4" y1="421.1" x2="281.2" y2="391.6"/>
<line fill="#F3F3F3" stroke="#000000" stroke-miterlimit="10" x1="300.8" y1="334" x2="358.4" y2="302.3"/>
<line fill="#F3F3F3" stroke="#000000" stroke-miterlimit="10" x1="62.6" y1="435.7" x2="124.8" y2="399.3"/>
<g id="moyka_2_5_">
	<path fill="#F3F3F3" stroke="#838383" d="M503.1,525.3c0-1.3-1-2.3-2.3-2.3h-33.1c-1.3,0-2.3,1-2.3,2.3v27.4c0,1.3,1,2.3,2.3,2.3
		h33.1c1.3,0,2.3-1,2.3-2.3V525.3z"/>
	<path fill="#F3F3F3" stroke="#838383" d="M500.8,527.6c0-1.3-1-2.3-2.3-2.3H470c-1.3,0-2.3,1-2.3,2.3V547c0,1.3,1,2.3,2.3,2.3h28.6
		c1.3,0,2.3-1,2.3-2.3V527.6z"/>
	<rect x="483.7" y="542.5" fill="#F3F3F3" stroke="#838383" width="2.3" height="9.1"/>
	<circle fill="#F3F3F3" stroke="#838383" cx="484.3" cy="536.2" r="1.7"/>
</g>
<g id="plita_5_">
	<rect x="572.6" y="519.1" fill="#F3F3F3" stroke="#838383" width="40" height="41.1"/>
	<circle fill="#F3F3F3" stroke="#838383" cx="584" cy="529.4" r="6.9"/>
	<circle fill="#F3F3F3" stroke="#838383" cx="601.2" cy="546.5" r="6.9"/>
	<circle fill="#F3F3F3" stroke="#838383" cx="601.2" cy="529.4" r="5.7"/>
	<circle fill="#F3F3F3" stroke="#838383" cx="584" cy="546.5" r="5.7"/>
</g>
<g id="unitaz_8_">
	<path fill="#F3F3F3" stroke="#838383" d="M363.9,560.6v-9.5c0-1.5-1.2-2.7-2.7-2.7h-24.5c-1.5,0-2.7,1.2-2.7,2.7v9.5H363.9z"/>
	<path fill="#F3F3F3" stroke="#838383" d="M361.2,548.3c1.5,0,2.7-1.2,2.7-2.7h-30c0,1.5,1.2,2.7,2.7,2.7H361.2z"/>
	<path fill="#F3F3F3" stroke="#838383" d="M334,545.6h30c0,0,6.1-35.4-15-35.4C327.8,510.2,334,545.6,334,545.6z"/>
	<circle fill="#F3F3F3" stroke="#838383" cx="349" cy="555.2" r="2.7"/>
</g>
<g id="moyka_8_">
	<path fill="#F3F3F3" stroke="#838383" d="M314.2,560.2c0.8,0,1.5-0.7,1.5-1.5v-29.3c0-0.8-0.7-1.5-1.5-1.5h-44
		c-0.8,0-1.5,0.7-1.5,1.5v29.3c0,0.8,0.7,1.5,1.5,1.5H314.2z"/>
	<rect x="268.7" y="552.8" fill="#F3F3F3" stroke="#838383" width="46.9" height="2.9"/>
	<ellipse fill="#F3F3F3" stroke="#838383" cx="291.4" cy="540.4" rx="15.4" ry="9.5"/>
	<rect x="290.7" y="544" fill="#F3F3F3" stroke="#838383" width="2.9" height="11.7"/>
	<circle fill="#F3F3F3" stroke="#838383" cx="292.9" cy="538.9" r="2.2"/>
</g>
<g id="stirka_5_">
	<rect x="381.6" y="430.1" fill="#F3F3F3" stroke="#838383" width="41.8" height="41.8"/>
	<path fill="#F3F3F3" stroke="#838383" d="M419.2,432.9c-1.5,0-2.8,1.2-2.8,2.8v9.7c0,1.5,1.2,2.8,2.8,2.8h4.2v-15.3H419.2z"/>
	<circle fill="#F3F3F3" stroke="#838383" cx="401.1" cy="451" r="11.1"/>
	<circle fill="#F3F3F3" stroke="#838383" cx="401.1" cy="451" r="8.4"/>
	<circle fill="#F3F3F3" stroke="#838383" cx="416.4" cy="464.9" r="2.8"/>
</g>
<g id="vanna_5_">
	<rect x="178.7" y="434.1" fill="#F3F3F3" stroke="#838383" width="49.1" height="125.5"/>
	<path fill="#F3F3F3" stroke="#838383" d="M195.5,441.9c-7.1,0-12.9,5.8-12.9,12.9v86.7H224v-86.7c0-7.1-5.8-12.9-12.9-12.9H195.5z"
		/>
	<path fill="#F3F3F3" stroke="#838383" d="M204.6,543.4h10.3v4.5h-17.5"/>
	<path id="Union_5_" fill="#F3F3F3" stroke="#838383" d="M195.3,549.2c-0.5,1.5-2,2.6-3.7,2.6c-2.1,0-3.9-1.7-3.9-3.9
		c0-2.1,1.7-3.9,3.9-3.9c1.7,0,3.1,1.1,3.7,2.6h1.5c0.7,0,1.3,0.6,1.3,1.3s-0.6,1.3-1.3,1.3H195.3z"/>
	<rect x="202" y="535" fill="#F3F3F3" stroke="#838383" width="2.6" height="10.3"/>
</g>
<rect x="764.7" y="476.5" fill="#838383" stroke="#000000" stroke-miterlimit="10" width="18" height="106.8"/>
<rect x="782.7" y="472.5" fill="#838383" stroke="#000000" stroke-miterlimit="10" width="10.8" height="110.8"/>
<rect x="169.5" y="561.1" fill="#838383" stroke="#000000" stroke-miterlimit="10" width="595.2" height="22.2"/>
<rect x="782.7" y="7.2" fill="#838383" stroke="#000000" stroke-miterlimit="10" width="10.8" height="360.4"/>
<rect x="764.7" y="18.6" fill="#838383" stroke="#000000" stroke-miterlimit="10" width="18" height="344.6"/>
<rect x="689" y="7.2" fill="#838383" stroke="#000000" stroke-miterlimit="10" width="93.7" height="11.4"/>
<rect x="693.6" y="18.6" fill="#838383" stroke="#000000" stroke-miterlimit="10" width="71.2" height="17.2"/>
<rect x="434.5" y="7.2" fill="#838383" stroke="#000000" stroke-miterlimit="10" width="150.5" height="11.4"/>
<rect x="246.8" y="7.2" fill="#838383" stroke="#000000" stroke-miterlimit="10" width="84.2" height="11.4"/>
<rect x="507.2" y="18.6" fill="#838383" stroke="#000000" stroke-miterlimit="10" width="17.7" height="126.3"/>
<rect x="525" y="18.6" fill="#838383" stroke="#000000" stroke-miterlimit="10" width="56.9" height="17.2"/>
<rect x="438.9" y="18.6" fill="#838383" stroke="#000000" stroke-miterlimit="10" width="68.3" height="17.2"/>
<rect x="264.5" y="18.6" fill="#838383" stroke="#000000" stroke-miterlimit="10" width="62.9" height="17.2"/>
<rect x="246.8" y="18.6" fill="#838383" stroke="#000000" stroke-miterlimit="10" width="17.7" height="126.3"/>
<rect x="4.1" y="324.8" fill="#838383" stroke="#000000" stroke-miterlimit="10" width="17.5" height="96.3"/>
<rect x="4.1" y="421.1" fill="#838383" stroke="#000000" stroke-miterlimit="10" width="36.4" height="36.4"/>
<rect x="237.1" y="421.1" fill="#838383" stroke="#000000" stroke-miterlimit="10" width="36.4" height="36.4"/>
<rect x="493.1" y="421.1" fill="#838383" stroke="#000000" stroke-miterlimit="10" width="36.1" height="36.1"/>
<rect x="155.9" y="435.7" fill="#838383" stroke="#000000" stroke-miterlimit="10" width="13.6" height="147.6"/>
<rect x="41.1" y="435.7" fill="#838383" stroke="#000000" stroke-miterlimit="10" width="21.5" height="21.5"/>
<rect x="135" y="435.7" fill="#838383" stroke="#000000" stroke-miterlimit="10" width="20.9" height="21.9"/>
<rect x="21.6" y="324.8" fill="#838383" stroke="#000000" stroke-miterlimit="10" width="144.1" height="16.6"/>
<rect x="165.6" y="318.6" fill="#838383" stroke="#000000" stroke-miterlimit="10" width="76.3" height="22.8"/>
<rect x="241.9" y="144.9" fill="#838383" stroke="#000000" stroke-miterlimit="10" width="22.6" height="196.5"/>
<rect x="331.4" y="421.1" fill="#C6C6C6" stroke="#000000" stroke-miterlimit="10" width="161.7" height="7.2"/>
<rect x="436.2" y="428.4" fill="#C6C6C6" stroke="#000000" stroke-miterlimit="10" width="6.2" height="132.7"/>
<rect x="425.3" y="428.4" fill="#C6C6C6" stroke="#000000" stroke-miterlimit="10" width="6.2" height="132.7"/>
<rect x="386.1" y="476.2" fill="#C6C6C6" stroke="#000000" stroke-miterlimit="10" width="39.2" height="6.2"/>
<rect x="386.1" y="482.4" fill="#C6C6C6" stroke="#000000" stroke-miterlimit="10" width="6.2" height="57.1"/>
<rect x="169.5" y="421.1" fill="#C6C6C6" stroke="#000000" stroke-miterlimit="10" width="67.5" height="7.2"/>
<rect x="169.5" y="428.4" fill="#C6C6C6" stroke="#000000" stroke-miterlimit="10" width="6.2" height="132.7"/>
<rect x="517.7" y="144.9" fill="#C6C6C6" stroke="#000000" stroke-miterlimit="10" width="7.2" height="196.5"/>
<rect x="366.1" y="334.2" fill="#C6C6C6" stroke="#000000" stroke-miterlimit="10" width="151.7" height="7.2"/>
<rect x="264.5" y="334.2" fill="#C6C6C6" stroke="#000000" stroke-miterlimit="10" width="36.3" height="7.2"/>
<rect x="386.1" y="539.5" fill="#C6C6C6" stroke="#000000" stroke-miterlimit="10" width="3.1" height="21.6"/>
<g>
	<path d="M549.2,76h-2.3v4.7h-1V70.4h1V75h2.3l3.5-4.6h1.2l-3.8,5l4,5.2h-1.2L549.2,76z"/>
	<path d="M562,73l-3.8,8.6c-0.3,0.7-0.7,1.2-1.1,1.5c-0.4,0.3-0.9,0.5-1.5,0.5c-0.4,0-0.7-0.1-1-0.2c-0.3-0.1-0.6-0.3-0.8-0.5
		l0.5-0.8c0.4,0.4,0.9,0.6,1.4,0.6c0.3,0,0.6-0.1,0.9-0.3s0.5-0.5,0.7-1l0.3-0.7l-3.4-7.7h1.1l2.9,6.5L561,73H562z"/>
	<path d="M568,80.6l-2.4-3.2l-2.4,3.2h-1.2l3-3.9L562,73h1.2l2.3,3l2.3-3h1.1l-2.9,3.7l3.1,3.9H568z"/>
	<path d="M570.8,73h1v3.4h4.8V73h1v7.7h-1v-3.4h-4.8v3.4h-1V73z"/>
	<path d="M586.6,73v7.7h-0.9v-2.5h-2.4h-0.3l-1.8,2.5H580l1.9-2.7c-0.6-0.2-1-0.4-1.4-0.8c-0.3-0.4-0.5-0.9-0.5-1.5
		c0-0.9,0.3-1.5,0.9-2c0.6-0.4,1.4-0.7,2.4-0.7H586.6z M583.3,77.3h2.3v-3.4h-2.2c-1.5,0-2.2,0.6-2.2,1.7
		C581.1,76.8,581.8,77.3,583.3,77.3z"/>
	<path d="M588.9,76.2h3.8v0.9h-3.8V76.2z"/>
	<path d="M551,91.4h-4.4v6.7h-1v-7.7h5.4V91.4z"/>
	<path d="M553.3,97.7c-0.6-0.3-1.1-0.8-1.4-1.4c-0.3-0.6-0.5-1.3-0.5-2c0-0.7,0.2-1.4,0.5-2c0.3-0.6,0.8-1.1,1.4-1.4s1.3-0.5,2-0.5
		s1.4,0.2,2,0.5s1.1,0.8,1.4,1.4c0.3,0.6,0.5,1.3,0.5,2c0,0.7-0.2,1.4-0.5,2c-0.3,0.6-0.8,1.1-1.4,1.4c-0.6,0.3-1.3,0.5-2,0.5
		S553.9,98,553.3,97.7z M556.8,96.9c0.4-0.2,0.8-0.6,1-1.1c0.2-0.5,0.4-1,0.4-1.6s-0.1-1.1-0.4-1.6c-0.2-0.5-0.6-0.8-1-1.1
		c-0.4-0.2-0.9-0.4-1.5-0.4s-1,0.1-1.5,0.4c-0.4,0.2-0.8,0.6-1,1.1c-0.2,0.5-0.4,1-0.4,1.6s0.1,1.1,0.4,1.6c0.2,0.5,0.6,0.8,1,1.1
		c0.4,0.2,0.9,0.4,1.5,0.4S556.4,97.2,556.8,96.9z"/>
	<path d="M562.6,97.7c-0.6-0.3-1.1-0.8-1.4-1.4c-0.3-0.6-0.5-1.3-0.5-2c0-0.7,0.2-1.4,0.5-2c0.3-0.6,0.8-1.1,1.4-1.4s1.3-0.5,2-0.5
		c0.7,0,1.3,0.1,1.8,0.4c0.5,0.3,0.9,0.6,1.2,1.1l-0.8,0.5c-0.3-0.4-0.6-0.7-1-0.9s-0.8-0.3-1.3-0.3c-0.6,0-1.1,0.1-1.5,0.4
		c-0.4,0.2-0.8,0.6-1,1.1c-0.2,0.5-0.4,1-0.4,1.6c0,0.6,0.1,1.1,0.4,1.6c0.2,0.5,0.6,0.8,1,1c0.4,0.2,0.9,0.4,1.5,0.4
		c0.5,0,0.9-0.1,1.3-0.3s0.7-0.5,1-0.8l0.8,0.5c-0.3,0.5-0.7,0.9-1.2,1.1c-0.5,0.3-1.1,0.4-1.8,0.4C563.9,98.2,563.2,98,562.6,97.7z
		"/>
	<path d="M574.9,91.4H572v6.7h-1v-6.7h-2.9v-0.9h6.8V91.4z"/>
	<path d="M576.4,90.5h1v6.1l5.1-6.1h0.9v7.7h-1V92l-5.1,6.1h-0.9V90.5z"/>
	<path d="M586.4,90.5h1v3.4h4.8v-3.4h1v7.7h-1v-3.4h-4.8v3.4h-1V90.5z"/>
	<path d="M601.2,91.2c0.5,0.5,0.8,1.2,0.8,2.2v4.8h-1v-1.2c-0.2,0.4-0.6,0.7-1,0.9c-0.5,0.2-1,0.3-1.6,0.3c-0.9,0-1.5-0.2-2-0.6
		c-0.5-0.4-0.8-0.9-0.8-1.6c0-0.7,0.2-1.2,0.7-1.6s1.2-0.6,2.3-0.6h2.4v-0.5c0-0.7-0.2-1.2-0.6-1.5c-0.4-0.3-0.9-0.5-1.6-0.5
		c-0.5,0-1,0.1-1.4,0.2c-0.4,0.2-0.8,0.4-1.2,0.7l-0.5-0.8c0.4-0.3,0.9-0.6,1.4-0.8c0.5-0.2,1.1-0.3,1.7-0.3
		C599.9,90.4,600.7,90.7,601.2,91.2z M600,97c0.4-0.3,0.7-0.7,0.9-1.2v-1.3h-2.4c-1.3,0-2,0.5-2,1.4c0,0.4,0.2,0.8,0.5,1.1
		c0.3,0.3,0.8,0.4,1.4,0.4C599.1,97.4,599.6,97.3,600,97z"/>
	<path d="M610.6,90.5v7.7h-0.9v-2.5h-2.4H607l-1.8,2.5h-1.1l1.9-2.7c-0.6-0.2-1-0.4-1.4-0.8c-0.3-0.4-0.5-0.9-0.5-1.5
		c0-0.9,0.3-1.5,0.9-2c0.6-0.4,1.4-0.7,2.4-0.7H610.6z M607.4,94.8h2.3v-3.4h-2.2c-1.5,0-2.2,0.6-2.2,1.7
		C605.2,94.3,605.9,94.8,607.4,94.8z"/>
	<path d="M554,118.4v1.6h-9.2v-1.2l5.2-5c0.6-0.6,1.1-1.1,1.3-1.6c0.2-0.4,0.3-0.9,0.3-1.3c0-0.7-0.2-1.2-0.7-1.6s-1.1-0.6-2-0.6
		c-1.4,0-2.5,0.5-3.3,1.4l-1.2-1.1c0.5-0.6,1.2-1.1,2-1.4c0.8-0.3,1.7-0.5,2.7-0.5c1.3,0,2.4,0.3,3.2,1c0.8,0.6,1.2,1.5,1.2,2.6
		c0,0.7-0.1,1.3-0.4,1.9c-0.3,0.6-0.8,1.3-1.7,2.1l-3.9,3.8H554z"/>
	<path d="M563.1,113.4c0.9,0.7,1.3,1.6,1.3,2.8c0,0.8-0.2,1.4-0.5,2c-0.4,0.6-0.9,1.1-1.6,1.4s-1.6,0.5-2.7,0.5
		c-0.9,0-1.8-0.1-2.6-0.4c-0.8-0.3-1.5-0.7-2.1-1.1l0.8-1.4c0.4,0.4,1,0.7,1.7,1s1.4,0.4,2.2,0.4c1,0,1.7-0.2,2.2-0.6
		c0.5-0.4,0.8-1,0.8-1.7c0-0.8-0.3-1.3-0.9-1.7c-0.6-0.4-1.6-0.6-3-0.6h-2.9l0.7-6.7h7.2v1.6H558l-0.3,3.5h1.4
		C560.9,112.3,562.3,112.7,563.1,113.4z"/>
	<path d="M568,118c0.2,0.2,0.3,0.5,0.3,0.9c0,0.2,0,0.4-0.1,0.5c0,0.2-0.1,0.4-0.2,0.8l-0.9,2.5H566l0.7-2.7
		c-0.2-0.1-0.4-0.2-0.6-0.4c-0.1-0.2-0.2-0.4-0.2-0.7c0-0.4,0.1-0.7,0.3-0.9c0.2-0.2,0.5-0.3,0.9-0.3
		C567.5,117.6,567.8,117.7,568,118z"/>
	<path d="M579.2,118.4v1.6H570v-1.2l5.2-5c0.6-0.6,1.1-1.1,1.3-1.6c0.2-0.4,0.3-0.9,0.3-1.3c0-0.7-0.2-1.2-0.7-1.6s-1.1-0.6-2-0.6
		c-1.4,0-2.5,0.5-3.3,1.4l-1.2-1.1c0.5-0.6,1.2-1.1,2-1.4c0.8-0.3,1.7-0.5,2.7-0.5c1.3,0,2.4,0.3,3.2,1c0.8,0.6,1.2,1.5,1.2,2.6
		c0,0.7-0.1,1.3-0.4,1.9c-0.3,0.6-0.8,1.3-1.7,2.1l-3.9,3.8H579.2z"/>
</g>
<g>
	<path d="M426.9,67.4c-0.8-0.4-1.4-1.1-1.9-1.9c-0.5-0.8-0.7-1.7-0.7-2.7s0.2-1.9,0.7-2.7c0.5-0.8,1.1-1.4,1.9-1.9
		c0.8-0.4,1.7-0.7,2.7-0.7c0.8,0,1.5,0.1,2.1,0.4c0.6,0.3,1.2,0.6,1.6,1.1l-0.7,0.7c-0.8-0.8-1.8-1.2-3-1.2c-0.8,0-1.5,0.2-2.2,0.6
		c-0.7,0.4-1.2,0.9-1.6,1.5c-0.4,0.6-0.6,1.4-0.6,2.2s0.2,1.5,0.6,2.2c0.4,0.6,0.9,1.1,1.6,1.5c0.7,0.4,1.4,0.6,2.2,0.6
		c1.2,0,2.2-0.4,3-1.2l0.7,0.7c-0.4,0.5-1,0.9-1.6,1.1c-0.6,0.3-1.3,0.4-2.1,0.4C428.6,68.1,427.7,67.9,426.9,67.4z"/>
	<path d="M442.2,60.3V68h-1v-6.7h-4.8V68h-1v-7.7H442.2z"/>
	<path d="M450.1,61c0.5,0.5,0.8,1.2,0.8,2.2V68h-1v-1.2c-0.2,0.4-0.6,0.7-1,0.9c-0.5,0.2-1,0.3-1.6,0.3c-0.9,0-1.5-0.2-2-0.6
		s-0.8-0.9-0.8-1.6c0-0.7,0.2-1.2,0.7-1.6c0.5-0.4,1.2-0.6,2.3-0.6h2.4v-0.5c0-0.7-0.2-1.2-0.6-1.5c-0.4-0.3-0.9-0.5-1.6-0.5
		c-0.5,0-1,0.1-1.4,0.2c-0.4,0.2-0.8,0.4-1.2,0.7l-0.5-0.8c0.4-0.3,0.9-0.6,1.4-0.8c0.5-0.2,1.1-0.3,1.7-0.3
		C448.8,60.3,449.5,60.5,450.1,61z M448.9,66.9c0.4-0.3,0.7-0.7,0.9-1.2v-1.3h-2.4c-1.3,0-2,0.5-2,1.4c0,0.4,0.2,0.8,0.5,1.1
		c0.3,0.3,0.8,0.4,1.4,0.4C448,67.3,448.5,67.1,448.9,66.9z"/>
	<path d="M459.9,60.3V68h-1v-6.7h-3.7l-0.1,1.9c-0.1,1.6-0.3,2.8-0.6,3.7c-0.3,0.9-0.8,1.3-1.6,1.3c-0.2,0-0.5,0-0.7-0.1l0.1-0.9
		c0.2,0,0.3,0.1,0.4,0.1c0.4,0,0.7-0.2,0.9-0.6c0.2-0.4,0.3-0.8,0.4-1.4c0.1-0.5,0.1-1.3,0.2-2.2l0.1-2.7H459.9z"/>
	<path d="M468.3,63.7c0.5,0.4,0.8,1,0.8,1.8c0,0.8-0.3,1.4-0.8,1.9c-0.5,0.4-1.3,0.7-2.3,0.6l-3.1,0v-7.7h1V63l2.3,0
		C467.1,63.1,467.8,63.3,468.3,63.7z M467.5,66.8c0.4-0.3,0.5-0.7,0.5-1.3c0-0.6-0.2-1-0.5-1.3c-0.4-0.3-0.9-0.4-1.6-0.4l-2,0v3.4
		l2,0C466.6,67.2,467.1,67.1,467.5,66.8z"/>
	<path d="M471.1,60.3h1v3.4h4.8v-3.4h1V68h-1v-3.4h-4.8V68h-1V60.3z"/>
	<path d="M486.8,60.3V68h-0.9v-2.5h-2.4h-0.3l-1.8,2.5h-1.1l1.9-2.7c-0.6-0.2-1-0.4-1.4-0.8c-0.3-0.4-0.5-0.9-0.5-1.5
		c0-0.9,0.3-1.5,0.9-2c0.6-0.4,1.4-0.7,2.4-0.7H486.8z M483.5,64.7h2.3v-3.4h-2.2c-1.5,0-2.2,0.6-2.2,1.7
		C481.4,64.1,482.1,64.7,483.5,64.7z"/>
	<path d="M428.2,77.1v12.8h-1.8V78.7h-2.9v-1.6H428.2z"/>
	<path d="M438.8,83.6c0.7,0.7,1,1.5,1,2.5c0,0.7-0.2,1.4-0.5,2c-0.4,0.6-0.9,1.1-1.6,1.4S436,90,434.9,90c-0.9,0-1.8-0.1-2.6-0.4
		c-0.8-0.3-1.5-0.7-2.1-1.1l0.8-1.4c0.4,0.4,1,0.7,1.7,1s1.4,0.4,2.2,0.4c0.9,0,1.7-0.2,2.2-0.6s0.8-1,0.8-1.7s-0.3-1.3-0.8-1.6
		s-1.3-0.6-2.4-0.6h-1v-1.3l3.2-3.9h-6.1v-1.6h8.4v1.2l-3.3,4.1C437.2,82.6,438.1,83,438.8,83.6z"/>
	<path d="M443.5,87.8c0.2,0.2,0.3,0.5,0.3,0.9c0,0.2,0,0.4-0.1,0.5c0,0.2-0.1,0.4-0.2,0.8l-0.9,2.5h-1.1l0.7-2.7
		c-0.2-0.1-0.4-0.2-0.6-0.4c-0.1-0.2-0.2-0.4-0.2-0.7c0-0.4,0.1-0.7,0.3-0.9c0.2-0.2,0.5-0.3,0.9-0.3
		C443,87.5,443.3,87.6,443.5,87.8z"/>
	<path d="M455.2,84.4c0.4,0.5,0.6,1.1,0.6,1.9c0,0.8-0.2,1.4-0.6,2s-1,1-1.8,1.3s-1.7,0.5-2.7,0.5c-1,0-1.9-0.2-2.7-0.5
		c-0.8-0.3-1.3-0.7-1.8-1.3s-0.6-1.2-0.6-2c0-0.7,0.2-1.4,0.6-1.9c0.4-0.5,0.9-0.9,1.7-1.2c-0.6-0.3-1-0.6-1.3-1.1
		c-0.3-0.5-0.5-1-0.5-1.6c0-0.7,0.2-1.3,0.6-1.8s0.9-0.9,1.6-1.2c0.7-0.3,1.5-0.4,2.4-0.4c0.9,0,1.7,0.1,2.4,0.4
		c0.7,0.3,1.2,0.7,1.6,1.2s0.6,1.1,0.6,1.8c0,0.6-0.2,1.2-0.5,1.6s-0.8,0.8-1.3,1.1C454.3,83.5,454.9,83.9,455.2,84.4z M453.1,87.9
		c0.6-0.4,0.9-1,0.9-1.7c0-0.7-0.3-1.3-0.9-1.7c-0.6-0.4-1.4-0.6-2.4-0.6c-1,0-1.8,0.2-2.4,0.6c-0.6,0.4-0.9,1-0.9,1.7
		c0,0.7,0.3,1.3,0.9,1.7c0.6,0.4,1.4,0.6,2.4,0.6C451.7,88.5,452.5,88.3,453.1,87.9z M448.7,79c-0.5,0.4-0.7,0.9-0.7,1.5
		c0,0.6,0.2,1.1,0.7,1.5c0.5,0.4,1.2,0.5,2,0.5c0.9,0,1.6-0.2,2.1-0.5c0.5-0.4,0.8-0.9,0.8-1.5c0-0.6-0.3-1.1-0.8-1.5
		c-0.5-0.4-1.2-0.6-2.1-0.6C449.9,78.4,449.2,78.6,448.7,79z"/>
</g>
<g>
	<path d="M449.8,391.2c0.7,0.7,1,1.5,1,2.5c0,0.7-0.2,1.4-0.5,2c-0.4,0.6-0.9,1.1-1.6,1.4c-0.7,0.3-1.6,0.5-2.7,0.5
		c-0.9,0-1.8-0.1-2.6-0.4c-0.8-0.3-1.5-0.7-2.1-1.1l0.8-1.4c0.4,0.4,1,0.7,1.7,1s1.4,0.4,2.2,0.4c0.9,0,1.7-0.2,2.2-0.6
		s0.8-1,0.8-1.7s-0.3-1.3-0.8-1.6s-1.3-0.6-2.4-0.6h-1v-1.3l3.2-3.9h-6.1v-1.6h8.4v1.2l-3.3,4.1
		C448.1,390.1,449.1,390.5,449.8,391.2z"/>
	<path d="M454.5,395.4c0.2,0.2,0.3,0.5,0.3,0.9c0,0.2,0,0.4-0.1,0.5c0,0.2-0.1,0.4-0.2,0.8l-0.9,2.5h-1.1l0.7-2.7
		c-0.2-0.1-0.4-0.2-0.6-0.4c-0.1-0.2-0.2-0.4-0.2-0.7c0-0.4,0.1-0.7,0.3-0.9c0.2-0.2,0.5-0.3,0.9-0.3
		C454,395,454.3,395.1,454.5,395.4z"/>
	<path d="M466.2,391.9c0.4,0.5,0.6,1.1,0.6,1.9c0,0.8-0.2,1.4-0.6,2s-1,1-1.8,1.3c-0.8,0.3-1.7,0.5-2.7,0.5c-1,0-1.9-0.2-2.7-0.5
		s-1.3-0.7-1.8-1.3s-0.6-1.2-0.6-2c0-0.7,0.2-1.4,0.6-1.9c0.4-0.5,0.9-0.9,1.7-1.2c-0.6-0.3-1-0.6-1.3-1.1c-0.3-0.5-0.5-1-0.5-1.6
		c0-0.7,0.2-1.3,0.6-1.8s0.9-0.9,1.6-1.2c0.7-0.3,1.5-0.4,2.4-0.4c0.9,0,1.7,0.1,2.4,0.4c0.7,0.3,1.2,0.7,1.6,1.2
		c0.4,0.5,0.6,1.1,0.6,1.8c0,0.6-0.2,1.2-0.5,1.6c-0.3,0.5-0.8,0.8-1.3,1.1C465.3,391,465.8,391.4,466.2,391.9z M464.1,395.4
		c0.6-0.4,0.9-1,0.9-1.7c0-0.7-0.3-1.3-0.9-1.7c-0.6-0.4-1.4-0.6-2.4-0.6c-1,0-1.8,0.2-2.4,0.6c-0.6,0.4-0.9,1-0.9,1.7
		c0,0.7,0.3,1.3,0.9,1.7c0.6,0.4,1.4,0.6,2.4,0.6C462.7,396.1,463.5,395.9,464.1,395.4z M459.7,386.5c-0.5,0.4-0.7,0.9-0.7,1.5
		c0,0.6,0.2,1.1,0.7,1.5c0.5,0.4,1.2,0.5,2.1,0.5c0.9,0,1.6-0.2,2.1-0.5c0.5-0.4,0.8-0.9,0.8-1.5c0-0.6-0.3-1.1-0.8-1.5
		c-0.5-0.4-1.2-0.6-2.1-0.6C460.9,386,460.2,386.2,459.7,386.5z"/>
</g>
<g>
	<path d="M219.1,390.5h-2.4v3.1H215v-3.1h-7.1v-1.3l6.5-8.3h2l-6.3,8.1h4.9v-2.8h1.7v2.8h2.4V390.5z"/>
	<path d="M222.7,391.6c0.2,0.2,0.3,0.5,0.3,0.9c0,0.2,0,0.4-0.1,0.5c0,0.2-0.1,0.4-0.2,0.8l-0.9,2.5h-1.1l0.7-2.7
		c-0.2-0.1-0.4-0.2-0.6-0.4c-0.1-0.2-0.2-0.4-0.2-0.7c0-0.4,0.1-0.7,0.3-0.9c0.2-0.2,0.5-0.3,0.9-0.3
		C222.2,391.2,222.4,391.4,222.7,391.6z"/>
	<path d="M227,393c-0.8-0.5-1.4-1.3-1.8-2.3c-0.4-1-0.7-2.2-0.7-3.5c0-1.3,0.2-2.5,0.7-3.5c0.4-1,1.1-1.7,1.8-2.3
		c0.8-0.5,1.7-0.8,2.7-0.8c1,0,1.9,0.3,2.7,0.8c0.8,0.5,1.4,1.3,1.8,2.3c0.4,1,0.7,2.2,0.7,3.5c0,1.3-0.2,2.5-0.7,3.5
		c-0.4,1-1.1,1.7-1.8,2.3c-0.8,0.5-1.7,0.8-2.7,0.8C228.7,393.8,227.8,393.5,227,393z M232.2,390.9c0.6-0.8,0.9-2.1,0.9-3.6
		c0-1.6-0.3-2.8-0.9-3.6c-0.6-0.8-1.4-1.3-2.5-1.3c-1,0-1.9,0.4-2.5,1.3c-0.6,0.8-0.9,2.1-0.9,3.6c0,1.6,0.3,2.8,0.9,3.6
		c0.6,0.8,1.4,1.3,2.5,1.3C230.8,392.2,231.6,391.7,232.2,390.9z"/>
</g>
<g>
	<path d="M293.1,485.1c0.9,0.7,1.3,1.6,1.3,2.8c0,0.8-0.2,1.4-0.5,2s-0.9,1.1-1.6,1.4c-0.7,0.3-1.6,0.5-2.7,0.5
		c-0.9,0-1.8-0.1-2.6-0.4c-0.8-0.3-1.5-0.7-2.1-1.1l0.8-1.4c0.4,0.4,1,0.7,1.7,1s1.4,0.4,2.2,0.4c1,0,1.7-0.2,2.2-0.6
		c0.5-0.4,0.8-1,0.8-1.7c0-0.8-0.3-1.3-0.9-1.7c-0.6-0.4-1.6-0.6-3-0.6h-2.9l0.7-6.7h7.2v1.6h-5.7l-0.3,3.5h1.4
		C291,484.1,292.3,484.5,293.1,485.1z"/>
	<path d="M298,489.8c0.2,0.2,0.3,0.5,0.3,0.9c0,0.2,0,0.4-0.1,0.5c0,0.2-0.1,0.4-0.2,0.8l-0.9,2.5H296l0.7-2.7
		c-0.2-0.1-0.4-0.2-0.6-0.4s-0.2-0.4-0.2-0.7c0-0.4,0.1-0.7,0.3-0.9c0.2-0.2,0.5-0.3,0.9-0.3C297.5,489.4,297.8,489.5,298,489.8z"/>
	<path d="M308,485.5c0.7,0.7,1,1.5,1,2.5c0,0.7-0.2,1.4-0.5,2c-0.4,0.6-0.9,1.1-1.6,1.4c-0.7,0.3-1.6,0.5-2.7,0.5
		c-0.9,0-1.8-0.1-2.6-0.4c-0.8-0.3-1.5-0.7-2.1-1.1l0.8-1.4c0.4,0.4,1,0.7,1.7,1c0.7,0.2,1.4,0.4,2.2,0.4c0.9,0,1.7-0.2,2.2-0.6
		c0.5-0.4,0.8-1,0.8-1.7s-0.3-1.3-0.8-1.6c-0.5-0.4-1.3-0.6-2.4-0.6h-1v-1.3l3.2-3.9h-6.1V479h8.4v1.2l-3.3,4.1
		C306.4,484.5,307.4,484.9,308,485.5z"/>
</g>
<g>
	
		<rect x="448.8" y="430.1" fill-rule="evenodd" clip-rule="evenodd" fill="#F1F2F2" stroke="#848484" stroke-miterlimit="10" width="38.5" height="2.7"/>
	
		<rect x="448.8" y="430.1" fill-rule="evenodd" clip-rule="evenodd" fill="#F1F2F2" stroke="#848484" stroke-miterlimit="10" width="38.5" height="2.7"/>
	
		<rect x="474.9" y="473.2" fill-rule="evenodd" clip-rule="evenodd" fill="#F1F2F2" stroke="#848484" stroke-miterlimit="10" width="12.6" height="3.7"/>
	
		<rect x="474.9" y="473.2" fill-rule="evenodd" clip-rule="evenodd" fill="#F1F2F2" stroke="#848484" stroke-miterlimit="10" width="12.6" height="3.7"/>
	
		<rect x="447" y="432.6" fill-rule="evenodd" clip-rule="evenodd" fill="#F1F2F2" stroke="#848484" stroke-miterlimit="10" width="42.2" height="42.2"/>
	
		<rect x="447" y="432.6" fill-rule="evenodd" clip-rule="evenodd" fill="#F1F2F2" stroke="#848484" stroke-miterlimit="10" width="42.2" height="42.2"/>
	<path fill-rule="evenodd" clip-rule="evenodd" fill="#F1F2F2" stroke="#848484" stroke-miterlimit="10" d="M447,471l42.2,0L447,471
		z"/>
	<path fill-rule="evenodd" clip-rule="evenodd" fill="#F1F2F2" stroke="#848484" stroke-miterlimit="10" d="M445,470.8
		c0-0.8,0.7-1.6,1.7-1.6c1,0,1.7,0.8,1.7,1.6c0,1-0.7,1.8-1.7,1.8C445.7,472.6,445,471.8,445,470.8z"/>
	<path fill-rule="evenodd" clip-rule="evenodd" fill="#F1F2F2" stroke="#848484" stroke-miterlimit="10" d="M445,470.8
		c0-0.8,0.7-1.6,1.7-1.6c1,0,1.7,0.8,1.7,1.6c0,1-0.7,1.8-1.7,1.8C445.7,472.6,445,471.8,445,470.8z"/>
	<path fill-rule="evenodd" clip-rule="evenodd" fill="#F1F2F2" stroke="#848484" stroke-miterlimit="10" d="M468.4,449.2v7.4V449.2z
		"/>
	<path fill-rule="evenodd" clip-rule="evenodd" fill="#F1F2F2" stroke="#848484" stroke-miterlimit="10" d="M464.8,452.9h7.4H464.8z
		"/>
	<path fill-rule="evenodd" clip-rule="evenodd" fill="#F1F2F2" stroke="#848484" stroke-miterlimit="10" d="M465.8,455.7l5.4-5.4
		L465.8,455.7z"/>
	<path fill-rule="evenodd" clip-rule="evenodd" fill="#F1F2F2" stroke="#848484" stroke-miterlimit="10" d="M471.1,455.7l-5.4-5.4
		L471.1,455.7z"/>
	<path fill-rule="evenodd" clip-rule="evenodd" fill="#F1F2F2" stroke="#848484" stroke-miterlimit="10" d="M457.4,449v7.4V449z"/>
	<path fill-rule="evenodd" clip-rule="evenodd" fill="#F1F2F2" stroke="#848484" stroke-miterlimit="10" d="M453.7,452.6h7.4H453.7z
		"/>
	<path fill-rule="evenodd" clip-rule="evenodd" fill="#F1F2F2" stroke="#848484" stroke-miterlimit="10" d="M454.8,455.4l5.4-5.4
		L454.8,455.4z"/>
	<path fill-rule="evenodd" clip-rule="evenodd" fill="#F1F2F2" stroke="#848484" stroke-miterlimit="10" d="M460.2,455.4l-5.4-5.4
		L460.2,455.4z"/>
	<path fill-rule="evenodd" clip-rule="evenodd" fill="#F1F2F2" stroke="#848484" stroke-miterlimit="10" d="M479,449.2v7.4V449.2z"
		/>
	<path fill-rule="evenodd" clip-rule="evenodd" fill="#F1F2F2" stroke="#848484" stroke-miterlimit="10" d="M475.4,452.9l7.4,0
		L475.4,452.9z"/>
	<path fill-rule="evenodd" clip-rule="evenodd" fill="#F1F2F2" stroke="#848484" stroke-miterlimit="10" d="M476.4,455.7l5.4-5.4
		L476.4,455.7z"/>
	<path fill-rule="evenodd" clip-rule="evenodd" fill="#F1F2F2" stroke="#848484" stroke-miterlimit="10" d="M481.8,455.7l-5.4-5.4
		L481.8,455.7z"/>
</g>
<g>
	<g>
		
			<rect x="265.3" y="102.4" fill-rule="evenodd" clip-rule="evenodd" fill="#F1F2F2" stroke="#848484" stroke-miterlimit="10" width="148.4" height="115.2"/>
		
			<rect x="271.2" y="105.2" fill-rule="evenodd" clip-rule="evenodd" fill="#F1F2F2" stroke="#848484" stroke-miterlimit="10" width="138.3" height="109.9"/>
		
			<rect x="274.8" y="108.4" fill-rule="evenodd" clip-rule="evenodd" fill="#F1F2F2" stroke="#848484" stroke-miterlimit="10" width="31.2" height="42.7"/>
		
			<rect x="274.8" y="168.8" fill-rule="evenodd" clip-rule="evenodd" fill="#F1F2F2" stroke="#848484" stroke-miterlimit="10" width="31.2" height="42.7"/>
		<polygon fill-rule="evenodd" clip-rule="evenodd" fill="#F1F2F2" stroke="#848484" stroke-miterlimit="10" points="321.9,105.2 
			302.8,137.9 302.8,182.3 302.8,137.9 302.8,182.3 321.9,215 409.5,215 409.5,214.9 409.5,105.2 		"/>
		<polyline fill-rule="evenodd" clip-rule="evenodd" fill="#F1F2F2" stroke="#848484" stroke-miterlimit="10" points="321.9,105.2 
			335.8,128.2 302.8,137.9 		"/>
		
			<line fill-rule="evenodd" clip-rule="evenodd" fill="#F1F2F2" stroke="#848484" stroke-miterlimit="10" x1="302.8" y1="137.9" x2="321.9" y2="105.2"/>
		<polyline fill-rule="evenodd" clip-rule="evenodd" fill="#F1F2F2" stroke="#848484" stroke-miterlimit="10" points="321.9,215 
			335.8,192 302.8,182.3 		"/>
		
			<line fill-rule="evenodd" clip-rule="evenodd" fill="#F1F2F2" stroke="#848484" stroke-miterlimit="10" x1="302.8" y1="182.3" x2="321.9" y2="215"/>
	</g>
	<g>
		
			<rect x="259.7" y="225.3" transform="matrix(-1.836970e-16 1 -1 -1.836970e-16 520.0404 -39.9784)" fill="#F1F2F2" stroke="#848484" stroke-miterlimit="10" width="40.5" height="29.5"/>
		
			<rect x="287.2" y="238.9" transform="matrix(-1.836970e-16 1 -1 -1.836970e-16 535.5668 -55.8214)" fill="#F1F2F2" stroke="#848484" stroke-miterlimit="10" width="17" height="1.9"/>
	</g>
	<g>
		
			<rect x="259.7" y="65.2" transform="matrix(-1.836970e-16 1 -1 -1.836970e-16 359.9305 -200.0883)" fill="#F1F2F2" stroke="#848484" stroke-miterlimit="10" width="40.5" height="29.5"/>
		
			<rect x="287.2" y="78.8" transform="matrix(2.671580e-13 1 -1 2.671580e-13 375.4568 -215.9314)" fill="#F1F2F2" stroke="#848484" stroke-miterlimit="10" width="17" height="1.9"/>
	</g>
</g>
<g>
	
		<rect x="383.1" y="287.8" transform="matrix(-1 -4.488511e-11 4.488511e-11 -1 897.5677 621.0021)" fill-rule="evenodd" clip-rule="evenodd" fill="#F1F2F2" stroke="#848484" stroke-miterlimit="10" width="131.4" height="45.4"/>
	<line fill="#F1F2F2" stroke="#848484" stroke-miterlimit="10" x1="509.7" y1="287.8" x2="509.7" y2="333.3"/>
	<line fill="#F1F2F2" stroke="#848484" stroke-miterlimit="10" x1="388" y1="287.8" x2="388" y2="333.2"/>
	<line fill="#F1F2F2" stroke="#848484" stroke-miterlimit="10" x1="509.7" y1="331.1" x2="388" y2="331.1"/>
	<line fill="#F1F2F2" stroke="#848484" stroke-miterlimit="10" x1="392.2" y1="310.2" x2="505.5" y2="310.2"/>
	
		<rect x="498.2" y="296.6" transform="matrix(-0.9868 0.162 -0.162 -0.9868 1042.9286 535.8013)" fill="#F1F2F2" stroke="#848484" stroke-miterlimit="10" width="2.8" height="27.7"/>
	
		<rect x="488" y="296.6" transform="matrix(-0.9961 8.815246e-02 -8.815246e-02 -0.9961 1004.3416 576.4684)" fill="#F1F2F2" stroke="#848484" stroke-miterlimit="10" width="2.8" height="27.7"/>
	
		<rect x="477.7" y="296.3" transform="matrix(-0.9734 0.229 -0.229 -0.9734 1016.5622 502.3856)" fill="#F1F2F2" stroke="#848484" stroke-miterlimit="10" width="2.8" height="27.7"/>
	
		<rect x="466.2" y="296.7" transform="matrix(-0.9884 0.152 -0.152 -0.9884 977.0256 546.2587)" fill="#F1F2F2" stroke="#848484" stroke-miterlimit="10" width="2.8" height="27.7"/>
	
		<rect x="456.2" y="296.5" transform="matrix(-0.999 4.511170e-02 -4.511170e-02 -0.999 928.7227 599.6997)" fill="#F1F2F2" stroke="#848484" stroke-miterlimit="10" width="2.8" height="27.7"/>
	
		<rect x="446" y="296.5" transform="matrix(-0.9884 0.152 -0.152 -0.9884 936.8557 549.0217)" fill="#F1F2F2" stroke="#848484" stroke-miterlimit="10" width="2.8" height="27.7"/>
	
		<rect x="435.7" y="296.3" transform="matrix(-0.999 4.511170e-02 -4.511170e-02 -0.999 887.794 600.3148)" fill="#F1F2F2" stroke="#848484" stroke-miterlimit="10" width="2.8" height="27.7"/>
	
		<rect x="425.6" y="296.3" transform="matrix(-0.9787 0.2052 -0.2052 -0.9787 908.5741 526.1438)" fill="#F1F2F2" stroke="#848484" stroke-miterlimit="10" width="2.8" height="27.7"/>
	
		<rect x="415.5" y="296.4" transform="matrix(-0.9884 0.152 -0.152 -0.9884 876.1116 553.4157)" fill="#F1F2F2" stroke="#848484" stroke-miterlimit="10" width="2.8" height="27.7"/>
	
		<rect x="405.4" y="296.3" transform="matrix(-0.9964 8.473843e-02 -8.473843e-02 -0.9964 838.3892 584.7641)" fill="#F1F2F2" stroke="#848484" stroke-miterlimit="10" width="2.8" height="27.7"/>
	
		<rect x="395.3" y="296.7" transform="matrix(-0.9713 0.2379 -0.2379 -0.9713 855.8294 517.7319)" fill="#F1F2F2" stroke="#848484" stroke-miterlimit="10" width="2.8" height="27.7"/>
</g>
<g>
	<g>
		<path fill="#F1F2F2" stroke="#848484" stroke-miterlimit="10" d="M693.3,384.4c7.8,0,14.2-2.3,14.2-5.3c0-2.9-6.3-5.3-14.2-5.3
			s-14.2,2.4-14.2,5.3C679.1,382,685.5,384.4,693.3,384.4z"/>
		<path fill="#F1F2F2" stroke="#848484" stroke-miterlimit="10" d="M693.3,408.1c7.8,0,14.2-6.4,14.2-14.2c0-7.8-6.3-14.2-14.2-14.2
			s-14.2,6.4-14.2,14.2C679.1,401.7,685.5,408.1,693.3,408.1z"/>
	</g>
	<g>
		<path fill="#F1F2F2" stroke="#848484" stroke-miterlimit="10" d="M693.3,455.8c-7.8,0-14.2,2.3-14.2,5.3c0,2.9,6.3,5.3,14.2,5.3
			s14.2-2.4,14.2-5.3C707.5,458.2,701.1,455.8,693.3,455.8z"/>
		<path fill="#F1F2F2" stroke="#848484" stroke-miterlimit="10" d="M693.3,432.1c-7.8,0-14.2,6.4-14.2,14.2
			c0,7.8,6.3,14.2,14.2,14.2s14.2-6.4,14.2-14.2C707.5,438.5,701.1,432.1,693.3,432.1z"/>
	</g>
	<g>
		<path fill="#F1F2F2" stroke="#848484" stroke-miterlimit="10" d="M659.7,419.5c0-7.8-2.3-14.2-5.3-14.2c-2.9,0-5.3,6.3-5.3,14.2
			c0,7.8,2.4,14.2,5.3,14.2C657.4,433.7,659.7,427.4,659.7,419.5z"/>
		<path fill="#F1F2F2" stroke="#848484" stroke-miterlimit="10" d="M683.5,419.5c0-7.8-6.4-14.2-14.2-14.2s-14.2,6.3-14.2,14.2
			c0,7.8,6.4,14.2,14.2,14.2S683.5,427.4,683.5,419.5z"/>
	</g>
	<g>
		<path fill="#F1F2F2" stroke="#848484" stroke-miterlimit="10" d="M726.8,419.5c0,7.8,2.3,14.2,5.3,14.2c2.9,0,5.3-6.3,5.3-14.2
			c0-7.8-2.4-14.2-5.3-14.2C729.2,405.4,726.8,411.7,726.8,419.5z"/>
		<path fill="#F1F2F2" stroke="#848484" stroke-miterlimit="10" d="M703.1,419.5c0,7.8,6.4,14.2,14.2,14.2s14.2-6.3,14.2-14.2
			c0-7.8-6.4-14.2-14.2-14.2S703.1,411.7,703.1,419.5z"/>
	</g>
	
		<rect x="664.7" y="391" transform="matrix(6.123234e-17 -1 1 6.123234e-17 273.7412 1112.8167)" fill="#F1F2F2" stroke="#848484" stroke-miterlimit="10" width="57.1" height="57.1"/>
</g>
<g>
	<path fill-rule="evenodd" clip-rule="evenodd" fill="#F1F2F2" stroke="#848484" stroke-miterlimit="10" d="M662.4,37.6h54h43.5
		c2.9,0,5.3,2.4,5.3,5.3v43.6v131.7c0,2.9-2.4,5.3-5.3,5.3h-43.5c-2.9,0-5.3-2.4-5.3-5.3V96.9c0-2.9-2.4-5.3-5.3-5.3h-43.5
		c-2.9,0-5.3-2.4-5.3-5.3V42.9C657.1,40,659.5,37.6,662.4,37.6z"/>
	<g>
		<path fill-rule="evenodd" clip-rule="evenodd" fill="#F1F2F2" stroke="#848484" stroke-miterlimit="10" d="M719.8,91.7
			c-6.2,0-8.7-0.3-8.7-8.1V60.4c0-7.8,2.6-8.1,8.7-8.1h23.1c6.2,0,8.7,0.3,8.7,8.1v23.2c0,7.8-2.6,8.1-8.7,8.1H719.8z"/>
		<path fill-rule="evenodd" clip-rule="evenodd" fill="#F1F2F2" stroke="#848484" stroke-miterlimit="10" d="M719.8,91.7
			c-6.2,0-8.7-0.3-8.7-8.1V60.4c0-7.8,2.6-8.1,8.7-8.1h23.1c6.2,0,8.7,0.3,8.7,8.1v23.2c0,7.8-2.6,8.1-8.7,8.1H719.8z"/>
		<path fill-rule="evenodd" clip-rule="evenodd" fill="#F1F2F2" stroke="#848484" stroke-miterlimit="10" d="M719.8,130.8
			c-6.2,0-8.7-0.3-8.7-8.1V99.5c0-7.8,2.6-8.1,8.7-8.1h23.1c6.2,0,8.7,0.3,8.7,8.1v23.2c0,7.8-2.6,8.1-8.7,8.1H719.8z"/>
		<path fill-rule="evenodd" clip-rule="evenodd" fill="#F1F2F2" stroke="#848484" stroke-miterlimit="10" d="M719.8,130.8
			c-6.2,0-8.7-0.3-8.7-8.1V99.5c0-7.8,2.6-8.1,8.7-8.1h23.1c6.2,0,8.7,0.3,8.7,8.1v23.2c0,7.8-2.6,8.1-8.7,8.1H719.8z"/>
		<path fill-rule="evenodd" clip-rule="evenodd" fill="#F1F2F2" stroke="#848484" stroke-miterlimit="10" d="M719.8,169.8
			c-6.2,0-8.7-0.3-8.7-8v-23.3c0-7.8,2.6-8,8.7-8h23.1c6.2,0,8.7,0.3,8.7,8v23.3c0,7.8-2.6,8-8.7,8H719.8z"/>
		<path fill-rule="evenodd" clip-rule="evenodd" fill="#F1F2F2" stroke="#848484" stroke-miterlimit="10" d="M719.8,169.8
			c-6.2,0-8.7-0.3-8.7-8v-23.3c0-7.8,2.6-8,8.7-8h23.1c6.2,0,8.7,0.3,8.7,8v23.3c0,7.8-2.6,8-8.7,8H719.8z"/>
		<path fill-rule="evenodd" clip-rule="evenodd" fill="#F1F2F2" stroke="#848484" stroke-miterlimit="10" d="M679.3,91.7
			c-6.2,0-8.7-0.3-8.7-8.1V60.4c0-7.8,2.6-8.1,8.7-8.1h23.1c6.2,0,8.7,0.3,8.7,8.1v23.2c0,7.8-2.6,8.1-8.7,8.1H679.3z"/>
		<path fill-rule="evenodd" clip-rule="evenodd" fill="#F1F2F2" stroke="#848484" stroke-miterlimit="10" d="M719.9,208.9
			c-6.2,0-8.7-0.3-8.7-8v-23.3c0-7.8,2.6-8,8.7-8H743c6.2,0,8.7,0.3,8.7,8v23.3c0,7.8-2.6,8-8.7,8H719.9z"/>
		<path fill-rule="evenodd" clip-rule="evenodd" fill="#F1F2F2" stroke="#848484" stroke-miterlimit="10" d="M759.5,37.6H665h-2.3
			c-3.1,0-5.6,2.7-5.6,6v2.5v39.6c0,3.3,2.5,6,5.6,6h2.3c3.1,0,5.6-2.7,5.6-6V52.1h81v156.8h-34.9c-3.1,0-5.6,2.7-5.6,6v2.5
			c0,3.3,2.5,6,5.6,6h40.5h2.3c3.1,0,5.6-2.7,5.6-6v-2.5V46.1v-2.5v0C765.1,40.3,762.6,37.6,759.5,37.6z"/>
	</g>
</g>
<g>
	<path fill-rule="evenodd" clip-rule="evenodd" fill="#F1F2F2" stroke="#848484" stroke-miterlimit="10" d="M527.4,310.5v-26.1h21.7
		v26.1H527.4L527.4,310.5z M527.4,187.1h32.4v97.3h-32.4V187.1z"/>
	<path fill-rule="evenodd" clip-rule="evenodd" fill="#F1F2F2" stroke="#848484" stroke-miterlimit="10" d="M539,226.1
		c-5.6,0-6.2,5.1-6.2,11.5c0,6.2,0.5,11.4,6.2,11.4s10.3-5.1,10.3-11.4C549.2,231.2,544.6,226.1,539,226.1z"/>
	
		<rect x="540" y="199.4" fill-rule="evenodd" clip-rule="evenodd" fill="#F1F2F2" stroke="#848484" stroke-miterlimit="10" width="4.3" height="76.4"/>
	
		<rect x="540" y="199.4" fill-rule="evenodd" clip-rule="evenodd" fill="#F1F2F2" stroke="#848484" stroke-miterlimit="10" width="4.3" height="76.4"/>
	<polygon fill-rule="evenodd" clip-rule="evenodd" fill="#F1F2F2" stroke="#848484" stroke-miterlimit="10" points="540.2,205.9 
		536.7,218.1 536.7,256.9 540.2,269.2 	"/>
	<polygon fill-rule="evenodd" clip-rule="evenodd" fill="#F1F2F2" stroke="#848484" stroke-miterlimit="10" points="540.2,205.9 
		536.7,218.1 536.7,256.9 540.2,269.2 	"/>
	<path fill-rule="evenodd" clip-rule="evenodd" fill="#F1F2F2" stroke="#848484" stroke-miterlimit="10" d="M551.4,308.3v-21.5h2.1
		v21.5H551.4L551.4,308.3z M527.4,187.2v-26.1h21.7v26.1H527.4L527.4,187.2z M551.4,163.3h2.1v21.5h-2.1V163.3z"/>
</g>
<g>
	<path fill="#F1F2F2" stroke="#848484" stroke-miterlimit="10" d="M117.3,342.5c0.3,3.6,0.4,13.7-4.6,20.9
		c-4.4,6.4-12.5,11.4-16.3,12.8H22.6v-33.8h73.8C103.4,342.5,110.3,342.5,117.3,342.5z M96.4,376.2v-33.8"/>
	
		<rect x="30.2" y="343.1" transform="matrix(-1.945938e-12 -1 1 -1.945938e-12 -312.3163 376.8368)" fill="#F1F2F2" stroke="#848484" stroke-miterlimit="10" width="4.2" height="3"/>
	
		<rect x="48.4" y="343.1" transform="matrix(-1.296679e-12 -1 1 -1.296679e-12 -294.0639 395.0891)" fill="#F1F2F2" stroke="#848484" stroke-miterlimit="10" width="4.2" height="3"/>
	
		<rect x="66.5" y="343.1" transform="matrix(-2.810135e-12 -1 1 -2.810135e-12 -275.9981 413.1549)" fill="#F1F2F2" stroke="#848484" stroke-miterlimit="10" width="4.2" height="3"/>
	
		<rect x="84.7" y="343.1" transform="matrix(-2.594308e-12 -1 1 -2.594308e-12 -257.7457 431.4073)" fill="#F1F2F2" stroke="#848484" stroke-miterlimit="10" width="4.2" height="3"/>
	
		<rect x="31.9" y="339.2" transform="matrix(6.123234e-17 -1 1 6.123234e-17 -310.546 375.0665)" fill="#F1F2F2" stroke="#848484" stroke-miterlimit="10" width="0.7" height="7.2"/>
	
		<rect x="50.1" y="339.2" transform="matrix(-3.890160e-12 -1 1 -3.890160e-12 -292.3683 393.2442)" fill="#F1F2F2" stroke="#848484" stroke-miterlimit="10" width="0.7" height="7.2"/>
	
		<rect x="68.2" y="339.2" transform="matrix(-7.780381e-12 -1 1 -7.780381e-12 -274.2279 411.3846)" fill="#F1F2F2" stroke="#848484" stroke-miterlimit="10" width="0.7" height="7.2"/>
	
		<rect x="86.5" y="339.2" transform="matrix(-7.780381e-12 -1 1 -7.780381e-12 -255.9755 429.637)" fill="#F1F2F2" stroke="#848484" stroke-miterlimit="10" width="0.7" height="7.2"/>
</g>
<g>
</g>
<g>
</g>
<g>
</g>
<g>
</g>
<g>
</g>
<g>
</g>
</svg>
