<?xml version="1.0" encoding="utf-8"?>
<!-- Generator: Adobe Illustrator 23.0.2, SVG Export Plug-In . SVG Version: 6.00 Build 0)  -->
<svg version="1.1" id="Слой_1" xmlns="http://www.w3.org/2000/svg" xmlns:xlink="http://www.w3.org/1999/xlink" x="0px" y="0px"
	 viewBox="0 0 775.6 800" enable-background="new 0 0 775.6 800" xml:space="preserve">
<polygon fill="#F3F3F3" stroke="#838383" points="665.4,78.3 447.3,78.3 447.3,150.5 395.7,150.5 395.7,30.8 665.4,30.8 "/>
<g>
	
		<rect x="471.1" y="783.3" transform="matrix(-1 -1.224647e-16 1.224647e-16 -1 1204.5004 1579.1555)" fill="#F3F3F3" stroke="#000000" stroke-miterlimit="10" width="262.3" height="12.5"/>
	
		<rect x="471.1" y="779.2" transform="matrix(-1 -1.224647e-16 1.224647e-16 -1 1204.5004 1562.5548)" fill="#F3F3F3" stroke="#000000" stroke-miterlimit="10" width="262.3" height="4.1"/>
	
		<rect x="471.1" y="775.1" transform="matrix(-1 -1.224647e-16 1.224647e-16 -1 1204.5004 1554.3571)" fill="#F3F3F3" stroke="#000000" stroke-miterlimit="10" width="262.3" height="4.1"/>
	
		<rect x="471.1" y="766.4" transform="matrix(-1 -1.224647e-16 1.224647e-16 -1 1204.5004 1541.5137)" fill="#F3F3F3" stroke="#000000" stroke-miterlimit="10" width="262.3" height="8.7"/>
	
		<rect x="471.1" y="775.1" transform="matrix(-1 -1.224647e-16 1.224647e-16 -1 946.649 1558.4559)" fill="#F3F3F3" stroke="#000000" stroke-miterlimit="10" width="4.5" height="8.2"/>
	
		<rect x="728.9" y="775.1" transform="matrix(-1 -1.224647e-16 1.224647e-16 -1 1462.3517 1558.4559)" fill="#F3F3F3" stroke="#000000" stroke-miterlimit="10" width="4.5" height="8.2"/>
</g>
<g>
	
		<rect x="660.9" y="281.9" transform="matrix(6.123234e-17 -1 1 6.123234e-17 472.383 1047.9056)" fill="#F3F3F3" stroke="#000000" stroke-miterlimit="10" width="198.5" height="11.7"/>
	
		<rect x="647.9" y="282.9" transform="matrix(6.123234e-17 -1 1 6.123234e-17 462.9843 1037.2196)" fill="#F3F3F3" stroke="#000000" stroke-miterlimit="10" width="204.3" height="8.4"/>
	
		<rect x="637.5" y="280.9" transform="matrix(6.123234e-17 -1 1 6.123234e-17 452.5491 1026.7844)" fill="#F3F3F3" stroke="#000000" stroke-miterlimit="10" width="204.3" height="12.5"/>
	
		<rect x="747" y="382" transform="matrix(6.123234e-17 -1 1 6.123234e-17 363.8835 1136.3204)" fill="#F3F3F3" stroke="#000000" stroke-miterlimit="10" width="6.1" height="8.4"/>
	
		<rect x="747" y="183.8" transform="matrix(6.123234e-17 -1 1 6.123234e-17 562.0851 938.1188)" fill="#F3F3F3" stroke="#000000" stroke-miterlimit="10" width="6.1" height="8.4"/>
	
		<rect x="747" y="315.9" transform="matrix(6.123234e-17 -1 1 6.123234e-17 430.0188 1070.1852)" fill="#F3F3F3" stroke="#000000" stroke-miterlimit="10" width="6.1" height="8.4"/>
	
		<rect x="747" y="251.1" transform="matrix(6.123234e-17 -1 1 6.123234e-17 494.86 1005.3439)" fill="#F3F3F3" stroke="#000000" stroke-miterlimit="10" width="6.1" height="8.4"/>
</g>
<g>
	<rect x="239.3" y="783.8" fill="#F3F3F3" stroke="#000000" stroke-miterlimit="10" width="119.7" height="11.7"/>
	<rect x="236.4" y="775.4" fill="#F3F3F3" stroke="#000000" stroke-miterlimit="10" width="125.7" height="8.4"/>
	<rect x="236.4" y="762.9" fill="#F3F3F3" stroke="#000000" stroke-miterlimit="10" width="125.7" height="12.5"/>
	<rect x="236.4" y="775.4" fill="#F3F3F3" stroke="#000000" stroke-miterlimit="10" width="6" height="8.4"/>
	<rect x="356.1" y="775.4" fill="#F3F3F3" stroke="#000000" stroke-miterlimit="10" width="6" height="8.4"/>
	<rect x="301" y="775.4" fill="#F3F3F3" stroke="#000000" stroke-miterlimit="10" width="6" height="8.4"/>
</g>
<rect x="568.4" y="660.3" fill="#F3F3F3" stroke="#000000" stroke-miterlimit="10" width="68.3" height="14.5"/>
<rect x="568.4" y="674.8" fill="#F3F3F3" stroke="#000000" stroke-miterlimit="10" width="147.6" height="5.5"/>
<rect x="571.6" y="680.2" fill="#F3F3F3" stroke="#000000" stroke-miterlimit="10" width="65.9" height="12.8"/>
<rect x="568.4" y="674.8" fill="#F3F3F3" stroke="#000000" stroke-miterlimit="10" width="8.5" height="5.5"/>
<rect x="633.8" y="674.8" fill="#F3F3F3" stroke="#000000" stroke-miterlimit="10" width="8.3" height="5.5"/>
<rect x="707.8" y="674.8" fill="#F3F3F3" stroke="#000000" stroke-miterlimit="10" width="8.1" height="5.5"/>
<line fill="#F3F3F3" stroke="#000000" stroke-miterlimit="10" x1="319.4" y1="385" x2="353.9" y2="327.6"/>
<line fill="#F3F3F3" stroke="#000000" stroke-miterlimit="10" x1="347.3" y1="404.7" x2="411.7" y2="442.8"/>
<line fill="#F3F3F3" stroke="#000000" stroke-miterlimit="10" x1="457.1" y1="404.7" x2="519.9" y2="442.8"/>
<line fill="#F3F3F3" stroke="#000000" stroke-miterlimit="10" x1="259.3" y1="82.6" x2="226.4" y2="139.9"/>
<line fill="#F3F3F3" stroke="#000000" stroke-miterlimit="10" x1="48.6" y1="112.4" x2="7.1" y2="39.4"/>
<line fill="#F3F3F3" stroke="#000000" stroke-miterlimit="10" x1="707.8" y1="674.8" x2="650.6" y2="639.9"/>
<g id="moyka_2_4_">
	<path fill="#F3F3F3" stroke="#838383" d="M436.1,137.3c1.4,0,2.6-1.2,2.6-2.6V97.4c0-1.4-1.2-2.6-2.6-2.6h-30.8
		c-1.4,0-2.6,1.2-2.6,2.6v37.3c0,1.4,1.2,2.6,2.6,2.6H436.1z"/>
	<path fill="#F3F3F3" stroke="#838383" d="M433.5,134.7c1.4,0,2.6-1.2,2.6-2.6V100c0-1.4-1.2-2.6-2.6-2.6h-21.9
		c-1.4,0-2.6,1.2-2.6,2.6v32.1c0,1.4,1.2,2.6,2.6,2.6H433.5z"/>
	<rect x="406.5" y="115.4" fill="#F3F3F3" stroke="#838383" width="10.3" height="2.6"/>
	<circle fill="#F3F3F3" stroke="#838383" cx="423.9" cy="116.1" r="1.9"/>
</g>
<g id="plita_4_">
	<rect x="518.6" y="32" fill="#F3F3F3" stroke="#838383" width="45" height="46.3"/>
	<circle fill="#F3F3F3" stroke="#838383" cx="531.4" cy="43.6" r="7.7"/>
	<circle fill="#F3F3F3" stroke="#838383" cx="550.7" cy="62.8" r="7.7"/>
	<circle fill="#F3F3F3" stroke="#838383" cx="550.7" cy="43.6" r="6.4"/>
	<circle fill="#F3F3F3" stroke="#838383" cx="531.4" cy="62.8" r="6.4"/>
</g>
<g id="unitaz_6_">
	<path fill="#F3F3F3" stroke="#838383" d="M265.7,252.7v10.7c0,1.7,1.4,3.1,3.1,3.1h27.6c1.7,0,3.1-1.4,3.1-3.1v-10.7H265.7z"/>
	<path fill="#F3F3F3" stroke="#838383" d="M268.8,266.5c-1.7,0-3.1,1.4-3.1,3.1h33.7c0-1.7-1.4-3.1-3.1-3.1H268.8z"/>
	<path fill="#F3F3F3" stroke="#838383" d="M299.5,269.6h-33.7c0,0-6.9,39.8,16.9,39.8C306.4,309.4,299.5,269.6,299.5,269.6z"/>
	<circle fill="#F3F3F3" stroke="#838383" cx="282.6" cy="258.8" r="3.1"/>
</g>
<g id="unitaz_7_">
	<path fill="#F3F3F3" stroke="#838383" d="M279.2,31.4v10.7c0,1.7,1.4,3.1,3.1,3.1h27.6c1.7,0,3.1-1.4,3.1-3.1V31.4H279.2z"/>
	<path fill="#F3F3F3" stroke="#838383" d="M282.3,45.2c-1.7,0-3.1,1.4-3.1,3.1h33.7c0-1.7-1.4-3.1-3.1-3.1H282.3z"/>
	<path fill="#F3F3F3" stroke="#838383" d="M312.9,48.2h-33.7c0,0-6.9,39.8,16.9,39.8C319.8,88.1,312.9,48.2,312.9,48.2z"/>
	<circle fill="#F3F3F3" stroke="#838383" cx="296.1" cy="37.5" r="3.1"/>
</g>
<g id="moyka_6_">
	<path fill="#F3F3F3" stroke="#838383" d="M164.7,397.1c0,0.9,0.7,1.6,1.6,1.6h33c0.9,0,1.6-0.7,1.6-1.6v-49.5
		c0-0.9-0.7-1.6-1.6-1.6h-33c-0.9,0-1.6,0.7-1.6,1.6V397.1z"/>
	<rect x="169.6" y="346" fill="#F3F3F3" stroke="#838383" width="3.3" height="52.8"/>
	<ellipse fill="#F3F3F3" stroke="#838383" cx="186.9" cy="371.6" rx="10.7" ry="17.3"/>
	<rect x="169.6" y="370.7" fill="#F3F3F3" stroke="#838383" width="13.2" height="3.3"/>
	<circle fill="#F3F3F3" stroke="#838383" cx="188.6" cy="373.2" r="2.5"/>
</g>
<g id="moyka_7_">
	<path fill="#F3F3F3" stroke="#838383" d="M364.7,101.4c0-0.9-0.7-1.6-1.6-1.6h-33c-0.9,0-1.6,0.7-1.6,1.6v49.5
		c0,0.9,0.7,1.6,1.6,1.6h33c0.9,0,1.6-0.7,1.6-1.6V101.4z"/>
	<rect x="356.5" y="99.8" fill="#F3F3F3" stroke="#838383" width="3.3" height="52.8"/>
	<ellipse fill="#F3F3F3" stroke="#838383" cx="342.4" cy="127" rx="10.7" ry="17.3"/>
	<rect x="346.6" y="124.5" fill="#F3F3F3" stroke="#838383" width="13.2" height="3.3"/>
	<circle fill="#F3F3F3" stroke="#838383" cx="340.8" cy="125.4" r="2.5"/>
</g>
<g id="stirka_4_">
	<rect x="164.5" y="293.7" fill="#F3F3F3" stroke="#838383" width="47" height="47"/>
	<path fill="#F3F3F3" stroke="#838383" d="M169.2,337.6c1.7,0,3.1-1.4,3.1-3.1v-11c0-1.7-1.4-3.1-3.1-3.1h-4.7v17.2H169.2z"/>
	<circle fill="#F3F3F3" stroke="#838383" cx="189.5" cy="317.2" r="12.5"/>
	<circle fill="#F3F3F3" stroke="#838383" cx="189.5" cy="317.2" r="9.4"/>
	<circle fill="#F3F3F3" stroke="#838383" cx="172.3" cy="301.5" r="3.1"/>
</g>
<g id="vanna_4_">
	<rect x="164.6" y="402" fill="#F3F3F3" stroke="#838383" width="141.1" height="55.3"/>
	<path fill="#F3F3F3" stroke="#838383" d="M297,420.9c0-8-6.5-14.5-14.5-14.5H185v46.6h97.5c8,0,14.5-6.5,14.5-14.5V420.9z"/>
	<path fill="#F3F3F3" stroke="#838383" d="M182.8,431.1v11.6h-5.1v-19.6"/>
	<path id="Union_4_" fill="#F3F3F3" stroke="#838383" d="M176.3,420.7c-1.7-0.6-2.9-2.2-2.9-4.1c0-2.4,2-4.4,4.4-4.4
		c2.4,0,4.4,2,4.4,4.4c0,1.9-1.2,3.5-2.9,4.1v1.7c0,0.8-0.7,1.5-1.5,1.5c-0.8,0-1.5-0.7-1.5-1.5V420.7z"/>
	<rect x="180.6" y="428.2" fill="#F3F3F3" stroke="#838383" width="11.6" height="2.9"/>
</g>
<rect x="144.3" y="783.8" fill="#838383" stroke="#000000" stroke-miterlimit="10" width="94.5" height="12"/>
<rect x="144.3" y="467.6" fill="#838383" stroke="#000000" stroke-miterlimit="10" width="25.1" height="316.2"/>
<rect x="169.4" y="763" fill="#838383" stroke="#000000" stroke-miterlimit="10" width="66.9" height="20.8"/>
<rect x="359" y="783.8" fill="#838383" stroke="#000000" stroke-miterlimit="10" width="110.9" height="12"/>
<rect x="362.1" y="763" fill="#838383" stroke="#000000" stroke-miterlimit="10" width="75.4" height="20.8"/>
<rect x="437.5" y="496.1" fill="#838383" stroke="#000000" stroke-miterlimit="10" width="19.7" height="287.7"/>
<rect x="457.1" y="680.2" fill="#838383" stroke="#000000" stroke-miterlimit="10" width="114.5" height="12.8"/>
<rect x="457.1" y="660.3" fill="#838383" stroke="#000000" stroke-miterlimit="10" width="111.2" height="19.9"/>
<rect x="457.1" y="693.1" fill="#838383" stroke="#000000" stroke-miterlimit="10" width="12.8" height="90.7"/>
<rect x="715.9" y="660.3" fill="#838383" stroke="#000000" stroke-miterlimit="10" width="17.5" height="19.9"/>
<rect x="711" y="680.2" fill="#838383" stroke="#000000" stroke-miterlimit="10" width="22.4" height="12.8"/>
<rect x="733.4" y="390.6" fill="#838383" stroke="#000000" stroke-miterlimit="10" width="20.2" height="405.2"/>
<rect x="753.6" y="387" fill="#838383" stroke="#000000" stroke-miterlimit="10" width="12.2" height="408.8"/>
<rect x="733.4" y="5.8" fill="#838383" stroke="#000000" stroke-miterlimit="10" width="20.2" height="179.1"/>
<rect x="753.6" y="5.8" fill="#838383" stroke="#000000" stroke-miterlimit="10" width="12.2" height="182.8"/>
<rect x="48.6" y="5.8" fill="#838383" stroke="#000000" stroke-miterlimit="10" width="684.8" height="25"/>
<rect x="144.3" y="152.6" fill="#838383" stroke="#000000" stroke-miterlimit="10" width="19.1" height="315.1"/>
<rect x="48.6" y="152.6" fill="#838383" stroke="#000000" stroke-miterlimit="10" width="95.6" height="19.4"/>
<rect x="427.9" y="152.6" fill="#838383" stroke="#000000" stroke-miterlimit="10" width="40.6" height="40.6"/>
<rect x="48.6" y="112.4" fill="#838383" stroke="#000000" stroke-miterlimit="10" width="24.6" height="40.2"/>
<rect x="163.4" y="243.4" fill="#C6C6C6" stroke="#000000" stroke-miterlimit="10" width="156" height="7"/>
<rect x="312.5" y="250.3" fill="#C6C6C6" stroke="#000000" stroke-miterlimit="10" width="7" height="68.7"/>
<rect x="312.5" y="385" fill="#C6C6C6" stroke="#000000" stroke-miterlimit="10" width="7" height="82.7"/>
<rect x="163.4" y="460.7" fill="#C6C6C6" stroke="#000000" stroke-miterlimit="10" width="149.1" height="7"/>
<rect x="169.4" y="473" fill="#C6C6C6" stroke="#000000" stroke-miterlimit="10" width="163.5" height="8.1"/>
<rect x="319.4" y="396" fill="#C6C6C6" stroke="#000000" stroke-miterlimit="10" width="27.9" height="8.1"/>
<rect x="324.8" y="404.2" fill="#C6C6C6" stroke="#000000" stroke-miterlimit="10" width="8.1" height="68.8"/>
<rect x="422.3" y="396" fill="#C6C6C6" stroke="#000000" stroke-miterlimit="10" width="34.8" height="8.1"/>
<rect x="531.3" y="396" fill="#C6C6C6" stroke="#000000" stroke-miterlimit="10" width="202.1" height="8.1"/>
<rect x="437.5" y="404.7" fill="#C6C6C6" stroke="#000000" stroke-miterlimit="10" width="8.1" height="91.4"/>
<rect x="259.3" y="152.6" fill="#C6C6C6" stroke="#000000" stroke-miterlimit="10" width="168.6" height="7"/>
<rect x="259.3" y="30.8" fill="#C6C6C6" stroke="#000000" stroke-miterlimit="10" width="7" height="51.8"/>
<rect x="259.3" y="148.5" fill="#C6C6C6" stroke="#000000" stroke-miterlimit="10" width="7" height="4.1"/>
<rect x="363.9" y="55.8" fill="#C6C6C6" stroke="#000000" stroke-miterlimit="10" width="7" height="96.7"/>
<rect x="388.8" y="30.8" fill="#C6C6C6" stroke="#000000" stroke-miterlimit="10" width="7" height="121.7"/>
<rect x="226.2" y="250.3" fill="#C6C6C6" stroke="#000000" stroke-miterlimit="10" width="7" height="43.2"/>
<rect x="163.4" y="286.6" fill="#C6C6C6" stroke="#000000" stroke-miterlimit="10" width="38.7" height="7"/>
<rect x="202.1" y="290.1" fill="#C6C6C6" stroke="#000000" stroke-miterlimit="10" width="24.1" height="3.5"/>
<rect x="363.9" y="31.4" fill="#C6C6C6" stroke="#000000" stroke-miterlimit="10" width="3.5" height="24.5"/>
<g>
	<path d="M616.1,120.1h-2.6v5.3h-1.2v-11.5h1.2v5.1h2.6l3.9-5.1h1.3l-4.3,5.6l4.5,5.9h-1.4L616.1,120.1z"/>
	<path d="M630.4,116.7l-4.3,9.7c-0.3,0.8-0.8,1.4-1.2,1.7s-1,0.5-1.7,0.5c-0.4,0-0.8-0.1-1.2-0.2c-0.4-0.1-0.7-0.3-0.9-0.6l0.5-0.9
		c0.4,0.4,1,0.7,1.6,0.7c0.4,0,0.7-0.1,1-0.3c0.3-0.2,0.5-0.6,0.8-1.1l0.4-0.8l-3.9-8.6h1.2l3.2,7.3l3.2-7.3H630.4z"/>
	<path d="M637.2,125.4l-2.7-3.6l-2.8,3.6h-1.3l3.4-4.4l-3.2-4.2h1.3l2.6,3.4l2.6-3.4h1.3l-3.2,4.2l3.4,4.4H637.2z"/>
	<path d="M640.4,116.7h1.2v3.8h5.4v-3.8h1.2v8.6H647v-3.8h-5.4v3.8h-1.2V116.7z"/>
	<path d="M658.1,116.7v8.6H657v-2.9h-2.7H654l-2,2.9h-1.3l2.1-3c-0.7-0.2-1.2-0.5-1.5-1c-0.4-0.4-0.5-1-0.5-1.7c0-1,0.3-1.7,1-2.2
		c0.7-0.5,1.6-0.8,2.7-0.8H658.1z M654.4,121.6h2.6v-3.9h-2.5c-1.7,0-2.5,0.7-2.5,2C652,121,652.8,121.6,654.4,121.6z"/>
	<path d="M660.7,120.4h4.3v1h-4.3V120.4z"/>
	<path d="M613.3,144.6c-0.7-0.4-1.2-0.9-1.6-1.6c-0.4-0.7-0.6-1.4-0.6-2.3s0.2-1.6,0.6-2.3c0.4-0.7,0.9-1.2,1.6-1.6
		c0.7-0.4,1.4-0.6,2.3-0.6c0.7,0,1.4,0.1,2,0.4c0.6,0.3,1,0.7,1.4,1.3l-0.9,0.6c-0.3-0.4-0.6-0.7-1.1-1c-0.4-0.2-0.9-0.3-1.4-0.3
		c-0.6,0-1.2,0.1-1.7,0.4c-0.5,0.3-0.9,0.7-1.2,1.2c-0.3,0.5-0.4,1.1-0.4,1.8c0,0.7,0.1,1.3,0.4,1.8c0.3,0.5,0.7,0.9,1.2,1.2
		c0.5,0.3,1.1,0.4,1.7,0.4c0.5,0,1-0.1,1.4-0.3c0.4-0.2,0.8-0.5,1.1-1l0.9,0.6c-0.3,0.6-0.8,1-1.4,1.3c-0.6,0.3-1.3,0.4-2,0.4
		C614.8,145.1,614,144.9,613.3,144.6z"/>
	<path d="M627.1,137.4h-3.3v7.6h-1.2v-7.6h-3.3v-1h7.7V137.4z"/>
	<path d="M629.8,144.6c-0.7-0.4-1.2-0.9-1.6-1.6c-0.4-0.7-0.6-1.4-0.6-2.3s0.2-1.6,0.6-2.3c0.4-0.7,0.9-1.2,1.6-1.6
		c0.7-0.4,1.4-0.6,2.2-0.6s1.6,0.2,2.2,0.6c0.7,0.4,1.2,0.9,1.6,1.6c0.4,0.7,0.6,1.4,0.6,2.3s-0.2,1.6-0.6,2.3
		c-0.4,0.7-0.9,1.2-1.6,1.6c-0.7,0.4-1.4,0.6-2.2,0.6S630.4,144.9,629.8,144.6z M633.6,143.7c0.5-0.3,0.9-0.7,1.1-1.2
		c0.3-0.5,0.4-1.1,0.4-1.8c0-0.7-0.1-1.2-0.4-1.8c-0.3-0.5-0.7-0.9-1.1-1.2c-0.5-0.3-1-0.4-1.6-0.4s-1.2,0.1-1.6,0.4
		c-0.5,0.3-0.9,0.7-1.1,1.2c-0.3,0.5-0.4,1.1-0.4,1.8c0,0.7,0.1,1.2,0.4,1.8c0.3,0.5,0.7,0.9,1.1,1.2s1,0.4,1.6,0.4
		S633.2,143.9,633.6,143.7z"/>
	<path d="M645.9,136.4v8.6h-1.2v-7.6h-4.1l-0.1,2.1c-0.1,1.8-0.3,3.2-0.6,4.1s-0.9,1.4-1.8,1.4c-0.2,0-0.5,0-0.8-0.1l0.1-1
		c0.2,0,0.3,0.1,0.4,0.1c0.4,0,0.8-0.2,1-0.6c0.2-0.4,0.4-0.9,0.5-1.5c0.1-0.6,0.1-1.4,0.2-2.4l0.1-3.1H645.9z"/>
	<path d="M650.5,144.6c-0.7-0.4-1.2-0.9-1.6-1.6c-0.4-0.7-0.6-1.4-0.6-2.3s0.2-1.6,0.6-2.3c0.4-0.7,0.9-1.2,1.6-1.6
		c0.7-0.4,1.4-0.6,2.2-0.6s1.6,0.2,2.2,0.6c0.7,0.4,1.2,0.9,1.6,1.6c0.4,0.7,0.6,1.4,0.6,2.3s-0.2,1.6-0.6,2.3
		c-0.4,0.7-0.9,1.2-1.6,1.6c-0.7,0.4-1.4,0.6-2.2,0.6S651.2,144.9,650.5,144.6z M654.4,143.7c0.5-0.3,0.9-0.7,1.1-1.2
		c0.3-0.5,0.4-1.1,0.4-1.8c0-0.7-0.1-1.2-0.4-1.8c-0.3-0.5-0.7-0.9-1.1-1.2c-0.5-0.3-1-0.4-1.6-0.4s-1.2,0.1-1.6,0.4
		c-0.5,0.3-0.9,0.7-1.1,1.2c-0.3,0.5-0.4,1.1-0.4,1.8c0,0.7,0.1,1.2,0.4,1.8c0.3,0.5,0.7,0.9,1.1,1.2s1,0.4,1.6,0.4
		S653.9,143.9,654.4,143.7z"/>
	<path d="M666.9,142.7c0,0.8-0.3,1.3-0.8,1.7s-1.4,0.6-2.5,0.6h-3.9v-8.6h3.8c1,0,1.8,0.2,2.3,0.6c0.6,0.4,0.8,0.9,0.8,1.6
		c0,0.5-0.1,0.9-0.4,1.2c-0.3,0.3-0.6,0.6-1.1,0.7C666.3,140.8,666.9,141.6,666.9,142.7z M660.7,140.2h2.6c0.7,0,1.2-0.1,1.5-0.4
		c0.4-0.3,0.5-0.6,0.5-1.1c0-0.5-0.2-0.8-0.5-1.1s-0.9-0.4-1.5-0.4h-2.6V140.2z M665.2,143.8c0.4-0.2,0.6-0.6,0.6-1.1
		s-0.2-0.9-0.5-1.1s-0.9-0.4-1.6-0.4h-2.9v3h2.7C664.2,144.1,664.8,144,665.2,143.8z"/>
	<path d="M675.1,137.2c0.6,0.6,0.9,1.4,0.9,2.5v5.3h-1.1v-1.3c-0.3,0.4-0.6,0.8-1.2,1c-0.5,0.3-1.1,0.4-1.8,0.4
		c-1,0-1.7-0.2-2.3-0.7s-0.9-1.1-0.9-1.8c0-0.7,0.3-1.3,0.8-1.8s1.4-0.7,2.5-0.7h2.7v-0.5c0-0.7-0.2-1.3-0.6-1.7
		c-0.4-0.4-1-0.6-1.8-0.6c-0.5,0-1.1,0.1-1.6,0.3c-0.5,0.2-0.9,0.4-1.3,0.7l-0.5-0.9c0.4-0.4,1-0.7,1.6-0.9c0.6-0.2,1.3-0.3,1.9-0.3
		C673.7,136.3,674.5,136.6,675.1,137.2z M673.8,143.7c0.5-0.3,0.8-0.7,1-1.3V141h-2.7c-1.5,0-2.2,0.5-2.2,1.5c0,0.5,0.2,0.9,0.6,1.2
		c0.4,0.3,0.9,0.4,1.6,0.4C672.8,144.2,673.4,144,673.8,143.7z"/>
	<path d="M685.8,136.4v8.6h-1.1v-2.9H682h-0.3l-2,2.9h-1.3l2.1-3c-0.7-0.2-1.2-0.5-1.5-1c-0.4-0.4-0.5-1-0.5-1.7c0-1,0.3-1.7,1-2.2
		c0.7-0.5,1.6-0.8,2.7-0.8H685.8z M682.1,141.3h2.6v-3.9h-2.5c-1.7,0-2.5,0.7-2.5,2C679.6,140.7,680.5,141.3,682.1,141.3z"/>
	<path d="M621.4,167.8v1.8h-10.3v-1.4l5.8-5.6c0.7-0.7,1.2-1.3,1.4-1.8s0.4-1,0.4-1.5c0-0.8-0.3-1.3-0.8-1.8
		c-0.5-0.4-1.3-0.6-2.3-0.6c-1.6,0-2.8,0.5-3.7,1.6l-1.4-1.2c0.6-0.7,1.3-1.2,2.2-1.6c0.9-0.4,1.9-0.6,3-0.6c1.5,0,2.7,0.4,3.6,1.1
		c0.9,0.7,1.3,1.7,1.3,2.9c0,0.8-0.2,1.5-0.5,2.2c-0.3,0.7-1,1.5-1.9,2.3l-4.4,4.2H621.4z"/>
	<path d="M625.9,168.9c-0.9-0.6-1.6-1.4-2.1-2.5c-0.5-1.1-0.8-2.4-0.8-3.9s0.3-2.8,0.8-3.9c0.5-1.1,1.2-2,2.1-2.5
		c0.9-0.6,1.9-0.9,3-0.9c1.1,0,2.1,0.3,3,0.9c0.9,0.6,1.6,1.4,2.1,2.5c0.5,1.1,0.8,2.4,0.8,3.9s-0.3,2.8-0.8,3.9
		c-0.5,1.1-1.2,2-2.1,2.5c-0.9,0.6-1.9,0.9-3,0.9C627.8,169.8,626.8,169.5,625.9,168.9z M631.7,166.6c0.7-0.9,1-2.3,1-4.1
		c0-1.8-0.3-3.2-1-4.1c-0.7-0.9-1.6-1.4-2.8-1.4c-1.2,0-2.1,0.5-2.8,1.4c-0.7,0.9-1,2.3-1,4.1c0,1.8,0.3,3.2,1,4.1
		c0.7,0.9,1.6,1.4,2.8,1.4C630.1,168,631,167.5,631.7,166.6z"/>
	<path d="M638.8,167.3c0.3,0.3,0.4,0.6,0.4,1c0,0.2,0,0.4-0.1,0.6c0,0.2-0.1,0.5-0.3,0.9l-1,2.8h-1.3l0.8-3.1
		c-0.3-0.1-0.5-0.3-0.6-0.5c-0.2-0.2-0.2-0.5-0.2-0.8c0-0.4,0.1-0.7,0.4-1c0.3-0.3,0.6-0.4,1-0.4
		C638.2,166.9,638.5,167.1,638.8,167.3z"/>
	<path d="M649.6,161.5c0.7,0.4,1.3,0.9,1.8,1.5c0.4,0.7,0.6,1.4,0.6,2.3c0,0.9-0.2,1.7-0.7,2.4c-0.4,0.7-1.1,1.2-1.8,1.6
		c-0.8,0.4-1.6,0.6-2.6,0.6c-1.9,0-3.4-0.6-4.5-1.9s-1.6-3-1.6-5.3c0-1.6,0.3-3,0.9-4.1c0.6-1.1,1.4-2,2.4-2.6
		c1-0.6,2.2-0.9,3.6-0.9c0.7,0,1.4,0.1,2,0.2s1.1,0.4,1.6,0.6l-0.8,1.6c-0.7-0.5-1.6-0.7-2.7-0.7c-1.5,0-2.7,0.5-3.5,1.4
		c-0.8,0.9-1.3,2.3-1.3,4c0,0.2,0,0.4,0,0.5c0.4-0.6,1-1.1,1.7-1.4c0.7-0.3,1.5-0.5,2.4-0.5C648,160.9,648.9,161.1,649.6,161.5z
		 M649.1,167.4c0.6-0.5,0.9-1.2,0.9-2c0-0.8-0.3-1.5-0.9-2c-0.6-0.5-1.4-0.7-2.4-0.7c-0.6,0-1.2,0.1-1.7,0.4s-0.9,0.6-1.2,1
		c-0.3,0.4-0.4,0.9-0.4,1.4c0,0.5,0.1,1,0.4,1.4c0.3,0.4,0.7,0.8,1.2,1c0.5,0.3,1.1,0.4,1.8,0.4
		C647.8,168.1,648.5,167.9,649.1,167.4z"/>
</g>
<g>
	<path d="M342.2,518.1c-0.9-0.5-1.6-1.2-2.1-2.1c-0.5-0.9-0.8-1.9-0.8-3c0-1.1,0.3-2.1,0.8-3c0.5-0.9,1.2-1.6,2.2-2.1
		c0.9-0.5,1.9-0.8,3.1-0.8c0.9,0,1.6,0.1,2.4,0.4c0.7,0.3,1.3,0.7,1.8,1.2l-0.8,0.8c-0.9-0.9-2-1.4-3.4-1.4c-0.9,0-1.7,0.2-2.5,0.6
		c-0.7,0.4-1.3,1-1.7,1.7c-0.4,0.7-0.6,1.5-0.6,2.4c0,0.9,0.2,1.7,0.6,2.4c0.4,0.7,1,1.3,1.7,1.7c0.7,0.4,1.6,0.6,2.5,0.6
		c1.4,0,2.5-0.5,3.4-1.4l0.8,0.8c-0.5,0.5-1.1,1-1.8,1.3s-1.5,0.4-2.4,0.4C344.1,518.8,343.1,518.6,342.2,518.1z"/>
	<path d="M359.5,510.1v8.6h-1.2v-7.6h-5.4v7.6h-1.2v-8.6H359.5z"/>
	<path d="M368.3,510.9c0.6,0.6,0.9,1.4,0.9,2.5v5.3h-1.1v-1.3c-0.3,0.4-0.6,0.8-1.2,1c-0.5,0.3-1.1,0.4-1.8,0.4
		c-1,0-1.7-0.2-2.3-0.7s-0.9-1.1-0.9-1.8c0-0.7,0.3-1.3,0.8-1.8s1.4-0.7,2.5-0.7h2.7v-0.5c0-0.7-0.2-1.3-0.6-1.7
		c-0.4-0.4-1-0.6-1.8-0.6c-0.5,0-1.1,0.1-1.6,0.3c-0.5,0.2-0.9,0.4-1.3,0.7l-0.5-0.9c0.4-0.4,1-0.7,1.6-0.9s1.3-0.3,1.9-0.3
		C366.9,510,367.7,510.3,368.3,510.9z M367,517.4c0.5-0.3,0.8-0.7,1-1.3v-1.4h-2.7c-1.5,0-2.2,0.5-2.2,1.5c0,0.5,0.2,0.9,0.6,1.2
		c0.4,0.3,0.9,0.4,1.6,0.4C366,517.9,366.6,517.7,367,517.4z"/>
	<path d="M379.4,510.1v8.6h-1.2v-7.6h-4.1l-0.1,2.1c-0.1,1.8-0.3,3.2-0.6,4.1c-0.3,1-0.9,1.4-1.8,1.4c-0.2,0-0.5,0-0.8-0.1l0.1-1
		c0.2,0,0.3,0.1,0.4,0.1c0.4,0,0.8-0.2,1-0.6c0.2-0.4,0.4-0.9,0.5-1.5c0.1-0.6,0.1-1.4,0.2-2.4l0.1-3.1H379.4z"/>
	<path d="M388.9,513.9c0.6,0.5,0.8,1.1,0.8,2c0,0.9-0.3,1.6-0.9,2.1s-1.5,0.7-2.6,0.7l-3.5,0v-8.6h1.2v3l2.5,0
		C387.5,513.2,388.3,513.4,388.9,513.9z M387.9,517.4c0.4-0.3,0.6-0.8,0.6-1.5c0-0.6-0.2-1.1-0.6-1.4c-0.4-0.3-1-0.5-1.8-0.5l-2.2,0
		v3.8l2.2,0C386.9,517.9,387.5,517.7,387.9,517.4z"/>
	<path d="M391.9,510.1h1.2v3.8h5.4v-3.8h1.2v8.6h-1.2v-3.8h-5.4v3.8h-1.2V510.1z"/>
	<path d="M409.6,510.1v8.6h-1.1v-2.9h-2.7h-0.3l-2,2.9h-1.3l2.1-3c-0.7-0.2-1.2-0.5-1.5-1c-0.4-0.4-0.5-1-0.5-1.7c0-1,0.3-1.7,1-2.2
		c0.7-0.5,1.6-0.8,2.7-0.8H409.6z M405.9,515h2.6v-3.9H406c-1.7,0-2.5,0.7-2.5,2C403.5,514.4,404.3,515,405.9,515z"/>
	<path d="M343.8,529v14.3h-2v-12.6h-3.2V529H343.8z"/>
	<path d="M357,541.5v1.8h-10.3v-1.4l5.8-5.6c0.7-0.7,1.2-1.3,1.4-1.8s0.4-1,0.4-1.5c0-0.8-0.3-1.3-0.8-1.8c-0.5-0.4-1.3-0.6-2.3-0.6
		c-1.6,0-2.8,0.5-3.7,1.6l-1.4-1.2c0.6-0.7,1.3-1.2,2.2-1.6c0.9-0.4,1.9-0.6,3-0.6c1.5,0,2.7,0.4,3.6,1.1c0.9,0.7,1.3,1.7,1.3,2.9
		c0,0.8-0.2,1.5-0.5,2.2c-0.3,0.7-0.9,1.5-1.9,2.3l-4.4,4.2H357z"/>
	<path d="M361.2,541c0.3,0.3,0.4,0.6,0.4,1c0,0.2,0,0.4-0.1,0.6c0,0.2-0.1,0.5-0.3,0.9l-1,2.8H359l0.8-3.1c-0.3-0.1-0.5-0.3-0.6-0.5
		c-0.2-0.2-0.2-0.5-0.2-0.8c0-0.4,0.1-0.7,0.4-1c0.3-0.3,0.6-0.4,1-0.4C360.6,540.6,360.9,540.8,361.2,541z"/>
	<path d="M372.4,536.3c0.7,0.7,1.1,1.7,1.1,2.8c0,0.8-0.2,1.6-0.6,2.2c-0.4,0.7-1,1.2-1.8,1.6c-0.8,0.4-1.8,0.6-3,0.6
		c-1,0-2-0.2-3-0.5c-0.9-0.3-1.7-0.7-2.3-1.3l0.9-1.6c0.5,0.5,1.1,0.8,1.9,1.1s1.6,0.4,2.4,0.4c1.1,0,1.9-0.2,2.5-0.7
		c0.6-0.5,0.9-1.1,0.9-1.9c0-0.8-0.3-1.4-0.9-1.8s-1.5-0.7-2.7-0.7h-1.1v-1.4l3.6-4.4h-6.9V529h9.5v1.4l-3.8,4.6
		C370.6,535.1,371.7,535.6,372.4,536.3z"/>
</g>
<g>
	<path d="M528.9,527.1c-0.9-0.5-1.6-1.2-2.1-2.1c-0.5-0.9-0.8-1.9-0.8-3c0-1.1,0.3-2.1,0.8-3c0.5-0.9,1.2-1.6,2.2-2.1
		s1.9-0.8,3.1-0.8c0.9,0,1.6,0.1,2.4,0.4c0.7,0.3,1.3,0.7,1.8,1.2l-0.8,0.8c-0.9-0.9-2-1.4-3.4-1.4c-0.9,0-1.7,0.2-2.5,0.6
		c-0.7,0.4-1.3,1-1.7,1.7c-0.4,0.7-0.6,1.5-0.6,2.4c0,0.9,0.2,1.7,0.6,2.4c0.4,0.7,1,1.3,1.7,1.7c0.7,0.4,1.6,0.6,2.5,0.6
		c1.4,0,2.5-0.5,3.4-1.4l0.8,0.8c-0.5,0.5-1.1,1-1.8,1.3s-1.5,0.4-2.4,0.4C530.8,527.9,529.8,527.6,528.9,527.1z"/>
	<path d="M546.1,519.2v8.6H545v-7.6h-5.4v7.6h-1.2v-8.6H546.1z"/>
	<path d="M555,519.9c0.6,0.6,0.9,1.4,0.9,2.5v5.3h-1.1v-1.3c-0.3,0.4-0.6,0.8-1.2,1c-0.5,0.3-1.1,0.4-1.8,0.4c-1,0-1.7-0.2-2.3-0.7
		s-0.9-1.1-0.9-1.8c0-0.7,0.3-1.3,0.8-1.8s1.4-0.7,2.5-0.7h2.7v-0.5c0-0.7-0.2-1.3-0.6-1.7c-0.4-0.4-1-0.6-1.8-0.6
		c-0.5,0-1.1,0.1-1.6,0.3c-0.5,0.2-0.9,0.4-1.3,0.7l-0.5-0.9c0.4-0.4,1-0.7,1.6-0.9c0.6-0.2,1.3-0.3,1.9-0.3
		C553.5,519.1,554.4,519.4,555,519.9z M553.7,526.5c0.5-0.3,0.8-0.7,1-1.3v-1.4H552c-1.5,0-2.2,0.5-2.2,1.5c0,0.5,0.2,0.9,0.6,1.2
		c0.4,0.3,0.9,0.4,1.6,0.4C552.7,526.9,553.2,526.8,553.7,526.5z"/>
	<path d="M566.1,519.2v8.6h-1.2v-7.6h-4.1l-0.1,2.1c-0.1,1.8-0.3,3.2-0.6,4.1s-0.9,1.4-1.8,1.4c-0.2,0-0.5,0-0.8-0.1l0.1-1
		c0.2,0,0.3,0.1,0.4,0.1c0.4,0,0.8-0.2,1-0.6c0.2-0.4,0.4-0.9,0.5-1.5c0.1-0.6,0.1-1.4,0.2-2.4l0.1-3.1H566.1z"/>
	<path d="M575.5,522.9c0.6,0.5,0.8,1.1,0.8,2c0,0.9-0.3,1.6-0.9,2.1s-1.5,0.7-2.6,0.7l-3.5,0v-8.6h1.2v3l2.5,0
		C574.2,522.2,575,522.5,575.5,522.9z M574.6,526.4c0.4-0.3,0.6-0.8,0.6-1.5c0-0.6-0.2-1.1-0.6-1.4c-0.4-0.3-1-0.5-1.8-0.5l-2.2,0
		v3.8l2.2,0C573.6,526.9,574.2,526.8,574.6,526.4z"/>
	<path d="M578.6,519.2h1.2v3.8h5.4v-3.8h1.2v8.6h-1.2V524h-5.4v3.8h-1.2V519.2z"/>
	<path d="M596.3,519.2v8.6h-1.1v-2.9h-2.7h-0.3l-2,2.9h-1.3l2.1-3c-0.7-0.2-1.2-0.5-1.5-1c-0.4-0.4-0.5-1-0.5-1.7c0-1,0.3-1.7,1-2.2
		c0.7-0.5,1.6-0.8,2.7-0.8H596.3z M592.6,524.1h2.6v-3.9h-2.5c-1.7,0-2.5,0.7-2.5,2C590.2,523.4,591,524.1,592.6,524.1z"/>
	<path d="M530.4,538v14.3h-2v-12.6h-3.2V538H530.4z"/>
	<path d="M536.4,551.7c-0.9-0.6-1.6-1.4-2.1-2.5c-0.5-1.1-0.8-2.4-0.8-3.9s0.3-2.8,0.8-3.9c0.5-1.1,1.2-2,2.1-2.5
		c0.9-0.6,1.9-0.9,3-0.9c1.1,0,2.1,0.3,3,0.9c0.9,0.6,1.6,1.4,2.1,2.5c0.5,1.1,0.8,2.4,0.8,3.9s-0.3,2.8-0.8,3.9
		c-0.5,1.1-1.2,2-2.1,2.5c-0.9,0.6-1.9,0.9-3,0.9C538.3,552.5,537.3,552.2,536.4,551.7z M542.2,549.3c0.7-0.9,1-2.3,1-4.1
		c0-1.8-0.3-3.2-1-4.1c-0.7-0.9-1.6-1.4-2.8-1.4c-1.2,0-2.1,0.5-2.8,1.4c-0.7,0.9-1,2.3-1,4.1c0,1.8,0.3,3.2,1,4.1
		c0.7,0.9,1.6,1.4,2.8,1.4C540.6,550.7,541.5,550.2,542.2,549.3z"/>
	<path d="M549.3,550.1c0.3,0.3,0.4,0.6,0.4,1c0,0.2,0,0.4-0.1,0.6c0,0.2-0.1,0.5-0.3,0.9l-1,2.8h-1.3l0.8-3.1
		c-0.3-0.1-0.5-0.3-0.6-0.5c-0.2-0.2-0.2-0.5-0.2-0.8c0-0.4,0.1-0.7,0.4-1c0.3-0.3,0.6-0.4,1-0.4
		C548.8,549.7,549.1,549.8,549.3,550.1z"/>
	<path d="M560.1,544.2c0.7,0.4,1.3,0.9,1.8,1.5c0.4,0.7,0.6,1.4,0.6,2.3c0,0.9-0.2,1.7-0.7,2.4c-0.4,0.7-1.1,1.2-1.8,1.6
		c-0.8,0.4-1.6,0.6-2.6,0.6c-1.9,0-3.4-0.6-4.5-1.9s-1.6-3-1.6-5.3c0-1.6,0.3-3,0.9-4.1c0.6-1.1,1.4-2,2.4-2.6
		c1-0.6,2.2-0.9,3.6-0.9c0.7,0,1.4,0.1,2,0.2s1.1,0.4,1.6,0.6l-0.8,1.6c-0.7-0.5-1.6-0.7-2.7-0.7c-1.5,0-2.7,0.5-3.5,1.4
		c-0.8,0.9-1.3,2.3-1.3,4c0,0.2,0,0.4,0,0.5c0.4-0.6,1-1.1,1.7-1.4c0.7-0.3,1.5-0.5,2.4-0.5C558.5,543.7,559.4,543.8,560.1,544.2z
		 M559.6,550.1c0.6-0.5,0.9-1.2,0.9-2c0-0.8-0.3-1.5-0.9-2c-0.6-0.5-1.4-0.7-2.4-0.7c-0.6,0-1.2,0.1-1.7,0.4s-0.9,0.6-1.2,1
		c-0.3,0.4-0.4,0.9-0.4,1.4c0,0.5,0.1,1,0.4,1.4c0.3,0.4,0.7,0.8,1.2,1c0.5,0.3,1.1,0.4,1.8,0.4
		C558.3,550.9,559.1,550.6,559.6,550.1z"/>
</g>
<g>
	<path d="M232.8,197.7c1,0.8,1.4,1.8,1.4,3.2c0,0.8-0.2,1.6-0.6,2.3c-0.4,0.7-1,1.2-1.8,1.6c-0.8,0.4-1.8,0.6-3,0.6
		c-1,0-2-0.2-2.9-0.5c-0.9-0.3-1.7-0.7-2.3-1.3l0.9-1.6c0.5,0.5,1.1,0.8,1.9,1.1c0.8,0.3,1.6,0.4,2.4,0.4c1.1,0,1.9-0.2,2.5-0.7
		c0.6-0.5,0.9-1.1,0.9-1.9c0-0.9-0.3-1.5-1-2s-1.8-0.7-3.4-0.7h-3.3l0.8-7.5h8.1v1.8H227l-0.4,3.9h1.6
		C230.3,196.5,231.8,196.9,232.8,197.7z"/>
	<path d="M238.2,202.9c0.3,0.3,0.4,0.6,0.4,1c0,0.2,0,0.4-0.1,0.6c0,0.2-0.1,0.5-0.3,0.9l-1,2.8H236l0.8-3.1
		c-0.3-0.1-0.5-0.3-0.6-0.5c-0.2-0.2-0.2-0.5-0.2-0.8c0-0.4,0.1-0.7,0.4-1c0.3-0.3,0.6-0.4,1-0.4C237.7,202.5,238,202.6,238.2,202.9
		z"/>
	<path d="M252.9,201.6h-2.7v3.5h-2v-3.5h-8v-1.4l7.3-9.4h2.2l-7,9.1h5.5v-3.1h1.9v3.1h2.7V201.6z"/>
</g>
<g>
	<path d="M289.1,96.9v14.3h-2V98.7h-3.2v-1.8H289.1z"/>
	<path d="M294.5,109c0.3,0.3,0.4,0.6,0.4,1c0,0.2,0,0.4-0.1,0.6s-0.1,0.5-0.3,0.9l-1,2.8h-1.3l0.8-3.1c-0.3-0.1-0.5-0.3-0.6-0.5
		c-0.2-0.2-0.2-0.5-0.2-0.8c0-0.4,0.1-0.7,0.4-1c0.3-0.3,0.6-0.4,1-0.4C293.9,108.6,294.3,108.7,294.5,109z"/>
	<path d="M307,96.9v1.4l-5.8,13h-2.2l5.7-12.6h-6.6v2.6h-2v-4.3H307z"/>
</g>
<g>
	<path stroke="#000000" stroke-miterlimit="10" d="M544.9,731.7c0.7,0.7,1.1,1.7,1.1,2.8c0,0.8-0.2,1.6-0.6,2.2s-1,1.2-1.8,1.6
		c-0.8,0.4-1.8,0.6-3,0.6c-1,0-2-0.2-3-0.5c-0.9-0.3-1.7-0.7-2.3-1.3l0.9-1.6c0.5,0.5,1.1,0.8,1.9,1.1s1.6,0.4,2.4,0.4
		c1.1,0,1.9-0.2,2.5-0.7c0.6-0.5,0.9-1.1,0.9-1.9c0-0.8-0.3-1.4-0.9-1.8s-1.5-0.7-2.7-0.7h-1.1v-1.4l3.6-4.4h-6.9v-1.8h9.5v1.4
		l-3.8,4.6C543,730.6,544.1,731,544.9,731.7z"/>
	<path stroke="#000000" stroke-miterlimit="10" d="M550.2,736.5c0.3,0.3,0.4,0.6,0.4,1c0,0.2,0,0.4-0.1,0.6c0,0.2-0.1,0.5-0.3,0.9
		l-1,2.8H548l0.8-3.1c-0.3-0.1-0.5-0.3-0.6-0.5c-0.2-0.2-0.2-0.5-0.2-0.8c0-0.4,0.1-0.7,0.4-1c0.3-0.3,0.6-0.4,1-0.4
		C549.6,736.1,549.9,736.2,550.2,736.5z"/>
	<path stroke="#000000" stroke-miterlimit="10" d="M555.1,738c-0.9-0.6-1.6-1.4-2.1-2.5c-0.5-1.1-0.8-2.4-0.8-3.9s0.3-2.8,0.8-3.9
		c0.5-1.1,1.2-2,2.1-2.5c0.9-0.6,1.9-0.9,3-0.9c1.1,0,2.1,0.3,3,0.9c0.9,0.6,1.6,1.4,2.1,2.5c0.5,1.1,0.8,2.4,0.8,3.9
		s-0.3,2.8-0.8,3.9c-0.5,1.1-1.2,2-2.1,2.5c-0.9,0.6-1.9,0.9-3,0.9C557,738.9,556,738.6,555.1,738z M560.9,735.7
		c0.7-0.9,1-2.3,1-4.1c0-1.8-0.3-3.2-1-4.1c-0.7-0.9-1.6-1.4-2.8-1.4c-1.2,0-2.1,0.5-2.8,1.4c-0.7,0.9-1,2.3-1,4.1
		c0,1.8,0.3,3.2,1,4.1c0.7,0.9,1.6,1.4,2.8,1.4C559.3,737.1,560.2,736.6,560.9,735.7z"/>
</g>
<g>
	<path d="M251.1,354.8c0.7,0.7,1.1,1.7,1.1,2.8c0,0.8-0.2,1.6-0.6,2.2s-1,1.2-1.8,1.6c-0.8,0.4-1.8,0.6-3,0.6c-1,0-2-0.2-3-0.5
		c-0.9-0.3-1.7-0.7-2.3-1.3l0.9-1.6c0.5,0.5,1.1,0.8,1.9,1.1s1.6,0.4,2.4,0.4c1.1,0,1.9-0.2,2.5-0.7c0.6-0.5,0.9-1.1,0.9-1.9
		c0-0.8-0.3-1.4-0.9-1.8s-1.5-0.7-2.7-0.7h-1.1v-1.4l3.6-4.4h-6.9v-1.8h9.5v1.4l-3.8,4.6C249.3,353.6,250.4,354,251.1,354.8z"/>
	<path d="M256.4,359.5c0.3,0.3,0.4,0.6,0.4,1c0,0.2,0,0.4-0.1,0.6c0,0.2-0.1,0.5-0.3,0.9l-1,2.8h-1.3l0.8-3.1
		c-0.3-0.1-0.5-0.3-0.6-0.5c-0.2-0.2-0.2-0.5-0.2-0.8c0-0.4,0.1-0.7,0.4-1c0.3-0.3,0.6-0.4,1-0.4
		C255.9,359.1,256.2,359.2,256.4,359.5z"/>
	<path d="M267.9,349.1c1,1.2,1.6,3,1.6,5.3c0,1.6-0.3,3-0.9,4.1c-0.6,1.1-1.4,2-2.4,2.6s-2.2,0.9-3.6,0.9c-0.7,0-1.4-0.1-2-0.2
		c-0.6-0.1-1.1-0.4-1.6-0.6l0.8-1.6c0.7,0.5,1.6,0.7,2.8,0.7c1.5,0,2.7-0.5,3.5-1.4c0.8-0.9,1.3-2.3,1.3-4v-0.5
		c-0.4,0.6-1,1.1-1.7,1.4c-0.7,0.3-1.5,0.5-2.4,0.5c-0.9,0-1.8-0.2-2.5-0.5c-0.7-0.4-1.3-0.9-1.7-1.5c-0.4-0.7-0.6-1.4-0.6-2.3
		c0-0.9,0.2-1.7,0.7-2.4c0.4-0.7,1-1.2,1.8-1.6s1.6-0.6,2.6-0.6C265.3,347.3,266.8,347.9,267.9,349.1z M265.3,354.1
		c0.5-0.2,0.9-0.6,1.2-1c0.3-0.4,0.4-0.9,0.4-1.4c0-0.5-0.1-1-0.4-1.4c-0.3-0.4-0.7-0.8-1.2-1s-1.1-0.4-1.9-0.4
		c-0.9,0-1.7,0.3-2.3,0.8c-0.6,0.5-0.9,1.2-0.9,2c0,0.8,0.3,1.5,0.9,2c0.6,0.5,1.4,0.7,2.4,0.7C264.2,354.5,264.8,354.4,265.3,354.1
		z"/>
</g>
<g>
	
		<rect x="672.2" y="32.3" fill-rule="evenodd" clip-rule="evenodd" fill="#F1F2F2" stroke="#848484" stroke-miterlimit="10" width="43.7" height="3.1"/>
	
		<rect x="672.2" y="32.3" fill-rule="evenodd" clip-rule="evenodd" fill="#F1F2F2" stroke="#848484" stroke-miterlimit="10" width="43.7" height="3.1"/>
	
		<rect x="701.9" y="81.2" fill-rule="evenodd" clip-rule="evenodd" fill="#F1F2F2" stroke="#848484" stroke-miterlimit="10" width="14.4" height="4.2"/>
	
		<rect x="701.9" y="81.2" fill-rule="evenodd" clip-rule="evenodd" fill="#F1F2F2" stroke="#848484" stroke-miterlimit="10" width="14.4" height="4.2"/>
	
		<rect x="670.2" y="35" fill-rule="evenodd" clip-rule="evenodd" fill="#F1F2F2" stroke="#848484" stroke-miterlimit="10" width="48" height="47.9"/>
	
		<rect x="670.2" y="35" fill-rule="evenodd" clip-rule="evenodd" fill="#F1F2F2" stroke="#848484" stroke-miterlimit="10" width="48" height="47.9"/>
	<path fill-rule="evenodd" clip-rule="evenodd" fill="#F1F2F2" stroke="#848484" stroke-miterlimit="10" d="M670.2,78.6l48,0
		L670.2,78.6z"/>
	<path fill-rule="evenodd" clip-rule="evenodd" fill="#F1F2F2" stroke="#848484" stroke-miterlimit="10" d="M667.9,78.5
		c0-0.9,0.8-1.9,1.9-1.9c1.1,0,1.9,0.9,1.9,1.9c0,1.1-0.8,2.1-1.9,2.1C668.7,80.6,667.9,79.6,667.9,78.5z"/>
	<path fill-rule="evenodd" clip-rule="evenodd" fill="#F1F2F2" stroke="#848484" stroke-miterlimit="10" d="M667.9,78.5
		c0-0.9,0.8-1.9,1.9-1.9c1.1,0,1.9,0.9,1.9,1.9c0,1.1-0.8,2.1-1.9,2.1C668.7,80.6,667.9,79.6,667.9,78.5z"/>
	<path fill-rule="evenodd" clip-rule="evenodd" fill="#F1F2F2" stroke="#848484" stroke-miterlimit="10" d="M694.5,54v8.4V54z"/>
	<path fill-rule="evenodd" clip-rule="evenodd" fill="#F1F2F2" stroke="#848484" stroke-miterlimit="10" d="M690.4,58.1l8.4,0
		L690.4,58.1z"/>
	<path fill-rule="evenodd" clip-rule="evenodd" fill="#F1F2F2" stroke="#848484" stroke-miterlimit="10" d="M691.5,61.3l6.2-6.2
		L691.5,61.3z"/>
	<path fill-rule="evenodd" clip-rule="evenodd" fill="#F1F2F2" stroke="#848484" stroke-miterlimit="10" d="M697.6,61.3l-6.2-6.2
		L697.6,61.3z"/>
	<path fill-rule="evenodd" clip-rule="evenodd" fill="#F1F2F2" stroke="#848484" stroke-miterlimit="10" d="M682,53.7v8.4V53.7z"/>
	<path fill-rule="evenodd" clip-rule="evenodd" fill="#F1F2F2" stroke="#848484" stroke-miterlimit="10" d="M677.8,57.8l8.4,0
		L677.8,57.8z"/>
	<path fill-rule="evenodd" clip-rule="evenodd" fill="#F1F2F2" stroke="#848484" stroke-miterlimit="10" d="M679.1,61l6.2-6.2
		L679.1,61z"/>
	<path fill-rule="evenodd" clip-rule="evenodd" fill="#F1F2F2" stroke="#848484" stroke-miterlimit="10" d="M685.1,61l-6.2-6.2
		L685.1,61z"/>
	<path fill-rule="evenodd" clip-rule="evenodd" fill="#F1F2F2" stroke="#848484" stroke-miterlimit="10" d="M706.6,54v8.4V54z"/>
	<path fill-rule="evenodd" clip-rule="evenodd" fill="#F1F2F2" stroke="#848484" stroke-miterlimit="10" d="M702.5,58.1l8.4,0
		L702.5,58.1z"/>
	<path fill-rule="evenodd" clip-rule="evenodd" fill="#F1F2F2" stroke="#848484" stroke-miterlimit="10" d="M703.6,61.3l6.2-6.2
		L703.6,61.3z"/>
	<path fill-rule="evenodd" clip-rule="evenodd" fill="#F1F2F2" stroke="#848484" stroke-miterlimit="10" d="M709.7,61.3l-6.2-6.2
		L709.7,61.3z"/>
</g>
<g>
	<g>
		<path fill="#F1F2F2" stroke="#848484" stroke-miterlimit="10" d="M600,226.5c9.9,0,17.9-3,17.9-6.6c0-3.7-8-6.6-17.9-6.6
			c-9.9,0-17.9,3-17.9,6.6C582,223.5,590.1,226.5,600,226.5z"/>
		<path fill="#F1F2F2" stroke="#848484" stroke-miterlimit="10" d="M600,256.4c9.9,0,17.9-8,17.9-17.9c0-9.9-8-17.9-17.9-17.9
			c-9.9,0-17.9,8-17.9,17.9C582,248.4,590.1,256.4,600,256.4z"/>
	</g>
	<g>
		<path fill="#F1F2F2" stroke="#848484" stroke-miterlimit="10" d="M599.9,316.8c-9.9,0-17.9,3-17.9,6.6c0,3.7,8,6.6,17.9,6.6
			c9.9,0,17.9-3,17.9-6.6C617.9,319.8,609.8,316.8,599.9,316.8z"/>
		<path fill="#F1F2F2" stroke="#848484" stroke-miterlimit="10" d="M599.9,286.8c-9.9,0-17.9,8-17.9,17.9c0,9.9,8,17.9,17.9,17.9
			c9.9,0,17.9-8,17.9-17.9C617.9,294.9,609.8,286.8,599.9,286.8z"/>
	</g>
	<g>
		<path fill="#F1F2F2" stroke="#848484" stroke-miterlimit="10" d="M557.6,270.9c0-9.9-3-17.9-6.6-17.9c-3.7,0-6.6,8-6.6,17.9
			c0,9.9,3,17.9,6.6,17.9C554.6,288.8,557.6,280.8,557.6,270.9z"/>
		<path fill="#F1F2F2" stroke="#848484" stroke-miterlimit="10" d="M587.5,270.9c0-9.9-8-17.9-17.9-17.9s-17.9,8-17.9,17.9
			c0,9.9,8,17.9,17.9,17.9S587.5,280.8,587.5,270.9z"/>
	</g>
	<g>
		<path fill="#F1F2F2" stroke="#848484" stroke-miterlimit="10" d="M642.4,270.9c0,9.9,3,17.9,6.6,17.9c3.7,0,6.6-8,6.6-17.9
			c0-9.9-3-17.9-6.6-17.9C645.3,253,642.4,261,642.4,270.9z"/>
		<path fill="#F1F2F2" stroke="#848484" stroke-miterlimit="10" d="M612.4,270.9c0,9.9,8,17.9,17.9,17.9s17.9-8,17.9-17.9
			c0-9.9-8-17.9-17.9-17.9S612.4,261,612.4,270.9z"/>
	</g>
	
		<rect x="563.9" y="234.8" transform="matrix(6.123234e-17 -1 1 6.123234e-17 329.0517 870.8642)" fill="#F1F2F2" stroke="#848484" stroke-miterlimit="10" width="72.2" height="72.2"/>
</g>
<g>
	<g>
		
			<rect x="565" y="382" fill-rule="evenodd" clip-rule="evenodd" fill="#F1F2F2" stroke="#848484" stroke-miterlimit="10" width="90.8" height="4.6"/>
		<polygon fill-rule="evenodd" clip-rule="evenodd" fill="#F1F2F2" stroke="#848484" stroke-miterlimit="10" points="572.7,386.5 
			587.3,390.1 633.4,390.1 648,386.5 		"/>
		
			<rect x="608.4" y="384.3" transform="matrix(-5.064056e-11 1 -1 -5.064056e-11 1002.4464 -218.2687)" fill-rule="evenodd" clip-rule="evenodd" fill="#F1F2F2" stroke="#848484" stroke-miterlimit="10" width="4" height="15.5"/>
	</g>
</g>
<g>
	<g>
		
			<rect x="169.6" y="585.1" fill-rule="evenodd" clip-rule="evenodd" fill="#F1F2F2" stroke="#848484" stroke-miterlimit="10" width="165.1" height="128.1"/>
		
			<rect x="176.2" y="588.1" fill-rule="evenodd" clip-rule="evenodd" fill="#F1F2F2" stroke="#848484" stroke-miterlimit="10" width="153.9" height="122.3"/>
		
			<rect x="180.2" y="591.7" fill-rule="evenodd" clip-rule="evenodd" fill="#F1F2F2" stroke="#848484" stroke-miterlimit="10" width="34.7" height="47.5"/>
		
			<rect x="180.2" y="658.9" fill-rule="evenodd" clip-rule="evenodd" fill="#F1F2F2" stroke="#848484" stroke-miterlimit="10" width="34.7" height="47.5"/>
		<polygon fill-rule="evenodd" clip-rule="evenodd" fill="#F1F2F2" stroke="#848484" stroke-miterlimit="10" points="232.6,588.1 
			211.4,624.6 211.4,673.9 211.4,624.6 211.4,673.9 232.6,710.4 330.1,710.4 330.1,710.2 330.1,588.1 		"/>
		<polyline fill-rule="evenodd" clip-rule="evenodd" fill="#F1F2F2" stroke="#848484" stroke-miterlimit="10" points="232.6,588.1 
			248.1,613.7 211.4,624.6 		"/>
		
			<line fill-rule="evenodd" clip-rule="evenodd" fill="#F1F2F2" stroke="#848484" stroke-miterlimit="10" x1="211.4" y1="624.6" x2="232.6" y2="588.1"/>
		<polyline fill-rule="evenodd" clip-rule="evenodd" fill="#F1F2F2" stroke="#848484" stroke-miterlimit="10" points="232.6,710.4 
			248.1,684.8 211.4,673.9 		"/>
		
			<line fill-rule="evenodd" clip-rule="evenodd" fill="#F1F2F2" stroke="#848484" stroke-miterlimit="10" x1="211.4" y1="673.9" x2="232.6" y2="710.4"/>
	</g>
	<g>
		
			<rect x="163.5" y="721.8" transform="matrix(-1.836970e-16 1 -1 -1.836970e-16 924.2064 552.1736)" fill="#F1F2F2" stroke="#848484" stroke-miterlimit="10" width="45.1" height="32.8"/>
		
			<rect x="194" y="736.9" transform="matrix(-1.836970e-16 1 -1 -1.836970e-16 941.4814 534.5463)" fill="#F1F2F2" stroke="#848484" stroke-miterlimit="10" width="18.9" height="2.1"/>
	</g>
	<g>
		
			<rect x="163.5" y="543.7" transform="matrix(-1.836970e-16 1 -1 -1.836970e-16 746.0634 374.0307)" fill="#F1F2F2" stroke="#848484" stroke-miterlimit="10" width="45.1" height="32.8"/>
		
			<rect x="194" y="558.8" transform="matrix(1.925510e-13 1 -1 1.925510e-13 763.3384 356.4033)" fill="#F1F2F2" stroke="#848484" stroke-miterlimit="10" width="18.9" height="2.1"/>
	</g>
</g>
<g>
	
		<rect x="170" y="482.5" transform="matrix(-1 -4.488821e-11 4.488821e-11 -1 477.4431 1012.4664)" fill-rule="evenodd" clip-rule="evenodd" fill="#F1F2F2" stroke="#848484" stroke-miterlimit="10" width="137.5" height="47.5"/>
	<line fill="#F1F2F2" stroke="#848484" stroke-miterlimit="10" x1="302.5" y1="482.5" x2="302.5" y2="530.1"/>
	<line fill="#F1F2F2" stroke="#848484" stroke-miterlimit="10" x1="175.1" y1="482.5" x2="175.1" y2="530"/>
	<line fill="#F1F2F2" stroke="#848484" stroke-miterlimit="10" x1="302.5" y1="527.8" x2="175.1" y2="527.8"/>
	<line fill="#F1F2F2" stroke="#848484" stroke-miterlimit="10" x1="179.5" y1="505.9" x2="298.1" y2="505.9"/>
	
		<rect x="290.4" y="491.7" transform="matrix(-0.9868 0.162 -0.162 -0.9868 661.9584 958.3146)" fill="#F1F2F2" stroke="#848484" stroke-miterlimit="10" width="3" height="28.9"/>
	
		<rect x="279.8" y="491.7" transform="matrix(-0.9961 8.815246e-02 -8.815246e-02 -0.9961 606.0485 985.514)" fill="#F1F2F2" stroke="#848484" stroke-miterlimit="10" width="3" height="28.9"/>
	
		<rect x="269" y="491.4" transform="matrix(-0.9734 0.229 -0.229 -0.9734 649.6138 936.4014)" fill="#F1F2F2" stroke="#848484" stroke-miterlimit="10" width="3" height="28.9"/>
	
		<rect x="257" y="491.7" transform="matrix(-0.9884 0.152 -0.152 -0.9884 590.8383 967.2513)" fill="#F1F2F2" stroke="#848484" stroke-miterlimit="10" width="3" height="28.9"/>
	
		<rect x="246.5" y="491.6" transform="matrix(-0.999 4.511170e-02 -4.511170e-02 -0.999 518.4573 1000.4068)" fill="#F1F2F2" stroke="#848484" stroke-miterlimit="10" width="3" height="28.9"/>
	
		<rect x="235.8" y="491.6" transform="matrix(-0.9884 0.152 -0.152 -0.9884 548.8074 970.1423)" fill="#F1F2F2" stroke="#848484" stroke-miterlimit="10" width="3" height="28.9"/>
	
		<rect x="225" y="491.4" transform="matrix(-0.999 4.511170e-02 -4.511170e-02 -0.999 475.6325 1001.0504)" fill="#F1F2F2" stroke="#848484" stroke-miterlimit="10" width="3" height="28.9"/>
	
		<rect x="214.5" y="491.4" transform="matrix(-0.9787 0.2052 -0.2052 -0.9787 531.0766 956.7191)" fill="#F1F2F2" stroke="#848484" stroke-miterlimit="10" width="3" height="28.9"/>
	
		<rect x="203.9" y="491.4" transform="matrix(-0.9884 0.152 -0.152 -0.9884 485.2492 974.7399)" fill="#F1F2F2" stroke="#848484" stroke-miterlimit="10" width="3" height="28.9"/>
	
		<rect x="193.3" y="491.4" transform="matrix(-0.9964 8.473843e-02 -8.473843e-02 -0.9964 431.7205 993.4595)" fill="#F1F2F2" stroke="#848484" stroke-miterlimit="10" width="3" height="28.9"/>
	
		<rect x="182.7" y="491.8" transform="matrix(-0.9713 0.2379 -0.2379 -0.9713 483.5466 954.1295)" fill="#F1F2F2" stroke="#848484" stroke-miterlimit="10" width="3" height="28.9"/>
</g>
<g>
	<g>
		
			<rect x="564.8" y="405.7" transform="matrix(-1 -4.494106e-11 4.494106e-11 -1 1175.1835 844.4523)" fill="#F1F2F2" stroke="#848484" stroke-miterlimit="10" width="45.5" height="33.1"/>
		
			<rect x="578.2" y="438.8" transform="matrix(-1 -4.482116e-11 4.482116e-11 -1 1175.5388 879.6585)" fill="#F1F2F2" stroke="#848484" stroke-miterlimit="10" width="19.1" height="2.2"/>
	</g>
	<g>
		
			<rect x="612.7" y="405.7" fill-rule="evenodd" clip-rule="evenodd" fill="#F1F2F2" stroke="#848484" stroke-miterlimit="10" width="64.6" height="166.5"/>
		<polyline fill-rule="evenodd" clip-rule="evenodd" fill="#F1F2F2" stroke="#848484" stroke-miterlimit="10" points="674.7,452.1 
			674.7,413.8 615.5,413.8 615.5,471.9 		"/>
		
			<rect x="627.3" y="409.7" transform="matrix(-4.481767e-11 1 -1 -4.481767e-11 1080.7196 -209.4023)" fill-rule="evenodd" clip-rule="evenodd" fill="#F1F2F2" stroke="#848484" stroke-miterlimit="10" width="35.5" height="51.8"/>
		<polygon fill-rule="evenodd" clip-rule="evenodd" fill="#F1F2F2" stroke="#848484" stroke-miterlimit="10" points="674.7,450.5 
			650.7,450.5 650.7,450.5 615.5,471.4 615.5,567.5 615.6,567.5 674.7,567.5 		"/>
		<polygon fill-rule="evenodd" clip-rule="evenodd" fill="#F1F2F2" stroke="#848484" stroke-miterlimit="10" points="616.1,471.5 
			639.5,486.3 649.4,451.3 		"/>
	</g>
	<g>
		
			<rect x="680" y="405.7" transform="matrix(-1 -4.494106e-11 4.494106e-11 -1 1405.4023 844.4523)" fill="#F1F2F2" stroke="#848484" stroke-miterlimit="10" width="45.5" height="33.1"/>
		
			<rect x="693.3" y="438.8" transform="matrix(-1 -4.539314e-11 4.539314e-11 -1 1405.7578 879.6585)" fill="#F1F2F2" stroke="#848484" stroke-miterlimit="10" width="19.1" height="2.2"/>
	</g>
</g>
<g>
	<g>
		<path fill="#F1F2F2" stroke="#848484" stroke-miterlimit="10" d="M518.6,635.8l0-32.7c0-1.1-0.9-2-2-2l-29.6,0c-1.1,0-2,0.9-2,2
			l0,32.7c0,1.1,0.9,2,2,2l29.6,0C517.7,637.8,518.6,636.9,518.6,635.8z"/>
		<path fill="#F1F2F2" stroke="#848484" stroke-miterlimit="10" d="M518.6,636.5l0-34c0-0.8,0.6-1.4,1.4-1.4l5.3,0
			c0.8,0,1.4,0.6,1.4,1.4l0,34c0,0.8-0.6,1.4-1.4,1.4l-5.3,0C519.3,637.8,518.6,637.2,518.6,636.5z"/>
	</g>
	
		<rect x="442.4" y="599.8" transform="matrix(6.553406e-11 1 -1 6.553406e-11 1099.363 139.6377)" fill-rule="evenodd" clip-rule="evenodd" fill="#F1F2F2" stroke="#848484" stroke-miterlimit="10" width="74.9" height="39.4"/>
	
		<rect x="441.8" y="524.3" transform="matrix(6.456506e-11 1 -1 6.456506e-11 1023.8587 64.1333)" fill-rule="evenodd" clip-rule="evenodd" fill="#F1F2F2" stroke="#848484" stroke-miterlimit="10" width="76.1" height="39.4"/>
</g>
<g>
</g>
<g>
</g>
<g>
</g>
<g>
</g>
<g>
</g>
<g>
</g>
</svg>
