<?xml version="1.0" encoding="utf-8"?>
<!-- Generator: Adobe Illustrator 23.0.2, SVG Export Plug-In . SVG Version: 6.00 Build 0)  -->
<svg version="1.1" id="Слой_1" xmlns="http://www.w3.org/2000/svg" xmlns:xlink="http://www.w3.org/1999/xlink" x="0px" y="0px"
	 viewBox="0 0 800 640.4" enable-background="new 0 0 800 640.4" xml:space="preserve">
<rect x="68.3" y="87.2" fill="#F3F3F3" stroke="#838383" width="181.6" height="42.5"/>
<g>
	
		<rect x="6" y="620.3" transform="matrix(-1 -1.224647e-16 1.224647e-16 -1 284.0251 1252.0817)" fill="#F3F3F3" stroke="#000000" stroke-miterlimit="10" width="272" height="11.5"/>
	
		<rect x="22" y="616.6" transform="matrix(-1 -1.224647e-16 1.224647e-16 -1 300.0554 1236.8651)" fill="#F3F3F3" stroke="#000000" stroke-miterlimit="10" width="256" height="3.8"/>
	
		<rect x="22" y="612.8" transform="matrix(-1 -1.224647e-16 1.224647e-16 -1 300.0554 1229.3508)" fill="#F3F3F3" stroke="#000000" stroke-miterlimit="10" width="256" height="3.8"/>
	
		<rect x="22" y="604.8" transform="matrix(-1 -1.224647e-16 1.224647e-16 -1 300.0554 1217.5785)" fill="#F3F3F3" stroke="#000000" stroke-miterlimit="10" width="256" height="8"/>
	
		<rect x="22" y="612.8" transform="matrix(-1 -1.224647e-16 1.224647e-16 -1 48.4412 1233.108)" fill="#F3F3F3" stroke="#000000" stroke-miterlimit="10" width="4.4" height="7.5"/>
	
		<rect x="273.6" y="612.8" transform="matrix(-1 -1.224647e-16 1.224647e-16 -1 551.6697 1233.108)" fill="#F3F3F3" stroke="#000000" stroke-miterlimit="10" width="4.4" height="7.5"/>
</g>
<g>
	<rect x="380.9" y="620.7" fill="#F3F3F3" stroke="#000000" stroke-miterlimit="10" width="106.8" height="10.7"/>
	<rect x="376.2" y="613.1" fill="#F3F3F3" stroke="#000000" stroke-miterlimit="10" width="116.5" height="7.7"/>
	<rect x="376.2" y="601.6" fill="#F3F3F3" stroke="#000000" stroke-miterlimit="10" width="116.5" height="11.5"/>
	<rect x="376.2" y="613.1" fill="#F3F3F3" stroke="#000000" stroke-miterlimit="10" width="5.6" height="7.7"/>
	<rect x="487.1" y="613.1" fill="#F3F3F3" stroke="#000000" stroke-miterlimit="10" width="5.6" height="7.7"/>
	<rect x="436.1" y="613.1" fill="#F3F3F3" stroke="#000000" stroke-miterlimit="10" width="5.6" height="7.7"/>
</g>
<g>
	<rect x="620.6" y="620.7" fill="#F3F3F3" stroke="#000000" stroke-miterlimit="10" width="107.3" height="10.7"/>
	<rect x="615.9" y="613.1" fill="#F3F3F3" stroke="#000000" stroke-miterlimit="10" width="117" height="7.7"/>
	<rect x="615.9" y="601.6" fill="#F3F3F3" stroke="#000000" stroke-miterlimit="10" width="117" height="11.5"/>
	<rect x="615.9" y="613.1" fill="#F3F3F3" stroke="#000000" stroke-miterlimit="10" width="5.6" height="7.7"/>
	<rect x="727.3" y="613.1" fill="#F3F3F3" stroke="#000000" stroke-miterlimit="10" width="5.6" height="7.7"/>
	<rect x="676.1" y="613.1" fill="#F3F3F3" stroke="#000000" stroke-miterlimit="10" width="5.6" height="7.7"/>
</g>
<rect x="123.7" y="520.8" fill="#F3F3F3" stroke="#000000" stroke-miterlimit="10" width="135" height="4.8"/>
<rect x="123.7" y="507.3" fill="#F3F3F3" stroke="#000000" stroke-miterlimit="10" width="64.4" height="13.5"/>
<rect x="127" y="525.6" fill="#F3F3F3" stroke="#000000" stroke-miterlimit="10" width="61.1" height="11.8"/>
<rect x="123.7" y="520.8" fill="#F3F3F3" stroke="#000000" stroke-miterlimit="10" width="7.3" height="4.8"/>
<rect x="183.6" y="520.8" fill="#F3F3F3" stroke="#000000" stroke-miterlimit="10" width="7.6" height="4.8"/>
<rect x="250.8" y="520.8" fill="#F3F3F3" stroke="#000000" stroke-miterlimit="10" width="7.9" height="4.8"/>
<line fill="#F3F3F3" stroke="#000000" stroke-miterlimit="10" x1="427.1" y1="42.2" x2="362.4" y2="5.7"/>
<path fill="#F3F3F3" stroke="#000000" stroke-miterlimit="10" d="M441.3,130.8c-0.8,2.6-29.3,52.6-29.3,52.6"/>
<line fill="#F3F3F3" stroke="#000000" stroke-miterlimit="10" x1="659.6" y1="206.7" x2="606.3" y2="236.8"/>
<line fill="#F3F3F3" stroke="#000000" stroke-miterlimit="10" x1="574.7" y1="296.1" x2="632.9" y2="330.9"/>
<line fill="#F3F3F3" stroke="#000000" stroke-miterlimit="10" x1="519.5" y1="296.1" x2="462" y2="329.2"/>
<line fill="#F3F3F3" stroke="#000000" stroke-miterlimit="10" x1="250.8" y1="520.8" x2="198.2" y2="490.4"/>
<g id="moyka_2_3_">
	<path fill="#F3F3F3" stroke="#838383" d="M195.1,122.5c0,1.3,1.1,2.4,2.4,2.4h34.2c1.3,0,2.4-1.1,2.4-2.4V94.2
		c0-1.3-1.1-2.4-2.4-2.4h-34.2c-1.3,0-2.4,1.1-2.4,2.4V122.5z"/>
	<path fill="#F3F3F3" stroke="#838383" d="M197.5,120.1c0,1.3,1.1,2.4,2.4,2.4h29.5c1.3,0,2.4-1.1,2.4-2.4v-20
		c0-1.3-1.1-2.4-2.4-2.4h-29.5c-1.3,0-2.4,1.1-2.4,2.4V120.1z"/>
	<rect x="212.8" y="95.4" fill="#F3F3F3" stroke="#838383" width="2.4" height="9.4"/>
	<circle fill="#F3F3F3" stroke="#838383" cx="214.6" cy="111.3" r="1.8"/>
</g>
<g id="plita_3_">
	<rect x="121.9" y="88.5" fill="#F3F3F3" stroke="#838383" width="42.4" height="41.2"/>
	<circle fill="#F3F3F3" stroke="#838383" cx="132.5" cy="117.9" r="7.1"/>
	<circle fill="#F3F3F3" stroke="#838383" cx="150.2" cy="100.2" r="7.1"/>
	<circle fill="#F3F3F3" stroke="#838383" cx="132.5" cy="100.2" r="5.9"/>
	<circle fill="#F3F3F3" stroke="#838383" cx="150.2" cy="117.9" r="5.9"/>
</g>
<g id="unitaz_4_">
	<path fill="#F3F3F3" stroke="#838383" d="M612.3,61.7v9.8c0,1.6,1.3,2.8,2.8,2.8h25.3c1.6,0,2.8-1.3,2.8-2.8v-9.8H612.3z"/>
	<path fill="#F3F3F3" stroke="#838383" d="M615.1,74.3c-1.6,0-2.8,1.3-2.8,2.8h30.9c0-1.6-1.3-2.8-2.8-2.8H615.1z"/>
	<path fill="#F3F3F3" stroke="#838383" d="M643.2,77.1h-30.9c0,0-6.3,36.5,15.5,36.5C649.5,113.6,643.2,77.1,643.2,77.1z"/>
	<circle fill="#F3F3F3" stroke="#838383" cx="627.7" cy="67.3" r="2.8"/>
</g>
<g id="unitaz_5_">
	<path fill="#F3F3F3" stroke="#838383" d="M461,65.9v9.8c0,1.6,1.3,2.8,2.8,2.8h25.3c1.6,0,2.8-1.3,2.8-2.8v-9.8H461z"/>
	<path fill="#F3F3F3" stroke="#838383" d="M463.8,78.6c-1.6,0-2.8,1.3-2.8,2.8h30.9c0-1.6-1.3-2.8-2.8-2.8H463.8z"/>
	<path fill="#F3F3F3" stroke="#838383" d="M491.9,81.4H461c0,0-6.3,36.5,15.5,36.5C498.2,117.9,491.9,81.4,491.9,81.4z"/>
	<circle fill="#F3F3F3" stroke="#838383" cx="476.5" cy="71.5" r="2.8"/>
</g>
<g id="moyka_4_">
	<path fill="#F3F3F3" stroke="#838383" d="M654.9,61.7c-0.8,0-1.5,0.7-1.5,1.5v30.2c0,0.8,0.7,1.5,1.5,1.5h45.3
		c0.8,0,1.5-0.7,1.5-1.5V63.2c0-0.8-0.7-1.5-1.5-1.5H654.9z"/>
	<rect x="653.4" y="66.2" fill="#F3F3F3" stroke="#838383" width="48.4" height="3"/>
	<ellipse fill="#F3F3F3" stroke="#838383" cx="678.3" cy="82.1" rx="15.9" ry="9.8"/>
	<rect x="676" y="66.2" fill="#F3F3F3" stroke="#838383" width="3" height="12.1"/>
	<circle fill="#F3F3F3" stroke="#838383" cx="676.8" cy="83.6" r="2.3"/>
</g>
<g id="moyka_5_">
	<path fill="#F3F3F3" stroke="#838383" d="M554.1,150.2c0-0.8-0.7-1.5-1.5-1.5h-30.2c-0.8,0-1.5,0.7-1.5,1.5v45.3
		c0,0.8,0.7,1.5,1.5,1.5h30.2c0.8,0,1.5-0.7,1.5-1.5V150.2z"/>
	<rect x="546.6" y="148.7" fill="#F3F3F3" stroke="#838383" width="3" height="48.4"/>
	<ellipse fill="#F3F3F3" stroke="#838383" cx="533.7" cy="173.6" rx="9.8" ry="15.9"/>
	<rect x="537.5" y="171.4" fill="#F3F3F3" stroke="#838383" width="12.1" height="3"/>
	<circle fill="#F3F3F3" stroke="#838383" cx="532.2" cy="172.1" r="2.3"/>
</g>
<g id="stirka_3_">
	<rect x="509.8" y="104.3" fill="#F3F3F3" stroke="#838383" width="43.1" height="43.1"/>
	<path fill="#F3F3F3" stroke="#838383" d="M548.6,107.1c-1.6,0-2.9,1.3-2.9,2.9v10c0,1.6,1.3,2.9,2.9,2.9h4.3v-15.8H548.6z"/>
	<circle fill="#F3F3F3" stroke="#838383" cx="529.9" cy="125.8" r="11.5"/>
	<circle fill="#F3F3F3" stroke="#838383" cx="529.9" cy="125.8" r="8.6"/>
	<circle fill="#F3F3F3" stroke="#838383" cx="545.7" cy="140.2" r="2.9"/>
</g>
<g id="vanna_3_">
	<rect x="719.8" y="62.3" fill="#F3F3F3" stroke="#838383" width="50.7" height="129.3"/>
	<path fill="#F3F3F3" stroke="#838383" d="M753.1,183.6c7.4,0,13.3-6,13.3-13.3V81h-42.7v89.3c0,7.4,6,13.3,13.3,13.3H753.1z"/>
	<path fill="#F3F3F3" stroke="#838383" d="M743.8,79h-10.7v-4.7h18"/>
	<path id="Union_3_" fill="#F3F3F3" stroke="#838383" d="M753.3,73c0.5-1.6,2-2.7,3.8-2.7c2.2,0,4,1.8,4,4c0,2.2-1.8,4-4,4
		c-1.7,0-3.2-1.1-3.8-2.7h-1.6c-0.7,0-1.3-0.6-1.3-1.3c0-0.7,0.6-1.3,1.3-1.3H753.3z"/>
	<rect x="743.8" y="77" fill="#F3F3F3" stroke="#838383" width="2.7" height="10.7"/>
</g>
<rect x="6" y="65.4" fill="#838383" stroke="#000000" stroke-miterlimit="10" width="16" height="559.1"/>
<rect x="22" y="507.3" fill="#838383" stroke="#000000" stroke-miterlimit="10" width="101.7" height="18.3"/>
<rect x="22" y="525.6" fill="#838383" stroke="#000000" stroke-miterlimit="10" width="104.9" height="11.8"/>
<rect x="278" y="620.7" fill="#838383" stroke="#000000" stroke-miterlimit="10" width="102.2" height="11"/>
<rect x="256" y="525.6" fill="#838383" stroke="#000000" stroke-miterlimit="10" width="32.6" height="11.8"/>
<rect x="306.1" y="601.7" fill="#838383" stroke="#000000" stroke-miterlimit="10" width="69.6" height="19"/>
<rect x="258.7" y="507.3" fill="#838383" stroke="#000000" stroke-miterlimit="10" width="29.8" height="18.3"/>
<rect x="288.5" y="413.1" fill="#838383" stroke="#000000" stroke-miterlimit="10" width="17.5" height="207.6"/>
<rect x="278" y="537.3" fill="#838383" stroke="#000000" stroke-miterlimit="10" width="10.5" height="83.4"/>
<rect x="492.7" y="601.7" fill="#838383" stroke="#000000" stroke-miterlimit="10" width="44.8" height="19"/>
<rect x="488.7" y="620.7" fill="#838383" stroke="#000000" stroke-miterlimit="10" width="131.8" height="11"/>
<rect x="537.5" y="357.5" fill="#838383" stroke="#000000" stroke-miterlimit="10" width="18.3" height="263.2"/>
<rect x="555.8" y="601.7" fill="#838383" stroke="#000000" stroke-miterlimit="10" width="60.1" height="19"/>
<rect x="732.9" y="601.7" fill="#838383" stroke="#000000" stroke-miterlimit="10" width="40.1" height="19"/>
<rect x="728.4" y="620.7" fill="#838383" stroke="#000000" stroke-miterlimit="10" width="67.6" height="11"/>
<rect x="773" y="330.9" fill="#838383" stroke="#000000" stroke-miterlimit="10" width="23" height="289.8"/>
<rect x="288.5" y="42.2" fill="#838383" stroke="#000000" stroke-miterlimit="10" width="17.5" height="163.1"/>
<rect x="773" y="42.2" fill="#838383" stroke="#000000" stroke-miterlimit="10" width="17.5" height="288.8"/>
<rect x="441.3" y="42.2" fill="#838383" stroke="#000000" stroke-miterlimit="10" width="331.6" height="17.8"/>
<rect x="306.1" y="42.2" fill="#838383" stroke="#000000" stroke-miterlimit="10" width="45.3" height="23.3"/>
<rect x="427.1" y="42.2" fill="#838383" stroke="#000000" stroke-miterlimit="10" width="14.3" height="23.3"/>
<rect x="22" y="65.4" fill="#838383" stroke="#000000" stroke-miterlimit="10" width="266.5" height="21.8"/>
<rect x="249.9" y="87.2" fill="#C6C6C6" stroke="#000000" stroke-miterlimit="10" width="6.4" height="68"/>
<rect x="256.3" y="148.9" fill="#C6C6C6" stroke="#000000" stroke-miterlimit="10" width="32.2" height="6.4"/>
<rect x="298.6" y="287.9" fill="#C6C6C6" stroke="#000000" stroke-miterlimit="10" width="153.2" height="7.5"/>
<rect x="298.6" y="295.3" fill="#C6C6C6" stroke="#000000" stroke-miterlimit="10" width="7.5" height="117.8"/>
<rect x="519.5" y="287.9" fill="#C6C6C6" stroke="#000000" stroke-miterlimit="10" width="55.2" height="7.5"/>
<rect x="537.5" y="295.3" fill="#C6C6C6" stroke="#000000" stroke-miterlimit="10" width="7.5" height="62.2"/>
<rect x="642.7" y="287.9" fill="#C6C6C6" stroke="#000000" stroke-miterlimit="10" width="28.2" height="7.5"/>
<rect x="441.3" y="198.8" fill="#C6C6C6" stroke="#000000" stroke-miterlimit="10" width="158.2" height="6.4"/>
<rect x="441.3" y="59.9" fill="#C6C6C6" stroke="#000000" stroke-miterlimit="10" width="6.4" height="70.9"/>
<rect x="441.3" y="190.2" fill="#C6C6C6" stroke="#000000" stroke-miterlimit="10" width="6.4" height="8.3"/>
<rect x="659.6" y="198.8" fill="#C6C6C6" stroke="#000000" stroke-miterlimit="10" width="113.3" height="6.4"/>
<rect x="663.4" y="205.2" fill="#C6C6C6" stroke="#000000" stroke-miterlimit="10" width="7.5" height="82.7"/>
<rect x="670.9" y="209.4" fill="#C6C6C6" stroke="#000000" stroke-miterlimit="10" width="102.1" height="7.5"/>
<rect x="554.8" y="59.9" fill="#C6C6C6" stroke="#000000" stroke-miterlimit="10" width="6.4" height="138.5"/>
<rect x="448.5" y="59.9" fill="#C6C6C6" stroke="#000000" stroke-miterlimit="10" width="106.3" height="6.4"/>
<rect x="561.2" y="99.1" fill="#C6C6C6" stroke="#000000" stroke-miterlimit="10" width="41" height="6.4"/>
<rect x="595.7" y="77.1" fill="#C6C6C6" stroke="#000000" stroke-miterlimit="10" width="6.4" height="22"/>
<rect x="598.9" y="59.9" fill="#C6C6C6" stroke="#000000" stroke-miterlimit="10" width="3.2" height="17.2"/>
<g>
	<path d="M112.8,326.1h-2.4v4.8h-1.1v-10.5h1.1v4.7h2.4l3.6-4.7h1.2l-3.9,5.1l4.1,5.4h-1.3L112.8,326.1z"/>
	<path d="M126,323l-4,8.9c-0.3,0.7-0.7,1.3-1.1,1.6c-0.4,0.3-0.9,0.5-1.5,0.5c-0.4,0-0.7-0.1-1.1-0.2c-0.3-0.1-0.6-0.3-0.9-0.5
		l0.5-0.8c0.4,0.4,0.9,0.6,1.4,0.6c0.4,0,0.7-0.1,0.9-0.3c0.3-0.2,0.5-0.5,0.7-1l0.3-0.8l-3.5-7.9h1.1l3,6.7l3-6.7H126z"/>
	<path d="M132.1,330.9l-2.5-3.3l-2.5,3.3h-1.2l3.1-4.1l-3-3.8h1.2l2.4,3.1l2.4-3.1h1.2l-3,3.8l3.2,4.1H132.1z"/>
	<path d="M135.1,323h1.1v3.5h5V323h1.1v7.9h-1.1v-3.5h-5v3.5h-1.1V323z"/>
	<path d="M151.3,323v7.9h-1v-2.6h-2.5h-0.3l-1.8,2.6h-1.2l2-2.8c-0.6-0.2-1.1-0.5-1.4-0.9c-0.3-0.4-0.5-0.9-0.5-1.6
		c0-0.9,0.3-1.6,0.9-2c0.6-0.5,1.4-0.7,2.5-0.7H151.3z M148,327.5h2.4V324H148c-1.5,0-2.3,0.6-2.3,1.8
		C145.7,327,146.5,327.5,148,327.5z"/>
	<path d="M153.7,326.4h3.9v0.9h-3.9V326.4z"/>
	<path d="M110.3,348.5c-0.6-0.3-1.1-0.8-1.5-1.4s-0.5-1.3-0.5-2.1c0-0.8,0.2-1.5,0.5-2.1s0.8-1.1,1.5-1.4s1.3-0.5,2.1-0.5
		c0.7,0,1.3,0.1,1.8,0.4s1,0.7,1.3,1.2l-0.8,0.5c-0.3-0.4-0.6-0.7-1-0.9s-0.8-0.3-1.3-0.3c-0.6,0-1.1,0.1-1.5,0.4s-0.8,0.6-1.1,1.1
		s-0.4,1-0.4,1.6c0,0.6,0.1,1.2,0.4,1.6s0.6,0.8,1.1,1.1s1,0.4,1.5,0.4c0.5,0,0.9-0.1,1.3-0.3s0.7-0.5,1-0.9l0.8,0.5
		c-0.3,0.5-0.7,0.9-1.3,1.2s-1.1,0.4-1.8,0.4C111.6,349.1,110.9,348.9,110.3,348.5z"/>
	<path d="M123,342h-3v7h-1.1v-7h-3v-0.9h7V342z"/>
	<path d="M125.4,348.5c-0.6-0.3-1.1-0.8-1.4-1.4c-0.4-0.6-0.5-1.3-0.5-2.1c0-0.8,0.2-1.5,0.5-2.1s0.8-1.1,1.4-1.4s1.3-0.5,2.1-0.5
		c0.8,0,1.4,0.2,2.1,0.5c0.6,0.3,1.1,0.8,1.4,1.4s0.5,1.3,0.5,2.1c0,0.8-0.2,1.5-0.5,2.1c-0.3,0.6-0.8,1.1-1.4,1.4
		c-0.6,0.3-1.3,0.5-2.1,0.5C126.6,349.1,126,348.9,125.4,348.5z M128.9,347.7c0.4-0.3,0.8-0.6,1-1.1c0.3-0.5,0.4-1,0.4-1.6
		c0-0.6-0.1-1.1-0.4-1.6c-0.3-0.5-0.6-0.8-1-1.1s-0.9-0.4-1.5-0.4s-1.1,0.1-1.5,0.4c-0.4,0.3-0.8,0.6-1.1,1.1s-0.4,1-0.4,1.6
		c0,0.6,0.1,1.1,0.4,1.6c0.3,0.5,0.6,0.8,1.1,1.1c0.4,0.3,0.9,0.4,1.5,0.4S128.5,348,128.9,347.7z"/>
	<path d="M140.1,341.1v7.9h-1.1v-7h-3.8l-0.1,2c-0.1,1.6-0.3,2.9-0.6,3.8c-0.3,0.9-0.8,1.3-1.6,1.3c-0.2,0-0.5,0-0.8-0.1l0.1-0.9
		c0.2,0,0.3,0.1,0.4,0.1c0.4,0,0.7-0.2,0.9-0.6s0.4-0.9,0.4-1.4c0.1-0.6,0.1-1.3,0.2-2.2l0.1-2.8H140.1z"/>
	<path d="M144.4,348.5c-0.6-0.3-1.1-0.8-1.4-1.4c-0.4-0.6-0.5-1.3-0.5-2.1c0-0.8,0.2-1.5,0.5-2.1s0.8-1.1,1.4-1.4s1.3-0.5,2.1-0.5
		c0.8,0,1.4,0.2,2.1,0.5c0.6,0.3,1.1,0.8,1.4,1.4s0.5,1.3,0.5,2.1c0,0.8-0.2,1.5-0.5,2.1c-0.3,0.6-0.8,1.1-1.4,1.4
		c-0.6,0.3-1.3,0.5-2.1,0.5C145.7,349.1,145,348.9,144.4,348.5z M147.9,347.7c0.4-0.3,0.8-0.6,1-1.1c0.3-0.5,0.4-1,0.4-1.6
		c0-0.6-0.1-1.1-0.4-1.6c-0.3-0.5-0.6-0.8-1-1.1s-0.9-0.4-1.5-0.4s-1.1,0.1-1.5,0.4c-0.4,0.3-0.8,0.6-1.1,1.1s-0.4,1-0.4,1.6
		c0,0.6,0.1,1.1,0.4,1.6c0.3,0.5,0.6,0.8,1.1,1.1c0.4,0.3,0.9,0.4,1.5,0.4S147.5,348,147.9,347.7z"/>
	<path d="M159.4,346.8c0,0.7-0.3,1.2-0.8,1.6c-0.5,0.4-1.3,0.6-2.3,0.6h-3.6v-7.9h3.5c0.9,0,1.6,0.2,2.1,0.5
		c0.5,0.4,0.8,0.9,0.8,1.5c0,0.4-0.1,0.8-0.4,1.1s-0.6,0.5-1,0.7C158.8,345.1,159.4,345.8,159.4,346.8z M153.8,344.6h2.4
		c0.6,0,1.1-0.1,1.4-0.3c0.3-0.2,0.5-0.6,0.5-1c0-0.4-0.2-0.8-0.5-1c-0.3-0.2-0.8-0.3-1.4-0.3h-2.4V344.6z M157.8,347.8
		c0.3-0.2,0.5-0.6,0.5-1s-0.2-0.8-0.5-1c-0.3-0.2-0.8-0.3-1.5-0.3h-2.6v2.8h2.5C156.9,348.1,157.5,348,157.8,347.8z"/>
	<path d="M167,341.8c0.6,0.5,0.8,1.3,0.8,2.3v4.9h-1v-1.2c-0.2,0.4-0.6,0.7-1.1,1s-1,0.3-1.7,0.3c-0.9,0-1.6-0.2-2.1-0.6
		c-0.5-0.4-0.8-1-0.8-1.7c0-0.7,0.2-1.2,0.7-1.6c0.5-0.4,1.3-0.6,2.3-0.6h2.5V344c0-0.7-0.2-1.2-0.6-1.6s-0.9-0.5-1.7-0.5
		c-0.5,0-1,0.1-1.4,0.2c-0.5,0.2-0.9,0.4-1.2,0.7l-0.5-0.8c0.4-0.3,0.9-0.6,1.4-0.8c0.6-0.2,1.2-0.3,1.8-0.3
		C165.6,341,166.4,341.3,167,341.8z M165.8,347.8c0.4-0.3,0.8-0.7,1-1.2v-1.3h-2.5c-1.4,0-2,0.5-2,1.4c0,0.5,0.2,0.8,0.5,1.1
		c0.4,0.3,0.8,0.4,1.5,0.4C164.8,348.2,165.3,348.1,165.8,347.8z"/>
	<path d="M176.7,341.1v7.9h-1v-2.6h-2.5h-0.3l-1.8,2.6h-1.2l2-2.8c-0.6-0.2-1.1-0.5-1.4-0.9c-0.3-0.4-0.5-0.9-0.5-1.6
		c0-0.9,0.3-1.6,0.9-2c0.6-0.5,1.4-0.7,2.5-0.7H176.7z M173.3,345.6h2.4V342h-2.3c-1.5,0-2.3,0.6-2.3,1.8
		C171.1,345,171.8,345.6,173.3,345.6z"/>
	<path d="M112.6,358.4v13.2h-1.9V360h-3v-1.6H112.6z"/>
	<path d="M123.8,359.9c1,1.1,1.4,2.8,1.4,4.8c0,1.5-0.3,2.7-0.8,3.7c-0.5,1-1.2,1.8-2.2,2.3c-0.9,0.5-2,0.8-3.3,0.8
		c-0.6,0-1.2-0.1-1.8-0.2c-0.6-0.1-1.1-0.3-1.5-0.6l0.7-1.5c0.6,0.4,1.5,0.6,2.5,0.6c1.4,0,2.4-0.4,3.2-1.3c0.8-0.8,1.2-2.1,1.2-3.7
		v-0.5c-0.4,0.6-0.9,1-1.6,1.3c-0.7,0.3-1.4,0.4-2.2,0.4c-0.9,0-1.6-0.2-2.3-0.5c-0.7-0.3-1.2-0.8-1.6-1.4c-0.4-0.6-0.6-1.3-0.6-2.1
		c0-0.8,0.2-1.6,0.6-2.2c0.4-0.6,1-1.1,1.7-1.5c0.7-0.3,1.5-0.5,2.4-0.5C121.5,358.2,122.8,358.8,123.8,359.9z M121.4,364.5
		c0.5-0.2,0.8-0.5,1.1-0.9c0.3-0.4,0.4-0.8,0.4-1.3c0-0.5-0.1-0.9-0.4-1.3c-0.2-0.4-0.6-0.7-1.1-0.9c-0.5-0.2-1-0.3-1.7-0.3
		c-0.9,0-1.6,0.2-2.1,0.7c-0.5,0.5-0.8,1.1-0.8,1.9c0,0.8,0.3,1.4,0.8,1.9c0.5,0.5,1.3,0.7,2.2,0.7
		C120.4,364.8,121,364.7,121.4,364.5z"/>
	<path d="M128.9,369.4c0.2,0.2,0.3,0.5,0.3,0.9c0,0.2,0,0.4-0.1,0.5c0,0.2-0.1,0.4-0.3,0.8l-0.9,2.6h-1.2l0.7-2.8
		c-0.2-0.1-0.4-0.2-0.6-0.4c-0.1-0.2-0.2-0.4-0.2-0.7c0-0.4,0.1-0.7,0.4-0.9c0.2-0.2,0.5-0.4,0.9-0.4
		C128.4,369.1,128.7,369.2,128.9,369.4z"/>
	<path d="M140.4,358.4v1.3l-5.3,11.9h-2l5.2-11.5h-6v2.3h-1.8v-4H140.4z"/>
</g>
<g>
	<path d="M451.3,366.9c-0.8-0.5-1.5-1.1-2-1.9c-0.5-0.8-0.7-1.7-0.7-2.7c0-1,0.2-1.9,0.7-2.7c0.5-0.8,1.1-1.5,2-1.9s1.8-0.7,2.8-0.7
		c0.8,0,1.5,0.1,2.2,0.4c0.7,0.3,1.2,0.6,1.7,1.1l-0.7,0.7c-0.8-0.8-1.9-1.2-3.1-1.2c-0.8,0-1.6,0.2-2.3,0.6
		c-0.7,0.4-1.2,0.9-1.6,1.6s-0.6,1.4-0.6,2.2c0,0.8,0.2,1.6,0.6,2.2s0.9,1.2,1.6,1.6c0.7,0.4,1.4,0.6,2.3,0.6c1.3,0,2.3-0.4,3.1-1.3
		l0.7,0.7c-0.5,0.5-1,0.9-1.7,1.2c-0.7,0.3-1.4,0.4-2.2,0.4C453,367.6,452.1,367.3,451.3,366.9z"/>
	<path d="M467.1,359.6v7.9H466v-7h-5v7H460v-7.9H467.1z"/>
	<path d="M475.2,360.3c0.6,0.5,0.8,1.3,0.8,2.3v4.9h-1v-1.2c-0.2,0.4-0.6,0.7-1.1,1s-1,0.3-1.7,0.3c-0.9,0-1.6-0.2-2.1-0.6
		c-0.5-0.4-0.8-1-0.8-1.7c0-0.7,0.2-1.2,0.7-1.6c0.5-0.4,1.3-0.6,2.3-0.6h2.5v-0.5c0-0.7-0.2-1.2-0.6-1.6s-0.9-0.5-1.7-0.5
		c-0.5,0-1,0.1-1.4,0.2c-0.5,0.2-0.9,0.4-1.2,0.7l-0.5-0.8c0.4-0.3,0.9-0.6,1.4-0.8s1.2-0.3,1.8-0.3
		C473.9,359.5,474.7,359.8,475.2,360.3z M474,366.3c0.4-0.3,0.8-0.7,1-1.2v-1.3h-2.5c-1.4,0-2,0.5-2,1.4c0,0.5,0.2,0.8,0.5,1.1
		c0.4,0.3,0.8,0.4,1.5,0.4C473.1,366.7,473.6,366.6,474,366.3z"/>
	<path d="M485.4,359.6v7.9h-1.1v-7h-3.8l-0.1,2c-0.1,1.6-0.3,2.9-0.6,3.8c-0.3,0.9-0.8,1.3-1.6,1.3c-0.2,0-0.5,0-0.8-0.1l0.1-0.9
		c0.2,0,0.3,0.1,0.4,0.1c0.4,0,0.7-0.2,0.9-0.6c0.2-0.4,0.4-0.9,0.4-1.4c0.1-0.6,0.1-1.3,0.2-2.2l0.1-2.8H485.4z"/>
	<path d="M494,363c0.5,0.4,0.8,1.1,0.8,1.9c0,0.8-0.3,1.5-0.8,1.9c-0.6,0.5-1.4,0.7-2.4,0.7l-3.2,0v-7.9h1.1v2.8l2.3,0
		C492.8,362.4,493.5,362.6,494,363z M493.2,366.2c0.4-0.3,0.6-0.8,0.6-1.3c0-0.6-0.2-1-0.6-1.3c-0.4-0.3-0.9-0.4-1.7-0.4l-2.1,0v3.5
		l2.1,0C492.2,366.7,492.8,366.5,493.2,366.2z"/>
	<path d="M496.8,359.6h1.1v3.5h5v-3.5h1.1v7.9h-1.1V364h-5v3.5h-1.1V359.6z"/>
	<path d="M513.1,359.6v7.9h-1v-2.6h-2.5h-0.3l-1.8,2.6h-1.2l2-2.8c-0.6-0.2-1.1-0.5-1.4-0.9c-0.3-0.4-0.5-0.9-0.5-1.6
		c0-0.9,0.3-1.6,0.9-2s1.4-0.7,2.5-0.7H513.1z M509.7,364.1h2.4v-3.5h-2.3c-1.5,0-2.3,0.6-2.3,1.8
		C507.5,363.5,508.2,364.1,509.7,364.1z"/>
	<path d="M452.7,376.9V390h-1.9v-11.5h-3v-1.6H452.7z"/>
	<path d="M464.8,388.4v1.6h-9.4v-1.3l5.4-5.2c0.7-0.6,1.1-1.2,1.3-1.6s0.3-0.9,0.3-1.4c0-0.7-0.2-1.2-0.7-1.6s-1.2-0.6-2.1-0.6
		c-1.5,0-2.6,0.5-3.4,1.4l-1.3-1.1c0.5-0.6,1.2-1.1,2-1.5c0.8-0.4,1.8-0.5,2.8-0.5c1.4,0,2.5,0.3,3.3,1c0.8,0.7,1.2,1.5,1.2,2.7
		c0,0.7-0.2,1.4-0.5,2c-0.3,0.6-0.9,1.3-1.7,2.1l-4,3.9H464.8z"/>
	<path d="M468.7,387.9c0.2,0.2,0.3,0.5,0.3,0.9c0,0.2,0,0.4-0.1,0.5s-0.1,0.4-0.3,0.8l-0.9,2.6h-1.2l0.7-2.8
		c-0.2-0.1-0.4-0.2-0.6-0.4c-0.1-0.2-0.2-0.4-0.2-0.7c0-0.4,0.1-0.7,0.4-0.9c0.2-0.2,0.5-0.4,0.9-0.4
		C468.2,387.6,468.4,387.7,468.7,387.9z"/>
	<path d="M479,383.6c0.7,0.7,1,1.5,1,2.6c0,0.8-0.2,1.4-0.6,2c-0.4,0.6-0.9,1.1-1.7,1.4c-0.7,0.4-1.7,0.5-2.7,0.5
		c-0.9,0-1.8-0.1-2.7-0.4s-1.6-0.7-2.1-1.2l0.9-1.5c0.5,0.4,1,0.8,1.7,1c0.7,0.3,1.4,0.4,2.2,0.4c1,0,1.7-0.2,2.3-0.6s0.8-1,0.8-1.7
		c0-0.7-0.3-1.3-0.8-1.7c-0.5-0.4-1.4-0.6-2.4-0.6h-1.1v-1.3l3.3-4.1h-6.3v-1.6h8.7v1.3l-3.4,4.2C477.3,382.5,478.3,382.9,479,383.6
		z"/>
</g>
<g>
	<path d="M585,552.5c-0.8-0.5-1.5-1.1-2-1.9c-0.5-0.8-0.7-1.7-0.7-2.7c0-1,0.2-1.9,0.7-2.7c0.5-0.8,1.1-1.5,2-1.9
		c0.8-0.5,1.8-0.7,2.8-0.7c0.8,0,1.5,0.1,2.2,0.4s1.2,0.6,1.7,1.1l-0.7,0.7c-0.8-0.8-1.9-1.2-3.1-1.2c-0.8,0-1.6,0.2-2.3,0.6
		c-0.7,0.4-1.2,0.9-1.6,1.6c-0.4,0.7-0.6,1.4-0.6,2.2c0,0.8,0.2,1.6,0.6,2.2c0.4,0.7,0.9,1.2,1.6,1.6c0.7,0.4,1.4,0.6,2.3,0.6
		c1.3,0,2.3-0.4,3.1-1.3l0.7,0.7c-0.5,0.5-1,0.9-1.7,1.2c-0.7,0.3-1.4,0.4-2.2,0.4C586.7,553.2,585.8,553,585,552.5z"/>
	<path d="M600.8,545.2v7.9h-1.1v-7h-5v7h-1.1v-7.9H600.8z"/>
	<path d="M608.9,545.9c0.6,0.5,0.8,1.3,0.8,2.3v4.9h-1v-1.2c-0.2,0.4-0.6,0.7-1.1,1c-0.5,0.2-1,0.3-1.7,0.3c-0.9,0-1.6-0.2-2.1-0.6
		c-0.5-0.4-0.8-1-0.8-1.7c0-0.7,0.2-1.2,0.7-1.6c0.5-0.4,1.3-0.6,2.3-0.6h2.5v-0.5c0-0.7-0.2-1.2-0.6-1.6c-0.4-0.4-0.9-0.5-1.7-0.5
		c-0.5,0-1,0.1-1.4,0.2c-0.5,0.2-0.9,0.4-1.2,0.7l-0.5-0.8c0.4-0.3,0.9-0.6,1.4-0.8c0.6-0.2,1.2-0.3,1.8-0.3
		C607.6,545.2,608.4,545.4,608.9,545.9z M607.7,551.9c0.4-0.3,0.8-0.7,1-1.2v-1.3h-2.5c-1.4,0-2,0.5-2,1.4c0,0.5,0.2,0.8,0.5,1.1
		c0.4,0.3,0.8,0.4,1.5,0.4C606.8,552.4,607.3,552.2,607.7,551.9z"/>
	<path d="M619.1,545.2v7.9H618v-7h-3.8l-0.1,2c-0.1,1.6-0.3,2.9-0.6,3.8c-0.3,0.9-0.8,1.3-1.6,1.3c-0.2,0-0.5,0-0.8-0.1l0.1-0.9
		c0.2,0,0.3,0.1,0.4,0.1c0.4,0,0.7-0.2,0.9-0.6c0.2-0.4,0.4-0.9,0.4-1.4c0.1-0.6,0.1-1.3,0.2-2.2l0.1-2.8H619.1z"/>
	<path d="M627.7,548.7c0.5,0.4,0.8,1.1,0.8,1.9c0,0.8-0.3,1.5-0.8,1.9c-0.6,0.5-1.4,0.7-2.4,0.7l-3.2,0v-7.9h1.1v2.8l2.3,0
		C626.5,548,627.2,548.2,627.7,548.7z M626.9,551.9c0.4-0.3,0.6-0.8,0.6-1.3c0-0.6-0.2-1-0.6-1.3c-0.4-0.3-0.9-0.4-1.7-0.4l-2.1,0
		v3.5l2.1,0C625.9,552.3,626.5,552.2,626.9,551.9z"/>
	<path d="M630.5,545.2h1.1v3.5h5v-3.5h1.1v7.9h-1.1v-3.5h-5v3.5h-1.1V545.2z"/>
	<path d="M646.8,545.2v7.9h-1v-2.6h-2.5H643l-1.8,2.6H640l2-2.8c-0.6-0.2-1.1-0.5-1.4-0.9c-0.3-0.4-0.5-0.9-0.5-1.6
		c0-0.9,0.3-1.6,0.9-2c0.6-0.5,1.4-0.7,2.5-0.7H646.8z M643.4,549.7h2.4v-3.5h-2.3c-1.5,0-2.3,0.6-2.3,1.8
		C641.2,549.1,641.9,549.7,643.4,549.7z"/>
	<path d="M586.4,562.5v13.2h-1.9v-11.5h-3v-1.6H586.4z"/>
	<path d="M597.3,569.2c0.7,0.7,1,1.5,1,2.6c0,0.8-0.2,1.4-0.6,2c-0.4,0.6-0.9,1.1-1.7,1.4c-0.7,0.4-1.7,0.5-2.7,0.5
		c-0.9,0-1.8-0.1-2.7-0.4s-1.6-0.7-2.1-1.2l0.9-1.5c0.5,0.4,1,0.8,1.7,1c0.7,0.3,1.4,0.4,2.2,0.4c1,0,1.7-0.2,2.3-0.6
		c0.5-0.4,0.8-1,0.8-1.7c0-0.7-0.3-1.3-0.8-1.7c-0.5-0.4-1.4-0.6-2.4-0.6h-1.1v-1.3l3.3-4.1h-6.3v-1.6h8.7v1.3l-3.4,4.2
		C595.6,568.2,596.6,568.6,597.3,569.2z"/>
	<path d="M602.1,573.6c0.2,0.2,0.3,0.5,0.3,0.9c0,0.2,0,0.4-0.1,0.5s-0.1,0.4-0.3,0.8l-0.9,2.6h-1.2l0.7-2.8
		c-0.2-0.1-0.4-0.2-0.6-0.4c-0.1-0.2-0.2-0.4-0.2-0.7c0-0.4,0.1-0.7,0.4-0.9c0.2-0.2,0.5-0.4,0.9-0.4
		C601.6,573.2,601.9,573.3,602.1,573.6z"/>
	<path d="M613.7,574v1.6h-9.4v-1.3l5.4-5.2c0.7-0.6,1.1-1.2,1.3-1.6s0.3-0.9,0.3-1.4c0-0.7-0.2-1.2-0.7-1.6
		c-0.5-0.4-1.2-0.6-2.1-0.6c-1.5,0-2.6,0.5-3.4,1.4l-1.3-1.1c0.5-0.6,1.2-1.1,2-1.5s1.8-0.5,2.8-0.5c1.4,0,2.5,0.3,3.3,1
		c0.8,0.7,1.2,1.5,1.2,2.7c0,0.7-0.2,1.4-0.5,2c-0.3,0.6-0.9,1.3-1.7,2.1l-4,3.9H613.7z"/>
</g>
<g>
	<path d="M139.9,580.1c0.7,0.7,1,1.5,1,2.6c0,0.8-0.2,1.4-0.6,2c-0.4,0.6-0.9,1.1-1.7,1.4c-0.7,0.4-1.7,0.5-2.7,0.5
		c-0.9,0-1.8-0.1-2.7-0.4s-1.6-0.7-2.1-1.2l0.9-1.5c0.5,0.4,1,0.8,1.7,1c0.7,0.3,1.4,0.4,2.2,0.4c1,0,1.7-0.2,2.3-0.6s0.8-1,0.8-1.7
		c0-0.7-0.3-1.3-0.8-1.7c-0.5-0.4-1.4-0.6-2.4-0.6h-1.1v-1.3l3.3-4.1h-6.3v-1.6h8.7v1.3l-3.4,4.2
		C138.3,579.1,139.3,579.5,139.9,580.1z"/>
	<path d="M144.8,584.5c0.2,0.2,0.3,0.5,0.3,0.9c0,0.2,0,0.4-0.1,0.5c0,0.2-0.1,0.4-0.3,0.8l-0.9,2.6h-1.2l0.7-2.8
		c-0.2-0.1-0.4-0.2-0.6-0.4c-0.1-0.2-0.2-0.4-0.2-0.7c0-0.4,0.1-0.7,0.4-0.9c0.2-0.2,0.5-0.4,0.9-0.4
		C144.3,584.1,144.6,584.2,144.8,584.5z"/>
	<path d="M149.4,585.9c-0.8-0.5-1.4-1.3-1.9-2.3c-0.5-1-0.7-2.2-0.7-3.6c0-1.4,0.2-2.6,0.7-3.6c0.5-1,1.1-1.8,1.9-2.3
		c0.8-0.5,1.7-0.8,2.8-0.8c1,0,1.9,0.3,2.8,0.8c0.8,0.5,1.4,1.3,1.9,2.3c0.5,1,0.7,2.2,0.7,3.6c0,1.4-0.2,2.6-0.7,3.6
		c-0.5,1-1.1,1.8-1.9,2.3c-0.8,0.5-1.7,0.8-2.8,0.8C151.1,586.7,150.2,586.4,149.4,585.9z M154.6,583.7c0.6-0.9,0.9-2.1,0.9-3.8
		s-0.3-2.9-0.9-3.8c-0.6-0.9-1.5-1.3-2.5-1.3c-1.1,0-1.9,0.4-2.5,1.3c-0.6,0.9-0.9,2.1-0.9,3.8s0.3,2.9,0.9,3.8s1.5,1.3,2.5,1.3
		C153.2,585,154,584.6,154.6,583.7z"/>
</g>
<g>
	<path d="M469,160.1v1.6h-9.4v-1.3l5.4-5.2c0.7-0.6,1.1-1.2,1.3-1.6c0.2-0.5,0.3-0.9,0.3-1.4c0-0.7-0.2-1.2-0.7-1.6
		c-0.5-0.4-1.2-0.6-2.1-0.6c-1.5,0-2.6,0.5-3.4,1.4l-1.3-1.1c0.5-0.6,1.2-1.1,2-1.5c0.8-0.4,1.8-0.5,2.8-0.5c1.4,0,2.5,0.3,3.3,1
		c0.8,0.7,1.2,1.5,1.2,2.7c0,0.7-0.2,1.4-0.5,2s-0.9,1.3-1.7,2.1l-4,3.9H469z"/>
	<path d="M472.9,159.7c0.2,0.2,0.3,0.5,0.3,0.9c0,0.2,0,0.4-0.1,0.5c0,0.2-0.1,0.4-0.3,0.8l-0.9,2.6h-1.2l0.7-2.8
		c-0.2-0.1-0.4-0.2-0.6-0.4c-0.1-0.2-0.2-0.4-0.2-0.7c0-0.4,0.1-0.7,0.4-0.9s0.5-0.4,0.9-0.4C472.3,159.3,472.6,159.4,472.9,159.7z"
		/>
	<path d="M486.3,158.5h-2.5v3.2H482v-3.2h-7.3v-1.3l6.7-8.6h2l-6.4,8.3h5.1V154h1.8v2.9h2.5V158.5z"/>
</g>
<g>
	<path d="M628.5,164.1H626v3.2h-1.8v-3.2h-7.3v-1.3l6.7-8.6h2l-6.4,8.3h5.1v-2.9h1.8v2.9h2.5V164.1z"/>
	<path d="M632.1,165.2c0.2,0.2,0.3,0.5,0.3,0.9c0,0.2,0,0.4-0.1,0.5s-0.1,0.4-0.3,0.8l-0.9,2.6h-1.2l0.7-2.8
		c-0.2-0.1-0.4-0.2-0.6-0.4c-0.1-0.2-0.2-0.4-0.2-0.7c0-0.4,0.1-0.7,0.4-0.9c0.2-0.2,0.5-0.4,0.9-0.4
		C631.6,164.9,631.9,165,632.1,165.2z"/>
	<path d="M645.5,164.1H643v3.2h-1.8v-3.2h-7.3v-1.3l6.7-8.6h2l-6.4,8.3h5.1v-2.9h1.8v2.9h2.5V164.1z"/>
</g>
<g>
	<path d="M512.9,249.4c0.9,0.7,1.3,1.7,1.3,2.9c0,0.8-0.2,1.5-0.6,2.1c-0.4,0.6-0.9,1.1-1.7,1.5s-1.7,0.5-2.8,0.5
		c-0.9,0-1.8-0.1-2.7-0.4s-1.6-0.7-2.1-1.2l0.9-1.5c0.5,0.4,1,0.8,1.7,1c0.7,0.3,1.4,0.4,2.2,0.4c1,0,1.8-0.2,2.3-0.6
		c0.5-0.4,0.8-1,0.8-1.7c0-0.8-0.3-1.4-0.9-1.8c-0.6-0.4-1.6-0.6-3.1-0.6h-3l0.7-6.9h7.4v1.6h-5.8l-0.4,3.6h1.5
		C510.6,248.3,512,248.6,512.9,249.4z"/>
	<path d="M517.9,254.1c0.2,0.2,0.3,0.5,0.3,0.9c0,0.2,0,0.4-0.1,0.5s-0.1,0.4-0.3,0.8L517,259h-1.2l0.7-2.8
		c-0.2-0.1-0.4-0.2-0.6-0.4c-0.1-0.2-0.2-0.4-0.2-0.7c0-0.4,0.1-0.7,0.4-0.9c0.2-0.2,0.5-0.4,0.9-0.4
		C517.4,253.7,517.7,253.9,517.9,254.1z"/>
	<path d="M529.5,254.6v1.6H520v-1.3l5.4-5.2c0.7-0.6,1.1-1.2,1.3-1.6c0.2-0.5,0.3-0.9,0.3-1.4c0-0.7-0.2-1.2-0.7-1.6
		c-0.5-0.4-1.2-0.6-2.1-0.6c-1.5,0-2.6,0.5-3.4,1.4l-1.3-1.1c0.5-0.6,1.2-1.1,2-1.5c0.8-0.4,1.8-0.5,2.8-0.5c1.4,0,2.5,0.3,3.3,1
		c0.8,0.7,1.2,1.5,1.2,2.7c0,0.7-0.2,1.4-0.5,2c-0.3,0.6-0.9,1.3-1.7,2.1l-4,3.9H529.5z"/>
</g>
<g>
	<path d="M371.3,158.8c0.7,0.7,1,1.5,1,2.6c0,0.8-0.2,1.4-0.6,2c-0.4,0.6-0.9,1.1-1.7,1.4s-1.7,0.5-2.7,0.5c-0.9,0-1.8-0.1-2.7-0.4
		s-1.6-0.7-2.1-1.2l0.9-1.5c0.5,0.4,1,0.8,1.7,1c0.7,0.3,1.4,0.4,2.2,0.4c1,0,1.7-0.2,2.3-0.6c0.5-0.4,0.8-1,0.8-1.7
		s-0.3-1.3-0.8-1.7s-1.4-0.6-2.4-0.6h-1.1v-1.3l3.3-4.1h-6.3V152h8.7v1.3l-3.4,4.2C369.6,157.7,370.6,158.1,371.3,158.8z"/>
	<path d="M376.2,163.1c0.2,0.2,0.3,0.5,0.3,0.9c0,0.2,0,0.4-0.1,0.5c0,0.2-0.1,0.4-0.3,0.8l-0.9,2.6h-1.2l0.7-2.8
		c-0.2-0.1-0.4-0.2-0.6-0.4c-0.1-0.2-0.2-0.4-0.2-0.7c0-0.4,0.1-0.7,0.4-0.9c0.2-0.2,0.5-0.4,0.9-0.4
		C375.7,162.7,376,162.9,376.2,163.1z"/>
	<path d="M386.5,158.8c0.7,0.7,1,1.5,1,2.6c0,0.8-0.2,1.4-0.6,2c-0.4,0.6-0.9,1.1-1.7,1.4s-1.7,0.5-2.7,0.5c-0.9,0-1.8-0.1-2.7-0.4
		s-1.6-0.7-2.1-1.2l0.9-1.5c0.5,0.4,1,0.8,1.7,1c0.7,0.3,1.4,0.4,2.2,0.4c1,0,1.7-0.2,2.3-0.6c0.5-0.4,0.8-1,0.8-1.7
		s-0.3-1.3-0.8-1.7s-1.4-0.6-2.4-0.6h-1.1v-1.3l3.3-4.1h-6.3V152h8.7v1.3l-3.4,4.2C384.8,157.7,385.8,158.1,386.5,158.8z"/>
</g>
<g>
	
		<rect x="28.5" y="88.3" fill-rule="evenodd" clip-rule="evenodd" fill="#F1F2F2" stroke="#848484" stroke-miterlimit="10" width="34.9" height="2.5"/>
	
		<rect x="28.5" y="88.3" fill-rule="evenodd" clip-rule="evenodd" fill="#F1F2F2" stroke="#848484" stroke-miterlimit="10" width="34.9" height="2.5"/>
	
		<rect x="52.3" y="127.3" fill-rule="evenodd" clip-rule="evenodd" fill="#F1F2F2" stroke="#848484" stroke-miterlimit="10" width="11.5" height="3.4"/>
	
		<rect x="52.3" y="127.3" fill-rule="evenodd" clip-rule="evenodd" fill="#F1F2F2" stroke="#848484" stroke-miterlimit="10" width="11.5" height="3.4"/>
	
		<rect x="26.9" y="90.5" fill-rule="evenodd" clip-rule="evenodd" fill="#F1F2F2" stroke="#848484" stroke-miterlimit="10" width="38.3" height="38.2"/>
	
		<rect x="26.9" y="90.5" fill-rule="evenodd" clip-rule="evenodd" fill="#F1F2F2" stroke="#848484" stroke-miterlimit="10" width="38.3" height="38.2"/>
	<path fill-rule="evenodd" clip-rule="evenodd" fill="#F1F2F2" stroke="#848484" stroke-miterlimit="10" d="M26.9,125.3l38.3,0
		L26.9,125.3z"/>
	<path fill-rule="evenodd" clip-rule="evenodd" fill="#F1F2F2" stroke="#848484" stroke-miterlimit="10" d="M25.1,125.2
		c0-0.7,0.7-1.5,1.5-1.5c0.9,0,1.5,0.7,1.5,1.5c0,0.9-0.7,1.7-1.5,1.7C25.8,126.8,25.1,126.1,25.1,125.2z"/>
	<path fill-rule="evenodd" clip-rule="evenodd" fill="#F1F2F2" stroke="#848484" stroke-miterlimit="10" d="M25.1,125.2
		c0-0.7,0.7-1.5,1.5-1.5c0.9,0,1.5,0.7,1.5,1.5c0,0.9-0.7,1.7-1.5,1.7C25.8,126.8,25.1,126.1,25.1,125.2z"/>
	<path fill-rule="evenodd" clip-rule="evenodd" fill="#F1F2F2" stroke="#848484" stroke-miterlimit="10" d="M46.3,105.6l0,6.7
		L46.3,105.6z"/>
	<path fill-rule="evenodd" clip-rule="evenodd" fill="#F1F2F2" stroke="#848484" stroke-miterlimit="10" d="M43,108.9h6.7H43z"/>
	<path fill-rule="evenodd" clip-rule="evenodd" fill="#F1F2F2" stroke="#848484" stroke-miterlimit="10" d="M43.9,111.4l4.9-4.9
		L43.9,111.4z"/>
	<path fill-rule="evenodd" clip-rule="evenodd" fill="#F1F2F2" stroke="#848484" stroke-miterlimit="10" d="M48.8,111.4l-4.9-4.9
		L48.8,111.4z"/>
	<path fill-rule="evenodd" clip-rule="evenodd" fill="#F1F2F2" stroke="#848484" stroke-miterlimit="10" d="M36.4,105.4l0,6.7
		L36.4,105.4z"/>
	<path fill-rule="evenodd" clip-rule="evenodd" fill="#F1F2F2" stroke="#848484" stroke-miterlimit="10" d="M33,108.7h6.7H33z"/>
	<path fill-rule="evenodd" clip-rule="evenodd" fill="#F1F2F2" stroke="#848484" stroke-miterlimit="10" d="M34,111.2l4.9-4.9
		L34,111.2z"/>
	<path fill-rule="evenodd" clip-rule="evenodd" fill="#F1F2F2" stroke="#848484" stroke-miterlimit="10" d="M38.9,111.2l-4.9-4.9
		L38.9,111.2z"/>
	<path fill-rule="evenodd" clip-rule="evenodd" fill="#F1F2F2" stroke="#848484" stroke-miterlimit="10" d="M56,105.6l0,6.7
		L56,105.6z"/>
	<path fill-rule="evenodd" clip-rule="evenodd" fill="#F1F2F2" stroke="#848484" stroke-miterlimit="10" d="M52.7,108.9h6.7H52.7z"
		/>
	<path fill-rule="evenodd" clip-rule="evenodd" fill="#F1F2F2" stroke="#848484" stroke-miterlimit="10" d="M53.6,111.4l4.9-4.9
		L53.6,111.4z"/>
	<path fill-rule="evenodd" clip-rule="evenodd" fill="#F1F2F2" stroke="#848484" stroke-miterlimit="10" d="M58.5,111.4l-4.9-4.9
		L58.5,111.4z"/>
</g>
<g>
	<g>
		<path fill="#F1F2F2" stroke="#848484" stroke-miterlimit="10" d="M145.2,193c7.9,0,14.3-2.4,14.3-5.3c0-2.9-6.4-5.3-14.3-5.3
			c-7.9,0-14.3,2.4-14.3,5.3C130.9,190.6,137.3,193,145.2,193z"/>
		<path fill="#F1F2F2" stroke="#848484" stroke-miterlimit="10" d="M145.2,216.9c7.9,0,14.3-6.4,14.3-14.3c0-7.9-6.4-14.3-14.3-14.3
			c-7.9,0-14.3,6.4-14.3,14.3C130.9,210.5,137.3,216.9,145.2,216.9z"/>
	</g>
	<g>
		<path fill="#F1F2F2" stroke="#848484" stroke-miterlimit="10" d="M145.2,260.5c-7.9,0-14.3,2.4-14.3,5.3c0,2.9,6.4,5.3,14.3,5.3
			c7.9,0,14.3-2.4,14.3-5.3C159.4,262.9,153,260.5,145.2,260.5z"/>
		<path fill="#F1F2F2" stroke="#848484" stroke-miterlimit="10" d="M145.2,236.7c-7.9,0-14.3,6.4-14.3,14.3
			c0,7.9,6.4,14.3,14.3,14.3c7.9,0,14.3-6.4,14.3-14.3C159.4,243.1,153,236.7,145.2,236.7z"/>
	</g>
	<g>
		<path fill="#F1F2F2" stroke="#848484" stroke-miterlimit="10" d="M107.6,193c7.9,0,14.3-2.4,14.3-5.3c0-2.9-6.4-5.3-14.3-5.3
			s-14.3,2.4-14.3,5.3C93.3,190.6,99.7,193,107.6,193z"/>
		<path fill="#F1F2F2" stroke="#848484" stroke-miterlimit="10" d="M107.6,216.9c7.9,0,14.3-6.4,14.3-14.3c0-7.9-6.4-14.3-14.3-14.3
			s-14.3,6.4-14.3,14.3C93.3,210.5,99.7,216.9,107.6,216.9z"/>
	</g>
	<g>
		<path fill="#F1F2F2" stroke="#848484" stroke-miterlimit="10" d="M107.6,260.5c-7.9,0-14.3,2.4-14.3,5.3c0,2.9,6.4,5.3,14.3,5.3
			c7.9,0,14.3-2.4,14.3-5.3C121.8,262.9,115.5,260.5,107.6,260.5z"/>
		<path fill="#F1F2F2" stroke="#848484" stroke-miterlimit="10" d="M107.6,236.7c-7.9,0-14.3,6.4-14.3,14.3
			c0,7.9,6.4,14.3,14.3,14.3c7.9,0,14.3-6.4,14.3-14.3C121.8,243.1,115.5,236.7,107.6,236.7z"/>
	</g>
	<rect x="80.2" y="198" fill="#F1F2F2" stroke="#848484" stroke-miterlimit="10" width="93.7" height="57.5"/>
</g>
<g>
	<path fill-rule="evenodd" clip-rule="evenodd" fill="#F1F2F2" stroke="#848484" stroke-miterlimit="10" d="M125.9,512.5H71.8H28.3
		c-2.9,0-5.3-2.4-5.3-5.3v-43.6V331.7c0-2.9,2.4-5.3,5.3-5.3h43.6c2.9,0,5.3,2.4,5.3,5.3v121.4c0,2.9,2.4,5.3,5.3,5.3h43.6
		c2.9,0,5.3,2.4,5.3,5.3v43.6C131.2,510.1,128.8,512.5,125.9,512.5z"/>
	<g>
		<path fill-rule="evenodd" clip-rule="evenodd" fill="#F1F2F2" stroke="#848484" stroke-miterlimit="10" d="M68.4,458.3
			c6.2,0,8.7,0.3,8.7,8.1v23.2c0,7.8-2.6,8.1-8.7,8.1H45.3c-6.2,0-8.7-0.3-8.7-8.1v-23.2c0-7.8,2.6-8.1,8.7-8.1H68.4z"/>
		<path fill-rule="evenodd" clip-rule="evenodd" fill="#F1F2F2" stroke="#848484" stroke-miterlimit="10" d="M68.4,458.3
			c6.2,0,8.7,0.3,8.7,8.1v23.2c0,7.8-2.6,8.1-8.7,8.1H45.3c-6.2,0-8.7-0.3-8.7-8.1v-23.2c0-7.8,2.6-8.1,8.7-8.1H68.4z"/>
		<path fill-rule="evenodd" clip-rule="evenodd" fill="#F1F2F2" stroke="#848484" stroke-miterlimit="10" d="M68.4,419.2
			c6.2,0,8.7,0.3,8.7,8.1v23.2c0,7.8-2.6,8.1-8.7,8.1H45.3c-6.2,0-8.7-0.3-8.7-8.1v-23.2c0-7.8,2.6-8.1,8.7-8.1H68.4z"/>
		<path fill-rule="evenodd" clip-rule="evenodd" fill="#F1F2F2" stroke="#848484" stroke-miterlimit="10" d="M68.4,419.2
			c6.2,0,8.7,0.3,8.7,8.1v23.2c0,7.8-2.6,8.1-8.7,8.1H45.3c-6.2,0-8.7-0.3-8.7-8.1v-23.2c0-7.8,2.6-8.1,8.7-8.1H68.4z"/>
		<path fill-rule="evenodd" clip-rule="evenodd" fill="#F1F2F2" stroke="#848484" stroke-miterlimit="10" d="M68.4,380
			c6.2,0,8.7,0.3,8.7,8.1v23.3c0,7.8-2.6,8.1-8.7,8.1H45.3c-6.2,0-8.7-0.3-8.7-8.1v-23.3c0-7.8,2.6-8.1,8.7-8.1H68.4z"/>
		<path fill-rule="evenodd" clip-rule="evenodd" fill="#F1F2F2" stroke="#848484" stroke-miterlimit="10" d="M68.4,380
			c6.2,0,8.7,0.3,8.7,8.1v23.3c0,7.8-2.6,8.1-8.7,8.1H45.3c-6.2,0-8.7-0.3-8.7-8.1v-23.3c0-7.8,2.6-8.1,8.7-8.1H68.4z"/>
		<path fill-rule="evenodd" clip-rule="evenodd" fill="#F1F2F2" stroke="#848484" stroke-miterlimit="10" d="M109,458.3
			c6.2,0,8.7,0.3,8.7,8.1v23.2c0,7.8-2.6,8.1-8.7,8.1H85.8c-6.2,0-8.7-0.3-8.7-8.1v-23.2c0-7.8,2.6-8.1,8.7-8.1H109z"/>
		<path fill-rule="evenodd" clip-rule="evenodd" fill="#F1F2F2" stroke="#848484" stroke-miterlimit="10" d="M68.3,340.9
			c6.2,0,8.7,0.3,8.7,8.1v23.3c0,7.8-2.6,8.1-8.7,8.1H45.1c-6.2,0-8.7-0.3-8.7-8.1V349c0-7.8,2.6-8.1,8.7-8.1H68.3z"/>
		<path fill-rule="evenodd" clip-rule="evenodd" fill="#F1F2F2" stroke="#848484" stroke-miterlimit="10" d="M28.6,512.5h94.7h2.3
			c3.1,0,5.6-2.7,5.6-6V504v-39.6c0-3.3-2.5-6-5.6-6h-2.3c-3.1,0-5.6,2.7-5.6,6V498H36.5v-157h35c3.1,0,5.6-2.7,5.6-6v-2.5
			c0-3.3-2.5-6-5.6-6H30.9h-2.3c-3.1,0-5.6,2.7-5.6,6v2.5V504v2.5v0C23,509.8,25.5,512.5,28.6,512.5z"/>
	</g>
</g>
<g>
	<g>
		
			<rect x="284.9" y="311.9" fill-rule="evenodd" clip-rule="evenodd" fill="#F1F2F2" stroke="#848484" stroke-miterlimit="10" width="4.2" height="84.1"/>
		<polygon fill-rule="evenodd" clip-rule="evenodd" fill="#F1F2F2" stroke="#848484" stroke-miterlimit="10" points="289.2,388.9 
			292.5,375.4 292.5,332.7 289.2,319.2 		"/>
		
			<rect x="292.5" y="346.9" fill-rule="evenodd" clip-rule="evenodd" fill="#F1F2F2" stroke="#848484" stroke-miterlimit="10" width="3.7" height="14.3"/>
	</g>
</g>
<g>
	<g>
		
			<rect x="563.9" y="421.9" fill-rule="evenodd" clip-rule="evenodd" fill="#F1F2F2" stroke="#848484" stroke-miterlimit="10" width="4.2" height="84.1"/>
		<polygon fill-rule="evenodd" clip-rule="evenodd" fill="#F1F2F2" stroke="#848484" stroke-miterlimit="10" points="563.9,429.1 
			560.6,442.6 560.6,485.3 563.9,498.8 		"/>
		
			<rect x="556.9" y="456.8" transform="matrix(-1 -5.123425e-11 5.123425e-11 -1 1117.5623 927.9022)" fill-rule="evenodd" clip-rule="evenodd" fill="#F1F2F2" stroke="#848484" stroke-miterlimit="10" width="3.7" height="14.3"/>
	</g>
</g>
<g>
	<path fill="#F1F2F2" stroke="#848484" stroke-miterlimit="10" d="M306.8,144.7V66.6h35.7v78.1c-1.5,4-6.8,12.5-13.6,17.2
		c-7.7,5.3-18.4,5.2-22.1,4.9C306.8,159.4,306.8,152,306.8,144.7z M306.8,144.7h35.7"/>
	
		<rect x="306.8" y="75.2" transform="matrix(-1 -4.699719e-11 4.699719e-11 -1 617.9778 153.6133)" fill="#F1F2F2" stroke="#848484" stroke-miterlimit="10" width="4.5" height="3.2"/>
	
		<rect x="306.8" y="94.5" transform="matrix(-1 -4.618007e-11 4.618007e-11 -1 617.9778 192.2363)" fill="#F1F2F2" stroke="#848484" stroke-miterlimit="10" width="4.5" height="3.2"/>
	
		<rect x="306.8" y="113.7" transform="matrix(-1 -4.740620e-11 4.740620e-11 -1 617.9778 230.4643)" fill="#F1F2F2" stroke="#848484" stroke-miterlimit="10" width="4.5" height="3.2"/>
	
		<rect x="306.8" y="133" transform="matrix(-1 -4.679291e-11 4.679291e-11 -1 617.9778 269.0873)" fill="#F1F2F2" stroke="#848484" stroke-miterlimit="10" width="4.5" height="3.2"/>
	
		<rect x="306.7" y="73" transform="matrix(-1 -4.412527e-11 4.412527e-11 -1 614.2319 153.6133)" fill="#F1F2F2" stroke="#848484" stroke-miterlimit="10" width="0.7" height="7.7"/>
	
		<rect x="306.7" y="92.2" transform="matrix(-1 -4.780233e-11 4.780233e-11 -1 614.2319 192.0783)" fill="#F1F2F2" stroke="#848484" stroke-miterlimit="10" width="0.7" height="7.7"/>
	
		<rect x="306.7" y="111.4" transform="matrix(-1 -4.780233e-11 4.780233e-11 -1 614.2319 230.4643)" fill="#F1F2F2" stroke="#848484" stroke-miterlimit="10" width="0.7" height="7.7"/>
	
		<rect x="306.7" y="130.7" transform="matrix(-1 -4.780233e-11 4.780233e-11 -1 614.2319 269.0873)" fill="#F1F2F2" stroke="#848484" stroke-miterlimit="10" width="0.7" height="7.7"/>
</g>
<g>
	<g>
		
			<rect x="307.9" y="431.5" fill-rule="evenodd" clip-rule="evenodd" fill="#F1F2F2" stroke="#848484" stroke-miterlimit="10" width="145.2" height="112.7"/>
		
			<rect x="313.7" y="434.1" fill-rule="evenodd" clip-rule="evenodd" fill="#F1F2F2" stroke="#848484" stroke-miterlimit="10" width="135.3" height="107.5"/>
		
			<rect x="317.2" y="437.3" fill-rule="evenodd" clip-rule="evenodd" fill="#F1F2F2" stroke="#848484" stroke-miterlimit="10" width="30.5" height="41.8"/>
		
			<rect x="317.2" y="496.4" fill-rule="evenodd" clip-rule="evenodd" fill="#F1F2F2" stroke="#848484" stroke-miterlimit="10" width="30.5" height="41.8"/>
		<polygon fill-rule="evenodd" clip-rule="evenodd" fill="#F1F2F2" stroke="#848484" stroke-miterlimit="10" points="363.3,434.1 
			344.6,466.2 344.6,509.6 344.6,466.2 344.6,509.6 363.3,541.6 449,541.6 449,541.5 449,434.1 		"/>
		<polyline fill-rule="evenodd" clip-rule="evenodd" fill="#F1F2F2" stroke="#848484" stroke-miterlimit="10" points="363.3,434.1 
			376.9,456.6 344.6,466.2 		"/>
		
			<line fill-rule="evenodd" clip-rule="evenodd" fill="#F1F2F2" stroke="#848484" stroke-miterlimit="10" x1="344.6" y1="466.2" x2="363.3" y2="434.1"/>
		<polyline fill-rule="evenodd" clip-rule="evenodd" fill="#F1F2F2" stroke="#848484" stroke-miterlimit="10" points="363.3,541.6 
			376.9,519.1 344.6,509.6 		"/>
		
			<line fill-rule="evenodd" clip-rule="evenodd" fill="#F1F2F2" stroke="#848484" stroke-miterlimit="10" x1="344.6" y1="509.6" x2="363.3" y2="541.6"/>
	</g>
	<g>
		
			<rect x="302.5" y="551.7" transform="matrix(-1.836970e-16 1 -1 -1.836970e-16 888.4229 243.7947)" fill="#F1F2F2" stroke="#848484" stroke-miterlimit="10" width="39.7" height="28.8"/>
		
			<rect x="329.3" y="565" transform="matrix(-1.836970e-16 1 -1 -1.836970e-16 903.6149 228.2929)" fill="#F1F2F2" stroke="#848484" stroke-miterlimit="10" width="16.6" height="1.9"/>
	</g>
	<g>
		
			<rect x="302.5" y="395" transform="matrix(-1.836970e-16 1 -1 -1.836970e-16 731.7608 87.1326)" fill="#F1F2F2" stroke="#848484" stroke-miterlimit="10" width="39.7" height="28.8"/>
		
			<rect x="329.3" y="408.4" transform="matrix(2.183082e-13 1 -1 2.183082e-13 746.9528 71.6307)" fill="#F1F2F2" stroke="#848484" stroke-miterlimit="10" width="16.6" height="1.9"/>
	</g>
</g>
<g>
	
		<rect x="308.1" y="308.4" transform="matrix(-1 -4.489221e-11 4.489221e-11 -1 737.2394 658.5862)" fill-rule="evenodd" clip-rule="evenodd" fill="#F1F2F2" stroke="#848484" stroke-miterlimit="10" width="120.9" height="41.7"/>
	<line fill="#F1F2F2" stroke="#848484" stroke-miterlimit="10" x1="424.7" y1="308.4" x2="424.7" y2="350.2"/>
	<line fill="#F1F2F2" stroke="#848484" stroke-miterlimit="10" x1="312.7" y1="308.4" x2="312.7" y2="350.2"/>
	<line fill="#F1F2F2" stroke="#848484" stroke-miterlimit="10" x1="424.7" y1="348.2" x2="312.7" y2="348.2"/>
	<line fill="#F1F2F2" stroke="#848484" stroke-miterlimit="10" x1="316.6" y1="329" x2="420.8" y2="329"/>
	
		<rect x="414.1" y="316.5" transform="matrix(-0.9868 0.162 -0.162 -0.9868 878.6388 586.7929)" fill="#F1F2F2" stroke="#848484" stroke-miterlimit="10" width="2.6" height="25.5"/>
	
		<rect x="404.7" y="316.5" transform="matrix(-0.9961 8.815246e-02 -8.815246e-02 -0.9961 839.5029 621.3465)" fill="#F1F2F2" stroke="#848484" stroke-miterlimit="10" width="2.6" height="25.5"/>
	
		<rect x="395.2" y="316.3" transform="matrix(-0.9734 0.229 -0.229 -0.9734 857.8918 558.4343)" fill="#F1F2F2" stroke="#848484" stroke-miterlimit="10" width="2.6" height="25.5"/>
	
		<rect x="384.7" y="316.5" transform="matrix(-0.9884 0.152 -0.152 -0.9884 817.4951 596.0441)" fill="#F1F2F2" stroke="#848484" stroke-miterlimit="10" width="2.6" height="25.5"/>
	
		<rect x="375.4" y="316.4" transform="matrix(-0.999 4.511170e-02 -4.511170e-02 -0.999 767.9181 640.9402)" fill="#F1F2F2" stroke="#848484" stroke-miterlimit="10" width="2.6" height="25.5"/>
	
		<rect x="366.1" y="316.4" transform="matrix(-0.9884 0.152 -0.152 -0.9884 780.5323 598.5865)" fill="#F1F2F2" stroke="#848484" stroke-miterlimit="10" width="2.6" height="25.5"/>
	
		<rect x="356.6" y="316.3" transform="matrix(-0.999 4.511170e-02 -4.511170e-02 -0.999 730.2573 641.5062)" fill="#F1F2F2" stroke="#848484" stroke-miterlimit="10" width="2.6" height="25.5"/>
	
		<rect x="347.3" y="316.3" transform="matrix(-0.9787 0.2052 -0.2052 -0.9787 757.2518 579.47)" fill="#F1F2F2" stroke="#848484" stroke-miterlimit="10" width="2.6" height="25.5"/>
	
		<rect x="338" y="316.3" transform="matrix(-0.9884 0.152 -0.152 -0.9884 724.6381 602.6298)" fill="#F1F2F2" stroke="#848484" stroke-miterlimit="10" width="2.6" height="25.5"/>
	
		<rect x="328.7" y="316.3" transform="matrix(-0.9964 8.473843e-02 -8.473843e-02 -0.9964 686.6383 628.8414)" fill="#F1F2F2" stroke="#848484" stroke-miterlimit="10" width="2.6" height="25.5"/>
	
		<rect x="319.4" y="316.6" transform="matrix(-0.9713 0.2379 -0.2379 -0.9713 710.4758 572.8575)" fill="#F1F2F2" stroke="#848484" stroke-miterlimit="10" width="2.6" height="25.5"/>
</g>
<g>
	<path fill-rule="evenodd" clip-rule="evenodd" fill="#F1F2F2" stroke="#848484" stroke-miterlimit="10" d="M535.4,420.1v23.5H516
		v-23.5H535.4L535.4,420.1z M535.4,531h-29.1v-87.4h29.1V531z"/>
	<path fill-rule="evenodd" clip-rule="evenodd" fill="#F1F2F2" stroke="#848484" stroke-miterlimit="10" d="M525,496
		c5.1,0,5.6-4.6,5.6-10.3c0-5.6-0.5-10.2-5.6-10.2s-9.2,4.6-9.2,10.2C515.9,491.4,520,496,525,496z"/>
	
		<rect x="520.2" y="451.4" fill-rule="evenodd" clip-rule="evenodd" fill="#F1F2F2" stroke="#848484" stroke-miterlimit="10" width="3.9" height="68.6"/>
	
		<rect x="520.2" y="451.4" fill-rule="evenodd" clip-rule="evenodd" fill="#F1F2F2" stroke="#848484" stroke-miterlimit="10" width="3.9" height="68.6"/>
	<polygon fill-rule="evenodd" clip-rule="evenodd" fill="#F1F2F2" stroke="#848484" stroke-miterlimit="10" points="523.9,514.2 
		527.1,503.2 527.1,468.3 523.9,457.3 	"/>
	<polygon fill-rule="evenodd" clip-rule="evenodd" fill="#F1F2F2" stroke="#848484" stroke-miterlimit="10" points="523.9,514.2 
		527.1,503.2 527.1,468.3 523.9,457.3 	"/>
	<path fill-rule="evenodd" clip-rule="evenodd" fill="#F1F2F2" stroke="#848484" stroke-miterlimit="10" d="M513.9,422.2v19.4h-1.9
		v-19.4H513.9L513.9,422.2z M535.4,531v23.5h-19.5V531H535.4L535.4,531z M513.9,552.4h-1.9v-19.4h1.9V552.4z"/>
</g>
<g>
	<g>
		
			<rect x="627.3" y="408.4" transform="matrix(-1 -1.224647e-16 1.224647e-16 -1 1399.7085 929.4467)" fill-rule="evenodd" clip-rule="evenodd" fill="#F1F2F2" stroke="#848484" stroke-miterlimit="10" width="145.2" height="112.7"/>
		
			<rect x="631.3" y="410.9" transform="matrix(-1 -1.224647e-16 1.224647e-16 -1 1397.9792 929.3284)" fill-rule="evenodd" clip-rule="evenodd" fill="#F1F2F2" stroke="#848484" stroke-miterlimit="10" width="135.3" height="107.5"/>
		
			<rect x="732.6" y="473.5" transform="matrix(-1 -2.385984e-13 2.385984e-13 -1 1495.7864 988.7084)" fill-rule="evenodd" clip-rule="evenodd" fill="#F1F2F2" stroke="#848484" stroke-miterlimit="10" width="30.5" height="41.8"/>
		
			<rect x="732.6" y="414.4" transform="matrix(-1 -1.224647e-16 1.224647e-16 -1 1495.7864 870.5697)" fill-rule="evenodd" clip-rule="evenodd" fill="#F1F2F2" stroke="#848484" stroke-miterlimit="10" width="30.5" height="41.8"/>
		<polygon fill-rule="evenodd" clip-rule="evenodd" fill="#F1F2F2" stroke="#848484" stroke-miterlimit="10" points="717,518.4 
			735.7,486.3 735.7,443 735.7,486.3 735.7,443 717,410.9 631.3,410.9 631.3,411 631.3,518.4 		"/>
		<polyline fill-rule="evenodd" clip-rule="evenodd" fill="#F1F2F2" stroke="#848484" stroke-miterlimit="10" points="717,518.4 
			703.4,495.9 735.7,486.3 		"/>
		
			<line fill-rule="evenodd" clip-rule="evenodd" fill="#F1F2F2" stroke="#848484" stroke-miterlimit="10" x1="735.7" y1="486.3" x2="717" y2="518.4"/>
		<polyline fill-rule="evenodd" clip-rule="evenodd" fill="#F1F2F2" stroke="#848484" stroke-miterlimit="10" points="717,410.9 
			703.4,433.4 735.7,443 		"/>
		
			<line fill-rule="evenodd" clip-rule="evenodd" fill="#F1F2F2" stroke="#848484" stroke-miterlimit="10" x1="735.7" y1="443" x2="717" y2="410.9"/>
	</g>
	<g>
		
			<rect x="738.2" y="372" transform="matrix(6.123234e-17 -1 1 6.123234e-17 371.5905 1144.4839)" fill="#F1F2F2" stroke="#848484" stroke-miterlimit="10" width="39.7" height="28.8"/>
		
			<rect x="734.4" y="385.7" transform="matrix(6.123234e-17 -1 1 6.123234e-17 356.0886 1129.2919)" fill="#F1F2F2" stroke="#848484" stroke-miterlimit="10" width="16.6" height="1.9"/>
	</g>
	<g>
		
			<rect x="738.2" y="528.7" transform="matrix(6.123234e-17 -1 1 6.123234e-17 214.9283 1301.146)" fill="#F1F2F2" stroke="#848484" stroke-miterlimit="10" width="39.7" height="28.8"/>
		
			<rect x="734.4" y="542.3" transform="matrix(-2.184307e-13 -1 1 -2.184307e-13 199.4265 1285.954)" fill="#F1F2F2" stroke="#848484" stroke-miterlimit="10" width="16.6" height="1.9"/>
	</g>
</g>
<g>
	<g>
		<path fill="#F1F2F2" stroke="#848484" stroke-miterlimit="10" d="M743.8,280.5l-34.6,0c-1.1,0-2-0.9-2-2l0-31.3c0-1.1,0.9-2,2-2
			l34.6,0c1.1,0,2,0.9,2,2l0,31.3C745.8,279.6,744.9,280.5,743.8,280.5z"/>
		<path fill="#F1F2F2" stroke="#848484" stroke-miterlimit="10" d="M744.4,280.5l-35.8-0.1c-0.8,0-1.4,0.6-1.4,1.4l0,5.7
			c0,0.8,0.6,1.4,1.4,1.4l35.8,0.1c0.8,0,1.4-0.6,1.4-1.4l0-5.7C745.8,281.1,745.2,280.5,744.4,280.5z"/>
	</g>
	
		<rect x="670.9" y="219" fill-rule="evenodd" clip-rule="evenodd" fill="#F1F2F2" stroke="#848484" stroke-miterlimit="10" width="102.1" height="41.4"/>
</g>
<g>
</g>
<g>
</g>
<g>
</g>
<g>
</g>
<g>
</g>
<g>
</g>
</svg>
