<?xml version="1.0" encoding="utf-8"?>
<!-- Generator: Adobe Illustrator 23.0.2, SVG Export Plug-In . SVG Version: 6.00 Build 0)  -->
<svg version="1.1" id="Слой_1" xmlns="http://www.w3.org/2000/svg" xmlns:xlink="http://www.w3.org/1999/xlink" x="0px" y="0px"
	 viewBox="0 0 644.3 800" enable-background="new 0 0 644.3 800" xml:space="preserve">
<rect x="407.9" y="108.3" fill="#F3F3F3" stroke="#838383" width="204.9" height="53.5"/>
<g>
	
		<rect x="349.1" y="780.5" transform="matrix(-1 -1.224647e-16 1.224647e-16 -1 984.3848 1575.5487)" fill="#F3F3F3" stroke="#000000" stroke-miterlimit="10" width="286.2" height="14.5"/>
	
		<rect x="349.1" y="775.8" transform="matrix(-1 -1.224647e-16 1.224647e-16 -1 964.1689 1556.3595)" fill="#F3F3F3" stroke="#000000" stroke-miterlimit="10" width="266" height="4.7"/>
	
		<rect x="349.1" y="771.1" transform="matrix(-1 -1.224647e-16 1.224647e-16 -1 964.1689 1546.8832)" fill="#F3F3F3" stroke="#000000" stroke-miterlimit="10" width="266" height="4.7"/>
	
		<rect x="349.1" y="761" transform="matrix(-1 -1.224647e-16 1.224647e-16 -1 964.1689 1532.0371)" fill="#F3F3F3" stroke="#000000" stroke-miterlimit="10" width="266" height="10.1"/>
	
		<rect x="349.1" y="771.1" transform="matrix(-1 -1.224647e-16 1.224647e-16 -1 702.7454 1551.6213)" fill="#F3F3F3" stroke="#000000" stroke-miterlimit="10" width="4.5" height="9.5"/>
	
		<rect x="610.5" y="771.1" transform="matrix(-1 -1.224647e-16 1.224647e-16 -1 1225.5924 1551.6213)" fill="#F3F3F3" stroke="#000000" stroke-miterlimit="10" width="4.5" height="9.5"/>
</g>
<g>
	<rect x="83.8" y="781.1" fill="#F3F3F3" stroke="#000000" stroke-miterlimit="10" width="136.8" height="13.5"/>
	<rect x="77.8" y="771.4" fill="#F3F3F3" stroke="#000000" stroke-miterlimit="10" width="149.1" height="9.7"/>
	<rect x="77.8" y="757" fill="#F3F3F3" stroke="#000000" stroke-miterlimit="10" width="149.1" height="14.5"/>
	<rect x="77.8" y="771.4" fill="#F3F3F3" stroke="#000000" stroke-miterlimit="10" width="7.1" height="9.7"/>
	<rect x="219.8" y="771.4" fill="#F3F3F3" stroke="#000000" stroke-miterlimit="10" width="7.1" height="9.7"/>
	<rect x="154.4" y="771.4" fill="#F3F3F3" stroke="#000000" stroke-miterlimit="10" width="7.1" height="9.7"/>
</g>
<rect x="443.4" y="638" fill="#F3F3F3" stroke="#000000" stroke-miterlimit="10" width="62.7" height="17.1"/>
<rect x="355.7" y="655.1" fill="#F3F3F3" stroke="#000000" stroke-miterlimit="10" width="150.4" height="6"/>
<rect x="443.4" y="661.1" fill="#F3F3F3" stroke="#000000" stroke-miterlimit="10" width="57.6" height="14.8"/>
<rect x="439.8" y="655.1" fill="#F3F3F3" stroke="#000000" stroke-miterlimit="10" width="9.5" height="6"/>
<rect x="496.7" y="655.1" fill="#F3F3F3" stroke="#000000" stroke-miterlimit="10" width="9.4" height="6"/>
<rect x="355.7" y="655.1" fill="#F3F3F3" stroke="#000000" stroke-miterlimit="10" width="8.5" height="6"/>
<line fill="#F3F3F3" stroke="#000000" stroke-miterlimit="10" x1="216.4" y1="51.4" x2="299.8" y2="5"/>
<line fill="#F3F3F3" stroke="#000000" stroke-miterlimit="10" x1="214.5" y1="178.9" x2="254.3" y2="245.7"/>
<line fill="#F3F3F3" stroke="#000000" stroke-miterlimit="10" x1="308.4" y1="371.3" x2="236.3" y2="416.3"/>
<line fill="#F3F3F3" stroke="#000000" stroke-miterlimit="10" x1="364.3" y1="655.1" x2="428.2" y2="615.3"/>
<g id="moyka_2_2_">
	<path fill="#F3F3F3" stroke="#838383" d="M479.5,152.6c0,1.6-1.3,3-3,3h-43.1c-1.6,0-3-1.3-3-3V117c0-1.6,1.3-3,3-3h43.1
		c1.6,0,3,1.3,3,3V152.6z"/>
	<path fill="#F3F3F3" stroke="#838383" d="M476.6,149.7c0,1.6-1.3,3-3,3h-37.1c-1.6,0-3-1.3-3-3v-25.3c0-1.6,1.3-3,3-3h37.1
		c1.6,0,3,1.3,3,3V149.7z"/>
	<rect x="454.3" y="118.5" fill="#F3F3F3" stroke="#838383" width="3" height="11.9"/>
	<circle fill="#F3F3F3" stroke="#838383" cx="455" cy="138.5" r="2.2"/>
</g>
<g id="plita_2_">
	<rect x="518.4" y="109.7" fill="#F3F3F3" stroke="#838383" width="53.5" height="52"/>
	<circle fill="#F3F3F3" stroke="#838383" cx="558.5" cy="146.9" r="8.9"/>
	<circle fill="#F3F3F3" stroke="#838383" cx="536.2" cy="124.6" r="8.9"/>
	<circle fill="#F3F3F3" stroke="#838383" cx="558.5" cy="124.6" r="7.4"/>
	<circle fill="#F3F3F3" stroke="#838383" cx="536.2" cy="146.9" r="7.4"/>
</g>
<g id="unitaz_3_">
	<path fill="#F3F3F3" stroke="#838383" d="M31.3,187.6h12.4c2,0,3.5-1.6,3.5-3.5v-31.9c0-2-1.6-3.5-3.5-3.5H31.3V187.6z"/>
	<path fill="#F3F3F3" stroke="#838383" d="M47.3,184.1c0,2,1.6,3.5,3.5,3.5v-39c-2,0-3.5,1.6-3.5,3.5V184.1z"/>
	<path fill="#F3F3F3" stroke="#838383" d="M50.8,148.6v39c0,0,46.1,8,46.1-19.5C96.9,140.7,50.8,148.6,50.8,148.6z"/>
	<circle fill="#F3F3F3" stroke="#838383" cx="38.4" cy="168.1" r="3.5"/>
</g>
<g id="moyka_3_">
	<path fill="#F3F3F3" stroke="#838383" d="M32.1,267.6c0,1.1,0.9,1.9,1.9,1.9h38.1c1.1,0,1.9-0.9,1.9-1.9v-57.2
		c0-1.1-0.9-1.9-1.9-1.9H34c-1.1,0-1.9,0.9-1.9,1.9V267.6z"/>
	<rect x="37.8" y="208.5" fill="#F3F3F3" stroke="#838383" width="3.8" height="61"/>
	<ellipse fill="#F3F3F3" stroke="#838383" cx="57.8" cy="238" rx="12.4" ry="20"/>
	<rect x="37.8" y="237.1" fill="#F3F3F3" stroke="#838383" width="15.3" height="3.8"/>
	<circle fill="#F3F3F3" stroke="#838383" cx="59.7" cy="239.9" r="2.9"/>
</g>
<g id="stirka_2_">
	<rect x="149.2" y="77.5" fill="#F3F3F3" stroke="#838383" width="54.3" height="54.3"/>
	<path fill="#F3F3F3" stroke="#838383" d="M152.8,82.9c0,2,1.6,3.6,3.6,3.6h12.7c2,0,3.6-1.6,3.6-3.6v-5.4h-19.9V82.9z"/>
	<circle fill="#F3F3F3" stroke="#838383" cx="176.3" cy="106.5" r="14.5"/>
	<circle fill="#F3F3F3" stroke="#838383" cx="176.3" cy="106.5" r="10.9"/>
	<circle fill="#F3F3F3" stroke="#838383" cx="194.4" cy="86.5" r="3.6"/>
</g>
<g id="vanna_2_">
	<rect x="32.1" y="280.5" fill="#F3F3F3" stroke="#838383" width="163.1" height="63.9"/>
	<path fill="#F3F3F3" stroke="#838383" d="M185.1,302.4c0-9.3-7.5-16.8-16.8-16.8H55.6v53.8h112.7c9.3,0,16.8-7.5,16.8-16.8V302.4z"
		/>
	<path fill="#F3F3F3" stroke="#838383" d="M53.1,314.1v13.5h-5.9v-22.7"/>
	<path id="Union_2_" fill="#F3F3F3" stroke="#838383" d="M45.5,302.1c-2-0.7-3.4-2.6-3.4-4.8c0-2.8,2.3-5,5-5c2.8,0,5,2.3,5,5
		c0,2.2-1.4,4.1-3.4,4.8v2c0,0.9-0.8,1.7-1.7,1.7c-0.9,0-1.7-0.8-1.7-1.7V302.1z"/>
	<rect x="50.5" y="310.8" fill="#F3F3F3" stroke="#838383" width="13.5" height="3.4"/>
</g>
<rect x="8.3" y="781.1" fill="#838383" stroke="#000000" stroke-miterlimit="10" width="76.1" height="13.9"/>
<rect x="8.3" y="51.4" fill="#838383" stroke="#000000" stroke-miterlimit="10" width="22.7" height="729.7"/>
<rect x="31" y="757.1" fill="#838383" stroke="#000000" stroke-miterlimit="10" width="47.7" height="24"/>
<rect x="226.9" y="757.1" fill="#838383" stroke="#000000" stroke-miterlimit="10" width="86.2" height="24"/>
<rect x="220.5" y="781.1" fill="#838383" stroke="#000000" stroke-miterlimit="10" width="128.6" height="13.9"/>
<rect x="313.1" y="449.4" fill="#838383" stroke="#000000" stroke-miterlimit="10" width="23.1" height="331.7"/>
<rect x="336.2" y="661.1" fill="#838383" stroke="#000000" stroke-miterlimit="10" width="22.4" height="14.8"/>
<rect x="336.2" y="638" fill="#838383" stroke="#000000" stroke-miterlimit="10" width="18.6" height="23.1"/>
<rect x="336.2" y="675.9" fill="#838383" stroke="#000000" stroke-miterlimit="10" width="13" height="105.2"/>
<rect x="501" y="661.1" fill="#838383" stroke="#000000" stroke-miterlimit="10" width="114" height="14.8"/>
<rect x="506.1" y="638" fill="#838383" stroke="#000000" stroke-miterlimit="10" width="109" height="23.1"/>
<rect x="615.1" y="80.8" fill="#838383" stroke="#000000" stroke-miterlimit="10" width="20.2" height="705"/>
<rect x="379.9" y="80.8" fill="#838383" stroke="#000000" stroke-miterlimit="10" width="235.2" height="27.5"/>
<rect x="351.9" y="51.4" fill="#838383" stroke="#000000" stroke-miterlimit="10" width="28" height="56.9"/>
<rect x="31" y="51.4" fill="#838383" stroke="#000000" stroke-miterlimit="10" width="185.4" height="23.2"/>
<rect x="313.1" y="51.4" fill="#838383" stroke="#000000" stroke-miterlimit="10" width="38.9" height="23.2"/>
<rect x="208.4" y="74.7" fill="#C6C6C6" stroke="#000000" stroke-miterlimit="10" width="8.1" height="104.2"/>
<rect x="31" y="361.8" fill="#C6C6C6" stroke="#000000" stroke-miterlimit="10" width="191.1" height="9.4"/>
<rect x="208.4" y="253.8" fill="#C6C6C6" stroke="#000000" stroke-miterlimit="10" width="8.1" height="108"/>
<rect x="31" y="349.7" fill="#C6C6C6" stroke="#000000" stroke-miterlimit="10" width="177.4" height="8.1"/>
<rect x="313.1" y="361.8" fill="#C6C6C6" stroke="#000000" stroke-miterlimit="10" width="9.4" height="87.7"/>
<rect x="308.4" y="361.8" fill="#C6C6C6" stroke="#000000" stroke-miterlimit="10" width="4.7" height="9.4"/>
<rect x="399.8" y="108.3" fill="#C6C6C6" stroke="#000000" stroke-miterlimit="10" width="8.1" height="72.5"/>
<rect x="351.9" y="172.7" fill="#C6C6C6" stroke="#000000" stroke-miterlimit="10" width="47.9" height="8.1"/>
<rect x="351.9" y="135.7" fill="#C6C6C6" stroke="#000000" stroke-miterlimit="10" width="8.1" height="37"/>
<rect x="84.1" y="74.7" fill="#C6C6C6" stroke="#000000" stroke-miterlimit="10" width="8.1" height="49"/>
<rect x="53.1" y="115.6" fill="#C6C6C6" stroke="#000000" stroke-miterlimit="10" width="31.1" height="8.1"/>
<rect x="31" y="119.7" fill="#C6C6C6" stroke="#000000" stroke-miterlimit="10" width="22.1" height="4"/>
<rect x="351.9" y="108.3" fill="#C6C6C6" stroke="#000000" stroke-miterlimit="10" width="4" height="27.5"/>
<g>
	<path d="M388.2,459.2h-3v6.1h-1.4V452h1.4v6h3l4.5-6h1.5l-4.9,6.4l5.2,6.8h-1.6L388.2,459.2z"/>
	<path d="M404.8,455.3l-5,11.2c-0.4,0.9-0.9,1.6-1.4,2c-0.5,0.4-1.2,0.6-1.9,0.6c-0.5,0-0.9-0.1-1.3-0.2c-0.4-0.2-0.8-0.4-1.1-0.7
		l0.6-1c0.5,0.5,1.1,0.8,1.8,0.8c0.5,0,0.8-0.1,1.2-0.4s0.6-0.7,0.9-1.3l0.4-1l-4.5-10h1.4l3.8,8.5l3.8-8.5H404.8z"/>
	<path d="M412.6,465.2l-3.2-4.2l-3.2,4.2h-1.5l3.9-5.1l-3.8-4.9h1.5l3,3.9l3-3.9h1.5l-3.8,4.9l4,5.1H412.6z"/>
	<path d="M416.3,455.3h1.3v4.4h6.3v-4.4h1.3v10H424v-4.4h-6.3v4.4h-1.3V455.3z"/>
	<path d="M436.8,455.3v10h-1.2v-3.3h-3.1H432l-2.3,3.3h-1.5l2.5-3.5c-0.8-0.2-1.4-0.6-1.8-1.1c-0.4-0.5-0.6-1.2-0.6-2
		c0-1.1,0.4-2,1.1-2.5s1.8-0.9,3.1-0.9H436.8z M432.5,460.9h3v-4.5h-2.9c-1.9,0-2.9,0.8-2.9,2.3
		C429.7,460.2,430.7,460.9,432.5,460.9z"/>
	<path d="M439.8,459.5h5v1.2h-5V459.5z"/>
	<path d="M385.1,487.4c-0.8-0.4-1.4-1-1.8-1.8c-0.4-0.8-0.7-1.7-0.7-2.6c0-1,0.2-1.8,0.7-2.6c0.4-0.8,1.1-1.4,1.8-1.8
		c0.8-0.4,1.7-0.6,2.6-0.6c0.9,0,1.6,0.2,2.3,0.5s1.2,0.8,1.6,1.5l-1,0.7c-0.3-0.5-0.7-0.9-1.3-1.1c-0.5-0.2-1.1-0.4-1.6-0.4
		c-0.7,0-1.4,0.2-1.9,0.5c-0.6,0.3-1,0.8-1.3,1.4s-0.5,1.3-0.5,2c0,0.8,0.2,1.4,0.5,2s0.8,1,1.3,1.4c0.6,0.3,1.2,0.5,1.9,0.5
		c0.6,0,1.1-0.1,1.6-0.4c0.5-0.2,0.9-0.6,1.3-1.1l1,0.7c-0.4,0.6-0.9,1.1-1.6,1.5c-0.7,0.3-1.4,0.5-2.3,0.5
		C386.7,488.1,385.8,487.9,385.1,487.4z"/>
	<path d="M401,479.2h-3.8v8.8h-1.3v-8.8h-3.8V478h8.9V479.2z"/>
	<path d="M404,487.4c-0.8-0.4-1.4-1-1.8-1.8c-0.4-0.8-0.7-1.6-0.7-2.6c0-1,0.2-1.8,0.7-2.6c0.4-0.8,1-1.4,1.8-1.8s1.6-0.6,2.6-0.6
		c1,0,1.8,0.2,2.6,0.6c0.8,0.4,1.4,1,1.8,1.8c0.4,0.8,0.7,1.6,0.7,2.6c0,1-0.2,1.8-0.7,2.6c-0.4,0.8-1,1.4-1.8,1.8
		c-0.8,0.4-1.6,0.7-2.6,0.7C405.7,488.1,404.8,487.9,404,487.4z M408.5,486.4c0.6-0.3,1-0.8,1.3-1.4c0.3-0.6,0.5-1.3,0.5-2
		c0-0.8-0.2-1.4-0.5-2s-0.8-1.1-1.3-1.4s-1.2-0.5-1.9-0.5c-0.7,0-1.3,0.2-1.9,0.5s-1,0.8-1.3,1.4s-0.5,1.3-0.5,2
		c0,0.8,0.2,1.4,0.5,2c0.3,0.6,0.8,1.1,1.3,1.4s1.2,0.5,1.9,0.5C407.3,486.9,408,486.7,408.5,486.4z"/>
	<path d="M422.7,478v10h-1.3v-8.8h-4.8l-0.1,2.5c-0.1,2.1-0.3,3.7-0.7,4.8c-0.4,1.1-1.1,1.7-2,1.7c-0.3,0-0.6-0.1-1-0.2l0.1-1.2
		c0.2,0.1,0.4,0.1,0.5,0.1c0.5,0,0.9-0.2,1.2-0.7c0.3-0.5,0.4-1.1,0.5-1.8c0.1-0.7,0.2-1.6,0.2-2.8l0.2-3.6H422.7z"/>
	<path d="M428,487.4c-0.8-0.4-1.4-1-1.8-1.8c-0.4-0.8-0.7-1.6-0.7-2.6c0-1,0.2-1.8,0.7-2.6c0.4-0.8,1-1.4,1.8-1.8s1.6-0.6,2.6-0.6
		c1,0,1.8,0.2,2.6,0.6c0.8,0.4,1.4,1,1.8,1.8c0.4,0.8,0.7,1.6,0.7,2.6c0,1-0.2,1.8-0.7,2.6c-0.4,0.8-1,1.4-1.8,1.8
		c-0.8,0.4-1.6,0.7-2.6,0.7C429.6,488.1,428.8,487.9,428,487.4z M432.5,486.4c0.6-0.3,1-0.8,1.3-1.4c0.3-0.6,0.5-1.3,0.5-2
		c0-0.8-0.2-1.4-0.5-2s-0.8-1.1-1.3-1.4s-1.2-0.5-1.9-0.5c-0.7,0-1.3,0.2-1.9,0.5s-1,0.8-1.3,1.4s-0.5,1.3-0.5,2
		c0,0.8,0.2,1.4,0.5,2c0.3,0.6,0.8,1.1,1.3,1.4s1.2,0.5,1.9,0.5C431.3,486.9,432,486.7,432.5,486.4z"/>
	<path d="M446.9,485.3c0,0.9-0.3,1.5-1,2s-1.6,0.7-2.9,0.7h-4.5v-10h4.4c1.1,0,2,0.2,2.7,0.7c0.6,0.4,1,1.1,1,1.9
		c0,0.5-0.1,1-0.4,1.4s-0.7,0.7-1.2,0.9C446.3,483.1,446.9,484,446.9,485.3z M439.9,482.5h3c0.8,0,1.4-0.1,1.8-0.4
		c0.4-0.3,0.6-0.7,0.6-1.3c0-0.6-0.2-1-0.6-1.3c-0.4-0.3-1-0.4-1.8-0.4h-3V482.5z M445,486.5c0.4-0.3,0.6-0.7,0.6-1.3
		s-0.2-1-0.6-1.3s-1-0.4-1.9-0.4h-3.3v3.5h3.2C443.9,486.9,444.5,486.8,445,486.5z"/>
	<path d="M456.5,478.9c0.7,0.7,1,1.6,1,2.9v6.2h-1.3v-1.6c-0.3,0.5-0.7,0.9-1.3,1.2c-0.6,0.3-1.3,0.4-2.1,0.4c-1.1,0-2-0.3-2.7-0.8
		c-0.7-0.5-1-1.2-1-2.1c0-0.8,0.3-1.5,0.9-2c0.6-0.5,1.6-0.8,2.9-0.8h3.2v-0.6c0-0.9-0.2-1.5-0.7-2c-0.5-0.4-1.2-0.7-2.1-0.7
		c-0.6,0-1.2,0.1-1.8,0.3c-0.6,0.2-1.1,0.5-1.5,0.9l-0.6-1c0.5-0.4,1.1-0.8,1.8-1c0.7-0.2,1.5-0.4,2.2-0.4
		C454.8,477.9,455.8,478.3,456.5,478.9z M455,486.5c0.5-0.3,0.9-0.8,1.2-1.5v-1.6h-3.1c-1.7,0-2.6,0.6-2.6,1.8c0,0.6,0.2,1,0.7,1.4
		s1.1,0.5,1.9,0.5C453.8,487,454.4,486.8,455,486.5z"/>
	<path d="M468.8,478v10h-1.2v-3.3h-3.1H464l-2.3,3.3h-1.5l2.5-3.5c-0.8-0.2-1.4-0.6-1.8-1.1c-0.4-0.5-0.6-1.2-0.6-2
		c0-1.1,0.4-2,1.1-2.5s1.8-0.9,3.1-0.9H468.8z M464.5,483.7h3v-4.5h-2.9c-1.9,0-2.9,0.8-2.9,2.3
		C461.7,482.9,462.7,483.7,464.5,483.7z"/>
	<path d="M387.9,499.8v16.6h-2.3v-14.5h-3.7v-2.1H387.9z"/>
	<path d="M403.6,499.8v1.6l-6.7,15h-2.5l6.6-14.5h-7.6v3h-2.3v-5H403.6z"/>
	<path d="M407.1,513.8c0.3,0.3,0.4,0.7,0.4,1.1c0,0.2,0,0.5-0.1,0.7c-0.1,0.2-0.2,0.6-0.3,1l-1.1,3.3h-1.5l0.9-3.5
		c-0.3-0.1-0.5-0.3-0.7-0.6c-0.2-0.3-0.3-0.6-0.3-0.9c0-0.5,0.2-0.9,0.5-1.2s0.7-0.5,1.1-0.5C406.5,513.3,406.8,513.5,407.1,513.8z"
		/>
	<path d="M419.8,507.8c1.1,0.9,1.7,2.1,1.7,3.7c0,1-0.2,1.9-0.7,2.6c-0.5,0.8-1.2,1.4-2.1,1.8s-2.1,0.7-3.5,0.7
		c-1.2,0-2.3-0.2-3.4-0.5s-2-0.8-2.7-1.5l1.1-1.9c0.6,0.5,1.3,1,2.2,1.3c0.9,0.3,1.8,0.5,2.8,0.5c1.2,0,2.2-0.3,2.9-0.8
		c0.7-0.5,1-1.3,1-2.2c0-1-0.4-1.7-1.1-2.3c-0.8-0.5-2.1-0.8-3.9-0.8h-3.8l0.9-8.7h9.4v2.1h-7.4l-0.5,4.5h1.8
		C416.9,506.4,418.7,506.9,419.8,507.8z"/>
</g>
<g>
	<path d="M184,701.2c-1.1-0.6-1.9-1.4-2.5-2.4c-0.6-1-0.9-2.2-0.9-3.5s0.3-2.4,0.9-3.5c0.6-1,1.4-1.8,2.5-2.4
		c1.1-0.6,2.2-0.9,3.6-0.9c1,0,1.9,0.2,2.7,0.5c0.8,0.3,1.5,0.8,2.1,1.4l-0.9,0.9c-1-1-2.3-1.6-3.9-1.6c-1,0-2,0.2-2.9,0.7
		c-0.9,0.5-1.5,1.1-2,2s-0.7,1.8-0.7,2.8s0.2,2,0.7,2.8s1.2,1.5,2,2s1.8,0.7,2.9,0.7c1.6,0,2.9-0.5,3.9-1.6l0.9,0.9
		c-0.6,0.6-1.3,1.1-2.1,1.5s-1.8,0.5-2.7,0.5C186.3,702.1,185.1,701.8,184,701.2z"/>
	<path d="M204,692v10h-1.3v-8.8h-6.3v8.8H195v-10H204z"/>
	<path d="M214.2,692.9c0.7,0.7,1,1.6,1,2.9v6.2H214v-1.6c-0.3,0.5-0.7,0.9-1.3,1.2c-0.6,0.3-1.3,0.4-2.1,0.4c-1.1,0-2-0.3-2.7-0.8
		c-0.7-0.5-1-1.2-1-2.1c0-0.8,0.3-1.5,0.9-2c0.6-0.5,1.6-0.8,2.9-0.8h3.2v-0.6c0-0.9-0.2-1.5-0.7-2c-0.5-0.4-1.2-0.7-2.1-0.7
		c-0.6,0-1.2,0.1-1.8,0.3c-0.6,0.2-1.1,0.5-1.5,0.9l-0.6-1c0.5-0.4,1.1-0.8,1.8-1c0.7-0.2,1.5-0.4,2.2-0.4
		C212.5,691.9,213.5,692.2,214.2,692.9z M212.7,700.5c0.5-0.3,0.9-0.8,1.2-1.5v-1.6h-3.1c-1.7,0-2.6,0.6-2.6,1.8
		c0,0.6,0.2,1,0.7,1.4c0.4,0.3,1.1,0.5,1.9,0.5C211.5,701,212.2,700.8,212.7,700.5z"/>
	<path d="M227,692v10h-1.3v-8.8h-4.8l-0.1,2.5c-0.1,2.1-0.3,3.7-0.7,4.8c-0.4,1.1-1.1,1.7-2,1.7c-0.3,0-0.6-0.1-1-0.2l0.1-1.2
		c0.2,0.1,0.4,0.1,0.5,0.1c0.5,0,0.9-0.2,1.2-0.7c0.3-0.5,0.4-1.1,0.5-1.8c0.1-0.7,0.2-1.6,0.2-2.8l0.2-3.6H227z"/>
	<path d="M238,696.3c0.7,0.5,1,1.3,1,2.4c0,1.1-0.4,1.9-1.1,2.4c-0.7,0.6-1.7,0.8-3,0.8l-4,0v-10h1.3v3.5l2.9,0
		C236.4,695.5,237.3,695.8,238,696.3z M236.9,700.4c0.5-0.4,0.7-1,0.7-1.7c0-0.7-0.2-1.3-0.7-1.6c-0.5-0.4-1.2-0.5-2.1-0.5l-2.6,0
		v4.4l2.6,0C235.7,701,236.4,700.8,236.9,700.4z"/>
	<path d="M241.5,692h1.3v4.4h6.3V692h1.3v10h-1.3v-4.4h-6.3v4.4h-1.3V692z"/>
	<path d="M261.9,692v10h-1.2v-3.3h-3.1h-0.4l-2.3,3.3h-1.5l2.5-3.5c-0.8-0.2-1.4-0.6-1.8-1.1c-0.4-0.5-0.6-1.2-0.6-2
		c0-1.1,0.4-2,1.1-2.5s1.8-0.9,3.1-0.9H261.9z M257.7,697.6h3v-4.5h-2.9c-1.9,0-2.9,0.8-2.9,2.3
		C254.9,696.9,255.8,697.6,257.7,697.6z"/>
	<path d="M185.8,713.8v16.6h-2.3v-14.5h-3.7v-2.1H185.8z"/>
	<path d="M194.6,713.8v16.6h-2.3v-14.5h-3.7v-2.1H194.6z"/>
	<path d="M200.9,727.7c0.3,0.3,0.4,0.7,0.4,1.1c0,0.2,0,0.5-0.1,0.7c-0.1,0.2-0.2,0.6-0.3,1l-1.1,3.3h-1.5l0.9-3.5
		c-0.3-0.1-0.5-0.3-0.7-0.6c-0.2-0.3-0.3-0.6-0.3-0.9c0-0.5,0.1-0.9,0.5-1.2c0.3-0.3,0.7-0.5,1.1-0.5
		C200.2,727.3,200.6,727.4,200.9,727.7z"/>
	<path d="M216.1,723.2c0.5,0.7,0.8,1.5,0.8,2.4c0,1-0.3,1.9-0.8,2.6c-0.5,0.7-1.3,1.3-2.3,1.7c-1,0.4-2.2,0.6-3.5,0.6
		c-1.3,0-2.5-0.2-3.5-0.6c-1-0.4-1.7-1-2.3-1.7c-0.5-0.7-0.8-1.6-0.8-2.6c0-0.9,0.2-1.8,0.7-2.4c0.5-0.7,1.2-1.2,2.2-1.6
		c-0.8-0.4-1.3-0.8-1.7-1.4c-0.4-0.6-0.6-1.3-0.6-2.1c0-0.9,0.2-1.7,0.7-2.4c0.5-0.7,1.2-1.2,2.1-1.6c0.9-0.4,1.9-0.5,3.1-0.5
		c1.2,0,2.3,0.2,3.2,0.5c0.9,0.4,1.6,0.9,2.1,1.6c0.5,0.7,0.7,1.5,0.7,2.4c0,0.8-0.2,1.5-0.6,2.1c-0.4,0.6-1,1.1-1.7,1.5
		C214.9,722,215.6,722.6,216.1,723.2z M213.4,727.8c0.8-0.5,1.1-1.3,1.1-2.2c0-0.9-0.4-1.6-1.1-2.2c-0.8-0.5-1.8-0.8-3.1-0.8
		s-2.3,0.3-3.1,0.8s-1.1,1.3-1.1,2.2c0,0.9,0.4,1.7,1.1,2.2s1.8,0.8,3.1,0.8S212.6,728.4,213.4,727.8z M207.6,716.2
		c-0.6,0.5-1,1.1-1,2s0.3,1.5,1,1.9c0.6,0.5,1.5,0.7,2.7,0.7c1.2,0,2.1-0.2,2.7-0.7c0.7-0.5,1-1.1,1-1.9s-0.3-1.5-1-2
		s-1.6-0.7-2.7-0.7C209.2,715.5,208.3,715.8,207.6,716.2z"/>
</g>
<g>
	<path d="M459.7,736.4v2.1h-11.9v-1.6l6.8-6.5c0.8-0.8,1.4-1.5,1.7-2c0.3-0.6,0.4-1.2,0.4-1.7c0-0.9-0.3-1.5-0.9-2
		c-0.6-0.5-1.5-0.7-2.6-0.7c-1.8,0-3.2,0.6-4.2,1.8l-1.6-1.4c0.6-0.8,1.5-1.4,2.5-1.8c1-0.4,2.2-0.7,3.5-0.7c1.7,0,3.1,0.4,4.1,1.2
		c1,0.8,1.5,2,1.5,3.4c0,0.9-0.2,1.7-0.6,2.5c-0.4,0.8-1.1,1.7-2.2,2.7l-5.1,4.9H459.7z"/>
	<path d="M464.6,735.8c0.3,0.3,0.4,0.7,0.4,1.1c0,0.2,0,0.5-0.1,0.7c-0.1,0.2-0.2,0.6-0.3,1l-1.1,3.3H462l0.9-3.5
		c-0.3-0.1-0.5-0.3-0.7-0.6c-0.2-0.3-0.3-0.6-0.3-0.9c0-0.5,0.2-0.9,0.5-1.2s0.7-0.5,1.1-0.5C464,735.4,464.3,735.5,464.6,735.8z"/>
	<path d="M477.1,729c0.9,0.4,1.5,1,2,1.8c0.5,0.8,0.7,1.6,0.7,2.6c0,1-0.3,2-0.8,2.7c-0.5,0.8-1.2,1.4-2.1,1.8
		c-0.9,0.4-1.9,0.7-3,0.7c-2.2,0-3.9-0.7-5.2-2.2c-1.2-1.4-1.8-3.5-1.8-6.1c0-1.8,0.3-3.4,1-4.7c0.7-1.3,1.6-2.3,2.7-3s2.5-1,4.1-1
		c0.8,0,1.6,0.1,2.3,0.2c0.7,0.2,1.3,0.4,1.8,0.7l-0.9,1.8c-0.8-0.5-1.8-0.8-3.2-0.8c-1.7,0-3.1,0.5-4.1,1.6c-1,1.1-1.5,2.6-1.5,4.7
		c0,0.3,0,0.5,0,0.6c0.5-0.7,1.1-1.3,2-1.6s1.8-0.6,2.8-0.6C475.3,728.4,476.2,728.6,477.1,729z M476.5,735.9c0.7-0.6,1-1.4,1-2.3
		s-0.3-1.8-1-2.3c-0.7-0.6-1.6-0.9-2.8-0.9c-0.7,0-1.4,0.1-2,0.4c-0.6,0.3-1,0.7-1.4,1.2c-0.3,0.5-0.5,1-0.5,1.6
		c0,0.6,0.2,1.1,0.5,1.6c0.3,0.5,0.8,0.9,1.4,1.2c0.6,0.3,1.3,0.4,2.1,0.4C475,736.7,475.9,736.4,476.5,735.9z"/>
</g>
<g>
	<path d="M140.4,246.7h-3.2v4.1h-2.3v-4.1h-9.2V245l8.5-10.9h2.6l-8.1,10.5h6.4V241h2.2v3.6h3.2V246.7z"/>
	<path d="M145,248.1c0.3,0.3,0.4,0.7,0.4,1.1c0,0.2,0,0.5-0.1,0.7c-0.1,0.2-0.2,0.6-0.3,1l-1.1,3.3h-1.5l0.9-3.5
		c-0.3-0.1-0.5-0.3-0.7-0.6c-0.2-0.3-0.3-0.6-0.3-0.9c0-0.5,0.1-0.9,0.5-1.2c0.3-0.3,0.7-0.5,1.1-0.5
		C144.3,247.6,144.7,247.8,145,248.1z"/>
	<path d="M158.2,236.1c1.2,1.4,1.8,3.5,1.8,6.1c0,1.8-0.3,3.4-1,4.7c-0.7,1.3-1.6,2.3-2.7,3c-1.2,0.7-2.5,1-4.1,1
		c-0.8,0-1.6-0.1-2.3-0.2c-0.7-0.2-1.3-0.4-1.8-0.7l0.9-1.8c0.8,0.5,1.9,0.8,3.2,0.8c1.7,0,3.1-0.5,4-1.6c1-1.1,1.5-2.6,1.5-4.7
		v-0.6c-0.5,0.7-1.1,1.3-2,1.6c-0.8,0.4-1.8,0.6-2.8,0.6c-1.1,0-2.1-0.2-2.9-0.6c-0.9-0.4-1.5-1-2-1.8s-0.7-1.6-0.7-2.6
		c0-1,0.3-2,0.8-2.7c0.5-0.8,1.2-1.4,2.1-1.8c0.9-0.4,1.9-0.7,3-0.7C155.3,234,157,234.7,158.2,236.1z M155.3,241.9
		c0.6-0.3,1-0.7,1.4-1.2c0.3-0.5,0.5-1,0.5-1.6c0-0.6-0.2-1.1-0.5-1.6c-0.3-0.5-0.8-0.9-1.4-1.2c-0.6-0.3-1.3-0.4-2.1-0.4
		c-1.1,0-2,0.3-2.6,0.9c-0.7,0.6-1,1.4-1,2.3c0,1,0.3,1.8,1,2.3s1.6,0.9,2.7,0.9C154,242.3,154.7,242.2,155.3,241.9z"/>
</g>
<g>
	<path d="M275,205.7v2.1h-11.9v-1.6l6.8-6.5c0.8-0.8,1.4-1.5,1.7-2c0.3-0.6,0.4-1.2,0.4-1.7c0-0.9-0.3-1.5-0.9-2s-1.5-0.7-2.6-0.7
		c-1.8,0-3.2,0.6-4.2,1.8l-1.6-1.4c0.6-0.8,1.5-1.4,2.5-1.8c1.1-0.4,2.2-0.7,3.5-0.7c1.7,0,3.1,0.4,4.1,1.2c1,0.8,1.5,2,1.5,3.4
		c0,0.9-0.2,1.7-0.6,2.5c-0.4,0.8-1.1,1.7-2.2,2.7l-5.1,4.9H275z"/>
	<path d="M279.9,205.1c0.3,0.3,0.4,0.7,0.4,1.1c0,0.2,0,0.5-0.1,0.7c-0.1,0.2-0.2,0.6-0.3,1l-1.1,3.3h-1.5l0.9-3.5
		c-0.3-0.1-0.5-0.3-0.7-0.6c-0.2-0.3-0.3-0.6-0.3-0.9c0-0.5,0.1-0.9,0.5-1.2c0.3-0.3,0.7-0.5,1.1-0.5
		C279.2,204.7,279.6,204.8,279.9,205.1z"/>
	<path d="M296.8,203.7h-3.2v4.1h-2.3v-4.1h-9.2v-1.7l8.5-10.9h2.6l-8.1,10.5h6.4v-3.6h2.2v3.6h3.2V203.7z"/>
</g>
<g>
	<g>
		
			<rect x="33.5" y="505.9" fill-rule="evenodd" clip-rule="evenodd" fill="#F1F2F2" stroke="#848484" stroke-miterlimit="10" width="193.4" height="150.1"/>
		
			<rect x="41.2" y="509.4" fill-rule="evenodd" clip-rule="evenodd" fill="#F1F2F2" stroke="#848484" stroke-miterlimit="10" width="180.3" height="143.2"/>
		
			<rect x="45.9" y="513.7" fill-rule="evenodd" clip-rule="evenodd" fill="#F1F2F2" stroke="#848484" stroke-miterlimit="10" width="40.7" height="55.7"/>
		
			<rect x="45.9" y="592.4" fill-rule="evenodd" clip-rule="evenodd" fill="#F1F2F2" stroke="#848484" stroke-miterlimit="10" width="40.7" height="55.7"/>
		<polygon fill-rule="evenodd" clip-rule="evenodd" fill="#F1F2F2" stroke="#848484" stroke-miterlimit="10" points="107.3,509.4 
			82.4,552.1 82.4,609.9 82.4,552.1 82.4,609.9 107.3,652.7 221.5,652.7 221.5,652.5 221.5,509.4 		"/>
		<polyline fill-rule="evenodd" clip-rule="evenodd" fill="#F1F2F2" stroke="#848484" stroke-miterlimit="10" points="107.3,509.4 
			125.5,539.4 82.4,552.1 		"/>
		
			<line fill-rule="evenodd" clip-rule="evenodd" fill="#F1F2F2" stroke="#848484" stroke-miterlimit="10" x1="82.4" y1="552.1" x2="107.3" y2="509.4"/>
		<polyline fill-rule="evenodd" clip-rule="evenodd" fill="#F1F2F2" stroke="#848484" stroke-miterlimit="10" points="107.3,652.7 
			125.5,622.7 82.4,609.9 		"/>
		
			<line fill-rule="evenodd" clip-rule="evenodd" fill="#F1F2F2" stroke="#848484" stroke-miterlimit="10" x1="82.4" y1="609.9" x2="107.3" y2="652.7"/>
	</g>
	<g>
		
			<rect x="26.3" y="666.1" transform="matrix(-1.836970e-16 1 -1 -1.836970e-16 737.9655 632.5315)" fill="#F1F2F2" stroke="#848484" stroke-miterlimit="10" width="52.8" height="38.4"/>
		
			<rect x="62.1" y="683.8" transform="matrix(-1.836970e-16 1 -1 -1.836970e-16 758.2059 611.8782)" fill="#F1F2F2" stroke="#848484" stroke-miterlimit="10" width="22.2" height="2.5"/>
	</g>
	<g>
		
			<rect x="26.3" y="457.3" transform="matrix(-1.836970e-16 1 -1 -1.836970e-16 529.2432 423.8092)" fill="#F1F2F2" stroke="#848484" stroke-miterlimit="10" width="52.8" height="38.4"/>
		
			<rect x="62.1" y="475.1" transform="matrix(1.641293e-13 1 -1 1.641293e-13 549.4836 403.156)" fill="#F1F2F2" stroke="#848484" stroke-miterlimit="10" width="22.2" height="2.5"/>
	</g>
</g>
<g>
	
		<rect x="33.8" y="373.3" transform="matrix(-1 -4.488155e-11 4.488155e-11 -1 228.8206 802.1388)" fill-rule="evenodd" clip-rule="evenodd" fill="#F1F2F2" stroke="#848484" stroke-miterlimit="10" width="161.1" height="55.6"/>
	<line fill="#F1F2F2" stroke="#848484" stroke-miterlimit="10" x1="189.1" y1="373.3" x2="189.1" y2="429"/>
	<line fill="#F1F2F2" stroke="#848484" stroke-miterlimit="10" x1="39.8" y1="373.3" x2="39.8" y2="428.9"/>
	<line fill="#F1F2F2" stroke="#848484" stroke-miterlimit="10" x1="189.1" y1="426.3" x2="39.8" y2="426.3"/>
	<line fill="#F1F2F2" stroke="#848484" stroke-miterlimit="10" x1="45" y1="400.7" x2="184" y2="400.7"/>
	
		<rect x="175" y="384" transform="matrix(-0.9868 0.162 -0.162 -0.9868 416.0839 767.9987)" fill="#F1F2F2" stroke="#848484" stroke-miterlimit="10" width="3.5" height="33.9"/>
	
		<rect x="162.5" y="384" transform="matrix(-0.9961 8.815246e-02 -8.815246e-02 -0.9961 363.2146 785.8781)" fill="#F1F2F2" stroke="#848484" stroke-miterlimit="10" width="3.5" height="33.9"/>
	
		<rect x="149.9" y="383.7" transform="matrix(-0.9734 0.229 -0.229 -0.9734 390.9554 755.972)" fill="#F1F2F2" stroke="#848484" stroke-miterlimit="10" width="3.5" height="33.9"/>
	
		<rect x="135.8" y="384.1" transform="matrix(-0.9884 0.152 -0.152 -0.9884 334.401 776.5259)" fill="#F1F2F2" stroke="#848484" stroke-miterlimit="10" width="3.5" height="33.9"/>
	
		<rect x="123.5" y="383.9" transform="matrix(-0.999 4.511170e-02 -4.511170e-02 -0.999 268.3791 795.6611)" fill="#F1F2F2" stroke="#848484" stroke-miterlimit="10" width="3.5" height="33.9"/>
	
		<rect x="111" y="383.9" transform="matrix(-0.9884 0.152 -0.152 -0.9884 285.1553 779.9133)" fill="#F1F2F2" stroke="#848484" stroke-miterlimit="10" width="3.5" height="33.9"/>
	
		<rect x="98.4" y="383.7" transform="matrix(-0.999 4.511170e-02 -4.511170e-02 -0.999 218.2032 796.4152)" fill="#F1F2F2" stroke="#848484" stroke-miterlimit="10" width="3.5" height="33.9"/>
	
		<rect x="86" y="383.7" transform="matrix(-0.9787 0.2052 -0.2052 -0.9787 255.7722 774.8195)" fill="#F1F2F2" stroke="#848484" stroke-miterlimit="10" width="3.5" height="33.9"/>
	
		<rect x="73.6" y="383.7" transform="matrix(-0.9884 0.152 -0.152 -0.9884 210.6869 785.3)" fill="#F1F2F2" stroke="#848484" stroke-miterlimit="10" width="3.5" height="33.9"/>
	
		<rect x="61.2" y="383.7" transform="matrix(-0.9964 8.473843e-02 -8.473843e-02 -0.9964 159.5688 794.5664)" fill="#F1F2F2" stroke="#848484" stroke-miterlimit="10" width="3.5" height="33.9"/>
	
		<rect x="48.8" y="384.1" transform="matrix(-0.9713 0.2379 -0.2379 -0.9713 195.0226 778.6288)" fill="#F1F2F2" stroke="#848484" stroke-miterlimit="10" width="3.5" height="33.9"/>
</g>
<g>
	<path fill-rule="evenodd" clip-rule="evenodd" fill="#F1F2F2" stroke="#848484" stroke-miterlimit="10" d="M489.1,636.2H555h53.1
		c3.5,0,6.4-2.9,6.4-6.4v-53.2V415.7c0-3.5-2.9-6.4-6.4-6.4H555c-3.5,0-6.4,2.9-6.4,6.4v148c0,3.5-2.9,6.4-6.4,6.4h-53.1
		c-3.5,0-6.4,2.9-6.4,6.4v53.2C482.7,633.3,485.6,636.2,489.1,636.2z"/>
	<g>
		<path fill-rule="evenodd" clip-rule="evenodd" fill="#F1F2F2" stroke="#848484" stroke-miterlimit="10" d="M559.2,570.1
			c-7.5,0-10.6,0.4-10.6,9.9v28.3c0,9.5,3.2,9.9,10.6,9.9h28.2c7.5,0,10.6-0.4,10.6-9.9V580c0-9.5-3.2-9.9-10.6-9.9H559.2z"/>
		<path fill-rule="evenodd" clip-rule="evenodd" fill="#F1F2F2" stroke="#848484" stroke-miterlimit="10" d="M559.2,570.1
			c-7.5,0-10.6,0.4-10.6,9.9v28.3c0,9.5,3.2,9.9,10.6,9.9h28.2c7.5,0,10.6-0.4,10.6-9.9V580c0-9.5-3.2-9.9-10.6-9.9H559.2z"/>
		<path fill-rule="evenodd" clip-rule="evenodd" fill="#F1F2F2" stroke="#848484" stroke-miterlimit="10" d="M559.2,522.4
			c-7.5,0-10.6,0.4-10.6,9.9v28.3c0,9.5,3.2,9.9,10.6,9.9h28.2c7.5,0,10.6-0.4,10.6-9.9v-28.3c0-9.5-3.2-9.9-10.6-9.9H559.2z"/>
		<path fill-rule="evenodd" clip-rule="evenodd" fill="#F1F2F2" stroke="#848484" stroke-miterlimit="10" d="M559.2,522.4
			c-7.5,0-10.6,0.4-10.6,9.9v28.3c0,9.5,3.2,9.9,10.6,9.9h28.2c7.5,0,10.6-0.4,10.6-9.9v-28.3c0-9.5-3.2-9.9-10.6-9.9H559.2z"/>
		<path fill-rule="evenodd" clip-rule="evenodd" fill="#F1F2F2" stroke="#848484" stroke-miterlimit="10" d="M559.2,474.7
			c-7.5,0-10.6,0.4-10.6,9.8v28.4c0,9.5,3.2,9.8,10.6,9.8h28.2c7.5,0,10.6-0.4,10.6-9.8v-28.4c0-9.5-3.2-9.8-10.6-9.8H559.2z"/>
		<path fill-rule="evenodd" clip-rule="evenodd" fill="#F1F2F2" stroke="#848484" stroke-miterlimit="10" d="M559.2,474.7
			c-7.5,0-10.6,0.4-10.6,9.8v28.4c0,9.5,3.2,9.8,10.6,9.8h28.2c7.5,0,10.6-0.4,10.6-9.8v-28.4c0-9.5-3.2-9.8-10.6-9.8H559.2z"/>
		<path fill-rule="evenodd" clip-rule="evenodd" fill="#F1F2F2" stroke="#848484" stroke-miterlimit="10" d="M509.8,570.1
			c-7.5,0-10.6,0.4-10.6,9.9v28.3c0,9.5,3.2,9.9,10.6,9.9H538c7.5,0,10.6-0.4,10.6-9.9V580c0-9.5-3.2-9.9-10.6-9.9H509.8z"/>
		<path fill-rule="evenodd" clip-rule="evenodd" fill="#F1F2F2" stroke="#848484" stroke-miterlimit="10" d="M559.4,427
			c-7.5,0-10.6,0.4-10.6,9.8v28.4c0,9.5,3.2,9.8,10.6,9.8h28.2c7.5,0,10.6-0.4,10.6-9.8v-28.4c0-9.5-3.2-9.8-10.6-9.8H559.4z"/>
		<path fill-rule="evenodd" clip-rule="evenodd" fill="#F1F2F2" stroke="#848484" stroke-miterlimit="10" d="M607.7,636.2H492.3
			h-2.8c-3.8,0-6.8-3.3-6.8-7.3v-3v-48.3c0-4,3.1-7.3,6.8-7.3h2.8c3.8,0,6.8,3.3,6.8,7.3v41h98.9V427h-42.6c-3.8,0-6.8-3.3-6.8-7.3
			v-3c0-4,3.1-7.3,6.8-7.3h49.5h2.8c3.8,0,6.8,3.3,6.8,7.3v3v206.1v3v0C614.5,632.9,611.5,636.2,607.7,636.2z"/>
	</g>
</g>
<g>
	<g>
		
			<rect x="332.3" y="363.5" fill-rule="evenodd" clip-rule="evenodd" fill="#F1F2F2" stroke="#848484" stroke-miterlimit="10" width="4.1" height="80.6"/>
		<polygon fill-rule="evenodd" clip-rule="evenodd" fill="#F1F2F2" stroke="#848484" stroke-miterlimit="10" points="332.3,370.3 
			329.2,383.2 329.2,424.2 332.3,437.2 		"/>
		
			<rect x="325.6" y="396.9" transform="matrix(-1 -5.139279e-11 5.139279e-11 -1 654.7693 807.4531)" fill-rule="evenodd" clip-rule="evenodd" fill="#F1F2F2" stroke="#848484" stroke-miterlimit="10" width="3.5" height="13.7"/>
	</g>
</g>
<g>
	
		<rect x="356.5" y="182.5" fill-rule="evenodd" clip-rule="evenodd" fill="#F1F2F2" stroke="#848484" stroke-miterlimit="10" width="49" height="3.5"/>
	
		<rect x="356.5" y="182.5" fill-rule="evenodd" clip-rule="evenodd" fill="#F1F2F2" stroke="#848484" stroke-miterlimit="10" width="49" height="3.5"/>
	
		<rect x="389.8" y="237.4" fill-rule="evenodd" clip-rule="evenodd" fill="#F1F2F2" stroke="#848484" stroke-miterlimit="10" width="16.1" height="4.8"/>
	
		<rect x="389.8" y="237.4" fill-rule="evenodd" clip-rule="evenodd" fill="#F1F2F2" stroke="#848484" stroke-miterlimit="10" width="16.1" height="4.8"/>
	
		<rect x="354.3" y="185.6" fill-rule="evenodd" clip-rule="evenodd" fill="#F1F2F2" stroke="#848484" stroke-miterlimit="10" width="53.9" height="53.7"/>
	
		<rect x="354.3" y="185.6" fill-rule="evenodd" clip-rule="evenodd" fill="#F1F2F2" stroke="#848484" stroke-miterlimit="10" width="53.9" height="53.7"/>
	<path fill-rule="evenodd" clip-rule="evenodd" fill="#F1F2F2" stroke="#848484" stroke-miterlimit="10" d="M354.3,234.5l53.9,0
		L354.3,234.5z"/>
	<path fill-rule="evenodd" clip-rule="evenodd" fill="#F1F2F2" stroke="#848484" stroke-miterlimit="10" d="M351.7,234.3
		c0-1.1,0.9-2.1,2.1-2.1c1.3,0,2.1,1.1,2.1,2.1c0,1.3-0.9,2.3-2.1,2.3C352.6,236.6,351.7,235.6,351.7,234.3z"/>
	<path fill-rule="evenodd" clip-rule="evenodd" fill="#F1F2F2" stroke="#848484" stroke-miterlimit="10" d="M351.7,234.3
		c0-1.1,0.9-2.1,2.1-2.1c1.3,0,2.1,1.1,2.1,2.1c0,1.3-0.9,2.3-2.1,2.3C352.6,236.6,351.7,235.6,351.7,234.3z"/>
	<path fill-rule="evenodd" clip-rule="evenodd" fill="#F1F2F2" stroke="#848484" stroke-miterlimit="10" d="M381.5,206.8v9.5V206.8z
		"/>
	<path fill-rule="evenodd" clip-rule="evenodd" fill="#F1F2F2" stroke="#848484" stroke-miterlimit="10" d="M376.9,211.4h9.5H376.9z
		"/>
	<path fill-rule="evenodd" clip-rule="evenodd" fill="#F1F2F2" stroke="#848484" stroke-miterlimit="10" d="M378.2,215l6.9-6.9
		L378.2,215z"/>
	<path fill-rule="evenodd" clip-rule="evenodd" fill="#F1F2F2" stroke="#848484" stroke-miterlimit="10" d="M385,215l-6.9-6.9
		L385,215z"/>
	<path fill-rule="evenodd" clip-rule="evenodd" fill="#F1F2F2" stroke="#848484" stroke-miterlimit="10" d="M367.5,206.5v9.5V206.5z
		"/>
	<path fill-rule="evenodd" clip-rule="evenodd" fill="#F1F2F2" stroke="#848484" stroke-miterlimit="10" d="M362.8,211.1h9.5H362.8z
		"/>
	<path fill-rule="evenodd" clip-rule="evenodd" fill="#F1F2F2" stroke="#848484" stroke-miterlimit="10" d="M364.2,214.7l6.9-6.9
		L364.2,214.7z"/>
	<path fill-rule="evenodd" clip-rule="evenodd" fill="#F1F2F2" stroke="#848484" stroke-miterlimit="10" d="M371,214.7l-6.9-6.9
		L371,214.7z"/>
	<path fill-rule="evenodd" clip-rule="evenodd" fill="#F1F2F2" stroke="#848484" stroke-miterlimit="10" d="M395.1,206.8v9.5V206.8z
		"/>
	<path fill-rule="evenodd" clip-rule="evenodd" fill="#F1F2F2" stroke="#848484" stroke-miterlimit="10" d="M390.5,211.4l9.5,0
		L390.5,211.4z"/>
	<path fill-rule="evenodd" clip-rule="evenodd" fill="#F1F2F2" stroke="#848484" stroke-miterlimit="10" d="M391.8,215l6.9-6.9
		L391.8,215z"/>
	<path fill-rule="evenodd" clip-rule="evenodd" fill="#F1F2F2" stroke="#848484" stroke-miterlimit="10" d="M398.6,215l-6.9-6.9
		L398.6,215z"/>
</g>
<g>
	<g>
		<path fill="#F1F2F2" stroke="#848484" stroke-miterlimit="10" d="M497.5,266.4c9.1,0,16.4-2.7,16.4-6.1c0-3.4-7.3-6.1-16.4-6.1
			c-9.1,0-16.4,2.7-16.4,6.1C481.1,263.7,488.4,266.4,497.5,266.4z"/>
		<path fill="#F1F2F2" stroke="#848484" stroke-miterlimit="10" d="M497.5,293.8c9.1,0,16.4-7.4,16.4-16.4c0-9.1-7.3-16.4-16.4-16.4
			c-9.1,0-16.4,7.4-16.4,16.4C481.1,286.5,488.4,293.8,497.5,293.8z"/>
	</g>
	<g>
		<path fill="#F1F2F2" stroke="#848484" stroke-miterlimit="10" d="M497.5,349.1c-9.1,0-16.4,2.7-16.4,6.1c0,3.4,7.3,6.1,16.4,6.1
			c9.1,0,16.4-2.7,16.4-6.1C513.9,351.8,506.5,349.1,497.5,349.1z"/>
		<path fill="#F1F2F2" stroke="#848484" stroke-miterlimit="10" d="M497.5,321.7c-9.1,0-16.4,7.4-16.4,16.4
			c0,9.1,7.3,16.4,16.4,16.4c9.1,0,16.4-7.4,16.4-16.4C513.9,329,506.5,321.7,497.5,321.7z"/>
	</g>
	<g>
		<path fill="#F1F2F2" stroke="#848484" stroke-miterlimit="10" d="M458.7,307.1c0-9.1-2.7-16.4-6.1-16.4c-3.4,0-6.1,7.3-6.1,16.4
			c0,9.1,2.7,16.4,6.1,16.4C455.9,323.5,458.7,316.2,458.7,307.1z"/>
		<path fill="#F1F2F2" stroke="#848484" stroke-miterlimit="10" d="M486.1,307.1c0-9.1-7.4-16.4-16.4-16.4
			c-9.1,0-16.4,7.3-16.4,16.4c0,9.1,7.4,16.4,16.4,16.4C478.8,323.5,486.1,316.2,486.1,307.1z"/>
	</g>
	<g>
		<path fill="#F1F2F2" stroke="#848484" stroke-miterlimit="10" d="M536.3,307.1c0,9.1,2.7,16.4,6.1,16.4c3.4,0,6.1-7.3,6.1-16.4
			c0-9.1-2.7-16.4-6.1-16.4C539,290.7,536.3,298,536.3,307.1z"/>
		<path fill="#F1F2F2" stroke="#848484" stroke-miterlimit="10" d="M508.9,307.1c0,9.1,7.4,16.4,16.4,16.4s16.4-7.3,16.4-16.4
			c0-9.1-7.4-16.4-16.4-16.4S508.9,298,508.9,307.1z"/>
	</g>
	
		<rect x="464.4" y="274" transform="matrix(6.123234e-17 -1 1 6.123234e-17 190.3814 804.5852)" fill="#F1F2F2" stroke="#848484" stroke-miterlimit="10" width="66.1" height="66.1"/>
</g>
<g>
</g>
<g>
</g>
<g>
</g>
<g>
</g>
<g>
</g>
<g>
</g>
</svg>
