<?xml version="1.0" encoding="utf-8"?>
<!-- Generator: Adobe Illustrator 23.0.2, SVG Export Plug-In . SVG Version: 6.00 Build 0)  -->
<svg version="1.1" id="Слой_1" xmlns="http://www.w3.org/2000/svg" xmlns:xlink="http://www.w3.org/1999/xlink" x="0px" y="0px"
	 viewBox="0 0 458.5 800" enable-background="new 0 0 458.5 800" xml:space="preserve">
<polygon fill="#F3F3F3" stroke="#838383" points="370.8,333.4 196.8,333.4 196.8,383.2 317.7,383.2 317.7,461.2 370.8,461.2 "/>
<g>
	<rect x="120.7" y="782" fill="#F3F3F3" stroke="#000000" stroke-miterlimit="10" width="211.6" height="12.6"/>
	<rect x="115.1" y="773" fill="#F3F3F3" stroke="#000000" stroke-miterlimit="10" width="221" height="9"/>
	<rect x="115.1" y="759.5" fill="#F3F3F3" stroke="#000000" stroke-miterlimit="10" width="221" height="13.5"/>
	<rect x="115.1" y="773" fill="#F3F3F3" stroke="#000000" stroke-miterlimit="10" width="6.6" height="9"/>
	<rect x="329.4" y="773" fill="#F3F3F3" stroke="#000000" stroke-miterlimit="10" width="6.6" height="9"/>
	<rect x="186.6" y="773" fill="#F3F3F3" stroke="#000000" stroke-miterlimit="10" width="6.6" height="9"/>
	<rect x="256.7" y="773" fill="#F3F3F3" stroke="#000000" stroke-miterlimit="10" width="6.6" height="9"/>
</g>
<line fill="#F3F3F3" stroke="#000000" stroke-miterlimit="10" x1="96.1" y1="49.2" x2="171.2" y2="5"/>
<line fill="#F3F3F3" stroke="#000000" stroke-miterlimit="10" x1="196.8" y1="166.8" x2="161" y2="227.8"/>
<g id="unitaz_2_">
	<path fill="#F3F3F3" stroke="#838383" d="M370.8,176.3h-11.6c-1.8,0-3.3-1.5-3.3-3.3v-29.7c0-1.8,1.5-3.3,3.3-3.3h11.6V176.3z"/>
	<path fill="#F3F3F3" stroke="#838383" d="M356,173c0,1.8-1.5,3.3-3.3,3.3v-36.4c1.8,0,3.3,1.5,3.3,3.3V173z"/>
	<path fill="#F3F3F3" stroke="#838383" d="M352.7,139.9v36.4c0,0-43,7.4-43-18.2C309.7,132.5,352.7,139.9,352.7,139.9z"/>
	<circle fill="#F3F3F3" stroke="#838383" cx="364.2" cy="158.1" r="3.3"/>
</g>
<g id="moyka_2_">
	<path fill="#F3F3F3" stroke="#838383" d="M370.1,250.8c0,1-0.8,1.8-1.8,1.8h-35.6c-1,0-1.8-0.8-1.8-1.8v-53.3c0-1,0.8-1.8,1.8-1.8
		h35.6c1,0,1.8,0.8,1.8,1.8V250.8z"/>
	<rect x="361.2" y="195.7" fill="#F3F3F3" stroke="#838383" width="3.6" height="56.9"/>
	<ellipse fill="#F3F3F3" stroke="#838383" cx="346.1" cy="223.3" rx="11.6" ry="18.7"/>
	<rect x="350.6" y="222.4" fill="#F3F3F3" stroke="#838383" width="14.2" height="3.6"/>
	<circle fill="#F3F3F3" stroke="#838383" cx="344.4" cy="225" r="2.7"/>
</g>
<g id="stirka_1_">
	<rect x="205.3" y="76" fill="#F3F3F3" stroke="#838383" width="50.7" height="50.7"/>
	<path fill="#F3F3F3" stroke="#838383" d="M252.5,81.1c0,1.9-1.5,3.4-3.4,3.4h-11.8c-1.9,0-3.4-1.5-3.4-3.4V76h18.6V81.1z"/>
	<circle fill="#F3F3F3" stroke="#838383" cx="230.6" cy="103" r="13.5"/>
	<circle fill="#F3F3F3" stroke="#838383" cx="230.6" cy="103" r="10.1"/>
	<circle fill="#F3F3F3" stroke="#838383" cx="213.7" cy="84.5" r="3.4"/>
</g>
<g id="moyka_2_1_">
	<path fill="#F3F3F3" stroke="#838383" d="M311.8,374.1c0,1.5,1.2,2.8,2.8,2.8h40.2c1.5,0,2.8-1.2,2.8-2.8v-33.3
		c0-1.5-1.2-2.8-2.8-2.8h-40.2c-1.5,0-2.8,1.2-2.8,2.8V374.1z"/>
	<path fill="#F3F3F3" stroke="#838383" d="M314.6,371.3c0,1.5,1.2,2.8,2.8,2.8H352c1.5,0,2.8-1.2,2.8-2.8v-23.6
		c0-1.5-1.2-2.8-2.8-2.8h-34.7c-1.5,0-2.8,1.2-2.8,2.8V371.3z"/>
	<rect x="332.6" y="342.2" fill="#F3F3F3" stroke="#838383" width="2.8" height="11.1"/>
	<circle fill="#F3F3F3" stroke="#838383" cx="334.7" cy="360.9" r="2.1"/>
</g>
<g id="plita_1_">
	<rect x="225.7" y="334.7" fill="#F3F3F3" stroke="#838383" width="49.9" height="48.5"/>
	<circle fill="#F3F3F3" stroke="#838383" cx="238.1" cy="369.4" r="8.3"/>
	<circle fill="#F3F3F3" stroke="#838383" cx="258.9" cy="348.6" r="8.3"/>
	<circle fill="#F3F3F3" stroke="#838383" cx="238.1" cy="348.6" r="6.9"/>
	<circle fill="#F3F3F3" stroke="#838383" cx="258.9" cy="369.4" r="6.9"/>
</g>
<g id="vanna_1_">
	<rect x="218" y="262.9" fill="#F3F3F3" stroke="#838383" width="152.2" height="59.6"/>
	<path fill="#F3F3F3" stroke="#838383" d="M227.4,283.3c0-8.7,7-15.7,15.7-15.7h105.1v50.2H243.1c-8.7,0-15.7-7-15.7-15.7V283.3z"/>
	<path fill="#F3F3F3" stroke="#838383" d="M350.6,294.3v12.5h5.5v-21.2"/>
	<path id="Union_1_" fill="#F3F3F3" stroke="#838383" d="M357.6,283c1.8-0.6,3.1-2.4,3.1-4.4c0-2.6-2.1-4.7-4.7-4.7
		c-2.6,0-4.7,2.1-4.7,4.7c0,2,1.3,3.8,3.1,4.4v1.8c0,0.9,0.7,1.6,1.6,1.6c0.9,0,1.6-0.7,1.6-1.6V283z"/>
	<rect x="340.4" y="291.1" fill="#F3F3F3" stroke="#838383" width="12.5" height="3.1"/>
</g>
<rect x="14" y="782" fill="#838383" stroke="#000000" stroke-miterlimit="10" width="106.7" height="13"/>
<rect x="14" y="648.8" fill="#838383" stroke="#000000" stroke-miterlimit="10" width="22.4" height="133.2"/>
<rect x="36.4" y="759.6" fill="#838383" stroke="#000000" stroke-miterlimit="10" width="78.7" height="22.4"/>
<rect x="332.2" y="782" fill="#838383" stroke="#000000" stroke-miterlimit="10" width="59.8" height="13"/>
<rect x="336.1" y="759.6" fill="#838383" stroke="#000000" stroke-miterlimit="10" width="34.8" height="22.4"/>
<rect x="9" y="49.2" fill="#838383" stroke="#000000" stroke-miterlimit="10" width="27.4" height="599.6"/>
<rect x="370.8" y="101.4" fill="#838383" stroke="#000000" stroke-miterlimit="10" width="21.2" height="680.7"/>
<rect x="392.1" y="101.4" fill="#838383" stroke="#000000" stroke-miterlimit="10" width="58.5" height="21.7"/>
<rect x="424.9" y="49.2" fill="#838383" stroke="#000000" stroke-miterlimit="10" width="25.6" height="52.2"/>
<rect x="196.8" y="49.2" fill="#838383" stroke="#000000" stroke-miterlimit="10" width="228.1" height="18.6"/>
<rect x="36.4" y="49.2" fill="#838383" stroke="#000000" stroke-miterlimit="10" width="59.7" height="26.1"/>
<rect x="184.5" y="49.2" fill="#838383" stroke="#000000" stroke-miterlimit="10" width="12.4" height="26.1"/>
<rect x="196.8" y="67.8" fill="#C6C6C6" stroke="#000000" stroke-miterlimit="10" width="7.5" height="99"/>
<rect x="196.8" y="237.5" fill="#C6C6C6" stroke="#000000" stroke-miterlimit="10" width="7.5" height="95.9"/>
<rect x="204.4" y="325.9" fill="#C6C6C6" stroke="#000000" stroke-miterlimit="10" width="166.5" height="7.5"/>
<rect x="204.4" y="67.8" fill="#C6C6C6" stroke="#000000" stroke-miterlimit="10" width="220.6" height="7.5"/>
<rect x="317.5" y="75.3" fill="#C6C6C6" stroke="#000000" stroke-miterlimit="10" width="7.5" height="44.2"/>
<rect x="325" y="112" fill="#C6C6C6" stroke="#000000" stroke-miterlimit="10" width="22.9" height="7.5"/>
<rect x="347.9" y="115.7" fill="#C6C6C6" stroke="#000000" stroke-miterlimit="10" width="22.9" height="3.8"/>
<g>
	<path d="M163.2,653.2v1.9h-11.1v-1.5l6.3-6.1c0.8-0.7,1.3-1.4,1.5-1.9c0.3-0.5,0.4-1.1,0.4-1.6c0-0.8-0.3-1.4-0.9-1.9
		c-0.6-0.4-1.4-0.7-2.4-0.7c-1.7,0-3,0.6-4,1.7l-1.5-1.3c0.6-0.7,1.4-1.3,2.4-1.7c1-0.4,2.1-0.6,3.3-0.6c1.6,0,2.9,0.4,3.9,1.2
		s1.4,1.8,1.4,3.1c0,0.8-0.2,1.6-0.5,2.3c-0.4,0.7-1,1.6-2,2.5l-4.7,4.6H163.2z"/>
	<path d="M174.4,647.6c0.8,0.8,1.2,1.8,1.2,3c0,0.9-0.2,1.7-0.7,2.4c-0.4,0.7-1.1,1.3-2,1.7s-1.9,0.6-3.2,0.6
		c-1.1,0-2.2-0.2-3.2-0.5c-1-0.3-1.8-0.8-2.5-1.4l1-1.7c0.5,0.5,1.2,0.9,2,1.2s1.7,0.5,2.6,0.5c1.1,0,2-0.2,2.7-0.7s1-1.2,1-2
		s-0.3-1.5-1-2c-0.6-0.5-1.6-0.7-2.9-0.7h-1.2v-1.5l3.9-4.8h-7.4v-1.9H175v1.5l-4,5C172.5,646.3,173.6,646.8,174.4,647.6z"/>
	<path d="M180.2,652.7c0.3,0.3,0.4,0.6,0.4,1.1c0,0.2,0,0.4-0.1,0.6c-0.1,0.2-0.2,0.5-0.3,1l-1,3.1h-1.4l0.8-3.3
		c-0.3-0.1-0.5-0.3-0.7-0.5c-0.2-0.2-0.3-0.5-0.3-0.9c0-0.4,0.1-0.8,0.4-1.1c0.3-0.3,0.6-0.4,1.1-0.4
		C179.6,652.2,179.9,652.4,180.2,652.7z"/>
	<path d="M196,651.3H193v3.8h-2.1v-3.8h-8.6v-1.5l7.9-10.1h2.4l-7.6,9.8h5.9v-3.4h2.1v3.4h2.9V651.3z"/>
</g>
<g>
	<path d="M275.4,230.6c1,0.8,1.6,2,1.6,3.4c0,0.9-0.2,1.7-0.7,2.5c-0.4,0.7-1.1,1.3-2,1.7c-0.9,0.4-2,0.6-3.2,0.6
		c-1.1,0-2.1-0.2-3.2-0.5c-1-0.3-1.9-0.8-2.5-1.4l1-1.7c0.5,0.5,1.2,0.9,2,1.2c0.8,0.3,1.7,0.5,2.6,0.5c1.2,0,2.1-0.2,2.7-0.7
		c0.6-0.5,1-1.2,1-2c0-0.9-0.4-1.6-1.1-2.1c-0.7-0.5-1.9-0.7-3.6-0.7h-3.5l0.8-8.1h8.7v1.9h-6.9l-0.4,4.2h1.7
		C272.8,229.4,274.4,229.8,275.4,230.6z"/>
	<path d="M281.3,236.2c0.3,0.3,0.4,0.6,0.4,1.1c0,0.2,0,0.4-0.1,0.6c-0.1,0.2-0.2,0.5-0.3,1l-1,3.1h-1.4l0.8-3.3
		c-0.3-0.1-0.5-0.3-0.7-0.5c-0.2-0.2-0.3-0.5-0.3-0.9c0-0.4,0.1-0.8,0.4-1.1c0.3-0.3,0.6-0.4,1.1-0.4
		C280.7,235.8,281,235.9,281.3,236.2z"/>
	<path d="M286.6,237.9c-1-0.6-1.7-1.5-2.2-2.7c-0.5-1.2-0.8-2.6-0.8-4.2s0.3-3,0.8-4.2c0.5-1.2,1.3-2.1,2.2-2.7s2-0.9,3.3-0.9
		c1.2,0,2.3,0.3,3.2,0.9c1,0.6,1.7,1.5,2.2,2.7c0.5,1.2,0.8,2.6,0.8,4.2s-0.3,3-0.8,4.2c-0.5,1.2-1.3,2.1-2.2,2.7
		c-1,0.6-2,0.9-3.2,0.9C288.7,238.8,287.6,238.5,286.6,237.9z M292.9,235.4c0.7-1,1.1-2.5,1.1-4.4s-0.4-3.4-1.1-4.4
		c-0.7-1-1.7-1.5-3-1.5c-1.3,0-2.3,0.5-3,1.5c-0.7,1-1.1,2.5-1.1,4.4s0.4,3.4,1.1,4.4c0.7,1,1.7,1.5,3,1.5
		C291.1,236.9,292.1,236.4,292.9,235.4z"/>
</g>
<g>
	<path fill="#F1F2F2" stroke="#848484" stroke-miterlimit="10" d="M37.4,185V77.4h49.2V185c-2.1,5.5-9.4,17.3-18.7,23.7
		c-10.6,7.3-25.3,7.1-30.5,6.7C37.4,205.3,37.4,195.2,37.4,185z M37.4,185h49.2"/>
	
		<rect x="37.4" y="89.4" transform="matrix(-1 -4.702251e-11 4.702251e-11 -1 80.9892 183.0653)" fill="#F1F2F2" stroke="#848484" stroke-miterlimit="10" width="6.1" height="4.4"/>
	
		<rect x="37.4" y="116" transform="matrix(-1 -4.613255e-11 4.613255e-11 -1 80.9892 236.2693)" fill="#F1F2F2" stroke="#848484" stroke-miterlimit="10" width="6.1" height="4.4"/>
	
		<rect x="37.4" y="142.3" transform="matrix(-1 -4.746748e-11 4.746748e-11 -1 80.9892 288.9293)" fill="#F1F2F2" stroke="#848484" stroke-miterlimit="10" width="6.1" height="4.4"/>
	
		<rect x="37.4" y="168.9" transform="matrix(-1 -4.672586e-11 4.672586e-11 -1 80.9892 342.1332)" fill="#F1F2F2" stroke="#848484" stroke-miterlimit="10" width="6.1" height="4.4"/>
	
		<rect x="37.4" y="86.3" transform="matrix(-1 -4.359947e-11 4.359947e-11 -1 75.8291 183.0653)" fill="#F1F2F2" stroke="#848484" stroke-miterlimit="10" width="1" height="10.6"/>
	
		<rect x="37.4" y="112.7" transform="matrix(-1 -4.715884e-11 4.715884e-11 -1 75.8291 236.0517)" fill="#F1F2F2" stroke="#848484" stroke-miterlimit="10" width="1" height="10.6"/>
	
		<rect x="37.4" y="139.2" transform="matrix(-1 -4.893831e-11 4.893831e-11 -1 75.8291 288.9293)" fill="#F1F2F2" stroke="#848484" stroke-miterlimit="10" width="1" height="10.6"/>
	
		<rect x="37.4" y="165.8" transform="matrix(-1 -4.893831e-11 4.893831e-11 -1 75.8291 342.1332)" fill="#F1F2F2" stroke="#848484" stroke-miterlimit="10" width="1" height="10.6"/>
</g>
<g>
	<path fill-rule="evenodd" clip-rule="evenodd" fill="#F1F2F2" stroke="#848484" stroke-miterlimit="10" d="M244.6,757.5h66.9h53.8
		c3.6,0,6.5-2.9,6.5-6.5v-53.9V534c0-3.6-2.9-6.5-6.5-6.5h-53.8c-3.6,0-6.5,2.9-6.5,6.5v150c0,3.6-2.9,6.5-6.5,6.5h-53.8
		c-3.6,0-6.5,2.9-6.5,6.5V751C238.1,754.6,241.1,757.5,244.6,757.5z"/>
	<g>
		<path fill-rule="evenodd" clip-rule="evenodd" fill="#F1F2F2" stroke="#848484" stroke-miterlimit="10" d="M315.8,690.6
			c-7.6,0-10.8,0.4-10.8,10.1v28.7c0,9.7,3.3,10.1,10.8,10.1h28.6c7.6,0,10.8-0.4,10.8-10.1v-28.7c0-9.7-3.3-10.1-10.8-10.1H315.8z"
			/>
		<path fill-rule="evenodd" clip-rule="evenodd" fill="#F1F2F2" stroke="#848484" stroke-miterlimit="10" d="M315.8,690.6
			c-7.6,0-10.8,0.4-10.8,10.1v28.7c0,9.7,3.3,10.1,10.8,10.1h28.6c7.6,0,10.8-0.4,10.8-10.1v-28.7c0-9.7-3.3-10.1-10.8-10.1H315.8z"
			/>
		<path fill-rule="evenodd" clip-rule="evenodd" fill="#F1F2F2" stroke="#848484" stroke-miterlimit="10" d="M315.8,642.2
			c-7.6,0-10.8,0.4-10.8,10.1v28.7c0,9.7,3.3,10.1,10.8,10.1h28.6c7.6,0,10.8-0.4,10.8-10.1v-28.7c0-9.7-3.3-10.1-10.8-10.1H315.8z"
			/>
		<path fill-rule="evenodd" clip-rule="evenodd" fill="#F1F2F2" stroke="#848484" stroke-miterlimit="10" d="M315.8,642.2
			c-7.6,0-10.8,0.4-10.8,10.1v28.7c0,9.7,3.3,10.1,10.8,10.1h28.6c7.6,0,10.8-0.4,10.8-10.1v-28.7c0-9.7-3.3-10.1-10.8-10.1H315.8z"
			/>
		<path fill-rule="evenodd" clip-rule="evenodd" fill="#F1F2F2" stroke="#848484" stroke-miterlimit="10" d="M315.8,593.8
			c-7.6,0-10.8,0.4-10.8,10v28.8c0,9.7,3.3,10,10.8,10h28.6c7.6,0,10.8-0.4,10.8-10v-28.8c0-9.7-3.3-10-10.8-10H315.8z"/>
		<path fill-rule="evenodd" clip-rule="evenodd" fill="#F1F2F2" stroke="#848484" stroke-miterlimit="10" d="M315.8,593.8
			c-7.6,0-10.8,0.4-10.8,10v28.8c0,9.7,3.3,10,10.8,10h28.6c7.6,0,10.8-0.4,10.8-10v-28.8c0-9.7-3.3-10-10.8-10H315.8z"/>
		<path fill-rule="evenodd" clip-rule="evenodd" fill="#F1F2F2" stroke="#848484" stroke-miterlimit="10" d="M265.6,690.6
			c-7.6,0-10.8,0.4-10.8,10.1v28.7c0,9.7,3.3,10.1,10.8,10.1h28.6c7.6,0,10.8-0.4,10.8-10.1v-28.7c0-9.7-3.3-10.1-10.8-10.1H265.6z"
			/>
		<path fill-rule="evenodd" clip-rule="evenodd" fill="#F1F2F2" stroke="#848484" stroke-miterlimit="10" d="M315.9,545.5
			c-7.6,0-10.8,0.4-10.8,10v28.8c0,9.7,3.3,10,10.8,10h28.6c7.6,0,10.8-0.4,10.8-10v-28.8c0-9.7-3.3-10-10.8-10H315.9z"/>
		<path fill-rule="evenodd" clip-rule="evenodd" fill="#F1F2F2" stroke="#848484" stroke-miterlimit="10" d="M364.9,757.5h-117H245
			c-3.8,0-6.9-3.3-6.9-7.4V747v-49c0-4.1,3.1-7.4,6.9-7.4h2.9c3.8,0,6.9,3.3,6.9,7.4v41.5h100.3V545.5h-43.2c-3.8,0-6.9-3.3-6.9-7.4
			V535c0-4.1,3.1-7.4,6.9-7.4h50.2h2.9c3.8,0,6.9,3.3,6.9,7.4v3.1v209v3.1v0C371.8,754.2,368.7,757.5,364.9,757.5z"/>
	</g>
</g>
<g>
	
		<rect x="367.9" y="468.5" fill-rule="evenodd" clip-rule="evenodd" fill="#F1F2F2" stroke="#848484" stroke-miterlimit="10" width="3.2" height="45.7"/>
	
		<rect x="367.9" y="468.5" fill-rule="evenodd" clip-rule="evenodd" fill="#F1F2F2" stroke="#848484" stroke-miterlimit="10" width="3.2" height="45.7"/>
	
		<rect x="315.5" y="499.6" fill-rule="evenodd" clip-rule="evenodd" fill="#F1F2F2" stroke="#848484" stroke-miterlimit="10" width="4.4" height="15"/>
	
		<rect x="315.5" y="499.6" fill-rule="evenodd" clip-rule="evenodd" fill="#F1F2F2" stroke="#848484" stroke-miterlimit="10" width="4.4" height="15"/>
	
		<rect x="318.1" y="466.4" fill-rule="evenodd" clip-rule="evenodd" fill="#F1F2F2" stroke="#848484" stroke-miterlimit="10" width="50.1" height="50.2"/>
	
		<rect x="318.1" y="466.4" fill-rule="evenodd" clip-rule="evenodd" fill="#F1F2F2" stroke="#848484" stroke-miterlimit="10" width="50.1" height="50.2"/>
	<path fill-rule="evenodd" clip-rule="evenodd" fill="#F1F2F2" stroke="#848484" stroke-miterlimit="10" d="M322.6,466.4l0,50.2
		L322.6,466.4z"/>
	<path fill-rule="evenodd" clip-rule="evenodd" fill="#F1F2F2" stroke="#848484" stroke-miterlimit="10" d="M322.8,464
		c1,0,2,0.9,2,2c0,1.2-1,2-2,2c-1.2,0-2.2-0.9-2.2-2C320.6,464.9,321.6,464,322.8,464z"/>
	<path fill-rule="evenodd" clip-rule="evenodd" fill="#F1F2F2" stroke="#848484" stroke-miterlimit="10" d="M322.8,464
		c1,0,2,0.9,2,2c0,1.2-1,2-2,2c-1.2,0-2.2-0.9-2.2-2C320.6,464.9,321.6,464,322.8,464z"/>
	<path fill-rule="evenodd" clip-rule="evenodd" fill="#F1F2F2" stroke="#848484" stroke-miterlimit="10" d="M348.4,491.8h-8.8H348.4
		z"/>
	<path fill-rule="evenodd" clip-rule="evenodd" fill="#F1F2F2" stroke="#848484" stroke-miterlimit="10" d="M344.1,487.5v8.8V487.5z
		"/>
	<path fill-rule="evenodd" clip-rule="evenodd" fill="#F1F2F2" stroke="#848484" stroke-miterlimit="10" d="M340.8,488.7l6.4,6.4
		L340.8,488.7z"/>
	<path fill-rule="evenodd" clip-rule="evenodd" fill="#F1F2F2" stroke="#848484" stroke-miterlimit="10" d="M340.8,495l6.4-6.4
		L340.8,495z"/>
	<path fill-rule="evenodd" clip-rule="evenodd" fill="#F1F2F2" stroke="#848484" stroke-miterlimit="10" d="M348.7,478.8h-8.8H348.7
		z"/>
	<path fill-rule="evenodd" clip-rule="evenodd" fill="#F1F2F2" stroke="#848484" stroke-miterlimit="10" d="M344.4,474.4v8.8V474.4z
		"/>
	<path fill-rule="evenodd" clip-rule="evenodd" fill="#F1F2F2" stroke="#848484" stroke-miterlimit="10" d="M341.1,475.7l6.4,6.4
		L341.1,475.7z"/>
	<path fill-rule="evenodd" clip-rule="evenodd" fill="#F1F2F2" stroke="#848484" stroke-miterlimit="10" d="M341.1,482l6.4-6.4
		L341.1,482z"/>
	<path fill-rule="evenodd" clip-rule="evenodd" fill="#F1F2F2" stroke="#848484" stroke-miterlimit="10" d="M348.4,504.5h-8.8H348.4
		z"/>
	<path fill-rule="evenodd" clip-rule="evenodd" fill="#F1F2F2" stroke="#848484" stroke-miterlimit="10" d="M344.1,500.2v8.8V500.2z
		"/>
	<path fill-rule="evenodd" clip-rule="evenodd" fill="#F1F2F2" stroke="#848484" stroke-miterlimit="10" d="M340.8,501.4l6.4,6.4
		L340.8,501.4z"/>
	<path fill-rule="evenodd" clip-rule="evenodd" fill="#F1F2F2" stroke="#848484" stroke-miterlimit="10" d="M340.8,507.7l6.4-6.4
		L340.8,507.7z"/>
</g>
<g>
	<g>
		<path fill="#F1F2F2" stroke="#848484" stroke-miterlimit="10" d="M240.1,507.1c0,8.5,2.6,15.4,5.7,15.4c3.1,0,5.7-6.9,5.7-15.4
			c0-8.5-2.6-15.4-5.7-15.4C242.7,491.6,240.1,498.5,240.1,507.1z"/>
		<path fill="#F1F2F2" stroke="#848484" stroke-miterlimit="10" d="M214.3,507.1c0,8.5,6.9,15.4,15.4,15.4c8.5,0,15.4-6.9,15.4-15.4
			c0-8.5-6.9-15.4-15.4-15.4C221.2,491.6,214.3,498.5,214.3,507.1z"/>
	</g>
	<g>
		<path fill="#F1F2F2" stroke="#848484" stroke-miterlimit="10" d="M167.1,507.1c0-8.5-2.6-15.4-5.7-15.4c-3.1,0-5.7,6.9-5.7,15.4
			c0,8.5,2.6,15.4,5.7,15.4C164.6,522.5,167.1,515.6,167.1,507.1z"/>
		<path fill="#F1F2F2" stroke="#848484" stroke-miterlimit="10" d="M192.9,507.1c0-8.5-6.9-15.4-15.4-15.4s-15.4,6.9-15.4,15.4
			c0,8.5,6.9,15.4,15.4,15.4S192.9,515.6,192.9,507.1z"/>
	</g>
	<g>
		<path fill="#F1F2F2" stroke="#848484" stroke-miterlimit="10" d="M240.1,466.5c0,8.5,2.6,15.4,5.7,15.4c3.1,0,5.7-6.9,5.7-15.4
			c0-8.5-2.6-15.4-5.7-15.4C242.7,451,240.1,457.9,240.1,466.5z"/>
		<path fill="#F1F2F2" stroke="#848484" stroke-miterlimit="10" d="M214.3,466.5c0,8.5,6.9,15.4,15.4,15.4c8.5,0,15.4-6.9,15.4-15.4
			c0-8.5-6.9-15.4-15.4-15.4C221.2,451,214.3,457.9,214.3,466.5z"/>
	</g>
	<g>
		<path fill="#F1F2F2" stroke="#848484" stroke-miterlimit="10" d="M167.1,466.5c0-8.5-2.6-15.4-5.7-15.4c-3.1,0-5.7,6.9-5.7,15.4
			c0,8.5,2.6,15.4,5.7,15.4C164.6,481.9,167.1,475,167.1,466.5z"/>
		<path fill="#F1F2F2" stroke="#848484" stroke-miterlimit="10" d="M192.9,466.5c0-8.5-6.9-15.4-15.4-15.4s-15.4,6.9-15.4,15.4
			c0,8.5,6.9,15.4,15.4,15.4S192.9,475,192.9,466.5z"/>
	</g>
	
		<rect x="153" y="456.4" transform="matrix(-1.836970e-16 1 -1 -1.836970e-16 691.1285 283.8754)" fill="#F1F2F2" stroke="#848484" stroke-miterlimit="10" width="101.3" height="62.1"/>
</g>
<g>
	<g>
		
			<rect x="49.5" y="594.4" fill-rule="evenodd" clip-rule="evenodd" fill="#F1F2F2" stroke="#848484" stroke-miterlimit="10" width="5.5" height="108.8"/>
		<polygon fill-rule="evenodd" clip-rule="evenodd" fill="#F1F2F2" stroke="#848484" stroke-miterlimit="10" points="49.5,603.7 
			45.3,621.2 45.3,676.4 49.5,693.9 		"/>
		
			<rect x="40.5" y="639.5" transform="matrix(-1 -5.217838e-11 5.217838e-11 -1 85.7651 1297.5826)" fill-rule="evenodd" clip-rule="evenodd" fill="#F1F2F2" stroke="#848484" stroke-miterlimit="10" width="4.8" height="18.5"/>
	</g>
</g>
<g>
	
		<rect x="-11.3" y="449.1" transform="matrix(-4.488162e-11 1 -1 -4.488162e-11 538.5876 411.2676)" fill-rule="evenodd" clip-rule="evenodd" fill="#F1F2F2" stroke="#848484" stroke-miterlimit="10" width="149.9" height="51.7"/>
	<line fill="#F1F2F2" stroke="#848484" stroke-miterlimit="10" x1="37.8" y1="405.4" x2="89.6" y2="405.4"/>
	<line fill="#F1F2F2" stroke="#848484" stroke-miterlimit="10" x1="37.8" y1="544.3" x2="89.5" y2="544.3"/>
	<line fill="#F1F2F2" stroke="#848484" stroke-miterlimit="10" x1="87.1" y1="405.4" x2="87.1" y2="544.3"/>
	<line fill="#F1F2F2" stroke="#848484" stroke-miterlimit="10" x1="63.3" y1="539.4" x2="63.3" y2="410.3"/>
	
		<rect x="61.9" y="401.2" transform="matrix(0.162 0.9868 -0.9868 0.162 464.7236 286.7129)" fill="#F1F2F2" stroke="#848484" stroke-miterlimit="10" width="3.2" height="31.5"/>
	
		<rect x="61.9" y="412.8" transform="matrix(8.815246e-02 0.9961 -0.9961 8.815246e-02 484.8613 327.4848)" fill="#F1F2F2" stroke="#848484" stroke-miterlimit="10" width="3.2" height="31.5"/>
	
		<rect x="61.7" y="424.6" transform="matrix(0.229 0.9734 -0.9734 0.229 477.4226 277.8863)" fill="#F1F2F2" stroke="#848484" stroke-miterlimit="10" width="3.2" height="31.5"/>
	
		<rect x="62" y="437.7" transform="matrix(0.152 0.9884 -0.9884 0.152 502.1366 321.6016)" fill="#F1F2F2" stroke="#848484" stroke-miterlimit="10" width="3.2" height="31.5"/>
	
		<rect x="61.8" y="449.1" transform="matrix(4.511170e-02 0.999 -0.999 4.511170e-02 525.0109 380.5117)" fill="#F1F2F2" stroke="#848484" stroke-miterlimit="10" width="3.2" height="31.5"/>
	
		<rect x="61.8" y="460.7" transform="matrix(0.152 0.9884 -0.9884 0.152 524.7385 341.2943)" fill="#F1F2F2" stroke="#848484" stroke-miterlimit="10" width="3.2" height="31.5"/>
	
		<rect x="61.7" y="472.5" transform="matrix(4.511170e-02 0.999 -0.999 4.511170e-02 548.1577 402.9731)" fill="#F1F2F2" stroke="#848484" stroke-miterlimit="10" width="3.2" height="31.5"/>
	
		<rect x="61.7" y="484" transform="matrix(0.2052 0.9787 -0.9787 0.2052 539.4236 335.2772)" fill="#F1F2F2" stroke="#848484" stroke-miterlimit="10" width="3.2" height="31.5"/>
	
		<rect x="61.7" y="495.5" transform="matrix(0.152 0.9884 -0.9884 0.152 559.0302 370.9596)" fill="#F1F2F2" stroke="#848484" stroke-miterlimit="10" width="3.2" height="31.5"/>
	
		<rect x="61.7" y="507" transform="matrix(8.473843e-02 0.9964 -0.9964 8.473843e-02 578.8549 415.4472)" fill="#F1F2F2" stroke="#848484" stroke-miterlimit="10" width="3.2" height="31.5"/>
	
		<rect x="62.1" y="518.6" transform="matrix(0.2379 0.9713 -0.9713 0.2379 567.5195 345.3643)" fill="#F1F2F2" stroke="#848484" stroke-miterlimit="10" width="3.2" height="31.5"/>
</g>
<g>
</g>
<g>
</g>
<g>
</g>
<g>
</g>
<g>
</g>
<g>
</g>
</svg>
