<?xml version="1.0" encoding="utf-8"?>
<!-- Generator: Adobe Illustrator 23.0.2, SVG Export Plug-In . SVG Version: 6.00 Build 0)  -->
<svg version="1.1" id="Слой_1" xmlns="http://www.w3.org/2000/svg" xmlns:xlink="http://www.w3.org/1999/xlink" x="0px" y="0px"
	 viewBox="0 0 366.2 800" enable-background="new 0 0 366.2 800" xml:space="preserve">
<rect x="22.3" y="77.8" fill="#F3F3F3" stroke="#838383" width="25.6" height="183.6"/>
<g>
	<rect x="179.6" y="5.5" fill="#F3F3F3" stroke="#000000" stroke-miterlimit="10" width="161" height="7"/>
	<rect x="179.6" y="12.5" fill="#F3F3F3" stroke="#000000" stroke-miterlimit="10" width="161" height="2.3"/>
	<rect x="179.6" y="14.8" fill="#F3F3F3" stroke="#000000" stroke-miterlimit="10" width="161" height="2.3"/>
	<rect x="179.6" y="17.1" fill="#F3F3F3" stroke="#000000" stroke-miterlimit="10" width="161" height="4.9"/>
	<rect x="337.8" y="12.5" fill="#F3F3F3" stroke="#000000" stroke-miterlimit="10" width="2.7" height="4.6"/>
	<rect x="179.6" y="12.5" fill="#F3F3F3" stroke="#000000" stroke-miterlimit="10" width="2.7" height="4.6"/>
</g>
<g>
	
		<rect x="28.8" y="788.6" transform="matrix(-1 -1.224647e-16 1.224647e-16 -1 183.5077 1584.0997)" fill="#F3F3F3" stroke="#000000" stroke-miterlimit="10" width="125.9" height="7"/>
	
		<rect x="28.8" y="786.3" transform="matrix(-1 -1.224647e-16 1.224647e-16 -1 183.5077 1574.8201)" fill="#F3F3F3" stroke="#000000" stroke-miterlimit="10" width="125.9" height="2.3"/>
	
		<rect x="28.8" y="784" transform="matrix(-1 -1.224647e-16 1.224647e-16 -1 183.5077 1570.2374)" fill="#F3F3F3" stroke="#000000" stroke-miterlimit="10" width="125.9" height="2.3"/>
	
		<rect x="28.8" y="779.1" transform="matrix(-1 -1.224647e-16 1.224647e-16 -1 183.5077 1563.0581)" fill="#F3F3F3" stroke="#000000" stroke-miterlimit="10" width="125.9" height="4.9"/>
	
		<rect x="28.8" y="784" transform="matrix(-1 -1.224647e-16 1.224647e-16 -1 59.7888 1572.5288)" fill="#F3F3F3" stroke="#000000" stroke-miterlimit="10" width="2.1" height="4.6"/>
	
		<rect x="152.5" y="784" transform="matrix(-1 -1.224647e-16 1.224647e-16 -1 307.2265 1572.5288)" fill="#F3F3F3" stroke="#000000" stroke-miterlimit="10" width="2.1" height="4.6"/>
</g>
<g>
	<rect x="55.4" y="16" fill="#F3F3F3" stroke="#000000" stroke-miterlimit="10" width="71.4" height="7.8"/>
	<rect x="55.4" y="12.5" fill="#F3F3F3" stroke="#000000" stroke-miterlimit="10" width="71.4" height="3.4"/>
	<rect x="58" y="5.5" fill="#F3F3F3" stroke="#000000" stroke-miterlimit="10" width="65.9" height="7"/>
	<rect x="55.4" y="12.5" fill="#F3F3F3" stroke="#000000" stroke-miterlimit="10" width="3.4" height="3.4"/>
	<rect x="123.3" y="12.5" fill="#F3F3F3" stroke="#000000" stroke-miterlimit="10" width="3.4" height="3.4"/>
	<rect x="89.6" y="12.5" fill="#F3F3F3" stroke="#000000" stroke-miterlimit="10" width="3.4" height="3.4"/>
</g>
<rect x="81.7" y="727.9" fill="#F3F3F3" stroke="#000000" stroke-miterlimit="10" width="73" height="2.9"/>
<rect x="81.7" y="727.9" fill="#F3F3F3" stroke="#000000" stroke-miterlimit="10" width="4.7" height="2.9"/>
<rect x="109" y="727.9" fill="#F3F3F3" stroke="#000000" stroke-miterlimit="10" width="4.6" height="2.9"/>
<rect x="150.3" y="727.9" fill="#F3F3F3" stroke="#000000" stroke-miterlimit="10" width="4.4" height="2.9"/>
<rect x="81.7" y="719.8" fill="#F3F3F3" stroke="#000000" stroke-miterlimit="10" width="29.6" height="8.1"/>
<rect x="83.5" y="730.8" fill="#F3F3F3" stroke="#000000" stroke-miterlimit="10" width="27.8" height="7.3"/>
<rect x="235.3" y="74.1" fill="#F3F3F3" stroke="#000000" stroke-miterlimit="10" width="36.8" height="7.4"/>
<rect x="191.6" y="81.5" fill="#F3F3F3" stroke="#000000" stroke-miterlimit="10" width="82.7" height="2.6"/>
<rect x="235.3" y="84.1" fill="#F3F3F3" stroke="#000000" stroke-miterlimit="10" width="39" height="8.5"/>
<rect x="233" y="81.5" fill="#F3F3F3" stroke="#000000" stroke-miterlimit="10" width="4.4" height="2.6"/>
<rect x="269.3" y="81.5" fill="#F3F3F3" stroke="#000000" stroke-miterlimit="10" width="5" height="2.6"/>
<rect x="191.6" y="81.5" fill="#F3F3F3" stroke="#000000" stroke-miterlimit="10" width="4.8" height="2.6"/>
<line fill="#F3F3F3" stroke="#000000" stroke-miterlimit="10" x1="196.4" y1="84.1" x2="229.3" y2="103.3"/>
<line fill="#F3F3F3" stroke="#000000" stroke-miterlimit="10" x1="182.8" y1="261.7" x2="218.1" y2="240.7"/>
<line fill="#F3F3F3" stroke="#000000" stroke-miterlimit="10" x1="159.4" y1="261.7" x2="123.7" y2="240.7"/>
<line fill="#F3F3F3" stroke="#000000" stroke-miterlimit="10" x1="109.9" y1="300.8" x2="128.3" y2="333.3"/>
<line fill="#F3F3F3" stroke="#000000" stroke-miterlimit="10" x1="173.6" y1="345.5" x2="212.6" y2="368.1"/>
<line fill="#F3F3F3" stroke="#000000" stroke-miterlimit="10" x1="109.9" y1="433.2" x2="128.3" y2="402.3"/>
<line fill="#F3F3F3" stroke="#000000" stroke-miterlimit="10" x1="155.1" y1="508.4" x2="119.1" y2="487.5"/>
<line fill="#F3F3F3" stroke="#000000" stroke-miterlimit="10" x1="150.3" y1="727.9" x2="118.2" y2="709.5"/>
<g id="unitaz">
	<path fill="#F3F3F3" stroke="#838383" d="M26.9,390.6h6c0.9,0,1.7,0.8,1.7,1.7v15.4c0,0.9-0.8,1.7-1.7,1.7h-6V390.6z"/>
	<path fill="#F3F3F3" stroke="#838383" d="M34.7,392.3c0-0.9,0.8-1.7,1.7-1.7v18.8c-0.9,0-1.7-0.8-1.7-1.7V392.3z"/>
	<path fill="#F3F3F3" stroke="#838383" d="M36.4,409.4v-18.8c0,0,22.3-3.9,22.3,9.4C58.6,413.3,36.4,409.4,36.4,409.4z"/>
	<circle fill="#F3F3F3" stroke="#838383" cx="30.4" cy="400" r="1.7"/>
</g>
<g id="unitaz_1_">
	<path fill="#F3F3F3" stroke="#838383" d="M22.1,326.4h6c0.9,0,1.7,0.8,1.7,1.7v15.4c0,0.9-0.8,1.7-1.7,1.7h-6V326.4z"/>
	<path fill="#F3F3F3" stroke="#838383" d="M29.8,328.1c0-0.9,0.8-1.7,1.7-1.7v18.8c-0.9,0-1.7-0.8-1.7-1.7V328.1z"/>
	<path fill="#F3F3F3" stroke="#838383" d="M31.5,345.3v-18.8c0,0,22.3-3.9,22.3,9.4C53.8,349.1,31.5,345.3,31.5,345.3z"/>
	<circle fill="#F3F3F3" stroke="#838383" cx="25.5" cy="335.9" r="1.7"/>
</g>
<g id="moyka">
	<path fill="#F3F3F3" stroke="#838383" d="M26.9,434.4c0-0.5,0.4-0.9,0.9-0.9h18.4c0.5,0,0.9,0.4,0.9,0.9V462c0,0.5-0.4,0.9-0.9,0.9
		H27.8c-0.5,0-0.9-0.4-0.9-0.9V434.4z"/>
	<rect x="29.7" y="433.4" fill="#F3F3F3" stroke="#838383" width="1.8" height="29.5"/>
	<ellipse fill="#F3F3F3" stroke="#838383" cx="39.3" cy="448.7" rx="6" ry="9.7"/>
	<rect x="29.7" y="447.3" fill="#F3F3F3" stroke="#838383" width="7.4" height="1.8"/>
	<circle fill="#F3F3F3" stroke="#838383" cx="40.3" cy="447.7" r="1.4"/>
</g>
<g id="moyka_1_">
	<path fill="#F3F3F3" stroke="#838383" d="M99.7,273.2c0.5,0,0.9,0.4,0.9,0.9v18.4c0,0.5-0.4,0.9-0.9,0.9H72c-0.5,0-0.9-0.4-0.9-0.9
		v-18.4c0-0.5,0.4-0.9,0.9-0.9H99.7z"/>
	<rect x="71.1" y="276" fill="#F3F3F3" stroke="#838383" width="29.5" height="1.8"/>
	<ellipse fill="#F3F3F3" stroke="#838383" cx="85.4" cy="285.7" rx="9.7" ry="6"/>
	<rect x="84.9" y="276" fill="#F3F3F3" stroke="#838383" width="1.8" height="7.4"/>
	<circle fill="#F3F3F3" stroke="#838383" cx="86.3" cy="286.6" r="1.4"/>
</g>
<g id="stirka">
	<rect x="78.9" y="359.4" fill="#F3F3F3" stroke="#838383" width="26.3" height="26.3"/>
	<path fill="#F3F3F3" stroke="#838383" d="M102.5,383.9c-1,0-1.8-0.8-1.8-1.8v-6.1c0-1,0.8-1.8,1.8-1.8h2.6v9.6H102.5z"/>
	<circle fill="#F3F3F3" stroke="#838383" cx="91.1" cy="372.6" r="7"/>
	<circle fill="#F3F3F3" stroke="#838383" cx="91.1" cy="372.6" r="5.3"/>
	<circle fill="#F3F3F3" stroke="#838383" cx="100.7" cy="363.8" r="1.8"/>
</g>
<g id="moyka_2">
	<path fill="#F3F3F3" stroke="#838383" d="M41.1,233.8c0.8,0,1.4,0.6,1.4,1.4v20.8c0,0.8-0.6,1.4-1.4,1.4H23.8
		c-0.8,0-1.4-0.6-1.4-1.4v-20.8c0-0.8,0.6-1.4,1.4-1.4H41.1z"/>
	<path fill="#F3F3F3" stroke="#838383" d="M39.6,235.2c0.8,0,1.4,0.6,1.4,1.4v18c0,0.8-0.6,1.4-1.4,1.4H27.4c-0.8,0-1.4-0.6-1.4-1.4
		v-18c0-0.8,0.6-1.4,1.4-1.4H39.6z"/>
	<rect x="24.5" y="244.6" fill="#F3F3F3" stroke="#838383" width="5.7" height="1.4"/>
	<circle fill="#F3F3F3" stroke="#838383" cx="34.2" cy="245.7" r="1.1"/>
</g>
<g id="plita">
	<rect x="22.8" y="189.1" fill="#F3F3F3" stroke="#838383" width="25.1" height="25.9"/>
	<circle fill="#F3F3F3" stroke="#838383" cx="40.7" cy="195.6" r="4.3"/>
	<circle fill="#F3F3F3" stroke="#838383" cx="29.9" cy="206.4" r="4.3"/>
	<circle fill="#F3F3F3" stroke="#838383" cx="29.9" cy="195.6" r="3.6"/>
	<circle fill="#F3F3F3" stroke="#838383" cx="40.7" cy="206.4" r="3.6"/>
</g>
<g id="vanna">
	<rect x="26.9" y="470.9" fill="#F3F3F3" stroke="#838383" width="78.9" height="30.9"/>
	<path fill="#F3F3F3" stroke="#838383" d="M100.9,491.2c0,4.5-3.6,8.1-8.1,8.1H38.3v-26h54.5c4.5,0,8.1,3.6,8.1,8.1V491.2z"/>
	<path fill="#F3F3F3" stroke="#838383" d="M37.1,485.5V479h-2.8v11"/>
	<path id="Union" fill="#F3F3F3" stroke="#838383" d="M33.4,491.3c-0.9,0.3-1.6,1.2-1.6,2.3c0,1.3,1.1,2.4,2.4,2.4
		c1.3,0,2.4-1.1,2.4-2.4c0-1.1-0.7-2-1.6-2.3v-1c0-0.4-0.4-0.8-0.8-0.8c-0.4,0-0.8,0.4-0.8,0.8V491.3z"/>
	<rect x="35.9" y="485.5" fill="#F3F3F3" stroke="#838383" width="6.5" height="1.6"/>
</g>
<rect x="123.9" y="5.5" fill="#838383" stroke="#000000" stroke-miterlimit="10" width="55.7" height="7"/>
<rect x="126.8" y="12.5" fill="#838383" stroke="#000000" stroke-miterlimit="10" width="35.4" height="11.2"/>
<rect x="162.2" y="12.5" fill="#838383" stroke="#000000" stroke-miterlimit="10" width="11.1" height="170.9"/>
<rect x="173.3" y="12.5" fill="#838383" stroke="#000000" stroke-miterlimit="10" width="6.3" height="69"/>
<rect x="179.6" y="74.1" fill="#838383" stroke="#000000" stroke-miterlimit="10" width="14.7" height="7.4"/>
<rect x="173.3" y="81.5" fill="#838383" stroke="#000000" stroke-miterlimit="10" width="18.3" height="11.1"/>
<rect x="5.6" y="5.5" fill="#838383" stroke="#000000" stroke-miterlimit="10" width="52.4" height="7"/>
<rect x="22.3" y="12.5" fill="#838383" stroke="#000000" stroke-miterlimit="10" width="33.1" height="11.2"/>
<rect x="5.6" y="12.5" fill="#838383" stroke="#000000" stroke-miterlimit="10" width="16.7" height="776.3"/>
<rect x="5.6" y="788.8" fill="#838383" stroke="#000000" stroke-miterlimit="10" width="23.2" height="6.7"/>
<rect x="22.3" y="730.8" fill="#838383" stroke="#000000" stroke-miterlimit="10" width="61.3" height="7.3"/>
<rect x="22.3" y="719.8" fill="#838383" stroke="#000000" stroke-miterlimit="10" width="59.4" height="11"/>
<rect x="22.3" y="738.1" fill="#838383" stroke="#000000" stroke-miterlimit="10" width="6.6" height="50.7"/>
<rect x="154.7" y="719.8" fill="#838383" stroke="#000000" stroke-miterlimit="10" width="7.3" height="11"/>
<rect x="152.5" y="730.8" fill="#838383" stroke="#000000" stroke-miterlimit="10" width="9.5" height="7.3"/>
<rect x="154.7" y="738.1" fill="#838383" stroke="#000000" stroke-miterlimit="10" width="7.3" height="50.7"/>
<rect x="154.7" y="788.8" fill="#838383" stroke="#000000" stroke-miterlimit="10" width="18.9" height="6.7"/>
<rect x="162" y="719.8" fill="#838383" stroke="#000000" stroke-miterlimit="10" width="11.6" height="69"/>
<rect x="159.4" y="330.1" fill="#838383" stroke="#000000" stroke-miterlimit="10" width="14.2" height="389.7"/>
<rect x="340.6" y="5.5" fill="#838383" stroke="#000000" stroke-miterlimit="10" width="17.6" height="7"/>
<rect x="347.3" y="12.5" fill="#838383" stroke="#000000" stroke-miterlimit="10" width="10.8" height="80.1"/>
<rect x="274.3" y="81.5" fill="#838383" stroke="#000000" stroke-miterlimit="10" width="73" height="11.1"/>
<rect x="272.2" y="74.1" fill="#838383" stroke="#000000" stroke-miterlimit="10" width="75.2" height="7.4"/>
<rect x="340.6" y="12.5" fill="#838383" stroke="#000000" stroke-miterlimit="10" width="6.7" height="61.5"/>
<rect x="347.3" y="92.6" fill="#838383" stroke="#000000" stroke-miterlimit="10" width="13.4" height="251.7"/>
<rect x="219.5" y="330.1" fill="#838383" stroke="#000000" stroke-miterlimit="10" width="127.9" height="14.2"/>
<rect x="223.4" y="261.4" fill="#C6C6C6" stroke="#000000" stroke-miterlimit="10" width="123.9" height="4.5"/>
<rect x="159.4" y="261.4" fill="#C6C6C6" stroke="#000000" stroke-miterlimit="10" width="23.4" height="4.5"/>
<rect x="22.3" y="261.4" fill="#C6C6C6" stroke="#000000" stroke-miterlimit="10" width="96.2" height="4.5"/>
<rect x="168.7" y="183.5" fill="#C6C6C6" stroke="#000000" stroke-miterlimit="10" width="4.5" height="77.9"/>
<rect x="106" y="265.9" fill="#C6C6C6" stroke="#000000" stroke-miterlimit="10" width="3.9" height="34.8"/>
<rect x="22.3" y="268.7" fill="#C6C6C6" stroke="#000000" stroke-miterlimit="10" width="83.8" height="3.9"/>
<rect x="106" y="337.2" fill="#C6C6C6" stroke="#000000" stroke-miterlimit="10" width="3.9" height="59.3"/>
<rect x="22.3" y="354.2" fill="#C6C6C6" stroke="#000000" stroke-miterlimit="10" width="83.6" height="3.9"/>
<rect x="59.8" y="358.1" fill="#C6C6C6" stroke="#000000" stroke-miterlimit="10" width="3.9" height="24.1"/>
<rect x="22.3" y="508.4" fill="#C6C6C6" stroke="#000000" stroke-miterlimit="10" width="91.3" height="4.5"/>
<rect x="106" y="433.2" fill="#C6C6C6" stroke="#000000" stroke-miterlimit="10" width="3.9" height="75.2"/>
<rect x="22.3" y="501.5" fill="#C6C6C6" stroke="#000000" stroke-miterlimit="10" width="83.6" height="3.9"/>
<rect x="22.3" y="358.1" fill="#C6C6C6" stroke="#000000" stroke-miterlimit="10" width="3.9" height="143.4"/>
<rect x="39.7" y="378.2" fill="#C6C6C6" stroke="#000000" stroke-miterlimit="10" width="20.1" height="3.9"/>
<rect x="155.1" y="508.4" fill="#C6C6C6" stroke="#000000" stroke-miterlimit="10" width="4.4" height="4.5"/>
<rect x="26.1" y="380.2" fill="#C6C6C6" stroke="#000000" stroke-miterlimit="10" width="13.6" height="1.9"/>
<g>
	<path d="M106.1,40.4h-1.5v2.9H104v-6.4h0.7v2.9h1.5l2.2-2.9h0.7l-2.4,3.1l2.5,3.3h-0.8L106.1,40.4z"/>
	<path d="M114.2,38.5l-2.4,5.4c-0.2,0.5-0.4,0.8-0.7,1c-0.3,0.2-0.6,0.3-0.9,0.3c-0.2,0-0.4,0-0.7-0.1s-0.4-0.2-0.5-0.3l0.3-0.5
		c0.2,0.2,0.5,0.4,0.9,0.4c0.2,0,0.4-0.1,0.6-0.2s0.3-0.3,0.4-0.6l0.2-0.5l-2.2-4.8h0.7l1.8,4.1l1.8-4.1H114.2z"/>
	<path d="M117.9,43.3l-1.5-2l-1.5,2h-0.7l1.9-2.5l-1.8-2.3h0.7l1.4,1.9l1.4-1.9h0.7l-1.8,2.3l1.9,2.5H117.9z"/>
	<path d="M119.7,38.5h0.7v2.1h3v-2.1h0.7v4.8h-0.7v-2.1h-3v2.1h-0.7V38.5z"/>
	<path d="M129.6,38.5v4.8H129v-1.6h-1.5h-0.2l-1.1,1.6h-0.7l1.2-1.7c-0.4-0.1-0.7-0.3-0.9-0.5c-0.2-0.3-0.3-0.6-0.3-1
		c0-0.5,0.2-0.9,0.6-1.2c0.4-0.3,0.9-0.4,1.5-0.4H129.6z M127.6,41.2h1.5V39h-1.4c-0.9,0-1.4,0.4-1.4,1.1
		C126.2,40.9,126.7,41.2,127.6,41.2z"/>
	<path d="M131.1,40.5h2.4v0.6h-2.4V40.5z"/>
	<path d="M104.6,54c-0.4-0.2-0.7-0.5-0.9-0.9c-0.2-0.4-0.3-0.8-0.3-1.3c0-0.5,0.1-0.9,0.3-1.3c0.2-0.4,0.5-0.7,0.9-0.9
		c0.4-0.2,0.8-0.3,1.3-0.3c0.4,0,0.8,0.1,1.1,0.2c0.3,0.2,0.6,0.4,0.8,0.7l-0.5,0.3c-0.2-0.2-0.4-0.4-0.6-0.5
		c-0.2-0.1-0.5-0.2-0.8-0.2c-0.3,0-0.7,0.1-0.9,0.2c-0.3,0.2-0.5,0.4-0.7,0.7s-0.2,0.6-0.2,1c0,0.4,0.1,0.7,0.2,1s0.4,0.5,0.7,0.7
		c0.3,0.2,0.6,0.2,0.9,0.2c0.3,0,0.6-0.1,0.8-0.2c0.2-0.1,0.4-0.3,0.6-0.5l0.5,0.3c-0.2,0.3-0.4,0.5-0.8,0.7
		c-0.3,0.2-0.7,0.2-1.1,0.2C105.4,54.3,105,54.2,104.6,54z"/>
	<path d="M112.3,50h-1.8v4.2h-0.7V50H108v-0.6h4.3V50z"/>
	<path d="M113.8,54c-0.4-0.2-0.7-0.5-0.9-0.9c-0.2-0.4-0.3-0.8-0.3-1.3c0-0.5,0.1-0.9,0.3-1.3c0.2-0.4,0.5-0.7,0.9-0.9
		c0.4-0.2,0.8-0.3,1.3-0.3s0.9,0.1,1.3,0.3c0.4,0.2,0.7,0.5,0.9,0.9c0.2,0.4,0.3,0.8,0.3,1.3c0,0.5-0.1,0.9-0.3,1.3
		c-0.2,0.4-0.5,0.7-0.9,0.9c-0.4,0.2-0.8,0.3-1.3,0.3S114.1,54.2,113.8,54z M116,53.5c0.3-0.2,0.5-0.4,0.6-0.7s0.2-0.6,0.2-1
		s-0.1-0.7-0.2-1s-0.4-0.5-0.6-0.7c-0.3-0.2-0.6-0.2-0.9-0.2s-0.6,0.1-0.9,0.2c-0.3,0.2-0.5,0.4-0.6,0.7s-0.2,0.6-0.2,1
		s0.1,0.7,0.2,1s0.4,0.5,0.6,0.7c0.3,0.2,0.6,0.2,0.9,0.2S115.7,53.7,116,53.5z"/>
	<path d="M122.8,49.5v4.8h-0.7V50h-2.3l-0.1,1.2c0,1-0.2,1.8-0.3,2.3c-0.2,0.5-0.5,0.8-1,0.8c-0.1,0-0.3,0-0.5-0.1l0-0.6
		c0.1,0,0.2,0,0.2,0c0.3,0,0.4-0.1,0.6-0.3c0.1-0.2,0.2-0.5,0.3-0.9c0-0.3,0.1-0.8,0.1-1.4l0.1-1.7H122.8z"/>
	<path d="M125.4,54c-0.4-0.2-0.7-0.5-0.9-0.9c-0.2-0.4-0.3-0.8-0.3-1.3c0-0.5,0.1-0.9,0.3-1.3c0.2-0.4,0.5-0.7,0.9-0.9
		c0.4-0.2,0.8-0.3,1.3-0.3s0.9,0.1,1.3,0.3c0.4,0.2,0.7,0.5,0.9,0.9c0.2,0.4,0.3,0.8,0.3,1.3c0,0.5-0.1,0.9-0.3,1.3
		c-0.2,0.4-0.5,0.7-0.9,0.9c-0.4,0.2-0.8,0.3-1.3,0.3S125.7,54.2,125.4,54z M127.5,53.5c0.3-0.2,0.5-0.4,0.6-0.7s0.2-0.6,0.2-1
		s-0.1-0.7-0.2-1s-0.4-0.5-0.6-0.7c-0.3-0.2-0.6-0.2-0.9-0.2s-0.6,0.1-0.9,0.2c-0.3,0.2-0.5,0.4-0.6,0.7s-0.2,0.6-0.2,1
		s0.1,0.7,0.2,1s0.4,0.5,0.6,0.7c0.3,0.2,0.6,0.2,0.9,0.2S127.3,53.7,127.5,53.5z"/>
	<path d="M134.5,53c0,0.4-0.2,0.7-0.5,1c-0.3,0.2-0.8,0.3-1.4,0.3h-2.2v-4.8h2.1c0.5,0,1,0.1,1.3,0.3c0.3,0.2,0.5,0.5,0.5,0.9
		c0,0.3-0.1,0.5-0.2,0.7c-0.1,0.2-0.3,0.3-0.6,0.4C134.2,52,134.5,52.3,134.5,53z M131.1,51.6h1.4c0.4,0,0.7-0.1,0.9-0.2
		s0.3-0.3,0.3-0.6c0-0.3-0.1-0.5-0.3-0.6c-0.2-0.1-0.5-0.2-0.9-0.2h-1.4V51.6z M133.6,53.6c0.2-0.1,0.3-0.3,0.3-0.6
		s-0.1-0.5-0.3-0.6s-0.5-0.2-0.9-0.2h-1.6v1.7h1.5C133,53.8,133.4,53.7,133.6,53.6z"/>
	<path d="M139.1,49.9c0.3,0.3,0.5,0.8,0.5,1.4v3H139v-0.8c-0.1,0.3-0.4,0.4-0.6,0.6s-0.6,0.2-1,0.2c-0.5,0-1-0.1-1.3-0.4
		c-0.3-0.3-0.5-0.6-0.5-1c0-0.4,0.1-0.7,0.4-1s0.8-0.4,1.4-0.4h1.5v-0.3c0-0.4-0.1-0.7-0.3-0.9c-0.2-0.2-0.6-0.3-1-0.3
		c-0.3,0-0.6,0.1-0.9,0.2c-0.3,0.1-0.5,0.2-0.7,0.4l-0.3-0.5c0.2-0.2,0.5-0.4,0.9-0.5c0.3-0.1,0.7-0.2,1.1-0.2
		C138.3,49.4,138.8,49.6,139.1,49.9z M138.4,53.6c0.3-0.2,0.5-0.4,0.6-0.7v-0.8h-1.5c-0.8,0-1.2,0.3-1.2,0.9c0,0.3,0.1,0.5,0.3,0.7
		c0.2,0.2,0.5,0.2,0.9,0.2C137.8,53.8,138.1,53.7,138.4,53.6z"/>
	<path d="M145.1,49.5v4.8h-0.6v-1.6H143h-0.2l-1.1,1.6H141l1.2-1.7c-0.4-0.1-0.7-0.3-0.9-0.5c-0.2-0.3-0.3-0.6-0.3-1
		c0-0.5,0.2-0.9,0.6-1.2c0.4-0.3,0.9-0.4,1.5-0.4H145.1z M143,52.2h1.5V50h-1.4c-0.9,0-1.4,0.4-1.4,1.1
		C141.7,51.9,142.1,52.2,143,52.2z"/>
	<path d="M106,60v8h-1.1v-7H103v-1H106z"/>
	<path d="M112.6,63.5c0.4,0.2,0.7,0.5,1,0.9s0.4,0.8,0.4,1.3c0,0.5-0.1,0.9-0.4,1.3s-0.6,0.7-1,0.9c-0.4,0.2-0.9,0.3-1.4,0.3
		c-1.1,0-1.9-0.3-2.5-1c-0.6-0.7-0.9-1.7-0.9-3c0-0.9,0.2-1.7,0.5-2.3c0.3-0.6,0.8-1.1,1.3-1.4c0.6-0.3,1.2-0.5,2-0.5
		c0.4,0,0.8,0,1.1,0.1s0.6,0.2,0.9,0.3l-0.4,0.9c-0.4-0.3-0.9-0.4-1.5-0.4c-0.8,0-1.5,0.3-2,0.8s-0.7,1.3-0.7,2.3c0,0.1,0,0.2,0,0.3
		c0.2-0.3,0.5-0.6,0.9-0.8c0.4-0.2,0.9-0.3,1.4-0.3C111.7,63.2,112.2,63.3,112.6,63.5z M112.3,66.8c0.3-0.3,0.5-0.7,0.5-1.1
		s-0.2-0.8-0.5-1.1s-0.8-0.4-1.3-0.4c-0.4,0-0.7,0.1-1,0.2c-0.3,0.1-0.5,0.3-0.7,0.6c-0.2,0.2-0.2,0.5-0.2,0.8
		c0,0.3,0.1,0.5,0.2,0.8c0.1,0.2,0.4,0.4,0.7,0.6c0.3,0.1,0.6,0.2,1,0.2C111.6,67.2,112,67.1,112.3,66.8z"/>
	<path d="M116.2,66.8c0.1,0.1,0.2,0.3,0.2,0.6c0,0.1,0,0.2,0,0.3s-0.1,0.3-0.2,0.5l-0.5,1.6H115l0.4-1.7c-0.1-0.1-0.3-0.1-0.3-0.3
		s-0.1-0.3-0.1-0.4c0-0.2,0.1-0.4,0.2-0.6s0.3-0.2,0.5-0.2C115.9,66.5,116.1,66.6,116.2,66.8z"/>
	<path d="M119,67.6c-0.5-0.3-0.9-0.8-1.2-1.4c-0.3-0.6-0.4-1.4-0.4-2.2c0-0.8,0.1-1.6,0.4-2.2c0.3-0.6,0.7-1.1,1.2-1.4
		s1.1-0.5,1.7-0.5c0.6,0,1.2,0.2,1.7,0.5s0.9,0.8,1.2,1.4s0.4,1.4,0.4,2.2c0,0.8-0.1,1.6-0.4,2.2s-0.7,1.1-1.2,1.4
		c-0.5,0.3-1.1,0.5-1.7,0.5C120,68.1,119.4,68,119,67.6z M122.2,66.3c0.4-0.5,0.6-1.3,0.6-2.3s-0.2-1.8-0.6-2.3s-0.9-0.8-1.5-0.8
		c-0.6,0-1.2,0.3-1.6,0.8c-0.4,0.5-0.6,1.3-0.6,2.3s0.2,1.8,0.6,2.3c0.4,0.5,0.9,0.8,1.6,0.8C121.3,67.1,121.8,66.8,122.2,66.3z"/>
</g>
<g>
	<path d="M215,210.3c-0.5-0.3-0.9-0.7-1.2-1.2c-0.3-0.5-0.4-1.1-0.4-1.7s0.1-1.2,0.4-1.7c0.3-0.5,0.7-0.9,1.2-1.2
		c0.5-0.3,1.1-0.4,1.7-0.4c0.5,0,0.9,0.1,1.3,0.2c0.4,0.2,0.7,0.4,1,0.7l-0.4,0.4c-0.5-0.5-1.1-0.8-1.9-0.8c-0.5,0-1,0.1-1.4,0.3
		s-0.7,0.5-1,1c-0.2,0.4-0.4,0.9-0.4,1.4s0.1,1,0.4,1.4c0.2,0.4,0.6,0.7,1,1c0.4,0.2,0.9,0.3,1.4,0.3c0.8,0,1.4-0.3,1.9-0.8l0.4,0.4
		c-0.3,0.3-0.6,0.5-1,0.7c-0.4,0.2-0.8,0.2-1.3,0.2C216.1,210.7,215.5,210.6,215,210.3z"/>
	<path d="M224.7,205.9v4.8H224v-4.2h-3v4.2h-0.7v-4.8H224.7z"/>
	<path d="M229.6,206.3c0.3,0.3,0.5,0.8,0.5,1.4v3h-0.6v-0.8c-0.1,0.3-0.4,0.4-0.6,0.6s-0.6,0.2-1,0.2c-0.5,0-1-0.1-1.3-0.4
		c-0.3-0.3-0.5-0.6-0.5-1c0-0.4,0.1-0.7,0.4-1s0.8-0.4,1.4-0.4h1.5v-0.3c0-0.4-0.1-0.7-0.3-0.9c-0.2-0.2-0.6-0.3-1-0.3
		c-0.3,0-0.6,0.1-0.9,0.2c-0.3,0.1-0.5,0.2-0.7,0.4l-0.3-0.5c0.2-0.2,0.5-0.4,0.9-0.5c0.3-0.1,0.7-0.2,1.1-0.2
		C228.8,205.8,229.3,206,229.6,206.3z M228.9,210c0.3-0.2,0.5-0.4,0.6-0.7v-0.8H228c-0.8,0-1.2,0.3-1.2,0.9c0,0.3,0.1,0.5,0.3,0.7
		c0.2,0.2,0.5,0.2,0.9,0.2C228.3,210.2,228.6,210.1,228.9,210z"/>
	<path d="M235.8,205.9v4.8h-0.7v-4.2h-2.3l-0.1,1.2c0,1-0.2,1.8-0.3,2.3c-0.2,0.5-0.5,0.8-1,0.8c-0.1,0-0.3,0-0.5-0.1l0-0.6
		c0.1,0,0.2,0,0.2,0c0.3,0,0.4-0.1,0.6-0.3c0.1-0.2,0.2-0.5,0.3-0.9c0-0.3,0.1-0.8,0.1-1.4l0.1-1.7H235.8z"/>
	<path d="M241.1,208c0.3,0.3,0.5,0.6,0.5,1.1c0,0.5-0.2,0.9-0.5,1.2s-0.8,0.4-1.5,0.4l-1.9,0v-4.8h0.7v1.7l1.4,0
		C240.3,207.6,240.8,207.7,241.1,208z M240.6,209.9c0.2-0.2,0.3-0.5,0.3-0.8c0-0.4-0.1-0.6-0.3-0.8c-0.2-0.2-0.6-0.3-1-0.3l-1.3,0
		v2.1l1.3,0C240,210.2,240.4,210.1,240.6,209.9z"/>
	<path d="M242.8,205.9h0.7v2.1h3v-2.1h0.7v4.8h-0.7v-2.1h-3v2.1h-0.7V205.9z"/>
	<path d="M252.7,205.9v4.8h-0.6v-1.6h-1.5h-0.2l-1.1,1.6h-0.7l1.2-1.7c-0.4-0.1-0.7-0.3-0.9-0.5c-0.2-0.3-0.3-0.6-0.3-1
		c0-0.5,0.2-0.9,0.5-1.2c0.4-0.3,0.9-0.4,1.5-0.4H252.7z M250.7,208.6h1.5v-2.2h-1.4c-0.9,0-1.4,0.4-1.4,1.1
		C249.3,208.3,249.8,208.6,250.7,208.6z"/>
	<path d="M215.9,216.4v8h-1.1v-7H213v-1H215.9z"/>
	<path d="M224.6,222.5h-1.5v2H222v-2h-4.5v-0.8l4.1-5.2h1.2l-3.9,5.1h3.1v-1.7h1.1v1.7h1.5V222.5z"/>
	<path d="M226.9,223.2c0.1,0.1,0.2,0.3,0.2,0.6c0,0.1,0,0.2,0,0.3s-0.1,0.3-0.2,0.5l-0.5,1.6h-0.7l0.4-1.7c-0.1-0.1-0.3-0.1-0.3-0.3
		s-0.1-0.3-0.1-0.4c0-0.2,0.1-0.4,0.2-0.6s0.3-0.2,0.5-0.2C226.5,222.9,226.7,223,226.9,223.2z"/>
	<path d="M229.6,224c-0.5-0.3-0.9-0.8-1.2-1.4c-0.3-0.6-0.4-1.4-0.4-2.2c0-0.8,0.1-1.6,0.4-2.2c0.3-0.6,0.7-1.1,1.2-1.4
		s1.1-0.5,1.7-0.5c0.6,0,1.2,0.2,1.7,0.5c0.5,0.3,0.9,0.8,1.2,1.4s0.4,1.4,0.4,2.2c0,0.8-0.1,1.6-0.4,2.2s-0.7,1.1-1.2,1.4
		c-0.5,0.3-1.1,0.5-1.7,0.5C230.7,224.5,230.1,224.4,229.6,224z M232.8,222.7c0.4-0.5,0.6-1.3,0.6-2.3s-0.2-1.8-0.6-2.3
		c-0.4-0.5-0.9-0.8-1.5-0.8c-0.6,0-1.2,0.3-1.6,0.8c-0.4,0.5-0.6,1.3-0.6,2.3s0.2,1.8,0.6,2.3c0.4,0.5,0.9,0.8,1.6,0.8
		C231.9,223.5,232.4,223.2,232.8,222.7z"/>
</g>
<g>
	<path d="M96.8,563.2c-0.5-0.3-0.9-0.7-1.2-1.2c-0.3-0.5-0.4-1.1-0.4-1.7s0.1-1.2,0.4-1.7c0.3-0.5,0.7-0.9,1.2-1.2
		c0.5-0.3,1.1-0.4,1.7-0.4c0.5,0,0.9,0.1,1.3,0.2s0.7,0.4,1,0.7l-0.4,0.4c-0.5-0.5-1.1-0.8-1.9-0.8c-0.5,0-1,0.1-1.4,0.3
		s-0.7,0.5-1,1c-0.2,0.4-0.4,0.9-0.4,1.4s0.1,1,0.4,1.4c0.2,0.4,0.6,0.7,1,1s0.9,0.3,1.4,0.3c0.8,0,1.4-0.3,1.9-0.8l0.4,0.4
		c-0.3,0.3-0.6,0.5-1,0.7c-0.4,0.2-0.8,0.2-1.3,0.2C97.9,563.6,97.4,563.4,96.8,563.2z"/>
	<path d="M106.5,558.7v4.8h-0.7v-4.2h-3v4.2h-0.7v-4.8H106.5z"/>
	<path d="M111.5,559.1c0.3,0.3,0.5,0.8,0.5,1.4v3h-0.6v-0.8c-0.1,0.3-0.4,0.4-0.6,0.6s-0.6,0.2-1,0.2c-0.5,0-1-0.1-1.3-0.4
		c-0.3-0.3-0.5-0.6-0.5-1c0-0.4,0.1-0.7,0.4-1c0.3-0.3,0.8-0.4,1.4-0.4h1.5v-0.3c0-0.4-0.1-0.7-0.3-0.9c-0.2-0.2-0.6-0.3-1-0.3
		c-0.3,0-0.6,0-0.9,0.2c-0.3,0.1-0.5,0.2-0.7,0.4l-0.3-0.5c0.2-0.2,0.5-0.4,0.9-0.5c0.3-0.1,0.7-0.2,1.1-0.2
		C110.6,558.7,111.1,558.8,111.5,559.1z M110.7,562.8c0.3-0.2,0.5-0.4,0.6-0.7v-0.8h-1.5c-0.8,0-1.2,0.3-1.2,0.9
		c0,0.3,0.1,0.5,0.3,0.7c0.2,0.2,0.5,0.2,0.9,0.2C110.1,563.1,110.5,563,110.7,562.8z"/>
	<path d="M117.6,558.7v4.8H117v-4.2h-2.3l-0.1,1.2c0,1-0.2,1.8-0.3,2.3c-0.2,0.5-0.5,0.8-1,0.8c-0.1,0-0.3,0-0.5-0.1l0-0.6
		c0.1,0,0.2,0,0.2,0c0.3,0,0.4-0.1,0.6-0.3s0.2-0.5,0.3-0.9c0-0.3,0.1-0.8,0.1-1.4l0.1-1.7H117.6z"/>
	<path d="M122.9,560.8c0.3,0.3,0.5,0.6,0.5,1.1c0,0.5-0.2,0.9-0.5,1.2c-0.3,0.3-0.8,0.4-1.5,0.4l-1.9,0v-4.8h0.7v1.7l1.4,0
		C122.2,560.4,122.6,560.6,122.9,560.8z M122.4,562.8c0.2-0.2,0.3-0.5,0.3-0.8c0-0.4-0.1-0.6-0.3-0.8c-0.2-0.2-0.6-0.3-1-0.3l-1.3,0
		v2.1l1.3,0C121.8,563.1,122.2,563,122.4,562.8z"/>
	<path d="M124.6,558.7h0.7v2.1h3v-2.1h0.7v4.8h-0.7v-2.1h-3v2.1h-0.7V558.7z"/>
	<path d="M134.5,558.7v4.8h-0.6v-1.6h-1.5h-0.2l-1.1,1.6h-0.7l1.2-1.7c-0.4-0.1-0.7-0.3-0.9-0.5c-0.2-0.3-0.3-0.6-0.3-1
		c0-0.5,0.2-0.9,0.6-1.2c0.4-0.3,0.9-0.4,1.5-0.4H134.5z M132.5,561.4h1.5v-2.2h-1.4c-0.9,0-1.4,0.4-1.4,1.1
		C131.1,561.1,131.6,561.4,132.5,561.4z"/>
	<path d="M97.7,569.3v8h-1.1v-7h-1.8v-1H97.7z"/>
	<path d="M104.3,573.4c0.4,0.4,0.6,0.9,0.6,1.6c0,0.5-0.1,0.9-0.3,1.2c-0.2,0.4-0.6,0.7-1,0.9c-0.5,0.2-1,0.3-1.7,0.3
		c-0.6,0-1.1-0.1-1.6-0.3c-0.5-0.2-1-0.4-1.3-0.7l0.5-0.9c0.3,0.3,0.6,0.5,1.1,0.6c0.4,0.2,0.9,0.2,1.4,0.2c0.6,0,1.1-0.1,1.4-0.4
		c0.3-0.3,0.5-0.6,0.5-1s-0.2-0.8-0.5-1s-0.8-0.4-1.5-0.4h-0.6v-0.8l2-2.5h-3.9v-1h5.3v0.8l-2.1,2.6
		C103.3,572.7,103.9,572.9,104.3,573.4z"/>
	<path d="M107.3,576c0.1,0.1,0.2,0.3,0.2,0.6c0,0.1,0,0.2,0,0.3c0,0.1-0.1,0.3-0.2,0.5l-0.5,1.6h-0.7l0.4-1.7
		c-0.1-0.1-0.3-0.1-0.3-0.3s-0.1-0.3-0.1-0.4c0-0.2,0.1-0.4,0.2-0.6c0.1-0.1,0.3-0.2,0.5-0.2C107,575.8,107.2,575.9,107.3,576z"/>
	<path d="M114.4,576.3v1h-5.8v-0.8l3.3-3.2c0.4-0.4,0.7-0.7,0.8-1c0.1-0.3,0.2-0.6,0.2-0.8c0-0.4-0.1-0.7-0.4-1
		c-0.3-0.2-0.7-0.3-1.3-0.3c-0.9,0-1.6,0.3-2.1,0.9l-0.8-0.7c0.3-0.4,0.7-0.7,1.2-0.9c0.5-0.2,1.1-0.3,1.7-0.3c0.8,0,1.5,0.2,2,0.6
		c0.5,0.4,0.7,0.9,0.7,1.6c0,0.4-0.1,0.8-0.3,1.2c-0.2,0.4-0.5,0.8-1,1.3l-2.5,2.4H114.4z"/>
</g>
<g>
	<path d="M254,306.6v0.8l-3.2,7.2h-1.2l3.2-7h-3.7v1.4H248v-2.4H254z"/>
	<path d="M255.7,313.4c0.1,0.1,0.2,0.3,0.2,0.6c0,0.1,0,0.2,0,0.3s-0.1,0.3-0.2,0.5l-0.5,1.6h-0.7l0.4-1.7c-0.1-0.1-0.3-0.1-0.3-0.3
		s-0.1-0.3-0.1-0.4c0-0.2,0.1-0.4,0.2-0.6s0.3-0.2,0.5-0.2C255.4,313.1,255.6,313.2,255.7,313.4z"/>
	<path d="M258.5,314.2c-0.5-0.3-0.9-0.8-1.2-1.4c-0.3-0.6-0.4-1.4-0.4-2.2c0-0.8,0.1-1.6,0.4-2.2c0.3-0.6,0.7-1.1,1.2-1.4
		s1.1-0.5,1.7-0.5c0.6,0,1.2,0.2,1.7,0.5s0.9,0.8,1.2,1.4s0.4,1.4,0.4,2.2c0,0.8-0.1,1.6-0.4,2.2s-0.7,1.1-1.2,1.4
		c-0.5,0.3-1.1,0.5-1.7,0.5C259.5,314.7,259,314.6,258.5,314.2z M261.7,312.9c0.4-0.5,0.6-1.3,0.6-2.3s-0.2-1.8-0.6-2.3
		s-0.9-0.8-1.5-0.8c-0.6,0-1.2,0.3-1.6,0.8c-0.4,0.5-0.6,1.3-0.6,2.3s0.2,1.8,0.6,2.3c0.4,0.5,0.9,0.8,1.6,0.8
		C260.8,313.7,261.3,313.4,261.7,312.9z"/>
</g>
<g>
	<path d="M134.8,459.2h-1.5v2h-1.1v-2h-4.5v-0.8l4.1-5.2h1.2l-3.9,5.1h3.1v-1.7h1.1v1.7h1.5V459.2z"/>
	<path d="M137,459.9c0.1,0.1,0.2,0.3,0.2,0.6c0,0.1,0,0.2,0,0.3c0,0.1-0.1,0.3-0.2,0.5l-0.5,1.6h-0.7l0.4-1.7
		c-0.1-0.1-0.3-0.1-0.3-0.3s-0.1-0.3-0.1-0.4c0-0.2,0.1-0.4,0.2-0.6c0.1-0.1,0.3-0.2,0.5-0.2C136.7,459.7,136.9,459.8,137,459.9z"/>
	<path d="M139.7,460.8c-0.5-0.3-0.9-0.8-1.2-1.4c-0.3-0.6-0.4-1.4-0.4-2.2s0.1-1.6,0.4-2.2c0.3-0.6,0.7-1.1,1.2-1.4
		c0.5-0.3,1.1-0.5,1.7-0.5c0.6,0,1.2,0.2,1.7,0.5c0.5,0.3,0.9,0.8,1.2,1.4c0.3,0.6,0.4,1.4,0.4,2.2s-0.1,1.6-0.4,2.2
		c-0.3,0.6-0.7,1.1-1.2,1.4c-0.5,0.3-1.1,0.5-1.7,0.5C140.8,461.3,140.2,461.1,139.7,460.8z M143,459.5c0.4-0.5,0.6-1.3,0.6-2.3
		s-0.2-1.8-0.6-2.3c-0.4-0.5-0.9-0.8-1.5-0.8c-0.6,0-1.2,0.3-1.6,0.8c-0.4,0.5-0.6,1.3-0.6,2.3s0.2,1.8,0.6,2.3
		c0.4,0.5,0.9,0.8,1.6,0.8C142.1,460.3,142.6,460,143,459.5z"/>
</g>
<g>
	<path d="M68.2,426.4c0.5,0.4,0.8,1,0.8,1.8c0,0.5-0.1,0.9-0.3,1.3c-0.2,0.4-0.6,0.7-1,0.9c-0.5,0.2-1,0.3-1.7,0.3
		c-0.6,0-1.1-0.1-1.6-0.3c-0.5-0.2-1-0.4-1.3-0.7l0.5-0.9c0.3,0.3,0.6,0.5,1.1,0.6c0.4,0.2,0.9,0.2,1.4,0.2c0.6,0,1.1-0.1,1.4-0.4
		s0.5-0.6,0.5-1c0-0.5-0.2-0.8-0.6-1.1c-0.4-0.2-1-0.4-1.9-0.4h-1.8l0.4-4.2h4.5v1H65l-0.2,2.2h0.9
		C66.8,425.7,67.7,425.9,68.2,426.4z"/>
	<path d="M71.3,429.3c0.1,0.1,0.2,0.3,0.2,0.6c0,0.1,0,0.2,0,0.3c0,0.1-0.1,0.3-0.2,0.5l-0.5,1.6H70l0.4-1.7
		c-0.1-0.1-0.3-0.1-0.3-0.3S70,430,70,429.8c0-0.2,0.1-0.4,0.2-0.6c0.1-0.1,0.3-0.2,0.5-0.2C71,429,71.1,429.1,71.3,429.3z"/>
	<path d="M74,430.1c-0.5-0.3-0.9-0.8-1.2-1.4c-0.3-0.6-0.4-1.4-0.4-2.2s0.1-1.6,0.4-2.2c0.3-0.6,0.7-1.1,1.2-1.4
		c0.5-0.3,1.1-0.5,1.7-0.5c0.6,0,1.2,0.2,1.7,0.5c0.5,0.3,0.9,0.8,1.2,1.4c0.3,0.6,0.4,1.4,0.4,2.2s-0.1,1.6-0.4,2.2
		c-0.3,0.6-0.7,1.1-1.2,1.4c-0.5,0.3-1.1,0.5-1.7,0.5C75.1,430.6,74.5,430.5,74,430.1z M77.3,428.8c0.4-0.5,0.6-1.3,0.6-2.3
		s-0.2-1.8-0.6-2.3c-0.4-0.5-0.9-0.8-1.5-0.8c-0.6,0-1.2,0.3-1.6,0.8c-0.4,0.5-0.6,1.3-0.6,2.3s0.2,1.8,0.6,2.3
		c0.4,0.5,0.9,0.8,1.6,0.8C76.4,429.6,76.9,429.3,77.3,428.8z"/>
</g>
<g>
	<path d="M102,756.4v1h-5.8v-0.8l3.3-3.2c0.4-0.4,0.7-0.7,0.8-1c0.1-0.3,0.2-0.6,0.2-0.8c0-0.4-0.1-0.7-0.4-1
		c-0.3-0.2-0.7-0.3-1.3-0.3c-0.9,0-1.6,0.3-2.1,0.9l-0.8-0.7c0.3-0.4,0.7-0.7,1.2-0.9c0.5-0.2,1.1-0.3,1.7-0.3c0.8,0,1.5,0.2,2,0.6
		c0.5,0.4,0.7,0.9,0.7,1.6c0,0.4-0.1,0.8-0.3,1.2c-0.2,0.4-0.5,0.8-1,1.3l-2.5,2.4H102z"/>
	<path d="M104.4,756.2c0.1,0.1,0.2,0.3,0.2,0.6c0,0.1,0,0.2,0,0.3c0,0.1-0.1,0.3-0.2,0.5l-0.5,1.6h-0.7l0.4-1.7
		c-0.1-0.1-0.3-0.1-0.3-0.3s-0.1-0.3-0.1-0.4c0-0.2,0.1-0.4,0.2-0.6c0.1-0.1,0.3-0.2,0.5-0.2C104.1,755.9,104.2,756,104.4,756.2z"/>
	<path d="M112.6,755.5H111v2h-1.1v-2h-4.5v-0.8l4.1-5.2h1.2l-3.9,5.1h3.1v-1.7h1.1v1.7h1.5V755.5z"/>
</g>
<g>
	<path d="M72.5,317.4c0.4,0.4,0.6,0.9,0.6,1.6c0,0.5-0.1,0.9-0.3,1.2c-0.2,0.4-0.6,0.7-1,0.9c-0.5,0.2-1,0.3-1.7,0.3
		c-0.6,0-1.1-0.1-1.6-0.3c-0.5-0.2-1-0.4-1.3-0.7l0.5-0.9c0.3,0.3,0.6,0.5,1.1,0.6c0.4,0.2,0.9,0.2,1.4,0.2c0.6,0,1.1-0.1,1.4-0.4
		c0.3-0.3,0.5-0.6,0.5-1s-0.2-0.8-0.5-1c-0.3-0.2-0.8-0.4-1.5-0.4h-0.6v-0.8l2-2.5h-3.9v-1h5.3v0.8l-2.1,2.6
		C71.5,316.7,72.1,317,72.5,317.4z"/>
	<path d="M75.5,320c0.1,0.1,0.2,0.3,0.2,0.6c0,0.1,0,0.2,0,0.3s-0.1,0.3-0.2,0.5l-0.5,1.6h-0.7l0.4-1.7c-0.1-0.1-0.3-0.1-0.3-0.3
		s-0.1-0.3-0.1-0.4c0-0.2,0.1-0.4,0.2-0.6s0.3-0.2,0.5-0.2C75.1,319.8,75.3,319.9,75.5,320z"/>
	<path d="M78.2,320.9c-0.5-0.3-0.9-0.8-1.2-1.4c-0.3-0.6-0.4-1.4-0.4-2.2c0-0.8,0.1-1.6,0.4-2.2c0.3-0.6,0.7-1.1,1.2-1.4
		s1.1-0.5,1.7-0.5c0.6,0,1.2,0.2,1.7,0.5s0.9,0.8,1.2,1.4s0.4,1.4,0.4,2.2c0,0.8-0.1,1.6-0.4,2.2s-0.7,1.1-1.2,1.4
		c-0.5,0.3-1.1,0.5-1.7,0.5C79.3,321.4,78.7,321.2,78.2,320.9z M81.4,319.6c0.4-0.5,0.6-1.3,0.6-2.3s-0.2-1.8-0.6-2.3
		s-0.9-0.8-1.5-0.8c-0.6,0-1.2,0.3-1.6,0.8c-0.4,0.5-0.6,1.3-0.6,2.3s0.2,1.8,0.6,2.3c0.4,0.5,0.9,0.8,1.6,0.8
		C80.5,320.4,81.1,320.1,81.4,319.6z"/>
</g>
<g>
	<path d="M275.3,50.6h-1.5v2h-1.1v-2h-4.5v-0.8l4.1-5.2h1.2l-3.9,5.1h3.1v-1.7h1.1v1.7h1.5V50.6z"/>
	<path d="M277.5,51.3c0.1,0.1,0.2,0.3,0.2,0.6c0,0.1,0,0.2,0,0.3s-0.1,0.3-0.2,0.5l-0.5,1.6h-0.7l0.4-1.7c-0.1-0.1-0.3-0.1-0.3-0.3
		s-0.1-0.3-0.1-0.4c0-0.2,0.1-0.4,0.2-0.6s0.3-0.2,0.5-0.2C277.2,51.1,277.4,51.1,277.5,51.3z"/>
	<path d="M280.3,52.2c-0.5-0.3-0.9-0.8-1.2-1.4c-0.3-0.6-0.4-1.4-0.4-2.2c0-0.8,0.1-1.6,0.4-2.2c0.3-0.6,0.7-1.1,1.2-1.4
		s1.1-0.5,1.7-0.5c0.6,0,1.2,0.2,1.7,0.5s0.9,0.8,1.2,1.4s0.4,1.4,0.4,2.2c0,0.8-0.1,1.6-0.4,2.2s-0.7,1.1-1.2,1.4
		c-0.5,0.3-1.1,0.5-1.7,0.5C281.3,52.7,280.8,52.5,280.3,52.2z M283.5,50.9c0.4-0.5,0.6-1.3,0.6-2.3s-0.2-1.8-0.6-2.3
		s-0.9-0.8-1.5-0.8c-0.6,0-1.2,0.3-1.6,0.8c-0.4,0.5-0.6,1.3-0.6,2.3s0.2,1.8,0.6,2.3c0.4,0.5,0.9,0.8,1.6,0.8
		C282.6,51.6,283.1,51.4,283.5,50.9z"/>
</g>
<g>
	<g>
		
			<rect x="23.3" y="601.3" fill-rule="evenodd" clip-rule="evenodd" fill="#F1F2F2" stroke="#848484" stroke-miterlimit="10" width="91.3" height="70.9"/>
		
			<rect x="27" y="603" fill-rule="evenodd" clip-rule="evenodd" fill="#F1F2F2" stroke="#848484" stroke-miterlimit="10" width="85.1" height="67.6"/>
		
			<rect x="29.2" y="605" fill-rule="evenodd" clip-rule="evenodd" fill="#F1F2F2" stroke="#848484" stroke-miterlimit="10" width="19.2" height="26.3"/>
		
			<rect x="29.2" y="642.2" fill-rule="evenodd" clip-rule="evenodd" fill="#F1F2F2" stroke="#848484" stroke-miterlimit="10" width="19.2" height="26.3"/>
		<polygon fill-rule="evenodd" clip-rule="evenodd" fill="#F1F2F2" stroke="#848484" stroke-miterlimit="10" points="58.2,603 
			46.4,623.2 46.4,650.4 46.4,623.2 46.4,650.4 58.2,670.6 112.1,670.6 112.1,670.6 112.1,603 		"/>
		<polyline fill-rule="evenodd" clip-rule="evenodd" fill="#F1F2F2" stroke="#848484" stroke-miterlimit="10" points="58.2,603 
			66.7,617.2 46.4,623.2 		"/>
		
			<line fill-rule="evenodd" clip-rule="evenodd" fill="#F1F2F2" stroke="#848484" stroke-miterlimit="10" x1="46.4" y1="623.2" x2="58.2" y2="603"/>
		<polyline fill-rule="evenodd" clip-rule="evenodd" fill="#F1F2F2" stroke="#848484" stroke-miterlimit="10" points="58.2,670.6 
			66.7,656.5 46.4,650.4 		"/>
		
			<line fill-rule="evenodd" clip-rule="evenodd" fill="#F1F2F2" stroke="#848484" stroke-miterlimit="10" x1="46.4" y1="650.4" x2="58.2" y2="670.6"/>
	</g>
	<g>
		
			<rect x="19.9" y="676.9" transform="matrix(-1.836970e-16 1 -1 -1.836970e-16 718.4031 653.6242)" fill="#F1F2F2" stroke="#848484" stroke-miterlimit="10" width="25" height="18.1"/>
		
			<rect x="36.8" y="685.3" transform="matrix(-1.836970e-16 1 -1 -1.836970e-16 727.96 643.8724)" fill="#F1F2F2" stroke="#848484" stroke-miterlimit="10" width="10.5" height="1.2"/>
	</g>
	<g>
		
			<rect x="19.9" y="578.4" transform="matrix(-1.836970e-16 1 -1 -1.836970e-16 619.851 555.0721)" fill="#F1F2F2" stroke="#848484" stroke-miterlimit="10" width="25" height="18.1"/>
		
			<rect x="36.8" y="586.8" transform="matrix(1.738993e-13 1 -1 1.738993e-13 629.4079 545.3203)" fill="#F1F2F2" stroke="#848484" stroke-miterlimit="10" width="10.5" height="1.2"/>
	</g>
</g>
<g>
	
		<rect x="23.8" y="513.8" transform="matrix(-1 -4.489754e-11 4.489754e-11 -1 123.6885 1053.8394)" fill-rule="evenodd" clip-rule="evenodd" fill="#F1F2F2" stroke="#848484" stroke-miterlimit="10" width="76.1" height="26.3"/>
	<line fill="#F1F2F2" stroke="#848484" stroke-miterlimit="10" x1="97.1" y1="513.8" x2="97.1" y2="540.1"/>
	<line fill="#F1F2F2" stroke="#848484" stroke-miterlimit="10" x1="26.6" y1="513.8" x2="26.6" y2="540.1"/>
	<line fill="#F1F2F2" stroke="#848484" stroke-miterlimit="10" x1="97.1" y1="538.8" x2="26.6" y2="538.8"/>
	<line fill="#F1F2F2" stroke="#848484" stroke-miterlimit="10" x1="29.1" y1="526.7" x2="94.7" y2="526.7"/>
	
		<rect x="90.5" y="518.9" transform="matrix(-0.9868 0.162 -0.162 -0.9868 266.6764 1031.9955)" fill="#F1F2F2" stroke="#848484" stroke-miterlimit="10" width="1.6" height="16"/>
	
		<rect x="84.6" y="518.9" transform="matrix(-0.9961 8.815246e-02 -8.815246e-02 -0.9961 216.8702 1044.1578)" fill="#F1F2F2" stroke="#848484" stroke-miterlimit="10" width="1.6" height="16"/>
	
		<rect x="78.6" y="518.7" transform="matrix(-0.9734 0.229 -0.229 -0.9734 277.3343 1021.2793)" fill="#F1F2F2" stroke="#848484" stroke-miterlimit="10" width="1.6" height="16"/>
	
		<rect x="71.9" y="518.9" transform="matrix(-0.9884 0.152 -0.152 -0.9884 224.7704 1036.632)" fill="#F1F2F2" stroke="#848484" stroke-miterlimit="10" width="1.6" height="16"/>
	
		<rect x="66.1" y="518.8" transform="matrix(-0.999 4.511170e-02 -4.511170e-02 -0.999 157.5861 1050.0842)" fill="#F1F2F2" stroke="#848484" stroke-miterlimit="10" width="1.6" height="16"/>
	
		<rect x="60.2" y="518.8" transform="matrix(-0.9884 0.152 -0.152 -0.9884 201.5181 1038.2313)" fill="#F1F2F2" stroke="#848484" stroke-miterlimit="10" width="1.6" height="16"/>
	
		<rect x="54.3" y="518.7" transform="matrix(-0.999 4.511170e-02 -4.511170e-02 -0.999 133.8947 1050.4402)" fill="#F1F2F2" stroke="#848484" stroke-miterlimit="10" width="1.6" height="16"/>
	
		<rect x="48.4" y="518.7" transform="matrix(-0.9787 0.2052 -0.2052 -0.9787 205.5009 1032.1543)" fill="#F1F2F2" stroke="#848484" stroke-miterlimit="10" width="1.6" height="16"/>
	
		<rect x="42.6" y="518.7" transform="matrix(-0.9884 0.152 -0.152 -0.9884 166.3565 1040.7748)" fill="#F1F2F2" stroke="#848484" stroke-miterlimit="10" width="1.6" height="16"/>
	
		<rect x="36.7" y="518.7" transform="matrix(-0.9964 8.473843e-02 -8.473843e-02 -0.9964 119.565 1048.3868)" fill="#F1F2F2" stroke="#848484" stroke-miterlimit="10" width="1.6" height="16"/>
	
		<rect x="30.9" y="518.9" transform="matrix(-0.9713 0.2379 -0.2379 -0.9713 187.8151 1031.1844)" fill="#F1F2F2" stroke="#848484" stroke-miterlimit="10" width="1.6" height="16"/>
</g>
<g>
	<g>
		
			<rect x="254.8" y="120" transform="matrix(-1 -1.224647e-16 1.224647e-16 -1 600.9656 310.838)" fill-rule="evenodd" clip-rule="evenodd" fill="#F1F2F2" stroke="#848484" stroke-miterlimit="10" width="91.3" height="70.9"/>
		
			<rect x="257.4" y="121.6" transform="matrix(-1 -1.224647e-16 1.224647e-16 -1 599.8778 310.7635)" fill-rule="evenodd" clip-rule="evenodd" fill="#F1F2F2" stroke="#848484" stroke-miterlimit="10" width="85.1" height="67.6"/>
		
			<rect x="321.1" y="160.9" transform="matrix(-1 -1.897486e-13 1.897486e-13 -1 661.4057 348.1179)" fill-rule="evenodd" clip-rule="evenodd" fill="#F1F2F2" stroke="#848484" stroke-miterlimit="10" width="19.2" height="26.3"/>
		
			<rect x="321.1" y="123.8" transform="matrix(-1 -1.897486e-13 1.897486e-13 -1 661.4057 273.7999)" fill-rule="evenodd" clip-rule="evenodd" fill="#F1F2F2" stroke="#848484" stroke-miterlimit="10" width="19.2" height="26.3"/>
		<polygon fill-rule="evenodd" clip-rule="evenodd" fill="#F1F2F2" stroke="#848484" stroke-miterlimit="10" points="311.3,189.2 
			323,169 323,141.7 323,169 323,141.7 311.3,121.6 257.4,121.6 257.4,121.6 257.4,189.2 		"/>
		<polyline fill-rule="evenodd" clip-rule="evenodd" fill="#F1F2F2" stroke="#848484" stroke-miterlimit="10" points="311.3,189.2 
			302.7,175 323,169 		"/>
		
			<line fill-rule="evenodd" clip-rule="evenodd" fill="#F1F2F2" stroke="#848484" stroke-miterlimit="10" x1="323" y1="169" x2="311.3" y2="189.2"/>
		<polyline fill-rule="evenodd" clip-rule="evenodd" fill="#F1F2F2" stroke="#848484" stroke-miterlimit="10" points="311.3,121.6 
			302.7,135.7 323,141.7 		"/>
		
			<line fill-rule="evenodd" clip-rule="evenodd" fill="#F1F2F2" stroke="#848484" stroke-miterlimit="10" x1="323" y1="141.7" x2="311.3" y2="121.6"/>
	</g>
	<g>
		
			<rect x="324.6" y="97.1" transform="matrix(6.123234e-17 -1 1 6.123234e-17 230.907 443.2613)" fill="#F1F2F2" stroke="#848484" stroke-miterlimit="10" width="25" height="18.1"/>
		
			<rect x="322.2" y="105.7" transform="matrix(6.123234e-17 -1 1 6.123234e-17 221.1552 433.7044)" fill="#F1F2F2" stroke="#848484" stroke-miterlimit="10" width="10.5" height="1.2"/>
	</g>
	<g>
		
			<rect x="324.6" y="195.7" transform="matrix(6.123234e-17 -1 1 6.123234e-17 132.3549 541.8134)" fill="#F1F2F2" stroke="#848484" stroke-miterlimit="10" width="25" height="18.1"/>
		
			<rect x="322.2" y="204.2" transform="matrix(-1.740217e-13 -1 1 -1.740217e-13 122.6031 532.2565)" fill="#F1F2F2" stroke="#848484" stroke-miterlimit="10" width="10.5" height="1.2"/>
	</g>
</g>
<g>
	
		<rect x="269.6" y="234.1" fill-rule="evenodd" clip-rule="evenodd" fill="#F1F2F2" stroke="#848484" stroke-miterlimit="10" width="76.1" height="26.3"/>
	<line fill="#F1F2F2" stroke="#848484" stroke-miterlimit="10" x1="272.3" y1="260.4" x2="272.3" y2="234.1"/>
	<line fill="#F1F2F2" stroke="#848484" stroke-miterlimit="10" x1="342.8" y1="260.4" x2="342.8" y2="234.1"/>
	<line fill="#F1F2F2" stroke="#848484" stroke-miterlimit="10" x1="272.3" y1="235.4" x2="342.8" y2="235.4"/>
	<line fill="#F1F2F2" stroke="#848484" stroke-miterlimit="10" x1="340.4" y1="247.5" x2="274.8" y2="247.5"/>
	
		<rect x="277.4" y="239.3" transform="matrix(0.9868 -0.162 0.162 0.9868 -36.3848 48.3247)" fill="#F1F2F2" stroke="#848484" stroke-miterlimit="10" width="1.6" height="16"/>
	
		<rect x="283.3" y="239.3" transform="matrix(0.9961 -8.815246e-02 8.815246e-02 0.9961 -20.6962 26.0065)" fill="#F1F2F2" stroke="#848484" stroke-miterlimit="10" width="1.6" height="16"/>
	
		<rect x="289.2" y="239.5" transform="matrix(0.9734 -0.229 0.229 0.9734 -48.9605 73.0006)" fill="#F1F2F2" stroke="#848484" stroke-miterlimit="10" width="1.6" height="16"/>
	
		<rect x="295.9" y="239.3" transform="matrix(0.9884 -0.152 0.152 0.9884 -34.1473 47.9888)" fill="#F1F2F2" stroke="#848484" stroke-miterlimit="10" width="1.6" height="16"/>
	
		<rect x="301.7" y="239.4" transform="matrix(0.999 -4.511170e-02 4.511170e-02 0.999 -10.8513 13.8995)" fill="#F1F2F2" stroke="#848484" stroke-miterlimit="10" width="1.6" height="16"/>
	
		<rect x="307.6" y="239.4" transform="matrix(0.9884 -0.152 0.152 0.9884 -34.025 49.7668)" fill="#F1F2F2" stroke="#848484" stroke-miterlimit="10" width="1.6" height="16"/>
	
		<rect x="313.6" y="239.5" transform="matrix(0.999 -4.511170e-02 4.511170e-02 0.999 -10.8433 14.4341)" fill="#F1F2F2" stroke="#848484" stroke-miterlimit="10" width="1.6" height="16"/>
	
		<rect x="319.4" y="239.5" transform="matrix(0.9787 -0.2052 0.2052 0.9787 -43.9581 70.965)" fill="#F1F2F2" stroke="#848484" stroke-miterlimit="10" width="1.6" height="16"/>
	
		<rect x="325.3" y="239.4" transform="matrix(0.9884 -0.152 0.152 0.9884 -33.8306 52.4554)" fill="#F1F2F2" stroke="#848484" stroke-miterlimit="10" width="1.6" height="16"/>
	
		<rect x="331.1" y="239.5" transform="matrix(0.9964 -8.473843e-02 8.473843e-02 0.9964 -19.7754 29.0182)" fill="#F1F2F2" stroke="#848484" stroke-miterlimit="10" width="1.6" height="16"/>
	
		<rect x="337" y="239.3" transform="matrix(0.9713 -0.2379 0.2379 0.9713 -49.1295 87.4688)" fill="#F1F2F2" stroke="#848484" stroke-miterlimit="10" width="1.6" height="16"/>
</g>
<g>
	<g>
		
			<rect x="151.3" y="609.6" fill-rule="evenodd" clip-rule="evenodd" fill="#F1F2F2" stroke="#848484" stroke-miterlimit="10" width="2.6" height="51.4"/>
		<polygon fill-rule="evenodd" clip-rule="evenodd" fill="#F1F2F2" stroke="#848484" stroke-miterlimit="10" points="153.8,656.6 
			155.9,648.3 155.9,622.3 153.8,614 		"/>
		
			<rect x="155.9" y="630.9" fill-rule="evenodd" clip-rule="evenodd" fill="#F1F2F2" stroke="#848484" stroke-miterlimit="10" width="2.3" height="8.8"/>
	</g>
</g>
<g>
	
		<rect x="269.7" y="267" transform="matrix(-1 -4.488244e-11 4.488244e-11 -1 615.9803 560.4626)" fill-rule="evenodd" clip-rule="evenodd" fill="#F1F2F2" stroke="#848484" stroke-miterlimit="10" width="76.6" height="26.5"/>
	<line fill="#F1F2F2" stroke="#848484" stroke-miterlimit="10" x1="343.5" y1="267" x2="343.5" y2="293.5"/>
	<line fill="#F1F2F2" stroke="#848484" stroke-miterlimit="10" x1="272.5" y1="267" x2="272.5" y2="293.5"/>
	<line fill="#F1F2F2" stroke="#848484" stroke-miterlimit="10" x1="343.5" y1="292.2" x2="272.5" y2="292.2"/>
	<line fill="#F1F2F2" stroke="#848484" stroke-miterlimit="10" x1="275" y1="280" x2="341.1" y2="280"/>
	
		<rect x="336.8" y="272.1" transform="matrix(-0.9868 0.162 -0.162 -0.9868 716.1874 501.9733)" fill="#F1F2F2" stroke="#848484" stroke-miterlimit="10" width="1.7" height="16.1"/>
	
		<rect x="330.9" y="272.1" transform="matrix(-0.9961 8.815246e-02 -8.815246e-02 -0.9961 686.7987 530.0273)" fill="#F1F2F2" stroke="#848484" stroke-miterlimit="10" width="1.7" height="16.1"/>
	
		<rect x="324.9" y="272" transform="matrix(-0.9734 0.229 -0.229 -0.9734 706.8445 478.0585)" fill="#F1F2F2" stroke="#848484" stroke-miterlimit="10" width="1.7" height="16.1"/>
	
		<rect x="318.1" y="272.2" transform="matrix(-0.9884 0.152 -0.152 -0.9884 676.8513 508.6867)" fill="#F1F2F2" stroke="#848484" stroke-miterlimit="10" width="1.7" height="16.1"/>
	
		<rect x="312.3" y="272.1" transform="matrix(-0.999 4.511170e-02 -4.511170e-02 -0.999 638.5728 545.8515)" fill="#F1F2F2" stroke="#848484" stroke-miterlimit="10" width="1.7" height="16.1"/>
	
		<rect x="306.4" y="272.1" transform="matrix(-0.9884 0.152 -0.152 -0.9884 653.4301 510.2977)" fill="#F1F2F2" stroke="#848484" stroke-miterlimit="10" width="1.7" height="16.1"/>
	
		<rect x="300.4" y="272" transform="matrix(-0.999 4.511170e-02 -4.511170e-02 -0.999 614.7094 546.2101)" fill="#F1F2F2" stroke="#848484" stroke-miterlimit="10" width="1.7" height="16.1"/>
	
		<rect x="294.5" y="272" transform="matrix(-0.9787 0.2052 -0.2052 -0.9787 641.7632 493.5408)" fill="#F1F2F2" stroke="#848484" stroke-miterlimit="10" width="1.7" height="16.1"/>
	
		<rect x="288.6" y="272" transform="matrix(-0.9884 0.152 -0.152 -0.9884 618.0132 512.8597)" fill="#F1F2F2" stroke="#848484" stroke-miterlimit="10" width="1.7" height="16.1"/>
	
		<rect x="282.7" y="272" transform="matrix(-0.9964 8.473843e-02 -8.473843e-02 -0.9964 589.7151 535.0517)" fill="#F1F2F2" stroke="#848484" stroke-miterlimit="10" width="1.7" height="16.1"/>
	
		<rect x="276.8" y="272.2" transform="matrix(-0.9713 0.2379 -0.2379 -0.9713 613.9147 486.3806)" fill="#F1F2F2" stroke="#848484" stroke-miterlimit="10" width="1.7" height="16.1"/>
</g>
<g>
	
		<rect x="22.9" y="51.7" fill-rule="evenodd" clip-rule="evenodd" fill="#F1F2F2" stroke="#848484" stroke-miterlimit="10" width="1.6" height="22.3"/>
	
		<rect x="22.9" y="51.7" fill-rule="evenodd" clip-rule="evenodd" fill="#F1F2F2" stroke="#848484" stroke-miterlimit="10" width="1.6" height="22.3"/>
	
		<rect x="47.8" y="51.5" fill-rule="evenodd" clip-rule="evenodd" fill="#F1F2F2" stroke="#848484" stroke-miterlimit="10" width="2.2" height="7.3"/>
	
		<rect x="47.8" y="51.5" fill-rule="evenodd" clip-rule="evenodd" fill="#F1F2F2" stroke="#848484" stroke-miterlimit="10" width="2.2" height="7.3"/>
	
		<rect x="24.3" y="50.6" fill-rule="evenodd" clip-rule="evenodd" fill="#F1F2F2" stroke="#848484" stroke-miterlimit="10" width="24.4" height="24.5"/>
	
		<rect x="24.3" y="50.6" fill-rule="evenodd" clip-rule="evenodd" fill="#F1F2F2" stroke="#848484" stroke-miterlimit="10" width="24.4" height="24.5"/>
	<path fill-rule="evenodd" clip-rule="evenodd" fill="#F1F2F2" stroke="#848484" stroke-miterlimit="10" d="M46.5,75.1l0-24.5
		L46.5,75.1z"/>
	<path fill-rule="evenodd" clip-rule="evenodd" fill="#F1F2F2" stroke="#848484" stroke-miterlimit="10" d="M46.5,76.2
		c-0.5,0-1-0.4-1-1c0-0.6,0.5-1,1-1c0.6,0,1.1,0.4,1.1,1C47.5,75.8,47,76.2,46.5,76.2z"/>
	<path fill-rule="evenodd" clip-rule="evenodd" fill="#F1F2F2" stroke="#848484" stroke-miterlimit="10" d="M46.5,76.2
		c-0.5,0-1-0.4-1-1c0-0.6,0.5-1,1-1c0.6,0,1.1,0.4,1.1,1C47.5,75.8,47,76.2,46.5,76.2z"/>
	<path fill-rule="evenodd" clip-rule="evenodd" fill="#F1F2F2" stroke="#848484" stroke-miterlimit="10" d="M34,62.7l4.3,0L34,62.7z
		"/>
	<path fill-rule="evenodd" clip-rule="evenodd" fill="#F1F2F2" stroke="#848484" stroke-miterlimit="10" d="M36.1,64.8v-4.3V64.8z"
		/>
	<path fill-rule="evenodd" clip-rule="evenodd" fill="#F1F2F2" stroke="#848484" stroke-miterlimit="10" d="M37.7,64.2l-3.1-3.1
		L37.7,64.2z"/>
	<path fill-rule="evenodd" clip-rule="evenodd" fill="#F1F2F2" stroke="#848484" stroke-miterlimit="10" d="M37.7,61.1l-3.1,3.1
		L37.7,61.1z"/>
	<path fill-rule="evenodd" clip-rule="evenodd" fill="#F1F2F2" stroke="#848484" stroke-miterlimit="10" d="M33.8,69h4.3H33.8z"/>
	<path fill-rule="evenodd" clip-rule="evenodd" fill="#F1F2F2" stroke="#848484" stroke-miterlimit="10" d="M35.9,71.2l0-4.3
		L35.9,71.2z"/>
	<path fill-rule="evenodd" clip-rule="evenodd" fill="#F1F2F2" stroke="#848484" stroke-miterlimit="10" d="M37.5,70.5l-3.1-3.1
		L37.5,70.5z"/>
	<path fill-rule="evenodd" clip-rule="evenodd" fill="#F1F2F2" stroke="#848484" stroke-miterlimit="10" d="M37.5,67.4l-3.1,3.1
		L37.5,67.4z"/>
	<path fill-rule="evenodd" clip-rule="evenodd" fill="#F1F2F2" stroke="#848484" stroke-miterlimit="10" d="M34,56.5l4.3,0L34,56.5z
		"/>
	<path fill-rule="evenodd" clip-rule="evenodd" fill="#F1F2F2" stroke="#848484" stroke-miterlimit="10" d="M36.1,58.6l0-4.3
		L36.1,58.6z"/>
	<path fill-rule="evenodd" clip-rule="evenodd" fill="#F1F2F2" stroke="#848484" stroke-miterlimit="10" d="M37.7,58l-3.1-3.1
		L37.7,58z"/>
	<path fill-rule="evenodd" clip-rule="evenodd" fill="#F1F2F2" stroke="#848484" stroke-miterlimit="10" d="M37.7,54.9L34.5,58
		L37.7,54.9z"/>
</g>
<g>
	<g>
		<path fill="#F1F2F2" stroke="#848484" stroke-miterlimit="10" d="M145.1,114.5c4.5,0,8.1-1.3,8.1-3c0-1.7-3.6-3-8.1-3
			c-4.5,0-8.2,1.4-8.2,3C136.9,113.2,140.6,114.5,145.1,114.5z"/>
		<path fill="#F1F2F2" stroke="#848484" stroke-miterlimit="10" d="M145.1,128.2c4.5,0,8.1-3.7,8.1-8.2s-3.6-8.2-8.1-8.2
			c-4.5,0-8.2,3.7-8.2,8.2S140.6,128.2,145.1,128.2z"/>
	</g>
	<g>
		<path fill="#F1F2F2" stroke="#848484" stroke-miterlimit="10" d="M145.1,153.1c-4.5,0-8.2,1.3-8.2,3c0,1.7,3.6,3,8.2,3
			c4.5,0,8.1-1.4,8.1-3C153.2,154.4,149.6,153.1,145.1,153.1z"/>
		<path fill="#F1F2F2" stroke="#848484" stroke-miterlimit="10" d="M145.1,139.4c-4.5,0-8.2,3.7-8.2,8.2s3.6,8.2,8.2,8.2
			c4.5,0,8.1-3.7,8.1-8.2S149.6,139.4,145.1,139.4z"/>
	</g>
	<g>
		<path fill="#F1F2F2" stroke="#848484" stroke-miterlimit="10" d="M123.6,114.5c4.5,0,8.1-1.3,8.1-3c0-1.7-3.6-3-8.1-3
			s-8.2,1.4-8.2,3C115.5,113.2,119.1,114.5,123.6,114.5z"/>
		<path fill="#F1F2F2" stroke="#848484" stroke-miterlimit="10" d="M123.6,128.2c4.5,0,8.1-3.7,8.1-8.2s-3.6-8.2-8.1-8.2
			s-8.2,3.7-8.2,8.2S119.1,128.2,123.6,128.2z"/>
	</g>
	<g>
		<path fill="#F1F2F2" stroke="#848484" stroke-miterlimit="10" d="M123.6,153.1c-4.5,0-8.2,1.3-8.2,3c0,1.7,3.6,3,8.2,3
			c4.5,0,8.1-1.4,8.1-3C131.8,154.4,128.1,153.1,123.6,153.1z"/>
		<path fill="#F1F2F2" stroke="#848484" stroke-miterlimit="10" d="M123.6,139.4c-4.5,0-8.2,3.7-8.2,8.2s3.6,8.2,8.2,8.2
			c4.5,0,8.1-3.7,8.1-8.2S128.1,139.4,123.6,139.4z"/>
	</g>
	<rect x="108" y="117.4" fill="#F1F2F2" stroke="#848484" stroke-miterlimit="10" width="53.5" height="32.8"/>
</g>
<g>
	<path fill-rule="evenodd" clip-rule="evenodd" fill="#F1F2F2" stroke="#848484" stroke-miterlimit="10" d="M173.9,200.6v-13.7h11.4
		v13.7H173.9L173.9,200.6z M173.9,135.8h17v51h-17V135.8z"/>
	<path fill-rule="evenodd" clip-rule="evenodd" fill="#F1F2F2" stroke="#848484" stroke-miterlimit="10" d="M179.9,156.3
		c-3,0-3.2,2.7-3.2,6c0,3.3,0.3,6,3.2,6c3,0,5.4-2.7,5.4-6C185.3,159,182.9,156.3,179.9,156.3z"/>
	
		<rect x="180.5" y="142.3" fill-rule="evenodd" clip-rule="evenodd" fill="#F1F2F2" stroke="#848484" stroke-miterlimit="10" width="2.3" height="40.1"/>
	
		<rect x="180.5" y="142.3" fill-rule="evenodd" clip-rule="evenodd" fill="#F1F2F2" stroke="#848484" stroke-miterlimit="10" width="2.3" height="40.1"/>
	<polygon fill-rule="evenodd" clip-rule="evenodd" fill="#F1F2F2" stroke="#848484" stroke-miterlimit="10" points="180.6,145.7 
		178.7,152.1 178.7,172.5 180.6,178.9 	"/>
	<polygon fill-rule="evenodd" clip-rule="evenodd" fill="#F1F2F2" stroke="#848484" stroke-miterlimit="10" points="180.6,145.7 
		178.7,152.1 178.7,172.5 180.6,178.9 	"/>
	<path fill-rule="evenodd" clip-rule="evenodd" fill="#F1F2F2" stroke="#848484" stroke-miterlimit="10" d="M186.5,199.4v-11.3h1.1
		v11.3H186.5L186.5,199.4z M173.9,135.9v-13.7h11.4v13.7H173.9L173.9,135.9z M186.5,123.3h1.1v11.3h-1.1V123.3z"/>
</g>
<g>
</g>
<g>
</g>
<g>
</g>
<g>
</g>
<g>
</g>
<g>
</g>
</svg>
