<?xml version="1.0" encoding="utf-8"?>
<!-- Generator: Adobe Illustrator 23.0.2, SVG Export Plug-In . SVG Version: 6.00 Build 0)  -->
<svg version="1.1" id="Слой_1" xmlns="http://www.w3.org/2000/svg" xmlns:xlink="http://www.w3.org/1999/xlink" x="0px" y="0px"
	 viewBox="0 0 644.6 800" enable-background="new 0 0 644.6 800" xml:space="preserve">
<rect x="436.6" y="76.4" fill="#F1F2F2" stroke="#848484" stroke-miterlimit="10" width="172.6" height="60.1"/>
<g id="moyka_2_11_">
	<path fill="#F3F3F3" stroke="#838383" d="M500.5,125.6c0,1.8-1.5,3.3-3.3,3.3h-48.3c-1.8,0-3.3-1.5-3.3-3.3v-40
		c0-1.8,1.5-3.3,3.3-3.3h48.3c1.8,0,3.3,1.5,3.3,3.3V125.6z"/>
	<path fill="#F3F3F3" stroke="#838383" d="M497.1,122.3c0,1.8-1.5,3.3-3.3,3.3h-41.6c-1.8,0-3.3-1.5-3.3-3.3V94
		c0-1.8,1.5-3.3,3.3-3.3h41.6c1.8,0,3.3,1.5,3.3,3.3V122.3z"/>
	<rect x="472.2" y="87.3" fill="#F3F3F3" stroke="#838383" width="3.3" height="13.3"/>
	<circle fill="#F3F3F3" stroke="#838383" cx="473" cy="109.8" r="2.5"/>
</g>
<g id="plita_11_">
	<rect x="544.2" y="76.6" fill="#F3F3F3" stroke="#838383" width="58.3" height="59.9"/>
	<circle fill="#F3F3F3" stroke="#838383" cx="560.9" cy="121.6" r="10"/>
	<circle fill="#F3F3F3" stroke="#838383" cx="585.8" cy="96.6" r="10"/>
	<circle fill="#F3F3F3" stroke="#838383" cx="585.8" cy="121.6" r="8.3"/>
	<circle fill="#F3F3F3" stroke="#838383" cx="560.9" cy="96.6" r="8.3"/>
</g>
<g id="stirka_9_">
	<rect x="150.4" y="78" fill="#F3F3F3" stroke="#838383" width="49.9" height="49.9"/>
	<path fill="#F3F3F3" stroke="#838383" d="M153.7,78H172v5c0,1.8-1.5,3.3-3.3,3.3h-11.7c-1.8,0-3.3-1.5-3.3-3.3V78z"/>
	<circle fill="#F3F3F3" stroke="#838383" cx="175.4" cy="104.6" r="13.3"/>
	<circle fill="#F3F3F3" stroke="#838383" cx="175.4" cy="104.6" r="10"/>
	<circle fill="#F3F3F3" stroke="#838383" cx="192" cy="86.3" r="3.3"/>
</g>
<g id="unitaz_12_">
	<path fill="#F3F3F3" stroke="#838383" d="M36.9,148h11.7c1.8,0,3.3,1.5,3.3,3.3v30c0,1.8-1.5,3.3-3.3,3.3H36.9V148z"/>
	<path fill="#F3F3F3" stroke="#838383" d="M51.9,151.3c0-1.8,1.5-3.3,3.3-3.3v36.6c-1.8,0-3.3-1.5-3.3-3.3V151.3z"/>
	<path fill="#F3F3F3" stroke="#838383" d="M55.2,184.6V148c0,0,43.3-7.5,43.3,18.3C98.5,192.1,55.2,184.6,55.2,184.6z"/>
	<circle fill="#F3F3F3" stroke="#838383" cx="43.6" cy="166.3" r="3.3"/>
</g>
<g id="moyka_12_">
	<path fill="#F3F3F3" stroke="#838383" d="M36.9,216.6c0-1,0.8-1.8,1.8-1.8h36.3c1,0,1.8,0.8,1.8,1.8V271c0,1-0.8,1.8-1.8,1.8H38.7
		c-1,0-1.8-0.8-1.8-1.8V216.6z"/>
	<rect x="42.4" y="214.7" fill="#F3F3F3" stroke="#838383" width="3.6" height="58.1"/>
	<ellipse fill="#F3F3F3" stroke="#838383" cx="61.4" cy="244.7" rx="11.8" ry="19.1"/>
	<rect x="42.4" y="242" fill="#F3F3F3" stroke="#838383" width="14.5" height="3.6"/>
	<circle fill="#F3F3F3" stroke="#838383" cx="63.3" cy="242.9" r="2.7"/>
</g>
<g id="vanna_10_">
	<rect x="36.9" y="285.8" fill="#F3F3F3" stroke="#838383" width="158.5" height="63.3"/>
	<path fill="#F3F3F3" stroke="#838383" d="M185.6,327.4c0,9.2-7.3,16.6-16.3,16.6H59.8v-53.3h109.5c9,0,16.3,7.5,16.3,16.6V327.4z"
		/>
	<path fill="#F3F3F3" stroke="#838383" d="M57.3,315.7v-13.3h-5.7v22.5"/>
	<path id="Union_10_" fill="#F3F3F3" stroke="#838383" d="M50,327.7c-1.9,0.7-3.3,2.5-3.3,4.7c0,2.8,2.2,5,4.9,5
		c2.7,0,4.9-2.2,4.9-5c0-2.2-1.4-4-3.3-4.7v-1.9c0-0.9-0.7-1.7-1.6-1.7c-0.9,0-1.6,0.7-1.6,1.7V327.7z"/>
	<rect x="54.9" y="315.7" fill="#F3F3F3" stroke="#838383" width="13.1" height="3.3"/>
</g>
<rect x="102.5" y="772.8" fill="#FFFFFF" stroke="#000000" stroke-miterlimit="10" width="144.6" height="7.8"/>
<rect x="102.5" y="772.8" fill="#FFFFFF" stroke="#000000" stroke-miterlimit="10" width="13.5" height="7.8"/>
<rect x="169.3" y="772.8" fill="#FFFFFF" stroke="#000000" stroke-miterlimit="10" width="6.9" height="6.9"/>
<rect x="232.5" y="772.8" fill="#FFFFFF" stroke="#000000" stroke-miterlimit="10" width="14.6" height="7.8"/>
<rect x="102.5" y="755.7" fill="#FFFFFF" stroke="#000000" stroke-miterlimit="10" width="144.6" height="17.1"/>
<rect x="106.5" y="780.6" fill="#FFFFFF" stroke="#000000" stroke-miterlimit="10" width="137.1" height="13.8"/>
<rect x="348.7" y="653.5" fill="#FFFFFF" stroke="#000000" stroke-miterlimit="10" width="145.1" height="7.3"/>
<rect x="482.5" y="653.5" fill="#FFFFFF" stroke="#000000" stroke-miterlimit="10" width="11.3" height="7.3"/>
<rect x="436.6" y="653.5" fill="#FFFFFF" stroke="#000000" stroke-miterlimit="10" width="7.3" height="7.3"/>
<rect x="348.7" y="653.5" fill="#FFFFFF" stroke="#000000" stroke-miterlimit="10" width="10.4" height="7.3"/>
<rect x="441.5" y="638.6" fill="#FFFFFF" stroke="#000000" stroke-miterlimit="10" width="52.4" height="14.9"/>
<rect x="441.5" y="660.8" fill="#FFFFFF" stroke="#000000" stroke-miterlimit="10" width="44.8" height="13.3"/>
<g>
	
		<rect x="456.7" y="656.2" transform="matrix(-1.836970e-16 1 -1 -1.836970e-16 1251.6578 307.7271)" fill="#FFFFFF" stroke="#000000" stroke-miterlimit="10" width="30.6" height="246.9"/>
	
		<rect x="466.6" y="659.1" transform="matrix(-1.836970e-16 1 -1 -1.836970e-16 1254.5419 310.6111)" fill="#FFFFFF" stroke="#000000" stroke-miterlimit="10" width="10.6" height="246.9"/>
	
		<rect x="472.3" y="661.4" transform="matrix(-1.836970e-16 1 -1 -1.836970e-16 1256.8271 308.5478)" fill="#FFFFFF" stroke="#000000" stroke-miterlimit="10" width="3.8" height="242.6"/>
</g>
<line fill="#FFFFFF" stroke="#000000" stroke-miterlimit="10" x1="316.8" y1="55.4" x2="232" y2="5"/>
<line fill="#FFFFFF" stroke="#000000" stroke-miterlimit="10" x1="359.2" y1="653.5" x2="425.9" y2="614.2"/>
<line fill="#FFFFFF" stroke="#000000" stroke-miterlimit="10" x1="306.6" y1="372.2" x2="232" y2="414.1"/>
<line fill="#FFFFFF" stroke="#000000" stroke-miterlimit="10" x1="214.3" y1="181.3" x2="250.2" y2="245.5"/>
<rect x="6.2" y="780.6" fill="#838383" stroke="#000000" stroke-miterlimit="10" width="100.3" height="13.8"/>
<rect x="6.2" y="76.4" fill="#838383" stroke="#000000" stroke-miterlimit="10" width="28.8" height="704.1"/>
<rect x="35" y="755.7" fill="#838383" stroke="#000000" stroke-miterlimit="10" width="67.4" height="24.8"/>
<rect x="243.6" y="780.6" fill="#838383" stroke="#000000" stroke-miterlimit="10" width="105.2" height="13.8"/>
<rect x="247.1" y="755.7" fill="#838383" stroke="#000000" stroke-miterlimit="10" width="66.6" height="24.8"/>
<rect x="313.7" y="571.6" fill="#838383" stroke="#000000" stroke-miterlimit="10" width="22.2" height="209"/>
<rect x="335.9" y="660.8" fill="#838383" stroke="#000000" stroke-miterlimit="10" width="20" height="13.3"/>
<rect x="335.9" y="638.6" fill="#838383" stroke="#000000" stroke-miterlimit="10" width="12.9" height="142"/>
<rect x="486.3" y="660.8" fill="#838383" stroke="#000000" stroke-miterlimit="10" width="122.9" height="13.3"/>
<rect x="493.8" y="638.6" fill="#838383" stroke="#000000" stroke-miterlimit="10" width="115.4" height="22.2"/>
<rect x="595.4" y="780.6" fill="#838383" stroke="#000000" stroke-miterlimit="10" width="43" height="13.8"/>
<rect x="609.2" y="76.4" fill="#838383" stroke="#000000" stroke-miterlimit="10" width="29.3" height="704.1"/>
<rect x="595.4" y="674.1" fill="#838383" stroke="#000000" stroke-miterlimit="10" width="13.8" height="106.5"/>
<rect x="6.2" y="55.4" fill="#838383" stroke="#000000" stroke-miterlimit="10" width="216.5" height="21.1"/>
<rect x="316.8" y="55.4" fill="#838383" stroke="#000000" stroke-miterlimit="10" width="321.7" height="21.1"/>
<rect x="35" y="365.5" fill="#C6C6C6" stroke="#000000" stroke-miterlimit="10" width="186.8" height="11.3"/>
<rect x="203" y="76.4" fill="#C6C6C6" stroke="#000000" stroke-miterlimit="10" width="11.3" height="104.9"/>
<rect x="203" y="254.8" fill="#C6C6C6" stroke="#000000" stroke-miterlimit="10" width="11.3" height="110.7"/>
<rect x="35" y="350.2" fill="#C6C6C6" stroke="#000000" stroke-miterlimit="10" width="167.9" height="8.7"/>
<rect x="306.6" y="365.5" fill="#C6C6C6" stroke="#000000" stroke-miterlimit="10" width="18.4" height="11.3"/>
<rect x="313.7" y="376.8" fill="#C6C6C6" stroke="#000000" stroke-miterlimit="10" width="11.3" height="194.8"/>
<rect x="130.4" y="76.4" fill="#C6C6C6" stroke="#000000" stroke-miterlimit="10" width="7.1" height="48.4"/>
<rect x="63.4" y="118.1" fill="#C6C6C6" stroke="#000000" stroke-miterlimit="10" width="67" height="6.7"/>
<rect x="35" y="121.5" fill="#C6C6C6" stroke="#000000" stroke-miterlimit="10" width="28.4" height="3.3"/>
<rect x="429.4" y="76.4" fill="#C6C6C6" stroke="#000000" stroke-miterlimit="10" width="8.7" height="109.1"/>
<rect x="380.7" y="107.3" fill="#C6C6C6" stroke="#000000" stroke-miterlimit="10" width="8.7" height="78.3"/>
<rect x="380.7" y="76.4" fill="#C6C6C6" stroke="#000000" stroke-miterlimit="10" width="3.7" height="30.8"/>
<rect x="389.3" y="177.6" fill="#C6C6C6" stroke="#000000" stroke-miterlimit="10" width="40" height="8"/>
<g>
	<path d="M407.7,376.4h-3.8v7.6h-1.7v-16.6h1.7v7.4h3.8l5.6-7.4h1.9l-6.2,8.1l6.5,8.5h-2L407.7,376.4z"/>
	<path d="M428.4,371.6l-6.2,14c-0.5,1.2-1.1,2-1.8,2.5c-0.7,0.5-1.5,0.7-2.4,0.7c-0.6,0-1.2-0.1-1.7-0.3s-1-0.5-1.4-0.9l0.8-1.3
		c0.6,0.6,1.4,0.9,2.3,0.9c0.6,0,1.1-0.2,1.5-0.5c0.4-0.3,0.8-0.9,1.1-1.6l0.5-1.2l-5.6-12.4h1.8l4.7,10.6l4.7-10.6H428.4z"/>
	<path d="M438.1,384l-4-5.2l-4,5.2h-1.9l4.9-6.4l-4.7-6.1h1.9l3.7,4.9l3.7-4.9h1.8l-4.7,6.1l5,6.4H438.1z"/>
	<path d="M442.8,371.6h1.7v5.5h7.8v-5.5h1.7V384h-1.7v-5.5h-7.8v5.5h-1.7V371.6z"/>
	<path d="M468.4,371.6V384h-1.5v-4.1h-3.9h-0.5l-2.9,4.1h-1.8l3.1-4.4c-1-0.3-1.7-0.7-2.2-1.4c-0.5-0.6-0.8-1.5-0.8-2.5
		c0-1.4,0.5-2.4,1.4-3.2c0.9-0.7,2.2-1.1,3.9-1.1H468.4z M463,378.6h3.8V373h-3.7c-2.4,0-3.7,0.9-3.7,2.8
		C459.5,377.7,460.7,378.6,463,378.6z"/>
	<path d="M472.2,376.9h6.2v1.5h-6.2V376.9z"/>
	<path d="M403.7,411.8c-1-0.5-1.7-1.3-2.3-2.3c-0.6-1-0.8-2.1-0.8-3.3s0.3-2.3,0.8-3.3c0.6-1,1.3-1.7,2.3-2.3s2.1-0.8,3.3-0.8
		c1.1,0,2,0.2,2.9,0.6s1.5,1,2,1.8l-1.3,0.9c-0.4-0.6-0.9-1.1-1.6-1.4c-0.6-0.3-1.3-0.5-2.1-0.5c-0.9,0-1.7,0.2-2.4,0.6
		c-0.7,0.4-1.3,1-1.7,1.7c-0.4,0.7-0.6,1.6-0.6,2.5c0,1,0.2,1.8,0.6,2.5c0.4,0.7,1,1.3,1.7,1.7c0.7,0.4,1.5,0.6,2.4,0.6
		c0.7,0,1.4-0.2,2.1-0.5c0.6-0.3,1.2-0.8,1.6-1.4l1.3,0.9c-0.5,0.8-1.2,1.4-2,1.8c-0.9,0.4-1.8,0.6-2.9,0.6
		C405.7,412.6,404.6,412.3,403.7,411.8z"/>
	<path d="M423.6,401.5h-4.7v11h-1.7v-11h-4.7V400h11.1V401.5z"/>
	<path d="M427.4,411.8c-1-0.5-1.7-1.3-2.3-2.3c-0.6-1-0.8-2.1-0.8-3.3s0.3-2.3,0.8-3.3c0.6-1,1.3-1.7,2.3-2.3c1-0.5,2-0.8,3.2-0.8
		s2.3,0.3,3.2,0.8c1,0.5,1.7,1.3,2.3,2.3s0.8,2.1,0.8,3.3s-0.3,2.3-0.8,3.3s-1.3,1.7-2.3,2.3c-1,0.5-2,0.8-3.2,0.8
		S428.4,412.3,427.4,411.8z M433,410.5c0.7-0.4,1.3-1,1.6-1.7c0.4-0.7,0.6-1.6,0.6-2.5s-0.2-1.8-0.6-2.5c-0.4-0.7-0.9-1.3-1.6-1.7
		c-0.7-0.4-1.5-0.6-2.4-0.6s-1.7,0.2-2.4,0.6c-0.7,0.4-1.3,1-1.7,1.7c-0.4,0.7-0.6,1.6-0.6,2.5s0.2,1.8,0.6,2.5
		c0.4,0.7,1,1.3,1.7,1.7c0.7,0.4,1.5,0.6,2.4,0.6S432.3,410.9,433,410.5z"/>
	<path d="M450.7,400v12.5H449v-11h-6l-0.2,3.1c-0.1,2.6-0.4,4.6-0.9,6c-0.5,1.4-1.3,2.1-2.5,2.1c-0.3,0-0.7-0.1-1.2-0.2l0.1-1.4
		c0.3,0.1,0.5,0.1,0.6,0.1c0.6,0,1.1-0.3,1.5-0.9c0.3-0.6,0.6-1.3,0.7-2.2s0.2-2.1,0.3-3.5l0.2-4.5H450.7z"/>
	<path d="M457.4,411.8c-1-0.5-1.7-1.3-2.3-2.3c-0.6-1-0.8-2.1-0.8-3.3s0.3-2.3,0.8-3.3c0.6-1,1.3-1.7,2.3-2.3c1-0.5,2-0.8,3.2-0.8
		s2.3,0.3,3.2,0.8c1,0.5,1.7,1.3,2.3,2.3s0.8,2.1,0.8,3.3s-0.3,2.3-0.8,3.3s-1.3,1.7-2.3,2.3c-1,0.5-2,0.8-3.2,0.8
		S458.3,412.3,457.4,411.8z M463,410.5c0.7-0.4,1.3-1,1.6-1.7c0.4-0.7,0.6-1.6,0.6-2.5s-0.2-1.8-0.6-2.5c-0.4-0.7-0.9-1.3-1.6-1.7
		c-0.7-0.4-1.5-0.6-2.4-0.6s-1.7,0.2-2.4,0.6c-0.7,0.4-1.3,1-1.7,1.7c-0.4,0.7-0.6,1.6-0.6,2.5s0.2,1.8,0.6,2.5
		c0.4,0.7,1,1.3,1.7,1.7c0.7,0.4,1.5,0.6,2.4,0.6S462.3,410.9,463,410.5z"/>
	<path d="M481,409.1c0,1.1-0.4,1.9-1.2,2.5s-2,0.9-3.6,0.9h-5.7V400h5.5c1.4,0,2.5,0.3,3.3,0.8c0.8,0.6,1.2,1.3,1.2,2.4
		c0,0.7-0.2,1.3-0.6,1.7c-0.4,0.5-0.9,0.8-1.6,1.1C480.2,406.4,481,407.4,481,409.1z M472.2,405.5h3.7c1,0,1.7-0.2,2.2-0.5
		c0.5-0.4,0.8-0.9,0.8-1.6c0-0.7-0.3-1.2-0.8-1.6c-0.5-0.3-1.3-0.5-2.2-0.5h-3.7V405.5z M478.6,410.6c0.5-0.3,0.8-0.9,0.8-1.6
		s-0.2-1.3-0.7-1.6s-1.3-0.5-2.3-0.5h-4.1v4.3h4C477.2,411.1,478,411,478.6,410.6z"/>
	<path d="M493,401.1c0.9,0.8,1.3,2,1.3,3.6v7.7h-1.6v-1.9c-0.4,0.6-0.9,1.2-1.7,1.5c-0.7,0.4-1.6,0.5-2.6,0.5c-1.4,0-2.5-0.3-3.3-1
		c-0.8-0.7-1.2-1.5-1.2-2.6c0-1.1,0.4-1.9,1.1-2.6s2-1,3.7-1h4v-0.8c0-1.1-0.3-1.9-0.9-2.5c-0.6-0.6-1.5-0.8-2.6-0.8
		c-0.8,0-1.5,0.1-2.3,0.4s-1.4,0.6-1.9,1.1l-0.8-1.3c0.6-0.5,1.4-1,2.3-1.2c0.9-0.3,1.8-0.4,2.8-0.4
		C490.9,399.9,492.1,400.3,493,401.1z M491.1,410.6c0.7-0.4,1.2-1.1,1.5-1.9v-2h-3.9c-2.1,0-3.2,0.7-3.2,2.2c0,0.7,0.3,1.3,0.8,1.7
		c0.6,0.4,1.3,0.6,2.3,0.6C489.6,411.3,490.4,411,491.1,410.6z"/>
	<path d="M508.4,400v12.5h-1.5v-4.1h-3.9h-0.5l-2.9,4.1h-1.8l3.1-4.4c-1-0.3-1.7-0.7-2.2-1.4c-0.5-0.6-0.8-1.5-0.8-2.5
		c0-1.4,0.5-2.4,1.4-3.2c0.9-0.7,2.2-1.1,3.9-1.1H508.4z M503.1,407.1h3.8v-5.6h-3.7c-2.4,0-3.7,0.9-3.7,2.8
		C499.5,406.2,500.7,407.1,503.1,407.1z"/>
	<path d="M407.2,427.3V448h-2.9v-18.2h-4.7v-2.6H407.2z"/>
	<path d="M424.3,436.2c1.1,0.5,1.9,1.3,2.5,2.2c0.6,1,0.9,2.1,0.9,3.3c0,1.3-0.3,2.5-1,3.4c-0.6,1-1.5,1.8-2.6,2.3
		c-1.1,0.5-2.4,0.8-3.7,0.8c-2.8,0-4.9-0.9-6.4-2.7c-1.5-1.8-2.3-4.3-2.3-7.6c0-2.3,0.4-4.3,1.2-5.9c0.8-1.6,2-2.9,3.4-3.7
		s3.2-1.3,5.1-1.3c1,0,2,0.1,2.8,0.3c0.9,0.2,1.7,0.5,2.3,0.9l-1.1,2.3c-1-0.7-2.3-1-4-1c-2.2,0-3.8,0.7-5.1,2
		c-1.2,1.3-1.8,3.3-1.8,5.8c0,0.3,0,0.6,0,0.7c0.6-0.9,1.4-1.6,2.4-2c1-0.5,2.2-0.7,3.5-0.7C422.1,435.4,423.3,435.7,424.3,436.2z
		 M423.7,444.8c0.8-0.7,1.3-1.7,1.3-2.9c0-1.2-0.4-2.2-1.3-2.9c-0.9-0.7-2-1.1-3.5-1.1c-0.9,0-1.8,0.2-2.5,0.5
		c-0.7,0.4-1.3,0.8-1.7,1.5c-0.4,0.6-0.6,1.3-0.6,2c0,0.7,0.2,1.4,0.6,2c0.4,0.6,0.9,1.1,1.7,1.5c0.7,0.4,1.6,0.5,2.7,0.5
		C421.7,445.9,422.8,445.5,423.7,444.8z"/>
	<path d="M433.7,444.7c0.4,0.4,0.5,0.9,0.5,1.4c0,0.3,0,0.6-0.1,0.9c-0.1,0.3-0.2,0.7-0.4,1.3l-1.4,4.1h-1.9l1.1-4.4
		c-0.4-0.1-0.7-0.4-0.9-0.7c-0.2-0.3-0.3-0.7-0.3-1.1c0-0.6,0.2-1.1,0.6-1.5c0.4-0.4,0.8-0.6,1.4-0.6
		C432.9,444.1,433.3,444.3,433.7,444.7z"/>
	<path d="M449.5,437.2c1.4,1.1,2.1,2.6,2.1,4.6c0,1.2-0.3,2.3-0.9,3.3c-0.6,1-1.5,1.7-2.6,2.3c-1.2,0.6-2.6,0.8-4.3,0.8
		c-1.5,0-2.9-0.2-4.2-0.7s-2.5-1.1-3.4-1.9l1.4-2.3c0.7,0.7,1.6,1.2,2.7,1.6c1.1,0.4,2.3,0.6,3.5,0.6c1.6,0,2.8-0.3,3.6-1
		c0.9-0.7,1.3-1.6,1.3-2.7c0-1.2-0.5-2.2-1.4-2.8s-2.6-1-4.9-1h-4.7l1.1-10.8h11.7v2.6h-9.2l-0.6,5.7h2.3
		C445.9,435.5,448.1,436.1,449.5,437.2z"/>
</g>
<g>
	<path d="M177.6,695.1c-1.3-0.7-2.4-1.7-3.1-3c-0.8-1.3-1.1-2.7-1.1-4.3c0-1.6,0.4-3,1.1-4.3c0.8-1.3,1.8-2.3,3.1-3
		c1.3-0.7,2.8-1.1,4.5-1.1c1.2,0,2.4,0.2,3.4,0.6s1.9,1,2.7,1.8l-1.1,1.1c-1.3-1.3-2.9-2-4.9-2c-1.3,0-2.5,0.3-3.6,0.9
		s-1.9,1.4-2.5,2.5c-0.6,1-0.9,2.2-0.9,3.5s0.3,2.5,0.9,3.5c0.6,1,1.4,1.9,2.5,2.5s2.3,0.9,3.6,0.9c2,0,3.6-0.7,4.9-2l1.1,1.1
		c-0.7,0.8-1.6,1.4-2.7,1.8c-1.1,0.4-2.2,0.6-3.4,0.6C180.4,696.1,179,695.8,177.6,695.1z"/>
	<path d="M202.6,683.5V696h-1.7v-11h-7.8v11h-1.7v-12.5H202.6z"/>
	<path d="M215.4,684.7c0.9,0.8,1.3,2,1.3,3.6v7.7h-1.6v-1.9c-0.4,0.6-0.9,1.2-1.7,1.5c-0.7,0.4-1.6,0.5-2.6,0.5
		c-1.4,0-2.5-0.3-3.3-1s-1.2-1.5-1.2-2.6c0-1.1,0.4-1.9,1.1-2.6s2-1,3.7-1h4v-0.8c0-1.1-0.3-1.9-0.9-2.5c-0.6-0.6-1.5-0.8-2.6-0.8
		c-0.8,0-1.5,0.1-2.3,0.4c-0.7,0.3-1.4,0.6-1.9,1.1l-0.8-1.3c0.6-0.5,1.4-1,2.3-1.2c0.9-0.3,1.8-0.4,2.8-0.4
		C213.3,683.4,214.5,683.8,215.4,684.7z M213.5,694.1c0.7-0.4,1.2-1.1,1.5-1.9v-2h-3.9c-2.1,0-3.2,0.7-3.2,2.2
		c0,0.7,0.3,1.3,0.8,1.7s1.3,0.6,2.3,0.6C212,694.8,212.8,694.6,213.5,694.1z"/>
	<path d="M231.4,683.5V696h-1.7v-11h-6l-0.2,3.1c-0.1,2.6-0.4,4.6-0.9,6s-1.3,2.1-2.5,2.1c-0.3,0-0.7-0.1-1.2-0.2l0.1-1.4
		c0.3,0.1,0.5,0.1,0.6,0.1c0.6,0,1.1-0.3,1.5-0.9s0.6-1.3,0.7-2.2c0.1-0.9,0.2-2.1,0.3-3.5l0.2-4.5H231.4z"/>
	<path d="M245.1,689c0.8,0.7,1.2,1.7,1.2,2.9c0,1.3-0.4,2.3-1.3,3.1c-0.9,0.7-2.1,1.1-3.8,1l-5,0v-12.5h1.7v4.4l3.7,0
		C243.1,688,244.3,688.3,245.1,689z M243.7,694c0.6-0.5,0.9-1.2,0.9-2.1c0-0.9-0.3-1.6-0.9-2c-0.6-0.4-1.5-0.7-2.6-0.7l-3.2,0v5.5
		l3.2,0C242.3,694.8,243.1,694.5,243.7,694z"/>
	<path d="M249.5,683.5h1.7v5.5h7.8v-5.5h1.7V696h-1.7v-5.5h-7.8v5.5h-1.7V683.5z"/>
	<path d="M275.1,683.5V696h-1.5v-4.1h-3.9h-0.5l-2.9,4.1h-1.8l3.1-4.4c-1-0.3-1.7-0.7-2.2-1.4c-0.5-0.6-0.8-1.5-0.8-2.5
		c0-1.4,0.5-2.4,1.4-3.2c0.9-0.7,2.2-1.1,3.9-1.1H275.1z M269.8,690.6h3.8V685h-3.7c-2.4,0-3.7,0.9-3.7,2.8
		C266.3,689.7,267.4,690.6,269.8,690.6z"/>
	<path d="M179.9,710.8v20.7H177v-18.2h-4.7v-2.6H179.9z"/>
	<path d="M199,729v2.6h-14.9v-2l8.4-8.1c1-1,1.7-1.8,2.1-2.6c0.4-0.7,0.5-1.4,0.5-2.2c0-1.1-0.4-1.9-1.1-2.5
		c-0.8-0.6-1.9-0.9-3.3-0.9c-2.3,0-4.1,0.8-5.3,2.3l-2-1.7c0.8-1,1.9-1.8,3.2-2.3c1.3-0.6,2.8-0.8,4.4-0.8c2.2,0,3.9,0.5,5.2,1.6
		c1.3,1,1.9,2.4,1.9,4.2c0,1.1-0.2,2.2-0.7,3.1c-0.5,1-1.4,2.1-2.7,3.4l-6.3,6.1H199z"/>
	<path d="M205.1,728.3c0.4,0.4,0.5,0.9,0.5,1.4c0,0.3,0,0.6-0.1,0.9c-0.1,0.3-0.2,0.7-0.4,1.3l-1.4,4.1h-1.9l1.1-4.4
		c-0.4-0.1-0.7-0.4-0.9-0.7c-0.2-0.3-0.3-0.7-0.3-1.1c0-0.6,0.2-1.1,0.6-1.5c0.4-0.4,0.8-0.6,1.4-0.6
		C204.3,727.7,204.7,727.9,205.1,728.3z"/>
	<path d="M223.2,710.8v2l-8.4,18.7h-3.1l8.2-18.2h-9.5v3.7h-2.8v-6.3H223.2z"/>
</g>
<g>
	<path d="M283.3,281.4h-3.9v5.1h-2.9v-5.1h-11.5v-2.1l10.6-13.6h3.2l-10.2,13.1h8v-4.5h2.8v4.5h3.9V281.4z"/>
	<path d="M289,283.2c0.4,0.4,0.5,0.9,0.5,1.4c0,0.3,0,0.6-0.1,0.9c-0.1,0.3-0.2,0.7-0.4,1.3l-1.4,4.1h-1.9l1.1-4.4
		c-0.4-0.1-0.7-0.4-0.9-0.7c-0.2-0.3-0.3-0.7-0.3-1.1c0-0.6,0.2-1.1,0.6-1.5c0.4-0.4,0.8-0.6,1.4-0.6
		C288.2,282.6,288.6,282.8,289,283.2z"/>
	<path d="M296.1,285.4c-1.3-0.8-2.3-2.1-3-3.7s-1.1-3.5-1.1-5.7s0.4-4.1,1.1-5.7s1.7-2.8,3-3.7c1.3-0.8,2.7-1.3,4.4-1.3
		c1.6,0,3.1,0.4,4.3,1.3c1.3,0.8,2.3,2.1,3,3.7c0.7,1.6,1.1,3.5,1.1,5.7s-0.4,4.1-1.1,5.7c-0.7,1.6-1.7,2.8-3,3.7
		c-1.3,0.8-2.7,1.3-4.3,1.3C298.9,286.7,297.4,286.3,296.1,285.4z M304.5,282c1-1.4,1.5-3.3,1.5-5.9c0-2.6-0.5-4.6-1.5-5.9
		c-1-1.4-2.3-2-4-2c-1.7,0-3,0.7-4,2c-1,1.4-1.5,3.3-1.5,5.9c0,2.6,0.5,4.6,1.5,5.9c1,1.4,2.3,2,4,2
		C302.2,284.1,303.5,283.4,304.5,282z"/>
</g>
<g>
	<path d="M135.3,233.8h-3.9v5.1h-2.9v-5.1h-11.5v-2.1l10.6-13.6h3.2l-10.2,13.1h8v-4.5h2.8v4.5h3.9V233.8z"/>
	<path d="M141,235.6c0.4,0.4,0.5,0.9,0.5,1.4c0,0.3,0,0.6-0.1,0.9c-0.1,0.3-0.2,0.7-0.4,1.3l-1.4,4.1h-1.9l1.1-4.4
		c-0.4-0.1-0.7-0.4-0.9-0.7c-0.2-0.3-0.3-0.7-0.3-1.1c0-0.6,0.2-1.1,0.6-1.5c0.4-0.4,0.8-0.6,1.4-0.6
		C140.2,235,140.6,235.2,141,235.6z"/>
	<path d="M156.8,228.1c1.4,1.1,2.1,2.6,2.1,4.6c0,1.2-0.3,2.3-0.9,3.3c-0.6,1-1.5,1.7-2.6,2.3s-2.6,0.8-4.3,0.8
		c-1.5,0-2.9-0.2-4.2-0.7c-1.4-0.4-2.5-1.1-3.4-1.9l1.4-2.3c0.7,0.7,1.6,1.2,2.7,1.6c1.1,0.4,2.3,0.6,3.5,0.6c1.6,0,2.8-0.3,3.6-1
		s1.3-1.6,1.3-2.7c0-1.2-0.5-2.2-1.4-2.8c-0.9-0.6-2.6-1-4.9-1h-4.7l1.1-10.8h11.7v2.6h-9.2l-0.6,5.7h2.3
		C153.2,226.4,155.4,226.9,156.8,228.1z"/>
</g>
<g>
	<path d="M472.9,721.6c1.1,1.1,1.6,2.4,1.6,4c0,1.2-0.3,2.3-0.9,3.2s-1.5,1.7-2.7,2.3c-1.2,0.6-2.6,0.8-4.3,0.8
		c-1.5,0-2.9-0.2-4.3-0.7c-1.4-0.4-2.5-1.1-3.3-1.9l1.4-2.3c0.7,0.7,1.6,1.2,2.7,1.6c1.1,0.4,2.3,0.6,3.5,0.6c1.5,0,2.7-0.3,3.6-1
		c0.9-0.7,1.3-1.6,1.3-2.7s-0.4-2-1.3-2.7c-0.8-0.6-2.1-0.9-3.9-0.9h-1.7V720l5.2-6.4h-10V711h13.7v2l-5.4,6.7
		C470.3,719.9,471.8,720.6,472.9,721.6z"/>
	<path d="M480.6,728.5c0.4,0.4,0.5,0.9,0.5,1.4c0,0.3,0,0.6-0.1,0.9c-0.1,0.3-0.2,0.7-0.4,1.3l-1.4,4.1h-1.9l1.1-4.4
		c-0.4-0.1-0.7-0.4-0.9-0.7c-0.2-0.3-0.3-0.7-0.3-1.1c0-0.6,0.2-1.1,0.6-1.5c0.4-0.4,0.8-0.6,1.4-0.6
		C479.8,727.9,480.2,728.1,480.6,728.5z"/>
	<path d="M498.8,729.2v2.6h-14.9v-2l8.4-8.1c1-1,1.7-1.8,2.1-2.6c0.4-0.7,0.5-1.4,0.5-2.2c0-1.1-0.4-1.9-1.1-2.5
		c-0.8-0.6-1.9-0.9-3.3-0.9c-2.3,0-4.1,0.8-5.3,2.3l-2-1.7c0.8-1,1.9-1.8,3.2-2.3c1.3-0.6,2.8-0.8,4.4-0.8c2.2,0,3.9,0.5,5.2,1.6
		s1.9,2.4,1.9,4.2c0,1.1-0.2,2.2-0.7,3.1c-0.5,1-1.4,2.1-2.7,3.4l-6.3,6.1H498.8z"/>
</g>
<g>
	<g>
		
			<rect x="36.7" y="509.5" fill-rule="evenodd" clip-rule="evenodd" fill="#F1F2F2" stroke="#848484" stroke-miterlimit="10" width="161" height="125"/>
		
			<rect x="43.1" y="512.5" fill-rule="evenodd" clip-rule="evenodd" fill="#F1F2F2" stroke="#848484" stroke-miterlimit="10" width="150.1" height="119.2"/>
		
			<rect x="47" y="516" fill-rule="evenodd" clip-rule="evenodd" fill="#F1F2F2" stroke="#848484" stroke-miterlimit="10" width="33.9" height="46.3"/>
		
			<rect x="47" y="581.5" fill-rule="evenodd" clip-rule="evenodd" fill="#F1F2F2" stroke="#848484" stroke-miterlimit="10" width="33.9" height="46.3"/>
		<polygon fill-rule="evenodd" clip-rule="evenodd" fill="#F1F2F2" stroke="#848484" stroke-miterlimit="10" points="98.1,512.5 
			77.4,548 77.4,596.1 77.4,548 77.4,596.1 98.1,631.7 193.2,631.7 193.2,631.6 193.2,512.5 		"/>
		<polyline fill-rule="evenodd" clip-rule="evenodd" fill="#F1F2F2" stroke="#848484" stroke-miterlimit="10" points="98.1,512.5 
			113.2,537.4 77.4,548 		"/>
		
			<line fill-rule="evenodd" clip-rule="evenodd" fill="#F1F2F2" stroke="#848484" stroke-miterlimit="10" x1="77.4" y1="548" x2="98.1" y2="512.5"/>
		<polyline fill-rule="evenodd" clip-rule="evenodd" fill="#F1F2F2" stroke="#848484" stroke-miterlimit="10" points="98.1,631.7 
			113.2,606.7 77.4,596.1 		"/>
		
			<line fill-rule="evenodd" clip-rule="evenodd" fill="#F1F2F2" stroke="#848484" stroke-miterlimit="10" x1="77.4" y1="596.1" x2="98.1" y2="631.7"/>
	</g>
	<g>
		
			<rect x="30.7" y="642.8" transform="matrix(-1.836970e-16 1 -1 -1.836970e-16 711.4602 606.1675)" fill="#F1F2F2" stroke="#848484" stroke-miterlimit="10" width="44" height="32"/>
		
			<rect x="60.4" y="657.6" transform="matrix(-1.836970e-16 1 -1 -1.836970e-16 728.3072 588.9769)" fill="#F1F2F2" stroke="#848484" stroke-miterlimit="10" width="18.4" height="2.1"/>
	</g>
	<g>
		
			<rect x="30.7" y="469.1" transform="matrix(-1.836970e-16 1 -1 -1.836970e-16 537.7319 432.4391)" fill="#F1F2F2" stroke="#848484" stroke-miterlimit="10" width="44" height="32"/>
		
			<rect x="60.4" y="483.9" transform="matrix(1.969919e-13 1 -1 1.969919e-13 554.5788 415.2485)" fill="#F1F2F2" stroke="#848484" stroke-miterlimit="10" width="18.4" height="2.1"/>
	</g>
</g>
<g>
	
		<rect x="36.7" y="378.8" transform="matrix(-1 -4.486290e-11 4.486290e-11 -1 207.4626 803.9202)" fill-rule="evenodd" clip-rule="evenodd" fill="#F1F2F2" stroke="#848484" stroke-miterlimit="10" width="134.1" height="46.3"/>
	<line fill="#F1F2F2" stroke="#848484" stroke-miterlimit="10" x1="165.9" y1="378.8" x2="165.9" y2="425.2"/>
	<line fill="#F1F2F2" stroke="#848484" stroke-miterlimit="10" x1="41.7" y1="378.8" x2="41.7" y2="425.1"/>
	<line fill="#F1F2F2" stroke="#848484" stroke-miterlimit="10" x1="165.9" y1="423" x2="41.7" y2="423"/>
	<line fill="#F1F2F2" stroke="#848484" stroke-miterlimit="10" x1="46" y1="401.6" x2="161.6" y2="401.6"/>
	
		<rect x="154.2" y="387.8" transform="matrix(-0.9868 0.162 -0.162 -0.9868 374.2528 773.2272)" fill="#F1F2F2" stroke="#848484" stroke-miterlimit="10" width="2.9" height="28.2"/>
	
		<rect x="143.8" y="387.8" transform="matrix(-0.9961 8.815246e-02 -8.815246e-02 -0.9961 325.2974 789.371)" fill="#F1F2F2" stroke="#848484" stroke-miterlimit="10" width="2.9" height="28.2"/>
	
		<rect x="133.2" y="387.5" transform="matrix(-0.9734 0.229 -0.229 -0.9734 357.7908 761.7359)" fill="#F1F2F2" stroke="#848484" stroke-miterlimit="10" width="2.9" height="28.2"/>
	
		<rect x="121.5" y="387.8" transform="matrix(-0.9884 0.152 -0.152 -0.9884 305.6018 780.5167)" fill="#F1F2F2" stroke="#848484" stroke-miterlimit="10" width="2.9" height="28.2"/>
	
		<rect x="111.3" y="387.7" transform="matrix(-0.999 4.511170e-02 -4.511170e-02 -0.999 243.4537 798.0756)" fill="#F1F2F2" stroke="#848484" stroke-miterlimit="10" width="2.9" height="28.2"/>
	
		<rect x="100.9" y="387.7" transform="matrix(-0.9884 0.152 -0.152 -0.9884 264.6125 783.3361)" fill="#F1F2F2" stroke="#848484" stroke-miterlimit="10" width="2.9" height="28.2"/>
	
		<rect x="90.4" y="387.5" transform="matrix(-0.999 4.511170e-02 -4.511170e-02 -0.999 201.6902 798.7032)" fill="#F1F2F2" stroke="#848484" stroke-miterlimit="10" width="2.9" height="28.2"/>
	
		<rect x="80.1" y="387.5" transform="matrix(-0.9787 0.2052 -0.2052 -0.9787 243.6933 777.9873)" fill="#F1F2F2" stroke="#848484" stroke-miterlimit="10" width="2.9" height="28.2"/>
	
		<rect x="69.7" y="387.5" transform="matrix(-0.9884 0.152 -0.152 -0.9884 202.6293 787.8197)" fill="#F1F2F2" stroke="#848484" stroke-miterlimit="10" width="2.9" height="28.2"/>
	
		<rect x="59.4" y="387.5" transform="matrix(-0.9964 8.473843e-02 -8.473843e-02 -0.9964 155.5643 796.6518)" fill="#F1F2F2" stroke="#848484" stroke-miterlimit="10" width="2.9" height="28.2"/>
	
		<rect x="49.1" y="387.9" transform="matrix(-0.9713 0.2379 -0.2379 -0.9713 195.2972 780.3724)" fill="#F1F2F2" stroke="#848484" stroke-miterlimit="10" width="2.9" height="28.2"/>
</g>
<g>
	<g>
		
			<rect x="296.4" y="474.2" fill-rule="evenodd" clip-rule="evenodd" fill="#F1F2F2" stroke="#848484" stroke-miterlimit="10" width="6.2" height="122.4"/>
		<polygon fill-rule="evenodd" clip-rule="evenodd" fill="#F1F2F2" stroke="#848484" stroke-miterlimit="10" points="302.6,586.3 
			307.4,566.6 307.4,504.4 302.6,484.7 		"/>
		
			<rect x="307.4" y="525" fill-rule="evenodd" clip-rule="evenodd" fill="#F1F2F2" stroke="#848484" stroke-miterlimit="10" width="5.4" height="20.9"/>
	</g>
</g>
<g>
	<path fill="#F1F2F2" stroke="#848484" stroke-miterlimit="10" d="M379.1,185c-4,0.3-15.5,0.5-23.7-5.2c-7.3-5-12.9-14.2-14.6-18.4
		V77.6h38.3v83.7C379.1,169.2,379.1,177.1,379.1,185z M340.9,161.3h38.3"/>
	<rect x="374.4" y="86.9" fill="#F1F2F2" stroke="#848484" stroke-miterlimit="10" width="4.8" height="3.4"/>
	<rect x="374.4" y="107.6" fill="#F1F2F2" stroke="#848484" stroke-miterlimit="10" width="4.8" height="3.4"/>
	<rect x="374.4" y="128.1" fill="#F1F2F2" stroke="#848484" stroke-miterlimit="10" width="4.8" height="3.4"/>
	<rect x="374.4" y="148.8" fill="#F1F2F2" stroke="#848484" stroke-miterlimit="10" width="4.8" height="3.4"/>
	<rect x="378.4" y="84.5" fill="#F1F2F2" stroke="#848484" stroke-miterlimit="10" width="0.8" height="8.2"/>
	<rect x="378.4" y="105.1" fill="#F1F2F2" stroke="#848484" stroke-miterlimit="10" width="0.8" height="8.2"/>
	<rect x="378.4" y="125.7" fill="#F1F2F2" stroke="#848484" stroke-miterlimit="10" width="0.8" height="8.2"/>
	<rect x="378.4" y="146.4" fill="#F1F2F2" stroke="#848484" stroke-miterlimit="10" width="0.8" height="8.2"/>
</g>
<g>
	<path fill-rule="evenodd" clip-rule="evenodd" fill="#F1F2F2" stroke="#848484" stroke-miterlimit="10" d="M484.5,637.2h65.1h52.4
		c3.5,0,6.3-2.9,6.3-6.3v-52.5V419.6c0-3.5-2.9-6.3-6.3-6.3h-52.4c-3.5,0-6.3,2.9-6.3,6.3v146c0,3.5-2.8,6.3-6.3,6.3h-52.4
		c-3.5,0-6.3,2.9-6.3,6.3v52.5C478.1,634.3,481,637.2,484.5,637.2z"/>
	<g>
		<path fill-rule="evenodd" clip-rule="evenodd" fill="#F1F2F2" stroke="#848484" stroke-miterlimit="10" d="M553.7,572
			c-7.4,0-10.5,0.4-10.5,9.8v27.9c0,9.4,3.2,9.8,10.5,9.8h27.8c7.4,0,10.5-0.4,10.5-9.8v-27.9c0-9.4-3.2-9.8-10.5-9.8H553.7z"/>
		<path fill-rule="evenodd" clip-rule="evenodd" fill="#F1F2F2" stroke="#848484" stroke-miterlimit="10" d="M553.7,572
			c-7.4,0-10.5,0.4-10.5,9.8v27.9c0,9.4,3.2,9.8,10.5,9.8h27.8c7.4,0,10.5-0.4,10.5-9.8v-27.9c0-9.4-3.2-9.8-10.5-9.8H553.7z"/>
		<path fill-rule="evenodd" clip-rule="evenodd" fill="#F1F2F2" stroke="#848484" stroke-miterlimit="10" d="M553.7,524.9
			c-7.4,0-10.5,0.4-10.5,9.8v27.9c0,9.4,3.2,9.8,10.5,9.8h27.8c7.4,0,10.5-0.4,10.5-9.8v-27.9c0-9.4-3.2-9.8-10.5-9.8H553.7z"/>
		<path fill-rule="evenodd" clip-rule="evenodd" fill="#F1F2F2" stroke="#848484" stroke-miterlimit="10" d="M553.7,524.9
			c-7.4,0-10.5,0.4-10.5,9.8v27.9c0,9.4,3.2,9.8,10.5,9.8h27.8c7.4,0,10.5-0.4,10.5-9.8v-27.9c0-9.4-3.2-9.8-10.5-9.8H553.7z"/>
		<path fill-rule="evenodd" clip-rule="evenodd" fill="#F1F2F2" stroke="#848484" stroke-miterlimit="10" d="M553.7,477.8
			c-7.4,0-10.5,0.4-10.5,9.7v28c0,9.4,3.2,9.7,10.5,9.7h27.8c7.4,0,10.5-0.4,10.5-9.7v-28c0-9.4-3.2-9.7-10.5-9.7H553.7z"/>
		<path fill-rule="evenodd" clip-rule="evenodd" fill="#F1F2F2" stroke="#848484" stroke-miterlimit="10" d="M553.7,477.8
			c-7.4,0-10.5,0.4-10.5,9.7v28c0,9.4,3.2,9.7,10.5,9.7h27.8c7.4,0,10.5-0.4,10.5-9.7v-28c0-9.4-3.2-9.7-10.5-9.7H553.7z"/>
		<path fill-rule="evenodd" clip-rule="evenodd" fill="#F1F2F2" stroke="#848484" stroke-miterlimit="10" d="M504.9,572
			c-7.4,0-10.5,0.4-10.5,9.8v27.9c0,9.4,3.2,9.8,10.5,9.8h27.8c7.4,0,10.5-0.4,10.5-9.8v-27.9c0-9.4-3.2-9.8-10.5-9.8H504.9z"/>
		<path fill-rule="evenodd" clip-rule="evenodd" fill="#F1F2F2" stroke="#848484" stroke-miterlimit="10" d="M553.9,430.8
			c-7.4,0-10.5,0.4-10.5,9.7v28c0,9.4,3.2,9.7,10.5,9.7h27.8c7.4,0,10.5-0.4,10.5-9.7v-28c0-9.4-3.2-9.7-10.5-9.7H553.9z"/>
		<path fill-rule="evenodd" clip-rule="evenodd" fill="#F1F2F2" stroke="#848484" stroke-miterlimit="10" d="M601.5,637.2H487.7
			h-2.8c-3.7,0-6.7-3.3-6.7-7.2v-3v-47.7c0-4,3-7.2,6.7-7.2h2.8c3.7,0,6.7,3.3,6.7,7.2v40.4H592V430.8h-42.1c-3.7,0-6.7-3.3-6.7-7.2
			v-3c0-4,3-7.2,6.7-7.2h48.8h2.8c3.7,0,6.7,3.3,6.7,7.2v3v203.4v3v0C608.3,633.9,605.2,637.2,601.5,637.2z"/>
	</g>
</g>
<g>
	<path fill-rule="evenodd" clip-rule="evenodd" fill="#F1F2F2" stroke="#848484" stroke-miterlimit="10" d="M326.8,570.3v-31h25.7
		v31H326.8L326.8,570.3z M326.8,424h38.4v115.4h-38.4V424z"/>
	<path fill-rule="evenodd" clip-rule="evenodd" fill="#F1F2F2" stroke="#848484" stroke-miterlimit="10" d="M340.5,470.2
		c-6.7,0-7.3,6-7.3,13.6c0,7.4,0.6,13.5,7.3,13.5s12.2-6,12.2-13.5C352.6,476.2,347.2,470.2,340.5,470.2z"/>
	
		<rect x="341.7" y="438.5" fill-rule="evenodd" clip-rule="evenodd" fill="#F1F2F2" stroke="#848484" stroke-miterlimit="10" width="5.1" height="90.6"/>
	
		<rect x="341.7" y="438.5" fill-rule="evenodd" clip-rule="evenodd" fill="#F1F2F2" stroke="#848484" stroke-miterlimit="10" width="5.1" height="90.6"/>
	<polygon fill-rule="evenodd" clip-rule="evenodd" fill="#F1F2F2" stroke="#848484" stroke-miterlimit="10" points="342,446.2 
		337.8,460.8 337.8,506.8 342,521.3 	"/>
	<polygon fill-rule="evenodd" clip-rule="evenodd" fill="#F1F2F2" stroke="#848484" stroke-miterlimit="10" points="342,446.2 
		337.8,460.8 337.8,506.8 342,521.3 	"/>
	<path fill-rule="evenodd" clip-rule="evenodd" fill="#F1F2F2" stroke="#848484" stroke-miterlimit="10" d="M355.3,567.6v-25.5h2.5
		v25.5H355.3L355.3,567.6z M326.8,424.1v-31h25.8v31H326.8L326.8,424.1z M355.3,395.7h2.5v25.5h-2.5V395.7z"/>
</g>
<g>
	<g>
		<path fill="#F1F2F2" stroke="#848484" stroke-miterlimit="10" d="M521.7,316.9c-9.5,0-17.1,2.8-17.1,6.4c0,3.5,7.7,6.4,17.1,6.4
			s17.2-2.9,17.2-6.4C538.9,319.7,531.2,316.9,521.7,316.9z"/>
		<path fill="#F1F2F2" stroke="#848484" stroke-miterlimit="10" d="M521.7,288.2c-9.5,0-17.1,7.7-17.1,17.2
			c0,9.5,7.7,17.2,17.1,17.2s17.2-7.7,17.2-17.2C538.9,295.9,531.2,288.2,521.7,288.2z"/>
	</g>
	<g>
		<path fill="#F1F2F2" stroke="#848484" stroke-miterlimit="10" d="M573.3,233.8c9.5,0,17.1-2.8,17.1-6.4c0-3.5-7.7-6.4-17.1-6.4
			s-17.2,2.9-17.2,6.4C556.1,231,563.8,233.8,573.3,233.8z"/>
		<path fill="#F1F2F2" stroke="#848484" stroke-miterlimit="10" d="M573.3,262.5c9.5,0,17.1-7.7,17.1-17.2c0-9.5-7.7-17.2-17.1-17.2
			s-17.2,7.7-17.2,17.2C556.1,254.8,563.8,262.5,573.3,262.5z"/>
	</g>
	<g>
		<path fill="#F1F2F2" stroke="#848484" stroke-miterlimit="10" d="M521.7,232.4c9.5,0,17.1-2.8,17.1-6.4c0-3.5-7.7-6.4-17.1-6.4
			s-17.2,2.9-17.2,6.4C504.6,229.5,512.3,232.4,521.7,232.4z"/>
		<path fill="#F1F2F2" stroke="#848484" stroke-miterlimit="10" d="M521.7,261c9.5,0,17.1-7.7,17.1-17.2s-7.7-17.2-17.1-17.2
			s-17.2,7.7-17.2,17.2S512.3,261,521.7,261z"/>
	</g>
	<g>
		<path fill="#F1F2F2" stroke="#848484" stroke-miterlimit="10" d="M573.3,314.9c-9.5,0-17.2,2.8-17.2,6.4c0,3.5,7.7,6.4,17.2,6.4
			c9.5,0,17.1-2.9,17.1-6.4C590.4,317.8,582.8,314.9,573.3,314.9z"/>
		<path fill="#F1F2F2" stroke="#848484" stroke-miterlimit="10" d="M573.3,286.2c-9.5,0-17.2,7.7-17.2,17.2
			c0,9.5,7.7,17.2,17.2,17.2c9.5,0,17.1-7.7,17.1-17.2C590.4,293.9,582.8,286.2,573.3,286.2z"/>
	</g>
	<rect x="488.2" y="239.8" fill="#F1F2F2" stroke="#848484" stroke-miterlimit="10" width="119.7" height="69.1"/>
</g>
<g>
</g>
<g>
</g>
<g>
</g>
<g>
</g>
<g>
</g>
<g>
</g>
</svg>
