<svg id="Слой_1" data-name="Слой 1" xmlns="http://www.w3.org/2000/svg" viewBox="0 0 87.632 200.92589"><title>1.08.02</title><polygon points="0 5.52 47.299 5.52 87.632 5.52 87.632 163.2 47.299 163.2 47.299 200.926 0 200.926 0 163.2 0 5.52" style="fill:#fff;fill-rule:evenodd"/><path d="M186.2952,266.95619H182.469V269.593h3.8262Zm0-4.547H182.469v2.6367h3.8262Zm-5.0213,4.547h-2.54329V269.593h2.54329Zm0-4.547h-2.54329v2.6367h2.54329Zm8.76561,4.547h-2.5433V269.593h2.5433Zm0-4.547h-2.5433v2.6367h2.5433Zm-12.6006-2.01349h14.739v11.2204H173.3896v-5.61891h4.0493V261.811H172.8371v-1.4153Z" transform="translate(-168.9077 -108.82101)" style="fill:#003915;fill-rule:evenodd"/><path d="M186.1804,143.6131a.374.374,0,1,1,.37469-.6474l13.9201,8.03989a.374.374,0,1,1-.37471.6474Z" transform="translate(-168.9077 -108.82101)" style="fill:#003915"/><path d="M212.1248,261.6801a.37408.37408,0,0,1-.64751-.3748l8.0399-13.92011a.37408.37408,0,0,1,.64751.3748Z" transform="translate(-168.9077 -108.82101)" style="fill:#003915"/><rect x="40.8479" y="130.52008" width="2.6022" height="5.4666" style="fill:#003915"/><rect x="40.8479" y="151.70648" width="2.6022" height="5.4666" style="fill:#003915"/><rect x="3.3537" y="130.52008" width="40.09641" height="2.6022" style="fill:#003915"/><rect x="86.1064" y="94.64029" width="1.5256" height="2.60219" style="fill:#003915"/><rect x="86.1064" y="97.92729" width="1.5256" height="2.60219" style="fill:#003915"/><rect x="86.1064" y="154.77559" width="1.5256" height="2.6022" style="fill:#003915"/><rect y="9.63779" width="5.00211" height="189.9858" style="fill:#003915"/><rect x="82.63" y="9.63779" width="5.002" height="147.44209" style="fill:#003915"/><rect y="194.50028" width="46.2847" height="6.42561" style="fill:#003915"/><rect x="40.7498" y="156.77429" width="6.4256" height="44.1516" style="fill:#003915"/><rect x="69.00011" y="156.77429" width="18.6319" height="6.4256" style="fill:#003915"/><rect x="40.9201" y="156.77429" width="8.13579" height="6.4256" style="fill:#003915"/><rect x="53.99271" y="30.8942" width="28.20869" height="8.1601" style="fill:#003915"/><rect y="30.8942" width="16.6301" height="8.1601" style="fill:#003915"/><rect y="5.5199" width="20.04269" height="8.1601" style="fill:#003915"/><rect x="67.6778" y="5.5199" width="19.95421" height="8.1601" style="fill:#003915"/><rect x="79.47189" y="10.43997" width="8.16011" height="28.61432" style="fill:#003915"/><rect width="7.3857" height="39.05429" style="fill:#003915"/><path d="M204.47659,143.0629v1.66989h-.697V143.0629Zm17.2256,0v1.66989H204.978V143.0629Zm1.19821,0v1.66989h-.69711V143.0629Zm.50169,1.66989V143.0629h2.1331v-.5014H203.7796v-2.3457h21.7556v-.5015H203.2784v8.161H225.5352v-.5015H203.7796v-2.1395h21.70819v-.50153Z" transform="translate(-168.9077 -108.82101)" style="fill:#003915;fill-rule:evenodd"/><path d="M174.2352,275.30991v9.8223a.90526.90526,0,0,0,.9039.9054h4.61031a4.59568,4.59568,0,0,0,4.591-4.5896V278.9958a4.59572,4.59572,0,0,0-4.591-4.59041H175.1391a.90469.90469,0,0,0-.9039.90451m9.8606,6.13809a4.35111,4.35111,0,0,1-4.34639,4.345H175.1391a.6615.6615,0,0,1-.6599-.6608v-9.8223a.66074.66074,0,0,1,.6599-.65991h4.61031a4.35147,4.35147,0,0,1,4.34639,4.34581Z" transform="translate(-168.9077 -108.82101)" style="fill:#003915"/><path d="M183.0056,281.4478a3.2587,3.2587,0,0,1-3.2562,3.25439h-2.68811a.56784.56784,0,0,1-.56749-.5672v-3.5753h-.24521v3.5753a.814.814,0,0,0,.8127.81241h2.68811a3.50406,3.50406,0,0,0,3.50079-3.4996v-2.4523a3.50469,3.50469,0,0,0-3.50079-3.50079h-2.68811a.81448.81448,0,0,0-.8127.8136v3.5753h.24521v-3.5753a.56836.56836,0,0,1,.56749-.56841h2.68811a3.25935,3.25935,0,0,1,3.2562,3.2556Z" transform="translate(-168.9077 -108.82101)" style="fill:#003915"/><path d="M179.4019,280.2209a.7835.7835,0,1,0,.78349-.78371.78479.78479,0,0,0-.78349.78371m1.3224,0a.53875.53875,0,1,1-.53891-.53911A.53972.53972,0,0,1,180.7243,280.2209Z" transform="translate(-168.9077 -108.82101)" style="fill:#003915"/><rect x="10.71899" y="171.27748" width="1.1165" height="0.2449" style="fill:#003915"/><rect x="11.15469" y="170.84239" width="0.24541" height="1.116" style="fill:#003915"/><path d="M175.4175,279.88361V279.48a.17367.17367,0,0,1,.1741-.173h.3792a.17373.17373,0,0,1,.1741.173v.40361h.2449V279.48a.41878.41878,0,0,0-.419-.4182h-.3792a.41872.41872,0,0,0-.4187.4182v.40561l.0374-.002Zm.7274,1.07719a.17446.17446,0,0,1-.1741.174h-.3792a.1744.1744,0,0,1-.1741-.174v-.40111h-.2072l-.0374-.00229v.4034a.41863.41863,0,0,0,.4187.4187h.3792a.41869.41869,0,0,0,.419-.4187v-.40111h-.2449Z" transform="translate(-168.9077 -108.82101)" style="fill:#003915"/><path d="M174.75,280.2209a.461.461,0,0,0,.4603.4612h3.0804a.46045.46045,0,0,0,0-.9209h-3.0804a.46045.46045,0,0,0-.4603.4597m3.7567,0a.2167.2167,0,0,1-.216.21629h-3.0804a.21555.21555,0,0,1,0-.43109h3.0804A.216.216,0,0,1,178.5067,280.2209Z" transform="translate(-168.9077 -108.82101)" style="fill:#003915"/><path d="M188.23441,250.1187a3.91691,3.91691,0,0,0-3.913-3.9115h-5.6653a.67726.67726,0,0,0-.63919.4561,1.24649,1.24649,0,0,0-.205-.2036.94583.94583,0,0,1,.84419-.5215h5.6653a4.1808,4.1808,0,1,1,0,8.3616h-5.6653a.94541.94541,0,0,1-.8436-.521,1.238,1.238,0,0,0,.2047-.20329.67613.67613,0,0,0,.6389.4556h5.6653a3.91717,3.91717,0,0,0,3.913-3.9124" transform="translate(-168.9077 -108.82101)" style="fill:#003915"/><path d="M179.73689,252.92239v-5.6089a.204.204,0,0,1,.20161-.20119h4.27069a3.00655,3.00655,0,1,1,0,6.01309h-4.27069a.20476.20476,0,0,1-.20161-.203m.2682-5.5414v5.476h4.2041a2.738,2.738,0,0,0,0-5.476Z" transform="translate(-168.9077 -108.82101)" style="fill:#003915"/><path d="M182.4678,250.11839a1.00815,1.00815,0,1,1,1.008,1.00891,1.01006,1.01006,0,0,1-1.008-1.00891m1.74759,0a.7394.7394,0,1,0-.73959.73991A.74045.74045,0,0,0,184.21539,250.11839Z" transform="translate(-168.9077 -108.82101)" style="fill:#003915"/><rect x="181.25739" y="247.37593" width="0.26857" height="2.24219" transform="translate(-295.15779 136.4737) rotate(-53.27585)" style="fill:#003915"/><rect x="180.27035" y="251.56176" width="2.24309" height="0.26914" transform="translate(-283.55051 50.04476) rotate(-36.81017)" style="fill:#003915"/><path d="M174.2352,252.81931v-5.4006a1.355,1.355,0,0,1,1.35381-1.3524h1.47429a1.35344,1.35344,0,0,1,1.3524,1.3524v5.4006a1.35311,1.35311,0,0,1-1.3524,1.35179H175.589a1.3547,1.3547,0,0,1-1.35381-1.35179m3.91209-5.4006a1.0855,1.0855,0,0,0-1.084-1.0843H175.589a1.08593,1.08593,0,0,0-1.0851,1.0843v5.4006a1.08591,1.08591,0,0,0,1.0851,1.08359h1.47429a1.08548,1.08548,0,0,0,1.084-1.08359Z" transform="translate(-168.9077 -108.82101)" style="fill:#003915"/><path d="M175.6375,250.11839a.6881.6881,0,1,1,.68741.68831.6881.6881,0,0,1-.68741-.68831m1.10721,0a.41925.41925,0,1,0-.4198.41951A.41942.41942,0,0,0,176.74471,250.11839Z" transform="translate(-168.9077 -108.82101)" style="fill:#003915"/><path d="M176.3864,288.3606h30.0849a2.161,2.161,0,0,1,2.1515,2.16571V300.9377a2.16088,2.16088,0,0,1-2.1515,2.1659H176.3864a2.16081,2.16081,0,0,1-2.1512-2.1659V290.52631a2.161,2.161,0,0,1,2.1512-2.16571m30.0849,14.51311a1.93109,1.93109,0,0,0,1.92191-1.936V290.52631a1.931,1.931,0,0,0-1.92191-1.9355H176.3864a1.93141,1.93141,0,0,0-1.9222,1.9355V300.9377a1.93153,1.93153,0,0,0,1.9222,1.936Z" transform="translate(-168.9077 -108.82101)" style="fill:#003915"/><path d="M203.4856,301.6117a2.577,2.577,0,0,0,2.5654-2.582v-6.5948a2.5766,2.5766,0,0,0-2.5654-2.5818H179.37241a2.577,2.577,0,0,0-2.5659,2.5818v2.06189a.39546.39546,0,0,0-.22821-.142v-1.91989a2.80642,2.80642,0,0,1,2.79411-2.81261H203.4856a2.80666,2.80666,0,0,1,2.7944,2.81261v6.5948a2.80657,2.80657,0,0,1-2.7944,2.81219H179.37241a2.80632,2.80632,0,0,1-2.79411-2.81219v-1.9202a.39527.39527,0,0,0,.22821-.14149v2.0617a2.57746,2.57746,0,0,0,2.5659,2.582Z" transform="translate(-168.9077 -108.82101)" style="fill:#003915"/><path d="M201.9382,300.2984a1.26662,1.26662,0,0,0,1.26109-1.2687v-6.5948a1.26642,1.26642,0,0,0-1.26109-1.26831h-22.5658a1.2663,1.2663,0,0,0-1.26141,1.26831v2.84479h-.22879v-2.84479a1.49622,1.49622,0,0,1,1.4902-1.499h22.5658a1.49565,1.49565,0,0,1,1.4893,1.499v6.5948a1.49524,1.49524,0,0,1-1.4893,1.4989h-22.5658a1.49581,1.49581,0,0,1-1.4902-1.4989v-2.84521h.22879v2.84521a1.2665,1.2665,0,0,0,1.26141,1.2687Z" transform="translate(-168.9077 -108.82101)" style="fill:#003915"/><path d="M181.2776,294.9994a.73331.73331,0,1,1-.7299.7336.73144.73144,0,0,1,.7299-.7336m0,1.23639a.5033.5033,0,1,0-.50031-.50279A.5018.5018,0,0,0,181.2776,296.23579Z" transform="translate(-168.9077 -108.82101)" style="fill:#003915"/><rect x="12.25481" y="186.38869" width="0.22929" height="1.0457" style="fill:#003915"/><rect x="11.8506" y="186.79659" width="1.0377" height="0.2307" style="fill:#003915"/><path d="M176.7776,295.27969v-.5374a.27993.27993,0,0,0-.2787-.2804h-.5051a.28042.28042,0,0,0-.27921.2804v.5374h-.22881v-.5374a.51035.51035,0,0,1,.508-.51109h.5051a.50965.50965,0,0,1,.5074.51109v.5374Zm-.2787,1.72211a.27986.27986,0,0,0,.2787-.28011v-.5372h.2287v.5372a.5092.5092,0,0,1-.5074.5108h-.5051a.50991.50991,0,0,1-.508-.5108v-.5372h.22881v.5372a.28035.28035,0,0,0,.27921.28011Z" transform="translate(-168.9077 -108.82101)" style="fill:#003915"/><path d="M175.48779,295.16431h3.2012a.56766.56766,0,0,1,0,1.1353h-3.2012a.56766.56766,0,0,1,0-1.1353m3.2012.90509a.33715.33715,0,0,0,0-.6743h-3.2012a.33716.33716,0,0,0,0,.6743Z" transform="translate(-168.9077 -108.82101)" style="fill:#003915"/><path d="M175.0107,227.3752h11.76921V239.1441H175.0107Zm11.51981.2494H175.2599v11.2706h11.2706Z" transform="translate(-168.9077 -108.82101)" style="fill:#003915"/><path d="M180.8952,238.0459a3.91958,3.91958,0,0,0,.9816-7.7142.29977.29977,0,0,0,.0743-.19749v-.0406a4.16846,4.16846,0,1,1-2.1115-.00031v.04091a.29852.29852,0,0,0,.0739.1973,3.91969,3.91969,0,0,0,.9817,7.7144" transform="translate(-168.9077 -108.82101)" style="fill:#003915"/><path d="M180.8952,230.6452a3.48155,3.48155,0,1,1-3.4812,3.4818,3.48577,3.48577,0,0,1,3.4812-3.4818m0,6.71359a3.2319,3.2319,0,1,0-3.2318-3.2318A3.23548,3.23548,0,0,0,180.8952,237.3588Z" transform="translate(-168.9077 -108.82101)" style="fill:#003915"/><path d="M180.8952,233.2245a.90225.90225,0,1,1-.9026.9025.90331.90331,0,0,1,.9026-.9025m0,1.5556a.653.653,0,1,0-.65311-.65311A.65425.65425,0,0,0,180.8952,234.78011Z" transform="translate(-168.9077 -108.82101)" style="fill:#003915"/><rect x="11.86279" y="124.64868" width="0.2494" height="1.3138" style="fill:#003915"/><rect x="11.3307" y="125.18079" width="1.3136" height="0.24969" style="fill:#003915"/><path d="M180.1414,229.3203h1.50749a.42706.42706,0,0,1,.42661.42661v.3873a.42686.42686,0,0,1-.42661.42661H180.1414a.42693.42693,0,0,1-.42661-.42661v-.3873a.42713.42713,0,0,1,.42661-.42661m1.50749.991a.17764.17764,0,0,0,.17751-.17709v-.3873a.17752.17752,0,0,0-.17751-.17711H180.1414a.17725.17725,0,0,0-.17711.17711v.3873a.17737.17737,0,0,0,.17711.17709Z" transform="translate(-168.9077 -108.82101)" style="fill:#003915"/><path d="M181.1151,229.4451v-.0865a.21965.21965,0,1,0-.4393,0v.0865h-.2498v-.0865a.46945.46945,0,0,1,.9389,0v.0865Zm-.21989,2.59a.22049.22049,0,0,0,.21989-.2206V230.436h.2498v1.37849a.46945.46945,0,1,1-.9389,0V230.436h.2498v1.37849A.22007.22007,0,0,0,180.8952,232.0351Z" transform="translate(-168.9077 -108.82101)" style="fill:#003915"/><path d="M203.67551,227.85651h-7.1566a1.496,1.496,0,0,0-1.49411,1.49469v8.29871a1.496,1.496,0,0,0,1.49411,1.4942h7.1566a1.4957,1.4957,0,0,0,1.49419-1.4942V229.3512a1.4958,1.4958,0,0,0-1.49419-1.49469m-7.1566,11.0546a1.26264,1.26264,0,0,1-1.26111-1.2612V229.3512a1.26276,1.26276,0,0,1,1.26111-1.2617h7.1566a1.26308,1.26308,0,0,1,1.26169,1.2617v8.29871a1.263,1.263,0,0,1-1.26169,1.2612Z" transform="translate(-168.9077 -108.82101)" style="fill:#003915"/><path d="M203.67551,228.67551h-7.1566a.67614.67614,0,0,0-.67581.67569v7.0107a.67643.67643,0,0,0,.67581.67581h7.1566a.67655.67655,0,0,0,.67639-.67581v-7.0107a.67626.67626,0,0,0-.67639-.67569m-7.1566,8.12909a.44322.44322,0,0,1-.4431-.4427v-7.0107a.44347.44347,0,0,1,.4431-.443h7.1566a.44378.44378,0,0,1,.44389.443v7.0107a.44352.44352,0,0,1-.44389.4427Z" transform="translate(-168.9077 -108.82101)" style="fill:#003915"/><path d="M197.2191,237.4563a.47425.47425,0,1,0,.4742.4743.47505.47505,0,0,0-.4742-.4743m0,.7155a.24125.24125,0,1,1,.2415-.2412A.24186.24186,0,0,1,197.2191,238.1718Z" transform="translate(-168.9077 -108.82101)" style="fill:#003915"/><path d="M198.81979,237.4563a.47425.47425,0,1,0,.47481.4743.475.475,0,0,0-.47481-.4743m0,.7155a.24125.24125,0,1,1,.24181-.2412A.24154.24154,0,0,1,198.81979,238.1718Z" transform="translate(-168.9077 -108.82101)" style="fill:#003915"/><rect x="27.86459" y="121.99689" width="2.7196" height="0.2327" style="fill:#003915"/><rect x="29.1082" y="120.75279" width="0.2327" height="2.7195" style="fill:#003915"/><path d="M198.1321,230.0372a.8969.8969,0,1,0,.89661.8969.898.898,0,0,0-.89661-.8969m0,1.5611a.6643.6643,0,1,1,.66391-.6642A.66555.66555,0,0,1,198.1321,231.5983Z" transform="translate(-168.9077 -108.82101)" style="fill:#003915"/><rect x="27.86459" y="125.84209" width="2.7196" height="0.23239" style="fill:#003915"/><rect x="29.1082" y="124.59769" width="0.2327" height="2.7204" style="fill:#003915"/><path d="M198.1321,233.88159a.89716.89716,0,1,0,.89661.89742.89859.89859,0,0,0-.89661-.89742m0,1.5619a.66475.66475,0,1,1,.66391-.66449A.66548.66548,0,0,1,198.1321,235.4435Z" transform="translate(-168.9077 -108.82101)" style="fill:#003915"/><rect x="31.79539" y="121.99689" width="2.7193" height="0.2327" style="fill:#003915"/><rect x="33.039" y="120.75279" width="0.233" height="2.7195" style="fill:#003915"/><path d="M202.0632,230.0372a.8969.8969,0,1,0,.8969.8969.89783.89783,0,0,0-.8969-.8969m0,1.5611a.6643.6643,0,1,1,.66389-.6642A.66607.66607,0,0,1,202.0632,231.5983Z" transform="translate(-168.9077 -108.82101)" style="fill:#003915"/><rect x="31.79539" y="125.84209" width="2.7193" height="0.23239" style="fill:#003915"/><rect x="33.039" y="124.59769" width="0.233" height="2.7204" style="fill:#003915"/><path d="M202.0632,233.88159a.89716.89716,0,1,0,.8969.89742.89846.89846,0,0,0-.8969-.89742m0,1.5619a.66475.66475,0,1,1,.66389-.66449A.666.666,0,0,1,202.0632,235.4435Z" transform="translate(-168.9077 -108.82101)" style="fill:#003915"/><path d="M201.5334,237.4563a.47425.47425,0,1,0,.4745.4743.47479.47479,0,0,0-.4745-.4743m0,.7155a.24125.24125,0,1,1,.24181-.2412A.24167.24167,0,0,1,201.5334,238.1718Z" transform="translate(-168.9077 -108.82101)" style="fill:#003915"/><path d="M203.135,237.4563a.47425.47425,0,1,0,.47391.4743.47468.47468,0,0,0-.47391-.4743m0,.7155a.24125.24125,0,1,1,.2415-.2412A.24168.24168,0,0,1,203.135,238.1718Z" transform="translate(-168.9077 -108.82101)" style="fill:#003915"/><path d="M176.2773,263.21049a.80929.80929,0,1,0,.2347.57091.81021.81021,0,0,0-.2347-.57091m-.5726-1.0363a1.60708,1.60708,0,1,1-1.1364.4705A1.6029,1.6029,0,0,1,175.7047,262.17419Z" transform="translate(-168.9077 -108.82101)" style="fill:#003915"/><path d="M186.2952,266.95619H182.469V269.593h3.8262Zm0-4.547H182.469v2.6367h3.8262Zm-5.0213,4.547h-2.54329V269.593h2.54329Zm0-4.547h-2.54329v2.6367h2.54329Zm8.76561,4.547h-2.5433V269.593h2.5433Zm0-4.547h-2.5433v2.6367h2.5433Zm-12.6006-2.01349h14.739v11.2204H173.3896v-5.61891h4.0493V261.811H172.8371v-1.4153Z" transform="translate(-168.9077 -108.82101)" style="fill:#003915;fill-rule:evenodd"/><path d="M176.2773,263.21049a.80929.80929,0,1,0,.2347.57091.81021.81021,0,0,0-.2347-.57091m-.5726-1.0363a1.60708,1.60708,0,1,1-1.1364.4705A1.6029,1.6029,0,0,1,175.7047,262.17419Z" transform="translate(-168.9077 -108.82101)" style="fill:#003915"/><rect x="36.2963" y="8.38028" width="0.50171" height="2.29861" style="fill:#003915"/><rect x="35.0981" y="8.38028" width="0.5011" height="2.29861" style="fill:#003915"/><rect x="51.8429" y="8.38028" width="0.50171" height="2.29861" style="fill:#003915"/><rect x="50.6447" y="8.38028" width="0.5011" height="2.29861" style="fill:#003915"/><rect x="20.74989" y="8.38028" width="0.50151" height="2.29861" style="fill:#003915"/><rect x="19.5517" y="8.38028" width="0.50121" height="2.29861" style="fill:#003915"/><rect x="67.38921" y="8.38028" width="0.50169" height="2.29861" style="fill:#003915"/><rect x="66.1913" y="8.38028" width="0.50121" height="2.29861" style="fill:#003915"/><rect x="18.06551" y="13.17938" width="50.80449" height="0.5014" style="fill:#003915"/><rect x="18.06551" y="10.33218" width="50.80449" height="0.5015" style="fill:#003915"/><rect x="18.06551" y="8.16089" width="50.80449" height="0.5015" style="fill:#003915"/><rect x="18.06551" y="5.5199" width="50.80449" height="0.50137" style="fill:#003915"/><path d="M231.38139,268.113a3.90784,3.90784,0,1,0-3.90759,3.9079,3.9081,3.9081,0,0,0,3.90759-3.9079" transform="translate(-168.9077 -108.82101)" style="fill:#558e42;fill-rule:evenodd"/><polygon points="58.566 156.493 58.944 157.807 59.323 159.122 58.566 159.122 57.809 159.122 58.187 157.807 58.566 156.493" style="fill:#fdfdfd;fill-rule:evenodd"/><rect x="58.3609" y="159.01929" width="0.38409" height="2.2814" style="fill:#fdfdfd"/><path d="M203.3799,268.95779c-.7319,0-1.2359-.618-1.2359-1.74s.504-1.7399,1.2359-1.7399,1.2359.618,1.2359,1.7399-.504,1.74-1.2359,1.74m0,.396c.972,0,1.67979-.798,1.67979-2.136s-.70779-2.13591-1.67979-2.13591-1.6739.798-1.6739,2.13591S202.4079,269.35381,203.3799,269.35381Zm-4.0981-4.2359v.3839h.9902v3.816h.432V265.1179Zm-.61169,3.5759a.31406.31406,0,0,0-.318.324.303.303,0,0,0,.216.30589l-.2041.87h.288l.252-.828a.97671.97671,0,0,0,.0842-.34789A.314.314,0,0,0,198.67011,268.6938Zm-2.622-1.8541h-.54l.144-1.33791H197.572v-.3839H195.2742l-.216,2.1059h.8941c1.06779,0,1.4037.33589,1.4037.8759,0,.51-.3779.85809-1.0919.85809a1.82146,1.82146,0,0,1-1.2901-.4859l-.2097.3419a2.16863,2.16863,0,0,0,1.50571.54c1.0262,0,1.5239-.55791,1.5239-1.272C197.7939,267.3378,197.314,266.83971,196.0481,266.83971Z" transform="translate(-168.9077 -108.82101)" style="fill:#6e6e6e;fill-rule:evenodd"/><path d="M220.9238,185.55769c-.7319,0-1.2359-.618-1.2359-1.7399s.504-1.74,1.2359-1.74,1.2359.618,1.2359,1.74-.504,1.7399-1.2359,1.7399m0,.396c.972,0,1.67981-.798,1.67981-2.13591s-.70781-2.136-1.67981-2.136-1.6739.798-1.6739,2.136S219.9518,185.9537,220.9238,185.9537Zm-4.5-.4201,1.4281-1.40379a1.72872,1.72872,0,0,0,.6899-1.3141c0-.7019-.54-1.13391-1.39209-1.13391a1.88713,1.88713,0,0,0-1.4879.5999l.30589.26411a1.42629,1.42629,0,0,1,1.146-.468c.64211,0,.9839.3.9839.7861,0,.28769-.0898.56979-.5638,1.0378l-1.74609,1.7101v.30589h2.946v-.38409Zm-1.55989-.23981a.31408.31408,0,0,0-.3181.324.30311.30311,0,0,0,.216.3058l-.2041.87h.288l.252-.828a.976.976,0,0,0,.0842-.34781A.314.314,0,0,0,214.86391,185.29379Zm-2.562.2639c-.73189,0-1.2359-.618-1.2359-1.7399s.504-1.74,1.2359-1.74,1.2359.618,1.2359,1.74S213.0338,185.55769,212.3019,185.55769Zm0,.396c.972,0,1.67981-.798,1.67981-2.13591s-.70781-2.136-1.67981-2.136-1.6738.798-1.6738,2.136S211.3299,185.9537,212.3019,185.9537Zm-4.5-.4201,1.4281-1.40379a1.72891,1.72891,0,0,0,.69-1.3141c0-.7019-.54-1.13391-1.39211-1.13391a1.887,1.887,0,0,0-1.4879.5999l.3058.26411a1.42652,1.42652,0,0,1,1.1461-.468c.642,0,.9839.3.9839.7861,0,.28769-.0899.56979-.5638,1.0378l-1.7462,1.7101v.30589h2.94609v-.38409Z" transform="translate(-168.9077 -108.82101)" style="fill:#6e6e6e;fill-rule:evenodd"/><path d="M217.3385,132.0376c-.7319,0-1.2359-.618-1.2359-1.7399s.504-1.7399,1.2359-1.7399,1.2359.61789,1.2359,1.7399-.504,1.7399-1.2359,1.7399m0,.396c.972,0,1.67979-.798,1.67979-2.13589s-.70779-2.13589-1.67979-2.13589-1.6738.79788-1.6738,2.13589S216.3665,132.43359,217.3385,132.43359Zm-3.97191-.396c-.73189,0-1.23589-.618-1.23589-1.7399s.504-1.7399,1.23589-1.7399,1.2359.61789,1.2359,1.7399S214.0985,132.0376,213.36659,132.0376Zm0,.396c.972,0,1.67981-.798,1.67981-2.13589s-.70781-2.13589-1.67981-2.13589-1.6738.79788-1.6738,2.13589S212.39461,132.43359,213.36659,132.43359Zm-2.5497-.65988a.31408.31408,0,0,0-.3181.324.30314.30314,0,0,0,.216.30582l-.2041.87h.288l.252-.828a.97624.97624,0,0,0,.0842-.34781A.314.314,0,0,0,210.81689,131.77371Zm-2.28619-1.77591,1.188-1.4942v-.30582h-2.7v.38382h2.14809l-1.16389,1.4581v.31808h.2999c.7798,0,1.13391.32993,1.13391.83392,0,.52188-.3838.84589-1.08.84589a1.84131,1.84131,0,0,1-1.302-.4859l-.21.34189a2.18486,2.18486,0,0,0,1.512.54c1.0139,0,1.5239-.54,1.5239-1.24188C209.8806,130.51959,209.43069,130.04568,208.5307,129.9978Z" transform="translate(-168.9077 -108.82101)" style="fill:#6e6e6e;fill-rule:evenodd"/><path d="M216.127,154.18008c-.434,0-.68939-.18909-.68939-.4935,0-.301.25539-.49008.68939-.49008s.6931.18909.6931.49008c0,.30441-.25909.4935-.6931.4935m-.6055-1.624c0-.27289.2347-.441.6055-.441.3676,0,.60921.16809.60921.4444,0,.2662-.22771.43768-.60921.43768C215.7457,152.99719,215.5215,152.82571,215.5215,152.55609Zm1.078.5321a.555.555,0,0,0,.39209-.53909c0-.3989-.34639-.64749-.86459-.64749-.5179,0-.8575.2486-.8575.64749a.553.553,0,0,0,.38519.53909.611.611,0,0,0-.47249.60181c0,.434.35689.70358.94479.70358.5845,0,.9521-.26959.9521-.70358A.61676.61676,0,0,0,216.5995,153.0882Zm-2.7439.08731c-.3779,0-.616-.2063-.616-.52841a.5363.5363,0,0,1,.59871-.532c.42349,0,.6474.25568.6474.5249A.56707.56707,0,0,1,213.85561,153.17551Zm-.0278-1.2739a.76321.76321,0,0,0-.8365.75259.7416.7416,0,0,0,.826.7348.78263.78263,0,0,0,.74889-.4198c.00711.07339.01051.1434.01051.19949,0,.665-.3396,1.0043-.8679,1.0043a.85939.85939,0,0,1-.476-.1153l-.1015.20288a1.12409,1.12409,0,0,0,.5809.133c.665,0,1.1199-.434,1.1199-1.26709C214.83211,152.35321,214.47861,151.90161,213.8278,151.90161Zm-1.3127,2.107a.18318.18318,0,0,0-.18541.18909.17666.17666,0,0,0,.1259.17831l-.11909.50769h.16809l.14711-.48309a.57347.57347,0,0,0,.0491-.20291A.1832.1832,0,0,0,212.51511,154.00861Zm-1.3334-1.036.69279-.8714v-.17859h-1.575v.22388h1.2529l-.67889.85071v.18539h.1749c.45529,0,.66161.1925.66161.48642,0,.3045-.22391.4935-.62981.4935a1.07434,1.07434,0,0,1-.7597-.28342l-.1225.19952a1.2749,1.2749,0,0,0,.8822.315c.59129,0,.8889-.315.8889-.72458C211.9691,153.277,211.7066,153.00061,211.1817,152.9726Z" transform="translate(-168.9077 -108.82101)" style="fill:#434242"/><path d="M199.34309,249.9126c-.4269,0-.72119-.3606-.72119-1.0148,0-.6545.2943-1.01509.72119-1.01509s.72081.3606.72081,1.01509c0,.65421-.2939,1.0148-.72081,1.0148m0,.231c.56691,0,.9799-.46541.9799-1.2458,0-.78059-.413-1.24609-.9799-1.24609s-.97659.4655-.97659,1.24609C198.3665,249.67819,198.77609,250.1436,199.34309,250.1436Zm-2.27849-.21339c-.434,0-.68941-.1891-.68941-.4935,0-.3011.2554-.49011.68941-.49011s.693.189.693.49011C197.7576,249.7411,197.4986,249.93021,197.06461,249.93021Zm-.6055-1.624c0-.273.2347-.441.6055-.441.3676,0,.6091.168.6091.4444,0,.2662-.2276.4377-.6091.4377C196.6833,248.7473,196.45911,248.57581,196.45911,248.3062Zm1.078.5321a.555.555,0,0,0,.392-.5392c0-.3988-.34639-.6474-.86449-.6474-.5179,0-.8575.2486-.8575.6474a.553.553,0,0,0,.38519.5392.61094.61094,0,0,0-.4725.60179c0,.434.3569.70351.94481.70351.58449,0,.95209-.2695.95209-.70351A.61686.61686,0,0,0,197.53709,248.8383Zm-1.9879.92039a.18318.18318,0,0,0-.18539.1891.17668.17668,0,0,0,.12579.1783l-.119.50771h.16809l.14711-.48311a.57333.57333,0,0,0,.049-.2029A.1832.1832,0,0,0,195.54919,249.7587Zm-1.6064-2.086v.22391h.57741v2.22609h.252v-2.45Z" transform="translate(-168.9077 -108.82101)" style="fill:#434242"/><path d="M233.725,261.18c-.4339,0-.6893-.189-.6893-.4935,0-.301.2554-.4901.6893-.4901s.6931.1891.6931.4901c0,.3045-.25911.4935-.6931.4935m-.60541-1.62389c0-.273.2347-.4411.60541-.4411.36769,0,.60919.16809.60919.44449,0,.2662-.2276.4377-.60919.4377C233.3438,259.99719,233.1196,259.8257,233.1196,259.55611Zm1.078.532a.55479.55479,0,0,0,.392-.53911c0-.3988-.34641-.6474-.86459-.6474-.5179,0-.85741.2486-.85741.6474a.55281.55281,0,0,0,.38521.53911.611.611,0,0,0-.4725.60179c0,.434.3568.7036.9447.7036.58449,0,.95219-.26959.95219-.7036A.61694.61694,0,0,0,234.1976,260.0881Zm-2.744,1.0744c-.4269,0-.7211-.36061-.7211-1.0148,0-.65451.2942-1.01511.7211-1.01511s.7209.3606.7209,1.01511C232.1745,260.8019,231.88049,261.16251,231.4536,261.16251Zm0,.231c.567,0,.98-.4655.98-1.24579,0-.7807-.413-1.24611-.98-1.24611s-.9765.46541-.9765,1.24611C230.4771,260.928,230.8867,261.39349,231.4536,261.39349Zm-1.48759-.38489a.18314.18314,0,0,0-.18541.189.17676.17676,0,0,0,.1259.1783l-.11909.50771h.16811l.14709-.483a.57393.57393,0,0,0,.0491-.203A.18318.18318,0,0,0,229.966,261.00861Zm-1.89011.14.8331-.81891a1.00788,1.00788,0,0,0,.4025-.76649c0-.40961-.3149-.66161-.81209-.66161a1.10126,1.10126,0,0,0-.868.35l.1786.154a.832.832,0,0,1,.6684-.273c.37451,0,.574.1749.574.4583,0,.16811-.0524.3326-.3288.6055l-1.01851.9975v.1786h1.7184v-.22389Z" transform="translate(-168.9077 -108.82101)" style="fill:#434242"/><line x1="40.11481" y1="44.39157" x2="5.00211" y2="44.39157" style="fill:none;stroke:#b1b2b2;stroke-miterlimit:22.92558479309082;stroke-width:0.2160000056028366px"/><line x1="23.61459" y1="140.14168" x2="5.59621" y2="140.14168" style="fill:none;stroke:#b1b2b2;stroke-miterlimit:22.92558479309082;stroke-width:0.2160000056028366px"/><line x1="57.61481" y1="151.39159" x2="43.4501" y2="151.39159" style="fill:none;stroke:#b1b2b2;stroke-miterlimit:22.92558479309082;stroke-width:0.2160000056028366px"/><line x1="82.63" y1="44.39157" x2="49.55389" y2="44.39157" style="fill:none;stroke:#b1b2b2;stroke-miterlimit:22.92558479309082;stroke-width:0.2160000056028366px"/><line x1="39.8022" y1="140.14168" x2="33.0537" y2="140.14168" style="fill:none;stroke:#b1b2b2;stroke-miterlimit:22.92558479309082;stroke-width:0.2160000056028366px"/><line x1="81.9258" y1="151.39159" x2="67.05389" y2="151.39159" style="fill:none;stroke:#b1b2b2;stroke-miterlimit:22.92558479309082;stroke-width:0.2160000056028366px"/><path d="M178.9957,188.3447c0,.434-.1891.68941-.4935.68941-.3011,0-.4901-.2554-.4901-.68941s.189-.6931.4901-.6931c.3044,0,.4935.25911.4935.6931m-1.624.6055c-.273,0-.4411-.2347-.4411-.6055,0-.36769.16809-.60919.4445-.60919.26619,0,.4377.2276.4377.60919C177.81281,188.72591,177.6413,188.9502,177.3717,188.9502Zm.53209-1.07809a.555.555,0,0,0-.5392-.392c-.39879,0-.6474.34639-.6474.86459,0,.5179.24861.8575.6474.8575a.55308.55308,0,0,0,.5392-.3853.61093.61093,0,0,0,.60181.47261c.434,0,.70351-.3569.70351-.94481,0-.5845-.2695-.95219-.70351-.95219A.61687.61687,0,0,0,177.90379,187.8721Zm-.161,2.7403v.3149l-.7807-.08389v-1.1199h-.22389v1.3405l1.2285.12581v-.5213c0-.623.19589-.8192.51109-.8192.2973,0,.50031.22049.50031.63719a1.06125,1.06125,0,0,1-.28351.75241l.1996.12239a1.26435,1.26435,0,0,0,.31491-.8784c0-.59839-.32541-.889-.74181-.889C178.033,189.5939,177.7428,189.874,177.7428,190.6124Zm1.08141,1.19371a.18322.18322,0,0,0,.1891.18539.17679.17679,0,0,0,.1783-.1259l.5076.119v-.168l-.483-.1472a.57546.57546,0,0,0-.2029-.049A.18321.18321,0,0,0,178.8242,191.80611Zm-.504.49319v.4901h-.56691v.2449h.56691v1.0641l-1.582-1.2529v.2798l1.6239,1.2986h.182V193.0414h.6441v-.252h-.6441v-.4901Z" transform="translate(-168.9077 -108.82101)" style="fill:#434242"/><path d="M248.7283,200.2173c0,.4269-.3606.7211-1.01491.7211-.6545,0-1.015-.2942-1.015-.7211s.3605-.72079,1.015-.72079c.65431,0,1.01491.2939,1.01491.72079m.231,0c0-.56689-.4655-.9799-1.24591-.9799-.78059,0-1.24609.413-1.24609.9799s.4655.9765,1.24609.9765C248.4938,201.1938,248.9593,200.78419,248.9593,200.2173Zm-1.21811,2.317c0,.3779-.2063.616-.52829.616a.53632.53632,0,0,1-.5321-.59869c0-.42351.25569-.6474.525-.6474A.56705.56705,0,0,1,247.7412,202.5343Zm-1.2739.0278a.76324.76324,0,0,0,.75259.8365.7416.7416,0,0,0,.7348-.826.78276.78276,0,0,0-.4198-.7489c.07341-.0071.1434-.0105.19951-.0105.665,0,1.00429.3396,1.00429.868a.85874.85874,0,0,1-.1153.47591l.2029.1015a1.12393,1.12393,0,0,0,.133-.58081c0-.665-.434-1.12-1.26711-1.12C246.9189,201.5578,246.4673,201.9113,246.4673,202.5621Zm2.107,1.31279a.18315.18315,0,0,0,.1891.1853.17668.17668,0,0,0,.1783-.12579l.50771.119v-.16811l-.483-.14709a.57585.57585,0,0,0-.203-.049A.18322.18322,0,0,0,248.5743,203.87489Zm-1.08139,1.52921v.315l-.78061-.08391v-1.12h-.224v1.3405l1.22861.1259v-.5213c0-.62309.1958-.8192.511-.8192.29739,0,.5004.2205.5004.63721a1.06131,1.06131,0,0,1-.28351.75229l.19951.12251a1.26454,1.26454,0,0,0,.315-.87851c0-.5984-.32541-.8889-.7419-.8889C247.7832,204.3857,247.4929,204.6657,247.4929,205.4041Z" transform="translate(-168.9077 -108.82101)" style="fill:#434242"/><path d="M242.2383,130.4187h.6826v-.2486h-.4586v-1.26l2.226,1.008v-.273l-2.27139-1.0253h-.1786Zm2.25751,1.2319c0,.434-.189.68939-.4935.68939-.301,0-.4901-.2554-.4901-.68939s.18909-.693.4901-.693C244.30679,130.95761,244.4958,131.21661,244.4958,131.6506Zm-1.6239.6055c-.273,0-.4411-.23471-.4411-.6055,0-.36761.16811-.6091.4445-.6091.2661,0,.43759.2276.43759.6091C243.3129,132.03189,243.1414,132.2561,242.8719,132.2561Zm.532-1.078a.55476.55476,0,0,0-.53909-.392c-.3988,0-.6474.3464-.6474.8645,0,.51788.2486.85748.6474.85748a.55281.55281,0,0,0,.53909-.38519.611.611,0,0,0,.60181.4725c.434,0,.7036-.3569.7036-.94479,0-.5845-.26961-.95212-.7036-.95212A.617.617,0,0,0,243.4039,131.1781Zm.92039,1.98788a.18325.18325,0,0,0,.1891.18542.17667.17667,0,0,0,.1783-.12582l.50771.119v-.16809l-.483-.14713a.574.574,0,0,0-.203-.049A.18323.18323,0,0,0,244.3243,133.166Zm.154,1.49451c0,.42691-.3606.7211-1.0148.7211-.6546,0-1.01511-.29419-1.01511-.7211s.3605-.72089,1.01511-.72089C244.11771,133.93961,244.4783,134.23361,244.4783,134.66049Zm.231,0c0-.567-.4655-.98-1.2458-.98-.7807,0-1.24609.413-1.24609.98s.46539.9765,1.24609.9765C244.2438,135.637,244.7093,135.22739,244.7093,134.66049Z" transform="translate(-168.9077 -108.82101)" style="fill:#434242"/><path d="M206.07021,277.818v.49011h-.56691v.24489h.56691v1.06421l-1.582-1.253v.2798l1.624,1.2986h.182V278.5601h.644v-.252h-.644V277.818Zm-1.582,3.49651h.224v-.57739h2.226v-.252h-2.45Zm2.086.3569a.18316.18316,0,0,0,.1891.18539.17667.17667,0,0,0,.1783-.1259l.50769.11911v-.16811l-.483-.14709a.57347.57347,0,0,0-.203-.049A.18319.18319,0,0,0,206.5742,281.6714Zm-1.036,1.3334-.8714-.69281h-.17859v1.575h.224v-1.2529l.8506.67891h.18539v-.17491c0-.45529.1925-.66159.4864-.66159.30449,0,.49359.22389.49359.62979a1.07435,1.07435,0,0,1-.28349.7597l.1996.1225a1.27522,1.27522,0,0,0,.3149-.8822c0-.59129-.3149-.8889-.72459-.8889C205.84261,282.21739,205.56619,282.4799,205.53819,283.00481Z" transform="translate(-168.9077 -108.82101)" style="fill:#434242"/><line x1="9.1205" y1="86.75739" x2="9.1205" y2="130.52008" style="fill:none;stroke:#b1b2b2;stroke-miterlimit:22.92558479309082;stroke-width:0.2160000056028366px"/><line x1="78.8707" y1="98.50758" x2="78.8707" y2="156.77429" style="fill:none;stroke:#b1b2b2;stroke-miterlimit:22.92558479309082;stroke-width:0.2160000056028366px"/><line x1="74.6207" y1="28.00739" x2="74.6207" y2="30.07129" style="fill:none;stroke:#b1b2b2;stroke-miterlimit:22.92558479309082;stroke-width:0.2160000056028366px"/><line x1="36.87061" y1="176.75769" x2="36.87061" y2="193.48268" style="fill:none;stroke:#b1b2b2;stroke-miterlimit:22.92558479309082;stroke-width:0.2160000056028366px"/><line x1="9.1205" y1="39.69608" x2="9.1205" y2="77.31828" style="fill:none;stroke:#b1b2b2;stroke-miterlimit:22.92558479309082;stroke-width:0.2160000056028366px"/><line x1="78.8707" y1="39.05429" x2="78.8707" y2="89.06848" style="fill:none;stroke:#b1b2b2;stroke-miterlimit:22.92558479309082;stroke-width:0.2160000056028366px"/><line x1="74.6207" y1="13.67999" x2="74.6207" y2="18.5683" style="fill:none;stroke:#b1b2b2;stroke-miterlimit:22.92558479309082;stroke-width:0.2160000056028366px"/><line x1="36.87061" y1="133.12228" x2="36.87061" y2="167.31859" style="fill:none;stroke:#b1b2b2;stroke-miterlimit:22.92558479309082;stroke-width:0.2160000056028366px"/><path d="M215.61279,137.74231c-.434,0-.68939-.18912-.68939-.4935,0-.30112.2554-.49011.68939-.49011s.6931.189.6931.49011c0,.30438-.25909.4935-.6931.4935m-.6055-1.624c0-.273.23471-.4411.6055-.4411.3676,0,.60921.16812.60921.44452,0,.2662-.22771.43768-.60921.43768C215.23151,136.55939,215.00729,136.38791,215.00729,136.11829Zm1.078.5321a.555.555,0,0,0,.39211-.53918c0-.3988-.34641-.6474-.86461-.6474-.5179,0-.8575.2486-.8575.6474a.553.553,0,0,0,.38521.53918.611.611,0,0,0-.4725.60181c0,.434.3569.70349.94479.70349.5845,0,.9521-.2695.9521-.70349A.61689.61689,0,0,0,216.0853,136.65039Zm-2.7402-.161h-.315l.08389-.7807h1.12v-.22391h-1.3405l-.12579,1.22849h.52119c.62311,0,.81931.19592.81931.51111,0,.29739-.2206.50031-.6373.50031a1.06091,1.06091,0,0,1-.7523-.28351l-.12239.19962a1.26394,1.26394,0,0,0,.87839.31488c.5984,0,.889-.32538.889-.74179C214.3636,136.7796,214.0835,136.48941,213.34509,136.48941Zm-1.1937,1.08139a.18316.18316,0,0,0-.18539.18909.17676.17676,0,0,0,.1259.17831l-.11911.5076h.16811l.14709-.483a.5737.5737,0,0,0,.0491-.20291A.1832.1832,0,0,0,212.1514,137.5708Zm-1.3334-1.0361.69281-.87131v-.17859h-1.575v.22391h1.253l-.67889.85068v.18542h.1749c.4552,0,.66161.19238.66161.48639,0,.30441-.224.4935-.6299.4935a1.07382,1.07382,0,0,1-.7597-.28351l-.12241.19962a1.27431,1.27431,0,0,0,.88211.31488c.59129,0,.88889-.31488.88889-.72449C211.60539,136.8392,211.343,136.56281,210.818,136.5347Z" transform="translate(-168.9077 -108.82101)" style="fill:#434242"/><line x1="39.67599" y1="27.9538" x2="7.3857" y2="27.9538" style="fill:none;stroke:#b1b2b2;stroke-miterlimit:22.92558479309082;stroke-width:0.2160000056028366px"/><line x1="79.47189" y1="27.9538" x2="49.1151" y2="27.9538" style="fill:none;stroke:#b1b2b2;stroke-miterlimit:22.92558479309082;stroke-width:0.2160000056028366px"/></svg>