<svg id="Слой_1" data-name="Слой 1" xmlns="http://www.w3.org/2000/svg" viewBox="0 0 354.55089 208.02779"><title>1.13.02</title><polygon points="4.164 0 161.414 0 161.414 60.595 197.55 60.595 197.55 70.425 197.664 70.425 197.664 133.31 351.165 133.31 351.165 208.028 197.664 208.028 164.068 208.028 0 208.028 0 70.425 4.164 70.425 4.164 0" style="fill:#fff;fill-rule:evenodd"/><path d="M189.7455,123.56079v-2.54318h-6.9599v2.54318Zm0,4.33621v-2.54321h-6.9599V127.897Zm-4.068,4.44159v-2.54318H182.7856v2.54318Zm4.068,0v-2.54318h-2.89189v2.54318Zm-8.174-12.7984H193.8064v14.12842H181.5715Z" transform="translate(-35.3546 -108.96301)" style="fill:#003915;fill-rule:evenodd"/><path d="M181.22569,150.19061a.374.374,0,0,0-.37469-.6474l-13.92011,8.03989a.374.374,0,1,0,.37471.6474Z" transform="translate(-35.3546 -108.96301)" style="fill:#003915"/><path d="M211.773,215.0269a.374.374,0,1,1-.3748.6474l-13.92009-8.0399a.374.374,0,0,1,.3748-.6474Z" transform="translate(-35.3546 -108.96301)" style="fill:#003915"/><path d="M171.38071,262.2229a.374.374,0,0,0-.37471-.6474l-13.92009,8.0399a.374.374,0,1,0,.37469.6474Z" transform="translate(-35.3546 -108.96301)" style="fill:#003915"/><path d="M216.913,262.2229a.374.374,0,1,0-.37469-.6474l-13.9201,8.0399a.374.374,0,0,0,.37471.6474Z" transform="translate(-35.3546 -108.96301)" style="fill:#003915"/><path d="M159.2589,234.4819a.374.374,0,1,0,.6474-.37471l-8.0399-13.92009a.374.374,0,0,0-.6474.37469Z" transform="translate(-35.3546 -108.96301)" style="fill:#003915"/><path d="M142.0455,264.13091a.374.374,0,1,1-.6474-.37471l8.0399-13.92009a.374.374,0,1,1,.6474.37469Z" transform="translate(-35.3546 -108.96301)" style="fill:#003915"/><path d="M235.98,262.5489a.374.374,0,0,0,.6474-.37471l-8.0399-13.92009a.374.374,0,1,0-.6474.37469Z" transform="translate(-35.3546 -108.96301)" style="fill:#003915"/><path d="M355.15869,251.4725a.374.374,0,1,1,.6474.3748L347.7662,265.7674a.374.374,0,1,1-.6474-.3748Z" transform="translate(-35.3546 -108.96301)" style="fill:#003915"/><path d="M70.5152,173.7182a.374.374,0,0,1-.6474-.37469l8.0399-13.92011a.374.374,0,1,1,.6474.37469Z" transform="translate(-35.3546 -108.96301)" style="fill:#003915"/><path d="M159.7283,170.8291a.374.374,0,1,0,.6474-.37469l-8.0399-13.9201a.374.374,0,1,0-.6474.37469Z" transform="translate(-35.3546 -108.96301)" style="fill:#003915"/><rect x="237.22859" y="133.37628" width="2.6022" height="3.13141" style="fill:#003915"/><rect x="155.2308" y="96.02669" width="2.6022" height="43.4809" style="fill:#003915"/><rect x="124.0406" y="61.74759" width="2.6022" height="45.5681" style="fill:#003915"/><rect x="113.8586" y="135.05809" width="2.6022" height="5.98219" style="fill:#003915"/><rect x="113.8586" y="159.55649" width="2.6022" height="43.0713" style="fill:#003915"/><rect x="117.06599" y="161.22749" width="2.6022" height="41.40029" style="fill:#003915"/><rect x="148.37981" y="161.22749" width="2.60219" height="41.40029" style="fill:#003915"/><rect x="154.38921" y="161.22749" width="2.60219" height="41.40029" style="fill:#003915"/><rect x="190.9519" y="157.10258" width="2.6022" height="4.4472" style="fill:#003915"/><rect x="212.60181" y="161.22749" width="2.60219" height="41.40029" style="fill:#003915"/><rect x="216.0751" y="158.94759" width="2.6022" height="43.6802" style="fill:#003915"/><rect x="124.0406" y="125.21959" width="2.6022" height="13.5961" style="fill:#003915"/><rect x="124.0406" y="4.14758" width="2.6022" height="39.854" style="fill:#003915"/><rect x="240.76772" y="133.37628" width="2.60217" height="6.1313" style="fill:#003915"/><rect x="178.54919" y="96.02669" width="13.95181" height="2.6022" style="fill:#003915"/><rect x="155.2308" y="96.02669" width="7.26999" height="2.6022" style="fill:#003915"/><rect x="145.7475" y="38.7623" width="12.64391" height="2.6022" style="fill:#003915"/><rect x="124.6308" y="38.7623" width="5.3073" height="2.6022" style="fill:#003915"/><rect x="156.7085" y="136.90538" width="77.0587" height="2.6022" style="fill:#003915"/><rect x="114.6982" y="160.23088" width="7.53281" height="2.6022" style="fill:#003915"/><rect x="138.037" y="160.23088" width="29.50099" height="2.6022" style="fill:#003915"/><rect x="150.09219" y="171.99638" width="5.49861" height="0.87131" style="fill:#003915"/><rect x="150.09219" y="184.96739" width="5.49861" height="0.8714" style="fill:#003915"/><rect x="150.09219" y="180.07619" width="5.49861" height="1.55141" style="fill:#003915"/><rect x="150.09219" y="189.01189" width="5.49861" height="1.5514" style="fill:#003915"/><rect x="117.8251" y="198.17029" width="96.68579" height="2.6022" style="fill:#003915"/><rect x="183.2005" y="160.23088" width="34.3103" height="2.6022" style="fill:#003915"/><rect x="192.7567" y="158.94759" width="24.7541" height="2.6022" style="fill:#003915"/><rect x="6.8958" y="136.30559" width="113.3549" height="2.6022" style="fill:#003915"/><rect x="6.8958" y="70.42499" width="67.2151" height="2.60229" style="fill:#003915"/><rect x="93.9948" y="70.42499" width="27.51221" height="2.60229" style="fill:#003915"/><rect x="320.47081" y="133.38759" width="34.08008" height="5.002" style="fill:#003915"/><rect x="155.12421" y="3.53619" width="6.4256" height="63.1729" style="fill:#003915"/><rect x="191.12421" y="60.59529" width="6.4256" height="78.91229" style="fill:#003915"/><path d="M232.9044,169.5583v6.1138H216.4671v-6.1138h16.4373" transform="translate(-35.3546 -108.96301)" style="fill:#003915;fill-rule:evenodd"/><rect x="127.1712" width="34.3786" height="6.30789" style="fill:#003915"/><polygon points="317.711 133.376 317.711 139.508 191.124 139.508 191.124 133.082 197.663 133.082 197.663 133.376 317.711 133.376" style="fill:#003915;fill-rule:evenodd"/><rect x="315.54192" y="133.38759" width="8.1601" height="3.9884" style="fill:#003915"/><rect x="315.54192" y="172.65628" width="8.1601" height="28.0153" style="fill:#003915"/><rect x="31.2627" width="8.1601" height="34.8678" style="fill:#003915"/><rect x="0.4308" y="199.86768" width="354.12009" height="8.1601" style="fill:#003915"/><rect x="36.4407" width="91.91029" height="6.30789" style="fill:#003915"/><rect y="64.86769" width="35.3426" height="8.1601" style="fill:#003915"/><rect x="315.54192" y="133.38759" width="8.1601" height="9.2231" style="fill:#003915"/><rect x="31.2627" y="64.66528" width="8.1601" height="10.50211" style="fill:#003915"/><rect y="64.86769" width="8.16" height="24.04179" style="fill:#003915"/><rect y="118.49269" width="8.16" height="36.49489" style="fill:#003915"/><rect y="184.02768" width="8.16" height="24.00011" style="fill:#003915"/><rect x="113.8586" y="64.62759" width="12.78421" height="8.1601" style="fill:#003915"/><rect x="113.8586" y="130.86758" width="12.78421" height="8.1601" style="fill:#003915"/><rect x="113.8586" y="64.86719" width="12.78421" height="8.1601" style="fill:#003915"/><rect x="230.61879" y="133.64639" width="12.78421" height="8.1601" style="fill:#003915"/><rect x="309.1498" y="133.38759" width="12.7843" height="8.1601" style="fill:#003915"/><rect x="316.631" y="197.40578" width="37.91989" height="10.622" style="fill:#003915"/><rect x="0.3591" width="39.0637" height="10.4856" style="fill:#003915"/><rect x="3.0018" y="103.85689" width="2.2987" height="0.50169" style="fill:#003915"/><rect x="3.0018" y="102.65869" width="2.2987" height="0.5011" style="fill:#003915"/><rect x="3.0018" y="90.02118" width="2.2987" height="0.50151" style="fill:#003915"/><rect x="3.0018" y="88.82298" width="2.2987" height="0.50121" style="fill:#003915"/><rect x="3.0018" y="117.96858" width="2.2987" height="0.50171" style="fill:#003915"/><rect x="3.0018" y="116.77069" width="2.2987" height="0.5011" style="fill:#003915"/><rect y="86.76619" width="0.5014" height="34.0937" style="fill:#003915"/><rect x="2.8471" y="86.76619" width="0.5014" height="34.0937" style="fill:#003915"/><rect x="5.0184" y="86.76619" width="0.5015" height="34.0937" style="fill:#003915"/><rect x="7.6594" y="86.76619" width="0.5015" height="34.0937" style="fill:#003915"/><rect x="3.0018" y="169.66849" width="2.2987" height="0.5018" style="fill:#003915"/><rect x="3.0018" y="168.47029" width="2.2987" height="0.50119" style="fill:#003915"/><rect x="3.0018" y="155.83289" width="2.2987" height="0.5015" style="fill:#003915"/><rect x="3.0018" y="154.63469" width="2.2987" height="0.50119" style="fill:#003915"/><rect x="3.0018" y="183.78029" width="2.2987" height="0.50169" style="fill:#003915"/><rect x="3.0018" y="182.58229" width="2.2987" height="0.50119" style="fill:#003915"/><rect y="152.57788" width="0.5014" height="34.0937" style="fill:#003915"/><rect x="2.8471" y="152.57788" width="0.5014" height="34.0937" style="fill:#003915"/><rect x="5.0184" y="152.57788" width="0.5015" height="34.0937" style="fill:#003915"/><rect x="7.6594" y="152.57788" width="0.5015" height="34.0937" style="fill:#003915"/><path d="M355.70889,270.5168H354.039v-.697h1.66989Zm0,13.5692H354.039V271.0183h1.66989Zm0,1.1982H354.039v-.6971h1.66989Zm-1.66989.50171h1.66989v5.78949h.5015v-21.7556H358.556v21.7556h.5015V269.3186h-8.161v22.25679h.5015v-21.7556h2.13959v18.0518h.5014Z" transform="translate(-35.3546 -108.96301)" style="fill:#003915;fill-rule:evenodd"/><path d="M69.965,154.67389H71.6349v.697H69.965Zm0-13.56918H71.6349v13.06778H69.965Zm0-1.19821H71.6349v.69711H69.965Zm1.66991-.50171H69.965V133.6153h-.5014v21.75562H67.1179V133.6153h-.5015V155.8721h8.161V133.6153h-.5015v21.75562H72.1363V137.31909h-.5014Z" transform="translate(-35.3546 -108.96301)" style="fill:#003915;fill-rule:evenodd"/><rect x="351.4756" y="133.37628" width="0.44669" height="2.1022" style="fill:#003915"/><rect x="350.38429" y="133.37628" width="0.44672" height="2.1022" style="fill:#003915"/><rect x="349.30339" y="133.37628" width="0.44681" height="2.1022" style="fill:#003915"/><rect x="4.3052" y="47.4361" width="1.2971" height="0.44699" style="fill:#003915"/><rect x="4.3052" y="46.36829" width="1.2971" height="0.44669" style="fill:#003915"/><rect x="4.3052" y="28.83398" width="1.2971" height="0.44699" style="fill:#003915"/><rect x="4.3052" y="27.76617" width="1.2971" height="0.44672" style="fill:#003915"/><rect x="4.3052" y="10.2316" width="1.2971" height="0.44708" style="fill:#003915"/><rect x="4.3052" y="9.16379" width="1.2971" height="0.44681" style="fill:#003915"/><rect x="4.3052" y="66.03839" width="1.2971" height="0.4471" style="fill:#003915"/><rect x="4.3052" y="64.97058" width="1.2971" height="0.44681" style="fill:#003915"/><rect x="3.0758" y="7.09708" width="0.4468" height="60.8213" style="fill:#003915"/><rect x="4.1672" y="7.09708" width="0.4467" height="60.8213" style="fill:#003915"/><rect x="5.248" y="7.09708" width="0.4468" height="60.8213" style="fill:#003915"/><rect x="349.3958" y="177.34018" width="1.29721" height="0.44711" style="fill:#003915"/><rect x="349.3958" y="176.27238" width="1.29721" height="0.44681" style="fill:#003915"/><rect x="349.3958" y="158.73819" width="1.29721" height="0.44699" style="fill:#003915"/><rect x="349.3958" y="157.67029" width="1.29721" height="0.44679" style="fill:#003915"/><rect x="349.3958" y="140.13579" width="1.29721" height="0.44701" style="fill:#003915"/><rect x="349.3958" y="139.06799" width="1.29721" height="0.4467" style="fill:#003915"/><rect x="349.3958" y="195.94259" width="1.29721" height="0.447" style="fill:#003915"/><rect x="349.3958" y="194.87479" width="1.29721" height="0.4467" style="fill:#003915"/><rect x="351.4756" y="137.00119" width="0.44669" height="60.8213" style="fill:#003915"/><rect x="350.38429" y="137.00119" width="0.44672" height="60.8213" style="fill:#003915"/><rect x="349.30339" y="137.00119" width="0.44681" height="60.8213" style="fill:#003915"/><path d="M228.4313,306.9514H218.609a.90528.90528,0,0,1-.9054-.904V301.4371a4.59576,4.59576,0,0,1,4.5896-4.591h2.45221a4.59576,4.59576,0,0,1,4.5905,4.591v4.61031a.90479.90479,0,0,1-.9046.904m-6.13811-9.8606a4.35093,4.35093,0,0,0-4.34489,4.34629v4.61031a.66135.66135,0,0,0,.66069.6599h9.82231a.66067.66067,0,0,0,.6599-.6599V301.4371a4.35131,4.35131,0,0,0-4.34579-4.34629Z" transform="translate(-35.3546 -108.96301)" style="fill:#003915"/><path d="M222.2935,298.181a3.25877,3.25877,0,0,0-3.2545,3.2561v2.6881a.56785.56785,0,0,0,.5672.5675h3.57539v.2452H219.6062a.814.814,0,0,1-.81241-.8127v-2.6881a3.50409,3.50409,0,0,1,3.49971-3.50079h2.45219a3.5047,3.5047,0,0,1,3.50081,3.50079v2.6881a.81447.81447,0,0,1-.81351.8127h-3.57539v-.2452H227.433a.56821.56821,0,0,0,.5683-.5675v-2.6881a3.25932,3.25932,0,0,0-3.2556-3.2561Z" transform="translate(-35.3546 -108.96301)" style="fill:#003915"/><path d="M223.52029,301.7846a.78345.78345,0,1,1,.7838-.7834.78471.78471,0,0,1-.7838.7834m0-1.3223a.5387.5387,0,1,0,.5392.53889A.53969.53969,0,0,0,223.52029,300.4623Z" transform="translate(-35.3546 -108.96301)" style="fill:#003915"/><rect x="188.0433" y="191.48029" width="0.2449" height="1.1166" style="fill:#003915"/><rect x="187.6073" y="191.91569" width="1.116" height="0.2455" style="fill:#003915"/><path d="M223.85761,305.769h.4037a.17364.17364,0,0,0,.1729-.174v-.3793a.17364.17364,0,0,0-.1729-.174h-.4037v-.245h.4037a.41869.41869,0,0,1,.41809.419v.3793a.41862.41862,0,0,1-.41809.4187h-.40561l.00191-.03751Zm-1.0771-.72729a.17446.17446,0,0,0-.1741.174v.3793a.17446.17446,0,0,0,.1741.174h.40109v.2072l.00221.03751h-.40331a.41856.41856,0,0,1-.4187-.4187v-.3793a.41862.41862,0,0,1,.4187-.419h.40109v.245Z" transform="translate(-35.3546 -108.96301)" style="fill:#003915"/><path d="M223.52029,306.4366a.46105.46105,0,0,1-.4612-.4604v-3.0804a.4605.4605,0,0,1,.921,0v3.0804a.46062.46062,0,0,1-.45981.4604m0-3.7568a.21676.21676,0,0,0-.21629.216v3.0804a.2156.2156,0,0,0,.4312,0v-3.0804A.21608.21608,0,0,0,223.52029,302.6798Z" transform="translate(-35.3546 -108.96301)" style="fill:#003915"/><path d="M190.2787,136.035v9.8223a.90527.90527,0,0,1-.904.9054h-4.6102a4.59575,4.59575,0,0,1-4.591-4.5896v-2.45221a4.59576,4.59576,0,0,1,4.591-4.59048h4.6102a.90479.90479,0,0,1,.904.9046m-9.8606,6.13809a4.351,4.351,0,0,0,4.34639,4.345h4.6102a.66144.66144,0,0,0,.65991-.6608V136.035a.66068.66068,0,0,0-.65991-.65991h-4.6102a4.35134,4.35134,0,0,0-4.34639,4.34579Z" transform="translate(-35.3546 -108.96301)" style="fill:#003915"/><path d="M181.5083,142.17279a3.25873,3.25873,0,0,0,3.25619,3.25452h2.68811a.56791.56791,0,0,0,.56749-.5672V141.2847h.24521v3.57541a.814.814,0,0,1-.8127.81238H184.7645a3.50407,3.50407,0,0,1-3.50079-3.49969v-2.45218a3.50471,3.50471,0,0,1,3.50079-3.50082h2.68811a.81447.81447,0,0,1,.8127.81351v3.57541h-.24521v-3.57541a.56828.56828,0,0,0-.56749-.5683H184.7645a3.25934,3.25934,0,0,0-3.25619,3.25562Z" transform="translate(-35.3546 -108.96301)" style="fill:#003915"/><path d="M185.112,140.946a.7835.7835,0,1,1-.78349-.78381.78481.78481,0,0,1,.78349.78381m-1.3224,0a.53875.53875,0,1,0,.53891-.53912A.53969.53969,0,0,0,183.7896,140.946Z" transform="translate(-35.3546 -108.96301)" style="fill:#003915"/><rect x="148.416" y="31.86047" width="1.11661" height="0.24503" style="fill:#003915"/><rect x="148.85139" y="31.42538" width="0.24551" height="1.116" style="fill:#003915"/><path d="M189.09641,140.6087V140.205a.17372.17372,0,0,0-.1741-.17288h-.3792a.17365.17365,0,0,0-.1741.17288v.40372h-.2449V140.205a.41877.41877,0,0,1,.419-.41809h.3792a.4187.4187,0,0,1,.4187.41809v.4057l-.0374-.002Zm-.7274,1.07709a.17442.17442,0,0,0,.1741.1741h.3792a.17449.17449,0,0,0,.1741-.1741v-.40109h.2072l.0374-.0022v.40329a.41856.41856,0,0,1-.4187.4187h-.3792a.41862.41862,0,0,1-.419-.4187v-.40109h.2449Z" transform="translate(-35.3546 -108.96301)" style="fill:#003915"/><path d="M189.7639,140.946a.461.461,0,0,1-.4603.46118h-3.0804a.46049.46049,0,0,1,0-.921h3.0804a.46053.46053,0,0,1,.4603.45981m-3.7567,0a.21675.21675,0,0,0,.216.21628h3.0804a.21559.21559,0,0,0,0-.43118h-3.0804A.21609.21609,0,0,0,186.0072,140.946Z" transform="translate(-35.3546 -108.96301)" style="fill:#003915"/><path d="M206.661,286.1675a3.917,3.917,0,0,1-3.913,3.9115h-5.6653a.67742.67742,0,0,1-.63921-.4561,1.24348,1.24348,0,0,1-.20489.20351.94567.94567,0,0,0,.8441.52159h5.6653a4.18085,4.18085,0,1,0,0-8.36169h-5.6653a.94547.94547,0,0,0-.8436.5211,1.23689,1.23689,0,0,1,.2047.2032.67637.67637,0,0,1,.6389-.45551h5.6653a3.91709,3.91709,0,0,1,3.913,3.9124" transform="translate(-35.3546 -108.96301)" style="fill:#003915"/><path d="M198.1636,283.36369v5.6089a.20393.20393,0,0,0,.20149.20131h4.27071a3.0066,3.0066,0,1,0,0-6.0132H198.3651a.20467.20467,0,0,0-.20149.203m.2681,5.5415v-5.476h4.2041a2.738,2.738,0,0,1,0,5.476Z" transform="translate(-35.3546 -108.96301)" style="fill:#003915"/><path d="M200.8945,286.16769a1.0081,1.0081,0,1,0,1.008-1.00879,1.01,1.01,0,0,0-1.008,1.00879m1.7475,0a.7394.7394,0,1,1-.7395-.73979A.74031.74031,0,0,1,202.642,286.16769Z" transform="translate(-35.3546 -108.96301)" style="fill:#003915"/><rect x="198.69718" y="287.6549" width="2.24224" height="0.26855" transform="translate(-167.78397 67.64411) rotate(-36.72481)" style="fill:#003915"/><rect x="199.68393" y="283.46831" width="0.26914" height="2.24303" transform="translate(-183.11063 165.10327) rotate(-53.19201)" style="fill:#003915"/><path d="M192.6618,283.4669v5.40059a1.35508,1.35508,0,0,0,1.35379,1.3524h1.4743a1.3535,1.3535,0,0,0,1.3524-1.3524V283.4669a1.35321,1.35321,0,0,0-1.3524-1.3519h-1.4743a1.35479,1.35479,0,0,0-1.35379,1.3519m3.91209,5.40059a1.08543,1.08543,0,0,1-1.084,1.08421h-1.4743a1.08586,1.08586,0,0,1-1.0851-1.08421V283.4669a1.086,1.086,0,0,1,1.0851-1.08371h1.4743a1.08552,1.08552,0,0,1,1.084,1.08371Z" transform="translate(-35.3546 -108.96301)" style="fill:#003915"/><path d="M194.0641,286.16769a.6881.6881,0,1,0,.68739-.6882.68808.68808,0,0,0-.68739.6882m1.10719,0a.41925.41925,0,1,1-.4198-.41949A.41937.41937,0,0,1,195.1713,286.16769Z" transform="translate(-35.3546 -108.96301)" style="fill:#003915"/><path d="M172.1676,129.64539a3.91687,3.91687,0,0,1-3.9115-3.91287v-5.66541a.67731.67731,0,0,1,.4561-.63922,1.24821,1.24821,0,0,1-.2036-.2049.94561.94561,0,0,0-.5215.84412v5.66541a4.18079,4.18079,0,1,0,8.36159,0v-5.66541a.94552.94552,0,0,0-.521-.8436,1.23794,1.23794,0,0,1-.20329.20468.67635.67635,0,0,1,.4556.63892v5.66541a3.91713,3.91713,0,0,1-3.9124,3.91287" transform="translate(-35.3546 -108.96301)" style="fill:#003915"/><path d="M174.9713,121.148h-5.6089a.2039.2039,0,0,0-.2012.20148v4.27072a3.00655,3.00655,0,1,0,6.01311,0v-4.27072a.20467.20467,0,0,0-.203-.20148m-5.5414.2681h5.476v4.2041a2.738,2.738,0,0,1-5.476,0Z" transform="translate(-35.3546 -108.96301)" style="fill:#003915"/><path d="M172.1673,123.87891a1.00815,1.00815,0,1,0,1.0089,1.008,1.01,1.01,0,0,0-1.0089-1.008m0,1.7475a.7394.7394,0,1,1,.73981-.7395A.74038.74038,0,0,1,172.1673,125.6264Z" transform="translate(-35.3546 -108.96301)" style="fill:#003915"/><rect x="170.41161" y="121.68156" width="0.26859" height="2.24226" transform="translate(-74.93742 17.35019) rotate(-36.71314)" style="fill:#003915"/><rect x="172.62367" y="122.66832" width="2.24306" height="0.26917" transform="translate(-64.02815 79.37306) rotate(-53.19201)" style="fill:#003915"/><path d="M174.86819,115.64621h-5.40059A1.35508,1.35508,0,0,0,168.1152,117v1.4743a1.35353,1.35353,0,0,0,1.3524,1.35251h5.40059A1.35322,1.35322,0,0,0,176.22,118.4743V117a1.35477,1.35477,0,0,0-1.35181-1.35379m-5.40059,3.91208a1.0855,1.0855,0,0,1-1.0843-1.084V117a1.086,1.086,0,0,1,1.0843-1.08511h5.40059A1.086,1.086,0,0,1,175.9518,117v1.4743a1.08548,1.08548,0,0,1-1.0836,1.084Z" transform="translate(-35.3546 -108.96301)" style="fill:#003915"/><path d="M172.1673,117.04849a.68811.68811,0,1,0,.68831.68741.68809.68809,0,0,0-.68831-.68741m0,1.10721a.41925.41925,0,1,1,.41951-.4198A.41942.41942,0,0,1,172.1673,118.1557Z" transform="translate(-35.3546 -108.96301)" style="fill:#003915"/><path d="M183.15379,298.7791h0v7.8395h-11.3479v-7.8395Zm.33081,8.1708V298.4474H171.47479v8.50249Z" transform="translate(-35.3546 -108.96301)" style="fill:#003915"/><path d="M180.7594,298.5546a.60439.60439,0,0,0-.5936-.61259h-5.37221a.60412.60412,0,0,0-.59389.61259h.33089a.26961.26961,0,0,1,.263-.2809h5.37221a.26945.26945,0,0,1,.2628.2809Z" transform="translate(-35.3546 -108.96301)" style="fill:#003915"/><path d="M178.5016,301.1812h0v2.7076l-1.59731.6216a2.47432,2.47432,0,0,1,.0918-1.6747,4.15144,4.15144,0,0,0,.2413-1.2407,2.448,2.448,0,0,0-.18829-.9366Zm.3308,2.9341v-3.1669l-2.48-.892.22479.3906a2.26649,2.26649,0,0,1,.32941,1.148,3.8933,3.8933,0,0,1-.22681,1.1438,3.89719,3.89719,0,0,0-.2282,1.1441,2.01608,2.01608,0,0,0,.218.9124l.0674.1358Z" transform="translate(-35.3546 -108.96301)" style="fill:#003915"/><path d="M232.46561,304.8001V274.71519a2.161,2.161,0,0,1,2.1657-2.15149h10.4113a2.16089,2.16089,0,0,1,2.166,2.15149V304.8001a2.16092,2.16092,0,0,1-2.166,2.1513H234.6313a2.161,2.161,0,0,1-2.1657-2.1513m14.51309-30.08491a1.9311,1.9311,0,0,0-1.9361-1.92189H234.6313a1.931,1.931,0,0,0-1.9355,1.92189V304.8001a1.93141,1.93141,0,0,0,1.9355,1.9222h10.4113a1.93154,1.93154,0,0,0,1.9361-1.9222Z" transform="translate(-35.3546 -108.96301)" style="fill:#003915"/><path d="M245.71671,277.7009a2.577,2.577,0,0,0-2.58211-2.56529h-6.5948a2.57658,2.57658,0,0,0-2.5818,2.56529v24.1132a2.57709,2.57709,0,0,0,2.5818,2.5659h2.062a.39676.39676,0,0,0-.14211.2282h-1.91991a2.80639,2.80639,0,0,1-2.8125-2.7941V277.7009a2.80665,2.80665,0,0,1,2.8125-2.7944h6.5948a2.80661,2.80661,0,0,1,2.8123,2.7944v24.1132a2.80635,2.80635,0,0,1-2.8123,2.7941h-1.92011a.39587.39587,0,0,0-.14149-.2282h2.0616a2.57748,2.57748,0,0,0,2.58211-2.5659Z" transform="translate(-35.3546 -108.96301)" style="fill:#003915"/><path d="M244.4034,279.2484a1.26667,1.26667,0,0,0-1.2688-1.2612h-6.5948a1.26641,1.26641,0,0,0-1.26819,1.2612v22.5657a1.26619,1.26619,0,0,0,1.26819,1.2614h2.84491v.2288h-2.84491a1.4962,1.4962,0,0,1-1.4989-1.4902V279.2484a1.49571,1.49571,0,0,1,1.4989-1.4894h6.5948a1.49534,1.49534,0,0,1,1.499,1.4894v22.5657a1.49583,1.49583,0,0,1-1.499,1.4902h-2.84509v-.2288h2.84509a1.26645,1.26645,0,0,0,1.2688-1.2614Z" transform="translate(-35.3546 -108.96301)" style="fill:#003915"/><path d="M239.10429,299.909a.73336.73336,0,1,1,.7337.7299.73162.73162,0,0,1-.7337-.7299m1.23651,0a.50331.50331,0,1,0-.50281.50031A.50184.50184,0,0,0,240.34081,299.909Z" transform="translate(-35.3546 -108.96301)" style="fill:#003915"/><rect x="203.9601" y="190.83169" width="1.0457" height="0.2293" style="fill:#003915"/><rect x="204.368" y="190.42749" width="0.2307" height="1.0378" style="fill:#003915"/><path d="M239.3847,304.409h-.53751a.27989.27989,0,0,0-.2803.2786v.5051a.28042.28042,0,0,0,.2803.2793h.53751v.2287h-.53751a.51033.51033,0,0,1-.511-.508v-.5051a.50969.50969,0,0,1,.511-.5074h.53751Zm1.722.2786a.27976.27976,0,0,0-.28-.2786h-.5372v-.2288h.5372a.50932.50932,0,0,1,.51079.5074v.5051a.51.51,0,0,1-.51079.508h-.5372v-.2287h.5372a.2803.2803,0,0,0,.28-.2793Z" transform="translate(-35.3546 -108.96301)" style="fill:#003915"/><path d="M239.2693,305.6987v-3.2011a.56766.56766,0,0,1,1.1353,0v3.2011a.56766.56766,0,0,1-1.1353,0m.90509-3.2011a.33715.33715,0,0,0-.67429,0v3.2011a.33715.33715,0,0,0,.67429,0Z" transform="translate(-35.3546 -108.96301)" style="fill:#003915"/><path d="M154.73511,115.64621H142.9659V127.4151h11.76921Zm-11.51971.24948H154.4859V127.1662H143.21539Z" transform="translate(-35.3546 -108.96301)" style="fill:#003915"/><path d="M148.8506,126.317a3.91956,3.91956,0,0,1-.9816-7.71417.30012.30012,0,0,1-.07431-.1976v-.04062a4.16876,4.16876,0,1,0,2.1116-.00018v.0408a.29853.29853,0,0,1-.074.1973,3.91973,3.91973,0,0,1-.9817,7.71448" transform="translate(-35.3546 -108.96301)" style="fill:#003915"/><path d="M148.8506,118.91629a3.48151,3.48151,0,1,0,3.48129,3.48181,3.48572,3.48572,0,0,0-3.48129-3.48181m0,6.7135a3.2319,3.2319,0,1,1,3.2318-3.23169A3.23537,3.23537,0,0,1,148.8506,125.62979Z" transform="translate(-35.3546 -108.96301)" style="fill:#003915"/><path d="M148.8506,121.49551a.90224.90224,0,1,0,.9026.90259.90332.90332,0,0,0-.9026-.90259m0,1.55569a.653.653,0,1,1,.65309-.65311A.65418.65418,0,0,1,148.8506,123.05121Z" transform="translate(-35.3546 -108.96301)" style="fill:#003915"/><rect x="113.37131" y="12.77768" width="0.2495" height="1.3139" style="fill:#003915"/><rect x="112.83929" y="13.30978" width="1.31351" height="0.24969" style="fill:#003915"/><path d="M149.6044,117.5914h-1.50751a.427.427,0,0,0-.42659.42661v.38721a.42686.42686,0,0,0,.42659.42657h1.50751a.42686.42686,0,0,0,.42661-.42657V118.018a.427.427,0,0,0-.42661-.42661m-1.50751.99091a.17758.17758,0,0,1-.1774-.17709V118.018a.17746.17746,0,0,1,.1774-.17722h1.50751a.1772.1772,0,0,1,.17709.17722v.38721a.17732.17732,0,0,1-.17709.17709Z" transform="translate(-35.3546 -108.96301)" style="fill:#003915"/><path d="M148.63071,117.7161v-.08649a.21965.21965,0,1,1,.4393,0v.08649h.24979v-.08649a.46945.46945,0,0,0-.93889,0v.08649Zm.21989,2.59a.22038.22038,0,0,1-.21989-.22049v-1.37851h-.2498v1.37851a.46944.46944,0,1,0,.93889,0v-1.37851H149.07v1.37851A.21991.21991,0,0,1,148.8506,120.30609Z" transform="translate(-35.3546 -108.96301)" style="fill:#003915"/><path d="M126.0703,116.1275h7.1566a1.49616,1.49616,0,0,1,1.4942,1.49481V125.921a1.496,1.496,0,0,1-1.4942,1.49411h-7.1566a1.49561,1.49561,0,0,1-1.49409-1.49411v-8.29868a1.49576,1.49576,0,0,1,1.49409-1.49481m7.1566,11.0546a1.26264,1.26264,0,0,0,1.2612-1.26111v-8.29868a1.26271,1.26271,0,0,0-1.2612-1.26172h-7.1566a1.263,1.263,0,0,0-1.2617,1.26172V125.921a1.26294,1.26294,0,0,0,1.2617,1.26111Z" transform="translate(-35.3546 -108.96301)" style="fill:#003915"/><path d="M126.0703,116.9465h7.1566a.67616.67616,0,0,1,.6758.67581v7.01059a.67633.67633,0,0,1-.6758.67578h-7.1566a.67645.67645,0,0,1-.6763-.67578v-7.01059a.67628.67628,0,0,1,.6763-.67581m7.1566,8.12921a.44333.44333,0,0,0,.4431-.44281v-7.01059a.44351.44351,0,0,0-.4431-.44312h-7.1566a.44387.44387,0,0,0-.44389.44312v7.01059a.44368.44368,0,0,0,.44389.44281Z" transform="translate(-35.3546 -108.96301)" style="fill:#003915"/><path d="M132.52679,125.72739a.47421.47421,0,1,1-.47429.47421.4751.4751,0,0,1,.47429-.47421m0,.71542a.24121.24121,0,1,0-.2415-.24121A.24193.24193,0,0,0,132.52679,126.44281Z" transform="translate(-35.3546 -108.96301)" style="fill:#003915"/><path d="M130.926,125.72739a.47421.47421,0,1,1-.47479.47421.47507.47507,0,0,1,.47479-.47421m0,.71542a.24121.24121,0,1,0-.2417-.24121A.24162.24162,0,0,0,130.926,126.44281Z" transform="translate(-35.3546 -108.96301)" style="fill:#003915"/><rect x="94.8994" y="10.12589" width="2.7195" height="0.2327" style="fill:#003915"/><rect x="96.14259" y="8.88177" width="0.2328" height="2.71951" style="fill:#003915"/><path d="M131.61369,118.3082a.8969.8969,0,1,1-.89659.89691.898.898,0,0,1,.89659-.89691m0,1.5611a.66429.66429,0,1,0-.66379-.66418A.66558.66558,0,0,0,131.61369,119.86929Z" transform="translate(-35.3546 -108.96301)" style="fill:#003915"/><rect x="94.8994" y="13.9711" width="2.7195" height="0.23239" style="fill:#003915"/><rect x="96.14259" y="12.72668" width="0.2328" height="2.7204" style="fill:#003915"/><path d="M131.61369,122.15259a.89716.89716,0,1,1-.89659.8974.8986.8986,0,0,1,.89659-.8974m0,1.56192a.66475.66475,0,1,0-.66379-.66452A.66547.66547,0,0,0,131.61369,123.71451Z" transform="translate(-35.3546 -108.96301)" style="fill:#003915"/><rect x="90.9688" y="10.12589" width="2.71929" height="0.2327" style="fill:#003915"/><rect x="92.2115" y="8.88177" width="0.233" height="2.71951" style="fill:#003915"/><path d="M127.6826,118.3082a.8969.8969,0,1,1-.8968.89691.89792.89792,0,0,1,.8968-.89691m0,1.5611a.66429.66429,0,1,0-.6638-.66418A.666.666,0,0,0,127.6826,119.86929Z" transform="translate(-35.3546 -108.96301)" style="fill:#003915"/><rect x="90.9688" y="13.9711" width="2.71929" height="0.23239" style="fill:#003915"/><rect x="92.2115" y="12.72668" width="0.233" height="2.7204" style="fill:#003915"/><path d="M127.6826,122.15259a.89716.89716,0,1,1-.8968.8974.89854.89854,0,0,1,.8968-.8974m0,1.56192a.66475.66475,0,1,0-.6638-.66452A.6659.6659,0,0,0,127.6826,123.71451Z" transform="translate(-35.3546 -108.96301)" style="fill:#003915"/><path d="M128.2124,125.72739a.47421.47421,0,1,1-.4745.47421.47486.47486,0,0,1,.4745-.47421m0,.71542a.24121.24121,0,1,0-.24181-.24121A.24168.24168,0,0,0,128.2124,126.44281Z" transform="translate(-35.3546 -108.96301)" style="fill:#003915"/><path d="M126.6109,125.72739a.47421.47421,0,1,1-.474.47421.47465.47465,0,0,1,.474-.47421m0,.71542a.24121.24121,0,1,0-.2415-.24121A.24167.24167,0,0,0,126.6109,126.44281Z" transform="translate(-35.3546 -108.96301)" style="fill:#003915"/><path d="M188.6842,117.02069a.80938.80938,0,1,0,.2347.57092.8103.8103,0,0,0-.2347-.57092m-.5726-1.03629a1.6069,1.6069,0,1,1-1.1364.47049A1.603,1.603,0,0,1,188.1116,115.98441Z" transform="translate(-35.3546 -108.96301)" style="fill:#003915"/><path d="M188.818,272.91969a.80925.80925,0,1,0,.23471.57091.81017.81017,0,0,0-.23471-.57091m-.57259-1.0363a1.6069,1.6069,0,1,1-1.13641.4705A1.603,1.603,0,0,1,188.24541,271.88339Z" transform="translate(-35.3546 -108.96301)" style="fill:#003915"/><path d="M210.1929,173.7933a3.9078,3.9078,0,1,1-3.9075-3.90781,3.90811,3.90811,0,0,1,3.9075,3.90781" transform="translate(-35.3546 -108.96301)" style="fill:#558e42;fill-rule:evenodd"/><polygon points="170.931 67.234 171.309 65.919 171.687 64.605 170.931 64.605 170.174 64.605 170.552 65.919 170.931 67.234" style="fill:#fdfdfd;fill-rule:evenodd"/><rect x="170.7256" y="62.42619" width="0.38409" height="2.28139" style="fill:#fdfdfd"/><path d="M136.275,216.92751c-.73189,0-1.2359-.6179-1.2359-1.7399s.504-1.73991,1.2359-1.73991,1.2359.618,1.2359,1.73991-.504,1.7399-1.2359,1.7399m0,.396c.972,0,1.67981-.7979,1.67981-2.13589s-.70781-2.13591-1.67981-2.13591-1.6738.798-1.6738,2.13591S135.303,217.3235,136.275,217.3235Zm-4.5-.42,1.4281-1.40381a1.72912,1.72912,0,0,0,.69-1.3141c0-.70189-.54-1.1339-1.39209-1.1339a1.88723,1.88723,0,0,0-1.4879.59981l.30579.26419a1.42657,1.42657,0,0,1,1.1461-.468c.642,0,.9839.29991.9839.7861,0,.2877-.0899.5697-.5638,1.0377l-1.7462,1.71021v.3058H134.085v-.384Zm-1.55989-.2399a.31405.31405,0,0,0-.318.324.30314.30314,0,0,0,.216.30591l-.2041.87h.288l.252-.828a.9767.9767,0,0,0,.0842-.3479A.314.314,0,0,0,130.2151,216.6636Zm-2.622.294c-.7441,0-1.1821-.324-1.1821-.8461,0-.516.438-.84,1.1821-.84.7438,0,1.188.324,1.188.84C128.7811,216.63361,128.3369,216.9576,127.5931,216.9576Zm-1.0381-2.78389c0-.468.402-.756,1.0381-.756.6298,0,1.044.288,1.044.7619,0,.4561-.39011.75011-1.044.75011S126.555,214.6357,126.555,214.17371Zm1.84789.9119a.95116.95116,0,0,0,.6721-.9238c0-.684-.5941-1.11011-1.4819-1.11011-.8881,0-1.4701.4261-1.4701,1.11011a.94787.94787,0,0,0,.6599.9238,1.0482,1.0482,0,0,0-.8098,1.0321c0,.74379.612,1.2058,1.62,1.2058,1.002,0,1.6319-.462,1.6319-1.2058A1.05762,1.05762,0,0,0,128.40289,215.0856Zm-4.8299-1.99791v.3838h.9901v3.816h.432v-4.19981Z" transform="translate(-35.3546 -108.96301)" style="fill:#6e6e6e;fill-rule:evenodd"/><path d="M135.771,149.72751c-.7319,0-1.2359-.618-1.2359-1.74s.504-1.7399,1.2359-1.7399,1.2359.618,1.2359,1.7399-.504,1.74-1.2359,1.74m0,.396c.972,0,1.67981-.798,1.67981-2.136s-.70781-2.13589-1.67981-2.13589-1.6738.798-1.6738,2.13589S134.799,150.1235,135.771,150.1235Zm-4.5-.4201,1.4281-1.40381a1.72885,1.72885,0,0,0,.69-1.31409c0-.7019-.54-1.13391-1.39211-1.13391a1.887,1.887,0,0,0-1.4879.59991l.3058.2641a1.42655,1.42655,0,0,1,1.1461-.468c.642,0,.9839.2999.9839.7861,0,.28772-.0899.56979-.5638,1.03781l-1.7462,1.71008v.30591H133.581v-.38409Zm-1.55989-.2399a.31406.31406,0,0,0-.318.324.30305.30305,0,0,0,.216.30591l-.2041.87h.288l.252-.828a.97692.97692,0,0,0,.0842-.3479A.31405.31405,0,0,0,129.71111,149.4635Zm-2.2861-1.77591,1.188-1.49408v-.30591h-2.7v.38388h2.14809l-1.16389,1.45813v.318h.2999c.7798,0,1.1338.33,1.1338.834,0,.52191-.3838.84592-1.08.84592a1.84106,1.84106,0,0,1-1.3019-.4859l-.2101.34189a2.18517,2.18517,0,0,0,1.512.54c1.014,0,1.5239-.54,1.5239-1.24191C128.7748,148.2095,128.325,147.7355,127.425,147.68759Zm-3.852-1.8v.38388h.9901v3.816h.432V145.8876Z" transform="translate(-35.3546 -108.96301)" style="fill:#6e6e6e;fill-rule:evenodd"/><path d="M57.405,149.72751c-.7319,0-1.2359-.618-1.2359-1.74s.504-1.7399,1.2359-1.7399,1.2359.618,1.2359,1.7399-.504,1.74-1.2359,1.74m0,.396c.972,0,1.6798-.798,1.6798-2.136s-.7078-2.13589-1.6798-2.13589-1.6739.798-1.6739,2.13589S56.433,150.1235,57.405,150.1235Zm-4.5-.4201,1.4281-1.40381a1.72864,1.72864,0,0,0,.6899-1.31409c0-.7019-.54-1.13391-1.3921-1.13391a1.8871,1.8871,0,0,0-1.4879.59991l.3059.2641a1.42634,1.42634,0,0,1,1.146-.468c.6421,0,.9839.2999.9839.7861,0,.28772-.0898.56979-.5638,1.03781l-1.7461,1.71008v.30591h2.946v-.38409Zm-1.5599-.2399a.31414.31414,0,0,0-.3181.324.30317.30317,0,0,0,.216.30591l-.2041.87h.288l.252-.828a.97669.97669,0,0,0,.0842-.3479A.314.314,0,0,0,51.3451,149.4635Zm-2.2862-1.77591,1.188-1.49408v-.30591h-2.7v.38388H49.695l-1.1639,1.45813v.318h.2999c.7798,0,1.1339.33,1.1339.834,0,.52191-.3838.84592-1.08.84592a1.8413,1.8413,0,0,1-1.302-.4859l-.21.34189a2.185,2.185,0,0,0,1.512.54c1.0139,0,1.5239-.54,1.5239-1.24191C50.4088,148.2095,49.9589,147.7355,49.0589,147.68759Z" transform="translate(-35.3546 -108.96301)" style="fill:#6e6e6e;fill-rule:evenodd"/><path d="M101.4627,282.92751c-.7319,0-1.2359-.618-1.2359-1.74s.504-1.7399,1.2359-1.7399,1.2359.618,1.2359,1.7399-.504,1.74-1.2359,1.74m0,.396c.972,0,1.6799-.798,1.6799-2.136s-.7079-2.13589-1.6799-2.13589-1.6738.798-1.6738,2.13589S100.4907,283.3235,101.4627,283.3235Zm-3.9719-.396c-.7319,0-1.2359-.618-1.2359-1.74s.504-1.7399,1.2359-1.7399,1.2359.618,1.2359,1.7399S98.2227,282.92751,97.4908,282.92751Zm0,.396c.972,0,1.6798-.798,1.6798-2.136s-.7078-2.13589-1.6798-2.13589-1.6738.798-1.6738,2.13589S96.5188,283.3235,97.4908,283.3235Zm-2.5497-.66a.31415.31415,0,0,0-.3181.324.30315.30315,0,0,0,.216.30589l-.20409.87h.288l.252-.828a.97656.97656,0,0,0,.08421-.3479A.314.314,0,0,0,94.9411,282.6635Zm-2.34.294c-.726,0-1.1101-.438-1.1101-.9a.97213.97213,0,0,1,1.08-.91789c.648,0,1.0559.35379,1.0559.906A.91882.91882,0,0,1,92.6011,282.9575Zm.036-2.1841a1.34254,1.34254,0,0,0-1.2841.72c-.01189-.1259-.0179-.24579-.0179-.34189,0-1.14.582-1.722,1.4879-1.722a1.47067,1.47067,0,0,1,.8158.19809l.1741-.3481a1.92833,1.92833,0,0,0-.9958-.22789c-1.1401,0-1.9199.7439-1.9199,2.17189,0,1.32611.6057,2.1,1.72169,2.1a1.3086,1.3086,0,0,0,1.4341-1.2901A1.27166,1.27166,0,0,0,92.6371,280.77341ZM88.473,279.0876v.3839h.9901v3.816h.432V279.0876Z" transform="translate(-35.3546 -108.96301)" style="fill:#6e6e6e;fill-rule:evenodd"/><path d="M188.96091,194.4686c-.7319,0-1.2359-.6179-1.2359-1.7399s.504-1.7399,1.2359-1.7399,1.23589.618,1.23589,1.7399-.504,1.7399-1.23589,1.7399m0,.396c.972,0,1.67979-.7979,1.67979-2.13589s-.70779-2.13589-1.67979-2.13589-1.6739.798-1.6739,2.13589S187.98891,194.86459,188.96091,194.86459Zm-3.966-2.514h-.54l.144-1.338h1.91989v-.3838h-2.2977l-.216,2.1059h.894c1.06781,0,1.4037.33591,1.4037.8759,0,.51-.37779.858-1.09189.858a1.821,1.821,0,0,1-1.29-.48579l-.20979.3418a2.16814,2.16814,0,0,0,1.5058.54c1.02609,0,1.5239-.5578,1.5239-1.2719C186.7408,192.8486,186.26089,192.3506,184.9949,192.3506Zm-2.0457,1.8541a.31414.31414,0,0,0-.3181.324.30321.30321,0,0,0,.216.30589l-.2041.87h.288l.252-.828a.97651.97651,0,0,0,.0842-.3479A.314.314,0,0,0,182.9492,194.2047Zm-2.562-1.4281c-.648,0-1.05591-.354-1.05591-.9059a.919.919,0,0,1,1.02589-.9119c.72591,0,1.11.4379,1.11.9A.97206.97206,0,0,1,180.38721,192.7766Zm-.04791-2.18379a1.30845,1.30845,0,0,0-1.434,1.28979,1.27144,1.27144,0,0,0,1.41589,1.26,1.34237,1.34237,0,0,0,1.2841-.72c.0119.12611.01779.246.01779.3421,0,1.13991-.58189,1.72211-1.4879,1.72211a1.472,1.472,0,0,1-.8158-.1982l-.174.3481a1.92708,1.92708,0,0,0,.9958.22789c1.14009,0,1.91989-.744,1.91989-2.17189C182.0611,191.3667,181.45531,190.5928,180.33929,190.5928Z" transform="translate(-35.3546 -108.96301)" style="fill:#6e6e6e;fill-rule:evenodd"/><path d="M204.035,261.6696c-.7319,0-1.2359-.618-1.2359-1.7399s.504-1.7399,1.2359-1.7399,1.2359.61789,1.2359,1.7399-.504,1.7399-1.2359,1.7399m0,.396c.972,0,1.67979-.798,1.67979-2.13589s-.70779-2.13591-1.67979-2.13591-1.6739.79791-1.6739,2.13591S203.063,262.0656,204.035,262.0656Zm-3.97191-.396c-.732,0-1.236-.618-1.236-1.7399s.504-1.7399,1.236-1.7399,1.2359.61789,1.2359,1.7399S200.795,261.6696,200.0631,261.6696Zm0,.396c.972,0,1.67981-.798,1.67981-2.13589s-.70781-2.13591-1.67981-2.13591-1.67389.79791-1.67389,2.13591S199.0911,262.0656,200.0631,262.0656Zm-2.54979-.6599a.31408.31408,0,0,0-.3181.324.30309.30309,0,0,0,.216.30579l-.20409.87h.288l.252-.828a.97605.97605,0,0,0,.0842-.34779A.314.314,0,0,0,197.51331,261.4057Zm-.84621-.864h-.8399v-.972h-.4198v.972h-1.8241l2.1481-2.7119h-.48019l-2.22571,2.78389v.31181h2.36971v1.1041h.432v-1.1041h.8399Z" transform="translate(-35.3546 -108.96301)" style="fill:#6e6e6e;fill-rule:evenodd"/><path d="M175.1655,140.76971c-.7319,0-1.2359-.618-1.2359-1.73993s.504-1.7399,1.2359-1.7399,1.2359.61792,1.2359,1.7399-.504,1.73993-1.2359,1.73993m0,.396c.972,0,1.67981-.798,1.67981-2.13593s-.70781-2.13589-1.67981-2.13589-1.6738.79791-1.6738,2.13589S174.1935,141.16571,175.1655,141.16571Zm-3.90579-.366c-.74411,0-1.1821-.324-1.1821-.8461,0-.5159.438-.8399,1.1821-.8399.74379,0,1.188.324,1.188.8399C172.44769,140.47571,172.00349,140.79971,171.2597,140.79971Zm-1.0381-2.78391c0-.468.402-.756,1.0381-.756.62979,0,1.044.288,1.044.762,0,.45612-.39009.75-1.044.75S170.2216,138.47791,170.2216,138.01581Zm1.8479.9119a.95108.95108,0,0,0,.67209-.9238c0-.684-.59409-1.11-1.48189-1.11-.88811,0-1.47011.426-1.47011,1.11a.94766.94766,0,0,0,.6599.9238,1.04831,1.04831,0,0,0-.8098,1.0321c0,.74381.612,1.2059,1.62,1.2059,1.002,0,1.6319-.4621,1.6319-1.2059A1.05779,1.05779,0,0,0,172.0695,138.9277Zm-3.40781,1.57809a.314.314,0,0,0-.318.324.303.303,0,0,0,.216.30579l-.20409.87h.288l.252-.828a.97565.97565,0,0,0,.08411-.34781A.314.314,0,0,0,168.6617,140.5058Zm-2.7541-3.5759v.38379h.99011v3.816h.432v-4.1998Z" transform="translate(-35.3546 -108.96301)" style="fill:#6e6e6e;fill-rule:evenodd"/><path d="M214.30521,228.0686c-.7319,0-1.2359-.618-1.2359-1.74s.504-1.7399,1.2359-1.7399,1.2359.618,1.2359,1.7399-.504,1.74-1.2359,1.74m0,.396c.972,0,1.67979-.798,1.67979-2.136s-.70779-2.13589-1.67979-2.13589-1.6739.798-1.6739,2.13589S213.33321,228.4646,214.30521,228.4646Zm-4.5-.42011,1.4281-1.40379a1.72872,1.72872,0,0,0,.6899-1.3141c0-.7019-.54-1.1339-1.39211-1.1339a1.88716,1.88716,0,0,0-1.4879.5999l.30591.2641a1.42625,1.42625,0,0,1,1.146-.468c.64211,0,.9839.2999.9839.7861,0,.2877-.0898.56979-.5638,1.0378l-1.74611,1.7101v.30591h2.946v-.38411Zm-1.55991-.2399a.31415.31415,0,0,0-.3181.324.30314.30314,0,0,0,.216.30589l-.2041.87h.288l.252-.828a.97651.97651,0,0,0,.0842-.3479A.314.314,0,0,0,208.2453,227.8046Zm-2.28619-1.77589,1.188-1.49409v-.30591h-2.7v.3839h2.1481l-1.16389,1.4581v.318h.2999c.7798,0,1.1339.33,1.1339.834,0,.5219-.3838.8459-1.08.8459a1.84133,1.84133,0,0,1-1.302-.4859l-.21.3419a2.185,2.185,0,0,0,1.512.54c1.0139,0,1.52391-.54,1.52391-1.2419C207.309,226.5506,206.8591,226.0766,205.95911,226.0287Z" transform="translate(-35.3546 -108.96301)" style="fill:#6e6e6e;fill-rule:evenodd"/><path d="M173.1328,289.5685c-.7319,0-1.2359-.618-1.2359-1.7399s.504-1.74,1.2359-1.74,1.2359.618,1.2359,1.74-.504,1.7399-1.2359,1.7399m0,.396c.972,0,1.67981-.798,1.67981-2.13589s-.70781-2.136-1.67981-2.136-1.6739.798-1.6739,2.136S172.1608,289.96449,173.1328,289.96449Zm-3.62379-.366c-.726,0-1.11011-.4379-1.11011-.9a.97215.97215,0,0,1,1.08-.91791c.648,0,1.05591.35381,1.05591.906A.91881.91881,0,0,1,169.509,289.5985Zm.036-2.1841a1.34252,1.34252,0,0,0-1.2841.72c-.0119-.12579-.0179-.2458-.0179-.3418,0-1.14011.582-1.72211,1.4879-1.72211a1.47073,1.47073,0,0,1,.81581.1981l.17409-.348a1.92729,1.92729,0,0,0-.99579-.228c-1.14011,0-1.91991.7439-1.91991,2.172,0,1.326.6057,2.0999,1.72169,2.0999a1.30861,1.30861,0,0,0,1.43411-1.2901A1.27166,1.27166,0,0,0,169.545,287.4144Zm-2.6158,1.8902a.31409.31409,0,0,0-.3181.324.30312.30312,0,0,0,.216.3058l-.2041.87h.288l.252-.828a.976.976,0,0,0,.0842-.34779A.314.314,0,0,0,166.9292,289.3046Zm-3.24.23981,1.4281-1.40381a1.72865,1.72865,0,0,0,.68991-1.3141c0-.70189-.54-1.1339-1.39211-1.1339a1.88716,1.88716,0,0,0-1.4879.5999l.30589.2641a1.42635,1.42635,0,0,1,1.146-.468c.64209,0,.9839.3.9839.7861,0,.2877-.08981.56981-.56381,1.03781l-1.74609,1.7101v.30589h2.946v-.38409Z" transform="translate(-35.3546 -108.96301)" style="fill:#6e6e6e;fill-rule:evenodd"/><path d="M224.979,289.5685c-.7319,0-1.2359-.618-1.2359-1.7399s.504-1.74,1.2359-1.74,1.2359.618,1.2359,1.74-.504,1.7399-1.2359,1.7399m0,.396c.972,0,1.67979-.798,1.67979-2.13589s-.70779-2.136-1.67979-2.136-1.6738.798-1.6738,2.136S224.007,289.96449,224.979,289.96449Zm-3.97191-.396c-.73189,0-1.2359-.618-1.2359-1.7399s.504-1.74,1.2359-1.74,1.2359.618,1.2359,1.74S221.739,289.5685,221.0071,289.5685Zm0,.396c.972,0,1.67981-.798,1.67981-2.13589s-.70781-2.136-1.67981-2.136-1.6738.798-1.6738,2.136S220.0351,289.96449,221.0071,289.96449Zm-2.5497-.6599a.31409.31409,0,0,0-.3181.324.30312.30312,0,0,0,.216.3058l-.2041.87h.288l.252-.828a.97608.97608,0,0,0,.08421-.34779A.314.314,0,0,0,218.4574,289.3046Zm-2.6221-1.8542h-.54l.144-1.33789h1.91991v-.38391H215.0614l-.216,2.10591h.8941c1.06779,0,1.4037.33589,1.4037.8759,0,.51-.37781.85809-1.0919.85809a1.821,1.821,0,0,1-1.29-.4859l-.20981.3419a2.16869,2.16869,0,0,0,1.5058.54c1.02611,0,1.52391-.55789,1.52391-1.2719C217.58121,287.9485,217.1013,287.45039,215.8353,287.45039Z" transform="translate(-35.3546 -108.96301)" style="fill:#6e6e6e;fill-rule:evenodd"/><path d="M312.62711,282.92751c-.7319,0-1.2359-.618-1.2359-1.74s.504-1.7399,1.2359-1.7399,1.2359.618,1.2359,1.7399-.504,1.74-1.2359,1.74m0,.396c.972,0,1.67978-.798,1.67978-2.136s-.70779-2.13589-1.67978-2.13589-1.6738.798-1.6738,2.13589S311.65509,283.3235,312.62711,283.3235Zm-3.90579-.366c-.74411,0-1.1821-.324-1.1821-.8461,0-.5159.438-.8399,1.1821-.8399.74377,0,1.188.324,1.188.8399C309.9093,282.6335,309.46509,282.9575,308.72131,282.9575Zm-1.03812-2.78391c0-.468.402-.756,1.03812-.756.62979,0,1.044.288,1.044.7619,0,.4561-.39008.75009-1.044.75009S307.6832,280.6356,307.6832,280.1736Zm1.8479.9119a.95114.95114,0,0,0,.67209-.9238c0-.684-.59409-1.11009-1.48187-1.11009-.88812,0-1.47012.4261-1.47012,1.11009a.94788.94788,0,0,0,.65991.9238,1.04825,1.04825,0,0,0-.80981,1.0321c0,.7438.612,1.2059,1.62,1.2059,1.002,0,1.6319-.4621,1.6319-1.2059A1.05765,1.05765,0,0,0,309.5311,281.08549Zm-3.40781,1.578a.31406.31406,0,0,0-.318.324.30305.30305,0,0,0,.216.30589l-.2041.87h.288l.252-.828a.97684.97684,0,0,0,.0842-.3479A.314.314,0,0,0,306.12329,282.6635Zm-2.622-1.8541h-.54l.144-1.33791h1.91992v-.3839h-2.29782l-.216,2.1059h.894c1.0679,0,1.40381.33591,1.40381.8759,0,.51-.3779.85811-1.09192.85811a1.82149,1.82149,0,0,1-1.2901-.4859l-.20978.34189a2.1686,2.1686,0,0,0,1.5058.54c1.02618,0,1.5239-.55791,1.5239-1.272C305.2471,281.3075,304.76721,280.8094,303.50131,280.8094Zm-3.528-1.7218v.3839h.99011v3.816h.432V279.0876Z" transform="translate(-35.3546 -108.96301)" style="fill:#6e6e6e;fill-rule:evenodd"/><path d="M376.44919,282.92751c-.7319,0-1.2359-.618-1.2359-1.74s.504-1.7399,1.2359-1.7399,1.2359.618,1.2359,1.7399-.504,1.74-1.2359,1.74m0,.396c.972,0,1.67981-.798,1.67981-2.136s-.70779-2.13589-1.67981-2.13589-1.67389.798-1.67389,2.13589S375.4772,283.3235,376.44919,283.3235Zm-2.07019-1.524h-.8399v-.972h-.4198v.972h-1.8241l2.1481-2.7119h-.48019l-2.22571,2.78391v.31189h2.36969v1.10411h.432V282.1834h.8399Zm-4.43359.864a.31416.31416,0,0,0-.31812.324.30315.30315,0,0,0,.216.30589l-.2041.87h.288l.252-.828a.97685.97685,0,0,0,.0842-.3479A.314.314,0,0,0,369.9454,282.6635Zm-2.28619-1.77589,1.188-1.49411v-.30589h-2.7v.3839h2.1481l-1.16388,1.4581v.318h.2999c.77979,0,1.13388.33,1.13388.834,0,.5219-.38379.8459-1.08.8459a1.84133,1.84133,0,0,1-1.302-.4859l-.21.34189a2.18489,2.18489,0,0,0,1.512.54c1.01392,0,1.5239-.54,1.5239-1.2419C369.00909,281.4095,368.5592,280.9355,367.65921,280.8876Z" transform="translate(-35.3546 -108.96301)" style="fill:#6e6e6e;fill-rule:evenodd"/><path d="M381.4707,274.7467l-.87131-.69281h-.17859v1.57491h.22391v-1.2529l.85068.67889h.18539v-.1749c0-.45529.1925-.66161.48642-.66161.3045,0,.4935.22391.4935.62981a1.07418,1.07418,0,0,1-.28342.7597l.19952.1225a1.27485,1.27485,0,0,0,.31488-.8822c0-.59129-.31488-.8889-.72449-.8889-.392,0-.6684.2625-.6965.78751m.203,2.1387c0,.3779-.20642.616-.52841.616a.5363.5363,0,0,1-.532-.59871c0-.42349.25558-.6474.5249-.6474A.56708.56708,0,0,1,381.67371,276.88541Zm-1.2739.02779a.76321.76321,0,0,0,.75259.8365.7415.7415,0,0,0,.73468-.826.78244.78244,0,0,0-.4198-.7489c.07352-.00711.14352-.0105.19962-.0105.665,0,1.0043.3396,1.0043.86789a.85916.85916,0,0,1-.11542.476l.203.1015a1.12407,1.12407,0,0,0,.1329-.5809c0-.665-.4339-1.11989-1.267-1.11989C380.85141,275.90891,380.39981,276.2623,380.39981,276.91319Zm2.107,1.31271a.18317.18317,0,0,0,.18909.18539.17666.17666,0,0,0,.17831-.1259l.50769.11909v-.16809l-.48309-.14711a.57338.57338,0,0,0-.20291-.04909A.1832.1832,0,0,0,382.50681,278.22591Zm.14,1.89009-.81888-.8331a1.00777,1.00777,0,0,0-.76651-.4025c-.40961,0-.66159.315-.66159.81219a1.10108,1.10108,0,0,0,.3501.8679l.1539-.1786a.832.832,0,0,1-.273-.6684c0-.3744.1749-.574.4584-.574.16809,0,.33249.05251.6055.3288l.9975,1.01851h.17859v-1.71831h-.224Z" transform="translate(-35.3546 -108.96301)" style="fill:#434242"/><path d="M346.22049,280.19769l-.8714-.69279h-.1785v1.57491h.22391v-1.2529l.85071.67889h.18539v-.1749c0-.4552.19238-.66161.48639-.66161.30441,0,.4935.22391.4935.6299a1.07453,1.07453,0,0,1-.28348.7597l.19958.12241a1.27465,1.27465,0,0,0,.31491-.88211c0-.59129-.31491-.889-.72452-.889-.39209,0-.6684.2625-.6965.78749m1.19,2.13841c0,.4269-.3606.72119-1.0148.72119-.65448,0-1.01508-.2943-1.01508-.72119s.3606-.72081,1.01508-.72081C347.0499,281.6153,347.41049,281.90919,347.41049,282.33611Zm.231,0c0-.56691-.46542-.9799-1.24582-.9799-.7807,0-1.24609.413-1.24609.9799s.46539.97659,1.24609.97659C347.17609,283.3127,347.64151,282.90311,347.64151,282.33611Zm-.38492,1.4877a.1832.1832,0,0,0,.189.18539.1767.1767,0,0,0,.17831-.1259l.50769.119v-.168l-.483-.1472a.57535.57535,0,0,0-.203-.049A.1832.1832,0,0,0,347.25659,283.82381Zm-1.0361,1.33339-.8714-.69279h-.1785v1.57491h.22391v-1.25291l.85071.67891h.18539v-.1749c0-.4552.19238-.66161.48639-.66161.30441,0,.4935.22391.4935.6299a1.07407,1.07407,0,0,1-.28348.7596l.19958.1225a1.27458,1.27458,0,0,0,.31491-.8821c0-.59129-.31491-.889-.72452-.889C346.5249,284.36971,346.2486,284.6322,346.22049,285.1572Z" transform="translate(-35.3546 -108.96301)" style="fill:#434242"/><path d="M308.08319,306.4204c-.42688,0-.72119-.3605-.72119-1.0148,0-.6545.29431-1.0151.72119-1.0151s.72079.3606.72079,1.0151c0,.6543-.29388,1.0148-.72079,1.0148m0,.23109c.56689,0,.97992-.4655.97992-1.2459,0-.7806-.413-1.2461-.97992-1.2461s-.97659.4655-.97659,1.2461C307.1066,306.186,307.5163,306.6515,308.08319,306.6515Zm-2.31708-1.21809c-.37781,0-.61591-.20641-.61591-.5284a.53629.53629,0,0,1,.59869-.532c.4234,0,.6474.2556.6474.52489A.5671.5671,0,0,1,305.76611,305.4334Zm-.02771-1.2739a.76318.76318,0,0,0-.83652.7526.74161.74161,0,0,0,.826.73479.78267.78267,0,0,0,.7489-.4199c.00708.0735.0105.1435.0105.1996,0,.665-.3396,1.0043-.868,1.0043a.85791.85791,0,0,1-.47589-.1154l-.1015.203a1.124,1.124,0,0,0,.58081.133c.665,0,1.12-.434,1.12-1.2671C306.74271,304.6111,306.38919,304.1595,305.7384,304.1595Zm-1.31281,2.107a.18315.18315,0,0,0-.1853.18909.17668.17668,0,0,0,.12579.1783l-.119.50771h.168l.14719-.4831a.57465.57465,0,0,0,.049-.2029A.1832.1832,0,0,0,304.4256,306.2665Zm-.49319-.504h-.49011v-.56689h-.2449v.56689H302.1333l1.2529-1.582h-.27979l-1.29861,1.624v.1819h1.38251v.6441h.252v-.6441h.49011Z" transform="translate(-35.3546 -108.96301)" style="fill:#434242"/><path d="M210.4106,293.319c0,.4269-.3605.7211-1.0148.7211-.6545,0-1.015-.2942-1.015-.7211s.3605-.7209,1.015-.7209c.6543,0,1.0148.294,1.0148.7209m.23109,0c0-.567-.4655-.98-1.2459-.98-.78059,0-1.24609.413-1.24609.98s.4655.9765,1.24609.9765C210.17619,294.2955,210.64169,293.88589,210.64169,293.319Zm-.21349,2.2785c0,.434-.1891.68939-.49352.68939-.301,0-.4901-.2554-.4901-.68939s.1891-.6931.4901-.6931C210.23911,294.9044,210.42821,295.1635,210.42821,295.5975Zm-1.6239.60539c-.273,0-.4411-.2347-.4411-.60539,0-.36771.16809-.60921.44449-.60921.26611,0,.43761.2276.43761.60921C209.2453,295.9787,209.07381,296.2029,208.80431,296.2029Zm.532-1.078a.55487.55487,0,0,0-.53911-.392c-.3989,0-.64749.34641-.64749.86461,0,.5179.2486.85739.64749.85739a.55289.55289,0,0,0,.53911-.38519.6111.6111,0,0,0,.60179.4726c.434,0,.7036-.3569.7036-.94479,0-.5845-.26959-.95221-.7036-.95221A.61687.61687,0,0,0,209.3363,295.12489Zm.92039,1.988a.18318.18318,0,0,0,.1891.1854.17676.17676,0,0,0,.1783-.12591l.50771.1191v-.1681l-.483-.1472a.57617.57617,0,0,0-.203-.049A.18322.18322,0,0,0,210.2567,297.1129Zm-2.086,1.6064h.22391v-.5775h2.22609v-.252h-2.45Z" transform="translate(-35.3546 -108.96301)" style="fill:#434242"/><path d="M49.428,273.84779c0,.42351-.2554.64771-.525.64771a.56722.56722,0,0,1-.5354-.6301c0-.3779.2063-.616.5283-.616a.53606.53606,0,0,1,.5321.59839m-1.2739-.021a.78347.78347,0,0,0,.4198.74921c-.0734.00679-.1434.0105-.1995.0105-.6648,0-1.0044-.3396-1.0044-.868a.861.861,0,0,1,.1154-.47621l-.2029-.1015a1.12583,1.12583,0,0,0-.133.5811c0,.665.434,1.12,1.2671,1.12.7733,0,1.2248-.3535,1.2248-1.00461a.76332.76332,0,0,0-.7525-.8365A.74176.74176,0,0,0,48.1541,273.8268Zm1.2563,2.35561c0,.4269-.3605.7211-1.0148.7211-.6545,0-1.0151-.2942-1.0151-.7211s.3606-.72081,1.0151-.72081C49.0499,275.46159,49.4104,275.75549,49.4104,276.1824Zm.231,0c0-.56691-.4654-.9799-1.2458-.9799-.7806,0-1.2461.413-1.2461.9799s.4655.9765,1.2461.9765C49.176,277.15891,49.6414,276.7493,49.6414,276.1824ZM49.2565,277.67a.18316.18316,0,0,0,.1891.18539.17669.17669,0,0,0,.1783-.12579l.5077.119v-.16811l-.4831-.14709a.57284.57284,0,0,0-.2029-.049A.18318.18318,0,0,0,49.2565,277.67Zm-1.0361,1.3335-.8713-.69279h-.1786v1.57491h.2239v-1.2529l.8507.67889h.1854v-.1749c0-.45531.1925-.66161.4864-.66161.3045,0,.4935.22391.4935.62981a1.07428,1.07428,0,0,1-.2834.75969l.1995.12251a1.27474,1.27474,0,0,0,.3149-.8822c0-.59131-.3149-.8889-.7245-.8889C48.5249,278.216,48.2485,278.4785,48.2204,279.00349Z" transform="translate(-35.3546 -108.96301)" style="fill:#434242"/><path d="M49.4104,209.5929c0,.42691-.3605.7211-1.0148.7211-.6545,0-1.0151-.29419-1.0151-.7211s.3606-.7209,1.0151-.7209c.6543,0,1.0148.294,1.0148.7209m.231,0c0-.56689-.4654-.97989-1.2458-.97989-.7806,0-1.2461.413-1.2461.97989s.4655.9765,1.2461.9765C49.176,210.5694,49.6414,210.15981,49.6414,209.5929Zm-.2449,2.6252-.8189-.8331a1.0079,1.0079,0,0,0-.7665-.40259c-.4096,0-.6616.315-.6616.81219a1.10112,1.10112,0,0,0,.3501.8679l.1539-.17851a.83232.83232,0,0,1-.273-.66849c0-.3744.1749-.574.4584-.574.1681,0,.3325.05251.6055.3288l.9975,1.01851h.1786V210.8705h-.224Zm-.14.90991a.18317.18317,0,0,0,.1891.18539.17677.17677,0,0,0,.1783-.1259l.5077.11909v-.16809l-.4831-.14711a.5734.5734,0,0,0-.2029-.04909A.1832.1832,0,0,0,49.2565,213.128Zm-1.0361,1.33339-.8713-.69279h-.1786v1.57491h.2239v-1.2529l.8507.67889h.1854v-.1749c0-.4552.1925-.66161.4864-.66161.3045,0,.4935.224.4935.6299a1.07432,1.07432,0,0,1-.2834.7597l.1995.12239a1.27426,1.27426,0,0,0,.3149-.8821c0-.59129-.3149-.889-.7245-.889C48.5249,213.6739,48.2485,213.9364,48.2204,214.4614Z" transform="translate(-35.3546 -108.96301)" style="fill:#434242"/><path d="M44.9906,156.05069l-.8713-.69278h-.1786v1.57489h.2239v-1.2529l.8507.67889h.1854v-.1749c0-.4552.1925-.66159.4864-.66159.3045,0,.4935.224.4935.62988a1.07431,1.07431,0,0,1-.2834.7597l.1995.12241a1.27455,1.27455,0,0,0,.315-.88211c0-.59128-.315-.889-.7246-.889-.392,0-.6684.26248-.6965.78748m-1.0499,2.933h.6826v-.2486h-.4587v-1.26l2.2261,1.008v-.273l-2.2714-1.0253h-.1786Zm2.086.43741a.18317.18317,0,0,0,.1891.18539.17678.17678,0,0,0,.1783-.12592l.5077.11911v-.16809l-.4831-.14713a.57366.57366,0,0,0-.2029-.04907A.1832.1832,0,0,0,46.0267,159.42111Zm.14,1.89008-.8189-.8331a1.00774,1.00774,0,0,0-.7665-.4025c-.4096,0-.6616.31491-.6616.8121a1.10136,1.10136,0,0,0,.3501.868l.1539-.17862a.832.832,0,0,1-.273-.6684c0-.37439.1749-.574.4584-.574.1681,0,.3325.0524.6055.32883l.9975,1.01849h.1786v-1.71841h-.224Z" transform="translate(-35.3546 -108.96301)" style="fill:#434242"/><path d="M77.9204,143.65509H78.603v-.2486h-.4586v-1.26l2.226,1.008v-.273l-2.2714-1.0253h-.1786Zm0,1.3439h.224v-.57739h2.226v-.252h-2.45Zm2.0861.3569a.18313.18313,0,0,0,.189.1853.17661.17661,0,0,0,.1783-.12579l.5077.119v-.16809l-.483-.14709a.57508.57508,0,0,0-.203-.049A.1832.1832,0,0,0,80.0065,145.3559Zm-1.0361,1.3334-.8714-.69281h-.1786v1.57492h.224v-1.2529l.8507.67889h.1853v-.1749c0-.4552.1925-.66162.4865-.66162.3044,0,.4935.22391.4935.62991a1.074,1.074,0,0,1-.2835.75958l.1996.12253a1.2752,1.2752,0,0,0,.3149-.88211c0-.59131-.3149-.889-.7245-.889C79.2748,145.90179,78.9985,146.16431,78.9704,146.6893Z" transform="translate(-35.3546 -108.96301)" style="fill:#434242"/><path d="M166.1805,128.65579c0,.42691-.36049.72122-1.0148.72122-.6545,0-1.01509-.29431-1.01509-.72122s.3606-.72079,1.01509-.72079c.65431,0,1.0148.29391,1.0148.72079m.23111,0c0-.56689-.4655-.97989-1.24591-.97989-.78059,0-1.24609.413-1.24609.97989s.4655.97659,1.24609.97659C165.94611,129.63239,166.41161,129.22281,166.41161,128.65579Zm-.2135,2.1138c0,.42349-.2554.64771-.525.64771a.56716.56716,0,0,1-.5354-.6301c0-.3779.2063-.616.52831-.616A.53607.53607,0,0,1,166.1981,130.76959Zm-1.27391-.021a.78349.78349,0,0,0,.4198.74921c-.07339.00681-.14339.0105-.19949.0105-.66479,0-1.0043-.3396-1.0043-.86789a.8612.8612,0,0,1,.1153-.47632l-.2029-.10138a1.12552,1.12552,0,0,0-.133.58109c0,.665.434,1.1199,1.26711,1.1199.7733,0,1.2249-.35339,1.2249-1.00461a.76339.76339,0,0,0-.75261-.83649A.74176.74176,0,0,0,164.92419,130.7486Zm1.1024,1.52621a.18318.18318,0,0,0,.1891.18539.17664.17664,0,0,0,.1783-.12592l.50771.11911v-.16809l-.48311-.14709a.57251.57251,0,0,0-.2029-.049A.18319.18319,0,0,0,166.0266,132.27481Zm-2.086,1.60638h.22391v-.57739h2.22609v-.252h-2.45Z" transform="translate(-35.3546 -108.96301)" style="fill:#434242"/><path d="M222.17529,189.2399v.3149l-.78069-.08389v-1.12h-.22391v1.3405l1.2285.1259v-.5213c0-.62311.19589-.8192.51109-.8192.29741,0,.50031.22049.50031.63719a1.061,1.061,0,0,1-.28349.7523l.1996.1225a1.26449,1.26449,0,0,0,.3149-.87849c0-.5984-.32541-.8889-.74181-.8889-.4343,0-.7245.28-.7245,1.01849m.57741.86079v.4902h-.56689v.2449h.56689v1.0641l-1.582-1.2529v.2798l1.6239,1.29849h.182v-1.3824h.6441v-.252h-.6441v-.4902Zm.504,2.5867a.18315.18315,0,0,0,.1891.1853.17668.17668,0,0,0,.1783-.12579l.5076.119v-.16811l-.483-.14709a.57546.57546,0,0,0-.2029-.049A.18322.18322,0,0,0,223.2567,192.68739Zm-2.086,1.6064h.22391v-.5775h2.22609v-.252h-2.45Z" transform="translate(-35.3546 -108.96301)" style="fill:#434242"/><path d="M222.17529,225.30141v.3149l-.78069-.08391v-1.12h-.22391v1.3405l1.2285.1259v-.5213c0-.62309.19589-.8192.51109-.8192.29741,0,.50031.2205.50031.63721a1.061,1.061,0,0,1-.28349.75229l.1996.1225a1.26449,1.26449,0,0,0,.3149-.87849c0-.5984-.32541-.8889-.74181-.8889-.4343,0-.7245.28-.7245,1.01851m.24831,1.9845c0,.3779-.20641.616-.5284.616a.53639.53639,0,0,1-.5321-.59871c0-.42349.25571-.6474.525-.6474A.56707.56707,0,0,1,222.4236,227.2859Zm-1.2739.0278a.76322.76322,0,0,0,.75259.83649.74151.74151,0,0,0,.7347-.826.78246.78246,0,0,0-.4198-.7489c.07341-.0071.14351-.0105.1996-.0105.665,0,1.0043.3396,1.0043.86789a.85934.85934,0,0,1-.1154.476l.203.10149a1.1242,1.1242,0,0,0,.1329-.58089c0-.665-.4339-1.1199-1.267-1.1199C221.6013,226.3094,221.1497,226.6629,221.1497,227.31371Zm2.107,1.3127a.18318.18318,0,0,0,.1891.18539.17664.17664,0,0,0,.1783-.1259l.5076.11909v-.16809l-.483-.14711a.57388.57388,0,0,0-.2029-.04909A.18322.18322,0,0,0,223.2567,228.6264Zm-2.086,1.6064h.22391v-.57741h2.22609v-.252h-2.45Z" transform="translate(-35.3546 -108.96301)" style="fill:#434242"/><line x1="346.35619" y1="172.92668" x2="346.35619" y2="197.40578" style="fill:none;stroke:#b1b2b2;stroke-miterlimit:22.92558479309082;stroke-width:0.2160000056028366px"/><line x1="311.106" y1="178.42679" x2="311.106" y2="199.86768" style="fill:none;stroke:#b1b2b2;stroke-miterlimit:22.92558479309082;stroke-width:0.2160000056028366px"/><line x1="174.1062" y1="191.17669" x2="174.1062" y2="197.92509" style="fill:none;stroke:#b1b2b2;stroke-miterlimit:22.92558479309082;stroke-width:0.2160000056028366px"/><line x1="13.1059" y1="172.17659" x2="13.1059" y2="199.86768" style="fill:none;stroke:#b1b2b2;stroke-miterlimit:22.92558479309082;stroke-width:0.2160000056028366px"/><line x1="13.1059" y1="107.67648" x2="13.1059" y2="136.30559" style="fill:none;stroke:#b1b2b2;stroke-miterlimit:22.92558479309082;stroke-width:0.2160000056028366px"/><line x1="9.8761" y1="54.1763" x2="9.8761" y2="64.86769" style="fill:none;stroke:#b1b2b2;stroke-miterlimit:22.92558479309082;stroke-width:0.2160000056028366px"/><line x1="43.8559" y1="40.4263" x2="43.8559" y2="70.42499" style="fill:none;stroke:#b1b2b2;stroke-miterlimit:22.92558479309082;stroke-width:0.2160000056028366px"/><line x1="129.87601" y1="26.42618" x2="129.87601" y2="38.7623" style="fill:none;stroke:#b1b2b2;stroke-miterlimit:22.92558479309082;stroke-width:0.2160000056028366px"/><line x1="187.10609" y1="86.92639" x2="187.10609" y2="93.67479" style="fill:none;stroke:#b1b2b2;stroke-miterlimit:22.92558479309082;stroke-width:0.2160000056028366px"/><line x1="187.10609" y1="122.92668" x2="187.10609" y2="136.90538" style="fill:none;stroke:#b1b2b2;stroke-miterlimit:22.92558479309082;stroke-width:0.2160000056028366px"/><line x1="346.35619" y1="140.13579" x2="346.35619" y2="163.48758" style="fill:none;stroke:#b1b2b2;stroke-miterlimit:22.92558479309082;stroke-width:0.2160000056028366px"/><line x1="311.10851" y1="139.50758" x2="311.10851" y2="168.98769" style="fill:none;stroke:#b1b2b2;stroke-miterlimit:22.92558479309082;stroke-width:0.2160000056028366px"/><line x1="174.1062" y1="163.17979" x2="174.1062" y2="181.73758" style="fill:none;stroke:#b1b2b2;stroke-miterlimit:22.92558479309082;stroke-width:0.2160000056028366px"/><line x1="13.1059" y1="138.90779" x2="13.1059" y2="162.73758" style="fill:none;stroke:#b1b2b2;stroke-miterlimit:22.92558479309082;stroke-width:0.2160000056028366px"/><line x1="13.1059" y1="73.02779" x2="13.1059" y2="98.23749" style="fill:none;stroke:#b1b2b2;stroke-miterlimit:22.92558479309082;stroke-width:0.2160000056028366px"/><line x1="9.8761" y1="10.4856" x2="9.8761" y2="44.73718" style="fill:none;stroke:#b1b2b2;stroke-miterlimit:22.92558479309082;stroke-width:0.2160000056028366px"/><line x1="43.8559" y1="6.30789" x2="43.8559" y2="30.98718" style="fill:none;stroke:#b1b2b2;stroke-miterlimit:22.92558479309082;stroke-width:0.2160000056028366px"/><line x1="129.87601" y1="6.30789" x2="129.87601" y2="16.98718" style="fill:none;stroke:#b1b2b2;stroke-miterlimit:22.92558479309082;stroke-width:0.2160000056028366px"/><line x1="187.10609" y1="66.70909" x2="187.10609" y2="77.48729" style="fill:none;stroke:#b1b2b2;stroke-miterlimit:22.92558479309082;stroke-width:0.2160000056028366px"/><line x1="187.10609" y1="98.62889" x2="187.10609" y2="113.48758" style="fill:none;stroke:#b1b2b2;stroke-miterlimit:22.92558479309082;stroke-width:0.2160000056028366px"/><path d="M373.8158,303.4937c-.42691,0-.72119-.3606-.72119-1.0148,0-.65459.29428-1.0151.72119-1.0151s.72079.3605.72079,1.0151c0,.65421-.29388,1.0148-.72079,1.0148m0,.231c.56689,0,.97989-.4655.97989-1.2458,0-.7807-.413-1.2462-.97989-1.2462s-.97659.4655-.97659,1.2462C372.8392,303.2592,373.2489,303.7247,373.8158,303.7247Zm-2.62518-.2449.8331-.819a1.00759,1.00759,0,0,0,.4025-.76649c0-.4096-.31491-.66161-.8121-.66161a1.1015,1.1015,0,0,0-.868.35011l.17862.1539a.83235.83235,0,0,1,.6684-.2729c.37448,0,.574.1749.574.4583,0,.16811-.05243.3325-.32883.60551l-1.01849.9975v.1786h1.71841v-.2239Zm-.90991-.1401a.18317.18317,0,0,0-.18539.1891.17666.17666,0,0,0,.12588.1783l-.11908.5077h.16809l.14709-.483a.574.574,0,0,0,.0491-.203A.1832.1832,0,0,0,370.2807,303.3397Zm-1.60641-2.086v.224h.57742v2.226h.252v-2.45Z" transform="translate(-35.3546 -108.96301)" style="fill:#434242"/><path d="M218.0551,274.9836v.224h.57741v2.226h.252v-2.45Zm-1.1514,2.2576c-.434,0-.68941-.1891-.68941-.49359,0-.301.2554-.49011.68941-.49011s.6931.1891.6931.49011C217.5968,277.05209,217.33771,277.2412,216.9037,277.2412Zm-.6055-1.624c0-.273.2347-.4411.6055-.4411.3676,0,.60919.16809.60919.4445,0,.26619-.22769.4377-.60919.4377C216.5224,276.0583,216.2982,275.8868,216.2982,275.6172Zm1.078.532a.55487.55487,0,0,0,.39209-.53911c0-.39879-.34639-.6474-.86459-.6474-.5179,0-.8575.24861-.8575.6474a.55281.55281,0,0,0,.38519.53911.611.611,0,0,0-.4725.60179c0,.434.3569.70361.94481.70361.5845,0,.9521-.26961.9521-.70361A.617.617,0,0,0,217.37621,276.1492Zm-1.9879.9205a.18314.18314,0,0,0-.18541.189.17664.17664,0,0,0,.1259.1783l-.11909.50771h.16811l.14709-.483a.57393.57393,0,0,0,.0491-.203A.18318.18318,0,0,0,215.38831,277.0697Zm-1.89021.14.83311-.81891a1.00808,1.00808,0,0,0,.40259-.76649c0-.40959-.315-.66161-.81219-.66161a1.1011,1.1011,0,0,0-.8679.35l.1786.154a.832.832,0,0,1,.6684-.273c.3744,0,.574.17491.574.4583,0,.16811-.05251.33261-.3288.6055l-1.01851.99751v.17859h1.71831v-.22389Z" transform="translate(-35.3546 -108.96301)" style="fill:#434242"/><path d="M170.1369,277.2097l.8331-.81891a1.00786,1.00786,0,0,0,.4025-.76649c0-.40959-.315-.66161-.81219-.66161a1.10108,1.10108,0,0,0-.8679.35l.1786.154a.832.832,0,0,1,.6684-.273c.3744,0,.574.17491.574.4583,0,.16811-.05251.33261-.3288.6055l-1.01851.99751v.17859h1.71831v-.22389Zm-1.645-1.2215h-.3149l.08389-.78061h1.12v-.224H168.0403l-.12579,1.22861h.5213c.623,0,.8192.1958.8192.51109,0,.2973-.2205.50031-.63721.50031a1.06165,1.06165,0,0,1-.7524-.28351l-.12241.1996a1.26487,1.26487,0,0,0,.8784.31491c.5984,0,.889-.32541.889-.74181C169.51041,276.2785,169.2303,275.98821,168.4919,275.98821Zm-1.1937,1.0815a.18312.18312,0,0,0-.1853.189.17668.17668,0,0,0,.12579.1783l-.119.50771h.168l.1472-.483a.57567.57567,0,0,0,.049-.203A.18318.18318,0,0,0,167.2982,277.0697Zm-1.6064-2.08611v.224h.5775v2.226h.252v-2.45Z" transform="translate(-35.3546 -108.96301)" style="fill:#434242"/><path d="M97.9189,305.2367c-.3779,0-.616-.20641-.616-.5284a.53638.53638,0,0,1,.5987-.5321c.4235,0,.6474.2557.6474.525a.56707.56707,0,0,1-.6301.5355m-.0278-1.2739a.76317.76317,0,0,0-.83649.7526.74152.74152,0,0,0,.826.7347.78249.78249,0,0,0,.7489-.4198c.0071.0734.0105.1435.0105.1996,0,.665-.3396,1.0043-.868,1.0043a.859.859,0,0,1-.47591-.1154l-.10149.203a1.124,1.124,0,0,0,.5808.1329c.665,0,1.12-.434,1.12-1.2671C98.8954,304.4143,98.5419,303.9628,97.8911,303.9628Zm-2.4256,2.247.8331-.8189a1.00774,1.00774,0,0,0,.4025-.7665c0-.4096-.3149-.6616-.8121-.6616a1.101,1.101,0,0,0-.868.3501l.1786.1539a.832.832,0,0,1,.6684-.273c.3745,0,.574.1749.574.4584,0,.1681-.0524.3325-.3288.6055l-1.01849.9975v.1786h1.7184v-.224Zm-.9099-.14a.18317.18317,0,0,0-.1854.18909.17678.17678,0,0,0,.1258.17831l-.119.5076h.1681l.1471-.483a.57337.57337,0,0,0,.049-.2029A.18319.18319,0,0,0,94.5556,306.0698Zm-1.5293-1.08141h-.315l.08389-.78069h1.12v-.2239H92.5747l-.1258,1.2285h.5212c.6231,0,.8193.1959.8193.51109,0,.2973-.2206.50031-.6373.50031a1.06139,1.06139,0,0,1-.7523-.2835l-.12241.1996a1.264,1.264,0,0,0,.8784.3149c.5984,0,.889-.32539.889-.7418C94.0448,305.2786,93.7647,304.9884,93.0263,304.9884Z" transform="translate(-35.3546 -108.96301)" style="fill:#434242"/><path d="M97.9189,241.2565c-.3779,0-.616-.20641-.616-.5284a.53638.53638,0,0,1,.5987-.5321c.4235,0,.6474.25571.6474.525a.56712.56712,0,0,1-.6301.53551m-.0278-1.2739a.76317.76317,0,0,0-.83649.75259.74157.74157,0,0,0,.826.7347.78248.78248,0,0,0,.7489-.4198c.0071.07341.0105.1434.0105.1996,0,.665-.3396,1.0043-.868,1.0043a.859.859,0,0,1-.47591-.1154l-.10149.203a1.12388,1.12388,0,0,0,.5808.1329c.665,0,1.12-.434,1.12-1.26711C98.8954,240.4341,98.5419,239.98261,97.8911,239.98261Zm-2.4256,2.247.8331-.81889a1.00792,1.00792,0,0,0,.4025-.76651c0-.40959-.3149-.66159-.8121-.66159a1.10128,1.10128,0,0,0-.868.35l.1786.154a.832.832,0,0,1,.6684-.273c.3745,0,.574.17491.574.4584,0,.168-.0524.3325-.3288.60541l-1.01849.9975v.1786h1.7184v-.22391Zm-.9099-.14a.18315.18315,0,0,0-.1854.189.17659.17659,0,0,0,.1258.1783l-.119.50771h.1681l.1471-.483a.57333.57333,0,0,0,.049-.203A.18316.18316,0,0,0,94.5556,242.0896Zm-1.5293-1.0815h-.315l.08389-.78061h1.12v-.224H92.5747l-.1258,1.22861h.5212c.6231,0,.8193.19589.8193.51109,0,.2973-.2206.50031-.6373.50031a1.06139,1.06139,0,0,1-.7523-.28349l-.12241.1996a1.26451,1.26451,0,0,0,.8784.3149c.5984,0,.889-.32541.889-.74181C94.0448,241.2984,93.7647,241.0081,93.0263,241.0081Z" transform="translate(-35.3546 -108.96301)" style="fill:#434242"/><path d="M110.7986,118.988h-.3149l.08389-.7807h1.12v-.22391h-1.3405l-.1259,1.22852h.5213c.6231,0,.8192.19589.8192.51108,0,.29739-.2205.50031-.6372.50031a1.06134,1.06134,0,0,1-.7523-.28339l-.12251.19949a1.26445,1.26445,0,0,0,.8785.31488c.5984,0,.8889-.32538.8889-.74179,0-.4342-.28-.72449-1.0185-.72449m-2.3065,1.2214.8331-.81891a1.00776,1.00776,0,0,0,.4025-.76651c0-.40961-.3149-.66159-.8121-.66159a1.10131,1.10131,0,0,0-.868.3501l.1786.1539a.832.832,0,0,1,.6684-.273c.3745,0,.574.1749.574.4584,0,.16809-.0524.33252-.3288.6055l-1.0185.9975v.17862h1.7184v-.224Zm-.9099-.14a.18318.18318,0,0,0-.1854.18912.17669.17669,0,0,0,.1258.17828l-.119.50769h.1681l.1471-.48309a.57283.57283,0,0,0,.049-.20288A.18319.18319,0,0,0,107.5822,120.0694Zm-.4933-.504h-.4901v-.56689h-.2449v.56689H105.2898l1.2529-1.582h-.2798l-1.2985,1.624v.18192h1.3824v.6441h.252v-.6441h.4901Z" transform="translate(-35.3546 -108.96301)" style="fill:#434242"/><path d="M176.3541,145.488h-.315l.084-.7807h1.1199v-.22391h-1.3405l-.12579,1.22852h.5213c.623,0,.8192.19589.8192.51108,0,.2973-.2206.50031-.6373.50031a1.06142,1.06142,0,0,1-.7523-.28351l-.12241.19962a1.2642,1.2642,0,0,0,.8784.31488c.5984,0,.889-.32538.889-.74179,0-.4343-.28011-.72449-1.01851-.72449m-.8609.57739h-.4901v-.567h-.2449v.567H173.694l1.253-1.582h-.2798l-1.2986,1.6239v.182h1.38249v.644h.252v-.644h.4901Zm-2.58659.504a.18314.18314,0,0,0-.18539.189.17659.17659,0,0,0,.1259.17831l-.11911.50769h.16811l.14709-.483a.57386.57386,0,0,0,.0491-.203A.18324.18324,0,0,0,172.9066,146.5694Zm-1.6064-2.086v.22391h.57739v2.226h.252V144.4834Z" transform="translate(-35.3546 -108.96301)" style="fill:#434242"/><path d="M211.3662,243.2234c-.4269,0-.7211-.3605-.7211-1.0148,0-.65451.2942-1.01511.7211-1.01511s.7209.3606.7209,1.01511c0,.6543-.294,1.0148-.7209,1.0148m0,.231c.56691,0,.9799-.46541.9799-1.2458,0-.78061-.413-1.24611-.9799-1.24611s-.9765.4655-.9765,1.24611C210.38969,242.989,210.7993,243.45441,211.3662,243.45441Zm-3.0379-2.4709v.68259h.24861v-.45869h1.26l-1.008,2.2261h.273l1.0253-2.27141v-.17859Zm-.43739,2.086a.18316.18316,0,0,0-.18539.1891.17677.17677,0,0,0,.1259.1783l-.11911.50769h.16811l.1472-.48309a.57528.57528,0,0,0,.049-.2029A.18321.18321,0,0,0,207.8909,243.0695Zm-1.6064-2.086v.22389h.5775v2.2261h.252v-2.45Z" transform="translate(-35.3546 -108.96301)" style="fill:#434242"/><line x1="331.7697" y1="193.58079" x2="325.02129" y2="193.58079" style="fill:none;stroke:#b1b2b2;stroke-miterlimit:22.92558479309082;stroke-width:0.2160000056028366px"/><line x1="265.51979" y1="196.58069" x2="218.67731" y2="196.58069" style="fill:none;stroke:#b1b2b2;stroke-miterlimit:22.92558479309082;stroke-width:0.2160000056028366px"/><line x1="176.10001" y1="167.31068" x2="157.5983" y2="167.31068" style="fill:none;stroke:#b1b2b2;stroke-miterlimit:22.92558479309082;stroke-width:0.2160000056028366px"/><line x1="128.6002" y1="167.31068" x2="120.1606" y2="167.31068" style="fill:none;stroke:#b1b2b2;stroke-miterlimit:22.92558479309082;stroke-width:0.2160000056028366px"/><line x1="55.6001" y1="196.31078" x2="10.286" y2="196.31078" style="fill:none;stroke:#b1b2b2;stroke-miterlimit:22.92558479309082;stroke-width:0.2160000056028366px"/><line x1="55.6001" y1="132.33058" x2="8.16" y2="132.33058" style="fill:none;stroke:#b1b2b2;stroke-miterlimit:22.92558479309082;stroke-width:0.2160000056028366px"/><line x1="68.3501" y1="10.31039" x2="39.4228" y2="10.31039" style="fill:none;stroke:#b1b2b2;stroke-miterlimit:22.92558479309082;stroke-width:0.2160000056028366px"/><line x1="134.35001" y1="36.81039" x2="127.6015" y2="36.81039" style="fill:none;stroke:#b1b2b2;stroke-miterlimit:22.92558479309082;stroke-width:0.2160000056028366px"/><line x1="169.3502" y1="133.31049" x2="158.786" y2="133.31049" style="fill:none;stroke:#b1b2b2;stroke-miterlimit:22.92558479309082;stroke-width:0.2160000056028366px"/><line x1="347.9572" y1="193.58079" x2="341.20879" y2="193.58079" style="fill:none;stroke:#b1b2b2;stroke-miterlimit:22.92558479309082;stroke-width:0.2160000056028366px"/><line x1="315.54192" y1="196.58069" x2="274.95891" y2="196.58069" style="fill:none;stroke:#b1b2b2;stroke-miterlimit:22.92558479309082;stroke-width:0.2160000056028366px"/><line x1="211.854" y1="167.31068" x2="185.53911" y2="167.31068" style="fill:none;stroke:#b1b2b2;stroke-miterlimit:22.92558479309082;stroke-width:0.2160000056028366px"/><line x1="147.9106" y1="167.31068" x2="138.03931" y2="167.31068" style="fill:none;stroke:#b1b2b2;stroke-miterlimit:22.92558479309082;stroke-width:0.2160000056028366px"/><line x1="113.8586" y1="196.31078" x2="65.0392" y2="196.31078" style="fill:none;stroke:#b1b2b2;stroke-miterlimit:22.92558479309082;stroke-width:0.2160000056028366px"/><line x1="113.8586" y1="132.33058" x2="65.0392" y2="132.33058" style="fill:none;stroke:#b1b2b2;stroke-miterlimit:22.92558479309082;stroke-width:0.2160000056028366px"/><line x1="124.0406" y1="10.31039" x2="77.7891" y2="10.31039" style="fill:none;stroke:#b1b2b2;stroke-miterlimit:22.92558479309082;stroke-width:0.2160000056028366px"/><line x1="150.53751" y1="36.81039" x2="143.78911" y2="36.81039" style="fill:none;stroke:#b1b2b2;stroke-miterlimit:22.92558479309082;stroke-width:0.2160000056028366px"/><line x1="191.12421" y1="133.31049" x2="178.78931" y2="133.31049" style="fill:none;stroke:#b1b2b2;stroke-miterlimit:22.92558479309082;stroke-width:0.2160000056028366px"/><path d="M54.6593,122.9863c-.3778,0-.6159-.20639-.6159-.52841a.53634.53634,0,0,1,.5986-.53207c.4235,0,.6475.25568.6475.525a.56716.56716,0,0,1-.6302.53549m-.0277-1.2739a.76311.76311,0,0,0-.8365.75259.74158.74158,0,0,0,.826.73471.7826.7826,0,0,0,.7489-.4198c.0071.07339.0105.1434.0105.19958,0,.665-.3396,1.0043-.868,1.0043a.85888.85888,0,0,1-.4759-.11539l-.1015.203a1.124,1.124,0,0,0,.5808.13287c.665,0,1.12-.434,1.12-1.26709C55.6359,122.16391,55.2824,121.7124,54.6316,121.7124Zm-2.177.0209v.224h.5774v2.226h.252v-2.45Zm-.3569,2.08609a.18315.18315,0,0,0-.1854.189.17662.17662,0,0,0,.1258.17831l-.119.50769h.1681l.1471-.483a.57316.57316,0,0,0,.049-.203A.18316.18316,0,0,0,52.0977,123.8194Zm-1.6064-2.08609v.224h.5774v2.226h.252v-2.45Z" transform="translate(-35.3546 -108.96301)" style="fill:#434242"/><line x1="13.1" y1="14.06039" x2="6.3515" y2="14.06039" style="fill:none;stroke:#b1b2b2;stroke-miterlimit:22.92558479309082;stroke-width:0.2160000056028366px"/><line x1="29.2875" y1="14.06039" x2="22.5391" y2="14.06039" style="fill:none;stroke:#b1b2b2;stroke-miterlimit:22.92558479309082;stroke-width:0.2160000056028366px"/></svg>