<?xml version="1.0" encoding="utf-8"?>
<!-- Generator: Adobe Illustrator 23.0.2, SVG Export Plug-In . SVG Version: 6.00 Build 0)  -->
<svg version="1.1" id="Слой_1" xmlns="http://www.w3.org/2000/svg" xmlns:xlink="http://www.w3.org/1999/xlink" x="0px" y="0px"
	 viewBox="0 0 800 800" enable-background="new 0 0 800 800" xml:space="preserve">
<rect x="32.4" y="362" fill="#F3F3F3" stroke="#838383" width="52.2" height="277.9"/>
<g id="moyka_2_11_">
	<path fill="#F3F3F3" stroke="#838383" d="M75.5,376.7c1.5,0,2.7,1.2,2.7,2.7V419c0,1.5-1.2,2.7-2.7,2.7H42.8
		c-1.5,0-2.7-1.2-2.7-2.7v-39.6c0-1.5,1.2-2.7,2.7-2.7H75.5z"/>
	<path fill="#F3F3F3" stroke="#838383" d="M72.8,379.5c1.5,0,2.7,1.2,2.7,2.7v34.1c0,1.5-1.2,2.7-2.7,2.7H49.6
		c-1.5,0-2.7-1.2-2.7-2.7v-34.1c0-1.5,1.2-2.7,2.7-2.7H72.8z"/>
	<rect x="44.1" y="397.2" fill="#F3F3F3" stroke="#838383" width="10.9" height="2.7"/>
	<circle fill="#F3F3F3" stroke="#838383" cx="62.6" cy="399.3" r="2"/>
</g>
<g id="plita_11_">
	<rect x="35.5" y="485.2" fill="#F3F3F3" stroke="#838383" width="49.1" height="47.8"/>
	<circle fill="#F3F3F3" stroke="#838383" cx="72.3" cy="519.3" r="8.2"/>
	<circle fill="#F3F3F3" stroke="#838383" cx="51.8" cy="498.9" r="8.2"/>
	<circle fill="#F3F3F3" stroke="#838383" cx="72.3" cy="498.9" r="6.8"/>
	<circle fill="#F3F3F3" stroke="#838383" cx="51.8" cy="519.3" r="6.8"/>
</g>
<g id="stirka_9_">
	<rect x="127" y="183.4" fill="#F3F3F3" stroke="#838383" width="40.9" height="40.9"/>
	<path fill="#F3F3F3" stroke="#838383" d="M129.7,183.4h15v4.1c0,1.5-1.2,2.7-2.7,2.7h-9.6c-1.5,0-2.7-1.2-2.7-2.7V183.4z"/>
	<circle fill="#F3F3F3" stroke="#838383" cx="147.4" cy="205.2" r="10.9"/>
	<circle fill="#F3F3F3" stroke="#838383" cx="147.4" cy="205.2" r="8.2"/>
	<circle fill="#F3F3F3" stroke="#838383" cx="161.1" cy="190.2" r="2.7"/>
</g>
<g id="unitaz_12_">
	<path fill="#F3F3F3" stroke="#838383" d="M34.3,239.1h9.6c1.5,0,2.7,1.2,2.7,2.7v24.6c0,1.5-1.2,2.7-2.7,2.7h-9.6V239.1z"/>
	<path fill="#F3F3F3" stroke="#838383" d="M46.5,241.9c0-1.5,1.2-2.7,2.7-2.7v30c-1.5,0-2.7-1.2-2.7-2.7V241.9z"/>
	<path fill="#F3F3F3" stroke="#838383" d="M49.3,269.1v-30c0,0,35.5-6.1,35.5,15C84.7,275.3,49.3,269.1,49.3,269.1z"/>
	<circle fill="#F3F3F3" stroke="#838383" cx="39.7" cy="254.1" r="2.7"/>
</g>
<g id="moyka_12_">
	<path fill="#F3F3F3" stroke="#838383" d="M34.3,295.4c0-0.8,0.7-1.5,1.5-1.5h29.8c0.8,0,1.5,0.7,1.5,1.5V340c0,0.8-0.7,1.5-1.5,1.5
		H35.7c-0.8,0-1.5-0.7-1.5-1.5V295.4z"/>
	<rect x="38.7" y="293.9" fill="#F3F3F3" stroke="#838383" width="3" height="47.6"/>
	<ellipse fill="#F3F3F3" stroke="#838383" cx="54.4" cy="318.4" rx="9.7" ry="15.6"/>
	<rect x="38.7" y="316.2" fill="#F3F3F3" stroke="#838383" width="11.9" height="3"/>
	<circle fill="#F3F3F3" stroke="#838383" cx="55.8" cy="316.9" r="2.2"/>
</g>
<g id="unitaz_15_">
	<path fill="#F3F3F3" stroke="#838383" d="M756.7,114h-9.6c-1.5,0-2.7-1.2-2.7-2.7V86.7c0-1.5,1.2-2.7,2.7-2.7h9.6V114z"/>
	<path fill="#F3F3F3" stroke="#838383" d="M744.4,111.3c0,1.5-1.2,2.7-2.7,2.7V84c1.5,0,2.7,1.2,2.7,2.7V111.3z"/>
	<path fill="#F3F3F3" stroke="#838383" d="M706.2,99c0-21.2,35.5-15,35.5-15v30C741.7,114,706.2,120.2,706.2,99z"/>
	<circle fill="#F3F3F3" stroke="#838383" cx="751.3" cy="99" r="2.7"/>
</g>
<g id="moyka_14_">
	<path fill="#F3F3F3" stroke="#838383" d="M590,20.3c0.8,0,1.5,0.7,1.5,1.5v29.8c0,0.8-0.7,1.5-1.5,1.5h-44.7
		c-0.8,0-1.5-0.7-1.5-1.5V21.8c0-0.8,0.7-1.5,1.5-1.5H590z"/>
	<rect x="543.9" y="24.8" fill="#F3F3F3" stroke="#838383" width="47.6" height="3"/>
	<ellipse fill="#F3F3F3" stroke="#838383" cx="568.4" cy="40.4" rx="15.6" ry="9.7"/>
	<rect x="566.2" y="24.8" fill="#F3F3F3" stroke="#838383" width="3" height="11.9"/>
	<circle fill="#F3F3F3" stroke="#838383" cx="566.9" cy="41.9" r="2.2"/>
</g>
<g id="vanna_12_">
	<rect x="630.5" y="263.3" fill="#F3F3F3" stroke="#838383" width="126.2" height="51.9"/>
	<path fill="#F3F3F3" stroke="#838383" d="M638.3,281c0-7.5,5.8-13.6,13-13.6h87.2V311h-87.2c-7.2,0-13-6.1-13-13.6V281z"/>
	<path fill="#F3F3F3" stroke="#838383" d="M745,295.3v-18.4h-4.6v10.9"/>
	<path id="Union_12_" fill="#F3F3F3" stroke="#838383" d="M746.3,296c0-0.8-0.6-1.4-1.3-1.4c-0.7,0-1.3,0.6-1.3,1.4v1.6
		c-1.5,0.6-2.6,2.1-2.6,3.9c0,2.3,1.7,4.1,3.9,4.1s3.9-1.8,3.9-4.1c0-1.8-1.1-3.3-2.6-3.9V296z"/>
	<rect x="732" y="287.8" fill="#F3F3F3" stroke="#838383" width="10.4" height="2.7"/>
</g>
<rect x="87.7" y="777.4" fill="#FFFFFF" stroke="#000000" stroke-miterlimit="10" width="118.6" height="6.4"/>
<rect x="87.7" y="777.4" fill="#FFFFFF" stroke="#000000" stroke-miterlimit="10" width="11.1" height="6.4"/>
<rect x="142.4" y="777.4" fill="#FFFFFF" stroke="#000000" stroke-miterlimit="10" width="5.6" height="5.6"/>
<rect x="194.2" y="777.4" fill="#FFFFFF" stroke="#000000" stroke-miterlimit="10" width="12" height="6.4"/>
<rect x="87.7" y="763.4" fill="#FFFFFF" stroke="#000000" stroke-miterlimit="10" width="118.6" height="14"/>
<rect x="91" y="783.7" fill="#FFFFFF" stroke="#000000" stroke-miterlimit="10" width="112.4" height="11.3"/>
<rect x="289.5" y="672.1" fill="#FFFFFF" stroke="#000000" stroke-miterlimit="10" width="118.9" height="6"/>
<rect x="399.2" y="672.1" fill="#FFFFFF" stroke="#000000" stroke-miterlimit="10" width="9.3" height="6"/>
<rect x="361.6" y="672.1" fill="#FFFFFF" stroke="#000000" stroke-miterlimit="10" width="6" height="6"/>
<rect x="289.5" y="672.1" fill="#FFFFFF" stroke="#000000" stroke-miterlimit="10" width="8.5" height="6"/>
<rect x="365.6" y="659.9" fill="#FFFFFF" stroke="#000000" stroke-miterlimit="10" width="42.9" height="12.2"/>
<rect x="365.6" y="678.1" fill="#FFFFFF" stroke="#000000" stroke-miterlimit="10" width="36.7" height="10.9"/>
<rect x="593.2" y="777" fill="#FFFFFF" stroke="#000000" stroke-miterlimit="10" width="121.1" height="6.4"/>
<rect x="593.2" y="777" fill="#FFFFFF" stroke="#000000" stroke-miterlimit="10" width="11.6" height="6.4"/>
<rect x="650.5" y="777" fill="#FFFFFF" stroke="#000000" stroke-miterlimit="10" width="6.4" height="6.4"/>
<rect x="702.5" y="777" fill="#FFFFFF" stroke="#000000" stroke-miterlimit="10" width="11.8" height="6.4"/>
<rect x="593.2" y="763" fill="#FFFFFF" stroke="#000000" stroke-miterlimit="10" width="121.1" height="14"/>
<rect x="599.1" y="783.4" fill="#FFFFFF" stroke="#000000" stroke-miterlimit="10" width="109.8" height="11.3"/>
<rect x="713.9" y="497.4" transform="matrix(6.123234e-17 -1 1 6.123234e-17 273.9043 1275.0415)" fill="#FFFFFF" stroke="#000000" stroke-miterlimit="10" width="121.1" height="6.4"/>
<rect x="768.7" y="552.1" transform="matrix(6.123234e-17 -1 1 6.123234e-17 219.1644 1329.7814)" fill="#FFFFFF" stroke="#000000" stroke-miterlimit="10" width="11.6" height="6.4"/>
<rect x="771.3" y="497.5" transform="matrix(6.123234e-17 -1 1 6.123234e-17 273.8133 1275.1324)" fill="#FFFFFF" stroke="#000000" stroke-miterlimit="10" width="6.4" height="6.4"/>
<rect x="768.6" y="442.7" transform="matrix(6.123234e-17 -1 1 6.123234e-17 328.5532 1220.3926)" fill="#FFFFFF" stroke="#000000" stroke-miterlimit="10" width="11.8" height="6.4"/>
<rect x="703.7" y="493.6" transform="matrix(6.123234e-17 -1 1 6.123234e-17 263.7201 1264.8573)" fill="#FFFFFF" stroke="#000000" stroke-miterlimit="10" width="121.1" height="14"/>
<rect x="728.4" y="494.7" transform="matrix(6.123234e-17 -1 1 6.123234e-17 282.9063 1283.6798)" fill="#FFFFFF" stroke="#000000" stroke-miterlimit="10" width="109.8" height="11.3"/>
<rect x="734.2" y="199.2" transform="matrix(6.123234e-17 -1 1 6.123234e-17 572.0638 976.882)" fill="#FFFFFF" stroke="#000000" stroke-miterlimit="10" width="80.6" height="6.4"/>
<rect x="768.7" y="233.7" transform="matrix(6.123234e-17 -1 1 6.123234e-17 537.6013 1011.3444)" fill="#FFFFFF" stroke="#000000" stroke-miterlimit="10" width="11.6" height="6.4"/>
<rect x="771.3" y="163.6" transform="matrix(6.123234e-17 -1 1 6.123234e-17 607.7084 941.2374)" fill="#FFFFFF" stroke="#000000" stroke-miterlimit="10" width="6.4" height="6.4"/>
<rect x="724" y="195.4" transform="matrix(6.123234e-17 -1 1 6.123234e-17 561.8796 966.6978)" fill="#FFFFFF" stroke="#000000" stroke-miterlimit="10" width="80.6" height="14"/>
<rect x="747.1" y="195.1" transform="matrix(6.123234e-17 -1 1 6.123234e-17 582.5662 984.02)" fill="#FFFFFF" stroke="#000000" stroke-miterlimit="10" width="72.3" height="11.3"/>
<g>
	
		<rect x="378" y="681.2" transform="matrix(-1.836970e-16 1 -1 -1.836970e-16 1173.0179 391.8854)" fill="#FFFFFF" stroke="#000000" stroke-miterlimit="10" width="25.1" height="202.4"/>
	
		<rect x="386.2" y="683.6" transform="matrix(-1.836970e-16 1 -1 -1.836970e-16 1175.3821 394.2496)" fill="#FFFFFF" stroke="#000000" stroke-miterlimit="10" width="8.7" height="202.4"/>
	
		<rect x="390.8" y="685.5" transform="matrix(-1.836970e-16 1 -1 -1.836970e-16 1177.2554 392.5581)" fill="#FFFFFF" stroke="#000000" stroke-miterlimit="10" width="3.1" height="198.8"/>
</g>
<line fill="#FFFFFF" stroke="#000000" stroke-miterlimit="10" x1="598.4" y1="180.5" x2="548" y2="212.3"/>
<line fill="#FFFFFF" stroke="#000000" stroke-miterlimit="10" x1="263.4" y1="163.2" x2="193.9" y2="121.9"/>
<line fill="#FFFFFF" stroke="#000000" stroke-miterlimit="10" x1="298.1" y1="672.1" x2="352.8" y2="639.9"/>
<line fill="#FFFFFF" stroke="#000000" stroke-miterlimit="10" x1="248.3" y1="364" x2="187.2" y2="398.4"/>
<line fill="#FFFFFF" stroke="#000000" stroke-miterlimit="10" x1="179.3" y1="266.5" x2="208.8" y2="319.1"/>
<line fill="#FFFFFF" stroke="#000000" stroke-miterlimit="10" x1="539.1" y1="296.2" x2="599" y2="330.9"/>
<rect x="8.8" y="783.7" fill="#838383" stroke="#000000" stroke-miterlimit="10" width="82.2" height="11.3"/>
<rect x="8.8" y="180.5" fill="#838383" stroke="#000000" stroke-miterlimit="10" width="23.6" height="603.2"/>
<rect x="32.4" y="763.4" fill="#838383" stroke="#000000" stroke-miterlimit="10" width="55.3" height="20.4"/>
<rect x="203.3" y="783.7" fill="#838383" stroke="#000000" stroke-miterlimit="10" width="86.2" height="11.3"/>
<rect x="206.3" y="763.4" fill="#838383" stroke="#000000" stroke-miterlimit="10" width="54.6" height="20.4"/>
<rect x="260.8" y="586.4" fill="#838383" stroke="#000000" stroke-miterlimit="10" width="18.2" height="197.3"/>
<rect x="279" y="678.1" fill="#838383" stroke="#000000" stroke-miterlimit="10" width="16.4" height="10.9"/>
<rect x="279" y="659.9" fill="#838383" stroke="#000000" stroke-miterlimit="10" width="10.5" height="123.8"/>
<rect x="402.3" y="678.1" fill="#838383" stroke="#000000" stroke-miterlimit="10" width="100.8" height="10.9"/>
<rect x="408.5" y="659.9" fill="#838383" stroke="#000000" stroke-miterlimit="10" width="94.6" height="18.2"/>
<rect x="491.8" y="783.7" fill="#838383" stroke="#000000" stroke-miterlimit="10" width="107.3" height="11.3"/>
<rect x="503" y="586.4" fill="#838383" stroke="#000000" stroke-miterlimit="10" width="24" height="197.3"/>
<rect x="491.8" y="689" fill="#838383" stroke="#000000" stroke-miterlimit="10" width="11.3" height="94.7"/>
<rect x="527.1" y="763.4" fill="#838383" stroke="#000000" stroke-miterlimit="10" width="66.2" height="20.4"/>
<rect x="708.9" y="783.7" fill="#838383" stroke="#000000" stroke-miterlimit="10" width="80" height="11.3"/>
<rect x="714.4" y="763.4" fill="#838383" stroke="#000000" stroke-miterlimit="10" width="42.6" height="20.4"/>
<rect x="756.9" y="561.1" fill="#838383" stroke="#000000" stroke-miterlimit="10" width="20.7" height="222.6"/>
<rect x="777.7" y="555.3" transform="matrix(-1 -1.224647e-16 1.224647e-16 -1 1566.5862 1339.0332)" fill="#838383" stroke="#000000" stroke-miterlimit="10" width="11.3" height="228.4"/>
<rect x="756.9" y="242.7" fill="#838383" stroke="#000000" stroke-miterlimit="10" width="20.7" height="197.3"/>
<rect x="777.7" y="236.9" transform="matrix(-1 -1.224647e-16 1.224647e-16 -1 1566.5862 682.3365)" fill="#838383" stroke="#000000" stroke-miterlimit="10" width="11.3" height="208.6"/>
<rect x="756.9" y="5" fill="#838383" stroke="#000000" stroke-miterlimit="10" width="20.7" height="157.1"/>
<rect x="777.7" y="5" transform="matrix(-1 -1.224647e-16 1.224647e-16 -1 1566.5862 169.5822)" fill="#838383" stroke="#000000" stroke-miterlimit="10" width="11.3" height="159.6"/>
<rect x="8.8" y="163.2" fill="#838383" stroke="#000000" stroke-miterlimit="10" width="177.5" height="17.3"/>
<rect x="263.4" y="163.2" fill="#838383" stroke="#000000" stroke-miterlimit="10" width="263.7" height="17.3"/>
<rect x="506" y="5" fill="#838383" stroke="#000000" stroke-miterlimit="10" width="251" height="13.6"/>
<rect x="172.2" y="180.5" fill="#C6C6C6" stroke="#000000" stroke-miterlimit="10" width="7.1" height="86"/>
<rect x="172.2" y="326.7" fill="#C6C6C6" stroke="#000000" stroke-miterlimit="10" width="7.1" height="79.7"/>
<rect x="32.4" y="354.9" fill="#C6C6C6" stroke="#000000" stroke-miterlimit="10" width="139.8" height="7.1"/>
<rect x="260.8" y="406.4" fill="#C6C6C6" stroke="#000000" stroke-miterlimit="10" width="9.3" height="180"/>
<rect x="109.9" y="180.5" fill="#C6C6C6" stroke="#000000" stroke-miterlimit="10" width="7.1" height="55.1"/>
<rect x="55.7" y="228.5" fill="#C6C6C6" stroke="#000000" stroke-miterlimit="10" width="54.3" height="7.1"/>
<rect x="32.4" y="232.9" fill="#C6C6C6" stroke="#000000" stroke-miterlimit="10" width="23.3" height="2.7"/>
<rect x="355.6" y="180.5" fill="#C6C6C6" stroke="#000000" stroke-miterlimit="10" width="7.1" height="112.3"/>
<rect x="315.1" y="219.1" fill="#C6C6C6" stroke="#000000" stroke-miterlimit="10" width="7.1" height="73.6"/>
<rect x="322.2" y="285.7" fill="#C6C6C6" stroke="#000000" stroke-miterlimit="10" width="33.4" height="7.1"/>
<rect x="608.2" y="173.4" fill="#C6C6C6" stroke="#000000" stroke-miterlimit="10" width="7.1" height="157.5"/>
<rect x="599" y="330.9" fill="#C6C6C6" stroke="#000000" stroke-miterlimit="10" width="157.9" height="9.3"/>
<rect x="661.3" y="18.6" fill="#C6C6C6" stroke="#000000" stroke-miterlimit="10" width="7.1" height="51.5"/>
<rect x="668.4" y="63" fill="#C6C6C6" stroke="#000000" stroke-miterlimit="10" width="51.3" height="7.1"/>
<rect x="719.6" y="67.3" fill="#C6C6C6" stroke="#000000" stroke-miterlimit="10" width="37.3" height="2.8"/>
<rect x="519.9" y="18.6" fill="#C6C6C6" stroke="#000000" stroke-miterlimit="10" width="7.1" height="144.6"/>
<rect x="506" y="18.6" fill="#C6C6C6" stroke="#000000" stroke-miterlimit="10" width="7.1" height="144.6"/>
<rect x="527.1" y="173.4" fill="#C6C6C6" stroke="#000000" stroke-miterlimit="10" width="16.8" height="7.1"/>
<rect x="598.4" y="173.4" fill="#C6C6C6" stroke="#000000" stroke-miterlimit="10" width="9.8" height="7.1"/>
<rect x="517.8" y="330.9" fill="#C6C6C6" stroke="#000000" stroke-miterlimit="10" width="9.3" height="255.5"/>
<rect x="527.1" y="330.9" fill="#C6C6C6" stroke="#000000" stroke-miterlimit="10" width="8.2" height="9.3"/>
<rect x="251.7" y="397.1" fill="#C6C6C6" stroke="#000000" stroke-miterlimit="10" width="18.4" height="9.3"/>
<rect x="179.3" y="397.1" fill="#C6C6C6" stroke="#000000" stroke-miterlimit="10" width="7.8" height="9.3"/>
<rect x="615.4" y="318.8" fill="#C6C6C6" stroke="#000000" stroke-miterlimit="10" width="141.6" height="7.1"/>
<rect x="315.1" y="180.5" fill="#C6C6C6" stroke="#000000" stroke-miterlimit="10" width="2.8" height="38.6"/>
<g>
	<path d="M336.4,394h-7.2l0,12.4h-1.4v-13.6h8.6V394z"/>
	<path d="M337.1,405.8c-0.8-0.4-1.4-1.1-1.9-1.9c-0.5-0.8-0.7-1.7-0.7-2.7c0-1,0.2-1.9,0.7-2.7c0.5-0.8,1.1-1.4,1.9-1.8
		c0.8-0.4,1.7-0.7,2.7-0.7c1,0,1.9,0.2,2.7,0.7s1.4,1.1,1.9,1.8c0.4,0.8,0.7,1.7,0.7,2.7c0,1-0.2,1.9-0.7,2.7
		c-0.4,0.8-1.1,1.4-1.9,1.9s-1.7,0.7-2.7,0.7C338.8,406.5,337.9,406.2,337.1,405.8z M341.7,404.7c0.6-0.3,1-0.8,1.4-1.4
		c0.3-0.6,0.5-1.3,0.5-2.1c0-0.8-0.2-1.5-0.5-2.1c-0.3-0.6-0.8-1.1-1.4-1.4c-0.6-0.3-1.2-0.5-2-0.5s-1.4,0.2-2,0.5s-1,0.8-1.4,1.4
		c-0.3,0.6-0.5,1.3-0.5,2.1c0,0.8,0.2,1.5,0.5,2.1s0.8,1.1,1.4,1.4c0.6,0.3,1.2,0.5,2,0.5S341.2,405.1,341.7,404.7z"/>
	<path d="M349.5,405.8c-0.8-0.4-1.4-1.1-1.9-1.9c-0.5-0.8-0.7-1.7-0.7-2.7c0-1,0.2-1.9,0.7-2.7c0.5-0.8,1.1-1.4,1.9-1.8
		c0.8-0.4,1.7-0.7,2.7-0.7c0.9,0,1.7,0.2,2.4,0.5c0.7,0.3,1.2,0.8,1.6,1.5l-1,0.7c-0.3-0.5-0.8-0.9-1.3-1.1
		c-0.5-0.3-1.1-0.4-1.7-0.4c-0.7,0-1.4,0.2-2,0.5c-0.6,0.3-1,0.8-1.4,1.4c-0.3,0.6-0.5,1.3-0.5,2.1c0,0.8,0.2,1.5,0.5,2.1
		s0.8,1.1,1.4,1.4c0.6,0.3,1.3,0.5,2,0.5c0.6,0,1.2-0.1,1.7-0.4c0.5-0.2,0.9-0.6,1.3-1.1l1,0.7c-0.4,0.7-1,1.2-1.7,1.5
		c-0.7,0.3-1.5,0.5-2.4,0.5C351.2,406.5,350.3,406.2,349.5,405.8z"/>
	<path d="M365.9,397.4H362v9h-1.4v-9h-3.9v-1.2h9.1V397.4z"/>
	<path d="M367.9,396.1h1.4v8.1l6.8-8.1h1.2v10.2h-1.4v-8.1l-6.8,8.1h-1.2V396.1z"/>
	<path d="M381.2,396.1h1.4v4.5h6.4v-4.5h1.4v10.2H389v-4.5h-6.4v4.5h-1.4V396.1z"/>
	<path d="M400.9,397.1c0.7,0.7,1.1,1.7,1.1,3v6.3h-1.3v-1.6c-0.3,0.5-0.8,0.9-1.4,1.2s-1.3,0.4-2.1,0.4c-1.1,0-2-0.3-2.7-0.8
		s-1-1.3-1-2.2c0-0.9,0.3-1.6,0.9-2.1c0.6-0.5,1.6-0.8,3-0.8h3.2V400c0-0.9-0.2-1.6-0.7-2s-1.2-0.7-2.2-0.7c-0.6,0-1.3,0.1-1.9,0.3
		s-1.1,0.5-1.5,0.9l-0.6-1c0.5-0.4,1.1-0.8,1.9-1s1.5-0.4,2.3-0.4C399.2,396.1,400.2,396.4,400.9,397.1z M399.4,404.8
		c0.6-0.4,1-0.9,1.2-1.5v-1.7h-3.2c-1.7,0-2.6,0.6-2.6,1.8c0,0.6,0.2,1.1,0.7,1.4c0.5,0.3,1.1,0.5,1.9,0.5
		C398.2,405.4,398.8,405.2,399.4,404.8z"/>
	<path d="M413.5,396.1v10.2h-1.3V403h-3.2h-0.4l-2.4,3.4h-1.5l2.5-3.6c-0.8-0.2-1.4-0.6-1.8-1.1c-0.4-0.5-0.6-1.2-0.6-2
		c0-1.1,0.4-2,1.2-2.6s1.8-0.9,3.2-0.9H413.5z M409.2,402h3.1v-4.6h-3c-2,0-3,0.8-3,2.3C406.3,401.2,407.2,402,409.2,402z"/>
	<path d="M331.9,418.5v17h-2.4v-14.9h-3.8v-2.1H331.9z"/>
	<path d="M346.4,420.5c1.2,1.5,1.9,3.6,1.9,6.3c0,1.9-0.3,3.5-1,4.8c-0.7,1.3-1.6,2.3-2.8,3c-1.2,0.7-2.6,1-4.2,1
		c-0.8,0-1.6-0.1-2.3-0.3s-1.4-0.4-1.9-0.7l0.9-1.9c0.8,0.5,1.9,0.8,3.3,0.8c1.8,0,3.1-0.5,4.1-1.6s1.5-2.7,1.5-4.8v-0.6
		c-0.5,0.7-1.2,1.3-2,1.7c-0.9,0.4-1.8,0.6-2.9,0.6c-1.1,0-2.1-0.2-3-0.6c-0.9-0.4-1.6-1-2.1-1.8c-0.5-0.8-0.7-1.7-0.7-2.7
		c0-1.1,0.3-2,0.8-2.8c0.5-0.8,1.2-1.4,2.1-1.9s1.9-0.7,3.1-0.7C343.4,418.3,345.2,419.1,346.4,420.5z M343.4,426.4
		c0.6-0.3,1.1-0.7,1.4-1.2c0.3-0.5,0.5-1.1,0.5-1.7c0-0.6-0.2-1.1-0.5-1.6c-0.3-0.5-0.8-0.9-1.4-1.2s-1.3-0.5-2.2-0.5
		c-1.1,0-2,0.3-2.7,0.9c-0.7,0.6-1,1.4-1,2.4c0,1,0.3,1.8,1,2.4c0.7,0.6,1.6,0.9,2.8,0.9C342.1,426.9,342.8,426.7,343.4,426.4z"/>
	<path d="M353.1,432.8c0.3,0.3,0.4,0.7,0.4,1.2c0,0.2,0,0.5-0.1,0.7c-0.1,0.2-0.2,0.6-0.3,1l-1.1,3.4h-1.5l0.9-3.6
		c-0.3-0.1-0.6-0.3-0.7-0.6c-0.2-0.3-0.3-0.6-0.3-0.9c0-0.5,0.2-0.9,0.5-1.2c0.3-0.3,0.7-0.5,1.2-0.5
		C352.4,432.3,352.8,432.5,353.1,432.8z"/>
	<path d="M368,433.4v2.1h-12.2v-1.7l6.9-6.7c0.8-0.8,1.4-1.5,1.7-2.1c0.3-0.6,0.4-1.2,0.4-1.8c0-0.9-0.3-1.6-0.9-2.1
		c-0.6-0.5-1.5-0.7-2.7-0.7c-1.9,0-3.3,0.6-4.3,1.8l-1.7-1.4c0.7-0.8,1.5-1.4,2.6-1.9c1.1-0.5,2.3-0.7,3.6-0.7
		c1.8,0,3.2,0.4,4.3,1.3c1.1,0.8,1.6,2,1.6,3.5c0,0.9-0.2,1.8-0.6,2.6s-1.1,1.7-2.2,2.8l-5.2,5H368z"/>
</g>
<g>
	<path d="M174.7,697h-3.1v6.2h-1.4v-13.6h1.4v6.1h3.1l4.6-6.1h1.6l-5.1,6.6l5.3,7h-1.7L174.7,697z"/>
	<path d="M191.7,693l-5.1,11.4c-0.4,1-0.9,1.6-1.4,2c-0.5,0.4-1.2,0.6-2,0.6c-0.5,0-1-0.1-1.4-0.2c-0.4-0.2-0.8-0.4-1.1-0.7l0.6-1
		c0.5,0.5,1.1,0.8,1.9,0.8c0.5,0,0.9-0.1,1.2-0.4s0.6-0.7,0.9-1.3l0.4-1l-4.6-10.2h1.4l3.8,8.7l3.8-8.7H191.7z"/>
	<path d="M199.7,703.2l-3.2-4.3l-3.3,4.3h-1.6l4-5.2l-3.8-5h1.6l3.1,4l3.1-4h1.5l-3.8,5l4.1,5.2H199.7z"/>
	<path d="M203.5,693h1.4v4.5h6.4V693h1.4v10.2h-1.4v-4.5h-6.4v4.5h-1.4V693z"/>
	<path d="M224.5,693v10.2h-1.3v-3.4H220h-0.4l-2.4,3.4h-1.5l2.5-3.6c-0.8-0.2-1.4-0.6-1.8-1.1c-0.4-0.5-0.6-1.2-0.6-2
		c0-1.1,0.4-2,1.2-2.6s1.8-0.9,3.2-0.9H224.5z M220.1,698.8h3.1v-4.6h-3c-2,0-3,0.8-3,2.3C217.2,698,218.2,698.8,220.1,698.8z"/>
	<path d="M174.3,715.4v17h-2.4v-14.9h-3.8v-2.1H174.3z"/>
	<path d="M192.8,728.2h-3.2v4.2h-2.4v-4.2h-9.4v-1.7l8.7-11.1h2.6l-8.3,10.7h6.5v-3.7h2.3v3.7h3.2V728.2z"/>
	<path d="M197.5,729.7c0.3,0.3,0.4,0.7,0.4,1.2c0,0.2,0,0.5-0.1,0.7c-0.1,0.2-0.2,0.6-0.3,1l-1.1,3.4h-1.5l0.9-3.6
		c-0.3-0.1-0.6-0.3-0.7-0.6c-0.2-0.3-0.3-0.6-0.3-0.9c0-0.5,0.2-0.9,0.5-1.2s0.7-0.5,1.2-0.5C196.9,729.2,197.2,729.3,197.5,729.7z"
		/>
	<path d="M203.4,731.5c-1-0.7-1.9-1.7-2.5-3s-0.9-2.9-0.9-4.7c0-1.8,0.3-3.4,0.9-4.7c0.6-1.3,1.4-2.3,2.5-3s2.2-1,3.6-1
		c1.3,0,2.5,0.3,3.6,1s1.9,1.7,2.5,3c0.6,1.3,0.9,2.9,0.9,4.7c0,1.8-0.3,3.4-0.9,4.7c-0.6,1.3-1.4,2.3-2.5,3s-2.2,1-3.6,1
		C205.6,732.6,204.4,732.2,203.4,731.5z M210.2,728.7c0.8-1.1,1.2-2.7,1.2-4.9c0-2.1-0.4-3.7-1.2-4.9c-0.8-1.1-1.9-1.7-3.3-1.7
		c-1.4,0-2.5,0.6-3.3,1.7c-0.8,1.1-1.2,2.7-1.2,4.9c0,2.1,0.4,3.7,1.2,4.9c0.8,1.1,1.9,1.7,3.3,1.7
		C208.3,730.4,209.4,729.8,210.2,728.7z"/>
</g>
<g>
	<path d="M561.7,691.8c-1.1-0.6-1.9-1.4-2.5-2.5s-0.9-2.2-0.9-3.5c0-1.3,0.3-2.5,0.9-3.5s1.5-1.9,2.6-2.5s2.3-0.9,3.7-0.9
		c1,0,1.9,0.2,2.8,0.5c0.9,0.3,1.6,0.8,2.2,1.5l-0.9,0.9c-1.1-1.1-2.4-1.6-4-1.6c-1.1,0-2.1,0.2-2.9,0.7s-1.6,1.2-2.1,2
		c-0.5,0.9-0.7,1.8-0.7,2.9c0,1.1,0.2,2,0.7,2.9c0.5,0.9,1.2,1.5,2.1,2s1.9,0.7,2.9,0.7c1.6,0,3-0.5,4-1.6l0.9,0.9
		c-0.6,0.6-1.3,1.1-2.2,1.5c-0.9,0.3-1.8,0.5-2.8,0.5C564,692.6,562.8,692.3,561.7,691.8z"/>
	<path d="M582.2,682.3v10.2h-1.4v-9h-6.4v9H573v-10.2H582.2z"/>
	<path d="M592.7,683.2c0.7,0.7,1.1,1.7,1.1,3v6.3h-1.3v-1.6c-0.3,0.5-0.8,0.9-1.4,1.2s-1.3,0.4-2.1,0.4c-1.1,0-2-0.3-2.7-0.8
		s-1-1.3-1-2.2c0-0.9,0.3-1.6,0.9-2.1c0.6-0.5,1.6-0.8,3-0.8h3.2v-0.6c0-0.9-0.2-1.6-0.7-2s-1.2-0.7-2.2-0.7c-0.6,0-1.3,0.1-1.9,0.3
		s-1.1,0.5-1.5,0.9l-0.6-1c0.5-0.4,1.1-0.8,1.9-1s1.5-0.4,2.3-0.4C591,682.2,592,682.6,592.7,683.2z M591.2,691
		c0.6-0.4,1-0.9,1.2-1.5v-1.7h-3.2c-1.7,0-2.6,0.6-2.6,1.8c0,0.6,0.2,1.1,0.7,1.4c0.5,0.3,1.1,0.5,1.9,0.5
		C589.9,691.5,590.6,691.4,591.2,691z"/>
	<path d="M605.8,682.3v10.2h-1.4v-9h-4.9l-0.1,2.5c-0.1,2.1-0.4,3.8-0.7,4.9c-0.4,1.1-1.1,1.7-2.1,1.7c-0.3,0-0.6-0.1-1-0.2l0.1-1.2
		c0.2,0.1,0.4,0.1,0.5,0.1c0.5,0,0.9-0.2,1.2-0.7c0.3-0.5,0.5-1.1,0.5-1.8s0.2-1.7,0.2-2.9l0.2-3.7H605.8z"/>
	<path d="M617.1,686.8c0.7,0.6,1,1.4,1,2.4c0,1.1-0.4,1.9-1.1,2.5s-1.8,0.9-3.1,0.9l-4.1,0v-10.2h1.4v3.6l3,0
		C615.4,685.9,616.4,686.2,617.1,686.8z M615.9,690.9c0.5-0.4,0.7-1,0.7-1.7c0-0.8-0.2-1.3-0.7-1.7c-0.5-0.4-1.2-0.6-2.2-0.6l-2.7,0
		v4.5l2.7,0C614.7,691.5,615.4,691.3,615.9,690.9z"/>
	<path d="M620.7,682.3h1.4v4.5h6.4v-4.5h1.4v10.2h-1.4V688h-6.4v4.5h-1.4V682.3z"/>
	<path d="M641.6,682.3v10.2h-1.3v-3.4h-3.2h-0.4l-2.4,3.4h-1.5l2.5-3.6c-0.8-0.2-1.4-0.6-1.8-1.1c-0.4-0.5-0.6-1.2-0.6-2
		c0-1.1,0.4-2,1.2-2.6s1.8-0.9,3.2-0.9H641.6z M637.3,688.1h3.1v-4.6h-3c-2,0-3,0.8-3,2.3C634.4,687.4,635.4,688.1,637.3,688.1z"/>
	<path d="M563.6,704.7v17h-2.4v-14.9h-3.8v-2.1H563.6z"/>
	<path d="M577.5,712.8c1.1,0.9,1.7,2.2,1.7,3.8c0,1-0.2,1.9-0.7,2.7s-1.2,1.4-2.2,1.9c-1,0.5-2.1,0.7-3.6,0.7
		c-1.2,0-2.4-0.2-3.5-0.5c-1.1-0.4-2-0.9-2.8-1.5l1.1-1.9c0.6,0.6,1.3,1,2.2,1.3c0.9,0.3,1.9,0.5,2.9,0.5c1.3,0,2.3-0.3,3-0.8
		c0.7-0.5,1.1-1.3,1.1-2.2c0-1-0.4-1.8-1.2-2.3c-0.8-0.5-2.1-0.8-4-0.8h-3.9l0.9-8.9h9.6v2.1h-7.6l-0.5,4.7h1.9
		C574.6,711.5,576.4,711.9,577.5,712.8z"/>
	<path d="M584,719c0.3,0.3,0.4,0.7,0.4,1.2c0,0.2,0,0.5-0.1,0.7c-0.1,0.2-0.2,0.6-0.3,1l-1.1,3.4h-1.5l0.9-3.6
		c-0.3-0.1-0.6-0.3-0.7-0.6c-0.2-0.3-0.3-0.6-0.3-0.9c0-0.5,0.2-0.9,0.5-1.2c0.3-0.3,0.7-0.5,1.2-0.5
		C583.3,718.5,583.7,718.7,584,719z"/>
	<path d="M598.8,704.7v1.7l-6.9,15.4h-2.6l6.7-14.9h-7.8v3H586v-5.1H598.8z"/>
</g>
<g>
	<path d="M240.7,298c0.9,0.9,1.3,2,1.3,3.3c0,1-0.2,1.9-0.7,2.6s-1.2,1.4-2.2,1.9c-1,0.5-2.1,0.7-3.5,0.7c-1.2,0-2.4-0.2-3.5-0.5
		c-1.1-0.4-2-0.9-2.7-1.5l1.1-1.9c0.6,0.6,1.3,1,2.2,1.3c0.9,0.3,1.9,0.5,2.9,0.5c1.3,0,2.2-0.3,3-0.8c0.7-0.5,1.1-1.3,1.1-2.2
		c0-0.9-0.3-1.7-1-2.2c-0.7-0.5-1.7-0.8-3.2-0.8H234v-1.7l4.3-5.2h-8.2v-2.1h11.2v1.7l-4.4,5.5C238.6,296.6,239.8,297.1,240.7,298z"
		/>
	<path d="M247,303.6c0.3,0.3,0.4,0.7,0.4,1.2c0,0.2,0,0.5-0.1,0.7s-0.2,0.6-0.3,1l-1.1,3.4h-1.5l0.9-3.6c-0.3-0.1-0.6-0.3-0.7-0.6
		c-0.2-0.3-0.3-0.6-0.3-0.9c0-0.5,0.2-0.9,0.5-1.2c0.3-0.3,0.7-0.5,1.2-0.5C246.3,303.1,246.7,303.3,247,303.6z"/>
	<path d="M260.6,291.3c1.2,1.5,1.9,3.6,1.9,6.3c0,1.9-0.3,3.5-1,4.8s-1.6,2.3-2.8,3c-1.2,0.7-2.6,1-4.2,1c-0.8,0-1.6-0.1-2.3-0.3
		c-0.7-0.2-1.4-0.4-1.9-0.7l0.9-1.9c0.8,0.5,1.9,0.8,3.3,0.8c1.8,0,3.1-0.5,4.1-1.6c1-1.1,1.5-2.7,1.5-4.8v-0.6
		c-0.5,0.7-1.2,1.3-2,1.7s-1.8,0.6-2.9,0.6c-1.1,0-2.1-0.2-3-0.6c-0.9-0.4-1.6-1-2.1-1.8c-0.5-0.8-0.7-1.7-0.7-2.7
		c0-1.1,0.3-2,0.8-2.8c0.5-0.8,1.2-1.4,2.1-1.9c0.9-0.4,1.9-0.7,3.1-0.7C257.6,289.1,259.3,289.8,260.6,291.3z M257.6,297.2
		c0.6-0.3,1.1-0.7,1.4-1.2c0.3-0.5,0.5-1.1,0.5-1.7c0-0.6-0.2-1.1-0.5-1.6s-0.8-0.9-1.4-1.2c-0.6-0.3-1.3-0.4-2.2-0.4
		c-1.1,0-2,0.3-2.7,0.9c-0.7,0.6-1,1.4-1,2.4c0,1,0.3,1.8,1,2.4c0.7,0.6,1.6,0.9,2.8,0.9C256.3,297.6,257,297.5,257.6,297.2z"/>
</g>
<g>
	<path d="M664.8,167.4v1.7l-6.9,15.4h-2.6l6.7-14.9h-7.8v3h-2.3v-5.1H664.8z"/>
	<path d="M668.4,181.7c0.3,0.3,0.4,0.7,0.4,1.2c0,0.2,0,0.5-0.1,0.7s-0.2,0.6-0.3,1l-1.1,3.4h-1.5l0.9-3.6c-0.3-0.1-0.6-0.3-0.7-0.6
		c-0.2-0.3-0.3-0.6-0.3-0.9c0-0.5,0.2-0.9,0.5-1.2c0.3-0.3,0.7-0.5,1.2-0.5C667.7,181.2,668.1,181.4,668.4,181.7z"/>
	<path d="M682,169.4c1.2,1.5,1.9,3.6,1.9,6.3c0,1.9-0.3,3.5-1,4.8c-0.7,1.3-1.6,2.3-2.8,3c-1.2,0.7-2.6,1-4.2,1
		c-0.8,0-1.6-0.1-2.3-0.3c-0.7-0.2-1.4-0.4-1.9-0.7l0.9-1.9c0.8,0.5,1.9,0.8,3.3,0.8c1.8,0,3.1-0.5,4.1-1.6c1-1.1,1.5-2.7,1.5-4.8
		v-0.6c-0.5,0.7-1.2,1.3-2,1.7s-1.8,0.6-2.9,0.6c-1.1,0-2.1-0.2-3-0.6c-0.9-0.4-1.6-1-2.1-1.8c-0.5-0.8-0.7-1.7-0.7-2.7
		c0-1.1,0.3-2,0.8-2.8s1.2-1.4,2.1-1.9c0.9-0.4,1.9-0.7,3.1-0.7C679,167.2,680.7,167.9,682,169.4z M678.9,175.3
		c0.6-0.3,1.1-0.7,1.4-1.2c0.3-0.5,0.5-1.1,0.5-1.7c0-0.6-0.2-1.1-0.5-1.6c-0.3-0.5-0.8-0.9-1.4-1.2c-0.6-0.3-1.3-0.4-2.2-0.4
		c-1.1,0-2,0.3-2.7,0.9c-0.7,0.6-1,1.4-1,2.4c0,1,0.3,1.8,1,2.4c0.7,0.6,1.6,0.9,2.8,0.9C677.7,175.8,678.3,175.6,678.9,175.3z"/>
</g>
<g>
	<path d="M110.1,305.3c0.9,0.9,1.3,2,1.3,3.3c0,1-0.2,1.8-0.7,2.6c-0.5,0.8-1.2,1.4-2.2,1.9c-1,0.5-2.1,0.7-3.5,0.7
		c-1.2,0-2.4-0.2-3.5-0.5s-2-0.9-2.7-1.5l1.1-1.9c0.6,0.6,1.3,1,2.2,1.3c0.9,0.3,1.9,0.5,2.9,0.5c1.3,0,2.2-0.3,3-0.8
		c0.7-0.5,1.1-1.3,1.1-2.2c0-0.9-0.3-1.7-1-2.2c-0.7-0.5-1.7-0.8-3.2-0.8h-1.4V304l4.3-5.2h-8.2v-2.1h11.2v1.7l-4.4,5.5
		C107.9,303.9,109.2,304.5,110.1,305.3z"/>
	<path d="M116.4,310.9c0.3,0.3,0.4,0.7,0.4,1.2c0,0.2,0,0.5-0.1,0.7c-0.1,0.2-0.2,0.6-0.3,1l-1.1,3.4h-1.5l0.9-3.6
		c-0.3-0.1-0.6-0.3-0.7-0.6c-0.2-0.3-0.3-0.6-0.3-0.9c0-0.5,0.2-0.9,0.5-1.2c0.3-0.3,0.7-0.5,1.2-0.5
		C115.7,310.5,116.1,310.6,116.4,310.9z"/>
	<path d="M122.2,312.8c-1-0.7-1.9-1.7-2.5-3s-0.9-2.9-0.9-4.7c0-1.8,0.3-3.4,0.9-4.7c0.6-1.3,1.4-2.3,2.5-3s2.2-1,3.6-1
		c1.3,0,2.5,0.3,3.6,1s1.9,1.7,2.5,3c0.6,1.3,0.9,2.9,0.9,4.7c0,1.8-0.3,3.4-0.9,4.7c-0.6,1.3-1.4,2.3-2.5,3s-2.2,1-3.6,1
		C124.5,313.8,123.3,313.5,122.2,312.8z M129.1,310c0.8-1.1,1.2-2.7,1.2-4.9s-0.4-3.7-1.2-4.9c-0.8-1.1-1.9-1.7-3.3-1.7
		c-1.4,0-2.5,0.6-3.3,1.7c-0.8,1.1-1.2,2.7-1.2,4.9s0.4,3.7,1.2,4.9c0.8,1.1,1.9,1.7,3.3,1.7C127.2,311.7,128.3,311.1,129.1,310z"/>
</g>
<g>
	<path d="M392.9,715.6v2.1h-12.2v-1.7l6.9-6.7c0.8-0.8,1.4-1.5,1.7-2.1c0.3-0.6,0.4-1.2,0.4-1.8c0-0.9-0.3-1.6-0.9-2.1
		c-0.6-0.5-1.5-0.7-2.7-0.7c-1.9,0-3.3,0.6-4.3,1.8l-1.7-1.4c0.7-0.8,1.5-1.4,2.6-1.9c1.1-0.5,2.3-0.7,3.6-0.7
		c1.8,0,3.2,0.4,4.3,1.3c1.1,0.8,1.6,2,1.6,3.5c0,0.9-0.2,1.8-0.6,2.6s-1.1,1.7-2.2,2.8l-5.2,5H392.9z"/>
	<path d="M397.9,715c0.3,0.3,0.4,0.7,0.4,1.2c0,0.2,0,0.5-0.1,0.7c-0.1,0.2-0.2,0.6-0.3,1l-1.1,3.4h-1.5l0.9-3.6
		c-0.3-0.1-0.6-0.3-0.7-0.6c-0.2-0.3-0.3-0.6-0.3-0.9c0-0.5,0.2-0.9,0.5-1.2c0.3-0.3,0.7-0.5,1.2-0.5
		C397.3,714.5,397.6,714.7,397.9,715z"/>
	<path d="M415.3,713.5H412v4.2h-2.4v-4.2h-9.4v-1.7l8.7-11.1h2.6l-8.3,10.7h6.5v-3.7h2.3v3.7h3.2V713.5z"/>
</g>
<g>
	
		<rect x="33.4" y="644.2" fill-rule="evenodd" clip-rule="evenodd" fill="#F1F2F2" stroke="#848484" stroke-miterlimit="10" width="3.6" height="50.4"/>
	
		<rect x="33.4" y="644.2" fill-rule="evenodd" clip-rule="evenodd" fill="#F1F2F2" stroke="#848484" stroke-miterlimit="10" width="3.6" height="50.4"/>
	
		<rect x="89.7" y="643.7" fill-rule="evenodd" clip-rule="evenodd" fill="#F1F2F2" stroke="#848484" stroke-miterlimit="10" width="4.9" height="16.6"/>
	
		<rect x="89.7" y="643.7" fill-rule="evenodd" clip-rule="evenodd" fill="#F1F2F2" stroke="#848484" stroke-miterlimit="10" width="4.9" height="16.6"/>
	
		<rect x="36.6" y="641.5" fill-rule="evenodd" clip-rule="evenodd" fill="#F1F2F2" stroke="#848484" stroke-miterlimit="10" width="55.2" height="55.3"/>
	
		<rect x="36.6" y="641.5" fill-rule="evenodd" clip-rule="evenodd" fill="#F1F2F2" stroke="#848484" stroke-miterlimit="10" width="55.2" height="55.3"/>
	<path fill-rule="evenodd" clip-rule="evenodd" fill="#F1F2F2" stroke="#848484" stroke-miterlimit="10" d="M86.8,696.8l0-55.3
		L86.8,696.8z"/>
	<path fill-rule="evenodd" clip-rule="evenodd" fill="#F1F2F2" stroke="#848484" stroke-miterlimit="10" d="M86.6,699.5
		c-1.1,0-2.2-1-2.2-2.2c0-1.3,1.1-2.2,2.2-2.2c1.3,0,2.4,1,2.4,2.2C89,698.5,87.9,699.5,86.6,699.5z"/>
	<path fill-rule="evenodd" clip-rule="evenodd" fill="#F1F2F2" stroke="#848484" stroke-miterlimit="10" d="M86.6,699.5
		c-1.1,0-2.2-1-2.2-2.2c0-1.3,1.1-2.2,2.2-2.2c1.3,0,2.4,1,2.4,2.2C89,698.5,87.9,699.5,86.6,699.5z"/>
	<path fill-rule="evenodd" clip-rule="evenodd" fill="#F1F2F2" stroke="#848484" stroke-miterlimit="10" d="M58.4,668.9h9.7H58.4z"
		/>
	<path fill-rule="evenodd" clip-rule="evenodd" fill="#F1F2F2" stroke="#848484" stroke-miterlimit="10" d="M63.1,673.6l0-9.7
		L63.1,673.6z"/>
	<path fill-rule="evenodd" clip-rule="evenodd" fill="#F1F2F2" stroke="#848484" stroke-miterlimit="10" d="M66.8,672.3l-7.1-7.1
		L66.8,672.3z"/>
	<path fill-rule="evenodd" clip-rule="evenodd" fill="#F1F2F2" stroke="#848484" stroke-miterlimit="10" d="M66.8,665.3l-7.1,7.1
		L66.8,665.3z"/>
	<path fill-rule="evenodd" clip-rule="evenodd" fill="#F1F2F2" stroke="#848484" stroke-miterlimit="10" d="M58,683.2h9.7H58z"/>
	<path fill-rule="evenodd" clip-rule="evenodd" fill="#F1F2F2" stroke="#848484" stroke-miterlimit="10" d="M62.8,688l0-9.7
		L62.8,688z"/>
	<path fill-rule="evenodd" clip-rule="evenodd" fill="#F1F2F2" stroke="#848484" stroke-miterlimit="10" d="M66.5,686.6l-7.1-7.1
		L66.5,686.6z"/>
	<path fill-rule="evenodd" clip-rule="evenodd" fill="#F1F2F2" stroke="#848484" stroke-miterlimit="10" d="M66.5,679.6l-7.1,7.1
		L66.5,679.6z"/>
	<path fill-rule="evenodd" clip-rule="evenodd" fill="#F1F2F2" stroke="#848484" stroke-miterlimit="10" d="M58.4,654.9h9.7H58.4z"
		/>
	<path fill-rule="evenodd" clip-rule="evenodd" fill="#F1F2F2" stroke="#848484" stroke-miterlimit="10" d="M63.1,659.6l0-9.7
		L63.1,659.6z"/>
	<path fill-rule="evenodd" clip-rule="evenodd" fill="#F1F2F2" stroke="#848484" stroke-miterlimit="10" d="M66.8,658.3l-7.1-7.1
		L66.8,658.3z"/>
	<path fill-rule="evenodd" clip-rule="evenodd" fill="#F1F2F2" stroke="#848484" stroke-miterlimit="10" d="M66.8,651.3l-7.1,7.1
		L66.8,651.3z"/>
</g>
<g>
	<g>
		<path fill="#F1F2F2" stroke="#848484" stroke-miterlimit="10" d="M228,546.7c8.8,0,15.9-2.6,15.9-5.9c0-3.2-7.1-5.9-15.9-5.9
			c-8.8,0-15.9,2.6-15.9,5.9C212.2,544.1,219.3,546.7,228,546.7z"/>
		<path fill="#F1F2F2" stroke="#848484" stroke-miterlimit="10" d="M228,573.2c8.8,0,15.9-7.1,15.9-15.9s-7.1-15.9-15.9-15.9
			c-8.8,0-15.9,7.1-15.9,15.9S219.3,573.2,228,573.2z"/>
	</g>
	<g>
		<path fill="#F1F2F2" stroke="#848484" stroke-miterlimit="10" d="M180.3,623.6c-8.8,0-15.9,2.6-15.9,5.9c0,3.2,7.1,5.9,15.9,5.9
			c8.8,0,15.9-2.6,15.9-5.9C196.2,626.2,189.1,623.6,180.3,623.6z"/>
		<path fill="#F1F2F2" stroke="#848484" stroke-miterlimit="10" d="M180.3,597c-8.8,0-15.9,7.1-15.9,15.9c0,8.8,7.1,15.9,15.9,15.9
			c8.8,0,15.9-7.1,15.9-15.9C196.2,604.1,189.1,597,180.3,597z"/>
	</g>
	<g>
		<path fill="#F1F2F2" stroke="#848484" stroke-miterlimit="10" d="M228,624.9c-8.8,0-15.9,2.6-15.9,5.9c0,3.2,7.1,5.9,15.9,5.9
			s15.9-2.6,15.9-5.9C243.9,627.5,236.8,624.9,228,624.9z"/>
		<path fill="#F1F2F2" stroke="#848484" stroke-miterlimit="10" d="M228,598.4c-8.8,0-15.9,7.1-15.9,15.9c0,8.8,7.1,15.9,15.9,15.9
			s15.9-7.1,15.9-15.9C243.9,605.5,236.8,598.4,228,598.4z"/>
	</g>
	<g>
		<path fill="#F1F2F2" stroke="#848484" stroke-miterlimit="10" d="M180.3,548.5c8.8,0,15.9-2.6,15.9-5.9c0-3.2-7.1-5.9-15.9-5.9
			c-8.8,0-15.9,2.6-15.9,5.9C164.5,545.9,171.6,548.5,180.3,548.5z"/>
		<path fill="#F1F2F2" stroke="#848484" stroke-miterlimit="10" d="M180.3,575.1c8.8,0,15.9-7.1,15.9-15.9c0-8.8-7.1-15.9-15.9-15.9
			c-8.8,0-15.9,7.1-15.9,15.9C164.5,568,171.6,575.1,180.3,575.1z"/>
	</g>
	
		<rect x="148.4" y="554.1" transform="matrix(-1 1.630884e-14 -1.630884e-14 -1 407.4924 1172.1034)" fill="#F1F2F2" stroke="#848484" stroke-miterlimit="10" width="110.7" height="63.9"/>
</g>
<g>
	<path fill-rule="evenodd" clip-rule="evenodd" fill="#F1F2F2" stroke="#848484" stroke-miterlimit="10" d="M271,554.7v-23.8h19.8
		v23.8H271L271,554.7z M271,442.2h29.5v88.7H271V442.2z"/>
	<path fill-rule="evenodd" clip-rule="evenodd" fill="#F1F2F2" stroke="#848484" stroke-miterlimit="10" d="M281.5,477.8
		c-5.1,0-5.6,4.6-5.6,10.4c0,5.7,0.5,10.4,5.6,10.4c5.1,0,9.4-4.6,9.4-10.4C290.8,482.4,286.7,477.8,281.5,477.8z"/>
	
		<rect x="282.5" y="453.4" fill-rule="evenodd" clip-rule="evenodd" fill="#F1F2F2" stroke="#848484" stroke-miterlimit="10" width="3.9" height="69.6"/>
	
		<rect x="282.5" y="453.4" fill-rule="evenodd" clip-rule="evenodd" fill="#F1F2F2" stroke="#848484" stroke-miterlimit="10" width="3.9" height="69.6"/>
	<polygon fill-rule="evenodd" clip-rule="evenodd" fill="#F1F2F2" stroke="#848484" stroke-miterlimit="10" points="282.7,459.3 
		279.4,470.5 279.4,505.8 282.7,517 	"/>
	<polygon fill-rule="evenodd" clip-rule="evenodd" fill="#F1F2F2" stroke="#848484" stroke-miterlimit="10" points="282.7,459.3 
		279.4,470.5 279.4,505.8 282.7,517 	"/>
	<path fill-rule="evenodd" clip-rule="evenodd" fill="#F1F2F2" stroke="#848484" stroke-miterlimit="10" d="M292.9,552.6V533h2v19.6
		H292.9L292.9,552.6z M271,442.3v-23.8h19.8v23.8H271L271,442.3z M292.9,420.5h2v19.6h-2V420.5z"/>
</g>
<g>
	<path fill-rule="evenodd" clip-rule="evenodd" fill="#F1F2F2" stroke="#848484" stroke-miterlimit="10" d="M446.8,578.1V403.4
		c0-3.3,2.7-6,6-6h56.7c3.3,0,6,2.7,6,6v174.8c0,3.3-2.7,6-6,6h-56.7C449.5,584.1,446.8,581.4,446.8,578.1z"/>
	<path fill-rule="evenodd" clip-rule="evenodd" fill="#F1F2F2" stroke="#848484" stroke-miterlimit="10" d="M457.7,466.1
		c-7.8,0-11.1-0.4-11.1-10.4v-29.6c0-10,3.4-10.4,11.1-10.4h29.4c7.8,0,11.1,0.4,11.1,10.4v29.6c0,10-3.4,10.4-11.1,10.4H457.7z"/>
	<path fill-rule="evenodd" clip-rule="evenodd" fill="#F1F2F2" stroke="#848484" stroke-miterlimit="10" d="M457.7,466.1
		c-7.8,0-11.1-0.4-11.1-10.4v-29.6c0-10,3.4-10.4,11.1-10.4h29.4c7.8,0,11.1,0.4,11.1,10.4v29.6c0,10-3.4,10.4-11.1,10.4H457.7z"/>
	<path fill-rule="evenodd" clip-rule="evenodd" fill="#F1F2F2" stroke="#848484" stroke-miterlimit="10" d="M457.7,515.8
		c-7.8,0-11.1-0.4-11.1-10.3v-29.7c0-10,3.4-10.3,11.1-10.3h29.4c7.8,0,11.1,0.4,11.1,10.3v29.7c0,10-3.4,10.3-11.1,10.3H457.7z"/>
	<path fill-rule="evenodd" clip-rule="evenodd" fill="#F1F2F2" stroke="#848484" stroke-miterlimit="10" d="M457.7,515.8
		c-7.8,0-11.1-0.4-11.1-10.3v-29.7c0-10,3.4-10.3,11.1-10.3h29.4c7.8,0,11.1,0.4,11.1,10.3v29.7c0,10-3.4,10.3-11.1,10.3H457.7z"/>
	<path fill-rule="evenodd" clip-rule="evenodd" fill="#F1F2F2" stroke="#848484" stroke-miterlimit="10" d="M457.9,565.6
		c-7.8,0-11.1-0.4-11.1-10.3v-29.7c0-10,3.4-10.3,11.1-10.3h29.4c7.8,0,11.1,0.4,11.1,10.3v29.7c0,10-3.4,10.3-11.1,10.3H457.9z"/>
	<path fill-rule="evenodd" clip-rule="evenodd" fill="#F1F2F2" stroke="#848484" stroke-miterlimit="10" d="M515.5,416.2v157.1v3.2
		c0,4.2-3.2,7.7-7.1,7.7h-2.9h-51.7c-3.9,0-7.1-3.4-7.1-7.7v-3.2c0-4.2,3.2-7.7,7.1-7.7h44.5V415.9h-43.8c-4.2,0-7.6-3.5-7.6-7.7
		V405c0-4.2,3.4-7.7,7.6-7.7h50.2h3.2c4.2,0,7.6,3.5,7.6,7.7v3.2v10.2V416.2z"/>
</g>
<g>
	
		<rect x="364.7" y="181.5" fill-rule="evenodd" clip-rule="evenodd" fill="#F1F2F2" stroke="#848484" stroke-miterlimit="10" width="128.3" height="44.3"/>
	<line fill="#F1F2F2" stroke="#848484" stroke-miterlimit="10" x1="369.4" y1="225.7" x2="369.4" y2="181.4"/>
	<line fill="#F1F2F2" stroke="#848484" stroke-miterlimit="10" x1="488.3" y1="225.7" x2="488.3" y2="181.5"/>
	<line fill="#F1F2F2" stroke="#848484" stroke-miterlimit="10" x1="369.4" y1="183.5" x2="488.3" y2="183.5"/>
	<line fill="#F1F2F2" stroke="#848484" stroke-miterlimit="10" x1="484.1" y1="203.9" x2="373.5" y2="203.9"/>
	
		<rect x="377.9" y="190.2" transform="matrix(0.9868 -0.162 0.162 0.9868 -27.9828 64.1155)" fill="#F1F2F2" stroke="#848484" stroke-miterlimit="10" width="2.8" height="27"/>
	
		<rect x="387.8" y="190.2" transform="matrix(0.9961 -8.815246e-02 8.815246e-02 0.9961 -16.4403 35.1013)" fill="#F1F2F2" stroke="#848484" stroke-miterlimit="10" width="2.8" height="27"/>
	
		<rect x="397.9" y="190.4" transform="matrix(0.9734 -0.229 0.229 0.9734 -36.0874 96.8494)" fill="#F1F2F2" stroke="#848484" stroke-miterlimit="10" width="2.8" height="27"/>
	
		<rect x="409.1" y="190.1" transform="matrix(0.9884 -0.152 0.152 0.9884 -26.1857 64.7785)" fill="#F1F2F2" stroke="#848484" stroke-miterlimit="10" width="2.8" height="27"/>
	
		<rect x="418.9" y="190.3" transform="matrix(0.999 -4.511170e-02 4.511170e-02 0.999 -8.7644 19.1672)" fill="#F1F2F2" stroke="#848484" stroke-miterlimit="10" width="2.8" height="27"/>
	
		<rect x="428.8" y="190.3" transform="matrix(0.9884 -0.152 0.152 0.9884 -25.9794 67.7771)" fill="#F1F2F2" stroke="#848484" stroke-miterlimit="10" width="2.8" height="27"/>
	
		<rect x="438.9" y="190.4" transform="matrix(0.999 -4.511170e-02 4.511170e-02 0.999 -8.7508 20.0689)" fill="#F1F2F2" stroke="#848484" stroke-miterlimit="10" width="2.8" height="27"/>
	
		<rect x="448.8" y="190.4" transform="matrix(0.9787 -0.2052 0.2052 0.9787 -32.261 96.6916)" fill="#F1F2F2" stroke="#848484" stroke-miterlimit="10" width="2.8" height="27"/>
	
		<rect x="458.6" y="190.4" transform="matrix(0.9884 -0.152 0.152 0.9884 -25.6514 72.3117)" fill="#F1F2F2" stroke="#848484" stroke-miterlimit="10" width="2.8" height="27"/>
	
		<rect x="468.5" y="190.4" transform="matrix(0.9964 -8.473843e-02 8.473843e-02 0.9964 -15.5895 40.551)" fill="#F1F2F2" stroke="#848484" stroke-miterlimit="10" width="2.8" height="27"/>
	
		<rect x="478.4" y="190.1" transform="matrix(0.9713 -0.2379 0.2379 0.9713 -34.6611 119.9912)" fill="#F1F2F2" stroke="#848484" stroke-miterlimit="10" width="2.8" height="27"/>
</g>
<g>
	<path fill="#F1F2F2" stroke="#848484" stroke-miterlimit="10" d="M314.6,288c-4,0.3-15.2,0.5-23.3-5.1
		c-7.1-4.9-12.7-13.9-14.3-18.1v-82.2h37.6v82.2C314.6,272.5,314.6,280.2,314.6,288z M277,264.7h37.6"/>
	<rect x="309.9" y="191.6" fill="#F1F2F2" stroke="#848484" stroke-miterlimit="10" width="4.7" height="3.3"/>
	<rect x="309.9" y="212" fill="#F1F2F2" stroke="#848484" stroke-miterlimit="10" width="4.7" height="3.3"/>
	<rect x="309.9" y="232.1" fill="#F1F2F2" stroke="#848484" stroke-miterlimit="10" width="4.7" height="3.3"/>
	<rect x="309.9" y="252.4" fill="#F1F2F2" stroke="#848484" stroke-miterlimit="10" width="4.7" height="3.3"/>
	<rect x="313.9" y="189.3" fill="#F1F2F2" stroke="#848484" stroke-miterlimit="10" width="0.8" height="8.1"/>
	<rect x="313.9" y="209.5" fill="#F1F2F2" stroke="#848484" stroke-miterlimit="10" width="0.8" height="8.1"/>
	<rect x="313.9" y="229.7" fill="#F1F2F2" stroke="#848484" stroke-miterlimit="10" width="0.8" height="8.1"/>
	<rect x="313.9" y="250" fill="#F1F2F2" stroke="#848484" stroke-miterlimit="10" width="0.8" height="8.1"/>
</g>
<g>
	<g>
		
			<rect x="532.8" y="506.6" fill-rule="evenodd" clip-rule="evenodd" fill="#F1F2F2" stroke="#848484" stroke-miterlimit="10" width="3.5" height="69.1"/>
		<polygon fill-rule="evenodd" clip-rule="evenodd" fill="#F1F2F2" stroke="#848484" stroke-miterlimit="10" points="532.8,512.4 
			530.1,523.5 530.1,558.6 532.8,569.8 		"/>
		
			<rect x="527.1" y="535.2" transform="matrix(-1 -5.155710e-11 5.155710e-11 -1 1057.1388 1082.1766)" fill-rule="evenodd" clip-rule="evenodd" fill="#F1F2F2" stroke="#848484" stroke-miterlimit="10" width="3" height="11.8"/>
	</g>
</g>
<g>
	<g>
		
			<rect x="597.1" y="485" transform="matrix(-1 -1.224647e-16 1.224647e-16 -1 1353.7892 1093.8389)" fill-rule="evenodd" clip-rule="evenodd" fill="#F1F2F2" stroke="#848484" stroke-miterlimit="10" width="159.6" height="123.9"/>
		
			<rect x="601.5" y="487.7" transform="matrix(-1 -1.224647e-16 1.224647e-16 -1 1351.8878 1093.7089)" fill-rule="evenodd" clip-rule="evenodd" fill="#F1F2F2" stroke="#848484" stroke-miterlimit="10" width="148.8" height="118.2"/>
		
			<rect x="712.9" y="556.5" transform="matrix(-1 -2.710169e-13 2.710169e-13 -1 1459.4369 1159.0033)" fill-rule="evenodd" clip-rule="evenodd" fill="#F1F2F2" stroke="#848484" stroke-miterlimit="10" width="33.6" height="45.9"/>
		
			<rect x="712.9" y="491.6" transform="matrix(-1 -1.224647e-16 1.224647e-16 -1 1459.4369 1029.0974)" fill-rule="evenodd" clip-rule="evenodd" fill="#F1F2F2" stroke="#848484" stroke-miterlimit="10" width="33.6" height="45.9"/>
		<polygon fill-rule="evenodd" clip-rule="evenodd" fill="#F1F2F2" stroke="#848484" stroke-miterlimit="10" points="695.8,606 
			716.3,570.7 716.3,523 716.3,570.7 716.3,523 695.8,487.7 601.5,487.7 601.5,487.9 601.5,606 		"/>
		<polyline fill-rule="evenodd" clip-rule="evenodd" fill="#F1F2F2" stroke="#848484" stroke-miterlimit="10" points="695.8,606 
			680.8,581.2 716.3,570.7 		"/>
		
			<line fill-rule="evenodd" clip-rule="evenodd" fill="#F1F2F2" stroke="#848484" stroke-miterlimit="10" x1="716.3" y1="570.7" x2="695.8" y2="606"/>
		<polyline fill-rule="evenodd" clip-rule="evenodd" fill="#F1F2F2" stroke="#848484" stroke-miterlimit="10" points="695.8,487.7 
			680.8,512.5 716.3,523 		"/>
		
			<line fill-rule="evenodd" clip-rule="evenodd" fill="#F1F2F2" stroke="#848484" stroke-miterlimit="10" x1="716.3" y1="523" x2="695.8" y2="487.7"/>
	</g>
	<g>
		
			<rect x="719.1" y="445" transform="matrix(6.123234e-17 -1 1 6.123234e-17 280.0268 1201.7189)" fill="#F1F2F2" stroke="#848484" stroke-miterlimit="10" width="43.6" height="31.7"/>
		
			<rect x="714.9" y="460" transform="matrix(6.123234e-17 -1 1 6.123234e-17 262.9809 1185.0137)" fill="#F1F2F2" stroke="#848484" stroke-miterlimit="10" width="18.3" height="2.1"/>
	</g>
	<g>
		
			<rect x="719.1" y="617.3" transform="matrix(6.123234e-17 -1 1 6.123234e-17 107.7604 1373.9854)" fill="#F1F2F2" stroke="#848484" stroke-miterlimit="10" width="43.6" height="31.7"/>
		
			<rect x="714.9" y="632.3" transform="matrix(-9.941475e-14 -1 1 -9.941475e-14 90.7145 1357.2802)" fill="#F1F2F2" stroke="#848484" stroke-miterlimit="10" width="18.3" height="2.1"/>
	</g>
</g>
<g>
	
		<rect x="623.5" y="339.8" fill-rule="evenodd" clip-rule="evenodd" fill="#F1F2F2" stroke="#848484" stroke-miterlimit="10" width="133" height="45.9"/>
	<line fill="#F1F2F2" stroke="#848484" stroke-miterlimit="10" x1="628.3" y1="385.7" x2="628.3" y2="339.7"/>
	<line fill="#F1F2F2" stroke="#848484" stroke-miterlimit="10" x1="751.5" y1="385.7" x2="751.5" y2="339.8"/>
	<line fill="#F1F2F2" stroke="#848484" stroke-miterlimit="10" x1="628.3" y1="341.9" x2="751.5" y2="341.9"/>
	<line fill="#F1F2F2" stroke="#848484" stroke-miterlimit="10" x1="747.2" y1="363.1" x2="632.6" y2="363.1"/>
	
		<rect x="637.1" y="348.9" transform="matrix(0.9868 -0.162 0.162 0.9868 -50.3419 108.209)" fill="#F1F2F2" stroke="#848484" stroke-miterlimit="10" width="2.9" height="28"/>
	
		<rect x="647.4" y="348.9" transform="matrix(0.9961 -8.815246e-02 8.815246e-02 0.9961 -29.462 58.6075)" fill="#F1F2F2" stroke="#848484" stroke-miterlimit="10" width="2.9" height="28"/>
	
		<rect x="657.8" y="349.1" transform="matrix(0.9734 -0.229 0.229 0.9734 -65.6335 160.6179)" fill="#F1F2F2" stroke="#848484" stroke-miterlimit="10" width="2.9" height="28"/>
	
		<rect x="669.5" y="348.8" transform="matrix(0.9884 -0.152 0.152 0.9884 -47.3604 106.2206)" fill="#F1F2F2" stroke="#848484" stroke-miterlimit="10" width="2.9" height="28"/>
	
		<rect x="679.6" y="349" transform="matrix(0.999 -4.511170e-02 4.511170e-02 0.999 -15.6801 31.0924)" fill="#F1F2F2" stroke="#848484" stroke-miterlimit="10" width="2.9" height="28"/>
	
		<rect x="689.9" y="349" transform="matrix(0.9884 -0.152 0.152 0.9884 -47.1466 109.3285)" fill="#F1F2F2" stroke="#848484" stroke-miterlimit="10" width="2.9" height="28"/>
	
		<rect x="700.3" y="349.1" transform="matrix(0.999 -4.511170e-02 4.511170e-02 0.999 -15.666 32.027)" fill="#F1F2F2" stroke="#848484" stroke-miterlimit="10" width="2.9" height="28"/>
	
		<rect x="710.5" y="349.1" transform="matrix(0.9787 -0.2052 0.2052 0.9787 -59.3515 153.7994)" fill="#F1F2F2" stroke="#848484" stroke-miterlimit="10" width="2.9" height="28"/>
	
		<rect x="720.8" y="349.1" transform="matrix(0.9884 -0.152 0.152 0.9884 -46.8067 114.0282)" fill="#F1F2F2" stroke="#848484" stroke-miterlimit="10" width="2.9" height="28"/>
	
		<rect x="731" y="349.1" transform="matrix(0.9964 -8.473843e-02 8.473843e-02 0.9964 -28.1348 63.3727)" fill="#F1F2F2" stroke="#848484" stroke-miterlimit="10" width="2.9" height="28"/>
	
		<rect x="741.2" y="348.8" transform="matrix(0.9713 -0.2379 0.2379 0.9713 -64.9834 187.1169)" fill="#F1F2F2" stroke="#848484" stroke-miterlimit="10" width="2.9" height="28"/>
</g>
<g>
</g>
<g>
</g>
<g>
</g>
<g>
</g>
<g>
</g>
<g>
</g>
</svg>
