<svg id="Слой_1" data-name="Слой 1" xmlns="http://www.w3.org/2000/svg" viewBox="0 0 162.92612 165.12749"><title>2.01.01</title><polygon points="160.207 0 160.207 6.269 162.926 6.269 162.926 116.879 160.207 116.879 160.207 165.127 0 165.127 0 67.796 38.442 67.796 38.442 0 160.207 0" style="fill:#fff;fill-rule:evenodd"/><path d="M210.371,198.73509a.374.374,0,1,0,.37469.6474l13.92011-8.03989a.374.374,0,0,0-.37469-.6474Z" transform="translate(-138.3205 -130.03461)" style="fill:#003915"/><path d="M155.878,247.3028a.374.374,0,0,0,.3748.6474l13.92009-8.0399a.374.374,0,1,0-.3748-.6474Z" transform="translate(-138.3205 -130.03461)" style="fill:#003915"/><path d="M267.16309,268.1136a.374.374,0,0,0,.6474-.37469L259.7706,253.8188a.374.374,0,1,0-.6474.37469Z" transform="translate(-138.3205 -130.03461)" style="fill:#003915"/><rect x="68.79401" y="2.81" width="2.6022" height="27.849" style="fill:#003915"/><rect y="67.79649" width="2.6022" height="2.8743" style="fill:#003915"/><rect x="51.50951" y="116.9473" width="2.6022" height="48.18019" style="fill:#003915"/><rect x="68.79401" y="51.73259" width="2.6022" height="17.4897" style="fill:#003915"/><rect x="38.44211" y="34.9707" width="0.85089" height="2.6022" style="fill:#003915"/><rect x="1.59871" y="116.9473" width="16.3262" height="2.6022" style="fill:#003915"/><rect x="33.461" y="116.9473" width="20.65071" height="2.6022" style="fill:#003915"/><rect y="160.3485" width="161.5192" height="4.77899" style="fill:#003915"/><polygon points="72.589 67.796 72.589 72.798 0 72.798 0 67.796 38.442 67.796 72.589 67.796" style="fill:#003915;fill-rule:evenodd"/><rect x="90.8427" y="67.79649" width="67.75911" height="5.002" style="fill:#003915"/><polygon points="44.868 71.044 38.442 71.044 38.442 67.796 38.442 0 44.868 0 44.868 71.044" style="fill:#003915;fill-rule:evenodd"/><rect y="67.79649" width="6.4256" height="19.41789" style="fill:#003915"/><rect x="38.44211" width="8.00639" height="4.0643" style="fill:#003915"/><rect x="42.14751" width="114.22371" height="6.26938" style="fill:#003915"/><rect x="42.14751" width="82.80449" height="8.85489" style="fill:#003915"/><rect y="107.05719" width="6.4256" height="58.0703" style="fill:#003915"/><rect x="124.952" y="112.74489" width="37.97412" height="8.16011" style="fill:#003915"/><rect x="154.76599" width="8.16013" height="22.5" style="fill:#003915"/><rect x="154.76599" y="52.01939" width="8.16013" height="25.79221" style="fill:#003915"/><rect x="154.76599" y="107.04079" width="8.16013" height="13.86421" style="fill:#003915"/><rect x="124.83722" y="136.83859" width="8.1601" height="28.28889" style="fill:#003915"/><rect x="157.767" y="92.59479" width="2.29861" height="0.5018" style="fill:#003915"/><rect x="157.767" y="91.39659" width="2.29861" height="0.50121" style="fill:#003915"/><rect x="157.767" y="78.75919" width="2.29861" height="0.50151" style="fill:#003915"/><rect x="157.767" y="77.56099" width="2.29861" height="0.50121" style="fill:#003915"/><rect x="157.767" y="106.70659" width="2.29861" height="0.50171" style="fill:#003915"/><rect x="157.767" y="105.50859" width="2.29861" height="0.50121" style="fill:#003915"/><rect x="154.76511" y="75.5042" width="0.5015" height="34.09369" style="fill:#003915"/><rect x="157.6123" y="75.5042" width="0.5014" height="34.09369" style="fill:#003915"/><rect x="159.7836" y="75.5042" width="0.5014" height="34.09369" style="fill:#003915"/><rect x="162.42459" y="75.5042" width="0.50153" height="34.09369" style="fill:#003915"/><rect x="157.767" y="37.22141" width="2.29861" height="0.5018" style="fill:#003915"/><rect x="157.767" y="36.02319" width="2.29861" height="0.50119" style="fill:#003915"/><rect x="157.767" y="23.3858" width="2.29861" height="0.5015" style="fill:#003915"/><rect x="157.767" y="22.18759" width="2.29861" height="0.50119" style="fill:#003915"/><rect x="157.767" y="51.33319" width="2.29861" height="0.50171" style="fill:#003915"/><rect x="157.767" y="50.13519" width="2.29861" height="0.50121" style="fill:#003915"/><rect x="154.76511" y="20.1308" width="0.5015" height="34.09369" style="fill:#003915"/><rect x="157.6123" y="20.1308" width="0.5014" height="34.09369" style="fill:#003915"/><rect x="159.7836" y="20.1308" width="0.5014" height="34.09369" style="fill:#003915"/><rect x="162.42459" y="20.1308" width="0.50153" height="34.09369" style="fill:#003915"/><rect x="157.6806" y="159.57779" width="1.29709" height="0.44701" style="fill:#003915"/><rect x="157.6806" y="158.50999" width="1.29709" height="0.4467" style="fill:#003915"/><rect x="157.6806" y="140.97569" width="1.29709" height="0.44701" style="fill:#003915"/><rect x="157.6806" y="139.9079" width="1.29709" height="0.4467" style="fill:#003915"/><rect x="157.6806" y="122.3734" width="1.29709" height="0.44699" style="fill:#003915"/><rect x="157.6806" y="121.3055" width="1.29709" height="0.44679" style="fill:#003915"/><rect x="159.76041" y="119.2388" width="0.44669" height="43.77089" style="fill:#003915"/><rect x="158.66901" y="119.2388" width="0.44681" height="43.77089" style="fill:#003915"/><rect x="157.5882" y="119.2388" width="0.44672" height="43.77089" style="fill:#003915"/><rect x="159.76041" y="164.53448" width="0.44669" height="0.593" style="fill:#003915"/><rect x="158.66901" y="164.53448" width="0.44681" height="0.593" style="fill:#003915"/><rect x="157.5882" y="164.53448" width="0.44672" height="0.593" style="fill:#003915"/><path d="M144.9323,263.44009v9.82231a.90528.90528,0,0,0,.904.9054h4.61029a4.59559,4.59559,0,0,0,4.59091-4.58951V267.126a4.59565,4.59565,0,0,0-4.59091-4.59039H145.8363a.90471.90471,0,0,0-.904.9045m9.8606,6.1382a4.351,4.351,0,0,1-4.3463,4.34491H145.8363a.66143.66143,0,0,1-.6599-.6608v-9.82231a.66066.66066,0,0,1,.6599-.6599h4.61029a4.35138,4.35138,0,0,1,4.3463,4.34579Z" transform="translate(-138.3205 -130.03461)" style="fill:#003915"/><path d="M153.7027,269.578a3.25868,3.25868,0,0,1-3.2561,3.25439h-2.6881a.56778.56778,0,0,1-.5675-.5672v-3.5753h-.24519v3.5753a.814.814,0,0,0,.8127.81241h2.6881a3.504,3.504,0,0,0,3.5007-3.4996v-2.4523a3.50468,3.50468,0,0,0-3.5007-3.50081h-2.6881a.81449.81449,0,0,0-.8127.8136v3.5753h.24519v-3.5753a.56829.56829,0,0,1,.5675-.56839h2.6881a3.25933,3.25933,0,0,1,3.2561,3.2556Z" transform="translate(-138.3205 -130.03461)" style="fill:#003915"/><path d="M150.099,268.3511a.7835.7835,0,1,0,.78351-.78371.78474.78474,0,0,0-.78351.78371m1.3224,0a.53875.53875,0,1,1-.53889-.53911A.53969.53969,0,0,1,151.4214,268.3511Z" transform="translate(-138.3205 -130.03461)" style="fill:#003915"/><rect x="12.00331" y="138.19409" width="1.11659" height="0.2449" style="fill:#003915"/><rect x="12.43901" y="137.75899" width="0.2455" height="1.11601" style="fill:#003915"/><path d="M146.11459,268.01379v-.40359a.17376.17376,0,0,1,.1741-.173h.3793a.17366.17366,0,0,1,.174.173v.40359h.2449v-.40359a.41876.41876,0,0,0-.4189-.4182h-.3793a.41872.41872,0,0,0-.4187.4182v.40559l.0374-.002Zm.7274,1.07721a.17438.17438,0,0,1-.174.174h-.3793a.17447.17447,0,0,1-.1741-.174v-.40111h-.2072l-.0374-.00229v.4034a.41863.41863,0,0,0,.4187.4187h.3793a.41867.41867,0,0,0,.4189-.4187v-.40111h-.2449Z" transform="translate(-138.3205 -130.03461)" style="fill:#003915"/><path d="M145.4471,268.3511a.461.461,0,0,0,.4603.4612h3.0804a.46045.46045,0,0,0,0-.9209h-3.0804a.46051.46051,0,0,0-.4603.4597m3.7567,0a.2167.2167,0,0,1-.216.21629h-3.0804a.21555.21555,0,0,1,0-.43109h3.0804A.216.216,0,0,1,149.2038,268.3511Z" transform="translate(-138.3205 -130.03461)" style="fill:#003915"/><path d="M170.3472,257.17889a3.917,3.917,0,0,0,3.9129,3.91161h5.6653a.67744.67744,0,0,0,.6393-.4561,1.24121,1.24121,0,0,0,.20491.20351.94583.94583,0,0,1-.84421.52159h-5.6653a4.18085,4.18085,0,1,1,0-8.36169h5.6653a.94537.94537,0,0,1,.8436.5211,1.24037,1.24037,0,0,0-.20459.2032.67641.67641,0,0,0-.639-.45551h-5.6653a3.91705,3.91705,0,0,0-3.9129,3.91229" transform="translate(-138.3205 -130.03461)" style="fill:#003915"/><path d="M178.8446,254.3752v5.6089a.204.204,0,0,1-.20151.20129h-4.27069a3.0066,3.0066,0,1,1,0-6.0132h4.27069a.20467.20467,0,0,1,.20151.203m-.2682,5.5414V254.4407h-4.204a2.73795,2.73795,0,0,0,0,5.47589Z" transform="translate(-138.3205 -130.03461)" style="fill:#003915"/><path d="M176.11369,257.1792a1.00815,1.00815,0,1,1-1.008-1.0088,1.01006,1.01006,0,0,1,1.008,1.0088m-1.74759,0a.73945.73945,0,1,0,.73959-.73981A.7404.7404,0,0,0,174.3661,257.1792Z" transform="translate(-138.3205 -130.03461)" style="fill:#003915"/><rect x="177.05559" y="257.67958" width="0.26857" height="2.24219" transform="translate(-274.51441 115.9349) rotate(-53.2576)" style="fill:#003915"/><rect x="176.06814" y="255.46674" width="2.24308" height="0.26917" transform="translate(-256.13765 27.08226) rotate(-36.8083)" style="fill:#003915"/><path d="M184.34641,254.47839v5.40051a1.3552,1.3552,0,0,1-1.35391,1.35249H181.5182a1.35359,1.35359,0,0,1-1.3524-1.35249v-5.40051a1.35326,1.35326,0,0,1,1.3524-1.3519h1.47429a1.35488,1.35488,0,0,1,1.35391,1.3519m-3.91211,5.40051a1.08542,1.08542,0,0,0,1.08391,1.08429h1.47429a1.08587,1.08587,0,0,0,1.08511-1.08429v-5.40051a1.08594,1.08594,0,0,0-1.08511-1.08369H181.5182a1.08549,1.08549,0,0,0-1.08391,1.08369Z" transform="translate(-138.3205 -130.03461)" style="fill:#003915"/><path d="M182.94411,257.1792a.68816.68816,0,1,1-.68741-.6882.68816.68816,0,0,1,.68741.6882m-1.10721,0a.4192.4192,0,1,0,.4198-.41949A.41939.41939,0,0,0,181.8369,257.1792Z" transform="translate(-138.3205 -130.03461)" style="fill:#003915"/><path d="M153.1032,250.1181H145.2637v11.348h7.83949Zm-8.1709-.33081h8.5025v12.0099h-8.5025Z" transform="translate(-138.3205 -130.03461)" style="fill:#003915"/><path d="M153.3277,252.5126a.60438.60438,0,0,1,.61261.59349v5.37221a.60414.60414,0,0,1-.61261.5939v-.33081a.26968.26968,0,0,0,.2809-.26309v-5.37221a.26942.26942,0,0,0-.2809-.2627Z" transform="translate(-138.3205 -130.03461)" style="fill:#003915"/><path d="M150.7011,254.77029h-2.7077l-.6216,1.59741a2.47366,2.47366,0,0,0,1.6747-.0919,4.1548,4.1548,0,0,1,1.24071-.2412,2.44956,2.44956,0,0,1,.9366.18819Zm-2.9341-.3308h3.16681l.89209,2.4801-.39059-.22481a2.26618,2.26618,0,0,0-1.1481-.32939,3.89037,3.89037,0,0,0-1.14371.22679,3.90011,3.90011,0,0,1-1.14409.22821,2.018,2.018,0,0,1-.91251-.218l-.1358-.0675Z" transform="translate(-138.3205 -130.03461)" style="fill:#003915"/><path d="M147.0835,275.1991h30.085a2.161,2.161,0,0,1,2.1515,2.1656v10.41139a2.161,2.161,0,0,1-2.1515,2.166h-30.085a2.1609,2.1609,0,0,1-2.1512-2.166V277.3647a2.161,2.161,0,0,1,2.1512-2.1656m30.085,14.51311a1.93123,1.93123,0,0,0,1.92189-1.93611V277.3647a1.9311,1.9311,0,0,0-1.92189-1.9355h-30.085a1.93139,1.93139,0,0,0-1.92209,1.9355v10.41139a1.93152,1.93152,0,0,0,1.92209,1.93611Z" transform="translate(-138.3205 -130.03461)" style="fill:#003915"/><path d="M174.18269,288.4502a2.577,2.577,0,0,0,2.5654-2.58209v-6.5948a2.57667,2.57667,0,0,0-2.5654-2.5818H150.0695a2.5771,2.5771,0,0,0-2.5659,2.5818v2.0619a.3964.3964,0,0,0-.2282-.142V279.2733a2.80638,2.80638,0,0,1,2.7941-2.8125h24.11319a2.80658,2.80658,0,0,1,2.7944,2.8125v6.5948a2.80654,2.80654,0,0,1-2.7944,2.8123H150.0695a2.80634,2.80634,0,0,1-2.7941-2.8123v-1.9202a.39568.39568,0,0,0,.2282-.1414v2.0616a2.57748,2.57748,0,0,0,2.5659,2.58209Z" transform="translate(-138.3205 -130.03461)" style="fill:#003915"/><path d="M172.6353,287.1369a1.26659,1.26659,0,0,0,1.26109-1.2688v-6.5948a1.26627,1.26627,0,0,0-1.26109-1.2682H150.0695a1.2662,1.2662,0,0,0-1.2614,1.2682v2.84489h-.2287V279.2733a1.4962,1.4962,0,0,1,1.4901-1.499h22.5658a1.49565,1.49565,0,0,1,1.4893,1.499v6.5948a1.49526,1.49526,0,0,1-1.4893,1.499H150.0695a1.4958,1.4958,0,0,1-1.4901-1.499V283.023h.2287v2.84511a1.26653,1.26653,0,0,0,1.2614,1.2688Z" transform="translate(-138.3205 -130.03461)" style="fill:#003915"/><path d="M151.9747,281.8378a.73336.73336,0,1,1-.7299.7336.73145.73145,0,0,1,.7299-.7336m0,1.2365a.5033.5033,0,1,0-.50031-.5029A.50191.50191,0,0,0,151.9747,283.0743Z" transform="translate(-138.3205 -130.03461)" style="fill:#003915"/><rect x="13.53911" y="152.01349" width="0.22929" height="1.0457" style="fill:#003915"/><rect x="13.1349" y="152.42139" width="1.0378" height="0.2308" style="fill:#003915"/><path d="M147.4747,282.11819v-.53749a.27982.27982,0,0,0-.27859-.2803h-.5052a.28033.28033,0,0,0-.27921.2803v.53749h-.2287v-.53749a.51033.51033,0,0,1,.5079-.51111h.5052a.50972.50972,0,0,1,.5074.51111v.53749Zm-.27859,1.722a.27984.27984,0,0,0,.27859-.28009V283.023h.22881v.53711a.50926.50926,0,0,1-.5074.51079h-.5052a.50987.50987,0,0,1-.5079-.51079V283.023h.2287v.53711a.28035.28035,0,0,0,.27921.28009Z" transform="translate(-138.3205 -130.03461)" style="fill:#003915"/><path d="M146.18491,282.00279h3.20119a.56766.56766,0,0,1,0,1.1353h-3.20119a.56766.56766,0,0,1,0-1.1353m3.20119.90511a.3372.3372,0,0,0,0-.67439h-3.20119a.3372.3372,0,0,0,0,.67439Z" transform="translate(-138.3205 -130.03461)" style="fill:#003915"/><path d="M192.68311,249.2567v11.7691h11.7688V249.2567Zm.24939,11.5197V249.5058h11.2706v11.2706Z" transform="translate(-138.3205 -130.03461)" style="fill:#003915"/><path d="M203.35381,255.1411a3.91958,3.91958,0,0,1-7.7142.9817.3.3,0,0,1-.1976.0742h-.0405a4.16847,4.16847,0,1,0-.00031-2.11151h.0408a.29843.29843,0,0,1,.1973.074,3.91975,3.91975,0,0,1,7.71451.9816" transform="translate(-138.3205 -130.03461)" style="fill:#003915"/><path d="M195.95309,255.1411a3.48151,3.48151,0,1,0,3.48181-3.4812,3.48572,3.48572,0,0,0-3.48181,3.4812m6.71361,0a3.23195,3.23195,0,1,1-3.2318-3.2318A3.23548,3.23548,0,0,1,202.6667,255.1411Z" transform="translate(-138.3205 -130.03461)" style="fill:#003915"/><path d="M198.5323,255.1411a.9023.9023,0,1,0,.9026-.9025.90343.90343,0,0,0-.9026.9025m1.55569,0a.65295.65295,0,1,1-.65309-.65309A.65424.65424,0,0,1,200.088,255.1411Z" transform="translate(-138.3205 -130.03461)" style="fill:#003915"/><rect x="60.457" y="124.9818" width="1.3139" height="0.24939" style="fill:#003915"/><rect x="60.98911" y="124.44969" width="0.24969" height="1.3136" style="fill:#003915"/><path d="M194.6282,254.38741v1.50749a.42706.42706,0,0,0,.42659.42661h.38721a.42687.42687,0,0,0,.42661-.42661v-1.50749a.42681.42681,0,0,0-.42661-.42661h-.38721a.427.427,0,0,0-.42659.42661m.991,1.50749a.17771.17771,0,0,1-.1772.1774h-.38721a.17752.17752,0,0,1-.1772-.1774v-1.50749a.17728.17728,0,0,1,.1772-.1772h.38721a.17747.17747,0,0,1,.1772.1772Z" transform="translate(-138.3205 -130.03461)" style="fill:#003915"/><path d="M194.7529,255.3611h-.0864a.2197.2197,0,1,1,0-.43941h.0864V254.672h-.0864a.4694.4694,0,0,0,0,.9388h.0864Zm2.59-.22a.22048.22048,0,0,1-.22049.22H195.7439v.24969h1.37851a.4694.4694,0,1,0,0-.9388H195.7439v.24969h1.37851A.22.22,0,0,1,197.3429,255.1411Z" transform="translate(-138.3205 -130.03461)" style="fill:#003915"/><path d="M193.1644,277.92149V270.7648a1.49611,1.49611,0,0,1,1.49471-1.49409h8.29869a1.496,1.496,0,0,1,1.49411,1.49409v7.15669a1.49561,1.49561,0,0,1-1.49411,1.49411H194.6591a1.49573,1.49573,0,0,1-1.49471-1.49411m11.0545-7.15669a1.26263,1.26263,0,0,0-1.26111-1.26111H194.6591a1.26276,1.26276,0,0,0-1.2617,1.26111v7.15669a1.26307,1.26307,0,0,0,1.2617,1.2617h8.29869a1.26294,1.26294,0,0,0,1.26111-1.2617Z" transform="translate(-138.3205 -130.03461)" style="fill:#003915"/><path d="M193.98331,277.92149V270.7648a.67614.67614,0,0,1,.6758-.6757h7.01059a.67635.67635,0,0,1,.67581.6757v7.15669a.67647.67647,0,0,1-.67581.6763H194.6591a.67626.67626,0,0,1-.6758-.6763m8.1292-7.15669a.44324.44324,0,0,0-.44281-.443H194.6591a.44356.44356,0,0,0-.4431.443v7.15669a.44394.44394,0,0,0,.4431.44391h7.01059a.44363.44363,0,0,0,.44281-.44391Z" transform="translate(-138.3205 -130.03461)" style="fill:#003915"/><path d="M202.76421,271.465a.47425.47425,0,1,1,.4742.4742.47508.47508,0,0,1-.4742-.4742m.7155,0a.24126.24126,0,1,0-.2413.2415A.24194.24194,0,0,0,203.47971,271.465Z" transform="translate(-138.3205 -130.03461)" style="fill:#003915"/><path d="M202.76421,273.0657a.47425.47425,0,1,1,.4742.47479.475.475,0,0,1-.4742-.47479m.7155,0a.24126.24126,0,1,0-.2413.24179A.24163.24163,0,0,0,203.47971,273.0657Z" transform="translate(-138.3205 -130.03461)" style="fill:#003915"/><rect x="57.80521" y="140.98369" width="0.2328" height="2.7195" style="fill:#003915"/><rect x="56.56111" y="142.22719" width="2.71959" height="0.23271" style="fill:#003915"/><path d="M195.34509,272.378a.89685.89685,0,1,1,.89691.89659.89791.89791,0,0,1-.89691-.89659m1.561,0a.6643.6643,0,1,0-.66409.66389A.66554.66554,0,0,0,196.9061,272.378Z" transform="translate(-138.3205 -130.03461)" style="fill:#003915"/><rect x="61.65041" y="140.98369" width="0.2325" height="2.7195" style="fill:#003915"/><rect x="60.40601" y="142.22719" width="2.7204" height="0.23271" style="fill:#003915"/><path d="M199.18941,272.378a.89715.89715,0,1,1,.89749.89659.8986.8986,0,0,1-.89749-.89659m1.56189,0a.6647.6647,0,1,0-.6644.66389A.66541.66541,0,0,0,200.7513,272.378Z" transform="translate(-138.3205 -130.03461)" style="fill:#003915"/><rect x="57.80521" y="144.91449" width="0.2328" height="2.71921" style="fill:#003915"/><rect x="56.56111" y="146.15799" width="2.71959" height="0.233" style="fill:#003915"/><path d="M195.34509,276.3091a.89685.89685,0,1,1,.89691.8969.89777.89777,0,0,1-.89691-.8969m1.561,0a.6643.6643,0,1,0-.66409.66389A.666.666,0,0,0,196.9061,276.3091Z" transform="translate(-138.3205 -130.03461)" style="fill:#003915"/><rect x="61.65041" y="144.91449" width="0.2325" height="2.71921" style="fill:#003915"/><rect x="60.40601" y="146.15799" width="2.7204" height="0.233" style="fill:#003915"/><path d="M199.18941,276.3091a.89715.89715,0,1,1,.89749.8969.89847.89847,0,0,1-.89749-.8969m1.56189,0a.6647.6647,0,1,0-.6644.66389A.66592.66592,0,0,0,200.7513,276.3091Z" transform="translate(-138.3205 -130.03461)" style="fill:#003915"/><path d="M202.76421,275.7793a.47425.47425,0,1,1,.4742.4745.47484.47484,0,0,1-.4742-.4745m.7155,0a.24126.24126,0,1,0-.2413.24181A.24169.24169,0,0,0,203.47971,275.7793Z" transform="translate(-138.3205 -130.03461)" style="fill:#003915"/><path d="M202.76421,277.38091a.47425.47425,0,1,1,.4742.474.47464.47464,0,0,1-.4742-.474m.7155,0a.24126.24126,0,1,0-.2413.2415A.24168.24168,0,0,0,203.47971,277.38091Z" transform="translate(-138.3205 -130.03461)" style="fill:#003915"/><path d="M188.0062,251.0238a.80923.80923,0,1,0,.23471.57089.80974.80974,0,0,0-.23471-.57089m-.5726-1.0363a1.60705,1.60705,0,1,1-1.1364.47049A1.6027,1.6027,0,0,1,187.43359,249.9875Z" transform="translate(-138.3205 -130.03461)" style="fill:#003915"/><path d="M186.7272,265.7628h2.9803v7.407h-2.9803Zm0,17.12239h2.9803v7.40691h-2.9803Zm0-8.5255h2.9803v3.0728h-2.9803Zm0,4.2628h2.9803v3.07271h-2.9803Zm0-22.6452h2.9803v7.407h-2.9803Zm-2.20081-2.3904h6.6288v38.137h-6.6288Z" transform="translate(-138.3205 -130.03461)" style="fill:#003915;fill-rule:evenodd"/><rect x="0.8878" y="67.79649" width="9.925" height="0.6588" style="fill:#003915"/><path d="M255.6904,172.9511c-.7319,0-1.2359-.61789-1.2359-1.7399s.504-1.7399,1.2359-1.7399,1.2359.618,1.2359,1.7399-.504,1.7399-1.2359,1.7399m0,.396c.972,0,1.67981-.79791,1.67981-2.13591s-.70779-2.13591-1.67981-2.13591-1.6738.798-1.6738,2.13591S254.7184,173.34711,255.6904,173.34711Zm-5.20779-4.23581v1.16991h.4261v-.7861h2.16l-1.728,3.816h.468l1.758-3.89389v-.30591Zm-.74971,3.5759a.31415.31415,0,0,0-.3181.324.30323.30323,0,0,0,.216.30589l-.2041.8699h.288l.252-.828a.9759.9759,0,0,0,.0842-.34779A.314.314,0,0,0,249.73289,172.68719Zm-3.24.23981,1.428-1.4037a1.72881,1.72881,0,0,0,.69-1.3141c0-.7019-.54-1.13391-1.39211-1.13391a1.88746,1.88746,0,0,0-1.4879.59981l.30591.26421a1.42625,1.42625,0,0,1,1.146-.468c.64211,0,.9839.2999.9839.7861,0,.2877-.0898.5697-.5638,1.0377l-1.74611,1.71019v.3058h2.946V172.927Zm-2.9821-3.8157v.3838h.9901v3.816h.432v-4.1998Z" transform="translate(-138.3205 -130.03461)" style="fill:#6e6e6e;fill-rule:evenodd"/><path d="M198.99471,172.9511c-.7319,0-1.2359-.61789-1.2359-1.7399s.504-1.7399,1.2359-1.7399,1.2359.618,1.2359,1.7399-.504,1.7399-1.2359,1.7399m0,.396c.972,0,1.67979-.79791,1.67979-2.13591s-.70779-2.13591-1.67979-2.13591-1.6739.798-1.6739,2.13591S198.02271,173.34711,198.99471,173.34711Zm-3.966-2.514h-.54l.144-1.338h1.91989v-.3838h-2.2977l-.216,2.1059h.894c1.06779,0,1.40369.33591,1.40369.8759,0,.5099-.37779.858-1.09189.858a1.82142,1.82142,0,0,1-1.29-.48579l-.20979.3418a2.16815,2.16815,0,0,0,1.5058.54c1.02609,0,1.5239-.5578,1.5239-1.27191C196.7746,171.3311,196.29469,170.8331,195.0287,170.8331Zm-2.0457,1.8541a.31414.31414,0,0,0-.3181.324.30323.30323,0,0,0,.216.30589l-.2041.8699h.288l.252-.828a.97556.97556,0,0,0,.0842-.34779A.314.314,0,0,0,192.983,172.68719Zm-2.28621-1.77589,1.188-1.49409v-.30591h-2.7v.3838h2.1481l-1.16389,1.45819v.318h.2999c.7798,0,1.1339.33,1.1339.834,0,.5218-.3838.84579-1.08.84579a1.84176,1.84176,0,0,1-1.302-.48579l-.21.3418a2.18447,2.18447,0,0,0,1.512.54c1.0139,0,1.52391-.54,1.52391-1.24181C192.04671,171.4332,191.5968,170.9592,190.69679,170.9113Z" transform="translate(-138.3205 -130.03461)" style="fill:#6e6e6e;fill-rule:evenodd"/><path d="M238.5649,266.9919c-.7319,0-1.2359-.6179-1.2359-1.7399s.504-1.7399,1.2359-1.7399,1.2359.618,1.2359,1.7399-.504,1.7399-1.2359,1.7399m0,.396c.972,0,1.67981-.7979,1.67981-2.13589s-.70781-2.13589-1.67981-2.13589-1.6738.798-1.6738,2.13589S237.5929,267.38789,238.5649,267.38789Zm-5.20779-4.23579V264.322h.426v-.7861h2.16l-1.728,3.816h.468l1.75809-3.89391v-.30589Zm-.7498,3.5759a.31406.31406,0,0,0-.318.324.30312.30312,0,0,0,.216.30589l-.2041.8699h.288l.252-.828a.97556.97556,0,0,0,.0842-.34779A.314.314,0,0,0,232.6073,266.728Zm-2.2861-1.77589,1.188-1.49411v-.30589h-2.7v.3838h2.1481l-1.16391,1.45819v.318h.29991c.77979,0,1.13379.33,1.13379.834,0,.52179-.38379.84579-1.08.84579a1.84145,1.84145,0,0,1-1.3019-.48579l-.2101.3418a2.18465,2.18465,0,0,0,1.512.54c1.014,0,1.524-.54,1.524-1.24179C231.6711,265.474,231.22121,265,230.3212,264.9521Zm-4.2778,2.0157,1.4281-1.4037a1.72917,1.72917,0,0,0,.69-1.3141c0-.7019-.54-1.1339-1.39211-1.1339a1.88727,1.88727,0,0,0-1.4879.59979l.3058.26421a1.4265,1.4265,0,0,1,1.1461-.468c.642,0,.9839.2999.9839.7861,0,.2877-.0899.5697-.5638,1.0377l-1.7462,1.71019v.3058h2.94609v-.38409Z" transform="translate(-138.3205 -130.03461)" style="fill:#6e6e6e;fill-rule:evenodd"/><path d="M171.4229,268.992c-.7319,0-1.2359-.6179-1.2359-1.7399s.504-1.7399,1.2359-1.7399,1.2359.618,1.2359,1.7399-.504,1.7399-1.2359,1.7399m0,.396c.972,0,1.67981-.7979,1.67981-2.13589s-.70781-2.13591-1.67981-2.13591-1.6738.798-1.6738,2.13591S170.4509,269.388,171.4229,269.388Zm-3.97189-.396c-.7319,0-1.2359-.6179-1.2359-1.7399s.504-1.7399,1.2359-1.7399,1.2359.618,1.2359,1.7399S168.18291,268.992,167.451,268.992Zm0,.396c.972,0,1.67979-.7979,1.67979-2.13589s-.70779-2.13591-1.67979-2.13591-1.6738.798-1.6738,2.13591S166.479,269.388,167.451,269.388Zm-2.5497-.6599a.31413.31413,0,0,0-.3181.324.30324.30324,0,0,0,.216.30591l-.2041.87h.288l.252-.828a.97637.97637,0,0,0,.0842-.3479A.314.314,0,0,0,164.90131,268.7281Zm-.84621-.864h-.8399v-.972h-.4198v.972h-1.8241l2.1481-2.7119h-.48019l-2.2258,2.78389v.3119h2.3698v1.104h.432v-1.104h.8399Z" transform="translate(-138.3205 -130.03461)" style="fill:#6e6e6e;fill-rule:evenodd"/><path d="M286.34341,271.992c-.7319,0-1.2359-.618-1.2359-1.74s.504-1.7399,1.2359-1.7399,1.2359.618,1.2359,1.7399-.504,1.74-1.2359,1.74m0,.396c.972,0,1.67978-.798,1.67978-2.136s-.70779-2.13589-1.67978-2.13589-1.67383.798-1.67383,2.13589S285.3714,272.388,286.34341,272.388Zm-4.5-.4201,1.4281-1.40379a1.72891,1.72891,0,0,0,.69-1.3141c0-.7019-.54-1.1339-1.39209-1.1339a1.8869,1.8869,0,0,0-1.48788.5999l.30579.2641a1.42646,1.42646,0,0,1,1.14609-.468c.642,0,.98392.2999.98392.7861,0,.2877-.0899.56979-.56381,1.0378l-1.74619,1.7101v.30591h2.94611v-.38411Zm-1.55991-.2399a.314.314,0,0,0-.318.324.303.303,0,0,0,.216.30589l-.2041.87h.288l.252-.828a.97618.97618,0,0,0,.0842-.3479A.314.314,0,0,0,280.28351,271.728Zm-3.24.2399,1.4281-1.40379a1.72886,1.72886,0,0,0,.69-1.3141c0-.7019-.54-1.1339-1.39209-1.1339a1.887,1.887,0,0,0-1.48791.5999l.30582.2641a1.42646,1.42646,0,0,1,1.14609-.468c.642,0,.98392.2999.98392.7861,0,.2877-.0899.56979-.56381,1.0378l-1.74619,1.7101v.30591h2.94608v-.38411Z" transform="translate(-138.3205 -130.03461)" style="fill:#6e6e6e;fill-rule:evenodd"/><path d="M143.03,222.7184a3.90785,3.90785,0,1,1-3.9079,3.90759,3.9081,3.9081,0,0,1,3.9079-3.90759" transform="translate(-138.3205 -130.03461)" style="fill:#558e42;fill-rule:evenodd"/><polygon points="7.113 96.591 5.799 96.213 4.484 95.835 4.484 96.591 4.484 97.348 5.799 96.97 7.113 96.591" style="fill:#fdfdfd;fill-rule:evenodd"/><rect x="2.3054" y="96.41249" width="2.2813" height="0.38409" style="fill:#fdfdfd"/><rect x="46.2059" y="117.9865" width="1.0777" height="47.14099" style="fill:#003915"/><path d="M227.5464,287.087l.8331-.81891a1.00773,1.00773,0,0,0,.4025-.76649c0-.40961-.3149-.66161-.8121-.66161a1.101,1.101,0,0,0-.868.3501l.1786.1539a.832.832,0,0,1,.6684-.273c.3744,0,.574.1749.574.4584,0,.16809-.0524.33249-.3288.6055l-1.01851.9975v.1785h1.7184V287.087Zm-1.645-1.22141h-.3149l.08389-.7807h1.12V284.861h-1.3405l-.1259,1.2285h.5213c.623,0,.8192.19591.8192.51111,0,.2973-.2205.50031-.63721.50031a1.06125,1.06125,0,0,1-.7523-.28351l-.1225.1996a1.26446,1.26446,0,0,0,.87851.3149c.59839,0,.8889-.32539.8889-.74179C226.91991,286.15579,226.6398,285.8656,225.9014,285.8656Zm-1.1937,1.08141a.18312.18312,0,0,0-.1853.189.1766.1766,0,0,0,.12579.1783l-.119.50771h.16809l.14711-.483a.57566.57566,0,0,0,.049-.203A.18318.18318,0,0,0,224.7077,286.947Zm-1.3334-1.0361.69279-.8714V284.861H222.4922v.22391h1.2529l-.67891.85069v.18541h.17491c.4552,0,.66159.1924.66159.4864,0,.3044-.22389.4935-.62979.4935a1.07419,1.07419,0,0,1-.7597-.28351l-.1225.1996a1.27472,1.27472,0,0,0,.8822.3149c.59129,0,.8889-.3149.8889-.72449C224.1618,286.21539,223.89931,285.939,223.3743,285.9109Z" transform="translate(-138.3205 -130.03461)" style="fill:#434242"/><path d="M285.14182,285.8656h-.31491l.08389-.7807h1.12V284.861h-1.34048l-.12592,1.2285h.5213c.62311,0,.81921.19591.81921.51111,0,.2973-.22052.50031-.63721.50031a1.06135,1.06135,0,0,1-.75229-.28351l-.1225.1996a1.26438,1.26438,0,0,0,.87848.3149c.59842,0,.88892-.32539.88892-.74179,0-.43431-.28-.7245-1.01849-.7245m-2.05792-1.00461v.22391h.57739v2.226h.252V284.861Zm-.3569,2.086a.18314.18314,0,0,0-.18539.189.17656.17656,0,0,0,.12592.1783l-.11911.50771h.16809l.14709-.483a.57359.57359,0,0,0,.0491-.203A.18317.18317,0,0,0,282.727,286.947Zm-1.60638-2.086v.22391h.57739v2.226h.252V284.861Z" transform="translate(-138.3205 -130.03461)" style="fill:#434242"/><path d="M196.9503,195.1008c-.4269,0-.7211-.3606-.7211-1.0148,0-.6545.2942-1.01511.7211-1.01511s.7209.36061.7209,1.01511c0,.65421-.294,1.0148-.7209,1.0148m0,.231c.567,0,.98-.4655.98-1.2458,0-.7807-.413-1.24609-.98-1.24609s-.9765.46539-.9765,1.24609C195.9738,194.8663,196.38341,195.3318,196.9503,195.3318Zm-2.62511-.2449.8331-.81889a1.00793,1.00793,0,0,0,.40251-.76651c0-.40959-.31491-.66159-.8121-.66159a1.10127,1.10127,0,0,0-.868.35l.17859.154a.832.832,0,0,1,.66841-.273c.37439,0,.574.17491.574.45831,0,.16809-.0524.3326-.3288.6055l-1.01849.9975v.1786h1.7184v-.22391Zm-.91-.14a.18312.18312,0,0,0-.1853.189.17668.17668,0,0,0,.12579.1783l-.119.50771h.16811l.14709-.483a.57542.57542,0,0,0,.049-.203A.18318.18318,0,0,0,193.41521,194.9469Zm-1.60631-2.08611v.224h.57741v2.226h.252v-2.45Z" transform="translate(-138.3205 -130.03461)" style="fill:#434242"/><path d="M249.7601,142.85059c-.4269,0-.72121-.3606-.72121-1.0148,0-.65448.29431-1.01508.72121-1.01508s.72079.3606.72079,1.01508c0,.65421-.2939,1.0148-.72079,1.0148m0,.231c.56689,0,.9799-.46539.9799-1.24582,0-.7807-.413-1.24609-.9799-1.24609s-.97661.46539-.97661,1.24609C248.78349,142.61621,249.1931,143.0816,249.7601,143.0816Zm-2.6252-.2449.8331-.81891a1.00772,1.00772,0,0,0,.4025-.76648c0-.40961-.3149-.66162-.8121-.66162a1.101,1.101,0,0,0-.868.3501l.1786.1539a.83213.83213,0,0,1,.6684-.273c.3745,0,.574.1749.574.4584,0,.16809-.0524.33249-.32881.6055l-1.01849.9975v.1785h1.7184v-.22391Zm-.9099-.14a.18318.18318,0,0,0-.18541.18912.17657.17657,0,0,0,.12581.17819l-.119.50769h.16809l.14711-.483a.57339.57339,0,0,0,.049-.20291A.18321.18321,0,0,0,246.225,142.69669Zm-.4933-.504h-.49011v-.56689h-.24489v.56689h-1.0641l1.2529-1.582h-.2798l-1.29851,1.6239v.182h1.3824v.644h.252v-.644h.49011Z" transform="translate(-138.3205 -130.03461)" style="fill:#434242"/><path d="M201.886,208.10069c-.4269,0-.7211-.36049-.7211-1.01479,0-.65451.2942-1.015.7211-1.015s.7209.3605.7209,1.015c0,.6543-.294,1.01479-.7209,1.01479m0,.23111c.56689,0,.98-.4655.98-1.2459,0-.78061-.4131-1.24611-.98-1.24611s-.9765.4655-.9765,1.24611C200.9095,207.8663,201.31911,208.3318,201.886,208.3318Zm-1.20731-.889h-.4901v-.56689h-.2449v.56689h-1.0641l1.25291-1.582h-.2798l-1.29851,1.624v.182h1.3824v.644h.252v-.644h.4901Zm-2.58659.504a.18318.18318,0,0,0-.18541.1891.17676.17676,0,0,0,.1259.1783l-.11909.50771h.16811l.1472-.483a.57609.57609,0,0,0,.049-.203A.18322.18322,0,0,0,198.0921,207.94679Zm-2.1384-2.086v.6826h.2486v-.45869h1.26l-1.008,2.2261h.2729l1.0253-2.27141v-.1786Z" transform="translate(-138.3205 -130.03461)" style="fill:#434242"/><path d="M163.96471,254.85091c-.42691,0-.7211-.36061-.7211-1.01491,0-.6545.29419-1.015.7211-1.015s.72079.3605.72079,1.015c0,.6543-.2939,1.01491-.72079,1.01491m0,.231c.56689,0,.97989-.4655.97989-1.2459,0-.78059-.413-1.24609-.97989-1.24609s-.9765.4655-.9765,1.24609C162.98821,254.61639,163.3978,255.08189,163.96471,255.08189Zm-2.317-.231c-.42691,0-.72121-.36061-.72121-1.01491,0-.6545.2943-1.015.72121-1.015s.72079.3605.72079,1.015C162.3685,254.4903,162.0746,254.85091,161.64771,254.85091Zm0,.231c.56689,0,.97989-.4655.97989-1.2459,0-.78059-.413-1.24609-.97989-1.24609s-.97661.4655-.97661,1.24609C160.6711,254.61639,161.0807,255.08189,161.64771,255.08189Zm-1.4877-.385a.18318.18318,0,0,0-.18541.1891.17676.17676,0,0,0,.1259.1783l-.11909.50771h.16811l.1472-.483a.57617.57617,0,0,0,.049-.203A.18321.18321,0,0,0,160.16,254.6969Zm-1.89011.14011.8331-.819a1.00762,1.00762,0,0,0,.4025-.76651c0-.40959-.3149-.66159-.81209-.66159a1.10131,1.10131,0,0,0-.868.3501l.1786.1539a.83225.83225,0,0,1,.6684-.2729c.37451,0,.574.1749.574.4583,0,.16811-.0524.3325-.3288.6055l-1.01851.9975v.1786h1.7184V254.837Z" transform="translate(-138.3205 -130.03461)" style="fill:#434242"/><line x1="82.68831" y1="156.11639" x2="54.74951" y2="156.11639" style="fill:none;stroke:#b1b2b2;stroke-miterlimit:22.92558479309082;stroke-width:0.2160000056028366px"/><line x1="140.68829" y1="156.11639" x2="133.93982" y2="156.11639" style="fill:none;stroke:#b1b2b2;stroke-miterlimit:22.92558479309082;stroke-width:0.2160000056028366px"/><line x1="51.9384" y1="64.11629" x2="45.18991" y2="64.11629" style="fill:none;stroke:#b1b2b2;stroke-miterlimit:22.92558479309082;stroke-width:0.2160000056028366px"/><line x1="104.18831" y1="11.86609" x2="72.49921" y2="11.86609" style="fill:none;stroke:#b1b2b2;stroke-miterlimit:22.92558479309082;stroke-width:0.2160000056028366px"/><line x1="56.4384" y1="77.11629" x2="6.4256" y2="77.11629" style="fill:none;stroke:#b1b2b2;stroke-miterlimit:22.92558479309082;stroke-width:0.2160000056028366px"/><line x1="18.4382" y1="123.86639" x2="6.94321" y2="123.86639" style="fill:none;stroke:#b1b2b2;stroke-miterlimit:22.92558479309082;stroke-width:0.2160000056028366px"/><line x1="123.3746" y1="156.11639" x2="92.12741" y2="156.11639" style="fill:none;stroke:#b1b2b2;stroke-miterlimit:22.92558479309082;stroke-width:0.2160000056028366px"/><line x1="156.87579" y1="156.11639" x2="150.12741" y2="156.11639" style="fill:none;stroke:#b1b2b2;stroke-miterlimit:22.92558479309082;stroke-width:0.2160000056028366px"/><line x1="68.1259" y1="64.11629" x2="61.3775" y2="64.11629" style="fill:none;stroke:#b1b2b2;stroke-miterlimit:22.92558479309082;stroke-width:0.2160000056028366px"/><line x1="153.87421" y1="11.86609" x2="113.6273" y2="11.86609" style="fill:none;stroke:#b1b2b2;stroke-miterlimit:22.92558479309082;stroke-width:0.2160000056028366px"/><line x1="154.12482" y1="77.11629" x2="65.8775" y2="77.11629" style="fill:none;stroke:#b1b2b2;stroke-miterlimit:22.92558479309082;stroke-width:0.2160000056028366px"/><line x1="45.75711" y1="123.86639" x2="27.8773" y2="123.86639" style="fill:none;stroke:#b1b2b2;stroke-miterlimit:22.92558479309082;stroke-width:0.2160000056028366px"/><path d="M293.20071,269.301l-.81891-.8331a1.00773,1.00773,0,0,0-.76651-.4025c-.40961,0-.66159.3149-.66159.8121a1.101,1.101,0,0,0,.3501.868l.1539-.1786a.832.832,0,0,1-.273-.6684c0-.3745.1749-.574.4584-.574.16809,0,.33249.0524.6055.32881l.9975,1.01849h.17862v-1.7184h-.224Zm.01389,1.65891c0,.4269-.3606.7211-1.0148.7211-.65451,0-1.01511-.2942-1.01511-.7211s.3606-.7209,1.01511-.7209C292.854,270.239,293.2146,270.533,293.2146,270.9599Zm.231,0c0-.567-.46539-.98-1.24579-.98-.7807,0-1.24609.413-1.24609.98s.46539.9765,1.24609.9765C292.98019,271.9364,293.44559,271.52679,293.44559,270.9599Zm-.38489,1.48759a.18318.18318,0,0,0,.18909.18541.17678.17678,0,0,0,.17831-.1259l.5076.11909V272.458l-.483-.14709a.5739.5739,0,0,0-.20291-.0491A.1832.1832,0,0,0,293.0607,272.44749Zm.14,1.89011-.81891-.8331a1.00773,1.00773,0,0,0-.76651-.4025c-.40961,0-.66159.3149-.66159.81209a1.101,1.101,0,0,0,.3501.868l.1539-.1786a.832.832,0,0,1-.273-.6684c0-.37451.1749-.574.4584-.574.16809,0,.33249.0524.6055.3288l.9975,1.01851h.17862V272.99h-.224Z" transform="translate(-138.3205 -130.03461)" style="fill:#434242"/><path d="M288.9646,220.311c0,.4269-.3605.7211-1.0148.7211-.65451,0-1.01511-.2942-1.01511-.7211s.3606-.7209,1.01511-.7209c.6543,0,1.0148.294,1.0148.7209m.23111,0c0-.567-.46552-.98-1.24591-.98-.78061,0-1.24609.413-1.24609.98s.46548.9765,1.24609.9765C288.73019,221.28751,289.19571,220.8779,289.19571,220.311Zm-.23111,2.317c0,.4269-.3605.72119-1.0148.72119-.65451,0-1.01511-.2943-1.01511-.72119s.3606-.72081,1.01511-.72081C288.6041,221.9072,288.9646,222.2011,288.9646,222.628Zm.23111,0c0-.56691-.46552-.9799-1.24591-.9799-.78061,0-1.24609.413-1.24609.9799s.46548.97659,1.24609.97659C288.73019,223.6046,289.19571,223.1949,289.19571,222.628Zm-.385,1.48759a.18316.18316,0,0,0,.18909.18539.1767.1767,0,0,0,.17831-.12579l.50769.119v-.16811l-.48309-.14709a.57258.57258,0,0,0-.20291-.049A.18318.18318,0,0,0,288.8107,224.1156Zm.14,1.8902-.81891-.8331a1.00773,1.00773,0,0,0-.76651-.4025c-.40961,0-.66159.3149-.66159.8121a1.10145,1.10145,0,0,0,.3501.868l.1539-.1786a.83215.83215,0,0,1-.273-.6684c0-.3745.1749-.5741.4584-.5741.16809,0,.33249.05249.6055.32889l.9975,1.01851h.17862v-1.7184h-.224Z" transform="translate(-138.3205 -130.03461)" style="fill:#434242"/><path d="M286.7247,166.16409h.68259v-.2486h-.45868v-1.26l2.2261,1.008v-.27292l-2.27142-1.0253h-.17859Zm0,1.3439h.22391v-.57739h2.2261v-.252h-2.45Zm2.086.3569a.18317.18317,0,0,0,.18909.18539.1767.1767,0,0,0,.17831-.12579l.50769.119v-.16809l-.48309-.14709a.57258.57258,0,0,0-.20291-.049A.18319.18319,0,0,0,288.8107,167.8649Zm-1.0361,1.3334-.87131-.69272h-.17859v1.57492h.22391v-1.2529l.85068.67889h.18542v-.1749c0-.45529.19247-.66159.48639-.66159.3045,0,.4935.22388.4935.62979a1.07429,1.07429,0,0,1-.28339.75969l.19949.12251a1.27477,1.27477,0,0,0,.315-.8822c0-.59131-.315-.88892-.72461-.88892C288.0791,168.41089,287.8027,168.6734,287.7746,169.1983Z" transform="translate(-138.3205 -130.03461)" style="fill:#434242"/><path d="M151.4509,223.42509l-.819-.8331a1.00758,1.00758,0,0,0-.76649-.4025c-.40961,0-.66161.3149-.66161.8121a1.10135,1.10135,0,0,0,.3501.868l.1539-.1786a.83228.83228,0,0,1-.27289-.6684c0-.3745.1749-.574.4583-.574.16809,0,.33249.0524.6055.32881l.9975,1.01849h.1786v-1.7184h-.22391Zm0,1.988-.819-.8331a1.00777,1.00777,0,0,0-.76649-.4026c-.40961,0-.66161.315-.66161.81219a1.10113,1.10113,0,0,0,.3501.8679l.1539-.1786a.83228.83228,0,0,1-.27289-.6684c0-.3744.1749-.574.4583-.574.16809,0,.33249.05251.6055.32881l.9975,1.01849h.1786v-1.71829h-.22391Zm-.14009.9099a.18315.18315,0,0,0,.18909.18539.17678.17678,0,0,0,.17831-.1259l.50769.11911v-.16811l-.483-.1472a.57609.57609,0,0,0-.203-.049A.1832.1832,0,0,0,151.31081,226.323Zm.14009,1.89011-.819-.8331a1.00761,1.00761,0,0,0-.76649-.40251c-.40961,0-.66161.31491-.66161.8121a1.10133,1.10133,0,0,0,.3501.868l.1539-.17859a.83232.83232,0,0,1-.27289-.66841c0-.3745.1749-.574.4583-.574.16809,0,.33249.0524.6055.3288l.9975,1.01849h.1786v-1.7184h-.22391Z" transform="translate(-138.3205 -130.03461)" style="fill:#434242"/><path d="M180.4776,268.9036c0,.3779-.2063.616-.52831.616a.53631.53631,0,0,1-.53209-.59869c0-.42349.25569-.6474.525-.6474a.56705.56705,0,0,1,.5354.6301m-1.2739.0278a.76323.76323,0,0,0,.75259.8365.7416.7416,0,0,0,.7348-.826.78252.78252,0,0,0-.4198-.7489c.07339-.0071.1434-.0105.19949-.0105.665,0,1.0043.3396,1.0043.8679a.85939.85939,0,0,1-.1153.476l.2029.1015a1.12431,1.12431,0,0,0,.133-.5809c0-.665-.434-1.1199-1.26709-1.1199C179.6553,267.92709,179.2037,268.28059,179.2037,268.9314Zm2.261,2.10361c0,.4269-.36061.7211-1.0148.7211-.6546,0-1.01511-.2942-1.01511-.7211s.3605-.7209,1.01511-.7209C181.1041,270.3141,181.46471,270.60809,181.46471,271.035Zm.231,0c0-.567-.4655-.98-1.24579-.98-.7807,0-1.2462.413-1.2462.98s.4655.9765,1.2462.9765C181.23019,272.01151,181.69569,271.6019,181.69569,271.035Zm-.385,1.48759a.18317.18317,0,0,0,.1891.18539.17675.17675,0,0,0,.1783-.1259l.50771.11911v-.16811l-.483-.14709a.57443.57443,0,0,0-.203-.0491A.18322.18322,0,0,0,181.3107,272.5226Zm.14011,1.89011-.819-.8331a1.00763,1.00763,0,0,0-.7664-.40251c-.4097,0-.6617.31491-.6617.8121a1.10128,1.10128,0,0,0,.3501.868l.1539-.17859a.83228.83228,0,0,1-.2729-.66841c0-.37439.1749-.574.4583-.574.16811,0,.3325.0524.6055.3288l.9975,1.01849h.1786V273.0652h-.22389Z" transform="translate(-138.3205 -130.03461)" style="fill:#434242"/><line x1="153.94421" y1="145.9823" x2="153.94421" y2="160.3485" style="fill:none;stroke:#b1b2b2;stroke-miterlimit:22.92558479309082;stroke-width:0.2160000056028366px"/><line x1="149.69421" y1="97.4823" x2="149.69421" y2="112.74489" style="fill:none;stroke:#b1b2b2;stroke-miterlimit:22.92558479309082;stroke-width:0.2160000056028366px"/><line x1="149.69421" y1="41.86369" x2="149.69421" y2="67.29529" style="fill:none;stroke:#b1b2b2;stroke-miterlimit:22.92558479309082;stroke-width:0.2160000056028366px"/><line x1="12.1944" y1="99.98219" x2="12.1944" y2="116.9473" style="fill:none;stroke:#b1b2b2;stroke-miterlimit:22.92558479309082;stroke-width:0.2160000056028366px"/><line x1="42.19431" y1="145.9823" x2="42.19431" y2="160.3485" style="fill:none;stroke:#b1b2b2;stroke-miterlimit:22.92558479309082;stroke-width:0.2160000056028366px"/><line x1="153.94421" y1="120.905" x2="153.94421" y2="136.5432" style="fill:none;stroke:#b1b2b2;stroke-miterlimit:22.92558479309082;stroke-width:0.2160000056028366px"/><line x1="149.69421" y1="73.6713" x2="149.69421" y2="88.0432" style="fill:none;stroke:#b1b2b2;stroke-miterlimit:22.92558479309082;stroke-width:0.2160000056028366px"/><line x1="149.69421" y1="7.79529" x2="149.69421" y2="32.42468" style="fill:none;stroke:#b1b2b2;stroke-miterlimit:22.92558479309082;stroke-width:0.2160000056028366px"/><line x1="12.1944" y1="72.79849" x2="12.1944" y2="90.54309" style="fill:none;stroke:#b1b2b2;stroke-miterlimit:22.92558479309082;stroke-width:0.2160000056028366px"/><line x1="42.19431" y1="119.5495" x2="42.19431" y2="136.5432" style="fill:none;stroke:#b1b2b2;stroke-miterlimit:22.92558479309082;stroke-width:0.2160000056028366px"/></svg>