<svg id="Слой_1" data-name="Слой 1" xmlns="http://www.w3.org/2000/svg" viewBox="0 0 162.77501 136.96071"><title>2.05.01</title><polygon points="162.775 0 162.775 68.047 160.056 68.047 160.056 136.961 0 136.961 0 0 162.775 0" style="fill:#fff;fill-rule:evenodd"/><path d="M168.3244,186.8732a.374.374,0,1,1,.37469-.6474l13.9201,8.0399a.374.374,0,1,1-.37469.6474Z" transform="translate(-138.4716 -144.11829)" style="fill:#003915"/><path d="M216.123,194.2345a.374.374,0,0,1,.64749.37469l-8.03989,13.9201a.37405.37405,0,0,1-.64751-.37469Z" transform="translate(-138.4716 -144.11829)" style="fill:#003915"/><path d="M267.16309,219.7937a.374.374,0,1,1,.6474.37469L259.7706,234.0885a.374.374,0,0,1-.6474-.37469Z" transform="translate(-138.4716 -144.11829)" style="fill:#003915"/><rect x="68.0108" y="2.48541" width="2.60219" height="43.9931" style="fill:#003915"/><rect x="64.9545" y="2.48541" width="2.6022" height="38.10071" style="fill:#003915"/><rect x="68.0108" y="63.78061" width="2.60219" height="4.464" style="fill:#003915"/><rect y="119.62711" width="2.4511" height="17.3336" style="fill:#003915"/><rect x="70.47859" y="65.64241" width="86.88989" height="2.6022" style="fill:#003915"/><rect x="46.1667" y="39.48091" width="23.7558" height="2.6022" style="fill:#003915"/><rect x="5.2347" y="39.48091" width="25.2794" height="2.6022" style="fill:#003915"/><rect x="5.32829" y="70.19292" width="41.0627" height="2.6022" style="fill:#003915"/><rect y="131.95871" width="161.36809" height="5.002" style="fill:#003915"/><rect width="161.36809" height="4.96033" style="fill:#003915"/><rect width="6.27449" height="42.08311" style="fill:#003915"/><rect y="62.26242" width="6.27449" height="74.58719" style="fill:#003915"/><rect x="154.61488" y="49.78741" width="8.16013" height="23.4592" style="fill:#003915"/><rect x="154.61488" width="8.16013" height="19.9252" style="fill:#003915"/><rect x="127.52669" y="65.64241" width="35.24832" height="8.16011" style="fill:#003915"/><rect x="127.52669" y="128.93721" width="35.24832" height="8.0235" style="fill:#003915"/><rect x="124.68611" y="105.75722" width="8.1601" height="27.44389" style="fill:#003915"/><rect x="124.68611" y="65.64241" width="8.1601" height="9.99611" style="fill:#003915"/><rect x="157.61589" y="35.32532" width="2.29861" height="0.50169" style="fill:#003915"/><rect x="157.61589" y="34.12711" width="2.29861" height="0.50121" style="fill:#003915"/><rect x="157.61589" y="21.48972" width="2.29861" height="0.5014" style="fill:#003915"/><rect x="157.61589" y="20.2915" width="2.29861" height="0.5011" style="fill:#003915"/><rect x="157.61589" y="49.43701" width="2.29861" height="0.5018" style="fill:#003915"/><rect x="157.61589" y="48.23912" width="2.29861" height="0.50119" style="fill:#003915"/><rect x="154.614" y="18.23471" width="0.5015" height="34.0937" style="fill:#003915"/><rect x="157.4612" y="18.23471" width="0.5014" height="34.0937" style="fill:#003915"/><rect x="159.63249" y="18.23471" width="0.5014" height="34.0937" style="fill:#003915"/><rect x="162.27348" y="18.23471" width="0.50153" height="34.0937" style="fill:#003915"/><path d="M267.9693,238.83791h-1.66989v-.697h1.66989Zm0,13.5692h-1.66989V239.3394h1.66989Zm0,1.1982h-1.66989v-.697h1.66989Zm-1.66989.50169h1.66989v5.78951h.5014V238.1409h2.3457v21.7556h.5014V237.63969h-8.16092V259.8965h.5014V238.1409h2.13962v18.0519h.5015Z" transform="translate(-138.4716 -144.11829)" style="fill:#003915;fill-rule:evenodd"/><rect x="157.52919" y="109.19992" width="1.29712" height="0.44699" style="fill:#003915"/><rect x="157.52919" y="108.13202" width="1.29712" height="0.44679" style="fill:#003915"/><rect x="157.52919" y="90.59781" width="1.29712" height="0.44701" style="fill:#003915"/><rect x="157.52919" y="89.53001" width="1.29712" height="0.4467" style="fill:#003915"/><rect x="157.52919" y="71.99541" width="1.29712" height="0.44701" style="fill:#003915"/><rect x="157.52919" y="70.92761" width="1.29712" height="0.4467" style="fill:#003915"/><rect x="157.52919" y="127.80222" width="1.29712" height="0.44699" style="fill:#003915"/><rect x="157.52919" y="126.73442" width="1.29712" height="0.44679" style="fill:#003915"/><rect x="159.60899" y="68.86092" width="0.44672" height="60.8213" style="fill:#003915"/><rect x="158.51759" y="68.86092" width="0.44681" height="60.8213" style="fill:#003915"/><rect x="157.43678" y="68.86092" width="0.44672" height="60.8213" style="fill:#003915"/><path d="M175.9893,149.2175h9.8223a.90527.90527,0,0,1,.9054.904v4.6102a4.59569,4.59569,0,0,1-4.5896,4.591h-2.4523a4.59566,4.59566,0,0,1-4.59039-4.591v-4.6102a.90478.90478,0,0,1,.9046-.904m6.13809,9.8606a4.351,4.351,0,0,0,4.34491-4.34641v-4.6102a.66136.66136,0,0,0-.66071-.65988h-9.8223a.66067.66067,0,0,0-.6599.65988v4.6102a4.35132,4.35132,0,0,0,4.34569,4.34641Z" transform="translate(-138.4716 -144.11829)" style="fill:#003915"/><path d="M182.12711,157.98788a3.25878,3.25878,0,0,0,3.2545-3.2562v-2.68808a.56792.56792,0,0,0-.5672-.5675H181.239v-.24521h3.57541a.81405.81405,0,0,1,.81239.81271v2.68808a3.50408,3.50408,0,0,1-3.49969,3.50082H179.6749a3.5047,3.5047,0,0,1-3.50079-3.50082v-2.68808a.81447.81447,0,0,1,.81349-.81271H180.563v.24521h-3.57541a.56828.56828,0,0,0-.5683.5675v2.68808a3.25934,3.25934,0,0,0,3.2556,3.2562Z" transform="translate(-138.4716 -144.11829)" style="fill:#003915"/><path d="M180.9003,154.38419a.78351.78351,0,1,1-.7838.78351.78482.78482,0,0,1,.7838-.78351m0,1.32242a.53876.53876,0,1,0-.5392-.53891A.53971.53971,0,0,0,180.9003,155.7066Z" transform="translate(-138.4716 -144.11829)" style="fill:#003915"/><rect x="42.3062" y="10.49072" width="0.2449" height="1.11658" style="fill:#003915"/><rect x="41.87109" y="10.92642" width="1.116" height="0.24548" style="fill:#003915"/><path d="M180.563,150.39981h-.4037a.1737.1737,0,0,0-.1729.1741v.37927a.17362.17362,0,0,0,.1729.174h.4037v.2449h-.4037a.41867.41867,0,0,1-.41811-.41891v-.37927a.41861.41861,0,0,1,.41811-.4187h.40559l-.00189.03738Zm1.0771.72739a.17445.17445,0,0,0,.17409-.174v-.37927a.17453.17453,0,0,0-.17409-.1741H181.239v-.20721l-.0022-.03738h.40331a.41862.41862,0,0,1,.4187.4187v.37927a.41868.41868,0,0,1-.4187.41891H181.239v-.2449Z" transform="translate(-138.4716 -144.11829)" style="fill:#003915"/><path d="M180.9003,149.7323a.461.461,0,0,1,.4612.4603V153.273a.4605.4605,0,0,1-.921,0V150.1926a.46046.46046,0,0,1,.45979-.4603m0,3.75671a.21675.21675,0,0,0,.21629-.216V150.1926a.2156.2156,0,0,0-.4312,0V153.273A.21609.21609,0,0,0,180.9003,153.489Z" transform="translate(-138.4716 -144.11829)" style="fill:#003915"/><path d="M161.388,163.21671a3.9169,3.9169,0,0,1-3.9115-3.913V153.6384a.67724.67724,0,0,1,.4561-.63919,1.24941,1.24941,0,0,1-.2036-.2049.94553.94553,0,0,0-.5215.84409v5.66531a4.1808,4.1808,0,1,0,8.3616,0V153.6384a.94543.94543,0,0,0-.521-.8436,1.237,1.237,0,0,1-.2032.20471.67635.67635,0,0,1,.45551.63889v5.66531a3.91715,3.91715,0,0,1-3.9124,3.913" transform="translate(-138.4716 -144.11829)" style="fill:#003915"/><path d="M164.1917,154.7193h-5.6089a.2039.2039,0,0,0-.20119.20151v4.27069a3.00655,3.00655,0,1,0,6.01309,0v-4.27069a.20467.20467,0,0,0-.203-.20151m-5.5414.2681h5.476v4.2041a2.738,2.738,0,0,1-5.476,0Z" transform="translate(-138.4716 -144.11829)" style="fill:#003915"/><path d="M161.3877,157.4502a1.0081,1.0081,0,1,0,1.00891,1.008,1.01,1.01,0,0,0-1.00891-1.008m0,1.7475a.7394.7394,0,1,1,.7399-.7395A.74037.74037,0,0,1,161.3877,159.19769Z" transform="translate(-138.4716 -144.11829)" style="fill:#003915"/><rect x="159.63206" y="155.25289" width="0.26854" height="2.24223" transform="translate(-200.269 -17.53731) rotate(-36.72676)" style="fill:#003915"/><rect x="161.84407" y="156.23963" width="2.24311" height="0.26913" transform="translate(-198.34649 49.0362) rotate(-53.18983)" style="fill:#003915"/><path d="M164.08859,149.2175H158.688a1.355,1.355,0,0,0-1.3524,1.35379v1.4743a1.35345,1.35345,0,0,0,1.3524,1.35242h5.40059a1.35313,1.35313,0,0,0,1.35181-1.35242v-1.4743a1.3547,1.3547,0,0,0-1.35181-1.35379m-5.40059,3.91211a1.08552,1.08552,0,0,1-1.0843-1.084v-1.4743a1.08593,1.08593,0,0,1,1.0843-1.08508h5.40059a1.086,1.086,0,0,1,1.08371,1.08508v1.4743a1.08559,1.08559,0,0,1-1.08371,1.084Z" transform="translate(-138.4716 -144.11829)" style="fill:#003915"/><path d="M161.3877,150.61981a.6881.6881,0,1,0,.68831.68738.68808.68808,0,0,0-.68831-.68738m0,1.10718a.41925.41925,0,1,1,.41951-.4198A.41934.41934,0,0,1,161.3877,151.727Z" transform="translate(-138.4716 -144.11829)" style="fill:#003915"/><path d="M145.3791,175.22369h0v7.83951H156.727v-7.83951Zm-.33081,8.17081V174.892h12.00981v8.5025Z" transform="translate(-138.4716 -144.11829)" style="fill:#003915"/><path d="M147.7735,174.99921a.60441.60441,0,0,1,.5936-.61261h5.37221a.60405.60405,0,0,1,.5938.61261h-.3308a.26961.26961,0,0,0-.263-.28091H148.3671a.26946.26946,0,0,0-.2628.28091Z" transform="translate(-138.4716 -144.11829)" style="fill:#003915"/><path d="M150.0313,177.62579h0v2.70761l1.59731.6216a2.47432,2.47432,0,0,0-.0918-1.6747,4.1514,4.1514,0,0,1-.2413-1.24071,2.44969,2.44969,0,0,1,.1882-.9366Zm-.3308,2.93411V177.393l2.48-.892-.22479.39061a2.26645,2.26645,0,0,0-.32941,1.148,3.8903,3.8903,0,0,0,.22681,1.1438,3.89724,3.89724,0,0,1,.2282,1.1441,2.01728,2.01728,0,0,1-.218.9124l-.06749.1358Z" transform="translate(-138.4716 -144.11829)" style="fill:#003915"/><path d="M188.6006,151.36871v30.085a2.16108,2.16108,0,0,0,2.1657,2.15149h10.4113a2.161,2.161,0,0,0,2.166-2.15149v-30.085a2.16084,2.16084,0,0,0-2.166-2.15121H190.7663a2.161,2.161,0,0,0-2.1657,2.15121m14.51309,30.085a1.93108,1.93108,0,0,1-1.9361,1.9218H190.7663a1.931,1.931,0,0,1-1.9355-1.9218v-30.085a1.93143,1.93143,0,0,1,1.9355-1.92221h10.4113a1.93156,1.93156,0,0,1,1.9361,1.92221Z" transform="translate(-138.4716 -144.11829)" style="fill:#003915"/><path d="M201.8517,178.4679a2.577,2.577,0,0,1-2.58209,2.5654h-6.5948a2.57667,2.57667,0,0,1-2.5818-2.5654V154.35471a2.5771,2.5771,0,0,1,2.5818-2.56592h2.062a.39618.39618,0,0,1-.14211-.22818H192.6748a2.80638,2.80638,0,0,0-2.8125,2.7941V178.4679a2.80663,2.80663,0,0,0,2.8125,2.7944h6.5948a2.80658,2.80658,0,0,0,2.81229-2.7944V154.35471a2.80633,2.80633,0,0,0-2.81229-2.7941H197.3494a.39508.39508,0,0,1-.1414.22818h2.06161a2.57748,2.57748,0,0,1,2.58209,2.56592Z" transform="translate(-138.4716 -144.11829)" style="fill:#003915"/><path d="M200.53841,176.9205a1.26659,1.26659,0,0,1-1.2688,1.26109h-6.5948a1.26627,1.26627,0,0,1-1.2682-1.26109v-22.5658a1.26621,1.26621,0,0,1,1.2682-1.26141h2.84489v-.2287H192.6748a1.49617,1.49617,0,0,0-1.4989,1.49011v22.5658a1.49562,1.49562,0,0,0,1.4989,1.4893h6.5948a1.49526,1.49526,0,0,0,1.499-1.4893v-22.5658a1.49581,1.49581,0,0,0-1.499-1.49011H196.4245v.2287h2.84511a1.26653,1.26653,0,0,1,1.2688,1.26141Z" transform="translate(-138.4716 -144.11829)" style="fill:#003915"/><path d="M195.2393,156.25989a.73335.73335,0,1,0,.7336-.72989.73152.73152,0,0,0-.7336.72989m1.2365,0a.50331.50331,0,1,1-.5029-.50027A.50193.50193,0,0,1,196.4758,156.25989Z" transform="translate(-138.4716 -144.11829)" style="fill:#003915"/><rect x="56.9781" y="12.02652" width="1.0457" height="0.22928" style="fill:#003915"/><rect x="57.386" y="11.62231" width="0.2307" height="1.03769" style="fill:#003915"/><path d="M195.5197,151.75989h-.53751a.27983.27983,0,0,1-.28029-.27869v-.5051a.28033.28033,0,0,1,.28029-.27921h.53751v-.22879h-.53751a.51042.51042,0,0,0-.51109.508v.5051a.5097.5097,0,0,0,.51109.50739h.53751Zm1.722-.27869a.27977.27977,0,0,1-.28.27869h-.5372v.2287h.5372a.50926.50926,0,0,0,.5108-.50739v-.5051a.51.51,0,0,0-.5108-.508h-.5372v.22879h.5372a.28027.28027,0,0,1,.28.27921Z" transform="translate(-138.4716 -144.11829)" style="fill:#003915"/><path d="M195.4043,150.47009v3.2012a.56766.56766,0,0,0,1.1353,0v-3.2012a.56766.56766,0,0,0-1.1353,0m.90511,3.2012a.33715.33715,0,0,1-.6743,0v-3.2012a.33716.33716,0,0,1,.6743,0Z" transform="translate(-138.4716 -144.11829)" style="fill:#003915"/><path d="M145.0349,230.53751v11.7692H156.8038v-11.7692Zm.2495,11.5197V230.7867H156.5549v11.27051Z" transform="translate(-138.4716 -144.11829)" style="fill:#003915"/><path d="M155.7057,236.422a3.91958,3.91958,0,0,1-7.7142.9816.30006.30006,0,0,1-.1976.07431h-.0405a4.16842,4.16842,0,1,0-.00031-2.1116h.0408a.29847.29847,0,0,1,.1973.074,3.91975,3.91975,0,0,1,7.71451.9817" transform="translate(-138.4716 -144.11829)" style="fill:#003915"/><path d="M148.305,236.422a3.48151,3.48151,0,1,0,3.48181-3.48129A3.48572,3.48572,0,0,0,148.305,236.422m6.71361,0a3.23195,3.23195,0,1,1-3.2318-3.2318A3.23555,3.23555,0,0,1,155.0186,236.422Z" transform="translate(-138.4716 -144.11829)" style="fill:#003915"/><path d="M150.8842,236.422a.9023.9023,0,1,0,.9026-.9026.90334.90334,0,0,0-.9026.9026m1.55569,0a.65295.65295,0,1,1-.65309-.65309A.65424.65424,0,0,1,152.4399,236.422Z" transform="translate(-138.4716 -144.11829)" style="fill:#003915"/><rect x="12.65779" y="92.17891" width="1.3139" height="0.2495" style="fill:#003915"/><rect x="13.1899" y="91.64691" width="0.24969" height="1.3136" style="fill:#003915"/><path d="M146.9801,235.6682v1.50751a.427.427,0,0,0,.42659.42659h.38721a.42686.42686,0,0,0,.42661-.42659V235.6682a.42693.42693,0,0,0-.42661-.42661h-.38721a.42706.42706,0,0,0-.42659.42661m.991,1.50751a.17773.17773,0,0,1-.1772.17749h-.38721a.17753.17753,0,0,1-.17719-.17749V235.6682a.17719.17719,0,0,1,.17719-.17709h.38721a.17739.17739,0,0,1,.1772.17709Z" transform="translate(-138.4716 -144.11829)" style="fill:#003915"/><path d="M147.1048,236.64191h-.0865a.21965.21965,0,1,1,0-.4393h.0865v-.2498h-.0865a.46945.46945,0,0,0,0,.93889h.0865Zm2.59-.21991a.22041.22041,0,0,1-.22049.21991h-1.37851v.24979h1.37851a.46944.46944,0,1,0,0-.93889h-1.37851v.2498h1.37851A.21991.21991,0,0,1,149.69479,236.422Z" transform="translate(-138.4716 -144.11829)" style="fill:#003915"/><path d="M145.5163,259.2023v-7.1566a1.49607,1.49607,0,0,1,1.49471-1.4942h8.29869a1.496,1.496,0,0,1,1.49411,1.4942v7.1566a1.49569,1.49569,0,0,1-1.49411,1.4942H147.011a1.49576,1.49576,0,0,1-1.49471-1.4942m11.0545-7.1566a1.26255,1.26255,0,0,0-1.26111-1.26109H147.011a1.26267,1.26267,0,0,0-1.2617,1.26109v7.1566a1.26307,1.26307,0,0,0,1.2617,1.2617h8.29869a1.26294,1.26294,0,0,0,1.26111-1.2617Z" transform="translate(-138.4716 -144.11829)" style="fill:#003915"/><path d="M146.33521,259.2023v-7.1566a.67615.67615,0,0,1,.6758-.6758h7.0106a.67636.67636,0,0,1,.6758.6758v7.1566a.67655.67655,0,0,1-.6758.67639H147.011a.67635.67635,0,0,1-.6758-.67639m8.1292-7.1566a.44331.44331,0,0,0-.44279-.4431H147.011a.44351.44351,0,0,0-.4431.4431v7.1566a.44386.44386,0,0,0,.4431.44389h7.0106a.44367.44367,0,0,0,.44279-.44389Z" transform="translate(-138.4716 -144.11829)" style="fill:#003915"/><path d="M155.1161,252.7458a.4742.4742,0,1,1,.4742.47429.47509.47509,0,0,1-.4742-.47429m.71539,0a.2412.2412,0,1,0-.2412.24159A.24191.24191,0,0,0,155.8315,252.7458Z" transform="translate(-138.4716 -144.11829)" style="fill:#003915"/><path d="M155.1161,254.3466a.4742.4742,0,1,1,.4742.47479.47506.47506,0,0,1-.4742-.47479m.71539,0a.2412.2412,0,1,0-.2412.24179A.24161.24161,0,0,0,155.8315,254.3466Z" transform="translate(-138.4716 -144.11829)" style="fill:#003915"/><rect x="10.006" y="108.18082" width="0.2327" height="2.71959" style="fill:#003915"/><rect x="8.7619" y="109.42441" width="2.7195" height="0.23271" style="fill:#003915"/><path d="M147.6969,253.65891a.8969.8969,0,1,1,.8969.89659.898.898,0,0,1-.8969-.89659m1.5611,0a.6643.6643,0,1,0-.6642.66389A.66556.66556,0,0,0,149.258,253.65891Z" transform="translate(-138.4716 -144.11829)" style="fill:#003915"/><rect x="13.8512" y="108.18082" width="0.23241" height="2.71959" style="fill:#003915"/><rect x="12.6068" y="109.42441" width="2.7204" height="0.23271" style="fill:#003915"/><path d="M151.54131,253.65891a.89715.89715,0,1,1,.8974.89659.89858.89858,0,0,1-.8974-.89659m1.56189,0a.66475.66475,0,1,0-.66449.66389A.66543.66543,0,0,0,153.1032,253.65891Z" transform="translate(-138.4716 -144.11829)" style="fill:#003915"/><rect x="10.006" y="112.11162" width="0.2327" height="2.7193" style="fill:#003915"/><rect x="8.7619" y="113.35521" width="2.7195" height="0.233" style="fill:#003915"/><path d="M147.6969,257.59a.8969.8969,0,1,1,.8969.8969.89783.89783,0,0,1-.8969-.8969m1.5611,0a.6643.6643,0,1,0-.6642.6638A.66607.66607,0,0,0,149.258,257.59Z" transform="translate(-138.4716 -144.11829)" style="fill:#003915"/><rect x="13.8512" y="112.11162" width="0.23241" height="2.7193" style="fill:#003915"/><rect x="12.6068" y="113.35521" width="2.7204" height="0.233" style="fill:#003915"/><path d="M151.54131,257.59a.89715.89715,0,1,1,.8974.8969.89845.89845,0,0,1-.8974-.8969m1.56189,0a.66475.66475,0,1,0-.66449.6638A.66594.66594,0,0,0,153.1032,257.59Z" transform="translate(-138.4716 -144.11829)" style="fill:#003915"/><path d="M155.1161,257.0602a.4742.4742,0,1,1,.4742.4745.47477.47477,0,0,1-.4742-.4745m.71539,0a.2412.2412,0,1,0-.2412.24181A.24159.24159,0,0,0,155.8315,257.0602Z" transform="translate(-138.4716 -144.11829)" style="fill:#003915"/><path d="M155.1161,258.6618a.4742.4742,0,1,1,.4742.47389.47466.47466,0,0,1-.4742-.47389m.71539,0a.2412.2412,0,1,0-.2412.2415A.24168.24168,0,0,0,155.8315,258.6618Z" transform="translate(-138.4716 -144.11829)" style="fill:#003915"/><path d="M146.408,151.30609a.80921.80921,0,1,0-.23471-.57089.81014.81014,0,0,0,.23471.57089m.5726,1.03632a1.60711,1.60711,0,1,1,1.1364-.47052A1.603,1.603,0,0,1,146.98061,152.34241Z" transform="translate(-138.4716 -144.11829)" style="fill:#003915"/><rect x="37.8127" y="64.02922" width="8.57829" height="8.7659" style="fill:#003915"/><path d="M152.2868,217.61211h-2.9803v3.0728h2.9803Zm0,4.26279h-2.9803v3.07271h2.9803Zm2.29889-6.89529H144.2832V226.8148h10.30249Z" transform="translate(-138.4716 -144.11829)" style="fill:#003915;fill-rule:evenodd"/><path d="M152.0612,157.608v2.98041h-3.0728V157.608Zm0-4.28931V156.299h-6.9574V153.3187Zm-3.8846,4.28931v2.98041h-3.0728V157.608Zm4.89679,3.99921H143.509V152.4119h9.56439Z" transform="translate(-138.4716 -144.11829)" style="fill:#003915;fill-rule:evenodd"/><path d="M257.9278,176.9928c-.7319,0-1.2359-.618-1.2359-1.7399s.504-1.7399,1.2359-1.7399,1.2359.6179,1.2359,1.7399-.504,1.7399-1.2359,1.7399m0,.396c.972,0,1.67981-.798,1.67981-2.13589s-.70779-2.13589-1.67981-2.13589-1.6738.7979-1.6738,2.13589S256.95581,177.38879,257.9278,177.38879Zm-3.97189-.396c-.7319,0-1.2359-.618-1.2359-1.7399s.504-1.7399,1.2359-1.7399,1.2359.6179,1.2359,1.7399S254.68781,176.9928,253.9559,176.9928Zm0,.396c.972,0,1.67979-.798,1.67979-2.13589s-.70779-2.13589-1.67979-2.13589-1.6739.7979-1.6739,2.13589S252.9839,177.38879,253.9559,177.38879Zm-2.5498-.6599a.314.314,0,0,0-.318.324.30312.30312,0,0,0,.216.3058l-.20409.87h.288l.252-.828a.97605.97605,0,0,0,.0842-.34779A.314.314,0,0,0,251.4061,176.7289ZM249.12,174.953l1.188-1.4942v-.3058h-2.7v.3838h2.1481l-1.16391,1.4581v.3181h.29991c.7798,0,1.1339.3299,1.1339.83389,0,.5219-.3839.8459-1.08.8459a1.84111,1.84111,0,0,1-1.302-.4859l-.21.3419a2.18493,2.18493,0,0,0,1.512.54c1.0139,0,1.5239-.54,1.5239-1.2419C250.46989,175.47479,250.02,175.0009,249.12,174.953Zm-3.852-1.8v.3838h.9901v3.816h.432V173.153Z" transform="translate(-138.4716 -144.11829)" style="fill:#6e6e6e;fill-rule:evenodd"/><path d="M178.2737,170.99271c-.7319,0-1.2359-.618-1.2359-1.73991s.504-1.73988,1.2359-1.73988,1.2359.61789,1.2359,1.73988-.504,1.73991-1.2359,1.73991m0,.396c.972,0,1.67981-.798,1.67981-2.13591s-.70781-2.13588-1.67981-2.13588-1.6739.79788-1.6739,2.13588S177.3017,171.3887,178.2737,171.3887Zm-3.97189-.396c-.7319,0-1.2359-.618-1.2359-1.73991s.504-1.73988,1.2359-1.73988,1.2359.61789,1.2359,1.73988S175.03371,170.99271,174.3018,170.99271Zm0,.396c.972,0,1.67979-.798,1.67979-2.13591s-.70779-2.13588-1.67979-2.13588-1.6739.79788-1.6739,2.13588S173.3298,171.3887,174.3018,171.3887Zm-2.5498-.6599a.314.314,0,0,0-.318.324.303.303,0,0,0,.216.3058l-.20409.87h.288l.252-.828a.97605.97605,0,0,0,.0842-.34781A.314.314,0,0,0,171.752,170.72881Zm-2.622-1.8542h-.54l.144-1.33789h1.91991v-.38382h-2.29781l-.216,2.1058h.89409c1.06781,0,1.4037.33591,1.4037.8759,0,.51-.3779.85811-1.0919.85811a1.82146,1.82146,0,0,1-1.2901-.4859l-.20969.34189a2.16849,2.16849,0,0,0,1.50569.54c1.0262,0,1.5239-.55791,1.5239-1.2719C170.87579,169.3727,170.3959,168.8746,169.13,168.8746Z" transform="translate(-138.4716 -144.11829)" style="fill:#6e6e6e;fill-rule:evenodd"/><path d="M164.52769,201.9929c-.732,0-1.236-.6179-1.236-1.7399s.504-1.73991,1.236-1.73991,1.2359.618,1.2359,1.73991-.504,1.7399-1.2359,1.7399m0,.396c.972,0,1.67981-.7979,1.67981-2.13589s-.70781-2.13591-1.67981-2.13591-1.67389.798-1.67389,2.13591S163.55569,202.3889,164.52769,202.3889Zm-3.6239-.36591c-.72589,0-1.11-.438-1.11-.9a.97209.97209,0,0,1,1.08-.91791c.648,0,1.05591.35381,1.05591.906A.9189.9189,0,0,1,160.90379,202.023Zm.036-2.1841a1.34273,1.34273,0,0,0-1.2841.72c-.0119-.1259-.01781-.2458-.01781-.3419,0-1.14009.58191-1.722,1.4879-1.722a1.4707,1.4707,0,0,1,.81581.1981l.1741-.3481a1.92865,1.92865,0,0,0-.99591-.22791c-1.14009,0-1.91989.7438-1.91989,2.17191,0,1.3261.60579,2.0999,1.7218,2.0999a1.3085,1.3085,0,0,0,1.434-1.29A1.2716,1.2716,0,0,0,160.9398,199.8389ZM158.324,201.729a.31405.31405,0,0,0-.318.324.30313.30313,0,0,0,.216.30591l-.2041.8699h.288l.252-.828a.97589.97589,0,0,0,.0842-.34781A.314.314,0,0,0,158.324,201.729Zm-3.24.23979,1.4281-1.4037a1.72917,1.72917,0,0,0,.69-1.3141c0-.70189-.54-1.1339-1.39211-1.1339a1.88725,1.88725,0,0,0-1.4879.59981l.3058.26419a1.42654,1.42654,0,0,1,1.1461-.468c.642,0,.9839.29991.9839.7861,0,.2877-.0899.5697-.5638,1.0377l-1.7462,1.71021v.3058H157.394v-.38411Z" transform="translate(-138.4716 -144.11829)" style="fill:#6e6e6e;fill-rule:evenodd"/><path d="M197.5674,249.4928c-.7319,0-1.2359-.6179-1.2359-1.7399s.504-1.7399,1.2359-1.7399,1.2359.6179,1.2359,1.7399-.504,1.7399-1.2359,1.7399m0,.396c.972,0,1.67979-.7979,1.67979-2.13589s-.70779-2.13589-1.67979-2.13589-1.6738.7979-1.6738,2.13589S196.5954,249.88879,197.5674,249.88879ZM192.3596,245.653v1.16991h.4261v-.7861h2.16l-1.728,3.816h.468l1.758-3.89391V245.653Zm-.74971,3.5759a.31409.31409,0,0,0-.3181.324.30323.30323,0,0,0,.216.30589l-.2041.8699h.288l.252-.828a.97639.97639,0,0,0,.0842-.34779A.314.314,0,0,0,191.60989,249.2289Zm-2.562-1.4281c-.648,0-1.05589-.354-1.05589-.9059a.91907.91907,0,0,1,1.02589-.912c.72591,0,1.11.438,1.11.9A.97207.97207,0,0,1,189.0479,247.8008ZM189,245.617a1.30847,1.30847,0,0,0-1.434,1.28979,1.27151,1.27151,0,0,0,1.41591,1.26,1.3424,1.3424,0,0,0,1.2841-.72c.01189.12611.01779.246.01779.3421,0,1.1398-.58189,1.722-1.4879,1.722a1.472,1.472,0,0,1-.8158-.19809l-.1741.3481a1.92768,1.92768,0,0,0,.9959.22789c1.14011,0,1.91991-.74409,1.91991-2.17189C190.7218,246.3909,190.116,245.617,189,245.617Zm-3.7321.036v.3838h.9901v3.816h.432V245.653Z" transform="translate(-138.4716 -144.11829)" style="fill:#6e6e6e;fill-rule:evenodd"/><path d="M288.35941,247.6778c-.7319,0-1.2359-.618-1.2359-1.7399s.504-1.7399,1.2359-1.7399,1.2359.6179,1.2359,1.7399-.504,1.7399-1.2359,1.7399m0,.396c.972,0,1.67981-.798,1.67981-2.13591s-.70782-2.13589-1.67981-2.13589-1.6738.7979-1.6738,2.13589S287.38739,248.07381,288.35941,248.07381Zm-4.5-.42011,1.4281-1.4037a1.72924,1.72924,0,0,0,.69-1.31419c0-.70181-.54-1.1338-1.39212-1.1338a1.88728,1.88728,0,0,0-1.48788.59979l.30579.26421a1.42624,1.42624,0,0,1,1.14612-.468c.642,0,.98389.2999.98389.786,0,.2877-.0899.56981-.56378,1.03781l-1.74622,1.7101v.30589h2.94611v-.38409Zm-1.55991-.23981a.314.314,0,0,0-.318.324.303.303,0,0,0,.216.3058l-.2041.87h.288l.252-.828a.97583.97583,0,0,0,.08423-.34779A.314.314,0,0,0,282.2995,247.41389Zm-2.2861-1.77589,1.188-1.4942v-.3058h-2.7v.3838h2.1481l-1.16391,1.4581v.3181h.2999c.77982,0,1.13382.32989,1.13382.83389,0,.52191-.38382.8459-1.08.8459a1.841,1.841,0,0,1-1.30188-.4859l-.21011.3419a2.18519,2.18519,0,0,0,1.512.54c1.014,0,1.5239-.54,1.5239-1.24191C281.36319,246.15981,280.91339,245.6859,280.0134,245.638Z" transform="translate(-138.4716 -144.11829)" style="fill:#6e6e6e;fill-rule:evenodd"/><path d="M143.03,191.71989a3.90785,3.90785,0,1,1-3.9079,3.90761,3.908,3.908,0,0,1,3.9079-3.90761" transform="translate(-138.4716 -144.11829)" style="fill:#558e42;fill-rule:evenodd"/><polygon points="6.962 51.509 5.647 51.131 4.333 50.753 4.333 51.509 4.333 52.266 5.647 51.888 6.962 51.509" style="fill:#fdfdfd;fill-rule:evenodd"/><rect x="2.1543" y="51.33031" width="2.2813" height="0.38411" style="fill:#fdfdfd"/><path d="M253.6319,154.47861c-.4269,0-.7211-.3606-.7211-1.0148,0-.65451.2942-1.01511.7211-1.01511s.7209.3606.7209,1.01511c0,.65421-.294,1.0148-.7209,1.0148m0,.231c.56691,0,.9799-.46539.9799-1.24579,0-.7807-.413-1.24609-.9799-1.24609s-.9765.46539-.9765,1.24609C252.6554,154.2442,253.065,154.70959,253.6319,154.70959Zm-2.6252-.2449.8331-.81888a1.008,1.008,0,0,0,.4026-.76651c0-.40961-.315-.66159-.81219-.66159a1.10077,1.10077,0,0,0-.8679.3501l.1786.1539a.83193.83193,0,0,1,.6684-.273c.3744,0,.574.1749.574.4584,0,.16809-.05251.33249-.32881.6055l-1.01849.9975v.1785h1.71829v-.22391Zm-.9099-.14a.18316.18316,0,0,0-.18539.18909.17659.17659,0,0,0,.12589.17819l-.11909.50772h.16811l.14709-.483a.574.574,0,0,0,.0491-.20291A.1832.1832,0,0,0,250.0968,154.32471Zm-.49319-.504h-.49011v-.56692h-.24489v.56692H247.8044l1.253-1.582h-.2798l-1.2986,1.6239v.182h1.38249v.644h.252v-.644h.49011Z" transform="translate(-138.4716 -144.11829)" style="fill:#434242"/><path d="M203.7419,272.979c-.4269,0-.72119-.36061-.72119-1.0148,0-.65451.2943-1.01511.72119-1.01511s.72081.3606.72081,1.01511c0,.65419-.29391,1.0148-.72081,1.0148m0,.231c.56691,0,.9799-.46541.9799-1.2458,0-.7807-.413-1.24611-.9799-1.24611s-.97659.46541-.97659,1.24611C202.7653,272.7446,203.1749,273.21,203.7419,273.21Zm-2.31709-1.218c-.37781,0-.61591-.20641-.61591-.52841a.53629.53629,0,0,1,.5986-.53209c.42349,0,.64749.25569.64749.525A.56715.56715,0,0,1,201.4248,271.992Zm-.0278-1.27391a.76318.76318,0,0,0-.8365.75261.74161.74161,0,0,0,.8261.7347.78257.78257,0,0,0,.7489-.4198c.0071.07339.0105.1434.0105.1996,0,.665-.3396,1.0043-.868,1.0043a.85941.85941,0,0,1-.476-.1154l-.10139.203a1.124,1.124,0,0,0,.5808.1329c.665,0,1.12-.434,1.12-1.26711C202.4014,271.1696,202.0479,270.71809,201.397,270.71809Zm-1.3127,2.107a.18314.18314,0,0,0-.18541.189.17669.17669,0,0,0,.1259.1783l-.11909.50771h.16811l.14709-.483a.57393.57393,0,0,0,.0491-.203A.18318.18318,0,0,0,200.0843,272.8251Zm-1.52931-1.0815h-.3149l.08391-.78061h1.12v-.224h-1.3405l-.1259,1.22861h.5213c.62309,0,.8192.19589.8192.51109,0,.2973-.2205.50031-.63721.50031a1.0614,1.0614,0,0,1-.75229-.28351l-.1225.1996a1.26492,1.26492,0,0,0,.87849.31491c.5984,0,.8889-.32541.8889-.74181C199.5735,272.03391,199.2934,271.74361,198.555,271.74361Z" transform="translate(-138.4716 -144.11829)" style="fill:#434242"/><path d="M285.2634,268.49339h-.31491l.08392-.78059h1.12v-.224h-1.34052l-.12588,1.22859h.5213c.62311,0,.81918.1958.81918.51111,0,.2973-.22049.50031-.63718.50031a1.06148,1.06148,0,0,1-.75232-.28351l-.1225.1996a1.265,1.265,0,0,0,.87851.3149c.59839,0,.88889-.32539.88889-.74179,0-.4343-.28-.72461-1.01849-.72461m-2.05789-1.00459v.224h.57739v2.226h.252v-2.45Zm-.3569,2.08611a.18314.18314,0,0,0-.18539.189.17675.17675,0,0,0,.12588.1783l-.11908.50771h.16809l.14709-.483a.5736.5736,0,0,0,.0491-.203A.18317.18317,0,0,0,282.8486,269.57491Zm-1.60641-2.08611v.224h.57742v2.226h.252v-2.45Z" transform="translate(-138.4716 -144.11829)" style="fill:#434242"/><path d="M177.41991,179.9915c-.3779,0-.616-.2063-.616-.52831a.53638.53638,0,0,1,.59871-.53209c.42349,0,.6474.25569.6474.525a.56705.56705,0,0,1-.6301.5354m-.0278-1.2738a.76317.76317,0,0,0-.8365.75261.74158.74158,0,0,0,.826.7347.78275.78275,0,0,0,.749-.4198c.007.07339.01041.1434.01041.19949,0,.6651-.3396,1.00441-.8679,1.00441a.85941.85941,0,0,1-.476-.1154l-.10141.2029a1.12367,1.12367,0,0,0,.58081.133c.665,0,1.11989-.434,1.11989-1.26709C178.39639,179.1692,178.043,178.7177,177.39211,178.7177Zm-2.10361,1.2738c-.37779,0-.61589-.2063-.61589-.52831a.53633.53633,0,0,1,.59859-.53209c.42351,0,.64751.25569.64751.525A.56709.56709,0,0,1,175.2885,179.9915Zm-.02769-1.2738a.76312.76312,0,0,0-.8365.75261.74158.74158,0,0,0,.826.7347.78262.78262,0,0,0,.7489-.4198c.0071.07339.0105.1434.0105.19949,0,.6651-.3396,1.00441-.868,1.00441a.85884.85884,0,0,1-.47589-.1154l-.1015.2029a1.12391,1.12391,0,0,0,.5808.133c.665,0,1.12-.434,1.12-1.26709C176.26511,179.1692,175.91161,178.7177,175.2608,178.7177Zm-1.31281,2.1069a.18322.18322,0,0,0-.18539.1891.17675.17675,0,0,0,.1259.1783l-.11911.50771h.16811l.1472-.483a.57583.57583,0,0,0,.049-.203A.18327.18327,0,0,0,173.948,180.8246Zm-1.89009.14011.8331-.81891a1.00793,1.00793,0,0,0,.4025-.76649c0-.40961-.3149-.66161-.8121-.66161a1.10125,1.10125,0,0,0-.868.35l.1786.154a.832.832,0,0,1,.6684-.273c.3745,0,.574.1749.574.4583,0,.16811-.0524.3325-.3288.6055l-1.01849.9975v.1786h1.7184v-.22389Z" transform="translate(-138.4716 -144.11829)" style="fill:#434242"/><line x1="107.909" y1="9.4104" x2="71.46959" y2="9.4104" style="fill:none;stroke:#b1b2b2;stroke-miterlimit:22.92558479309082;stroke-width:0.2160000056028366px"/><line x1="58.159" y1="127.91081" x2="6.27449" y2="127.91081" style="fill:none;stroke:#b1b2b2;stroke-miterlimit:22.92558479309082;stroke-width:0.2160000056028366px"/><line x1="140.6588" y1="124.66061" x2="133.91039" y2="124.66061" style="fill:none;stroke:#b1b2b2;stroke-miterlimit:22.92558479309082;stroke-width:0.2160000056028366px"/><line x1="31.90869" y1="35.91042" x2="6.57669" y2="35.91042" style="fill:none;stroke:#b1b2b2;stroke-miterlimit:22.92558479309082;stroke-width:0.2160000056028366px"/><line x1="152.84489" y1="9.4104" x2="117.3481" y2="9.4104" style="fill:none;stroke:#b1b2b2;stroke-miterlimit:22.92558479309082;stroke-width:0.2160000056028366px"/><line x1="123.46919" y1="127.91081" x2="67.5981" y2="127.91081" style="fill:none;stroke:#b1b2b2;stroke-miterlimit:22.92558479309082;stroke-width:0.2160000056028366px"/><line x1="156.8463" y1="124.66061" x2="150.09789" y2="124.66061" style="fill:none;stroke:#b1b2b2;stroke-miterlimit:22.92558479309082;stroke-width:0.2160000056028366px"/><line x1="64.5063" y1="35.91042" x2="41.34779" y2="35.91042" style="fill:none;stroke:#b1b2b2;stroke-miterlimit:22.92558479309082;stroke-width:0.2160000056028366px"/><path d="M293.3226,251.9306l-.81891-.8331a1.00775,1.00775,0,0,0-.76648-.40251c-.40961,0-.66162.31491-.66162.8121a1.101,1.101,0,0,0,.3501.868l.1539-.1786a.83217.83217,0,0,1-.273-.6684c0-.37451.1749-.574.4584-.574.16809,0,.33249.0524.6055.3288l.9975,1.01851h.17859V250.583h-.224Zm.03149,1.6274c0,.434-.18909.68941-.4935.68941-.30109,0-.49008-.2554-.49008-.68941s.189-.6931.49008-.6931C293.165,252.8649,293.3541,253.124,293.3541,253.558Zm-1.624.6055c-.273,0-.4411-.2348-.4411-.6055,0-.36771.16809-.60919.44449-.60919.2662,0,.43771.2276.43771.60919C292.1712,253.93919,291.99969,254.1635,291.7301,254.1635Zm.5321-1.07809a.555.555,0,0,0-.53922-.392c-.3988,0-.6474.34639-.6474.86459,0,.5179.2486.8575.6474.8575a.55313.55313,0,0,0,.53922-.3853.611.611,0,0,0,.60181.4726c.434,0,.70349-.35689.70349-.94479,0-.5845-.2695-.95219-.70349-.95219A.61686.61686,0,0,0,292.26221,253.0854Zm.92038,1.988a.18318.18318,0,0,0,.18912.18541.17685.17685,0,0,0,.17828-.1259l.5076.11909v-.16811l-.483-.14719a.57525.57525,0,0,0-.20288-.049A.18323.18323,0,0,0,293.18259,255.07339Zm.14,1.89011-.81891-.8331a1.00772,1.00772,0,0,0-.76648-.4025c-.40961,0-.66162.3149-.66162.81209a1.101,1.101,0,0,0,.3501.868l.1539-.1786a.832.832,0,0,1-.273-.6684c0-.37451.1749-.574.4584-.574.16809,0,.33249.0524.6055.3288l.9975,1.01851h.17859v-1.7184h-.224Z" transform="translate(-138.4716 -144.11829)" style="fill:#434242"/><path d="M258.0863,255.0983c0,.4269-.3606.72121-1.0148.72121-.6546,0-1.01511-.29431-1.01511-.72121s.3605-.72079,1.01511-.72079c.65421,0,1.0148.2939,1.0148.72079m.231,0c0-.56689-.46548-.9799-1.24579-.9799-.7807,0-1.24611.413-1.24611.9799s.46541.97661,1.24611.97661C257.85181,256.07491,258.31729,255.66521,258.31729,255.0983Zm-.2449,2.6252-.819-.8331a1.00753,1.00753,0,0,0-.76639-.4025c-.40961,0-.66161.3149-.66161.8121a1.10141,1.10141,0,0,0,.35.868l.154-.1786a.83215.83215,0,0,1-.273-.6684c0-.3745.1749-.5741.45831-.5741.16809,0,.33249.05249.6055.3289l.9975,1.01849h.17859v-1.7184h-.22391Zm-.14008.9099a.18323.18323,0,0,0,.18909.18541.17681.17681,0,0,0,.17831-.1259l.50769.11909v-.16809l-.483-.14711a.57443.57443,0,0,0-.203-.0491A.18326.18326,0,0,0,257.93231,258.63339Zm-1.036,1.3334-.8714-.69279h-.1786v1.575h.224v-1.253l.85059.67891h.18539V260.1c0-.4552.1925-.66161.48651-.66161.30438,0,.4935.224.4935.6299a1.07438,1.07438,0,0,1-.28351.7597l.19962.12239a1.27481,1.27481,0,0,0,.31488-.8821c0-.59129-.31488-.8889-.72449-.8889C257.20071,259.1794,256.92429,259.4418,256.8963,259.9668Z" transform="translate(-138.4716 -144.11829)" style="fill:#434242"/><path d="M289.32239,179.4785l-.819-.8331a1.00755,1.00755,0,0,0-.76648-.4025c-.40961,0-.66162.3149-.66162.81209a1.10109,1.10109,0,0,0,.35013.8679l.1539-.1785a.8324.8324,0,0,1-.27292-.6684c0-.37451.1749-.57411.45831-.57411.16809,0,.33249.05251.6055.3289l.9975,1.0184h.17859v-1.71829h-.22391Zm-2.22607,1.7393h.224v-.57741h2.226v-.252h-2.45Zm2.086.3569a.18315.18315,0,0,0,.18909.18539.17681.17681,0,0,0,.17831-.1259l.50769.11909v-.16809l-.483-.14711a.57443.57443,0,0,0-.203-.0491A.18321.18321,0,0,0,289.18231,181.57471Zm-1.036,1.33339-.8714-.69279h-.17859v1.575h.224v-1.253l.85059.67891h.18539v-.1749c0-.4552.1925-.66161.48642-.66161.30447,0,.49359.224.49359.6299a1.07438,1.07438,0,0,1-.28351.7597l.19949.12239a1.27429,1.27429,0,0,0,.315-.8821c0-.59129-.315-.889-.72458-.889C288.45071,182.12061,288.17429,182.3831,288.1463,182.9081Z" transform="translate(-138.4716 -144.11829)" style="fill:#434242"/><path d="M161.8364,168.1886c0,.42691-.36049.72119-1.0148.72119-.6545,0-1.015-.29428-1.015-.72119s.3605-.72079,1.015-.72079c.65431,0,1.0148.294,1.0148.72079m.23111,0c0-.56689-.4655-.97989-1.24591-.97989-.78059,0-1.24609.413-1.24609.97989s.4655.97659,1.24609.97659C161.602,169.16519,162.0675,168.75558,162.0675,168.1886Zm-.23111,2.31711c0,.4269-.36049.7211-1.0148.7211-.6545,0-1.015-.2942-1.015-.7211s.3605-.7209,1.015-.7209C161.47591,169.78481,161.8364,170.0788,161.8364,170.50571Zm.23111,0c0-.56691-.4655-.9799-1.24591-.9799-.78059,0-1.24609.413-1.24609.9799s.4655.97649,1.24609.97649C161.602,171.48219,162.0675,171.0726,162.0675,170.50571Zm-.385,1.48759a.18317.18317,0,0,0,.1891.18539.17664.17664,0,0,0,.1783-.1259l.50771.11911v-.16811l-.483-.14709a.574.574,0,0,0-.203-.0491A.18322.18322,0,0,0,161.6825,171.9933Zm.14011,1.8902-.819-.83321a1.00765,1.00765,0,0,0-.76649-.4025c-.40961,0-.66161.315-.66161.81221a1.10112,1.10112,0,0,0,.3501.86789l.1539-.1786a.83194.83194,0,0,1-.2729-.6684c0-.37439.1748-.574.4583-.574.16811,0,.3325.05249.60551.3288l.9975,1.01849h.17859V172.5359h-.22389Z" transform="translate(-138.4716 -144.11829)" style="fill:#434242"/><path d="M150.1665,198.5721l-.8714-.69279h-.1786v1.57489h.224v-1.2529l.8506.67891h.18539v-.1749c0-.4552.1925-.66161.48651-.66161.3044,0,.4935.22389.4935.6299a1.07408,1.07408,0,0,1-.28351.7596l.1996.1225a1.27513,1.27513,0,0,0,.3149-.8821c0-.59129-.3149-.889-.72449-.889-.39211,0-.66841.2625-.6965.78749m.53209,1.0114v.4901h-.567v.2449h.567v1.0641l-1.58209-1.2529v.2798l1.624,1.29849h.182v-1.3824h.644v-.252h-.644v-.4901Zm.504,2.58661a.18314.18314,0,0,0,.189.18539.17676.17676,0,0,0,.1783-.1259l.50771.11909v-.16809l-.483-.14711a.57434.57434,0,0,0-.203-.04909A.18317.18317,0,0,0,151.20261,202.17011Zm-2.08611,1.6064h.224v-.57741h2.226v-.252h-2.45Z" transform="translate(-138.4716 -144.11829)" style="fill:#434242"/><line x1="153.91499" y1="114.52641" x2="153.91499" y2="128.93721" style="fill:none;stroke:#b1b2b2;stroke-miterlimit:22.92558479309082;stroke-width:0.2160000056028366px"/><line x1="118.66481" y1="118.02672" x2="118.66481" y2="131.95871" style="fill:none;stroke:#b1b2b2;stroke-miterlimit:22.92558479309082;stroke-width:0.2160000056028366px"/><line x1="149.91481" y1="41.52641" x2="149.91481" y2="64.34021" style="fill:none;stroke:#b1b2b2;stroke-miterlimit:22.92558479309082;stroke-width:0.2160000056028366px"/><line x1="22.41499" y1="31.27631" x2="22.41499" y2="39.48091" style="fill:none;stroke:#b1b2b2;stroke-miterlimit:22.92558479309082;stroke-width:0.2160000056028366px"/><line x1="11.935" y1="61.27652" x2="11.935" y2="68.02492" style="fill:none;stroke:#b1b2b2;stroke-miterlimit:22.92558479309082;stroke-width:0.2160000056028366px"/><line x1="153.91499" y1="73.80252" x2="153.91499" y2="105.08742" style="fill:none;stroke:#b1b2b2;stroke-miterlimit:22.92558479309082;stroke-width:0.2160000056028366px"/><line x1="118.66481" y1="69.09082" x2="118.66481" y2="108.58762" style="fill:none;stroke:#b1b2b2;stroke-miterlimit:22.92558479309082;stroke-width:0.2160000056028366px"/><line x1="149.91481" y1="5.84021" x2="149.91481" y2="32.08731" style="fill:none;stroke:#b1b2b2;stroke-miterlimit:22.92558479309082;stroke-width:0.2160000056028366px"/><line x1="22.41499" y1="5.09921" x2="22.41499" y2="21.83722" style="fill:none;stroke:#b1b2b2;stroke-miterlimit:22.92558479309082;stroke-width:0.2160000056028366px"/><line x1="11.935" y1="45.08902" x2="11.935" y2="51.83742" style="fill:none;stroke:#b1b2b2;stroke-miterlimit:22.92558479309082;stroke-width:0.2160000056028366px"/></svg>