<svg id="Слой_1" data-name="Слой 1" xmlns="http://www.w3.org/2000/svg" viewBox="0 0 197.854 122.70239"><title>2.06.01</title><polygon points="195.135 3.582 195.135 8.422 197.854 8.422 197.854 79.697 195.135 79.697 195.135 122.702 0 122.702 0 0 35.55 0 35.55 3.582 195.135 3.582" style="fill:#fff;fill-rule:evenodd"/><path d="M193.534,217.74989a.374.374,0,0,0-.37469-.64749l-13.92011,8.0399a.374.374,0,1,0,.37471.64749Z" transform="translate(-113.6713 -151.24741)" style="fill:#003915"/><path d="M194.60381,195.6337a.374.374,0,1,1,.3748-.6474l13.92,8.0399a.374.374,0,1,1-.37471.6474Z" transform="translate(-113.6713 -151.24741)" style="fill:#003915"/><path d="M284.52811,220.06461a.374.374,0,0,1,.37479-.6474l13.9201,8.03989a.37408.37408,0,0,1-.37479.64751Z" transform="translate(-113.6713 -151.24741)" style="fill:#003915"/><path d="M141.25861,182.1683a.374.374,0,0,1-.6474-.3748l8.03989-13.92009a.374.374,0,1,1,.6474.37479Z" transform="translate(-113.6713 -151.24741)" style="fill:#003915"/><rect x="34.92789" width="2.6022" height="17.05258" style="fill:#003915"/><rect x="34.92789" y="31.09779" width="2.6022" height="13.3299" style="fill:#003915"/><rect x="8.0198" y="55.84389" width="2.6022" height="9.19481" style="fill:#003915"/><rect x="58.5955" y="5.483" width="2.6022" height="38.94469" style="fill:#003915"/><rect x="97.6751" y="64.3788" width="2.60219" height="38.9446" style="fill:#003915"/><rect x="115.9934" y="5.483" width="2.6022" height="38.94469" style="fill:#003915"/><rect x="34.92789" y="41.8255" width="46.5182" height="2.60219" style="fill:#003915"/><rect x="3.3108" y="64.3788" width="57.6978" height="2.60219" style="fill:#003915"/><rect x="3.3108" y="55.0976" width="7.3112" height="2.6022" style="fill:#003915"/><rect x="79.24839" y="64.3788" width="20.26381" height="2.60219" style="fill:#003915"/><rect y="1.75519" width="2.1999" height="2.6022" style="fill:#003915"/><rect y="52.83609" width="1.7583" height="2.6022" style="fill:#003915"/><rect y="56.02339" width="1.7583" height="2.6022" style="fill:#003915"/><rect x="97.4412" y="41.8255" width="21.0365" height="2.60219" style="fill:#003915"/><rect x="95.27529" y="72.2052" width="5.002" height="45.3382" style="fill:#003915"/><rect y="67.9442" width="5.002" height="49.5992" style="fill:#003915"/><rect x="34.92789" y="1.3345" width="161.5193" height="5.00208" style="fill:#003915"/><rect x="34.92789" width="6.4256" height="6.2254" style="fill:#003915"/><rect width="5.002" height="71.8821" style="fill:#003915"/><rect x="0.0686" width="15.5415" height="6.42191" style="fill:#003915"/><rect y="114.54239" width="26.11759" height="8.16" style="fill:#003915"/><rect x="74.8624" y="114.54239" width="44.74429" height="8.16" style="fill:#003915"/><rect x="148.9555" y="114.54239" width="48.8985" height="8.16" style="fill:#003915"/><rect x="189.6939" y="1.3345" width="8.1601" height="25.2307" style="fill:#003915"/><rect x="184.14559" y="71.5374" width="13.7084" height="8.1601" style="fill:#003915"/><rect x="159.7651" y="71.5374" width="9.13889" height="8.1601" style="fill:#003915"/><rect x="189.6939" y="55.4346" width="8.1601" height="24.26289" style="fill:#003915"/><rect x="159.7651" y="71.68759" width="8.1601" height="47.1835" style="fill:#003915"/><rect x="133.4851" y="117.5434" width="0.5018" height="2.2986" style="fill:#003915"/><rect x="134.68389" y="117.5434" width="0.50121" height="2.2986" style="fill:#003915"/><rect x="147.32101" y="117.5434" width="0.5015" height="2.2986" style="fill:#003915"/><rect x="148.51949" y="117.5434" width="0.50119" height="2.2986" style="fill:#003915"/><rect x="119.37339" y="117.5434" width="0.5018" height="2.2986" style="fill:#003915"/><rect x="120.57189" y="117.5434" width="0.50121" height="2.2986" style="fill:#003915"/><rect x="116.9838" y="114.54149" width="34.0937" height="0.5014" style="fill:#003915"/><rect x="116.9838" y="117.3886" width="34.0937" height="0.5015" style="fill:#003915"/><rect x="116.9838" y="119.56" width="34.0937" height="0.50139" style="fill:#003915"/><rect x="116.9838" y="122.20099" width="34.0937" height="0.5014" style="fill:#003915"/><rect x="192.69491" y="41.34839" width="2.29868" height="0.50171" style="fill:#003915"/><rect x="192.69491" y="40.15019" width="2.29868" height="0.50121" style="fill:#003915"/><rect x="192.69491" y="27.51279" width="2.29868" height="0.5014" style="fill:#003915"/><rect x="192.69491" y="26.31459" width="2.29868" height="0.5011" style="fill:#003915"/><rect x="192.69491" y="55.4601" width="2.29868" height="0.50169" style="fill:#003915"/><rect x="192.69491" y="54.26219" width="2.29868" height="0.50121" style="fill:#003915"/><rect x="189.69299" y="24.2578" width="0.50153" height="34.09369" style="fill:#003915"/><rect x="192.54018" y="24.2578" width="0.5014" height="34.09369" style="fill:#003915"/><rect x="194.71151" y="24.2578" width="0.5015" height="34.09369" style="fill:#003915"/><rect x="197.3525" y="24.2578" width="0.5015" height="34.09369" style="fill:#003915"/><rect x="192.60821" y="101.57579" width="1.29709" height="0.4471" style="fill:#003915"/><rect x="192.60821" y="100.508" width="1.29709" height="0.44679" style="fill:#003915"/><rect x="192.60821" y="82.9738" width="1.29709" height="0.44699" style="fill:#003915"/><rect x="192.60821" y="81.9059" width="1.29709" height="0.44679" style="fill:#003915"/><rect x="192.60821" y="64.3714" width="1.29709" height="0.44699" style="fill:#003915"/><rect x="192.60821" y="63.30359" width="1.29709" height="0.4467" style="fill:#003915"/><rect x="192.60821" y="120.17819" width="1.29709" height="0.44701" style="fill:#003915"/><rect x="192.60821" y="119.1104" width="1.29709" height="0.4467" style="fill:#003915"/><rect x="194.68801" y="61.23679" width="0.44669" height="60.8213" style="fill:#003915"/><rect x="193.59661" y="61.23679" width="0.44678" height="60.8213" style="fill:#003915"/><rect x="192.5158" y="61.23679" width="0.44669" height="60.8213" style="fill:#003915"/><path d="M202.2579,158.0202h9.8224a.90525.90525,0,0,1,.90529.904v4.6102a4.5956,4.5956,0,0,1-4.58949,4.591h-2.4523a4.59568,4.59568,0,0,1-4.59041-4.591v-4.6102a.9047.9047,0,0,1,.90451-.904m6.1382,9.8606a4.351,4.351,0,0,0,4.34489-4.34641v-4.6102a.6614.6614,0,0,0-.66069-.65988h-9.8224a.66071.66071,0,0,0-.6599.65988v4.6102a4.3514,4.3514,0,0,0,4.34579,4.34641Z" transform="translate(-113.6713 -151.24741)" style="fill:#003915"/><path d="M208.3958,166.79059a3.2587,3.2587,0,0,0,3.25441-3.2562v-2.68808a.56777.56777,0,0,0-.56721-.56741h-3.57529v-.24521H211.083a.814.814,0,0,1,.81241.81262v2.68808a3.50406,3.50406,0,0,1-3.4996,3.50079h-2.4523a3.50469,3.50469,0,0,1-3.50079-3.50079v-2.68808a.81448.81448,0,0,1,.8136-.81262h3.5753v.24521h-3.5753a.56828.56828,0,0,0-.56841.56741v2.68808a3.25934,3.25934,0,0,0,3.2556,3.2562Z" transform="translate(-113.6713 -151.24741)" style="fill:#003915"/><path d="M207.1689,163.18689a.78351.78351,0,1,1-.78371.78351.78474.78474,0,0,1,.78371-.78351m0,1.32242a.53876.53876,0,1,0-.53909-.53891A.53971.53971,0,0,0,207.1689,164.50931Z" transform="translate(-113.6713 -151.24741)" style="fill:#003915"/><rect x="93.37519" y="12.16431" width="0.2449" height="1.11658" style="fill:#003915"/><rect x="92.9401" y="12.60001" width="1.116" height="0.24548" style="fill:#003915"/><path d="M206.8316,159.20251H206.428a.17364.17364,0,0,0-.1729.17407v.3793a.17359.17359,0,0,0,.1729.174h.40361v.2449H206.428a.41867.41867,0,0,1-.41809-.41891v-.3793a.41862.41862,0,0,1,.41809-.4187h.40561l-.002.03741Zm1.07719.72739a.1744.1744,0,0,0,.174-.174v-.3793a.17445.17445,0,0,0-.174-.17407h-.40109v-.20721l-.0023-.03741h.4034a.41863.41863,0,0,1,.4187.4187v.3793a.41867.41867,0,0,1-.4187.41891h-.40109v-.2449Z" transform="translate(-113.6713 -151.24741)" style="fill:#003915"/><path d="M207.1689,158.535a.461.461,0,0,1,.4612.4603v3.08041a.46045.46045,0,0,1-.9209,0V158.9953a.46051.46051,0,0,1,.4597-.4603m0,3.75668a.21667.21667,0,0,0,.21629-.216V158.9953a.21555.21555,0,0,0-.43109,0v3.08041A.216.216,0,0,0,207.1689,162.29169Z" transform="translate(-113.6713 -151.24741)" style="fill:#003915"/><path d="M193.9884,172.01939a3.9169,3.9169,0,0,1-3.9115-3.913V162.4411a.67724.67724,0,0,1,.4561-.63919,1.24841,1.24841,0,0,1-.2036-.20493.94577.94577,0,0,0-.5215.84412v5.66528a4.18079,4.18079,0,1,0,8.36159,0V162.4411a.94552.94552,0,0,0-.521-.8436,1.2368,1.2368,0,0,1-.2032.20468.67642.67642,0,0,1,.45551.63892v5.66528a3.91709,3.91709,0,0,1-3.9124,3.913" transform="translate(-113.6713 -151.24741)" style="fill:#003915"/><path d="M196.79221,163.522h-5.609a.20391.20391,0,0,0-.2012.20151v4.27069a3.00655,3.00655,0,1,0,6.01311,0v-4.27069a.20465.20465,0,0,0-.2029-.20151m-5.5415.2681h5.476v4.2041a2.738,2.738,0,0,1-5.476,0Z" transform="translate(-113.6713 -151.24741)" style="fill:#003915"/><path d="M193.9881,166.2529a1.00815,1.00815,0,1,0,1.0089,1.008,1.01,1.01,0,0,0-1.0089-1.008m0,1.7475a.7394.7394,0,1,1,.7399-.7395A.74029.74029,0,0,1,193.9881,168.0004Z" transform="translate(-113.6713 -151.24741)" style="fill:#003915"/><rect x="192.23246" y="164.05559" width="0.26854" height="2.24222" transform="translate(-174.26083 -3.43263) rotate(-36.72481)" style="fill:#003915"/><rect x="194.44447" y="165.04233" width="2.2431" height="0.26914" transform="translate(-167.52619 71.53755) rotate(-53.19014)" style="fill:#003915"/><path d="M196.689,158.0202h-5.40059a1.355,1.355,0,0,0-1.3524,1.35379v1.4743a1.35345,1.35345,0,0,0,1.3524,1.35242H196.689a1.35314,1.35314,0,0,0,1.35181-1.35242V159.374a1.35471,1.35471,0,0,0-1.35181-1.35379m-5.40059,3.91211a1.08545,1.08545,0,0,1-1.08421-1.084V159.374a1.08585,1.08585,0,0,1,1.08421-1.08508H196.689a1.08594,1.08594,0,0,1,1.08371,1.08508v1.4743a1.08553,1.08553,0,0,1-1.08371,1.084Z" transform="translate(-113.6713 -151.24741)" style="fill:#003915"/><path d="M193.9881,159.42249a.68811.68811,0,1,0,.68831.68741.68816.68816,0,0,0-.68831-.68741m0,1.10721a.41925.41925,0,1,1,.4196-.4198A.41934.41934,0,0,1,193.9881,160.52969Z" transform="translate(-113.6713 -151.24741)" style="fill:#003915"/><path d="M175.48019,184.49471h0v7.83949h11.3479v-7.83949Zm-.3308,8.17079V184.163h12.0098v8.5025Z" transform="translate(-113.6713 -151.24741)" style="fill:#003915"/><path d="M177.8746,184.2702a.6044.6044,0,0,1,.5936-.61261h5.37219a.60405.60405,0,0,1,.59381.61261h-.33081a.26969.26969,0,0,0-.263-.281H178.4682a.26954.26954,0,0,0-.2628.281Z" transform="translate(-113.6713 -151.24741)" style="fill:#003915"/><path d="M180.1324,186.8967h0v2.7077l1.59731.6216a2.47423,2.47423,0,0,0-.09181-1.6747,4.15186,4.15186,0,0,1-.24129-1.24071,2.44775,2.44775,0,0,1,.18829-.9366Zm-.3308,2.9342V186.664l2.48-.892-.22481.39059a2.26657,2.26657,0,0,0-.32939,1.148,3.89108,3.89108,0,0,0,.22679,1.14381,3.89655,3.89655,0,0,1,.22821,1.144,2.01761,2.01761,0,0,1-.218.91249l-.0675.1358Z" transform="translate(-113.6713 -151.24741)" style="fill:#003915"/><path d="M214.86929,160.17139v30.085a2.16107,2.16107,0,0,0,2.1656,2.1515H227.4463a2.161,2.161,0,0,0,2.166-2.1515v-30.085a2.16091,2.16091,0,0,0-2.166-2.15118H217.0349a2.161,2.161,0,0,0-2.1656,2.15118m14.51311,30.085a1.93124,1.93124,0,0,1-1.9361,1.92191H217.0349a1.93111,1.93111,0,0,1-1.9355-1.92191v-30.085a1.93147,1.93147,0,0,1,1.9355-1.92218H227.4463a1.9316,1.9316,0,0,1,1.9361,1.92218Z" transform="translate(-113.6713 -151.24741)" style="fill:#003915"/><path d="M228.12041,187.2706a2.57706,2.57706,0,0,1-2.58211,2.5654h-6.5948a2.57667,2.57667,0,0,1-2.5818-2.5654V163.15741a2.5771,2.5771,0,0,1,2.5818-2.56592h2.0619a.39649.39649,0,0,1-.142-.22818H218.9435a2.80637,2.80637,0,0,0-2.8125,2.7941V187.2706a2.80665,2.80665,0,0,0,2.8125,2.7944h6.5948a2.80661,2.80661,0,0,0,2.8123-2.7944V163.15741a2.80633,2.80633,0,0,0-2.8123-2.7941h-1.9202a.39561.39561,0,0,1-.1414.22818h2.0616a2.57749,2.57749,0,0,1,2.58211,2.56592Z" transform="translate(-113.6713 -151.24741)" style="fill:#003915"/><path d="M226.8071,185.72321a1.26658,1.26658,0,0,1-1.2688,1.26109h-6.5948a1.26627,1.26627,0,0,1-1.2682-1.26109v-22.5658a1.26621,1.26621,0,0,1,1.2682-1.26141h2.8448v-.2287h-2.8448a1.49619,1.49619,0,0,0-1.499,1.49011v22.5658a1.49564,1.49564,0,0,0,1.499,1.48929h6.5948a1.49531,1.49531,0,0,0,1.499-1.48929v-22.5658a1.49587,1.49587,0,0,0-1.499-1.49011h-2.84509v.2287h2.84509a1.26652,1.26652,0,0,1,1.2688,1.26141Z" transform="translate(-113.6713 -151.24741)" style="fill:#003915"/><path d="M221.508,165.06259a.73331.73331,0,1,0,.7336-.72989.73146.73146,0,0,0-.7336.72989m1.23651,0a.50331.50331,0,1,1-.50291-.50031A.50193.50193,0,0,1,222.74451,165.06259Z" transform="translate(-113.6713 -151.24741)" style="fill:#003915"/><rect x="108.047" y="13.7001" width="1.0457" height="0.22928" style="fill:#003915"/><rect x="108.4549" y="13.2959" width="0.23079" height="1.03778" style="fill:#003915"/><path d="M221.7883,160.56259h-.5374a.27983.27983,0,0,1-.2803-.27859v-.50519a.28035.28035,0,0,1,.2803-.27921h.5374v-.2287h-.5374a.51033.51033,0,0,0-.51109.5079v.50519a.50972.50972,0,0,0,.51109.50742h.5374Zm1.72211-.27859a.27984.27984,0,0,1-.28011.27859h-.53709v.22882h.53709a.50927.50927,0,0,0,.5108-.50742v-.50519a.50988.50988,0,0,0-.5108-.5079h-.53709v.2287h.53709a.28036.28036,0,0,1,.28011.27921Z" transform="translate(-113.6713 -151.24741)" style="fill:#003915"/><path d="M221.673,159.2728v3.2012a.56766.56766,0,0,0,1.1353,0v-3.2012a.56766.56766,0,0,0-1.1353,0m.90509,3.2012a.3372.3372,0,0,1-.67439,0v-3.2012a.3372.3372,0,0,1,.67439,0Z" transform="translate(-113.6713 -151.24741)" style="fill:#003915"/><path d="M235.3382,157.8158h11.76921V169.5847H235.3382Zm11.51981.24951H235.5874V169.3358H246.858Z" transform="translate(-113.6713 -151.24741)" style="fill:#003915"/><path d="M241.2227,168.4866a3.91958,3.91958,0,0,0,.9816-7.7142.3.3,0,0,0,.0743-.1976v-.0405a4.16846,4.16846,0,1,1-2.1115-.00031v.0408a.29831.29831,0,0,0,.0739.1973,3.91975,3.91975,0,0,0,.9817,7.71451" transform="translate(-113.6713 -151.24741)" style="fill:#003915"/><path d="M241.2227,161.08591a3.48149,3.48149,0,1,1-3.48131,3.48178,3.48571,3.48571,0,0,1,3.48131-3.48178m0,6.71359a3.23195,3.23195,0,1,0-3.2318-3.23181A3.23556,3.23556,0,0,0,241.2227,167.7995Z" transform="translate(-113.6713 -151.24741)" style="fill:#003915"/><path d="M241.2227,163.6651a.9023.9023,0,1,1-.9026.90259.90334.90334,0,0,1,.9026-.90259m0,1.55569a.653.653,0,1,0-.65311-.65311A.65424.65424,0,0,0,241.2227,165.22079Z" transform="translate(-113.6713 -151.24741)" style="fill:#003915"/><rect x="127.4267" y="12.6629" width="0.24939" height="1.3139" style="fill:#003915"/><rect x="126.8946" y="13.19501" width="1.3136" height="0.24969" style="fill:#003915"/><path d="M240.4689,159.761h1.50749a.427.427,0,0,1,.42661.42661v.38721a.42686.42686,0,0,1-.42661.42661H240.4689a.42693.42693,0,0,1-.42661-.42661v-.38721a.42707.42707,0,0,1,.42661-.42661m1.50749.991a.17774.17774,0,0,0,.17751-.17722v-.38721a.17754.17754,0,0,0-.17751-.17719H240.4689a.1772.1772,0,0,0-.17711.17719v.38721a.1774.1774,0,0,0,.17711.17722Z" transform="translate(-113.6713 -151.24741)" style="fill:#003915"/><path d="M241.4426,159.88571v-.08652a.21965.21965,0,1,0-.4393,0v.08652h-.2498v-.08652a.46945.46945,0,0,1,.9389,0v.08652Zm-.21989,2.59a.22042.22042,0,0,0,.21989-.22052v-1.37848h.2498v1.37848a.46945.46945,0,1,1-.9389,0v-1.37848h.2498v1.37848A.22.22,0,0,0,241.2227,162.47571Z" transform="translate(-113.6713 -151.24741)" style="fill:#003915"/><path d="M264.003,158.29721h-7.15659a1.496,1.496,0,0,0-1.49411,1.49469v8.29871a1.49593,1.49593,0,0,0,1.49411,1.49409H264.003a1.49567,1.49567,0,0,0,1.4942-1.49409V159.7919a1.49573,1.49573,0,0,0-1.4942-1.49469m-7.15659,11.05449a1.26263,1.26263,0,0,1-1.26111-1.26109V159.7919a1.26274,1.26274,0,0,1,1.26111-1.26169H264.003a1.26307,1.26307,0,0,1,1.26172,1.26169v8.29871a1.263,1.263,0,0,1-1.26172,1.26109Z" transform="translate(-113.6713 -151.24741)" style="fill:#003915"/><path d="M264.003,159.11609h-7.15659a.67618.67618,0,0,0-.67581.67581v7.01059a.67637.67637,0,0,0,.67581.67581H264.003a.67656.67656,0,0,0,.67642-.67581V159.7919a.67637.67637,0,0,0-.67642-.67581m-7.15659,8.12921a.44333.44333,0,0,1-.44312-.44281V159.7919a.44353.44353,0,0,1,.44312-.44312H264.003a.44382.44382,0,0,1,.44391.44312v7.01059a.44362.44362,0,0,1-.44391.44281Z" transform="translate(-113.6713 -151.24741)" style="fill:#003915"/><path d="M257.5466,167.897a.4742.4742,0,1,0,.47421.47418.47512.47512,0,0,0-.47421-.47418m0,.71539a.2412.2412,0,1,1,.24149-.24121A.24185.24185,0,0,1,257.5466,168.6124Z" transform="translate(-113.6713 -151.24741)" style="fill:#003915"/><path d="M259.14731,167.897a.4742.4742,0,1,0,.47479.47418.475.475,0,0,0-.47479-.47418m0,.71539a.2412.2412,0,1,1,.24179-.24121A.24163.24163,0,0,1,259.14731,168.6124Z" transform="translate(-113.6713 -151.24741)" style="fill:#003915"/><rect x="143.42849" y="10.01111" width="2.7196" height="0.2327" style="fill:#003915"/><rect x="144.67211" y="8.767" width="0.2327" height="2.71948" style="fill:#003915"/><path d="M258.45959,160.47781a.8969.8969,0,1,0,.89661.89688.89794.89794,0,0,0-.89661-.89688m0,1.5611a.66431.66431,0,1,1,.66391-.66422A.66559.66559,0,0,1,258.45959,162.03891Z" transform="translate(-113.6713 -151.24741)" style="fill:#003915"/><rect x="143.42849" y="13.85629" width="2.7196" height="0.23239" style="fill:#003915"/><rect x="144.67211" y="12.61191" width="0.2327" height="2.7204" style="fill:#003915"/><path d="M258.45959,164.3222a.89714.89714,0,1,0,.89661.8974.89858.89858,0,0,0-.89661-.8974m0,1.56189a.66475.66475,0,1,1,.66391-.66449A.66543.66543,0,0,1,258.45959,165.88409Z" transform="translate(-113.6713 -151.24741)" style="fill:#003915"/><rect x="147.35931" y="10.01111" width="2.7193" height="0.2327" style="fill:#003915"/><rect x="148.6029" y="8.767" width="0.233" height="2.71948" style="fill:#003915"/><path d="M262.39069,160.47781a.8969.8969,0,1,0,.89691.89688.8978.8978,0,0,0-.89691-.89688m0,1.5611a.66431.66431,0,1,1,.66391-.66422A.66609.66609,0,0,1,262.39069,162.03891Z" transform="translate(-113.6713 -151.24741)" style="fill:#003915"/><rect x="147.35931" y="13.85629" width="2.7193" height="0.23239" style="fill:#003915"/><rect x="148.6029" y="12.61191" width="0.233" height="2.7204" style="fill:#003915"/><path d="M262.39069,164.3222a.89714.89714,0,1,0,.89691.8974.89844.89844,0,0,0-.89691-.8974m0,1.56189a.66475.66475,0,1,1,.66391-.66449A.66593.66593,0,0,1,262.39069,165.88409Z" transform="translate(-113.6713 -151.24741)" style="fill:#003915"/><path d="M261.8609,167.897a.4742.4742,0,1,0,.47449.47418.47475.47475,0,0,0-.47449-.47418m0,.71539a.2412.2412,0,1,1,.24179-.24121A.24168.24168,0,0,1,261.8609,168.6124Z" transform="translate(-113.6713 -151.24741)" style="fill:#003915"/><path d="M263.46249,167.897a.4742.4742,0,1,0,.47391.47418.47463.47463,0,0,0-.47391-.47418m0,.71539a.2412.2412,0,1,1,.24152-.24121A.2417.2417,0,0,1,263.46249,168.6124Z" transform="translate(-113.6713 -151.24741)" style="fill:#003915"/><path d="M176.3821,159.87408a.80923.80923,0,1,0-.2347-.57089.8102.8102,0,0,0,.2347.57089m.5726,1.03632a1.60705,1.60705,0,1,1,1.1364-.47049A1.6033,1.6033,0,0,1,176.9547,160.9104Z" transform="translate(-113.6713 -151.24741)" style="fill:#003915"/><rect x="41.38329" y="117.5434" width="0.50171" height="2.2986" style="fill:#003915"/><rect x="42.58199" y="117.5434" width="0.50121" height="2.2986" style="fill:#003915"/><rect x="57.5064" y="117.5434" width="0.5015" height="2.2986" style="fill:#003915"/><rect x="58.7049" y="117.5434" width="0.50119" height="2.2986" style="fill:#003915"/><rect x="73.1959" y="117.5434" width="0.5015" height="2.2986" style="fill:#003915"/><rect x="74.3944" y="117.5434" width="0.50119" height="2.2986" style="fill:#003915"/><rect x="25.97779" y="117.5434" width="0.50171" height="2.2986" style="fill:#003915"/><rect x="27.17629" y="117.5434" width="0.50121" height="2.2986" style="fill:#003915"/><rect x="23.5882" y="114.54149" width="52.1093" height="0.5014" style="fill:#003915"/><rect x="23.5882" y="117.3886" width="52.1093" height="0.5015" style="fill:#003915"/><rect x="23.5882" y="119.56" width="52.1093" height="0.50139" style="fill:#003915"/><rect x="23.5882" y="122.20099" width="52.1093" height="0.5014" style="fill:#003915"/><path d="M176.03059,169.3931v-2.98041h3.0728v2.98041Zm3.88461,0v-2.98041h3.0728v2.98041Zm-3.88461-3.97821V162.4346h3.0728v2.98029Zm3.88461,0V162.4346h3.0728v2.98029Zm-5.65541,4.86691v-8.73611h9.5627v8.73611Z" transform="translate(-113.6713 -151.24741)" style="fill:#003915;fill-rule:evenodd"/><path d="M273.5524,182.49789c-.7319,0-1.2359-.61789-1.2359-1.7399s.504-1.7399,1.2359-1.7399,1.2359.618,1.2359,1.7399-.504,1.7399-1.2359,1.7399m0,.396c.972,0,1.67981-.79791,1.67981-2.13591s-.70779-2.13589-1.67981-2.13589-1.67389.798-1.67389,2.13589S272.58041,182.89391,273.5524,182.89391Zm-3.97189-.396c-.7319,0-1.2359-.61789-1.2359-1.7399s.504-1.7399,1.2359-1.7399,1.2359.618,1.2359,1.7399S270.31241,182.49789,269.58051,182.49789Zm0,.396c.972,0,1.67981-.79791,1.67981-2.13591s-.70782-2.13589-1.67981-2.13589-1.67392.798-1.67392,2.13589S268.60849,182.89391,269.58051,182.89391Zm-2.5498-.65991a.31406.31406,0,0,0-.318.324.30313.30313,0,0,0,.216.30591l-.2041.86989h.288l.252-.828a.97516.97516,0,0,0,.0842-.34779A.314.314,0,0,0,267.0307,182.234Zm-2.622-1.8541h-.54l.144-1.338h1.91989v-.3838H263.6348l-.216,2.1059h.8941c1.06781,0,1.40372.33591,1.40372.8759,0,.5099-.3779.858-1.09192.858a1.82185,1.82185,0,0,1-1.2901-.48579l-.20969.3418a2.1681,2.1681,0,0,0,1.50571.54c1.02618,0,1.5239-.5578,1.5239-1.27191C266.15451,180.8779,265.67459,180.3799,264.40869,180.3799Z" transform="translate(-113.6713 -151.24741)" style="fill:#6e6e6e;fill-rule:evenodd"/><path d="M248.4465,242.748c-.7319,0-1.2359-.6179-1.2359-1.7399s.504-1.7399,1.2359-1.7399,1.2359.618,1.2359,1.7399-.504,1.7399-1.2359,1.7399m0,.396c.972,0,1.67979-.7979,1.67979-2.13589s-.70779-2.13591-1.67979-2.13591-1.6739.798-1.6739,2.13591S247.4745,243.144,248.4465,243.144Zm-4.5-.42,1.4281-1.40379a1.729,1.729,0,0,0,.6899-1.3141c0-.7019-.54-1.13391-1.39211-1.13391a1.88741,1.88741,0,0,0-1.4879.59981l.30591.26421a1.42627,1.42627,0,0,1,1.146-.468c.64211,0,.9839.2999.9839.7861,0,.28769-.0898.56969-.5638,1.03769l-1.74611,1.71021v.3058h2.946v-.384Zm-1.55991-.2399a.31414.31414,0,0,0-.3181.324.30323.30323,0,0,0,.216.30589l-.2041.87h.288l.252-.828a.97685.97685,0,0,0,.0842-.3479A.314.314,0,0,0,242.3866,242.4841Zm-.84619-.864h-.8399v-.972h-.4198v.972h-1.8241l2.1481-2.7119h-.48021l-2.22569,2.78389v.3119h2.36969v1.104h.432v-1.104h.8399Zm-5.99381-2.7119v.38379h.9901v3.816h.432v-4.1998Z" transform="translate(-113.6713 -151.24741)" style="fill:#6e6e6e;fill-rule:evenodd"/><path d="M168.207,242.93539c-.7319,0-1.2359-.61789-1.2359-1.7399s.504-1.7399,1.2359-1.7399,1.2359.618,1.2359,1.7399-.504,1.7399-1.2359,1.7399m0,.396c.972,0,1.67979-.79791,1.67979-2.13591s-.70779-2.13589-1.67979-2.13589-1.6738.798-1.6738,2.13589S167.235,243.33141,168.207,243.33141Zm-3.97189-.396c-.7319,0-1.2359-.61789-1.2359-1.7399s.504-1.7399,1.2359-1.7399,1.23589.618,1.23589,1.7399S164.967,242.93539,164.23511,242.93539Zm0,.396c.972,0,1.67979-.79791,1.67979-2.13591s-.70779-2.13589-1.67979-2.13589-1.67381.798-1.67381,2.13589S163.26311,243.33141,164.23511,243.33141Zm-2.54971-.65991a.31415.31415,0,0,0-.3181.324.30326.30326,0,0,0,.216.30591l-.2041.86989h.288l.252-.828a.97583.97583,0,0,0,.0842-.34779A.314.314,0,0,0,161.68539,242.67149Zm-2.7542-3.5759v.3838h.9902v3.816h.432v-4.1998Zm-2.16589,0v.3838h.9901v3.816h.432v-4.1998Z" transform="translate(-113.6713 -151.24741)" style="fill:#6e6e6e;fill-rule:evenodd"/><path d="M182.7323,208.24789c-.7319,0-1.2359-.618-1.2359-1.7399s.504-1.74,1.2359-1.74,1.2359.618,1.2359,1.74-.504,1.7399-1.2359,1.7399m0,.396c.972,0,1.67979-.798,1.67979-2.13591s-.70779-2.136-1.67979-2.136-1.6738.798-1.6738,2.136S181.7603,208.64391,182.7323,208.64391Zm-3.9659-2.5141h-.54l.144-1.33791h1.91989v-.3839h-2.29781l-.216,2.1059h.89409c1.06781,0,1.4037.33589,1.4037.8759,0,.51-.3779.85809-1.09189.85809a1.8214,1.8214,0,0,1-1.2901-.4859l-.2097.3419a2.16856,2.16856,0,0,0,1.50569.54c1.0262,0,1.52391-.55791,1.52391-1.27191C180.51221,206.6279,180.0323,206.12981,178.7664,206.12981ZM176.7206,207.984a.314.314,0,0,0-.318.324.303.303,0,0,0,.216.3058l-.2041.87h.288l.252-.828a.97537.97537,0,0,0,.08411-.34779A.314.314,0,0,0,176.7206,207.984Zm-.8461-.864h-.83989v-.972h-.41991v.972h-1.8241l2.1481-2.712h-.4801l-2.2258,2.784v.3118h2.3698v1.1041h.432v-1.1041h.83989Z" transform="translate(-113.6713 -151.24741)" style="fill:#6e6e6e;fill-rule:evenodd"/><path d="M299.6246,248.4567c-.7319,0-1.2359-.61789-1.2359-1.7399s.504-1.7399,1.2359-1.7399,1.2359.618,1.2359,1.7399-.504,1.7399-1.2359,1.7399m0,.396c.972,0,1.67981-.79791,1.67981-2.13591s-.70782-2.13589-1.67981-2.13589-1.67389.798-1.67389,2.13589S298.65259,248.85271,299.6246,248.85271Zm-3.97189-.396c-.7319,0-1.2359-.61789-1.2359-1.7399s.504-1.7399,1.2359-1.7399,1.2359.618,1.2359,1.7399S296.38461,248.4567,295.65271,248.4567Zm0,.396c.972,0,1.67978-.79791,1.67978-2.13591s-.70779-2.13589-1.67978-2.13589-1.67392.798-1.67392,2.13589S294.68069,248.85271,295.65271,248.85271Zm-2.5498-.65991a.31406.31406,0,0,0-.318.324.3031.3031,0,0,0,.216.30589l-.20407.8699h.288l.252-.828a.97523.97523,0,0,0,.0842-.34779A.314.314,0,0,0,293.10291,248.19279Zm-3.24.23981,1.42807-1.4037a1.72912,1.72912,0,0,0,.69-1.3141c0-.7019-.54-1.1339-1.39209-1.1339a1.88724,1.88724,0,0,0-1.48788.59979l.30579.26421a1.42646,1.42646,0,0,1,1.14609-.468c.642,0,.98392.2999.98392.7861,0,.2877-.0899.5697-.56381,1.0377l-1.74619,1.71019v.3058h2.94611v-.38409Z" transform="translate(-113.6713 -151.24741)" style="fill:#6e6e6e;fill-rule:evenodd"/><path d="M205.4245,182.9566c-.7319,0-1.2359-.618-1.2359-1.7399s.504-1.7399,1.2359-1.7399,1.2359.61789,1.2359,1.7399-.504,1.7399-1.2359,1.7399m0,.396c.972,0,1.67979-.798,1.67979-2.13589s-.70779-2.13591-1.67979-2.13591-1.6739.7979-1.6739,2.13591S204.4525,183.3526,205.4245,183.3526Zm-3.62379-.366c-.726,0-1.11011-.4379-1.11011-.9a.97213.97213,0,0,1,1.08-.9178c.648,0,1.056.35371,1.056.90591A.9189.9189,0,0,1,201.80071,182.9866Zm.036-2.1841a1.3427,1.3427,0,0,0-1.2841.72c-.0119-.12581-.0179-.24571-.0179-.34181,0-1.14009.582-1.72209,1.4879-1.72209a1.47127,1.47127,0,0,1,.8159.1982l.174-.3481a1.927,1.927,0,0,0-.9958-.22791c-1.14009,0-1.91989.7438-1.91989,2.17191,0,1.326.6058,2.0999,1.7218,2.0999a1.30856,1.30856,0,0,0,1.434-1.2901A1.27166,1.27166,0,0,0,201.8367,180.80251Zm-2.6158,1.8902a.31407.31407,0,0,0-.3181.324.30312.30312,0,0,0,.216.3058l-.2041.87h.288l.252-.828a.97605.97605,0,0,0,.0842-.34781A.314.314,0,0,0,199.2209,182.6927Zm-.84621-.864h-.83989v-.972h-.4198v.972h-1.82411l2.1481-2.7119h-.48019l-2.22571,2.78389v.3118h2.36971v1.10411h.432v-1.10411h.83989Z" transform="translate(-113.6713 -151.24741)" style="fill:#6e6e6e;fill-rule:evenodd"/><path d="M136.1188,182.9566c-.7319,0-1.2359-.618-1.2359-1.7399s.504-1.7399,1.2359-1.7399,1.2359.61789,1.2359,1.7399-.504,1.7399-1.2359,1.7399m0,.396c.972,0,1.67979-.798,1.67979-2.13589s-.70779-2.13591-1.67979-2.13591-1.6738.7979-1.6738,2.13591S135.1468,183.3526,136.1188,183.3526Zm-3.62381-.366c-.72589,0-1.11-.4379-1.11-.9a.97208.97208,0,0,1,1.08-.9178c.648,0,1.05591.35371,1.05591.90591A.91885.91885,0,0,1,132.495,182.9866Zm.036-2.1841a1.34288,1.34288,0,0,0-1.2841.72c-.0119-.12581-.01781-.24571-.01781-.34181,0-1.14009.58191-1.72209,1.4879-1.72209a1.47075,1.47075,0,0,1,.81581.1982l.174-.3481a1.92708,1.92708,0,0,0-.9958-.22791c-1.14009,0-1.91989.7438-1.91989,2.17191,0,1.326.60579,2.0999,1.72179,2.0999a1.30852,1.30852,0,0,0,1.434-1.2901A1.2716,1.2716,0,0,0,132.531,180.80251Zm-2.6158,1.8902a.314.314,0,0,0-.318.324.303.303,0,0,0,.216.3058l-.2041.87h.288l.252-.828a.97614.97614,0,0,0,.08421-.34781A.314.314,0,0,0,129.91521,182.6927Zm-3.24.23979,1.4281-1.4037a1.72919,1.72919,0,0,0,.69-1.31419c0-.7018-.54-1.1338-1.39211-1.1338a1.88725,1.88725,0,0,0-1.4879.59981l.3058.26419a1.42618,1.42618,0,0,1,1.1461-.468c.642,0,.98391.2999.98391.786,0,.2877-.0899.56979-.5638,1.0378l-1.7462,1.7101v.30591h2.9461v-.38411Z" transform="translate(-113.6713 -151.24741)" style="fill:#6e6e6e;fill-rule:evenodd"/><path d="M165.6037,182.9353c-.7319,0-1.2359-.6179-1.2359-1.7399s.504-1.7399,1.2359-1.7399,1.2359.618,1.2359,1.7399-.504,1.7399-1.2359,1.7399m0,.396c.972,0,1.67979-.7979,1.67979-2.13589s-.70779-2.13591-1.67979-2.13591-1.6739.798-1.6739,2.13591S164.6317,183.3313,165.6037,183.3313Zm-3.97189-2.088c-.648,0-1.05591-.354-1.05591-.9059a.919.919,0,0,1,1.0258-.9119c.726,0,1.11011.4379,1.11011.9A.97212.97212,0,0,1,161.63181,181.2433Zm-.04791-2.18381a1.30856,1.30856,0,0,0-1.4341,1.28981,1.27151,1.27151,0,0,0,1.41591,1.26,1.34216,1.34216,0,0,0,1.28409-.72c.0119.1261.01791.246.01791.3421,0,1.1398-.582,1.72211-1.4879,1.72211a1.472,1.472,0,0,1-.81581-.19821l-.1741.3481a1.92719,1.92719,0,0,0,.9958.22791c1.14011,0,1.91991-.74409,1.91991-2.17191C163.3056,179.8334,162.69991,179.05949,161.58389,179.05949ZM159.334,182.6714a.31405.31405,0,0,0-.318.324.30312.30312,0,0,0,.216.30591l-.2041.8699h.288l.252-.828a.97556.97556,0,0,0,.0842-.34781A.314.314,0,0,0,159.334,182.6714Zm-2.7541-3.5759v.38379H157.57v3.816h.432v-4.1998Z" transform="translate(-113.6713 -151.24741)" style="fill:#6e6e6e;fill-rule:evenodd"/><path d="M142.17191,156.03711a3.90781,3.90781,0,1,1-3.9075-3.9079,3.908,3.908,0,0,1,3.9075,3.9079" transform="translate(-113.6713 -151.24741)" style="fill:#558e42;fill-rule:evenodd"/><polygon points="24.593 7.193 24.971 5.879 25.35 4.564 24.593 4.564 23.836 4.564 24.214 5.879 24.593 7.193" style="fill:#fdfdfd;fill-rule:evenodd"/><rect x="24.38779" y="2.38559" width="0.38411" height="2.28131" style="fill:#fdfdfd"/><path d="M295.655,262.7765l.8331-.81891a1.00771,1.00771,0,0,0,.4025-.76649c0-.40961-.31488-.66161-.8121-.66161a1.101,1.101,0,0,0-.868.3501l.17859.1539a.832.832,0,0,1,.6684-.273c.37439,0,.574.1749.574.4584,0,.16809-.0524.3325-.3288.6055l-1.01849.9975v.1786h1.71838v-.224Zm-1.988,0,.8331-.81891a1.00771,1.00771,0,0,0,.4025-.76649c0-.40961-.31488-.66161-.81207-.66161a1.10079,1.10079,0,0,0-.86792.3501l.1785.1539a.8322.8322,0,0,1,.6684-.273c.37451,0,.5741.1749.5741.4584,0,.16809-.05249.3325-.32889.6055l-1.0184.9975v.1786h1.71829v-.224Zm-.90988-.14a.18317.18317,0,0,0-.18542.18909.17681.17681,0,0,0,.12592.17831l-.11911.5076h.16812l.14709-.483a.57431.57431,0,0,0,.0491-.20291A.18321.18321,0,0,0,292.75711,262.63651Zm-1.60641-2.086v.22389h.57739v2.2261h.252v-2.45Z" transform="translate(-113.6713 -151.24741)" style="fill:#434242"/><path d="M245.3746,262.79041c-.42691,0-.72121-.36061-.72121-1.0148,0-.65451.2943-1.01511.72121-1.01511s.72079.3606.72079,1.01511c0,.65419-.2939,1.0148-.72079,1.0148m0,.231c.56689,0,.9799-.46539.9799-1.24579,0-.7807-.413-1.24611-.9799-1.24611s-.97661.46541-.97661,1.24611C244.398,262.556,244.80769,263.02139,245.3746,263.02139Zm-2.31711-.231c-.4269,0-.7211-.36061-.7211-1.0148,0-.65451.2942-1.01511.7211-1.01511s.7209.3606.7209,1.01511C243.7784,262.42979,243.48441,262.79041,243.0575,262.79041Zm0,.231c.567,0,.98-.46539.98-1.24579,0-.7807-.413-1.24611-.98-1.24611s-.9765.46541-.9765,1.24611C242.081,262.556,242.4906,263.02139,243.0575,263.02139Zm-1.48759-.38489a.18315.18315,0,0,0-.18539.18909.17678.17678,0,0,0,.1259.17831l-.11911.5076h.16811l.1472-.483a.5757.5757,0,0,0,.049-.20291A.1832.1832,0,0,0,241.5699,262.63651Zm-1.3334-1.0361.69281-.87131v-.17859H239.3544v.22389h1.2529l-.67889.85071v.18539h.1749c.4552,0,.66159.1924.66159.4864,0,.3044-.224.4935-.6299.4935a1.07388,1.07388,0,0,1-.75969-.28351l-.12241.1996a1.27444,1.27444,0,0,0,.8821.3149c.59131,0,.889-.3149.889-.72449C241.024,261.90489,240.76151,261.62849,240.2365,261.6004Z" transform="translate(-113.6713 -151.24741)" style="fill:#434242"/><path d="M167.1851,262.7765l.8331-.81891a1.0079,1.0079,0,0,0,.4026-.76649c0-.40961-.315-.66161-.81221-.66161a1.10076,1.10076,0,0,0-.86789.3501l.1785.1539a.83237.83237,0,0,1,.6685-.273c.37439,0,.574.1749.574.4584,0,.16809-.05249.3325-.3288.6055l-1.01849.9975v.1786h1.71829v-.224Zm-1.6449-1.22141h-.31491l.08391-.7807h1.11989v-.22389h-1.3405l-.12579,1.2285h.5213c.623,0,.8192.19589.8192.51109,0,.29739-.2206.50031-.6373.50031a1.06117,1.06117,0,0,1-.7523-.28351l-.12239.1996a1.26433,1.26433,0,0,0,.87839.3149c.5984,0,.889-.32539.889-.74179C166.5587,261.84531,166.2786,261.5551,165.54021,261.5551Zm-1.19371,1.08141a.18315.18315,0,0,0-.18539.18909.17678.17678,0,0,0,.1259.17831l-.11911.5076h.16811l.14709-.483a.57363.57363,0,0,0,.0491-.20291A.1832.1832,0,0,0,164.3465,262.63651Zm-.49319-.504h-.4901v-.56689h-.2449v.56689h-1.06421l1.253-1.582h-.2798l-1.2986,1.62389v.182h1.38251v.6441h.252v-.6441h.4901Z" transform="translate(-113.6713 -151.24741)" style="fill:#434242"/><path d="M134.87019,164.0401c-.4269,0-.72119-.3605-.72119-1.0148,0-.65451.2943-1.015.72119-1.015s.72081.3605.72081,1.015c0,.6543-.2939,1.0148-.72081,1.0148m0,.23111c.56691,0,.9799-.46552.9799-1.24591,0-.78061-.413-1.24609-.9799-1.24609s-.97659.46548-.97659,1.24609C133.8936,163.80569,134.30321,164.27121,134.87019,164.27121Zm-2.3134-1.4664h-.3149l.08391-.7807h1.12v-.22391h-1.3405l-.1259,1.22849h.5213c.623,0,.8192.19592.8192.51111,0,.29739-.2205.50031-.63721.50031a1.06119,1.06119,0,0,1-.75229-.28339l-.1225.19949a1.26447,1.26447,0,0,0,.87849.315c.5984,0,.8889-.32541.8889-.74191C133.5753,163.09509,133.2952,162.80481,132.55679,162.80481Zm-1.1937,1.08139a.18315.18315,0,0,0-.1853.18909.17669.17669,0,0,0,.12581.17831l-.119.50769h.16811l.14709-.483a.57568.57568,0,0,0,.049-.203A.1832.1832,0,0,0,131.3631,163.8862Zm-1.60629-2.086v.22391h.57739v2.2261h.252v-2.45Z" transform="translate(-113.6713 -151.24741)" style="fill:#434242"/><path d="M163.2404,164.0401c-.4269,0-.7211-.3605-.7211-1.0148,0-.65451.2942-1.015.7211-1.015s.7209.3605.7209,1.015c0,.6543-.294,1.0148-.7209,1.0148m0,.23111c.567,0,.98-.46552.98-1.24591,0-.78061-.413-1.24609-.98-1.24609s-.9765.46548-.9765,1.24609C162.2639,163.80569,162.67349,164.27121,163.2404,164.27121Zm-2.3904-2.471v.22391h.57739v2.2261h.252v-2.45Zm-.3569,2.086a.18318.18318,0,0,0-.18541.18909.17678.17678,0,0,0,.1259.17831l-.11909.50769h.16811l.14709-.483a.57429.57429,0,0,0,.0491-.203A.1832.1832,0,0,0,160.4931,163.8862Zm-1.6064-2.086v.22391h.57739v2.2261h.252v-2.45Z" transform="translate(-113.6713 -151.24741)" style="fill:#434242"/><path d="M203.82179,189.055h-.3149l.08391-.78059h1.11989v-.224h-1.3405l-.12579,1.22861h.5213c.623,0,.8192.19589.8192.51109,0,.2973-.2206.50031-.63721.50031a1.06171,1.06171,0,0,1-.7524-.28351l-.12239.1996a1.26483,1.26483,0,0,0,.87839.3149c.5984,0,.889-.32539.889-.74179,0-.4343-.28011-.72461-1.01851-.72461m-2.70909-1.00459v.6826h.2486v-.4586h1.26l-1.008,2.226h.273l1.0253-2.27139v-.1786Zm-.43741,2.08611a.18311.18311,0,0,0-.18529.189.1766.1766,0,0,0,.12579.1783l-.119.50771h.16811l.14709-.483a.57532.57532,0,0,0,.049-.203A.18317.18317,0,0,0,200.67529,190.13651Zm-1.89009.14.8331-.81891a1.00786,1.00786,0,0,0,.4025-.76649c0-.40961-.3149-.66161-.8121-.66161a1.10125,1.10125,0,0,0-.868.35l.1786.154a.83214.83214,0,0,1,.6684-.273c.3745,0,.574.1749.574.4584,0,.168-.0524.3325-.3288.60539l-1.01851.9975v.1786h1.7184v-.22389Z" transform="translate(-113.6713 -151.24741)" style="fill:#434242"/><path d="M268.55261,173.3049h-.31491l.08389-.7807h1.12v-.22391H268.1011l-.12592,1.2285h.5213c.62311,0,.81921.19591.81921.51111,0,.29739-.22049.50031-.63721.50031a1.0613,1.0613,0,0,1-.75229-.2834l-.1225.19949a1.26443,1.26443,0,0,0,.87848.315c.59842,0,.88892-.3255.88892-.7419,0-.4342-.28-.7245-1.01849-.7245m-1.9635,0h-.315l.08389-.7807h1.12v-.22391h-1.34048l-.12582,1.2285h.52121c.62311,0,.81931.19591.81931.51111,0,.29739-.22061.50031-.6373.50031a1.06144,1.06144,0,0,1-.75232-.2834l-.12238.19949a1.264,1.264,0,0,0,.87839.315c.59839,0,.889-.3255.889-.7419C267.6076,173.5952,267.32751,173.3049,266.58911,173.3049Zm-1.19373,1.08141a.18316.18316,0,0,0-.18539.18909.17677.17677,0,0,0,.12592.1783l-.11911.50771h.16809l.14713-.48309a.57369.57369,0,0,0,.04907-.20291A.1832.1832,0,0,0,265.39539,174.38631Zm-1.33337-1.036.69278-.8714v-.1786h-1.575v.22391h1.253l-.67889.85069v.18541h.1749c.4552,0,.66159.19249.66159.48639,0,.3045-.224.49351-.62988.49351a1.07431,1.07431,0,0,1-.7597-.2834l-.12241.19949a1.27431,1.27431,0,0,0,.88211.315c.59128,0,.88889-.315.88889-.72461C264.8494,173.65469,264.587,173.3783,264.062,173.3503Z" transform="translate(-113.6713 -151.24741)" style="fill:#434242"/><line x1="175.77181" y1="110.59309" x2="169.0234" y2="110.59309" style="fill:none;stroke:#b1b2b2;stroke-miterlimit:22.92558479309082;stroke-width:0.2160000056028366px"/><line x1="124.52169" y1="110.59309" x2="101.1767" y2="110.59309" style="fill:none;stroke:#b1b2b2;stroke-miterlimit:22.92558479309082;stroke-width:0.2160000056028366px"/><line x1="46.7716" y1="110.59309" x2="5.8016" y2="110.59309" style="fill:none;stroke:#b1b2b2;stroke-miterlimit:22.92558479309082;stroke-width:0.2160000056028366px"/><line x1="14.5216" y1="11.8429" x2="5.582" y2="11.8429" style="fill:none;stroke:#b1b2b2;stroke-miterlimit:22.92558479309082;stroke-width:0.2160000056028366px"/><line x1="43.27169" y1="11.8429" x2="38.8321" y2="11.8429" style="fill:none;stroke:#b1b2b2;stroke-miterlimit:22.92558479309082;stroke-width:0.2160000056028366px"/><line x1="83.27169" y1="38.09309" x2="61.80889" y2="38.09309" style="fill:none;stroke:#b1b2b2;stroke-miterlimit:22.92558479309082;stroke-width:0.2160000056028366px"/><line x1="148.02181" y1="22.3429" x2="118.5956" y2="22.3429" style="fill:none;stroke:#b1b2b2;stroke-miterlimit:22.92558479309082;stroke-width:0.2160000056028366px"/><line x1="191.95931" y1="110.59309" x2="185.2109" y2="110.59309" style="fill:none;stroke:#b1b2b2;stroke-miterlimit:22.92558479309082;stroke-width:0.2160000056028366px"/><line x1="158.1769" y1="110.59309" x2="133.96079" y2="110.59309" style="fill:none;stroke:#b1b2b2;stroke-miterlimit:22.92558479309082;stroke-width:0.2160000056028366px"/><line x1="94.4268" y1="110.59309" x2="56.2107" y2="110.59309" style="fill:none;stroke:#b1b2b2;stroke-miterlimit:22.92558479309082;stroke-width:0.2160000056028366px"/><line x1="34.2071" y1="11.8429" x2="23.9607" y2="11.8429" style="fill:none;stroke:#b1b2b2;stroke-miterlimit:22.92558479309082;stroke-width:0.2160000056028366px"/><line x1="58.23859" y1="11.8429" x2="52.71079" y2="11.8429" style="fill:none;stroke:#b1b2b2;stroke-miterlimit:22.92558479309082;stroke-width:0.2160000056028366px"/><line x1="115.7111" y1="38.09309" x2="92.7107" y2="38.09309" style="fill:none;stroke:#b1b2b2;stroke-miterlimit:22.92558479309082;stroke-width:0.2160000056028366px"/><line x1="189.69299" y1="22.3429" x2="157.4609" y2="22.3429" style="fill:none;stroke:#b1b2b2;stroke-miterlimit:22.92558479309082;stroke-width:0.2160000056028366px"/><path d="M302.709,251.4978l-.87143-.69281H301.659v1.57491h.224V251.127l.85062.67889h.18539v-.1749c0-.45529.1925-.66159.48639-.66159.3045,0,.49359.22389.49359.62979a1.07437,1.07437,0,0,1-.28348.7597l.19959.1225a1.27515,1.27515,0,0,0,.31491-.8822c0-.59129-.31491-.8889-.72461-.8889-.392,0-.6684.2625-.69638.78751m-1.05,2.933h.68262v-.2486H301.883v-1.26l2.226,1.008v-.273l-2.27142-1.0253H301.659Zm2.086.4373a.18318.18318,0,0,0,.18912.18539.17669.17669,0,0,0,.17828-.12579l.50769.119v-.16809l-.483-.14709a.57341.57341,0,0,0-.203-.049A.18319.18319,0,0,0,303.745,254.8681Zm-2.086,1.6064h.224v-.57741h2.226v-.252h-2.45Z" transform="translate(-113.6713 -151.24741)" style="fill:#434242"/><path d="M298.662,190.24561c0,.3779-.20639.616-.52838.616a.53639.53639,0,0,1-.5321-.59871c0-.42349.25571-.6474.525-.6474a.56712.56712,0,0,1,.53549.63011m-1.2739.0278a.76317.76317,0,0,0,.75259.83649.74157.74157,0,0,0,.73471-.826.78276.78276,0,0,0-.4198-.749c.07339-.007.1434-.01039.19949-.01039.6651,0,1.00439.33949,1.00439.86789a.85941.85941,0,0,1-.11539.476l.203.10141a1.12471,1.12471,0,0,0,.1329-.58081c0-.665-.434-1.11989-1.26709-1.11989C297.8396,189.2691,297.38809,189.6225,297.38809,190.27341Zm2.247,2.4256-.81891-.8331a1.00788,1.00788,0,0,0-.76648-.40251c-.40961,0-.66162.31491-.66162.8121a1.10136,1.10136,0,0,0,.35.868l.154-.17859a.83218.83218,0,0,1-.273-.66841c0-.3745.1749-.5741.45828-.5741.16812,0,.33261.05251.6055.3289l.9975,1.01849h.17862v-1.7184h-.22391Zm-.14.9099a.18315.18315,0,0,0,.189.18539.17675.17675,0,0,0,.17828-.1259l.50769.11911v-.16811l-.483-.14709a.57339.57339,0,0,0-.203-.0491A.18321.18321,0,0,0,299.49509,193.6089Zm-1.03607,1.3334-.87143-.69281H297.409v1.575h.224v-1.253l.85071.67889h.1853v-.1749c0-.4552.1925-.66161.48648-.66161.30441,0,.4935.224.4935.6299a1.07434,1.07434,0,0,1-.28348.7597l.19959.12241a1.27475,1.27475,0,0,0,.31491-.88211c0-.59129-.31491-.8889-.72452-.8889C298.7634,194.15489,298.48709,194.4173,298.459,194.94231Z" transform="translate(-113.6713 -151.24741)" style="fill:#434242"/><path d="M121.159,241.8996h.2239v-.57739h2.2261v-.252h-2.45Zm1.582-.007v.49011h-.56689v.24489h.56689v1.0641l-1.582-1.2529v.2798l1.624,1.29851h.1819v-1.3824h.6441v-.252h-.6441v-.49011Zm.504,2.58661a.18322.18322,0,0,0,.18909.18539.17675.17675,0,0,0,.1783-.1259l.50771.11911v-.16811l-.4831-.1472a.5749.5749,0,0,0-.2029-.049A.18321.18321,0,0,0,123.245,244.4792Zm.14,1.89009-.8189-.8331a1.00774,1.00774,0,0,0-.7665-.4025c-.4096,0-.6616.3149-.6616.8121a1.10133,1.10133,0,0,0,.3501.868l.1539-.1786a.832.832,0,0,1-.273-.6684c0-.3745.1749-.574.4584-.574.1681,0,.3325.0524.6055.3288l.9975,1.01849h.1786v-1.7184h-.224Z" transform="translate(-113.6713 -151.24741)" style="fill:#434242"/><path d="M121.159,183.5119h.6826v-.2486h-.4587v-1.26l2.2261,1.008v-.273l-2.2714-1.0253h-.1786Zm1.582-.01421v.4901h-.56689v.2449h.56689v1.06421l-1.582-1.2529v.27969l1.624,1.2986h.1819v-1.38251h.6441v-.252h-.6441v-.4901Zm.504,2.58661a.18317.18317,0,0,0,.18909.18539.17668.17668,0,0,0,.1783-.12579l.50771.119v-.16809l-.4831-.14711a.57286.57286,0,0,0-.2029-.049A.18319.18319,0,0,0,123.245,186.0843Zm.14,1.8902-.8189-.8331a1.00774,1.00774,0,0,0-.7665-.4025c-.4096,0-.6616.3149-.6616.81209a1.1011,1.1011,0,0,0,.3501.8679l.1539-.1785a.83214.83214,0,0,1-.273-.6684c0-.37451.1749-.57411.4584-.57411.1681,0,.3325.05251.6055.3289l.9975,1.0184h.1786v-1.71831h-.224Z" transform="translate(-113.6713 -151.24741)" style="fill:#434242"/><path d="M169.8987,171.3856c0,.4269-.3605.7211-1.0148.7211-.6545,0-1.015-.2942-1.015-.7211s.3605-.7209,1.015-.7209c.6543,0,1.0148.294,1.0148.7209m.23111,0c0-.567-.4655-.98-1.24591-.98-.78059,0-1.24609.413-1.24609.98s.4655.9765,1.24609.9765C169.66431,172.36211,170.12981,171.9525,170.12981,171.3856Zm-.2135,2.2784c0,.434-.1891.68939-.4935.68939-.301,0-.49011-.2554-.49011-.68939s.1891-.693.49011-.693C169.7272,172.971,169.91631,173.2301,169.91631,173.664Zm-1.624.6055c-.2729,0-.441-.2347-.441-.6055,0-.3676.16809-.6091.4444-.6091.2662,0,.4377.2276.4377.6091C168.7334,174.0453,168.5619,174.2695,168.2923,174.2695Zm.5321-1.078a.555.555,0,0,0-.53911-.392c-.3989,0-.64749.34641-.64749.8645,0,.5179.2486.8575.64749.8575a.553.553,0,0,0,.53911-.38519.611.611,0,0,0,.60179.47249c.434,0,.70361-.3568.70361-.94479,0-.5845-.26961-.9521-.70361-.9521A.61686.61686,0,0,0,168.8244,173.1915Zm.92039,1.988a.18314.18314,0,0,0,.1891.18529.17668.17668,0,0,0,.1783-.12579l.50771.119v-.16811l-.483-.14709a.57583.57583,0,0,0-.203-.049A.18321.18321,0,0,0,169.7448,175.1795Zm-2.086,1.60629h.22391v-.57739h2.22609v-.252h-2.45Z" transform="translate(-113.6713 -151.24741)" style="fill:#434242"/><line x1="189.27779" y1="106.95909" x2="189.27779" y2="113.70749" style="fill:none;stroke:#b1b2b2;stroke-miterlimit:22.92558479309082;stroke-width:0.2160000056028366px"/><line x1="185.02779" y1="45.95889" x2="185.02779" y2="71.5374" style="fill:none;stroke:#b1b2b2;stroke-miterlimit:22.92558479309082;stroke-width:0.2160000056028366px"/><line x1="8.77769" y1="97.20909" x2="8.77769" y2="114.54239" style="fill:none;stroke:#b1b2b2;stroke-miterlimit:22.92558479309082;stroke-width:0.2160000056028366px"/><line x1="8.77769" y1="38.459" x2="8.77769" y2="54.3353" style="fill:none;stroke:#b1b2b2;stroke-miterlimit:22.92558479309082;stroke-width:0.2160000056028366px"/><line x1="55.2776" y1="26.95889" x2="55.2776" y2="41.1165" style="fill:none;stroke:#b1b2b2;stroke-miterlimit:22.92558479309082;stroke-width:0.2160000056028366px"/><line x1="189.27779" y1="79.69749" x2="189.27779" y2="97.51999" style="fill:none;stroke:#b1b2b2;stroke-miterlimit:22.92558479309082;stroke-width:0.2160000056028366px"/><line x1="185.02779" y1="6.33658" x2="185.02779" y2="36.5199" style="fill:none;stroke:#b1b2b2;stroke-miterlimit:22.92558479309082;stroke-width:0.2160000056028366px"/><line x1="8.77769" y1="67.92859" x2="8.77769" y2="87.76999" style="fill:none;stroke:#b1b2b2;stroke-miterlimit:22.92558479309082;stroke-width:0.2160000056028366px"/><line x1="8.77769" y1="6.83548" x2="8.77769" y2="29.01999" style="fill:none;stroke:#b1b2b2;stroke-miterlimit:22.92558479309082;stroke-width:0.2160000056028366px"/><line x1="55.2776" y1="6.6163" x2="55.2776" y2="17.51981" style="fill:none;stroke:#b1b2b2;stroke-miterlimit:22.92558479309082;stroke-width:0.2160000056028366px"/></svg>