<svg id="Слой_1" data-name="Слой 1" xmlns="http://www.w3.org/2000/svg" viewBox="0 0 161.52829 137.47351"><title>2.08.01</title><polygon points="3.352 137.474 3.352 67.915 0 67.915 0 0 161.528 0 161.528 77.111 156.18 77.111 156.18 137.474 3.352 137.474" style="fill:#fff;fill-rule:evenodd"/><path d="M260.58609,186.7411a.374.374,0,1,0-.37469-.6474l-13.92009,8.0399a.374.374,0,0,0,.37469.6474Z" transform="translate(-128.1257 -143.86169)" style="fill:#003915"/><path d="M213.5316,192.94189a.374.374,0,0,0-.6474.37471l8.0399,13.92009a.374.374,0,1,0,.6474-.37469Z" transform="translate(-128.1257 -143.86169)" style="fill:#003915"/><path d="M163.4635,221.5432a.374.374,0,0,0-.6474.37469l8.0399,13.9201a.374.374,0,1,0,.6474-.37469Z" transform="translate(-128.1257 -143.86169)" style="fill:#003915"/><rect x="93.06909" width="2.6022" height="45.96921" style="fill:#003915"/><rect x="96.05251" width="2.60219" height="41.99471" style="fill:#003915"/><rect x="93.06909" y="62.7415" width="2.6022" height="5.1738" style="fill:#003915"/><rect x="121.8912" y="134.52611" width="2.60219" height="2.9474" style="fill:#003915"/><rect x="36.34239" y="65.31311" width="58.76991" height="2.60219" style="fill:#003915"/><rect x="117.80899" y="70.4872" width="34.02231" height="2.6022" style="fill:#003915"/><rect x="132.32071" y="40.29451" width="29.20758" height="2.60219" style="fill:#003915"/><rect x="93.06909" y="40.29451" width="22.96971" height="2.60219" style="fill:#003915"/><rect x="5.58279" width="155.9455" height="4.38809" style="fill:#003915"/><rect x="0.17599" y="132.47151" width="156.0036" height="5.002" style="fill:#003915"/><rect x="155.26968" y="132.47151" width="0.90991" height="5.002" style="fill:#003915"/><polygon points="161.528 77.111 156.18 77.111 155.27 77.111 155.27 62.534 161.528 62.534 161.528 77.111" style="fill:#003915;fill-rule:evenodd"/><rect x="160.6348" y="62.53401" width="0.89349" height="14.5766" style="fill:#003915"/><rect x="155.26968" width="6.25861" height="41.27251" style="fill:#003915"/><polygon points="156.18 134.577 149.754 134.577 149.754 70.487 156.18 70.487 156.18 77.111 156.18 134.577" style="fill:#003915;fill-rule:evenodd"/><rect y="65.3188" width="39.3432" height="8.16011" style="fill:#003915"/><rect width="8.1601" height="20.79379" style="fill:#003915"/><rect y="50.74901" width="8.1601" height="22.66409" style="fill:#003915"/><rect x="31.18311" y="134.58591" width="8.1601" height="2.8876" style="fill:#003915"/><rect x="31.18311" y="107.76331" width="8.1601" height="27.44389" style="fill:#003915"/><rect x="31.18311" y="67.64861" width="8.1601" height="9.996" style="fill:#003915"/><rect x="3.00189" y="34.8945" width="2.2986" height="0.50171" style="fill:#003915"/><rect x="3.00189" y="33.6963" width="2.2986" height="0.50121" style="fill:#003915"/><rect x="3.00189" y="21.0589" width="2.2986" height="0.5014" style="fill:#003915"/><rect x="3.00189" y="19.86072" width="2.2986" height="0.5011" style="fill:#003915"/><rect x="3.00189" y="49.00621" width="2.2986" height="0.5018" style="fill:#003915"/><rect x="3.00189" y="47.8083" width="2.2986" height="0.50121" style="fill:#003915"/><rect y="17.80389" width="0.5014" height="34.0937" style="fill:#003915"/><rect x="2.84709" y="17.80389" width="0.50151" height="34.0937" style="fill:#003915"/><rect x="5.01849" y="17.80389" width="0.5014" height="34.0937" style="fill:#003915"/><rect x="7.6595" y="17.80389" width="0.5014" height="34.0937" style="fill:#003915"/><path d="M162.65739,240.58749h1.6698v-.6971h-1.6698Zm0,13.56911h1.6698V241.0889h-1.6698Zm0,1.1983h1.6698v-.6971h-1.6698Zm1.6698.50169h-1.6698v5.78951h-.5015V239.8904h-2.3457V261.6461h-.50139V239.3893h8.16089V261.6461h-.50139V239.8904h-2.1396v18.05191h-.50151Z" transform="translate(-128.1257 -143.86169)" style="fill:#003915;fill-rule:evenodd"/><rect x="4.13519" y="112.08841" width="1.2971" height="0.4471" style="fill:#003915"/><rect x="4.13519" y="111.0206" width="1.2971" height="0.44681" style="fill:#003915"/><rect x="4.13519" y="93.4863" width="1.2971" height="0.44711" style="fill:#003915"/><rect x="4.13519" y="92.4185" width="1.2971" height="0.44681" style="fill:#003915"/><rect x="4.13519" y="74.884" width="1.2971" height="0.44701" style="fill:#003915"/><rect x="4.13519" y="73.81621" width="1.2971" height="0.4467" style="fill:#003915"/><rect x="4.13519" y="130.69081" width="1.2971" height="0.44699" style="fill:#003915"/><rect x="4.13519" y="129.623" width="1.2971" height="0.4467" style="fill:#003915"/><rect x="2.90579" y="71.7494" width="0.4467" height="60.8213" style="fill:#003915"/><rect x="3.9971" y="71.7494" width="0.44679" height="60.8213" style="fill:#003915"/><rect x="5.078" y="71.7494" width="0.4467" height="60.8213" style="fill:#003915"/><rect x="4.13519" y="136.7847" width="1.2971" height="0.44681" style="fill:#003915"/><rect x="2.90579" y="134.718" width="0.4467" height="2.75551" style="fill:#003915"/><rect x="3.9971" y="134.718" width="0.44679" height="2.75551" style="fill:#003915"/><rect x="5.078" y="134.718" width="0.4467" height="2.75551" style="fill:#003915"/><path d="M256.63519,148.303h-9.8223a.90527.90527,0,0,0-.9054.904v4.61029a4.59575,4.59575,0,0,0,4.5896,4.591h2.45219a4.59567,4.59567,0,0,0,4.59041-4.591V149.207a.9047.9047,0,0,0-.90451-.904m-6.13809,9.8606a4.351,4.351,0,0,1-4.345-4.34631V149.207a.66145.66145,0,0,1,.6608-.65991h9.8223a.66068.66068,0,0,1,.65991.65991v4.61029a4.35139,4.35139,0,0,1-4.34581,4.34631Z" transform="translate(-128.1257 -143.86169)" style="fill:#003915"/><path d="M250.49741,157.07339a3.25869,3.25869,0,0,1-3.2545-3.2561v-2.68808a.56783.56783,0,0,1,.5672-.5675h3.5753v-.24521h-3.5753a.81406.81406,0,0,0-.81241.81271v2.68808a3.50408,3.50408,0,0,0,3.49971,3.50079h2.45219a3.5047,3.5047,0,0,0,3.50081-3.50079v-2.68808a.81449.81449,0,0,0-.81351-.81271h-3.57541v.24521h3.57541a.56826.56826,0,0,1,.5683.5675v2.68808a3.25932,3.25932,0,0,1-3.2556,3.2561Z" transform="translate(-128.1257 -143.86169)" style="fill:#003915"/><path d="M251.7242,153.46979a.78346.78346,0,1,0,.7838.78342.78472.78472,0,0,0-.7838-.78342m0,1.32233a.53871.53871,0,1,1,.53911-.53891A.53973.53973,0,0,1,251.7242,154.79211Z" transform="translate(-128.1257 -143.86169)" style="fill:#003915"/><rect x="123.476" y="9.83279" width="0.2449" height="1.11661" style="fill:#003915"/><rect x="123.0401" y="10.26849" width="1.116" height="0.24551" style="fill:#003915"/><path d="M252.06149,149.48541h.4037a.17363.17363,0,0,1,.17291.174v.3793a.17366.17366,0,0,1-.17291.174h-.4037v.245h.4037a.41876.41876,0,0,0,.41811-.419v-.3793a.4187.4187,0,0,0-.41811-.4187h-.4057l.002.03751Zm-1.07719.72729a.1744.1744,0,0,1-.174-.174v-.3793a.17437.17437,0,0,1,.174-.174h.40111v-.20721l.00229-.03751h-.4034a.41854.41854,0,0,0-.41859.4187v.3793a.4186.4186,0,0,0,.41859.419h.40111v-.245Z" transform="translate(-128.1257 -143.86169)" style="fill:#003915"/><path d="M251.7242,148.81781a.461.461,0,0,0-.4612.46039v3.08041a.4605.4605,0,0,0,.921,0V149.2782a.46062.46062,0,0,0-.45981-.46039m0,3.75677a.21674.21674,0,0,1-.21629-.216V149.2782a.2156.2156,0,0,1,.4312,0v3.08041A.21606.21606,0,0,1,251.7242,152.57459Z" transform="translate(-128.1257 -143.86169)" style="fill:#003915"/><path d="M268.11441,162.30219a3.91686,3.91686,0,0,1-3.9115-3.91287V152.724a.67733.67733,0,0,1,.45609-.63931,1.24337,1.24337,0,0,1-.20358-.20489.94573.94573,0,0,0-.52151.84421v5.66531a4.1808,4.1808,0,1,0,8.3616,0V152.724a.94534.94534,0,0,0-.521-.8436,1.241,1.241,0,0,1-.20331.20459.67639.67639,0,0,1,.4556.639v5.66531a3.91713,3.91713,0,0,1-3.91238,3.91287" transform="translate(-128.1257 -143.86169)" style="fill:#003915"/><path d="M270.91809,153.80481H265.3092a.2039.2039,0,0,0-.2012.20148V158.277a3.00655,3.00655,0,1,0,6.01309,0v-4.27072a.20466.20466,0,0,0-.203-.20148m-5.54138.26819h5.476v4.204a2.738,2.738,0,0,1-5.476,0Z" transform="translate(-128.1257 -143.86169)" style="fill:#003915"/><path d="M268.11411,156.53571a1.00815,1.00815,0,1,0,1.00888,1.008,1.01006,1.01006,0,0,0-1.00888-1.008m0,1.74759a.73944.73944,0,1,1,.7399-.73959A.74046.74046,0,0,1,268.11411,158.28329Z" transform="translate(-128.1257 -143.86169)" style="fill:#003915"/><rect x="266.35839" y="154.33841" width="0.26862" height="2.24221" transform="translate(-168.1851 46.40919) rotate(-36.73594)" style="fill:#003915"/><rect x="268.57047" y="155.32518" width="2.2431" height="0.26915" transform="translate(-144.49121 134.36863) rotate(-53.18874)" style="fill:#003915"/><path d="M270.815,148.303h-5.4006a1.35509,1.35509,0,0,0-1.35239,1.35388v1.4743a1.35351,1.35351,0,0,0,1.35239,1.35242h5.4006a1.35321,1.35321,0,0,0,1.35181-1.35242v-1.4743A1.3548,1.3548,0,0,0,270.815,148.303m-5.4006,3.91208a1.08547,1.08547,0,0,1-1.08429-1.08389v-1.4743a1.08591,1.08591,0,0,1,1.08429-1.08508h5.4006a1.0859,1.0859,0,0,1,1.08359,1.08508v1.4743a1.08545,1.08545,0,0,1-1.08359,1.08389Z" transform="translate(-128.1257 -143.86169)" style="fill:#003915"/><path d="M268.11411,149.70529a.68816.68816,0,1,0,.68829.68741.68817.68817,0,0,0-.68829-.68741m0,1.1073a.41925.41925,0,1,1,.41949-.41989A.4195.4195,0,0,1,268.11411,150.81259Z" transform="translate(-128.1257 -143.86169)" style="fill:#003915"/><path d="M282.83731,176.55991h0v7.83949h-11.348v-7.83949Zm.33078,8.1709v-8.5025H271.1582v8.5025Z" transform="translate(-128.1257 -143.86169)" style="fill:#003915"/><path d="M280.44281,176.3354a.60431.60431,0,0,0-.59351-.6125H274.477a.604.604,0,0,0-.59378.6125h.33078a.26967.26967,0,0,1,.263-.2809h5.37231a.26942.26942,0,0,1,.2627.2809Z" transform="translate(-128.1257 -143.86169)" style="fill:#003915"/><path d="M278.185,178.962h0v2.70769l-1.59729.62161a2.47373,2.47373,0,0,1,.09189-1.67471,4.15413,4.15413,0,0,0,.24121-1.24069,2.44929,2.44929,0,0,0-.1882-.9366Zm.33081,2.9341v-3.16681l-2.48-.89209.22479.39059a2.26605,2.26605,0,0,1,.32941,1.1481,3.89019,3.89019,0,0,1-.22681,1.14369,3.90127,3.90127,0,0,0-.22818,1.1441,2.01818,2.01818,0,0,0,.218.91251l.0675.1358Z" transform="translate(-128.1257 -143.86169)" style="fill:#003915"/><path d="M241.69859,150.45428V180.5392a2.161,2.161,0,0,1-2.1657,2.1515H229.1216a2.161,2.161,0,0,1-2.166-2.1515V150.45428a2.161,2.161,0,0,1,2.166-2.15128h10.4113a2.161,2.161,0,0,1,2.1657,2.15128M227.1855,180.5392a1.9311,1.9311,0,0,0,1.9361,1.92191h10.4113a1.931,1.931,0,0,0,1.9355-1.92191V150.45428a1.93142,1.93142,0,0,0-1.9355-1.92218H229.1216a1.93155,1.93155,0,0,0-1.9361,1.92218Z" transform="translate(-128.1257 -143.86169)" style="fill:#003915"/><path d="M228.44749,177.5535a2.577,2.577,0,0,0,2.58211,2.56531h6.5948a2.57659,2.57659,0,0,0,2.5818-2.56531V153.44031a2.57718,2.57718,0,0,0-2.5818-2.566h-2.0619a.39655.39655,0,0,0,.142-.22809h1.91991a2.80639,2.80639,0,0,1,2.8125,2.7941V177.5535a2.80664,2.80664,0,0,1-2.8125,2.7944h-6.5948a2.8066,2.8066,0,0,1-2.8123-2.7944V153.44031a2.80635,2.80635,0,0,1,2.8123-2.7941h1.9202a.39514.39514,0,0,0,.1414.22809h-2.0616a2.57757,2.57757,0,0,0-2.58211,2.566Z" transform="translate(-128.1257 -143.86169)" style="fill:#003915"/><path d="M229.7608,176.006a1.26666,1.26666,0,0,0,1.2688,1.2612h6.5948a1.26633,1.26633,0,0,0,1.26819-1.2612V153.44031a1.26613,1.26613,0,0,0-1.26819-1.26141H234.7795v-.22879h2.84491a1.49613,1.49613,0,0,1,1.4989,1.4902V176.006a1.49564,1.49564,0,0,1-1.4989,1.4894h-6.5948a1.49534,1.49534,0,0,1-1.499-1.4894V153.44031a1.49583,1.49583,0,0,1,1.499-1.4902h2.84509v.22879H231.0296a1.26646,1.26646,0,0,0-1.2688,1.26141Z" transform="translate(-128.1257 -143.86169)" style="fill:#003915"/><path d="M235.05991,155.3454a.73336.73336,0,1,1-.73361-.72989.73161.73161,0,0,1,.73361.72989m-1.23651,0a.50331.50331,0,1,0,.5029-.50031A.50187.50187,0,0,0,233.82339,155.3454Z" transform="translate(-128.1257 -143.86169)" style="fill:#003915"/><rect x="105.6781" y="11.36859" width="1.0457" height="0.2294" style="fill:#003915"/><rect x="106.08521" y="10.96442" width="0.2307" height="1.03778" style="fill:#003915"/><path d="M234.7795,150.8454h.53751a.27983.27983,0,0,0,.2803-.27859v-.5051a.28035.28035,0,0,0-.2803-.2793h-.53751v-.2287h.53751a.51033.51033,0,0,1,.51109.508v.5051a.50969.50969,0,0,1-.51109.50739h-.53751Zm-1.722-.27859a.27976.27976,0,0,0,.28.27859h.5372v.22879h-.5372a.5093.5093,0,0,1-.51079-.50739v-.5051a.50994.50994,0,0,1,.51079-.508h.5372v.2287h-.5372a.28028.28028,0,0,0-.28.2793Z" transform="translate(-128.1257 -143.86169)" style="fill:#003915"/><path d="M234.8949,149.55569v3.20111a.56766.56766,0,0,1-1.1353,0v-3.20111a.56766.56766,0,0,1,1.1353,0m-.90509,3.20111a.3372.3372,0,0,0,.67439,0v-3.20111a.3372.3372,0,0,0-.67439,0Z" transform="translate(-128.1257 -143.86169)" style="fill:#003915"/><path d="M277.42389,230.17551v11.7692h-11.7688v-11.7692Zm-.24939,11.51979V230.4247H265.9039v11.2706Z" transform="translate(-128.1257 -143.86169)" style="fill:#003915"/><path d="M266.7532,236.06a3.91956,3.91956,0,0,0,7.7142.9816.3.3,0,0,0,.1976.07431h.0405a4.16847,4.16847,0,1,1,.00031-2.11151h-.0408a.29833.29833,0,0,0-.1973.0739,3.91975,3.91975,0,0,0-7.71451.9817" transform="translate(-128.1257 -143.86169)" style="fill:#003915"/><path d="M274.1539,236.06a3.48151,3.48151,0,1,1-3.48181-3.4812,3.48577,3.48577,0,0,1,3.48181,3.4812m-6.71359,0a3.23195,3.23195,0,1,0,3.23178-3.2318A3.23555,3.23555,0,0,0,267.44031,236.06Z" transform="translate(-128.1257 -143.86169)" style="fill:#003915"/><path d="M271.57459,236.06a.90224.90224,0,1,1-.9025-.9026.9033.9033,0,0,1,.9025.9026m-1.55557,0a.65294.65294,0,1,0,.65308-.65309A.65424.65424,0,0,0,270.019,236.06Z" transform="translate(-128.1257 -143.86169)" style="fill:#003915"/><rect x="141.88989" y="92.07361" width="1.31381" height="0.24939" style="fill:#003915"/><rect x="142.422" y="91.5415" width="0.24969" height="1.3136" style="fill:#003915"/><path d="M275.47879,235.3063v1.5074a.427.427,0,0,1-.42661.42659H274.665a.4268.4268,0,0,1-.42661-.42659v-1.5074a.4269.4269,0,0,1,.42661-.42671h.38718a.42707.42707,0,0,1,.42661.42671m-.991,1.5074a.17774.17774,0,0,0,.17722.17749h.38718a.17754.17754,0,0,0,.17722-.17749v-1.5074a.17729.17729,0,0,0-.17722-.1772H274.665a.17748.17748,0,0,0-.17722.1772Z" transform="translate(-128.1257 -143.86169)" style="fill:#003915"/><path d="M275.3541,236.28h.0864a.2197.2197,0,1,0,0-.43939h-.0864v-.24971h.0864a.4694.4694,0,0,1,0,.9388h-.0864Zm-2.59-.22a.22049.22049,0,0,0,.22049.22h1.37851v.24969h-1.37851a.4694.4694,0,1,1,0-.9388h1.37851v.24971h-1.37851A.22.22,0,0,0,272.7641,236.06Z" transform="translate(-128.1257 -143.86169)" style="fill:#003915"/><path d="M276.9426,258.8403v-7.1566a1.49611,1.49611,0,0,0-1.49469-1.49409H267.1492a1.49593,1.49593,0,0,0-1.49411,1.49409v7.1566a1.49564,1.49564,0,0,0,1.49411,1.4942h8.29871a1.49582,1.49582,0,0,0,1.49469-1.4942m-11.0545-7.1566a1.26263,1.26263,0,0,1,1.26111-1.26111h8.29871a1.26275,1.26275,0,0,1,1.26169,1.26111v7.1566a1.263,1.263,0,0,1-1.26169,1.2617H267.1492a1.26288,1.26288,0,0,1-1.26111-1.2617Z" transform="translate(-128.1257 -143.86169)" style="fill:#003915"/><path d="M276.12369,258.8403v-7.1566a.67622.67622,0,0,0-.67578-.6758h-7.01062a.67635.67635,0,0,0-.67578.6758v7.1566a.67648.67648,0,0,0,.67578.67639h7.01062a.67634.67634,0,0,0,.67578-.67639m-8.12918-7.1566a.44324.44324,0,0,1,.44278-.4431h7.01062a.44356.44356,0,0,1,.44308.4431v7.1566a.44385.44385,0,0,1-.44308.44389h-7.01062a.44353.44353,0,0,1-.44278-.44389Z" transform="translate(-128.1257 -143.86169)" style="fill:#003915"/><path d="M267.3428,252.3839a.47426.47426,0,1,0-.47421.4742.475.475,0,0,0,.47421-.4742m-.71552,0a.24126.24126,0,1,1,.2413.2415A.24187.24187,0,0,1,266.62729,252.3839Z" transform="translate(-128.1257 -143.86169)" style="fill:#003915"/><path d="M267.3428,253.9846a.47426.47426,0,1,0-.47421.47479.475.475,0,0,0,.47421-.47479m-.71552,0a.24126.24126,0,1,1,.2413.24179A.24156.24156,0,0,1,266.62729,253.9846Z" transform="translate(-128.1257 -143.86169)" style="fill:#003915"/><rect x="145.6228" y="108.07541" width="0.23279" height="2.71959" style="fill:#003915"/><rect x="144.3801" y="109.319" width="2.7196" height="0.23271" style="fill:#003915"/><path d="M274.7619,253.29691a.89685.89685,0,1,0-.89691.89659.89791.89791,0,0,0,.89691-.89659m-1.561,0a.66431.66431,0,1,1,.66409.66389A.66554.66554,0,0,1,273.2009,253.29691Z" transform="translate(-128.1257 -143.86169)" style="fill:#003915"/><rect x="141.77789" y="108.07541" width="0.23251" height="2.71959" style="fill:#003915"/><rect x="140.53439" y="109.319" width="2.7204" height="0.23271" style="fill:#003915"/><path d="M270.9176,253.29691a.8972.8972,0,1,0-.89749.89659.8986.8986,0,0,0,.89749-.89659m-1.56189,0a.66469.66469,0,1,1,.6644.66389A.6654.6654,0,0,1,269.35571,253.29691Z" transform="translate(-128.1257 -143.86169)" style="fill:#003915"/><rect x="145.6228" y="112.00621" width="0.23279" height="2.7193" style="fill:#003915"/><rect x="144.3801" y="113.2498" width="2.7196" height="0.233" style="fill:#003915"/><path d="M274.7619,257.228a.89685.89685,0,1,0-.89691.8969.89777.89777,0,0,0,.89691-.8969m-1.561,0a.66431.66431,0,1,1,.66409.66391A.666.666,0,0,1,273.2009,257.228Z" transform="translate(-128.1257 -143.86169)" style="fill:#003915"/><rect x="141.77789" y="112.00621" width="0.23251" height="2.7193" style="fill:#003915"/><rect x="140.53439" y="113.2498" width="2.7204" height="0.233" style="fill:#003915"/><path d="M270.9176,257.228a.8972.8972,0,1,0-.89749.8969.89847.89847,0,0,0,.89749-.8969m-1.56189,0a.66469.66469,0,1,1,.6644.66391A.66591.66591,0,0,1,269.35571,257.228Z" transform="translate(-128.1257 -143.86169)" style="fill:#003915"/><path d="M267.3428,256.6982a.47426.47426,0,1,0-.47421.4745.47485.47485,0,0,0,.47421-.4745m-.71552,0a.24126.24126,0,1,1,.2413.24181A.24169.24169,0,0,1,266.62729,256.6982Z" transform="translate(-128.1257 -143.86169)" style="fill:#003915"/><path d="M267.3428,258.2998a.47426.47426,0,1,0-.47421.47389.47468.47468,0,0,0,.47421-.47389m-.71552,0a.24126.24126,0,1,1,.2413.2415A.24163.24163,0,0,1,266.62729,258.2998Z" transform="translate(-128.1257 -143.86169)" style="fill:#003915"/><path d="M281.81369,150.4928a.80927.80927,0,1,1,.23471-.57089.80976.80976,0,0,1-.23471.57089m-.5726,1.03641a1.60729,1.60729,0,1,0-1.13638-.47061A1.60272,1.60272,0,0,0,281.24109,151.52921Z" transform="translate(-128.1257 -143.86169)" style="fill:#003915"/><path d="M275.42661,222.3389a.80921.80921,0,1,0-.23471-.57089.81022.81022,0,0,0,.23471.57089m.5726,1.0363a1.6069,1.6069,0,1,1,1.13651-.4705A1.60285,1.60285,0,0,1,275.99921,223.3752Z" transform="translate(-128.1257 -143.86169)" style="fill:#003915"/><path d="M254.0341,281.33521a1.61451,1.61451,0,0,1,.60519,0Z" transform="translate(-128.1257 -143.86169)" style="fill:#003915"/><rect x="117.07401" y="64.2016" width="8.57819" height="8.7659" style="fill:#003915"/><path d="M276.16049,156.90619v2.98032h3.07281v-2.98032Zm0-4.2894v2.98041h6.9574v-2.98041Zm3.88461,4.2894v2.98032h3.07278v-2.98032Zm-4.89682,3.99911h9.56442V151.968h-9.56442Z" transform="translate(-128.1257 -143.86169)" style="fill:#003915;fill-rule:evenodd"/><path d="M272.776,223.8503h-2.98041V220.7776H272.776Zm5.1037,0H274.085V216.893h3.79471Zm-5.1037-3.8846h-2.98041V216.893H272.776Zm-3.99912,4.8969V215.2982h10.6015v9.56439Z" transform="translate(-128.1257 -143.86169)" style="fill:#003915;fill-rule:evenodd"/><path d="M149.42011,250.9164c-.7319,0-1.2359-.618-1.2359-1.7399s.504-1.7399,1.2359-1.7399,1.2359.6179,1.2359,1.7399-.504,1.7399-1.2359,1.7399m0,.396c.972,0,1.67979-.798,1.67979-2.13589s-.70779-2.13589-1.67979-2.13589-1.6738.7979-1.6738,2.13589S148.4481,251.31239,149.42011,251.31239Zm-2.0701-1.5239h-.8399v-.972h-.4198v.972h-1.8241l2.1481-2.7119h-.48021l-2.2258,2.78391v.3118h2.3698v1.1041h.432v-1.1041h.8399Zm-4.4337.864a.314.314,0,0,0-.318.324.303.303,0,0,0,.216.3058l-.2041.87h.288l.252-.828a.97632.97632,0,0,0,.0842-.34779A.314.314,0,0,0,142.91631,250.6525Zm-2.2861-1.77589,1.188-1.4942v-.3058h-2.7v.3838h2.1481l-1.16389,1.4581v.3181h.2999c.7798,0,1.1338.3299,1.1338.83389,0,.5219-.3838.8459-1.08.8459a1.841,1.841,0,0,1-1.3019-.4859l-.2101.3419a2.18512,2.18512,0,0,0,1.512.54c1.014,0,1.5239-.54,1.5239-1.2419C141.98,249.39841,141.5302,248.9245,140.6302,248.8766Z" transform="translate(-128.1257 -143.86169)" style="fill:#6e6e6e;fill-rule:evenodd"/><path d="M249.34821,244.91631c-.7319,0-1.2359-.618-1.2359-1.7399s.504-1.73991,1.2359-1.73991,1.2359.6179,1.2359,1.73991-.504,1.7399-1.2359,1.7399m0,.396c.972,0,1.67979-.798,1.67979-2.13589s-.70779-2.13591-1.67979-2.13591-1.6739.7979-1.6739,2.13591S248.37621,245.3123,249.34821,245.3123Zm-3.966-2.5141h-.54l.144-1.33791h1.91989v-.3838h-2.2977l-.216,2.1058h.894c1.06779,0,1.40369.33591,1.40369.8759,0,.51-.37779.85811-1.09189.85811a1.821,1.821,0,0,1-1.29-.4859l-.20979.34189a2.16858,2.16858,0,0,0,1.5058.54c1.02609,0,1.5239-.55791,1.5239-1.2719C247.1281,243.2963,246.64819,242.7982,245.3822,242.7982Zm-2.0457,1.8542a.31407.31407,0,0,0-.3181.324.30312.30312,0,0,0,.216.3058l-.2041.87h.288l.252-.828a.976.976,0,0,0,.0842-.34781A.314.314,0,0,0,243.3365,244.6524Zm-2.6221.2939c-.74409,0-1.182-.324-1.182-.8461,0-.5159.43791-.8399,1.182-.8399.74381,0,1.188.324,1.188.8399C241.9024,244.6223,241.45821,244.9463,240.7144,244.9463Zm-1.038-2.78391c0-.468.40189-.756,1.038-.756.6299,0,1.044.288,1.044.762,0,.4561-.39.75-1.044.75S239.67641,242.6245,239.67641,242.1624Zm1.8479.9119a.95106.95106,0,0,0,.67209-.9238c0-.684-.59419-1.11-1.482-1.11-.88811,0-1.47.426-1.47,1.11a.94765.94765,0,0,0,.6599.9238,1.04828,1.04828,0,0,0-.80989,1.0321c0,.7438.612,1.2059,1.62,1.2059,1.00211,0,1.6319-.4621,1.6319-1.2059A1.0577,1.0577,0,0,0,241.52431,243.0743Zm-4.83-1.9978v.3838h.99019v3.816h.432v-4.19981Z" transform="translate(-128.1257 -143.86169)" style="fill:#6e6e6e;fill-rule:evenodd"/><path d="M270.26221,199.4162c-.7319,0-1.2359-.6179-1.2359-1.7399s.504-1.7399,1.2359-1.7399,1.2359.618,1.2359,1.7399-.504,1.7399-1.2359,1.7399m0,.396c.972,0,1.67978-.7979,1.67978-2.13589s-.70779-2.13589-1.67978-2.13589-1.67392.798-1.67392,2.13589S269.29019,199.81219,270.26221,199.81219Zm-3.96591-2.514h-.54l.144-1.338h1.91989v-.3838H265.5224l-.216,2.1059h.894c1.0679,0,1.40378.33591,1.40378.8759,0,.5099-.3779.858-1.09189.858a1.82168,1.82168,0,0,1-1.2901-.48579l-.20981.3418a2.16823,2.16823,0,0,0,1.5058.54c1.02612,0,1.52393-.5578,1.52393-1.2719C268.04211,197.7962,267.56219,197.2982,266.2963,197.2982Zm-2.04581,1.8541a.31414.31414,0,0,0-.31808.324.30323.30323,0,0,0,.216.30589l-.2041.8699h.288l.252-.828a.9759.9759,0,0,0,.0842-.34779A.314.314,0,0,0,264.25049,199.1523Zm-3.24.23981,1.4281-1.4037a1.729,1.729,0,0,0,.68991-1.3141c0-.7019-.54-1.1339-1.39212-1.1339a1.88736,1.88736,0,0,0-1.48788.59979l.30591.26421a1.42623,1.42623,0,0,1,1.146-.468c.64209,0,.98389.2999.98389.7861,0,.28769-.08978.5697-.56378,1.03769l-1.74612,1.71021v.3058h2.946v-.38409Z" transform="translate(-128.1257 -143.86169)" style="fill:#6e6e6e;fill-rule:evenodd"/><path d="M263.62231,171.4162c-.7319,0-1.2359-.618-1.2359-1.7399s.504-1.7399,1.2359-1.7399,1.23587.61789,1.23587,1.7399-.504,1.7399-1.23587,1.7399m0,.396c.972,0,1.67978-.798,1.67978-2.13589s-.70779-2.13589-1.67978-2.13589-1.67383.79788-1.67383,2.13589S262.6503,171.81219,263.62231,171.81219Zm-3.90582-.366c-.74408,0-1.1821-.324-1.1821-.8461,0-.5159.438-.8399,1.1821-.8399.7438,0,1.188.324,1.188.8399C260.90451,171.12219,260.4603,171.4462,259.71649,171.4462Zm-1.03809-2.78391c0-.468.402-.756,1.03809-.756.62982,0,1.044.288,1.044.762,0,.45609-.39011.75-1.044.75S258.67841,169.12439,258.67841,168.66229Zm1.8479.91191a.95106.95106,0,0,0,.67209-.92381c0-.684-.59409-1.11-1.4819-1.11-.88809,0-1.47009.426-1.47009,1.11a.94777.94777,0,0,0,.65991.92381,1.04827,1.04827,0,0,0-.80981,1.03209c0,.7438.612,1.2059,1.62,1.2059,1.002,0,1.6319-.4621,1.6319-1.2059A1.05777,1.05777,0,0,0,260.52631,169.5742Zm-3.40781,1.57809a.314.314,0,0,0-.318.324.303.303,0,0,0,.216.3058l-.2041.87h.288l.252-.828a.9759.9759,0,0,0,.08423-.34779A.314.314,0,0,0,257.1185,171.1523Zm-.8461-.864h-.8399v-.972h-.4198v.972h-1.8241l2.1481-2.71191h-.48019l-2.2258,2.78392v.3118h2.3698v1.1041h.432v-1.1041h.8399Z" transform="translate(-128.1257 -143.86169)" style="fill:#6e6e6e;fill-rule:evenodd"/><path d="M181.292,177.16631c-.7319,0-1.2359-.618-1.2359-1.74s.504-1.7399,1.2359-1.7399,1.23589.618,1.23589,1.7399-.504,1.74-1.23589,1.74m0,.396c.972,0,1.67979-.798,1.67979-2.136s-.70779-2.13589-1.67979-2.13589-1.67381.798-1.67381,2.13589S180.32,177.5623,181.292,177.5623Zm-4.098-4.2359v.3839h.9901v3.816h.432V173.3264Zm-.61169,3.5759a.31414.31414,0,0,0-.3181.324.30314.30314,0,0,0,.216.30589l-.2041.87h.288l.252-.828a.97651.97651,0,0,0,.0842-.3479A.314.314,0,0,0,176.58231,176.9023Zm-2.28621-1.77589,1.188-1.49411v-.30589h-2.7v.3839h2.1481l-1.16391,1.4581v.318h.29991c.7798,0,1.1339.33,1.1339.834,0,.5219-.3838.8459-1.08.8459a1.84131,1.84131,0,0,1-1.302-.4859l-.21.34189a2.18487,2.18487,0,0,0,1.512.54c1.0139,0,1.5239-.54,1.5239-1.2419C175.646,175.6483,175.19611,175.1743,174.2961,175.1264Zm-3.852-1.8v.3839h.99019v3.816h.432V173.3264Z" transform="translate(-128.1257 -143.86169)" style="fill:#6e6e6e;fill-rule:evenodd"/><path d="M284.94312,193.1942a3.90785,3.90785,0,1,0,3.9079,3.90761,3.908,3.908,0,0,0-3.9079-3.90761" transform="translate(-128.1257 -143.86169)" style="fill:#558e42;fill-rule:evenodd"/><polygon points="154.414 53.24 155.728 52.862 157.043 52.484 157.043 53.24 157.043 53.997 155.728 53.619 154.414 53.24" style="fill:#fdfdfd;fill-rule:evenodd"/><rect x="156.94019" y="53.0612" width="2.28131" height="0.38411" style="fill:#fdfdfd"/><rect x="127.92358" y="135.85181" width="1.32291" height="1.6217" style="fill:#003915"/><path d="M179.22929,152.22559l.6927-.87128v-.17862h-1.57489v.22391H179.6l-.67891.85071v.18539h.1749c.45531,0,.66161.19241.66161.48639,0,.30441-.22389.4935-.62979.4935a1.07394,1.07394,0,0,1-.7597-.28348l-.1225.19958a1.2747,1.2747,0,0,0,.8822.31491c.59129,0,.88889-.31491.88889-.72452,0-.392-.2625-.6684-.7874-.6965m-2.4957,1.17612.8331-.81891a1.00793,1.00793,0,0,0,.4026-.76651c0-.40958-.315-.66159-.81219-.66159a1.10077,1.10077,0,0,0-.8679.3501l.1785.1539a.83238.83238,0,0,1,.6685-.273c.3744,0,.574.1749.574.45837,0,.16812-.05251.33252-.32881.6055l-1.01849.99753v.17859h1.71831v-.224Zm-.9099-.14a.18317.18317,0,0,0-.18539.18912.17673.17673,0,0,0,.1259.17828l-.11911.5076h.16811l.14709-.483a.57391.57391,0,0,0,.0491-.20288A.18323.18323,0,0,0,175.8237,153.26169Zm-.49319-.504h-.49011v-.56689h-.24489v.56689H173.5313l1.253-1.582h-.2798l-1.2986,1.6239v.182h1.38249v.6441h.252v-.6441h.49011Z" transform="translate(-128.1257 -143.86169)" style="fill:#434242"/><path d="M219.1277,274.1658c-.4268,0-.7211-.3605-.7211-1.0148,0-.6545.2943-1.015.7211-1.015s.7209.3605.7209,1.015c0,.6543-.294,1.0148-.7209,1.0148m0,.23109c.567,0,.98-.4655.98-1.2459,0-.78061-.413-1.24611-.98-1.24611s-.9765.4655-.9765,1.24611C218.1512,273.9314,218.56081,274.3969,219.1277,274.3969Zm-2.317-.23109c-.4269,0-.7211-.3605-.7211-1.0148,0-.6545.2942-1.015.7211-1.015s.7209.3605.7209,1.015C217.5316,273.8053,217.23759,274.1658,216.8107,274.1658Zm0,.23109c.56689,0,.9799-.4655.9799-1.2459,0-.78061-.413-1.24611-.9799-1.24611s-.9765.4655-.9765,1.24611C215.8342,273.9314,216.2438,274.3969,216.8107,274.3969Zm-1.48759-.385a.18317.18317,0,0,0-.18541.1891.17666.17666,0,0,0,.1259.1783l-.11909.50769h.16811l.14709-.483a.5745.5745,0,0,0,.0491-.203A.18321.18321,0,0,0,215.3231,274.0119Zm-1.52931-1.08141h-.3149l.08391-.7807h1.11989v-.22389h-1.3405l-.12579,1.2285h.5213c.623,0,.8192.19589.8192.51109,0,.29741-.2206.50031-.63721.50031a1.06166,1.06166,0,0,1-.7524-.2834l-.12239.19949a1.26438,1.26438,0,0,0,.87839.315c.5984,0,.889-.32539.889-.7419C214.8123,273.22079,214.5322,272.9305,213.79379,272.9305Z" transform="translate(-128.1257 -143.86169)" style="fill:#434242"/><path d="M148.14771,273.1788c-.3779,0-.616-.2063-.616-.5284a.53632.53632,0,0,1,.59871-.532c.42349,0,.6474.25571.6474.525a.56705.56705,0,0,1-.6301.5354m-.0278-1.27391a.76324.76324,0,0,0-.8365.75261.7416.7416,0,0,0,.826.7348.78278.78278,0,0,0,.7489-.4198c.0071.07339.0105.1434.0105.19949,0,.665-.3396,1.0043-.868,1.0043a.85882.85882,0,0,1-.47589-.1153l-.1015.2029a1.12391,1.12391,0,0,0,.5808.133c.665,0,1.12-.434,1.12-1.26709C149.12421,272.35651,148.77071,271.90489,148.1199,271.90489Zm-2.177.021v.22389h.57739v2.2261h.252v-2.45Zm-.3569,2.086a.18316.18316,0,0,0-.18539.1891.17666.17666,0,0,0,.1259.1783l-.11911.50769h.16811l.14709-.483a.57417.57417,0,0,0,.0491-.203A.18321.18321,0,0,0,145.586,274.0119Zm-1.6064-2.086v.22389h.57741v2.2261h.252v-2.45Z" transform="translate(-128.1257 -143.86169)" style="fill:#434242"/><path d="M257.07541,182.6655c-.42691,0-.7211-.3606-.7211-1.0148,0-.6546.29419-1.01509.7211-1.01509s.72089.36049.72089,1.01509c0,.65421-.294,1.0148-.72089,1.0148m0,.231c.567,0,.98-.4655.98-1.2458,0-.7807-.413-1.24609-.98-1.24609s-.9765.46539-.9765,1.24609C256.09891,182.431,256.50851,182.8965,257.07541,182.8965Zm-2.317-1.21809c-.37791,0-.616-.2063-.616-.52831a.53634.53634,0,0,1,.59871-.5321c.42349,0,.6474.25571.6474.525A.56705.56705,0,0,1,254.75841,181.67841Zm-.0278-1.2738a.76317.76317,0,0,0-.8365.75259.74158.74158,0,0,0,.826.73471.78249.78249,0,0,0,.7489-.4198c.00711.07339.01051.14339.01051.19949,0,.665-.33961,1.00439-.8679,1.00439a.85929.85929,0,0,1-.476-.1154l-.1015.20291a1.12439,1.12439,0,0,0,.5809.133c.665,0,1.11989-.434,1.11989-1.26711C255.73489,180.85609,255.38139,180.4046,254.73061,180.4046Zm-1.31271,2.1069a.18316.18316,0,0,0-.18539.18909.17668.17668,0,0,0,.1259.17831l-.11909.50769h.16809l.14711-.483a.57436.57436,0,0,0,.0491-.203A.18327.18327,0,0,0,253.41789,182.51151Zm-1.8902.14009.83321-.819a1.00756,1.00756,0,0,0,.4025-.7664c0-.40959-.315-.66159-.81219-.66159a1.10107,1.10107,0,0,0-.8679.35l.1786.154a.832.832,0,0,1,.6684-.273c.3744,0,.574.1749.574.4583,0,.16809-.05251.3325-.3288.6055l-1.01851.9975v.1786h1.71831v-.22391Z" transform="translate(-128.1257 -143.86169)" style="fill:#434242"/><line x1="43.81709" y1="8.604" x2="8.1601" y2="8.604" style="fill:none;stroke:#b1b2b2;stroke-miterlimit:22.92558479309082;stroke-width:0.2160000056028366px"/><line x1="83.81709" y1="129.35431" x2="40.3773" y2="129.35431" style="fill:none;stroke:#b1b2b2;stroke-miterlimit:22.92558479309082;stroke-width:0.2160000056028366px"/><line x1="13.8172" y1="129.35431" x2="7.0688" y2="129.35431" style="fill:none;stroke:#b1b2b2;stroke-miterlimit:22.92558479309082;stroke-width:0.2160000056028366px"/><line x1="121.8172" y1="37.85391" x2="99.3781" y2="37.85391" style="fill:none;stroke:#b1b2b2;stroke-miterlimit:22.92558479309082;stroke-width:0.2160000056028366px"/><line x1="92.0032" y1="8.604" x2="53.2562" y2="8.604" style="fill:none;stroke:#b1b2b2;stroke-miterlimit:22.92558479309082;stroke-width:0.2160000056028366px"/><line x1="149.754" y1="129.35431" x2="93.2562" y2="129.35431" style="fill:none;stroke:#b1b2b2;stroke-miterlimit:22.92558479309082;stroke-width:0.2160000056028366px"/><line x1="30.0047" y1="129.35431" x2="23.2563" y2="129.35431" style="fill:none;stroke:#b1b2b2;stroke-miterlimit:22.92558479309082;stroke-width:0.2160000056028366px"/><line x1="154.12851" y1="37.85391" x2="131.25629" y2="37.85391" style="fill:none;stroke:#b1b2b2;stroke-miterlimit:22.92558479309082;stroke-width:0.2160000056028366px"/><path d="M259.90891,244.5038h.224v-.57739h2.226v-.252h-2.45Zm2.24,1.18291c0,.4269-.3606.72119-1.0148.72119-.65448,0-1.01511-.2943-1.01511-.72119s.36063-.72081,1.01511-.72081C261.7883,244.9659,262.1489,245.2598,262.1489,245.68671Zm.231,0c0-.56691-.46542-.9799-1.24582-.9799-.7807,0-1.24609.413-1.24609.9799s.46539.97659,1.24609.97659C261.91449,246.6633,262.37991,246.25369,262.37991,245.68671Zm-.38492,1.48759a.18314.18314,0,0,0,.189.18539.17662.17662,0,0,0,.17831-.12579l.50769.119v-.16811l-.483-.14709a.57535.57535,0,0,0-.203-.049A.18316.18316,0,0,0,261.995,247.1743Zm-1.0361,1.3335-.8714-.69279h-.17859v1.57489h.224V248.137l.85071.67891h.1853v-.1749c0-.4552.19247-.66161.48648-.66161.30441,0,.4935.22389.4935.62979a1.07416,1.07416,0,0,1-.28351.7597l.19962.1225a1.2753,1.2753,0,0,0,.31491-.8822c0-.59129-.31491-.88889-.72452-.88889C261.26331,247.72031,260.987,247.9828,260.95889,248.5078Z" transform="translate(-128.1257 -143.86169)" style="fill:#434242"/><path d="M173.1487,249.535c0,.4269-.3606.72119-1.0148.72119-.6546,0-1.01509-.2943-1.01509-.72119s.36049-.72081,1.01509-.72081c.65421,0,1.0148.2939,1.0148.72081m.231,0c0-.56691-.4655-.9799-1.2458-.9799-.7807,0-1.2462.413-1.2462.9799s.4655.97659,1.2462.97659C172.9142,250.5116,173.3797,250.102,173.3797,249.535Zm-.2449,2.6252-.819-.8331a1.00756,1.00756,0,0,0-.7664-.4025c-.4097,0-.6617.3149-.6617.81209a1.10136,1.10136,0,0,0,.3501.868l.1539-.1786a.83228.83228,0,0,1-.27289-.6684c0-.37451.1749-.574.4583-.574.16809,0,.3325.0524.6055.3288l.9975,1.01851h.1786v-1.7184h-.22391Zm-.14009.9099a.18316.18316,0,0,0,.1891.18539.1767.1767,0,0,0,.1783-.12579l.50769.119v-.16811l-.483-.14709a.57372.57372,0,0,0-.203-.049A.18318.18318,0,0,0,172.99471,253.0701Zm-1.036,1.3334-.8714-.6927h-.17859v1.57491h.224v-1.2529l.8506.67889h.18539v-.1749c0-.45531.1925-.66161.4864-.66161.30449,0,.49359.22391.49359.62981a1.07434,1.07434,0,0,1-.28349.75969l.1996.12251a1.27522,1.27522,0,0,0,.3149-.8822c0-.59131-.3149-.8889-.72459-.8889C172.26311,253.6161,171.98669,253.8786,171.95869,254.4035Z" transform="translate(-128.1257 -143.86169)" style="fill:#434242"/><path d="M138.1657,235.83949c0,.4234-.2554.64771-.5249.64771a.56727.56727,0,0,1-.53549-.6302c0-.37779.20641-.61589.5284-.61589a.536.536,0,0,1,.532.59839m-1.2739-.021a.78363.78363,0,0,0,.41991.74921c-.0735.00679-.14351.0105-.1996.0105-.6647,0-1.0043-.3396-1.0043-.868a.86057.86057,0,0,1,.1153-.47621l-.2029-.1015a1.1258,1.1258,0,0,0-.133.5811c0,.665.434,1.12,1.26709,1.12.7733,0,1.2249-.3535,1.2249-1.00461a.76334.76334,0,0,0-.75259-.8365A.74171.74171,0,0,0,136.8918,235.8185Zm.2693,2.35561c0,.37779-.2063.61589-.52831.61589a.53629.53629,0,0,1-.5321-.59859c0-.42351.25571-.64751.525-.64751A.56709.56709,0,0,1,137.1611,238.1741Zm-1.2739.02769a.76317.76317,0,0,0,.75259.8365.7416.7416,0,0,0,.7348-.826.78278.78278,0,0,0-.4198-.7489c.07339-.0071.1434-.0105.19949-.0105.665,0,1.0043.3396,1.0043.868a.85884.85884,0,0,1-.1153.47591l.2029.1015a1.12391,1.12391,0,0,0,.133-.5808c0-.665-.434-1.12-1.26709-1.12C136.33881,237.19749,135.88721,237.551,135.88721,238.2018Zm2.107,1.31281a.18317.18317,0,0,0,.1891.18539.17675.17675,0,0,0,.1783-.1259l.50769.11911v-.16811l-.483-.1472a.5759.5759,0,0,0-.203-.049A.18321.18321,0,0,0,137.9942,239.5146Zm.14009,1.89009-.819-.8331a1.0076,1.0076,0,0,0-.7664-.4025c-.4097,0-.6617.3149-.6617.8121a1.1013,1.1013,0,0,0,.3501.868l.1539-.1786a.83225.83225,0,0,1-.2729-.6684c0-.3745.1749-.574.4583-.574.16811,0,.3325.05241.6055.32881l.9975,1.01849h.1786v-1.7184h-.22391Z" transform="translate(-128.1257 -143.86169)" style="fill:#434242"/><path d="M141.1347,177.16541l-.81891-.8331a1.00773,1.00773,0,0,0-.76649-.40251c-.40961,0-.66161.31491-.66161.8121a1.10133,1.10133,0,0,0,.3501.868l.1539-.17859a.832.832,0,0,1-.273-.66841c0-.3745.1749-.574.4584-.574.16809,0,.3325.0524.6055.3288l.9975,1.01849h.1786v-1.7184h-.224Zm-2.226,1.73929h.22389v-.57739h2.2261v-.252h-2.45Zm2.086.3569a.18317.18317,0,0,0,.1891.18541.17672.17672,0,0,0,.1783-.12581l.50769.119v-.16811l-.48309-.14709a.5729.5729,0,0,0-.2029-.049A.18318.18318,0,0,0,140.99471,179.2616Zm-1.0361,1.3334-.87131-.6927h-.17859v1.57491h.22389v-1.2529l.85071.67889h.18539v-.1749c0-.45531.1925-.66161.4864-.66161.30449,0,.4935.22391.4935.62981a1.07427,1.07427,0,0,1-.2834.75969l.19949.12251a1.27477,1.27477,0,0,0,.315-.8822c0-.59131-.315-.8889-.72459-.8889C140.26311,179.8076,139.98669,180.0701,139.9586,180.595Z" transform="translate(-128.1257 -143.86169)" style="fill:#434242"/><path d="M246.6488,166.0108c0,.42691-.36061.7211-1.0148.7211-.6546,0-1.01511-.29419-1.01511-.7211s.3605-.72092,1.01511-.72092c.65419,0,1.0148.294,1.0148.72092m.231,0c0-.56689-.4655-.97989-1.2458-.97989-.7807,0-1.2462.413-1.2462.97989s.4655.9765,1.2462.9765C246.41431,166.9873,246.87981,166.5777,246.87981,166.0108Zm-.2135,2.2785c0,.434-.189.68939-.4935.68939-.301,0-.49011-.2554-.49011-.68939s.1891-.69312.49011-.69312C246.47729,167.59619,246.66631,167.85529,246.66631,168.28931Zm-1.6239.6055c-.273,0-.4411-.2348-.4411-.6055,0-.36771.16809-.60922.4445-.60922.2661,0,.43759.2276.43759.60922C245.4834,168.6705,245.3119,168.89481,245.0424,168.89481Zm.532-1.07809a.55485.55485,0,0,0-.53911-.392c-.3989,0-.64749.34637-.64749.86459,0,.51788.2486.85748.64749.85748a.553.553,0,0,0,.53911-.38528.611.611,0,0,0,.60179.4726c.434,0,.70361-.3569.70361-.94479,0-.5845-.26961-.95221-.70361-.95221A.617.617,0,0,0,245.5744,167.81671Zm.92039,1.988a.18317.18317,0,0,0,.1891.18539.17675.17675,0,0,0,.1783-.1259l.50771.11911v-.16811l-.483-.1472a.57583.57583,0,0,0-.203-.049A.18322.18322,0,0,0,246.4948,169.8047Zm-2.086,1.6064h.224v-.57741h2.226v-.252h-2.45Z" transform="translate(-128.1257 -143.86169)" style="fill:#434242"/><path d="M276.7088,198.7589l-.8714-.69279h-.17859V199.641h.22388v-1.25291l.85071.67891h.18539v-.1749c0-.4552.1925-.66161.48642-.66161.30447,0,.4935.22391.4935.6299a1.074,1.074,0,0,1-.28342.7596l.19949.1225a1.27463,1.27463,0,0,0,.315-.8821c0-.59129-.315-.889-.72458-.889-.392,0-.66843.2625-.69641.78749m.532,1.0114v.49011h-.56692v.24489h.56692v1.0641l-1.582-1.2529v.2798l1.624,1.2986h.182v-1.38249h.644v-.252h-.644v-.49011Zm.504,2.58661a.18315.18315,0,0,0,.18909.18539.17681.17681,0,0,0,.17831-.1259l.50769.11909v-.16809l-.483-.14709a.57409.57409,0,0,0-.203-.0491A.1832.1832,0,0,0,277.74481,202.3569Zm-2.086,1.6064h.22388v-.57741h2.2261v-.252h-2.45Z" transform="translate(-128.1257 -143.86169)" style="fill:#434242"/><line x1="133.07529" y1="107.21991" x2="133.07529" y2="131.65851" style="fill:none;stroke:#b1b2b2;stroke-miterlimit:22.92558479309082;stroke-width:0.2160000056028366px"/><line x1="44.0731" y1="112.72" x2="44.0731" y2="131.4097" style="fill:none;stroke:#b1b2b2;stroke-miterlimit:22.92558479309082;stroke-width:0.2160000056028366px"/><line x1="9.0726" y1="99.22061" x2="9.0726" y2="131.15851" style="fill:none;stroke:#b1b2b2;stroke-miterlimit:22.92558479309082;stroke-width:0.2160000056028366px"/><line x1="12.073" y1="39.46991" x2="12.073" y2="64.0338" style="fill:none;stroke:#b1b2b2;stroke-miterlimit:22.92558479309082;stroke-width:0.2160000056028366px"/><line x1="117.5732" y1="28.9698" x2="117.5732" y2="39.40901" style="fill:none;stroke:#b1b2b2;stroke-miterlimit:22.92558479309082;stroke-width:0.2160000056028366px"/><line x1="148.82321" y1="61.71991" x2="148.82321" y2="68.46831" style="fill:none;stroke:#b1b2b2;stroke-miterlimit:22.92558479309082;stroke-width:0.2160000056028366px"/><line x1="133.0733" y1="74.03331" x2="133.0733" y2="97.78081" style="fill:none;stroke:#b1b2b2;stroke-miterlimit:22.92558479309082;stroke-width:0.2160000056028366px"/><line x1="44.0731" y1="68.90941" x2="44.0731" y2="103.2809" style="fill:none;stroke:#b1b2b2;stroke-miterlimit:22.92558479309082;stroke-width:0.2160000056028366px"/><line x1="9.0726" y1="74.28331" x2="9.0726" y2="89.78151" style="fill:none;stroke:#b1b2b2;stroke-miterlimit:22.92558479309082;stroke-width:0.2160000056028366px"/><line x1="12.073" y1="5.15881" x2="12.073" y2="30.03081" style="fill:none;stroke:#b1b2b2;stroke-miterlimit:22.92558479309082;stroke-width:0.2160000056028366px"/><line x1="117.5732" y1="4.44131" x2="117.5732" y2="19.5307" style="fill:none;stroke:#b1b2b2;stroke-miterlimit:22.92558479309082;stroke-width:0.2160000056028366px"/><line x1="148.82321" y1="45.53241" x2="148.82321" y2="52.28081" style="fill:none;stroke:#b1b2b2;stroke-miterlimit:22.92558479309082;stroke-width:0.2160000056028366px"/></svg>