<svg id="Слой_1" data-name="Слой 1" xmlns="http://www.w3.org/2000/svg" viewBox="0 0 163.6507 136.8"><title>1.12.02</title><polygon points="0.224 0 157.753 0 157.753 69.664 161.022 69.664 161.022 136.8 157.753 136.8 0.224 136.8 0.224 69.664 0.224 0" style="fill:#fff;fill-rule:evenodd"/><path d="M172.2677,156.71851v-2.54321h-6.96v2.54321Zm0,4.33618v-2.54318h-6.96v2.54318Zm-4.068,4.44162v-2.54321h-2.892v2.54321Zm4.068,0v-2.54321h-2.892v2.54321ZM162.5528,148.356H174.7877v19.647H162.5528Z" transform="translate(-131.017 -144.36319)" style="fill:#003915;fill-rule:evenodd"/><path d="M164.7751,216.21919a.374.374,0,1,1-.37469.6474l-13.92011-8.03989a.374.374,0,1,1,.37469-.6474Z" transform="translate(-131.017 -144.36319)" style="fill:#003915"/><path d="M207.7551,210.5383a.374.374,0,1,1-.37469.6474l-13.92011-8.0399a.37407.37407,0,0,1,.3748-.64749Z" transform="translate(-131.017 -144.36319)" style="fill:#003915"/><path d="M259.9209,221.8179a.374.374,0,1,1,.6474.37469l-8.0399,13.9201a.374.374,0,1,1-.64749-.37469Z" transform="translate(-131.017 -144.36319)" style="fill:#003915"/><rect x="46.3284" y="73.26711" width="2.6022" height="61.4928" style="fill:#003915"/><rect x="49.8674" y="70.96561" width="2.6022" height="65.8344" style="fill:#003915"/><rect x="76.6506" y="65.6331" width="50.24429" height="2.6022" style="fill:#003915"/><rect x="39.68539" y="65.6331" width="19.02501" height="2.6022" style="fill:#003915"/><rect x="5.13071" y="71.61761" width="12.644" height="2.60219" style="fill:#003915"/><rect x="33.2487" y="71.61761" width="12.644" height="2.60219" style="fill:#003915"/><rect x="5.3708" y="125.1788" width="41.99989" height="2.6022" style="fill:#003915"/><rect x="36.21071" y="126.7906" width="0.87129" height="5.49861" style="fill:#003915"/><rect x="10.53841" y="126.7906" width="0.8714" height="5.49861" style="fill:#003915"/><rect x="23.23961" y="126.7906" width="0.8714" height="5.49861" style="fill:#003915"/><rect x="27.4507" y="126.7906" width="1.55141" height="5.49861" style="fill:#003915"/><rect x="18.51511" y="126.7906" width="1.55139" height="5.49861" style="fill:#003915"/><rect x="5.5905" width="147.68221" height="5.00201" style="fill:#003915"/><rect x="129.57059" y="131.798" width="34.08011" height="5.002" style="fill:#003915"/><rect x="0.224" width="6.4256" height="22.69391" style="fill:#003915"/><rect x="0.224" y="42.66341" width="6.4256" height="94.1366" style="fill:#003915"/><rect x="0.224" y="131.33421" width="126.5867" height="5.46579" style="fill:#003915"/><rect x="124.64171" y="107.60141" width="8.16008" height="28.0154" style="fill:#003915"/><rect x="124.64171" y="65.6331" width="38.87999" height="8.16011" style="fill:#003915"/><rect x="124.64171" y="67.04251" width="8.16008" height="10.502" style="fill:#003915"/><rect x="124.64171" y="130.34941" width="8.16008" height="6.45059" style="fill:#003915"/><rect x="149.8522" width="8.1601" height="20.87802" style="fill:#003915"/><rect x="149.8522" y="51.14751" width="8.1601" height="21.21251" style="fill:#003915"/><rect x="39.68539" y="66.05971" width="12.78421" height="8.1601" style="fill:#003915"/><rect x="39.71851" y="131.89861" width="12.7843" height="4.9014" style="fill:#003915"/><rect x="118.2496" y="131.89861" width="12.78421" height="4.9014" style="fill:#003915"/><rect x="149.8522" y="61.73801" width="13.79849" height="10.62201" style="fill:#003915"/><rect x="152.8541" y="36.65651" width="2.29861" height="0.50169" style="fill:#003915"/><rect x="152.8541" y="35.45831" width="2.29861" height="0.5011" style="fill:#003915"/><rect x="152.8541" y="22.8208" width="2.29861" height="0.5015" style="fill:#003915"/><rect x="152.8541" y="21.62262" width="2.29861" height="0.50119" style="fill:#003915"/><rect x="152.8541" y="50.7682" width="2.29861" height="0.50171" style="fill:#003915"/><rect x="152.8541" y="49.57031" width="2.29861" height="0.5011" style="fill:#003915"/><rect x="149.8522" y="19.5658" width="0.5014" height="34.09372" style="fill:#003915"/><rect x="152.69931" y="19.5658" width="0.5014" height="34.09372" style="fill:#003915"/><rect x="154.87061" y="19.5658" width="0.5015" height="34.09372" style="fill:#003915"/><rect x="157.51169" y="19.5658" width="0.5014" height="34.09372" style="fill:#003915"/><path d="M260.4711,240.8622h-1.66989v-.6971h1.66989Zm0,13.56911h-1.66989V241.3636h1.66989Zm0,1.1982h-1.66989v-.697h1.66989Zm-1.66989.5018h1.66989v5.7894h.5014V240.1651h2.3457v21.7556h.5014V239.664h-8.1609v22.2567h.50139V240.1651h2.13962V258.217h.5015Z" transform="translate(-131.017 -144.36319)" style="fill:#003915;fill-rule:evenodd"/><rect x="158.49561" y="113.24831" width="1.29709" height="0.44701" style="fill:#003915"/><rect x="158.49561" y="112.18051" width="1.29709" height="0.4467" style="fill:#003915"/><rect x="158.49561" y="94.64621" width="1.29709" height="0.4471" style="fill:#003915"/><rect x="158.49561" y="93.57841" width="1.29709" height="0.44679" style="fill:#003915"/><rect x="158.49561" y="76.04391" width="1.29709" height="0.44699" style="fill:#003915"/><rect x="158.49561" y="74.9761" width="1.29709" height="0.4467" style="fill:#003915"/><rect x="158.49561" y="131.85071" width="1.29709" height="0.44701" style="fill:#003915"/><rect x="158.49561" y="130.78291" width="1.29709" height="0.4467" style="fill:#003915"/><rect x="160.57529" y="72.90932" width="0.44681" height="60.82129" style="fill:#003915"/><rect x="159.48401" y="72.90932" width="0.44669" height="60.82129" style="fill:#003915"/><rect x="158.4032" y="72.90932" width="0.44672" height="60.82129" style="fill:#003915"/><path d="M138.2318,227.412v9.8224a.90533.90533,0,0,0,.9039.9054H143.746a4.59576,4.59576,0,0,0,4.591-4.5896v-2.4523a4.59575,4.59575,0,0,0-4.591-4.59041H139.1357a.90476.90476,0,0,0-.9039.90451m9.86061,6.1382a4.351,4.351,0,0,1-4.34641,4.34489H139.1357a.66148.66148,0,0,1-.6599-.66069V227.412a.66079.66079,0,0,1,.6599-.6599H143.746a4.35147,4.35147,0,0,1,4.34641,4.34579Z" transform="translate(-131.017 -144.36319)" style="fill:#003915"/><path d="M147.0022,233.5499a3.25879,3.25879,0,0,1-3.2562,3.2545h-2.6881a.56791.56791,0,0,1-.5675-.5672V232.6618h-.24521v3.57539a.81412.81412,0,0,0,.81271.81241h2.6881a3.50409,3.50409,0,0,0,3.50079-3.49971V231.0977a3.50463,3.50463,0,0,0-3.50079-3.50081h-2.6881a.81449.81449,0,0,0-.81271.81351v3.57539h.24521V228.4104a.56827.56827,0,0,1,.5675-.5683h2.6881a3.25935,3.25935,0,0,1,3.2562,3.2556Z" transform="translate(-131.017 -144.36319)" style="fill:#003915"/><path d="M143.3985,232.3231a.7835.7835,0,1,0,.78351-.7838.7848.7848,0,0,0-.78351.7838m1.3224,0a.53875.53875,0,1,1-.53889-.5392A.53969.53969,0,0,1,144.7209,232.3231Z" transform="translate(-131.017 -144.36319)" style="fill:#003915"/><rect x="12.60631" y="87.8374" width="1.1165" height="0.2449" style="fill:#003915"/><rect x="13.04201" y="87.40231" width="0.24539" height="1.116" style="fill:#003915"/><path d="M139.41409,231.98579v-.4037a.17366.17366,0,0,1,.1741-.1729h.37921a.17372.17372,0,0,1,.17409.1729v.4037h.2449v-.4037a.41869.41869,0,0,0-.419-.41809h-.37921a.41862.41862,0,0,0-.4187.41809v.40561l.0374-.00191Zm.7274,1.0771a.17454.17454,0,0,1-.17409.1741h-.37921a.17449.17449,0,0,1-.1741-.1741v-.40109h-.2072l-.0374-.0023v.4034a.41863.41863,0,0,0,.4187.4187h.37921a.41869.41869,0,0,0,.419-.4187v-.40109h-.2449Z" transform="translate(-131.017 -144.36319)" style="fill:#003915"/><path d="M138.7466,232.3231a.461.461,0,0,0,.4603.4612h3.0804a.4605.4605,0,0,0,0-.921h-3.0804a.46048.46048,0,0,0-.4603.45981m3.7567,0a.21675.21675,0,0,1-.216.21629h-3.0804a.2156.2156,0,0,1,0-.4312h3.0804A.21608.21608,0,0,1,142.5033,232.3231Z" transform="translate(-131.017 -144.36319)" style="fill:#003915"/><path d="M151.09171,254.3338a3.9169,3.9169,0,0,0-3.9115,3.913v5.6653a.67728.67728,0,0,0,.4561.63921,1.24407,1.24407,0,0,0-.20351.2049.94566.94566,0,0,1-.52161-.8441v-5.6653a4.1808,4.1808,0,1,1,8.3616,0v5.6653a.94552.94552,0,0,1-.521.84361,1.237,1.237,0,0,0-.2032-.20471.67637.67637,0,0,0,.45551-.6389v-5.6653a3.91709,3.91709,0,0,0-3.9124-3.913" transform="translate(-131.017 -144.36319)" style="fill:#003915"/><path d="M153.89549,262.83119h-5.60889a.20392.20392,0,0,1-.20131-.20149V258.359a3.00655,3.00655,0,1,1,6.01311,0v4.27071a.20464.20464,0,0,1-.20291.20149m-5.54149-.2681h5.476V258.359a2.738,2.738,0,0,0-5.476,0Z" transform="translate(-131.017 -144.36319)" style="fill:#003915"/><path d="M151.0914,260.1003a1.00815,1.00815,0,1,1,1.0089-1.008,1.01006,1.01006,0,0,1-1.0089,1.008m0-1.7475a.7394.7394,0,1,0,.7399.7395A.74029.74029,0,0,0,151.0914,258.3528Z" transform="translate(-131.017 -144.36319)" style="fill:#003915"/><rect x="148.34891" y="261.04223" width="2.24223" height="0.26854" transform="translate(-280.26325 80.43973) rotate(-53.27519)" style="fill:#003915"/><rect x="152.5348" y="260.05477" width="0.2691" height="2.24306" transform="translate(-257.06244 -0.8264) rotate(-36.80822)" style="fill:#003915"/><path d="M153.7923,268.333h-5.4006a1.355,1.355,0,0,1-1.35239-1.35379v-1.4743a1.35344,1.35344,0,0,1,1.35239-1.3524h5.4006a1.35313,1.35313,0,0,1,1.35181,1.3524v1.4743a1.3547,1.3547,0,0,1-1.35181,1.35379m-5.4006-3.91209a1.08543,1.08543,0,0,0-1.0842,1.084v1.4743a1.08585,1.08585,0,0,0,1.0842,1.0851h5.4006a1.08594,1.08594,0,0,0,1.08371-1.0851v-1.4743a1.08552,1.08552,0,0,0-1.08371-1.084Z" transform="translate(-131.017 -144.36319)" style="fill:#003915"/><path d="M151.0914,266.93069a.6881.6881,0,1,1,.68829-.68739.68815.68815,0,0,1-.68829.68739m0-1.10719a.41925.41925,0,1,0,.4196.4198A.41934.41934,0,0,0,151.0914,265.8235Z" transform="translate(-131.017 -144.36319)" style="fill:#003915"/><path d="M168.9369,232.2386h7.83949V220.8907H168.9369Zm8.1709.3308h-8.5025V220.5596h8.5025Z" transform="translate(-131.017 -144.36319)" style="fill:#003915"/><path d="M168.7124,229.84419a.60437.60437,0,0,1-.6125-.5936V223.8784a.604.604,0,0,1,.6125-.5939v.3308a.26975.26975,0,0,0-.2809.26311v5.37219a.26951.26951,0,0,0,.2809.2628Z" transform="translate(-131.017 -144.36319)" style="fill:#003915"/><path d="M171.339,227.5864h2.7077l.6216-1.59729a2.47356,2.47356,0,0,0-1.6747.0918,4.15146,4.15146,0,0,1-1.24071.2412,2.44929,2.44929,0,0,1-.9366-.1882Zm2.93419.33081h-3.1669l-.89209-2.48.3907.2247a2.26554,2.26554,0,0,0,1.148.32941,3.89493,3.89493,0,0,0,1.1438-.2267,3.896,3.896,0,0,1,1.144-.22821,2.01789,2.01789,0,0,1,.91251.21791l.1358.06749Z" transform="translate(-131.017 -144.36319)" style="fill:#003915"/><path d="M162.36481,266.18179v-30.085a2.16108,2.16108,0,0,1,2.1657-2.1515h10.41139a2.16094,2.16094,0,0,1,2.16591,2.1515v30.085a2.16081,2.16081,0,0,1-2.16591,2.1512H164.5305a2.161,2.161,0,0,1-2.1657-2.1512m14.51309-30.085a1.93115,1.93115,0,0,0-1.936-1.92191H164.5305a1.931,1.931,0,0,0-1.9355,1.92191v30.085a1.93143,1.93143,0,0,0,1.9355,1.92221h10.41139a1.93154,1.93154,0,0,0,1.936-1.92221Z" transform="translate(-131.017 -144.36319)" style="fill:#003915"/><path d="M175.61591,239.0826a2.577,2.577,0,0,0-2.582-2.5654h-6.5948a2.5766,2.5766,0,0,0-2.5818,2.5654v24.1132a2.577,2.577,0,0,0,2.5818,2.5659h2.0619a.3955.3955,0,0,0-.142.2282H166.4391a2.80641,2.80641,0,0,1-2.81261-2.7941V239.0826a2.80667,2.80667,0,0,1,2.81261-2.7944h6.5948a2.80658,2.80658,0,0,1,2.81219,2.7944v24.1132a2.80632,2.80632,0,0,1-2.81219,2.7941h-1.92021a.3952.3952,0,0,0-.14149-.2282h2.06171a2.57747,2.57747,0,0,0,2.582-2.5659Z" transform="translate(-131.017 -144.36319)" style="fill:#003915"/><path d="M174.3026,240.63a1.26656,1.26656,0,0,0-1.26869-1.26111h-6.5948a1.26635,1.26635,0,0,0-1.2683,1.26111v22.5658a1.26628,1.26628,0,0,0,1.2683,1.2614h2.8448v.2287h-2.8448a1.4962,1.4962,0,0,1-1.499-1.4901V240.63a1.49565,1.49565,0,0,1,1.499-1.4893h6.5948a1.49525,1.49525,0,0,1,1.4989,1.4893v22.5658a1.49579,1.49579,0,0,1-1.4989,1.4901h-2.8452v-.2287h2.8452a1.26649,1.26649,0,0,0,1.26869-1.2614Z" transform="translate(-131.017 -144.36319)" style="fill:#003915"/><path d="M169.0036,261.2906a.73331.73331,0,1,1,.7336.72989.73146.73146,0,0,1-.7336-.72989m1.2364,0a.50331.50331,0,1,0-.50281.50029A.50192.50192,0,0,0,170.24,261.2906Z" transform="translate(-131.017 -144.36319)" style="fill:#003915"/><rect x="38.1969" y="116.81322" width="1.0457" height="0.22929" style="fill:#003915"/><rect x="38.6048" y="116.40891" width="0.2307" height="1.03781" style="fill:#003915"/><path d="M169.28391,265.7906h-.5374a.27991.27991,0,0,0-.28041.27859v.5052a.28042.28042,0,0,0,.28041.27919h.5374v.22871h-.5374a.51033.51033,0,0,1-.51111-.5079v-.5052a.50971.50971,0,0,1,.51111-.5074h.5374Zm1.72209.27859a.27984.27984,0,0,0-.28009-.27859h-.5372v-.22881h.5372a.50925.50925,0,0,1,.51079.5074v.5052a.50987.50987,0,0,1-.51079.5079h-.5372v-.22871h.5372a.28035.28035,0,0,0,.28009-.27919Z" transform="translate(-131.017 -144.36319)" style="fill:#003915"/><path d="M169.1685,267.0804v-3.2012a.56766.56766,0,0,1,1.1353,0v3.2012a.56766.56766,0,0,1-1.1353,0m.90509-3.2012a.33715.33715,0,0,0-.67429,0v3.2012a.33715.33715,0,0,0,.67429,0Z" transform="translate(-131.017 -144.36319)" style="fill:#003915"/><path d="M175.771,149.70361h11.76921V161.4725H175.771Zm11.5197.24948H176.0202V161.2236H187.2907Z" transform="translate(-131.017 -144.36319)" style="fill:#003915"/><path d="M181.6554,160.37439a3.91958,3.91958,0,0,0,.9817-7.7142.29991.29991,0,0,0,.0742-.1976v-.0405a4.16853,4.16853,0,1,1-2.11151-.00027v.04077a.29848.29848,0,0,0,.074.19733,3.91973,3.91973,0,0,0,.9816,7.71448" transform="translate(-131.017 -144.36319)" style="fill:#003915"/><path d="M181.6554,152.97369a3.48151,3.48151,0,1,1-3.4812,3.48181,3.4858,3.4858,0,0,1,3.4812-3.48181m0,6.71359a3.23195,3.23195,0,1,0-3.23169-3.23178A3.23547,3.23547,0,0,0,181.6554,159.68729Z" transform="translate(-131.017 -144.36319)" style="fill:#003915"/><path d="M181.6554,155.55289a.90231.90231,0,1,1-.9025.90262.90337.90337,0,0,1,.9025-.90262m0,1.55573a.653.653,0,1,0-.65309-.65311A.65428.65428,0,0,0,181.6554,157.10861Z" transform="translate(-131.017 -144.36319)" style="fill:#003915"/><rect x="50.5137" y="11.43491" width="0.2495" height="1.3139" style="fill:#003915"/><rect x="49.9816" y="11.96701" width="1.3136" height="0.24969" style="fill:#003915"/><path d="M180.9017,151.6488h1.50749a.42705.42705,0,0,1,.42661.42661v.38718a.42686.42686,0,0,1-.42661.42661H180.9017a.42679.42679,0,0,1-.42661-.42661v-.38718a.427.427,0,0,1,.42661-.42661m1.50749.991a.17765.17765,0,0,0,.1774-.17722v-.38718a.17745.17745,0,0,0-.1774-.17722H180.9017a.17729.17729,0,0,0-.1772.17722v.38718a.17748.17748,0,0,0,.1772.17722Z" transform="translate(-131.017 -144.36319)" style="fill:#003915"/><path d="M181.8754,151.7735V151.687a.2197.2197,0,0,0-.43939,0v.08649h-.24971V151.687a.46941.46941,0,0,1,.93881,0v.08649Zm-.22,2.59a.22044.22044,0,0,0,.22-.22049V152.7645h.24971V154.143a.46941.46941,0,1,1-.93881,0V152.7645h.24971V154.143A.22.22,0,0,0,181.6554,154.36349Z" transform="translate(-131.017 -144.36319)" style="fill:#003915"/><path d="M204.43581,150.185H197.2791a1.49611,1.49611,0,0,0-1.49409,1.49469v8.29871a1.496,1.496,0,0,0,1.49409,1.49411h7.15671a1.49561,1.49561,0,0,0,1.49409-1.49411v-8.29871a1.49573,1.49573,0,0,0-1.49409-1.49469m-7.15671,11.0545a1.26262,1.26262,0,0,1-1.26109-1.26111v-8.29871a1.26274,1.26274,0,0,1,1.26109-1.26169h7.15671a1.26306,1.26306,0,0,1,1.26169,1.26169v8.29871a1.26294,1.26294,0,0,1-1.26169,1.26111Z" transform="translate(-131.017 -144.36319)" style="fill:#003915"/><path d="M204.43581,151.00391H197.2791a.67615.67615,0,0,0-.6757.67578v7.01062a.67632.67632,0,0,0,.6757.67578h7.15671a.67645.67645,0,0,0,.6763-.67578v-7.01062a.67627.67627,0,0,0-.6763-.67578m-7.15671,8.12918a.44327.44327,0,0,1-.443-.44278v-7.01062a.44347.44347,0,0,1,.443-.44308h7.15671a.44386.44386,0,0,1,.44389.44308v7.01062a.44366.44366,0,0,1-.44389.44278Z" transform="translate(-131.017 -144.36319)" style="fill:#003915"/><path d="M197.97929,159.78479a.4742.4742,0,1,0,.47421.47421.4751.4751,0,0,0-.47421-.47421m0,.71542a.24121.24121,0,1,1,.2415-.24121A.24186.24186,0,0,1,197.97929,160.50021Z" transform="translate(-131.017 -144.36319)" style="fill:#003915"/><path d="M199.58,159.78479a.4742.4742,0,1,0,.47479.47421.475.475,0,0,0-.47479-.47421m0,.71542a.24121.24121,0,1,1,.24179-.24121A.24154.24154,0,0,1,199.58,160.50021Z" transform="translate(-131.017 -144.36319)" style="fill:#003915"/><rect x="66.51559" y="8.78311" width="2.71951" height="0.2327" style="fill:#003915"/><rect x="67.75909" y="7.539" width="0.2328" height="2.7196" style="fill:#003915"/><path d="M198.8923,152.36569a.89685.89685,0,1,0,.89659.89682.89789.89789,0,0,0-.89659-.89682m0,1.561a.66429.66429,0,1,1,.66389-.66418A.66556.66556,0,0,1,198.8923,153.9267Z" transform="translate(-131.017 -144.36319)" style="fill:#003915"/><rect x="66.51559" y="12.6283" width="2.71951" height="0.23251" style="fill:#003915"/><rect x="67.75909" y="11.38391" width="0.2328" height="2.7204" style="fill:#003915"/><path d="M198.8923,156.21a.89716.89716,0,1,0,.89659.89752.89861.89861,0,0,0-.89659-.89752m0,1.56192a.66475.66475,0,1,1,.66389-.6644A.66542.66542,0,0,1,198.8923,157.77191Z" transform="translate(-131.017 -144.36319)" style="fill:#003915"/><rect x="70.4464" y="8.78311" width="2.71921" height="0.2327" style="fill:#003915"/><rect x="71.6899" y="7.539" width="0.233" height="2.7196" style="fill:#003915"/><path d="M202.82339,152.36569a.89685.89685,0,1,0,.89691.89682.89776.89776,0,0,0-.89691-.89682m0,1.561a.66429.66429,0,1,1,.66391-.66418A.66607.66607,0,0,1,202.82339,153.9267Z" transform="translate(-131.017 -144.36319)" style="fill:#003915"/><rect x="70.4464" y="12.6283" width="2.71921" height="0.23251" style="fill:#003915"/><rect x="71.6899" y="11.38391" width="0.233" height="2.7204" style="fill:#003915"/><path d="M202.82339,156.21a.89716.89716,0,1,0,.89691.89752.89847.89847,0,0,0-.89691-.89752m0,1.56192a.66475.66475,0,1,1,.66391-.6644A.66593.66593,0,0,1,202.82339,157.77191Z" transform="translate(-131.017 -144.36319)" style="fill:#003915"/><path d="M202.29359,159.78479a.4742.4742,0,1,0,.47461.47421.47484.47484,0,0,0-.47461-.47421m0,.71542a.24121.24121,0,1,1,.24181-.24121A.24162.24162,0,0,1,202.29359,160.50021Z" transform="translate(-131.017 -144.36319)" style="fill:#003915"/><path d="M203.8952,159.78479a.4742.4742,0,1,0,.474.47421.47465.47465,0,0,0-.474-.47421m0,.71542a.24121.24121,0,1,1,.2415-.24121A.24161.24161,0,0,1,203.8952,160.50021Z" transform="translate(-131.017 -144.36319)" style="fill:#003915"/><path d="M140.1403,273.4521a.809.809,0,1,0,.2348.57089.80942.80942,0,0,0-.2348-.57089m-.5726-1.03641a1.60711,1.60711,0,1,1-1.1364.47061A1.60255,1.60255,0,0,1,139.5677,272.4157Z" transform="translate(-131.017 -144.36319)" style="fill:#003915"/><path d="M134.9249,173.306a3.90785,3.90785,0,1,1-3.9079,3.90759,3.9081,3.9081,0,0,1,3.9079-3.90759" transform="translate(-131.017 -144.36319)" style="fill:#558e42;fill-rule:evenodd"/><polygon points="6.312 32.85 4.997 32.472 3.682 32.094 3.682 32.85 3.682 33.607 4.997 33.229 6.312 32.85" style="fill:#fdfdfd;fill-rule:evenodd"/><rect x="1.5038" y="32.67151" width="2.2813" height="0.38409" style="fill:#fdfdfd"/><path d="M244.6169,186.7204c-.7319,0-1.2359-.6179-1.2359-1.7399s.504-1.7399,1.2359-1.7399,1.2359.618,1.2359,1.7399-.504,1.7399-1.2359,1.7399m0,.396c.972,0,1.67981-.7979,1.67981-2.13589s-.70781-2.13589-1.67981-2.13589-1.6739.798-1.6739,2.13589S243.6449,187.11639,244.6169,187.11639Zm-3.966-2.514h-.54l.144-1.338h1.91991v-.3838h-2.2977l-.216,2.1059h.894c1.06779,0,1.4037.33591,1.4037.8759,0,.5099-.37781.858-1.0919.858a1.82141,1.82141,0,0,1-1.29-.48579l-.20981.3418a2.1682,2.1682,0,0,0,1.5058.54c1.02611,0,1.52391-.5578,1.52391-1.2719C242.3968,185.1004,241.9169,184.6024,240.65089,184.6024Zm-2.0457,1.8541a.31415.31415,0,0,0-.3181.324.30323.30323,0,0,0,.216.30589l-.2041.8699h.288l.252-.828a.9759.9759,0,0,0,.0842-.34779A.314.314,0,0,0,238.60519,186.4565Zm-3.66609-3.5759v1.16991h.4261v-.7861h2.16l-1.728,3.816h.468l1.758-3.89391v-.30589Zm-2.304,0v.3838h.9902v3.816h.432v-4.1998Z" transform="translate(-131.017 -144.36319)" style="fill:#6e6e6e;fill-rule:evenodd"/><path d="M225.56689,244.321c-.73189,0-1.2359-.618-1.2359-1.7399s.504-1.7399,1.2359-1.7399,1.2359.6179,1.2359,1.7399-.504,1.7399-1.2359,1.7399m0,.396c.972,0,1.67981-.798,1.67981-2.13589s-.70781-2.13589-1.67981-2.13589-1.6738.7979-1.6738,2.13589S224.59489,244.717,225.56689,244.717Zm-3.9659-2.5141h-.54l.144-1.33789h1.91989v-.3838H220.8271l-.216,2.1058h.8941c1.06779,0,1.4037.33589,1.4037.8759,0,.51-.3779.85809-1.0919.85809a1.82143,1.82143,0,0,1-1.2901-.4859l-.2097.3419a2.16859,2.16859,0,0,0,1.50571.54c1.0262,0,1.5239-.55789,1.5239-1.2719C223.3468,242.701,222.8669,242.2029,221.601,242.2029Zm-2.04579,1.8542a.314.314,0,0,0-.318.324.303.303,0,0,0,.216.3058l-.2041.87h.288l.252-.828a.97615.97615,0,0,0,.08421-.34779A.314.314,0,0,0,219.55521,244.0571Zm-2.7541-3.5759v.3838h.9901v3.816h.432v-4.1998Zm-2.166,0v.3838h.9902v3.816h.432v-4.1998Z" transform="translate(-131.017 -144.36319)" style="fill:#6e6e6e;fill-rule:evenodd"/><path d="M158.241,244.321c-.7319,0-1.2359-.618-1.2359-1.7399s.504-1.7399,1.2359-1.7399,1.2359.6179,1.2359,1.7399-.504,1.7399-1.2359,1.7399m0,.396c.972,0,1.67981-.798,1.67981-2.13589s-.70781-2.13589-1.67981-2.13589-1.6739.7979-1.6739,2.13589S157.269,244.717,158.241,244.717Zm-3.97189-.396c-.7319,0-1.2359-.618-1.2359-1.7399s.504-1.7399,1.2359-1.7399,1.2359.6179,1.2359,1.7399S155.001,244.321,154.2691,244.321Zm0,.396c.972,0,1.67979-.798,1.67979-2.13589s-.70779-2.13589-1.67979-2.13589-1.6739.7979-1.6739,2.13589S153.2971,244.717,154.2691,244.717Zm-2.5498-.6599a.314.314,0,0,0-.318.324.303.303,0,0,0,.216.3058l-.2041.87h.288l.252-.828a.97605.97605,0,0,0,.0842-.34779A.314.314,0,0,0,151.7193,244.0571Zm-2.622-1.8542h-.54l.144-1.33789h1.91991v-.3838h-2.29781l-.216,2.1058h.894c1.0679,0,1.40379.33589,1.40379.8759,0,.51-.3779.85809-1.0919.85809a1.82146,1.82146,0,0,1-1.2901-.4859l-.20979.3419a2.16867,2.16867,0,0,0,1.5058.54c1.0262,0,1.5239-.55789,1.5239-1.2719C150.84309,242.701,150.36321,242.2029,149.09731,242.2029Z" transform="translate(-131.017 -144.36319)" style="fill:#6e6e6e;fill-rule:evenodd"/><path d="M281.2113,246.121c-.7319,0-1.2359-.618-1.2359-1.7399s.504-1.7399,1.2359-1.7399,1.2359.61789,1.2359,1.7399-.504,1.7399-1.2359,1.7399m0,.396c.972,0,1.67981-.798,1.67981-2.13589s-.70782-2.13591-1.67981-2.13591-1.67389.79791-1.67389,2.13591S280.23929,246.517,281.2113,246.517Zm-2.0701-1.5239h-.8399v-.972h-.41989v.972h-1.824l2.148-2.7119h-.4801l-2.2258,2.78389v.3118h2.36978V246.481h.432v-1.10411h.8399Zm-4.43372.864a.31408.31408,0,0,0-.31808.324.3031.3031,0,0,0,.216.30579l-.204.87h.288l.252-.828a.97785.97785,0,0,0,.08411-.34779A.314.314,0,0,0,274.70749,245.8571Zm-2.2861-1.77591,1.188-1.49419v-.3058h-2.7v.38379h2.148l-1.16391,1.4581v.3181h.2999c.77991,0,1.13391.32991,1.13391.83391,0,.5219-.38379.8459-1.08.8459a1.841,1.841,0,0,1-1.30191-.4859l-.21011.3419a2.185,2.185,0,0,0,1.512.54c1.014,0,1.5239-.54,1.5239-1.2419C273.77121,244.603,273.32141,244.1291,272.42139,244.08119Z" transform="translate(-131.017 -144.36319)" style="fill:#6e6e6e;fill-rule:evenodd"/><path d="M155.319,186.7204c-.7319,0-1.2359-.6179-1.2359-1.7399s.504-1.7399,1.2359-1.7399,1.2359.618,1.2359,1.7399-.504,1.7399-1.2359,1.7399m0,.396c.972,0,1.67979-.7979,1.67979-2.13589s-.70779-2.13589-1.67979-2.13589-1.6738.798-1.6738,2.13589S154.347,187.11639,155.319,187.11639Zm-4.098-4.23579v.3838h.99011v3.816h.432v-4.1998Zm-.61169,3.5759a.31415.31415,0,0,0-.3181.324.30323.30323,0,0,0,.216.30589l-.2041.8699h.288l.252-.828a.97566.97566,0,0,0,.08421-.34779A.314.314,0,0,0,150.6093,186.4565Zm-.84619-.864h-.8399v-.972h-.4198v.972h-1.8241l2.14809-2.7119h-.48019l-2.2258,2.78391v.3118h2.3698v1.1041h.432v-1.1041h.8399Z" transform="translate(-131.017 -144.36319)" style="fill:#6e6e6e;fill-rule:evenodd"/><path d="M232.9483,154.24329c-.42691,0-.7211-.36047-.7211-1.0148,0-.65448.29419-1.01508.7211-1.01508s.7209.3606.7209,1.01508c0,.65433-.294,1.0148-.7209,1.0148m0,.231c.567,0,.98-.46539.98-1.24582,0-.78058-.413-1.24609-.98-1.24609s-.9765.46552-.9765,1.24609C231.9718,154.00891,232.38139,154.4743,232.9483,154.4743Zm-2.1174-1.421.69279-.87131v-.17862h-1.575v.22391h1.2529l-.67889.85071v.18539h.1749c.45529,0,.66161.1925.66161.48639,0,.3045-.22391.4935-.62981.4935a1.07433,1.07433,0,0,1-.7597-.28339l-.1225.19949a1.27473,1.27473,0,0,0,.8822.31491c.59129,0,.8889-.31491.8889-.72452C231.6183,153.35779,231.3558,153.08139,230.8309,153.05331Zm-1.4176,1.03607a.18317.18317,0,0,0-.18539.18912.17666.17666,0,0,0,.12579.17828l-.119.50772h.16811l.14709-.48312a.57278.57278,0,0,0,.049-.20288A.18321.18321,0,0,0,229.4133,154.08939ZM227.884,153.008h-.315l.08389-.7807h1.12v-.22391h-1.3405l-.12581,1.22852h.52121c.62309,0,.81929.19589.81929.51111,0,.29739-.2206.50027-.6373.50027a1.06132,1.06132,0,0,1-.75229-.28339l-.12241.19949a1.264,1.264,0,0,0,.8784.31491c.59839,0,.889-.32541.889-.74179C228.9025,153.29831,228.62241,153.008,227.884,153.008Z" transform="translate(-131.017 -144.36319)" style="fill:#434242"/><path d="M152.2001,154.26089c-.42351,0-.6478-.2554-.6478-.525a.56724.56724,0,0,1,.63019-.5354c.37781,0,.616.2063.616.52829a.53612.53612,0,0,1-.59839.5321m.02089-1.2739a.78355.78355,0,0,0-.74919.4198c-.00681-.07339-.01041-.1434-.01041-.19949,0-.66479.33951-1.00439.8679-1.00439a.86054.86054,0,0,1,.4762.11539l.1015-.20291a1.12565,1.12565,0,0,0-.5811-.133c-.665,0-1.1199.434-1.1199,1.26712,0,.77328.35341,1.22479,1.00461,1.22479a.76333.76333,0,0,0,.8365-.7525A.74179.74179,0,0,0,152.221,152.987Zm-2.6637,1.2424.8331-.81891a1.00772,1.00772,0,0,0,.4025-.76648c0-.40961-.3149-.66162-.81209-.66162a1.10118,1.10118,0,0,0-.8679.3501l.1785.1539a.83215.83215,0,0,1,.6684-.273c.37451,0,.57411.1749.57411.4584,0,.16809-.05251.33249-.3289.6055l-1.0184.9975v.17859h1.71831v-.224Zm-.9099-.14a.18317.18317,0,0,0-.18539.18912.17673.17673,0,0,0,.1259.17828l-.11911.50772h.16811l.14709-.48312a.57334.57334,0,0,0,.0491-.20288A.18323.18323,0,0,0,148.6474,154.08939Zm-1.6064-2.086v.22391h.57739v2.2261h.252v-2.45Z" transform="translate(-131.017 -144.36319)" style="fill:#434242"/><path d="M278.59009,272.9937c-.42688,0-.7211-.3605-.7211-1.0148,0-.6545.29422-1.01509.7211-1.01509s.72092.3606.72092,1.01509c0,.6543-.294,1.0148-.72092,1.0148m0,.231c.56692,0,.97992-.46541.97992-1.2458,0-.78059-.413-1.24609-.97992-1.24609s-.9765.4655-.9765,1.24609C277.61359,272.75929,278.02319,273.2247,278.59009,273.2247Zm-2.62518-.2449.8331-.81889a1.00792,1.00792,0,0,0,.40259-.76651c0-.40959-.315-.66159-.81219-.66159a1.10076,1.10076,0,0,0-.86789.3501l.17859.1539a.832.832,0,0,1,.6684-.273c.37442,0,.574.1749.574.45839,0,.16811-.05249.3325-.3288.6055l-1.01849.9975v.1786h1.71829v-.224Zm-.90991-.14a.18318.18318,0,0,0-.18539.1891.17674.17674,0,0,0,.12592.1783l-.11911.50771h.16809l.14722-.48311a.57511.57511,0,0,0,.049-.2029A.18321.18321,0,0,0,275.055,272.8398Zm-1.60638-2.086v.22391h.57739v2.22609h.252v-2.45Z" transform="translate(-131.017 -144.36319)" style="fill:#434242"/><path d="M221.3226,271.75839h-.3149l.08389-.78069h1.12v-.22391h-1.3405l-.1259,1.2285h.5213c.623,0,.8192.19589.8192.51109,0,.29741-.22049.50031-.63719.50031a1.0612,1.0612,0,0,1-.7523-.2834l-.1225.19951a1.26449,1.26449,0,0,0,.87849.3149c.5984,0,.8889-.32541.8889-.74181,0-.4343-.28009-.7245-1.01849-.7245m-1.7813,1.25291c-.42351,0-.64771-.2554-.64771-.525a.56723.56723,0,0,1,.6301-.5354c.3779,0,.616.2063.616.52831A.53612.53612,0,0,1,219.54131,273.01131Zm.021-1.27391a.78346.78346,0,0,0-.74921.4198c-.00679-.07339-.0105-.1434-.0105-.19949,0-.66481.3396-1.00441.868-1.00441a.86059.86059,0,0,1,.47621.1154l.1015-.2029a1.12579,1.12579,0,0,0-.5811-.133c-.665,0-1.12.434-1.12,1.26709,0,.7733.3535,1.22481,1.00461,1.22481a.76334.76334,0,0,0,.8365-.75259A.74174.74174,0,0,0,219.5623,271.7374Zm-1.5262,1.1024a.18318.18318,0,0,0-.18541.1891.17676.17676,0,0,0,.1259.1783l-.11909.50771h.16811l.1472-.48311a.57521.57521,0,0,0,.049-.2029A.18322.18322,0,0,0,218.0361,272.8398Zm-1.3334-1.0361.69279-.87129v-.1786H215.8206v.22391h1.2529l-.67889.85069v.18539h.1749c.4552,0,.66159.1925.66159.4864,0,.3044-.224.4935-.6299.4935a1.07427,1.07427,0,0,1-.75969-.2834l-.12241.19951a1.27451,1.27451,0,0,0,.8821.3149c.59131,0,.889-.3149.889-.7245C217.4902,272.1082,217.22771,271.8318,216.7027,271.8037Z" transform="translate(-131.017 -144.36319)" style="fill:#434242"/><path d="M159.7686,223.0657h-.4901v-.56691h-.245v.56691h-1.06409l1.2529-1.582h-.27971l-1.2986,1.6239v.182h1.38251v.6441h.252v-.6441h.4901Zm-3.4232.6579c-.4268,0-.7211-.3606-.7211-1.0148,0-.6545.2943-1.01511.7211-1.01511s.7209.36061.7209,1.01511C157.0663,223.363,156.77229,223.7236,156.3454,223.7236Zm0,.231c.567,0,.98-.46541.98-1.2458,0-.7807-.413-1.24611-.98-1.24611s-.9765.46541-.9765,1.24611C155.3689,223.4892,155.7785,223.95461,156.3454,223.95461Zm-1.48759-.3849a.18317.18317,0,0,0-.18541.1891.17679.17679,0,0,0,.1259.1783l-.11909.5076h.16811l.1472-.483a.57571.57571,0,0,0,.049-.2029A.18321.18321,0,0,0,154.8578,223.5697Zm-1.89011.14.8331-.81891a1.00771,1.00771,0,0,0,.4025-.76649c0-.40959-.3149-.66161-.81209-.66161a1.101,1.101,0,0,0-.868.35011l.1786.1539a.832.832,0,0,1,.6684-.273c.37451,0,.574.17491.574.4584,0,.16811-.0524.3325-.3288.6055l-1.01851.9975v.1786h1.71841v-.224Z" transform="translate(-131.017 -144.36319)" style="fill:#434242"/><line x1="94.8813" y1="8.93021" x2="44.754" y2="8.93021" style="fill:none;stroke:#b1b2b2;stroke-miterlimit:22.92558479309082;stroke-width:0.2160000056028366px"/><line x1="14.3813" y1="8.93021" x2="7.6329" y2="8.93021" style="fill:none;stroke:#b1b2b2;stroke-miterlimit:22.92558479309082;stroke-width:0.2160000056028366px"/><line x1="140.88159" y1="127.6806" x2="134.13321" y2="127.6806" style="fill:none;stroke:#b1b2b2;stroke-miterlimit:22.92558479309082;stroke-width:0.2160000056028366px"/><line x1="83.38141" y1="127.6806" x2="52.4696" y2="127.6806" style="fill:none;stroke:#b1b2b2;stroke-miterlimit:22.92558479309082;stroke-width:0.2160000056028366px"/><line x1="20.43761" y1="78.41051" x2="6.6496" y2="78.41051" style="fill:none;stroke:#b1b2b2;stroke-miterlimit:22.92558479309082;stroke-width:0.2160000056028366px"/><line x1="149.8522" y1="8.93021" x2="104.3204" y2="8.93021" style="fill:none;stroke:#b1b2b2;stroke-miterlimit:22.92558479309082;stroke-width:0.2160000056028366px"/><line x1="30.56891" y1="8.93021" x2="23.8204" y2="8.93021" style="fill:none;stroke:#b1b2b2;stroke-miterlimit:22.92558479309082;stroke-width:0.2160000056028366px"/><line x1="157.06921" y1="127.6806" x2="150.32071" y2="127.6806" style="fill:none;stroke:#b1b2b2;stroke-miterlimit:22.92558479309082;stroke-width:0.2160000056028366px"/><line x1="124.64171" y1="127.6806" x2="92.8205" y2="127.6806" style="fill:none;stroke:#b1b2b2;stroke-miterlimit:22.92558479309082;stroke-width:0.2160000056028366px"/><line x1="46.09081" y1="78.41051" x2="29.8766" y2="78.41051" style="fill:none;stroke:#b1b2b2;stroke-miterlimit:22.92558479309082;stroke-width:0.2160000056028366px"/><path d="M141.42529,249.0052v.315l-.78069-.08391v-1.12h-.22391v1.3405l1.2285.1259v-.5213c0-.62311.19589-.8192.51109-.8192.29741,0,.50031.22049.50031.63719a1.06137,1.06137,0,0,1-.2834.7523l.19951.1225a1.26453,1.26453,0,0,0,.315-.87849c0-.5984-.3255-.8889-.7419-.8889-.43419,0-.7245.28-.7245,1.0184m0,1.96359v.31491l-.78069-.08391v-1.1199h-.22391v1.3405l1.2285.12581v-.5213c0-.623.19589-.8192.51109-.8192.29741,0,.50031.2206.50031.63719a1.06167,1.06167,0,0,1-.2834.75241l.19951.12239a1.26446,1.26446,0,0,0,.315-.8784c0-.59839-.3255-.889-.7419-.889C141.71561,249.9503,141.42529,250.23039,141.42529,250.9688Zm1.08141,1.19371a.18318.18318,0,0,0,.1891.18539.17676.17676,0,0,0,.1783-.1259l.50771.11909V252.173l-.48311-.1472a.57486.57486,0,0,0-.2029-.049A.18321.18321,0,0,0,142.5067,252.16251Zm.14,1.89009-.81889-.8331a1.00775,1.00775,0,0,0-.76651-.4025c-.40959,0-.66159.3149-.66159.8121a1.1013,1.1013,0,0,0,.3501.868l.1539-.1786a.832.832,0,0,1-.273-.6684c0-.3745.1749-.574.45839-.574.16811,0,.3325.0524.6055.3288l.9975,1.01851h.1786V252.705h-.224Z" transform="translate(-131.017 -144.36319)" style="fill:#434242"/><path d="M142.67821,182.63541c0,.42349-.2554.64769-.525.64769a.56717.56717,0,0,1-.5354-.6301c0-.3779.2063-.616.5283-.616a.53608.53608,0,0,1,.5321.5984m-1.27391-.021a.78344.78344,0,0,0,.4198.74921c-.07339.00679-.1434.0105-.19949.0105-.66481,0-1.0043-.3396-1.0043-.8679a.86115.86115,0,0,1,.1153-.4763l-.2029-.10139a1.12554,1.12554,0,0,0-.133.5811c0,.665.434,1.1199,1.26709,1.1199.7733,0,1.2249-.3535,1.2249-1.00461a.76338.76338,0,0,0-.75259-.83649A.74175.74175,0,0,0,141.4043,182.6144Zm.0663,2.1561-.87129-.69279h-.1786v1.57491h.22391v-1.2529l.85069.67889h.18539v-.1749c0-.4552.1925-.66161.4864-.66161.3045,0,.4935.22391.4935.6299a1.074,1.074,0,0,1-.2834.7596l.19951.12251a1.27476,1.27476,0,0,0,.315-.88211c0-.5914-.315-.889-.72459-.889C141.7751,183.983,141.4987,184.2455,141.4706,184.77049Zm1.0361,1.4176a.18318.18318,0,0,0,.1891.18541.17676.17676,0,0,0,.1783-.1259l.50771.11909v-.16811l-.48311-.14709a.57348.57348,0,0,0-.2029-.0491A.18322.18322,0,0,0,142.5067,186.1881Zm-1.0361,1.3334-.87129-.69279h-.1786v1.57489h.22391v-1.2529l.85069.67891h.18539v-.17491c0-.4552.1925-.66159.4864-.66159.3045,0,.4935.224.4935.6299a1.07434,1.07434,0,0,1-.2834.7597l.19951.12239a1.27455,1.27455,0,0,0,.315-.8821c0-.59131-.315-.889-.72459-.889C141.7751,186.734,141.4987,186.99651,141.4706,187.5215Z" transform="translate(-131.017 -144.36319)" style="fill:#434242"/><path d="M277.1983,178.00079c0,.42351-.2554.64771-.525.64771a.56725.56725,0,0,1-.5354-.6302c0-.37779.2063-.61589.52829-.61589a.53606.53606,0,0,1,.5321.59839m-1.2739-.021a.78343.78343,0,0,0,.4198.74921c-.07339.00679-.1434.0105-.19949.0105-.66483,0-1.00443-.3396-1.00443-.868a.8606.8606,0,0,1,.11542-.47621l-.20291-.1015a1.126,1.126,0,0,0-.133.5811c0,.665.434,1.12,1.26709,1.12.77332,0,1.22482-.3535,1.22482-1.00461a.7633.7633,0,0,0-.75262-.8365A.74173.74173,0,0,0,275.92441,177.9798Zm1.25629,2.35561c0,.4269-.3605.7211-1.0148.7211-.65448,0-1.01511-.2942-1.01511-.7211s.36063-.7209,1.01511-.7209C276.82019,179.6145,277.18069,179.90849,277.18069,180.3354Zm.231,0c0-.56691-.46542-.9799-1.24582-.9799-.78058,0-1.24609.413-1.24609.9799s.46552.9765,1.24609.9765C276.94629,181.3119,277.41171,180.9023,277.41171,180.3354Zm-.38492,1.48759a.18317.18317,0,0,0,.18912.18539.17665.17665,0,0,0,.17828-.1259l.50769.11911v-.16811l-.48309-.14709a.57348.57348,0,0,0-.20288-.0491A.18321.18321,0,0,0,277.02679,181.823Zm-1.0361,1.3334-.87131-.69281h-.17859v1.575h.22391v-1.2529l.85071.67889h.18539v-.1749c0-.45531.1925-.6617.48639-.6617.3045,0,.4935.224.4935.6299a1.07429,1.07429,0,0,1-.28339.75969l.19949.12241a1.27425,1.27425,0,0,0,.31491-.8821c0-.59131-.31491-.8889-.72452-.8889C276.2952,182.369,276.0188,182.6315,275.99069,183.1564Z" transform="translate(-131.017 -144.36319)" style="fill:#434242"/><path d="M285.49081,246.1496l-.87143-.69279h-.17859v1.575h.224v-1.2529l.85062.67889h.18539v-.1749c0-.45529.1925-.6617.48639-.6617.3045,0,.49359.224.49359.6299a1.07437,1.07437,0,0,1-.28348.7597l.19958.12239a1.27468,1.27468,0,0,0,.31491-.8821c0-.59129-.31491-.8889-.72461-.8889-.392,0-.6684.26241-.69638.7874m.20288,2.13881c0,.37779-.2063.61589-.52829.61589a.53629.53629,0,0,1-.5321-.5986c0-.42349.25571-.64749.525-.64749A.56708.56708,0,0,1,285.6937,248.28841Zm-1.2739.02769a.76318.76318,0,0,0,.75259.8365.7416.7416,0,0,0,.7348-.826.78276.78276,0,0,0-.4198-.7489c.07339-.0071.1434-.0105.19949-.0105.665,0,1.0043.3396,1.0043.868a.85887.85887,0,0,1-.1153.47591l.20291.1015a1.12408,1.12408,0,0,0,.133-.58081c0-.665-.434-1.12-1.26709-1.12C284.8714,247.3118,284.4198,247.6653,284.4198,248.3161Zm2.107,1.31281a.18318.18318,0,0,0,.18912.18539.17677.17677,0,0,0,.17828-.1259l.50769.11909v-.16809l-.483-.1472a.576.576,0,0,0-.203-.049A.1832.1832,0,0,0,286.52679,249.62891Zm.14011,1.89009-.819-.8331a1.0076,1.0076,0,0,0-.76651-.4025c-.40958,0-.66159.3149-.66159.8121a1.1013,1.1013,0,0,0,.3501.868l.1539-.1786a.83224.83224,0,0,1-.27289-.6684c0-.3745.1749-.574.45828-.574.16812,0,.33252.0524.6055.3288l.9975,1.01851h.17862v-1.7184h-.22391Z" transform="translate(-131.017 -144.36319)" style="fill:#434242"/><path d="M186.6906,247.5584h.6826v-.2486h-.4586v-1.26l2.226,1.008v-.2729l-2.27139-1.0253h-.1786Zm0,1.3439h.224v-.57739h2.226v-.252h-2.45Zm2.086.3569a.18317.18317,0,0,0,.1891.18539.17668.17668,0,0,0,.1783-.12579l.50771.119v-.16811l-.483-.14709a.57347.57347,0,0,0-.203-.049A.1832.1832,0,0,0,188.7766,249.2592Zm-1.036,1.3334-.8714-.6927h-.1786v1.57489h.224v-1.2529l.8506.67891h.18541v-.1749c0-.45531.19249-.66161.48639-.66161.3045,0,.49361.22389.49361.62979a1.07436,1.07436,0,0,1-.28351.7597l.19951.1225a1.27481,1.27481,0,0,0,.315-.8822c0-.59129-.315-.88889-.72461-.88889C188.045,249.80521,187.7686,250.0677,187.7406,250.59261Z" transform="translate(-131.017 -144.36319)" style="fill:#434242"/><line x1="10.6937" y1="111.52631" x2="10.6937" y2="125.1788" style="fill:none;stroke:#b1b2b2;stroke-miterlimit:22.92558479309082;stroke-width:0.2160000056028366px"/><line x1="10.6937" y1="45.42941" x2="10.6937" y2="71.61761" style="fill:none;stroke:#b1b2b2;stroke-miterlimit:22.92558479309082;stroke-width:0.2160000056028366px"/><line x1="145.21381" y1="40.92941" x2="145.21381" y2="65.6331" style="fill:none;stroke:#b1b2b2;stroke-miterlimit:22.92558479309082;stroke-width:0.2160000056028366px"/><line x1="154.7139" y1="108.92941" x2="154.7139" y2="131.798" style="fill:none;stroke:#b1b2b2;stroke-miterlimit:22.92558479309082;stroke-width:0.2160000056028366px"/><line x1="56.9637" y1="108.92941" x2="56.9637" y2="131.33421" style="fill:none;stroke:#b1b2b2;stroke-miterlimit:22.92558479309082;stroke-width:0.2160000056028366px"/><line x1="10.6937" y1="74.2198" x2="10.6937" y2="102.0872" style="fill:none;stroke:#b1b2b2;stroke-miterlimit:22.92558479309082;stroke-width:0.2160000056028366px"/><line x1="10.6937" y1="5.00201" x2="10.6937" y2="35.99031" style="fill:none;stroke:#b1b2b2;stroke-miterlimit:22.92558479309082;stroke-width:0.2160000056028366px"/><line x1="145.21381" y1="5.00201" x2="145.21381" y2="31.49031" style="fill:none;stroke:#b1b2b2;stroke-miterlimit:22.92558479309082;stroke-width:0.2160000056028366px"/><line x1="154.71609" y1="73.79321" x2="154.71609" y2="99.4904" style="fill:none;stroke:#b1b2b2;stroke-miterlimit:22.92558479309082;stroke-width:0.2160000056028366px"/><line x1="56.9637" y1="68.34041" x2="56.9637" y2="99.4904" style="fill:none;stroke:#b1b2b2;stroke-miterlimit:22.92558479309082;stroke-width:0.2160000056028366px"/></svg>