<?xml version="1.0" encoding="utf-8"?>
<!-- Generator: Adobe Illustrator 23.0.2, SVG Export Plug-In . SVG Version: 6.00 Build 0)  -->
<svg version="1.1" id="plan" xmlns="http://www.w3.org/2000/svg" xmlns:xlink="http://www.w3.org/1999/xlink" x="0px" y="0px"
	 viewBox="0 0 530 410" enable-background="new 0 0 530 410" xml:space="preserve">
<g id="back">
	<rect x="27.002" y="4.683" fill="#FFFFFF" width="498.248" height="400.95"/>
</g>
<g id="walls">
	<polygon fill="#828282" stroke="#000000" stroke-linecap="round" stroke-linejoin="round" stroke-miterlimit="10" points="
		27.002,233.083 27.002,98.747 27.002,91.986 37.291,91.986 37.291,405.632 27.002,405.632 	"/>
	
		<rect x="27.002" y="4.683" fill="#828282" stroke="#000000" stroke-linecap="round" stroke-linejoin="round" stroke-miterlimit="10" width="10.288" height="44.093"/>
	
		<rect x="508.495" y="323.914" fill="#828282" stroke="#000000" stroke-linecap="round" stroke-linejoin="round" stroke-miterlimit="10" width="10.288" height="75.252"/>
	
		<rect x="173.684" y="4.683" fill="#828282" stroke="#000000" stroke-linecap="round" stroke-linejoin="round" stroke-miterlimit="10" width="183.426" height="12.934"/>
	
		<rect x="501.44" y="155.774" fill="#828282" stroke="#000000" stroke-linecap="round" stroke-linejoin="round" stroke-miterlimit="10" width="17.343" height="25.868"/>
	
		<rect x="501.44" y="4.683" fill="#828282" stroke="#000000" stroke-linecap="round" stroke-linejoin="round" stroke-miterlimit="10" width="17.343" height="25.868"/>
	<polyline fill="#828282" stroke="#000000" stroke-linecap="round" stroke-linejoin="round" stroke-miterlimit="10" points="
		357.11,17.616 501.44,17.616 501.44,4.683 357.11,4.683 	"/>
	
		<rect x="176.918" y="323.914" fill="#828282" stroke="#000000" stroke-linecap="round" stroke-linejoin="round" stroke-miterlimit="10" width="10.582" height="75.252"/>
	<polygon fill="#828282" stroke="#000000" stroke-linecap="round" stroke-linejoin="round" stroke-miterlimit="10" points="
		518.783,59.473 518.783,30.55 508.495,30.55 508.495,59.473 515.844,59.473 	"/>
	<polygon fill="#828282" stroke="#000000" stroke-linecap="round" stroke-linejoin="round" stroke-miterlimit="10" points="
		515.844,122.085 508.495,122.085 508.495,155.774 518.783,155.774 518.783,122.085 	"/>
	
		<line fill="none" stroke="#000000" stroke-linecap="round" stroke-linejoin="round" stroke-miterlimit="10" x1="518.783" y1="222.501" x2="518.783" y2="181.641"/>
	<polygon fill="#828282" stroke="#000000" stroke-linecap="round" stroke-linejoin="round" stroke-miterlimit="10" points="
		508.495,323.914 508.495,285.112 515.844,285.112 518.783,285.112 518.783,323.914 	"/>
	
		<line fill="#828282" stroke="#000000" stroke-linecap="round" stroke-linejoin="round" stroke-miterlimit="10" x1="357.11" y1="399.165" x2="415.496" y2="399.165"/>
	
		<line fill="#828282" stroke="#000000" stroke-linecap="round" stroke-linejoin="round" stroke-miterlimit="10" x1="249.23" y1="399.165" x2="270.688" y2="399.165"/>
	<polyline fill="#828282" stroke="#000000" stroke-linecap="round" stroke-linejoin="round" stroke-miterlimit="10" points="
		270.688,399.166 270.688,388.583 249.23,388.583 249.23,399.166 	"/>
	
		<rect x="335.357" y="373.298" fill="#828282" stroke="#000000" stroke-linecap="round" stroke-linejoin="round" stroke-miterlimit="10" width="21.752" height="25.868"/>
	<polygon fill="#828282" stroke="#000000" stroke-linecap="round" stroke-linejoin="round" stroke-miterlimit="10" points="
		37.291,334.496 97.551,334.496 97.551,340.963 43.758,340.963 43.758,405.632 43.758,399.165 37.291,399.165 	"/>
	
		<rect x="170.451" y="399.165" fill="#828282" stroke="#000000" stroke-linecap="round" stroke-linejoin="round" stroke-miterlimit="10" width="35.568" height="6.467"/>
	<polygon fill="#828282" stroke="#000000" stroke-linecap="round" stroke-linejoin="round" stroke-miterlimit="10" points="
		176.918,399.165 170.451,399.166 170.451,340.963 166.629,340.963 166.629,334.496 176.918,334.496 	"/>
	
		<rect x="246.878" y="399.165" fill="#828282" stroke="#000000" stroke-linecap="round" stroke-linejoin="round" stroke-miterlimit="10" width="25.868" height="6.467"/>
	
		<rect x="313.899" y="399.165" fill="#828282" stroke="#000000" stroke-linecap="round" stroke-linejoin="round" stroke-miterlimit="10" width="103.655" height="6.467"/>
	
		<line fill="#828282" stroke="#000000" stroke-linecap="round" stroke-linejoin="round" stroke-miterlimit="10" x1="357.11" y1="399.165" x2="335.357" y2="399.165"/>
	<polygon fill="#828282" stroke="#000000" stroke-linecap="round" stroke-linejoin="round" stroke-miterlimit="10" points="
		518.783,61.531 525.25,61.531 525.25,4.683 518.783,4.683 518.783,33.911 	"/>
	
		<line fill="none" stroke="#000000" stroke-linecap="round" stroke-linejoin="round" stroke-miterlimit="10" x1="518.783" y1="224.852" x2="525.25" y2="224.852"/>
	
		<line fill="none" stroke="#000000" stroke-linecap="round" stroke-linejoin="round" stroke-miterlimit="10" x1="518.783" y1="155.774" x2="518.783" y2="180.759"/>
	<g>
		
			<line fill="none" stroke="#000000" stroke-width="1.5" stroke-linecap="round" stroke-linejoin="round" stroke-miterlimit="10" x1="27.002" y1="91.986" x2="5.25" y2="54.36"/>
		
			<path fill="none" stroke="#000000" stroke-width="1.5" stroke-linecap="round" stroke-linejoin="round" stroke-miterlimit="10" d="
			M357.11,186.051l33.51,19.401 M376.027,149.892l19.401-33.51"/>
		
			<line fill="none" stroke="#000000" stroke-width="1.5" stroke-linecap="round" stroke-linejoin="round" stroke-miterlimit="10" x1="264.221" y1="104.038" x2="294.204" y2="121.087"/>
		
			<line fill="none" stroke="#000000" stroke-width="1.5" stroke-linecap="round" stroke-linejoin="round" stroke-miterlimit="10" x1="170.451" y1="104.038" x2="200.434" y2="121.087"/>
		
			<line fill="none" stroke="#000000" stroke-width="1.5" stroke-linecap="round" stroke-linejoin="round" stroke-miterlimit="10" x1="266.279" y1="160.183" x2="234.238" y2="178.408"/>
		
			<line fill="none" stroke="#000000" stroke-width="1.5" stroke-linecap="round" stroke-linejoin="round" stroke-miterlimit="10" x1="210.134" y1="160.183" x2="226.889" y2="169.883"/>
		
			<line fill="none" stroke="#000000" stroke-width="1.5" stroke-linecap="round" stroke-linejoin="round" stroke-miterlimit="10" x1="146.934" y1="160.183" x2="113.13" y2="179.584"/>
		
			<line fill="none" stroke="#000000" stroke-width="1.5" stroke-linecap="round" stroke-linejoin="round" stroke-miterlimit="10" x1="164.572" y1="331.263" x2="134.589" y2="314.213"/>
	</g>
	
		<line fill="none" stroke="#000000" stroke-linecap="round" stroke-linejoin="round" stroke-miterlimit="10" x1="164.572" y1="334.496" x2="164.572" y2="331.263"/>
	
		<line fill="none" stroke="#000000" stroke-linecap="round" stroke-linejoin="round" stroke-miterlimit="10" x1="95.493" y1="334.496" x2="95.493" y2="331.263"/>
	
		<line fill="none" stroke="#000000" stroke-linecap="round" stroke-linejoin="round" stroke-miterlimit="10" x1="415.496" y1="399.165" x2="415.496" y2="395.932"/>
	
		<line fill="none" stroke="#000000" stroke-linecap="round" stroke-linejoin="round" stroke-miterlimit="10" x1="518.783" y1="122.084" x2="515.844" y2="122.084"/>
	
		<line fill="none" stroke="#000000" stroke-linecap="round" stroke-linejoin="round" stroke-miterlimit="10" x1="518.783" y1="285.112" x2="518.783" y2="285.112"/>
	<g>
		
			<rect x="165.747" y="155.774" fill="#C7C7C7" stroke="#000000" stroke-linecap="round" stroke-linejoin="round" stroke-miterlimit="10" width="21.752" height="25.868"/>
		
			<rect x="335.357" y="155.774" fill="#C7C7C7" stroke="#000000" stroke-linecap="round" stroke-linejoin="round" stroke-miterlimit="10" width="21.752" height="25.868"/>
		
			<rect x="352.701" y="181.641" fill="#C7C7C7" stroke="#000000" stroke-linecap="round" stroke-linejoin="round" stroke-miterlimit="10" width="4.409" height="191.656"/>
		
			<rect x="187.5" y="155.774" fill="#C7C7C7" stroke="#000000" stroke-linecap="round" stroke-linejoin="round" stroke-miterlimit="10" width="22.634" height="4.409"/>
		
			<rect x="266.279" y="155.774" fill="#C7C7C7" stroke="#000000" stroke-linecap="round" stroke-linejoin="round" stroke-miterlimit="10" width="69.079" height="4.409"/>
		<polyline fill="#C7C7C7" stroke="#000000" stroke-linecap="round" stroke-linejoin="round" stroke-miterlimit="10" points="
			508.495,181.641 400.027,181.641 400.027,154.892 395.911,154.892 395.911,186.051 508.495,186.051 		"/>
		
			<rect x="395.323" y="17.616" fill="#C7C7C7" stroke="#000000" stroke-linecap="round" stroke-linejoin="round" stroke-miterlimit="10" width="4.409" height="25.868"/>
		<polygon fill="#C7C7C7" stroke="#000000" stroke-linecap="round" stroke-linejoin="round" stroke-miterlimit="10" points="
			337.115,17.616 337.115,99.629 298.313,99.629 298.313,104.038 395.611,104.038 395.611,116.09 399.727,116.09 399.727,99.629 
			345.934,99.629 345.934,17.616 		"/>
		<polygon fill="#C7C7C7" stroke="#000000" stroke-linecap="round" stroke-linejoin="round" stroke-miterlimit="10" points="
			208.664,99.629 208.664,34.96 205.137,34.96 205.137,104.038 264.221,104.038 264.221,99.629 		"/>
		<polygon fill="#C7C7C7" stroke="#000000" stroke-linecap="round" stroke-linejoin="round" stroke-miterlimit="10" points="
			148.698,17.616 148.698,99.629 170.451,99.629 170.451,104.038 144.289,104.038 144.289,17.616 		"/>
		
			<rect x="146.935" y="155.774" fill="#C7C7C7" stroke="#000000" stroke-linecap="round" stroke-linejoin="round" stroke-miterlimit="10" width="18.813" height="4.409"/>
		<polygon fill="#C7C7C7" stroke="#000000" stroke-linecap="round" stroke-linejoin="round" stroke-miterlimit="10" points="
			37.291,129.906 92.554,129.906 92.554,115.393 54.634,115.393 54.634,111.865 96.669,111.865 96.669,155.774 108.133,155.774 
			108.133,160.183 92.554,160.183 92.554,133.433 37.291,133.433 		"/>
		
			<rect x="37.291" y="111.865" fill="#C7C7C7" stroke="#000000" stroke-linecap="round" stroke-linejoin="round" stroke-miterlimit="10" width="17.343" height="2.058"/>
		<polyline fill="#C7C7C7" stroke="#000000" stroke-linecap="round" stroke-linejoin="round" stroke-miterlimit="10" points="
			207.195,17.616 207.195,34.96 205.137,34.96 205.137,17.616 		"/>
		<polygon fill="#C7C7C7" stroke="#000000" stroke-linecap="round" stroke-linejoin="round" stroke-miterlimit="10" points="
			226.139,45.964 208.796,45.964 208.796,42.906 223.139,42.906 223.139,17.616 226.139,17.616 		"/>
		
			<rect x="183.091" y="237.786" fill="#C7C7C7" stroke="#000000" stroke-linecap="round" stroke-linejoin="round" stroke-miterlimit="10" width="4.409" height="86.128"/>
	</g>
	
		<line fill="none" stroke="#000000" stroke-linecap="round" stroke-linejoin="round" stroke-miterlimit="10" x1="203.667" y1="399.165" x2="203.667" y2="395.932"/>
	
		<line fill="none" stroke="#000000" stroke-linecap="round" stroke-linejoin="round" stroke-miterlimit="10" x1="270.688" y1="399.165" x2="270.688" y2="395.932"/>
	<polyline fill="#828282" stroke="#000000" stroke-linecap="round" stroke-linejoin="round" stroke-miterlimit="10" points="
		315.957,399.165 335.357,399.165 335.357,388.583 315.957,388.583 315.957,399.165 	"/>
	
		<line fill="#828282" stroke="#000000" stroke-linecap="round" stroke-linejoin="round" stroke-miterlimit="10" x1="246.878" y1="399.165" x2="272.746" y2="399.165"/>
	
		<line fill="none" stroke="#000000" stroke-linecap="round" stroke-linejoin="round" stroke-miterlimit="10" x1="313.899" y1="399.165" x2="315.957" y2="399.165"/>
	
		<line fill="none" stroke="#000000" stroke-linecap="round" stroke-linejoin="round" stroke-miterlimit="10" x1="415.496" y1="399.165" x2="417.554" y2="399.165"/>
	
		<rect x="357.11" y="388.583" fill="#828282" stroke="#000000" stroke-linecap="round" stroke-linejoin="round" stroke-miterlimit="10" width="58.387" height="10.582"/>
	
		<rect x="478.108" y="388.583" fill="#828282" stroke="#000000" stroke-linecap="round" stroke-linejoin="round" stroke-miterlimit="10" width="30.387" height="10.582"/>
	
		<line fill="none" stroke="#000000" stroke-linecap="round" stroke-linejoin="round" stroke-miterlimit="10" x1="515.844" y1="285.112" x2="518.783" y2="285.112"/>
	
		<line fill="none" stroke="#000000" stroke-linecap="round" stroke-linejoin="round" stroke-miterlimit="10" x1="518.783" y1="285.112" x2="518.783" y2="283.055"/>
	<polygon fill="#828282" stroke="#000000" stroke-linecap="round" stroke-linejoin="round" stroke-miterlimit="10" points="
		518.783,222.501 518.783,224.852 525.25,224.852 525.25,119.733 518.783,119.733 	"/>
	<polyline fill="#828282" stroke="#000000" stroke-linecap="round" stroke-linejoin="round" stroke-miterlimit="10" points="
		37.291,4.683 37.291,17.616 148.698,17.616 173.684,17.616 173.684,4.683 100.196,4.683 37.291,4.683 	"/>
	<polygon fill="#828282" stroke="#000000" stroke-linecap="round" stroke-linejoin="round" stroke-miterlimit="10" points="
		518.783,181.641 508.495,181.641 508.495,222.501 515.844,222.501 518.783,222.501 	"/>
	<polygon fill="#828282" stroke="#000000" stroke-linecap="round" stroke-linejoin="round" stroke-miterlimit="10" points="
		518.783,399.165 475.756,399.165 475.756,405.632 525.25,405.632 525.25,283.055 518.783,283.055 	"/>
	
		<rect x="37.291" y="323.914" fill="#828282" stroke="#000000" stroke-linecap="round" stroke-linejoin="round" stroke-miterlimit="10" width="58.202" height="10.582"/>
	
		<rect x="37.291" y="399.165" fill="#828282" stroke="#000000" stroke-linecap="round" stroke-linejoin="round" stroke-miterlimit="10" width="6.467" height="6.467"/>
	
		<rect x="187.5" y="388.583" fill="#828282" stroke="#000000" stroke-linecap="round" stroke-linejoin="round" stroke-miterlimit="10" width="16.167" height="10.582"/>
	
		<rect x="168.981" y="323.914" fill="#828282" stroke="#000000" stroke-linecap="round" stroke-linejoin="round" stroke-miterlimit="10" width="7.937" height="10.582"/>
	<g>
		<g>
			
				<line fill="none" stroke="#000000" stroke-width="0.5" stroke-linecap="round" stroke-linejoin="round" stroke-miterlimit="10" x1="43.758" y1="390.347" x2="170.451" y2="390.347"/>
			
				<line fill="none" stroke="#000000" stroke-width="0.5" stroke-linecap="round" stroke-linejoin="round" stroke-miterlimit="10" x1="170.451" y1="405.632" x2="43.758" y2="405.632"/>
			
				<rect x="45.815" y="396.52" fill="none" stroke="#000000" stroke-width="0.5" stroke-linecap="round" stroke-linejoin="round" stroke-miterlimit="10" width="122.578" height="0.882"/>
			
				<path fill="none" stroke="#000000" stroke-width="0.5" stroke-linecap="round" stroke-linejoin="round" stroke-miterlimit="10" d="
				M168.393,394.756H45.815 M168.393,399.165H45.815"/>
			
				<rect x="168.393" y="394.756" fill="none" stroke="#000000" stroke-width="0.5" stroke-linecap="round" stroke-linejoin="round" stroke-miterlimit="10" width="2.058" height="4.409"/>
			
				<rect x="43.758" y="394.756" fill="none" stroke="#000000" stroke-width="0.5" stroke-linecap="round" stroke-linejoin="round" stroke-miterlimit="10" width="2.058" height="4.409"/>
		</g>
		<g>
			
				<line fill="none" stroke="#000000" stroke-width="0.5" stroke-linecap="round" stroke-linejoin="round" stroke-miterlimit="10" x1="415.496" y1="388.583" x2="478.108" y2="388.583"/>
			
				<line fill="none" stroke="#000000" stroke-width="0.5" stroke-linecap="round" stroke-linejoin="round" stroke-miterlimit="10" x1="475.756" y1="405.632" x2="416.337" y2="405.632"/>
			
				<line fill="none" stroke="#000000" stroke-width="0.5" stroke-linecap="round" stroke-linejoin="round" stroke-miterlimit="10" x1="415.496" y1="395.932" x2="478.108" y2="395.932"/>
			
				<line fill="none" stroke="#000000" stroke-width="0.5" stroke-linecap="round" stroke-linejoin="round" stroke-miterlimit="10" x1="475.756" y1="399.165" x2="475.756" y2="395.932"/>
			
				<line fill="none" stroke="#000000" stroke-width="0.5" stroke-linecap="round" stroke-linejoin="round" stroke-miterlimit="10" x1="417.554" y1="399.165" x2="417.554" y2="395.932"/>
			
				<line fill="none" stroke="#000000" stroke-width="0.5" stroke-linecap="round" stroke-linejoin="round" stroke-miterlimit="10" x1="419.612" y1="399.165" x2="419.612" y2="395.932"/>
			
				<line fill="none" stroke="#000000" stroke-width="0.5" stroke-linecap="round" stroke-linejoin="round" stroke-miterlimit="10" x1="445.186" y1="399.165" x2="445.186" y2="395.932"/>
			
				<line fill="none" stroke="#000000" stroke-width="0.5" stroke-linecap="round" stroke-linejoin="round" stroke-miterlimit="10" x1="446.655" y1="399.165" x2="446.655" y2="395.932"/>
			
				<line fill="none" stroke="#000000" stroke-width="0.5" stroke-linecap="round" stroke-linejoin="round" stroke-miterlimit="10" x1="448.125" y1="399.165" x2="448.125" y2="395.932"/>
			
				<line fill="none" stroke="#000000" stroke-width="0.5" stroke-linecap="round" stroke-linejoin="round" stroke-miterlimit="10" x1="473.699" y1="399.165" x2="473.699" y2="395.932"/>
			
				<polyline fill="none" stroke="#000000" stroke-width="0.5" stroke-linecap="round" stroke-linejoin="round" stroke-miterlimit="10" points="
				415.496,399.165 478.108,399.165 478.108,395.932 			"/>
		</g>
		<g>
			
				<line fill="none" stroke="#000000" stroke-width="0.5" stroke-linecap="round" stroke-linejoin="round" stroke-miterlimit="10" x1="508.495" y1="122.085" x2="508.495" y2="59.473"/>
			
				<line fill="none" stroke="#000000" stroke-width="0.5" stroke-linecap="round" stroke-linejoin="round" stroke-miterlimit="10" x1="525.25" y1="61.53" x2="525.25" y2="119.733"/>
			
				<line fill="none" stroke="#000000" stroke-width="0.5" stroke-linecap="round" stroke-linejoin="round" stroke-miterlimit="10" x1="515.844" y1="122.084" x2="515.844" y2="59.473"/>
			
				<line fill="none" stroke="#000000" stroke-width="0.5" stroke-linecap="round" stroke-linejoin="round" stroke-miterlimit="10" x1="518.783" y1="61.53" x2="515.844" y2="61.53"/>
			
				<line fill="none" stroke="#000000" stroke-width="0.5" stroke-linecap="round" stroke-linejoin="round" stroke-miterlimit="10" x1="518.783" y1="119.733" x2="515.844" y2="119.733"/>
			
				<line fill="none" stroke="#000000" stroke-width="0.5" stroke-linecap="round" stroke-linejoin="round" stroke-miterlimit="10" x1="518.783" y1="117.675" x2="515.844" y2="117.675"/>
			
				<line fill="none" stroke="#000000" stroke-width="0.5" stroke-linecap="round" stroke-linejoin="round" stroke-miterlimit="10" x1="518.783" y1="92.101" x2="515.844" y2="92.101"/>
			
				<line fill="none" stroke="#000000" stroke-width="0.5" stroke-linecap="round" stroke-linejoin="round" stroke-miterlimit="10" x1="518.783" y1="90.632" x2="515.844" y2="90.632"/>
			
				<line fill="none" stroke="#000000" stroke-width="0.5" stroke-linecap="round" stroke-linejoin="round" stroke-miterlimit="10" x1="518.783" y1="89.162" x2="515.844" y2="89.162"/>
			
				<line fill="none" stroke="#000000" stroke-width="0.5" stroke-linecap="round" stroke-linejoin="round" stroke-miterlimit="10" x1="518.783" y1="63.588" x2="515.844" y2="63.588"/>
			
				<polyline fill="none" stroke="#000000" stroke-width="0.5" stroke-linecap="round" stroke-linejoin="round" stroke-miterlimit="10" points="
				518.783,122.085 518.783,59.473 515.844,59.473 			"/>
		</g>
		<g>
			
				<line fill="none" stroke="#000000" stroke-width="0.5" stroke-linecap="round" stroke-linejoin="round" stroke-miterlimit="10" x1="508.495" y1="285.112" x2="508.495" y2="222.501"/>
			
				<line fill="none" stroke="#000000" stroke-width="0.5" stroke-linecap="round" stroke-linejoin="round" stroke-miterlimit="10" x1="525.25" y1="224.852" x2="525.25" y2="283.054"/>
			
				<line fill="none" stroke="#000000" stroke-width="0.5" stroke-linecap="round" stroke-linejoin="round" stroke-miterlimit="10" x1="515.844" y1="285.112" x2="515.844" y2="222.501"/>
			
				<line fill="none" stroke="#000000" stroke-width="0.5" stroke-linecap="round" stroke-linejoin="round" stroke-miterlimit="10" x1="518.783" y1="224.852" x2="515.844" y2="224.852"/>
			
				<line fill="none" stroke="#000000" stroke-width="0.5" stroke-linecap="round" stroke-linejoin="round" stroke-miterlimit="10" x1="518.783" y1="283.055" x2="515.844" y2="283.055"/>
			
				<line fill="none" stroke="#000000" stroke-width="0.5" stroke-linecap="round" stroke-linejoin="round" stroke-miterlimit="10" x1="518.783" y1="280.997" x2="515.844" y2="280.997"/>
			
				<line fill="none" stroke="#000000" stroke-width="0.5" stroke-linecap="round" stroke-linejoin="round" stroke-miterlimit="10" x1="518.783" y1="255.423" x2="515.844" y2="255.423"/>
			
				<line fill="none" stroke="#000000" stroke-width="0.5" stroke-linecap="round" stroke-linejoin="round" stroke-miterlimit="10" x1="518.783" y1="253.953" x2="515.844" y2="253.953"/>
			
				<line fill="none" stroke="#000000" stroke-width="0.5" stroke-linecap="round" stroke-linejoin="round" stroke-miterlimit="10" x1="518.783" y1="252.484" x2="515.844" y2="252.484"/>
			
				<line fill="none" stroke="#000000" stroke-width="0.5" stroke-linecap="round" stroke-linejoin="round" stroke-miterlimit="10" x1="518.783" y1="226.91" x2="515.844" y2="226.91"/>
			
				<polyline fill="none" stroke="#000000" stroke-width="0.5" stroke-linecap="round" stroke-linejoin="round" stroke-miterlimit="10" points="
				518.783,285.112 518.783,222.501 515.844,222.501 			"/>
		</g>
		<g>
			
				<line fill="none" stroke="#000000" stroke-width="0.5" stroke-linecap="round" stroke-linejoin="round" stroke-miterlimit="10" x1="203.667" y1="388.583" x2="249.23" y2="388.583"/>
			
				<line fill="none" stroke="#000000" stroke-width="0.5" stroke-linecap="round" stroke-linejoin="round" stroke-miterlimit="10" x1="246.878" y1="405.632" x2="206.019" y2="405.632"/>
			
				<line fill="none" stroke="#000000" stroke-width="0.5" stroke-linecap="round" stroke-linejoin="round" stroke-miterlimit="10" x1="203.667" y1="395.932" x2="249.23" y2="395.932"/>
			
				<line fill="none" stroke="#000000" stroke-width="0.5" stroke-linecap="round" stroke-linejoin="round" stroke-miterlimit="10" x1="246.878" y1="399.165" x2="246.878" y2="395.932"/>
			
				<line fill="none" stroke="#000000" stroke-width="0.5" stroke-linecap="round" stroke-linejoin="round" stroke-miterlimit="10" x1="206.019" y1="399.165" x2="206.019" y2="395.932"/>
			
				<line fill="none" stroke="#000000" stroke-width="0.5" stroke-linecap="round" stroke-linejoin="round" stroke-miterlimit="10" x1="208.076" y1="399.165" x2="208.076" y2="395.932"/>
			
				<line fill="none" stroke="#000000" stroke-width="0.5" stroke-linecap="round" stroke-linejoin="round" stroke-miterlimit="10" x1="244.82" y1="399.165" x2="244.82" y2="395.932"/>
			
				<polyline fill="none" stroke="#000000" stroke-width="0.5" stroke-linecap="round" stroke-linejoin="round" stroke-miterlimit="10" points="
				203.667,399.165 249.23,399.165 249.23,395.932 			"/>
		</g>
		<g>
			
				<line fill="none" stroke="#000000" stroke-width="0.5" stroke-linecap="round" stroke-linejoin="round" stroke-miterlimit="10" x1="270.688" y1="388.583" x2="315.957" y2="388.583"/>
			
				<line fill="none" stroke="#000000" stroke-width="0.5" stroke-linecap="round" stroke-linejoin="round" stroke-miterlimit="10" x1="313.899" y1="405.632" x2="272.746" y2="405.632"/>
			
				<line fill="none" stroke="#000000" stroke-width="0.5" stroke-linecap="round" stroke-linejoin="round" stroke-miterlimit="10" x1="270.688" y1="395.932" x2="315.957" y2="395.932"/>
			
				<line fill="none" stroke="#000000" stroke-width="0.5" stroke-linecap="round" stroke-linejoin="round" stroke-miterlimit="10" x1="313.899" y1="399.165" x2="313.899" y2="395.932"/>
			
				<line fill="none" stroke="#000000" stroke-width="0.5" stroke-linecap="round" stroke-linejoin="round" stroke-miterlimit="10" x1="272.746" y1="399.165" x2="272.746" y2="395.932"/>
			
				<line fill="none" stroke="#000000" stroke-width="0.5" stroke-linecap="round" stroke-linejoin="round" stroke-miterlimit="10" x1="275.097" y1="399.165" x2="275.097" y2="395.932"/>
			
				<line fill="none" stroke="#000000" stroke-width="0.5" stroke-linecap="round" stroke-linejoin="round" stroke-miterlimit="10" x1="311.547" y1="399.165" x2="311.547" y2="395.932"/>
			
				<polyline fill="none" stroke="#000000" stroke-width="0.5" stroke-linecap="round" stroke-linejoin="round" stroke-miterlimit="10" points="
				270.688,399.165 315.957,399.165 315.957,395.932 			"/>
		</g>
		<g>
			
				<polyline fill="none" stroke="#000000" stroke-width="0.5" stroke-linecap="round" stroke-linejoin="round" stroke-miterlimit="10" points="
				95.493,323.914 127.828,323.914 127.828,331.263 			"/>
			
				<polyline fill="none" stroke="#000000" stroke-width="0.5" stroke-linecap="round" stroke-linejoin="round" stroke-miterlimit="10" points="
				97.551,340.963 127.828,340.963 127.828,334.496 			"/>
			
				<line fill="none" stroke="#000000" stroke-width="0.5" stroke-linecap="round" stroke-linejoin="round" stroke-miterlimit="10" x1="95.493" y1="331.263" x2="129.885" y2="331.263"/>
			
				<line fill="none" stroke="#000000" stroke-width="0.5" stroke-linecap="round" stroke-linejoin="round" stroke-miterlimit="10" x1="166.629" y1="334.496" x2="166.629" y2="331.263"/>
			
				<line fill="none" stroke="#000000" stroke-width="0.5" stroke-linecap="round" stroke-linejoin="round" stroke-miterlimit="10" x1="97.551" y1="334.496" x2="97.551" y2="331.263"/>
			
				<line fill="none" stroke="#000000" stroke-width="0.5" stroke-linecap="round" stroke-linejoin="round" stroke-miterlimit="10" x1="99.902" y1="334.496" x2="99.902" y2="331.263"/>
			
				<line fill="none" stroke="#000000" stroke-width="0.5" stroke-linecap="round" stroke-linejoin="round" stroke-miterlimit="10" x1="125.77" y1="334.496" x2="125.77" y2="331.263"/>
			
				<line fill="none" stroke="#000000" stroke-width="0.5" stroke-linecap="round" stroke-linejoin="round" stroke-miterlimit="10" x1="127.828" y1="334.496" x2="127.828" y2="331.263"/>
			
				<line fill="none" stroke="#000000" stroke-width="0.5" stroke-linecap="round" stroke-linejoin="round" stroke-miterlimit="10" x1="129.885" y1="334.496" x2="129.885" y2="331.263"/>
			
				<polyline fill="none" stroke="#000000" stroke-width="0.5" stroke-linecap="round" stroke-linejoin="round" stroke-miterlimit="10" points="
				95.493,334.496 129.885,334.496 129.885,331.263 			"/>
			
				<rect x="164.572" y="331.263" fill="none" stroke="#000000" stroke-width="0.5" stroke-linecap="round" stroke-linejoin="round" stroke-miterlimit="10" width="4.409" height="3.234"/>
		</g>
	</g>
	
		<line fill="none" stroke="#000000" stroke-linecap="round" stroke-linejoin="round" stroke-miterlimit="10" x1="342.706" y1="104.038" x2="342.706" y2="17.616"/>
</g>
<g id="furniture">
	
		<polygon fill-rule="evenodd" clip-rule="evenodd" fill="#F3F3F3" stroke="#595959" stroke-width="0.5" stroke-miterlimit="10" points="
		90.808,134.507 38.525,134.507 38.525,135.132 38.525,160.183 38.525,290.796 67.287,290.796 67.287,160.183 90.808,160.183 	"/>
	<g>
		<path fill-rule="evenodd" clip-rule="evenodd" fill="#F3F3F3" stroke="#595959" stroke-width="0.5" stroke-miterlimit="10" d="
			M322.099,36.356c0,1.072-1.106,1.9-2.386,1.949c-1.222,0-2.27-0.877-2.27-1.949c0-1.072,1.048-1.852,2.27-1.852
			C321.052,34.504,322.099,35.283,322.099,36.356z"/>
		<path fill-rule="evenodd" clip-rule="evenodd" fill="#F3F3F3" stroke="#595959" stroke-width="0.5" stroke-miterlimit="10" d="
			M322.099,36.356c0,1.072-1.106,1.9-2.386,1.949c-1.222,0-2.27-0.877-2.27-1.949c0-1.072,1.048-1.852,2.27-1.852
			C321.052,34.504,322.099,35.283,322.099,36.356z"/>
		
			<polygon fill-rule="evenodd" clip-rule="evenodd" fill="#F3F3F3" stroke="#595959" stroke-width="0.5" stroke-miterlimit="10" points="
			336.456,18.536 303.086,18.536 303.086,98.507 336.456,98.507 336.456,18.536 		"/>
		<path fill-rule="evenodd" clip-rule="evenodd" fill="#F3F3F3" stroke="#595959" stroke-width="0.5" stroke-miterlimit="10" d="
			M305.856,29.99l27.829,0c0,0,0,55.024,0,55.307c0,7.786-4.901,9.09-10.89,9.09l-6.047,0c-5.99,0-10.891-1.304-10.891-9.09
			C305.856,85.014,305.856,29.99,305.856,29.99L305.856,29.99z"/>
		<path fill-rule="evenodd" clip-rule="evenodd" fill="#F3F3F3" stroke="#595959" stroke-width="0.5" stroke-miterlimit="10" d="
			M309.706,26.022c0,0.852,0.802,1.562,1.793,1.562c0.849,0,1.604-0.473,1.793-1.184h2.5c0.283,0,0.472-0.189,0.472-0.474
			c0-0.331-0.188-0.52-0.472-0.52h-2.594c-0.283-0.568-0.944-0.994-1.699-0.994C310.508,24.46,309.706,25.17,309.706,26.022
			L309.706,26.022z"/>
		
			<polyline fill-rule="evenodd" clip-rule="evenodd" fill="#F3F3F3" stroke="#595959" stroke-width="0.5" stroke-miterlimit="10" points="
			316.028,25.927 327.445,25.88 327.445,28.72 320.132,28.72 		"/>
		<path fill-rule="evenodd" clip-rule="evenodd" fill="#F3F3F3" stroke="#595959" stroke-width="0.5" stroke-miterlimit="10" d="
			M318.746,28.005v5.724v0.048h1.595v-0.048v-5.724c0-0.385-0.36-0.722-0.772-0.722C319.106,27.283,318.746,27.62,318.746,28.005z"
			/>
		<path fill-rule="evenodd" clip-rule="evenodd" fill="#F3F3F3" stroke="#595959" stroke-width="0.5" stroke-miterlimit="10" d="
			M318.746,28.005v5.724v0.048h1.595v-0.048v-5.724c0-0.385-0.36-0.722-0.772-0.722C319.106,27.283,318.746,27.62,318.746,28.005z"
			/>
	</g>
	<g>
		<path fill-rule="evenodd" clip-rule="evenodd" fill="#F3F3F3" stroke="#595959" stroke-width="0.5" stroke-miterlimit="10" d="
			M257.722,27.138c0.684,1.937,1.14,4.215,1.14,6.665c0,7.861-4.104,14.184-9.633,14.184c-5.471,0-9.632-6.323-9.632-14.184
			c0-2.393,0.456-4.671,1.197-6.665H257.722z"/>
		<path fill-rule="evenodd" clip-rule="evenodd" fill="#F3F3F3" stroke="#595959" stroke-width="0.5" stroke-miterlimit="10" d="
			M257.958,18.433v4.974c0,1.156-0.913,2.082-1.997,2.082h-13.009c-1.084,0.058-1.997-0.868-1.997-2.082v-4.974H257.958z"/>
		<path fill-rule="evenodd" clip-rule="evenodd" fill="#F3F3F3" stroke="#595959" stroke-width="0.5" stroke-miterlimit="10" d="
			M251.457,21.96c0-1.062-0.884-1.887-1.946-1.887c-1.062,0-1.888,0.885-1.888,1.887c0,1.12,0.885,1.946,1.888,1.946
			C250.631,23.906,251.457,23.08,251.457,21.96z"/>
		<path fill-rule="evenodd" clip-rule="evenodd" fill="#F3F3F3" stroke="#595959" stroke-width="0.5" stroke-miterlimit="10" d="
			M240.84,26.266v0.872h16.882c0.066,0.186,0.118,0.389,0.179,0.58v-1.452c0-0.47-0.399-0.823-0.742-0.823h-15.52
			C241.183,25.443,240.84,25.796,240.84,26.266z"/>
	</g>
	<g>
		
			<rect x="209.501" y="74.554" fill-rule="evenodd" clip-rule="evenodd" fill="#F3F3F3" stroke="#595959" stroke-width="0.5" stroke-miterlimit="10" width="24.175" height="24.221"/>
		<path fill-rule="evenodd" clip-rule="evenodd" fill="#F3F3F3" stroke="#595959" stroke-width="0.5" stroke-miterlimit="10" d="
			M212.782,96.253c0.819,0,1.493-0.674,1.493-1.491c0-0.866-0.674-1.54-1.493-1.54c-0.818,0-1.493,0.674-1.493,1.54
			C211.289,95.579,211.964,96.253,212.782,96.253z"/>
		<path fill-rule="evenodd" clip-rule="evenodd" fill="#F3F3F3" stroke="#595959" stroke-width="0.5" stroke-miterlimit="10" d="
			M212.809,96.253c0.804,0,1.466-0.647,1.466-1.432c0-0.831-0.662-1.478-1.466-1.478c-0.804,0-1.466,0.647-1.466,1.478
			C211.343,95.606,212.005,96.253,212.809,96.253L212.809,96.253z M209.546,76.572h2.459c0.567,0,0.993,0.508,0.993,1.063v6.837
			c0,0.554-0.426,1.063-0.993,1.063h-2.459V76.572z"/>
		<path fill-rule="evenodd" clip-rule="evenodd" fill="#F3F3F3" stroke="#595959" stroke-width="0.5" stroke-miterlimit="10" d="
			M222.23,93.271c3.616,0,6.584-2.921,6.584-6.584c0-3.617-2.967-6.538-6.584-6.538c-3.616,0-6.584,2.921-6.584,6.538
			C215.646,90.397,218.614,93.271,222.23,93.271z"/>
		<path fill-rule="evenodd" clip-rule="evenodd" fill="#F3F3F3" stroke="#595959" stroke-width="0.5" stroke-miterlimit="10" d="
			M222.23,93.271c3.616,0,6.584-2.921,6.584-6.584c0-3.617-2.967-6.538-6.584-6.538c-3.616,0-6.584,2.921-6.584,6.538
			C215.646,90.397,218.614,93.271,222.23,93.271z"/>
		<path fill-rule="evenodd" clip-rule="evenodd" fill="#F3F3F3" stroke="#595959" stroke-width="0.5" stroke-miterlimit="10" d="
			M222.23,91.529c2.699,0,4.84-2.141,4.84-4.84c0-2.654-2.141-4.841-4.84-4.841c-2.653,0-4.841,2.234-4.841,4.841
			C217.39,89.387,219.577,91.529,222.23,91.529z"/>
		<path fill-rule="evenodd" clip-rule="evenodd" fill="#F3F3F3" stroke="#595959" stroke-width="0.5" stroke-miterlimit="10" d="
			M222.23,91.529c2.699,0,4.84-2.141,4.84-4.84c0-2.654-2.141-4.841-4.84-4.841c-2.653,0-4.841,2.234-4.841,4.841
			C217.39,89.387,219.577,91.529,222.23,91.529z"/>
	</g>
	<g>
		<path fill-rule="evenodd" clip-rule="evenodd" fill="#F3F3F3" stroke="#595959" stroke-width="0.5" stroke-miterlimit="10" d="
			M194.166,27.376c0.702,1.989,1.171,4.33,1.171,6.846c0,8.075-4.216,14.57-9.896,14.57c-5.62,0-9.895-6.495-9.895-14.57
			c0-2.458,0.469-4.798,1.23-6.846H194.166z"/>
		<path fill-rule="evenodd" clip-rule="evenodd" fill="#F3F3F3" stroke="#595959" stroke-width="0.5" stroke-miterlimit="10" d="
			M194.408,18.433v5.109c0,1.188-0.938,2.138-2.052,2.138h-13.364c-1.114,0.059-2.052-0.891-2.052-2.138v-5.109H194.408z"/>
		<path fill-rule="evenodd" clip-rule="evenodd" fill="#F3F3F3" stroke="#595959" stroke-width="0.5" stroke-miterlimit="10" d="
			M187.73,22.056c0-1.091-0.909-1.939-1.999-1.939c-1.091,0-1.939,0.909-1.939,1.939c0,1.151,0.909,1.999,1.939,1.999
			C186.882,24.055,187.73,23.207,187.73,22.056z"/>
		<path fill-rule="evenodd" clip-rule="evenodd" fill="#F3F3F3" stroke="#595959" stroke-width="0.5" stroke-miterlimit="10" d="
			M176.824,26.48v0.896h17.342c0.067,0.191,0.121,0.399,0.184,0.596V26.48c0-0.483-0.41-0.846-0.762-0.846h-15.944
			C177.177,25.634,176.824,25.997,176.824,26.48z"/>
	</g>
	<g>
		<path fill-rule="evenodd" clip-rule="evenodd" fill="#F3F3F3" stroke="#595959" stroke-width="0.5" stroke-miterlimit="10" d="
			M188.913,276.576h11.527v13.882h-11.527V276.576L188.913,276.576z M188.913,290.459h17.228v51.726h-17.228V290.459z"/>
		<path fill-rule="evenodd" clip-rule="evenodd" fill="#F3F3F3" stroke="#595959" stroke-width="0.5" stroke-miterlimit="10" d="
			M195.066,321.468c-2.998,0-3.285-2.698-3.285-6.09c0-3.311,0.287-6.05,3.285-6.05c2.998,0,5.462,2.698,5.462,6.05
			C200.487,318.77,198.064,321.468,195.066,321.468z"/>
		
			<rect x="195.617" y="295.072" fill-rule="evenodd" clip-rule="evenodd" fill="#F3F3F3" stroke="#595959" stroke-width="0.5" stroke-miterlimit="10" width="2.287" height="40.61"/>
		
			<rect x="195.617" y="295.072" fill-rule="evenodd" clip-rule="evenodd" fill="#F3F3F3" stroke="#595959" stroke-width="0.5" stroke-miterlimit="10" width="2.287" height="40.61"/>
		
			<polygon fill-rule="evenodd" clip-rule="evenodd" fill="#F3F3F3" stroke="#595959" stroke-width="0.5" stroke-miterlimit="10" points="
			195.723,332.238 193.84,325.711 193.84,305.085 195.723,298.557 		"/>
		
			<polygon fill-rule="evenodd" clip-rule="evenodd" fill="#F3F3F3" stroke="#595959" stroke-width="0.5" stroke-miterlimit="10" points="
			195.723,332.238 193.84,325.711 193.84,305.085 195.723,298.557 		"/>
		<path fill-rule="evenodd" clip-rule="evenodd" fill="#F3F3F3" stroke="#595959" stroke-width="0.5" stroke-miterlimit="10" d="
			M201.687,277.788h1.143v11.45h-1.143V277.788L201.687,277.788z M188.913,342.159h11.55v13.878h-11.55V342.159L188.913,342.159z
			 M201.687,343.413h1.143v11.45h-1.143V343.413z"/>
	</g>
	<g>
		<path fill-rule="evenodd" clip-rule="evenodd" fill="#F3F3F3" stroke="#595959" stroke-width="0.5" stroke-miterlimit="10" d="
			M311.319,366.223V266.39c0-2.2,1.8-4,4-4h31.669c2.2,0,4,1.8,4,4v99.833c0,2.2-1.8,4-4,4h-31.669
			C313.118,370.223,311.319,368.423,311.319,366.223z"/>
		<path fill-rule="evenodd" clip-rule="evenodd" fill="#F3F3F3" stroke="#595959" stroke-width="0.5" stroke-miterlimit="10" d="
			M317.65,302.058c-4.531,0-6.418-0.232-6.418-5.98v-17.068c0-5.748,1.941-5.98,6.418-5.98h16.989c4.531,0,6.418,0.232,6.418,5.98
			v17.068c0,5.747-1.941,5.98-6.418,5.98H317.65z"/>
		<path fill-rule="evenodd" clip-rule="evenodd" fill="#F3F3F3" stroke="#595959" stroke-width="0.5" stroke-miterlimit="10" d="
			M317.65,302.058c-4.531,0-6.418-0.232-6.418-5.98v-17.068c0-5.748,1.941-5.98,6.418-5.98h16.989c4.531,0,6.418,0.232,6.418,5.98
			v17.068c0,5.747-1.941,5.98-6.418,5.98H317.65z"/>
		<path fill-rule="evenodd" clip-rule="evenodd" fill="#F3F3F3" stroke="#595959" stroke-width="0.5" stroke-miterlimit="10" d="
			M317.65,330.8c-4.531,0-6.418-0.232-6.418-5.922v-17.127c0-5.747,1.941-5.922,6.418-5.922h16.989c4.531,0,6.418,0.232,6.418,5.922
			v17.127c0,5.747-1.941,5.922-6.418,5.922H317.65z"/>
		<path fill-rule="evenodd" clip-rule="evenodd" fill="#F3F3F3" stroke="#595959" stroke-width="0.5" stroke-miterlimit="10" d="
			M317.65,330.8c-4.531,0-6.418-0.232-6.418-5.922v-17.127c0-5.747,1.941-5.922,6.418-5.922h16.989c4.531,0,6.418,0.232,6.418,5.922
			v17.127c0,5.747-1.941,5.922-6.418,5.922H317.65z"/>
		<path fill-rule="evenodd" clip-rule="evenodd" fill="#F3F3F3" stroke="#595959" stroke-width="0.5" stroke-miterlimit="10" d="
			M317.737,359.542c-4.531,0-6.418-0.232-6.418-5.922v-17.127c0-5.747,1.941-5.922,6.418-5.922h16.989
			c4.531,0,6.418,0.232,6.418,5.922v17.127c0,5.747-1.941,5.922-6.418,5.922H317.737z"/>
		<path fill-rule="evenodd" clip-rule="evenodd" fill="#F3F3F3" stroke="#595959" stroke-width="0.5" stroke-miterlimit="10" d="
			M350.988,273.259v90.708v1.83c0,2.434-1.851,4.425-4.114,4.425h-1.701h-29.826c-2.263,0-4.114-1.991-4.114-4.425v-1.83
			c0-2.434,1.852-4.425,4.114-4.425h25.711v-86.442h-25.282c-2.422,0-4.404-1.997-4.404-4.438v-1.835
			c0-2.441,1.982-4.438,4.404-4.438h28.988h1.821c2.422,0,4.404,1.997,4.404,4.438v1.835v5.908V273.259z"/>
	</g>
	<g>
		
			<rect x="362.803" y="291.608" fill-rule="evenodd" clip-rule="evenodd" fill="#F3F3F3" stroke="#595959" stroke-width="0.5" stroke-miterlimit="10" width="2.653" height="41.821"/>
		
			<polygon fill-rule="evenodd" clip-rule="evenodd" fill="#F3F3F3" stroke="#595959" stroke-width="0.5" stroke-miterlimit="10" points="
			362.803,329.881 360.741,323.16 360.741,301.919 362.803,295.197 		"/>
		
			<rect x="358.426" y="308.975" transform="matrix(-1 -1.224647e-16 1.224647e-16 -1 719.1671 625.0781)" fill-rule="evenodd" clip-rule="evenodd" fill="#F3F3F3" stroke="#595959" stroke-width="0.5" stroke-miterlimit="10" width="2.315" height="7.128"/>
	</g>
	<g>
		<g>
			
				<rect x="419.58" y="278.548" transform="matrix(-1 -4.490953e-11 4.490953e-11 -1 926.6886 625.0364)" fill-rule="evenodd" clip-rule="evenodd" fill="#F3F3F3" stroke="#595959" stroke-width="0.5" stroke-miterlimit="10" width="87.528" height="67.941"/>
			
				<rect x="422.031" y="280.144" transform="matrix(-1 -4.488111e-11 4.488111e-11 -1 925.6461 625.1077)" fill-rule="evenodd" clip-rule="evenodd" fill="#F3F3F3" stroke="#595959" stroke-width="0.5" stroke-miterlimit="10" width="81.585" height="64.82"/>
			
				<rect x="483.104" y="282.063" transform="matrix(-1 -4.486867e-11 4.486867e-11 -1 984.6126 589.3083)" fill-rule="evenodd" clip-rule="evenodd" fill="#F3F3F3" stroke="#595959" stroke-width="0.5" stroke-miterlimit="10" width="18.405" height="25.183"/>
			
				<rect x="483.104" y="317.675" transform="matrix(-1 -4.496771e-11 4.496771e-11 -1 984.6126 660.5325)" fill-rule="evenodd" clip-rule="evenodd" fill="#F3F3F3" stroke="#595959" stroke-width="0.5" stroke-miterlimit="10" width="18.405" height="25.183"/>
			
				<polygon fill-rule="evenodd" clip-rule="evenodd" fill="#F3F3F3" stroke="#595959" stroke-width="0.5" stroke-miterlimit="10" points="
				473.709,280.144 484.968,299.481 484.968,325.626 484.968,299.481 484.968,325.626 473.709,344.964 422.031,344.964 
				422.031,344.893 422.031,280.144 			"/>
			
				<polyline fill-rule="evenodd" clip-rule="evenodd" fill="#F3F3F3" stroke="#595959" stroke-width="0.5" stroke-miterlimit="10" points="
				473.709,280.144 465.494,293.714 484.968,299.481 			"/>
			
				<line fill-rule="evenodd" clip-rule="evenodd" fill="#F3F3F3" stroke="#595959" stroke-width="0.5" stroke-miterlimit="10" x1="484.968" y1="299.481" x2="473.709" y2="280.144"/>
			
				<polyline fill-rule="evenodd" clip-rule="evenodd" fill="#F3F3F3" stroke="#595959" stroke-width="0.5" stroke-miterlimit="10" points="
				473.709,344.964 465.494,331.393 484.968,325.626 			"/>
			
				<line fill-rule="evenodd" clip-rule="evenodd" fill="#F3F3F3" stroke="#595959" stroke-width="0.5" stroke-miterlimit="10" x1="484.968" y1="325.626" x2="473.709" y2="344.964"/>
		</g>
		<g>
			
				<rect x="486.466" y="351.024" transform="matrix(-4.488073e-11 1 -1 -4.488073e-11 858.132 -138.7119)" fill="#F3F3F3" stroke="#595959" stroke-width="0.5" stroke-miterlimit="10" width="23.912" height="17.373"/>
			
				<rect x="484.157" y="359.051" transform="matrix(-4.499530e-11 1 -1 -4.499530e-11 848.7862 -129.5528)" fill="#F3F3F3" stroke="#595959" stroke-width="0.5" stroke-miterlimit="10" width="10.026" height="1.132"/>
		</g>
		<g>
			
				<rect x="486.466" y="256.574" transform="matrix(-4.495711e-11 1 -1 -4.495711e-11 763.6827 -233.1613)" fill="#F3F3F3" stroke="#595959" stroke-width="0.5" stroke-miterlimit="10" width="23.912" height="17.373"/>
			
				<rect x="484.157" y="264.601" transform="matrix(-4.499530e-11 1 -1 -4.499530e-11 754.3368 -224.0022)" fill="#F3F3F3" stroke="#595959" stroke-width="0.5" stroke-miterlimit="10" width="10.026" height="1.132"/>
		</g>
	</g>
	<g>
		<path fill-rule="evenodd" clip-rule="evenodd" fill="#F3F3F3" stroke="#595959" stroke-width="0.5" stroke-miterlimit="10" d="
			M283.034,21.167v0.849V21.167z"/>
		
			<line fill-rule="evenodd" clip-rule="evenodd" fill="#F3F3F3" stroke="#595959" stroke-width="0.5" stroke-miterlimit="10" x1="283.034" y1="21.167" x2="283.034" y2="22.015"/>
		<path fill-rule="evenodd" clip-rule="evenodd" fill="#F3F3F3" stroke="#595959" stroke-width="0.5" stroke-miterlimit="10" d="
			M282.385,27.408v-0.05v-5.542c0-0.4,0.349-0.7,0.699-0.7c0.4,0,0.699,0.3,0.699,0.7v5.542v0.05H282.385z"/>
		
			<rect x="270.401" y="18.421" fill-rule="evenodd" clip-rule="evenodd" fill="#F3F3F3" stroke="#595959" stroke-width="0.5" stroke-miterlimit="10" width="25.316" height="3.645"/>
		<path fill-rule="evenodd" clip-rule="evenodd" fill="#F3F3F3" stroke="#595959" stroke-width="0.5" stroke-miterlimit="10" d="
			M295.667,21.167h-25.215H295.667z"/>
		<path fill-rule="evenodd" clip-rule="evenodd" fill="#F3F3F3" stroke="#595959" stroke-width="0.5" stroke-miterlimit="10" d="
			M295.717,22.066v12.732c0,0.649-0.45,1.198-1.099,1.198H271.45c-0.549,0-1.048-0.549-1.048-1.198V22.066H295.717z"/>
		<path fill-rule="evenodd" clip-rule="evenodd" fill="#F3F3F3" stroke="#595959" stroke-width="0.5" stroke-miterlimit="10" d="
			M282.984,24.112c4.693,0,8.538,2.396,8.589,5.343c0.05,2.996-3.645,5.392-8.389,5.443c-4.694,0-8.538-2.347-8.588-5.343
			C274.546,26.609,278.341,24.162,282.984,24.112z"/>
		<path fill-rule="evenodd" clip-rule="evenodd" fill="#F3F3F3" stroke="#595959" stroke-width="0.5" stroke-miterlimit="10" d="
			M284.482,29.605c0,0.799-0.649,1.448-1.448,1.448c-0.749,0-1.348-0.649-1.348-1.448c0-0.799,0.6-1.398,1.348-1.398
			C283.833,28.257,284.482,28.856,284.482,29.605z"/>
		<path fill-rule="evenodd" clip-rule="evenodd" fill="#F3F3F3" stroke="#595959" stroke-width="0.5" stroke-miterlimit="10" d="
			M282.385,27.408v-0.05v-5.542c0-0.4,0.349-0.7,0.699-0.7c0.4,0,0.699,0.3,0.699,0.7v5.542v0.05H282.385z"/>
	</g>
	<g>
		<path fill-rule="evenodd" clip-rule="evenodd" fill="#F3F3F3" stroke="#595959" stroke-width="0.5" stroke-miterlimit="10" d="
			M152.363,79.666h0.86H152.363z"/>
		
			<line fill-rule="evenodd" clip-rule="evenodd" fill="#F3F3F3" stroke="#595959" stroke-width="0.5" stroke-miterlimit="10" x1="152.363" y1="79.666" x2="153.223" y2="79.666"/>
		<path fill-rule="evenodd" clip-rule="evenodd" fill="#F3F3F3" stroke="#595959" stroke-width="0.5" stroke-miterlimit="10" d="
			M158.687,80.323h-0.05h-5.616c-0.405,0-0.709-0.354-0.709-0.708c0-0.405,0.304-0.708,0.709-0.708h5.616h0.05V80.323z"/>
		
			<rect x="149.58" y="66.814" fill-rule="evenodd" clip-rule="evenodd" fill="#F3F3F3" stroke="#595959" stroke-width="0.5" stroke-miterlimit="10" width="3.694" height="25.652"/>
		<path fill-rule="evenodd" clip-rule="evenodd" fill="#F3F3F3" stroke="#595959" stroke-width="0.5" stroke-miterlimit="10" d="
			M152.363,66.865v25.551V66.865z"/>
		<path fill-rule="evenodd" clip-rule="evenodd" fill="#F3F3F3" stroke="#595959" stroke-width="0.5" stroke-miterlimit="10" d="
			M153.274,66.814h12.902c0.658,0,1.214,0.456,1.214,1.113v23.476c0,0.556-0.556,1.062-1.214,1.062h-12.902V66.814z"/>
		<path fill-rule="evenodd" clip-rule="evenodd" fill="#F3F3F3" stroke="#595959" stroke-width="0.5" stroke-miterlimit="10" d="
			M155.348,79.716c0-4.756,2.428-8.652,5.414-8.703c3.036-0.05,5.464,3.694,5.515,8.501c0,4.756-2.378,8.652-5.414,8.702
			C157.878,88.267,155.398,84.422,155.348,79.716z"/>
		<path fill-rule="evenodd" clip-rule="evenodd" fill="#F3F3F3" stroke="#595959" stroke-width="0.5" stroke-miterlimit="10" d="
			M160.913,78.198c0.81,0,1.467,0.658,1.467,1.468c0,0.759-0.658,1.366-1.467,1.366c-0.81,0-1.417-0.608-1.417-1.366
			C159.547,78.856,160.154,78.198,160.913,78.198z"/>
		<path fill-rule="evenodd" clip-rule="evenodd" fill="#F3F3F3" stroke="#595959" stroke-width="0.5" stroke-miterlimit="10" d="
			M158.687,80.323h-0.05h-5.616c-0.405,0-0.709-0.354-0.709-0.708c0-0.405,0.304-0.708,0.709-0.708h5.616h0.05V80.323z"/>
	</g>
	<g>
		
			<rect x="426.833" y="187.168" transform="matrix(-1 -1.224647e-16 1.224647e-16 -1 934.2921 402.1671)" fill-rule="evenodd" clip-rule="evenodd" fill="#F3F3F3" stroke="#595959" stroke-width="0.5" stroke-miterlimit="10" width="80.625" height="27.83"/>
		
			<line fill="#F3F3F3" stroke="#595959" stroke-width="0.5" stroke-miterlimit="10" x1="504.541" y1="214.999" x2="504.541" y2="187.12"/>
		
			<line fill="#F3F3F3" stroke="#595959" stroke-width="0.5" stroke-miterlimit="10" x1="429.838" y1="214.999" x2="429.838" y2="187.168"/>
		
			<line fill="#F3F3F3" stroke="#595959" stroke-width="0.5" stroke-miterlimit="10" x1="504.541" y1="188.453" x2="429.838" y2="188.453"/>
		
			<line fill="#F3F3F3" stroke="#595959" stroke-width="0.5" stroke-miterlimit="10" x1="432.44" y1="201.284" x2="501.94" y2="201.284"/>
		
			<rect x="497.459" y="192.654" transform="matrix(-0.9868 -0.162 0.162 -0.9868 957.5042 480.3344)" fill="#F3F3F3" stroke="#595959" stroke-width="0.5" stroke-miterlimit="10" width="1.743" height="16.969"/>
		
			<rect x="491.213" y="192.654" transform="matrix(-0.9961 -0.0882 0.0882 -0.9961 964.5232 444.8728)" fill="#F3F3F3" stroke="#595959" stroke-width="0.5" stroke-miterlimit="10" width="1.743" height="16.969"/>
		
			<rect x="484.889" y="192.799" transform="matrix(-0.9734 -0.229 0.229 -0.9734 912.5195 508.4581)" fill="#F3F3F3" stroke="#595959" stroke-width="0.5" stroke-miterlimit="10" width="1.743" height="16.969"/>
		
			<rect x="477.833" y="192.61" transform="matrix(-0.9884 -0.152 0.152 -0.9884 921.2693 472.6335)" fill="#F3F3F3" stroke="#595959" stroke-width="0.5" stroke-miterlimit="10" width="1.743" height="16.969"/>
		
			<rect x="471.679" y="192.704" transform="matrix(-0.999 -0.0451 0.0451 -0.999 935.5436 423.4905)" fill="#F3F3F3" stroke="#595959" stroke-width="0.5" stroke-miterlimit="10" width="1.743" height="16.969"/>
		
			<rect x="465.448" y="192.704" transform="matrix(-0.9884 -0.152 0.152 -0.9884 896.6298 470.9387)" fill="#F3F3F3" stroke="#595959" stroke-width="0.5" stroke-miterlimit="10" width="1.743" height="16.969"/>
		
			<rect x="459.122" y="192.799" transform="matrix(-0.999 -0.0451 0.0451 -0.999 910.4388 423.1132)" fill="#F3F3F3" stroke="#595959" stroke-width="0.5" stroke-miterlimit="10" width="1.743" height="16.969"/>
		
			<rect x="452.919" y="192.799" transform="matrix(-0.9787 -0.2052 0.2052 -0.9787 856.6312 491.3875)" fill="#F3F3F3" stroke="#595959" stroke-width="0.5" stroke-miterlimit="10" width="1.743" height="16.969"/>
		
			<rect x="446.716" y="192.781" transform="matrix(-0.9884 -0.152 0.152 -0.9884 859.3705 468.2435)" fill="#F3F3F3" stroke="#595959" stroke-width="0.5" stroke-miterlimit="10" width="1.743" height="16.969"/>
		
			<rect x="440.513" y="192.799" transform="matrix(-0.9964 -0.0847 0.0847 -0.9964 864.1246 439.2453)" fill="#F3F3F3" stroke="#595959" stroke-width="0.5" stroke-miterlimit="10" width="1.743" height="16.969"/>
		
			<rect x="434.31" y="192.592" transform="matrix(-0.9713 -0.2379 0.2379 -0.9713 810.0256 499.9178)" fill="#F3F3F3" stroke="#595959" stroke-width="0.5" stroke-miterlimit="10" width="1.743" height="16.969"/>
	</g>
	<g>
		<path fill="#F3F3F3" stroke="#595959" stroke-width="0.5" stroke-miterlimit="10" d="M310.527,189.28
			c1.469,0.444,2.453,1.397,2.646,1.363c0.696-0.124-0.959-1.184,0.152-4.327c0.835-2.36,1.497-5.756,1.497-5.756
			s2.45,2.627,3.626,4.893c1.353,2.605,0.036,5.192,0.251,5.305c0.284,0.149,1.002-1.767,3.26-2.226
			c2.763-0.561,6.562,2.072,6.562,2.072s-2.875,0.057-4.835,2.029c-1.876,1.887-3.954,1.527-3.836,1.924
			c0.072,0.241,2.332,0.903,4.009,2.091c1.48,1.049,2.374,4.015,2.374,4.015s-1.425-1.252-5.267-0.907
			c-3.478,0.313-4.248-3.751-4.475-3.713c-0.328,0.055,0.417,2.029-0.565,4.835c-0.915,2.615-4.757,5.296-4.757,5.296
			s-0.536-3.961-0.65-5.704c-0.223-3.381,2.174-5.064,1.828-5.577c-0.262-0.388-2.708,0.917-4.977-0.661
			c-1.326-0.922-5.096-2.505-5.096-2.505s3.692-2.074,5.742-2.547C308.948,188.965,309.797,189.06,310.527,189.28"/>
		<path fill="#F3F3F3" stroke="#595959" stroke-width="0.5" stroke-miterlimit="10" d="M312.931,188.403
			c0.003-0.176,0.011-0.451,0.038-0.789c0.037-0.451,0.077-0.603,0.08-0.89c0.002-0.232-0.025-0.506-0.112-0.975
			c-0.25-1.349-1.685-2.131-2.241-2.497c-0.448-0.295-2.341-1.377-2.341-1.377s-1.136,2.913-0.717,4.945
			c0.383,1.119,2.89,2.462,2.89,2.462l2.853,1.517L312.931,188.403z"/>
		<path fill="#F3F3F3" stroke="#595959" stroke-width="0.5" stroke-miterlimit="10" d="M320.491,189.125
			c0,0,1.644-0.976,2.505-2.147c1.395-1.898,1.441-3.915,1.425-4.619c0,0-3.282,0.061-4.468,1.986
			c-0.804,1.305-0.866,2.597-0.885,3.05c-0.007,0.164-0.021,0.321-0.047,0.483l-0.58,3.1L320.491,189.125z"/>
		<path fill="#F3F3F3" stroke="#595959" stroke-width="0.5" stroke-miterlimit="10" d="M322.169,195.67c0,0,2.031,1.077,2.64,1.238
			c0.706,0.187,1.113,0.188,1.319,0.177c0.775-0.043,1.319-0.342,1.676-0.451c0.43-0.132,2.422-0.502,2.422-0.502
			s-1.946-2.412-3.966-3.152c-2.1-0.48-2.86,0.103-3.462,0.389c-0.175,0.083-0.352,0.152-0.538,0.205l-2.88,0.766L322.169,195.67z"
			/>
		<path fill="#F3F3F3" stroke="#595959" stroke-width="0.5" stroke-miterlimit="10" d="M316.375,199.259
			c0,0-0.196,2.507,0.216,3.292c0.154,0.295,0.345,1.18,1.873,1.745c1.474,0.545,2.355,1.582,2.355,1.582s0.513-2.048,0.115-3.36
			c-0.183-0.602-0.303-0.932-0.581-1.501c-0.315-0.644-1.229-1.271-1.897-1.809c-0.699-0.564-1.175-1.452-1.175-1.452l-0.784-1.863
			L316.375,199.259z"/>
		<path fill="#F3F3F3" stroke="#595959" stroke-width="0.5" stroke-miterlimit="10" d="M309.821,194.798c0,0-1.82-0.02-3.101,0.432
			c-0.919,0.324-1.353,1.132-2.302,2.48c-0.299,0.425-1.381,2.211-1.381,2.211s3.3,0.89,5.526,0.403
			c1.692-0.37,2.659-2.826,2.659-2.826l1.4-2.8L309.821,194.798z"/>
	</g>
	<path fill-rule="evenodd" clip-rule="evenodd" fill="#F3F3F3" stroke="#595959" stroke-width="0.5" stroke-miterlimit="10" d="
		M65.124,172.864v25.446c0,1.138-1.163,2.033-2.591,2.033H43.28c-1.428,0-2.591-0.895-2.591-2.033v-25.446
		c0-1.057,1.164-1.992,2.591-1.992h19.252C63.96,170.872,65.124,171.807,65.124,172.864L65.124,172.864z M54.675,187.059
		c-0.634,0-1.111-0.504-1.111-1.177c0-0.672,0.476-1.233,1.111-1.233c0.634,0,1.164,0.561,1.164,1.233
		C55.839,186.555,55.309,187.059,54.675,187.059z M63.337,174.728v21.724c0,0.972-0.86,1.735-1.916,1.735H47.182
		c-1.056,0-1.916-0.764-1.916-1.735v-21.724c0-0.902,0.861-1.701,1.916-1.701H61.42C62.476,173.027,63.337,173.825,63.337,174.728
		L63.337,174.728z M49.625,186.699h-6.131v-1.937h6.131V186.699z"/>
	<g>
		
			<rect x="38.525" y="235.563" fill-rule="evenodd" clip-rule="evenodd" fill="#F3F3F3" stroke="#595959" stroke-width="0.5" stroke-miterlimit="10" width="28.762" height="28.762"/>
		
			<rect x="38.525" y="235.563" fill-rule="evenodd" clip-rule="evenodd" fill="#F3F3F3" stroke="#595959" stroke-width="0.5" stroke-miterlimit="10" width="28.762" height="28.762"/>
		<path fill-rule="evenodd" clip-rule="evenodd" fill="#F3F3F3" stroke="#595959" stroke-width="0.5" stroke-miterlimit="10" d="
			M45.329,248.514c2.757,0,5.017-2.213,5.017-5.036c0-2.767-2.26-5.036-5.017-5.036c-2.756,0-5.017,2.269-5.017,5.036
			C40.256,246.356,42.572,248.514,45.329,248.514z"/>
		<path fill-rule="evenodd" clip-rule="evenodd" fill="#F3F3F3" stroke="#595959" stroke-width="0.5" stroke-miterlimit="10" d="
			M45.329,248.514c2.757,0,5.017-2.213,5.017-5.036c0-2.767-2.26-5.036-5.017-5.036c-2.756,0-5.017,2.269-5.017,5.036
			C40.256,246.356,42.572,248.514,45.329,248.514z"/>
		<path fill-rule="evenodd" clip-rule="evenodd" fill="#F3F3F3" stroke="#595959" stroke-width="0.5" stroke-miterlimit="10" d="
			M45.329,246.993c1.89,0,3.446-1.563,3.446-3.516c0-1.897-1.556-3.459-3.446-3.459c-1.945,0-3.502,1.562-3.502,3.459
			C41.772,245.487,43.329,246.993,45.329,246.993z"/>
		<path fill-rule="evenodd" clip-rule="evenodd" fill="#F3F3F3" stroke="#595959" stroke-width="0.5" stroke-miterlimit="10" d="
			M45.329,246.993c1.89,0,3.446-1.563,3.446-3.516c0-1.897-1.556-3.459-3.446-3.459c-1.945,0-3.502,1.562-3.502,3.459
			C41.772,245.487,43.329,246.993,45.329,246.993z"/>
		<path fill-rule="evenodd" clip-rule="evenodd" fill="#F3F3F3" stroke="#595959" stroke-width="0.5" stroke-miterlimit="10" d="
			M45.329,261.174c2.757,0,5.017-2.213,5.017-5.036c0-2.767-2.26-5.036-5.017-5.036c-2.756,0-5.017,2.269-5.017,5.036
			C40.256,258.961,42.572,261.174,45.329,261.174z"/>
		<path fill-rule="evenodd" clip-rule="evenodd" fill="#F3F3F3" stroke="#595959" stroke-width="0.5" stroke-miterlimit="10" d="
			M45.329,261.174c2.757,0,5.017-2.213,5.017-5.036c0-2.767-2.26-5.036-5.017-5.036c-2.756,0-5.017,2.269-5.017,5.036
			C40.256,258.961,42.572,261.174,45.329,261.174z"/>
		<path fill-rule="evenodd" clip-rule="evenodd" fill="#F3F3F3" stroke="#595959" stroke-width="0.5" stroke-miterlimit="10" d="
			M45.329,259.598c1.89,0,3.446-1.563,3.446-3.46c0-1.898-1.556-3.461-3.446-3.461c-1.945,0-3.502,1.562-3.502,3.461
			C41.772,258.036,43.329,259.598,45.329,259.598z"/>
		<path fill-rule="evenodd" clip-rule="evenodd" fill="#F3F3F3" stroke="#595959" stroke-width="0.5" stroke-miterlimit="10" d="
			M45.329,259.598c1.89,0,3.446-1.563,3.446-3.46c0-1.898-1.556-3.461-3.446-3.461c-1.945,0-3.502,1.562-3.502,3.461
			C41.772,258.036,43.329,259.598,45.329,259.598z"/>
		<path fill-rule="evenodd" clip-rule="evenodd" fill="#F3F3F3" stroke="#595959" stroke-width="0.5" stroke-miterlimit="10" d="
			M56.804,261.174c2.757,0,5.017-2.213,5.017-5.036c0-2.767-2.26-5.036-5.017-5.036c-2.756,0-5.017,2.269-5.017,5.036
			C51.787,258.961,54.047,261.174,56.804,261.174z"/>
		<path fill-rule="evenodd" clip-rule="evenodd" fill="#F3F3F3" stroke="#595959" stroke-width="0.5" stroke-miterlimit="10" d="
			M56.804,261.174c2.757,0,5.017-2.213,5.017-5.036c0-2.767-2.26-5.036-5.017-5.036c-2.756,0-5.017,2.269-5.017,5.036
			C51.787,258.961,54.047,261.174,56.804,261.174z"/>
		<path fill-rule="evenodd" clip-rule="evenodd" fill="#F3F3F3" stroke="#595959" stroke-width="0.5" stroke-miterlimit="10" d="
			M64.601,243.896c0.42,0,0.9-0.421,0.9-0.963c0-0.422-0.42-0.905-0.9-0.905c-0.54,0-0.96,0.422-0.96,0.905
			C63.641,243.475,64.121,243.896,64.601,243.896z"/>
		<path fill-rule="evenodd" clip-rule="evenodd" fill="#F3F3F3" stroke="#595959" stroke-width="0.5" stroke-miterlimit="10" d="
			M64.601,243.896c0.42,0,0.9-0.421,0.9-0.963c0-0.422-0.42-0.905-0.9-0.905c-0.54,0-0.96,0.422-0.96,0.905
			C63.641,243.475,64.121,243.896,64.601,243.896z"/>
		<path fill-rule="evenodd" clip-rule="evenodd" fill="#F3F3F3" stroke="#595959" stroke-width="0.5" stroke-miterlimit="10" d="
			M64.601,247.645c0.42,0,0.9-0.362,0.9-0.907c0-0.544-0.42-0.906-0.9-0.906c-0.54,0-0.96,0.362-0.96,0.906
			C63.641,247.283,64.121,247.645,64.601,247.645z"/>
		<path fill-rule="evenodd" clip-rule="evenodd" fill="#F3F3F3" stroke="#595959" stroke-width="0.5" stroke-miterlimit="10" d="
			M64.601,247.645c0.42,0,0.9-0.362,0.9-0.907c0-0.544-0.42-0.906-0.9-0.906c-0.54,0-0.96,0.362-0.96,0.906
			C63.641,247.283,64.121,247.645,64.601,247.645z"/>
		<path fill-rule="evenodd" clip-rule="evenodd" fill="#F3F3F3" stroke="#595959" stroke-width="0.5" stroke-miterlimit="10" d="
			M64.601,251.503c0.42,0,0.9-0.421,0.9-0.964c0-0.421-0.42-0.904-0.9-0.904c-0.54,0-0.96,0.422-0.96,0.904
			C63.641,251.081,64.121,251.503,64.601,251.503z"/>
		<path fill-rule="evenodd" clip-rule="evenodd" fill="#F3F3F3" stroke="#595959" stroke-width="0.5" stroke-miterlimit="10" d="
			M64.601,251.503c0.42,0,0.9-0.421,0.9-0.964c0-0.421-0.42-0.904-0.9-0.904c-0.54,0-0.96,0.422-0.96,0.904
			C63.641,251.081,64.121,251.503,64.601,251.503z"/>
		<path fill-rule="evenodd" clip-rule="evenodd" fill="#F3F3F3" stroke="#595959" stroke-width="0.5" stroke-miterlimit="10" d="
			M56.804,247.39c2.141,0,3.897-1.719,3.897-3.911c0-2.149-1.756-3.911-3.897-3.911c-2.141,0-3.897,1.762-3.897,3.911
			C52.907,245.714,54.663,247.39,56.804,247.39z"/>
		<path fill-rule="evenodd" clip-rule="evenodd" fill="#F3F3F3" stroke="#595959" stroke-width="0.5" stroke-miterlimit="10" d="
			M56.804,247.39c2.141,0,3.897-1.719,3.897-3.911c0-2.149-1.756-3.911-3.897-3.911c-2.141,0-3.897,1.762-3.897,3.911
			C52.907,245.714,54.663,247.39,56.804,247.39z"/>
		<path fill-rule="evenodd" clip-rule="evenodd" fill="#F3F3F3" stroke="#595959" stroke-width="0.5" stroke-miterlimit="10" d="
			M56.804,246.299c1.471,0,2.684-1.216,2.684-2.694c0-1.52-1.212-2.736-2.684-2.736c-1.471,0-2.726,1.216-2.726,2.736
			C54.078,245.083,55.334,246.299,56.804,246.299z"/>
		<path fill-rule="evenodd" clip-rule="evenodd" fill="#F3F3F3" stroke="#595959" stroke-width="0.5" stroke-miterlimit="10" d="
			M56.804,246.299c1.471,0,2.684-1.216,2.684-2.694c0-1.52-1.212-2.736-2.684-2.736c-1.471,0-2.726,1.216-2.726,2.736
			C54.078,245.083,55.334,246.299,56.804,246.299z"/>
	</g>
	<g>
		
			<rect x="39.396" y="295.491" fill-rule="evenodd" clip-rule="evenodd" fill="#F3F3F3" stroke="#595959" stroke-width="0.5" stroke-miterlimit="10" width="1.747" height="24.681"/>
		
			<rect x="39.396" y="295.491" fill-rule="evenodd" clip-rule="evenodd" fill="#F3F3F3" stroke="#595959" stroke-width="0.5" stroke-miterlimit="10" width="1.747" height="24.681"/>
		
			<rect x="67.024" y="312.274" fill-rule="evenodd" clip-rule="evenodd" fill="#F3F3F3" stroke="#595959" stroke-width="0.5" stroke-miterlimit="10" width="2.395" height="8.114"/>
		
			<rect x="67.024" y="312.274" fill-rule="evenodd" clip-rule="evenodd" fill="#F3F3F3" stroke="#595959" stroke-width="0.5" stroke-miterlimit="10" width="2.395" height="8.114"/>
		
			<rect x="40.96" y="294.358" fill-rule="evenodd" clip-rule="evenodd" fill="#F3F3F3" stroke="#595959" stroke-width="0.5" stroke-miterlimit="10" width="27.055" height="27.109"/>
		
			<rect x="40.96" y="294.358" fill-rule="evenodd" clip-rule="evenodd" fill="#F3F3F3" stroke="#595959" stroke-width="0.5" stroke-miterlimit="10" width="27.055" height="27.109"/>
		<path fill-rule="evenodd" clip-rule="evenodd" fill="#F3F3F3" stroke="#595959" stroke-width="0.5" stroke-miterlimit="10" d="
			M65.587,294.358l0,27.109L65.587,294.358z"/>
		<path fill-rule="evenodd" clip-rule="evenodd" fill="#F3F3F3" stroke="#595959" stroke-width="0.5" stroke-miterlimit="10" d="
			M65.492,293.063c-0.529,0-1.058,0.472-1.058,1.062c0,0.649,0.529,1.063,1.058,1.063c0.647,0,1.175-0.472,1.175-1.063
			C66.667,293.536,66.138,293.063,65.492,293.063z"/>
		<path fill-rule="evenodd" clip-rule="evenodd" fill="#F3F3F3" stroke="#595959" stroke-width="0.5" stroke-miterlimit="10" d="
			M65.492,293.063c-0.529,0-1.058,0.472-1.058,1.062c0,0.649,0.529,1.063,1.058,1.063c0.647,0,1.175-0.472,1.175-1.063
			C66.667,293.536,66.138,293.063,65.492,293.063z"/>
		<path fill-rule="evenodd" clip-rule="evenodd" fill="#F3F3F3" stroke="#595959" stroke-width="0.5" stroke-miterlimit="10" d="
			M51.645,308.059h4.769H51.645z"/>
		<path fill-rule="evenodd" clip-rule="evenodd" fill="#F3F3F3" stroke="#595959" stroke-width="0.5" stroke-miterlimit="10" d="
			M53.98,305.745l0,4.768L53.98,305.745z"/>
		<path fill-rule="evenodd" clip-rule="evenodd" fill="#F3F3F3" stroke="#595959" stroke-width="0.5" stroke-miterlimit="10" d="
			M55.766,306.392l-3.473,3.474L55.766,306.392z"/>
		<path fill-rule="evenodd" clip-rule="evenodd" fill="#F3F3F3" stroke="#595959" stroke-width="0.5" stroke-miterlimit="10" d="
			M55.766,309.812l-3.473-3.473L55.766,309.812z"/>
		<path fill-rule="evenodd" clip-rule="evenodd" fill="#F3F3F3" stroke="#595959" stroke-width="0.5" stroke-miterlimit="10" d="
			M51.483,301.042h4.768H51.483z"/>
		<path fill-rule="evenodd" clip-rule="evenodd" fill="#F3F3F3" stroke="#595959" stroke-width="0.5" stroke-miterlimit="10" d="
			M53.818,298.675l0,4.768L53.818,298.675z"/>
		<path fill-rule="evenodd" clip-rule="evenodd" fill="#F3F3F3" stroke="#595959" stroke-width="0.5" stroke-miterlimit="10" d="
			M55.604,299.377l-3.474,3.474L55.604,299.377z"/>
		<path fill-rule="evenodd" clip-rule="evenodd" fill="#F3F3F3" stroke="#595959" stroke-width="0.5" stroke-miterlimit="10" d="
			M55.604,302.797l-3.474-3.474L55.604,302.797z"/>
		<path fill-rule="evenodd" clip-rule="evenodd" fill="#F3F3F3" stroke="#595959" stroke-width="0.5" stroke-miterlimit="10" d="
			M51.645,314.915h4.769H51.645z"/>
		<path fill-rule="evenodd" clip-rule="evenodd" fill="#F3F3F3" stroke="#595959" stroke-width="0.5" stroke-miterlimit="10" d="
			M53.98,312.598l0,4.768L53.98,312.598z"/>
		<path fill-rule="evenodd" clip-rule="evenodd" fill="#F3F3F3" stroke="#595959" stroke-width="0.5" stroke-miterlimit="10" d="
			M55.766,313.245l-3.473,3.474L55.766,313.245z"/>
		<path fill-rule="evenodd" clip-rule="evenodd" fill="#F3F3F3" stroke="#595959" stroke-width="0.5" stroke-miterlimit="10" d="
			M55.766,316.665l-3.473-3.474L55.766,316.665z"/>
	</g>
	<g>
		<g>
			
				<rect x="480.857" y="55.231" transform="matrix(-1.836970e-16 1 -1 -1.836970e-16 555.5467 -428.708)" fill="#F3F3F3" stroke="#595959" stroke-width="0.5" stroke-miterlimit="10" width="22.541" height="16.377"/>
			
				<rect x="478.68" y="62.798" transform="matrix(-1.929184e-13 1 -1 -1.929184e-13 546.7367 -420.0741)" fill="#F3F3F3" stroke="#595959" stroke-width="0.5" stroke-miterlimit="10" width="9.451" height="1.067"/>
		</g>
		<g>
			
				<rect x="417.806" y="18.933" fill-rule="evenodd" clip-rule="evenodd" fill="#F3F3F3" stroke="#595959" stroke-width="0.5" stroke-miterlimit="10" width="82.51" height="32.023"/>
			
				<polyline fill-rule="evenodd" clip-rule="evenodd" fill="#F3F3F3" stroke="#595959" stroke-width="0.5" stroke-miterlimit="10" points="
				477.334,20.277 496.312,20.277 496.312,49.612 467.523,49.612 			"/>
			
				<rect x="476.684" y="22.106" transform="matrix(-1 -1.224647e-16 1.224647e-16 -1 970.9436 69.8891)" fill-rule="evenodd" clip-rule="evenodd" fill="#F3F3F3" stroke="#595959" stroke-width="0.5" stroke-miterlimit="10" width="17.576" height="25.676"/>
			
				<polygon fill-rule="evenodd" clip-rule="evenodd" fill="#F3F3F3" stroke="#595959" stroke-width="0.5" stroke-miterlimit="10" points="
				478.138,20.277 478.138,32.129 478.138,32.129 467.762,49.612 420.141,49.612 420.141,49.547 420.141,20.278 			"/>
			
				<polygon fill-rule="evenodd" clip-rule="evenodd" fill="#F3F3F3" stroke="#595959" stroke-width="0.5" stroke-miterlimit="10" points="
				467.704,49.296 460.393,37.709 477.726,32.785 			"/>
		</g>
	</g>
	<g>
		<g>
			<path fill="#F3F3F3" stroke="#595959" stroke-width="0.5" stroke-miterlimit="10" d="M477.799,146.822l-16.688,0.023
				c-1.1,0.002-1.999,0.903-1.997,2.003l0.021,14.925c0.002,1.1,0.903,1.999,2.003,1.997l16.688-0.023
				c1.1-0.002,1.999-0.903,1.997-2.003l-0.021-14.925C479.8,147.719,478.899,146.821,477.799,146.822z"/>
			<path fill="#F3F3F3" stroke="#595959" stroke-width="0.5" stroke-miterlimit="10" d="M478.416,146.821l-17.922,0.025
				c-0.761,0.001-1.384-0.62-1.385-1.381l-0.002-1.751c-0.001-0.761,0.62-1.384,1.381-1.385l17.922-0.025
				c0.761-0.001,1.384,0.62,1.385,1.381l0.002,1.751C479.798,146.197,479.177,146.82,478.416,146.821z"/>
		</g>
		
			<rect x="438.669" y="158.257" fill-rule="evenodd" clip-rule="evenodd" fill="#F3F3F3" stroke="#595959" stroke-width="0.5" stroke-miterlimit="10" width="61.592" height="22.204"/>
	</g>
	<g>
		
			<rect x="321.169" y="44.719" transform="matrix(6.123234e-17 -1 1 6.123234e-17 302.6331 419.6761)" fill-rule="evenodd" clip-rule="evenodd" fill="#F3F3F3" stroke="#595959" stroke-width="0.5" stroke-miterlimit="10" width="79.972" height="27.605"/>
		
			<line fill="#F3F3F3" stroke="#595959" stroke-width="0.5" stroke-miterlimit="10" x1="374.957" y1="95.613" x2="347.305" y2="95.613"/>
		
			<line fill="#F3F3F3" stroke="#595959" stroke-width="0.5" stroke-miterlimit="10" x1="374.957" y1="21.516" x2="347.352" y2="21.516"/>
		
			<line fill="#F3F3F3" stroke="#595959" stroke-width="0.5" stroke-miterlimit="10" x1="348.626" y1="95.613" x2="348.626" y2="21.516"/>
		
			<line fill="#F3F3F3" stroke="#595959" stroke-width="0.5" stroke-miterlimit="10" x1="361.353" y1="24.097" x2="361.353" y2="93.034"/>
		
			<rect x="360.345" y="81.038" transform="matrix(-0.162 -0.9868 0.9868 -0.162 331.4408 460.3818)" fill="#F3F3F3" stroke="#595959" stroke-width="0.5" stroke-miterlimit="10" width="1.729" height="16.832"/>
		
			<rect x="360.345" y="74.842" transform="matrix(-0.0882 -0.9961 0.9961 -0.0882 310.1168 450.4006)" fill="#F3F3F3" stroke="#595959" stroke-width="0.5" stroke-miterlimit="10" width="1.729" height="16.832"/>
		
			<rect x="360.488" y="68.57" transform="matrix(-0.229 -0.9734 0.9734 -0.229 369.1635 446.3658)" fill="#F3F3F3" stroke="#595959" stroke-width="0.5" stroke-miterlimit="10" width="1.729" height="16.832"/>
		
			<rect x="360.301" y="61.571" transform="matrix(-0.152 -0.9884 0.9884 -0.152 346.9046 437.5936)" fill="#F3F3F3" stroke="#595959" stroke-width="0.5" stroke-miterlimit="10" width="1.729" height="16.832"/>
		
			<rect x="360.395" y="55.466" transform="matrix(-0.0451 -0.999 0.999 -0.0451 313.7392 427.6551)" fill="#F3F3F3" stroke="#595959" stroke-width="0.5" stroke-miterlimit="10" width="1.729" height="16.832"/>
		
			<rect x="360.395" y="49.286" transform="matrix(-0.152 -0.9884 0.9884 -0.152 359.1541 423.5345)" fill="#F3F3F3" stroke="#595959" stroke-width="0.5" stroke-miterlimit="10" width="1.729" height="16.832"/>
		
			<rect x="360.488" y="43.011" transform="matrix(-0.0451 -0.999 0.999 -0.0451 326.2795 414.7321)" fill="#F3F3F3" stroke="#595959" stroke-width="0.5" stroke-miterlimit="10" width="1.729" height="16.832"/>
		
			<rect x="360.488" y="36.858" transform="matrix(-0.2052 -0.9787 0.9787 -0.2052 391.1791 408.229)" fill="#F3F3F3" stroke="#595959" stroke-width="0.5" stroke-miterlimit="10" width="1.729" height="16.832"/>
		
			<rect x="360.471" y="30.706" transform="matrix(-0.152 -0.9884 0.9884 -0.152 377.6068 402.204)" fill="#F3F3F3" stroke="#595959" stroke-width="0.5" stroke-miterlimit="10" width="1.729" height="16.832"/>
		
			<rect x="360.488" y="24.553" transform="matrix(-0.0847 -0.9964 0.9964 -0.0847 359.1234 395.8156)" fill="#F3F3F3" stroke="#595959" stroke-width="0.5" stroke-miterlimit="10" width="1.729" height="16.832"/>
		
			<rect x="360.283" y="18.4" transform="matrix(-0.2379 -0.9713 0.9713 -0.2379 421.0266 383.9729)" fill="#F3F3F3" stroke="#595959" stroke-width="0.5" stroke-miterlimit="10" width="1.729" height="16.832"/>
	</g>
	<g>
		<path fill="#F3F3F3" stroke="#595959" stroke-width="0.5" stroke-miterlimit="10" d="M87.738,18.716h55.538v28.8H87.738
			c-2.842-1.208-8.906-5.476-12.237-10.948c-3.762-6.18-3.676-14.805-3.457-17.852C77.276,18.716,82.507,18.716,87.738,18.716z
			 M87.738,18.716v28.8"/>
		
			<rect x="134.193" y="19.387" transform="matrix(5.753893e-11 -1 1 5.753893e-11 115.4771 156.4976)" fill="#F3F3F3" stroke="#595959" stroke-width="0.5" stroke-miterlimit="10" width="3.588" height="2.246"/>
		
			<rect x="120.463" y="19.387" transform="matrix(5.703178e-11 -1 1 5.703178e-11 101.7469 142.7675)" fill="#F3F3F3" stroke="#595959" stroke-width="0.5" stroke-miterlimit="10" width="3.588" height="2.246"/>
		
			<rect x="106.873" y="19.387" transform="matrix(5.753893e-11 -1 1 5.753893e-11 88.1572 129.1777)" fill="#F3F3F3" stroke="#595959" stroke-width="0.5" stroke-miterlimit="10" width="3.588" height="2.246"/>
		
			<rect x="93.143" y="19.387" transform="matrix(5.703178e-11 -1 1 5.703178e-11 74.4271 115.4476)" fill="#F3F3F3" stroke="#595959" stroke-width="0.5" stroke-miterlimit="10" width="3.588" height="2.246"/>
		
			<rect x="135.688" y="16.277" transform="matrix(5.777785e-11 -1 1 5.777785e-11 116.9869 154.9877)" fill="#F3F3F3" stroke="#595959" stroke-width="0.5" stroke-miterlimit="10" width="0.598" height="5.447"/>
		
			<rect x="122.014" y="16.277" transform="matrix(5.777785e-11 -1 1 5.777785e-11 103.313 141.3138)" fill="#F3F3F3" stroke="#595959" stroke-width="0.5" stroke-miterlimit="10" width="0.598" height="5.447"/>
		
			<rect x="108.368" y="16.277" transform="matrix(5.625728e-11 -1 1 5.625728e-11 89.6671 127.6679)" fill="#F3F3F3" stroke="#595959" stroke-width="0.5" stroke-miterlimit="10" width="0.598" height="5.447"/>
		
			<rect x="94.638" y="16.277" transform="matrix(6.081897e-11 -1 1 6.081897e-11 75.937 113.9377)" fill="#F3F3F3" stroke="#595959" stroke-width="0.5" stroke-miterlimit="10" width="0.598" height="5.447"/>
	</g>
	<g>
		<g>
			<path fill="#F3F3F3" stroke="#595959" stroke-width="0.5" stroke-miterlimit="10" d="M136.517,241.02
				c-5.467,0-9.891-1.636-9.891-3.666c0-2.02,4.424-3.666,9.891-3.666c5.467,0,9.9,1.645,9.9,3.666
				C146.417,239.384,141.984,241.02,136.517,241.02z"/>
			<path fill="#F3F3F3" stroke="#595959" stroke-width="0.5" stroke-miterlimit="10" d="M136.517,257.575
				c-5.467,0-9.891-4.434-9.891-9.9c0-5.467,4.424-9.9,9.891-9.9c5.467,0,9.9,4.434,9.9,9.9
				C146.417,253.142,141.984,257.575,136.517,257.575z"/>
		</g>
		<g>
			<path fill="#F3F3F3" stroke="#595959" stroke-width="0.5" stroke-miterlimit="10" d="M166,287.837c5.467,0,9.9,1.645,9.9,3.666
				c0,2.029-4.434,3.666-9.9,3.666c-5.467,0-9.891-1.636-9.891-3.666C156.108,289.483,160.533,287.837,166,287.837z"/>
			<path fill="#F3F3F3" stroke="#595959" stroke-width="0.5" stroke-miterlimit="10" d="M166,271.291c5.467,0,9.9,4.434,9.9,9.9
				c0,5.467-4.434,9.9-9.9,9.9c-5.467,0-9.891-4.434-9.891-9.9C156.108,275.725,160.533,271.291,166,271.291z"/>
		</g>
		<g>
			<path fill="#F3F3F3" stroke="#595959" stroke-width="0.5" stroke-miterlimit="10" d="M136.517,287.842
				c5.476,0,9.9,1.636,9.9,3.666c0,2.02-4.424,3.666-9.9,3.666c-5.467,0-9.891-1.645-9.891-3.666
				C126.626,289.478,131.051,287.842,136.517,287.842z"/>
			<path fill="#F3F3F3" stroke="#595959" stroke-width="0.5" stroke-miterlimit="10" d="M136.517,271.286c5.476,0,9.9,4.434,9.9,9.9
				c0,5.467-4.424,9.9-9.9,9.9c-5.467,0-9.891-4.434-9.891-9.9C126.626,275.72,131.051,271.286,136.517,271.286z"/>
		</g>
		<g>
			<path fill="#F3F3F3" stroke="#595959" stroke-width="0.5" stroke-miterlimit="10" d="M166.009,241.02
				c-5.476,0-9.9-1.636-9.9-3.666c0-2.02,4.424-3.666,9.9-3.666c5.467,0,9.891,1.645,9.891,3.666
				C175.9,239.384,171.475,241.02,166.009,241.02z"/>
			<path fill="#F3F3F3" stroke="#595959" stroke-width="0.5" stroke-miterlimit="10" d="M166.009,257.575
				c-5.476,0-9.9-4.434-9.9-9.9c0-5.467,4.424-9.9,9.9-9.9c5.467,0,9.891,4.434,9.891,9.9
				C175.9,253.142,171.475,257.575,166.009,257.575z"/>
		</g>
		<polygon fill="#F3F3F3" stroke="#595959" stroke-width="0.5" points="182.021,283.23 182.021,245.632 120.17,245.632 
			120.17,283.23 		"/>
	</g>
</g>
<g id="numbers">
	<g>
		<path d="M233.767,233.86h-4.849l0.013,8.268h-0.949v-9.1h5.785V233.86z"/>
		<path d="M234.249,241.744c-0.529-0.299-0.945-0.713-1.248-1.241s-0.455-1.127-0.455-1.794s0.152-1.266,0.455-1.794
			s0.719-0.94,1.248-1.235c0.528-0.294,1.122-0.441,1.781-0.441s1.252,0.147,1.781,0.441c0.528,0.295,0.942,0.707,1.242,1.235
			c0.299,0.528,0.448,1.127,0.448,1.794s-0.149,1.266-0.448,1.794c-0.299,0.528-0.713,0.942-1.242,1.241
			c-0.529,0.299-1.123,0.449-1.781,0.449S234.777,242.043,234.249,241.744z M237.336,241.042c0.386-0.221,0.687-0.534,0.904-0.942
			c0.216-0.407,0.325-0.871,0.325-1.391c0-0.521-0.108-0.983-0.325-1.391c-0.217-0.407-0.518-0.722-0.904-0.943
			c-0.386-0.221-0.821-0.331-1.307-0.331s-0.921,0.11-1.306,0.331c-0.386,0.222-0.689,0.536-0.91,0.943s-0.332,0.87-0.332,1.391
			c0,0.52,0.11,0.983,0.332,1.391c0.221,0.408,0.524,0.722,0.91,0.942c0.385,0.222,0.821,0.332,1.306,0.332
			S236.951,241.263,237.336,241.042z"/>
		<path d="M242.523,241.751c-0.533-0.295-0.951-0.709-1.254-1.241c-0.303-0.533-0.455-1.134-0.455-1.801s0.152-1.266,0.455-1.794
			s0.722-0.94,1.254-1.235c0.533-0.294,1.138-0.441,1.813-0.441c0.589,0,1.116,0.114,1.58,0.344c0.463,0.23,0.83,0.565,1.099,1.008
			l-0.689,0.468c-0.226-0.338-0.512-0.591-0.858-0.76c-0.347-0.169-0.724-0.254-1.131-0.254c-0.494,0-0.938,0.11-1.333,0.331
			c-0.395,0.222-0.702,0.536-0.923,0.943s-0.332,0.87-0.332,1.391c0,0.528,0.11,0.994,0.332,1.397s0.528,0.715,0.923,0.936
			c0.395,0.222,0.839,0.332,1.333,0.332c0.407,0,0.784-0.082,1.131-0.247c0.346-0.165,0.632-0.416,0.858-0.754l0.689,0.468
			c-0.269,0.442-0.637,0.778-1.105,1.008c-0.468,0.229-0.993,0.345-1.573,0.345C243.66,242.193,243.056,242.045,242.523,241.751z"/>
		<path d="M253.475,236.109h-2.587v6.019h-0.923v-6.019h-2.587v-0.819h6.097V236.109z"/>
		<path d="M254.814,235.29h0.923v5.434l4.563-5.434h0.819v6.838h-0.923v-5.434l-4.55,5.434h-0.832V235.29z"/>
		<path d="M263.758,235.29h0.923v3.029h4.303v-3.029h0.923v6.838h-0.923v-3.016h-4.303v3.016h-0.923V235.29z"/>
		<path d="M276.94,235.907c0.476,0.446,0.715,1.107,0.715,1.982v4.238h-0.884v-1.066c-0.208,0.355-0.513,0.633-0.917,0.832
			c-0.403,0.2-0.882,0.3-1.436,0.3c-0.763,0-1.37-0.183-1.82-0.547c-0.451-0.363-0.676-0.845-0.676-1.442
			c0-0.581,0.21-1.049,0.63-1.404s1.09-0.533,2.008-0.533h2.171v-0.416c0-0.589-0.165-1.037-0.494-1.345
			c-0.33-0.308-0.811-0.462-1.443-0.462c-0.434,0-0.85,0.071-1.248,0.215c-0.399,0.143-0.741,0.34-1.027,0.591l-0.416-0.688
			c0.347-0.295,0.763-0.522,1.248-0.683s0.997-0.24,1.534-0.24C275.778,235.238,276.463,235.46,276.94,235.907z M275.9,241.107
			c0.373-0.238,0.65-0.583,0.832-1.033v-1.118h-2.145c-1.17,0-1.755,0.407-1.755,1.222c0,0.399,0.152,0.713,0.455,0.942
			c0.303,0.23,0.728,0.345,1.274,0.345C275.08,241.464,275.527,241.345,275.9,241.107z"/>
		<path d="M285.364,235.29v6.838h-0.845v-2.262h-2.145h-0.26l-1.586,2.262h-1.001l1.703-2.392c-0.529-0.147-0.936-0.399-1.222-0.755
			c-0.286-0.354-0.429-0.806-0.429-1.352c0-0.763,0.26-1.343,0.78-1.742c0.52-0.398,1.23-0.598,2.132-0.598H285.364z
			 M282.452,239.176h2.067v-3.067h-2.002c-1.334,0-2.002,0.516-2.002,1.547C280.514,238.669,281.16,239.176,282.452,239.176z"/>
		<path d="M230.452,249.127v9.8h-1.82v-8.274h-2.072v-1.525H230.452z"/>
		<path d="M238.831,250.248c0.742,0.84,1.113,2.044,1.113,3.611c0,1.102-0.201,2.042-0.602,2.821s-0.964,1.372-1.687,1.778
			c-0.724,0.405-1.561,0.608-2.513,0.608c-0.504,0-0.978-0.054-1.421-0.161c-0.443-0.106-0.829-0.263-1.155-0.469l0.672-1.372
			c0.485,0.317,1.106,0.477,1.862,0.477c0.943,0,1.68-0.289,2.212-0.868c0.532-0.579,0.798-1.414,0.798-2.506v-0.015
			c-0.29,0.336-0.658,0.591-1.106,0.764c-0.448,0.173-0.952,0.259-1.512,0.259c-0.644,0-1.223-0.124-1.736-0.371
			c-0.514-0.247-0.915-0.6-1.204-1.057c-0.29-0.457-0.434-0.985-0.434-1.582c0-0.635,0.159-1.192,0.476-1.673
			c0.317-0.481,0.747-0.852,1.288-1.113c0.541-0.262,1.148-0.393,1.82-0.393C237.047,248.987,238.09,249.408,238.831,250.248z
			 M237.278,253.271c0.369-0.317,0.553-0.719,0.553-1.204c0-0.476-0.18-0.87-0.539-1.183s-0.856-0.469-1.491-0.469
			c-0.569,0-1.031,0.151-1.386,0.455c-0.354,0.303-0.532,0.707-0.532,1.211c0,0.513,0.177,0.919,0.532,1.218
			c0.355,0.299,0.831,0.448,1.428,0.448C236.43,253.748,236.909,253.588,237.278,253.271z"/>
		<path d="M242.927,257.023c0.214,0.215,0.322,0.495,0.322,0.84c0,0.149-0.021,0.307-0.063,0.47s-0.128,0.408-0.259,0.734
			l-0.714,1.975h-1.134l0.56-2.143c-0.206-0.084-0.367-0.217-0.483-0.398c-0.117-0.183-0.175-0.395-0.175-0.638
			c0-0.345,0.107-0.625,0.322-0.84c0.214-0.214,0.485-0.321,0.812-0.321C242.441,256.702,242.712,256.809,242.927,257.023z"/>
		<path d="M250.857,250.248c0.742,0.84,1.113,2.044,1.113,3.611c0,1.102-0.201,2.042-0.602,2.821s-0.964,1.372-1.687,1.778
			c-0.724,0.405-1.561,0.608-2.513,0.608c-0.504,0-0.978-0.054-1.421-0.161c-0.443-0.106-0.829-0.263-1.155-0.469l0.672-1.372
			c0.485,0.317,1.106,0.477,1.862,0.477c0.943,0,1.68-0.289,2.212-0.868c0.532-0.579,0.798-1.414,0.798-2.506v-0.015
			c-0.29,0.336-0.658,0.591-1.106,0.764c-0.448,0.173-0.952,0.259-1.512,0.259c-0.644,0-1.223-0.124-1.736-0.371
			c-0.514-0.247-0.915-0.6-1.204-1.057c-0.29-0.457-0.434-0.985-0.434-1.582c0-0.635,0.159-1.192,0.476-1.673
			c0.317-0.481,0.747-0.852,1.288-1.113c0.541-0.262,1.148-0.393,1.82-0.393C249.073,248.987,250.116,249.408,250.857,250.248z
			 M249.304,253.271c0.369-0.317,0.553-0.719,0.553-1.204c0-0.476-0.18-0.87-0.539-1.183s-0.856-0.469-1.491-0.469
			c-0.569,0-1.031,0.151-1.386,0.455c-0.354,0.303-0.532,0.707-0.532,1.211c0,0.513,0.177,0.919,0.532,1.218
			c0.355,0.299,0.831,0.448,1.428,0.448C248.456,253.748,248.934,253.588,249.304,253.271z"/>
	</g>
	<g>
		<path d="M386.774,245.518c-0.724-0.399-1.291-0.951-1.703-1.658c-0.411-0.706-0.617-1.497-0.617-2.372s0.206-1.666,0.617-2.373
			c0.412-0.706,0.981-1.259,1.71-1.657c0.728-0.398,1.542-0.598,2.444-0.598c0.676,0,1.3,0.112,1.872,0.338
			c0.571,0.226,1.057,0.555,1.455,0.988l-0.61,0.61c-0.711-0.719-1.608-1.079-2.691-1.079c-0.72,0-1.373,0.165-1.963,0.494
			c-0.59,0.33-1.051,0.78-1.385,1.353c-0.333,0.571-0.5,1.213-0.5,1.924s0.167,1.352,0.5,1.924c0.334,0.572,0.795,1.022,1.385,1.352
			c0.59,0.33,1.243,0.494,1.963,0.494c1.092,0,1.989-0.363,2.691-1.092l0.61,0.611c-0.398,0.434-0.886,0.765-1.462,0.994
			s-1.202,0.345-1.879,0.345C388.31,246.116,387.497,245.917,386.774,245.518z"/>
		<path d="M400.456,239.2v6.838h-0.923v-6.019h-4.29v6.019h-0.923V239.2H400.456z"/>
		<path d="M407.489,239.817c0.477,0.446,0.715,1.107,0.715,1.982v4.238h-0.884v-1.066c-0.208,0.355-0.514,0.633-0.916,0.832
			c-0.403,0.2-0.882,0.3-1.437,0.3c-0.763,0-1.37-0.183-1.82-0.547c-0.45-0.363-0.676-0.845-0.676-1.442
			c0-0.581,0.21-1.049,0.63-1.404c0.421-0.355,1.09-0.533,2.009-0.533h2.171v-0.416c0-0.589-0.164-1.037-0.494-1.345
			c-0.329-0.308-0.81-0.462-1.442-0.462c-0.434,0-0.85,0.071-1.248,0.215c-0.398,0.143-0.741,0.34-1.027,0.591l-0.416-0.688
			c0.347-0.295,0.763-0.522,1.248-0.683s0.997-0.24,1.534-0.24C406.327,239.148,407.012,239.371,407.489,239.817z M406.449,245.017
			c0.373-0.238,0.65-0.583,0.832-1.033v-1.118h-2.145c-1.17,0-1.755,0.407-1.755,1.222c0,0.399,0.151,0.713,0.455,0.942
			c0.303,0.23,0.728,0.345,1.273,0.345C405.63,245.375,406.077,245.255,406.449,245.017z"/>
		<path d="M416.251,239.2v6.838h-0.923v-6.019h-3.276l-0.091,1.689c-0.069,1.422-0.234,2.514-0.494,3.276s-0.724,1.144-1.392,1.144
			c-0.182,0-0.402-0.034-0.662-0.104l0.064-0.793c0.156,0.034,0.265,0.052,0.325,0.052c0.355,0,0.624-0.165,0.806-0.494
			c0.183-0.329,0.304-0.736,0.364-1.222s0.112-1.127,0.156-1.924l0.117-2.444H416.251z"/>
		<path d="M423.771,242.19c0.446,0.372,0.67,0.909,0.67,1.611c0,0.729-0.24,1.287-0.722,1.678c-0.48,0.39-1.177,0.58-2.086,0.571
			l-2.756-0.013V239.2h0.923v2.392l2.015,0.026C422.673,241.626,423.325,241.817,423.771,242.19z M423.017,244.965
			c0.325-0.265,0.488-0.652,0.488-1.164c0-0.502-0.161-0.875-0.481-1.117c-0.32-0.243-0.802-0.369-1.443-0.378l-1.78-0.025v3.042
			l1.78,0.025C422.213,245.357,422.693,245.23,423.017,244.965z"/>
		<path d="M426.197,239.2h0.923v3.029h4.303V239.2h0.923v6.838h-0.923v-3.016h-4.303v3.016h-0.923V239.2z"/>
		<path d="M440.223,239.2v6.838h-0.846v-2.262h-2.145h-0.26l-1.587,2.262h-1.001l1.703-2.392c-0.528-0.147-0.936-0.399-1.222-0.755
			c-0.286-0.354-0.429-0.806-0.429-1.352c0-0.763,0.26-1.343,0.779-1.742c0.521-0.398,1.231-0.598,2.133-0.598H440.223z
			 M437.311,243.086h2.066v-3.067h-2.002c-1.335,0-2.002,0.516-2.002,1.547C435.373,242.58,436.019,243.086,437.311,243.086z"/>
		<path d="M387.703,253.038v9.8h-1.82v-8.274h-2.071v-1.525H387.703z"/>
		<path d="M395.837,257.161c0.514,0.247,0.915,0.6,1.204,1.057c0.289,0.458,0.435,0.985,0.435,1.582
			c0,0.635-0.159,1.192-0.477,1.673c-0.317,0.481-0.747,0.852-1.288,1.113c-0.541,0.261-1.147,0.392-1.819,0.392
			c-1.345,0-2.388-0.42-3.13-1.26c-0.741-0.84-1.112-2.044-1.112-3.612c0-1.101,0.2-2.041,0.602-2.82s0.964-1.372,1.688-1.778
			c0.723-0.406,1.561-0.609,2.513-0.609c0.504,0,0.978,0.055,1.421,0.161c0.443,0.107,0.828,0.264,1.155,0.47l-0.672,1.371
			c-0.485-0.316-1.106-0.476-1.862-0.476c-0.942,0-1.68,0.289-2.212,0.868s-0.798,1.414-0.798,2.506v0.014
			c0.289-0.336,0.658-0.59,1.105-0.763c0.448-0.173,0.952-0.259,1.513-0.259C394.745,256.79,395.325,256.914,395.837,257.161z
			 M395.18,261.094c0.354-0.303,0.531-0.707,0.531-1.211c0-0.513-0.177-0.919-0.531-1.218c-0.355-0.299-0.831-0.448-1.429-0.448
			c-0.588,0-1.066,0.159-1.435,0.477c-0.369,0.317-0.553,0.719-0.553,1.203c0,0.477,0.179,0.871,0.538,1.184
			s0.856,0.469,1.491,0.469C394.363,261.549,394.825,261.398,395.18,261.094z"/>
		<path d="M400.486,260.933c0.215,0.215,0.322,0.495,0.322,0.84c0,0.149-0.021,0.307-0.063,0.47s-0.128,0.408-0.259,0.734
			l-0.714,1.975h-1.135l0.561-2.143c-0.205-0.084-0.366-0.217-0.483-0.398c-0.116-0.183-0.175-0.395-0.175-0.638
			c0-0.345,0.107-0.625,0.322-0.84c0.215-0.214,0.485-0.321,0.812-0.321C400,260.612,400.271,260.719,400.486,260.933z"/>
		<path d="M408.116,257.636c0.662,0.537,0.994,1.268,0.994,2.191c0,0.588-0.145,1.12-0.435,1.596
			c-0.289,0.476-0.723,0.854-1.302,1.134c-0.579,0.28-1.293,0.42-2.142,0.42c-0.7,0-1.377-0.1-2.03-0.301
			c-0.653-0.2-1.204-0.479-1.652-0.833l0.771-1.414c0.364,0.299,0.8,0.534,1.309,0.707s1.034,0.259,1.575,0.259
			c0.645,0,1.15-0.133,1.52-0.398c0.368-0.267,0.553-0.633,0.553-1.1c0-0.504-0.198-0.884-0.595-1.141
			c-0.397-0.257-1.076-0.385-2.037-0.385h-2.366l0.504-5.334h5.754v1.525h-4.214l-0.21,2.269h0.938
			C406.431,256.832,407.452,257.1,408.116,257.636z"/>
	</g>
	<g>
		<path d="M428.93,92.532c-0.724-0.398-1.291-0.951-1.703-1.658c-0.411-0.706-0.617-1.497-0.617-2.372s0.206-1.666,0.617-2.373
			c0.412-0.707,0.981-1.259,1.71-1.658c0.728-0.398,1.542-0.598,2.444-0.598c0.676,0,1.3,0.113,1.872,0.338
			c0.571,0.225,1.057,0.555,1.455,0.988l-0.61,0.611c-0.711-0.719-1.608-1.079-2.691-1.079c-0.72,0-1.373,0.165-1.963,0.494
			c-0.59,0.33-1.051,0.78-1.385,1.352c-0.333,0.572-0.5,1.213-0.5,1.924c0,0.71,0.167,1.352,0.5,1.924
			c0.334,0.572,0.795,1.023,1.385,1.352c0.59,0.33,1.243,0.494,1.963,0.494c1.092,0,1.989-0.364,2.691-1.092l0.61,0.611
			c-0.398,0.434-0.886,0.765-1.462,0.995c-0.576,0.23-1.202,0.345-1.879,0.345C430.466,93.13,429.654,92.931,428.93,92.532z"/>
		<path d="M442.613,86.214v6.838h-0.923v-6.019h-4.29v6.019h-0.923v-6.838H442.613z"/>
		<path d="M449.645,86.831c0.477,0.447,0.715,1.107,0.715,1.983v4.238h-0.884v-1.066c-0.208,0.355-0.514,0.633-0.916,0.832
			c-0.403,0.199-0.882,0.299-1.437,0.299c-0.763,0-1.37-0.182-1.82-0.546c-0.45-0.364-0.676-0.845-0.676-1.443
			c0-0.581,0.21-1.049,0.63-1.404c0.421-0.355,1.09-0.533,2.009-0.533h2.171v-0.416c0-0.589-0.164-1.038-0.494-1.346
			c-0.329-0.308-0.81-0.461-1.442-0.461c-0.434,0-0.85,0.071-1.248,0.214s-0.741,0.34-1.027,0.592l-0.416-0.689
			c0.347-0.295,0.763-0.522,1.248-0.683s0.997-0.241,1.534-0.241C448.484,86.162,449.168,86.385,449.645,86.831z M448.605,92.031
			c0.373-0.238,0.65-0.583,0.832-1.034V89.88h-2.145c-1.17,0-1.755,0.407-1.755,1.222c0,0.399,0.151,0.713,0.455,0.943
			c0.303,0.229,0.728,0.344,1.273,0.344C447.786,92.389,448.233,92.27,448.605,92.031z"/>
		<path d="M458.408,86.214v6.838h-0.923v-6.019h-3.276l-0.091,1.69c-0.069,1.421-0.234,2.514-0.494,3.276
			c-0.26,0.763-0.724,1.144-1.392,1.144c-0.182,0-0.402-0.035-0.662-0.104l0.064-0.793c0.156,0.035,0.265,0.052,0.325,0.052
			c0.355,0,0.624-0.165,0.806-0.494c0.183-0.329,0.304-0.736,0.364-1.222c0.061-0.485,0.112-1.126,0.156-1.924l0.117-2.444H458.408z
			"/>
		<path d="M465.927,89.204c0.446,0.373,0.67,0.91,0.67,1.612c0,0.728-0.24,1.287-0.722,1.677c-0.48,0.39-1.177,0.581-2.086,0.572
			l-2.756-0.013v-6.838h0.923v2.392l2.015,0.026C464.829,88.641,465.481,88.831,465.927,89.204z M465.173,91.98
			c0.325-0.265,0.488-0.652,0.488-1.164c0-0.503-0.161-0.875-0.481-1.118s-0.802-0.368-1.443-0.377l-1.78-0.026v3.042l1.78,0.026
			C464.369,92.372,464.849,92.244,465.173,91.98z"/>
		<path d="M468.352,86.214h0.923v3.029h4.303v-3.029h0.923v6.838h-0.923v-3.016h-4.303v3.016h-0.923V86.214z"/>
		<path d="M482.378,86.214v6.838h-0.846V90.79h-2.145h-0.26l-1.587,2.262h-1.001l1.703-2.392c-0.528-0.147-0.936-0.398-1.222-0.754
			s-0.429-0.806-0.429-1.352c0-0.763,0.26-1.343,0.779-1.742c0.521-0.398,1.231-0.598,2.133-0.598H482.378z M479.466,90.101h2.066
			v-3.068h-2.002c-1.335,0-2.002,0.516-2.002,1.547C477.529,89.594,478.174,90.101,479.466,90.101z"/>
		<path d="M429.86,100.052v9.8h-1.82v-8.274h-2.071v-1.526H429.86z"/>
		<path d="M435.194,100.052v9.8h-1.82v-8.274h-2.071v-1.526H435.194z"/>
		<path d="M439.058,107.948c0.215,0.215,0.322,0.495,0.322,0.84c0,0.149-0.021,0.306-0.063,0.469
			c-0.042,0.164-0.128,0.409-0.259,0.735l-0.714,1.974h-1.135l0.561-2.142c-0.205-0.084-0.366-0.217-0.483-0.398
			c-0.116-0.183-0.175-0.395-0.175-0.638c0-0.345,0.107-0.625,0.322-0.84s0.485-0.322,0.812-0.322
			C438.573,107.626,438.843,107.733,439.058,107.948z"/>
		<path d="M447.738,100.052v1.218l-3.808,8.583h-1.946l3.682-8.26h-3.85v1.666h-1.694v-3.206H447.738z"/>
	</g>
	<g>
		<path d="M83.405,196.297h-2.08v4.173h-0.936v-9.1h0.936v4.082h2.08l3.081-4.082h1.04l-3.38,4.42l3.575,4.68h-1.105L83.405,196.297
			z"/>
		<path d="M94.78,193.632l-3.419,7.657c-0.277,0.641-0.598,1.096-0.962,1.364c-0.364,0.269-0.802,0.403-1.313,0.403
			c-0.33,0-0.637-0.052-0.923-0.156c-0.286-0.104-0.533-0.26-0.741-0.468l0.429-0.688c0.347,0.346,0.763,0.52,1.248,0.52
			c0.312,0,0.579-0.087,0.8-0.26c0.221-0.174,0.427-0.468,0.617-0.884l0.299-0.663l-3.055-6.825h0.962l2.574,5.811l2.574-5.811
			H94.78z"/>
		<path d="M100.11,200.47l-2.171-2.86l-2.184,2.86h-1.04l2.704-3.51l-2.574-3.328h1.04l2.054,2.678l2.054-2.678h1.014l-2.574,3.328
			l2.73,3.51H100.11z"/>
		<path d="M102.671,193.632h0.923v3.029h4.303v-3.029h0.923v6.838h-0.923v-3.016h-4.303v3.016h-0.923V193.632z"/>
		<path d="M116.698,193.632v6.838h-0.845v-2.262h-2.145h-0.26l-1.586,2.262h-1.001l1.703-2.392
			c-0.529-0.147-0.936-0.399-1.222-0.755c-0.286-0.354-0.429-0.806-0.429-1.352c0-0.763,0.26-1.343,0.78-1.742
			c0.52-0.398,1.23-0.598,2.132-0.598H116.698z M113.785,197.519h2.067v-3.067h-2.002c-1.334,0-2.002,0.516-2.002,1.547
			C111.848,197.012,112.494,197.519,113.785,197.519z"/>
		<path d="M82.859,207.47v9.8h-1.82v-8.274h-2.072v-1.525H82.859z"/>
		<path d="M91.049,212.44c0.476,0.504,0.714,1.134,0.714,1.89c0,0.57-0.145,1.088-0.434,1.555c-0.29,0.467-0.726,0.838-1.309,1.112
			c-0.583,0.275-1.295,0.413-2.135,0.413c-0.7,0-1.374-0.1-2.023-0.301c-0.648-0.2-1.202-0.479-1.659-0.833l0.784-1.414
			c0.355,0.299,0.786,0.534,1.295,0.707s1.034,0.259,1.575,0.259c0.644,0,1.15-0.133,1.519-0.398
			c0.369-0.267,0.553-0.628,0.553-1.085s-0.175-0.814-0.525-1.071c-0.35-0.257-0.884-0.385-1.603-0.385h-0.896v-1.246l2.226-2.646
			h-4.452v-1.525h6.678v1.218l-2.38,2.828C89.882,211.628,90.573,211.936,91.049,212.44z"/>
		<path d="M94.871,215.366c0.214,0.215,0.322,0.495,0.322,0.84c0,0.149-0.021,0.307-0.063,0.47s-0.128,0.408-0.259,0.734
			l-0.714,1.975h-1.134l0.56-2.143c-0.206-0.084-0.367-0.217-0.483-0.398c-0.117-0.183-0.175-0.395-0.175-0.638
			c0-0.345,0.107-0.625,0.322-0.84c0.214-0.214,0.485-0.321,0.812-0.321C94.386,215.044,94.656,215.152,94.871,215.366z"/>
		<path d="M102.389,211.593c0.513,0.247,0.915,0.6,1.204,1.057c0.29,0.458,0.434,0.985,0.434,1.582c0,0.635-0.159,1.192-0.476,1.673
			c-0.317,0.481-0.747,0.852-1.288,1.113c-0.542,0.261-1.148,0.392-1.82,0.392c-1.344,0-2.387-0.42-3.129-1.26
			s-1.113-2.044-1.113-3.612c0-1.101,0.2-2.041,0.602-2.82s0.964-1.372,1.687-1.778c0.724-0.406,1.561-0.609,2.513-0.609
			c0.504,0,0.978,0.055,1.421,0.161c0.443,0.107,0.828,0.264,1.155,0.47l-0.672,1.371c-0.485-0.316-1.106-0.476-1.862-0.476
			c-0.943,0-1.68,0.289-2.212,0.868c-0.532,0.579-0.798,1.414-0.798,2.506v0.014c0.289-0.336,0.658-0.59,1.106-0.763
			c0.448-0.173,0.952-0.259,1.512-0.259C101.297,211.222,101.875,211.346,102.389,211.593z M101.731,215.527
			c0.354-0.303,0.532-0.707,0.532-1.211c0-0.513-0.178-0.919-0.532-1.218c-0.355-0.299-0.831-0.448-1.428-0.448
			c-0.588,0-1.066,0.159-1.435,0.477c-0.369,0.317-0.553,0.719-0.553,1.203c0,0.477,0.18,0.871,0.539,1.184s0.856,0.469,1.491,0.469
			C100.914,215.982,101.376,215.831,101.731,215.527z"/>
	</g>
	<g>
		<path d="M75.031,352.44v9.1h-0.949v-8.268h-4.394l-0.104,3.042c-0.043,1.256-0.146,2.269-0.306,3.035
			c-0.161,0.767-0.405,1.339-0.734,1.716c-0.33,0.377-0.767,0.565-1.313,0.565c-0.234,0-0.477-0.03-0.728-0.091l0.078-0.858
			c0.147,0.035,0.29,0.053,0.429,0.053c0.381,0,0.691-0.152,0.93-0.455c0.238-0.304,0.418-0.773,0.54-1.411
			c0.121-0.637,0.204-1.479,0.247-2.528l0.13-3.899H75.031z"/>
		<path d="M78.918,361.156c-0.529-0.299-0.945-0.713-1.248-1.241s-0.455-1.127-0.455-1.794s0.152-1.266,0.455-1.794
			s0.719-0.94,1.248-1.235c0.528-0.294,1.122-0.441,1.781-0.441s1.252,0.147,1.781,0.441c0.528,0.295,0.942,0.707,1.242,1.235
			c0.299,0.528,0.448,1.127,0.448,1.794s-0.149,1.266-0.448,1.794c-0.299,0.528-0.713,0.942-1.242,1.241
			c-0.529,0.299-1.123,0.449-1.781,0.449S79.447,361.455,78.918,361.156z M82.006,360.454c0.386-0.221,0.687-0.534,0.904-0.942
			c0.216-0.407,0.325-0.871,0.325-1.391c0-0.521-0.108-0.983-0.325-1.391c-0.217-0.407-0.518-0.722-0.904-0.943
			c-0.386-0.221-0.821-0.331-1.307-0.331s-0.921,0.11-1.306,0.331c-0.386,0.222-0.689,0.536-0.91,0.943s-0.332,0.87-0.332,1.391
			c0,0.52,0.11,0.983,0.332,1.391c0.221,0.408,0.524,0.722,0.91,0.942c0.385,0.222,0.821,0.332,1.306,0.332
			S81.62,360.675,82.006,360.454z"/>
		<path d="M92.776,360.734v2.457h-0.871v-1.651h-6.123v1.651h-0.871v-2.457h0.39c0.459-0.026,0.771-0.364,0.936-1.015
			c0.165-0.649,0.277-1.56,0.338-2.729l0.091-2.288h5.044v6.032H92.776z M87.173,359.44c-0.122,0.629-0.338,1.06-0.65,1.294h4.264
			v-5.213h-3.289l-0.078,1.521C87.377,358.012,87.295,358.812,87.173,359.44z"/>
		<path d="M100.563,358.498h-1.482v3.042h-0.923v-3.042h-1.482l-2.093,3.042h-1.105l2.457-3.523l-2.262-3.314h1.001l2.002,3.003
			h1.482v-3.003h0.923v3.003h1.482l2.015-3.003h1.001l-2.262,3.328l2.457,3.51h-1.105L100.563,358.498z"/>
		<path d="M105.308,354.702h0.923v5.434l4.563-5.434h0.819v6.838h-0.923v-5.434l-4.55,5.434h-0.832V354.702z"/>
		<path d="M119.504,354.702v6.838h-0.845v-2.262h-2.145h-0.26l-1.586,2.262h-1.001l1.703-2.392
			c-0.529-0.147-0.936-0.399-1.222-0.755c-0.286-0.354-0.429-0.806-0.429-1.352c0-0.763,0.26-1.343,0.78-1.742
			c0.52-0.398,1.23-0.598,2.132-0.598H119.504z M116.592,358.588h2.067v-3.067h-2.002c-1.334,0-2.002,0.516-2.002,1.547
			C114.655,358.082,115.3,358.588,116.592,358.588z"/>
		<path d="M73.22,373.509c0.476,0.504,0.714,1.134,0.714,1.89c0,0.57-0.145,1.088-0.434,1.555c-0.29,0.467-0.726,0.838-1.309,1.112
			c-0.583,0.275-1.295,0.413-2.135,0.413c-0.7,0-1.374-0.1-2.023-0.301c-0.648-0.2-1.202-0.479-1.659-0.833l0.784-1.414
			c0.355,0.299,0.786,0.534,1.295,0.707s1.034,0.259,1.575,0.259c0.644,0,1.15-0.133,1.519-0.398
			c0.369-0.267,0.553-0.628,0.553-1.085s-0.175-0.814-0.525-1.071c-0.35-0.257-0.884-0.385-1.603-0.385h-0.896v-1.246l2.226-2.646
			H66.85v-1.525h6.678v1.218l-2.38,2.828C72.054,372.698,72.744,373.005,73.22,373.509z"/>
		<path d="M77.042,376.435c0.214,0.215,0.322,0.495,0.322,0.84c0,0.149-0.021,0.307-0.063,0.47s-0.128,0.408-0.259,0.734
			l-0.714,1.975h-1.134l0.56-2.143c-0.206-0.084-0.367-0.217-0.483-0.398c-0.117-0.183-0.175-0.395-0.175-0.638
			c0-0.345,0.107-0.625,0.322-0.84c0.214-0.214,0.485-0.321,0.812-0.321C76.557,376.114,76.827,376.221,77.042,376.435z"/>
		<path d="M87.206,376.114h-1.736v2.226h-1.764v-2.226H78.33v-1.261l4.83-6.313h1.946l-4.55,6.034h3.206v-1.975h1.708v1.975h1.736
			V376.114z"/>
	</g>
	<g>
		<path d="M82.455,65.336c0.513,0.247,0.915,0.6,1.204,1.057c0.29,0.458,0.434,0.985,0.434,1.582c0,0.635-0.159,1.192-0.476,1.673
			c-0.317,0.481-0.747,0.852-1.288,1.113c-0.542,0.261-1.148,0.392-1.82,0.392c-1.344,0-2.387-0.42-3.129-1.26
			c-0.742-0.84-1.113-2.044-1.113-3.612c0-1.101,0.2-2.042,0.602-2.821c0.401-0.779,0.964-1.372,1.687-1.778
			c0.724-0.406,1.561-0.609,2.513-0.609c0.504,0,0.978,0.054,1.421,0.161s0.828,0.264,1.155,0.469l-0.672,1.372
			c-0.485-0.317-1.106-0.476-1.862-0.476c-0.943,0-1.68,0.29-2.212,0.868c-0.532,0.579-0.798,1.414-0.798,2.506v0.014
			c0.289-0.336,0.658-0.59,1.106-0.763c0.448-0.172,0.952-0.259,1.512-0.259C81.363,64.965,81.942,65.088,82.455,65.336z
			 M81.797,69.27c0.354-0.303,0.532-0.707,0.532-1.211c0-0.513-0.178-0.919-0.532-1.218c-0.355-0.299-0.831-0.448-1.428-0.448
			c-0.588,0-1.066,0.159-1.435,0.476c-0.369,0.317-0.553,0.719-0.553,1.204c0,0.476,0.18,0.87,0.539,1.183
			c0.359,0.313,0.856,0.469,1.491,0.469C80.98,69.725,81.442,69.573,81.797,69.27z"/>
		<path d="M87.103,69.109c0.214,0.215,0.322,0.495,0.322,0.84c0,0.149-0.021,0.306-0.063,0.469
			c-0.042,0.164-0.128,0.409-0.259,0.735l-0.714,1.974h-1.134l0.56-2.142c-0.206-0.084-0.367-0.217-0.483-0.399
			c-0.117-0.182-0.175-0.395-0.175-0.637c0-0.345,0.107-0.625,0.322-0.84c0.214-0.215,0.485-0.322,0.812-0.322
			C86.618,68.787,86.889,68.894,87.103,69.109z"/>
		<path d="M91.779,61.213v9.8h-1.82v-8.274h-2.072v-1.526H91.779z"/>
	</g>
	<g>
		<path d="M276.817,70.947h-1.736v2.226h-1.764v-2.226h-5.376v-1.26l4.83-6.314h1.946l-4.55,6.034h3.206v-1.974h1.708v1.974h1.736
			V70.947z"/>
		<path d="M279.785,71.27c0.214,0.215,0.322,0.495,0.322,0.84c0,0.149-0.021,0.306-0.063,0.469
			c-0.042,0.164-0.128,0.409-0.259,0.735l-0.714,1.974h-1.134l0.56-2.142c-0.206-0.084-0.367-0.217-0.483-0.399
			c-0.117-0.182-0.175-0.395-0.175-0.637c0-0.345,0.107-0.625,0.322-0.84c0.214-0.215,0.485-0.322,0.812-0.322
			C279.299,70.947,279.57,71.055,279.785,71.27z"/>
		<path d="M288.464,63.374v1.218l-3.808,8.582h-1.946l3.682-8.26h-3.85v1.666h-1.694v-3.206H288.464z"/>
	</g>
	<g>
		<path d="M184.654,71.293v1.54h-7.224v-1.218l3.892-3.696c0.439-0.42,0.735-0.786,0.889-1.099c0.154-0.313,0.231-0.623,0.231-0.931
			c0-0.458-0.154-0.807-0.462-1.05c-0.308-0.243-0.761-0.364-1.358-0.364c-0.999,0-1.764,0.341-2.296,1.022l-1.274-0.98
			c0.383-0.513,0.898-0.912,1.547-1.197c0.648-0.284,1.374-0.427,2.177-0.427c1.064,0,1.913,0.252,2.548,0.756
			s0.952,1.19,0.952,2.058c0,0.532-0.112,1.031-0.336,1.498s-0.653,0.999-1.288,1.596l-2.618,2.492H184.654z"/>
		<path d="M187.763,70.93c0.214,0.215,0.322,0.495,0.322,0.84c0,0.149-0.021,0.306-0.063,0.469
			c-0.042,0.164-0.128,0.409-0.259,0.735l-0.714,1.974h-1.134l0.56-2.142c-0.206-0.084-0.367-0.217-0.483-0.399
			c-0.117-0.182-0.175-0.395-0.175-0.637c0-0.345,0.107-0.625,0.322-0.84c0.214-0.215,0.485-0.322,0.812-0.322
			C187.277,70.607,187.548,70.715,187.763,70.93z"/>
		<path d="M195.392,67.632c0.663,0.537,0.994,1.267,0.994,2.191c0,0.588-0.145,1.12-0.434,1.596
			c-0.29,0.476-0.724,0.854-1.302,1.134c-0.579,0.28-1.292,0.42-2.142,0.42c-0.7,0-1.376-0.101-2.03-0.301s-1.204-0.478-1.652-0.833
			l0.77-1.414c0.364,0.299,0.8,0.535,1.309,0.707c0.508,0.173,1.033,0.259,1.575,0.259c0.644,0,1.15-0.133,1.519-0.399
			c0.369-0.266,0.553-0.632,0.553-1.099c0-0.504-0.199-0.884-0.595-1.141c-0.397-0.256-1.076-0.385-2.037-0.385h-2.366l0.504-5.334
			h5.754v1.526h-4.214l-0.21,2.268h0.938C193.707,66.828,194.729,67.096,195.392,67.632z"/>
	</g>
	<g>
		<path d="M249.595,124.933v1.218l-3.808,8.582h-1.946l3.682-8.26h-3.85v1.666h-1.694v-3.206H249.595z"/>
		<path d="M251.933,132.83c0.215,0.215,0.322,0.494,0.322,0.84c0,0.149-0.021,0.306-0.063,0.469s-0.128,0.408-0.259,0.735
			l-0.714,1.974h-1.134l0.56-2.142c-0.205-0.084-0.366-0.218-0.482-0.399c-0.117-0.182-0.176-0.395-0.176-0.637
			c0-0.346,0.107-0.625,0.322-0.84s0.485-0.322,0.813-0.322C251.448,132.507,251.718,132.615,251.933,132.83z"/>
		<path d="M259.563,129.532c0.663,0.537,0.994,1.268,0.994,2.191c0,0.588-0.145,1.12-0.434,1.596
			c-0.29,0.477-0.724,0.854-1.303,1.135c-0.578,0.279-1.292,0.42-2.142,0.42c-0.7,0-1.377-0.101-2.03-0.302
			c-0.653-0.2-1.204-0.478-1.651-0.833l0.77-1.414c0.364,0.299,0.8,0.535,1.31,0.707c0.508,0.173,1.033,0.26,1.574,0.26
			c0.645,0,1.15-0.134,1.52-0.399c0.368-0.266,0.553-0.632,0.553-1.099c0-0.504-0.198-0.885-0.595-1.142
			c-0.397-0.256-1.076-0.385-2.037-0.385h-2.366l0.504-5.334h5.754v1.526h-4.214l-0.21,2.268h0.938
			C257.878,128.727,258.9,128.996,259.563,129.532z"/>
	</g>
</g>
<g>
</g>
<g>
</g>
<g>
</g>
<g>
</g>
<g>
</g>
<g>
</g>
</svg>
