<?xml version="1.0" encoding="utf-8"?>
<!-- Generator: Adobe Illustrator 23.0.2, SVG Export Plug-In . SVG Version: 6.00 Build 0)  -->
<svg version="1.1" id="plan" xmlns="http://www.w3.org/2000/svg" xmlns:xlink="http://www.w3.org/1999/xlink" x="0px" y="0px"
	 viewBox="0 0 425 350" enable-background="new 0 0 425 350" xml:space="preserve">
<g id="back">
	<polygon fill-rule="evenodd" clip-rule="evenodd" fill="#FFFFFF" points="2.117,26.723 421,26.723 421,345.731 19.128,345.731 
		19.128,180.448 2.117,180.448 	"/>
</g>
<g id="walls">
	
		<rect x="233.079" y="26.723" fill="#828282" stroke="#000000" stroke-linecap="round" stroke-linejoin="round" stroke-miterlimit="10" width="187.921" height="10.695"/>
	
		<rect x="247.189" y="260.784" fill="#828282" stroke="#000000" stroke-linecap="round" stroke-linejoin="round" stroke-miterlimit="10" width="10.946" height="78.224"/>
	
		<rect x="409.694" y="271.785" fill="#828282" stroke="#000000" stroke-linecap="round" stroke-linejoin="round" stroke-miterlimit="10" width="9.167" height="62.64"/>
	
		<line fill="none" stroke="#000000" stroke-linecap="round" stroke-linejoin="round" stroke-miterlimit="10" x1="258.135" y1="339.009" x2="264.857" y2="339.009"/>
	
		<line fill="none" stroke="#000000" stroke-linecap="round" stroke-linejoin="round" stroke-miterlimit="10" x1="355.915" y1="271.785" x2="355.915" y2="268.423"/>
	<polyline fill="#828282" stroke="#000000" stroke-linecap="round" stroke-linejoin="round" stroke-miterlimit="10" points="
		421,193.56 421,271.785 407.555,271.785 407.555,193.56 421,193.56 	"/>
	<polyline fill="#828282" stroke="#000000" stroke-linecap="round" stroke-linejoin="round" stroke-miterlimit="10" points="
		421,193.56 407.555,193.56 407.555,37.418 421,37.418 421,193.56 	"/>
	
		<rect x="355.915" y="260.784" fill="#828282" stroke="#000000" stroke-linecap="round" stroke-linejoin="round" stroke-miterlimit="10" width="51.64" height="11"/>
	
		<rect x="353.776" y="271.785" fill="#828282" stroke="#000000" stroke-linecap="round" stroke-linejoin="round" stroke-miterlimit="10" width="55.918" height="6.722"/>
	<polygon fill="#828282" stroke="#000000" stroke-linecap="round" stroke-linejoin="round" stroke-miterlimit="10" points="
		258.135,339.009 264.857,339.009 264.857,278.507 273.107,278.507 273.107,271.785 258.135,271.785 	"/>
	
		<rect x="258.135" y="260.784" fill="#828282" stroke="#000000" stroke-linecap="round" stroke-linejoin="round" stroke-miterlimit="10" width="12.528" height="11"/>
	
		<rect x="19.128" y="26.723" fill="#828282" stroke="#000000" stroke-linecap="round" stroke-linejoin="round" stroke-miterlimit="10" width="168.81" height="10.695"/>
	<polyline fill="#828282" stroke="#000000" stroke-linecap="round" stroke-linejoin="round" stroke-miterlimit="10" points="
		180.194,339.009 180.194,328.008 162.174,328.008 162.174,339.009 	"/>
	
		<line fill="none" stroke="#000000" stroke-linecap="round" stroke-linejoin="round" stroke-miterlimit="10" x1="56.913" y1="328.314" x2="56.913" y2="335.953"/>
	
		<line fill="none" stroke="#000000" stroke-linecap="round" stroke-linejoin="round" stroke-miterlimit="10" x1="109.14" y1="339.009" x2="82.263" y2="339.009"/>
	
		<line fill="none" stroke="#000000" stroke-linecap="round" stroke-linejoin="round" stroke-miterlimit="10" x1="264.598" y1="339.009" x2="257.879" y2="339.009"/>
	
		<rect x="218.785" y="339.009" fill="#828282" stroke="#000000" stroke-linecap="round" stroke-linejoin="round" stroke-miterlimit="10" width="46.072" height="6.722"/>
	
		<rect x="160.036" y="339.009" fill="#828282" stroke="#000000" stroke-linecap="round" stroke-linejoin="round" stroke-miterlimit="10" width="22.296" height="6.722"/>
	
		<rect x="82.263" y="316.397" fill="#828282" stroke="#000000" stroke-linecap="round" stroke-linejoin="round" stroke-miterlimit="10" width="26.877" height="22.612"/>
	<g>
		
			<line fill="none" stroke="#000000" stroke-width="0.5" stroke-linecap="round" stroke-linejoin="round" stroke-miterlimit="10" x1="160.036" y1="345.731" x2="117.278" y2="345.731"/>
		<g>
			<g>
				
					<line fill="none" stroke="#000000" stroke-width="0.5" stroke-linecap="round" stroke-linejoin="round" stroke-miterlimit="10" x1="264.857" y1="345.731" x2="418.861" y2="345.731"/>
				
					<line fill="none" stroke="#000000" stroke-width="0.5" stroke-linecap="round" stroke-linejoin="round" stroke-miterlimit="10" x1="409.694" y1="329.842" x2="264.857" y2="329.842"/>
				
					<line fill="none" stroke="#000000" stroke-width="0.5" stroke-linecap="round" stroke-linejoin="round" stroke-miterlimit="10" x1="418.861" y1="329.842" x2="344.221" y2="329.842"/>
				
					<polyline fill="none" stroke="#000000" stroke-width="0.5" stroke-linecap="round" stroke-linejoin="round" stroke-miterlimit="10" points="
					418.861,337.175 267.312,337.175 267.312,336.259 418.861,336.259 				"/>
				
					<line fill="none" stroke="#000000" stroke-width="0.5" stroke-linecap="round" stroke-linejoin="round" stroke-miterlimit="10" x1="344.871" y1="334.425" x2="418.861" y2="334.425"/>
				
					<line fill="none" stroke="#000000" stroke-width="0.5" stroke-linecap="round" stroke-linejoin="round" stroke-miterlimit="10" x1="267.312" y1="334.425" x2="410.888" y2="334.425"/>
				
					<line fill="none" stroke="#000000" stroke-width="0.5" stroke-linecap="round" stroke-linejoin="round" stroke-miterlimit="10" x1="266.117" y1="339.009" x2="418.861" y2="339.009"/>
				
					<rect x="264.857" y="334.425" fill="none" stroke="#000000" stroke-width="0.5" stroke-linecap="round" stroke-linejoin="round" stroke-miterlimit="10" width="2.445" height="4.583"/>
				
					<line fill="none" stroke="#000000" stroke-width="0.5" stroke-linecap="round" stroke-linejoin="round" stroke-miterlimit="10" x1="418.861" y1="334.425" x2="418.861" y2="345.731"/>
			</g>
			<g>
				
					<rect x="270.663" y="268.423" transform="matrix(-1 -4.524304e-11 4.524304e-11 -1 545.9093 540.2079)" fill="none" stroke="#000000" stroke-width="0.5" stroke-linecap="round" stroke-linejoin="round" stroke-miterlimit="10" width="4.583" height="3.361"/>
				
					<polyline fill="none" stroke="#000000" stroke-width="0.5" stroke-linecap="round" stroke-linejoin="round" stroke-miterlimit="10" points="
					355.915,260.784 313.442,260.784 313.442,268.423 				"/>
				
					<polyline fill="none" stroke="#000000" stroke-width="0.5" stroke-linecap="round" stroke-linejoin="round" stroke-miterlimit="10" points="
					353.776,278.507 313.442,278.507 313.442,271.785 				"/>
				
					<line fill="none" stroke="#000000" stroke-width="0.5" stroke-linecap="round" stroke-linejoin="round" stroke-miterlimit="10" x1="355.915" y1="268.423" x2="310.997" y2="268.423"/>
				
					<line fill="none" stroke="#000000" stroke-width="0.5" stroke-linecap="round" stroke-linejoin="round" stroke-miterlimit="10" x1="273.107" y1="271.785" x2="273.107" y2="268.423"/>
				
					<line fill="none" stroke="#000000" stroke-width="0.5" stroke-linecap="round" stroke-linejoin="round" stroke-miterlimit="10" x1="353.776" y1="271.785" x2="353.776" y2="268.423"/>
				
					<line fill="none" stroke="#000000" stroke-width="0.5" stroke-linecap="round" stroke-linejoin="round" stroke-miterlimit="10" x1="351.637" y1="271.785" x2="351.637" y2="268.423"/>
				
					<line fill="none" stroke="#000000" stroke-width="0.5" stroke-linecap="round" stroke-linejoin="round" stroke-miterlimit="10" x1="315.581" y1="271.785" x2="315.581" y2="268.423"/>
				
					<line fill="none" stroke="#000000" stroke-width="0.5" stroke-linecap="round" stroke-linejoin="round" stroke-miterlimit="10" x1="313.442" y1="271.785" x2="313.442" y2="268.423"/>
				
					<line fill="none" stroke="#000000" stroke-width="0.5" stroke-linecap="round" stroke-linejoin="round" stroke-miterlimit="10" x1="310.997" y1="271.785" x2="310.997" y2="268.423"/>
				
					<polyline fill="none" stroke="#000000" stroke-width="0.5" stroke-linecap="round" stroke-linejoin="round" stroke-miterlimit="10" points="
					355.915,271.785 310.997,271.785 310.997,268.423 				"/>
			</g>
			<g>
				
					<path fill="none" stroke="#000000" stroke-width="0.5" stroke-linecap="round" stroke-linejoin="round" stroke-miterlimit="10" d="
					M180.194,328.008h47.034 M115.14,328.008h47.034"/>
				
					<line fill="none" stroke="#000000" stroke-width="0.5" stroke-linecap="round" stroke-linejoin="round" stroke-miterlimit="10" x1="224.785" y1="345.731" x2="182.332" y2="345.731"/>
				
					<line fill="none" stroke="#000000" stroke-width="0.5" stroke-linecap="round" stroke-linejoin="round" stroke-miterlimit="10" x1="115.14" y1="335.647" x2="162.174" y2="335.647"/>
				
					<line fill="none" stroke="#000000" stroke-width="0.5" stroke-linecap="round" stroke-linejoin="round" stroke-miterlimit="10" x1="160.037" y1="339.009" x2="160.037" y2="335.647"/>
				
					<line fill="none" stroke="#000000" stroke-width="0.5" stroke-linecap="round" stroke-linejoin="round" stroke-miterlimit="10" x1="117.278" y1="339.009" x2="117.278" y2="335.647"/>
				
					<line fill="none" stroke="#000000" stroke-width="0.5" stroke-linecap="round" stroke-linejoin="round" stroke-miterlimit="10" x1="119.721" y1="339.009" x2="119.721" y2="335.647"/>
				
					<line fill="none" stroke="#000000" stroke-width="0.5" stroke-linecap="round" stroke-linejoin="round" stroke-miterlimit="10" x1="157.593" y1="339.009" x2="157.593" y2="335.647"/>
				
					<polyline fill="none" stroke="#000000" stroke-width="0.5" stroke-linecap="round" stroke-linejoin="round" stroke-miterlimit="10" points="
					115.14,339.009 162.174,339.009 162.174,335.647 				"/>
				
					<path fill="none" stroke="#000000" stroke-width="0.5" stroke-linecap="round" stroke-linejoin="round" stroke-miterlimit="10" d="
					M180.194,335.647h47.034 M224.785,339.009v-3.361 M182.332,339.009v-3.361 M184.47,339.009v-3.361 M222.647,339.009v-3.361
					 M115.14,339.009v-3.361"/>
				
					<polyline fill="none" stroke="#000000" stroke-width="0.5" stroke-linecap="round" stroke-linejoin="round" stroke-miterlimit="10" points="
					180.194,339.009 227.229,339.009 227.229,335.647 				"/>
			</g>
		</g>
	</g>
	<polyline fill="#828282" stroke="#000000" stroke-linecap="round" stroke-linejoin="round" stroke-miterlimit="10" points="
		19.265,345.731 117.278,345.731 117.278,339.008 19.265,339.008 19.265,345.731 	"/>
	<polygon fill="#828282" stroke="#000000" stroke-linecap="round" stroke-linejoin="round" stroke-miterlimit="10" points="
		19.265,338.595 19.265,328.247 19.265,327.833 82.263,327.833 82.263,339.008 19.265,339.008 	"/>
	
		<rect x="221.228" y="328.008" fill="#828282" stroke="#000000" stroke-linecap="round" stroke-linejoin="round" stroke-miterlimit="10" width="25.961" height="11"/>
	<g>
		
			<line fill="none" stroke="#000000" stroke-width="1.5" stroke-linecap="round" stroke-linejoin="round" stroke-miterlimit="10" x1="232.844" y1="26.718" x2="194.037" y2="4.411"/>
		
			<line fill="none" stroke="#000000" stroke-width="1.5" stroke-linecap="round" stroke-linejoin="round" stroke-miterlimit="10" x1="275.246" y1="268.423" x2="306.414" y2="250.701"/>
		
			<line fill="none" stroke="#000000" stroke-width="1.5" stroke-linecap="round" stroke-linejoin="round" stroke-miterlimit="10" x1="176.416" y1="171.535" x2="141.293" y2="191.702"/>
		
			<path fill="none" stroke="#000000" stroke-width="1.5" stroke-linecap="round" stroke-linejoin="round" stroke-miterlimit="10" d="
			M175.947,74.04l15.589,22.832 M104.941,127.744l14.121,29.795"/>
	</g>
	<polygon fill="#828282" stroke="#000000" stroke-linecap="round" stroke-linejoin="round" stroke-miterlimit="10" points="
		19.265,180.449 19.265,260.77 19.265,269.737 19.265,327.833 32.905,327.833 32.905,166.802 27.63,166.802 27.63,121.963 
		27.63,37.354 19.265,37.354 	"/>
	<g>
		<polygon fill="#C7C7C7" stroke="#000000" stroke-linecap="round" stroke-linejoin="round" stroke-miterlimit="10" points="
			275.421,119.251 275.421,37.418 279.086,37.418 279.086,123.133 248.416,123.133 248.416,119.251 		"/>
		<polygon fill="#C7C7C7" stroke="#000000" stroke-linecap="round" stroke-linejoin="round" stroke-miterlimit="10" points="
			251.77,260.784 251.77,166.802 176.416,166.802 176.416,171.63 247.189,171.63 247.189,260.784 		"/>
		
			<rect x="248.293" y="37.418" fill="#C7C7C7" stroke="#000000" stroke-linecap="round" stroke-linejoin="round" stroke-miterlimit="10" width="2.138" height="33.489"/>
		
			<rect x="250.698" y="68.769" fill="#C7C7C7" stroke="#000000" stroke-linecap="round" stroke-linejoin="round" stroke-miterlimit="10" width="24.635" height="2.138"/>
		
			<rect x="171.271" y="37.354" fill="#C7C7C7" stroke="#000000" stroke-linecap="round" stroke-linejoin="round" stroke-miterlimit="10" width="4.677" height="36.117"/>
		
			<rect x="105.941" y="49.834" fill="#C7C7C7" stroke="#000000" stroke-linecap="round" stroke-linejoin="round" stroke-miterlimit="10" width="29.483" height="4.677"/>
		
			<rect x="130.748" y="37.354" fill="#C7C7C7" stroke="#000000" stroke-linecap="round" stroke-linejoin="round" stroke-miterlimit="10" width="4.677" height="12.48"/>
		
			<rect x="171.271" y="104.574" fill="#C7C7C7" stroke="#000000" stroke-linecap="round" stroke-linejoin="round" stroke-miterlimit="10" width="4.677" height="13.432"/>
		<polygon fill="#C7C7C7" stroke="#000000" stroke-linecap="round" stroke-linejoin="round" stroke-miterlimit="10" points="
			28.081,37.354 28.081,166.963 32.758,166.963 105.599,166.963 105.599,158.674 101.312,158.674 101.312,162.674 31.978,162.674 
			31.978,40.863 101.312,40.863 101.312,127.201 105.599,127.201 105.599,121.963 175.947,121.963 175.947,117.674 105.599,117.674 
			105.599,37.354 		"/>
		
			<rect x="32.905" y="166.802" fill="#C7C7C7" stroke="#000000" stroke-linecap="round" stroke-linejoin="round" stroke-miterlimit="10" width="102.781" height="4.679"/>
		<polyline fill="none" stroke="#000000" stroke-linecap="round" stroke-linejoin="round" stroke-miterlimit="10" points="
			101.312,121.554 90.569,121.554 90.569,111.29 101.312,111.29 		"/>
	</g>
	
		<rect x="109.14" y="328.008" fill="#828282" stroke="#000000" stroke-linecap="round" stroke-linejoin="round" stroke-miterlimit="10" width="6" height="11"/>
</g>
<g id="furniture">
	<polygon fill="#F3F3F3" stroke="#595959" stroke-width="0.5" stroke-miterlimit="10" points="373.934,65.235 373.934,38.337 
		279.863,38.337 279.863,65.235 	"/>
	<g>
		<path fill-rule="evenodd" clip-rule="evenodd" fill="#F3F3F3" stroke="#595959" stroke-width="0.5" stroke-miterlimit="10" d="
			M50.15,59.463c1.016,0,1.801-1.036,1.847-2.236c0-1.145-0.831-2.127-1.847-2.127c-1.016,0-1.755,0.982-1.755,2.127
			C48.395,58.482,49.134,59.463,50.15,59.463z"/>
		<path fill-rule="evenodd" clip-rule="evenodd" fill="#F3F3F3" stroke="#595959" stroke-width="0.5" stroke-miterlimit="10" d="
			M50.15,59.463c1.016,0,1.801-1.036,1.847-2.236c0-1.145-0.831-2.127-1.847-2.127c-1.016,0-1.755,0.982-1.755,2.127
			C48.395,58.482,49.134,59.463,50.15,59.463z"/>
		
			<polygon fill-rule="evenodd" clip-rule="evenodd" fill="#F3F3F3" stroke="#595959" stroke-width="0.5" stroke-miterlimit="10" points="
			33.263,72.917 33.263,41.647 100.047,41.647 100.047,72.917 33.263,72.917 		"/>
		<path fill-rule="evenodd" clip-rule="evenodd" fill="#F3F3F3" stroke="#595959" stroke-width="0.5" stroke-miterlimit="10" d="
			M44.118,44.242l0,26.078c0,0,43.143,0,43.411,0c7.378,0,8.614-4.593,8.614-10.205l0-5.667c0-5.613-1.236-10.206-8.614-10.206
			C87.261,44.242,44.118,44.242,44.118,44.242L44.118,44.242z"/>
		<path fill-rule="evenodd" clip-rule="evenodd" fill="#F3F3F3" stroke="#595959" stroke-width="0.5" stroke-miterlimit="10" d="
			M40.358,47.849c0.808,0,1.48,0.752,1.48,1.68c0,0.796-0.449,1.503-1.122,1.68v2.343c0,0.265-0.179,0.442-0.449,0.442
			c-0.314,0-0.493-0.177-0.493-0.442v-2.431c-0.539-0.265-0.942-0.884-0.942-1.592C38.877,48.601,39.55,47.849,40.358,47.849
			L40.358,47.849z"/>
		
			<polyline fill-rule="evenodd" clip-rule="evenodd" fill="#F3F3F3" stroke="#595959" stroke-width="0.5" stroke-miterlimit="10" points="
			40.268,53.774 40.223,64.472 42.915,64.472 42.915,57.62 		"/>
		<path fill-rule="evenodd" clip-rule="evenodd" fill="#F3F3F3" stroke="#595959" stroke-width="0.5" stroke-miterlimit="10" d="
			M42.237,56.321h5.424h0.046v1.495h-0.046h-5.424c-0.365,0-0.684-0.338-0.684-0.723C41.553,56.658,41.872,56.321,42.237,56.321z"/>
		<path fill-rule="evenodd" clip-rule="evenodd" fill="#F3F3F3" stroke="#595959" stroke-width="0.5" stroke-miterlimit="10" d="
			M42.237,56.321h5.424h0.046v1.495h-0.046h-5.424c-0.365,0-0.684-0.338-0.684-0.723C41.553,56.658,41.872,56.321,42.237,56.321z"/>
	</g>
	<g>
		<path fill-rule="evenodd" clip-rule="evenodd" fill="#F3F3F3" stroke="#595959" stroke-width="0.5" stroke-miterlimit="10" d="
			M114.887,63.092c1.99-0.702,4.332-1.172,6.849-1.172c8.078,0,14.576,4.217,14.576,9.9c0,5.623-6.498,9.899-14.576,9.899
			c-2.459,0-4.8-0.469-6.849-1.23V63.092z"/>
		<path fill-rule="evenodd" clip-rule="evenodd" fill="#F3F3F3" stroke="#595959" stroke-width="0.5" stroke-miterlimit="10" d="
			M105.941,62.85h5.111c1.188,0,2.139,0.938,2.139,2.053v13.369c0.059,1.114-0.892,2.053-2.139,2.053h-5.111V62.85z"/>
		<path fill-rule="evenodd" clip-rule="evenodd" fill="#F3F3F3" stroke="#595959" stroke-width="0.5" stroke-miterlimit="10" d="
			M109.565,69.53c-1.091,0-1.94,0.909-1.94,2c0,1.091,0.909,1.94,1.94,1.94c1.151,0,2-0.91,2-1.94
			C111.565,70.379,110.717,69.53,109.565,69.53z"/>
		<path fill-rule="evenodd" clip-rule="evenodd" fill="#F3F3F3" stroke="#595959" stroke-width="0.5" stroke-miterlimit="10" d="
			M113.991,80.441h0.896V63.092c0.191-0.067,0.399-0.121,0.597-0.184h-1.493c-0.483,0-0.846,0.41-0.846,0.762v15.95
			C113.145,80.088,113.508,80.441,113.991,80.441z"/>
	</g>
	<g>
		
			<rect x="32.467" y="136.711" fill-rule="evenodd" clip-rule="evenodd" fill="#F3F3F3" stroke="#595959" stroke-width="0.5" stroke-miterlimit="10" width="24.873" height="24.92"/>
		<path fill-rule="evenodd" clip-rule="evenodd" fill="#F3F3F3" stroke="#595959" stroke-width="0.5" stroke-miterlimit="10" d="
			M35.844,159.036c0.843,0,1.536-0.693,1.536-1.535c0-0.891-0.693-1.584-1.536-1.584c-0.842,0-1.536,0.693-1.536,1.584
			C34.308,158.343,35.002,159.036,35.844,159.036z"/>
		<path fill-rule="evenodd" clip-rule="evenodd" fill="#F3F3F3" stroke="#595959" stroke-width="0.5" stroke-miterlimit="10" d="
			M35.871,159.036c0.827,0,1.508-0.666,1.508-1.473c0-0.855-0.681-1.521-1.508-1.521c-0.827,0-1.508,0.666-1.508,1.521
			C34.363,158.371,35.044,159.036,35.871,159.036L35.871,159.036z M32.514,138.788h2.53c0.584,0,1.022,0.523,1.022,1.093v7.035
			c0,0.57-0.438,1.093-1.022,1.093h-2.53V138.788z"/>
		<path fill-rule="evenodd" clip-rule="evenodd" fill="#F3F3F3" stroke="#595959" stroke-width="0.5" stroke-miterlimit="10" d="
			M45.565,155.969c3.721,0,6.774-3.005,6.774-6.774c0-3.722-3.053-6.727-6.774-6.727c-3.721,0-6.774,3.005-6.774,6.727
			C38.791,153.012,41.844,155.969,45.565,155.969z"/>
		<path fill-rule="evenodd" clip-rule="evenodd" fill="#F3F3F3" stroke="#595959" stroke-width="0.5" stroke-miterlimit="10" d="
			M45.565,155.969c3.721,0,6.774-3.005,6.774-6.774c0-3.722-3.053-6.727-6.774-6.727c-3.721,0-6.774,3.005-6.774,6.727
			C38.791,153.012,41.844,155.969,45.565,155.969z"/>
		<path fill-rule="evenodd" clip-rule="evenodd" fill="#F3F3F3" stroke="#595959" stroke-width="0.5" stroke-miterlimit="10" d="
			M45.565,154.176c2.777,0,4.98-2.203,4.98-4.98c0-2.73-2.203-4.981-4.98-4.981c-2.73,0-4.98,2.299-4.98,4.981
			C40.584,151.973,42.835,154.176,45.565,154.176z"/>
		<path fill-rule="evenodd" clip-rule="evenodd" fill="#F3F3F3" stroke="#595959" stroke-width="0.5" stroke-miterlimit="10" d="
			M45.565,154.176c2.777,0,4.98-2.203,4.98-4.98c0-2.73-2.203-4.981-4.98-4.981c-2.73,0-4.98,2.299-4.98,4.981
			C40.584,151.973,42.835,154.176,45.565,154.176z"/>
	</g>
	<g>
		
			<rect x="379.755" y="38.607" fill-rule="evenodd" clip-rule="evenodd" fill="#F3F3F3" stroke="#595959" stroke-width="0.5" stroke-miterlimit="10" width="23.456" height="1.642"/>
		
			<rect x="379.755" y="38.607" fill-rule="evenodd" clip-rule="evenodd" fill="#F3F3F3" stroke="#595959" stroke-width="0.5" stroke-miterlimit="10" width="23.456" height="1.642"/>
		
			<rect x="395.705" y="64.574" fill-rule="evenodd" clip-rule="evenodd" fill="#F3F3F3" stroke="#595959" stroke-width="0.5" stroke-miterlimit="10" width="7.712" height="2.251"/>
		
			<rect x="395.705" y="64.574" fill-rule="evenodd" clip-rule="evenodd" fill="#F3F3F3" stroke="#595959" stroke-width="0.5" stroke-miterlimit="10" width="7.712" height="2.251"/>
		
			<rect x="378.678" y="40.078" fill-rule="evenodd" clip-rule="evenodd" fill="#F3F3F3" stroke="#595959" stroke-width="0.5" stroke-miterlimit="10" width="25.764" height="25.428"/>
		
			<rect x="378.678" y="40.078" fill-rule="evenodd" clip-rule="evenodd" fill="#F3F3F3" stroke="#595959" stroke-width="0.5" stroke-miterlimit="10" width="25.764" height="25.428"/>
		<path fill-rule="evenodd" clip-rule="evenodd" fill="#F3F3F3" stroke="#595959" stroke-width="0.5" stroke-miterlimit="10" d="
			M378.678,63.224l25.764,0L378.678,63.224z"/>
		<path fill-rule="evenodd" clip-rule="evenodd" fill="#F3F3F3" stroke="#595959" stroke-width="0.5" stroke-miterlimit="10" d="
			M377.447,63.134c0-0.497,0.449-0.994,1.009-0.994c0.617,0,1.01,0.497,1.01,0.994c0,0.608-0.449,1.104-1.01,1.104
			C377.896,64.238,377.447,63.741,377.447,63.134z"/>
		<path fill-rule="evenodd" clip-rule="evenodd" fill="#F3F3F3" stroke="#595959" stroke-width="0.5" stroke-miterlimit="10" d="
			M377.447,63.134c0-0.497,0.449-0.994,1.009-0.994c0.617,0,1.01,0.497,1.01,0.994c0,0.608-0.449,1.104-1.01,1.104
			C377.896,64.238,377.447,63.741,377.447,63.134z"/>
		<path fill-rule="evenodd" clip-rule="evenodd" fill="#F3F3F3" stroke="#595959" stroke-width="0.5" stroke-miterlimit="10" d="
			M391.699,50.12v4.482V50.12z"/>
		<path fill-rule="evenodd" clip-rule="evenodd" fill="#F3F3F3" stroke="#595959" stroke-width="0.5" stroke-miterlimit="10" d="
			M389.499,52.314l4.532,0L389.499,52.314z"/>
		<path fill-rule="evenodd" clip-rule="evenodd" fill="#F3F3F3" stroke="#595959" stroke-width="0.5" stroke-miterlimit="10" d="
			M390.115,53.993l3.301-3.265L390.115,53.993z"/>
		<path fill-rule="evenodd" clip-rule="evenodd" fill="#F3F3F3" stroke="#595959" stroke-width="0.5" stroke-miterlimit="10" d="
			M393.364,53.993l-3.301-3.265L393.364,53.993z"/>
		<path fill-rule="evenodd" clip-rule="evenodd" fill="#F3F3F3" stroke="#595959" stroke-width="0.5" stroke-miterlimit="10" d="
			M385.03,49.968v4.481V49.968z"/>
		<path fill-rule="evenodd" clip-rule="evenodd" fill="#F3F3F3" stroke="#595959" stroke-width="0.5" stroke-miterlimit="10" d="
			M382.781,52.162l4.532,0L382.781,52.162z"/>
		<path fill-rule="evenodd" clip-rule="evenodd" fill="#F3F3F3" stroke="#595959" stroke-width="0.5" stroke-miterlimit="10" d="
			M383.448,53.841l3.301-3.265L383.448,53.841z"/>
		<path fill-rule="evenodd" clip-rule="evenodd" fill="#F3F3F3" stroke="#595959" stroke-width="0.5" stroke-miterlimit="10" d="
			M386.698,53.841l-3.301-3.265L386.698,53.841z"/>
		<path fill-rule="evenodd" clip-rule="evenodd" fill="#F3F3F3" stroke="#595959" stroke-width="0.5" stroke-miterlimit="10" d="
			M398.214,50.12v4.482V50.12z"/>
		<path fill-rule="evenodd" clip-rule="evenodd" fill="#F3F3F3" stroke="#595959" stroke-width="0.5" stroke-miterlimit="10" d="
			M396.012,52.314l4.532,0L396.012,52.314z"/>
		<path fill-rule="evenodd" clip-rule="evenodd" fill="#F3F3F3" stroke="#595959" stroke-width="0.5" stroke-miterlimit="10" d="
			M396.628,53.993l3.301-3.265L396.628,53.993z"/>
		<path fill-rule="evenodd" clip-rule="evenodd" fill="#F3F3F3" stroke="#595959" stroke-width="0.5" stroke-miterlimit="10" d="
			M399.878,53.993l-3.301-3.265L399.878,53.993z"/>
	</g>
	<g>
		
			<rect x="219.621" y="263.077" transform="matrix(-4.490382e-11 1 -1 -4.490382e-11 509.2525 25.4506)" fill-rule="evenodd" clip-rule="evenodd" fill="#F3F3F3" stroke="#595959" stroke-width="0.5" stroke-miterlimit="10" width="44.56" height="8.55"/>
		<g>
			
				<rect x="240.367" y="252.497" fill-rule="evenodd" clip-rule="evenodd" fill="#F3F3F3" stroke="#595959" stroke-width="0.5" stroke-miterlimit="10" width="1.671" height="29.678"/>
			
				<polygon fill-rule="evenodd" clip-rule="evenodd" fill="#F3F3F3" stroke="#595959" stroke-width="0.5" stroke-miterlimit="10" points="
				241.961,255.015 243.337,259.784 243.337,274.858 241.961,279.628 			"/>
			
				<rect x="243.337" y="264.792" fill-rule="evenodd" clip-rule="evenodd" fill="#F3F3F3" stroke="#595959" stroke-width="0.5" stroke-miterlimit="10" width="1.458" height="5.058"/>
		</g>
	</g>
	<g>
		<g>
			
				<rect x="34.076" y="236.017" fill-rule="evenodd" clip-rule="evenodd" fill="#F3F3F3" stroke="#595959" stroke-width="0.5" stroke-miterlimit="10" width="80.37" height="62.385"/>
			
				<rect x="37.283" y="237.417" fill-rule="evenodd" clip-rule="evenodd" fill="#F3F3F3" stroke="#595959" stroke-width="0.5" stroke-miterlimit="10" width="74.913" height="59.519"/>
			
				<rect x="39.217" y="272.05" fill-rule="evenodd" clip-rule="evenodd" fill="#F3F3F3" stroke="#595959" stroke-width="0.5" stroke-miterlimit="10" width="16.9" height="23.123"/>
			
				<rect x="39.217" y="239.351" fill-rule="evenodd" clip-rule="evenodd" fill="#F3F3F3" stroke="#595959" stroke-width="0.5" stroke-miterlimit="10" width="16.9" height="23.123"/>
			
				<polygon fill-rule="evenodd" clip-rule="evenodd" fill="#F3F3F3" stroke="#595959" stroke-width="0.5" stroke-miterlimit="10" points="
				64.744,296.936 54.405,279.18 54.405,255.173 54.405,279.18 54.405,255.173 64.744,237.417 112.196,237.417 112.196,237.482 
				112.196,296.936 			"/>
			
				<polyline fill-rule="evenodd" clip-rule="evenodd" fill="#F3F3F3" stroke="#595959" stroke-width="0.5" stroke-miterlimit="10" points="
				64.744,296.936 72.287,284.475 54.405,279.18 			"/>
			
				<line fill-rule="evenodd" clip-rule="evenodd" fill="#F3F3F3" stroke="#595959" stroke-width="0.5" stroke-miterlimit="10" x1="54.405" y1="279.18" x2="64.744" y2="296.936"/>
			
				<polyline fill-rule="evenodd" clip-rule="evenodd" fill="#F3F3F3" stroke="#595959" stroke-width="0.5" stroke-miterlimit="10" points="
				64.744,237.417 72.287,249.877 54.405,255.173 			"/>
			
				<line fill-rule="evenodd" clip-rule="evenodd" fill="#F3F3F3" stroke="#595959" stroke-width="0.5" stroke-miterlimit="10" x1="54.405" y1="255.173" x2="64.744" y2="237.417"/>
		</g>
		<g>
			
				<rect x="31.074" y="215.9" transform="matrix(8.972029e-11 -1 1 8.972029e-11 -181.8246 265.9285)" fill="#F3F3F3" stroke="#595959" stroke-width="0.5" stroke-miterlimit="10" width="21.957" height="15.952"/>
			
				<rect x="45.945" y="223.443" transform="matrix(8.950891e-11 -1 1 8.950891e-11 -173.4146 274.51)" fill="#F3F3F3" stroke="#595959" stroke-width="0.5" stroke-miterlimit="10" width="9.206" height="1.039"/>
		</g>
		<g>
			
				<rect x="31.074" y="302.626" transform="matrix(8.980378e-11 -1 1 8.980378e-11 -268.5497 352.6537)" fill="#F3F3F3" stroke="#595959" stroke-width="0.5" stroke-miterlimit="10" width="21.957" height="15.952"/>
			
				<rect x="45.945" y="310.168" transform="matrix(8.990415e-11 -1 1 8.990415e-11 -260.1397 361.2352)" fill="#F3F3F3" stroke="#595959" stroke-width="0.5" stroke-miterlimit="10" width="9.206" height="1.039"/>
		</g>
	</g>
	<g>
		<path fill-rule="evenodd" clip-rule="evenodd" fill="#F3F3F3" stroke="#595959" stroke-width="0.5" stroke-miterlimit="10" d="
			M36.179,90.767h0.87H36.179z"/>
		
			<line fill-rule="evenodd" clip-rule="evenodd" fill="#F3F3F3" stroke="#595959" stroke-width="0.5" stroke-miterlimit="10" x1="36.179" y1="90.767" x2="37.049" y2="90.767"/>
		<path fill-rule="evenodd" clip-rule="evenodd" fill="#F3F3F3" stroke="#595959" stroke-width="0.5" stroke-miterlimit="10" d="
			M42.578,90.102h-0.051h-5.682c-0.41,0-0.717,0.358-0.717,0.717c0,0.41,0.307,0.716,0.717,0.716h5.682h0.051V90.102z"/>
		
			<rect x="33.363" y="77.815" fill-rule="evenodd" clip-rule="evenodd" fill="#F3F3F3" stroke="#595959" stroke-width="0.5" stroke-miterlimit="10" width="3.737" height="25.956"/>
		<path fill-rule="evenodd" clip-rule="evenodd" fill="#F3F3F3" stroke="#595959" stroke-width="0.5" stroke-miterlimit="10" d="
			M36.179,103.72V77.867V103.72z"/>
		<path fill-rule="evenodd" clip-rule="evenodd" fill="#F3F3F3" stroke="#595959" stroke-width="0.5" stroke-miterlimit="10" d="
			M37.101,103.771h13.054c0.666,0,1.228-0.461,1.228-1.127V78.89c0-0.563-0.563-1.075-1.228-1.075H37.101V103.771z"/>
		<path fill-rule="evenodd" clip-rule="evenodd" fill="#F3F3F3" stroke="#595959" stroke-width="0.5" stroke-miterlimit="10" d="
			M39.199,90.716c0,4.812,2.457,8.754,5.478,8.806c3.072,0.051,5.529-3.737,5.58-8.601c0-4.812-2.406-8.754-5.478-8.805
			C41.759,82.064,39.25,85.955,39.199,90.716z"/>
		<path fill-rule="evenodd" clip-rule="evenodd" fill="#F3F3F3" stroke="#595959" stroke-width="0.5" stroke-miterlimit="10" d="
			M44.831,92.252c0.819,0,1.485-0.666,1.485-1.485c0-0.767-0.666-1.382-1.485-1.382c-0.819,0-1.433,0.615-1.433,1.382
			C43.449,91.587,44.062,92.252,44.831,92.252z"/>
		<path fill-rule="evenodd" clip-rule="evenodd" fill="#F3F3F3" stroke="#595959" stroke-width="0.5" stroke-miterlimit="10" d="
			M42.578,90.102h-0.051h-5.682c-0.41,0-0.717,0.358-0.717,0.717c0,0.41,0.307,0.716,0.717,0.716h5.682h0.051V90.102z"/>
	</g>
	<g>
		
			<rect x="33.984" y="172.484" transform="matrix(-1 -4.485890e-11 4.485890e-11 -1 150.0791 373.3116)" fill-rule="evenodd" clip-rule="evenodd" fill="#F3F3F3" stroke="#595959" stroke-width="0.5" stroke-miterlimit="10" width="82.112" height="28.343"/>
		
			<line fill="#F3F3F3" stroke="#595959" stroke-width="0.5" stroke-miterlimit="10" x1="113.124" y1="200.827" x2="113.124" y2="172.435"/>
		
			<line fill="#F3F3F3" stroke="#595959" stroke-width="0.5" stroke-miterlimit="10" x1="37.043" y1="200.827" x2="37.043" y2="172.484"/>
		
			<line fill="#F3F3F3" stroke="#595959" stroke-width="0.5" stroke-miterlimit="10" x1="113.124" y1="173.792" x2="37.043" y2="173.792"/>
		
			<line fill="#F3F3F3" stroke="#595959" stroke-width="0.5" stroke-miterlimit="10" x1="39.694" y1="186.859" x2="110.475" y2="186.859"/>
		
			<rect x="105.912" y="178.071" transform="matrix(-0.9868 -0.162 0.162 -0.9868 181.9474 388.2565)" fill="#F3F3F3" stroke="#595959" stroke-width="0.5" stroke-miterlimit="10" width="1.775" height="17.282"/>
		
			<rect x="99.55" y="178.071" transform="matrix(-0.9961 -0.0882 0.0882 -0.9961 184.0262 381.5508)" fill="#F3F3F3" stroke="#595959" stroke-width="0.5" stroke-miterlimit="10" width="1.775" height="17.282"/>
		
			<rect x="93.11" y="178.218" transform="matrix(-0.9734 -0.229 0.229 -0.9734 142.7067 390.279)" fill="#F3F3F3" stroke="#595959" stroke-width="0.5" stroke-miterlimit="10" width="1.775" height="17.282"/>
		
			<rect x="85.924" y="178.026" transform="matrix(-0.9884 -0.152 0.152 -0.9884 144.2322 384.3622)" fill="#F3F3F3" stroke="#595959" stroke-width="0.5" stroke-miterlimit="10" width="1.775" height="17.282"/>
		
			<rect x="79.656" y="178.122" transform="matrix(-0.999 -0.0451 0.0451 -0.999 152.5797 376.9695)" fill="#F3F3F3" stroke="#595959" stroke-width="0.5" stroke-miterlimit="10" width="1.775" height="17.282"/>
		
			<rect x="73.311" y="178.122" transform="matrix(-0.9884 -0.152 0.152 -0.9884 119.1384 382.6361)" fill="#F3F3F3" stroke="#595959" stroke-width="0.5" stroke-miterlimit="10" width="1.775" height="17.282"/>
		
			<rect x="66.868" y="178.218" transform="matrix(-0.999 -0.0451 0.0451 -0.999 127.012 376.5853)" fill="#F3F3F3" stroke="#595959" stroke-width="0.5" stroke-miterlimit="10" width="1.775" height="17.282"/>
		
			<rect x="60.55" y="178.218" transform="matrix(-0.9787 -0.2052 0.2052 -0.9787 83.2314 382.3488)" fill="#F3F3F3" stroke="#595959" stroke-width="0.5" stroke-miterlimit="10" width="1.775" height="17.282"/>
		
			<rect x="54.233" y="178.2" transform="matrix(-0.9884 -0.152 0.152 -0.9884 81.1921 379.8912)" fill="#F3F3F3" stroke="#595959" stroke-width="0.5" stroke-miterlimit="10" width="1.775" height="17.282"/>
		
			<rect x="47.915" y="178.218" transform="matrix(-0.9964 -0.0847 0.0847 -0.9964 81.5958 377.1823)" fill="#F3F3F3" stroke="#595959" stroke-width="0.5" stroke-miterlimit="10" width="1.775" height="17.282"/>
		
			<rect x="41.598" y="178.008" transform="matrix(-0.9713 -0.2379 0.2379 -0.9713 39.3429 378.0457)" fill="#F3F3F3" stroke="#595959" stroke-width="0.5" stroke-miterlimit="10" width="1.775" height="17.282"/>
	</g>
	<path fill-rule="evenodd" clip-rule="evenodd" fill="#F3F3F3" stroke="#595959" stroke-width="0.5" stroke-miterlimit="10" d="
		M310.756,62.607h-22.289c-0.997,0-1.781-1.03-1.781-2.295V43.26c0-1.265,0.784-2.295,1.781-2.295h22.289
		c0.926,0,1.745,1.031,1.745,2.295v17.052C312.501,61.577,311.682,62.607,310.756,62.607L310.756,62.607z M298.322,53.353
		c0-0.562,0.441-0.984,1.031-0.984c0.589,0,1.08,0.422,1.08,0.984c0,0.562-0.492,1.031-1.08,1.031
		C298.763,54.383,298.322,53.915,298.322,53.353z M309.123,61.024h-19.029c-0.851,0-1.52-0.762-1.52-1.697V46.716
		c0-0.935,0.669-1.697,1.52-1.697h19.029c0.79,0,1.49,0.762,1.49,1.697v12.611C310.613,60.262,309.914,61.024,309.123,61.024
		L309.123,61.024z M298.637,48.88v-5.43h1.696v5.43H298.637z"/>
	<g>
		
			<rect x="331.223" y="38.338" fill-rule="evenodd" clip-rule="evenodd" fill="#F3F3F3" stroke="#595959" stroke-width="0.5" stroke-miterlimit="10" width="27.099" height="26.9"/>
		
			<rect x="331.223" y="38.338" fill-rule="evenodd" clip-rule="evenodd" fill="#F3F3F3" stroke="#595959" stroke-width="0.5" stroke-miterlimit="10" width="27.099" height="26.9"/>
		<path fill-rule="evenodd" clip-rule="evenodd" fill="#F3F3F3" stroke="#595959" stroke-width="0.5" stroke-miterlimit="10" d="
			M346.12,44.701c0,2.578,2.085,4.692,4.744,4.692c2.607,0,4.745-2.114,4.745-4.692c0-2.578-2.138-4.692-4.745-4.692
			C348.153,39.957,346.12,42.123,346.12,44.701z"/>
		<path fill-rule="evenodd" clip-rule="evenodd" fill="#F3F3F3" stroke="#595959" stroke-width="0.5" stroke-miterlimit="10" d="
			M346.12,44.701c0,2.578,2.085,4.692,4.744,4.692c2.607,0,4.745-2.114,4.745-4.692c0-2.578-2.138-4.692-4.745-4.692
			C348.153,39.957,346.12,42.123,346.12,44.701z"/>
		<path fill-rule="evenodd" clip-rule="evenodd" fill="#F3F3F3" stroke="#595959" stroke-width="0.5" stroke-miterlimit="10" d="
			M347.553,44.702c0,1.768,1.472,3.223,3.312,3.223c1.787,0,3.259-1.455,3.259-3.223c0-1.82-1.471-3.275-3.259-3.275
			C348.972,41.375,347.553,42.831,347.553,44.702z"/>
		<path fill-rule="evenodd" clip-rule="evenodd" fill="#F3F3F3" stroke="#595959" stroke-width="0.5" stroke-miterlimit="10" d="
			M347.553,44.702c0,1.768,1.472,3.223,3.312,3.223c1.787,0,3.259-1.455,3.259-3.223c0-1.82-1.471-3.275-3.259-3.275
			C348.972,41.375,347.553,42.831,347.553,44.702z"/>
		<path fill-rule="evenodd" clip-rule="evenodd" fill="#F3F3F3" stroke="#595959" stroke-width="0.5" stroke-miterlimit="10" d="
			M334.192,44.701c0,2.578,2.085,4.692,4.745,4.692c2.607,0,4.745-2.114,4.745-4.692c0-2.578-2.138-4.692-4.745-4.692
			C336.277,39.957,334.192,42.123,334.192,44.701z"/>
		<path fill-rule="evenodd" clip-rule="evenodd" fill="#F3F3F3" stroke="#595959" stroke-width="0.5" stroke-miterlimit="10" d="
			M334.192,44.701c0,2.578,2.085,4.692,4.745,4.692c2.607,0,4.745-2.114,4.745-4.692c0-2.578-2.138-4.692-4.745-4.692
			C336.277,39.957,334.192,42.123,334.192,44.701z"/>
		<path fill-rule="evenodd" clip-rule="evenodd" fill="#F3F3F3" stroke="#595959" stroke-width="0.5" stroke-miterlimit="10" d="
			M335.677,44.702c0,1.768,1.472,3.223,3.26,3.223c1.788,0,3.26-1.455,3.26-3.223c0-1.82-1.472-3.275-3.26-3.275
			C337.149,41.375,335.677,42.831,335.677,44.702z"/>
		<path fill-rule="evenodd" clip-rule="evenodd" fill="#F3F3F3" stroke="#595959" stroke-width="0.5" stroke-miterlimit="10" d="
			M335.677,44.702c0,1.768,1.472,3.223,3.26,3.223c1.788,0,3.26-1.455,3.26-3.223c0-1.82-1.472-3.275-3.26-3.275
			C337.149,41.375,335.677,42.831,335.677,44.702z"/>
		<path fill-rule="evenodd" clip-rule="evenodd" fill="#F3F3F3" stroke="#595959" stroke-width="0.5" stroke-miterlimit="10" d="
			M334.192,55.434c0,2.578,2.085,4.692,4.745,4.692c2.607,0,4.745-2.114,4.745-4.692c0-2.578-2.138-4.692-4.745-4.692
			C336.277,50.742,334.192,52.856,334.192,55.434z"/>
		<path fill-rule="evenodd" clip-rule="evenodd" fill="#F3F3F3" stroke="#595959" stroke-width="0.5" stroke-miterlimit="10" d="
			M334.192,55.434c0,2.578,2.085,4.692,4.745,4.692c2.607,0,4.745-2.114,4.745-4.692c0-2.578-2.138-4.692-4.745-4.692
			C336.277,50.742,334.192,52.856,334.192,55.434z"/>
		<path fill-rule="evenodd" clip-rule="evenodd" fill="#F3F3F3" stroke="#595959" stroke-width="0.5" stroke-miterlimit="10" d="
			M350.471,62.727c0,0.392,0.397,0.842,0.908,0.842c0.398,0,0.852-0.393,0.852-0.842c0-0.505-0.398-0.898-0.852-0.898
			C350.868,61.829,350.471,62.277,350.471,62.727z"/>
		<path fill-rule="evenodd" clip-rule="evenodd" fill="#F3F3F3" stroke="#595959" stroke-width="0.5" stroke-miterlimit="10" d="
			M350.471,62.727c0,0.392,0.397,0.842,0.908,0.842c0.398,0,0.852-0.393,0.852-0.842c0-0.505-0.398-0.898-0.852-0.898
			C350.868,61.829,350.471,62.277,350.471,62.727z"/>
		<path fill-rule="evenodd" clip-rule="evenodd" fill="#F3F3F3" stroke="#595959" stroke-width="0.5" stroke-miterlimit="10" d="
			M346.938,62.727c0,0.392,0.341,0.842,0.854,0.842c0.512,0,0.854-0.393,0.854-0.842c0-0.505-0.341-0.898-0.854-0.898
			C347.28,61.829,346.938,62.277,346.938,62.727z"/>
		<path fill-rule="evenodd" clip-rule="evenodd" fill="#F3F3F3" stroke="#595959" stroke-width="0.5" stroke-miterlimit="10" d="
			M346.938,62.727c0,0.392,0.341,0.842,0.854,0.842c0.512,0,0.854-0.393,0.854-0.842c0-0.505-0.341-0.898-0.854-0.898
			C347.28,61.829,346.938,62.277,346.938,62.727z"/>
		<path fill-rule="evenodd" clip-rule="evenodd" fill="#F3F3F3" stroke="#595959" stroke-width="0.5" stroke-miterlimit="10" d="
			M343.304,62.727c0,0.392,0.397,0.842,0.909,0.842c0.397,0,0.851-0.393,0.851-0.842c0-0.505-0.398-0.898-0.851-0.898
			C343.701,61.829,343.304,62.277,343.304,62.727z"/>
		<path fill-rule="evenodd" clip-rule="evenodd" fill="#F3F3F3" stroke="#595959" stroke-width="0.5" stroke-miterlimit="10" d="
			M343.304,62.727c0,0.392,0.397,0.842,0.909,0.842c0.397,0,0.851-0.393,0.851-0.842c0-0.505-0.398-0.898-0.851-0.898
			C343.701,61.829,343.304,62.277,343.304,62.727z"/>
		<path fill-rule="evenodd" clip-rule="evenodd" fill="#F3F3F3" stroke="#595959" stroke-width="0.5" stroke-miterlimit="10" d="
			M347.179,55.434c0,2.003,1.62,3.645,3.685,3.645c2.025,0,3.685-1.642,3.685-3.645c0-2.003-1.66-3.645-3.685-3.645
			C348.758,51.789,347.179,53.431,347.179,55.434z"/>
		<path fill-rule="evenodd" clip-rule="evenodd" fill="#F3F3F3" stroke="#595959" stroke-width="0.5" stroke-miterlimit="10" d="
			M347.179,55.434c0,2.003,1.62,3.645,3.685,3.645c2.025,0,3.685-1.642,3.685-3.645c0-2.003-1.66-3.645-3.685-3.645
			C348.758,51.789,347.179,53.431,347.179,55.434z"/>
		<path fill-rule="evenodd" clip-rule="evenodd" fill="#F3F3F3" stroke="#595959" stroke-width="0.5" stroke-miterlimit="10" d="
			M348.207,55.435c0,1.376,1.146,2.51,2.538,2.51c1.432,0,2.578-1.134,2.578-2.51c0-1.376-1.146-2.55-2.578-2.55
			C349.353,52.885,348.207,54.059,348.207,55.435z"/>
		<path fill-rule="evenodd" clip-rule="evenodd" fill="#F3F3F3" stroke="#595959" stroke-width="0.5" stroke-miterlimit="10" d="
			M348.207,55.435c0,1.376,1.146,2.51,2.538,2.51c1.432,0,2.578-1.134,2.578-2.51c0-1.376-1.146-2.55-2.578-2.55
			C349.353,52.885,348.207,54.059,348.207,55.435z"/>
	</g>
	<g>
		<g>
			<path fill="#F3F3F3" stroke="#595959" stroke-width="0.5" stroke-miterlimit="10" d="M362.892,128.545
				c0,5.261-1.575,9.519-3.528,9.519c-1.944,0-3.528-4.258-3.528-9.519s1.583-9.528,3.528-9.528
				C361.317,119.017,362.892,123.284,362.892,128.545z"/>
			<path fill="#F3F3F3" stroke="#595959" stroke-width="0.5" stroke-miterlimit="10" d="M378.824,128.545
				c0,5.261-4.267,9.519-9.527,9.519s-9.527-4.258-9.527-9.519s4.267-9.528,9.527-9.528S378.824,123.284,378.824,128.545z"/>
		</g>
		<g>
			<path fill="#F3F3F3" stroke="#595959" stroke-width="0.5" stroke-miterlimit="10" d="M387.288,151.069
				c5.261,0,9.519,1.575,9.519,3.528c0,1.944-4.258,3.528-9.519,3.528s-9.527-1.584-9.527-3.528
				C377.761,152.644,382.028,151.069,387.288,151.069z"/>
			<path fill="#F3F3F3" stroke="#595959" stroke-width="0.5" stroke-miterlimit="10" d="M387.288,135.138
				c5.261,0,9.519,4.267,9.519,9.527s-4.258,9.528-9.519,9.528s-9.527-4.267-9.527-9.528S382.028,135.138,387.288,135.138z"/>
		</g>
		<g>
			<path fill="#F3F3F3" stroke="#595959" stroke-width="0.5" stroke-miterlimit="10" d="M387.288,106.011
				c-5.27,0-9.527-1.575-9.527-3.528c0-1.944,4.258-3.528,9.527-3.528c5.261,0,9.519,1.584,9.519,3.528
				C396.807,104.436,392.549,106.011,387.288,106.011z"/>
			<path fill="#F3F3F3" stroke="#595959" stroke-width="0.5" stroke-miterlimit="10" d="M387.288,121.943
				c-5.27,0-9.527-4.267-9.527-9.528c0-5.261,4.258-9.528,9.527-9.528c5.261,0,9.519,4.267,9.519,9.528
				C396.807,117.676,392.549,121.943,387.288,121.943z"/>
		</g>
		
			<rect x="368.1" y="109.356" fill="#F3F3F3" stroke="#595959" stroke-width="0.5" stroke-miterlimit="10" width="38.369" height="38.369"/>
	</g>
	<g>
		<path fill="#F3F3F3" stroke="#595959" stroke-width="0.5" stroke-miterlimit="10" d="M385.258,293.497
			c1.233,0.373,2.059,1.173,2.222,1.144c0.585-0.104-0.806-0.994,0.128-3.633c0.701-1.981,1.257-4.833,1.257-4.833
			s2.057,2.206,3.045,4.108c1.136,2.187,0.03,4.359,0.211,4.454c0.239,0.125,0.841-1.484,2.737-1.869
			c2.32-0.471,5.509,1.74,5.509,1.74s-2.414,0.048-4.06,1.704c-1.576,1.585-3.32,1.282-3.221,1.615
			c0.06,0.202,1.958,0.758,3.366,1.756c1.242,0.88,1.993,3.371,1.993,3.371s-1.196-1.051-4.422-0.761
			c-2.92,0.262-3.567-3.149-3.758-3.117c-0.276,0.047,0.35,1.704-0.474,4.06c-0.768,2.196-3.994,4.446-3.994,4.446
			s-0.45-3.325-0.546-4.789c-0.187-2.839,1.825-4.251,1.534-4.683c-0.22-0.326-2.273,0.77-4.179-0.555
			c-1.113-0.774-4.278-2.103-4.278-2.103s3.1-1.741,4.821-2.138C383.932,293.232,384.645,293.312,385.258,293.497"/>
		<path fill="#F3F3F3" stroke="#595959" stroke-width="0.5" stroke-miterlimit="10" d="M387.276,292.76
			c0.002-0.148,0.009-0.379,0.032-0.663c0.031-0.379,0.065-0.506,0.067-0.747c0.002-0.195-0.021-0.425-0.094-0.819
			c-0.21-1.133-1.415-1.789-1.881-2.096c-0.376-0.247-1.966-1.156-1.966-1.156s-0.954,2.446-0.602,4.152
			c0.322,0.94,2.427,2.067,2.427,2.067l2.395,1.273L387.276,292.76z"/>
		<path fill="#F3F3F3" stroke="#595959" stroke-width="0.5" stroke-miterlimit="10" d="M393.624,293.367
			c0,0,1.381-0.819,2.103-1.803c1.171-1.594,1.21-3.287,1.196-3.878c0,0-2.755,0.051-3.751,1.667
			c-0.675,1.095-0.728,2.181-0.743,2.561c-0.006,0.138-0.018,0.27-0.039,0.406l-0.487,2.603L393.624,293.367z"/>
		<path fill="#F3F3F3" stroke="#595959" stroke-width="0.5" stroke-miterlimit="10" d="M395.033,298.862
			c0,0,1.705,0.904,2.216,1.039c0.592,0.157,0.934,0.158,1.108,0.148c0.65-0.036,1.108-0.287,1.407-0.379
			c0.361-0.111,2.034-0.422,2.034-0.422s-1.634-2.025-3.33-2.647c-1.763-0.403-2.401,0.086-2.907,0.327
			c-0.147,0.07-0.295,0.127-0.451,0.172l-2.418,0.643L395.033,298.862z"/>
		<path fill="#F3F3F3" stroke="#595959" stroke-width="0.5" stroke-miterlimit="10" d="M390.168,301.875
			c0,0-0.164,2.105,0.181,2.764c0.13,0.247,0.29,0.991,1.572,1.465c1.237,0.458,1.978,1.328,1.978,1.328s0.431-1.72,0.097-2.821
			c-0.153-0.505-0.254-0.783-0.487-1.261c-0.264-0.541-1.032-1.067-1.593-1.519c-0.587-0.473-0.986-1.219-0.986-1.219l-0.658-1.564
			L390.168,301.875z"/>
		<path fill="#F3F3F3" stroke="#595959" stroke-width="0.5" stroke-miterlimit="10" d="M384.665,298.13c0,0-1.528-0.017-2.603,0.363
			c-0.771,0.272-1.136,0.95-1.933,2.082c-0.251,0.357-1.16,1.856-1.16,1.856s2.77,0.747,4.639,0.338
			c1.421-0.311,2.232-2.373,2.232-2.373l1.175-2.351L384.665,298.13z"/>
	</g>
	<g>
		
			<rect x="257.024" y="191.266" fill-rule="evenodd" clip-rule="evenodd" fill="#F3F3F3" stroke="#595959" stroke-width="0.5" stroke-miterlimit="10" width="2.504" height="44.463"/>
		
			<polygon fill-rule="evenodd" clip-rule="evenodd" fill="#F3F3F3" stroke="#595959" stroke-width="0.5" stroke-miterlimit="10" points="
			257.139,231.957 255.078,224.812 255.078,202.229 257.139,195.082 		"/>
		
			<rect x="252.893" y="209.731" transform="matrix(-1 -4.495794e-11 4.495794e-11 -1 507.9711 427.0398)" fill-rule="evenodd" clip-rule="evenodd" fill="#F3F3F3" stroke="#595959" stroke-width="0.5" stroke-miterlimit="10" width="2.185" height="7.579"/>
	</g>
	<g>
		
			<rect x="237.766" y="81.647" transform="matrix(-7.096297e-11 1 -1 -7.096297e-11 355.9661 -166.8592)" fill-rule="evenodd" clip-rule="evenodd" fill="#F3F3F3" stroke="#595959" stroke-width="0.5" stroke-miterlimit="10" width="47.293" height="25.812"/>
		
			<line fill="#F3F3F3" stroke="#595959" stroke-width="0.5" stroke-miterlimit="10" x1="274.319" y1="73.469" x2="248.462" y2="73.469"/>
		
			<line fill="#F3F3F3" stroke="#595959" stroke-width="0.5" stroke-miterlimit="10" x1="274.319" y1="115.233" x2="248.506" y2="115.233"/>
		
			<line fill="#F3F3F3" stroke="#595959" stroke-width="0.5" stroke-miterlimit="10" x1="249.698" y1="73.469" x2="249.698" y2="115.233"/>
		
			<line fill="#F3F3F3" stroke="#595959" stroke-width="0.5" stroke-miterlimit="10" x1="261.598" y1="112.664" x2="261.598" y2="75.037"/>
		<polygon fill="#F3F3F3" stroke="#595959" stroke-width="0.5" stroke-miterlimit="10" points="253.609,78.786 253.855,77.085 
			269.411,79.632 269.165,81.334 		"/>
		<polygon fill="#F3F3F3" stroke="#595959" stroke-width="0.5" stroke-miterlimit="10" points="253.7,85.938 253.773,84.219 
			269.496,84.974 269.423,86.694 		"/>
		<polygon fill="#F3F3F3" stroke="#595959" stroke-width="0.5" stroke-miterlimit="10" points="253.73,90.705 254.062,89.02 
			269.466,92.458 269.134,94.143 		"/>
		<polygon fill="#F3F3F3" stroke="#595959" stroke-width="0.5" stroke-miterlimit="10" points="253.681,97.284 253.927,95.582 
			269.483,98.13 269.237,99.831 		"/>
		<polygon fill="#F3F3F3" stroke="#595959" stroke-width="0.5" stroke-miterlimit="10" points="253.689,103.98 253.826,102.264 
			269.508,103.684 269.371,105.399 		"/>
		<polygon fill="#F3F3F3" stroke="#595959" stroke-width="0.5" stroke-miterlimit="10" points="253.57,108.8 253.955,107.128 
			269.242,111.114 268.857,112.786 		"/>
	</g>
	<g>
		<path fill-rule="evenodd" clip-rule="evenodd" fill="#F3F3F3" stroke="#595959" stroke-width="0.5" stroke-miterlimit="10" d="
			M372.264,171.201v84.608c0,2.2,1.8,4,4,4h26.068c2.2,0,4-1.8,4-4v-84.608c0-2.2-1.8-4-4-4h-26.068
			C374.064,167.201,372.264,169.001,372.264,171.201z"/>
		<path fill-rule="evenodd" clip-rule="evenodd" fill="#F3F3F3" stroke="#595959" stroke-width="0.5" stroke-miterlimit="10" d="
			M377.702,225.742c-3.891,0-5.512,0.199-5.512,5.135v14.658c0,4.936,1.667,5.135,5.512,5.135h14.59
			c3.891,0,5.512-0.199,5.512-5.135v-14.658c0-4.936-1.667-5.135-5.512-5.135H377.702z"/>
		<path fill-rule="evenodd" clip-rule="evenodd" fill="#F3F3F3" stroke="#595959" stroke-width="0.5" stroke-miterlimit="10" d="
			M377.702,225.742c-3.891,0-5.512,0.199-5.512,5.135v14.658c0,4.936,1.667,5.135,5.512,5.135h14.59
			c3.891,0,5.512-0.199,5.512-5.135v-14.658c0-4.936-1.667-5.135-5.512-5.135H377.702z"/>
		<path fill-rule="evenodd" clip-rule="evenodd" fill="#F3F3F3" stroke="#595959" stroke-width="0.5" stroke-miterlimit="10" d="
			M377.702,201.058c-3.891,0-5.512,0.2-5.512,5.086v14.708c0,4.936,1.667,5.086,5.512,5.086h14.59c3.891,0,5.512-0.2,5.512-5.086
			v-14.708c0-4.936-1.667-5.086-5.512-5.086H377.702z"/>
		<path fill-rule="evenodd" clip-rule="evenodd" fill="#F3F3F3" stroke="#595959" stroke-width="0.5" stroke-miterlimit="10" d="
			M377.702,201.058c-3.891,0-5.512,0.2-5.512,5.086v14.708c0,4.936,1.667,5.086,5.512,5.086h14.59c3.891,0,5.512-0.2,5.512-5.086
			v-14.708c0-4.936-1.667-5.086-5.512-5.086H377.702z"/>
		<path fill-rule="evenodd" clip-rule="evenodd" fill="#F3F3F3" stroke="#595959" stroke-width="0.5" stroke-miterlimit="10" d="
			M377.776,176.374c-3.891,0-5.512,0.2-5.512,5.086v14.708c0,4.936,1.667,5.086,5.512,5.086h14.59c3.891,0,5.512-0.2,5.512-5.086
			v-14.708c0-4.936-1.667-5.086-5.512-5.086H377.776z"/>
		<path fill-rule="evenodd" clip-rule="evenodd" fill="#F3F3F3" stroke="#595959" stroke-width="0.5" stroke-miterlimit="10" d="
			M406.332,250.474v-77.901v-1.571c0-2.09-1.59-3.801-3.534-3.801h-1.461h-25.615c-1.943,0-3.534,1.71-3.534,3.801v1.571
			c0,2.09,1.59,3.801,3.534,3.801h22.081v74.237h-21.713c-2.08,0-3.782,1.715-3.782,3.811v1.576c0,2.096,1.702,3.811,3.782,3.811
			h24.895h1.564c2.08,0,3.782-1.715,3.782-3.811v-1.576v-5.074V250.474z"/>
	</g>
	<g>
		<path fill-rule="evenodd" clip-rule="evenodd" fill="#F3F3F3" stroke="#595959" stroke-width="0.5" stroke-miterlimit="10" d="
			M109.289,103.806h0.87H109.289z"/>
		
			<line fill-rule="evenodd" clip-rule="evenodd" fill="#F3F3F3" stroke="#595959" stroke-width="0.5" stroke-miterlimit="10" x1="109.289" y1="103.806" x2="110.159" y2="103.806"/>
		<path fill-rule="evenodd" clip-rule="evenodd" fill="#F3F3F3" stroke="#595959" stroke-width="0.5" stroke-miterlimit="10" d="
			M115.688,103.141h-0.051h-5.682c-0.41,0-0.717,0.358-0.717,0.717c0,0.41,0.307,0.716,0.717,0.716h5.682h0.051V103.141z"/>
		
			<rect x="106.474" y="90.854" fill-rule="evenodd" clip-rule="evenodd" fill="#F3F3F3" stroke="#595959" stroke-width="0.5" stroke-miterlimit="10" width="3.737" height="25.956"/>
		<path fill-rule="evenodd" clip-rule="evenodd" fill="#F3F3F3" stroke="#595959" stroke-width="0.5" stroke-miterlimit="10" d="
			M109.289,116.759V90.905V116.759z"/>
		<path fill-rule="evenodd" clip-rule="evenodd" fill="#F3F3F3" stroke="#595959" stroke-width="0.5" stroke-miterlimit="10" d="
			M110.211,116.81h13.054c0.666,0,1.228-0.461,1.228-1.127V91.929c0-0.563-0.563-1.075-1.228-1.075h-13.054V116.81z"/>
		<path fill-rule="evenodd" clip-rule="evenodd" fill="#F3F3F3" stroke="#595959" stroke-width="0.5" stroke-miterlimit="10" d="
			M112.309,103.755c0,4.812,2.457,8.754,5.478,8.806c3.072,0.051,5.529-3.737,5.58-8.601c0-4.812-2.406-8.754-5.478-8.805
			C114.869,95.103,112.36,98.994,112.309,103.755z"/>
		<path fill-rule="evenodd" clip-rule="evenodd" fill="#F3F3F3" stroke="#595959" stroke-width="0.5" stroke-miterlimit="10" d="
			M117.941,105.291c0.819,0,1.485-0.666,1.485-1.485c0-0.767-0.666-1.382-1.485-1.382c-0.819,0-1.433,0.615-1.433,1.382
			C116.559,104.625,117.172,105.291,117.941,105.291z"/>
		<path fill-rule="evenodd" clip-rule="evenodd" fill="#F3F3F3" stroke="#595959" stroke-width="0.5" stroke-miterlimit="10" d="
			M115.688,103.141h-0.051h-5.682c-0.41,0-0.717,0.358-0.717,0.717c0,0.41,0.307,0.716,0.717,0.716h5.682h0.051V103.141z"/>
	</g>
</g>
<g id="numbers">
	<g>
		<path d="M280.802,153.952h-2.08v4.173h-0.936v-9.1h0.936v4.082h2.08l3.081-4.082h1.04l-3.38,4.42l3.575,4.68h-1.105
			L280.802,153.952z"/>
		<path d="M292.177,151.287l-3.419,7.657c-0.277,0.642-0.598,1.096-0.962,1.365c-0.364,0.269-0.802,0.403-1.313,0.403
			c-0.33,0-0.638-0.052-0.924-0.156c-0.285-0.104-0.532-0.26-0.74-0.468l0.429-0.689c0.347,0.347,0.763,0.52,1.248,0.52
			c0.312,0,0.578-0.087,0.8-0.26c0.221-0.174,0.427-0.468,0.617-0.884l0.299-0.663l-3.055-6.825h0.962l2.574,5.811l2.573-5.811
			H292.177z"/>
		<path d="M297.507,158.125l-2.171-2.86l-2.185,2.86h-1.04l2.704-3.51l-2.573-3.328h1.04l2.054,2.678l2.054-2.678h1.014
			l-2.573,3.328l2.729,3.51H297.507z"/>
		<path d="M300.068,151.287h0.923v3.029h4.304v-3.029h0.923v6.838h-0.923v-3.016h-4.304v3.016h-0.923V151.287z"/>
		<path d="M314.095,151.287v6.838h-0.845v-2.262h-2.146h-0.26l-1.586,2.262h-1.001l1.703-2.392
			c-0.529-0.147-0.937-0.398-1.223-0.754s-0.429-0.806-0.429-1.352c0-0.763,0.26-1.343,0.78-1.742
			c0.52-0.398,1.23-0.598,2.132-0.598H314.095z M311.183,155.174h2.067v-3.068h-2.003c-1.334,0-2.002,0.516-2.002,1.547
			C309.245,154.667,309.891,155.174,311.183,155.174z"/>
		<path d="M316.188,154.199h3.406v0.806h-3.406V154.199z"/>
		<path d="M278.612,173.348c-0.533-0.294-0.951-0.708-1.255-1.242c-0.303-0.533-0.455-1.133-0.455-1.8s0.152-1.265,0.455-1.794
			c0.304-0.529,0.722-0.94,1.255-1.235c0.533-0.294,1.138-0.442,1.813-0.442c0.589,0,1.115,0.115,1.579,0.345
			s0.83,0.565,1.099,1.007l-0.688,0.468c-0.226-0.338-0.512-0.592-0.858-0.761s-0.724-0.253-1.131-0.253
			c-0.494,0-0.938,0.11-1.333,0.332c-0.395,0.221-0.701,0.535-0.923,0.942c-0.221,0.408-0.331,0.871-0.331,1.391
			c0,0.529,0.11,0.995,0.331,1.397c0.222,0.403,0.528,0.715,0.923,0.936s0.839,0.332,1.333,0.332c0.407,0,0.784-0.083,1.131-0.247
			s0.633-0.416,0.858-0.754l0.688,0.468c-0.269,0.442-0.637,0.778-1.104,1.008c-0.469,0.229-0.993,0.344-1.573,0.344
			C279.749,173.79,279.145,173.643,278.612,173.348z"/>
		<path d="M289.564,167.706h-2.587v6.019h-0.923v-6.019h-2.587v-0.819h6.097V167.706z"/>
		<path d="M291.631,173.342c-0.529-0.299-0.945-0.713-1.248-1.242c-0.304-0.528-0.455-1.126-0.455-1.794s0.151-1.265,0.455-1.794
			c0.303-0.529,0.719-0.94,1.248-1.235c0.528-0.294,1.122-0.442,1.78-0.442c0.659,0,1.253,0.147,1.781,0.442
			c0.528,0.295,0.942,0.707,1.242,1.235c0.299,0.529,0.448,1.126,0.448,1.794s-0.149,1.266-0.448,1.794
			c-0.3,0.529-0.714,0.942-1.242,1.242c-0.528,0.299-1.122,0.448-1.781,0.448C292.753,173.79,292.16,173.64,291.631,173.342z
			 M294.718,172.639c0.386-0.221,0.688-0.535,0.904-0.942c0.216-0.407,0.324-0.871,0.324-1.391s-0.108-0.983-0.324-1.391
			c-0.217-0.407-0.519-0.722-0.904-0.942c-0.386-0.221-0.821-0.332-1.307-0.332s-0.921,0.11-1.306,0.332
			c-0.386,0.221-0.689,0.535-0.91,0.942c-0.222,0.408-0.332,0.871-0.332,1.391s0.11,0.984,0.332,1.391
			c0.221,0.407,0.524,0.721,0.91,0.942c0.385,0.221,0.82,0.332,1.306,0.332S294.332,172.861,294.718,172.639z"/>
		<path d="M304.41,166.887v6.838h-0.923v-6.019h-3.276l-0.091,1.69c-0.069,1.421-0.234,2.514-0.494,3.276
			c-0.26,0.763-0.724,1.144-1.391,1.144c-0.183,0-0.403-0.035-0.663-0.104l0.064-0.793c0.156,0.035,0.265,0.052,0.325,0.052
			c0.355,0,0.624-0.165,0.807-0.494c0.182-0.329,0.303-0.736,0.363-1.222c0.061-0.485,0.112-1.126,0.156-1.924l0.117-2.444H304.41z"
			/>
		<path d="M308.077,173.342c-0.529-0.299-0.945-0.713-1.248-1.242c-0.304-0.528-0.455-1.126-0.455-1.794s0.151-1.265,0.455-1.794
			c0.303-0.529,0.719-0.94,1.248-1.235c0.528-0.294,1.122-0.442,1.78-0.442c0.659,0,1.253,0.147,1.781,0.442
			c0.528,0.295,0.942,0.707,1.242,1.235c0.299,0.529,0.448,1.126,0.448,1.794s-0.149,1.266-0.448,1.794
			c-0.3,0.529-0.714,0.942-1.242,1.242c-0.528,0.299-1.122,0.448-1.781,0.448C309.199,173.79,308.605,173.64,308.077,173.342z
			 M311.163,172.639c0.386-0.221,0.688-0.535,0.904-0.942c0.216-0.407,0.324-0.871,0.324-1.391s-0.108-0.983-0.324-1.391
			c-0.217-0.407-0.519-0.722-0.904-0.942c-0.386-0.221-0.821-0.332-1.307-0.332s-0.921,0.11-1.306,0.332
			c-0.386,0.221-0.689,0.535-0.91,0.942c-0.222,0.408-0.332,0.871-0.332,1.391s0.11,0.984,0.332,1.391
			c0.221,0.407,0.524,0.721,0.91,0.942c0.385,0.221,0.82,0.332,1.306,0.332S310.778,172.861,311.163,172.639z"/>
		<path d="M321.05,171.866c0,0.598-0.222,1.057-0.663,1.378c-0.442,0.321-1.101,0.481-1.977,0.481h-3.106v-6.838h3.016
			c0.78,0,1.392,0.152,1.833,0.455c0.442,0.303,0.663,0.736,0.663,1.3c0,0.373-0.102,0.691-0.306,0.956
			c-0.203,0.265-0.487,0.461-0.852,0.591C320.586,170.406,321.05,170.965,321.05,171.866z M316.201,169.929h2.055
			c0.528,0,0.934-0.1,1.215-0.299c0.282-0.199,0.423-0.489,0.423-0.871s-0.141-0.667-0.423-0.858
			c-0.281-0.19-0.687-0.286-1.215-0.286h-2.055V169.929z M319.698,172.711c0.295-0.19,0.442-0.489,0.442-0.897
			c0-0.407-0.135-0.708-0.403-0.903s-0.693-0.292-1.273-0.292h-2.263v2.379h2.171C318.961,172.997,319.403,172.902,319.698,172.711z
			"/>
		<path d="M327.615,167.504c0.477,0.447,0.715,1.107,0.715,1.983v4.238h-0.884v-1.066c-0.208,0.355-0.514,0.633-0.917,0.832
			c-0.402,0.199-0.882,0.299-1.436,0.299c-0.764,0-1.37-0.182-1.82-0.546c-0.451-0.364-0.676-0.845-0.676-1.443
			c0-0.581,0.21-1.049,0.63-1.404c0.421-0.355,1.09-0.533,2.009-0.533h2.171v-0.416c0-0.589-0.165-1.038-0.494-1.346
			s-0.811-0.461-1.442-0.461c-0.434,0-0.85,0.071-1.248,0.214c-0.399,0.143-0.741,0.34-1.027,0.592l-0.416-0.689
			c0.347-0.295,0.763-0.522,1.248-0.683s0.996-0.241,1.534-0.241C326.453,166.835,327.138,167.058,327.615,167.504z
			 M326.575,172.704c0.373-0.238,0.65-0.583,0.832-1.034v-1.118h-2.145c-1.171,0-1.756,0.407-1.756,1.222
			c0,0.399,0.152,0.713,0.455,0.943c0.304,0.229,0.729,0.344,1.274,0.344C325.755,173.062,326.202,172.943,326.575,172.704z"/>
		<path d="M336.038,166.887v6.838h-0.845v-2.262h-2.145h-0.261l-1.586,2.262h-1.001l1.703-2.392
			c-0.528-0.147-0.936-0.398-1.222-0.754s-0.43-0.806-0.43-1.352c0-0.763,0.261-1.343,0.78-1.742
			c0.521-0.398,1.23-0.598,2.132-0.598H336.038z M333.126,170.774h2.067v-3.068h-2.002c-1.335,0-2.002,0.516-2.002,1.547
			C331.19,170.267,331.835,170.774,333.126,170.774z"/>
		<path d="M280.256,180.725v9.8h-1.82v-8.274h-2.072v-1.526H280.256z"/>
		<path d="M288.334,185.324c0.662,0.537,0.994,1.267,0.994,2.191c0,0.588-0.146,1.12-0.435,1.596s-0.724,0.854-1.302,1.134
			c-0.579,0.28-1.293,0.42-2.143,0.42c-0.699,0-1.376-0.101-2.029-0.301s-1.204-0.478-1.652-0.833l0.771-1.414
			c0.363,0.299,0.8,0.535,1.309,0.707c0.509,0.173,1.033,0.259,1.575,0.259c0.644,0,1.15-0.133,1.519-0.399
			c0.369-0.266,0.554-0.632,0.554-1.099c0-0.504-0.199-0.884-0.596-1.141c-0.396-0.256-1.075-0.385-2.037-0.385h-2.365l0.504-5.334
			h5.754v1.526h-4.214l-0.21,2.268h0.938C286.649,184.519,287.671,184.787,288.334,185.324z"/>
		<path d="M292.296,188.621c0.214,0.215,0.321,0.495,0.321,0.84c0,0.149-0.021,0.306-0.063,0.469
			c-0.042,0.164-0.129,0.409-0.259,0.735l-0.715,1.974h-1.134l0.561-2.142c-0.206-0.084-0.367-0.217-0.483-0.399
			c-0.117-0.182-0.175-0.395-0.175-0.637c0-0.345,0.107-0.625,0.322-0.84c0.214-0.215,0.484-0.322,0.812-0.322
			S292.081,188.406,292.296,188.621z"/>
		<path d="M300.976,180.725v1.218l-3.808,8.582h-1.946l3.682-8.26h-3.85v1.666h-1.694v-3.206H300.976z"/>
	</g>
	<g>
		<path d="M142.137,227.336c-0.724-0.399-1.291-0.951-1.703-1.658c-0.411-0.706-0.617-1.497-0.617-2.372s0.206-1.666,0.617-2.373
			c0.412-0.706,0.981-1.259,1.71-1.657c0.728-0.398,1.542-0.598,2.444-0.598c0.676,0,1.3,0.112,1.872,0.338
			c0.571,0.226,1.057,0.555,1.455,0.988l-0.61,0.61c-0.711-0.719-1.608-1.079-2.691-1.079c-0.72,0-1.373,0.165-1.963,0.494
			c-0.59,0.33-1.051,0.78-1.385,1.353c-0.333,0.571-0.5,1.213-0.5,1.924s0.167,1.352,0.5,1.924c0.334,0.572,0.795,1.022,1.385,1.352
			c0.59,0.33,1.243,0.494,1.963,0.494c1.092,0,1.989-0.363,2.691-1.092l0.61,0.611c-0.398,0.434-0.886,0.765-1.462,0.994
			s-1.202,0.345-1.879,0.345C143.673,227.934,142.86,227.735,142.137,227.336z"/>
		<path d="M155.819,221.018v6.838h-0.923v-6.019h-4.29v6.019h-0.923v-6.838H155.819z"/>
		<path d="M162.851,221.635c0.477,0.446,0.715,1.107,0.715,1.982v4.238h-0.884v-1.066c-0.208,0.355-0.514,0.633-0.916,0.832
			c-0.403,0.2-0.882,0.3-1.437,0.3c-0.763,0-1.37-0.183-1.82-0.547c-0.45-0.363-0.676-0.845-0.676-1.442
			c0-0.581,0.21-1.049,0.63-1.404c0.421-0.355,1.09-0.533,2.009-0.533h2.171v-0.416c0-0.589-0.164-1.037-0.494-1.345
			c-0.329-0.308-0.81-0.462-1.442-0.462c-0.434,0-0.85,0.071-1.248,0.215c-0.398,0.143-0.741,0.34-1.027,0.591l-0.416-0.688
			c0.347-0.295,0.763-0.522,1.248-0.683s0.997-0.24,1.534-0.24C161.69,220.966,162.375,221.189,162.851,221.635z M161.811,226.835
			c0.373-0.238,0.65-0.583,0.832-1.033v-1.118h-2.145c-1.17,0-1.755,0.407-1.755,1.222c0,0.399,0.151,0.713,0.455,0.942
			c0.303,0.23,0.728,0.345,1.273,0.345C160.993,227.193,161.439,227.074,161.811,226.835z"/>
		<path d="M171.614,221.018v6.838h-0.923v-6.019h-3.276l-0.091,1.689c-0.069,1.422-0.234,2.514-0.494,3.276
			s-0.724,1.144-1.392,1.144c-0.182,0-0.402-0.034-0.662-0.104l0.064-0.793c0.156,0.034,0.265,0.052,0.325,0.052
			c0.355,0,0.624-0.165,0.806-0.494c0.183-0.329,0.304-0.736,0.364-1.222s0.112-1.127,0.156-1.924l0.117-2.444H171.614z"/>
		<path d="M179.134,224.008c0.446,0.372,0.67,0.909,0.67,1.611c0,0.729-0.24,1.287-0.722,1.678c-0.48,0.39-1.177,0.58-2.086,0.571
			l-2.756-0.013v-6.838h0.923v2.392l2.015,0.026C178.036,223.445,178.687,223.635,179.134,224.008z M178.38,226.784
			c0.325-0.265,0.488-0.652,0.488-1.164c0-0.502-0.161-0.875-0.481-1.117c-0.32-0.243-0.802-0.369-1.443-0.378l-1.78-0.025v3.042
			l1.78,0.025C177.576,227.175,178.055,227.048,178.38,226.784z"/>
		<path d="M181.559,221.018h0.923v3.029h4.303v-3.029h0.923v6.838h-0.923v-3.016h-4.303v3.016h-0.923V221.018z"/>
		<path d="M195.586,221.018v6.838h-0.846v-2.262h-2.145h-0.26l-1.587,2.262h-1.001l1.703-2.392
			c-0.528-0.147-0.936-0.399-1.222-0.755c-0.286-0.354-0.429-0.806-0.429-1.352c0-0.763,0.26-1.343,0.779-1.742
			c0.521-0.398,1.231-0.598,2.133-0.598H195.586z M192.674,224.905h2.066v-3.067h-2.002c-1.335,0-2.002,0.516-2.002,1.547
			C190.736,224.398,191.382,224.905,192.674,224.905z"/>
		<path d="M143.066,234.856v9.8h-1.82v-8.274h-2.071v-1.525H143.066z"/>
		<path d="M151.2,238.979c0.514,0.247,0.915,0.6,1.204,1.057c0.289,0.458,0.435,0.985,0.435,1.582c0,0.635-0.159,1.192-0.477,1.673
			c-0.317,0.481-0.747,0.852-1.288,1.113c-0.541,0.261-1.147,0.392-1.819,0.392c-1.345,0-2.388-0.42-3.13-1.26
			c-0.741-0.84-1.112-2.044-1.112-3.612c0-1.101,0.2-2.041,0.602-2.82s0.964-1.372,1.688-1.778c0.723-0.406,1.561-0.609,2.513-0.609
			c0.504,0,0.978,0.055,1.421,0.161c0.443,0.107,0.828,0.264,1.155,0.47l-0.672,1.371c-0.485-0.316-1.106-0.476-1.862-0.476
			c-0.942,0-1.68,0.289-2.212,0.868s-0.798,1.414-0.798,2.506v0.014c0.289-0.336,0.658-0.59,1.105-0.763
			c0.448-0.173,0.952-0.259,1.513-0.259C150.108,238.608,150.687,238.732,151.2,238.979z M150.543,242.912
			c0.354-0.303,0.531-0.707,0.531-1.211c0-0.513-0.177-0.919-0.531-1.218c-0.355-0.299-0.831-0.448-1.429-0.448
			c-0.588,0-1.066,0.159-1.435,0.477c-0.369,0.317-0.553,0.719-0.553,1.203c0,0.477,0.179,0.871,0.538,1.184
			s0.856,0.469,1.491,0.469C149.725,243.368,150.187,243.216,150.543,242.912z"/>
		<path d="M155.848,242.751c0.215,0.215,0.322,0.495,0.322,0.84c0,0.149-0.021,0.307-0.063,0.47s-0.128,0.408-0.259,0.734
			l-0.714,1.975H154l0.561-2.143c-0.205-0.084-0.366-0.217-0.483-0.398c-0.116-0.183-0.175-0.395-0.175-0.638
			c0-0.345,0.107-0.625,0.322-0.84c0.215-0.214,0.485-0.321,0.812-0.321C155.363,242.43,155.634,242.537,155.848,242.751z"/>
		<path d="M166.012,242.43h-1.735v2.226h-1.765v-2.226h-5.376v-1.261l4.83-6.313h1.946l-4.55,6.034h3.206v-1.975h1.708v1.975h1.735
			V242.43z"/>
	</g>
	<g>
		<path d="M284.922,290.765v9.1h-0.948v-8.268h-4.395l-0.104,3.042c-0.044,1.256-0.146,2.269-0.306,3.035
			c-0.161,0.767-0.405,1.339-0.734,1.716c-0.33,0.377-0.768,0.565-1.313,0.565c-0.233,0-0.477-0.03-0.728-0.091l0.078-0.858
			c0.146,0.035,0.29,0.053,0.429,0.053c0.381,0,0.69-0.152,0.93-0.455c0.238-0.304,0.418-0.773,0.539-1.411
			c0.121-0.637,0.204-1.479,0.247-2.528l0.13-3.899H284.922z"/>
		<path d="M288.81,299.481c-0.529-0.299-0.945-0.713-1.248-1.241c-0.304-0.528-0.455-1.127-0.455-1.794s0.151-1.266,0.455-1.794
			c0.303-0.528,0.719-0.94,1.248-1.235c0.528-0.294,1.122-0.441,1.78-0.441c0.659,0,1.253,0.147,1.781,0.441
			c0.528,0.295,0.942,0.707,1.242,1.235c0.299,0.528,0.448,1.127,0.448,1.794s-0.149,1.266-0.448,1.794
			c-0.3,0.528-0.714,0.942-1.242,1.241s-1.122,0.449-1.781,0.449C289.932,299.93,289.338,299.78,288.81,299.481z M291.897,298.779
			c0.386-0.221,0.688-0.534,0.904-0.942c0.216-0.407,0.324-0.871,0.324-1.391c0-0.521-0.108-0.983-0.324-1.391
			c-0.217-0.407-0.519-0.722-0.904-0.943c-0.386-0.221-0.821-0.331-1.307-0.331s-0.921,0.11-1.306,0.331
			c-0.386,0.222-0.689,0.536-0.91,0.943c-0.222,0.407-0.332,0.87-0.332,1.391c0,0.52,0.11,0.983,0.332,1.391
			c0.221,0.408,0.524,0.722,0.91,0.942c0.385,0.222,0.82,0.332,1.306,0.332S291.511,299,291.897,298.779z"/>
		<path d="M302.667,299.059v2.457h-0.871v-1.651h-6.123v1.651h-0.87v-2.457h0.39c0.459-0.026,0.771-0.364,0.936-1.015
			c0.165-0.649,0.277-1.56,0.338-2.729l0.092-2.288h5.044v6.032H302.667z M297.065,297.765c-0.122,0.629-0.338,1.06-0.65,1.294
			h4.265v-5.213h-3.289l-0.078,1.521C297.268,296.337,297.186,297.137,297.065,297.765z"/>
		<path d="M310.454,296.823h-1.481v3.042h-0.924v-3.042h-1.481l-2.093,3.042h-1.105l2.457-3.523l-2.262-3.314h1.001l2.002,3.003
			h1.481v-3.003h0.924v3.003h1.481l2.015-3.003h1.001l-2.262,3.328l2.457,3.51h-1.104L310.454,296.823z"/>
		<path d="M315.2,293.027h0.923v5.434l4.563-5.434h0.819v6.838h-0.923v-5.434l-4.55,5.434H315.2V293.027z"/>
		<path d="M329.395,293.027v6.838h-0.845v-2.262h-2.145h-0.261l-1.586,2.262h-1.001l1.703-2.392
			c-0.528-0.147-0.936-0.399-1.222-0.755c-0.286-0.354-0.43-0.806-0.43-1.352c0-0.763,0.261-1.343,0.78-1.742
			c0.521-0.398,1.23-0.598,2.132-0.598H329.395z M326.483,296.913h2.067v-3.067h-2.002c-1.335,0-2.002,0.516-2.002,1.547
			C324.546,296.407,325.192,296.913,326.483,296.913z"/>
		<path d="M283.112,311.834c0.476,0.504,0.714,1.134,0.714,1.89c0,0.57-0.145,1.088-0.434,1.555c-0.29,0.467-0.727,0.838-1.31,1.112
			c-0.583,0.275-1.295,0.413-2.135,0.413c-0.7,0-1.374-0.1-2.023-0.301c-0.648-0.2-1.201-0.479-1.658-0.833l0.783-1.414
			c0.355,0.299,0.786,0.534,1.295,0.707s1.034,0.259,1.575,0.259c0.645,0,1.15-0.133,1.52-0.398
			c0.368-0.267,0.553-0.628,0.553-1.085s-0.175-0.814-0.525-1.071c-0.35-0.257-0.884-0.385-1.603-0.385h-0.896v-1.246l2.227-2.646
			h-4.452v-1.525h6.678v1.218l-2.38,2.828C281.945,311.023,282.635,311.33,283.112,311.834z"/>
		<path d="M286.934,314.76c0.214,0.215,0.321,0.495,0.321,0.84c0,0.149-0.021,0.307-0.063,0.47s-0.129,0.408-0.259,0.734
			l-0.715,1.975h-1.134l0.561-2.143c-0.206-0.084-0.367-0.217-0.483-0.398c-0.117-0.183-0.175-0.395-0.175-0.638
			c0-0.345,0.107-0.625,0.322-0.84c0.214-0.214,0.484-0.321,0.812-0.321S286.719,314.546,286.934,314.76z"/>
		<path d="M294.452,310.988c0.514,0.247,0.915,0.6,1.204,1.057c0.289,0.458,0.434,0.985,0.434,1.582
			c0,0.635-0.158,1.192-0.476,1.673c-0.317,0.481-0.747,0.852-1.288,1.113c-0.541,0.261-1.148,0.392-1.82,0.392
			c-1.344,0-2.387-0.42-3.129-1.26s-1.112-2.044-1.112-3.612c0-1.101,0.2-2.041,0.602-2.82s0.964-1.372,1.687-1.778
			c0.724-0.406,1.562-0.609,2.514-0.609c0.504,0,0.978,0.055,1.421,0.161c0.443,0.107,0.828,0.264,1.155,0.47l-0.673,1.371
			c-0.485-0.316-1.105-0.476-1.861-0.476c-0.943,0-1.681,0.289-2.212,0.868c-0.532,0.579-0.798,1.414-0.798,2.506v0.014
			c0.289-0.336,0.657-0.59,1.105-0.763s0.952-0.259,1.512-0.259C293.36,310.617,293.938,310.741,294.452,310.988z M293.793,314.921
			c0.354-0.303,0.532-0.707,0.532-1.211c0-0.513-0.178-0.919-0.532-1.218s-0.83-0.448-1.428-0.448c-0.588,0-1.066,0.159-1.435,0.477
			c-0.369,0.317-0.554,0.719-0.554,1.203c0,0.477,0.18,0.871,0.539,1.184s0.856,0.469,1.491,0.469
			C292.977,315.376,293.439,315.225,293.793,314.921z"/>
	</g>
	<g>
		<path d="M209.04,71.596c0.662,0.537,0.994,1.267,0.994,2.191c0,0.588-0.145,1.12-0.435,1.596
			c-0.289,0.476-0.723,0.854-1.302,1.134c-0.579,0.28-1.293,0.42-2.142,0.42c-0.7,0-1.377-0.101-2.03-0.301
			s-1.204-0.478-1.652-0.833l0.771-1.414c0.364,0.299,0.8,0.535,1.309,0.707c0.509,0.173,1.034,0.259,1.575,0.259
			c0.645,0,1.15-0.133,1.52-0.399c0.368-0.266,0.553-0.632,0.553-1.099c0-0.504-0.198-0.884-0.595-1.141
			c-0.397-0.256-1.076-0.385-2.037-0.385h-2.366l0.504-5.334h5.754v1.526h-4.214l-0.21,2.268h0.938
			C207.356,70.791,208.377,71.059,209.04,71.596z"/>
		<path d="M213.002,74.893c0.215,0.215,0.322,0.495,0.322,0.84c0,0.149-0.021,0.306-0.063,0.469
			c-0.042,0.164-0.128,0.409-0.259,0.735l-0.714,1.974h-1.135l0.561-2.142c-0.205-0.084-0.366-0.217-0.483-0.399
			c-0.116-0.182-0.175-0.395-0.175-0.637c0-0.345,0.107-0.625,0.322-0.84s0.485-0.322,0.812-0.322
			C212.517,74.571,212.787,74.679,213.002,74.893z"/>
		<path d="M217.678,66.997v9.8h-1.82v-8.274h-2.071v-1.526H217.678z"/>
	</g>
	<g>
		<path d="M152.138,98.291v1.54h-7.224v-1.218l3.892-3.696c0.438-0.42,0.735-0.786,0.89-1.099c0.153-0.313,0.23-0.623,0.23-0.931
			c0-0.458-0.154-0.807-0.462-1.05c-0.308-0.243-0.761-0.364-1.358-0.364c-0.998,0-1.764,0.341-2.296,1.022l-1.273-0.98
			c0.382-0.513,0.897-0.912,1.547-1.197c0.648-0.284,1.374-0.427,2.177-0.427c1.064,0,1.913,0.252,2.548,0.756
			s0.952,1.19,0.952,2.058c0,0.532-0.112,1.031-0.336,1.498s-0.653,0.999-1.288,1.596l-2.618,2.492H152.138z"/>
		<path d="M155.245,97.928c0.215,0.215,0.322,0.495,0.322,0.84c0,0.149-0.021,0.306-0.063,0.469
			c-0.042,0.164-0.128,0.409-0.259,0.735l-0.714,1.974h-1.135l0.561-2.142c-0.205-0.084-0.366-0.217-0.483-0.399
			c-0.116-0.182-0.175-0.395-0.175-0.637c0-0.345,0.107-0.625,0.322-0.84s0.485-0.322,0.812-0.322
			C154.76,97.605,155.031,97.713,155.245,97.928z"/>
		<path d="M163.982,98.291v1.54h-7.224v-1.218l3.892-3.696c0.438-0.42,0.735-0.786,0.89-1.099c0.153-0.313,0.23-0.623,0.23-0.931
			c0-0.458-0.154-0.807-0.462-1.05c-0.308-0.243-0.761-0.364-1.358-0.364c-0.998,0-1.764,0.341-2.296,1.022l-1.273-0.98
			c0.382-0.513,0.897-0.912,1.547-1.197c0.648-0.284,1.374-0.427,2.177-0.427c1.064,0,1.913,0.252,2.548,0.756
			s0.952,1.19,0.952,2.058c0,0.532-0.112,1.031-0.336,1.498s-0.653,0.999-1.288,1.596l-2.618,2.492H163.982z"/>
	</g>
	<g>
		<path d="M63.016,118.303c0.476,0.504,0.714,1.134,0.714,1.89c0,0.569-0.146,1.087-0.435,1.554
			c-0.289,0.467-0.726,0.838-1.309,1.113c-0.583,0.275-1.295,0.413-2.135,0.413c-0.7,0-1.375-0.101-2.023-0.301
			s-1.202-0.478-1.659-0.833l0.784-1.414c0.354,0.299,0.786,0.535,1.295,0.707c0.509,0.173,1.034,0.259,1.575,0.259
			c0.644,0,1.15-0.133,1.519-0.399c0.369-0.266,0.554-0.628,0.554-1.085c0-0.458-0.175-0.814-0.525-1.071
			c-0.35-0.256-0.884-0.385-1.603-0.385h-0.896v-1.246l2.227-2.646h-4.452v-1.526h6.678v1.218l-2.38,2.828
			C61.849,117.491,62.539,117.799,63.016,118.303z"/>
		<path d="M66.837,121.229c0.215,0.215,0.322,0.495,0.322,0.84c0,0.149-0.021,0.306-0.063,0.469
			c-0.042,0.164-0.128,0.409-0.259,0.735l-0.714,1.974h-1.135l0.561-2.142c-0.205-0.084-0.366-0.217-0.483-0.399
			c-0.116-0.182-0.175-0.395-0.175-0.637c0-0.345,0.107-0.625,0.322-0.84s0.485-0.322,0.812-0.322
			C66.352,120.907,66.622,121.014,66.837,121.229z"/>
		<path d="M70.155,122.678c-0.615-0.396-1.101-0.975-1.455-1.736c-0.355-0.761-0.532-1.664-0.532-2.709s0.177-1.948,0.532-2.709
			c0.354-0.761,0.84-1.339,1.455-1.736c0.616-0.396,1.316-0.595,2.101-0.595s1.486,0.198,2.106,0.595
			c0.621,0.397,1.108,0.976,1.464,1.736c0.354,0.761,0.531,1.664,0.531,2.709s-0.177,1.948-0.531,2.709
			c-0.355,0.761-0.843,1.339-1.464,1.736c-0.62,0.397-1.322,0.595-2.106,0.595S70.771,123.075,70.155,122.678z M73.914,120.823
			c0.405-0.579,0.608-1.442,0.608-2.59s-0.203-2.011-0.608-2.59c-0.406-0.578-0.959-0.868-1.659-0.868
			c-0.69,0-1.239,0.29-1.646,0.868c-0.405,0.579-0.608,1.442-0.608,2.59s0.203,2.011,0.608,2.59
			c0.406,0.579,0.955,0.868,1.646,0.868C72.955,121.691,73.508,121.402,73.914,120.823z"/>
	</g>
	<g>
		<path d="M155.93,146.24c0.476,0.504,0.714,1.134,0.714,1.89c0,0.569-0.146,1.087-0.435,1.554
			c-0.289,0.467-0.726,0.838-1.309,1.113c-0.583,0.275-1.295,0.413-2.135,0.413c-0.7,0-1.375-0.101-2.023-0.301
			s-1.202-0.478-1.659-0.833l0.784-1.414c0.354,0.299,0.786,0.535,1.295,0.707c0.509,0.173,1.034,0.259,1.575,0.259
			c0.644,0,1.15-0.133,1.519-0.399c0.369-0.266,0.554-0.628,0.554-1.085c0-0.458-0.175-0.814-0.525-1.071
			c-0.35-0.256-0.884-0.385-1.603-0.385h-0.896v-1.246l2.227-2.646h-4.452v-1.526h6.678v1.218l-2.38,2.828
			C154.764,145.428,155.454,145.736,155.93,146.24z"/>
		<path d="M159.752,149.166c0.215,0.215,0.322,0.495,0.322,0.84c0,0.149-0.021,0.306-0.063,0.469
			c-0.042,0.164-0.128,0.409-0.259,0.735l-0.714,1.974h-1.135l0.561-2.142c-0.205-0.084-0.366-0.217-0.483-0.399
			c-0.116-0.182-0.175-0.395-0.175-0.637c0-0.345,0.107-0.625,0.322-0.84s0.485-0.322,0.812-0.322
			C159.266,148.844,159.537,148.951,159.752,149.166z"/>
		<path d="M167.269,145.393c0.514,0.247,0.915,0.6,1.204,1.057c0.289,0.458,0.435,0.985,0.435,1.582
			c0,0.635-0.159,1.192-0.477,1.673c-0.317,0.481-0.747,0.852-1.288,1.113s-1.147,0.392-1.819,0.392c-1.345,0-2.388-0.42-3.13-1.26
			c-0.741-0.84-1.112-2.044-1.112-3.612c0-1.101,0.2-2.042,0.602-2.821c0.401-0.779,0.964-1.372,1.688-1.778
			c0.723-0.406,1.561-0.609,2.513-0.609c0.504,0,0.978,0.054,1.421,0.161s0.828,0.264,1.155,0.469l-0.672,1.372
			c-0.485-0.317-1.106-0.476-1.862-0.476c-0.942,0-1.68,0.29-2.212,0.868s-0.798,1.414-0.798,2.506v0.014
			c0.289-0.336,0.658-0.59,1.105-0.763c0.448-0.172,0.952-0.259,1.513-0.259C166.178,145.022,166.757,145.145,167.269,145.393z
			 M166.612,149.326c0.354-0.303,0.531-0.707,0.531-1.211c0-0.513-0.177-0.919-0.531-1.218c-0.355-0.299-0.831-0.448-1.429-0.448
			c-0.588,0-1.066,0.159-1.435,0.476c-0.369,0.317-0.553,0.719-0.553,1.204c0,0.476,0.179,0.87,0.538,1.183
			c0.359,0.313,0.856,0.469,1.491,0.469C165.795,149.782,166.257,149.63,166.612,149.326z"/>
	</g>
</g>
<g>
</g>
<g>
</g>
<g>
</g>
<g>
</g>
<g>
</g>
<g>
</g>
</svg>
