<?xml version="1.0" encoding="utf-8"?>
<!-- Generator: Adobe Illustrator 23.0.2, SVG Export Plug-In . SVG Version: 6.00 Build 0)  -->
<svg version="1.1" id="Слой_1" xmlns="http://www.w3.org/2000/svg" xmlns:xlink="http://www.w3.org/1999/xlink" x="0px" y="0px"
	 viewBox="0 0 378.9 800" enable-background="new 0 0 378.9 800" xml:space="preserve">
<rect x="315.7" y="439.2" transform="matrix(-1 -1.224647e-16 1.224647e-16 -1 657.1095 1061.9933)" fill="#F3F3F3" stroke="#838383" width="25.6" height="183.6"/>
<g>
	
		<rect x="339.2" y="626.6" fill-rule="evenodd" clip-rule="evenodd" fill="#F1F2F2" stroke="#848484" stroke-miterlimit="10" width="1.6" height="22.3"/>
	
		<rect x="339.2" y="626.6" fill-rule="evenodd" clip-rule="evenodd" fill="#F1F2F2" stroke="#848484" stroke-miterlimit="10" width="1.6" height="22.3"/>
	
		<rect x="313.6" y="641.7" fill-rule="evenodd" clip-rule="evenodd" fill="#F1F2F2" stroke="#848484" stroke-miterlimit="10" width="2.2" height="7.3"/>
	
		<rect x="313.6" y="641.7" fill-rule="evenodd" clip-rule="evenodd" fill="#F1F2F2" stroke="#848484" stroke-miterlimit="10" width="2.2" height="7.3"/>
	
		<rect x="314.9" y="625.5" fill-rule="evenodd" clip-rule="evenodd" fill="#F1F2F2" stroke="#848484" stroke-miterlimit="10" width="24.4" height="24.5"/>
	
		<rect x="314.9" y="625.5" fill-rule="evenodd" clip-rule="evenodd" fill="#F1F2F2" stroke="#848484" stroke-miterlimit="10" width="24.4" height="24.5"/>
	<path fill-rule="evenodd" clip-rule="evenodd" fill="#F1F2F2" stroke="#848484" stroke-miterlimit="10" d="M317.1,625.5l0,24.5
		L317.1,625.5z"/>
	<path fill-rule="evenodd" clip-rule="evenodd" fill="#F1F2F2" stroke="#848484" stroke-miterlimit="10" d="M317.2,624.4
		c0.5,0,1,0.4,1,1c0,0.6-0.5,1-1,1c-0.6,0-1.1-0.4-1.1-1C316.1,624.8,316.6,624.4,317.2,624.4z"/>
	<path fill-rule="evenodd" clip-rule="evenodd" fill="#F1F2F2" stroke="#848484" stroke-miterlimit="10" d="M317.2,624.4
		c0.5,0,1,0.4,1,1c0,0.6-0.5,1-1,1c-0.6,0-1.1-0.4-1.1-1C316.1,624.8,316.6,624.4,317.2,624.4z"/>
	<path fill-rule="evenodd" clip-rule="evenodd" fill="#F1F2F2" stroke="#848484" stroke-miterlimit="10" d="M329.7,637.9h-4.3H329.7
		z"/>
	<path fill-rule="evenodd" clip-rule="evenodd" fill="#F1F2F2" stroke="#848484" stroke-miterlimit="10" d="M327.6,635.8v4.3V635.8z
		"/>
	<path fill-rule="evenodd" clip-rule="evenodd" fill="#F1F2F2" stroke="#848484" stroke-miterlimit="10" d="M326,636.4l3.1,3.1
		L326,636.4z"/>
	<path fill-rule="evenodd" clip-rule="evenodd" fill="#F1F2F2" stroke="#848484" stroke-miterlimit="10" d="M326,639.5l3.1-3.1
		L326,639.5z"/>
	<path fill-rule="evenodd" clip-rule="evenodd" fill="#F1F2F2" stroke="#848484" stroke-miterlimit="10" d="M329.8,631.6h-4.3H329.8
		z"/>
	<path fill-rule="evenodd" clip-rule="evenodd" fill="#F1F2F2" stroke="#848484" stroke-miterlimit="10" d="M327.7,629.4v4.3V629.4z
		"/>
	<path fill-rule="evenodd" clip-rule="evenodd" fill="#F1F2F2" stroke="#848484" stroke-miterlimit="10" d="M326.1,630.1l3.1,3.1
		L326.1,630.1z"/>
	<path fill-rule="evenodd" clip-rule="evenodd" fill="#F1F2F2" stroke="#848484" stroke-miterlimit="10" d="M326.1,633.2l3.1-3.1
		L326.1,633.2z"/>
	<path fill-rule="evenodd" clip-rule="evenodd" fill="#F1F2F2" stroke="#848484" stroke-miterlimit="10" d="M329.7,644.1h-4.3H329.7
		z"/>
	<path fill-rule="evenodd" clip-rule="evenodd" fill="#F1F2F2" stroke="#848484" stroke-miterlimit="10" d="M327.6,642v4.3V642z"/>
	<path fill-rule="evenodd" clip-rule="evenodd" fill="#F1F2F2" stroke="#848484" stroke-miterlimit="10" d="M326,642.6l3.1,3.1
		L326,642.6z"/>
	<path fill-rule="evenodd" clip-rule="evenodd" fill="#F1F2F2" stroke="#848484" stroke-miterlimit="10" d="M326,645.7l3.1-3.1
		L326,645.7z"/>
</g>
<g>
	<rect x="177.2" y="5.1" fill="#F3F3F3" stroke="#000000" stroke-miterlimit="10" width="158.4" height="6.9"/>
	<rect x="177.2" y="11.9" fill="#F3F3F3" stroke="#000000" stroke-miterlimit="10" width="158.4" height="2.3"/>
	<rect x="177.2" y="14.2" fill="#F3F3F3" stroke="#000000" stroke-miterlimit="10" width="158.4" height="2.3"/>
	<rect x="177.2" y="16.5" fill="#F3F3F3" stroke="#000000" stroke-miterlimit="10" width="158.4" height="4.8"/>
	<rect x="332.9" y="11.9" fill="#F3F3F3" stroke="#000000" stroke-miterlimit="10" width="2.7" height="4.5"/>
	<rect x="177.2" y="11.9" fill="#F3F3F3" stroke="#000000" stroke-miterlimit="10" width="2.7" height="4.5"/>
</g>
<g>
	
		<rect x="28.9" y="788.2" transform="matrix(-1 -1.224647e-16 1.224647e-16 -1 181.5862 1583.2716)" fill="#F3F3F3" stroke="#000000" stroke-miterlimit="10" width="123.8" height="6.9"/>
	
		<rect x="28.9" y="785.9" transform="matrix(-1 -1.224647e-16 1.224647e-16 -1 181.5862 1574.142)" fill="#F3F3F3" stroke="#000000" stroke-miterlimit="10" width="123.8" height="2.3"/>
	
		<rect x="28.9" y="783.7" transform="matrix(-1 -1.224647e-16 1.224647e-16 -1 181.5862 1569.6334)" fill="#F3F3F3" stroke="#000000" stroke-miterlimit="10" width="123.8" height="2.3"/>
	
		<rect x="28.9" y="778.9" transform="matrix(-1 -1.224647e-16 1.224647e-16 -1 181.5862 1562.5702)" fill="#F3F3F3" stroke="#000000" stroke-miterlimit="10" width="123.8" height="4.8"/>
	
		<rect x="28.9" y="783.7" transform="matrix(-1 -1.224647e-16 1.224647e-16 -1 59.8678 1571.8877)" fill="#F3F3F3" stroke="#000000" stroke-miterlimit="10" width="2.1" height="4.5"/>
	
		<rect x="150.6" y="783.7" transform="matrix(-1 -1.224647e-16 1.224647e-16 -1 303.3046 1571.8877)" fill="#F3F3F3" stroke="#000000" stroke-miterlimit="10" width="2.1" height="4.5"/>
</g>
<g>
	<rect x="55" y="15.3" fill="#F3F3F3" stroke="#000000" stroke-miterlimit="10" width="70.2" height="7.7"/>
	<rect x="55" y="11.9" fill="#F3F3F3" stroke="#000000" stroke-miterlimit="10" width="70.2" height="3.4"/>
	<rect x="57.6" y="5.1" fill="#F3F3F3" stroke="#000000" stroke-miterlimit="10" width="64.8" height="6.9"/>
	<rect x="55" y="11.9" fill="#F3F3F3" stroke="#000000" stroke-miterlimit="10" width="3.4" height="3.4"/>
	<rect x="121.9" y="11.9" fill="#F3F3F3" stroke="#000000" stroke-miterlimit="10" width="3.4" height="3.4"/>
	<rect x="88.7" y="11.9" fill="#F3F3F3" stroke="#000000" stroke-miterlimit="10" width="3.4" height="3.4"/>
</g>
<g>
	<rect x="214.3" y="788.5" fill="#F3F3F3" stroke="#000000" stroke-miterlimit="10" width="107.9" height="6.4"/>
	<rect x="211.5" y="783.9" fill="#F3F3F3" stroke="#000000" stroke-miterlimit="10" width="112.7" height="4.6"/>
	<rect x="211.5" y="777" fill="#F3F3F3" stroke="#000000" stroke-miterlimit="10" width="112.7" height="6.9"/>
	<rect x="211.5" y="783.9" fill="#F3F3F3" stroke="#000000" stroke-miterlimit="10" width="3.4" height="4.6"/>
	<rect x="320.8" y="783.9" fill="#F3F3F3" stroke="#000000" stroke-miterlimit="10" width="3.4" height="4.6"/>
	<rect x="248" y="783.9" fill="#F3F3F3" stroke="#000000" stroke-miterlimit="10" width="3.4" height="4.6"/>
	<rect x="283.7" y="783.9" fill="#F3F3F3" stroke="#000000" stroke-miterlimit="10" width="3.4" height="4.6"/>
</g>
<rect x="80.9" y="715.7" fill="#F3F3F3" stroke="#000000" stroke-miterlimit="10" width="71.8" height="2.9"/>
<rect x="80.9" y="715.7" fill="#F3F3F3" stroke="#000000" stroke-miterlimit="10" width="4.6" height="2.9"/>
<rect x="107.8" y="715.7" fill="#F3F3F3" stroke="#000000" stroke-miterlimit="10" width="4.5" height="2.9"/>
<rect x="148.4" y="715.7" fill="#F3F3F3" stroke="#000000" stroke-miterlimit="10" width="4.4" height="2.9"/>
<rect x="80.9" y="707.8" fill="#F3F3F3" stroke="#000000" stroke-miterlimit="10" width="29.2" height="8"/>
<rect x="82.7" y="718.6" fill="#F3F3F3" stroke="#000000" stroke-miterlimit="10" width="27.4" height="7.2"/>
<rect x="232.1" y="72.5" fill="#F3F3F3" stroke="#000000" stroke-miterlimit="10" width="36.2" height="7.3"/>
<rect x="189" y="79.8" fill="#F3F3F3" stroke="#000000" stroke-miterlimit="10" width="81.3" height="2.6"/>
<rect x="232.1" y="82.4" fill="#F3F3F3" stroke="#000000" stroke-miterlimit="10" width="38.3" height="8.3"/>
<rect x="229.7" y="79.8" fill="#F3F3F3" stroke="#000000" stroke-miterlimit="10" width="4.3" height="2.6"/>
<rect x="265.5" y="79.8" fill="#F3F3F3" stroke="#000000" stroke-miterlimit="10" width="4.9" height="2.6"/>
<rect x="189" y="79.8" fill="#F3F3F3" stroke="#000000" stroke-miterlimit="10" width="4.7" height="2.6"/>
<line fill="#F3F3F3" stroke="#000000" stroke-miterlimit="10" x1="193.8" y1="82.4" x2="226.1" y2="101.2"/>
<line fill="#F3F3F3" stroke="#000000" stroke-miterlimit="10" x1="180.4" y1="280.1" x2="215.1" y2="259.5"/>
<line fill="#F3F3F3" stroke="#000000" stroke-miterlimit="10" x1="157.4" y1="280.1" x2="122.2" y2="259.5"/>
<line fill="#F3F3F3" stroke="#000000" stroke-miterlimit="10" x1="108.7" y1="316" x2="126.7" y2="348"/>
<line fill="#F3F3F3" stroke="#000000" stroke-miterlimit="10" x1="355.2" y1="360.7" x2="370.3" y2="403.7"/>
<line fill="#F3F3F3" stroke="#000000" stroke-miterlimit="10" x1="108.7" y1="429.7" x2="126.7" y2="399.2"/>
<line fill="#F3F3F3" stroke="#000000" stroke-miterlimit="10" x1="153.1" y1="499.8" x2="117.7" y2="479.3"/>
<line fill="#F3F3F3" stroke="#000000" stroke-miterlimit="10" x1="148.4" y1="715.7" x2="116.8" y2="697.7"/>
<rect x="122.4" y="5.1" fill="#838383" stroke="#000000" stroke-miterlimit="10" width="54.8" height="6.9"/>
<rect x="125.2" y="11.9" fill="#838383" stroke="#000000" stroke-miterlimit="10" width="34.8" height="11"/>
<rect x="160.1" y="11.9" fill="#838383" stroke="#000000" stroke-miterlimit="10" width="10.9" height="171"/>
<rect x="171" y="11.9" fill="#838383" stroke="#000000" stroke-miterlimit="10" width="6.2" height="67.9"/>
<rect x="177.2" y="72.5" fill="#838383" stroke="#000000" stroke-miterlimit="10" width="14.4" height="7.3"/>
<rect x="171" y="79.8" fill="#838383" stroke="#000000" stroke-miterlimit="10" width="18" height="10.9"/>
<rect x="6" y="5.1" fill="#838383" stroke="#000000" stroke-miterlimit="10" width="51.5" height="6.9"/>
<rect x="22.4" y="11.9" fill="#838383" stroke="#000000" stroke-miterlimit="10" width="32.6" height="11"/>
<rect x="6" y="11.9" fill="#838383" stroke="#000000" stroke-miterlimit="10" width="16.4" height="776.5"/>
<rect x="6" y="788.5" fill="#838383" stroke="#000000" stroke-miterlimit="10" width="22.8" height="6.6"/>
<rect x="22.4" y="718.6" fill="#838383" stroke="#000000" stroke-miterlimit="10" width="60.3" height="7.2"/>
<rect x="22.4" y="707.8" fill="#838383" stroke="#000000" stroke-miterlimit="10" width="58.5" height="10.8"/>
<rect x="22.4" y="725.8" fill="#838383" stroke="#000000" stroke-miterlimit="10" width="6.5" height="62.7"/>
<rect x="152.7" y="707.8" fill="#838383" stroke="#000000" stroke-miterlimit="10" width="7.2" height="10.8"/>
<rect x="150.6" y="718.6" fill="#838383" stroke="#000000" stroke-miterlimit="10" width="9.3" height="7.2"/>
<rect x="152.7" y="725.8" fill="#838383" stroke="#000000" stroke-miterlimit="10" width="7.2" height="62.7"/>
<rect x="152.7" y="788.5" fill="#838383" stroke="#000000" stroke-miterlimit="10" width="61.6" height="6.6"/>
<rect x="159.9" y="707.8" fill="#838383" stroke="#000000" stroke-miterlimit="10" width="11.4" height="80.7"/>
<rect x="171.3" y="777" fill="#838383" stroke="#000000" stroke-miterlimit="10" width="40.1" height="11.4"/>
<rect x="322.2" y="788.5" fill="#838383" stroke="#000000" stroke-miterlimit="10" width="30.5" height="6.6"/>
<rect x="324.2" y="777" fill="#838383" stroke="#000000" stroke-miterlimit="10" width="17.7" height="11.4"/>
<rect x="157.4" y="428" fill="#838383" stroke="#000000" stroke-miterlimit="10" width="14" height="107.7"/>
<rect x="341.9" y="428.5" fill="#838383" stroke="#000000" stroke-miterlimit="10" width="10.8" height="359.9"/>
<rect x="335.6" y="5.1" fill="#838383" stroke="#000000" stroke-miterlimit="10" width="17.3" height="6.9"/>
<rect x="342.2" y="11.9" fill="#838383" stroke="#000000" stroke-miterlimit="10" width="10.7" height="78.8"/>
<rect x="270.4" y="79.8" fill="#838383" stroke="#000000" stroke-miterlimit="10" width="71.8" height="10.9"/>
<rect x="268.3" y="72.5" fill="#838383" stroke="#000000" stroke-miterlimit="10" width="73.9" height="7.3"/>
<rect x="335.6" y="11.9" fill="#838383" stroke="#000000" stroke-miterlimit="10" width="6.6" height="60.5"/>
<rect x="342.2" y="90.7" fill="#838383" stroke="#000000" stroke-miterlimit="10" width="13.2" height="170.5"/>
<rect x="342.2" y="261.3" fill="#838383" stroke="#000000" stroke-miterlimit="10" width="13.2" height="99.9"/>
<rect x="341.9" y="407.2" fill="#838383" stroke="#000000" stroke-miterlimit="10" width="11" height="21.3"/>
<rect x="220.3" y="279.6" fill="#C6C6C6" stroke="#000000" stroke-miterlimit="10" width="121.9" height="4.5"/>
<rect x="157.4" y="279.6" fill="#C6C6C6" stroke="#000000" stroke-miterlimit="10" width="23" height="4.5"/>
<rect x="22.4" y="279.6" fill="#C6C6C6" stroke="#000000" stroke-miterlimit="10" width="94.6" height="4.5"/>
<rect x="166.5" y="183" fill="#C6C6C6" stroke="#000000" stroke-miterlimit="10" width="4.5" height="96.6"/>
<rect x="104.7" y="284.3" fill="#C6C6C6" stroke="#000000" stroke-miterlimit="10" width="3.8" height="32.5"/>
<rect x="22.4" y="287" fill="#C6C6C6" stroke="#000000" stroke-miterlimit="10" width="82.3" height="3.8"/>
<rect x="104.7" y="347.7" fill="#C6C6C6" stroke="#000000" stroke-miterlimit="10" width="3.8" height="45.9"/>
<rect x="22.4" y="351.9" fill="#C6C6C6" stroke="#000000" stroke-miterlimit="10" width="82.2" height="3.8"/>
<rect x="72.2" y="355.7" fill="#C6C6C6" stroke="#000000" stroke-miterlimit="10" width="3.8" height="23.7"/>
<rect x="22.4" y="499.8" fill="#C6C6C6" stroke="#000000" stroke-miterlimit="10" width="89.9" height="4.5"/>
<rect x="104.7" y="428.8" fill="#C6C6C6" stroke="#000000" stroke-miterlimit="10" width="3.8" height="70.9"/>
<rect x="22.4" y="493" fill="#C6C6C6" stroke="#000000" stroke-miterlimit="10" width="82.2" height="3.8"/>
<rect x="22.4" y="355.9" fill="#C6C6C6" stroke="#000000" stroke-miterlimit="10" width="3.8" height="137.1"/>
<rect x="42.6" y="375.6" fill="#C6C6C6" stroke="#000000" stroke-miterlimit="10" width="29.5" height="3.8"/>
<rect x="153.1" y="499.8" fill="#C6C6C6" stroke="#000000" stroke-miterlimit="10" width="4.3" height="4.5"/>
<rect x="264.8" y="412.2" fill="#C6C6C6" stroke="#000000" stroke-miterlimit="10" width="3.8" height="28.5"/>
<rect x="303.3" y="402.2" transform="matrix(-1.836970e-16 1 -1 -1.836970e-16 744.0934 133.5621)" fill="#C6C6C6" stroke="#000000" stroke-miterlimit="10" width="3.8" height="73.3"/>
<rect x="294.9" y="386" transform="matrix(-1.836970e-16 1 -1 -1.836970e-16 710.9373 117.3503)" fill="#C6C6C6" stroke="#000000" stroke-miterlimit="10" width="3.8" height="56.4"/>
<rect x="164.4" y="535.7" fill="#C6C6C6" stroke="#000000" stroke-miterlimit="10" width="7" height="172.1"/>
<rect x="26.2" y="377.5" fill="#C6C6C6" stroke="#000000" stroke-miterlimit="10" width="16.4" height="1.9"/>
<rect x="325" y="412.2" fill="#C6C6C6" stroke="#000000" stroke-miterlimit="10" width="16.9" height="1.9"/>
<g>
	<path d="M194.6,575.1h-1.4v2.9h-0.6v-6.3h0.6v2.8h1.4l2.1-2.8h0.7l-2.3,3.1l2.5,3.2h-0.8L194.6,575.1z"/>
	<path d="M202.5,573.2l-2.4,5.3c-0.2,0.4-0.4,0.8-0.7,0.9s-0.6,0.3-0.9,0.3c-0.2,0-0.4,0-0.6-0.1c-0.2-0.1-0.4-0.2-0.5-0.3l0.3-0.5
		c0.2,0.2,0.5,0.4,0.9,0.4c0.2,0,0.4-0.1,0.6-0.2c0.2-0.1,0.3-0.3,0.4-0.6l0.2-0.5l-2.1-4.7h0.7l1.8,4l1.8-4H202.5z"/>
	<path d="M206.2,578l-1.5-2l-1.5,2h-0.7l1.9-2.4l-1.8-2.3h0.7l1.4,1.9l1.4-1.9h0.7l-1.8,2.3l1.9,2.4H206.2z"/>
	<path d="M207.9,573.2h0.6v2.1h3v-2.1h0.6v4.7h-0.6v-2.1h-3v2.1h-0.6V573.2z"/>
	<path d="M217.7,573.2v4.7h-0.6v-1.6h-1.5h-0.2l-1.1,1.6h-0.7l1.2-1.7c-0.4-0.1-0.6-0.3-0.8-0.5c-0.2-0.2-0.3-0.6-0.3-0.9
		c0-0.5,0.2-0.9,0.5-1.2s0.9-0.4,1.5-0.4H217.7z M215.6,575.9h1.4v-2.1h-1.4c-0.9,0-1.4,0.4-1.4,1.1
		C214.3,575.6,214.7,575.9,215.6,575.9z"/>
	<path d="M219.1,575.3h2.4v0.6h-2.4V575.3z"/>
	<path d="M193,588.5c-0.4-0.2-0.7-0.5-0.9-0.9c-0.2-0.4-0.3-0.8-0.3-1.2s0.1-0.9,0.3-1.2c0.2-0.4,0.5-0.7,0.9-0.9s0.8-0.3,1.3-0.3
		c0.4,0,0.8,0.1,1.1,0.2c0.3,0.2,0.6,0.4,0.8,0.7l-0.5,0.3c-0.2-0.2-0.4-0.4-0.6-0.5c-0.2-0.1-0.5-0.2-0.8-0.2
		c-0.3,0-0.7,0.1-0.9,0.2s-0.5,0.4-0.6,0.7c-0.2,0.3-0.2,0.6-0.2,1c0,0.4,0.1,0.7,0.2,1s0.4,0.5,0.6,0.6s0.6,0.2,0.9,0.2
		c0.3,0,0.5-0.1,0.8-0.2c0.2-0.1,0.4-0.3,0.6-0.5l0.5,0.3c-0.2,0.3-0.4,0.5-0.8,0.7c-0.3,0.2-0.7,0.2-1.1,0.2
		C193.8,588.9,193.4,588.8,193,588.5z"/>
	<path d="M200.6,584.6h-1.8v4.2h-0.6v-4.2h-1.8v-0.6h4.2V584.6z"/>
	<path d="M202.1,588.5c-0.4-0.2-0.7-0.5-0.9-0.9c-0.2-0.4-0.3-0.8-0.3-1.2s0.1-0.9,0.3-1.2c0.2-0.4,0.5-0.7,0.9-0.9
		c0.4-0.2,0.8-0.3,1.2-0.3c0.5,0,0.9,0.1,1.2,0.3s0.7,0.5,0.9,0.9c0.2,0.4,0.3,0.8,0.3,1.2s-0.1,0.9-0.3,1.2
		c-0.2,0.4-0.5,0.7-0.9,0.9c-0.4,0.2-0.8,0.3-1.2,0.3C202.9,588.9,202.4,588.7,202.1,588.5z M204.2,588.1c0.3-0.2,0.5-0.4,0.6-0.7
		c0.2-0.3,0.2-0.6,0.2-1c0-0.4-0.1-0.7-0.2-1c-0.2-0.3-0.4-0.5-0.6-0.7c-0.3-0.2-0.6-0.2-0.9-0.2c-0.3,0-0.6,0.1-0.9,0.2
		c-0.3,0.2-0.5,0.4-0.6,0.7c-0.2,0.3-0.2,0.6-0.2,1c0,0.4,0.1,0.7,0.2,1c0.2,0.3,0.4,0.5,0.6,0.7c0.3,0.2,0.6,0.2,0.9,0.2
		C203.6,588.3,203.9,588.2,204.2,588.1z"/>
	<path d="M210.9,584.1v4.7h-0.6v-4.2H208l-0.1,1.2c0,1-0.2,1.7-0.3,2.3c-0.2,0.5-0.5,0.8-1,0.8c-0.1,0-0.3,0-0.5-0.1l0-0.5
		c0.1,0,0.2,0,0.2,0c0.2,0,0.4-0.1,0.6-0.3c0.1-0.2,0.2-0.5,0.3-0.8c0-0.3,0.1-0.8,0.1-1.3l0.1-1.7H210.9z"/>
	<path d="M213.5,588.5c-0.4-0.2-0.7-0.5-0.9-0.9c-0.2-0.4-0.3-0.8-0.3-1.2s0.1-0.9,0.3-1.2c0.2-0.4,0.5-0.7,0.9-0.9
		c0.4-0.2,0.8-0.3,1.2-0.3c0.5,0,0.9,0.1,1.2,0.3s0.7,0.5,0.9,0.9c0.2,0.4,0.3,0.8,0.3,1.2s-0.1,0.9-0.3,1.2
		c-0.2,0.4-0.5,0.7-0.9,0.9c-0.4,0.2-0.8,0.3-1.2,0.3C214.3,588.9,213.8,588.7,213.5,588.5z M215.6,588.1c0.3-0.2,0.5-0.4,0.6-0.7
		c0.2-0.3,0.2-0.6,0.2-1c0-0.4-0.1-0.7-0.2-1c-0.2-0.3-0.4-0.5-0.6-0.7c-0.3-0.2-0.6-0.2-0.9-0.2c-0.3,0-0.6,0.1-0.9,0.2
		c-0.3,0.2-0.5,0.4-0.6,0.7c-0.2,0.3-0.2,0.6-0.2,1c0,0.4,0.1,0.7,0.2,1c0.2,0.3,0.4,0.5,0.6,0.7c0.3,0.2,0.6,0.2,0.9,0.2
		C215.1,588.3,215.4,588.2,215.6,588.1z"/>
	<path d="M222.5,587.5c0,0.4-0.2,0.7-0.5,1c-0.3,0.2-0.8,0.3-1.4,0.3h-2.2v-4.7h2.1c0.5,0,1,0.1,1.3,0.3c0.3,0.2,0.5,0.5,0.5,0.9
		c0,0.3-0.1,0.5-0.2,0.7c-0.1,0.2-0.3,0.3-0.6,0.4C222.2,586.5,222.5,586.9,222.5,587.5z M219.1,586.2h1.4c0.4,0,0.6-0.1,0.8-0.2
		c0.2-0.1,0.3-0.3,0.3-0.6s-0.1-0.5-0.3-0.6c-0.2-0.1-0.5-0.2-0.8-0.2h-1.4V586.2z M221.5,588.1c0.2-0.1,0.3-0.3,0.3-0.6
		c0-0.3-0.1-0.5-0.3-0.6c-0.2-0.1-0.5-0.2-0.9-0.2h-1.6v1.7h1.5C221,588.3,221.3,588.2,221.5,588.1z"/>
	<path d="M227,584.5c0.3,0.3,0.5,0.8,0.5,1.4v2.9h-0.6v-0.7c-0.1,0.2-0.4,0.4-0.6,0.6c-0.3,0.1-0.6,0.2-1,0.2
		c-0.5,0-0.9-0.1-1.3-0.4c-0.3-0.3-0.5-0.6-0.5-1c0-0.4,0.1-0.7,0.4-1c0.3-0.2,0.8-0.4,1.4-0.4h1.5v-0.3c0-0.4-0.1-0.7-0.3-0.9
		c-0.2-0.2-0.6-0.3-1-0.3c-0.3,0-0.6,0-0.9,0.1c-0.3,0.1-0.5,0.2-0.7,0.4l-0.3-0.5c0.2-0.2,0.5-0.4,0.9-0.5c0.3-0.1,0.7-0.2,1.1-0.2
		C226.2,584,226.7,584.2,227,584.5z M226.3,588.1c0.3-0.2,0.5-0.4,0.6-0.7v-0.8h-1.5c-0.8,0-1.2,0.3-1.2,0.8c0,0.3,0.1,0.5,0.3,0.7
		c0.2,0.2,0.5,0.2,0.9,0.2C225.7,588.3,226.1,588.3,226.3,588.1z"/>
	<path d="M232.9,584.1v4.7h-0.6v-1.6h-1.5h-0.2l-1.1,1.6h-0.7l1.2-1.7c-0.4-0.1-0.6-0.3-0.8-0.5c-0.2-0.2-0.3-0.6-0.3-0.9
		c0-0.5,0.2-0.9,0.5-1.2s0.9-0.4,1.5-0.4H232.9z M230.9,586.8h1.4v-2.1h-1.4c-0.9,0-1.4,0.4-1.4,1.1
		C229.5,586.4,230,586.8,230.9,586.8z"/>
	<path d="M197.5,601.4v1h-5.7v-0.8l3.2-3.1c0.4-0.4,0.7-0.7,0.8-1s0.2-0.6,0.2-0.8c0-0.4-0.1-0.7-0.4-1c-0.3-0.2-0.7-0.3-1.2-0.3
		c-0.9,0-1.5,0.3-2,0.9l-0.8-0.7c0.3-0.4,0.7-0.7,1.2-0.9c0.5-0.2,1.1-0.3,1.7-0.3c0.8,0,1.5,0.2,2,0.6c0.5,0.4,0.7,0.9,0.7,1.6
		c0,0.4-0.1,0.8-0.3,1.2c-0.2,0.4-0.5,0.8-1,1.3l-2.4,2.3H197.5z"/>
	<path d="M203.4,595.4c0.6,0.7,0.9,1.7,0.9,2.9c0,0.9-0.2,1.6-0.5,2.2s-0.7,1.1-1.3,1.4c-0.6,0.3-1.2,0.5-2,0.5
		c-0.4,0-0.7,0-1.1-0.1s-0.6-0.2-0.9-0.3l0.4-0.9c0.4,0.2,0.9,0.4,1.5,0.4c0.8,0,1.5-0.3,1.9-0.8c0.5-0.5,0.7-1.2,0.7-2.2v-0.3
		c-0.2,0.3-0.5,0.6-0.9,0.8c-0.4,0.2-0.8,0.3-1.3,0.3c-0.5,0-1-0.1-1.4-0.3c-0.4-0.2-0.7-0.5-1-0.8c-0.2-0.4-0.3-0.8-0.3-1.3
		c0-0.5,0.1-0.9,0.4-1.3c0.2-0.4,0.6-0.7,1-0.9c0.4-0.2,0.9-0.3,1.4-0.3C202,594.4,202.9,594.7,203.4,595.4z M202,598.1
		c0.3-0.1,0.5-0.3,0.6-0.6c0.2-0.2,0.2-0.5,0.2-0.8c0-0.3-0.1-0.5-0.2-0.8c-0.1-0.2-0.4-0.4-0.6-0.6c-0.3-0.1-0.6-0.2-1-0.2
		c-0.5,0-0.9,0.1-1.3,0.4c-0.3,0.3-0.5,0.7-0.5,1.1s0.2,0.8,0.5,1.1s0.8,0.4,1.3,0.4C201.4,598.3,201.7,598.3,202,598.1z"/>
	<path d="M206.5,601.1c0.1,0.1,0.2,0.3,0.2,0.5c0,0.1,0,0.2,0,0.3c0,0.1-0.1,0.3-0.2,0.5L206,604h-0.7l0.4-1.7
		c-0.1-0.1-0.3-0.1-0.3-0.3c-0.1-0.1-0.1-0.3-0.1-0.4c0-0.2,0.1-0.4,0.2-0.6c0.1-0.1,0.3-0.2,0.5-0.2
		C206.2,600.9,206.4,600.9,206.5,601.1z"/>
	<path d="M213.8,598.9c0.2,0.3,0.4,0.7,0.4,1.2c0,0.5-0.1,0.9-0.4,1.2c-0.3,0.3-0.6,0.6-1.1,0.8c-0.5,0.2-1,0.3-1.7,0.3
		c-0.6,0-1.2-0.1-1.7-0.3s-0.8-0.5-1.1-0.8c-0.3-0.3-0.4-0.8-0.4-1.2c0-0.5,0.1-0.8,0.4-1.2s0.6-0.6,1-0.7c-0.4-0.2-0.6-0.4-0.8-0.7
		c-0.2-0.3-0.3-0.6-0.3-1c0-0.4,0.1-0.8,0.4-1.1c0.2-0.3,0.6-0.6,1-0.7s0.9-0.3,1.5-0.3c0.6,0,1.1,0.1,1.5,0.3s0.8,0.4,1,0.7
		c0.2,0.3,0.4,0.7,0.4,1.1c0,0.4-0.1,0.7-0.3,1s-0.5,0.5-0.8,0.7C213.2,598.4,213.5,598.6,213.8,598.9z M212.5,601.1
		c0.4-0.3,0.5-0.6,0.5-1.1c0-0.4-0.2-0.8-0.5-1s-0.9-0.4-1.5-0.4s-1.1,0.1-1.5,0.4s-0.5,0.6-0.5,1c0,0.4,0.2,0.8,0.5,1.1
		c0.4,0.3,0.8,0.4,1.5,0.4S212.1,601.4,212.5,601.1z M209.7,595.6c-0.3,0.2-0.5,0.5-0.5,0.9s0.2,0.7,0.5,0.9s0.7,0.3,1.3,0.3
		c0.5,0,1-0.1,1.3-0.3c0.3-0.2,0.5-0.5,0.5-0.9s-0.2-0.7-0.5-0.9s-0.7-0.3-1.3-0.3S210,595.4,209.7,595.6z"/>
</g>
<g>
	<path d="M203,230.9c-0.5-0.3-0.9-0.7-1.2-1.1c-0.3-0.5-0.4-1-0.4-1.6c0-0.6,0.1-1.2,0.4-1.6c0.3-0.5,0.7-0.9,1.2-1.1
		c0.5-0.3,1.1-0.4,1.7-0.4c0.5,0,0.9,0.1,1.3,0.2s0.7,0.4,1,0.7l-0.4,0.4c-0.5-0.5-1.1-0.7-1.9-0.7c-0.5,0-1,0.1-1.4,0.3
		s-0.7,0.5-1,0.9c-0.2,0.4-0.3,0.8-0.3,1.3c0,0.5,0.1,0.9,0.3,1.3c0.2,0.4,0.6,0.7,1,0.9s0.9,0.3,1.4,0.3c0.8,0,1.4-0.3,1.9-0.8
		l0.4,0.4c-0.3,0.3-0.6,0.5-1,0.7c-0.4,0.2-0.8,0.2-1.3,0.2C204.1,231.3,203.5,231.2,203,230.9z"/>
	<path d="M212.5,226.5v4.7h-0.6v-4.2h-3v4.2h-0.6v-4.7H212.5z"/>
	<path d="M217.4,227c0.3,0.3,0.5,0.8,0.5,1.4v2.9h-0.6v-0.7c-0.1,0.2-0.4,0.4-0.6,0.6c-0.3,0.1-0.6,0.2-1,0.2
		c-0.5,0-0.9-0.1-1.3-0.4c-0.3-0.3-0.5-0.6-0.5-1c0-0.4,0.1-0.7,0.4-1c0.3-0.2,0.8-0.4,1.4-0.4h1.5v-0.3c0-0.4-0.1-0.7-0.3-0.9
		s-0.6-0.3-1-0.3c-0.3,0-0.6,0-0.9,0.1c-0.3,0.1-0.5,0.2-0.7,0.4l-0.3-0.5c0.2-0.2,0.5-0.4,0.9-0.5c0.3-0.1,0.7-0.2,1.1-0.2
		C216.6,226.5,217.1,226.6,217.4,227z M216.7,230.6c0.3-0.2,0.5-0.4,0.6-0.7v-0.8h-1.5c-0.8,0-1.2,0.3-1.2,0.8
		c0,0.3,0.1,0.5,0.3,0.7s0.5,0.2,0.9,0.2C216.1,230.8,216.4,230.7,216.7,230.6z"/>
	<path d="M223.5,226.5v4.7h-0.6v-4.2h-2.3l-0.1,1.2c0,1-0.2,1.7-0.3,2.3c-0.2,0.5-0.5,0.8-1,0.8c-0.1,0-0.3,0-0.5-0.1l0-0.6
		c0.1,0,0.2,0,0.2,0c0.2,0,0.4-0.1,0.6-0.3c0.1-0.2,0.2-0.5,0.3-0.8c0-0.3,0.1-0.8,0.1-1.3l0.1-1.7H223.5z"/>
	<path d="M228.7,228.6c0.3,0.3,0.5,0.6,0.5,1.1c0,0.5-0.2,0.9-0.5,1.2c-0.3,0.3-0.8,0.4-1.4,0.4l-1.9,0v-4.7h0.6v1.7l1.4,0
		C227.9,228.2,228.4,228.3,228.7,228.6z M228.2,230.5c0.2-0.2,0.3-0.5,0.3-0.8c0-0.3-0.1-0.6-0.3-0.8c-0.2-0.2-0.6-0.3-1-0.3l-1.2,0
		v2.1l1.2,0C227.6,230.8,227.9,230.7,228.2,230.5z"/>
	<path d="M230.4,226.5h0.6v2.1h3v-2.1h0.6v4.7H234v-2.1h-3v2.1h-0.6V226.5z"/>
	<path d="M240.1,226.5v4.7h-0.6v-1.6H238h-0.2l-1.1,1.6h-0.7l1.2-1.7c-0.4-0.1-0.6-0.3-0.8-0.5s-0.3-0.6-0.3-0.9
		c0-0.5,0.2-0.9,0.5-1.2c0.4-0.3,0.9-0.4,1.5-0.4H240.1z M238.1,229.2h1.4v-2.1h-1.4c-0.9,0-1.4,0.4-1.4,1.1
		C236.7,228.9,237.2,229.2,238.1,229.2z"/>
	<path d="M203.9,236.9v7.9h-1.1v-6.9H201v-1H203.9z"/>
	<path d="M210.4,240.7c0.5,0.4,0.8,1,0.8,1.7c0,0.5-0.1,0.9-0.3,1.3c-0.2,0.4-0.6,0.7-1,0.9c-0.4,0.2-1,0.3-1.7,0.3
		c-0.6,0-1.1-0.1-1.6-0.3c-0.5-0.2-0.9-0.4-1.3-0.7l0.5-0.9c0.3,0.3,0.6,0.5,1,0.6c0.4,0.2,0.9,0.2,1.3,0.2c0.6,0,1.1-0.1,1.4-0.4
		c0.3-0.3,0.5-0.6,0.5-1c0-0.5-0.2-0.8-0.5-1.1s-1-0.4-1.8-0.4h-1.8l0.4-4.1h4.5v1h-3.5L207,240h0.9
		C209,240,209.8,240.3,210.4,240.7z"/>
	<path d="M213.4,243.5c0.1,0.1,0.2,0.3,0.2,0.5c0,0.1,0,0.2,0,0.3c0,0.1-0.1,0.3-0.2,0.5l-0.5,1.6h-0.7l0.4-1.7
		c-0.1-0.1-0.3-0.1-0.3-0.3c-0.1-0.1-0.1-0.3-0.1-0.4c0-0.2,0.1-0.4,0.2-0.6c0.1-0.1,0.3-0.2,0.5-0.2
		C213,243.3,213.2,243.4,213.4,243.5z"/>
	<path d="M220.6,241.4c0.2,0.3,0.4,0.7,0.4,1.2c0,0.5-0.1,0.9-0.4,1.2c-0.3,0.3-0.6,0.6-1.1,0.8c-0.5,0.2-1,0.3-1.7,0.3
		c-0.6,0-1.2-0.1-1.7-0.3c-0.5-0.2-0.8-0.5-1.1-0.8c-0.3-0.3-0.4-0.8-0.4-1.2c0-0.5,0.1-0.8,0.4-1.2c0.2-0.3,0.6-0.6,1-0.7
		c-0.4-0.2-0.6-0.4-0.8-0.7c-0.2-0.3-0.3-0.6-0.3-1c0-0.4,0.1-0.8,0.4-1.1s0.6-0.6,1-0.7s0.9-0.3,1.5-0.3c0.6,0,1.1,0.1,1.5,0.3
		s0.8,0.4,1,0.7c0.2,0.3,0.4,0.7,0.4,1.1c0,0.4-0.1,0.7-0.3,1c-0.2,0.3-0.5,0.5-0.8,0.7C220,240.8,220.4,241.1,220.6,241.4z
		 M219.3,243.6c0.4-0.3,0.5-0.6,0.5-1.1c0-0.4-0.2-0.8-0.5-1s-0.9-0.4-1.5-0.4s-1.1,0.1-1.5,0.4s-0.5,0.6-0.5,1
		c0,0.4,0.2,0.8,0.5,1.1s0.8,0.4,1.5,0.4S218.9,243.8,219.3,243.6z M216.6,238.1c-0.3,0.2-0.5,0.5-0.5,0.9s0.2,0.7,0.5,0.9
		c0.3,0.2,0.7,0.3,1.3,0.3c0.5,0,1-0.1,1.3-0.3c0.3-0.2,0.5-0.5,0.5-0.9s-0.2-0.7-0.5-0.9c-0.3-0.2-0.7-0.3-1.3-0.3
		S216.9,237.8,216.6,238.1z"/>
</g>
<g>
	<path d="M37.4,48.4c-0.5-0.3-0.9-0.7-1.2-1.1c-0.3-0.5-0.4-1-0.4-1.6c0-0.6,0.1-1.2,0.4-1.6c0.3-0.5,0.7-0.9,1.2-1.1
		c0.5-0.3,1.1-0.4,1.7-0.4c0.5,0,0.9,0.1,1.3,0.2s0.7,0.4,1,0.7L41,43.7c-0.5-0.5-1.1-0.7-1.9-0.7c-0.5,0-1,0.1-1.4,0.3
		s-0.7,0.5-1,0.9c-0.2,0.4-0.3,0.8-0.3,1.3c0,0.5,0.1,0.9,0.3,1.3c0.2,0.4,0.6,0.7,1,0.9s0.9,0.3,1.4,0.3c0.8,0,1.4-0.3,1.9-0.8
		l0.4,0.4c-0.3,0.3-0.6,0.5-1,0.7c-0.4,0.2-0.8,0.2-1.3,0.2C38.4,48.8,37.9,48.6,37.4,48.4z"/>
	<path d="M46.9,44v4.7h-0.6v-4.2h-3v4.2h-0.6V44H46.9z"/>
	<path d="M51.7,44.4c0.3,0.3,0.5,0.8,0.5,1.4v2.9h-0.6V48c-0.1,0.2-0.4,0.4-0.6,0.6c-0.3,0.1-0.6,0.2-1,0.2c-0.5,0-0.9-0.1-1.3-0.4
		c-0.3-0.3-0.5-0.6-0.5-1c0-0.4,0.1-0.7,0.4-1c0.3-0.2,0.8-0.4,1.4-0.4h1.5v-0.3c0-0.4-0.1-0.7-0.3-0.9s-0.6-0.3-1-0.3
		c-0.3,0-0.6,0-0.9,0.1c-0.3,0.1-0.5,0.2-0.7,0.4l-0.3-0.5c0.2-0.2,0.5-0.4,0.9-0.5c0.3-0.1,0.7-0.2,1.1-0.2
		C50.9,44,51.4,44.1,51.7,44.4z M51,48c0.3-0.2,0.5-0.4,0.6-0.7v-0.8h-1.5c-0.8,0-1.2,0.3-1.2,0.8c0,0.3,0.1,0.5,0.3,0.7
		s0.5,0.2,0.9,0.2C50.5,48.3,50.8,48.2,51,48z"/>
	<path d="M57.8,44v4.7h-0.6v-4.2h-2.3l-0.1,1.2c0,1-0.2,1.7-0.3,2.3c-0.2,0.5-0.5,0.8-1,0.8c-0.1,0-0.3,0-0.5-0.1l0-0.6
		c0.1,0,0.2,0,0.2,0c0.2,0,0.4-0.1,0.6-0.3c0.1-0.2,0.2-0.5,0.3-0.8c0-0.3,0.1-0.8,0.1-1.3l0.1-1.7H57.8z"/>
	<path d="M63,46.1c0.3,0.3,0.5,0.6,0.5,1.1c0,0.5-0.2,0.9-0.5,1.2c-0.3,0.3-0.8,0.4-1.4,0.4l-1.9,0V44h0.6v1.7l1.4,0
		C62.3,45.7,62.7,45.8,63,46.1z M62.5,48c0.2-0.2,0.3-0.5,0.3-0.8c0-0.3-0.1-0.6-0.3-0.8c-0.2-0.2-0.6-0.3-1-0.3l-1.2,0v2.1l1.2,0
		C62,48.3,62.3,48.2,62.5,48z"/>
	<path d="M64.7,44h0.6v2.1h3V44H69v4.7h-0.6v-2.1h-3v2.1h-0.6V44z"/>
	<path d="M74.4,44v4.7h-0.6v-1.6h-1.5h-0.2l-1.1,1.6h-0.7l1.2-1.7c-0.4-0.1-0.6-0.3-0.8-0.5c-0.2-0.2-0.3-0.6-0.3-0.9
		c0-0.5,0.2-0.9,0.5-1.2c0.4-0.3,0.9-0.4,1.5-0.4H74.4z M72.4,46.7h1.4v-2.1h-1.4c-0.9,0-1.4,0.4-1.4,1.1
		C71.1,46.3,71.5,46.7,72.4,46.7z"/>
	<path d="M38.2,54.4v7.9h-1.1v-6.9h-1.8v-1H38.2z"/>
	<path d="M45.7,54.4v0.8l-3.2,7.1h-1.2l3.1-6.9h-3.6v1.4h-1.1v-2.4H45.7z"/>
	<path d="M47.4,61c0.1,0.1,0.2,0.3,0.2,0.5c0,0.1,0,0.2,0,0.3c0,0.1-0.1,0.3-0.2,0.5l-0.5,1.6h-0.7l0.4-1.7
		c-0.1-0.1-0.3-0.1-0.3-0.3c-0.1-0.1-0.1-0.3-0.1-0.4c0-0.2,0.1-0.4,0.2-0.6c0.1-0.1,0.3-0.2,0.5-0.2C47.1,60.8,47.2,60.9,47.4,61z"
		/>
	<path d="M53.3,57.8c0.4,0.2,0.7,0.5,1,0.8c0.2,0.4,0.3,0.8,0.3,1.3c0,0.5-0.1,0.9-0.4,1.3c-0.2,0.4-0.6,0.7-1,0.9
		c-0.4,0.2-0.9,0.3-1.4,0.3c-1.1,0-1.9-0.3-2.5-1c-0.6-0.7-0.9-1.7-0.9-2.9c0-0.9,0.2-1.6,0.5-2.2c0.3-0.6,0.7-1.1,1.3-1.4
		c0.6-0.3,1.2-0.5,2-0.5c0.4,0,0.7,0,1.1,0.1c0.3,0.1,0.6,0.2,0.9,0.3l-0.4,0.9c-0.4-0.2-0.9-0.4-1.5-0.4c-0.8,0-1.5,0.3-1.9,0.8
		c-0.5,0.5-0.7,1.2-0.7,2.2c0,0.1,0,0.2,0,0.3c0.2-0.3,0.5-0.6,0.9-0.8c0.4-0.2,0.8-0.3,1.3-0.3C52.5,57.5,52.9,57.6,53.3,57.8z
		 M53.1,61c0.3-0.3,0.5-0.6,0.5-1.1c0-0.5-0.2-0.8-0.5-1.1c-0.3-0.3-0.8-0.4-1.3-0.4c-0.4,0-0.7,0.1-0.9,0.2
		c-0.3,0.1-0.5,0.3-0.6,0.6c-0.2,0.2-0.2,0.5-0.2,0.8c0,0.3,0.1,0.5,0.2,0.8c0.1,0.2,0.4,0.4,0.6,0.6c0.3,0.1,0.6,0.2,1,0.2
		C52.3,61.4,52.7,61.3,53.1,61z"/>
</g>
<g>
	<path d="M112.8,566.7c-0.5-0.3-0.9-0.7-1.2-1.2c-0.3-0.5-0.4-1-0.4-1.6s0.1-1.2,0.4-1.6s0.7-0.9,1.2-1.1s1.1-0.4,1.7-0.4
		c0.5,0,0.9,0.1,1.3,0.2s0.7,0.4,1,0.7l-0.4,0.4c-0.5-0.5-1.1-0.7-1.9-0.7c-0.5,0-1,0.1-1.4,0.3s-0.7,0.5-1,0.9
		c-0.2,0.4-0.3,0.8-0.3,1.3s0.1,0.9,0.3,1.3c0.2,0.4,0.6,0.7,1,0.9s0.9,0.3,1.4,0.3c0.8,0,1.4-0.3,1.9-0.8l0.4,0.4
		c-0.3,0.3-0.6,0.5-1,0.7c-0.4,0.2-0.8,0.2-1.3,0.2C113.9,567.1,113.3,567,112.8,566.7z"/>
	<path d="M122.3,562.3v4.7h-0.6v-4.2h-3v4.2H118v-4.7H122.3z"/>
	<path d="M127.2,562.8c0.3,0.3,0.5,0.8,0.5,1.4v2.9h-0.6v-0.7c-0.1,0.2-0.4,0.4-0.6,0.6c-0.3,0.1-0.6,0.2-1,0.2
		c-0.5,0-0.9-0.1-1.3-0.4c-0.3-0.3-0.5-0.6-0.5-1c0-0.4,0.1-0.7,0.4-1c0.3-0.2,0.8-0.4,1.4-0.4h1.5v-0.3c0-0.4-0.1-0.7-0.3-0.9
		c-0.2-0.2-0.6-0.3-1-0.3c-0.3,0-0.6,0-0.9,0.1c-0.3,0.1-0.5,0.2-0.7,0.4l-0.3-0.5c0.2-0.2,0.5-0.4,0.9-0.5c0.3-0.1,0.7-0.2,1.1-0.2
		C126.4,562.3,126.8,562.4,127.2,562.8z M126.4,566.4c0.3-0.2,0.5-0.4,0.6-0.7v-0.8h-1.5c-0.8,0-1.2,0.3-1.2,0.8
		c0,0.3,0.1,0.5,0.3,0.7c0.2,0.2,0.5,0.2,0.9,0.2C125.9,566.6,126.2,566.5,126.4,566.4z"/>
	<path d="M133.2,562.3v4.7h-0.6v-4.2h-2.3l-0.1,1.2c0,1-0.2,1.7-0.3,2.3c-0.2,0.5-0.5,0.8-1,0.8c-0.1,0-0.3,0-0.5-0.1l0-0.5
		c0.1,0,0.2,0,0.2,0c0.2,0,0.4-0.1,0.6-0.3c0.1-0.2,0.2-0.5,0.3-0.8c0-0.3,0.1-0.8,0.1-1.3l0.1-1.7H133.2z"/>
	<path d="M138.5,564.4c0.3,0.3,0.5,0.6,0.5,1.1c0,0.5-0.2,0.9-0.5,1.2c-0.3,0.3-0.8,0.4-1.4,0.4l-1.9,0v-4.7h0.6v1.7l1.4,0
		C137.7,564,138.2,564.1,138.5,564.4z M137.9,566.3c0.2-0.2,0.3-0.5,0.3-0.8c0-0.3-0.1-0.6-0.3-0.8c-0.2-0.2-0.6-0.3-1-0.3l-1.2,0
		v2.1l1.2,0C137.4,566.6,137.7,566.5,137.9,566.3z"/>
	<path d="M140.1,562.3h0.6v2.1h3v-2.1h0.6v4.7h-0.6V565h-3v2.1h-0.6V562.3z"/>
	<path d="M149.9,562.3v4.7h-0.6v-1.6h-1.5h-0.2l-1.1,1.6h-0.7l1.2-1.7c-0.4-0.1-0.6-0.3-0.8-0.5c-0.2-0.2-0.3-0.6-0.3-0.9
		c0-0.5,0.2-0.9,0.5-1.2s0.9-0.4,1.5-0.4H149.9z M147.9,565h1.4v-2.1h-1.4c-0.9,0-1.4,0.4-1.4,1.1C146.5,564.7,147,565,147.9,565z"
		/>
	<path d="M113.7,572.7v7.9h-1.1v-6.9h-1.8v-1H113.7z"/>
	<path d="M122.2,578.7h-1.5v1.9h-1.1v-1.9h-4.4v-0.8l4-5.2h1.2l-3.9,5h3V576h1.1v1.7h1.5V578.7z"/>
	<path d="M124.4,579.3c0.1,0.1,0.2,0.3,0.2,0.5c0,0.1,0,0.2,0,0.3c0,0.1-0.1,0.3-0.2,0.5l-0.5,1.6h-0.7l0.4-1.7
		c-0.1-0.1-0.3-0.1-0.3-0.3c-0.1-0.1-0.1-0.3-0.1-0.4c0-0.2,0.1-0.4,0.2-0.6c0.1-0.1,0.3-0.2,0.5-0.2
		C124.1,579.1,124.3,579.2,124.4,579.3z"/>
	<path d="M131.4,579.6v1h-5.7v-0.8l3.2-3.1c0.4-0.4,0.7-0.7,0.8-1s0.2-0.6,0.2-0.8c0-0.4-0.1-0.7-0.4-1c-0.3-0.2-0.7-0.3-1.2-0.3
		c-0.9,0-1.5,0.3-2,0.9l-0.8-0.7c0.3-0.4,0.7-0.7,1.2-0.9c0.5-0.2,1.1-0.3,1.7-0.3c0.8,0,1.5,0.2,2,0.6c0.5,0.4,0.7,0.9,0.7,1.6
		c0,0.4-0.1,0.8-0.3,1.2c-0.2,0.4-0.5,0.8-1,1.3l-2.4,2.3H131.4z"/>
</g>
<g>
	<path d="M200.7,390v7.9h-1.1V391h-1.8v-1H200.7z"/>
	<path d="M204,397.5c-0.5-0.3-0.9-0.8-1.1-1.4c-0.3-0.6-0.4-1.3-0.4-2.2c0-0.8,0.1-1.6,0.4-2.2c0.3-0.6,0.7-1.1,1.1-1.4
		c0.5-0.3,1-0.5,1.7-0.5c0.6,0,1.2,0.2,1.7,0.5c0.5,0.3,0.9,0.8,1.1,1.4c0.3,0.6,0.4,1.3,0.4,2.2c0,0.8-0.1,1.6-0.4,2.2
		c-0.3,0.6-0.7,1.1-1.1,1.4s-1,0.5-1.7,0.5C205,398,204.5,397.8,204,397.5z M207.2,396.2c0.4-0.5,0.6-1.3,0.6-2.3
		c0-1-0.2-1.7-0.6-2.3c-0.4-0.5-0.9-0.8-1.5-0.8c-0.6,0-1.1,0.3-1.5,0.8c-0.4,0.5-0.6,1.3-0.6,2.3c0,1,0.2,1.7,0.6,2.3
		s0.9,0.8,1.5,0.8C206.3,397,206.8,396.7,207.2,396.2z"/>
	<path d="M211.1,396.6c0.1,0.1,0.2,0.3,0.2,0.5c0,0.1,0,0.2,0,0.3c0,0.1-0.1,0.3-0.2,0.5l-0.5,1.6h-0.7l0.4-1.7
		c-0.1-0.1-0.3-0.1-0.3-0.3c-0.1-0.1-0.1-0.3-0.1-0.4c0-0.2,0.1-0.4,0.2-0.6c0.1-0.1,0.3-0.2,0.5-0.2
		C210.8,396.4,211,396.5,211.1,396.6z"/>
	<path d="M213.8,397.5c-0.5-0.3-0.9-0.8-1.1-1.4c-0.3-0.6-0.4-1.3-0.4-2.2c0-0.8,0.1-1.6,0.4-2.2c0.3-0.6,0.7-1.1,1.1-1.4
		c0.5-0.3,1-0.5,1.7-0.5c0.6,0,1.2,0.2,1.7,0.5c0.5,0.3,0.9,0.8,1.1,1.4c0.3,0.6,0.4,1.3,0.4,2.2c0,0.8-0.1,1.6-0.4,2.2
		c-0.3,0.6-0.7,1.1-1.1,1.4s-1,0.5-1.7,0.5C214.8,398,214.3,397.8,213.8,397.5z M217,396.2c0.4-0.5,0.6-1.3,0.6-2.3
		c0-1-0.2-1.7-0.6-2.3c-0.4-0.5-0.9-0.8-1.5-0.8c-0.6,0-1.1,0.3-1.5,0.8c-0.4,0.5-0.6,1.3-0.6,2.3c0,1,0.2,1.7,0.6,2.3
		s0.9,0.8,1.5,0.8C216.1,397,216.6,396.7,217,396.2z"/>
</g>
<g>
	<path d="M69.8,434h-1.5v1.9h-1.1V434h-4.4v-0.8l4-5.2H68l-3.9,5h3v-1.7h1.1v1.7h1.5V434z"/>
	<path d="M71.9,434.7c0.1,0.1,0.2,0.3,0.2,0.5c0,0.1,0,0.2,0,0.3c0,0.1-0.1,0.3-0.2,0.5l-0.5,1.6h-0.7l0.4-1.7
		c-0.1-0.1-0.3-0.1-0.3-0.3c-0.1-0.1-0.1-0.3-0.1-0.4c0-0.2,0.1-0.4,0.2-0.6c0.1-0.1,0.3-0.2,0.5-0.2
		C71.6,434.5,71.8,434.6,71.9,434.7z"/>
	<path d="M78.8,428.1v0.8l-3.2,7.1h-1.2l3.1-6.9H74v1.4h-1.1v-2.4H78.8z"/>
</g>
<g>
	<path d="M295.7,389.1c0.4,0.2,0.7,0.5,1,0.8c0.2,0.4,0.3,0.8,0.3,1.3c0,0.5-0.1,0.9-0.4,1.3s-0.6,0.7-1,0.9
		c-0.4,0.2-0.9,0.3-1.4,0.3c-1.1,0-1.9-0.3-2.5-1c-0.6-0.7-0.9-1.7-0.9-2.9c0-0.9,0.2-1.6,0.5-2.2c0.3-0.6,0.7-1.1,1.3-1.4
		c0.6-0.3,1.2-0.5,2-0.5c0.4,0,0.7,0,1.1,0.1c0.3,0.1,0.6,0.2,0.9,0.3l-0.4,0.9c-0.4-0.2-0.9-0.4-1.5-0.4c-0.8,0-1.5,0.3-1.9,0.8
		c-0.5,0.5-0.7,1.2-0.7,2.2c0,0.1,0,0.2,0,0.3c0.2-0.3,0.5-0.6,0.9-0.8c0.4-0.2,0.8-0.3,1.3-0.3
		C294.8,388.8,295.3,388.9,295.7,389.1z M295.4,392.4c0.3-0.3,0.5-0.6,0.5-1.1c0-0.5-0.2-0.8-0.5-1.1c-0.3-0.3-0.8-0.4-1.3-0.4
		c-0.4,0-0.7,0.1-0.9,0.2s-0.5,0.3-0.6,0.6s-0.2,0.5-0.2,0.8c0,0.3,0.1,0.5,0.2,0.8c0.1,0.2,0.4,0.4,0.6,0.6c0.3,0.1,0.6,0.2,1,0.2
		C294.7,392.8,295.1,392.6,295.4,392.4z"/>
	<path d="M299.3,392.3c0.1,0.1,0.2,0.3,0.2,0.5c0,0.1,0,0.2,0,0.3c0,0.1-0.1,0.3-0.2,0.5l-0.5,1.6H298l0.4-1.7
		c-0.1-0.1-0.3-0.1-0.3-0.3c-0.1-0.1-0.1-0.3-0.1-0.4c0-0.2,0.1-0.4,0.2-0.6c0.1-0.1,0.3-0.2,0.5-0.2
		C298.9,392.1,299.1,392.2,299.3,392.3z"/>
	<path d="M306.2,392.6v1h-5.7v-0.8l3.2-3.1c0.4-0.4,0.7-0.7,0.8-1c0.1-0.3,0.2-0.6,0.2-0.8c0-0.4-0.1-0.7-0.4-1s-0.7-0.3-1.2-0.3
		c-0.9,0-1.5,0.3-2,0.9l-0.8-0.7c0.3-0.4,0.7-0.7,1.2-0.9c0.5-0.2,1.1-0.3,1.7-0.3c0.8,0,1.5,0.2,2,0.6s0.7,0.9,0.7,1.6
		c0,0.4-0.1,0.8-0.3,1.2c-0.2,0.4-0.5,0.8-1,1.3l-2.4,2.3H306.2z"/>
</g>
<g>
	<path d="M100.1,753.7c0.4,0.4,0.6,0.9,0.6,1.5c0,0.5-0.1,0.9-0.3,1.2c-0.2,0.4-0.6,0.7-1,0.9c-0.4,0.2-1,0.3-1.6,0.3
		c-0.6,0-1.1-0.1-1.6-0.3s-0.9-0.4-1.3-0.7l0.5-0.9c0.3,0.3,0.6,0.5,1,0.6c0.4,0.2,0.9,0.2,1.3,0.2c0.6,0,1-0.1,1.4-0.4
		c0.3-0.2,0.5-0.6,0.5-1s-0.2-0.8-0.5-1c-0.3-0.2-0.8-0.4-1.5-0.4H97v-0.8l2-2.4h-3.8v-1h5.2v0.8l-2.1,2.5
		C99.1,753.1,99.7,753.3,100.1,753.7z"/>
	<path d="M103.1,756.3c0.1,0.1,0.2,0.3,0.2,0.5c0,0.1,0,0.2,0,0.3c0,0.1-0.1,0.3-0.2,0.5l-0.5,1.6h-0.7l0.4-1.7
		c-0.1-0.1-0.3-0.1-0.3-0.3c-0.1-0.1-0.1-0.3-0.1-0.4c0-0.2,0.1-0.4,0.2-0.6c0.1-0.1,0.3-0.2,0.5-0.2
		C102.8,756.1,102.9,756.2,103.1,756.3z"/>
	<path d="M109.3,753.7c0.4,0.4,0.6,0.9,0.6,1.5c0,0.5-0.1,0.9-0.3,1.2c-0.2,0.4-0.6,0.7-1,0.9c-0.4,0.2-1,0.3-1.6,0.3
		c-0.6,0-1.1-0.1-1.6-0.3s-0.9-0.4-1.3-0.7l0.5-0.9c0.3,0.3,0.6,0.5,1,0.6c0.4,0.2,0.9,0.2,1.3,0.2c0.6,0,1-0.1,1.4-0.4
		c0.3-0.2,0.5-0.6,0.5-1s-0.2-0.8-0.5-1c-0.3-0.2-0.8-0.4-1.5-0.4h-0.6v-0.8l2-2.4h-3.8v-1h5.2v0.8l-2.1,2.5
		C108.3,753.1,108.9,753.3,109.3,753.7z"/>
</g>
<g>
	<path d="M72.6,327.5v1h-5.7v-0.8l3.2-3.1c0.4-0.4,0.7-0.7,0.8-1c0.1-0.3,0.2-0.6,0.2-0.8c0-0.4-0.1-0.7-0.4-1
		c-0.3-0.2-0.7-0.3-1.2-0.3c-0.9,0-1.5,0.3-2,0.9l-0.8-0.7c0.3-0.4,0.7-0.7,1.2-0.9c0.5-0.2,1.1-0.3,1.7-0.3c0.8,0,1.5,0.2,2,0.6
		c0.5,0.4,0.7,0.9,0.7,1.6c0,0.4-0.1,0.8-0.3,1.2c-0.2,0.4-0.5,0.8-1,1.3l-2.4,2.3H72.6z"/>
	<path d="M74.9,327.2c0.1,0.1,0.2,0.3,0.2,0.5c0,0.1,0,0.2,0,0.3c0,0.1-0.1,0.3-0.2,0.5l-0.5,1.6h-0.7l0.4-1.7
		c-0.1-0.1-0.3-0.1-0.3-0.3c-0.1-0.1-0.1-0.3-0.1-0.4c0-0.2,0.1-0.4,0.2-0.6c0.1-0.1,0.3-0.2,0.5-0.2
		C74.6,327,74.8,327.1,74.9,327.2z"/>
	<path d="M80.9,324.4c0.5,0.4,0.8,1,0.8,1.7c0,0.5-0.1,0.9-0.3,1.3c-0.2,0.4-0.6,0.7-1,0.9c-0.4,0.2-1,0.3-1.7,0.3
		c-0.6,0-1.1-0.1-1.6-0.3c-0.5-0.2-0.9-0.4-1.3-0.7l0.5-0.9c0.3,0.3,0.6,0.5,1,0.6c0.4,0.2,0.9,0.2,1.3,0.2c0.6,0,1.1-0.1,1.4-0.4
		c0.3-0.3,0.5-0.6,0.5-1c0-0.5-0.2-0.8-0.5-1.1s-1-0.4-1.8-0.4h-1.8l0.4-4.1h4.5v1h-3.5l-0.2,2.2h0.9
		C79.6,323.7,80.4,324,80.9,324.4z"/>
</g>
<g>
	<path d="M271.4,49.4h-1.5v1.9h-1.1v-1.9h-4.4v-0.8l4-5.2h1.2l-3.9,5h3v-1.7h1.1v1.7h1.5V49.4z"/>
	<path d="M273.6,50.1c0.1,0.1,0.2,0.3,0.2,0.5c0,0.1,0,0.2,0,0.3c0,0.1-0.1,0.3-0.2,0.5L273,53h-0.7l0.4-1.7
		c-0.1-0.1-0.3-0.1-0.3-0.3c-0.1-0.1-0.1-0.3-0.1-0.4c0-0.2,0.1-0.4,0.2-0.6c0.1-0.1,0.3-0.2,0.5-0.2
		C273.2,49.9,273.4,49.9,273.6,50.1z"/>
	<path d="M276.3,51c-0.5-0.3-0.9-0.8-1.1-1.4c-0.3-0.6-0.4-1.3-0.4-2.2c0-0.8,0.1-1.6,0.4-2.2c0.3-0.6,0.7-1.1,1.1-1.4
		c0.5-0.3,1-0.5,1.7-0.5c0.6,0,1.2,0.2,1.7,0.5c0.5,0.3,0.9,0.8,1.1,1.4c0.3,0.6,0.4,1.3,0.4,2.2c0,0.8-0.1,1.6-0.4,2.2
		c-0.3,0.6-0.7,1.1-1.1,1.4s-1,0.5-1.7,0.5C277.3,51.4,276.8,51.3,276.3,51z M279.4,49.7c0.4-0.5,0.6-1.3,0.6-2.3
		c0-1-0.2-1.7-0.6-2.3c-0.4-0.5-0.9-0.8-1.5-0.8c-0.6,0-1.1,0.3-1.5,0.8c-0.4,0.5-0.6,1.3-0.6,2.3c0,1,0.2,1.7,0.6,2.3
		s0.9,0.8,1.5,0.8C278.6,50.4,279.1,50.2,279.4,49.7z"/>
</g>
<g id="unitaz">
	<path fill="#F3F3F3" stroke="#868686" d="M27,390.3h5.9c0.9,0,1.7,0.8,1.7,1.7v15.2c0,0.9-0.8,1.7-1.7,1.7H27V390.3z"/>
	<path fill="#F3F3F3" stroke="#868686" d="M34.6,392c0-0.9,0.8-1.7,1.7-1.7v18.5c-0.9,0-1.7-0.8-1.7-1.7V392z"/>
	<path fill="#F3F3F3" stroke="#868686" d="M36.3,408.8v-18.5c0,0,21.9-3.8,21.9,9.3C58.2,412.6,36.3,408.8,36.3,408.8z"/>
	<circle fill="#F3F3F3" stroke="#868686" cx="30.4" cy="399.5" r="1.7"/>
</g>
<g id="unitaz_1_">
	<path fill="#F3F3F3" stroke="#868686" d="M22.2,325.9h5.9c0.9,0,1.7,0.8,1.7,1.7v15.2c0,0.9-0.8,1.7-1.7,1.7h-5.9V325.9z"/>
	<path fill="#F3F3F3" stroke="#868686" d="M29.8,327.6c0-0.9,0.8-1.7,1.7-1.7v18.5c-0.9,0-1.7-0.8-1.7-1.7V327.6z"/>
	<path fill="#F3F3F3" stroke="#868686" d="M31.5,344.4v-18.5c0,0,21.9-3.8,21.9,9.3C53.4,348.2,31.5,344.4,31.5,344.4z"/>
	<circle fill="#F3F3F3" stroke="#868686" cx="25.6" cy="335.2" r="1.7"/>
</g>
<g id="moyka">
	<path fill="#F3F3F3" stroke="#868686" d="M27,425.7c0-0.5,0.4-0.9,0.9-0.9H46c0.5,0,0.9,0.4,0.9,0.9v27.2c0,0.5-0.4,0.9-0.9,0.9
		H27.9c-0.5,0-0.9-0.4-0.9-0.9V425.7z"/>
	<rect x="29.7" y="424.8" fill="#F3F3F3" stroke="#868686" width="1.8" height="29"/>
	<ellipse fill="#F3F3F3" stroke="#868686" cx="39.2" cy="439.7" rx="5.9" ry="9.5"/>
	<rect x="29.7" y="438.4" fill="#F3F3F3" stroke="#868686" width="7.3" height="1.8"/>
	<circle fill="#F3F3F3" stroke="#868686" cx="40.1" cy="438.8" r="1.4"/>
</g>
<g id="moyka_1_">
	<path fill="#F3F3F3" stroke="#868686" d="M98.6,291.4c0.5,0,0.9,0.4,0.9,0.9v18.1c0,0.5-0.4,0.9-0.9,0.9H71.4
		c-0.5,0-0.9-0.4-0.9-0.9v-18.1c0-0.5,0.4-0.9,0.9-0.9H98.6z"/>
	<rect x="70.5" y="294.1" fill="#F3F3F3" stroke="#868686" width="29" height="1.8"/>
	<ellipse fill="#F3F3F3" stroke="#868686" cx="84.5" cy="303.7" rx="9.5" ry="5.9"/>
	<rect x="84.1" y="294.1" fill="#F3F3F3" stroke="#868686" width="1.8" height="7.3"/>
	<circle fill="#F3F3F3" stroke="#868686" cx="85.5" cy="304.6" r="1.4"/>
</g>
<g id="stirka">
	<rect x="78.1" y="357.1" fill="#F3F3F3" stroke="#868686" width="25.8" height="25.8"/>
	<path fill="#F3F3F3" stroke="#868686" d="M102.2,359.6c0,1-0.8,1.7-1.7,1.7h-6c-1,0-1.7-0.8-1.7-1.7v-2.6h9.5V359.6z"/>
	<circle fill="#F3F3F3" stroke="#868686" cx="91" cy="370.8" r="6.9"/>
	<circle fill="#F3F3F3" stroke="#868686" cx="91" cy="370.8" r="5.2"/>
	<circle fill="#F3F3F3" stroke="#868686" cx="82.4" cy="361.4" r="1.7"/>
</g>
<g id="moyka_2_1_">
	<path fill="#F3F3F3" stroke="#868686" d="M321.5,452.3c-0.8,0-1.4,0.6-1.4,1.4v20.5c0,0.8,0.6,1.4,1.4,1.4h17
		c0.8,0,1.4-0.6,1.4-1.4v-20.5c0-0.8-0.6-1.4-1.4-1.4H321.5z"/>
	<path fill="#F3F3F3" stroke="#868686" d="M322.9,453.7c-0.8,0-1.4,0.6-1.4,1.4v17.7c0,0.8,0.6,1.4,1.4,1.4h12
		c0.8,0,1.4-0.6,1.4-1.4v-17.7c0-0.8-0.6-1.4-1.4-1.4H322.9z"/>
	<rect x="332.1" y="462.9" fill="#F3F3F3" stroke="#868686" width="5.7" height="1.4"/>
	<circle fill="#F3F3F3" stroke="#868686" cx="328.2" cy="464" r="1.1"/>
</g>
<g id="plita_1_">
	<rect x="315.9" y="499.8" fill="#F3F3F3" stroke="#868686" width="24.7" height="25.4"/>
	<circle fill="#F3F3F3" stroke="#868686" cx="323" cy="506.1" r="4.2"/>
	<circle fill="#F3F3F3" stroke="#868686" cx="333.6" cy="516.7" r="4.2"/>
	<circle fill="#F3F3F3" stroke="#868686" cx="333.6" cy="506.1" r="3.5"/>
	<circle fill="#F3F3F3" stroke="#868686" cx="323" cy="516.7" r="3.5"/>
</g>
<g id="vanna">
	<rect x="27" y="461.6" fill="#F3F3F3" stroke="#868686" width="77.6" height="30.4"/>
	<path fill="#F3F3F3" stroke="#868686" d="M99.8,481.6c0,4.4-3.6,8-8,8H38.2V464h53.6c4.4,0,8,3.6,8,8V481.6z"/>
	<path fill="#F3F3F3" stroke="#868686" d="M37,476v-6.4h-2.8v10.8"/>
	<path id="Union" fill="#F3F3F3" stroke="#868686" d="M33.4,481.7c-0.9,0.3-1.6,1.2-1.6,2.3c0,1.3,1.1,2.4,2.4,2.4
		c1.3,0,2.4-1.1,2.4-2.4c0-1-0.7-1.9-1.6-2.3v-0.9c0-0.4-0.4-0.8-0.8-0.8c-0.4,0-0.8,0.4-0.8,0.8V481.7z"/>
	<rect x="35.8" y="476" fill="#F3F3F3" stroke="#868686" width="6.4" height="1.6"/>
</g>
<g>
	<g>
		
			<rect x="23.3" y="604.3" fill-rule="evenodd" clip-rule="evenodd" fill="#F1F2F2" stroke="#848484" stroke-miterlimit="10" width="91.3" height="70.9"/>
		
			<rect x="27" y="606" fill-rule="evenodd" clip-rule="evenodd" fill="#F1F2F2" stroke="#848484" stroke-miterlimit="10" width="85.1" height="67.6"/>
		
			<rect x="29.2" y="608" fill-rule="evenodd" clip-rule="evenodd" fill="#F1F2F2" stroke="#848484" stroke-miterlimit="10" width="19.2" height="26.3"/>
		
			<rect x="29.2" y="645.2" fill-rule="evenodd" clip-rule="evenodd" fill="#F1F2F2" stroke="#848484" stroke-miterlimit="10" width="19.2" height="26.3"/>
		<polygon fill-rule="evenodd" clip-rule="evenodd" fill="#F1F2F2" stroke="#848484" stroke-miterlimit="10" points="58.2,606 
			46.4,626.2 46.4,653.4 46.4,626.2 46.4,653.4 58.2,673.6 112.1,673.6 112.1,673.6 112.1,606 		"/>
		<polyline fill-rule="evenodd" clip-rule="evenodd" fill="#F1F2F2" stroke="#848484" stroke-miterlimit="10" points="58.2,606 
			66.7,620.2 46.4,626.2 		"/>
		
			<line fill-rule="evenodd" clip-rule="evenodd" fill="#F1F2F2" stroke="#848484" stroke-miterlimit="10" x1="46.4" y1="626.2" x2="58.2" y2="606"/>
		<polyline fill-rule="evenodd" clip-rule="evenodd" fill="#F1F2F2" stroke="#848484" stroke-miterlimit="10" points="58.2,673.6 
			66.7,659.5 46.4,653.4 		"/>
		
			<line fill-rule="evenodd" clip-rule="evenodd" fill="#F1F2F2" stroke="#848484" stroke-miterlimit="10" x1="46.4" y1="653.4" x2="58.2" y2="673.6"/>
	</g>
	<g>
		
			<rect x="19.9" y="679.9" transform="matrix(-1.836970e-16 1 -1 -1.836970e-16 721.4031 656.6242)" fill="#F1F2F2" stroke="#848484" stroke-miterlimit="10" width="25" height="18.1"/>
		
			<rect x="36.8" y="688.3" transform="matrix(-1.836970e-16 1 -1 -1.836970e-16 730.96 646.8724)" fill="#F1F2F2" stroke="#848484" stroke-miterlimit="10" width="10.5" height="1.2"/>
	</g>
	<g>
		
			<rect x="19.9" y="581.4" transform="matrix(-1.836970e-16 1 -1 -1.836970e-16 622.851 558.0721)" fill="#F1F2F2" stroke="#848484" stroke-miterlimit="10" width="25" height="18.1"/>
		
			<rect x="36.8" y="589.8" transform="matrix(1.738993e-13 1 -1 1.738993e-13 632.4079 548.3203)" fill="#F1F2F2" stroke="#848484" stroke-miterlimit="10" width="10.5" height="1.2"/>
	</g>
</g>
<g>
	
		<rect x="23.8" y="505.8" transform="matrix(-1 -4.489754e-11 4.489754e-11 -1 123.6885 1037.8394)" fill-rule="evenodd" clip-rule="evenodd" fill="#F1F2F2" stroke="#848484" stroke-miterlimit="10" width="76.1" height="26.3"/>
	<line fill="#F1F2F2" stroke="#848484" stroke-miterlimit="10" x1="97.1" y1="505.8" x2="97.1" y2="532.1"/>
	<line fill="#F1F2F2" stroke="#848484" stroke-miterlimit="10" x1="26.6" y1="505.8" x2="26.6" y2="532.1"/>
	<line fill="#F1F2F2" stroke="#848484" stroke-miterlimit="10" x1="97.1" y1="530.8" x2="26.6" y2="530.8"/>
	<line fill="#F1F2F2" stroke="#848484" stroke-miterlimit="10" x1="29.1" y1="518.7" x2="94.7" y2="518.7"/>
	
		<rect x="90.5" y="510.9" transform="matrix(-0.9868 0.162 -0.162 -0.9868 265.3806 1016.1011)" fill="#F1F2F2" stroke="#848484" stroke-miterlimit="10" width="1.6" height="16"/>
	
		<rect x="84.6" y="510.9" transform="matrix(-0.9961 8.815246e-02 -8.815246e-02 -0.9961 216.165 1028.189)" fill="#F1F2F2" stroke="#848484" stroke-miterlimit="10" width="1.6" height="16"/>
	
		<rect x="78.6" y="510.7" transform="matrix(-0.9734 0.229 -0.229 -0.9734 275.5023 1005.4919)" fill="#F1F2F2" stroke="#848484" stroke-miterlimit="10" width="1.6" height="16"/>
	
		<rect x="71.9" y="510.9" transform="matrix(-0.9884 0.152 -0.152 -0.9884 223.5541 1020.725)" fill="#F1F2F2" stroke="#848484" stroke-miterlimit="10" width="1.6" height="16"/>
	
		<rect x="66.1" y="510.8" transform="matrix(-0.999 4.511170e-02 -4.511170e-02 -0.999 157.2252 1034.0923)" fill="#F1F2F2" stroke="#848484" stroke-miterlimit="10" width="1.6" height="16"/>
	
		<rect x="60.2" y="510.8" transform="matrix(-0.9884 0.152 -0.152 -0.9884 200.3018 1022.3243)" fill="#F1F2F2" stroke="#848484" stroke-miterlimit="10" width="1.6" height="16"/>
	
		<rect x="54.3" y="510.7" transform="matrix(-0.999 4.511170e-02 -4.511170e-02 -0.999 133.5338 1034.4484)" fill="#F1F2F2" stroke="#848484" stroke-miterlimit="10" width="1.6" height="16"/>
	
		<rect x="48.4" y="510.7" transform="matrix(-0.9787 0.2052 -0.2052 -0.9787 203.8596 1016.3245)" fill="#F1F2F2" stroke="#848484" stroke-miterlimit="10" width="1.6" height="16"/>
	
		<rect x="42.6" y="510.7" transform="matrix(-0.9884 0.152 -0.152 -0.9884 165.1402 1024.8678)" fill="#F1F2F2" stroke="#848484" stroke-miterlimit="10" width="1.6" height="16"/>
	
		<rect x="36.7" y="510.7" transform="matrix(-0.9964 8.473843e-02 -8.473843e-02 -0.9964 118.8871 1032.4156)" fill="#F1F2F2" stroke="#848484" stroke-miterlimit="10" width="1.6" height="16"/>
	
		<rect x="30.9" y="510.9" transform="matrix(-0.9713 0.2379 -0.2379 -0.9713 185.9117 1015.4142)" fill="#F1F2F2" stroke="#848484" stroke-miterlimit="10" width="1.6" height="16"/>
</g>
<g>
	<g>
		
			<rect x="249.8" y="136" transform="matrix(-1 -1.224647e-16 1.224647e-16 -1 590.9656 342.838)" fill-rule="evenodd" clip-rule="evenodd" fill="#F1F2F2" stroke="#848484" stroke-miterlimit="10" width="91.3" height="70.9"/>
		
			<rect x="252.4" y="137.6" transform="matrix(-1 -1.224647e-16 1.224647e-16 -1 589.8778 342.7635)" fill-rule="evenodd" clip-rule="evenodd" fill="#F1F2F2" stroke="#848484" stroke-miterlimit="10" width="85.1" height="67.6"/>
		
			<rect x="316.1" y="176.9" transform="matrix(-1 -1.897486e-13 1.897486e-13 -1 651.4057 380.1179)" fill-rule="evenodd" clip-rule="evenodd" fill="#F1F2F2" stroke="#848484" stroke-miterlimit="10" width="19.2" height="26.3"/>
		
			<rect x="316.1" y="139.8" transform="matrix(-1 -1.897486e-13 1.897486e-13 -1 651.4057 305.7999)" fill-rule="evenodd" clip-rule="evenodd" fill="#F1F2F2" stroke="#848484" stroke-miterlimit="10" width="19.2" height="26.3"/>
		<polygon fill-rule="evenodd" clip-rule="evenodd" fill="#F1F2F2" stroke="#848484" stroke-miterlimit="10" points="306.3,205.2 
			318,185 318,157.7 318,185 318,157.7 306.3,137.6 252.4,137.6 252.4,137.6 252.4,205.2 		"/>
		<polyline fill-rule="evenodd" clip-rule="evenodd" fill="#F1F2F2" stroke="#848484" stroke-miterlimit="10" points="306.3,205.2 
			297.7,191 318,185 		"/>
		
			<line fill-rule="evenodd" clip-rule="evenodd" fill="#F1F2F2" stroke="#848484" stroke-miterlimit="10" x1="318" y1="185" x2="306.3" y2="205.2"/>
		<polyline fill-rule="evenodd" clip-rule="evenodd" fill="#F1F2F2" stroke="#848484" stroke-miterlimit="10" points="306.3,137.6 
			297.7,151.7 318,157.7 		"/>
		
			<line fill-rule="evenodd" clip-rule="evenodd" fill="#F1F2F2" stroke="#848484" stroke-miterlimit="10" x1="318" y1="157.7" x2="306.3" y2="137.6"/>
	</g>
	<g>
		
			<rect x="319.6" y="113.1" transform="matrix(6.123234e-17 -1 1 6.123234e-17 209.907 454.2613)" fill="#F1F2F2" stroke="#848484" stroke-miterlimit="10" width="25" height="18.1"/>
		
			<rect x="317.2" y="121.7" transform="matrix(6.123234e-17 -1 1 6.123234e-17 200.1552 444.7044)" fill="#F1F2F2" stroke="#848484" stroke-miterlimit="10" width="10.5" height="1.2"/>
	</g>
	<g>
		
			<rect x="319.6" y="211.7" transform="matrix(6.123234e-17 -1 1 6.123234e-17 111.3549 552.8134)" fill="#F1F2F2" stroke="#848484" stroke-miterlimit="10" width="25" height="18.1"/>
		
			<rect x="317.2" y="220.2" transform="matrix(-3.481047e-13 -1 1 -3.481047e-13 101.6031 543.2565)" fill="#F1F2F2" stroke="#848484" stroke-miterlimit="10" width="10.5" height="1.2"/>
	</g>
</g>
<g>
	
		<rect x="264.6" y="252.1" fill-rule="evenodd" clip-rule="evenodd" fill="#F1F2F2" stroke="#848484" stroke-miterlimit="10" width="76.1" height="26.3"/>
	<line fill="#F1F2F2" stroke="#848484" stroke-miterlimit="10" x1="267.3" y1="278.4" x2="267.3" y2="252.1"/>
	<line fill="#F1F2F2" stroke="#848484" stroke-miterlimit="10" x1="337.8" y1="278.4" x2="337.8" y2="252.1"/>
	<line fill="#F1F2F2" stroke="#848484" stroke-miterlimit="10" x1="267.3" y1="253.4" x2="337.8" y2="253.4"/>
	<line fill="#F1F2F2" stroke="#848484" stroke-miterlimit="10" x1="335.4" y1="265.5" x2="269.8" y2="265.5"/>
	
		<rect x="272.4" y="257.3" transform="matrix(0.9868 -0.162 0.162 0.9868 -39.3662 47.7525)" fill="#F1F2F2" stroke="#848484" stroke-miterlimit="10" width="1.6" height="16"/>
	
		<rect x="278.3" y="257.3" transform="matrix(0.9961 -8.815246e-02 8.815246e-02 0.9961 -22.3024 25.6358)" fill="#F1F2F2" stroke="#848484" stroke-miterlimit="10" width="1.6" height="16"/>
	
		<rect x="284.2" y="257.5" transform="matrix(0.9734 -0.229 0.229 0.9734 -53.2154 72.334)" fill="#F1F2F2" stroke="#848484" stroke-miterlimit="10" width="1.6" height="16"/>
	
		<rect x="290.9" y="257.3" transform="matrix(0.9884 -0.152 0.152 0.9884 -36.9422 47.4379)" fill="#F1F2F2" stroke="#848484" stroke-miterlimit="10" width="1.6" height="16"/>
	
		<rect x="296.7" y="257.4" transform="matrix(0.999 -4.511170e-02 4.511170e-02 0.999 -11.6684 13.6922)" fill="#F1F2F2" stroke="#848484" stroke-miterlimit="10" width="1.6" height="16"/>
	
		<rect x="302.6" y="257.4" transform="matrix(0.9884 -0.152 0.152 0.9884 -36.8199 49.2159)" fill="#F1F2F2" stroke="#848484" stroke-miterlimit="10" width="1.6" height="16"/>
	
		<rect x="308.6" y="257.5" transform="matrix(0.999 -4.511170e-02 4.511170e-02 0.999 -11.6604 14.2269)" fill="#F1F2F2" stroke="#848484" stroke-miterlimit="10" width="1.6" height="16"/>
	
		<rect x="314.4" y="257.5" transform="matrix(0.9787 -0.2052 0.2052 0.9787 -47.7574 70.3221)" fill="#F1F2F2" stroke="#848484" stroke-miterlimit="10" width="1.6" height="16"/>
	
		<rect x="320.3" y="257.4" transform="matrix(0.9884 -0.152 0.152 0.9884 -36.6254 51.9045)" fill="#F1F2F2" stroke="#848484" stroke-miterlimit="10" width="1.6" height="16"/>
	
		<rect x="326.1" y="257.5" transform="matrix(0.9964 -8.473843e-02 8.473843e-02 0.9964 -21.3187 28.6592)" fill="#F1F2F2" stroke="#848484" stroke-miterlimit="10" width="1.6" height="16"/>
	
		<rect x="332" y="257.3" transform="matrix(0.9713 -0.2379 0.2379 0.9713 -53.5556 86.796)" fill="#F1F2F2" stroke="#848484" stroke-miterlimit="10" width="1.6" height="16"/>
</g>
<g>
	
		<rect x="23.1" y="252.1" fill-rule="evenodd" clip-rule="evenodd" fill="#F1F2F2" stroke="#848484" stroke-miterlimit="10" width="76.1" height="26.3"/>
	<line fill="#F1F2F2" stroke="#848484" stroke-miterlimit="10" x1="25.9" y1="278.4" x2="25.9" y2="252.1"/>
	<line fill="#F1F2F2" stroke="#848484" stroke-miterlimit="10" x1="96.4" y1="278.4" x2="96.4" y2="252.1"/>
	<line fill="#F1F2F2" stroke="#848484" stroke-miterlimit="10" x1="25.9" y1="253.4" x2="96.4" y2="253.4"/>
	<line fill="#F1F2F2" stroke="#848484" stroke-miterlimit="10" x1="93.9" y1="265.5" x2="28.3" y2="265.5"/>
	
		<rect x="30.9" y="257.3" transform="matrix(0.9868 -0.162 0.162 0.9868 -42.5544 8.6435)" fill="#F1F2F2" stroke="#848484" stroke-miterlimit="10" width="1.6" height="16"/>
	
		<rect x="36.8" y="257.3" transform="matrix(0.9961 -8.815246e-02 8.815246e-02 0.9961 -23.2424 4.3502)" fill="#F1F2F2" stroke="#848484" stroke-miterlimit="10" width="1.6" height="16"/>
	
		<rect x="42.8" y="257.5" transform="matrix(0.9734 -0.229 0.229 0.9734 -59.6321 17.0385)" fill="#F1F2F2" stroke="#848484" stroke-miterlimit="10" width="1.6" height="16"/>
	
		<rect x="49.4" y="257.3" transform="matrix(0.9884 -0.152 0.152 0.9884 -39.7494 10.7254)" fill="#F1F2F2" stroke="#848484" stroke-miterlimit="10" width="1.6" height="16"/>
	
		<rect x="55.2" y="257.4" transform="matrix(0.999 -4.511170e-02 4.511170e-02 0.999 -11.9142 2.7994)" fill="#F1F2F2" stroke="#848484" stroke-miterlimit="10" width="1.6" height="16"/>
	
		<rect x="61.1" y="257.4" transform="matrix(0.9884 -0.152 0.152 0.9884 -39.6271 12.5034)" fill="#F1F2F2" stroke="#848484" stroke-miterlimit="10" width="1.6" height="16"/>
	
		<rect x="67.1" y="257.5" transform="matrix(0.999 -4.511170e-02 4.511170e-02 0.999 -11.9062 3.334)" fill="#F1F2F2" stroke="#848484" stroke-miterlimit="10" width="1.6" height="16"/>
	
		<rect x="72.9" y="257.5" transform="matrix(0.9787 -0.2052 0.2052 0.9787 -52.894 20.782)" fill="#F1F2F2" stroke="#848484" stroke-miterlimit="10" width="1.6" height="16"/>
	
		<rect x="78.8" y="257.4" transform="matrix(0.9884 -0.152 0.152 0.9884 -39.4326 15.192)" fill="#F1F2F2" stroke="#848484" stroke-miterlimit="10" width="1.6" height="16"/>
	
		<rect x="84.7" y="257.5" transform="matrix(0.9964 -8.473843e-02 8.473843e-02 0.9964 -22.1872 8.198)" fill="#F1F2F2" stroke="#848484" stroke-miterlimit="10" width="1.6" height="16"/>
	
		<rect x="90.5" y="257.3" transform="matrix(0.9713 -0.2379 0.2379 0.9713 -60.4894 29.3468)" fill="#F1F2F2" stroke="#848484" stroke-miterlimit="10" width="1.6" height="16"/>
</g>
<g>
	<g>
		
			<rect x="151.3" y="612.6" fill-rule="evenodd" clip-rule="evenodd" fill="#F1F2F2" stroke="#848484" stroke-miterlimit="10" width="2.6" height="51.4"/>
		<polygon fill-rule="evenodd" clip-rule="evenodd" fill="#F1F2F2" stroke="#848484" stroke-miterlimit="10" points="153.8,659.6 
			155.9,651.3 155.9,625.3 153.8,617 		"/>
		
			<rect x="155.9" y="633.9" fill-rule="evenodd" clip-rule="evenodd" fill="#F1F2F2" stroke="#848484" stroke-miterlimit="10" width="2.3" height="8.8"/>
	</g>
</g>
<g>
	
		<rect x="264.7" y="285" transform="matrix(-1 -4.488244e-11 4.488244e-11 -1 605.9803 596.4626)" fill-rule="evenodd" clip-rule="evenodd" fill="#F1F2F2" stroke="#848484" stroke-miterlimit="10" width="76.6" height="26.5"/>
	<line fill="#F1F2F2" stroke="#848484" stroke-miterlimit="10" x1="338.5" y1="285" x2="338.5" y2="311.5"/>
	<line fill="#F1F2F2" stroke="#848484" stroke-miterlimit="10" x1="267.5" y1="285" x2="267.5" y2="311.5"/>
	<line fill="#F1F2F2" stroke="#848484" stroke-miterlimit="10" x1="338.5" y1="310.2" x2="267.5" y2="310.2"/>
	<line fill="#F1F2F2" stroke="#848484" stroke-miterlimit="10" x1="270" y1="298" x2="336.1" y2="298"/>
	
		<rect x="331.8" y="290.1" transform="matrix(-0.9868 0.162 -0.162 -0.9868 709.1688 538.5454)" fill="#F1F2F2" stroke="#848484" stroke-miterlimit="10" width="1.7" height="16.1"/>
	
		<rect x="325.9" y="290.1" transform="matrix(-0.9961 8.815246e-02 -8.815246e-02 -0.9961 678.4049 566.398)" fill="#F1F2F2" stroke="#848484" stroke-miterlimit="10" width="1.7" height="16.1"/>
	
		<rect x="319.9" y="290" transform="matrix(-0.9734 0.229 -0.229 -0.9734 701.0994 514.7252)" fill="#F1F2F2" stroke="#848484" stroke-miterlimit="10" width="1.7" height="16.1"/>
	
		<rect x="313.1" y="290.2" transform="matrix(-0.9884 0.152 -0.152 -0.9884 669.6461 545.2377)" fill="#F1F2F2" stroke="#848484" stroke-miterlimit="10" width="1.7" height="16.1"/>
	
		<rect x="307.3" y="290.1" transform="matrix(-0.999 4.511170e-02 -4.511170e-02 -0.999 629.39 582.0587)" fill="#F1F2F2" stroke="#848484" stroke-miterlimit="10" width="1.7" height="16.1"/>
	
		<rect x="301.4" y="290.1" transform="matrix(-0.9884 0.152 -0.152 -0.9884 646.225 546.8487)" fill="#F1F2F2" stroke="#848484" stroke-miterlimit="10" width="1.7" height="16.1"/>
	
		<rect x="295.4" y="290" transform="matrix(-0.999 4.511170e-02 -4.511170e-02 -0.999 605.5265 582.4174)" fill="#F1F2F2" stroke="#848484" stroke-miterlimit="10" width="1.7" height="16.1"/>
	
		<rect x="289.5" y="290" transform="matrix(-0.9787 0.2052 -0.2052 -0.9787 635.5626 530.1837)" fill="#F1F2F2" stroke="#848484" stroke-miterlimit="10" width="1.7" height="16.1"/>
	
		<rect x="283.6" y="290" transform="matrix(-0.9884 0.152 -0.152 -0.9884 610.8081 549.4106)" fill="#F1F2F2" stroke="#848484" stroke-miterlimit="10" width="1.7" height="16.1"/>
	
		<rect x="277.7" y="290" transform="matrix(-0.9964 8.473843e-02 -8.473843e-02 -0.9964 581.2584 571.4106)" fill="#F1F2F2" stroke="#848484" stroke-miterlimit="10" width="1.7" height="16.1"/>
	
		<rect x="271.8" y="290.2" transform="matrix(-0.9713 0.2379 -0.2379 -0.9713 608.3408 523.0533)" fill="#F1F2F2" stroke="#848484" stroke-miterlimit="10" width="1.7" height="16.1"/>
</g>
<g>
	<g>
		<path fill="#F1F2F2" stroke="#848484" stroke-miterlimit="10" d="M209.1,470c4.5,0,8.1-1.3,8.1-3c0-1.7-3.6-3-8.1-3
			c-4.5,0-8.2,1.4-8.2,3C200.9,468.6,204.6,470,209.1,470z"/>
		<path fill="#F1F2F2" stroke="#848484" stroke-miterlimit="10" d="M209.1,483.6c4.5,0,8.1-3.7,8.1-8.2c0-4.5-3.6-8.2-8.1-8.2
			c-4.5,0-8.2,3.7-8.2,8.2C200.9,480,204.6,483.6,209.1,483.6z"/>
	</g>
	<g>
		<path fill="#F1F2F2" stroke="#848484" stroke-miterlimit="10" d="M209.1,508.5c-4.5,0-8.2,1.3-8.2,3c0,1.7,3.6,3,8.2,3
			c4.5,0,8.1-1.4,8.1-3C217.2,509.9,213.6,508.5,209.1,508.5z"/>
		<path fill="#F1F2F2" stroke="#848484" stroke-miterlimit="10" d="M209.1,494.9c-4.5,0-8.2,3.7-8.2,8.2c0,4.5,3.6,8.2,8.2,8.2
			c4.5,0,8.1-3.7,8.1-8.2C217.2,498.5,213.6,494.9,209.1,494.9z"/>
	</g>
	<g>
		<path fill="#F1F2F2" stroke="#848484" stroke-miterlimit="10" d="M187.6,470c4.5,0,8.1-1.3,8.1-3c0-1.7-3.6-3-8.1-3
			s-8.2,1.4-8.2,3C179.5,468.6,183.1,470,187.6,470z"/>
		<path fill="#F1F2F2" stroke="#848484" stroke-miterlimit="10" d="M187.6,483.6c4.5,0,8.1-3.7,8.1-8.2c0-4.5-3.6-8.2-8.1-8.2
			s-8.2,3.7-8.2,8.2C179.5,480,183.1,483.6,187.6,483.6z"/>
	</g>
	<g>
		<path fill="#F1F2F2" stroke="#848484" stroke-miterlimit="10" d="M187.6,508.5c-4.5,0-8.2,1.3-8.2,3c0,1.7,3.6,3,8.2,3
			c4.5,0,8.1-1.4,8.1-3C195.7,509.9,192.1,508.5,187.6,508.5z"/>
		<path fill="#F1F2F2" stroke="#848484" stroke-miterlimit="10" d="M187.6,494.9c-4.5,0-8.2,3.7-8.2,8.2c0,4.5,3.6,8.2,8.2,8.2
			c4.5,0,8.1-3.7,8.1-8.2C195.7,498.5,192.1,494.9,187.6,494.9z"/>
	</g>
	<rect x="172" y="472.8" fill="#F1F2F2" stroke="#848484" stroke-miterlimit="10" width="53.5" height="32.8"/>
</g>
<g>
	<path fill-rule="evenodd" clip-rule="evenodd" fill="#F1F2F2" stroke="#848484" stroke-miterlimit="10" d="M171.9,212.6v-13.7h11.4
		v13.7H171.9L171.9,212.6z M171.9,147.8h17v51h-17V147.8z"/>
	<path fill-rule="evenodd" clip-rule="evenodd" fill="#F1F2F2" stroke="#848484" stroke-miterlimit="10" d="M177.9,168.3
		c-3,0-3.2,2.7-3.2,6c0,3.3,0.3,6,3.2,6c3,0,5.4-2.7,5.4-6C183.3,171,180.9,168.3,177.9,168.3z"/>
	
		<rect x="178.5" y="154.3" fill-rule="evenodd" clip-rule="evenodd" fill="#F1F2F2" stroke="#848484" stroke-miterlimit="10" width="2.3" height="40.1"/>
	
		<rect x="178.5" y="154.3" fill-rule="evenodd" clip-rule="evenodd" fill="#F1F2F2" stroke="#848484" stroke-miterlimit="10" width="2.3" height="40.1"/>
	<polygon fill-rule="evenodd" clip-rule="evenodd" fill="#F1F2F2" stroke="#848484" stroke-miterlimit="10" points="178.6,157.7 
		176.7,164.1 176.7,184.5 178.6,190.9 	"/>
	<polygon fill-rule="evenodd" clip-rule="evenodd" fill="#F1F2F2" stroke="#848484" stroke-miterlimit="10" points="178.6,157.7 
		176.7,164.1 176.7,184.5 178.6,190.9 	"/>
	<path fill-rule="evenodd" clip-rule="evenodd" fill="#F1F2F2" stroke="#848484" stroke-miterlimit="10" d="M184.5,211.4v-11.3h1.1
		v11.3H184.5L184.5,211.4z M171.9,147.9v-13.7h11.4v13.7H171.9L171.9,147.9z M184.5,135.3h1.1v11.3h-1.1V135.3z"/>
</g>
<g>
	<path fill-rule="evenodd" clip-rule="evenodd" fill="#F1F2F2" stroke="#848484" stroke-miterlimit="10" d="M340.6,680v13.7h-11.4
		V680H340.6L340.6,680z M340.6,744.8h-17v-51h17V744.8z"/>
	<path fill-rule="evenodd" clip-rule="evenodd" fill="#F1F2F2" stroke="#848484" stroke-miterlimit="10" d="M334.5,724.3
		c3,0,3.2-2.7,3.2-6c0-3.3-0.3-6-3.2-6s-5.4,2.7-5.4,6C329.2,721.7,331.6,724.3,334.5,724.3z"/>
	
		<rect x="331.7" y="698.3" fill-rule="evenodd" clip-rule="evenodd" fill="#F1F2F2" stroke="#848484" stroke-miterlimit="10" width="2.3" height="40.1"/>
	
		<rect x="331.7" y="698.3" fill-rule="evenodd" clip-rule="evenodd" fill="#F1F2F2" stroke="#848484" stroke-miterlimit="10" width="2.3" height="40.1"/>
	<polygon fill-rule="evenodd" clip-rule="evenodd" fill="#F1F2F2" stroke="#848484" stroke-miterlimit="10" points="333.9,735 
		335.7,728.5 335.7,708.2 333.9,701.7 	"/>
	<polygon fill-rule="evenodd" clip-rule="evenodd" fill="#F1F2F2" stroke="#848484" stroke-miterlimit="10" points="333.9,735 
		335.7,728.5 335.7,708.2 333.9,701.7 	"/>
	<path fill-rule="evenodd" clip-rule="evenodd" fill="#F1F2F2" stroke="#848484" stroke-miterlimit="10" d="M328,681.2v11.3h-1.1
		v-11.3H328L328,681.2z M340.6,744.8v13.7h-11.4v-13.7H340.6L340.6,744.8z M328,757.3h-1.1V746h1.1V757.3z"/>
</g>
<g>
	<g>
		
			<rect x="24" y="122.3" fill-rule="evenodd" clip-rule="evenodd" fill="#F1F2F2" stroke="#848484" stroke-miterlimit="10" width="91.3" height="70.9"/>
		
			<rect x="27.7" y="123.9" fill-rule="evenodd" clip-rule="evenodd" fill="#F1F2F2" stroke="#848484" stroke-miterlimit="10" width="85.1" height="67.6"/>
		
			<rect x="29.9" y="125.9" fill-rule="evenodd" clip-rule="evenodd" fill="#F1F2F2" stroke="#848484" stroke-miterlimit="10" width="19.2" height="26.3"/>
		
			<rect x="29.9" y="163.1" fill-rule="evenodd" clip-rule="evenodd" fill="#F1F2F2" stroke="#848484" stroke-miterlimit="10" width="19.2" height="26.3"/>
		<polygon fill-rule="evenodd" clip-rule="evenodd" fill="#F1F2F2" stroke="#848484" stroke-miterlimit="10" points="58.9,123.9 
			47.1,144.1 47.1,171.4 47.1,144.1 47.1,171.4 58.9,191.6 112.8,191.6 112.8,191.5 112.8,123.9 		"/>
		<polyline fill-rule="evenodd" clip-rule="evenodd" fill="#F1F2F2" stroke="#848484" stroke-miterlimit="10" points="58.9,123.9 
			67.5,138.1 47.1,144.1 		"/>
		
			<line fill-rule="evenodd" clip-rule="evenodd" fill="#F1F2F2" stroke="#848484" stroke-miterlimit="10" x1="47.1" y1="144.1" x2="58.9" y2="123.9"/>
		<polyline fill-rule="evenodd" clip-rule="evenodd" fill="#F1F2F2" stroke="#848484" stroke-miterlimit="10" points="58.9,191.6 
			67.5,177.4 47.1,171.4 		"/>
		
			<line fill-rule="evenodd" clip-rule="evenodd" fill="#F1F2F2" stroke="#848484" stroke-miterlimit="10" x1="47.1" y1="171.4" x2="58.9" y2="191.6"/>
	</g>
	<g>
		
			<rect x="20.6" y="197.9" transform="matrix(-1.836970e-16 1 -1 -1.836970e-16 240.0394 173.8417)" fill="#F1F2F2" stroke="#848484" stroke-miterlimit="10" width="25" height="18.1"/>
		
			<rect x="37.5" y="206.3" transform="matrix(-1.836970e-16 1 -1 -1.836970e-16 249.5963 164.0899)" fill="#F1F2F2" stroke="#848484" stroke-miterlimit="10" width="10.5" height="1.2"/>
	</g>
	<g>
		
			<rect x="20.6" y="99.3" transform="matrix(-1.836970e-16 1 -1 -1.836970e-16 141.4873 75.2896)" fill="#F1F2F2" stroke="#848484" stroke-miterlimit="10" width="25" height="18.1"/>
		
			<rect x="37.5" y="107.7" transform="matrix(3.479822e-13 1 -1 3.479822e-13 151.0442 65.5378)" fill="#F1F2F2" stroke="#848484" stroke-miterlimit="10" width="10.5" height="1.2"/>
	</g>
</g>
<g>
	<path fill-rule="evenodd" clip-rule="evenodd" fill="#F1F2F2" stroke="#848484" stroke-miterlimit="10" d="M158.3,102v13.7h-11.4
		V102H158.3L158.3,102z M158.3,166.8h-17v-51h17V166.8z"/>
	<path fill-rule="evenodd" clip-rule="evenodd" fill="#F1F2F2" stroke="#848484" stroke-miterlimit="10" d="M152.2,146.3
		c3,0,3.2-2.7,3.2-6c0-3.3-0.3-6-3.2-6s-5.4,2.7-5.4,6C146.9,143.7,149.3,146.3,152.2,146.3z"/>
	
		<rect x="149.4" y="120.3" fill-rule="evenodd" clip-rule="evenodd" fill="#F1F2F2" stroke="#848484" stroke-miterlimit="10" width="2.3" height="40.1"/>
	
		<rect x="149.4" y="120.3" fill-rule="evenodd" clip-rule="evenodd" fill="#F1F2F2" stroke="#848484" stroke-miterlimit="10" width="2.3" height="40.1"/>
	<polygon fill-rule="evenodd" clip-rule="evenodd" fill="#F1F2F2" stroke="#848484" stroke-miterlimit="10" points="151.6,157 
		153.5,150.5 153.5,130.2 151.6,123.7 	"/>
	<polygon fill-rule="evenodd" clip-rule="evenodd" fill="#F1F2F2" stroke="#848484" stroke-miterlimit="10" points="151.6,157 
		153.5,150.5 153.5,130.2 151.6,123.7 	"/>
	<path fill-rule="evenodd" clip-rule="evenodd" fill="#F1F2F2" stroke="#848484" stroke-miterlimit="10" d="M145.7,103.2v11.3h-1.1
		v-11.3H145.7L145.7,103.2z M158.3,166.7v13.7h-11.4v-13.7H158.3L158.3,166.7z M145.7,179.3h-1.1V168h1.1V179.3z"/>
</g>
<g>
	<path fill-rule="evenodd" clip-rule="evenodd" fill="#F1F2F2" stroke="#848484" stroke-miterlimit="10" d="M245.5,775.3h-37.8
		h-30.4c-2,0-3.7-1.7-3.7-3.7v-30.5V649c0-2,1.7-3.7,3.7-3.7h30.4c2,0,3.7,1.7,3.7,3.7v84.8c0,2,1.6,3.7,3.7,3.7h30.4
		c2,0,3.7,1.7,3.7,3.7v30.5C249.1,773.6,247.5,775.3,245.5,775.3z"/>
	<g>
		<path fill-rule="evenodd" clip-rule="evenodd" fill="#F1F2F2" stroke="#848484" stroke-miterlimit="10" d="M205.3,737.5
			c4.3,0,6.1,0.2,6.1,5.7v16.2c0,5.5-1.8,5.7-6.1,5.7h-16.1c-4.3,0-6.1-0.2-6.1-5.7v-16.2c0-5.5,1.8-5.7,6.1-5.7H205.3z"/>
		<path fill-rule="evenodd" clip-rule="evenodd" fill="#F1F2F2" stroke="#848484" stroke-miterlimit="10" d="M205.3,737.5
			c4.3,0,6.1,0.2,6.1,5.7v16.2c0,5.5-1.8,5.7-6.1,5.7h-16.1c-4.3,0-6.1-0.2-6.1-5.7v-16.2c0-5.5,1.8-5.7,6.1-5.7H205.3z"/>
		<path fill-rule="evenodd" clip-rule="evenodd" fill="#F1F2F2" stroke="#848484" stroke-miterlimit="10" d="M205.3,710.1
			c4.3,0,6.1,0.2,6.1,5.7V732c0,5.5-1.8,5.7-6.1,5.7h-16.1c-4.3,0-6.1-0.2-6.1-5.7v-16.2c0-5.5,1.8-5.7,6.1-5.7H205.3z"/>
		<path fill-rule="evenodd" clip-rule="evenodd" fill="#F1F2F2" stroke="#848484" stroke-miterlimit="10" d="M205.3,710.1
			c4.3,0,6.1,0.2,6.1,5.7V732c0,5.5-1.8,5.7-6.1,5.7h-16.1c-4.3,0-6.1-0.2-6.1-5.7v-16.2c0-5.5,1.8-5.7,6.1-5.7H205.3z"/>
		<path fill-rule="evenodd" clip-rule="evenodd" fill="#F1F2F2" stroke="#848484" stroke-miterlimit="10" d="M205.3,682.8
			c4.3,0,6.1,0.2,6.1,5.6v16.3c0,5.5-1.8,5.6-6.1,5.6h-16.1c-4.3,0-6.1-0.2-6.1-5.6v-16.3c0-5.5,1.8-5.6,6.1-5.6H205.3z"/>
		<path fill-rule="evenodd" clip-rule="evenodd" fill="#F1F2F2" stroke="#848484" stroke-miterlimit="10" d="M205.3,682.8
			c4.3,0,6.1,0.2,6.1,5.6v16.3c0,5.5-1.8,5.6-6.1,5.6h-16.1c-4.3,0-6.1-0.2-6.1-5.6v-16.3c0-5.5,1.8-5.6,6.1-5.6H205.3z"/>
		<path fill-rule="evenodd" clip-rule="evenodd" fill="#F1F2F2" stroke="#848484" stroke-miterlimit="10" d="M233.6,737.5
			c4.3,0,6.1,0.2,6.1,5.7v16.2c0,5.5-1.8,5.7-6.1,5.7h-16.1c-4.3,0-6.1-0.2-6.1-5.7v-16.2c0-5.5,1.8-5.7,6.1-5.7H233.6z"/>
		<path fill-rule="evenodd" clip-rule="evenodd" fill="#F1F2F2" stroke="#848484" stroke-miterlimit="10" d="M205.2,655.5
			c4.3,0,6.1,0.2,6.1,5.6v16.3c0,5.5-1.8,5.6-6.1,5.6H189c-4.3,0-6.1-0.2-6.1-5.6v-16.3c0-5.5,1.8-5.6,6.1-5.6H205.2z"/>
		<path fill-rule="evenodd" clip-rule="evenodd" fill="#F1F2F2" stroke="#848484" stroke-miterlimit="10" d="M177.5,775.3h66.1h1.6
			c2.2,0,3.9-1.9,3.9-4.2v-1.7v-27.7c0-2.3-1.8-4.2-3.9-4.2h-1.6c-2.2,0-3.9,1.9-3.9,4.2v23.5H183V655.5h24.4c2.2,0,3.9-1.9,3.9-4.2
			v-1.7c0-2.3-1.8-4.2-3.9-4.2h-28.3h-1.6c-2.2,0-3.9,1.9-3.9,4.2v1.7v118.1v1.7v0C173.6,773.4,175.3,775.3,177.5,775.3z"/>
	</g>
</g>
<g>
</g>
<g>
</g>
<g>
</g>
<g>
</g>
<g>
</g>
<g>
</g>
</svg>
