<svg id="Слой_1" data-name="Слой 1" xmlns="http://www.w3.org/2000/svg" viewBox="0 0 163.6507 235.80001"><title>1.09.02</title><rect x="0.224" y="5.51993" width="157.7883" height="230.28008" style="fill:#fff"/><rect x="101.78171" y="4.0972" width="0.44699" height="1.29712" style="fill:#003915"/><rect x="102.84981" y="4.0972" width="0.4467" height="1.29712" style="fill:#003915"/><rect x="120.3838" y="4.0972" width="0.44699" height="1.29712" style="fill:#003915"/><rect x="121.4519" y="4.0972" width="0.4467" height="1.29712" style="fill:#003915"/><rect x="138.98611" y="4.0972" width="0.44699" height="1.29712" style="fill:#003915"/><rect x="140.0542" y="4.0972" width="0.44681" height="1.29712" style="fill:#003915"/><rect x="83.17931" y="4.0972" width="0.44699" height="1.29712" style="fill:#003915"/><rect x="84.24741" y="4.0972" width="0.4467" height="1.29712" style="fill:#003915"/><rect x="75.69951" y="2.8678" width="85.05238" height="0.44672" style="fill:#003915"/><rect x="75.69951" y="3.95911" width="85.05238" height="0.44681" style="fill:#003915"/><rect x="75.69951" y="5.04001" width="85.05238" height="0.44672" style="fill:#003915"/><path d="M143.9138,242.01669h-2.5432v6.82021h2.5432Zm4.44159,3.9283h-2.5432v2.89191h2.5432Zm0-3.9612h-2.5432v2.89191h2.5432Zm-8.1774-1.1279h9.1752v11.2204H140.178Z" transform="translate(-131.017 -94.69849)" style="fill:#003915;fill-rule:evenodd"/><path d="M194.35921,290.87469h-2.5433v6.82011h2.5433Zm0,17.672h-2.5433v6.8202h2.5433Zm0-8.7423h-2.5433v2.7819h2.5433Zm0,3.9608h-2.5433v2.7819h2.5433Zm4.31229-12.8905h-2.5432v6.82011h2.5432Zm0,17.672h-2.5432v6.8202h2.5432Zm0-8.7423h-2.5432v2.7819h2.5432Zm0,3.9608h-2.5432v2.7819h2.5432Zm-7.9818-15.0497h9.2415v27.743h-9.2415Z" transform="translate(-131.017 -94.69849)" style="fill:#003915;fill-rule:evenodd"/><path d="M181.77361,181.8766a.374.374,0,1,1,.3748-.6474l13.92009,8.0399a.374.374,0,0,1-.3748.6474Z" transform="translate(-131.017 -94.69849)" style="fill:#003915"/><path d="M216.33051,134.66071a.374.374,0,0,1,.3748-.6474l13.92009,8.03989a.374.374,0,1,1-.3748.6474Z" transform="translate(-131.017 -94.69849)" style="fill:#003915"/><path d="M160.0676,280.2422a.374.374,0,1,0-.37469-.6474l-13.92011,8.0399a.374.374,0,1,0,.37471.6474Z" transform="translate(-131.017 -94.69849)" style="fill:#003915"/><path d="M186.40089,280.2422a.374.374,0,1,0-.37469-.6474l-13.9201,8.0399a.374.374,0,1,0,.37471.6474Z" transform="translate(-131.017 -94.69849)" style="fill:#003915"/><path d="M182.46761,225.4984a.374.374,0,0,0,.6474-.3748l-8.0399-13.92009a.374.374,0,1,0-.6474.37479Z" transform="translate(-131.017 -94.69849)" style="fill:#003915"/><path d="M201.7412,215.64149a.37407.37407,0,0,1-.64749-.3748l8.0399-13.92009a.37407.37407,0,0,1,.64749.3748Z" transform="translate(-131.017 -94.69849)" style="fill:#003915"/><rect x="41.0296" y="95.19391" width="2.6022" height="21.99631" style="fill:#003915"/><rect x="68.85049" y="193.17432" width="2.6022" height="38.7467" style="fill:#003915"/><rect x="30.20041" y="193.17432" width="2.60219" height="38.7467" style="fill:#003915"/><rect x="68.2507" y="40.9158" width="2.6022" height="61.68451" style="fill:#003915"/><rect x="41.0296" y="132.95992" width="2.6022" height="24.41789" style="fill:#003915"/><rect x="3.9969" y="94.64032" width="43.9424" height="2.60219" style="fill:#003915"/><rect x="3.9969" y="97.92731" width="38.3338" height="2.6022" style="fill:#003915"/><rect x="3.9969" y="154.77562" width="38.3338" height="2.60219" style="fill:#003915"/><rect x="3.9969" y="193.02571" width="11.0611" height="2.6022" style="fill:#003915"/><rect x="30.20041" y="193.02571" width="11.06099" height="2.6022" style="fill:#003915"/><rect x="57.1913" y="193.02571" width="14.2614" height="2.6022" style="fill:#003915"/><rect x="64.9344" y="94.64032" width="5.71629" height="2.60219" style="fill:#003915"/><rect x="74.545" y="120.90501" width="76.99519" height="2.6022" style="fill:#003915"/><rect x="5.5905" y="230.79801" width="147.68221" height="5.002" style="fill:#003915"/><rect x="0.224" y="9.63782" width="5.002" height="147.44209" style="fill:#003915"/><rect x="0.224" y="156.77431" width="6.4256" height="12.4257" style="fill:#003915"/><rect x="0.224" y="188.55692" width="6.4256" height="47.2431" style="fill:#003915"/><rect x="123.17931" y="35.64001" width="40.47139" height="8.1601" style="fill:#003915"/><rect x="68.2507" y="35.64001" width="17.65269" height="8.1601" style="fill:#003915"/><rect x="0.224" y="5.51993" width="23.12471" height="8.1601" style="fill:#003915"/><rect x="52.1122" y="5.51993" width="22.79851" height="8.1601" style="fill:#003915"/><rect x="149.8522" y="36.54001" width="8.1601" height="30.92032" style="fill:#003915"/><rect x="149.8522" y="96.41112" width="8.1601" height="29.7088" style="fill:#003915"/><rect x="149.8522" y="154.80901" width="8.1601" height="29.7088" style="fill:#003915"/><rect x="149.8522" y="213.78701" width="8.1601" height="22.013" style="fill:#003915"/><rect x="68.66479" y="120.90501" width="8.16011" height="12.78419" style="fill:#003915"/><rect x="68.2507" width="8.16" height="43.80011" style="fill:#003915"/><rect x="65.7888" width="10.6219" height="13.68002" style="fill:#003915"/><rect x="36.86121" y="8.52182" width="0.50169" height="2.29858" style="fill:#003915"/><rect x="38.06" y="8.52182" width="0.5011" height="2.29858" style="fill:#003915"/><rect x="50.6971" y="8.52182" width="0.50151" height="2.29858" style="fill:#003915"/><rect x="51.8956" y="8.52182" width="0.50121" height="2.29858" style="fill:#003915"/><rect x="22.7495" y="8.52182" width="0.50171" height="2.29858" style="fill:#003915"/><rect x="23.948" y="8.52182" width="0.5011" height="2.29858" style="fill:#003915"/><rect x="20.35991" y="5.51993" width="34.09369" height="0.50137" style="fill:#003915"/><rect x="20.35991" y="8.367" width="34.09369" height="0.5014" style="fill:#003915"/><rect x="20.35991" y="10.5383" width="34.09369" height="0.50153" style="fill:#003915"/><rect x="20.35991" y="13.17941" width="34.09369" height="0.5014" style="fill:#003915"/><rect x="152.8541" y="82.24352" width="2.29861" height="0.5018" style="fill:#003915"/><rect x="152.8541" y="81.04532" width="2.29861" height="0.50119" style="fill:#003915"/><rect x="152.8541" y="68.4079" width="2.29861" height="0.50153" style="fill:#003915"/><rect x="152.8541" y="67.20972" width="2.29861" height="0.50119" style="fill:#003915"/><rect x="152.8541" y="96.35532" width="2.29861" height="0.50169" style="fill:#003915"/><rect x="152.8541" y="95.15732" width="2.29861" height="0.50119" style="fill:#003915"/><rect x="149.8522" y="65.15292" width="0.5014" height="34.09369" style="fill:#003915"/><rect x="152.69931" y="65.15292" width="0.5014" height="34.09369" style="fill:#003915"/><rect x="154.87061" y="65.15292" width="0.5015" height="34.09369" style="fill:#003915"/><rect x="157.51169" y="65.15292" width="0.5014" height="34.09369" style="fill:#003915"/><rect x="152.8541" y="140.85831" width="2.29861" height="0.5018" style="fill:#003915"/><rect x="152.8541" y="139.66011" width="2.29861" height="0.50121" style="fill:#003915"/><rect x="152.8541" y="127.02272" width="2.29861" height="0.5015" style="fill:#003915"/><rect x="152.8541" y="125.82451" width="2.29861" height="0.50121" style="fill:#003915"/><rect x="152.8541" y="154.97011" width="2.29861" height="0.50171" style="fill:#003915"/><rect x="152.8541" y="153.77211" width="2.29861" height="0.50121" style="fill:#003915"/><rect x="149.8522" y="123.76772" width="0.5014" height="34.0937" style="fill:#003915"/><rect x="152.69931" y="123.76772" width="0.5014" height="34.0937" style="fill:#003915"/><rect x="154.87061" y="123.76772" width="0.5015" height="34.0937" style="fill:#003915"/><rect x="157.51169" y="123.76772" width="0.5014" height="34.0937" style="fill:#003915"/><rect x="152.8541" y="199.29822" width="2.29861" height="0.5018" style="fill:#003915"/><rect x="152.8541" y="198.10001" width="2.29861" height="0.50121" style="fill:#003915"/><rect x="152.8541" y="185.46262" width="2.29861" height="0.5015" style="fill:#003915"/><rect x="152.8541" y="184.26442" width="2.29861" height="0.50119" style="fill:#003915"/><rect x="152.8541" y="213.41001" width="2.29861" height="0.5017" style="fill:#003915"/><rect x="152.8541" y="212.21201" width="2.29861" height="0.5012" style="fill:#003915"/><rect x="149.8522" y="182.20761" width="0.5014" height="34.0937" style="fill:#003915"/><rect x="152.69931" y="182.20761" width="0.5014" height="34.0937" style="fill:#003915"/><rect x="154.87061" y="182.20761" width="0.5015" height="34.0937" style="fill:#003915"/><rect x="157.51169" y="182.20761" width="0.5014" height="34.0937" style="fill:#003915"/><path d="M235.77251,133.68619v1.66992h-.697v-1.66992Zm17.22559,0v1.66992H236.274v-1.66992Zm1.19821,0v1.66992h-.6971v-1.66992Zm.50169,1.66992v-1.66992h2.13309v-.5015H235.0755v-2.34558h21.75558v-.50153H234.5743v8.161h22.25679v-.5015H235.0755v-2.13959h21.70819v-.5014Z" transform="translate(-131.017 -94.69849)" style="fill:#003915;fill-rule:evenodd"/><rect x="158.2254" y="24.18661" width="1.29721" height="0.44699" style="fill:#003915"/><rect x="158.2254" y="23.1188" width="1.29721" height="0.44672" style="fill:#003915"/><rect x="158.2254" y="5.58371" width="1.29721" height="0.44699" style="fill:#003915"/><rect x="158.2254" y="4.51581" width="1.29721" height="0.44681" style="fill:#003915"/><rect x="160.30521" y="2.8678" width="0.44669" height="34.51242" style="fill:#003915"/><rect x="159.2139" y="2.8678" width="0.44672" height="34.51242" style="fill:#003915"/><rect x="158.133" y="2.8678" width="0.44681" height="34.51242" style="fill:#003915"/><path d="M136.728,223.0518v-9.82231a.90528.90528,0,0,1,.904-.9054h4.6102a4.5957,4.5957,0,0,1,4.591,4.5896v2.45221a4.59567,4.59567,0,0,1-4.591,4.59039H137.632a.90471.90471,0,0,1-.904-.9045m9.8606-6.13811a4.351,4.351,0,0,0-4.34639-4.345H137.632a.66143.66143,0,0,0-.6599.6608v9.82231a.66066.66066,0,0,0,.6599.6599h4.6102a4.3514,4.3514,0,0,0,4.34639-4.34579Z" transform="translate(-131.017 -94.69849)" style="fill:#003915"/><path d="M145.4984,216.91389a3.2587,3.2587,0,0,0-3.25619-3.25439h-2.68811a.56791.56791,0,0,0-.56749.5672v3.5753h-.24521v-3.5753a.8141.8141,0,0,1,.8127-.81239h2.68811a3.50405,3.50405,0,0,1,3.50079,3.49959v2.4523a3.5047,3.5047,0,0,1-3.50079,3.50081h-2.68811a.81456.81456,0,0,1-.8127-.8136v-3.5753h.24521v3.5753a.56835.56835,0,0,0,.56749.56839h2.68811a3.25935,3.25935,0,0,0,3.25619-3.2556Z" transform="translate(-131.017 -94.69849)" style="fill:#003915"/><path d="M141.8947,218.14079a.7835.7835,0,1,1,.78351.78381.78481.78481,0,0,1-.78351-.78381m1.3224,0a.53875.53875,0,1,0-.53889.53911A.53969.53969,0,0,0,143.2171,218.14079Z" transform="translate(-131.017 -94.69849)" style="fill:#003915"/><rect x="11.10251" y="123.31981" width="1.11659" height="0.2449" style="fill:#003915"/><rect x="11.53821" y="122.88382" width="0.2455" height="1.116" style="fill:#003915"/><path d="M137.91029,218.4781v.4037a.17373.17373,0,0,0,.1741.1729h.3793a.17364.17364,0,0,0,.174-.1729v-.4037h.2449v.4037a.41874.41874,0,0,1-.4189.41809h-.3793a.41869.41869,0,0,1-.4187-.41809v-.4057l.0374.002Zm.7274-1.07721a.17438.17438,0,0,0-.174-.174h-.3793a.17447.17447,0,0,0-.1741.174v.40111h-.2072l-.0374.0023v-.40341a.41855.41855,0,0,1,.4187-.41859h.3793a.41859.41859,0,0,1,.4189.41859v.40111h-.2449Z" transform="translate(-131.017 -94.69849)" style="fill:#003915"/><path d="M137.2428,218.14079a.461.461,0,0,1,.4603-.4612h3.0804a.4605.4605,0,0,1,0,.921h-3.0804a.4606.4606,0,0,1-.4603-.45981m3.7567,0a.2167.2167,0,0,0-.216-.21629h-3.0804a.21555.21555,0,0,0,0,.43111h3.0804A.216.216,0,0,0,140.9995,218.14079Z" transform="translate(-131.017 -94.69849)" style="fill:#003915"/><path d="M164.20081,293.14439v9.8223a.90527.90527,0,0,0,.904.9054h4.61031a4.59567,4.59567,0,0,0,4.5909-4.5896v-2.45219a4.59568,4.59568,0,0,0-4.5909-4.59052H165.1048a.90479.90479,0,0,0-.904.9046m9.8606,6.13811a4.351,4.351,0,0,1-4.3463,4.345H165.1048a.66145.66145,0,0,1-.6599-.6608v-9.8223a.66067.66067,0,0,1,.6599-.6599h4.61031a4.35132,4.35132,0,0,1,4.3463,4.34581Z" transform="translate(-131.017 -94.69849)" style="fill:#003915"/><path d="M172.97121,299.2822a3.25877,3.25877,0,0,1-3.2561,3.2545H167.027a.56784.56784,0,0,1-.56749-.5672v-3.5754h-.24521v3.5754a.814.814,0,0,0,.8127.8124h2.68811a3.50406,3.50406,0,0,0,3.5007-3.4997V296.83a3.50468,3.50468,0,0,0-3.5007-3.50081H167.027a.81448.81448,0,0,0-.8127.81351v3.5754h.24521v-3.5754a.56821.56821,0,0,1,.56749-.5683h2.68811a3.25933,3.25933,0,0,1,3.2561,3.2556Z" transform="translate(-131.017 -94.69849)" style="fill:#003915"/><path d="M169.36749,298.0554a.7835.7835,0,1,0,.78351-.7838.78481.78481,0,0,0-.78351.7838m1.3224,0a.53875.53875,0,1,1-.53889-.5392A.53971.53971,0,0,1,170.6899,298.0554Z" transform="translate(-131.017 -94.69849)" style="fill:#003915"/><rect x="38.5753" y="203.23441" width="1.11659" height="0.2449" style="fill:#003915"/><rect x="39.011" y="202.79932" width="0.2455" height="1.116" style="fill:#003915"/><path d="M165.3831,297.7181v-.4037a.17372.17372,0,0,1,.1741-.1729h.37929a.17365.17365,0,0,1,.174.1729v.4037h.24489v-.4037a.41866.41866,0,0,0-.4189-.4181h-.37929a.41863.41863,0,0,0-.4187.4181v.4056l.0374-.0019Zm.7274,1.07709a.17447.17447,0,0,1-.174.1741h-.37929a.17455.17455,0,0,1-.1741-.1741v-.4011h-.2072l-.0374-.0022v.4033a.41856.41856,0,0,0,.4187.4187h.37929a.4186.4186,0,0,0,.4189-.4187v-.4011h-.24489Z" transform="translate(-131.017 -94.69849)" style="fill:#003915"/><path d="M164.71561,298.0554a.461.461,0,0,0,.4603.4612h3.0804a.4605.4605,0,0,0,0-.921h-3.0804a.4606.4606,0,0,0-.4603.4598m3.7567,0a.21677.21677,0,0,1-.216.2163h-3.0804a.2156.2156,0,0,1,0-.4312h3.0804A.21608.21608,0,0,1,168.47231,298.0554Z" transform="translate(-131.017 -94.69849)" style="fill:#003915"/><path d="M183.8452,311.3368a3.9169,3.9169,0,0,1,3.9115,3.913v5.6653a.67728.67728,0,0,1-.4561.6392,1.24531,1.24531,0,0,1,.2036.205.94586.94586,0,0,0,.5215-.8442v-5.6653a4.1808,4.1808,0,1,0-8.3616,0v5.6653a.94541.94541,0,0,0,.521.8436,1.23689,1.23689,0,0,1,.2032-.2047.67619.67619,0,0,1-.45551-.6389v-5.6653a3.91709,3.91709,0,0,1,3.9124-3.913" transform="translate(-131.017 -94.69849)" style="fill:#003915"/><path d="M181.0414,319.8343h5.609a.204.204,0,0,0,.20119-.2016V315.362a3.00655,3.00655,0,1,0-6.01309,0v4.2707a.20473.20473,0,0,0,.2029.2016m5.5415-.2682h-5.476V315.362a2.738,2.738,0,0,1,5.476,0Z" transform="translate(-131.017 -94.69849)" style="fill:#003915"/><path d="M183.8455,317.1034a1.00815,1.00815,0,1,0-1.00891-1.008,1.01006,1.01006,0,0,0,1.00891,1.008m0-1.7476a.7394.7394,0,1,1-.7399.7396A.74045.74045,0,0,1,183.8455,315.3558Z" transform="translate(-131.017 -94.69849)" style="fill:#003915"/><rect x="185.33259" y="317.05843" width="0.26857" height="2.24219" transform="translate(-284.46909 79.36266) rotate(-36.72545)" style="fill:#003915"/><rect x="181.14603" y="318.04473" width="2.24309" height="0.26913" transform="translate(-312.70021 178.76664) rotate(-53.18983)" style="fill:#003915"/><path d="M181.14461,325.336h5.40059a1.355,1.355,0,0,0,1.3524-1.3538v-1.4743a1.35343,1.35343,0,0,0-1.3524-1.35239h-5.40059a1.35311,1.35311,0,0,0-1.35181,1.35239v1.4743a1.3547,1.3547,0,0,0,1.35181,1.3538m5.40059-3.9121a1.08542,1.08542,0,0,1,1.0842,1.084v1.4743a1.08584,1.08584,0,0,1-1.0842,1.0851h-5.40059a1.086,1.086,0,0,1-1.08371-1.0851v-1.4743a1.08558,1.08558,0,0,1,1.08371-1.084Z" transform="translate(-131.017 -94.69849)" style="fill:#003915"/><path d="M183.8455,323.9337a.6881.6881,0,1,0-.68831-.6874.6881.6881,0,0,0,.68831.6874m0-1.1072a.41925.41925,0,1,1-.41951.4198A.41941.41941,0,0,1,183.8455,322.8265Z" transform="translate(-131.017 -94.69849)" style="fill:#003915"/><path d="M150.7272,233.10229a3.91691,3.91691,0,0,0-3.913-3.9115h-5.6653a.67726.67726,0,0,0-.63919.4561,1.24407,1.24407,0,0,0-.20491-.20349.9457.9457,0,0,1,.8441-.52161h5.6653a4.1808,4.1808,0,1,1,0,8.3616h-5.6653a.94541.94541,0,0,1-.8436-.521,1.23808,1.23808,0,0,0,.2047-.2032.67639.67639,0,0,0,.6389.45549h5.6653a3.9171,3.9171,0,0,0,3.913-3.9124" transform="translate(-131.017 -94.69849)" style="fill:#003915"/><path d="M142.2298,235.9061v-5.6089a.20393.20393,0,0,1,.20151-.20129H146.702a3.00655,3.00655,0,1,1,0,6.01309H142.4313a.20465.20465,0,0,1-.20151-.2029m.2681-5.5415v5.476h4.2041a2.738,2.738,0,0,0,0-5.476Z" transform="translate(-131.017 -94.69849)" style="fill:#003915"/><path d="M144.96069,233.102a1.0081,1.0081,0,1,1,1.008,1.0089,1.01,1.01,0,0,1-1.008-1.0089m1.74751,0a.7394.7394,0,1,0-.7395.7399A.7403.7403,0,0,0,146.70821,233.102Z" transform="translate(-131.017 -94.69849)" style="fill:#003915"/><rect x="143.75023" y="230.35951" width="0.26853" height="2.24223" transform="translate(-258.70731 113.69212) rotate(-53.27585)" style="fill:#003915"/><rect x="142.76317" y="234.5454" width="2.24306" height="0.2691" transform="translate(-242.9383 38.29186) rotate(-36.80799)" style="fill:#003915"/><path d="M136.728,235.8029v-5.4006a1.355,1.355,0,0,1,1.35381-1.3524h1.4743a1.35343,1.35343,0,0,1,1.35239,1.3524v5.4006a1.3531,1.3531,0,0,1-1.35239,1.35179h-1.4743a1.3547,1.3547,0,0,1-1.35381-1.35179m3.91211-5.4006a1.08543,1.08543,0,0,0-1.084-1.0842h-1.4743a1.08585,1.08585,0,0,0-1.0851,1.0842v5.4006a1.08593,1.08593,0,0,0,1.0851,1.08369h1.4743a1.08551,1.08551,0,0,0,1.084-1.08369Z" transform="translate(-131.017 -94.69849)" style="fill:#003915"/><path d="M138.13029,233.102a.6881.6881,0,1,1,.68741.68829.68815.68815,0,0,1-.68741-.68829m1.10721,0a.41925.41925,0,1,0-.4198.4196A.41935.41935,0,0,0,139.2375,233.102Z" transform="translate(-131.017 -94.69849)" style="fill:#003915"/><path d="M159.9579,240.66119h0v7.83951h11.348v-7.83951Zm-.3308,8.17081v-8.5025h12.0098v8.5025Z" transform="translate(-131.017 -94.69849)" style="fill:#003915"/><path d="M162.35229,240.43671a.60447.60447,0,0,1,.59361-.61261h5.37219a.60414.60414,0,0,1,.5939.61261h-.3308a.26976.26976,0,0,0-.26311-.28091h-5.37219a.26951.26951,0,0,0-.2628.28091Z" transform="translate(-131.017 -94.69849)" style="fill:#003915"/><path d="M164.61011,243.06329h0v2.70761l1.5974.62169a2.474,2.474,0,0,0-.0919-1.67479,4.1547,4.1547,0,0,1-.2412-1.24071,2.44877,2.44877,0,0,1,.1882-.93649Zm-.33081,2.93411v-3.1669l2.4801-.892-.22479.39061a2.26583,2.26583,0,0,0-.32941,1.148,3.8903,3.8903,0,0,0,.22681,1.1438,3.9002,3.9002,0,0,1,.2282,1.1441,2.01728,2.01728,0,0,1-.218.9124l-.0675.1358Z" transform="translate(-131.017 -94.69849)" style="fill:#003915"/><path d="M138.8792,210.0011h30.085a2.16109,2.16109,0,0,0,2.1515-2.1657V197.424a2.16094,2.16094,0,0,0-2.1515-2.16589h-30.085a2.16081,2.16081,0,0,0-2.1512,2.16589V207.8354a2.161,2.161,0,0,0,2.1512,2.1657m30.085-14.51309a1.93106,1.93106,0,0,1,1.9218,1.936V207.8354a1.931,1.931,0,0,1-1.9218,1.9355h-30.085a1.93141,1.93141,0,0,1-1.9222-1.9355V197.424a1.93152,1.93152,0,0,1,1.9222-1.936Z" transform="translate(-131.017 -94.69849)" style="fill:#003915"/><path d="M165.97839,196.75a2.577,2.577,0,0,1,2.5654,2.582v6.59489a2.57659,2.57659,0,0,1-2.5654,2.58171H141.8652a2.577,2.577,0,0,1-2.5659-2.58171v-2.062a.39548.39548,0,0,1-.2282.142v1.92a2.80637,2.80637,0,0,0,2.7941,2.8125h24.11319a2.80663,2.80663,0,0,0,2.7944-2.8125V199.332a2.80656,2.80656,0,0,0-2.7944-2.81219H141.8652a2.8063,2.8063,0,0,0-2.7941,2.81219v1.9202a.39528.39528,0,0,1,.2282.14149V199.332a2.57746,2.57746,0,0,1,2.5659-2.582Z" transform="translate(-131.017 -94.69849)" style="fill:#003915"/><path d="M164.431,198.06329a1.26657,1.26657,0,0,1,1.26109,1.26871v6.59489a1.26633,1.26633,0,0,1-1.26109,1.2682H141.8652a1.26626,1.26626,0,0,1-1.2614-1.2682V203.082h-.2287v2.84489a1.49617,1.49617,0,0,0,1.4901,1.4989H164.431a1.49562,1.49562,0,0,0,1.4893-1.4989V199.332a1.49524,1.49524,0,0,0-1.4893-1.4989H141.8652a1.49578,1.49578,0,0,0-1.4901,1.4989v2.8452h.2287V199.332a1.26651,1.26651,0,0,1,1.2614-1.26871Z" transform="translate(-131.017 -94.69849)" style="fill:#003915"/><path d="M143.7704,203.3623a.73331.73331,0,1,0-.7299-.73361.73145.73145,0,0,0,.7299.73361m0-1.2364a.5033.5033,0,1,1-.50031.50279A.5019.5019,0,0,1,143.7704,202.1259Z" transform="translate(-131.017 -94.69849)" style="fill:#003915"/><rect x="12.63831" y="107.40781" width="0.22929" height="1.0457" style="fill:#003915"/><rect x="12.2341" y="107.81491" width="1.0378" height="0.2307" style="fill:#003915"/><path d="M139.2704,203.082v.53751a.2799.2799,0,0,1-.2787.28029h-.5051a.28039.28039,0,0,1-.27921-.28029V203.082h-.22879v.53751a.51038.51038,0,0,0,.508.511h.5051a.50962.50962,0,0,0,.5074-.511V203.082Zm-.2787-1.722a.27977.27977,0,0,1,.2787.28v.5372h.2287V201.64a.50927.50927,0,0,0-.5074-.5108h-.5051a.51.51,0,0,0-.508.5108v.5372h.22879V201.64a.28026.28026,0,0,1,.27921-.28Z" transform="translate(-131.017 -94.69849)" style="fill:#003915"/><path d="M137.98061,203.1974h3.20119a.56766.56766,0,0,0,0-1.1353h-3.20119a.56766.56766,0,0,0,0,1.1353m3.20119-.90511a.33715.33715,0,0,1,0,.6743h-3.20119a.33716.33716,0,0,1,0-.6743Z" transform="translate(-131.017 -94.69849)" style="fill:#003915"/><path d="M202.87219,288.8802v11.7692H214.6411V288.8802Zm.2494,11.5197V289.12939h11.2706V300.3999Z" transform="translate(-131.017 -94.69849)" style="fill:#003915"/><path d="M213.54289,294.7646a3.91957,3.91957,0,0,1-7.71419.98169.29988.29988,0,0,1-.1976.07431h-.0405a4.16852,4.16852,0,1,0-.00031-2.1116h.0408a.29823.29823,0,0,1,.1973.074,3.91974,3.91974,0,0,1,7.71449.9816" transform="translate(-131.017 -94.69849)" style="fill:#003915"/><path d="M206.1422,294.7646a3.48155,3.48155,0,1,0,3.4818-3.4812,3.4858,3.4858,0,0,0-3.4818,3.4812m6.71361,0a3.2319,3.2319,0,1,1-3.23181-3.2317A3.23543,3.23543,0,0,1,212.8558,294.7646Z" transform="translate(-131.017 -94.69849)" style="fill:#003915"/><path d="M208.7215,294.7646a.90225.90225,0,1,0,.9025-.9025.90334.90334,0,0,0-.9025.9025m1.5556,0a.65295.65295,0,1,1-.65311-.65311A.65425.65425,0,0,1,210.2771,294.7646Z" transform="translate(-131.017 -94.69849)" style="fill:#003915"/><rect x="77.94971" y="199.94141" width="1.3138" height="0.24951" style="fill:#003915"/><rect x="78.4817" y="199.40941" width="0.2498" height="1.31351" style="fill:#003915"/><path d="M204.81731,294.01089v1.50751a.427.427,0,0,0,.42659.42659h.38721a.42688.42688,0,0,0,.4267-.42659v-1.50751a.42688.42688,0,0,0-.4267-.42659h-.38721a.427.427,0,0,0-.42659.42659m.991,1.50751a.17759.17759,0,0,1-.1772.1774h-.38721a.17737.17737,0,0,1-.17709-.1774v-1.50751a.17711.17711,0,0,1,.17709-.17709h.38721a.17733.17733,0,0,1,.1772.17709Z" transform="translate(-131.017 -94.69849)" style="fill:#003915"/><path d="M204.942,294.9846h-.0864a.2197.2197,0,1,1,0-.43941h.0864v-.24969h-.0864a.4694.4694,0,0,0,0,.9388h.0864Zm2.5901-.22a.22052.22052,0,0,1-.22061.22H205.933v.24969h1.37849a.4694.4694,0,1,0,0-.9388H205.933v.24969h1.37849A.22007.22007,0,0,1,207.5321,294.7646Z" transform="translate(-131.017 -94.69849)" style="fill:#003915"/><path d="M203.3535,317.545v-7.1566a1.49613,1.49613,0,0,1,1.49471-1.49419h8.29869a1.496,1.496,0,0,1,1.4942,1.49419v7.1566a1.49562,1.49562,0,0,1-1.4942,1.4941h-8.29869a1.49572,1.49572,0,0,1-1.49471-1.4941m11.0546-7.1566a1.26266,1.26266,0,0,0-1.2612-1.2612h-8.29869a1.26277,1.26277,0,0,0-1.2617,1.2612v7.1566a1.26307,1.26307,0,0,0,1.2617,1.2617h8.29869a1.263,1.263,0,0,0,1.2612-1.2617Z" transform="translate(-131.017 -94.69849)" style="fill:#003915"/><path d="M204.17239,317.545v-7.1566a.67624.67624,0,0,1,.67581-.6758h7.0107a.67634.67634,0,0,1,.6757.6758v7.1566a.67645.67645,0,0,1-.6757.6763h-7.0107a.67634.67634,0,0,1-.67581-.6763m8.12921-7.1566a.44324.44324,0,0,0-.4427-.4431h-7.0107a.4435.4435,0,0,0-.443.4431v7.1566a.44386.44386,0,0,0,.443.4439h7.0107a.4436.4436,0,0,0,.4427-.4439Z" transform="translate(-131.017 -94.69849)" style="fill:#003915"/><path d="M212.95329,311.0885a.47425.47425,0,1,1,.4743.4743.47511.47511,0,0,1-.4743-.4743m.7155,0a.24125.24125,0,1,0-.2412.2415A.24191.24191,0,0,0,213.66879,311.0885Z" transform="translate(-131.017 -94.69849)" style="fill:#003915"/><path d="M212.95329,312.6892a.47425.47425,0,1,1,.4743.4748.47505.47505,0,0,1-.4743-.4748m.7155,0a.24125.24125,0,1,0-.2412.2418A.24159.24159,0,0,0,213.66879,312.6892Z" transform="translate(-131.017 -94.69849)" style="fill:#003915"/><rect x="75.2979" y="215.94331" width="0.23271" height="2.7195" style="fill:#003915"/><rect x="74.0537" y="217.18681" width="2.7196" height="0.2328" style="fill:#003915"/><path d="M205.53419,312.0016a.8969.8969,0,1,1,.89691.8966.898.898,0,0,1-.89691-.8966m1.561,0a.6643.6643,0,1,0-.66409.6638A.6655.6655,0,0,0,207.0952,312.0016Z" transform="translate(-131.017 -94.69849)" style="fill:#003915"/><rect x="79.1431" y="215.94331" width="0.23241" height="2.7195" style="fill:#003915"/><rect x="77.8987" y="217.18681" width="2.7204" height="0.2328" style="fill:#003915"/><path d="M209.3786,312.0016a.89715.89715,0,1,1,.8974.8966.8986.8986,0,0,1-.8974-.8966m1.5618,0a.6647.6647,0,1,0-.6644.6638A.66544.66544,0,0,0,210.9404,312.0016Z" transform="translate(-131.017 -94.69849)" style="fill:#003915"/><rect x="75.2979" y="219.87411" width="0.23271" height="2.7193" style="fill:#003915"/><rect x="74.0537" y="221.11761" width="2.7196" height="0.2331" style="fill:#003915"/><path d="M205.53419,315.9326a.8969.8969,0,1,1,.89691.8969.8979.8979,0,0,1-.89691-.8969m1.561,0a.6643.6643,0,1,0-.66409.66389A.6659.6659,0,0,0,207.0952,315.9326Z" transform="translate(-131.017 -94.69849)" style="fill:#003915"/><rect x="79.1431" y="219.87411" width="0.23241" height="2.7193" style="fill:#003915"/><rect x="77.8987" y="221.11761" width="2.7204" height="0.2331" style="fill:#003915"/><path d="M209.3786,315.9326a.89715.89715,0,1,1,.8974.8969.89852.89852,0,0,1-.8974-.8969m1.5618,0a.6647.6647,0,1,0-.6644.66389A.66584.66584,0,0,0,210.9404,315.9326Z" transform="translate(-131.017 -94.69849)" style="fill:#003915"/><path d="M212.95329,315.4029a.47425.47425,0,1,1,.4743.47449.47488.47488,0,0,1-.4743-.47449m.7155,0a.24125.24125,0,1,0-.2412.2417A.24168.24168,0,0,0,213.66879,315.4029Z" transform="translate(-131.017 -94.69849)" style="fill:#003915"/><path d="M212.95329,317.0044a.47425.47425,0,1,1,.4743.474.47466.47466,0,0,1-.4743-.474m.7155,0a.24125.24125,0,1,0-.2412.2415A.24166.24166,0,0,0,213.66879,317.0044Z" transform="translate(-131.017 -94.69849)" style="fill:#003915"/><path d="M138.882,246.8192a.809.809,0,1,0,.2348.57091.80942.80942,0,0,0-.2348-.57091m-.5726-1.03639a1.60708,1.60708,0,1,1-1.1364.4706A1.60257,1.60257,0,0,1,138.3094,245.78281Z" transform="translate(-131.017 -94.69849)" style="fill:#003915"/><path d="M198.09669,322.9042a.80924.80924,0,1,0,.23471.5709.80977.80977,0,0,0-.23471-.5709m-.5726-1.0364a1.60725,1.60725,0,1,1-1.1364.4706A1.60277,1.60277,0,0,1,197.52409,321.8678Z" transform="translate(-131.017 -94.69849)" style="fill:#003915"/><path d="M134.9249,269.5995a3.90785,3.90785,0,1,1-3.9079,3.90759,3.908,3.908,0,0,1,3.9079-3.90759" transform="translate(-131.017 -94.69849)" style="fill:#558e42;fill-rule:evenodd"/><polygon points="6.312 178.809 4.997 178.43 3.682 178.052 3.682 178.809 3.682 179.565 4.997 179.187 6.312 178.809" style="fill:#fdfdfd;fill-rule:evenodd"/><rect x="1.5038" y="178.62971" width="2.2813" height="0.38409" style="fill:#fdfdfd"/><path d="M165.0634,224.23531c-.7319,0-1.2359-.618-1.2359-1.73991s.504-1.7399,1.2359-1.7399,1.2359.6179,1.2359,1.7399-.504,1.73991-1.2359,1.73991m0,.396c.972,0,1.67979-.798,1.67979-2.13591s-.70779-2.13589-1.67979-2.13589-1.6739.7979-1.6739,2.13589S164.0914,224.6313,165.0634,224.6313Zm-3.62379-.366c-.726,0-1.11011-.43791-1.11011-.9a.97213.97213,0,0,1,1.08-.9178c.648,0,1.05589.3537,1.05589.9059A.91881.91881,0,0,1,161.43961,224.2653Zm.036-2.18411a1.3427,1.3427,0,0,0-1.2841.72c-.0119-.12579-.0179-.2457-.0179-.3418,0-1.14009.582-1.72209,1.4879-1.72209a1.47127,1.47127,0,0,1,.8159.1982l.174-.3481a1.9273,1.9273,0,0,0-.9958-.22791c-1.14009,0-1.91989.7438-1.91989,2.17191,0,1.326.6057,2.0999,1.7217,2.0999a1.3086,1.3086,0,0,0,1.4341-1.2901A1.27167,1.27167,0,0,0,161.4756,222.08119Zm-2.6158,1.89021a.31407.31407,0,0,0-.3181.324.30312.30312,0,0,0,.216.3058l-.2041.87h.288l.252-.828a.976.976,0,0,0,.0842-.34781A.314.314,0,0,0,158.8598,223.97141Zm-.84621-.864h-.83989v-.972h-.4198v.972h-1.82411l2.1481-2.71191h-.48019l-2.22571,2.7839v.3118h2.36971v1.10411h.432V223.4912h.83989Z" transform="translate(-131.017 -94.69849)" style="fill:#6e6e6e;fill-rule:evenodd"/><path d="M163.06531,171.4352c-.7319,0-1.2359-.618-1.2359-1.7399s.504-1.73988,1.2359-1.73988,1.23589.61789,1.23589,1.73988-.504,1.7399-1.23589,1.7399m0,.396c.972,0,1.67979-.798,1.67979-2.13589s-.70781-2.13591-1.67979-2.13591-1.6739.79791-1.6739,2.13591S162.09331,171.83119,163.06531,171.83119Zm-5.2079-4.23579v1.1698h.42609v-.786h2.16l-1.728,3.816h.468l1.758-3.894v-.30582Zm-.74971,3.5759a.31409.31409,0,0,0-.3181.324.30312.30312,0,0,0,.216.3058l-.2041.87h.288l.252-.828a.97632.97632,0,0,0,.0842-.34779A.314.314,0,0,0,157.1077,171.1713Zm-3.24.23981,1.4281-1.4037a1.729,1.729,0,0,0,.6899-1.31419c0-.70181-.54-1.13382-1.39211-1.13382a1.88736,1.88736,0,0,0-1.4879.59982l.30591.26419a1.42591,1.42591,0,0,1,1.146-.468c.64211,0,.9839.2999.9839.786,0,.28772-.0898.56981-.5638,1.03781l-1.74611,1.7101v.30589h2.946v-.38409Zm-2.9821-3.8157v.38379h.99019v3.816h.432v-4.1998Z" transform="translate(-131.017 -94.69849)" style="fill:#6e6e6e;fill-rule:evenodd"/><path d="M262.44959,311.2351c-.73187,0-1.23587-.618-1.23587-1.7399s.504-1.7399,1.23587-1.7399,1.2359.6179,1.2359,1.7399-.504,1.7399-1.2359,1.7399m0,.396c.972,0,1.67981-.798,1.67981-2.13589s-.70779-2.1359-1.67981-2.1359-1.6738.7979-1.6738,2.1359S261.4776,311.6311,262.44959,311.6311Zm-3.63-2.4358,1.188-1.49419v-.3058h-2.7v.3838h2.1481l-1.16388,1.4581v.3181h.2999c.77979,0,1.13379.3299,1.13379.8339,0,.5219-.38379.8459-1.08.8459a1.8411,1.8411,0,0,1-1.30191-.4859l-.21008.3419a2.18507,2.18507,0,0,0,1.512.54c1.014,0,1.5239-.54,1.5239-1.2419C260.1694,309.7171,259.7196,309.2432,258.81961,309.1953Zm-2.4299,1.7759a.314.314,0,0,0-.318.324.303.303,0,0,0,.216.3058l-.2041.87h.288l.252-.828a.97635.97635,0,0,0,.0842-.3478A.314.314,0,0,0,256.38971,310.9712Zm-3.666-3.5759v1.1698h.426v-.786h2.16l-1.728,3.816h.468l1.7581-3.894v-.3058Z" transform="translate(-131.017 -94.69849)" style="fill:#6e6e6e;fill-rule:evenodd"/><path d="M247.08591,247.9369c-.7319,0-1.2359-.618-1.2359-1.7399s.504-1.73991,1.2359-1.73991,1.23589.6179,1.23589,1.73991-.504,1.7399-1.23589,1.7399m0,.396c.972,0,1.67979-.798,1.67979-2.13589s-.70779-2.13591-1.67979-2.13591-1.6739.7979-1.6739,2.13591S246.11391,248.3329,247.08591,248.3329Zm-3.97191-.396c-.732,0-1.236-.618-1.236-1.7399s.504-1.73991,1.236-1.73991,1.2359.6179,1.2359,1.73991S243.8459,247.9369,243.114,247.9369Zm0,.396c.972,0,1.67979-.798,1.67979-2.13589s-.70779-2.13591-1.67979-2.13591-1.6739.7979-1.6739,2.13591S242.142,248.3329,243.114,248.3329Zm-2.5498-.6599a.31408.31408,0,0,0-.3181.324.30312.30312,0,0,0,.216.3058l-.2041.87h.288l.252-.828a.97638.97638,0,0,0,.0842-.34781A.314.314,0,0,0,240.56419,247.673Zm-2.562.2639c-.7319,0-1.2359-.618-1.2359-1.7399s.504-1.73991,1.2359-1.73991,1.2359.6179,1.2359,1.73991S238.7341,247.9369,238.0022,247.9369Zm0,.396c.972,0,1.67981-.798,1.67981-2.13589s-.70781-2.13591-1.67981-2.13591-1.6738.7979-1.6738,2.13591S237.0302,248.3329,238.0022,248.3329Zm-4.5-.42011,1.4281-1.4037a1.72919,1.72919,0,0,0,.69-1.31419c0-.7018-.54-1.1338-1.39211-1.1338a1.88727,1.88727,0,0,0-1.4879.59981l.3058.26419a1.42621,1.42621,0,0,1,1.1461-.468c.642,0,.9839.29991.9839.786,0,.28769-.0899.56979-.5638,1.0378l-1.7462,1.7101v.30591h2.94609v-.38411Z" transform="translate(-131.017 -94.69849)" style="fill:#6e6e6e;fill-rule:evenodd"/><path d="M154.4156,311.2368c-.7319,0-1.2359-.618-1.2359-1.7399s.504-1.73991,1.2359-1.73991,1.2359.6179,1.2359,1.73991-.504,1.7399-1.2359,1.7399m0,.396c.972,0,1.67979-.798,1.67979-2.13589s-.70779-2.1359-1.67979-2.1359-1.6738.7979-1.6738,2.1359S153.4436,311.6328,154.4156,311.6328Zm-3.97191-.396c-.73189,0-1.2359-.618-1.2359-1.7399s.504-1.73991,1.2359-1.73991,1.2359.6179,1.2359,1.73991S151.1756,311.2368,150.4437,311.2368Zm0,.396c.972,0,1.67981-.798,1.67981-2.13589s-.70781-2.1359-1.67981-2.1359-1.6738.7979-1.6738,2.1359S149.47169,311.6328,150.4437,311.6328Zm-2.5497-.6599a.31409.31409,0,0,0-.3181.324.30312.30312,0,0,0,.216.3058l-.2041.87h.288l.252-.828a.97635.97635,0,0,0,.0842-.3478A.314.314,0,0,0,147.894,310.9729Zm-3.24.2398,1.428-1.4037a1.72884,1.72884,0,0,0,.69-1.3142c0-.7018-.54-1.1338-1.39211-1.1338a1.8874,1.8874,0,0,0-1.4879.5998l.30591.2642a1.426,1.426,0,0,1,1.146-.468c.64209,0,.9839.2999.9839.786,0,.2877-.0898.5698-.5638,1.0378l-1.74611,1.7101v.3059h2.946v-.3841Z" transform="translate(-131.017 -94.69849)" style="fill:#6e6e6e;fill-rule:evenodd"/><path d="M160.91969,270.7368c-.73189,0-1.23589-.618-1.23589-1.7399s.504-1.7399,1.23589-1.7399,1.2359.61789,1.2359,1.7399-.504,1.7399-1.2359,1.7399m0,.396c.972,0,1.67981-.798,1.67981-2.13589s-.70781-2.13591-1.67981-2.13591-1.6738.79791-1.6738,2.13591S159.94769,271.1328,160.91969,271.1328Zm-4.098-4.23579v.38379h.9901v3.816h.432V266.897Zm-.61169,3.5759a.31408.31408,0,0,0-.3181.324.30312.30312,0,0,0,.216.3058l-.2041.87h.288l.252-.828a.97606.97606,0,0,0,.0842-.34779A.314.314,0,0,0,156.21,270.4729ZM153.9238,268.697l1.188-1.4942v-.3058h-2.7v.38379h2.1481l-1.16391,1.45811v.3181h.29991c.77979,0,1.1339.3299,1.1339.83389,0,.5219-.3838.8459-1.08.8459a1.84131,1.84131,0,0,1-1.302-.4859l-.21.3419a2.185,2.185,0,0,0,1.512.54c1.0139,0,1.5239-.54,1.5239-1.2419C155.2737,269.2188,154.82381,268.7449,153.9238,268.697Z" transform="translate(-131.017 -94.69849)" style="fill:#6e6e6e;fill-rule:evenodd"/><path d="M181.70081,311.2351c-.7319,0-1.2359-.618-1.2359-1.7399s.504-1.7399,1.2359-1.7399,1.2359.6179,1.2359,1.7399-.504,1.7399-1.2359,1.7399m0,.396c.972,0,1.67979-.798,1.67979-2.13589s-.70779-2.1359-1.67979-2.1359-1.6739.7979-1.6739,2.1359S180.72881,311.6311,181.70081,311.6311Zm-3.63011-2.4358,1.188-1.49419v-.3058h-2.7v.3838h2.1481l-1.16391,1.4581v.3181h.29991c.7798,0,1.1339.3299,1.1339.8339,0,.5219-.3838.8459-1.08.8459a1.84131,1.84131,0,0,1-1.302-.4859l-.21.3419a2.18493,2.18493,0,0,0,1.512.54c1.0139,0,1.5239-.54,1.5239-1.2419C179.42059,309.7171,178.9707,309.2432,178.07069,309.1953Zm-2.42979,1.7759a.31409.31409,0,0,0-.3181.324.30311.30311,0,0,0,.216.3058l-.2041.87h.288l.252-.828a.976.976,0,0,0,.0842-.3478A.314.314,0,0,0,175.6409,310.9712Zm-3.24.2398,1.4281-1.4037a1.729,1.729,0,0,0,.68991-1.31419c0-.70181-.54-1.1338-1.39211-1.1338a1.88743,1.88743,0,0,0-1.4879.5998l.30589.2642a1.426,1.426,0,0,1,1.146-.468c.64209,0,.9839.2999.9839.786,0,.2877-.08981.5698-.56381,1.0378l-1.74609,1.7101v.3059h2.946v-.3841Z" transform="translate(-131.017 -94.69849)" style="fill:#6e6e6e;fill-rule:evenodd"/><path d="M264.79559,200.49429c-.7319,0-1.2359-.618-1.2359-1.74s.504-1.7399,1.2359-1.7399,1.2359.618,1.2359,1.7399-.504,1.74-1.2359,1.74m0,.396c.972,0,1.67981-.798,1.67981-2.136s-.70779-2.13591-1.67981-2.13591-1.67389.798-1.67389,2.13591S263.82361,200.8903,264.79559,200.8903Zm-4.5-.42011,1.4281-1.40379a1.72869,1.72869,0,0,0,.68991-1.3141c0-.7019-.54-1.13391-1.39209-1.13391a1.88715,1.88715,0,0,0-1.48791.5999l.30591.26411a1.42627,1.42627,0,0,1,1.146-.468c.64209,0,.98389.2999.98389.7861,0,.28769-.08978.56979-.56378,1.0378l-1.74612,1.7101v.30589h2.946v-.38409Zm-1.55991-.2399a.31413.31413,0,0,0-.31808.324.30315.30315,0,0,0,.216.30589l-.2041.87h.288l.252-.828a.97684.97684,0,0,0,.0842-.3479A.314.314,0,0,0,258.73569,200.2303Zm-2.6221-1.8541h-.54l.144-1.33791h1.91991v-.3839H255.3398l-.216,2.1059h.894c1.06781,0,1.40372.33591,1.40372.8759,0,.51-.37781.85809-1.09192.85809a1.82093,1.82093,0,0,1-1.29-.4859l-.20979.3419a2.16858,2.16858,0,0,0,1.5058.54c1.02609,0,1.5239-.55791,1.5239-1.272C257.8595,198.8743,257.37961,198.37621,256.11359,198.37621Zm-3.528-1.7218v.3839h.9902v3.816h.432V196.6544Z" transform="translate(-131.017 -94.69849)" style="fill:#6e6e6e;fill-rule:evenodd"/><path d="M250.1861,117.9151c-.7319,0-1.2359-.618-1.2359-1.7399s.504-1.7399,1.2359-1.7399,1.2359.61789,1.2359,1.7399-.504,1.7399-1.2359,1.7399m0,.396c.972,0,1.67981-.798,1.67981-2.13589s-.70781-2.13589-1.67981-2.13589-1.6738.79788-1.6738,2.13589S249.2141,118.3111,250.1861,118.3111Zm-3.90579-.366c-.74411,0-1.1821-.324-1.1821-.8461,0-.5159.438-.8399,1.1821-.8399.74379,0,1.188.324,1.188.8399C247.46831,117.62109,247.02409,117.9451,246.2803,117.9451Zm-1.0381-2.78391c0-.468.402-.756,1.0381-.756.62979,0,1.044.288,1.044.762,0,.45609-.39009.75-1.044.75S245.2422,115.62329,245.2422,115.16119Zm1.8479.9119a.95106.95106,0,0,0,.6721-.9238c0-.684-.5941-1.11-1.4819-1.11-.88811,0-1.47011.426-1.47011,1.11a.94763.94763,0,0,0,.6599.9238,1.04831,1.04831,0,0,0-.8098,1.0321c0,.7438.612,1.2059,1.62,1.2059,1.002,0,1.6319-.4621,1.6319-1.2059A1.05781,1.05781,0,0,0,247.0901,116.07309Zm-3.40781,1.57813a.314.314,0,0,0-.318.324.303.303,0,0,0,.216.30582l-.2041.87h.288l.252-.828a.97536.97536,0,0,0,.08411-.34781A.31394.31394,0,0,0,243.6823,117.65121Zm-2.622-1.85422h-.54l.144-1.33789h1.91989v-.38382h-2.29779l-.216,2.1058h.894c1.0679,0,1.40379.33591,1.40379.87592,0,.51-.3779.85809-1.09189.85809a1.82124,1.82124,0,0,1-1.2901-.4859l-.20981.34189a2.16856,2.16856,0,0,0,1.5058.54c1.02611,0,1.52391-.55789,1.52391-1.27191C242.80611,116.29511,242.3262,115.797,241.0603,115.797Z" transform="translate(-131.017 -94.69849)" style="fill:#6e6e6e;fill-rule:evenodd"/><path d="M250.5107,105.61981c-.4269,0-.72119-.36063-.72119-1.0148,0-.65451.2943-1.01511.72119-1.01511s.72081.3606.72081,1.01511c0,.65417-.2939,1.0148-.72081,1.0148m0,.231c.56691,0,.9799-.46539.9799-1.24579,0-.7807-.413-1.24612-.9799-1.24612s-.97659.46542-.97659,1.24612C249.5341,105.38541,249.9437,105.8508,250.5107,105.8508Zm-2.31709-.231c-.42691,0-.7211-.36063-.7211-1.0148,0-.65451.29419-1.01511.7211-1.01511s.7209.3606.7209,1.01511C248.91451,105.25919,248.6205,105.61981,248.1936,105.61981Zm0,.231c.567,0,.98-.46539.98-1.24579,0-.7807-.413-1.24612-.98-1.24612s-.9765.46542-.9765,1.24612C247.2171,105.38541,247.62669,105.8508,248.1936,105.8508Zm-1.48761-.38489a.18313.18313,0,0,0-.18539.189.17667.17667,0,0,0,.1259.17828l-.11909.50772h.16809l.14711-.483a.57391.57391,0,0,0,.04909-.203A.18317.18317,0,0,0,246.706,105.46591Zm-.49319-.504h-.4901v-.567h-.2449v.567H244.4136l1.253-1.582h-.2798l-1.2986,1.62387v.182h1.38251v.644h.252v-.644h.4901Z" transform="translate(-131.017 -94.69849)" style="fill:#434242"/><path d="M167.1375,114.3876c-.42349,0-.64769-.2554-.64769-.5249a.56722.56722,0,0,1,.6301-.53549c.3779,0,.616.20639.616.52838a.53606.53606,0,0,1-.5984.532m.021-1.2738a.78345.78345,0,0,0-.74919.4198c-.00681-.07349-.0105-.14349-.0105-.19962,0-.66467.3396-1.00427.868-1.00427a.86054.86054,0,0,1,.4762.11539l.1015-.203a1.12586,1.12586,0,0,0-.5811-.1329c-.665,0-1.12.4339-1.12,1.267,0,.77332.3535,1.22491,1.00459,1.22491a.76339.76339,0,0,0,.8365-.75259A.74169.74169,0,0,0,167.15849,113.1138Zm-2.429-.9837v.224h.57739v2.226h.252v-2.45Zm-.3569,2.086a.18318.18318,0,0,0-.18541.18912.17677.17677,0,0,0,.1259.17828l-.11909.50769h.16811l.14709-.483a.5743.5743,0,0,0,.0491-.203A.18321.18321,0,0,0,164.3726,114.2161Zm-1.3334-1.036.69279-.8714v-.17859h-1.575v.224h1.253l-.67891.85062v.18539h.17491c.4552,0,.66159.1925.66159.48648,0,.30441-.224.4935-.6299.4935a1.07437,1.07437,0,0,1-.7597-.28348l-.12239.19958a1.27468,1.27468,0,0,0,.8821.31491c.59131,0,.8889-.31491.8889-.72452C163.8266,113.4845,163.56419,113.2081,163.0392,113.18008Z" transform="translate(-131.017 -94.69849)" style="fill:#434242"/><path d="M247.5927,143.63751c-.42349,0-.64769-.2554-.64769-.525a.56723.56723,0,0,1,.6301-.5354c.3779,0,.616.2063.616.52832a.53608.53608,0,0,1-.5984.5321m.021-1.27393a.78345.78345,0,0,0-.74919.4198c-.00681-.07339-.0105-.14337-.0105-.19949,0-.66479.3396-1.00439.868-1.00439a.861.861,0,0,1,.4762.11539l.1015-.20288a1.12613,1.12613,0,0,0-.5811-.133c-.6651,0-1.12.434-1.12,1.26709,0,.77332.3535,1.22479,1.00459,1.22479a.76332.76332,0,0,0,.8365-.75259A.74175.74175,0,0,0,247.61369,142.36359Zm-2.35559.26932c-.3779,0-.616-.20639-.616-.52841a.5363.5363,0,0,1,.59869-.532c.42351,0,.6474.25558.6474.5249A.56707.56707,0,0,1,245.2581,142.6329Zm-.0278-1.2739a.76322.76322,0,0,0-.8365.75259.74153.74153,0,0,0,.826.73471.78252.78252,0,0,0,.7489-.4198c.0071.07349.0105.14349.0105.19958,0,.665-.3396,1.0043-.868,1.0043a.85932.85932,0,0,1-.47591-.11539l-.1015.203a1.12374,1.12374,0,0,0,.5808.1329c.6651,0,1.12-.4339,1.12-1.267C246.2346,141.81061,245.8811,141.359,245.2303,141.359Zm-1.3127,2.107a.18318.18318,0,0,0-.18541.18909.17671.17671,0,0,0,.12581.17831l-.119.50769h.16811l.14709-.48309a.57282.57282,0,0,0,.049-.20291A.18318.18318,0,0,0,243.9176,143.466Zm-1.3334-1.0361.6927-.87131V141.38H241.702v.22391h1.2529l-.67889.85068V142.64h.1749c.45531,0,.66161.19247.66161.48639,0,.3045-.22391.4935-.62981.4935a1.07428,1.07428,0,0,1-.75969-.28342l-.12251.19952a1.27485,1.27485,0,0,0,.8822.31488c.59131,0,.8889-.31488.8889-.72449C243.3716,142.73441,243.1091,142.458,242.5842,142.4299Z" transform="translate(-131.017 -94.69849)" style="fill:#434242"/><path d="M150.8159,295.1201c-.4269,0-.7211-.3606-.7211-1.0148,0-.6545.2942-1.01511.7211-1.01511s.7209.36061.7209,1.01511c0,.65421-.294,1.0148-.7209,1.0148m0,.231c.56689,0,.9799-.46541.9799-1.2458,0-.7807-.413-1.24611-.9799-1.24611s-.9765.46541-.9765,1.24611C149.8394,294.8857,150.249,295.3511,150.8159,295.3511Zm-2.6252-.2449.8331-.81891a1.0079,1.0079,0,0,0,.4026-.76649c0-.40959-.315-.66161-.81221-.66161a1.10077,1.10077,0,0,0-.86789.35011l.17859.1539a.832.832,0,0,1,.66841-.273c.37439,0,.574.17491.574.4584,0,.16811-.05249.3325-.3288.6055l-1.01849.9975v.1786h1.71829v-.224Zm-.9099-.14a.18317.18317,0,0,0-.18541.1891.17677.17677,0,0,0,.1259.1783l-.11909.5076h.16809l.14711-.483a.574.574,0,0,0,.0491-.2029A.18321.18321,0,0,0,147.28081,294.9662Zm-1.60641-2.086v.22389h.57741v2.2261h.252v-2.45Z" transform="translate(-131.017 -94.69849)" style="fill:#434242"/><path d="M181.2589,295.1377c-.42349,0-.6478-.2554-.6478-.525a.56734.56734,0,0,1,.6302-.53551c.37779,0,.616.20641.616.52841a.53617.53617,0,0,1-.5984.53209m.0209-1.2739a.78366.78366,0,0,0-.74921.4198c-.00679-.07339-.01039-.1434-.01039-.1996,0-.6647.33949-1.0043.8679-1.0043a.86057.86057,0,0,1,.4762.1154l.1015-.203a1.12658,1.12658,0,0,0-.5811-.1329c-.665,0-1.1199.434-1.1199,1.26711,0,.7733.35339,1.22481,1.00459,1.22481a.76334.76334,0,0,0,.8365-.75261A.74177.74177,0,0,0,181.2798,293.8638Zm-2.156.0663.69281-.87131v-.17859H178.2417v.22389h1.2529l-.67889.85071v.18539h.1749c.4552,0,.66161.1924.66161.4864,0,.3044-.22391.4935-.62991.4935a1.07407,1.07407,0,0,1-.75969-.28351l-.12241.1996a1.27464,1.27464,0,0,0,.8821.31491c.59131,0,.889-.31491.889-.7245C179.9113,294.2346,179.6488,293.95821,179.12379,293.9301Zm-1.41759,1.0361a.18317.18317,0,0,0-.18541.1891.17677.17677,0,0,0,.1259.1783l-.11909.5076h.16809l.14711-.483a.574.574,0,0,0,.0491-.2029A.18321.18321,0,0,0,177.70621,294.9662Zm-1.60641-2.086v.22389h.57741v2.2261h.252v-2.45Z" transform="translate(-131.017 -94.69849)" style="fill:#434242"/><path d="M162.0286,237.35c-.4269,0-.7211-.3605-.7211-1.0148,0-.65451.2942-1.01511.7211-1.01511s.7209.3606.7209,1.01511c0,.6543-.294,1.0148-.7209,1.0148m0,.23109c.567,0,.98-.4655.98-1.2459,0-.78061-.413-1.24611-.98-1.24611s-.9765.4655-.9765,1.24611C161.05209,237.1156,161.4617,237.5811,162.0286,237.5811Zm-2.27849-.2135c-.43391,0-.6893-.1891-.6893-.4935,0-.301.25539-.4901.6893-.4901s.6931.1891.6931.4901C160.44321,237.1785,160.1841,237.3676,159.75011,237.3676Zm-.60541-1.624c0-.2729.2347-.441.60541-.441.36769,0,.60919.16811.60919.4444,0,.2662-.2276.4377-.60919.4377C159.3689,236.18469,159.1447,236.0132,159.1447,235.74361Zm1.078.53209a.55494.55494,0,0,0,.392-.53909c0-.39891-.34641-.64751-.86459-.64751-.51781,0-.85741.2486-.85741.64751a.553.553,0,0,0,.38519.53909.611.611,0,0,0-.47249.60181c0,.434.3568.7036.9447.7036.58449,0,.95219-.26961.95219-.7036A.61687.61687,0,0,0,160.2227,236.2757Zm-1.988.92041a.18314.18314,0,0,0-.1853.18909.17669.17669,0,0,0,.12581.1783l-.119.50771h.16811l.14709-.48309a.57493.57493,0,0,0,.049-.20291A.1832.1832,0,0,0,158.2347,237.19611Zm-1.6064-2.086v.22391h.5775v2.2261h.252v-2.45Z" transform="translate(-131.017 -94.69849)" style="fill:#434242"/><path d="M243.9261,322.3684c-.42351,0-.64771-.2554-.64771-.5249a.56718.56718,0,0,1,.6301-.5355c.37791,0,.616.2063.616.5284a.53606.53606,0,0,1-.5984.532m.021-1.2739a.7836.7836,0,0,0-.74919.4198c-.00681-.07339-.01051-.14339-.01051-.1995,0-.6647.3396-1.0043.8679-1.0043a.86106.86106,0,0,1,.4763.1153l.10139-.2029a1.12554,1.12554,0,0,0-.5811-.133c-.665,0-1.11989.434-1.11989,1.26711,0,.7733.35339,1.2249,1.00459,1.2249a.76339.76339,0,0,0,.8365-.7526A.74176.74176,0,0,0,243.9471,321.0945Zm-2.35559.2693c-.37791,0-.616-.2063-.616-.5283a.53634.53634,0,0,1,.59871-.5321c.42349,0,.6474.2557.6474.525A.56705.56705,0,0,1,241.59151,321.3638Zm-.0278-1.2739a.76323.76323,0,0,0-.8365.7526.7416.7416,0,0,0,.826.7348.78263.78263,0,0,0,.74889-.4198c.00711.07339.01051.14339.01051.1995,0,.665-.3396,1.0043-.868,1.0043a.859.859,0,0,1-.47589-.1153l-.1015.2029a1.12394,1.12394,0,0,0,.5808.133c.665,0,1.12-.434,1.12-1.26711C242.568,320.5415,242.21449,320.0899,241.56371,320.0899Zm-1.3127,2.107a.18317.18317,0,0,0-.18541.1891.17669.17669,0,0,0,.12581.1783l-.119.5077h.16809l.14711-.483a.57375.57375,0,0,0,.049-.203A.18319.18319,0,0,0,240.251,322.1969Zm-1.33351-1.036.69281-.8714v-.1786H238.0354v.224h1.2529l-.67889.8506v.1854h.1749c.45529,0,.66161.1925.66161.4864,0,.3045-.22391.4936-.62981.4936a1.07422,1.07422,0,0,1-.7597-.2835l-.1225.1995a1.2748,1.2748,0,0,0,.8822.315c.59129,0,.8889-.315.8889-.7246C239.705,321.4653,239.4425,321.1889,238.9175,321.1609Z" transform="translate(-131.017 -94.69849)" style="fill:#434242"/><line x1="112.10741" y1="9.97141" x2="76.41071" y2="9.97141" style="fill:none;stroke:#b1b2b2;stroke-miterlimit:22.92558479309082;stroke-width:0.2160000056028366px"/><line x1="29.3573" y1="18.72171" x2="5.226" y2="18.72171" style="fill:none;stroke:#b1b2b2;stroke-miterlimit:22.92558479309082;stroke-width:0.2160000056028366px"/><line x1="109.3573" y1="47.97153" x2="70.85291" y2="47.97153" style="fill:none;stroke:#b1b2b2;stroke-miterlimit:22.92558479309082;stroke-width:0.2160000056028366px"/><line x1="13.10741" y1="199.47171" x2="6.35901" y2="199.47171" style="fill:none;stroke:#b1b2b2;stroke-miterlimit:22.92558479309082;stroke-width:0.2160000056028366px"/><line x1="43.44011" y1="199.47171" x2="32.8026" y2="199.47171" style="fill:none;stroke:#b1b2b2;stroke-miterlimit:22.92558479309082;stroke-width:0.2160000056028366px"/><line x1="24.1909" y1="141.70161" x2="6.0242" y2="141.70161" style="fill:none;stroke:#b1b2b2;stroke-miterlimit:22.92558479309082;stroke-width:0.2160000056028366px"/><line x1="105.6907" y1="226.70251" x2="72.127" y2="226.70251" style="fill:none;stroke:#b1b2b2;stroke-miterlimit:22.92558479309082;stroke-width:0.2160000056028366px"/><line x1="158.133" y1="9.97141" x2="121.54651" y2="9.97141" style="fill:none;stroke:#b1b2b2;stroke-miterlimit:22.92558479309082;stroke-width:0.2160000056028366px"/><line x1="68.2507" y1="18.72171" x2="38.7964" y2="18.72171" style="fill:none;stroke:#b1b2b2;stroke-miterlimit:22.92558479309082;stroke-width:0.2160000056028366px"/><line x1="148.8768" y1="47.97153" x2="118.7964" y2="47.97153" style="fill:none;stroke:#b1b2b2;stroke-miterlimit:22.92558479309082;stroke-width:0.2160000056028366px"/><line x1="29.295" y1="199.47171" x2="22.54651" y2="199.47171" style="fill:none;stroke:#b1b2b2;stroke-miterlimit:22.92558479309082;stroke-width:0.2160000056028366px"/><line x1="59.6277" y1="199.47171" x2="52.8792" y2="199.47171" style="fill:none;stroke:#b1b2b2;stroke-miterlimit:22.92558479309082;stroke-width:0.2160000056028366px"/><line x1="40.3784" y1="141.70161" x2="33.63" y2="141.70161" style="fill:none;stroke:#b1b2b2;stroke-miterlimit:22.92558479309082;stroke-width:0.2160000056028366px"/><line x1="149.8522" y1="226.70251" x2="115.1297" y2="226.70251" style="fill:none;stroke:#b1b2b2;stroke-miterlimit:22.92558479309082;stroke-width:0.2160000056028366px"/><path d="M142.41341,267.94611c0,.4269-.3605.7211-1.0148.7211-.65451,0-1.015-.2942-1.015-.7211s.36049-.7209,1.015-.7209c.6543,0,1.0148.294,1.0148.7209m.23109,0c0-.567-.4655-.98-1.2459-.98-.78061,0-1.24611.413-1.24611.98s.4655.97649,1.24611.97649C142.179,268.92259,142.6445,268.513,142.6445,267.94611Zm-.2135,2.27849c0,.4339-.189.6893-.4935.6893-.301,0-.4901-.2554-.4901-.6893s.1891-.6931.4901-.6931C142.242,269.53149,142.431,269.7906,142.431,270.22459Zm-1.6239.60541c-.273,0-.4411-.2347-.4411-.60541,0-.36769.16811-.60919.4445-.60919.2661,0,.43759.2276.43759.60919C141.24809,270.6058,141.0766,270.83,140.8071,270.83Zm.532-1.078a.55486.55486,0,0,0-.53909-.392c-.39891,0-.64751.34641-.64751.86459,0,.51781.2486.85741.64751.85741a.55288.55288,0,0,0,.53909-.38521.611.611,0,0,0,.60181.4725c.434,0,.7036-.3568.7036-.9447,0-.58459-.26961-.95219-.7036-.95219A.61687.61687,0,0,0,141.3391,269.752Zm.92041,1.988a.18313.18313,0,0,0,.18909.18529.17671.17671,0,0,0,.17831-.12579l.50769.119v-.16811l-.483-.14709a.57575.57575,0,0,0-.203-.049A.1832.1832,0,0,0,142.25951,271.74Zm-2.086,1.60629h.22391v-.57739h2.2261v-.252h-2.45Z" transform="translate(-131.017 -94.69849)" style="fill:#434242"/><path d="M142.431,308.107c0,.434-.189.6894-.4935.6894-.301,0-.4901-.2554-.4901-.6894s.1891-.693.4901-.693c.3045,0,.4935.25909.4935.693m-1.6239.6055c-.273,0-.4411-.2347-.4411-.6055,0-.3676.16811-.6091.4445-.6091.2661,0,.43759.2276.43759.6091C141.24809,308.4883,141.0766,308.7125,140.8071,308.7125Zm.532-1.078a.55486.55486,0,0,0-.53909-.392c-.39891,0-.64751.3464-.64751.8645,0,.5179.2486.8575.64751.8575a.55289.55289,0,0,0,.53909-.3852.611.611,0,0,0,.60181.4725c.434,0,.7036-.3569.7036-.94479,0-.5845-.26961-.9521-.7036-.9521A.61688.61688,0,0,0,141.3391,307.6345Zm-1.1656,3.4685h.6826v-.2486h-.45869v-1.26l2.2261,1.008v-.273l-2.27141-1.0253h-.1786Zm2.086.4374a.18322.18322,0,0,0,.18909.1854.17678.17678,0,0,0,.17831-.1259l.50769.119v-.168l-.483-.14719a.5758.5758,0,0,0-.203-.049A.1832.1832,0,0,0,142.25951,311.5404Zm-2.086,1.6064h.22391v-.5775h2.2261v-.252h-2.45Z" transform="translate(-131.017 -94.69849)" style="fill:#434242"/><path d="M168.1736,221.609h.6826v-.2486h-.45869v-1.26l2.22609,1.008v-.273l-2.27139-1.0253h-.1786Zm0,2.06131h.6826v-.24861h-.45869v-1.26l2.22609,1.008v-.273l-2.27139-1.02519h-.1786Zm2.086.43739a.18318.18318,0,0,0,.1891.18541.17676.17676,0,0,0,.1783-.1259l.5076.11909v-.16811l-.483-.14709a.574.574,0,0,0-.2029-.0491A.18322.18322,0,0,0,170.2596,224.1077Zm.14,1.89011-.81889-.8331a1.00775,1.00775,0,0,0-.76651-.4025c-.40959,0-.66159.315-.66159.81209a1.101,1.101,0,0,0,.3501.868l.1539-.1786a.832.832,0,0,1-.273-.6684c0-.3744.1749-.574.45839-.574.16811,0,.3325.05251.6055.3288l.99751,1.01851h.17859V224.6503h-.224Z" transform="translate(-131.017 -94.69849)" style="fill:#434242"/><path d="M276.9313,269.47031c0,.4339-.18912.6893-.4935.6893-.30112,0-.49011-.2554-.49011-.6893s.189-.6931.49011-.6931c.30438,0,.4935.25909.4935.6931m-1.624.60539c-.273,0-.4411-.2347-.4411-.60539,0-.36771.16809-.60921.44449-.60921.2662,0,.43771.2276.43771.60921C275.74841,269.8515,275.5769,270.0757,275.30731,270.0757Zm.53207-1.078a.55494.55494,0,0,0-.53918-.392c-.3988,0-.6474.34641-.6474.86461,0,.51779.2486.85739.6474.85739a.553.553,0,0,0,.53918-.38519.611.611,0,0,0,.60181.47249c.4339,0,.70352-.3568.70352-.94469,0-.5845-.26962-.95221-.70352-.95221A.6169.6169,0,0,0,275.83939,268.9977Zm-.11569,2.5444-.8714-.69279h-.1785v1.57489h.22391v-1.2529l.85071.67891h.18539v-.17491c0-.4552.19238-.66159.48639-.66159.30441,0,.4935.224.4935.6299a1.07438,1.07438,0,0,1-.28351.7597l.19962.12239a1.27445,1.27445,0,0,0,.31491-.8821c0-.59131-.31491-.889-.72452-.889C276.0282,270.75459,275.7518,271.01711,275.72369,271.5421Zm1.0361,1.4176a.18317.18317,0,0,0,.18912.18539.17664.17664,0,0,0,.17819-.1259l.50769.11911v-.16811l-.483-.14709a.57357.57357,0,0,0-.20288-.0491A.18321.18321,0,0,0,276.7598,272.9597Zm-1.08139,1.5293v.3149l-.7807-.08389V273.6h-.22391v1.34059l1.22852.12581v-.5213c0-.623.19589-.8192.51108-.8192.2973,0,.50031.22049.50031.63719a1.06165,1.06165,0,0,1-.28351.7524l.19962.12241a1.26435,1.26435,0,0,0,.31491-.8784c0-.5984-.32541-.889-.74182-.889C275.9686,273.4705,275.67841,273.7506,275.67841,274.489Z" transform="translate(-131.017 -94.69849)" style="fill:#434242"/><path d="M276.9313,175.48019c0,.42351-.2554.64771-.525.64771a.5673.5673,0,0,1-.53552-.6301c0-.3779.20642-.616.52841-.616a.53611.53611,0,0,1,.5321.59839m-1.2739-.021a.78343.78343,0,0,0,.4198.74921c-.07339.00679-.1434.0105-.19962.0105-.6647,0-1.0043-.3396-1.0043-.868a.8608.8608,0,0,1,.11542-.47621l-.203-.1015a1.12619,1.12619,0,0,0-.1329.5811c0,.6651.434,1.12,1.26709,1.12.77332,0,1.22482-.3535,1.22482-1.00461a.76336.76336,0,0,0-.75262-.8365A.74173.74173,0,0,0,275.65741,175.4592Zm1.2739,2.31711c0,.434-.18912.68939-.4935.68939-.30112,0-.49011-.2554-.49011-.68939s.189-.6931.49011-.6931C276.74219,177.08321,276.9313,177.3423,276.9313,177.77631Zm-1.624.6055c-.273,0-.4411-.2348-.4411-.6055,0-.36771.16809-.60921.44449-.60921.2662,0,.43771.2276.43771.60921C275.74841,178.1575,275.5769,178.38181,275.30731,178.38181Zm.53207-1.07811a.55494.55494,0,0,0-.53918-.392c-.3988,0-.6474.34641-.6474.86461,0,.5179.2486.8575.6474.8575a.55307.55307,0,0,0,.53918-.3853.611.611,0,0,0,.60181.4726c.4339,0,.70352-.3569.70352-.94479,0-.5845-.26962-.95221-.70352-.95221A.6169.6169,0,0,0,275.83939,177.3037Zm.92041,1.988a.18317.18317,0,0,0,.18912.18539.17664.17664,0,0,0,.17819-.1259l.50769.11911v-.16811l-.483-.1472a.5753.5753,0,0,0-.20288-.049A.18321.18321,0,0,0,276.7598,179.2917Zm-1.0361,1.3334-.8714-.69281h-.1785v1.57491h.22391v-1.2529l.85071.67889h.18539v-.1749c0-.4552.19238-.66161.48639-.66161.30441,0,.4935.22391.4935.6299a1.07455,1.07455,0,0,1-.28351.7597l.19962.12241a1.27465,1.27465,0,0,0,.31491-.88211c0-.59129-.31491-.889-.72452-.889C276.0282,179.8376,275.7518,180.1001,275.72369,180.62511Z" transform="translate(-131.017 -94.69849)" style="fill:#434242"/><path d="M285.27591,111.83759v.49011H284.709v.2449h.56689v1.06409l-1.582-1.2529v.27982l1.624,1.29858h.18188v-1.38248h.6441v-.252h-.6441v-.49011Zm0,2.31332v.4902H284.709v.24487h.56689v1.06412l-1.582-1.2529v.27979l1.624,1.29852h.18188V114.8931h.6441v-.252h-.6441v-.4902Zm.504,2.5867a.18315.18315,0,0,0,.18909.1853.17669.17669,0,0,0,.17831-.12582l.50769.119V116.748l-.48309-.14709a.57511.57511,0,0,0-.20291-.049A.1832.1832,0,0,0,285.77991,116.73761Zm-2.086,1.60638h.22388v-.57748h2.2261v-.252h-2.45Z" transform="translate(-131.017 -94.69849)" style="fill:#434242"/><path d="M140.95129,145.77c0,.42352-.25539.64771-.52489.64771a.56724.56724,0,0,1-.53551-.6301c0-.3779.20641-.616.5284-.616a.536.536,0,0,1,.532.59839m-1.2739-.021a.78354.78354,0,0,0,.41991.74921c-.0735.00681-.14351.0105-.1996.0105-.6647,0-1.0043-.3396-1.0043-.868a.86094.86094,0,0,1,.1154-.4762l-.203-.1015a1.12584,1.12584,0,0,0-.1329.58112c0,.6651.4339,1.12,1.267,1.12.7733,0,1.2249-.35349,1.2249-1.00461a.76338.76338,0,0,0-.75259-.83649A.74175.74175,0,0,0,139.6774,145.749Zm1.25641,2.35562c0,.42688-.36061.72119-1.0148.72119-.6546,0-1.01511-.29431-1.01511-.72119s.3605-.72083,1.01511-.72083C140.5732,147.38379,140.93381,147.6777,140.93381,148.10461Zm.231,0c0-.56693-.4655-.97992-1.24579-.97992-.7807,0-1.24611.413-1.24611.97992s.46541.97659,1.24611.97659C140.6993,149.08121,141.16479,148.67151,141.16479,148.10461Zm-.385,1.48758a.18316.18316,0,0,0,.1891.18539.17668.17668,0,0,0,.1783-.12579l.50771.119v-.16812l-.483-.14709a.57354.57354,0,0,0-.203-.049A.1832.1832,0,0,0,140.7798,149.59219Zm-.504.49332v.49008h-.56691v.2449h.56691v1.06412l-1.582-1.2529v.27979l1.624,1.29849h.182v-1.38239h.644v-.252h-.644v-.49008Z" transform="translate(-131.017 -94.69849)" style="fill:#434242"/><line x1="10.44659" y1="180.06831" x2="10.44659" y2="192.25751" style="fill:none;stroke:#b1b2b2;stroke-miterlimit:22.92558479309082;stroke-width:0.2160000056028366px"/><line x1="10.44659" y1="220.06831" x2="10.44659" y2="230.79801" style="fill:none;stroke:#b1b2b2;stroke-miterlimit:22.92558479309082;stroke-width:0.2160000056028366px"/><line x1="38.44659" y1="133.06821" x2="38.44659" y2="154.13351" style="fill:none;stroke:#b1b2b2;stroke-miterlimit:22.92558479309082;stroke-width:0.2160000056028366px"/><line x1="144.94681" y1="181.81842" x2="144.94681" y2="230.79801" style="fill:none;stroke:#b1b2b2;stroke-miterlimit:22.92558479309082;stroke-width:0.2160000056028366px"/><line x1="144.94681" y1="88.06821" x2="144.94681" y2="120.90501" style="fill:none;stroke:#b1b2b2;stroke-miterlimit:22.92558479309082;stroke-width:0.2160000056028366px"/><line x1="153.96689" y1="25.0679" x2="153.96689" y2="35.64001" style="fill:none;stroke:#b1b2b2;stroke-miterlimit:22.92558479309082;stroke-width:0.2160000056028366px"/><line x1="8.9669" y1="58.56802" x2="8.9669" y2="94.64032" style="fill:none;stroke:#b1b2b2;stroke-miterlimit:22.92558479309082;stroke-width:0.2160000056028366px"/><line x1="10.44659" y1="158.13242" x2="10.44659" y2="170.62921" style="fill:none;stroke:#b1b2b2;stroke-miterlimit:22.92558479309082;stroke-width:0.2160000056028366px"/><line x1="10.44659" y1="195.62791" x2="10.44659" y2="210.62921" style="fill:none;stroke:#b1b2b2;stroke-miterlimit:22.92558479309082;stroke-width:0.2160000056028366px"/><line x1="38.44659" y1="100.52951" x2="38.44659" y2="123.62912" style="fill:none;stroke:#b1b2b2;stroke-miterlimit:22.92558479309082;stroke-width:0.2160000056028366px"/><line x1="144.94681" y1="123.76772" x2="144.94681" y2="172.37932" style="fill:none;stroke:#b1b2b2;stroke-miterlimit:22.92558479309082;stroke-width:0.2160000056028366px"/><line x1="144.94681" y1="44.5065" x2="144.94681" y2="78.62912" style="fill:none;stroke:#b1b2b2;stroke-miterlimit:22.92558479309082;stroke-width:0.2160000056028366px"/><line x1="153.96689" y1="5.48672" x2="153.96689" y2="15.62881" style="fill:none;stroke:#b1b2b2;stroke-miterlimit:22.92558479309082;stroke-width:0.2160000056028366px"/><line x1="8.9669" y1="13.68002" x2="8.9669" y2="49.12891" style="fill:none;stroke:#b1b2b2;stroke-miterlimit:22.92558479309082;stroke-width:0.2160000056028366px"/></svg>