<svg id="Слой_1" data-name="Слой 1" xmlns="http://www.w3.org/2000/svg" viewBox="0 0 162.65031 98.99319"><title>2.02.01</title><polygon points="159.931 2.599 159.931 50.195 162.65 50.195 162.65 98.993 0 98.993 0 2.599 159.931 2.599" style="fill:#fff;fill-rule:evenodd"/><path d="M156.2675,212.459a.374.374,0,1,1,.37469-.6474l13.9201,8.0399a.374.374,0,1,1-.37469.6474Z" transform="translate(-138.5963 -163.1019)" style="fill:#003915"/><path d="M267.16309,191.99831a.374.374,0,1,1,.6474.37469l-8.03989,13.9201a.374.374,0,0,1-.6474-.3748Z" transform="translate(-138.5963 -163.1019)" style="fill:#003915"/><rect x="51.2337" y="0.91409" width="2.6022" height="48.46091" style="fill:#003915"/><rect x="1.32291" y="47.4792" width="16.3262" height="2.6022" style="fill:#003915"/><rect x="33.1852" y="47.4792" width="20.65071" height="2.6022" style="fill:#003915"/><rect y="93.9912" width="161.24339" height="5.002" style="fill:#003915"/><rect width="161.24339" height="5.00201" style="fill:#003915"/><rect width="6.1498" height="58.8262" style="fill:#003915"/><rect y="79.4959" width="6.1498" height="19.4973" style="fill:#003915"/><rect x="124.67619" y="45.6432" width="37.97412" height="8.1601" style="fill:#003915"/><rect x="154.49019" y="45.5938" width="8.16013" height="13.8643" style="fill:#003915"/><rect x="154.49019" y="87.6302" width="8.16013" height="11.36299" style="fill:#003915"/><rect x="124.56142" y="0.0983" width="8.1601" height="29.4514" style="fill:#003915"/><rect x="157.4912" y="73.26761" width="2.29861" height="0.50179" style="fill:#003915"/><rect x="157.4912" y="72.0694" width="2.29861" height="0.50121" style="fill:#003915"/><rect x="157.4912" y="59.43201" width="2.29861" height="0.5015" style="fill:#003915"/><rect x="157.4912" y="58.2338" width="2.29861" height="0.50121" style="fill:#003915"/><rect x="157.4912" y="87.3793" width="2.29861" height="0.5018" style="fill:#003915"/><rect x="157.4912" y="86.1814" width="2.29861" height="0.50121" style="fill:#003915"/><rect x="154.4893" y="56.177" width="0.5015" height="34.0937" style="fill:#003915"/><rect x="157.3365" y="56.177" width="0.5014" height="34.0937" style="fill:#003915"/><rect x="159.5078" y="56.177" width="0.5014" height="34.0937" style="fill:#003915"/><rect x="162.14879" y="56.177" width="0.50153" height="34.0937" style="fill:#003915"/><rect x="157.4048" y="44.62331" width="1.29709" height="0.44699" style="fill:#003915"/><rect x="157.4048" y="43.5554" width="1.29709" height="0.44679" style="fill:#003915"/><rect x="157.4048" y="26.02119" width="1.29709" height="0.44701" style="fill:#003915"/><rect x="157.4048" y="24.9534" width="1.29709" height="0.4467" style="fill:#003915"/><rect x="157.4048" y="7.41881" width="1.29709" height="0.44699" style="fill:#003915"/><rect x="157.4048" y="6.351" width="1.29709" height="0.4467" style="fill:#003915"/><rect x="159.4846" y="4.2843" width="0.44669" height="44.1317" style="fill:#003915"/><rect x="158.3932" y="4.2843" width="0.44681" height="44.1317" style="fill:#003915"/><rect x="157.31239" y="4.2843" width="0.44672" height="44.1317" style="fill:#003915"/><path d="M144.9323,195.2538v-9.8223a.9053.9053,0,0,1,.904-.90541h4.61029a4.59568,4.59568,0,0,1,4.59091,4.5896v2.4523a4.59566,4.59566,0,0,1-4.59091,4.59041H145.8363a.90479.90479,0,0,1-.904-.9046m9.8606-6.13811a4.35093,4.35093,0,0,0-4.3463-4.34489H145.8363a.66136.66136,0,0,0-.6599.66071v9.8223a.66075.66075,0,0,0,.6599.66h4.61029a4.35139,4.35139,0,0,0,4.3463-4.34581Z" transform="translate(-138.5963 -163.1019)" style="fill:#003915"/><path d="M153.7027,189.116a3.25877,3.25877,0,0,0-3.2561-3.2545h-2.6881a.56785.56785,0,0,0-.5675.5672v3.57541h-.24519V186.4287a.8141.8141,0,0,1,.8127-.81239h2.6881a3.50406,3.50406,0,0,1,3.5007,3.49969v2.45221a3.50467,3.50467,0,0,1-3.5007,3.50079h-2.6881a.81446.81446,0,0,1-.8127-.81351V190.6801h.24519v3.57539a.56822.56822,0,0,0,.5675.56831h2.6881a3.25933,3.25933,0,0,0,3.2561-3.2556Z" transform="translate(-138.5963 -163.1019)" style="fill:#003915"/><path d="M150.099,190.3428a.7835.7835,0,1,1,.78351.7838.78482.78482,0,0,1-.78351-.7838m1.3224,0a.53875.53875,0,1,0-.53889.5392A.53971.53971,0,0,0,151.4214,190.3428Z" transform="translate(-138.5963 -163.1019)" style="fill:#003915"/><rect x="11.72751" y="27.1185" width="1.11659" height="0.2449" style="fill:#003915"/><rect x="12.16321" y="26.6825" width="0.2455" height="1.11601" style="fill:#003915"/><path d="M146.11459,190.6801v.4037a.17372.17372,0,0,0,.1741.1729h.3793a.17363.17363,0,0,0,.174-.1729v-.4037h.2449v.4037a.41867.41867,0,0,1-.4189.41809h-.3793a.41862.41862,0,0,1-.4187-.41809v-.40561l.0374.00191Zm.7274-1.0771a.17447.17447,0,0,0-.174-.1741h-.3793a.17457.17457,0,0,0-.1741.1741v.40111h-.2072l-.0374.0022V189.603a.41863.41863,0,0,1,.4187-.4187h.3793a.41867.41867,0,0,1,.4189.4187v.40111h-.2449Z" transform="translate(-138.5963 -163.1019)" style="fill:#003915"/><path d="M145.4471,190.3428a.46109.46109,0,0,1,.4603-.46121h3.0804a.4605.4605,0,0,1,0,.921h-3.0804a.46054.46054,0,0,1-.4603-.45979m3.7567,0a.21677.21677,0,0,0-.216-.21631h-3.0804a.2156.2156,0,0,0,0,.4312h3.0804A.21608.21608,0,0,0,149.2038,190.3428Z" transform="translate(-138.5963 -163.1019)" style="fill:#003915"/><path d="M170.3472,202.28259a3.917,3.917,0,0,0,3.9129,3.91161h5.6653a.67744.67744,0,0,0,.6393-.4561,1.24121,1.24121,0,0,0,.20491.20351.94583.94583,0,0,1-.84421.52159h-5.6653a4.18085,4.18085,0,1,1,0-8.36169h5.6653a.94527.94527,0,0,1,.8436.521,1.24519,1.24519,0,0,0-.20459.20331.67629.67629,0,0,0-.639-.45551h-5.6653a3.91705,3.91705,0,0,0-3.9129,3.91229" transform="translate(-138.5963 -163.1019)" style="fill:#003915"/><path d="M178.8446,199.4789v5.6089a.204.204,0,0,1-.20151.20129h-4.27069a3.0066,3.0066,0,1,1,0-6.0132h4.27069a.20468.20468,0,0,1,.20151.203m-.2682,5.5414V199.5444h-4.204a2.73795,2.73795,0,0,0,0,5.47589Z" transform="translate(-138.5963 -163.1019)" style="fill:#003915"/><path d="M176.11369,202.2829a1.00815,1.00815,0,1,1-1.008-1.0088,1.01,1.01,0,0,1,1.008,1.0088m-1.74759,0a.73945.73945,0,1,0,.73959-.73979A.7404.7404,0,0,0,174.3661,202.2829Z" transform="translate(-138.5963 -163.1019)" style="fill:#003915"/><rect x="177.05559" y="202.78323" width="0.26857" height="2.24219" transform="translate(-230.79518 60.87528) rotate(-53.27122)" style="fill:#003915"/><rect x="176.06812" y="200.57039" width="2.24311" height="0.26921" transform="translate(-223.52289 -16.92891) rotate(-36.8083)" style="fill:#003915"/><path d="M184.34641,199.58209v5.40051a1.35512,1.35512,0,0,1-1.35391,1.3524H181.5182a1.35351,1.35351,0,0,1-1.3524-1.3524v-5.40051a1.35326,1.35326,0,0,1,1.3524-1.3519h1.47429a1.35488,1.35488,0,0,1,1.35391,1.3519m-3.91211,5.40051a1.08542,1.08542,0,0,0,1.08391,1.08429h1.47429a1.08587,1.08587,0,0,0,1.08511-1.08429v-5.40051a1.08594,1.08594,0,0,0-1.08511-1.08369H181.5182a1.08549,1.08549,0,0,0-1.08391,1.08369Z" transform="translate(-138.5963 -163.1019)" style="fill:#003915"/><path d="M182.94411,202.2829a.68816.68816,0,1,1-.68741-.6882.68816.68816,0,0,1,.68741.6882m-1.10721,0a.4192.4192,0,1,0,.4198-.41949A.41944.41944,0,0,0,181.8369,202.2829Z" transform="translate(-138.5963 -163.1019)" style="fill:#003915"/><path d="M153.1032,208.57581H145.2637v-11.3479h7.83949Zm-8.1709.3308h8.5025V196.8968h-8.5025Z" transform="translate(-138.5963 -163.1019)" style="fill:#003915"/><path d="M153.3277,206.1814a.6044.6044,0,0,0,.61261-.5936v-5.37219a.60405.60405,0,0,0-.61261-.59381v.33081a.26967.26967,0,0,1,.2809.263v5.37219a.26951.26951,0,0,1-.2809.2628Z" transform="translate(-138.5963 -163.1019)" style="fill:#003915"/><path d="M150.7011,203.9236h-2.7077l-.6216-1.59731a2.47417,2.47417,0,0,1,1.6747.09181,4.152,4.152,0,0,0,1.24071.24129,2.4477,2.4477,0,0,0,.9366-.18829Zm-2.9341.3308h3.16681l.89209-2.48-.39059.22481a2.26723,2.26723,0,0,1-1.1481.32939,3.89037,3.89037,0,0,1-1.14371-.22679,3.89716,3.89716,0,0,0-1.14409-.22821,2.01681,2.01681,0,0,0-.91251.218l-.1358.0674Z" transform="translate(-138.5963 -163.1019)" style="fill:#003915"/><path d="M147.0835,183.4949h30.085a2.161,2.161,0,0,0,2.1515-2.16571V170.9178a2.16088,2.16088,0,0,0-2.1515-2.16591h-30.085a2.16082,2.16082,0,0,0-2.1512,2.16591v10.41139a2.161,2.161,0,0,0,2.1512,2.16571m30.085-14.51309a1.93112,1.93112,0,0,1,1.92189,1.936v10.41139a1.931,1.931,0,0,1-1.92189,1.9355h-30.085a1.93132,1.93132,0,0,1-1.92209-1.9355V170.9178a1.93142,1.93142,0,0,1,1.92209-1.936Z" transform="translate(-138.5963 -163.1019)" style="fill:#003915"/><path d="M174.18269,170.2438a2.577,2.577,0,0,1,2.5654,2.582v6.59479a2.5766,2.5766,0,0,1-2.5654,2.5818H150.0695a2.577,2.577,0,0,1-2.5659-2.5818V177.3587a.39548.39548,0,0,1-.2282.142v1.91989a2.8064,2.8064,0,0,0,2.7941,2.81261h24.11319a2.8066,2.8066,0,0,0,2.7944-2.81261v-6.59479a2.80652,2.80652,0,0,0-2.7944-2.81221H150.0695a2.80632,2.80632,0,0,0-2.7941,2.81221v1.9202a.39528.39528,0,0,1,.2282.14149v-2.06169a2.57746,2.57746,0,0,1,2.5659-2.582Z" transform="translate(-138.5963 -163.1019)" style="fill:#003915"/><path d="M172.6353,171.5571a1.26656,1.26656,0,0,1,1.26109,1.26871v6.59479a1.26636,1.26636,0,0,1-1.26109,1.26831H150.0695a1.26629,1.26629,0,0,1-1.2614-1.26831v-2.84479h-.2287v2.84479a1.4962,1.4962,0,0,0,1.4901,1.499h22.5658a1.49565,1.49565,0,0,0,1.4893-1.499v-6.59479a1.49524,1.49524,0,0,0-1.4893-1.4989H150.0695a1.49578,1.49578,0,0,0-1.4901,1.4989v2.8452h.2287v-2.8452a1.2665,1.2665,0,0,1,1.2614-1.26871Z" transform="translate(-138.5963 -163.1019)" style="fill:#003915"/><path d="M151.9747,176.85609a.73331.73331,0,1,0-.7299-.7336.73144.73144,0,0,0,.7299.7336m0-1.23639a.5033.5033,0,1,1-.50031.50279A.50189.50189,0,0,1,151.9747,175.61971Z" transform="translate(-138.5963 -163.1019)" style="fill:#003915"/><rect x="13.26331" y="12.4982" width="0.22929" height="1.0457" style="fill:#003915"/><rect x="12.8591" y="12.9053" width="1.0378" height="0.2307" style="fill:#003915"/><path d="M147.4747,176.57581v.5374a.2799.2799,0,0,1-.27859.2804h-.5052a.28042.28042,0,0,1-.27921-.2804v-.5374h-.2287v.5374a.51033.51033,0,0,0,.5079.51109h.5052a.50971.50971,0,0,0,.5074-.51109v-.5374Zm-.27859-1.722a.27975.27975,0,0,1,.27859.28v.5372h.22881v-.5372a.50927.50927,0,0,0-.5074-.5108h-.5052a.50988.50988,0,0,0-.5079.5108v.5372h.2287v-.5372a.28026.28026,0,0,1,.27921-.28Z" transform="translate(-138.5963 -163.1019)" style="fill:#003915"/><path d="M146.18491,176.69119h3.20119a.56766.56766,0,0,0,0-1.1353h-3.20119a.56766.56766,0,0,0,0,1.1353m3.20119-.90509a.33715.33715,0,0,1,0,.6743h-3.20119a.33716.33716,0,0,1,0-.6743Z" transform="translate(-138.5963 -163.1019)" style="fill:#003915"/><path d="M192.68311,212.4205v-11.7692h11.7688v11.7692Zm.24939-11.51981v11.2706h11.2706V200.9007Z" transform="translate(-138.5963 -163.1019)" style="fill:#003915"/><path d="M203.35381,206.536a3.91958,3.91958,0,0,0-7.7142-.9816.30008.30008,0,0,0-.1976-.0743h-.0405a4.16846,4.16846,0,1,1-.00031,2.1115h.0408a.29834.29834,0,0,0,.1973-.0739,3.91975,3.91975,0,0,0,7.71451-.9817" transform="translate(-138.5963 -163.1019)" style="fill:#003915"/><path d="M195.95309,206.536a3.48151,3.48151,0,1,1,3.48181,3.4812,3.48578,3.48578,0,0,1-3.48181-3.4812m6.71361,0a3.23195,3.23195,0,1,0-3.2318,3.23181A3.23555,3.23555,0,0,0,202.6667,206.536Z" transform="translate(-138.5963 -163.1019)" style="fill:#003915"/><path d="M198.5323,206.536a.9023.9023,0,1,1,.9026.9026.9034.9034,0,0,1-.9026-.9026m1.55569,0a.65295.65295,0,1,0-.65309.65311A.65424.65424,0,0,0,200.088,206.536Z" transform="translate(-138.5963 -163.1019)" style="fill:#003915"/><rect x="60.1812" y="43.3094" width="1.3139" height="0.2494" style="fill:#003915"/><rect x="60.7133" y="42.7773" width="0.24969" height="1.3136" style="fill:#003915"/><path d="M194.6282,207.28979V205.7823a.427.427,0,0,1,.42659-.42661h.38721a.42681.42681,0,0,1,.42661.42661v1.50749a.42687.42687,0,0,1-.42661.42661h-.38721a.42706.42706,0,0,1-.42659-.42661m.991-1.50749a.17773.17773,0,0,0-.1772-.17751h-.38721a.17754.17754,0,0,0-.1772.17751v1.50749a.17727.17727,0,0,0,.1772.17711h.38721a.17746.17746,0,0,0,.1772-.17711Z" transform="translate(-138.5963 -163.1019)" style="fill:#003915"/><path d="M194.7529,206.316h-.0864a.2197.2197,0,1,0,0,.43941h.0864v.2498h-.0864a.46945.46945,0,0,1,0-.9389h.0864Zm2.59.22a.22049.22049,0,0,0-.22049-.22H195.7439v-.24969h1.37851a.46945.46945,0,1,1,0,.9389H195.7439v-.2498h1.37851A.22.22,0,0,0,197.3429,206.536Z" transform="translate(-138.5963 -163.1019)" style="fill:#003915"/><path d="M193.1644,183.75571v7.15659a1.49612,1.49612,0,0,0,1.49471,1.49411h8.29869a1.496,1.496,0,0,0,1.49411-1.49411v-7.15659a1.49569,1.49569,0,0,0-1.49411-1.4942H194.6591a1.4958,1.4958,0,0,0-1.49471,1.4942m11.0545,7.15659a1.26262,1.26262,0,0,1-1.26111,1.26111H194.6591a1.26275,1.26275,0,0,1-1.2617-1.26111v-7.15659a1.263,1.263,0,0,1,1.2617-1.2617h8.29869a1.26287,1.26287,0,0,1,1.26111,1.2617Z" transform="translate(-138.5963 -163.1019)" style="fill:#003915"/><path d="M193.98331,183.75571v7.15659a.67616.67616,0,0,0,.6758.67581h7.01059a.67637.67637,0,0,0,.67581-.67581v-7.15659a.67649.67649,0,0,0-.67581-.67641H194.6591a.67628.67628,0,0,0-.6758.67641m8.1292,7.15659a.44325.44325,0,0,1-.44281.4431H194.6591a.44357.44357,0,0,1-.4431-.4431v-7.15659a.44388.44388,0,0,1,.4431-.44391h7.01059a.44356.44356,0,0,1,.44281.44391Z" transform="translate(-138.5963 -163.1019)" style="fill:#003915"/><path d="M202.76421,190.2121a.47425.47425,0,1,0,.4742-.4742.475.475,0,0,0-.4742.4742m.7155,0a.24126.24126,0,1,1-.2413-.2415A.24189.24189,0,0,1,203.47971,190.2121Z" transform="translate(-138.5963 -163.1019)" style="fill:#003915"/><path d="M202.76421,188.6114a.47425.47425,0,1,0,.4742-.47481.475.475,0,0,0-.4742.47481m.7155,0a.24126.24126,0,1,1-.2413-.24181A.24156.24156,0,0,1,203.47971,188.6114Z" transform="translate(-138.5963 -163.1019)" style="fill:#003915"/><rect x="57.5294" y="24.8374" width="0.2328" height="2.7196" style="fill:#003915"/><rect x="56.28531" y="26.0807" width="2.71959" height="0.2327" style="fill:#003915"/><path d="M195.34509,189.2991a.89685.89685,0,1,0,.89691-.89661.8979.8979,0,0,0-.89691.89661m1.561,0a.6643.6643,0,1,1-.66409-.66391A.66554.66554,0,0,1,196.9061,189.2991Z" transform="translate(-138.5963 -163.1019)" style="fill:#003915"/><rect x="61.3746" y="24.8374" width="0.2325" height="2.7196" style="fill:#003915"/><rect x="60.1302" y="26.0807" width="2.7204" height="0.2327" style="fill:#003915"/><path d="M199.18941,189.2991a.89715.89715,0,1,0,.89749-.89661.89859.89859,0,0,0-.89749.89661m1.56189,0a.6647.6647,0,1,1-.6644-.66391A.66541.66541,0,0,1,200.7513,189.2991Z" transform="translate(-138.5963 -163.1019)" style="fill:#003915"/><rect x="57.5294" y="20.90691" width="0.2328" height="2.7193" style="fill:#003915"/><rect x="56.28531" y="22.1496" width="2.71959" height="0.233" style="fill:#003915"/><path d="M195.34509,185.368a.89685.89685,0,1,0,.89691-.8969.89779.89779,0,0,0-.89691.8969m1.561,0a.6643.6643,0,1,1-.66409-.66389A.666.666,0,0,1,196.9061,185.368Z" transform="translate(-138.5963 -163.1019)" style="fill:#003915"/><rect x="61.3746" y="20.90691" width="0.2325" height="2.7193" style="fill:#003915"/><rect x="60.1302" y="22.1496" width="2.7204" height="0.233" style="fill:#003915"/><path d="M199.18941,185.368a.89715.89715,0,1,0,.89749-.8969.89848.89848,0,0,0-.89749.8969m1.56189,0a.6647.6647,0,1,1-.6644-.66389A.66592.66592,0,0,1,200.7513,185.368Z" transform="translate(-138.5963 -163.1019)" style="fill:#003915"/><path d="M202.76421,185.8978a.47425.47425,0,1,0,.4742-.4745.47477.47477,0,0,0-.4742.4745m.7155,0a.24126.24126,0,1,1-.2413-.24179A.24168.24168,0,0,1,203.47971,185.8978Z" transform="translate(-138.5963 -163.1019)" style="fill:#003915"/><path d="M202.76421,184.2962a.47425.47425,0,1,0,.4742-.47391.47466.47466,0,0,0-.4742.47391m.7155,0a.24126.24126,0,1,1-.2413-.2415A.2417.2417,0,0,1,203.47971,184.2962Z" transform="translate(-138.5963 -163.1019)" style="fill:#003915"/><path d="M188.0062,208.90579a.80923.80923,0,1,1,.23471-.57089.81019.81019,0,0,1-.23471.57089m-.5726,1.0363a1.60705,1.60705,0,1,0-1.1364-.47049A1.60315,1.60315,0,0,0,187.43359,209.94209Z" transform="translate(-138.5963 -163.1019)" style="fill:#003915"/><path d="M186.7272,194.16679h2.9803v-7.407h-2.9803Zm0-17.12239h2.9803v-7.407h-2.9803Zm0,8.52539h2.9803V182.4971h-2.9803Zm0-4.2627h2.9803v-3.0728h-2.9803Zm0,22.6451h2.9803V196.5453h-2.9803Zm-2.20081,2.3905h6.6288v-38.137h-6.6288Z" transform="translate(-138.5963 -163.1019)" style="fill:#003915;fill-rule:evenodd"/><path d="M286.34341,190.7683c-.7319,0-1.2359-.618-1.2359-1.7399s.504-1.7399,1.2359-1.7399,1.2359.6179,1.2359,1.7399-.504,1.7399-1.2359,1.7399m0,.396c.972,0,1.67978-.798,1.67978-2.13591s-.70779-2.13589-1.67978-2.13589-1.67383.7979-1.67383,2.13589S285.3714,191.16431,286.34341,191.16431Zm-4.5-.4201,1.4281-1.4037a1.72919,1.72919,0,0,0,.69-1.31419c0-.70181-.54-1.1338-1.39209-1.1338a1.88724,1.88724,0,0,0-1.48788.59979l.30579.26421a1.42618,1.42618,0,0,1,1.14609-.468c.642,0,.98392.2999.98392.786,0,.28781-.0899.56981-.56381,1.03781l-1.74619,1.7101v.30589h2.94611v-.38409Zm-1.55991-.23981a.314.314,0,0,0-.318.324.3031.3031,0,0,0,.216.30589l-.2041.8699h.288l.252-.828a.97565.97565,0,0,0,.0842-.34779A.314.314,0,0,0,280.28351,190.50439Zm-3.24.23981,1.4281-1.4037a1.72914,1.72914,0,0,0,.69-1.31419c0-.70181-.54-1.1338-1.39209-1.1338a1.88735,1.88735,0,0,0-1.48791.59979l.30582.26421a1.42618,1.42618,0,0,1,1.14609-.468c.642,0,.98392.2999.98392.786,0,.28781-.0899.56981-.56381,1.03781l-1.74619,1.7101v.30589h2.94608v-.38409Z" transform="translate(-138.5963 -163.1019)" style="fill:#6e6e6e;fill-rule:evenodd"/><path d="M236.5648,203.2682c-.7319,0-1.2359-.6179-1.2359-1.7399s.504-1.7399,1.2359-1.7399,1.2359.618,1.2359,1.7399-.504,1.7399-1.2359,1.7399m0,.396c.972,0,1.67979-.7979,1.67979-2.13589s-.70779-2.13591-1.67979-2.13591-1.6739.798-1.6739,2.13591S235.5928,203.6642,236.5648,203.6642Zm-5.20781-4.23579v1.16989h.426v-.7861h2.16l-1.728,3.816h.468l1.7581-3.89391v-.30589Zm-.7498,3.5759a.31405.31405,0,0,0-.318.324.30313.30313,0,0,0,.216.30591l-.2041.8699h.288l.252-.828a.97556.97556,0,0,0,.0842-.34781A.314.314,0,0,0,230.60719,203.0043Zm-2.28609-1.77591,1.188-1.49409v-.30589h-2.7v.38379h2.1481l-1.16389,1.45821v.318h.2999c.7798,0,1.1338.33,1.1338.834,0,.5218-.3838.84581-1.08.84581a1.84146,1.84146,0,0,1-1.30191-.48581l-.2101.34181a2.18476,2.18476,0,0,0,1.512.54c1.014,0,1.5239-.54,1.5239-1.24181C229.6709,201.75031,229.2211,201.27631,228.32111,201.22839Zm-4.2778,2.0157,1.4281-1.4037a1.72917,1.72917,0,0,0,.69-1.31409c0-.7019-.54-1.13391-1.39211-1.13391a1.88723,1.88723,0,0,0-1.4879.59981l.3058.26419a1.42637,1.42637,0,0,1,1.1461-.468c.642,0,.98389.2999.98389.78609,0,.2877-.08989.5697-.5638,1.0377l-1.7462,1.71021v.3058h2.94611v-.38411Z" transform="translate(-138.5963 -163.1019)" style="fill:#6e6e6e;fill-rule:evenodd"/><path d="M169.92281,194.2682c-.7319,0-1.2359-.6179-1.2359-1.7399s.504-1.7399,1.2359-1.7399,1.2359.618,1.2359,1.7399-.504,1.7399-1.2359,1.7399m0,.396c.972,0,1.67979-.7979,1.67979-2.13589s-.70779-2.13591-1.67979-2.13591-1.67381.798-1.67381,2.13591S168.95081,194.6642,169.92281,194.6642Zm-3.97191-.396c-.7319,0-1.2359-.6179-1.2359-1.7399s.504-1.7399,1.2359-1.7399,1.2359.618,1.2359,1.7399S166.6828,194.2682,165.9509,194.2682Zm0,.396c.972,0,1.67981-.7979,1.67981-2.13589s-.70781-2.13591-1.67981-2.13591-1.6738.798-1.6738,2.13591S164.9789,194.6642,165.9509,194.6642Zm-2.5497-.6599a.31414.31414,0,0,0-.3181.324.30325.30325,0,0,0,.216.30591l-.2041.8699h.288l.252-.828a.97556.97556,0,0,0,.0842-.34781A.314.314,0,0,0,163.4012,194.0043Zm-.84621-.864h-.83989v-.972h-.4198v.972h-1.8241l2.14809-2.7119h-.48019l-2.22569,2.78389v.3118h2.36969v1.10411h.432v-1.10411h.83989Z" transform="translate(-138.5963 -163.1019)" style="fill:#6e6e6e;fill-rule:evenodd"/><path d="M143.03,227.799a3.90785,3.90785,0,1,1-3.9079,3.9075,3.908,3.908,0,0,1,3.9079-3.9075" transform="translate(-138.5963 -163.1019)" style="fill:#558e42;fill-rule:evenodd"/><polygon points="6.838 68.605 5.523 68.227 4.208 67.848 4.208 68.605 4.208 69.361 5.523 68.983 6.838 68.605" style="fill:#fdfdfd;fill-rule:evenodd"/><rect x="2.0296" y="68.4258" width="2.2813" height="0.38411" style="fill:#fdfdfd"/><rect x="45.9301" y="3.289" width="1.0777" height="45.3447" style="fill:#003915"/><path d="M285.50751,172.1348h-.31491l.08389-.7807h1.1199v-.22389h-1.34048l-.12579,1.2285h.52127c.623,0,.81921.19589.81921.51109,0,.2973-.22061.50031-.63721.50031a1.06158,1.06158,0,0,1-.75238-.28351l-.12241.1996a1.26431,1.26431,0,0,0,.87839.31491c.59842,0,.889-.32541.889-.74181,0-.4343-.28009-.7245-1.01849-.7245m-2.058-1.00459v.22389h.57751v2.226h.252V171.1302Zm-.35678,2.086a.18315.18315,0,0,0-.18542.189.17658.17658,0,0,0,.12582.1783l-.119.50771h.16812l.14709-.483a.57353.57353,0,0,0,.049-.203A.18315.18315,0,0,0,283.09271,173.2162Zm-1.60641-2.086v.22389h.57739v2.226h.252V171.1302Z" transform="translate(-138.5963 -163.1019)" style="fill:#434242"/><path d="M229.9119,173.3562l.8331-.81891a1.00773,1.00773,0,0,0,.40251-.76649c0-.40959-.31491-.66161-.8121-.66161a1.101,1.101,0,0,0-.868.35011l.17859.1539a.832.832,0,0,1,.66841-.273c.3745,0,.574.17491.574.4584,0,.16811-.0524.3325-.3288.60541l-1.01849.99759v.1785h1.7184v-.22389Zm-1.645-1.22141H227.952l.08391-.7807h1.12v-.22389h-1.3405l-.1259,1.2285h.5213c.62309,0,.8192.19589.8192.51109,0,.2973-.2205.50031-.63719.50031a1.06142,1.06142,0,0,1-.7523-.28351l-.1225.1996a1.26443,1.26443,0,0,0,.87849.31491c.5984,0,.8889-.32541.8889-.74181C229.2854,172.425,229.0054,172.1348,228.26691,172.1348Zm-1.1936,1.08141a.18314.18314,0,0,0-.18541.189.1766.1766,0,0,0,.12581.1783l-.119.50771h.16811l.14709-.483a.57329.57329,0,0,0,.049-.203A.18316.18316,0,0,0,227.0733,173.2162Zm-1.3335-1.0361.69279-.8714v-.1785H224.8577v.22389h1.2529l-.67889.85071v.18539h.1749c.45531,0,.66161.1924.66161.4864,0,.3044-.22391.4935-.62981.4935a1.07422,1.07422,0,0,1-.7597-.28351l-.1225.1996a1.27473,1.27473,0,0,0,.8822.31491c.59131,0,.8889-.31491.8889-.7245C226.5273,172.4846,226.2648,172.20821,225.73981,172.1801Z" transform="translate(-138.5963 -163.1019)" style="fill:#434242"/><path d="M220.5014,254.12039c-.42691,0-.7211-.3606-.7211-1.01479,0-.6546.29419-1.01511.7211-1.01511s.7209.3605.7209,1.01511c0,.65419-.294,1.01479-.7209,1.01479m0,.231c.56689,0,.98-.4655.98-1.24579,0-.7807-.4131-1.24611-.98-1.24611s-.9765.46541-.9765,1.24611C219.5249,253.88589,219.93449,254.35139,220.5014,254.35139Zm-1.20731-.889h-.4901v-.56691h-.2449v.56691H217.495l1.2529-1.582h-.2798l-1.29849,1.624v.182h1.3824v.644h.252v-.644h.4901Zm-2.58659.504a.18318.18318,0,0,0-.18541.1891.17676.17676,0,0,0,.1259.1783l-.11909.50771h.16811l.14719-.483a.57592.57592,0,0,0,.049-.203A.18321.18321,0,0,0,216.7075,253.9664Zm-2.1384-2.086v.6826h.2486v-.4586h1.26l-1.008,2.226h.2729l1.0253-2.27139v-.1786Z" transform="translate(-138.5963 -163.1019)" style="fill:#434242"/><path d="M167.21429,208.8502c-.4269,0-.7211-.3605-.7211-1.0148,0-.65451.2942-1.01511.7211-1.01511s.7209.3606.7209,1.01511c0,.6543-.294,1.0148-.7209,1.0148m0,.231c.567,0,.98-.46539.98-1.24579,0-.78061-.413-1.24611-.98-1.24611s-.9765.4655-.9765,1.24611C166.23779,208.6158,166.6474,209.08119,167.21429,209.08119Zm-2.317-.231c-.4269,0-.7211-.3605-.7211-1.0148,0-.65451.2942-1.01511.7211-1.01511s.72081.3606.72081,1.01511C165.6181,208.4897,165.3242,208.8502,164.89729,208.8502Zm0,.231c.56691,0,.9799-.46539.9799-1.24579,0-.78061-.413-1.24611-.9799-1.24611s-.97649.4655-.97649,1.24611C163.92081,208.6158,164.3304,209.08119,164.89729,209.08119Zm-1.48759-.38489a.18316.18316,0,0,0-.18539.1891.1767.1767,0,0,0,.12579.1783l-.119.50769h.16811l.14709-.48309a.57265.57265,0,0,0,.049-.2029A.18319.18319,0,0,0,163.4097,208.6963Zm-1.8902.14.8331-.81891a1.00771,1.00771,0,0,0,.4025-.76649c0-.40961-.3149-.66161-.8121-.66161a1.10112,1.10112,0,0,0-.86789.3501l.1785.1539a.83214.83214,0,0,1,.6684-.273c.3745,0,.5741.1749.5741.4584,0,.16809-.05249.3325-.32889.6055l-1.0184.9975v.1786h1.71829v-.224Z" transform="translate(-138.5963 -163.1019)" style="fill:#434242"/><line x1="140.77821" y1="9.3183" x2="134.02971" y2="9.3183" style="fill:none;stroke:#b1b2b2;stroke-miterlimit:22.92558479309082;stroke-width:0.2160000056028366px"/><line x1="84.778" y1="9.3183" x2="53.83591" y2="9.3183" style="fill:none;stroke:#b1b2b2;stroke-miterlimit:22.92558479309082;stroke-width:0.2160000056028366px"/><line x1="74.778" y1="90.0686" x2="6.1498" y2="90.0686" style="fill:none;stroke:#b1b2b2;stroke-miterlimit:22.92558479309082;stroke-width:0.2160000056028366px"/><line x1="21.41211" y1="44.7984" x2="6.6674" y2="44.7984" style="fill:none;stroke:#b1b2b2;stroke-miterlimit:22.92558479309082;stroke-width:0.2160000056028366px"/><line x1="156.96571" y1="9.3183" x2="150.21721" y2="9.3183" style="fill:none;stroke:#b1b2b2;stroke-miterlimit:22.92558479309082;stroke-width:0.2160000056028366px"/><line x1="123.47151" y1="9.3183" x2="94.2171" y2="9.3183" style="fill:none;stroke:#b1b2b2;stroke-miterlimit:22.92558479309082;stroke-width:0.2160000056028366px"/><line x1="153.72169" y1="90.0686" x2="84.2171" y2="90.0686" style="fill:none;stroke:#b1b2b2;stroke-miterlimit:22.92558479309082;stroke-width:0.2160000056028366px"/><line x1="45.9301" y1="44.7984" x2="30.8512" y2="44.7984" style="fill:none;stroke:#b1b2b2;stroke-miterlimit:22.92558479309082;stroke-width:0.2160000056028366px"/><path d="M292.94989,186.8009l-.819-.8331a1.00758,1.00758,0,0,0-.76648-.40251c-.40961,0-.66162.31491-.66162.8121a1.10138,1.10138,0,0,0,.3501.868l.1539-.17859a.832.832,0,0,1-.27289-.6684c0-.3744.1749-.574.45831-.574.16809,0,.33249.0524.6055.3288l.9975,1.01849h.17859v-1.7184h-.22391Zm.01382,1.65889c0,.42691-.3605.7211-1.0148.7211-.65451,0-1.015-.29419-1.015-.7211s.3605-.72089,1.015-.72089C292.60321,187.73891,292.96371,188.0329,292.96371,188.45979Zm.23108,0c0-.567-.46548-.98-1.24588-.98-.78061,0-1.24612.413-1.24612.98s.46552.9765,1.24612.9765C292.72931,189.43629,293.19479,189.0267,293.19479,188.45979Zm-.385,1.48761a.18315.18315,0,0,0,.18909.18539.17673.17673,0,0,0,.17828-.1259l.50772.11909v-.16809l-.483-.14709a.57409.57409,0,0,0-.203-.0491A.1832.1832,0,0,0,292.80981,189.9474Zm.14008,1.89009-.819-.8331a1.00755,1.00755,0,0,0-.76648-.4025c-.40961,0-.66162.3149-.66162.8121a1.1014,1.1014,0,0,0,.3501.868l.1539-.1786a.832.832,0,0,1-.27289-.6684c0-.3744.1749-.574.45831-.574.16809,0,.33249.05241.6055.32881l.9975,1.01849h.17859v-1.7184h-.22391Z" transform="translate(-138.5963 -163.1019)" style="fill:#434242"/><path d="M290.21359,233.561c0,.4269-.3606.7211-1.0148.7211-.65448,0-1.01511-.2942-1.01511-.7211s.36063-.7209,1.01511-.7209c.65421,0,1.0148.294,1.0148.7209m.231,0c0-.567-.46552-.98-1.24582-.98-.7807,0-1.24609.413-1.24609.98s.46539.9765,1.24609.9765C289.9791,234.53751,290.44461,234.1279,290.44461,233.561Zm-.231,2.317c0,.4269-.3606.7211-1.0148.7211-.65448,0-1.01511-.2942-1.01511-.7211s.36063-.72081,1.01511-.72081C289.853,235.1572,290.21359,235.4511,290.21359,235.878Zm.231,0c0-.56691-.46552-.9799-1.24582-.9799-.7807,0-1.24609.413-1.24609.9799s.46539.97649,1.24609.97649C289.9791,236.85449,290.44461,236.4449,290.44461,235.878Zm-.38492,1.48759a.18314.18314,0,0,0,.189.18539.1767.1767,0,0,0,.17831-.12579l.50769.119v-.16811l-.483-.14709a.573.573,0,0,0-.203-.049A.18316.18316,0,0,0,290.05969,237.3656Zm.14,1.8902-.81891-.8331a1.0081,1.0081,0,0,0-.76651-.4026c-.40958,0-.66159.315-.66159.81221a1.101,1.101,0,0,0,.35.86789l.154-.1785a.83238.83238,0,0,1-.273-.6685c0-.37439.17493-.574.45831-.574.16809,0,.33261.05249.6055.3288l.9975,1.01849h.17862V237.9082h-.22391Z" transform="translate(-138.5963 -163.1019)" style="fill:#434242"/><path d="M151.69971,233.6752l-.81891-.8331a1.00758,1.00758,0,0,0-.76649-.4025c-.40961,0-.66161.3149-.66161.81209a1.10136,1.10136,0,0,0,.3501.868l.1539-.1786a.83216.83216,0,0,1-.273-.6684c0-.37451.1749-.574.4584-.574.16809,0,.33249.0524.6055.3288l.9975,1.01851h.1786v-1.7184h-.224Zm0,1.9879-.81891-.8331a1.00758,1.00758,0,0,0-.76649-.4025c-.40961,0-.66161.3149-.66161.81209a1.10136,1.10136,0,0,0,.3501.868l.1539-.1786a.832.832,0,0,1-.273-.6684c0-.3744.1749-.574.4584-.574.16809,0,.33249.0524.6055.3288l.9975,1.01851h.1786v-1.7184h-.224Zm-.14.91a.18314.18314,0,0,0,.1891.18529.17668.17668,0,0,0,.1783-.12579l.50771.119v-.16811l-.48309-.14709a.57493.57493,0,0,0-.20291-.049A.18321.18321,0,0,0,151.55969,236.5731Zm.14,1.89009-.81891-.8331a1.00758,1.00758,0,0,0-.76649-.4025c-.40961,0-.66161.3149-.66161.8121a1.10135,1.10135,0,0,0,.3501.868l.1539-.1786a.83214.83214,0,0,1-.273-.6684c0-.3745.1749-.574.4584-.574.16809,0,.33249.0524.6055.32881l.9975,1.01849h.1786v-1.7184h-.224Z" transform="translate(-138.5963 -163.1019)" style="fill:#434242"/><path d="M179.9836,188.3396c0,.4269-.3606.7211-1.0148.7211-.6546,0-1.01509-.2942-1.01509-.7211s.36049-.7209,1.01509-.7209c.65421,0,1.0148.294,1.0148.7209m.231,0c0-.567-.4655-.98-1.2458-.98-.7807,0-1.2462.413-1.2462.98s.4655.9765,1.2462.9765C179.7491,189.3161,180.2146,188.90649,180.2146,188.3396Zm-2.471,2.3904h.224v-.57739h2.226v-.252h-2.45Zm2.086.3569a.18316.18316,0,0,0,.1891.18539.17667.17667,0,0,0,.1783-.1259l.50769.11911v-.16811l-.483-.14709a.57437.57437,0,0,0-.203-.0491A.18321.18321,0,0,0,179.82961,191.0869Zm.14009,1.8902-.819-.8331a1.00775,1.00775,0,0,0-.7664-.4026c-.4097,0-.6617.315-.6617.81221a1.10112,1.10112,0,0,0,.3501.86789l.1539-.17859a.83232.83232,0,0,1-.27289-.66841c0-.37439.1749-.574.4583-.574.16809,0,.3325.05249.6055.3288l.9975,1.01849h.1786V191.6295h-.22391Z" transform="translate(-138.5963 -163.1019)" style="fill:#434242"/><line x1="153.41759" y1="30.4149" x2="153.41759" y2="45.5938" style="fill:none;stroke:#b1b2b2;stroke-miterlimit:22.92558479309082;stroke-width:0.2160000056028366px"/><line x1="150.6674" y1="77.66501" x2="150.6674" y2="93.9912" style="fill:none;stroke:#b1b2b2;stroke-miterlimit:22.92558479309082;stroke-width:0.2160000056028366px"/><line x1="12.1674" y1="77.16501" x2="12.1674" y2="93.9912" style="fill:none;stroke:#b1b2b2;stroke-miterlimit:22.92558479309082;stroke-width:0.2160000056028366px"/><line x1="40.43741" y1="31.91501" x2="40.43741" y2="47.4792" style="fill:none;stroke:#b1b2b2;stroke-miterlimit:22.92558479309082;stroke-width:0.2160000056028366px"/><line x1="153.41759" y1="5.85379" x2="153.41759" y2="20.9758" style="fill:none;stroke:#b1b2b2;stroke-miterlimit:22.92558479309082;stroke-width:0.2160000056028366px"/><line x1="150.6674" y1="54.479" x2="150.6674" y2="68.22591" style="fill:none;stroke:#b1b2b2;stroke-miterlimit:22.92558479309082;stroke-width:0.2160000056028366px"/><line x1="12.1674" y1="50.72881" x2="12.1674" y2="67.72591" style="fill:none;stroke:#b1b2b2;stroke-miterlimit:22.92558479309082;stroke-width:0.2160000056028366px"/><line x1="40.43741" y1="5.00201" x2="40.43741" y2="22.47591" style="fill:none;stroke:#b1b2b2;stroke-miterlimit:22.92558479309082;stroke-width:0.2160000056028366px"/></svg>