<svg id="Слой_1" data-name="Слой 1" xmlns="http://www.w3.org/2000/svg" viewBox="0 0 355.59699 226.099"><title>2.01.02</title><polygon points="0 0 109.97 0 148.572 0 350.574 0 350.574 140.34 161.822 140.34 161.822 156.34 148.572 156.34 148.572 226.099 0 226.099 0 0" style="fill:#fff;fill-rule:evenodd"/><polygon points="3.353 0 51.793 0 350.072 0 350.072 140.34 191.621 140.34 191.621 105.274 161.822 105.274 161.822 140.34 161.822 156.34 148.572 156.34 148.572 226.099 0 226.099 0 218.024 3.353 218.024 3.353 144.628 0 144.628 0 0 3.353 0" style="fill:#fff;fill-rule:evenodd"/><path d="M174.479,163.94379h2.7751v3.17853H174.479Zm8.9064-3.89059h2.7751v7.06912h-2.7751Zm-4.42511,0h2.7751v7.06912h-2.7751Zm-4.48129,0h2.7751v3.1785H174.479Zm-.9375-1.0499H187.098v9.5062H173.5415Z" transform="translate(-34.7998 -99.5488)" style="fill:#003915;fill-rule:evenodd"/><path d="M236.64931,223.57559v2.77521h-3.17851v-2.77521Zm3.89049,4.48131v2.7751h-7.069v-2.7751Zm0-4.48131v2.77521h-3.1785v-2.77521Zm1.05-.93739v9.0564h-9.5063v-9.0564Z" transform="translate(-34.7998 -99.5488)" style="fill:#003915;fill-rule:evenodd"/><path d="M161.23891,254.6394h2.7751v3.1785h-2.7751Zm8.90649-3.89061h2.7751v7.06911h-2.7751Zm-4.4252,0h2.7751v7.06911h-2.7751Zm-4.48129,0h2.7751v3.1785h-2.7751Zm-.93741-1.0499h17.56911v9.5063H160.3015Z" transform="translate(-34.7998 -99.5488)" style="fill:#003915;fill-rule:evenodd"/><path d="M213.2827,163.94379h-2.7751v3.17853h2.7751Zm-8.9064-3.89059H201.6011v7.06912h2.77519Zm4.42511,0h-2.7751v7.06912h2.7751Zm4.48129,0h-2.7751v3.1785h2.7751Zm-11.9086,8.4563h12.36729v.71271h1.7668V157.2597H195.7039v2.4375h.01869v9.525h5.6515Z" transform="translate(-34.7998 -99.5488)" style="fill:#003915;fill-rule:evenodd"/><path d="M272.73859,172.3046a.374.374,0,1,0,.37473.6474l13.92007-8.03989a.37408.37408,0,0,0-.37479-.64752Z" transform="translate(-34.7998 -99.5488)" style="fill:#003915"/><path d="M258.2178,198.4953a.374.374,0,1,0,.37469.6474l13.92011-8.0399a.374.374,0,1,0-.37469-.6474Z" transform="translate(-34.7998 -99.5488)" style="fill:#003915"/><path d="M304.3877,190.499a.374.374,0,1,0,.6474-.37469l-8.03989-13.92011a.37406.37406,0,0,0-.64752.37471Z" transform="translate(-34.7998 -99.5488)" style="fill:#003915"/><path d="M145.1906,151.2446a.37407.37407,0,0,1-.64749-.37479l8.03989-13.92011a.37408.37408,0,0,1,.64751.37479Z" transform="translate(-34.7998 -99.5488)" style="fill:#003915"/><path d="M119.8582,155.43869a.374.374,0,0,0-.6475.37469l8.0399,13.92012a.37405.37405,0,1,0,.6475-.37471Z" transform="translate(-34.7998 -99.5488)" style="fill:#003915"/><path d="M119.8582,191.3624a.374.374,0,0,1-.6475-.37469l8.0399-13.9201a.37405.37405,0,0,1,.6475.37471Z" transform="translate(-34.7998 -99.5488)" style="fill:#003915"/><path d="M355.26361,165.59271a.374.374,0,0,0,.6474-.37482l-8.03992-13.92011a.374.374,0,0,0-.6474.37482Z" transform="translate(-34.7998 -99.5488)" style="fill:#003915"/><path d="M70.3826,248.044a.37407.37407,0,0,0-.6475.37479L77.775,262.3389a.37408.37408,0,0,0,.6475-.3748Z" transform="translate(-34.7998 -99.5488)" style="fill:#003915"/><rect x="92.6136" y="33.68869" width="2.6022" height="17.25592" style="fill:#003915"/><rect x="92.6136" y="69.3165" width="2.6022" height="8.6275" style="fill:#003915"/><rect x="92.6136" y="96.6935" width="2.6022" height="42.3428" style="fill:#003915"/><rect x="117.74579" y="5.39749" width="2.6022" height="32.2316" style="fill:#003915"/><rect x="117.74579" y="53.63641" width="2.6022" height="21.96359" style="fill:#003915"/><rect x="260.4152" y="70.5804" width="2.6022" height="6.4361" style="fill:#003915"/><polygon points="194.223 109.683 191.621 109.683 191.621 105.274 191.621 100.253 194.223 100.253 194.223 109.683" style="fill:#003915;fill-rule:evenodd"/><rect x="191.6212" y="125.47191" width="2.60219" height="12.96939" style="fill:#003915"/><rect x="159.2195" y="149.77" width="2.6022" height="6.5695" style="fill:#003915"/><rect x="123.3644" y="139.1199" width="2.6022" height="21.8835" style="fill:#003915"/><rect x="260.4152" y="94.7827" width="2.6022" height="42.2101" style="fill:#003915"/><rect x="256.8526" y="99.5295" width="2.6022" height="37.4633" style="fill:#003915"/><rect x="92.6136" y="33.68869" width="26.79101" height="2.6022" style="fill:#003915"/><rect x="119.50949" y="7.10989" width="39.29961" height="2.6022" style="fill:#003915"/><rect x="122.3566" y="68.36661" width="116.14279" height="2.60219" style="fill:#003915"/><rect x="193.2199" y="98.8481" width="30.3163" height="2.6022" style="fill:#003915"/><rect x="239.53269" y="98.9785" width="21.9458" height="2.6022" style="fill:#003915"/><rect x="123.3644" y="158.4012" width="20.6506" height="2.6022" style="fill:#003915"/><rect x="7.2692" y="72.019" width="86.4039" height="2.6022" style="fill:#003915"/><rect x="8.8118" y="136.56731" width="86.404" height="2.60219" style="fill:#003915"/><rect x="5.4981" y="136.56731" width="33.6146" height="5.002" style="fill:#003915"/><rect x="8.2559" y="221.097" width="140.4902" height="5.002" style="fill:#003915"/><rect x="191.6212" y="135.567" width="72.58849" height="4.77271" style="fill:#003915"/><rect x="253.97831" y="135.567" width="96.24469" height="4.77271" style="fill:#003915"/><rect x="156.308" y="7.8248" width="5.00209" height="63.34781" style="fill:#003915"/><polygon points="191.621 140.34 191.621 105.274 191.621 98.848 198.047 98.848 198.047 140.34 191.621 140.34" style="fill:#003915;fill-rule:evenodd"/><rect x="155.39611" y="98.8481" width="6.4256" height="16.64331" style="fill:#003915"/><rect x="155.39611" y="135.22681" width="6.4256" height="21.1127" style="fill:#003915"/><polygon points="148.572 225.179 142.32 225.179 142.32 150.15 148.746 150.15 148.746 156.34 148.572 156.34 148.572 225.179" style="fill:#003915;fill-rule:evenodd"/><polygon points="198.047 98.848 198.047 105.274 191.621 105.274 161.822 105.274 155.396 105.274 155.396 98.848 198.047 98.848" style="fill:#003915;fill-rule:evenodd"/><polygon points="161.822 150.15 161.822 156.34 148.572 156.34 148.572 156.576 142.32 156.576 142.32 150.15 161.822 150.15" style="fill:#003915;fill-rule:evenodd"/><rect x="258.11011" y="67.61429" width="89.88239" height="6.42551" style="fill:#003915"/><rect width="354.2854" height="8.1601" style="fill:#003915"/><rect x="318.67139" width="35.61401" height="11.06421" style="fill:#003915"/><rect x="345.6706" y="67.61429" width="9.92639" height="11.06421" style="fill:#003915"/><rect width="8.1601" height="24.00409" style="fill:#003915"/><rect y="53.5119" width="8.1601" height="37.9809" style="fill:#003915"/><rect y="119.7905" width="8.1601" height="23.63721" style="fill:#003915"/><rect y="218.0243" width="8.1601" height="8.0747" style="fill:#003915"/><rect y="136.56731" width="39.587" height="8.1601" style="fill:#003915"/><rect y="218.3125" width="39.587" height="7.7865" style="fill:#003915"/><rect x="342.41361" y="67.61429" width="8.1601" height="22.65622" style="fill:#003915"/><rect x="342.41361" y="119.7899" width="8.1601" height="20.5498" style="fill:#003915"/><rect x="316.45841" y="3.56381" width="8.1601" height="32.39828" style="fill:#003915"/><rect x="31.428" y="186.827" width="8.1601" height="36.6554" style="fill:#003915"/><rect x="316.45841" y="66.08069" width="8.1601" height="4.84221" style="fill:#003915"/><rect x="31.428" y="143.6162" width="8.1601" height="4.84221" style="fill:#003915"/><rect x="3.0019" y="38.78729" width="2.2986" height="0.5018" style="fill:#003915"/><rect x="3.0019" y="37.58911" width="2.2986" height="0.50119" style="fill:#003915"/><rect x="3.0019" y="24.95169" width="2.2986" height="0.50153" style="fill:#003915"/><rect x="3.0019" y="23.75351" width="2.2986" height="0.50119" style="fill:#003915"/><rect x="3.0019" y="52.89911" width="2.2986" height="0.50168" style="fill:#003915"/><rect x="3.0019" y="51.70111" width="2.2986" height="0.50119" style="fill:#003915"/><rect y="21.69672" width="0.5015" height="34.09369" style="fill:#003915"/><rect x="2.8471" y="21.69672" width="0.5015" height="34.09369" style="fill:#003915"/><rect x="5.0185" y="21.69672" width="0.5014" height="34.09369" style="fill:#003915"/><rect x="7.6595" y="21.69672" width="0.5015" height="34.09369" style="fill:#003915"/><rect x="3.0019" y="105.3284" width="2.2986" height="0.50171" style="fill:#003915"/><rect x="3.0019" y="104.1302" width="2.2986" height="0.5011" style="fill:#003915"/><rect x="3.0019" y="91.4928" width="2.2986" height="0.5014" style="fill:#003915"/><rect x="3.0019" y="90.2946" width="2.2986" height="0.5011" style="fill:#003915"/><rect x="3.0019" y="119.44011" width="2.2986" height="0.50169" style="fill:#003915"/><rect x="3.0019" y="118.2422" width="2.2986" height="0.5011" style="fill:#003915"/><rect y="88.2377" width="0.5015" height="34.0937" style="fill:#003915"/><rect x="2.8471" y="88.2377" width="0.5015" height="34.0937" style="fill:#003915"/><rect x="5.0185" y="88.2377" width="0.5014" height="34.0937" style="fill:#003915"/><rect x="7.6595" y="88.2377" width="0.5015" height="34.0937" style="fill:#003915"/><rect x="345.41459" y="104.9919" width="2.29861" height="0.50171" style="fill:#003915"/><rect x="345.41459" y="103.7937" width="2.29861" height="0.50121" style="fill:#003915"/><rect x="345.41459" y="91.1563" width="2.29861" height="0.5014" style="fill:#003915"/><rect x="345.41459" y="89.9581" width="2.29861" height="0.5011" style="fill:#003915"/><rect x="345.41459" y="119.10361" width="2.29861" height="0.5018" style="fill:#003915"/><rect x="345.41459" y="117.9057" width="2.29861" height="0.50121" style="fill:#003915"/><rect x="342.41269" y="87.90131" width="0.5015" height="34.09369" style="fill:#003915"/><rect x="345.25989" y="87.90131" width="0.5014" height="34.09369" style="fill:#003915"/><rect x="347.43119" y="87.90131" width="0.5014" height="34.09369" style="fill:#003915"/><rect x="350.07221" y="87.90131" width="0.5015" height="34.09369" style="fill:#003915"/><path d="M356.06979,146.5484H354.3999v.697h1.66989Zm0-13.56921H354.3999v13.06772h1.66989Zm0-1.19818H354.3999v.69708h1.66989Zm-1.66989-.50171h1.66989v-5.78949h.5014v21.75558h2.3457V125.48981h.5014v22.25681h-8.16092V125.48981h.5014v21.75558h2.13962V129.1936h.5015Z" transform="translate(-34.7998 -99.5488)" style="fill:#003915;fill-rule:evenodd"/><path d="M69.5764,267.0883h1.6699v-.697H69.5764Zm0,16.8537h1.6699V267.5898H69.5764Zm0,1.1982h1.6699v-.6971H69.5764Zm1.6699.50171H69.5764v2.505h-.5015V266.3913H66.7293v21.7556h-.5015V265.89011h8.161V288.1469h-.5015V266.3913H71.7477v21.3363h-.5014Z" transform="translate(-34.7998 -99.5488)" style="fill:#003915;fill-rule:evenodd"/><rect x="349.30149" y="48.53632" width="1.29712" height="0.44699" style="fill:#003915"/><rect x="349.30149" y="47.46841" width="1.29712" height="0.44678" style="fill:#003915"/><rect x="349.30149" y="29.9342" width="1.29712" height="0.44699" style="fill:#003915"/><rect x="349.30149" y="28.86639" width="1.29712" height="0.44672" style="fill:#003915"/><rect x="349.30149" y="11.33179" width="1.29712" height="0.44702" style="fill:#003915"/><rect x="349.30149" y="10.26401" width="1.29712" height="0.44669" style="fill:#003915"/><rect x="349.30149" y="67.13861" width="1.29712" height="0.44699" style="fill:#003915"/><rect x="349.30149" y="66.0708" width="1.29712" height="0.44669" style="fill:#003915"/><rect x="351.38129" y="8.1973" width="0.44672" height="60.82132" style="fill:#003915"/><rect x="350.28989" y="8.1973" width="0.44681" height="60.82132" style="fill:#003915"/><rect x="349.20911" y="8.1973" width="0.44669" height="60.82132" style="fill:#003915"/><path d="M39.2437,243.9664h.6341v-.62109h-.6341Zm0,17.5345h.6341V244.41341h-.6341Zm0,1.06779h.6341v-.621h-.6341Zm0,17.5343h.6341v-17.0872h-.6341Zm0,1.06781h.6341v-.621h-.6341Zm0,17.50929h.6341V281.6178h-.6341v17.0623Zm0,1.0679h.6341v-.5959h-.6341Zm0,17.5345h.6341V300.2202h-.6341v17.0623Zm0,1.06779h.6341v-.62109h-.6341Zm1.0808,7.2975h-.4467V318.7973h-.6341v6.85049h-.4468v-84.816h.4468v2.0668h.6341v-2.0668h.4467v84.816Zm-2.1722-84.816v84.816h-.4467v-84.816Z" transform="translate(-34.7998 -99.5488)" style="fill:#003915;fill-rule:evenodd"/><path d="M190.5072,127.9931v9.8223a.90527.90527,0,0,1-.904.9054H184.9929a4.59567,4.59567,0,0,1-4.59091-4.5896V131.679a4.5956,4.5956,0,0,1,4.59091-4.59039h4.61029a.90471.90471,0,0,1,.904.90451m-9.8606,6.13809a4.351,4.351,0,0,0,4.3463,4.345h4.61029a.66144.66144,0,0,0,.65991-.6608v-9.8223a.66068.66068,0,0,0-.65991-.65991H184.9929a4.35138,4.35138,0,0,0-4.3463,4.34579Z" transform="translate(-34.7998 -99.5488)" style="fill:#003915"/><path d="M181.7368,134.13089a3.25871,3.25871,0,0,0,3.2561,3.25452h2.6881a.56785.56785,0,0,0,.5675-.5672v-3.57532h.24519v3.57532a.814.814,0,0,1-.8127.81238h-2.6881a3.50406,3.50406,0,0,1-3.5007-3.49969v-2.45218a3.50469,3.50469,0,0,1,3.5007-3.50082h2.6881a.81449.81449,0,0,1,.8127.8136v3.57532h-.24519v-3.57532a.5683.5683,0,0,0-.5675-.56839h-2.6881a3.25934,3.25934,0,0,0-3.2561,3.25562Z" transform="translate(-34.7998 -99.5488)" style="fill:#003915"/><path d="M185.3405,132.90411a.7835.7835,0,1,1-.78349-.78381.78481.78481,0,0,1,.78349.78381m-1.3224,0a.53875.53875,0,1,0,.53891-.53912A.53969.53969,0,0,0,184.0181,132.90411Z" transform="translate(-34.7998 -99.5488)" style="fill:#003915"/><rect x="149.1993" y="33.23291" width="1.11661" height="0.2449" style="fill:#003915"/><rect x="149.63469" y="32.7977" width="0.2455" height="1.116" style="fill:#003915"/><path d="M189.32491,132.5668v-.40372a.17372.17372,0,0,0-.1741-.17288h-.3793a.17363.17363,0,0,0-.174.17288v.40372h-.2449v-.40372a.41874.41874,0,0,1,.4189-.41809h.3793a.4187.4187,0,0,1,.4187.41809v.4057l-.0374-.002Zm-.7274,1.07721a.17437.17437,0,0,0,.174.174h.3793a.17446.17446,0,0,0,.1741-.174v-.40112h.2072l.0374-.00229v.40341a.41853.41853,0,0,1-.4187.41858h-.3793a.41857.41857,0,0,1-.4189-.41858v-.40112h.2449Z" transform="translate(-34.7998 -99.5488)" style="fill:#003915"/><path d="M189.9924,132.90411a.461.461,0,0,1-.4603.46118h-3.0804a.4605.4605,0,0,1,0-.921h3.0804a.4606.4606,0,0,1,.4603.45981m-3.7567,0a.21669.21669,0,0,0,.216.21628h3.0804a.21559.21559,0,0,0,0-.43118h-3.0804A.21609.21609,0,0,0,186.2357,132.90411Z" transform="translate(-34.7998 -99.5488)" style="fill:#003915"/><path d="M273.05939,234.6376h-9.8223a.90529.90529,0,0,1-.9054-.904v-4.61029a4.59577,4.59577,0,0,1,4.5896-4.591h2.45221a4.59574,4.59574,0,0,1,4.59048,4.591v4.61029a.90479.90479,0,0,1-.9046.904M266.9213,224.777a4.351,4.351,0,0,0-4.345,4.34631v4.61029a.66144.66144,0,0,0,.6608.6599h9.8223a.66067.66067,0,0,0,.65991-.6599v-4.61029a4.35132,4.35132,0,0,0-4.34579-4.34631Z" transform="translate(-34.7998 -99.5488)" style="fill:#003915"/><path d="M266.9216,225.8672a3.25877,3.25877,0,0,0-3.25449,3.2561v2.6881a.56783.56783,0,0,0,.5672.5675h3.57538v.24519h-3.57538a.814.814,0,0,1-.81241-.8127v-2.6881a3.50408,3.50408,0,0,1,3.49969-3.50081h2.45221a3.5047,3.5047,0,0,1,3.50079,3.50081v2.6881a.81447.81447,0,0,1-.81351.8127h-3.57541v-.24519h3.57541a.5682.5682,0,0,0,.5683-.5675v-2.6881a3.25931,3.25931,0,0,0-3.25558-3.2561Z" transform="translate(-34.7998 -99.5488)" style="fill:#003915"/><path d="M268.14841,229.4709a.7835.7835,0,1,1,.78378-.78351.78482.78482,0,0,1-.78378.78351m0-1.3224a.5387.5387,0,1,0,.53918.53889A.5397.5397,0,0,0,268.14841,228.1485Z" transform="translate(-34.7998 -99.5488)" style="fill:#003915"/><rect x="233.2262" y="128.5807" width="0.2449" height="1.11659" style="fill:#003915"/><rect x="232.7902" y="129.0161" width="1.116" height="0.2455" style="fill:#003915"/><path d="M268.48569,233.4552h.40372a.17363.17363,0,0,0,.17288-.174v-.3793a.17363.17363,0,0,0-.17288-.174h-.40372v-.245h.40372a.41869.41869,0,0,1,.41809.419v.3793a.41862.41862,0,0,1-.41809.4187h-.4057l.002-.03751Zm-1.07709-.72729a.17447.17447,0,0,0-.1741.174v.3793a.17447.17447,0,0,0,.1741.174h.40109v.2072l.0022.03751h-.40329a.41856.41856,0,0,1-.4187-.4187v-.3793a.41862.41862,0,0,1,.4187-.419h.40109v.245Z" transform="translate(-34.7998 -99.5488)" style="fill:#003915"/><path d="M268.14841,234.1228a.46106.46106,0,0,1-.46121-.4604V230.582a.4605.4605,0,0,1,.921,0v3.0804a.46061.46061,0,0,1-.45978.4604m0-3.75681a.21678.21678,0,0,0-.21631.216v3.0804a.21561.21561,0,0,0,.43121,0V230.582A.21609.21609,0,0,0,268.14841,230.366Z" transform="translate(-34.7998 -99.5488)" style="fill:#003915"/><path d="M176.508,147.2738a3.9169,3.9169,0,0,0,3.9129,3.9115h5.66541a.67727.67727,0,0,0,.63919-.45612,1.24485,1.24485,0,0,0,.20491.20352.9457.9457,0,0,1-.8441.52158H180.4209a4.18079,4.18079,0,1,1,0-8.36157h5.66541a.94549.94549,0,0,1,.8436.521,1.23622,1.23622,0,0,0-.2047.20319.67642.67642,0,0,0-.6389-.45551H180.4209a3.91709,3.91709,0,0,0-3.9129,3.91241" transform="translate(-34.7998 -99.5488)" style="fill:#003915"/><path d="M185.0054,144.47v5.60889a.20393.20393,0,0,1-.20151.20132H180.5332a3.00656,3.00656,0,1,1,0-6.01312h4.27069a.20466.20466,0,0,1,.20151.20291m-.2681,5.5415v-5.476h-4.2041a2.738,2.738,0,0,0,0,5.476Z" transform="translate(-34.7998 -99.5488)" style="fill:#003915"/><path d="M182.27451,147.27411a1.00816,1.00816,0,1,1-1.008-1.00891,1.01,1.01,0,0,1,1.008,1.00891m-1.74751,0a.7394.7394,0,1,0,.7395-.7399A.7403.7403,0,0,0,180.527,147.27411Z" transform="translate(-34.7998 -99.5488)" style="fill:#003915"/><rect x="183.21643" y="147.77435" width="0.26855" height="2.24224" transform="translate(-80.42535 107.28817) rotate(-53.27974)" style="fill:#003915"/><rect x="182.22897" y="145.56161" width="2.24306" height="0.26909" transform="translate(-85.54018 39.34779) rotate(-36.80799)" style="fill:#003915"/><path d="M190.5072,144.57321v5.40057a1.35509,1.35509,0,0,1-1.35381,1.35242h-1.4743a1.35352,1.35352,0,0,1-1.35249-1.35242v-5.40057a1.3532,1.3532,0,0,1,1.35249-1.35181h1.4743a1.35477,1.35477,0,0,1,1.35381,1.35181m-3.91211,5.40057a1.08545,1.08545,0,0,0,1.084,1.08423h1.4743a1.08593,1.08593,0,0,0,1.0851-1.08423v-5.40057a1.086,1.086,0,0,0-1.0851-1.08371h-1.4743a1.08551,1.08551,0,0,0-1.084,1.08371Z" transform="translate(-34.7998 -99.5488)" style="fill:#003915"/><path d="M189.1049,147.27411a.6881.6881,0,1,1-.68741-.68832.68816.68816,0,0,1,.68741.68832m-1.10721,0a.41925.41925,0,1,0,.4198-.41962A.41935.41935,0,0,0,187.9977,147.27411Z" transform="translate(-34.7998 -99.5488)" style="fill:#003915"/><path d="M250.04491,220.6384a3.91689,3.91689,0,0,0-3.9115,3.9129v5.6653a.67742.67742,0,0,0,.45609.6393,1.24053,1.24053,0,0,0-.20349.20491.94584.94584,0,0,1-.52161-.84421v-5.6653a4.1808,4.1808,0,1,1,8.3616,0v5.6653a.94527.94527,0,0,1-.521.8436,1.24155,1.24155,0,0,0-.2032-.20459.67643.67643,0,0,0,.45551-.639v-5.6653a3.91709,3.91709,0,0,0-3.9124-3.9129" transform="translate(-34.7998 -99.5488)" style="fill:#003915"/><path d="M252.84869,229.1358h-5.60889a.20393.20393,0,0,1-.20131-.20151V224.6636a3.0066,3.0066,0,1,1,6.0132,0v4.27069a.20467.20467,0,0,1-.203.20151m-5.54149-.2682h5.476v-4.204a2.738,2.738,0,0,0-5.476,0Z" transform="translate(-34.7998 -99.5488)" style="fill:#003915"/><path d="M250.04469,226.40489a1.00815,1.00815,0,1,1,1.0088-1.008,1.01,1.01,0,0,1-1.0088,1.008m0-1.74759a.73945.73945,0,1,0,.73981.73959A.74038.74038,0,0,0,250.04469,224.6573Z" transform="translate(-34.7998 -99.5488)" style="fill:#003915"/><rect x="247.30213" y="227.34679" width="2.24219" height="0.26857" transform="translate(-117.27389 190.92995) rotate(-53.25955)" style="fill:#003915"/><rect x="251.48798" y="226.35932" width="0.26913" height="2.2431" transform="translate(-120.93011 96.55595) rotate(-36.80799)" style="fill:#003915"/><path d="M252.7455,234.6376h-5.4006a1.35512,1.35512,0,0,1-1.3524-1.3539v-1.4743a1.35351,1.35351,0,0,1,1.3524-1.3524h5.4006a1.35326,1.35326,0,0,1,1.3519,1.3524v1.4743a1.35488,1.35488,0,0,1-1.3519,1.3539m-5.4006-3.91211a1.08541,1.08541,0,0,0-1.0842,1.08391v1.4743a1.08586,1.08586,0,0,0,1.0842,1.0851h5.4006a1.08594,1.08594,0,0,0,1.08369-1.0851v-1.4743a1.08549,1.08549,0,0,0-1.08369-1.08391Z" transform="translate(-34.7998 -99.5488)" style="fill:#003915"/><path d="M250.04469,233.23531a.68816.68816,0,1,1,.6882-.68741.68817.68817,0,0,1-.6882.68741m0-1.1073a.41925.41925,0,1,0,.41951.41989A.41945.41945,0,0,0,250.04469,232.128Z" transform="translate(-34.7998 -99.5488)" style="fill:#003915"/><path d="M163.5639,155.90811H155.7244V167.256h7.83951Zm-8.1709-.33081h8.50249v12.0098H155.393Z" transform="translate(-34.7998 -99.5488)" style="fill:#003915"/><path d="M163.78841,158.30249a.60437.60437,0,0,1,.61249.5936v5.37222a.604.604,0,0,1-.61249.5939v-.33081a.26975.26975,0,0,0,.2809-.26309v-5.37222a.2695.2695,0,0,0-.2809-.26279Z" transform="translate(-34.7998 -99.5488)" style="fill:#003915"/><path d="M161.1618,160.5603h-2.7077l-.6216,1.59738a2.47406,2.47406,0,0,0,1.6747-.09189,4.15137,4.15137,0,0,1,1.24069-.24121,2.44981,2.44981,0,0,1,.9366.1882Zm-2.9341-.33081h3.16679l.89211,2.4801-.39061-.22479a2.26605,2.26605,0,0,0-1.1481-.32941,3.89029,3.89029,0,0,0-1.14369.22681,3.90118,3.90118,0,0,1-1.1441.22809,2.018,2.018,0,0,1-.91249-.2179l-.1358-.0675Z" transform="translate(-34.7998 -99.5488)" style="fill:#003915"/><path d="M241.30009,201.5941H233.4606V212.942h7.83949Zm-8.1709-.3308h8.5025v12.0098h-8.5025Z" transform="translate(-34.7998 -99.5488)" style="fill:#003915"/><path d="M241.5246,203.98849a.60437.60437,0,0,1,.6125.5936v5.37221a.604.604,0,0,1-.6125.5939v-.33081a.26974.26974,0,0,0,.2809-.26309v-5.37221a.26949.26949,0,0,0-.2809-.26279Z" transform="translate(-34.7998 -99.5488)" style="fill:#003915"/><path d="M238.898,206.24629h-2.70769l-.62161,1.59731a2.47356,2.47356,0,0,0,1.6747-.0918,4.15146,4.15146,0,0,1,1.24071-.2412,2.44929,2.44929,0,0,1,.9366.1882Zm-2.93419-.3308h3.1669l.89209,2.48-.39059-.22469a2.2662,2.2662,0,0,0-1.1481-.32941,3.89443,3.89443,0,0,0-1.1438.2267,3.89594,3.89594,0,0,1-1.144.2282,2.01662,2.01662,0,0,1-.91251-.218l-.1358-.0674Z" transform="translate(-34.7998 -99.5488)" style="fill:#003915"/><path d="M188.356,109.423H158.271a2.16108,2.16108,0,0,0-2.15149,2.16571v10.41138A2.16085,2.16085,0,0,0,158.271,124.166h30.085a2.1608,2.1608,0,0,0,2.1512-2.16589V111.58871a2.161,2.161,0,0,0-2.1512-2.16571M158.271,123.9361a1.93108,1.93108,0,0,1-1.92189-1.936V111.58871a1.931,1.931,0,0,1,1.92189-1.93552h30.085a1.9314,1.9314,0,0,1,1.9221,1.93552v10.41138a1.93145,1.93145,0,0,1-1.9221,1.936Z" transform="translate(-34.7998 -99.5488)" style="fill:#003915"/><path d="M161.25681,122.67419a2.57712,2.57712,0,0,1-2.5654-2.58209v-6.59479a2.57661,2.57661,0,0,1,2.5654-2.58182H185.37a2.577,2.577,0,0,1,2.5659,2.58182v2.06189a.39594.39594,0,0,1,.2282-.142v-1.91989a2.80642,2.80642,0,0,0-2.7941-2.81262H161.25681a2.80662,2.80662,0,0,0-2.7944,2.81262v6.59479a2.8065,2.8065,0,0,0,2.7944,2.81219H185.37a2.8063,2.8063,0,0,0,2.7941-2.81219v-1.9202a.39538.39538,0,0,1-.2282-.14151v2.06171a2.57754,2.57754,0,0,1-2.5659,2.58209Z" transform="translate(-34.7998 -99.5488)" style="fill:#003915"/><path d="M162.8042,121.3609a1.26659,1.26659,0,0,1-1.26109-1.2688v-6.59479a1.26627,1.26627,0,0,1,1.26109-1.26822H185.37a1.2662,1.2662,0,0,1,1.2614,1.26822v2.84479h.22871v-2.84479a1.49621,1.49621,0,0,0-1.49011-1.499H162.8042a1.49565,1.49565,0,0,0-1.4893,1.499v6.59479a1.49525,1.49525,0,0,0,1.4893,1.4989H185.37a1.49581,1.49581,0,0,0,1.49011-1.4989v-2.84521h-.22871v2.84521a1.26652,1.26652,0,0,1-1.2614,1.2688Z" transform="translate(-34.7998 -99.5488)" style="fill:#003915"/><path d="M183.4648,116.0618a.73331.73331,0,1,0,.7299.73361.73144.73144,0,0,0-.7299-.73361m0,1.23651a.50332.50332,0,1,1,.50031-.5029A.502.502,0,0,1,183.4648,117.29831Z" transform="translate(-34.7998 -99.5488)" style="fill:#003915"/><rect x="148.5508" y="16.7233" width="0.22929" height="1.04572" style="fill:#003915"/><rect x="148.1465" y="17.1312" width="1.0378" height="0.2308" style="fill:#003915"/><path d="M187.9648,116.3421v-.53741a.27991.27991,0,0,1,.27859-.2804h.5052a.28042.28042,0,0,1,.27921.2804v.53741h.2287v-.53741a.51032.51032,0,0,0-.5079-.51108h-.5052a.5097.5097,0,0,0-.5074.51108v.53741Zm.27859,1.72211a.27986.27986,0,0,1-.27859-.28012v-.5372H187.736v.5372a.50927.50927,0,0,0,.5074.5108h.5052a.50988.50988,0,0,0,.5079-.5108v-.5372h-.2287v.5372a.28037.28037,0,0,1-.27921.28012Z" transform="translate(-34.7998 -99.5488)" style="fill:#003915"/><path d="M189.25459,116.22681h-3.20119a.56761.56761,0,0,0,0,1.13519h3.20119a.56761.56761,0,0,0,0-1.13519m-3.20119.90509a.33721.33721,0,0,1,0-.67441h3.20119a.33721.33721,0,0,1,0,.67441Z" transform="translate(-34.7998 -99.5488)" style="fill:#003915"/><path d="M291.4722,232.5728V203.69769a2.11952,2.11952,0,0,0-2.16571-2.06479H278.89511a2.11933,2.11933,0,0,0-2.16592,2.06479V232.5728a2.11933,2.11933,0,0,0,2.16592,2.0648h10.41138a2.11953,2.11953,0,0,0,2.16571-2.0648m-14.51309-28.87511a1.894,1.894,0,0,1,1.936-1.8445h10.41138a1.894,1.894,0,0,1,1.93552,1.8445V232.5728a1.89422,1.89422,0,0,1-1.93552,1.8448H278.89511a1.89429,1.89429,0,0,1-1.936-1.8448Z" transform="translate(-34.7998 -99.5488)" style="fill:#003915"/><path d="M278.221,206.56349a2.52762,2.52762,0,0,1,2.58209-2.46219h6.59479a2.5271,2.5271,0,0,1,2.58182,2.46219V229.707a2.52708,2.52708,0,0,1-2.58182,2.4624H285.336a.37929.37929,0,0,1,.142.21939h1.91989a2.75242,2.75242,0,0,0,2.81262-2.68179V206.56349a2.75287,2.75287,0,0,0-2.81262-2.6821H280.8031a2.75275,2.75275,0,0,0-2.81219,2.6821V229.707a2.7523,2.7523,0,0,0,2.81219,2.68179h1.9202a.37825.37825,0,0,1,.14151-.21939H280.8031a2.5276,2.5276,0,0,1-2.58209-2.4624Z" transform="translate(-34.7998 -99.5488)" style="fill:#003915"/><path d="M279.5343,208.0489a1.24213,1.24213,0,0,1,1.2688-1.2104h6.59479a1.24179,1.24179,0,0,1,1.26822,1.2104V229.707a1.24185,1.24185,0,0,1-1.26822,1.21069H284.5531v.21941h2.84479a1.4672,1.4672,0,0,0,1.499-1.4301V208.0489a1.4669,1.4669,0,0,0-1.499-1.4295H280.8031a1.46648,1.46648,0,0,0-1.4989,1.4295V229.707a1.46678,1.46678,0,0,0,1.4989,1.4301h2.84518v-.21941H280.8031a1.24218,1.24218,0,0,1-1.2688-1.21069Z" transform="translate(-34.7998 -99.5488)" style="fill:#003915"/><path d="M284.8334,227.8783a.73408.73408,0,1,0-.73361.7005.71751.71751,0,0,0,.73361-.7005m-1.23651,0a.50385.50385,0,1,1,.5029.48021A.49227.49227,0,0,1,283.59689,227.8783Z" transform="translate(-34.7998 -99.5488)" style="fill:#003915"/><rect x="248.77759" y="128.2198" width="1.04572" height="0.22031" style="fill:#003915"/><rect x="249.1846" y="127.8318" width="0.2308" height="0.9964" style="fill:#003915"/><path d="M284.5531,232.19749h.53741a.27447.27447,0,0,1,.2804.2673v.485a.275.275,0,0,1-.2804.2679h-.53741v.21941h.53741a.50052.50052,0,0,0,.51108-.4873v-.485a.49994.49994,0,0,0-.51108-.487h-.53741Zm-1.72211.2673a.2744.2744,0,0,1,.28012-.2673h.53717v-.2197h-.53717a.4995.4995,0,0,0-.5108.487v.485a.50008.50008,0,0,0,.5108.4873h.53717v-.21941h-.53717a.2749.2749,0,0,1-.28012-.2679Z" transform="translate(-34.7998 -99.5488)" style="fill:#003915"/><path d="M284.6684,233.4351v-3.07251a.56823.56823,0,0,0-1.13519,0v3.07251a.56822.56822,0,0,0,1.13519,0m-.90509-3.07251a.33756.33756,0,0,1,.67441,0v3.07251a.33758.33758,0,0,1-.67441,0Z" transform="translate(-34.7998 -99.5488)" style="fill:#003915"/><path d="M176.472,269.34579V281.115H164.70309V269.34579Zm-.2494,11.5197V269.595H164.952v11.27049Z" transform="translate(-34.7998 -99.5488)" style="fill:#003915"/><path d="M165.8013,275.2303a3.91958,3.91958,0,0,0,7.7142.9816.29977.29977,0,0,0,.19749.0743h.0406a4.16852,4.16852,0,1,1,.00031-2.11159H173.713a.2986.2986,0,0,0-.1973.074,3.91969,3.91969,0,0,0-7.7144.9817" transform="translate(-34.7998 -99.5488)" style="fill:#003915"/><path d="M173.202,275.2303a3.48154,3.48154,0,1,1-3.4818-3.48131,3.48577,3.48577,0,0,1,3.4818,3.48131m-6.71359,0a3.2319,3.2319,0,1,0,3.2318-3.2318A3.2354,3.2354,0,0,0,166.4884,275.2303Z" transform="translate(-34.7998 -99.5488)" style="fill:#003915"/><path d="M170.6227,275.2303a.90224.90224,0,1,1-.9025-.9026.90331.90331,0,0,1,.9025.9026m-1.5556,0a.653.653,0,1,0,.65311-.65311A.65418.65418,0,0,0,169.06709,275.2303Z" transform="translate(-34.7998 -99.5488)" style="fill:#003915"/><rect x="134.2639" y="175.5567" width="1.3138" height="0.2495" style="fill:#003915"/><rect x="134.7959" y="175.0247" width="0.24969" height="1.31349" style="fill:#003915"/><path d="M174.5269,274.4765V275.984a.42706.42706,0,0,1-.42661.42661h-.3873a.42685.42685,0,0,1-.42659-.42661V274.4765a.42685.42685,0,0,1,.42659-.42661h.3873a.42706.42706,0,0,1,.42661.42661m-.991,1.50749a.17755.17755,0,0,0,.17709.1774h.3873a.17743.17743,0,0,0,.17711-.1774V274.4765a.17718.17718,0,0,0-.17711-.17711h-.3873a.1773.1773,0,0,0-.17709.17711Z" transform="translate(-34.7998 -99.5488)" style="fill:#003915"/><path d="M174.4021,275.4502h.0865a.21965.21965,0,1,0,0-.4393h-.0865v-.2498h.0865a.46945.46945,0,0,1,0,.9389h-.0865Zm-2.59-.21989a.22049.22049,0,0,0,.2206.21989h1.3784V275.7h-1.3784a.46945.46945,0,1,1,0-.9389h1.3784v.2498h-1.3784A.22.22,0,0,0,171.8121,275.2303Z" transform="translate(-34.7998 -99.5488)" style="fill:#003915"/><path d="M175.99071,298.0106V290.854a1.49614,1.49614,0,0,0-1.49471-1.4942H166.1973a1.496,1.496,0,0,0-1.4942,1.4942v7.15659a1.49563,1.49563,0,0,0,1.4942,1.4941H174.496a1.49573,1.49573,0,0,0,1.49471-1.4941M164.9361,290.854a1.26267,1.26267,0,0,1,1.2612-1.2612H174.496a1.26278,1.26278,0,0,1,1.2617,1.2612v7.15659a1.26308,1.26308,0,0,1-1.2617,1.2617H166.1973a1.263,1.263,0,0,1-1.2612-1.2617Z" transform="translate(-34.7998 -99.5488)" style="fill:#003915"/><path d="M175.17171,298.0106V290.854a.67615.67615,0,0,0-.6757-.67581h-7.0107a.67643.67643,0,0,0-.67581.67581v7.15659a.67653.67653,0,0,0,.67581.6763h7.0107a.67625.67625,0,0,0,.6757-.6763m-8.1291-7.15659a.44323.44323,0,0,1,.4427-.4431h7.0107a.44347.44347,0,0,1,.443.4431v7.15659a.44385.44385,0,0,1-.443.4439h-7.0107a.4436.4436,0,0,1-.4427-.4439Z" transform="translate(-34.7998 -99.5488)" style="fill:#003915"/><path d="M166.3909,291.55409a.47425.47425,0,1,0-.4743.4743.47511.47511,0,0,0,.4743-.4743m-.7155,0a.24125.24125,0,1,1,.2412.2415A.24192.24192,0,0,1,165.6754,291.55409Z" transform="translate(-34.7998 -99.5488)" style="fill:#003915"/><path d="M166.3909,293.15489a.47425.47425,0,1,0-.4743.47481.47507.47507,0,0,0,.4743-.47481m-.7155,0a.24125.24125,0,1,1,.2412.24171A.24162.24162,0,0,1,165.6754,293.15489Z" transform="translate(-34.7998 -99.5488)" style="fill:#003915"/><rect x="137.9968" y="191.55861" width="0.2327" height="2.7195" style="fill:#003915"/><rect x="136.75409" y="192.80211" width="2.71951" height="0.23279" style="fill:#003915"/><path d="M173.81,292.46719a.8969.8969,0,1,0-.8969.89661.898.898,0,0,0,.8969-.89661m-1.5611,0a.6643.6643,0,1,1,.6642.6638A.66558.66558,0,0,1,172.2489,292.46719Z" transform="translate(-34.7998 -99.5488)" style="fill:#003915"/><rect x="134.15191" y="191.55861" width="0.23239" height="2.7195" style="fill:#003915"/><rect x="132.9083" y="192.80211" width="2.7204" height="0.23279" style="fill:#003915"/><path d="M169.96561,292.46719a.89716.89716,0,1,0-.8974.89661.89861.89861,0,0,0,.8974-.89661m-1.5619,0a.66475.66475,0,1,1,.66451.6638A.66552.66552,0,0,1,168.4037,292.46719Z" transform="translate(-34.7998 -99.5488)" style="fill:#003915"/><rect x="137.9968" y="195.4894" width="0.2327" height="2.71931" style="fill:#003915"/><rect x="136.75409" y="196.733" width="2.71951" height="0.233" style="fill:#003915"/><path d="M173.81,296.3983a.8969.8969,0,1,0-.8969.8968.89792.89792,0,0,0,.8969-.8968m-1.5611,0a.6643.6643,0,1,1,.6642.6638A.666.666,0,0,1,172.2489,296.3983Z" transform="translate(-34.7998 -99.5488)" style="fill:#003915"/><rect x="134.15191" y="195.4894" width="0.23239" height="2.71931" style="fill:#003915"/><rect x="132.9083" y="196.733" width="2.7204" height="0.233" style="fill:#003915"/><path d="M169.96561,296.3983a.89716.89716,0,1,0-.8974.8968.89855.89855,0,0,0,.8974-.8968m-1.5619,0a.66475.66475,0,1,1,.66451.6638A.66594.66594,0,0,1,168.4037,296.3983Z" transform="translate(-34.7998 -99.5488)" style="fill:#003915"/><path d="M166.3909,295.8685a.47425.47425,0,1,0-.4743.4745.47487.47487,0,0,0,.4743-.4745m-.7155,0a.24125.24125,0,1,1,.2412.24181A.24169.24169,0,0,1,165.6754,295.8685Z" transform="translate(-34.7998 -99.5488)" style="fill:#003915"/><path d="M166.3909,297.47a.47425.47425,0,1,0-.4743.474.47466.47466,0,0,0,.4743-.474m-.7155,0a.24125.24125,0,1,1,.2412.2415A.24167.24167,0,0,1,165.6754,297.47Z" transform="translate(-34.7998 -99.5488)" style="fill:#003915"/><path d="M234.0567,232.7962a.80923.80923,0,1,0,.57089-.23471.80974.80974,0,0,0-.57089.23471m-1.03641.5726a1.60708,1.60708,0,1,1,.47061,1.1364A1.60262,1.60262,0,0,1,233.02029,233.3688Z" transform="translate(-34.7998 -99.5488)" style="fill:#003915"/><path d="M188.5195,165.15439a.80929.80929,0,1,0,.57089-.23468.81027.81027,0,0,0-.57089.23468m-1.0363.5726a1.6069,1.6069,0,1,1,.4705,1.13651A1.60321,1.60321,0,0,1,187.4832,165.727Z" transform="translate(-34.7998 -99.5488)" style="fill:#003915"/><rect x="117.74579" y="68.36661" width="8.55531" height="8.12979" style="fill:#003915"/><rect x="229.94419" y="68.36661" width="8.55521" height="8.12979" style="fill:#003915"/><rect x="117.74579" y="134.71631" width="8.22081" height="8.12979" style="fill:#003915"/><path d="M345.61249,206.11279c-.73187,0-1.2359-.61789-1.2359-1.7399s.504-1.7399,1.2359-1.7399,1.2359.6179,1.2359,1.7399-.504,1.7399-1.2359,1.7399m0,.396c.972,0,1.67981-.7979,1.67981-2.13591s-.70779-2.13589-1.67981-2.13589-1.67389.7979-1.67389,2.13589S344.6405,206.5088,345.61249,206.5088Zm-4.5-.42011,1.4281-1.4037a1.729,1.729,0,0,0,.68991-1.3141c0-.70189-.54-1.1339-1.39209-1.1339a1.88748,1.88748,0,0,0-1.48791.59979l.30591.26421a1.426,1.426,0,0,1,1.146-.468c.64209,0,.98389.2999.98389.786,0,.2878-.08978.56979-.56378,1.0378l-1.74609,1.7101v.30589h2.946v-.38409Zm-1.55988-.23981a.31408.31408,0,0,0-.31812.324.30326.30326,0,0,0,.216.30591l-.2041.86989h.288l.252-.828a.97638.97638,0,0,0,.0842-.34781A.314.314,0,0,0,339.55261,205.84889Zm-3.24.23981,1.4281-1.4037a1.729,1.729,0,0,0,.68991-1.3141c0-.70189-.54-1.1339-1.39209-1.1339a1.88748,1.88748,0,0,0-1.48792.59979l.30591.26421a1.426,1.426,0,0,1,1.146-.468c.64209,0,.98389.2999.98389.786,0,.2878-.08978.56979-.56378,1.0378l-1.74609,1.7101v.30589h2.946v-.38409Zm-2.98209-3.8157v.3838h.9902v3.816h.432V202.273Z" transform="translate(-34.7998 -99.5488)" style="fill:#6e6e6e;fill-rule:evenodd"/><path d="M289.3793,138.822c-.7319,0-1.2359-.618-1.2359-1.7399s.504-1.7399,1.2359-1.7399,1.2359.61792,1.2359,1.7399-.504,1.7399-1.2359,1.7399m0,.396c.972,0,1.67981-.798,1.67981-2.13589s-.70782-2.13589-1.67981-2.13589-1.6738.79791-1.6738,2.13589S288.40729,139.218,289.3793,139.218Zm-3.97189-.396c-.7319,0-1.2359-.618-1.2359-1.7399s.504-1.7399,1.2359-1.7399,1.2359.61792,1.2359,1.7399S286.13931,138.822,285.40741,138.822Zm0,.396c.972,0,1.67978-.798,1.67978-2.13589s-.70779-2.13589-1.67978-2.13589-1.6738.79791-1.6738,2.13589S284.43539,139.218,285.40741,139.218Zm-2.54971-.65988a.31408.31408,0,0,0-.31808.324.30318.30318,0,0,0,.216.30588l-.2041.8699h.288l.252-.828a.97559.97559,0,0,0,.0842-.34778A.314.314,0,0,0,282.8577,138.55811Zm-2.6221-1.8541h-.54l.144-1.338h1.91989v-.38379h-2.2977l-.216,2.1058h.894c1.06781,0,1.40369.336,1.40369.876,0,.50992-.37778.858-1.09189.858a1.821,1.821,0,0,1-1.29-.4859l-.20978.34192a2.16818,2.16818,0,0,0,1.5058.54c1.02609,0,1.5239-.55789,1.5239-1.27188C281.98151,137.202,281.50159,136.704,280.2356,136.704Zm-3.9537,2.0939,1.4281-1.40372a1.729,1.729,0,0,0,.68991-1.31421c0-.70178-.54-1.13379-1.39209-1.13379a1.88748,1.88748,0,0,0-1.48791.59979l.30591.26422a1.426,1.426,0,0,1,1.146-.468c.64209,0,.98389.2999.98389.786,0,.28778-.08978.56979-.56378,1.03778l-1.74609,1.71011v.30591h2.946v-.38409Z" transform="translate(-34.7998 -99.5488)" style="fill:#6e6e6e;fill-rule:evenodd"/><path d="M374.19189,138.822c-.7319,0-1.2359-.618-1.2359-1.7399s.504-1.7399,1.2359-1.7399,1.2359.61792,1.2359,1.7399-.504,1.7399-1.2359,1.7399m0,.396c.972,0,1.67981-.798,1.67981-2.13589s-.70779-2.13589-1.67981-2.13589-1.6738.79791-1.6738,2.13589S373.21991,139.218,374.19189,139.218Zm-2.0701-1.5239h-.8399v-.972h-.4198v.972H369.038l2.1481-2.71188h-.48019l-2.2258,2.78391v.3118h2.36981v1.1041h.432v-1.1041h.8399Zm-4.43369.864a.314.314,0,0,0-.318.324.30311.30311,0,0,0,.216.30588l-.2041.8699h.288l.252-.828a.97625.97625,0,0,0,.0842-.34778A.314.314,0,0,0,367.68811,138.55811Zm-2.2861-1.77591,1.188-1.4942v-.30579h-2.7v.38379h2.14807l-1.16388,1.4581v.31812h.2999c.77979,0,1.13379.32989,1.13379.83389,0,.52188-.38379.84589-1.08.84589a1.8411,1.8411,0,0,1-1.30191-.4859l-.21008.34192a2.18463,2.18463,0,0,0,1.512.54c1.014,0,1.5239-.54,1.5239-1.24188C366.7518,137.304,366.302,136.83011,365.402,136.7822Z" transform="translate(-34.7998 -99.5488)" style="fill:#6e6e6e;fill-rule:evenodd"/><path d="M229.5238,187.1127c-.7319,0-1.2359-.6179-1.2359-1.7399s.504-1.7399,1.2359-1.7399,1.2359.618,1.2359,1.7399-.504,1.7399-1.2359,1.7399m0,.396c.972,0,1.67979-.7979,1.67979-2.13589s-.70779-2.13591-1.67979-2.13591-1.6738.798-1.6738,2.13591S228.5518,187.5087,229.5238,187.5087Zm-3.97191-.396c-.73189,0-1.2359-.6179-1.2359-1.7399s.504-1.7399,1.2359-1.7399,1.2359.618,1.2359,1.7399S226.2838,187.1127,225.5519,187.1127Zm0,.396c.972,0,1.67981-.7979,1.67981-2.13589s-.70781-2.13591-1.67981-2.13591-1.67389.798-1.67389,2.13591S224.5799,187.5087,225.5519,187.5087Zm-2.54979-.6599a.31406.31406,0,0,0-.318.324.30323.30323,0,0,0,.216.30589l-.2041.8699h.288l.252-.828a.97565.97565,0,0,0,.08421-.34779A.314.314,0,0,0,223.00211,186.8488Zm-2.2861-1.77589,1.188-1.49411v-.30589h-2.7v.38379h2.1481l-1.16389,1.45821v.318h.2999c.7798,0,1.1339.33,1.1339.834,0,.52179-.3839.84579-1.08.84579a1.84148,1.84148,0,0,1-1.302-.48581l-.21.34181a2.1845,2.1845,0,0,0,1.512.54c1.01389,0,1.5239-.54,1.5239-1.24179C222.0659,185.5948,221.616,185.1208,220.716,185.07291Zm-3.852-1.8v.38379h.9901v3.816h.432v-4.1998Z" transform="translate(-34.7998 -99.5488)" style="fill:#6e6e6e;fill-rule:evenodd"/><path d="M171.7917,141.1127c-.7319,0-1.2359-.618-1.2359-1.7399s.504-1.7399,1.2359-1.7399,1.2359.61789,1.2359,1.7399-.504,1.7399-1.2359,1.7399m0,.396c.972,0,1.67979-.798,1.67979-2.13589s-.70779-2.13589-1.67979-2.13589-1.6738.79788-1.6738,2.13589S170.8197,141.5087,171.7917,141.5087Zm-3.90581-.366c-.74409,0-1.1821-.324-1.1821-.8461,0-.5159.438-.8399,1.1821-.8399.7438,0,1.188.324,1.188.8399C169.0739,140.8187,168.6297,141.1427,167.88589,141.1427Zm-1.0381-2.78391c0-.468.402-.756,1.0381-.756.62981,0,1.044.288,1.044.762,0,.45609-.39011.75-1.044.75S166.84779,138.82089,166.84779,138.3588Zm1.8479.9119a.951.951,0,0,0,.6721-.9238c0-.684-.5941-1.11-1.4819-1.11-.88809,0-1.47009.426-1.47009,1.11a.94775.94775,0,0,0,.6599.9238,1.04829,1.04829,0,0,0-.8098,1.0321c0,.7438.612,1.2059,1.62,1.2059,1.002,0,1.63191-.4621,1.63191-1.2059A1.05781,1.05781,0,0,0,168.69569,139.27069Zm-3.40779,1.57809a.314.314,0,0,0-.318.324.303.303,0,0,0,.216.30582l-.2041.87h.288l.252-.828a.97624.97624,0,0,0,.0842-.34781A.314.314,0,0,0,165.2879,140.84879Zm-.8461-.864h-.8399v-.972H163.182v.972h-1.824l2.148-2.71191h-.4801l-2.2258,2.7839v.3118h2.36981v1.1041h.432v-1.1041h.8399Z" transform="translate(-34.7998 -99.5488)" style="fill:#6e6e6e;fill-rule:evenodd"/><path d="M92.6609,141.1127c-.7319,0-1.23589-.618-1.23589-1.7399s.504-1.7399,1.23589-1.7399,1.2359.61789,1.2359,1.7399-.504,1.7399-1.2359,1.7399m0,.396c.972,0,1.6798-.798,1.6798-2.13589s-.7078-2.13589-1.6798-2.13589-1.6739.79788-1.6739,2.13589S91.6889,141.5087,92.6609,141.5087Zm-5.20779-4.23581v1.1698h.426v-.786h2.16l-1.728,3.816h.468l1.7581-3.894v-.30582Zm-.7498,3.5759a.314.314,0,0,0-.318.324.303.303,0,0,0,.216.30582l-.2041.87h.288l.252-.828a.97608.97608,0,0,0,.0842-.34781A.314.314,0,0,0,86.7033,140.84879Zm-.8461-.864h-.8399v-.972H84.5974v.972h-1.824l2.148-2.71191h-.4801l-2.2258,2.7839v.3118h2.3698v1.1041h.432v-1.1041h.8399Zm-5.9939-2.71191v.38382h.9901v3.816h.432v-4.1998Z" transform="translate(-34.7998 -99.5488)" style="fill:#6e6e6e;fill-rule:evenodd"/><path d="M92.5231,204.613c-.7319,0-1.2359-.618-1.2359-1.73991s.504-1.7399,1.2359-1.7399,1.2359.6179,1.2359,1.7399-.504,1.73991-1.2359,1.73991m0,.396c.972,0,1.6798-.798,1.6798-2.13591s-.7078-2.13589-1.6798-2.13589-1.67381.7979-1.67381,2.13589S91.5511,205.009,92.5231,205.009Zm-3.9719-.396c-.7319,0-1.2359-.618-1.2359-1.73991s.504-1.7399,1.2359-1.7399,1.2359.6179,1.2359,1.7399S89.2831,204.613,88.5512,204.613Zm0,.396c.972,0,1.6798-.798,1.6798-2.13591s-.7078-2.13589-1.6798-2.13589-1.6738.7979-1.6738,2.13589S87.5792,205.009,88.5512,205.009Zm-2.5498-.6599a.314.314,0,0,0-.318.324.30311.30311,0,0,0,.216.3058l-.2041.87h.288l.252-.828a.9761.9761,0,0,0,.08421-.34781A.314.314,0,0,0,86.0014,204.34911Zm-2.2861-1.77591,1.188-1.4942v-.3058h-2.7v.3838h2.1481l-1.1639,1.4581v.3181h.2999c.7798,0,1.1339.32989,1.1339.83391,0,.5219-.3839.8459-1.08.8459a1.84111,1.84111,0,0,1-1.302-.4859l-.21.34189a2.18493,2.18493,0,0,0,1.512.54c1.0139,0,1.5239-.54,1.5239-1.2419C85.0652,203.095,84.6153,202.62109,83.7153,202.5732Zm-3.852-1.8v.3838h.9901v3.816h.432v-4.1998Z" transform="translate(-34.7998 -99.5488)" style="fill:#6e6e6e;fill-rule:evenodd"/><path d="M134.3015,292.3631c-.7319,0-1.2359-.6179-1.2359-1.7399s.504-1.7399,1.2359-1.7399,1.2359.618,1.2359,1.7399-.504,1.7399-1.2359,1.7399m0,.396c.972,0,1.6799-.7979,1.6799-2.13589s-.7079-2.13589-1.6799-2.13589-1.6738.798-1.6738,2.13589S133.3295,292.75909,134.3015,292.75909Zm-4.5-.42009,1.4281-1.4037a1.72917,1.72917,0,0,0,.69-1.3141c0-.7019-.54-1.1339-1.39211-1.1339a1.88727,1.88727,0,0,0-1.4879.59979l.3058.26421a1.4265,1.4265,0,0,1,1.1461-.468c.642,0,.9839.2999.9839.7861,0,.28769-.0899.5697-.5638,1.03769l-1.7462,1.71021v.3058h2.94609V292.339Zm-1.55991-.23981a.31406.31406,0,0,0-.318.324.30311.30311,0,0,0,.216.30589l-.2041.8699h.288l.252-.828a.97556.97556,0,0,0,.0842-.34779A.314.314,0,0,0,128.24159,292.0992Zm-2.56189.2639c-.7319,0-1.2359-.6179-1.2359-1.7399s.504-1.7399,1.2359-1.7399,1.2359.618,1.2359,1.7399S126.4116,292.3631,125.6797,292.3631Zm0,.396c.972,0,1.67979-.7979,1.67979-2.13589s-.70779-2.13589-1.67979-2.13589-1.6739.798-1.6739,2.13589S124.7077,292.75909,125.6797,292.75909Zm-4.5-.42009,1.4281-1.4037a1.729,1.729,0,0,0,.6899-1.3141c0-.7019-.54-1.1339-1.3921-1.1339a1.88739,1.88739,0,0,0-1.4879.59979l.3059.26421a1.42627,1.42627,0,0,1,1.146-.468c.64211,0,.9839.2999.9839.7861,0,.28769-.0898.5697-.5638,1.03769l-1.7461,1.71021v.3058h2.946V292.339Z" transform="translate(-34.7998 -99.5488)" style="fill:#6e6e6e;fill-rule:evenodd"/><path d="M55.5412,292.3631c-.7319,0-1.2359-.6179-1.2359-1.7399s.504-1.7399,1.2359-1.7399,1.2359.618,1.2359,1.7399-.504,1.7399-1.2359,1.7399m0,.396c.972,0,1.6798-.7979,1.6798-2.13589s-.7078-2.13589-1.6798-2.13589-1.6739.798-1.6739,2.13589S54.5692,292.75909,55.5412,292.75909Zm-2.0701-1.5239h-.84v-.972h-.4198v.972H50.3872l2.1481-2.7119h-.4802l-2.2257,2.78391v.3118h2.3697v1.1041h.432V291.619h.84Zm-4.4337.864a.31415.31415,0,0,0-.3181.324.30323.30323,0,0,0,.216.30589l-.2041.8699h.288l.252-.828a.97567.97567,0,0,0,.0842-.34779A.314.314,0,0,0,49.0374,292.0992Zm-.8462-.864h-.8399v-.972h-.4198v.972H45.1074l2.1481-2.7119h-.4802l-2.2257,2.78391v.3118h2.3697v1.1041h.432V291.619h.8399Z" transform="translate(-34.7998 -99.5488)" style="fill:#6e6e6e;fill-rule:evenodd"/><path d="M178.36951,223.822c-.7319,0-1.2359-.618-1.2359-1.73991s.504-1.7399,1.2359-1.7399,1.23589.6179,1.23589,1.7399-.504,1.73991-1.23589,1.73991m0,.396c.972,0,1.67979-.798,1.67979-2.13591s-.70779-2.13589-1.67979-2.13589-1.67381.7979-1.67381,2.13589S177.39751,224.218,178.36951,224.218Zm-3.62381-.366c-.726,0-1.11-.43791-1.11-.9a.97207.97207,0,0,1,1.08-.9178c.648,0,1.05591.3537,1.05591.9059A.91891.91891,0,0,1,174.7457,223.852Zm.036-2.18411a1.34278,1.34278,0,0,0-1.28409.72c-.0119-.12579-.0179-.2457-.0179-.3418,0-1.14009.582-1.72209,1.488-1.72209a1.4711,1.4711,0,0,1,.8158.1982l.174-.3481a1.92708,1.92708,0,0,0-.9958-.22791c-1.14011,0-1.91991.7438-1.91991,2.17191,0,1.326.6058,2.0999,1.7218,2.0999a1.30852,1.30852,0,0,0,1.434-1.2901A1.27162,1.27162,0,0,0,174.78169,221.66789Zm-2.6158,1.89021a.31408.31408,0,0,0-.3181.324.30312.30312,0,0,0,.216.3058l-.2041.87h.288l.252-.828a.97638.97638,0,0,0,.0842-.34781A.314.314,0,0,0,172.16589,223.55811Zm-2.34.2939c-.726,0-1.11009-.43791-1.11009-.9a.97212.97212,0,0,1,1.08-.9178c.648,0,1.05589.3537,1.05589.9059A.91882.91882,0,0,1,169.8259,223.852Zm.036-2.18411a1.34267,1.34267,0,0,0-1.28409.72c-.0119-.12579-.0179-.2457-.0179-.3418,0-1.14009.582-1.72209,1.4879-1.72209a1.47122,1.47122,0,0,1,.81589.1982l.174-.3481a1.92734,1.92734,0,0,0-.9958-.22791c-1.14011,0-1.91991.7438-1.91991,2.17191,0,1.326.60571,2.0999,1.72171,2.0999a1.3086,1.3086,0,0,0,1.4341-1.2901A1.27168,1.27168,0,0,0,169.86189,221.66789Z" transform="translate(-34.7998 -99.5488)" style="fill:#6e6e6e;fill-rule:evenodd"/><path d="M265.841,215.572c-.7319,0-1.2359-.6179-1.2359-1.73991s.504-1.7399,1.2359-1.7399,1.2359.618,1.2359,1.7399-.504,1.73991-1.2359,1.73991m0,.396c.972,0,1.67981-.7979,1.67981-2.13591s-.70782-2.13589-1.67981-2.13589-1.67389.798-1.67389,2.13589S264.869,215.968,265.841,215.968Zm-4.5-.42011,1.4281-1.4037a1.72922,1.72922,0,0,0,.69-1.3141c0-.70189-.54-1.1339-1.39212-1.1339a1.88724,1.88724,0,0,0-1.48788.59981l.30579.26419a1.42645,1.42645,0,0,1,1.14612-.468c.642,0,.98389.29991.98389.7861,0,.2877-.0899.5697-.56378,1.0377l-1.74622,1.71021v.3058H263.651v-.38411Zm-1.55991-.23979a.31405.31405,0,0,0-.318.324.30313.30313,0,0,0,.216.30591l-.2041.86989h.288l.252-.828a.97523.97523,0,0,0,.08408-.34781A.31394.31394,0,0,0,259.7811,215.30811Zm-2.622-1.85411h-.54l.144-1.338H258.683v-.3838h-2.29782l-.216,2.10591h.894c1.0679,0,1.40381.33589,1.40381.8759,0,.50989-.3779.858-1.09192.858a1.82168,1.82168,0,0,1-1.2901-.48581l-.20979.3418a2.16819,2.16819,0,0,0,1.50581.54c1.02609,0,1.5239-.5578,1.5239-1.2719C258.90491,213.952,258.425,213.454,257.15909,213.454Z" transform="translate(-34.7998 -99.5488)" style="fill:#6e6e6e;fill-rule:evenodd"/><path d="M192.12489,222.149a3.9078,3.9078,0,1,0,3.90791,3.9075,3.908,3.908,0,0,0-3.90791-3.9075" transform="translate(-34.7998 -99.5488)" style="fill:#558e42;fill-rule:evenodd"/><polygon points="154.921 126.508 156.236 126.13 157.551 125.751 157.551 126.508 157.551 127.265 156.236 126.886 154.921 126.508" style="fill:#fdfdfd;fill-rule:evenodd"/><rect x="157.4479" y="126.3289" width="2.28131" height="0.38409" style="fill:#fdfdfd"/><path d="M379.40851,137.60449h.224v-.57739h2.226v-.252h-2.45ZM381.666,138.756c0,.4339-.189.6893-.4935.6893-.301,0-.49008-.2554-.49008-.6893s.18909-.69312.49008-.69312C381.477,138.0629,381.666,138.322,381.666,138.756Zm-1.62387.60538c-.273,0-.4411-.23468-.4411-.60538,0-.36771.16809-.60922.44449-.60922.2662,0,.43759.2276.43759.60922C380.48309,139.13721,380.31171,139.36139,380.04211,139.36139Zm.532-1.078a.55477.55477,0,0,0-.53909-.392c-.3988,0-.6474.34641-.6474.86462,0,.51779.2486.85739.6474.85739a.55278.55278,0,0,0,.53909-.38519.611.611,0,0,0,.60181.4725c.434,0,.70358-.35681.70358-.9447,0-.5845-.26959-.95221-.70358-.95221A.617.617,0,0,0,380.5741,138.28339Zm.9205,1.988a.18313.18313,0,0,0,.189.1853.1767.1767,0,0,0,.17831-.12579l.50769.119v-.16809l-.483-.14709a.57612.57612,0,0,0-.203-.049A.18319.18319,0,0,0,381.4946,140.27139Zm.14,1.89011-.81891-.8331a1.0079,1.0079,0,0,0-.76651-.4025c-.40961,0-.66159.31491-.66159.8121a1.10122,1.10122,0,0,0,.35.868l.154-.17859a.83217.83217,0,0,1-.273-.6684c0-.37451.1749-.574.45831-.574.16809,0,.33249.0524.6055.3288l.9975,1.01849h.17859V140.8139h-.22388Z" transform="translate(-34.7998 -99.5488)" style="fill:#434242"/><path d="M373.6344,204.2887l-.819-.8331a1.0076,1.0076,0,0,0-.76651-.4025c-.40958,0-.66159.3149-.66159.8121a1.1013,1.1013,0,0,0,.3501.868l.1539-.1786a.83224.83224,0,0,1-.27289-.6684c0-.3745.1749-.574.45828-.574.16812,0,.33252.0524.6055.32881l.9975,1.01849h.17862v-1.7184h-.22391Zm-2.2261,1.7393h.224v-.57741h2.226v-.252h-2.45Zm2.086.3569a.18318.18318,0,0,0,.18912.18539.17666.17666,0,0,0,.17828-.12579l.50769.119v-.16809l-.483-.14709a.57368.57368,0,0,0-.203-.049A.18319.18319,0,0,0,373.49429,206.3849Zm-1.036,1.33339-.8714-.69269h-.17862v1.57489h.224v-1.2529l.85062.67891h.18539v-.17491c0-.45529.1925-.66159.48639-.66159.3045,0,.49359.22389.49359.62979a1.07434,1.07434,0,0,1-.28348.7597l.19949.1225a1.27477,1.27477,0,0,0,.315-.8822c0-.59129-.315-.8889-.72461-.8889C372.7627,206.93089,372.4863,207.19341,372.45831,207.71829Z" transform="translate(-34.7998 -99.5488)" style="fill:#434242"/><path d="M347.14828,133.27319c0,.42691-.3606.7211-1.01477.7211-.65451,0-1.01511-.29419-1.01511-.7211s.3606-.72089,1.01511-.72089c.65417,0,1.01477.294,1.01477.72089m.231,0c0-.56689-.46539-.98-1.24579-.98-.7807,0-1.24612.41309-1.24612.98s.46542.9765,1.24612.9765C346.91391,134.24969,347.3793,133.84009,347.3793,133.27319Zm-.231,2.317c0,.42688-.3606.72119-1.01477.72119-.65451,0-1.01511-.29431-1.01511-.72119s.3606-.72083,1.01511-.72083C346.78769,134.86938,347.14828,135.1633,347.14828,135.59021Zm.231,0c0-.56693-.46539-.97992-1.24579-.97992-.7807,0-1.24612.413-1.24612.97992s.46542.97659,1.24612.97659C346.91391,136.5668,347.3793,136.1572,347.3793,135.59021Zm-.38492,1.48758a.18316.18316,0,0,0,.189.18542.17661.17661,0,0,0,.17828-.12582l.50769.119v-.16812l-.483-.14709a.5736.5736,0,0,0-.203-.049A.18317.18317,0,0,0,346.99438,137.07779Zm-1.03607,1.3335-.8714-.69278h-.17862v1.57489h.224v-1.2529l.85071.67889h.1853v-.1749c0-.45529.1925-.66159.48648-.66159.30441,0,.4935.22391.4935.62979a1.07418,1.07418,0,0,1-.28348.7597l.19959.1225a1.27467,1.27467,0,0,0,.31491-.8822c0-.59131-.31491-.88889-.72452-.88889C346.2627,137.62381,345.98639,137.88629,345.95831,138.41129Z" transform="translate(-34.7998 -99.5488)" style="fill:#434242"/><path d="M159.13451,138.43729l-.819-.8331a1.00762,1.00762,0,0,0-.76651-.4025c-.40959,0-.66159.31491-.66159.8121a1.10133,1.10133,0,0,0,.3501.868l.1539-.17862a.83189.83189,0,0,1-.2729-.6684c0-.37439.1749-.574.4583-.574.16811,0,.3325.05243.6055.32883l.9975,1.01849h.1786v-1.71829h-.22389Zm-.97321,1.65921c0,.37781-.2063.61591-.5284.61591a.53627.53627,0,0,1-.532-.5986c0-.42349.25569-.64749.525-.64749A.56709.56709,0,0,1,158.1613,140.0965Zm-1.2739.02771a.76317.76317,0,0,0,.75259.83649.74159.74159,0,0,0,.7348-.826.78276.78276,0,0,0-.4198-.7489c.07339-.00711.1434-.0105.19949-.0105.665,0,1.0043.3396,1.0043.868a.85889.85889,0,0,1-.1153.47592l.2029.1015a1.124,1.124,0,0,0,.133-.58081c0-.665-.434-1.12-1.26709-1.12C157.339,139.1199,156.88741,139.47339,156.88741,140.12421Zm2.107,1.31281a.18316.18316,0,0,0,.1891.1853.1767.1767,0,0,0,.1783-.12582l.50771.119v-.168l-.483-.14722a.57607.57607,0,0,0-.203-.049A.1832.1832,0,0,0,158.9944,141.437Zm.14011,1.89008-.819-.8331a1.00762,1.00762,0,0,0-.76651-.4025c-.40959,0-.66159.31491-.66159.8121a1.10133,1.10133,0,0,0,.3501.868l.1539-.17862a.83189.83189,0,0,1-.2729-.6684c0-.37448.1749-.574.4583-.574.16811,0,.3325.0524.6055.32883l.9975,1.01849h.1786v-1.71841h-.22389Z" transform="translate(-34.7998 -99.5488)" style="fill:#434242"/><path d="M47.8976,136.1586c0,.42691-.3606.7211-1.0148.7211-.6545,0-1.0151-.29419-1.0151-.7211s.3606-.72089,1.0151-.72089c.6542,0,1.0148.294,1.0148.72089m.231,0c0-.567-.4655-.98-1.2458-.98-.7807,0-1.2461.413-1.2461.98s.4654.9765,1.2461.9765C47.6631,137.1351,48.1286,136.72549,48.1286,136.1586Zm-.2449,2.62509-.8189-.8331a1.00788,1.00788,0,0,0-.7665-.4025c-.4096,0-.6616.31491-.6616.8121a1.1013,1.1013,0,0,0,.35.868l.154-.17862a.832.832,0,0,1-.273-.6684c0-.37439.1749-.574.4583-.574.1681,0,.3326.0524.6055.3288l.9975,1.01852h.1786V137.4361h-.2239Zm-.14.91a.18313.18313,0,0,0,.189.1853.17669.17669,0,0,0,.1783-.12579l.5077.119v-.16809l-.483-.14709a.57508.57508,0,0,0-.203-.049A.1832.1832,0,0,0,47.7437,139.6937Zm-1.0361,1.3334-.8714-.69281h-.1786v1.57492h.224v-1.2529l.8507.67889h.1853v-.1749c0-.4552.1925-.66162.4865-.66162.3044,0,.4935.22391.4935.62991a1.07417,1.07417,0,0,1-.2835.75961l.1996.1225a1.2752,1.2752,0,0,0,.3149-.88211c0-.5914-.3149-.889-.7245-.889C47.012,140.23959,46.7357,140.50211,46.7076,141.0271Z" transform="translate(-34.7998 -99.5488)" style="fill:#434242"/><path d="M45.6576,203.6526h.224v-.57741h2.226v-.252h-2.45Zm0,1.2634h.224v-.57741h2.226v-.252h-2.45Zm2.0861.3569a.18315.18315,0,0,0,.189.18539.17677.17677,0,0,0,.1783-.1259l.5077.11909v-.16809l-.483-.14709a.5736.5736,0,0,0-.203-.0491A.18319.18319,0,0,0,47.7437,205.2729Zm-1.0361,1.33339-.8714-.69279h-.1786v1.575h.224v-1.253l.8507.67889h.1853v-.1749c0-.4552.1925-.66161.4865-.66161.3044,0,.4935.224.4935.6299a1.07435,1.07435,0,0,1-.2835.7597l.1996.12241a1.27481,1.27481,0,0,0,.3149-.88211c0-.59129-.3149-.8889-.7245-.8889C47.012,205.81889,46.7357,206.0813,46.7076,206.60629Z" transform="translate(-34.7998 -99.5488)" style="fill:#434242"/><path d="M42.6577,268.9861h.224v-.57739h2.226v-.252h-2.45Zm0,2.016h.6826v-.24861h-.4586v-1.26l2.226,1.008v-.273l-2.2714-1.0253h-.1786Zm2.086.43739a.18322.18322,0,0,0,.1891.18539.17675.17675,0,0,0,.1783-.1259l.5077.11911V271.45l-.483-.14709a.5744.5744,0,0,0-.203-.0491A.18327.18327,0,0,0,44.7437,271.4395Zm-1.036,1.3334-.8714-.69281h-.1786V273.655h.224v-1.2529l.8506.67889h.1854v-.1749c0-.4552.1925-.66159.4865-.66159.3044,0,.4935.224.4935.6299a1.07434,1.07434,0,0,1-.2835.75969l.1996.12241a1.27475,1.27475,0,0,0,.3149-.8821c0-.59131-.3149-.889-.7245-.889C44.0121,271.9854,43.7357,272.24789,43.7077,272.7729Z" transform="translate(-34.7998 -99.5488)" style="fill:#434242"/><path d="M78.1605,287.41209c0,.3779-.2063.616-.5283.616a.53634.53634,0,0,1-.5321-.59871c0-.42349.2557-.6474.525-.6474a.56705.56705,0,0,1,.5354.6301m-1.2739.0278a.76324.76324,0,0,0,.7526.8365.7416.7416,0,0,0,.7348-.826.78278.78278,0,0,0-.4198-.7489c.0734-.0071.1434-.0105.1995-.0105.665,0,1.0043.3396,1.0043.868a.85875.85875,0,0,1-.1153.47589l.2029.1015a1.124,1.124,0,0,0,.133-.5808c0-.665-.434-1.12-1.2671-1.12C77.3382,286.43559,76.8866,286.78909,76.8866,287.4399Zm2.261,2.10361c0,.4269-.3606.7211-1.0148.7211-.65459,0-1.0151-.2942-1.0151-.7211s.3605-.72081,1.0151-.72081C78.787,288.82269,79.1476,289.11659,79.1476,289.5435Zm.231,0c0-.56691-.4655-.9799-1.2458-.9799-.7807,0-1.2462.413-1.2462.9799s.4655.9765,1.2462.9765C78.9131,290.52,79.3786,290.1104,79.3786,289.5435Zm-.385,1.48759a.18317.18317,0,0,0,.1891.18541.1767.1767,0,0,0,.1783-.12581l.5077.119v-.16811l-.483-.14709a.57372.57372,0,0,0-.203-.049A.18318.18318,0,0,0,78.9936,291.0311Zm-.504.4933v.4901h-.5669v.2449h.5669v1.0641l-1.582-1.2529v.2798l1.624,1.29849h.182v-1.3824h.644v-.252h-.644v-.4901Z" transform="translate(-34.7998 -99.5488)" style="fill:#434242"/><path d="M161.1476,287.5238c0,.4269-.3605.72119-1.0148.72119-.6545,0-1.01509-.2943-1.01509-.72119s.3606-.72081,1.01509-.72081c.6543,0,1.0148.2939,1.0148.72081m.231,0c0-.56691-.46541-.9799-1.2458-.9799-.78059,0-1.24609.413-1.24609.9799s.4655.97659,1.24609.97659C160.91319,288.5004,161.3786,288.09081,161.3786,287.5238Zm-.231,2.31709c0,.42691-.3605.7211-1.0148.7211-.6545,0-1.01509-.29419-1.01509-.7211s.3606-.7209,1.01509-.7209C160.78709,289.12,161.1476,289.414,161.1476,289.8409Zm.231,0c0-.567-.46541-.98-1.2458-.98-.78059,0-1.24609.413-1.24609.98s.4655.9765,1.24609.9765C160.91319,290.8174,161.3786,290.40781,161.3786,289.8409Zm-.3849,1.48761a.18318.18318,0,0,0,.1891.18539.17676.17676,0,0,0,.1783-.1259l.50771.11909V291.339l-.48311-.14711a.57338.57338,0,0,0-.2029-.04909A.18321.18321,0,0,0,160.9937,291.32851Zm-1.0361,1.33339-.87129-.69279h-.1786V293.544h.22391v-1.25291l.85069.67891h.18539v-.1749c0-.4552.1925-.66161.4864-.66161.3045,0,.4935.224.4935.6299a1.07434,1.07434,0,0,1-.2834.7597l.19951.12239a1.27432,1.27432,0,0,0,.3149-.8821c0-.59129-.3149-.889-.7245-.889C160.2621,291.8744,159.9857,292.1369,159.9576,292.6619Z" transform="translate(-34.7998 -99.5488)" style="fill:#434242"/><path d="M274.91779,211.8844c0,.4269-.36047.72121-1.01477.72121-.65451,0-1.01511-.29431-1.01511-.72121s.3606-.72079,1.01511-.72079c.6543,0,1.01477.2939,1.01477.72079m.23111,0c0-.56689-.46548-.9799-1.24588-.9799-.78061,0-1.24612.413-1.24612.9799s.46552.97659,1.24612.97659C274.68341,212.861,275.1489,212.4514,275.1489,211.8844Zm-.2135,2.2785c0,.434-.18909.68939-.4935.68939-.301,0-.49008-.2554-.49008-.68939s.18909-.6931.49008-.6931C274.74631,213.4698,274.93539,213.7289,274.93539,214.1629Zm-1.624.6055c-.27289,0-.441-.2347-.441-.6055,0-.3676.16812-.6091.4444-.6091.2662,0,.43771.2276.43771.6091C273.7525,214.5442,273.581,214.7684,273.3114,214.7684Zm.5321-1.078a.5551.5551,0,0,0-.53922-.39211c-.3988,0-.6474.34641-.6474.86461,0,.5179.2486.8575.6474.8575a.553.553,0,0,0,.53922-.38521.611.611,0,0,0,.60181.4725c.434,0,.70358-.3569.70358-.94479,0-.5845-.26959-.9521-.70358-.9521A.61686.61686,0,0,0,273.84351,213.6904Zm.92038,1.9879a.18317.18317,0,0,0,.18912.18539.17663.17663,0,0,0,.17828-.1259l.50772.11911v-.16811l-.48309-.14709a.57361.57361,0,0,0-.20291-.0491A.18328.18328,0,0,0,274.76389,215.6783Zm-2.086,1.6064h.22391v-.57739h2.2261v-.252h-2.45Z" transform="translate(-34.7998 -99.5488)" style="fill:#434242"/><path d="M146.40829,119.18219h.6826v-.2486h-.4586v-1.26l2.226,1.008v-.273l-2.27141-1.0253h-.1786Zm2.2261,1.57861-.819-.8331a1.0076,1.0076,0,0,0-.76649-.4025c-.40961,0-.66161.31488-.66161.8121a1.10112,1.10112,0,0,0,.3501.86789l.1539-.1785a.83239.83239,0,0,1-.2729-.6684c0-.37451.17491-.5741.45831-.5741.16809,0,.33249.05249.6055.32889l.9975,1.0184h.1786v-1.71829h-.22391Zm-.14011.90988a.18318.18318,0,0,0,.1891.18542.17677.17677,0,0,0,.1783-.12592l.50771.11911v-.16809l-.483-.14713a.5747.5747,0,0,0-.203-.0491A.18323.18323,0,0,0,148.49429,121.67068Zm-2.086,1.60641h.224v-.57739h2.226v-.252h-2.45Z" transform="translate(-34.7998 -99.5488)" style="fill:#434242"/><line x1="345.89881" y1="44.65619" x2="345.89881" y2="67.61429" style="fill:none;stroke:#b1b2b2;stroke-miterlimit:22.92558479309082;stroke-width:0.2160000056028366px"/><line x1="337.89859" y1="110.9061" x2="337.89859" y2="135.567" style="fill:none;stroke:#b1b2b2;stroke-miterlimit:22.92558479309082;stroke-width:0.2160000056028366px"/><line x1="311.40061" y1="40.90601" x2="311.40061" y2="66.22049" style="fill:none;stroke:#b1b2b2;stroke-miterlimit:22.92558479309082;stroke-width:0.2160000056028366px"/><line x1="123.3987" y1="45.53101" x2="123.3987" y2="67.70721" style="fill:none;stroke:#b1b2b2;stroke-miterlimit:22.92558479309082;stroke-width:0.2160000056028366px"/><line x1="12.1479" y1="43.6564" x2="12.1479" y2="69.7204" style="fill:none;stroke:#b1b2b2;stroke-miterlimit:22.92558479309082;stroke-width:0.2160000056028366px"/><line x1="12.1479" y1="110.1564" x2="12.1479" y2="136.56731" style="fill:none;stroke:#b1b2b2;stroke-miterlimit:22.92558479309082;stroke-width:0.2160000056028366px"/><line x1="9.148" y1="175.90651" x2="9.148" y2="218.0243" style="fill:none;stroke:#b1b2b2;stroke-miterlimit:22.92558479309082;stroke-width:0.2160000056028366px"/><line x1="43.3979" y1="195.1566" x2="43.3979" y2="219.2208" style="fill:none;stroke:#b1b2b2;stroke-miterlimit:22.92558479309082;stroke-width:0.2160000056028366px"/><line x1="125.39789" y1="195.1566" x2="125.39789" y2="219.7208" style="fill:none;stroke:#b1b2b2;stroke-miterlimit:22.92558479309082;stroke-width:0.2160000056028366px"/><line x1="239.16809" y1="119.1564" x2="239.16809" y2="134.1848" style="fill:none;stroke:#b1b2b2;stroke-miterlimit:22.92558479309082;stroke-width:0.2160000056028366px"/><line x1="112.89859" y1="25.4061" x2="112.89859" y2="32.1546" style="fill:none;stroke:#b1b2b2;stroke-miterlimit:22.92558479309082;stroke-width:0.2160000056028366px"/><line x1="345.89881" y1="11.77881" x2="345.89881" y2="35.2171" style="fill:none;stroke:#b1b2b2;stroke-miterlimit:22.92558479309082;stroke-width:0.2160000056028366px"/><line x1="337.89859" y1="74.03979" x2="337.89859" y2="101.467" style="fill:none;stroke:#b1b2b2;stroke-miterlimit:22.92558479309082;stroke-width:0.2160000056028366px"/><line x1="311.39859" y1="8.1601" x2="311.39859" y2="31.46689" style="fill:none;stroke:#b1b2b2;stroke-miterlimit:22.92558479309082;stroke-width:0.2160000056028366px"/><line x1="123.40059" y1="12.44949" x2="123.40059" y2="36.09189" style="fill:none;stroke:#b1b2b2;stroke-miterlimit:22.92558479309082;stroke-width:0.2160000056028366px"/><line x1="12.1479" y1="9.72031" x2="12.1479" y2="34.21732" style="fill:none;stroke:#b1b2b2;stroke-miterlimit:22.92558479309082;stroke-width:0.2160000056028366px"/><line x1="12.1479" y1="74.6212" x2="12.1479" y2="100.7173" style="fill:none;stroke:#b1b2b2;stroke-miterlimit:22.92558479309082;stroke-width:0.2160000056028366px"/><line x1="9.148" y1="146.7204" x2="9.148" y2="166.46741" style="fill:none;stroke:#b1b2b2;stroke-miterlimit:22.92558479309082;stroke-width:0.2160000056028366px"/><line x1="43.3979" y1="142.2204" x2="43.3979" y2="185.7175" style="fill:none;stroke:#b1b2b2;stroke-miterlimit:22.92558479309082;stroke-width:0.2160000056028366px"/><line x1="125.39789" y1="162.7206" x2="125.39789" y2="185.7175" style="fill:none;stroke:#b1b2b2;stroke-miterlimit:22.92558479309082;stroke-width:0.2160000056028366px"/><line x1="239.16809" y1="102.9688" x2="239.16809" y2="109.7173" style="fill:none;stroke:#b1b2b2;stroke-miterlimit:22.92558479309082;stroke-width:0.2160000056028366px"/><line x1="112.89859" y1="9.2186" x2="112.89859" y2="15.96701" style="fill:none;stroke:#b1b2b2;stroke-miterlimit:22.92558479309082;stroke-width:0.2160000056028366px"/><path d="M340.9104,232.0569c-.42349,0-.6478-.2554-.6478-.525a.56725.56725,0,0,1,.63019-.5354c.37781,0,.616.2063.616.52829a.53612.53612,0,0,1-.59839.5321m.0209-1.2739a.78355.78355,0,0,0-.74921.4198c-.00681-.07341-.01041-.1434-.01041-.19951,0-.66479.33951-1.00439.86792-1.00439a.86048.86048,0,0,1,.4762.1154l.1015-.20291a1.12571,1.12571,0,0,0-.58112-.133c-.665,0-1.1199.434-1.1199,1.26711,0,.7733.35342,1.22479,1.00461,1.22479a.76331.76331,0,0,0,.83649-.75249A.74178.74178,0,0,0,340.9313,230.783Zm-2.35559.26929c-.37781,0-.61591-.20639-.61591-.5284a.5363.5363,0,0,1,.59869-.532c.42349,0,.6474.2556.6474.5249A.56709.56709,0,0,1,338.57571,231.05229Zm-.02771-1.2739a.76319.76319,0,0,0-.83652.75261.74161.74161,0,0,0,.826.73479.78268.78268,0,0,0,.7489-.41989c.00708.0735.0105.14349.0105.1996,0,.665-.3396,1.0043-.868,1.0043a.85881.85881,0,0,1-.47589-.1154l-.1015.203a1.124,1.124,0,0,0,.58081.13289c.665,0,1.12-.4339,1.12-1.267C339.55231,230.23,339.19879,229.7784,338.548,229.7784Zm-1.31281,2.107a.18314.18314,0,0,0-.1853.18909.17668.17668,0,0,0,.12579.1783l-.119.50771h.16809l.14709-.48309a.57468.57468,0,0,0,.049-.20291A.1832.1832,0,0,0,337.2352,231.88541Zm-1.3334-1.0361.69281-.87131v-.1786h-1.57489v.22391h1.2529l-.67892.85069v.18541h.1749c.4552,0,.66162.19249.66162.4864,0,.30449-.22391.4935-.62991.4935a1.074,1.074,0,0,1-.75958-.2834l-.1225.19949a1.27456,1.27456,0,0,0,.88208.3149c.5914,0,.889-.3149.889-.72449C336.6893,231.15379,336.42679,230.8774,335.90179,230.8493Z" transform="translate(-34.7998 -99.5488)" style="fill:#434242"/><path d="M259.98151,205.05209c-.37781,0-.616-.20639-.616-.5284a.53637.53637,0,0,1,.59869-.5321c.42349,0,.64749.25571.64749.525a.56709.56709,0,0,1-.63019.53549m-.0278-1.2739a.76319.76319,0,0,0-.83652.75259.74155.74155,0,0,0,.826.73471.78266.78266,0,0,0,.749-.4198c.007.07339.01041.14349.01041.1996,0,.665-.33951,1.0043-.86792,1.0043a.85939.85939,0,0,1-.476-.1154l-.10141.203a1.12381,1.12381,0,0,0,.58081.13289c.665,0,1.1199-.434,1.1199-1.26709C260.958,204.2298,260.60461,203.7782,259.9537,203.7782Zm-2.10361,1.2739c-.37781,0-.61591-.20639-.61591-.5284a.53639.53639,0,0,1,.59869-.5321c.4234,0,.6474.25571.6474.525A.56707.56707,0,0,1,257.8501,205.05209Zm-.02771-1.2739a.76312.76312,0,0,0-.83649.75259.74152.74152,0,0,0,.826.73471.78258.78258,0,0,0,.7489-.4198c.00711.07339.0105.14349.0105.1996,0,.665-.3396,1.0043-.868,1.0043a.859.859,0,0,1-.47592-.1154l-.1015.203a1.1241,1.1241,0,0,0,.58081.13289c.665,0,1.12-.434,1.12-1.26709C258.82669,204.2298,258.47321,203.7782,257.82239,203.7782Zm-1.31277,2.107a.18314.18314,0,0,0-.1853.1891.17676.17676,0,0,0,.12579.1783l-.119.5076h.168l.14719-.483a.57587.57587,0,0,0,.049-.20291A.18323.18323,0,0,0,256.50961,205.88519Zm-1.89011.14.8331-.81889a1.0078,1.0078,0,0,0,.4025-.76649c0-.40961-.3149-.66161-.8121-.66161a1.101,1.101,0,0,0-.868.3501l.1786.1539a.832.832,0,0,1,.6684-.273c.3745,0,.574.1749.574.4584,0,.16809-.0524.33249-.3288.6055l-1.01849.9975v.1786h1.7184v-.224Z" transform="translate(-34.7998 -99.5488)" style="fill:#434242"/><path d="M277.90979,112.28918c-.42688,0-.7211-.3606-.7211-1.01489,0-.65448.29422-1.015.7211-1.015s.72083.3605.72083,1.015c0,.6543-.29391,1.01489-.72083,1.01489m0,.231c.56693,0,.97992-.46552.97992-1.24591,0-.78058-.413-1.24609-.97992-1.24609s-.9765.46552-.9765,1.24609C276.93329,112.05469,277.3429,112.5202,277.90979,112.5202Zm-3.0379-2.471v.68262h.24863v-.45862h1.26l-1.008,2.226h.273l1.0253-2.27139v-.17862Zm-.43738,2.086a.18316.18316,0,0,0-.18539.18912.17673.17673,0,0,0,.12588.17828l-.11911.50769h.16812l.14709-.483a.57492.57492,0,0,0,.0491-.203A.18322.18322,0,0,0,274.43451,112.13519Zm-2.1384-2.086v.68262h.2486v-.45862h1.26l-1.008,2.226h.27292l1.0253-2.27139v-.17862Z" transform="translate(-34.7998 -99.5488)" style="fill:#434242"/><path d="M374.6333,116.03909c-.42691,0-.7211-.3606-.7211-1.0148,0-.65448.29419-1.01511.7211-1.01511s.72079.36063.72079,1.01511c0,.65421-.29388,1.0148-.72079,1.0148m0,.231c.56689,0,.97989-.46542.97989-1.24582,0-.7807-.413-1.24609-.97989-1.24609s-.9765.46539-.9765,1.24609C373.6568,115.80469,374.06641,116.27011,374.6333,116.27011Zm-2.62521-.2449.8331-.81891a1.00779,1.00779,0,0,0,.40253-.76651c0-.40958-.31491-.66159-.8121-.66159a1.10079,1.10079,0,0,0-.86792.3501l.1785.1539a.83224.83224,0,0,1,.66843-.273c.37448,0,.5741.17493.5741.4584,0,.16812-.05252.33252-.32892.6055l-1.0184.9975v.17862h1.71832v-.224Zm-.90988-.14a.18316.18316,0,0,0-.18539.18912.17683.17683,0,0,0,.12589.17828l-.11911.5076h.16812l.14709-.483a.57357.57357,0,0,0,.0491-.20288A.18322.18322,0,0,0,371.09821,115.88519Zm-1.60641-2.086v.22391h.57742v2.2261h.252v-2.45Z" transform="translate(-34.7998 -99.5488)" style="fill:#434242"/><path d="M97.8917,110.799v.22388h.5774v2.2261h.252v-2.45Zm-.9905,1.0499.6928-.87131V110.799H96.0191v.22388H97.272l-.6789.85071v.18539h.1749c.4552,0,.66161.1925.66161.48642,0,.30438-.2239.4935-.62991.4935a1.07407,1.07407,0,0,1-.7596-.28342l-.1225.19949a1.27461,1.27461,0,0,0,.8821.31491c.5914,0,.889-.31491.889-.72449C97.6887,112.15341,97.4262,111.877,96.9012,111.84891Zm-1.4176,1.0361a.18315.18315,0,0,0-.18539.18909.1768.1768,0,0,0,.1259.17831l-.1191.5076h.1681l.1472-.483a.5756.5756,0,0,0,.049-.20291A.1832.1832,0,0,0,95.4836,112.885Zm-1.5293-1.08142h-.3149l.0839-.7807h1.12V110.799H93.5028l-.1259,1.22849h.5213c.6231,0,.8192.19589.8192.51111,0,.29739-.2205.50031-.6372.50031a1.06136,1.06136,0,0,1-.7523-.28342l-.12251.19949a1.26446,1.26446,0,0,0,.8785.31491c.5984,0,.8889-.32541.8889-.74179C94.9728,112.09381,94.6928,111.80359,93.9543,111.80359Z" transform="translate(-34.7998 -99.5488)" style="fill:#434242"/><path d="M86.7064,232.80209c-.3778,0-.6159-.2063-.6159-.52829a.5363.5363,0,0,1,.5986-.5321c.4235,0,.6475.25571.6475.525a.56708.56708,0,0,1-.6302.5354m-.0278-1.2739a.76323.76323,0,0,0-.83649.75259.74163.74163,0,0,0,.8261.7348.78275.78275,0,0,0,.7489-.4198c.0071.07341.0105.1434.0105.19951,0,.665-.3396,1.0043-.868,1.0043a.85872.85872,0,0,1-.4759-.11531l-.1015.20291a1.124,1.124,0,0,0,.5808.133c.665,0,1.12-.434,1.12-1.26711C87.683,231.9798,87.3295,231.5282,86.6786,231.5282Zm-2.177.021v.224h.5775v2.226h.252v-2.45Zm-.3568,2.086a.18318.18318,0,0,0-.1854.1891.17669.17669,0,0,0,.1258.1783l-.119.50771h.1681l.1471-.483a.57371.57371,0,0,0,.049-.203A.18319.18319,0,0,0,84.1448,233.63519Zm-.4933-.504h-.4901v-.56689h-.2449v.56689H81.8524l1.2529-1.582h-.2798l-1.2985,1.624v.182h1.3824v.644h.252v-.644h.4901Z" transform="translate(-34.7998 -99.5488)" style="fill:#434242"/><path d="M172.02609,128.79529l.83311-.81888a1.00812,1.00812,0,0,0,.40259-.76651c0-.40961-.315-.66159-.81219-.66159a1.10113,1.10113,0,0,0-.8679.35l.1786.154a.832.832,0,0,1,.6684-.273c.3744,0,.574.1749.574.4584,0,.16809-.05251.33249-.3288.60541l-1.01851.9975v.17859h1.71831v-.22391Zm-1.62729.03152c-.434,0-.68941-.18912-.68941-.49362,0-.301.2554-.49008.68941-.49008s.693.18909.693.49008C171.0918,128.6377,170.83279,128.82681,170.3988,128.82681Zm-.6055-1.624c0-.273.2347-.4411.6055-.4411.3676,0,.6091.16812.6091.44452,0,.2662-.2276.43768-.6091.43768C170.0175,127.64389,169.7933,127.47241,169.7933,127.20279Zm1.078.5321a.555.555,0,0,0,.392-.53918c0-.3988-.34641-.6474-.8645-.6474-.5179,0-.8575.2486-.8575.6474a.553.553,0,0,0,.38519.53918.61085.61085,0,0,0-.4725.60172c0,.434.3569.70358.94481.70358.5845,0,.9521-.26959.9521-.70358A.61678.61678,0,0,0,170.87131,127.73489Zm-1.9879.92041a.18315.18315,0,0,0-.18541.189.17662.17662,0,0,0,.12581.17831l-.119.50769h.16809l.14711-.483a.57336.57336,0,0,0,.049-.203A.18316.18316,0,0,0,168.88341,128.6553Zm-1.60641-2.08609v.224h.57741v2.226h.252v-2.45Z" transform="translate(-34.7998 -99.5488)" style="fill:#434242"/><path d="M177.6192,245.0594c-.4269,0-.72121-.3605-.72121-1.0148,0-.6545.29431-1.01511.72121-1.01511s.72079.36061.72079,1.01511c0,.6543-.2939,1.0148-.72079,1.0148m0,.231c.56689,0,.9799-.46541.9799-1.2458,0-.78061-.413-1.24611-.9799-1.24611s-.97661.4655-.97661,1.24611C176.64259,244.825,177.05231,245.29041,177.6192,245.29041Zm-2.3134-1.46631h-.3149l.08389-.7807h1.12v-.22389h-1.3405l-.1259,1.2285h.5213c.62311,0,.8192.19589.8192.51109,0,.29741-.22049.50031-.63719.50031a1.0614,1.0614,0,0,1-.7523-.2834l-.1225.19949a1.26443,1.26443,0,0,0,.87849.31491c.5984,0,.8889-.32541.8889-.74181C176.3243,244.1143,176.0443,243.8241,175.3058,243.8241Zm-1.1936,1.08141a.18316.18316,0,0,0-.18539.1891.1767.1767,0,0,0,.12579.1783l-.119.50769h.16811l.14709-.48309a.57265.57265,0,0,0,.049-.2029A.18319.18319,0,0,0,174.1122,244.9055Zm-1.6064-2.086v.22389h.57741v2.2261h.252v-2.45Z" transform="translate(-34.7998 -99.5488)" style="fill:#434242"/><path d="M125.4583,318.0771c-.4235,0-.6477-.2554-.6477-.525a.56723.56723,0,0,1,.6301-.5355c.37791,0,.616.2064.616.5284a.53613.53613,0,0,1-.5984.5321m.021-1.2739a.78343.78343,0,0,0-.7492.4198c-.00681-.0734-.01051-.1435-.01051-.1996,0-.6647.3396-1.0043.868-1.0043a.86092.86092,0,0,1,.4762.1154l.1015-.203a1.1258,1.1258,0,0,0-.5811-.1329c-.6651,0-1.12.434-1.12,1.2671,0,.7732.3535,1.2248,1.0046,1.2248a.76333.76333,0,0,0,.83649-.75259A.74168.74168,0,0,0,125.4793,316.8032Zm-2.429-.9837v.224h.5774v2.226h.252v-2.45Zm-.3569,2.08611a.18314.18314,0,0,0-.18539.189.17656.17656,0,0,0,.1259.1783l-.1191.50771h.1681l.1471-.483a.57389.57389,0,0,0,.0491-.203A.18318.18318,0,0,0,122.6934,317.9056Zm-1.5293-1.0815h-.3149l.0839-.78059h1.1199v-.224h-1.3405l-.1258,1.2286h.5213c.623,0,.8192.1959.8192.5111,0,.2973-.2206.50031-.6372.50031a1.06168,1.06168,0,0,1-.7524-.2835l-.1224.1996a1.26485,1.26485,0,0,0,.8784.3149c.5984,0,.889-.32539.889-.7418C122.1826,317.1144,121.9025,316.8241,121.1641,316.8241Z" transform="translate(-34.7998 -99.5488)" style="fill:#434242"/><path d="M168.709,201.80389h-.3149l.08389-.7807h1.12v-.22389h-1.3405l-.1259,1.2285h.52129c.62311,0,.81921.19589.81921.51109,0,.2973-.2205.50031-.63721.50031a1.06144,1.06144,0,0,1-.7523-.28349l-.1225.1996a1.26452,1.26452,0,0,0,.87849.3149c.5984,0,.8889-.32541.8889-.74181,0-.4343-.28-.7245-1.01849-.7245m-1.9845,1.23531c-.4269,0-.7211-.3606-.7211-1.0148,0-.6545.2942-1.01511.7211-1.01511s.7209.36061.7209,1.01511C167.4454,202.6786,167.1514,203.0392,166.7245,203.0392Zm0,.231c.56689,0,.9799-.46541.9799-1.2458,0-.7807-.413-1.24609-.9799-1.24609s-.9765.46539-.9765,1.24609C165.748,202.80479,166.15759,203.2702,166.7245,203.2702Zm-1.48761-.3849a.18315.18315,0,0,0-.18539.189.17656.17656,0,0,0,.1259.1783l-.11909.50771h.16809l.14711-.483a.57393.57393,0,0,0,.0491-.203A.18325.18325,0,0,0,165.23689,202.8853Zm-1.33339-1.0361.69279-.8714v-.1785h-1.575v.22389h1.2529l-.67889.85071v.18539h.1749c.45529,0,.66159.1924.66159.4864,0,.3044-.22389.4935-.62979.4935a1.07438,1.07438,0,0,1-.7597-.28349l-.1225.1996a1.27479,1.27479,0,0,0,.8822.3149c.59129,0,.8889-.3149.8889-.7245C164.6909,202.1537,164.42841,201.8773,163.9035,201.8492Z" transform="translate(-34.7998 -99.5488)" style="fill:#434242"/><line x1="298.89209" y1="131.5406" x2="263.0174" y2="131.5406" style="fill:none;stroke:#b1b2b2;stroke-miterlimit:22.92558479309082;stroke-width:0.2160000056028366px"/><line x1="218.1422" y1="105.54041" x2="200.34819" y2="105.54041" style="fill:none;stroke:#b1b2b2;stroke-miterlimit:22.92558479309082;stroke-width:0.2160000056028366px"/><line x1="236.14219" y1="11.7905" x2="163.07801" y2="11.7905" style="fill:none;stroke:#b1b2b2;stroke-miterlimit:22.92558479309082;stroke-width:0.2160000056028366px"/><line x1="333.142" y1="15.54041" x2="326.39359" y2="15.54041" style="fill:none;stroke:#b1b2b2;stroke-miterlimit:22.92558479309082;stroke-width:0.2160000056028366px"/><line x1="56.6419" y1="12.54019" x2="9.578" y2="12.54019" style="fill:none;stroke:#b1b2b2;stroke-miterlimit:22.92558479309082;stroke-width:0.2160000056028366px"/><line x1="45.142" y1="133.2905" x2="10.078" y2="133.2905" style="fill:none;stroke:#b1b2b2;stroke-miterlimit:22.92558479309082;stroke-width:0.2160000056028366px"/><line x1="130.892" y1="28.31052" x2="120.348" y2="28.31052" style="fill:none;stroke:#b1b2b2;stroke-miterlimit:22.92558479309082;stroke-width:0.2160000056028366px"/><line x1="136.14209" y1="144.5607" x2="129.3936" y2="144.5607" style="fill:none;stroke:#b1b2b2;stroke-miterlimit:22.92558479309082;stroke-width:0.2160000056028366px"/><line x1="83.8919" y1="217.5608" x2="41.578" y2="217.5608" style="fill:none;stroke:#b1b2b2;stroke-miterlimit:22.92558479309082;stroke-width:0.2160000056028366px"/><line x1="126.89209" y1="102.5405" x2="95.21579" y2="102.5405" style="fill:none;stroke:#b1b2b2;stroke-miterlimit:22.92558479309082;stroke-width:0.2160000056028366px"/><line x1="342.41361" y1="131.5406" x2="308.33121" y2="131.5406" style="fill:none;stroke:#b1b2b2;stroke-miterlimit:22.92558479309082;stroke-width:0.2160000056028366px"/><line x1="254.09711" y1="105.54041" x2="227.58121" y2="105.54041" style="fill:none;stroke:#b1b2b2;stroke-miterlimit:22.92558479309082;stroke-width:0.2160000056028366px"/><line x1="316.45841" y1="11.7905" x2="245.58121" y2="11.7905" style="fill:none;stroke:#b1b2b2;stroke-miterlimit:22.92558479309082;stroke-width:0.2160000056028366px"/><line x1="349.32959" y1="15.54041" x2="342.58109" y2="15.54041" style="fill:none;stroke:#b1b2b2;stroke-miterlimit:22.92558479309082;stroke-width:0.2160000056028366px"/><line x1="117.74579" y1="12.54019" x2="66.081" y2="12.54019" style="fill:none;stroke:#b1b2b2;stroke-miterlimit:22.92558479309082;stroke-width:0.2160000056028366px"/><line x1="91.328" y1="133.2939" x2="54.5811" y2="133.2939" style="fill:none;stroke:#b1b2b2;stroke-miterlimit:22.92558479309082;stroke-width:0.2160000056028366px"/><line x1="153.4487" y1="28.31052" x2="140.3311" y2="28.31052" style="fill:none;stroke:#b1b2b2;stroke-miterlimit:22.92558479309082;stroke-width:0.2160000056028366px"/><line x1="152.32959" y1="144.5607" x2="145.5812" y2="144.5607" style="fill:none;stroke:#b1b2b2;stroke-miterlimit:22.92558479309082;stroke-width:0.2160000056028366px"/><line x1="142.3205" y1="217.5608" x2="93.331" y2="217.5608" style="fill:none;stroke:#b1b2b2;stroke-miterlimit:22.92558479309082;stroke-width:0.2160000056028366px"/><line x1="155.39611" y1="102.5405" x2="136.3312" y2="102.5405" style="fill:none;stroke:#b1b2b2;stroke-miterlimit:22.92558479309082;stroke-width:0.2160000056028366px"/><path d="M54.1466,313.8024c-.3779,0-.616-.2064-.616-.5284a.53631.53631,0,0,1,.5987-.532c.4235,0,.6474.2557.6474.5249a.56707.56707,0,0,1-.6301.5355m-.0278-1.2739a.76324.76324,0,0,0-.8365.7526.7416.7416,0,0,0,.826.7348.78267.78267,0,0,0,.7489-.4199c.0071.0735.0105.1435.0105.1996,0,.665-.3396,1.0043-.868,1.0043a.85878.85878,0,0,1-.4759-.1153l-.1015.2029a1.12391,1.12391,0,0,0,.5808.133c.665,0,1.12-.434,1.12-1.2671C55.1231,312.9801,54.7696,312.5285,54.1188,312.5285Zm-2.177.021v.2239h.5774v2.2261h.252v-2.45Zm-.3569,2.086a.18317.18317,0,0,0-.1854.1891.17665.17665,0,0,0,.1259.1783l-.1191.5077h.1681l.1471-.4831a.57337.57337,0,0,0,.0491-.2029A.18327.18327,0,0,0,51.5849,314.6355Zm-1.6064-2.086v.2239h.5774v2.2261h.252v-2.45Z" transform="translate(-34.7998 -99.5488)" style="fill:#434242"/><line x1="13.142" y1="214.2907" x2="6.3936" y2="214.2907" style="fill:none;stroke:#b1b2b2;stroke-miterlimit:22.92558479309082;stroke-width:0.2160000056028366px"/><line x1="29.3295" y1="214.2907" x2="22.5811" y2="214.2907" style="fill:none;stroke:#b1b2b2;stroke-miterlimit:22.92558479309082;stroke-width:0.2160000056028366px"/></svg>