<svg id="Слой_1" data-name="Слой 1" xmlns="http://www.w3.org/2000/svg" viewBox="0 0 161.6953 217.73199"><title>2.08.02</title><polygon points="161.695 217.732 87.294 217.732 3.353 217.732 0 217.732 0 61.592 3.353 61.592 3.353 0 161.695 0 161.695 217.732" style="fill:#fff;fill-rule:evenodd"/><path d="M275.58771,176.6246h2.77509v-3.1785h-2.77509Zm4.4812,3.8905h2.77518v-7.069h-2.77518Zm-4.4812,0h2.77509v-3.17851h-2.77509Zm-.9375,1.05h9.0564v-9.5063h-9.0564Z" transform="translate(-131.7506 -103.73251)" style="fill:#003915;fill-rule:evenodd"/><path d="M222.5191,243.1732a.374.374,0,0,1,.3748-.6474l13.92009,8.0399a.37407.37407,0,0,1-.3748.64749Z" transform="translate(-131.7506 -103.73251)" style="fill:#003915"/><path d="M209.505,243.1732a.374.374,0,0,0-.3748-.6474l-13.9201,8.0399a.37407.37407,0,0,0,.3748.64749Z" transform="translate(-131.7506 -103.73251)" style="fill:#003915"/><path d="M277.33151,140.69229a.374.374,0,1,0-.37473-.6474l-13.92007,8.03992a.374.374,0,1,0,.37469.6474Z" transform="translate(-131.7506 -103.73251)" style="fill:#003915"/><path d="M241.628,210.9924a.374.374,0,0,1-.6474-.3748l8.03989-13.92011a.374.374,0,0,1,.6474.3748Z" transform="translate(-131.7506 -103.73251)" style="fill:#003915"/><path d="M167.0885,163.45139a.37408.37408,0,0,1-.64751-.37479l8.0399-13.92a.37406.37406,0,0,1,.64751.37473Z" transform="translate(-131.7506 -103.73251)" style="fill:#003915"/><rect x="117.0885" y="66.30519" width="2.6022" height="26.8866" style="fill:#003915"/><rect x="117.1364" y="2.1333" width="2.6022" height="33.918" style="fill:#003915"/><rect x="127.28221" y="2.1333" width="2.6022" height="33.918" style="fill:#003915"/><rect x="117.0885" y="109.26569" width="2.6022" height="28.6353" style="fill:#003915"/><rect x="82.6331" y="138.21959" width="2.6022" height="75.07729" style="fill:#003915"/><rect x="117.53011" y="66.48088" width="41.36319" height="2.6022" style="fill:#003915"/><rect x="145.39131" y="34.37598" width="13.50198" height="2.6022" style="fill:#003915"/><rect x="117.1364" y="34.37598" width="12.74802" height="2.6022" style="fill:#003915"/><rect x="117.0885" y="133.76299" width="41.36311" height="2.6022" style="fill:#003915"/><rect x="109.4165" y="136.75778" width="49.03511" height="2.6022" style="fill:#003915"/><rect x="77.0726" y="136.75778" width="14.30031" height="2.6022" style="fill:#003915"/><rect x="5.33231" y="136.75778" width="53.7639" height="2.6022" style="fill:#003915"/><rect x="0.1761" y="0.0788" width="161.5192" height="5.00198" style="fill:#003915"/><rect x="156.69331" y="132.66989" width="5.00198" height="83.43949" style="fill:#003915"/><rect x="155.2697" y="57.07217" width="6.4256" height="79.53561" style="fill:#003915"/><rect x="155.2697" y="0.0788" width="6.4256" height="36.89938" style="fill:#003915"/><rect x="156.76192" y="64.72198" width="4.93338" height="6.4256" style="fill:#003915"/><rect y="209.57188" width="28.4709" height="8.1601" style="fill:#003915"/><rect x="57.56291" y="209.57188" width="46.57489" height="8.1601" style="fill:#003915"/><rect x="134.06551" y="209.57188" width="27.62979" height="8.1601" style="fill:#003915"/><rect y="61.59167" width="39.3432" height="8.16011" style="fill:#003915"/><rect y="62.26578" width="8.16011" height="26.0034" style="fill:#003915"/><rect y="117.80589" width="8.16011" height="99.84869" style="fill:#003915"/><rect x="31.18311" y="2.19318" width="8.1601" height="27.44391" style="fill:#003915"/><rect x="31.18311" y="59.75568" width="8.1601" height="9.99611" style="fill:#003915"/><rect x="42.3318" y="212.57288" width="0.50171" height="2.2986" style="fill:#003915"/><rect x="43.53061" y="212.57288" width="0.5011" height="2.2986" style="fill:#003915"/><rect x="56.16771" y="212.57288" width="0.50139" height="2.2986" style="fill:#003915"/><rect x="57.36621" y="212.57288" width="0.50119" height="2.2986" style="fill:#003915"/><rect x="28.22011" y="212.57288" width="0.50169" height="2.2986" style="fill:#003915"/><rect x="29.41861" y="212.57288" width="0.5011" height="2.2986" style="fill:#003915"/><rect x="25.83051" y="209.57098" width="34.0937" height="0.5015" style="fill:#003915"/><rect x="25.83051" y="212.41808" width="34.0937" height="0.5015" style="fill:#003915"/><rect x="25.83051" y="214.58949" width="34.0937" height="0.5014" style="fill:#003915"/><rect x="25.83051" y="217.23048" width="34.0937" height="0.5015" style="fill:#003915"/><rect x="118.19571" y="212.57288" width="0.50169" height="2.2986" style="fill:#003915"/><rect x="119.3945" y="212.57288" width="0.5011" height="2.2986" style="fill:#003915"/><rect x="132.0316" y="212.57288" width="0.5015" height="2.2986" style="fill:#003915"/><rect x="133.23012" y="212.57288" width="0.50119" height="2.2986" style="fill:#003915"/><rect x="104.084" y="212.57288" width="0.50171" height="2.2986" style="fill:#003915"/><rect x="105.2825" y="212.57288" width="0.5011" height="2.2986" style="fill:#003915"/><rect x="101.69441" y="209.57098" width="34.09369" height="0.5015" style="fill:#003915"/><rect x="101.69441" y="212.41808" width="34.09369" height="0.5015" style="fill:#003915"/><rect x="101.69441" y="214.58949" width="34.09369" height="0.5014" style="fill:#003915"/><rect x="101.69441" y="217.23048" width="34.09369" height="0.5015" style="fill:#003915"/><rect x="3.00191" y="102.92259" width="2.2986" height="0.50169" style="fill:#003915"/><rect x="3.00191" y="101.72438" width="2.2986" height="0.5011" style="fill:#003915"/><rect x="3.00191" y="89.08699" width="2.2986" height="0.50139" style="fill:#003915"/><rect x="3.00191" y="87.88869" width="2.2986" height="0.50121" style="fill:#003915"/><rect x="3.00191" y="117.03429" width="2.2986" height="0.50169" style="fill:#003915"/><rect x="3.00191" y="115.83638" width="2.2986" height="0.5011" style="fill:#003915"/><rect y="85.83188" width="0.50151" height="34.0937" style="fill:#003915"/><rect x="2.8472" y="85.83188" width="0.5014" height="34.0937" style="fill:#003915"/><rect x="5.01851" y="85.83188" width="0.5015" height="34.0937" style="fill:#003915"/><rect x="7.6595" y="85.83188" width="0.50151" height="34.0937" style="fill:#003915"/><path d="M166.2823,144.4071h1.66989v.697H166.2823Zm0-13.56921h1.66989V143.9057H166.2823Zm0-1.19818h1.66989v.69708H166.2823Zm1.66989-.50171H166.2823v-5.78949h-.5014V145.1041h-2.3457V123.34851h-.5015v22.25677h8.161V123.34851h-.5015V145.1041h-2.1396V127.05231h-.5014Z" transform="translate(-131.7506 -103.73251)" style="fill:#003915;fill-rule:evenodd"/><rect x="4.13521" y="42.66418" width="1.2972" height="0.44711" style="fill:#003915"/><rect x="4.13521" y="41.59637" width="1.2972" height="0.44681" style="fill:#003915"/><rect x="4.13521" y="24.06219" width="1.2972" height="0.44699" style="fill:#003915"/><rect x="4.13521" y="22.99438" width="1.2972" height="0.44672" style="fill:#003915"/><rect x="4.13521" y="5.45978" width="1.2972" height="0.44702" style="fill:#003915"/><rect x="4.13521" y="4.392" width="1.2972" height="0.44669" style="fill:#003915"/><rect x="4.13521" y="61.26657" width="1.2972" height="0.44702" style="fill:#003915"/><rect x="4.13521" y="60.19879" width="1.2972" height="0.44669" style="fill:#003915"/><rect x="2.90581" y="2.32529" width="0.44679" height="60.8212" style="fill:#003915"/><rect x="3.99721" y="2.32529" width="0.4467" height="60.8212" style="fill:#003915"/><rect x="5.078" y="2.32529" width="0.44681" height="60.8212" style="fill:#003915"/><path d="M286.5773,209.59889v9.82231a.90534.90534,0,0,1-.904.9054h-4.6102a4.59569,4.59569,0,0,1-4.591-4.5896v-2.4523a4.59566,4.59566,0,0,1,4.591-4.59039h4.6102a.90477.90477,0,0,1,.904.90459m-9.8606,6.13811a4.351,4.351,0,0,0,4.34641,4.34489h4.6102a.66135.66135,0,0,0,.65988-.66069v-9.82231a.66075.66075,0,0,0-.65988-.66h-4.6102a4.3514,4.3514,0,0,0-4.34641,4.34579Z" transform="translate(-131.7506 -103.73251)" style="fill:#003915"/><path d="M277.80688,215.73669a3.25881,3.25881,0,0,0,3.25623,3.2545h2.688a.56786.56786,0,0,0,.5675-.5672V214.8486h.24521V218.424a.81411.81411,0,0,1-.81271.81241h-2.688a3.50408,3.50408,0,0,1-3.50082-3.49971V213.2845a3.50463,3.50463,0,0,1,3.50082-3.50079h2.688a.81447.81447,0,0,1,.81271.81349v3.57539h-.24521V210.5972a.56822.56822,0,0,0-.5675-.5683h-2.688a3.25936,3.25936,0,0,0-3.25623,3.2556Z" transform="translate(-131.7506 -103.73251)" style="fill:#003915"/><path d="M281.41061,214.5099a.78351.78351,0,1,1-.78351-.7838.7848.7848,0,0,1,.78351.7838m-1.32242,0a.53876.53876,0,1,0,.53891-.5392A.5397.5397,0,0,0,280.0882,214.5099Z" transform="translate(-131.7506 -103.73251)" style="fill:#003915"/><rect x="148.31862" y="110.65489" width="1.11658" height="0.24489" style="fill:#003915"/><rect x="148.75401" y="110.21979" width="0.24548" height="1.116" style="fill:#003915"/><path d="M285.395,214.17259v-.40369a.17372.17372,0,0,0-.1741-.17291h-.37927a.17364.17364,0,0,0-.174.17291v.40369h-.2449v-.40369a.41867.41867,0,0,1,.41891-.41811h.37927a.41861.41861,0,0,1,.4187.41811v.40559l-.03738-.00191Zm-.72739,1.0771a.17446.17446,0,0,0,.174.1741h.37927a.17454.17454,0,0,0,.1741-.1741v-.40109h.20721l.03738-.0023v.4034a.41861.41861,0,0,1-.4187.4187h-.37927a.41867.41867,0,0,1-.41891-.4187v-.40109h.2449Z" transform="translate(-131.7506 -103.73251)" style="fill:#003915"/><path d="M286.0625,214.5099a.46108.46108,0,0,1-.4603.4612h-3.08041a.4605.4605,0,0,1,0-.921h3.08041a.46053.46053,0,0,1,.4603.45981m-3.75671,0a.21676.21676,0,0,0,.216.21629h3.08041a.2156.2156,0,0,0,0-.4312h-3.08041A.21609.21609,0,0,0,282.30579,214.5099Z" transform="translate(-131.7506 -103.73251)" style="fill:#003915"/><path d="M286.5773,124.39v9.8223a.90528.90528,0,0,1-.904.9054h-4.6102a4.5957,4.5957,0,0,1-4.591-4.5896V128.0759a4.59567,4.59567,0,0,1,4.591-4.59048h4.6102a.90478.90478,0,0,1,.904.9046m-9.8606,6.13809a4.351,4.351,0,0,0,4.34641,4.345h4.6102a.66145.66145,0,0,0,.65988-.6608V124.39a.66067.66067,0,0,0-.65988-.65991h-4.6102a4.35133,4.35133,0,0,0-4.34641,4.34579Z" transform="translate(-131.7506 -103.73251)" style="fill:#003915"/><path d="M277.80688,130.5278a3.2588,3.2588,0,0,0,3.25623,3.25449h2.688a.56786.56786,0,0,0,.5675-.5672v-3.57538h.24521v3.57538a.81406.81406,0,0,1-.81271.81241h-2.688a3.50408,3.50408,0,0,1-3.50082-3.49969v-2.45221a3.50471,3.50471,0,0,1,3.50082-3.50079h2.688a.81449.81449,0,0,1,.81271.81351v3.57541h-.24521v-3.57541a.56821.56821,0,0,0-.5675-.5683h-2.688a3.25935,3.25935,0,0,0-3.25623,3.25558Z" transform="translate(-131.7506 -103.73251)" style="fill:#003915"/><path d="M281.41061,129.301a.78351.78351,0,1,1-.78351-.78378.78482.78482,0,0,1,.78351.78378m-1.32242,0a.53876.53876,0,1,0,.53891-.53918A.5397.5397,0,0,0,280.0882,129.301Z" transform="translate(-131.7506 -103.73251)" style="fill:#003915"/><rect x="148.31862" y="25.44598" width="1.11658" height="0.245" style="fill:#003915"/><rect x="148.75401" y="25.01089" width="0.24548" height="1.116" style="fill:#003915"/><path d="M285.395,128.96371V128.56a.17373.17373,0,0,0-.1741-.17291h-.37927a.17365.17365,0,0,0-.174.17291v.40372h-.2449V128.56a.41867.41867,0,0,1,.41891-.41809h.37927a.4186.4186,0,0,1,.4187.41809v.4057l-.03738-.002Zm-.72739,1.07709a.17447.17447,0,0,0,.174.1741h.37927a.17455.17455,0,0,0,.1741-.1741v-.40109h.20721l.03738-.0022v.40329a.41854.41854,0,0,1-.4187.4187h-.37927a.4186.4186,0,0,1-.41891-.4187v-.40109h.2449Z" transform="translate(-131.7506 -103.73251)" style="fill:#003915"/><path d="M286.0625,129.301a.461.461,0,0,1-.4603.46121h-3.08041a.46051.46051,0,0,1,0-.921h3.08041a.46061.46061,0,0,1,.4603.45981m-3.75671,0a.21678.21678,0,0,0,.216.21631h3.08041a.21561.21561,0,0,0,0-.43121h-3.08041A.21609.21609,0,0,0,282.30579,129.301Z" transform="translate(-131.7506 -103.73251)" style="fill:#003915"/><path d="M272.57809,195.07471a3.9169,3.9169,0,0,0,3.913,3.9115h5.66531a.67724.67724,0,0,0,.63919-.4561,1.25,1.25,0,0,0,.20489.2036.94572.94572,0,0,1-.84409.5215h-5.66531a4.1808,4.1808,0,1,1,0-8.3616h5.66531a.94552.94552,0,0,1,.8436.521,1.23816,1.23816,0,0,0-.20471.2032.67635.67635,0,0,0-.63889-.45551h-5.66531a3.9171,3.9171,0,0,0-3.913,3.91241" transform="translate(-131.7506 -103.73251)" style="fill:#003915"/><path d="M281.0755,192.2709v5.609a.20391.20391,0,0,1-.20151.2012H276.6033a3.00655,3.00655,0,1,1,0-6.01311H280.874a.20466.20466,0,0,1,.20151.20291m-.2681,5.54149v-5.476h-4.2041a2.738,2.738,0,0,0,0,5.476Z" transform="translate(-131.7506 -103.73251)" style="fill:#003915"/><path d="M278.3446,195.075a1.00815,1.00815,0,1,1-1.008-1.0089,1.01,1.01,0,0,1,1.008,1.0089m-1.7475,0a.7394.7394,0,1,0,.7395-.7399A.74038.74038,0,0,0,276.59711,195.075Z" transform="translate(-131.7506 -103.73251)" style="fill:#003915"/><rect x="279.28652" y="195.57526" width="0.26854" height="2.24223" transform="translate(-177.07114 199.30533) rotate(-53.27519)" style="fill:#003915"/><rect x="278.29905" y="193.3625" width="2.24311" height="0.26914" transform="translate(-191.97793 102.26523) rotate(-36.81017)" style="fill:#003915"/><path d="M286.5773,192.3741v5.4006a1.355,1.355,0,0,1-1.35379,1.3524h-1.4743a1.35346,1.35346,0,0,1-1.35242-1.3524v-5.4006a1.35314,1.35314,0,0,1,1.35242-1.35181h1.4743a1.35471,1.35471,0,0,1,1.35379,1.35181m-3.91211,5.4006a1.08544,1.08544,0,0,0,1.084,1.0842h1.4743a1.08585,1.08585,0,0,0,1.08508-1.0842v-5.4006a1.086,1.086,0,0,0-1.08508-1.08369h-1.4743a1.08559,1.08559,0,0,0-1.084,1.08369Z" transform="translate(-131.7506 -103.73251)" style="fill:#003915"/><path d="M285.175,195.075a.6881.6881,0,1,1-.68738-.68829.68807.68807,0,0,1,.68738.68829m-1.10718,0a.41925.41925,0,1,0,.4198-.41949A.41934.41934,0,0,0,284.06781,195.075Z" transform="translate(-131.7506 -103.73251)" style="fill:#003915"/><path d="M268.706,123.03809a3.91688,3.91688,0,0,1-3.9115-3.91287V113.4599a.67736.67736,0,0,1,.45612-.63931,1.23647,1.23647,0,0,1-.20361-.2049.94587.94587,0,0,0-.52161.84421v5.66531a4.18085,4.18085,0,1,0,8.36169,0V113.4599a.94528.94528,0,0,0-.521-.8436,1.2373,1.2373,0,0,1-.20328.20459.6764.6764,0,0,1,.4556.639v5.66531a3.91713,3.91713,0,0,1-3.91241,3.91287" transform="translate(-131.7506 -103.73251)" style="fill:#003915"/><path d="M271.5097,114.54071h-5.60892a.20393.20393,0,0,0-.2012.2016v4.2706a3.00656,3.00656,0,1,0,6.01312,0v-4.2706a.2047.2047,0,0,0-.203-.2016m-5.54141.26819h5.476v4.204a2.738,2.738,0,0,1-5.476,0Z" transform="translate(-131.7506 -103.73251)" style="fill:#003915"/><path d="M268.70569,117.27161a1.00815,1.00815,0,1,0,1.00891,1.008,1.01008,1.01008,0,0,0-1.00891-1.008m0,1.74759a.73944.73944,0,1,1,.73981-.73959A.74045.74045,0,0,1,268.70569,119.0192Z" transform="translate(-131.7506 -103.73251)" style="fill:#003915"/><rect x="266.94998" y="115.07433" width="0.26858" height="2.24218" transform="translate(-148.21208 79.07514) rotate(-36.73205)" style="fill:#003915"/><rect x="269.16206" y="116.06107" width="2.24307" height="0.26916" transform="translate(-116.43882 159.24197) rotate(-53.19061)" style="fill:#003915"/><path d="M271.40659,109.03891H266.006a1.3551,1.3551,0,0,0-1.35242,1.35388v1.4743a1.35351,1.35351,0,0,0,1.35242,1.35242h5.40057a1.35319,1.35319,0,0,0,1.35181-1.35242v-1.4743a1.35478,1.35478,0,0,0-1.35181-1.35388M266.006,112.951a1.08549,1.08549,0,0,1-1.08432-1.08389v-1.4743a1.08594,1.08594,0,0,1,1.08432-1.08508h5.40057a1.08591,1.08591,0,0,1,1.08362,1.08508v1.4743a1.08546,1.08546,0,0,1-1.08362,1.08389Z" transform="translate(-131.7506 -103.73251)" style="fill:#003915"/><path d="M268.70569,110.44119a.68816.68816,0,1,0,.68832.68741.68814.68814,0,0,0-.68832-.68741m0,1.1073a.41925.41925,0,1,1,.41953-.41989A.4195.4195,0,0,1,268.70569,111.54849Z" transform="translate(-131.7506 -103.73251)" style="fill:#003915"/><path d="M260.208,173.0807H252.3685v11.3479H260.208Zm-8.17091-.33081h8.50261V184.7597h-8.50261Z" transform="translate(-131.7506 -103.73251)" style="fill:#003915"/><path d="M260.4325,175.4751a.6044.6044,0,0,1,.61261.5936v5.37221a.60413.60413,0,0,1-.61261.5939V181.704a.26974.26974,0,0,0,.28091-.26309V176.0687a.26951.26951,0,0,0-.28091-.2628Z" transform="translate(-131.7506 -103.73251)" style="fill:#003915"/><path d="M257.80591,177.73289H255.0983l-.6217,1.59731a2.47367,2.47367,0,0,0,1.67471-.0918,4.15131,4.15131,0,0,1,1.24078-.24121,2.4476,2.4476,0,0,1,.93652.1882Zm-2.93411-.3308h3.16681l.89209,2.48-.39059-.22479a2.26679,2.26679,0,0,0-1.148-.3293,3.89335,3.89335,0,0,0-1.1438.2267,3.89763,3.89763,0,0,1-1.14409.2282,2.01681,2.01681,0,0,1-.91251-.218l-.1357-.0674Z" transform="translate(-131.7506 -103.73251)" style="fill:#003915"/><path d="M284.42609,222.287h-30.085a2.16108,2.16108,0,0,0-2.15149,2.1657V234.864a2.161,2.161,0,0,0,2.15149,2.166h30.085a2.16084,2.16084,0,0,0,2.15121-2.166V224.4527a2.161,2.161,0,0,0-2.15121-2.1657m-30.085,14.51309a1.93116,1.93116,0,0,1-1.92189-1.9361V224.4527a1.931,1.931,0,0,1,1.92189-1.9355h30.085a1.93143,1.93143,0,0,1,1.92221,1.9355V234.864a1.93156,1.93156,0,0,1-1.92221,1.9361Z" transform="translate(-131.7506 -103.73251)" style="fill:#003915"/><path d="M257.3269,235.5381a2.57706,2.57706,0,0,1-2.5654-2.58211v-6.59479a2.57658,2.57658,0,0,1,2.5654-2.58171h24.11319a2.577,2.577,0,0,1,2.56592,2.58171v2.062a.39549.39549,0,0,1,.22818-.142v-1.92a2.80638,2.80638,0,0,0-2.7941-2.8125H257.3269a2.80663,2.80663,0,0,0-2.7944,2.8125V232.956a2.8066,2.8066,0,0,0,2.7944,2.8123h24.11319a2.80635,2.80635,0,0,0,2.7941-2.8123V231.0359a.39523.39523,0,0,1-.22818-.14151v2.0616a2.57749,2.57749,0,0,1-2.56592,2.58211Z" transform="translate(-131.7506 -103.73251)" style="fill:#003915"/><path d="M258.8743,234.22479a1.2666,1.2666,0,0,1-1.26111-1.2688v-6.59479a1.26634,1.26634,0,0,1,1.26111-1.2682h22.5658a1.26626,1.26626,0,0,1,1.26141,1.2682v2.84489h.2287v-2.84489a1.49617,1.49617,0,0,0-1.49011-1.4989H258.8743a1.49561,1.49561,0,0,0-1.48929,1.4989V232.956a1.49525,1.49525,0,0,0,1.48929,1.499h22.5658a1.49581,1.49581,0,0,0,1.49011-1.499V230.1109h-.2287V232.956a1.26652,1.26652,0,0,1-1.26141,1.2688Z" transform="translate(-131.7506 -103.73251)" style="fill:#003915"/><path d="M279.53491,228.9258a.73331.73331,0,1,0,.72989.7336.73146.73146,0,0,0-.72989-.7336m0,1.2364a.50331.50331,0,1,1,.50027-.50281A.50191.50191,0,0,1,279.53491,230.1622Z" transform="translate(-131.7506 -103.73251)" style="fill:#003915"/><rect x="147.67009" y="125.40358" width="0.22931" height="1.0457" style="fill:#003915"/><rect x="147.26579" y="125.81149" width="1.03781" height="0.2307" style="fill:#003915"/><path d="M284.03491,229.2061v-.53751a.27988.27988,0,0,1,.27859-.28029h.50519a.2804.2804,0,0,1,.27921.28029v.53751h.2287v-.53751a.51032.51032,0,0,0-.5079-.511h-.50519a.50971.50971,0,0,0-.50742.511v.53751Zm.27859,1.722a.27976.27976,0,0,1-.27859-.28v-.5372h-.22882v.5372a.50934.50934,0,0,0,.50742.5108h.50519a.51.51,0,0,0,.5079-.5108v-.5372h-.2287v.5372a.28028.28028,0,0,1-.27921.28Z" transform="translate(-131.7506 -103.73251)" style="fill:#003915"/><path d="M285.32471,229.0907h-3.2012a.56766.56766,0,0,0,0,1.1353h3.2012a.56766.56766,0,0,0,0-1.1353m-3.2012.90511a.33715.33715,0,0,1,0-.6743h3.2012a.33716.33716,0,0,1,0,.6743Z" transform="translate(-131.7506 -103.73251)" style="fill:#003915"/><path d="M241.06509,108.9913H229.2959v11.76889h11.7692Zm-11.5197.24951H240.8159v11.27048H229.54539Z" transform="translate(-131.7506 -103.73251)" style="fill:#003915"/><path d="M235.1806,119.66211a3.91958,3.91958,0,0,1-.9816-7.7142.30006.30006,0,0,1-.07431-.1976v-.0405a4.16842,4.16842,0,1,0,2.1116-.00031v.0408a.2984.2984,0,0,1-.074.1973,3.91975,3.91975,0,0,1-.98169,7.71451" transform="translate(-131.7506 -103.73251)" style="fill:#003915"/><path d="M235.1806,112.26141a3.48149,3.48149,0,1,0,3.48129,3.48178,3.48569,3.48569,0,0,0-3.48129-3.48178m0,6.7135a3.2319,3.2319,0,1,1,3.2318-3.23172A3.2354,3.2354,0,0,1,235.1806,118.97491Z" transform="translate(-131.7506 -103.73251)" style="fill:#003915"/><path d="M235.1806,114.84061a.9023.9023,0,1,0,.9026.90259.90332.90332,0,0,0-.9026-.90259m0,1.55569a.653.653,0,1,1,.65309-.65311A.65424.65424,0,0,1,235.1806,116.3963Z" transform="translate(-131.7506 -103.73251)" style="fill:#003915"/><rect x="103.3053" y="11.35327" width="0.24951" height="1.3139" style="fill:#003915"/><rect x="102.77321" y="11.88538" width="1.3136" height="0.24969" style="fill:#003915"/><path d="M235.9344,110.93649H234.4269a.427.427,0,0,0-.42659.42661v.38721a.42686.42686,0,0,0,.42659.42661h1.50751a.42692.42692,0,0,0,.42659-.42661v-.38721a.42706.42706,0,0,0-.42659-.42661m-1.50751.991a.17771.17771,0,0,1-.17749-.17718v-.38721a.17752.17752,0,0,1,.17749-.17719h1.50751a.17718.17718,0,0,1,.17709.17719v.38721a.17737.17737,0,0,1-.17709.17718Z" transform="translate(-131.7506 -103.73251)" style="fill:#003915"/><path d="M234.96069,111.06119v-.08649a.21965.21965,0,1,1,.4393,0v.08649h.2498v-.08649a.46945.46945,0,0,0-.93889,0v.08649Zm.21991,2.59a.22042.22042,0,0,1-.21991-.22052v-1.37851h-.24979v1.37851a.46944.46944,0,1,0,.93889,0v-1.37851H235.4v1.37851A.21992.21992,0,0,1,235.1806,113.65121Z" transform="translate(-131.7506 -103.73251)" style="fill:#003915"/><path d="M212.4003,109.4726h7.1566a1.49616,1.49616,0,0,1,1.4942,1.49481v8.29871a1.496,1.496,0,0,1-1.4942,1.49408h-7.1566a1.49567,1.49567,0,0,1-1.4942-1.49408v-8.29871a1.49585,1.49585,0,0,1,1.4942-1.49481m7.1566,11.0546a1.26254,1.26254,0,0,0,1.26109-1.26108v-8.29871a1.26268,1.26268,0,0,0-1.26109-1.26172h-7.1566a1.26307,1.26307,0,0,0-1.2617,1.26172v8.29871a1.26294,1.26294,0,0,0,1.2617,1.26108Z" transform="translate(-131.7506 -103.73251)" style="fill:#003915"/><path d="M212.4003,110.2916h7.1566a.67616.67616,0,0,1,.6758.67581V117.978a.67636.67636,0,0,1-.6758.67581h-7.1566a.67655.67655,0,0,1-.67639-.67581v-7.01059a.67635.67635,0,0,1,.67639-.67581m7.1566,8.12921A.44333.44333,0,0,0,220,117.978v-7.01059a.44351.44351,0,0,0-.4431-.44312h-7.1566a.44387.44387,0,0,0-.44389.44312V117.978a.44368.44368,0,0,0,.44389.44281Z" transform="translate(-131.7506 -103.73251)" style="fill:#003915"/><path d="M218.8568,119.07251a.4742.4742,0,1,1-.47429.47418.47508.47508,0,0,1,.47429-.47418m0,.71539a.2412.2412,0,1,0-.24159-.24121A.24193.24193,0,0,0,218.8568,119.7879Z" transform="translate(-131.7506 -103.73251)" style="fill:#003915"/><path d="M217.256,119.07251a.4742.4742,0,1,1-.47479.47418.475.475,0,0,1,.47479-.47418m0,.71539a.2412.2412,0,1,0-.24179-.24121A.24162.24162,0,0,0,217.256,119.7879Z" transform="translate(-131.7506 -103.73251)" style="fill:#003915"/><rect x="84.8333" y="8.70148" width="2.7196" height="0.2327" style="fill:#003915"/><rect x="86.0766" y="7.4574" width="0.23271" height="2.71948" style="fill:#003915"/><path d="M217.9437,111.65329a.89691.89691,0,1,1-.89659.89691.898.898,0,0,1,.89659-.89691m0,1.5611a.66429.66429,0,1,0-.66389-.66418A.66556.66556,0,0,0,217.9437,113.21439Z" transform="translate(-131.7506 -103.73251)" style="fill:#003915"/><rect x="84.8333" y="12.54669" width="2.7196" height="0.23239" style="fill:#003915"/><rect x="86.0766" y="11.30228" width="0.23271" height="2.7204" style="fill:#003915"/><path d="M217.9437,115.49771a.89714.89714,0,1,1-.89659.8974.89858.89858,0,0,1,.89659-.8974m0,1.56189a.66475.66475,0,1,0-.66389-.66449A.66542.66542,0,0,0,217.9437,117.0596Z" transform="translate(-131.7506 -103.73251)" style="fill:#003915"/><rect x="80.9028" y="8.70148" width="2.7193" height="0.2327" style="fill:#003915"/><rect x="82.14551" y="7.4574" width="0.233" height="2.71948" style="fill:#003915"/><path d="M214.0126,111.65329a.89691.89691,0,1,1-.8969.89691.89783.89783,0,0,1,.8969-.89691m0,1.5611a.66429.66429,0,1,0-.6638-.66418A.66607.66607,0,0,0,214.0126,113.21439Z" transform="translate(-131.7506 -103.73251)" style="fill:#003915"/><rect x="80.9028" y="12.54669" width="2.7193" height="0.23239" style="fill:#003915"/><rect x="82.14551" y="11.30228" width="0.233" height="2.7204" style="fill:#003915"/><path d="M214.0126,115.49771a.89714.89714,0,1,1-.8969.8974.89845.89845,0,0,1,.8969-.8974m0,1.56189a.66475.66475,0,1,0-.6638-.66449A.66593.66593,0,0,0,214.0126,117.0596Z" transform="translate(-131.7506 -103.73251)" style="fill:#003915"/><path d="M214.5424,119.07251a.4742.4742,0,1,1-.4745.47418.47476.47476,0,0,1,.4745-.47418m0,.71539a.2412.2412,0,1,0-.24181-.24121A.24161.24161,0,0,0,214.5424,119.7879Z" transform="translate(-131.7506 -103.73251)" style="fill:#003915"/><path d="M212.9409,119.07251a.4742.4742,0,1,1-.474.47418.47463.47463,0,0,1,.474-.47418m0,.71539a.2412.2412,0,1,0-.24161-.24121A.24167.24167,0,0,0,212.9409,119.7879Z" transform="translate(-131.7506 -103.73251)" style="fill:#003915"/><path d="M284.80371,175.2401a.809.809,0,1,0-.2348-.57089.80939.80939,0,0,0,.2348.57089m.5726,1.03641a1.60708,1.60708,0,1,1,1.13638-.47061A1.60255,1.60255,0,0,1,285.37631,176.2765Z" transform="translate(-131.7506 -103.73251)" style="fill:#003915"/><path d="M256.93109,109.81931a.80934.80934,0,1,0,.57092-.23471.81027.81027,0,0,0-.57092.23471m-1.03629.5726a1.60724,1.60724,0,1,1,.47058,1.13638A1.60282,1.60282,0,0,1,255.89481,110.39191Z" transform="translate(-131.7506 -103.73251)" style="fill:#003915"/><path d="M251.58051,113.46811h2.9803V120.875h-2.9803Zm0,17.12238h2.9803v7.40692h-2.9803Zm0-8.52548h2.9803v3.07278h-2.9803Zm0,4.2627h2.9803v3.07281h-2.9803ZM249.3797,112.1871h6.62881v27.2421H249.3797V112.1871Z" transform="translate(-131.7506 -103.73251)" style="fill:#003915;fill-rule:evenodd"/><path d="M259.1286,113.46811h-2.98041V120.875h2.98041Zm0,17.12238h-2.98041v7.40692h2.98041Zm0-8.52548h-2.98041v3.07278h2.98041Zm0,4.2627h-2.98041v3.07281h2.98041Zm2.20081-14.14059h-6.6288v27.2421h6.6288V112.1871Z" transform="translate(-131.7506 -103.73251)" style="fill:#003915;fill-rule:evenodd"/><rect x="117.0885" y="60.31729" width="8.5782" height="8.76579" style="fill:#003915"/><path d="M264.23291,275.29829c-.7319,0-1.2359-.618-1.2359-1.7399s.504-1.7399,1.2359-1.7399,1.2359.6179,1.2359,1.7399-.504,1.7399-1.2359,1.7399m0,.396c.972,0,1.67978-.798,1.67978-2.13591s-.70779-2.13589-1.67978-2.13589-1.6738.7979-1.6738,2.13589S263.26089,275.69431,264.23291,275.69431Zm-3.90582-.366c-.74408,0-1.1821-.324-1.1821-.8461,0-.5159.438-.83989,1.1821-.83989.7438,0,1.188.324,1.188.83989C261.51511,275.0043,261.07089,275.32829,260.32709,275.32829ZM259.289,272.5444c0-.468.402-.756,1.03809-.756.62982,0,1.044.288,1.044.762,0,.4561-.39011.75-1.044.75S259.289,273.0065,259.289,272.5444Zm1.8479.9119a.95106.95106,0,0,0,.67209-.9238c0-.684-.59409-1.11-1.4819-1.11-.88809,0-1.47009.426-1.47009,1.11a.94765.94765,0,0,0,.65991.9238,1.04829,1.04829,0,0,0-.80981,1.0321c0,.74379.612,1.2059,1.62,1.2059,1.002,0,1.63193-.46211,1.63193-1.2059A1.0578,1.0578,0,0,0,261.1369,273.4563Zm-3.40781,1.57809a.314.314,0,0,0-.318.324.303.303,0,0,0,.216.3058l-.2041.87h.288l.252-.828a.97552.97552,0,0,0,.08408-.34779A.314.314,0,0,0,257.7291,275.03439Zm-3.24.23981,1.4281-1.4037a1.729,1.729,0,0,0,.68988-1.31419c0-.70181-.54-1.1338-1.392-1.1338a1.88753,1.88753,0,0,0-1.488.59979l.30591.26421a1.426,1.426,0,0,1,1.14609-.468c.642,0,.9839.2999.9839.786,0,.2877-.0899.56981-.56389,1.03781l-1.74611,1.7101v.30589h2.94611v-.38409Zm-2.982-3.8157v.3838h.9901v3.816h.432v-4.1998Z" transform="translate(-131.7506 -103.73251)" style="fill:#6e6e6e;fill-rule:evenodd"/><path d="M181.948,275.29829c-.7319,0-1.2359-.618-1.2359-1.7399s.504-1.7399,1.2359-1.7399,1.2359.6179,1.2359,1.7399-.504,1.7399-1.2359,1.7399m0,.396c.972,0,1.67981-.798,1.67981-2.13591s-.70781-2.13589-1.67981-2.13589-1.6739.7979-1.6739,2.13589S180.976,275.69431,181.948,275.69431Zm-3.97189-.396c-.7319,0-1.2359-.618-1.2359-1.7399s.504-1.7399,1.2359-1.7399,1.2359.6179,1.2359,1.7399S178.708,275.29829,177.9761,275.29829Zm0,.396c.972,0,1.67979-.798,1.67979-2.13591s-.70779-2.13589-1.67979-2.13589-1.6739.7979-1.6739,2.13589S177.0041,275.69431,177.9761,275.69431Zm-2.5498-.65991a.314.314,0,0,0-.318.324.303.303,0,0,0,.216.3058l-.2041.87h.288l.252-.828a.97528.97528,0,0,0,.08409-.34779A.314.314,0,0,0,175.4263,275.03439Zm-2.2861-1.77589,1.188-1.4942v-.3058h-2.7v.3838h2.1481l-1.164,1.4581v.3181h.3c.7798,0,1.1338.3299,1.1338.83389,0,.52191-.3838.8459-1.08.8459a1.841,1.841,0,0,1-1.3019-.4859l-.2101.3419a2.185,2.185,0,0,0,1.512.54c1.014,0,1.52391-.54,1.52391-1.24191C174.49,273.7803,174.04021,273.3064,173.1402,273.2585Zm-3.852-1.8v.3838h.99011v3.816h.432v-4.1998Z" transform="translate(-131.7506 -103.73251)" style="fill:#6e6e6e;fill-rule:evenodd"/><path d="M228.2312,133.79559c-.7319,0-1.2359-.61789-1.2359-1.7399s.504-1.7399,1.2359-1.7399,1.2359.618,1.2359,1.7399-.504,1.7399-1.2359,1.7399m0,.396c.972,0,1.67979-.79788,1.67979-2.13589s-.70779-2.13589-1.67979-2.13589-1.6738.798-1.6738,2.13589S227.2592,134.19159,228.2312,134.19159Zm-2.0701-1.5239h-.8399v-.972h-.4198v.972h-1.8241l2.1481-2.71188h-.48021l-2.2258,2.78387v.31183h2.36981v1.1041h.432v-1.1041h.8399Zm-4.4337.864a.31406.31406,0,0,0-.318.324.30311.30311,0,0,0,.216.30588l-.2041.8699h.288l.252-.828a.9752.9752,0,0,0,.08409-.34778A.31394.31394,0,0,0,221.7274,133.53171Zm-3.24.23978,1.4281-1.40369a1.729,1.729,0,0,0,.6899-1.31409c0-.7019-.54-1.13391-1.392-1.13391a1.8875,1.8875,0,0,0-1.488.59979l.30589.26422a1.42633,1.42633,0,0,1,1.1461-.468c.642,0,.9839.2999.9839.786,0,.28778-.0899.56979-.5639,1.03778l-1.74609,1.71021v.30582h2.94609v-.38412Zm-2.982-3.81567v.38379h.9901v3.816h.432v-4.1998Z" transform="translate(-131.7506 -103.73251)" style="fill:#6e6e6e;fill-rule:evenodd"/><path d="M202.7075,206.7957c-.7319,0-1.2359-.618-1.2359-1.7399s.504-1.7399,1.2359-1.7399,1.2359.61789,1.2359,1.7399-.504,1.7399-1.2359,1.7399m0,.396c.972,0,1.67979-.798,1.67979-2.13589s-.70779-2.13589-1.67979-2.13589-1.6739.7979-1.6739,2.13589S201.7355,207.1917,202.7075,207.1917Zm-3.63011-2.43579,1.188-1.4942v-.3058h-2.7v.3838h2.1481l-1.16389,1.4581v.3181h.2999c.77989,0,1.1339.32989,1.1339.83389,0,.5219-.3838.8459-1.08.8459a1.84133,1.84133,0,0,1-1.302-.4859l-.21.3419a2.185,2.185,0,0,0,1.512.54c1.014,0,1.52391-.54,1.52391-1.2419C200.42731,205.27769,199.9774,204.8038,199.07739,204.75591Zm-2.42979,1.77589a.31409.31409,0,0,0-.3181.324.30313.30313,0,0,0,.216.3058l-.2041.87h.288l.252-.828a.97615.97615,0,0,0,.08421-.34779A.314.314,0,0,0,196.6476,206.5318Zm-2.6221.2939c-.74409,0-1.182-.324-1.182-.8461,0-.5159.4379-.8399,1.182-.8399.7439,0,1.188.324,1.188.8399C195.2135,206.50169,194.76939,206.8257,194.0255,206.8257Zm-1.038-2.78391c0-.468.4019-.756,1.038-.756.6299,0,1.044.288,1.044.762,0,.4561-.39.75-1.044.75S192.9875,204.50391,192.9875,204.04179Zm1.8479.91191a.95111.95111,0,0,0,.6721-.92381c0-.684-.5941-1.11-1.482-1.11-.88809,0-1.47.426-1.47,1.11a.94768.94768,0,0,0,.6599.92381,1.04825,1.04825,0,0,0-.80989,1.03209c0,.7438.612,1.2059,1.62,1.2059,1.00211,0,1.6319-.4621,1.6319-1.2059A1.05767,1.05767,0,0,0,194.8354,204.9537Zm-4.83-1.9978v.3838h.9902v3.816h.432v-4.1998Z" transform="translate(-131.7506 -103.73251)" style="fill:#6e6e6e;fill-rule:evenodd"/><path d="M269.784,213.257c-.7319,0-1.2359-.618-1.2359-1.7399s.504-1.7399,1.2359-1.7399,1.2359.61789,1.2359,1.7399-.504,1.7399-1.2359,1.7399m0,.396c.972,0,1.67981-.798,1.67981-2.13589s-.70779-2.13591-1.67981-2.13591-1.67389.7979-1.67389,2.13591S268.812,213.653,269.784,213.653Zm-3.966-2.5141h-.54l.144-1.33791h1.92v-.38379h-2.29782l-.216,2.10579h.894c1.06781,0,1.40381.33591,1.40381.8759,0,.51-.3779.85811-1.092.85811a1.821,1.821,0,0,1-1.29-.4859l-.20978.3419a2.16861,2.16861,0,0,0,1.5058.54c1.02609,0,1.5239-.55791,1.5239-1.2719C267.5639,211.637,267.084,211.1389,265.818,211.1389Zm-2.04568,1.8542a.31408.31408,0,0,0-.31812.324.30312.30312,0,0,0,.216.3058l-.2041.87h.288l.252-.828a.97638.97638,0,0,0,.0842-.34781A.314.314,0,0,0,263.77231,212.9931Zm-2.6221-1.8542h-.54l.144-1.33791h1.91989v-.38379h-2.2977l-.216,2.10579h.894c1.06778,0,1.40369.33591,1.40369.8759,0,.51-.37781.85811-1.09189.85811a1.821,1.821,0,0,1-1.29-.4859l-.20981.3419a2.16867,2.16867,0,0,0,1.5058.54c1.02609,0,1.5239-.55791,1.5239-1.2719C262.89609,211.637,262.4162,211.1389,261.15021,211.1389Z" transform="translate(-131.7506 -103.73251)" style="fill:#6e6e6e;fill-rule:evenodd"/><path d="M274.896,132.7955c-.7319,0-1.2359-.61789-1.2359-1.7399s.504-1.7399,1.2359-1.7399,1.2359.618,1.2359,1.7399-.504,1.7399-1.2359,1.7399m0,.396c.972,0,1.67981-.79791,1.67981-2.13589s-.70779-2.13589-1.67981-2.13589-1.67389.798-1.67389,2.13589S273.924,133.1915,274.896,133.1915Zm-3.97189-.396c-.7319,0-1.2359-.61789-1.2359-1.7399s.504-1.7399,1.2359-1.7399,1.2359.618,1.2359,1.7399S271.656,132.7955,270.9241,132.7955Zm0,.396c.972,0,1.67981-.79791,1.67981-2.13589s-.70782-2.13589-1.67981-2.13589-1.67389.798-1.67389,2.13589S269.95209,133.1915,270.9241,133.1915Zm-2.5498-.65991a.31407.31407,0,0,0-.318.324.30311.30311,0,0,0,.216.30591l-.2041.87h.288l.252-.828a.97615.97615,0,0,0,.08423-.3479A.31405.31405,0,0,0,268.3743,132.53159Zm-3.24.2399,1.4281-1.40378a1.72925,1.72925,0,0,0,.69-1.31412c0-.7019-.54-1.13388-1.39212-1.13388a1.88728,1.88728,0,0,0-1.48788.59979l.30579.26419a1.42657,1.42657,0,0,1,1.14612-.468c.642,0,.98389.2999.98389.7861,0,.28769-.0899.5697-.56381,1.03769l-1.74619,1.71021v.30579h2.94611v-.384Z" transform="translate(-131.7506 -103.73251)" style="fill:#6e6e6e;fill-rule:evenodd"/><path d="M275.6358,158.54581c-.7319,0-1.2359-.618-1.2359-1.74s.504-1.7399,1.2359-1.7399,1.2359.618,1.2359,1.7399-.504,1.74-1.2359,1.74m0,.396c.972,0,1.6799-.798,1.6799-2.136s-.70792-2.13589-1.6799-2.13589-1.6738.798-1.6738,2.13589S274.66379,158.9418,275.6358,158.9418Zm-3.96591-2.5141h-.54l.144-1.33789h1.91989v-.38391H270.896l-.216,2.1059h.8941c1.06781,0,1.40372.33591,1.40372.87592,0,.51-.3779.85809-1.09192.85809a1.82143,1.82143,0,0,1-1.2901-.4859l-.20969.34189a2.1686,2.1686,0,0,0,1.50571.54c1.02618,0,1.5239-.55789,1.5239-1.272C273.41571,156.92581,272.93579,156.4277,271.66989,156.4277Zm-2.04578,1.8541a.31406.31406,0,0,0-.318.324.30307.30307,0,0,0,.216.30591l-.2041.87h.288l.252-.828a.97692.97692,0,0,0,.0842-.3479A.314.314,0,0,0,269.62412,158.2818Zm-3.24.2399,1.4281-1.40381a1.7288,1.7288,0,0,0,.69-1.31409c0-.7019-.54-1.13391-1.39209-1.13391a1.887,1.887,0,0,0-1.48791.59991l.30582.2641a1.42652,1.42652,0,0,1,1.14609-.468c.642,0,.98392.29993.98392.7861,0,.28772-.0899.56982-.56381,1.03781l-1.74622,1.71011v.30588h2.94611v-.38409Z" transform="translate(-131.7506 -103.73251)" style="fill:#6e6e6e;fill-rule:evenodd"/><path d="M154.7643,152.00711c-.7319,0-1.2359-.618-1.2359-1.7399s.504-1.7399,1.2359-1.7399,1.2359.61789,1.2359,1.7399-.504,1.7399-1.2359,1.7399m0,.396c.972,0,1.67981-.798,1.67981-2.13589s-.70781-2.13593-1.67981-2.13593-1.6739.79791-1.6739,2.13593S153.7923,152.40311,154.7643,152.40311Zm-2.07019-1.5239h-.8399v-.972h-.4198v.972h-1.8241l2.1481-2.71191h-.48021l-2.22569,2.78391v.3118h2.36969v1.1041h.432V151.263h.8399Zm-4.43361.864a.31409.31409,0,0,0-.3181.324.30307.30307,0,0,0,.216.30579l-.2041.87h.288l.252-.828a.97628.97628,0,0,0,.08421-.34781A.314.314,0,0,0,148.2605,151.74319Zm-2.28619-1.77591,1.188-1.49417v-.30582h-2.7v.38379h2.1481l-1.16389,1.4581v.31812h.2999c.7798,0,1.1339.32989,1.1339.83389,0,.52191-.38379.84592-1.08.84592a1.84127,1.84127,0,0,1-1.302-.4859l-.21.34189a2.185,2.185,0,0,0,1.512.54c1.0139,0,1.52391-.54,1.52391-1.24191C147.3242,150.48911,146.8743,150.0152,145.9743,149.96729Z" transform="translate(-131.7506 -103.73251)" style="fill:#6e6e6e;fill-rule:evenodd"/><path d="M289.39041,147.20889a3.90785,3.90785,0,1,0,3.90778,3.9075,3.908,3.908,0,0,0-3.90778-3.9075" transform="translate(-131.7506 -103.73251)" style="fill:#558e42;fill-rule:evenodd"/><polygon points="155.236 47.384 156.551 47.006 157.865 46.627 157.865 47.384 157.865 48.141 156.551 47.763 155.236 47.384" style="fill:#fdfdfd;fill-rule:evenodd"/><rect x="157.7625" y="47.20508" width="2.2814" height="0.38409" style="fill:#fdfdfd"/><rect x="160.6349" width="1.06039" height="12.62469" style="fill:#003915"/><path d="M254.3031,310.0406c-.4268,0-.7211-.3606-.7211-1.01479,0-.6546.2943-1.01511.7211-1.01511s.7209.3605.7209,1.01511c0,.6542-.294,1.01479-.7209,1.01479m0,.231c.567,0,.98-.4655.98-1.2458,0-.7807-.413-1.2462-.98-1.2462s-.9765.4655-.9765,1.2462C253.3266,309.8061,253.73621,310.2716,254.3031,310.2716Zm-3.0378-2.471v.6826h.2486v-.4586h1.26l-1.008,2.226h.2729l1.0253-2.2714v-.1786Zm-.43741,2.086a.18318.18318,0,0,0-.18539.1891.17668.17668,0,0,0,.12579.1783l-.119.5077h.16809l.14709-.483a.5735.5735,0,0,0,.049-.203A.18319.18319,0,0,0,250.8279,309.8866Zm-1.33339-1.036.69269-.8714v-.1786H248.6123v.224h1.2529l-.67891.8506v.1854h.17491c.45529,0,.66159.1925.66159.4864,0,.3045-.22389.4936-.62979.4936a1.07435,1.07435,0,0,1-.7597-.28349l-.1225.19949a1.27477,1.27477,0,0,0,.8822.315c.59129,0,.8889-.315.8889-.7246C250.28191,309.155,250.01939,308.8786,249.49451,308.8506Z" transform="translate(-131.7506 -103.73251)" style="fill:#434242"/><path d="M176.6013,310.0267l.8331-.819a1.00761,1.00761,0,0,0,.4025-.7665c0-.4096-.3149-.6616-.8121-.6616a1.10133,1.10133,0,0,0-.868.3501l.1786.1539a.83225.83225,0,0,1,.6684-.2729c.3744,0,.574.1749.574.45831,0,.1681-.0524.3325-.32881.6055l-1.01849.9975v.1786h1.7184v-.2239Zm-2.4568-2.2261v.6826h.2486v-.4586h1.26l-1.008,2.226h.2729l1.0253-2.2714v-.1786Zm-.43739,2.086a.18318.18318,0,0,0-.18541.1891.17664.17664,0,0,0,.1259.1783l-.11909.5077h.16809l.14711-.483a.5744.5744,0,0,0,.0491-.203A.18321.18321,0,0,0,173.70711,309.8866Zm-1.3334-1.036.69279-.8714v-.1786h-1.575v.224h1.2529l-.67889.8506v.1854h.1749c.45529,0,.66159.1925.66159.4864,0,.3045-.22389.4936-.62979.4936a1.07438,1.07438,0,0,1-.7597-.28349l-.1225.19949a1.27477,1.27477,0,0,0,.8822.315c.59129,0,.8889-.315.8889-.7246C173.1611,309.155,172.89861,308.8786,172.3737,308.8506Z" transform="translate(-131.7506 -103.73251)" style="fill:#434242"/><path d="M199.1441,114.2901c-.42691,0-.72121-.3605-.72121-1.0148,0-.65451.2943-1.01511.72121-1.01511s.72079.3606.72079,1.01511c0,.6543-.2939,1.0148-.72079,1.0148m0,.23111c.56689,0,.97989-.46552.97989-1.24591,0-.78061-.413-1.24609-.97989-1.24609s-.97661.46548-.97661,1.24609C198.1675,114.05569,198.5771,114.52121,199.1441,114.52121ZM196.827,113.3031c-.37779,0-.61589-.20639-.61589-.52841a.53627.53627,0,0,1,.59859-.532c.42351,0,.64751.25558.64751.5249A.56709.56709,0,0,1,196.827,113.3031Zm-.0278-1.2739a.76323.76323,0,0,0-.83649.75259.74163.74163,0,0,0,.8261.7348.78268.78268,0,0,0,.7489-.41989c.0071.07349.0105.14349.0105.19958,0,.665-.3396,1.0043-.868,1.0043a.85809.85809,0,0,1-.47591-.11539l-.1015.203a1.12405,1.12405,0,0,0,.5808.133c.665,0,1.12-.434,1.12-1.26712C197.8036,112.4808,197.4501,112.02921,196.79919,112.02921Zm-1.3127,2.107a.18317.18317,0,0,0-.18539.18909.17678.17678,0,0,0,.1259.17831l-.11909.50769h.16809l.14709-.48309a.57313.57313,0,0,0,.0491-.20291A.1832.1832,0,0,0,195.4865,114.1362Zm-1.33339-1.0361.69279-.87131v-.17859H193.271v.22391h1.2529l-.67889.85068v.18542h.1749c.4552,0,.66161.19247.66161.48639,0,.3045-.224.4935-.6299.4935a1.0743,1.0743,0,0,1-.7597-.28339l-.12241.19949a1.27453,1.27453,0,0,0,.88211.315c.59129,0,.889-.315.889-.72461C194.9406,113.4046,194.6781,113.1282,194.15311,113.1001Z" transform="translate(-131.7506 -103.73251)" style="fill:#434242"/><path d="M151.99091,113.3031c-.3779,0-.616-.20639-.616-.52841a.53631.53631,0,0,1,.59871-.532c.42349,0,.6474.25558.6474.5249a.56706.56706,0,0,1-.6301.53549m-.0278-1.2739a.76323.76323,0,0,0-.8365.75259.7416.7416,0,0,0,.826.7348.78259.78259,0,0,0,.7489-.41989c.0071.07349.0105.14349.0105.19958,0,.665-.3396,1.0043-.868,1.0043a.8583.8583,0,0,1-.47589-.11539l-.1015.203a1.12405,1.12405,0,0,0,.5808.133c.665,0,1.12-.434,1.12-1.26712C152.96741,112.4808,152.61391,112.02921,151.9631,112.02921Zm-2.177.021v.22391h.57739v2.2261h.252v-2.45Zm-.3569,2.086a.18316.18316,0,0,0-.18539.18909.17676.17676,0,0,0,.1259.17831l-.11911.50769h.16811l.14709-.48309a.57347.57347,0,0,0,.0491-.20291A.1832.1832,0,0,0,149.4292,114.1362Zm-1.6064-2.086v.22391h.57741v2.2261h.252v-2.45Z" transform="translate(-131.7506 -103.73251)" style="fill:#434242"/><path d="M281.47781,113.06021c-.42691,0-.72122-.36063-.72122-1.0148,0-.65451.29431-1.01511.72122-1.01511s.72079.3606.72079,1.01511c0,.65417-.29391,1.0148-.72079,1.0148m0,.231c.56689,0,.97989-.46539.97989-1.24579,0-.7807-.413-1.24612-.97989-1.24612s-.97662.46542-.97662,1.24612C280.50119,112.82581,280.9108,113.2912,281.47781,113.2912Zm-2.11752-1.421.69281-.8714v-.17862h-1.575v.224h1.253l-.67892.85071v.1853h.17493c.4552,0,.66159.1925.66159.48651,0,.30438-.224.4935-.62991.4935a1.07428,1.07428,0,0,1-.75967-.28351l-.12241.19958a1.27467,1.27467,0,0,0,.88208.31491c.59131,0,.88892-.31491.88892-.72449C280.14771,112.17459,279.88531,111.89828,279.36029,111.87021Zm-1.4176,1.0361a.18313.18313,0,0,0-.18539.189.17666.17666,0,0,0,.12579.17828l-.119.50772h.16809l.14713-.483a.5736.5736,0,0,0,.049-.203A.18315.18315,0,0,0,277.94269,112.90631Zm-1.60638-2.08612v.224h.57739v2.226h.252v-2.45Z" transform="translate(-131.7506 -103.73251)" style="fill:#434242"/><path d="M265.62051,188.08839l.8331-.81889a1.00775,1.00775,0,0,0,.4025-.76649c0-.40961-.31491-.66161-.8121-.66161a1.101,1.101,0,0,0-.868.3501l.17862.1539a.832.832,0,0,1,.6684-.273c.37439,0,.574.1749.574.45839,0,.16811-.0524.3325-.3288.60551l-1.01849.9975v.17859h1.71841v-.224Zm-1.62741.03151c-.434,0-.68939-.1891-.68939-.4935,0-.3011.2554-.4901.68939-.4901s.69308.189.69308.4901C264.68619,187.9308,264.42709,188.1199,263.9931,188.1199Zm-.6055-1.624c0-.273.23471-.441.6055-.441.36771,0,.60919.168.60919.4444,0,.2662-.22769.4377-.60919.4377C263.61179,186.937,263.3876,186.7655,263.3876,186.4959Zm1.078.5321a.55508.55508,0,0,0,.39209-.5392c0-.3988-.3464-.6474-.86459-.6474-.51791,0-.85751.2486-.85751.6474a.55311.55311,0,0,0,.38531.5392.61092.61092,0,0,0-.4726.60181c0,.434.3569.70349.94479.70349.5845,0,.95221-.2695.95221-.70349A.61686.61686,0,0,0,264.46561,187.028Zm-1.98792.92039a.18318.18318,0,0,0-.18539.1891.17674.17674,0,0,0,.12592.1783l-.11911.50771h.16809l.14709-.48311a.57357.57357,0,0,0,.0491-.2029A.18321.18321,0,0,0,262.47769,187.94839Zm-1.60638-2.086v.22391h.57739v2.22609h.252v-2.45Z" transform="translate(-131.7506 -103.73251)" style="fill:#434242"/><path d="M179.82339,236.3826h-.4901v-.567h-.2449v.567h-1.06409l1.2529-1.582h-.2798l-1.2986,1.6239v.182h1.38249v.644h.252v-.644h.4901Zm-2.3134,0h-.4901v-.567h-.2449v.567h-1.06409l1.2529-1.582h-.2798l-1.29851,1.6239v.182h1.3824v.644h.252v-.644h.4901Zm-2.58659.504a.1832.1832,0,0,0-.18539.189.17669.17669,0,0,0,.1259.17831l-.119.50769h.168l.1472-.483a.57567.57567,0,0,0,.049-.203A.18319.18319,0,0,0,174.9234,236.8866Zm-1.5293-1.08139h-.31491l.08391-.7807h1.12v-.22391h-1.3405l-.1259,1.2285h.5213c.62311,0,.8192.19591.8192.51111,0,.29729-.22049.50029-.63719.50029a1.06141,1.06141,0,0,1-.7523-.28349l-.1225.1996a1.26449,1.26449,0,0,0,.87849.3149c.5984,0,.8889-.32539.8889-.74181C174.4126,236.0954,174.1326,235.80521,173.3941,235.80521Z" transform="translate(-131.7506 -103.73251)" style="fill:#434242"/><line x1="115.53571" y1="205.35818" x2="85.23531" y2="205.35818" style="fill:none;stroke:#b1b2b2;stroke-miterlimit:22.92558479309082;stroke-width:0.2160000056028366px"/><line x1="38.28531" y1="205.35818" x2="9.3459" y2="205.35818" style="fill:none;stroke:#b1b2b2;stroke-miterlimit:22.92558479309082;stroke-width:0.2160000056028366px"/><line x1="60.2856" y1="9.6077" x2="39.3432" y2="9.6077" style="fill:none;stroke:#b1b2b2;stroke-miterlimit:22.92558479309082;stroke-width:0.2160000056028366px"/><line x1="14.03551" y1="9.6077" x2="5.52481" y2="9.6077" style="fill:none;stroke:#b1b2b2;stroke-miterlimit:22.92558479309082;stroke-width:0.2160000056028366px"/><line x1="143.03569" y1="8.37778" x2="130.5341" y2="8.37778" style="fill:none;stroke:#b1b2b2;stroke-miterlimit:22.92558479309082;stroke-width:0.2160000056028366px"/><line x1="127.5356" y1="83.41989" x2="119.6907" y2="83.41989" style="fill:none;stroke:#b1b2b2;stroke-miterlimit:22.92558479309082;stroke-width:0.2160000056028366px"/><line x1="39.7854" y1="132.35809" x2="8.16011" y2="132.35809" style="fill:none;stroke:#b1b2b2;stroke-miterlimit:22.92558479309082;stroke-width:0.2160000056028366px"/><line x1="155.84599" y1="205.35818" x2="124.97481" y2="205.35818" style="fill:none;stroke:#b1b2b2;stroke-miterlimit:22.92558479309082;stroke-width:0.2160000056028366px"/><line x1="82.6331" y1="205.35818" x2="47.72441" y2="205.35818" style="fill:none;stroke:#b1b2b2;stroke-miterlimit:22.92558479309082;stroke-width:0.2160000056028366px"/><line x1="117.1364" y1="9.6077" x2="69.7247" y2="9.6077" style="fill:none;stroke:#b1b2b2;stroke-miterlimit:22.92558479309082;stroke-width:0.2160000056028366px"/><line x1="30.22301" y1="9.6077" x2="23.47461" y2="9.6077" style="fill:none;stroke:#b1b2b2;stroke-miterlimit:22.92558479309082;stroke-width:0.2160000056028366px"/><line x1="155.2697" y1="8.37778" x2="152.47481" y2="8.37778" style="fill:none;stroke:#b1b2b2;stroke-miterlimit:22.92558479309082;stroke-width:0.2160000056028366px"/><line x1="154.59682" y1="83.41989" x2="136.97472" y2="83.41989" style="fill:none;stroke:#b1b2b2;stroke-miterlimit:22.92558479309082;stroke-width:0.2160000056028366px"/><line x1="115.59601" y1="132.35809" x2="49.2245" y2="132.35809" style="fill:none;stroke:#b1b2b2;stroke-miterlimit:22.92558479309082;stroke-width:0.2160000056028366px"/><path d="M285.4783,276.1691l-.81891-.8331a1.00773,1.00773,0,0,0-.76648-.4025c-.40961,0-.66162.3149-.66162.8121a1.10115,1.10115,0,0,0,.3501.868l.1539-.1786a.83213.83213,0,0,1-.273-.6684c0-.3745.1749-.574.45837-.574.16812,0,.33252.0524.60541.3288l.99762,1.01851h.1785v-1.7184h-.22391Zm-1.22141,1.6449v.315l-.7807-.08389v-1.12h-.22391v1.3405l1.22852.1259v-.5213c0-.62309.19589-.81929.51111-.81929.2973,0,.50027.2206.50027.6373a1.06143,1.06143,0,0,1-.28348.7523l.19959.12239a1.264,1.264,0,0,0,.31491-.8784c0-.59839-.32541-.889-.74179-.889C284.54709,276.7955,284.2569,277.07559,284.2569,277.814Zm1.08139,1.19371a.18316.18316,0,0,0,.189.18539.17669.17669,0,0,0,.17828-.1259l.50769.11909v-.16809l-.483-.14711a.57364.57364,0,0,0-.203-.04909A.1832.1832,0,0,0,285.33829,279.00771Zm-1.0361,1.33339-.8714-.69279h-.1785v1.575h.22391v-1.253l.85071.67889h.18539v-.1749c0-.4552.19241-.66161.48639-.66161.30441,0,.4935.224.4935.6299a1.07437,1.07437,0,0,1-.28348.7597l.19959.12241a1.27432,1.27432,0,0,0,.31491-.88211c0-.59129-.31491-.8889-.72452-.8889C284.6066,279.5537,284.33029,279.8161,284.30219,280.3411Z" transform="translate(-131.7506 -103.73251)" style="fill:#434242"/><path d="M144.5094,203.4131c0,.434-.1891.68939-.4935.68939-.3011,0-.4901-.25539-.4901-.68939s.189-.6931.4901-.6931c.3044,0,.4935.25909.4935.6931m-1.624.6055c-.273,0-.4411-.2347-.4411-.6055,0-.36771.16809-.60921.44449-.60921.2662,0,.43771.2276.43771.60921C143.32651,203.7943,143.155,204.0186,142.88541,204.0186Zm.53209-1.078a.55507.55507,0,0,0-.5392-.39211c-.39879,0-.6474.34641-.6474.86461,0,.5179.24861.8575.6474.8575a.5531.5531,0,0,0,.5392-.3853.61093.61093,0,0,0,.60181.4726c.434,0,.70349-.3569.70349-.94479,0-.5845-.2695-.95219-.70349-.95219A.61686.61686,0,0,0,143.4175,202.9406Zm-.11569,2.5443-.87131-.69279h-.17859v1.575h.22389v-1.2529l.85071.67891h.18539v-.17491c0-.45529.1924-.66159.4864-.66159.3044,0,.4935.22389.4935.62979a1.07392,1.07392,0,0,1-.28351.7597l.1996.1225a1.27472,1.27472,0,0,0,.3149-.8822c0-.59129-.3149-.8889-.72449-.8889C143.60629,204.69749,143.3299,204.96,143.3018,205.48489Zm1.0361,1.4176a.18317.18317,0,0,0,.18909.18541.17672.17672,0,0,0,.17831-.12581l.5076.119V206.913l-.483-.14709a.57332.57332,0,0,0-.20291-.049A.18318.18318,0,0,0,144.33791,206.9025Zm-1.0361,1.3335-.87131-.69279h-.17859v1.57491h.22389v-1.2529l.85071.67889h.18539v-.1749c0-.45531.1924-.66161.4864-.66161.3044,0,.4935.22391.4935.62981a1.07392,1.07392,0,0,1-.28351.7597l.1996.1225a1.27472,1.27472,0,0,0,.3149-.8822c0-.59131-.3149-.8889-.72449-.8889C143.60629,207.4485,143.3299,207.711,143.3018,208.236Z" transform="translate(-131.7506 -103.73251)" style="fill:#434242"/><path d="M139.752,132.6745h.6826v-.2486h-.45869v-1.26l2.22609,1.008v-.273l-2.27139-1.0253h-.1786Zm2.25751,1.2319c0,.434-.1891.68939-.4935.68939-.301,0-.49011-.2554-.49011-.68939s.1891-.693.49011-.693C141.8204,133.21341,142.00951,133.4725,142.00951,133.9064Zm-1.624.6055c-.2729,0-.441-.23471-.441-.6055,0-.36761.16809-.6091.4444-.6091.2662,0,.4377.2276.4377.6091C140.8266,134.28769,140.65511,134.5119,140.3855,134.5119Zm.5321-1.078a.55494.55494,0,0,0-.53911-.392c-.3989,0-.64749.34641-.64749.8645,0,.51788.2486.85748.64749.85748a.553.553,0,0,0,.53911-.38519.61093.61093,0,0,0,.60179.4725c.434,0,.70361-.3569.70361-.94479,0-.5845-.26961-.95212-.70361-.95212A.61687.61687,0,0,0,140.9176,133.4339Zm.92039,1.98792a.18318.18318,0,0,0,.1891.18539.17667.17667,0,0,0,.1783-.12582l.50771.119v-.16809l-.48311-.14713a.57307.57307,0,0,0-.2029-.049A.18319.18319,0,0,0,141.838,135.42181Zm.14,1.8902-.81889-.8331a1.00766,1.00766,0,0,0-.76651-.40253c-.40959,0-.66159.31491-.66159.8121a1.10142,1.10142,0,0,0,.3501.868l.1539-.17859a.83223.83223,0,0,1-.273-.66843c0-.37448.1749-.574.45839-.574.16811,0,.3325.0524.6055.3288l.99751,1.01849h.17859v-1.71841h-.224Z" transform="translate(-131.7506 -103.73251)" style="fill:#434242"/><path d="M254.5067,200.31709v.31491l-.7807-.08391v-1.12h-.22389v1.3405l1.2285.1259v-.5213c0-.623.19589-.8192.51109-.8192.29739,0,.50031.2205.50031.63719a1.0612,1.0612,0,0,1-.2834.7523l.19949.1225a1.26443,1.26443,0,0,0,.31491-.87849c0-.5983-.32541-.8889-.74181-.8889-.4343,0-.7245.28011-.7245,1.01849m1.22141,2.3065-.81891-.8331a1.00771,1.00771,0,0,0-.76649-.4025c-.40961,0-.66161.3149-.66161.8121a1.101,1.101,0,0,0,.35011.868l.1539-.1786a.832.832,0,0,1-.273-.6684c0-.37441.1749-.574.4584-.574.16809,0,.3325.0524.6055.32881l.9975,1.01849h.1786V201.276h-.224Zm-.14.91a.18315.18315,0,0,0,.1891.1853.1767.1767,0,0,0,.1783-.12581l.5076.119V203.544l-.483-.14711a.57571.57571,0,0,0-.2029-.049A.18321.18321,0,0,0,255.5881,203.5336Zm-1.0361,1.3334-.87131-.69281h-.17859v1.57491h.22389v-1.2529l.85071.67889h.18539v-.1749c0-.4552.1925-.66161.4864-.66161.3044,0,.4935.22391.4935.62991a1.07409,1.07409,0,0,1-.2834.7596l.19949.1225a1.27464,1.27464,0,0,0,.31491-.8821c0-.59131-.31491-.889-.7245-.889C254.85651,204.0795,254.58009,204.342,254.552,204.867Z" transform="translate(-131.7506 -103.73251)" style="fill:#434242"/><path d="M285.9783,117.7742l-.81891-.8331a1.00772,1.00772,0,0,0-.76648-.4025c-.40961,0-.66162.31488-.66162.8121a1.101,1.101,0,0,0,.3501.868l.1539-.17859a.83215.83215,0,0,1-.273-.6684c0-.37451.1749-.574.45837-.574.16812,0,.33252.0524.60553.3288l.9975,1.01849h.17859v-1.71838h-.224Zm-1.22141,1.6449v.315l-.7807-.08389v-1.12h-.22391v1.34048l1.22852.12592v-.5213c0-.62311.19589-.81931.51111-.81931.29739,0,.50027.22058.50027.6373a1.06135,1.06135,0,0,1-.28339.75229l.19949.12241a1.264,1.264,0,0,0,.31491-.87839c0-.59842-.32541-.889-.74179-.889C285.04709,118.4006,284.7569,118.68069,284.7569,119.4191Zm1.08139,1.1937a.18316.18316,0,0,0,.18912.18539.17663.17663,0,0,0,.17828-.12589l.50772.11911v-.16812l-.48312-.14709a.573.573,0,0,0-.20288-.0491A.18324.18324,0,0,0,285.83829,120.61279Zm-2.086,1.60641h.22391v-.57742h2.2261v-.252h-2.45Z" transform="translate(-131.7506 -103.73251)" style="fill:#434242"/><path d="M282.255,154.24219c0,.37781-.2063.616-.52841.616a.53629.53629,0,0,1-.532-.59869c0-.42349.25568-.64749.525-.64749a.56715.56715,0,0,1,.5354.63019m-1.2739.0278a.76323.76323,0,0,0,.75259.83652.7416.7416,0,0,0,.7348-.826.7829.7829,0,0,0-.4198-.749c.07339-.007.1434-.01041.19949-.01041.665,0,1.0043.33951,1.0043.86792a.8593.8593,0,0,1-.1153.476l.20288.10141a1.12352,1.12352,0,0,0,.133-.58081c0-.665-.434-1.1199-1.26712-1.1199C281.43271,153.26569,280.98111,153.61911,280.98111,154.27Zm1.603.966v.49011h-.56689v.2449h.56689v1.06418l-1.582-1.2529v.27972l1.624,1.29858h.182v-1.38251h.644v-.252h-.644V155.236Zm.504,2.58661a.18317.18317,0,0,0,.18909.18539.1767.1767,0,0,0,.17831-.12579l.50769.119v-.16809l-.483-.14709a.5734.5734,0,0,0-.203-.049A.18319.18319,0,0,0,283.0881,157.8226Zm-2.086,1.60638h.22391v-.57739h2.22607v-.252h-2.45Z" transform="translate(-131.7506 -103.73251)" style="fill:#434242"/><line x1="152.7917" y1="178.97409" x2="152.7917" y2="209.57188" style="fill:none;stroke:#b1b2b2;stroke-miterlimit:22.92558479309082;stroke-width:0.2160000056028366px"/><line x1="11.79131" y1="106.72379" x2="11.79131" y2="135.78719" style="fill:none;stroke:#b1b2b2;stroke-miterlimit:22.92558479309082;stroke-width:0.2160000056028366px"/><line x1="9.29141" y1="35.22388" x2="9.29141" y2="61.59167" style="fill:none;stroke:#b1b2b2;stroke-miterlimit:22.92558479309082;stroke-width:0.2160000056028366px"/><line x1="123.0415" y1="103.47389" x2="123.0415" y2="133.06758" style="fill:none;stroke:#b1b2b2;stroke-miterlimit:22.92558479309082;stroke-width:0.2160000056028366px"/><line x1="153.2917" y1="20.22379" x2="153.2917" y2="33.84988" style="fill:none;stroke:#b1b2b2;stroke-miterlimit:22.92558479309082;stroke-width:0.2160000056028366px"/><line x1="150.54161" y1="57.22379" x2="150.54161" y2="66.48088" style="fill:none;stroke:#b1b2b2;stroke-miterlimit:22.92558479309082;stroke-width:0.2160000056028366px"/><line x1="152.7917" y1="139.35999" x2="152.7917" y2="169.53499" style="fill:none;stroke:#b1b2b2;stroke-miterlimit:22.92558479309082;stroke-width:0.2160000056028366px"/><line x1="11.79131" y1="70.66199" x2="11.79131" y2="97.28468" style="fill:none;stroke:#b1b2b2;stroke-miterlimit:22.92558479309082;stroke-width:0.2160000056028366px"/><line x1="9.29141" y1="6.03748" x2="9.29141" y2="25.78479" style="fill:none;stroke:#b1b2b2;stroke-miterlimit:22.92558479309082;stroke-width:0.2160000056028366px"/><line x1="123.0415" y1="69.34819" x2="123.0415" y2="94.03479" style="fill:none;stroke:#b1b2b2;stroke-miterlimit:22.92558479309082;stroke-width:0.2160000056028366px"/><line x1="153.2917" y1="5.72479" x2="153.2917" y2="10.7847" style="fill:none;stroke:#b1b2b2;stroke-miterlimit:22.92558479309082;stroke-width:0.2160000056028366px"/><line x1="150.54161" y1="37.72519" x2="150.54161" y2="47.7847" style="fill:none;stroke:#b1b2b2;stroke-miterlimit:22.92558479309082;stroke-width:0.2160000056028366px"/></svg>