<svg id="Слой_1" data-name="Слой 1" xmlns="http://www.w3.org/2000/svg" viewBox="0 0 146.24651 216.66561"><title>1.03.02</title><path d="M214.111,118.247V115.7038h-6.9599V118.247Zm0,4.33618v-2.5433h-6.9599v2.5433Zm-4.068,4.44162v-2.5433h-2.89191v2.5433Zm4.068,0v-2.5433H211.2191v2.5433Zm-9.67809-18.46942H217.1095v21.1915H204.43291Z" transform="translate(-139.4753 -104.26569)" style="fill:#003915;fill-rule:evenodd"/><path d="M273.63541,175.7314h2.5433v6.9599h-2.5433Zm-4.33612,0h2.54321v6.9599h-2.54321Zm-4.44159,4.068h2.54321v2.89191H264.8577Zm0-4.068h2.54321v2.89191H264.8577Zm-1.1611-2.27991h13.79251v10.493H263.69659Z" transform="translate(-139.4753 -104.26569)" style="fill:#003915;fill-rule:evenodd"/><path d="M207.0692,286.9413a.374.374,0,1,1-.3748.6474l-13.92009-8.0399a.374.374,0,0,1,.37479-.6474Z" transform="translate(-139.4753 -104.26569)" style="fill:#003915"/><path d="M235.9128,243.9287a.374.374,0,1,1-.37469.6474l-13.92011-8.0399a.374.374,0,1,1,.37471-.6474Z" transform="translate(-139.4753 -104.26569)" style="fill:#003915"/><path d="M207.0502,229.3354a.37408.37408,0,0,1-.64751-.3748l8.0399-13.92011a.37408.37408,0,0,1,.64751.3748Z" transform="translate(-139.4753 -104.26569)" style="fill:#003915"/><path d="M235.7388,209.9118a.37406.37406,0,0,1-.64751-.37471l8.0399-13.92009a.37405.37405,0,0,1,.64751.37469Z" transform="translate(-139.4753 -104.26569)" style="fill:#003915"/><path d="M235.7816,169.7049a.37405.37405,0,0,1-.64751-.37469l8.0399-13.92011a.37405.37405,0,0,1,.64751.37469Z" transform="translate(-139.4753 -104.26569)" style="fill:#003915"/><rect x="75.73331" y="33.80032" width="2.6022" height="41.75969" style="fill:#003915"/><rect x="75.73331" y="127.98251" width="2.6022" height="53.6432" style="fill:#003915"/><rect x="75.0334" y="104.98341" width="2.6022" height="6.1976" style="fill:#003915"/><rect x="103.5726" y="38.13531" width="2.6022" height="13.41049" style="fill:#003915"/><rect x="103.5726" y="66.44041" width="2.6022" height="25.1853" style="fill:#003915"/><rect x="103.5726" y="107.54111" width="2.6022" height="24.1239" style="fill:#003915"/><rect x="104.5157" y="68.67551" width="38.08371" height="2.6022" style="fill:#003915"/><rect x="104.5157" y="126.66301" width="38.08371" height="2.6022" style="fill:#003915"/><rect x="100.19571" y="129.84831" width="42.4037" height="2.6022" style="fill:#003915"/><rect x="76.5706" y="129.84831" width="5.62511" height="2.6022" style="fill:#003915"/><rect x="7.38321" y="104.98341" width="70.2524" height="2.6022" style="fill:#003915"/><rect x="141.24449" y="38.82562" width="5.00201" height="177.71129" style="fill:#003915"/><rect x="5.4967" width="76.3322" height="6.4256" style="fill:#003915"/><rect x="103.10291" y="35.8432" width="43.1436" height="6.4256" style="fill:#003915"/><rect x="75.4467" y="35.8432" width="8.189" height="6.4256" style="fill:#003915"/><rect x="75.40331" width="6.4256" height="40.05643" style="fill:#003915"/><rect x="1.22261" y="178.41341" width="32.3703" height="8.16011" style="fill:#003915"/><rect x="67.504" y="178.41341" width="10.50211" height="8.16011" style="fill:#003915"/><rect x="78.6725" y="208.50552" width="16.6031" height="8.1601" style="fill:#003915"/><rect x="124.32899" y="208.50552" width="21.91751" height="8.1601" style="fill:#003915"/><rect width="8.16011" height="21.47302" style="fill:#003915"/><rect y="50.20471" width="8.16011" height="166.4609" style="fill:#003915"/><rect x="75.73331" y="73.11151" width="8.1601" height="12.78419" style="fill:#003915"/><rect x="76.08931" y="171.54572" width="8.1601" height="45.1199" style="fill:#003915"/><rect x="108.936" y="211.50652" width="0.5018" height="2.2986" style="fill:#003915"/><rect x="110.13481" y="211.50652" width="0.50119" height="2.2986" style="fill:#003915"/><rect x="122.7719" y="211.50652" width="0.5015" height="2.2986" style="fill:#003915"/><rect x="123.97041" y="211.50652" width="0.50119" height="2.2986" style="fill:#003915"/><rect x="94.82431" y="211.50652" width="0.5018" height="2.2986" style="fill:#003915"/><rect x="96.0228" y="211.50652" width="0.50121" height="2.2986" style="fill:#003915"/><rect x="92.43471" y="208.50462" width="34.09369" height="0.5015" style="fill:#003915"/><rect x="92.43471" y="211.35172" width="34.09369" height="0.5015" style="fill:#003915"/><rect x="92.43471" y="213.52312" width="34.09369" height="0.5014" style="fill:#003915"/><rect x="92.43471" y="216.16412" width="34.09369" height="0.5015" style="fill:#003915"/><rect x="3.00191" y="36.00571" width="2.2986" height="0.50171" style="fill:#003915"/><rect x="3.00191" y="34.80753" width="2.2986" height="0.5011" style="fill:#003915"/><rect x="3.00191" y="22.17001" width="2.2986" height="0.5015" style="fill:#003915"/><rect x="3.00191" y="20.9718" width="2.2986" height="0.50122" style="fill:#003915"/><rect x="3.00191" y="50.1174" width="2.2986" height="0.50171" style="fill:#003915"/><rect x="3.00191" y="48.91953" width="2.2986" height="0.5011" style="fill:#003915"/><rect y="18.91501" width="0.50151" height="34.09372" style="fill:#003915"/><rect x="2.8472" y="18.91501" width="0.5014" height="34.09372" style="fill:#003915"/><rect x="5.01851" y="18.91501" width="0.50139" height="34.09372" style="fill:#003915"/><rect x="7.6595" y="18.91501" width="0.50151" height="34.09372" style="fill:#003915"/><path d="M188.0249,287.4915v-1.66991h.697v1.66991Zm-13.5692,0v-1.66991h13.0677v1.66991Zm-1.1982,0v-1.66991h.6971v1.66991Zm-.50171-1.66991v1.66991h-5.78951v.5015h21.7556v2.3456h-21.7556v.50151H189.2231v-8.161H166.96629v.50151h21.7556v2.1396H170.67v.50139Z" transform="translate(-139.4753 -104.26569)" style="fill:#003915;fill-rule:evenodd"/><rect x="21.3914" y="212.03691" width="0.44701" height="1.2971" style="fill:#003915"/><rect x="22.4595" y="212.03691" width="0.4467" height="1.2971" style="fill:#003915"/><rect x="39.9935" y="212.03691" width="0.44701" height="1.2971" style="fill:#003915"/><rect x="41.0616" y="212.03691" width="0.4467" height="1.2971" style="fill:#003915"/><rect x="58.59581" y="212.03691" width="0.4471" height="1.2971" style="fill:#003915"/><rect x="59.66391" y="212.03691" width="0.44679" height="1.2971" style="fill:#003915"/><rect x="77.19881" y="212.03691" width="0.44699" height="1.2971" style="fill:#003915"/><rect x="78.26691" y="212.03691" width="0.4467" height="1.2971" style="fill:#003915"/><rect x="2.789" y="212.03691" width="0.4471" height="1.2971" style="fill:#003915"/><rect x="3.8571" y="212.03691" width="0.44681" height="1.2971" style="fill:#003915"/><rect x="1.35611" y="210.80751" width="79.0056" height="0.4467" style="fill:#003915"/><rect x="1.35611" y="211.89881" width="79.0056" height="0.4468" style="fill:#003915"/><rect x="1.35611" y="212.97971" width="79.0056" height="0.4467" style="fill:#003915"/><path d="M280.65121,212.2226v-9.8223a.9053.9053,0,0,0-.904-.9054H275.1369a4.59567,4.59567,0,0,0-4.59091,4.5896v2.45219a4.59566,4.59566,0,0,0,4.59091,4.59041h4.61029a.90473.90473,0,0,0,.904-.90451m-9.86063-6.13809a4.351,4.351,0,0,1,4.34631-4.345h4.61029a.66145.66145,0,0,1,.65991.6608v9.8223a.66068.66068,0,0,1-.65991.6599H275.1369a4.3514,4.3514,0,0,1-4.34631-4.34579Z" transform="translate(-139.4753 -104.26569)" style="fill:#003915"/><path d="M271.8808,206.0847a3.25867,3.25867,0,0,1,3.2561-3.25439H277.825a.56783.56783,0,0,1,.56747.5672v3.57529h.24521v-3.57529a.814.814,0,0,0-.81268-.81241H275.1369a3.504,3.504,0,0,0-3.5007,3.4996v2.4523a3.50467,3.50467,0,0,0,3.5007,3.50079H277.825a.81447.81447,0,0,0,.81268-.8136v-3.5753h-.24521v3.5753a.56829.56829,0,0,1-.56747.56841H275.1369a3.25932,3.25932,0,0,1-3.2561-3.2556Z" transform="translate(-139.4753 -104.26569)" style="fill:#003915"/><path d="M275.4845,207.3116a.78349.78349,0,1,0-.78351.7838.7848.7848,0,0,0,.78351-.7838m-1.32239,0a.53874.53874,0,1,1,.53888.53909A.5397.5397,0,0,1,274.16211,207.3116Z" transform="translate(-139.4753 -104.26569)" style="fill:#003915"/><rect x="134.6678" y="102.92342" width="1.11661" height="0.2449" style="fill:#003915"/><rect x="135.1032" y="102.48752" width="0.24551" height="1.116" style="fill:#003915"/><path d="M279.4689,207.6489v.4037a.17372.17372,0,0,1-.1741.1729h-.3793a.17364.17364,0,0,1-.174-.1729v-.4037h-.24487v.4037a.41872.41872,0,0,0,.41888.41811h.3793a.4187.4187,0,0,0,.4187-.41811v-.4057l-.03741.002Zm-.72742-1.07719a.1744.1744,0,0,1,.174-.174h.3793a.17447.17447,0,0,1,.1741.174v.40109h.20718l.03741.0023v-.4034a.41854.41854,0,0,0-.4187-.41859h-.3793a.41856.41856,0,0,0-.41888.41859v.40109h.24487Z" transform="translate(-139.4753 -104.26569)" style="fill:#003915"/><path d="M280.13641,207.3116a.461.461,0,0,0-.46033-.4612H276.5957a.4605.4605,0,0,0,0,.921h3.08038a.46061.46061,0,0,0,.46033-.45979m-3.75671,0a.2167.2167,0,0,1,.216-.21629h3.08038a.21555.21555,0,0,1,0,.43109H276.5957A.216.216,0,0,1,276.3797,207.3116Z" transform="translate(-139.4753 -104.26569)" style="fill:#003915"/><path d="M258.02191,146.98459H248.1996a.9053.9053,0,0,0-.9054.904v4.61029a4.59577,4.59577,0,0,0,4.5896,4.591H254.336a4.59578,4.59578,0,0,0,4.59052-4.591v-4.61029a.90482.90482,0,0,0-.9046-.904m-6.13811,9.8606a4.351,4.351,0,0,1-4.345-4.34628v-4.61029a.66145.66145,0,0,1,.6608-.65991h9.82231a.66067.66067,0,0,1,.65988.65991v4.61029a4.3513,4.3513,0,0,1-4.34579,4.34628Z" transform="translate(-139.4753 -104.26569)" style="fill:#003915"/><path d="M251.88409,155.755a3.25872,3.25872,0,0,1-3.2545-3.2561v-2.68811a.56786.56786,0,0,1,.5672-.5675h3.57541v-.24518h-3.57541a.814.814,0,0,0-.81239.81268v2.68811a3.50407,3.50407,0,0,0,3.49969,3.50079h2.45221a3.5047,3.5047,0,0,0,3.50079-3.50079v-2.68811a.81446.81446,0,0,0-.81351-.81268H253.4482v.24518h3.57539a.56821.56821,0,0,1,.5683.5675v2.68811a3.25932,3.25932,0,0,1-3.25558,3.2561Z" transform="translate(-139.4753 -104.26569)" style="fill:#003915"/><path d="M253.1109,152.1514a.78345.78345,0,1,0,.7838.78351.78476.78476,0,0,0-.7838-.78351m0,1.3223a.5387.5387,0,1,1,.53909-.53879A.53968.53968,0,0,1,253.1109,153.47369Z" transform="translate(-139.4753 -104.26569)" style="fill:#003915"/><rect x="113.51311" y="48.11041" width="0.245" height="1.11661" style="fill:#003915"/><rect x="113.07721" y="48.54611" width="1.116" height="0.24551" style="fill:#003915"/><path d="M253.4482,148.167h.4037a.17364.17364,0,0,1,.1729.174v.3793a.17362.17362,0,0,1-.1729.174h-.4037v.245h.4037a.41876.41876,0,0,0,.41811-.419v-.3793a.4187.4187,0,0,0-.41811-.4187h-.4057l.002.03751Zm-1.0771.72729a.17439.17439,0,0,1-.17409-.174v-.3793a.17441.17441,0,0,1,.17409-.174h.40111v-.20718l.0022-.03751h-.4033a.41857.41857,0,0,0-.4187.4187v.3793a.41863.41863,0,0,0,.4187.419h.40111v-.245Z" transform="translate(-139.4753 -104.26569)" style="fill:#003915"/><path d="M253.1109,147.49939a.46106.46106,0,0,0-.4612.46042v3.08038a.4605.4605,0,0,0,.921,0v-3.08038a.46063.46063,0,0,0-.45979-.46042m0,3.75681a.21675.21675,0,0,1-.21629-.216v-3.08038a.2156.2156,0,0,1,.4312,0v3.08038A.21609.21609,0,0,1,253.1109,151.2562Z" transform="translate(-139.4753 -104.26569)" style="fill:#003915"/><path d="M266.652,189.33141a3.91688,3.91688,0,0,0,3.9129,3.9115h5.66537a.67732.67732,0,0,0,.63922-.456,1.24407,1.24407,0,0,0,.2049.20351.94569.94569,0,0,1-.84412.52159h-5.66537a4.18085,4.18085,0,1,1,0-8.36169h5.66537a.94553.94553,0,0,1,.84363.521,1.2406,1.2406,0,0,0-.20471.20331.67633.67633,0,0,0-.63892-.4556h-5.66537a3.91713,3.91713,0,0,0-3.9129,3.9124" transform="translate(-139.4753 -104.26569)" style="fill:#003915"/><path d="M275.14941,186.52769v5.6089a.20391.20391,0,0,1-.20151.2012h-4.27072a3.00655,3.00655,0,1,1,0-6.01309h4.27072a.20467.20467,0,0,1,.20151.203m-.26813,5.5414V186.5932h-4.2041a2.73795,2.73795,0,0,0,0,5.47589Z" transform="translate(-139.4753 -104.26569)" style="fill:#003915"/><path d="M272.41849,189.3317a1.00815,1.00815,0,1,1-1.008-1.00879,1.01,1.01,0,0,1,1.008,1.00879m-1.7475,0a.73941.73941,0,1,0,.7395-.73979A.74038.74038,0,0,0,270.671,189.3317Z" transform="translate(-139.4753 -104.26569)" style="fill:#003915"/><rect x="273.36043" y="189.832" width="0.26854" height="2.24224" transform="matrix(0.59781, -0.80164, 0.80164, 0.59781, -182.55358, 191.77783)" style="fill:#003915"/><rect x="272.37298" y="187.61921" width="2.24306" height="0.26919" transform="translate(-197.4435 97.02364) rotate(-36.80799)" style="fill:#003915"/><path d="M280.65121,186.63091v5.4005a1.3551,1.3551,0,0,1-1.35382,1.3524h-1.4743a1.3535,1.3535,0,0,1-1.35248-1.3524v-5.4005a1.3532,1.3532,0,0,1,1.35248-1.3519h1.4743a1.3548,1.3548,0,0,1,1.35382,1.3519m-3.91211,5.4005a1.08549,1.08549,0,0,0,1.084,1.08429h1.4743a1.086,1.086,0,0,0,1.08511-1.08429v-5.4005a1.086,1.086,0,0,0-1.08511-1.08371h-1.4743a1.08551,1.08551,0,0,0-1.084,1.08371Z" transform="translate(-139.4753 -104.26569)" style="fill:#003915"/><path d="M279.2489,189.3317a.6881.6881,0,1,1-.68741-.6882.68809.68809,0,0,1,.68741.6882m-1.10721,0a.41925.41925,0,1,0,.4198-.41949A.41945.41945,0,0,0,278.14169,189.3317Z" transform="translate(-139.4753 -104.26569)" style="fill:#003915"/><path d="M266.652,164.7522a3.91687,3.91687,0,0,0,3.9129,3.9115h5.66537a.67727.67727,0,0,0,.63922-.45609,1.24932,1.24932,0,0,0,.2049.20358.94559.94559,0,0,1-.84412.52151h-5.66537a4.1808,4.1808,0,1,1,0-8.3616h5.66537a.9455.9455,0,0,1,.84363.521,1.237,1.237,0,0,0-.20471.20331.67633.67633,0,0,0-.63892-.4556h-5.66537a3.91711,3.91711,0,0,0-3.9129,3.91238" transform="translate(-139.4753 -104.26569)" style="fill:#003915"/><path d="M275.14941,161.94849v5.60892a.20391.20391,0,0,1-.20151.2012h-4.27072a3.00655,3.00655,0,1,1,0-6.01309h4.27072a.20466.20466,0,0,1,.20151.203m-.26813,5.54141v-5.476h-4.2041a2.738,2.738,0,0,0,0,5.476Z" transform="translate(-139.4753 -104.26569)" style="fill:#003915"/><path d="M272.41849,164.7525a1.00815,1.00815,0,1,1-1.008-1.00891,1.01,1.01,0,0,1,1.008,1.00891m-1.7475,0a.73941.73941,0,1,0,.7395-.7399A.74038.74038,0,0,0,270.671,164.7525Z" transform="translate(-139.4753 -104.26569)" style="fill:#003915"/><rect x="273.36042" y="165.25278" width="0.26858" height="2.24226" transform="translate(-162.854 181.88222) rotate(-53.28491)" style="fill:#003915"/><rect x="272.37296" y="163.04" width="2.2431" height="0.26915" transform="translate(-182.71577 92.13752) rotate(-36.81049)" style="fill:#003915"/><path d="M280.65121,162.05161v5.4006a1.3551,1.3551,0,0,1-1.35382,1.35239h-1.4743a1.3535,1.3535,0,0,1-1.35248-1.35239v-5.4006a1.35318,1.35318,0,0,1,1.35248-1.35181h1.4743a1.35478,1.35478,0,0,1,1.35382,1.35181m-3.91211,5.4006a1.0855,1.0855,0,0,0,1.084,1.08429h1.4743a1.086,1.086,0,0,0,1.08511-1.08429v-5.4006a1.086,1.086,0,0,0-1.08511-1.08362h-1.4743a1.0855,1.0855,0,0,0-1.084,1.08362Z" transform="translate(-139.4753 -104.26569)" style="fill:#003915"/><path d="M279.2489,164.7525a.6881.6881,0,1,1-.68741-.68829.68808.68808,0,0,1,.68741.68829m-1.10721,0a.41925.41925,0,1,0,.4198-.41949A.41946.41946,0,0,0,278.14169,164.7525Z" transform="translate(-139.4753 -104.26569)" style="fill:#003915"/><path d="M246.1212,183.8019h0V175.9624h11.348v7.83949Zm-.3308-8.1709v8.5025h12.00989V175.631Z" transform="translate(-139.4753 -104.26569)" style="fill:#003915"/><path d="M248.5157,184.0264a.60429.60429,0,0,0,.59351.6125h5.37219a.604.604,0,0,0,.5939-.6125h-.3308a.26968.26968,0,0,1-.26311.2809h-5.37219a.26943.26943,0,0,1-.26271-.2809Z" transform="translate(-139.4753 -104.26569)" style="fill:#003915"/><path d="M250.77341,181.3998h0v-2.7077l1.5974-.6216a2.47369,2.47369,0,0,1-.0919,1.6747,4.1548,4.1548,0,0,0-.2412,1.24071,2.44929,2.44929,0,0,0,.1882.9366Zm-.33081-2.9341v3.16679l2.4801.89211-.22479-.39059a2.2662,2.2662,0,0,1-.32941-1.1481,3.89039,3.89039,0,0,1,.22681-1.14371,3.90069,3.90069,0,0,0,.2282-1.14409,2.018,2.018,0,0,0-.218-.91251l-.0675-.1358Z" transform="translate(-139.4753 -104.26569)" style="fill:#003915"/><path d="M278.5,216.2569H248.415a2.161,2.161,0,0,0-2.15149,2.1656v10.41139a2.161,2.161,0,0,0,2.15149,2.166H278.5a2.1609,2.1609,0,0,0,2.15121-2.166V218.4225A2.16094,2.16094,0,0,0,278.5,216.2569M248.415,230.77a1.93117,1.93117,0,0,1-1.92189-1.93611V218.4225a1.931,1.931,0,0,1,1.92189-1.9355H278.5a1.93139,1.93139,0,0,1,1.92209,1.9355v10.41139A1.93152,1.93152,0,0,1,278.5,230.77Z" transform="translate(-139.4753 -104.26569)" style="fill:#003915"/><path d="M251.4008,229.508a2.577,2.577,0,0,1-2.5654-2.58209v-6.5948a2.57667,2.57667,0,0,1,2.5654-2.5818H275.514a2.5771,2.5771,0,0,1,2.56589,2.5818v2.0619a.39649.39649,0,0,1,.22821-.142V220.3311a2.80639,2.80639,0,0,0-2.7941-2.8125H251.4008a2.80658,2.80658,0,0,0-2.7944,2.8125v6.5948a2.80654,2.80654,0,0,0,2.7944,2.8123H275.514a2.80635,2.80635,0,0,0,2.7941-2.8123v-1.9202a.39567.39567,0,0,1-.22821-.1414v2.0616A2.57747,2.57747,0,0,1,275.514,229.508Z" transform="translate(-139.4753 -104.26569)" style="fill:#003915"/><path d="M252.9482,228.1947a1.26659,1.26659,0,0,1-1.26109-1.2688v-6.5948a1.26627,1.26627,0,0,1,1.26109-1.2682H275.514a1.2662,1.2662,0,0,1,1.26138,1.2682V223.176h.2287V220.3311a1.4962,1.4962,0,0,0-1.49008-1.499H252.9482a1.49565,1.49565,0,0,0-1.4893,1.499v6.5948a1.49526,1.49526,0,0,0,1.4893,1.499H275.514a1.4958,1.4958,0,0,0,1.49008-1.499V224.0808h-.2287v2.84511a1.26652,1.26652,0,0,1-1.26138,1.2688Z" transform="translate(-139.4753 -104.26569)" style="fill:#003915"/><path d="M273.6088,222.8956a.73336.73336,0,1,0,.72992.7336.73144.73144,0,0,0-.72992-.7336m0,1.2365a.5033.5033,0,1,1,.50031-.5029A.50191.50191,0,0,1,273.6088,224.1321Z" transform="translate(-139.4753 -104.26569)" style="fill:#003915"/><rect x="134.0193" y="118.84021" width="0.22931" height="1.0457" style="fill:#003915"/><rect x="133.61501" y="119.24811" width="1.03781" height="0.2308" style="fill:#003915"/><path d="M278.1088,223.176v-.53749a.27982.27982,0,0,1,.27859-.2803h.50522a.28034.28034,0,0,1,.27921.2803v.53749h.2287v-.53749a.51033.51033,0,0,0-.5079-.51111h-.50522a.5097.5097,0,0,0-.50739.51111v.53749Zm.27859,1.722a.27984.27984,0,0,1-.27859-.28009v-.53711H277.88v.53711a.50923.50923,0,0,0,.50739.51079h.50522a.50987.50987,0,0,0,.5079-.51079v-.53711h-.2287v.53711a.28036.28036,0,0,1-.27921.28009Z" transform="translate(-139.4753 -104.26569)" style="fill:#003915"/><path d="M279.39859,223.06059h-3.2012a.56766.56766,0,0,0,0,1.1353h3.2012a.56766.56766,0,0,0,0-1.1353m-3.2012.90511a.3372.3372,0,0,1,0-.67439h3.2012a.3372.3372,0,0,1,0,.67439Z" transform="translate(-139.4753 -104.26569)" style="fill:#003915"/><path d="M200.1022,122.62939H188.333V110.8605H200.1022Zm-11.5197-.24948H199.853V111.10941H188.5825Z" transform="translate(-139.4753 -104.26569)" style="fill:#003915"/><path d="M194.2177,111.95859a3.91958,3.91958,0,0,0-.9816,7.7142.30011.30011,0,0,0-.0743.1976v.0405a4.16841,4.16841,0,1,1,2.1116.00031v-.0408a.29846.29846,0,0,0-.074-.1973,3.91975,3.91975,0,0,0-.9817-7.71451" transform="translate(-139.4753 -104.26569)" style="fill:#003915"/><path d="M194.2177,119.35931a3.48151,3.48151,0,1,1,3.48131-3.48181,3.48572,3.48572,0,0,1-3.48131,3.48181m0-6.7135a3.23189,3.23189,0,1,0,3.2318,3.23169A3.23537,3.23537,0,0,0,194.2177,112.64581Z" transform="translate(-139.4753 -104.26569)" style="fill:#003915"/><path d="M194.2177,116.78009a.9023.9023,0,1,1,.9026-.90259.90332.90332,0,0,1-.9026.90259m0-1.55569a.653.653,0,1,0,.65311.65311A.65424.65424,0,0,0,194.2177,115.2244Z" transform="translate(-139.4753 -104.26569)" style="fill:#003915"/><rect x="54.61771" y="10.95532" width="0.2495" height="1.3139" style="fill:#003915"/><rect x="54.0856" y="11.48743" width="1.3136" height="0.24969" style="fill:#003915"/><path d="M194.9715,120.6842H193.464a.427.427,0,0,1-.42661-.42661v-.38721a.42686.42686,0,0,1,.42661-.42661h1.50749a.42693.42693,0,0,1,.42661.42661v.38721a.42707.42707,0,0,1-.42661.42661m-1.50749-.991a.17763.17763,0,0,0-.1774.17718v.38721a.17745.17745,0,0,0,.1774.17722h1.50749a.17721.17721,0,0,0,.17711-.17722v-.38721a.17738.17738,0,0,0-.17711-.17718Z" transform="translate(-139.4753 -104.26569)" style="fill:#003915"/><path d="M193.9978,120.55951v.08649a.21965.21965,0,1,0,.4393,0v-.08649h.2498v.08649a.46945.46945,0,0,1-.9389,0v-.08649Zm.21989-2.59a.22039.22039,0,0,0-.21989.22049v1.37851h-.2498V118.19a.46945.46945,0,1,1,.9389,0v1.37851h-.2498V118.19A.21991.21991,0,0,0,194.2177,117.96951Z" transform="translate(-139.4753 -104.26569)" style="fill:#003915"/><path d="M171.43739,122.148h7.1566a1.49608,1.49608,0,0,0,1.4942-1.49472v-8.29868a1.496,1.496,0,0,0-1.4942-1.49411h-7.1566a1.49568,1.49568,0,0,0-1.49419,1.49411v8.29868a1.49576,1.49576,0,0,0,1.49419,1.49472m7.1566-11.0545a1.26256,1.26256,0,0,1,1.26111,1.26111v8.29868A1.26269,1.26269,0,0,1,178.594,121.915h-7.1566a1.26307,1.26307,0,0,1-1.26169-1.26172v-8.29868a1.26294,1.26294,0,0,1,1.26169-1.26111Z" transform="translate(-139.4753 -104.26569)" style="fill:#003915"/><path d="M171.43739,121.3291h7.1566a.67618.67618,0,0,0,.67581-.67581V113.6427a.67637.67637,0,0,0-.67581-.67581h-7.1566a.67656.67656,0,0,0-.67639.67581v7.01059a.67636.67636,0,0,0,.67639.67581m7.1566-8.12921a.44332.44332,0,0,1,.4431.44281v7.01059a.4435.4435,0,0,1-.4431.44312h-7.1566a.44387.44387,0,0,1-.44389-.44312V113.6427a.44368.44368,0,0,1,.44389-.44281Z" transform="translate(-139.4753 -104.26569)" style="fill:#003915"/><path d="M177.89391,112.54819a.4742.4742,0,1,0-.4743-.47418.47507.47507,0,0,0,.4743.47418m0-.71539a.2412.2412,0,1,1-.24161.24121A.24192.24192,0,0,1,177.89391,111.83279Z" transform="translate(-139.4753 -104.26569)" style="fill:#003915"/><path d="M176.29311,112.54819a.4742.4742,0,1,0-.47481-.47418.475.475,0,0,0,.47481.47418m0-.71539a.2412.2412,0,1,1-.24181.24121A.24162.24162,0,0,1,176.29311,111.83279Z" transform="translate(-139.4753 -104.26569)" style="fill:#003915"/><rect x="36.14571" y="14.68832" width="2.7196" height="0.2327" style="fill:#003915"/><rect x="37.38901" y="13.44562" width="0.2327" height="2.71948" style="fill:#003915"/><path d="M176.9808,119.96741a.8969.8969,0,1,0-.89661-.89691.89805.89805,0,0,0,.89661.89691m0-1.5611a.66429.66429,0,1,1-.66391.66418A.66554.66554,0,0,1,176.9808,118.40631Z" transform="translate(-139.4753 -104.26569)" style="fill:#003915"/><rect x="36.14571" y="10.84341" width="2.7196" height="0.23239" style="fill:#003915"/><rect x="37.38901" y="9.59982" width="0.2327" height="2.7204" style="fill:#003915"/><path d="M176.9808,116.123a.89714.89714,0,1,0-.89661-.8974.89867.89867,0,0,0,.89661.8974m0-1.56189a.66475.66475,0,1,1-.66391.66449A.66543.66543,0,0,1,176.9808,114.5611Z" transform="translate(-139.4753 -104.26569)" style="fill:#003915"/><rect x="32.21521" y="14.68832" width="2.7193" height="0.2327" style="fill:#003915"/><rect x="33.4579" y="13.44562" width="0.233" height="2.71948" style="fill:#003915"/><path d="M173.0497,119.96741a.8969.8969,0,1,0-.8968-.89691.89783.89783,0,0,0,.8968.89691m0-1.5611a.66429.66429,0,1,1-.6638.66418A.666.666,0,0,1,173.0497,118.40631Z" transform="translate(-139.4753 -104.26569)" style="fill:#003915"/><rect x="32.21521" y="10.84341" width="2.7193" height="0.23239" style="fill:#003915"/><rect x="33.4579" y="9.59982" width="0.233" height="2.7204" style="fill:#003915"/><path d="M173.0497,116.123a.89714.89714,0,1,0-.8968-.8974.89845.89845,0,0,0,.8968.8974m0-1.56189a.66475.66475,0,1,1-.6638.66449A.66588.66588,0,0,1,173.0497,114.5611Z" transform="translate(-139.4753 -104.26569)" style="fill:#003915"/><path d="M173.5795,112.54819a.4742.4742,0,1,0-.4745-.47418.47476.47476,0,0,0,.4745.47418m0-.71539a.2412.2412,0,1,1-.24179.24121A.24161.24161,0,0,1,173.5795,111.83279Z" transform="translate(-139.4753 -104.26569)" style="fill:#003915"/><path d="M171.978,112.54819a.4742.4742,0,1,0-.474-.47418.47463.47463,0,0,0,.474.47418m0-.71539a.2412.2412,0,1,1-.24159.24121A.24166.24166,0,0,1,171.978,111.83279Z" transform="translate(-139.4753 -104.26569)" style="fill:#003915"/><path d="M279.66129,176.7907a.80927.80927,0,1,0,.23471.57091.80975.80975,0,0,0-.23471-.57091m-.57257-1.03639a1.60705,1.60705,0,1,1-1.13641.4706A1.60259,1.60259,0,0,1,279.08871,175.7543Z" transform="translate(-139.4753 -104.26569)" style="fill:#003915"/><path d="M236.78281,144.01678a3.90785,3.90785,0,1,1-3.90761-3.9079,3.9081,3.9081,0,0,1,3.90761,3.9079" transform="translate(-139.4753 -104.26569)" style="fill:#558e42;fill-rule:evenodd"/><polygon points="93.4 42.155 93.778 40.84 94.157 39.525 93.4 39.525 92.643 39.525 93.021 40.84 93.4 42.155" style="fill:#fdfdfd;fill-rule:evenodd"/><rect x="93.1947" y="37.34702" width="0.38409" height="2.28131" style="fill:#fdfdfd"/><path d="M187.7119,144.487c-.7319,0-1.2359-.61789-1.2359-1.7399s.504-1.7399,1.2359-1.7399,1.2359.618,1.2359,1.7399-.504,1.7399-1.2359,1.7399m0,.396c.972,0,1.67979-.79788,1.67979-2.13589s-.70779-2.13589-1.67979-2.13589-1.6738.798-1.6738,2.13589S186.7399,144.883,187.7119,144.883Zm-3.97189-.396c-.7319,0-1.2359-.61789-1.2359-1.7399s.504-1.7399,1.2359-1.7399,1.2359.618,1.2359,1.7399S184.47189,144.487,183.74,144.487Zm0,.396c.972,0,1.67979-.79788,1.67979-2.13589s-.70779-2.13589-1.67979-2.13589-1.67381.798-1.67381,2.13589S182.768,144.883,183.74,144.883Zm-2.5497-.65988a.31414.31414,0,0,0-.31812.324.30325.30325,0,0,0,.216.30591l-.2041.8699h.288l.252-.828a.97549.97549,0,0,0,.0842-.34781A.314.314,0,0,0,181.19031,144.22311Zm-2.562-1.4281c-.648,0-1.05589-.354-1.05589-.90591a.919.919,0,0,1,1.02589-.9119c.72591,0,1.11.4379,1.11.9A.97208.97208,0,0,1,178.6283,142.795Zm-.0479-2.18381a1.30847,1.30847,0,0,0-1.434,1.28979,1.27147,1.27147,0,0,0,1.41591,1.26,1.34244,1.34244,0,0,0,1.2841-.72c.0119.1261.01779.246.01779.3421,0,1.1398-.58189,1.72208-1.4879,1.72208a1.47212,1.47212,0,0,1-.8158-.19818l-.174.34808a1.927,1.927,0,0,0,.99579.22791c1.14011,0,1.91991-.74411,1.91991-2.17191C180.3022,141.3851,179.6964,140.61121,178.5804,140.61121Zm-3.7321.036v.38382h.9902v3.816h.432v-4.1998Z" transform="translate(-139.4753 -104.26569)" style="fill:#6e6e6e;fill-rule:evenodd"/><path d="M187.592,253.0869c-.73189,0-1.2359-.618-1.2359-1.74s.504-1.7399,1.2359-1.7399,1.2359.618,1.2359,1.7399-.504,1.74-1.2359,1.74m0,.396c.972,0,1.67981-.798,1.67981-2.136S188.564,249.211,187.592,249.211s-1.6738.798-1.6738,2.13589S186.62,253.48289,187.592,253.48289Zm-3.97189-.396c-.7319,0-1.2359-.618-1.2359-1.74s.504-1.7399,1.2359-1.7399,1.2359.618,1.2359,1.7399S184.352,253.0869,183.6201,253.0869Zm0,.396c.972,0,1.67979-.798,1.67979-2.136s-.70779-2.13589-1.67979-2.13589-1.6738.798-1.6738,2.13589S182.6481,253.48289,183.6201,253.48289Zm-2.5497-.66a.31413.31413,0,0,0-.3181.324.30316.30316,0,0,0,.216.30591l-.2041.87h.288l.252-.828a.97644.97644,0,0,0,.0842-.3479A.314.314,0,0,0,181.0704,252.82291Zm-3.24.2399,1.4281-1.40381a1.72867,1.72867,0,0,0,.6899-1.3141c0-.70189-.54-1.1339-1.39209-1.1339a1.88713,1.88713,0,0,0-1.4879.5999l.30589.2641a1.42634,1.42634,0,0,1,1.146-.468c.64211,0,.9839.29991.9839.7861,0,.2877-.0898.56981-.5638,1.0378l-1.74609,1.71011v.30589h2.946v-.38409Zm-2.9821-3.81581v.38391h.9902v3.816h.432V249.247Z" transform="translate(-139.4753 -104.26569)" style="fill:#6e6e6e;fill-rule:evenodd"/><path d="M255.0302,275.425c-.7319,0-1.2359-.618-1.2359-1.7399s.504-1.7399,1.2359-1.7399,1.23592.61789,1.23592,1.7399-.504,1.7399-1.23592,1.7399m0,.396c.972,0,1.67979-.798,1.67979-2.13589s-.70779-2.13591-1.67979-2.13591-1.6738.79791-1.6738,2.13591S254.0582,275.821,255.0302,275.821Zm-3.9659-2.5141h-.54l.144-1.33791h1.91989v-.38379h-2.29779l-.216,2.10579h.8941c1.06779,0,1.40369.33591,1.40369.8759,0,.51-.3779.85811-1.09189.85811a1.82143,1.82143,0,0,1-1.2901-.4859l-.2097.3419a2.16858,2.16858,0,0,0,1.50569.54c1.0262,0,1.52391-.55791,1.52391-1.2719C252.8101,273.805,252.3302,273.3069,251.0643,273.3069Zm-2.04581,1.8542a.314.314,0,0,0-.318.324.303.303,0,0,0,.216.3058l-.2041.87h.288l.252-.828a.976.976,0,0,0,.0842-.34781A.314.314,0,0,0,249.01849,275.1611Zm-2.75409-3.5759v.38379h.9901v3.816h.432v-4.1998Zm-2.166,0v.38379h.99019v3.816h.432v-4.1998Z" transform="translate(-139.4753 -104.26569)" style="fill:#6e6e6e;fill-rule:evenodd"/><path d="M260.56461,165.828c-.7319,0-1.2359-.618-1.2359-1.74s.504-1.7399,1.2359-1.7399,1.2359.618,1.2359,1.7399-.504,1.74-1.2359,1.74m0,.396c.972,0,1.67978-.798,1.67978-2.136s-.70779-2.13593-1.67978-2.13593-1.67392.798-1.67392,2.13593S259.59259,166.224,260.56461,166.224Zm-3.63-2.43591,1.188-1.49408v-.30591h-2.7v.38391h2.148l-1.16388,1.4581v.318h.2999c.77991,0,1.13391.33,1.13391.834,0,.52191-.38382.84592-1.08.84592a1.841,1.841,0,0,1-1.3019-.4859l-.2101.34189a2.18494,2.18494,0,0,0,1.512.54c1.014,0,1.5239-.54,1.5239-1.24191C258.28439,164.31,257.83459,163.836,256.9346,163.78809Zm-2.4299,1.77591a.31414.31414,0,0,0-.3181.324.30317.30317,0,0,0,.216.30591l-.204.87h.288l.252-.828a.97814.97814,0,0,0,.08409-.3479A.314.314,0,0,0,254.5047,165.564Zm-3.24.2399,1.4281-1.40381a1.72863,1.72863,0,0,0,.68991-1.31409c0-.7019-.54-1.13391-1.39211-1.13391a1.88711,1.88711,0,0,0-1.4879.59991l.30589.2641a1.42634,1.42634,0,0,1,1.146-.468c.64209,0,.984.2999.984.78607,0,.28772-.0899.56982-.5639,1.03781l-1.74609,1.71011v.30588h2.946v-.38409Z" transform="translate(-139.4753 -104.26569)" style="fill:#6e6e6e;fill-rule:evenodd"/><path d="M261.0802,206.0278c-.7319,0-1.2359-.618-1.2359-1.7399s.504-1.7399,1.2359-1.7399,1.2359.61789,1.2359,1.7399-.504,1.7399-1.2359,1.7399m0,.396c.972,0,1.67981-.798,1.67981-2.13589s-.70782-2.13591-1.67981-2.13591-1.6738.79791-1.6738,2.13591S260.10818,206.4238,261.0802,206.4238Zm-5.20779-4.23579v1.1698h.42609v-.786h2.16l-1.728,3.816h.468l1.758-3.894v-.3058Zm-.7498,3.5759a.314.314,0,0,0-.318.324.3031.3031,0,0,0,.216.30579l-.2041.87h.288l.252-.828a.97639.97639,0,0,0,.0842-.34779A.314.314,0,0,0,255.1226,205.7639Zm-.8461-.864h-.8399v-.972h-.4198v.972h-1.8241l2.1481-2.7119h-.48021l-2.2258,2.78389v.31181h2.3698v1.1041h.432v-1.1041h.8399Z" transform="translate(-139.4753 -104.26569)" style="fill:#6e6e6e;fill-rule:evenodd"/><path d="M237.7162,183.4093c-.7319,0-1.2359-.618-1.2359-1.7399s.504-1.7399,1.2359-1.7399,1.2359.61789,1.2359,1.7399-.504,1.7399-1.2359,1.7399m0,.396c.972,0,1.67979-.798,1.67979-2.13589s-.70779-2.13591-1.67979-2.13591-1.6738.79791-1.6738,2.13591S236.7442,183.8053,237.7162,183.8053Zm-3.9659-2.5141h-.54l.144-1.33791h1.91991v-.38379h-2.29781l-.216,2.10579h.89409c1.06781,0,1.4037.33591,1.4037.8759,0,.51-.3779.85811-1.0919.85811a1.82146,1.82146,0,0,1-1.2901-.4859l-.20969.3419a2.16855,2.16855,0,0,0,1.50569.54c1.0262,0,1.5239-.55789,1.5239-1.2719C235.49609,181.78931,235.0162,181.2912,233.75031,181.2912Zm-2.04581,1.8542a.314.314,0,0,0-.318.324.303.303,0,0,0,.216.30579l-.20409.87h.288l.252-.828a.97606.97606,0,0,0,.0842-.34779A.314.314,0,0,0,231.7045,183.1454Zm-3.24.23979,1.4281-1.40369a1.72914,1.72914,0,0,0,.69-1.31421c0-.7018-.54-1.1338-1.39209-1.1338a1.88723,1.88723,0,0,0-1.4879.59981l.3058.26421a1.426,1.426,0,0,1,1.14609-.468c.642,0,.9839.2999.9839.786,0,.2877-.0899.56979-.5638,1.0378l-1.7462,1.7101v.30591h2.94611v-.38411Z" transform="translate(-139.4753 -104.26569)" style="fill:#6e6e6e;fill-rule:evenodd"/><path d="M185.3243,304.0869c-.73189,0-1.2359-.6179-1.2359-1.7399s.504-1.7399,1.2359-1.7399,1.2359.618,1.2359,1.7399-.504,1.7399-1.2359,1.7399m0,.396c.972,0,1.67981-.7979,1.67981-2.1359s-.70781-2.1359-1.67981-2.1359-1.6738.798-1.6738,2.1359S184.35229,304.4829,185.3243,304.4829Zm-3.90579-.36591c-.74411,0-1.1821-.324-1.1821-.8461,0-.516.438-.84,1.1821-.84.74379,0,1.188.324,1.188.84C182.60651,303.793,182.16229,304.117,181.4185,304.117Zm-1.0381-2.7839c0-.468.402-.756,1.0381-.756.62979,0,1.044.288,1.044.76189,0,.4561-.39009.7501-1.044.7501S180.3804,301.7951,180.3804,301.3331Zm1.8479.9119a.95119.95119,0,0,0,.6721-.92381c0-.684-.5941-1.1101-1.4819-1.1101-.88811,0-1.47011.4261-1.47011,1.1101a.94788.94788,0,0,0,.65991.92381,1.04821,1.04821,0,0,0-.80981,1.0321c0,.7438.612,1.2058,1.62,1.2058,1.002,0,1.6319-.462,1.6319-1.2058A1.05762,1.05762,0,0,0,182.2283,302.245Zm-3.40781,1.578a.31406.31406,0,0,0-.318.324.30311.30311,0,0,0,.216.30589l-.2041.87h.288l.252-.828a.97644.97644,0,0,0,.0842-.34789A.314.314,0,0,0,178.8205,303.823Zm-2.2861-1.7759,1.188-1.49409v-.3059h-2.7v.3838h2.1481l-1.16389,1.4582v.318h.2999c.7798,0,1.1338.33,1.1338.834,0,.5218-.3838.8458-1.08.8458a1.84105,1.84105,0,0,1-1.30191-.4858l-.2101.3418a2.18471,2.18471,0,0,0,1.512.54c1.014,0,1.5239-.54,1.5239-1.24181C177.8842,302.569,177.4344,302.095,176.53439,302.0471Z" transform="translate(-139.4753 -104.26569)" style="fill:#6e6e6e;fill-rule:evenodd"/><path d="M182.35809,312.177c-.37779,0-.61589-.2063-.61589-.5284a.5363.5363,0,0,1,.59869-.532c.4234,0,.6474.2557.6474.525a.56709.56709,0,0,1-.6302.5354m-.02769-1.2739a.76318.76318,0,0,0-.8365.7526.74161.74161,0,0,0,.826.7348.78277.78277,0,0,0,.7489-.4198c.0071.07339.0105.14339.0105.19949,0,.665-.3396,1.0043-.868,1.0043a.85881.85881,0,0,1-.47591-.1153l-.1015.2029a1.124,1.124,0,0,0,.58081.133c.665,0,1.12-.434,1.12-1.2671C183.3347,311.3547,182.9812,310.9031,182.3304,310.9031Zm-1.9041,1.071.69279-.8714v-.1786H179.5442v.2239h1.2529l-.67891.8507v.18539h.17491c.4552,0,.66159.1925.66159.4864,0,.3045-.22389.4935-.62979.4935a1.07412,1.07412,0,0,1-.7597-.2834l-.1225.1995a1.2748,1.2748,0,0,0,.8822.315c.59129,0,.8889-.315.8889-.72459C181.21381,312.2785,180.95129,312.0021,180.4263,311.9741Zm-1.4176,1.036a.18316.18316,0,0,0-.18539.18909.17676.17676,0,0,0,.1259.17831l-.11911.5077h.16811l.1472-.483a.57579.57579,0,0,0,.049-.203A.18321.18321,0,0,0,179.0087,313.0101Zm-1.3334-1.036.69281-.8714v-.1786H176.7932v.2239h1.2529l-.67889.8507v.18539h.1749c.4552,0,.66161.1925.66161.4864,0,.3045-.224.4935-.6299.4935a1.07431,1.07431,0,0,1-.7597-.2834l-.12241.1995a1.27456,1.27456,0,0,0,.88211.315c.59129,0,.889-.315.889-.72459C178.4628,312.2785,178.2003,312.0021,177.67529,311.9741Z" transform="translate(-139.4753 -104.26569)" style="fill:#434242"/><path d="M254.287,310.0389c-.4269,0-.7211-.3606-.7211-1.0149,0-.6545.2942-1.015.7211-1.015s.72079.3605.72079,1.015c0,.6543-.2939,1.0149-.72079,1.0149m0,.231c.56689,0,.9799-.4655.9799-1.2459,0-.7806-.413-1.2461-.9799-1.2461s-.9765.4655-.9765,1.2461C253.3105,309.8044,253.72009,310.2699,254.287,310.2699Zm-2.317-1.2181c-.3779,0-.616-.2063-.616-.5283a.53632.53632,0,0,1,.59869-.5321c.42351,0,.6474.2557.6474.525A.567.567,0,0,1,251.97,309.0518Zm-.0278-1.2739a.76324.76324,0,0,0-.8365.7526.7416.7416,0,0,0,.826.73479.78276.78276,0,0,0,.7489-.4198c.0071.0734.0105.1434.0105.1995,0,.665-.3396,1.0043-.868,1.0043a.85881.85881,0,0,1-.47591-.1153l-.1015.2029a1.124,1.124,0,0,0,.58081.133c.665,0,1.12-.434,1.12-1.2671C252.9465,308.2295,252.593,307.7779,251.9422,307.7779Zm-1.31281,2.107a.18314.18314,0,0,0-.18529.18909.17668.17668,0,0,0,.12579.1783l-.119.50771h.16811l.14709-.483a.57579.57579,0,0,0,.049-.203A.1832.1832,0,0,0,250.62939,309.8849Zm-1.89009.1401.8331-.819a1.0076,1.0076,0,0,0,.4025-.7665c0-.4096-.3149-.6616-.8121-.6616a1.10133,1.10133,0,0,0-.868.3501l.1786.1539a.83236.83236,0,0,1,.6684-.2729c.3745,0,.574.1749.574.4583,0,.1681-.0524.3325-.32881.6055l-1.01849.9975v.1786h1.7184v-.2239Z" transform="translate(-139.4753 -104.26569)" style="fill:#434242"/><path d="M181.82269,279.3065c-.434,0-.68939-.1891-.68939-.4935,0-.3011.2554-.4901.68939-.4901s.693.189.693.4901c0,.3044-.259.4935-.693.4935m-.6055-1.624c0-.273.23471-.4411.6055-.4411.36761,0,.6091.16811.6091.4445,0,.2662-.2276.4377-.6091.4377C181.44141,278.1236,181.21719,277.9521,181.21719,277.6825Zm1.078.5321a.555.555,0,0,0,.392-.5392c0-.3988-.3463-.6474-.8645-.6474-.5179,0-.8575.2486-.8575.6474a.553.553,0,0,0,.38521.5392.61086.61086,0,0,0-.4725.60181c0,.4339.3569.70349.94479.70349.5845,0,.9521-.26959.9521-.70349A.61678.61678,0,0,0,182.2952,278.2146Zm-2.5444-.11571.69281-.8714v-.1785H178.8687v.22391h1.2529l-.67889.85069v.18541h.1749c.45531,0,.66161.1924.66161.48639,0,.3044-.22391.4935-.62981.4935a1.07421,1.07421,0,0,1-.7597-.28349l-.1225.1996a1.27472,1.27472,0,0,0,.8822.3149c.59131,0,.8889-.3149.8889-.7245C180.5383,278.4034,180.2758,278.127,179.75079,278.09889Zm-1.41759,1.0361a.18316.18316,0,0,0-.18541.189.1767.1767,0,0,0,.1259.1783l-.11909.50769h.16809l.1472-.483a.57535.57535,0,0,0,.049-.203A.18319.18319,0,0,0,178.33321,279.135Zm-1.3334-1.0361.69279-.8714v-.1785h-1.57489v.22391h1.2529l-.67891.85069v.18541h.1749c.4552,0,.66161.1924.66161.48639,0,.3044-.22389.4935-.6299.4935a1.07454,1.07454,0,0,1-.7597-.28349l-.12239.1996a1.27463,1.27463,0,0,0,.8821.3149c.59129,0,.889-.3149.889-.7245C177.78729,278.4034,177.5248,278.127,176.9998,278.09889Z" transform="translate(-139.4753 -104.26569)" style="fill:#434242"/><path d="M262.35071,214.2885c-.42691,0-.7211-.3606-.7211-1.0148,0-.6545.29419-1.01509.7211-1.01509s.72089.3606.72089,1.01509c0,.65421-.294,1.0148-.72089,1.0148m0,.231c.56689,0,.97989-.46541.97989-1.2458,0-.7807-.413-1.24609-.97989-1.24609s-.9765.46539-.9765,1.24609C261.37421,214.05409,261.78381,214.5195,262.35071,214.5195Zm-2.2785-.21339c-.434,0-.68939-.1891-.68939-.4935,0-.3011.2554-.4902.68939-.4902s.69308.1891.69308.4902C260.76529,214.117,260.5062,214.30611,260.0722,214.30611Zm-.6055-1.624c0-.273.23468-.4411.6055-.4411.36771,0,.60919.16811.60919.4445,0,.2662-.2276.4377-.60919.4377C259.691,213.1232,259.46671,212.95171,259.46671,212.6821Zm1.07809.5321a.555.555,0,0,0,.392-.5392c0-.3988-.34641-.6474-.86459-.6474-.51791,0-.85751.2486-.85751.6474a.55312.55312,0,0,0,.38531.5392.61083.61083,0,0,0-.4726.60179c0,.4339.3569.70351.94479.70351.5845,0,.95221-.26961.95221-.70351A.61679.61679,0,0,0,260.5448,213.2142Zm-1.988.92039a.18315.18315,0,0,0-.18539.189.17665.17665,0,0,0,.12592.1783l-.11911.50771h.16809l.14709-.483a.5736.5736,0,0,0,.0491-.203A.18318.18318,0,0,0,258.55679,214.1346Zm-1.60638-2.086v.22391h.57739v2.226h.252V212.0486Z" transform="translate(-139.4753 -104.26569)" style="fill:#434242"/><path d="M232.4713,152.7883c-.4269,0-.72119-.3606-.72119-1.0148,0-.65451.2943-1.01511.72119-1.01511s.72079.3606.72079,1.01511c0,.65421-.2939,1.0148-.72079,1.0148m0,.231c.56689,0,.9799-.46539.9799-1.24579,0-.7807-.413-1.24609-.9799-1.24609s-.97659.46539-.97659,1.24609C231.49471,152.55389,231.9043,153.01929,232.4713,153.01929Zm-2.11749-1.421.69279-.8714v-.1785h-1.57491v.22391h1.2529l-.67889.85068v.18542h.1749c.4552,0,.66161.19238.66161.48639,0,.30441-.224.4935-.6299.4935a1.07438,1.07438,0,0,1-.7597-.28351l-.12241.19962a1.27431,1.27431,0,0,0,.88211.31488c.59129,0,.889-.31488.889-.72449C231.1413,151.9028,230.8788,151.6264,230.35381,151.5983Zm-1.4176,1.0361a.18318.18318,0,0,0-.18541.18909.17676.17676,0,0,0,.1259.17831l-.11909.5076h.16811l.14709-.483a.5739.5739,0,0,0,.0491-.20291A.1832.1832,0,0,0,228.9362,152.6344Zm-1.6064-2.086v.22391h.57739v2.226h.252V150.5484Z" transform="translate(-139.4753 -104.26569)" style="fill:#434242"/><path d="M181.84081,127.80569c-.42351,0-.64771-.2554-.64771-.525a.56722.56722,0,0,1,.6301-.5354c.3779,0,.616.2063.616.52841a.536.536,0,0,1-.59839.532m.021-1.2739a.78349.78349,0,0,0-.74921.4198c-.00679-.07339-.0105-.1434-.0105-.19949,0-.6647.3396-1.0043.868-1.0043a.86057.86057,0,0,1,.47621.1153l.1015-.20291a1.126,1.126,0,0,0-.5811-.133c-.665,0-1.12.434-1.12,1.26712,0,.77328.3535,1.22488,1.00461,1.22488a.7634.7634,0,0,0,.8365-.75259A.74175.74175,0,0,0,181.8618,126.5318Zm-2.317,1.2739c-.434,0-.68941-.18909-.68941-.4935,0-.301.2554-.49008.68941-.49008s.693.18909.693.49008C180.23779,127.61661,179.9787,127.80569,179.5448,127.80569Zm-.6055-1.6239c0-.273.2347-.4411.6055-.4411.3676,0,.6091.16812.6091.44452,0,.26608-.2276.43759-.6091.43759C179.1635,126.6228,178.9393,126.45129,178.9393,126.18179Zm1.078.532a.555.555,0,0,0,.392-.53909c0-.39893-.34641-.64752-.8645-.64752-.5179,0-.8575.2486-.8575.64752a.553.553,0,0,0,.38519.53909.611.611,0,0,0-.47249.60181c0,.434.35689.70358.94479.70358.5845,0,.9521-.26959.9521-.70358A.61688.61688,0,0,0,180.0173,126.71381Zm-1.9879.92038a.18318.18318,0,0,0-.18541.18912.17666.17666,0,0,0,.12581.17828l-.119.50772h.16811l.14709-.483a.57379.57379,0,0,0,.049-.203A.18321.18321,0,0,0,178.0294,127.63419Zm-1.8902.14011.8331-.819a1.00755,1.00755,0,0,0,.4025-.76648c0-.40961-.3149-.66162-.8121-.66162a1.10153,1.10153,0,0,0-.868.3501l.1786.1539a.83207.83207,0,0,1,.6684-.27289c.3745,0,.574.1749.574.45831,0,.16809-.05241.33249-.32881.6055l-1.01849.9975v.17859h1.7184v-.22391Z" transform="translate(-139.4753 -104.26569)" style="fill:#434242"/><line x1="35.92891" y1="207.94852" x2="8.16011" y2="207.94852" style="fill:none;stroke:#b1b2b2;stroke-miterlimit:22.92558479309082;stroke-width:0.2160000056028366px"/><line x1="107.6792" y1="204.82331" x2="84.2494" y2="204.82331" style="fill:none;stroke:#b1b2b2;stroke-miterlimit:22.92558479309082;stroke-width:0.2160000056028366px"/><line x1="35.30411" y1="174.07332" x2="8.16011" y2="174.07332" style="fill:none;stroke:#b1b2b2;stroke-miterlimit:22.92558479309082;stroke-width:0.2160000056028366px"/><line x1="116.0547" y1="109.07291" x2="106.1748" y2="109.07291" style="fill:none;stroke:#b1b2b2;stroke-miterlimit:22.92558479309082;stroke-width:0.2160000056028366px"/><line x1="86.3045" y1="47.57272" x2="79.55611" y2="47.57272" style="fill:none;stroke:#b1b2b2;stroke-miterlimit:22.92558479309082;stroke-width:0.2160000056028366px"/><line x1="35.0544" y1="22.5726" x2="8.16101" y2="22.5726" style="fill:none;stroke:#b1b2b2;stroke-miterlimit:22.92558479309082;stroke-width:0.2160000056028366px"/><line x1="76.08931" y1="207.94852" x2="45.36801" y2="207.94852" style="fill:none;stroke:#b1b2b2;stroke-miterlimit:22.92558479309082;stroke-width:0.2160000056028366px"/><line x1="141.24449" y1="204.82331" x2="117.11821" y2="204.82331" style="fill:none;stroke:#b1b2b2;stroke-miterlimit:22.92558479309082;stroke-width:0.2160000056028366px"/><line x1="75.73331" y1="174.07332" x2="44.74321" y2="174.07332" style="fill:none;stroke:#b1b2b2;stroke-miterlimit:22.92558479309082;stroke-width:0.2160000056028366px"/><line x1="141.24449" y1="109.07291" x2="125.49379" y2="109.07291" style="fill:none;stroke:#b1b2b2;stroke-miterlimit:22.92558479309082;stroke-width:0.2160000056028366px"/><line x1="102.492" y1="47.57272" x2="95.74361" y2="47.57272" style="fill:none;stroke:#b1b2b2;stroke-miterlimit:22.92558479309082;stroke-width:0.2160000056028366px"/><line x1="64.95761" y1="22.5726" x2="44.4935" y2="22.5726" style="fill:none;stroke:#b1b2b2;stroke-miterlimit:22.92558479309082;stroke-width:0.2160000056028366px"/><path d="M277.2218,272.51489l-.81891-.8331a1.00778,1.00778,0,0,0-.76648-.4025c-.40961,0-.66162.315-.66162.81221a1.10092,1.10092,0,0,0,.3501.86789l.1539-.1786a.832.832,0,0,1-.273-.6684c0-.37439.1749-.574.4584-.574.16809,0,.33249.05249.6055.3288l.9975,1.01849h.17859V271.1674h-.224Zm.03149,1.62741c0,.434-.18909.68939-.4935.68939-.30109,0-.49008-.2554-.49008-.68939s.189-.6931.49008-.6931C277.06421,273.4492,277.2533,273.7083,277.2533,274.1423Zm-1.624.6055c-.273,0-.441-.23471-.441-.6055,0-.3676.168-.6091.4444-.6091.2662,0,.43771.2276.43771.6091C276.0704,274.52361,275.8989,274.7478,275.6293,274.7478Zm.5321-1.078a.555.555,0,0,0-.53922-.392c-.3988,0-.6474.3463-.6474.8645,0,.5179.2486.8575.6474.8575a.553.553,0,0,0,.53922-.38521.611.611,0,0,0,.60181.4725c.434,0,.70349-.3569.70349-.94479,0-.5845-.2695-.9521-.70349-.9521A.61686.61686,0,0,0,276.16141,273.6698Zm.92038,1.9879a.18317.18317,0,0,0,.18912.18539.17663.17663,0,0,0,.17828-.1259l.50772.11911v-.16811l-.48312-.14709a.57377.57377,0,0,0-.20288-.0491A.18328.18328,0,0,0,277.08179,275.6577Zm-1.0361,1.3334-.87128-.69281h-.17862v1.575h.22391v-1.25291l.85071.67891h.18539v-.1749c0-.45531.1925-.66161.48639-.66161.30441,0,.4935.22391.4935.62981a1.07429,1.07429,0,0,1-.28339.75969l.19949.1225a1.27466,1.27466,0,0,0,.31491-.88219c0-.59131-.31491-.8889-.72452-.8889C276.35019,276.2037,276.07379,276.4662,276.04568,276.9911Z" transform="translate(-139.4753 -104.26569)" style="fill:#434242"/><path d="M247.50031,201.9184v.31491l-.7807-.08391v-1.12h-.22391v1.3405l1.2285.1259v-.5213c0-.623.19591-.8192.51111-.8192.29739,0,.50029.22049.50029.63719a1.0612,1.0612,0,0,1-.2834.7523l.19951.1225a1.26449,1.26449,0,0,0,.3149-.87849c0-.5984-.32539-.8889-.74181-.8889-.43419,0-.72449.28009-.72449,1.01849m1.2529,1.946c0,.4339-.1891.68941-.4935.68941-.3011,0-.4901-.25551-.4901-.68941s.189-.6931.4901-.6931C248.5641,203.1713,248.7532,203.4304,248.7532,203.8644Zm-1.624.60541c-.2729,0-.441-.23471-.441-.60541,0-.36769.16809-.60919.4444-.60919.2662,0,.4377.2276.4377.60919C247.5703,204.24561,247.3988,204.4698,247.1292,204.4698Zm.5321-1.078a.555.555,0,0,0-.5392-.392c-.3988,0-.6474.34641-.6474.86459,0,.5179.2486.85741.6474.85741a.553.553,0,0,0,.5392-.38521.611.611,0,0,0,.60181.47261c.434,0,.70349-.3569.70349-.94481,0-.5845-.2695-.95219-.70349-.95219A.61686.61686,0,0,0,247.6613,203.3918Zm.92039,1.988a.18323.18323,0,0,0,.1891.18539.17676.17676,0,0,0,.1783-.1259l.50771.119v-.168l-.48311-.1472a.57488.57488,0,0,0-.2029-.049A.18322.18322,0,0,0,248.5817,205.37981Zm.14,1.89009-.81889-.8331a1.00775,1.00775,0,0,0-.76649-.4025c-.40961,0-.66161.3149-.66161.8121a1.10135,1.10135,0,0,0,.3501.868l.1539-.1786a.832.832,0,0,1-.273-.6684c0-.3745.1749-.574.45839-.574.16811,0,.3325.0524.60551.3288l.9975,1.01851h.17859v-1.7184h-.224Z" transform="translate(-139.4753 -104.26569)" style="fill:#434242"/><path d="M264.57791,156.655v.4902H264.011v.2449h.56693v1.06409l-1.582-1.2529v.27982l1.6239,1.29849h.182v-1.38242h.6441v-.252h-.6441v-.4902Zm-.5321,3.2236-.87131-.69281h-.17859v1.57492h.22388v-1.2529l.85071.67889h.18539v-.1749c0-.4552.19241-.66162.48642-.66162.30438,0,.4935.224.4935.62991a1.074,1.074,0,0,1-.28351.7597l.19959.12241a1.27437,1.27437,0,0,0,.31491-.88211c0-.59131-.31491-.889-.72449-.889C264.35031,159.0911,264.07391,159.35361,264.04581,159.8786Zm1.0361,1.4176a.18317.18317,0,0,0,.18909.18539.17667.17667,0,0,0,.17831-.12589l.5076.11908v-.16809l-.483-.14709a.5737.5737,0,0,0-.20291-.0491A.1832.1832,0,0,0,265.08191,161.2962Zm-2.086,1.60638h.22388v-.57739h2.2261v-.252h-2.45Z" transform="translate(-139.4753 -104.26569)" style="fill:#434242"/><path d="M151.7502,250.59489v.31491l-.7807-.08391V249.706h-.22389v1.3405l1.2285.12581v-.5213c0-.623.19589-.8192.51109-.8192.29739,0,.50031.2206.50031.6373a1.06159,1.06159,0,0,1-.2834.7523l.19949.12239a1.26423,1.26423,0,0,0,.315-.8784c0-.59839-.3255-.889-.7419-.889-.4342,0-.7245.28011-.7245,1.01849m0,1.96361v.3149l-.7807-.08389v-1.12h-.22389V253.01l1.2285.1259v-.5213c0-.62309.19589-.8192.51109-.8192.29739,0,.50031.2205.50031.63721a1.0614,1.0614,0,0,1-.2834.7523l.19949.1225a1.26451,1.26451,0,0,0,.315-.87851c0-.59839-.3255-.8889-.7419-.8889C152.0405,251.54,151.7502,251.82,151.7502,252.5585Zm1.08141,1.1936a.18317.18317,0,0,0,.1891.18539.1767.1767,0,0,0,.1783-.12579l.50769.119v-.16809l-.483-.14711a.57372.57372,0,0,0-.203-.049A.18319.18319,0,0,0,152.8316,253.75211Zm-1.036,1.3335-.8714-.69279h-.17859v1.57489h.22389v-1.2529l.85071.67889h.18539v-.1749c0-.45529.1925-.66159.4864-.66159.30449,0,.4935.22389.4935.62979a1.07415,1.07415,0,0,1-.2834.7597l.19949.1225a1.27477,1.27477,0,0,0,.315-.8822c0-.59129-.315-.8889-.72459-.8889C152.1,254.2981,151.82359,254.56059,151.79559,255.0856Z" transform="translate(-139.4753 -104.26569)" style="fill:#434242"/><path d="M151.7502,301.8215v.3149l-.7807-.0839v-1.1199h-.22389v1.3405l1.2285.1258v-.5213c0-.623.19589-.8192.51109-.8192.29739,0,.50031.2205.50031.6372a1.06163,1.06163,0,0,1-.2834.7524l.19949.1224a1.26439,1.26439,0,0,0,.315-.8784c0-.5984-.3255-.889-.7419-.889-.4342,0-.7245.2801-.7245,1.0185m-1.00459,2.058h.22389v-.5775h2.2261v-.252h-2.45Zm2.086.3568a.18316.18316,0,0,0,.1891.1854.1767.1767,0,0,0,.1783-.1258l.50769.119v-.16811l-.483-.14709a.5736.5736,0,0,0-.203-.049A.18319.18319,0,0,0,152.8316,304.2363Zm-2.086,1.6064h.22389v-.5774h2.2261v-.252h-2.45Z" transform="translate(-139.4753 -104.26569)" style="fill:#434242"/><path d="M151.7502,160.0563v.315l-.7807-.08389v-1.12h-.22389v1.34052l1.2285.12589v-.5213c0-.62308.19589-.81927.51109-.81927.29739,0,.50031.22058.50031.6373a1.06136,1.06136,0,0,1-.2834.75229l.19949.12241a1.2641,1.2641,0,0,0,.315-.87842c0-.59839-.3255-.889-.7419-.889-.4342,0-.7245.28009-.7245,1.01849m.24831,1.98459c0,.37781-.2063.61591-.52841.61591a.53628.53628,0,0,1-.532-.5986c0-.42349.25571-.64749.525-.64749A.56709.56709,0,0,1,151.9985,162.04089Zm-1.27391.02771a.76328.76328,0,0,0,.75261.83661.7417.7417,0,0,0,.7348-.82611.78276.78276,0,0,0-.4198-.7489c.07339-.00711.14339-.0105.19949-.0105.665,0,1.0043.3396,1.0043.868a.85885.85885,0,0,1-.1153.47589l.2029.1015a1.12411,1.12411,0,0,0,.133-.58081c0-.665-.434-1.12-1.26711-1.12C151.17619,161.0643,150.72459,161.41779,150.72459,162.0686Zm2.107,1.31281a.18317.18317,0,0,0,.1891.18539.17677.17677,0,0,0,.1783-.12592l.50769.11911v-.16809l-.483-.14722a.576.576,0,0,0-.203-.049A.1832.1832,0,0,0,152.8316,163.38141Zm-.504.49319v.49008h-.56691v.2449h.56691v1.06421l-1.582-1.253v.27979l1.624,1.29861h.182V164.6167h.644v-.252h-.644v-.49008Z" transform="translate(-139.4753 -104.26569)" style="fill:#434242"/><line x1="136.8105" y1="174.93872" x2="136.8105" y2="208.50552" style="fill:none;stroke:#b1b2b2;stroke-miterlimit:22.92558479309082;stroke-width:0.2160000056028366px"/><line x1="108.31041" y1="104.68881" x2="108.31041" y2="126.50432" style="fill:none;stroke:#b1b2b2;stroke-miterlimit:22.92558479309082;stroke-width:0.2160000056028366px"/><line x1="124.81059" y1="60.1886" x2="124.81059" y2="66.93701" style="fill:none;stroke:#b1b2b2;stroke-miterlimit:22.92558479309082;stroke-width:0.2160000056028366px"/><line x1="12.56041" y1="153.18881" x2="12.56041" y2="178.41341" style="fill:none;stroke:#b1b2b2;stroke-miterlimit:22.92558479309082;stroke-width:0.2160000056028366px"/><line x1="12.56041" y1="203.68881" x2="12.56041" y2="210.43732" style="fill:none;stroke:#b1b2b2;stroke-miterlimit:22.92558479309082;stroke-width:0.2160000056028366px"/><line x1="12.56041" y1="62.93881" x2="12.56041" y2="104.98341" style="fill:none;stroke:#b1b2b2;stroke-miterlimit:22.92558479309082;stroke-width:0.2160000056028366px"/><line x1="136.8105" y1="132.45052" x2="136.8105" y2="165.49962" style="fill:none;stroke:#b1b2b2;stroke-miterlimit:22.92558479309082;stroke-width:0.2160000056028366px"/><line x1="108.31041" y1="71.69672" x2="108.31041" y2="95.24982" style="fill:none;stroke:#b1b2b2;stroke-miterlimit:22.92558479309082;stroke-width:0.2160000056028366px"/><line x1="124.81059" y1="44.0011" x2="124.81059" y2="50.74951" style="fill:none;stroke:#b1b2b2;stroke-miterlimit:22.92558479309082;stroke-width:0.2160000056028366px"/><line x1="12.56041" y1="107.58562" x2="12.56041" y2="143.74971" style="fill:none;stroke:#b1b2b2;stroke-miterlimit:22.92558479309082;stroke-width:0.2160000056028366px"/><line x1="12.56041" y1="187.50131" x2="12.56041" y2="194.24982" style="fill:none;stroke:#b1b2b2;stroke-miterlimit:22.92558479309082;stroke-width:0.2160000056028366px"/><line x1="12.56041" y1="7.06451" x2="12.56041" y2="53.49973" style="fill:none;stroke:#b1b2b2;stroke-miterlimit:22.92558479309082;stroke-width:0.2160000056028366px"/></svg>