<svg id="Слой_1" data-name="Слой 1" xmlns="http://www.w3.org/2000/svg" viewBox="0 0 146.5118 164.33041"><title>1.04.02</title><path d="M273.60571,279.9386h2.54318v6.82021h-2.54318Zm-4.44162,3.9283h2.54321v2.89191h-2.54321Zm0-3.9612h2.54321v2.89189h-2.54321Zm-1.14841-1.1483h9.08252v10.69879h-9.08252Z" transform="translate(-139.3427 -130.16669)" style="fill:#003915;fill-rule:evenodd"/><path d="M209.91029,283.5956v2.5432H207.0184v-2.5432Zm4.068,0v2.5432H211.0864v-2.5432Zm-9.678,6.21921h12.67651v-8.9413H204.30029Z" transform="translate(-139.3427 -130.16669)" style="fill:#003915;fill-rule:evenodd"/><path d="M209.5041,164.95889a.374.374,0,1,0-.37471-.64749l-13.92009,8.0399a.374.374,0,0,0,.37469.64749Z" transform="translate(-139.3427 -130.16669)" style="fill:#003915"/><path d="M235.5735,216.50771a.374.374,0,1,0-.37469-.6474l-13.92011,8.03989a.374.374,0,1,0,.37469.6474Z" transform="translate(-139.3427 -130.16669)" style="fill:#003915"/><path d="M243.22031,267.2536a.374.374,0,0,0,.6474-.3748l-8.0399-13.9201a.37408.37408,0,0,0-.64751.3748Z" transform="translate(-139.3427 -130.16669)" style="fill:#003915"/><path d="M217.182,244.0112a.37407.37407,0,0,0,.64749-.3748l-8.0399-13.92011a.37407.37407,0,0,0-.64749.3748Z" transform="translate(-139.3427 -130.16669)" style="fill:#003915"/><rect x="77.97141" y="28.3558" width="2.6022" height="67.6443" style="fill:#003915"/><rect x="75.7332" y="116.76021" width="2.6022" height="41.7597" style="fill:#003915"/><rect x="103.62671" y="135.84441" width="2.60219" height="22.67551" style="fill:#003915"/><rect x="77.97141" y="93.39792" width="4.6049" height="2.60219" style="fill:#003915"/><rect x="99.9147" y="93.39792" width="42.68471" height="2.60219" style="fill:#003915"/><rect x="143.08672" y="93.39792" width="3.42508" height="2.60219" style="fill:#003915"/><rect x="104.2327" y="96.73091" width="38.36671" height="2.6022" style="fill:#003915"/><rect x="144.4048" y="96.73091" width="2.10699" height="2.6022" style="fill:#003915"/><rect x="103.62671" y="94.78201" width="2.60219" height="25.617" style="fill:#003915"/><rect x="141.52791" y="9.63782" width="4.98389" height="147.68219" style="fill:#003915"/><rect x="5.4966" y="156.77431" width="78.6221" height="6.4256" style="fill:#003915"/><rect x="103.1028" y="156.77431" width="43.409" height="6.4256" style="fill:#003915"/><rect x="3.79021" y="30.89423" width="32.37019" height="8.16008" style="fill:#003915"/><rect x="70.07161" y="30.89423" width="10.502" height="8.16008" style="fill:#003915"/><rect x="78.67241" y="5.5199" width="16.60309" height="8.16013" style="fill:#003915"/><rect x="123.8936" y="5.5199" width="22.61819" height="8.16013" style="fill:#003915"/><rect width="8.16011" height="71.84412" style="fill:#003915"/><rect y="100.72432" width="8.16011" height="62.47559" style="fill:#003915"/><rect width="10.7957" height="36.48022" style="fill:#003915"/><rect x="72.4136" width="8.16" height="39.05431" style="fill:#003915"/><rect x="75.7332" y="113.68521" width="8.1601" height="12.78419" style="fill:#003915"/><rect x="72.4136" width="10.6219" height="13.68002" style="fill:#003915"/><rect x="108.936" y="8.52182" width="0.50169" height="2.29858" style="fill:#003915"/><rect x="110.1347" y="8.52182" width="0.50121" height="2.29858" style="fill:#003915"/><rect x="122.7719" y="8.52182" width="0.5014" height="2.29858" style="fill:#003915"/><rect x="123.97041" y="8.52182" width="0.5011" height="2.29858" style="fill:#003915"/><rect x="94.82431" y="8.52182" width="0.50169" height="2.29858" style="fill:#003915"/><rect x="96.02271" y="8.52182" width="0.50119" height="2.29858" style="fill:#003915"/><rect x="92.43471" y="5.5199" width="34.09369" height="0.5014" style="fill:#003915"/><rect x="92.43471" y="8.367" width="34.09369" height="0.5015" style="fill:#003915"/><rect x="92.43471" y="10.53842" width="34.09369" height="0.5014" style="fill:#003915"/><rect x="92.43471" y="13.17941" width="34.09369" height="0.5014" style="fill:#003915"/><rect x="3.00191" y="86.70981" width="2.2986" height="0.5018" style="fill:#003915"/><rect x="3.00191" y="85.51161" width="2.2986" height="0.50121" style="fill:#003915"/><rect x="3.00191" y="72.87421" width="2.2986" height="0.5014" style="fill:#003915"/><rect x="3.00191" y="71.67601" width="2.2986" height="0.50121" style="fill:#003915"/><rect x="3.00191" y="100.82152" width="2.2986" height="0.5018" style="fill:#003915"/><rect x="3.00191" y="99.62361" width="2.2986" height="0.50121" style="fill:#003915"/><rect y="69.61922" width="0.5014" height="34.09369" style="fill:#003915"/><rect x="2.84711" y="69.61922" width="0.50139" height="34.09369" style="fill:#003915"/><rect x="5.0184" y="69.61922" width="0.5015" height="34.09369" style="fill:#003915"/><rect x="7.6595" y="69.61922" width="0.5014" height="34.09369" style="fill:#003915"/><path d="M190.45979,164.4086v1.66989h.69711V164.4086Zm-13.56909,0v1.66989h13.0677V164.4086Zm-1.1982,0v1.66989h.697V164.4086Zm-.5018,1.66989V164.4086h-5.7894v-.5014h21.7556v-2.3457h-21.7556v-.5014H191.658v8.1609h-22.2567v-.50139h21.7556V166.58H173.105v-.5015Z" transform="translate(-139.3427 -130.16669)" style="fill:#003915;fill-rule:evenodd"/><rect x="21.3913" y="3.84012" width="0.44711" height="1.29709" style="fill:#003915"/><rect x="22.4594" y="3.84012" width="0.44681" height="1.29709" style="fill:#003915"/><rect x="39.99341" y="3.84012" width="0.44699" height="1.29709" style="fill:#003915"/><rect x="41.06151" y="3.84012" width="0.44679" height="1.29709" style="fill:#003915"/><rect x="58.59581" y="3.84012" width="0.44699" height="1.29709" style="fill:#003915"/><rect x="59.66391" y="3.84012" width="0.44669" height="1.29709" style="fill:#003915"/><rect x="77.1987" y="3.84012" width="0.44701" height="1.29709" style="fill:#003915"/><rect x="78.2668" y="3.84012" width="0.44681" height="1.29709" style="fill:#003915"/><rect x="2.789" y="3.84012" width="0.44701" height="1.29709" style="fill:#003915"/><rect x="3.8571" y="3.84012" width="0.4467" height="1.29709" style="fill:#003915"/><rect x="1.35611" y="2.61072" width="79.00549" height="0.44669" style="fill:#003915"/><rect x="1.35611" y="3.70203" width="79.00549" height="0.44678" style="fill:#003915"/><rect x="1.35611" y="4.7829" width="79.00549" height="0.44672" style="fill:#003915"/><path d="M280.68259,257.368v-9.8223a.90519.90519,0,0,0-.9039-.9054H275.1684a4.59577,4.59577,0,0,0-4.591,4.5896v2.45219a4.59576,4.59576,0,0,0,4.591,4.5905h4.61029a.9047.9047,0,0,0,.9039-.9046m-9.8606-6.13809a4.35112,4.35112,0,0,1,4.3464-4.345h4.61029a.66145.66145,0,0,1,.65991.6608v9.8223a.66068.66068,0,0,1-.65991.6599H275.1684a4.35142,4.35142,0,0,1-4.3464-4.34579Z" transform="translate(-139.3427 -130.16669)" style="fill:#003915"/><path d="M271.91229,251.23019a3.25872,3.25872,0,0,1,3.2561-3.2545h2.68811a.56792.56792,0,0,1,.5675.5672v3.57541h.24518v-3.57541a.814.814,0,0,0-.81268-.81239H275.1684a3.50407,3.50407,0,0,0-3.50079,3.49969v2.45221a3.50469,3.50469,0,0,0,3.50079,3.50079h2.68811a.81445.81445,0,0,0,.81268-.81349V252.7943H278.424v3.57541a.56828.56828,0,0,1-.5675.5683H275.1684a3.25934,3.25934,0,0,1-3.2561-3.2556Z" transform="translate(-139.3427 -130.16669)" style="fill:#003915"/><path d="M275.5159,252.457a.78349.78349,0,1,0-.78351.7838.78474.78474,0,0,0,.78351-.7838m-1.3223,0a.5387.5387,0,1,1,.53879.53909A.53968.53968,0,0,1,274.1936,252.457Z" transform="translate(-139.3427 -130.16669)" style="fill:#003915"/><rect x="134.83189" y="122.16782" width="1.11652" height="0.245" style="fill:#003915"/><rect x="135.26729" y="121.73192" width="0.24551" height="1.116" style="fill:#003915"/><path d="M279.50031,252.7943v.4037a.17364.17364,0,0,1-.174.1729h-.3793a.17372.17372,0,0,1-.1741-.1729v-.4037H278.528v.4037a.41874.41874,0,0,0,.419.41811h.3793a.41862.41862,0,0,0,.41861-.41811v-.4057l-.03741.002Zm-.72742-1.0771a.17448.17448,0,0,1,.1741-.17409h.3793a.1744.1744,0,0,1,.174.17409v.40111h.20718l.03741.0022v-.40331a.41849.41849,0,0,0-.41861-.4187h-.3793a.41861.41861,0,0,0-.419.4187v.40111h.24487Z" transform="translate(-139.3427 -130.16669)" style="fill:#003915"/><path d="M280.16791,252.457a.46106.46106,0,0,0-.46042-.4612h-3.08038a.4605.4605,0,0,0,0,.921h3.08038a.46063.46063,0,0,0,.46042-.45979m-3.75681,0a.21677.21677,0,0,1,.216-.21631h3.08038a.21561.21561,0,0,1,0,.43121h-3.08038A.21609.21609,0,0,1,276.4111,252.457Z" transform="translate(-139.3427 -130.16669)" style="fill:#003915"/><path d="M266.6835,271.2428a3.917,3.917,0,0,1,3.9129-3.91161h5.66528a.67725.67725,0,0,1,.63922.4561,1.241,1.241,0,0,1,.205-.20349.94584.94584,0,0,0-.84421-.52161h-5.66528a4.18085,4.18085,0,1,0,0,8.36171h5.66528a.94542.94542,0,0,0,.8436-.521,1.24273,1.24273,0,0,1-.20459-.20329.67642.67642,0,0,1-.639.45551h-5.66528a3.91706,3.91706,0,0,1-3.9129-3.91231" transform="translate(-139.3427 -130.16669)" style="fill:#003915"/><path d="M275.18091,274.04649v-5.60889a.204.204,0,0,0-.2016-.20131h-4.2706a3.0066,3.0066,0,1,0,0,6.0132h4.2706a.20469.20469,0,0,0,.2016-.203m-.26822-5.5414V273.981h-4.204a2.738,2.738,0,0,1,0-5.47591Z" transform="translate(-139.3427 -130.16669)" style="fill:#003915"/><path d="M272.45,271.24249a1.00816,1.00816,0,1,0-1.008,1.0088,1.01007,1.01007,0,0,0,1.008-1.0088m-1.74762,0a.73946.73946,0,1,1,.73959.73981A.74039.74039,0,0,1,270.70239,271.24249Z" transform="translate(-139.3427 -130.16669)" style="fill:#003915"/><rect x="272.40507" y="269.48678" width="2.24222" height="0.26853" transform="translate(-246.29258 87.0135) rotate(-36.74045)" style="fill:#003915"/><rect x="273.39134" y="271.69889" width="0.26917" height="2.24298" transform="translate(-248.13065 198.18286) rotate(-53.19014)" style="fill:#003915"/><path d="M280.68259,273.9433v-5.4005a1.35511,1.35511,0,0,0-1.35379-1.35251h-1.4743a1.35358,1.35358,0,0,0-1.35239,1.35251v5.4005a1.35325,1.35325,0,0,0,1.35239,1.3519h1.4743a1.35479,1.35479,0,0,0,1.35379-1.3519m-3.912-5.4005a1.08542,1.08542,0,0,1,1.08389-1.0843h1.4743a1.08589,1.08589,0,0,1,1.08511,1.0843v5.4005a1.086,1.086,0,0,1-1.08511,1.08369h-1.4743a1.08548,1.08548,0,0,1-1.08389-1.08369Z" transform="translate(-139.3427 -130.16669)" style="fill:#003915"/><path d="M279.2803,271.24249a.6881.6881,0,1,0-.68741.6882.6881.6881,0,0,0,.68741-.6882m-1.10721,0a.41925.41925,0,1,1,.4198.41951A.41951.41951,0,0,1,278.1731,271.24249Z" transform="translate(-139.3427 -130.16669)" style="fill:#003915"/><path d="M245.9886,278.5034h0v7.83949h11.34789V278.5034Zm-.3308,8.1709v-8.5025h12.0098v8.5025Z" transform="translate(-139.3427 -130.16669)" style="fill:#003915"/><path d="M248.383,278.2789a.6044.6044,0,0,1,.5936-.61259h5.37221a.604.604,0,0,1,.5938.61259h-.3308a.26967.26967,0,0,0-.263-.2809h-5.37221a.26949.26949,0,0,0-.26279.2809Z" transform="translate(-139.3427 -130.16669)" style="fill:#003915"/><path d="M250.64079,280.9055h0v2.7077l1.59731.6216a2.47409,2.47409,0,0,0-.0918-1.6747,4.15149,4.15149,0,0,1-.2413-1.24071,2.44743,2.44743,0,0,1,.18831-.9366Zm-.3308,2.9341v-3.16679l2.48-.89211-.22479.39059a2.26726,2.26726,0,0,0-.32941,1.1481,3.89039,3.89039,0,0,0,.22681,1.14371,3.89734,3.89734,0,0,1,.2282,1.14409,2.01662,2.01662,0,0,1-.218.91251l-.0674.1358Z" transform="translate(-139.3427 -130.16669)" style="fill:#003915"/><path d="M278.5314,244.31731H248.4465a2.161,2.161,0,0,1-2.1515-2.16571V231.7403a2.161,2.161,0,0,1,2.1515-2.166h30.0849a2.16089,2.16089,0,0,1,2.15118,2.166v10.4113a2.161,2.161,0,0,1-2.15118,2.16571M248.4465,229.8042a1.9311,1.9311,0,0,0-1.92191,1.9361v10.4113a1.931,1.931,0,0,0,1.92191,1.9355h30.0849a1.93143,1.93143,0,0,0,1.92221-1.9355V231.7403a1.93156,1.93156,0,0,0-1.92221-1.9361Z" transform="translate(-139.3427 -130.16669)" style="fill:#003915"/><path d="M251.43221,231.06619a2.577,2.577,0,0,0-2.56531,2.58211v6.5948a2.57659,2.57659,0,0,0,2.56531,2.5818h24.1132a2.5771,2.5771,0,0,0,2.56589-2.5818v-2.0619a.39675.39675,0,0,0,.22821.142v1.91991a2.80639,2.80639,0,0,1-2.7941,2.8125h-24.1132a2.80664,2.80664,0,0,1-2.7944-2.8125v-6.5948a2.8066,2.8066,0,0,1,2.7944-2.8123h24.1132a2.80635,2.80635,0,0,1,2.7941,2.8123v1.9202a.39534.39534,0,0,0-.22821.1414v-2.0616a2.57749,2.57749,0,0,0-2.56589-2.58211Z" transform="translate(-139.3427 -130.16669)" style="fill:#003915"/><path d="M252.97971,232.3795a1.26666,1.26666,0,0,0-1.2612,1.2688v6.5948a1.26635,1.26635,0,0,0,1.2612,1.2682h22.5657a1.26612,1.26612,0,0,0,1.26138-1.2682v-2.84491h.22882v2.84491a1.49615,1.49615,0,0,1-1.4902,1.4989h-22.5657a1.49565,1.49565,0,0,1-1.48941-1.4989v-6.5948a1.49536,1.49536,0,0,1,1.48941-1.499h22.5657a1.49586,1.49586,0,0,1,1.4902,1.499v2.84509h-.22882V233.6483a1.26644,1.26644,0,0,0-1.26138-1.2688Z" transform="translate(-139.3427 -130.16669)" style="fill:#003915"/><path d="M273.64029,237.6786a.73336.73336,0,1,1,.72992-.73361.7316.7316,0,0,1-.72992.73361m0-1.23651a.50331.50331,0,1,0,.50031.5029A.50184.50184,0,0,0,273.64029,236.44209Z" transform="translate(-139.3427 -130.16669)" style="fill:#003915"/><rect x="134.1833" y="106.25581" width="0.22931" height="1.0457" style="fill:#003915"/><rect x="133.7791" y="106.66292" width="1.03781" height="0.2307" style="fill:#003915"/><path d="M278.14029,237.39819v.53751a.27983.27983,0,0,0,.27863.2803h.5051a.28026.28026,0,0,0,.27917-.2803v-.53751h.22882v.53751a.51035.51035,0,0,1-.508.51109h-.5051a.50972.50972,0,0,1-.50742-.51109v-.53751Zm.27863-1.722a.27977.27977,0,0,0-.27863.28v.5372h-.22879v-.5372a.50933.50933,0,0,1,.50742-.51079h.5051a.51.51,0,0,1,.508.51079v.5372h-.22882v-.5372a.2802.2802,0,0,0-.27917-.28Z" transform="translate(-139.3427 -130.16669)" style="fill:#003915"/><path d="M279.43,237.5136h-3.20108a.56766.56766,0,0,1,0-1.1353H279.43a.56766.56766,0,0,1,0,1.1353m-3.20108-.90509a.3372.3372,0,0,0,0,.67439H279.43a.3372.3372,0,0,0,0-.67439Z" transform="translate(-139.3427 -130.16669)" style="fill:#003915"/><path d="M279.96939,211.5358h-11.7691v11.7688h11.7691Zm-11.51968.2494h11.2706v11.2706h-11.2706Z" transform="translate(-139.3427 -130.16669)" style="fill:#003915"/><path d="M274.085,222.2065a3.91956,3.91956,0,0,1-.9816-7.7142.3.3,0,0,1-.07428-.1976v-.0405a4.1685,4.1685,0,1,0,2.11148-.00029v.04079a.29782.29782,0,0,1-.074.19731,3.91973,3.91973,0,0,1-.9816,7.71449" transform="translate(-139.3427 -130.16669)" style="fill:#003915"/><path d="M274.085,214.8058a3.4815,3.4815,0,1,0,3.4812,3.4818,3.48578,3.48578,0,0,0-3.4812-3.4818m0,6.71359a3.23195,3.23195,0,1,1,3.23181-3.2318A3.23541,3.23541,0,0,1,274.085,221.51939Z" transform="translate(-139.3427 -130.16669)" style="fill:#003915"/><path d="M274.085,217.3851a.90225.90225,0,1,0,.90262.9025.90332.90332,0,0,0-.90262-.9025m0,1.5556a.653.653,0,1,1,.65311-.65311A.65425.65425,0,0,1,274.085,218.9407Z" transform="translate(-139.3427 -130.16669)" style="fill:#003915"/><rect x="134.6176" y="87.46361" width="0.24939" height="1.3138" style="fill:#003915"/><rect x="134.08549" y="87.99561" width="1.3136" height="0.24971" style="fill:#003915"/><path d="M274.83871,213.4809H273.3313a.427.427,0,0,0-.42661.42661v.38719a.42681.42681,0,0,0,.42661.42661h1.50742a.42688.42688,0,0,0,.4267-.42661v-.38719a.42708.42708,0,0,0-.4267-.42661m-1.50742.991a.17772.17772,0,0,1-.17749-.1772v-.38719a.17752.17752,0,0,1,.17749-.1772h1.50742a.17728.17728,0,0,1,.17719.1772v.38719a.17747.17747,0,0,1-.17719.1772Z" transform="translate(-139.3427 -130.16669)" style="fill:#003915"/><path d="M273.865,213.60561v-.08641a.21971.21971,0,0,1,.43942,0v.08641h.24969v-.08641a.46941.46941,0,0,0-.93881,0v.08641Zm.22,2.59a.22052.22052,0,0,1-.22-.2205V214.5966h-.24969v1.37849a.46941.46941,0,1,0,.93881,0V214.5966h-.24969v1.37849A.22.22,0,0,1,274.085,216.1956Z" transform="translate(-139.3427 -130.16669)" style="fill:#003915"/><path d="M251.3047,212.01711h7.1566a1.49612,1.49612,0,0,1,1.49411,1.49469v8.29871a1.49593,1.49593,0,0,1-1.49411,1.49409h-7.1566a1.49556,1.49556,0,0,1-1.4942-1.49409V213.5118a1.49574,1.49574,0,0,1,1.4942-1.49469m7.1566,11.05449a1.26264,1.26264,0,0,0,1.26111-1.26109V213.5118a1.26276,1.26276,0,0,0-1.26111-1.26169h-7.1566a1.263,1.263,0,0,0-1.2617,1.26169v8.29871a1.26287,1.26287,0,0,0,1.2617,1.26109Z" transform="translate(-139.3427 -130.16669)" style="fill:#003915"/><path d="M251.3047,212.836h7.1566a.67627.67627,0,0,1,.67578.6758v7.0106a.67639.67639,0,0,1-.67578.6758h-7.1566a.67649.67649,0,0,1-.67641-.6758v-7.0106a.67636.67636,0,0,1,.67641-.6758m7.1566,8.1292a.44315.44315,0,0,0,.443-.44279v-7.0106a.44347.44347,0,0,0-.443-.4431h-7.1566a.44388.44388,0,0,0-.44391.4431v7.0106a.44355.44355,0,0,0,.44391.44279Z" transform="translate(-139.3427 -130.16669)" style="fill:#003915"/><path d="M257.76111,221.6169a.47425.47425,0,1,1-.47421.4742.475.475,0,0,1,.47421-.4742m0,.7155a.24125.24125,0,1,0-.24152-.2413A.24186.24186,0,0,0,257.76111,222.3324Z" transform="translate(-139.3427 -130.16669)" style="fill:#003915"/><path d="M256.1604,221.6169a.47425.47425,0,1,1-.47481.4742.47494.47494,0,0,1,.47481-.4742m0,.7155a.24125.24125,0,1,0-.24181-.2413A.24156.24156,0,0,0,256.1604,222.3324Z" transform="translate(-139.3427 -130.16669)" style="fill:#003915"/><rect x="116.1456" y="84.81171" width="2.71959" height="0.2328" style="fill:#003915"/><rect x="117.3889" y="83.56761" width="0.2327" height="2.7196" style="fill:#003915"/><path d="M256.84811,214.1978a.89685.89685,0,1,1-.89661.8969.898.898,0,0,1,.89661-.8969m0,1.561a.6643.6643,0,1,0-.66391-.66411A.66553.66553,0,0,0,256.84811,215.7588Z" transform="translate(-139.3427 -130.16669)" style="fill:#003915"/><rect x="116.1456" y="88.65691" width="2.71959" height="0.23251" style="fill:#003915"/><rect x="117.3889" y="87.41251" width="0.2327" height="2.72041" style="fill:#003915"/><path d="M256.84811,218.0421a.8972.8972,0,1,1-.89661.89751.8986.8986,0,0,1,.89661-.89751m0,1.5619a.6647.6647,0,1,0-.66391-.6644A.6654.6654,0,0,0,256.84811,219.604Z" transform="translate(-139.3427 -130.16669)" style="fill:#003915"/><rect x="112.2151" y="84.81171" width="2.7193" height="0.2328" style="fill:#003915"/><rect x="113.45781" y="83.56761" width="0.23299" height="2.7196" style="fill:#003915"/><path d="M252.917,214.1978a.89685.89685,0,1,1-.89691.8969.89783.89783,0,0,1,.89691-.8969m0,1.561a.6643.6643,0,1,0-.66391-.66411A.66607.66607,0,0,0,252.917,215.7588Z" transform="translate(-139.3427 -130.16669)" style="fill:#003915"/><rect x="112.2151" y="88.65691" width="2.7193" height="0.23251" style="fill:#003915"/><rect x="113.45781" y="87.41251" width="0.23299" height="2.72041" style="fill:#003915"/><path d="M252.917,218.0421a.8972.8972,0,1,1-.89691.89751.89847.89847,0,0,1,.89691-.89751m0,1.5619a.6647.6647,0,1,0-.66391-.6644A.66593.66593,0,0,0,252.917,219.604Z" transform="translate(-139.3427 -130.16669)" style="fill:#003915"/><path d="M253.44679,221.6169a.47425.47425,0,1,1-.47449.4742.47483.47483,0,0,1,.47449-.4742m0,.7155a.24125.24125,0,1,0-.24179-.2413A.24167.24167,0,0,0,253.44679,222.3324Z" transform="translate(-139.3427 -130.16669)" style="fill:#003915"/><path d="M251.8452,221.6169a.47425.47425,0,1,1-.47389.4742.47464.47464,0,0,1,.47389-.4742m0,.7155a.24125.24125,0,1,0-.2415-.2413A.24162.24162,0,0,0,251.8452,222.3324Z" transform="translate(-139.3427 -130.16669)" style="fill:#003915"/><path d="M279.48129,284.7252a.80925.80925,0,1,0,.23471.57089.80977.80977,0,0,0-.23471-.57089m-.5726-1.03641a1.60705,1.60705,0,1,1-1.13638.4706A1.60261,1.60261,0,0,1,278.90869,283.6888Z" transform="translate(-139.3427 -130.16669)" style="fill:#003915"/><path d="M236.54179,290.5892a3.90784,3.90784,0,1,0-3.9075,3.9079,3.908,3.908,0,0,0,3.9075-3.9079" transform="translate(-139.3427 -130.16669)" style="fill:#558e42;fill-rule:evenodd"/><polygon points="93.292 158.019 93.67 159.333 94.048 160.648 93.292 160.648 92.535 160.648 92.913 159.333 93.292 158.019" style="fill:#fdfdfd;fill-rule:evenodd"/><rect x="93.0863" y="160.54532" width="0.38409" height="2.2813" style="fill:#fdfdfd"/><path d="M184.89149,150.5033c-.73189,0-1.2359-.618-1.2359-1.7399s.504-1.7399,1.2359-1.7399,1.2359.61789,1.2359,1.7399-.504,1.7399-1.2359,1.7399m0,.396c.972,0,1.67981-.798,1.67981-2.13589s-.70781-2.13589-1.67981-2.13589-1.67389.79788-1.67389,2.13589S183.91949,150.89929,184.89149,150.89929Zm-3.62379-.366c-.726,0-1.11011-.4379-1.11011-.9a.97214.97214,0,0,1,1.08-.91782c.648,0,1.05591.35373,1.05591.90591A.91881.91881,0,0,1,181.2677,150.53329Zm.036-2.18408a1.34266,1.34266,0,0,0-1.28409.72c-.0119-.12582-.01791-.24573-.01791-.34183,0-1.14008.582-1.72208,1.4879-1.72208a1.47084,1.47084,0,0,1,.81581.19818l.1741-.34808a1.92734,1.92734,0,0,0-.9958-.22791c-1.14011,0-1.92.74381-1.92,2.17191,0,1.326.60579,2.09988,1.7218,2.09988a1.30861,1.30861,0,0,0,1.4341-1.2901A1.27166,1.27166,0,0,0,181.3037,148.34921Zm-2.61589,1.8902a.314.314,0,0,0-.318.324.30314.30314,0,0,0,.216.30582l-.2041.87h.288l.252-.828a.97624.97624,0,0,0,.0842-.34781A.314.314,0,0,0,178.68781,150.23941Zm-2.2861-1.77591,1.188-1.4942v-.30579h-2.7v.38379h2.1481l-1.16389,1.4581v.31808h.2999c.7798,0,1.1339.32993,1.1339.83392,0,.52188-.3839.84589-1.08.84589a1.84111,1.84111,0,0,1-1.302-.4859l-.21.34192a2.185,2.185,0,0,0,1.512.54c1.01389,0,1.5239-.54,1.5239-1.24188C177.7516,148.98529,177.3017,148.51141,176.4017,148.4635Z" transform="translate(-139.3427 -130.16669)" style="fill:#6e6e6e;fill-rule:evenodd"/><path d="M182.6597,258.2394a.314.314,0,0,0-.318.324.30311.30311,0,0,0,.216.3058l-.20409.87h.288l.252-.828a.976.976,0,0,0,.0842-.34779.314.314,0,0,0-.3181-.324m6.4438.2639c-.7319,0-1.2359-.618-1.2359-1.7399s.504-1.7399,1.2359-1.7399,1.2359.6179,1.2359,1.7399S189.8354,258.5033,189.1035,258.5033Zm0,.396c.972,0,1.67979-.798,1.67979-2.13589s-.70779-2.13589-1.67979-2.13589-1.6739.7979-1.6739,2.13589S188.1315,258.89929,189.1035,258.89929Zm-3.9059-.366c-.74409,0-1.182-.324-1.182-.8461,0-.5159.43791-.83989,1.182-.83989.7438,0,1.188.324,1.188.83989C186.3856,258.2093,185.94141,258.53329,185.1976,258.53329Zm-1.038-2.78389c0-.468.40189-.756,1.038-.756.6299,0,1.044.288,1.044.762,0,.4561-.39.75-1.044.75S184.15961,256.2115,184.15961,255.7494Zm1.8479.9119a.95108.95108,0,0,0,.67209-.9238c0-.684-.59419-1.11-1.482-1.11-.88811,0-1.47.426-1.47,1.11a.94766.94766,0,0,0,.6599.9238,1.04827,1.04827,0,0,0-.80989,1.0321c0,.74379.612,1.20589,1.62,1.20589,1.00211,0,1.6319-.4621,1.6319-1.20589A1.0577,1.0577,0,0,0,186.00751,256.6613Zm-5.97581,1.842c-.73189,0-1.23589-.618-1.23589-1.7399s.504-1.7399,1.23589-1.7399,1.236.6179,1.236,1.7399S180.7637,258.5033,180.03169,258.5033Zm0,.396c.972,0,1.6799-.798,1.6799-2.13589s-.7079-2.13589-1.6799-2.13589-1.6738.7979-1.6738,2.13589S179.05969,258.89929,180.03169,258.89929Zm-4.5-.42009,1.4281-1.4037a1.72883,1.72883,0,0,0,.69-1.31419c0-.70181-.54-1.1338-1.39209-1.1338a1.88743,1.88743,0,0,0-1.4879.59979l.30589.26421a1.42586,1.42586,0,0,1,1.146-.468c.642,0,.9839.2999.9839.786,0,.2877-.08989.56981-.5638,1.03781l-1.74609,1.7101v.30589h2.946v-.38409Z" transform="translate(-139.3427 -130.16669)" style="fill:#6e6e6e;fill-rule:evenodd"/><path d="M234.2832,275.00349c-.7319,0-1.2359-.618-1.2359-1.7399s.504-1.7399,1.2359-1.7399,1.2359.6179,1.2359,1.7399-.504,1.7399-1.2359,1.7399m0,.396c.972,0,1.67979-.798,1.67979-2.13591s-.70779-2.13589-1.67979-2.13589-1.6739.7979-1.6739,2.13589S233.3112,275.39951,234.2832,275.39951Zm-3.966-2.5141h-.54l.144-1.33791h1.91989v-.3838h-2.2977l-.216,2.1058h.894c1.06779,0,1.4037.33589,1.4037.8759,0,.51-.37781.85809-1.0919.85809a1.821,1.821,0,0,1-1.29-.4859l-.20979.3419a2.16867,2.16867,0,0,0,1.5058.54c1.02611,0,1.5239-.55791,1.5239-1.27191C232.0631,273.3835,231.58321,272.88541,230.3172,272.88541Zm-2.0457,1.85419a.31409.31409,0,0,0-.3181.324.30312.30312,0,0,0,.216.3058l-.2041.87h.288l.252-.828a.97591.97591,0,0,0,.0842-.34779A.314.314,0,0,0,228.2715,274.73959Zm-3.24.23981,1.4281-1.4037a1.729,1.729,0,0,0,.68991-1.31419c0-.70181-.54-1.1338-1.39211-1.1338a1.88745,1.88745,0,0,0-1.4879.59979l.30589.26421a1.426,1.426,0,0,1,1.146-.468c.64209,0,.9839.2999.9839.786,0,.2877-.08981.56981-.56381,1.03781l-1.74609,1.7101v.30589h2.946v-.38409Z" transform="translate(-139.3427 -130.16669)" style="fill:#6e6e6e;fill-rule:evenodd"/><path d="M263.82129,261.20329c-.7319,0-1.2359-.618-1.2359-1.7399s.504-1.7399,1.2359-1.7399,1.2359.6179,1.2359,1.7399-.504,1.7399-1.2359,1.7399m0,.396c.972,0,1.67981-.798,1.67981-2.13591s-.70779-2.13589-1.67981-2.13589-1.6738.7979-1.6738,2.13589S262.8493,261.5993,263.82129,261.5993Zm-3.97189-.396c-.7319,0-1.2359-.618-1.2359-1.7399s.504-1.7399,1.2359-1.7399,1.2359.6179,1.2359,1.7399S260.5813,261.20329,259.8494,261.20329Zm0,.396c.972,0,1.67981-.798,1.67981-2.13591s-.70779-2.13589-1.67981-2.13589-1.6738.7979-1.6738,2.13589S258.87741,261.5993,259.8494,261.5993Zm-2.54968-.65991a.31408.31408,0,0,0-.31812.324.30312.30312,0,0,0,.216.3058l-.2041.87h.288l.252-.828a.97638.97638,0,0,0,.0842-.34781A.314.314,0,0,0,257.29971,260.93939Zm-2.62212-1.85419h-.54l.144-1.33791h1.91991v-.3838H253.9037l-.216,2.1058h.8941c1.06779,0,1.4037.33591,1.4037.8759,0,.51-.37781.85809-1.0919.85809a1.82093,1.82093,0,0,1-1.29-.4859l-.20981.3419a2.1686,2.1686,0,0,0,1.5058.54c1.02611,0,1.5239-.55791,1.5239-1.27191C256.42349,259.5833,255.9436,259.08521,254.6776,259.08521Z" transform="translate(-139.3427 -130.16669)" style="fill:#6e6e6e;fill-rule:evenodd"/><path d="M257.197,188.0034c-.7319,0-1.23589-.618-1.23589-1.7399s.504-1.7399,1.23589-1.7399,1.2359.61789,1.2359,1.7399-.504,1.7399-1.2359,1.7399m0,.396c.972,0,1.6799-.798,1.6799-2.13589s-.70789-2.13591-1.6799-2.13591-1.6738.79791-1.6738,2.13591S256.225,188.3994,257.197,188.3994Zm-3.63-2.43581,1.188-1.49419v-.3058h-2.7v.38379h2.1481l-1.16389,1.4581v.3181h.2999c.7798,0,1.1338.32991,1.1338.83391,0,.5219-.3838.8459-1.08.8459a1.841,1.841,0,0,1-1.3019-.4859l-.2101.3419a2.18512,2.18512,0,0,0,1.512.54c1.014,0,1.524-.54,1.524-1.2419C254.9169,186.4854,254.467,186.01151,253.567,185.96359Zm-2.4299,1.77591a.314.314,0,0,0-.318.324.303.303,0,0,0,.216.3058l-.2041.87h.288l.252-.828a.976.976,0,0,0,.0842-.34781A.314.314,0,0,0,251.1371,187.7395Zm-3.24.23979,1.4281-1.4037a1.7291,1.7291,0,0,0,.69-1.31419c0-.7018-.54-1.1338-1.39211-1.1338a1.88727,1.88727,0,0,0-1.4879.59981l.3058.26419a1.42622,1.42622,0,0,1,1.1461-.468c.642,0,.9839.2999.9839.786,0,.2877-.0899.56979-.5638,1.0378l-1.7462,1.7101v.30591h2.94611v-.38411Zm-2.982-3.81569v.38379h.9901v3.816h.432v-4.1998Z" transform="translate(-139.3427 -130.16669)" style="fill:#6e6e6e;fill-rule:evenodd"/><path d="M275.39182,184.7336h.22388v-.57739h2.2261v-.252h-2.45Zm2.2399,1.18291c0,.4269-.36063.72119-1.0148.72119-.65451,0-1.01511-.2943-1.01511-.72119s.3606-.72081,1.01511-.72081C277.27109,185.19569,277.63171,185.48959,277.63171,185.9165Zm.231,0c0-.56691-.46539-.9799-1.24579-.9799-.78061,0-1.24612.413-1.24612.9799s.46552.97659,1.24612.97659C277.39731,186.8931,277.8627,186.48351,277.8627,185.9165Zm-.38489,1.48759a.18314.18314,0,0,0,.18909.18539.17672.17672,0,0,0,.17831-.12579l.50769.119v-.16811l-.48309-.14709a.57339.57339,0,0,0-.20291-.049A.18317.18317,0,0,0,277.47781,187.4041Zm-.504.4933v.4901h-.56689v.2449h.56689v1.0641l-1.582-1.2529v.2798l1.62387,1.29849h.182v-1.3824h.6441v-.252h-.6441v-.4901Z" transform="translate(-139.3427 -130.16669)" style="fill:#434242"/><path d="M249.2036,256.5264v.4901h-.56689v.2449h.56689v1.06419l-1.582-1.253v.2798l1.624,1.2986h.182v-1.38251h.644v-.252h-.644v-.4901Zm-.3291,3.4231c0,.3779-.2063.616-.5284.616a.53632.53632,0,0,1-.532-.59871c0-.42349.25569-.6474.525-.6474A.56705.56705,0,0,1,248.8745,259.94949Zm-1.2739.0278a.76323.76323,0,0,0,.75259.8365.74159.74159,0,0,0,.7348-.826.78263.78263,0,0,0-.4198-.74889c.07339-.00711.1434-.01051.19951-.01051.665,0,1.00429.3396,1.00429.868a.85912.85912,0,0,1-.1153.47589l.2029.1015a1.12391,1.12391,0,0,0,.133-.5808c0-.665-.434-1.12-1.26711-1.12C248.0522,258.973,247.6006,259.32649,247.6006,259.97729Zm2.107,1.3127a.18318.18318,0,0,0,.1891.18541.17667.17667,0,0,0,.1783-.12581l.50771.119v-.16809l-.483-.14711a.57371.57371,0,0,0-.203-.049A.18319.18319,0,0,0,249.7076,261.29Zm.14011,1.89021-.819-.8331a1.00763,1.00763,0,0,0-.76649-.40251c-.40961,0-.66161.31491-.66161.8121a1.10115,1.10115,0,0,0,.3501.8679l.1539-.1785a.83214.83214,0,0,1-.2729-.66841c0-.3745.17491-.5741.4583-.5741.16811,0,.3325.05251.6055.3289l.99751,1.0184h.17859V261.8326h-.22389Z" transform="translate(-139.3427 -130.16669)" style="fill:#434242"/><path d="M152.8614,221.1554c0,.42691-.36061.72121-1.0148.72121-.65451,0-1.01511-.2943-1.01511-.72121s.3606-.72079,1.01511-.72079c.65419,0,1.0148.2939,1.0148.72079m.231,0c0-.56689-.46541-.97989-1.2458-.97989-.7807,0-1.24611.413-1.24611.97989s.46541.97661,1.24611.97661C152.627,222.132,153.09241,221.72231,153.09241,221.1554Zm-1.218,2.31711c0,.37779-.20641.61589-.52841.61589a.53634.53634,0,0,1-.53209-.5986c0-.42349.25569-.64749.525-.64749A.56717.56717,0,0,1,151.8744,223.4725Zm-1.27391.02769a.76312.76312,0,0,0,.75261.8365.74158.74158,0,0,0,.7347-.826.78258.78258,0,0,0-.4198-.7489c.07339-.0071.1434-.0105.1996-.0105.665,0,1.0043.3396,1.0043.868a.85886.85886,0,0,1-.1154.47591l.203.1015a1.124,1.124,0,0,0,.1329-.5808c0-.665-.434-1.12-1.26711-1.12C151.052,222.4959,150.60049,222.8494,150.60049,223.5002Zm2.107,1.31281a.18312.18312,0,0,0,.189.1853.17661.17661,0,0,0,.1783-.12581l.50771.119v-.168l-.483-.1472a.57533.57533,0,0,0-.203-.049A.18318.18318,0,0,0,152.7075,224.813Zm-1.0815,1.5293v.3149l-.78061-.08389v-1.12h-.224v1.3405l1.22861.1259v-.52129c0-.62311.19589-.81921.51109-.81921.2973,0,.50031.2205.50031.63721a1.06144,1.06144,0,0,1-.28351.7523l.1996.1225a1.26447,1.26447,0,0,0,.31491-.87851c0-.59839-.32541-.88889-.74181-.88889C151.91631,225.32381,151.626,225.60381,151.626,226.3423Z" transform="translate(-139.3427 -130.16669)" style="fill:#434242"/><path d="M156.1113,146.325c0,.42688-.3606.72119-1.0148.72119-.6545,0-1.01509-.29431-1.01509-.72119s.3606-.72083,1.01509-.72083c.65421,0,1.0148.29391,1.0148.72083m.231,0c0-.56692-.46539-.97992-1.2458-.97992-.7807,0-1.24609.413-1.24609.97992s.46539.97659,1.24609.97659C155.87691,147.30161,156.3423,146.892,156.3423,146.325Zm-.2449,2.62518-.81889-.8331a1.00775,1.00775,0,0,0-.76651-.4025c-.40959,0-.66159.31491-.66159.8121a1.101,1.101,0,0,0,.3501.868l.1539-.17862a.83216.83216,0,0,1-.273-.6684c0-.37451.1749-.574.45839-.574.16811,0,.3325.0524.6055.3288l.99751,1.01852h.17859V147.6026h-.224Zm-.14.90991a.18318.18318,0,0,0,.1891.18539.17673.17673,0,0,0,.1783-.12592l.5076.11911v-.16809l-.483-.14709a.57364.57364,0,0,0-.2029-.0491A.18321.18321,0,0,0,155.9574,149.86011Zm-2.086,1.60638h.22391v-.57739h2.22609v-.252h-2.45Z" transform="translate(-139.3427 -130.16669)" style="fill:#434242"/><line x1="137.3391" y1="61.34941" x2="137.3391" y2="93.13791" style="fill:none;stroke:#b1b2b2;stroke-miterlimit:22.92558479309082;stroke-width:0.2160000056028366px"/><line x1="109.569" y1="134.60001" x2="109.569" y2="156.17621" style="fill:none;stroke:#b1b2b2;stroke-miterlimit:22.92558479309082;stroke-width:0.2160000056028366px"/><line x1="12.5688" y1="98.10001" x2="12.5688" y2="156.77431" style="fill:none;stroke:#b1b2b2;stroke-miterlimit:22.92558479309082;stroke-width:0.2160000056028366px"/><line x1="15.81871" y1="22.84982" x2="15.81871" y2="29.59821" style="fill:none;stroke:#b1b2b2;stroke-miterlimit:22.92558479309082;stroke-width:0.2160000056028366px"/><line x1="137.3391" y1="13.68002" x2="137.3391" y2="51.91031" style="fill:none;stroke:#b1b2b2;stroke-miterlimit:22.92558479309082;stroke-width:0.2160000056028366px"/><line x1="109.569" y1="99.63751" x2="109.569" y2="125.16092" style="fill:none;stroke:#b1b2b2;stroke-miterlimit:22.92558479309082;stroke-width:0.2160000056028366px"/><line x1="12.5688" y1="39.05431" x2="12.5688" y2="88.66092" style="fill:none;stroke:#b1b2b2;stroke-miterlimit:22.92558479309082;stroke-width:0.2160000056028366px"/><line x1="15.81871" y1="6.66232" x2="15.81871" y2="13.41071" style="fill:none;stroke:#b1b2b2;stroke-miterlimit:22.92558479309082;stroke-width:0.2160000056028366px"/><path d="M182.4157,141.13821c-.42349,0-.64769-.2554-.64769-.525a.56723.56723,0,0,1,.6301-.5354c.3779,0,.616.2063.616.52832a.53614.53614,0,0,1-.5984.5321m.021-1.27393a.78347.78347,0,0,0-.74921.4198c-.00681-.07339-.0105-.1434-.0105-.19949,0-.66479.3396-1.00439.8679-1.00439a.86109.86109,0,0,1,.47629.11539l.10141-.203a1.12658,1.12658,0,0,0-.5811-.13287c-.665,0-1.1199.434-1.1199,1.26709,0,.77328.3535,1.22479,1.00459,1.22479a.76332.76332,0,0,0,.8365-.75259A.74175.74175,0,0,0,182.43671,139.86429Zm-2.35561,1.25632c-.4269,0-.72121-.3606-.72121-1.0148,0-.65451.29431-1.01511.72121-1.01511s.72079.3606.72079,1.01511C180.8019,140.76,180.508,141.12061,180.0811,141.12061Zm0,.231c.56689,0,.9799-.46539.9799-1.24579,0-.78061-.413-1.24609-.9799-1.24609s-.97659.46548-.97659,1.24609C179.10451,140.8862,179.5141,141.35159,180.0811,141.35159Zm-1.4877-.38489a.18315.18315,0,0,0-.1853.18909.17669.17669,0,0,0,.12581.17831l-.119.50769h.16809l.14711-.48309a.57577.57577,0,0,0,.049-.20291A.1832.1832,0,0,0,178.5934,140.96671Zm-1.3334-1.0361.69281-.87131v-.17859H176.3779v.22391h1.2529l-.67889.85068v.18539h.1749c.4552,0,.66161.1925.66161.48642,0,.30438-.22391.4935-.62981.4935a1.07418,1.07418,0,0,1-.7597-.28342l-.1225.19952a1.27485,1.27485,0,0,0,.8822.31488c.59129,0,.8889-.31488.8889-.72449C178.0475,140.23511,177.785,139.95871,177.26,139.9306Z" transform="translate(-139.3427 -130.16669)" style="fill:#434242"/><path d="M253.302,148.88809c-.434,0-.68941-.18909-.68941-.4935,0-.301.2554-.49008.68941-.49008s.693.18909.693.49008c0,.30441-.25909.4935-.693.4935m-.6055-1.624c0-.27289.2347-.441.6055-.441.3676,0,.6091.16812.6091.4444,0,.2662-.2276.43771-.6091.43771C252.9207,147.7052,252.6965,147.53369,252.6965,147.2641Zm1.078.5321a.555.555,0,0,0,.392-.53909c0-.39893-.34641-.64752-.8645-.64752-.5179,0-.8575.2486-.8575.64752a.553.553,0,0,0,.38519.53909.611.611,0,0,0-.4725.60181c0,.434.35681.70358.94481.70358.5845,0,.9521-.26959.9521-.70358A.61688.61688,0,0,0,253.77451,147.7962Zm-2.74391,1.07431c-.4269,0-.72119-.3605-.72119-1.0148,0-.65451.2943-1.01511.72119-1.01511s.72081.3606.72081,1.01511C251.7514,148.51,251.4574,148.87051,251.03059,148.87051Zm0,.23108c.56691,0,.9799-.46548.9799-1.24588,0-.78061-.413-1.24612-.9799-1.24612s-.97659.46552-.97659,1.24612C250.054,148.63611,250.46359,149.10159,251.03059,149.10159Zm-1.4877-.385a.18315.18315,0,0,0-.18539.18909.17674.17674,0,0,0,.1259.17828l-.11909.50772h.16809l.1472-.48309a.57509.57509,0,0,0,.049-.20291A.18321.18321,0,0,0,249.54289,148.71661Zm-1.33339-1.036.69279-.8714v-.17862h-1.57491v.22391h1.25291l-.67891.85071v.18539h.1749c.4552,0,.66161.1925.66161.48642,0,.30447-.22389.4935-.6299.4935a1.07451,1.07451,0,0,1-.7597-.28342l-.12239.19949a1.27463,1.27463,0,0,0,.8821.315c.59129,0,.889-.315.889-.72458C248.997,147.985,248.7345,147.70859,248.2095,147.6806Z" transform="translate(-139.3427 -130.16669)" style="fill:#434242"/><path d="M180.9068,175.3705c-.4269,0-.7211-.3606-.7211-1.0148,0-.6545.2942-1.01509.7211-1.01509s.7209.3606.7209,1.01509c0,.65421-.294,1.0148-.7209,1.0148m0,.231c.56689,0,.9799-.46541.9799-1.2458,0-.7807-.413-1.24609-.9799-1.24609s-.9765.46539-.9765,1.24609C179.9303,175.13609,180.3399,175.6015,180.9068,175.6015Zm-2.3134-1.46631h-.3149l.08389-.7807h1.12v-.22389h-1.3405l-.1259,1.2285h.52129c.62311,0,.81921.19589.81921.51109,0,.2973-.2205.50031-.63721.50031a1.061,1.061,0,0,1-.7523-.28349l-.1225.1996a1.26453,1.26453,0,0,0,.87851.3149c.59839,0,.88889-.32541.88889-.74181C179.61189,174.4254,179.33189,174.13519,178.5934,174.13519Zm-1.1936,1.08141a.18318.18318,0,0,0-.18539.1891.17673.17673,0,0,0,.1259.1783l-.11909.5076h.16809l.14711-.483a.57333.57333,0,0,0,.049-.2029A.1832.1832,0,0,0,177.3998,175.2166Zm-1.33339-1.0361.69269-.87129v-.1786H175.1842v.22389h1.2529l-.67891.85071v.18539h.17491c.45529,0,.66159.1924.66159.4864,0,.3044-.22389.4935-.62979.4935a1.074,1.074,0,0,1-.7597-.28349l-.1225.1996a1.27479,1.27479,0,0,0,.8822.3149c.59129,0,.8889-.3149.8889-.7245C176.85381,174.485,176.59129,174.2086,176.06641,174.1805Z" transform="translate(-139.3427 -130.16669)" style="fill:#434242"/><path d="M259.72641,276.1008c-.42691,0-.7211-.3606-.7211-1.0148,0-.6545.29419-1.01511.7211-1.01511s.72079.36061.72079,1.01511c0,.65421-.29391,1.0148-.72079,1.0148m0,.231c.56689,0,.97989-.4655.97989-1.2458,0-.7807-.413-1.24609-.97989-1.24609s-.9765.46539-.9765,1.24609C258.74991,275.8663,259.15948,276.3318,259.72641,276.3318Zm-2.2785-.2135c-.434,0-.68939-.189-.68939-.4935,0-.301.25537-.4901.68939-.4901s.69308.1891.69308.4901C258.141,275.92931,257.8819,276.1183,257.44791,276.1183Zm-.6055-1.6239c0-.273.23468-.4411.6055-.4411.36771,0,.60919.16811.60919.4445,0,.26619-.22769.4377-.60919.4377C257.06659,274.9355,256.84241,274.764,256.84241,274.4944Zm1.078.532a.55487.55487,0,0,0,.39209-.53909c0-.3988-.34641-.6474-.86459-.6474-.51791,0-.85751.2486-.85751.6474a.5529.5529,0,0,0,.38531.53909.611.611,0,0,0-.4726.60181c0,.434.35687.7036.94479.7036.5845,0,.95218-.26961.95218-.7036A.61692.61692,0,0,0,257.92041,275.0264Zm-1.98792.9205a.18315.18315,0,0,0-.18539.189.17676.17676,0,0,0,.1259.1783l-.11909.50771h.16809l.14709-.483a.57359.57359,0,0,0,.0491-.203A.18317.18317,0,0,0,255.9325,275.9469Zm-1.6064-2.08611v.224h.57741v2.226h.252v-2.45Z" transform="translate(-139.3427 -130.16669)" style="fill:#434242"/><path d="M231.85159,283.73219l.8331-.81889a1.00778,1.00778,0,0,0,.40251-.76649c0-.40961-.31491-.66161-.8121-.66161a1.10113,1.10113,0,0,0-.868.3501l.17859.1539a.83219.83219,0,0,1,.66841-.273c.3745,0,.5741.1749.5741.4584,0,.16809-.05251.33249-.3289.60539l-1.0184.9976v.1785h1.71831v-.22391Zm-1.44879-1.17609.69279-.87141v-.1785h-1.57489v.22391h1.2529l-.67891.85069v.18541h.17491c.45529,0,.66159.1924.66159.48639,0,.30441-.22389.4935-.62979.4935a1.07416,1.07416,0,0,1-.7597-.28349l-.1225.1996a1.27472,1.27472,0,0,0,.8822.3149c.59129,0,.8889-.3149.8889-.7245C231.19031,282.8606,230.9278,282.5842,230.4028,282.55611Zm-1.4176,1.03609a.18314.18314,0,0,0-.18539.189.17668.17668,0,0,0,.1259.1783l-.11911.50769h.16811l.1472-.483a.5756.5756,0,0,0,.049-.203A.18319.18319,0,0,0,228.9852,283.59219Zm-1.6064-2.086v.22391h.5775v2.226h.252V281.5062Z" transform="translate(-139.3427 -130.16669)" style="fill:#434242"/><line x1="35.7811" y1="10.004" x2="11.6232" y2="10.004" style="fill:none;stroke:#b1b2b2;stroke-miterlimit:22.92558479309082;stroke-width:0.2160000056028366px"/><line x1="106.7814" y1="17.75391" x2="80.57361" y2="17.75391" style="fill:none;stroke:#b1b2b2;stroke-miterlimit:22.92558479309082;stroke-width:0.2160000056028366px"/><line x1="34.5313" y1="44.25391" x2="8.16011" y2="44.25391" style="fill:none;stroke:#b1b2b2;stroke-miterlimit:22.92558479309082;stroke-width:0.2160000056028366px"/><line x1="113.563" y1="144.98421" x2="106.8145" y2="144.98421" style="fill:none;stroke:#b1b2b2;stroke-miterlimit:22.92558479309082;stroke-width:0.2160000056028366px"/><line x1="86.313" y1="152.62952" x2="79.5645" y2="152.62952" style="fill:none;stroke:#b1b2b2;stroke-miterlimit:22.92558479309082;stroke-width:0.2160000056028366px"/><line x1="72.4136" y1="10.004" x2="45.2202" y2="10.004" style="fill:none;stroke:#b1b2b2;stroke-miterlimit:22.92558479309082;stroke-width:0.2160000056028366px"/><line x1="141.52791" y1="17.75391" x2="116.2204" y2="17.75391" style="fill:none;stroke:#b1b2b2;stroke-miterlimit:22.92558479309082;stroke-width:0.2160000056028366px"/><line x1="77.97141" y1="44.25391" x2="43.9704" y2="44.25391" style="fill:none;stroke:#b1b2b2;stroke-miterlimit:22.92558479309082;stroke-width:0.2160000056028366px"/><line x1="141.52791" y1="144.98421" x2="123.00209" y2="144.98421" style="fill:none;stroke:#b1b2b2;stroke-miterlimit:22.92558479309082;stroke-width:0.2160000056028366px"/><line x1="102.5005" y1="152.62952" x2="95.752" y2="152.62952" style="fill:none;stroke:#b1b2b2;stroke-miterlimit:22.92558479309082;stroke-width:0.2160000056028366px"/></svg>