<svg id="Слой_1" data-name="Слой 1" xmlns="http://www.w3.org/2000/svg" viewBox="0 0 163.65059 137.12938"><title>1.11.02</title><polygon points="0.224 51.803 10.689 51.803 10.689 2.475 160.575 2.475 160.575 71.354 158.012 71.354 158.012 135.743 0.224 135.743 0.224 51.803" style="fill:#fff;fill-rule:evenodd"/><rect x="31.53571" y="136.12019" width="12.23489" height="1.00919" style="fill:#003915"/><path d="M137.9483,268.6964v2.5432h6.82019v-2.5432Zm3.9283-4.44159v2.5432h2.89189v-2.5432Zm-3.9612,0v2.5432h2.89189v-2.5432Zm-4.12181-.92921H146.0285V272.412H133.79359Z" transform="translate(-130.7733 -144.03381)" style="fill:#003915;fill-rule:evenodd"/><path d="M150.9052,193.40759H148.362v6.9599h2.5432Zm4.3362,0H152.6981v6.9599h2.54329Zm4.4416,4.068h-2.5433v2.89189h2.5433Zm0-4.068h-2.5433v2.89191h2.5433Zm-17.4734-2.72009h20.0639v12.524h-20.0639Z" transform="translate(-130.7733 -144.03381)" style="fill:#003915;fill-rule:evenodd"/><path d="M177.4276,230.1299a.374.374,0,1,0-.3748-.6474l-13.92009,8.0399a.374.374,0,1,0,.3748.6474Z" transform="translate(-130.7733 -144.03381)" style="fill:#003915"/><path d="M204.2677,217.5336a.374.374,0,1,0-.6474.37469l8.0399,13.92011a.374.374,0,1,0,.6474-.37469Z" transform="translate(-130.7733 -144.03381)" style="fill:#003915"/><path d="M259.67709,203.2872a.374.374,0,1,0,.6474-.37469l-8.03989-13.92011a.374.374,0,1,0-.6474.37469Z" transform="translate(-130.7733 -144.03381)" style="fill:#003915"/><rect x="67.31599" y="93.39899" width="2.6022" height="38.7468" style="fill:#003915"/><rect x="70.855" y="91.09758" width="2.60231" height="41.7319" style="fill:#003915"/><rect x="70.855" y="91.09758" width="2.60231" height="41.7319" style="fill:#003915"/><rect x="70.855" y="68.75198" width="2.60231" height="4.9122" style="fill:#003915"/><rect x="70.855" y="68.75198" width="56.03992" height="2.6022" style="fill:#003915"/><rect x="5.13071" y="93.39899" width="27.39259" height="2.6022" style="fill:#003915"/><rect x="47.79919" y="93.39899" width="24.89131" height="2.6022" style="fill:#003915"/><rect x="5.59039" y="132.12738" width="147.6823" height="5.002" style="fill:#003915"/><rect x="6.64951" width="157.00108" height="4.94958" style="fill:#003915"/><rect x="0.22389" y="51.80258" width="6.42561" height="19.6653" style="fill:#003915"/><rect x="0.22389" y="91.63438" width="6.42561" height="45.495" style="fill:#003915"/><polygon points="12.996 59.178 6.571 59.178 6.571 51.803 6.65 51.803 6.65 2.287 12.996 2.287 12.996 59.178" style="fill:#003915;fill-rule:evenodd"/><rect x="124.6416" width="8.16011" height="3.4874" style="fill:#003915"/><rect x="124.6416" width="8.16011" height="27.75508" style="fill:#003915"/><rect x="124.6416" y="63.19418" width="38.87999" height="8.16" style="fill:#003915"/><rect x="124.6416" y="59.16359" width="8.16011" height="10.50209" style="fill:#003915"/><rect x="149.8521" y="63.49348" width="8.1601" height="23.5137" style="fill:#003915"/><rect x="149.8521" y="116.51439" width="8.1601" height="20.61499" style="fill:#003915"/><rect x="149.8521" y="63.19418" width="13.79849" height="10.6219" style="fill:#003915"/><rect x="152.85399" y="102.00558" width="2.29861" height="0.50169" style="fill:#003915"/><rect x="152.85399" y="100.80739" width="2.29861" height="0.5011" style="fill:#003915"/><rect x="152.85399" y="88.16989" width="2.29861" height="0.5015" style="fill:#003915"/><rect x="152.85399" y="86.97168" width="2.29861" height="0.50121" style="fill:#003915"/><rect x="152.85399" y="116.11728" width="2.29861" height="0.50171" style="fill:#003915"/><rect x="152.85399" y="114.91939" width="2.29861" height="0.5011" style="fill:#003915"/><rect x="149.8521" y="84.91489" width="0.5014" height="34.0937" style="fill:#003915"/><rect x="152.6992" y="84.91489" width="0.5015" height="34.0937" style="fill:#003915"/><rect x="154.8705" y="84.91489" width="0.5015" height="34.0937" style="fill:#003915"/><rect x="157.51161" y="84.91489" width="0.50137" height="34.0937" style="fill:#003915"/><path d="M260.22729,184.2429H258.5574v.6971h1.66989Zm0-13.56911H258.5574v13.0677h1.66989Zm0-1.1982H258.5574v.697h1.66989Zm-1.66989-.50182h1.66989v-5.7894h.5014V184.94h2.3457V163.18439h.5014v22.25681h-8.1609V163.18439h.5014V184.94h2.1396V166.88809h.5015Z" transform="translate(-130.7733 -144.03381)" style="fill:#003915;fill-rule:evenodd"/><rect x="160.5753" width="0.44669" height="0.75629" style="fill:#003915"/><rect x="159.4839" width="0.44681" height="0.75629" style="fill:#003915"/><rect x="158.40309" width="0.44672" height="0.75629" style="fill:#003915"/><rect x="158.4955" y="42.61798" width="1.29709" height="0.4471" style="fill:#003915"/><rect x="158.4955" y="41.55019" width="1.29709" height="0.44679" style="fill:#003915"/><rect x="158.4955" y="24.01599" width="1.29709" height="0.44699" style="fill:#003915"/><rect x="158.4955" y="22.94809" width="1.29709" height="0.44681" style="fill:#003915"/><rect x="158.4955" y="5.41357" width="1.29709" height="0.44702" style="fill:#003915"/><rect x="158.4955" y="4.34579" width="1.29709" height="0.44669" style="fill:#003915"/><rect x="158.4955" y="61.22038" width="1.29709" height="0.44701" style="fill:#003915"/><rect x="158.4955" y="60.15259" width="1.29709" height="0.4467" style="fill:#003915"/><rect x="160.5753" y="2.27899" width="0.44669" height="60.82129" style="fill:#003915"/><rect x="159.4839" y="2.27899" width="0.44681" height="60.82129" style="fill:#003915"/><rect x="158.40309" y="2.27899" width="0.44672" height="60.82129" style="fill:#003915"/><path d="M179.0793,275.7269H169.257a.90529.90529,0,0,1-.90541-.904V270.2126a4.59567,4.59567,0,0,1,4.5896-4.5909h2.45221a4.59557,4.59557,0,0,1,4.59039,4.5909v4.61031a.9047.9047,0,0,1-.9045.904m-6.13811-9.8606a4.351,4.351,0,0,0-4.345,4.3463v4.61031a.66144.66144,0,0,0,.6608.6599h9.8223a.66067.66067,0,0,0,.6599-.6599V270.2126a4.35137,4.35137,0,0,0-4.34579-4.3463Z" transform="translate(-130.7733 -144.03381)" style="fill:#003915"/><path d="M172.94141,266.9565a3.25869,3.25869,0,0,0-3.25441,3.2561v2.6881a.56785.56785,0,0,0,.5672.5675h3.5753v.24519h-3.5753a.814.814,0,0,1-.81239-.8127v-2.6881a3.504,3.504,0,0,1,3.4996-3.5007h2.4523a3.50467,3.50467,0,0,1,3.50079,3.5007v2.6881a.81448.81448,0,0,1-.8136.8127h-3.5753v-.24519h3.5753a.56831.56831,0,0,0,.56841-.5675v-2.6881a3.25933,3.25933,0,0,0-3.2556-3.2561Z" transform="translate(-130.7733 -144.03381)" style="fill:#003915"/><path d="M174.1683,270.5602a.7835.7835,0,1,1,.7838-.78349.7848.7848,0,0,1-.7838.78349m0-1.3224a.53875.53875,0,1,0,.53909.53891A.53972.53972,0,0,0,174.1683,269.23779Z" transform="translate(-130.7733 -144.03381)" style="fill:#003915"/><rect x="43.27251" y="125.18498" width="0.24489" height="1.11661" style="fill:#003915"/><rect x="42.83659" y="125.62039" width="1.11601" height="0.2455" style="fill:#003915"/><path d="M174.5056,274.5446h.4037a.17372.17372,0,0,0,.1729-.1741v-.3793a.17363.17363,0,0,0-.1729-.174h-.4037v-.2449h.4037a.41873.41873,0,0,1,.41809.4189v.3793a.41868.41868,0,0,1-.41809.4187h-.4057l.002-.0374Zm-1.07719-.7274a.17439.17439,0,0,0-.174.174v.3793a.17448.17448,0,0,0,.174.1741h.40109v.2072l.0023.0374h-.4034a.41855.41855,0,0,1-.41861-.4187v-.3793a.41859.41859,0,0,1,.41861-.4189h.40109v.2449Z" transform="translate(-130.7733 -144.03381)" style="fill:#003915"/><path d="M174.1683,275.2121a.461.461,0,0,1-.4612-.4603v-3.0804a.4605.4605,0,0,1,.921,0v3.0804a.4606.4606,0,0,1-.45979.4603m0-3.7567a.21671.21671,0,0,0-.21631.216v3.0804a.21555.21555,0,0,0,.43111,0v-3.0804A.216.216,0,0,0,174.1683,271.4554Z" transform="translate(-130.7733 -144.03381)" style="fill:#003915"/><path d="M153.3609,261.72771a3.917,3.917,0,0,0-3.91161,3.91289V271.306a.67744.67744,0,0,0,.4561.63921,1.244,1.244,0,0,0-.20349.2049.94568.94568,0,0,1-.52161-.8441v-5.66541a4.18085,4.18085,0,1,1,8.36171,0V271.306a.94561.94561,0,0,1-.5211.8436,1.23807,1.23807,0,0,0-.2032-.2047.67639.67639,0,0,0,.45549-.6389v-5.66541a3.917,3.917,0,0,0-3.91229-3.91289" transform="translate(-130.7733 -144.03381)" style="fill:#003915"/><path d="M156.1646,270.2251h-5.6089a.204.204,0,0,1-.20129-.20149V265.7529a3.0066,3.0066,0,1,1,6.0132,0v4.27071a.20467.20467,0,0,1-.203.20149m-5.5415-.2681h5.476v-4.2041a2.738,2.738,0,0,0-5.476,0Z" transform="translate(-130.7733 -144.03381)" style="fill:#003915"/><path d="M153.3606,267.4942a1.00815,1.00815,0,1,1,1.0088-1.008,1.01,1.01,0,0,1-1.0088,1.008m0-1.7475a.7394.7394,0,1,0,.73981.7395A.7403.7403,0,0,0,153.3606,265.7467Z" transform="translate(-130.7733 -144.03381)" style="fill:#003915"/><rect x="150.61801" y="268.43613" width="2.24223" height="0.26853" transform="translate(-285.0341 85.56392) rotate(-53.27585)" style="fill:#003915"/><rect x="154.80391" y="267.44868" width="0.26913" height="2.24303" transform="translate(-260.79585 2.33534) rotate(-36.80799)" style="fill:#003915"/><path d="M156.0614,275.7269h-5.4005a1.35511,1.35511,0,0,1-1.35251-1.35381V272.8988a1.35362,1.35362,0,0,1,1.35251-1.35251h5.4005a1.3533,1.3533,0,0,1,1.3519,1.35251v1.47429a1.35479,1.35479,0,0,1-1.3519,1.35381m-5.4005-3.91209a1.08544,1.08544,0,0,0-1.0843,1.084v1.47429a1.08588,1.08588,0,0,0,1.0843,1.08511h5.4005a1.08594,1.08594,0,0,0,1.08369-1.08511V272.8988a1.0855,1.0855,0,0,0-1.08369-1.084Z" transform="translate(-130.7733 -144.03381)" style="fill:#003915"/><path d="M153.3606,274.3246a.6881.6881,0,1,1,.6882-.68739.68809.68809,0,0,1-.6882.68739m0-1.10721a.41925.41925,0,1,0,.41951.41981A.41938.41938,0,0,0,153.3606,273.21739Z" transform="translate(-130.7733 -144.03381)" style="fill:#003915"/><path d="M145.7271,252.21429h-7.8394v-11.3479h7.8394Zm-8.17079.3309h8.5025v-12.0099h-8.5025Z" transform="translate(-130.7733 -144.03381)" style="fill:#003915"/><path d="M145.95171,249.8199a.6043.6043,0,0,0,.61249-.5936V243.8541a.60394.60394,0,0,0-.61249-.5938v.3308a.26967.26967,0,0,1,.2809.263v5.37221a.26946.26946,0,0,1-.2809.2628Z" transform="translate(-130.7733 -144.03381)" style="fill:#003915"/><path d="M143.3251,247.5621h-2.7077l-.6216-1.59731a2.4743,2.4743,0,0,1,1.6747.0918,4.15139,4.15139,0,0,0,1.24069.2413,2.44924,2.44924,0,0,0,.9366-.1882Zm-2.9342.3308h3.1669l.89211-2.48-.3907.22479a2.26646,2.26646,0,0,1-1.148.32941,3.89168,3.89168,0,0,1-1.1438-.22681,3.89713,3.89713,0,0,0-1.144-.2282,2.01794,2.01794,0,0,0-.91249.218l-.1358.06749Z" transform="translate(-130.7733 -144.03381)" style="fill:#003915"/><path d="M183.1136,273.5757v-30.085a2.161,2.161,0,0,1,2.1656-2.15149H195.6906a2.161,2.161,0,0,1,2.166,2.15149v30.085a2.1609,2.1609,0,0,1-2.166,2.1512H185.27921a2.16094,2.16094,0,0,1-2.1656-2.1512m14.51309-30.085a1.93122,1.93122,0,0,0-1.9361-1.92189H185.27921a1.93109,1.93109,0,0,0-1.9355,1.92189v30.085a1.93139,1.93139,0,0,0,1.9355,1.9221H195.6906a1.93152,1.93152,0,0,0,1.9361-1.9221Z" transform="translate(-130.7733 -144.03381)" style="fill:#003915"/><path d="M196.3647,246.4765a2.57705,2.57705,0,0,0-2.58211-2.5654h-6.59479a2.57667,2.57667,0,0,0-2.5818,2.5654v24.1132a2.57709,2.57709,0,0,0,2.5818,2.56589h2.06189a.39664.39664,0,0,0-.142.22821h-1.91989a2.80638,2.80638,0,0,1-2.8125-2.7941V246.4765a2.80657,2.80657,0,0,1,2.8125-2.7944h6.59479a2.80653,2.80653,0,0,1,2.8123,2.7944v24.1132a2.80634,2.80634,0,0,1-2.8123,2.7941h-1.9202a.39569.39569,0,0,0-.1414-.22821h2.0616a2.57747,2.57747,0,0,0,2.58211-2.56589Z" transform="translate(-130.7733 -144.03381)" style="fill:#003915"/><path d="M195.05141,248.0239a1.2666,1.2666,0,0,0-1.26881-1.26109h-6.59479a1.26627,1.26627,0,0,0-1.2682,1.26109v22.56581a1.2662,1.2662,0,0,0,1.2682,1.2614h2.84489v.2287h-2.84489a1.49612,1.49612,0,0,1-1.4989-1.4901V248.0239a1.49555,1.49555,0,0,1,1.4989-1.48929h6.59479a1.49525,1.49525,0,0,1,1.499,1.48929v22.56581a1.49582,1.49582,0,0,1-1.499,1.4901H190.9375v-.2287h2.84509a1.26653,1.26653,0,0,0,1.26881-1.2614Z" transform="translate(-130.7733 -144.03381)" style="fill:#003915"/><path d="M189.7523,268.68449a.73335.73335,0,1,1,.7336.7299.73151.73151,0,0,1-.7336-.7299m1.2365,0a.50331.50331,0,1,0-.5029.50031A.50192.50192,0,0,0,190.9888,268.68449Z" transform="translate(-130.7733 -144.03381)" style="fill:#003915"/><rect x="59.1893" y="124.53648" width="1.0457" height="0.22931" style="fill:#003915"/><rect x="59.59731" y="124.13219" width="0.2307" height="1.0378" style="fill:#003915"/><path d="M190.0327,273.18449h-.53751a.27982.27982,0,0,0-.28029.27861v.50519a.28032.28032,0,0,0,.28029.27921h.53751v.2287h-.53751a.51032.51032,0,0,1-.51109-.5079v-.50519a.50971.50971,0,0,1,.51109-.5074h.53751Zm1.722.27861a.27978.27978,0,0,0-.28011-.27861h-.53709v-.22879h.53709a.50926.50926,0,0,1,.5108.5074v.50519a.50987.50987,0,0,1-.5108.5079h-.53709v-.2287h.53709a.28028.28028,0,0,0,.28011-.27921Z" transform="translate(-130.7733 -144.03381)" style="fill:#003915"/><path d="M189.9173,274.4743v-3.2012a.56766.56766,0,0,1,1.1353,0v3.2012a.56766.56766,0,0,1-1.1353,0m.90511-3.2012a.33721.33721,0,0,0-.67441,0v3.2012a.33721.33721,0,0,0,.67441,0Z" transform="translate(-130.7733 -144.03381)" style="fill:#003915"/><path d="M144.07851,187.7724V176.0032H155.8474v11.7692Zm.2495-11.51981v11.2706H155.5985v-11.2706Z" transform="translate(-130.7733 -144.03381)" style="fill:#003915"/><path d="M154.7493,181.88789a3.91958,3.91958,0,0,0-7.7142-.9816.30023.30023,0,0,0-.1976-.0743h-.04059a4.16867,4.16867,0,1,1-.0002,2.1115h.04079a.29856.29856,0,0,0,.19731-.0739,3.91974,3.91974,0,0,0,7.71449-.9817" transform="translate(-130.7733 -144.03381)" style="fill:#003915"/><path d="M147.3486,181.88789a3.4815,3.4815,0,1,1,3.4818,3.48131,3.48571,3.48571,0,0,1-3.4818-3.48131m6.7135,0a3.2319,3.2319,0,1,0-3.2317,3.23181A3.23546,3.23546,0,0,0,154.0621,181.88789Z" transform="translate(-130.7733 -144.03381)" style="fill:#003915"/><path d="M149.9278,181.88789a.90225.90225,0,1,1,.9026.9026.90335.90335,0,0,1-.9026-.9026m1.55571,0a.653.653,0,1,0-.65311.65311A.65425.65425,0,0,0,151.48351,181.88789Z" transform="translate(-130.7733 -144.03381)" style="fill:#003915"/><rect x="19.3997" y="37.72939" width="1.31389" height="0.2494" style="fill:#003915"/><rect x="19.93179" y="37.19728" width="0.24971" height="1.3136" style="fill:#003915"/><path d="M146.0237,182.64169V181.1342a.427.427,0,0,1,.42661-.42661h.38719a.42686.42686,0,0,1,.42661.42661v1.50749a.42693.42693,0,0,1-.42661.42661h-.38719a.42706.42706,0,0,1-.42661-.42661m.99091-1.50749a.17765.17765,0,0,0-.17711-.17751h-.38719a.17753.17753,0,0,0-.1772.17751v1.50749a.17719.17719,0,0,0,.1772.17711h.38719a.17731.17731,0,0,0,.17711-.17711Z" transform="translate(-130.7733 -144.03381)" style="fill:#003915"/><path d="M146.14841,181.668h-.0865a.21965.21965,0,1,0,0,.4393h.0865v.2498h-.0865a.46945.46945,0,0,1,0-.9389h.0865Zm2.59.21989a.22042.22042,0,0,0-.2205-.21989H147.1394v-.2498h1.37849a.46945.46945,0,1,1,0,.9389H147.1394v-.2498h1.37849A.22.22,0,0,0,148.7384,181.88789Z" transform="translate(-130.7733 -144.03381)" style="fill:#003915"/><path d="M144.5598,159.10761v7.15659a1.49606,1.49606,0,0,0,1.4948,1.49411h8.29871a1.49591,1.49591,0,0,0,1.49409-1.49411v-7.15659a1.49567,1.49567,0,0,0-1.49409-1.4942H146.0546a1.49582,1.49582,0,0,0-1.4948,1.4942m11.0546,7.15659a1.26262,1.26262,0,0,1-1.26109,1.26111H146.0546a1.26269,1.26269,0,0,1-1.2617-1.26111v-7.15659a1.263,1.263,0,0,1,1.2617-1.26172h8.29871a1.26294,1.26294,0,0,1,1.26109,1.26172Z" transform="translate(-130.7733 -144.03381)" style="fill:#003915"/><path d="M145.3788,159.10761v7.15659a.67617.67617,0,0,0,.6758.67581h7.0106a.67636.67636,0,0,0,.6758-.67581v-7.15659a.67654.67654,0,0,0-.6758-.67639h-7.0106a.67636.67636,0,0,0-.6758.67639m8.1292,7.15659a.44332.44332,0,0,1-.44279.44312h-7.0106a.44352.44352,0,0,1-.4431-.44312v-7.15659a.44381.44381,0,0,1,.4431-.44391h7.0106a.44361.44361,0,0,1,.44279.44391Z" transform="translate(-130.7733 -144.03381)" style="fill:#003915"/><path d="M154.1597,165.564a.4742.4742,0,1,0,.4742-.47418.47511.47511,0,0,0-.4742.47418m.71541,0a.2412.2412,0,1,1-.24121-.24149A.24185.24185,0,0,1,154.87511,165.564Z" transform="translate(-130.7733 -144.03381)" style="fill:#003915"/><path d="M154.1597,163.96329a.4742.4742,0,1,0,.4742-.47479.475.475,0,0,0-.4742.47479m.71541,0a.2412.2412,0,1,1-.24121-.24179A.24161.24161,0,0,1,154.87511,163.96329Z" transform="translate(-130.7733 -144.03381)" style="fill:#003915"/><rect x="16.74789" y="19.25739" width="0.23271" height="2.7196" style="fill:#003915"/><rect x="15.5038" y="20.50067" width="2.7195" height="0.23273" style="fill:#003915"/><path d="M146.74049,164.651a.8969.8969,0,1,0,.89691-.89661.898.898,0,0,0-.89691.89661m1.56111,0a.6643.6643,0,1,1-.6642-.66391A.66558.66558,0,0,1,148.30161,164.651Z" transform="translate(-130.7733 -144.03381)" style="fill:#003915"/><rect x="20.59309" y="19.25739" width="0.23241" height="2.7196" style="fill:#003915"/><rect x="19.34869" y="20.50067" width="2.72041" height="0.23273" style="fill:#003915"/><path d="M150.5849,164.651a.89715.89715,0,1,0,.8974-.89661.89858.89858,0,0,0-.8974.89661m1.5619,0a.66475.66475,0,1,1-.66451-.66391A.66545.66545,0,0,1,152.1468,164.651Z" transform="translate(-130.7733 -144.03381)" style="fill:#003915"/><rect x="16.74789" y="15.32687" width="0.23271" height="2.7193" style="fill:#003915"/><rect x="15.5038" y="16.56958" width="2.7195" height="0.233" style="fill:#003915"/><path d="M146.74049,160.71991a.8969.8969,0,1,0,.89691-.89691.89783.89783,0,0,0-.89691.89691m1.56111,0a.6643.6643,0,1,1-.6642-.66391A.66608.66608,0,0,1,148.30161,160.71991Z" transform="translate(-130.7733 -144.03381)" style="fill:#003915"/><rect x="20.59309" y="15.32687" width="0.23241" height="2.7193" style="fill:#003915"/><rect x="19.34869" y="16.56958" width="2.72041" height="0.233" style="fill:#003915"/><path d="M150.5849,160.71991a.89715.89715,0,1,0,.8974-.89691.89844.89844,0,0,0-.8974.89691m1.5619,0a.66475.66475,0,1,1-.66451-.66391A.66594.66594,0,0,1,152.1468,160.71991Z" transform="translate(-130.7733 -144.03381)" style="fill:#003915"/><path d="M154.1597,161.24969a.4742.4742,0,1,0,.4742-.47449.47477.47477,0,0,0-.4742.47449m.71541,0a.2412.2412,0,1,1-.24121-.24179A.24168.24168,0,0,1,154.87511,161.24969Z" transform="translate(-130.7733 -144.03381)" style="fill:#003915"/><path d="M154.1597,159.6481a.4742.4742,0,1,0,.4742-.47391.47467.47467,0,0,0-.4742.47391m.71541,0a.2412.2412,0,1,1-.24121-.24152A.2417.2417,0,0,1,154.87511,159.6481Z" transform="translate(-130.7733 -144.03381)" style="fill:#003915"/><path d="M139.7957,273.7562a.8094.8094,0,1,0,.2347.57091.81021.81021,0,0,0-.2347-.57091m-.5726-1.0363a1.6069,1.6069,0,1,1-1.13651.4705A1.60285,1.60285,0,0,1,139.2231,272.71989Z" transform="translate(-130.7733 -144.03381)" style="fill:#003915"/><path d="M134.68111,220.75909a3.90785,3.90785,0,1,1-3.90781,3.90761,3.90811,3.90811,0,0,1,3.90781-3.90761" transform="translate(-130.7733 -144.03381)" style="fill:#558e42;fill-rule:evenodd"/><polygon points="6.312 80.633 4.997 80.255 3.682 79.876 3.682 80.633 3.682 81.39 4.997 81.012 6.312 80.633" style="fill:#fdfdfd;fill-rule:evenodd"/><rect x="1.50369" y="80.45398" width="2.2814" height="0.38411" style="fill:#fdfdfd"/><path d="M244.7932,187.3772c-.7319,0-1.2359-.6179-1.2359-1.7399s.504-1.7399,1.2359-1.7399,1.2359.618,1.2359,1.7399-.504,1.7399-1.2359,1.7399m0,.396c.972,0,1.67981-.7979,1.67981-2.13589s-.70781-2.13589-1.67981-2.13589-1.6739.798-1.6739,2.13589S243.8212,187.77319,244.7932,187.77319Zm-3.6301-2.43579,1.188-1.49411v-.30589h-2.7v.3838h2.1481l-1.16389,1.45819v.318h.2999c.77991,0,1.13391.33,1.13391.834,0,.52179-.3838.84579-1.08.84579a1.84173,1.84173,0,0,1-1.302-.48579l-.21.3418a2.1845,2.1845,0,0,0,1.512.54c1.014,0,1.5239-.54,1.5239-1.24179C242.513,185.8593,242.0631,185.3853,241.1631,185.3374Zm-2.42979,1.77589a.31414.31414,0,0,0-.3181.324.30322.30322,0,0,0,.216.30589l-.2041.8699h.288l.252-.828a.97556.97556,0,0,0,.0842-.34779A.314.314,0,0,0,238.73331,187.1133Zm-2.562-1.4281c-.648,0-1.05589-.354-1.05589-.9059a.919.919,0,0,1,1.02589-.9119c.72591,0,1.11.4379,1.11.9A.97206.97206,0,0,1,236.1713,185.6852Zm-.0479-2.18379a1.30845,1.30845,0,0,0-1.434,1.28979,1.27144,1.27144,0,0,0,1.41589,1.26,1.34239,1.34239,0,0,0,1.2841-.72c.0119.12611.01779.246.01779.3421,0,1.1398-.58189,1.72211-1.4879,1.72211a1.472,1.472,0,0,1-.8158-.1982l-.174.3481a1.927,1.927,0,0,0,.99579.22789c1.14011,0,1.91991-.74409,1.91991-2.17189C237.8452,184.2753,237.2394,183.5014,236.1234,183.5014Zm-3.7321.036v.3838h.9902v3.816h.432v-4.1998Z" transform="translate(-130.7733 -144.03381)" style="fill:#6e6e6e;fill-rule:evenodd"/><path d="M243.269,248.57719c-.7319,0-1.2359-.61789-1.2359-1.7399s.504-1.7399,1.2359-1.7399,1.2359.618,1.2359,1.7399-.504,1.7399-1.2359,1.7399m0,.396c.972,0,1.67981-.79791,1.67981-2.13591s-.70781-2.13589-1.67981-2.13589-1.6739.798-1.6739,2.13589S242.297,248.97321,243.269,248.97321Zm-5.20779-4.23581v1.16991h.426v-.7861h2.16l-1.728,3.816h.468l1.75809-3.89389v-.30591Zm-.7498,3.5759a.31407.31407,0,0,0-.318.324.30316.30316,0,0,0,.216.30591l-.2041.86989h.288l.252-.828a.97583.97583,0,0,0,.0842-.34779A.314.314,0,0,0,237.3114,248.31329Zm-2.7541-3.5759v.3838h.9901v3.816h.432v-4.1998Zm-2.166,0v.3838h.9902v3.816h.432v-4.1998Z" transform="translate(-130.7733 -144.03381)" style="fill:#6e6e6e;fill-rule:evenodd"/><path d="M170.7352,254.57761c-.7319,0-1.2359-.618-1.2359-1.73991s.504-1.7399,1.2359-1.7399,1.2359.6179,1.2359,1.7399-.504,1.73991-1.2359,1.73991m0,.396c.972,0,1.6799-.798,1.6799-2.13591s-.7079-2.13589-1.6799-2.13589-1.6738.7979-1.6738,2.13589S169.7632,254.9736,170.7352,254.9736Zm-4.5-.42011,1.4281-1.4037a1.72919,1.72919,0,0,0,.69-1.31419c0-.7018-.54-1.1338-1.39211-1.1338a1.88727,1.88727,0,0,0-1.4879.59981l.3058.26419a1.42621,1.42621,0,0,1,1.1461-.468c.642,0,.9839.29991.9839.786,0,.28769-.0899.56979-.5638,1.0378l-1.7462,1.7101v.30591h2.94609v-.38411Zm-1.55991-.23979a.314.314,0,0,0-.318.324.303.303,0,0,0,.216.3058l-.2041.87h.288l.252-.828a.976.976,0,0,0,.0842-.34781A.314.314,0,0,0,164.67529,254.31371Zm-2.622-1.8542h-.54l.144-1.33791h1.91989v-.3838H161.2794l-.216,2.1058h.8941c1.06779,0,1.4037.33591,1.4037.8759,0,.51-.3779.85811-1.0919.85811a1.82143,1.82143,0,0,1-1.2901-.4859l-.2097.34189a2.16853,2.16853,0,0,0,1.50571.54c1.0262,0,1.5239-.55791,1.5239-1.2719C163.7991,252.9576,163.3192,252.4595,162.0533,252.4595Z" transform="translate(-130.7733 -144.03381)" style="fill:#6e6e6e;fill-rule:evenodd"/><path d="M155.0744,224.32c-.7319,0-1.2359-.61789-1.2359-1.7399s.504-1.7399,1.2359-1.7399,1.2359.618,1.2359,1.7399-.504,1.7399-1.2359,1.7399m0,.396c.972,0,1.67979-.7979,1.67979-2.13591s-.70779-2.13589-1.67979-2.13589-1.6739.798-1.6739,2.13589S154.1024,224.716,155.0744,224.716Zm-3.97191-.396c-.73189,0-1.2359-.61789-1.2359-1.7399s.504-1.7399,1.2359-1.7399,1.2359.618,1.2359,1.7399S151.8344,224.32,151.10249,224.32Zm0,.396c.972,0,1.67981-.7979,1.67981-2.13591s-.70781-2.13589-1.67981-2.13589-1.67389.798-1.67389,2.13589S150.13049,224.716,151.10249,224.716Zm-2.54979-.6599a.31405.31405,0,0,0-.318.324.30314.30314,0,0,0,.216.30591l-.2041.86989h.288l.252-.828a.976.976,0,0,0,.0842-.34781A.314.314,0,0,0,148.5527,224.05611Zm-3.24.23979,1.4281-1.4037a1.72917,1.72917,0,0,0,.69-1.3141c0-.70189-.54-1.1339-1.39211-1.1339a1.88727,1.88727,0,0,0-1.4879.59981l.3058.26419a1.42655,1.42655,0,0,1,1.1461-.468c.642,0,.9839.29991.9839.7861,0,.2877-.0899.5697-.5638,1.0377l-1.7462,1.71021V224.68h2.94609v-.38409Z" transform="translate(-130.7733 -144.03381)" style="fill:#6e6e6e;fill-rule:evenodd"/><path d="M280.9675,183.51869c-.7319,0-1.2359-.618-1.2359-1.7399s.504-1.7399,1.2359-1.7399,1.2359.6179,1.2359,1.7399-.504,1.7399-1.2359,1.7399m0,.396c.972,0,1.67981-.798,1.67981-2.13591s-.70779-2.13589-1.67981-2.13589-1.6738.7979-1.6738,2.13589S279.99551,183.9147,280.9675,183.9147Zm-2.0701-1.52391h-.8399v-.972h-.4198v.972h-1.8241l2.1481-2.7119h-.48019l-2.2258,2.78391v.3118h2.36978v1.1041h.432v-1.1041h.8399Zm-4.43369.864a.314.314,0,0,0-.318.324.303.303,0,0,0,.216.3058l-.2041.87h.288l.252-.828a.97638.97638,0,0,0,.0842-.34781A.314.314,0,0,0,274.46371,183.25481Zm-2.2861-1.77591,1.188-1.4942v-.3058h-2.7v.3838h2.1481l-1.16388,1.4581v.3181h.2999c.77979,0,1.13379.3299,1.13379.83391,0,.5219-.38379.84589-1.08.84589a1.84109,1.84109,0,0,1-1.30191-.48589l-.21011.34189a2.18514,2.18514,0,0,0,1.512.54c1.014,0,1.5239-.54,1.5239-1.2419C273.5274,182.0007,273.07761,181.52679,272.17761,181.4789Z" transform="translate(-130.7733 -144.03381)" style="fill:#6e6e6e;fill-rule:evenodd"/><rect x="0.22389" y="51.80258" width="1.06041" height="7.83611" style="fill:#003915"/><path d="M285.7218,176.5208l-.8714-.69279h-.17859v1.57489h.224V176.15l.85068.67891h.1853v-.1749c0-.4552.1925-.66161.48651-.66161.30438,0,.4935.224.4935.6299a1.07438,1.07438,0,0,1-.28351.7597l.19962.12239a1.27481,1.27481,0,0,0,.31488-.8821c0-.59129-.31488-.889-.72449-.889-.39209,0-.6684.2625-.6965.78749m.203,2.1387c0,.3779-.20639.616-.52841.616a.53639.53639,0,0,1-.5321-.59869c0-.42351.25571-.6474.525-.6474A.56713.56713,0,0,1,285.9248,178.6595Zm-1.2739.0278a.76317.76317,0,0,0,.75259.8365.7416.7416,0,0,0,.73471-.826.78261.78261,0,0,0-.4198-.7489c.07339-.0071.14337-.0105.19959-.0105.665,0,1.0043.3396,1.0043.868a.85864.85864,0,0,1-.11542.47591l.203.1015a1.12376,1.12376,0,0,0,.1329-.58081c0-.665-.434-1.12-1.26709-1.12C285.10239,177.683,284.65091,178.0365,284.65091,178.6873ZM286.7579,180a.18314.18314,0,0,0,.189.18539.17662.17662,0,0,0,.17831-.12579l.50769.119v-.16811l-.483-.14709a.57549.57549,0,0,0-.203-.049A.18316.18316,0,0,0,286.7579,180Zm-1.0361,1.3335-.8714-.69279h-.17859v1.57491h.224v-1.25291l.85068.67891h.1853v-.1749c0-.4552.1925-.66161.48651-.66161.30438,0,.4935.22391.4935.62981a1.07415,1.07415,0,0,1-.28351.75969l.19962.1225a1.27521,1.27521,0,0,0,.31488-.88219c0-.59131-.31488-.8889-.72449-.8889C286.02621,180.546,285.74991,180.8085,285.7218,181.3335Z" transform="translate(-130.7733 -144.03381)" style="fill:#434242"/><path d="M252.1619,173.84261c0,.4269-.3606.72119-1.0148.72119-.6546,0-1.01509-.2943-1.01509-.72119s.36049-.72081,1.01509-.72081c.65421,0,1.0148.2939,1.0148.72081m.231,0c0-.56691-.4655-.9799-1.2458-.9799-.7807,0-1.2462.413-1.2462.9799s.4655.97659,1.2462.97659C251.9274,174.8192,252.3929,174.40961,252.3929,173.84261Zm-.2449,2.6252-.819-.8331a1.00758,1.00758,0,0,0-.76639-.40251c-.40971,0-.66171.31491-.66171.8121a1.10129,1.10129,0,0,0,.35011.868l.1539-.17859a.83242.83242,0,0,1-.2729-.66841c0-.3745.1749-.574.4583-.574.16811,0,.3325.0524.6055.3288l.9975,1.01849h.1786v-1.7184H252.148Zm-.14009.9099a.18316.18316,0,0,0,.1891.18539.17667.17667,0,0,0,.1783-.1259l.50769.11911v-.16811l-.483-.14709a.574.574,0,0,0-.203-.0491A.18326.18326,0,0,0,252.0079,177.3777Zm-1.036,1.3334-.8714-.69281h-.17859v1.575h.224v-1.2529l.8506.67891h.18539v-.1749c0-.45531.1925-.66161.4864-.66161.30449,0,.49359.22389.49359.62981a1.07434,1.07434,0,0,1-.28349.75969l.1996.1225a1.27518,1.27518,0,0,0,.3149-.88219c0-.59131-.3149-.8889-.72459-.8889C251.27631,177.92371,250.99989,178.1862,250.97189,178.71111Z" transform="translate(-130.7733 -144.03381)" style="fill:#434242"/><path d="M160.4115,170.712c0,.4269-.3606.72119-1.0148.72119-.6546,0-1.01509-.2943-1.01509-.72119s.36049-.72081,1.01509-.72081c.65421,0,1.0148.294,1.0148.72081m.231,0c0-.56691-.4655-.9799-1.2458-.9799-.7807,0-1.24609.413-1.24609.9799s.46539.97659,1.24609.97659C160.177,171.6886,160.6425,171.279,160.6425,170.712Zm-2.471,2.39049h.224v-.57739h2.226v-.252h-2.45Zm2.086.3569a.18317.18317,0,0,0,.18909.18541.17676.17676,0,0,0,.1783-.1259l.50771.11909v-.16811l-.483-.14709a.57436.57436,0,0,0-.203-.0491A.1832.1832,0,0,0,160.25751,173.4594Zm.14009,1.89011-.819-.8331a1.00756,1.00756,0,0,0-.7664-.4025c-.40959,0-.66159.3149-.66159.81209a1.1013,1.1013,0,0,0,.35.868l.154-.1786a.832.832,0,0,1-.273-.6684c0-.3744.1749-.574.4583-.574.16809,0,.33249.0524.6055.3288l.9975,1.01851h.1786v-1.71841h-.22391Z" transform="translate(-130.7733 -144.03381)" style="fill:#434242"/><path d="M277.42929,244.8477c0,.42349-.2554.64769-.525.64769a.56726.56726,0,0,1-.5354-.63019c0-.37781.2063-.61591.52841-.61591a.53605.53605,0,0,1,.532.5984m-1.2739-.021a.7836.7836,0,0,0,.4198.74919c-.07339.00681-.1434.0105-.19949.0105-.6647,0-1.0043-.3396-1.0043-.868a.86051.86051,0,0,1,.1153-.4762l-.20288-.1015a1.12561,1.12561,0,0,0-.133.5811c0,.665.434,1.12,1.26712,1.12.77328,0,1.22488-.3535,1.22488-1.00459a.76334.76334,0,0,0-.75259-.8365A.74175.74175,0,0,0,276.1554,244.82671Zm1.25632,2.35559c0,.4269-.3605.7211-1.0148.7211-.65451,0-1.015-.2942-1.015-.7211s.3605-.7209,1.015-.7209C277.05121,246.4614,277.41171,246.7554,277.41171,247.1823Zm.23108,0c0-.56689-.46548-.98-1.24588-.98-.78061,0-1.24612.4131-1.24612.98s.46552.9765,1.24612.9765C277.17731,248.1588,277.64279,247.74921,277.64279,247.1823Zm-.385,1.48761a.18315.18315,0,0,0,.18909.18539.17669.17669,0,0,0,.17831-.1259l.50769.11909v-.16809l-.483-.14711a.57443.57443,0,0,0-.203-.0491A.18321.18321,0,0,0,277.25781,248.66991Zm-1.036,1.33339-.8714-.69279h-.17859v1.575h.22388v-1.2529l.85071.67889h.18539v-.1749c0-.45529.1925-.6617.48642-.6617.30447,0,.4935.224.4935.6299a1.07434,1.07434,0,0,1-.28342.7597l.19949.12239a1.27429,1.27429,0,0,0,.315-.8821c0-.59129-.315-.8889-.72458-.8889C276.52621,249.2159,276.24979,249.4783,276.2218,250.0033Z" transform="translate(-130.7733 -144.03381)" style="fill:#434242"/><path d="M180.66161,253.8188c0,.4269-.36061.7211-1.0148.7211-.65451,0-1.01511-.2942-1.01511-.7211s.3606-.7209,1.01511-.7209c.65419,0,1.0148.294,1.0148.7209m.231,0c0-.567-.46539-.98-1.24579-.98-.7807,0-1.24611.413-1.24611.98s.46541.9765,1.24611.9765C180.4272,254.7953,180.89259,254.3857,180.89259,253.8188Zm-.21339,2.2784c0,.434-.1891.68941-.4935.68941-.3011,0-.4901-.2554-.4901-.68941s.189-.693.4901-.693C180.4901,255.40421,180.6792,255.6633,180.6792,256.0972Zm-1.624.6055c-.273,0-.4411-.2347-.4411-.6055,0-.3676.16809-.6091.44449-.6091.2662,0,.43771.2276.43771.6091C179.49631,256.4785,179.3248,256.7027,179.05521,256.7027Zm.53209-1.078a.555.555,0,0,0-.5392-.392c-.39879,0-.6474.34641-.6474.8645,0,.5179.24861.8575.6474.8575a.553.553,0,0,0,.5392-.38519.61093.61093,0,0,0,.60181.47249c.434,0,.70349-.3568.70349-.94479,0-.5845-.2695-.9521-.70349-.9521A.61689.61689,0,0,0,179.5873,255.62469Zm.92041,1.9879a.18317.18317,0,0,0,.18909.18541.17678.17678,0,0,0,.17831-.12581l.5076.119v-.16811l-.483-.14709a.57536.57536,0,0,0-.20291-.049A.18318.18318,0,0,0,180.50771,257.61259Zm-2.086,1.6064h.22389v-.57739h2.2261v-.252h-2.45Z" transform="translate(-130.7733 -144.03381)" style="fill:#434242"/><path d="M142.429,220.1174c0,.42349-.2554.64771-.5249.64771a.56727.56727,0,0,1-.53549-.6302c0-.37781.20639-.61591.5284-.61591a.53606.53606,0,0,1,.532.5984m-1.2739-.021a.78349.78349,0,0,0,.41989.74919c-.0735.00681-.14349.0105-.1996.0105-.6647,0-1.0043-.3396-1.0043-.868a.86057.86057,0,0,1,.1154-.4762l-.203-.1015a1.1259,1.1259,0,0,0-.13289.5811c0,.665.4339,1.12,1.267,1.12.7733,0,1.2249-.3535,1.2249-1.00459a.76335.76335,0,0,0-.75261-.8365A.74175.74175,0,0,0,141.15511,220.09641Zm-.98361,3.0764h.6826v-.24861h-.4586v-1.26l2.226,1.008v-.2729l-2.27141-1.0253h-.1786Zm2.086.43739a.18315.18315,0,0,0,.18909.18539.17668.17668,0,0,0,.1783-.12579l.50771.119v-.16811l-.483-.14709a.57371.57371,0,0,0-.203-.049A.18317.18317,0,0,0,142.25751,223.6102Zm-2.086,1.6064h.224v-.57739h2.226v-.252h-2.45Z" transform="translate(-130.7733 -144.03381)" style="fill:#434242"/><line x1="155.18861" y1="39.60568" x2="155.18861" y2="63.19418" style="fill:none;stroke:#b1b2b2;stroke-miterlimit:22.92558479309082;stroke-width:0.2160000056028366px"/><line x1="120.43871" y1="36.85548" x2="120.43871" y2="68.75198" style="fill:none;stroke:#b1b2b2;stroke-miterlimit:22.92558479309082;stroke-width:0.2160000056028366px"/><line x1="28.68829" y1="33.35548" x2="28.68829" y2="46.65369" style="fill:none;stroke:#b1b2b2;stroke-miterlimit:22.92558479309082;stroke-width:0.2160000056028366px"/><line x1="145.68861" y1="108.10568" x2="145.68861" y2="132.12738" style="fill:none;stroke:#b1b2b2;stroke-miterlimit:22.92558479309082;stroke-width:0.2160000056028366px"/><line x1="48.93961" y1="116.60568" x2="48.93961" y2="132.12738" style="fill:none;stroke:#b1b2b2;stroke-miterlimit:22.92558479309082;stroke-width:0.2160000056028366px"/><line x1="10.6888" y1="82.85548" x2="10.6888" y2="93.39899" style="fill:none;stroke:#b1b2b2;stroke-miterlimit:22.92558479309082;stroke-width:0.2160000056028366px"/><line x1="155.18861" y1="5.8606" x2="155.18861" y2="30.16658" style="fill:none;stroke:#b1b2b2;stroke-miterlimit:22.92558479309082;stroke-width:0.2160000056028366px"/><line x1="120.4407" y1="4.94958" x2="120.4407" y2="27.41638" style="fill:none;stroke:#b1b2b2;stroke-miterlimit:22.92558479309082;stroke-width:0.2160000056028366px"/><line x1="28.68829" y1="4.94958" x2="28.68829" y2="23.91647" style="fill:none;stroke:#b1b2b2;stroke-miterlimit:22.92558479309082;stroke-width:0.2160000056028366px"/><line x1="145.68861" y1="72.04419" x2="145.68861" y2="98.66658" style="fill:none;stroke:#b1b2b2;stroke-miterlimit:22.92558479309082;stroke-width:0.2160000056028366px"/><line x1="48.9384" y1="96.35748" x2="48.9384" y2="107.16658" style="fill:none;stroke:#b1b2b2;stroke-miterlimit:22.92558479309082;stroke-width:0.2160000056028366px"/><line x1="10.68829" y1="59.17769" x2="10.68829" y2="73.41649" style="fill:none;stroke:#b1b2b2;stroke-miterlimit:22.92558479309082;stroke-width:0.2160000056028366px"/><path d="M278.8974,153.47321c-.42691,0-.7211-.3606-.7211-1.01489,0-.65451.29419-1.015.7211-1.015s.72079.3605.72079,1.015c0,.6543-.29388,1.01489-.72079,1.01489m0,.231c.56689,0,.97989-.46548.97989-1.24588,0-.78061-.413-1.24612-.97989-1.24612s-.9765.46552-.9765,1.24612C277.9209,153.23871,278.33051,153.70419,278.8974,153.70419Zm-2.62521-.2449.8331-.819a1.00761,1.00761,0,0,0,.40253-.76648c0-.40961-.31491-.66162-.8121-.66162a1.10157,1.10157,0,0,0-.868.3501l.17859.1539a.83254.83254,0,0,1,.66843-.27289c.37448,0,.5741.1749.5741.45831,0,.16809-.05252.33249-.32892.6055l-1.01849.9975v.17859h1.71841v-.22391Zm-.90988-.14008a.18314.18314,0,0,0-.18539.18909.17673.17673,0,0,0,.12588.17828l-.11911.50772h.16812l.14709-.483a.57409.57409,0,0,0,.0491-.203A.18321.18321,0,0,0,275.3623,153.31921Zm-1.60641-2.086v.224h.57742v2.226h.252v-2.45Z" transform="translate(-130.7733 -144.03381)" style="fill:#434242"/><path d="M201.7979,153.47321c-.4269,0-.72119-.3606-.72119-1.01489,0-.65451.2943-1.015.72119-1.015s.72081.3605.72081,1.015c0,.6543-.29391,1.01489-.72081,1.01489m0,.231c.56691,0,.9799-.46548.9799-1.24588,0-.78061-.413-1.24612-.9799-1.24612s-.97659.46552-.97659,1.24612C200.8213,153.23871,201.2309,153.70419,201.7979,153.70419Zm-2.1138-.2135c-.42349,0-.6478-.2554-.6478-.5249a.56727.56727,0,0,1,.6302-.53549c.37779,0,.616.2063.616.52841A.5361.5361,0,0,1,199.6841,153.49069Zm.0209-1.2739a.78373.78373,0,0,0-.74921.4198c-.00679-.07339-.01039-.1434-.01039-.19949,0-.6647.33949-1.0043.86789-1.0043a.86057.86057,0,0,1,.47621.1153l.1015-.20291a1.12569,1.12569,0,0,0-.5811-.133c-.665,0-1.1199.434-1.1199,1.26712,0,.77328.35339,1.22488,1.00459,1.22488a.76339.76339,0,0,0,.8365-.75259A.74178.74178,0,0,0,199.705,152.2168Zm-1.52611,1.10242a.18315.18315,0,0,0-.18539.18909.17666.17666,0,0,0,.12579.17828l-.119.50772h.16809l.14711-.483a.57379.57379,0,0,0,.049-.203A.18318.18318,0,0,0,198.17889,153.31921Zm-1.5293-1.08142h-.315l.084-.78058h1.1199v-.224H196.198l-.12579,1.22861h.52119c.62311,0,.81931.1958.81931.511,0,.29739-.22061.5004-.6373.5004a1.06142,1.06142,0,0,1-.7523-.28351l-.12241.19949a1.26406,1.26406,0,0,0,.8784.315c.5984,0,.889-.32541.889-.74188C197.66811,152.52811,197.388,152.23779,196.6496,152.23779Z" transform="translate(-130.7733 -144.03381)" style="fill:#434242"/><path d="M243.4924,274.26109c-.42351,0-.64771-.25539-.64771-.525a.56724.56724,0,0,1,.6301-.53551c.37791,0,.616.20641.616.52841a.53612.53612,0,0,1-.5984.53209m.021-1.2739a.78342.78342,0,0,0-.74919.4198c-.00681-.07339-.01051-.1434-.01051-.19949,0-.66481.33961-1.00441.8679-1.00441a.86114.86114,0,0,1,.4763.1154l.10139-.203a1.12651,1.12651,0,0,0-.5811-.13289c-.665,0-1.11989.434-1.11989,1.26709,0,.7733.35339,1.22481,1.00459,1.22481a.76334.76334,0,0,0,.8365-.75261A.74173.74173,0,0,0,243.5134,272.9872Zm-2.31709,1.2739c-.434,0-.68941-.18909-.68941-.4935,0-.30109.2554-.4901.68941-.4901s.6931.189.6931.4901C241.8894,274.072,241.63029,274.26109,241.1963,274.26109Zm-.6055-1.624c0-.273.2347-.4411.6055-.4411.36769,0,.60919.16811.60919.4445,0,.26619-.2276.4377-.60919.4377C240.81509,273.0782,240.59081,272.90669,240.59081,272.6371Zm1.07809.5321a.555.555,0,0,0,.392-.5392c0-.3988-.34641-.6474-.86459-.6474-.5179,0-.8575.2486-.8575.6474a.55309.55309,0,0,0,.3853.5392.61093.61093,0,0,0-.47261.60179c0,.434.3569.70351.94481.70351.5845,0,.95219-.2695.95219-.70351A.61686.61686,0,0,0,241.6689,273.1692Zm-1.988.92039a.18318.18318,0,0,0-.18539.1891.17676.17676,0,0,0,.1259.1783l-.11909.5076h.16809l.14711-.483a.57388.57388,0,0,0,.04909-.2029A.1832.1832,0,0,0,239.68089,274.0896Zm-1.33339-1.0361.69279-.87129v-.1786h-1.57491v.22389h1.25291l-.67891.85071v.18539h.1749c.4552,0,.66161.1924.66161.4864,0,.3044-.224.4935-.6299.4935a1.074,1.074,0,0,1-.7597-.28349l-.12239.1996a1.27432,1.27432,0,0,0,.8821.3149c.59129,0,.889-.3149.889-.7245C239.135,273.358,238.8725,273.0816,238.3475,273.0535Z" transform="translate(-130.7733 -144.03381)" style="fill:#434242"/><path d="M166.7942,243.98621c-.37781,0-.61591-.20631-.61591-.52841a.53627.53627,0,0,1,.5986-.532c.42349,0,.64749.25571.64749.525a.56708.56708,0,0,1-.63019.5354m-.02771-1.27391a.76319.76319,0,0,0-.8365.75261.74161.74161,0,0,0,.826.7348.78276.78276,0,0,0,.7489-.41981c.0071.07341.0105.1434.0105.19951,0,.665-.3396,1.0043-.868,1.0043a.85875.85875,0,0,1-.47591-.11531l-.10149.20291a1.124,1.124,0,0,0,.5808.133c.665,0,1.12-.434,1.12-1.26711C167.7708,243.16389,167.4173,242.7123,166.76649,242.7123Zm-2.10359,2.26091c-.42691,0-.72121-.3605-.72121-1.0148,0-.65451.2943-1.015.72121-1.015s.72079.36049.72079,1.015C165.3837,244.6127,165.0898,244.97321,164.6629,244.97321Zm0,.23109c.56689,0,.9799-.4655.9799-1.2459,0-.78061-.413-1.24611-.9799-1.24611s-.97661.4655-.97661,1.24611C163.68629,244.7388,164.0959,245.2043,164.6629,245.2043Zm-1.4877-.385a.18314.18314,0,0,0-.1853.18909.17671.17671,0,0,0,.12581.17831l-.119.50769h.16809l.14711-.483a.5761.5761,0,0,0,.049-.203A.1832.1832,0,0,0,163.1752,244.81931Zm-1.3334-1.036.69281-.8714v-.17859H160.9597v.22389h1.2529l-.67889.85069v.18541h.1749c.4552,0,.66159.1925.66159.4864,0,.30449-.22389.4935-.6299.4935a1.07409,1.07409,0,0,1-.7596-.2834l-.1225.19949a1.27468,1.27468,0,0,0,.8821.315c.5914,0,.889-.315.889-.72459C162.6293,244.08769,162.36681,243.81129,161.8418,243.78329Z" transform="translate(-130.7733 -144.03381)" style="fill:#434242"/><line x1="141.4326" y1="8.48947" x2="134.68419" y2="8.48947" style="fill:none;stroke:#b1b2b2;stroke-miterlimit:22.92558479309082;stroke-width:0.2160000056028366px"/><line x1="63.9326" y1="8.48947" x2="12.9962" y2="8.48947" style="fill:none;stroke:#b1b2b2;stroke-miterlimit:22.92558479309082;stroke-width:0.2160000056028366px"/><line x1="105.4326" y1="129.25978" x2="73.45731" y2="129.25978" style="fill:none;stroke:#b1b2b2;stroke-miterlimit:22.92558479309082;stroke-width:0.2160000056028366px"/><line x1="28.9323" y1="99.98959" x2="7.1144" y2="99.98959" style="fill:none;stroke:#b1b2b2;stroke-miterlimit:22.92558479309082;stroke-width:0.2160000056028366px"/><line x1="157.6201" y1="8.48947" x2="150.87169" y2="8.48947" style="fill:none;stroke:#b1b2b2;stroke-miterlimit:22.92558479309082;stroke-width:0.2160000056028366px"/><line x1="124.6416" y1="8.48947" x2="73.3716" y2="8.48947" style="fill:none;stroke:#b1b2b2;stroke-miterlimit:22.92558479309082;stroke-width:0.2160000056028366px"/><line x1="149.8521" y1="129.25978" x2="114.8717" y2="129.25978" style="fill:none;stroke:#b1b2b2;stroke-miterlimit:22.92558479309082;stroke-width:0.2160000056028366px"/><line x1="66.85339" y1="99.98959" x2="38.3714" y2="99.98959" style="fill:none;stroke:#b1b2b2;stroke-miterlimit:22.92558479309082;stroke-width:0.2160000056028366px"/></svg>