<!DOCTYPE svg PUBLIC "-//W3C//DTD SVG 1.1//EN" "http://www.w3.org/Graphics/SVG/1.1/DTD/svg11.dtd">
<!-- Uploaded to: SVG Repo, www.svgrepo.com, Transformed by: SVG Repo Mixer Tools -->
<svg fill="#82624f" height="800px" width="800px" version="1.1" id="Layer_1" xmlns="http://www.w3.org/2000/svg" xmlns:xlink="http://www.w3.org/1999/xlink" viewBox="-51.2 -51.2 614.40 614.40" xml:space="preserve">
<g id="SVGRepo_bgCarrier" stroke-width="0"/>
<g id="SVGRepo_tracerCarrier" stroke-linecap="round" stroke-linejoin="round" stroke="#e6ddcd" stroke-width="30.72"> <g transform="translate(1 1)"> <g> <g> <path d="M408.6-1H101.4C86.893-1,75.8,10.093,75.8,24.6v17.067c0,11.491,6.963,20.833,17.067,24.224v436.576 c0,5.12,3.413,8.533,8.533,8.533h42.667H280.6h34.133h51.2H408.6c5.12,0,8.533-3.413,8.533-8.533V65.891 C427.237,62.5,434.2,53.157,434.2,41.667V24.6C434.2,10.093,423.107-1,408.6-1z M152.6,493.933v-51.2h119.467v51.2H152.6z M323.267,493.933v-51.2H357.4v51.2H323.267z M400.067,493.933h-25.6V434.2c0-5.12-3.413-8.533-8.533-8.533h-51.2 c-5.12,0-8.533,3.413-8.533,8.533v59.733h-17.067V434.2c0-5.12-3.413-8.533-8.533-8.533H144.067c-5.12,0-8.533,3.413-8.533,8.533 v59.733h-25.6V67.267h290.133V493.933z M417.133,41.667c0,5.12-3.413,8.533-8.533,8.533H101.4c-5.12,0-8.533-3.413-8.533-8.533 V24.6c0-5.12,3.413-8.533,8.533-8.533h307.2c5.12,0,8.533,3.413,8.533,8.533V41.667z"/> <path d="M229.4,135.533h51.2c5.12,0,8.533-3.413,8.533-8.533V92.867c0-5.12-3.413-8.533-8.533-8.533h-51.2 c-5.12,0-8.533,3.413-8.533,8.533V127C220.867,132.12,224.28,135.533,229.4,135.533z M237.933,101.4h34.133v17.067h-34.133V101.4 z"/> <path d="M144.067,135.533h51.2c5.12,0,8.533-3.413,8.533-8.533V92.867c0-5.12-3.413-8.533-8.533-8.533h-51.2 c-5.12,0-8.533,3.413-8.533,8.533V127C135.533,132.12,138.947,135.533,144.067,135.533z M152.6,101.4h34.133v17.067H152.6V101.4z "/> <path d="M314.733,135.533h51.2c5.12,0,8.533-3.413,8.533-8.533V92.867c0-5.12-3.413-8.533-8.533-8.533h-51.2 c-5.12,0-8.533,3.413-8.533,8.533V127C306.2,132.12,309.613,135.533,314.733,135.533z M323.267,101.4H357.4v17.067h-34.133V101.4 z"/> <path d="M229.4,203.8h51.2c5.12,0,8.533-3.413,8.533-8.533v-34.133c0-5.12-3.413-8.533-8.533-8.533h-51.2 c-5.12,0-8.533,3.413-8.533,8.533v34.133C220.867,200.387,224.28,203.8,229.4,203.8z M237.933,169.667h34.133v17.067h-34.133 V169.667z"/> <path d="M144.067,203.8h51.2c5.12,0,8.533-3.413,8.533-8.533v-34.133c0-5.12-3.413-8.533-8.533-8.533h-51.2 c-5.12,0-8.533,3.413-8.533,8.533v34.133C135.533,200.387,138.947,203.8,144.067,203.8z M152.6,169.667h34.133v17.067H152.6 V169.667z"/> <path d="M314.733,203.8h51.2c5.12,0,8.533-3.413,8.533-8.533v-34.133c0-5.12-3.413-8.533-8.533-8.533h-51.2 c-5.12,0-8.533,3.413-8.533,8.533v34.133C306.2,200.387,309.613,203.8,314.733,203.8z M323.267,169.667H357.4v17.067h-34.133 V169.667z"/> <path d="M229.4,272.067h51.2c5.12,0,8.533-3.413,8.533-8.533V229.4c0-5.12-3.413-8.533-8.533-8.533h-51.2 c-5.12,0-8.533,3.413-8.533,8.533v34.133C220.867,268.653,224.28,272.067,229.4,272.067z M237.933,237.933h34.133V255h-34.133 V237.933z"/> <path d="M144.067,272.067h51.2c5.12,0,8.533-3.413,8.533-8.533V229.4c0-5.12-3.413-8.533-8.533-8.533h-51.2 c-5.12,0-8.533,3.413-8.533,8.533v34.133C135.533,268.653,138.947,272.067,144.067,272.067z M152.6,237.933h34.133V255H152.6 V237.933z"/> <path d="M314.733,272.067h51.2c5.12,0,8.533-3.413,8.533-8.533V229.4c0-5.12-3.413-8.533-8.533-8.533h-51.2 c-5.12,0-8.533,3.413-8.533,8.533v34.133C306.2,268.653,309.613,272.067,314.733,272.067z M323.267,237.933H357.4V255h-34.133 V237.933z"/> <path d="M229.4,340.333h51.2c5.12,0,8.533-3.413,8.533-8.533v-34.133c0-5.12-3.413-8.533-8.533-8.533h-51.2 c-5.12,0-8.533,3.413-8.533,8.533V331.8C220.867,336.92,224.28,340.333,229.4,340.333z M237.933,306.2h34.133v17.067h-34.133 V306.2z"/> <path d="M144.067,340.333h51.2c5.12,0,8.533-3.413,8.533-8.533v-34.133c0-5.12-3.413-8.533-8.533-8.533h-51.2 c-5.12,0-8.533,3.413-8.533,8.533V331.8C135.533,336.92,138.947,340.333,144.067,340.333z M152.6,306.2h34.133v17.067H152.6 V306.2z"/> <path d="M314.733,340.333h51.2c5.12,0,8.533-3.413,8.533-8.533v-34.133c0-5.12-3.413-8.533-8.533-8.533h-51.2 c-5.12,0-8.533,3.413-8.533,8.533V331.8C306.2,336.92,309.613,340.333,314.733,340.333z M323.267,306.2H357.4v17.067h-34.133 V306.2z"/> <path d="M229.4,408.6h51.2c5.12,0,8.533-3.413,8.533-8.533v-34.133c0-5.12-3.413-8.533-8.533-8.533h-51.2 c-5.12,0-8.533,3.413-8.533,8.533v34.133C220.867,405.187,224.28,408.6,229.4,408.6z M237.933,374.467h34.133v17.067h-34.133 V374.467z"/> <path d="M144.067,408.6h51.2c5.12,0,8.533-3.413,8.533-8.533v-34.133c0-5.12-3.413-8.533-8.533-8.533h-51.2 c-5.12,0-8.533,3.413-8.533,8.533v34.133C135.533,405.187,138.947,408.6,144.067,408.6z M152.6,374.467h34.133v17.067H152.6 V374.467z"/> <path d="M314.733,408.6h51.2c5.12,0,8.533-3.413,8.533-8.533v-34.133c0-5.12-3.413-8.533-8.533-8.533h-51.2 c-5.12,0-8.533,3.413-8.533,8.533v34.133C306.2,405.187,309.613,408.6,314.733,408.6z M323.267,374.467H357.4v17.067h-34.133 V374.467z"/> </g> </g> </g> </g>
<g id="SVGRepo_iconCarrier"> <g transform="translate(1 1)"> <g> <g> <path d="M408.6-1H101.4C86.893-1,75.8,10.093,75.8,24.6v17.067c0,11.491,6.963,20.833,17.067,24.224v436.576 c0,5.12,3.413,8.533,8.533,8.533h42.667H280.6h34.133h51.2H408.6c5.12,0,8.533-3.413,8.533-8.533V65.891 C427.237,62.5,434.2,53.157,434.2,41.667V24.6C434.2,10.093,423.107-1,408.6-1z M152.6,493.933v-51.2h119.467v51.2H152.6z M323.267,493.933v-51.2H357.4v51.2H323.267z M400.067,493.933h-25.6V434.2c0-5.12-3.413-8.533-8.533-8.533h-51.2 c-5.12,0-8.533,3.413-8.533,8.533v59.733h-17.067V434.2c0-5.12-3.413-8.533-8.533-8.533H144.067c-5.12,0-8.533,3.413-8.533,8.533 v59.733h-25.6V67.267h290.133V493.933z M417.133,41.667c0,5.12-3.413,8.533-8.533,8.533H101.4c-5.12,0-8.533-3.413-8.533-8.533 V24.6c0-5.12,3.413-8.533,8.533-8.533h307.2c5.12,0,8.533,3.413,8.533,8.533V41.667z"/> <path d="M229.4,135.533h51.2c5.12,0,8.533-3.413,8.533-8.533V92.867c0-5.12-3.413-8.533-8.533-8.533h-51.2 c-5.12,0-8.533,3.413-8.533,8.533V127C220.867,132.12,224.28,135.533,229.4,135.533z M237.933,101.4h34.133v17.067h-34.133V101.4 z"/> <path d="M144.067,135.533h51.2c5.12,0,8.533-3.413,8.533-8.533V92.867c0-5.12-3.413-8.533-8.533-8.533h-51.2 c-5.12,0-8.533,3.413-8.533,8.533V127C135.533,132.12,138.947,135.533,144.067,135.533z M152.6,101.4h34.133v17.067H152.6V101.4z "/> <path d="M314.733,135.533h51.2c5.12,0,8.533-3.413,8.533-8.533V92.867c0-5.12-3.413-8.533-8.533-8.533h-51.2 c-5.12,0-8.533,3.413-8.533,8.533V127C306.2,132.12,309.613,135.533,314.733,135.533z M323.267,101.4H357.4v17.067h-34.133V101.4 z"/> <path d="M229.4,203.8h51.2c5.12,0,8.533-3.413,8.533-8.533v-34.133c0-5.12-3.413-8.533-8.533-8.533h-51.2 c-5.12,0-8.533,3.413-8.533,8.533v34.133C220.867,200.387,224.28,203.8,229.4,203.8z M237.933,169.667h34.133v17.067h-34.133 V169.667z"/> <path d="M144.067,203.8h51.2c5.12,0,8.533-3.413,8.533-8.533v-34.133c0-5.12-3.413-8.533-8.533-8.533h-51.2 c-5.12,0-8.533,3.413-8.533,8.533v34.133C135.533,200.387,138.947,203.8,144.067,203.8z M152.6,169.667h34.133v17.067H152.6 V169.667z"/> <path d="M314.733,203.8h51.2c5.12,0,8.533-3.413,8.533-8.533v-34.133c0-5.12-3.413-8.533-8.533-8.533h-51.2 c-5.12,0-8.533,3.413-8.533,8.533v34.133C306.2,200.387,309.613,203.8,314.733,203.8z M323.267,169.667H357.4v17.067h-34.133 V169.667z"/> <path d="M229.4,272.067h51.2c5.12,0,8.533-3.413,8.533-8.533V229.4c0-5.12-3.413-8.533-8.533-8.533h-51.2 c-5.12,0-8.533,3.413-8.533,8.533v34.133C220.867,268.653,224.28,272.067,229.4,272.067z M237.933,237.933h34.133V255h-34.133 V237.933z"/> <path d="M144.067,272.067h51.2c5.12,0,8.533-3.413,8.533-8.533V229.4c0-5.12-3.413-8.533-8.533-8.533h-51.2 c-5.12,0-8.533,3.413-8.533,8.533v34.133C135.533,268.653,138.947,272.067,144.067,272.067z M152.6,237.933h34.133V255H152.6 V237.933z"/> <path d="M314.733,272.067h51.2c5.12,0,8.533-3.413,8.533-8.533V229.4c0-5.12-3.413-8.533-8.533-8.533h-51.2 c-5.12,0-8.533,3.413-8.533,8.533v34.133C306.2,268.653,309.613,272.067,314.733,272.067z M323.267,237.933H357.4V255h-34.133 V237.933z"/> <path d="M229.4,340.333h51.2c5.12,0,8.533-3.413,8.533-8.533v-34.133c0-5.12-3.413-8.533-8.533-8.533h-51.2 c-5.12,0-8.533,3.413-8.533,8.533V331.8C220.867,336.92,224.28,340.333,229.4,340.333z M237.933,306.2h34.133v17.067h-34.133 V306.2z"/> <path d="M144.067,340.333h51.2c5.12,0,8.533-3.413,8.533-8.533v-34.133c0-5.12-3.413-8.533-8.533-8.533h-51.2 c-5.12,0-8.533,3.413-8.533,8.533V331.8C135.533,336.92,138.947,340.333,144.067,340.333z M152.6,306.2h34.133v17.067H152.6 V306.2z"/> <path d="M314.733,340.333h51.2c5.12,0,8.533-3.413,8.533-8.533v-34.133c0-5.12-3.413-8.533-8.533-8.533h-51.2 c-5.12,0-8.533,3.413-8.533,8.533V331.8C306.2,336.92,309.613,340.333,314.733,340.333z M323.267,306.2H357.4v17.067h-34.133 V306.2z"/> <path d="M229.4,408.6h51.2c5.12,0,8.533-3.413,8.533-8.533v-34.133c0-5.12-3.413-8.533-8.533-8.533h-51.2 c-5.12,0-8.533,3.413-8.533,8.533v34.133C220.867,405.187,224.28,408.6,229.4,408.6z M237.933,374.467h34.133v17.067h-34.133 V374.467z"/> <path d="M144.067,408.6h51.2c5.12,0,8.533-3.413,8.533-8.533v-34.133c0-5.12-3.413-8.533-8.533-8.533h-51.2 c-5.12,0-8.533,3.413-8.533,8.533v34.133C135.533,405.187,138.947,408.6,144.067,408.6z M152.6,374.467h34.133v17.067H152.6 V374.467z"/> <path d="M314.733,408.6h51.2c5.12,0,8.533-3.413,8.533-8.533v-34.133c0-5.12-3.413-8.533-8.533-8.533h-51.2 c-5.12,0-8.533,3.413-8.533,8.533v34.133C306.2,405.187,309.613,408.6,314.733,408.6z M323.267,374.467H357.4v17.067h-34.133 V374.467z"/> </g> </g> </g> </g>
</svg>