<?xml version="1.0" standalone="no"?>
<!DOCTYPE svg PUBLIC "-//W3C//DTD SVG 20010904//EN"
 "http://www.w3.org/TR/2001/REC-SVG-20010904/DTD/svg10.dtd">
<svg version="1.0" xmlns="http://www.w3.org/2000/svg"
 width="700.000000pt" height="700.000000pt" viewBox="0 0 700.000000 700.000000"
 preserveAspectRatio="xMidYMid meet">
<metadata>
Created by potrace 1.14, written by Peter Selinger 2001-2017
</metadata>
<g transform="translate(0.000000,700.000000) scale(0.100000,-0.100000)"
fill="#000000" stroke="none">
<path d="M1669 6406 c-68 -18 -137 -72 -173 -136 -31 -55 -31 -56 -34 -222 -4
-208 5 -247 83 -325 29 -28 65 -55 79 -59 l26 -6 0 -2500 c0 -2750 -5 -2544
61 -2567 45 -16 3533 -16 3578 0 66 23 61 -183 61 2567 l0 2500 26 6 c14 4 50
31 79 59 78 78 87 117 83 325 -3 163 -4 168 -32 220 -32 57 -81 102 -143 130
-36 16 -153 17 -1843 19 -1419 1 -1815 -1 -1851 -11z m3646 -210 c31 -31 38
-74 33 -201 -3 -99 -5 -107 -31 -133 l-27 -27 -1790 0 -1790 0 -27 27 c-26 26
-28 34 -31 133 -5 127 2 170 33 201 l24 24 1791 0 1791 0 24 -24z m-165 -2986
l0 -2430 -145 0 -145 0 0 360 0 361 -24 24 c-13 13 -39 26 -57 30 -19 3 -170
5 -336 3 l-303 -3 -27 -28 -28 -27 -3 -360 -3 -360 -94 0 -95 0 0 350 c0 388
-1 398 -61 419 -22 8 -268 11 -816 11 -837 0 -836 0 -862 -48 -7 -14 -11 -141
-11 -376 l0 -356 -145 0 -145 0 0 2430 0 2430 1650 0 1650 0 0 -2430z m-1460
-2140 l0 -290 -680 0 -680 0 0 290 0 290 680 0 680 0 0 -290z m980 0 l0 -290
-195 0 -195 0 0 290 0 290 195 0 195 0 0 -290z"/>
<path d="M2203 5439 c-61 -18 -63 -29 -63 -287 l0 -234 29 -29 29 -29 322 0
c352 0 366 2 389 58 9 20 11 95 9 250 l-3 222 -28 27 -27 28 -313 2 c-175 1
-326 -2 -344 -8z m517 -284 l0 -95 -195 0 -195 0 0 95 0 95 195 0 195 0 0 -95z"/>
<path d="M3190 5444 c-79 -28 -82 -37 -78 -307 3 -220 4 -227 26 -249 l23 -23
339 0 339 0 23 23 c22 22 23 29 26 249 2 147 -1 235 -8 252 -22 55 -29 56
-365 58 -170 1 -317 0 -325 -3z m500 -289 l0 -95 -190 0 -190 0 0 95 0 95 190
0 190 0 0 -95z"/>
<path d="M4154 5443 c-12 -2 -32 -15 -45 -29 -24 -25 -24 -30 -27 -246 -2
-155 0 -230 9 -250 23 -56 37 -58 389 -58 l322 0 29 29 29 29 0 234 c0 262 -2
269 -68 288 -35 9 -591 12 -638 3z m516 -288 l0 -95 -195 0 -195 0 0 95 0 95
195 0 195 0 0 -95z"/>
<path d="M2194 4660 c-51 -20 -54 -37 -54 -287 0 -231 0 -232 24 -260 l24 -28
314 -3 c356 -4 381 0 404 53 18 44 20 424 3 475 -20 57 -41 60 -386 59 -169 0
-318 -4 -329 -9z m526 -285 l0 -95 -195 0 -195 0 0 95 0 95 195 0 195 0 0 -95z"/>
<path d="M3161 4656 c-47 -26 -50 -46 -51 -279 0 -237 5 -262 55 -285 18 -8
117 -12 335 -12 333 0 350 2 376 51 19 37 20 444 2 484 -24 53 -40 55 -380 55
-241 -1 -319 -4 -337 -14z m529 -281 l0 -95 -190 0 -190 0 0 95 0 95 190 0
190 0 0 -95z"/>
<path d="M4138 4659 c-53 -20 -59 -56 -56 -299 l3 -220 28 -27 27 -28 336 0
336 0 24 28 c24 28 24 29 24 262 0 233 0 234 -24 262 l-24 28 -324 2 c-195 1
-334 -2 -350 -8z m532 -284 l0 -95 -195 0 -195 0 0 95 0 95 195 0 195 0 0 -95z"/>
<path d="M2169 3861 l-29 -29 0 -237 c0 -235 0 -236 24 -260 34 -33 73 -37
403 -33 l293 3 27 28 28 27 3 222 c2 155 0 230 -9 250 -23 56 -37 58 -389 58
l-322 0 -29 -29z m551 -266 l0 -95 -195 0 -195 0 0 95 0 95 195 0 195 0 0 -95z"/>
<path d="M3160 3877 c-45 -23 -50 -47 -50 -279 0 -231 4 -256 48 -279 37 -20
647 -20 685 0 44 24 48 50 45 294 -3 220 -4 227 -26 249 -22 23 -24 23 -350
26 -250 2 -333 -1 -352 -11z m530 -282 l0 -95 -190 0 -190 0 0 95 0 95 190 0
190 0 0 -95z"/>
<path d="M4133 3880 c-49 -20 -54 -53 -51 -295 l3 -225 28 -27 27 -28 293 -3
c330 -4 369 0 403 33 24 24 24 25 24 260 l0 237 -29 29 -29 29 -324 -1 c-178
0 -333 -4 -345 -9z m537 -285 l0 -95 -195 0 -195 0 0 95 0 95 195 0 195 0 0
-95z"/>
<path d="M2169 3081 l-29 -29 0 -235 0 -234 26 -27 27 -26 333 0 333 0 28 24
28 24 0 242 0 242 -28 24 -28 24 -330 0 -331 0 -29 -29z m551 -261 l0 -100
-192 2 -193 3 -3 84 c-2 46 -1 90 2 98 4 10 46 13 196 13 l190 0 0 -100z"/>
<path d="M3139 3081 l-29 -29 0 -232 0 -232 29 -29 29 -29 332 0 332 0 29 29
29 29 0 232 0 232 -29 29 -29 29 -332 0 -332 0 -29 -29z m551 -261 l0 -100
-190 0 -190 0 0 100 0 100 190 0 190 0 0 -100z"/>
<path d="M4113 3086 l-28 -24 0 -242 0 -242 28 -24 28 -24 332 0 c245 1 336 4
348 13 35 27 39 53 39 282 l0 227 -29 29 -29 29 -331 0 -330 0 -28 -24z m552
-266 l0 -95 -192 -3 -193 -2 0 100 0 100 193 -2 192 -3 0 -95z"/>
<path d="M2165 2304 l-25 -27 0 -234 0 -235 29 -29 29 -29 329 0 c358 0 358 0
382 58 9 20 11 95 9 251 l-3 223 -28 24 -28 24 -335 0 -335 0 -24 -26z m555
-259 l0 -95 -195 0 -195 0 0 88 c0 49 3 92 7 95 3 4 91 7 195 7 l188 0 0 -95z"/>
<path d="M3136 2299 l-26 -31 0 -230 0 -230 29 -29 29 -29 332 0 332 0 29 29
29 29 0 230 0 230 -26 31 -26 31 -338 0 -338 0 -26 -31z m554 -254 l0 -95
-190 0 -190 0 0 95 0 95 190 0 190 0 0 -95z"/>
<path d="M4113 2306 l-28 -24 -3 -223 c-2 -156 0 -231 9 -251 24 -58 24 -58
382 -58 l329 0 29 29 29 29 0 235 0 234 -25 27 -24 26 -335 0 -335 0 -28 -24z
m555 -263 l3 -93 -196 0 -195 0 0 95 0 95 193 -2 192 -3 3 -92z"/>
</g>
</svg>
