<?xml version="1.0" encoding="utf-8"?>
<!-- Generator: Adobe Illustrator 23.0.2, SVG Export Plug-In . SVG Version: 6.00 Build 0)  -->
<svg version="1.1" id="plan" xmlns="http://www.w3.org/2000/svg" xmlns:xlink="http://www.w3.org/1999/xlink" x="0px" y="0px"
	 viewBox="0 0 550 380" enable-background="new 0 0 550 380" xml:space="preserve">
<g id="back">
	<rect x="10.4" y="8.984" fill="#FFFFFF" width="530" height="341.345"/>
</g>
<g id="walls">
	<g>
		<polygon fill="#C7C7C7" stroke="#000000" stroke-linecap="round" stroke-linejoin="round" stroke-miterlimit="10" points="
			362.534,99.551 362.534,247.337 271.64,247.337 271.64,252.241 374.632,252.241 374.632,247.337 367.439,247.337 367.439,99.551 
					"/>
		<polygon fill="#C7C7C7" stroke="#000000" stroke-linecap="round" stroke-linejoin="round" stroke-miterlimit="10" points="
			189.9,99.551 189.9,247.337 180.418,247.337 180.418,252.241 209.191,252.241 209.191,247.337 194.805,247.337 194.805,99.551 		
			"/>
		<polygon fill="#C7C7C7" stroke="#000000" stroke-linecap="round" stroke-linejoin="round" stroke-miterlimit="10" points="
			21.844,247.337 127.451,247.337 127.451,278.723 123.855,278.723 123.855,252.241 21.844,252.241 		"/>
		
			<rect x="44.404" y="252.241" fill="#C7C7C7" stroke="#000000" stroke-linecap="round" stroke-linejoin="round" stroke-miterlimit="10" width="2.616" height="19.291"/>
		
			<rect x="21.844" y="268.916" fill="#C7C7C7" stroke="#000000" stroke-linecap="round" stroke-linejoin="round" stroke-miterlimit="10" width="22.56" height="2.616"/>
		
			<rect x="509.666" y="313.709" fill="#C7C7C7" stroke="#000000" stroke-linecap="round" stroke-linejoin="round" stroke-miterlimit="10" width="18.964" height="2.289"/>
		
			<rect x="509.666" y="315.998" fill="#C7C7C7" stroke="#000000" stroke-linecap="round" stroke-linejoin="round" stroke-miterlimit="10" width="2.289" height="22.56"/>
		<polygon fill="#C7C7C7" stroke="#000000" stroke-linecap="round" stroke-linejoin="round" stroke-miterlimit="10" points="
			442.312,304.227 440.794,304.227 438.389,304.227 438.389,338.558 442.312,338.558 		"/>
		<polygon fill="#C7C7C7" stroke="#000000" stroke-linecap="round" stroke-linejoin="round" stroke-miterlimit="10" points="
			47.019,334.962 123.855,334.962 123.855,317.304 127.451,317.304 127.451,338.558 21.844,338.558 21.844,334.962 		"/>
		
			<rect x="127.451" y="247.337" fill="#C7C7C7" stroke="#000000" stroke-linecap="round" stroke-linejoin="round" stroke-miterlimit="10" width="9.809" height="4.904"/>
		<polyline fill="#C7C7C7" stroke="#000000" stroke-linecap="round" stroke-linejoin="round" stroke-miterlimit="10" points="
			355.995,27.62 355.995,99.551 367.439,99.551 367.439,27.62 		"/>
		<polygon fill="#C7C7C7" stroke="#000000" stroke-linecap="round" stroke-linejoin="round" stroke-miterlimit="10" points="
			528.629,196.985 442.312,196.985 442.312,265.646 438.389,265.646 438.389,252.241 432.177,252.241 417.79,252.241 
			417.79,247.337 432.177,247.337 432.177,186.849 528.629,186.849 		"/>
		
			<line fill="#C7C7C7" stroke="#000000" stroke-linecap="round" stroke-linejoin="round" stroke-miterlimit="10" x1="438.389" y1="304.227" x2="438.389" y2="338.558"/>
	</g>
	<g>
		
			<polyline fill="none" stroke="#000000" stroke-width="0.5" stroke-linecap="round" stroke-linejoin="round" stroke-miterlimit="10" points="
			168.321,99.551 132.356,99.551 132.356,91.377 		"/>
		
			<polyline fill="none" stroke="#000000" stroke-width="0.5" stroke-linecap="round" stroke-linejoin="round" stroke-miterlimit="10" points="
			166.032,80.915 132.356,80.915 132.356,88.108 		"/>
		
			<line fill="none" stroke="#000000" stroke-width="0.5" stroke-linecap="round" stroke-linejoin="round" stroke-miterlimit="10" x1="168.321" y1="91.378" x2="130.067" y2="91.378"/>
		
			<line fill="none" stroke="#000000" stroke-width="0.5" stroke-linecap="round" stroke-linejoin="round" stroke-miterlimit="10" x1="89.197" y1="88.108" x2="89.197" y2="91.377"/>
		
			<line fill="none" stroke="#000000" stroke-width="0.5" stroke-linecap="round" stroke-linejoin="round" stroke-miterlimit="10" x1="166.032" y1="88.108" x2="166.032" y2="91.377"/>
		
			<line fill="none" stroke="#000000" stroke-width="0.5" stroke-linecap="round" stroke-linejoin="round" stroke-miterlimit="10" x1="163.417" y1="88.108" x2="163.417" y2="91.377"/>
		
			<line fill="none" stroke="#000000" stroke-width="0.5" stroke-linecap="round" stroke-linejoin="round" stroke-miterlimit="10" x1="134.644" y1="88.108" x2="134.644" y2="91.377"/>
		
			<line fill="none" stroke="#000000" stroke-width="0.5" stroke-linecap="round" stroke-linejoin="round" stroke-miterlimit="10" x1="132.356" y1="88.108" x2="132.356" y2="91.377"/>
		
			<line fill="none" stroke="#000000" stroke-width="0.5" stroke-linecap="round" stroke-linejoin="round" stroke-miterlimit="10" x1="130.067" y1="88.108" x2="130.067" y2="91.377"/>
		
			<polyline fill="none" stroke="#000000" stroke-width="0.5" stroke-linecap="round" stroke-linejoin="round" stroke-miterlimit="10" points="
			168.321,88.108 130.067,88.108 130.067,91.377 		"/>
		
			<rect x="86.908" y="88.108" fill="none" stroke="#000000" stroke-width="0.5" stroke-linecap="round" stroke-linejoin="round" stroke-miterlimit="10" width="4.578" height="3.27"/>
	</g>
	<polygon fill="#828282" stroke="#000000" stroke-linecap="round" stroke-linejoin="round" stroke-miterlimit="10" points="
		540.4,16.177 452.817,16.177 452.817,8.984 540.4,8.984 	"/>
	
		<rect x="183.361" y="16.177" fill="#828282" stroke="#000000" stroke-linecap="round" stroke-linejoin="round" stroke-miterlimit="10" width="11.444" height="83.374"/>
	<polygon fill="#828282" stroke="#000000" stroke-linecap="round" stroke-linejoin="round" stroke-miterlimit="10" points="
		540.4,350.329 198.728,350.329 198.728,338.558 528.629,338.558 528.629,193.388 528.629,16.177 540.4,16.177 	"/>
	
		<line fill="#828282" stroke="#000000" stroke-linecap="round" stroke-linejoin="round" stroke-miterlimit="10" x1="288.969" y1="16.177" x2="265.101" y2="16.177"/>
	
		<line fill="none" stroke="#000000" stroke-linecap="round" stroke-linejoin="round" stroke-miterlimit="10" x1="355.995" y1="16.177" x2="339.32" y2="16.177"/>
	
		<line fill="none" stroke="#000000" stroke-linecap="round" stroke-linejoin="round" stroke-miterlimit="10" x1="339.32" y1="27.62" x2="355.995" y2="27.62"/>
	
		<line fill="none" stroke="#000000" stroke-linecap="round" stroke-linejoin="round" stroke-miterlimit="10" x1="214.749" y1="16.177" x2="194.805" y2="16.177"/>
	
		<line fill="none" stroke="#000000" stroke-linecap="round" stroke-linejoin="round" stroke-miterlimit="10" x1="176.168" y1="16.177" x2="183.361" y2="16.177"/>
	<g>
		
			<line fill="none" stroke="#000000" stroke-width="0.5" stroke-linecap="round" stroke-linejoin="round" stroke-miterlimit="10" x1="176.168" y1="25.659" x2="29.037" y2="25.659"/>
		
			<line fill="none" stroke="#000000" stroke-width="0.5" stroke-linecap="round" stroke-linejoin="round" stroke-miterlimit="10" x1="29.037" y1="8.984" x2="176.168" y2="8.984"/>
		
			<rect x="31.652" y="17.812" fill="none" stroke="#000000" stroke-width="0.5" stroke-linecap="round" stroke-linejoin="round" stroke-miterlimit="10" width="141.9" height="1.308"/>
		
			<path fill="none" stroke="#000000" stroke-width="0.5" stroke-linecap="round" stroke-linejoin="round" stroke-miterlimit="10" d="
			M173.552,16.177h-141.9 M173.552,21.081h-141.9"/>
		
			<rect x="173.552" y="16.177" fill="none" stroke="#000000" stroke-width="0.5" stroke-linecap="round" stroke-linejoin="round" stroke-miterlimit="10" width="2.616" height="4.904"/>
		
			<rect x="29.037" y="16.177" fill="none" stroke="#000000" stroke-width="0.5" stroke-linecap="round" stroke-linejoin="round" stroke-miterlimit="10" width="2.616" height="4.904"/>
	</g>
	<g>
		
			<line fill="none" stroke="#000000" stroke-width="1.5" stroke-linecap="round" stroke-linejoin="round" stroke-miterlimit="10" x1="180.418" y1="247.337" x2="142.818" y2="225.757"/>
		
			<path fill="none" stroke="#000000" stroke-width="1.5" stroke-linecap="round" stroke-linejoin="round" stroke-miterlimit="10" d="
			M271.64,247.337l-35.312-20.271 M209.191,247.337l18.637-10.79 M146.742,283.723l-19.291,33.35"/>
		
			<path fill="none" stroke="#000000" stroke-width="1.5" stroke-linecap="round" stroke-linejoin="round" stroke-miterlimit="10" d="
			M198.728,350.329l-41.851,23.868 M438.177,304.227l-18.964-33.35 M374.632,247.337l37.6-21.579"/>
		
			<line fill="none" stroke="#000000" stroke-width="1.5" stroke-linecap="round" stroke-linejoin="round" stroke-miterlimit="10" x1="91.486" y1="91.377" x2="124.836" y2="110.668"/>
	</g>
	
		<line fill="none" stroke="#000000" stroke-linecap="round" stroke-linejoin="round" stroke-miterlimit="10" x1="168.321" y1="88.108" x2="168.321" y2="91.377"/>
	<polygon fill="#828282" stroke="#000000" stroke-linecap="round" stroke-linejoin="round" stroke-miterlimit="10" points="
		150.665,350.329 10.4,350.329 10.4,16.177 21.844,16.177 21.844,338.558 150.665,338.558 150.665,350.329 21.844,350.329 	"/>
	
		<line fill="none" stroke="#000000" stroke-linecap="round" stroke-linejoin="round" stroke-miterlimit="10" x1="262.485" y1="8.984" x2="262.485" y2="16.177"/>
	<g>
		
			<line fill="none" stroke="#000000" stroke-width="0.5" stroke-linecap="round" stroke-linejoin="round" stroke-miterlimit="10" x1="265.101" y1="27.62" x2="214.422" y2="27.62"/>
		
			<line fill="none" stroke="#000000" stroke-width="0.5" stroke-linecap="round" stroke-linejoin="round" stroke-miterlimit="10" x1="216.711" y1="8.984" x2="262.485" y2="8.984"/>
		
			<path fill="none" stroke="#000000" stroke-width="0.5" stroke-linecap="round" stroke-linejoin="round" stroke-miterlimit="10" d="
			M214.422,16.177h50.679 M262.485,19.446v-3.27 M217.038,19.446v-3.27 M219.327,19.446v-3.27 M260.196,19.446v-3.27"/>
		
			<polyline fill="none" stroke="#000000" stroke-width="0.5" stroke-linecap="round" stroke-linejoin="round" stroke-miterlimit="10" points="
			214.422,19.446 265.101,19.446 265.101,16.177 		"/>
	</g>
	
		<line fill="none" stroke="#000000" stroke-linecap="round" stroke-linejoin="round" stroke-miterlimit="10" x1="214.422" y1="19.446" x2="214.422" y2="16.177"/>
	<polygon fill="#828282" stroke="#000000" stroke-linecap="round" stroke-linejoin="round" stroke-miterlimit="10" points="
		528.629,16.177 455.105,16.177 455.106,27.62 528.629,27.62 	"/>
	<g>
		
			<line fill="none" stroke="#000000" stroke-width="0.5" stroke-linecap="round" stroke-linejoin="round" stroke-miterlimit="10" x1="455.106" y1="27.62" x2="385.79" y2="27.62"/>
		
			<line fill="none" stroke="#000000" stroke-width="0.5" stroke-linecap="round" stroke-linejoin="round" stroke-miterlimit="10" x1="388.079" y1="8.984" x2="452.817" y2="8.984"/>
		
			<path fill="none" stroke="#000000" stroke-width="0.5" stroke-linecap="round" stroke-linejoin="round" stroke-miterlimit="10" d="
			M455.106,19.447H385.79 M388.079,16.177v3.27 M452.817,16.177v3.27 M450.528,16.177v3.27 M422.083,16.177v3.27 M420.448,16.177
			v3.27 M418.813,16.177v3.27 M390.368,16.177v3.27"/>
		
			<polyline fill="none" stroke="#000000" stroke-width="0.5" stroke-linecap="round" stroke-linejoin="round" stroke-miterlimit="10" points="
			455.106,16.177 385.79,16.177 385.79,19.446 		"/>
	</g>
	
		<line fill="none" stroke="#000000" stroke-linecap="round" stroke-linejoin="round" stroke-miterlimit="10" x1="455.106" y1="16.177" x2="455.106" y2="19.446"/>
	
		<rect x="265.101" y="16.177" fill="#828282" stroke="#000000" stroke-linecap="round" stroke-linejoin="round" stroke-miterlimit="10" width="23.868" height="11.444"/>
	<g>
		
			<line fill="#828282" stroke="#000000" stroke-width="0.5" stroke-linecap="round" stroke-linejoin="round" stroke-miterlimit="10" x1="291.258" y1="8.984" x2="337.032" y2="8.984"/>
		
			<line fill="#828282" stroke="#000000" stroke-width="0.5" stroke-linecap="round" stroke-linejoin="round" stroke-miterlimit="10" x1="306.044" y1="27.62" x2="305.833" y2="27.62"/>
		
			<path fill="none" stroke="#000000" stroke-width="0.5" stroke-linecap="round" stroke-linejoin="round" stroke-miterlimit="10" d="
			M288.969,16.177h50.352 M337.032,19.446v-3.27 M291.257,19.446v-3.27 M293.873,19.446v-3.27 M334.416,19.446v-3.27"/>
		
			<polyline fill="none" stroke="#000000" stroke-width="0.5" stroke-linecap="round" stroke-linejoin="round" stroke-miterlimit="10" points="
			288.969,19.446 339.32,19.446 339.32,16.177 		"/>
		
			<line fill="none" stroke="#000000" stroke-width="0.5" stroke-linecap="round" stroke-linejoin="round" stroke-miterlimit="10" x1="339.32" y1="27.62" x2="288.642" y2="27.62"/>
	</g>
	
		<line fill="none" stroke="#000000" stroke-linecap="round" stroke-linejoin="round" stroke-miterlimit="10" x1="288.969" y1="19.446" x2="288.969" y2="16.177"/>
	
		<rect x="262.485" y="8.984" fill="#828282" stroke="#000000" stroke-linecap="round" stroke-linejoin="round" stroke-miterlimit="10" width="28.772" height="7.193"/>
	<polygon fill="#828282" stroke="#000000" stroke-linecap="round" stroke-linejoin="round" stroke-miterlimit="10" points="
		368.559,16.177 337.032,16.177 337.032,8.984 388.079,8.984 388.079,16.177 367.439,16.177 	"/>
	
		<rect x="176.168" y="8.984" fill="#828282" stroke="#000000" stroke-linecap="round" stroke-linejoin="round" stroke-miterlimit="10" width="40.543" height="7.193"/>
	<polygon fill="#828282" stroke="#000000" stroke-linecap="round" stroke-linejoin="round" stroke-miterlimit="10" points="
		21.843,16.177 29.037,16.177 29.037,80.915 89.197,80.915 89.197,88.108 21.844,88.108 	"/>
	
		<rect x="10.4" y="8.984" fill="#828282" stroke="#000000" stroke-linecap="round" stroke-linejoin="round" stroke-miterlimit="10" width="18.637" height="7.193"/>
	
		<rect x="21.844" y="88.108" fill="#828282" stroke="#000000" stroke-linecap="round" stroke-linejoin="round" stroke-miterlimit="10" width="65.065" height="11.444"/>
	<polygon fill="#828282" stroke="#000000" stroke-linecap="round" stroke-linejoin="round" stroke-miterlimit="10" points="
		183.361,16.177 176.168,16.177 176.168,80.915 166.032,80.915 166.032,88.108 183.361,88.108 	"/>
	<polyline fill="#828282" stroke="#000000" stroke-linecap="round" stroke-linejoin="round" stroke-miterlimit="10" points="
		194.805,16.177 194.805,27.62 214.422,27.62 214.422,20.427 214.422,16.177 214.422,27.62 	"/>
	
		<rect x="194.805" y="16.177" fill="#828282" stroke="#000000" stroke-linecap="round" stroke-linejoin="round" stroke-miterlimit="10" width="19.617" height="11.444"/>
	
		<rect x="168.321" y="88.108" fill="#828282" stroke="#000000" stroke-linecap="round" stroke-linejoin="round" stroke-miterlimit="10" width="15.04" height="11.444"/>
	
		<rect x="367.439" y="16.177" fill="#828282" stroke="#000000" stroke-linecap="round" stroke-linejoin="round" stroke-miterlimit="10" width="18.352" height="11.443"/>
	
		<rect x="339.32" y="16.177" fill="#828282" stroke="#000000" stroke-linecap="round" stroke-linejoin="round" stroke-miterlimit="10" width="16.675" height="11.444"/>
	<polyline fill="#828282" stroke="#000000" stroke-linecap="round" stroke-linejoin="round" stroke-miterlimit="10" points="
		355.995,27.62 355.995,16.177 367.439,16.177 367.439,27.62 	"/>
	<polyline fill="none" stroke="#000000" stroke-linecap="round" stroke-linejoin="round" stroke-miterlimit="10" points="
		438.389,265.646 438.389,193.389 528.629,193.389 	"/>
</g>
<g id="furniture">
	
		<rect x="22.779" y="134.833" fill="#F3F3F3" stroke="#595959" stroke-width="0.5" stroke-miterlimit="10" width="30.708" height="111.599"/>
	<g>
		<path fill-rule="evenodd" clip-rule="evenodd" fill="#F3F3F3" stroke="#595959" stroke-width="0.5" stroke-miterlimit="10" d="
			M508.916,217.176c-1.132,0-2.007-1.117-2.059-2.411c0-1.235,0.927-2.294,2.059-2.294c1.133,0,1.956,1.059,1.956,2.294
			C510.872,216.118,510.048,217.176,508.916,217.176z"/>
		<path fill-rule="evenodd" clip-rule="evenodd" fill="#F3F3F3" stroke="#595959" stroke-width="0.5" stroke-miterlimit="10" d="
			M508.916,217.176c-1.132,0-2.007-1.117-2.059-2.411c0-1.235,0.927-2.294,2.059-2.294c1.133,0,1.956,1.059,1.956,2.294
			C510.872,216.118,510.048,217.176,508.916,217.176z"/>
		
			<polygon fill-rule="evenodd" clip-rule="evenodd" fill="#F3F3F3" stroke="#595959" stroke-width="0.5" stroke-miterlimit="10" points="
			527.738,231.681 527.738,197.966 443.267,197.966 443.267,231.681 527.738,231.681 		"/>
		<path fill-rule="evenodd" clip-rule="evenodd" fill="#F3F3F3" stroke="#595959" stroke-width="0.5" stroke-miterlimit="10" d="
			M515.64,200.765v28.117c0,0-58.121,0-58.42,0c-8.224,0-9.602-4.952-9.602-11.003v-6.11c0-6.052,1.378-11.004,9.602-11.004
			C457.519,200.765,515.64,200.765,515.64,200.765L515.64,200.765z"/>
		<path fill-rule="evenodd" clip-rule="evenodd" fill="#F3F3F3" stroke="#595959" stroke-width="0.5" stroke-miterlimit="10" d="
			M519.831,204.654c-0.9,0-1.65,0.81-1.65,1.811c0,0.858,0.5,1.62,1.25,1.812v2.526c0,0.286,0.2,0.477,0.5,0.477
			c0.35,0,0.55-0.19,0.55-0.477v-2.621c0.6-0.286,1.05-0.953,1.05-1.716C521.481,205.464,520.731,204.654,519.831,204.654
			L519.831,204.654z"/>
		
			<polyline fill-rule="evenodd" clip-rule="evenodd" fill="#F3F3F3" stroke="#595959" stroke-width="0.5" stroke-miterlimit="10" points="
			519.931,211.041 519.981,222.577 516.981,222.577 516.981,215.188 		"/>
		<path fill-rule="evenodd" clip-rule="evenodd" fill="#F3F3F3" stroke="#595959" stroke-width="0.5" stroke-miterlimit="10" d="
			M517.736,213.788h-6.046h-0.051v1.611h0.051h6.046c0.407,0,0.762-0.364,0.762-0.78
			C518.499,214.152,518.143,213.788,517.736,213.788z"/>
		<path fill-rule="evenodd" clip-rule="evenodd" fill="#F3F3F3" stroke="#595959" stroke-width="0.5" stroke-miterlimit="10" d="
			M517.736,213.788h-6.046h-0.051v1.611h0.051h6.046c0.407,0,0.762-0.364,0.762-0.78
			C518.499,214.152,518.143,213.788,517.736,213.788z"/>
	</g>
	<g>
		<path fill-rule="evenodd" clip-rule="evenodd" fill="#F3F3F3" stroke="#595959" stroke-width="0.5" stroke-miterlimit="10" d="
			M518.532,305.581c-2.098,0.741-4.567,1.235-7.22,1.235c-8.516,0-15.365-4.446-15.365-10.436c0-5.927,6.85-10.435,15.365-10.435
			c2.592,0,5.06,0.495,7.22,1.297V305.581z"/>
		<path fill-rule="evenodd" clip-rule="evenodd" fill="#F3F3F3" stroke="#595959" stroke-width="0.5" stroke-miterlimit="10" d="
			M527.962,305.836h-5.388c-1.253,0-2.255-0.989-2.255-2.164v-14.093c-0.063-1.175,0.94-2.164,2.255-2.164h5.388V305.836z"/>
		<path fill-rule="evenodd" clip-rule="evenodd" fill="#F3F3F3" stroke="#595959" stroke-width="0.5" stroke-miterlimit="10" d="
			M524.142,298.794c1.15,0,2.045-0.958,2.045-2.108c0-1.15-0.959-2.045-2.045-2.045c-1.214,0-2.108,0.959-2.108,2.045
			C522.034,297.899,522.928,298.794,524.142,298.794z"/>
		<path fill-rule="evenodd" clip-rule="evenodd" fill="#F3F3F3" stroke="#595959" stroke-width="0.5" stroke-miterlimit="10" d="
			M519.477,287.292h-0.945v18.288c-0.201,0.071-0.421,0.128-0.629,0.194h1.573c0.51,0,0.892-0.433,0.892-0.803v-16.814
			C520.369,287.664,519.986,287.292,519.477,287.292z"/>
	</g>
	<g>
		
			<rect x="444.267" y="311.707" fill-rule="evenodd" clip-rule="evenodd" fill="#F3F3F3" stroke="#595959" stroke-width="0.5" stroke-miterlimit="10" width="26.297" height="26.247"/>
		<path fill-rule="evenodd" clip-rule="evenodd" fill="#F3F3F3" stroke="#595959" stroke-width="0.5" stroke-miterlimit="10" d="
			M467.825,334.39c0-0.889-0.732-1.621-1.619-1.621c-0.94,0-1.672,0.732-1.672,1.621c0,0.889,0.732,1.621,1.672,1.621
			C467.093,336.011,467.825,335.279,467.825,334.39z"/>
		<path fill-rule="evenodd" clip-rule="evenodd" fill="#F3F3F3" stroke="#595959" stroke-width="0.5" stroke-miterlimit="10" d="
			M467.825,334.361c0-0.873-0.702-1.592-1.555-1.592c-0.903,0-1.605,0.719-1.605,1.592c0,0.873,0.703,1.592,1.605,1.592
			C467.122,335.953,467.825,335.234,467.825,334.361L467.825,334.361z M446.458,337.903v-2.669c0-0.616,0.552-1.078,1.154-1.078
			h7.423c0.602,0,1.154,0.462,1.154,1.078v2.669H446.458z"/>
		<path fill-rule="evenodd" clip-rule="evenodd" fill="#F3F3F3" stroke="#595959" stroke-width="0.5" stroke-miterlimit="10" d="
			M464.588,324.133c0-3.926-3.171-7.148-7.148-7.148c-3.927,0-7.098,3.222-7.098,7.148c0,3.926,3.171,7.148,7.098,7.148
			C461.467,331.281,464.588,328.059,464.588,324.133z"/>
		<path fill-rule="evenodd" clip-rule="evenodd" fill="#F3F3F3" stroke="#595959" stroke-width="0.5" stroke-miterlimit="10" d="
			M464.588,324.133c0-3.926-3.171-7.148-7.148-7.148c-3.927,0-7.098,3.222-7.098,7.148c0,3.926,3.171,7.148,7.098,7.148
			C461.467,331.281,464.588,328.059,464.588,324.133z"/>
		<path fill-rule="evenodd" clip-rule="evenodd" fill="#F3F3F3" stroke="#595959" stroke-width="0.5" stroke-miterlimit="10" d="
			M462.696,324.133c0-2.931-2.325-5.255-5.255-5.255c-2.881,0-5.256,2.325-5.256,5.255c0,2.88,2.425,5.255,5.256,5.255
			C460.371,329.388,462.696,327.013,462.696,324.133z"/>
		<path fill-rule="evenodd" clip-rule="evenodd" fill="#F3F3F3" stroke="#595959" stroke-width="0.5" stroke-miterlimit="10" d="
			M462.696,324.133c0-2.931-2.325-5.255-5.255-5.255c-2.881,0-5.256,2.325-5.256,5.255c0,2.88,2.425,5.255,5.256,5.255
			C460.371,329.388,462.696,327.013,462.696,324.133z"/>
	</g>
	<g>
		<path fill-rule="evenodd" clip-rule="evenodd" fill="#F3F3F3" stroke="#595959" stroke-width="0.5" stroke-miterlimit="10" d="
			M32.182,280.342c2.098-0.741,4.567-1.235,7.22-1.235c8.516,0,15.365,4.446,15.365,10.436c0,5.927-6.85,10.435-15.365,10.435
			c-2.592,0-5.06-0.495-7.22-1.297V280.342z"/>
		<path fill-rule="evenodd" clip-rule="evenodd" fill="#F3F3F3" stroke="#595959" stroke-width="0.5" stroke-miterlimit="10" d="
			M22.752,280.087h5.388c1.253,0,2.255,0.989,2.255,2.164v14.093c0.063,1.175-0.94,2.164-2.255,2.164h-5.388V280.087z"/>
		<path fill-rule="evenodd" clip-rule="evenodd" fill="#F3F3F3" stroke="#595959" stroke-width="0.5" stroke-miterlimit="10" d="
			M26.572,287.13c-1.15,0-2.045,0.958-2.045,2.108s0.959,2.045,2.045,2.045c1.214,0,2.108-0.959,2.108-2.045
			C28.68,288.024,27.786,287.13,26.572,287.13z"/>
		<path fill-rule="evenodd" clip-rule="evenodd" fill="#F3F3F3" stroke="#595959" stroke-width="0.5" stroke-miterlimit="10" d="
			M31.237,298.631h0.945v-18.288c0.201-0.071,0.421-0.128,0.629-0.194h-1.573c-0.51,0-0.892,0.433-0.892,0.803v16.814
			C30.345,298.259,30.728,298.631,31.237,298.631z"/>
	</g>
	<g>
		
			<rect x="22.98" y="102.443" fill-rule="evenodd" clip-rule="evenodd" fill="#F3F3F3" stroke="#595959" stroke-width="0.5" stroke-miterlimit="10" width="1.916" height="27.066"/>
		
			<rect x="22.98" y="102.443" fill-rule="evenodd" clip-rule="evenodd" fill="#F3F3F3" stroke="#595959" stroke-width="0.5" stroke-miterlimit="10" width="1.916" height="27.066"/>
		
			<rect x="53.279" y="102.206" fill-rule="evenodd" clip-rule="evenodd" fill="#F3F3F3" stroke="#595959" stroke-width="0.5" stroke-miterlimit="10" width="2.626" height="8.899"/>
		
			<rect x="53.279" y="102.206" fill-rule="evenodd" clip-rule="evenodd" fill="#F3F3F3" stroke="#595959" stroke-width="0.5" stroke-miterlimit="10" width="2.626" height="8.899"/>
		
			<rect x="24.696" y="101.023" fill-rule="evenodd" clip-rule="evenodd" fill="#F3F3F3" stroke="#595959" stroke-width="0.5" stroke-miterlimit="10" width="29.67" height="29.729"/>
		
			<rect x="24.696" y="101.023" fill-rule="evenodd" clip-rule="evenodd" fill="#F3F3F3" stroke="#595959" stroke-width="0.5" stroke-miterlimit="10" width="29.67" height="29.729"/>
		<path fill-rule="evenodd" clip-rule="evenodd" fill="#F3F3F3" stroke="#595959" stroke-width="0.5" stroke-miterlimit="10" d="
			M51.703,130.752l0-29.729L51.703,130.752z"/>
		<path fill-rule="evenodd" clip-rule="evenodd" fill="#F3F3F3" stroke="#595959" stroke-width="0.5" stroke-miterlimit="10" d="
			M51.598,132.172c-0.58,0-1.16-0.518-1.16-1.165c0-0.712,0.58-1.166,1.16-1.166c0.709,0,1.289,0.518,1.289,1.166
			C52.887,131.654,52.308,132.172,51.598,132.172z"/>
		<path fill-rule="evenodd" clip-rule="evenodd" fill="#F3F3F3" stroke="#595959" stroke-width="0.5" stroke-miterlimit="10" d="
			M51.598,132.172c-0.58,0-1.16-0.518-1.16-1.165c0-0.712,0.58-1.166,1.16-1.166c0.709,0,1.289,0.518,1.289,1.166
			C52.887,131.654,52.308,132.172,51.598,132.172z"/>
		<path fill-rule="evenodd" clip-rule="evenodd" fill="#F3F3F3" stroke="#595959" stroke-width="0.5" stroke-miterlimit="10" d="
			M36.413,115.727h5.23H36.413z"/>
		<path fill-rule="evenodd" clip-rule="evenodd" fill="#F3F3F3" stroke="#595959" stroke-width="0.5" stroke-miterlimit="10" d="
			M38.974,118.265l0-5.229L38.974,118.265z"/>
		<path fill-rule="evenodd" clip-rule="evenodd" fill="#F3F3F3" stroke="#595959" stroke-width="0.5" stroke-miterlimit="10" d="
			M40.933,117.555l-3.809-3.809L40.933,117.555z"/>
		<path fill-rule="evenodd" clip-rule="evenodd" fill="#F3F3F3" stroke="#595959" stroke-width="0.5" stroke-miterlimit="10" d="
			M40.933,113.805l-3.809,3.809L40.933,113.805z"/>
		<path fill-rule="evenodd" clip-rule="evenodd" fill="#F3F3F3" stroke="#595959" stroke-width="0.5" stroke-miterlimit="10" d="
			M36.236,123.423l5.229,0L36.236,123.423z"/>
		<path fill-rule="evenodd" clip-rule="evenodd" fill="#F3F3F3" stroke="#595959" stroke-width="0.5" stroke-miterlimit="10" d="
			M38.797,126.018l0-5.229L38.797,126.018z"/>
		<path fill-rule="evenodd" clip-rule="evenodd" fill="#F3F3F3" stroke="#595959" stroke-width="0.5" stroke-miterlimit="10" d="
			M40.756,125.248l-3.809-3.809L40.756,125.248z"/>
		<path fill-rule="evenodd" clip-rule="evenodd" fill="#F3F3F3" stroke="#595959" stroke-width="0.5" stroke-miterlimit="10" d="
			M40.756,121.498l-3.809,3.809L40.756,121.498z"/>
		<path fill-rule="evenodd" clip-rule="evenodd" fill="#F3F3F3" stroke="#595959" stroke-width="0.5" stroke-miterlimit="10" d="
			M36.413,108.209l5.23,0L36.413,108.209z"/>
		<path fill-rule="evenodd" clip-rule="evenodd" fill="#F3F3F3" stroke="#595959" stroke-width="0.5" stroke-miterlimit="10" d="
			M38.974,110.75l0-5.229L38.974,110.75z"/>
		<path fill-rule="evenodd" clip-rule="evenodd" fill="#F3F3F3" stroke="#595959" stroke-width="0.5" stroke-miterlimit="10" d="
			M40.933,110.04l-3.809-3.809L40.933,110.04z"/>
		<path fill-rule="evenodd" clip-rule="evenodd" fill="#F3F3F3" stroke="#595959" stroke-width="0.5" stroke-miterlimit="10" d="
			M40.933,106.29l-3.809,3.809L40.933,106.29z"/>
	</g>
	<g>
		<path fill-rule="evenodd" clip-rule="evenodd" fill="#F3F3F3" stroke="#595959" stroke-width="0.5" stroke-miterlimit="10" d="
			M196.555,156.265v-14.347h11.912v14.347H196.555L196.555,156.265z M196.555,88.463h17.804v53.455h-17.804V88.463z"/>
		<path fill-rule="evenodd" clip-rule="evenodd" fill="#F3F3F3" stroke="#595959" stroke-width="0.5" stroke-miterlimit="10" d="
			M202.914,109.873c-3.098,0-3.395,2.788-3.395,6.294c0,3.422,0.297,6.252,3.395,6.252c3.098,0,5.645-2.788,5.645-6.252
			C208.516,112.661,206.012,109.873,202.914,109.873z"/>
		
			<rect x="203.484" y="95.182" fill-rule="evenodd" clip-rule="evenodd" fill="#F3F3F3" stroke="#595959" stroke-width="0.5" stroke-miterlimit="10" width="2.363" height="41.968"/>
		
			<rect x="203.484" y="95.182" fill-rule="evenodd" clip-rule="evenodd" fill="#F3F3F3" stroke="#595959" stroke-width="0.5" stroke-miterlimit="10" width="2.363" height="41.968"/>
		
			<polygon fill-rule="evenodd" clip-rule="evenodd" fill="#F3F3F3" stroke="#595959" stroke-width="0.5" stroke-miterlimit="10" points="
			203.593,98.742 201.647,105.487 201.647,126.803 203.593,133.549 		"/>
		
			<polygon fill-rule="evenodd" clip-rule="evenodd" fill="#F3F3F3" stroke="#595959" stroke-width="0.5" stroke-miterlimit="10" points="
			203.593,98.742 201.647,105.487 201.647,126.803 203.593,133.549 		"/>
		<path fill-rule="evenodd" clip-rule="evenodd" fill="#F3F3F3" stroke="#595959" stroke-width="0.5" stroke-miterlimit="10" d="
			M209.757,155.013V143.18h1.181v11.832H209.757L209.757,155.013z M196.555,88.49V74.148h11.936V88.49H196.555L196.555,88.49z
			 M209.757,75.361h1.181v11.833h-1.181V75.361z"/>
	</g>
	<g>
		<path fill-rule="evenodd" clip-rule="evenodd" fill="#F3F3F3" stroke="#595959" stroke-width="0.5" stroke-miterlimit="10" d="
			M276.014,29.57h41.085h33.085c2.2,0,4,1.8,4,4v33.141v100.206c0,2.2-1.8,4-4,4h-33.085c-2.2,0-4-1.8-4-4V74.71
			c0-2.209-1.791-3.999-3.999-3.999h-33.085c-2.2,0-4-1.8-4-4V33.57C272.014,31.37,273.814,29.57,276.014,29.57z"/>
		<g>
			<path fill-rule="evenodd" clip-rule="evenodd" fill="#F3F3F3" stroke="#595959" stroke-width="0.5" stroke-miterlimit="10" d="
				M319.732,70.711c-4.682,0-6.633-0.24-6.633-6.179V46.893c0-5.94,2.006-6.179,6.633-6.179h17.557c4.682,0,6.633,0.24,6.633,6.179
				v17.638c0,5.94-2.006,6.179-6.633,6.179H319.732z"/>
			<path fill-rule="evenodd" clip-rule="evenodd" fill="#F3F3F3" stroke="#595959" stroke-width="0.5" stroke-miterlimit="10" d="
				M319.732,70.711c-4.682,0-6.633-0.24-6.633-6.179V46.893c0-5.94,2.006-6.179,6.633-6.179h17.557c4.682,0,6.633,0.24,6.633,6.179
				v17.638c0,5.94-2.006,6.179-6.633,6.179H319.732z"/>
			<path fill-rule="evenodd" clip-rule="evenodd" fill="#F3F3F3" stroke="#595959" stroke-width="0.5" stroke-miterlimit="10" d="
				M319.732,100.473c-4.682,0-6.633-0.24-6.633-6.18V76.655c0-5.94,2.006-6.18,6.633-6.18h17.557c4.682,0,6.633,0.24,6.633,6.18
				v17.638c0,5.94-2.006,6.18-6.633,6.18H319.732z"/>
			<path fill-rule="evenodd" clip-rule="evenodd" fill="#F3F3F3" stroke="#595959" stroke-width="0.5" stroke-miterlimit="10" d="
				M319.732,100.473c-4.682,0-6.633-0.24-6.633-6.18V76.655c0-5.94,2.006-6.18,6.633-6.18h17.557c4.682,0,6.633,0.24,6.633,6.18
				v17.638c0,5.94-2.006,6.18-6.633,6.18H319.732z"/>
			<path fill-rule="evenodd" clip-rule="evenodd" fill="#F3F3F3" stroke="#595959" stroke-width="0.5" stroke-miterlimit="10" d="
				M319.732,130.176c-4.682,0-6.633-0.24-6.633-6.12v-17.699c0-5.94,2.006-6.12,6.633-6.12h17.557c4.682,0,6.633,0.24,6.633,6.12
				v17.699c0,5.939-2.006,6.12-6.633,6.12H319.732z"/>
			<path fill-rule="evenodd" clip-rule="evenodd" fill="#F3F3F3" stroke="#595959" stroke-width="0.5" stroke-miterlimit="10" d="
				M319.732,130.176c-4.682,0-6.633-0.24-6.633-6.12v-17.699c0-5.94,2.006-6.12,6.633-6.12h17.557c4.682,0,6.633,0.24,6.633,6.12
				v17.699c0,5.939-2.006,6.12-6.633,6.12H319.732z"/>
			<path fill-rule="evenodd" clip-rule="evenodd" fill="#F3F3F3" stroke="#595959" stroke-width="0.5" stroke-miterlimit="10" d="
				M288.909,70.711c-4.682,0-6.633-0.24-6.633-6.179V46.893c0-5.94,2.006-6.179,6.633-6.179h17.557c4.682,0,6.633,0.24,6.633,6.179
				v17.638c0,5.94-2.006,6.179-6.633,6.179H288.909z"/>
			<path fill-rule="evenodd" clip-rule="evenodd" fill="#F3F3F3" stroke="#595959" stroke-width="0.5" stroke-miterlimit="10" d="
				M319.821,159.879c-4.682,0-6.633-0.24-6.633-6.12V136.06c0-5.94,2.006-6.12,6.633-6.12h17.557c4.682,0,6.633,0.24,6.633,6.12
				v17.699c0,5.939-2.006,6.12-6.633,6.12H319.821z"/>
			<path fill-rule="evenodd" clip-rule="evenodd" fill="#F3F3F3" stroke="#595959" stroke-width="0.5" stroke-miterlimit="10" d="
				M349.932,29.57h-71.908h-1.758c-2.339,0-4.252,2.058-4.252,4.573v1.891v30.103c0,2.515,1.913,4.573,4.252,4.573h1.758
				c2.339,0,4.252-2.058,4.252-4.573v-25.53h61.646v119.272h-26.571c-2.339,0-4.252,2.058-4.252,4.573v1.891
				c0,2.515,1.913,4.573,4.252,4.573h30.823h1.758c2.339,0,4.252-2.058,4.252-4.573v-1.891V36.034v-1.891v0
				C354.184,31.628,352.27,29.57,349.932,29.57z"/>
		</g>
	</g>
	<g>
		
			<rect x="520.165" y="65.223" fill-rule="evenodd" clip-rule="evenodd" fill="#F3F3F3" stroke="#595959" stroke-width="0.5" stroke-miterlimit="10" width="2.768" height="49.157"/>
		
			<polygon fill-rule="evenodd" clip-rule="evenodd" fill="#F3F3F3" stroke="#595959" stroke-width="0.5" stroke-miterlimit="10" points="
			522.806,110.211 525.084,102.31 525.084,77.343 522.806,69.442 		"/>
		
			<rect x="525.084" y="85.637" fill-rule="evenodd" clip-rule="evenodd" fill="#F3F3F3" stroke="#595959" stroke-width="0.5" stroke-miterlimit="10" width="2.416" height="8.379"/>
	</g>
	<g>
		<g>
			
				<rect x="368.128" y="54.855" fill-rule="evenodd" clip-rule="evenodd" fill="#F3F3F3" stroke="#595959" stroke-width="0.5" stroke-miterlimit="10" width="90.448" height="70.207"/>
			
				<rect x="371.737" y="56.504" fill-rule="evenodd" clip-rule="evenodd" fill="#F3F3F3" stroke="#595959" stroke-width="0.5" stroke-miterlimit="10" width="84.306" height="66.983"/>
			
				<rect x="373.914" y="58.487" fill-rule="evenodd" clip-rule="evenodd" fill="#F3F3F3" stroke="#595959" stroke-width="0.5" stroke-miterlimit="10" width="19.019" height="26.023"/>
			
				<rect x="373.914" y="95.287" fill-rule="evenodd" clip-rule="evenodd" fill="#F3F3F3" stroke="#595959" stroke-width="0.5" stroke-miterlimit="10" width="19.019" height="26.023"/>
			
				<polygon fill-rule="evenodd" clip-rule="evenodd" fill="#F3F3F3" stroke="#595959" stroke-width="0.5" stroke-miterlimit="10" points="
				402.642,56.504 391.006,76.487 391.006,103.504 391.006,76.487 391.006,103.504 402.642,123.487 456.044,123.487 
				456.044,123.413 456.044,56.504 			"/>
			
				<polyline fill-rule="evenodd" clip-rule="evenodd" fill="#F3F3F3" stroke="#595959" stroke-width="0.5" stroke-miterlimit="10" points="
				402.642,56.504 411.131,70.527 391.006,76.487 			"/>
			
				<line fill-rule="evenodd" clip-rule="evenodd" fill="#F3F3F3" stroke="#595959" stroke-width="0.5" stroke-miterlimit="10" x1="391.006" y1="76.487" x2="402.642" y2="56.504"/>
			
				<polyline fill-rule="evenodd" clip-rule="evenodd" fill="#F3F3F3" stroke="#595959" stroke-width="0.5" stroke-miterlimit="10" points="
				402.642,123.487 411.131,109.464 391.006,103.504 			"/>
			
				<line fill-rule="evenodd" clip-rule="evenodd" fill="#F3F3F3" stroke="#595959" stroke-width="0.5" stroke-miterlimit="10" x1="391.006" y1="103.504" x2="402.642" y2="123.487"/>
		</g>
		<g>
			
				<rect x="364.749" y="129.749" transform="matrix(-1.836970e-16 1 -1 -1.836970e-16 515.8289 -238.3793)" fill="#F3F3F3" stroke="#595959" stroke-width="0.5" stroke-miterlimit="10" width="24.71" height="17.952"/>
			
				<rect x="381.485" y="138.043" transform="matrix(-1.836970e-16 1 -1 -1.836970e-16 525.2935 -248.0369)" fill="#F3F3F3" stroke="#595959" stroke-width="0.5" stroke-miterlimit="10" width="10.36" height="1.17"/>
		</g>
		<g>
			
				<rect x="364.749" y="32.149" transform="matrix(-1.836970e-16 1 -1 -1.836970e-16 418.2289 -335.9793)" fill="#F3F3F3" stroke="#595959" stroke-width="0.5" stroke-miterlimit="10" width="24.71" height="17.952"/>
			
				<rect x="381.485" y="40.443" transform="matrix(-1.836970e-16 1 -1 -1.836970e-16 427.6935 -345.6369)" fill="#F3F3F3" stroke="#595959" stroke-width="0.5" stroke-miterlimit="10" width="10.36" height="1.17"/>
		</g>
	</g>
	<g>
		<path fill-rule="evenodd" clip-rule="evenodd" fill="#F3F3F3" stroke="#595959" stroke-width="0.5" stroke-miterlimit="10" d="
			M524.711,255.156h-0.917H524.711z"/>
		
			<line fill-rule="evenodd" clip-rule="evenodd" fill="#F3F3F3" stroke="#595959" stroke-width="0.5" stroke-miterlimit="10" x1="524.711" y1="255.156" x2="523.794" y2="255.156"/>
		<path fill-rule="evenodd" clip-rule="evenodd" fill="#F3F3F3" stroke="#595959" stroke-width="0.5" stroke-miterlimit="10" d="
			M517.965,254.455h0.054h5.99c0.432,0,0.756,0.378,0.756,0.755c0,0.432-0.324,0.755-0.756,0.755h-5.99h-0.054V254.455z"/>
		
			<rect x="523.739" y="241.503" fill-rule="evenodd" clip-rule="evenodd" fill="#F3F3F3" stroke="#595959" stroke-width="0.5" stroke-miterlimit="10" width="3.94" height="27.362"/>
		<path fill-rule="evenodd" clip-rule="evenodd" fill="#F3F3F3" stroke="#595959" stroke-width="0.5" stroke-miterlimit="10" d="
			M524.711,268.81v-27.253V268.81z"/>
		<path fill-rule="evenodd" clip-rule="evenodd" fill="#F3F3F3" stroke="#595959" stroke-width="0.5" stroke-miterlimit="10" d="
			M523.739,268.865h-13.762c-0.702,0-1.295-0.486-1.295-1.188v-25.041c0-0.593,0.593-1.133,1.295-1.133h13.762V268.865z"/>
		<path fill-rule="evenodd" clip-rule="evenodd" fill="#F3F3F3" stroke="#595959" stroke-width="0.5" stroke-miterlimit="10" d="
			M521.527,255.103c0,5.073-2.59,9.228-5.775,9.283c-3.238,0.054-5.828-3.94-5.883-9.067c0-5.073,2.536-9.228,5.774-9.282
			C518.829,245.982,521.473,250.084,521.527,255.103z"/>
		<path fill-rule="evenodd" clip-rule="evenodd" fill="#F3F3F3" stroke="#595959" stroke-width="0.5" stroke-miterlimit="10" d="
			M515.591,256.722c-0.864,0-1.565-0.702-1.565-1.565c0-0.809,0.702-1.457,1.565-1.457c0.864,0,1.511,0.648,1.511,1.457
			C517.048,256.02,516.401,256.722,515.591,256.722z"/>
		<path fill-rule="evenodd" clip-rule="evenodd" fill="#F3F3F3" stroke="#595959" stroke-width="0.5" stroke-miterlimit="10" d="
			M517.965,254.455h0.054h5.99c0.432,0,0.756,0.378,0.756,0.755c0,0.432-0.324,0.755-0.756,0.755h-5.99h-0.054V254.455z"/>
	</g>
	<g>
		<path fill-rule="evenodd" clip-rule="evenodd" fill="#F3F3F3" stroke="#595959" stroke-width="0.5" stroke-miterlimit="10" d="
			M104.438,330.487v-0.917V330.487z"/>
		
			<line fill-rule="evenodd" clip-rule="evenodd" fill="#F3F3F3" stroke="#595959" stroke-width="0.5" stroke-miterlimit="10" x1="104.438" y1="330.487" x2="104.438" y2="329.57"/>
		<path fill-rule="evenodd" clip-rule="evenodd" fill="#F3F3F3" stroke="#595959" stroke-width="0.5" stroke-miterlimit="10" d="
			M105.139,323.741v0.054v5.99c0,0.432-0.378,0.756-0.755,0.756c-0.432,0-0.755-0.324-0.755-0.756v-5.99v-0.054H105.139z"/>
		
			<rect x="90.73" y="329.516" fill-rule="evenodd" clip-rule="evenodd" fill="#F3F3F3" stroke="#595959" stroke-width="0.5" stroke-miterlimit="10" width="27.362" height="3.94"/>
		<path fill-rule="evenodd" clip-rule="evenodd" fill="#F3F3F3" stroke="#595959" stroke-width="0.5" stroke-miterlimit="10" d="
			M90.784,330.487h27.253H90.784z"/>
		<path fill-rule="evenodd" clip-rule="evenodd" fill="#F3F3F3" stroke="#595959" stroke-width="0.5" stroke-miterlimit="10" d="
			M90.73,329.516v-13.762c0-0.702,0.486-1.295,1.188-1.295h25.041c0.593,0,1.133,0.593,1.133,1.295v13.762H90.73z"/>
		<path fill-rule="evenodd" clip-rule="evenodd" fill="#F3F3F3" stroke="#595959" stroke-width="0.5" stroke-miterlimit="10" d="
			M104.492,327.303c-5.073,0-9.228-2.59-9.283-5.775c-0.054-3.238,3.94-5.828,9.067-5.883c5.073,0,9.228,2.536,9.282,5.774
			C113.613,324.605,109.511,327.25,104.492,327.303z"/>
		<path fill-rule="evenodd" clip-rule="evenodd" fill="#F3F3F3" stroke="#595959" stroke-width="0.5" stroke-miterlimit="10" d="
			M102.873,321.367c0-0.864,0.702-1.565,1.565-1.565c0.809,0,1.457,0.702,1.457,1.565c0,0.864-0.648,1.511-1.457,1.511
			C103.574,322.824,102.873,322.177,102.873,321.367z"/>
		<path fill-rule="evenodd" clip-rule="evenodd" fill="#F3F3F3" stroke="#595959" stroke-width="0.5" stroke-miterlimit="10" d="
			M105.139,323.741v0.054v5.99c0,0.432-0.378,0.756-0.755,0.756c-0.432,0-0.755-0.324-0.755-0.756v-5.99v-0.054H105.139z"/>
	</g>
	<g>
		
			<rect x="442.6" y="156.588" transform="matrix(-1 -4.490109e-11 4.490109e-11 -1 970.3943 342.5826)" fill-rule="evenodd" clip-rule="evenodd" fill="#F3F3F3" stroke="#595959" stroke-width="0.5" stroke-miterlimit="10" width="85.195" height="29.408"/>
		
			<line fill="#F3F3F3" stroke="#595959" stroke-width="0.5" stroke-miterlimit="10" x1="524.712" y1="156.588" x2="524.712" y2="186.046"/>
		
			<line fill="#F3F3F3" stroke="#595959" stroke-width="0.5" stroke-miterlimit="10" x1="445.774" y1="156.588" x2="445.774" y2="185.995"/>
		
			<line fill="#F3F3F3" stroke="#595959" stroke-width="0.5" stroke-miterlimit="10" x1="524.712" y1="184.638" x2="445.774" y2="184.638"/>
		
			<line fill="#F3F3F3" stroke="#595959" stroke-width="0.5" stroke-miterlimit="10" x1="448.524" y1="171.08" x2="521.963" y2="171.08"/>
		
			<rect x="517.228" y="162.268" transform="matrix(-0.9868 0.162 -0.162 -0.9868 1057.1914 256.2824)" fill="#F3F3F3" stroke="#595959" stroke-width="0.5" stroke-miterlimit="10" width="1.842" height="17.931"/>
		
			<rect x="510.628" y="162.268" transform="matrix(-0.9961 0.0882 -0.0882 -0.9961 1036.202 296.7052)" fill="#F3F3F3" stroke="#595959" stroke-width="0.5" stroke-miterlimit="10" width="1.842" height="17.931"/>
		
			<rect x="503.946" y="162.114" transform="matrix(-0.9734 0.229 -0.229 -0.9734 1035.4957 221.9985)" fill="#F3F3F3" stroke="#595959" stroke-width="0.5" stroke-miterlimit="10" width="1.842" height="17.931"/>
		
			<rect x="496.49" y="162.314" transform="matrix(-0.9884 0.152 -0.152 -0.9884 1015.0806 264.9417)" fill="#F3F3F3" stroke="#595959" stroke-width="0.5" stroke-miterlimit="10" width="1.842" height="17.931"/>
		
			<rect x="489.987" y="162.214" transform="matrix(-0.999 0.0451 -0.0451 -0.999 989.038 320.04)" fill="#F3F3F3" stroke="#595959" stroke-width="0.5" stroke-miterlimit="10" width="1.842" height="17.931"/>
		
			<rect x="483.403" y="162.214" transform="matrix(-0.9884 0.152 -0.152 -0.9884 989.0446 266.7325)" fill="#F3F3F3" stroke="#595959" stroke-width="0.5" stroke-miterlimit="10" width="1.842" height="17.931"/>
		
			<rect x="476.718" y="162.114" transform="matrix(-0.999 0.0451 -0.0451 -0.999 962.5103 320.4387)" fill="#F3F3F3" stroke="#595959" stroke-width="0.5" stroke-miterlimit="10" width="1.842" height="17.931"/>
		
			<rect x="470.164" y="162.114" transform="matrix(-0.9787 0.2052 -0.2052 -0.9787 967.2479 241.8702)" fill="#F3F3F3" stroke="#595959" stroke-width="0.5" stroke-miterlimit="10" width="1.842" height="17.931"/>
		
			<rect x="463.609" y="162.133" transform="matrix(-0.9884 0.152 -0.152 -0.9884 949.6735 269.5805)" fill="#F3F3F3" stroke="#595959" stroke-width="0.5" stroke-miterlimit="10" width="1.842" height="17.931"/>
		
			<rect x="457.054" y="162.114" transform="matrix(-0.9964 0.0847 -0.0847 -0.9964 928.8004 302.7366)" fill="#F3F3F3" stroke="#595959" stroke-width="0.5" stroke-miterlimit="10" width="1.842" height="17.931"/>
		
			<rect x="450.5" y="162.333" transform="matrix(-0.9713 0.2379 -0.2379 -0.9713 930.634 230.2761)" fill="#F3F3F3" stroke="#595959" stroke-width="0.5" stroke-miterlimit="10" width="1.842" height="17.931"/>
	</g>
	<path fill-rule="evenodd" clip-rule="evenodd" fill="#F3F3F3" stroke="#595959" stroke-width="0.5" stroke-miterlimit="10" d="
		M50.354,212.691v25.446c0,1.138-1.163,2.033-2.591,2.033H28.51c-1.428,0-2.591-0.895-2.591-2.033v-25.446
		c0-1.057,1.164-1.992,2.591-1.992h19.252C49.191,210.699,50.354,211.634,50.354,212.691L50.354,212.691z M39.906,226.887
		c-0.634,0-1.111-0.504-1.111-1.177c0-0.672,0.476-1.233,1.111-1.233c0.634,0,1.164,0.561,1.164,1.233
		C41.069,226.383,40.54,226.887,39.906,226.887z M48.567,214.555v21.724c0,0.972-0.86,1.735-1.916,1.735H32.413
		c-1.056,0-1.916-0.764-1.916-1.735v-21.724c0-0.902,0.861-1.701,1.916-1.701h14.238C47.707,212.854,48.567,213.653,48.567,214.555
		L48.567,214.555z M34.855,226.527h-6.131v-1.937h6.131V226.527z"/>
	<g>
		
			<rect x="22.78" y="163.952" fill-rule="evenodd" clip-rule="evenodd" fill="#F3F3F3" stroke="#595959" stroke-width="0.5" stroke-miterlimit="10" width="30.711" height="30.595"/>
		
			<rect x="22.78" y="163.952" fill-rule="evenodd" clip-rule="evenodd" fill="#F3F3F3" stroke="#595959" stroke-width="0.5" stroke-miterlimit="10" width="30.711" height="30.595"/>
		<path fill-rule="evenodd" clip-rule="evenodd" fill="#F3F3F3" stroke="#595959" stroke-width="0.5" stroke-miterlimit="10" d="
			M30.045,177.729c2.943,0,5.357-2.354,5.357-5.357c0-2.943-2.414-5.357-5.357-5.357c-2.943,0-5.357,2.414-5.357,5.357
			C24.629,175.433,27.101,177.729,30.045,177.729z"/>
		<path fill-rule="evenodd" clip-rule="evenodd" fill="#F3F3F3" stroke="#595959" stroke-width="0.5" stroke-miterlimit="10" d="
			M30.045,177.729c2.943,0,5.357-2.354,5.357-5.357c0-2.943-2.414-5.357-5.357-5.357c-2.943,0-5.357,2.414-5.357,5.357
			C24.629,175.433,27.101,177.729,30.045,177.729z"/>
		<path fill-rule="evenodd" clip-rule="evenodd" fill="#F3F3F3" stroke="#595959" stroke-width="0.5" stroke-miterlimit="10" d="
			M30.045,176.111c2.018,0,3.679-1.662,3.679-3.74c0-2.018-1.661-3.679-3.679-3.679c-2.077,0-3.739,1.661-3.739,3.679
			C26.247,174.509,27.909,176.111,30.045,176.111z"/>
		<path fill-rule="evenodd" clip-rule="evenodd" fill="#F3F3F3" stroke="#595959" stroke-width="0.5" stroke-miterlimit="10" d="
			M30.045,176.111c2.018,0,3.679-1.662,3.679-3.74c0-2.018-1.661-3.679-3.679-3.679c-2.077,0-3.739,1.661-3.739,3.679
			C26.247,174.509,27.909,176.111,30.045,176.111z"/>
		<path fill-rule="evenodd" clip-rule="evenodd" fill="#F3F3F3" stroke="#595959" stroke-width="0.5" stroke-miterlimit="10" d="
			M30.045,191.196c2.943,0,5.357-2.354,5.357-5.357c0-2.943-2.414-5.357-5.357-5.357c-2.943,0-5.357,2.414-5.357,5.357
			C24.629,188.841,27.101,191.196,30.045,191.196z"/>
		<path fill-rule="evenodd" clip-rule="evenodd" fill="#F3F3F3" stroke="#595959" stroke-width="0.5" stroke-miterlimit="10" d="
			M30.045,191.196c2.943,0,5.357-2.354,5.357-5.357c0-2.943-2.414-5.357-5.357-5.357c-2.943,0-5.357,2.414-5.357,5.357
			C24.629,188.841,27.101,191.196,30.045,191.196z"/>
		<path fill-rule="evenodd" clip-rule="evenodd" fill="#F3F3F3" stroke="#595959" stroke-width="0.5" stroke-miterlimit="10" d="
			M30.045,189.519c2.018,0,3.679-1.662,3.679-3.68c0-2.019-1.661-3.681-3.679-3.681c-2.077,0-3.739,1.662-3.739,3.681
			C26.247,187.857,27.909,189.519,30.045,189.519z"/>
		<path fill-rule="evenodd" clip-rule="evenodd" fill="#F3F3F3" stroke="#595959" stroke-width="0.5" stroke-miterlimit="10" d="
			M30.045,189.519c2.018,0,3.679-1.662,3.679-3.68c0-2.019-1.661-3.681-3.679-3.681c-2.077,0-3.739,1.662-3.739,3.681
			C26.247,187.857,27.909,189.519,30.045,189.519z"/>
		<path fill-rule="evenodd" clip-rule="evenodd" fill="#F3F3F3" stroke="#595959" stroke-width="0.5" stroke-miterlimit="10" d="
			M42.297,191.196c2.943,0,5.357-2.354,5.357-5.357c0-2.943-2.414-5.357-5.357-5.357c-2.943,0-5.357,2.414-5.357,5.357
			C36.941,188.841,39.354,191.196,42.297,191.196z"/>
		<path fill-rule="evenodd" clip-rule="evenodd" fill="#F3F3F3" stroke="#595959" stroke-width="0.5" stroke-miterlimit="10" d="
			M42.297,191.196c2.943,0,5.357-2.354,5.357-5.357c0-2.943-2.414-5.357-5.357-5.357c-2.943,0-5.357,2.414-5.357,5.357
			C36.941,188.841,39.354,191.196,42.297,191.196z"/>
		<path fill-rule="evenodd" clip-rule="evenodd" fill="#F3F3F3" stroke="#595959" stroke-width="0.5" stroke-miterlimit="10" d="
			M50.623,172.816c0.448,0,0.961-0.448,0.961-1.025c0-0.449-0.448-0.962-0.961-0.962c-0.577,0-1.025,0.449-1.025,0.962
			C49.598,172.368,50.111,172.816,50.623,172.816z"/>
		<path fill-rule="evenodd" clip-rule="evenodd" fill="#F3F3F3" stroke="#595959" stroke-width="0.5" stroke-miterlimit="10" d="
			M50.623,172.816c0.448,0,0.961-0.448,0.961-1.025c0-0.449-0.448-0.962-0.961-0.962c-0.577,0-1.025,0.449-1.025,0.962
			C49.598,172.368,50.111,172.816,50.623,172.816z"/>
		<path fill-rule="evenodd" clip-rule="evenodd" fill="#F3F3F3" stroke="#595959" stroke-width="0.5" stroke-miterlimit="10" d="
			M50.623,176.804c0.448,0,0.961-0.386,0.961-0.965c0-0.578-0.448-0.964-0.961-0.964c-0.577,0-1.025,0.385-1.025,0.964
			C49.598,176.419,50.111,176.804,50.623,176.804z"/>
		<path fill-rule="evenodd" clip-rule="evenodd" fill="#F3F3F3" stroke="#595959" stroke-width="0.5" stroke-miterlimit="10" d="
			M50.623,176.804c0.448,0,0.961-0.386,0.961-0.965c0-0.578-0.448-0.964-0.961-0.964c-0.577,0-1.025,0.385-1.025,0.964
			C49.598,176.419,50.111,176.804,50.623,176.804z"/>
		<path fill-rule="evenodd" clip-rule="evenodd" fill="#F3F3F3" stroke="#595959" stroke-width="0.5" stroke-miterlimit="10" d="
			M50.623,180.908c0.448,0,0.961-0.448,0.961-1.026c0-0.448-0.448-0.961-0.961-0.961c-0.577,0-1.025,0.449-1.025,0.961
			C49.598,180.46,50.111,180.908,50.623,180.908z"/>
		<path fill-rule="evenodd" clip-rule="evenodd" fill="#F3F3F3" stroke="#595959" stroke-width="0.5" stroke-miterlimit="10" d="
			M50.623,180.908c0.448,0,0.961-0.448,0.961-1.026c0-0.448-0.448-0.961-0.961-0.961c-0.577,0-1.025,0.449-1.025,0.961
			C49.598,180.46,50.111,180.908,50.623,180.908z"/>
		<path fill-rule="evenodd" clip-rule="evenodd" fill="#F3F3F3" stroke="#595959" stroke-width="0.5" stroke-miterlimit="10" d="
			M42.297,176.533c2.286,0,4.161-1.829,4.161-4.161c0-2.286-1.875-4.16-4.161-4.16c-2.286,0-4.161,1.874-4.161,4.16
			C38.137,174.75,40.011,176.533,42.297,176.533z"/>
		<path fill-rule="evenodd" clip-rule="evenodd" fill="#F3F3F3" stroke="#595959" stroke-width="0.5" stroke-miterlimit="10" d="
			M42.297,176.533c2.286,0,4.161-1.829,4.161-4.161c0-2.286-1.875-4.16-4.161-4.16c-2.286,0-4.161,1.874-4.161,4.16
			C38.137,174.75,40.011,176.533,42.297,176.533z"/>
		<path fill-rule="evenodd" clip-rule="evenodd" fill="#F3F3F3" stroke="#595959" stroke-width="0.5" stroke-miterlimit="10" d="
			M42.298,175.372c1.571,0,2.865-1.294,2.865-2.865c0-1.617-1.295-2.911-2.865-2.911c-1.571,0-2.911,1.294-2.911,2.911
			C39.387,174.078,40.728,175.372,42.298,175.372z"/>
		<path fill-rule="evenodd" clip-rule="evenodd" fill="#F3F3F3" stroke="#595959" stroke-width="0.5" stroke-miterlimit="10" d="
			M42.298,175.372c1.571,0,2.865-1.294,2.865-2.865c0-1.617-1.295-2.911-2.865-2.911c-1.571,0-2.911,1.294-2.911,2.911
			C39.387,174.078,40.728,175.372,42.298,175.372z"/>
	</g>
	<g>
		<path fill="#F3F3F3" stroke="#595959" stroke-width="0.5" stroke-miterlimit="10" d="M294.107,337.243
			c-0.175-3.109-0.242-11.912,2.749-18.219c2.649-5.584,7.471-9.94,9.731-11.173h44.165v29.392h-44.165
			C302.427,337.243,298.267,337.243,294.107,337.243z M306.587,307.852v29.392"/>
		
			<rect x="343.124" y="334.519" transform="matrix(-4.966755e-13 1 -1 -4.966755e-13 680.3677 -9.5431)" fill="#F3F3F3" stroke="#595959" stroke-width="0.5" stroke-miterlimit="10" width="3.662" height="1.786"/>
		
			<rect x="332.206" y="334.519" transform="matrix(-4.966755e-13 1 -1 -4.966755e-13 669.4492 1.3753)" fill="#F3F3F3" stroke="#595959" stroke-width="0.5" stroke-miterlimit="10" width="3.662" height="1.786"/>
		
			<rect x="321.399" y="334.519" transform="matrix(-1.836970e-16 1 -1 -1.836970e-16 658.6423 12.1822)" fill="#F3F3F3" stroke="#595959" stroke-width="0.5" stroke-miterlimit="10" width="3.662" height="1.786"/>
		
			<rect x="310.481" y="334.519" transform="matrix(-4.966755e-13 1 -1 -4.966755e-13 647.7239 23.1006)" fill="#F3F3F3" stroke="#595959" stroke-width="0.5" stroke-miterlimit="10" width="3.662" height="1.786"/>
		
			<rect x="344.65" y="334.787" transform="matrix(-1.836970e-16 1 -1 -1.836970e-16 681.9085 -8.0022)" fill="#F3F3F3" stroke="#595959" stroke-width="0.5" stroke-miterlimit="10" width="0.61" height="4.332"/>
		
			<rect x="333.776" y="334.787" transform="matrix(-1.836970e-16 1 -1 -1.836970e-16 671.0347 2.8716)" fill="#F3F3F3" stroke="#595959" stroke-width="0.5" stroke-miterlimit="10" width="0.61" height="4.332"/>
		
			<rect x="322.925" y="334.787" transform="matrix(-1.836970e-16 1 -1 -1.836970e-16 660.1832 13.7231)" fill="#F3F3F3" stroke="#595959" stroke-width="0.5" stroke-miterlimit="10" width="0.61" height="4.332"/>
		
			<rect x="312.006" y="334.787" transform="matrix(-1.836970e-16 1 -1 -1.836970e-16 649.2648 24.6415)" fill="#F3F3F3" stroke="#595959" stroke-width="0.5" stroke-miterlimit="10" width="0.61" height="4.332"/>
	</g>
	<g>
		<g>
			<path fill="#F3F3F3" stroke="#595959" stroke-width="0.5" stroke-miterlimit="10" d="M137.866,160.78
				c0-6.161-1.844-11.148-4.131-11.148c-2.277,0-4.131,4.987-4.131,11.148c0,6.161,1.854,11.158,4.131,11.158
				C136.022,171.938,137.866,166.941,137.866,160.78z"/>
			<path fill="#F3F3F3" stroke="#595959" stroke-width="0.5" stroke-miterlimit="10" d="M156.524,160.78
				c0-6.161-4.997-11.148-11.158-11.148c-6.161,0-11.158,4.987-11.158,11.148c0,6.161,4.997,11.158,11.158,11.158
				C151.527,171.938,156.524,166.941,156.524,160.78z"/>
		</g>
		<g>
			<path fill="#F3F3F3" stroke="#595959" stroke-width="0.5" stroke-miterlimit="10" d="M166.437,134.401
				c6.161,0,11.148-1.844,11.148-4.131c0-2.277-4.987-4.131-11.148-4.131s-11.158,1.854-11.158,4.131
				C155.28,132.557,160.276,134.401,166.437,134.401z"/>
			<path fill="#F3F3F3" stroke="#595959" stroke-width="0.5" stroke-miterlimit="10" d="M166.437,153.059
				c6.161,0,11.148-4.997,11.148-11.158c0-6.161-4.987-11.158-11.148-11.158s-11.158,4.997-11.158,11.158
				C155.28,148.062,160.276,153.059,166.437,153.059z"/>
		</g>
		<g>
			<path fill="#F3F3F3" stroke="#595959" stroke-width="0.5" stroke-miterlimit="10" d="M166.437,187.17
				c-6.171,0-11.158,1.844-11.158,4.131c0,2.277,4.987,4.131,11.158,4.131c6.161,0,11.148-1.854,11.148-4.131
				C177.585,189.014,172.598,187.17,166.437,187.17z"/>
			<path fill="#F3F3F3" stroke="#595959" stroke-width="0.5" stroke-miterlimit="10" d="M166.437,168.512
				c-6.171,0-11.158,4.997-11.158,11.158c0,6.161,4.987,11.158,11.158,11.158c6.161,0,11.148-4.997,11.148-11.158
				C177.585,173.509,172.598,168.512,166.437,168.512z"/>
		</g>
		
			<rect x="143.965" y="138.318" fill="#F3F3F3" stroke="#595959" stroke-width="0.5" stroke-miterlimit="10" width="44.935" height="44.935"/>
	</g>
	<g>
		
			<rect x="350.752" y="307.852" transform="matrix(-1 -4.487978e-11 4.487978e-11 -1 786.6986 645.1108)" fill-rule="evenodd" clip-rule="evenodd" fill="#F3F3F3" stroke="#595959" stroke-width="0.5" stroke-miterlimit="10" width="85.195" height="29.408"/>
		
			<line fill="#F3F3F3" stroke="#595959" stroke-width="0.5" stroke-miterlimit="10" x1="432.864" y1="307.852" x2="432.864" y2="337.31"/>
		
			<line fill="#F3F3F3" stroke="#595959" stroke-width="0.5" stroke-miterlimit="10" x1="353.926" y1="307.852" x2="353.926" y2="337.259"/>
		
			<line fill="#F3F3F3" stroke="#595959" stroke-width="0.5" stroke-miterlimit="10" x1="432.864" y1="335.902" x2="353.926" y2="335.902"/>
		
			<line fill="#F3F3F3" stroke="#595959" stroke-width="0.5" stroke-miterlimit="10" x1="356.676" y1="322.344" x2="430.116" y2="322.344"/>
		
			<rect x="425.38" y="313.532" transform="matrix(-0.9868 0.162 -0.162 -0.9868 899.2081 571.6896)" fill="#F3F3F3" stroke="#595959" stroke-width="0.5" stroke-miterlimit="10" width="1.842" height="17.931"/>
		
			<rect x="418.78" y="313.532" transform="matrix(-0.9961 0.0882 -0.0882 -0.9961 866.1981 606.7411)" fill="#F3F3F3" stroke="#595959" stroke-width="0.5" stroke-miterlimit="10" width="1.842" height="17.931"/>
		
			<rect x="412.098" y="313.379" transform="matrix(-0.9734 0.229 -0.229 -0.9734 888.8804 541.5403)" fill="#F3F3F3" stroke="#595959" stroke-width="0.5" stroke-miterlimit="10" width="1.842" height="17.931"/>
		
			<rect x="404.642" y="313.579" transform="matrix(-0.9884 0.152 -0.152 -0.9884 855.451 579.676)" fill="#F3F3F3" stroke="#595959" stroke-width="0.5" stroke-miterlimit="10" width="1.842" height="17.931"/>
		
			<rect x="398.139" y="313.479" transform="matrix(-0.999 0.0451 -0.0451 -0.999 812.2595 626.5576)" fill="#F3F3F3" stroke="#595959" stroke-width="0.5" stroke-miterlimit="10" width="1.842" height="17.931"/>
		
			<rect x="391.555" y="313.479" transform="matrix(-0.9884 0.152 -0.152 -0.9884 829.415 581.4668)" fill="#F3F3F3" stroke="#595959" stroke-width="0.5" stroke-miterlimit="10" width="1.842" height="17.931"/>
		
			<rect x="384.87" y="313.379" transform="matrix(-0.999 0.0451 -0.0451 -0.999 785.7318 626.9563)" fill="#F3F3F3" stroke="#595959" stroke-width="0.5" stroke-miterlimit="10" width="1.842" height="17.931"/>
		
			<rect x="378.316" y="313.379" transform="matrix(-0.9787 0.2052 -0.2052 -0.9787 816.5402 560.0246)" fill="#F3F3F3" stroke="#595959" stroke-width="0.5" stroke-miterlimit="10" width="1.842" height="17.931"/>
		
			<rect x="371.761" y="313.397" transform="matrix(-0.9884 0.152 -0.152 -0.9884 790.044 584.3148)" fill="#F3F3F3" stroke="#595959" stroke-width="0.5" stroke-miterlimit="10" width="1.842" height="17.931"/>
		
			<rect x="365.206" y="313.379" transform="matrix(-0.9964 0.0847 -0.0847 -0.9964 758.2529 612.5037)" fill="#F3F3F3" stroke="#595959" stroke-width="0.5" stroke-miterlimit="10" width="1.842" height="17.931"/>
		
			<rect x="358.652" y="313.597" transform="matrix(-0.9713 0.2379 -0.2379 -0.9713 785.5646 550.3132)" fill="#F3F3F3" stroke="#595959" stroke-width="0.5" stroke-miterlimit="10" width="1.842" height="17.931"/>
	</g>
	<g>
		<path fill="#F3F3F3" stroke="#595959" stroke-width="0.5" stroke-miterlimit="10" d="M214.444,42.877
			c1.53,0.462,2.555,1.455,2.757,1.42c0.725-0.129-0.999-1.233,0.158-4.507c0.869-2.458,1.559-5.996,1.559-5.996
			s2.552,2.737,3.777,5.097c1.409,2.713,0.037,5.409,0.261,5.526c0.296,0.156,1.044-1.841,3.396-2.319
			c2.878-0.585,6.835,2.159,6.835,2.159s-2.995,0.06-5.037,2.114c-1.955,1.966-4.119,1.59-3.996,2.004
			c0.075,0.251,2.429,0.941,4.176,2.178c1.541,1.092,2.473,4.182,2.473,4.182s-1.484-1.304-5.486-0.944
			c-3.623,0.326-4.425-3.907-4.662-3.867c-0.342,0.058,0.435,2.114-0.588,5.037c-0.953,2.724-4.955,5.516-4.955,5.516
			s-0.558-4.126-0.678-5.942c-0.232-3.522,2.264-5.275,1.904-5.81c-0.273-0.405-2.821,0.956-5.185-0.689
			c-1.381-0.96-5.308-2.609-5.308-2.609s3.846-2.161,5.981-2.653C212.798,42.549,213.683,42.647,214.444,42.877"/>
		<path fill="#F3F3F3" stroke="#595959" stroke-width="0.5" stroke-miterlimit="10" d="M216.947,41.963
			c0.003-0.183,0.011-0.47,0.04-0.822c0.038-0.47,0.08-0.628,0.084-0.927c0.003-0.241-0.026-0.527-0.116-1.016
			c-0.261-1.405-1.755-2.22-2.334-2.601c-0.467-0.307-2.439-1.434-2.439-1.434s-1.184,3.035-0.747,5.151
			c0.399,1.166,3.011,2.565,3.011,2.565l2.972,1.58L216.947,41.963z"/>
		<path fill="#F3F3F3" stroke="#595959" stroke-width="0.5" stroke-miterlimit="10" d="M224.823,42.716c0,0,1.713-1.016,2.61-2.236
			c1.453-1.977,1.501-4.078,1.484-4.812c0,0-3.419,0.064-4.654,2.069c-0.838,1.359-0.903,2.706-0.922,3.177
			c-0.007,0.171-0.022,0.335-0.049,0.504l-0.604,3.229L224.823,42.716z"/>
		<path fill="#F3F3F3" stroke="#595959" stroke-width="0.5" stroke-miterlimit="10" d="M226.571,49.533c0,0,2.116,1.122,2.75,1.289
			c0.735,0.194,1.159,0.196,1.374,0.184c0.807-0.045,1.374-0.356,1.746-0.47c0.448-0.137,2.523-0.523,2.523-0.523
			s-2.027-2.513-4.132-3.284c-2.188-0.5-2.979,0.107-3.607,0.406c-0.182,0.087-0.366,0.158-0.56,0.213l-3,0.798L226.571,49.533z"/>
		<path fill="#F3F3F3" stroke="#595959" stroke-width="0.5" stroke-miterlimit="10" d="M220.535,53.271c0,0-0.204,2.611,0.225,3.43
			c0.161,0.307,0.359,1.23,1.951,1.818c1.535,0.568,2.454,1.647,2.454,1.647s0.534-2.133,0.12-3.5
			c-0.19-0.627-0.315-0.971-0.605-1.564c-0.328-0.671-1.281-1.324-1.976-1.885c-0.728-0.587-1.224-1.513-1.224-1.513l-0.817-1.941
			L220.535,53.271z"/>
		<path fill="#F3F3F3" stroke="#595959" stroke-width="0.5" stroke-miterlimit="10" d="M213.708,48.625c0,0-1.896-0.021-3.23,0.45
			c-0.957,0.338-1.41,1.179-2.398,2.584c-0.311,0.442-1.439,2.303-1.439,2.303s3.437,0.927,5.756,0.42
			c1.763-0.386,2.77-2.944,2.77-2.944l1.458-2.917L213.708,48.625z"/>
	</g>
	<g>
		
			<rect x="288.031" y="218.38" transform="matrix(-1 -1.224647e-16 1.224647e-16 -1 649.6171 464.8557)" fill-rule="evenodd" clip-rule="evenodd" fill="#F3F3F3" stroke="#595959" stroke-width="0.5" stroke-miterlimit="10" width="73.556" height="28.096"/>
		
			<rect x="328.256" y="215.759" transform="matrix(-1 -1.224647e-16 1.224647e-16 -1 658.3263 434.1386)" fill-rule="evenodd" clip-rule="evenodd" fill="#F3F3F3" stroke="#595959" stroke-width="0.5" stroke-miterlimit="10" width="1.814" height="2.621"/>
		
			<rect x="319.44" y="215.759" transform="matrix(-1 -1.224647e-16 1.224647e-16 -1 640.6941 434.1386)" fill-rule="evenodd" clip-rule="evenodd" fill="#F3F3F3" stroke="#595959" stroke-width="0.5" stroke-miterlimit="10" width="1.814" height="2.621"/>
	</g>
</g>
<g id="numbers">
	<g>
		<path d="M242.284,97.252h-4.849l0.013,8.268h-0.949v-9.1h5.785V97.252z"/>
		<path d="M242.765,105.137c-0.529-0.299-0.945-0.713-1.248-1.242c-0.303-0.528-0.455-1.126-0.455-1.794s0.152-1.265,0.455-1.794
			s0.719-0.94,1.248-1.235c0.528-0.294,1.122-0.442,1.781-0.442s1.252,0.147,1.781,0.442c0.528,0.295,0.942,0.707,1.242,1.235
			c0.299,0.529,0.448,1.126,0.448,1.794s-0.149,1.266-0.448,1.794c-0.299,0.529-0.713,0.942-1.242,1.242
			c-0.529,0.299-1.123,0.448-1.781,0.448S243.293,105.436,242.765,105.137z M245.853,104.435c0.386-0.221,0.687-0.535,0.904-0.942
			c0.216-0.407,0.325-0.871,0.325-1.391s-0.108-0.983-0.325-1.391c-0.217-0.407-0.518-0.722-0.904-0.942
			c-0.386-0.221-0.821-0.332-1.307-0.332s-0.921,0.11-1.306,0.332c-0.386,0.221-0.689,0.535-0.91,0.942
			c-0.221,0.408-0.332,0.871-0.332,1.391s0.11,0.984,0.332,1.391s0.524,0.721,0.91,0.942c0.385,0.221,0.821,0.332,1.306,0.332
			S245.467,104.656,245.853,104.435z"/>
		<path d="M251.039,105.143c-0.533-0.294-0.951-0.708-1.254-1.242c-0.303-0.533-0.455-1.133-0.455-1.8s0.152-1.265,0.455-1.794
			s0.722-0.94,1.254-1.235c0.533-0.294,1.138-0.442,1.813-0.442c0.589,0,1.116,0.115,1.58,0.345c0.463,0.229,0.83,0.565,1.099,1.007
			l-0.689,0.468c-0.226-0.338-0.512-0.592-0.858-0.761c-0.347-0.169-0.724-0.253-1.131-0.253c-0.494,0-0.938,0.11-1.333,0.332
			c-0.395,0.221-0.702,0.535-0.923,0.942c-0.221,0.408-0.332,0.871-0.332,1.391c0,0.529,0.11,0.995,0.332,1.397
			s0.528,0.715,0.923,0.936s0.839,0.332,1.333,0.332c0.407,0,0.784-0.083,1.131-0.247c0.346-0.165,0.632-0.416,0.858-0.754
			l0.689,0.468c-0.269,0.442-0.637,0.778-1.105,1.008c-0.468,0.229-0.993,0.344-1.573,0.344
			C252.177,105.585,251.572,105.438,251.039,105.143z"/>
		<path d="M261.991,99.501h-2.587v6.019h-0.923v-6.019h-2.587v-0.819h6.097V99.501z"/>
		<path d="M263.33,98.682h0.923v5.434l4.563-5.434h0.819v6.838h-0.923v-5.434l-4.55,5.434h-0.832V98.682z"/>
		<path d="M272.274,98.682h0.923v3.029h4.303v-3.029h0.923v6.838H277.5v-3.016h-4.303v3.016h-0.923V98.682z"/>
		<path d="M285.456,99.3c0.476,0.447,0.715,1.107,0.715,1.983v4.238h-0.885v-1.066c-0.208,0.355-0.513,0.633-0.916,0.832
			s-0.882,0.299-1.437,0.299c-0.763,0-1.369-0.182-1.82-0.546c-0.45-0.364-0.676-0.845-0.676-1.443c0-0.581,0.21-1.049,0.631-1.404
			c0.42-0.355,1.09-0.533,2.008-0.533h2.172v-0.416c0-0.589-0.165-1.038-0.494-1.346c-0.33-0.308-0.811-0.461-1.443-0.461
			c-0.434,0-0.85,0.071-1.248,0.214s-0.741,0.34-1.027,0.592l-0.416-0.689c0.347-0.295,0.763-0.522,1.248-0.683
			s0.997-0.241,1.534-0.241C284.294,98.63,284.979,98.853,285.456,99.3z M284.416,104.5c0.372-0.238,0.649-0.583,0.832-1.034v-1.118
			h-2.146c-1.17,0-1.755,0.407-1.755,1.222c0,0.399,0.151,0.713,0.455,0.943c0.303,0.229,0.728,0.344,1.273,0.344
			C283.597,104.857,284.043,104.738,284.416,104.5z"/>
		<path d="M293.88,98.682v6.838h-0.845v-2.262h-2.146h-0.26l-1.586,2.262h-1.001l1.703-2.392c-0.529-0.147-0.937-0.398-1.223-0.754
			s-0.429-0.806-0.429-1.352c0-0.763,0.26-1.343,0.78-1.742c0.52-0.398,1.23-0.598,2.132-0.598H293.88z M290.968,102.569h2.067
			v-3.068h-2.003c-1.334,0-2.002,0.516-2.002,1.547C289.03,102.062,289.676,102.569,290.968,102.569z"/>
		<path d="M238.969,112.52v9.8h-1.82v-8.274h-2.072v-1.526H238.969z"/>
		<path d="M247.047,117.119c0.663,0.537,0.994,1.267,0.994,2.191c0,0.588-0.145,1.12-0.434,1.596
			c-0.29,0.476-0.724,0.854-1.302,1.134c-0.579,0.28-1.292,0.42-2.142,0.42c-0.7,0-1.376-0.101-2.03-0.301s-1.204-0.478-1.652-0.833
			l0.77-1.414c0.364,0.299,0.8,0.535,1.309,0.707c0.508,0.173,1.033,0.259,1.575,0.259c0.644,0,1.15-0.133,1.519-0.399
			c0.369-0.266,0.553-0.632,0.553-1.099c0-0.504-0.199-0.884-0.595-1.141c-0.397-0.256-1.076-0.385-2.037-0.385h-2.366l0.504-5.334
			h5.754v1.526h-4.214l-0.21,2.268h0.938C245.362,116.314,246.384,116.582,247.047,117.119z"/>
		<path d="M251.009,120.416c0.214,0.215,0.322,0.495,0.322,0.84c0,0.149-0.021,0.306-0.063,0.469
			c-0.042,0.164-0.128,0.409-0.259,0.735l-0.714,1.974h-1.134l0.56-2.142c-0.206-0.084-0.367-0.217-0.483-0.399
			c-0.117-0.182-0.175-0.395-0.175-0.637c0-0.345,0.107-0.625,0.322-0.84c0.214-0.215,0.485-0.322,0.812-0.322
			C250.523,120.094,250.794,120.201,251.009,120.416z"/>
		<path d="M259.688,112.52v1.218l-3.808,8.582h-1.946l3.682-8.26h-3.85v1.666h-1.694v-3.206H259.688z"/>
	</g>
	<g>
		<path d="M404.143,146.148c-0.724-0.398-1.291-0.951-1.703-1.658c-0.411-0.706-0.617-1.497-0.617-2.372s0.206-1.666,0.617-2.373
			c0.412-0.707,0.981-1.259,1.71-1.658c0.728-0.398,1.542-0.598,2.444-0.598c0.676,0,1.3,0.113,1.872,0.338
			c0.571,0.225,1.057,0.555,1.455,0.988l-0.61,0.611c-0.711-0.719-1.608-1.079-2.691-1.079c-0.72,0-1.373,0.165-1.963,0.494
			c-0.59,0.33-1.051,0.78-1.385,1.352c-0.333,0.572-0.5,1.213-0.5,1.924c0,0.71,0.167,1.352,0.5,1.924
			c0.334,0.572,0.795,1.023,1.385,1.352c0.59,0.33,1.243,0.494,1.963,0.494c1.092,0,1.989-0.364,2.691-1.092l0.61,0.611
			c-0.398,0.434-0.886,0.765-1.462,0.995c-0.576,0.23-1.202,0.345-1.879,0.345C405.679,146.746,404.866,146.547,404.143,146.148z"/>
		<path d="M417.825,139.83v6.838h-0.923v-6.019h-4.29v6.019h-0.923v-6.838H417.825z"/>
		<path d="M424.857,140.447c0.477,0.447,0.715,1.107,0.715,1.983v4.238h-0.884v-1.066c-0.208,0.355-0.514,0.633-0.916,0.832
			c-0.403,0.199-0.882,0.299-1.437,0.299c-0.763,0-1.37-0.182-1.82-0.546c-0.45-0.364-0.676-0.845-0.676-1.443
			c0-0.581,0.21-1.049,0.63-1.404c0.421-0.355,1.09-0.533,2.009-0.533h2.171v-0.416c0-0.589-0.164-1.038-0.494-1.346
			c-0.329-0.308-0.81-0.461-1.442-0.461c-0.434,0-0.85,0.071-1.248,0.214s-0.741,0.34-1.027,0.592l-0.416-0.689
			c0.347-0.295,0.763-0.522,1.248-0.683s0.997-0.241,1.534-0.241C423.696,139.778,424.381,140.001,424.857,140.447z
			 M423.817,145.647c0.373-0.238,0.65-0.583,0.832-1.034v-1.118h-2.145c-1.17,0-1.755,0.407-1.755,1.222
			c0,0.399,0.151,0.713,0.455,0.943c0.303,0.229,0.728,0.344,1.273,0.344C422.999,146.005,423.445,145.886,423.817,145.647z"/>
		<path d="M433.62,139.83v6.838h-0.923v-6.019h-3.276l-0.091,1.69c-0.069,1.421-0.234,2.514-0.494,3.276
			c-0.26,0.763-0.724,1.144-1.392,1.144c-0.182,0-0.402-0.035-0.662-0.104l0.064-0.793c0.156,0.035,0.265,0.052,0.325,0.052
			c0.355,0,0.624-0.165,0.806-0.494c0.183-0.329,0.304-0.736,0.364-1.222c0.061-0.485,0.112-1.126,0.156-1.924l0.117-2.444H433.62z"
			/>
		<path d="M441.14,142.82c0.446,0.373,0.67,0.91,0.67,1.612c0,0.728-0.24,1.287-0.722,1.677c-0.48,0.39-1.177,0.581-2.086,0.572
			l-2.756-0.013v-6.838h0.923v2.392l2.015,0.026C440.042,142.257,440.693,142.447,441.14,142.82z M440.386,145.596
			c0.325-0.265,0.488-0.652,0.488-1.164c0-0.503-0.161-0.875-0.481-1.118s-0.802-0.368-1.443-0.377l-1.78-0.026v3.042l1.78,0.026
			C439.582,145.988,440.062,145.86,440.386,145.596z"/>
		<path d="M443.565,139.83h0.923v3.029h4.303v-3.029h0.923v6.838h-0.923v-3.016h-4.303v3.016h-0.923V139.83z"/>
		<path d="M457.592,139.83v6.838h-0.846v-2.262h-2.145h-0.26l-1.587,2.262h-1.001l1.703-2.392c-0.528-0.147-0.936-0.398-1.222-0.754
			s-0.429-0.806-0.429-1.352c0-0.763,0.26-1.343,0.779-1.742c0.521-0.398,1.231-0.598,2.133-0.598H457.592z M454.68,143.717h2.066
			v-3.068h-2.002c-1.335,0-2.002,0.516-2.002,1.547C452.742,143.21,453.388,143.717,454.68,143.717z"/>
		<path d="M405.072,153.668v9.8h-1.82v-8.274h-2.071v-1.526H405.072z"/>
		<path d="M414.116,161.928v1.54h-7.224v-1.218l3.892-3.696c0.438-0.42,0.735-0.786,0.89-1.099c0.153-0.313,0.23-0.623,0.23-0.931
			c0-0.458-0.154-0.807-0.462-1.05c-0.308-0.243-0.761-0.364-1.358-0.364c-0.998,0-1.764,0.341-2.296,1.022l-1.273-0.98
			c0.382-0.513,0.897-0.912,1.547-1.197c0.648-0.284,1.374-0.427,2.177-0.427c1.064,0,1.913,0.252,2.548,0.756
			s0.952,1.19,0.952,2.058c0,0.532-0.112,1.031-0.336,1.498s-0.653,0.999-1.288,1.596l-2.618,2.492H414.116z"/>
		<path d="M417.224,161.564c0.215,0.215,0.322,0.495,0.322,0.84c0,0.149-0.021,0.306-0.063,0.469
			c-0.042,0.164-0.128,0.409-0.259,0.735l-0.714,1.974h-1.135l0.561-2.142c-0.205-0.084-0.366-0.217-0.483-0.399
			c-0.116-0.182-0.175-0.395-0.175-0.637c0-0.345,0.107-0.625,0.322-0.84s0.485-0.322,0.812-0.322
			C416.738,161.242,417.009,161.349,417.224,161.564z"/>
		<path d="M425.903,153.668v1.218l-3.808,8.582h-1.946l3.682-8.26h-3.85v1.666h-1.694v-3.206H425.903z"/>
	</g>
	<g>
		<path d="M51.819,36.85v9.1h-0.949v-8.268h-4.394l-0.104,3.042c-0.043,1.257-0.146,2.269-0.306,3.036
			c-0.161,0.767-0.405,1.339-0.734,1.716c-0.33,0.377-0.767,0.565-1.313,0.565c-0.234,0-0.477-0.03-0.728-0.091l0.078-0.858
			c0.147,0.035,0.29,0.052,0.429,0.052c0.381,0,0.691-0.151,0.93-0.455c0.238-0.303,0.418-0.773,0.54-1.41
			c0.121-0.637,0.204-1.48,0.247-2.529l0.13-3.9H51.819z"/>
		<path d="M55.707,45.567c-0.529-0.299-0.945-0.713-1.248-1.242c-0.303-0.528-0.455-1.126-0.455-1.794s0.152-1.265,0.455-1.794
			s0.719-0.94,1.248-1.235c0.528-0.294,1.122-0.442,1.781-0.442s1.252,0.147,1.781,0.442c0.528,0.295,0.942,0.707,1.242,1.235
			c0.299,0.529,0.448,1.126,0.448,1.794s-0.149,1.266-0.448,1.794c-0.299,0.529-0.713,0.942-1.242,1.242
			c-0.529,0.299-1.123,0.448-1.781,0.448S56.235,45.866,55.707,45.567z M58.794,44.865c0.386-0.221,0.687-0.535,0.904-0.942
			c0.216-0.407,0.325-0.871,0.325-1.391s-0.108-0.983-0.325-1.391c-0.217-0.407-0.518-0.722-0.904-0.942
			c-0.386-0.221-0.821-0.332-1.307-0.332s-0.921,0.11-1.306,0.332c-0.386,0.221-0.689,0.535-0.91,0.942
			c-0.221,0.408-0.332,0.871-0.332,1.391s0.11,0.984,0.332,1.391s0.524,0.721,0.91,0.942c0.385,0.221,0.821,0.332,1.306,0.332
			S58.408,45.086,58.794,44.865z"/>
		<path d="M69.564,45.144v2.457h-0.871V45.95H62.57v1.651H61.7v-2.457h0.39c0.459-0.026,0.771-0.364,0.936-1.014
			c0.165-0.65,0.277-1.56,0.338-2.73l0.091-2.288h5.044v6.032H69.564z M63.961,43.85c-0.122,0.628-0.338,1.06-0.65,1.293h4.264
			v-5.213h-3.289l-0.078,1.521C64.165,42.423,64.083,43.222,63.961,43.85z"/>
		<path d="M77.352,42.908H75.87v3.042h-0.923v-3.042h-1.482l-2.093,3.042h-1.105l2.457-3.523l-2.262-3.315h1.001l2.002,3.003h1.482
			v-3.003h0.923v3.003h1.482l2.015-3.003h1.001l-2.262,3.328l2.457,3.51h-1.105L77.352,42.908z"/>
		<path d="M82.096,39.112h0.923v5.434l4.563-5.434h0.819v6.838h-0.923v-5.434l-4.55,5.434h-0.832V39.112z"/>
		<path d="M96.292,39.112v6.838h-0.845v-2.262h-2.145h-0.26l-1.586,2.262h-1.001l1.703-2.392c-0.529-0.147-0.936-0.398-1.222-0.754
			s-0.429-0.806-0.429-1.352c0-0.763,0.26-1.343,0.78-1.742c0.52-0.398,1.23-0.598,2.132-0.598H96.292z M93.38,42.999h2.067v-3.068
			h-2.002c-1.334,0-2.002,0.516-2.002,1.547C91.443,42.492,92.088,42.999,93.38,42.999z"/>
		<path d="M50.008,57.92c0.476,0.504,0.714,1.134,0.714,1.89c0,0.569-0.145,1.087-0.434,1.554c-0.29,0.467-0.726,0.838-1.309,1.113
			c-0.583,0.275-1.295,0.413-2.135,0.413c-0.7,0-1.374-0.101-2.023-0.301c-0.648-0.201-1.202-0.478-1.659-0.833l0.784-1.414
			c0.355,0.299,0.786,0.535,1.295,0.707c0.509,0.173,1.034,0.259,1.575,0.259c0.644,0,1.15-0.133,1.519-0.399
			c0.369-0.266,0.553-0.628,0.553-1.085c0-0.458-0.175-0.814-0.525-1.071c-0.35-0.256-0.884-0.385-1.603-0.385h-0.896v-1.246
			l2.226-2.646h-4.452V52.95h6.678v1.218l-2.38,2.828C48.842,57.108,49.532,57.416,50.008,57.92z"/>
		<path d="M53.831,60.846c0.214,0.215,0.322,0.495,0.322,0.84c0,0.149-0.021,0.306-0.063,0.469
			c-0.042,0.164-0.128,0.409-0.259,0.735l-0.714,1.974h-1.134l0.56-2.142c-0.206-0.084-0.367-0.217-0.483-0.399
			c-0.117-0.182-0.175-0.395-0.175-0.637c0-0.345,0.107-0.625,0.322-0.84c0.214-0.215,0.485-0.322,0.812-0.322
			C53.345,60.524,53.616,60.631,53.831,60.846z"/>
		<path d="M63.995,60.524h-1.736v2.226h-1.764v-2.226h-5.376v-1.26l4.83-6.314h1.946l-4.55,6.034h3.206V57.01h1.708v1.974h1.736
			V60.524z"/>
	</g>
	<g>
		<path d="M66.116,151.457h-2.08v4.173h-0.936v-9.1h0.936v4.082h2.08l3.081-4.082h1.04l-3.38,4.42l3.575,4.68h-1.105L66.116,151.457
			z"/>
		<path d="M77.492,148.792l-3.419,7.657c-0.277,0.642-0.598,1.096-0.962,1.365c-0.364,0.269-0.802,0.403-1.313,0.403
			c-0.33,0-0.637-0.052-0.923-0.156c-0.286-0.104-0.533-0.26-0.741-0.468l0.429-0.689c0.347,0.347,0.763,0.52,1.248,0.52
			c0.312,0,0.579-0.087,0.8-0.26c0.221-0.174,0.427-0.468,0.617-0.884l0.299-0.663l-3.055-6.825h0.962l2.574,5.811l2.574-5.811
			H77.492z"/>
		<path d="M82.821,155.63l-2.171-2.86l-2.184,2.86h-1.04l2.704-3.51l-2.574-3.328h1.04l2.054,2.678l2.054-2.678h1.014l-2.574,3.328
			l2.73,3.51H82.821z"/>
		<path d="M85.382,148.792h0.923v3.029h4.303v-3.029h0.923v6.838h-0.923v-3.016h-4.303v3.016h-0.923V148.792z"/>
		<path d="M99.409,148.792v6.838h-0.845v-2.262h-2.145h-0.26l-1.586,2.262h-1.001l1.703-2.392c-0.529-0.147-0.936-0.398-1.222-0.754
			s-0.429-0.806-0.429-1.352c0-0.763,0.26-1.343,0.78-1.742c0.52-0.398,1.23-0.598,2.132-0.598H99.409z M96.497,152.679h2.067
			v-3.068h-2.002c-1.334,0-2.002,0.516-2.002,1.547C94.56,152.172,95.206,152.679,96.497,152.679z"/>
		<path d="M65.57,162.63v9.8h-1.82v-8.274h-2.072v-1.526H65.57z"/>
		<path d="M69.504,171.974c-0.616-0.396-1.102-0.975-1.456-1.736c-0.355-0.761-0.532-1.664-0.532-2.709s0.177-1.948,0.532-2.709
			c0.354-0.761,0.84-1.339,1.456-1.736c0.616-0.396,1.316-0.595,2.1-0.595c0.784,0,1.486,0.198,2.107,0.595
			c0.621,0.397,1.108,0.976,1.463,1.736c0.354,0.761,0.532,1.664,0.532,2.709s-0.178,1.948-0.532,2.709
			c-0.355,0.761-0.842,1.339-1.463,1.736c-0.621,0.397-1.323,0.595-2.107,0.595C70.82,172.57,70.121,172.371,69.504,171.974z
			 M73.263,170.119c0.406-0.579,0.609-1.442,0.609-2.59s-0.203-2.011-0.609-2.59c-0.406-0.578-0.959-0.868-1.659-0.868
			c-0.691,0-1.239,0.29-1.645,0.868c-0.406,0.579-0.609,1.442-0.609,2.59s0.203,2.011,0.609,2.59
			c0.406,0.579,0.954,0.868,1.645,0.868C72.304,170.988,72.857,170.699,73.263,170.119z"/>
		<path d="M78.688,170.526c0.214,0.215,0.322,0.495,0.322,0.84c0,0.149-0.021,0.306-0.063,0.469
			c-0.042,0.164-0.128,0.409-0.259,0.735l-0.714,1.974H76.84l0.56-2.142c-0.206-0.084-0.367-0.217-0.483-0.399
			c-0.117-0.182-0.175-0.395-0.175-0.637c0-0.345,0.107-0.625,0.322-0.84c0.214-0.215,0.485-0.322,0.812-0.322
			C78.203,170.203,78.474,170.311,78.688,170.526z"/>
		<path d="M86.619,163.749c0.742,0.84,1.113,2.044,1.113,3.612c0,1.101-0.201,2.042-0.602,2.821s-0.964,1.372-1.687,1.778
			c-0.724,0.406-1.561,0.609-2.513,0.609c-0.504,0-0.978-0.054-1.421-0.161s-0.829-0.264-1.155-0.469l0.672-1.372
			c0.485,0.317,1.106,0.476,1.862,0.476c0.943,0,1.68-0.289,2.212-0.868c0.532-0.579,0.798-1.414,0.798-2.506v-0.014
			c-0.29,0.336-0.658,0.59-1.106,0.763c-0.448,0.173-0.952,0.259-1.512,0.259c-0.644,0-1.223-0.124-1.736-0.371
			c-0.514-0.247-0.915-0.6-1.204-1.057c-0.29-0.457-0.434-0.984-0.434-1.582c0-0.634,0.159-1.192,0.476-1.673
			c0.317-0.48,0.747-0.852,1.288-1.113c0.541-0.261,1.148-0.392,1.82-0.392C84.834,162.49,85.877,162.91,86.619,163.749z
			 M85.065,166.774c0.369-0.317,0.553-0.719,0.553-1.204c0-0.476-0.18-0.87-0.539-1.183c-0.359-0.313-0.856-0.469-1.491-0.469
			c-0.569,0-1.031,0.152-1.386,0.455c-0.354,0.304-0.532,0.707-0.532,1.211c0,0.514,0.177,0.919,0.532,1.218
			c0.355,0.299,0.831,0.448,1.428,0.448C84.218,167.249,84.696,167.091,85.065,166.774z"/>
	</g>
	<g>
		<path d="M77.2,289.666v1.54h-7.224v-1.218l3.892-3.696c0.439-0.42,0.735-0.786,0.889-1.099s0.231-0.623,0.231-0.932
			c0-0.457-0.154-0.807-0.462-1.05c-0.308-0.242-0.761-0.364-1.358-0.364c-0.999,0-1.764,0.341-2.296,1.022l-1.274-0.98
			c0.383-0.513,0.898-0.912,1.547-1.196c0.648-0.285,1.374-0.428,2.177-0.428c1.064,0,1.913,0.252,2.548,0.757
			c0.635,0.504,0.952,1.189,0.952,2.058c0,0.532-0.112,1.031-0.336,1.498s-0.653,0.999-1.288,1.596l-2.618,2.492H77.2z"/>
		<path d="M80.308,289.302c0.214,0.215,0.322,0.495,0.322,0.84c0,0.149-0.021,0.307-0.063,0.47s-0.128,0.408-0.259,0.734
			l-0.714,1.975h-1.134l0.56-2.143c-0.206-0.084-0.367-0.217-0.483-0.398c-0.117-0.183-0.175-0.395-0.175-0.638
			c0-0.345,0.107-0.625,0.322-0.84c0.214-0.214,0.485-0.321,0.812-0.321C79.822,288.981,80.093,289.088,80.308,289.302z"/>
		<path d="M89.484,286.999c0.275,0.396,0.413,0.861,0.413,1.393c0,0.598-0.166,1.12-0.497,1.568c-0.331,0.448-0.8,0.791-1.407,1.029
			c-0.607,0.238-1.312,0.356-2.114,0.356s-1.505-0.118-2.107-0.356s-1.066-0.581-1.393-1.029s-0.49-0.971-0.49-1.568
			c0-0.531,0.135-0.996,0.406-1.393c0.271-0.396,0.658-0.712,1.162-0.945c-0.392-0.214-0.693-0.497-0.903-0.847
			s-0.315-0.754-0.315-1.211c0-0.551,0.151-1.031,0.455-1.442c0.303-0.41,0.73-0.728,1.281-0.951
			c0.551-0.225,1.185-0.337,1.904-0.337c0.728,0,1.367,0.112,1.918,0.337c0.551,0.224,0.98,0.541,1.288,0.951
			c0.308,0.411,0.462,0.892,0.462,1.442c0,0.457-0.107,0.858-0.322,1.204c-0.215,0.346-0.523,0.63-0.924,0.854
			C88.814,286.287,89.208,286.603,89.484,286.999z M87.475,289.498c0.392-0.28,0.588-0.667,0.588-1.162
			c0-0.485-0.196-0.868-0.588-1.147c-0.392-0.28-0.924-0.421-1.596-0.421c-0.672,0-1.199,0.141-1.582,0.421
			c-0.383,0.279-0.574,0.662-0.574,1.147c0,0.495,0.191,0.882,0.574,1.162s0.91,0.42,1.582,0.42
			C86.551,289.918,87.083,289.779,87.475,289.498z M84.528,283.058c-0.332,0.243-0.497,0.584-0.497,1.022
			c0,0.42,0.166,0.754,0.497,1.001c0.331,0.247,0.781,0.371,1.351,0.371c0.579,0,1.036-0.124,1.372-0.371s0.504-0.581,0.504-1.001
			c0-0.438-0.17-0.779-0.511-1.022c-0.341-0.242-0.796-0.363-1.365-0.363S84.859,282.816,84.528,283.058z"/>
	</g>
	<g>
		<path d="M467.928,278.98h-1.735v2.226h-1.765v-2.226h-5.376v-1.261l4.83-6.313h1.946l-4.55,6.034h3.206v-1.975h1.708v1.975h1.735
			V278.98z"/>
		<path d="M470.896,279.301c0.215,0.215,0.322,0.495,0.322,0.84c0,0.149-0.021,0.307-0.063,0.47s-0.128,0.408-0.259,0.734
			l-0.714,1.975h-1.135l0.561-2.143c-0.205-0.084-0.366-0.217-0.483-0.398c-0.116-0.183-0.175-0.395-0.175-0.638
			c0-0.345,0.107-0.625,0.322-0.84c0.215-0.214,0.485-0.321,0.812-0.321C470.411,278.98,470.682,279.087,470.896,279.301z"/>
		<path d="M481.06,278.98h-1.735v2.226h-1.765v-2.226h-5.376v-1.261l4.83-6.313h1.946l-4.55,6.034h3.206v-1.975h1.708v1.975h1.735
			V278.98z"/>
	</g>
	<g>
		<path d="M213.195,285.273v9.8h-1.82v-8.274h-2.072v-1.525H213.195z"/>
		<path d="M218.529,285.273v9.8h-1.82v-8.274h-2.072v-1.525H218.529z"/>
		<path d="M222.393,293.168c0.215,0.215,0.322,0.495,0.322,0.84c0,0.149-0.021,0.307-0.063,0.47s-0.128,0.408-0.259,0.734
			l-0.714,1.975h-1.135l0.561-2.143c-0.205-0.084-0.366-0.217-0.483-0.398c-0.116-0.183-0.175-0.395-0.175-0.638
			c0-0.345,0.107-0.625,0.322-0.84c0.215-0.214,0.485-0.321,0.812-0.321C221.907,292.847,222.178,292.954,222.393,293.168z"/>
		<path d="M230.022,289.871c0.662,0.537,0.994,1.268,0.994,2.191c0,0.588-0.145,1.12-0.435,1.596
			c-0.289,0.476-0.723,0.854-1.302,1.134c-0.579,0.28-1.293,0.42-2.142,0.42c-0.7,0-1.377-0.1-2.03-0.301
			c-0.653-0.2-1.204-0.479-1.652-0.833l0.771-1.414c0.364,0.299,0.8,0.534,1.309,0.707s1.034,0.259,1.575,0.259
			c0.645,0,1.15-0.133,1.52-0.398c0.368-0.267,0.553-0.633,0.553-1.1c0-0.504-0.198-0.884-0.595-1.141
			c-0.397-0.257-1.076-0.385-2.037-0.385h-2.366l0.504-5.334h5.754v1.525h-4.214l-0.21,2.269h0.938
			C228.338,289.067,229.359,289.335,230.022,289.871z"/>
	</g>
</g>
<g>
</g>
<g>
</g>
<g>
</g>
<g>
</g>
<g>
</g>
<g>
</g>
</svg>
