<?xml version="1.0" encoding="utf-8"?>
<!-- Generator: Adobe Illustrator 23.0.2, SVG Export Plug-In . SVG Version: 6.00 Build 0)  -->
<svg version="1.1" id="Слой_1" xmlns="http://www.w3.org/2000/svg" xmlns:xlink="http://www.w3.org/1999/xlink" x="0px" y="0px"
	 viewBox="0 0 800 661.6" enable-background="new 0 0 800 661.6" xml:space="preserve">
<rect x="66.3" y="87.2" fill="#F3F3F3" stroke="#838383" width="181.6" height="42.5"/>
<g>
	
		<rect x="26.5" y="88.3" fill-rule="evenodd" clip-rule="evenodd" fill="#F1F2F2" stroke="#848484" stroke-miterlimit="10" width="34.9" height="2.5"/>
	
		<rect x="26.5" y="88.3" fill-rule="evenodd" clip-rule="evenodd" fill="#F1F2F2" stroke="#848484" stroke-miterlimit="10" width="34.9" height="2.5"/>
	
		<rect x="50.3" y="127.3" fill-rule="evenodd" clip-rule="evenodd" fill="#F1F2F2" stroke="#848484" stroke-miterlimit="10" width="11.5" height="3.4"/>
	
		<rect x="50.3" y="127.3" fill-rule="evenodd" clip-rule="evenodd" fill="#F1F2F2" stroke="#848484" stroke-miterlimit="10" width="11.5" height="3.4"/>
	
		<rect x="24.9" y="90.5" fill-rule="evenodd" clip-rule="evenodd" fill="#F1F2F2" stroke="#848484" stroke-miterlimit="10" width="38.3" height="38.2"/>
	
		<rect x="24.9" y="90.5" fill-rule="evenodd" clip-rule="evenodd" fill="#F1F2F2" stroke="#848484" stroke-miterlimit="10" width="38.3" height="38.2"/>
	<path fill-rule="evenodd" clip-rule="evenodd" fill="#F1F2F2" stroke="#848484" stroke-miterlimit="10" d="M24.9,125.3l38.3,0
		L24.9,125.3z"/>
	<path fill-rule="evenodd" clip-rule="evenodd" fill="#F1F2F2" stroke="#848484" stroke-miterlimit="10" d="M23.1,125.2
		c0-0.7,0.7-1.5,1.5-1.5c0.9,0,1.5,0.7,1.5,1.5c0,0.9-0.7,1.7-1.5,1.7C23.8,126.8,23.1,126.1,23.1,125.2z"/>
	<path fill-rule="evenodd" clip-rule="evenodd" fill="#F1F2F2" stroke="#848484" stroke-miterlimit="10" d="M23.1,125.2
		c0-0.7,0.7-1.5,1.5-1.5c0.9,0,1.5,0.7,1.5,1.5c0,0.9-0.7,1.7-1.5,1.7C23.8,126.8,23.1,126.1,23.1,125.2z"/>
	<path fill-rule="evenodd" clip-rule="evenodd" fill="#F1F2F2" stroke="#848484" stroke-miterlimit="10" d="M44.3,105.6l0,6.7
		L44.3,105.6z"/>
	<path fill-rule="evenodd" clip-rule="evenodd" fill="#F1F2F2" stroke="#848484" stroke-miterlimit="10" d="M41,108.9h6.7H41z"/>
	<path fill-rule="evenodd" clip-rule="evenodd" fill="#F1F2F2" stroke="#848484" stroke-miterlimit="10" d="M41.9,111.4l4.9-4.9
		L41.9,111.4z"/>
	<path fill-rule="evenodd" clip-rule="evenodd" fill="#F1F2F2" stroke="#848484" stroke-miterlimit="10" d="M46.8,111.4l-4.9-4.9
		L46.8,111.4z"/>
	<path fill-rule="evenodd" clip-rule="evenodd" fill="#F1F2F2" stroke="#848484" stroke-miterlimit="10" d="M34.4,105.4l0,6.7
		L34.4,105.4z"/>
	<path fill-rule="evenodd" clip-rule="evenodd" fill="#F1F2F2" stroke="#848484" stroke-miterlimit="10" d="M31,108.7h6.7H31z"/>
	<path fill-rule="evenodd" clip-rule="evenodd" fill="#F1F2F2" stroke="#848484" stroke-miterlimit="10" d="M32,111.2l4.9-4.9
		L32,111.2z"/>
	<path fill-rule="evenodd" clip-rule="evenodd" fill="#F1F2F2" stroke="#848484" stroke-miterlimit="10" d="M36.9,111.2l-4.9-4.9
		L36.9,111.2z"/>
	<path fill-rule="evenodd" clip-rule="evenodd" fill="#F1F2F2" stroke="#848484" stroke-miterlimit="10" d="M54,105.6l0,6.7
		L54,105.6z"/>
	<path fill-rule="evenodd" clip-rule="evenodd" fill="#F1F2F2" stroke="#848484" stroke-miterlimit="10" d="M50.7,108.9h6.7H50.7z"
		/>
	<path fill-rule="evenodd" clip-rule="evenodd" fill="#F1F2F2" stroke="#848484" stroke-miterlimit="10" d="M51.6,111.4l4.9-4.9
		L51.6,111.4z"/>
	<path fill-rule="evenodd" clip-rule="evenodd" fill="#F1F2F2" stroke="#848484" stroke-miterlimit="10" d="M56.5,111.4l-4.9-4.9
		L56.5,111.4z"/>
</g>
<g>
	<g>
		<path fill="#F1F2F2" stroke="#848484" stroke-miterlimit="10" d="M143.2,193c7.9,0,14.3-2.4,14.3-5.3c0-2.9-6.4-5.3-14.3-5.3
			c-7.9,0-14.3,2.4-14.3,5.3C128.9,190.6,135.3,193,143.2,193z"/>
		<path fill="#F1F2F2" stroke="#848484" stroke-miterlimit="10" d="M143.2,216.9c7.9,0,14.3-6.4,14.3-14.3c0-7.9-6.4-14.3-14.3-14.3
			c-7.9,0-14.3,6.4-14.3,14.3C128.9,210.5,135.3,216.9,143.2,216.9z"/>
	</g>
	<g>
		<path fill="#F1F2F2" stroke="#848484" stroke-miterlimit="10" d="M143.2,260.5c-7.9,0-14.3,2.4-14.3,5.3c0,2.9,6.4,5.3,14.3,5.3
			c7.9,0,14.3-2.4,14.3-5.3C157.4,262.9,151,260.5,143.2,260.5z"/>
		<path fill="#F1F2F2" stroke="#848484" stroke-miterlimit="10" d="M143.2,236.7c-7.9,0-14.3,6.4-14.3,14.3
			c0,7.9,6.4,14.3,14.3,14.3c7.9,0,14.3-6.4,14.3-14.3C157.4,243.1,151,236.7,143.2,236.7z"/>
	</g>
	<g>
		<path fill="#F1F2F2" stroke="#848484" stroke-miterlimit="10" d="M105.6,193c7.9,0,14.3-2.4,14.3-5.3c0-2.9-6.4-5.3-14.3-5.3
			s-14.3,2.4-14.3,5.3C91.3,190.6,97.7,193,105.6,193z"/>
		<path fill="#F1F2F2" stroke="#848484" stroke-miterlimit="10" d="M105.6,216.9c7.9,0,14.3-6.4,14.3-14.3c0-7.9-6.4-14.3-14.3-14.3
			s-14.3,6.4-14.3,14.3C91.3,210.5,97.7,216.9,105.6,216.9z"/>
	</g>
	<g>
		<path fill="#F1F2F2" stroke="#848484" stroke-miterlimit="10" d="M105.6,260.5c-7.9,0-14.3,2.4-14.3,5.3c0,2.9,6.4,5.3,14.3,5.3
			c7.9,0,14.3-2.4,14.3-5.3C119.8,262.9,113.5,260.5,105.6,260.5z"/>
		<path fill="#F1F2F2" stroke="#848484" stroke-miterlimit="10" d="M105.6,236.7c-7.9,0-14.3,6.4-14.3,14.3
			c0,7.9,6.4,14.3,14.3,14.3c7.9,0,14.3-6.4,14.3-14.3C119.8,243.1,113.5,236.7,105.6,236.7z"/>
	</g>
	<rect x="78.2" y="198" fill="#F1F2F2" stroke="#848484" stroke-miterlimit="10" width="93.7" height="57.5"/>
</g>
<g>
	<path fill-rule="evenodd" clip-rule="evenodd" fill="#F1F2F2" stroke="#848484" stroke-miterlimit="10" d="M123.9,506.5H69.8H26.3
		c-2.9,0-5.3-2.4-5.3-5.3v-43.6V325.7c0-2.9,2.4-5.3,5.3-5.3h43.6c2.9,0,5.3,2.4,5.3,5.3v121.4c0,2.9,2.4,5.3,5.3,5.3h43.6
		c2.9,0,5.3,2.4,5.3,5.3v43.6C129.2,504.1,126.8,506.5,123.9,506.5z"/>
	<g>
		<path fill-rule="evenodd" clip-rule="evenodd" fill="#F1F2F2" stroke="#848484" stroke-miterlimit="10" d="M66.4,452.3
			c6.2,0,8.7,0.3,8.7,8.1v23.2c0,7.8-2.6,8.1-8.7,8.1H43.3c-6.2,0-8.7-0.3-8.7-8.1v-23.2c0-7.8,2.6-8.1,8.7-8.1H66.4z"/>
		<path fill-rule="evenodd" clip-rule="evenodd" fill="#F1F2F2" stroke="#848484" stroke-miterlimit="10" d="M66.4,452.3
			c6.2,0,8.7,0.3,8.7,8.1v23.2c0,7.8-2.6,8.1-8.7,8.1H43.3c-6.2,0-8.7-0.3-8.7-8.1v-23.2c0-7.8,2.6-8.1,8.7-8.1H66.4z"/>
		<path fill-rule="evenodd" clip-rule="evenodd" fill="#F1F2F2" stroke="#848484" stroke-miterlimit="10" d="M66.4,413.2
			c6.2,0,8.7,0.3,8.7,8.1v23.2c0,7.8-2.6,8.1-8.7,8.1H43.3c-6.2,0-8.7-0.3-8.7-8.1v-23.2c0-7.8,2.6-8.1,8.7-8.1H66.4z"/>
		<path fill-rule="evenodd" clip-rule="evenodd" fill="#F1F2F2" stroke="#848484" stroke-miterlimit="10" d="M66.4,413.2
			c6.2,0,8.7,0.3,8.7,8.1v23.2c0,7.8-2.6,8.1-8.7,8.1H43.3c-6.2,0-8.7-0.3-8.7-8.1v-23.2c0-7.8,2.6-8.1,8.7-8.1H66.4z"/>
		<path fill-rule="evenodd" clip-rule="evenodd" fill="#F1F2F2" stroke="#848484" stroke-miterlimit="10" d="M66.4,374
			c6.2,0,8.7,0.3,8.7,8.1v23.3c0,7.8-2.6,8.1-8.7,8.1H43.3c-6.2,0-8.7-0.3-8.7-8.1v-23.3c0-7.8,2.6-8.1,8.7-8.1H66.4z"/>
		<path fill-rule="evenodd" clip-rule="evenodd" fill="#F1F2F2" stroke="#848484" stroke-miterlimit="10" d="M66.4,374
			c6.2,0,8.7,0.3,8.7,8.1v23.3c0,7.8-2.6,8.1-8.7,8.1H43.3c-6.2,0-8.7-0.3-8.7-8.1v-23.3c0-7.8,2.6-8.1,8.7-8.1H66.4z"/>
		<path fill-rule="evenodd" clip-rule="evenodd" fill="#F1F2F2" stroke="#848484" stroke-miterlimit="10" d="M107,452.3
			c6.2,0,8.7,0.3,8.7,8.1v23.2c0,7.8-2.6,8.1-8.7,8.1H83.8c-6.2,0-8.7-0.3-8.7-8.1v-23.2c0-7.8,2.6-8.1,8.7-8.1H107z"/>
		<path fill-rule="evenodd" clip-rule="evenodd" fill="#F1F2F2" stroke="#848484" stroke-miterlimit="10" d="M66.3,334.9
			c6.2,0,8.7,0.3,8.7,8.1v23.3c0,7.8-2.6,8.1-8.7,8.1H43.1c-6.2,0-8.7-0.3-8.7-8.1V343c0-7.8,2.6-8.1,8.7-8.1H66.3z"/>
		<path fill-rule="evenodd" clip-rule="evenodd" fill="#F1F2F2" stroke="#848484" stroke-miterlimit="10" d="M26.6,506.5h94.7h2.3
			c3.1,0,5.6-2.7,5.6-6V498v-39.6c0-3.3-2.5-6-5.6-6h-2.3c-3.1,0-5.6,2.7-5.6,6V492H34.5v-157h35c3.1,0,5.6-2.7,5.6-6v-2.5
			c0-3.3-2.5-6-5.6-6H28.9h-2.3c-3.1,0-5.6,2.7-5.6,6v2.5V498v2.5v0C21,503.8,23.5,506.5,26.6,506.5z"/>
	</g>
</g>
<g>
	<g>
		
			<rect x="283.9" y="294.9" fill-rule="evenodd" clip-rule="evenodd" fill="#F1F2F2" stroke="#848484" stroke-miterlimit="10" width="4.2" height="84.1"/>
		<polygon fill-rule="evenodd" clip-rule="evenodd" fill="#F1F2F2" stroke="#848484" stroke-miterlimit="10" points="288.2,371.9 
			291.5,358.4 291.5,315.7 288.2,302.2 		"/>
		
			<rect x="291.5" y="329.9" fill-rule="evenodd" clip-rule="evenodd" fill="#F1F2F2" stroke="#848484" stroke-miterlimit="10" width="3.7" height="14.3"/>
	</g>
</g>
<g>
	<g>
		
			<rect x="561.9" y="421.9" fill-rule="evenodd" clip-rule="evenodd" fill="#F1F2F2" stroke="#848484" stroke-miterlimit="10" width="4.2" height="84.1"/>
		<polygon fill-rule="evenodd" clip-rule="evenodd" fill="#F1F2F2" stroke="#848484" stroke-miterlimit="10" points="561.9,429.1 
			558.6,442.6 558.6,485.3 561.9,498.8 		"/>
		
			<rect x="554.9" y="456.8" transform="matrix(-1 -5.123425e-11 5.123425e-11 -1 1113.5623 927.9022)" fill-rule="evenodd" clip-rule="evenodd" fill="#F1F2F2" stroke="#848484" stroke-miterlimit="10" width="3.7" height="14.3"/>
	</g>
</g>
<g>
	<path fill="#F1F2F2" stroke="#848484" stroke-miterlimit="10" d="M304.8,144.7V66.6h35.7v78.1c-1.5,4-6.8,12.5-13.6,17.2
		c-7.7,5.3-18.4,5.2-22.1,4.9C304.8,159.4,304.8,152,304.8,144.7z M304.8,144.7h35.7"/>
	
		<rect x="304.8" y="75.2" transform="matrix(-1 -4.699719e-11 4.699719e-11 -1 613.9778 153.6133)" fill="#F1F2F2" stroke="#848484" stroke-miterlimit="10" width="4.5" height="3.2"/>
	
		<rect x="304.8" y="94.5" transform="matrix(-1 -4.618007e-11 4.618007e-11 -1 613.9778 192.2363)" fill="#F1F2F2" stroke="#848484" stroke-miterlimit="10" width="4.5" height="3.2"/>
	
		<rect x="304.8" y="113.7" transform="matrix(-1 -4.740620e-11 4.740620e-11 -1 613.9778 230.4643)" fill="#F1F2F2" stroke="#848484" stroke-miterlimit="10" width="4.5" height="3.2"/>
	
		<rect x="304.8" y="133" transform="matrix(-1 -4.679291e-11 4.679291e-11 -1 613.9778 269.0873)" fill="#F1F2F2" stroke="#848484" stroke-miterlimit="10" width="4.5" height="3.2"/>
	
		<rect x="304.7" y="73" transform="matrix(-1 -4.412527e-11 4.412527e-11 -1 610.2319 153.6133)" fill="#F1F2F2" stroke="#848484" stroke-miterlimit="10" width="0.7" height="7.7"/>
	
		<rect x="304.7" y="92.2" transform="matrix(-1 -4.780233e-11 4.780233e-11 -1 610.2319 192.0783)" fill="#F1F2F2" stroke="#848484" stroke-miterlimit="10" width="0.7" height="7.7"/>
	
		<rect x="304.7" y="111.4" transform="matrix(-1 -4.780233e-11 4.780233e-11 -1 610.2319 230.4643)" fill="#F1F2F2" stroke="#848484" stroke-miterlimit="10" width="0.7" height="7.7"/>
	
		<rect x="304.7" y="130.7" transform="matrix(-1 -4.780233e-11 4.780233e-11 -1 610.2319 269.0873)" fill="#F1F2F2" stroke="#848484" stroke-miterlimit="10" width="0.7" height="7.7"/>
</g>
<g>
	<g>
		
			<rect x="305.9" y="431.5" fill-rule="evenodd" clip-rule="evenodd" fill="#F1F2F2" stroke="#848484" stroke-miterlimit="10" width="145.2" height="112.7"/>
		
			<rect x="311.7" y="434.1" fill-rule="evenodd" clip-rule="evenodd" fill="#F1F2F2" stroke="#848484" stroke-miterlimit="10" width="135.3" height="107.5"/>
		
			<rect x="315.2" y="437.3" fill-rule="evenodd" clip-rule="evenodd" fill="#F1F2F2" stroke="#848484" stroke-miterlimit="10" width="30.5" height="41.8"/>
		
			<rect x="315.2" y="496.4" fill-rule="evenodd" clip-rule="evenodd" fill="#F1F2F2" stroke="#848484" stroke-miterlimit="10" width="30.5" height="41.8"/>
		<polygon fill-rule="evenodd" clip-rule="evenodd" fill="#F1F2F2" stroke="#848484" stroke-miterlimit="10" points="361.3,434.1 
			342.6,466.2 342.6,509.6 342.6,466.2 342.6,509.6 361.3,541.6 447,541.6 447,541.5 447,434.1 		"/>
		<polyline fill-rule="evenodd" clip-rule="evenodd" fill="#F1F2F2" stroke="#848484" stroke-miterlimit="10" points="361.3,434.1 
			374.9,456.6 342.6,466.2 		"/>
		
			<line fill-rule="evenodd" clip-rule="evenodd" fill="#F1F2F2" stroke="#848484" stroke-miterlimit="10" x1="342.6" y1="466.2" x2="361.3" y2="434.1"/>
		<polyline fill-rule="evenodd" clip-rule="evenodd" fill="#F1F2F2" stroke="#848484" stroke-miterlimit="10" points="361.3,541.6 
			374.9,519.1 342.6,509.6 		"/>
		
			<line fill-rule="evenodd" clip-rule="evenodd" fill="#F1F2F2" stroke="#848484" stroke-miterlimit="10" x1="342.6" y1="509.6" x2="361.3" y2="541.6"/>
	</g>
	<g>
		
			<rect x="300.5" y="551.7" transform="matrix(-1.836970e-16 1 -1 -1.836970e-16 886.4229 245.7947)" fill="#F1F2F2" stroke="#848484" stroke-miterlimit="10" width="39.7" height="28.8"/>
		
			<rect x="327.3" y="565" transform="matrix(-1.836970e-16 1 -1 -1.836970e-16 901.6149 230.2929)" fill="#F1F2F2" stroke="#848484" stroke-miterlimit="10" width="16.6" height="1.9"/>
	</g>
	<g>
		
			<rect x="300.5" y="395" transform="matrix(-1.836970e-16 1 -1 -1.836970e-16 729.7608 89.1326)" fill="#F1F2F2" stroke="#848484" stroke-miterlimit="10" width="39.7" height="28.8"/>
		
			<rect x="327.3" y="408.4" transform="matrix(2.733753e-13 1 -1 2.733753e-13 744.9528 73.6307)" fill="#F1F2F2" stroke="#848484" stroke-miterlimit="10" width="16.6" height="1.9"/>
	</g>
</g>
<g>
	
		<rect x="306.1" y="296.4" transform="matrix(-1 -4.489221e-11 4.489221e-11 -1 733.2394 634.5862)" fill-rule="evenodd" clip-rule="evenodd" fill="#F1F2F2" stroke="#848484" stroke-miterlimit="10" width="120.9" height="41.7"/>
	<line fill="#F1F2F2" stroke="#848484" stroke-miterlimit="10" x1="422.7" y1="296.4" x2="422.7" y2="338.2"/>
	<line fill="#F1F2F2" stroke="#848484" stroke-miterlimit="10" x1="310.7" y1="296.4" x2="310.7" y2="338.2"/>
	<line fill="#F1F2F2" stroke="#848484" stroke-miterlimit="10" x1="422.7" y1="336.2" x2="310.7" y2="336.2"/>
	<line fill="#F1F2F2" stroke="#848484" stroke-miterlimit="10" x1="314.6" y1="317" x2="418.8" y2="317"/>
	
		<rect x="412.1" y="304.5" transform="matrix(-0.9868 0.162 -0.162 -0.9868 872.7216 563.2753)" fill="#F1F2F2" stroke="#848484" stroke-miterlimit="10" width="2.6" height="25.5"/>
	
		<rect x="402.7" y="304.5" transform="matrix(-0.9961 8.815246e-02 -8.815246e-02 -0.9961 834.4528 597.5695)" fill="#F1F2F2" stroke="#848484" stroke-miterlimit="10" width="2.6" height="25.5"/>
	
		<rect x="393.2" y="304.3" transform="matrix(-0.9734 0.229 -0.229 -0.9734 851.197 535.2112)" fill="#F1F2F2" stroke="#848484" stroke-miterlimit="10" width="2.6" height="25.5"/>
	
		<rect x="382.7" y="304.5" transform="matrix(-0.9884 0.152 -0.152 -0.9884 811.6938 572.4877)" fill="#F1F2F2" stroke="#848484" stroke-miterlimit="10" width="2.6" height="25.5"/>
	
		<rect x="373.4" y="304.4" transform="matrix(-0.999 4.511170e-02 -4.511170e-02 -0.999 763.3788 617.0427)" fill="#F1F2F2" stroke="#848484" stroke-miterlimit="10" width="2.6" height="25.5"/>
	
		<rect x="364.1" y="304.4" transform="matrix(-0.9884 0.152 -0.152 -0.9884 774.7311 575.0302)" fill="#F1F2F2" stroke="#848484" stroke-miterlimit="10" width="2.6" height="25.5"/>
	
		<rect x="354.6" y="304.3" transform="matrix(-0.999 4.511170e-02 -4.511170e-02 -0.999 725.718 617.6086)" fill="#F1F2F2" stroke="#848484" stroke-miterlimit="10" width="2.6" height="25.5"/>
	
		<rect x="345.3" y="304.3" transform="matrix(-0.9787 0.2052 -0.2052 -0.9787 750.8323 556.1356)" fill="#F1F2F2" stroke="#848484" stroke-miterlimit="10" width="2.6" height="25.5"/>
	
		<rect x="336" y="304.3" transform="matrix(-0.9884 0.152 -0.152 -0.9884 718.8369 579.0734)" fill="#F1F2F2" stroke="#848484" stroke-miterlimit="10" width="2.6" height="25.5"/>
	
		<rect x="326.7" y="304.3" transform="matrix(-0.9964 8.473843e-02 -8.473843e-02 -0.9964 681.6287 605.0541)" fill="#F1F2F2" stroke="#848484" stroke-miterlimit="10" width="2.6" height="25.5"/>
	
		<rect x="317.4" y="304.6" transform="matrix(-0.9713 0.2379 -0.2379 -0.9713 703.6782 549.6779)" fill="#F1F2F2" stroke="#848484" stroke-miterlimit="10" width="2.6" height="25.5"/>
</g>
<g>
	<path fill-rule="evenodd" clip-rule="evenodd" fill="#F1F2F2" stroke="#848484" stroke-miterlimit="10" d="M533.4,420.1v23.5H514
		v-23.5H533.4L533.4,420.1z M533.4,531h-29.1v-87.4h29.1V531z"/>
	<path fill-rule="evenodd" clip-rule="evenodd" fill="#F1F2F2" stroke="#848484" stroke-miterlimit="10" d="M523,496
		c5.1,0,5.6-4.6,5.6-10.3c0-5.6-0.5-10.2-5.6-10.2s-9.2,4.6-9.2,10.2C513.9,491.4,518,496,523,496z"/>
	
		<rect x="518.2" y="451.4" fill-rule="evenodd" clip-rule="evenodd" fill="#F1F2F2" stroke="#848484" stroke-miterlimit="10" width="3.9" height="68.6"/>
	
		<rect x="518.2" y="451.4" fill-rule="evenodd" clip-rule="evenodd" fill="#F1F2F2" stroke="#848484" stroke-miterlimit="10" width="3.9" height="68.6"/>
	<polygon fill-rule="evenodd" clip-rule="evenodd" fill="#F1F2F2" stroke="#848484" stroke-miterlimit="10" points="521.9,514.2 
		525.1,503.2 525.1,468.3 521.9,457.3 	"/>
	<polygon fill-rule="evenodd" clip-rule="evenodd" fill="#F1F2F2" stroke="#848484" stroke-miterlimit="10" points="521.9,514.2 
		525.1,503.2 525.1,468.3 521.9,457.3 	"/>
	<path fill-rule="evenodd" clip-rule="evenodd" fill="#F1F2F2" stroke="#848484" stroke-miterlimit="10" d="M511.9,422.2v19.4h-1.9
		v-19.4H511.9L511.9,422.2z M533.4,531v23.5h-19.5V531H533.4L533.4,531z M511.9,552.4h-1.9v-19.4h1.9V552.4z"/>
</g>
<g>
	<g>
		
			<rect x="625.3" y="408.4" transform="matrix(-1 -1.224647e-16 1.224647e-16 -1 1395.7085 929.4467)" fill-rule="evenodd" clip-rule="evenodd" fill="#F1F2F2" stroke="#848484" stroke-miterlimit="10" width="145.2" height="112.7"/>
		
			<rect x="629.3" y="410.9" transform="matrix(-1 -1.224647e-16 1.224647e-16 -1 1393.9792 929.3284)" fill-rule="evenodd" clip-rule="evenodd" fill="#F1F2F2" stroke="#848484" stroke-miterlimit="10" width="135.3" height="107.5"/>
		
			<rect x="730.6" y="473.5" transform="matrix(-1 -2.385984e-13 2.385984e-13 -1 1491.7864 988.7084)" fill-rule="evenodd" clip-rule="evenodd" fill="#F1F2F2" stroke="#848484" stroke-miterlimit="10" width="30.5" height="41.8"/>
		
			<rect x="730.6" y="414.4" transform="matrix(-1 -1.224647e-16 1.224647e-16 -1 1491.7864 870.5697)" fill-rule="evenodd" clip-rule="evenodd" fill="#F1F2F2" stroke="#848484" stroke-miterlimit="10" width="30.5" height="41.8"/>
		<polygon fill-rule="evenodd" clip-rule="evenodd" fill="#F1F2F2" stroke="#848484" stroke-miterlimit="10" points="715,518.4 
			733.7,486.3 733.7,443 733.7,486.3 733.7,443 715,410.9 629.3,410.9 629.3,411 629.3,518.4 		"/>
		<polyline fill-rule="evenodd" clip-rule="evenodd" fill="#F1F2F2" stroke="#848484" stroke-miterlimit="10" points="715,518.4 
			701.4,495.9 733.7,486.3 		"/>
		
			<line fill-rule="evenodd" clip-rule="evenodd" fill="#F1F2F2" stroke="#848484" stroke-miterlimit="10" x1="733.7" y1="486.3" x2="715" y2="518.4"/>
		<polyline fill-rule="evenodd" clip-rule="evenodd" fill="#F1F2F2" stroke="#848484" stroke-miterlimit="10" points="715,410.9 
			701.4,433.4 733.7,443 		"/>
		
			<line fill-rule="evenodd" clip-rule="evenodd" fill="#F1F2F2" stroke="#848484" stroke-miterlimit="10" x1="733.7" y1="443" x2="715" y2="410.9"/>
	</g>
	<g>
		
			<rect x="736.2" y="372" transform="matrix(6.123234e-17 -1 1 6.123234e-17 369.5905 1142.4839)" fill="#F1F2F2" stroke="#848484" stroke-miterlimit="10" width="39.7" height="28.8"/>
		
			<rect x="732.4" y="385.7" transform="matrix(6.123234e-17 -1 1 6.123234e-17 354.0886 1127.2919)" fill="#F1F2F2" stroke="#848484" stroke-miterlimit="10" width="16.6" height="1.9"/>
	</g>
	<g>
		
			<rect x="736.2" y="528.7" transform="matrix(6.123234e-17 -1 1 6.123234e-17 212.9283 1299.146)" fill="#F1F2F2" stroke="#848484" stroke-miterlimit="10" width="39.7" height="28.8"/>
		
			<rect x="732.4" y="542.3" transform="matrix(-2.184307e-13 -1 1 -2.184307e-13 197.4265 1283.954)" fill="#F1F2F2" stroke="#848484" stroke-miterlimit="10" width="16.6" height="1.9"/>
	</g>
</g>
<g>
	<g>
		<path fill="#F1F2F2" stroke="#848484" stroke-miterlimit="10" d="M741.8,280.5l-34.6,0c-1.1,0-2-0.9-2-2l0-31.3c0-1.1,0.9-2,2-2
			l34.6,0c1.1,0,2,0.9,2,2l0,31.3C743.8,279.6,742.9,280.5,741.8,280.5z"/>
		<path fill="#F1F2F2" stroke="#848484" stroke-miterlimit="10" d="M742.4,280.5l-35.8-0.1c-0.8,0-1.4,0.6-1.4,1.4l0,5.7
			c0,0.8,0.6,1.4,1.4,1.4l35.8,0.1c0.8,0,1.4-0.6,1.4-1.4l0-5.7C743.8,281.1,743.2,280.5,742.4,280.5z"/>
	</g>
	
		<rect x="668.9" y="219" fill-rule="evenodd" clip-rule="evenodd" fill="#F1F2F2" stroke="#848484" stroke-miterlimit="10" width="102.1" height="41.4"/>
</g>
<g>
	
		<rect x="5" y="641.2" transform="matrix(-1 -1.224647e-16 1.224647e-16 -1 282.0165 1293.9537)" fill="#F3F3F3" stroke="#000000" stroke-miterlimit="10" width="272" height="11.5"/>
	
		<rect x="21" y="637.5" transform="matrix(-1 -1.224647e-16 1.224647e-16 -1 298.0468 1278.7372)" fill="#F3F3F3" stroke="#000000" stroke-miterlimit="10" width="256" height="3.8"/>
	
		<rect x="21" y="633.7" transform="matrix(-1 -1.224647e-16 1.224647e-16 -1 298.0468 1271.2229)" fill="#F3F3F3" stroke="#000000" stroke-miterlimit="10" width="256" height="3.8"/>
	
		<rect x="21" y="625.7" transform="matrix(-1 -1.224647e-16 1.224647e-16 -1 298.0468 1259.4506)" fill="#F3F3F3" stroke="#000000" stroke-miterlimit="10" width="256" height="8"/>
	
		<rect x="21" y="633.7" transform="matrix(-1 -1.224647e-16 1.224647e-16 -1 46.4326 1274.98)" fill="#F3F3F3" stroke="#000000" stroke-miterlimit="10" width="4.4" height="7.5"/>
	
		<rect x="272.6" y="633.7" transform="matrix(-1 -1.224647e-16 1.224647e-16 -1 549.6611 1274.98)" fill="#F3F3F3" stroke="#000000" stroke-miterlimit="10" width="4.4" height="7.5"/>
</g>
<g>
	<rect x="379.9" y="641.7" fill="#F3F3F3" stroke="#000000" stroke-miterlimit="10" width="106.8" height="10.7"/>
	<rect x="375.2" y="634" fill="#F3F3F3" stroke="#000000" stroke-miterlimit="10" width="116.5" height="7.7"/>
	<rect x="375.2" y="622.6" fill="#F3F3F3" stroke="#000000" stroke-miterlimit="10" width="116.5" height="11.5"/>
	<rect x="375.2" y="634" fill="#F3F3F3" stroke="#000000" stroke-miterlimit="10" width="5.6" height="7.7"/>
	<rect x="486.1" y="634" fill="#F3F3F3" stroke="#000000" stroke-miterlimit="10" width="5.6" height="7.7"/>
	<rect x="435.1" y="634" fill="#F3F3F3" stroke="#000000" stroke-miterlimit="10" width="5.6" height="7.7"/>
</g>
<g>
	<rect x="619.6" y="641.7" fill="#F3F3F3" stroke="#000000" stroke-miterlimit="10" width="107.3" height="10.7"/>
	<rect x="614.9" y="634" fill="#F3F3F3" stroke="#000000" stroke-miterlimit="10" width="117" height="7.7"/>
	<rect x="614.9" y="622.6" fill="#F3F3F3" stroke="#000000" stroke-miterlimit="10" width="117" height="11.5"/>
	<rect x="614.9" y="634" fill="#F3F3F3" stroke="#000000" stroke-miterlimit="10" width="5.6" height="7.7"/>
	<rect x="726.3" y="634" fill="#F3F3F3" stroke="#000000" stroke-miterlimit="10" width="5.6" height="7.7"/>
	<rect x="675.1" y="634" fill="#F3F3F3" stroke="#000000" stroke-miterlimit="10" width="5.6" height="7.7"/>
</g>
<rect x="122.7" y="520.5" fill="#F3F3F3" stroke="#000000" stroke-miterlimit="10" width="135" height="4.8"/>
<rect x="122.7" y="506.9" fill="#F3F3F3" stroke="#000000" stroke-miterlimit="10" width="64.4" height="13.5"/>
<rect x="126" y="525.2" fill="#F3F3F3" stroke="#000000" stroke-miterlimit="10" width="61.1" height="11.8"/>
<rect x="122.7" y="520.5" fill="#F3F3F3" stroke="#000000" stroke-miterlimit="10" width="7.3" height="4.8"/>
<rect x="182.6" y="520.5" fill="#F3F3F3" stroke="#000000" stroke-miterlimit="10" width="7.6" height="4.8"/>
<rect x="249.8" y="520.5" fill="#F3F3F3" stroke="#000000" stroke-miterlimit="10" width="7.9" height="4.8"/>
<line fill="#F3F3F3" stroke="#000000" stroke-miterlimit="10" x1="426" y1="41.8" x2="361.4" y2="5.4"/>
<path fill="#F3F3F3" stroke="#000000" stroke-miterlimit="10" d="M440.3,130.5c-0.8,2.6-29.3,52.6-29.3,52.6"/>
<line fill="#F3F3F3" stroke="#000000" stroke-miterlimit="10" x1="658.6" y1="206.4" x2="605.3" y2="236.4"/>
<line fill="#F3F3F3" stroke="#000000" stroke-miterlimit="10" x1="573.7" y1="295.8" x2="631.9" y2="330.6"/>
<line fill="#F3F3F3" stroke="#000000" stroke-miterlimit="10" x1="518.5" y1="295.8" x2="461" y2="328.8"/>
<line fill="#F3F3F3" stroke="#000000" stroke-miterlimit="10" x1="249.8" y1="520.5" x2="197.2" y2="490"/>
<rect x="5" y="65.1" fill="#838383" stroke="#000000" stroke-miterlimit="10" width="16" height="580.4"/>
<rect x="21" y="506.9" fill="#838383" stroke="#000000" stroke-miterlimit="10" width="101.7" height="18.3"/>
<rect x="21" y="525.2" fill="#838383" stroke="#000000" stroke-miterlimit="10" width="104.9" height="11.8"/>
<rect x="277" y="641.7" fill="#838383" stroke="#000000" stroke-miterlimit="10" width="102.2" height="11"/>
<rect x="255" y="525.2" fill="#838383" stroke="#000000" stroke-miterlimit="10" width="32.6" height="11.8"/>
<rect x="305.1" y="622.6" fill="#838383" stroke="#000000" stroke-miterlimit="10" width="69.6" height="19"/>
<rect x="257.7" y="506.9" fill="#838383" stroke="#000000" stroke-miterlimit="10" width="29.8" height="18.3"/>
<rect x="287.5" y="391" fill="#838383" stroke="#000000" stroke-miterlimit="10" width="17.5" height="250.7"/>
<rect x="277" y="537" fill="#838383" stroke="#000000" stroke-miterlimit="10" width="10.5" height="104.7"/>
<rect x="491.7" y="622.6" fill="#838383" stroke="#000000" stroke-miterlimit="10" width="44.8" height="19"/>
<rect x="487.7" y="641.7" fill="#838383" stroke="#000000" stroke-miterlimit="10" width="131.8" height="11"/>
<rect x="536.5" y="357.4" fill="#838383" stroke="#000000" stroke-miterlimit="10" width="18.3" height="284.3"/>
<rect x="554.8" y="622.6" fill="#838383" stroke="#000000" stroke-miterlimit="10" width="60.1" height="19"/>
<rect x="731.9" y="622.6" fill="#838383" stroke="#000000" stroke-miterlimit="10" width="40.1" height="19"/>
<rect x="727.4" y="641.7" fill="#838383" stroke="#000000" stroke-miterlimit="10" width="67.6" height="11"/>
<rect x="772" y="330.6" fill="#838383" stroke="#000000" stroke-miterlimit="10" width="23" height="311.1"/>
<rect x="287.5" y="41.8" fill="#838383" stroke="#000000" stroke-miterlimit="10" width="17.5" height="163.1"/>
<rect x="772" y="41.8" fill="#838383" stroke="#000000" stroke-miterlimit="10" width="17.5" height="288.8"/>
<rect x="440.3" y="41.8" fill="#838383" stroke="#000000" stroke-miterlimit="10" width="331.6" height="17.8"/>
<rect x="305.1" y="41.8" fill="#838383" stroke="#000000" stroke-miterlimit="10" width="45.3" height="23.3"/>
<rect x="426" y="41.8" fill="#838383" stroke="#000000" stroke-miterlimit="10" width="14.3" height="23.3"/>
<rect x="21" y="65.1" fill="#838383" stroke="#000000" stroke-miterlimit="10" width="266.5" height="21.8"/>
<rect x="249.1" y="86.9" fill="#C6C6C6" stroke="#000000" stroke-miterlimit="10" width="6" height="118"/>
<rect x="255.1" y="198.1" fill="#C6C6C6" stroke="#000000" stroke-miterlimit="10" width="32.4" height="6.8"/>
<rect x="297.6" y="287.5" fill="#C6C6C6" stroke="#000000" stroke-miterlimit="10" width="153.2" height="7.5"/>
<rect x="297.6" y="295" fill="#C6C6C6" stroke="#000000" stroke-miterlimit="10" width="7.5" height="96"/>
<rect x="518.5" y="287.5" fill="#C6C6C6" stroke="#000000" stroke-miterlimit="10" width="55.2" height="7.5"/>
<rect x="536.5" y="295" fill="#C6C6C6" stroke="#000000" stroke-miterlimit="10" width="7.5" height="62.2"/>
<rect x="641.7" y="287.5" fill="#C6C6C6" stroke="#000000" stroke-miterlimit="10" width="28.2" height="7.5"/>
<rect x="440.3" y="198.5" fill="#C6C6C6" stroke="#000000" stroke-miterlimit="10" width="158.2" height="6.4"/>
<rect x="440.3" y="59.6" fill="#C6C6C6" stroke="#000000" stroke-miterlimit="10" width="6.4" height="70.9"/>
<rect x="440.3" y="189.8" fill="#C6C6C6" stroke="#000000" stroke-miterlimit="10" width="6.4" height="8.3"/>
<rect x="658.6" y="198.5" fill="#C6C6C6" stroke="#000000" stroke-miterlimit="10" width="113.3" height="6.4"/>
<rect x="662.4" y="204.9" fill="#C6C6C6" stroke="#000000" stroke-miterlimit="10" width="7.5" height="82.7"/>
<rect x="669.9" y="209" fill="#C6C6C6" stroke="#000000" stroke-miterlimit="10" width="102.1" height="7.5"/>
<rect x="553.8" y="59.6" fill="#C6C6C6" stroke="#000000" stroke-miterlimit="10" width="6.4" height="138.5"/>
<rect x="446.7" y="59.6" fill="#C6C6C6" stroke="#000000" stroke-miterlimit="10" width="107.1" height="6.4"/>
<rect x="560.2" y="145.7" fill="#C6C6C6" stroke="#000000" stroke-miterlimit="10" width="41" height="6"/>
<rect x="594.7" y="83.2" fill="#C6C6C6" stroke="#000000" stroke-miterlimit="10" width="6.4" height="62.5"/>
<rect x="597.9" y="59.6" fill="#C6C6C6" stroke="#000000" stroke-miterlimit="10" width="3.2" height="23.7"/>
<g>
	<path d="M136.8,361.8h-2.4v4.8h-1.1v-10.5h1.1v4.7h2.4l3.6-4.7h1.2l-3.9,5.1l4.1,5.4h-1.3L136.8,361.8z"/>
	<path d="M149.9,358.7l-4,8.9c-0.3,0.7-0.7,1.3-1.1,1.6c-0.4,0.3-0.9,0.5-1.5,0.5c-0.4,0-0.7-0.1-1.1-0.2c-0.3-0.1-0.6-0.3-0.9-0.5
		l0.5-0.8c0.4,0.4,0.9,0.6,1.4,0.6c0.4,0,0.7-0.1,0.9-0.3c0.3-0.2,0.5-0.5,0.7-1l0.3-0.8l-3.5-7.9h1.1l3,6.7l3-6.7H149.9z"/>
	<path d="M156.1,366.6l-2.5-3.3l-2.5,3.3h-1.2l3.1-4.1l-3-3.8h1.2l2.4,3.1l2.4-3.1h1.2l-3,3.8l3.2,4.1H156.1z"/>
	<path d="M159,358.7h1.1v3.5h5v-3.5h1.1v7.9h-1.1v-3.5h-5v3.5H159V358.7z"/>
	<path d="M175.2,358.7v7.9h-1V364h-2.5h-0.3l-1.8,2.6h-1.2l2-2.8c-0.6-0.2-1.1-0.5-1.4-0.9c-0.3-0.4-0.5-0.9-0.5-1.6
		c0-0.9,0.3-1.6,0.9-2c0.6-0.5,1.4-0.7,2.5-0.7H175.2z M171.9,363.2h2.4v-3.5H172c-1.5,0-2.3,0.6-2.3,1.8
		C169.6,362.6,170.4,363.2,171.9,363.2z"/>
	<path d="M177.7,362.1h3.9v0.9h-3.9V362.1z"/>
	<path d="M134.2,384.2c-0.6-0.3-1.1-0.8-1.5-1.4s-0.5-1.3-0.5-2.1c0-0.8,0.2-1.5,0.5-2.1s0.8-1.1,1.5-1.4s1.3-0.5,2.1-0.5
		c0.7,0,1.3,0.1,1.8,0.4s1,0.7,1.3,1.2l-0.8,0.5c-0.3-0.4-0.6-0.7-1-0.9s-0.8-0.3-1.3-0.3c-0.6,0-1.1,0.1-1.5,0.4s-0.8,0.6-1.1,1.1
		s-0.4,1-0.4,1.6c0,0.6,0.1,1.2,0.4,1.6s0.6,0.8,1.1,1.1s1,0.4,1.5,0.4c0.5,0,0.9-0.1,1.3-0.3s0.7-0.5,1-0.9l0.8,0.5
		c-0.3,0.5-0.7,0.9-1.3,1.2s-1.1,0.4-1.8,0.4C135.5,384.7,134.8,384.6,134.2,384.2z"/>
	<path d="M146.9,377.7h-3v7h-1.1v-7h-3v-0.9h7V377.7z"/>
	<path d="M149.3,384.2c-0.6-0.3-1.1-0.8-1.4-1.4c-0.4-0.6-0.5-1.3-0.5-2.1c0-0.8,0.2-1.5,0.5-2.1s0.8-1.1,1.4-1.4s1.3-0.5,2.1-0.5
		c0.8,0,1.4,0.2,2.1,0.5c0.6,0.3,1.1,0.8,1.4,1.4s0.5,1.3,0.5,2.1c0,0.8-0.2,1.5-0.5,2.1c-0.3,0.6-0.8,1.1-1.4,1.4
		c-0.6,0.3-1.3,0.5-2.1,0.5C150.6,384.7,149.9,384.6,149.3,384.2z M152.8,383.4c0.4-0.3,0.8-0.6,1-1.1c0.3-0.5,0.4-1,0.4-1.6
		c0-0.6-0.1-1.1-0.4-1.6c-0.3-0.5-0.6-0.8-1-1.1s-0.9-0.4-1.5-0.4s-1.1,0.1-1.5,0.4c-0.4,0.3-0.8,0.6-1.1,1.1s-0.4,1-0.4,1.6
		c0,0.6,0.1,1.1,0.4,1.6c0.3,0.5,0.6,0.8,1.1,1.1c0.4,0.3,0.9,0.4,1.5,0.4S152.4,383.7,152.8,383.4z"/>
	<path d="M164,376.7v7.9H163v-7h-3.8l-0.1,2c-0.1,1.6-0.3,2.9-0.6,3.8c-0.3,0.9-0.8,1.3-1.6,1.3c-0.2,0-0.5,0-0.8-0.1l0.1-0.9
		c0.2,0,0.3,0.1,0.4,0.1c0.4,0,0.7-0.2,0.9-0.6s0.4-0.9,0.4-1.4c0.1-0.6,0.1-1.3,0.2-2.2l0.1-2.8H164z"/>
	<path d="M168.3,384.2c-0.6-0.3-1.1-0.8-1.4-1.4c-0.4-0.6-0.5-1.3-0.5-2.1c0-0.8,0.2-1.5,0.5-2.1s0.8-1.1,1.4-1.4s1.3-0.5,2.1-0.5
		c0.8,0,1.4,0.2,2.1,0.5c0.6,0.3,1.1,0.8,1.4,1.4s0.5,1.3,0.5,2.1c0,0.8-0.2,1.5-0.5,2.1c-0.3,0.6-0.8,1.1-1.4,1.4
		c-0.6,0.3-1.3,0.5-2.1,0.5C169.6,384.7,168.9,384.6,168.3,384.2z M171.9,383.4c0.4-0.3,0.8-0.6,1-1.1c0.3-0.5,0.4-1,0.4-1.6
		c0-0.6-0.1-1.1-0.4-1.6c-0.3-0.5-0.6-0.8-1-1.1s-0.9-0.4-1.5-0.4s-1.1,0.1-1.5,0.4c-0.4,0.3-0.8,0.6-1.1,1.1s-0.4,1-0.4,1.6
		c0,0.6,0.1,1.1,0.4,1.6c0.3,0.5,0.6,0.8,1.1,1.1c0.4,0.3,0.9,0.4,1.5,0.4S171.4,383.7,171.9,383.4z"/>
	<path d="M183.3,382.5c0,0.7-0.3,1.2-0.8,1.6c-0.5,0.4-1.3,0.6-2.3,0.6h-3.6v-7.9h3.5c0.9,0,1.6,0.2,2.1,0.5
		c0.5,0.4,0.8,0.9,0.8,1.5c0,0.4-0.1,0.8-0.4,1.1s-0.6,0.5-1,0.7C182.8,380.8,183.3,381.5,183.3,382.5z M177.7,380.3h2.4
		c0.6,0,1.1-0.1,1.4-0.3c0.3-0.2,0.5-0.6,0.5-1c0-0.4-0.2-0.8-0.5-1c-0.3-0.2-0.8-0.3-1.4-0.3h-2.4V380.3z M181.7,383.5
		c0.3-0.2,0.5-0.6,0.5-1s-0.2-0.8-0.5-1c-0.3-0.2-0.8-0.3-1.5-0.3h-2.6v2.8h2.5C180.9,383.8,181.4,383.7,181.7,383.5z"/>
	<path d="M190.9,377.5c0.6,0.5,0.8,1.3,0.8,2.3v4.9h-1v-1.2c-0.2,0.4-0.6,0.7-1.1,1s-1,0.3-1.7,0.3c-0.9,0-1.6-0.2-2.1-0.6
		c-0.5-0.4-0.8-1-0.8-1.7c0-0.7,0.2-1.2,0.7-1.6c0.5-0.4,1.3-0.6,2.3-0.6h2.5v-0.5c0-0.7-0.2-1.2-0.6-1.6s-0.9-0.5-1.7-0.5
		c-0.5,0-1,0.1-1.4,0.2c-0.5,0.2-0.9,0.4-1.2,0.7l-0.5-0.8c0.4-0.3,0.9-0.6,1.4-0.8c0.6-0.2,1.2-0.3,1.8-0.3
		C189.5,376.7,190.3,376.9,190.9,377.5z M189.7,383.5c0.4-0.3,0.8-0.7,1-1.2V381h-2.5c-1.4,0-2,0.5-2,1.4c0,0.5,0.2,0.8,0.5,1.1
		c0.4,0.3,0.8,0.4,1.5,0.4C188.7,383.9,189.2,383.7,189.7,383.5z"/>
	<path d="M200.6,376.7v7.9h-1V382h-2.5h-0.3l-1.8,2.6h-1.2l2-2.8c-0.6-0.2-1.1-0.5-1.4-0.9c-0.3-0.4-0.5-0.9-0.5-1.6
		c0-0.9,0.3-1.6,0.9-2c0.6-0.5,1.4-0.7,2.5-0.7H200.6z M197.2,381.2h2.4v-3.5h-2.3c-1.5,0-2.3,0.6-2.3,1.8
		C195,380.7,195.8,381.2,197.2,381.2z"/>
	<path d="M136.5,394v13.2h-1.9v-11.5h-3V394H136.5z"/>
	<path d="M147.7,395.6c1,1.1,1.4,2.8,1.4,4.8c0,1.5-0.3,2.7-0.8,3.7c-0.5,1-1.2,1.8-2.2,2.3c-0.9,0.5-2,0.8-3.3,0.8
		c-0.6,0-1.2-0.1-1.8-0.2c-0.6-0.1-1.1-0.3-1.5-0.6l0.7-1.5c0.6,0.4,1.5,0.6,2.5,0.6c1.4,0,2.4-0.4,3.2-1.3c0.8-0.8,1.2-2.1,1.2-3.7
		v-0.5c-0.4,0.6-0.9,1-1.6,1.3c-0.7,0.3-1.4,0.4-2.2,0.4c-0.9,0-1.6-0.2-2.3-0.5c-0.7-0.3-1.2-0.8-1.6-1.4c-0.4-0.6-0.6-1.3-0.6-2.1
		c0-0.8,0.2-1.6,0.6-2.2c0.4-0.6,1-1.1,1.7-1.5c0.7-0.3,1.5-0.5,2.4-0.5C145.4,393.9,146.7,394.5,147.7,395.6z M145.4,400.2
		c0.5-0.2,0.8-0.5,1.1-0.9c0.3-0.4,0.4-0.8,0.4-1.3c0-0.5-0.1-0.9-0.4-1.3c-0.2-0.4-0.6-0.7-1.1-0.9c-0.5-0.2-1-0.3-1.7-0.3
		c-0.9,0-1.6,0.2-2.1,0.7c-0.5,0.5-0.8,1.1-0.8,1.9c0,0.8,0.3,1.4,0.8,1.9c0.5,0.5,1.3,0.7,2.2,0.7
		C144.4,400.5,144.9,400.4,145.4,400.2z"/>
	<path d="M152.8,405.1c0.2,0.2,0.3,0.5,0.3,0.9c0,0.2,0,0.4-0.1,0.5c0,0.2-0.1,0.4-0.3,0.8L152,410h-1.2l0.7-2.8
		c-0.2-0.1-0.4-0.2-0.6-0.4c-0.1-0.2-0.2-0.4-0.2-0.7c0-0.4,0.1-0.7,0.4-0.9c0.2-0.2,0.5-0.4,0.9-0.4
		C152.3,404.7,152.6,404.9,152.8,405.1z"/>
	<path d="M162.7,399.7c0.7,0.3,1.2,0.8,1.6,1.4c0.4,0.6,0.6,1.3,0.6,2.1c0,0.8-0.2,1.6-0.6,2.2c-0.4,0.6-1,1.1-1.7,1.5
		s-1.5,0.5-2.4,0.5c-1.8,0-3.1-0.6-4.1-1.7s-1.4-2.8-1.4-4.8c0-1.5,0.3-2.7,0.8-3.7c0.5-1,1.2-1.8,2.2-2.3c0.9-0.5,2-0.8,3.3-0.8
		c0.6,0,1.2,0.1,1.8,0.2c0.6,0.1,1.1,0.3,1.5,0.6l-0.7,1.5c-0.6-0.4-1.5-0.6-2.5-0.6c-1.4,0-2.4,0.4-3.2,1.3
		c-0.8,0.8-1.2,2.1-1.2,3.7c0,0.2,0,0.4,0,0.5c0.4-0.6,0.9-1,1.5-1.3c0.7-0.3,1.4-0.4,2.2-0.4C161.3,399.2,162.1,399.4,162.7,399.7z
		 M162.3,405.1c0.5-0.5,0.8-1.1,0.8-1.9c0-0.8-0.3-1.4-0.8-1.8c-0.5-0.5-1.3-0.7-2.2-0.7c-0.6,0-1.1,0.1-1.6,0.3
		c-0.5,0.2-0.8,0.5-1.1,0.9c-0.3,0.4-0.4,0.8-0.4,1.3c0,0.5,0.1,0.9,0.4,1.3c0.2,0.4,0.6,0.7,1.1,0.9s1,0.3,1.7,0.3
		C161.1,405.8,161.8,405.6,162.3,405.1z"/>
</g>
<g>
	<path d="M370.2,578.4c-0.8-0.5-1.5-1.1-2-1.9c-0.5-0.8-0.7-1.7-0.7-2.7c0-1,0.2-1.9,0.7-2.7s1.1-1.5,2-1.9c0.8-0.5,1.8-0.7,2.8-0.7
		c0.8,0,1.5,0.1,2.2,0.4c0.7,0.3,1.2,0.6,1.7,1.1l-0.7,0.7c-0.8-0.8-1.9-1.2-3.1-1.2c-0.8,0-1.6,0.2-2.3,0.6s-1.2,0.9-1.6,1.6
		s-0.6,1.4-0.6,2.2c0,0.8,0.2,1.6,0.6,2.2s0.9,1.2,1.6,1.6s1.4,0.6,2.3,0.6c1.3,0,2.3-0.4,3.1-1.3l0.7,0.7c-0.5,0.5-1,0.9-1.7,1.2
		c-0.7,0.3-1.4,0.4-2.2,0.4C372,579.1,371.1,578.9,370.2,578.4z"/>
	<path d="M386,571.1v7.9H385v-7h-5v7H379v-7.9H386z"/>
	<path d="M394.2,571.8c0.6,0.5,0.8,1.3,0.8,2.3v4.9h-1v-1.2c-0.2,0.4-0.6,0.7-1.1,1s-1,0.3-1.7,0.3c-0.9,0-1.6-0.2-2.1-0.6
		c-0.5-0.4-0.8-1-0.8-1.7c0-0.7,0.2-1.2,0.7-1.6c0.5-0.4,1.3-0.6,2.3-0.6h2.5v-0.5c0-0.7-0.2-1.2-0.6-1.6s-0.9-0.5-1.7-0.5
		c-0.5,0-1,0.1-1.4,0.2c-0.5,0.2-0.9,0.4-1.2,0.7l-0.5-0.8c0.4-0.3,0.9-0.6,1.4-0.8c0.6-0.2,1.2-0.3,1.8-0.3
		C392.8,571,393.6,571.3,394.2,571.8z M393,577.8c0.4-0.3,0.8-0.7,1-1.2v-1.3h-2.5c-1.4,0-2,0.5-2,1.4c0,0.5,0.2,0.8,0.5,1.1
		c0.4,0.3,0.8,0.4,1.5,0.4C392,578.2,392.5,578.1,393,577.8z"/>
	<path d="M404.3,571.1v7.9h-1.1v-7h-3.8l-0.1,2c-0.1,1.6-0.3,2.9-0.6,3.8c-0.3,0.9-0.8,1.3-1.6,1.3c-0.2,0-0.5,0-0.8-0.1l0.1-0.9
		c0.2,0,0.3,0.1,0.4,0.1c0.4,0,0.7-0.2,0.9-0.6s0.4-0.9,0.4-1.4c0.1-0.6,0.1-1.3,0.2-2.2l0.1-2.8H404.3z"/>
	<path d="M413,574.6c0.5,0.4,0.8,1.1,0.8,1.9c0,0.8-0.3,1.5-0.8,1.9c-0.6,0.5-1.4,0.7-2.4,0.7l-3.2,0v-7.9h1.1v2.8l2.3,0
		C411.7,573.9,412.5,574.1,413,574.6z M412.1,577.8c0.4-0.3,0.6-0.8,0.6-1.3c0-0.6-0.2-1-0.6-1.3c-0.4-0.3-0.9-0.4-1.7-0.4l-2.1,0
		v3.5l2.1,0C411.2,578.2,411.8,578.1,412.1,577.8z"/>
	<path d="M415.8,571.1h1.1v3.5h5v-3.5h1.1v7.9h-1.1v-3.5h-5v3.5h-1.1V571.1z"/>
	<path d="M432,571.1v7.9h-1v-2.6h-2.5h-0.3l-1.8,2.6h-1.2l2-2.8c-0.6-0.2-1.1-0.5-1.4-0.9c-0.3-0.4-0.5-0.9-0.5-1.6
		c0-0.9,0.3-1.6,0.9-2s1.4-0.7,2.5-0.7H432z M428.7,575.6h2.4V572h-2.3c-1.5,0-2.3,0.6-2.3,1.8C426.4,575,427.2,575.6,428.7,575.6z"
		/>
	<path d="M371.7,588.4v13.2h-1.9V590h-3v-1.6H371.7z"/>
	<path d="M382.5,595.1c0.7,0.7,1,1.5,1,2.6c0,0.8-0.2,1.4-0.6,2c-0.4,0.6-0.9,1.1-1.7,1.4c-0.7,0.4-1.7,0.5-2.7,0.5
		c-0.9,0-1.8-0.1-2.7-0.4s-1.6-0.7-2.1-1.2l0.9-1.5c0.5,0.4,1,0.8,1.7,1c0.7,0.3,1.4,0.4,2.2,0.4c1,0,1.7-0.2,2.3-0.6s0.8-1,0.8-1.7
		c0-0.7-0.3-1.3-0.8-1.7c-0.5-0.4-1.4-0.6-2.4-0.6h-1.1v-1.3l3.3-4.1h-6.3v-1.6h8.7v1.3l-3.4,4.2C380.9,594,381.8,594.4,382.5,595.1
		z"/>
	<path d="M387.4,599.5c0.2,0.2,0.3,0.5,0.3,0.9c0,0.2,0,0.4-0.1,0.5c0,0.2-0.1,0.4-0.3,0.8l-0.9,2.6h-1.2l0.7-2.8
		c-0.2-0.1-0.4-0.2-0.6-0.4c-0.1-0.2-0.2-0.4-0.2-0.7c0-0.4,0.1-0.7,0.4-0.9c0.2-0.2,0.5-0.4,0.9-0.4
		C386.9,599.1,387.2,599.2,387.4,599.5z"/>
	<path d="M400.8,598.3h-2.5v3.2h-1.8v-3.2h-7.3V597l6.7-8.6h2l-6.4,8.3h5.1v-2.9h1.8v2.9h2.5V598.3z"/>
</g>
<g>
	<path d="M584,573.5c-0.8-0.5-1.5-1.1-2-1.9c-0.5-0.8-0.7-1.7-0.7-2.7c0-1,0.2-1.9,0.7-2.7c0.5-0.8,1.1-1.5,2-1.9
		c0.8-0.5,1.8-0.7,2.8-0.7c0.8,0,1.5,0.1,2.2,0.4s1.2,0.6,1.7,1.1l-0.7,0.7c-0.8-0.8-1.9-1.2-3.1-1.2c-0.8,0-1.6,0.2-2.3,0.6
		c-0.7,0.4-1.2,0.9-1.6,1.6c-0.4,0.7-0.6,1.4-0.6,2.2c0,0.8,0.2,1.6,0.6,2.2c0.4,0.7,0.9,1.2,1.6,1.6c0.7,0.4,1.4,0.6,2.3,0.6
		c1.3,0,2.3-0.4,3.1-1.3l0.7,0.7c-0.5,0.5-1,0.9-1.7,1.2c-0.7,0.3-1.4,0.4-2.2,0.4C585.7,574.1,584.8,573.9,584,573.5z"/>
	<path d="M599.8,566.2v7.9h-1.1v-7h-5v7h-1.1v-7.9H599.8z"/>
	<path d="M607.9,566.9c0.6,0.5,0.8,1.3,0.8,2.3v4.9h-1v-1.2c-0.2,0.4-0.6,0.7-1.1,1c-0.5,0.2-1,0.3-1.7,0.3c-0.9,0-1.6-0.2-2.1-0.6
		c-0.5-0.4-0.8-1-0.8-1.7c0-0.7,0.2-1.2,0.7-1.6c0.5-0.4,1.3-0.6,2.3-0.6h2.5v-0.5c0-0.7-0.2-1.2-0.6-1.6c-0.4-0.4-0.9-0.5-1.7-0.5
		c-0.5,0-1,0.1-1.4,0.2c-0.5,0.2-0.9,0.4-1.2,0.7l-0.5-0.8c0.4-0.3,0.9-0.6,1.4-0.8c0.6-0.2,1.2-0.3,1.8-0.3
		C606.6,566.1,607.4,566.3,607.9,566.9z M606.7,572.9c0.4-0.3,0.8-0.7,1-1.2v-1.3h-2.5c-1.4,0-2,0.5-2,1.4c0,0.5,0.2,0.8,0.5,1.1
		c0.4,0.3,0.8,0.4,1.5,0.4C605.8,573.3,606.3,573.2,606.7,572.9z"/>
	<path d="M618,566.2v7.9H617v-7h-3.8l-0.1,2c-0.1,1.6-0.3,2.9-0.6,3.8c-0.3,0.9-0.8,1.3-1.6,1.3c-0.2,0-0.5,0-0.8-0.1l0.1-0.9
		c0.2,0,0.3,0.1,0.4,0.1c0.4,0,0.7-0.2,0.9-0.6c0.2-0.4,0.4-0.9,0.4-1.4c0.1-0.6,0.1-1.3,0.2-2.2l0.1-2.8H618z"/>
	<path d="M626.7,569.6c0.5,0.4,0.8,1.1,0.8,1.9c0,0.8-0.3,1.5-0.8,1.9c-0.6,0.5-1.4,0.7-2.4,0.7l-3.2,0v-7.9h1.1v2.8l2.3,0
		C625.5,569,626.2,569.2,626.7,569.6z M625.9,572.8c0.4-0.3,0.6-0.8,0.6-1.3c0-0.6-0.2-1-0.6-1.3c-0.4-0.3-0.9-0.4-1.7-0.4l-2.1,0
		v3.5l2.1,0C624.9,573.3,625.5,573.1,625.9,572.8z"/>
	<path d="M629.5,566.2h1.1v3.5h5v-3.5h1.1v7.9h-1.1v-3.5h-5v3.5h-1.1V566.2z"/>
	<path d="M645.8,566.2v7.9h-1v-2.6h-2.5H642l-1.8,2.6H639l2-2.8c-0.6-0.2-1.1-0.5-1.4-0.9c-0.3-0.4-0.5-0.9-0.5-1.6
		c0-0.9,0.3-1.6,0.9-2c0.6-0.5,1.4-0.7,2.5-0.7H645.8z M642.4,570.6h2.4v-3.5h-2.3c-1.5,0-2.3,0.6-2.3,1.8
		C640.2,570.1,640.9,570.6,642.4,570.6z"/>
	<path d="M585.4,583.4v13.2h-1.9v-11.5h-3v-1.6H585.4z"/>
	<path d="M599.7,593.4h-2.5v3.2h-1.8v-3.2h-7.3v-1.3l6.7-8.6h2l-6.4,8.3h5.1v-2.9h1.8v2.9h2.5V593.4z"/>
	<path d="M603.3,594.5c0.2,0.2,0.3,0.5,0.3,0.9c0,0.2,0,0.4-0.1,0.5s-0.1,0.4-0.3,0.8l-0.9,2.6h-1.2l0.7-2.8
		c-0.2-0.1-0.4-0.2-0.6-0.4c-0.1-0.2-0.2-0.4-0.2-0.7c0-0.4,0.1-0.7,0.4-0.9c0.2-0.2,0.5-0.4,0.9-0.4
		C602.8,594.1,603.1,594.3,603.3,594.5z"/>
	<path d="M614.9,595v1.6h-9.4v-1.3l5.4-5.2c0.7-0.6,1.1-1.2,1.3-1.6s0.3-0.9,0.3-1.4c0-0.7-0.2-1.2-0.7-1.6
		c-0.5-0.4-1.2-0.6-2.1-0.6c-1.5,0-2.6,0.5-3.4,1.4l-1.3-1.1c0.5-0.6,1.2-1.1,2-1.5s1.8-0.5,2.8-0.5c1.4,0,2.5,0.3,3.3,1
		c0.8,0.7,1.2,1.5,1.2,2.7c0,0.7-0.2,1.4-0.5,2c-0.3,0.6-0.9,1.3-1.7,2.1l-4,3.9H614.9z"/>
</g>
<g>
	<path d="M142.4,604.3h-2.5v3.2h-1.8v-3.2h-7.3v-1.3l6.7-8.6h2l-6.4,8.3h5.1v-2.9h1.8v2.9h2.5V604.3z"/>
	<path d="M146,605.4c0.2,0.2,0.3,0.5,0.3,0.9c0,0.2,0,0.4-0.1,0.5c0,0.2-0.1,0.4-0.3,0.8l-0.9,2.6H144l0.7-2.8
		c-0.2-0.1-0.4-0.2-0.6-0.4c-0.1-0.2-0.2-0.4-0.2-0.7c0-0.4,0.1-0.7,0.4-0.9c0.2-0.2,0.5-0.4,0.9-0.4
		C145.5,605,145.8,605.2,146,605.4z"/>
	<path d="M150.5,606.8c-0.8-0.5-1.4-1.3-1.9-2.3c-0.5-1-0.7-2.2-0.7-3.6c0-1.4,0.2-2.6,0.7-3.6c0.5-1,1.1-1.8,1.9-2.3
		c0.8-0.5,1.7-0.8,2.8-0.8c1,0,1.9,0.3,2.8,0.8c0.8,0.5,1.4,1.3,1.9,2.3c0.5,1,0.7,2.2,0.7,3.6c0,1.4-0.2,2.6-0.7,3.6
		c-0.5,1-1.1,1.8-1.9,2.3c-0.8,0.5-1.7,0.8-2.8,0.8C152.3,607.6,151.4,607.4,150.5,606.8z M155.8,604.7c0.6-0.9,0.9-2.1,0.9-3.8
		s-0.3-2.9-0.9-3.8c-0.6-0.9-1.5-1.3-2.5-1.3c-1.1,0-1.9,0.4-2.5,1.3c-0.6,0.9-0.9,2.1-0.9,3.8s0.3,2.9,0.9,3.8s1.5,1.3,2.5,1.3
		C154.4,606,155.2,605.5,155.8,604.7z"/>
</g>
<g>
	<path d="M468,159.8v1.6h-9.4v-1.3l5.4-5.2c0.7-0.6,1.1-1.2,1.3-1.6c0.2-0.5,0.3-0.9,0.3-1.4c0-0.7-0.2-1.2-0.7-1.6
		c-0.5-0.4-1.2-0.6-2.1-0.6c-1.5,0-2.6,0.5-3.4,1.4l-1.3-1.1c0.5-0.6,1.2-1.1,2-1.5c0.8-0.4,1.8-0.5,2.8-0.5c1.4,0,2.5,0.3,3.3,1
		c0.8,0.7,1.2,1.5,1.2,2.7c0,0.7-0.2,1.4-0.5,2s-0.9,1.3-1.7,2.1l-4,3.9H468z"/>
	<path d="M471.9,159.3c0.2,0.2,0.3,0.5,0.3,0.9c0,0.2,0,0.4-0.1,0.5c0,0.2-0.1,0.4-0.3,0.8l-0.9,2.6h-1.2l0.7-2.8
		c-0.2-0.1-0.4-0.2-0.6-0.4c-0.1-0.2-0.2-0.4-0.2-0.7c0-0.4,0.1-0.7,0.4-0.9s0.5-0.4,0.9-0.4C471.3,158.9,471.6,159.1,471.9,159.3z"
		/>
	<path d="M485.3,158.2h-2.5v3.2h-1.8v-3.2h-7.3v-1.3l6.7-8.6h2l-6.4,8.3h5.1v-2.9h1.8v2.9h2.5V158.2z"/>
</g>
<g>
	<path d="M627.5,163.7H625v3.2h-1.8v-3.2h-7.3v-1.3l6.7-8.6h2l-6.4,8.3h5.1v-2.9h1.8v2.9h2.5V163.7z"/>
	<path d="M631.1,164.9c0.2,0.2,0.3,0.5,0.3,0.9c0,0.2,0,0.4-0.1,0.5s-0.1,0.4-0.3,0.8l-0.9,2.6h-1.2l0.7-2.8
		c-0.2-0.1-0.4-0.2-0.6-0.4c-0.1-0.2-0.2-0.4-0.2-0.7c0-0.4,0.1-0.7,0.4-0.9c0.2-0.2,0.5-0.4,0.9-0.4
		C630.6,164.5,630.9,164.6,631.1,164.9z"/>
	<path d="M637.1,153.8V167h-1.9v-11.5h-3v-1.6H637.1z"/>
</g>
<g>
	<path d="M511.9,249c0.9,0.7,1.3,1.7,1.3,2.9c0,0.8-0.2,1.5-0.6,2.1c-0.4,0.6-0.9,1.1-1.7,1.5s-1.7,0.5-2.8,0.5
		c-0.9,0-1.8-0.1-2.7-0.4s-1.6-0.7-2.1-1.2l0.9-1.5c0.5,0.4,1,0.8,1.7,1c0.7,0.3,1.4,0.4,2.2,0.4c1,0,1.8-0.2,2.3-0.6
		c0.5-0.4,0.8-1,0.8-1.7c0-0.8-0.3-1.4-0.9-1.8c-0.6-0.4-1.6-0.6-3.1-0.6h-3l0.7-6.9h7.4v1.6h-5.8l-0.4,3.6h1.5
		C509.6,247.9,511,248.3,511.9,249z"/>
	<path d="M516.9,253.7c0.2,0.2,0.3,0.5,0.3,0.9c0,0.2,0,0.4-0.1,0.5s-0.1,0.4-0.3,0.8l-0.9,2.6h-1.2l0.7-2.8
		c-0.2-0.1-0.4-0.2-0.6-0.4c-0.1-0.2-0.2-0.4-0.2-0.7c0-0.4,0.1-0.7,0.4-0.9c0.2-0.2,0.5-0.4,0.9-0.4
		C516.4,253.4,516.7,253.5,516.9,253.7z"/>
	<path d="M527.2,249.4c0.7,0.7,1,1.5,1,2.6c0,0.8-0.2,1.4-0.6,2s-0.9,1.1-1.7,1.4s-1.7,0.5-2.7,0.5c-0.9,0-1.8-0.1-2.7-0.4
		s-1.6-0.7-2.1-1.2l0.9-1.5c0.5,0.4,1,0.8,1.7,1s1.4,0.4,2.2,0.4c1,0,1.7-0.2,2.3-0.6c0.5-0.4,0.8-1,0.8-1.7s-0.3-1.3-0.8-1.7
		s-1.4-0.6-2.4-0.6H522v-1.3l3.3-4.1H519v-1.6h8.7v1.3l-3.4,4.2C525.5,248.3,526.5,248.7,527.2,249.4z"/>
</g>
<g>
	<path d="M359.3,158.4c0.7,0.7,1,1.5,1,2.6c0,0.8-0.2,1.4-0.6,2c-0.4,0.6-0.9,1.1-1.7,1.4s-1.7,0.5-2.7,0.5c-0.9,0-1.8-0.1-2.7-0.4
		s-1.6-0.7-2.1-1.2l0.9-1.5c0.5,0.4,1,0.8,1.7,1c0.7,0.3,1.4,0.4,2.2,0.4c1,0,1.7-0.2,2.3-0.6c0.5-0.4,0.8-1,0.8-1.7
		s-0.3-1.3-0.8-1.7s-1.4-0.6-2.4-0.6h-1.1v-1.3l3.3-4.1h-6.3v-1.6h8.7v1.3l-3.4,4.2C357.6,157.3,358.6,157.7,359.3,158.4z"/>
	<path d="M364.2,162.7c0.2,0.2,0.3,0.5,0.3,0.9c0,0.2,0,0.4-0.1,0.5c0,0.2-0.1,0.4-0.3,0.8l-0.9,2.6h-1.2l0.7-2.8
		c-0.2-0.1-0.4-0.2-0.6-0.4c-0.1-0.2-0.2-0.4-0.2-0.7c0-0.4,0.1-0.7,0.4-0.9c0.2-0.2,0.5-0.4,0.9-0.4
		C363.7,162.4,364,162.5,364.2,162.7z"/>
	<path d="M374.5,158.4c0.7,0.7,1,1.5,1,2.6c0,0.8-0.2,1.4-0.6,2c-0.4,0.6-0.9,1.1-1.7,1.4s-1.7,0.5-2.7,0.5c-0.9,0-1.8-0.1-2.7-0.4
		s-1.6-0.7-2.1-1.2l0.9-1.5c0.5,0.4,1,0.8,1.7,1c0.7,0.3,1.4,0.4,2.2,0.4c1,0,1.7-0.2,2.3-0.6c0.5-0.4,0.8-1,0.8-1.7
		s-0.3-1.3-0.8-1.7s-1.4-0.6-2.4-0.6h-1.1v-1.3l3.3-4.1h-6.3v-1.6h8.7v1.3l-3.4,4.2C372.8,157.3,373.8,157.7,374.5,158.4z"/>
</g>
<g id="moyka_2_3_">
	<path fill="#F3F3F3" stroke="#838383" d="M194.1,120.1c0,1.3,1.1,2.4,2.4,2.4h34.2c1.3,0,2.4-1.1,2.4-2.4V91.9
		c0-1.3-1.1-2.4-2.4-2.4h-34.2c-1.3,0-2.4,1.1-2.4,2.4V120.1z"/>
	<path fill="#F3F3F3" stroke="#838383" d="M196.5,117.8c0,1.3,1.1,2.4,2.4,2.4h29.5c1.3,0,2.4-1.1,2.4-2.4v-20
		c0-1.3-1.1-2.4-2.4-2.4h-29.5c-1.3,0-2.4,1.1-2.4,2.4V117.8z"/>
	<rect x="211.8" y="93" fill="#F3F3F3" stroke="#838383" width="2.4" height="9.4"/>
	<circle fill="#F3F3F3" stroke="#838383" cx="213.6" cy="108.9" r="1.8"/>
</g>
<g id="plita_3_">
	<rect x="120.9" y="88.1" fill="#F3F3F3" stroke="#838383" width="42.4" height="41.2"/>
	<circle fill="#F3F3F3" stroke="#838383" cx="131.5" cy="117.6" r="7.1"/>
	<circle fill="#F3F3F3" stroke="#838383" cx="149.2" cy="99.9" r="7.1"/>
	<circle fill="#F3F3F3" stroke="#838383" cx="131.5" cy="99.9" r="5.9"/>
	<circle fill="#F3F3F3" stroke="#838383" cx="149.2" cy="117.6" r="5.9"/>
</g>
<g id="unitaz_4_">
	<path fill="#F3F3F3" stroke="#838383" d="M611.3,61.3v9.8c0,1.6,1.3,2.8,2.8,2.8h25.3c1.6,0,2.8-1.3,2.8-2.8v-9.8H611.3z"/>
	<path fill="#F3F3F3" stroke="#838383" d="M614.1,73.9c-1.6,0-2.8,1.3-2.8,2.8h30.9c0-1.6-1.3-2.8-2.8-2.8H614.1z"/>
	<path fill="#F3F3F3" stroke="#838383" d="M642.2,76.8h-30.9c0,0-6.3,36.5,15.5,36.5C648.5,113.3,642.2,76.8,642.2,76.8z"/>
	<circle fill="#F3F3F3" stroke="#838383" cx="626.7" cy="66.9" r="2.8"/>
</g>
<g id="unitaz_5_">
	<path fill="#F3F3F3" stroke="#838383" d="M460,65.6v9.8c0,1.6,1.3,2.8,2.8,2.8h25.3c1.6,0,2.8-1.3,2.8-2.8v-9.8H460z"/>
	<path fill="#F3F3F3" stroke="#838383" d="M462.8,78.2c-1.6,0-2.8,1.3-2.8,2.8h30.9c0-1.6-1.3-2.8-2.8-2.8H462.8z"/>
	<path fill="#F3F3F3" stroke="#838383" d="M490.9,81H460c0,0-6.3,36.5,15.5,36.5C497.2,117.5,490.9,81,490.9,81z"/>
	<circle fill="#F3F3F3" stroke="#838383" cx="475.5" cy="71.2" r="2.8"/>
</g>
<g id="moyka_4_">
	<path fill="#F3F3F3" stroke="#838383" d="M653.9,61.3c-0.8,0-1.5,0.7-1.5,1.5v30.2c0,0.8,0.7,1.5,1.5,1.5h45.3
		c0.8,0,1.5-0.7,1.5-1.5V62.8c0-0.8-0.7-1.5-1.5-1.5H653.9z"/>
	<rect x="652.4" y="65.9" fill="#F3F3F3" stroke="#838383" width="48.4" height="3"/>
	<ellipse fill="#F3F3F3" stroke="#838383" cx="677.3" cy="81.7" rx="15.9" ry="9.8"/>
	<rect x="675" y="65.9" fill="#F3F3F3" stroke="#838383" width="3" height="12.1"/>
	<circle fill="#F3F3F3" stroke="#838383" cx="675.8" cy="83.2" r="2.3"/>
</g>
<g id="moyka_5_">
	<path fill="#F3F3F3" stroke="#838383" d="M553.1,149.9c0-0.8-0.7-1.5-1.5-1.5h-30.2c-0.8,0-1.5,0.7-1.5,1.5v45.3
		c0,0.8,0.7,1.5,1.5,1.5h30.2c0.8,0,1.5-0.7,1.5-1.5V149.9z"/>
	<rect x="545.6" y="148.3" fill="#F3F3F3" stroke="#838383" width="3" height="48.4"/>
	<ellipse fill="#F3F3F3" stroke="#838383" cx="532.7" cy="173.3" rx="9.8" ry="15.9"/>
	<rect x="536.5" y="171" fill="#F3F3F3" stroke="#838383" width="12.1" height="3"/>
	<circle fill="#F3F3F3" stroke="#838383" cx="531.2" cy="171.8" r="2.3"/>
</g>
<g id="stirka_3_">
	<rect x="508.8" y="103.9" fill="#F3F3F3" stroke="#838383" width="43.1" height="43.1"/>
	<path fill="#F3F3F3" stroke="#838383" d="M547.6,106.8c-1.6,0-2.9,1.3-2.9,2.9v10c0,1.6,1.3,2.9,2.9,2.9h4.3v-15.8H547.6z"/>
	<circle fill="#F3F3F3" stroke="#838383" cx="528.9" cy="125.4" r="11.5"/>
	<circle fill="#F3F3F3" stroke="#838383" cx="528.9" cy="125.4" r="8.6"/>
	<circle fill="#F3F3F3" stroke="#838383" cx="544.7" cy="139.8" r="2.9"/>
</g>
<g id="vanna_3_">
	<rect x="718.7" y="62" fill="#F3F3F3" stroke="#838383" width="50.7" height="129.3"/>
	<path fill="#F3F3F3" stroke="#838383" d="M752.1,183.3c7.4,0,13.3-6,13.3-13.3V80.6h-42.7V170c0,7.4,6,13.3,13.3,13.3H752.1z"/>
	<path fill="#F3F3F3" stroke="#838383" d="M742.7,78.6h-10.7V74h18"/>
	<path id="Union_3_" fill="#F3F3F3" stroke="#838383" d="M752.3,72.6c0.5-1.6,2-2.7,3.8-2.7c2.2,0,4,1.8,4,4c0,2.2-1.8,4-4,4
		c-1.7,0-3.2-1.1-3.8-2.7h-1.6c-0.7,0-1.3-0.6-1.3-1.3c0-0.7,0.6-1.3,1.3-1.3H752.3z"/>
	<rect x="742.7" y="76.6" fill="#F3F3F3" stroke="#838383" width="2.7" height="10.7"/>
</g>
<g>
</g>
<g>
</g>
<g>
</g>
<g>
</g>
<g>
</g>
<g>
</g>
</svg>
