<svg id="Слой_1" data-name="Слой 1" xmlns="http://www.w3.org/2000/svg" viewBox="0 0 195.51739 180.8223"><title>1.02.09</title><polygon points="195.517 180.822 64.358 180.822 64.358 177.796 8.256 177.796 8.256 180.822 0 180.822 0 0 195.517 0 195.517 180.822" style="fill:#fff;fill-rule:evenodd"/><rect x="28.7328" y="85.00391" width="28.4055" height="17.26689" style="fill:#fff"/><path d="M171.60291,207.56641H143.9476V224.0833h27.6553Zm-28.03041-.75H172.353v18.017h-29.1555v-18.017Z" transform="translate(-114.8397 -122.1875)" style="fill:#fff"/><rect x="14.85751" y="84.62891" width="13.88719" height="18.01669" style="fill:#fff"/><path d="M137.647,215.00031l3.2655-4.1069v-.84131H133.4906v1.0556h5.9045l-3.19969,4.0079v.87419h.82489c2.1441,0,3.1172.9071,3.1172,2.29271,0,1.43489-1.0556,2.3255-2.969,2.3255a5.05746,5.05746,0,0,1-3.579-1.33591l-.57719.93991a6.003,6.003,0,0,0,4.1562,1.48459c2.7876,0,4.1893-1.48459,4.1893-3.41409,0-1.84731-1.237-3.15041-3.7108-3.2822" transform="translate(-114.8397 -122.1875)" style="fill:#fff;fill-rule:evenodd"/><path d="M166.424,218.10761c-.57739,0-.9816-.47621-.9816-1.624s.40421-1.6239.9816-1.6239c.5845,0,.9888.47621.9888,1.6239s-.4043,1.624-.9888,1.624m0,.989c1.2487,0,2.16541-.9456,2.16541-2.613s-.9167-2.6129-2.16541-2.6129c-1.2415,0-2.16539.9456-2.16539,2.6129S165.1825,219.0966,166.424,219.0966Zm-4.807-1.0394,1.162-1.09711a2.01608,2.01608,0,0,0,.8447-1.59531c0-.91669-.7509-1.49409-1.8768-1.49409a2.34684,2.34684,0,0,0-2.0067.93851l.85179.54849a1.23541,1.23541,0,0,1,1.0466-.5054c.534,0,.80841.231.80841.6282,0,.24519-.0793.5051-.5269.93089l-1.9489,1.8405v.758h3.8183v-.9527Zm-2.89441-.3898a.66883.66883,0,0,0-.7002.69279.62673.62673,0,0,0,.3898.61369l-.3175,1.1474h.7146l.4113-1.03909a1.67954,1.67954,0,0,0,.1951-.722A.66325.66325,0,0,0,158.7226,217.6674Zm-3.41409.57c-.57741,0-.9382-.2814-.9382-.72879s.36079-.72191.9382-.72191c.58479,0,.9528.2744.9528.72191S155.8933,218.2374,155.3085,218.2374Zm0-3.5078c.4765,0,.794.2384.794.63519,0,.38271-.31039.6208-.794.6208-.4762,0-.7795-.2381-.7795-.6208C154.529,214.968,154.8394,214.7296,155.3085,214.7296Zm1.3644,1.62421a1.17369,1.17369,0,0,0,.5918-1.0395c0-.8878-.794-1.4436-1.95619-1.4436-1.1474,0-1.94141.5558-1.94141,1.4436a1.16724,1.16724,0,0,0,.5845,1.0395,1.2841,1.2841,0,0,0-.76511,1.1908c0,.9528.84451,1.552,2.122,1.552,1.285,0,2.13651-.5992,2.13651-1.552A1.27943,1.27943,0,0,0,156.6729,216.35381Zm-5.861,1.86949c-.56291,0-.8878-.31779-.8878-.7509a.79017.79017,0,0,1,.8734-.75769.7599.7599,0,1,1,.0144,1.50859Zm.2381-2.382a1.705,1.705,0,0,0-1.2486.44731,1.34166,1.34166,0,0,1,1.4218-1.46521,1.66477,1.66477,0,0,1,.94569.25281l.43311-.8589a2.72675,2.72675,0,0,0-1.4077-.3466,2.45947,2.45947,0,0,0-2.57671,2.72121c0,1.63139.8663,2.5047,2.25931,2.5047a1.7371,1.7371,0,0,0,1.9128-1.68181A1.60273,1.60273,0,0,0,151.05,215.84129Z" transform="translate(-114.8397 -122.1875)" style="fill:#fff;fill-rule:evenodd"/><path d="M178.6465,136.34171v-2.5433h-6.9599v2.5433Zm0,4.33609v-2.54318h-6.9599v2.54318Zm-4.068,4.44171v-2.5433H171.6866v2.5433Zm4.068,0v-2.5433h-2.89191v2.5433Zm-9.4632-18.5239H181.1662v20.9812H169.1833Z" transform="translate(-114.8397 -122.1875)" style="fill:#fff;fill-rule:evenodd"/><path d="M255.6136,135.8266v-2.54321h-6.9599v2.54321Zm0,4.33621v-2.5433h-6.9599v2.5433Zm-4.068,4.44159v-2.54321H248.6537v2.54321Zm4.068,0v-2.54321h-2.89191v2.54321Zm-8.5674-12.4574h9.7767v13.54279h-9.7767Z" transform="translate(-114.8397 -122.1875)" style="fill:#fff;fill-rule:evenodd"/><path d="M208.3391,156.88721a.374.374,0,0,1-.6474-.37469l8.0399-13.92011a.374.374,0,1,1,.6474.37469Z" transform="translate(-114.8397 -122.1875)" style="fill:#fff"/><path d="M149.53461,269.01981a.37407.37407,0,0,0,.37479.64749l13.92011-8.0399a.37407.37407,0,0,0-.3748-.64749Z" transform="translate(-114.8397 -122.1875)" style="fill:#fff"/><path d="M225.3158,205.672a.37406.37406,0,1,0,.37471.64751l13.92009-8.04a.374.374,0,1,0-.37469-.6474Z" transform="translate(-114.8397 -122.1875)" style="fill:#fff"/><path d="M264.30151,205.7758a.374.374,0,1,1-.37473.6474l-13.92009-8.0399a.374.374,0,1,1,.37469-.6474Z" transform="translate(-114.8397 -122.1875)" style="fill:#fff"/><path d="M276.99359,172.2334a.374.374,0,1,0-.37469-.6474l-13.9201,8.0399a.374.374,0,0,0,.37469.6474Z" transform="translate(-114.8397 -122.1875)" style="fill:#fff"/><rect x="100.7853" y="2.29199" width="2.6022" height="18.33032" style="fill:#fff"/><rect x="63.7243" y="24.2764" width="2.6022" height="25.59061" style="fill:#fff"/><rect x="130.2044" y="2.29199" width="2.6022" height="42.1019" style="fill:#fff"/><rect x="163.25799" y="48.9424" width="2.6022" height="26.8577" style="fill:#fff"/><rect x="64.3578" y="73.41901" width="2.6022" height="66.0761" style="fill:#fff"/><rect x="130.2044" y="73.41901" width="2.6022" height="104.4034" style="fill:#fff"/><rect x="100.7853" y="36.7894" width="2.6022" height="12.7531" style="fill:#fff"/><rect y="32.83221" width="1.4505" height="2.60217" style="fill:#fff"/><rect x="100.7853" y="47.4502" width="45.1012" height="2.6022" style="fill:#fff"/><rect x="124.90189" y="73.41901" width="10.65141" height="2.60219" style="fill:#fff"/><rect x="64.7669" y="73.41901" width="42.7036" height="2.60219" style="fill:#fff"/><rect x="153.32659" y="73.41901" width="12.5336" height="2.60219" style="fill:#fff"/><rect x="162.00399" y="47.4502" width="31.81262" height="2.6022" style="fill:#fff"/><rect x="192.5238" y="38.73138" width="2.99359" height="2.6022" style="fill:#fff"/><rect x="192.5238" y="76.23489" width="2.99359" height="2.6022" style="fill:#fff"/><rect x="192.5238" y="79.4225" width="2.99359" height="2.6022" style="fill:#fff"/><rect x="164.8641" y="50.6378" width="28.95251" height="2.6022" style="fill:#fff"/><rect y="90.8197" width="1.4505" height="2.6022" style="fill:#fff"/><rect y="94.005" width="1.4505" height="2.60219" style="fill:#fff"/><rect x="0.0955" y="2.9823" width="5.0021" height="157.7211" style="fill:#fff"/><rect x="190.62801" y="2.9823" width="4.88937" height="173.5203" style="fill:#fff"/><rect width="76.7665" height="6.42551" style="fill:#fff"/><rect x="96.9741" width="98.54329" height="6.42551" style="fill:#fff"/><rect x="0.0955" y="142.57021" width="34.8914" height="8.1601" style="fill:#fff"/><rect y="172.6622" width="7.4067" height="8.1601" style="fill:#fff"/><rect x="66.7409" y="172.6622" width="15.75551" height="8.1601" style="fill:#fff"/><rect x="111.2488" y="172.6622" width="34.87781" height="8.1601" style="fill:#fff"/><rect x="174.67712" y="172.6622" width="20.84027" height="8.1601" style="fill:#fff"/><rect x="64.64671" y="37.26819" width="8.1601" height="12.78421" style="fill:#fff"/><rect x="124.64651" y="37.26819" width="8.1601" height="12.78421" style="fill:#fff"/><rect x="124.64651" y="135.0703" width="8.1601" height="12.78419" style="fill:#fff"/><rect x="0.0955" y="142.9024" width="8.1601" height="37.91989" style="fill:#fff"/><rect x="64.3578" y="135.70239" width="8.16011" height="45.1199" style="fill:#fff"/><rect x="96.2065" y="175.6632" width="0.50169" height="2.2986" style="fill:#fff"/><rect x="97.4052" y="175.6632" width="0.50119" height="2.2986" style="fill:#fff"/><rect x="110.0424" y="175.6632" width="0.5014" height="2.2986" style="fill:#fff"/><rect x="111.2409" y="175.6632" width="0.5011" height="2.2986" style="fill:#fff"/><rect x="82.0948" y="175.6632" width="0.50171" height="2.2986" style="fill:#fff"/><rect x="83.29321" y="175.6632" width="0.50119" height="2.2986" style="fill:#fff"/><rect x="79.70521" y="172.6613" width="34.09369" height="0.5015" style="fill:#fff"/><rect x="79.70521" y="175.5085" width="34.09369" height="0.5014" style="fill:#fff"/><rect x="79.70521" y="177.6798" width="34.09369" height="0.5014" style="fill:#fff"/><rect x="79.70521" y="180.3208" width="34.09369" height="0.5015" style="fill:#fff"/><rect x="159.8077" y="175.6632" width="0.50171" height="2.2986" style="fill:#fff"/><rect x="161.00649" y="175.6632" width="0.5011" height="2.2986" style="fill:#fff"/><rect x="173.64361" y="175.6632" width="0.5015" height="2.2986" style="fill:#fff"/><rect x="174.84209" y="175.6632" width="0.50122" height="2.2986" style="fill:#fff"/><rect x="145.69601" y="175.6632" width="0.50171" height="2.2986" style="fill:#fff"/><rect x="146.89449" y="175.6632" width="0.5011" height="2.2986" style="fill:#fff"/><rect x="143.30639" y="172.6613" width="34.09372" height="0.5015" style="fill:#fff"/><rect x="143.30639" y="175.5085" width="34.09372" height="0.5014" style="fill:#fff"/><rect x="143.30639" y="177.6798" width="34.09372" height="0.5014" style="fill:#fff"/><rect x="143.30639" y="180.3208" width="34.09372" height="0.5015" style="fill:#fff"/><path d="M169.7964,269.57V267.9001h-.697V269.57Zm12.98979.50151H169.0994v2.3457h13.6868v.50139h-14.188v-8.16089h14.188v.50139H169.0994v2.1396h13.6868v.5014H170.2979V269.57h12.4883Z" transform="translate(-114.8397 -122.1875)" style="fill:#fff;fill-rule:evenodd"/><rect x="17.15929" y="176.1936" width="0.44701" height="1.2971" style="fill:#fff"/><rect x="18.22739" y="176.1936" width="0.4467" height="1.2971" style="fill:#fff"/><rect x="35.7613" y="176.1936" width="0.4471" height="1.2971" style="fill:#fff"/><rect x="36.8294" y="176.1936" width="0.44681" height="1.2971" style="fill:#fff"/><rect x="54.3637" y="176.1936" width="0.44701" height="1.2971" style="fill:#fff"/><rect x="55.4318" y="176.1936" width="0.4467" height="1.2971" style="fill:#fff"/><rect x="72.96661" y="176.1936" width="0.4471" height="1.2971" style="fill:#fff"/><rect x="74.03471" y="176.1936" width="0.44679" height="1.2971" style="fill:#fff"/><rect y="176.1936" width="0.0717" height="1.2971" style="fill:#fff"/><rect y="174.9642" width="76.12949" height="0.44669" style="fill:#fff"/><rect y="176.0555" width="76.12949" height="0.4468" style="fill:#fff"/><rect y="177.1364" width="76.12949" height="0.4467" style="fill:#fff"/><path d="M114.8397,194.5211V184.2585a.90729.90729,0,0,1,.0269.22031v9.8223a.90665.90665,0,0,1-.0269.22" transform="translate(-114.8397 -122.1875)" style="fill:#fff"/><path d="M286.452,129.0632h-9.8223a.90518.90518,0,0,0-.9054.9039v4.61029a4.59574,4.59574,0,0,0,4.5896,4.591h2.45221a4.59573,4.59573,0,0,0,4.59039-4.591V129.9671a.90462.90462,0,0,0-.90451-.9039m-6.13809,9.8606a4.3511,4.3511,0,0,1-4.345-4.34641V129.9671a.6615.6615,0,0,1,.6608-.65991h9.8223a.66074.66074,0,0,1,.65991.65991v4.61029a4.35147,4.35147,0,0,1-4.34579,4.34641Z" transform="translate(-114.8397 -122.1875)" style="fill:#fff"/><path d="M280.31409,137.83359a3.2587,3.2587,0,0,1-3.25439-3.25619v-2.68808a.5679.5679,0,0,1,.5672-.5675h3.57532v-.24521h-3.57532a.814.814,0,0,0-.81238.81271v2.68808a3.504,3.504,0,0,0,3.49957,3.50079h2.4523a3.50471,3.50471,0,0,0,3.50082-3.50079v-2.68808a.8145.8145,0,0,0-.8136-.81271H281.8783v.24521h3.57532a.56835.56835,0,0,1,.56839.5675v2.68808a3.25933,3.25933,0,0,1-3.25562,3.25619Z" transform="translate(-114.8397 -122.1875)" style="fill:#fff"/><path d="M281.541,134.22989a.78351.78351,0,1,0,.78381.78351.78481.78481,0,0,0-.78381-.78351m0,1.3223a.5387.5387,0,1,1,.53912-.53879A.53959.53959,0,0,1,281.541,135.55219Z" transform="translate(-114.8397 -122.1875)" style="fill:#fff"/><rect x="166.57879" y="12.26721" width="0.2449" height="1.11649" style="fill:#fff"/><rect x="166.14291" y="12.70279" width="1.116" height="0.24551" style="fill:#fff"/><path d="M281.8783,130.24551h.40372a.17362.17362,0,0,1,.17288.174v.3793a.17372.17372,0,0,1-.17288.1741h-.40372v.2449h.40372a.41877.41877,0,0,0,.41809-.419v-.3793a.41868.41868,0,0,0-.41809-.41861h-.4057l.002.03741Zm-1.07721.72739a.17446.17446,0,0,1-.174-.1741v-.3793a.17436.17436,0,0,1,.174-.174h.40112v-.20721l.00229-.03741h-.40341a.41851.41851,0,0,0-.41858.41861v.3793a.4186.4186,0,0,0,.41858.419h.40112v-.2449Z" transform="translate(-114.8397 -122.1875)" style="fill:#fff"/><path d="M281.541,129.57791a.461.461,0,0,0-.46118.46039v3.08041a.4605.4605,0,0,0,.921,0V130.0383a.46061.46061,0,0,0-.45981-.46039m0,3.75677a.21667.21667,0,0,1-.21628-.216V130.0383a.21555.21555,0,0,1,.43109,0v3.08041A.216.216,0,0,1,281.541,133.33469Z" transform="translate(-114.8397 -122.1875)" style="fill:#fff"/><path d="M244.9001,156.9566v-9.8223a.90533.90533,0,0,0-.904-.9054H239.3858a4.59575,4.59575,0,0,0-4.591,4.5896v2.4523a4.59574,4.59574,0,0,0,4.591,4.59039h4.61029a.90479.90479,0,0,0,.904-.9046m-9.8606-6.13809a4.35094,4.35094,0,0,1,4.3463-4.34491h4.61029a.66136.66136,0,0,1,.65991.66071v9.8223a.66078.66078,0,0,1-.65991.66H239.3858a4.35138,4.35138,0,0,1-4.3463-4.34579Z" transform="translate(-114.8397 -122.1875)" style="fill:#fff"/><path d="M236.1297,150.81879a3.25877,3.25877,0,0,1,3.2561-3.25449h2.6881a.56785.56785,0,0,1,.5675.5672v3.57541h.24519V148.1315a.8141.8141,0,0,0-.8127-.81241h-2.6881a3.50408,3.50408,0,0,0-3.50081,3.49969V153.271a3.50462,3.50462,0,0,0,3.50081,3.50079h2.6881a.81445.81445,0,0,0,.8127-.81348V152.3829h-.24519v3.57541a.56822.56822,0,0,1-.5675.5683h-2.6881a3.25934,3.25934,0,0,1-3.2561-3.25562Z" transform="translate(-114.8397 -122.1875)" style="fill:#fff"/><path d="M239.7334,152.04559a.7835.7835,0,1,0-.78349.78381.7848.7848,0,0,0,.78349-.78381m-1.3224,0a.5387.5387,0,1,1,.53891.53921A.53973.53973,0,0,1,238.411,152.04559Z" transform="translate(-114.8397 -122.1875)" style="fill:#fff"/><rect x="123.5523" y="29.73569" width="1.11661" height="0.2449" style="fill:#fff"/><rect x="123.98769" y="29.29971" width="0.24551" height="1.116" style="fill:#fff"/><path d="M243.7177,152.3829v.40369a.17363.17363,0,0,1-.174.17291h-.3793a.17363.17363,0,0,1-.174-.17291v-.40369h-.245v.40369a.4187.4187,0,0,0,.419.41812h.3793a.41865.41865,0,0,0,.4187-.41812V152.381l-.03751.00189Zm-.72729-1.07712a.17445.17445,0,0,1,.174-.17407h.3793a.17445.17445,0,0,1,.174.17407v.40112h.2072l.03751.00229v-.40341a.41864.41864,0,0,0-.4187-.4187h-.3793a.41869.41869,0,0,0-.419.4187v.40112h.245Z" transform="translate(-114.8397 -122.1875)" style="fill:#fff"/><path d="M244.3853,152.04559a.46111.46111,0,0,0-.4604-.46118h-3.0804a.4605.4605,0,0,0,0,.921h3.0804a.46056.46056,0,0,0,.4604-.45981m-3.75681,0a.21678.21678,0,0,1,.216-.21631h3.0804a.21561.21561,0,0,1,0,.43121h-3.0804A.21609.21609,0,0,1,240.62849,152.04559Z" transform="translate(-114.8397 -122.1875)" style="fill:#fff"/><path d="M114.8397,174.37891V168.4404a1.352,1.352,0,0,1,.0269.269v5.40048a1.35445,1.35445,0,0,1-.0269.269" transform="translate(-114.8397 -122.1875)" style="fill:#fff"/><path d="M114.8397,149.79971v-5.93851a1.352,1.352,0,0,1,.0269.269v5.40051a1.35456,1.35456,0,0,1-.0269.269" transform="translate(-114.8397 -122.1875)" style="fill:#fff"/><path d="M229.468,143.06229a3.9169,3.9169,0,0,1-3.91161-3.91287V133.4841a.67721.67721,0,0,1,.4561-.63919,1.24119,1.24119,0,0,1-.20349-.205.946.946,0,0,0-.52161.84421v5.66531a4.18085,4.18085,0,1,0,8.36169,0V133.4841a.94541.94541,0,0,0-.521-.8436,1.24566,1.24566,0,0,1-.20329.20468.67608.67608,0,0,1,.45549.63892v5.66531a3.917,3.917,0,0,1-3.91229,3.91287" transform="translate(-114.8397 -122.1875)" style="fill:#fff"/><path d="M232.2717,134.56491h-5.6089a.20407.20407,0,0,0-.20129.2016v4.27069a3.0066,3.0066,0,1,0,6.0132,0v-4.27069a.20475.20475,0,0,0-.203-.2016m-5.5414.26819h5.47591v4.2041a2.738,2.738,0,0,1-5.47591,0Z" transform="translate(-114.8397 -122.1875)" style="fill:#fff"/><path d="M229.4677,137.29581a1.00815,1.00815,0,1,0,1.0088,1.008,1.01,1.01,0,0,0-1.0088-1.008m0,1.74759a.7394.7394,0,1,1,.73981-.73959A.7404.7404,0,0,1,229.4677,139.0434Z" transform="translate(-114.8397 -122.1875)" style="fill:#fff"/><rect x="227.71199" y="135.09859" width="0.26857" height="2.24217" transform="translate(-151.07713 41.0418) rotate(-36.71314)" style="fill:#fff"/><rect x="229.92408" y="136.08528" width="2.24304" height="0.2692" transform="translate(-131.28834 117.39835) rotate(-53.19061)" style="fill:#fff"/><path d="M232.1685,129.0632H226.768a1.355,1.355,0,0,0-1.3524,1.35379v1.4743a1.35345,1.35345,0,0,0,1.3524,1.35242h5.4005a1.35322,1.35322,0,0,0,1.3519-1.35242V130.417a1.35479,1.35479,0,0,0-1.3519-1.35379m-5.4005,3.91211a1.08552,1.08552,0,0,1-1.0843-1.084V130.417a1.08587,1.08587,0,0,1,1.0843-1.08508h5.4005a1.08593,1.08593,0,0,1,1.08369,1.08508v1.4743a1.08558,1.08558,0,0,1-1.08369,1.084Z" transform="translate(-114.8397 -122.1875)" style="fill:#fff"/><path d="M229.4677,130.46548a.68811.68811,0,1,0,.6882.68741.68809.68809,0,0,0-.6882-.68741m0,1.10721a.41925.41925,0,1,1,.41951-.4198A.41948.41948,0,0,1,229.4677,131.57269Z" transform="translate(-114.8397 -122.1875)" style="fill:#fff"/><path d="M267.17841,143.06229a3.9168,3.9168,0,0,1-3.9115-3.91287V133.4841a.67705.67705,0,0,1,.45609-.63919,1.2465,1.2465,0,0,1-.20358-.205.94584.94584,0,0,0-.52151.84421v5.66531a4.1808,4.1808,0,1,0,8.3616,0V133.4841a.94544.94544,0,0,0-.521-.8436,1.24158,1.24158,0,0,1-.20331.20468.67615.67615,0,0,1,.4556.63892v5.66531a3.91707,3.91707,0,0,1-3.91238,3.91287" transform="translate(-114.8397 -122.1875)" style="fill:#fff"/><path d="M269.98209,134.56491H264.3732a.204.204,0,0,0-.2012.2016v4.27069a3.00655,3.00655,0,1,0,6.01309,0v-4.27069a.20474.20474,0,0,0-.203-.2016m-5.54138.26819h5.476v4.2041a2.738,2.738,0,0,1-5.476,0Z" transform="translate(-114.8397 -122.1875)" style="fill:#fff"/><path d="M267.1781,137.29581a1.00815,1.00815,0,1,0,1.00891,1.008,1.01,1.01,0,0,0-1.00891-1.008m0,1.74759a.7394.7394,0,1,1,.7399-.73959A.74045.74045,0,0,1,267.1781,139.0434Z" transform="translate(-114.8397 -122.1875)" style="fill:#fff"/><rect x="265.42239" y="135.09857" width="0.26861" height="2.2422" transform="translate(-143.59516 63.59541) rotate(-36.71509)" style="fill:#fff"/><rect x="267.63449" y="136.0853" width="2.24307" height="0.26917" transform="translate(-116.17812 147.5788) rotate(-53.18811)" style="fill:#fff"/><path d="M269.879,129.0632h-5.4006A1.355,1.355,0,0,0,263.126,130.417v1.4743a1.35345,1.35345,0,0,0,1.35239,1.35242h5.4006a1.35313,1.35313,0,0,0,1.35181-1.35242V130.417a1.3547,1.3547,0,0,0-1.35181-1.35379m-5.4006,3.91211a1.08559,1.08559,0,0,1-1.08429-1.084V130.417a1.08593,1.08593,0,0,1,1.08429-1.08508h5.4006a1.0859,1.0859,0,0,1,1.08359,1.08508v1.4743a1.08556,1.08556,0,0,1-1.08359,1.084Z" transform="translate(-114.8397 -122.1875)" style="fill:#fff"/><path d="M267.1781,130.46548a.68811.68811,0,1,0,.68829.68741.68811.68811,0,0,0-.68829-.68741m0,1.10721a.41925.41925,0,1,1,.41949-.4198A.4195.4195,0,0,1,267.1781,131.57269Z" transform="translate(-114.8397 -122.1875)" style="fill:#fff"/><path d="M256.20432,157.8598H248.3649v11.3479h7.83942Zm-8.17082-.33081H256.536V169.5388h-8.50252Z" transform="translate(-114.8397 -122.1875)" style="fill:#fff"/><path d="M256.42889,160.25421a.60431.60431,0,0,1,.61252.5936V166.22a.604.604,0,0,1-.61252.59381V166.483a.26967.26967,0,0,0,.28091-.263v-5.37219a.26952.26952,0,0,0-.28091-.26282Z" transform="translate(-114.8397 -122.1875)" style="fill:#fff"/><path d="M253.80231,162.512h-2.7077l-.6216,1.59732a2.47422,2.47422,0,0,0,1.6747-.09183,4.15224,4.15224,0,0,1,1.24069-.24127,2.44769,2.44769,0,0,1,.9366.18829Zm-2.9342-.33078h3.1669l.89209,2.48-.39069-.22479a2.26669,2.26669,0,0,0-1.148-.32941,3.89168,3.89168,0,0,0-1.1438.22681,3.89665,3.89665,0,0,1-1.144.22821,2.01668,2.01668,0,0,1-.91251-.218l-.13579-.06738Z" transform="translate(-114.8397 -122.1875)" style="fill:#fff"/><path d="M114.8397,211.254V200.15981a2.18184,2.18184,0,0,1,.0269.34129v10.4113a2.18692,2.18692,0,0,1-.0269.3416" transform="translate(-114.8397 -122.1875)" style="fill:#fff"/><path d="M290.4863,131.21439v30.0849a2.161,2.161,0,0,0,2.16559,2.15152h10.41141a2.161,2.161,0,0,0,2.166-2.15152v-30.0849a2.1609,2.1609,0,0,0-2.166-2.15118H292.65189a2.16094,2.16094,0,0,0-2.16559,2.15118m14.51309,30.0849a1.93116,1.93116,0,0,1-1.9361,1.92191H292.65189a1.931,1.931,0,0,1-1.93549-1.92191v-30.0849a1.93146,1.93146,0,0,1,1.93549-1.92218h10.41141a1.93159,1.93159,0,0,1,1.9361,1.92218Z" transform="translate(-114.8397 -122.1875)" style="fill:#fff"/><path d="M303.7374,158.3136a2.577,2.577,0,0,1-2.58209,2.56531h-6.59482a2.57657,2.57657,0,0,1-2.58179-2.56531V134.20041a2.57709,2.57709,0,0,1,2.58179-2.56592h2.06192a.3967.3967,0,0,1-.142-.22818h-1.91992a2.80638,2.80638,0,0,0-2.8125,2.7941V158.3136a2.80666,2.80666,0,0,0,2.8125,2.7944h6.59482a2.80659,2.80659,0,0,0,2.81229-2.7944V134.20041a2.80631,2.80631,0,0,0-2.81229-2.7941h-1.9202a.396.396,0,0,1-.14142.22818h2.06162a2.57749,2.57749,0,0,1,2.58209,2.56592Z" transform="translate(-114.8397 -122.1875)" style="fill:#fff"/><path d="M302.4241,156.7662a1.26666,1.26666,0,0,1-1.2688,1.26111h-6.59482a1.26634,1.26634,0,0,1-1.26819-1.26111v-22.5658a1.2662,1.2662,0,0,1,1.26819-1.26141h2.84491v-.22879h-2.84491a1.49621,1.49621,0,0,0-1.499,1.4902v22.5658a1.4957,1.4957,0,0,0,1.499,1.48929h6.59482a1.49531,1.49531,0,0,0,1.499-1.48929v-22.5658a1.49582,1.49582,0,0,0-1.499-1.4902h-2.84509v.22879h2.84509a1.26653,1.26653,0,0,1,1.2688,1.26141Z" transform="translate(-114.8397 -122.1875)" style="fill:#fff"/><path d="M297.125,136.10559a.73336.73336,0,1,0,.73361-.73.73151.73151,0,0,0-.73361.73m1.23651,0a.50332.50332,0,1,1-.5029-.5004A.50186.50186,0,0,1,298.36151,136.10559Z" transform="translate(-114.8397 -122.1875)" style="fill:#fff"/><rect x="182.4956" y="13.80301" width="1.04572" height="0.22928" style="fill:#fff"/><rect x="182.9035" y="13.3988" width="0.2308" height="1.03769" style="fill:#fff"/><path d="M297.4054,131.60559h-.53751a.27986.27986,0,0,1-.2803-.27869v-.5051a.28028.28028,0,0,1,.2803-.27921h.53751v-.22879h-.53751a.51032.51032,0,0,0-.51108.508v.5051a.50962.50962,0,0,0,.51108.50739h.53751Zm1.722-.27869a.27987.27987,0,0,1-.28012.27869h-.53708v.2287h.53708a.50919.50919,0,0,0,.5108-.50739v-.5051a.50988.50988,0,0,0-.5108-.508h-.53708v.22879h.53708a.2803.2803,0,0,1,.28012.27921Z" transform="translate(-114.8397 -122.1875)" style="fill:#fff"/><path d="M297.29,130.3158v3.2012a.56765.56765,0,0,0,1.13528,0v-3.2012a.56765.56765,0,0,0-1.13528,0m.90509,3.2012a.33721.33721,0,0,1-.67441,0v-3.2012a.33721.33721,0,0,1,.67441,0Z" transform="translate(-114.8397 -122.1875)" style="fill:#fff"/><path d="M161.3177,140.8335H149.54849V129.06461H161.3177ZM149.798,140.584H161.0685V129.31351H149.798Z" transform="translate(-114.8397 -122.1875)" style="fill:#fff"/><path d="M155.4333,130.16269a3.91958,3.91958,0,0,0-.9817,7.7142.3.3,0,0,0-.0742.1976v.0405a4.16847,4.16847,0,1,1,2.11151.00031v-.0408a.2984.2984,0,0,0-.074-.1973,3.91975,3.91975,0,0,0-.9816-7.71451" transform="translate(-114.8397 -122.1875)" style="fill:#fff"/><path d="M155.4333,137.56339a3.48149,3.48149,0,1,1,3.4812-3.48178,3.48579,3.48579,0,0,1-3.4812,3.48178m0-6.71359a3.23195,3.23195,0,1,0,3.23169,3.23181A3.23549,3.23549,0,0,0,155.4333,130.84979Z" transform="translate(-114.8397 -122.1875)" style="fill:#fff"/><path d="M155.4333,134.98419a.9023.9023,0,1,1,.9025-.90259.90335.90335,0,0,1-.9025.90259m0-1.55569a.653.653,0,1,0,.65309.65311A.65424.65424,0,0,0,155.4333,133.4285Z" transform="translate(-114.8397 -122.1875)" style="fill:#fff"/><rect x="40.4688" y="11.23761" width="0.2495" height="1.3139" style="fill:#fff"/><rect x="39.93681" y="11.76971" width="1.31349" height="0.24969" style="fill:#fff"/><path d="M156.187,138.88831H154.6795a.42707.42707,0,0,1-.42661-.42661v-.38721a.42687.42687,0,0,1,.42661-.42661H156.187a.42681.42681,0,0,1,.42661.42661v.38721a.427.427,0,0,1-.42661.42661m-1.50749-.991a.17763.17763,0,0,0-.1774.17719v.38721a.17743.17743,0,0,0,.1774.17719H156.187a.17726.17726,0,0,0,.1772-.17719v-.38721a.17746.17746,0,0,0-.1772-.17719Z" transform="translate(-114.8397 -122.1875)" style="fill:#fff"/><path d="M155.2133,138.76361v.08649a.2197.2197,0,1,0,.43939,0v-.08649h.24971v.08649a.46941.46941,0,0,1-.93881,0v-.08649Zm.22-2.59a.22042.22042,0,0,0-.22.22049v1.37851h-.24971V136.3941a.46941.46941,0,1,1,.93881,0v1.37851h-.24971V136.3941A.22.22,0,0,0,155.4333,136.17361Z" transform="translate(-114.8397 -122.1875)" style="fill:#fff"/><path d="M132.65289,140.35211h7.1566a1.49608,1.49608,0,0,0,1.4942-1.49472v-8.29871a1.496,1.496,0,0,0-1.4942-1.49408h-7.1566a1.49558,1.49558,0,0,0-1.49409,1.49408v8.29871a1.49568,1.49568,0,0,0,1.49409,1.49472m7.1566-11.0545a1.26263,1.26263,0,0,1,1.2612,1.26108v8.29871a1.26277,1.26277,0,0,1-1.2612,1.26172h-7.1566a1.26307,1.26307,0,0,1-1.26169-1.26172v-8.29871a1.26293,1.26293,0,0,1,1.26169-1.26108Z" transform="translate(-114.8397 -122.1875)" style="fill:#fff"/><path d="M132.65289,139.5332h7.1566a.67618.67618,0,0,0,.67581-.67581V131.8468a.67637.67637,0,0,0-.67581-.67581h-7.1566a.67648.67648,0,0,0-.6763.67581v7.01059a.67628.67628,0,0,0,.6763.67581m7.1566-8.12921a.44332.44332,0,0,1,.4431.44281v7.01059a.4435.4435,0,0,1-.4431.44312h-7.1566a.44387.44387,0,0,1-.44389-.44312V131.8468a.44368.44368,0,0,1,.44389-.44281Z" transform="translate(-114.8397 -122.1875)" style="fill:#fff"/><path d="M139.10941,130.75229a.4742.4742,0,1,0-.4743-.47418.47507.47507,0,0,0,.4743.47418m0-.71539a.2412.2412,0,1,1-.2415.24121A.24192.24192,0,0,1,139.10941,130.0369Z" transform="translate(-114.8397 -122.1875)" style="fill:#fff"/><path d="M137.5087,130.75229a.4742.4742,0,1,0-.47479-.47418.475.475,0,0,0,.47479.47418m0-.71539a.2412.2412,0,1,1-.24179.24121A.2416.2416,0,0,1,137.5087,130.0369Z" transform="translate(-114.8397 -122.1875)" style="fill:#fff"/><rect x="21.99689" y="14.97061" width="2.71951" height="0.2327" style="fill:#fff"/><rect x="23.2401" y="13.72791" width="0.2328" height="2.71948" style="fill:#fff"/><path d="M138.1963,138.17151a.89691.89691,0,1,0-.89661-.89691.898.898,0,0,0,.89661.89691m0-1.5611a.66429.66429,0,1,1-.6638.66418A.66558.66558,0,0,1,138.1963,136.61041Z" transform="translate(-114.8397 -122.1875)" style="fill:#fff"/><rect x="21.99689" y="11.1257" width="2.71951" height="0.23239" style="fill:#fff"/><rect x="23.2401" y="9.88211" width="0.2328" height="2.7204" style="fill:#fff"/><path d="M138.1963,134.32709a.89714.89714,0,1,0-.89661-.8974.8986.8986,0,0,0,.89661.8974m0-1.56189a.66475.66475,0,1,1-.6638.66449A.66544.66544,0,0,1,138.1963,132.7652Z" transform="translate(-114.8397 -122.1875)" style="fill:#fff"/><rect x="18.06631" y="14.97061" width="2.7193" height="0.2327" style="fill:#fff"/><rect x="19.3091" y="13.72791" width="0.233" height="2.71948" style="fill:#fff"/><path d="M134.2653,138.17151a.89691.89691,0,1,0-.89691-.89691.89783.89783,0,0,0,.89691.89691m0-1.5611a.66429.66429,0,1,1-.66391.66418A.66607.66607,0,0,1,134.2653,136.61041Z" transform="translate(-114.8397 -122.1875)" style="fill:#fff"/><rect x="18.06631" y="11.1257" width="2.7193" height="0.23239" style="fill:#fff"/><rect x="19.3091" y="9.88211" width="0.233" height="2.7204" style="fill:#fff"/><path d="M134.2653,134.32709a.89714.89714,0,1,0-.89691-.8974.89845.89845,0,0,0,.89691.8974m0-1.56189a.66475.66475,0,1,1-.66391.66449A.66593.66593,0,0,1,134.2653,132.7652Z" transform="translate(-114.8397 -122.1875)" style="fill:#fff"/><path d="M134.79511,130.75229a.4742.4742,0,1,0-.47461-.47418.47482.47482,0,0,0,.47461.47418m0-.71539a.2412.2412,0,1,1-.24181.24121A.24167.24167,0,0,1,134.79511,130.0369Z" transform="translate(-114.8397 -122.1875)" style="fill:#fff"/><path d="M133.1935,130.75229a.4742.4742,0,1,0-.474-.47418.47463.47463,0,0,0,.474.47418m0-.71539a.2412.2412,0,1,1-.2415.24121A.24166.24166,0,0,1,133.1935,130.0369Z" transform="translate(-114.8397 -122.1875)" style="fill:#fff"/><path d="M114.8397,158.96579a1.58993,1.58993,0,0,1,.0717.4743,1.61043,1.61043,0,0,1-.0717.4762Z" transform="translate(-114.8397 -122.1875)" style="fill:#fff"/><path d="M250.2587,129.879a.80929.80929,0,1,0,.2347.57089.80976.80976,0,0,0-.2347-.57089m-.5726-1.03641a1.60726,1.60726,0,1,1-1.1364.47061A1.60274,1.60274,0,0,1,249.6861,128.84259Z" transform="translate(-114.8397 -122.1875)" style="fill:#fff"/><path d="M204.1387,126.09161a3.90785,3.90785,0,1,1-4.07-3.90411h.32491a3.908,3.908,0,0,1,3.7451,3.90411" transform="translate(-114.8397 -122.1875)" style="fill:#fff;fill-rule:evenodd"/><polygon points="85.391 6.308 85.77 4.993 86.148 3.678 85.391 3.678 84.635 3.678 85.013 4.993 85.391 6.308" style="fill:#fff;fill-rule:evenodd"/><rect x="85.1862" y="1.5" width="0.38411" height="2.2814" style="fill:#fff"/><path d="M221.66141,235.16541c-.732,0-1.236-.618-1.236-1.7399s.504-1.73991,1.236-1.73991,1.23589.6179,1.23589,1.73991-.504,1.7399-1.23589,1.7399m0,.396c.972,0,1.67979-.798,1.67979-2.13589s-.70779-2.13591-1.67979-2.13591-1.6739.7979-1.6739,2.13591S220.68941,235.5614,221.66141,235.5614Zm-5.2079-4.23581v1.1698h.42609v-.786h2.16l-1.728,3.816h.468l1.758-3.894v-.3058Zm-.74971,3.57591a.31408.31408,0,0,0-.3181.324.30312.30312,0,0,0,.216.3058l-.2041.87h.288l.252-.828a.97638.97638,0,0,0,.0842-.34781A.314.314,0,0,0,215.7038,234.9015Zm-.84619-.864h-.8399v-.972h-.4198v.972h-1.8241l2.1481-2.71191h-.48021L211.216,234.1095v.3118h2.36969v1.10411h.432V234.4213h.8399Zm-5.99381-2.71191v.3838h.9901v3.816h.432v-4.19981Z" transform="translate(-114.8397 -122.1875)" style="fill:#fff;fill-rule:evenodd"/><path d="M283.7738,235.16541c-.7319,0-1.2359-.618-1.2359-1.7399s.504-1.73991,1.2359-1.73991,1.2359.6179,1.2359,1.73991-.504,1.7399-1.2359,1.7399m0,.396c.972,0,1.67981-.798,1.67981-2.13589s-.70782-2.13591-1.67981-2.13591-1.6738.7979-1.6738,2.13591S282.80179,235.5614,283.7738,235.5614Zm-3.63-2.43581,1.188-1.4942v-.3058h-2.7v.3838h2.1481l-1.16391,1.4581v.3181h.2999c.77982,0,1.13382.32991,1.13382.83391,0,.5219-.38382.8459-1.08.8459a1.8411,1.8411,0,0,1-1.30191-.4859l-.21008.34189a2.18512,2.18512,0,0,0,1.512.54c1.014,0,1.5239-.54,1.5239-1.2419C281.49359,233.6474,281.04379,233.17349,280.1438,233.1256Zm-2.4299,1.77591a.314.314,0,0,0-.318.324.303.303,0,0,0,.216.3058l-.2041.87h.288l.252-.828a.97638.97638,0,0,0,.0842-.34781A.314.314,0,0,0,277.7139,234.9015Zm-2.622-1.8542h-.54l.144-1.33791h1.91992v-.3838H274.318l-.216,2.1058h.8941c1.06781,0,1.40372.33591,1.40372.8759,0,.51-.3779.85811-1.09192.85811a1.82149,1.82149,0,0,1-1.2901-.4859l-.20969.34189a2.16853,2.16853,0,0,0,1.50571.54c1.02618,0,1.5239-.55791,1.5239-1.2719C276.83771,233.54539,276.35779,233.0473,275.09189,233.0473Zm-3.528-1.72171v.3838h.99008v3.816h.432v-4.19981Z" transform="translate(-114.8397 -122.1875)" style="fill:#fff;fill-rule:evenodd"/><path d="M153.4411,155.5441c-.7319,0-1.2359-.61789-1.2359-1.7399s.504-1.7399,1.2359-1.7399,1.2359.618,1.2359,1.7399-.504,1.7399-1.2359,1.7399m0,.396c.972,0,1.67979-.79788,1.67979-2.13589s-.70779-2.13589-1.67979-2.13589-1.6739.798-1.6739,2.13589S152.4691,155.94009,153.4411,155.94009Zm-4.0981-4.23581v.38382h.9902v3.816h.432v-4.19983Zm-.61171,3.57593a.314.314,0,0,0-.318.324.30313.30313,0,0,0,.216.30591l-.2041.8699h.288l.252-.828a.97549.97549,0,0,0,.0842-.34781A.314.314,0,0,0,148.73129,155.28021Zm-2.622-1.85413h-.54l.144-1.338h1.91989v-.38382H145.3354l-.216,2.10593h.894c1.0679,0,1.40381.33588,1.40381.87589,0,.50992-.3779.858-1.0919.858a1.82179,1.82179,0,0,1-1.2901-.48581l-.20981.3418a2.16815,2.16815,0,0,0,1.50581.54c1.0262,0,1.5239-.5578,1.5239-1.27188C147.8551,153.9241,147.3752,153.42609,146.1093,153.42609Z" transform="translate(-114.8397 -122.1875)" style="fill:#fff;fill-rule:evenodd"/><path d="M157.227,244.5444c-.7319,0-1.2359-.618-1.2359-1.7399s.504-1.7399,1.2359-1.7399,1.2359.61789,1.2359,1.7399-.504,1.7399-1.2359,1.7399m0,.396c.972,0,1.67979-.798,1.67979-2.13589s-.70779-2.13591-1.67979-2.13591-1.6738.79791-1.6738,2.13591S156.255,244.9404,157.227,244.9404Zm-3.96591-2.5141h-.54l.144-1.33791H154.785v-.38379H152.4872l-.216,2.10579h.8941c1.06779,0,1.4037.33591,1.4037.8759,0,.51-.3779.85811-1.0919.85811a1.82146,1.82146,0,0,1-1.2901-.4859l-.2097.3419a2.16862,2.16862,0,0,0,1.50571.54c1.0262,0,1.5239-.55791,1.5239-1.2719C155.0069,242.92439,154.527,242.4263,153.26109,242.4263Zm-2.04579,1.8542a.314.314,0,0,0-.318.324.303.303,0,0,0,.216.3058l-.2041.87h.288l.252-.828a.97638.97638,0,0,0,.0842-.34781A.314.314,0,0,0,151.2153,244.2805Zm-2.34.2939c-.72591,0-1.11-.4379-1.11-.9a.97207.97207,0,0,1,1.08-.9178c.648,0,1.05589.35371,1.05589.90591A.91884.91884,0,0,1,148.87531,244.5744Zm.036-2.1841a1.34289,1.34289,0,0,0-1.2841.72c-.0119-.12581-.01779-.24571-.01779-.34181,0-1.14009.58189-1.72209,1.4879-1.72209a1.4707,1.4707,0,0,1,.8158.1982l.174-.3481a1.92708,1.92708,0,0,0-.9958-.22791c-1.14009,0-1.91989.7438-1.91989,2.17191,0,1.326.6058,2.0999,1.7218,2.0999a1.30851,1.30851,0,0,0,1.434-1.2901A1.2716,1.2716,0,0,0,148.9113,242.3903Zm-4.16411-1.6857v.38379h.9902v3.816h.432v-4.1998Z" transform="translate(-114.8397 -122.1875)" style="fill:#fff;fill-rule:evenodd"/><path d="M206.73981,148.794c-.7319,0-1.2359-.618-1.2359-1.7399s.504-1.7399,1.2359-1.7399,1.23589.61789,1.23589,1.7399-.504,1.7399-1.23589,1.7399m0,.396c.972,0,1.67979-.798,1.67979-2.13589s-.70779-2.13589-1.67979-2.13589-1.6739.79788-1.6739,2.13589S205.76781,149.19,206.73981,149.19Zm-2.07021-1.5239h-.8399v-.972h-.4198v.972h-1.8241l2.1481-2.71191h-.48021L201.028,147.7381v.3118h2.36971v1.1041h.432v-1.1041h.8399Zm-4.43361.864a.31409.31409,0,0,0-.3181.324.30325.30325,0,0,0,.216.30591l-.2041.8699h.288l.252-.828a.97619.97619,0,0,0,.0842-.34781A.314.314,0,0,0,200.236,148.53009Zm-2.28619-1.77588,1.188-1.4942v-.30582h-2.7v.38382h2.1481l-1.16391,1.4581v.31808h.2999c.7798,0,1.13391.32989,1.13391.83389,0,.52191-.3838.84592-1.08.84592a1.84131,1.84131,0,0,1-1.302-.4859l-.21.34189a2.18444,2.18444,0,0,0,1.512.54c1.0139,0,1.5239-.54,1.5239-1.24191C199.2997,147.276,198.84979,146.80209,197.9498,146.75421Z" transform="translate(-114.8397 -122.1875)" style="fill:#fff;fill-rule:evenodd"/><path d="M247.44949,187.7942c-.73189,0-1.2359-.618-1.2359-1.7399s.504-1.73991,1.2359-1.73991,1.2359.6179,1.2359,1.73991-.504,1.7399-1.2359,1.7399m0,.396c.972,0,1.6799-.798,1.6799-2.13589s-.7079-2.13591-1.6799-2.13591-1.6738.7979-1.6738,2.13591S246.47749,188.1902,247.44949,188.1902Zm-3.9659-2.5141h-.54l.144-1.33791h1.91991v-.38379H242.7097l-.216,2.10579h.8941c1.06779,0,1.4037.33591,1.4037.8759,0,.51-.3779.85811-1.0919.85811a1.82146,1.82146,0,0,1-1.2901-.4859l-.2097.34189a2.16853,2.16853,0,0,0,1.50571.54c1.0262,0,1.5239-.55791,1.5239-1.2719C245.2294,186.17419,244.7495,185.6761,243.4836,185.6761Zm-2.04579,1.8542a.314.314,0,0,0-.318.324.303.303,0,0,0,.216.3058l-.2041.87h.288l.252-.828a.97638.97638,0,0,0,.0842-.34781A.314.314,0,0,0,241.43781,187.5303Zm-2.2861-1.77591,1.188-1.4942v-.30579h-2.7v.38379h2.1481l-1.16389,1.4581v.3181h.2999c.7798,0,1.1338.32991,1.1338.83391,0,.5219-.3838.8459-1.08.8459a1.841,1.841,0,0,1-1.3019-.4859l-.2101.34189a2.18506,2.18506,0,0,0,1.512.54c1.014,0,1.5239-.54,1.5239-1.2419C240.5015,186.2762,240.0517,185.80229,239.1517,185.75439Z" transform="translate(-114.8397 -122.1875)" style="fill:#fff;fill-rule:evenodd"/><path d="M230.5233,154.31561c-.7319,0-1.2359-.61792-1.2359-1.7399s.504-1.73993,1.2359-1.73993,1.2359.618,1.2359,1.73993-.504,1.7399-1.2359,1.7399m0,.396c.972,0,1.67979-.79791,1.67979-2.13589s-.70779-2.13593-1.67979-2.13593-1.6739.798-1.6739,2.13593S229.5513,154.71161,230.5233,154.71161Zm-3.62379-.36591c-.726,0-1.11011-.438-1.11011-.9a.97214.97214,0,0,1,1.08-.91791c.648,0,1.056.35379,1.056.906A.919.919,0,0,1,226.89951,154.3457Zm.036-2.18411a1.34255,1.34255,0,0,0-1.2841.72c-.0119-.12588-.0179-.24579-.0179-.34189,0-1.14011.582-1.722,1.4879-1.722a1.47112,1.47112,0,0,1,.8159.19812l.174-.34811a1.92708,1.92708,0,0,0-.9958-.22791c-1.14009,0-1.91989.74381-1.91989,2.17191,0,1.32611.6058,2.09991,1.7218,2.09991a1.30855,1.30855,0,0,0,1.434-1.29A1.27166,1.27166,0,0,0,226.9355,152.16159Zm-2.6158,1.89011a.31413.31413,0,0,0-.3181.324.30327.30327,0,0,0,.216.30591l-.2041.8699h.288l.252-.828a.97563.97563,0,0,0,.0842-.34781A.314.314,0,0,0,224.3197,154.0517Zm-3.24.23981,1.4281-1.40372a1.729,1.729,0,0,0,.6899-1.31409c0-.7019-.54-1.13391-1.39209-1.13391a1.88734,1.88734,0,0,0-1.4879.59982l.30589.26419a1.42636,1.42636,0,0,1,1.146-.468c.64209,0,.98389.29993.98389.786,0,.28781-.0898.56979-.5638,1.03781l-1.74609,1.71021v.30579h2.946v-.38409Z" transform="translate(-114.8397 -122.1875)" style="fill:#fff;fill-rule:evenodd"/><path d="M277.35959,154.31561c-.7319,0-1.2359-.61792-1.2359-1.7399s.504-1.73993,1.2359-1.73993,1.2359.618,1.2359,1.73993-.504,1.7399-1.2359,1.7399m0,.396c.972,0,1.67981-.79791,1.67981-2.13589s-.70779-2.13593-1.67981-2.13593-1.67389.798-1.67389,2.13593S276.3876,154.71161,277.35959,154.71161Zm-3.966-2.514h-.54l.144-1.338h1.91992v-.38379h-2.2977l-.216,2.1059h.894c1.06781,0,1.40372.33591,1.40372.87592,0,.50989-.37781.858-1.09192.858a1.82131,1.82131,0,0,1-1.29-.48581l-.20981.3418a2.16825,2.16825,0,0,0,1.5058.54c1.02609,0,1.5239-.5578,1.5239-1.27191C275.1395,152.69559,274.65961,152.1976,273.39359,152.1976Zm-2.04568,1.8541a.31415.31415,0,0,0-.31812.324.30327.30327,0,0,0,.216.30591l-.2041.8699h.288l.252-.828a.9753.9753,0,0,0,.0842-.34781A.314.314,0,0,0,271.3479,154.0517Zm-2.6221-1.8541h-.54l.144-1.338h1.91989v-.38379H267.952l-.216,2.1059h.894c1.06781,0,1.40369.33591,1.40369.87592,0,.50989-.37778.858-1.09189.858a1.82139,1.82139,0,0,1-1.29-.48581l-.20981.3418a2.16833,2.16833,0,0,0,1.50583.54c1.02609,0,1.5239-.5578,1.5239-1.27191C270.47171,152.69559,269.99179,152.1976,268.7258,152.1976Z" transform="translate(-114.8397 -122.1875)" style="fill:#fff;fill-rule:evenodd"/><path d="M155.3391,286.1655c-.7319,0-1.2359-.618-1.2359-1.7399s.504-1.7399,1.2359-1.7399,1.236.6179,1.236,1.7399-.504,1.7399-1.236,1.7399m0,.396c.972,0,1.6799-.798,1.6799-2.13589s-.7079-2.13589-1.6799-2.13589-1.6738.7979-1.6738,2.13589S154.3671,286.56149,155.3391,286.56149Zm-4.5-.42009,1.4281-1.4037a1.72884,1.72884,0,0,0,.69-1.31421c0-.7018-.54-1.13379-1.39211-1.13379a1.88745,1.88745,0,0,0-1.4879.59979l.30591.26421a1.42584,1.42584,0,0,1,1.146-.468c.642,0,.9839.2999.9839.786,0,.2877-.0899.56981-.5638,1.03781l-1.74611,1.7101v.30589h2.946v-.38409Zm-1.55989-.23981a.314.314,0,0,0-.318.324.30313.30313,0,0,0,.216.3058l-.2041.87h.288l.252-.828a.97632.97632,0,0,0,.0842-.34779A.314.314,0,0,0,149.27921,285.9016Zm-2.2861-1.77589,1.188-1.4942v-.3058h-2.7v.3838h2.1481l-1.16389,1.4581v.3181h.2999c.7798,0,1.1339.3299,1.1339.83389,0,.52191-.3839.8459-1.08.8459a1.84111,1.84111,0,0,1-1.302-.4859l-.21.3419a2.185,2.185,0,0,0,1.512.54c1.01389,0,1.5239-.54,1.5239-1.2419C148.343,284.64751,147.8931,284.1736,146.9931,284.1257Z" transform="translate(-114.8397 -122.1875)" style="fill:#fff;fill-rule:evenodd"/><path d="M178.5509,136.34171v-2.5433H171.591v2.5433Zm0,4.33609v-2.54318H171.591v2.54318Zm-4.068,4.44171v-2.5433H171.591v2.5433Zm4.068,0v-2.5433H175.659v2.5433Zm-9.4632-18.5239H181.0706v20.9812H169.08771Z" transform="translate(-114.8397 -122.1875)" style="fill:#003915;fill-rule:evenodd"/><path d="M255.38541,140.5018v-2.54321h-6.9599v2.54321Zm0,4.33621v-2.5433h-6.9599v2.5433Zm-4.068,4.44159v-2.5433h-2.89189v2.5433Zm4.068,0v-2.5433H252.4935v2.5433Zm-6.9599-12.95972h6.9599v-2.484h-6.9599Zm-1.32011,14.09692h9.58141v-18.263h-9.58141Z" transform="translate(-114.8397 -122.1875)" style="fill:#003915;fill-rule:evenodd"/><path d="M208.24361,156.88721a.37405.37405,0,0,1-.64751-.37469l8.0399-13.92011a.374.374,0,1,1,.64749.37469Z" transform="translate(-114.8397 -122.1875)" style="fill:#003915"/><path d="M149.4391,269.01981a.37407.37407,0,0,0,.3748.64749l13.92009-8.0399a.37407.37407,0,0,0-.37479-.64749Z" transform="translate(-114.8397 -122.1875)" style="fill:#003915"/><path d="M225.22031,205.672a.37405.37405,0,1,0,.37469.64751l13.9201-8.04a.374.374,0,0,0-.3748-.6474Z" transform="translate(-114.8397 -122.1875)" style="fill:#003915"/><path d="M264.206,205.7758a.374.374,0,0,1-.37479.6474l-13.92011-8.0399a.374.374,0,1,1,.3748-.6474Z" transform="translate(-114.8397 -122.1875)" style="fill:#003915"/><path d="M276.8981,172.2334a.374.374,0,1,0-.37469-.6474l-13.92011,8.0399a.374.374,0,1,0,.37469.6474Z" transform="translate(-114.8397 -122.1875)" style="fill:#003915"/><rect x="100.6897" y="2.29199" width="2.60229" height="18.33032" style="fill:#003915"/><rect x="63.6287" y="24.2764" width="2.6022" height="25.59061" style="fill:#003915"/><rect x="130.1088" y="2.29199" width="2.6022" height="42.1019" style="fill:#003915"/><rect x="163.1625" y="48.9424" width="2.6022" height="26.8577" style="fill:#003915"/><rect x="64.26231" y="73.41901" width="2.60219" height="66.0761" style="fill:#003915"/><rect x="130.1088" y="73.41901" width="2.6022" height="104.4034" style="fill:#003915"/><rect x="100.6897" y="36.7894" width="2.60229" height="12.7531" style="fill:#003915"/><rect y="32.83221" width="1.355" height="2.60217" style="fill:#003915"/><rect y="0.58191" width="2.9583" height="2.6022" style="fill:#003915"/><rect x="100.6897" y="47.4502" width="45.10121" height="2.6022" style="fill:#003915"/><rect x="124.8063" y="73.41901" width="10.6515" height="2.60219" style="fill:#003915"/><rect x="64.6713" y="73.41901" width="42.7037" height="2.60219" style="fill:#003915"/><rect x="153.23101" y="73.41901" width="12.53369" height="2.60219" style="fill:#003915"/><rect x="161.9085" y="47.4502" width="31.81259" height="2.6022" style="fill:#003915"/><rect x="192.42822" y="38.73138" width="3.08917" height="2.6022" style="fill:#003915"/><rect x="192.42822" y="76.23489" width="3.08917" height="2.6022" style="fill:#003915"/><rect x="192.42822" y="79.4225" width="3.08917" height="2.6022" style="fill:#003915"/><rect x="164.76861" y="50.6378" width="28.95248" height="2.6022" style="fill:#003915"/><rect y="90.8197" width="1.355" height="2.6022" style="fill:#003915"/><rect y="94.005" width="1.355" height="2.60219" style="fill:#003915"/><rect width="5.002" height="160.7034" style="fill:#003915"/><rect x="190.5324" y="2.9823" width="4.98499" height="173.5203" style="fill:#003915"/><rect x="0.3765" width="76.1266" height="6.42551" style="fill:#003915"/><rect x="96.87861" width="98.63878" height="6.42551" style="fill:#003915"/><rect y="142.57021" width="34.8914" height="8.1601" style="fill:#003915"/><rect y="172.6622" width="7.3111" height="8.1601" style="fill:#003915"/><rect x="66.64541" y="172.6622" width="15.75549" height="8.1601" style="fill:#003915"/><rect x="111.1533" y="172.6622" width="34.8777" height="8.1601" style="fill:#003915"/><rect x="174.5816" y="172.6622" width="20.93579" height="8.1601" style="fill:#003915"/><rect x="64.55109" y="37.26819" width="8.16011" height="12.78421" style="fill:#003915"/><rect x="124.5509" y="37.26819" width="8.16011" height="12.78421" style="fill:#003915"/><rect x="124.5509" y="135.0703" width="8.16011" height="12.78419" style="fill:#003915"/><rect y="142.9024" width="8.1601" height="37.91989" style="fill:#003915"/><rect x="64.26231" y="135.70239" width="8.1601" height="45.1199" style="fill:#003915"/><rect x="96.11091" y="175.6632" width="0.50179" height="2.2986" style="fill:#003915"/><rect x="97.3097" y="175.6632" width="0.50121" height="2.2986" style="fill:#003915"/><rect x="109.94691" y="175.6632" width="0.50139" height="2.2986" style="fill:#003915"/><rect x="111.1453" y="175.6632" width="0.50121" height="2.2986" style="fill:#003915"/><rect x="81.9992" y="175.6632" width="0.5018" height="2.2986" style="fill:#003915"/><rect x="83.1977" y="175.6632" width="0.50121" height="2.2986" style="fill:#003915"/><rect x="79.6096" y="172.6613" width="34.0937" height="0.5015" style="fill:#003915"/><rect x="79.6096" y="175.5085" width="34.0937" height="0.5014" style="fill:#003915"/><rect x="79.6096" y="177.6798" width="34.0937" height="0.5014" style="fill:#003915"/><rect x="79.6096" y="180.3208" width="34.0937" height="0.5015" style="fill:#003915"/><rect x="159.71221" y="175.6632" width="0.50168" height="2.2986" style="fill:#003915"/><rect x="160.91091" y="175.6632" width="0.50119" height="2.2986" style="fill:#003915"/><rect x="173.54809" y="175.6632" width="0.5014" height="2.2986" style="fill:#003915"/><rect x="174.7466" y="175.6632" width="0.5011" height="2.2986" style="fill:#003915"/><rect x="145.60049" y="175.6632" width="0.50171" height="2.2986" style="fill:#003915"/><rect x="146.79891" y="175.6632" width="0.50119" height="2.2986" style="fill:#003915"/><rect x="143.2109" y="172.6613" width="34.09369" height="0.5015" style="fill:#003915"/><rect x="143.2109" y="175.5085" width="34.09369" height="0.5014" style="fill:#003915"/><rect x="143.2109" y="177.6798" width="34.09369" height="0.5014" style="fill:#003915"/><rect x="143.2109" y="180.3208" width="34.09369" height="0.5015" style="fill:#003915"/><path d="M169.7009,269.57V267.9001h-.6971V269.57Zm12.9897.50151H169.0038v2.3457h13.6868v.50139H168.5027v-8.16089h14.1879v.50139H169.0038v2.1396h13.6868v.5014H170.2023V269.57h12.4883Z" transform="translate(-114.8397 -122.1875)" style="fill:#003915;fill-rule:evenodd"/><rect x="17.0637" y="176.1936" width="0.4471" height="1.2971" style="fill:#003915"/><rect x="18.1318" y="176.1936" width="0.44681" height="1.2971" style="fill:#003915"/><rect x="35.66579" y="176.1936" width="0.44701" height="1.2971" style="fill:#003915"/><rect x="36.73389" y="176.1936" width="0.4467" height="1.2971" style="fill:#003915"/><rect x="54.2682" y="176.1936" width="0.44701" height="1.2971" style="fill:#003915"/><rect x="55.3363" y="176.1936" width="0.4467" height="1.2971" style="fill:#003915"/><rect x="72.8711" y="176.1936" width="0.44701" height="1.2971" style="fill:#003915"/><rect x="73.9392" y="176.1936" width="0.4467" height="1.2971" style="fill:#003915"/><rect y="174.9642" width="76.034" height="0.44669" style="fill:#003915"/><rect y="176.0555" width="76.034" height="0.4468" style="fill:#003915"/><rect y="177.1364" width="76.034" height="0.4467" style="fill:#003915"/><path d="M286.35651,129.0632h-9.82242a.90516.90516,0,0,0-.90527.9039v4.61029a4.59566,4.59566,0,0,0,4.58948,4.591h2.4523a4.59571,4.59571,0,0,0,4.59039-4.591V129.9671a.9046.9046,0,0,0-.90448-.9039m-6.13821,9.8606a4.35107,4.35107,0,0,1-4.34488-4.34641V129.9671a.66147.66147,0,0,1,.66068-.65991h9.82242a.66079.66079,0,0,1,.65988.65991v4.61029a4.35145,4.35145,0,0,1-4.34579,4.34641Z" transform="translate(-114.8397 -122.1875)" style="fill:#003915"/><path d="M280.2186,137.83359a3.2587,3.2587,0,0,1-3.25439-3.25619v-2.68808a.56784.56784,0,0,1,.5672-.5675h3.57529v-.24521H277.5314a.81406.81406,0,0,0-.81241.81271v2.68808a3.50406,3.50406,0,0,0,3.4996,3.50079h2.4523a3.50468,3.50468,0,0,0,3.50079-3.50079v-2.68808a.81448.81448,0,0,0-.8136-.81271h-3.57529v.24521h3.57529a.56836.56836,0,0,1,.56842.5675v2.68808a3.25941,3.25941,0,0,1-3.25562,3.25619Z" transform="translate(-114.8397 -122.1875)" style="fill:#003915"/><path d="M281.4454,134.22989a.78351.78351,0,1,0,.78378.78351.78474.78474,0,0,0-.78378-.78351m0,1.3223a.5387.5387,0,1,1,.53918-.53879A.5396.5396,0,0,1,281.4454,135.55219Z" transform="translate(-114.8397 -122.1875)" style="fill:#003915"/><rect x="166.4833" y="12.26721" width="0.2449" height="1.11649" style="fill:#003915"/><rect x="166.04729" y="12.70279" width="1.116" height="0.24551" style="fill:#003915"/><path d="M281.78281,130.24551h.40359a.17356.17356,0,0,1,.17291.174v.3793a.17367.17367,0,0,1-.17291.1741h-.40359v.2449h.40359a.41869.41869,0,0,0,.41809-.419v-.3793a.4186.4186,0,0,0-.41809-.41861h-.40561l.002.03741Zm-1.07721.72739a.17449.17449,0,0,1-.174-.1741v-.3793a.17438.17438,0,0,1,.174-.174h.40109v-.20721l.00232-.03741h-.40341a.41862.41862,0,0,0-.4187.41861v.3793a.4187.4187,0,0,0,.4187.419h.40109v-.2449Z" transform="translate(-114.8397 -122.1875)" style="fill:#003915"/><path d="M281.4454,129.57791a.461.461,0,0,0-.46109.46039v3.08041a.46045.46045,0,0,0,.9209,0V130.0383a.46055.46055,0,0,0-.45981-.46039m0,3.75677a.21667.21667,0,0,1-.21622-.216V130.0383a.21556.21556,0,0,1,.43112,0v3.08041A.21606.21606,0,0,1,281.4454,133.33469Z" transform="translate(-114.8397 -122.1875)" style="fill:#003915"/><path d="M244.8045,156.9566v-9.8223a.90524.90524,0,0,0-.9039-.9054H239.2903a4.59575,4.59575,0,0,0-4.591,4.5896v2.4523a4.59574,4.59574,0,0,0,4.591,4.59039h4.61031a.9047.9047,0,0,0,.9039-.9046m-9.86061-6.13809a4.351,4.351,0,0,1,4.34641-4.34491h4.61031a.66136.66136,0,0,1,.6599.66071v9.8223a.66077.66077,0,0,1-.6599.66H239.2903a4.35148,4.35148,0,0,1-4.34641-4.34579Z" transform="translate(-114.8397 -122.1875)" style="fill:#003915"/><path d="M236.0341,150.81879a3.25885,3.25885,0,0,1,3.2562-3.25449h2.6881a.56791.56791,0,0,1,.5675.5672v3.57541h.24521V148.1315a.81411.81411,0,0,0-.81271-.81241h-2.6881a3.50407,3.50407,0,0,0-3.50079,3.49969V153.271a3.50462,3.50462,0,0,0,3.50079,3.50079h2.6881a.81446.81446,0,0,0,.81271-.81348V152.3829h-.24521v3.57541a.56828.56828,0,0,1-.5675.5683h-2.6881a3.25942,3.25942,0,0,1-3.2562-3.25562Z" transform="translate(-114.8397 -122.1875)" style="fill:#003915"/><path d="M239.6378,152.04559a.7835.7835,0,1,0-.78351.78381.78482.78482,0,0,0,.78351-.78381m-1.3223,0a.5387.5387,0,1,1,.53879.53921A.53962.53962,0,0,1,238.31551,152.04559Z" transform="translate(-114.8397 -122.1875)" style="fill:#003915"/><rect x="123.45679" y="29.73569" width="1.1165" height="0.2449" style="fill:#003915"/><rect x="123.8922" y="29.29971" width="0.2455" height="1.116" style="fill:#003915"/><path d="M243.62219,152.3829v.40369a.17362.17362,0,0,1-.174.17291h-.3793a.17371.17371,0,0,1-.17409-.17291v-.40369h-.2449v.40369a.41871.41871,0,0,0,.419.41812h.3793a.41863.41863,0,0,0,.41861-.41812V152.381l-.0374.00189Zm-.72739-1.07712a.17453.17453,0,0,1,.17409-.17407h.3793a.17444.17444,0,0,1,.174.17407v.40112h.20721l.0374.00229v-.40341a.41862.41862,0,0,0-.41861-.4187h-.3793a.4187.4187,0,0,0-.419.4187v.40112h.2449Z" transform="translate(-114.8397 -122.1875)" style="fill:#003915"/><path d="M244.28979,152.04559a.46111.46111,0,0,0-.46039-.46118H240.749a.4605.4605,0,0,0,0,.921h3.08041a.46056.46056,0,0,0,.46039-.45981m-3.75679,0a.21676.21676,0,0,1,.216-.21631h3.08041a.21561.21561,0,0,1,0,.43121H240.749A.21608.21608,0,0,1,240.533,152.04559Z" transform="translate(-114.8397 -122.1875)" style="fill:#003915"/><path d="M229.37241,143.06229a3.91681,3.91681,0,0,1-3.9115-3.91287V133.4841a.67719.67719,0,0,1,.4561-.63919,1.24068,1.24068,0,0,1-.20351-.205.946.946,0,0,0-.52161.84421v5.66531a4.1808,4.1808,0,1,0,8.3616,0V133.4841a.94541.94541,0,0,0-.521-.8436,1.24093,1.24093,0,0,1-.2032.20468.67621.67621,0,0,1,.45551.63892v5.66531a3.917,3.917,0,0,1-3.9124,3.91287" transform="translate(-114.8397 -122.1875)" style="fill:#003915"/><path d="M232.17619,134.56491h-5.60889a.204.204,0,0,0-.20131.2016v4.27069a3.00655,3.00655,0,1,0,6.01311,0v-4.27069a.20467.20467,0,0,0-.20291-.2016m-5.54149.26819h5.476v4.2041a2.738,2.738,0,0,1-5.476,0Z" transform="translate(-114.8397 -122.1875)" style="fill:#003915"/><path d="M229.37219,137.29581a1.00815,1.00815,0,1,0,1.0088,1.008,1.01,1.01,0,0,0-1.0088-1.008m0,1.74759a.7394.7394,0,1,1,.73981-.73959A.74039.74039,0,0,1,229.37219,139.0434Z" transform="translate(-114.8397 -122.1875)" style="fill:#003915"/><rect x="227.61644" y="135.09859" width="0.26857" height="2.24217" transform="translate(-151.09059 41.03844) rotate(-36.72481)" style="fill:#003915"/><rect x="229.82853" y="136.08531" width="2.24304" height="0.26913" transform="translate(-131.32664 117.32185) rotate(-53.19061)" style="fill:#003915"/><path d="M232.073,129.0632h-5.4006A1.355,1.355,0,0,0,225.32,130.417v1.4743a1.35345,1.35345,0,0,0,1.35239,1.35242h5.4006a1.35322,1.35322,0,0,0,1.3519-1.35242V130.417a1.35479,1.35479,0,0,0-1.3519-1.35379m-5.4006,3.91211a1.0855,1.0855,0,0,1-1.0842-1.084V130.417a1.08585,1.08585,0,0,1,1.0842-1.08508h5.4006a1.08593,1.08593,0,0,1,1.08369,1.08508v1.4743a1.08558,1.08558,0,0,1-1.08369,1.084Z" transform="translate(-114.8397 -122.1875)" style="fill:#003915"/><path d="M229.37219,130.46548a.68811.68811,0,1,0,.6882.68741.6881.6881,0,0,0-.6882-.68741m0,1.10721a.41925.41925,0,1,1,.41951-.4198A.41942.41942,0,0,1,229.37219,131.57269Z" transform="translate(-114.8397 -122.1875)" style="fill:#003915"/><path d="M267.08289,143.06229a3.9169,3.9169,0,0,1-3.91159-3.91287V133.4841a.6772.6772,0,0,1,.45612-.63919,1.24136,1.24136,0,0,1-.20352-.205.946.946,0,0,0-.52158.84421v5.66531a4.18085,4.18085,0,1,0,8.36169,0V133.4841a.94544.94544,0,0,0-.521-.8436,1.24516,1.24516,0,0,1-.20331.20468.67607.67607,0,0,1,.45551.63892v5.66531a3.917,3.917,0,0,1-3.91232,3.91287" transform="translate(-114.8397 -122.1875)" style="fill:#003915"/><path d="M269.8866,134.56491h-5.60889a.20409.20409,0,0,0-.20132.2016v4.27069a3.00661,3.00661,0,1,0,6.01321,0v-4.27069a.20476.20476,0,0,0-.203-.2016m-5.54138.26819h5.47589v4.2041a2.73795,2.73795,0,0,1-5.47589,0Z" transform="translate(-114.8397 -122.1875)" style="fill:#003915"/><path d="M267.08261,137.29581a1.00815,1.00815,0,1,0,1.00879,1.008,1.01,1.01,0,0,0-1.00879-1.008m0,1.74759a.7394.7394,0,1,1,.73978-.73959A.7404.7404,0,0,1,267.08261,139.0434Z" transform="translate(-114.8397 -122.1875)" style="fill:#003915"/><rect x="265.32688" y="135.09858" width="0.26858" height="2.24218" transform="translate(-143.61746 63.51834) rotate(-36.7112)" style="fill:#003915"/><rect x="267.53899" y="136.08528" width="2.24303" height="0.2692" transform="translate(-116.21059 147.51409) rotate(-53.19061)" style="fill:#003915"/><path d="M269.78339,129.0632H264.3829a1.355,1.355,0,0,0-1.35242,1.35379v1.4743a1.35346,1.35346,0,0,0,1.35242,1.35242h5.40048a1.35323,1.35323,0,0,0,1.35193-1.35242V130.417a1.3548,1.3548,0,0,0-1.35193-1.35379m-5.40048,3.91211a1.08551,1.08551,0,0,1-1.08429-1.084V130.417a1.08586,1.08586,0,0,1,1.08429-1.08508h5.40048a1.08593,1.08593,0,0,1,1.08371,1.08508v1.4743a1.08558,1.08558,0,0,1-1.08371,1.084Z" transform="translate(-114.8397 -122.1875)" style="fill:#003915"/><path d="M267.08261,130.46548a.68811.68811,0,1,0,.6882.68741.68811.68811,0,0,0-.6882-.68741m0,1.10721a.41925.41925,0,1,1,.41949-.4198A.41948.41948,0,0,1,267.08261,131.57269Z" transform="translate(-114.8397 -122.1875)" style="fill:#003915"/><path d="M256.1088,157.8598H248.2693v11.3479h7.83949ZM247.938,157.529h8.50249V169.5388H247.938Z" transform="translate(-114.8397 -122.1875)" style="fill:#003915"/><path d="M256.33331,160.25421a.60438.60438,0,0,1,.61258.5936V166.22a.604.604,0,0,1-.61258.59381V166.483a.26966.26966,0,0,0,.28088-.263v-5.37219a.26952.26952,0,0,0-.28088-.26282Z" transform="translate(-114.8397 -122.1875)" style="fill:#003915"/><path d="M253.7067,162.512h-2.7076l-.6217,1.59732a2.47451,2.47451,0,0,0,1.6748-.09183,4.15233,4.15233,0,0,1,1.24069-.24127,2.44725,2.44725,0,0,1,.93651.18829Zm-2.9341-.33078h3.1669l.892,2.48-.39059-.22479a2.2669,2.2669,0,0,0-1.148-.32941,3.8904,3.8904,0,0,0-1.1438.22681,3.89656,3.89656,0,0,1-1.14409.22821,2.01587,2.01587,0,0,1-.9124-.218l-.1358-.06738Z" transform="translate(-114.8397 -122.1875)" style="fill:#003915"/><path d="M290.39069,131.21439v30.0849a2.1611,2.1611,0,0,0,2.16571,2.15152H302.9678a2.16088,2.16088,0,0,0,2.16589-2.15152v-30.0849a2.16081,2.16081,0,0,0-2.16589-2.15118H292.5564a2.161,2.161,0,0,0-2.16571,2.15118m14.51312,30.0849a1.93108,1.93108,0,0,1-1.936,1.92191H292.5564a1.931,1.931,0,0,1-1.93549-1.92191v-30.0849a1.9314,1.9314,0,0,1,1.93549-1.92218H302.9678a1.93151,1.93151,0,0,1,1.936,1.92218Z" transform="translate(-114.8397 -122.1875)" style="fill:#003915"/><path d="M303.64191,158.3136a2.577,2.577,0,0,1-2.58209,2.56531H294.465a2.57651,2.57651,0,0,1-2.58179-2.56531V134.20041a2.577,2.577,0,0,1,2.58179-2.56592h2.06189a.39639.39639,0,0,1-.142-.22818H294.465a2.80638,2.80638,0,0,0-2.81259,2.7941V158.3136a2.80666,2.80666,0,0,0,2.81259,2.7944h6.59482a2.80659,2.80659,0,0,0,2.81219-2.7944V134.20041a2.80631,2.80631,0,0,0-2.81219-2.7941h-1.92023a.39548.39548,0,0,1-.14148.22818h2.06171a2.57755,2.57755,0,0,1,2.58209,2.56592Z" transform="translate(-114.8397 -122.1875)" style="fill:#003915"/><path d="M302.32861,156.7662a1.26666,1.26666,0,0,1-1.2688,1.26111H294.465a1.26634,1.26634,0,0,1-1.26819-1.26111v-22.5658A1.2662,1.2662,0,0,1,294.465,132.939h2.84482v-.22879H294.465a1.49621,1.49621,0,0,0-1.499,1.4902v22.5658a1.4957,1.4957,0,0,0,1.499,1.48929h6.59482a1.49529,1.49529,0,0,0,1.49887-1.48929v-22.5658a1.49579,1.49579,0,0,0-1.49887-1.4902H298.2146v.22879h2.84521a1.26653,1.26653,0,0,1,1.2688,1.26141Z" transform="translate(-114.8397 -122.1875)" style="fill:#003915"/><path d="M297.02951,136.10559a.7333.7333,0,1,0,.73358-.73.73151.73151,0,0,0-.73358.73m1.23648,0a.5033.5033,0,1,1-.5029-.5004A.5019.5019,0,0,1,298.266,136.10559Z" transform="translate(-114.8397 -122.1875)" style="fill:#003915"/><rect x="182.40011" y="13.80301" width="1.04568" height="0.22928" style="fill:#003915"/><rect x="182.80801" y="13.3988" width="0.2308" height="1.03769" style="fill:#003915"/><path d="M297.30981,131.60559h-.53741a.27991.27991,0,0,1-.2804-.27869v-.5051a.28034.28034,0,0,1,.2804-.27921h.53741v-.22879h-.53741a.51034.51034,0,0,0-.51111.508v.5051a.50965.50965,0,0,0,.51111.50739h.53741Zm1.72208-.27869a.27985.27985,0,0,1-.28009.27869h-.5372v.2287h.5372a.50919.50919,0,0,0,.5108-.50739v-.5051a.50988.50988,0,0,0-.5108-.508h-.5372v.22879h.5372a.28027.28027,0,0,1,.28009.27921Z" transform="translate(-114.8397 -122.1875)" style="fill:#003915"/><path d="M297.19449,130.3158v3.2012a.56762.56762,0,0,0,1.13522,0v-3.2012a.56762.56762,0,0,0-1.13522,0m.90512,3.2012a.33721.33721,0,0,1-.67441,0v-3.2012a.33721.33721,0,0,1,.67441,0Z" transform="translate(-114.8397 -122.1875)" style="fill:#003915"/><path d="M161.2222,140.8335H149.453V129.06461h11.7692Zm-11.5197-.24951H160.973V129.31351H149.7025Z" transform="translate(-114.8397 -122.1875)" style="fill:#003915"/><path d="M155.33771,130.16269a3.91958,3.91958,0,0,0-.98161,7.7142.30012.30012,0,0,0-.0743.1976v.0405a4.16842,4.16842,0,1,1,2.1116.00031v-.0408a.2984.2984,0,0,0-.074-.1973,3.91975,3.91975,0,0,0-.98169-7.71451" transform="translate(-114.8397 -122.1875)" style="fill:#003915"/><path d="M155.33771,137.56339a3.48149,3.48149,0,1,1,3.48129-3.48178,3.48576,3.48576,0,0,1-3.48129,3.48178m0-6.71359a3.23195,3.23195,0,1,0,3.2318,3.23181A3.23547,3.23547,0,0,0,155.33771,130.84979Z" transform="translate(-114.8397 -122.1875)" style="fill:#003915"/><path d="M155.33771,134.98419a.9023.9023,0,1,1,.90259-.90259.90332.90332,0,0,1-.90259.90259m0-1.55569a.653.653,0,1,0,.65309.65311A.65426.65426,0,0,0,155.33771,133.4285Z" transform="translate(-114.8397 -122.1875)" style="fill:#003915"/><rect x="40.3733" y="11.23761" width="0.2495" height="1.3139" style="fill:#003915"/><rect x="39.84119" y="11.76971" width="1.31361" height="0.24969" style="fill:#003915"/><path d="M156.09151,138.88831H154.584a.427.427,0,0,1-.42661-.42661v-.38721a.42681.42681,0,0,1,.42661-.42661h1.50751a.42686.42686,0,0,1,.42659.42661v.38721a.42706.42706,0,0,1-.42659.42661m-1.50751-.991a.17763.17763,0,0,0-.1774.17719v.38721a.17744.17744,0,0,0,.1774.17719h1.50751a.17718.17718,0,0,0,.17709-.17719v-.38721a.17737.17737,0,0,0-.17709-.17719Z" transform="translate(-114.8397 -122.1875)" style="fill:#003915"/><path d="M155.1178,138.76361v.08649a.21965.21965,0,1,0,.4393,0v-.08649h.2498v.08649a.46945.46945,0,0,1-.9389,0v-.08649Zm.21991-2.59a.2204.2204,0,0,0-.21991.22049v1.37851h-.2498V136.3941a.46945.46945,0,1,1,.9389,0v1.37851h-.2498V136.3941A.2199.2199,0,0,0,155.33771,136.17361Z" transform="translate(-114.8397 -122.1875)" style="fill:#003915"/><path d="M132.5574,140.35211h7.1566a1.49609,1.49609,0,0,0,1.4942-1.49472v-8.29871a1.496,1.496,0,0,0-1.4942-1.49408h-7.1566a1.49566,1.49566,0,0,0-1.4942,1.49408v8.29871a1.49576,1.49576,0,0,0,1.4942,1.49472m7.1566-11.0545a1.26255,1.26255,0,0,1,1.26109,1.26108v8.29871a1.26269,1.26269,0,0,1-1.26109,1.26172h-7.1566a1.26307,1.26307,0,0,1-1.2617-1.26172v-8.29871a1.26294,1.26294,0,0,1,1.2617-1.26108Z" transform="translate(-114.8397 -122.1875)" style="fill:#003915"/><path d="M132.5574,139.5332h7.1566a.67616.67616,0,0,0,.6758-.67581V131.8468a.67636.67636,0,0,0-.6758-.67581h-7.1566a.67656.67656,0,0,0-.67641.67581v7.01059a.67636.67636,0,0,0,.67641.67581m7.1566-8.12921a.44333.44333,0,0,1,.4431.44281v7.01059a.44351.44351,0,0,1-.4431.44312h-7.1566a.44388.44388,0,0,1-.44391-.44312V131.8468a.4437.4437,0,0,1,.44391-.44281Z" transform="translate(-114.8397 -122.1875)" style="fill:#003915"/><path d="M139.0139,130.75229a.4742.4742,0,1,0-.4743-.47418.47507.47507,0,0,0,.4743.47418m0-.71539a.2412.2412,0,1,1-.24161.24121A.24194.24194,0,0,1,139.0139,130.0369Z" transform="translate(-114.8397 -122.1875)" style="fill:#003915"/><path d="M137.4131,130.75229a.4742.4742,0,1,0-.47481-.47418.475.475,0,0,0,.47481.47418m0-.71539a.2412.2412,0,1,1-.24181.24121A.24163.24163,0,0,1,137.4131,130.0369Z" transform="translate(-114.8397 -122.1875)" style="fill:#003915"/><rect x="21.9013" y="14.97061" width="2.7196" height="0.2327" style="fill:#003915"/><rect x="23.1446" y="13.72791" width="0.2327" height="2.71948" style="fill:#003915"/><path d="M138.1008,138.17151a.89691.89691,0,1,0-.89661-.89691.898.898,0,0,0,.89661.89691m0-1.5611a.66429.66429,0,1,1-.66389.66418A.66556.66556,0,0,1,138.1008,136.61041Z" transform="translate(-114.8397 -122.1875)" style="fill:#003915"/><rect x="21.9013" y="11.1257" width="2.7196" height="0.23239" style="fill:#003915"/><rect x="23.1446" y="9.88211" width="0.2327" height="2.7204" style="fill:#003915"/><path d="M138.1008,134.32709a.89714.89714,0,1,0-.89661-.8974.89866.89866,0,0,0,.89661.8974m0-1.56189a.66475.66475,0,1,1-.66389.66449A.66542.66542,0,0,1,138.1008,132.7652Z" transform="translate(-114.8397 -122.1875)" style="fill:#003915"/><rect x="17.9708" y="14.97061" width="2.7193" height="0.2327" style="fill:#003915"/><rect x="19.21351" y="13.72791" width="0.23299" height="2.71948" style="fill:#003915"/><path d="M134.16969,138.17151a.89691.89691,0,1,0-.89679-.89691.89784.89784,0,0,0,.89679.89691m0-1.5611a.66429.66429,0,1,1-.66379.66418A.666.666,0,0,1,134.16969,136.61041Z" transform="translate(-114.8397 -122.1875)" style="fill:#003915"/><rect x="17.9708" y="11.1257" width="2.7193" height="0.23239" style="fill:#003915"/><rect x="19.21351" y="9.88211" width="0.23299" height="2.7204" style="fill:#003915"/><path d="M134.16969,134.32709a.89714.89714,0,1,0-.89679-.8974.89845.89845,0,0,0,.89679.8974m0-1.56189a.66475.66475,0,1,1-.66379.66449A.66588.66588,0,0,1,134.16969,132.7652Z" transform="translate(-114.8397 -122.1875)" style="fill:#003915"/><path d="M134.69949,130.75229a.4742.4742,0,1,0-.47449-.47418.47476.47476,0,0,0,.47449.47418m0-.71539a.2412.2412,0,1,1-.24179.24121A.24161.24161,0,0,1,134.69949,130.0369Z" transform="translate(-114.8397 -122.1875)" style="fill:#003915"/><path d="M133.098,130.75229a.4742.4742,0,1,0-.474-.47418.47462.47462,0,0,0,.474.47418m0-.71539a.2412.2412,0,1,1-.24161.24121A.24166.24166,0,0,1,133.098,130.0369Z" transform="translate(-114.8397 -122.1875)" style="fill:#003915"/><path d="M250.3774,129.87839a.809.809,0,1,0,.2348.57092.80986.80986,0,0,0-.2348-.57092m-.57249-1.03629a1.60687,1.60687,0,1,1-1.13651.47049A1.60251,1.60251,0,0,1,249.8049,128.8421Z" transform="translate(-114.8397 -122.1875)" style="fill:#003915"/><path d="M221.5658,235.16541c-.7319,0-1.2359-.618-1.2359-1.7399s.504-1.73991,1.2359-1.73991,1.2359.6179,1.2359,1.73991-.504,1.7399-1.2359,1.7399m0,.396c.972,0,1.67981-.798,1.67981-2.13589s-.70781-2.13591-1.67981-2.13591-1.6738.7979-1.6738,2.13591S220.5938,235.5614,221.5658,235.5614Zm-5.20779-4.23581v1.1698h.4261v-.786h2.16l-1.728,3.816h.468l1.758-3.894v-.3058Zm-.74969,3.57591a.31407.31407,0,0,0-.3181.324.30311.30311,0,0,0,.216.3058l-.2041.87h.288l.252-.828a.97605.97605,0,0,0,.0842-.34781A.314.314,0,0,0,215.60831,234.9015Zm-.84621-.864h-.8399v-.972h-.4198v.972h-1.8241l2.1481-2.71191h-.48019l-2.2258,2.78391v.3118h2.3698v1.10411h.432V234.4213h.8399Zm-5.9938-2.71191v.3838h.99011v3.816h.432v-4.19981Z" transform="translate(-114.8397 -122.1875)" style="fill:#6e6e6e;fill-rule:evenodd"/><path d="M283.67831,235.16541c-.7319,0-1.2359-.618-1.2359-1.7399s.504-1.73991,1.2359-1.73991,1.2359.6179,1.2359,1.73991-.504,1.7399-1.2359,1.7399m0,.396c.972,0,1.67978-.798,1.67978-2.13589s-.70779-2.13591-1.67978-2.13591-1.67392.7979-1.67392,2.13591S282.7063,235.5614,283.67831,235.5614Zm-3.63-2.43581,1.188-1.4942v-.3058h-2.7v.3838h2.148l-1.16391,1.4581v.3181h.29993c.77988,0,1.13388.32991,1.13388.83391,0,.5219-.38379.8459-1.08.8459a1.8411,1.8411,0,0,1-1.30191-.4859l-.21008.34189a2.18484,2.18484,0,0,0,1.512.54c1.014,0,1.5239-.54,1.5239-1.2419C281.3981,233.6474,280.9483,233.17349,280.04831,233.1256Zm-2.4299,1.77591a.31408.31408,0,0,0-.31812.324.30312.30312,0,0,0,.216.3058l-.204.87h.288l.252-.828a.97784.97784,0,0,0,.08411-.34781A.314.314,0,0,0,277.61841,234.9015Zm-2.6221-1.8542h-.54l.144-1.33791h1.92v-.3838H274.2225l-.216,2.1058h.894c1.06778,0,1.40378.33591,1.40378.8759,0,.51-.3779.85811-1.092.85811a1.821,1.821,0,0,1-1.29-.4859l-.20981.34189a2.1686,2.1686,0,0,0,1.5058.54c1.02609,0,1.5239-.55791,1.5239-1.2719C276.74219,233.54539,276.2623,233.0473,274.99631,233.0473Zm-3.528-1.72171v.3838h.9902v3.816h.432v-4.19981Z" transform="translate(-114.8397 -122.1875)" style="fill:#6e6e6e;fill-rule:evenodd"/><path d="M152.66209,155.29529c-.73189,0-1.2359-.618-1.2359-1.7399s.504-1.7399,1.2359-1.7399,1.2359.61792,1.2359,1.7399-.504,1.7399-1.2359,1.7399m0,.396c.972,0,1.67981-.798,1.67981-2.13589s-.70781-2.13589-1.67981-2.13589-1.6738.79791-1.6738,2.13589S151.69009,155.69128,152.66209,155.69128Zm-4.098-4.23578v.38379h.9901v3.816h.432v-4.1998Zm-.6118,3.5759a.314.314,0,0,0-.318.324.3031.3031,0,0,0,.216.30579l-.2041.87h.288l.252-.828a.97592.97592,0,0,0,.0842-.34778A.314.314,0,0,0,147.9523,155.0314Zm-2.622-1.85422h-.54l.144-1.33789h1.91991v-.38379H144.5564l-.216,2.1058h.8941c1.06781,0,1.4037.33588,1.4037.87588,0,.51-.3779.85809-1.0919.85809a1.821,1.821,0,0,1-1.29-.4859l-.20981.34192a2.1687,2.1687,0,0,0,1.50581.54c1.02609,0,1.5239-.55789,1.5239-1.27188C147.0762,153.67529,146.5963,153.17719,145.33031,153.17719Z" transform="translate(-114.8397 -122.1875)" style="fill:#6e6e6e;fill-rule:evenodd"/><path d="M156.4481,236.0455c-.7319,0-1.2359-.6179-1.2359-1.7399s.504-1.7399,1.2359-1.7399,1.2359.618,1.2359,1.7399-.504,1.7399-1.2359,1.7399m0,.396c.972,0,1.67979-.7979,1.67979-2.13589s-.70779-2.13591-1.67979-2.13591-1.6739.798-1.6739,2.13591S155.4761,236.4415,156.4481,236.4415Zm-3.966-2.514h-.54l.144-1.338H154.006v-.38379h-2.2977l-.216,2.1059h.894c1.06779,0,1.40369.33591,1.40369.8759,0,.5099-.37779.858-1.09189.858a1.82139,1.82139,0,0,1-1.29-.48581l-.20979.34181a2.16815,2.16815,0,0,0,1.5058.54c1.02609,0,1.5239-.5578,1.5239-1.2719C154.228,234.42551,153.74809,233.92751,152.4821,233.92751Zm-2.04581,1.8541a.31406.31406,0,0,0-.318.324.30323.30323,0,0,0,.216.30589l-.2041.8699h.288l.252-.828a.97556.97556,0,0,0,.0842-.34779A.314.314,0,0,0,150.43629,235.7816Zm-2.34.294c-.72589,0-1.11-.438-1.11-.9a.97213.97213,0,0,1,1.08-.91789c.648,0,1.05589.35379,1.05589.906A.91889.91889,0,0,1,148.0963,236.07559Zm.036-2.1841a1.34249,1.34249,0,0,0-1.284.72c-.012-.1259-.0179-.2458-.0179-.3419,0-1.14009.58189-1.722,1.4879-1.722a1.47064,1.47064,0,0,1,.8158.1981l.1741-.3481a1.92833,1.92833,0,0,0-.9959-.22791c-1.14,0-1.91991.7438-1.91991,2.17191,0,1.3261.6058,2.0999,1.7218,2.0999a1.30858,1.30858,0,0,0,1.4341-1.29A1.27171,1.27171,0,0,0,148.13229,233.89149Zm-4.164-1.68579v.38379h.9901v3.816h.432v-4.1998Z" transform="translate(-114.8397 -122.1875)" style="fill:#6e6e6e;fill-rule:evenodd"/><path d="M206.6443,147.54529c-.732,0-1.236-.61789-1.236-1.7399s.504-1.7399,1.236-1.7399,1.2359.618,1.2359,1.7399-.504,1.7399-1.2359,1.7399m0,.396c.972,0,1.67979-.79788,1.67979-2.13589s-.70779-2.13589-1.67979-2.13589-1.6739.798-1.6739,2.13589S205.6723,147.94128,206.6443,147.94128Zm-2.07021-1.5239h-.83989v-.972h-.4198v.972H201.4903l2.1481-2.71188h-.48019l-2.2258,2.78391v.3118h2.3698v1.1041h.432v-1.1041h.83989Zm-4.4337.864a.31406.31406,0,0,0-.318.324.30319.30319,0,0,0,.216.30588l-.2041.8699h.288l.252-.828a.9755.9755,0,0,0,.0842-.34778A.314.314,0,0,0,200.1404,147.2814Zm-2.2861-1.77591,1.188-1.49408v-.30591h-2.7v.38379h2.1481l-1.16389,1.45819v.318h.2999c.7798,0,1.1339.33,1.1339.834,0,.52182-.3839.84579-1.08.84579a1.84162,1.84162,0,0,1-1.302-.48578l-.21.3418a2.1845,2.1845,0,0,0,1.512.54c1.0139,0,1.5239-.54,1.5239-1.24179C199.20419,146.0274,198.7543,145.55341,197.85429,145.50549Z" transform="translate(-114.8397 -122.1875)" style="fill:#6e6e6e;fill-rule:evenodd"/><path d="M242.6057,185.2955c-.7319,0-1.2359-.618-1.2359-1.74s.504-1.7399,1.2359-1.7399,1.2359.618,1.2359,1.7399-.504,1.74-1.2359,1.74m0,.396c.972,0,1.67981-.798,1.67981-2.136s-.70781-2.13589-1.67981-2.13589-1.6739.798-1.6739,2.13589S241.6337,185.6915,242.6057,185.6915Zm-3.966-2.5141h-.54l.144-1.33791h1.92v-.3839h-2.29779l-.216,2.1059h.894c1.06779,0,1.40379.33591,1.40379.8759,0,.51-.3779.85811-1.092.85811a1.821,1.821,0,0,1-1.29-.4859l-.20981.3419a2.16869,2.16869,0,0,0,1.5058.54c1.02611,0,1.52391-.55789,1.52391-1.272C240.3856,183.67551,239.9057,183.1774,238.63969,183.1774Zm-2.0457,1.8541a.31415.31415,0,0,0-.3181.324.30314.30314,0,0,0,.216.30589l-.2041.87h.288l.252-.828a.97685.97685,0,0,0,.0842-.3479A.314.314,0,0,0,236.594,185.03149Zm-2.28619-1.77589,1.188-1.49409v-.30591h-2.7v.3839h2.14809l-1.16389,1.4581v.318h.2999c.7798,0,1.13391.33,1.13391.834,0,.5219-.3838.8459-1.08.8459a1.84131,1.84131,0,0,1-1.302-.4859l-.21.3419a2.185,2.185,0,0,0,1.512.54c1.0139,0,1.5239-.54,1.5239-1.2419C235.6577,183.7775,235.20779,183.3035,234.3078,183.2556Z" transform="translate(-114.8397 -122.1875)" style="fill:#6e6e6e;fill-rule:evenodd"/><path d="M230.4278,154.31561c-.73189,0-1.2359-.61792-1.2359-1.7399s.504-1.73993,1.2359-1.73993,1.2359.618,1.2359,1.73993-.504,1.7399-1.2359,1.7399m0,.396c.972,0,1.67981-.79791,1.67981-2.13589s-.70781-2.13593-1.67981-2.13593-1.67389.798-1.67389,2.13593S229.4558,154.71161,230.4278,154.71161Zm-3.62379-.36591c-.726,0-1.11011-.438-1.11011-.9a.97214.97214,0,0,1,1.08-.91791c.648,0,1.05591.35379,1.05591.906A.91886.91886,0,0,1,226.804,154.3457Zm.036-2.18411a1.34255,1.34255,0,0,0-1.2841.72c-.01189-.12588-.0179-.24579-.0179-.34189,0-1.14011.582-1.722,1.4879-1.722a1.47057,1.47057,0,0,1,.81581.19812l.17409-.34811a1.92725,1.92725,0,0,0-.99579-.22791c-1.14011,0-1.91991.74381-1.91991,2.17191,0,1.32611.6057,2.09991,1.72169,2.09991a1.30859,1.30859,0,0,0,1.43411-1.29A1.27167,1.27167,0,0,0,226.84,152.16159Zm-2.6158,1.89011a.31414.31414,0,0,0-.3181.324.30327.30327,0,0,0,.216.30591l-.2041.8699h.288l.252-.828a.97572.97572,0,0,0,.08421-.34781A.314.314,0,0,0,224.2242,154.0517Zm-3.24.23981,1.42809-1.40372a1.72893,1.72893,0,0,0,.68991-1.31409c0-.7019-.54-1.13391-1.39211-1.13391a1.88736,1.88736,0,0,0-1.4879.59982l.30591.26419a1.42631,1.42631,0,0,1,1.146-.468c.64209,0,.9839.29993.9839.786,0,.28781-.0898.56979-.56381,1.03781l-1.74609,1.71021v.30579h2.946v-.38409Z" transform="translate(-114.8397 -122.1875)" style="fill:#6e6e6e;fill-rule:evenodd"/><path d="M277.31229,154.31561c-.732,0-1.236-.61792-1.236-1.7399s.504-1.73993,1.236-1.73993,1.2359.618,1.2359,1.73993-.504,1.7399-1.2359,1.7399m0,.396c.972,0,1.67981-.79791,1.67981-2.13589s-.70779-2.13593-1.67981-2.13593-1.67389.798-1.67389,2.13593S276.3403,154.71161,277.31229,154.71161Zm-3.6301-2.43582,1.188-1.49408v-.30591h-2.7v.38379h2.1481l-1.16391,1.45822v.318h.29993c.77979,0,1.13388.33,1.13388.834,0,.52182-.38388.84583-1.08.84583a1.84142,1.84142,0,0,1-1.302-.48581l-.21.3418a2.18462,2.18462,0,0,0,1.512.54c1.01389,0,1.5239-.54,1.5239-1.24182C275.0321,152.7977,274.58221,152.3237,273.68219,152.27579Zm-2.4299,1.77591a.31406.31406,0,0,0-.318.324.30327.30327,0,0,0,.216.30591l-.2041.8699h.288l.252-.828a.976.976,0,0,0,.0842-.34781A.31405.31405,0,0,0,271.25229,154.0517Zm-2.622-1.8541h-.54l.144-1.338h1.91989v-.38379h-2.29779l-.216,2.1059h.89407c1.06781,0,1.40372.33591,1.40372.87592,0,.50989-.3779.858-1.09189.858a1.82133,1.82133,0,0,1-1.29-.48581l-.20981.3418a2.16825,2.16825,0,0,0,1.5058.54c1.02609,0,1.5239-.5578,1.5239-1.27191C270.37619,152.69559,269.8963,152.1976,268.63031,152.1976Z" transform="translate(-114.8397 -122.1875)" style="fill:#6e6e6e;fill-rule:evenodd"/><path d="M155.24361,286.1655c-.7319,0-1.2359-.618-1.2359-1.7399s.504-1.7399,1.2359-1.7399,1.2359.6179,1.2359,1.7399-.504,1.7399-1.2359,1.7399m0,.396c.972,0,1.67979-.798,1.67979-2.13589s-.70779-2.13589-1.67979-2.13589-1.67381.7979-1.67381,2.13589S154.27161,286.56149,155.24361,286.56149Zm-4.5-.42009,1.4281-1.4037a1.72917,1.72917,0,0,0,.69-1.31421c0-.7018-.54-1.13379-1.39209-1.13379a1.88727,1.88727,0,0,0-1.4879.59979l.3058.26421a1.42618,1.42618,0,0,1,1.14609-.468c.642,0,.9839.2999.9839.786,0,.2877-.08989.56981-.5638,1.03781l-1.7462,1.7101v.30589h2.94611v-.38409Zm-1.55991-.23981a.314.314,0,0,0-.318.324.303.303,0,0,0,.216.3058l-.2041.87h.288l.252-.828a.976.976,0,0,0,.0842-.34779A.314.314,0,0,0,149.1837,285.9016Zm-2.2861-1.77589,1.188-1.4942v-.3058h-2.7v.3838h2.1481l-1.16391,1.4581v.3181h.2999c.7798,0,1.1338.3299,1.1338.83389,0,.52191-.3838.8459-1.08.8459a1.841,1.841,0,0,1-1.3019-.4859l-.2101.3419a2.18515,2.18515,0,0,0,1.512.54c1.014,0,1.52391-.54,1.52391-1.2419C148.24741,284.64751,147.79761,284.1736,146.8976,284.1257Z" transform="translate(-114.8397 -122.1875)" style="fill:#6e6e6e;fill-rule:evenodd"/><path d="M204.0432,126.09161a3.90785,3.90785,0,1,1-4.07-3.90411h.3248a3.908,3.908,0,0,1,3.74519,3.90411" transform="translate(-114.8397 -122.1875)" style="fill:#558e42;fill-rule:evenodd"/><polygon points="85.296 6.308 85.674 4.993 86.052 3.678 85.296 3.678 84.539 3.678 84.917 4.993 85.296 6.308" style="fill:#fdfdfd;fill-rule:evenodd"/><rect x="85.09071" y="1.5" width="0.38409" height="2.2814" style="fill:#fdfdfd"/><path d="M278.7287,292.4921c-.434,0-.68939-.1891-.68939-.4935,0-.301.2554-.4901.68939-.4901s.69312.1891.69312.4901c0,.3044-.25912.4935-.69312.4935m-.6055-1.624c0-.2729.2348-.441.6055-.441.36771,0,.60919.16811.60919.44441,0,.26619-.2276.4377-.60919.4377C278.3475,291.3092,278.1232,291.1377,278.1232,290.8681Zm1.07809.53209a.55492.55492,0,0,0,.392-.53909c0-.3989-.34641-.64751-.86459-.64751-.51791,0-.85751.24861-.85751.64751a.55307.55307,0,0,0,.38531.53909.61092.61092,0,0,0-.4726.60181c0,.434.3569.7036.94479.7036.5845,0,.95221-.26959.95221-.7036A.61689.61689,0,0,0,279.20129,291.40019Zm-2.70538,1.0919c-.434,0-.68942-.1891-.68942-.4935,0-.301.2554-.4901.68942-.4901s.693.1891.693.4901C277.1889,292.303,276.9299,292.4921,276.49591,292.4921Zm-.6055-1.624c0-.2729.23468-.441.6055-.441.36758,0,.6091.16811.6091.44441,0,.26619-.2276.4377-.6091.4377C276.11459,291.3092,275.89041,291.1377,275.89041,290.8681Zm1.078.53209a.555.555,0,0,0,.392-.53909c0-.3989-.34641-.64751-.8645-.64751-.51791,0-.85751.24861-.85751.64751a.553.553,0,0,0,.38519.53909.611.611,0,0,0-.4725.60181c0,.434.3569.7036.94482.7036.5845,0,.95209-.26959.95209-.7036A.61689.61689,0,0,0,276.96841,291.40019Zm-1.98791.92041a.18317.18317,0,0,0-.18539.1891.1767.1767,0,0,0,.12579.1783l-.119.50769H274.97l.14709-.48309a.57265.57265,0,0,0,.049-.2029A.1832.1832,0,0,0,274.9805,292.3206Zm-1.8902.14.8331-.81891a1.00775,1.00775,0,0,0,.40259-.76649c0-.40959-.315-.66161-.81219-.66161a1.10107,1.10107,0,0,0-.86789.35011l.1785.1539a.83219.83219,0,0,1,.66849-.273c.37442,0,.574.17491.574.4584,0,.16811-.05249.3325-.32889.6055l-1.0184.9975v.1786h1.71829v-.224Z" transform="translate(-114.8397 -122.1875)" style="fill:#434242"/><path d="M215.28909,292.4745c-.4269,0-.72119-.3605-.72119-1.0148,0-.6545.2943-1.01511.72119-1.01511s.72081.36061.72081,1.01511c0,.6543-.2939,1.0148-.72081,1.0148m0,.23109c.56691,0,.9799-.4655.9799-1.2459,0-.78061-.413-1.24611-.9799-1.24611s-.97659.4655-.97659,1.24611C214.3125,292.2401,214.72211,292.7056,215.28909,292.7056ZM212.972,291.4875c-.37781,0-.61591-.2063-.61591-.5284a.53628.53628,0,0,1,.5986-.532c.42351,0,.64751.25571.64751.5249A.5671.5671,0,0,1,212.972,291.4875Zm-.02769-1.27391a.76328.76328,0,0,0-.83661.75261.74169.74169,0,0,0,.82611.7348.78274.78274,0,0,0,.74889-.4198c.00711.07339.01051.1434.01051.19949,0,.665-.3396,1.0043-.868,1.0043a.85882.85882,0,0,1-.47589-.1153l-.1015.2029a1.124,1.124,0,0,0,.5808.133c.665,0,1.12-.434,1.12-1.26711C213.94859,290.66521,213.59509,290.21359,212.94431,290.21359Zm-1.31281,2.107a.18316.18316,0,0,0-.18539.1891.17677.17677,0,0,0,.1259.1783l-.11911.50769h.16811l.1472-.48309a.57528.57528,0,0,0,.049-.2029A.18321.18321,0,0,0,211.6315,292.3206Zm-1.89011.14.8331-.81891a1.00761,1.00761,0,0,0,.40251-.76649c0-.40959-.31491-.66161-.8121-.66161a1.10129,1.10129,0,0,0-.868.35011l.17859.1539a.832.832,0,0,1,.66841-.273c.3745,0,.574.17491.574.4584,0,.16811-.0524.3325-.3288.6055l-1.01849.9975v.1786h1.7184v-.224Z" transform="translate(-114.8397 -122.1875)" style="fill:#434242"/><path d="M152.1201,294.58611l.8331-.819a1.00762,1.00762,0,0,0,.4025-.76651c0-.40959-.3149-.66159-.8121-.66159a1.10106,1.10106,0,0,0-.86789.3501l.1785.1539a.83237.83237,0,0,1,.6684-.2729c.3745,0,.5741.1749.5741.4583,0,.16811-.05249.3325-.32889.6055l-1.0184.9975v.1786h1.71829v-.22389Zm-1.6273.03139c-.434,0-.68939-.189-.68939-.4935,0-.301.2554-.4901.68939-.4901s.693.1891.693.4901C151.18581,294.4285,150.9267,294.61749,150.4928,294.61749Zm-.6055-1.62389c0-.273.2347-.4411.6055-.4411.3676,0,.6091.16809.6091.44449,0,.2661-.2276.43761-.6091.43761C150.1115,293.4346,149.8873,293.26309,149.8873,292.99361Zm1.078.532a.55487.55487,0,0,0,.392-.53911c0-.3989-.34641-.64749-.8645-.64749-.5179,0-.8575.2486-.8575.64749a.55289.55289,0,0,0,.38519.53911.611.611,0,0,0-.47249.60179c0,.434.3569.7036.94479.7036.5845,0,.9521-.26959.9521-.7036A.61694.61694,0,0,0,150.9653,293.5256Zm-1.9879.92039a.18317.18317,0,0,0-.18539.1891.17668.17668,0,0,0,.12579.1783l-.119.50771h.16811l.14709-.483a.57378.57378,0,0,0,.049-.203A.18318.18318,0,0,0,148.9774,294.446Zm-1.8902.14011.8331-.819a1.00762,1.00762,0,0,0,.4025-.76651c0-.40959-.3149-.66159-.8121-.66159a1.10145,1.10145,0,0,0-.868.3501l.1786.1539a.83237.83237,0,0,1,.6684-.2729c.3745,0,.574.1749.574.4583,0,.16811-.0524.3325-.32881.6055l-1.01849.9975v.1786h1.7184v-.22389Z" transform="translate(-114.8397 -122.1875)" style="fill:#434242"/><path d="M278.104,167.5545c-.434,0-.68939-.189-.68939-.4935,0-.301.2554-.49011.68939-.49011s.693.18912.693.49011c0,.3045-.259.4935-.693.4935m-.6055-1.6239c0-.273.23468-.4411.6055-.4411.36758,0,.6091.16809.6091.44449,0,.26611-.2276.43762-.6091.43762C277.72269,166.37161,277.4985,166.2001,277.4985,165.9306Zm1.078.532a.55477.55477,0,0,0,.392-.53909c0-.3989-.34641-.64749-.8645-.64749-.51791,0-.85751.2486-.85751.64749a.55277.55277,0,0,0,.38522.53909.611.611,0,0,0-.4725.60181c0,.434.3569.70361.94479.70361.5845,0,.95209-.26959.95209-.70361A.617.617,0,0,0,278.57651,166.46259Zm-2.70541,1.09192c-.434,0-.68939-.189-.68939-.4935,0-.301.2554-.49011.68939-.49011s.69312.18912.69312.49011C276.56421,167.36551,276.30511,167.5545,275.87109,167.5545Zm-.6055-1.6239c0-.273.23471-.4411.6055-.4411.36771,0,.60919.16809.60919.44449,0,.26611-.2276.43762-.60919.43762C275.4899,166.37161,275.26559,166.2001,275.26559,165.9306Zm1.07809.532a.55474.55474,0,0,0,.392-.53909c0-.3989-.34637-.64749-.86459-.64749-.51788,0-.85748.2486-.85748.64749a.55286.55286,0,0,0,.38528.53909.611.611,0,0,0-.4726.60181c0,.434.3569.70361.94479.70361.5845,0,.95221-.26959.95221-.70361A.617.617,0,0,0,276.34369,166.46259Zm-1.988.92041a.18319.18319,0,0,0-.18542.18912.17678.17678,0,0,0,.12592.17828l-.11911.50769h.16812l.14709-.483a.57464.57464,0,0,0,.0491-.203A.18322.18322,0,0,0,274.35571,167.383Zm-1.89011.14011.8331-.819a1.00758,1.00758,0,0,0,.4025-.76639c0-.40973-.31491-.66171-.8121-.66171a1.10133,1.10133,0,0,0-.868.3501l.17862.1539a.83221.83221,0,0,1,.6684-.27289c.37451,0,.574.1749.574.45828,0,.16812-.0524.33252-.3288.6055l-1.01852.9975v.17862h1.71841v-.22391Z" transform="translate(-114.8397 -122.1875)" style="fill:#434242"/><path d="M231.7901,145.9744c-.4269,0-.7211-.3606-.7211-1.0148,0-.65451.2942-1.01511.7211-1.01511s.7209.3606.7209,1.01511c0,.65421-.294,1.0148-.7209,1.0148m0,.231c.56689,0,.9799-.46542.9799-1.24582,0-.7807-.413-1.24609-.9799-1.24609s-.9765.46539-.9765,1.24609C230.8136,145.74,231.22321,146.20541,231.7901,146.20541Zm-1.20731-.88892h-.4901v-.567h-.2449v.567h-1.06409l1.2529-1.58209h-.2798l-1.29851,1.624v.182h1.3824v.644h.252v-.644h.4901Zm-2.58659.504a.18314.18314,0,0,0-.18539.189.17669.17669,0,0,0,.1259.17831l-.11911.50769h.16811l.1472-.483a.57559.57559,0,0,0,.049-.203A.18318.18318,0,0,0,227.9962,145.8205Zm-1.6064-2.08609v.224h.57739v2.226h.252v-2.45Z" transform="translate(-114.8397 -122.1875)" style="fill:#434242"/><path d="M200.2411,136.21069l.8331-.81891a1.00768,1.00768,0,0,0,.4025-.76648c0-.40961-.3149-.66159-.8121-.66159a1.101,1.101,0,0,0-.868.3501l.1786.1539a.83193.83193,0,0,1,.6684-.273c.3744,0,.574.1749.574.4584,0,.16809-.0524.33249-.32881.6055l-1.01849.9975v.17859h1.7184v-.224Zm-2.4568-2.226v.68259h.2486v-.45871h1.26l-1.008,2.2261h.273l1.02519-2.27139v-.17859Zm-.43741,2.086a.18317.18317,0,0,0-.18539.18909.17678.17678,0,0,0,.1259.17831l-.11909.50769h.16809l.14711-.48309a.574.574,0,0,0,.04909-.20291A.1832.1832,0,0,0,197.34689,136.07071Zm-1.6064-2.086v.22388h.57741v2.2261h.252v-2.45Z" transform="translate(-114.8397 -122.1875)" style="fill:#434242"/><path d="M150.84,144.56671h-.4901v-.56692h-.2449v.56692h-1.0641l1.2529-1.582H150.014l-1.29861,1.6239v.182h1.38251v.6441h.252v-.6441h.4901Zm-2.3134,0h-.4901v-.56692h-.2449v.56692h-1.0641l1.2529-1.582h-.27979l-1.29851,1.6239v.182h1.3824v.6441h.252v-.6441h.4901Zm-2.58659.504a.18318.18318,0,0,0-.18541.18909.17678.17678,0,0,0,.1259.17831l-.11909.50769h.16811l.1472-.48309a.57577.57577,0,0,0,.049-.20291A.1832.1832,0,0,0,145.94,145.07071Zm-1.89011.14.8331-.81891a1.00771,1.00771,0,0,0,.40251-.76648c0-.40961-.31491-.66159-.8121-.66159a1.101,1.101,0,0,0-.868.3501l.1786.1539a.832.832,0,0,1,.6684-.273c.37451,0,.574.1749.574.4584,0,.16809-.0524.33249-.3288.6055l-1.01851.9975v.17859h1.71841v-.224Z" transform="translate(-114.8397 -122.1875)" style="fill:#434242"/><path d="M149.7742,260.7424c-.42351,0-.64771-.2554-.64771-.525a.56724.56724,0,0,1,.63011-.53549c.3779,0,.616.20641.616.5284a.53613.53613,0,0,1-.5984.5321m.0209-1.2739a.78337.78337,0,0,0-.7491.4198c-.00691-.07341-.0105-.1434-.0105-.1996,0-.6647.3396-1.0043.86789-1.0043a.861.861,0,0,1,.4763.1154l.10139-.203a1.12545,1.12545,0,0,0-.5811-.1329c-.665,0-1.11989.434-1.11989,1.26711,0,.7733.35339,1.22479,1.00459,1.22479a.76333.76333,0,0,0,.8365-.75259A.74177.74177,0,0,0,149.79511,259.46851Zm-2.3555.26929c-.3779,0-.616-.20639-.616-.5284a.53639.53639,0,0,1,.59871-.5321c.42349,0,.6474.25571.6474.525A.56706.56706,0,0,1,147.43961,259.73779Zm-.0278-1.2739a.76317.76317,0,0,0-.8365.75261.74153.74153,0,0,0,.826.7347.78262.78262,0,0,0,.7489-.4198c.0071.07339.0105.14349.0105.1996,0,.665-.3396,1.0043-.868,1.0043a.85884.85884,0,0,1-.47589-.1154l-.1015.203a1.124,1.124,0,0,0,.5808.13289c.665,0,1.12-.434,1.12-1.26709C148.41611,258.9155,148.06261,258.4639,147.4118,258.4639Zm-1.3127,2.107a.18318.18318,0,0,0-.18541.1891.17675.17675,0,0,0,.12581.1783l-.119.5076h.16809l.14711-.483a.57339.57339,0,0,0,.049-.20291A.18319.18319,0,0,0,146.09911,260.57089Zm-1.89021.14.83311-.81891a1.0078,1.0078,0,0,0,.4025-.76649c0-.40961-.31491-.66161-.8121-.66161a1.10113,1.10113,0,0,0-.868.3501l.17859.1539a.83219.83219,0,0,1,.66841-.273c.3745,0,.574.1749.574.4584,0,.16809-.0524.33249-.3288.6055l-1.01849.9975v.1786h1.7184v-.224Z" transform="translate(-114.8397 -122.1875)" style="fill:#434242"/><line x1="156.69189" y1="169.3371" x2="132.5597" y2="169.3371" style="fill:none;stroke:#b1b2b2;stroke-miterlimit:22.92558479309082;stroke-width:0.2160000056028366px"/><line x1="93.3168" y1="169.3371" x2="72.271" y2="169.3371" style="fill:none;stroke:#b1b2b2;stroke-miterlimit:22.92558479309082;stroke-width:0.2160000056028366px"/><line x1="30.56631" y1="171.4626" x2="8.0087" y2="171.4626" style="fill:none;stroke:#b1b2b2;stroke-miterlimit:22.92558479309082;stroke-width:0.2160000056028366px"/><line x1="156.0671" y1="44.3996" x2="132.94691" y2="44.3996" style="fill:none;stroke:#b1b2b2;stroke-miterlimit:22.92558479309082;stroke-width:0.2160000056028366px"/><line x1="110.12971" y1="22.83701" x2="103.3812" y2="22.83701" style="fill:none;stroke:#b1b2b2;stroke-miterlimit:22.92558479309082;stroke-width:0.2160000056028366px"/><line x1="79.19151" y1="13.08719" x2="66.0796" y2="13.08719" style="fill:none;stroke:#b1b2b2;stroke-miterlimit:22.92558479309082;stroke-width:0.2160000056028366px"/><line x1="27.6917" y1="22.08719" x2="4.8507" y2="22.08719" style="fill:none;stroke:#b1b2b2;stroke-miterlimit:22.92558479309082;stroke-width:0.2160000056028366px"/><line x1="27.6917" y1="137.5874" x2="4.8507" y2="137.5874" style="fill:none;stroke:#b1b2b2;stroke-miterlimit:22.92558479309082;stroke-width:0.2160000056028366px"/><line x1="190.3811" y1="169.3371" x2="166.13091" y2="169.3371" style="fill:none;stroke:#b1b2b2;stroke-miterlimit:22.92558479309082;stroke-width:0.2160000056028366px"/><line x1="129.9575" y1="169.3371" x2="102.7559" y2="169.3371" style="fill:none;stroke:#b1b2b2;stroke-miterlimit:22.92558479309082;stroke-width:0.2160000056028366px"/><line x1="64.11091" y1="171.4626" x2="40.00539" y2="171.4626" style="fill:none;stroke:#b1b2b2;stroke-miterlimit:22.92558479309082;stroke-width:0.2160000056028366px"/><line x1="190.3811" y1="44.3996" x2="165.50619" y2="44.3996" style="fill:none;stroke:#b1b2b2;stroke-miterlimit:22.92558479309082;stroke-width:0.2160000056028366px"/><line x1="129.9575" y1="22.83701" x2="119.56879" y2="22.83701" style="fill:none;stroke:#b1b2b2;stroke-miterlimit:22.92558479309082;stroke-width:0.2160000056028366px"/><line x1="100.5384" y1="13.08719" x2="88.63061" y2="13.08719" style="fill:none;stroke:#b1b2b2;stroke-miterlimit:22.92558479309082;stroke-width:0.2160000056028366px"/><line x1="54.0967" y1="22.08719" x2="37.13081" y2="22.08719" style="fill:none;stroke:#b1b2b2;stroke-miterlimit:22.92558479309082;stroke-width:0.2160000056028366px"/><line x1="64.11091" y1="137.5874" x2="37.13081" y2="137.5874" style="fill:none;stroke:#b1b2b2;stroke-miterlimit:22.92558479309082;stroke-width:0.2160000056028366px"/><path d="M259.74741,154.61719H260.43v-.2486h-.45868v-1.26l2.22607,1.008v-.273l-2.27139-1.0253h-.17859Zm2.2399,1.2424c0,.42691-.3606.72122-1.0148.72122-.65451,0-1.01511-.29431-1.01511-.72122s.3606-.72079,1.01511-.72079C261.62671,155.13879,261.9873,155.43271,261.9873,155.85959Zm.231,0c0-.56689-.46539-.97989-1.24579-.97989-.7807,0-1.24609.413-1.24609.97989s.46539.97662,1.24609.97662C261.7529,156.83621,262.21829,156.42661,262.21829,155.85959Zm-.38489,1.4877a.18315.18315,0,0,0,.18909.1853.17677.17677,0,0,0,.17831-.12579l.5076.119v-.168l-.483-.14719a.57587.57587,0,0,0-.20291-.049A.18321.18321,0,0,0,261.8334,157.34729Zm.14,1.89011-.81888-.8331a1.00777,1.00777,0,0,0-.76651-.4025c-.40961,0-.66159.31491-.66159.8121a1.101,1.101,0,0,0,.3501.868l.1539-.17859a.832.832,0,0,1-.273-.6684c0-.37451.1749-.574.4584-.574.16809,0,.33249.0524.6055.3288l.9975,1.01849h.17859V157.8898h-.224Z" transform="translate(-114.8397 -122.1875)" style="fill:#434242"/><path d="M218.8616,181.825c0,.4269-.3606.7211-1.0148.7211-.6545,0-1.01511-.2942-1.01511-.7211s.36061-.7209,1.01511-.7209c.65421,0,1.0148.294,1.0148.7209m.231,0c0-.56689-.4655-.9799-1.2458-.9799-.7807,0-1.24611.413-1.24611.9799s.46541.9765,1.24611.9765C218.62711,182.8015,219.09261,182.39191,219.09261,181.825Zm-.2449,2.6252-.81891-.8331a1.008,1.008,0,0,0-.76649-.4026c-.40959,0-.66161.315-.66161.81221a1.10106,1.10106,0,0,0,.35.86789l.154-.17859a.832.832,0,0,1-.273-.66841c0-.37439.17491-.574.4583-.574.16811,0,.33261.05249.6055.3288l.99751,1.01849h.17859V183.1026h-.22389Zm-.14.9099a.18314.18314,0,0,0,.189.18541.17676.17676,0,0,0,.1783-.1259l.50771.11909v-.16809l-.483-.14711a.57393.57393,0,0,0-.203-.0491A.18318.18318,0,0,0,218.7077,185.36009Zm-2.08611,1.60641h.224v-.57741h2.226v-.252h-2.45Z" transform="translate(-114.8397 -122.1875)" style="fill:#434242"/><path d="M251.50079,243.92529v.31491l-.78059-.08391v-1.12h-.224v1.3405l1.22859.1259v-.5213c0-.62309.1958-.8192.511-.8192.29741,0,.50041.2205.50041.63719a1.06142,1.06142,0,0,1-.28351.7523l.1996.1225a1.26491,1.26491,0,0,0,.3149-.87849c0-.5984-.32539-.8889-.74179-.8889-.4343,0-.72461.28011-.72461,1.01849m1.2529,1.946c0,.43391-.189.6893-.4935.6893-.301,0-.4901-.25539-.4901-.6893s.1891-.6931.4901-.6931C252.5647,245.17819,252.75369,245.4373,252.75369,245.87129Zm-1.62389.60541c-.273,0-.4411-.2347-.4411-.60541,0-.36769.16809-.60919.44449-.60919.26611,0,.43761.2276.43761.60919C251.5708,246.2525,251.39931,246.4767,251.12981,246.4767Zm.532-1.078a.55487.55487,0,0,0-.53911-.392c-.3989,0-.64749.34641-.64749.86459,0,.51791.2486.85741.64749.85741a.55289.55289,0,0,0,.53911-.38519.611.611,0,0,0,.60179.47249c.434,0,.7036-.3568.7036-.9447,0-.58449-.26959-.95219-.7036-.95219A.617.617,0,0,0,251.6618,245.3987Zm.92039,1.988a.18316.18316,0,0,0,.1891.1853.17669.17669,0,0,0,.1783-.12581l.50771.119v-.168l-.483-.1472a.57583.57583,0,0,0-.203-.049A.18322.18322,0,0,0,252.5822,247.3867Zm-.504.49319v.4901h-.56689v.2449h.56689v1.0641l-1.582-1.2529v.2798l1.624,1.2986h.182V248.622h.644v-.252h-.644v-.4901Z" transform="translate(-114.8397 -122.1875)" style="fill:#434242"/><path d="M302.15961,244.3542l-.81891-.8331a1.00793,1.00793,0,0,0-.76651-.4026c-.40958,0-.66159.315-.66159.81219a1.10077,1.10077,0,0,0,.3501.8679l.1539-.1786a.832.832,0,0,1-.273-.6684c0-.3744.17493-.574.4584-.574.16812,0,.33252.05251.6055.32881l.9975,1.01849h.17862v-1.71831h-.224Zm.01389,1.6588c0,.4269-.3606.7211-1.0148.7211-.65448,0-1.01511-.2942-1.01511-.7211s.36063-.7209,1.01511-.7209C301.8129,245.2921,302.17349,245.58611,302.17349,246.013Zm.231,0c0-.56689-.46542-.9799-1.24582-.9799-.7807,0-1.24609.413-1.24609.9799s.46539.9765,1.24609.9765C301.93909,246.9895,302.40451,246.5799,302.40451,246.013Zm-.38492,1.48759a.18318.18318,0,0,0,.18912.18541.17663.17663,0,0,0,.17828-.1259l.5076.11909v-.16811l-.483-.14709a.57391.57391,0,0,0-.20288-.0491A.18321.18321,0,0,0,302.01959,247.5006Zm.17151,1.3649c0,.42351-.2554.64771-.525.64771a.56728.56728,0,0,1-.53549-.6301c0-.3779.20639-.616.52838-.616A.53611.53611,0,0,1,302.1911,248.86549Zm-1.2739-.021a.78343.78343,0,0,0,.4198.74921c-.07339.00679-.1434.0105-.19962.0105-.6647,0-1.0043-.3396-1.0043-.868a.86106.86106,0,0,1,.11542-.47621l-.203-.1015a1.12593,1.12593,0,0,0-.1329.5811c0,.665.434,1.12,1.26709,1.12.77332,0,1.22482-.3535,1.22482-1.00461a.76336.76336,0,0,0-.75262-.8365A.74173.74173,0,0,0,300.91721,248.8445Z" transform="translate(-114.8397 -122.1875)" style="fill:#434242"/><path d="M124.736,196.11951c0,.4269-.3605.72119-1.0148.72119-.6545,0-1.0151-.2943-1.0151-.72119s.3606-.72081,1.0151-.72081c.6543,0,1.0148.2939,1.0148.72081m.2311,0c0-.56691-.4655-.9799-1.2459-.9799-.7806,0-1.2461.413-1.2461.9799s.4655.97659,1.2461.97659C124.5016,197.0961,124.9671,196.68649,124.9671,196.11951Zm-.2135,2.27849c0,.434-.1891.68941-.4935.68941-.301,0-.4901-.2554-.4901-.68941s.1891-.693.4901-.693C124.5645,197.705,124.7536,197.964,124.7536,198.398Zm-1.624.6055c-.2729,0-.441-.2347-.441-.6055,0-.3676.1681-.6091.4444-.6091.2662,0,.4377.2276.4377.6091C123.5707,198.7793,123.3992,199.00349,123.1296,199.00349Zm.5321-1.078a.55494.55494,0,0,0-.5391-.392c-.3989,0-.6475.34641-.6475.8645,0,.5179.2486.8575.6475.8575a.553.553,0,0,0,.5391-.38519.611.611,0,0,0,.6018.4725c.434,0,.70361-.3569.70361-.94481,0-.5845-.2696-.9521-.70361-.9521A.61688.61688,0,0,0,123.6617,197.92551Zm.9204,1.9879a.18317.18317,0,0,0,.1891.18539.17669.17669,0,0,0,.1783-.12581l.5077.119v-.16809l-.4831-.14711a.57283.57283,0,0,0-.2029-.049A.18319.18319,0,0,0,124.5821,199.91341Zm.1715,1.3649c0,.42349-.2554.64769-.525.64769a.56722.56722,0,0,1-.5354-.6301c0-.3779.2063-.616.5283-.616A.53608.53608,0,0,1,124.7536,201.27831Zm-1.2739-.021a.78346.78346,0,0,0,.4198.74921c-.07339.00681-.14339.0105-.1995.0105-.66479,0-1.0043-.3396-1.0043-.8679a.861.861,0,0,1,.1153-.47629l-.2029-.10141a1.12561,1.12561,0,0,0-.133.5811c0,.665.434,1.1199,1.26711,1.1199.7733,0,1.2249-.3535,1.2249-1.00459a.76339.76339,0,0,0-.7526-.8365A.74175.74175,0,0,0,123.4797,201.25729Z" transform="translate(-114.8397 -122.1875)" style="fill:#434242"/><path d="M127.0006,283.5088v.315l-.7806-.08391v-1.12h-.224v1.3405l1.2286.1259v-.5213c0-.62311.1958-.8192.5111-.8192.2973,0,.50029.22049.50029.63719a1.06141,1.06141,0,0,1-.28349.7523l.1996.1225a1.26491,1.26491,0,0,0,.3149-.87849c0-.5984-.32539-.889-.7418-.889-.4343,0-.72459.28011-.72459,1.01851m-1.0046,2.058h.224v-.57741h2.226v-.252h-2.45Zm2.086.3569a.18323.18323,0,0,0,.1891.18539.17676.17676,0,0,0,.1783-.1259l.50771.11909v-.16809l-.483-.1472a.57583.57583,0,0,0-.203-.049A.18326.18326,0,0,0,128.082,285.92371Zm-2.086,1.6064h.224v-.5775h2.226v-.252h-2.45Z" transform="translate(-114.8397 -122.1875)" style="fill:#434242"/><line x1="146.19772" y1="38.70309" x2="146.19772" y2="47.51711" style="fill:none;stroke:#b1b2b2;stroke-miterlimit:22.92558479309082;stroke-width:0.2160000056028366px"/><line x1="103.072" y1="66.32899" x2="103.072" y2="73.07739" style="fill:none;stroke:#b1b2b2;stroke-miterlimit:22.92558479309082;stroke-width:0.2160000056028366px"/><line x1="136.9466" y1="128.95419" x2="136.9466" y2="172.66389" style="fill:none;stroke:#b1b2b2;stroke-miterlimit:22.92558479309082;stroke-width:0.2160000056028366px"/><line x1="186.3839" y1="128.95419" x2="186.3839" y2="172.66389" style="fill:none;stroke:#b1b2b2;stroke-miterlimit:22.92558479309082;stroke-width:0.2160000056028366px"/><line x1="8.9464" y1="81.2043" x2="8.9464" y2="142.5719" style="fill:none;stroke:#b1b2b2;stroke-miterlimit:22.92558479309082;stroke-width:0.2160000056028366px"/><line x1="12.4464" y1="167.45441" x2="12.4464" y2="174.2028" style="fill:none;stroke:#b1b2b2;stroke-miterlimit:22.92558479309082;stroke-width:0.2160000056028366px"/><line x1="146.19772" y1="6.42719" x2="146.19772" y2="29.26401" style="fill:none;stroke:#b1b2b2;stroke-miterlimit:22.92558479309082;stroke-width:0.2160000056028366px"/><line x1="103.072" y1="50.1414" x2="103.072" y2="56.88989" style="fill:none;stroke:#b1b2b2;stroke-miterlimit:22.92558479309082;stroke-width:0.2160000056028366px"/><line x1="136.9466" y1="76.0229" x2="136.9466" y2="119.51511" style="fill:none;stroke:#b1b2b2;stroke-miterlimit:22.92558479309082;stroke-width:0.2160000056028366px"/><line x1="186.3839" y1="53.2417" x2="186.3839" y2="119.51511" style="fill:none;stroke:#b1b2b2;stroke-miterlimit:22.92558479309082;stroke-width:0.2160000056028366px"/><line x1="8.9464" y1="6.42719" x2="8.9464" y2="71.7652" style="fill:none;stroke:#b1b2b2;stroke-miterlimit:22.92558479309082;stroke-width:0.2160000056028366px"/><line x1="12.4464" y1="151.2668" x2="12.4464" y2="158.0153" style="fill:none;stroke:#b1b2b2;stroke-miterlimit:22.92558479309082;stroke-width:0.2160000056028366px"/><path d="M294.35049,179.36819l.69272-.8714v-.1785h-1.57492v.22391h1.2529l-.67889.85069v.18539h.1749c.45529,0,.66162.19241.66162.4864,0,.3044-.22391.4935-.62982.4935a1.0744,1.0744,0,0,1-.7597-.28349l-.1225.1996a1.27485,1.27485,0,0,0,.8822.3149c.59131,0,.88892-.3149.88892-.7245,0-.39211-.26251-.6684-.78741-.6965m-2.4957,1.1761.8331-.81889a1.008,1.008,0,0,0,.40262-.76651c0-.40959-.315-.66159-.81223-.66159a1.10076,1.10076,0,0,0-.86789.3501l.1785.1539a.83236.83236,0,0,1,.66849-.273c.37442,0,.574.1749.574.45839,0,.16811-.05249.3325-.3288.60541l-1.01849.9976v.1785h1.71829v-.22391Zm-.90991-.14a.18315.18315,0,0,0-.18539.189.17672.17672,0,0,0,.12592.17831l-.11911.50769h.16809l.14713-.483a.57427.57427,0,0,0,.0491-.203A.18321.18321,0,0,0,290.94489,180.4043Zm-1.60638-2.086v.22391h.57739v2.226h.252V178.3183Z" transform="translate(-114.8397 -122.1875)" style="fill:#434242"/><line x1="172.78442" y1="57.42081" x2="166.036" y2="57.42081" style="fill:none;stroke:#b1b2b2;stroke-miterlimit:22.92558479309082;stroke-width:0.2160000056028366px"/><line x1="190.3811" y1="57.42081" x2="182.2235" y2="57.42081" style="fill:none;stroke:#b1b2b2;stroke-miterlimit:22.92558479309082;stroke-width:0.2160000056028366px"/></svg>