<svg id="Слой_1" data-name="Слой 1" xmlns="http://www.w3.org/2000/svg" viewBox="0 0 199.76489 206.79111"><title>1.10.10</title><polygon points="193.938 0 193.938 61.317 196.745 61.317 196.745 203.568 193.938 203.568 193.938 206.791 0 206.791 0 128.288 35.947 128.288 35.947 0 193.938 0" style="fill:#fff;fill-rule:evenodd"/><path d="M189.68941,121.55841V119.0152h-6.9599v2.54321Zm0,4.33618v-2.54318h-6.9599v2.54318Zm-4.068,4.44162V127.793h-2.89189v2.54321Zm4.068,0V127.793H186.7975v2.54321Zm-9.7149-12.82761H192.2094V132.8429H179.9745Z" transform="translate(-112.716 -109.20309)" style="fill:#003915;fill-rule:evenodd"/><path d="M183.7009,196.8889a.37405.37405,0,0,0-.37469-.64751l-13.92011,8.0399a.37406.37406,0,0,0,.37471.64751Z" transform="translate(-112.716 -109.20309)" style="fill:#003915"/><path d="M229.5193,157.57941a.374.374,0,1,1,.6474.37479l-8.0399,13.92011a.374.374,0,1,1-.6474-.3748Z" transform="translate(-112.716 -109.20309)" style="fill:#003915"/><path d="M229.1933,221.9556a.374.374,0,0,1,.6474.3748l-8.0399,13.9201a.374.374,0,0,1-.6474-.3748Z" transform="translate(-112.716 -109.20309)" style="fill:#003915"/><path d="M199.92731,155.53711a.374.374,0,0,0,.6474-.37482l-8.0399-13.92011a.374.374,0,1,0-.6474.37482Z" transform="translate(-112.716 -109.20309)" style="fill:#003915"/><path d="M277.734,249.9648a.374.374,0,0,1,.64749.37469l-8.03989,13.92011a.37406.37406,0,0,1-.64752-.37469Z" transform="translate(-112.716 -109.20309)" style="fill:#003915"/><rect x="77.5466" y="47.96161" width="2.6022" height="23.61119" style="fill:#003915"/><rect x="77.5466" y="2.39951" width="2.6022" height="29.82471" style="fill:#003915"/><rect x="106.6765" y="27.6329" width="2.6022" height="16.2854" style="fill:#003915"/><rect x="106.6765" y="62.02631" width="2.6022" height="46.57289" style="fill:#003915"/><rect x="106.6765" y="127.0264" width="2.6022" height="6.65291" style="fill:#003915"/><rect x="107.06799" y="127.0264" width="2.6022" height="6.65291" style="fill:#003915"/><rect x="74.63649" y="95.1593" width="2.6022" height="37.5106" style="fill:#003915"/><rect x="80.48889" y="2.39951" width="2.6022" height="27.7197" style="fill:#003915"/><rect x="107.2386" y="65.6331" width="55.3791" height="2.6022" style="fill:#003915"/><rect x="107.06799" y="131.89861" width="55.379" height="2.6022" style="fill:#003915"/><rect x="41.26109" y="132.11151" width="46.32921" height="2.60219" style="fill:#003915"/><rect x="40.8696" y="95.1593" width="15.8987" height="2.6022" style="fill:#003915"/><rect x="40.8696" y="121.38231" width="35.28909" height="2.6022" style="fill:#003915"/><rect y="134.6777" width="3.07079" height="2.6022" style="fill:#003915"/><rect x="73.12" y="95.1593" width="3.6385" height="2.6022" style="fill:#003915"/><rect x="78.4984" y="27.6329" width="30.7803" height="2.60229" style="fill:#003915"/><rect x="40.8535" y="66.05971" width="43.577" height="2.6022" style="fill:#003915"/><rect x="41.31329" width="147.68219" height="5.00201" style="fill:#003915"/><rect x="35.9467" width="6.4256" height="76.2276" style="fill:#003915"/><rect y="128.2881" width="6.3723" height="72.5312" style="fill:#003915"/><polygon points="42.372 134.714 35.947 134.714 35.947 128.288 35.947 95.159 42.372 95.159 42.372 134.714" style="fill:#003915;fill-rule:evenodd"/><polygon points="41.261 128.288 41.261 134.714 3.508 134.714 3.508 128.288 35.947 128.288 41.261 128.288" style="fill:#003915;fill-rule:evenodd"/><rect x="160.75589" y="170.9084" width="8.1601" height="28.0154" style="fill:#003915"/><rect x="36.5598" y="198.1199" width="163.20509" height="8.1601" style="fill:#003915"/><rect x="163.46689" y="131.89861" width="36.19702" height="8.1601" style="fill:#003915"/><rect y="198.1199" width="7.83669" height="8.1601" style="fill:#003915"/><rect x="160.36441" y="65.6331" width="38.87997" height="8.1601" style="fill:#003915"/><rect x="185.57489" width="8.1601" height="20.88" style="fill:#003915"/><rect x="185.57489" y="51.14749" width="8.1601" height="21.21251" style="fill:#003915"/><rect x="191.50378" y="125.22331" width="8.16013" height="14.5766" style="fill:#003915"/><rect x="191.50378" y="61.73801" width="8.16013" height="15.54179" style="fill:#003915"/><rect x="75.4081" y="66.05971" width="12.78419" height="8.1601" style="fill:#003915"/><rect x="75.8327" y="131.89861" width="12.78429" height="8.1601" style="fill:#003915"/><rect x="153.1709" y="131.89861" width="12.7843" height="8.8614" style="fill:#003915"/><rect x="161.84491" y="195.658" width="37.91998" height="10.622" style="fill:#003915"/><rect x="185.57489" y="61.73801" width="13.79849" height="10.62199" style="fill:#003915"/><rect x="21.52539" y="201.1209" width="0.5018" height="2.2986" style="fill:#003915"/><rect x="22.7242" y="201.1209" width="0.50121" height="2.2986" style="fill:#003915"/><rect x="35.36139" y="201.1209" width="0.5014" height="2.2986" style="fill:#003915"/><rect x="36.5598" y="201.1209" width="0.50119" height="2.2986" style="fill:#003915"/><rect x="7.4137" y="201.1209" width="0.5018" height="2.2986" style="fill:#003915"/><rect x="8.6122" y="201.1209" width="0.5012" height="2.2986" style="fill:#003915"/><rect x="5.02409" y="198.119" width="34.0937" height="0.5015" style="fill:#003915"/><rect x="5.02409" y="200.9661" width="34.0937" height="0.5015" style="fill:#003915"/><rect x="5.02409" y="203.1375" width="34.0937" height="0.5014" style="fill:#003915"/><rect x="5.02409" y="205.7785" width="34.0937" height="0.5015" style="fill:#003915"/><rect x="188.57678" y="36.65649" width="2.29861" height="0.50171" style="fill:#003915"/><rect x="188.57678" y="35.45831" width="2.29861" height="0.5011" style="fill:#003915"/><rect x="188.57678" y="22.82089" width="2.29861" height="0.5014" style="fill:#003915"/><rect x="188.57678" y="21.62271" width="2.29861" height="0.5011" style="fill:#003915"/><rect x="188.57678" y="50.76822" width="2.29861" height="0.50168" style="fill:#003915"/><rect x="188.57678" y="49.57031" width="2.29861" height="0.5011" style="fill:#003915"/><rect x="185.57489" y="19.5658" width="0.5014" height="34.09372" style="fill:#003915"/><rect x="188.422" y="19.5658" width="0.5015" height="34.09372" style="fill:#003915"/><rect x="190.59338" y="19.5658" width="0.5014" height="34.09372" style="fill:#003915"/><rect x="193.23441" y="19.5658" width="0.5014" height="34.09372" style="fill:#003915"/><rect x="194.50571" y="94.07901" width="2.29858" height="0.5018" style="fill:#003915"/><rect x="194.50571" y="92.8808" width="2.29858" height="0.50121" style="fill:#003915"/><rect x="194.50571" y="109.62561" width="2.29858" height="0.5018" style="fill:#003915"/><rect x="194.50571" y="108.4274" width="2.29858" height="0.50121" style="fill:#003915"/><rect x="194.50571" y="78.5327" width="2.29858" height="0.5014" style="fill:#003915"/><rect x="194.50571" y="77.3345" width="2.29858" height="0.50121" style="fill:#003915"/><rect x="194.50571" y="125.17201" width="2.29858" height="0.50169" style="fill:#003915"/><rect x="194.50571" y="123.97411" width="2.29858" height="0.5011" style="fill:#003915"/><rect x="191.50378" y="75.84831" width="0.50153" height="50.80449" style="fill:#003915"/><rect x="194.35098" y="75.84831" width="0.5014" height="50.80449" style="fill:#003915"/><rect x="196.52231" y="75.84831" width="0.50137" height="50.80449" style="fill:#003915"/><rect x="199.1633" y="75.84831" width="0.5015" height="50.80449" style="fill:#003915"/><path d="M278.2843,269.00909h-1.66989v-.6971h1.66989Zm0,13.56911h-1.66989V269.5105h1.66989Zm0,1.1982h-1.66989v-.697h1.66989Zm-1.66989.5018h1.66989v5.7894h.5014V268.312h2.3457v21.7556h.5014V267.8109h-8.16092v22.2567h.5014V268.312h2.13962v18.05191h.5015Z" transform="translate(-112.716 -109.20309)" style="fill:#003915;fill-rule:evenodd"/><rect x="194.6098" y="175.59241" width="1.29709" height="0.44699" style="fill:#003915"/><rect x="194.6098" y="174.52461" width="1.29709" height="0.44669" style="fill:#003915"/><rect x="194.6098" y="156.99031" width="1.29709" height="0.44699" style="fill:#003915"/><rect x="194.6098" y="155.9225" width="1.29709" height="0.4467" style="fill:#003915"/><rect x="194.6098" y="138.38791" width="1.29709" height="0.4471" style="fill:#003915"/><rect x="194.6098" y="137.3201" width="1.29709" height="0.44681" style="fill:#003915"/><rect x="194.6098" y="194.1947" width="1.29709" height="0.44711" style="fill:#003915"/><rect x="194.6098" y="193.12691" width="1.29709" height="0.4468" style="fill:#003915"/><rect x="196.68948" y="135.2534" width="0.44681" height="60.8213" style="fill:#003915"/><rect x="195.59821" y="135.2534" width="0.44669" height="60.8213" style="fill:#003915"/><rect x="194.5174" y="135.2534" width="0.44672" height="60.8213" style="fill:#003915"/><path d="M186.11121,230.3499h-9.82231a.90528.90528,0,0,1-.9054-.904V224.8356a4.59576,4.59576,0,0,1,4.5896-4.591h2.45219a4.59568,4.59568,0,0,1,4.59041,4.591v4.61029a.90471.90471,0,0,1-.9045.904m-6.13811-9.8606a4.351,4.351,0,0,0-4.345,4.3463v4.61029a.66145.66145,0,0,0,.6608.65991h9.82231a.66068.66068,0,0,0,.6599-.65991V224.8356a4.35139,4.35139,0,0,0-4.34581-4.3463Z" transform="translate(-112.716 -109.20309)" style="fill:#003915"/><path d="M179.9734,221.5795a3.2587,3.2587,0,0,0-3.2545,3.2561v2.6881a.56785.56785,0,0,0,.5672.5675h3.5753v.24519h-3.5753a.814.814,0,0,1-.81241-.8127v-2.6881a3.50406,3.50406,0,0,1,3.49971-3.5007h2.45219a3.50468,3.50468,0,0,1,3.50081,3.5007v2.6881a.81447.81447,0,0,1-.81351.8127h-3.57539v-.24519h3.57539a.56827.56827,0,0,0,.5683-.5675v-2.6881a3.25933,3.25933,0,0,0-3.2556-3.2561Z" transform="translate(-112.716 -109.20309)" style="fill:#003915"/><path d="M181.2002,225.1832a.7835.7835,0,1,1,.7838-.78349.78479.78479,0,0,1-.7838.78349m0-1.3224a.53875.53875,0,1,0,.53911.53891A.53971.53971,0,0,0,181.2002,223.86079Z" transform="translate(-112.716 -109.20309)" style="fill:#003915"/><rect x="68.36169" y="114.6387" width="0.2449" height="1.11661" style="fill:#003915"/><rect x="67.9258" y="115.07411" width="1.116" height="0.2455" style="fill:#003915"/><path d="M181.53751,229.1675h.40369a.17364.17364,0,0,0,.17291-.174v-.3793a.17364.17364,0,0,0-.17291-.174h-.40369v-.2449h.40369a.41867.41867,0,0,1,.41811.4189v.3793a.4187.4187,0,0,1-.41811.4187h-.40569l.002-.0374Zm-1.07721-.72729a.17438.17438,0,0,0-.174.174v.3793a.17438.17438,0,0,0,.174.174h.40111v.20731l.00229.0374h-.4034a.41854.41854,0,0,1-.41859-.4187v-.3793a.41851.41851,0,0,1,.41859-.4189h.40111v.2449Z" transform="translate(-112.716 -109.20309)" style="fill:#003915"/><path d="M181.2002,229.8351a.461.461,0,0,1-.4612-.4603V226.2943a.4605.4605,0,0,1,.921,0v3.08051a.46061.46061,0,0,1-.45981.4603m0-3.75681a.21683.21683,0,0,0-.21629.216v3.08051a.2156.2156,0,0,0,.4312,0V226.2943A.21616.21616,0,0,0,181.2002,226.07829Z" transform="translate(-112.716 -109.20309)" style="fill:#003915"/><path d="M155.30431,143.9978v9.8223a.90526.90526,0,0,0,.904.9054h4.6102a4.59575,4.59575,0,0,0,4.591-4.5896v-2.45221a4.59576,4.59576,0,0,0-4.591-4.59048h-4.6102a.90478.90478,0,0,0-.904.9046m9.8606,6.13809a4.35111,4.35111,0,0,1-4.34641,4.345h-4.6102a.66153.66153,0,0,1-.66-.6608v-9.8223a.66077.66077,0,0,1,.66-.65991h4.6102a4.35142,4.35142,0,0,1,4.34641,4.34579Z" transform="translate(-112.716 -109.20309)" style="fill:#003915"/><path d="M164.07471,150.13559a3.25874,3.25874,0,0,1-3.25621,3.25452h-2.6881a.56792.56792,0,0,1-.5675-.5672V149.2475h-.24519v3.57541a.814.814,0,0,0,.8127.81238h2.6881a3.50408,3.50408,0,0,0,3.50081-3.49969v-2.45218a3.50471,3.50471,0,0,0-3.50081-3.50082h-2.6881a.81447.81447,0,0,0-.8127.81351v3.57541h.24519v-3.57541a.56829.56829,0,0,1,.5675-.5683h2.6881a3.25936,3.25936,0,0,1,3.25621,3.25562Z" transform="translate(-112.716 -109.20309)" style="fill:#003915"/><path d="M160.471,148.90881a.7835.7835,0,1,0,.78351-.78381.78481.78481,0,0,0-.78351.78381m1.3224,0a.53875.53875,0,1,1-.53889-.53912A.53969.53969,0,0,1,161.7934,148.90881Z" transform="translate(-112.716 -109.20309)" style="fill:#003915"/><rect x="47.9798" y="39.58319" width="1.1165" height="0.24503" style="fill:#003915"/><rect x="48.4155" y="39.1481" width="0.24541" height="1.116" style="fill:#003915"/><path d="M156.4866,148.5715v-.40372a.17371.17371,0,0,1,.1741-.17288h.3792a.17372.17372,0,0,1,.1741.17288v.40372h.24489v-.40372a.41875.41875,0,0,0-.419-.41809h-.3792a.41869.41869,0,0,0-.4187.41809v.4057l.0374-.002Zm.7274,1.07709a.17449.17449,0,0,1-.1741.1741h-.3792a.17448.17448,0,0,1-.1741-.1741v-.40109h-.2072l-.0374-.0022v.40329a.41855.41855,0,0,0,.4187.4187h.3792a.41861.41861,0,0,0,.419-.4187v-.40109H157.214Z" transform="translate(-112.716 -109.20309)" style="fill:#003915"/><path d="M155.81911,148.90881a.461.461,0,0,0,.4603.46118h3.0804a.4605.4605,0,0,0,0-.921h-3.0804a.46053.46053,0,0,0-.4603.45981m3.7567,0a.21675.21675,0,0,1-.216.21628h-3.0804a.21559.21559,0,0,1,0-.43118h3.0804A.21609.21609,0,0,1,159.57581,148.90881Z" transform="translate(-112.716 -109.20309)" style="fill:#003915"/><path d="M169.3672,216.0777a3.91689,3.91689,0,0,1-3.9129,3.9115H159.789a.67713.67713,0,0,1-.63921-.456,1.2405,1.2405,0,0,1-.205.20349.946.946,0,0,0,.84421.52161h5.6653a4.18085,4.18085,0,1,0,0-8.36169H159.789a.9454.9454,0,0,0-.8436.521,1.24155,1.24155,0,0,1,.20459.20329.67639.67639,0,0,1,.639-.4556h5.6653a3.91715,3.91715,0,0,1,3.9129,3.9124" transform="translate(-112.716 -109.20309)" style="fill:#003915"/><path d="M160.8698,213.274v5.6089a.204.204,0,0,0,.2016.2012h4.2706a3.00655,3.00655,0,1,0,0-6.01311h-4.2706a.20476.20476,0,0,0-.2016.203m.2682,5.5414v-5.47591h4.204a2.738,2.738,0,0,1,0,5.47591Z" transform="translate(-112.716 -109.20309)" style="fill:#003915"/><path d="M163.60069,216.078a1.00816,1.00816,0,1,0,1.008-1.0088,1.01007,1.01007,0,0,0-1.008,1.0088m1.7476,0a.73945.73945,0,1,1-.73959-.73981A.74046.74046,0,0,1,165.3483,216.078Z" transform="translate(-112.716 -109.20309)" style="fill:#003915"/><rect x="161.40347" y="217.56516" width="2.24215" height="0.26854" transform="translate(-210.62008 31.13873) rotate(-36.71314)" style="fill:#003915"/><rect x="162.39017" y="213.37859" width="0.26921" height="2.24302" transform="translate(-219.30463 106.89987) rotate(-53.19038)" style="fill:#003915"/><path d="M155.3681,213.3772v5.4005a1.355,1.355,0,0,0,1.35379,1.3524h1.4743a1.35344,1.35344,0,0,0,1.3524-1.3524v-5.4005a1.35314,1.35314,0,0,0-1.3524-1.3519h-1.4743a1.35472,1.35472,0,0,0-1.35379,1.3519m3.91209,5.4005a1.08557,1.08557,0,0,1-1.084,1.0843h-1.4743a1.08594,1.08594,0,0,1-1.0851-1.0843v-5.4005a1.08594,1.08594,0,0,1,1.0851-1.08369h1.4743a1.08557,1.08557,0,0,1,1.084,1.08369Z" transform="translate(-112.716 -109.20309)" style="fill:#003915"/><path d="M156.7704,216.078a.6881.6881,0,1,0,.68739-.6882.68809.68809,0,0,0-.68739.6882m1.10719,0a.41925.41925,0,1,1-.4198-.41951A.41949.41949,0,0,1,157.87759,216.078Z" transform="translate(-112.716 -109.20309)" style="fill:#003915"/><path d="M172.4406,128.32129a3.917,3.917,0,0,1-3.91159-3.9129V118.7431a.67719.67719,0,0,1,.4561-.63919,1.24068,1.24068,0,0,1-.20351-.205.946.946,0,0,0-.52161.84421v5.66528a4.18085,4.18085,0,1,0,8.36171,0V118.7431a.94539.94539,0,0,0-.521-.8436,1.24094,1.24094,0,0,1-.20329.20459.67628.67628,0,0,1,.45551.639v5.66528a3.917,3.917,0,0,1-3.91231,3.9129" transform="translate(-112.716 -109.20309)" style="fill:#003915"/><path d="M175.24429,119.82391h-5.60889a.204.204,0,0,0-.20131.2016v4.2706a3.0066,3.0066,0,1,0,6.0132,0v-4.2706a.20467.20467,0,0,0-.203-.2016m-5.5414.26819h5.47591v4.204a2.738,2.738,0,0,1-5.47591,0Z" transform="translate(-112.716 -109.20309)" style="fill:#003915"/><path d="M172.44031,122.55481a1.00815,1.00815,0,1,0,1.00879,1.008,1.01,1.01,0,0,0-1.00879-1.008m0,1.74759a.73946.73946,0,1,1,.73979-.73959A.74039.74039,0,0,1,172.44031,124.3024Z" transform="translate(-112.716 -109.20309)" style="fill:#003915"/><rect x="170.6846" y="120.35757" width="0.26853" height="2.24215" transform="translate(-151.45359 16.99158) rotate(-36.70793)" style="fill:#003915"/><rect x="172.8967" y="121.34426" width="2.24301" height="0.26921" transform="translate(-140.2222 78.81422) rotate(-53.19014)" style="fill:#003915"/><path d="M175.1411,114.3222h-5.4005a1.355,1.355,0,0,0-1.3524,1.35379v1.4743a1.35349,1.35349,0,0,0,1.3524,1.35239h5.4005a1.35325,1.35325,0,0,0,1.3519-1.35239V115.676a1.35479,1.35479,0,0,0-1.3519-1.35379m-5.4005,3.91211a1.08552,1.08552,0,0,1-1.0843-1.084V115.676a1.08587,1.08587,0,0,1,1.0843-1.08508h5.4005a1.08593,1.08593,0,0,1,1.08369,1.08508v1.4743a1.08558,1.08558,0,0,1-1.08369,1.084Z" transform="translate(-112.716 -109.20309)" style="fill:#003915"/><path d="M172.44031,115.72449a.68811.68811,0,1,0,.68819.68741.68811.68811,0,0,0-.68819-.68741m0,1.10721a.41925.41925,0,1,1,.41949-.4198A.41949.41949,0,0,1,172.44031,116.8317Z" transform="translate(-112.716 -109.20309)" style="fill:#003915"/><path d="M163.4751,140.54749h-7.8394v-11.348h7.8394Zm-8.17079.33081h8.50249V128.86841h-8.50249Z" transform="translate(-112.716 -109.20309)" style="fill:#003915"/><path d="M163.69971,138.153a.60428.60428,0,0,0,.61249-.59348v-5.37231a.60394.60394,0,0,0-.61249-.59378v.33078a.26967.26967,0,0,1,.2809.263v5.37231a.26943.26943,0,0,1-.2809.2627Z" transform="translate(-112.716 -109.20309)" style="fill:#003915"/><path d="M161.0731,135.8952h-2.7077l-.6216-1.59729a2.47351,2.47351,0,0,1,1.6747.09189,4.15422,4.15422,0,0,0,1.24069.24121,2.44924,2.44924,0,0,0,.9366-.1882Zm-2.9342.33081h3.1669l.89211-2.48-.3907.22479a2.26669,2.26669,0,0,1-1.148.32941,3.89168,3.89168,0,0,1-1.1438-.22681,3.9006,3.9006,0,0,0-1.144-.22821,2.01826,2.01826,0,0,0-.91251.218l-.13579.0675Z" transform="translate(-112.716 -109.20309)" style="fill:#003915"/><path d="M157.45551,159.00009h30.0849a2.16108,2.16108,0,0,1,2.15149,2.16571v10.41139a2.16087,2.16087,0,0,1-2.15149,2.16591h-30.0849a2.16081,2.16081,0,0,1-2.1512-2.16591V161.1658a2.161,2.161,0,0,1,2.1512-2.16571m30.0849,14.51311a1.93108,1.93108,0,0,0,1.92189-1.936V161.1658a1.931,1.931,0,0,0-1.92189-1.93552h-30.0849a1.93151,1.93151,0,0,0-1.92221,1.93552v10.41139a1.93154,1.93154,0,0,0,1.92221,1.936Z" transform="translate(-112.716 -109.20309)" style="fill:#003915"/><path d="M184.5547,172.2513a2.57712,2.57712,0,0,0,2.5654-2.58209v-6.5948a2.57662,2.57662,0,0,0-2.5654-2.58182H160.4415a2.57705,2.57705,0,0,0-2.5659,2.58182v2.06189a.39655.39655,0,0,0-.2282-.142V163.0744a2.8064,2.8064,0,0,1,2.7941-2.81259h24.1132a2.80666,2.80666,0,0,1,2.7944,2.81259v6.5948a2.80658,2.80658,0,0,1-2.7944,2.81219H160.4415a2.80632,2.80632,0,0,1-2.7941-2.81219V167.749a.39518.39518,0,0,0,.2282-.14148v2.06169a2.57754,2.57754,0,0,0,2.5659,2.58209Z" transform="translate(-112.716 -109.20309)" style="fill:#003915"/><path d="M183.00729,170.938a1.26666,1.26666,0,0,0,1.26111-1.2688v-6.5948a1.26632,1.26632,0,0,0-1.26111-1.26819H160.4415a1.26618,1.26618,0,0,0-1.2614,1.26819v2.84479h-.22881V163.0744a1.49622,1.49622,0,0,1,1.4902-1.499h22.5658a1.49564,1.49564,0,0,1,1.4893,1.499v6.5948a1.49525,1.49525,0,0,1-1.4893,1.4989H160.4415a1.49583,1.49583,0,0,1-1.4902-1.4989V166.824h.22881v2.8452a1.26653,1.26653,0,0,0,1.2614,1.2688Z" transform="translate(-112.716 -109.20309)" style="fill:#003915"/><path d="M162.34669,165.63889a.73331.73331,0,1,1-.72989.73361.73147.73147,0,0,1,.72989-.73361m0,1.23651a.5033.5033,0,1,0-.50029-.5029A.50189.50189,0,0,0,162.34669,166.8754Z" transform="translate(-112.716 -109.20309)" style="fill:#003915"/><rect x="49.51559" y="56.64612" width="0.22931" height="1.04568" style="fill:#003915"/><rect x="49.11139" y="57.05402" width="1.0377" height="0.23077" style="fill:#003915"/><path d="M157.84669,165.91919v-.53738a.27992.27992,0,0,0-.2787-.2804h-.5051a.2804.2804,0,0,0-.27919.2804v.53738h-.22881v-.53738a.51036.51036,0,0,1,.508-.51111h.5051a.50965.50965,0,0,1,.5074.51111v.53738Zm-.2787,1.72211a.27985.27985,0,0,0,.2787-.28009v-.5372h.2287v.5372a.50919.50919,0,0,1-.5074.5108h-.5051a.5099.5099,0,0,1-.508-.5108v-.5372h.22881v.5372a.28034.28034,0,0,0,.27919.28009Z" transform="translate(-112.716 -109.20309)" style="fill:#003915"/><path d="M156.5569,165.80389h3.2012a.56761.56761,0,0,1,0,1.13519h-3.2012a.56761.56761,0,0,1,0-1.13519m3.2012.90509a.33719.33719,0,0,0,0-.67438h-3.2012a.3372.3372,0,0,0,0,.67438Z" transform="translate(-112.716 -109.20309)" style="fill:#003915"/><path d="M173.1651,243.91679H161.3959V255.6857h11.7692Zm-11.5197.2494h11.27049v11.2706H161.6454Z" transform="translate(-112.716 -109.20309)" style="fill:#003915"/><path d="M167.2807,254.58749a3.91957,3.91957,0,0,1-.9817-7.71419.30008.30008,0,0,1-.0742-.1976v-.04051a4.1685,4.1685,0,1,0,2.11151-.00029v.0408a.29843.29843,0,0,1-.074.1973,3.91974,3.91974,0,0,1-.9816,7.71449" transform="translate(-112.716 -109.20309)" style="fill:#003915"/><path d="M167.2807,247.1868a3.4815,3.4815,0,1,0,3.4812,3.4818,3.48579,3.48579,0,0,0-3.4812-3.4818m0,6.71361a3.2319,3.2319,0,1,1,3.2317-3.23181A3.23542,3.23542,0,0,1,167.2807,253.90041Z" transform="translate(-112.716 -109.20309)" style="fill:#003915"/><path d="M167.2807,249.7661a.90225.90225,0,1,0,.9025.9025.90332.90332,0,0,0-.9025-.9025m0,1.5556a.653.653,0,1,1,.65311-.65311A.65425.65425,0,0,1,167.2807,251.3217Z" transform="translate(-112.716 -109.20309)" style="fill:#003915"/><rect x="54.4399" y="140.80821" width="0.2495" height="1.3138" style="fill:#003915"/><rect x="53.9079" y="141.34021" width="1.31349" height="0.2498" style="fill:#003915"/><path d="M168.03439,245.86189H166.5269a.42706.42706,0,0,0-.42661.42661v.38721a.42686.42686,0,0,0,.42661.42659h1.50749a.42679.42679,0,0,0,.42661-.42659v-.38721a.427.427,0,0,0-.42661-.42661m-1.50749.991a.17765.17765,0,0,1-.1774-.1772v-.38721a.17736.17736,0,0,1,.1774-.17709h1.50749a.17719.17719,0,0,1,.1772.17709v.38721a.17748.17748,0,0,1-.1772.1772Z" transform="translate(-112.716 -109.20309)" style="fill:#003915"/><path d="M167.0607,245.9866v-.08641a.2197.2197,0,0,1,.43941,0v.08641h.24969v-.08641a.4694.4694,0,0,0-.9388,0v.08641Zm.22,2.59a.22043.22043,0,0,1-.22-.2205V246.9776H166.811v1.37849a.4694.4694,0,1,0,.9388,0V246.9776h-.24969v1.37849A.22.22,0,0,1,167.2807,248.5766Z" transform="translate(-112.716 -109.20309)" style="fill:#003915"/><path d="M144.50031,244.3981h7.1566a1.49612,1.49612,0,0,1,1.49419,1.49471v8.29869a1.496,1.496,0,0,1-1.49419,1.4942h-7.1566a1.49562,1.49562,0,0,1-1.49411-1.4942v-8.29869a1.49573,1.49573,0,0,1,1.49411-1.49471m7.1566,11.0545a1.26259,1.26259,0,0,0,1.2612-1.26111v-8.29869a1.26278,1.26278,0,0,0-1.2612-1.2617h-7.1566a1.26307,1.26307,0,0,0-1.2617,1.2617v8.29869a1.26288,1.26288,0,0,0,1.2617,1.26111Z" transform="translate(-112.716 -109.20309)" style="fill:#003915"/><path d="M144.50031,245.217h7.1566a.67624.67624,0,0,1,.6758.67581v7.0107a.67633.67633,0,0,1-.6758.67569h-7.1566a.67643.67643,0,0,1-.6763-.67569v-7.0107a.67634.67634,0,0,1,.6763-.67581m7.1566,8.12921a.44324.44324,0,0,0,.4431-.4427v-7.0107a.44349.44349,0,0,0-.4431-.443h-7.1566a.44386.44386,0,0,0-.44391.443v7.0107a.44361.44361,0,0,0,.44391.4427Z" transform="translate(-112.716 -109.20309)" style="fill:#003915"/><path d="M150.9568,253.99789a.47425.47425,0,1,1-.4742.47421.47509.47509,0,0,1,.4742-.47421m0,.7155a.24125.24125,0,1,0-.2415-.24129A.24193.24193,0,0,0,150.9568,254.71339Z" transform="translate(-112.716 -109.20309)" style="fill:#003915"/><path d="M149.35609,253.99789a.47425.47425,0,1,1-.47479.47421.475.475,0,0,1,.47479-.47421m0,.7155a.24125.24125,0,1,0-.24179-.24129A.24162.24162,0,0,0,149.35609,254.71339Z" transform="translate(-112.716 -109.20309)" style="fill:#003915"/><rect x="35.968" y="138.1564" width="2.7195" height="0.2327" style="fill:#003915"/><rect x="37.2112" y="136.9122" width="0.2328" height="2.7196" style="fill:#003915"/><path d="M150.0437,246.5788a.8969.8969,0,1,1-.89661.8969.898.898,0,0,1,.89661-.8969m0,1.561a.6643.6643,0,1,0-.6638-.66411A.66557.66557,0,0,0,150.0437,248.1398Z" transform="translate(-112.716 -109.20309)" style="fill:#003915"/><rect x="35.968" y="142.00151" width="2.7195" height="0.2325" style="fill:#003915"/><rect x="37.2112" y="140.75711" width="0.2328" height="2.7204" style="fill:#003915"/><path d="M150.0437,250.4231a.8972.8972,0,1,1-.89661.89751.89869.89869,0,0,1,.89661-.89751m0,1.5619a.6647.6647,0,1,0-.6638-.6644A.66543.66543,0,0,0,150.0437,251.985Z" transform="translate(-112.716 -109.20309)" style="fill:#003915"/><rect x="32.0374" y="138.1564" width="2.7193" height="0.2327" style="fill:#003915"/><rect x="33.2802" y="136.9122" width="0.233" height="2.7196" style="fill:#003915"/><path d="M146.1127,246.5788a.8969.8969,0,1,1-.8969.8969.89783.89783,0,0,1,.8969-.8969m0,1.561a.6643.6643,0,1,0-.66389-.66411A.66606.66606,0,0,0,146.1127,248.1398Z" transform="translate(-112.716 -109.20309)" style="fill:#003915"/><rect x="32.0374" y="142.00151" width="2.7193" height="0.2325" style="fill:#003915"/><rect x="33.2802" y="140.75711" width="0.233" height="2.7204" style="fill:#003915"/><path d="M146.1127,250.4231a.8972.8972,0,1,1-.8969.89751.89854.89854,0,0,1,.8969-.89751m0,1.5619a.6647.6647,0,1,0-.66389-.6644A.66592.66592,0,0,0,146.1127,251.985Z" transform="translate(-112.716 -109.20309)" style="fill:#003915"/><path d="M146.6425,253.99789a.47425.47425,0,1,1-.47461.47421.47484.47484,0,0,1,.47461-.47421m0,.7155a.24125.24125,0,1,0-.24181-.24129A.24168.24168,0,0,0,146.6425,254.71339Z" transform="translate(-112.716 -109.20309)" style="fill:#003915"/><path d="M145.04089,253.99789a.47425.47425,0,1,1-.474.47421.47464.47464,0,0,1,.474-.47421m0,.7155a.24125.24125,0,1,0-.2415-.24129A.24167.24167,0,0,0,145.04089,254.71339Z" transform="translate(-112.716 -109.20309)" style="fill:#003915"/><path d="M181.37421,233.515h7.056v2.49989h-7.056Zm-4.09381,0h2.8752v2.49989h-2.8752Zm-4.42169,0h2.4843v2.49989h-2.4843Zm-12.7693,0h6.4843v2.49989h-6.4843Zm7.7188,0H171.671v2.49989H167.8082Zm13.566,4.44991h7.056v2.4998h-7.056Zm-4.09381,0h2.8752v2.4998h-2.8752Zm-4.42169,0h2.4843v2.4998h-2.4843Zm-12.7693,0h6.4843v2.4998h-6.4843Zm7.7188,0H171.671v2.4998H167.8082Zm21.7471,3.6442h-30.6v-9.688h30.6Z" transform="translate(-112.716 -109.20309)" style="fill:#003915;fill-rule:evenodd"/><path d="M112.8997,276.76379v-7.056h2.4999v7.056Zm0,4.09381v-2.8752h2.4999v2.8752Zm0,4.4218v-2.4843h2.4999v2.4843Zm0,12.7692v-6.4843h2.4999v6.4843Zm0-7.7188v-3.8627h2.4999v3.8627Zm3.6442-21.7471V309.2242H112.716V268.5827Z" transform="translate(-112.716 -109.20309)" style="fill:#003915;fill-rule:evenodd"/><path d="M189.0873,115.47159a.80925.80925,0,1,0,.23471.57092.81024.81024,0,0,0-.23471-.57092m-.5726-1.03629a1.60687,1.60687,0,1,1-1.1364.47049A1.60277,1.60277,0,0,1,188.51469,114.4353Z" transform="translate(-112.716 -109.20309)" style="fill:#003915"/><path d="M157.46741,238.2914a.80925.80925,0,1,0,.2347.57091.81025.81025,0,0,0-.2347-.57091m-.5726-1.0363a1.60692,1.60692,0,1,1-1.1364.4705A1.60309,1.60309,0,0,1,156.89481,237.2551Z" transform="translate(-112.716 -109.20309)" style="fill:#003915"/><path d="M262.91251,151.5603c-.7319,0-1.2359-.61789-1.2359-1.7399s.504-1.7399,1.2359-1.7399,1.2359.618,1.2359,1.7399-.504,1.7399-1.2359,1.7399m0,.396c.972,0,1.67978-.79791,1.67978-2.13589s-.70779-2.13589-1.67978-2.13589-1.6738.798-1.6738,2.13589S261.94049,151.9563,262.91251,151.9563Zm-3.97189-.396c-.7319,0-1.2359-.61789-1.2359-1.7399s.504-1.7399,1.2359-1.7399,1.2359.618,1.2359,1.7399S259.67249,151.5603,258.94061,151.5603Zm0,.396c.972,0,1.67978-.79791,1.67978-2.13589s-.70779-2.13589-1.67978-2.13589-1.6738.798-1.6738,2.13589S257.9686,151.9563,258.94061,151.9563Zm-2.54971-.65991a.31415.31415,0,0,0-.31808.324.30322.30322,0,0,0,.216.30591l-.2041.8699h.288l.252-.828a.97529.97529,0,0,0,.0842-.34781A.314.314,0,0,0,256.3909,151.29639Zm-2.28619-1.77588,1.188-1.49411v-.30591h-2.7v.38382h2.1481l-1.16389,1.45819v.318h.2999c.7798,0,1.1339.33,1.1339.834,0,.52179-.38379.84579-1.08.84579a1.8417,1.8417,0,0,1-1.302-.48581l-.21.3418a2.18442,2.18442,0,0,0,1.512.54c1.0139,0,1.52391-.54,1.52391-1.24179C255.45461,150.04239,255.0047,149.56839,254.10471,149.52051Zm-3.852-1.8v.38382h.9902v3.816h.432v-4.1998Z" transform="translate(-112.716 -109.20309)" style="fill:#6e6e6e;fill-rule:evenodd"/><path d="M270.39911,210.7755c-.7319,0-1.2359-.6179-1.2359-1.7399s.504-1.7399,1.2359-1.7399,1.2359.618,1.2359,1.7399-.504,1.7399-1.2359,1.7399m0,.396c.972,0,1.67978-.7979,1.67978-2.13589s-.70779-2.13589-1.67978-2.13589-1.6738.798-1.6738,2.13589S269.42709,211.17149,270.39911,211.17149Zm-5.20779-4.23579v1.16991h.42609v-.7861h2.16l-1.728,3.816h.468l1.758-3.89391v-.30589Zm-.74982,3.5759a.31406.31406,0,0,0-.318.324.30323.30323,0,0,0,.216.30589l-.2041.8699h.288l.252-.828a.97589.97589,0,0,0,.0842-.34779A.314.314,0,0,0,264.4415,210.5116Zm-3.24.23981,1.4281-1.4037a1.72922,1.72922,0,0,0,.69-1.3141c0-.7019-.54-1.1339-1.39212-1.1339a1.88723,1.88723,0,0,0-1.48788.59979l.30579.26421a1.42653,1.42653,0,0,1,1.14612-.468c.642,0,.98389.2999.98389.7861,0,.2877-.0899.5697-.56378,1.0377l-1.74622,1.71019v.3058h2.94611v-.38409Zm-2.982-3.8157v.3838h.99008v3.816h.432v-4.1998Z" transform="translate(-112.716 -109.20309)" style="fill:#6e6e6e;fill-rule:evenodd"/><path d="M174.7511,194.44971c-.7319,0-1.2359-.618-1.2359-1.73991s.504-1.74,1.2359-1.74,1.2359.618,1.2359,1.74-.504,1.73991-1.2359,1.73991m0,.396c.972,0,1.67979-.798,1.67979-2.13591s-.70779-2.136-1.67979-2.136-1.6739.798-1.6739,2.136S173.7791,194.8457,174.7511,194.8457Zm-3.6301-2.4359,1.188-1.49411v-.30589h-2.7v.3839h2.1481l-1.16389,1.4581v.318h.2999c.7798,0,1.1339.33,1.1339.834,0,.5219-.38379.8459-1.08.8459a1.84131,1.84131,0,0,1-1.302-.4859l-.21.34189a2.18493,2.18493,0,0,0,1.512.54c1.0139,0,1.5239-.54,1.5239-1.2419C172.4709,192.9317,172.021,192.45779,171.121,192.40981Zm-2.42981,1.776a.31408.31408,0,0,0-.3181.324.30312.30312,0,0,0,.216.3058l-.2041.87h.288l.252-.828a.97605.97605,0,0,0,.0842-.34781A.314.314,0,0,0,168.69119,194.18581Zm-3.24.23979,1.4281-1.40379a1.72872,1.72872,0,0,0,.6899-1.3141c0-.7019-.54-1.1339-1.39211-1.1339a1.88711,1.88711,0,0,0-1.4879.5999l.30591.2641a1.42627,1.42627,0,0,1,1.146-.468c.64211,0,.9839.3.9839.7861,0,.28769-.0898.56979-.5638,1.0378l-1.74611,1.7101v.30589h2.946v-.38409Z" transform="translate(-112.716 -109.20309)" style="fill:#6e6e6e;fill-rule:evenodd"/><path d="M182.21271,215.4496c-.7319,0-1.2359-.618-1.2359-1.7399s.504-1.7399,1.2359-1.7399,1.23589.61789,1.23589,1.7399-.504,1.7399-1.23589,1.7399m0,.396c.972,0,1.67979-.798,1.67979-2.13589s-.70781-2.13589-1.67979-2.13589-1.67381.7979-1.67381,2.13589S181.24071,215.8456,182.21271,215.8456Zm-3.97191-.396c-.7319,0-1.2359-.618-1.2359-1.7399s.504-1.7399,1.2359-1.7399,1.2359.61789,1.2359,1.7399S178.9727,215.4496,178.2408,215.4496Zm0,.396c.972,0,1.67979-.798,1.67979-2.13589s-.70779-2.13589-1.67979-2.13589-1.6738.7979-1.6738,2.13589S177.2688,215.8456,178.2408,215.8456Zm-2.5497-.6599a.31408.31408,0,0,0-.3181.324.30313.30313,0,0,0,.216.3058l-.2041.87h.288l.252-.828a.97605.97605,0,0,0,.0842-.34779A.314.314,0,0,0,175.6911,215.1857Zm-3.24.23981,1.428-1.4037a1.72889,1.72889,0,0,0,.69-1.31421c0-.7018-.54-1.13379-1.39211-1.13379a1.8874,1.8874,0,0,0-1.4879.59979l.30589.26421a1.426,1.426,0,0,1,1.146-.468c.64209,0,.98389.2999.98389.786,0,.2877-.0898.56979-.5638,1.0378l-1.74609,1.7101v.30591h2.946v-.38409Z" transform="translate(-112.716 -109.20309)" style="fill:#6e6e6e;fill-rule:evenodd"/><path d="M228.26691,294.44971c-.7319,0-1.2359-.6179-1.2359-1.73991s.504-1.7399,1.2359-1.7399,1.2359.618,1.2359,1.7399-.504,1.73991-1.2359,1.73991m0,.396c.972,0,1.67979-.7979,1.67979-2.13591s-.70779-2.13589-1.67979-2.13589-1.67381.798-1.67381,2.13589S227.29491,294.8457,228.26691,294.8457Zm-3.62381-.36591c-.72589,0-1.11-.438-1.11-.9a.97208.97208,0,0,1,1.08-.91791c.648,0,1.05591.35381,1.05591.906A.9189.9189,0,0,1,224.6431,294.4798Zm.036-2.1841a1.34269,1.34269,0,0,0-1.28409.72c-.0119-.1259-.01781-.2458-.01781-.3419,0-1.14009.58191-1.722,1.4879-1.722a1.47065,1.47065,0,0,1,.8158.1981l.174-.3481a1.928,1.928,0,0,0-.9958-.22791c-1.14011,0-1.91991.7438-1.91991,2.17191,0,1.3261.6058,2.0999,1.7218,2.0999a1.3085,1.3085,0,0,0,1.434-1.29A1.27161,1.27161,0,0,0,224.67909,292.2957Zm-2.6158,1.89011a.31405.31405,0,0,0-.318.324.30314.30314,0,0,0,.216.30591l-.2041.86989h.288l.252-.828a.97563.97563,0,0,0,.0842-.34781A.314.314,0,0,0,222.06329,294.18581Zm-2.34.294c-.72589,0-1.11-.438-1.11-.9a.97208.97208,0,0,1,1.08-.91791c.648,0,1.05591.35381,1.05591.906A.9189.9189,0,0,1,219.7233,294.4798Zm.036-2.1841a1.34269,1.34269,0,0,0-1.28409.72c-.0119-.1259-.01781-.2458-.01781-.3419,0-1.14009.58191-1.722,1.4879-1.722a1.47065,1.47065,0,0,1,.8158.1981l.174-.3481a1.928,1.928,0,0,0-.9958-.22791c-1.14011,0-1.91991.7438-1.91991,2.17191,0,1.3261.6058,2.0999,1.7218,2.0999a1.3085,1.3085,0,0,0,1.434-1.29A1.27161,1.27161,0,0,0,219.75929,292.2957Zm-4.16409-1.68581v.3838h.9902v3.816h.432v-4.1998Z" transform="translate(-112.716 -109.20309)" style="fill:#6e6e6e;fill-rule:evenodd"/><path d="M154.1543,281.45c-.7319,0-1.2359-.6179-1.2359-1.7399s.504-1.7399,1.2359-1.7399,1.2359.618,1.2359,1.7399-.504,1.7399-1.2359,1.7399m0,.396c.972,0,1.67981-.7979,1.67981-2.13589s-.70781-2.13589-1.67981-2.13589-1.6739.798-1.6739,2.13589S153.1823,281.846,154.1543,281.846Zm-3.9059-.36589c-.74409,0-1.182-.324-1.182-.84621,0-.5159.4379-.83989,1.182-.83989.74381,0,1.188.324,1.188.83989C151.4364,281.1561,150.9922,281.4801,150.2484,281.4801Zm-1.038-2.78391c0-.468.4019-.756,1.038-.756.6299,0,1.044.288,1.044.7619,0,.4561-.39.75009-1.044.75009S149.2104,279.1582,149.2104,278.6962Zm1.8479.9119a.95116.95116,0,0,0,.67209-.9238c0-.684-.59419-1.11009-1.482-1.11009-.88809,0-1.47.4261-1.47,1.11009a.94774.94774,0,0,0,.6599.9238,1.04821,1.04821,0,0,0-.80989,1.0321c0,.7438.612,1.2058,1.62,1.2058,1.00211,0,1.6319-.462,1.6319-1.2058A1.05755,1.05755,0,0,0,151.0583,279.60809Zm-3.40781,1.578a.31415.31415,0,0,0-.3181.324.30323.30323,0,0,0,.216.30589l-.2041.8699h.288l.252-.828a.97565.97565,0,0,0,.08421-.34779A.314.314,0,0,0,147.6505,281.1861Zm-3.66609-3.5759v1.16991h.4261v-.7861h2.16l-1.728,3.816h.468l1.758-3.89391v-.30589Z" transform="translate(-112.716 -109.20309)" style="fill:#6e6e6e;fill-rule:evenodd"/><path d="M298.385,281.41969c-.7319,0-1.2359-.61789-1.2359-1.7399s.504-1.7399,1.2359-1.7399,1.2359.6179,1.2359,1.7399-.504,1.7399-1.2359,1.7399m0,.396c.972,0,1.67978-.7979,1.67978-2.13591s-.70779-2.13589-1.67978-2.13589-1.67392.7979-1.67392,2.13589S297.413,281.8157,298.385,281.8157Zm-4.5-.4201,1.4281-1.4037a1.72922,1.72922,0,0,0,.69-1.3141c0-.70189-.54-1.1339-1.39212-1.1339a1.88728,1.88728,0,0,0-1.48788.59979l.30579.26421a1.42608,1.42608,0,0,1,1.14612-.468c.642,0,.98389.2999.98389.786,0,.2878-.0899.56979-.56381,1.0378l-1.74619,1.7101v.30589H296.195v-.38409Zm-1.55991-.23981a.314.314,0,0,0-.318.324.30313.30313,0,0,0,.216.30591l-.2041.86989h.288l.252-.828a.97517.97517,0,0,0,.08411-.34781A.314.314,0,0,0,292.3251,281.15579Zm-2.2861-1.77589,1.188-1.49409v-.30591h-2.7v.3838h2.1481l-1.164,1.4581v.3181h.3c.77982,0,1.13379.32989,1.13379.83391,0,.5219-.38379.84589-1.08.84589a1.841,1.841,0,0,1-1.30191-.4859l-.21008.3419a2.18447,2.18447,0,0,0,1.512.54c1.014,0,1.5239-.54,1.5239-1.2419C291.38879,279.90179,290.939,279.4278,290.039,279.3799Z" transform="translate(-112.716 -109.20309)" style="fill:#6e6e6e;fill-rule:evenodd"/><path d="M183.3905,151.5603c-.7319,0-1.2359-.61789-1.2359-1.7399s.504-1.7399,1.2359-1.7399,1.2359.618,1.2359,1.7399-.504,1.7399-1.2359,1.7399m0,.396c.972,0,1.67979-.79791,1.67979-2.13589s-.70779-2.13589-1.67979-2.13589-1.6738.798-1.6738,2.13589S182.4185,151.9563,183.3905,151.9563Zm-3.97191-.396c-.73189,0-1.2359-.61789-1.2359-1.7399s.504-1.7399,1.2359-1.7399,1.2359.618,1.2359,1.7399S180.1505,151.5603,179.41859,151.5603Zm0,.396c.972,0,1.67981-.79791,1.67981-2.13589s-.70781-2.13589-1.67981-2.13589-1.6738.798-1.6738,2.13589S178.44659,151.9563,179.41859,151.9563Zm-2.5497-.65991a.31416.31416,0,0,0-.3181.324.30325.30325,0,0,0,.216.30591l-.2041.8699h.288l.252-.828a.976.976,0,0,0,.0842-.34781A.314.314,0,0,0,176.8689,151.29639Zm-2.6221-1.8541h-.54l.144-1.338h1.91991v-.38382H173.4729l-.216,2.1059h.8941c1.06779,0,1.4037.33591,1.4037.87592,0,.50989-.37781.858-1.0919.858a1.82135,1.82135,0,0,1-1.29-.48581l-.20981.3418a2.16814,2.16814,0,0,0,1.5058.54c1.02611,0,1.52391-.5578,1.52391-1.27191C175.99271,149.94031,175.5128,149.44229,174.2468,149.44229Z" transform="translate(-112.716 -109.20309)" style="fill:#6e6e6e;fill-rule:evenodd"/><path d="M215.7919,181.6994c-.7319,0-1.2359-.6179-1.2359-1.7399s.504-1.7399,1.2359-1.7399,1.2359.618,1.2359,1.7399-.504,1.7399-1.2359,1.7399m0,.396c.972,0,1.67979-.7979,1.67979-2.13589s-.70779-2.13591-1.67979-2.13591-1.6738.798-1.6738,2.13591S214.8199,182.0954,215.7919,182.0954Zm-3.97189-.396c-.7319,0-1.2359-.6179-1.2359-1.7399s.504-1.7399,1.2359-1.7399,1.23589.618,1.23589,1.7399S212.5519,181.6994,211.82,181.6994Zm0,.396c.972,0,1.67979-.7979,1.67979-2.13589s-.70779-2.13591-1.67979-2.13591-1.67381.798-1.67381,2.13591S210.848,182.0954,211.82,182.0954Zm-2.54971-.6599a.31414.31414,0,0,0-.3181.324.30323.30323,0,0,0,.216.30589l-.2041.8699h.288l.252-.828a.9759.9759,0,0,0,.0842-.34779A.314.314,0,0,0,209.27029,181.4355Zm-3.66609-3.5759v1.16989h.4261v-.7861h2.16l-1.728,3.816h.468l1.758-3.89391v-.30589Z" transform="translate(-112.716 -109.20309)" style="fill:#6e6e6e;fill-rule:evenodd"/><path d="M152.5425,190.433a3.9078,3.9078,0,1,1-3.87979,4.37579v-.93629a3.9087,3.9087,0,0,1,3.87979-3.4395" transform="translate(-112.716 -109.20309)" style="fill:#558e42;fill-rule:evenodd"/><polygon points="42.23 85.137 40.916 84.759 39.601 84.381 39.601 85.137 39.601 85.894 40.916 85.516 42.23 85.137" style="fill:#fdfdfd;fill-rule:evenodd"/><rect x="37.42239" y="84.9586" width="2.2813" height="0.38411" style="fill:#fdfdfd"/><path d="M294.42081,141.2261c0,.42349-.2554.64771-.525.64771a.56729.56729,0,0,1-.53552-.63022c0-.37778.20642-.61591.52841-.61591a.53613.53613,0,0,1,.5321.59842m-1.2739-.021a.78345.78345,0,0,0,.4198.74918c-.07343.00681-.14352.01053-.19962.01053-.6647,0-1.0043-.3396-1.0043-.868a.86029.86029,0,0,1,.11542-.4762l-.203-.1015a1.12557,1.12557,0,0,0-.1329.58109c0,.665.434,1.12,1.26709,1.12.77319,0,1.22479-.35349,1.22479-1.00458a.76328.76328,0,0,0-.75259-.83652A.74167.74167,0,0,0,293.14691,141.20511Zm1.25629,2.35559c0,.42691-.3606.7211-1.0148.7211-.65451,0-1.01511-.29419-1.01511-.7211s.3606-.72089,1.01511-.72089C294.0426,142.83981,294.4032,143.13379,294.4032,143.5607Zm.231,0c0-.56689-.46539-.98-1.24579-.98-.7807,0-1.24609.41312-1.24609.98s.46539.9765,1.24609.9765C294.16879,144.5372,294.63419,144.12759,294.63419,143.5607Zm-.38489,1.48761a.18315.18315,0,0,0,.189.18539.17668.17668,0,0,0,.17831-.12592l.50769.11911v-.16809l-.483-.14709a.57352.57352,0,0,0-.203-.0491A.18317.18317,0,0,0,294.2493,145.04831Zm-1.0361,1.3334-.8714-.69281h-.17859v1.575h.224v-1.253l.85071.67889h.18527v-.1749c0-.4552.1925-.66159.48651-.66159.30441,0,.4935.224.4935.62988a1.07436,1.07436,0,0,1-.28351.7597l.19962.12241a1.27482,1.27482,0,0,0,.31488-.88211c0-.59128-.31488-.88889-.72449-.88889C293.51761,145.5943,293.2413,145.85669,293.2132,146.38171Z" transform="translate(-112.716 -109.20309)" style="fill:#434242"/><path d="M300.2131,207.326l-.8714-.69281h-.17862v1.575h.224v-1.2529l.85062.67889h.18539v-.1749c0-.45531.1925-.66161.48639-.66161.3045,0,.49362.22391.49362.62981a1.07434,1.07434,0,0,1-.28351.75969l.19949.1225a1.2747,1.2747,0,0,0,.315-.88219c0-.59131-.315-.8889-.72461-.8889-.392,0-.6684.2625-.69638.7874m1.19,2.13849c0,.42691-.3606.7211-1.0148.7211-.6546,0-1.01511-.29419-1.01511-.7211s.3605-.72089,1.01511-.72089C301.04251,208.74361,301.40311,209.0376,301.40311,209.46449Zm.231,0c0-.56689-.46548-.97989-1.24579-.97989-.7807,0-1.24622.413-1.24622.97989s.46552.9765,1.24622.9765C301.16861,210.441,301.63409,210.0314,301.63409,209.46449Zm-.385,1.48761a.18314.18314,0,0,0,.18909.18539.17663.17663,0,0,0,.17828-.1259l.50772.11911v-.16811l-.483-.14709a.57409.57409,0,0,0-.203-.0491A.1832.1832,0,0,0,301.24912,210.9521Zm-1.036,1.33339-.8714-.69279h-.17862v1.575h.224v-1.2529l.85062.67891h.18539v-.17491c0-.45529.1925-.66159.48639-.66159.3045,0,.49362.22389.49362.62979a1.07436,1.07436,0,0,1-.28351.7597l.19949.1225a1.27477,1.27477,0,0,0,.315-.8822c0-.59129-.315-.8889-.72461-.8889C300.51749,211.49809,300.24109,211.7606,300.2131,212.28549Z" transform="translate(-112.716 -109.20309)" style="fill:#434242"/><path d="M303.4162,277.03481c0,.37779-.2063.616-.52841.616a.53631.53631,0,0,1-.532-.59871c0-.42349.25571-.64749.525-.64749a.56708.56708,0,0,1,.5354.6302m-1.2739.0278a.76323.76323,0,0,0,.75259.83649.74159.74159,0,0,0,.7348-.826.78291.78291,0,0,0-.4198-.749c.07339-.007.1434-.01039.19949-.01039.665,0,1.0043.33949,1.0043.86789a.85939.85939,0,0,1-.1153.476l.20291.10141a1.12382,1.12382,0,0,0,.133-.58081c0-.665-.434-1.11989-1.26712-1.11989C302.5939,276.0583,302.1423,276.4117,302.1423,277.06261Zm.021,2.89439h.68259v-.2486h-.45868v-1.26l2.2261,1.008v-.2729l-2.27142-1.0253h-.17859Zm2.086.43739a.18318.18318,0,0,0,.18909.18541.17666.17666,0,0,0,.17831-.1259l.50769.11909v-.16811l-.483-.14709a.57429.57429,0,0,0-.203-.0491A.1832.1832,0,0,0,304.2493,280.39439Zm.14011,1.89021-.819-.83311a1.00747,1.00747,0,0,0-.76651-.40259c-.40961,0-.66159.315-.66159.81219a1.1011,1.1011,0,0,0,.3501.8679l.1539-.1786a.832.832,0,0,1-.27289-.6684c0-.3744.1749-.574.45828-.574.16809,0,.33252.05251.6055.3288l.9975,1.01851h.17862V280.937h-.22391Z" transform="translate(-112.716 -109.20309)" style="fill:#434242"/><path d="M122.963,274.18629l-.8714-.69279h-.1786v1.57491h.2239v-1.2529l.8507.67889h.18539v-.1749c0-.45531.1925-.66161.4864-.66161.3045,0,.4935.22391.4935.62981a1.0743,1.0743,0,0,1-.2834.75969l.1995.12251a1.2748,1.2748,0,0,0,.315-.8822c0-.59131-.315-.8889-.7246-.8889-.392,0-.6684.2625-.6964.78749m1.1761,2.49561-.819-.8331a1.00759,1.00759,0,0,0-.7665-.4025c-.4096,0-.6616.3149-.6616.81209a1.10111,1.10111,0,0,0,.35011.8679l.1539-.1785a.83208.83208,0,0,1-.2729-.6684c0-.37451.1749-.5741.4583-.5741.1681,0,.3325.05249.6055.32889l.99751,1.0184h.1786V275.3343h-.2239Zm-.1401.9099a.18317.18317,0,0,0,.1891.18541.17677.17677,0,0,0,.1783-.1259l.5077.11909v-.16811l-.483-.14709a.5744.5744,0,0,0-.203-.0491A.18321.18321,0,0,0,123.999,277.5918Zm-1.036,1.3334-.8714-.69279h-.1786v1.575h.2239v-1.253l.8507.67891h.18539v-.17491c0-.4552.1925-.66159.4864-.66159.3045,0,.4935.224.4935.6299a1.07427,1.07427,0,0,1-.2834.75969l.1995.12241a1.27433,1.27433,0,0,0,.315-.8821c0-.59131-.315-.8889-.7246-.8889C123.2674,278.1378,122.991,278.40019,122.963,278.9252Z" transform="translate(-112.716 -109.20309)" style="fill:#434242"/><path d="M168.4032,222.8264c0,.4269-.3606.72119-1.0148.72119-.6545,0-1.01509-.2943-1.01509-.72119s.3606-.72079,1.01509-.72079c.65421,0,1.0148.2939,1.0148.72079m.231,0c0-.56689-.46541-.9799-1.2458-.9799-.7807,0-1.24609.413-1.24609.9799s.46539.97659,1.24609.97659C168.16879,223.803,168.6342,223.3934,168.6342,222.8264Zm-.2449,2.6252-.81889-.8331a1.00788,1.00788,0,0,0-.76651-.4025c-.40959,0-.66159.3149-.66159.8121a1.10129,1.10129,0,0,0,.35.868l.154-.1786a.832.832,0,0,1-.273-.6684c0-.3745.1749-.574.45839-.574.168,0,.3325.0524.60541.3288l.9975,1.01851h.1786V224.104h-.22391Zm-.14.9099a.18315.18315,0,0,0,.189.18541.17659.17659,0,0,0,.1783-.12581l.50771.119V226.372l-.483-.14709a.57329.57329,0,0,0-.203-.049A.18317.18317,0,0,0,168.2493,226.3615Zm-2.08611,1.6064h.224v-.57739h2.226v-.252h-2.45Z" transform="translate(-112.716 -109.20309)" style="fill:#434242"/><path d="M169.54469,148.7254c0,.42349-.25539.64771-.525.64771a.56723.56723,0,0,1-.5354-.6301c0-.3779.2063-.616.52831-.616a.5361.5361,0,0,1,.53209.59839m-1.2739-.021a.78346.78346,0,0,0,.4198.74921c-.07339.00677-.1434.0105-.19949.0105-.66481,0-1.00441-.3396-1.00441-.868a.86094.86094,0,0,1,.1154-.4762l-.203-.1015a1.12678,1.12678,0,0,0-.13289.58109c0,.6651.434,1.12,1.26709,1.12.7733,0,1.22481-.35352,1.22481-1.00461a.76336.76336,0,0,0-.75261-.83652A.74174.74174,0,0,0,168.2708,148.70441Zm1.2563,2.35559c0,.42691-.3605.72119-1.0148.72119-.6545,0-1.01511-.29428-1.01511-.72119s.36061-.72079,1.01511-.72079C169.1666,150.3392,169.5271,150.63309,169.5271,151.06Zm.231,0c0-.56689-.46541-.97989-1.2458-.97989-.78059,0-1.24609.413-1.24609.97989s.4655.97659,1.24609.97659C169.29269,152.03659,169.7581,151.62689,169.7581,151.06Zm-.3849,1.48761a.18318.18318,0,0,0,.1891.18539.17668.17668,0,0,0,.1783-.12579l.50771.119v-.16809l-.48311-.14709a.57308.57308,0,0,0-.2029-.049A.18319.18319,0,0,0,169.3732,152.54761Zm-1.0361,1.3335-.87129-.69281h-.1786v1.57492h.22389v-1.25293l.85071.67892h.18539v-.1749c0-.45532.1925-.66162.4864-.66162.3044,0,.4935.22391.4935.62982a1.07407,1.07407,0,0,1-.2834.75967l.19951.1225a1.27471,1.27471,0,0,0,.3149-.88217c0-.59131-.3149-.88892-.7245-.88892C168.6416,153.0936,168.3652,153.35611,168.3371,153.8811Z" transform="translate(-112.716 -109.20309)" style="fill:#434242"/><path d="M160.41769,189.25861v.3149l-.7807-.08391v-1.12h-.22389v1.3405l1.2285.1259v-.5213c0-.62309.19589-.8192.51109-.8192.29741,0,.50031.2205.50031.63721a1.06133,1.06133,0,0,1-.2834.75229l.19951.1225a1.26453,1.26453,0,0,0,.315-.87849c0-.5984-.3255-.8889-.7419-.8889-.4342,0-.7245.28-.7245,1.01851m.04541,1.74979-.8714-.69279h-.1786v1.57491h.22389v-1.2529l.85071.67889h.18539v-.1749c0-.4552.1925-.66161.4864-.66161.3045,0,.4935.224.4935.6299a1.07431,1.07431,0,0,1-.2834.7597l.19951.12241a1.27459,1.27459,0,0,0,.315-.88211c0-.59129-.315-.889-.72459-.889C160.7675,190.2209,160.4911,190.4834,160.4631,191.00839Zm1.036,1.4176a.18318.18318,0,0,0,.1891.18541.17676.17676,0,0,0,.1783-.1259l.50771.11909v-.16811l-.48311-.14709a.57347.57347,0,0,0-.2029-.0491A.18321.18321,0,0,0,161.4991,192.426Zm-2.086,1.6064h.22389V193.455h2.2261v-.252h-2.45Z" transform="translate(-112.716 -109.20309)" style="fill:#434242"/><path d="M200.6705,124.10989c0,.42349-.2554.64771-.525.64771a.56722.56722,0,0,1-.53539-.6301c0-.3779.2063-.616.5284-.616a.53605.53605,0,0,1,.532.59839m-1.2739-.021a.78346.78346,0,0,0,.4198.74921c-.07341.00681-.1434.0105-.19951.0105-.6647,0-1.0043-.3396-1.0043-.868a.86085.86085,0,0,1,.11531-.4762l-.20291-.1015a1.12615,1.12615,0,0,0-.133.58112c0,.6651.434,1.12,1.26711,1.12.7733,0,1.2249-.35352,1.2249-1.00461a.76339.76339,0,0,0-.75261-.83649A.74175.74175,0,0,0,199.39661,124.0889Zm-.98361,2.429h.22391v-.57742h2.2261v-.252h-2.45Zm2.086.35687a.18318.18318,0,0,0,.1891.18542.17664.17664,0,0,0,.1783-.12592l.50771.11911v-.16812l-.483-.14709a.574.574,0,0,0-.203-.049A.18318.18318,0,0,0,200.499,126.87479Zm-2.086,1.60641h.22391v-.57739h2.2261v-.252h-2.45Z" transform="translate(-112.716 -109.20309)" style="fill:#434242"/><line x1="180.7373" y1="39.31482" x2="180.7373" y2="64.7538" style="fill:none;stroke:#b1b2b2;stroke-miterlimit:22.92558479309082;stroke-width:0.2160000056028366px"/><line x1="187.73718" y1="105.315" x2="187.73718" y2="131.89861" style="fill:none;stroke:#b1b2b2;stroke-miterlimit:22.92558479309082;stroke-width:0.2160000056028366px"/><line x1="190.7374" y1="174.81511" x2="190.7374" y2="194.64181" style="fill:none;stroke:#b1b2b2;stroke-miterlimit:22.92558479309082;stroke-width:0.2160000056028366px"/><line x1="10.4871" y1="172.06491" x2="10.4871" y2="198.119" style="fill:none;stroke:#b1b2b2;stroke-miterlimit:22.92558479309082;stroke-width:0.2160000056028366px"/><line x1="55.86119" y1="46.81412" x2="55.86119" y2="66.05971" style="fill:none;stroke:#b1b2b2;stroke-miterlimit:22.92558479309082;stroke-width:0.2160000056028366px"/><line x1="47.98709" y1="86.56491" x2="47.98709" y2="93.3134" style="fill:none;stroke:#b1b2b2;stroke-miterlimit:22.92558479309082;stroke-width:0.2160000056028366px"/><line x1="86.98709" y1="21.31482" x2="86.98709" y2="28.0632" style="fill:none;stroke:#b1b2b2;stroke-miterlimit:22.92558479309082;stroke-width:0.2160000056028366px"/><line x1="180.7373" y1="5.00201" x2="180.7373" y2="29.8757" style="fill:none;stroke:#b1b2b2;stroke-miterlimit:22.92558479309082;stroke-width:0.2160000056028366px"/><line x1="187.73718" y1="73.7932" x2="187.73718" y2="95.8759" style="fill:none;stroke:#b1b2b2;stroke-miterlimit:22.92558479309082;stroke-width:0.2160000056028366px"/><line x1="190.7374" y1="141.3788" x2="190.7374" y2="165.37601" style="fill:none;stroke:#b1b2b2;stroke-miterlimit:22.92558479309082;stroke-width:0.2160000056028366px"/><line x1="10.4871" y1="134.7137" x2="10.4871" y2="162.6259" style="fill:none;stroke:#b1b2b2;stroke-miterlimit:22.92558479309082;stroke-width:0.2160000056028366px"/><line x1="54.73729" y1="97.76151" x2="54.73729" y2="110.8757" style="fill:none;stroke:#b1b2b2;stroke-miterlimit:22.92558479309082;stroke-width:0.2160000056028366px"/><line x1="55.86119" y1="6.7229" x2="55.86119" y2="37.37509" style="fill:none;stroke:#b1b2b2;stroke-miterlimit:22.92558479309082;stroke-width:0.2160000056028366px"/><line x1="47.98709" y1="70.37741" x2="47.98709" y2="77.1259" style="fill:none;stroke:#b1b2b2;stroke-miterlimit:22.92558479309082;stroke-width:0.2160000056028366px"/><line x1="86.98709" y1="5.12732" x2="86.98709" y2="11.8757" style="fill:none;stroke:#b1b2b2;stroke-miterlimit:22.92558479309082;stroke-width:0.2160000056028366px"/><path d="M248.1163,117.13641h-.315l.08389-.7807h1.12v-.22391h-1.3405l-.1259,1.22849h.5213c.62309,0,.8192.19592.8192.51111,0,.29739-.2205.50031-.63721.50031a1.06134,1.06134,0,0,1-.75229-.28342l-.12251.19952a1.26468,1.26468,0,0,0,.87851.315c.59839,0,.8889-.3255.8889-.74191,0-.4342-.28-.72449-1.0184-.72449m-2.058-1.00461v.22391h.57739v2.22607h.252v-2.45Zm-.3569,2.086a.18316.18316,0,0,0-.18539.18909.17676.17676,0,0,0,.1259.17831l-.11911.50769h.16811l.14709-.48309a.57347.57347,0,0,0,.0491-.20291A.1832.1832,0,0,0,245.7014,118.2178Zm-1.5293-1.08139h-.31491l.08391-.7807h1.12v-.22391h-1.3405l-.1259,1.22849h.5213c.62311,0,.8192.19592.8192.51111,0,.29739-.22049.50031-.63719.50031a1.06138,1.06138,0,0,1-.7523-.28342l-.1225.19952a1.26461,1.26461,0,0,0,.87849.315c.5984,0,.8889-.3255.8889-.74191C245.1906,117.4267,244.9106,117.13641,244.1721,117.13641Z" transform="translate(-112.716 -109.20309)" style="fill:#434242"/><path d="M264.48209,238.6219c-.42688,0-.72119-.3605-.72119-1.0148,0-.6545.29431-1.01511.72119-1.01511s.72083.36061.72083,1.01511c0,.6543-.29391,1.0148-.72083,1.0148m0,.23109c.56692,0,.97992-.4655.97992-1.2459,0-.78061-.413-1.24611-.97992-1.24611s-.97659.4655-.97659,1.24611C263.50549,238.3875,263.9151,238.853,264.48209,238.853Zm-2.39047-2.471v.22389h.57739v2.2261h.252v-2.45Zm-.3569,2.086a.18315.18315,0,0,0-.1853.1891.1767.1767,0,0,0,.12579.1783l-.119.50769h.16809l.14709-.48309a.57537.57537,0,0,0,.049-.2029A.18322.18322,0,0,0,261.73471,238.468Zm-.49323-.504h-.49008v-.56691h-.2449v.56691h-1.06409l1.2529-1.582h-.27982l-1.29858,1.624v.182h1.38248v.644h.252v-.644h.49008Z" transform="translate(-112.716 -109.20309)" style="fill:#434242"/><path d="M260.70041,169.8821v.22391h.57739v2.226h.252V169.8821Zm-1.15152,2.25751c-.4339,0-.6893-.1891-.6893-.4935,0-.3011.2554-.4901.6893-.4901s.69312.189.69312.4901C260.242,171.9505,259.98291,172.1396,259.54889,172.1396Zm-.60538-1.624c0-.273.23468-.4411.60538-.4411.36771,0,.60922.16811.60922.4445,0,.2662-.2276.4377-.60922.4377C259.16769,170.9567,258.94351,170.7852,258.94351,170.51559Zm1.078.5321a.555.555,0,0,0,.392-.5392c0-.3988-.34641-.6474-.86462-.6474-.51779,0-.85739.2486-.85739.6474a.553.553,0,0,0,.38519.5392.611.611,0,0,0-.4725.60181c0,.434.35681.70349.9447.70349.5845,0,.95221-.2695.95221-.70349A.61688.61688,0,0,0,260.02151,171.0477Zm-1.988.92039a.18316.18316,0,0,0-.1853.1891.17677.17677,0,0,0,.12579.1783l-.119.5076h.16809l.14709-.483a.57573.57573,0,0,0,.049-.2029A.18323.18323,0,0,0,258.03351,171.96809Zm-1.3334-1.03609.69281-.87141v-.1785H255.818v.22391h1.2529l-.67889.85069v.18541h.1749c.4552,0,.66159.1924.66159.48639,0,.3044-.22388.4935-.62988.4935a1.07407,1.07407,0,0,1-.7596-.28349l-.1225.1996a1.2746,1.2746,0,0,0,.8821.3149c.5914,0,.889-.3149.889-.7245C257.48761,171.2365,257.2251,170.9601,256.7001,170.932Z" transform="translate(-112.716 -109.20309)" style="fill:#434242"/><path d="M197.84241,304.6221c-.42691,0-.7211-.3605-.7211-1.0148,0-.6545.29419-1.0151.7211-1.0151s.72079.3606.72079,1.0151c0,.6543-.2939,1.0148-.72079,1.0148m0,.2311c.56689,0,.97989-.4655.97989-1.2459,0-.7806-.413-1.2461-.97989-1.2461s-.9765.4655-.9765,1.2461C196.86591,304.3877,197.2755,304.8532,197.84241,304.8532Zm-3.0379-2.471v.68259h.2486v-.45869h1.26l-1.008,2.2261h.273l1.0253-2.2714v-.1786Zm-.43741,2.086a.18317.18317,0,0,0-.18539.1891.17677.17677,0,0,0,.1259.1783l-.11909.5077h.16809l.14709-.4831a.57317.57317,0,0,0,.0491-.2029A.18321.18321,0,0,0,194.3671,304.4682Zm-2.1384-2.086v.68259h.2486v-.45869h1.26l-1.008,2.2261h.2729l1.0253-2.2714v-.1786Z" transform="translate(-112.716 -109.20309)" style="fill:#434242"/><path d="M296.566,302.3524c-.42691,0-.7211-.3605-.7211-1.0148,0-.6545.29419-1.0151.7211-1.0151s.72089.3606.72089,1.0151c0,.6543-.294,1.0148-.72089,1.0148m0,.23109c.56689,0,.98-.4655.98-1.2459,0-.7806-.41309-1.2461-.98-1.2461s-.9765.4655-.9765,1.2461C295.58951,302.118,295.99912,302.5835,296.566,302.5835Zm-2.62512-.245.8331-.8189a1.00779,1.00779,0,0,0,.40253-.7665c0-.4096-.315-.6616-.81223-.6616a1.10109,1.10109,0,0,0-.86789.3501l.17859.1539a.83206.83206,0,0,1,.66843-.273c.37439,0,.574.1749.574.4584,0,.1681-.05249.3325-.3288.6055l-1.01849.9975v.1786h1.71829v-.224Zm-.91-.14a.18318.18318,0,0,0-.18542.18909.17679.17679,0,0,0,.12592.17831l-.11911.5077h.16809l.14722-.4831a.57533.57533,0,0,0,.049-.2029A.18322.18322,0,0,0,293.03091,302.1985Zm-1.60641-2.086v.2239h.57751v2.2261h.252v-2.45Z" transform="translate(-112.716 -109.20309)" style="fill:#434242"/><path d="M179.5173,136.85141c-.42691,0-.72121-.3606-.72121-1.0148,0-.6546.2943-1.01511.72121-1.01511s.72079.3605.72079,1.01511c0,.65421-.2939,1.0148-.72079,1.0148m0,.231c.56689,0,.97989-.46548.97989-1.24579,0-.7807-.413-1.24622-.97989-1.24622s-.97661.46552-.97661,1.24622C178.5407,136.61691,178.9503,137.0824,179.5173,137.0824Zm-2.2785-.2135c-.434,0-.68941-.189-.68941-.4935,0-.301.2554-.49011.68941-.49011s.693.18912.693.49011C177.93179,136.6799,177.67281,136.8689,177.2388,136.8689Zm-.6055-1.6239c0-.273.2347-.4411.6055-.4411.3676,0,.6091.16809.6091.44452,0,.26608-.2276.43759-.6091.43759C176.8575,135.686,176.6333,135.5145,176.6333,135.245Zm1.078.532a.5549.5549,0,0,0,.392-.53912c0-.3989-.34641-.64749-.8645-.64749-.5179,0-.8575.2486-.8575.64749a.55292.55292,0,0,0,.38519.53912.611.611,0,0,0-.47249.60178c0,.434.35689.70361.94479.70361.5845,0,.9521-.26959.9521-.70361A.61694.61694,0,0,0,177.7113,135.777Zm-1.9879.92038a.18318.18318,0,0,0-.18541.18912.17666.17666,0,0,0,.12581.17828l-.119.50772h.16811l.14709-.483a.57378.57378,0,0,0,.049-.203A.18321.18321,0,0,0,175.7234,136.69739Zm-1.6064-2.086v.224h.57739v2.226h.252v-2.45Z" transform="translate(-112.716 -109.20309)" style="fill:#434242"/><line x1="128.90829" y1="8.21872" x2="83.09109" y2="8.21872" style="fill:none;stroke:#b1b2b2;stroke-miterlimit:22.92558479309082;stroke-width:0.2160000056028366px"/><line x1="144.90851" y1="128.4689" x2="109.2787" y2="128.4689" style="fill:none;stroke:#b1b2b2;stroke-miterlimit:22.92558479309082;stroke-width:0.2160000056028366px"/><line x1="141.4086" y1="61.96901" x2="109.2787" y2="61.96901" style="fill:none;stroke:#b1b2b2;stroke-miterlimit:22.92558479309082;stroke-width:0.2160000056028366px"/><line x1="78.1586" y1="194.46911" x2="6.3723" y2="194.46911" style="fill:none;stroke:#b1b2b2;stroke-miterlimit:22.92558479309082;stroke-width:0.2160000056028366px"/><line x1="177.1586" y1="192.1994" x2="170.4101" y2="192.1994" style="fill:none;stroke:#b1b2b2;stroke-miterlimit:22.92558479309082;stroke-width:0.2160000056028366px"/><line x1="59.9805" y1="26.69839" x2="42.91969" y2="26.69839" style="fill:none;stroke:#b1b2b2;stroke-miterlimit:22.92558479309082;stroke-width:0.2160000056028366px"/><line x1="184.91669" y1="8.21872" x2="138.3474" y2="8.21872" style="fill:none;stroke:#b1b2b2;stroke-miterlimit:22.92558479309082;stroke-width:0.2160000056028366px"/><line x1="191.50378" y1="128.4689" x2="154.3476" y2="128.4689" style="fill:none;stroke:#b1b2b2;stroke-miterlimit:22.92558479309082;stroke-width:0.2160000056028366px"/><line x1="185.57489" y1="61.96901" x2="150.84769" y2="61.96901" style="fill:none;stroke:#b1b2b2;stroke-miterlimit:22.92558479309082;stroke-width:0.2160000056028366px"/><line x1="158.91699" y1="194.46911" x2="87.5976" y2="194.46911" style="fill:none;stroke:#b1b2b2;stroke-miterlimit:22.92558479309082;stroke-width:0.2160000056028366px"/><line x1="193.3461" y1="192.1994" x2="186.5976" y2="192.1994" style="fill:none;stroke:#b1b2b2;stroke-miterlimit:22.92558479309082;stroke-width:0.2160000056028366px"/><line x1="76.16809" y1="26.69839" x2="69.4196" y2="26.69839" style="fill:none;stroke:#b1b2b2;stroke-miterlimit:22.92558479309082;stroke-width:0.2160000056028366px"/></svg>