<svg id="Слой_1" data-name="Слой 1" xmlns="http://www.w3.org/2000/svg" viewBox="0 0 135.7271 181.80991"><title>1.01.15</title><polygon points="135.727 178.783 72.14 178.783 72.14 181.81 0 181.81 0 0.613 135.727 0.613 135.727 178.783" style="fill:#fff;fill-rule:evenodd"/><path d="M221.7932,215.7157l3.9254-3.8593c1.55031-1.5174,1.89661-2.507,1.89661-3.6122,0-1.9296-1.4845-3.11731-3.8264-3.11731a5.18729,5.18729,0,0,0-4.09041,1.64951l.84131.72571a3.91893,3.91893,0,0,1,3.1501-1.28641c1.76489,0,2.7048.8246,2.7048,2.1606,0,.7917-.2471,1.5667-1.5502,2.8533l-4.79961,4.7007v.84109h8.0983V215.7157Z" transform="translate(-144.7347 -121.6937)" style="fill:#fff;fill-rule:evenodd"/><path d="M157.9147,128.8877h-2.5432v6.9599h2.5432Zm4.3362,0h-2.5433v6.9599h2.5433Zm4.4416,4.068h-2.5433v2.89191h2.5433Zm0-4.068h-2.5433v2.89191h2.5433ZM153.52209,123.636h14.3513v13.46542h-14.3513Z" transform="translate(-144.7347 -121.6937)" style="fill:#003915;fill-rule:evenodd"/><path d="M225.2103,140.0766v-2.54321h-6.9599v2.54321Zm0,4.33621v-2.5433h-6.9599v2.5433Zm-4.068,4.44159v-2.5433H218.2504v2.5433Zm4.068,0v-2.5433h-2.89189v2.5433Zm-6.9928-15.54831h6.9928v2.539h-6.9928Zm-2.2254-5.84509H227.9622v24.27341H215.9921Z" transform="translate(-144.7347 -121.6937)" style="fill:#003915;fill-rule:evenodd"/><path d="M194.6662,150.52341a.374.374,0,1,0,.6474-.37469l-8.0399-13.92011a.374.374,0,1,0-.6474.37469Z" transform="translate(-144.7347 -121.6937)" style="fill:#003915"/><path d="M194.6662,186.86391a.374.374,0,0,0,.6474-.3748L187.2737,172.569a.374.374,0,1,0-.6474.3748Z" transform="translate(-144.7347 -121.6937)" style="fill:#003915"/><path d="M194.54491,210.54021a.374.374,0,1,0,.37469.64749l13.92011-8.0399a.37407.37407,0,0,0-.3748-.64749Z" transform="translate(-144.7347 -121.6937)" style="fill:#003915"/><path d="M247.71091,268.526a.374.374,0,0,1-.37471.64749l-13.92009-8.03989a.37405.37405,0,1,1,.37469-.64751Z" transform="translate(-144.7347 -121.6937)" style="fill:#003915"/><rect x="40.2565" y="5.72342" width="2.6022" height="9.27948" style="fill:#003915"/><rect x="69.93701" y="6.0148" width="2.60219" height="44.0376" style="fill:#003915"/><rect x="40.2565" y="30.78452" width="2.6022" height="21.37099" style="fill:#003915"/><rect x="40.2565" y="67.58301" width="2.6022" height="13.8793" style="fill:#003915"/><rect x="64.44031" y="79.4225" width="2.6022" height="58.68001" style="fill:#003915"/><rect y="47.4502" width="3.18871" height="2.6022" style="fill:#003915"/><rect x="1.8959" y="38.73141" width="40.02679" height="2.6022" style="fill:#003915"/><rect x="1.8959" y="76.23491" width="40.02679" height="2.60219" style="fill:#003915"/><rect x="1.8959" y="79.4225" width="44.20261" height="2.6022" style="fill:#003915"/><rect x="63.5834" y="79.4225" width="2.91521" height="2.6022" style="fill:#003915"/><rect y="50.6378" width="3.18871" height="2.6022" style="fill:#003915"/><rect x="132.1226" y="95.0601" width="3.60449" height="2.6022" style="fill:#003915"/><rect y="2.9823" width="5.00211" height="173.5203" style="fill:#003915"/><rect x="130.72511" y="2.9823" width="5.00198" height="173.5203" style="fill:#003915"/><rect width="42.8587" height="6.42551" style="fill:#003915"/><rect x="62.1933" width="73.5338" height="6.42551" style="fill:#003915"/><rect x="102.71851" y="142.57021" width="33.00859" height="8.1601" style="fill:#003915"/><rect x="130.72511" y="113.6225" width="5.00198" height="8.16011" style="fill:#003915"/><rect y="172.6622" width="19.7388" height="8.1601" style="fill:#003915"/><rect x="48.8654" y="172.6622" width="23.3932" height="8.1601" style="fill:#003915"/><rect x="64.3791" y="37.26822" width="8.1601" height="12.78418" style="fill:#003915"/><rect x="64.44031" y="135.70241" width="8.1601" height="45.1199" style="fill:#003915"/><rect x="130.72511" y="113.6225" width="5.00198" height="67.19981" style="fill:#003915"/><rect x="128.2632" y="142.9024" width="7.4639" height="37.9199" style="fill:#003915"/><rect x="33.5997" y="175.66321" width="0.50171" height="2.2986" style="fill:#003915"/><rect x="34.7984" y="175.66321" width="0.50121" height="2.2986" style="fill:#003915"/><rect x="47.43561" y="175.66321" width="0.5014" height="2.2986" style="fill:#003915"/><rect x="48.63411" y="175.66321" width="0.5011" height="2.2986" style="fill:#003915"/><rect x="19.4879" y="175.66321" width="0.5018" height="2.2986" style="fill:#003915"/><rect x="20.6864" y="175.66321" width="0.50121" height="2.2986" style="fill:#003915"/><rect x="17.0983" y="172.6613" width="34.0937" height="0.50151" style="fill:#003915"/><rect x="17.0983" y="175.50851" width="34.0937" height="0.5014" style="fill:#003915"/><rect x="17.0983" y="177.6798" width="34.0937" height="0.5014" style="fill:#003915"/><rect x="17.0983" y="180.3208" width="34.0937" height="0.5015" style="fill:#003915"/><path d="M229.2299,269.0762V267.4063h.697v1.66991Zm-12.98981.5015h13.6868v2.3457H216.2401v.5014h14.188v-8.1609h-14.188v.5014h13.6868v2.13959H216.2401v.5014h12.4883v1.66991H216.2401Z" transform="translate(-144.7347 -121.6937)" style="fill:#003915;fill-rule:evenodd"/><rect x="75.80301" y="176.1936" width="0.44699" height="1.2971" style="fill:#003915"/><rect x="76.87111" y="176.1936" width="0.4467" height="1.2971" style="fill:#003915"/><rect x="94.40511" y="176.1936" width="0.44701" height="1.2971" style="fill:#003915"/><rect x="95.47321" y="176.1936" width="0.4467" height="1.2971" style="fill:#003915"/><rect x="113.0074" y="176.1936" width="0.44711" height="1.2971" style="fill:#003915"/><rect x="114.07552" y="176.1936" width="0.44678" height="1.2971" style="fill:#003915"/><rect x="131.6104" y="176.1936" width="0.44702" height="1.2971" style="fill:#003915"/><rect x="132.67851" y="176.1936" width="0.44669" height="1.2971" style="fill:#003915"/><rect x="57.20061" y="176.1936" width="0.4471" height="1.2971" style="fill:#003915"/><rect x="58.26871" y="176.1936" width="0.44679" height="1.2971" style="fill:#003915"/><rect x="55.7677" y="174.9642" width="79.0056" height="0.4467" style="fill:#003915"/><rect x="55.7677" y="176.0555" width="79.0056" height="0.4468" style="fill:#003915"/><rect x="55.7677" y="177.13641" width="79.0056" height="0.4467" style="fill:#003915"/><path d="M180.5043,163.13651H170.682a.9052.9052,0,0,0-.90541.9039v4.61029a4.59568,4.59568,0,0,0,4.58951,4.591h2.4523a4.59573,4.59573,0,0,0,4.59039-4.591v-4.61029a.90462.90462,0,0,0-.9045-.9039m-6.1382,9.8606a4.35109,4.35109,0,0,1-4.34491-4.34641v-4.61029a.66145.66145,0,0,1,.66081-.65991h9.8223a.66068.66068,0,0,1,.6599.65991v4.61029a4.35147,4.35147,0,0,1-4.34579,4.34641Z" transform="translate(-144.7347 -121.6937)" style="fill:#003915"/><path d="M174.36639,171.90691a3.25877,3.25877,0,0,1-3.25439-3.25621v-2.68811a.56783.56783,0,0,1,.5672-.56747h3.5753v-.24521h-3.5753a.814.814,0,0,0-.81239.81268v2.68811a3.50406,3.50406,0,0,0,3.49959,3.50081h2.4523a3.50471,3.50471,0,0,0,3.50081-3.50081v-2.68811a.81449.81449,0,0,0-.8136-.81268h-3.5753v.24521h3.5753a.56833.56833,0,0,1,.56839.56747v2.68811a3.25941,3.25941,0,0,1-3.2556,3.25621Z" transform="translate(-144.7347 -121.6937)" style="fill:#003915"/><path d="M175.59331,168.30319a.7835.7835,0,1,0,.78369.78351.78469.78469,0,0,0-.78369-.78351m0,1.32231a.5387.5387,0,1,1,.53909-.5388A.53962.53962,0,0,1,175.59331,169.6255Z" transform="translate(-144.7347 -121.6937)" style="fill:#003915"/><rect x="30.7361" y="46.83429" width="0.2449" height="1.11652" style="fill:#003915"/><rect x="30.30011" y="47.2699" width="1.116" height="0.24551" style="fill:#003915"/><path d="M175.9306,164.31879h.40359a.17359.17359,0,0,1,.1729.174v.3793a.17366.17366,0,0,1-.1729.1741h-.40359v.2449h.40359a.41869.41869,0,0,0,.41811-.419v-.3793a.41855.41855,0,0,0-.41811-.41861h-.40559l.002.03741Zm-1.07721.72742a.17447.17447,0,0,1-.174-.1741v-.3793a.1744.1744,0,0,1,.174-.174h.40111v-.20718l.0023-.03741h-.40341a.41856.41856,0,0,0-.4187.41861v.3793a.4187.4187,0,0,0,.4187.419h.40111v-.2449Z" transform="translate(-144.7347 -121.6937)" style="fill:#003915"/><path d="M175.59331,163.65121a.461.461,0,0,0-.46121.46039V167.192a.46045.46045,0,0,0,.9209,0V164.1116a.46051.46051,0,0,0-.45969-.46039m0,3.75677a.21671.21671,0,0,1-.21631-.216V164.1116a.21555.21555,0,0,1,.43111,0V167.192A.21607.21607,0,0,1,175.59331,167.408Z" transform="translate(-144.7347 -121.6937)" style="fill:#003915"/><path d="M164.2921,146.33691a3.917,3.917,0,0,1-3.913,3.91159h-5.6653a.6774.6774,0,0,1-.63921-.45612,1.24475,1.24475,0,0,1-.20489.20352.94566.94566,0,0,0,.8441.52158h5.6653a4.18085,4.18085,0,1,0,0-8.36169h-5.6653a.94555.94555,0,0,0-.84361.521,1.2412,1.2412,0,0,1,.20471.20331.67623.67623,0,0,1,.6389-.45551h5.6653a3.91708,3.91708,0,0,1,3.913,3.91232" transform="translate(-144.7347 -121.6937)" style="fill:#003915"/><path d="M155.79469,143.5332v5.60889a.204.204,0,0,0,.20151.20132h4.27071a3.00661,3.00661,0,1,0,0-6.01321H155.9962a.20468.20468,0,0,0-.20151.203m.26811,5.54138v-5.47589h4.2041a2.73795,2.73795,0,0,1,0,5.47589Z" transform="translate(-144.7347 -121.6937)" style="fill:#003915"/><path d="M158.5256,146.33719a1.00815,1.00815,0,1,0,1.008-1.00879,1.01,1.01,0,0,0-1.008,1.00879m1.7475,0a.7394.7394,0,1,1-.7395-.73978A.74032.74032,0,0,1,160.2731,146.33719Z" transform="translate(-144.7347 -121.6937)" style="fill:#003915"/><rect x="156.32829" y="147.82435" width="2.24223" height="0.26854" transform="translate(-201.95463 1.78755) rotate(-36.71509)" style="fill:#003915"/><rect x="157.31501" y="143.63777" width="0.26918" height="2.24306" transform="translate(-197.51992 62.39688) rotate(-53.19201)" style="fill:#003915"/><path d="M150.29289,143.63641v5.40048a1.355,1.355,0,0,0,1.35381,1.35242h1.4743a1.35346,1.35346,0,0,0,1.3524-1.35242v-5.40048a1.35322,1.35322,0,0,0-1.3524-1.35193h-1.4743a1.3548,1.3548,0,0,0-1.35381,1.35193m3.91211,5.40048a1.08544,1.08544,0,0,1-1.084,1.08429h-1.4743a1.08586,1.08586,0,0,1-1.0851-1.08429v-5.40048a1.08593,1.08593,0,0,1,1.0851-1.08371h1.4743a1.08551,1.08551,0,0,1,1.084,1.08371Z" transform="translate(-144.7347 -121.6937)" style="fill:#003915"/><path d="M151.69521,146.33719a.6881.6881,0,1,0,.68739-.6882.68809.68809,0,0,0-.68739.6882m1.10719,0a.41925.41925,0,1,1-.4198-.41949A.41943.41943,0,0,1,152.8024,146.33719Z" transform="translate(-144.7347 -121.6937)" style="fill:#003915"/><path d="M172.25211,152.02521h0v7.83948H183.6v-7.83948Zm-.33081,8.1709v-8.5025h12.00981v8.5025Z" transform="translate(-144.7347 -121.6937)" style="fill:#003915"/><path d="M174.6465,151.80069a.60438.60438,0,0,1,.5936-.61258h5.37221a.604.604,0,0,1,.5938.61258h-.3308a.26966.26966,0,0,0-.263-.28088H175.2401a.2695.2695,0,0,0-.2628.28088Z" transform="translate(-144.7347 -121.6937)" style="fill:#003915"/><path d="M176.9043,154.42731h0v2.70758l1.59731.6217a2.47422,2.47422,0,0,0-.0918-1.67468,4.1515,4.1515,0,0,1-.2413-1.24072,2.44768,2.44768,0,0,1,.18829-.93658Zm-.3308,2.93408v-3.16678l2.48-.89212-.22479.39059a2.26719,2.26719,0,0,0-.32941,1.1481,3.89029,3.89029,0,0,0,.22681,1.14371,3.898,3.898,0,0,1,.2282,1.1441,2.01809,2.01809,0,0,1-.218.91251l-.0674.13568Z" transform="translate(-144.7347 -121.6937)" style="fill:#003915"/><path d="M150.1075,165.28769V195.3726a2.161,2.161,0,0,0,2.1657,2.15149H162.6846a2.16086,2.16086,0,0,0,2.16589-2.15149V165.28769a2.1608,2.1608,0,0,0-2.16589-2.15118H152.27319a2.161,2.161,0,0,0-2.1657,2.15118m14.51311,30.08492a1.93108,1.93108,0,0,1-1.936,1.92189H152.27319a1.931,1.931,0,0,1-1.93549-1.92189V165.28769a1.9314,1.9314,0,0,1,1.93549-1.92218H162.6846a1.93151,1.93151,0,0,1,1.936,1.92218Z" transform="translate(-144.7347 -121.6937)" style="fill:#003915"/><path d="M163.3586,192.3869a2.57694,2.57694,0,0,1-2.582,2.56529h-6.5948A2.57651,2.57651,0,0,1,151.6,192.3869V168.27371a2.577,2.577,0,0,1,2.58179-2.56592h2.0619a.39577.39577,0,0,1-.142-.22818h-1.91991a2.80639,2.80639,0,0,0-2.81259,2.7941V192.3869a2.80667,2.80667,0,0,0,2.81259,2.7944h6.5948a2.80659,2.80659,0,0,0,2.81221-2.7944V168.27371a2.80631,2.80631,0,0,0-2.81221-2.7941h-1.9202a.39557.39557,0,0,1-.14149.22818h2.06169a2.57746,2.57746,0,0,1,2.582,2.56592Z" transform="translate(-144.7347 -121.6937)" style="fill:#003915"/><path d="M162.04539,190.83949a1.26672,1.26672,0,0,1-1.2688,1.26111h-6.5948a1.26642,1.26642,0,0,1-1.2683-1.26111V168.27371a1.26623,1.26623,0,0,1,1.2683-1.26141h2.8448v-.22879h-2.8448a1.49621,1.49621,0,0,0-1.499,1.4902v22.56578a1.4957,1.4957,0,0,0,1.499,1.4893h6.5948a1.4953,1.4953,0,0,0,1.4989-1.4893V168.27371a1.49581,1.49581,0,0,0-1.4989-1.4902h-2.8452v.22879h2.8452a1.26653,1.26653,0,0,1,1.2688,1.26141Z" transform="translate(-144.7347 -121.6937)" style="fill:#003915"/><path d="M156.74631,170.17889a.73331.73331,0,1,0,.7336-.73.73151.73151,0,0,0-.7336.73m1.23639,0a.50326.50326,0,1,1-.50279-.5004A.5018.5018,0,0,1,157.9827,170.17889Z" transform="translate(-144.7347 -121.6937)" style="fill:#003915"/><rect x="12.22191" y="48.3701" width="1.0457" height="0.22931" style="fill:#003915"/><rect x="12.62981" y="47.96581" width="0.2307" height="1.0378" style="fill:#003915"/><path d="M157.0266,165.67889h-.5374a.28.28,0,0,1-.2804-.27869v-.5051a.28035.28035,0,0,1,.2804-.27921h.5374v-.22882h-.5374a.51036.51036,0,0,0-.51109.508v.5051a.50963.50963,0,0,0,.51109.50739h.5374Zm1.72211-.27869a.27992.27992,0,0,1-.28011.27869h-.5372v.2287h.5372a.50919.50919,0,0,0,.5108-.50739v-.5051a.50991.50991,0,0,0-.5108-.508h-.5372v.22882h.5372a.28028.28028,0,0,1,.28011.27921Z" transform="translate(-144.7347 -121.6937)" style="fill:#003915"/><path d="M156.91119,164.3891v3.2012a.56766.56766,0,0,0,1.1353,0v-3.2012a.56766.56766,0,0,0-1.1353,0m.90511,3.2012a.33715.33715,0,0,1-.6743,0v-3.2012a.33716.33716,0,0,1,.6743,0Z" transform="translate(-144.7347 -121.6937)" style="fill:#003915"/><path d="M230.42641,140.33969H242.1955V128.5708H230.42641Zm11.5197-.24948h-11.2706V128.8197h11.2706Z" transform="translate(-144.7347 -121.6937)" style="fill:#003915"/><path d="M236.31081,129.66888a3.91956,3.91956,0,0,1,.9816,7.7142.30018.30018,0,0,1,.0743.1976v.0405a4.16846,4.16846,0,1,0-2.1115.00031v-.0408a.29853.29853,0,0,1,.074-.1973,3.91973,3.91973,0,0,1,.98161-7.71451" transform="translate(-144.7347 -121.6937)" style="fill:#003915"/><path d="M236.31081,137.06961a3.48151,3.48151,0,1,0-3.4812-3.48181,3.48572,3.48572,0,0,0,3.4812,3.48181m0-6.71362a3.23195,3.23195,0,1,1-3.23181,3.23181A3.2355,3.2355,0,0,1,236.31081,130.356Z" transform="translate(-144.7347 -121.6937)" style="fill:#003915"/><path d="M236.31081,134.49039a.9023.9023,0,1,0-.90251-.90259.90325.90325,0,0,0,.90251.90259m0-1.55569a.653.653,0,1,1-.65311.65311A.65426.65426,0,0,1,236.31081,132.93469Z" transform="translate(-144.7347 -121.6937)" style="fill:#003915"/><rect x="91.4514" y="11.23761" width="0.2494" height="1.3139" style="fill:#003915"/><rect x="90.91931" y="11.76971" width="1.3136" height="0.24969" style="fill:#003915"/><path d="M235.5571,138.3945h1.5074a.427.427,0,0,0,.42661-.42661v-.38721a.42684.42684,0,0,0-.42661-.42657h-1.5074a.42684.42684,0,0,0-.42661.42657v.38721a.427.427,0,0,0,.42661.42661m1.5074-.991a.17773.17773,0,0,1,.17751.17719v.38721a.17756.17756,0,0,1-.17751.17722h-1.5074a.1773.1773,0,0,1-.1772-.17722v-.38721a.17747.17747,0,0,1,.1772-.17719Z" transform="translate(-144.7347 -121.6937)" style="fill:#003915"/><path d="M236.53081,138.26981v.08649a.2197.2197,0,0,1-.43941,0v-.08649h-.24969v.08649a.4694.4694,0,0,0,.9388,0v-.08649Zm-.22-2.59a.22048.22048,0,0,1,.22.22049v1.37851h.24969V135.9003a.4694.4694,0,1,0-.9388,0v1.37851h.24969V135.9003A.22.22,0,0,1,236.31081,135.67981Z" transform="translate(-144.7347 -121.6937)" style="fill:#003915"/><path d="M259.0911,139.85831h-7.1566a1.49606,1.49606,0,0,1-1.49409-1.49472v-8.29868a1.496,1.496,0,0,1,1.49409-1.49411h7.1566a1.49563,1.49563,0,0,1,1.4942,1.49411v8.29868a1.4957,1.4957,0,0,1-1.4942,1.49472m-7.1566-11.0545a1.26262,1.26262,0,0,0-1.26109,1.26111v8.29868a1.26275,1.26275,0,0,0,1.26109,1.26172h7.1566a1.26309,1.26309,0,0,0,1.26181-1.26172v-8.29868a1.263,1.263,0,0,0-1.26181-1.26111Z" transform="translate(-144.7347 -121.6937)" style="fill:#003915"/><path d="M259.0911,139.0394h-7.1566a.67623.67623,0,0,1-.6758-.67581V131.353a.67643.67643,0,0,1,.6758-.67581h7.1566a.67648.67648,0,0,1,.67639.67581v7.01059a.67628.67628,0,0,1-.67639.67581m-7.1566-8.12921a.4433.4433,0,0,0-.443.44281v7.01059a.44349.44349,0,0,0,.443.44312h7.1566a.4439.4439,0,0,0,.444-.44312V131.353a.44372.44372,0,0,0-.444-.44281Z" transform="translate(-144.7347 -121.6937)" style="fill:#003915"/><path d="M252.6347,130.25851a.47421.47421,0,1,1,.4742-.47421.475.475,0,0,1-.4742.47421m0-.71542a.24121.24121,0,1,0,.2415.24121A.24187.24187,0,0,0,252.6347,129.54309Z" transform="translate(-144.7347 -121.6937)" style="fill:#003915"/><path d="M254.2354,130.25851a.47421.47421,0,1,1,.47481-.47421.475.475,0,0,1-.47481.47421m0-.71542a.24121.24121,0,1,0,.24181.24121A.2416.2416,0,0,0,254.2354,129.54309Z" transform="translate(-144.7347 -121.6937)" style="fill:#003915"/><rect x="107.4532" y="14.97061" width="2.7196" height="0.2327" style="fill:#003915"/><rect x="108.69681" y="13.72791" width="0.2327" height="2.71951" style="fill:#003915"/><path d="M253.5477,137.6777a.8969.8969,0,1,1,.89661-.89691.898.898,0,0,1-.89661.89691m0-1.5611a.66429.66429,0,1,0,.66389.66418A.66556.66556,0,0,0,253.5477,136.11661Z" transform="translate(-144.7347 -121.6937)" style="fill:#003915"/><rect x="107.4532" y="11.1257" width="2.7196" height="0.23239" style="fill:#003915"/><rect x="108.69681" y="9.88211" width="0.2327" height="2.7204" style="fill:#003915"/><path d="M253.5477,133.83331a.89716.89716,0,1,1,.89661-.8974.8986.8986,0,0,1-.89661.8974m0-1.56192a.66475.66475,0,1,0,.66389.66452A.66545.66545,0,0,0,253.5477,132.27139Z" transform="translate(-144.7347 -121.6937)" style="fill:#003915"/><rect x="111.38402" y="14.97061" width="2.7193" height="0.2327" style="fill:#003915"/><rect x="112.62761" y="13.72791" width="0.233" height="2.71951" style="fill:#003915"/><path d="M257.47879,137.6777a.8969.8969,0,1,1,.89691-.89691.89783.89783,0,0,1-.89691.89691m0-1.5611a.66429.66429,0,1,0,.66391.66418A.66606.66606,0,0,0,257.47879,136.11661Z" transform="translate(-144.7347 -121.6937)" style="fill:#003915"/><rect x="111.38402" y="11.1257" width="2.7193" height="0.23239" style="fill:#003915"/><rect x="112.62761" y="9.88211" width="0.233" height="2.7204" style="fill:#003915"/><path d="M257.47879,133.83331a.89716.89716,0,1,1,.89691-.8974.89846.89846,0,0,1-.89691.8974m0-1.56192a.66475.66475,0,1,0,.66391.66452A.666.666,0,0,0,257.47879,132.27139Z" transform="translate(-144.7347 -121.6937)" style="fill:#003915"/><path d="M256.949,130.25851a.47421.47421,0,1,1,.47449-.47421.47486.47486,0,0,1-.47449.47421m0-.71542a.24121.24121,0,1,0,.24179.24121A.24168.24168,0,0,0,256.949,129.54309Z" transform="translate(-144.7347 -121.6937)" style="fill:#003915"/><path d="M258.5506,130.25851a.47421.47421,0,1,1,.47391-.47421.47464.47464,0,0,1-.47391.47421m0-.71542a.24121.24121,0,1,0,.24152.24121A.24165.24165,0,0,0,258.5506,129.54309Z" transform="translate(-144.7347 -121.6937)" style="fill:#003915"/><path d="M152.01131,129.38461a.80923.80923,0,1,0,.2347.57089.8102.8102,0,0,0-.2347-.57089m-.5726-1.03632a1.60705,1.60705,0,1,1-1.1364.47049A1.60314,1.60314,0,0,1,151.43871,128.3483Z" transform="translate(-144.7347 -121.6937)" style="fill:#003915"/><path d="M185.5769,248.96269c-.7319,0-1.2359-.61789-1.2359-1.7399s.504-1.7399,1.2359-1.7399,1.2359.618,1.2359,1.7399-.504,1.7399-1.2359,1.7399m0,.396c.972,0,1.67979-.7979,1.67979-2.13591s-.70779-2.13589-1.67979-2.13589-1.6739.798-1.6739,2.13589S184.6049,249.3587,185.5769,249.3587Zm-3.966-2.514h-.54l.144-1.338h1.91989v-.3838h-2.2977l-.216,2.10591h.894c1.06779,0,1.40369.33589,1.40369.8759,0,.50989-.37779.858-1.09189.858a1.82138,1.82138,0,0,1-1.29-.48579l-.20979.3418a2.16815,2.16815,0,0,0,1.5058.54c1.02609,0,1.5239-.5578,1.5239-1.27191C183.3568,247.3427,182.87691,246.8447,181.6109,246.8447Zm-2.0457,1.85411a.31413.31413,0,0,0-.3181.324.30326.30326,0,0,0,.216.30591l-.2041.86989h.288l.252-.828a.97563.97563,0,0,0,.0842-.34781A.314.314,0,0,0,179.5652,248.69881ZM177.279,246.9229l1.188-1.49409v-.30591h-2.7v.3838h2.1481l-1.16389,1.45821v.318h.2999c.7798,0,1.1339.33,1.1339.834,0,.5218-.3838.84579-1.08.84579a1.84169,1.84169,0,0,1-1.302-.48579l-.21.3418a2.18449,2.18449,0,0,0,1.512.54c1.0139,0,1.52391-.54,1.52391-1.24181C178.62891,247.44479,178.179,246.97079,177.279,246.9229Zm-3.852-1.8v.3838h.9902v3.816h.432v-4.1998Z" transform="translate(-144.7347 -121.6937)" style="fill:#83746c;fill-rule:evenodd"/><path d="M251.6647,151.55151c-.7319,0-1.2359-.61792-1.2359-1.73993s.504-1.7399,1.2359-1.7399,1.2359.618,1.2359,1.7399-.504,1.73993-1.2359,1.73993m0,.396c.972,0,1.67979-.79791,1.67979-2.13593s-.70779-2.13589-1.67979-2.13589-1.6739.798-1.6739,2.13589S250.6927,151.94751,251.6647,151.94751Zm-3.97191-.396c-.73189,0-1.2359-.61792-1.2359-1.73993s.504-1.7399,1.2359-1.7399,1.2359.618,1.2359,1.7399S248.4247,151.55151,247.69279,151.55151Zm0,.396c.972,0,1.67981-.79791,1.67981-2.13593s-.70781-2.13589-1.67981-2.13589-1.67389.798-1.67389,2.13589S246.72079,151.94751,247.69279,151.94751Zm-2.54979-.65991a.31413.31413,0,0,0-.3181.324.30326.30326,0,0,0,.216.30591l-.204.87h.288l.252-.828a.97814.97814,0,0,0,.08409-.3479A.314.314,0,0,0,245.143,151.2876Zm-2.6221-1.8541h-.54l.144-1.338h1.92v-.38379H241.7471l-.216,2.1059h.894c1.06781,0,1.40381.33591,1.40381.87592,0,.51-.3779.858-1.092.858a1.821,1.821,0,0,1-1.29-.48581l-.20979.3418a2.16822,2.16822,0,0,0,1.5058.54c1.02609,0,1.5239-.5578,1.5239-1.27191C244.2668,149.93149,243.7869,149.4335,242.5209,149.4335Z" transform="translate(-144.7347 -121.6937)" style="fill:#83746c;fill-rule:evenodd"/><path d="M254.1308,246.3018c-.7319,0-1.2359-.6179-1.2359-1.7399s.504-1.7399,1.2359-1.7399,1.2359.618,1.2359,1.7399-.504,1.7399-1.2359,1.7399m0,.396c.972,0,1.67979-.7979,1.67979-2.13589s-.70779-2.13591-1.67979-2.13591-1.6739.798-1.6739,2.13591S253.1588,246.6978,254.1308,246.6978Zm-3.9059-.36591c-.744,0-1.182-.324-1.182-.8461,0-.516.438-.84,1.182-.84s1.188.324,1.188.84C251.4129,246.0079,250.9688,246.33189,250.2249,246.33189Zm-1.038-2.78389c0-.468.402-.756,1.038-.756.6299,0,1.044.288,1.044.7619,0,.4561-.39.75011-1.044.75011S249.1869,244.01,249.1869,243.548Zm1.8479.9119a.95117.95117,0,0,0,.67209-.9238c0-.684-.5941-1.11011-1.482-1.11011s-1.47.4261-1.47,1.11011a.94775.94775,0,0,0,.6599.9238,1.04819,1.04819,0,0,0-.80989,1.0321c0,.74379.612,1.2058,1.62,1.2058,1.00211,0,1.632-.462,1.632-1.2058A1.05763,1.05763,0,0,0,251.03481,244.4599Zm-3.40781,1.578a.31414.31414,0,0,0-.3181.324.30324.30324,0,0,0,.216.30591l-.204.87h.288l.252-.828a.97817.97817,0,0,0,.08411-.3479A.314.314,0,0,0,247.627,246.0379Zm-2.34.294c-.726,0-1.11011-.438-1.11011-.9a.97215.97215,0,0,1,1.08-.91791c.648,0,1.056.35381,1.056.906A.91894.91894,0,0,1,245.287,246.33189Zm.036-2.1841a1.34255,1.34255,0,0,0-1.2841.72c-.0119-.1259-.0179-.2458-.0179-.3419,0-1.14009.582-1.722,1.4879-1.722a1.47125,1.47125,0,0,1,.8159.1981l.174-.3481a1.92793,1.92793,0,0,0-.99579-.22791c-1.14011,0-1.91991.7438-1.91991,2.17191,0,1.3261.6058,2.0999,1.7218,2.0999a1.30856,1.30856,0,0,0,1.434-1.29A1.27167,1.27167,0,0,0,245.323,244.1478Zm-4.16409-1.68579v.38379h.9901v3.816h.432V242.462Z" transform="translate(-144.7347 -121.6937)" style="fill:#83746c;fill-rule:evenodd"/><path d="M178.0155,187.6125c-.7319,0-1.2359-.618-1.2359-1.7399s.504-1.7399,1.2359-1.7399,1.2359.61789,1.2359,1.7399-.504,1.7399-1.2359,1.7399m0,.396c.972,0,1.67979-.798,1.67979-2.13589s-.70779-2.13591-1.67979-2.13591-1.6739.79791-1.6739,2.13591S177.0435,188.0085,178.0155,188.0085Zm-4.5-.4201,1.4281-1.4037a1.729,1.729,0,0,0,.6899-1.31419c0-.7018-.54-1.1338-1.39211-1.1338a1.88741,1.88741,0,0,0-1.4879.59981l.30591.26419a1.426,1.426,0,0,1,1.146-.468c.64211,0,.9839.2999.9839.786,0,.2877-.0898.56979-.5638,1.0378l-1.74611,1.7101v.30591h2.946v-.38411Zm-1.55991-.23979a.31408.31408,0,0,0-.3181.324.3031.3031,0,0,0,.216.3058l-.2041.87h.288l.252-.828a.97638.97638,0,0,0,.0842-.34781A.314.314,0,0,0,171.9556,187.3486Zm-2.28619-1.77591,1.188-1.49419v-.3058h-2.7v.38379h2.1481l-1.16389,1.4581v.3181h.2999c.7798,0,1.1339.32991,1.1339.83391,0,.5219-.38379.8459-1.08.8459a1.84128,1.84128,0,0,1-1.302-.4859l-.21.3419a2.185,2.185,0,0,0,1.512.54c1.01389,0,1.5239-.54,1.5239-1.2419C171.0193,186.0945,170.5694,185.62061,169.6694,185.57269Z" transform="translate(-144.7347 -121.6937)" style="fill:#83746c;fill-rule:evenodd"/><path d="M176.61571,145.7626c-.7319,0-1.2359-.61789-1.2359-1.7399s.504-1.7399,1.2359-1.7399,1.23589.618,1.23589,1.7399-.504,1.7399-1.23589,1.7399m0,.396c.972,0,1.67979-.79791,1.67979-2.13589s-.70779-2.13589-1.67979-2.13589-1.67381.798-1.67381,2.13589S175.64371,146.1586,176.61571,146.1586Zm-2.07011-1.5239h-.83989v-.972h-.4198v.972h-1.8241l2.14809-2.71191h-.48019l-2.2258,2.78391v.3118h2.3698v1.1041h.432v-1.1041h.83989Zm-4.4337.864a.31407.31407,0,0,0-.318.324.30313.30313,0,0,0,.216.30591l-.2041.8699h.288l.252-.828a.97563.97563,0,0,0,.0842-.34781A.314.314,0,0,0,170.11189,145.49869Zm-3.24.23981,1.4281-1.40369a1.7292,1.7292,0,0,0,.69-1.31412c0-.7019-.54-1.13388-1.39211-1.13388a1.88729,1.88729,0,0,0-1.4879.59979l.3058.26419a1.42639,1.42639,0,0,1,1.1461-.468c.642,0,.9839.2999.9839.7861,0,.28769-.0899.5697-.56381,1.03769l-1.7462,1.71021v.30579h2.94611v-.38409Z" transform="translate(-144.7347 -121.6937)" style="fill:#83746c;fill-rule:evenodd"/><path d="M207.28661,145.7626c-.7319,0-1.2359-.61789-1.2359-1.7399s.504-1.7399,1.2359-1.7399,1.2359.618,1.2359,1.7399-.504,1.7399-1.2359,1.7399m0,.396c.972,0,1.67979-.79791,1.67979-2.13589s-.70779-2.13589-1.67979-2.13589-1.6739.798-1.6739,2.13589S206.31461,146.1586,207.28661,146.1586Zm-3.62381-.36591c-.726,0-1.11009-.438-1.11009-.9a.97214.97214,0,0,1,1.08-.91791c.648,0,1.05589.35382,1.05589.906A.91886.91886,0,0,1,203.6628,145.79269Zm.036-2.18408a1.34248,1.34248,0,0,0-1.2841.72c-.0119-.12592-.0179-.24582-.0179-.34192,0-1.14011.582-1.722,1.4879-1.722a1.47055,1.47055,0,0,1,.8158.19809l.1741-.34811a1.9285,1.9285,0,0,0-.9958-.22787c-1.14011,0-1.91991.74377-1.91991,2.17188,0,1.32611.60571,2.09991,1.72171,2.09991a1.30858,1.30858,0,0,0,1.4341-1.29A1.27166,1.27166,0,0,0,203.69881,143.60861Zm-2.61581,1.89008a.31416.31416,0,0,0-.3181.324.30325.30325,0,0,0,.216.30591l-.2041.8699h.288l.252-.828a.97563.97563,0,0,0,.0842-.34781A.314.314,0,0,0,201.083,145.49869Zm-3.24.23981,1.4281-1.40369a1.729,1.729,0,0,0,.6899-1.31412c0-.7019-.54-1.13388-1.39211-1.13388a1.88745,1.88745,0,0,0-1.4879.59979l.30591.26419a1.42631,1.42631,0,0,1,1.146-.468c.64211,0,.9839.2999.9839.7861,0,.28769-.0898.5697-.5638,1.03769l-1.74611,1.71021v.30579h2.946v-.38409Z" transform="translate(-144.7347 -121.6937)" style="fill:#83746c;fill-rule:evenodd"/><path d="M246.46761,285.67169c-.7319,0-1.2359-.618-1.2359-1.7399s.504-1.7399,1.2359-1.7399,1.2359.6179,1.2359,1.7399-.504,1.7399-1.2359,1.7399m0,.396c.972,0,1.67979-.798,1.67979-2.13591s-.70779-2.13589-1.67979-2.13589-1.67381.7979-1.67381,2.13589S245.49561,286.0677,246.46761,286.0677Zm-4.5-.4201,1.4281-1.4037a1.72916,1.72916,0,0,0,.69-1.31419c0-.7018-.54-1.1338-1.39209-1.1338a1.88723,1.88723,0,0,0-1.4879.59981l.3058.26419a1.42618,1.42618,0,0,1,1.14609-.468c.642,0,.9839.29991.9839.786,0,.28769-.08989.56979-.5638,1.0378l-1.7462,1.7101v.30589h2.94611v-.38409Zm-1.55991-.23979a.314.314,0,0,0-.318.324.303.303,0,0,0,.216.3058l-.2041.87h.288l.252-.828a.97605.97605,0,0,0,.0842-.34781A.314.314,0,0,0,240.4077,285.40781Zm-2.2861-1.77591,1.188-1.4942v-.3058h-2.7v.3838h2.1481l-1.16391,1.4581v.3181h.29991c.77979,0,1.13379.32989,1.13379.83391,0,.5219-.38379.84589-1.08.84589a1.841,1.841,0,0,1-1.3019-.48589l-.2101.34189a2.18509,2.18509,0,0,0,1.512.54c1.014,0,1.52391-.54,1.52391-1.2419C239.47141,284.1537,239.02161,283.67979,238.1216,283.6319Z" transform="translate(-144.7347 -121.6937)" style="fill:#83746c;fill-rule:evenodd"/><path d="M200.8071,126.10861a3.9078,3.9078,0,1,1-3.9075-3.90781,3.90811,3.90811,0,0,1,3.9075,3.90781" transform="translate(-144.7347 -121.6937)" style="fill:#558e42;fill-rule:evenodd"/><polygon points="52.165 6.819 52.543 5.504 52.922 4.189 52.165 4.189 51.408 4.189 51.786 5.504 52.165 6.819" style="fill:#fdfdfd;fill-rule:evenodd"/><rect x="51.9597" y="2.01089" width="0.38411" height="2.28131" style="fill:#fdfdfd"/><path d="M179.6579,291.52519c-.434,0-.68939-.18909-.68939-.4935,0-.301.2554-.4901.68939-.4901s.693.1891.693.4901c0,.30441-.25911.4935-.693.4935m-.6055-1.624c0-.2729.2347-.441.6055-.441.3676,0,.6091.16809.6091.4444,0,.2662-.2276.4377-.6091.4377C179.2766,290.3423,179.0524,290.17081,179.0524,289.9012Zm1.078.5321a.555.555,0,0,0,.392-.53911c0-.3989-.34641-.64749-.8645-.64749-.5179,0-.8575.2486-.8575.64749a.553.553,0,0,0,.38519.53911.611.611,0,0,0-.47249.60179c0,.434.3569.7036.94479.7036.5845,0,.9521-.26959.9521-.7036A.61686.61686,0,0,0,180.1304,290.4333Zm-2.7439.0873c-.3779,0-.616-.2063-.616-.5284a.53631.53631,0,0,1,.59871-.532c.42349,0,.6474.25569.6474.525A.56705.56705,0,0,1,177.38651,290.5206Zm-.0278-1.2739a.76323.76323,0,0,0-.8365.75259.7416.7416,0,0,0,.826.7348.78278.78278,0,0,0,.7489-.4198c.0071.07339.0105.1434.0105.19949,0,.665-.3396,1.0043-.868,1.0043a.85882.85882,0,0,1-.47589-.1153l-.1015.2029a1.1239,1.1239,0,0,0,.5808.133c.665,0,1.12-.434,1.12-1.26709C178.363,289.6983,178.00951,289.2467,177.3587,289.2467Zm-1.3127,2.107a.18318.18318,0,0,0-.18541.1891.17667.17667,0,0,0,.12581.1783l-.119.50771h.16811l.14709-.483a.57583.57583,0,0,0,.049-.203A.18319.18319,0,0,0,176.046,291.3537Zm-1.8902.14011.8331-.819a1.00765,1.00765,0,0,0,.4025-.76651c0-.40959-.3149-.66159-.8121-.66159a1.10143,1.10143,0,0,0-.868.3501l.17859.1539a.83209.83209,0,0,1,.66841-.2729c.3745,0,.574.1748.574.4583,0,.16811-.0524.3325-.3288.6055l-1.01849.9975v.1786h1.7184v-.22389Z" transform="translate(-144.7347 -121.6937)" style="fill:#434242"/><path d="M152.3945,244.35249h.6826v-.2486h-.4586v-1.26l2.226,1.008v-.273l-2.27139-1.0253h-.1786Zm1.00459,1.218v.31491l-.78059-.08391v-1.1199h-.224v1.3405l1.22859.12581v-.5213c0-.623.1958-.8192.511-.8192.29741,0,.50041.2206.50041.63719a1.06172,1.06172,0,0,1-.28351.75241l.1996.12239a1.26484,1.26484,0,0,0,.3149-.8784c0-.59839-.32539-.889-.74179-.889C153.68941,244.552,153.39909,244.83209,153.39909,245.5705Zm1.08141,1.19371a.18318.18318,0,0,0,.1891.18539.17676.17676,0,0,0,.1783-.1259l.50771.11909v-.16809l-.483-.1472a.57583.57583,0,0,0-.203-.049A.18321.18321,0,0,0,154.4805,246.76421Zm-.504.49319v.4901h-.56689v.2449h.56689v1.06419l-1.582-1.253v.2798l1.624,1.2986h.182V247.9995h.644v-.252h-.644v-.4901Z" transform="translate(-144.7347 -121.6937)" style="fill:#434242"/><path d="M269.1618,283.00819v.315l-.7807-.08389v-1.12h-.22391v1.3405l1.22852.1259v-.5213c0-.62309.19589-.8192.51108-.8192.29742,0,.50031.2205.50031.63721a1.06139,1.06139,0,0,1-.28339.7523l.19949.1225a1.26451,1.26451,0,0,0,.315-.87851c0-.59839-.3255-.8889-.74191-.8889-.4342,0-.72449.28-.72449,1.0184m-1.00461,2.058h.22391v-.57739h2.2261v-.252h-2.45Zm2.086.3569a.18318.18318,0,0,0,.18912.18541.17677.17677,0,0,0,.17828-.1259l.50769.11909v-.16811l-.48309-.1472a.57521.57521,0,0,0-.20288-.049A.18321.18321,0,0,0,270.24319,285.4231Zm-2.086,1.6064h.22391v-.5775h2.2261V286.2h-2.45Z" transform="translate(-144.7347 -121.6937)" style="fill:#434242"/><path d="M272.615,198.7424c0,.4272-.36029.72119-1.0148.72119s-1.0148-.294-1.0148-.72119c0-.4269.3602-.72079,1.0148-.72079s1.0148.2939,1.0148.72079m.231,0c0-.56689-.46552-.9796-1.24582-.9796s-1.24588.4127-1.24588.9796c0,.56729.46548.97659,1.24588.97659S272.846,199.30969,272.846,198.7424Zm-.2135,2.2785c0,.434-.189.68939-.4935.68939-.301,0-.48981-.2554-.48981-.68939s.18881-.693.48981-.693C272.44351,200.3279,272.63251,200.5869,272.63251,201.0209Zm-1.6239.6055c-.273,0-.4408-.23441-.4408-.6055,0-.36731.16779-.6089.44449-.6089.26581,0,.43729.2274.43729.6089S271.27811,201.6264,271.00861,201.6264Zm.532-1.078a.55448.55448,0,0,0-.53879-.3918c-.3992,0-.64749.34641-.64749.8643s.24829.8575.64749.8575a.55277.55277,0,0,0,.53879-.3849.61118.61118,0,0,0,.60211.4722c.43369,0,.70331-.3569.70331-.94479,0-.5845-.26962-.95181-.70331-.95181A.6171.6171,0,0,0,271.54059,200.5484Zm.92041,1.9879a.18316.18316,0,0,0,.18909.18539.1767.1767,0,0,0,.17831-.12579l.50769.119v-.16811l-.483-.14709a.57211.57211,0,0,0-.203-.0488A.183.183,0,0,0,272.461,202.5363Zm.17151,1.3649c0,.42351-.2554.6474-.5249.6474a.56717.56717,0,0,1-.53549-.6301c0-.3779.20657-.61571.52838-.61571A.53589.53589,0,0,1,272.63251,203.9012Zm-1.2739-.021a.7831.7831,0,0,0,.42007.749c-.0737.00681-.14368.01041-.19949.01041-.665,0-1.0043-.3396-1.0043-.8679a.85942.85942,0,0,1,.1153-.476l-.20288-.10139a1.1238,1.1238,0,0,0-.133.5808c0,.665.434,1.1199,1.26678,1.1199.77332,0,1.22491-.35341,1.22491-1.0043a.76335.76335,0,0,0-.75232-.8365A.7418.7418,0,0,0,271.35861,203.8802Z" transform="translate(-144.7347 -121.6937)" style="fill:#434242"/><path d="M183.4897,179.1933c0,.4272-.36031.7211-1.0148.7211s-1.0148-.2939-1.0148-.7211c0-.4269.36031-.72079,1.0148-.72079s1.0148.2939,1.0148.72079m.23109,0c0-.56689-.4655-.9796-1.2459-.9796s-1.2458.4127-1.2458.9796c0,.5672.4655.9765,1.2458.9765S183.72079,179.7605,183.72079,179.1933Zm-.2135,2.2785c0,.434-.18909.68939-.4935.68939-.301,0-.48979-.2554-.48979-.68939s.1888-.6931.48979-.6931C183.31821,180.7787,183.50729,181.0378,183.50729,181.4718Zm-1.624.6055c-.2729,0-.4407-.23441-.4407-.6055,0-.3674.1678-.6089.4444-.6089.2659,0,.43741.2274.43741.6089S182.15289,182.0773,181.8833,182.0773Zm.5321-1.078a.55471.55471,0,0,0-.53891-.3918c-.39909,0-.6474.34641-.6474.8643s.24831.8575.6474.8575a.55311.55311,0,0,0,.53891-.385.61106.61106,0,0,0,.6021.47229c.4337,0,.70329-.3569.70329-.94479,0-.5845-.26959-.9519-.70329-.9519A.617.617,0,0,0,182.41541,180.9993Zm.92039,1.9879a.18317.18317,0,0,0,.1891.18539.17675.17675,0,0,0,.1783-.1259l.50771.11911v-.16811l-.48311-.14709a.57163.57163,0,0,0-.2029-.0488A.183.183,0,0,0,183.3358,182.9872Zm-2.08569,1.6064h.22389v-.57739h2.2258v-.252h-2.44969Z" transform="translate(-144.7347 -121.6937)" style="fill:#434242"/><path d="M182.9752,142.5181l-.81891-.8331a1.00758,1.00758,0,0,0-.76649-.4025c-.40961,0-.66161.31491-.66161.8121a1.10132,1.10132,0,0,0,.3501.868l.1539-.17859a.83216.83216,0,0,1-.273-.6684c0-.37451.1749-.574.4584-.574.16809,0,.3325.0524.6055.3288l.9975,1.01849h.1786V141.1705h-.224Zm.03149,1.46271c0,.42349-.2554.64771-.525.64771a.56727.56727,0,0,1-.5354-.63022c0-.37778.2063-.61591.52829-.61591A.53608.53608,0,0,1,183.0067,143.9808Zm-1.2739-.021a.78338.78338,0,0,0,.4198.74918c-.07341.00681-.1434.01053-.19951.01053-.66479,0-1.00429-.3396-1.00429-.868a.86038.86038,0,0,1,.1153-.4762l-.2029-.1015a1.12574,1.12574,0,0,0-.133.58109c0,.665.434,1.12,1.26711,1.12.7733,0,1.2249-.35352,1.2249-1.00461a.76335.76335,0,0,0-.75259-.83652A.74176.74176,0,0,0,181.7328,143.95981Zm1.1024,1.52618a.18315.18315,0,0,0,.1891.18539.17678.17678,0,0,0,.1783-.12589l.50769.11911v-.16812l-.48309-.14719a.57537.57537,0,0,0-.2029-.049A.18322.18322,0,0,0,182.83521,145.486Zm-2.086,1.60641h.22389v-.57751h2.2261v-.252h-2.45Z" transform="translate(-144.7347 -121.6937)" style="fill:#434242"/><path d="M247.0258,294.21269c-.42351,0-.6478-.25539-.6478-.52489a.56726.56726,0,0,1,.63019-.53551c.37781,0,.616.20641.616.5284a.5361.5361,0,0,1-.5984.532m.0209-1.27379a.78355.78355,0,0,0-.74921.4198c-.00681-.0735-.01041-.14351-.01041-.1996,0-.6647.33951-1.0043.8679-1.0043a.86041.86041,0,0,1,.4762.1154l.1015-.203a1.12549,1.12549,0,0,0-.5811-.1329c-.665,0-1.1199.4339-1.1199,1.267,0,.7733.35341,1.2249,1.00461,1.2249a.76339.76339,0,0,0,.8365-.75259A.74171.74171,0,0,0,247.04671,292.9389Zm-3.0764-.9837v.6826h.2486v-.4586h1.26l-1.008,2.226h.273l1.0253-2.27139v-.1786Zm-.43741,2.086a.18322.18322,0,0,0-.18539.1891.17675.17675,0,0,0,.1259.1783l-.11911.50771h.16811l.14709-.483a.57409.57409,0,0,0,.0491-.203A.18327.18327,0,0,0,243.5329,294.0412Zm-1.89009.14011.8331-.819a1.00763,1.00763,0,0,0,.4025-.7664c0-.40961-.3149-.66161-.8121-.66161a1.10125,1.10125,0,0,0-.868.35l.1786.154a.832.832,0,0,1,.6684-.273c.37439,0,.574.1749.574.4583,0,.16811-.0524.3325-.3288.6055l-1.01849.9975v.1786h1.7184v-.22389Z" transform="translate(-144.7347 -121.6937)" style="fill:#434242"/><path d="M249.53641,143.6795c-.434,0-.68941-.18912-.68941-.49359,0-.301.2554-.49011.68941-.49011s.6931.18909.6931.49011c0,.30447-.25911.49359-.6931.49359m-.60551-1.624c0-.273.23471-.4411.60551-.4411.36769,0,.60919.16809.60919.44449,0,.2662-.2276.43771-.60919.43771C249.15511,142.49661,248.93089,142.3251,248.93089,142.05551Zm1.078.532a.55485.55485,0,0,0,.39211-.53909c0-.3988-.34641-.6474-.86459-.6474-.51791,0-.85751.2486-.85751.6474a.55288.55288,0,0,0,.3853.53909.611.611,0,0,0-.4726.60181c0,.434.3569.70361.94481.70361.58449,0,.95219-.26962.95219-.70361A.617.617,0,0,0,250.0089,142.58749Zm-2.5443-.1156.69279-.8714v-.17859h-1.575v.224h1.2529l-.67889.85071v.18527h.1749c.45531,0,.66161.1925.66161.48651,0,.30441-.22391.4935-.62981.4935a1.07438,1.07438,0,0,1-.7597-.28351l-.1225.19962a1.2753,1.2753,0,0,0,.8822.31491c.59131,0,.8889-.31491.8889-.72452C248.252,142.77631,247.9895,142.5,247.4646,142.47189Zm-1.4176,1.0361a.18314.18314,0,0,0-.18539.189.1767.1767,0,0,0,.12579.17831l-.119.50769h.16811l.14709-.483a.573.573,0,0,0,.049-.203A.18316.18316,0,0,0,246.047,143.508Zm-1.8902.14.8331-.81891a1.0079,1.0079,0,0,0,.4025-.76651c0-.40961-.3149-.66159-.81209-.66159a1.10142,1.10142,0,0,0-.868.35l.1786.154a.83217.83217,0,0,1,.6684-.273c.37451,0,.57411.1749.57411.45831,0,.16809-.05251.33261-.3289.6055l-1.01851.9975v.17859h1.7184V143.648Z" transform="translate(-144.7347 -121.6937)" style="fill:#434242"/><path d="M246.92059,252.8493c-.4269,0-.7211-.36061-.7211-1.0148,0-.65451.2942-1.01511.7211-1.01511s.72081.3606.72081,1.01511c0,.65419-.2939,1.0148-.72081,1.0148m0,.231c.56691,0,.9799-.46541.9799-1.2458,0-.7807-.413-1.24611-.9799-1.24611s-.97649.46541-.97649,1.24611C245.94411,252.6149,246.3537,253.08031,246.92059,253.08031Zm-2.6252-.2449.8331-.81891a1.0079,1.0079,0,0,0,.4026-.76649c0-.40961-.315-.66161-.81219-.66161a1.10078,1.10078,0,0,0-.8679.3501l.1785.1539a.83239.83239,0,0,1,.6685-.273c.3744,0,.574.1749.574.4584,0,.16809-.05251.3325-.3289.6055l-1.0184.9975v.1786H245.643v-.224Zm-.9099-.14a.18316.18316,0,0,0-.18539.1891.17677.17677,0,0,0,.1259.1783l-.11911.5076h.16811l.14709-.483a.57364.57364,0,0,0,.0491-.2029A.18321.18321,0,0,0,243.3855,252.6954Zm-1.3334-1.0361.69281-.87131v-.17859H241.17v.22389h1.2529l-.67889.85071v.18539h.1749c.4552,0,.66161.1924.66161.4864,0,.3044-.224.4935-.6299.4935a1.07389,1.07389,0,0,1-.7597-.28351l-.12241.1996a1.27432,1.27432,0,0,0,.88211.31491c.59129,0,.889-.31491.889-.7245C242.8396,251.96381,242.5771,251.68739,242.05209,251.6593Z" transform="translate(-144.7347 -121.6937)" style="fill:#434242"/><path d="M166.35339,158.84879c-.42679,0-.7211-.3606-.7211-1.0148,0-.65448.29431-1.01508.7211-1.01508s.7209.3606.7209,1.01508c0,.65421-.294,1.0148-.7209,1.0148m0,.231c.567,0,.98-.46552.98-1.24582,0-.78067-.413-1.24609-.98-1.24609s-.97649.46542-.97649,1.24609C165.37691,158.61429,165.7865,159.0798,166.35339,159.0798Zm-2.2784-.2135c-.434,0-.68939-.189-.68939-.4935,0-.301.2554-.49011.68939-.49011s.693.18912.693.49011C164.768,158.67731,164.5089,158.8663,164.075,158.8663Zm-.6055-1.6239c0-.273.2347-.4411.6055-.4411.3676,0,.6091.16809.6091.44449,0,.2662-.2276.43771-.6091.43771C163.6937,157.6835,163.4695,157.512,163.4695,157.2424Zm1.078.532a.55482.55482,0,0,0,.392-.53912c0-.3988-.3464-.6474-.8645-.6474-.5179,0-.8575.2486-.8575.6474a.55284.55284,0,0,0,.38521.53912.611.611,0,0,0-.4725.60178c0,.434.3569.70361.94479.70361.5845,0,.9521-.26959.9521-.70361A.6169.6169,0,0,0,164.5475,157.77441Zm-1.9879.92047a.18315.18315,0,0,0-.18539.189.17666.17666,0,0,0,.12579.17828l-.119.50769h.16811l.14709-.483a.57336.57336,0,0,0,.049-.203A.18317.18317,0,0,0,162.5596,158.69489Zm-1.6064-2.08609v.224h.57739v2.226h.252v-2.45Z" transform="translate(-144.7347 -121.6937)" style="fill:#434242"/><path d="M202.9785,134.22391c-.4269,0-.7211-.3605-.7211-1.0148,0-.65451.2942-1.01511.7211-1.01511s.72079.3606.72079,1.01511c0,.6543-.2939,1.0148-.72079,1.0148m0,.231c.56689,0,.9799-.46539.9799-1.24579,0-.78061-.413-1.24609-.9799-1.24609s-.9765.46548-.9765,1.24609C202.002,133.9895,202.41161,134.4549,202.9785,134.4549Zm-1.20731-.88889h-.4901v-.56692h-.2449v.56692h-1.06409l1.2529-1.582h-.2798l-1.2986,1.624v.18188h1.38249v.6441h.252v-.6441h.4901Zm-2.58659.504a.18316.18316,0,0,0-.18539.18909.17676.17676,0,0,0,.1259.17831l-.11911.50769h.16811l.14709-.48309a.57347.57347,0,0,0,.0491-.20291A.1832.1832,0,0,0,199.1846,134.07Zm-1.6064-2.086v.22388h.57739v2.2261h.252v-2.45Z" transform="translate(-144.7347 -121.6937)" style="fill:#434242"/><line x1="27.79431" y1="168.86411" x2="4.74921" y2="168.86411" style="fill:none;stroke:#b1b2b2;stroke-miterlimit:22.92558479309082;stroke-width:0.2160000056028366px"/><line x1="8.94991" y1="128.95311" x2="8.94991" y2="172.7827" style="fill:none;stroke:#b1b2b2;stroke-miterlimit:22.92558479309082;stroke-width:0.2160000056028366px"/><line x1="124.71251" y1="167.4476" x2="124.71251" y2="175.5314" style="fill:none;stroke:#b1b2b2;stroke-miterlimit:22.92558479309082;stroke-width:0.2160000056028366px"/><line x1="126.9304" y1="84.321" x2="126.9304" y2="142.6906" style="fill:none;stroke:#b1b2b2;stroke-miterlimit:22.92558479309082;stroke-width:0.2160000056028366px"/><line x1="37.8051" y1="64.3206" x2="37.8051" y2="76.35541" style="fill:none;stroke:#b1b2b2;stroke-miterlimit:22.92558479309082;stroke-width:0.2160000056028366px"/><line x1="37.3045" y1="27.07111" x2="37.3045" y2="38.62289" style="fill:none;stroke:#b1b2b2;stroke-miterlimit:22.92558479309082;stroke-width:0.2160000056028366px"/><line x1="95.1393" y1="171.55161" x2="72.34761" y2="171.55161" style="fill:none;stroke:#b1b2b2;stroke-miterlimit:22.92558479309082;stroke-width:0.2160000056028366px"/><line x1="97.7341" y1="21.01831" x2="82.9747" y2="21.01831" style="fill:none;stroke:#b1b2b2;stroke-miterlimit:22.92558479309082;stroke-width:0.2160000056028366px"/><line x1="95.1393" y1="130.2057" x2="66.7897" y2="130.2057" style="fill:none;stroke:#b1b2b2;stroke-miterlimit:22.92558479309082;stroke-width:0.2160000056028366px"/><line x1="23.1393" y1="73.4754" x2="4.74921" y2="73.4754" style="fill:none;stroke:#b1b2b2;stroke-miterlimit:22.92558479309082;stroke-width:0.2160000056028366px"/><line x1="14.798" y1="36.2052" x2="4.74921" y2="36.2052" style="fill:none;stroke:#b1b2b2;stroke-miterlimit:22.92558479309082;stroke-width:0.2160000056028366px"/><line x1="51.42311" y1="11.58029" x2="42.60591" y2="11.58029" style="fill:none;stroke:#b1b2b2;stroke-miterlimit:22.92558479309082;stroke-width:0.2160000056028366px"/><line x1="64.1875" y1="168.86411" x2="37.2334" y2="168.86411" style="fill:none;stroke:#b1b2b2;stroke-miterlimit:22.92558479309082;stroke-width:0.2160000056028366px"/><line x1="8.94991" y1="82.1452" x2="8.94991" y2="119.51401" style="fill:none;stroke:#b1b2b2;stroke-miterlimit:22.92558479309082;stroke-width:0.2160000056028366px"/><line x1="124.71251" y1="151.2601" x2="124.71251" y2="158.0085" style="fill:none;stroke:#b1b2b2;stroke-miterlimit:22.92558479309082;stroke-width:0.2160000056028366px"/><line x1="126.9304" y1="6.54599" x2="126.9304" y2="74.8819" style="fill:none;stroke:#b1b2b2;stroke-miterlimit:22.92558479309082;stroke-width:0.2160000056028366px"/><line x1="37.8051" y1="41.4541" x2="37.8051" y2="54.8815" style="fill:none;stroke:#b1b2b2;stroke-miterlimit:22.92558479309082;stroke-width:0.2160000056028366px"/><line x1="37.3045" y1="6.54599" x2="37.3045" y2="17.63202" style="fill:none;stroke:#b1b2b2;stroke-miterlimit:22.92558479309082;stroke-width:0.2160000056028366px"/><line x1="127.5041" y1="171.55161" x2="104.57831" y2="171.55161" style="fill:none;stroke:#b1b2b2;stroke-miterlimit:22.92558479309082;stroke-width:0.2160000056028366px"/><line x1="130.47231" y1="21.01831" x2="107.1732" y2="21.01831" style="fill:none;stroke:#b1b2b2;stroke-miterlimit:22.92558479309082;stroke-width:0.2160000056028366px"/><line x1="130.47231" y1="130.2057" x2="104.57831" y2="130.2057" style="fill:none;stroke:#b1b2b2;stroke-miterlimit:22.92558479309082;stroke-width:0.2160000056028366px"/><line x1="39.3268" y1="73.4754" x2="32.57831" y2="73.4754" style="fill:none;stroke:#b1b2b2;stroke-miterlimit:22.92558479309082;stroke-width:0.2160000056028366px"/><line x1="40.00371" y1="36.2052" x2="24.23711" y2="36.2052" style="fill:none;stroke:#b1b2b2;stroke-miterlimit:22.92558479309082;stroke-width:0.2160000056028366px"/><line x1="69.6841" y1="11.58029" x2="60.8622" y2="11.58029" style="fill:none;stroke:#b1b2b2;stroke-miterlimit:22.92558479309082;stroke-width:0.2160000056028366px"/></svg>