<svg id="Слой_1" data-name="Слой 1" xmlns="http://www.w3.org/2000/svg" viewBox="0 0 195.5344 181.80991"><title>1.02.15</title><polygon points="195.534 181.81 63.802 181.81 63.802 178.85 7.7 178.85 7.7 181.81 0 181.81 0 0.708 195.534 0.708 195.534 181.81" style="fill:#fff;fill-rule:evenodd"/><path d="M132.0562,209.25639l3.2655-4.1068v-.84129h-7.4219v1.0556h5.9045l-3.19971,4.00789v.87421h.82491c2.14409,0,3.1172.9071,3.1172,2.29269,0,1.43491-1.0556,2.3255-2.969,2.3255a5.05744,5.05744,0,0,1-3.579-1.336l-.5771.94a6.00248,6.00248,0,0,0,4.1561,1.4845c2.7876,0,4.18941-1.4845,4.18941-3.414,0-1.8474-1.23711-3.1505-3.71091-3.2823" transform="translate(-114.8312 -121.6937)" style="fill:#fff;fill-rule:evenodd"/><path d="M171.5822,140.62741v-2.5433h6.9599v2.5433Zm0,4.33609v-2.54321h6.9599v2.54321Zm4.068,4.44171v-2.5433h2.89189v2.5433Zm-4.068,0v-2.5433h2.89191v2.5433Zm7.0708-13.15652h-6.9928v-2.539h6.9928Zm2.4091,15.74561H169.06219V127.70911H181.0621Z" transform="translate(-114.8312 -121.6937)" style="fill:#003915;fill-rule:evenodd"/><path d="M255.37691,140.008v-2.54318H248.417V140.008Zm0,4.33621v-2.5433H248.417v2.5433Zm-4.068,4.44159v-2.5433H248.417v2.5433Zm4.068,0v-2.5433H252.485v2.5433Zm-6.9599-12.95969h6.9599v-2.484H248.417ZM247.09689,149.923h9.58142V131.66h-9.58142Z" transform="translate(-114.8312 -121.6937)" style="fill:#003915;fill-rule:evenodd"/><path d="M208.23511,156.3934a.37405.37405,0,0,1-.64751-.37469l8.0399-13.9201a.374.374,0,1,1,.64749.37469Z" transform="translate(-114.8312 -121.6937)" style="fill:#003915"/><path d="M149.4306,268.526a.37407.37407,0,0,0,.3748.64749l13.92-8.03989a.37406.37406,0,0,0-.37471-.64751Z" transform="translate(-114.8312 -121.6937)" style="fill:#003915"/><path d="M225.2117,205.17819a.37408.37408,0,0,0,.3748.64751l13.92011-8.0399a.37407.37407,0,0,0-.3748-.64749Z" transform="translate(-114.8312 -121.6937)" style="fill:#003915"/><path d="M264.19751,205.282a.374.374,0,0,1-.37482.6474l-13.92009-8.0399a.374.374,0,1,1,.3748-.6474Z" transform="translate(-114.8312 -121.6937)" style="fill:#003915"/><path d="M276.88959,171.73959a.374.374,0,1,0-.37469-.6474l-13.9201,8.0399a.374.374,0,1,0,.37473.6474Z" transform="translate(-114.8312 -121.6937)" style="fill:#003915"/><rect x="100.6897" y="2.29211" width="2.60219" height="18.3302" style="fill:#003915"/><rect x="63.6287" y="24.2764" width="2.6022" height="25.59061" style="fill:#003915"/><rect x="130.1088" y="2.29211" width="2.6022" height="42.10178" style="fill:#003915"/><rect x="163.16251" y="48.9424" width="2.60217" height="26.85771" style="fill:#003915"/><rect x="64.26231" y="73.41901" width="2.60219" height="66.0761" style="fill:#003915"/><rect x="130.1088" y="73.41901" width="2.6022" height="104.4034" style="fill:#003915"/><rect x="100.6897" y="36.7894" width="2.60219" height="12.75311" style="fill:#003915"/><rect x="100.6897" y="47.4502" width="45.1012" height="2.6022" style="fill:#003915"/><rect x="124.8063" y="73.41901" width="10.6515" height="2.6022" style="fill:#003915"/><rect x="64.6713" y="73.41901" width="42.7037" height="2.6022" style="fill:#003915"/><rect x="153.231" y="73.41901" width="12.53369" height="2.6022" style="fill:#003915"/><rect x="161.90849" y="47.4502" width="31.81262" height="2.6022" style="fill:#003915"/><rect x="164.76859" y="50.6378" width="28.95251" height="2.6022" style="fill:#003915"/><rect width="5.002" height="160.7034" style="fill:#003915"/><rect x="190.53239" y="2.9823" width="5.00201" height="173.5203" style="fill:#003915"/><rect x="0.3765" width="76.1266" height="6.42551" style="fill:#003915"/><rect x="96.87859" width="98.65581" height="6.42551" style="fill:#003915"/><rect y="142.57021" width="34.8914" height="8.1601" style="fill:#003915"/><rect y="172.6622" width="7.3111" height="8.1601" style="fill:#003915"/><rect x="66.64539" y="172.6622" width="15.75551" height="8.1601" style="fill:#003915"/><rect x="111.1533" y="172.6622" width="34.87772" height="8.1601" style="fill:#003915"/><rect x="174.58161" y="172.6622" width="20.95279" height="8.1601" style="fill:#003915"/><rect x="64.55109" y="37.26822" width="8.16011" height="12.78418" style="fill:#003915"/><rect x="124.5509" y="37.26822" width="8.16011" height="12.78418" style="fill:#003915"/><rect x="124.5509" y="135.0703" width="8.16011" height="12.78421" style="fill:#003915"/><rect y="142.9024" width="8.1601" height="37.9199" style="fill:#003915"/><rect x="64.26231" y="135.70241" width="8.1601" height="45.1199" style="fill:#003915"/><rect x="96.11089" y="175.66321" width="0.5018" height="2.2986" style="fill:#003915"/><rect x="97.3097" y="175.66321" width="0.50121" height="2.2986" style="fill:#003915"/><rect x="109.9468" y="175.66321" width="0.5015" height="2.2986" style="fill:#003915"/><rect x="111.1453" y="175.66321" width="0.50121" height="2.2986" style="fill:#003915"/><rect x="81.9992" y="175.66321" width="0.5018" height="2.2986" style="fill:#003915"/><rect x="83.1977" y="175.66321" width="0.50121" height="2.2986" style="fill:#003915"/><rect x="79.6096" y="172.6613" width="34.0937" height="0.50151" style="fill:#003915"/><rect x="79.6096" y="175.50851" width="34.0937" height="0.5014" style="fill:#003915"/><rect x="79.6096" y="177.6798" width="34.0937" height="0.5014" style="fill:#003915"/><rect x="79.6096" y="180.3208" width="34.0937" height="0.5015" style="fill:#003915"/><rect x="159.7122" y="175.66321" width="0.50171" height="2.2986" style="fill:#003915"/><rect x="160.9109" y="175.66321" width="0.50119" height="2.2986" style="fill:#003915"/><rect x="173.5481" y="175.66321" width="0.5014" height="2.2986" style="fill:#003915"/><rect x="174.74659" y="175.66321" width="0.5011" height="2.2986" style="fill:#003915"/><rect x="145.6005" y="175.66321" width="0.50171" height="2.2986" style="fill:#003915"/><rect x="146.7989" y="175.66321" width="0.50119" height="2.2986" style="fill:#003915"/><rect x="143.21079" y="172.6613" width="34.09372" height="0.50151" style="fill:#003915"/><rect x="143.21079" y="175.50851" width="34.09372" height="0.5014" style="fill:#003915"/><rect x="143.21079" y="177.6798" width="34.09372" height="0.5014" style="fill:#003915"/><rect x="143.21079" y="180.3208" width="34.09372" height="0.5015" style="fill:#003915"/><path d="M169.6924,269.0762V267.4063h-.6971v1.66991Zm12.9897.5015H168.9953v2.3457h13.6868v.5014H168.4942v-8.1609h14.1879v.5014H168.9953v2.13959h13.6868v.5014H170.1938v1.66991h12.4883Z" transform="translate(-114.8312 -121.6937)" style="fill:#003915;fill-rule:evenodd"/><rect x="17.0637" y="176.1936" width="0.4471" height="1.2971" style="fill:#003915"/><rect x="18.1318" y="176.1936" width="0.44681" height="1.2971" style="fill:#003915"/><rect x="35.66579" y="176.1936" width="0.44701" height="1.2971" style="fill:#003915"/><rect x="36.73389" y="176.1936" width="0.4467" height="1.2971" style="fill:#003915"/><rect x="54.2682" y="176.1936" width="0.44701" height="1.2971" style="fill:#003915"/><rect x="55.3363" y="176.1936" width="0.4467" height="1.2971" style="fill:#003915"/><rect x="72.8711" y="176.1936" width="0.44701" height="1.2971" style="fill:#003915"/><rect x="73.9392" y="176.1936" width="0.4467" height="1.2971" style="fill:#003915"/><rect y="174.9642" width="76.034" height="0.4467" style="fill:#003915"/><rect y="176.0555" width="76.034" height="0.4468" style="fill:#003915"/><rect y="177.13641" width="76.034" height="0.4467" style="fill:#003915"/><path d="M286.348,128.5694H276.5256a.90518.90518,0,0,0-.9053.9039v4.61029a4.59566,4.59566,0,0,0,4.58951,4.591h2.4523a4.59573,4.59573,0,0,0,4.59039-4.591V129.4733a.90468.90468,0,0,0-.90451-.9039m-6.13818,9.8606a4.35108,4.35108,0,0,1-4.34491-4.34641V129.4733a.66152.66152,0,0,1,.66071-.65991H286.348a.66082.66082,0,0,1,.65991.65991v4.61029a4.35147,4.35147,0,0,1-4.34579,4.34641Z" transform="translate(-114.8312 -121.6937)" style="fill:#003915"/><path d="M280.21011,137.33981a3.25873,3.25873,0,0,1-3.25442-3.25623v-2.68808a.56786.56786,0,0,1,.5672-.5675h3.57532v-.24521h-3.57532a.814.814,0,0,0-.81238.81271v2.68808a3.50406,3.50406,0,0,0,3.4996,3.50082h2.4523a3.5046,3.5046,0,0,0,3.50067-3.50082v-2.68808a.81446.81446,0,0,0-.81348-.81271h-3.57532v.24521h3.57532a.56837.56837,0,0,1,.56839.5675v2.68808a3.25943,3.25943,0,0,1-3.25558,3.25623Z" transform="translate(-114.8312 -121.6937)" style="fill:#003915"/><path d="M281.43689,133.73611a.78349.78349,0,1,0,.78381.78348.78476.78476,0,0,0-.78381-.78348m0,1.3223a.53871.53871,0,1,1,.53922-.53882A.5396.5396,0,0,1,281.43689,135.05841Z" transform="translate(-114.8312 -121.6937)" style="fill:#003915"/><rect x="166.48331" y="12.26721" width="0.24487" height="1.11649" style="fill:#003915"/><rect x="166.04731" y="12.70291" width="1.116" height="0.24539" style="fill:#003915"/><path d="M281.77429,129.75171h.40359a.17365.17365,0,0,1,.17291.1741v.37918a.17373.17373,0,0,1-.17291.1741h-.40359v.2449h.40359a.4187.4187,0,0,0,.41812-.419v-.37918a.41863.41863,0,0,0-.41812-.4187h-.40558l.002.03738Zm-1.07718.72739a.17447.17447,0,0,1-.174-.1741v-.37918a.17439.17439,0,0,1,.174-.1741h.40109v-.20721l.00229-.03738h-.40338a.41862.41862,0,0,0-.4187.4187v.37918a.41868.41868,0,0,0,.4187.419h.40109v-.2449Z" transform="translate(-114.8312 -121.6937)" style="fill:#003915"/><path d="M281.43689,129.08411a.4611.4611,0,0,0-.46118.46039v3.08041a.4605.4605,0,0,0,.921,0v-3.08041a.46055.46055,0,0,0-.45981-.46039m0,3.75681a.21667.21667,0,0,1-.21619-.216v-3.08041a.21555.21555,0,0,1,.43109,0v3.08041A.21609.21609,0,0,1,281.43689,132.84091Z" transform="translate(-114.8312 -121.6937)" style="fill:#003915"/><path d="M244.796,156.46289V146.6405a.90526.90526,0,0,0-.9039-.9054H239.2818a4.59575,4.59575,0,0,0-4.591,4.5896v2.4523a4.59574,4.59574,0,0,0,4.591,4.59039h4.61031a.90468.90468,0,0,0,.9039-.90451m-9.86061-6.13818a4.35109,4.35109,0,0,1,4.3464-4.34491h4.61031a.66149.66149,0,0,1,.6599.66071v9.82239a.66079.66079,0,0,1-.6599.65991H239.2818a4.35147,4.35147,0,0,1-4.3464-4.34579Z" transform="translate(-114.8312 -121.6937)" style="fill:#003915"/><path d="M236.0256,150.325a3.25878,3.25878,0,0,1,3.2562-3.25452h2.6881a.56793.56793,0,0,1,.5675.56729v3.57532h.24519v-3.57532a.81412.81412,0,0,0-.8127-.8125h-2.6881A3.50416,3.50416,0,0,0,235.781,150.325v2.45218a3.50462,3.50462,0,0,0,3.50079,3.50079h2.6881a.81445.81445,0,0,0,.8127-.81348v-3.57532h-.24519v3.57532a.56828.56828,0,0,1-.5675.5683h-2.6881a3.25935,3.25935,0,0,1-3.2562-3.25562Z" transform="translate(-114.8312 -121.6937)" style="fill:#003915"/><path d="M239.6293,151.55179a.7835.7835,0,1,0-.78351.78381.78479.78479,0,0,0,.78351-.78381m-1.3223,0a.5387.5387,0,1,1,.53879.53922A.5396.5396,0,0,1,238.307,151.55179Z" transform="translate(-114.8312 -121.6937)" style="fill:#003915"/><rect x="123.45679" y="29.73572" width="1.1165" height="0.24487" style="fill:#003915"/><rect x="123.8922" y="29.29971" width="0.2455" height="1.116" style="fill:#003915"/><path d="M243.61369,151.88919v.40359a.17362.17362,0,0,1-.174.17291h-.3793a.17371.17371,0,0,1-.17409-.17291v-.40359h-.2449v.40359a.41869.41869,0,0,0,.419.41812h.3793a.41861.41861,0,0,0,.41861-.41812v-.40558l-.0374.002Zm-.72739-1.07718a.17453.17453,0,0,1,.17409-.1741h.3793a.17444.17444,0,0,1,.174.1741v.40109h.20721l.0374.00229V150.812a.4186.4186,0,0,0-.41861-.4187h-.3793a.41868.41868,0,0,0-.419.4187v.40109h.2449Z" transform="translate(-114.8312 -121.6937)" style="fill:#003915"/><path d="M244.2813,151.55179a.46111.46111,0,0,0-.46039-.46118h-3.08041a.4605.4605,0,0,0,0,.921h3.08041a.46056.46056,0,0,0,.46039-.45981m-3.75679,0a.21674.21674,0,0,1,.216-.21628h3.08041a.21559.21559,0,0,1,0,.43118h-3.08041A.21608.21608,0,0,1,240.52451,151.55179Z" transform="translate(-114.8312 -121.6937)" style="fill:#003915"/><path d="M229.36391,142.5686a3.91691,3.91691,0,0,1-3.91151-3.913V132.9903a.67709.67709,0,0,1,.4561-.63919,1.24118,1.24118,0,0,1-.20349-.205.946.946,0,0,0-.52161.84421v5.66531a4.1808,4.1808,0,1,0,8.3616,0V132.9903a.94541.94541,0,0,0-.521-.8436,1.24171,1.24171,0,0,1-.2032.20471.67617.67617,0,0,1,.45551.63889v5.66531a3.9171,3.9171,0,0,1-3.9124,3.913" transform="translate(-114.8312 -121.6937)" style="fill:#003915"/><path d="M232.16769,134.07111h-5.60889a.204.204,0,0,0-.20131.2016v4.27069a3.00655,3.00655,0,1,0,6.01311,0v-4.27069a.20467.20467,0,0,0-.20291-.2016m-5.54149.26819h5.476v4.2041a2.738,2.738,0,0,1-5.476,0Z" transform="translate(-114.8312 -121.6937)" style="fill:#003915"/><path d="M229.36369,136.802a1.00815,1.00815,0,1,0,1.0088,1.008,1.01007,1.01007,0,0,0-1.0088-1.008m0,1.74759a.7394.7394,0,1,1,.73981-.73959A.74039.74039,0,0,1,229.36369,138.54959Z" transform="translate(-114.8312 -121.6937)" style="fill:#003915"/><rect x="227.60794" y="134.60479" width="0.26857" height="2.2422" transform="translate(-150.78851 41.42915) rotate(-36.72481)" style="fill:#003915"/><rect x="229.82004" y="135.59151" width="2.24302" height="0.26914" transform="translate(-130.9262 117.61092) rotate(-53.19061)" style="fill:#003915"/><path d="M232.0645,128.5694h-5.4006a1.355,1.355,0,0,0-1.3524,1.35379v1.4743a1.35346,1.35346,0,0,0,1.3524,1.35242h5.4006a1.35314,1.35314,0,0,0,1.35181-1.35242v-1.4743a1.35471,1.35471,0,0,0-1.35181-1.35379m-5.4006,3.91211a1.0855,1.0855,0,0,1-1.0842-1.084v-1.4743a1.08585,1.08585,0,0,1,1.0842-1.08508h5.4006a1.08593,1.08593,0,0,1,1.08369,1.08508v1.4743a1.08558,1.08558,0,0,1-1.08369,1.084Z" transform="translate(-114.8312 -121.6937)" style="fill:#003915"/><path d="M229.36369,129.97171a.6881.6881,0,1,0,.6882.68738.68808.68808,0,0,0-.6882-.68738m0,1.10718a.41925.41925,0,1,1,.41951-.4198A.41942.41942,0,0,1,229.36369,131.07889Z" transform="translate(-114.8312 -121.6937)" style="fill:#003915"/><path d="M267.0744,142.5686a3.917,3.917,0,0,1-3.91159-3.913V132.9903a.67718.67718,0,0,1,.45609-.63919,1.24118,1.24118,0,0,1-.20349-.205.946.946,0,0,0-.52161.84421v5.66531a4.18085,4.18085,0,1,0,8.36169,0V132.9903a.94561.94561,0,0,0-.521-.8436,1.24535,1.24535,0,0,1-.20331.20471.676.676,0,0,1,.45551.63889v5.66531a3.91705,3.91705,0,0,1-3.91229,3.913" transform="translate(-114.8312 -121.6937)" style="fill:#003915"/><path d="M269.87811,134.07111H264.2692a.20407.20407,0,0,0-.20129.2016v4.27069a3.00659,3.00659,0,1,0,6.01318,0v-4.27069a.20473.20473,0,0,0-.203-.2016m-5.54141.26819h5.47589v4.2041a2.73795,2.73795,0,0,1-5.47589,0Z" transform="translate(-114.8312 -121.6937)" style="fill:#003915"/><path d="M267.0741,136.802a1.00815,1.00815,0,1,0,1.00879,1.008,1.01006,1.01006,0,0,0-1.00879-1.008m0,1.74759a.7394.7394,0,1,1,.73981-.73959A.74038.74038,0,0,1,267.0741,138.54959Z" transform="translate(-114.8312 -121.6937)" style="fill:#003915"/><rect x="265.3184" y="134.60478" width="0.26856" height="2.2422" transform="translate(-143.31209 63.92907) rotate(-36.71509)" style="fill:#003915"/><rect x="267.53048" y="135.59147" width="2.24302" height="0.26922" transform="translate(-115.81015 147.80315) rotate(-53.19061)" style="fill:#003915"/><path d="M269.7749,128.5694h-5.40051a1.355,1.355,0,0,0-1.35239,1.35379v1.4743a1.35345,1.35345,0,0,0,1.35239,1.35242h5.40051a1.35323,1.35323,0,0,0,1.3519-1.35242v-1.4743a1.35479,1.35479,0,0,0-1.3519-1.35379m-5.40051,3.91211a1.08551,1.08551,0,0,1-1.08429-1.084v-1.4743a1.08586,1.08586,0,0,1,1.08429-1.08508h5.40051a1.086,1.086,0,0,1,1.08371,1.08508v1.4743a1.0856,1.0856,0,0,1-1.08371,1.084Z" transform="translate(-114.8312 -121.6937)" style="fill:#003915"/><path d="M267.0741,129.97171a.6881.6881,0,1,0,.6882.68738.68806.68806,0,0,0-.6882-.68738m0,1.10718a.41925.41925,0,1,1,.41949-.4198A.4195.4195,0,0,1,267.0741,131.07889Z" transform="translate(-114.8312 -121.6937)" style="fill:#003915"/><path d="M256.10031,157.366H248.2608v11.3479h7.83951Zm-8.17091-.33081H256.432V169.045H247.9294Z" transform="translate(-114.8312 -121.6937)" style="fill:#003915"/><path d="M256.3248,159.76041a.60439.60439,0,0,1,.61261.5936v5.37219a.60405.60405,0,0,1-.61261.59381v-.33081a.26969.26969,0,0,0,.28091-.263V160.354a.26954.26954,0,0,0-.28091-.26282Z" transform="translate(-114.8312 -121.6937)" style="fill:#003915"/><path d="M253.6982,162.01819h-2.7076l-.6217,1.59732a2.47469,2.47469,0,0,0,1.6748-.0918,4.15082,4.15082,0,0,1,1.24069-.2413,2.44725,2.44725,0,0,1,.93651.18829Zm-2.9341-.33078h3.1669l.892,2.48-.39059-.22479a2.2669,2.2669,0,0,0-1.148-.32941,3.8904,3.8904,0,0,0-1.1438.22681,3.89656,3.89656,0,0,1-1.14409.22821,2.01587,2.01587,0,0,1-.9124-.218l-.1358-.06738Z" transform="translate(-114.8312 -121.6937)" style="fill:#003915"/><path d="M290.3822,130.72061v30.0849a2.16109,2.16109,0,0,0,2.16571,2.15149h10.41138a2.16088,2.16088,0,0,0,2.16592-2.15149v-30.0849a2.16083,2.16083,0,0,0-2.16592-2.15121H292.54791a2.161,2.161,0,0,0-2.16571,2.15121m14.51309,30.0849a1.93107,1.93107,0,0,1-1.936,1.92188H292.54791a1.931,1.931,0,0,1-1.93552-1.92187v-30.0849a1.93143,1.93143,0,0,1,1.93552-1.92221h10.41138a1.93154,1.93154,0,0,1,1.936,1.92221Z" transform="translate(-114.8312 -121.6937)" style="fill:#003915"/><path d="M303.63339,157.81979a2.57711,2.57711,0,0,1-2.58209,2.5654h-6.59479a2.5766,2.5766,0,0,1-2.58182-2.5654V133.7066a2.577,2.577,0,0,1,2.58182-2.56592h2.06189a.39624.39624,0,0,1-.142-.22818h-1.91989a2.80643,2.80643,0,0,0-2.81262,2.7941v24.11319a2.80669,2.80669,0,0,0,2.81262,2.7944h6.59479a2.80657,2.80657,0,0,0,2.81219-2.7944V133.7066a2.80631,2.80631,0,0,0-2.81219-2.7941h-1.9202a.39567.39567,0,0,1-.14151.22818h2.06171a2.57755,2.57755,0,0,1,2.58209,2.56592Z" transform="translate(-114.8312 -121.6937)" style="fill:#003915"/><path d="M302.3201,156.2724a1.26672,1.26672,0,0,1-1.2688,1.26111h-6.59479a1.26634,1.26634,0,0,1-1.26822-1.26111V133.7066a1.26621,1.26621,0,0,1,1.26822-1.26141h2.84479v-.22879h-2.84479a1.49624,1.49624,0,0,0-1.499,1.4902v22.5658a1.49571,1.49571,0,0,0,1.499,1.48929h6.59479a1.49529,1.49529,0,0,0,1.4989-1.48929V133.7066a1.49582,1.49582,0,0,0-1.4989-1.4902h-2.84521v.22879h2.84521a1.26659,1.26659,0,0,1,1.2688,1.26141Z" transform="translate(-114.8312 -121.6937)" style="fill:#003915"/><path d="M297.021,135.61179a.73331.73331,0,1,0,.73361-.73.73144.73144,0,0,0-.73361.73m1.23639,0a.50326.50326,0,1,1-.50278-.50027A.50181.50181,0,0,1,298.25739,135.61179Z" transform="translate(-114.8312 -121.6937)" style="fill:#003915"/><rect x="182.40009" y="13.80301" width="1.04572" height="0.22931" style="fill:#003915"/><rect x="182.80799" y="13.3988" width="0.2308" height="1.03769" style="fill:#003915"/><path d="M297.3013,131.11179h-.53741a.27993.27993,0,0,1-.2804-.27869v-.5051a.28036.28036,0,0,1,.2804-.27921h.53741V129.82h-.53741a.51034.51034,0,0,0-.51108.508v.5051a.50962.50962,0,0,0,.51108.50739h.53741Zm1.72211-.27869a.27987.27987,0,0,1-.28012.27869h-.5372v.2287h.5372a.50919.50919,0,0,0,.5108-.50739v-.5051a.5099.5099,0,0,0-.5108-.508h-.5372v.22879h.5372a.2803.2803,0,0,1,.28012.27921Z" transform="translate(-114.8312 -121.6937)" style="fill:#003915"/><path d="M297.186,129.822v3.2012a.56761.56761,0,0,0,1.13519,0V129.822a.56761.56761,0,0,0-1.13519,0m.90509,3.2012a.33721.33721,0,0,1-.67441,0V129.822a.33721.33721,0,0,1,.67441,0Z" transform="translate(-114.8312 -121.6937)" style="fill:#003915"/><path d="M161.2137,140.33969H149.4445V128.5708h11.7692Zm-11.5197-.24948h11.27049V128.8197H149.694Z" transform="translate(-114.8312 -121.6937)" style="fill:#003915"/><path d="M155.32919,129.66888a3.91958,3.91958,0,0,0-.9816,7.7142.30018.30018,0,0,0-.0743.1976v.0405a4.16841,4.16841,0,1,1,2.1116.00031v-.0408a.29846.29846,0,0,0-.074-.1973,3.91975,3.91975,0,0,0-.9817-7.71451" transform="translate(-114.8312 -121.6937)" style="fill:#003915"/><path d="M155.32919,137.06961a3.48151,3.48151,0,1,1,3.48131-3.48181,3.4857,3.4857,0,0,1-3.48131,3.48181m0-6.71362a3.23195,3.23195,0,1,0,3.23181,3.23181A3.23556,3.23556,0,0,0,155.32919,130.356Z" transform="translate(-114.8312 -121.6937)" style="fill:#003915"/><path d="M155.32919,134.49039a.9023.9023,0,1,1,.9026-.90259.90332.90332,0,0,1-.9026.90259m0-1.55569a.653.653,0,1,0,.65311.65311A.65426.65426,0,0,0,155.32919,132.93469Z" transform="translate(-114.8312 -121.6937)" style="fill:#003915"/><rect x="40.3733" y="11.23761" width="0.2495" height="1.3139" style="fill:#003915"/><rect x="39.84119" y="11.76971" width="1.3136" height="0.24969" style="fill:#003915"/><path d="M156.083,138.3945H154.5755a.427.427,0,0,1-.42661-.42661v-.38721a.42684.42684,0,0,1,.42661-.42657H156.083a.4269.4269,0,0,1,.42661.42657v.38721a.42706.42706,0,0,1-.42661.42661m-1.50749-.991a.17773.17773,0,0,0-.17751.17719v.38721a.17756.17756,0,0,0,.17751.17722H156.083a.17721.17721,0,0,0,.17711-.17722v-.38721a.17738.17738,0,0,0-.17711-.17719Z" transform="translate(-114.8312 -121.6937)" style="fill:#003915"/><path d="M155.1093,138.26981v.08649a.21965.21965,0,1,0,.4393,0v-.08649h.2498v.08649a.46945.46945,0,0,1-.9389,0v-.08649Zm.21989-2.59a.22039.22039,0,0,0-.21989.22049v1.37851h-.2498V135.9003a.46945.46945,0,1,1,.9389,0v1.37851h-.2498V135.9003A.2199.2199,0,0,0,155.32919,135.67981Z" transform="translate(-114.8312 -121.6937)" style="fill:#003915"/><path d="M132.5489,139.85831h7.1566a1.49609,1.49609,0,0,0,1.4942-1.49472v-8.29868a1.496,1.496,0,0,0-1.4942-1.49411h-7.1566a1.49569,1.49569,0,0,0-1.4942,1.49411v8.29868a1.49576,1.49576,0,0,0,1.4942,1.49472m7.1566-11.0545a1.26256,1.26256,0,0,1,1.26109,1.26111v8.29868a1.26269,1.26269,0,0,1-1.26109,1.26172h-7.1566a1.26307,1.26307,0,0,1-1.2617-1.26172v-8.29868a1.26294,1.26294,0,0,1,1.2617-1.26111Z" transform="translate(-114.8312 -121.6937)" style="fill:#003915"/><path d="M132.5489,139.0394h7.1566a.67617.67617,0,0,0,.6758-.67581V131.353a.67637.67637,0,0,0-.6758-.67581h-7.1566a.67656.67656,0,0,0-.67641.67581v7.01059a.67636.67636,0,0,0,.67641.67581m7.1566-8.12921a.44333.44333,0,0,1,.4431.44281v7.01059a.44351.44351,0,0,1-.4431.44312h-7.1566a.44388.44388,0,0,1-.44391-.44312V131.353a.4437.4437,0,0,1,.44391-.44281Z" transform="translate(-114.8312 -121.6937)" style="fill:#003915"/><path d="M139.0054,130.25851a.47421.47421,0,1,0-.4743-.47421.4751.4751,0,0,0,.4743.47421m0-.71542a.24121.24121,0,1,1-.24161.24121A.24184.24184,0,0,1,139.0054,129.54309Z" transform="translate(-114.8312 -121.6937)" style="fill:#003915"/><path d="M137.4046,130.25851a.47421.47421,0,1,0-.47481-.47421.475.475,0,0,0,.47481.47421m0-.71542a.24121.24121,0,1,1-.24181.24121A.24163.24163,0,0,1,137.4046,129.54309Z" transform="translate(-114.8312 -121.6937)" style="fill:#003915"/><rect x="21.9013" y="14.97061" width="2.7196" height="0.2327" style="fill:#003915"/><rect x="23.1446" y="13.72791" width="0.2327" height="2.71951" style="fill:#003915"/><path d="M138.0923,137.6777a.8969.8969,0,1,0-.89661-.89691.898.898,0,0,0,.89661.89691m0-1.5611a.66429.66429,0,1,1-.66389.66418A.66556.66556,0,0,1,138.0923,136.11661Z" transform="translate(-114.8312 -121.6937)" style="fill:#003915"/><rect x="21.9013" y="11.1257" width="2.7196" height="0.23239" style="fill:#003915"/><rect x="23.1446" y="9.88211" width="0.2327" height="2.7204" style="fill:#003915"/><path d="M138.0923,133.83331a.89716.89716,0,1,0-.89661-.8974.8986.8986,0,0,0,.89661.8974m0-1.56192a.66475.66475,0,1,1-.66389.66452A.66545.66545,0,0,1,138.0923,132.27139Z" transform="translate(-114.8312 -121.6937)" style="fill:#003915"/><rect x="17.9708" y="14.97061" width="2.7193" height="0.2327" style="fill:#003915"/><rect x="19.21349" y="13.72791" width="0.233" height="2.71951" style="fill:#003915"/><path d="M134.16119,137.6777a.8969.8969,0,1,0-.8969-.89691.89785.89785,0,0,0,.8969.89691m0-1.5611a.66429.66429,0,1,1-.66379.66418A.66608.66608,0,0,1,134.16119,136.11661Z" transform="translate(-114.8312 -121.6937)" style="fill:#003915"/><rect x="17.9708" y="11.1257" width="2.7193" height="0.23239" style="fill:#003915"/><rect x="19.21349" y="9.88211" width="0.233" height="2.7204" style="fill:#003915"/><path d="M134.16119,133.83331a.89716.89716,0,1,0-.8969-.8974.89848.89848,0,0,0,.8969.8974m0-1.56192a.66475.66475,0,1,1-.66379.66452A.666.666,0,0,1,134.16119,132.27139Z" transform="translate(-114.8312 -121.6937)" style="fill:#003915"/><path d="M134.691,130.25851a.47421.47421,0,1,0-.47449-.47421.47478.47478,0,0,0,.47449.47421m0-.71542a.24121.24121,0,1,1-.24179.24121A.24161.24161,0,0,1,134.691,129.54309Z" transform="translate(-114.8312 -121.6937)" style="fill:#003915"/><path d="M133.0894,130.25851a.47421.47421,0,1,0-.47391-.47421.47467.47467,0,0,0,.47391.47421m0-.71542a.24121.24121,0,1,1-.2415.24121A.24168.24168,0,0,1,133.0894,129.54309Z" transform="translate(-114.8312 -121.6937)" style="fill:#003915"/><path d="M250.3689,129.38461a.809.809,0,1,0,.2348.57089.81.81,0,0,0-.2348-.57089m-.5726-1.03632a1.60687,1.60687,0,1,1-1.1364.47049A1.603,1.603,0,0,1,249.7963,128.3483Z" transform="translate(-114.8312 -121.6937)" style="fill:#003915"/><path d="M221.7532,234.6716c-.7319,0-1.2359-.618-1.2359-1.7399s.504-1.7399,1.2359-1.7399,1.2359.61789,1.2359,1.7399-.504,1.7399-1.2359,1.7399m0,.396c.972,0,1.67979-.798,1.67979-2.13589s-.70779-2.13589-1.67979-2.13589-1.6739.7979-1.6739,2.13589S220.7812,235.0676,221.7532,235.0676Zm-5.20781-4.23579v1.1698h.426v-.786h2.16l-1.728,3.816h.468l1.7581-3.894v-.3058Zm-.7498,3.5759a.314.314,0,0,0-.318.324.303.303,0,0,0,.216.3058l-.2041.87h.288l.252-.828a.97605.97605,0,0,0,.0842-.34779A.314.314,0,0,0,215.79559,234.4077Zm-.8461-.864h-.83989v-.972h-.4198v.972h-1.8241l2.14809-2.7119h-.48019l-2.2258,2.78389v.31181h2.3698v1.1041h.432v-1.1041h.83989Zm-5.9939-2.7119v.3838h.9902v3.816h.432v-4.1998Z" transform="translate(-114.8312 -121.6937)" style="fill:#83746c;fill-rule:evenodd"/><path d="M283.86569,234.6716c-.7319,0-1.2359-.618-1.2359-1.7399s.504-1.7399,1.2359-1.7399,1.2359.61789,1.2359,1.7399-.504,1.7399-1.2359,1.7399m0,.396c.972,0,1.67981-.798,1.67981-2.13589s-.70779-2.13589-1.67981-2.13589-1.67389.7979-1.67389,2.13589S282.89371,235.0676,283.86569,235.0676Zm-3.6301-2.43579,1.188-1.4942v-.3058h-2.7v.3838h2.1481l-1.16391,1.4581v.3181h.2999c.77982,0,1.13391.32989,1.13391.83389,0,.5219-.38379.8459-1.08.8459a1.84122,1.84122,0,0,1-1.302-.4859l-.21.3419a2.185,2.185,0,0,0,1.512.54c1.01389,0,1.5239-.54,1.5239-1.2419C281.58551,233.1536,281.13559,232.6797,280.2356,232.63181Zm-2.42981,1.77589a.31408.31408,0,0,0-.31808.324.30313.30313,0,0,0,.216.3058l-.2041.87h.288l.252-.828a.97639.97639,0,0,0,.0842-.34779A.314.314,0,0,0,277.80579,234.4077Zm-2.6221-1.8542h-.54l.144-1.33789h1.91992v-.3838h-2.2977l-.216,2.1058h.894c1.06781,0,1.40372.33589,1.40372.87589,0,.51-.37781.85811-1.09192.85811a1.821,1.821,0,0,1-1.29-.4859l-.20981.3419a2.16867,2.16867,0,0,0,1.5058.54c1.02609,0,1.5239-.55789,1.5239-1.2719C276.9296,233.05161,276.44971,232.5535,275.18369,232.5535Zm-3.528-1.72169v.3838h.9902v3.816h.432v-4.1998Z" transform="translate(-114.8312 -121.6937)" style="fill:#83746c;fill-rule:evenodd"/><path d="M154.66141,154.80151c-.7319,0-1.2359-.618-1.2359-1.73993s.504-1.7399,1.2359-1.7399,1.23589.61792,1.23589,1.7399-.504,1.73993-1.23589,1.73993m0,.396c.972,0,1.67979-.798,1.67979-2.13593s-.70779-2.13589-1.67979-2.13589-1.6739.79791-1.6739,2.13589S153.68941,155.19751,154.66141,155.19751Zm-3.97191-.396c-.7319,0-1.2359-.618-1.2359-1.73993s.504-1.7399,1.2359-1.7399,1.2359.61792,1.2359,1.7399S151.4214,154.80151,150.6895,154.80151Zm0,.396c.972,0,1.67979-.798,1.67979-2.13593s-.70779-2.13589-1.67979-2.13589-1.6739.79791-1.6739,2.13589S149.7175,155.19751,150.6895,155.19751Zm-2.5498-.65991a.314.314,0,0,0-.318.324.303.303,0,0,0,.216.30579l-.2041.87h.288l.252-.828a.97619.97619,0,0,0,.0842-.34781A.314.314,0,0,0,148.13969,154.5376Zm-2.622-1.85419h-.54l.144-1.33792h1.91989v-.38379H144.7438l-.216,2.1058h.8941c1.06779,0,1.4037.33591,1.4037.87589,0,.51-.37791.85812-1.0919.85812a1.82143,1.82143,0,0,1-1.2901-.4859l-.2097.34189a2.16859,2.16859,0,0,0,1.50569.54c1.0262,0,1.52391-.55792,1.52391-1.27191C147.2635,153.18149,146.7836,152.68341,145.5177,152.68341Z" transform="translate(-114.8312 -121.6937)" style="fill:#83746c;fill-rule:evenodd"/><path d="M156.63541,235.5517c-.7319,0-1.2359-.6179-1.2359-1.7399s.504-1.7399,1.2359-1.7399,1.2359.618,1.2359,1.7399-.504,1.7399-1.2359,1.7399m0,.396c.972,0,1.67979-.7979,1.67979-2.13589s-.70779-2.13589-1.67979-2.13589-1.67381.798-1.67381,2.13589S155.66341,235.94769,156.63541,235.94769Zm-3.96591-2.514h-.54l.144-1.338h1.91991v-.3838H151.8956l-.216,2.1059h.8941c1.06779,0,1.4037.33591,1.4037.8759,0,.5099-.3779.858-1.0919.858a1.82188,1.82188,0,0,1-1.2901-.48579l-.2097.3418a2.16812,2.16812,0,0,0,1.50571.54c1.0262,0,1.5239-.5578,1.5239-1.2719C154.4153,233.9317,153.93539,233.4337,152.66949,233.4337Zm-2.04579,1.8541a.31407.31407,0,0,0-.318.324.30311.30311,0,0,0,.216.30589l-.2041.8699h.288l.252-.828a.9759.9759,0,0,0,.0842-.34779A.314.314,0,0,0,150.6237,235.2878Zm-2.34.294c-.72591,0-1.11-.438-1.11-.9a.97207.97207,0,0,1,1.08-.91789c.648,0,1.05591.35381,1.05591.906A.91889.91889,0,0,1,148.28371,235.5818Zm.036-2.1841a1.3427,1.3427,0,0,0-1.2841.72c-.0119-.1259-.01779-.2458-.01779-.3419,0-1.14011.58189-1.722,1.4879-1.722a1.47067,1.47067,0,0,1,.8158.19809l.174-.3481a1.92813,1.92813,0,0,0-.9958-.22789c-1.14009,0-1.91989.74379-1.91989,2.17189,0,1.32611.60579,2.0999,1.7218,2.0999a1.30849,1.30849,0,0,0,1.434-1.29A1.2716,1.2716,0,0,0,148.3197,233.39771Zm-4.16411-1.68581v.3838h.9902v3.816h.432v-4.1998Z" transform="translate(-114.8312 -121.6937)" style="fill:#83746c;fill-rule:evenodd"/><path d="M206.8316,147.05151c-.7319,0-1.2359-.61792-1.2359-1.73993s.504-1.7399,1.2359-1.7399,1.2359.618,1.2359,1.7399-.504,1.73993-1.2359,1.73993m0,.396c.972,0,1.67979-.79791,1.67979-2.13593s-.70779-2.13589-1.67979-2.13589-1.6738.798-1.6738,2.13589S205.8596,147.44751,206.8316,147.44751Zm-2.0701-1.5239h-.8399v-.972h-.4198v.972h-1.8241l2.1481-2.71191h-.48021l-2.2258,2.78391v.31189h2.3698v1.104h.432v-1.104h.8399Zm-4.4337.864a.31406.31406,0,0,0-.318.324.30316.30316,0,0,0,.216.30591l-.2041.87h.288l.252-.828a.97677.97677,0,0,0,.0842-.3479A.31405.31405,0,0,0,200.3278,146.7876Zm-2.2861-1.77591,1.188-1.49408v-.30591h-2.7v.38379h2.1481l-1.16389,1.45822v.318h.2999c.7798,0,1.1338.33,1.1338.834,0,.52182-.3838.84583-1.08.84583a1.841,1.841,0,0,1-1.3019-.48581l-.2101.3418a2.1847,2.1847,0,0,0,1.512.54c1.014,0,1.5239-.54,1.5239-1.24182C199.39149,145.5336,198.9417,145.0596,198.0417,145.01169Z" transform="translate(-114.8312 -121.6937)" style="fill:#83746c;fill-rule:evenodd"/><path d="M242.79311,184.8017c-.7319,0-1.2359-.618-1.2359-1.7399s.504-1.74,1.2359-1.74,1.2359.618,1.2359,1.74-.504,1.7399-1.2359,1.7399m0,.396c.972,0,1.67979-.798,1.67979-2.13589s-.70779-2.136-1.67979-2.136-1.6739.798-1.6739,2.136S241.82111,185.19769,242.79311,185.19769Zm-3.966-2.5141h-.54l.144-1.33789H240.351v-.38391h-2.2977l-.216,2.10591h.894c1.06781,0,1.4037.33589,1.4037.8759,0,.51-.37779.85809-1.09189.85809a1.821,1.821,0,0,1-1.29-.4859l-.20979.3419a2.16864,2.16864,0,0,0,1.5058.54c1.02609,0,1.5239-.55789,1.5239-1.2719C240.573,183.1817,240.09309,182.68359,238.8271,182.68359Zm-2.0457,1.8542a.31408.31408,0,0,0-.3181.324.30313.30313,0,0,0,.216.3058l-.2041.87h.288l.252-.828a.976.976,0,0,0,.0842-.34779A.314.314,0,0,0,236.7814,184.5378Zm-2.28621-1.776,1.188-1.49409v-.30591h-2.7v.38391h2.1481l-1.16389,1.4581v.318h.2999c.7798,0,1.1339.33,1.1339.834,0,.52191-.3838.8459-1.08.8459a1.84133,1.84133,0,0,1-1.302-.4859l-.21.3419a2.18493,2.18493,0,0,0,1.512.54c1.0139,0,1.5239-.54,1.5239-1.2419C235.84509,183.28371,235.3952,182.8098,234.49519,182.7618Z" transform="translate(-114.8312 -121.6937)" style="fill:#83746c;fill-rule:evenodd"/><path d="M230.6151,153.82181c-.7319,0-1.2359-.61792-1.2359-1.7399s.504-1.7399,1.2359-1.7399,1.236.618,1.236,1.7399-.504,1.7399-1.236,1.7399m0,.396c.972,0,1.6799-.79791,1.6799-2.13589s-.7079-2.13589-1.6799-2.13589-1.6738.798-1.6738,2.13589S229.6431,154.2178,230.6151,154.2178Zm-3.62379-.36591c-.72591,0-1.11-.438-1.11-.9a.97208.97208,0,0,1,1.08-.91791c.648,0,1.05589.35379,1.05589.906A.91889.91889,0,0,1,226.9913,153.8519Zm.036-2.18411a1.34274,1.34274,0,0,0-1.2841.72c-.0119-.12589-.01779-.24579-.01779-.34189,0-1.14011.58189-1.722,1.4879-1.722a1.47051,1.47051,0,0,1,.8158.19809l.174-.34811a1.927,1.927,0,0,0-.99579-.22787c-1.14011,0-1.91991.74377-1.91991,2.17188,0,1.32611.6058,2.09991,1.7218,2.09991a1.3085,1.3085,0,0,0,1.434-1.29A1.27164,1.27164,0,0,0,227.0273,151.66779Zm-2.6158,1.89011a.31407.31407,0,0,0-.318.324.30314.30314,0,0,0,.216.30591l-.2041.8699h.288l.252-.828a.97563.97563,0,0,0,.0842-.34781A.314.314,0,0,0,224.4115,153.55789Zm-3.24.23981,1.4281-1.40369a1.72915,1.72915,0,0,0,.69-1.31412c0-.7019-.54-1.13388-1.39209-1.13388a1.88717,1.88717,0,0,0-1.4879.59979l.30579.26419a1.42656,1.42656,0,0,1,1.1461-.468c.642,0,.9839.2999.9839.786,0,.28781-.0899.56979-.5638,1.03781l-1.7462,1.71021v.30579h2.94611v-.38409Z" transform="translate(-114.8312 -121.6937)" style="fill:#83746c;fill-rule:evenodd"/><path d="M277.4996,153.82181c-.7319,0-1.2359-.61792-1.2359-1.7399s.504-1.7399,1.2359-1.7399,1.2359.618,1.2359,1.7399-.504,1.7399-1.2359,1.7399m0,.396c.972,0,1.67981-.79791,1.67981-2.13589s-.70782-2.13589-1.67981-2.13589-1.6738.798-1.6738,2.13589S276.52759,154.2178,277.4996,154.2178Zm-3.63-2.43579,1.188-1.49411V149.982h-2.7v.38382h2.1481L273.3418,151.824v.318h.2999c.77982,0,1.13382.33,1.13382.834,0,.52179-.38382.84579-1.08.84579a1.84146,1.84146,0,0,1-1.30191-.48581l-.21008.3418a2.18462,2.18462,0,0,0,1.512.54c1.014,0,1.5239-.54,1.5239-1.24179C275.21939,152.30389,274.76959,151.8299,273.8696,151.782Zm-2.4299,1.77588a.31407.31407,0,0,0-.318.324.30311.30311,0,0,0,.216.30591l-.2041.8699h.288l.252-.828a.976.976,0,0,0,.0842-.34781A.31406.31406,0,0,0,271.4397,153.55789Zm-2.622-1.8541h-.54l.144-1.338h1.91992V149.982h-2.29782l-.216,2.1059h.8941c1.06781,0,1.40372.33591,1.40372.87592,0,.50989-.3779.858-1.09192.858a1.82184,1.82184,0,0,1-1.2901-.48581l-.20969.3418a2.168,2.168,0,0,0,1.50571.54c1.02618,0,1.5239-.5578,1.5239-1.27191C270.56351,152.20181,270.08359,151.7038,268.81769,151.7038Z" transform="translate(-114.8312 -121.6937)" style="fill:#83746c;fill-rule:evenodd"/><path d="M155.431,285.67169c-.7319,0-1.2359-.618-1.2359-1.7399s.504-1.7399,1.2359-1.7399,1.2359.6179,1.2359,1.7399-.504,1.7399-1.2359,1.7399m0,.396c.972,0,1.67979-.798,1.67979-2.13591s-.70779-2.13589-1.67979-2.13589-1.6739.7979-1.6739,2.13589S154.459,286.0677,155.431,286.0677Zm-4.5-.4201,1.4281-1.4037a1.729,1.729,0,0,0,.6899-1.31419c0-.7018-.54-1.1338-1.39209-1.1338a1.88736,1.88736,0,0,0-1.4879.59981l.30589.26419a1.426,1.426,0,0,1,1.146-.468c.64211,0,.984.29991.984.786,0,.28769-.0899.56979-.5639,1.0378l-1.74609,1.7101v.30589h2.946v-.38409Zm-1.55991-.23979a.31408.31408,0,0,0-.3181.324.30312.30312,0,0,0,.216.3058l-.2041.87h.288l.252-.828a.97638.97638,0,0,0,.0842-.34781A.314.314,0,0,0,149.37109,285.40781Zm-2.28619-1.77591,1.188-1.4942v-.3058h-2.7v.3838H147.721l-1.16389,1.4581v.3181h.2999c.77991,0,1.13391.32989,1.13391.83391,0,.5219-.3838.84589-1.08.84589a1.8413,1.8413,0,0,1-1.302-.48589l-.21.34189a2.18493,2.18493,0,0,0,1.512.54c1.014,0,1.5239-.54,1.5239-1.2419C148.4348,284.1537,147.98489,283.67979,147.0849,283.6319Z" transform="translate(-114.8312 -121.6937)" style="fill:#83746c;fill-rule:evenodd"/><path d="M204.23061,126.68689a3.90785,3.90785,0,1,1-3.90761-3.9079,3.9081,3.9081,0,0,1,3.90761,3.9079" transform="translate(-114.8312 -121.6937)" style="fill:#558e42;fill-rule:evenodd"/><polygon points="85.492 7.397 85.87 6.082 86.248 4.768 85.492 4.768 84.735 4.768 85.113 6.082 85.492 7.397" style="fill:#fdfdfd;fill-rule:evenodd"/><rect x="85.2866" y="2.58911" width="0.38411" height="2.28128" style="fill:#fdfdfd"/><path d="M278.7287,292.4921c-.434,0-.68939-.1891-.68939-.4935,0-.301.2554-.4901.68939-.4901s.69312.1891.69312.4901c0,.3044-.25912.4935-.69312.4935m-.6055-1.624c0-.2729.2348-.441.6055-.441.36771,0,.60919.16811.60919.44441,0,.26619-.2276.4377-.60919.4377C278.3475,291.3092,278.1232,291.1377,278.1232,290.8681Zm1.07809.53209a.55492.55492,0,0,0,.392-.53909c0-.3989-.34641-.64751-.86459-.64751-.51791,0-.85751.24861-.85751.64751a.55307.55307,0,0,0,.38531.53909.61092.61092,0,0,0-.4726.60181c0,.434.3569.7036.94479.7036.5845,0,.95221-.26959.95221-.7036A.61689.61689,0,0,0,279.20129,291.40019Zm-2.70538,1.0919c-.434,0-.68942-.1891-.68942-.4935,0-.301.2554-.4901.68942-.4901s.693.1891.693.4901C277.1889,292.303,276.9299,292.4921,276.49591,292.4921Zm-.6055-1.624c0-.2729.23468-.441.6055-.441.36758,0,.6091.16811.6091.44441,0,.26619-.2276.4377-.6091.4377C276.11459,291.3092,275.89041,291.1377,275.89041,290.8681Zm1.078.53209a.555.555,0,0,0,.392-.53909c0-.3989-.34641-.64751-.8645-.64751-.51791,0-.85751.24861-.85751.64751a.553.553,0,0,0,.38519.53909.611.611,0,0,0-.4725.60181c0,.434.3569.7036.94482.7036.5845,0,.95209-.26959.95209-.7036A.61689.61689,0,0,0,276.96841,291.40019Zm-1.98791.92041a.18317.18317,0,0,0-.18539.1891.1767.1767,0,0,0,.12579.1783l-.119.50769H274.97l.14709-.48309a.57265.57265,0,0,0,.049-.2029A.1832.1832,0,0,0,274.9805,292.3206Zm-1.8902.14.8331-.81891a1.00775,1.00775,0,0,0,.40259-.76649c0-.40959-.315-.66161-.81219-.66161a1.10107,1.10107,0,0,0-.86789.35011l.1785.1539a.83219.83219,0,0,1,.66849-.273c.37442,0,.574.17491.574.4584,0,.16811-.05249.3325-.32889.6055l-1.0184.9975v.1786h1.71829v-.224Z" transform="translate(-114.8312 -121.6937)" style="fill:#434242"/><path d="M215.28909,292.4745c-.4269,0-.72119-.3605-.72119-1.0148,0-.6545.2943-1.01511.72119-1.01511s.72081.36061.72081,1.01511c0,.6543-.2939,1.0148-.72081,1.0148m0,.23109c.56691,0,.9799-.4655.9799-1.2459,0-.78061-.413-1.24611-.9799-1.24611s-.97659.4655-.97659,1.24611C214.3125,292.2401,214.72211,292.7056,215.28909,292.7056ZM212.972,291.4875c-.37781,0-.61591-.2063-.61591-.5284a.53628.53628,0,0,1,.5986-.532c.42351,0,.64751.25571.64751.5249A.5671.5671,0,0,1,212.972,291.4875Zm-.02769-1.27391a.76328.76328,0,0,0-.83661.75261.74169.74169,0,0,0,.82611.7348.78274.78274,0,0,0,.74889-.4198c.00711.07339.01051.1434.01051.19949,0,.665-.3396,1.0043-.868,1.0043a.85882.85882,0,0,1-.47589-.1153l-.1015.2029a1.124,1.124,0,0,0,.5808.133c.665,0,1.12-.434,1.12-1.26711C213.94859,290.66521,213.59509,290.21359,212.94431,290.21359Zm-1.31281,2.107a.18316.18316,0,0,0-.18539.1891.17677.17677,0,0,0,.1259.1783l-.11911.50769h.16811l.1472-.48309a.57528.57528,0,0,0,.049-.2029A.18321.18321,0,0,0,211.6315,292.3206Zm-1.89011.14.8331-.81891a1.00761,1.00761,0,0,0,.40251-.76649c0-.40959-.31491-.66161-.8121-.66161a1.10129,1.10129,0,0,0-.868.35011l.17859.1539a.832.832,0,0,1,.66841-.273c.3745,0,.574.17491.574.4584,0,.16811-.0524.3325-.3288.6055l-1.01849.9975v.1786h1.7184v-.224Z" transform="translate(-114.8312 -121.6937)" style="fill:#434242"/><path d="M152.1201,294.58611l.8331-.819a1.00762,1.00762,0,0,0,.4025-.76651c0-.40959-.3149-.66159-.8121-.66159a1.10106,1.10106,0,0,0-.86789.3501l.1785.1539a.83237.83237,0,0,1,.6684-.2729c.3745,0,.5741.1749.5741.4583,0,.16811-.05249.3325-.32889.6055l-1.0184.9975v.1786h1.71829v-.22389Zm-1.6273.03139c-.434,0-.68939-.189-.68939-.4935,0-.301.2554-.4901.68939-.4901s.693.1891.693.4901C151.18581,294.4285,150.9267,294.61749,150.4928,294.61749Zm-.6055-1.62389c0-.273.2347-.4411.6055-.4411.3676,0,.6091.16809.6091.44449,0,.2661-.2276.43761-.6091.43761C150.1115,293.4346,149.8873,293.26309,149.8873,292.99361Zm1.078.532a.55487.55487,0,0,0,.392-.53911c0-.3989-.34641-.64749-.8645-.64749-.5179,0-.8575.2486-.8575.64749a.55289.55289,0,0,0,.38519.53911.611.611,0,0,0-.47249.60179c0,.434.3569.7036.94479.7036.5845,0,.9521-.26959.9521-.7036A.61694.61694,0,0,0,150.9653,293.5256Zm-1.9879.92039a.18317.18317,0,0,0-.18539.1891.17668.17668,0,0,0,.12579.1783l-.119.50771h.16811l.14709-.483a.57378.57378,0,0,0,.049-.203A.18318.18318,0,0,0,148.9774,294.446Zm-1.8902.14011.8331-.819a1.00762,1.00762,0,0,0,.4025-.76651c0-.40959-.3149-.66159-.8121-.66159a1.10145,1.10145,0,0,0-.868.3501l.1786.1539a.83237.83237,0,0,1,.6684-.2729c.3745,0,.574.1749.574.4583,0,.16811-.0524.3325-.32881.6055l-1.01849.9975v.1786h1.7184v-.22389Z" transform="translate(-114.8312 -121.6937)" style="fill:#434242"/><path d="M278.104,167.5545c-.434,0-.68939-.189-.68939-.4935,0-.301.2554-.49011.68939-.49011s.693.18912.693.49011c0,.3045-.259.4935-.693.4935m-.6055-1.6239c0-.273.23468-.4411.6055-.4411.36758,0,.6091.16809.6091.44449,0,.26611-.2276.43762-.6091.43762C277.72269,166.37161,277.4985,166.2001,277.4985,165.9306Zm1.078.532a.55477.55477,0,0,0,.392-.53909c0-.3989-.34641-.64749-.8645-.64749-.51791,0-.85751.2486-.85751.64749a.55277.55277,0,0,0,.38522.53909.611.611,0,0,0-.4725.60181c0,.434.3569.70361.94479.70361.5845,0,.95209-.26959.95209-.70361A.617.617,0,0,0,278.57651,166.46259Zm-2.70541,1.09192c-.434,0-.68939-.189-.68939-.4935,0-.301.2554-.49011.68939-.49011s.69312.18912.69312.49011C276.56421,167.36551,276.30511,167.5545,275.87109,167.5545Zm-.6055-1.6239c0-.273.23471-.4411.6055-.4411.36771,0,.60919.16809.60919.44449,0,.26611-.2276.43762-.60919.43762C275.4899,166.37161,275.26559,166.2001,275.26559,165.9306Zm1.07809.532a.55474.55474,0,0,0,.392-.53909c0-.3989-.34637-.64749-.86459-.64749-.51788,0-.85748.2486-.85748.64749a.55286.55286,0,0,0,.38528.53909.611.611,0,0,0-.4726.60181c0,.434.3569.70361.94479.70361.5845,0,.95221-.26959.95221-.70361A.617.617,0,0,0,276.34369,166.46259Zm-1.988.92041a.18319.18319,0,0,0-.18542.18912.17678.17678,0,0,0,.12592.17828l-.11911.50769h.16812l.14709-.483a.57464.57464,0,0,0,.0491-.203A.18322.18322,0,0,0,274.35571,167.383Zm-1.89011.14011.8331-.819a1.00758,1.00758,0,0,0,.4025-.76639c0-.40973-.31491-.66171-.8121-.66171a1.10133,1.10133,0,0,0-.868.3501l.17862.1539a.83221.83221,0,0,1,.6684-.27289c.37451,0,.574.1749.574.45828,0,.16812-.0524.33252-.3288.6055l-1.01852.9975v.17862h1.71841v-.22391Z" transform="translate(-114.8312 -121.6937)" style="fill:#434242"/><path d="M231.7901,145.9744c-.4269,0-.7211-.3606-.7211-1.0148,0-.65451.2942-1.01511.7211-1.01511s.7209.3606.7209,1.01511c0,.65421-.294,1.0148-.7209,1.0148m0,.231c.56689,0,.9799-.46542.9799-1.24582,0-.7807-.413-1.24609-.9799-1.24609s-.9765.46539-.9765,1.24609C230.8136,145.74,231.22321,146.20541,231.7901,146.20541Zm-1.20731-.88892h-.4901v-.567h-.2449v.567h-1.06409l1.2529-1.58209h-.2798l-1.29851,1.624v.182h1.3824v.644h.252v-.644h.4901Zm-2.58659.504a.18314.18314,0,0,0-.18539.189.17669.17669,0,0,0,.1259.17831l-.11911.50769h.16811l.1472-.483a.57559.57559,0,0,0,.049-.203A.18318.18318,0,0,0,227.9962,145.8205Zm-1.6064-2.08609v.224h.57739v2.226h.252v-2.45Z" transform="translate(-114.8312 -121.6937)" style="fill:#434242"/><path d="M200.2411,136.21069l.8331-.81891a1.00768,1.00768,0,0,0,.4025-.76648c0-.40961-.3149-.66159-.8121-.66159a1.101,1.101,0,0,0-.868.3501l.1786.1539a.83193.83193,0,0,1,.6684-.273c.3744,0,.574.1749.574.4584,0,.16809-.0524.33249-.32881.6055l-1.01849.9975v.17859h1.7184v-.224Zm-2.4568-2.226v.68259h.2486v-.45871h1.26l-1.008,2.2261h.273l1.02519-2.27139v-.17859Zm-.43741,2.086a.18317.18317,0,0,0-.18539.18909.17678.17678,0,0,0,.1259.17831l-.11909.50769h.16809l.14711-.48309a.574.574,0,0,0,.04909-.20291A.1832.1832,0,0,0,197.34689,136.07071Zm-1.6064-2.086v.22388h.57741v2.2261h.252v-2.45Z" transform="translate(-114.8312 -121.6937)" style="fill:#434242"/><path d="M150.84,144.56671h-.4901v-.56692h-.2449v.56692h-1.0641l1.2529-1.582H150.014l-1.29861,1.6239v.182h1.38251v.6441h.252v-.6441h.4901Zm-2.3134,0h-.4901v-.56692h-.2449v.56692h-1.0641l1.2529-1.582h-.27979l-1.29851,1.6239v.182h1.3824v.6441h.252v-.6441h.4901Zm-2.58659.504a.18318.18318,0,0,0-.18541.18909.17678.17678,0,0,0,.1259.17831l-.11909.50769h.16811l.1472-.48309a.57577.57577,0,0,0,.049-.20291A.1832.1832,0,0,0,145.94,145.07071Zm-1.89011.14.8331-.81891a1.00771,1.00771,0,0,0,.40251-.76648c0-.40961-.31491-.66159-.8121-.66159a1.101,1.101,0,0,0-.868.3501l.1786.1539a.832.832,0,0,1,.6684-.273c.37451,0,.574.1749.574.4584,0,.16809-.0524.33249-.3288.6055l-1.01851.9975v.17859h1.71841v-.224Z" transform="translate(-114.8312 -121.6937)" style="fill:#434242"/><path d="M149.7742,260.7424c-.42351,0-.64771-.2554-.64771-.525a.56724.56724,0,0,1,.63011-.53549c.3779,0,.616.20641.616.5284a.53613.53613,0,0,1-.5984.5321m.0209-1.2739a.78337.78337,0,0,0-.7491.4198c-.00691-.07341-.0105-.1434-.0105-.1996,0-.6647.3396-1.0043.86789-1.0043a.861.861,0,0,1,.4763.1154l.10139-.203a1.12545,1.12545,0,0,0-.5811-.1329c-.665,0-1.11989.434-1.11989,1.26711,0,.7733.35339,1.22479,1.00459,1.22479a.76333.76333,0,0,0,.8365-.75259A.74177.74177,0,0,0,149.79511,259.46851Zm-2.3555.26929c-.3779,0-.616-.20639-.616-.5284a.53639.53639,0,0,1,.59871-.5321c.42349,0,.6474.25571.6474.525A.56706.56706,0,0,1,147.43961,259.73779Zm-.0278-1.2739a.76317.76317,0,0,0-.8365.75261.74153.74153,0,0,0,.826.7347.78262.78262,0,0,0,.7489-.4198c.0071.07339.0105.14349.0105.1996,0,.665-.3396,1.0043-.868,1.0043a.85884.85884,0,0,1-.47589-.1154l-.1015.203a1.124,1.124,0,0,0,.5808.13289c.665,0,1.12-.434,1.12-1.26709C148.41611,258.9155,148.06261,258.4639,147.4118,258.4639Zm-1.3127,2.107a.18318.18318,0,0,0-.18541.1891.17675.17675,0,0,0,.12581.1783l-.119.5076h.16809l.14711-.483a.57339.57339,0,0,0,.049-.20291A.18319.18319,0,0,0,146.09911,260.57089Zm-1.89021.14.83311-.81891a1.0078,1.0078,0,0,0,.4025-.76649c0-.40961-.31491-.66161-.8121-.66161a1.10113,1.10113,0,0,0-.868.3501l.17859.1539a.83219.83219,0,0,1,.66841-.273c.3745,0,.574.1749.574.4584,0,.16809-.0524.33249-.3288.6055l-1.01849.9975v.1786h1.7184v-.224Z" transform="translate(-114.8312 -121.6937)" style="fill:#434242"/><line x1="156.70039" y1="169.8309" x2="132.5682" y2="169.8309" style="fill:none;stroke:#b1b2b2;stroke-miterlimit:22.92558479309082;stroke-width:0.2160000056028366px"/><line x1="93.32529" y1="169.8309" x2="72.2795" y2="169.8309" style="fill:none;stroke:#b1b2b2;stroke-miterlimit:22.92558479309082;stroke-width:0.2160000056028366px"/><line x1="30.57481" y1="171.95641" x2="8.0172" y2="171.95641" style="fill:none;stroke:#b1b2b2;stroke-miterlimit:22.92558479309082;stroke-width:0.2160000056028366px"/><line x1="156.0756" y1="44.8934" x2="132.95541" y2="44.8934" style="fill:none;stroke:#b1b2b2;stroke-miterlimit:22.92558479309082;stroke-width:0.2160000056028366px"/><line x1="110.13821" y1="23.33081" x2="103.3897" y2="23.33081" style="fill:none;stroke:#b1b2b2;stroke-miterlimit:22.92558479309082;stroke-width:0.2160000056028366px"/><line x1="79.2" y1="13.58099" x2="66.0881" y2="13.58099" style="fill:none;stroke:#b1b2b2;stroke-miterlimit:22.92558479309082;stroke-width:0.2160000056028366px"/><line x1="27.7002" y1="22.58099" x2="4.8592" y2="22.58099" style="fill:none;stroke:#b1b2b2;stroke-miterlimit:22.92558479309082;stroke-width:0.2160000056028366px"/><line x1="27.7002" y1="138.08121" x2="4.8592" y2="138.08121" style="fill:none;stroke:#b1b2b2;stroke-miterlimit:22.92558479309082;stroke-width:0.2160000056028366px"/><line x1="190.3896" y1="169.8309" x2="166.13941" y2="169.8309" style="fill:none;stroke:#b1b2b2;stroke-miterlimit:22.92558479309082;stroke-width:0.2160000056028366px"/><line x1="129.966" y1="169.8309" x2="102.7644" y2="169.8309" style="fill:none;stroke:#b1b2b2;stroke-miterlimit:22.92558479309082;stroke-width:0.2160000056028366px"/><line x1="64.11941" y1="171.95641" x2="40.01389" y2="171.95641" style="fill:none;stroke:#b1b2b2;stroke-miterlimit:22.92558479309082;stroke-width:0.2160000056028366px"/><line x1="190.3896" y1="44.8934" x2="165.51469" y2="44.8934" style="fill:none;stroke:#b1b2b2;stroke-miterlimit:22.92558479309082;stroke-width:0.2160000056028366px"/><line x1="129.966" y1="23.33081" x2="119.57729" y2="23.33081" style="fill:none;stroke:#b1b2b2;stroke-miterlimit:22.92558479309082;stroke-width:0.2160000056028366px"/><line x1="100.5469" y1="13.58099" x2="88.63911" y2="13.58099" style="fill:none;stroke:#b1b2b2;stroke-miterlimit:22.92558479309082;stroke-width:0.2160000056028366px"/><line x1="54.1052" y1="22.58099" x2="37.13931" y2="22.58099" style="fill:none;stroke:#b1b2b2;stroke-miterlimit:22.92558479309082;stroke-width:0.2160000056028366px"/><line x1="64.11941" y1="138.08121" x2="37.13931" y2="138.08121" style="fill:none;stroke:#b1b2b2;stroke-miterlimit:22.92558479309082;stroke-width:0.2160000056028366px"/><path d="M259.74741,154.61719H260.43v-.2486h-.45868v-1.26l2.22607,1.008v-.273l-2.27139-1.0253h-.17859Zm2.2399,1.2424c0,.42691-.3606.72122-1.0148.72122-.65451,0-1.01511-.29431-1.01511-.72122s.3606-.72079,1.01511-.72079C261.62671,155.13879,261.9873,155.43271,261.9873,155.85959Zm.231,0c0-.56689-.46539-.97989-1.24579-.97989-.7807,0-1.24609.413-1.24609.97989s.46539.97662,1.24609.97662C261.7529,156.83621,262.21829,156.42661,262.21829,155.85959Zm-.38489,1.4877a.18315.18315,0,0,0,.18909.1853.17677.17677,0,0,0,.17831-.12579l.5076.119v-.168l-.483-.14719a.57587.57587,0,0,0-.20291-.049A.18321.18321,0,0,0,261.8334,157.34729Zm.14,1.89011-.81888-.8331a1.00777,1.00777,0,0,0-.76651-.4025c-.40961,0-.66159.31491-.66159.8121a1.101,1.101,0,0,0,.3501.868l.1539-.17859a.832.832,0,0,1-.273-.6684c0-.37451.1749-.574.4584-.574.16809,0,.33249.0524.6055.3288l.9975,1.01849h.17859V157.8898h-.224Z" transform="translate(-114.8312 -121.6937)" style="fill:#434242"/><path d="M218.8616,181.825c0,.4269-.3606.7211-1.0148.7211-.6545,0-1.01511-.2942-1.01511-.7211s.36061-.7209,1.01511-.7209c.65421,0,1.0148.294,1.0148.7209m.231,0c0-.56689-.4655-.9799-1.2458-.9799-.7807,0-1.24611.413-1.24611.9799s.46541.9765,1.24611.9765C218.62711,182.8015,219.09261,182.39191,219.09261,181.825Zm-.2449,2.6252-.81891-.8331a1.008,1.008,0,0,0-.76649-.4026c-.40959,0-.66161.315-.66161.81221a1.10106,1.10106,0,0,0,.35.86789l.154-.17859a.832.832,0,0,1-.273-.66841c0-.37439.17491-.574.4583-.574.16811,0,.33261.05249.6055.3288l.99751,1.01849h.17859V183.1026h-.22389Zm-.14.9099a.18314.18314,0,0,0,.189.18541.17676.17676,0,0,0,.1783-.1259l.50771.11909v-.16809l-.483-.14711a.57393.57393,0,0,0-.203-.0491A.18318.18318,0,0,0,218.7077,185.36009Zm-2.08611,1.60641h.224v-.57741h2.226v-.252h-2.45Z" transform="translate(-114.8312 -121.6937)" style="fill:#434242"/><path d="M251.50079,243.92529v.31491l-.78059-.08391v-1.12h-.224v1.3405l1.22859.1259v-.5213c0-.62309.1958-.8192.511-.8192.29741,0,.50041.2205.50041.63719a1.06142,1.06142,0,0,1-.28351.7523l.1996.1225a1.26491,1.26491,0,0,0,.3149-.87849c0-.5984-.32539-.8889-.74179-.8889-.4343,0-.72461.28011-.72461,1.01849m1.2529,1.946c0,.43391-.189.6893-.4935.6893-.301,0-.4901-.25539-.4901-.6893s.1891-.6931.4901-.6931C252.5647,245.17819,252.75369,245.4373,252.75369,245.87129Zm-1.62389.60541c-.273,0-.4411-.2347-.4411-.60541,0-.36769.16809-.60919.44449-.60919.26611,0,.43761.2276.43761.60919C251.5708,246.2525,251.39931,246.4767,251.12981,246.4767Zm.532-1.078a.55487.55487,0,0,0-.53911-.392c-.3989,0-.64749.34641-.64749.86459,0,.51791.2486.85741.64749.85741a.55289.55289,0,0,0,.53911-.38519.611.611,0,0,0,.60179.47249c.434,0,.7036-.3568.7036-.9447,0-.58449-.26959-.95219-.7036-.95219A.617.617,0,0,0,251.6618,245.3987Zm.92039,1.988a.18316.18316,0,0,0,.1891.1853.17669.17669,0,0,0,.1783-.12581l.50771.119v-.168l-.483-.1472a.57583.57583,0,0,0-.203-.049A.18322.18322,0,0,0,252.5822,247.3867Zm-.504.49319v.4901h-.56689v.2449h.56689v1.0641l-1.582-1.2529v.2798l1.624,1.2986h.182V248.622h.644v-.252h-.644v-.4901Z" transform="translate(-114.8312 -121.6937)" style="fill:#434242"/><path d="M302.15961,244.3542l-.81891-.8331a1.00793,1.00793,0,0,0-.76651-.4026c-.40958,0-.66159.315-.66159.81219a1.10077,1.10077,0,0,0,.3501.8679l.1539-.1786a.832.832,0,0,1-.273-.6684c0-.3744.17493-.574.4584-.574.16812,0,.33252.05251.6055.32881l.9975,1.01849h.17862v-1.71831h-.224Zm.01389,1.6588c0,.4269-.3606.7211-1.0148.7211-.65448,0-1.01511-.2942-1.01511-.7211s.36063-.7209,1.01511-.7209C301.8129,245.2921,302.17349,245.58611,302.17349,246.013Zm.231,0c0-.56689-.46542-.9799-1.24582-.9799-.7807,0-1.24609.413-1.24609.9799s.46539.9765,1.24609.9765C301.93909,246.9895,302.40451,246.5799,302.40451,246.013Zm-.38492,1.48759a.18318.18318,0,0,0,.18912.18541.17663.17663,0,0,0,.17828-.1259l.5076.11909v-.16811l-.483-.14709a.57391.57391,0,0,0-.20288-.0491A.18321.18321,0,0,0,302.01959,247.5006Zm.17151,1.3649c0,.42351-.2554.64771-.525.64771a.56728.56728,0,0,1-.53549-.6301c0-.3779.20639-.616.52838-.616A.53611.53611,0,0,1,302.1911,248.86549Zm-1.2739-.021a.78343.78343,0,0,0,.4198.74921c-.07339.00679-.1434.0105-.19962.0105-.6647,0-1.0043-.3396-1.0043-.868a.86106.86106,0,0,1,.11542-.47621l-.203-.1015a1.12593,1.12593,0,0,0-.1329.5811c0,.665.434,1.12,1.26709,1.12.77332,0,1.22482-.3535,1.22482-1.00461a.76336.76336,0,0,0-.75262-.8365A.74173.74173,0,0,0,300.91721,248.8445Z" transform="translate(-114.8312 -121.6937)" style="fill:#434242"/><path d="M124.736,189.82919c0,.42691-.3605.7211-1.0148.7211-.6545,0-1.0151-.29419-1.0151-.7211s.3606-.72089,1.0151-.72089c.6543,0,1.0148.294,1.0148.72089m.2311,0c0-.56689-.4655-.98-1.2459-.98-.7806,0-1.2461.4131-1.2461.98s.4655.9765,1.2461.9765C124.5016,190.80569,124.9671,190.3961,124.9671,189.82919Zm-.2135,2.2785c0,.434-.1891.68941-.4935.68941-.301,0-.4901-.2554-.4901-.68941s.1891-.6931.4901-.6931C124.5645,191.4146,124.7536,191.67371,124.7536,192.1077Zm-1.624.6055c-.2729,0-.441-.2348-.441-.6055,0-.36769.1681-.60919.4444-.60919.2662,0,.4377.2276.4377.60919C123.5707,192.48891,123.3992,192.7132,123.1296,192.7132Zm.5321-1.07809a.555.555,0,0,0-.5391-.392c-.3989,0-.6475.34639-.6475.86459,0,.5179.2486.8575.6475.8575a.55305.55305,0,0,0,.5391-.3853.611.611,0,0,0,.6018.47261c.434,0,.70361-.3569.70361-.94481,0-.5845-.2696-.95219-.70361-.95219A.61687.61687,0,0,0,123.6617,191.6351Zm.9204,1.988a.18317.18317,0,0,0,.1891.18541.17677.17677,0,0,0,.1783-.1259l.5077.11909v-.16809l-.4831-.1472a.575.575,0,0,0-.2029-.049A.18321.18321,0,0,0,124.5821,193.62309Zm.1715,1.36491c0,.42349-.2554.64769-.525.64769a.56726.56726,0,0,1-.5354-.6302c0-.37779.2063-.61589.5283-.61589A.53608.53608,0,0,1,124.7536,194.988Zm-1.2739-.021a.78356.78356,0,0,0,.4198.74921c-.07339.00679-.14339.0105-.1995.0105-.66479,0-1.0043-.3396-1.0043-.868a.86054.86054,0,0,1,.1153-.47621l-.2029-.10149a1.1258,1.1258,0,0,0-.133.5811c0,.665.434,1.12,1.26711,1.12.7733,0,1.2249-.3535,1.2249-1.00461a.76333.76333,0,0,0-.7526-.83649A.74175.74175,0,0,0,123.4797,194.967Z" transform="translate(-114.8312 -121.6937)" style="fill:#434242"/><path d="M127.0006,283.5088v.315l-.7806-.08391v-1.12h-.224v1.3405l1.2286.1259v-.5213c0-.62311.1958-.8192.5111-.8192.2973,0,.50029.22049.50029.63719a1.06141,1.06141,0,0,1-.28349.7523l.1996.1225a1.26491,1.26491,0,0,0,.3149-.87849c0-.5984-.32539-.889-.7418-.889-.4343,0-.72459.28011-.72459,1.01851m-1.0046,2.058h.224v-.57741h2.226v-.252h-2.45Zm2.086.3569a.18323.18323,0,0,0,.1891.18539.17676.17676,0,0,0,.1783-.1259l.50771.11909v-.16809l-.483-.1472a.57583.57583,0,0,0-.203-.049A.18326.18326,0,0,0,128.082,285.92371Zm-2.086,1.6064h.224v-.5775h2.226v-.252h-2.45Z" transform="translate(-114.8312 -121.6937)" style="fill:#434242"/><line x1="146.20621" y1="39.1969" x2="146.20621" y2="48.01091" style="fill:none;stroke:#b1b2b2;stroke-miterlimit:22.92558479309082;stroke-width:0.2160000056028366px"/><line x1="103.0805" y1="66.8228" x2="103.0805" y2="73.5712" style="fill:none;stroke:#b1b2b2;stroke-miterlimit:22.92558479309082;stroke-width:0.2160000056028366px"/><line x1="136.9551" y1="129.448" x2="136.9551" y2="173.1577" style="fill:none;stroke:#b1b2b2;stroke-miterlimit:22.92558479309082;stroke-width:0.2160000056028366px"/><line x1="186.3924" y1="129.448" x2="186.3924" y2="173.1577" style="fill:none;stroke:#b1b2b2;stroke-miterlimit:22.92558479309082;stroke-width:0.2160000056028366px"/><line x1="8.9549" y1="75.3159" x2="8.9549" y2="143.0657" style="fill:none;stroke:#b1b2b2;stroke-miterlimit:22.92558479309082;stroke-width:0.2160000056028366px"/><line x1="12.4549" y1="167.94821" x2="12.4549" y2="174.69661" style="fill:none;stroke:#b1b2b2;stroke-miterlimit:22.92558479309082;stroke-width:0.2160000056028366px"/><line x1="146.20621" y1="6.92099" x2="146.20621" y2="29.75781" style="fill:none;stroke:#b1b2b2;stroke-miterlimit:22.92558479309082;stroke-width:0.2160000056028366px"/><line x1="103.0805" y1="50.63521" x2="103.0805" y2="57.3837" style="fill:none;stroke:#b1b2b2;stroke-miterlimit:22.92558479309082;stroke-width:0.2160000056028366px"/><line x1="136.9551" y1="76.51671" x2="136.9551" y2="120.00891" style="fill:none;stroke:#b1b2b2;stroke-miterlimit:22.92558479309082;stroke-width:0.2160000056028366px"/><line x1="186.3924" y1="53.7355" x2="186.3924" y2="120.00891" style="fill:none;stroke:#b1b2b2;stroke-miterlimit:22.92558479309082;stroke-width:0.2160000056028366px"/><line x1="8.9549" y1="6.92099" x2="8.9549" y2="64.81581" style="fill:none;stroke:#b1b2b2;stroke-miterlimit:22.92558479309082;stroke-width:0.2160000056028366px"/><line x1="12.4549" y1="151.7606" x2="12.4549" y2="158.50911" style="fill:none;stroke:#b1b2b2;stroke-miterlimit:22.92558479309082;stroke-width:0.2160000056028366px"/><path d="M294.35049,179.36819l.69272-.8714v-.1785h-1.57492v.22391h1.2529l-.67889.85069v.18539h.1749c.45529,0,.66162.19241.66162.4864,0,.3044-.22391.4935-.62982.4935a1.0744,1.0744,0,0,1-.7597-.28349l-.1225.1996a1.27485,1.27485,0,0,0,.8822.3149c.59131,0,.88892-.3149.88892-.7245,0-.39211-.26251-.6684-.78741-.6965m-2.4957,1.1761.8331-.81889a1.008,1.008,0,0,0,.40262-.76651c0-.40959-.315-.66159-.81223-.66159a1.10076,1.10076,0,0,0-.86789.3501l.1785.1539a.83236.83236,0,0,1,.66849-.273c.37442,0,.574.1749.574.45839,0,.16811-.05249.3325-.3288.60541l-1.01849.9976v.1785h1.71829v-.22391Zm-.90991-.14a.18315.18315,0,0,0-.18539.189.17672.17672,0,0,0,.12592.17831l-.11911.50769h.16809l.14713-.483a.57427.57427,0,0,0,.0491-.203A.18321.18321,0,0,0,290.94489,180.4043Zm-1.60638-2.086v.22391h.57739v2.226h.252V178.3183Z" transform="translate(-114.8312 -121.6937)" style="fill:#434242"/><line x1="172.79292" y1="57.91461" x2="166.0445" y2="57.91461" style="fill:none;stroke:#b1b2b2;stroke-miterlimit:22.92558479309082;stroke-width:0.2160000056028366px"/><line x1="190.3896" y1="57.91461" x2="182.232" y2="57.91461" style="fill:none;stroke:#b1b2b2;stroke-miterlimit:22.92558479309082;stroke-width:0.2160000056028366px"/></svg>