<svg id="Слой_1" data-name="Слой 1" xmlns="http://www.w3.org/2000/svg" viewBox="0 0 146.05969 373.43991"><title>1.03.09</title><polygon points="0.095 2.23 82.885 2.23 82.885 5.23 146.06 5.23 146.06 373.44 76.185 373.44 76.185 370.413 59.069 370.413 59.069 370.201 0.095 370.201 0.095 2.23" style="fill:#fff;fill-rule:evenodd"/><path d="M273.8316,175.6506h2.54318v6.8201H273.8316ZM269.39,179.5788h2.54318v2.89191H269.39Zm0-3.96109h2.54318v2.89189H269.39Zm-1.14832-1.1483h9.34781V185.1682H268.2417Z" transform="translate(-139.5686 -25.87869)" style="fill:#003915;fill-rule:evenodd"/><path d="M214.2043,196.4053V193.862h-6.96v2.5433Zm0,4.33609v-2.5432h-6.96v2.5432Zm-4.068,4.4416v-2.5432h-2.892v2.5432Zm4.068,0v-2.5432h-2.892v2.5432Zm0-29.601v2.5432h-6.96V175.582Zm0-4.3362v2.54329h-6.96V171.2458Zm-4.068-4.4416v2.5433h-2.892v-2.5433Zm4.068,0v2.5433h-2.892v-2.5433Zm2.9984,17.59441V207.9052H204.5262v-43.8231h12.6765Zm-9.9584,0V192.144h6.96V180.0499h-6.96Z" transform="translate(-139.5686 -25.87869)" style="fill:#003915;fill-rule:evenodd"/><path d="M273.3537,254.1187h2.54321v6.9599H273.3537Zm-4.33621,0h2.5433v6.9599h-2.5433Zm-4.44159,4.068h2.54321v2.89189H264.5759Zm0-4.068h2.54321v2.89191H264.5759Zm-1.1611-2.27989h13.96829v10.493H263.41479Z" transform="translate(-139.5686 -25.87869)" style="fill:#003915;fill-rule:evenodd"/><path d="M209.73,60.67081a.374.374,0,1,0-.37469-.6474L195.4352,68.06329a.374.374,0,0,0,.3748.6474Z" transform="translate(-139.5686 -25.87869)" style="fill:#003915"/><path d="M207.1624,365.3286a.374.374,0,1,1-.37469.6474l-13.9201-8.0399a.374.374,0,1,1,.37469-.6474Z" transform="translate(-139.5686 -25.87869)" style="fill:#003915"/><path d="M236.0061,322.316a.374.374,0,0,1-.3748.6474l-13.92011-8.0399a.374.374,0,0,1,.3748-.6474Z" transform="translate(-139.5686 -25.87869)" style="fill:#003915"/><path d="M263.8967,211.6044a.37405.37405,0,1,0-.37469-.64751l-13.9201,8.0399a.37405.37405,0,0,0,.37469.64751Z" transform="translate(-139.5686 -25.87869)" style="fill:#003915"/><path d="M207.98219,296.68739a.374.374,0,1,1-.6474-.37479l8.0399-13.92a.374.374,0,1,1,.6474.37471Z" transform="translate(-139.5686 -25.87869)" style="fill:#003915"/><path d="M207.5652,236.7406a.374.374,0,1,0-.6474.37469l8.0399,13.9201a.374.374,0,1,0,.6474-.37469Z" transform="translate(-139.5686 -25.87869)" style="fill:#003915"/><path d="M235.46519,281.566a.374.374,0,1,1-.6474-.3748l8.0399-13.92009a.374.374,0,1,1,.6474.3748Z" transform="translate(-139.5686 -25.87869)" style="fill:#003915"/><path d="M243.0173,171.8553a.374.374,0,0,0,.6474-.3748l-8.0399-13.9201a.374.374,0,0,0-.6474.37482Z" transform="translate(-139.5686 -25.87869)" style="fill:#003915"/><rect x="75.7332" y="116.76019" width="2.6022" height="90.47931" style="fill:#003915"/><rect x="75.7332" y="225.10091" width="2.6022" height="31.93851" style="fill:#003915"/><rect x="75.7332" y="275.03941" width="2.6022" height="63.3606" style="fill:#003915"/><rect x="103.5726" y="193.19951" width="2.60219" height="49.1998" style="fill:#003915"/><rect x="103.5726" y="258.35951" width="2.60219" height="30.0798" style="fill:#003915"/><rect x="103.62669" y="145.55931" width="2.6022" height="12.9606" style="fill:#003915"/><rect x="104.5157" y="225.44981" width="38.08369" height="2.60219" style="fill:#003915"/><rect x="7.7009" y="138.2034" width="65.7193" height="2.6022" style="fill:#003915"/><rect x="7.7009" y="240.35951" width="70.44009" height="2.60219" style="fill:#003915"/><rect x="104.5157" y="193.19951" width="5.67659" height="2.6022" style="fill:#003915"/><rect x="126.6041" y="193.19951" width="17.5986" height="2.6022" style="fill:#003915"/><rect x="104.5157" y="283.43731" width="38.08369" height="2.6022" style="fill:#003915"/><rect x="100.19569" y="286.6226" width="42.4037" height="2.6022" style="fill:#003915"/><rect x="76.5706" y="286.6226" width="5.62509" height="2.6022" style="fill:#003915"/><rect x="104.2328" y="113.84869" width="38.36659" height="2.6022" style="fill:#003915"/><rect x="104.2328" y="119.59882" width="38.36659" height="2.6022" style="fill:#003915"/><rect x="103.62669" y="113.84869" width="2.6022" height="15.6308" style="fill:#003915"/><rect x="141.52789" y="9.63782" width="4.5318" height="147.68219" style="fill:#003915"/><rect x="141.24438" y="189.2395" width="4.81531" height="164.0815" style="fill:#003915"/><rect x="141.24438" y="161.40411" width="4.81531" height="7.9231" style="fill:#003915"/><rect x="103.62669" y="156.77431" width="42.433" height="6.4256" style="fill:#003915"/><rect x="141.62091" y="192.61751" width="4.43878" height="6.4256" style="fill:#003915"/><rect x="3.79019" y="30.8942" width="32.37021" height="8.16013" style="fill:#003915"/><rect x="1.2226" y="335.18771" width="32.37021" height="8.1601" style="fill:#003915"/><rect x="70.07159" y="30.8942" width="10.50211" height="8.16013" style="fill:#003915"/><rect x="67.504" y="335.18771" width="10.502" height="8.1601" style="fill:#003915"/><rect x="78.6725" y="5.5199" width="16.60309" height="8.1601" style="fill:#003915"/><rect x="78.6725" y="365.27981" width="16.60309" height="8.1601" style="fill:#003915"/><rect x="124.32901" y="365.27981" width="21.73068" height="8.1601" style="fill:#003915"/><rect x="123.89359" y="5.5199" width="22.16611" height="8.1601" style="fill:#003915"/><rect width="8.1601" height="71.84412" style="fill:#003915"/><rect y="100.7243" width="8.1601" height="77.52299" style="fill:#003915"/><rect y="206.979" width="8.1601" height="166.4609" style="fill:#003915"/><rect width="10.7957" height="36.48019" style="fill:#003915"/><rect x="72.41359" width="8.16011" height="39.05432" style="fill:#003915"/><rect x="75.7332" y="113.68512" width="8.1601" height="12.7843" style="fill:#003915"/><rect x="75.7332" y="229.8858" width="8.1601" height="12.78421" style="fill:#003915"/><rect x="76.08929" y="328.32001" width="8.1601" height="45.1199" style="fill:#003915"/><rect x="141.24438" y="335.52001" width="4.81531" height="37.9199" style="fill:#003915"/><rect x="72.41359" width="10.62201" height="13.67999" style="fill:#003915"/><rect x="108.93599" y="8.52182" width="0.50171" height="2.29858" style="fill:#003915"/><rect x="110.1348" y="8.52182" width="0.5011" height="2.29858" style="fill:#003915"/><rect x="122.77191" y="8.52182" width="0.5015" height="2.29858" style="fill:#003915"/><rect x="123.9704" y="8.52182" width="0.50119" height="2.29858" style="fill:#003915"/><rect x="94.8243" y="8.52182" width="0.50171" height="2.29858" style="fill:#003915"/><rect x="96.0228" y="8.52182" width="0.5011" height="2.29858" style="fill:#003915"/><rect x="92.43469" y="5.5199" width="34.09369" height="0.5014" style="fill:#003915"/><rect x="92.43469" y="8.367" width="34.09369" height="0.5014" style="fill:#003915"/><rect x="92.43469" y="10.5383" width="34.09369" height="0.5015" style="fill:#003915"/><rect x="92.43469" y="13.17941" width="34.09369" height="0.5014" style="fill:#003915"/><rect x="108.93599" y="368.28081" width="0.50171" height="2.2986" style="fill:#003915"/><rect x="110.1348" y="368.28081" width="0.5011" height="2.2986" style="fill:#003915"/><rect x="122.77191" y="368.28081" width="0.5015" height="2.2986" style="fill:#003915"/><rect x="123.9704" y="368.28081" width="0.50119" height="2.2986" style="fill:#003915"/><rect x="94.8243" y="368.28081" width="0.50171" height="2.2986" style="fill:#003915"/><rect x="96.0228" y="368.28081" width="0.5011" height="2.2986" style="fill:#003915"/><rect x="92.43469" y="365.27891" width="34.09369" height="0.5015" style="fill:#003915"/><rect x="92.43469" y="368.12601" width="34.09369" height="0.5015" style="fill:#003915"/><rect x="92.43469" y="370.29741" width="34.09369" height="0.5014" style="fill:#003915"/><rect x="92.43469" y="372.93841" width="34.09369" height="0.5015" style="fill:#003915"/><rect x="3.00189" y="86.70981" width="2.2986" height="0.50171" style="fill:#003915"/><rect x="3.00189" y="85.5116" width="2.2986" height="0.50122" style="fill:#003915"/><rect x="3.00189" y="72.87421" width="2.2986" height="0.5014" style="fill:#003915"/><rect x="3.00189" y="71.67599" width="2.2986" height="0.5011" style="fill:#003915"/><rect x="3.00189" y="100.8215" width="2.2986" height="0.50171" style="fill:#003915"/><rect x="3.00189" y="99.6236" width="2.2986" height="0.50122" style="fill:#003915"/><rect y="69.61911" width="0.5014" height="34.09369" style="fill:#003915"/><rect x="2.84709" y="69.61911" width="0.50151" height="34.09369" style="fill:#003915"/><rect x="5.01849" y="69.61911" width="0.5014" height="34.09369" style="fill:#003915"/><rect x="7.6595" y="69.61911" width="0.5014" height="34.09369" style="fill:#003915"/><rect x="3.00189" y="192.78001" width="2.2986" height="0.50169" style="fill:#003915"/><rect x="3.00189" y="191.5818" width="2.2986" height="0.5011" style="fill:#003915"/><rect x="3.00189" y="178.94431" width="2.2986" height="0.5015" style="fill:#003915"/><rect x="3.00189" y="177.74611" width="2.2986" height="0.50119" style="fill:#003915"/><rect x="3.00189" y="206.89171" width="2.2986" height="0.50169" style="fill:#003915"/><rect x="3.00189" y="205.6938" width="2.2986" height="0.5011" style="fill:#003915"/><rect y="175.6893" width="0.5014" height="34.0937" style="fill:#003915"/><rect x="2.84709" y="175.6893" width="0.50151" height="34.0937" style="fill:#003915"/><rect x="5.01849" y="175.6893" width="0.5014" height="34.0937" style="fill:#003915"/><rect x="7.6595" y="175.6893" width="0.5014" height="34.0937" style="fill:#003915"/><path d="M190.68581,60.12061V61.7905h.697V60.12061Zm-13.56921,0V61.7905h13.0677V60.12061Zm-1.1982,0V61.7905h.697V60.12061Zm-.50169,1.66989V60.12061h-5.7895v-.5014h21.7556V57.2735H169.6272V56.772H191.884v8.161H169.6272v-.50153h21.7556V62.292H173.3309v-.5015Z" transform="translate(-139.5686 -25.87869)" style="fill:#003915;fill-rule:evenodd"/><path d="M188.1181,365.8788v-1.6699h.6971v1.6699Zm-13.56911,0v-1.6699h13.0677v1.6699Zm-1.1982,0v-1.6699h.697v1.6699Zm-.5018-1.6699v1.6699h-5.7894v.5015h21.7556v2.3456H167.0596v.5015h22.2567v-8.161H167.0596v.5015h21.7556v2.1396h-18.0519v.5014Z" transform="translate(-139.5686 -25.87869)" style="fill:#003915;fill-rule:evenodd"/><rect x="21.3914" y="3.84012" width="0.44699" height="1.29709" style="fill:#003915"/><rect x="22.4595" y="3.84012" width="0.44669" height="1.29709" style="fill:#003915"/><rect x="39.99339" y="3.84012" width="0.4471" height="1.29709" style="fill:#003915"/><rect x="41.06149" y="3.84012" width="0.44681" height="1.29709" style="fill:#003915"/><rect x="58.59579" y="3.84012" width="0.44701" height="1.29709" style="fill:#003915"/><rect x="59.66389" y="3.84012" width="0.4467" height="1.29709" style="fill:#003915"/><rect x="77.1987" y="3.84012" width="0.4471" height="1.29709" style="fill:#003915"/><rect x="78.2668" y="3.84012" width="0.44679" height="1.29709" style="fill:#003915"/><rect x="2.789" y="3.84012" width="0.44699" height="1.29709" style="fill:#003915"/><rect x="3.8571" y="3.84012" width="0.4467" height="1.29709" style="fill:#003915"/><rect x="1.35609" y="2.61072" width="79.00551" height="0.44669" style="fill:#003915"/><rect x="1.35609" y="3.702" width="79.00551" height="0.44681" style="fill:#003915"/><rect x="1.35609" y="4.7829" width="79.00551" height="0.44672" style="fill:#003915"/><rect x="21.3914" y="368.81121" width="0.44699" height="1.2971" style="fill:#003915"/><rect x="22.4595" y="368.81121" width="0.44669" height="1.2971" style="fill:#003915"/><rect x="39.99339" y="368.81121" width="0.4471" height="1.2971" style="fill:#003915"/><rect x="41.06149" y="368.81121" width="0.44681" height="1.2971" style="fill:#003915"/><rect x="58.59579" y="368.81121" width="0.44701" height="1.2971" style="fill:#003915"/><rect x="59.66389" y="368.81121" width="0.4467" height="1.2971" style="fill:#003915"/><rect x="77.1987" y="368.81121" width="0.4471" height="1.2971" style="fill:#003915"/><rect x="78.2668" y="368.81121" width="0.44679" height="1.2971" style="fill:#003915"/><rect x="2.789" y="368.81121" width="0.44699" height="1.2971" style="fill:#003915"/><rect x="3.8571" y="368.81121" width="0.4467" height="1.2971" style="fill:#003915"/><rect x="1.35609" y="367.58181" width="79.00551" height="0.4467" style="fill:#003915"/><rect x="1.35609" y="368.67311" width="79.00551" height="0.4468" style="fill:#003915"/><rect x="1.35609" y="369.75401" width="79.00551" height="0.4467" style="fill:#003915"/><path d="M280.9086,158.89609v-9.8223a.90528.90528,0,0,0-.904-.9054h-4.61032a4.59575,4.59575,0,0,0-4.591,4.5896v2.45221a4.59565,4.59565,0,0,0,4.591,4.59039h4.61032a.9047.9047,0,0,0,.904-.90451M271.048,152.758a4.351,4.351,0,0,1,4.34628-4.345h4.61032a.66145.66145,0,0,1,.65988.6608v9.8223a.66067.66067,0,0,1-.65988.65991h-4.61032a4.35138,4.35138,0,0,1-4.34628-4.34579Z" transform="translate(-139.5686 -25.87869)" style="fill:#003915"/><path d="M272.13821,152.7583a3.2587,3.2587,0,0,1,3.25607-3.25452h2.68811a.56787.56787,0,0,1,.5675.56723v3.57529h.24521V150.071a.81406.81406,0,0,0-.81271-.81241h-2.68811a3.50415,3.50415,0,0,0-3.50079,3.49969v2.45221a3.50478,3.50478,0,0,0,3.50079,3.50079h2.68811a.81449.81449,0,0,0,.81271-.81351v-3.57541h-.24521v3.57541a.56829.56829,0,0,1-.5675.5683h-2.68811a3.2593,3.2593,0,0,1-3.25607-3.25558Z" transform="translate(-139.5686 -25.87869)" style="fill:#003915"/><path d="M275.74191,153.98511a.78351.78351,0,1,0-.78351.78378.78482.78482,0,0,0,.78351-.78378m-1.32242,0a.5387.5387,0,1,1,.53891.53909A.5397.5397,0,0,1,274.41949,153.98511Z" transform="translate(-139.5686 -25.87869)" style="fill:#003915"/><rect x="134.83191" y="127.98392" width="1.11658" height="0.2449" style="fill:#003915"/><rect x="135.2673" y="127.548" width="0.24548" height="1.116" style="fill:#003915"/><path d="M279.7262,154.32239v.40372a.17362.17362,0,0,1-.174.17288h-.37927a.17362.17362,0,0,1-.174-.17288v-.40372h-.2449v.40372a.41867.41867,0,0,0,.41891.41809h.37927a.41866.41866,0,0,0,.4187-.41809v-.4057l-.03748.002Zm-.72729-1.07718a.17439.17439,0,0,1,.174-.174h.37927a.17439.17439,0,0,1,.174.174v.40109h.20721l.03748.00229v-.40338a.41852.41852,0,0,0-.4187-.41861h-.37927a.41853.41853,0,0,0-.41891.41861v.40109h.2449Z" transform="translate(-139.5686 -25.87869)" style="fill:#003915"/><path d="M280.3938,153.98511a.461.461,0,0,0-.46039-.46121H276.853a.4605.4605,0,0,0,0,.921h3.08041a.4606.4606,0,0,0,.46039-.45978m-3.75681,0a.21684.21684,0,0,1,.216-.21631h3.08041a.21561.21561,0,0,1,0,.43121H276.853A.21615.21615,0,0,1,276.637,153.98511Z" transform="translate(-139.5686 -25.87869)" style="fill:#003915"/><path d="M280.74438,290.60989v-9.8223a.90519.90519,0,0,0-.90387-.9054h-4.61032a4.59577,4.59577,0,0,0-4.591,4.5896V286.924a4.59569,4.59569,0,0,0,4.591,4.59041h4.61032a.90462.90462,0,0,0,.90387-.90451m-9.8606-6.13809a4.35112,4.35112,0,0,1,4.34641-4.345h4.61032a.66144.66144,0,0,1,.65988.6608v9.8223a.66068.66068,0,0,1-.65988.65991h-4.61032a4.35149,4.35149,0,0,1-4.34641-4.34581Z" transform="translate(-139.5686 -25.87869)" style="fill:#003915"/><path d="M271.974,284.472a3.25877,3.25877,0,0,1,3.2562-3.25439h2.68811a.56791.56791,0,0,1,.5675.5672v3.57529h.24518v-3.57529a.814.814,0,0,0-.81268-.81241h-2.68811a3.50406,3.50406,0,0,0-3.50079,3.4996v2.4523a3.50469,3.50469,0,0,0,3.50079,3.50079h2.68811a.81447.81447,0,0,0,.81268-.8136v-3.5753h-.24518v3.5753a.56837.56837,0,0,1-.5675.56841h-2.68811a3.25941,3.25941,0,0,1-3.2562-3.2556Z" transform="translate(-139.5686 -25.87869)" style="fill:#003915"/><path d="M275.5777,285.6989a.78349.78349,0,1,0-.78351.7838.78472.78472,0,0,0,.78351-.7838m-1.3223,0a.5387.5387,0,1,1,.53879.53911A.53962.53962,0,0,1,274.2554,285.6989Z" transform="translate(-139.5686 -25.87869)" style="fill:#003915"/><rect x="134.66779" y="259.69771" width="1.11652" height="0.2449" style="fill:#003915"/><rect x="135.10321" y="259.26181" width="0.24548" height="1.116" style="fill:#003915"/><path d="M279.5621,286.03619v.4037a.17364.17364,0,0,1-.174.1729h-.3793a.17372.17372,0,0,1-.1741-.1729v-.4037h-.24487v.4037a.41874.41874,0,0,0,.419.41811h.3793a.41862.41862,0,0,0,.41861-.41811v-.4057l-.03741.002Zm-.72742-1.07719a.17447.17447,0,0,1,.1741-.174h.3793a.1744.1744,0,0,1,.174.174v.40109h.20718l.03741.0023v-.4034a.41846.41846,0,0,0-.41861-.41859h-.3793a.41858.41858,0,0,0-.419.41859v.40109h.24487Z" transform="translate(-139.5686 -25.87869)" style="fill:#003915"/><path d="M280.22971,285.6989a.46106.46106,0,0,0-.46042-.4612H276.6889a.4605.4605,0,0,0,0,.921h3.08038a.46064.46064,0,0,0,.46042-.45981m-3.75681,0a.2167.2167,0,0,1,.216-.21629h3.08038a.2156.2156,0,0,1,0,.4312H276.6889A.21609.21609,0,0,1,276.4729,285.6989Z" transform="translate(-139.5686 -25.87869)" style="fill:#003915"/><path d="M266.90939,166.95471a3.91687,3.91687,0,0,1,3.9129-3.9115h5.66541a.67723.67723,0,0,1,.63919.45609,1.24042,1.24042,0,0,1,.20489-.20349.9457.9457,0,0,0-.84409-.52161H270.8223a4.1808,4.1808,0,1,0,0,8.3616h5.66541a.94529.94529,0,0,0,.84351-.521,1.24165,1.24165,0,0,1-.20462-.20319.67634.67634,0,0,1-.63889.45549H270.8223a3.91705,3.91705,0,0,1-3.9129-3.91238" transform="translate(-139.5686 -25.87869)" style="fill:#003915"/><path d="M275.4068,169.7585v-5.6089a.20393.20393,0,0,0-.20151-.20129H270.9346a3.00655,3.00655,0,1,0,0,6.01309h4.27069a.20465.20465,0,0,0,.20151-.2029m-.26819-5.54149v5.476h-4.204a2.738,2.738,0,0,1,0-5.476Z" transform="translate(-139.5686 -25.87869)" style="fill:#003915"/><path d="M272.6759,166.95441a1.00815,1.00815,0,1,0-1.008,1.00888,1.01,1.01,0,0,0,1.008-1.00888m-1.74759,0a.73944.73944,0,1,1,.73959.7399A.74036.74036,0,0,1,270.92831,166.95441Z" transform="translate(-139.5686 -25.87869)" style="fill:#003915"/><rect x="272.63097" y="165.19874" width="2.2422" height="0.26857" transform="translate(-184.08839 170.73098) rotate(-36.7424)" style="fill:#003915"/><rect x="273.61735" y="167.41081" width="0.26911" height="2.24307" transform="translate(-164.76617 260.85885) rotate(-53.19201)" style="fill:#003915"/><path d="M280.9086,169.6553v-5.4006a1.3551,1.3551,0,0,0-1.35391-1.35239h-1.47427a1.35351,1.35351,0,0,0-1.35242,1.35239v5.4006a1.35319,1.35319,0,0,0,1.35242,1.35179h1.47427a1.35478,1.35478,0,0,0,1.35391-1.35179m-3.91211-5.4006a1.08541,1.08541,0,0,1,1.08392-1.0842h1.47427a1.08584,1.08584,0,0,1,1.08511,1.0842v5.4006a1.08593,1.08593,0,0,1-1.08511,1.08369h-1.47427a1.0855,1.0855,0,0,1-1.08392-1.08369Z" transform="translate(-139.5686 -25.87869)" style="fill:#003915"/><path d="M279.50629,166.95441a.68814.68814,0,1,0-.68738.68829.68814.68814,0,0,0,.68738-.68829m-1.10718,0a.41919.41919,0,1,1,.4198.41959A.41935.41935,0,0,1,278.39911,166.95441Z" transform="translate(-139.5686 -25.87869)" style="fill:#003915"/><path d="M266.7453,267.7187a3.917,3.917,0,0,0,3.9129,3.91159h5.66528a.67723.67723,0,0,0,.63922-.4561,1.24049,1.24049,0,0,0,.205.20351.94593.94593,0,0,1-.84421.52159H270.6582a4.18085,4.18085,0,1,1,0-8.36169h5.66528a.94543.94543,0,0,1,.84363.521,1.24122,1.24122,0,0,0-.20462.20331.67636.67636,0,0,0-.639-.4556H270.6582a3.91713,3.91713,0,0,0-3.9129,3.9124" transform="translate(-139.5686 -25.87869)" style="fill:#003915"/><path d="M275.24271,264.915v5.6089a.204.204,0,0,1-.2016.20131h-4.2706a3.0066,3.0066,0,1,1,0-6.0132h4.2706a.20469.20469,0,0,1,.2016.203m-.26822,5.54141V264.9805h-4.204a2.738,2.738,0,0,0,0,5.47591Z" transform="translate(-139.5686 -25.87869)" style="fill:#003915"/><path d="M272.51181,267.719a1.00815,1.00815,0,1,1-1.008-1.00879,1.01006,1.01006,0,0,1,1.008,1.00879m-1.74762,0a.73946.73946,0,1,0,.73962-.73979A.74046.74046,0,0,0,270.76419,267.719Z" transform="translate(-139.5686 -25.87869)" style="fill:#003915"/><rect x="273.45368" y="268.21935" width="0.26855" height="2.24216" transform="matrix(0.59781, -0.80164, 0.80164, 0.59781, -245.44767, 301.76624)" style="fill:#003915"/><rect x="272.46622" y="266.00649" width="2.24302" height="0.26922" transform="translate(-244.48401 191.10242) rotate(-36.80939)" style="fill:#003915"/><path d="M280.74438,265.0182v5.4005a1.355,1.355,0,0,1-1.35379,1.3524h-1.4743a1.3535,1.3535,0,0,1-1.35239-1.3524v-5.4005a1.3532,1.3532,0,0,1,1.35239-1.3519h1.4743a1.3547,1.3547,0,0,1,1.35379,1.3519m-3.91208,5.4005a1.0855,1.0855,0,0,0,1.084,1.0843h1.4743a1.08587,1.08587,0,0,0,1.08511-1.0843v-5.4005a1.086,1.086,0,0,0-1.08511-1.08371h-1.4743a1.08557,1.08557,0,0,0-1.084,1.08371Z" transform="translate(-139.5686 -25.87869)" style="fill:#003915"/><path d="M279.3421,267.719a.6881.6881,0,1,1-.68741-.6882.68809.68809,0,0,1,.68741.6882m-1.10721,0a.41925.41925,0,1,0,.4198-.41949A.41951.41951,0,0,0,278.23489,267.719Z" transform="translate(-139.5686 -25.87869)" style="fill:#003915"/><path d="M246.21449,174.21539h0v7.83951h11.34792v-7.83951Zm-.3308,8.17091V173.8837h12.0098v8.50261Z" transform="translate(-139.5686 -25.87869)" style="fill:#003915"/><path d="M248.6089,173.99091a.60447.60447,0,0,1,.5936-.61261h5.37221a.60413.60413,0,0,1,.59389.61261h-.3308a.26974.26974,0,0,0-.26309-.2809H249.2025a.26951.26951,0,0,0-.2628.2809Z" transform="translate(-139.5686 -25.87869)" style="fill:#003915"/><path d="M250.8667,176.61749h0v2.70761l1.59731.62169a2.47383,2.47383,0,0,0-.09181-1.67479,4.15062,4.15062,0,0,1-.2412-1.24071,2.44877,2.44877,0,0,1,.1882-.93649Zm-.3308,2.93411v-3.1669l2.48-.892-.22479.39059a2.26658,2.26658,0,0,0-.3293,1.148,3.89316,3.89316,0,0,0,.2267,1.1438,3.89724,3.89724,0,0,1,.2282,1.1441,2.0161,2.0161,0,0,1-.218.9124l-.0674.1358Z" transform="translate(-139.5686 -25.87869)" style="fill:#003915"/><path d="M278.5932,294.6442H248.5083a2.161,2.161,0,0,0-2.1515,2.1656v10.4114a2.161,2.161,0,0,0,2.1515,2.166h30.0849a2.16088,2.16088,0,0,0,2.15118-2.166V296.8098a2.16093,2.16093,0,0,0-2.15118-2.1656M248.5083,309.1573a1.93117,1.93117,0,0,1-1.92191-1.9361V296.8098a1.931,1.931,0,0,1,1.92191-1.9355h30.0849a1.9315,1.9315,0,0,1,1.92221,1.9355v10.4114a1.93163,1.93163,0,0,1-1.92221,1.9361Z" transform="translate(-139.5686 -25.87869)" style="fill:#003915"/><path d="M251.494,307.8953a2.577,2.577,0,0,1-2.56531-2.5821v-6.5948a2.57659,2.57659,0,0,1,2.56531-2.5818h24.11321a2.5771,2.5771,0,0,1,2.56589,2.5818v2.0619a.39689.39689,0,0,1,.22821-.142v-1.9199a2.80639,2.80639,0,0,0-2.7941-2.8125H251.494a2.80664,2.80664,0,0,0-2.7944,2.8125v6.5948a2.80659,2.80659,0,0,0,2.7944,2.81229h24.11321a2.80634,2.80634,0,0,0,2.7941-2.81229V303.393a.39547.39547,0,0,1-.22821-.1414v2.0616a2.57748,2.57748,0,0,1-2.56589,2.5821Z" transform="translate(-139.5686 -25.87869)" style="fill:#003915"/><path d="M253.0414,306.582a1.26665,1.26665,0,0,1-1.26109-1.2688v-6.5948a1.26632,1.26632,0,0,1,1.26109-1.2682h22.56581a1.26611,1.26611,0,0,1,1.26138,1.2682v2.8449h.22882v-2.8449a1.49615,1.49615,0,0,0-1.4902-1.4989H253.0414a1.49563,1.49563,0,0,0-1.4893,1.4989v6.5948a1.49533,1.49533,0,0,0,1.4893,1.499h22.56581a1.49585,1.49585,0,0,0,1.4902-1.499v-2.8451h-.22882v2.8451a1.26644,1.26644,0,0,1-1.26138,1.2688Z" transform="translate(-139.5686 -25.87869)" style="fill:#003915"/><path d="M273.702,301.2829a.73336.73336,0,1,0,.73.7336.73158.73158,0,0,0-.73-.7336m0,1.2365a.50331.50331,0,1,1,.5004-.5029A.50184.50184,0,0,1,273.702,302.5194Z" transform="translate(-139.5686 -25.87869)" style="fill:#003915"/><rect x="134.0192" y="275.61451" width="0.22931" height="1.0457" style="fill:#003915"/><rect x="133.61499" y="276.02251" width="1.03781" height="0.2307" style="fill:#003915"/><path d="M278.202,301.5633v-.5375a.27991.27991,0,0,1,.27872-.2803h.5051a.28028.28028,0,0,1,.27921.2803v.5375h.22879v-.5375a.51035.51035,0,0,0-.508-.5111h-.5051a.50964.50964,0,0,0-.50742.5111v.5375Zm.27872,1.722a.27986.27986,0,0,1-.27872-.28011v-.53709h-.2287v.53709a.50919.50919,0,0,0,.50742.5108h.5051a.5099.5099,0,0,0,.508-.5108v-.53709H279.265v.53709a.28024.28024,0,0,1-.27921.28011Z" transform="translate(-139.5686 -25.87869)" style="fill:#003915"/><path d="M279.49179,301.4479h-3.2012a.56766.56766,0,0,0,0,1.1353h3.2012a.56766.56766,0,0,0,0-1.1353m-3.2012.9051a.3372.3372,0,0,1,0-.6744h3.2012a.33721.33721,0,0,1,0,.6744Z" transform="translate(-139.5686 -25.87869)" style="fill:#003915"/><path d="M280.1954,127.49789h-11.7692v11.76889h11.7692Zm-11.51971.24942H279.9462v11.2706H268.67569Z" transform="translate(-139.5686 -25.87869)" style="fill:#003915"/><path d="M274.31091,138.16861a3.91958,3.91958,0,0,1-.9816-7.7142.30006.30006,0,0,1-.07431-.1976v-.0405a4.16841,4.16841,0,1,0,2.1116-.00031v.0408a.2984.2984,0,0,1-.074.1973,3.91975,3.91975,0,0,1-.98169,7.71451" transform="translate(-139.5686 -25.87869)" style="fill:#003915"/><path d="M274.31091,130.76791a3.48149,3.48149,0,1,0,3.48129,3.48178,3.48576,3.48576,0,0,0-3.48129-3.48178m0,6.71359a3.2319,3.2319,0,1,1,3.23178-3.23181A3.23551,3.23551,0,0,1,274.31091,137.48151Z" transform="translate(-139.5686 -25.87869)" style="fill:#003915"/><path d="M274.31091,133.3472a.90225.90225,0,1,0,.90259.9025.90331.90331,0,0,0-.90259-.9025m0,1.5556a.653.653,0,1,1,.65308-.65311A.65425.65425,0,0,1,274.31091,134.9028Z" transform="translate(-139.5686 -25.87869)" style="fill:#003915"/><rect x="134.61758" y="107.71371" width="0.24951" height="1.31378" style="fill:#003915"/><rect x="134.08551" y="108.2457" width="1.3136" height="0.24982" style="fill:#003915"/><path d="M275.0647,129.443h-1.50751a.427.427,0,0,0-.42657.42661v.38721a.42687.42687,0,0,0,.42657.4267h1.50751a.427.427,0,0,0,.42661-.4267v-.38721a.42707.42707,0,0,0-.42661-.42661m-1.50751.991a.17772.17772,0,0,1-.17749-.17719v-.38721a.17745.17745,0,0,1,.17749-.17709h1.50751a.17709.17709,0,0,1,.17709.17709v.38721a.17736.17736,0,0,1-.17709.17719Z" transform="translate(-139.5686 -25.87869)" style="fill:#003915"/><path d="M274.091,129.56769v-.0864a.21965.21965,0,1,1,.4393,0v.0864h.24979v-.0864a.46945.46945,0,0,0-.9389,0v.0864Zm.21991,2.59012a.2205.2205,0,0,1-.21991-.22061v-1.37851h-.24982v1.37851a.46945.46945,0,1,0,.9389,0v-1.37851h-.24979v1.37851A.22.22,0,0,1,274.31091,132.15781Z" transform="translate(-139.5686 -25.87869)" style="fill:#003915"/><path d="M251.53059,127.97919h7.1566a1.49615,1.49615,0,0,1,1.4942,1.49472v8.29871a1.496,1.496,0,0,1-1.4942,1.49417h-7.1566a1.49568,1.49568,0,0,1-1.49419-1.49417v-8.29871a1.49581,1.49581,0,0,1,1.49419-1.49472m7.1566,11.05463a1.2626,1.2626,0,0,0,1.26111-1.2612v-8.29871a1.26269,1.26269,0,0,0-1.26111-1.26172h-7.1566a1.26307,1.26307,0,0,0-1.26169,1.26172v8.29871a1.263,1.263,0,0,0,1.26169,1.2612Z" transform="translate(-139.5686 -25.87869)" style="fill:#003915"/><path d="M251.53059,128.7981h7.1566a.67624.67624,0,0,1,.67581.67581v7.01068a.67635.67635,0,0,1-.67581.67572h-7.1566a.67654.67654,0,0,1-.67639-.67572v-7.01068a.67642.67642,0,0,1,.67639-.67581m7.1566,8.12921a.44325.44325,0,0,0,.44312-.44272v-7.01068a.44349.44349,0,0,0-.44312-.443h-7.1566a.44384.44384,0,0,0-.44389.443v7.01068a.44361.44361,0,0,0,.44389.44272Z" transform="translate(-139.5686 -25.87869)" style="fill:#003915"/><path d="M257.98709,137.579a.47424.47424,0,1,1-.4743.47418.4751.4751,0,0,1,.4743-.47418m0,.71548a.24124.24124,0,1,0-.24158-.2413A.242.242,0,0,0,257.98709,138.29449Z" transform="translate(-139.5686 -25.87869)" style="fill:#003915"/><path d="M256.38629,137.579a.47424.47424,0,1,1-.47479.47418.475.475,0,0,1,.47479-.47418m0,.71548a.24124.24124,0,1,0-.24179-.2413A.24165.24165,0,0,0,256.38629,138.29449Z" transform="translate(-139.5686 -25.87869)" style="fill:#003915"/><rect x="116.1456" y="105.06192" width="2.7196" height="0.2327" style="fill:#003915"/><rect x="117.38889" y="103.81772" width="0.2327" height="2.71957" style="fill:#003915"/><path d="M257.074,130.15991a.8969.8969,0,1,1-.89661.89688.89794.89794,0,0,1,.89661-.89688m0,1.561a.66429.66429,0,1,0-.66391-.66409A.66555.66555,0,0,0,257.074,131.72089Z" transform="translate(-139.5686 -25.87869)" style="fill:#003915"/><rect x="116.1456" y="108.9071" width="2.7196" height="0.23239" style="fill:#003915"/><rect x="117.38889" y="107.6626" width="0.2327" height="2.72052" style="fill:#003915"/><path d="M257.074,134.00421a.8972.8972,0,1,1-.89661.89749.89866.89866,0,0,1,.89661-.89749m0,1.56189a.6647.6647,0,1,0-.66391-.6644A.66541.66541,0,0,0,257.074,135.5661Z" transform="translate(-139.5686 -25.87869)" style="fill:#003915"/><rect x="112.2151" y="105.06192" width="2.7193" height="0.2327" style="fill:#003915"/><rect x="113.45779" y="103.81772" width="0.233" height="2.71957" style="fill:#003915"/><path d="M253.1429,130.15991a.8969.8969,0,1,1-.8969.89688.89781.89781,0,0,1,.8969-.89688m0,1.561a.66429.66429,0,1,0-.6638-.66409A.666.666,0,0,0,253.1429,131.72089Z" transform="translate(-139.5686 -25.87869)" style="fill:#003915"/><rect x="112.2151" y="108.9071" width="2.7193" height="0.23239" style="fill:#003915"/><rect x="113.45779" y="107.6626" width="0.233" height="2.72052" style="fill:#003915"/><path d="M253.1429,134.00421a.8972.8972,0,1,1-.8969.89749.89852.89852,0,0,1,.8969-.89749m0,1.56189a.6647.6647,0,1,0-.6638-.6644A.66591.66591,0,0,0,253.1429,135.5661Z" transform="translate(-139.5686 -25.87869)" style="fill:#003915"/><path d="M253.6727,137.579a.47424.47424,0,1,1-.4745.47418.47476.47476,0,0,1,.4745-.47418m0,.71548a.24124.24124,0,1,0-.24181-.2413A.24163.24163,0,0,0,253.6727,138.29449Z" transform="translate(-139.5686 -25.87869)" style="fill:#003915"/><path d="M252.07111,137.579a.47424.47424,0,1,1-.47391.47418.47465.47465,0,0,1,.47391-.47418m0,.71548a.24124.24124,0,1,0-.2415-.2413A.2417.2417,0,0,0,252.07111,138.29449Z" transform="translate(-139.5686 -25.87869)" style="fill:#003915"/><path d="M279.8739,180.39661a.80921.80921,0,1,0,.23471.57089.81022.81022,0,0,0-.23471-.57089m-.5726-1.0363a1.60687,1.60687,0,1,1-1.13641.47049A1.603,1.603,0,0,1,279.3013,179.36031Z" transform="translate(-139.5686 -25.87869)" style="fill:#003915"/><path d="M279.68939,255.259a.80938.80938,0,1,0,.23471.57089.81022.81022,0,0,0-.23471-.57089m-.5726-1.0363a1.60711,1.60711,0,1,1-1.13638.4705A1.60307,1.60307,0,0,1,279.11679,254.2227Z" transform="translate(-139.5686 -25.87869)" style="fill:#003915"/><path d="M185.1174,46.2153c-.7319,0-1.2359-.618-1.2359-1.7399s.504-1.7399,1.2359-1.7399,1.2359.61789,1.2359,1.7399-.504,1.7399-1.2359,1.7399m0,.396c.972,0,1.67979-.798,1.67979-2.13589s-.70779-2.13589-1.67979-2.13589-1.6739.79788-1.6739,2.13589S184.1454,46.6113,185.1174,46.6113Zm-3.62379-.366c-.726,0-1.11011-.4379-1.11011-.9a.97213.97213,0,0,1,1.08-.91782c.648,0,1.05589.3537,1.05589.90591A.91881.91881,0,0,1,181.49361,46.2453Zm.036-2.18411a1.3427,1.3427,0,0,0-1.2841.72c-.0119-.12579-.0179-.2457-.0179-.3418,0-1.14011.582-1.72211,1.4879-1.72211a1.47054,1.47054,0,0,1,.8158.19821l.1741-.34808a1.927,1.927,0,0,0-.9958-.22791c-1.14009,0-1.91989.7438-1.91989,2.17191,0,1.326.6057,2.09988,1.72169,2.09988a1.3086,1.3086,0,0,0,1.4341-1.2901A1.27168,1.27168,0,0,0,181.5296,44.06119Zm-2.6158,1.8902a.31408.31408,0,0,0-.3181.324.30312.30312,0,0,0,.216.30582l-.2041.87h.288l.252-.828a.97591.97591,0,0,0,.0842-.34781A.314.314,0,0,0,178.9138,45.95139Zm-2.28621-1.77588,1.188-1.4942v-.30582h-2.7v.38382h2.1481l-1.16391,1.4581v.31808h.29991c.7798,0,1.1339.3299,1.1339.83389,0,.52191-.3838.84592-1.08.84592a1.84131,1.84131,0,0,1-1.302-.4859l-.21.34189a2.1848,2.1848,0,0,0,1.512.54c1.0139,0,1.5239-.54,1.5239-1.24191C177.97749,44.6973,177.5276,44.22339,176.62759,44.17551Z" transform="translate(-139.5686 -25.87869)" style="fill:#6e6e6e;fill-rule:evenodd"/><path d="M187.04919,222.8743c-.73189,0-1.2359-.6179-1.2359-1.7399s.504-1.7399,1.2359-1.7399,1.2359.618,1.2359,1.7399-.504,1.7399-1.2359,1.7399m0,.396c.972,0,1.67981-.7979,1.67981-2.13589s-.70781-2.13589-1.67981-2.13589-1.67389.798-1.67389,2.13589S186.07719,223.27029,187.04919,223.27029Zm-5.20779-4.23579v1.16991h.426v-.7861h2.16l-1.728,3.816h.468l1.7581-3.89391v-.30589Zm-.7498,3.5759a.31406.31406,0,0,0-.318.324.30312.30312,0,0,0,.216.30589l-.20409.87h.288l.252-.828a.97651.97651,0,0,0,.0842-.3479A.314.314,0,0,0,181.0916,222.6104Zm-2.622-1.8541h-.54l.144-1.338h1.91991v-.3838h-2.29781l-.216,2.1059h.89409c1.06781,0,1.4037.33591,1.4037.8759,0,.51-.3779.858-1.0919.858a1.82141,1.82141,0,0,1-1.2901-.48579l-.20969.3418a2.16806,2.16806,0,0,0,1.50569.54c1.0262,0,1.5239-.5578,1.5239-1.2719C180.21539,221.2543,179.7355,220.7563,178.4696,220.7563Zm-3.528-1.7218v.3838h.9901v3.816h.432v-4.1998Z" transform="translate(-139.5686 -25.87869)" style="fill:#6e6e6e;fill-rule:evenodd"/><path d="M187.2952,331.4742c-.7319,0-1.2359-.618-1.2359-1.7399s.504-1.74,1.2359-1.74,1.2359.618,1.2359,1.74-.504,1.7399-1.2359,1.7399m0,.396c.972,0,1.6799-.798,1.6799-2.1359s-.7079-2.136-1.6799-2.136-1.6738.798-1.6738,2.136S186.3232,331.8702,187.2952,331.8702Zm-3.62379-.366c-.72591,0-1.11-.4379-1.11-.9a.97207.97207,0,0,1,1.08-.9179c.648,0,1.05589.3538,1.05589.906A.91884.91884,0,0,1,183.6714,331.5042Zm.036-2.1841a1.34274,1.34274,0,0,0-1.2841.72c-.01189-.1258-.01779-.2458-.01779-.3418,0-1.14011.58189-1.72211,1.4879-1.72211a1.47058,1.47058,0,0,1,.8158.1981l.174-.348a1.927,1.927,0,0,0-.99579-.228c-1.14011,0-1.91991.7439-1.91991,2.172,0,1.326.6058,2.0999,1.7218,2.0999a1.30852,1.30852,0,0,0,1.434-1.2901A1.27162,1.27162,0,0,0,183.7074,329.3201Zm-2.6158,1.8902a.314.314,0,0,0-.318.324.303.303,0,0,0,.216.3058l-.20409.87h.288l.252-.828a.97605.97605,0,0,0,.0842-.3478A.314.314,0,0,0,181.0916,331.2103Zm-2.622-1.85419h-.54l.144-1.33791h1.91991v-.3839h-2.29781l-.216,2.1059h.89409c1.06781,0,1.4037.33591,1.4037.8759,0,.51-.3779.8581-1.0919.8581a1.82146,1.82146,0,0,1-1.2901-.4859l-.20969.3419a2.16852,2.16852,0,0,0,1.50569.54c1.0262,0,1.5239-.5579,1.5239-1.2719C180.21539,329.8542,179.7355,329.3561,178.4696,329.3561Zm-3.528-1.7218v.3839h.9901v3.816h.432v-4.1999Z" transform="translate(-139.5686 -25.87869)" style="fill:#6e6e6e;fill-rule:evenodd"/><path d="M256.40671,351.8544c-.7319,0-1.2359-.6179-1.2359-1.7399s.504-1.73991,1.2359-1.73991,1.2359.618,1.2359,1.73991-.504,1.7399-1.2359,1.7399m0,.396c.972,0,1.6799-.7979,1.6799-2.13589s-.70792-2.1359-1.6799-2.1359-1.67381.798-1.67381,2.1359S255.43469,352.2504,256.40671,352.2504Zm-3.62381-.3659c-.72589,0-1.11-.438-1.11-.9a.97208.97208,0,0,1,1.08-.9179c.648,0,1.05591.35381,1.05591.906A.9189.9189,0,0,1,252.7829,351.8845Zm.036-2.1841a1.34271,1.34271,0,0,0-1.28409.72c-.0119-.1259-.01781-.2458-.01781-.3419,0-1.1401.58191-1.722,1.4879-1.722a1.47064,1.47064,0,0,1,.8158.1981l.174-.3481a1.92708,1.92708,0,0,0-.9958-.2279c-1.14011,0-1.91991.7438-1.91991,2.1719,0,1.3261.6058,2.0999,1.7218,2.0999a1.3085,1.3085,0,0,0,1.434-1.29A1.27162,1.27162,0,0,0,252.81889,349.7004Zm-2.6158,1.8901a.31406.31406,0,0,0-.318.324.30312.30312,0,0,0,.216.3059l-.2041.8699h.288l.252-.828a.97556.97556,0,0,0,.0842-.3478A.314.314,0,0,0,250.20309,351.5905Zm-2.75409-3.5759v.3838h.9901v3.816h.432v-4.1998Zm-2.166,0v.3838h.99019v3.816h.432v-4.1998Z" transform="translate(-139.5686 -25.87869)" style="fill:#6e6e6e;fill-rule:evenodd"/><path d="M260.80161,244.2153c-.7319,0-1.2359-.618-1.2359-1.7399s.504-1.7399,1.2359-1.7399,1.2359.61789,1.2359,1.7399-.504,1.7399-1.2359,1.7399m0,.396c.972,0,1.67981-.798,1.67981-2.13589s-.70782-2.13591-1.67981-2.13591-1.67392.79791-1.67392,2.13591S259.82959,244.6113,260.80161,244.6113Zm-3.62381-.366c-.726,0-1.11011-.4379-1.11011-.9a.97214.97214,0,0,1,1.08-.9178c.648,0,1.05591.3537,1.05591.9059A.91882.91882,0,0,1,257.1778,244.2453Zm.036-2.1841a1.3427,1.3427,0,0,0-1.2841.72c-.0119-.12581-.0179-.24571-.0179-.34181,0-1.14009.582-1.72209,1.48788-1.72209a1.47084,1.47084,0,0,1,.81583.1982l.17407-.3481a1.92721,1.92721,0,0,0-.99579-.22791c-1.14011,0-1.91989.7438-1.91989,2.17191,0,1.326.60568,2.0999,1.72168,2.0999a1.30861,1.30861,0,0,0,1.43411-1.2901A1.27166,1.27166,0,0,0,257.21381,242.0612Zm-2.6158,1.8902a.31408.31408,0,0,0-.3181.324.30309.30309,0,0,0,.216.30579l-.2041.87h.288l.252-.828a.97606.97606,0,0,0,.0842-.34779A.314.314,0,0,0,254.598,243.9514Zm-3.24.23979,1.428-1.40369a1.72884,1.72884,0,0,0,.69-1.31421c0-.7018-.54-1.1338-1.39211-1.1338a1.88741,1.88741,0,0,0-1.4879.59981l.30591.26421a1.426,1.426,0,0,1,1.146-.468c.64211,0,.9839.2999.9839.786,0,.2877-.0898.56979-.5638,1.0378l-1.74611,1.7101v.30591h2.946v-.38411Z" transform="translate(-139.5686 -25.87869)" style="fill:#6e6e6e;fill-rule:evenodd"/><path d="M261.17349,284.4151c-.7319,0-1.2359-.618-1.2359-1.7399s.504-1.7399,1.2359-1.7399,1.2359.61789,1.2359,1.7399-.504,1.7399-1.2359,1.7399m0,.396c.972,0,1.67981-.798,1.67981-2.13589s-.70779-2.13589-1.67981-2.13589-1.67389.7979-1.67389,2.13589S260.20151,284.8111,261.17349,284.8111Zm-5.20779-4.23579v1.1698h.426v-.786h2.16l-1.728,3.816h.468l1.75812-3.894v-.3058Zm-.7498,3.5759a.314.314,0,0,0-.318.324.303.303,0,0,0,.216.3058l-.2041.87h.288l.252-.828a.97605.97605,0,0,0,.0842-.34779A.314.314,0,0,0,255.2159,284.1512Zm-.8461-.864h-.83989v-.972H253.11v.972h-1.824l2.148-2.7119h-.4801l-2.2258,2.78389v.31181h2.3698v1.1041h.432V283.671h.83989Z" transform="translate(-139.5686 -25.87869)" style="fill:#6e6e6e;fill-rule:evenodd"/><path d="M237.6833,261.7966c-.7319,0-1.2359-.618-1.2359-1.7399s.504-1.7399,1.2359-1.7399,1.2359.61789,1.2359,1.7399-.504,1.7399-1.2359,1.7399m0,.396c.972,0,1.67979-.798,1.67979-2.13589s-.70779-2.13589-1.67979-2.13589-1.6738.7979-1.6738,2.13589S236.7113,262.1926,237.6833,262.1926Zm-5.20781-4.23579v1.1698h.4261v-.786h2.16l-1.728,3.816h.468l1.758-3.894v-.3058Zm-.74969,3.5759a.31409.31409,0,0,0-.3181.324.30313.30313,0,0,0,.216.3058l-.2041.87h.288l.252-.828a.97605.97605,0,0,0,.0842-.34779A.314.314,0,0,0,231.7258,261.5327Zm-2.6221-1.8542h-.54l.144-1.33789h1.91989v-.3838h-2.2977l-.216,2.1058h.894c1.06779,0,1.4037.33589,1.4037.87588,0,.51-.37781.85811-1.0919.85811a1.821,1.821,0,0,1-1.29-.4859l-.20979.3419a2.16867,2.16867,0,0,0,1.5058.54c1.02611,0,1.5239-.55789,1.5239-1.2719C230.84959,260.17661,230.36971,259.6785,229.1037,259.6785Z" transform="translate(-139.5686 -25.87869)" style="fill:#6e6e6e;fill-rule:evenodd"/><path d="M185.4176,382.4743c-.7319,0-1.2359-.618-1.2359-1.74s.504-1.7399,1.2359-1.7399,1.2359.618,1.2359,1.7399-.504,1.74-1.2359,1.74m0,.396c.972,0,1.67979-.798,1.67979-2.136s-.70779-2.1359-1.67979-2.1359-1.6739.798-1.6739,2.1359S184.4456,382.8703,185.4176,382.8703Zm-3.9059-.366c-.74411,0-1.182-.324-1.182-.8461,0-.5159.4379-.8399,1.182-.8399.74379,0,1.188.324,1.188.8399C182.69971,382.1803,182.25549,382.5043,181.5117,382.5043Zm-1.038-2.7839c0-.468.4019-.756,1.038-.756.6299,0,1.044.288,1.044.7619,0,.4561-.39.7501-1.044.7501S180.47369,380.1824,180.47369,379.7204Zm1.8479.9119a.95115.95115,0,0,0,.6721-.9238c0-.684-.59419-1.1101-1.482-1.1101-.88811,0-1.47.4261-1.47,1.1101a.94774.94774,0,0,0,.6599.9238,1.04821,1.04821,0,0,0-.80991,1.0321c0,.7438.612,1.2059,1.62,1.2059,1.00209,0,1.6319-.4621,1.6319-1.2059A1.05753,1.05753,0,0,0,182.32159,380.6323Zm-3.40779,1.578a.31414.31414,0,0,0-.3181.324.30314.30314,0,0,0,.216.3059l-.2041.87h.288l.252-.828a.97646.97646,0,0,0,.0842-.3479A.314.314,0,0,0,178.9138,382.2103Zm-2.28621-1.7759,1.188-1.4941v-.3059h-2.7v.3839h2.1481l-1.16391,1.4581v.318h.29991c.7798,0,1.1339.33,1.1339.834,0,.5219-.3838.8459-1.08.8459a1.84131,1.84131,0,0,1-1.302-.4859l-.21.3419a2.18492,2.18492,0,0,0,1.512.54c1.0139,0,1.5239-.54,1.5239-1.2419C177.97749,380.9563,177.5276,380.4823,176.62759,380.4344Z" transform="translate(-139.5686 -25.87869)" style="fill:#6e6e6e;fill-rule:evenodd"/><path d="M249.9698,206.8541c-.7319,0-1.2359-.618-1.2359-1.7399s.504-1.7399,1.2359-1.7399,1.2359.6179,1.2359,1.7399-.504,1.7399-1.2359,1.7399m0,.396c.972,0,1.67979-.798,1.67979-2.13591s-.70779-2.13589-1.67979-2.13589-1.6738.7979-1.6738,2.13589S248.9978,207.25011,249.9698,207.25011Zm-3.9659-2.51411h-.54l.144-1.33789h1.91991v-.3838H245.23l-.216,2.1058h.89409c1.06781,0,1.4037.33589,1.4037.8759,0,.51-.3779.85809-1.0919.85809a1.82146,1.82146,0,0,1-1.2901-.4859l-.2097.3419a2.16863,2.16863,0,0,0,1.50571.54c1.0262,0,1.5239-.55791,1.5239-1.27191C247.74969,205.2341,247.26981,204.736,246.00391,204.736Zm-2.04581,1.8542a.314.314,0,0,0-.318.324.303.303,0,0,0,.216.3058l-.2041.87h.288l.252-.828a.976.976,0,0,0,.0842-.34779A.314.314,0,0,0,243.9581,206.59019Zm-3.666-3.5759v1.1698h.426v-.786h2.16l-1.728,3.816h.468l1.7581-3.894v-.3058Z" transform="translate(-139.5686 -25.87869)" style="fill:#6e6e6e;fill-rule:evenodd"/><path d="M262.29169,164.00949c-.73187,0-1.2359-.61789-1.2359-1.7399s.504-1.7399,1.2359-1.7399c.732,0,1.236.618,1.236,1.7399s-.504,1.7399-1.236,1.7399m0,.396c.972,0,1.6799-.79788,1.6799-2.13589s-.70789-2.13589-1.6799-2.13589-1.6738.798-1.6738,2.13589S261.3197,164.40549,262.29169,164.40549Zm-4.5-.42007,1.4281-1.40372a1.72879,1.72879,0,0,0,.69-1.31409c0-.7019-.54-1.13391-1.39209-1.13391a1.88748,1.88748,0,0,0-1.48791.59979l.30591.26422a1.42611,1.42611,0,0,1,1.146-.468c.642,0,.98392.2999.98392.7861,0,.28769-.0899.5697-.56381,1.03769l-1.74609,1.71021v.30582h2.946v-.38409Zm-1.55988-.23981a.314.314,0,0,0-.318.324.3032.3032,0,0,0,.216.30588l-.20409.8699h.288l.252-.828a.97583.97583,0,0,0,.0842-.34778A.314.314,0,0,0,256.23181,163.74561Zm-2.28612-1.77591,1.188-1.49411v-.30588h-2.7v.38379h2.1481l-1.16391,1.45819v.318h.29991c.7798,0,1.1339.33,1.1339.834,0,.52179-.3839.84579-1.08.84579a1.84162,1.84162,0,0,1-1.302-.48578l-.21.3418a2.1845,2.1845,0,0,0,1.512.54c1.0139,0,1.5239-.54,1.5239-1.24179C255.29559,162.49161,254.8457,162.01761,253.94569,161.9697Z" transform="translate(-139.5686 -25.87869)" style="fill:#6e6e6e;fill-rule:evenodd"/><path d="M244.777,108.21548c-.73189,0-1.23589-.618-1.23589-1.7399s.504-1.7399,1.23589-1.7399,1.2359.61792,1.2359,1.7399-.504,1.7399-1.2359,1.7399m0,.396c.972,0,1.6799-.798,1.6799-2.13593s-.7079-2.13589-1.6799-2.13589-1.6738.79791-1.6738,2.13589S243.805,108.61151,244.777,108.61151Zm-3.63-2.43582,1.188-1.4942v-.30579h-2.7v.38379h2.1481l-1.16389,1.4581v.31812h.2999c.7798,0,1.1338.32989,1.1338.83389,0,.52191-.3838.84589-1.08.84589a1.841,1.841,0,0,1-1.3019-.48587l-.2101.34189a2.18513,2.18513,0,0,0,1.512.54c1.014,0,1.524-.54,1.524-1.24191C242.4969,106.69751,242.047,106.2236,241.147,106.17569Zm-2.4299,1.77591a.314.314,0,0,0-.318.324.303.303,0,0,0,.216.30579l-.2041.87h.288l.252-.828a.97652.97652,0,0,0,.0842-.34781A.314.314,0,0,0,238.7171,107.9516Zm-2.2861-1.77591,1.188-1.4942v-.30579h-2.7v.38379h2.14809l-1.16389,1.4581v.31812h.2999c.7798,0,1.1338.32989,1.1338.83389,0,.52191-.3838.84589-1.08.84589a1.841,1.841,0,0,1-1.3019-.48587l-.2101.34189a2.18513,2.18513,0,0,0,1.512.54c1.014,0,1.524-.54,1.524-1.24191C237.7809,106.69751,237.331,106.2236,236.431,106.17569Zm-3.354,0,1.188-1.4942v-.30579h-2.7v.38379h2.1481l-1.16391,1.4581v.31812h.29991c.7798,0,1.1339.32989,1.1339.83389,0,.52191-.3838.84589-1.08.84589a1.84129,1.84129,0,0,1-1.302-.48587l-.21.34189a2.18494,2.18494,0,0,0,1.512.54c1.0139,0,1.5239-.54,1.5239-1.24191C234.4269,106.69751,233.977,106.2236,233.077,106.17569Z" transform="translate(-139.5686 -25.87869)" style="fill:#6e6e6e;fill-rule:evenodd"/><path d="M281.7113,200.48039a3.90781,3.90781,0,1,0,3.9079,3.9075,3.908,3.908,0,0,0-3.9079-3.9075" transform="translate(-139.5686 -25.87869)" style="fill:#558e42;fill-rule:evenodd"/><polygon points="139.739 178.509 141.054 178.131 142.368 177.753 142.368 178.509 142.368 179.266 141.054 178.888 139.739 178.509" style="fill:#fdfdfd;fill-rule:evenodd"/><rect x="142.2655" y="178.33041" width="2.28128" height="0.38409" style="fill:#fdfdfd"/><rect x="112.63519" y="114.04062" width="1.81311" height="7.52139" style="fill:#003915"/><rect x="117.85458" y="114.04062" width="1.1243" height="7.52139" style="fill:#003915"/><rect x="122.38528" y="114.04062" width="1.81302" height="7.52139" style="fill:#003915"/><rect x="130.29111" y="114.04062" width="1.81299" height="7.52139" style="fill:#003915"/><path d="M183.49741,35.80389c-.42351,0-.64771-.2554-.64771-.525a.56721.56721,0,0,1,.6301-.5354c.3779,0,.616.2063.616.52829a.53611.53611,0,0,1-.59839.5321m.021-1.2739a.78349.78349,0,0,0-.74921.4198c-.00679-.07339-.0105-.1434-.0105-.19949,0-.66479.3396-1.00439.8679-1.00439a.86117.86117,0,0,1,.4763.11539l.10139-.203a1.12658,1.12658,0,0,0-.5811-.1329c-.665,0-1.1199.434-1.1199,1.26712,0,.77328.3535,1.22479,1.00461,1.22479a.76335.76335,0,0,0,.8365-.75259A.74174.74174,0,0,0,183.5184,34.53Zm-2.35561,1.25629c-.4269,0-.72119-.36047-.72119-1.0148,0-.65448.2943-1.01508.72119-1.01508s.72081.3606.72081,1.01508C181.88361,35.42581,181.58971,35.78629,181.1628,35.78629Zm0,.231c.56691,0,.9799-.46539.9799-1.24582,0-.78058-.413-1.24609-.9799-1.24609s-.97659.46552-.97659,1.24609C180.1862,35.55191,180.59579,36.0173,181.1628,36.0173Zm-1.4877-.38492a.18315.18315,0,0,0-.18529.18912.17666.17666,0,0,0,.12579.17828l-.119.50772h.16811l.14709-.48309a.57543.57543,0,0,0,.049-.20291A.18322.18322,0,0,0,179.67509,35.63239Zm-1.33339-1.03607.69279-.87131v-.17862h-1.57491v.22391h1.2529l-.67889.85071v.18539h.1749c.4552,0,.66161.1925.66161.48639,0,.30441-.22391.4935-.62981.4935a1.0741,1.0741,0,0,1-.75969-.28339l-.12251.19949a1.27473,1.27473,0,0,0,.8822.31491c.59131,0,.8889-.31491.8889-.72452C179.1292,34.90079,178.8667,34.62439,178.34171,34.59631Z" transform="translate(-139.5686 -25.87869)" style="fill:#434242"/><path d="M253.13361,44.55389c-.434,0-.68941-.18909-.68941-.4935,0-.30109.2554-.49008.68941-.49008s.693.189.693.49008c0,.30441-.259.4935-.693.4935m-.6055-1.624c0-.273.2347-.4411.6055-.4411.3676,0,.6091.16809.6091.44449,0,.2662-.2276.43771-.6091.43771C252.7523,43.371,252.52811,43.19949,252.52811,42.9299Zm1.078.5321a.555.555,0,0,0,.392-.53922c0-.3988-.34639-.6474-.86449-.6474-.5179,0-.85751.2486-.85751.6474a.553.553,0,0,0,.38521.53922.611.611,0,0,0-.4725.60181c0,.434.3569.70349.94481.70349.58449,0,.95209-.2695.95209-.70349A.61686.61686,0,0,0,253.60609,43.462Zm-2.7439,1.07428c-.4269,0-.72119-.3606-.72119-1.0148,0-.65448.2943-1.01508.72119-1.01508s.72079.3606.72079,1.01508C251.583,44.17569,251.28909,44.53629,250.8622,44.53629Zm0,.231c.56689,0,.9799-.46539.9799-1.24582,0-.78067-.413-1.24609-.9799-1.24609s-.97659.46542-.97659,1.24609C249.8856,44.30191,250.2952,44.7673,250.8622,44.7673Zm-1.48759-.38492a.18318.18318,0,0,0-.18541.18912.17673.17673,0,0,0,.12581.17828l-.119.5076h.16811l.14709-.483a.57543.57543,0,0,0,.049-.20291A.18321.18321,0,0,0,249.3746,44.38239Zm-1.3335-1.03607.69279-.8714v-.17853H247.159v.22391h1.2529l-.67889.85071v.18539h.1749c.4552,0,.66161.19241.66161.48639,0,.30441-.22391.4935-.62981.4935a1.07421,1.07421,0,0,1-.7597-.28348l-.1225.19958a1.27473,1.27473,0,0,0,.8822.31491c.59131,0,.8889-.31491.8889-.72452C248.8286,43.65079,248.5661,43.37439,248.04111,43.34631Z" transform="translate(-139.5686 -25.87869)" style="fill:#434242"/><path d="M186.249,161.07431c-.434,0-.68939-.18912-.68939-.49362,0-.301.2554-.49008.68939-.49008s.693.18909.693.49008c0,.3045-.259.49362-.693.49362m-.6055-1.624c0-.273.23471-.4411.6055-.4411.3676,0,.6091.16812.6091.44452,0,.2662-.2276.43768-.6091.43768C185.86771,159.89139,185.64349,159.71991,185.64349,159.45029Zm1.078.532a.55476.55476,0,0,0,.392-.53909c0-.3988-.34639-.6474-.8645-.6474-.5179,0-.8575.2486-.8575.6474a.55279.55279,0,0,0,.38521.53909.611.611,0,0,0-.4725.60181c0,.434.3569.70358.94479.70358.5845,0,.9521-.26959.9521-.70358A.61694.61694,0,0,0,186.7215,159.9823Zm-2.5444-.1156.69281-.8714v-.17859H183.295v.224h1.2529l-.67889.85068v.1853h.1749c.4552,0,.66161.1925.66161.48651,0,.30438-.22391.4935-.62981.4935a1.07422,1.07422,0,0,1-.7597-.28351l-.1225.19962a1.27528,1.27528,0,0,0,.8822.31488c.59131,0,.8889-.31488.8889-.72449C184.9646,160.17111,184.7021,159.89481,184.17709,159.8667Zm-1.41759,1.0361a.18315.18315,0,0,0-.18541.189.1767.1767,0,0,0,.1259.17831l-.11909.50769h.16809l.1472-.483a.57549.57549,0,0,0,.049-.203A.18318.18318,0,0,0,182.75951,160.9028Zm-1.3334-1.0361.69279-.8714v-.17859H180.544v.224h1.2529l-.67891.85068v.1853h.1749c.4552,0,.66161.1925.66161.48651,0,.30438-.22389.4935-.6299.4935a1.07455,1.07455,0,0,1-.7597-.28351l-.12239.19962a1.275,1.275,0,0,0,.8821.31488c.59129,0,.889-.31488.889-.72449C182.21359,160.17111,181.9511,159.89481,181.4261,159.8667Z" transform="translate(-139.5686 -25.87869)" style="fill:#434242"/><path d="M179.01669,172.8241c-.42349,0-.6478-.2554-.6478-.5249a.56728.56728,0,0,1,.6302-.53549c.37781,0,.616.20639.616.5284a.5361.5361,0,0,1-.5984.532m.0209-1.2738a.78354.78354,0,0,0-.74919.4198c-.00681-.07349-.01041-.14349-.01041-.1996,0-.66469.33949-1.00429.8679-1.00429a.86057.86057,0,0,1,.4762.11539l.1015-.203a1.12553,1.12553,0,0,0-.5811-.1329c-.665,0-1.1199.4339-1.1199,1.267,0,.7733.35341,1.2249,1.0045,1.2249a.76341.76341,0,0,0,.83659-.75259A.74172.74172,0,0,0,179.0376,171.55029Zm-2.317,1.2738c-.434,0-.68939-.189-.68939-.4935,0-.301.2554-.4901.68939-.4901s.6931.1891.6931.4901C177.4137,172.6351,177.1546,172.8241,176.7206,172.8241Zm-.6055-1.6239c0-.273.2347-.4411.6055-.4411.36771,0,.60921.16811.60921.4445,0,.2662-.22771.43761-.60921.43761C176.33929,171.6412,176.1151,171.4698,176.1151,171.2002Zm1.078.532a.55485.55485,0,0,0,.39211-.53909c0-.3988-.34641-.6474-.86461-.6474-.5179,0-.8575.2486-.8575.6474a.55278.55278,0,0,0,.38521.53909.611.611,0,0,0-.4725.60181c0,.434.3569.7036.94479.7036.5845,0,.95221-.26959.95221-.7036A.617.617,0,0,0,177.1931,171.73219Zm-1.9879.92041a.18322.18322,0,0,0-.18539.1891.17677.17677,0,0,0,.1259.1783l-.11911.50769h.16811l.14709-.483a.57437.57437,0,0,0,.0491-.203A.18327.18327,0,0,0,175.2052,172.6526Zm-1.89011.14009.8331-.81889a1.00791,1.00791,0,0,0,.40251-.76649c0-.40961-.315-.66161-.8121-.66161a1.10123,1.10123,0,0,0-.868.35l.17859.154a.832.832,0,0,1,.66841-.273c.37439,0,.574.1749.574.4583,0,.16811-.05249.3325-.3288.6055l-1.01849.9975v.1786h1.71829v-.22391Z" transform="translate(-139.5686 -25.87869)" style="fill:#434242"/><path d="M261.7764,226.8069c-.42691,0-.7211-.3606-.7211-1.01491,0-.6545.29419-1.015.7211-1.015s.72092.3605.72092,1.015c0,.65431-.294,1.01491-.72092,1.01491m0,.231c.56689,0,.97989-.4655.97989-1.24591,0-.78059-.413-1.24609-.97989-1.24609s-.9765.4655-.9765,1.24609C260.7999,226.5724,261.2095,227.0379,261.7764,227.0379Zm-2.2785-.2135c-.434,0-.68939-.189-.68939-.4935,0-.301.2554-.4901.68939-.4901s.69312.18909.69312.4901C260.191,226.63541,259.93188,226.8244,259.49789,226.8244Zm-.6055-1.6239c0-.273.23471-.4411.6055-.4411.36771,0,.60919.16811.60919.4445,0,.2661-.2276.43759-.60919.43759C259.1167,225.64149,258.8924,225.47,258.8924,225.2005Zm1.07809.532a.55484.55484,0,0,0,.392-.53909c0-.39891-.34637-.64751-.86459-.64751-.51788,0-.85748.2486-.85748.64751a.553.553,0,0,0,.38528.53909.611.611,0,0,0-.4726.60181c0,.434.3569.7036.94479.7036.5845,0,.95221-.26961.95221-.7036A.61689.61689,0,0,0,259.97049,225.7325Zm-1.988.92039a.18318.18318,0,0,0-.18542.1891.17677.17677,0,0,0,.12592.1783l-.11911.50771h.16809l.14713-.483a.5747.5747,0,0,0,.0491-.203A.18323.18323,0,0,0,257.98251,226.65289Zm-1.60641-2.086v.224h.57739v2.226h.252v-2.45Z" transform="translate(-139.5686 -25.87869)" style="fill:#434242"/><path d="M254.0891,387.2889c-.4269,0-.7211-.3606-.7211-1.0148,0-.6545.2942-1.0151.7211-1.0151s.7209.3606.7209,1.0151c0,.6542-.294,1.0148-.7209,1.0148m0,.231c.567,0,.98-.4654.98-1.2458,0-.7807-.413-1.2461-.98-1.2461s-.9765.4654-.9765,1.2461C253.11259,387.0545,253.5222,387.5199,254.0891,387.5199Zm-2.317-1.218c-.3779,0-.616-.2064-.616-.5284a.53639.53639,0,0,1,.59871-.5321c.42349,0,.6474.2557.6474.525A.56707.56707,0,0,1,251.77209,386.3019Zm-.0278-1.2739a.76317.76317,0,0,0-.83649.7526.74152.74152,0,0,0,.826.7347.78248.78248,0,0,0,.7489-.4198c.00711.0734.0105.1434.0105.1996,0,.665-.3396,1.0043-.86789,1.0043a.85935.85935,0,0,1-.476-.1154l-.1015.203a1.12428,1.12428,0,0,0,.58089.1329c.665,0,1.1199-.434,1.1199-1.2671C252.7486,385.4795,252.3951,385.028,251.74429,385.028Zm-1.3127,2.107a.18315.18315,0,0,0-.18539.189.17657.17657,0,0,0,.1259.1783l-.11909.5077h.16809l.14711-.483a.57386.57386,0,0,0,.04909-.203A.18318.18318,0,0,0,250.43159,387.135Zm-1.8902.14.83321-.8189a1.00774,1.00774,0,0,0,.4025-.7665c0-.4096-.315-.6616-.81219-.6616a1.10078,1.10078,0,0,0-.8679.3501l.1786.1539a.832.832,0,0,1,.6684-.273c.3744,0,.574.1749.574.4584,0,.1681-.05251.3325-.32881.6055l-1.01849.9975v.1785H249.889v-.2239Z" transform="translate(-139.5686 -25.87869)" style="fill:#434242"/><path d="M184.91051,389.5518c-.37791,0-.616-.2064-.616-.5284a.53632.53632,0,0,1,.59871-.532c.42349,0,.6474.2556.6474.5249a.56706.56706,0,0,1-.6301.5355m-.0278-1.2739a.76323.76323,0,0,0-.8365.7526.74152.74152,0,0,0,.826.7347.78258.78258,0,0,0,.7489-.4198c.00711.0735.01051.1435.01051.1996,0,.665-.3396,1.0043-.868,1.0043a.85878.85878,0,0,1-.47589-.1154l-.1015.203a1.12389,1.12389,0,0,0,.5808.1329c.665,0,1.12-.4339,1.12-1.267C185.887,388.7295,185.53349,388.2779,184.88271,388.2779Zm-1.9041,1.0709.69279-.8713v-.1786H182.0965v.2239h1.2529l-.67889.8507v.1854h.1749c.45531,0,.66161.1925.66161.4864,0,.3045-.22391.4935-.62981.4935a1.07432,1.07432,0,0,1-.7597-.2834l-.1225.1995a1.27474,1.27474,0,0,0,.8822.3149c.59131,0,.8889-.3149.8889-.7245C183.7661,389.6533,183.5036,389.3769,182.97861,389.3488Zm-1.4176,1.0361a.18315.18315,0,0,0-.1853.1891.17669.17669,0,0,0,.12579.1783l-.119.5077h.16809l.14709-.4831a.575.575,0,0,0,.049-.2029A.18321.18321,0,0,0,181.561,390.3849Zm-1.3334-1.0361.69279-.8713v-.1786H179.3455v.2239h1.2529l-.67891.8507v.1854h.17491c.4552,0,.66159.1925.66159.4864,0,.3045-.22389.4935-.6299.4935a1.074,1.074,0,0,1-.7596-.2834l-.1225.1995a1.27465,1.27465,0,0,0,.8821.3149c.59131,0,.889-.3149.889-.7245C181.01511,389.6533,180.75259,389.3769,180.2276,389.3488Z" transform="translate(-139.5686 -25.87869)" style="fill:#434242"/><path d="M184.99969,273.55611c-.4339,0-.6893-.1891-.6893-.4935,0-.301.2554-.49011.6893-.49011s.6931.1891.6931.49011c0,.3044-.25909.4935-.6931.4935m-.60539-1.624c0-.2729.2347-.441.60539-.441.36771,0,.60921.16809.60921.4444,0,.2662-.2276.4377-.60921.4377C184.6185,272.3732,184.3943,272.20171,184.3943,271.9321Zm1.078.5321a.555.555,0,0,0,.392-.53911c0-.3989-.34641-.64749-.86461-.64749-.51779,0-.85739.2486-.85739.64749a.553.553,0,0,0,.38519.53911.61094.61094,0,0,0-.4725.60179c0,.434.35681.7036.9447.7036.58461,0,.95221-.26959.95221-.7036A.61687.61687,0,0,0,185.47231,272.4642Zm-2.5444-.1156.69279-.8714v-.1786h-1.57489v.22391h1.2529l-.67891.85069v.18539h.1749c.4552,0,.66161.1925.66161.4864,0,.3045-.224.4935-.6299.4935a1.07434,1.07434,0,0,1-.7597-.2834l-.12239.19951a1.27455,1.27455,0,0,0,.8821.315c.59129,0,.889-.315.889-.72459C183.71539,272.653,183.4529,272.3766,182.9279,272.3486Zm-1.4176,1.036a.18317.18317,0,0,0-.18539.1891.17675.17675,0,0,0,.1259.1783l-.11911.50771h.16811l.14709-.48311a.57348.57348,0,0,0,.0491-.2029A.18322.18322,0,0,0,181.5103,273.3846Zm-1.3334-1.036.69281-.8714v-.1786h-1.575v.22391h1.253l-.67889.85069v.18539h.1749c.4552,0,.66161.1925.66161.4864,0,.3045-.224.4935-.62991.4935a1.0743,1.0743,0,0,1-.75969-.2834l-.12241.19951a1.27436,1.27436,0,0,0,.8821.315c.59131,0,.8889-.315.8889-.72459C180.96429,272.653,180.7019,272.3766,180.1769,272.3486Z" transform="translate(-139.5686 -25.87869)" style="fill:#434242"/><line x1="36.6369" y1="8.9577" x2="10.7957" y2="8.9577" style="fill:none;stroke:#b1b2b2;stroke-miterlimit:22.92558479309082;stroke-width:0.2160000056028366px"/><line x1="106.3871" y1="17.7077" x2="80.5737" y2="17.7077" style="fill:none;stroke:#b1b2b2;stroke-miterlimit:22.92558479309082;stroke-width:0.2160000056028366px"/><line x1="39.6371" y1="134.22812" x2="8.1601" y2="134.22812" style="fill:none;stroke:#b1b2b2;stroke-miterlimit:22.92558479309082;stroke-width:0.2160000056028366px"/><line x1="32.1369" y1="145.97801" x2="8.1601" y2="145.97801" style="fill:none;stroke:#b1b2b2;stroke-miterlimit:22.92558479309082;stroke-width:0.2160000056028366px"/><line x1="115.3871" y1="199.9783" x2="108.6386" y2="199.9783" style="fill:none;stroke:#b1b2b2;stroke-miterlimit:22.92558479309082;stroke-width:0.2160000056028366px"/><line x1="107.388" y1="360.46031" x2="84.24939" y2="360.46031" style="fill:none;stroke:#b1b2b2;stroke-miterlimit:22.92558479309082;stroke-width:0.2160000056028366px"/><line x1="38.38789" y1="363.71021" x2="8.1601" y2="363.71021" style="fill:none;stroke:#b1b2b2;stroke-miterlimit:22.92558479309082;stroke-width:0.2160000056028366px"/><line x1="38.38789" y1="246.7099" x2="8.1601" y2="246.7099" style="fill:none;stroke:#b1b2b2;stroke-miterlimit:22.92558479309082;stroke-width:0.2160000056028366px"/><line x1="70.9498" y1="8.9577" x2="46.076" y2="8.9577" style="fill:none;stroke:#b1b2b2;stroke-miterlimit:22.92558479309082;stroke-width:0.2160000056028366px"/><line x1="141.52789" y1="17.7077" x2="115.8262" y2="17.7077" style="fill:none;stroke:#b1b2b2;stroke-miterlimit:22.92558479309082;stroke-width:0.2160000056028366px"/><line x1="75.7332" y1="134.22812" x2="49.0762" y2="134.22812" style="fill:none;stroke:#b1b2b2;stroke-miterlimit:22.92558479309082;stroke-width:0.2160000056028366px"/><line x1="64.9576" y1="145.97801" x2="41.576" y2="145.97801" style="fill:none;stroke:#b1b2b2;stroke-miterlimit:22.92558479309082;stroke-width:0.2160000056028366px"/><line x1="141.62091" y1="199.9783" x2="124.8262" y2="199.9783" style="fill:none;stroke:#b1b2b2;stroke-miterlimit:22.92558479309082;stroke-width:0.2160000056028366px"/><line x1="141.24438" y1="360.46031" x2="116.82709" y2="360.46031" style="fill:none;stroke:#b1b2b2;stroke-miterlimit:22.92558479309082;stroke-width:0.2160000056028366px"/><line x1="73.9485" y1="363.71021" x2="47.827" y2="363.71021" style="fill:none;stroke:#b1b2b2;stroke-miterlimit:22.92558479309082;stroke-width:0.2160000056028366px"/><line x1="75.7332" y1="246.7099" x2="47.827" y2="246.7099" style="fill:none;stroke:#b1b2b2;stroke-miterlimit:22.92558479309082;stroke-width:0.2160000056028366px"/><path d="M278.663,234.027c0,.42691-.3606.7211-1.0148.7211-.6546,0-1.01511-.29419-1.01511-.7211s.3605-.72089,1.01511-.72089c.65421,0,1.0148.294,1.0148.72089m.231,0c0-.567-.46552-.98-1.24582-.98-.7807,0-1.24619.413-1.24619.98s.46548.9765,1.24619.9765C278.4285,235.00349,278.894,234.5939,278.894,234.027Zm-1.4664,2.31331v.315l-.78061-.08391v-1.12h-.224v1.3405l1.22861.1259v-.5213c0-.62309.1958-.81931.511-.81931.29739,0,.5004.22061.5004.6373a1.06128,1.06128,0,0,1-.28351.7523l.19962.12241a1.26445,1.26445,0,0,0,.31491-.8784c0-.5984-.32541-.889-.74182-.889C277.7179,235.32179,277.42761,235.6019,277.42761,236.3403Zm1.08139,1.1937a.18318.18318,0,0,0,.18909.18541.17678.17678,0,0,0,.17831-.1259l.50769.11909v-.16811l-.483-.14709a.57429.57429,0,0,0-.203-.0491A.1832.1832,0,0,0,278.509,237.534Zm-2.086,1.6064h.224V238.563h2.226v-.252h-2.45Z" transform="translate(-139.5686 -25.87869)" style="fill:#434242"/><path d="M274.913,204.293c0,.4269-.3606.7211-1.0148.7211-.65448,0-1.01511-.2942-1.01511-.7211s.36063-.7209,1.01511-.7209c.65421,0,1.0148.294,1.0148.7209m.231,0c0-.567-.46542-.98-1.24582-.98-.7807,0-1.24609.413-1.24609.98s.46539.9765,1.24609.9765C274.67859,205.2695,275.144,204.85989,275.144,204.293Zm-2.47092,3.0379h.68262v-.2486H272.897v-1.26l2.2261,1.008v-.273l-2.27139-1.0253h-.17862Zm2.086.4373a.18318.18318,0,0,0,.18912.18539.17676.17676,0,0,0,.17828-.12579l.5076.119v-.16809l-.483-.14711a.57326.57326,0,0,0-.20288-.049A.18319.18319,0,0,0,274.75909,207.7682Zm-2.086,1.6064h.22391v-.57741h2.2261v-.252h-2.45Z" transform="translate(-139.5686 -25.87869)" style="fill:#434242"/><path d="M248.42751,161.79791v.315l-.7807-.08389v-1.12h-.22391v1.34052l1.2285.12589v-.5213c0-.62311.19591-.81918.51111-.81918.29739,0,.50029.22049.50029.63718a1.06144,1.06144,0,0,1-.2834.75232l.19951.1225a1.26458,1.26458,0,0,0,.315-.87851c0-.59839-.3255-.88889-.74191-.88889-.43419,0-.72449.28-.72449,1.0184m1.2529,1.946c0,.434-.1891.68939-.4935.68939-.301,0-.49011-.2554-.49011-.68939s.1891-.693.49011-.693C249.4913,163.0509,249.6804,163.30991,249.6804,163.7439Zm-1.624.6055c-.2729,0-.441-.23471-.441-.6055,0-.36758.16809-.6091.4444-.6091.2662,0,.4377.2276.4377.6091C248.4975,164.12521,248.326,164.3494,248.0564,164.3494Zm.5321-1.078a.555.555,0,0,0-.53911-.392c-.3989,0-.64749.34641-.64749.8645,0,.51791.2486.85751.64749.85751a.553.553,0,0,0,.53911-.38522.61093.61093,0,0,0,.60181.4725c.434,0,.7036-.3569.7036-.94479,0-.5845-.26961-.95209-.7036-.95209A.61685.61685,0,0,0,248.5885,163.27139Zm.92039,1.98792a.18318.18318,0,0,0,.1891.18539.17668.17668,0,0,0,.1783-.12579l.50771.119v-.16809l-.48311-.14709a.57251.57251,0,0,0-.2029-.049A.18319.18319,0,0,0,249.5089,165.25931Zm-2.086,1.60638h.22391v-.57739h2.22609v-.252h-2.45Z" transform="translate(-139.5686 -25.87869)" style="fill:#434242"/><path d="M248.42751,278.2251v.3149l-.7807-.08389v-1.12h-.22391v1.3405l1.2285.1259v-.5213c0-.62311.19591-.8192.51111-.8192.29739,0,.50029.22049.50029.63719a1.0614,1.0614,0,0,1-.2834.7523l.19951.1225a1.26454,1.26454,0,0,0,.315-.87849c0-.5984-.3255-.8889-.74191-.8889-.43419,0-.72449.28-.72449,1.01849m1.2529,1.94591c0,.434-.1891.68939-.4935.68939-.301,0-.49011-.2554-.49011-.68939s.1891-.693.49011-.693C249.4913,279.478,249.6804,279.73711,249.6804,280.171Zm-1.624.6055c-.2729,0-.441-.23471-.441-.6055,0-.3676.16809-.6091.4444-.6091.2662,0,.4377.2276.4377.6091C248.4975,280.55229,248.326,280.7765,248.0564,280.7765Zm.5321-1.078a.555.555,0,0,0-.53911-.392c-.3989,0-.64749.34639-.64749.8645,0,.5179.2486.8575.64749.8575a.553.553,0,0,0,.53911-.38521.611.611,0,0,0,.60181.4725c.434,0,.7036-.3569.7036-.94479,0-.5845-.26961-.9521-.7036-.9521A.61686.61686,0,0,0,248.5885,279.6985Zm.92039,1.9879a.18317.18317,0,0,0,.1891.18539.17668.17668,0,0,0,.1783-.12579l.50771.119v-.16811l-.48311-.14709a.57251.57251,0,0,0-.2029-.049A.1832.1832,0,0,0,249.5089,281.6864Zm.14,1.8902-.81889-.8331a1.0076,1.0076,0,0,0-.76649-.4025c-.40961,0-.66161.3149-.66161.8121a1.10151,1.10151,0,0,0,.3501.868l.1539-.1786a.83214.83214,0,0,1-.273-.6684c0-.3745.1749-.5741.45839-.5741.16811,0,.3325.05249.6055.32889l.99751,1.01851h.17859V282.229h-.224Z" transform="translate(-139.5686 -25.87869)" style="fill:#434242"/><path d="M277.899,355.5148l-.81888-.8331a1.00779,1.00779,0,0,0-.76651-.4025c-.40961,0-.66159.3149-.66159.8121a1.101,1.101,0,0,0,.3501.868l.1539-.1786a.83218.83218,0,0,1-.273-.6684c0-.3745.1749-.574.4584-.574.16809,0,.33249.0524.6055.3288l.9975,1.0185h.17859v-1.7184h-.224Zm.03152,1.6274c0,.43391-.18912.6893-.4935.6893-.30112,0-.49011-.25539-.49011-.6893s.189-.6931.49011-.6931C277.74139,356.4491,277.93051,356.7082,277.93051,357.1422Zm-1.624.6054c-.273,0-.4411-.2347-.4411-.6054,0-.3677.16812-.6092.44452-.6092.2662,0,.43768.2276.43768.6092C276.74759,357.5234,276.57611,357.7476,276.30649,357.7476Zm.5321-1.078a.55494.55494,0,0,0-.53918-.392c-.3988,0-.6474.3464-.6474.86459,0,.5178.2486.8574.6474.8574a.553.553,0,0,0,.53918-.38519.611.611,0,0,0,.60181.4725c.434,0,.70349-.3568.70349-.9447,0-.5845-.2695-.95219-.70349-.95219A.61686.61686,0,0,0,276.83859,356.6696Zm.92041,1.988a.18315.18315,0,0,0,.18909.1853.1767.1767,0,0,0,.17831-.1258l.5076.119v-.1681l-.483-.1471a.5756.5756,0,0,0-.20291-.049A.1832.1832,0,0,0,277.759,358.6576Zm-1.0361,1.3334-.87131-.69279H275.673v1.5749h.22391v-1.2529l.85068.6789h.18542v-.1749c0-.4552.19238-.6616.48639-.6616.30438,0,.4935.2239.4935.6299a1.07356,1.07356,0,0,1-.28351.7596l.19962.12251a1.27463,1.27463,0,0,0,.31488-.8821c0-.5913-.31488-.889-.72449-.889C277.0274,359.2035,276.751,359.466,276.7229,359.991Z" transform="translate(-139.5686 -25.87869)" style="fill:#434242"/><path d="M151.69749,312.5753v.3149l-.7807-.0839v-1.12h-.22389v1.3406l1.2285.1258v-.5213c0-.623.19589-.8192.51109-.8192.29741,0,.50031.2205.50031.6372a1.06162,1.06162,0,0,1-.2834.7524l.19951.1224a1.26441,1.26441,0,0,0,.3149-.8784c0-.5984-.32541-.889-.74181-.889-.4343,0-.7245.2801-.7245,1.0185m1.2529,1.7813c0,.4235-.25539.64771-.525.64771a.56723.56723,0,0,1-.5354-.6301c0-.3779.2063-.616.52831-.616A.53612.53612,0,0,1,152.95039,314.3566Zm-1.2739-.021a.78344.78344,0,0,0,.4198.7492c-.07339.0068-.1434.0105-.19949.0105-.66481,0-1.00441-.3396-1.00441-.868a.86057.86057,0,0,1,.1154-.4762l-.2029-.1015a1.12578,1.12578,0,0,0-.133.5811c0,.665.434,1.12,1.26709,1.12.7733,0,1.22481-.3535,1.22481-1.0046a.76334.76334,0,0,0-.75261-.8365A.74173.74173,0,0,0,151.6765,314.3356Zm1.1024,1.5262a.18318.18318,0,0,0,.1891.1854.17676.17676,0,0,0,.1783-.1259l.50771.11909v-.1681l-.48311-.1471a.57343.57343,0,0,0-.2029-.0491A.1832.1832,0,0,0,152.7789,315.8618Zm-.504.49319v.4901H151.708v.2449h.56691v1.0642l-1.582-1.253v.2798l1.624,1.2986h.1819v-1.3825h.6441v-.252h-.6441v-.4901Z" transform="translate(-139.5686 -25.87869)" style="fill:#434242"/><path d="M150.6929,214.6227h.22389v-.57739h2.2261v-.252h-2.45Zm2.2399,1.18291c0,.4269-.3605.7211-1.0148.7211-.6545,0-1.01511-.2942-1.01511-.7211s.36061-.7209,1.01511-.7209C152.5723,215.0847,152.9328,215.37869,152.9328,215.8056Zm.231,0c0-.56691-.46541-.9799-1.2458-.9799-.78059,0-1.24609.413-1.24609.9799s.4655.9765,1.24609.9765C152.69839,216.7821,153.1638,216.3725,153.1638,215.8056Zm-.3849,1.48759a.18317.18317,0,0,0,.1891.18539.17665.17665,0,0,0,.1783-.12589l.50771.11909v-.16811l-.48311-.14709a.57347.57347,0,0,0-.2029-.0491A.18321.18321,0,0,0,152.7789,217.2932Zm-1.08141,1.5293v.31491l-.7807-.08391v-1.1199h-.22389v1.3405l1.2285.12581v-.5213c0-.623.19589-.8192.51109-.8192.29741,0,.50031.2206.50031.63719a1.06167,1.06167,0,0,1-.2834.75241l.19951.12239a1.26441,1.26441,0,0,0,.3149-.8784c0-.59839-.32541-.889-.74181-.889C151.9877,217.804,151.69749,218.08411,151.69749,218.82249Z" transform="translate(-139.5686 -25.87869)" style="fill:#434242"/><path d="M152.95039,109.031c0,.42349-.25539.64771-.525.64771a.56723.56723,0,0,1-.5354-.6301c0-.37793.2063-.616.52831-.616a.53613.53613,0,0,1,.53209.59842m-1.2739-.021a.78338.78338,0,0,0,.4198.74918c-.07339.00681-.1434.01053-.19949.01053-.66481,0-1.00441-.33963-1.00441-.86792a.86106.86106,0,0,1,.1154-.47629l-.2029-.1015a1.12613,1.12613,0,0,0-.133.58121c0,.665.434,1.11987,1.26709,1.11987.7733,0,1.22481-.35349,1.22481-1.00458a.76334.76334,0,0,0-.75261-.83652A.74174.74174,0,0,0,151.6765,109.01Zm.2693,2.35559c0,.3779-.20641.616-.5284.616a.5363.5363,0,0,1-.532-.59869c0-.42349.2556-.6474.52489-.6474A.56707.56707,0,0,1,151.9458,111.3656Zm-1.2739.0278a.76322.76322,0,0,0,.75259.83649.74151.74151,0,0,0,.7347-.826.78249.78249,0,0,0-.4198-.7489c.0735-.00711.14351-.0105.1996-.0105.665,0,1.0043.3396,1.0043.868a.85921.85921,0,0,1-.1154.47589l.203.1015a1.12388,1.12388,0,0,0,.1329-.58081c0-.6651-.4339-1.12-1.267-1.12C151.1235,110.3891,150.67191,110.74258,150.67191,111.3934Zm2.107,1.31268a.18318.18318,0,0,0,.1891.18542.17667.17667,0,0,0,.1783-.12582l.50771.119v-.16809l-.48311-.14713a.57307.57307,0,0,0-.2029-.049A.18317.18317,0,0,0,152.7789,112.70609Zm-.504.49332v.49011H151.708v.24487h.56691v1.06412l-1.582-1.2529v.27979l1.624,1.29852h.1819V113.9415h.6441v-.252h-.6441v-.49011Z" transform="translate(-139.5686 -25.87869)" style="fill:#434242"/><path d="M154.53751,41.44971c0,.42688-.36061.7211-1.0148.7211-.65451,0-1.01511-.29422-1.01511-.7211s.3606-.72092,1.01511-.72092c.65419,0,1.0148.294,1.0148.72092m.231,0c0-.567-.46539-.98-1.24579-.98-.7807,0-1.24611.413-1.24611.98s.46541.9765,1.24611.9765C154.3031,42.42621,154.76849,42.0166,154.76849,41.44971Zm-.24489,2.62509-.81891-.8331a1.00771,1.00771,0,0,0-.76649-.4025c-.40961,0-.66161.31491-.66161.8121a1.101,1.101,0,0,0,.3501.868l.1539-.17859a.832.832,0,0,1-.273-.6684c0-.37451.1749-.574.4584-.574.16809,0,.33249.0524.6055.3288l.9975,1.01849h.1786V42.7272h-.224Zm-.14.90991a.18316.18316,0,0,0,.18909.18539.17671.17671,0,0,0,.17831-.12579l.5076.119v-.16809l-.483-.14709a.57307.57307,0,0,0-.20291-.049A.18318.18318,0,0,0,154.38361,44.98471Zm-2.086,1.60638h.22389V46.0137h2.2261v-.252h-2.45Z" transform="translate(-139.5686 -25.87869)" style="fill:#434242"/><path d="M276.5687,92.31h.224V91.7326h2.226v-.252h-2.45Zm2.24,1.18289c0,.42691-.3606.7211-1.01477.7211-.6546,0-1.01511-.29419-1.01511-.7211s.3605-.72089,1.01511-.72089C278.44809,92.772,278.80869,93.066,278.80869,93.49289Zm.231,0c0-.56689-.46552-.97989-1.24579-.97989-.7807,0-1.24622.413-1.24622.97989s.46552.9765,1.24622.9765C278.57419,94.46939,279.0397,94.05981,279.0397,93.49289Zm-.385,1.48761a.18318.18318,0,0,0,.18912.18539.17663.17663,0,0,0,.17828-.12589l.50769.11908V94.991l-.483-.14709a.57368.57368,0,0,0-.203-.049A.1832.1832,0,0,0,278.65469,94.9805Zm-1.08139,1.5293v.31491l-.78061-.08389v-1.1199h-.224V96.9614l1.22861.12579v-.5213c0-.623.1958-.81918.511-.81918.29742,0,.5004.22058.5004.6373a1.0615,1.0615,0,0,1-.28348.75229l.19958.12241a1.26462,1.26462,0,0,0,.31491-.87839c0-.59842-.32541-.889-.74179-.889C277.86359,95.4913,277.5733,95.77139,277.5733,96.5098Z" transform="translate(-139.5686 -25.87869)" style="fill:#434242"/><line x1="138.1445" y1="214.82561" x2="138.1445" y2="225.96011" style="fill:none;stroke:#b1b2b2;stroke-miterlimit:22.92558479309082;stroke-width:0.2160000056028366px"/><line x1="134.3945" y1="185.07571" x2="134.3945" y2="191.82411" style="fill:none;stroke:#b1b2b2;stroke-miterlimit:22.92558479309082;stroke-width:0.2160000056028366px"/><line x1="109.1443" y1="142.57559" x2="109.1443" y2="156.17621" style="fill:none;stroke:#b1b2b2;stroke-miterlimit:22.92558479309082;stroke-width:0.2160000056028366px"/><line x1="109.1443" y1="259.38251" x2="109.1443" y2="282.2468" style="fill:none;stroke:#b1b2b2;stroke-miterlimit:22.92558479309082;stroke-width:0.2160000056028366px"/><line x1="137.39441" y1="336.32561" x2="137.39441" y2="365.27981" style="fill:none;stroke:#b1b2b2;stroke-miterlimit:22.92558479309082;stroke-width:0.2160000056028366px"/><line x1="12.41429" y1="293.82541" x2="12.41429" y2="335.18771" style="fill:none;stroke:#b1b2b2;stroke-miterlimit:22.92558479309082;stroke-width:0.2160000056028366px"/><line x1="12.41429" y1="195.32521" x2="12.41429" y2="240.35951" style="fill:none;stroke:#b1b2b2;stroke-miterlimit:22.92558479309082;stroke-width:0.2160000056028366px"/><line x1="12.41429" y1="90.57541" x2="12.41429" y2="138.2034" style="fill:none;stroke:#b1b2b2;stroke-miterlimit:22.92558479309082;stroke-width:0.2160000056028366px"/><line x1="14.019" y1="22.26242" x2="14.019" y2="29.01089" style="fill:none;stroke:#b1b2b2;stroke-miterlimit:22.92558479309082;stroke-width:0.2160000056028366px"/><line x1="138.29019" y1="73.01251" x2="138.29019" y2="113.38809" style="fill:none;stroke:#b1b2b2;stroke-miterlimit:22.92558479309082;stroke-width:0.2160000056028366px"/><line x1="138.1445" y1="195.80171" x2="138.1445" y2="205.38651" style="fill:none;stroke:#b1b2b2;stroke-miterlimit:22.92558479309082;stroke-width:0.2160000056028366px"/><line x1="134.3945" y1="163.19991" x2="134.3945" y2="175.63661" style="fill:none;stroke:#b1b2b2;stroke-miterlimit:22.92558479309082;stroke-width:0.2160000056028366px"/><line x1="109.1443" y1="122.20102" x2="109.1443" y2="133.13651" style="fill:none;stroke:#b1b2b2;stroke-miterlimit:22.92558479309082;stroke-width:0.2160000056028366px"/><line x1="109.1443" y1="229.32761" x2="109.1443" y2="249.94341" style="fill:none;stroke:#b1b2b2;stroke-miterlimit:22.92558479309082;stroke-width:0.2160000056028366px"/><line x1="137.39441" y1="289.22481" x2="137.39441" y2="326.88651" style="fill:none;stroke:#b1b2b2;stroke-miterlimit:22.92558479309082;stroke-width:0.2160000056028366px"/><line x1="12.41429" y1="244.32831" x2="12.41429" y2="284.38641" style="fill:none;stroke:#b1b2b2;stroke-miterlimit:22.92558479309082;stroke-width:0.2160000056028366px"/><line x1="12.41429" y1="140.8056" x2="12.41429" y2="185.88611" style="fill:none;stroke:#b1b2b2;stroke-miterlimit:22.92558479309082;stroke-width:0.2160000056028366px"/><line x1="12.41429" y1="39.05432" x2="12.41429" y2="81.13632" style="fill:none;stroke:#b1b2b2;stroke-miterlimit:22.92558479309082;stroke-width:0.2160000056028366px"/><line x1="14.019" y1="6.07492" x2="14.019" y2="12.8233" style="fill:none;stroke:#b1b2b2;stroke-miterlimit:22.92558479309082;stroke-width:0.2160000056028366px"/><line x1="138.29019" y1="15.3266" x2="138.29019" y2="63.57339" style="fill:none;stroke:#b1b2b2;stroke-miterlimit:22.92558479309082;stroke-width:0.2160000056028366px"/><path d="M151.8018,380.2593v.3149l-.7807-.0839v-1.12h-.22391v1.3405l1.2285.1259v-.5213c0-.6231.19591-.8192.51111-.8192.29739,0,.50029.2205.50029.6372a1.06131,1.06131,0,0,1-.2834.7523l.19951.1225a1.26448,1.26448,0,0,0,.315-.8785c0-.5984-.3255-.8889-.7419-.8889-.4342,0-.7245.28-.7245,1.0185m-1.00461,2.0579h.22391v-.5774h2.22609v-.252h-2.45Zm2.086.3569a.18318.18318,0,0,0,.1891.1854.17676.17676,0,0,0,.1783-.1259l.50771.1191v-.1681l-.48309-.1471a.57343.57343,0,0,0-.20291-.0491A.18322.18322,0,0,0,152.88319,382.6741Zm-2.086,1.6064h.22391v-.5774h2.22609v-.252h-2.45Z" transform="translate(-139.5686 -25.87869)" style="fill:#434242"/><line x1="12.5186" y1="360.51361" x2="12.5186" y2="367.26201" style="fill:none;stroke:#b1b2b2;stroke-miterlimit:22.92558479309082;stroke-width:0.2160000056028366px"/><line x1="12.5186" y1="344.32611" x2="12.5186" y2="351.07451" style="fill:none;stroke:#b1b2b2;stroke-miterlimit:22.92558479309082;stroke-width:0.2160000056028366px"/></svg>