<svg id="Слой_1" data-name="Слой 1" xmlns="http://www.w3.org/2000/svg" viewBox="0 0 131.05249 163.19991"><title>1.04.15</title><polygon points="0.52 6.217 63.951 6.217 63.951 3.598 130.504 3.598 130.504 156.849 76.746 157.391 76.746 163.16 0.52 163.16 0.52 6.217" style="fill:#fff;fill-rule:evenodd"/><path d="M163.8091,280.0506h-2.5433v6.8201h2.5433Zm4.4416,3.92821h-2.5433v2.89189h2.5433Zm0-3.96111h-2.5433v2.89191h2.5433Zm-10.8522.0329h2.5433v6.8201h-2.5433Zm-1.66161-1.1812h13.7899v10.69881h-13.7899Z" transform="translate(-147.0722 -130.27869)" style="fill:#003915;fill-rule:evenodd"/><path d="M195.10471,216.762a.374.374,0,1,1,.37469-.6474l13.92011,8.0399a.374.374,0,1,1-.37471.6474Z" transform="translate(-147.0722 -130.27869)" style="fill:#003915"/><path d="M219.05521,165.0708a.374.374,0,1,1,.37469-.6474L233.35,172.4633a.374.374,0,1,1-.37471.6474Z" transform="translate(-147.0722 -130.27869)" style="fill:#003915"/><path d="M190.3952,267.3981a.374.374,0,1,1-.6474-.37469l8.0399-13.92011a.374.374,0,1,1,.6474.37469Z" transform="translate(-147.0722 -130.27869)" style="fill:#003915"/><rect x="61.6275" y="28.3558" width="2.60219" height="67.6443" style="fill:#003915"/><rect x="1.55879" y="93.39792" width="42.6846" height="2.60219" style="fill:#003915"/><rect x="2.87689" y="96.73082" width="39.43071" height="2.60219" style="fill:#003915"/><rect x="40.49489" y="94.78201" width="2.6022" height="25.617" style="fill:#003915"/><rect x="70.5087" y="113.68512" width="2.6022" height="18.86519" style="fill:#003915"/><rect x="40.4254" y="136.34731" width="2.60219" height="25.61691" style="fill:#003915"/><rect x="126.05038" width="5.00211" height="157.32001" style="fill:#003915"/><rect y="9.63782" width="5.002" height="147.68219" style="fill:#003915"/><rect x="0.004" y="156.77431" width="43.02359" height="6.4256" style="fill:#003915"/><rect x="63.20009" y="156.77431" width="13.5462" height="6.4256" style="fill:#003915"/><rect x="70.5087" y="150.96582" width="60.54379" height="6.4256" style="fill:#003915"/><rect x="101.33769" y="30.89423" width="27.39229" height="8.16008" style="fill:#003915"/><rect x="128.27219" y="30.89423" width="2.7803" height="8.16008" style="fill:#003915"/><rect x="61.6275" y="30.89423" width="10.502" height="8.16008" style="fill:#003915"/><rect y="5.51993" width="18.0323" height="8.1601" style="fill:#003915"/><rect x="46.866" y="5.51993" width="22.92149" height="8.1601" style="fill:#003915"/><rect x="64.26759" y="113.68512" width="8.1601" height="12.78429" style="fill:#003915"/><rect x="61.6275" width="8.15999" height="39.05431" style="fill:#003915"/><rect x="59.16559" width="10.6219" height="13.68002" style="fill:#003915"/><rect x="31.5076" y="8.52182" width="0.5018" height="2.29858" style="fill:#003915"/><rect x="32.70639" y="8.52182" width="0.50121" height="2.29858" style="fill:#003915"/><rect x="45.34349" y="8.52182" width="0.50151" height="2.29858" style="fill:#003915"/><rect x="46.54199" y="8.52182" width="0.50121" height="2.29858" style="fill:#003915"/><rect x="17.39589" y="8.52182" width="0.5018" height="2.29858" style="fill:#003915"/><rect x="18.59439" y="8.52182" width="0.50121" height="2.29858" style="fill:#003915"/><rect x="15.0063" y="5.51993" width="34.09369" height="0.50137" style="fill:#003915"/><rect x="15.0063" y="8.367" width="34.09369" height="0.5014" style="fill:#003915"/><rect x="15.0063" y="10.5383" width="34.09369" height="0.50153" style="fill:#003915"/><rect x="15.0063" y="13.17941" width="34.09369" height="0.5014" style="fill:#003915"/><path d="M238.4799,164.5206v1.66989h-.6971V164.5206Zm13.56909,0v1.66989h-13.0677V164.5206Zm1.1982,0v1.66989h-.697V164.5206Zm.5018,1.66989V164.5206h5.78952v-.5014H237.78281v-2.3457h21.75571v-.5015H237.28169v8.161h22.25682v-.50148H237.78281V166.692h18.0519v-.5015Z" transform="translate(-147.0722 -130.27869)" style="fill:#003915;fill-rule:evenodd"/><rect x="87.68149" y="3.84012" width="0.44711" height="1.29709" style="fill:#003915"/><rect x="88.74959" y="3.84012" width="0.44681" height="1.29709" style="fill:#003915"/><rect x="106.2836" y="3.84012" width="0.44699" height="1.29709" style="fill:#003915"/><rect x="107.3517" y="3.84012" width="0.4467" height="1.29709" style="fill:#003915"/><rect x="124.88599" y="3.84012" width="0.44702" height="1.29709" style="fill:#003915"/><rect x="125.9541" y="3.84012" width="0.44669" height="1.29709" style="fill:#003915"/><rect x="69.07919" y="3.84012" width="0.44701" height="1.29709" style="fill:#003915"/><rect x="70.14729" y="3.84012" width="0.4467" height="1.29709" style="fill:#003915"/><rect x="67.6463" y="2.61072" width="60.8212" height="0.44669" style="fill:#003915"/><rect x="67.6463" y="3.70203" width="60.8212" height="0.44678" style="fill:#003915"/><rect x="67.6463" y="4.7829" width="60.8212" height="0.44672" style="fill:#003915"/><rect x="129.93161" y="3.84012" width="0.44708" height="1.29709" style="fill:#003915"/><rect x="130.99969" y="3.84012" width="0.0528" height="1.29709" style="fill:#003915"/><rect x="128.49869" y="2.61072" width="2.5538" height="0.44669" style="fill:#003915"/><rect x="128.49869" y="3.70203" width="2.5538" height="0.44678" style="fill:#003915"/><rect x="128.49869" y="4.7829" width="2.5538" height="0.44672" style="fill:#003915"/><path d="M152.46741,257.48v-9.8223a.90519.90519,0,0,1,.9039-.9054h4.61029a4.59567,4.59567,0,0,1,4.591,4.58949v2.4523a4.59574,4.59574,0,0,1-4.591,4.59041h-4.61029a.90462.90462,0,0,1-.9039-.90451m9.8606-6.1382a4.35109,4.35109,0,0,0-4.34641-4.34489h-4.61029a.66152.66152,0,0,0-.65991.6608V257.48a.66075.66075,0,0,0,.65991.6599h4.61029a4.35147,4.35147,0,0,0,4.34641-4.34579Z" transform="translate(-147.0722 -130.27869)" style="fill:#003915"/><path d="M161.23779,251.3421a3.2587,3.2587,0,0,0-3.2562-3.25441h-2.6881a.56786.56786,0,0,0-.5675.5672v3.5753h-.24519v-3.5753a.814.814,0,0,1,.8127-.81239h2.6881a3.50407,3.50407,0,0,1,3.50081,3.4996v2.4523a3.5047,3.5047,0,0,1-3.50081,3.50079h-2.6881a.81448.81448,0,0,1-.8127-.8136v-3.5753h.24519v3.5753a.56837.56837,0,0,0,.5675.56841h2.6881a3.25934,3.25934,0,0,0,3.2562-3.2556Z" transform="translate(-147.0722 -130.27869)" style="fill:#003915"/><path d="M157.63409,252.569a.7835.7835,0,1,1,.78351.78371.78476.78476,0,0,1-.78351-.78371m1.32231,0a.5387.5387,0,1,0-.5388.53909A.53963.53963,0,0,0,158.95641,252.569Z" transform="translate(-147.0722 -130.27869)" style="fill:#003915"/><rect x="10.7867" y="122.16782" width="1.1165" height="0.2449" style="fill:#003915"/><rect x="11.2224" y="121.73181" width="0.24539" height="1.116" style="fill:#003915"/><path d="M153.6497,252.9063v.40361a.17365.17365,0,0,0,.174.173h.3793a.17374.17374,0,0,0,.1741-.173v-.40361h.24489v.40361a.41868.41868,0,0,1-.419.41809h-.3793a.41859.41859,0,0,1-.41859-.41809v-.40561l.0374.002Zm.7274-1.07719a.17447.17447,0,0,0-.1741-.174h-.3793a.17438.17438,0,0,0-.174.174v.40109h-.2072l-.0374.0023v-.4034a.41859.41859,0,0,1,.41859-.4187h.3793a.41868.41868,0,0,1,.419.4187v.40109h-.24489Z" transform="translate(-147.0722 -130.27869)" style="fill:#003915"/><path d="M152.9821,252.569a.461.461,0,0,1,.4604-.4612h3.0804a.46045.46045,0,0,1,0,.9209h-3.0804a.46054.46054,0,0,1-.4604-.4597m3.75681,0a.2167.2167,0,0,0-.216-.21629h-3.0804a.21555.21555,0,0,0,0,.43109h3.0804A.216.216,0,0,0,156.73891,252.569Z" transform="translate(-147.0722 -130.27869)" style="fill:#003915"/><path d="M166.4666,271.35471a3.9169,3.9169,0,0,0-3.913-3.9115h-5.6653a.67709.67709,0,0,0-.63921.45609,1.24108,1.24108,0,0,0-.205-.20349.946.946,0,0,1,.84421-.52161h5.6653a4.1808,4.1808,0,1,1,0,8.3616h-5.6653a.94542.94542,0,0,1-.84361-.521,1.24111,1.24111,0,0,0,.20471-.2032.67619.67619,0,0,0,.6389.45551h5.6653a3.91709,3.91709,0,0,0,3.913-3.9124" transform="translate(-147.0722 -130.27869)" style="fill:#003915"/><path d="M157.9691,274.15849v-5.60889a.204.204,0,0,1,.2016-.20131h4.27071a3.00655,3.00655,0,1,1,0,6.01311H158.1707a.20474.20474,0,0,1-.2016-.20291m.2682-5.54149v5.476h4.2041a2.738,2.738,0,0,0,0-5.476Z" transform="translate(-147.0722 -130.27869)" style="fill:#003915"/><path d="M160.7,271.3544a1.00815,1.00815,0,1,1,1.008,1.0089,1.01,1.01,0,0,1-1.008-1.0089m1.7476,0a.7394.7394,0,1,0-.73961.7399A.74037.74037,0,0,0,162.4476,271.3544Z" transform="translate(-147.0722 -130.27869)" style="fill:#003915"/><rect x="159.48959" y="268.61193" width="0.26858" height="2.24219" transform="translate(-299.09453 106.10268) rotate(-53.27519)" style="fill:#003915"/><rect x="158.50256" y="272.79778" width="2.24303" height="0.26913" transform="translate(-278.7772 19.7745) rotate(-36.80939)" style="fill:#003915"/><path d="M152.46741,274.0553v-5.4006a1.355,1.355,0,0,1,1.35379-1.3524h1.4743a1.35345,1.35345,0,0,1,1.3524,1.3524v5.4006a1.35313,1.35313,0,0,1-1.3524,1.35181h-1.4743a1.3547,1.3547,0,0,1-1.35379-1.35181m3.91209-5.4006a1.08549,1.08549,0,0,0-1.084-1.0842h-1.4743a1.08585,1.08585,0,0,0-1.0851,1.0842v5.4006a1.08593,1.08593,0,0,0,1.0851,1.08369h1.4743a1.08557,1.08557,0,0,0,1.084-1.08369Z" transform="translate(-147.0722 -130.27869)" style="fill:#003915"/><path d="M153.86971,271.3544a.6881.6881,0,1,1,.68739.68829.68807.68807,0,0,1-.68739-.68829m1.10719,0a.41925.41925,0,1,0-.4198.4196A.41941.41941,0,0,0,154.9769,271.3544Z" transform="translate(-147.0722 -130.27869)" style="fill:#003915"/><path d="M175.6973,278.6154h0v7.83949h11.3479V278.6154Zm-.3308,8.1709v-8.50259h12.0098v8.50259Z" transform="translate(-147.0722 -130.27869)" style="fill:#003915"/><path d="M178.09171,278.3909a.60446.60446,0,0,1,.5936-.61259h5.37219a.60413.60413,0,0,1,.5939.61259h-.3308a.26975.26975,0,0,0-.26311-.2809H178.6853a.26951.26951,0,0,0-.2628.2809Z" transform="translate(-147.0722 -130.27869)" style="fill:#003915"/><path d="M180.3495,281.0175h0v2.7076l1.59729.6217a2.47387,2.47387,0,0,0-.0918-1.6748,4.15052,4.15052,0,0,1-.2412-1.24069,2.44884,2.44884,0,0,1,.1882-.93651Zm-.3308,2.9341v-3.1669l2.48-.892-.2247.39059a2.26589,2.26589,0,0,0-.32941,1.148,3.89375,3.89375,0,0,0,.2267,1.1438,3.89666,3.89666,0,0,1,.22821,1.14409,2.01605,2.01605,0,0,1-.218.9124l-.0674.1358Z" transform="translate(-147.0722 -130.27869)" style="fill:#003915"/><path d="M154.61861,244.42931h30.0849a2.161,2.161,0,0,0,2.15149-2.16571V231.8522a2.16087,2.16087,0,0,0-2.15149-2.16591h-30.0849a2.16081,2.16081,0,0,0-2.1512,2.16591V242.2636a2.161,2.161,0,0,0,2.1512,2.16571m30.0849-14.51311a1.93108,1.93108,0,0,1,1.92189,1.936V242.2636a1.931,1.931,0,0,1-1.92189,1.9355h-30.0849a1.93143,1.93143,0,0,1-1.92221-1.9355V231.8522a1.93154,1.93154,0,0,1,1.92221-1.936Z" transform="translate(-147.0722 -130.27869)" style="fill:#003915"/><path d="M181.7178,231.17819a2.577,2.577,0,0,1,2.56529,2.582v6.5948a2.57651,2.57651,0,0,1-2.56529,2.5818H157.6046a2.577,2.577,0,0,1-2.5659-2.5818v-2.06189a.39589.39589,0,0,1-.2282.142V240.355a2.80641,2.80641,0,0,0,2.7941,2.81261h24.1132a2.80667,2.80667,0,0,0,2.7944-2.81261v-6.5948a2.80658,2.80658,0,0,0-2.7944-2.81219H157.6046a2.80632,2.80632,0,0,0-2.7941,2.81219v1.92021a.39561.39561,0,0,1,.2282.14149v-2.06171a2.57747,2.57747,0,0,1,2.5659-2.582Z" transform="translate(-147.0722 -130.27869)" style="fill:#003915"/><path d="M180.17039,232.4915a1.26663,1.26663,0,0,1,1.26111,1.26869v6.5948a1.26643,1.26643,0,0,1-1.26111,1.26831H157.6046a1.26629,1.26629,0,0,1-1.2614-1.26831v-2.8448h-.22881v2.8448a1.49623,1.49623,0,0,0,1.4902,1.499h22.5658a1.49571,1.49571,0,0,0,1.4893-1.499v-6.5948a1.49529,1.49529,0,0,0-1.4893-1.49889H157.6046a1.49581,1.49581,0,0,0-1.4902,1.49889v2.8452h.22881v-2.8452a1.26649,1.26649,0,0,1,1.2614-1.26869Z" transform="translate(-147.0722 -130.27869)" style="fill:#003915"/><path d="M159.5098,237.7905a.73331.73331,0,1,0-.73-.7336.73151.73151,0,0,0,.73.7336m0-1.2364a.50326.50326,0,1,1-.5004.50281A.50183.50183,0,0,1,159.5098,236.55409Z" transform="translate(-147.0722 -130.27869)" style="fill:#003915"/><rect x="12.32249" y="106.25581" width="0.22929" height="1.0457" style="fill:#003915"/><rect x="11.91829" y="106.66292" width="1.0377" height="0.2307" style="fill:#003915"/><path d="M155.0098,237.51019v.5374a.27993.27993,0,0,1-.2787.28041h-.5051a.28036.28036,0,0,1-.27921-.28041v-.5374H153.718v.5374a.51035.51035,0,0,0,.508.51111h.5051a.50964.50964,0,0,0,.5074-.51111v-.5374Zm-.2787-1.72209a.27986.27986,0,0,1,.2787.28011v.53719h.2287v-.53719a.50918.50918,0,0,0-.5074-.5108h-.5051a.50989.50989,0,0,0-.508.5108v.53719h.22879v-.53719a.28029.28029,0,0,1,.27921-.28011Z" transform="translate(-147.0722 -130.27869)" style="fill:#003915"/><path d="M153.72,237.6256h3.2012a.56766.56766,0,0,0,0-1.1353H153.72a.56766.56766,0,0,0,0,1.1353m3.2012-.90509a.33715.33715,0,0,1,0,.6743H153.72a.33716.33716,0,0,1,0-.6743Z" transform="translate(-147.0722 -130.27869)" style="fill:#003915"/><path d="M236.76241,269.11681h11.76909V280.8857H236.76241Zm11.5197.24939h-11.2706v11.2706h11.2706Z" transform="translate(-147.0722 -130.27869)" style="fill:#003915"/><path d="M242.6468,279.78751a3.91956,3.91956,0,0,0,.9816-7.7142.30008.30008,0,0,0,.0743-.1976v-.0405a4.16846,4.16846,0,1,1-2.1115-.00031v.0408a.29843.29843,0,0,0,.074.1973,3.91973,3.91973,0,0,0,.9816,7.71451" transform="translate(-147.0722 -130.27869)" style="fill:#003915"/><path d="M242.6468,272.3868a3.4815,3.4815,0,1,1-3.4812,3.48181,3.48578,3.48578,0,0,1,3.4812-3.48181m0,6.71361a3.2319,3.2319,0,1,0-3.23181-3.2318A3.23542,3.23542,0,0,0,242.6468,279.1004Z" transform="translate(-147.0722 -130.27869)" style="fill:#003915"/><path d="M242.6468,274.9661a.90225.90225,0,1,1-.90251.90251.90327.90327,0,0,1,.90251-.90251m0,1.5556a.65295.65295,0,1,0-.65311-.65309A.65425.65425,0,0,0,242.6468,276.5217Z" transform="translate(-147.0722 -130.27869)" style="fill:#003915"/><rect x="95.44989" y="144.93262" width="0.2494" height="1.3138" style="fill:#003915"/><rect x="94.9178" y="145.46461" width="1.3136" height="0.2498" style="fill:#003915"/><path d="M241.8931,271.0619h1.5074a.427.427,0,0,1,.42661.42659v.38721a.42679.42679,0,0,1-.42661.42659h-1.5074a.42679.42679,0,0,1-.42659-.42659v-.38721a.427.427,0,0,1,.42659-.42659m1.5074.991a.17773.17773,0,0,0,.17751-.1772v-.38721a.17745.17745,0,0,0-.17751-.17709h-1.5074a.1772.1772,0,0,0-.1772.17709v.38721a.17748.17748,0,0,0,.1772.1772Z" transform="translate(-147.0722 -130.27869)" style="fill:#003915"/><path d="M242.86681,271.1866v-.0864a.2197.2197,0,1,0-.43941,0v.0864h-.24969v-.0864a.4694.4694,0,0,1,.9388,0v.0864Zm-.22,2.59a.22049.22049,0,0,0,.22-.22049V272.1776h.24969v1.37851a.4694.4694,0,1,1-.9388,0V272.1776h.24969v1.37851A.22.22,0,0,0,242.6468,273.7766Z" transform="translate(-147.0722 -130.27869)" style="fill:#003915"/><path d="M265.42709,269.5981h-7.15659a1.49612,1.49612,0,0,0-1.49411,1.49471v8.29869a1.496,1.496,0,0,0,1.49411,1.4942h7.15659a1.49564,1.49564,0,0,0,1.4942-1.4942V271.0928a1.49575,1.49575,0,0,0-1.4942-1.49471m-7.15659,11.0545a1.26256,1.26256,0,0,1-1.26111-1.26111V271.0928a1.26275,1.26275,0,0,1,1.26111-1.2617h7.15659a1.26309,1.26309,0,0,1,1.26181,1.2617v8.29869a1.26291,1.26291,0,0,1-1.26181,1.26111Z" transform="translate(-147.0722 -130.27869)" style="fill:#003915"/><path d="M265.42709,270.417h-7.15659a.6763.6763,0,0,0-.67581.67581v7.0107a.67641.67641,0,0,0,.67581.6757h7.15659a.67645.67645,0,0,0,.67639-.6757v-7.0107a.67635.67635,0,0,0-.67639-.67581m-7.15659,8.12921a.44319.44319,0,0,1-.443-.4427v-7.0107a.44346.44346,0,0,1,.443-.443h7.15659a.44387.44387,0,0,1,.444.443v7.0107a.44361.44361,0,0,1-.444.4427Z" transform="translate(-147.0722 -130.27869)" style="fill:#003915"/><path d="M258.9707,279.19791a.47424.47424,0,1,0,.47418.4742.475.475,0,0,0-.47418-.4742m0,.7155a.24126.24126,0,1,1,.24149-.2413A.24187.24187,0,0,1,258.9707,279.91341Z" transform="translate(-147.0722 -130.27869)" style="fill:#003915"/><path d="M260.57141,279.19791a.47424.47424,0,1,0,.47479.4742.475.475,0,0,0-.47479-.4742m0,.7155a.24126.24126,0,1,1,.24179-.2413A.24163.24163,0,0,1,260.57141,279.91341Z" transform="translate(-147.0722 -130.27869)" style="fill:#003915"/><rect x="111.45169" y="142.28081" width="2.7196" height="0.23271" style="fill:#003915"/><rect x="112.69528" y="141.03661" width="0.23273" height="2.7196" style="fill:#003915"/><path d="M259.8837,271.77879a.8969.8969,0,1,0,.89661.89691.898.898,0,0,0-.89661-.89691m0,1.561a.6643.6643,0,1,1,.66391-.66409A.66555.66555,0,0,1,259.8837,273.3398Z" transform="translate(-147.0722 -130.27869)" style="fill:#003915"/><rect x="111.45169" y="146.12592" width="2.7196" height="0.2325" style="fill:#003915"/><rect x="112.69528" y="144.88152" width="0.23273" height="2.7204" style="fill:#003915"/><path d="M259.8837,275.62309a.8972.8972,0,1,0,.89661.89751.89867.89867,0,0,0-.89661-.89751m0,1.5619a.6647.6647,0,1,1,.66391-.6644A.66542.66542,0,0,1,259.8837,277.185Z" transform="translate(-147.0722 -130.27869)" style="fill:#003915"/><rect x="115.38251" y="142.28081" width="2.7193" height="0.23271" style="fill:#003915"/><rect x="116.6261" y="141.03661" width="0.233" height="2.7196" style="fill:#003915"/><path d="M263.81479,271.77879a.8969.8969,0,1,0,.89691.89691.89783.89783,0,0,0-.89691-.89691m0,1.561a.6643.6643,0,1,1,.66391-.66409A.666.666,0,0,1,263.81479,273.3398Z" transform="translate(-147.0722 -130.27869)" style="fill:#003915"/><rect x="115.38251" y="146.12592" width="2.7193" height="0.2325" style="fill:#003915"/><rect x="116.6261" y="144.88152" width="0.233" height="2.7204" style="fill:#003915"/><path d="M263.81479,275.62309a.8972.8972,0,1,0,.89691.89751.89853.89853,0,0,0-.89691-.89751m0,1.5619a.6647.6647,0,1,1,.66391-.6644A.66592.66592,0,0,1,263.81479,277.185Z" transform="translate(-147.0722 -130.27869)" style="fill:#003915"/><path d="M263.285,279.19791a.47424.47424,0,1,0,.47449.4742.47484.47484,0,0,0-.47449-.4742m0,.7155a.24126.24126,0,1,1,.24179-.2413A.2417.2417,0,0,1,263.285,279.91341Z" transform="translate(-147.0722 -130.27869)" style="fill:#003915"/><path d="M264.8866,279.19791a.47424.47424,0,1,0,.47391.4742.47462.47462,0,0,0-.47391-.4742m0,.7155a.24126.24126,0,1,1,.24152-.2413A.24167.24167,0,0,1,264.8866,279.91341Z" transform="translate(-147.0722 -130.27869)" style="fill:#003915"/><path d="M154.4278,284.7966a.80923.80923,0,1,0,.23471.57089.81019.81019,0,0,0-.23471-.57089m-.5726-1.0363a1.6069,1.6069,0,1,1-1.1364.4705A1.60291,1.60291,0,0,1,153.85519,283.7603Z" transform="translate(-147.0722 -130.27869)" style="fill:#003915"/><path d="M220.35091,269.5298v2.5432h6.9599v-2.5432Zm0-4.3362v2.54329h6.9599V265.1936Zm4.068-4.4416v2.5433h2.89191V260.752Zm-4.068,0v2.5433h2.89189V260.752Zm7.07069,13.15649h-6.99271v2.539h6.99271Zm2.1592-15.74559H217.5809v24.2852h5.5392V277.884h4.5v4.5641h1.96069Z" transform="translate(-147.0722 -130.27869)" style="fill:#003915;fill-rule:evenodd"/><path d="M226.0052,279.0006a.80927.80927,0,1,0,.2347.57091.81023.81023,0,0,0-.2347-.57091m-.5726-1.0363a1.60708,1.60708,0,1,1-1.1364.4705A1.60306,1.60306,0,0,1,225.4326,277.96429Z" transform="translate(-147.0722 -130.27869)" style="fill:#003915"/><path d="M179.7908,261.31529c-.7319,0-1.2359-.618-1.2359-1.7399s.504-1.7399,1.2359-1.7399,1.2359.6179,1.2359,1.7399-.504,1.7399-1.2359,1.7399m0,.396c.972,0,1.67979-.798,1.67979-2.13591s-.70779-2.13589-1.67979-2.13589-1.6739.7979-1.6739,2.13589S178.8188,261.7113,179.7908,261.7113Zm-3.9059-.366c-.744,0-1.182-.324-1.182-.8461,0-.5159.438-.8399,1.182-.8399s1.188.324,1.188.8399C177.07291,261.0213,176.6288,261.34531,175.8849,261.34531Zm-1.038-2.78391c0-.468.402-.756,1.038-.756.6299,0,1.044.288,1.044.762,0,.4561-.39.75-1.044.75S174.84689,259.0235,174.84689,258.5614Zm1.8479.9119a.95106.95106,0,0,0,.6721-.9238c0-.684-.5941-1.11-1.482-1.11s-1.47.426-1.47,1.11a.94765.94765,0,0,0,.6599.9238,1.04829,1.04829,0,0,0-.80991,1.0321c0,.7438.612,1.2059,1.62,1.2059,1.00209,0,1.632-.4621,1.632-1.2059A1.0578,1.0578,0,0,0,176.69479,259.4733Zm-3.40779,1.57811a.31407.31407,0,0,0-.3181.324.30312.30312,0,0,0,.216.3058l-.204.87h.288l.252-.828a.97775.97775,0,0,0,.08409-.34781A.314.314,0,0,0,173.287,261.05141Zm-.8461-.864h-.84v-.972h-.4198v.972H169.357l2.1481-2.7119h-.48019l-2.22571,2.78391v.3118h2.36971v1.1041h.432v-1.1041h.84Z" transform="translate(-147.0722 -130.27869)" style="fill:#83746c;fill-rule:evenodd"/><path d="M183.7925,188.1154c-.7319,0-1.2359-.618-1.2359-1.7399s.504-1.74,1.2359-1.74,1.2359.618,1.2359,1.74-.504,1.7399-1.2359,1.7399m0,.396c.972,0,1.67981-.798,1.67981-2.13589s-.70781-2.136-1.67981-2.136-1.67389.798-1.67389,2.136S182.8205,188.5114,183.7925,188.5114Zm-3.6301-2.4359,1.188-1.49409v-.30591h-2.7v.3839h2.14809l-1.16389,1.4581v.318h.2999c.7798,0,1.13391.33,1.13391.834,0,.5219-.3838.8459-1.08.8459a1.84131,1.84131,0,0,1-1.302-.4859l-.21.3419a2.185,2.185,0,0,0,1.512.54c1.0139,0,1.5239-.54,1.5239-1.2419C181.5123,186.5974,181.06239,186.1235,180.1624,186.0755Zm-2.42979,1.776a.31408.31408,0,0,0-.3181.324.30309.30309,0,0,0,.216.30579l-.20409.87h.288l.252-.828a.97605.97605,0,0,0,.0842-.34779A.314.314,0,0,0,177.73261,187.8515Zm-2.75421-3.576v.3839h.9902v3.816h.432V184.2755Zm-2.16589,0v.3839h.9901v3.816h.432V184.2755Z" transform="translate(-147.0722 -130.27869)" style="fill:#83746c;fill-rule:evenodd"/><path d="M209.7729,275.11549c-.732,0-1.236-.618-1.236-1.74s.504-1.7399,1.236-1.7399,1.2359.618,1.2359,1.7399-.504,1.74-1.2359,1.74m0,.396c.972,0,1.67979-.798,1.67979-2.136s-.70779-2.13591-1.67979-2.13591-1.6739.798-1.6739,2.13591S208.8009,275.51151,209.7729,275.51151Zm-2.07021-1.524h-.8399v-.972h-.4198v.972h-1.8241l2.1481-2.7119h-.48019l-2.2258,2.78389v.3119h2.3698v1.1041h.432v-1.1041h.8399Zm-4.4337.864a.31406.31406,0,0,0-.318.324.30314.30314,0,0,0,.216.30589l-.2041.87h.288l.252-.828a.97651.97651,0,0,0,.0842-.3479A.314.314,0,0,0,203.269,274.8515Zm-3.24.2399,1.4281-1.40379a1.72889,1.72889,0,0,0,.69-1.3141c0-.7019-.54-1.13391-1.39209-1.13391a1.887,1.887,0,0,0-1.4879.5999l.3058.2641a1.4265,1.4265,0,0,1,1.14609-.468c.642,0,.9839.2999.9839.78609,0,.2877-.08989.56981-.5638,1.03781l-1.7462,1.7101v.30589H202.339v-.38409Z" transform="translate(-147.0722 -130.27869)" style="fill:#83746c;fill-rule:evenodd"/><path d="M254.3046,258.6153c-.7319,0-1.2359-.618-1.2359-1.7399s.504-1.7399,1.2359-1.7399,1.2359.6179,1.2359,1.7399-.504,1.7399-1.2359,1.7399m0,.396c.972,0,1.67981-.798,1.67981-2.13591s-.70781-2.13589-1.67981-2.13589-1.67389.7979-1.67389,2.13589S253.3326,259.01131,254.3046,259.01131Zm-3.97189-.396c-.7319,0-1.2359-.618-1.2359-1.7399s.504-1.7399,1.2359-1.7399,1.2359.6179,1.2359,1.7399S251.06461,258.6153,250.3327,258.6153Zm0,.396c.972,0,1.67979-.798,1.67979-2.13591s-.70779-2.13589-1.67979-2.13589-1.6739.7979-1.6739,2.13589S249.3607,259.01131,250.3327,259.01131Zm-2.5498-.65991a.314.314,0,0,0-.318.324.303.303,0,0,0,.216.3058l-.20409.87h.288l.252-.828a.97544.97544,0,0,0,.08411-.34779A.314.314,0,0,0,247.7829,258.35139Zm-3.666-3.5759v1.1698h.426v-.786h2.16l-1.728,3.816h.468l1.758-3.894v-.3058Zm-2.304,0v.3838h.9901v3.816h.432v-4.1998Z" transform="translate(-147.0722 -130.27869)" style="fill:#83746c;fill-rule:evenodd"/><path d="M247.945,150.6153c-.7319,0-1.2359-.618-1.2359-1.7399s.504-1.7399,1.2359-1.7399,1.23589.61789,1.23589,1.7399-.504,1.7399-1.23589,1.7399m0,.396c.972,0,1.67989-.798,1.67989-2.13589s-.70789-2.13589-1.67989-2.13589-1.67381.79791-1.67381,2.13589S246.973,151.01129,247.945,151.01129Zm-4.5-.42011,1.42809-1.40369a1.72917,1.72917,0,0,0,.69-1.31421c0-.70178-.54-1.13379-1.39209-1.13379a1.88727,1.88727,0,0,0-1.4879.59979l.3058.26419a1.42622,1.42622,0,0,1,1.14609-.468c.642,0,.9839.2999.9839.786,0,.28769-.08989.56979-.5638,1.03778l-1.7462,1.71011v.30591H245.755v-.38412Zm-1.55991-.23978a.314.314,0,0,0-.318.324.303.303,0,0,0,.216.30582l-.2041.87h.288l.252-.828a.97624.97624,0,0,0,.0842-.34781A.314.314,0,0,0,241.8851,150.35141Zm-2.2861-1.77591,1.188-1.4942v-.30579h-2.7v.38379h2.1481l-1.16391,1.4581v.31808h.2999c.7798,0,1.1338.32993,1.1338.83392,0,.52188-.3838.84589-1.08.84589a1.841,1.841,0,0,1-1.3019-.4859l-.2101.34192a2.18512,2.18512,0,0,0,1.512.54c1.014,0,1.524-.54,1.524-1.24188C240.9489,149.09729,240.499,148.62341,239.599,148.5755Z" transform="translate(-147.0722 -130.27869)" style="fill:#83746c;fill-rule:evenodd"/><path d="M204.0596,289.2612a3.90785,3.90785,0,1,0-3.9075,3.90781,3.9081,3.9081,0,0,0,3.9075-3.90781" transform="translate(-147.0722 -130.27869)" style="fill:#558e42;fill-rule:evenodd"/><polygon points="53.08 156.579 53.458 157.893 53.836 159.208 53.08 159.208 52.323 159.208 52.701 157.893 53.08 156.579" style="fill:#fdfdfd;fill-rule:evenodd"/><rect x="52.87459" y="159.10521" width="0.38411" height="2.28131" style="fill:#fdfdfd"/><path d="M248.51711,140.06271l.69279-.87131v-.17862h-1.575v.22391h1.2529l-.67891.85071v.18539h.17491c.45529,0,.66159.19241.66159.48639,0,.30441-.22389.4935-.62979.4935a1.074,1.074,0,0,1-.7597-.28348l-.1225.19958a1.27473,1.27473,0,0,0,.8822.31491c.59129,0,.8889-.31491.8889-.72452,0-.392-.2625-.6684-.7874-.69647m-2.1351,1.20758c-.434,0-.68941-.18909-.68941-.4935,0-.30109.2554-.49008.68941-.49008s.6931.189.6931.49008C247.0751,141.08121,246.816,141.27029,246.382,141.27029Zm-.6055-1.624c0-.273.2347-.4411.6055-.4411.36769,0,.60919.16809.60919.44449,0,.2662-.2276.43771-.60919.43771C246.00079,140.0874,245.7765,139.91589,245.7765,139.6463Zm1.07809.5321a.555.555,0,0,0,.392-.53922c0-.3988-.34639-.6474-.86459-.6474-.5179,0-.8575.2486-.8575.6474a.55311.55311,0,0,0,.3853.53922.61093.61093,0,0,0-.47261.60181c0,.434.3569.70349.94481.70349.5845,0,.95219-.2695.95219-.70349A.61686.61686,0,0,0,246.8546,140.17841Zm-1.988.92038a.18318.18318,0,0,0-.18539.18912.17674.17674,0,0,0,.1259.17828l-.11909.5076h.16809l.14711-.483a.574.574,0,0,0,.0491-.20291A.18323.18323,0,0,0,244.86659,141.09879Zm-1.89009.14.8331-.81891a1.00772,1.00772,0,0,0,.4025-.76648c0-.40961-.3149-.66162-.8121-.66162a1.101,1.101,0,0,0-.868.3501l.1786.1539a.832.832,0,0,1,.6684-.273c.3744,0,.574.1749.574.4584,0,.16809-.0524.33249-.3288.6055l-1.01851.9975v.17859h1.7184v-.224Z" transform="translate(-147.0722 -130.27869)" style="fill:#434242"/><path d="M182.5968,149.09479h-.4901v-.567h-.2449v.567h-1.0641l1.2529-1.58209h-.2798l-1.29849,1.624v.182h1.3824v.644h.252v-.644h.4901Zm-3.38451.67551c-.434,0-.68939-.18909-.68939-.49359,0-.301.2554-.49011.68939-.49011s.693.18912.693.49011C179.9053,149.58121,179.64619,149.77029,179.2123,149.77029Zm-.6055-1.624c0-.273.23471-.4411.6055-.4411.3676,0,.6091.16809.6091.44449,0,.2662-.2276.43771-.6091.43771C178.831,148.5874,178.6068,148.41589,178.6068,148.1463Zm1.078.532a.55482.55482,0,0,0,.392-.53912c0-.3988-.34641-.6474-.8645-.6474-.5179,0-.8575.2486-.8575.6474a.55284.55284,0,0,0,.38521.53912.611.611,0,0,0-.4725.60178c0,.434.3568.70361.94479.70361.5845,0,.9521-.26959.9521-.70361A.6169.6169,0,0,0,179.6848,148.67831Zm-1.9879.92047a.18315.18315,0,0,0-.18539.189.17661.17661,0,0,0,.12579.17828l-.119.50769h.16811l.14709-.483a.57549.57549,0,0,0,.049-.203A.18319.18319,0,0,0,177.6969,149.59879Zm-1.8902.14.8331-.81891a1.00785,1.00785,0,0,0,.4025-.76648c0-.40961-.3149-.66162-.8121-.66162a1.10125,1.10125,0,0,0-.868.35l.1786.154a.83213.83213,0,0,1,.6684-.273c.3745,0,.574.1749.574.4584,0,.168-.0524.33249-.3288.60538l-1.01851.9975v.17862h1.7184v-.22391Z" transform="translate(-147.0722 -130.27869)" style="fill:#434242"/><path d="M176.3589,249.77319c-.4269,0-.7211-.3606-.7211-1.01489,0-.6545.2942-1.015.7211-1.015s.72079.3605.72079,1.015c0,.6543-.2939,1.01489-.72079,1.01489m0,.231c.56689,0,.9799-.4655.9799-1.2459,0-.78059-.413-1.24609-.9799-1.24609s-.9765.4655-.9765,1.24609C175.3824,249.5387,175.792,250.0042,176.3589,250.0042Zm-2.2785-.2135c-.434,0-.68939-.189-.68939-.4935,0-.301.25539-.4901.68939-.4901s.6931.1891.6931.4901C174.7735,249.6017,174.5144,249.7907,174.0804,249.7907Zm-.6055-1.6239c0-.273.2347-.4411.6055-.4411.36771,0,.60921.16811.60921.4445,0,.2661-.2276.43761-.60921.43761C173.6991,248.6078,173.4749,248.43629,173.4749,248.16679Zm1.078.532a.555.555,0,0,0,.39211-.53911c0-.3989-.3464-.64749-.86461-.64749-.5179,0-.8575.2486-.8575.64749a.553.553,0,0,0,.3853.53911.611.611,0,0,0-.4726.60179c0,.434.35689.7036.94479.7036.5845,0,.95219-.26959.95219-.7036A.61683.61683,0,0,0,174.5529,248.69881Zm-1.9879.92039a.18318.18318,0,0,0-.18541.1891.17677.17677,0,0,0,.1259.1783l-.11909.50769h.16811l.14709-.483a.5745.5745,0,0,0,.0491-.203A.18321.18321,0,0,0,172.565,249.6192Zm-1.6064-2.086v.224h.57739v2.226h.252v-2.45Z" transform="translate(-147.0722 -130.27869)" style="fill:#434242"/><path d="M254.3264,265.0406c-.42351,0-.64771-.2554-.64771-.525a.56724.56724,0,0,1,.63011-.53549c.3779,0,.616.20639.616.5284a.53613.53613,0,0,1-.5984.5321m.021-1.27391a.78345.78345,0,0,0-.74919.4198c-.00681-.07339-.0105-.14349-.0105-.1996,0-.66469.3396-1.00429.868-1.00429a.861.861,0,0,1,.4762.11539l.1015-.203a1.126,1.126,0,0,0-.5811-.1329c-.6651,0-1.12.4339-1.12,1.26711,0,.77319.3535,1.22479,1.00459,1.22479a.76339.76339,0,0,0,.8365-.75259A.74169.74169,0,0,0,254.3474,263.76669Zm-2.429-.98369v.224h.57741v2.226h.252v-2.45Zm-.3569,2.08609a.18315.18315,0,0,0-.18539.189.17658.17658,0,0,0,.1259.1783l-.11909.50769h.16809l.14711-.483a.57322.57322,0,0,0,.049-.203A.18317.18317,0,0,0,251.56149,264.86909Zm-1.8902.14.8331-.81889a1.00808,1.00808,0,0,0,.4026-.76649c0-.40961-.315-.66161-.81219-.66161a1.101,1.101,0,0,0-.8679.35l.1785.154a.83239.83239,0,0,1,.6685-.273c.3744,0,.574.1749.574.45839,0,.168-.05251.3325-.3288.60541l-1.01851.9975v.1786h1.71831v-.22391Z" transform="translate(-147.0722 -130.27869)" style="fill:#434242"/><path d="M247.1913,176.0029c-.4269,0-.7211-.3606-.7211-1.0148,0-.6545.2942-1.01511.7211-1.01511s.7209.36061.7209,1.01511c0,.65421-.294,1.0148-.7209,1.0148m0,.231c.56689,0,.9799-.46541.9799-1.2458,0-.78059-.413-1.24609-.9799-1.24609s-.9765.4655-.9765,1.24609C246.2148,175.76849,246.6244,176.2339,247.1913,176.2339Zm-2.3904-2.4709v.22389h.57739v2.2261h.252v-2.45Zm-.3569,2.086a.18317.18317,0,0,0-.18539.1891.17668.17668,0,0,0,.12579.1783l-.119.5076h.16811l.14709-.483a.57333.57333,0,0,0,.049-.2029A.18318.18318,0,0,0,244.444,175.849Zm-1.3334-1.0361.6927-.87129v-.1786h-1.57491v.22389h1.2529l-.67889.85071v.18539h.1749c.45531,0,.66161.1925.66161.4864,0,.3044-.22391.4935-.62981.4935a1.0743,1.0743,0,0,1-.75969-.2834l-.1225.19951a1.27472,1.27472,0,0,0,.88219.3149c.59131,0,.8889-.3149.8889-.7245C243.898,175.1174,243.6355,174.841,243.1106,174.8129Z" transform="translate(-147.0722 -130.27869)" style="fill:#434242"/><path d="M205.7261,282.52071c-.434,0-.68941-.1891-.68941-.4935,0-.3011.2554-.49011.68941-.49011s.6931.189.6931.49011c0,.3044-.25911.4935-.6931.4935m-.6055-1.624c0-.273.2347-.4411.6055-.4411.36769,0,.60919.16811.60919.4445,0,.2662-.2276.4377-.60919.4377C205.34489,281.3378,205.12061,281.16631,205.12061,280.8967Zm1.078.5321a.55507.55507,0,0,0,.39211-.5392c0-.3988-.34641-.6474-.86459-.6474-.5179,0-.8575.2486-.8575.6474a.55309.55309,0,0,0,.3853.5392.61093.61093,0,0,0-.47261.60179c0,.434.3569.70351.94481.70351.58449,0,.95219-.2695.95219-.70351A.61684.61684,0,0,0,206.19859,281.4288Zm-2.5443-.11571.69281-.87129v-.1786h-1.575v.22391h1.2529l-.67889.85069v.18539h.1749c.45531,0,.66161.19241.66161.4864,0,.3044-.22391.4935-.62981.4935a1.07434,1.07434,0,0,1-.75969-.28349l-.12251.1996a1.27479,1.27479,0,0,0,.8822.3149c.59131,0,.8889-.3149.8889-.7245C204.4417,281.6176,204.1792,281.3412,203.6543,281.3131Zm-1.4176,1.0361a.18318.18318,0,0,0-.18539.1891.17677.17677,0,0,0,.12579.1783l-.119.5076h.16809l.14711-.483a.57333.57333,0,0,0,.049-.2029A.1832.1832,0,0,0,202.23669,282.3492Zm-1.6064-2.086v.22391h.57741v2.22609h.252v-2.45Z" transform="translate(-147.0722 -130.27869)" style="fill:#434242"/><line x1="94.2162" y1="10.02411" x2="70.05569" y2="10.02411" style="fill:none;stroke:#b1b2b2;stroke-miterlimit:22.92558479309082;stroke-width:0.2160000056028366px"/><line x1="27.21599" y1="18.52411" x2="5.2702" y2="18.52411" style="fill:none;stroke:#b1b2b2;stroke-miterlimit:22.92558479309082;stroke-width:0.2160000056028366px"/><line x1="22.46599" y1="118.54462" x2="5.6633" y2="118.54462" style="fill:none;stroke:#b1b2b2;stroke-miterlimit:22.92558479309082;stroke-width:0.2160000056028366px"/><line x1="100.4664" y1="133.79442" x2="83.4534" y2="133.79442" style="fill:none;stroke:#b1b2b2;stroke-miterlimit:22.92558479309082;stroke-width:0.2160000056028366px"/><line x1="93.4662" y1="44.77431" x2="64.4978" y2="44.77431" style="fill:none;stroke:#b1b2b2;stroke-miterlimit:22.92558479309082;stroke-width:0.2160000056028366px"/><line x1="51.96609" y1="151.27451" x2="45.2177" y2="151.27451" style="fill:none;stroke:#b1b2b2;stroke-miterlimit:22.92558479309082;stroke-width:0.2160000056028366px"/><line x1="126.3186" y1="10.02411" x2="103.65529" y2="10.02411" style="fill:none;stroke:#b1b2b2;stroke-miterlimit:22.92558479309082;stroke-width:0.2160000056028366px"/><line x1="61.8956" y1="18.52411" x2="36.65509" y2="18.52411" style="fill:none;stroke:#b1b2b2;stroke-miterlimit:22.92558479309082;stroke-width:0.2160000056028366px"/><line x1="40.763" y1="118.54462" x2="31.90509" y2="118.54462" style="fill:none;stroke:#b1b2b2;stroke-miterlimit:22.92558479309082;stroke-width:0.2160000056028366px"/><line x1="125.90109" y1="133.79442" x2="109.9054" y2="133.79442" style="fill:none;stroke:#b1b2b2;stroke-miterlimit:22.92558479309082;stroke-width:0.2160000056028366px"/><line x1="126.3186" y1="44.77431" x2="102.90529" y2="44.77431" style="fill:none;stroke:#b1b2b2;stroke-miterlimit:22.92558479309082;stroke-width:0.2160000056028366px"/><line x1="68.1537" y1="151.27451" x2="61.4052" y2="151.27451" style="fill:none;stroke:#b1b2b2;stroke-miterlimit:22.92558479309082;stroke-width:0.2160000056028366px"/><path d="M154.254,183.1366h.224v-.57739h2.226v-.252h-2.45Zm2.24,1.18291c0,.4269-.3606.7211-1.0148.7211-.6545,0-1.01511-.2942-1.01511-.7211s.36061-.7209,1.01511-.7209C156.13341,183.5986,156.494,183.89259,156.494,184.3195Zm.231,0c0-.56691-.46541-.98-1.2458-.98-.7807,0-1.24611.4131-1.24611.98s.46541.9765,1.24611.9765C156.2596,185.296,156.725,184.8864,156.725,184.3195Zm-.3849,1.48759a.18313.18313,0,0,0,.189.18539.17667.17667,0,0,0,.1783-.1259l.50771.11911v-.16811l-.483-.14709a.57393.57393,0,0,0-.203-.0491A.18318.18318,0,0,0,156.3401,185.8071Zm-.504.49319v.49011h-.567v.245h.567v1.0641l-1.58211-1.2529v.27969l1.624,1.2986h.182V187.0424h.644v-.252h-.644v-.49011Z" transform="translate(-147.0722 -130.27869)" style="fill:#434242"/><path d="M270.2619,146.761c0,.42352-.2554.64771-.525.64771a.56722.56722,0,0,1-.5354-.6301c0-.3779.2063-.616.52838-.616a.53605.53605,0,0,1,.532.59839m-1.2739-.021a.78364.78364,0,0,0,.4198.74921c-.07339.00681-.1434.0105-.19949.0105-.6647,0-1.0043-.3396-1.0043-.868a.86109.86109,0,0,1,.1153-.47623l-.20291-.1015a1.126,1.126,0,0,0-.133.58112c0,.665.434,1.12,1.26709,1.12.77332,0,1.22491-.35349,1.22491-1.00461a.76339.76339,0,0,0-.75259-.83649A.74175.74175,0,0,0,268.988,146.74Zm-.98361,2.429h.22391v-.57739h2.2261v-.252h-2.45Zm2.086.3569a.18318.18318,0,0,0,.18912.18539.17662.17662,0,0,0,.17828-.12592l.50772.11911v-.16809l-.483-.14709a.57424.57424,0,0,0-.203-.0491A.1832.1832,0,0,0,270.09039,149.52591Zm-2.086,1.60638h.22391v-.57739h2.2261v-.252h-2.45Z" transform="translate(-147.0722 -130.27869)" style="fill:#434242"/><path d="M270.24429,223.5771c0,.4269-.3605.7211-1.0148.7211-.65448,0-1.015-.2942-1.015-.7211s.3605-.7209,1.015-.7209c.6543,0,1.0148.294,1.0148.7209m.23111,0c0-.567-.46552-.98-1.24591-.98-.78058,0-1.24609.413-1.24609.98s.46552.9765,1.24609.9765C270.00989,224.5536,270.4754,224.144,270.4754,223.5771Zm-.2135,2.1138c0,.4234-.2554.64769-.525.64769a.56724.56724,0,0,1-.5354-.63019c0-.37781.2063-.61591.52838-.61591A.53606.53606,0,0,1,270.2619,225.6909Zm-1.2739-.021a.7837.7837,0,0,0,.4198.74919c-.07339.00681-.1434.0105-.19949.0105-.6647,0-1.0043-.3396-1.0043-.868a.86051.86051,0,0,1,.1153-.4762l-.20291-.1015a1.12587,1.12587,0,0,0-.133.5811c0,.665.434,1.12,1.26709,1.12.77332,0,1.22491-.3535,1.22491-1.00459a.76334.76334,0,0,0-.75259-.8365A.74175.74175,0,0,0,268.988,225.66991Zm1.10239,1.52609a.18317.18317,0,0,0,.18912.18539.17666.17666,0,0,0,.17828-.12579l.50772.119v-.16811l-.483-.14709a.576.576,0,0,0-.203-.049A.18318.18318,0,0,0,270.09039,227.196Zm-1.08139,1.5293v.315l-.7807-.08389v-1.12h-.22391v1.3405l1.22852.1259v-.5213c0-.62309.19589-.8192.51108-.8192.29742,0,.50031.2205.50031.63721a1.06139,1.06139,0,0,1-.28339.7523l.19949.1225a1.26454,1.26454,0,0,0,.315-.87851c0-.59839-.32541-.8889-.74191-.8889C269.29929,227.70689,269.009,227.98689,269.009,228.7253Z" transform="translate(-147.0722 -130.27869)" style="fill:#434242"/><path d="M184.5862,256.4286v.4901h-.567v.2449h.567v1.06419l-1.582-1.2529v.27969l1.6239,1.2986h.182V257.1707h.644v-.252h-.644v-.4901Zm-.3291,3.4231c0,.3779-.20639.616-.5284.616a.53638.53638,0,0,1-.5321-.59869c0-.42351.25571-.6474.525-.6474A.56712.56712,0,0,1,184.2571,259.8517Zm-1.2739.0278a.76318.76318,0,0,0,.75259.8365.74154.74154,0,0,0,.73471-.826.78252.78252,0,0,0-.4198-.7489c.07339-.0071.1434-.0105.1996-.0105.665,0,1.00429.3396,1.00429.868a.85909.85909,0,0,1-.11539.47591l.203.1015a1.12391,1.12391,0,0,0,.1329-.58081c0-.665-.434-1.12-1.26711-1.12C183.43469,258.8752,182.9832,259.2287,182.9832,259.8795Zm2.107,1.3127a.18314.18314,0,0,0,.189.18539.17662.17662,0,0,0,.1783-.12579l.50769.119v-.16811l-.483-.14709a.57332.57332,0,0,0-.203-.049A.18317.18317,0,0,0,185.09019,261.1922Zm.14,1.8902-.81889-.8331a1.00775,1.00775,0,0,0-.76649-.4025c-.40961,0-.66161.3149-.66161.8121a1.10115,1.10115,0,0,0,.3501.868l.1539-.1786a.83214.83214,0,0,1-.273-.6684c0-.3745.1749-.5741.4584-.5741.16809,0,.33249.05249.60539.32889l.9976,1.01851h.1785v-1.7184h-.22391Z" transform="translate(-147.0722 -130.27869)" style="fill:#434242"/><line x1="122.22229" y1="22.89032" x2="122.22229" y2="29.6387" style="fill:none;stroke:#b1b2b2;stroke-miterlimit:22.92558479309082;stroke-width:0.2160000056028366px"/><line x1="122.22229" y1="100.39041" x2="122.22229" y2="151.27371" style="fill:none;stroke:#b1b2b2;stroke-miterlimit:22.92558479309082;stroke-width:0.2160000056028366px"/><line x1="37.222" y1="134.39021" x2="37.222" y2="157.08211" style="fill:none;stroke:#b1b2b2;stroke-miterlimit:22.92558479309082;stroke-width:0.2160000056028366px"/><line x1="8.47189" y1="13.98782" x2="8.47189" y2="50.20131" style="fill:none;stroke:#b1b2b2;stroke-miterlimit:22.92558479309082;stroke-width:0.2160000056028366px"/><line x1="8.47189" y1="59.98792" x2="8.47189" y2="93.39792" style="fill:none;stroke:#b1b2b2;stroke-miterlimit:22.92558479309082;stroke-width:0.2160000056028366px"/><line x1="122.22229" y1="6.70282" x2="122.22229" y2="13.4512" style="fill:none;stroke:#b1b2b2;stroke-miterlimit:22.92558479309082;stroke-width:0.2160000056028366px"/><line x1="122.22229" y1="39.36211" x2="122.22229" y2="90.95131" style="fill:none;stroke:#b1b2b2;stroke-miterlimit:22.92558479309082;stroke-width:0.2160000056028366px"/><line x1="37.222" y1="99.64091" x2="37.222" y2="124.95111" style="fill:none;stroke:#b1b2b2;stroke-miterlimit:22.92558479309082;stroke-width:0.2160000056028366px"/></svg>