<svg id="Слой_1" data-name="Слой 1" xmlns="http://www.w3.org/2000/svg" viewBox="0 0 200.2915 163.673"><title>1.05.15</title><polygon points="0 3.598 61.034 3.598 61.034 6.217 200.292 6.217 200.292 163.161 59.465 163.161 59.465 154.911 0 154.911 0 3.598" style="fill:#fff;fill-rule:evenodd"/><path d="M254.757,276.0123v2.5433h-6.9599v-2.5433Zm0-4.33611v2.54321h-6.9599v-2.54321Zm-4.068-4.44159v2.5432H247.7971v-2.5432Zm4.068,0v2.5432H251.8651v-2.5432Zm-6.9599,12.9597h6.9599v2.484h-6.9599Zm-1.3201-14.097h9.58141V284.1259H246.477Z" transform="translate(-112.4527 -130.76199)" style="fill:#003915;fill-rule:evenodd"/><path d="M223.00191,213.45911a.37405.37405,0,1,1,.37469-.64751l13.9201,8.0399a.374.374,0,0,1-.37471.64749Z" transform="translate(-112.4527 -130.76199)" style="fill:#003915"/><path d="M261.42429,213.2731a.374.374,0,1,0-.37469-.6474l-13.92009,8.0399a.374.374,0,1,0,.3748.6474Z" transform="translate(-112.4527 -130.76199)" style="fill:#003915"/><path d="M276.02219,245.18021a.374.374,0,1,1-.37469.6474l-13.9201-8.0399a.374.374,0,1,1,.37473-.6474Z" transform="translate(-112.4527 -130.76199)" style="fill:#003915"/><path d="M171.375,165.55411a.374.374,0,1,0-.37469-.6474l-13.92011,8.03989a.374.374,0,1,0,.37469.6474Z" transform="translate(-112.4527 -130.76199)" style="fill:#003915"/><path d="M215.40331,272.9277a.374.374,0,0,0,.6474-.3748l-8.0399-13.9201a.374.374,0,0,0-.6474.3748Z" transform="translate(-112.4527 -130.76199)" style="fill:#003915"/><rect x="66.57251" y="28.3558" width="2.60219" height="63.6843" style="fill:#003915"/><rect x="130.4532" y="12.2204" width="2.6022" height="79.8197" style="fill:#003915"/><rect x="165.1748" y="89.43791" width="2.6022" height="25.33429" style="fill:#003915"/><rect x="102.97701" y="113.6851" width="2.6022" height="12.27071" style="fill:#003915"/><rect x="102.97701" y="141.7048" width="2.6022" height="16.81511" style="fill:#003915"/><rect x="132.175" y="115.08011" width="2.6022" height="43.4398" style="fill:#003915"/><rect x="66.57251" y="89.43791" width="40.00449" height="2.60219" style="fill:#003915"/><rect x="124.6039" y="89.43791" width="10.4306" height="2.60219" style="fill:#003915"/><rect x="102.97701" y="113.6851" width="44.7599" height="2.6022" style="fill:#003915"/><rect x="163.44559" y="113.6851" width="35.28403" height="2.6022" style="fill:#003915"/><rect x="194.2894" y="113.6851" width="6.00211" height="4.63499" style="fill:#003915"/><rect x="166.2533" y="110.5914" width="32.47632" height="2.6022" style="fill:#003915"/><rect x="152.78821" y="89.43791" width="14.9888" height="2.60219" style="fill:#003915"/><rect x="61.4948" y="113.6851" width="2.6022" height="18.8652" style="fill:#003915"/><rect width="5.002" height="157.32001" style="fill:#003915"/><rect x="195.28949" y="9.63782" width="5.00201" height="151.58209" style="fill:#003915"/><rect y="150.96581" width="64.097" height="6.4256" style="fill:#003915"/><rect x="58.0439" y="156.77431" width="18.8932" height="6.4256" style="fill:#003915"/><rect x="97.0619" y="156.77431" width="103.2296" height="6.4256" style="fill:#003915"/><rect y="30.8942" width="2.6796" height="8.16011" style="fill:#003915"/><rect x="2.2218" y="30.8942" width="27.66071" height="8.16011" style="fill:#003915"/><rect x="58.67261" y="30.8942" width="10.50209" height="8.16011" style="fill:#003915"/><rect x="65.72321" y="5.5199" width="19.13269" height="8.1601" style="fill:#003915"/><rect x="113.65961" y="5.5199" width="34.90561" height="8.1601" style="fill:#003915"/><rect x="177.19141" y="5.5199" width="23.1001" height="8.1601" style="fill:#003915"/><rect x="62.47701" y="113.6851" width="8.1601" height="12.7843" style="fill:#003915"/><rect x="126.6171" y="113.6851" width="8.16011" height="12.7843" style="fill:#003915"/><rect x="61.0146" width="8.1601" height="39.05431" style="fill:#003915"/><rect x="61.0146" width="10.62199" height="13.67999" style="fill:#003915"/><rect x="98.7168" y="8.52182" width="0.50171" height="2.29858" style="fill:#003915"/><rect x="99.9156" y="8.52182" width="0.5011" height="2.29858" style="fill:#003915"/><rect x="112.5527" y="8.52182" width="0.5014" height="2.29858" style="fill:#003915"/><rect x="113.75121" y="8.52182" width="0.5011" height="2.29858" style="fill:#003915"/><rect x="84.6051" y="8.52182" width="0.50169" height="2.29858" style="fill:#003915"/><rect x="85.8036" y="8.52182" width="0.5011" height="2.29858" style="fill:#003915"/><rect x="82.2155" y="5.5199" width="34.0937" height="0.5014" style="fill:#003915"/><rect x="82.2155" y="8.367" width="34.0937" height="0.5014" style="fill:#003915"/><rect x="82.2155" y="10.5383" width="34.0937" height="0.5015" style="fill:#003915"/><rect x="82.2155" y="13.17941" width="34.0937" height="0.5014" style="fill:#003915"/><rect x="162.17511" y="8.52182" width="0.5018" height="2.29858" style="fill:#003915"/><rect x="163.3739" y="8.52182" width="0.50119" height="2.29858" style="fill:#003915"/><rect x="176.01102" y="8.52182" width="0.5015" height="2.29858" style="fill:#003915"/><rect x="177.2095" y="8.52182" width="0.50119" height="2.29858" style="fill:#003915"/><rect x="148.06342" y="8.52182" width="0.5018" height="2.29858" style="fill:#003915"/><rect x="149.2619" y="8.52182" width="0.50119" height="2.29858" style="fill:#003915"/><rect x="145.6738" y="5.5199" width="34.09372" height="0.5014" style="fill:#003915"/><rect x="145.6738" y="8.367" width="34.09372" height="0.5014" style="fill:#003915"/><rect x="145.6738" y="10.5383" width="34.09372" height="0.5015" style="fill:#003915"/><rect x="145.6738" y="13.17941" width="34.09372" height="0.5014" style="fill:#003915"/><path d="M151.9968,165.00391v1.66989h.6971v-1.66989Zm-13.56909,0v1.66989h13.0677v-1.66989Zm-1.1983,0v1.66989h.6971v-1.66989Zm-.50169,1.66989v-1.66989h-5.7895v-.5014h21.75569v-2.3457H130.9382v-.5014H153.195v8.1609H130.9382v-.5014h21.75569v-2.1396H134.642v-.5015Z" transform="translate(-112.4527 -130.76199)" style="fill:#003915;fill-rule:evenodd"/><rect y="3.84012" width="0.3503" height="1.29709" style="fill:#003915"/><rect y="2.61072" width="2.4171" height="0.44669" style="fill:#003915"/><rect y="3.702" width="2.4171" height="0.44681" style="fill:#003915"/><rect y="4.7829" width="2.4171" height="0.44672" style="fill:#003915"/><rect x="22.48351" y="3.84012" width="0.44699" height="1.29709" style="fill:#003915"/><rect x="23.55161" y="3.84012" width="0.44679" height="1.29709" style="fill:#003915"/><rect x="41.0856" y="3.84012" width="0.44701" height="1.29709" style="fill:#003915"/><rect x="42.1537" y="3.84012" width="0.4467" height="1.29709" style="fill:#003915"/><rect x="59.688" y="3.84012" width="0.44701" height="1.29709" style="fill:#003915"/><rect x="60.7561" y="3.84012" width="0.4467" height="1.29709" style="fill:#003915"/><rect x="3.8812" y="3.84012" width="0.447" height="1.29709" style="fill:#003915"/><rect x="4.9493" y="3.84012" width="0.4467" height="1.29709" style="fill:#003915"/><rect x="2.4482" y="2.61072" width="60.8213" height="0.44669" style="fill:#003915"/><rect x="2.4482" y="3.702" width="60.8213" height="0.44681" style="fill:#003915"/><rect x="2.4482" y="4.7829" width="60.8213" height="0.44672" style="fill:#003915"/><path d="M288.559,287.3152h-9.8223a.90529.90529,0,0,1-.9054-.904V281.801a4.59562,4.59562,0,0,1,4.5896-4.591h2.45221a4.59567,4.59567,0,0,1,4.59039,4.591v4.6102a.90471.90471,0,0,1-.90451.904m-6.13809-9.8606a4.351,4.351,0,0,0-4.345,4.34639v4.6102a.66146.66146,0,0,0,.6608.65991h9.8223a.66068.66068,0,0,0,.65991-.65991V281.801a4.3514,4.3514,0,0,0-4.34579-4.34639Z" transform="translate(-112.4527 -130.76199)" style="fill:#003915"/><path d="M282.42111,278.5448a3.25871,3.25871,0,0,0-3.25443,3.2562v2.68811a.56785.56785,0,0,0,.5672.56749h3.57532v.24521h-3.57532a.81409.81409,0,0,1-.81238-.8127V281.801a3.50406,3.50406,0,0,1,3.4996-3.50079h2.4523a3.5047,3.5047,0,0,1,3.50079,3.50079v2.68811a.81456.81456,0,0,1-.8136.8127h-3.57532v-.24521h3.57532a.56836.56836,0,0,0,.56839-.56749V281.801a3.25933,3.25933,0,0,0-3.25558-3.2562Z" transform="translate(-112.4527 -130.76199)" style="fill:#003915"/><path d="M283.648,282.1485a.7835.7835,0,1,1,.78369-.78349.78481.78481,0,0,1-.78369.78349m0-1.3224a.53875.53875,0,1,0,.53909.53891A.53971.53971,0,0,0,283.648,280.8261Z" transform="translate(-112.4527 -130.76199)" style="fill:#003915"/><rect x="171.07281" y="150.0451" width="0.24487" height="1.11661" style="fill:#003915"/><rect x="170.63681" y="150.4805" width="1.116" height="0.24551" style="fill:#003915"/><path d="M283.98529,286.1329h.40359a.17375.17375,0,0,0,.173-.1741v-.3793a.17365.17365,0,0,0-.173-.174h-.40359v-.2449h.40359a.41875.41875,0,0,1,.41821.4189v.3793a.41871.41871,0,0,1-.41821.4187h-.40558l.002-.0374Zm-1.07718-.7274a.17438.17438,0,0,0-.174.174v.3793a.17447.17447,0,0,0,.174.1741h.40109v.2072l.00229.0374h-.40338a.41862.41862,0,0,1-.4187-.4187v-.3793a.41866.41866,0,0,1,.4187-.4189h.40109v.2449Z" transform="translate(-112.4527 -130.76199)" style="fill:#003915"/><path d="M283.648,286.8004a.461.461,0,0,1-.46121-.4603v-3.0804a.46045.46045,0,0,1,.9209,0v3.0804a.46051.46051,0,0,1-.45969.4603m0-3.7567a.2167.2167,0,0,0-.21631.216v3.0804a.21555.21555,0,0,0,.43109,0v-3.0804A.216.216,0,0,0,283.648,283.0437Z" transform="translate(-112.4527 -130.76199)" style="fill:#003915"/><path d="M244.48959,268.4971v-9.8223a.90527.90527,0,0,0-.904-.90541h-4.6102a4.59569,4.59569,0,0,0-4.591,4.5896v2.45221a4.59569,4.59569,0,0,0,4.591,4.5905h4.6102a.90479.90479,0,0,0,.904-.9046M234.629,262.359a4.351,4.351,0,0,1,4.34641-4.345h4.6102a.66146.66146,0,0,1,.6599.66081v9.8223a.66067.66067,0,0,1-.6599.6599h-4.6102a4.35134,4.35134,0,0,1-4.34641-4.34579Z" transform="translate(-112.4527 -130.76199)" style="fill:#003915"/><path d="M235.71919,262.3593a3.25873,3.25873,0,0,1,3.25621-3.2545h2.6881a.56792.56792,0,0,1,.5675.5672v3.57541h.24519V259.672a.814.814,0,0,0-.8127-.81239h-2.6881a3.50408,3.50408,0,0,0-3.50081,3.49969v2.45219a3.50471,3.50471,0,0,0,3.50081,3.50081h2.6881a.81446.81446,0,0,0,.8127-.81351V263.9234H242.231v3.57539a.56827.56827,0,0,1-.5675.5683h-2.6881a3.25934,3.25934,0,0,1-3.25621-3.2556Z" transform="translate(-112.4527 -130.76199)" style="fill:#003915"/><path d="M239.32291,263.58611a.7835.7835,0,1,0-.78351.7838.78482.78482,0,0,0,.78351-.7838m-1.3224,0a.53875.53875,0,1,1,.53889.53909A.53971.53971,0,0,1,238.0005,263.58611Z" transform="translate(-112.4527 -130.76199)" style="fill:#003915"/><rect x="125.52881" y="132.7016" width="1.11659" height="0.24501" style="fill:#003915"/><rect x="125.9642" y="132.2657" width="0.2455" height="1.116" style="fill:#003915"/><path d="M243.3073,263.9234v.4037a.17372.17372,0,0,1-.1741.1729h-.3792a.17366.17366,0,0,1-.1741-.1729v-.4037H242.335v.4037a.41874.41874,0,0,0,.419.41809h.3792a.41867.41867,0,0,0,.4187-.41809v-.4057l-.0374.002Zm-.7274-1.0771a.17443.17443,0,0,1,.1741-.1741h.3792a.17449.17449,0,0,1,.1741.1741v.40111h.2072l.0374.0022v-.40331a.41856.41856,0,0,0-.4187-.4187h-.3792a.41862.41862,0,0,0-.419.4187v.40111h.24489Z" transform="translate(-112.4527 -130.76199)" style="fill:#003915"/><path d="M243.97479,263.58611a.461.461,0,0,0-.4603-.46121h-3.0804a.4605.4605,0,0,0,0,.921h3.0804a.46053.46053,0,0,0,.4603-.45979m-3.7567,0a.21677.21677,0,0,1,.216-.21631h3.0804a.2156.2156,0,0,1,0,.4312h-3.0804A.21608.21608,0,0,1,240.21809,263.58611Z" transform="translate(-112.4527 -130.76199)" style="fill:#003915"/><path d="M262.84052,273.316a3.91692,3.91692,0,0,0-3.91153,3.913v5.6653a.67727.67727,0,0,0,.45612.63919,1.24348,1.24348,0,0,0-.20349.20491.94567.94567,0,0,1-.52161-.8441V277.229a4.1808,4.1808,0,1,1,8.3616,0v5.6653a.94542.94542,0,0,1-.521.8436,1.23758,1.23758,0,0,0-.20322-.2047.67638.67638,0,0,0,.45551-.6389V277.229a3.91711,3.91711,0,0,0-3.91238-3.913" transform="translate(-112.4527 -130.76199)" style="fill:#003915"/><path d="M265.64429,281.8134H260.0354a.20393.20393,0,0,1-.20129-.20151V277.3412a3.00655,3.00655,0,1,1,6.01309,0v4.27069a.20458.20458,0,0,1-.20291.20151m-5.54147-.2681h5.476v-4.2041a2.738,2.738,0,0,0-5.476,0Z" transform="translate(-112.4527 -130.76199)" style="fill:#003915"/><path d="M262.8403,279.0825a1.0081,1.0081,0,1,1,1.00879-1.008,1.01,1.01,0,0,1-1.00879,1.008m0-1.7475a.7394.7394,0,1,0,.73981.73949A.74028.74028,0,0,0,262.8403,277.335Z" transform="translate(-112.4527 -130.76199)" style="fill:#003915"/><rect x="260.09771" y="280.02443" width="2.24223" height="0.26853" transform="translate(-231.9869 191.24524) rotate(-53.27585)" style="fill:#003915"/><rect x="264.28359" y="279.03697" width="0.26911" height="2.24306" transform="translate(-227.5932 83.51044) rotate(-36.80799)" style="fill:#003915"/><path d="M265.54111,287.3152h-5.4006a1.355,1.355,0,0,1-1.35242-1.35381v-1.47429a1.35345,1.35345,0,0,1,1.35242-1.3524h5.4006a1.35313,1.35313,0,0,1,1.35181,1.3524v1.47429a1.35472,1.35472,0,0,1-1.35181,1.35381m-5.4006-3.91209a1.08541,1.08541,0,0,0-1.0842,1.084v1.47429a1.08584,1.08584,0,0,0,1.0842,1.0851h5.4006a1.08593,1.08593,0,0,0,1.08368-1.0851v-1.47429a1.0855,1.0855,0,0,0-1.08368-1.084Z" transform="translate(-112.4527 -130.76199)" style="fill:#003915"/><path d="M262.8403,285.9129a.6881.6881,0,1,1,.6882-.68741.68811.68811,0,0,1-.6882.68741m0-1.10721a.41925.41925,0,1,0,.41949.4198A.41938.41938,0,0,0,262.8403,284.80569Z" transform="translate(-112.4527 -130.76199)" style="fill:#003915"/><path d="M232.0863,273.316a3.91691,3.91691,0,0,0-3.9115,3.913v5.6653a.67726.67726,0,0,0,.4561.63919,1.24416,1.24416,0,0,0-.20351.20491.94568.94568,0,0,1-.52159-.8441V277.229a4.18079,4.18079,0,1,1,8.36159,0v5.6653a.9454.9454,0,0,1-.521.8436,1.23689,1.23689,0,0,0-.2032-.2047.6764.6764,0,0,0,.45551-.6389V277.229a3.9171,3.9171,0,0,0-3.9124-3.913" transform="translate(-112.4527 -130.76199)" style="fill:#003915"/><path d="M234.89011,281.8134h-5.6089a.20393.20393,0,0,1-.20131-.20151V277.3412a3.00655,3.00655,0,1,1,6.01311,0v4.27069a.20465.20465,0,0,1-.2029.20151m-5.5415-.2681h5.476v-4.2041a2.738,2.738,0,0,0-5.476,0Z" transform="translate(-112.4527 -130.76199)" style="fill:#003915"/><path d="M232.086,279.0825a1.0081,1.0081,0,1,1,1.0089-1.008,1.01,1.01,0,0,1-1.0089,1.008m0-1.7475a.7394.7394,0,1,0,.7399.73949A.74027.74027,0,0,0,232.086,277.335Z" transform="translate(-112.4527 -130.76199)" style="fill:#003915"/><rect x="229.34351" y="280.02443" width="2.24224" height="0.26854" transform="translate(-244.35065 166.60732) rotate(-53.2778)" style="fill:#003915"/><rect x="233.5294" y="279.03697" width="0.2691" height="2.24306" transform="translate(-233.72412 65.08452) rotate(-36.80799)" style="fill:#003915"/><path d="M234.7869,287.3152h-5.40059a1.355,1.355,0,0,1-1.3524-1.35381v-1.47429a1.35343,1.35343,0,0,1,1.3524-1.3524h5.40059a1.35312,1.35312,0,0,1,1.35181,1.3524v1.47429a1.35471,1.35471,0,0,1-1.35181,1.35381m-5.40059-3.91209a1.08542,1.08542,0,0,0-1.08421,1.084v1.47429a1.08585,1.08585,0,0,0,1.08421,1.0851h5.40059a1.08594,1.08594,0,0,0,1.08371-1.0851v-1.47429a1.08551,1.08551,0,0,0-1.08371-1.084Z" transform="translate(-112.4527 -130.76199)" style="fill:#003915"/><path d="M232.086,285.9129a.6881.6881,0,1,1,.68831-.68741.68807.68807,0,0,1-.68831.68741m0-1.10721a.41925.41925,0,1,0,.4196.4198A.41935.41935,0,0,0,232.086,284.80569Z" transform="translate(-112.4527 -130.76199)" style="fill:#003915"/><path d="M255.67261,247.7498H247.8331v11.3479h7.83951Zm-8.17091-.3308h8.50252v12.0098h-8.50252Z" transform="translate(-112.4527 -130.76199)" style="fill:#003915"/><path d="M255.89709,250.1442a.60432.60432,0,0,1,.61252.5936V256.11a.604.604,0,0,1-.61252.5939v-.33081a.26974.26974,0,0,0,.28091-.26309v-5.37221a.2695.2695,0,0,0-.28091-.26279Z" transform="translate(-112.4527 -130.76199)" style="fill:#003915"/><path d="M253.27049,252.402h-2.70769l-.62161,1.59731a2.47361,2.47361,0,0,0,1.67471-.0918,4.15127,4.15127,0,0,1,1.24069-.2412,2.44755,2.44755,0,0,1,.9366.18819Zm-2.93419-.3308h3.1669l.89209,2.48-.39059-.22479a2.26694,2.26694,0,0,0-1.1481-.3293,3.893,3.893,0,0,0-1.14369.2267,3.89734,3.89734,0,0,1-1.1441.2282,2.01666,2.01666,0,0,1-.91251-.218l-.1358-.0674Z" transform="translate(-112.4527 -130.76199)" style="fill:#003915"/><path d="M292.59329,285.164V255.079a2.16107,2.16107,0,0,1,2.16562-2.15149h10.41138a2.161,2.161,0,0,1,2.166,2.15149v30.085a2.1609,2.1609,0,0,1-2.166,2.1512H294.75891a2.161,2.161,0,0,1-2.16562-2.1512m14.51312-30.085a1.93116,1.93116,0,0,0-1.93613-1.9218H294.75891a1.931,1.931,0,0,0-1.93552,1.9218v30.085a1.93148,1.93148,0,0,0,1.93552,1.9222h10.41138a1.93163,1.93163,0,0,0,1.93613-1.9222Z" transform="translate(-112.4527 -130.76199)" style="fill:#003915"/><path d="M305.84439,258.0648a2.577,2.577,0,0,0-2.58209-2.5654h-6.59479a2.57668,2.57668,0,0,0-2.58182,2.5654V282.178a2.57711,2.57711,0,0,0,2.58182,2.5659h2.06189a.39639.39639,0,0,0-.142.22821h-1.91989a2.80638,2.80638,0,0,1-2.8125-2.79411V258.0648a2.80663,2.80663,0,0,1,2.8125-2.7944h6.59479a2.80658,2.80658,0,0,1,2.81229,2.7944V282.178a2.80634,2.80634,0,0,1-2.81229,2.79411h-1.9202a.39565.39565,0,0,0-.14139-.22821h2.06158a2.57747,2.57747,0,0,0,2.58209-2.5659Z" transform="translate(-112.4527 -130.76199)" style="fill:#003915"/><path d="M304.5311,259.6122a1.26659,1.26659,0,0,0-1.2688-1.26109h-6.59479a1.26627,1.26627,0,0,0-1.26822,1.26109V282.178a1.2662,1.2662,0,0,0,1.26822,1.2614h2.84479v.22871h-2.84479a1.49623,1.49623,0,0,1-1.499-1.49011V259.6122a1.49567,1.49567,0,0,1,1.499-1.4893h6.59479a1.49533,1.49533,0,0,1,1.499,1.4893V282.178a1.49589,1.49589,0,0,1-1.499,1.49011h-2.84509v-.22871h2.84509a1.26652,1.26652,0,0,0,1.2688-1.2614Z" transform="translate(-112.4527 -130.76199)" style="fill:#003915"/><path d="M299.232,280.2728a.73331.73331,0,1,1,.73361.7299.73144.73144,0,0,1-.73361-.7299m1.23651,0a.5033.5033,0,1,0-.5029.50031A.50191.50191,0,0,0,300.46851,280.2728Z" transform="translate(-112.4527 -130.76199)" style="fill:#003915"/><rect x="186.98959" y="149.39661" width="1.04572" height="0.22929" style="fill:#003915"/><rect x="187.39749" y="148.99231" width="0.2308" height="1.0378" style="fill:#003915"/><path d="M299.5123,284.7728h-.53738a.27984.27984,0,0,0-.2803.2787v.5051a.28033.28033,0,0,0,.2803.27921h.53738v.22881h-.53738a.51041.51041,0,0,1-.51111-.508v-.5051a.50972.50972,0,0,1,.51111-.50749h.53738Zm1.72211.2787a.27987.27987,0,0,0-.28009-.2787h-.53711V284.544h.53711a.50925.50925,0,0,1,.51077.50749v.5051a.51.51,0,0,1-.51077.508h-.53711v-.22881h.53711a.28036.28036,0,0,0,.28009-.27921Z" transform="translate(-112.4527 -130.76199)" style="fill:#003915"/><path d="M299.397,286.06261v-3.2012a.56765.56765,0,0,1,1.13528,0v3.2012a.56765.56765,0,0,1-1.13528,0m.90509-3.2012a.33721.33721,0,0,0-.67441,0v3.2012a.33721.33721,0,0,0,.67441,0Z" transform="translate(-112.4527 -130.76199)" style="fill:#003915"/><path d="M156.7514,269.6001H144.98219V281.369H156.7514Zm-11.5197.2494H156.5022v11.2706H145.2317Z" transform="translate(-112.4527 -130.76199)" style="fill:#003915"/><path d="M150.8669,280.2708a3.91958,3.91958,0,0,1-.9816-7.7142.3.3,0,0,1-.0743-.1976v-.0405a4.16844,4.16844,0,1,0,2.1116-.00029v.04079a.29844.29844,0,0,1-.074.19731,3.91974,3.91974,0,0,1-.9817,7.71449" transform="translate(-112.4527 -130.76199)" style="fill:#003915"/><path d="M150.8669,272.8701a3.48155,3.48155,0,1,0,3.48131,3.4818,3.48577,3.48577,0,0,0-3.48131-3.4818m0,6.71359a3.2319,3.2319,0,1,1,3.2318-3.2318A3.23548,3.23548,0,0,1,150.8669,279.58369Z" transform="translate(-112.4527 -130.76199)" style="fill:#003915"/><path d="M150.8669,275.4494a.90225.90225,0,1,0,.9026.9025.90331.90331,0,0,0-.9026-.9025m0,1.5556a.653.653,0,1,1,.65311-.65311A.65425.65425,0,0,1,150.8669,277.005Z" transform="translate(-112.4527 -130.76199)" style="fill:#003915"/><rect x="38.28951" y="144.9326" width="0.2495" height="1.3138" style="fill:#003915"/><rect x="37.7574" y="145.4646" width="1.3136" height="0.2498" style="fill:#003915"/><path d="M151.6207,271.5452h-1.50749a.42706.42706,0,0,0-.42661.42661v.38719a.42689.42689,0,0,0,.42661.42671h1.50749a.427.427,0,0,0,.42661-.42671v-.38719a.42713.42713,0,0,0-.42661-.42661m-1.50749.991a.17766.17766,0,0,1-.17751-.1772v-.38719a.17746.17746,0,0,1,.17751-.17711h1.50749a.17712.17712,0,0,1,.17711.17711v.38719a.17732.17732,0,0,1-.17711.1772Z" transform="translate(-112.4527 -130.76199)" style="fill:#003915"/><path d="M150.647,271.66991v-.08641a.21965.21965,0,1,1,.4393,0v.08641h.2498v-.08641a.46945.46945,0,0,0-.9389,0v.08641Zm.21989,2.59009a.22049.22049,0,0,1-.21989-.2206V272.6609h-.2498v1.37849a.46945.46945,0,1,0,.9389,0V272.6609h-.2498v1.37849A.22.22,0,0,1,150.8669,274.26Z" transform="translate(-112.4527 -130.76199)" style="fill:#003915"/><path d="M128.08659,270.08141h7.1566a1.49612,1.49612,0,0,1,1.4942,1.49469v8.29871a1.496,1.496,0,0,1-1.4942,1.4942h-7.1566a1.49571,1.49571,0,0,1-1.49419-1.4942V271.5761a1.4958,1.4958,0,0,1,1.49419-1.49469m7.1566,11.0546a1.26258,1.26258,0,0,0,1.26111-1.2612V271.5761a1.2627,1.2627,0,0,0-1.26111-1.2617h-7.1566a1.26308,1.26308,0,0,0-1.2617,1.2617v8.29871a1.263,1.263,0,0,0,1.2617,1.2612Z" transform="translate(-112.4527 -130.76199)" style="fill:#003915"/><path d="M128.08659,270.9003h7.1566a.67623.67623,0,0,1,.67581.6758v7.0107a.67634.67634,0,0,1-.67581.6757h-7.1566a.67652.67652,0,0,1-.67639-.6757v-7.0107a.67642.67642,0,0,1,.67639-.6758m7.1566,8.1292a.44322.44322,0,0,0,.4431-.4427v-7.0107a.44347.44347,0,0,0-.4431-.443h-7.1566a.44384.44384,0,0,0-.44389.443v7.0107a.44359.44359,0,0,0,.44389.4427Z" transform="translate(-112.4527 -130.76199)" style="fill:#003915"/><path d="M134.54311,279.6812a.47425.47425,0,1,1-.4743.4743.47511.47511,0,0,1,.4743-.4743m0,.7155a.24125.24125,0,1,0-.24161-.2412A.24191.24191,0,0,0,134.54311,280.3967Z" transform="translate(-112.4527 -130.76199)" style="fill:#003915"/><path d="M132.94231,279.6812a.47425.47425,0,1,1-.47481.4743.47507.47507,0,0,1,.47481-.4743m0,.7155a.24125.24125,0,1,0-.24181-.2412A.24161.24161,0,0,0,132.94231,280.3967Z" transform="translate(-112.4527 -130.76199)" style="fill:#003915"/><rect x="19.8175" y="142.28081" width="2.7196" height="0.2327" style="fill:#003915"/><rect x="21.06081" y="141.03661" width="0.2327" height="2.7196" style="fill:#003915"/><path d="M133.63,272.2621a.8969.8969,0,1,1-.89661.8969.898.898,0,0,1,.89661-.8969m0,1.561a.6643.6643,0,1,0-.66391-.66411A.66554.66554,0,0,0,133.63,273.8231Z" transform="translate(-112.4527 -130.76199)" style="fill:#003915"/><rect x="19.8175" y="146.12601" width="2.7196" height="0.23239" style="fill:#003915"/><rect x="21.06081" y="144.8815" width="0.2327" height="2.7205" style="fill:#003915"/><path d="M133.63,276.1064a.8972.8972,0,1,1-.89661.89751.89867.89867,0,0,1,.89661-.89751m0,1.5619a.6647.6647,0,1,0-.66391-.6644A.6654.6654,0,0,0,133.63,277.6683Z" transform="translate(-112.4527 -130.76199)" style="fill:#003915"/><rect x="15.88701" y="142.28081" width="2.7193" height="0.2327" style="fill:#003915"/><rect x="17.1297" y="141.03661" width="0.233" height="2.7196" style="fill:#003915"/><path d="M129.6989,272.2621a.8969.8969,0,1,1-.8969.8969.89783.89783,0,0,1,.8969-.8969m0,1.561a.6643.6643,0,1,0-.6638-.66411A.66606.66606,0,0,0,129.6989,273.8231Z" transform="translate(-112.4527 -130.76199)" style="fill:#003915"/><rect x="15.88701" y="146.12601" width="2.7193" height="0.23239" style="fill:#003915"/><rect x="17.1297" y="144.8815" width="0.233" height="2.7205" style="fill:#003915"/><path d="M129.6989,276.1064a.8972.8972,0,1,1-.8969.89751.89854.89854,0,0,1,.8969-.89751m0,1.5619a.6647.6647,0,1,0-.6638-.6644A.66592.66592,0,0,0,129.6989,277.6683Z" transform="translate(-112.4527 -130.76199)" style="fill:#003915"/><path d="M130.2287,279.6812a.47425.47425,0,1,1-.4745.4743.47479.47479,0,0,1,.4745-.4743m0,.7155a.24125.24125,0,1,0-.24181-.2412A.24159.24159,0,0,0,130.2287,280.3967Z" transform="translate(-112.4527 -130.76199)" style="fill:#003915"/><path d="M128.62711,279.6812a.47425.47425,0,1,1-.47391.4743.47468.47468,0,0,1,.47391-.4743m0,.7155a.24125.24125,0,1,0-.2415-.2412A.24167.24167,0,0,0,128.62711,280.3967Z" transform="translate(-112.4527 -130.76199)" style="fill:#003915"/><path d="M250.11951,285.2374a.80927.80927,0,1,0,.2347.57091.81025.81025,0,0,0-.2347-.57091m-.5726-1.0363a1.60692,1.60692,0,1,1-1.1364.4705A1.60271,1.60271,0,0,1,249.54691,284.2011Z" transform="translate(-112.4527 -130.76199)" style="fill:#003915"/><path d="M173.77969,270.01309v2.54321h-6.96v-2.54321Zm0-4.3362v2.5433h-6.96v-2.5433Zm-4.068-4.44159v2.54329h-2.892v-2.54329Zm4.068,0v2.54329h-2.892v-2.54329Zm-7.0708,13.15649h6.99281v2.539h-6.99281Zm-2.15909-15.74561H176.5497v24.2852h-5.5392v-4.564h-4.5v4.564H164.5498Z" transform="translate(-112.4527 -130.76199)" style="fill:#003915;fill-rule:evenodd"/><path d="M168.1254,279.4839a.80925.80925,0,1,1-.2347.57089.81025.81025,0,0,1,.2347-.57089m.5726-1.0363a1.60692,1.60692,0,1,0,1.1364.4705A1.60287,1.60287,0,0,0,168.698,278.4476Z" transform="translate(-112.4527 -130.76199)" style="fill:#003915"/><path d="M230.90289,266.2986c-.73189,0-1.23589-.618-1.23589-1.7399s.504-1.7399,1.23589-1.7399,1.2359.6179,1.2359,1.7399-.504,1.7399-1.2359,1.7399m0,.396c.972,0,1.67981-.798,1.67981-2.13589s-.70781-2.13589-1.67981-2.13589-1.67389.7979-1.67389,2.13589S229.93089,266.6946,230.90289,266.6946Zm-3.62379-.366c-.726,0-1.11009-.4379-1.11009-.9a.97211.97211,0,0,1,1.08-.9178c.648,0,1.05591.3537,1.05591.9059A.91881.91881,0,0,1,227.2791,266.3286Zm.036-2.1841a1.34266,1.34266,0,0,0-1.28409.72c-.0119-.12581-.0179-.2457-.0179-.3418,0-1.14011.582-1.72211,1.4879-1.72211a1.4707,1.4707,0,0,1,.8158.1982l.1741-.3481a1.92734,1.92734,0,0,0-.9958-.22789c-1.14011,0-1.92.74379-1.92,2.17189,0,1.326.60579,2.0999,1.7218,2.0999a1.3086,1.3086,0,0,0,1.4341-1.2901A1.27166,1.27166,0,0,0,227.31509,264.1445Zm-2.61589,1.8902a.314.314,0,0,0-.318.324.30313.30313,0,0,0,.216.3058l-.2041.87h.288l.252-.828a.97639.97639,0,0,0,.0842-.34779A.314.314,0,0,0,224.6992,266.0347Zm-3.24.23981,1.4281-1.4037a1.7292,1.7292,0,0,0,.69-1.31421c0-.7018-.54-1.13379-1.39211-1.13379a1.88727,1.88727,0,0,0-1.4879.59979l.3058.26421a1.42621,1.42621,0,0,1,1.1461-.468c.642,0,.9839.2999.9839.786,0,.2877-.0899.56981-.5638,1.0378l-1.7462,1.71011v.30589h2.94609v-.38409Z" transform="translate(-112.4527 -130.76199)" style="fill:#83746c;fill-rule:evenodd"/><path d="M279.83911,266.2986c-.732,0-1.236-.618-1.236-1.7399s.504-1.7399,1.236-1.7399,1.2359.6179,1.2359,1.7399-.504,1.7399-1.2359,1.7399m0,.396c.972,0,1.67978-.798,1.67978-2.13589s-.70779-2.13589-1.67978-2.13589-1.67392.7979-1.67392,2.13589S278.8671,266.6946,279.83911,266.6946Zm-3.966-2.5141h-.54l.144-1.33789H277.397v-.3838h-2.29779l-.216,2.1058h.8941c1.06778,0,1.40369.33589,1.40369.8759,0,.51-.3779.85809-1.09189.85809a1.821,1.821,0,0,1-1.29-.4859l-.20981.3419a2.16867,2.16867,0,0,0,1.5058.54c1.02609,0,1.5239-.55789,1.5239-1.2719C277.619,264.6786,277.1391,264.1805,275.87311,264.1805Zm-2.04581,1.8542a.314.314,0,0,0-.318.324.303.303,0,0,0,.216.3058l-.2041.87h.288l.252-.828a.97572.97572,0,0,0,.0842-.34779A.314.314,0,0,0,273.8273,266.0347Zm-2.622-1.8542h-.54l.144-1.33789h1.91989v-.3838H270.4314l-.216,2.1058h.8941c1.06781,0,1.40372.33589,1.40372.8759,0,.51-.3779.85809-1.09192.85809a1.82143,1.82143,0,0,1-1.2901-.4859l-.20969.3419a2.16857,2.16857,0,0,0,1.50568.54c1.02621,0,1.52393-.55789,1.52393-1.2719C272.95111,264.6786,272.47119,264.1805,271.20529,264.1805Z" transform="translate(-112.4527 -130.76199)" style="fill:#83746c;fill-rule:evenodd"/><path d="M281.4415,188.59869c-.7319,0-1.2359-.618-1.2359-1.7399s.504-1.7399,1.2359-1.7399,1.2359.6179,1.2359,1.7399-.504,1.7399-1.2359,1.7399m0,.396c.972,0,1.67981-.798,1.67981-2.13591s-.70779-2.13589-1.67981-2.13589-1.67389.7979-1.67389,2.13589S280.46951,188.99471,281.4415,188.99471Zm-4.5-.42011,1.4281-1.4037a1.729,1.729,0,0,0,.68991-1.31419c0-.70181-.54-1.1338-1.39212-1.1338a1.88741,1.88741,0,0,0-1.48788.59979l.30591.26421a1.42594,1.42594,0,0,1,1.146-.468c.64209,0,.98389.2999.98389.786,0,.2877-.08978.56981-.56378,1.03781l-1.74612,1.7101v.30589h2.946v-.38409Zm-1.55991-.23981a.31408.31408,0,0,0-.31808.324.30312.30312,0,0,0,.216.3058l-.2041.87h.288l.252-.828a.97558.97558,0,0,0,.0842-.34779A.314.314,0,0,0,275.38159,188.33479Zm-2.28619-1.77589,1.188-1.4942v-.3058h-2.7v.3838h2.1481l-1.16391,1.4581v.3181h.2999c.77982,0,1.13391.3299,1.13391.83389,0,.52191-.38379.8459-1.08.8459a1.84133,1.84133,0,0,1-1.302-.4859l-.21.3419a2.185,2.185,0,0,0,1.512.54c1.01392,0,1.52393-.54,1.52393-1.24191C274.44531,187.0807,273.99539,186.6068,273.0954,186.5589Zm-3.852-1.8v.3838h.9902v3.816h.432v-4.1998Z" transform="translate(-112.4527 -130.76199)" style="fill:#83746c;fill-rule:evenodd"/><path d="M215.86681,188.59869c-.7319,0-1.2359-.618-1.2359-1.7399s.504-1.7399,1.2359-1.7399,1.2359.6179,1.2359,1.7399-.504,1.7399-1.2359,1.7399m0,.396c.972,0,1.67979-.798,1.67979-2.13591s-.70779-2.13589-1.67979-2.13589-1.6739.7979-1.6739,2.13589S214.89481,188.99471,215.86681,188.99471Zm-3.62381-.366c-.726,0-1.11009-.4379-1.11009-.9a.97212.97212,0,0,1,1.08-.9178c.648,0,1.05589.3537,1.05589.9059A.91881.91881,0,0,1,212.243,188.62869Zm.036-2.1841a1.34268,1.34268,0,0,0-1.2841.72c-.0119-.12579-.0179-.2457-.0179-.3418,0-1.14011.582-1.72211,1.4879-1.72211a1.47058,1.47058,0,0,1,.8158.19821l.1741-.3481a1.92715,1.92715,0,0,0-.9958-.22791c-1.14011,0-1.91991.7438-1.91991,2.17191,0,1.326.60571,2.0999,1.72171,2.0999a1.30861,1.30861,0,0,0,1.4341-1.2901A1.27167,1.27167,0,0,0,212.279,186.4446Zm-2.61591,1.8902a.314.314,0,0,0-.318.324.30312.30312,0,0,0,.216.3058l-.2041.87h.288l.252-.828a.97592.97592,0,0,0,.0842-.34779A.314.314,0,0,0,209.6631,188.33479Zm-2.7541-3.5759v.3838h.9901v3.816h.432v-4.1998Zm-2.16589,0v.3838h.9901v3.816h.432v-4.1998Z" transform="translate(-112.4527 -130.76199)" style="fill:#83746c;fill-rule:evenodd"/><path d="M202.31911,275.5988c-.7319,0-1.2359-.618-1.2359-1.7399s.504-1.74,1.2359-1.74,1.236.618,1.236,1.74-.504,1.7399-1.236,1.7399m0,.396c.972,0,1.67989-.798,1.67989-2.13589s-.70789-2.136-1.67989-2.136-1.67381.798-1.67381,2.136S201.34711,275.9948,202.31911,275.9948Zm-3.90581-.366c-.74409,0-1.1821-.324-1.1821-.8461,0-.5159.438-.8399,1.1821-.8399.7438,0,1.188.324,1.188.8399C199.6013,275.30479,199.1571,275.6288,198.4133,275.6288Zm-1.0381-2.78391c0-.468.402-.756,1.0381-.756.62981,0,1.044.288,1.044.762,0,.456-.39011.75-1.044.75S197.3752,273.3069,197.3752,272.84489Zm1.8479.91191a.95117.95117,0,0,0,.6721-.92381c0-.684-.5941-1.11009-1.4819-1.11009-.88809,0-1.47009.4261-1.47009,1.11009a.94787.94787,0,0,0,.6599.92381,1.04826,1.04826,0,0,0-.8098,1.03209c0,.7438.612,1.2059,1.62,1.2059,1.002,0,1.6319-.4621,1.6319-1.2059A1.05775,1.05775,0,0,0,199.2231,273.75681Zm-3.40779,1.57809a.314.314,0,0,0-.318.324.303.303,0,0,0,.216.3058l-.2041.87h.288l.252-.828a.97615.97615,0,0,0,.08421-.34779A.314.314,0,0,0,195.81531,275.3349Zm-2.2861-1.776,1.188-1.49409v-.30591h-2.7v.38391h2.1481l-1.16389,1.4581v.318h.2999c.7798,0,1.1338.33,1.1338.834,0,.5219-.3838.8459-1.08.8459a1.841,1.841,0,0,1-1.3019-.4859l-.21011.3419a2.18519,2.18519,0,0,0,1.512.54c1.014,0,1.524-.54,1.524-1.2419C194.8791,274.0808,194.4292,273.6069,193.52921,273.5589Z" transform="translate(-112.4527 -130.76199)" style="fill:#83746c;fill-rule:evenodd"/><path d="M248.226,234.94971c-.732,0-1.236-.618-1.236-1.73991s.504-1.74,1.236-1.74,1.2359.618,1.2359,1.74-.504,1.73991-1.2359,1.73991m0,.396c.972,0,1.67981-.798,1.67981-2.13591s-.70781-2.136-1.67981-2.136-1.6739.798-1.6739,2.136S247.254,235.3457,248.226,235.3457Zm-3.6301-2.4359,1.188-1.49411v-.30589h-2.7v.3839h2.1481l-1.16389,1.4581v.318h.2999c.7798,0,1.13391.33,1.13391.834,0,.5219-.38391.8459-1.08.8459a1.84111,1.84111,0,0,1-1.302-.4859l-.21.34189a2.18493,2.18493,0,0,0,1.512.54c1.0139,0,1.5239-.54,1.5239-1.2419C245.9458,233.4317,245.4959,232.95779,244.5959,232.90981Zm-2.4299,1.776a.314.314,0,0,0-.318.324.30311.30311,0,0,0,.216.3058l-.2041.87h.288l.252-.828a.976.976,0,0,0,.0842-.34781A.314.314,0,0,0,242.166,234.68581Zm-2.2861-1.776,1.188-1.49411v-.30589h-2.7v.3839h2.1481l-1.16391,1.4581v.318h.2999c.7798,0,1.13391.33,1.13391.834,0,.5219-.38391.8459-1.08.8459a1.84111,1.84111,0,0,1-1.302-.4859l-.21.34189a2.18494,2.18494,0,0,0,1.512.54c1.0139,0,1.5239-.54,1.5239-1.2419C241.2298,233.4317,240.77991,232.95779,239.8799,232.90981Z" transform="translate(-112.4527 -130.76199)" style="fill:#83746c;fill-rule:evenodd"/><path d="M153.0887,259.0986c-.7319,0-1.2359-.618-1.2359-1.7399s.504-1.7399,1.2359-1.7399,1.2359.61789,1.2359,1.7399-.504,1.7399-1.2359,1.7399m0,.396c.972,0,1.67979-.798,1.67979-2.13589s-.70779-2.13591-1.67979-2.13591-1.6738.79791-1.6738,2.13591S152.1167,259.4946,153.0887,259.4946Zm-2.0701-1.5239h-.8399v-.972h-.4198v.972h-1.8241l2.1481-2.7119h-.48019l-2.2258,2.78389v.3118h2.3698v1.10411h.432v-1.10411h.8399Zm-4.4337.864a.314.314,0,0,0-.318.324.303.303,0,0,0,.216.30579l-.2041.87h.288l.252-.828a.97606.97606,0,0,0,.0842-.34779A.314.314,0,0,0,146.5849,258.8347Zm-2.622.2939c-.74411,0-1.1821-.324-1.1821-.8461,0-.5159.438-.8399,1.1821-.8399.74379,0,1.188.324,1.188.8399C145.15089,258.8046,144.7067,259.1286,143.96291,259.1286Zm-1.0381-2.78391c0-.468.402-.756,1.0381-.756.62979,0,1.044.288,1.044.762,0,.4561-.39009.75-1.044.75S142.9248,256.80679,142.9248,256.3447Zm1.8479.9119a.95106.95106,0,0,0,.67209-.9238c0-.684-.5941-1.11-1.48189-1.11-.88811,0-1.47011.426-1.47011,1.11a.94778.94778,0,0,0,.6599.9238,1.04831,1.04831,0,0,0-.8098,1.0321c0,.7438.612,1.2059,1.62,1.2059,1.002,0,1.6319-.4621,1.6319-1.2059A1.0578,1.0578,0,0,0,144.77271,257.25659Zm-4.82991-1.99779v.38379h.99011v3.816h.432v-4.1998Z" transform="translate(-112.4527 -130.76199)" style="fill:#83746c;fill-rule:evenodd"/><path d="M146.95461,151.0986c-.732,0-1.236-.618-1.236-1.7399s.504-1.7399,1.236-1.7399,1.2359.61789,1.2359,1.7399-.504,1.7399-1.2359,1.7399m0,.396c.972,0,1.67979-.798,1.67979-2.13589s-.70779-2.13589-1.67979-2.13589-1.6739.79788-1.6739,2.13589S145.98261,151.4946,146.95461,151.4946Zm-4.5-.42011,1.428-1.40369a1.72886,1.72886,0,0,0,.69-1.31421c0-.70181-.54-1.13379-1.39211-1.13379a1.88745,1.88745,0,0,0-1.4879.59979l.30591.26419a1.426,1.426,0,0,1,1.146-.468c.64211,0,.9839.2999.9839.786,0,.28772-.0898.56982-.5638,1.03781l-1.74611,1.71011v.30588h2.946v-.38409Zm-1.56-.23981a.314.314,0,0,0-.318.324.30314.30314,0,0,0,.216.30582l-.2041.87h.288l.252-.828a.976.976,0,0,0,.08421-.34781A.31405.31405,0,0,0,140.89461,150.83469Zm-2.2861-1.77588,1.188-1.4942v-.30582h-2.7v.38382h2.1481l-1.16389,1.4581v.31808h.2999c.7798,0,1.1339.32989,1.1339.83389,0,.52191-.3839.84592-1.08.84592a1.8411,1.8411,0,0,1-1.302-.4859l-.21.34189a2.185,2.185,0,0,0,1.512.54c1.0139,0,1.52391-.54,1.52391-1.24191C139.9584,149.5806,139.5085,149.10669,138.60851,149.05881Z" transform="translate(-112.4527 -130.76199)" style="fill:#83746c;fill-rule:evenodd"/><path d="M203.51849,290.5271a3.90784,3.90784,0,1,0-3.90759,3.9079,3.908,3.908,0,0,0,3.90759-3.9079" transform="translate(-112.4527 -130.76199)" style="fill:#558e42;fill-rule:evenodd"/><polygon points="87.158 157.361 87.536 158.676 87.915 159.991 87.158 159.991 86.401 159.991 86.779 158.676 87.158 157.361" style="fill:#fdfdfd;fill-rule:evenodd"/><rect x="86.953" y="159.88791" width="0.38409" height="2.2813" style="fill:#fdfdfd"/><path d="M146.8528,140.11691l.69279-.8714v-.17862h-1.575v.224h1.253l-.67891.85062v.18539h.17491c.4552,0,.66159.1925.66159.48639,0,.3045-.224.49359-.6299.49359a1.07437,1.07437,0,0,1-.7597-.28348l-.12239.19949a1.27429,1.27429,0,0,0,.8821.315c.59131,0,.889-.315.889-.72461,0-.392-.2625-.6684-.78751-.69638m-2.1351,1.20749c-.434,0-.68939-.189-.68939-.4935,0-.301.2554-.49011.68939-.49011s.6931.18912.6931.49011C145.4108,141.13541,145.1517,141.3244,144.7177,141.3244Zm-.60539-1.6239c0-.273.2347-.4411.60539-.4411.36771,0,.60921.16809.60921.44449,0,.26611-.2276.43762-.60921.43762C144.3365,140.14151,144.1123,139.97,144.1123,139.7005Zm1.078.532a.5549.5549,0,0,0,.392-.53912c0-.3989-.34641-.64749-.86461-.64749-.5179,0-.85739.2486-.85739.64749a.55292.55292,0,0,0,.38519.53912.61107.61107,0,0,0-.4726.60178c0,.434.3569.70361.94479.70361.5845,0,.95221-.26959.95221-.70361A.61685.61685,0,0,0,145.19031,140.23251Zm-1.988.92038a.18317.18317,0,0,0-.18539.18912.17673.17673,0,0,0,.1259.17828l-.11911.50769h.16811l.1472-.483a.57631.57631,0,0,0,.049-.203A.18321.18321,0,0,0,143.2023,141.15289Zm-1.89011.14011.8331-.819a1.00763,1.00763,0,0,0,.40251-.76651c0-.40958-.31491-.66159-.8121-.66159a1.10128,1.10128,0,0,0-.868.3501l.17859.1539a.83227.83227,0,0,1,.66841-.27289c.3745,0,.574.1749.574.45828,0,.16812-.0524.33252-.3288.6055l-1.01849.9975v.17862h1.7184V141.293Z" transform="translate(-112.4527 -130.76199)" style="fill:#434242"/><path d="M213.802,149.5744c-.434,0-.68941-.18912-.68941-.4935,0-.30112.2554-.49011.68941-.49011s.6931.189.6931.49011c0,.30438-.25911.4935-.6931.4935m-.6055-1.624c0-.273.2347-.4411.6055-.4411.36769,0,.60919.16809.60919.44449,0,.2662-.2276.43771-.60919.43771C213.42081,148.39151,213.1965,148.22,213.1965,147.95041Zm1.07809.5321a.555.555,0,0,0,.392-.53922c0-.3988-.34639-.6474-.86459-.6474-.5179,0-.8575.2486-.8575.6474a.55313.55313,0,0,0,.3853.53922.6109.6109,0,0,0-.47261.60178c0,.434.3569.70352.94481.70352.5845,0,.95219-.2695.95219-.70352A.61683.61683,0,0,0,214.2746,148.48251Zm-2.744,1.07428c-.4269,0-.7211-.3606-.7211-1.0148,0-.65448.2942-1.01511.7211-1.01511s.7209.36063.7209,1.01511C212.2515,149.1962,211.9575,149.55679,211.53059,149.55679Zm0,.231c.56691,0,.98-.46542.98-1.24582,0-.7807-.4131-1.24609-.98-1.24609s-.9765.46539-.9765,1.24609C210.55409,149.32239,210.9637,149.78781,211.53059,149.78781Zm-1.48759-.38492a.18317.18317,0,0,0-.18539.18912.17673.17673,0,0,0,.1259.17828l-.11911.5076h.16811l.14709-.483a.57391.57391,0,0,0,.0491-.20288A.18321.18321,0,0,0,210.043,149.40289Zm-1.3334-1.0361.69281-.87128v-.17862h-1.575v.22391h1.25291l-.67891.85071v.18539h.1749c.45531,0,.66171.19238.66171.48639,0,.30441-.224.4935-.62991.4935a1.07381,1.07381,0,0,1-.75969-.28351l-.12241.19962a1.27425,1.27425,0,0,0,.8821.31491c.59131,0,.8889-.31491.8889-.72452C209.497,148.6713,209.2346,148.3949,208.70959,148.36679Z" transform="translate(-112.4527 -130.76199)" style="fill:#434242"/><path d="M277.5271,149.55679c-.42691,0-.7211-.3606-.7211-1.0148,0-.65448.29419-1.01511.7211-1.01511s.72089.36063.72089,1.01511c0,.65421-.294,1.0148-.72089,1.0148m0,.231c.56689,0,.98-.46542.98-1.24582,0-.7807-.41312-1.24609-.98-1.24609s-.9765.46539-.9765,1.24609C276.5506,149.32239,276.96021,149.78781,277.5271,149.78781Zm-2.39041-2.47092v.22391h.57742v2.2261h.252v-2.45Zm-.3569,2.086a.18318.18318,0,0,0-.18539.18912.17672.17672,0,0,0,.12592.17828l-.11911.5076h.16809l.14713-.483a.57351.57351,0,0,0,.049-.20288A.18318.18318,0,0,0,274.77979,149.40289Zm-1.33337-1.0361.69269-.87128v-.17862h-1.57489v.22391h1.2529l-.67889.85071v.18539h.1749c.45529,0,.66159.19238.66159.48639,0,.30441-.22391.4935-.62979.4935a1.07382,1.07382,0,0,1-.7597-.28351l-.1225.19962a1.27467,1.27467,0,0,0,.8822.31491c.59128,0,.88889-.31491.88889-.72452C274.2338,148.6713,273.97131,148.3949,273.44641,148.36679Z" transform="translate(-112.4527 -130.76199)" style="fill:#434242"/><path d="M296.1337,237.0717h-.31491l.08392-.7807h1.12v-.22391h-1.34052l-.12589,1.2285h.5213c.62311,0,.81918.19591.81918.51111,0,.2973-.22049.50031-.63718.50031a1.061,1.061,0,0,1-.75232-.28351l-.1225.1996a1.26446,1.26446,0,0,0,.87851.3149c.59839,0,.88889-.32539.88889-.74179,0-.43431-.28-.7245-1.01849-.7245m-1.74979.0453.69278-.87131v-.1786H293.5018v.22391h1.2529l-.67889.85069v.18541h.1749c.4552,0,.66159.1924.66159.48639,0,.30441-.224.49352-.62988.49352a1.07389,1.07389,0,0,1-.7597-.28351l-.12241.1996a1.27442,1.27442,0,0,0,.88211.3149c.59128,0,.889-.3149.889-.7245C295.17139,237.42149,294.90891,237.1451,294.38391,237.117Zm-1.4176,1.0361a.18314.18314,0,0,0-.18539.18909.17675.17675,0,0,0,.12588.1783l-.11911.50761h.16812l.14709-.483a.57431.57431,0,0,0,.0491-.20291A.18321.18321,0,0,0,292.96631,238.15311Zm-1.60641-2.086v.22391h.57739v2.2261h.252v-2.45Z" transform="translate(-112.4527 -130.76199)" style="fill:#434242"/><path d="M278.52151,252.0369c-.42691,0-.7211-.3606-.7211-1.0148,0-.6545.29419-1.01509.7211-1.01509s.72089.3606.72089,1.01509c0,.65421-.294,1.0148-.72089,1.0148m0,.231c.56689,0,.97989-.46539.97989-1.2458,0-.7807-.413-1.24609-.97989-1.24609s-.9765.46539-.9765,1.24609C277.545,251.80251,277.95459,252.2679,278.52151,252.2679Zm-2.317-.231c-.42691,0-.72119-.3606-.72119-1.0148,0-.6545.29428-1.01509.72119-1.01509s.72079.3606.72079,1.01509C276.92529,251.6763,276.63141,252.0369,276.2045,252.0369Zm0,.231c.56689,0,.97989-.46539.97989-1.2458,0-.7807-.413-1.24609-.97989-1.24609s-.97659.46539-.97659,1.24609C275.22791,251.80251,275.63751,252.2679,276.2045,252.2679Zm-1.48761-.3849a.18315.18315,0,0,0-.18539.189.17662.17662,0,0,0,.12579.1783l-.119.50769h.16809l.14709-.483a.57508.57508,0,0,0,.049-.203A.18317.18317,0,0,0,274.71689,251.883Zm-1.3335-1.0361.69281-.8714v-.1785h-1.57489v.22391h1.2529l-.67892.85069v.18541h.17493c.4552,0,.66159.1924.66159.48639,0,.3044-.22391.4935-.62979.4935a1.07413,1.07413,0,0,1-.7597-.28349l-.1225.1996a1.27473,1.27473,0,0,0,.8822.3149c.59128,0,.88889-.3149.88889-.7245C274.1709,251.1514,273.90839,250.875,273.38339,250.84689Z" transform="translate(-112.4527 -130.76199)" style="fill:#434242"/><path d="M232.9106,271.5994c-.4269,0-.7211-.3606-.7211-1.0148,0-.6546.2942-1.01509.7211-1.01509s.7209.36049.7209,1.01509c0,.65421-.294,1.0148-.7209,1.0148m0,.231c.567,0,.98-.4655.98-1.2458,0-.7807-.413-1.2462-.98-1.2462s-.9765.4655-.9765,1.2462C231.9341,271.3649,232.3437,271.8304,232.9106,271.8304Zm-1.2072-.889h-.4901v-.56691h-.245v.56691h-1.0641l1.2529-1.582h-.27971l-1.2986,1.624v.182h1.38251v.644h.252v-.644h.4901Zm-2.58659.504a.18317.18317,0,0,0-.18541.1891.1767.1767,0,0,0,.12581.1783l-.119.50769h.16809l.14711-.483a.57372.57372,0,0,0,.049-.203A.18318.18318,0,0,0,229.11681,271.4454Zm-1.6064-2.086v.224h.57739v2.226h.252v-2.45Z" transform="translate(-112.4527 -130.76199)" style="fill:#434242"/><path d="M201.5751,281.87891h-.4902V281.312H200.84v.56691h-1.0641l1.2529-1.582h-.2798l-1.29849,1.624v.182h1.3824v.644h.252v-.644h.4902Zm-3.4232-.3291c-.37781,0-.61591-.2063-.61591-.52841a.53628.53628,0,0,1,.5986-.532c.42351,0,.64751.25571.64751.5249A.5671.5671,0,0,1,198.1519,281.5498Zm-.02769-1.27391a.76318.76318,0,0,0-.8365.75261.7416.7416,0,0,0,.826.7348.78275.78275,0,0,0,.7489-.4198c.00711.07339.0105.14339.0105.19949,0,.665-.3396,1.0043-.868,1.0043a.85882.85882,0,0,1-.47589-.1153l-.1015.2029a1.124,1.124,0,0,0,.5808.133c.665,0,1.12-.434,1.12-1.26711C199.12849,280.72749,198.775,280.27589,198.12421,280.27589Zm-1.31281,2.107a.18322.18322,0,0,0-.18539.1891.17677.17677,0,0,0,.1259.1783l-.119.50769h.168l.1472-.48309a.57528.57528,0,0,0,.049-.2029A.18321.18321,0,0,0,196.8114,282.3829Zm-1.6064-2.086v.22389h.5775v2.2261h.252v-2.45Z" transform="translate(-112.4527 -130.76199)" style="fill:#434242"/><path d="M144.646,266.57471c-.42349,0-.64769-.2554-.64769-.525a.56722.56722,0,0,1,.6301-.53549c.3779,0,.616.20639.616.5284a.53613.53613,0,0,1-.5984.5321m.021-1.27391a.78343.78343,0,0,0-.74921.4198c-.00681-.07339-.0105-.1434-.0105-.1996,0-.6647.3396-1.0043.868-1.0043a.86054.86054,0,0,1,.4762.1154l.1015-.203a1.12586,1.12586,0,0,0-.5811-.13289c-.665,0-1.12.434-1.12,1.26709,0,.7733.3535,1.22481,1.00459,1.22481a.76334.76334,0,0,0,.8365-.75261A.74168.74168,0,0,0,144.667,265.3008Zm-2.156.0663.6927-.8714v-.1785H141.6288v.22389h1.2529l-.67889.85071v.18539h.1749c.45529,0,.66161.1924.66161.4864,0,.3044-.22391.4935-.62981.4935a1.07438,1.07438,0,0,1-.7597-.28349l-.1225.1996a1.27479,1.27479,0,0,0,.8822.3149c.59129,0,.8889-.3149.8889-.7245C143.2984,265.67149,143.0359,265.3952,142.511,265.3671Zm-1.4176,1.0361a.18314.18314,0,0,0-.18539.189.17659.17659,0,0,0,.12579.1783l-.119.50771h.16811l.14709-.483a.57338.57338,0,0,0,.049-.203A.18317.18317,0,0,0,141.0934,266.4032Zm-1.8902.14.8331-.81889a1.00775,1.00775,0,0,0,.4025-.76651c0-.40959-.3149-.66159-.8121-.66159a1.10115,1.10115,0,0,0-.868.3501l.1786.1539a.83209.83209,0,0,1,.6684-.273c.3745,0,.574.1749.574.45839,0,.16811-.0524.3325-.3288.60541l-1.01851.99759v.17851h1.7184v-.22391Z" transform="translate(-112.4527 -130.76199)" style="fill:#434242"/><path d="M148.36729,174.807c-.4269,0-.7211-.36061-.7211-1.0148,0-.65451.2942-1.01511.7211-1.01511s.7209.3606.7209,1.01511c0,.65419-.294,1.0148-.7209,1.0148m0,.231c.567,0,.98-.46539.98-1.24579,0-.7807-.413-1.24611-.98-1.24611s-.9765.46541-.9765,1.24611C147.39079,174.5726,147.8004,175.038,148.36729,175.038Zm-2.3904-2.471v.224h.57741v2.226h.252v-2.45Zm-.3569,2.08611a.18314.18314,0,0,0-.18539.189.17669.17669,0,0,0,.1259.1783l-.11909.50771h.16809l.14711-.483a.57384.57384,0,0,0,.04909-.203A.18317.18317,0,0,0,145.62,174.65311Zm-1.33339-1.0361.69279-.8714v-.1786h-1.575v.224h1.253l-.67889.85069v.1853h.1749c.4552,0,.66161.1925.66161.4865,0,.30441-.224.49352-.6299.49352a1.07436,1.07436,0,0,1-.7597-.28351l-.12241.1996a1.27481,1.27481,0,0,0,.88211.3149c.59129,0,.8889-.3149.8889-.7245C145.074,173.9214,144.8116,173.6451,144.28661,173.617Z" transform="translate(-112.4527 -130.76199)" style="fill:#434242"/><line x1="27.17151" y1="9.595" x2="5.0011" y2="9.595" style="fill:none;stroke:#b1b2b2;stroke-miterlimit:22.92558479309082;stroke-width:0.2160000056028366px"/><line x1="94.1714" y1="17.84491" x2="69.1738" y2="17.84491" style="fill:none;stroke:#b1b2b2;stroke-miterlimit:22.92558479309082;stroke-width:0.2160000056028366px"/><line x1="158.42151" y1="17.84491" x2="133.0545" y2="17.84491" style="fill:none;stroke:#b1b2b2;stroke-miterlimit:22.92558479309082;stroke-width:0.2160000056028366px"/><line x1="177.1716" y1="106.59511" x2="170.4231" y2="106.59511" style="fill:none;stroke:#b1b2b2;stroke-miterlimit:22.92558479309082;stroke-width:0.2160000056028366px"/><line x1="158.88721" y1="120.32501" x2="135.3795" y2="120.32501" style="fill:none;stroke:#b1b2b2;stroke-miterlimit:22.92558479309082;stroke-width:0.2160000056028366px"/><line x1="113.63721" y1="139.88751" x2="106.88881" y2="139.88751" style="fill:none;stroke:#b1b2b2;stroke-miterlimit:22.92558479309082;stroke-width:0.2160000056028366px"/><line x1="81.2619" y1="150.82491" x2="64.0961" y2="150.82491" style="fill:none;stroke:#b1b2b2;stroke-miterlimit:22.92558479309082;stroke-width:0.2160000056028366px"/><line x1="25.0117" y1="134.8452" x2="5.0011" y2="134.8452" style="fill:none;stroke:#b1b2b2;stroke-miterlimit:22.92558479309082;stroke-width:0.2160000056028366px"/><line x1="29.2617" y1="43.09511" x2="5.0011" y2="43.09511" style="fill:none;stroke:#b1b2b2;stroke-miterlimit:22.92558479309082;stroke-width:0.2160000056028366px"/><line x1="61.0137" y1="9.595" x2="36.6105" y2="9.595" style="fill:none;stroke:#b1b2b2;stroke-miterlimit:22.92558479309082;stroke-width:0.2160000056028366px"/><line x1="130.4523" y1="17.84491" x2="103.6105" y2="17.84491" style="fill:none;stroke:#b1b2b2;stroke-miterlimit:22.92558479309082;stroke-width:0.2160000056028366px"/><line x1="195.2886" y1="17.84491" x2="167.8606" y2="17.84491" style="fill:none;stroke:#b1b2b2;stroke-miterlimit:22.92558479309082;stroke-width:0.2160000056028366px"/><line x1="193.3591" y1="106.59511" x2="186.6106" y2="106.59511" style="fill:none;stroke:#b1b2b2;stroke-miterlimit:22.92558479309082;stroke-width:0.2160000056028366px"/><line x1="195.2886" y1="120.32501" x2="168.32629" y2="120.32501" style="fill:none;stroke:#b1b2b2;stroke-miterlimit:22.92558479309082;stroke-width:0.2160000056028366px"/><line x1="129.82471" y1="139.88751" x2="123.07631" y2="139.88751" style="fill:none;stroke:#b1b2b2;stroke-miterlimit:22.92558479309082;stroke-width:0.2160000056028366px"/><line x1="102.9761" y1="150.82491" x2="90.701" y2="150.82491" style="fill:none;stroke:#b1b2b2;stroke-miterlimit:22.92558479309082;stroke-width:0.2160000056028366px"/><line x1="52.09621" y1="134.8452" x2="34.45081" y2="134.8452" style="fill:none;stroke:#b1b2b2;stroke-miterlimit:22.92558479309082;stroke-width:0.2160000056028366px"/><line x1="66.57161" y1="43.09511" x2="38.70081" y2="43.09511" style="fill:none;stroke:#b1b2b2;stroke-miterlimit:22.92558479309082;stroke-width:0.2160000056028366px"/><path d="M288.61029,261.243h.68262v-.2486h-.45871v-1.26l2.2261,1.008v-.273l-2.27139-1.02531h-.17862Zm2.2399,1.2424c0,.4269-.3605.7211-1.0148.7211-.65448,0-1.01508-.2942-1.01508-.7211s.3606-.72079,1.01508-.72079C290.48969,261.7646,290.85019,262.0585,290.85019,262.4854Zm.23111,0c0-.56689-.46548-.9799-1.24591-.9799-.78058,0-1.24609.413-1.24609.9799s.46552.9765,1.24609.9765C290.61581,263.4619,291.0813,263.05229,291.0813,262.4854Zm-.385,1.48759a.18318.18318,0,0,0,.18912.18541.17666.17666,0,0,0,.17828-.12581l.50772.119v-.16809l-.48312-.14711a.57283.57283,0,0,0-.20288-.049A.18321.18321,0,0,0,290.69629,263.973Zm.14,1.89021-.81891-.8331a1.00776,1.00776,0,0,0-.76651-.4026c-.40958,0-.66159.315-.66159.81219a1.10118,1.10118,0,0,0,.3501.8679l.1539-.1785a.83238.83238,0,0,1-.273-.6685c0-.3744.1749-.574.45837-.574.16812,0,.33252.05251.6055.3289l.99753,1.0184h.17859v-1.71831h-.224Z" transform="translate(-112.4527 -130.76199)" style="fill:#434242"/><path d="M305.3129,188.8257c0,.434-.18909.68941-.4935.68941-.30109,0-.49008-.2554-.49008-.68941s.189-.6931.49008-.6931c.30441,0,.4935.25909.4935.6931m-1.624.6055c-.273,0-.4411-.2347-.4411-.6055,0-.3676.16809-.6091.44449-.6091.2662,0,.43771.2276.43771.6091C304.13,189.207,303.9585,189.4312,303.6889,189.4312Zm.5321-1.078a.555.555,0,0,0-.53922-.392c-.3988,0-.6474.3463-.6474.8645,0,.5179.2486.8575.6474.8575a.553.553,0,0,0,.53922-.38519.61093.61093,0,0,0,.60181.47249c.434,0,.70349-.35689.70349-.94479,0-.5845-.2695-.9521-.70349-.9521A.61688.61688,0,0,0,304.221,188.3532Zm1.09189,2.7054c0,.434-.18909.68941-.4935.68941-.30109,0-.49008-.2554-.49008-.68941s.189-.6931.49008-.6931C305.12381,190.36549,305.3129,190.6246,305.3129,191.05859Zm-1.624.60541c-.273,0-.4411-.2347-.4411-.60541,0-.36769.16809-.60919.44449-.60919.2662,0,.43771.2276.43771.60919C304.13,191.4398,303.9585,191.664,303.6889,191.664Zm.5321-1.078a.555.555,0,0,0-.53922-.392c-.3988,0-.6474.34641-.6474.86459,0,.5179.2486.85741.6474.85741a.553.553,0,0,0,.53922-.38521.611.611,0,0,0,.60181.47261c.434,0,.70349-.3569.70349-.94481,0-.58449-.2695-.95219-.70349-.95219A.61686.61686,0,0,0,304.221,190.586Zm.92038,1.988a.18318.18318,0,0,0,.18912.18539.17685.17685,0,0,0,.17828-.1259l.5076.11909v-.16809l-.483-.1472a.57516.57516,0,0,0-.20288-.049A.18322.18322,0,0,0,305.14139,192.574Zm-.504.49319v.4901h-.56689v.2449h.56689v1.0641l-1.582-1.2529v.2798l1.6239,1.2986h.182V193.8093h.6441v-.252h-.6441v-.4901Z" transform="translate(-112.4527 -130.76199)" style="fill:#434242"/><path d="M247.8053,178.37689h.22391v-.57739h2.22609v-.252h-2.45Zm2.25751,1.1515c0,.4339-.1891.68941-.4935.68941-.301,0-.49011-.25551-.49011-.68941s.1891-.6931.49011-.6931C249.8737,178.8353,250.06281,179.09441,250.06281,179.5284Zm-1.624.60541c-.2729,0-.441-.23471-.441-.60541,0-.36769.16809-.60919.4444-.60919.2662,0,.4377.2276.4377.60919C248.8799,179.90961,248.7084,180.1338,248.4388,180.1338Zm.5321-1.078a.555.555,0,0,0-.5392-.392c-.3988,0-.6474.34639-.6474.86459,0,.5179.2486.85741.6474.85741a.553.553,0,0,0,.5392-.38521.611.611,0,0,0,.60179.47261c.434,0,.70361-.3569.70361-.94481,0-.5845-.26961-.95219-.70361-.95219A.61686.61686,0,0,0,248.9709,179.0558Zm.92039,1.988a.18323.18323,0,0,0,.1891.18541.17676.17676,0,0,0,.1783-.1259l.50771.119v-.168l-.48311-.1472a.575.575,0,0,0-.2029-.049A.18322.18322,0,0,0,249.8913,181.04379Zm-1.0361,1.3334-.87129-.69279h-.1786v1.57489h.22391v-1.2529l.85069.67891h.18541v-.1749c0-.4552.19249-.66161.48639-.66161.3045,0,.4935.22389.4935.6299a1.074,1.074,0,0,1-.2834.7596l.19951.1225a1.27475,1.27475,0,0,0,.315-.8821c0-.59129-.315-.889-.72461-.889C249.1597,181.58971,248.8833,181.8522,248.85519,182.3772Z" transform="translate(-112.4527 -130.76199)" style="fill:#434242"/><path d="M122.5451,212.6109c0,.4269-.3605.72119-1.0148.72119-.6545,0-1.0151-.2943-1.0151-.72119s.3606-.72079,1.0151-.72079c.6543,0,1.0148.2939,1.0148.72079m.2311,0c0-.56689-.4655-.9799-1.2459-.9799-.78059,0-1.24609.413-1.24609.9799s.4655.97659,1.24609.97659C122.3107,213.58749,122.7762,213.1779,122.7762,212.6109Zm-.2135,2.1138c0,.42349-.2554.6478-.525.6478a.56726.56726,0,0,1-.5354-.6302c0-.37779.20631-.616.52831-.616A.53612.53612,0,0,1,122.5627,214.7247Zm-1.2739-.0209a.78355.78355,0,0,0,.4198.74921c-.0734.00679-.1434.0105-.1995.0105-.6648,0-1.0043-.3396-1.0043-.868a.8605.8605,0,0,1,.1153-.47621l-.2029-.10149a1.12552,1.12552,0,0,0-.133.58109c0,.665.434,1.12,1.2671,1.12.7733,0,1.2249-.3535,1.2249-1.00461a.76334.76334,0,0,0-.7526-.8365A.7417.7417,0,0,0,121.2888,214.7038Zm1.10239,1.52611a.18318.18318,0,0,0,.1891.18539.17668.17668,0,0,0,.1783-.12579l.5077.119v-.16809l-.48309-.14711a.57286.57286,0,0,0-.2029-.049A.18319.18319,0,0,0,122.3912,216.2299Zm-1.0814,1.5293v.315l-.7807-.08391v-1.12h-.2239v1.3405l1.2285.12579v-.52119c0-.62309.1959-.81931.5111-.81931.2974,0,.5003.22061.5003.6373a1.06136,1.06136,0,0,1-.28339.7523l.19949.12241a1.26406,1.26406,0,0,0,.315-.8784c0-.5984-.3255-.889-.7419-.889C121.6001,216.74069,121.3098,217.0208,121.3098,217.7592Z" transform="translate(-112.4527 -130.76199)" style="fill:#434242"/><path d="M122.5627,147.2948c0,.42349-.2554.64771-.525.64771a.56727.56727,0,0,1-.5354-.63022c0-.37778.20631-.61588.52831-.61588a.536.536,0,0,1,.5321.59839m-1.2739-.021a.78355.78355,0,0,0,.4198.74921c-.0734.00677-.1434.0105-.1995.0105-.6648,0-1.0043-.3396-1.0043-.868a.86045.86045,0,0,1,.1153-.4762l-.2029-.1015a1.12581,1.12581,0,0,0-.133.58109c0,.665.434,1.12,1.2671,1.12.7733,0,1.2249-.35352,1.2249-1.00461a.76335.76335,0,0,0-.7526-.83652A.74177.74177,0,0,0,121.2888,147.2738Zm-.9836,2.429h.2239v-.57739h2.2261v-.252h-2.45Zm2.086.3569a.18316.18316,0,0,0,.1891.18539.17675.17675,0,0,0,.1783-.12589l.5077.11911v-.16812l-.48309-.14719a.57533.57533,0,0,0-.2029-.049A.18322.18322,0,0,0,122.3912,150.05969Zm-2.086,1.60641h.2239v-.57751h2.2261v-.252h-2.45Z" transform="translate(-112.4527 -130.76199)" style="fill:#434242"/><line x1="177.4476" y1="136.7543" x2="177.4476" y2="156.44551" style="fill:none;stroke:#b1b2b2;stroke-miterlimit:22.92558479309082;stroke-width:0.2160000056028366px"/><line x1="191.8927" y1="65.4409" x2="191.8927" y2="110.2626" style="fill:none;stroke:#b1b2b2;stroke-miterlimit:22.92558479309082;stroke-width:0.2160000056028366px"/><line x1="136.64261" y1="54.1907" x2="136.64261" y2="88.74791" style="fill:none;stroke:#b1b2b2;stroke-miterlimit:22.92558479309082;stroke-width:0.2160000056028366px"/><line x1="9.1425" y1="88.9409" x2="9.1425" y2="150.63701" style="fill:none;stroke:#b1b2b2;stroke-miterlimit:22.92558479309082;stroke-width:0.2160000056028366px"/><line x1="9.1425" y1="22.9408" x2="9.1425" y2="29.68921" style="fill:none;stroke:#b1b2b2;stroke-miterlimit:22.92558479309082;stroke-width:0.2160000056028366px"/><line x1="177.4476" y1="115.95851" x2="177.4476" y2="127.3152" style="fill:none;stroke:#b1b2b2;stroke-miterlimit:22.92558479309082;stroke-width:0.2160000056028366px"/><line x1="191.8927" y1="13.3512" x2="191.8927" y2="56.0018" style="fill:none;stroke:#b1b2b2;stroke-miterlimit:22.92558479309082;stroke-width:0.2160000056028366px"/><line x1="136.64261" y1="13.3512" x2="136.64261" y2="44.75171" style="fill:none;stroke:#b1b2b2;stroke-miterlimit:22.92558479309082;stroke-width:0.2160000056028366px"/><line x1="9.1425" y1="38.72551" x2="9.1425" y2="79.50191" style="fill:none;stroke:#b1b2b2;stroke-miterlimit:22.92558479309082;stroke-width:0.2160000056028366px"/><line x1="9.1425" y1="6.7532" x2="9.1425" y2="13.50171" style="fill:none;stroke:#b1b2b2;stroke-miterlimit:22.92558479309082;stroke-width:0.2160000056028366px"/></svg>