<svg id="Слой_1" data-name="Слой 1" xmlns="http://www.w3.org/2000/svg" viewBox="0 0 355.40311 207.86089"><title>1.10.15</title><polygon points="351.922 66.222 351.922 68.255 355.302 68.255 355.302 133.105 351.922 133.105 351.922 204.637 349.116 204.637 349.116 207.861 67.365 207.861 3.076 207.861 0 207.861 0 64.701 3.076 64.701 3.076 0 197.379 0 197.379 66.222 351.922 66.222" style="fill:#fff;fill-rule:evenodd"/><path d="M189.3093,126.14771v-2.54321h-6.9599v2.54321Zm0,4.33618v-2.54327h-6.9599v2.54327Zm-4.068,4.44162v-2.54321H182.3494v2.54321Zm4.068,0v-2.54321H186.4174v2.54321Zm-6.9928-15.54831h6.9928v2.539h-6.9928ZM180.091,113.5321H192.0611v24.27341H180.091Z" transform="translate(-34.897 -108.66821)" style="fill:#003915;fill-rule:evenodd"/><path d="M247.225,196.9473a.37407.37407,0,0,1,.37479-.64749l13.92011,8.0399a.37407.37407,0,0,1-.37479.64749Z" transform="translate(-34.897 -108.66821)" style="fill:#003915"/><path d="M126.8816,244.2552a.374.374,0,1,0,.3747.64749l13.9201-8.0399a.374.374,0,1,0-.37471-.64749Z" transform="translate(-34.897 -108.66821)" style="fill:#003915"/><path d="M117.5777,162.3158a.374.374,0,0,0-.6474.37482l8.0399,13.92009a.374.374,0,0,0,.6474-.3748Z" transform="translate(-34.897 -108.66821)" style="fill:#003915"/><path d="M142.34261,204.92a.37405.37405,0,0,0-.64751.37469l8.04,13.92011a.374.374,0,1,0,.6474-.37469Z" transform="translate(-34.897 -108.66821)" style="fill:#003915"/><path d="M183.7616,140.66031a.374.374,0,1,0-.64749.37469l8.0399,13.9201a.374.374,0,0,0,.64749-.37469Z" transform="translate(-34.897 -108.66821)" style="fill:#003915"/><path d="M117.5777,200.14929a.374.374,0,1,1-.6474-.37479l8.0399-13.92011a.374.374,0,1,1,.6474.3748Z" transform="translate(-34.897 -108.66821)" style="fill:#003915"/><path d="M159.2104,266.46809a.37407.37407,0,0,0,.64749-.3748L151.818,252.1732a.37407.37407,0,0,0-.64749.3748Z" transform="translate(-34.897 -108.66821)" style="fill:#003915"/><path d="M355.55331,250.02319a.374.374,0,1,1,.6474.37471L348.1608,264.318a.374.374,0,0,1-.6474-.37469Z" transform="translate(-34.897 -108.66821)" style="fill:#003915"/><rect x="114.31929" y="133.90349" width="2.6022" height="5.9823" style="fill:#003915"/><rect x="233.18479" y="66.22159" width="2.6022" height="5.9445" style="fill:#003915"/><rect x="236.3545" y="66.22159" width="2.6022" height="5.9445" style="fill:#003915"/><rect x="230.27469" y="95.75259" width="2.60229" height="37.51059" style="fill:#003915"/><rect x="114.31929" y="109.67268" width="2.6022" height="34.0798" style="fill:#003915"/><rect x="89.9947" y="67.55269" width="2.6022" height="10.194" style="fill:#003915"/><rect x="114.31929" y="67.55269" width="2.6022" height="25.29179" style="fill:#003915"/><rect x="155.585" y="69.38869" width="2.6022" height="131.2257" style="fill:#003915"/><rect x="89.9947" y="45.3526" width="2.6022" height="4.45639" style="fill:#003915"/><rect x="113.976" y="5.39349" width="2.6022" height="41.879" style="fill:#003915"/><rect x="89.9947" y="95.58218" width="2.6022" height="42.1711" style="fill:#003915"/><rect x="114.31929" y="157.81038" width="2.6022" height="42.6319" style="fill:#003915"/><rect x="111.13179" y="159.71269" width="2.6022" height="40.72959" style="fill:#003915"/><rect x="111.13179" y="135.35258" width="2.6022" height="8.3999" style="fill:#003915"/><rect x="196.8993" y="132.70479" width="46.32919" height="2.6022" style="fill:#003915"/><rect x="196.50791" y="95.75259" width="14.45889" height="2.60219" style="fill:#003915"/><rect x="196.50791" y="121.97559" width="35.28909" height="2.6022" style="fill:#003915"/><rect x="90.6361" y="45.3526" width="66.528" height="2.60217" style="fill:#003915"/><rect x="114.5571" y="69.38869" width="42.60699" height="2.6022" style="fill:#003915"/><rect x="110.5971" y="135.27098" width="46.8" height="2.6022" style="fill:#003915"/><rect x="111.13179" y="141.15028" width="5.59071" height="2.6022" style="fill:#003915"/><rect x="111.13179" y="159.71269" width="5.59071" height="2.60219" style="fill:#003915"/><rect x="226.637" y="95.75259" width="5.7598" height="2.60219" style="fill:#003915"/><rect x="196.4917" y="66.65298" width="43.577" height="2.6022" style="fill:#003915"/><rect x="7.3565" y="135.15109" width="84.1003" height="2.60219" style="fill:#003915"/><rect x="7.3565" y="69.27049" width="85.24039" height="2.60219" style="fill:#003915"/><rect x="196.9515" y="0.59329" width="0.4272" height="5.00198" style="fill:#003915"/><rect x="259.51722" y="66.22638" width="85.11649" height="5.00201" style="fill:#003915"/><rect x="321.323" y="132.23309" width="34.08011" height="5.002" style="fill:#003915"/><polygon points="198.011 72.713 191.585 72.713 191.585 0 197.379 0 197.379 66.222 198.011 66.222 198.011 72.713" style="fill:#003915;fill-rule:evenodd"/><rect x="191.585" y="95.75259" width="6.42551" height="39.5544" style="fill:#003915"/><rect x="127.6319" width="38.4982" height="5.99268" style="fill:#003915"/><rect x="184.88021" width="8.9061" height="5.99268" style="fill:#003915"/><rect x="316.39411" y="171.50169" width="8.1601" height="28.0154" style="fill:#003915"/><rect x="316.39411" y="171.50169" width="8.1601" height="28.0154" style="fill:#003915"/><rect x="316.39411" y="137.87259" width="8.1601" height="3.90269" style="fill:#003915"/><rect x="0.4607" width="8.1601" height="36.82849" style="fill:#003915"/><rect x="192.19809" y="198.71319" width="163.20502" height="8.1601" style="fill:#003915"/><rect x="308.83719" y="132.23309" width="46.56592" height="8.1601" style="fill:#003915"/><rect x="90.0403" y="198.71319" width="73.4346" height="8.1601" style="fill:#003915"/><rect x="115.47049" y="197.39249" width="37.2971" height="9.4808" style="fill:#003915"/><rect x="0.4607" y="198.71319" width="59.8549" height="8.1601" style="fill:#003915"/><rect x="195.37709" y="66.22638" width="120.46791" height="6.48621" style="fill:#003915"/><rect x="0.7971" width="128.0146" height="5.99268" style="fill:#003915"/><rect x="0.4607" y="66.71249" width="39.4812" height="5.1608" style="fill:#003915"/><rect x="341.21311" y="66.22159" width="8.1601" height="5.29109" style="fill:#003915"/><rect x="347.14209" y="125.81659" width="8.1601" height="14.5766" style="fill:#003915"/><rect x="347.14209" y="66.22159" width="8.1601" height="11.6515" style="fill:#003915"/><rect x="0.4607" y="65.28439" width="8.1601" height="22.47049" style="fill:#003915"/><rect x="0.4607" y="117.33809" width="8.1601" height="36.495" style="fill:#003915"/><rect x="0.4607" y="182.87318" width="8.1601" height="24.0001" style="fill:#003915"/><rect x="114.31929" y="63.47308" width="12.7843" height="8.16011" style="fill:#003915"/><rect x="114.31929" y="129.71309" width="12.7843" height="8.1601" style="fill:#003915"/><rect x="114.31929" y="63.71259" width="12.7843" height="8.1601" style="fill:#003915"/><rect x="231.0463" y="66.65298" width="12.7843" height="8.1601" style="fill:#003915"/><rect x="231.47101" y="132.49188" width="12.78418" height="8.16011" style="fill:#003915"/><rect x="317.48319" y="196.25129" width="37.91992" height="10.62199" style="fill:#003915"/><rect x="341.21311" y="66.22159" width="13.79849" height="6.7317" style="fill:#003915"/><rect x="177.1637" y="201.71419" width="0.50169" height="2.2986" style="fill:#003915"/><rect x="178.36251" y="201.71419" width="0.5011" height="2.2986" style="fill:#003915"/><rect x="190.99961" y="201.71419" width="0.50139" height="2.2986" style="fill:#003915"/><rect x="192.19809" y="201.71419" width="0.50121" height="2.2986" style="fill:#003915"/><rect x="163.05201" y="201.71419" width="0.50169" height="2.2986" style="fill:#003915"/><rect x="164.25051" y="201.71419" width="0.5011" height="2.2986" style="fill:#003915"/><rect x="160.6624" y="198.71229" width="34.0937" height="0.5015" style="fill:#003915"/><rect x="160.6624" y="201.55939" width="34.0937" height="0.5015" style="fill:#003915"/><rect x="160.6624" y="203.73079" width="34.0937" height="0.5014" style="fill:#003915"/><rect x="160.6624" y="206.37179" width="34.0937" height="0.5015" style="fill:#003915"/><rect x="74.0965" y="201.71419" width="0.5018" height="2.2986" style="fill:#003915"/><rect x="75.2953" y="201.71419" width="0.5012" height="2.2986" style="fill:#003915"/><rect x="87.9324" y="201.71419" width="0.5015" height="2.2986" style="fill:#003915"/><rect x="89.1309" y="201.71419" width="0.5012" height="2.2986" style="fill:#003915"/><rect x="59.9848" y="201.71419" width="0.5018" height="2.2986" style="fill:#003915"/><rect x="61.1833" y="201.71419" width="0.5012" height="2.2986" style="fill:#003915"/><rect x="57.5952" y="198.71229" width="34.0937" height="0.5015" style="fill:#003915"/><rect x="57.5952" y="201.55939" width="34.0937" height="0.5015" style="fill:#003915"/><rect x="57.5952" y="203.73079" width="34.0937" height="0.5014" style="fill:#003915"/><rect x="57.5952" y="206.37179" width="34.0937" height="0.5015" style="fill:#003915"/><rect x="3.4626" y="102.70229" width="2.2986" height="0.50169" style="fill:#003915"/><rect x="3.4626" y="101.50409" width="2.2986" height="0.50119" style="fill:#003915"/><rect x="3.4626" y="88.86668" width="2.2986" height="0.5014" style="fill:#003915"/><rect x="3.4626" y="87.66849" width="2.2986" height="0.5011" style="fill:#003915"/><rect x="3.4626" y="116.81398" width="2.2986" height="0.5018" style="fill:#003915"/><rect x="3.4626" y="115.61609" width="2.2986" height="0.50119" style="fill:#003915"/><rect x="0.4607" y="85.61168" width="0.5014" height="34.0937" style="fill:#003915"/><rect x="3.3078" y="85.61168" width="0.5014" height="34.0937" style="fill:#003915"/><rect x="5.4791" y="85.61168" width="0.5015" height="34.0937" style="fill:#003915"/><rect x="8.1202" y="85.61168" width="0.5014" height="34.0937" style="fill:#003915"/><rect x="3.4626" y="50.67099" width="2.2986" height="0.50171" style="fill:#003915"/><rect x="3.4626" y="49.47278" width="2.2986" height="0.5011" style="fill:#003915"/><rect x="3.4626" y="36.8353" width="2.2986" height="0.5015" style="fill:#003915"/><rect x="3.4626" y="35.63708" width="2.2986" height="0.50119" style="fill:#003915"/><rect x="3.4626" y="64.78268" width="2.2986" height="0.50171" style="fill:#003915"/><rect x="3.4626" y="63.58479" width="2.2986" height="0.5011" style="fill:#003915"/><rect x="0.4607" y="33.58029" width="0.5014" height="34.09369" style="fill:#003915"/><rect x="3.3078" y="33.58029" width="0.5014" height="34.09369" style="fill:#003915"/><rect x="5.4791" y="33.58029" width="0.5015" height="34.09369" style="fill:#003915"/><rect x="8.1202" y="33.58029" width="0.5014" height="34.09369" style="fill:#003915"/><rect x="3.4626" y="168.51399" width="2.2986" height="0.50169" style="fill:#003915"/><rect x="3.4626" y="167.31578" width="2.2986" height="0.50121" style="fill:#003915"/><rect x="3.4626" y="154.67839" width="2.2986" height="0.50139" style="fill:#003915"/><rect x="3.4626" y="153.48019" width="2.2986" height="0.5011" style="fill:#003915"/><rect x="3.4626" y="182.62569" width="2.2986" height="0.50169" style="fill:#003915"/><rect x="3.4626" y="181.42778" width="2.2986" height="0.50121" style="fill:#003915"/><rect x="0.4607" y="151.42329" width="0.5014" height="34.09369" style="fill:#003915"/><rect x="3.3078" y="151.42329" width="0.5014" height="34.09369" style="fill:#003915"/><rect x="5.4791" y="151.42329" width="0.5015" height="34.09369" style="fill:#003915"/><rect x="8.1202" y="151.42329" width="0.5014" height="34.09369" style="fill:#003915"/><path d="M356.10349,269.0675h-1.66989v-.69711h1.66989Zm0,13.56909h-1.66989v-13.0677h1.66989Zm0,1.1982h-1.66989v-.697h1.66989Zm-1.66989.5018h1.66989v5.7894h.5014v-21.7556h2.3457V290.126h.5015V267.8692h-8.161V290.126h.5015v-21.7556h2.13959V286.4223h.5014Z" transform="translate(-34.897 -108.66821)" style="fill:#003915;fill-rule:evenodd"/><rect x="350.24799" y="176.18568" width="1.29712" height="0.44701" style="fill:#003915"/><rect x="350.24799" y="175.11789" width="1.29712" height="0.4467" style="fill:#003915"/><rect x="350.24799" y="157.58359" width="1.29712" height="0.44701" style="fill:#003915"/><rect x="350.24799" y="156.51579" width="1.29712" height="0.4467" style="fill:#003915"/><rect x="350.24799" y="138.98119" width="1.29712" height="0.4471" style="fill:#003915"/><rect x="350.24799" y="137.91339" width="1.29712" height="0.44679" style="fill:#003915"/><rect x="350.24799" y="194.78799" width="1.29712" height="0.4471" style="fill:#003915"/><rect x="350.24799" y="193.72018" width="1.29712" height="0.4468" style="fill:#003915"/><rect x="352.32779" y="135.84668" width="0.44672" height="60.8213" style="fill:#003915"/><rect x="351.23639" y="135.84668" width="0.44681" height="60.8213" style="fill:#003915"/><rect x="350.15561" y="135.84668" width="0.44669" height="60.8213" style="fill:#003915"/><path d="M263.93051,230.40829h-9.82242a.90534.90534,0,0,1-.9054-.904V224.894a4.59576,4.59576,0,0,1,4.5896-4.591h2.4523a4.59572,4.59572,0,0,1,4.59039,4.591v4.61031a.90475.90475,0,0,1-.90448.904m-6.13821-9.8606a4.351,4.351,0,0,0-4.34489,4.3463v4.61031a.66142.66142,0,0,0,.66069.6599h9.82242a.66073.66073,0,0,0,.65988-.6599V224.894a4.35138,4.35138,0,0,0-4.34579-4.3463Z" transform="translate(-34.897 -108.66821)" style="fill:#003915"/><path d="M257.7926,221.63789a3.25877,3.25877,0,0,0-3.2545,3.2561v2.6881a.56787.56787,0,0,0,.56729.5675h3.5753v.24521h-3.5753a.81414.81414,0,0,1-.8125-.81271V224.894a3.50421,3.50421,0,0,1,3.49971-3.50079h2.4523a3.50468,3.50468,0,0,1,3.5007,3.50079v2.6881a.81449.81449,0,0,1-.81351.81271h-3.57529v-.24521h3.57529a.5682.5682,0,0,0,.5683-.5675V224.894a3.25929,3.25929,0,0,0-3.25549-3.2561Z" transform="translate(-34.897 -108.66821)" style="fill:#003915"/><path d="M259.01941,225.24159a.78349.78349,0,1,1,.78378-.78349.7848.7848,0,0,1-.78378.78349m0-1.32239a.5387.5387,0,1,0,.53918.53889A.53962.53962,0,0,0,259.01941,223.9192Z" transform="translate(-34.897 -108.66821)" style="fill:#003915"/><rect x="224" y="115.23198" width="0.2449" height="1.11661" style="fill:#003915"/><rect x="223.564" y="115.66739" width="1.116" height="0.2455" style="fill:#003915"/><path d="M259.35681,229.22591h.40359a.17363.17363,0,0,0,.17288-.174v-.3793a.17363.17363,0,0,0-.17288-.174h-.40359v-.2449h.40359a.41861.41861,0,0,1,.41809.4189v.3793a.41862.41862,0,0,1-.41809.4187h-.40561l.002-.0374Zm-1.07721-.72731a.17447.17447,0,0,0-.1741.174v.3793a.17448.17448,0,0,0,.1741.174h.40109v.20729l.00232.0374h-.40341a.41864.41864,0,0,1-.4187-.4187v-.3793a.41862.41862,0,0,1,.4187-.4189h.40109v.2449Z" transform="translate(-34.897 -108.66821)" style="fill:#003915"/><path d="M259.01941,229.89349a.46109.46109,0,0,1-.46121-.4603v-3.08049a.4605.4605,0,0,1,.921,0v3.08049a.46051.46051,0,0,1-.45978.4603m0-3.75679a.21682.21682,0,0,0-.21631.216v3.08049a.21561.21561,0,0,0,.43121,0v-3.08049A.21615.21615,0,0,0,259.01941,226.1367Z" transform="translate(-34.897 -108.66821)" style="fill:#003915"/><path d="M163.70329,305.9062H153.881a.90519.90519,0,0,1-.9054-.9039V300.392a4.59576,4.59576,0,0,1,4.5896-4.591h2.45219a4.59575,4.59575,0,0,1,4.5905,4.591v4.6103a.9047.9047,0,0,1-.9046.9039m-6.13809-9.8606a4.351,4.351,0,0,0-4.34489,4.34641v4.6103a.66142.66142,0,0,0,.66069.6599h9.8223a.66074.66074,0,0,0,.65991-.6599V300.392a4.35141,4.35141,0,0,0-4.34581-4.34641Z" transform="translate(-34.897 -108.66821)" style="fill:#003915"/><path d="M157.56551,297.1358a3.25878,3.25878,0,0,0-3.2545,3.2562v2.6881a.56791.56791,0,0,0,.5672.5675h3.57539v.2452H154.8782a.814.814,0,0,1-.81241-.8127V300.392a3.50407,3.50407,0,0,1,3.49971-3.50079h2.45219a3.50469,3.50469,0,0,1,3.50079,3.50079v2.6881a.81446.81446,0,0,1-.81349.8127h-3.57541v-.2452H162.705a.56828.56828,0,0,0,.5683-.5675V300.392a3.25934,3.25934,0,0,0-3.2556-3.2562Z" transform="translate(-34.897 -108.66821)" style="fill:#003915"/><path d="M158.7923,300.7395a.7835.7835,0,1,1,.7838-.7835.7848.7848,0,0,1-.7838.7835m0-1.3223a.5387.5387,0,1,0,.5392.5388A.53963.53963,0,0,0,158.7923,299.4172Z" transform="translate(-34.897 -108.66821)" style="fill:#003915"/><rect x="123.77291" y="190.72999" width="0.24489" height="1.1165" style="fill:#003915"/><rect x="123.3369" y="191.16539" width="1.116" height="0.2454" style="fill:#003915"/><path d="M159.12959,304.7239h.4037a.17367.17367,0,0,0,.17291-.1741v-.3792a.17373.17373,0,0,0-.17291-.1741h-.4037v-.2449h.4037a.41869.41869,0,0,1,.41811.419v.3792a.41862.41862,0,0,1-.41811.4187h-.40559l.00189-.0374Zm-1.07709-.7274a.17455.17455,0,0,0-.1741.1741v.3792a.17449.17449,0,0,0,.1741.1741h.40109v.2072l.0022.0374h-.40329a.41855.41855,0,0,1-.4187-.4187v-.3792a.41862.41862,0,0,1,.4187-.419h.40109v.2449Z" transform="translate(-34.897 -108.66821)" style="fill:#003915"/><path d="M158.7923,305.3915a.461.461,0,0,1-.4612-.4604v-3.0804a.4605.4605,0,0,1,.921,0v3.0804a.46063.46063,0,0,1-.45981.4604m0-3.75681a.21676.21676,0,0,0-.21629.216v3.0804a.2156.2156,0,0,0,.4312,0v-3.0804A.21609.21609,0,0,0,158.7923,301.6347Z" transform="translate(-34.897 -108.66821)" style="fill:#003915"/><path d="M190.4754,202.15v9.82231a.90519.90519,0,0,1-.9039.9054H184.9612a4.59576,4.59576,0,0,1-4.591-4.5896v-2.45219a4.59577,4.59577,0,0,1,4.591-4.59052h4.61031a.90471.90471,0,0,1,.9039.9046m-9.8606,6.13811a4.3511,4.3511,0,0,0,4.34639,4.345h4.61031a.6615.6615,0,0,0,.6599-.6608V202.15a.66073.66073,0,0,0-.6599-.6599H184.9612a4.3514,4.3514,0,0,0-4.34639,4.34581Z" transform="translate(-34.897 -108.66821)" style="fill:#003915"/><path d="M181.705,208.2878a3.25879,3.25879,0,0,0,3.2562,3.2545h2.68811a.56791.56791,0,0,0,.56749-.5672V207.3997h.24521v3.57539a.81405.81405,0,0,1-.8127.81241H184.9612a3.50409,3.50409,0,0,1-3.50079-3.49971V205.8356a3.5047,3.5047,0,0,1,3.50079-3.50081h2.68811a.81448.81448,0,0,1,.8127.81351v3.57539h-.24521V203.1483a.56827.56827,0,0,0-.56749-.5683H184.9612a3.25935,3.25935,0,0,0-3.2562,3.2556Z" transform="translate(-34.897 -108.66821)" style="fill:#003915"/><path d="M185.3087,207.061a.7835.7835,0,1,1-.78349-.7838.7848.7848,0,0,1,.78349.7838m-1.3223,0a.5387.5387,0,1,0,.5388-.5392A.5396.5396,0,0,0,183.9864,207.061Z" transform="translate(-34.897 -108.66821)" style="fill:#003915"/><rect x="149.07041" y="98.27028" width="1.11649" height="0.24501" style="fill:#003915"/><rect x="149.5058" y="97.83519" width="0.2455" height="1.116" style="fill:#003915"/><path d="M189.29311,206.72369V206.32a.17364.17364,0,0,0-.174-.1729h-.37929a.17372.17372,0,0,0-.1741.1729v.4037h-.2449V206.32a.41869.41869,0,0,1,.419-.41809h.37929a.4186.4186,0,0,1,.41861.41809v.4057l-.0374-.002Zm-.7274,1.0771a.17455.17455,0,0,0,.1741.1741h.37929a.17447.17447,0,0,0,.174-.1741v-.40109h.2072l.0374-.0022v.40329a.41854.41854,0,0,1-.41861.4187h-.37929a.41862.41862,0,0,1-.419-.4187v-.40109h.2449Z" transform="translate(-34.897 -108.66821)" style="fill:#003915"/><path d="M189.96069,207.061a.46105.46105,0,0,1-.46039.4612h-3.0804a.4605.4605,0,0,1,0-.921h3.0804a.46062.46062,0,0,1,.46039.45981m-3.75679,0a.21676.21676,0,0,0,.216.21629h3.0804a.2156.2156,0,0,0,0-.4312h-3.0804A.21609.21609,0,0,0,186.2039,207.061Z" transform="translate(-34.897 -108.66821)" style="fill:#003915"/><path d="M247.18649,216.13609a3.9169,3.9169,0,0,1-3.913,3.9115h-5.6653a.6773.6773,0,0,1-.63921-.45609,1.24882,1.24882,0,0,1-.20489.2036.94558.94558,0,0,0,.8441.5215h5.6653a4.1808,4.1808,0,1,0,0-8.3616h-5.6653a.94552.94552,0,0,0-.8436.521,1.23754,1.23754,0,0,1,.2047.20331.67634.67634,0,0,1,.6389-.45561h5.6653a3.91715,3.91715,0,0,1,3.913,3.9124" transform="translate(-34.897 -108.66821)" style="fill:#003915"/><path d="M238.6891,213.3324v5.6089a.20391.20391,0,0,0,.20149.2012h4.27071a3.00655,3.00655,0,1,0,0-6.01311h-4.27071a.20468.20468,0,0,0-.20149.203m.2681,5.5414v-5.476h4.2041a2.738,2.738,0,0,1,0,5.476Z" transform="translate(-34.897 -108.66821)" style="fill:#003915"/><path d="M241.42,216.1364a1.00815,1.00815,0,1,0,1.008-1.0089,1.01,1.01,0,0,0-1.008,1.0089m1.7475,0a.7394.7394,0,1,1-.7395-.73979A.74037.74037,0,0,1,243.1675,216.1364Z" transform="translate(-34.897 -108.66821)" style="fill:#003915"/><rect x="239.22269" y="217.62355" width="2.24223" height="0.26854" transform="translate(-117.39824 78.19155) rotate(-36.71054)" style="fill:#003915"/><rect x="240.20941" y="213.43697" width="0.26918" height="2.24307" transform="translate(-110.33771 169.76991) rotate(-53.1917)" style="fill:#003915"/><path d="M233.1873,213.4355v5.4006a1.355,1.355,0,0,0,1.35381,1.35239h1.47429a1.35344,1.35344,0,0,0,1.3524-1.35239v-5.4006a1.35313,1.35313,0,0,0-1.3524-1.35181h-1.47429a1.35471,1.35471,0,0,0-1.35381,1.35181m3.91209,5.4006a1.0855,1.0855,0,0,1-1.084,1.08429h-1.47429a1.08594,1.08594,0,0,1-1.08511-1.08429v-5.4006a1.08592,1.08592,0,0,1,1.08511-1.0836h1.47429a1.08548,1.08548,0,0,1,1.084,1.0836Z" transform="translate(-34.897 -108.66821)" style="fill:#003915"/><path d="M234.5896,216.1364a.6881.6881,0,1,0,.68739-.68829.68809.68809,0,0,0-.68739.68829m1.10719,0a.41924.41924,0,1,1-.4198-.41949A.41944.41944,0,0,1,235.69679,216.1364Z" transform="translate(-34.897 -108.66821)" style="fill:#003915"/><path d="M176.4763,229.8011a3.91682,3.91682,0,0,0,3.9129,3.9115h5.6653a.67708.67708,0,0,0,.63919-.4561,1.24177,1.24177,0,0,0,.205.20351.946.946,0,0,1-.84419.52159h-5.6653a4.1808,4.1808,0,1,1,0-8.3616h5.6653a.94543.94543,0,0,1,.8436.521,1.24093,1.24093,0,0,0-.2047.20319.67618.67618,0,0,0-.6389-.45549h-5.6653a3.917,3.917,0,0,0-3.9129,3.9124" transform="translate(-34.897 -108.66821)" style="fill:#003915"/><path d="M184.97369,226.9973v5.609a.204.204,0,0,1-.2016.2012H180.5014a3.00655,3.00655,0,1,1,0-6.01309h4.27069a.20473.20473,0,0,1,.2016.2029m-.26819,5.5415v-5.476h-4.2041a2.738,2.738,0,0,0,0,5.476Z" transform="translate(-34.897 -108.66821)" style="fill:#003915"/><path d="M182.2428,229.80141a1.00815,1.00815,0,1,1-1.008-1.00891,1.01011,1.01011,0,0,1,1.008,1.00891m-1.7476,0a.7394.7394,0,1,0,.73961-.73991A.74039.74039,0,0,0,180.49519,229.80141Z" transform="translate(-34.897 -108.66821)" style="fill:#003915"/><rect x="183.18468" y="230.3017" width="0.26854" height="2.24215" transform="translate(-146.68684 131.30678) rotate(-53.27585)" style="fill:#003915"/><rect x="182.19721" y="228.08889" width="2.24305" height="0.26917" transform="translate(-135.0936 46.68024) rotate(-36.81181)" style="fill:#003915"/><path d="M190.4754,227.10049v5.4006a1.355,1.355,0,0,1-1.35381,1.3524h-1.4743a1.35343,1.35343,0,0,1-1.35239-1.3524v-5.4006a1.3531,1.3531,0,0,1,1.35239-1.35179h1.4743a1.3547,1.3547,0,0,1,1.35381,1.35179m-3.91211,5.4006a1.0855,1.0855,0,0,0,1.084,1.0842h1.4743a1.08585,1.08585,0,0,0,1.0851-1.0842v-5.4006a1.08593,1.08593,0,0,0-1.0851-1.08369h-1.4743a1.08558,1.08558,0,0,0-1.084,1.08369Z" transform="translate(-34.897 -108.66821)" style="fill:#003915"/><path d="M189.0731,229.80141a.6881.6881,0,1,1-.68741-.68831.68816.68816,0,0,1,.68741.68831m-1.10721,0a.41925.41925,0,1,0,.4198-.4196A.41942.41942,0,0,0,187.9659,229.80141Z" transform="translate(-34.897 -108.66821)" style="fill:#003915"/><path d="M176.4763,259.562a3.91691,3.91691,0,0,0,3.9129,3.91161h5.6653a.67722.67722,0,0,0,.63919-.4561,1.24108,1.24108,0,0,0,.205.20349.94594.94594,0,0,1-.84419.52161h-5.6653a4.18085,4.18085,0,1,1,0-8.36169h5.6653a.94541.94541,0,0,1,.8436.521,1.24576,1.24576,0,0,0-.2047.20329.67606.67606,0,0,0-.6389-.45549h-5.6653a3.917,3.917,0,0,0-3.9129,3.91229" transform="translate(-34.897 -108.66821)" style="fill:#003915"/><path d="M184.97369,256.7583v5.6089a.20407.20407,0,0,1-.2016.20129H180.5014a3.0066,3.0066,0,1,1,0-6.0132h4.27069a.20475.20475,0,0,1,.2016.203m-.26819,5.5414v-5.47589h-4.2041a2.73795,2.73795,0,0,0,0,5.47589Z" transform="translate(-34.897 -108.66821)" style="fill:#003915"/><path d="M182.2428,259.5623a1.00815,1.00815,0,1,1-1.008-1.0088,1.01006,1.01006,0,0,1,1.008,1.0088m-1.7476,0a.7394.7394,0,1,0,.73961-.73981A.74041.74041,0,0,0,180.49519,259.5623Z" transform="translate(-34.897 -108.66821)" style="fill:#003915"/><rect x="183.18468" y="260.06265" width="0.26854" height="2.24215" transform="translate(-170.54313 143.34757) rotate(-53.28946)" style="fill:#003915"/><rect x="182.19722" y="257.84979" width="2.24302" height="0.26921" transform="translate(-152.92232 52.60285) rotate(-36.80962)" style="fill:#003915"/><path d="M190.4754,256.8615v5.4005a1.355,1.355,0,0,1-1.35381,1.3524h-1.4743a1.35343,1.35343,0,0,1-1.35239-1.3524v-5.4005a1.35319,1.35319,0,0,1,1.35239-1.3519h1.4743a1.35479,1.35479,0,0,1,1.35381,1.3519m-3.91211,5.4005a1.08552,1.08552,0,0,0,1.084,1.0843h1.4743a1.08587,1.08587,0,0,0,1.0851-1.0843v-5.4005a1.08593,1.08593,0,0,0-1.0851-1.08369h-1.4743a1.08558,1.08558,0,0,0-1.084,1.08369Z" transform="translate(-34.897 -108.66821)" style="fill:#003915"/><path d="M189.0731,259.5623a.6881.6881,0,1,1-.68741-.6882.68809.68809,0,0,1,.68741.6882m-1.10721,0a.41925.41925,0,1,0,.4198-.41949A.41949.41949,0,0,0,187.9659,259.5623Z" transform="translate(-34.897 -108.66821)" style="fill:#003915"/><path d="M160.3689,237.52209H152.5294v-11.3479h7.83949Zm-8.17079.33081h8.5025V225.84309h-8.5025Z" transform="translate(-34.897 -108.66821)" style="fill:#003915"/><path d="M160.5934,235.1277a.60439.60439,0,0,0,.61259-.5936V229.1619a.60406.60406,0,0,0-.61259-.5939v.33081a.26978.26978,0,0,1,.281.26309v5.37221a.26955.26955,0,0,1-.281.2628Z" transform="translate(-34.897 -108.66821)" style="fill:#003915"/><path d="M157.9669,232.8699h-2.7077l-.6216-1.59731a2.47366,2.47366,0,0,1,1.6747.0918,4.15136,4.15136,0,0,0,1.24069.24121,2.44952,2.44952,0,0,0,.9366-.1882Zm-2.9342.3308h3.1669l.89211-2.4801-.3907.22481a2.26553,2.26553,0,0,1-1.148.32939,3.89166,3.89166,0,0,1-1.1438-.22679,3.9,3.9,0,0,0-1.144-.2281,2.018,2.018,0,0,0-.91249.2179l-.1358.0675Z" transform="translate(-34.897 -108.66821)" style="fill:#003915"/><path d="M170.27229,303.755V273.6701a2.16109,2.16109,0,0,1,2.16571-2.1515H182.8494a2.16088,2.16088,0,0,1,2.16591,2.1515V303.755a2.16082,2.16082,0,0,1-2.16591,2.1512H172.438a2.161,2.161,0,0,1-2.16571-2.1512M184.7854,273.6701a1.93108,1.93108,0,0,0-1.936-1.92191H172.438a1.931,1.931,0,0,0-1.9355,1.92191V303.755a1.93148,1.93148,0,0,0,1.9355,1.9222H182.8494a1.93153,1.93153,0,0,0,1.936-1.9222Z" transform="translate(-34.897 -108.66821)" style="fill:#003915"/><path d="M183.5235,276.65579a2.57712,2.57712,0,0,0-2.58209-2.5654h-6.5948a2.5766,2.5766,0,0,0-2.5818,2.5654V300.769a2.577,2.577,0,0,0,2.5818,2.5659h2.06189a.39655.39655,0,0,0-.142.2282H174.3466A2.80641,2.80641,0,0,1,171.534,300.769v-24.1132a2.80666,2.80666,0,0,1,2.81261-2.79439h6.5948a2.80657,2.80657,0,0,1,2.81219,2.79439V300.769a2.80632,2.80632,0,0,1-2.81219,2.79411h-1.92021a.3952.3952,0,0,0-.14149-.2282h2.06171a2.57754,2.57754,0,0,0,2.58209-2.5659Z" transform="translate(-34.897 -108.66821)" style="fill:#003915"/><path d="M182.21021,278.2032a1.26666,1.26666,0,0,0-1.2688-1.26111h-6.5948a1.26634,1.26634,0,0,0-1.2682,1.26111V300.769a1.2662,1.2662,0,0,0,1.2682,1.26141h2.8448v.2288h-2.8448a1.49623,1.49623,0,0,1-1.499-1.4902V278.2032a1.49572,1.49572,0,0,1,1.499-1.4893h6.5948a1.49532,1.49532,0,0,1,1.4989,1.4893V300.769a1.49582,1.49582,0,0,1-1.4989,1.4902H178.0963v-.2288h2.84511a1.26653,1.26653,0,0,0,1.2688-1.26141Z" transform="translate(-34.897 -108.66821)" style="fill:#003915"/><path d="M176.9111,298.8638a.73331.73331,0,1,1,.7336.73.73145.73145,0,0,1-.7336-.73m1.2365,0a.5033.5033,0,1,0-.5029.5003A.5019.5019,0,0,0,178.1476,298.8638Z" transform="translate(-34.897 -108.66821)" style="fill:#003915"/><rect x="142.2244" y="190.08138" width="1.0457" height="0.2293" style="fill:#003915"/><rect x="142.6323" y="189.67719" width="0.2308" height="1.0377" style="fill:#003915"/><path d="M177.19141,303.3638h-.5374a.27993.27993,0,0,0-.28041.2787v.5051a.28042.28042,0,0,0,.28041.2792h.5374v.22881h-.5374a.51035.51035,0,0,1-.51111-.508v-.5051a.50964.50964,0,0,1,.51111-.5074h.5374Zm1.72209.2787a.27986.27986,0,0,0-.28009-.2787h-.53711v-.2287h.53711a.50918.50918,0,0,1,.51079.5074v.5051a.50989.50989,0,0,1-.51079.508h-.53711v-.22881h.53711a.28035.28035,0,0,0,.28009-.2792Z" transform="translate(-34.897 -108.66821)" style="fill:#003915"/><path d="M177.0761,304.6536v-3.2012a.56761.56761,0,0,1,1.13521,0v3.2012a.56761.56761,0,0,1-1.13521,0m.90511-3.2012a.33721.33721,0,0,0-.67441,0v3.2012a.33721.33721,0,0,0,.67441,0Z" transform="translate(-34.897 -108.66821)" style="fill:#003915"/><path d="M188.3242,181.3638H158.2393a2.161,2.161,0,0,0-2.1515,2.1657v10.4113a2.16089,2.16089,0,0,0,2.1515,2.166h30.0849a2.16083,2.16083,0,0,0,2.1512-2.166V183.5295a2.161,2.161,0,0,0-2.1512-2.1657m-30.0849,14.51309a1.9311,1.9311,0,0,1-1.92191-1.9361V183.5295a1.931,1.931,0,0,1,1.92191-1.9355h30.0849a1.93141,1.93141,0,0,1,1.9222,1.9355v10.4113a1.93154,1.93154,0,0,1-1.9222,1.9361Z" transform="translate(-34.897 -108.66821)" style="fill:#003915"/><path d="M161.225,194.6149a2.577,2.577,0,0,1-2.56531-2.58209V185.438a2.57659,2.57659,0,0,1,2.56531-2.5818H185.3382a2.5771,2.5771,0,0,1,2.5659,2.5818V187.5a.39651.39651,0,0,1,.2282-.14211V185.438a2.80638,2.80638,0,0,0-2.7941-2.8125H161.225a2.80664,2.80664,0,0,0-2.7944,2.8125v6.5948a2.80658,2.80658,0,0,0,2.7944,2.81229H185.3382a2.80632,2.80632,0,0,0,2.7941-2.81229v-1.92021a.39546.39546,0,0,1-.2282-.14139v2.0616a2.57748,2.57748,0,0,1-2.5659,2.58209Z" transform="translate(-34.897 -108.66821)" style="fill:#003915"/><path d="M162.7724,193.30161a1.26665,1.26665,0,0,1-1.26109-1.2688V185.438a1.26633,1.26633,0,0,1,1.26109-1.2682h22.5658a1.2662,1.2662,0,0,1,1.2614,1.2682v2.84489h.22881V185.438a1.49619,1.49619,0,0,0-1.4902-1.4989H162.7724a1.49569,1.49569,0,0,0-1.4893,1.4989v6.5948a1.49533,1.49533,0,0,0,1.4893,1.499h22.5658a1.49583,1.49583,0,0,0,1.4902-1.499V189.1877h-.22881v2.84511a1.26653,1.26653,0,0,1-1.2614,1.2688Z" transform="translate(-34.897 -108.66821)" style="fill:#003915"/><path d="M183.433,188.0025a.73335.73335,0,1,0,.73.7336.73157.73157,0,0,0-.73-.7336m0,1.2365a.5033.5033,0,1,1,.5004-.5029A.50185.50185,0,0,1,183.433,189.239Z" transform="translate(-34.897 -108.66821)" style="fill:#003915"/><rect x="148.4218" y="79.54469" width="0.22929" height="1.0457" style="fill:#003915"/><rect x="148.0176" y="79.95259" width="1.0377" height="0.2307" style="fill:#003915"/><path d="M187.933,188.2829v-.53751a.27984.27984,0,0,1,.2787-.28029h.5051a.28026.28026,0,0,1,.27921.28029v.53751h.22879v-.53751a.51041.51041,0,0,0-.508-.51109h-.5051a.50971.50971,0,0,0-.5074.51109v.53751Zm.2787,1.722a.27977.27977,0,0,1-.2787-.28v-.5372h-.2287v.5372a.50927.50927,0,0,0,.5074.5108h.5051a.51.51,0,0,0,.508-.5108v-.5372H188.996v.5372a.2802.2802,0,0,1-.27921.28Z" transform="translate(-34.897 -108.66821)" style="fill:#003915"/><path d="M189.22279,188.1675h-3.20119a.56766.56766,0,0,0,0,1.1353h3.20119a.56766.56766,0,0,0,0-1.1353m-3.20119.90511a.33715.33715,0,0,1,0-.6743h3.20119a.33716.33716,0,0,1,0,.6743Z" transform="translate(-34.897 -108.66821)" style="fill:#003915"/><path d="M260.21231,243.9752H248.4431V255.744h11.76921Zm-11.51981.24939h11.2706v11.2706H248.6925Z" transform="translate(-34.897 -108.66821)" style="fill:#003915"/><path d="M254.3278,254.6459a3.91956,3.91956,0,0,1-.9816-7.7142.30009.30009,0,0,1-.07431-.1976v-.0405a4.16847,4.16847,0,1,0,2.11151-.00031v.0408a.298.298,0,0,1-.074.1973,3.91973,3.91973,0,0,1-.9816,7.71451" transform="translate(-34.897 -108.66821)" style="fill:#003915"/><path d="M254.3278,247.24519A3.48151,3.48151,0,1,0,257.809,250.727a3.48577,3.48577,0,0,0-3.48119-3.48181m0,6.71361a3.23195,3.23195,0,1,1,3.2318-3.2318A3.2355,3.2355,0,0,1,254.3278,253.9588Z" transform="translate(-34.897 -108.66821)" style="fill:#003915"/><path d="M254.3278,249.82449a.90225.90225,0,1,0,.90259.90251.90333.90333,0,0,0-.90259-.90251m0,1.5556a.65295.65295,0,1,1,.65309-.65309A.65425.65425,0,0,1,254.3278,251.3801Z" transform="translate(-34.897 -108.66821)" style="fill:#003915"/><rect x="219.3061" y="141.40149" width="0.2494" height="1.3138" style="fill:#003915"/><rect x="218.77401" y="141.93349" width="1.3136" height="0.2498" style="fill:#003915"/><path d="M255.0815,245.9203h-1.5074a.427.427,0,0,0-.42659.42659v.38721a.4268.4268,0,0,0,.42659.42661h1.5074a.42688.42688,0,0,0,.4267-.42661v-.38721a.42707.42707,0,0,0-.4267-.42659m-1.5074.991a.17773.17773,0,0,1-.17749-.1772v-.38721a.17745.17745,0,0,1,.17749-.17709h1.5074a.17719.17719,0,0,1,.1772.17709v.38721a.17747.17747,0,0,1-.1772.1772Z" transform="translate(-34.897 -108.66821)" style="fill:#003915"/><path d="M254.1078,246.045v-.0864a.2197.2197,0,1,1,.43939,0v.0864h.24971v-.0864a.46941.46941,0,0,0-.93881,0v.0864Zm.22,2.59a.22048.22048,0,0,1-.22-.22049V247.036h-.24971v1.37851a.46941.46941,0,1,0,.93881,0V247.036h-.24971v1.37851A.22.22,0,0,1,254.3278,248.635Z" transform="translate(-34.897 -108.66821)" style="fill:#003915"/><path d="M231.5475,244.4565h7.1566a1.49611,1.49611,0,0,1,1.49409,1.49471v8.29869a1.49592,1.49592,0,0,1-1.49409,1.49411h-7.1566a1.49556,1.49556,0,0,1-1.4942-1.49411V245.9512a1.49575,1.49575,0,0,1,1.4942-1.49471m7.1566,11.0545a1.26262,1.26262,0,0,0,1.26109-1.26111V245.9512a1.26274,1.26274,0,0,0-1.26109-1.2617h-7.1566a1.263,1.263,0,0,0-1.2617,1.2617v8.29869a1.26288,1.26288,0,0,0,1.2617,1.26111Z" transform="translate(-34.897 -108.66821)" style="fill:#003915"/><path d="M231.5475,245.27541h7.1566a.67622.67622,0,0,1,.6758.6758v7.01059a.67636.67636,0,0,1-.6758.67581h-7.1566a.6765.6765,0,0,1-.67641-.67581V245.9512a.67636.67636,0,0,1,.67641-.6758m7.1566,8.1292a.44317.44317,0,0,0,.443-.44281V245.9512a.44348.44348,0,0,0-.443-.4431h-7.1566a.44386.44386,0,0,0-.44389.4431v7.01059a.44355.44355,0,0,0,.44389.44281Z" transform="translate(-34.897 -108.66821)" style="fill:#003915"/><path d="M238.00391,254.0563a.47425.47425,0,1,1-.47421.4742.475.475,0,0,1,.47421-.4742m0,.7155a.24125.24125,0,1,0-.2415-.2413A.24187.24187,0,0,0,238.00391,254.7718Z" transform="translate(-34.897 -108.66821)" style="fill:#003915"/><path d="M236.4032,254.0563a.47425.47425,0,1,1-.47479.4742.475.475,0,0,1,.47479-.4742m0,.7155a.24125.24125,0,1,0-.24179-.2413A.24156.24156,0,0,0,236.4032,254.7718Z" transform="translate(-34.897 -108.66821)" style="fill:#003915"/><rect x="200.8341" y="138.74959" width="2.7196" height="0.2328" style="fill:#003915"/><rect x="202.0774" y="137.50549" width="0.23271" height="2.71959" style="fill:#003915"/><path d="M237.0909,246.63721a.89684.89684,0,1,1-.89659.8969.898.898,0,0,1,.89659-.8969m0,1.561a.6643.6643,0,1,0-.66389-.66409A.66554.66554,0,0,0,237.0909,248.1982Z" transform="translate(-34.897 -108.66821)" style="fill:#003915"/><rect x="200.8341" y="142.59479" width="2.7196" height="0.2325" style="fill:#003915"/><rect x="202.0774" y="141.35039" width="0.23271" height="2.7204" style="fill:#003915"/><path d="M237.0909,250.48151a.89719.89719,0,1,1-.89659.89749.8986.8986,0,0,1,.89659-.89749m0,1.56189a.6647.6647,0,1,0-.66389-.6644A.66541.66541,0,0,0,237.0909,252.0434Z" transform="translate(-34.897 -108.66821)" style="fill:#003915"/><rect x="196.9036" y="138.74959" width="2.7193" height="0.2328" style="fill:#003915"/><rect x="198.14631" y="137.50549" width="0.233" height="2.71959" style="fill:#003915"/><path d="M233.15981,246.63721a.89684.89684,0,1,1-.89691.8969.89782.89782,0,0,1,.89691-.8969m0,1.561a.6643.6643,0,1,0-.66391-.66409A.666.666,0,0,0,233.15981,248.1982Z" transform="translate(-34.897 -108.66821)" style="fill:#003915"/><rect x="196.9036" y="142.59479" width="2.7193" height="0.2325" style="fill:#003915"/><rect x="198.14631" y="141.35039" width="0.233" height="2.7204" style="fill:#003915"/><path d="M233.15981,250.48151a.89719.89719,0,1,1-.89691.89749.89847.89847,0,0,1,.89691-.89749m0,1.56189a.6647.6647,0,1,0-.66391-.6644A.66592.66592,0,0,0,233.15981,252.0434Z" transform="translate(-34.897 -108.66821)" style="fill:#003915"/><path d="M233.68961,254.0563a.47425.47425,0,1,1-.4745.4742.47482.47482,0,0,1,.4745-.4742m0,.7155a.24125.24125,0,1,0-.24181-.2413A.24169.24169,0,0,0,233.68961,254.7718Z" transform="translate(-34.897 -108.66821)" style="fill:#003915"/><path d="M232.088,254.0563a.47425.47425,0,1,1-.47389.4742.47466.47466,0,0,1,.47389-.4742m0,.7155a.24125.24125,0,1,0-.2415-.2413A.24163.24163,0,0,0,232.088,254.7718Z" transform="translate(-34.897 -108.66821)" style="fill:#003915"/><path d="M259.19351,233.57339h7.056v2.49991h-7.056Zm-4.09381,0h2.87521v2.49991H255.0997Zm-4.4218,0h2.4843v2.49991h-2.4843Zm-12.7692,0h6.48419v2.49991h-6.48419Zm7.71869,0h3.86281v2.49991H245.6274Zm13.56612,4.44991h7.056v2.4998h-7.056Zm-4.09381,0h2.87521v2.4998H255.0997Zm-4.4218,0h2.4843v2.4998h-2.4843Zm-12.7692,0h6.48419v2.4998h-6.48419Zm7.71869,0h3.86281v2.4998H245.6274Zm21.74721,3.6442h-30.6v-9.688h30.6Z" transform="translate(-34.897 -108.66821)" style="fill:#003915;fill-rule:evenodd"/><path d="M186.2691,276.8222v-7.056h3.8123v7.056Zm0,6.59369V278.0408h3.8123v5.37509Zm0,4.42171v-2.4843h3.8123v2.4843Zm0,12.7693v-6.4843h3.8123v6.4843Zm0-7.71881V289.0253h3.8123v3.86279Zm5.24069,16.39451H184.6752V268.6411h6.83459v1.12511h-.79089v7.056h.79089v1.2186h-.79089v2.8752h.79089v1.9375h-.79089v2.4843h.79089v1.1877h-.79089v3.8627h.79089v1.2345h-.79089V298.107h.79089Z" transform="translate(-34.897 -108.66821)" style="fill:#003915;fill-rule:evenodd"/><path d="M188.7265,271.4698a.80925.80925,0,1,0,.2347.57089.81025.81025,0,0,0-.2347-.57089m-.5726-1.0363a1.6069,1.6069,0,1,1-1.13651.4705A1.60322,1.60322,0,0,1,188.1539,270.4335Z" transform="translate(-34.897 -108.66821)" style="fill:#003915"/><path d="M235.28661,238.34979a.809.809,0,1,0,.23479.57091.80986.80986,0,0,0-.23479-.57091m-.5726-1.0363a1.60692,1.60692,0,1,1-1.1364.4705A1.603,1.603,0,0,1,234.714,237.31349Z" transform="translate(-34.897 -108.66821)" style="fill:#003915"/><path d="M342.32681,210.57a.314.314,0,0,0-.318.324.30316.30316,0,0,0,.216.30591l-.2041.86989h.288l.252-.828a.97638.97638,0,0,0,.0842-.34781.314.314,0,0,0-.31808-.324m6.5878.2639c-.732,0-1.236-.61789-1.236-1.7399s.504-1.7399,1.236-1.7399,1.2359.6179,1.2359,1.7399S349.64651,210.83389,348.91461,210.83389Zm0,.396c.972,0,1.67978-.7979,1.67978-2.13591s-.70779-2.13589-1.67978-2.13589-1.67392.7979-1.67392,2.13589S347.9426,211.2299,348.91461,211.2299Zm-3.972-.396c-.7319,0-1.2359-.61789-1.2359-1.7399s.504-1.7399,1.2359-1.7399,1.236.6179,1.236,1.7399S345.67459,210.83389,344.9426,210.83389Zm0,.396c.972,0,1.6799-.7979,1.6799-2.13591s-.70789-2.13589-1.6799-2.13589-1.6738.7979-1.6738,2.13589S343.97061,211.2299,344.9426,211.2299Zm-6.59988-4.23581V208.164h.42609v-.7861h2.16l-1.728,3.816h.468l1.758-3.89389v-.30591Zm-2.304,0v.3838h.9902v3.816h.432v-4.1998Z" transform="translate(-34.897 -108.66821)" style="fill:#83746c;fill-rule:evenodd"/><path d="M258.22009,215.508c-.7319,0-1.2359-.618-1.2359-1.74s.504-1.7399,1.2359-1.7399,1.2359.618,1.2359,1.7399-.504,1.74-1.2359,1.74m0,.396c.972,0,1.67981-.798,1.67981-2.136s-.70779-2.13591-1.67981-2.13591-1.67389.798-1.67389,2.13591S257.24811,215.904,258.22009,215.904Zm-4.0981-4.2359v.3839h.9902v3.816h.432v-4.19989Zm-.61169,3.5759a.31405.31405,0,0,0-.318.324.303.303,0,0,0,.216.30591l-.2041.87h.288l.252-.828a.97574.97574,0,0,0,.08409-.3479A.31394.31394,0,0,0,253.5103,215.244Zm-3.24.2399,1.4281-1.40381a1.72865,1.72865,0,0,0,.68991-1.31409c0-.7019-.54-1.13391-1.392-1.13391a1.88724,1.88724,0,0,0-1.488.5999l.30589.2641a1.42641,1.42641,0,0,1,1.1461-.468c.642,0,.9839.2999.9839.78609,0,.2877-.0899.56981-.5639,1.03781l-1.74609,1.7101v.30589h2.94611v-.38409Z" transform="translate(-34.897 -108.66821)" style="fill:#83746c;fill-rule:evenodd"/><path d="M89.2621,214.9572c-.7319,0-1.2359-.618-1.2359-1.7399s.504-1.7399,1.2359-1.7399,1.2359.6179,1.2359,1.7399-.504,1.7399-1.2359,1.7399m0,.396c.972,0,1.6799-.798,1.6799-2.13589s-.7079-2.13589-1.6799-2.13589-1.6738.7979-1.6738,2.13589S88.2901,215.3532,89.2621,215.3532Zm-3.9719-.396c-.7319,0-1.2359-.618-1.2359-1.7399s.504-1.7399,1.2359-1.7399,1.2359.6179,1.2359,1.7399S86.0221,214.9572,85.2902,214.9572Zm0,.396c.972,0,1.6798-.798,1.6798-2.13589s-.7078-2.13589-1.6798-2.13589-1.6738.7979-1.6738,2.13589S84.3182,215.3532,85.2902,215.3532Zm-2.5497-.6599a.31408.31408,0,0,0-.3181.324.30312.30312,0,0,0,.216.3058l-.20409.87h.288l.252-.828a.9761.9761,0,0,0,.08421-.34779A.314.314,0,0,0,82.7405,214.6933Zm-2.2862-1.77589,1.188-1.4942v-.3058h-2.7v.3838h2.1481l-1.1639,1.4581v.3181h.2999c.7798,0,1.1339.32989,1.1339.83389,0,.5219-.3838.8459-1.08.8459a1.84129,1.84129,0,0,1-1.302-.4859l-.21.3419a2.185,2.185,0,0,0,1.512.54c1.0139,0,1.5239-.54,1.5239-1.2419C81.8042,213.43919,81.3543,212.9653,80.4543,212.9174Zm-3.852-1.8v.3838h.9902v3.816h.432v-4.1998Z" transform="translate(-34.897 -108.66821)" style="fill:#83746c;fill-rule:evenodd"/><path d="M70.2746,148.27811c-.732,0-1.236-.618-1.236-1.7399s.504-1.7399,1.236-1.7399,1.2359.61789,1.2359,1.7399-.504,1.7399-1.2359,1.7399m0,.396c.972,0,1.6798-.798,1.6798-2.13589s-.7078-2.13589-1.6798-2.13589-1.6739.79788-1.6739,2.13589S69.3026,148.6741,70.2746,148.6741Zm-3.972-.396c-.7319,0-1.23589-.618-1.23589-1.7399s.504-1.7399,1.23589-1.7399,1.236.61789,1.236,1.7399S67.0346,148.27811,66.3026,148.27811Zm0,.396c.972,0,1.6799-.798,1.6799-2.13589s-.7079-2.13589-1.6799-2.13589-1.6738.79788-1.6738,2.13589S65.3306,148.6741,66.3026,148.6741Zm-2.5497-.65991a.31408.31408,0,0,0-.3181.324.30313.30313,0,0,0,.216.30582l-.2041.87h.288l.252-.828a.9763.9763,0,0,0,.0842-.34781A.314.314,0,0,0,63.7529,148.01419ZM61.1308,146.16h-.54l.144-1.33789h1.9199v-.38382H60.357l-.216,2.1058h.894c1.0678,0,1.4037.33591,1.4037.87592,0,.51-.3778.85809-1.0919.85809a1.821,1.821,0,0,1-1.29-.4859l-.2098.34189a2.16868,2.16868,0,0,0,1.5058.54c1.0261,0,1.5239-.55789,1.5239-1.27191C62.8767,146.65811,62.3968,146.16,61.1308,146.16Zm-3.528-1.72171v.38382h.9902v3.816h.432v-4.1998Z" transform="translate(-34.897 -108.66821)" style="fill:#83746c;fill-rule:evenodd"/><path d="M100.7796,281.4781c-.7319,0-1.2359-.618-1.2359-1.7399s.504-1.7399,1.2359-1.7399,1.2359.61789,1.2359,1.7399-.504,1.7399-1.2359,1.7399m0,.396c.972,0,1.67979-.798,1.67979-2.13589s-.70779-2.13591-1.67979-2.13591-1.6739.7979-1.6739,2.13591S99.8076,281.8741,100.7796,281.8741Zm-5.2078-4.23579v1.1698h.426v-.786h2.16l-1.728,3.816h.468l1.7581-3.894v-.30579Zm-.7498,3.5759a.314.314,0,0,0-.318.324.303.303,0,0,0,.216.3058l-.2041.87h.288l.252-.828a.97622.97622,0,0,0,.0842-.34781A.314.314,0,0,0,94.822,281.2142ZM92.2,279.36h-.54l.144-1.33791h1.9199v-.38379H91.4261l-.216,2.10579h.8941c1.06779,0,1.40369.33591,1.40369.8759,0,.51-.3779.85811-1.0919.85811a1.82145,1.82145,0,0,1-1.2901-.4859l-.2097.3419a2.16858,2.16858,0,0,0,1.5057.54c1.0262,0,1.5239-.55791,1.5239-1.2719C93.9458,279.85809,93.4659,279.36,92.2,279.36Zm-3.528-1.72169v.38379h.9901v3.816h.432v-4.1998Z" transform="translate(-34.897 -108.66821)" style="fill:#83746c;fill-rule:evenodd"/><path d="M144.03371,227.7579c-.7319,0-1.2359-.618-1.2359-1.7399s.504-1.7399,1.2359-1.7399,1.2359.61789,1.2359,1.7399-.504,1.7399-1.2359,1.7399m0,.396c.972,0,1.67979-.798,1.67979-2.13589s-.70779-2.13591-1.67979-2.13591-1.67381.7979-1.67381,2.13591S143.06171,228.1539,144.03371,228.1539Zm-4.5-.4201,1.4281-1.4037a1.72916,1.72916,0,0,0,.69-1.31419c0-.7018-.54-1.1338-1.39209-1.1338a1.88723,1.88723,0,0,0-1.4879.59981l.3058.26419a1.42617,1.42617,0,0,1,1.14609-.468c.642,0,.9839.2999.9839.786,0,.2877-.08989.56979-.5638,1.0378l-1.7462,1.7101v.30591h2.94611v-.38411Zm-1.55991-.23979a.314.314,0,0,0-.318.324.303.303,0,0,0,.216.3058l-.2041.87h.288l.252-.828a.976.976,0,0,0,.0842-.34781A.314.314,0,0,0,137.9738,227.494Zm-2.622-1.8542h-.54l.144-1.33791h1.91991v-.38379H134.5779l-.216,2.10579h.8941c1.06781,0,1.4037.33591,1.4037.8759,0,.51-.3779.85811-1.0919.85811a1.82146,1.82146,0,0,1-1.2901-.4859l-.2097.3419a2.16862,2.16862,0,0,0,1.50571.54c1.0262,0,1.5239-.55791,1.5239-1.2719C137.0976,226.13789,136.61771,225.6398,135.35181,225.6398Z" transform="translate(-34.897 -108.66821)" style="fill:#83746c;fill-rule:evenodd"/><path d="M174.3661,213.833c-.7319,0-1.2359-.618-1.2359-1.7399s.504-1.7399,1.2359-1.7399,1.2359.6179,1.2359,1.7399-.504,1.7399-1.2359,1.7399m0,.396c.972,0,1.6799-.798,1.6799-2.13591s-.7079-2.13589-1.6799-2.13589-1.6738.7979-1.6738,2.13589S173.3941,214.229,174.3661,214.229Zm-3.97191-.396c-.7319,0-1.2359-.618-1.2359-1.7399s.504-1.7399,1.2359-1.7399,1.2359.6179,1.2359,1.7399S171.1261,213.833,170.3942,213.833Zm0,.396c.972,0,1.67981-.798,1.67981-2.13591s-.70781-2.13589-1.67981-2.13589-1.6738.7979-1.6738,2.13589S169.4222,214.229,170.3942,214.229Zm-2.5497-.65991a.31409.31409,0,0,0-.3181.324.30312.30312,0,0,0,.216.3058l-.2041.87h.288l.252-.828a.97614.97614,0,0,0,.08421-.34781A.314.314,0,0,0,167.8445,213.56909Zm-2.34.29391c-.726,0-1.11011-.43791-1.11011-.9a.97212.97212,0,0,1,1.08-.9178c.648,0,1.05591.3537,1.05591.9059A.91882.91882,0,0,1,165.5045,213.863Zm.036-2.18411a1.3427,1.3427,0,0,0-1.2841.72c-.01189-.12579-.0179-.2457-.0179-.3418,0-1.14011.582-1.72209,1.4879-1.72209a1.47072,1.47072,0,0,1,.81581.1982l.17409-.3481a1.92713,1.92713,0,0,0-.99579-.22791c-1.14011,0-1.91991.7438-1.91991,2.17191,0,1.326.6057,2.0999,1.7217,2.0999a1.30861,1.30861,0,0,0,1.43411-1.2901A1.27168,1.27168,0,0,0,165.5405,211.67889Z" transform="translate(-34.897 -108.66821)" style="fill:#83746c;fill-rule:evenodd"/><path d="M164.35561,148.258c-.7319,0-1.2359-.618-1.2359-1.7399s.504-1.7399,1.2359-1.7399,1.2359.61789,1.2359,1.7399-.504,1.7399-1.2359,1.7399m0,.396c.972,0,1.67979-.798,1.67979-2.13589s-.70779-2.13589-1.67979-2.13589-1.6739.79788-1.6739,2.13589S163.38361,148.654,164.35561,148.654Zm-3.97191-.396c-.7319,0-1.2359-.618-1.2359-1.7399s.504-1.7399,1.2359-1.7399,1.2359.61789,1.2359,1.7399S161.1156,148.258,160.3837,148.258Zm0,.396c.972,0,1.67981-.798,1.67981-2.13589s-.70781-2.13589-1.67981-2.13589-1.6739.79788-1.6739,2.13589S159.4117,148.654,160.3837,148.654Zm-2.5498-.65988a.314.314,0,0,0-.318.324.303.303,0,0,0,.216.30582l-.2041.87h.288l.252-.828a.97591.97591,0,0,0,.0842-.34781A.314.314,0,0,0,157.83389,147.99411Zm-2.28609-1.77591,1.188-1.4942v-.30579h-2.7v.38379h2.1481L155.02,146.2601v.31808h.2999c.7798,0,1.1338.32993,1.1338.83392,0,.52188-.3838.84589-1.08.84589a1.8411,1.8411,0,0,1-1.30191-.4859l-.2101.34192a2.18519,2.18519,0,0,0,1.512.54c1.014,0,1.5239-.54,1.5239-1.24188C156.8976,146.74,156.4478,146.26611,155.54781,146.2182Z" transform="translate(-34.897 -108.66821)" style="fill:#83746c;fill-rule:evenodd"/><path d="M166.1862,276.4574c-.7319,0-1.2359-.618-1.2359-1.7399s.504-1.7399,1.2359-1.7399,1.2359.6179,1.2359,1.7399-.504,1.7399-1.2359,1.7399m0,.396c.972,0,1.67979-.798,1.67979-2.13589s-.70779-2.13589-1.67979-2.13589-1.6739.7979-1.6739,2.13589S165.2142,276.85339,166.1862,276.85339Zm-4.5-.42009,1.4281-1.4037a1.7292,1.7292,0,0,0,.69-1.31421c0-.7018-.54-1.13379-1.39211-1.13379a1.88724,1.88724,0,0,0-1.4879.59979l.3058.26421a1.426,1.426,0,0,1,1.1461-.468c.642,0,.9839.2999.9839.786,0,.2877-.0899.56981-.56381,1.03781l-1.7462,1.7101v.30589h2.94611v-.38409Zm-1.55991-.23981a.314.314,0,0,0-.318.324.303.303,0,0,0,.216.3058l-.2041.87h.288l.252-.828a.97544.97544,0,0,0,.08411-.34779A.314.314,0,0,0,160.1263,276.1935Zm-2.622-1.8542h-.54l.144-1.33789h1.91989v-.3838h-2.29781l-.216,2.1058h.894c1.0679,0,1.40379.33589,1.40379.8759,0,.51-.3779.85809-1.09189.85809a1.82124,1.82124,0,0,1-1.2901-.4859l-.20981.3419a2.16869,2.16869,0,0,0,1.5058.54c1.02611,0,1.52391-.55789,1.52391-1.2719C159.25011,274.8374,158.7702,274.33929,157.5043,274.33929Z" transform="translate(-34.897 -108.66821)" style="fill:#83746c;fill-rule:evenodd"/><path d="M300.8064,294.2442a.31413.31413,0,0,0-.31808.324.3032.3032,0,0,0,.216.30589l-.2041.8699h.288l.252-.828a.97523.97523,0,0,0,.0842-.34779.314.314,0,0,0-.318-.324m5.99982.2639c-.7319,0-1.2359-.6179-1.2359-1.7399s.504-1.7399,1.2359-1.7399,1.2359.618,1.2359,1.7399S307.53809,294.5081,306.80621,294.5081Zm0,.396c.972,0,1.67978-.7979,1.67978-2.13589s-.70779-2.13591-1.67978-2.13591-1.67392.798-1.67392,2.13591S305.8342,294.9041,306.80621,294.9041Zm-3.63013-2.43581,1.188-1.49409v-.30589h-2.7v.38379h2.1481l-1.16391,1.45821v.318h.29993c.77979,0,1.13388.33,1.13388.834,0,.5218-.38379.84581-1.08.84581a1.84164,1.84164,0,0,1-1.302-.48581l-.21.34181a2.18448,2.18448,0,0,0,1.512.54c1.01389,0,1.5239-.54,1.5239-1.24181C304.526,292.9902,304.07611,292.5162,303.17609,292.46829Zm-4.99179-.07819h-.54l.144-1.338h1.91989v-.38379h-2.2977l-.216,2.1059h.894c1.06781,0,1.40369.33589,1.40369.8759,0,.5099-.37778.858-1.09189.858a1.82139,1.82139,0,0,1-1.29-.48581l-.20978.34181a2.16819,2.16819,0,0,0,1.5058.54c1.02609,0,1.5239-.5578,1.5239-1.2719C299.93021,292.88809,299.45029,292.39011,298.1843,292.39011Zm-3.9537,2.09389,1.428-1.40369a1.72881,1.72881,0,0,0,.69-1.3141c0-.7019-.54-1.13391-1.39209-1.13391a1.88744,1.88744,0,0,0-1.48792.59981l.30591.26419a1.42631,1.42631,0,0,1,1.146-.468c.64209,0,.98389.2999.98389.786,0,.2878-.08978.56979-.56378,1.0378l-1.74609,1.71021v.3058h2.946V294.484Z" transform="translate(-34.897 -108.66821)" style="fill:#83746c;fill-rule:evenodd"/><path d="M207.9711,224.31889a.314.314,0,0,0-.318.324.30311.30311,0,0,0,.216.3058l-.2041.87h.288l.252-.828a.97591.97591,0,0,0,.0842-.34779.314.314,0,0,0-.3181-.324m6.01179.2639c-.73189,0-1.2359-.618-1.2359-1.7399s.504-1.7399,1.2359-1.7399,1.2359.6179,1.2359,1.7399S214.7148,224.58279,213.98289,224.58279Zm0,.396c.972,0,1.67981-.798,1.67981-2.13591s-.70781-2.13589-1.67981-2.13589-1.67389.7979-1.67389,2.13589S213.01089,224.97881,213.98289,224.97881Zm-3.966-2.5141h-.54l.144-1.33791h1.91991v-.3838h-2.2977l-.216,2.1058h.894c1.06781,0,1.4037.33589,1.4037.8759,0,.51-.37779.85809-1.0919.85809a1.821,1.821,0,0,1-1.29-.4859l-.20981.3419a2.16871,2.16871,0,0,0,1.50581.54c1.02609,0,1.5239-.55791,1.5239-1.27191C211.7628,222.9628,211.2829,222.46471,210.01691,222.46471Zm-6.0298-1.72171v1.1698h.426v-.786h2.16l-1.728,3.816h.468l1.758-3.894v-.3058Z" transform="translate(-34.897 -108.66821)" style="fill:#83746c;fill-rule:evenodd"/><path d="M213.713,164.5827c-.7319,0-1.2359-.618-1.2359-1.7399s.504-1.7399,1.2359-1.7399,1.2359.61789,1.2359,1.7399-.504,1.7399-1.2359,1.7399m0,.396c.972,0,1.67981-.798,1.67981-2.13589s-.70781-2.13589-1.67981-2.13589-1.6739.79788-1.6739,2.13589S212.741,164.9787,213.713,164.9787Zm-4.5-.4201,1.4281-1.40369a1.72922,1.72922,0,0,0,.69-1.31421c0-.70181-.54-1.13379-1.39211-1.13379a1.88732,1.88732,0,0,0-1.4879.59979l.3058.26419a1.42612,1.42612,0,0,1,1.1461-.468c.642,0,.9839.2999.9839.786,0,.28772-.0899.56982-.5638,1.03781l-1.7462,1.71011v.30588H211.523v-.38409Zm-1.55989-.23981a.314.314,0,0,0-.318.324.303.303,0,0,0,.216.30582l-.2041.87h.288l.252-.828a.9755.9755,0,0,0,.08411-.34781A.314.314,0,0,0,207.65311,164.31879Zm-3.666-3.5759v1.1698h.426v-.786h2.16l-1.728,3.816h.468l1.758-3.894v-.30582Z" transform="translate(-34.897 -108.66821)" style="fill:#83746c;fill-rule:evenodd"/><path d="M376.20432,281.4781c-.732,0-1.236-.618-1.236-1.7399s.504-1.7399,1.236-1.7399c.73187,0,1.23587.61789,1.23587,1.7399s-.504,1.7399-1.23587,1.7399m0,.396c.972,0,1.67978-.798,1.67978-2.13589s-.70779-2.13591-1.67978-2.13591-1.67392.7979-1.67392,2.13591S375.2323,281.8741,376.20432,281.8741Zm-4.5-.4201,1.428-1.4037a1.72883,1.72883,0,0,0,.69-1.31419c0-.7018-.54-1.1338-1.39209-1.1338a1.88744,1.88744,0,0,0-1.48791.59981l.30591.26419a1.426,1.426,0,0,1,1.146-.468c.64209,0,.98392.2999.98392.786,0,.2877-.08981.56979-.56381,1.0378l-1.74609,1.7101v.30591h2.946V281.454Zm-1.56-.23979a.314.314,0,0,0-.318.324.30312.30312,0,0,0,.216.3058l-.2041.87h.288l.252-.828a.97638.97638,0,0,0,.0842-.34781A.314.314,0,0,0,370.14429,281.2142Zm-2.2861-1.77591,1.188-1.4942v-.30579h-2.7v.38379h2.1481l-1.16388,1.4581v.3181h.2999c.77979,0,1.13388.32991,1.13388.83391,0,.5219-.38388.8459-1.08.8459a1.84117,1.84117,0,0,1-1.302-.4859l-.21.3419a2.1849,2.1849,0,0,0,1.512.54c1.01389,0,1.5239-.54,1.5239-1.2419C369.2081,279.9601,368.75821,279.48621,367.85818,279.43829Z" transform="translate(-34.897 -108.66821)" style="fill:#83746c;fill-rule:evenodd"/><rect x="350.14399" y="94.67229" width="2.29861" height="0.5018" style="fill:#003915"/><rect x="350.14399" y="93.47409" width="2.29861" height="0.50119" style="fill:#003915"/><rect x="350.14399" y="110.21889" width="2.29861" height="0.5018" style="fill:#003915"/><rect x="350.14399" y="109.02069" width="2.29861" height="0.50119" style="fill:#003915"/><rect x="350.14399" y="79.12599" width="2.29861" height="0.50139" style="fill:#003915"/><rect x="350.14399" y="77.92778" width="2.29861" height="0.50121" style="fill:#003915"/><rect x="350.14399" y="125.76529" width="2.29861" height="0.50169" style="fill:#003915"/><rect x="350.14399" y="124.56729" width="2.29861" height="0.50119" style="fill:#003915"/><rect x="347.14209" y="76.44159" width="0.5014" height="50.8045" style="fill:#003915"/><rect x="349.9892" y="76.44159" width="0.5015" height="50.8045" style="fill:#003915"/><rect x="352.1605" y="76.44159" width="0.5015" height="50.8045" style="fill:#003915"/><rect x="354.80161" y="76.44159" width="0.5014" height="50.8045" style="fill:#003915"/><path d="M213.4259,113.17441a3.90785,3.90785,0,1,1-3.90761-3.90781,3.9082,3.9082,0,0,1,3.90761,3.90781" transform="translate(-34.897 -108.66821)" style="fill:#558e42;fill-rule:evenodd"/><polygon points="174.621 6.91 174.999 5.595 175.378 4.281 174.621 4.281 173.864 4.281 174.243 5.595 174.621 6.91" style="fill:#fdfdfd;fill-rule:evenodd"/><rect x="174.4161" y="2.10208" width="0.38411" height="2.2814" style="fill:#fdfdfd"/><path d="M93.3384,119.5101c-.3779,0-.616-.2063-.616-.52829a.53633.53633,0,0,1,.5987-.5321c.4235,0,.6474.25571.6474.525a.567.567,0,0,1-.6301.5354m-.0278-1.2739a.76323.76323,0,0,0-.8365.75259.7416.7416,0,0,0,.826.7348.78267.78267,0,0,0,.7489-.4198c.0071.07339.0105.1434.0105.19949,0,.665-.3396,1.0043-.868,1.0043a.85884.85884,0,0,1-.4759-.1153l-.1015.20288a1.12377,1.12377,0,0,0,.5808.133c.665,0,1.12-.434,1.12-1.26712C94.3149,118.68781,93.9614,118.23621,93.3106,118.23621Zm-2.4256,2.2471.8331-.819a1.00765,1.00765,0,0,0,.4025-.76651c0-.40961-.3149-.66159-.8121-.66159a1.10131,1.10131,0,0,0-.868.3501l.1786.1539a.83225.83225,0,0,1,.6684-.27292c.3745,0,.574.17493.574.45831,0,.16809-.05241.33249-.3288.6055l-1.0185.9975v.17862h1.7184v-.22391Zm-.9099-.14011a.18317.18317,0,0,0-.18539.18909.1767.1767,0,0,0,.12579.17831l-.119.50769h.1681l.1471-.483a.57364.57364,0,0,0,.049-.203A.18318.18318,0,0,0,89.9751,120.3432Zm-1.5293-1.08139h-.315l.0839-.78061h1.12v-.224H87.9942l-.1259,1.22861h.5213c.6231,0,.8193.1958.8193.511,0,.29739-.2206.5004-.6373.5004a1.06142,1.06142,0,0,1-.7523-.28348l-.1224.19949a1.264,1.264,0,0,0,.8784.315c.5984,0,.889-.32541.889-.74191C89.4643,119.55209,89.1842,119.26181,88.4458,119.26181Z" transform="translate(-34.897 -108.66821)" style="fill:#434242"/><path d="M83.9239,240.7403c-.3778,0-.6159-.20639-.6159-.5284a.53635.53635,0,0,1,.5986-.5321c.4235,0,.6475.25571.6475.525a.56716.56716,0,0,1-.6302.53549m-.02769-1.2739a.76312.76312,0,0,0-.8365.75259.74153.74153,0,0,0,.826.73471.7826.7826,0,0,0,.7489-.4198c.0071.07339.01051.14339.01051.1996,0,.665-.33961,1.00429-.868,1.00429a.85887.85887,0,0,1-.4759-.11539l-.1015.203a1.12389,1.12389,0,0,0,.5808.1329c.665,0,1.12-.434,1.12-1.26711C84.9005,239.91789,84.547,239.4664,83.8962,239.4664Zm-2.1036,2.26089c-.4269,0-.7212-.3606-.7212-1.0148,0-.6545.2943-1.01509.7212-1.01509s.72079.3606.72079,1.01509C82.5134,241.3667,82.2195,241.72729,81.7926,241.72729Zm0,.231c.56689,0,.9799-.46539.9799-1.2458,0-.7807-.413-1.24609-.9799-1.24609s-.9766.46539-.9766,1.24609C80.816,241.4929,81.2256,241.9583,81.7926,241.9583Zm-1.4877-.3849a.18313.18313,0,0,0-.1853.189.17661.17661,0,0,0,.1258.1783l-.119.50769h.1681l.14709-.483a.57531.57531,0,0,0,.049-.203A.18319.18319,0,0,0,80.3049,241.57339Zm-.4932-.504h-.4901v-.567h-.2449v.567H78.0126l1.2529-1.582h-.2798l-1.2986,1.6239v.182h1.3825v.644h.252v-.644h.4901Z" transform="translate(-34.897 -108.66821)" style="fill:#434242"/><path d="M94.6474,304.2644c-.4235,0-.6477-.25539-.6477-.525a.56722.56722,0,0,1,.6301-.5354c.3779,0,.616.2063.616.5283a.53606.53606,0,0,1-.5984.5321m.021-1.2739a.78344.78344,0,0,0-.74921.4198c-.0068-.0734-.0105-.1434-.0105-.1995,0-.6648.3396-1.0044.868-1.0044a.86092.86092,0,0,1,.4762.1154l.1015-.2029a1.12583,1.12583,0,0,0-.5811-.133c-.665,0-1.12.434-1.12,1.2671,0,.7733.3535,1.2248,1.0046,1.2248a.76334.76334,0,0,0,.8365-.7526A.74173.74173,0,0,0,94.6684,302.9905Zm-2.429-.9836v.2239h.5774v2.2261h.252v-2.45Zm-.3569,2.086a.18317.18317,0,0,0-.1854.18909.17664.17664,0,0,0,.1259.1783l-.11909.50771h.1681l.14709-.4831a.57334.57334,0,0,0,.0491-.2029A.18321.18321,0,0,0,91.8825,304.0929Zm-1.5293-1.08141h-.3149l.0839-.7807h1.1199v-.2239H89.9016l-.1258,1.2285h.52129c.623,0,.81921.1959.81921.5111,0,.2974-.2206.5003-.6372.5003a1.06163,1.06163,0,0,1-.7524-.28339l-.1224.1995a1.26439,1.26439,0,0,0,.8784.3149c.5984,0,.889-.3254.889-.7418C91.3717,303.3018,91.0916,303.0115,90.3532,303.0115Z" transform="translate(-34.897 -108.66821)" style="fill:#434242"/><path d="M280.69,304.2468c-.42691,0-.7211-.3605-.7211-1.01479,0-.6545.29419-1.01511.7211-1.01511s.72089.3606.72089,1.01511c0,.6543-.294,1.01479-.72089,1.01479m0,.231c.56689,0,.98-.4654.98-1.2458,0-.7806-.41312-1.2461-.98-1.2461s-.9765.4655-.9765,1.2461C279.7135,304.0124,280.12311,304.4778,280.69,304.4778Zm-2.317-1.218c-.3779,0-.616-.2064-.616-.5284a.53632.53632,0,0,1,.59872-.532c.42349,0,.6474.2556.6474.52489A.56707.56707,0,0,1,278.373,303.2598Zm-.02777-1.2739a.76323.76323,0,0,0-.83652.7526.74152.74152,0,0,0,.826.7347.78245.78245,0,0,0,.7489-.4198c.00711.0735.0105.1435.0105.1996,0,.665-.3396,1.0043-.868,1.0043a.85914.85914,0,0,1-.47589-.1154l-.1015.203a1.12391,1.12391,0,0,0,.58078.1329c.6651,0,1.12-.4339,1.12-1.267C279.34949,302.4375,278.996,301.9859,278.34521,301.9859Zm-1.31271,2.107a.18317.18317,0,0,0-.18539.18909.17668.17668,0,0,0,.12579.1783l-.119.50771h.16809l.14709-.4831a.57262.57262,0,0,0,.049-.2029A.1832.1832,0,0,0,277.0325,304.0929Zm-2.13849-2.086v.6826h.2486v-.4587h1.26l-1.008,2.2261h.273l1.0253-2.2714v-.1786Z" transform="translate(-34.897 -108.66821)" style="fill:#434242"/><path d="M374.44821,301.4768c-.42691,0-.7211-.3606-.7211-1.0148,0-.6545.29419-1.0151.7211-1.0151s.72079.3606.72079,1.0151c0,.6542-.29391,1.0148-.72079,1.0148m0,.231c.56689,0,.97989-.4654.97989-1.2458,0-.7807-.413-1.2461-.97989-1.2461s-.9765.4654-.9765,1.2461C373.47171,301.2424,373.88129,301.7078,374.44821,301.7078Zm-2.62521-.2449.8331-.8189a1.00773,1.00773,0,0,0,.4025-.76649c0-.4096-.31488-.66161-.8121-.66161a1.10077,1.10077,0,0,0-.86789.35011l.1785.1539a.83214.83214,0,0,1,.6684-.273c.37451,0,.5741.1749.5741.4584,0,.16811-.05249.3325-.32889.60551l-1.0184.9975v.1786h1.71829v-.224Zm-.90991-.14a.18317.18317,0,0,0-.18539.1891.17687.17687,0,0,0,.12592.1783l-.11911.5076h.16809l.14713-.483a.57409.57409,0,0,0,.04907-.2029A.1832.1832,0,0,0,370.91309,301.3229Zm-1.60638-2.086v.2239h.57739v2.2261h.252v-2.45Z" transform="translate(-34.897 -108.66821)" style="fill:#434242"/><path d="M327.2771,235.7468c-.42691,0-.7211-.3606-.7211-1.0148,0-.6546.29419-1.01509.7211-1.01509s.72089.36049.72089,1.01509c0,.65421-.294,1.0148-.72089,1.0148m0,.231c.567,0,.98-.4655.98-1.2458,0-.7807-.413-1.2462-.98-1.2462s-.9765.4655-.9765,1.2462C326.3006,235.5123,326.71021,235.9778,327.2771,235.9778Zm-3.0379-2.471v.68259h.2486v-.45859h1.26l-1.008,2.226h.273l1.0253-2.27141v-.17859Zm-.43729,2.086a.18317.18317,0,0,0-.18542.1891.17673.17673,0,0,0,.12582.1783l-.119.50769h.16812l.14709-.483a.574.574,0,0,0,.049-.203A.18317.18317,0,0,0,323.80191,235.5928Zm-1.5293-1.08141h-.315l.08389-.78059h1.12v-.224H321.821l-.12592,1.22859h.5213c.62311,0,.81931.1958.81931.511,0,.29739-.22061.5004-.6373.5004a1.06148,1.06148,0,0,1-.75232-.28349l-.12238.1996a1.26447,1.26447,0,0,0,.87839.3149c.59839,0,.889-.32539.889-.74181C323.29111,234.8017,323.011,234.5114,322.27261,234.5114Z" transform="translate(-34.897 -108.66821)" style="fill:#434242"/><path d="M211.9666,123.21271l.8331-.81891a1.0076,1.0076,0,0,0,.4025-.76651c0-.40958-.3149-.66159-.81209-.66159a1.10131,1.10131,0,0,0-.868.3501l.1786.1539a.832.832,0,0,1,.6684-.273c.37451,0,.574.17493.574.4584,0,.16812-.0524.33252-.3288.6055l-1.01851.9975v.17862h1.7184v-.224Zm-2.4568-2.226v.68262h.24861v-.45871h1.26l-1.008,2.2261h.273l1.0253-2.27139v-.17862Zm-.43739,2.086a.18318.18318,0,0,0-.18541.18912.17674.17674,0,0,0,.1259.17828l-.11909.50769h.16811l.14709-.48309a.57348.57348,0,0,0,.0491-.20288A.18321.18321,0,0,0,209.0724,123.07269Zm-1.6064-2.086v.22391h.57739v2.2261h.252v-2.45Z" transform="translate(-34.897 -108.66821)" style="fill:#434242"/><path d="M171.845,199.7612h-.3149l.08389-.78059h1.12v-.224H171.3934l-.12581,1.22861h.5213c.623,0,.8192.1958.8192.511,0,.29739-.22049.5004-.63719.5004a1.06125,1.06125,0,0,1-.7523-.28349l-.1225.19949a1.26447,1.26447,0,0,0,.87849.315c.59831,0,.8889-.32539.8889-.74181,0-.4343-.28009-.72459-1.01849-.72459m-1.9845.24831c-.3779,0-.616-.20631-.616-.52831a.53632.53632,0,0,1,.59869-.5321c.42349,0,.6474.25571.6474.525A.56705.56705,0,0,1,169.8605,200.00951Zm-.0278-1.27391a.76324.76324,0,0,0-.8365.75261.74159.74159,0,0,0,.826.73479.78267.78267,0,0,0,.7489-.4198c.0071.07341.0105.1434.0105.19951,0,.665-.3396,1.0043-.868,1.0043a.85912.85912,0,0,1-.47589-.11531l-.1015.20291a1.12405,1.12405,0,0,0,.5808.133c.665,0,1.12-.434,1.12-1.26711C170.837,199.18719,170.48351,198.7356,169.8327,198.7356Zm-1.3127,2.107a.18317.18317,0,0,0-.18541.18909.17671.17671,0,0,0,.12581.17831l-.119.50769h.16811l.14709-.483a.57371.57371,0,0,0,.049-.203A.18318.18318,0,0,0,168.52,200.84261Zm-1.6064-2.086v.224h.57739v2.226h.252v-2.45Z" transform="translate(-34.897 -108.66821)" style="fill:#434242"/><path d="M168.3289,118.78641l.69279-.87131v-.17859h-1.57491v.22388h1.25291l-.67891.85071v.18539h.1749c.4552,0,.66161.1925.66161.48642,0,.3045-.22389.4935-.6299.4935a1.07451,1.07451,0,0,1-.7597-.28342l-.12239.19949a1.27463,1.27463,0,0,0,.8821.315c.59129,0,.889-.315.889-.72458,0-.392-.2625-.6684-.78749-.6965m-1.0114.5321h-.49011v-.56693h-.24489v.56693h-1.0641l1.2529-1.582h-.2798l-1.2986,1.624v.18188h1.38249v.6441h.252v-.6441h.49011Zm-2.58661.504a.18315.18315,0,0,0-.18539.18909.17681.17681,0,0,0,.1259.17831l-.11909.50769h.16809l.14709-.48309a.57327.57327,0,0,0,.0491-.20291A.1832.1832,0,0,0,164.7309,119.82251Zm-1.6064-2.086v.22388h.57741v2.2261h.252v-2.45Z" transform="translate(-34.897 -108.66821)" style="fill:#434242"/><line x1="51.4772" y1="10.87909" x2="8.6208" y2="10.87909" style="fill:none;stroke:#b1b2b2;stroke-miterlimit:22.92558479309082;stroke-width:0.2160000056028366px"/><line x1="41.7337" y1="132.10919" x2="8.6208" y2="132.10919" style="fill:none;stroke:#b1b2b2;stroke-miterlimit:22.92558479309082;stroke-width:0.2160000056028366px"/><line x1="52.9838" y1="194.62868" x2="9.4204" y2="194.62868" style="fill:none;stroke:#b1b2b2;stroke-miterlimit:22.92558479309082;stroke-width:0.2160000056028366px"/><line x1="238.7345" y1="194.62868" x2="158.1872" y2="194.62868" style="fill:none;stroke:#b1b2b2;stroke-miterlimit:22.92558479309082;stroke-width:0.2160000056028366px"/><line x1="332.85971" y1="191.85869" x2="326.1113" y2="191.85869" style="fill:none;stroke:#b1b2b2;stroke-miterlimit:22.92558479309082;stroke-width:0.2160000056028366px"/><line x1="285.3599" y1="126.12869" x2="232.87699" y2="126.12869" style="fill:none;stroke:#b1b2b2;stroke-miterlimit:22.92558479309082;stroke-width:0.2160000056028366px"/><line x1="170.8597" y1="13.60849" x2="157.1641" y2="13.60849" style="fill:none;stroke:#b1b2b2;stroke-miterlimit:22.92558479309082;stroke-width:0.2160000056028366px"/><line x1="130.3597" y1="91.37848" x2="116.9215" y2="91.37848" style="fill:none;stroke:#b1b2b2;stroke-miterlimit:22.92558479309082;stroke-width:0.2160000056028366px"/><line x1="126.6092" y1="10.35828" x2="119.8608" y2="10.35828" style="fill:none;stroke:#b1b2b2;stroke-miterlimit:22.92558479309082;stroke-width:0.2160000056028366px"/><line x1="113.976" y1="10.87909" x2="60.9163" y2="10.87909" style="fill:none;stroke:#b1b2b2;stroke-miterlimit:22.92558479309082;stroke-width:0.2160000056028366px"/><line x1="89.9947" y1="132.10919" x2="51.1728" y2="132.10919" style="fill:none;stroke:#b1b2b2;stroke-miterlimit:22.92558479309082;stroke-width:0.2160000056028366px"/><line x1="110.17051" y1="194.62868" x2="62.4229" y2="194.62868" style="fill:none;stroke:#b1b2b2;stroke-miterlimit:22.92558479309082;stroke-width:0.2160000056028366px"/><line x1="316.39411" y1="194.62868" x2="248.17331" y2="194.62868" style="fill:none;stroke:#b1b2b2;stroke-miterlimit:22.92558479309082;stroke-width:0.2160000056028366px"/><line x1="349.04731" y1="191.85869" x2="342.2988" y2="191.85869" style="fill:none;stroke:#b1b2b2;stroke-miterlimit:22.92558479309082;stroke-width:0.2160000056028366px"/><line x1="346.29819" y1="126.12869" x2="294.79889" y2="126.12869" style="fill:none;stroke:#b1b2b2;stroke-miterlimit:22.92558479309082;stroke-width:0.2160000056028366px"/><line x1="190.92141" y1="13.60678" x2="180.2988" y2="13.60678" style="fill:none;stroke:#b1b2b2;stroke-miterlimit:22.92558479309082;stroke-width:0.2160000056028366px"/><line x1="154.6745" y1="91.37848" x2="139.7988" y2="91.37848" style="fill:none;stroke:#b1b2b2;stroke-miterlimit:22.92558479309082;stroke-width:0.2160000056028366px"/><line x1="142.7967" y1="10.35828" x2="136.0483" y2="10.35828" style="fill:none;stroke:#b1b2b2;stroke-miterlimit:22.92558479309082;stroke-width:0.2160000056028366px"/><path d="M156.7301,284.764c0,.434-.1891.68941-.4935.68941-.301,0-.4901-.2554-.4901-.68941s.18909-.6931.4901-.6931c.3044,0,.4935.25911.4935.6931m-1.624.60551c-.27289,0-.441-.23471-.441-.60551,0-.3676.16811-.6091.4444-.6091.2662,0,.4377.2276.4377.6091C155.5472,285.14529,155.3757,285.36951,155.10609,285.36951Zm.5321-1.078a.55494.55494,0,0,0-.53909-.392c-.39891,0-.64751.3463-.64751.86449,0,.51791.2486.85751.64751.85751a.553.553,0,0,0,.53909-.38521.611.611,0,0,0,.60181.4725c.434,0,.7036-.3569.7036-.94481,0-.58449-.26961-.95209-.7036-.95209A.61687.61687,0,0,0,155.6382,284.2915Zm.0873,2.7439c0,.3779-.20639.616-.5284.616a.5363.5363,0,0,1-.532-.59869c0-.42351.25571-.6474.5249-.6474A.56706.56706,0,0,1,155.72549,287.0354Zm-1.2739.0278a.76324.76324,0,0,0,.75259.8365.7416.7416,0,0,0,.7348-.826.78259.78259,0,0,0-.41989-.7489c.0735-.0071.14349-.0105.1996-.0105.665,0,1.0043.3396,1.0043.868a.85918.85918,0,0,1-.11531.47591l.2029.1015a1.12393,1.12393,0,0,0,.133-.58081c0-.6651-.434-1.12-1.26711-1.12C154.9032,286.0589,154.4516,286.4124,154.4516,287.0632Zm2.107,1.3127a.18317.18317,0,0,0,.1891.18539.17668.17668,0,0,0,.1783-.12579l.50771.119v-.16811l-.48309-.14709a.573.573,0,0,0-.20291-.049A.1832.1832,0,0,0,156.55859,288.3759Zm.14,1.8902-.81889-.8331a1.0078,1.0078,0,0,0-.76649-.4026c-.40961,0-.66161.315-.66161.81221a1.10112,1.10112,0,0,0,.3501.86789l.1539-.1785a.83237.83237,0,0,1-.273-.6685c0-.37439.1749-.574.4584-.574.16809,0,.33249.05249.6055.3288l.9975,1.01849h.1786V288.9185h-.224Z" transform="translate(-34.897 -108.66821)" style="fill:#434242"/><path d="M180.07339,217.7014l-.81889-.8331a1.00775,1.00775,0,0,0-.76649-.4025c-.40961,0-.66161.3149-.66161.81209a1.101,1.101,0,0,0,.3501.868l.1539-.1786a.832.832,0,0,1-.273-.6684c0-.37451.1749-.574.45839-.574.16811,0,.3325.0524.60551.3288l.9975,1.01851h.17859v-1.7184h-.224Zm0,1.9879-.81889-.8331a1.00775,1.00775,0,0,0-.76649-.4025c-.40961,0-.66161.3149-.66161.81209a1.101,1.101,0,0,0,.3501.868l.1539-.1786a.832.832,0,0,1-.273-.6684c0-.3744.1749-.574.45839-.574.16811,0,.3325.0524.60551.3288l.9975,1.01851h.17859V218.3418h-.224Zm-.14.91a.18316.18316,0,0,0,.1891.1853.17678.17678,0,0,0,.1783-.12581l.5076.119v-.168l-.483-.1472a.57529.57529,0,0,0-.2029-.049A.18321.18321,0,0,0,179.9334,220.5993Zm-1.0361,1.33339-.87129-.69279h-.1786v1.57491h.22391v-1.2529l.85069.67889h.18541v-.1749c0-.4552.1924-.66161.48639-.66161.3044,0,.4935.22391.4935.6299a1.07361,1.07361,0,0,1-.28349.7596l.1996.12251a1.27464,1.27464,0,0,0,.3149-.88211c0-.59129-.3149-.889-.7245-.889C179.2018,221.1452,178.9254,221.4077,178.89729,221.93269Z" transform="translate(-34.897 -108.66821)" style="fill:#434242"/><line x1="120.8665" y1="183.22469" x2="120.8665" y2="196.99399" style="fill:none;stroke:#b1b2b2;stroke-miterlimit:22.92558479309082;stroke-width:0.2160000056028366px"/><line x1="144.24041" y1="115.60019" x2="144.24041" y2="135.27098" style="fill:none;stroke:#b1b2b2;stroke-miterlimit:22.92558479309082;stroke-width:0.2160000056028366px"/><line x1="120.8656" y1="138.53989" x2="120.8656" y2="173.78558" style="fill:none;stroke:#b1b2b2;stroke-miterlimit:22.92558479309082;stroke-width:0.2160000056028366px"/><line x1="144.24041" y1="72.92578" x2="144.24041" y2="106.16109" style="fill:none;stroke:#b1b2b2;stroke-miterlimit:22.92558479309082;stroke-width:0.2160000056028366px"/><path d="M377.77289,208.70081l-.87128-.69281H376.723v1.575h.22391v-1.2529l.85071.67891h.18539v-.1749c0-.45531.1925-.66161.48639-.66161.3045,0,.4935.22389.4935.62979a1.0743,1.0743,0,0,1-.28339.7597l.19949.1225a1.27477,1.27477,0,0,0,.315-.8822c0-.59129-.315-.88889-.72461-.88889-.392,0-.6684.2625-.6965.7874m1.19,2.13849c0,.42691-.3605.7211-1.0148.7211-.65448,0-1.01508-.29419-1.01508-.7211s.3606-.7209,1.01508-.7209C378.60239,210.11839,378.96289,210.4124,378.96289,210.83929Zm.23111,0c0-.56689-.46552-.97989-1.24591-.97989-.78058,0-1.24609.413-1.24609.97989s.46552.9765,1.24609.9765C378.72849,211.8158,379.194,211.4062,379.194,210.83929Zm-.385,1.48761a.18318.18318,0,0,0,.18912.18539.17663.17663,0,0,0,.17828-.1259l.50772.11909v-.16809l-.48312-.14711a.57339.57339,0,0,0-.20288-.04909A.18322.18322,0,0,0,378.809,212.3269Zm-1.0361,1.33339-.87128-.69279H376.723v1.575h.22391v-1.2529l.85071.67891h.18539v-.17491c0-.45529.1925-.66159.48639-.66159.3045,0,.4935.22389.4935.62979a1.0743,1.0743,0,0,1-.28339.7597l.19949.1225a1.27477,1.27477,0,0,0,.315-.8822c0-.59129-.315-.8889-.72461-.8889C378.07739,212.87289,377.801,213.13541,377.77289,213.66029Z" transform="translate(-34.897 -108.66821)" style="fill:#434242"/><path d="M381.4758,274.1593c0,.3779-.2063.616-.52829.616a.53632.53632,0,0,1-.5321-.59869c0-.42351.25571-.6474.525-.6474a.567.567,0,0,1,.5354.6301m-1.2738.0278a.76319.76319,0,0,0,.75259.8365.74159.74159,0,0,0,.73471-.826.78252.78252,0,0,0-.4198-.7489c.07339-.0071.1434-.0105.19949-.0105.665,0,1.00439.3396,1.00439.868a.85932.85932,0,0,1-.11539.47591l.20291.1015a1.12408,1.12408,0,0,0,.133-.58081c0-.665-.434-1.12-1.26712-1.12C380.6535,273.1828,380.202,273.5363,380.202,274.1871Zm.0209,2.8945h.68259V276.833h-.45859v-1.26l2.226,1.008v-.273l-2.27142-1.0253h-.17859Zm2.086.4373a.18317.18317,0,0,0,.18909.18539.1767.1767,0,0,0,.17831-.12579l.50769.119v-.16809l-.483-.14711a.576.576,0,0,0-.203-.049A.18326.18326,0,0,0,382.3089,277.51891Zm.14011,1.8902-.819-.8331a1.00761,1.00761,0,0,0-.76642-.40251c-.40958,0-.66159.31491-.66159.8121a1.10136,1.10136,0,0,0,.35.868l.154-.17859a.83218.83218,0,0,1-.273-.66841c0-.3745.1749-.574.45828-.574.16809,0,.33249.0524.6055.3288l.9975,1.01849h.17862v-1.7184H382.449Z" transform="translate(-34.897 -108.66821)" style="fill:#434242"/><path d="M49.4802,274.21519c0,.434-.1891.68941-.4936.68941-.301,0-.4901-.2554-.4901-.68941s.1891-.6931.4901-.6931c.3045,0,.4936.25911.4936.6931m-1.624.60541c-.273,0-.4411-.2347-.4411-.60541,0-.36769.1681-.60919.4445-.60919.2662,0,.4377.2276.4377.60919C48.2973,274.59641,48.1258,274.8206,47.8562,274.8206Zm.5321-1.078a.555.555,0,0,0-.5392-.392c-.3988,0-.6474.3464-.6474.86459,0,.5179.2486.85741.6474.85741a.553.553,0,0,0,.5392-.38521.61093.61093,0,0,0,.6017.47261c.434,0,.7036-.3569.7036-.94481,0-.58449-.2696-.95219-.7036-.95219A.61675.61675,0,0,0,48.3883,273.7426Zm1.0743,2.744c0,.4269-.3606.7211-1.0148.7211-.6545,0-1.0151-.2942-1.0151-.7211s.3606-.7209,1.0151-.7209C49.102,275.7657,49.4626,276.05969,49.4626,276.4866Zm.231,0c0-.567-.4654-.98-1.2458-.98-.7807,0-1.2461.413-1.2461.98s.4654.9765,1.2461.9765C49.2282,277.4631,49.6936,277.0535,49.6936,276.4866Zm-.3849,1.48759a.18315.18315,0,0,0,.189.18541.17668.17668,0,0,0,.1783-.1259l.5077.11909v-.16811l-.483-.14709a.57392.57392,0,0,0-.203-.0491A.18319.18319,0,0,0,49.3087,277.9742Zm-1.0361,1.3334-.8714-.69281h-.1786v1.575h.224v-1.253l.8507.67889h.1853v-.1749c0-.4552.1925-.66159.4865-.66159.3044,0,.4935.224.4935.6299a1.07431,1.07431,0,0,1-.2835.75969l.1996.12241a1.27475,1.27475,0,0,0,.3149-.8821c0-.59131-.3149-.889-.7245-.889C48.577,278.5201,48.3007,278.78259,48.2726,279.3076Z" transform="translate(-34.897 -108.66821)" style="fill:#434242"/><path d="M49.4802,207.74361c0,.434-.1891.68939-.4936.68939-.301,0-.4901-.2554-.4901-.68939s.1891-.6931.4901-.6931c.3045,0,.4936.25909.4936.6931m-1.624.6055c-.273,0-.4411-.2348-.4411-.6055,0-.36771.1681-.60921.4445-.60921.2662,0,.4377.2276.4377.60921C48.2973,208.1248,48.1258,208.34911,47.8562,208.34911Zm.5321-1.07811a.555.555,0,0,0-.5392-.392c-.3988,0-.6474.34641-.6474.86461,0,.5179.2486.8575.6474.8575a.55311.55311,0,0,0,.5392-.3853.61082.61082,0,0,0,.6017.4726c.434,0,.7036-.3569.7036-.94479,0-.5845-.2696-.95221-.7036-.95221A.61677.61677,0,0,0,48.3883,207.271Zm-1.1657,2.8174h.224V209.511h2.226v-.252h-2.45Zm2.0861.3569a.18315.18315,0,0,0,.189.18541.17668.17668,0,0,0,.1783-.1259l.5077.11909v-.16811l-.483-.1472a.57565.57565,0,0,0-.203-.049A.18319.18319,0,0,0,49.3087,210.4453Zm-1.0361,1.3334-.8714-.69279h-.1786v1.57489h.224v-1.2529l.8507.67889h.1853v-.1749c0-.4552.1925-.66159.4865-.66159.3044,0,.4935.224.4935.6299a1.07431,1.07431,0,0,1-.2835.75969l.1996.12241a1.27494,1.27494,0,0,0,.3149-.8821c0-.59131-.3149-.889-.7245-.889C48.577,210.9912,48.3007,211.25369,48.2726,211.7787Z" transform="translate(-34.897 -108.66821)" style="fill:#434242"/><path d="M48.2726,142.70059l-.8714-.69269h-.1786v1.57489h.224v-1.2529l.8507.67889h.1853v-.1749c0-.45529.1925-.66159.4865-.66159.3044,0,.4935.22391.4935.62979a1.07435,1.07435,0,0,1-.2835.7597l.1996.1225a1.27517,1.27517,0,0,0,.3149-.8822c0-.59131-.3149-.88889-.7245-.88889-.3921,0-.6684.26248-.6965.78738m1.19,2.13852c0,.42688-.3606.7211-1.0148.7211-.6545,0-1.0151-.29422-1.0151-.7211s.3606-.72083,1.0151-.72083C49.102,144.11829,49.4626,144.4122,49.4626,144.83911Zm.231,0c0-.56693-.4654-.97992-1.2458-.97992-.7807,0-1.2461.413-1.2461.97992s.4654.9765,1.2461.9765C49.2282,145.81561,49.6936,145.406,49.6936,144.83911Zm-.3849,1.48758a.18313.18313,0,0,0,.189.18539.1766.1766,0,0,0,.1783-.12579l.5077.119v-.16812l-.483-.14709a.57352.57352,0,0,0-.203-.049A.18315.18315,0,0,0,49.3087,146.32669Zm-1.0361,1.3334-.8714-.69269h-.1786v1.57489h.224v-1.2529l.8507.67889h.1853v-.1749c0-.45529.1925-.66159.4865-.66159.3044,0,.4935.22391.4935.62979a1.07435,1.07435,0,0,1-.2835.7597l.1996.1225a1.27516,1.27516,0,0,0,.3149-.8822c0-.59131-.3149-.88889-.7245-.88889C48.577,146.87271,48.3007,147.13519,48.2726,147.6601Z" transform="translate(-34.897 -108.66821)" style="fill:#434242"/><path d="M197.0226,228.7168l-.8714-.69279h-.1785v1.575h.22389v-1.2529l.85071.67889h.18539v-.1749c0-.45529.1924-.66161.4864-.66161.3044,0,.4935.22391.4935.62981a1.07432,1.07432,0,0,1-.28351.7597l.1996.1225a1.27473,1.27473,0,0,0,.31491-.8822c0-.59129-.31491-.8889-.7245-.8889-.392,0-.6684.2625-.6965.7874m1.2076,1.9704c0,.42351-.2554.64771-.525.64771a.5673.5673,0,0,1-.53551-.6301c0-.3779.20641-.616.52841-.616A.53611.53611,0,0,1,198.23019,230.68719Zm-1.2739-.021a.78346.78346,0,0,0,.4198.74921c-.07339.00679-.1434.0105-.1996.0105-.6647,0-1.0043-.3396-1.0043-.868a.861.861,0,0,1,.1154-.4762l-.203-.1015a1.12593,1.12593,0,0,0-.13289.5811c0,.665.434,1.12,1.26709,1.12.7733,0,1.22481-.3535,1.22481-1.00461a.76334.76334,0,0,0-.75261-.8365A.74168.74168,0,0,0,196.9563,230.6662Zm1.1024,1.5262a.18314.18314,0,0,0,.189.18539.17666.17666,0,0,0,.1783-.1259l.50771.11911v-.16811l-.483-.14709a.57393.57393,0,0,0-.203-.0491A.18318.18318,0,0,0,198.0587,232.1924Zm-.8331,1.49471c0,.3779-.20641.616-.5284.616a.53638.53638,0,0,1-.5321-.59869c0-.42351.25571-.6474.525-.6474A.56706.56706,0,0,1,197.2256,233.6871Zm-1.2739.0278a.76318.76318,0,0,0,.75259.8365.74153.74153,0,0,0,.7347-.826.78246.78246,0,0,0-.4198-.7489c.07341-.0071.1434-.0105.1996-.0105.665,0,1.0043.3396,1.0043.86789a.85934.85934,0,0,1-.1154.476l.203.10149a1.1242,1.1242,0,0,0,.1329-.58089c0-.665-.434-1.1199-1.26711-1.1199C196.4032,232.7106,195.95171,233.064,195.95171,233.7149Z" transform="translate(-34.897 -108.66821)" style="fill:#434242"/><path d="M145.3748,133.52969c0,.42349-.2554.64771-.525.64771a.56715.56715,0,0,1-.53539-.6301c0-.3779.2063-.616.52829-.616a.53607.53607,0,0,1,.5321.59839m-1.2739-.021a.78346.78346,0,0,0,.4198.74921c-.07341.00681-.1434.0105-.19951.0105-.66479,0-1.0043-.3396-1.0043-.86789a.861.861,0,0,1,.11531-.47632l-.20291-.10141a1.12571,1.12571,0,0,0-.133.58112c0,.665.434,1.1199,1.26711,1.1199.7733,0,1.2249-.35352,1.2249-1.00461a.76339.76339,0,0,0-.75261-.83649A.74175.74175,0,0,0,144.10091,133.5087Zm.26929,2.35559c0,.3779-.20639.616-.5284.616a.5363.5363,0,0,1-.532-.59869c0-.42349.2556-.6474.5249-.6474A.56706.56706,0,0,1,144.37019,135.86429Zm-1.2739.0278a.76325.76325,0,0,0,.75261.83652.7416.7416,0,0,0,.73479-.826.78259.78259,0,0,0-.41989-.7489c.0735-.00708.14349-.0105.1996-.0105.665,0,1.0043.3396,1.0043.868a.85811.85811,0,0,1-.1154.47589l.203.1015a1.124,1.124,0,0,0,.133-.58078c0-.665-.434-1.12-1.26711-1.12C143.5479,134.88779,143.0963,135.2413,143.0963,135.89209Zm2.107,1.31271a.18318.18318,0,0,0,.1891.18539.17668.17668,0,0,0,.1783-.12579l.50771.119v-.16809l-.48309-.14709a.57265.57265,0,0,0-.20291-.049A.18321.18321,0,0,0,145.20329,137.2048Zm-2.086,1.60638h.22391v-.57739h2.2261v-.252h-2.45Z" transform="translate(-34.897 -108.66821)" style="fill:#434242"/><line x1="343.116" y1="107.22469" x2="343.116" y2="132.23309" style="fill:none;stroke:#b1b2b2;stroke-miterlimit:22.92558479309082;stroke-width:0.2160000056028366px"/><line x1="346.616" y1="172.47459" x2="346.616" y2="195.53889" style="fill:none;stroke:#b1b2b2;stroke-miterlimit:22.92558479309082;stroke-width:0.2160000056028366px"/><line x1="13.6157" y1="172.72488" x2="13.6157" y2="198.71319" style="fill:none;stroke:#b1b2b2;stroke-miterlimit:22.92558479309082;stroke-width:0.2160000056028366px"/><line x1="13.6157" y1="105.72459" x2="13.6157" y2="135.15109" style="fill:none;stroke:#b1b2b2;stroke-miterlimit:22.92558479309082;stroke-width:0.2160000056028366px"/><line x1="13.6157" y1="41.22449" x2="13.6157" y2="66.71249" style="fill:none;stroke:#b1b2b2;stroke-miterlimit:22.92558479309082;stroke-width:0.2160000056028366px"/><line x1="162.3657" y1="127.22479" x2="162.3657" y2="198.71319" style="fill:none;stroke:#b1b2b2;stroke-miterlimit:22.92558479309082;stroke-width:0.2160000056028366px"/><line x1="109.5103" y1="31.72449" x2="109.5103" y2="44.28848" style="fill:none;stroke:#b1b2b2;stroke-miterlimit:22.92558479309082;stroke-width:0.2160000056028366px"/><line x1="343.116" y1="73.91359" x2="343.116" y2="97.78558" style="fill:none;stroke:#b1b2b2;stroke-miterlimit:22.92558479309082;stroke-width:0.2160000056028366px"/><line x1="346.616" y1="140.39319" x2="346.616" y2="163.03549" style="fill:none;stroke:#b1b2b2;stroke-miterlimit:22.92558479309082;stroke-width:0.2160000056028366px"/><line x1="13.6157" y1="137.75328" x2="13.6157" y2="163.28578" style="fill:none;stroke:#b1b2b2;stroke-miterlimit:22.92558479309082;stroke-width:0.2160000056028366px"/><line x1="13.6157" y1="72.66359" x2="13.6157" y2="96.28549" style="fill:none;stroke:#b1b2b2;stroke-miterlimit:22.92558479309082;stroke-width:0.2160000056028366px"/><line x1="13.6157" y1="6.66339" x2="13.6157" y2="31.7854" style="fill:none;stroke:#b1b2b2;stroke-miterlimit:22.92558479309082;stroke-width:0.2160000056028366px"/><line x1="162.3657" y1="5.9924" x2="162.3657" y2="117.78569" style="fill:none;stroke:#b1b2b2;stroke-miterlimit:22.92558479309082;stroke-width:0.2160000056028366px"/><line x1="109.512" y1="5.99268" x2="109.512" y2="22.2854" style="fill:none;stroke:#b1b2b2;stroke-miterlimit:22.92558479309082;stroke-width:0.2160000056028366px"/></svg>