<svg id="Слой_1" data-name="Слой 1" xmlns="http://www.w3.org/2000/svg" viewBox="0 0 163.5222 206.49769"><title>1.10.09</title><polygon points="158.109 0 158.109 72.578 160.894 72.578 163.521 72.578 163.521 127.931 160.894 127.931 160.894 203.274 158.109 203.274 158.109 206.498 0 206.498 0 0 158.109 0" style="fill:#fff;fill-rule:evenodd"/><path d="M172.5049,121.9227v-2.54321H165.545v2.54321Zm0,4.33621v-2.5433H165.545v2.5433Zm-4.068,4.44159v-2.5433H165.545v2.5433Zm4.068,0v-2.5433H169.613v2.5433ZM162.79,117.8728H175.0249v15.33429H162.79Z" transform="translate(-131.4782 -109.34961)" style="fill:#003915;fill-rule:evenodd"/><path d="M166.5164,197.2531a.374.374,0,1,0-.37471-.6474l-13.92009,8.0399a.374.374,0,0,0,.37469.6474Z" transform="translate(-131.4782 -109.34961)" style="fill:#003915"/><path d="M212.33479,157.9437a.374.374,0,1,1,.6474.37469l-8.03989,13.92011a.374.374,0,1,1-.6474-.37469Z" transform="translate(-131.4782 -109.34961)" style="fill:#003915"/><path d="M212.0088,222.3199a.374.374,0,0,1,.64749.37469l-8.04,13.92011a.374.374,0,1,1-.6474-.37469Z" transform="translate(-131.4782 -109.34961)" style="fill:#003915"/><path d="M182.7428,155.90131a.374.374,0,1,0,.6474-.37469l-8.0399-13.92011a.374.374,0,1,0-.6474.37469Z" transform="translate(-131.4782 -109.34961)" style="fill:#003915"/><path d="M260.15811,250.329a.374.374,0,0,1,.6474.3748l-8.03992,13.92011a.374.374,0,0,1-.6474-.3748Z" transform="translate(-131.4782 -109.34961)" style="fill:#003915"/><rect x="41.5999" y="48.17938" width="2.6022" height="23.61111" style="fill:#003915"/><rect x="41.5999" y="2.61728" width="2.6022" height="29.82471" style="fill:#003915"/><rect x="70.7298" y="27.85068" width="2.6022" height="16.28531" style="fill:#003915"/><rect x="70.7298" y="62.24399" width="2.6022" height="46.573" style="fill:#003915"/><rect x="70.7298" y="127.24419" width="2.6022" height="6.65291" style="fill:#003915"/><rect x="38.6898" y="95.37709" width="2.6022" height="37.5105" style="fill:#003915"/><rect x="44.54221" y="2.61728" width="2.6022" height="27.7197" style="fill:#003915"/><rect x="71.2919" y="65.85078" width="55.3791" height="2.6022" style="fill:#003915"/><rect x="70.7298" y="132.11629" width="55.3791" height="2.6022" style="fill:#003915"/><rect x="4.923" y="132.11629" width="46.3291" height="2.6022" style="fill:#003915"/><rect x="4.923" y="95.37709" width="15.89861" height="2.6022" style="fill:#003915"/><rect x="4.923" y="121.1375" width="35.289" height="2.60219" style="fill:#003915"/><rect x="37.17331" y="95.37709" width="3.63849" height="2.6022" style="fill:#003915"/><rect x="42.5518" y="27.85068" width="30.7802" height="2.6022" style="fill:#003915"/><rect x="4.9068" y="66.27739" width="43.57701" height="2.6022" style="fill:#003915"/><rect x="5.36661" width="147.68221" height="5.00198" style="fill:#003915"/><rect x="129.3466" y="132.11629" width="34.08011" height="5.00211" style="fill:#003915"/><rect width="6.4256" height="76.4453" style="fill:#003915"/><rect y="95.37709" width="6.4256" height="103.4623" style="fill:#003915"/><rect x="124.41771" y="171.12619" width="8.1601" height="28.0153" style="fill:#003915"/><rect y="198.33759" width="163.41679" height="8.1601" style="fill:#003915"/><rect x="124.41771" y="65.85078" width="38.88" height="8.16011" style="fill:#003915"/><rect x="124.41771" y="132.11629" width="8.1601" height="8.953" style="fill:#003915"/><rect x="149.62822" width="8.1601" height="21.09769" style="fill:#003915"/><rect x="149.62822" y="51.3652" width="8.1601" height="21.21248" style="fill:#003915"/><rect x="39.46141" y="66.27739" width="12.7843" height="8.1601" style="fill:#003915"/><rect x="39.4946" y="132.11629" width="12.78421" height="8.1601" style="fill:#003915"/><rect x="118.0256" y="132.11629" width="12.78429" height="8.1601" style="fill:#003915"/><rect x="125.50679" y="195.87569" width="37.91992" height="10.622" style="fill:#003915"/><rect x="149.62822" y="61.95569" width="13.79849" height="10.62199" style="fill:#003915"/><rect x="152.63011" y="36.87418" width="2.29858" height="0.5018" style="fill:#003915"/><rect x="152.63011" y="35.67599" width="2.29858" height="0.50119" style="fill:#003915"/><rect x="152.63011" y="23.0386" width="2.29858" height="0.5015" style="fill:#003915"/><rect x="152.63011" y="21.84039" width="2.29858" height="0.50119" style="fill:#003915"/><rect x="152.63011" y="50.9859" width="2.29858" height="0.5018" style="fill:#003915"/><rect x="152.63011" y="49.78799" width="2.29858" height="0.50119" style="fill:#003915"/><rect x="149.62822" y="19.7836" width="0.5015" height="34.09369" style="fill:#003915"/><rect x="152.4753" y="19.7836" width="0.5015" height="34.09369" style="fill:#003915"/><rect x="154.64671" y="19.7836" width="0.5014" height="34.09369" style="fill:#003915"/><rect x="157.2877" y="19.7836" width="0.5015" height="34.09369" style="fill:#003915"/><path d="M260.70831,269.37331h-1.66992v-.697h1.66992Zm0,13.5692h-1.66992V269.8748h1.66992Zm0,1.1982h-1.66992v-.6971h1.66992Zm-1.66992.50169h1.66992v5.7895h.5015V268.6763h2.34558v21.7556h.5015V268.17509h-8.161V290.4319h.5015V268.6763H258.537v18.0518h.5014Z" transform="translate(-131.4782 -109.34961)" style="fill:#003915;fill-rule:evenodd"/><rect x="158.27159" y="175.81009" width="1.29721" height="0.4471" style="fill:#003915"/><rect x="158.27159" y="174.74229" width="1.29721" height="0.44679" style="fill:#003915"/><rect x="158.27159" y="157.20808" width="1.29721" height="0.44701" style="fill:#003915"/><rect x="158.27159" y="156.14018" width="1.29721" height="0.44681" style="fill:#003915"/><rect x="158.27159" y="138.6057" width="1.29721" height="0.44699" style="fill:#003915"/><rect x="158.27159" y="137.53789" width="1.29721" height="0.4467" style="fill:#003915"/><rect x="158.27159" y="194.41249" width="1.29721" height="0.447" style="fill:#003915"/><rect x="158.27159" y="193.34469" width="1.29721" height="0.4467" style="fill:#003915"/><rect x="160.35139" y="135.47108" width="0.44672" height="60.8213" style="fill:#003915"/><rect x="159.26012" y="135.47108" width="0.44669" height="60.8213" style="fill:#003915"/><rect x="158.17921" y="135.47108" width="0.44678" height="60.8213" style="fill:#003915"/><path d="M168.9267,229.9332h-9.8223a.90527.90527,0,0,1-.9054-.904V224.4189a4.59567,4.59567,0,0,1,4.5896-4.5909h2.4523a4.59564,4.59564,0,0,1,4.59039,4.5909v4.61031a.90478.90478,0,0,1-.9046.904m-6.13809-9.8606a4.35094,4.35094,0,0,0-4.34491,4.3463v4.61031a.66137.66137,0,0,0,.66071.6599h9.8223a.66067.66067,0,0,0,.6599-.6599V224.4189a4.35129,4.35129,0,0,0-4.34569-4.3463Z" transform="translate(-131.4782 -109.34961)" style="fill:#003915"/><path d="M162.78889,221.1628a3.25877,3.25877,0,0,0-3.2545,3.2561v2.6881a.56785.56785,0,0,0,.5672.5675H163.677v.24519h-3.57541a.814.814,0,0,1-.81239-.8127v-2.6881a3.50406,3.50406,0,0,1,3.49969-3.5007h2.45221a3.50467,3.50467,0,0,1,3.50079,3.5007v2.6881a.81446.81446,0,0,1-.81349.8127H164.353v-.24519h3.57541a.56821.56821,0,0,0,.5683-.5675v-2.6881a3.25933,3.25933,0,0,0-3.2556-3.2561Z" transform="translate(-131.4782 -109.34961)" style="fill:#003915"/><path d="M164.0157,224.76649a.7835.7835,0,1,1,.7838-.78349.7848.7848,0,0,1-.7838.78349m0-1.3224a.53876.53876,0,1,0,.5392.53891A.53972.53972,0,0,0,164.0157,223.44409Z" transform="translate(-131.4782 -109.34961)" style="fill:#003915"/><rect x="32.4151" y="114.07549" width="0.2449" height="1.11661" style="fill:#003915"/><rect x="31.97911" y="114.51089" width="1.116" height="0.2455" style="fill:#003915"/><path d="M164.353,228.7509h.4037a.17372.17372,0,0,0,.1729-.1741v-.3793a.17363.17363,0,0,0-.1729-.174h-.4037v-.2449h.4037a.41868.41868,0,0,1,.41811.4189v.3793a.41864.41864,0,0,1-.41811.4187h-.40559l.00189-.0374Zm-1.0771-.7274a.17446.17446,0,0,0-.17409.174v.3793a.17455.17455,0,0,0,.17409.1741h.40111v.2072l.0022.0374h-.4033a.41864.41864,0,0,1-.4187-.4187v-.3793a.41868.41868,0,0,1,.4187-.4189h.40111v.2449Z" transform="translate(-131.4782 -109.34961)" style="fill:#003915"/><path d="M164.0157,229.4184a.461.461,0,0,1-.4612-.4603v-3.0804a.4605.4605,0,0,1,.921,0v3.0804a.46053.46053,0,0,1-.45979.4603m0-3.7567a.21677.21677,0,0,0-.21631.216v3.0804a.21561.21561,0,0,0,.43121,0v-3.0804A.21609.21609,0,0,0,164.0157,225.6617Z" transform="translate(-131.4782 -109.34961)" style="fill:#003915"/><path d="M138.1198,144.362v9.82239a.90536.90536,0,0,0,.904.90543h4.6102a4.59571,4.59571,0,0,0,4.591-4.5896v-2.4523a4.59569,4.59569,0,0,0-4.591-4.59042h-4.6102a.90477.90477,0,0,0-.904.90451m9.8606,6.13821a4.351,4.351,0,0,1-4.34639,4.34488h-4.6102a.6614.6614,0,0,1-.6599-.66071V144.362a.66075.66075,0,0,1,.6599-.65991h4.6102a4.35141,4.35141,0,0,1,4.34639,4.34583Z" transform="translate(-131.4782 -109.34961)" style="fill:#003915"/><path d="M146.8902,150.49991a3.25871,3.25871,0,0,1-3.2562,3.25439h-2.688a.56779.56779,0,0,1-.5675-.5672v-3.57532h-.24519v3.57532a.814.814,0,0,0,.8127.81241h2.688a3.50406,3.50406,0,0,0,3.50079-3.4996v-2.4523a3.5046,3.5046,0,0,0-3.50079-3.5007h-2.688a.81445.81445,0,0,0-.8127.81351v3.57529h.24519v-3.57529a.56831.56831,0,0,1,.5675-.56842h2.688a3.25942,3.25942,0,0,1,3.2562,3.25562Z" transform="translate(-131.4782 -109.34961)" style="fill:#003915"/><path d="M143.2865,149.2731a.7835.7835,0,1,0,.78351-.78381.78482.78482,0,0,0-.78351.78381m1.3224,0a.53875.53875,0,1,1-.53889-.53922A.53967.53967,0,0,1,144.6089,149.2731Z" transform="translate(-131.4782 -109.34961)" style="fill:#003915"/><rect x="12.03311" y="39.80099" width="1.11659" height="0.2449" style="fill:#003915"/><rect x="12.46881" y="39.36588" width="0.2455" height="1.11603" style="fill:#003915"/><path d="M139.30209,148.9357v-.40359a.17373.17373,0,0,1,.1741-.17291h.3793a.17363.17363,0,0,1,.174.17291v.40359h.2449v-.40359a.41867.41867,0,0,0-.4189-.41809h-.3793a.41862.41862,0,0,0-.4187.41809v.40561l.0374-.002Zm.7274,1.07721a.17437.17437,0,0,1-.174.174h-.3793a.17446.17446,0,0,1-.1741-.174v-.40112h-.2072l-.0374-.00229v.40341a.41864.41864,0,0,0,.4187.4187h.3793a.41868.41868,0,0,0,.4189-.4187v-.40112h-.2449Z" transform="translate(-131.4782 -109.34961)" style="fill:#003915"/><path d="M138.6346,149.2731a.46109.46109,0,0,0,.4603.46121h3.0804a.46051.46051,0,0,0,0-.921h-3.0804a.46054.46054,0,0,0-.4603.45981m3.7567,0a.21667.21667,0,0,1-.216.21619h-3.0804a.21555.21555,0,0,1,0-.43109h3.0804A.21609.21609,0,0,1,142.3913,149.2731Z" transform="translate(-131.4782 -109.34961)" style="fill:#003915"/><path d="M152.1828,218.1337a3.9169,3.9169,0,0,1-3.913,3.9115h-5.6653a.67726.67726,0,0,1-.63921-.4561,1.24118,1.24118,0,0,1-.205.20351.94593.94593,0,0,0,.84421.52159h5.6653a4.18079,4.18079,0,1,0,0-8.36159h-5.6653a.94542.94542,0,0,0-.84361.521,1.237,1.237,0,0,1,.20471.2032.67637.67637,0,0,1,.6389-.45551h5.6653a3.91709,3.91709,0,0,1,3.913,3.9124" transform="translate(-131.4782 -109.34961)" style="fill:#003915"/><path d="M143.68539,215.3299v5.609a.20391.20391,0,0,0,.20151.2012h4.27069a3.00655,3.00655,0,1,0,0-6.01311H143.8869a.20465.20465,0,0,0-.20151.2029m.26811,5.5415v-5.476h4.20409a2.738,2.738,0,0,1,0,5.476Z" transform="translate(-131.4782 -109.34961)" style="fill:#003915"/><path d="M146.41631,218.134a1.0081,1.0081,0,1,0,1.008-1.0089,1.01006,1.01006,0,0,0-1.008,1.0089m1.7475,0a.7394.7394,0,1,1-.7395-.7399A.74029.74029,0,0,1,148.1638,218.134Z" transform="translate(-131.4782 -109.34961)" style="fill:#003915"/><rect x="144.21898" y="219.62108" width="2.24219" height="0.26858" transform="translate(-234.03825 21.17748) rotate(-36.72481)" style="fill:#003915"/><rect x="145.20573" y="215.43453" width="0.26914" height="2.2431" transform="translate(-246.60111 93.81797) rotate(-53.19014)" style="fill:#003915"/><path d="M138.18359,215.43311v5.40059a1.355,1.355,0,0,0,1.35381,1.3524h1.4743a1.35344,1.35344,0,0,0,1.3524-1.3524v-5.40059a1.35313,1.35313,0,0,0-1.3524-1.35181h-1.4743a1.35471,1.35471,0,0,0-1.35381,1.35181m3.91211,5.40059a1.08542,1.08542,0,0,1-1.084,1.0842h-1.4743a1.08584,1.08584,0,0,1-1.0851-1.0842v-5.40059a1.08594,1.08594,0,0,1,1.0851-1.08371h1.4743a1.08552,1.08552,0,0,1,1.084,1.08371Z" transform="translate(-131.4782 -109.34961)" style="fill:#003915"/><path d="M139.58591,218.134a.6881.6881,0,1,0,.68739-.68831.68815.68815,0,0,0-.68739.68831m1.10719,0a.41925.41925,0,1,1-.4198-.4196A.41941.41941,0,0,1,140.6931,218.134Z" transform="translate(-131.4782 -109.34961)" style="fill:#003915"/><path d="M158.1936,128.68561a3.91691,3.91691,0,0,1-3.9115-3.913V119.1073a.67724.67724,0,0,1,.4561-.63919,1.24466,1.24466,0,0,1-.20351-.2049.94561.94561,0,0,0-.52159.84409v5.66531a4.18079,4.18079,0,1,0,8.36159,0V119.1073a.94552.94552,0,0,0-.521-.8436,1.23816,1.23816,0,0,1-.2032.20471.67635.67635,0,0,1,.45551.63889v5.66531a3.91711,3.91711,0,0,1-3.9124,3.913" transform="translate(-131.4782 -109.34961)" style="fill:#003915"/><path d="M160.99741,120.1882h-5.6089a.20393.20393,0,0,0-.20131.20151v4.27069a3.00655,3.00655,0,1,0,6.01311,0v-4.27069a.20459.20459,0,0,0-.2029-.20151m-5.5415.2681h5.476v4.2041a2.738,2.738,0,0,1-5.476,0Z" transform="translate(-131.4782 -109.34961)" style="fill:#003915"/><path d="M158.19341,122.9191a1.00815,1.00815,0,1,0,1.00879,1.008,1.01,1.01,0,0,0-1.00879-1.008m0,1.7475a.7394.7394,0,1,1,.73979-.7395A.74031.74031,0,0,1,158.19341,124.6666Z" transform="translate(-131.4782 -109.34961)" style="fill:#003915"/><rect x="156.43765" y="120.72179" width="0.26855" height="2.24224" transform="translate(-173.25998 8.45984) rotate(-36.72481)" style="fill:#003915"/><rect x="158.64971" y="121.70855" width="2.24307" height="0.2691" transform="translate(-164.98495 67.4135) rotate(-53.19201)" style="fill:#003915"/><path d="M160.8942,114.6864h-5.40059a1.355,1.355,0,0,0-1.3524,1.35379v1.4743a1.35345,1.35345,0,0,0,1.3524,1.35242h5.40059a1.35314,1.35314,0,0,0,1.35181-1.35242v-1.4743a1.35471,1.35471,0,0,0-1.35181-1.35379m-5.40059,3.91211a1.08545,1.08545,0,0,1-1.08421-1.084v-1.4743a1.08585,1.08585,0,0,1,1.08421-1.08508h5.40059a1.08594,1.08594,0,0,1,1.08371,1.08508v1.4743a1.08553,1.08553,0,0,1-1.08371,1.084Z" transform="translate(-131.4782 -109.34961)" style="fill:#003915"/><path d="M158.19341,116.08871a.6881.6881,0,1,0,.6882.68738.68807.68807,0,0,0-.6882-.68738m0,1.10718a.41925.41925,0,1,1,.41949-.4198A.41937.41937,0,0,1,158.19341,117.19589Z" transform="translate(-131.4782 -109.34961)" style="fill:#003915"/><path d="M146.2907,140.91171H138.4512v-11.3479h7.83949Zm-8.1709.33078h8.5025V129.2327h-8.5025Z" transform="translate(-131.4782 -109.34961)" style="fill:#003915"/><path d="M146.5152,138.5173a.60438.60438,0,0,0,.6125-.5936v-5.37219a.604.604,0,0,0-.6125-.5939v.33078a.26976.26976,0,0,1,.2809.26312v5.37219a.26949.26949,0,0,1-.2809.26279Z" transform="translate(-131.4782 -109.34961)" style="fill:#003915"/><path d="M143.8886,136.25949h-2.7077l-.6216-1.59729a2.47347,2.47347,0,0,1,1.6747.0918,4.15147,4.15147,0,0,0,1.24071.24121,2.44929,2.44929,0,0,0,.9366-.1882Zm-2.9341.33081h3.16681l.89209-2.48-.39059.2247a2.26605,2.26605,0,0,1-1.1481.32941,3.89421,3.89421,0,0,1-1.14371-.22668,3.89716,3.89716,0,0,0-1.14409-.22821,2.017,2.017,0,0,0-.91251.218l-.1358.06741Z" transform="translate(-131.4782 -109.34961)" style="fill:#003915"/><path d="M140.271,159.36441h30.085a2.161,2.161,0,0,1,2.1515,2.16568v10.41132a2.1609,2.1609,0,0,1-2.1515,2.166H140.271a2.16084,2.16084,0,0,1-2.1512-2.166V161.53009a2.161,2.161,0,0,1,2.1512-2.16568m30.085,14.51309a1.93116,1.93116,0,0,0,1.92189-1.9361V161.53009a1.931,1.931,0,0,0-1.92189-1.93549H140.271a1.93132,1.93132,0,0,0-1.92209,1.93549v10.41132a1.93145,1.93145,0,0,0,1.92209,1.9361Z" transform="translate(-131.4782 -109.34961)" style="fill:#003915"/><path d="M167.37019,172.61549a2.577,2.577,0,0,0,2.5654-2.58209v-6.5948a2.57666,2.57666,0,0,0-2.5654-2.58179H143.257a2.57709,2.57709,0,0,0-2.5659,2.58179v2.062a.39627.39627,0,0,0-.2282-.14212V163.4386a2.80637,2.80637,0,0,1,2.7941-2.8125h24.11319a2.80663,2.80663,0,0,1,2.7944,2.8125v6.5948a2.8066,2.8066,0,0,1-2.7944,2.8123H143.257a2.80634,2.80634,0,0,1-2.7941-2.8123v-1.92021a.395.395,0,0,0,.2282-.14139v2.0616a2.57748,2.57748,0,0,0,2.5659,2.58209Z" transform="translate(-131.4782 -109.34961)" style="fill:#003915"/><path d="M165.8228,171.3022a1.26658,1.26658,0,0,0,1.26109-1.2688v-6.5948a1.26626,1.26626,0,0,0-1.26109-1.26819H143.257a1.2662,1.2662,0,0,0-1.2614,1.26819v2.84491h-.2287V163.4386a1.49611,1.49611,0,0,1,1.4901-1.4989h22.5658a1.49556,1.49556,0,0,1,1.4893,1.4989v6.5948a1.49526,1.49526,0,0,1-1.4893,1.499H143.257a1.4958,1.4958,0,0,1-1.4901-1.499v-2.84511h.2287v2.84511a1.26652,1.26652,0,0,0,1.2614,1.2688Z" transform="translate(-131.4782 -109.34961)" style="fill:#003915"/><path d="M145.1622,166.00311a.73335.73335,0,1,1-.7299.73358.73149.73149,0,0,1,.7299-.73358m0,1.23648a.5033.5033,0,1,0-.50031-.5029A.50191.50191,0,0,0,145.1622,167.23959Z" transform="translate(-131.4782 -109.34961)" style="fill:#003915"/><rect x="13.56891" y="56.86389" width="0.22929" height="1.04568" style="fill:#003915"/><rect x="13.1647" y="57.27179" width="1.0378" height="0.23071" style="fill:#003915"/><path d="M140.6622,166.28351V165.746a.27982.27982,0,0,0-.27859-.2803h-.5052a.28033.28033,0,0,0-.27921.2803v.53751h-.2287V165.746a.5104.5104,0,0,1,.5079-.51111h.5052a.50979.50979,0,0,1,.5074.51111v.53751Zm-.27859,1.722a.27975.27975,0,0,0,.27859-.28v-.5372h.22881v.5372a.50933.50933,0,0,1-.5074.5108h-.5052a.50994.50994,0,0,1-.5079-.5108v-.5372h.2287v.5372a.28026.28026,0,0,0,.27921.28Z" transform="translate(-131.4782 -109.34961)" style="fill:#003915"/><path d="M139.37241,166.16809h3.20119a.56767.56767,0,0,1,0,1.13532h-3.20119a.56767.56767,0,0,1,0-1.13532m3.20119.90512a.33716.33716,0,0,0,0-.67432h-3.20119a.33717.33717,0,0,0,0,.67432Z" transform="translate(-131.4782 -109.34961)" style="fill:#003915"/><path d="M169.19431,244.281H157.4252V256.0499h11.7691Zm-11.5197.2495h11.2706V255.801h-11.2706Z" transform="translate(-131.4782 -109.34961)" style="fill:#003915"/><path d="M163.30991,254.9518a3.91956,3.91956,0,0,1-.98161-7.7142.29955.29955,0,0,1-.0743-.1976v-.0405a4.16851,4.16851,0,1,0,2.1115-.00029V247.04a.29843.29843,0,0,1-.074.19731,3.91973,3.91973,0,0,1-.9816,7.71449" transform="translate(-131.4782 -109.34961)" style="fill:#003915"/><path d="M163.30991,247.5511a3.4815,3.4815,0,1,0,3.4812,3.4818,3.4857,3.4857,0,0,0-3.4812-3.4818m0,6.7135a3.2319,3.2319,0,1,1,3.2318-3.2317A3.23541,3.23541,0,0,1,163.30991,254.2646Z" transform="translate(-131.4782 -109.34961)" style="fill:#003915"/><path d="M163.30991,250.13029a.90231.90231,0,1,0,.9025.9026.90328.90328,0,0,0-.9025-.9026m0,1.55571a.653.653,0,1,1,.65309-.65311A.65427.65427,0,0,1,163.30991,251.686Z" transform="translate(-131.4782 -109.34961)" style="fill:#003915"/><rect x="31.707" y="141.02589" width="0.2494" height="1.31389" style="fill:#003915"/><rect x="31.17491" y="141.55798" width="1.3136" height="0.24971" style="fill:#003915"/><path d="M164.0636,246.2262h-1.5074a.42708.42708,0,0,0-.4267.42661V247.04a.427.427,0,0,0,.4267.42661h1.5074a.42686.42686,0,0,0,.42661-.42661v-.38719a.427.427,0,0,0-.42661-.42661m-1.5074.991a.17774.17774,0,0,1-.17751-.1772v-.38719a.17754.17754,0,0,1,.17751-.1772h1.5074a.17727.17727,0,0,1,.1772.1772V247.04a.17747.17747,0,0,1-.1772.1772Z" transform="translate(-131.4782 -109.34961)" style="fill:#003915"/><path d="M163.0899,246.35091v-.0865a.2197.2197,0,1,1,.43939,0v.0865h.24971v-.0865a.46941.46941,0,0,0-.93881,0v.0865Zm.22,2.59a.2205.2205,0,0,1-.22-.2205V247.3419h-.24971v1.37849a.46941.46941,0,1,0,.93881,0V247.3419h-.24971v1.37849A.22.22,0,0,1,163.30991,248.9409Z" transform="translate(-131.4782 -109.34961)" style="fill:#003915"/><path d="M140.5295,244.7623h7.15671a1.49612,1.49612,0,0,1,1.49409,1.4948v8.29871a1.496,1.496,0,0,1-1.49409,1.49409H140.5295a1.49559,1.49559,0,0,1-1.49409-1.49409V246.2571a1.49574,1.49574,0,0,1,1.49409-1.4948m7.15671,11.0546a1.26261,1.26261,0,0,0,1.26109-1.26109V246.2571a1.26275,1.26275,0,0,0-1.26109-1.2617H140.5295a1.26307,1.26307,0,0,0-1.26169,1.2617v8.29871a1.26293,1.26293,0,0,0,1.26169,1.26109Z" transform="translate(-131.4782 -109.34961)" style="fill:#003915"/><path d="M140.5295,245.5813h7.15671a.67623.67623,0,0,1,.6758.6758v7.0106a.67642.67642,0,0,1-.6758.6758H140.5295a.67646.67646,0,0,1-.6763-.6758v-7.0106a.67628.67628,0,0,1,.6763-.6758m7.15671,8.1292a.44328.44328,0,0,0,.443-.44279v-7.0106a.44348.44348,0,0,0-.443-.4431H140.5295a.44387.44387,0,0,0-.44389.4431v7.0106a.44367.44367,0,0,0,.44389.44279Z" transform="translate(-131.4782 -109.34961)" style="fill:#003915"/><path d="M146.986,254.3622a.4742.4742,0,1,1-.4742.4742.475.475,0,0,1,.4742-.4742m0,.71541a.2412.2412,0,1,0-.24149-.24121A.24193.24193,0,0,0,146.986,255.07761Z" transform="translate(-131.4782 -109.34961)" style="fill:#003915"/><path d="M145.3853,254.3622a.4742.4742,0,1,1-.47479.4742.475.475,0,0,1,.47479-.4742m0,.71541a.2412.2412,0,1,0-.24181-.24121A.2416.2416,0,0,0,145.3853,255.07761Z" transform="translate(-131.4782 -109.34961)" style="fill:#003915"/><rect x="13.235" y="138.37408" width="2.7196" height="0.23271" style="fill:#003915"/><rect x="14.4783" y="137.12999" width="0.2327" height="2.7195" style="fill:#003915"/><path d="M146.073,246.943a.8969.8969,0,1,1-.89659.89691.898.898,0,0,1,.89659-.89691m0,1.56111a.6643.6643,0,1,0-.66389-.6642A.66557.66557,0,0,0,146.073,248.5041Z" transform="translate(-131.4782 -109.34961)" style="fill:#003915"/><rect x="13.235" y="142.21928" width="2.7196" height="0.23241" style="fill:#003915"/><rect x="14.4783" y="140.97488" width="0.2327" height="2.72041" style="fill:#003915"/><path d="M146.073,250.7874a.89715.89715,0,1,1-.89659.8974.89858.89858,0,0,1,.89659-.8974m0,1.5619a.66475.66475,0,1,0-.66389-.66451A.66544.66544,0,0,0,146.073,252.3493Z" transform="translate(-131.4782 -109.34961)" style="fill:#003915"/><rect x="9.3045" y="138.37408" width="2.7193" height="0.23271" style="fill:#003915"/><rect x="10.54721" y="137.12999" width="0.233" height="2.7195" style="fill:#003915"/><path d="M142.14191,246.943a.8969.8969,0,1,1-.89691.89691.89783.89783,0,0,1,.89691-.89691m0,1.56111a.6643.6643,0,1,0-.66391-.6642A.66608.66608,0,0,0,142.14191,248.5041Z" transform="translate(-131.4782 -109.34961)" style="fill:#003915"/><rect x="9.3045" y="142.21928" width="2.7193" height="0.23241" style="fill:#003915"/><rect x="10.54721" y="140.97488" width="0.233" height="2.72041" style="fill:#003915"/><path d="M142.14191,250.7874a.89715.89715,0,1,1-.89691.8974.89845.89845,0,0,1,.89691-.8974m0,1.5619a.66475.66475,0,1,0-.66391-.66451A.66595.66595,0,0,0,142.14191,252.3493Z" transform="translate(-131.4782 -109.34961)" style="fill:#003915"/><path d="M142.67171,254.3622a.4742.4742,0,1,1-.4745.4742.47482.47482,0,0,1,.4745-.4742m0,.71541a.2412.2412,0,1,0-.24181-.24121A.24166.24166,0,0,0,142.67171,255.07761Z" transform="translate(-131.4782 -109.34961)" style="fill:#003915"/><path d="M141.0701,254.3622a.4742.4742,0,1,1-.47389.4742.47464.47464,0,0,1,.47389-.4742m0,.71541a.2412.2412,0,1,0-.2415-.24121A.24167.24167,0,0,0,141.0701,255.07761Z" transform="translate(-131.4782 -109.34961)" style="fill:#003915"/><path d="M164.1898,233.4167h7.056v2.49989h-7.056Zm-4.09381,0h2.87511v2.49989H160.096Zm-4.4218,0h2.4843v2.49989h-2.4843Zm-12.7692,0h6.48421v2.49989H142.905Zm7.7187,0h3.86279v2.49989H150.6237Zm13.5661,4.4498h7.056v2.49989h-7.056Zm-4.09381,0h2.87511v2.49989H160.096Zm-4.4218,0h2.4843v2.49989h-2.4843Zm-12.7692,0h6.48421v2.49989H142.905Zm7.7187,0h3.86279v2.49989H150.6237Zm21.7471,3.6442h-30.6v-9.6879h30.6Z" transform="translate(-131.4782 -109.34961)" style="fill:#003915;fill-rule:evenodd"/><path d="M171.9028,115.83591a.80923.80923,0,1,0,.2347.57089.80981.80981,0,0,0-.2347-.57089m-.5726-1.03641a1.60708,1.60708,0,1,1-1.1364.47061A1.60252,1.60252,0,0,1,171.3302,114.7995Z" transform="translate(-131.4782 -109.34961)" style="fill:#003915"/><path d="M140.2829,238.6557a.80927.80927,0,1,0,.2347.57089.80977.80977,0,0,0-.2347-.57089m-.5726-1.03641a1.60708,1.60708,0,1,1-1.1364.47061A1.60265,1.60265,0,0,1,139.7103,237.61929Z" transform="translate(-131.4782 -109.34961)" style="fill:#003915"/><path d="M245.5322,151.92459c-.7319,0-1.2359-.618-1.2359-1.7399s.504-1.7399,1.2359-1.7399,1.2359.61792,1.2359,1.7399-.504,1.7399-1.2359,1.7399m0,.396c.972,0,1.67981-.798,1.67981-2.13589s-.70781-2.13589-1.67981-2.13589-1.67389.79791-1.67389,2.13589S244.5602,152.32059,245.5322,152.32059Zm-3.97189-.396c-.7319,0-1.2359-.618-1.2359-1.7399s.504-1.7399,1.2359-1.7399,1.2359.61792,1.2359,1.7399S242.29221,151.92459,241.5603,151.92459Zm0,.396c.972,0,1.67979-.798,1.67979-2.13589s-.70779-2.13589-1.67979-2.13589-1.6739.79791-1.6739,2.13589S240.5883,152.32059,241.5603,152.32059Zm-2.5498-.65988a.314.314,0,0,0-.318.324.303.303,0,0,0,.216.30579l-.20409.87h.288l.252-.828a.97592.97592,0,0,0,.0842-.34778A.314.314,0,0,0,239.0105,151.66071Zm-2.2861-1.77591,1.188-1.4942v-.30579h-2.7v.38379h2.1481l-1.16391,1.4581v.31812h.29991c.7798,0,1.13379.32989,1.13379.83389,0,.52188-.38379.84589-1.08.84589a1.841,1.841,0,0,1-1.3019-.4859l-.2101.34192a2.18514,2.18514,0,0,0,1.512.54c1.014,0,1.52391-.54,1.52391-1.24188C238.0742,150.40659,237.6244,149.93271,236.7244,149.8848Zm-3.852-1.8v.38379h.9901v3.816h.432v-4.1998Z" transform="translate(-131.4782 -109.34961)" style="fill:#6e6e6e;fill-rule:evenodd"/><path d="M250.51891,211.3895c-.7319,0-1.2359-.618-1.2359-1.7399s.504-1.7399,1.2359-1.7399,1.2359.6179,1.2359,1.7399-.504,1.7399-1.2359,1.7399m0,.396c.972,0,1.67979-.798,1.67979-2.13589s-.70779-2.13589-1.67979-2.13589-1.6739.7979-1.6739,2.13589S249.54691,211.78549,250.51891,211.78549Zm-5.20781-4.23579v1.1698h.426v-.786h2.16l-1.728,3.816h.468l1.7581-3.894v-.3058Zm-.7498,3.5759a.314.314,0,0,0-.318.324.30311.30311,0,0,0,.216.30589l-.2041.8699h.288l.252-.828a.976.976,0,0,0,.0842-.34779A.314.314,0,0,0,244.56129,211.1256Zm-3.24.23981,1.4281-1.4037a1.72919,1.72919,0,0,0,.69-1.31419c0-.70181-.54-1.1338-1.39211-1.1338a1.88729,1.88729,0,0,0-1.4879.59979l.3058.26421a1.42619,1.42619,0,0,1,1.1461-.468c.642,0,.98389.2999.98389.786,0,.28781-.08989.56981-.5638,1.03781l-1.7462,1.7101v.30589h2.94611v-.38409Zm-2.982-3.8157v.3838h.99011v3.816h.432v-4.1998Z" transform="translate(-131.4782 -109.34961)" style="fill:#6e6e6e;fill-rule:evenodd"/><path d="M157.3707,194.8139c-.7319,0-1.2359-.6179-1.2359-1.7399s.504-1.7399,1.2359-1.7399,1.2359.61789,1.2359,1.7399-.504,1.7399-1.2359,1.7399m0,.396c.972,0,1.6799-.7979,1.6799-2.13589s-.7079-2.13591-1.6799-2.13591-1.6738.7979-1.6738,2.13591S156.3987,195.2099,157.3707,195.2099Zm-3.63-2.43581,1.188-1.49409v-.30589h-2.7v.38379h2.1481l-1.16389,1.4581v.3181h.2999c.7798,0,1.1338.32991,1.1338.83391,0,.5219-.3838.8459-1.08.8459a1.8411,1.8411,0,0,1-1.30191-.4859l-.2101.3419a2.18477,2.18477,0,0,0,1.512.54c1.014,0,1.524-.54,1.524-1.2419C155.09061,193.296,154.6407,192.822,153.74071,192.77409Zm-2.4299,1.77591a.314.314,0,0,0-.318.324.30313.30313,0,0,0,.216.30591l-.2041.8699h.288l.252-.828a.97614.97614,0,0,0,.08421-.34781A.314.314,0,0,0,151.31081,194.55Zm-3.24.23979,1.4281-1.4037a1.72917,1.72917,0,0,0,.69-1.31409c0-.7019-.54-1.13391-1.39211-1.13391a1.88725,1.88725,0,0,0-1.4879.59981l.3058.26419a1.42618,1.42618,0,0,1,1.1461-.468c.642,0,.9839.2999.9839.786,0,.2878-.0899.56979-.56381,1.0378l-1.7462,1.7101v.30591h2.94611v-.38411Z" transform="translate(-131.4782 -109.34961)" style="fill:#6e6e6e;fill-rule:evenodd"/><path d="M164.8324,215.8138c-.7319,0-1.2359-.6179-1.2359-1.7399s.504-1.7399,1.2359-1.7399,1.2359.618,1.2359,1.7399-.504,1.7399-1.2359,1.7399m0,.396c.972,0,1.67981-.7979,1.67981-2.13589s-.70781-2.13589-1.67981-2.13589-1.6739.798-1.6739,2.13589S163.8604,216.20979,164.8324,216.20979Zm-3.97189-.396c-.7319,0-1.2359-.6179-1.2359-1.7399s.504-1.7399,1.2359-1.7399,1.2359.618,1.2359,1.7399S161.59241,215.8138,160.8605,215.8138Zm0,.396c.972,0,1.67979-.7979,1.67979-2.13589s-.70779-2.13589-1.67979-2.13589-1.6739.798-1.6739,2.13589S159.8885,216.20979,160.8605,216.20979Zm-2.5498-.6599a.31406.31406,0,0,0-.318.324.30312.30312,0,0,0,.216.30589l-.2041.8699h.288l.252-.828a.97556.97556,0,0,0,.0842-.34779A.314.314,0,0,0,158.3107,215.5499Zm-3.24.23981,1.4281-1.4037a1.72912,1.72912,0,0,0,.69-1.3141c0-.7019-.54-1.1339-1.39209-1.1339a1.88727,1.88727,0,0,0-1.4879.59979l.30579.26421a1.42652,1.42652,0,0,1,1.1461-.468c.642,0,.9839.2999.9839.786,0,.28781-.0899.56981-.5638,1.03781l-1.7462,1.71019v.3058h2.94611v-.38409Z" transform="translate(-131.4782 -109.34961)" style="fill:#6e6e6e;fill-rule:evenodd"/><path d="M211.36079,294.814c-.73189,0-1.2359-.618-1.2359-1.7399s.504-1.7399,1.2359-1.7399,1.2359.6179,1.2359,1.7399-.504,1.7399-1.2359,1.7399m0,.396c.972,0,1.67981-.798,1.67981-2.13591s-.70781-2.13589-1.67981-2.13589-1.6738.7979-1.6738,2.13589S210.38879,295.21,211.36079,295.21Zm-3.90579-.366c-.74409,0-1.1821-.324-1.1821-.8461,0-.5159.438-.83989,1.1821-.83989.74381,0,1.188.324,1.188.83989C208.643,294.52,208.19881,294.844,207.455,294.844Zm-1.0381-2.78389c0-.468.402-.756,1.0381-.756.62979,0,1.044.288,1.044.762,0,.4561-.39009.75-1.044.75S206.4169,292.5222,206.4169,292.0601Zm1.8479.9119a.95109.95109,0,0,0,.6721-.9238c0-.684-.5941-1.11-1.4819-1.11-.88811,0-1.47011.426-1.47011,1.11a.94779.94779,0,0,0,.65991.9238,1.04829,1.04829,0,0,0-.8098,1.0321c0,.74379.612,1.2059,1.62,1.2059,1.002,0,1.6319-.46211,1.6319-1.2059A1.0578,1.0578,0,0,0,208.2648,292.972Zm-3.40781,1.57809a.314.314,0,0,0-.318.324.303.303,0,0,0,.216.3058l-.2041.87h.288l.252-.828a.976.976,0,0,0,.0842-.34779A.314.314,0,0,0,204.857,294.55009Zm-2.622.2939c-.74409,0-1.1821-.324-1.1821-.8461,0-.5159.438-.83989,1.1821-.83989.7438,0,1.188.324,1.188.83989C203.423,294.52,202.97881,294.844,202.235,294.844Zm-1.0381-2.78389c0-.468.402-.756,1.0381-.756.62981,0,1.044.288,1.044.762,0,.4561-.39011.75-1.044.75S201.1969,292.5222,201.1969,292.0601Zm1.8479.9119a.95107.95107,0,0,0,.6721-.9238c0-.684-.5941-1.11-1.4819-1.11-.88811,0-1.47011.426-1.47011,1.11a.94779.94779,0,0,0,.65991.9238,1.04829,1.04829,0,0,0-.8098,1.0321c0,.74379.612,1.2059,1.62,1.2059,1.002,0,1.6319-.46211,1.6319-1.2059A1.05778,1.05778,0,0,0,203.0448,292.972Zm-4.82989-1.9978v.3838h.9901v3.816h.432v-4.1998Z" transform="translate(-131.4782 -109.34961)" style="fill:#6e6e6e;fill-rule:evenodd"/><path d="M281.0047,281.784c-.7319,0-1.2359-.618-1.2359-1.74s.504-1.73991,1.2359-1.73991,1.2359.618,1.2359,1.73991-.504,1.74-1.2359,1.74m0,.396c.972,0,1.67981-.798,1.67981-2.136s-.70779-2.13591-1.67981-2.13591-1.67389.798-1.67389,2.13591S280.03271,282.18,281.0047,282.18Zm-4.5-.42009,1.4281-1.40381a1.72865,1.72865,0,0,0,.68991-1.3141c0-.70189-.54-1.1339-1.39212-1.1339a1.88712,1.88712,0,0,0-1.48788.5999l.30591.2641a1.42628,1.42628,0,0,1,1.146-.468c.64209,0,.98389.29991.98389.7861,0,.2877-.08978.56981-.56381,1.03781l-1.74609,1.7101v.30589h2.946v-.38409Zm-1.55991-.2399a.31413.31413,0,0,0-.31808.324.30316.30316,0,0,0,.216.30591l-.2041.87h.288l.252-.828a.976.976,0,0,0,.0842-.3479A.314.314,0,0,0,274.94479,281.52Zm-2.28619-1.77591,1.188-1.49409v-.30591h-2.7v.38391h2.1481l-1.16391,1.4581v.318h.2999c.77982,0,1.13391.33,1.13391.834,0,.52191-.38382.8459-1.08.8459a1.84133,1.84133,0,0,1-1.302-.4859l-.21.3419a2.185,2.185,0,0,0,1.512.54c1.01392,0,1.52393-.54,1.52393-1.2419C274.00851,280.266,273.55859,279.792,272.6586,279.74409Z" transform="translate(-131.4782 -109.34961)" style="fill:#6e6e6e;fill-rule:evenodd"/><path d="M166.01019,151.92459c-.73189,0-1.23589-.618-1.23589-1.7399s.504-1.7399,1.23589-1.7399,1.2359.61792,1.2359,1.7399-.504,1.7399-1.2359,1.7399m0,.396c.972,0,1.67981-.798,1.67981-2.13589s-.70781-2.13589-1.67981-2.13589-1.67389.79791-1.67389,2.13589S165.03819,152.32059,166.01019,152.32059Zm-3.97189-.396c-.7319,0-1.2359-.618-1.2359-1.7399s.504-1.7399,1.2359-1.7399,1.2359.61792,1.2359,1.7399S162.7702,151.92459,162.0383,151.92459Zm0,.396c.972,0,1.67979-.798,1.67979-2.13589s-.70779-2.13589-1.67979-2.13589-1.6739.79791-1.6739,2.13589S161.0663,152.32059,162.0383,152.32059Zm-2.5498-.65988a.314.314,0,0,0-.318.324.303.303,0,0,0,.216.30579l-.2041.87h.288l.252-.828a.97592.97592,0,0,0,.0842-.34778A.314.314,0,0,0,159.48849,151.66071Zm-2.622-1.85422h-.54l.144-1.33789h1.91989v-.38379h-2.29779l-.216,2.1058h.894c1.0679,0,1.40379.33588,1.40379.87589,0,.51-.3779.85809-1.09189.85809a1.82143,1.82143,0,0,1-1.2901-.4859l-.20981.34192a2.16869,2.16869,0,0,0,1.5058.54c1.0262,0,1.52391-.55789,1.52391-1.27188C158.6123,150.3046,158.1324,149.80649,156.8665,149.80649Z" transform="translate(-131.4782 -109.34961)" style="fill:#6e6e6e;fill-rule:evenodd"/><path d="M198.41161,182.06371c-.7319,0-1.2359-.618-1.2359-1.7399s.504-1.73991,1.2359-1.73991,1.2359.6179,1.2359,1.73991-.504,1.7399-1.2359,1.7399m0,.396c.972,0,1.67979-.798,1.67979-2.13589s-.70779-2.13591-1.67979-2.13591-1.6739.7979-1.6739,2.13591S197.43961,182.4597,198.41161,182.4597Zm-3.97191-.396c-.7319,0-1.2359-.618-1.2359-1.7399s.504-1.73991,1.2359-1.73991,1.2359.6179,1.2359,1.73991S195.1716,182.06371,194.4397,182.06371Zm0,.396c.972,0,1.67981-.798,1.67981-2.13589s-.70781-2.13591-1.67981-2.13591-1.6739.7979-1.6739,2.13591S193.4677,182.4597,194.4397,182.4597Zm-2.5498-.6599a.314.314,0,0,0-.318.324.303.303,0,0,0,.216.3058l-.2041.87h.288l.252-.828a.97605.97605,0,0,0,.0842-.34781A.314.314,0,0,0,191.88989,181.7998Zm-3.666-3.57591v1.1698h.426v-.786h2.16l-1.728,3.816h.468l1.7581-3.894v-.3058Z" transform="translate(-131.4782 -109.34961)" style="fill:#6e6e6e;fill-rule:evenodd"/><rect x="155.36131" y="125.44099" width="8.1601" height="14.5766" style="fill:#003915"/><rect x="155.36131" y="61.95569" width="8.1601" height="15.54181" style="fill:#003915"/><rect x="158.3632" y="94.29678" width="2.29861" height="0.50171" style="fill:#003915"/><rect x="158.3632" y="93.09859" width="2.29861" height="0.5011" style="fill:#003915"/><rect x="158.3632" y="109.84338" width="2.29861" height="0.50171" style="fill:#003915"/><rect x="158.3632" y="108.64519" width="2.29861" height="0.50121" style="fill:#003915"/><rect x="158.3632" y="78.7504" width="2.29861" height="0.5015" style="fill:#003915"/><rect x="158.3632" y="77.55219" width="2.29861" height="0.50121" style="fill:#003915"/><rect x="158.3632" y="125.38969" width="2.29861" height="0.5018" style="fill:#003915"/><rect x="158.3632" y="124.19179" width="2.29861" height="0.50121" style="fill:#003915"/><rect x="155.36131" y="76.06599" width="0.5014" height="50.80449" style="fill:#003915"/><rect x="158.20842" y="76.06599" width="0.5015" height="50.80449" style="fill:#003915"/><rect x="160.37981" y="76.06599" width="0.5014" height="50.80449" style="fill:#003915"/><rect x="163.0208" y="76.06599" width="0.5014" height="50.80449" style="fill:#003915"/><path d="M135.38609,191.38029a3.90785,3.90785,0,1,1-3.9079,3.90761,3.908,3.908,0,0,1,3.9079-3.90761" transform="translate(-131.4782 -109.34961)" style="fill:#558e42;fill-rule:evenodd"/><polygon points="6.312 85.938 4.997 85.56 3.682 85.182 3.682 85.938 3.682 86.695 4.997 86.317 6.312 85.938" style="fill:#fdfdfd;fill-rule:evenodd"/><rect x="1.5038" y="85.75938" width="2.28131" height="0.38411" style="fill:#fdfdfd"/><path d="M231.94431,116.991h-.31491l.08391-.7807h1.12v-.22391h-1.3405l-.1259,1.22852h.5213c.623,0,.8192.19589.8192.51111,0,.29739-.2205.50027-.63719.50027a1.0612,1.0612,0,0,1-.7523-.28339l-.1225.19949a1.26443,1.26443,0,0,0,.87849.31491c.5984,0,.8889-.32541.8889-.74182,0-.4343-.28011-.72449-1.01849-.72449m-2.05791-1.00461v.22391h.57741v2.2261h.252v-2.45Zm-.3569,2.086a.18318.18318,0,0,0-.18539.18912.17663.17663,0,0,0,.1259.17828l-.11909.50772h.16809l.14711-.48312a.57312.57312,0,0,0,.049-.20288A.18321.18321,0,0,0,229.5295,118.07239Zm-1.5293-1.08139h-.3149l.08389-.7807h1.1199v-.22391h-1.3405l-.12579,1.22852h.5213c.623,0,.8192.19589.8192.51111,0,.29739-.22061.50027-.6373.50027a1.06153,1.06153,0,0,1-.7523-.28339l-.12241.19949a1.26438,1.26438,0,0,0,.8784.31491c.5984,0,.889-.32541.889-.74182C229.01871,117.28119,228.7386,116.991,228.0002,116.991Z" transform="translate(-131.4782 -109.34961)" style="fill:#434242"/><path d="M243.5284,170.7364v.224h.57741v2.226h.252v-2.45Zm-1.15149,2.25749c-.43391,0-.6893-.189-.6893-.4935,0-.301.25539-.4901.6893-.4901s.6931.1891.6931.4901C243.07,172.8049,242.8109,172.9939,242.37691,172.9939Zm-.60541-1.6239c0-.273.2347-.4411.60541-.4411.36769,0,.60919.16811.60919.4445,0,.2661-.2276.43761-.60919.43761C241.9957,171.811,241.7715,171.6395,241.7715,171.37Zm1.078.532a.55476.55476,0,0,0,.392-.53909c0-.3989-.34641-.6474-.86459-.6474-.51781,0-.85741.2485-.85741.6474a.55278.55278,0,0,0,.38519.53909.611.611,0,0,0-.47249.60181c0,.434.3568.7036.9447.7036.58449,0,.95219-.26959.95219-.7036A.617.617,0,0,0,242.8495,171.902Zm-1.988.92041a.18315.18315,0,0,0-.1853.1891.17672.17672,0,0,0,.12581.1783l-.119.50769h.16811l.14709-.483a.57576.57576,0,0,0,.049-.203A.18321.18321,0,0,0,240.8615,172.8224Zm-1.33339-1.036.69279-.8714v-.17859H238.646v.224h1.2529l-.67889.8506v.18539h.1749c.4552,0,.66161.1925.66161.4865,0,.3044-.22391.4935-.6299.4935a1.07407,1.07407,0,0,1-.7596-.28349l-.12251.1996a1.27514,1.27514,0,0,0,.88211.3149c.5914,0,.889-.3149.889-.7245C240.3156,172.09081,240.0531,171.81439,239.52811,171.78639Z" transform="translate(-131.4782 -109.34961)" style="fill:#434242"/><path d="M245.81,238.7263c-.4269,0-.7211-.36061-.7211-1.0148,0-.6546.2942-1.01511.7211-1.01511s.72081.3605.72081,1.01511c0,.65419-.29391,1.0148-.72081,1.0148m0,.231c.56691,0,.9799-.4655.9799-1.2458,0-.7807-.413-1.2462-.9799-1.2462s-.97659.4655-.97659,1.2462C244.8334,238.49181,245.2431,238.95731,245.81,238.95731Zm-2.3905-2.471v.224h.57741v2.226h.252v-2.45Zm-.35689,2.086a.18315.18315,0,0,0-.1853.1891.17668.17668,0,0,0,.12579.1783l-.119.50771h.16811l.14709-.483a.57592.57592,0,0,0,.049-.203A.18322.18322,0,0,0,243.06261,238.5723Zm-.49321-.504h-.4901v-.56689h-.2449v.56689h-1.0641l1.2529-1.582h-.2798l-1.29849,1.624v.182h1.3824v.644h.252v-.644h.4901Z" transform="translate(-131.4782 -109.34961)" style="fill:#434242"/><path d="M198.3138,304.9765c-.4269,0-.7211-.3606-.7211-1.0148,0-.6546.2942-1.0151.7211-1.0151s.72081.3605.72081,1.0151c0,.6542-.2939,1.0148-.72081,1.0148m0,.231c.56691,0,.9799-.4655.9799-1.2458,0-.7807-.413-1.2462-.9799-1.2462s-.9765.4655-.9765,1.2462C197.3373,304.742,197.7469,305.2075,198.3138,305.2075Zm-2.317-1.21809c-.3779,0-.616-.20631-.616-.52831a.53633.53633,0,0,1,.59871-.5321c.42349,0,.6474.2557.6474.525A.56706.56706,0,0,1,195.9968,303.9894Zm-.0278-1.2739a.76322.76322,0,0,0-.83649.7526.74159.74159,0,0,0,.826.73479.78275.78275,0,0,0,.7489-.4198c.0071.0734.0105.1434.0105.1995,0,.665-.3396,1.0043-.868,1.0043a.85881.85881,0,0,1-.47591-.1153l-.10149.2029a1.12394,1.12394,0,0,0,.5808.133c.665,0,1.12-.434,1.12-1.2671C196.9733,303.1671,196.6198,302.7155,195.969,302.7155Zm-1.3127,2.107a.18317.18317,0,0,0-.18539.18909.17668.17668,0,0,0,.12579.1783l-.119.50771h.16809l.14709-.483a.57588.57588,0,0,0,.049-.203A.18319.18319,0,0,0,194.6563,304.8225Zm-1.5293-1.08141h-.315l.08391-.78059h1.12v-.224h-1.3405l-.1259,1.22861h.5213c.62309,0,.8192.19579.8192.511,0,.2974-.2205.5004-.63719.5004a1.06141,1.06141,0,0,1-.7523-.2835l-.1225.1996a1.26491,1.26491,0,0,0,.87849.3149c.5984,0,.8889-.32539.8889-.7418C194.1454,304.0314,193.8654,303.7411,193.127,303.7411Z" transform="translate(-131.4782 -109.34961)" style="fill:#434242"/><path d="M278.644,302.4766c-.42691,0-.72122-.3606-.72122-1.0148,0-.6545.29431-1.0151.72122-1.0151s.72079.3606.72079,1.0151c0,.6542-.29391,1.0148-.72079,1.0148m0,.231c.56689,0,.97989-.46539.97989-1.2458,0-.7807-.413-1.2461-.97989-1.2461s-.97662.4654-.97662,1.2461C277.66739,302.2422,278.077,302.7076,278.644,302.7076Zm-2.62521-.2449.8331-.8189a1.00773,1.00773,0,0,0,.4025-.7665c0-.4096-.31488-.6616-.8121-.6616a1.101,1.101,0,0,0-.868.3501l.17859.1539a.83216.83216,0,0,1,.6684-.273c.37451,0,.574.1749.574.4584,0,.1681-.0524.3325-.3288.6054l-1.01849.9975v.1786h1.71838v-.2239Zm-.90991-.14a.18314.18314,0,0,0-.18539.189.17657.17657,0,0,0,.12592.17831l-.11911.5077h.16809l.14713-.483a.57409.57409,0,0,0,.04907-.203A.18323.18323,0,0,0,275.10889,302.3227Zm-1.60638-2.0861v.224h.57739v2.226h.252v-2.45Z" transform="translate(-131.4782 -109.34961)" style="fill:#434242"/><path d="M150.27139,209.49091h-.315l.08389-.7807h1.12v-.22391h-1.3405l-.12579,1.2285h.52119c.62311,0,.81931.19591.81931.51111,0,.29729-.2206.50029-.6373.50029a1.06144,1.06144,0,0,1-.7523-.28349l-.12239.1996a1.264,1.264,0,0,0,.87839.3149c.5984,0,.889-.32539.889-.74181,0-.4343-.28011-.72449-1.01851-.72449m-1.7813,1.2529c-.42349,0-.64769-.2554-.64769-.525a.56718.56718,0,0,1,.6301-.53549c.3779,0,.616.20639.616.5284A.53613.53613,0,0,1,148.4901,210.7438Zm.021-1.27391a.78342.78342,0,0,0-.74919.4198c-.00681-.07339-.0105-.1434-.0105-.1996,0-.66469.3396-1.00429.86789-1.00429a.86111.86111,0,0,1,.4763.11539l.10141-.203a1.12553,1.12553,0,0,0-.5811-.1329c-.665,0-1.1199.434-1.1199,1.26711,0,.7733.35339,1.22479,1.00459,1.22479a.76333.76333,0,0,0,.8365-.75259A.74169.74169,0,0,0,148.51109,209.46989Zm-1.5262,1.1024a.18315.18315,0,0,0-.18539.189.17658.17658,0,0,0,.1259.1783l-.11909.50769h.16809l.14711-.483a.57385.57385,0,0,0,.04909-.203A.18325.18325,0,0,0,146.98489,210.5723Zm-1.6064-2.086v.22391h.57741v2.226h.252V208.4863Z" transform="translate(-131.4782 -109.34961)" style="fill:#434242"/><path d="M161.5229,139.24631c-.42691,0-.7211-.3605-.7211-1.0148,0-.65451.29419-1.015.7211-1.015s.7209.3605.7209,1.015c0,.6543-.294,1.0148-.7209,1.0148m0,.23108c.567,0,.98-.46548.98-1.24588,0-.78061-.413-1.24609-.98-1.24609s-.9765.46548-.9765,1.24609C160.5464,139.0119,160.956,139.47739,161.5229,139.47739Zm-2.2785-.2135c-.4339,0-.6893-.189-.6893-.4935,0-.301.2554-.49008.6893-.49008s.6931.18909.6931.49008C159.9375,139.07489,159.67841,139.26389,159.2444,139.26389ZM158.639,137.64c0-.273.2347-.4411.60539-.4411.36771,0,.60921.16809.60921.44449,0,.26608-.2276.43759-.60921.43759C158.86321,138.081,158.639,137.90948,158.639,137.64Zm1.078.532a.55484.55484,0,0,0,.392-.53909c0-.3989-.34639-.64749-.86459-.64749-.51781,0-.85741.2486-.85741.64749a.55287.55287,0,0,0,.38521.53909.611.611,0,0,0-.4725.60181c0,.434.3568.70358.9447.70358.5845,0,.95219-.26959.95219-.70358A.61686.61686,0,0,0,159.717,138.172Zm-1.988.92041a.18315.18315,0,0,0-.1853.18909.1767.1767,0,0,0,.12579.17831l-.119.50769h.16809l.14711-.483a.576.576,0,0,0,.049-.203A.1832.1832,0,0,0,157.729,139.09241Zm-1.6064-2.086v.22388h.5775v2.2261h.252v-2.45Z" transform="translate(-131.4782 -109.34961)" style="fill:#434242"/><path d="M189.7019,141.75641v.68259h.2486v-.45859h1.26l-1.008,2.226h.2729l1.0253-2.27139v-.17859Zm-1.0253,1.05.69279-.8714v-.17859h-1.575v.224h1.2529l-.67891.85059v.18539h.17491c.45529,0,.66159.1925.66159.48651,0,.30441-.22389.4935-.62979.4935a1.07438,1.07438,0,0,1-.7597-.28351l-.1225.19962a1.27528,1.27528,0,0,0,.8822.31488c.59129,0,.8889-.31488.8889-.72449C189.464,143.11081,189.20151,142.83441,188.67661,142.8064Zm-1.4176,1.036a.18318.18318,0,0,0-.18541.18909.17671.17671,0,0,0,.12581.17831l-.119.50769h.16811l.14709-.483a.57364.57364,0,0,0,.049-.203A.18318.18318,0,0,0,187.259,143.84241Zm-1.6064-2.086v.224H186.23v2.226h.252v-2.45Z" transform="translate(-131.4782 -109.34961)" style="fill:#434242"/><line x1="93.9742" y1="7.92679" x2="48.0952" y2="7.92679" style="fill:none;stroke:#b1b2b2;stroke-miterlimit:22.92558479309082;stroke-width:0.2160000056028366px"/><line x1="105.47441" y1="62.6769" x2="73.332" y2="62.6769" style="fill:none;stroke:#b1b2b2;stroke-miterlimit:22.92558479309082;stroke-width:0.2160000056028366px"/><line x1="107.4742" y1="128.42679" x2="73.332" y2="128.42679" style="fill:none;stroke:#b1b2b2;stroke-miterlimit:22.92558479309082;stroke-width:0.2160000056028366px"/><line x1="59.7243" y1="194.67699" x2="7.3452" y2="194.67699" style="fill:none;stroke:#b1b2b2;stroke-miterlimit:22.92558479309082;stroke-width:0.2160000056028366px"/><line x1="140.47432" y1="192.17709" x2="133.72591" y2="192.17709" style="fill:none;stroke:#b1b2b2;stroke-miterlimit:22.92558479309082;stroke-width:0.2160000056028366px"/><line x1="12.3463" y1="100.4267" x2="6.9713" y2="100.4267" style="fill:none;stroke:#b1b2b2;stroke-miterlimit:22.92558479309082;stroke-width:0.2160000056028366px"/><line x1="23.224" y1="28.9469" x2="6.97301" y2="28.9469" style="fill:none;stroke:#b1b2b2;stroke-miterlimit:22.92558479309082;stroke-width:0.2160000056028366px"/><line x1="52.47391" y1="33.6969" x2="45.7254" y2="33.6969" style="fill:none;stroke:#b1b2b2;stroke-miterlimit:22.92558479309082;stroke-width:0.2160000056028366px"/><line x1="148.3455" y1="7.92679" x2="103.4133" y2="7.92679" style="fill:none;stroke:#b1b2b2;stroke-miterlimit:22.92558479309082;stroke-width:0.2160000056028366px"/><line x1="148.4706" y1="62.6769" x2="114.9135" y2="62.6769" style="fill:none;stroke:#b1b2b2;stroke-miterlimit:22.92558479309082;stroke-width:0.2160000056028366px"/><line x1="154.59572" y1="128.42679" x2="116.9133" y2="128.42679" style="fill:none;stroke:#b1b2b2;stroke-miterlimit:22.92558479309082;stroke-width:0.2160000056028366px"/><line x1="123.0954" y1="194.67699" x2="69.16341" y2="194.67699" style="fill:none;stroke:#b1b2b2;stroke-miterlimit:22.92558479309082;stroke-width:0.2160000056028366px"/><line x1="156.66182" y1="192.17709" x2="149.91341" y2="192.17709" style="fill:none;stroke:#b1b2b2;stroke-miterlimit:22.92558479309082;stroke-width:0.2160000056028366px"/><line x1="38.2213" y1="100.4267" x2="21.3463" y2="100.4267" style="fill:none;stroke:#b1b2b2;stroke-miterlimit:22.92558479309082;stroke-width:0.2160000056028366px"/><line x1="39.4115" y1="28.9469" x2="32.6631" y2="28.9469" style="fill:none;stroke:#b1b2b2;stroke-miterlimit:22.92558479309082;stroke-width:0.2160000056028366px"/><line x1="68.66141" y1="33.6969" x2="61.9129" y2="33.6969" style="fill:none;stroke:#b1b2b2;stroke-miterlimit:22.92558479309082;stroke-width:0.2160000056028366px"/><path d="M286.42139,276.15919c0,.37781-.20639.61591-.52838.61591a.53635.53635,0,0,1-.5321-.5986c0-.42349.25571-.64749.525-.64749a.56708.56708,0,0,1,.53549.63019m-1.2739.02771a.76322.76322,0,0,0,.75259.83659.74162.74162,0,0,0,.73471-.8261.78259.78259,0,0,0-.4198-.7489c.07339-.0071.14349-.0105.19962-.0105.665,0,1.0043.3396,1.0043.868a.8589.8589,0,0,1-.11542.47591l.203.10149a1.124,1.124,0,0,0,.1329-.5808c0-.665-.434-1.12-1.26709-1.12C285.59909,275.1826,285.14749,275.5361,285.14749,276.1869Zm.021,2.8945h.68262v-.24861h-.45871v-1.26l2.2261,1.008v-.273l-2.27139-1.0253h-.17862Zm2.086.43739a.18317.18317,0,0,0,.18912.18539.17673.17673,0,0,0,.17828-.1259l.5076.11911v-.16811l-.483-.14709a.574.574,0,0,0-.20291-.0491A.18323.18323,0,0,0,287.25449,279.5188Zm.14,1.89011-.81891-.8331a1.00775,1.00775,0,0,0-.76648-.40251c-.40961,0-.66162.31491-.66162.8121a1.101,1.101,0,0,0,.3501.868l.1539-.17859a.832.832,0,0,1-.273-.66841c0-.37439.1749-.574.4584-.574.16809,0,.33249.0524.6055.3288l.9975,1.01849h.17859v-1.7184h-.224Z" transform="translate(-131.4782 -109.34961)" style="fill:#434242"/><path d="M282.9682,209.2003l-.87131-.69281h-.17859v1.57491h.22391v-1.2529l.85068.67889h.18542v-.1749c0-.4552.19238-.66159.48639-.66159.30438,0,.4935.224.4935.6299a1.07434,1.07434,0,0,1-.28351.75969l.19962.12241a1.27424,1.27424,0,0,0,.31488-.8821c0-.59131-.31488-.889-.72449-.889-.392,0-.6684.2625-.6965.78751m1.19,2.1385c0,.4269-.3606.7211-1.0148.7211-.65451,0-1.01511-.2942-1.01511-.7211s.3606-.7209,1.01511-.7209C283.79761,210.6179,284.1582,210.9119,284.1582,211.33881Zm.231,0c0-.567-.46539-.98-1.24579-.98-.7807,0-1.24609.413-1.24609.98s.46539.97649,1.24609.97649C283.9238,212.31529,284.38919,211.9057,284.38919,211.33881Zm-.38489,1.48759a.18316.18316,0,0,0,.18909.18539.17684.17684,0,0,0,.17831-.1259l.5076.11911v-.16811l-.483-.14709a.5737.5737,0,0,0-.20291-.0491A.1832.1832,0,0,0,284.0043,212.8264Zm-1.0361,1.3334-.87131-.69281h-.17859v1.57491h.22391V213.789l.85068.67889h.18542v-.1749c0-.4552.19238-.66161.48639-.66161.30438,0,.4935.224.4935.62991a1.07434,1.07434,0,0,1-.28351.75969l.19962.12241a1.27446,1.27446,0,0,0,.31488-.8821c0-.59131-.31488-.889-.72449-.889C283.27271,213.3723,282.99631,213.6348,282.9682,214.15981Z" transform="translate(-131.4782 -109.34961)" style="fill:#434242"/><path d="M277.926,140.60049c0,.42349-.2554.64771-.525.64771a.56726.56726,0,0,1-.53549-.63019c0-.37781.20639-.61591.52838-.61591a.53612.53612,0,0,1,.5321.59839m-1.2739-.021a.78358.78358,0,0,0,.4198.74921c-.07339.00681-.14349.0105-.19958.0105-.6647,0-1.0043-.3396-1.0043-.868a.86054.86054,0,0,1,.11539-.4762l-.203-.1015a1.12592,1.12592,0,0,0-.1329.58112c0,.665.4339,1.12,1.26712,1.12.77319,0,1.22479-.35352,1.22479-1.00461a.76334.76334,0,0,0-.75259-.83649A.74168.74168,0,0,0,276.6521,140.5795Zm1.25629,2.35559c0,.42691-.3606.7211-1.0148.7211-.65448,0-1.01508-.29419-1.01508-.7211s.3606-.72089,1.01508-.72089C277.54779,142.2142,277.90839,142.50821,277.90839,142.93509Zm.231,0c0-.567-.46539-.98-1.24582-.98-.78067,0-1.24609.413-1.24609.98s.46542.9765,1.24609.9765C277.674,143.91159,278.1394,143.502,278.1394,142.93509Zm-.38492,1.48761a.18316.18316,0,0,0,.189.18539.17668.17668,0,0,0,.17828-.12589l.50769.11908v-.16809l-.483-.14709a.57367.57367,0,0,0-.203-.0491A.1832.1832,0,0,0,277.75449,144.4227Zm-1.03607,1.3334-.87143-.69281h-.17859v1.575h.224v-1.253l.85071.67892h.1853v-.1749c0-.4552.1925-.66162.48648-.66162.30441,0,.4935.224.4935.62991a1.0744,1.0744,0,0,1-.28348.7597l.19959.12238a1.27467,1.27467,0,0,0,.31491-.88208c0-.59131-.31491-.889-.72452-.889C277.0228,144.9686,276.74649,145.23111,276.71841,145.7561Z" transform="translate(-131.4782 -109.34961)" style="fill:#434242"/><path d="M183.236,124.17029c0,.42352-.25539.64771-.52489.64771a.56724.56724,0,0,1-.53551-.6301c0-.3779.20641-.616.5284-.616a.536.536,0,0,1,.532.59839m-1.2739-.021a.78354.78354,0,0,0,.41991.74921c-.0735.00681-.14351.0105-.1996.0105-.6647,0-1.0043-.3396-1.0043-.868a.86058.86058,0,0,1,.1153-.4762l-.2029-.1015a1.12585,1.12585,0,0,0-.133.58112c0,.665.434,1.12,1.26709,1.12.7733,0,1.2249-.35349,1.2249-1.00461a.76338.76338,0,0,0-.75259-.83649A.74175.74175,0,0,0,181.9621,124.14929Zm-.9836,2.429h.224v-.57742h2.226v-.252h-2.45Zm2.086.3569a.18318.18318,0,0,0,.1891.18539.17677.17677,0,0,0,.1783-.12592l.50771.11911v-.16809l-.483-.14709a.57409.57409,0,0,0-.203-.0491A.18321.18321,0,0,0,183.0645,126.93521Zm-2.086,1.60638h.224v-.57739h2.226v-.252h-2.45Z" transform="translate(-131.4782 -109.34961)" style="fill:#434242"/><path d="M141.73821,274.9624l-.87131-.69281h-.1786v1.57491h.22391v-1.2529l.85069.67889h.18541v-.1749c0-.4552.19249-.66159.48639-.66159.30441,0,.49352.22389.49352.6299a1.07409,1.07409,0,0,1-.2834.7596l.19949.1225a1.27463,1.27463,0,0,0,.3149-.8821c0-.59131-.3149-.889-.7245-.889-.392,0-.6684.2625-.69649.78751m1.1761,2.49559-.81891-.8331a1.00778,1.00778,0,0,0-.76649-.4025c-.40961,0-.66161.3149-.66161.8121a1.101,1.101,0,0,0,.3501.868l.1539-.1786a.83214.83214,0,0,1-.273-.6684c0-.3745.1749-.574.4584-.574.16809,0,.33249.0524.6055.3288l.9975,1.01849h.1786v-1.7184h-.224Zm-.14.90991a.18316.18316,0,0,0,.18909.18539.17668.17668,0,0,0,.1783-.12579l.50771.119v-.16809l-.48309-.14711a.5729.5729,0,0,0-.20291-.049A.18318.18318,0,0,0,142.77431,278.3679Zm-1.0361,1.33339-.87131-.69269h-.1786v1.57489h.22391v-1.2529l.85069.67891h.18541v-.17491c0-.45529.19249-.66159.48639-.66159.30441,0,.49352.22389.49352.62979a1.07434,1.07434,0,0,1-.2834.7597l.19949.1225a1.27472,1.27472,0,0,0,.3149-.8822c0-.59129-.3149-.8889-.7245-.8889C142.04269,278.91389,141.7663,279.17641,141.73821,279.70129Z" transform="translate(-131.4782 -109.34961)" style="fill:#434242"/><path d="M152.42571,146.10049c0,.42349-.2554.64771-.525.64771a.56718.56718,0,0,1-.5354-.6301c0-.3779.2063-.616.52831-.616a.53607.53607,0,0,1,.5321.59839m-1.27391-.021a.78349.78349,0,0,0,.4198.74921c-.07339.00681-.14339.0105-.19949.0105-.66479,0-1.00439-.3396-1.00439-.86789a.86116.86116,0,0,1,.11539-.47632l-.2029-.10141a1.12571,1.12571,0,0,0-.133.58112c0,.665.434,1.1199,1.26711,1.1199.7733,0,1.22479-.35339,1.22479-1.00461a.76331.76331,0,0,0-.7525-.83649A.74176.74176,0,0,0,151.15179,146.0795Zm1.2563,2.35559c0,.42691-.36049.72122-1.0148.72122-.6545,0-1.01509-.29431-1.01509-.72122s.3606-.72079,1.01509-.72079C152.04761,147.71429,152.4081,148.00821,152.4081,148.43509Zm.231,0c0-.56689-.46539-.97989-1.2458-.97989-.78059,0-1.24609.413-1.24609.97989s.4655.97662,1.24609.97662C152.17371,149.41171,152.6391,149.00211,152.6391,148.43509Zm-.3849,1.4877a.18316.18316,0,0,0,.1891.1853.17668.17668,0,0,0,.1783-.12579l.50771.119v-.16809l-.48311-.14709a.57523.57523,0,0,0-.2029-.049A.18323.18323,0,0,0,152.2542,149.92279Zm-1.0361,1.3334-.87129-.69281h-.1786v1.57492h.22391v-1.2529l.85069.67889h.18541v-.1749c0-.4552.19249-.66159.48639-.66159.3045,0,.4935.22388.4935.62988a1.07413,1.07413,0,0,1-.2834.75961l.19951.1225a1.27477,1.27477,0,0,0,.3149-.88211c0-.5914-.3149-.889-.7245-.889C151.5226,150.46869,151.2462,150.7312,151.21809,151.2562Z" transform="translate(-131.4782 -109.34961)" style="fill:#434242"/><path d="M142.42281,190.6328v.3149l-.7807-.08389v-1.1199h-.22391v1.3405l1.2285.12581v-.5213c0-.623.19591-.8192.51111-.8192.29739,0,.50029.2206.50029.63719a1.0616,1.0616,0,0,1-.2834.7524l.19951.12241a1.26446,1.26446,0,0,0,.315-.8784c0-.5984-.3255-.889-.74191-.889-.43419,0-.72449.28009-.72449,1.01849m.04539,1.7498-.8714-.69279h-.1786v1.575h.22391v-1.2529l.85069.67889h.18541v-.1749c0-.45531.19249-.66161.48639-.66161.3045,0,.4935.22391.4935.62981a1.07434,1.07434,0,0,1-.2834.7597l.19951.1225a1.27484,1.27484,0,0,0,.315-.8822c0-.59129-.315-.8889-.72461-.8889C142.7726,191.5952,142.4962,191.8577,142.4682,192.3826Zm1.036,1.4176a.18317.18317,0,0,0,.1891.18539.17668.17668,0,0,0,.1783-.12579l.50771.119v-.16811l-.483-.14709a.57347.57347,0,0,0-.203-.049A.1832.1832,0,0,0,143.5042,193.8002Zm-2.086,1.6064h.22391v-.57741h2.22609v-.252h-2.45Z" transform="translate(-131.4782 -109.34961)" style="fill:#434242"/><path d="M154.283,222.7009c0,.4269-.36061.7211-1.0148.7211-.6546,0-1.01511-.2942-1.01511-.7211s.3605-.7209,1.01511-.7209c.65419,0,1.0148.294,1.0148.7209m.231,0c0-.567-.46552-.98-1.2458-.98-.7807,0-1.2462.413-1.2462.98s.4655.9765,1.2462.9765C154.04849,223.6774,154.514,223.26781,154.514,222.7009Zm-.2449,2.62511-.819-.8331a1.00761,1.00761,0,0,0-.7664-.40251c-.4097,0-.6617.31491-.6617.8121a1.10128,1.10128,0,0,0,.3501.868l.1539-.17859a.83228.83228,0,0,1-.2729-.66841c0-.37439.1749-.574.4583-.574.16811,0,.3325.0524.6055.3288l.99751,1.01849h.17859v-1.7184h-.22389Zm-.14011.91a.18315.18315,0,0,0,.1891.1853.17668.17668,0,0,0,.1783-.12579l.50771.119v-.16811l-.483-.14709a.57592.57592,0,0,0-.203-.049A.18322.18322,0,0,0,154.129,226.236Zm-2.086,1.60631h.224v-.57741h2.226v-.252h-2.45Z" transform="translate(-131.4782 -109.34961)" style="fill:#434242"/><line x1="154.9803" y1="173.79298" x2="154.9803" y2="195.87569" style="fill:none;stroke:#b1b2b2;stroke-miterlimit:22.92558479309082;stroke-width:0.2160000056028366px"/><line x1="151.73012" y1="107.04279" x2="151.73012" y2="131.54369" style="fill:none;stroke:#b1b2b2;stroke-miterlimit:22.92558479309082;stroke-width:0.2160000056028366px"/><line x1="145.4803" y1="38.54269" x2="145.4803" y2="65.85078" style="fill:none;stroke:#b1b2b2;stroke-miterlimit:22.92558479309082;stroke-width:0.2160000056028366px"/><line x1="50.79041" y1="21.2287" x2="50.79041" y2="27.97708" style="fill:none;stroke:#b1b2b2;stroke-miterlimit:22.92558479309082;stroke-width:0.2160000056028366px"/><line x1="10.50011" y1="172.6946" x2="10.50011" y2="197.41949" style="fill:none;stroke:#b1b2b2;stroke-miterlimit:22.92558479309082;stroke-width:0.2160000056028366px"/><line x1="19.98001" y1="44.04279" x2="19.98001" y2="66.27739" style="fill:none;stroke:#b1b2b2;stroke-miterlimit:22.92558479309082;stroke-width:0.2160000056028366px"/><line x1="11.2301" y1="87.79269" x2="11.2301" y2="94.54109" style="fill:none;stroke:#b1b2b2;stroke-miterlimit:22.92558479309082;stroke-width:0.2160000056028366px"/><line x1="21.8549" y1="120.04269" x2="21.8549" y2="121.1375" style="fill:none;stroke:#b1b2b2;stroke-miterlimit:22.92558479309082;stroke-width:0.2160000056028366px"/><line x1="154.9803" y1="138.6057" x2="154.9803" y2="164.3539" style="fill:none;stroke:#b1b2b2;stroke-miterlimit:22.92558479309082;stroke-width:0.2160000056028366px"/><line x1="151.73012" y1="74.01089" x2="151.73012" y2="97.60368" style="fill:none;stroke:#b1b2b2;stroke-miterlimit:22.92558479309082;stroke-width:0.2160000056028366px"/><line x1="145.4803" y1="5.00198" x2="145.4803" y2="29.10358" style="fill:none;stroke:#b1b2b2;stroke-miterlimit:22.92558479309082;stroke-width:0.2160000056028366px"/><line x1="50.79041" y1="5.0412" x2="50.79041" y2="11.78958" style="fill:none;stroke:#b1b2b2;stroke-miterlimit:22.92558479309082;stroke-width:0.2160000056028366px"/><line x1="10.50011" y1="135.64578" x2="10.50011" y2="163.25549" style="fill:none;stroke:#b1b2b2;stroke-miterlimit:22.92558479309082;stroke-width:0.2160000056028366px"/><line x1="19.98001" y1="5.66788" x2="19.98001" y2="34.6037" style="fill:none;stroke:#b1b2b2;stroke-miterlimit:22.92558479309082;stroke-width:0.2160000056028366px"/><line x1="11.2301" y1="69.66849" x2="11.2301" y2="78.35359" style="fill:none;stroke:#b1b2b2;stroke-miterlimit:22.92558479309082;stroke-width:0.2160000056028366px"/><line x1="21.8549" y1="98.29329" x2="21.8549" y2="110.60359" style="fill:none;stroke:#b1b2b2;stroke-miterlimit:22.92558479309082;stroke-width:0.2160000056028366px"/></svg>