<?xml version="1.0" encoding="utf-8"?>
<!-- Generator: Adobe Illustrator 23.0.2, SVG Export Plug-In . SVG Version: 6.00 Build 0)  -->
<svg version="1.1" id="plan" xmlns="http://www.w3.org/2000/svg" xmlns:xlink="http://www.w3.org/1999/xlink" x="0px" y="0px"
	 viewBox="0 0 840 400" enable-background="new 0 0 840 400" xml:space="preserve">
<g id="back">
	<polygon fill-rule="evenodd" clip-rule="evenodd" fill="#FFFFFF" points="492.478,91.33 492.478,224.983 834.479,224.983 
		834.479,393.357 5.521,393.357 5.521,15.016 76.182,15.016 76.182,5.729 410.511,5.729 410.511,91.33 	"/>
</g>
<g id="walls">
	
		<rect x="458.359" y="91.33" fill="#828282" stroke="#000000" stroke-linecap="round" stroke-linejoin="round" stroke-miterlimit="10" width="23.419" height="14.132"/>
	<polygon fill="#828282" stroke="#000000" stroke-linecap="round" stroke-linejoin="round" stroke-miterlimit="10" points="
		824.99,377.206 12.991,377.206 12.991,388.512 828.221,388.512 828.221,377.206 	"/>
	<polygon fill="#828282" stroke="#000000" stroke-linecap="round" stroke-linejoin="round" stroke-miterlimit="10" points="
		12.991,43.281 22.682,43.281 22.682,24.707 83.652,24.707 83.652,15.016 12.991,15.016 	"/>
	
		<line fill="#828282" stroke="#000000" stroke-linecap="round" stroke-linejoin="round" stroke-miterlimit="10" x1="83.652" y1="15.016" x2="83.652" y2="5.729"/>
	<polyline fill="#828282" stroke="#000000" stroke-linecap="round" stroke-linejoin="round" stroke-miterlimit="10" points="
		828.221,236.287 828.221,309.371 824.99,309.371 816.915,309.371 816.915,236.287 	"/>
	
		<line fill="none" stroke="#000000" stroke-linecap="round" stroke-linejoin="round" stroke-miterlimit="10" x1="816.915" y1="377.206" x2="816.915" y2="309.371"/>
	
		<line fill="none" stroke="#000000" stroke-linecap="round" stroke-linejoin="round" stroke-miterlimit="10" x1="396.985" y1="105.463" x2="411.117" y2="105.463"/>
	<polyline fill="#828282" stroke="#000000" stroke-linecap="round" stroke-linejoin="round" stroke-miterlimit="10" points="
		94.958,24.707 94.958,52.971 86.882,52.971 83.652,52.971 83.652,24.707 	"/>
	<polygon fill="#828282" stroke="#000000" stroke-linecap="round" stroke-linejoin="round" stroke-miterlimit="10" points="
		83.652,165.207 83.652,217.309 94.958,217.309 94.958,165.207 86.882,165.207 	"/>
	<polygon fill="#828282" stroke="#000000" stroke-linecap="round" stroke-linejoin="round" stroke-miterlimit="10" points="
		86.882,250.419 94.958,250.419 94.958,236.287 83.652,236.287 83.652,250.419 	"/>
	<polygon fill="#828282" stroke="#000000" stroke-linecap="round" stroke-linejoin="round" stroke-miterlimit="10" points="
		94.958,377.206 94.958,339.654 86.882,339.654 83.652,339.654 83.652,377.206 	"/>
	
		<rect x="76.788" y="162.784" fill="#828282" stroke="#000000" stroke-linecap="round" stroke-linejoin="round" stroke-miterlimit="10" width="6.864" height="90.058"/>
	
		<line fill="#828282" stroke="#000000" stroke-linecap="round" stroke-linejoin="round" stroke-miterlimit="10" x1="83.652" y1="236.287" x2="83.652" y2="217.309"/>
	
		<rect x="83.652" y="217.309" fill="#828282" stroke="#000000" stroke-linecap="round" stroke-linejoin="round" stroke-miterlimit="10" width="23.823" height="18.978"/>
	
		<rect x="83.652" y="5.729" fill="#828282" stroke="#000000" stroke-linecap="round" stroke-linejoin="round" stroke-miterlimit="10" width="23.823" height="18.978"/>
	
		<rect x="387.698" y="5.729" fill="#828282" stroke="#000000" stroke-linecap="round" stroke-linejoin="round" stroke-miterlimit="10" width="23.419" height="18.978"/>
	
		<rect x="396.985" y="24.707" fill="#828282" stroke="#000000" stroke-linecap="round" stroke-linejoin="round" stroke-miterlimit="10" width="14.132" height="80.756"/>
	
		<rect x="828.221" y="224.983" fill="#828282" stroke="#000000" stroke-linecap="round" stroke-linejoin="round" stroke-miterlimit="10" width="6.864" height="86.407"/>
	
		<line fill="none" stroke="#000000" stroke-linecap="round" stroke-linejoin="round" stroke-miterlimit="10" x1="828.221" y1="388.512" x2="828.221" y2="393.357"/>
	
		<line fill="none" stroke="#000000" stroke-linecap="round" stroke-linejoin="round" stroke-miterlimit="10" x1="835.085" y1="311.39" x2="835.085" y2="375.187"/>
	
		<line fill="none" stroke="#000000" stroke-linecap="round" stroke-linejoin="round" stroke-miterlimit="10" x1="6.127" y1="370.342" x2="6.127" y2="393.357"/>
	
		<rect x="6.127" y="15.016" fill="#828282" stroke="#000000" stroke-linecap="round" stroke-linejoin="round" stroke-miterlimit="10" width="6.864" height="28.265"/>
	
		<line fill="none" stroke="#000000" stroke-linecap="round" stroke-linejoin="round" stroke-miterlimit="10" x1="12.991" y1="377.204" x2="12.991" y2="393.357"/>
	<g>
		
			<line fill="none" stroke="#000000" stroke-width="0.5" stroke-linecap="round" stroke-linejoin="round" stroke-miterlimit="10" x1="22.682" y1="43.281" x2="22.682" y2="370.342"/>
		
			<line fill="none" stroke="#000000" stroke-width="0.5" stroke-linecap="round" stroke-linejoin="round" stroke-miterlimit="10" x1="6.127" y1="370.342" x2="6.127" y2="43.281"/>
		
			<rect x="15.01" y="45.703" fill="none" stroke="#000000" stroke-width="0.5" stroke-linecap="round" stroke-linejoin="round" stroke-miterlimit="10" width="1.211" height="322.216"/>
		
			<path fill="none" stroke="#000000" stroke-width="0.5" stroke-linecap="round" stroke-linejoin="round" stroke-miterlimit="10" d="
			M12.991,45.703v322.216 M17.836,45.703v322.216"/>
		
			<rect x="12.991" y="43.281" fill="none" stroke="#000000" stroke-width="0.5" stroke-linecap="round" stroke-linejoin="round" stroke-miterlimit="10" width="4.845" height="2.423"/>
		
			<rect x="12.991" y="367.919" fill="none" stroke="#000000" stroke-width="0.5" stroke-linecap="round" stroke-linejoin="round" stroke-miterlimit="10" width="4.845" height="2.423"/>
	</g>
	<path fill="none" stroke="#000000" stroke-linecap="round" stroke-linejoin="round" stroke-miterlimit="10" d="M824.99,377.206
		v-67.835 M828.221,311.39h-3.23 M828.221,375.187h-3.23 M828.221,372.764h-3.23 M828.221,344.904h-3.23 M828.221,343.288h-3.23
		 M828.221,341.673h-3.23 M828.221,313.813h-3.23"/>
	<polyline fill="none" stroke="#000000" stroke-linecap="round" stroke-linejoin="round" stroke-miterlimit="10" points="
		828.221,377.206 828.221,309.371 824.99,309.371 	"/>
	
		<line fill="none" stroke="#000000" stroke-linecap="round" stroke-linejoin="round" stroke-miterlimit="10" x1="828.221" y1="377.206" x2="824.99" y2="377.206"/>
	
		<line fill="none" stroke="#000000" stroke-linecap="round" stroke-linejoin="round" stroke-miterlimit="10" x1="83.652" y1="292.816" x2="86.882" y2="292.816"/>
	
		<line fill="none" stroke="#000000" stroke-linecap="round" stroke-linejoin="round" stroke-miterlimit="10" x1="83.652" y1="255.265" x2="86.882" y2="255.265"/>
	<g>
		
			<line fill="none" stroke="#000000" stroke-width="1.5" stroke-linecap="round" stroke-linejoin="round" stroke-miterlimit="10" x1="411.117" y1="91.33" x2="451.899" y2="67.911"/>
		
			<line fill="none" stroke="#000000" stroke-width="1.5" stroke-linecap="round" stroke-linejoin="round" stroke-miterlimit="10" x1="456.703" y1="284.337" x2="424.4" y2="265.359"/>
		
			<line fill="none" stroke="#000000" stroke-width="1.5" stroke-linecap="round" stroke-linejoin="round" stroke-miterlimit="10" x1="538.711" y1="236.287" x2="560.111" y2="273.031"/>
		
			<line fill="none" stroke="#000000" stroke-width="1.5" stroke-linecap="round" stroke-linejoin="round" stroke-miterlimit="10" x1="296.04" y1="236.287" x2="274.64" y2="273.031"/>
		
			<line fill="none" stroke="#000000" stroke-width="1.5" stroke-linecap="round" stroke-linejoin="round" stroke-miterlimit="10" x1="372.354" y1="284.337" x2="339.648" y2="265.359"/>
		
			<line fill="none" stroke="#000000" stroke-width="1.5" stroke-linecap="round" stroke-linejoin="round" stroke-miterlimit="10" x1="86.882" y1="255.265" x2="105.86" y2="287.567"/>
		
			<line fill="none" stroke="#000000" stroke-width="1.5" stroke-linecap="round" stroke-linejoin="round" stroke-miterlimit="10" x1="86.882" y1="57.413" x2="105.86" y2="90.119"/>
	</g>
	
		<line fill="none" stroke="#000000" stroke-linecap="round" stroke-linejoin="round" stroke-miterlimit="10" x1="83.652" y1="57.413" x2="86.882" y2="57.413"/>
	
		<line fill="none" stroke="#000000" stroke-linecap="round" stroke-linejoin="round" stroke-miterlimit="10" x1="86.882" y1="339.654" x2="83.652" y2="339.654"/>
	
		<line fill="none" stroke="#000000" stroke-linecap="round" stroke-linejoin="round" stroke-miterlimit="10" x1="86.882" y1="165.207" x2="83.652" y2="165.207"/>
	
		<line fill="none" stroke="#000000" stroke-linecap="round" stroke-linejoin="round" stroke-miterlimit="10" x1="396.985" y1="208.426" x2="396.985" y2="217.309"/>
	<polygon fill="#828282" stroke="#000000" stroke-linecap="round" stroke-linejoin="round" stroke-miterlimit="10" points="
		83.652,377.206 83.652,337.232 76.788,337.232 76.788,370.342 12.991,370.342 12.991,377.206 	"/>
	
		<rect x="6.127" y="370.342" fill="#828282" stroke="#000000" stroke-linecap="round" stroke-linejoin="round" stroke-miterlimit="10" width="6.865" height="23.015"/>
	
		<rect x="76.788" y="24.707" fill="#828282" stroke="#000000" stroke-linecap="round" stroke-linejoin="round" stroke-miterlimit="10" width="6.864" height="30.283"/>
	
		<rect x="76.788" y="5.729" fill="#828282" stroke="#000000" stroke-linecap="round" stroke-linejoin="round" stroke-miterlimit="10" width="6.864" height="9.287"/>
	<polygon fill="#828282" stroke="#000000" stroke-linecap="round" stroke-linejoin="round" stroke-miterlimit="10" points="
		828.221,224.983 828.221,236.287 481.778,236.287 481.778,91.33 493.084,91.33 493.084,224.981 	"/>
	
		<rect x="828.221" y="375.187" fill="#828282" stroke="#000000" stroke-linecap="round" stroke-linejoin="round" stroke-miterlimit="10" width="6.864" height="18.17"/>
	
		<rect x="12.991" y="388.512" fill="#828282" stroke="#000000" stroke-linecap="round" stroke-linejoin="round" stroke-miterlimit="10" width="815.229" height="4.845"/>
	
		<rect x="107.475" y="5.729" fill="#828282" stroke="#000000" stroke-linecap="round" stroke-linejoin="round" stroke-miterlimit="10" width="280.223" height="14.132"/>
	<g>
		
			<rect x="407.445" y="354.998" fill="#C7C7C7" stroke="#000000" stroke-linecap="round" stroke-linejoin="round" stroke-miterlimit="10" width="2.019" height="18.574"/>
		
			<rect x="384.464" y="354.998" fill="#C7C7C7" stroke="#000000" stroke-linecap="round" stroke-linejoin="round" stroke-miterlimit="10" width="22.981" height="2.019"/>
		
			<rect x="533.866" y="278.684" fill="#C7C7C7" stroke="#000000" stroke-linecap="round" stroke-linejoin="round" stroke-miterlimit="10" width="4.845" height="98.522"/>
		
			<rect x="387.698" y="217.309" fill="#C7C7C7" stroke="#000000" stroke-linecap="round" stroke-linejoin="round" stroke-miterlimit="10" width="23.419" height="18.978"/>
		
			<rect x="296.04" y="278.684" fill="#C7C7C7" stroke="#000000" stroke-linecap="round" stroke-linejoin="round" stroke-miterlimit="10" width="4.442" height="98.522"/>
		<polygon fill="#C7C7C7" stroke="#000000" stroke-linecap="round" stroke-linejoin="round" stroke-miterlimit="10" points="
			300.482,217.309 107.475,217.309 107.475,222.155 296.04,222.155 296.04,236.287 300.482,236.287 		"/>
		
			<rect x="383.758" y="19.861" fill="#C7C7C7" stroke="#000000" stroke-linecap="round" stroke-linejoin="round" stroke-miterlimit="10" width="3.634" height="47.601"/>
		
			<rect x="387.392" y="65.04" fill="#C7C7C7" stroke="#000000" stroke-linecap="round" stroke-linejoin="round" stroke-miterlimit="10" width="9.593" height="2.423"/>
		
			<rect x="411.117" y="217.309" fill="#C7C7C7" stroke="#000000" stroke-linecap="round" stroke-linejoin="round" stroke-miterlimit="10" width="70.661" height="4.845"/>
		<polygon fill="#C7C7C7" stroke="#000000" stroke-linecap="round" stroke-linejoin="round" stroke-miterlimit="10" points="
			372.354,288.778 372.354,284.337 419.151,284.337 419.151,288.778 384.464,288.778 384.464,372.998 380.83,372.998 
			380.83,288.778 		"/>
		<polygon fill="#C7C7C7" stroke="#000000" stroke-linecap="round" stroke-linejoin="round" stroke-miterlimit="10" points="
			527.809,373.572 527.809,288.778 456.703,288.778 456.703,284.337 533.866,284.337 533.866,377.206 300.482,377.206 
			300.482,288.778 300.482,284.337 334.399,284.337 334.399,288.778 306.942,288.778 306.942,373.572 		"/>
	</g>
	<g>
		
			<polyline fill="none" stroke="#000000" stroke-width="0.5" stroke-linecap="round" stroke-linejoin="round" stroke-miterlimit="10" points="
			94.958,165.207 94.958,97.387 86.882,97.387 		"/>
		
			<polyline fill="none" stroke="#000000" stroke-width="0.5" stroke-linecap="round" stroke-linejoin="round" stroke-miterlimit="10" points="
			76.788,162.784 76.788,97.387 83.652,97.387 		"/>
		
			<line fill="none" stroke="#000000" stroke-width="0.5" stroke-linecap="round" stroke-linejoin="round" stroke-miterlimit="10" x1="86.882" y1="94.964" x2="86.882" y2="165.206"/>
		
			<line fill="none" stroke="#000000" stroke-width="0.5" stroke-linecap="round" stroke-linejoin="round" stroke-miterlimit="10" x1="83.652" y1="54.99" x2="86.882" y2="54.99"/>
		
			<line fill="none" stroke="#000000" stroke-width="0.5" stroke-linecap="round" stroke-linejoin="round" stroke-miterlimit="10" x1="83.652" y1="162.784" x2="86.882" y2="162.784"/>
		
			<line fill="none" stroke="#000000" stroke-width="0.5" stroke-linecap="round" stroke-linejoin="round" stroke-miterlimit="10" x1="83.652" y1="160.361" x2="86.882" y2="160.361"/>
		
			<line fill="none" stroke="#000000" stroke-width="0.5" stroke-linecap="round" stroke-linejoin="round" stroke-miterlimit="10" x1="83.652" y1="99.81" x2="86.882" y2="99.81"/>
		
			<line fill="none" stroke="#000000" stroke-width="0.5" stroke-linecap="round" stroke-linejoin="round" stroke-miterlimit="10" x1="83.652" y1="97.387" x2="86.882" y2="97.387"/>
		
			<line fill="none" stroke="#000000" stroke-width="0.5" stroke-linecap="round" stroke-linejoin="round" stroke-miterlimit="10" x1="83.652" y1="94.964" x2="86.882" y2="94.964"/>
		
			<polyline fill="none" stroke="#000000" stroke-width="0.5" stroke-linecap="round" stroke-linejoin="round" stroke-miterlimit="10" points="
			83.652,165.206 83.652,94.964 86.882,94.964 		"/>
		
			<rect x="83.652" y="52.971" fill="none" stroke="#000000" stroke-width="0.5" stroke-linecap="round" stroke-linejoin="round" stroke-miterlimit="10" width="3.23" height="4.442"/>
	</g>
	<g>
		
			<polyline fill="none" stroke="#000000" stroke-width="0.5" stroke-linecap="round" stroke-linejoin="round" stroke-miterlimit="10" points="
			94.958,339.654 94.958,295.239 86.882,295.239 		"/>
		
			<line fill="none" stroke="#000000" stroke-width="0.5" stroke-linecap="round" stroke-linejoin="round" stroke-miterlimit="10" x1="76.788" y1="337.232" x2="76.788" y2="295.239"/>
		
			<line fill="none" stroke="#000000" stroke-width="0.5" stroke-linecap="round" stroke-linejoin="round" stroke-miterlimit="10" x1="76.788" y1="295.239" x2="83.652" y2="295.239"/>
		
			<line fill="none" stroke="#000000" stroke-width="0.5" stroke-linecap="round" stroke-linejoin="round" stroke-miterlimit="10" x1="86.882" y1="292.816" x2="86.882" y2="339.654"/>
		
			<line fill="none" stroke="#000000" stroke-width="0.5" stroke-linecap="round" stroke-linejoin="round" stroke-miterlimit="10" x1="83.652" y1="252.842" x2="86.882" y2="252.842"/>
		
			<line fill="none" stroke="#000000" stroke-width="0.5" stroke-linecap="round" stroke-linejoin="round" stroke-miterlimit="10" x1="83.652" y1="337.232" x2="86.882" y2="337.232"/>
		
			<line fill="none" stroke="#000000" stroke-width="0.5" stroke-linecap="round" stroke-linejoin="round" stroke-miterlimit="10" x1="83.652" y1="335.213" x2="86.882" y2="335.213"/>
		
			<line fill="none" stroke="#000000" stroke-width="0.5" stroke-linecap="round" stroke-linejoin="round" stroke-miterlimit="10" x1="83.652" y1="297.258" x2="86.882" y2="297.258"/>
		
			<line fill="none" stroke="#000000" stroke-width="0.5" stroke-linecap="round" stroke-linejoin="round" stroke-miterlimit="10" x1="83.652" y1="295.239" x2="86.882" y2="295.239"/>
		
			<polyline fill="none" stroke="#000000" stroke-width="0.5" stroke-linecap="round" stroke-linejoin="round" stroke-miterlimit="10" points="
			83.652,339.654 83.652,292.816 86.882,292.816 		"/>
		
			<rect x="83.652" y="250.419" fill="none" stroke="#000000" stroke-width="0.5" stroke-linecap="round" stroke-linejoin="round" stroke-miterlimit="10" width="3.23" height="4.845"/>
	</g>
</g>
<g id="furniture">
	<path fill="#F3F3F3" stroke="#595959" stroke-width="0.5" stroke-miterlimit="10" d="M382.761,20.828H280.12h-1.307h-11.39v30.053
		h12.697v-0.002c7.419,0.001,57.602,0.003,72.821,0.004v16.58h29.835L382.761,20.828z"/>
	<g>
		<path fill-rule="evenodd" clip-rule="evenodd" fill="#F3F3F3" stroke="#595959" stroke-width="0.5" stroke-miterlimit="10" d="
			M508.617,354.708c0-1.06,1.046-1.879,2.256-1.927c1.156,0,2.147,0.867,2.147,1.927c0,1.06-0.991,1.831-2.147,1.831
			C509.607,356.538,508.617,355.768,508.617,354.708z"/>
		<path fill-rule="evenodd" clip-rule="evenodd" fill="#F3F3F3" stroke="#595959" stroke-width="0.5" stroke-miterlimit="10" d="
			M508.617,354.708c0-1.06,1.046-1.879,2.256-1.927c1.156,0,2.147,0.867,2.147,1.927c0,1.06-0.991,1.831-2.147,1.831
			C509.607,356.538,508.617,355.768,508.617,354.708z"/>
		
			<polygon fill-rule="evenodd" clip-rule="evenodd" fill="#F3F3F3" stroke="#595959" stroke-width="0.5" stroke-miterlimit="10" points="
			495.042,372.323 526.594,372.323 526.594,293.271 495.042,293.271 495.042,372.323 		"/>
		<path fill-rule="evenodd" clip-rule="evenodd" fill="#F3F3F3" stroke="#595959" stroke-width="0.5" stroke-miterlimit="10" d="
			M523.975,361.001h-26.313c0,0,0-54.391,0-54.671c0-7.696,4.634-8.986,10.297-8.986h5.718c5.664,0,10.298,1.289,10.298,8.986
			C523.975,306.61,523.975,361.001,523.975,361.001L523.975,361.001z"/>
		<path fill-rule="evenodd" clip-rule="evenodd" fill="#F3F3F3" stroke="#595959" stroke-width="0.5" stroke-miterlimit="10" d="
			M520.336,364.923c0-0.842-0.758-1.544-1.695-1.544c-0.803,0-1.516,0.468-1.695,1.17h-2.364c-0.268,0-0.446,0.187-0.446,0.468
			c0,0.327,0.178,0.514,0.446,0.514h2.453c0.268,0.562,0.892,0.983,1.606,0.983C519.577,366.467,520.336,365.765,520.336,364.923
			L520.336,364.923z"/>
		
			<polyline fill-rule="evenodd" clip-rule="evenodd" fill="#F3F3F3" stroke="#595959" stroke-width="0.5" stroke-miterlimit="10" points="
			514.358,365.016 503.563,365.063 503.563,362.255 510.477,362.255 		"/>
		<path fill-rule="evenodd" clip-rule="evenodd" fill="#F3F3F3" stroke="#595959" stroke-width="0.5" stroke-miterlimit="10" d="
			M511.788,362.962v-5.658v-0.048h-1.508v0.048v5.658c0,0.381,0.341,0.713,0.73,0.713
			C511.447,363.676,511.788,363.343,511.788,362.962z"/>
		<path fill-rule="evenodd" clip-rule="evenodd" fill="#F3F3F3" stroke="#595959" stroke-width="0.5" stroke-miterlimit="10" d="
			M511.788,362.962v-5.658v-0.048h-1.508v0.048v5.658c0,0.381,0.341,0.713,0.73,0.713
			C511.447,363.676,511.788,363.343,511.788,362.962z"/>
	</g>
	<g>
		<path fill-rule="evenodd" clip-rule="evenodd" fill="#F3F3F3" stroke="#595959" stroke-width="0.5" stroke-miterlimit="10" d="
			M421.838,363.461c-0.721-2.042-1.202-4.445-1.202-7.028c0-8.289,4.328-14.957,10.159-14.957c5.77,0,10.158,6.668,10.158,14.957
			c0,2.523-0.481,4.926-1.263,7.028H421.838z"/>
		<path fill-rule="evenodd" clip-rule="evenodd" fill="#F3F3F3" stroke="#595959" stroke-width="0.5" stroke-miterlimit="10" d="
			M421.59,372.641v-5.245c0-1.219,0.963-2.195,2.106-2.195h13.719c1.144-0.061,2.106,0.915,2.106,2.195v5.245H421.59z"/>
		<path fill-rule="evenodd" clip-rule="evenodd" fill="#F3F3F3" stroke="#595959" stroke-width="0.5" stroke-miterlimit="10" d="
			M428.445,368.922c0,1.12,0.933,1.99,2.052,1.99c1.12,0,1.991-0.933,1.991-1.99c0-1.181-0.934-2.052-1.991-2.052
			C429.316,366.869,428.445,367.74,428.445,368.922z"/>
		<path fill-rule="evenodd" clip-rule="evenodd" fill="#F3F3F3" stroke="#595959" stroke-width="0.5" stroke-miterlimit="10" d="
			M439.641,364.38v-0.919h-17.803c-0.069-0.196-0.124-0.41-0.189-0.612v1.532c0,0.496,0.421,0.868,0.782,0.868h16.367
			C439.279,365.249,439.641,364.876,439.641,364.38z"/>
	</g>
	<g>
		
			<rect x="385.522" y="289.803" fill-rule="evenodd" clip-rule="evenodd" fill="#F3F3F3" stroke="#595959" stroke-width="0.5" stroke-miterlimit="10" width="25.598" height="25.549"/>
		<path fill-rule="evenodd" clip-rule="evenodd" fill="#F3F3F3" stroke="#595959" stroke-width="0.5" stroke-miterlimit="10" d="
			M388.188,293.272c0,0.865,0.712,1.578,1.576,1.578c0.915,0,1.627-0.712,1.627-1.578c0-0.865-0.712-1.578-1.627-1.578
			C388.9,291.694,388.188,292.407,388.188,293.272z"/>
		<path fill-rule="evenodd" clip-rule="evenodd" fill="#F3F3F3" stroke="#595959" stroke-width="0.5" stroke-miterlimit="10" d="
			M388.188,293.3c0,0.85,0.684,1.549,1.513,1.549c0.879,0,1.563-0.7,1.563-1.549c0-0.85-0.684-1.549-1.563-1.549
			C388.872,291.751,388.188,292.45,388.188,293.3L388.188,293.3z M408.988,289.852v2.599c0,0.6-0.537,1.049-1.123,1.049h-7.226
			c-0.586,0-1.123-0.45-1.123-1.049v-2.599H408.988z"/>
		<path fill-rule="evenodd" clip-rule="evenodd" fill="#F3F3F3" stroke="#595959" stroke-width="0.5" stroke-miterlimit="10" d="
			M391.339,303.257c0,3.822,3.087,6.958,6.958,6.958c3.823,0,6.91-3.136,6.91-6.958c0-3.822-3.087-6.958-6.91-6.958
			C394.377,296.299,391.339,299.435,391.339,303.257z"/>
		<path fill-rule="evenodd" clip-rule="evenodd" fill="#F3F3F3" stroke="#595959" stroke-width="0.5" stroke-miterlimit="10" d="
			M391.339,303.257c0,3.822,3.087,6.958,6.958,6.958c3.823,0,6.91-3.136,6.91-6.958c0-3.822-3.087-6.958-6.91-6.958
			C394.377,296.299,391.339,299.435,391.339,303.257z"/>
		<path fill-rule="evenodd" clip-rule="evenodd" fill="#F3F3F3" stroke="#595959" stroke-width="0.5" stroke-miterlimit="10" d="
			M393.181,303.257c0,2.853,2.263,5.116,5.116,5.116c2.804,0,5.117-2.263,5.117-5.116c0-2.804-2.361-5.116-5.117-5.116
			C395.444,298.141,393.181,300.453,393.181,303.257z"/>
		<path fill-rule="evenodd" clip-rule="evenodd" fill="#F3F3F3" stroke="#595959" stroke-width="0.5" stroke-miterlimit="10" d="
			M393.181,303.257c0,2.853,2.263,5.116,5.116,5.116c2.804,0,5.117-2.263,5.117-5.116c0-2.804-2.361-5.116-5.117-5.116
			C395.444,298.141,393.181,300.453,393.181,303.257z"/>
	</g>
	<g>
		<path fill-rule="evenodd" clip-rule="evenodd" fill="#F3F3F3" stroke="#595959" stroke-width="0.5" stroke-miterlimit="10" d="
			M335.485,363.463c-0.721-2.042-1.202-4.446-1.202-7.029c0-8.29,4.328-14.959,10.16-14.959c5.77,0,10.159,6.669,10.159,14.959
			c0,2.524-0.481,4.926-1.263,7.029H335.485z"/>
		<path fill-rule="evenodd" clip-rule="evenodd" fill="#F3F3F3" stroke="#595959" stroke-width="0.5" stroke-miterlimit="10" d="
			M335.237,372.644v-5.246c0-1.219,0.963-2.195,2.107-2.195h13.72c1.144-0.061,2.107,0.915,2.107,2.195v5.246H335.237z"/>
		<path fill-rule="evenodd" clip-rule="evenodd" fill="#F3F3F3" stroke="#595959" stroke-width="0.5" stroke-miterlimit="10" d="
			M342.092,368.925c0,1.12,0.933,1.991,2.053,1.991c1.12,0,1.991-0.933,1.991-1.991c0-1.182-0.934-2.053-1.991-2.053
			C342.963,366.872,342.092,367.743,342.092,368.925z"/>
		<path fill-rule="evenodd" clip-rule="evenodd" fill="#F3F3F3" stroke="#595959" stroke-width="0.5" stroke-miterlimit="10" d="
			M353.289,364.383v-0.92h-17.805c-0.069-0.196-0.124-0.41-0.189-0.612v1.532c0,0.496,0.421,0.868,0.782,0.868h16.369
			C352.928,365.251,353.289,364.879,353.289,364.383z"/>
	</g>
	<g>
		
			<rect x="234.277" y="21.096" fill-rule="evenodd" clip-rule="evenodd" fill="#F3F3F3" stroke="#595959" stroke-width="0.5" stroke-miterlimit="10" width="28.343" height="2.006"/>
		
			<rect x="234.277" y="21.096" fill-rule="evenodd" clip-rule="evenodd" fill="#F3F3F3" stroke="#595959" stroke-width="0.5" stroke-miterlimit="10" width="28.343" height="2.006"/>
		
			<rect x="234.029" y="52.824" fill-rule="evenodd" clip-rule="evenodd" fill="#F3F3F3" stroke="#595959" stroke-width="0.5" stroke-miterlimit="10" width="9.318" height="2.75"/>
		
			<rect x="234.029" y="52.824" fill-rule="evenodd" clip-rule="evenodd" fill="#F3F3F3" stroke="#595959" stroke-width="0.5" stroke-miterlimit="10" width="9.318" height="2.75"/>
		
			<rect x="232.79" y="22.892" fill-rule="evenodd" clip-rule="evenodd" fill="#F3F3F3" stroke="#595959" stroke-width="0.5" stroke-miterlimit="10" width="31.132" height="31.07"/>
		
			<rect x="232.79" y="22.892" fill-rule="evenodd" clip-rule="evenodd" fill="#F3F3F3" stroke="#595959" stroke-width="0.5" stroke-miterlimit="10" width="31.132" height="31.07"/>
		<path fill-rule="evenodd" clip-rule="evenodd" fill="#F3F3F3" stroke="#595959" stroke-width="0.5" stroke-miterlimit="10" d="
			M263.921,51.174l-31.132,0L263.921,51.174z"/>
		<path fill-rule="evenodd" clip-rule="evenodd" fill="#F3F3F3" stroke="#595959" stroke-width="0.5" stroke-miterlimit="10" d="
			M265.408,51.064c0-0.607-0.543-1.215-1.22-1.215c-0.745,0-1.221,0.608-1.221,1.215c0,0.742,0.542,1.349,1.221,1.349
			C264.866,52.413,265.408,51.806,265.408,51.064z"/>
		<path fill-rule="evenodd" clip-rule="evenodd" fill="#F3F3F3" stroke="#595959" stroke-width="0.5" stroke-miterlimit="10" d="
			M265.408,51.064c0-0.607-0.543-1.215-1.22-1.215c-0.745,0-1.221,0.608-1.221,1.215c0,0.742,0.542,1.349,1.221,1.349
			C264.866,52.413,265.408,51.806,265.408,51.064z"/>
		<path fill-rule="evenodd" clip-rule="evenodd" fill="#F3F3F3" stroke="#595959" stroke-width="0.5" stroke-miterlimit="10" d="
			M248.187,35.162l0,5.477L248.187,35.162z"/>
		<path fill-rule="evenodd" clip-rule="evenodd" fill="#F3F3F3" stroke="#595959" stroke-width="0.5" stroke-miterlimit="10" d="
			M250.845,37.844l-5.476,0L250.845,37.844z"/>
		<path fill-rule="evenodd" clip-rule="evenodd" fill="#F3F3F3" stroke="#595959" stroke-width="0.5" stroke-miterlimit="10" d="
			M250.102,39.895l-3.989-3.989L250.102,39.895z"/>
		<path fill-rule="evenodd" clip-rule="evenodd" fill="#F3F3F3" stroke="#595959" stroke-width="0.5" stroke-miterlimit="10" d="
			M246.175,39.895l3.989-3.989L246.175,39.895z"/>
		<path fill-rule="evenodd" clip-rule="evenodd" fill="#F3F3F3" stroke="#595959" stroke-width="0.5" stroke-miterlimit="10" d="
			M256.246,34.977v5.476V34.977z"/>
		<path fill-rule="evenodd" clip-rule="evenodd" fill="#F3F3F3" stroke="#595959" stroke-width="0.5" stroke-miterlimit="10" d="
			M258.964,37.658l-5.476,0L258.964,37.658z"/>
		<path fill-rule="evenodd" clip-rule="evenodd" fill="#F3F3F3" stroke="#595959" stroke-width="0.5" stroke-miterlimit="10" d="
			M258.158,39.71l-3.989-3.989L258.158,39.71z"/>
		<path fill-rule="evenodd" clip-rule="evenodd" fill="#F3F3F3" stroke="#595959" stroke-width="0.5" stroke-miterlimit="10" d="
			M254.231,39.71l3.989-3.989L254.231,39.71z"/>
		<path fill-rule="evenodd" clip-rule="evenodd" fill="#F3F3F3" stroke="#595959" stroke-width="0.5" stroke-miterlimit="10" d="
			M240.314,35.162v5.477V35.162z"/>
		<path fill-rule="evenodd" clip-rule="evenodd" fill="#F3F3F3" stroke="#595959" stroke-width="0.5" stroke-miterlimit="10" d="
			M242.976,37.844l-5.476,0L242.976,37.844z"/>
		<path fill-rule="evenodd" clip-rule="evenodd" fill="#F3F3F3" stroke="#595959" stroke-width="0.5" stroke-miterlimit="10" d="
			M242.232,39.895l-3.989-3.989L242.232,39.895z"/>
		<path fill-rule="evenodd" clip-rule="evenodd" fill="#F3F3F3" stroke="#595959" stroke-width="0.5" stroke-miterlimit="10" d="
			M238.305,39.895l3.989-3.989L238.305,39.895z"/>
	</g>
	<g>
		<path fill-rule="evenodd" clip-rule="evenodd" fill="#F3F3F3" stroke="#595959" stroke-width="0.5" stroke-miterlimit="10" d="
			M122.458,22.154h14.347v11.912h-14.347V22.154L122.458,22.154z M190.261,22.154v17.804h-53.455V22.154H190.261z"/>
		<path fill-rule="evenodd" clip-rule="evenodd" fill="#F3F3F3" stroke="#595959" stroke-width="0.5" stroke-miterlimit="10" d="
			M168.851,28.513c0-3.098-2.788-3.395-6.294-3.395c-3.422,0-6.252,0.297-6.252,3.395s2.788,5.645,6.252,5.645
			C166.063,34.116,168.851,31.611,168.851,28.513z"/>
		
			<rect x="141.573" y="29.083" fill-rule="evenodd" clip-rule="evenodd" fill="#F3F3F3" stroke="#595959" stroke-width="0.5" stroke-miterlimit="10" width="41.968" height="2.363"/>
		
			<rect x="141.573" y="29.083" fill-rule="evenodd" clip-rule="evenodd" fill="#F3F3F3" stroke="#595959" stroke-width="0.5" stroke-miterlimit="10" width="41.968" height="2.363"/>
		
			<polygon fill-rule="evenodd" clip-rule="evenodd" fill="#F3F3F3" stroke="#595959" stroke-width="0.5" stroke-miterlimit="10" points="
			179.981,29.192 173.236,27.246 151.92,27.246 145.175,29.192 		"/>
		
			<polygon fill-rule="evenodd" clip-rule="evenodd" fill="#F3F3F3" stroke="#595959" stroke-width="0.5" stroke-miterlimit="10" points="
			179.981,29.192 173.236,27.246 151.92,27.246 145.175,29.192 		"/>
		<path fill-rule="evenodd" clip-rule="evenodd" fill="#F3F3F3" stroke="#595959" stroke-width="0.5" stroke-miterlimit="10" d="
			M123.711,35.356h11.832v1.181h-11.832V35.356L123.711,35.356z M190.234,22.154h14.342V34.09h-14.342V22.154L190.234,22.154z
			 M203.362,35.356v1.181H191.53v-1.181H203.362z"/>
	</g>
	<g>
		
			<rect x="171.809" y="203.472" transform="matrix(-1.836970e-16 1 -1 -1.836970e-16 411.1404 51.5796)" fill-rule="evenodd" clip-rule="evenodd" fill="#F3F3F3" stroke="#595959" stroke-width="0.5" stroke-miterlimit="10" width="15.943" height="55.776"/>
		<g>
			
				<rect x="158.518" y="230.369" fill-rule="evenodd" clip-rule="evenodd" fill="#F3F3F3" stroke="#595959" stroke-width="0.5" stroke-miterlimit="10" width="42.524" height="2.139"/>
			
				<polygon fill-rule="evenodd" clip-rule="evenodd" fill="#F3F3F3" stroke="#595959" stroke-width="0.5" stroke-miterlimit="10" points="
				197.435,230.369 190.601,228.706 169.003,228.706 162.168,230.369 			"/>
			
				<rect x="178.868" y="224.149" transform="matrix(5.164853e-11 -1 1 5.164853e-11 -47.9713 407.5745)" fill-rule="evenodd" clip-rule="evenodd" fill="#F3F3F3" stroke="#595959" stroke-width="0.5" stroke-miterlimit="10" width="1.867" height="7.248"/>
		</g>
	</g>
	<g>
		<g>
			
				<rect x="135.262" y="296.829" transform="matrix(6.123234e-17 -1 1 6.123234e-17 -151.6041 511.1649)" fill-rule="evenodd" clip-rule="evenodd" fill="#F3F3F3" stroke="#595959" stroke-width="0.5" stroke-miterlimit="10" width="89.036" height="69.111"/>
			
				<rect x="138.322" y="297.886" transform="matrix(6.123234e-17 -1 1 6.123234e-17 -151.0376 510.6709)" fill-rule="evenodd" clip-rule="evenodd" fill="#F3F3F3" stroke="#595959" stroke-width="0.5" stroke-miterlimit="10" width="82.99" height="65.937"/>
			
				<rect x="152.247" y="348.037" transform="matrix(6.123234e-17 -1 1 6.123234e-17 -199.2367 522.454)" fill-rule="evenodd" clip-rule="evenodd" fill="#F3F3F3" stroke="#595959" stroke-width="0.5" stroke-miterlimit="10" width="18.722" height="25.617"/>
			
				<rect x="188.473" y="348.037" transform="matrix(6.123234e-17 -1 1 6.123234e-17 -163.0112 558.6795)" fill-rule="evenodd" clip-rule="evenodd" fill="#F3F3F3" stroke="#595959" stroke-width="0.5" stroke-miterlimit="10" width="18.722" height="25.617"/>
			
				<polygon fill-rule="evenodd" clip-rule="evenodd" fill="#F3F3F3" stroke="#595959" stroke-width="0.5" stroke-miterlimit="10" points="
				146.848,341.927 166.519,353.381 193.114,353.381 166.519,353.381 193.114,353.381 212.785,341.927 212.785,289.359 
				212.713,289.359 146.848,289.359 			"/>
			
				<polyline fill-rule="evenodd" clip-rule="evenodd" fill="#F3F3F3" stroke="#595959" stroke-width="0.5" stroke-miterlimit="10" points="
				146.848,341.927 160.653,333.571 166.519,353.381 			"/>
			
				<line fill-rule="evenodd" clip-rule="evenodd" fill="#F3F3F3" stroke="#595959" stroke-width="0.5" stroke-miterlimit="10" x1="166.519" y1="353.381" x2="146.848" y2="341.927"/>
			
				<polyline fill-rule="evenodd" clip-rule="evenodd" fill="#F3F3F3" stroke="#595959" stroke-width="0.5" stroke-miterlimit="10" points="
				212.785,341.927 198.981,333.571 193.114,353.381 			"/>
			
				<line fill-rule="evenodd" clip-rule="evenodd" fill="#F3F3F3" stroke="#595959" stroke-width="0.5" stroke-miterlimit="10" x1="193.114" y1="353.381" x2="212.785" y2="341.927"/>
		</g>
		<g>
			
				<rect x="215.623" y="358.23" fill="#F3F3F3" stroke="#595959" stroke-width="0.5" stroke-miterlimit="10" width="24.324" height="17.672"/>
			
				<rect x="222.591" y="357.079" fill="#F3F3F3" stroke="#595959" stroke-width="0.5" stroke-miterlimit="10" width="10.198" height="1.151"/>
		</g>
		<g>
			
				<rect x="119.547" y="358.23" fill="#F3F3F3" stroke="#595959" stroke-width="0.5" stroke-miterlimit="10" width="24.324" height="17.672"/>
			
				<rect x="126.515" y="357.079" fill="#F3F3F3" stroke="#595959" stroke-width="0.5" stroke-miterlimit="10" width="10.198" height="1.151"/>
		</g>
	</g>
	<g>
		<path fill-rule="evenodd" clip-rule="evenodd" fill="#F3F3F3" stroke="#595959" stroke-width="0.5" stroke-miterlimit="10" d="
			M470.923,369.376v-0.893V369.376z"/>
		
			<line fill-rule="evenodd" clip-rule="evenodd" fill="#F3F3F3" stroke="#595959" stroke-width="0.5" stroke-miterlimit="10" x1="470.923" y1="369.376" x2="470.923" y2="368.483"/>
		<path fill-rule="evenodd" clip-rule="evenodd" fill="#F3F3F3" stroke="#595959" stroke-width="0.5" stroke-miterlimit="10" d="
			M471.606,362.809v0.052v5.831c0,0.421-0.368,0.736-0.735,0.736c-0.421,0-0.735-0.315-0.735-0.736v-5.831v-0.052H471.606z"/>
		
			<rect x="457.579" y="368.43" fill-rule="evenodd" clip-rule="evenodd" fill="#F3F3F3" stroke="#595959" stroke-width="0.5" stroke-miterlimit="10" width="26.635" height="3.835"/>
		<path fill-rule="evenodd" clip-rule="evenodd" fill="#F3F3F3" stroke="#595959" stroke-width="0.5" stroke-miterlimit="10" d="
			M457.632,369.376h26.529H457.632z"/>
		<path fill-rule="evenodd" clip-rule="evenodd" fill="#F3F3F3" stroke="#595959" stroke-width="0.5" stroke-miterlimit="10" d="
			M457.579,368.43v-13.396c0-0.683,0.473-1.261,1.156-1.261h24.376c0.578,0,1.103,0.578,1.103,1.261v13.396H457.579z"/>
		<path fill-rule="evenodd" clip-rule="evenodd" fill="#F3F3F3" stroke="#595959" stroke-width="0.5" stroke-miterlimit="10" d="
			M470.975,366.276c-4.938,0-8.983-2.521-9.036-5.621c-0.052-3.152,3.835-5.673,8.826-5.726c4.938,0,8.983,2.469,9.035,5.621
			C479.854,363.649,475.861,366.224,470.975,366.276z"/>
		<path fill-rule="evenodd" clip-rule="evenodd" fill="#F3F3F3" stroke="#595959" stroke-width="0.5" stroke-miterlimit="10" d="
			M469.399,360.497c0-0.841,0.683-1.524,1.524-1.524c0.788,0,1.418,0.683,1.418,1.524c0,0.841-0.631,1.471-1.418,1.471
			C470.082,361.916,469.399,361.286,469.399,360.497z"/>
		<path fill-rule="evenodd" clip-rule="evenodd" fill="#F3F3F3" stroke="#595959" stroke-width="0.5" stroke-miterlimit="10" d="
			M471.606,362.809v0.052v5.831c0,0.421-0.368,0.736-0.735,0.736c-0.421,0-0.735-0.315-0.735-0.736v-5.831v-0.052H471.606z"/>
	</g>
	<g>
		<path fill-rule="evenodd" clip-rule="evenodd" fill="#F3F3F3" stroke="#595959" stroke-width="0.5" stroke-miterlimit="10" d="
			M310.952,309.682h0.917H310.952z"/>
		
			<line fill-rule="evenodd" clip-rule="evenodd" fill="#F3F3F3" stroke="#595959" stroke-width="0.5" stroke-miterlimit="10" x1="310.952" y1="309.682" x2="311.869" y2="309.682"/>
		<path fill-rule="evenodd" clip-rule="evenodd" fill="#F3F3F3" stroke="#595959" stroke-width="0.5" stroke-miterlimit="10" d="
			M317.698,310.383h-0.054h-5.99c-0.432,0-0.756-0.378-0.756-0.755c0-0.432,0.324-0.755,0.756-0.755h5.99h0.054V310.383z"/>
		
			<rect x="307.984" y="295.973" fill-rule="evenodd" clip-rule="evenodd" fill="#F3F3F3" stroke="#595959" stroke-width="0.5" stroke-miterlimit="10" width="3.94" height="27.362"/>
		<path fill-rule="evenodd" clip-rule="evenodd" fill="#F3F3F3" stroke="#595959" stroke-width="0.5" stroke-miterlimit="10" d="
			M310.952,296.028v27.253V296.028z"/>
		<path fill-rule="evenodd" clip-rule="evenodd" fill="#F3F3F3" stroke="#595959" stroke-width="0.5" stroke-miterlimit="10" d="
			M311.923,295.973h13.762c0.702,0,1.295,0.486,1.295,1.188v25.041c0,0.593-0.593,1.133-1.295,1.133h-13.762V295.973z"/>
		<path fill-rule="evenodd" clip-rule="evenodd" fill="#F3F3F3" stroke="#595959" stroke-width="0.5" stroke-miterlimit="10" d="
			M314.136,309.735c0-5.073,2.59-9.228,5.775-9.283c3.238-0.054,5.828,3.94,5.883,9.067c0,5.073-2.536,9.228-5.774,9.282
			C316.834,318.856,314.189,314.755,314.136,309.735z"/>
		<path fill-rule="evenodd" clip-rule="evenodd" fill="#F3F3F3" stroke="#595959" stroke-width="0.5" stroke-miterlimit="10" d="
			M320.072,308.116c0.864,0,1.565,0.702,1.565,1.565c0,0.809-0.702,1.457-1.565,1.457c-0.864,0-1.511-0.648-1.511-1.457
			C318.615,308.818,319.262,308.116,320.072,308.116z"/>
		<path fill-rule="evenodd" clip-rule="evenodd" fill="#F3F3F3" stroke="#595959" stroke-width="0.5" stroke-miterlimit="10" d="
			M317.698,310.383h-0.054h-5.99c-0.432,0-0.756-0.378-0.756-0.755c0-0.432,0.324-0.755,0.756-0.755h5.99h0.054V310.383z"/>
	</g>
	<path fill-rule="evenodd" clip-rule="evenodd" fill="#F3F3F3" stroke="#595959" stroke-width="0.5" stroke-miterlimit="10" d="
		M355.978,35.264c0-1.107,1.218-2.086,2.714-2.086h20.161c1.495,0,2.714,0.979,2.714,2.086v26.647c0,1.192-1.219,2.129-2.714,2.129
		h-20.161c-1.495,0-2.714-0.937-2.714-2.129V35.264L355.978,35.264z M365.701,48.897c0-0.704,0.554-1.291,1.219-1.291
		c0.664,0,1.163,0.588,1.163,1.291c0,0.705-0.499,1.232-1.163,1.232C366.255,50.13,365.701,49.602,365.701,48.897z M357.849,37.216
		c0-0.945,0.901-1.781,2.007-1.781h14.91c1.106,0,2.007,0.836,2.007,1.781v22.749c0,1.018-0.901,1.817-2.007,1.817h-14.91
		c-1.106,0-2.007-0.8-2.007-1.817V37.216L357.849,37.216z M372.208,47.725h6.42v2.028h-6.42V47.725z"/>
	<g>
		
			<rect x="292.804" y="20.829" fill-rule="evenodd" clip-rule="evenodd" fill="#F3F3F3" stroke="#595959" stroke-width="0.5" stroke-miterlimit="10" width="29.768" height="30.052"/>
		
			<rect x="292.804" y="20.829" fill-rule="evenodd" clip-rule="evenodd" fill="#F3F3F3" stroke="#595959" stroke-width="0.5" stroke-miterlimit="10" width="29.768" height="30.052"/>
		<path fill-rule="evenodd" clip-rule="evenodd" fill="#F3F3F3" stroke="#595959" stroke-width="0.5" stroke-miterlimit="10" d="
			M306.209,27.938c0,2.88-2.291,5.242-5.212,5.242c-2.864,0-5.212-2.362-5.212-5.242c0-2.88,2.348-5.242,5.212-5.242
			C303.975,22.638,306.209,25.058,306.209,27.938z"/>
		<path fill-rule="evenodd" clip-rule="evenodd" fill="#F3F3F3" stroke="#595959" stroke-width="0.5" stroke-miterlimit="10" d="
			M306.209,27.938c0,2.88-2.291,5.242-5.212,5.242c-2.864,0-5.212-2.362-5.212-5.242c0-2.88,2.348-5.242,5.212-5.242
			C303.975,22.638,306.209,25.058,306.209,27.938z"/>
		<path fill-rule="evenodd" clip-rule="evenodd" fill="#F3F3F3" stroke="#595959" stroke-width="0.5" stroke-miterlimit="10" d="
			M304.634,27.939c0,1.975-1.617,3.6-3.638,3.6c-1.964,0-3.58-1.626-3.58-3.6c0-2.033,1.616-3.659,3.58-3.659
			C303.076,24.221,304.634,25.848,304.634,27.939z"/>
		<path fill-rule="evenodd" clip-rule="evenodd" fill="#F3F3F3" stroke="#595959" stroke-width="0.5" stroke-miterlimit="10" d="
			M304.634,27.939c0,1.975-1.617,3.6-3.638,3.6c-1.964,0-3.58-1.626-3.58-3.6c0-2.033,1.616-3.659,3.58-3.659
			C303.076,24.221,304.634,25.848,304.634,27.939z"/>
		<path fill-rule="evenodd" clip-rule="evenodd" fill="#F3F3F3" stroke="#595959" stroke-width="0.5" stroke-miterlimit="10" d="
			M319.311,27.938c0,2.88-2.291,5.242-5.212,5.242c-2.864,0-5.212-2.362-5.212-5.242c0-2.88,2.348-5.242,5.212-5.242
			C317.02,22.638,319.311,25.058,319.311,27.938z"/>
		<path fill-rule="evenodd" clip-rule="evenodd" fill="#F3F3F3" stroke="#595959" stroke-width="0.5" stroke-miterlimit="10" d="
			M319.311,27.938c0,2.88-2.291,5.242-5.212,5.242c-2.864,0-5.212-2.362-5.212-5.242c0-2.88,2.348-5.242,5.212-5.242
			C317.02,22.638,319.311,25.058,319.311,27.938z"/>
		<path fill-rule="evenodd" clip-rule="evenodd" fill="#F3F3F3" stroke="#595959" stroke-width="0.5" stroke-miterlimit="10" d="
			M317.68,27.939c0,1.975-1.617,3.6-3.581,3.6c-1.964,0-3.582-1.626-3.582-3.6c0-2.033,1.617-3.659,3.582-3.659
			C316.063,24.221,317.68,25.848,317.68,27.939z"/>
		<path fill-rule="evenodd" clip-rule="evenodd" fill="#F3F3F3" stroke="#595959" stroke-width="0.5" stroke-miterlimit="10" d="
			M317.68,27.939c0,1.975-1.617,3.6-3.581,3.6c-1.964,0-3.582-1.626-3.582-3.6c0-2.033,1.617-3.659,3.582-3.659
			C316.063,24.221,317.68,25.848,317.68,27.939z"/>
		<path fill-rule="evenodd" clip-rule="evenodd" fill="#F3F3F3" stroke="#595959" stroke-width="0.5" stroke-miterlimit="10" d="
			M319.311,39.927c0,2.88-2.291,5.242-5.212,5.242c-2.864,0-5.212-2.362-5.212-5.242c0-2.88,2.348-5.242,5.212-5.242
			C317.02,34.686,319.311,37.048,319.311,39.927z"/>
		<path fill-rule="evenodd" clip-rule="evenodd" fill="#F3F3F3" stroke="#595959" stroke-width="0.5" stroke-miterlimit="10" d="
			M319.311,39.927c0,2.88-2.291,5.242-5.212,5.242c-2.864,0-5.212-2.362-5.212-5.242c0-2.88,2.348-5.242,5.212-5.242
			C317.02,34.686,319.311,37.048,319.311,39.927z"/>
		<path fill-rule="evenodd" clip-rule="evenodd" fill="#F3F3F3" stroke="#595959" stroke-width="0.5" stroke-miterlimit="10" d="
			M301.429,48.075c0,0.438-0.436,0.94-0.997,0.94c-0.437,0-0.936-0.439-0.936-0.94c0-0.564,0.437-1.003,0.936-1.003
			C300.993,47.072,301.429,47.573,301.429,48.075z"/>
		<path fill-rule="evenodd" clip-rule="evenodd" fill="#F3F3F3" stroke="#595959" stroke-width="0.5" stroke-miterlimit="10" d="
			M301.429,48.075c0,0.438-0.436,0.94-0.997,0.94c-0.437,0-0.936-0.439-0.936-0.94c0-0.564,0.437-1.003,0.936-1.003
			C300.993,47.072,301.429,47.573,301.429,48.075z"/>
		<path fill-rule="evenodd" clip-rule="evenodd" fill="#F3F3F3" stroke="#595959" stroke-width="0.5" stroke-miterlimit="10" d="
			M305.309,48.075c0,0.438-0.375,0.94-0.939,0.94c-0.563,0-0.938-0.439-0.938-0.94c0-0.564,0.375-1.003,0.938-1.003
			C304.934,47.072,305.309,47.573,305.309,48.075z"/>
		<path fill-rule="evenodd" clip-rule="evenodd" fill="#F3F3F3" stroke="#595959" stroke-width="0.5" stroke-miterlimit="10" d="
			M305.309,48.075c0,0.438-0.375,0.94-0.939,0.94c-0.563,0-0.938-0.439-0.938-0.94c0-0.564,0.375-1.003,0.938-1.003
			C304.934,47.072,305.309,47.573,305.309,48.075z"/>
		<path fill-rule="evenodd" clip-rule="evenodd" fill="#F3F3F3" stroke="#595959" stroke-width="0.5" stroke-miterlimit="10" d="
			M309.302,48.075c0,0.438-0.436,0.94-0.998,0.94c-0.436,0-0.935-0.439-0.935-0.94c0-0.564,0.437-1.003,0.935-1.003
			C308.865,47.072,309.302,47.573,309.302,48.075z"/>
		<path fill-rule="evenodd" clip-rule="evenodd" fill="#F3F3F3" stroke="#595959" stroke-width="0.5" stroke-miterlimit="10" d="
			M309.302,48.075c0,0.438-0.436,0.94-0.998,0.94c-0.436,0-0.935-0.439-0.935-0.94c0-0.564,0.437-1.003,0.935-1.003
			C308.865,47.072,309.302,47.573,309.302,48.075z"/>
		<path fill-rule="evenodd" clip-rule="evenodd" fill="#F3F3F3" stroke="#595959" stroke-width="0.5" stroke-miterlimit="10" d="
			M305.045,39.927c0,2.237-1.78,4.072-4.048,4.072c-2.224,0-4.048-1.835-4.048-4.072c0-2.237,1.823-4.071,4.048-4.071
			C303.31,35.856,305.045,37.69,305.045,39.927z"/>
		<path fill-rule="evenodd" clip-rule="evenodd" fill="#F3F3F3" stroke="#595959" stroke-width="0.5" stroke-miterlimit="10" d="
			M305.045,39.927c0,2.237-1.78,4.072-4.048,4.072c-2.224,0-4.048-1.835-4.048-4.072c0-2.237,1.823-4.071,4.048-4.071
			C303.31,35.856,305.045,37.69,305.045,39.927z"/>
		<path fill-rule="evenodd" clip-rule="evenodd" fill="#F3F3F3" stroke="#595959" stroke-width="0.5" stroke-miterlimit="10" d="
			M303.915,39.928c0,1.537-1.259,2.804-2.788,2.804c-1.574,0-2.832-1.267-2.832-2.804c0-1.537,1.259-2.848,2.832-2.848
			C302.657,37.08,303.915,38.391,303.915,39.928z"/>
		<path fill-rule="evenodd" clip-rule="evenodd" fill="#F3F3F3" stroke="#595959" stroke-width="0.5" stroke-miterlimit="10" d="
			M303.915,39.928c0,1.537-1.259,2.804-2.788,2.804c-1.574,0-2.832-1.267-2.832-2.804c0-1.537,1.259-2.848,2.832-2.848
			C302.657,37.08,303.915,38.391,303.915,39.928z"/>
	</g>
	<g>
		
			<rect x="387.698" y="184.239" transform="matrix(-1 -4.489354e-11 4.489354e-11 -1 868.5462 400.6321)" fill-rule="evenodd" clip-rule="evenodd" fill="#F3F3F3" stroke="#595959" stroke-width="0.5" stroke-miterlimit="10" width="93.151" height="32.154"/>
		
			<line fill="#F3F3F3" stroke="#595959" stroke-width="0.5" stroke-miterlimit="10" x1="477.477" y1="184.239" x2="477.477" y2="216.448"/>
		
			<line fill="#F3F3F3" stroke="#595959" stroke-width="0.5" stroke-miterlimit="10" x1="391.169" y1="184.239" x2="391.169" y2="216.393"/>
		
			<line fill="#F3F3F3" stroke="#595959" stroke-width="0.5" stroke-miterlimit="10" x1="477.477" y1="214.909" x2="391.169" y2="214.909"/>
		
			<line fill="#F3F3F3" stroke="#595959" stroke-width="0.5" stroke-miterlimit="10" x1="394.176" y1="200.085" x2="474.473" y2="200.085"/>
		
			<rect x="469.295" y="190.45" transform="matrix(-0.9868 0.162 -0.162 -0.9868 966.8292 321.6874)" fill="#F3F3F3" stroke="#595959" stroke-width="0.5" stroke-miterlimit="10" width="2.014" height="19.605"/>
		
			<rect x="462.079" y="190.45" transform="matrix(-0.9961 0.0882 -0.0882 -0.9961 942.0222 358.903)" fill="#F3F3F3" stroke="#595959" stroke-width="0.5" stroke-miterlimit="10" width="2.014" height="19.605"/>
		
			<rect x="454.773" y="190.282" transform="matrix(-0.9734 0.229 -0.229 -0.9734 945.2678 290.4788)" fill="#F3F3F3" stroke="#595959" stroke-width="0.5" stroke-miterlimit="10" width="2.014" height="19.605"/>
		
			<rect x="446.62" y="190.501" transform="matrix(-0.9884 0.152 -0.152 -0.9884 920.505 330.2208)" fill="#F3F3F3" stroke="#595959" stroke-width="0.5" stroke-miterlimit="10" width="2.014" height="19.605"/>
		
			<rect x="439.51" y="190.392" transform="matrix(-0.999 0.0451 -0.0451 -0.999 889.6165 380.3124)" fill="#F3F3F3" stroke="#595959" stroke-width="0.5" stroke-miterlimit="10" width="2.014" height="19.605"/>
		
			<rect x="432.312" y="190.392" transform="matrix(-0.9884 0.152 -0.152 -0.9884 892.0378 332.1789)" fill="#F3F3F3" stroke="#595959" stroke-width="0.5" stroke-miterlimit="10" width="2.014" height="19.605"/>
		
			<rect x="425.002" y="190.282" transform="matrix(-0.999 0.0451 -0.0451 -0.999 860.6116 380.7483)" fill="#F3F3F3" stroke="#595959" stroke-width="0.5" stroke-miterlimit="10" width="2.014" height="19.605"/>
		
			<rect x="417.836" y="190.282" transform="matrix(-0.9787 0.2052 -0.2052 -0.9787 869.8262 309.9814)" fill="#F3F3F3" stroke="#595959" stroke-width="0.5" stroke-miterlimit="10" width="2.014" height="19.605"/>
		
			<rect x="410.669" y="190.303" transform="matrix(-0.9884 0.152 -0.152 -0.9884 848.9902 335.2928)" fill="#F3F3F3" stroke="#595959" stroke-width="0.5" stroke-miterlimit="10" width="2.014" height="19.605"/>
		
			<rect x="403.502" y="190.282" transform="matrix(-0.9964 0.0847 -0.0847 -0.9964 824.5184 365.1729)" fill="#F3F3F3" stroke="#595959" stroke-width="0.5" stroke-miterlimit="10" width="2.014" height="19.605"/>
		
			<rect x="396.335" y="190.521" transform="matrix(-0.9713 0.2379 -0.2379 -0.9713 830.9364 300.3598)" fill="#F3F3F3" stroke="#595959" stroke-width="0.5" stroke-miterlimit="10" width="2.014" height="19.605"/>
	</g>
	<g>
		<path fill="#F3F3F3" stroke="#595959" stroke-width="0.5" stroke-miterlimit="10" d="M44.36,47.923
			c1.53,0.462,2.555,1.455,2.757,1.42c0.725-0.129-0.999-1.233,0.158-4.507c0.869-2.458,1.559-5.996,1.559-5.996
			s2.552,2.737,3.778,5.097c1.409,2.713,0.037,5.409,0.261,5.526c0.296,0.156,1.044-1.841,3.396-2.319
			c2.878-0.585,6.835,2.159,6.835,2.159s-2.995,0.06-5.037,2.114c-1.955,1.966-4.119,1.59-3.996,2.004
			c0.075,0.251,2.429,0.941,4.176,2.178c1.541,1.092,2.473,4.182,2.473,4.182s-1.484-1.304-5.486-0.944
			c-3.623,0.326-4.425-3.907-4.662-3.867c-0.342,0.058,0.435,2.114-0.588,5.037c-0.953,2.724-4.955,5.516-4.955,5.516
			s-0.558-4.126-0.678-5.942c-0.232-3.522,2.264-5.275,1.904-5.81c-0.273-0.405-2.821,0.956-5.185-0.689
			c-1.381-0.96-5.308-2.609-5.308-2.609s3.846-2.161,5.981-2.653C42.714,47.594,43.599,47.693,44.36,47.923"/>
		<path fill="#F3F3F3" stroke="#595959" stroke-width="0.5" stroke-miterlimit="10" d="M46.863,47.009
			c0.003-0.183,0.011-0.47,0.04-0.822c0.038-0.47,0.08-0.628,0.084-0.927c0.003-0.241-0.026-0.527-0.116-1.016
			c-0.261-1.405-1.755-2.22-2.334-2.601c-0.467-0.307-2.439-1.434-2.439-1.434s-1.184,3.035-0.747,5.151
			c0.399,1.166,3.011,2.565,3.011,2.565l2.972,1.58L46.863,47.009z"/>
		<path fill="#F3F3F3" stroke="#595959" stroke-width="0.5" stroke-miterlimit="10" d="M54.739,47.761c0,0,1.713-1.016,2.61-2.236
			c1.453-1.977,1.501-4.078,1.484-4.812c0,0-3.419,0.064-4.654,2.069c-0.838,1.359-0.903,2.706-0.922,3.177
			c-0.007,0.171-0.022,0.335-0.049,0.504l-0.604,3.229L54.739,47.761z"/>
		<path fill="#F3F3F3" stroke="#595959" stroke-width="0.5" stroke-miterlimit="10" d="M56.487,54.579c0,0,2.116,1.122,2.75,1.289
			c0.735,0.194,1.159,0.196,1.374,0.184c0.807-0.045,1.374-0.356,1.746-0.47c0.448-0.137,2.523-0.523,2.523-0.523
			s-2.027-2.513-4.132-3.284c-2.188-0.5-2.979,0.107-3.607,0.406c-0.182,0.087-0.366,0.158-0.56,0.213l-3,0.798L56.487,54.579z"/>
		<path fill="#F3F3F3" stroke="#595959" stroke-width="0.5" stroke-miterlimit="10" d="M50.451,58.317c0,0-0.204,2.611,0.225,3.43
			c0.161,0.307,0.359,1.23,1.951,1.818c1.535,0.568,2.454,1.647,2.454,1.647s0.534-2.133,0.12-3.5
			c-0.19-0.627-0.315-0.971-0.605-1.564c-0.328-0.671-1.281-1.324-1.976-1.885c-0.728-0.587-1.224-1.513-1.224-1.513l-0.817-1.941
			L50.451,58.317z"/>
		<path fill="#F3F3F3" stroke="#595959" stroke-width="0.5" stroke-miterlimit="10" d="M43.624,53.671c0,0-1.896-0.021-3.23,0.45
			c-0.957,0.338-1.41,1.179-2.398,2.584c-0.311,0.442-1.439,2.303-1.439,2.303s3.437,0.927,5.756,0.42
			c1.763-0.386,2.77-2.944,2.77-2.944l1.458-2.917L43.624,53.671z"/>
	</g>
	<g>
		
			<rect x="234.738" y="316.129" transform="matrix(-4.489760e-11 1 -1 -4.489760e-11 610.9789 52.1287)" fill-rule="evenodd" clip-rule="evenodd" fill="#F3F3F3" stroke="#595959" stroke-width="0.5" stroke-miterlimit="10" width="89.375" height="30.85"/>
		
			<line fill="#F3F3F3" stroke="#595959" stroke-width="0.5" stroke-miterlimit="10" x1="264" y1="290.101" x2="294.903" y2="290.101"/>
		
			<line fill="#F3F3F3" stroke="#595959" stroke-width="0.5" stroke-miterlimit="10" x1="264" y1="372.911" x2="294.85" y2="372.911"/>
		
			<line fill="#F3F3F3" stroke="#595959" stroke-width="0.5" stroke-miterlimit="10" x1="293.426" y1="290.101" x2="293.426" y2="372.911"/>
		
			<line fill="#F3F3F3" stroke="#595959" stroke-width="0.5" stroke-miterlimit="10" x1="279.203" y1="370.026" x2="279.203" y2="292.984"/>
		
			<rect x="278.398" y="287.58" transform="matrix(0.162 0.9868 -0.9868 0.162 527.1801 -26.792)" fill="#F3F3F3" stroke="#595959" stroke-width="0.5" stroke-miterlimit="10" width="1.933" height="18.811"/>
		
			<rect x="278.398" y="294.503" transform="matrix(0.0882 0.9961 -0.9961 0.0882 557.463 -1.158)" fill="#F3F3F3" stroke="#595959" stroke-width="0.5" stroke-miterlimit="10" width="1.933" height="18.811"/>
		
			<rect x="278.237" y="301.513" transform="matrix(0.229 0.9734 -0.9734 0.229 517.9219 -32.0659)" fill="#F3F3F3" stroke="#595959" stroke-width="0.5" stroke-miterlimit="10" width="1.933" height="18.811"/>
		
			<rect x="278.447" y="309.336" transform="matrix(0.152 0.9884 -0.9884 0.152 551.9661 -5.8857)" fill="#F3F3F3" stroke="#595959" stroke-width="0.5" stroke-miterlimit="10" width="1.933" height="18.811"/>
		
			<rect x="278.342" y="316.158" transform="matrix(0.0451 0.999 -0.999 0.0451 591.9399 31.8524)" fill="#F3F3F3" stroke="#595959" stroke-width="0.5" stroke-miterlimit="10" width="1.933" height="18.811"/>
		
			<rect x="278.342" y="323.064" transform="matrix(0.152 0.9884 -0.9884 0.152 565.446 5.8592)" fill="#F3F3F3" stroke="#595959" stroke-width="0.5" stroke-miterlimit="10" width="1.933" height="18.811"/>
		
			<rect x="278.237" y="330.077" transform="matrix(0.0451 0.999 -0.999 0.0451 605.7448 45.2486)" fill="#F3F3F3" stroke="#595959" stroke-width="0.5" stroke-miterlimit="10" width="1.933" height="18.811"/>
		
			<rect x="278.237" y="336.953" transform="matrix(0.2052 0.9787 -0.9787 0.2052 560.9111 2.0337)" fill="#F3F3F3" stroke="#595959" stroke-width="0.5" stroke-miterlimit="10" width="1.933" height="18.811"/>
		
			<rect x="278.257" y="343.83" transform="matrix(0.152 0.9884 -0.9884 0.152 585.8978 23.5517)" fill="#F3F3F3" stroke="#595959" stroke-width="0.5" stroke-miterlimit="10" width="1.933" height="18.811"/>
		
			<rect x="278.237" y="350.706" transform="matrix(0.0847 0.9964 -0.9964 0.0847 614.36 51.3967)" fill="#F3F3F3" stroke="#595959" stroke-width="0.5" stroke-miterlimit="10" width="1.933" height="18.811"/>
		
			<rect x="278.467" y="357.582" transform="matrix(0.2379 0.9713 -0.9713 0.2379 569.3991 8.2646)" fill="#F3F3F3" stroke="#595959" stroke-width="0.5" stroke-miterlimit="10" width="1.933" height="18.811"/>
	</g>
	<g>
		<g>
			
				<rect x="796.416" y="323.603" transform="matrix(4.486728e-11 -1 1 4.486728e-11 475.8957 1139.478)" fill="#F3F3F3" stroke="#595959" stroke-width="0.5" stroke-miterlimit="10" width="22.541" height="16.377"/>
			
				<rect x="794.239" y="331.346" transform="matrix(4.465234e-11 -1 1 4.465234e-11 467.0856 1130.8441)" fill="#F3F3F3" stroke="#595959" stroke-width="0.5" stroke-miterlimit="10" width="9.451" height="1.067"/>
		</g>
		<g>
			
				<rect x="733.365" y="344.255" fill-rule="evenodd" clip-rule="evenodd" fill="#F3F3F3" stroke="#595959" stroke-width="0.5" stroke-miterlimit="10" width="82.51" height="32.023"/>
			
				<polyline fill-rule="evenodd" clip-rule="evenodd" fill="#F3F3F3" stroke="#595959" stroke-width="0.5" stroke-miterlimit="10" points="
				792.894,374.933 811.872,374.933 811.872,345.599 783.083,345.599 			"/>
			
				<rect x="792.243" y="347.428" transform="matrix(-1 -4.491575e-11 4.491575e-11 -1 1602.0626 720.532)" fill-rule="evenodd" clip-rule="evenodd" fill="#F3F3F3" stroke="#595959" stroke-width="0.5" stroke-miterlimit="10" width="17.576" height="25.676"/>
			
				<polygon fill-rule="evenodd" clip-rule="evenodd" fill="#F3F3F3" stroke="#595959" stroke-width="0.5" stroke-miterlimit="10" points="
				793.697,374.933 793.697,363.082 793.697,363.082 783.321,345.599 735.701,345.599 735.701,345.663 735.701,374.933 			"/>
			
				<polygon fill-rule="evenodd" clip-rule="evenodd" fill="#F3F3F3" stroke="#595959" stroke-width="0.5" stroke-miterlimit="10" points="
				783.264,345.914 775.953,357.501 793.285,362.426 			"/>
		</g>
	</g>
	<g>
		<g>
			<path fill="#F3F3F3" stroke="#595959" stroke-width="0.5" stroke-miterlimit="10" d="M672.37,342.638l16.688,0.023
				c1.1,0.002,1.999,0.903,1.997,2.003l-0.021,14.925c-0.002,1.1-0.903,1.999-2.003,1.997l-16.688-0.023
				c-1.1-0.002-1.999-0.903-1.997-2.003l0.021-14.925C670.368,343.536,671.27,342.637,672.37,342.638z"/>
			<path fill="#F3F3F3" stroke="#595959" stroke-width="0.5" stroke-miterlimit="10" d="M671.753,342.637l17.922,0.025
				c0.761,0.001,1.384-0.62,1.385-1.381l0.003-1.751c0.001-0.761-0.62-1.384-1.381-1.385l-17.922-0.025
				c-0.761-0.001-1.384,0.62-1.385,1.381l-0.002,1.751C670.37,342.013,670.992,342.636,671.753,342.637z"/>
		</g>
		
			<rect x="649.908" y="354.074" transform="matrix(-1 -4.488999e-11 4.488999e-11 -1 1361.4077 730.351)" fill-rule="evenodd" clip-rule="evenodd" fill="#F3F3F3" stroke="#595959" stroke-width="0.5" stroke-miterlimit="10" width="61.592" height="22.204"/>
	</g>
	<g>
		
			<rect x="510.448" y="316.08" transform="matrix(4.489748e-11 -1 1 4.489748e-11 223.6311 886.6404)" fill-rule="evenodd" clip-rule="evenodd" fill="#F3F3F3" stroke="#595959" stroke-width="0.5" stroke-miterlimit="10" width="89.375" height="30.85"/>
		
			<line fill="#F3F3F3" stroke="#595959" stroke-width="0.5" stroke-miterlimit="10" x1="570.561" y1="372.958" x2="539.657" y2="372.958"/>
		
			<line fill="#F3F3F3" stroke="#595959" stroke-width="0.5" stroke-miterlimit="10" x1="570.561" y1="290.148" x2="539.711" y2="290.148"/>
		
			<line fill="#F3F3F3" stroke="#595959" stroke-width="0.5" stroke-miterlimit="10" x1="541.135" y1="372.958" x2="541.135" y2="290.148"/>
		
			<line fill="#F3F3F3" stroke="#595959" stroke-width="0.5" stroke-miterlimit="10" x1="555.357" y1="293.033" x2="555.357" y2="370.075"/>
		
			<rect x="554.231" y="356.668" transform="matrix(-0.162 -0.9868 0.9868 -0.162 283.8802 973.2313)" fill="#F3F3F3" stroke="#595959" stroke-width="0.5" stroke-miterlimit="10" width="1.933" height="18.811"/>
		
			<rect x="554.231" y="349.744" transform="matrix(-0.0882 -0.9961 0.9961 -0.0882 246.3873 943.8452)" fill="#F3F3F3" stroke="#595959" stroke-width="0.5" stroke-miterlimit="10" width="1.933" height="18.811"/>
		
			<rect x="554.391" y="342.734" transform="matrix(-0.229 -0.9734 0.9734 -0.229 339.753 973.3796)" fill="#F3F3F3" stroke="#595959" stroke-width="0.5" stroke-miterlimit="10" width="1.933" height="18.811"/>
		
			<rect x="554.181" y="334.912" transform="matrix(-0.152 -0.9884 0.9884 -0.152 299.2385 945.3616)" fill="#F3F3F3" stroke="#595959" stroke-width="0.5" stroke-miterlimit="10" width="1.933" height="18.811"/>
		
			<rect x="554.286" y="328.09" transform="matrix(-0.0451 -0.999 0.999 -0.0451 243.1491 907.4077)" fill="#F3F3F3" stroke="#595959" stroke-width="0.5" stroke-miterlimit="10" width="1.933" height="18.811"/>
		
			<rect x="554.286" y="321.184" transform="matrix(-0.152 -0.9884 0.9884 -0.152 312.9282 929.6496)" fill="#F3F3F3" stroke="#595959" stroke-width="0.5" stroke-miterlimit="10" width="1.933" height="18.811"/>
		
			<rect x="554.391" y="314.171" transform="matrix(-0.0451 -0.999 0.999 -0.0451 257.1638 892.9653)" fill="#F3F3F3" stroke="#595959" stroke-width="0.5" stroke-miterlimit="10" width="1.933" height="18.811"/>
		
			<rect x="554.391" y="307.295" transform="matrix(-0.2052 -0.9787 0.9787 -0.2052 359.335 925.2193)" fill="#F3F3F3" stroke="#595959" stroke-width="0.5" stroke-miterlimit="10" width="1.933" height="18.811"/>
		
			<rect x="554.372" y="300.418" transform="matrix(-0.152 -0.9884 0.9884 -0.152 333.5505 905.8112)" fill="#F3F3F3" stroke="#595959" stroke-width="0.5" stroke-miterlimit="10" width="1.933" height="18.811"/>
		
			<rect x="554.391" y="293.542" transform="matrix(-0.0847 -0.9964 0.9964 -0.0847 300.5598 881.9786)" fill="#F3F3F3" stroke="#595959" stroke-width="0.5" stroke-miterlimit="10" width="1.933" height="18.811"/>
		
			<rect x="554.162" y="286.666" transform="matrix(-0.2379 -0.9713 0.9713 -0.2379 399.6353 905.6998)" fill="#F3F3F3" stroke="#595959" stroke-width="0.5" stroke-miterlimit="10" width="1.933" height="18.811"/>
	</g>
	<g>
		<g>
			
				<rect x="796.39" y="273.885" transform="matrix(4.486704e-11 1 -1 4.486704e-11 1089.7341 -525.5872)" fill="#F3F3F3" stroke="#595959" stroke-width="0.5" stroke-miterlimit="10" width="22.541" height="16.377"/>
			
				<rect x="794.213" y="281.452" transform="matrix(4.465210e-11 1 -1 4.465210e-11 1080.9241 -516.9532)" fill="#F3F3F3" stroke="#595959" stroke-width="0.5" stroke-miterlimit="10" width="9.451" height="1.067"/>
		</g>
		<g>
			
				<rect x="733.339" y="237.587" fill-rule="evenodd" clip-rule="evenodd" fill="#F3F3F3" stroke="#595959" stroke-width="0.5" stroke-miterlimit="10" width="82.51" height="32.023"/>
			
				<polyline fill-rule="evenodd" clip-rule="evenodd" fill="#F3F3F3" stroke="#595959" stroke-width="0.5" stroke-miterlimit="10" points="
				792.868,238.932 811.846,238.932 811.846,268.266 783.057,268.266 			"/>
			
				<rect x="792.217" y="240.761" transform="matrix(-1 4.491551e-11 -4.491551e-11 -1 1602.0101 507.1973)" fill-rule="evenodd" clip-rule="evenodd" fill="#F3F3F3" stroke="#595959" stroke-width="0.5" stroke-miterlimit="10" width="17.576" height="25.676"/>
			
				<polygon fill-rule="evenodd" clip-rule="evenodd" fill="#F3F3F3" stroke="#595959" stroke-width="0.5" stroke-miterlimit="10" points="
				793.671,238.932 793.671,250.783 793.671,250.783 783.295,268.266 735.674,268.266 735.674,268.201 735.674,238.932 			"/>
			
				<polygon fill-rule="evenodd" clip-rule="evenodd" fill="#F3F3F3" stroke="#595959" stroke-width="0.5" stroke-miterlimit="10" points="
				783.238,267.95 775.926,256.363 793.259,251.439 			"/>
		</g>
	</g>
	<g>
		<g>
			<path fill="#F3F3F3" stroke="#595959" stroke-width="0.5" stroke-miterlimit="10" d="M672.343,271.226l16.688-0.023
				c1.1-0.002,1.999-0.903,1.997-2.003l-0.021-14.925c-0.002-1.1-0.903-1.999-2.003-1.997l-16.688,0.023
				c-1.1,0.002-1.999,0.903-1.997,2.003l0.021,14.925C670.342,270.329,671.243,271.228,672.343,271.226z"/>
			<path fill="#F3F3F3" stroke="#595959" stroke-width="0.5" stroke-miterlimit="10" d="M671.726,271.227l17.922-0.025
				c0.761-0.001,1.384,0.62,1.385,1.381l0.002,1.751c0.001,0.761-0.62,1.384-1.381,1.385l-17.922,0.025
				c-0.761,0.001-1.384-0.62-1.385-1.381l-0.002-1.751C670.344,271.851,670.966,271.228,671.726,271.227z"/>
		</g>
		
			<rect x="649.881" y="237.587" transform="matrix(-1 4.488975e-11 -4.488975e-11 -1 1361.3552 497.3783)" fill-rule="evenodd" clip-rule="evenodd" fill="#F3F3F3" stroke="#595959" stroke-width="0.5" stroke-miterlimit="10" width="61.592" height="22.204"/>
	</g>
	<g>
		<path fill-rule="evenodd" clip-rule="evenodd" fill="#F3F3F3" stroke="#595959" stroke-width="0.5" stroke-miterlimit="10" d="
			M96.543,148.724v35.409v28.514c0,1.896,1.551,3.447,3.447,3.447h28.562h86.362c1.896,0,3.447-1.551,3.447-3.447v-28.514
			c0-1.896-1.551-3.447-3.447-3.447h-79.468c-1.904,0-3.447-1.543-3.447-3.447v-28.515c0-1.896-1.551-3.447-3.447-3.447H99.991
			C98.095,145.277,96.543,146.828,96.543,148.724z"/>
		<g>
			<path fill-rule="evenodd" clip-rule="evenodd" fill="#F3F3F3" stroke="#595959" stroke-width="0.5" stroke-miterlimit="10" d="
				M132,186.402c0-4.035-0.207-5.717-5.326-5.717h-15.202c-5.119,0-5.326,1.729-5.326,5.717v15.132c0,4.035,0.207,5.717,5.326,5.717
				h15.202c5.119,0,5.326-1.729,5.326-5.717V186.402z"/>
			<path fill-rule="evenodd" clip-rule="evenodd" fill="#F3F3F3" stroke="#595959" stroke-width="0.5" stroke-miterlimit="10" d="
				M132,186.402c0-4.035-0.207-5.717-5.326-5.717h-15.202c-5.119,0-5.326,1.729-5.326,5.717v15.132c0,4.035,0.207,5.717,5.326,5.717
				h15.202c5.119,0,5.326-1.729,5.326-5.717V186.402z"/>
			<path fill-rule="evenodd" clip-rule="evenodd" fill="#F3F3F3" stroke="#595959" stroke-width="0.5" stroke-miterlimit="10" d="
				M157.651,186.402c0-4.035-0.207-5.717-5.326-5.717h-15.201c-5.119,0-5.326,1.729-5.326,5.717v15.132
				c0,4.035,0.207,5.717,5.326,5.717h15.201c5.119,0,5.326-1.729,5.326-5.717V186.402z"/>
			<path fill-rule="evenodd" clip-rule="evenodd" fill="#F3F3F3" stroke="#595959" stroke-width="0.5" stroke-miterlimit="10" d="
				M157.651,186.402c0-4.035-0.207-5.717-5.326-5.717h-15.201c-5.119,0-5.326,1.729-5.326,5.717v15.132
				c0,4.035,0.207,5.717,5.326,5.717h15.201c5.119,0,5.326-1.729,5.326-5.717V186.402z"/>
			<path fill-rule="evenodd" clip-rule="evenodd" fill="#F3F3F3" stroke="#595959" stroke-width="0.5" stroke-miterlimit="10" d="
				M183.25,186.402c0-4.035-0.207-5.717-5.274-5.717h-15.254c-5.119,0-5.275,1.729-5.275,5.717v15.132
				c0,4.035,0.207,5.717,5.275,5.717h15.254c5.119,0,5.274-1.729,5.274-5.717V186.402z"/>
			<path fill-rule="evenodd" clip-rule="evenodd" fill="#F3F3F3" stroke="#595959" stroke-width="0.5" stroke-miterlimit="10" d="
				M183.25,186.402c0-4.035-0.207-5.717-5.274-5.717h-15.254c-5.119,0-5.275,1.729-5.275,5.717v15.132
				c0,4.035,0.207,5.717,5.275,5.717h15.254c5.119,0,5.274-1.729,5.274-5.717V186.402z"/>
			<path fill-rule="evenodd" clip-rule="evenodd" fill="#F3F3F3" stroke="#595959" stroke-width="0.5" stroke-miterlimit="10" d="
				M132,159.838c0-4.035-0.207-5.717-5.326-5.717h-15.202c-5.119,0-5.326,1.729-5.326,5.717v15.132c0,4.035,0.207,5.717,5.326,5.717
				h15.202c5.119,0,5.326-1.729,5.326-5.717V159.838z"/>
			<path fill-rule="evenodd" clip-rule="evenodd" fill="#F3F3F3" stroke="#595959" stroke-width="0.5" stroke-miterlimit="10" d="
				M208.85,186.479c0-4.035-0.207-5.717-5.274-5.717h-15.254c-5.119,0-5.275,1.729-5.275,5.717v15.132
				c0,4.035,0.207,5.717,5.275,5.717h15.254c5.119,0,5.274-1.729,5.274-5.717V186.479z"/>
			<path fill-rule="evenodd" clip-rule="evenodd" fill="#F3F3F3" stroke="#595959" stroke-width="0.5" stroke-miterlimit="10" d="
				M96.543,212.43v-61.973v-1.515c0-2.016,1.774-3.665,3.942-3.665h1.63h25.944c2.168,0,3.942,1.649,3.942,3.665v1.515
				c0,2.016-1.774,3.665-3.942,3.665h-22.003v53.129H208.85v-22.9c0-2.015,1.774-3.665,3.942-3.665h1.63
				c2.168,0,3.942,1.649,3.942,3.665v26.565v1.515c0,2.016-1.774,3.665-3.942,3.665h-1.63H102.114h-1.629h0
				C98.317,216.094,96.543,214.445,96.543,212.43z"/>
		</g>
	</g>
	<g>
		<g>
			<path fill="#F3F3F3" stroke="#595959" stroke-width="0.5" stroke-miterlimit="10" d="M229.759,90.234
				c-5.97,0-10.802-1.787-10.802-4.003c0-2.206,4.832-4.003,10.802-4.003c5.97,0,10.812,1.797,10.812,4.003
				C240.571,88.447,235.729,90.234,229.759,90.234z"/>
			<path fill="#F3F3F3" stroke="#595959" stroke-width="0.5" stroke-miterlimit="10" d="M229.759,108.314
				c-5.97,0-10.802-4.842-10.802-10.812c0-5.97,4.832-10.812,10.802-10.812c5.97,0,10.812,4.842,10.812,10.812
				C240.571,103.472,235.729,108.314,229.759,108.314z"/>
		</g>
		<g>
			<path fill="#F3F3F3" stroke="#595959" stroke-width="0.5" stroke-miterlimit="10" d="M261.956,141.361
				c5.97,0,10.812,1.797,10.812,4.003c0,2.216-4.842,4.003-10.812,4.003s-10.802-1.787-10.802-4.003
				C251.154,143.158,255.986,141.361,261.956,141.361z"/>
			<path fill="#F3F3F3" stroke="#595959" stroke-width="0.5" stroke-miterlimit="10" d="M261.956,123.292
				c5.97,0,10.812,4.842,10.812,10.812s-4.842,10.812-10.812,10.812s-10.802-4.842-10.802-10.812S255.986,123.292,261.956,123.292z"
				/>
		</g>
		<g>
			<path fill="#F3F3F3" stroke="#595959" stroke-width="0.5" stroke-miterlimit="10" d="M229.759,141.366
				c5.98,0,10.812,1.787,10.812,4.003c0,2.206-4.832,4.003-10.812,4.003c-5.97,0-10.802-1.797-10.802-4.003
				C218.957,143.153,223.789,141.366,229.759,141.366z"/>
			<path fill="#F3F3F3" stroke="#595959" stroke-width="0.5" stroke-miterlimit="10" d="M229.759,123.287
				c5.98,0,10.812,4.842,10.812,10.812s-4.832,10.812-10.812,10.812c-5.97,0-10.802-4.842-10.802-10.812
				S223.789,123.287,229.759,123.287z"/>
		</g>
		<g>
			<path fill="#F3F3F3" stroke="#595959" stroke-width="0.5" stroke-miterlimit="10" d="M261.966,90.234
				c-5.98,0-10.812-1.787-10.812-4.003c0-2.206,4.832-4.003,10.812-4.003c5.97,0,10.802,1.797,10.802,4.003
				C272.767,88.447,267.935,90.234,261.966,90.234z"/>
			<path fill="#F3F3F3" stroke="#595959" stroke-width="0.5" stroke-miterlimit="10" d="M261.966,108.314
				c-5.98,0-10.812-4.842-10.812-10.812c0-5.97,4.832-10.812,10.812-10.812c5.97,0,10.802,4.842,10.802,10.812
				C272.767,103.472,267.935,108.314,261.966,108.314z"/>
		</g>
		<polygon fill="#F3F3F3" stroke="#595959" stroke-width="0.5" points="279.452,136.33 279.452,95.271 211.907,95.271 
			211.907,136.33 		"/>
	</g>
</g>
<g id="numbers">
	<g>
		<path d="M117.599,257.627c-0.724-0.399-1.292-0.951-1.703-1.658c-0.412-0.706-0.618-1.497-0.618-2.372s0.206-1.666,0.618-2.373
			c0.412-0.706,0.981-1.259,1.709-1.657s1.542-0.598,2.444-0.598c0.676,0,1.3,0.112,1.872,0.338
			c0.572,0.226,1.057,0.555,1.456,0.988l-0.611,0.61c-0.711-0.719-1.608-1.079-2.691-1.079c-0.719,0-1.374,0.165-1.963,0.494
			c-0.589,0.33-1.051,0.78-1.384,1.353c-0.334,0.571-0.5,1.213-0.5,1.924s0.167,1.352,0.5,1.924
			c0.333,0.572,0.795,1.022,1.384,1.352c0.589,0.33,1.244,0.494,1.963,0.494c1.092,0,1.989-0.363,2.691-1.092l0.611,0.611
			c-0.399,0.434-0.886,0.765-1.462,0.994c-0.577,0.229-1.203,0.345-1.878,0.345C119.134,258.224,118.322,258.025,117.599,257.627z"
			/>
		<path d="M131.281,251.308v6.838h-0.923v-6.019h-4.29v6.019h-0.923v-6.838H131.281z"/>
		<path d="M138.313,251.925c0.476,0.446,0.715,1.107,0.715,1.982v4.238h-0.884v-1.066c-0.208,0.355-0.513,0.633-0.917,0.832
			c-0.403,0.2-0.882,0.3-1.436,0.3c-0.763,0-1.37-0.183-1.82-0.547c-0.451-0.363-0.676-0.845-0.676-1.442
			c0-0.581,0.21-1.049,0.63-1.404s1.09-0.533,2.008-0.533h2.171v-0.416c0-0.589-0.165-1.037-0.494-1.345
			c-0.33-0.308-0.811-0.462-1.443-0.462c-0.434,0-0.85,0.071-1.248,0.215c-0.399,0.143-0.741,0.34-1.027,0.591l-0.416-0.688
			c0.347-0.295,0.763-0.522,1.248-0.683s0.997-0.24,1.534-0.24C137.152,251.257,137.836,251.479,138.313,251.925z M137.273,257.126
			c0.373-0.238,0.65-0.583,0.832-1.033v-1.118h-2.145c-1.17,0-1.755,0.407-1.755,1.222c0,0.399,0.152,0.713,0.455,0.942
			c0.303,0.23,0.728,0.345,1.274,0.345C136.454,257.483,136.9,257.364,137.273,257.126z"/>
		<path d="M147.075,251.308v6.838h-0.923v-6.019h-3.276l-0.091,1.689c-0.069,1.422-0.234,2.514-0.494,3.276
			c-0.26,0.763-0.724,1.144-1.391,1.144c-0.182,0-0.403-0.034-0.663-0.104l0.065-0.793c0.156,0.034,0.264,0.052,0.325,0.052
			c0.355,0,0.624-0.165,0.806-0.494c0.182-0.329,0.303-0.736,0.364-1.222c0.061-0.485,0.112-1.127,0.156-1.924l0.117-2.444H147.075z
			"/>
		<path d="M154.596,254.299c0.446,0.372,0.669,0.909,0.669,1.611c0,0.729-0.24,1.287-0.722,1.678
			c-0.481,0.39-1.176,0.58-2.086,0.571l-2.756-0.013v-6.838h0.923v2.392l2.015,0.026
			C153.497,253.735,154.149,253.925,154.596,254.299z M153.842,257.074c0.325-0.265,0.487-0.652,0.487-1.164
			c0-0.502-0.16-0.875-0.481-1.117c-0.321-0.243-0.802-0.369-1.443-0.378l-1.781-0.025v3.042l1.781,0.025
			C153.038,257.465,153.517,257.339,153.842,257.074z"/>
		<path d="M157.02,251.308h0.923v3.029h4.303v-3.029h0.923v6.838h-0.923v-3.016h-4.303v3.016h-0.923V251.308z"/>
		<path d="M171.047,251.308v6.838h-0.845v-2.262h-2.145h-0.26l-1.586,2.262h-1.001l1.703-2.392
			c-0.529-0.147-0.936-0.399-1.222-0.755c-0.286-0.354-0.429-0.806-0.429-1.352c0-0.763,0.26-1.343,0.78-1.742
			c0.52-0.398,1.23-0.598,2.132-0.598H171.047z M168.135,255.195h2.067v-3.067H168.2c-1.334,0-2.002,0.516-2.002,1.547
			C166.198,254.688,166.843,255.195,168.135,255.195z"/>
		<path d="M118.528,265.146v9.8h-1.82v-8.274h-2.072v-1.525H118.528z"/>
		<path d="M129.21,272.72h-1.736v2.226h-1.764v-2.226h-5.376v-1.261l4.83-6.313h1.946l-4.55,6.034h3.206v-1.975h1.708v1.975h1.736
			V272.72z"/>
		<path d="M132.178,273.042c0.214,0.215,0.322,0.495,0.322,0.84c0,0.149-0.021,0.307-0.063,0.47s-0.128,0.408-0.259,0.734
			l-0.714,1.975h-1.134l0.56-2.143c-0.206-0.084-0.367-0.217-0.483-0.398c-0.117-0.183-0.175-0.395-0.175-0.638
			c0-0.345,0.107-0.625,0.322-0.84c0.214-0.214,0.485-0.321,0.812-0.321C131.692,272.72,131.963,272.828,132.178,273.042z"/>
		<path d="M135.496,274.491c-0.616-0.396-1.102-0.976-1.456-1.736c-0.355-0.76-0.532-1.663-0.532-2.709
			c0-1.045,0.177-1.948,0.532-2.709c0.354-0.76,0.84-1.339,1.456-1.735s1.316-0.596,2.1-0.596c0.784,0,1.486,0.199,2.107,0.596
			s1.108,0.976,1.463,1.735c0.354,0.761,0.532,1.664,0.532,2.709c0,1.046-0.178,1.949-0.532,2.709
			c-0.355,0.761-0.842,1.34-1.463,1.736s-1.323,0.595-2.107,0.595C136.812,275.086,136.112,274.887,135.496,274.491z
			 M139.254,272.636c0.406-0.579,0.609-1.442,0.609-2.591c0-1.147-0.203-2.011-0.609-2.59c-0.406-0.578-0.959-0.868-1.659-0.868
			c-0.691,0-1.239,0.29-1.645,0.868c-0.406,0.579-0.609,1.442-0.609,2.59c0,1.148,0.203,2.012,0.609,2.591
			c0.406,0.578,0.954,0.867,1.645,0.867C138.295,273.504,138.849,273.215,139.254,272.636z"/>
	</g>
	<g>
		<path d="M581.146,257.627c-0.724-0.399-1.291-0.951-1.703-1.658c-0.411-0.706-0.617-1.497-0.617-2.372s0.206-1.666,0.617-2.373
			c0.412-0.706,0.981-1.259,1.71-1.657c0.728-0.398,1.542-0.598,2.444-0.598c0.676,0,1.3,0.112,1.872,0.338
			c0.571,0.226,1.057,0.555,1.455,0.988l-0.61,0.61c-0.711-0.719-1.608-1.079-2.691-1.079c-0.72,0-1.373,0.165-1.963,0.494
			c-0.59,0.33-1.051,0.78-1.385,1.353c-0.333,0.571-0.5,1.213-0.5,1.924s0.167,1.352,0.5,1.924c0.334,0.572,0.795,1.022,1.385,1.352
			c0.59,0.33,1.243,0.494,1.963,0.494c1.092,0,1.989-0.363,2.691-1.092l0.61,0.611c-0.398,0.434-0.886,0.765-1.462,0.994
			s-1.202,0.345-1.879,0.345C582.683,258.224,581.87,258.025,581.146,257.627z"/>
		<path d="M594.829,251.308v6.838h-0.923v-6.019h-4.29v6.019h-0.923v-6.838H594.829z"/>
		<path d="M601.861,251.925c0.477,0.446,0.715,1.107,0.715,1.982v4.238h-0.884v-1.066c-0.208,0.355-0.514,0.633-0.916,0.832
			c-0.403,0.2-0.882,0.3-1.437,0.3c-0.763,0-1.37-0.183-1.82-0.547c-0.45-0.363-0.676-0.845-0.676-1.442
			c0-0.581,0.21-1.049,0.63-1.404c0.421-0.355,1.09-0.533,2.009-0.533h2.171v-0.416c0-0.589-0.164-1.037-0.494-1.345
			c-0.329-0.308-0.81-0.462-1.442-0.462c-0.434,0-0.85,0.071-1.248,0.215c-0.398,0.143-0.741,0.34-1.027,0.591l-0.416-0.688
			c0.347-0.295,0.763-0.522,1.248-0.683s0.997-0.24,1.534-0.24C600.7,251.257,601.385,251.479,601.861,251.925z M600.821,257.126
			c0.373-0.238,0.65-0.583,0.832-1.033v-1.118h-2.145c-1.17,0-1.755,0.407-1.755,1.222c0,0.399,0.151,0.713,0.455,0.942
			c0.303,0.23,0.728,0.345,1.273,0.345C600.003,257.483,600.449,257.364,600.821,257.126z"/>
		<path d="M610.624,251.308v6.838h-0.923v-6.019h-3.276l-0.091,1.689c-0.069,1.422-0.234,2.514-0.494,3.276
			s-0.724,1.144-1.392,1.144c-0.182,0-0.402-0.034-0.662-0.104l0.064-0.793c0.156,0.034,0.265,0.052,0.325,0.052
			c0.355,0,0.624-0.165,0.806-0.494c0.183-0.329,0.304-0.736,0.364-1.222c0.061-0.485,0.112-1.127,0.156-1.924l0.117-2.444H610.624z
			"/>
		<path d="M618.144,254.299c0.446,0.372,0.67,0.909,0.67,1.611c0,0.729-0.24,1.287-0.722,1.678c-0.48,0.39-1.177,0.58-2.086,0.571
			l-2.756-0.013v-6.838h0.923v2.392l2.015,0.026C617.046,253.735,617.697,253.925,618.144,254.299z M617.39,257.074
			c0.325-0.265,0.488-0.652,0.488-1.164c0-0.502-0.161-0.875-0.481-1.117c-0.32-0.243-0.802-0.369-1.443-0.378l-1.78-0.025v3.042
			l1.78,0.025C616.586,257.465,617.065,257.339,617.39,257.074z"/>
		<path d="M620.568,251.308h0.923v3.029h4.303v-3.029h0.923v6.838h-0.923v-3.016h-4.303v3.016h-0.923V251.308z"/>
		<path d="M634.595,251.308v6.838h-0.846v-2.262h-2.145h-0.26l-1.587,2.262h-1.001l1.703-2.392
			c-0.528-0.147-0.936-0.399-1.222-0.755c-0.286-0.354-0.429-0.806-0.429-1.352c0-0.763,0.26-1.343,0.779-1.742
			c0.521-0.398,1.231-0.598,2.133-0.598H634.595z M631.683,255.195h2.066v-3.067h-2.002c-1.335,0-2.002,0.516-2.002,1.547
			C629.745,254.688,630.391,255.195,631.683,255.195z"/>
		<path d="M582.076,265.146v9.8h-1.82v-8.274h-2.071v-1.525H582.076z"/>
		<path d="M591.414,265.146v1.218l-3.808,8.582h-1.946l3.682-8.26h-3.85v1.666h-1.694v-3.206H591.414z"/>
		<path d="M593.752,273.042c0.215,0.215,0.322,0.495,0.322,0.84c0,0.149-0.021,0.307-0.063,0.47s-0.128,0.408-0.259,0.734
			l-0.714,1.975h-1.135l0.561-2.143c-0.205-0.084-0.366-0.217-0.483-0.398c-0.116-0.183-0.175-0.395-0.175-0.638
			c0-0.345,0.107-0.625,0.322-0.84c0.215-0.214,0.485-0.321,0.812-0.321C593.267,272.72,593.537,272.828,593.752,273.042z"/>
		<path d="M602.432,265.146v1.218l-3.808,8.582h-1.946l3.682-8.26h-3.85v1.666h-1.694v-3.206H602.432z"/>
	</g>
	<g>
		<path d="M125.264,67.384h-2.08v4.173h-0.936v-9.1h0.936v4.082h2.08l3.081-4.082h1.04l-3.38,4.42l3.575,4.68h-1.105L125.264,67.384
			z"/>
		<path d="M136.639,64.719l-3.419,7.657c-0.277,0.642-0.598,1.096-0.962,1.365c-0.364,0.269-0.802,0.403-1.313,0.403
			c-0.33,0-0.637-0.052-0.923-0.156c-0.286-0.104-0.533-0.26-0.741-0.468l0.429-0.689c0.347,0.347,0.763,0.52,1.248,0.52
			c0.312,0,0.579-0.087,0.8-0.26c0.221-0.174,0.427-0.468,0.617-0.884l0.299-0.663l-3.055-6.825h0.962l2.574,5.811l2.574-5.811
			H136.639z"/>
		<path d="M141.969,71.557l-2.171-2.86l-2.184,2.86h-1.04l2.704-3.51l-2.574-3.328h1.04l2.054,2.678l2.054-2.678h1.014l-2.574,3.328
			l2.73,3.51H141.969z"/>
		<path d="M144.53,64.719h0.923v3.029h4.303v-3.029h0.923v6.838h-0.923v-3.016h-4.303v3.016h-0.923V64.719z"/>
		<path d="M158.557,64.719v6.838h-0.845v-2.262h-2.145h-0.26l-1.586,2.262h-1.001l1.703-2.392c-0.529-0.147-0.936-0.398-1.222-0.754
			s-0.429-0.806-0.429-1.352c0-0.763,0.26-1.343,0.78-1.742c0.52-0.398,1.23-0.598,2.132-0.598H158.557z M155.645,68.606h2.067
			v-3.068h-2.002c-1.334,0-2.002,0.516-2.002,1.547C153.708,68.099,154.353,68.606,155.645,68.606z"/>
		<path d="M160.649,67.632h3.406v0.806h-3.406V67.632z"/>
		<path d="M126.863,81.138h-3.913v6.019h-0.923v-6.838h4.836V81.138z"/>
		<path d="M128.93,86.774c-0.529-0.299-0.945-0.713-1.248-1.242c-0.303-0.528-0.455-1.126-0.455-1.794s0.152-1.265,0.455-1.794
			s0.719-0.94,1.248-1.235c0.528-0.294,1.122-0.442,1.781-0.442s1.252,0.147,1.781,0.442c0.528,0.295,0.942,0.707,1.242,1.235
			c0.299,0.529,0.448,1.126,0.448,1.794s-0.149,1.266-0.448,1.794c-0.299,0.529-0.713,0.942-1.242,1.242
			c-0.529,0.299-1.123,0.448-1.781,0.448S129.458,87.073,128.93,86.774z M132.017,86.072c0.386-0.221,0.687-0.535,0.904-0.942
			c0.216-0.407,0.325-0.871,0.325-1.391s-0.108-0.983-0.325-1.391c-0.217-0.407-0.518-0.722-0.904-0.942
			c-0.386-0.221-0.821-0.332-1.307-0.332s-0.921,0.11-1.306,0.332c-0.386,0.221-0.689,0.535-0.91,0.942
			c-0.221,0.408-0.332,0.871-0.332,1.391s0.11,0.984,0.332,1.391s0.524,0.721,0.91,0.942c0.385,0.221,0.821,0.332,1.306,0.332
			S131.631,86.293,132.017,86.072z"/>
		<path d="M137.204,86.78c-0.533-0.294-0.951-0.708-1.254-1.242c-0.303-0.533-0.455-1.133-0.455-1.8s0.152-1.265,0.455-1.794
			s0.722-0.94,1.254-1.235c0.533-0.294,1.138-0.442,1.813-0.442c0.589,0,1.116,0.115,1.58,0.345c0.463,0.229,0.83,0.565,1.099,1.007
			l-0.689,0.468c-0.226-0.338-0.512-0.592-0.858-0.761c-0.347-0.169-0.724-0.253-1.131-0.253c-0.494,0-0.938,0.11-1.333,0.332
			c-0.395,0.221-0.702,0.535-0.923,0.942c-0.221,0.408-0.332,0.871-0.332,1.391c0,0.529,0.11,0.995,0.332,1.397
			s0.528,0.715,0.923,0.936s0.839,0.332,1.333,0.332c0.407,0,0.784-0.083,1.131-0.247c0.346-0.165,0.632-0.416,0.858-0.754
			l0.689,0.468c-0.269,0.442-0.637,0.778-1.105,1.008c-0.468,0.229-0.993,0.344-1.573,0.344
			C138.341,87.222,137.737,87.075,137.204,86.78z"/>
		<path d="M148.156,81.138h-2.587v6.019h-0.923v-6.019h-2.587v-0.819h6.097V81.138z"/>
		<path d="M149.495,80.319h0.923v5.434l4.563-5.434h0.819v6.838h-0.923v-5.434l-4.55,5.434h-0.832V80.319z"/>
		<path d="M158.439,80.319h0.923v3.029h4.303v-3.029h0.923v6.838h-0.923v-3.016h-4.303v3.016h-0.923V80.319z"/>
		<path d="M171.621,80.937c0.476,0.447,0.715,1.107,0.715,1.983v4.238h-0.884v-1.066c-0.208,0.355-0.513,0.633-0.917,0.832
			c-0.403,0.199-0.882,0.299-1.436,0.299c-0.763,0-1.37-0.182-1.82-0.546c-0.451-0.364-0.676-0.845-0.676-1.443
			c0-0.581,0.21-1.049,0.63-1.404c0.42-0.355,1.09-0.533,2.008-0.533h2.171v-0.416c0-0.589-0.165-1.038-0.494-1.346
			c-0.33-0.308-0.811-0.461-1.443-0.461c-0.434,0-0.85,0.071-1.248,0.214c-0.399,0.143-0.741,0.34-1.027,0.592l-0.416-0.689
			c0.347-0.295,0.763-0.522,1.248-0.683s0.997-0.241,1.534-0.241C170.459,80.267,171.144,80.49,171.621,80.937z M170.581,86.137
			c0.373-0.238,0.65-0.583,0.832-1.034v-1.118h-2.145c-1.17,0-1.755,0.407-1.755,1.222c0,0.399,0.152,0.713,0.455,0.943
			s0.728,0.344,1.274,0.344C169.762,86.494,170.208,86.375,170.581,86.137z"/>
		<path d="M180.045,80.319v6.838H179.2v-2.262h-2.145h-0.26l-1.586,2.262h-1.001l1.703-2.392c-0.529-0.147-0.936-0.398-1.222-0.754
			s-0.429-0.806-0.429-1.352c0-0.763,0.26-1.343,0.78-1.742c0.52-0.398,1.23-0.598,2.132-0.598H180.045z M177.133,84.206h2.067
			v-3.068h-2.002c-1.334,0-2.002,0.516-2.002,1.547C175.196,83.699,175.841,84.206,177.133,84.206z"/>
		<path d="M128.428,102.417v1.54h-7.224v-1.218l3.892-3.696c0.439-0.42,0.735-0.786,0.889-1.099
			c0.154-0.313,0.231-0.623,0.231-0.931c0-0.458-0.154-0.807-0.462-1.05c-0.308-0.243-0.761-0.364-1.358-0.364
			c-0.999,0-1.764,0.341-2.296,1.022l-1.274-0.98c0.383-0.513,0.898-0.912,1.547-1.197c0.648-0.284,1.374-0.427,2.177-0.427
			c1.064,0,1.913,0.252,2.548,0.756s0.952,1.19,0.952,2.058c0,0.532-0.112,1.031-0.336,1.498s-0.653,0.999-1.288,1.596l-2.618,2.492
			H128.428z"/>
		<path d="M135.61,98.756c0.663,0.537,0.994,1.267,0.994,2.191c0,0.588-0.145,1.12-0.434,1.596c-0.29,0.476-0.724,0.854-1.302,1.134
			c-0.579,0.28-1.292,0.42-2.142,0.42c-0.7,0-1.376-0.101-2.03-0.301s-1.204-0.478-1.652-0.833l0.77-1.414
			c0.364,0.299,0.8,0.535,1.309,0.707c0.508,0.173,1.033,0.259,1.575,0.259c0.644,0,1.15-0.133,1.519-0.399
			c0.369-0.266,0.553-0.632,0.553-1.099c0-0.504-0.199-0.884-0.595-1.141c-0.397-0.256-1.076-0.385-2.037-0.385h-2.366l0.504-5.334
			h5.754v1.526h-4.214l-0.21,2.268h0.938C133.925,97.951,134.947,98.219,135.61,98.756z"/>
		<path d="M139.572,102.053c0.214,0.215,0.322,0.495,0.322,0.84c0,0.149-0.021,0.306-0.063,0.469
			c-0.042,0.164-0.128,0.409-0.259,0.735l-0.714,1.974h-1.134l0.56-2.142c-0.206-0.084-0.367-0.217-0.483-0.399
			c-0.117-0.182-0.175-0.395-0.175-0.637c0-0.345,0.107-0.625,0.322-0.84c0.214-0.215,0.485-0.322,0.812-0.322
			C139.086,101.731,139.357,101.839,139.572,102.053z"/>
		<path d="M147.202,98.756c0.663,0.537,0.994,1.267,0.994,2.191c0,0.588-0.145,1.12-0.434,1.596
			c-0.29,0.476-0.724,0.854-1.302,1.134c-0.579,0.28-1.292,0.42-2.142,0.42c-0.7,0-1.376-0.101-2.03-0.301s-1.204-0.478-1.652-0.833
			l0.77-1.414c0.364,0.299,0.8,0.535,1.309,0.707c0.508,0.173,1.033,0.259,1.575,0.259c0.644,0,1.15-0.133,1.519-0.399
			c0.369-0.266,0.553-0.632,0.553-1.099c0-0.504-0.199-0.884-0.595-1.141c-0.397-0.256-1.076-0.385-2.037-0.385h-2.366l0.504-5.334
			h5.754v1.526h-4.214l-0.21,2.268h0.938C145.517,97.951,146.539,98.219,147.202,98.756z"/>
	</g>
	<g>
		<path d="M43.813,194.602h9.1v0.949h-8.268v4.394l3.042,0.104c1.257,0.043,2.269,0.146,3.036,0.306s1.339,0.405,1.716,0.734
			s0.565,0.767,0.565,1.313c0,0.234-0.03,0.477-0.091,0.729l-0.858-0.078c0.035-0.147,0.052-0.291,0.052-0.43
			c0-0.381-0.151-0.69-0.455-0.929c-0.303-0.238-0.773-0.418-1.41-0.54c-0.637-0.121-1.48-0.203-2.529-0.247l-3.9-0.13V194.602z"/>
		<path d="M52.53,190.715c-0.299,0.528-0.713,0.944-1.242,1.248c-0.528,0.303-1.126,0.455-1.794,0.455s-1.265-0.152-1.794-0.455
			c-0.529-0.304-0.94-0.72-1.235-1.248c-0.294-0.528-0.442-1.122-0.442-1.781s0.147-1.252,0.442-1.781
			c0.295-0.528,0.707-0.942,1.235-1.242c0.529-0.299,1.126-0.448,1.794-0.448s1.266,0.149,1.794,0.448
			c0.529,0.299,0.942,0.713,1.242,1.242c0.299,0.529,0.448,1.123,0.448,1.781S52.829,190.187,52.53,190.715z M51.828,187.628
			c-0.221-0.386-0.535-0.687-0.942-0.904c-0.407-0.216-0.871-0.325-1.391-0.325s-0.983,0.108-1.391,0.325
			c-0.407,0.217-0.722,0.518-0.942,0.904c-0.221,0.386-0.332,0.821-0.332,1.307s0.11,0.92,0.332,1.306
			c0.221,0.386,0.535,0.688,0.942,0.91c0.408,0.221,0.871,0.331,1.391,0.331s0.984-0.11,1.391-0.331
			c0.407-0.222,0.721-0.524,0.942-0.91s0.332-0.821,0.332-1.306S52.049,188.014,51.828,187.628z"/>
		<path d="M52.107,176.858h2.457v0.871h-1.651v6.123h1.651v0.871h-2.457v-0.39c-0.026-0.459-0.364-0.771-1.014-0.936
			c-0.65-0.165-1.56-0.277-2.73-0.338l-2.288-0.091v-5.044h6.032V176.858z M50.814,182.461c0.628,0.122,1.06,0.338,1.293,0.65
			v-4.264h-5.213v3.289l1.521,0.078C49.386,182.257,50.186,182.34,50.814,182.461z"/>
		<path d="M49.872,169.071v1.482h3.042v0.923h-3.042v1.482l3.042,2.093v1.105l-3.523-2.457l-3.315,2.262v-1.001l3.003-2.002v-1.482
			h-3.003v-0.923h3.003v-1.482l-3.003-2.015v-1.001l3.328,2.262l3.51-2.457v1.105L49.872,169.071z"/>
		<path d="M46.076,164.326v-0.923h5.434l-5.434-4.563v-0.819h6.838v0.923h-5.434l5.434,4.55v0.832H46.076z"/>
		<path d="M46.076,150.131h6.838v0.845h-2.262v2.145v0.26l2.262,1.586v1.001l-2.392-1.703c-0.147,0.529-0.398,0.936-0.754,1.222
			s-0.806,0.429-1.352,0.429c-0.763,0-1.343-0.26-1.742-0.78c-0.398-0.52-0.598-1.23-0.598-2.132V150.131z M49.962,153.043v-2.067
			h-3.068v2.002c0,1.334,0.516,2.002,1.547,2.002C49.456,154.98,49.962,154.334,49.962,153.043z"/>
	</g>
	<g>
		<path d="M44.523,231.981c0.275,0.396,0.413,0.861,0.413,1.393c0,0.598-0.166,1.12-0.497,1.568c-0.331,0.448-0.8,0.791-1.407,1.029
			c-0.607,0.238-1.312,0.356-2.114,0.356s-1.505-0.118-2.107-0.356s-1.066-0.581-1.393-1.029s-0.49-0.971-0.49-1.568
			c0-0.531,0.135-0.996,0.406-1.393c0.271-0.396,0.658-0.712,1.162-0.945c-0.392-0.214-0.693-0.497-0.903-0.847
			s-0.315-0.754-0.315-1.211c0-0.551,0.151-1.031,0.455-1.442c0.303-0.41,0.73-0.728,1.281-0.951
			c0.551-0.225,1.185-0.337,1.904-0.337c0.728,0,1.367,0.112,1.918,0.337c0.551,0.224,0.98,0.541,1.288,0.951
			c0.308,0.411,0.462,0.892,0.462,1.442c0,0.457-0.107,0.858-0.322,1.204c-0.215,0.346-0.523,0.63-0.924,0.854
			C43.854,231.269,44.248,231.585,44.523,231.981z M42.515,234.48c0.392-0.28,0.588-0.667,0.588-1.162
			c0-0.485-0.196-0.868-0.588-1.147c-0.392-0.28-0.924-0.421-1.596-0.421c-0.672,0-1.199,0.141-1.582,0.421
			c-0.383,0.279-0.574,0.662-0.574,1.147c0,0.495,0.191,0.882,0.574,1.162s0.91,0.42,1.582,0.42
			C41.591,234.9,42.123,234.76,42.515,234.48z M39.568,228.04c-0.332,0.243-0.497,0.584-0.497,1.022c0,0.42,0.166,0.754,0.497,1.001
			c0.331,0.247,0.781,0.371,1.351,0.371c0.579,0,1.036-0.124,1.372-0.371s0.504-0.581,0.504-1.001c0-0.438-0.17-0.779-0.511-1.022
			c-0.341-0.242-0.796-0.363-1.365-0.363S39.899,227.798,39.568,228.04z"/>
		<path d="M48.171,234.284c0.214,0.215,0.322,0.495,0.322,0.84c0,0.149-0.021,0.307-0.063,0.47s-0.128,0.408-0.259,0.734
			l-0.714,1.975h-1.134l0.56-2.143c-0.206-0.084-0.367-0.217-0.483-0.398c-0.117-0.183-0.175-0.395-0.175-0.638
			c0-0.345,0.107-0.625,0.322-0.84c0.214-0.214,0.485-0.321,0.812-0.321C47.686,233.963,47.956,234.07,48.171,234.284z"/>
		<path d="M58.335,233.963h-1.736v2.226h-1.764v-2.226h-5.376v-1.261l4.83-6.313h1.946l-4.55,6.034h3.206v-1.975h1.708v1.975h1.736
			V233.963z"/>
	</g>
	<g>
		<path d="M434.523,147.306h-1.735v2.226h-1.765v-2.226h-5.376v-1.26l4.83-6.314h1.946l-4.55,6.034h3.206v-1.974h1.708v1.974h1.735
			V147.306z"/>
		<path d="M437.492,147.629c0.215,0.215,0.322,0.495,0.322,0.84c0,0.149-0.021,0.306-0.063,0.469
			c-0.042,0.164-0.128,0.409-0.259,0.735l-0.714,1.974h-1.135l0.561-2.142c-0.205-0.084-0.366-0.217-0.483-0.399
			c-0.116-0.182-0.175-0.395-0.175-0.637c0-0.345,0.107-0.625,0.322-0.84s0.485-0.322,0.812-0.322
			C437.007,147.306,437.277,147.414,437.492,147.629z"/>
		<path d="M446.669,145.325c0.275,0.397,0.413,0.861,0.413,1.393c0,0.597-0.166,1.12-0.497,1.568
			c-0.332,0.448-0.801,0.791-1.407,1.029c-0.606,0.238-1.312,0.357-2.114,0.357s-1.505-0.119-2.106-0.357
			c-0.603-0.238-1.066-0.581-1.394-1.029c-0.326-0.448-0.49-0.971-0.49-1.568c0-0.532,0.136-0.996,0.406-1.393
			c0.271-0.396,0.658-0.711,1.162-0.945c-0.392-0.215-0.693-0.497-0.903-0.847s-0.314-0.753-0.314-1.211
			c0-0.551,0.151-1.031,0.455-1.442c0.303-0.411,0.729-0.728,1.281-0.952c0.55-0.224,1.185-0.336,1.903-0.336
			c0.729,0,1.367,0.112,1.918,0.336s0.98,0.542,1.288,0.952c0.309,0.411,0.462,0.891,0.462,1.442c0,0.458-0.107,0.859-0.321,1.204
			c-0.215,0.345-0.523,0.63-0.925,0.854C445.999,144.614,446.394,144.929,446.669,145.325z M444.66,147.824
			c0.392-0.28,0.588-0.667,0.588-1.162c0-0.485-0.196-0.868-0.588-1.148c-0.393-0.28-0.925-0.42-1.597-0.42s-1.199,0.14-1.582,0.42
			c-0.383,0.28-0.574,0.663-0.574,1.148c0,0.495,0.191,0.882,0.574,1.162s0.91,0.42,1.582,0.42S444.268,148.104,444.66,147.824z
			 M441.713,141.384c-0.332,0.243-0.497,0.583-0.497,1.022c0,0.42,0.165,0.754,0.497,1.001c0.331,0.248,0.781,0.371,1.351,0.371
			c0.579,0,1.036-0.124,1.372-0.371c0.336-0.247,0.504-0.581,0.504-1.001c0-0.438-0.17-0.779-0.511-1.022s-0.796-0.364-1.365-0.364
			S442.044,141.142,441.713,141.384z"/>
	</g>
	<g>
		<path d="M457.012,321.279h-1.735v2.226h-1.765v-2.226h-5.376v-1.261l4.83-6.313h1.946l-4.55,6.034h3.206v-1.975h1.708v1.975h1.735
			V321.279z"/>
		<path d="M459.98,321.6c0.215,0.215,0.322,0.495,0.322,0.84c0,0.149-0.021,0.307-0.063,0.47s-0.128,0.408-0.259,0.734l-0.714,1.975
			h-1.135l0.561-2.143c-0.205-0.084-0.366-0.217-0.483-0.398c-0.116-0.183-0.175-0.395-0.175-0.638c0-0.345,0.107-0.625,0.322-0.84
			c0.215-0.214,0.485-0.321,0.812-0.321C459.495,321.279,459.766,321.386,459.98,321.6z"/>
		<path d="M468.66,313.705v1.218l-3.808,8.582h-1.946l3.682-8.26h-3.85v1.666h-1.694v-3.206H468.66z"/>
	</g>
	<g>
		<path d="M346.229,321.965v1.54h-7.224v-1.218l3.892-3.696c0.438-0.42,0.735-0.786,0.89-1.099c0.153-0.313,0.23-0.623,0.23-0.932
			c0-0.457-0.154-0.807-0.462-1.05c-0.308-0.242-0.761-0.364-1.358-0.364c-0.998,0-1.764,0.341-2.296,1.022l-1.273-0.98
			c0.382-0.513,0.897-0.912,1.547-1.196c0.648-0.285,1.374-0.428,2.177-0.428c1.064,0,1.913,0.252,2.548,0.757
			c0.635,0.504,0.952,1.189,0.952,2.058c0,0.532-0.112,1.031-0.336,1.498s-0.653,0.999-1.288,1.596l-2.618,2.492H346.229z"/>
		<path d="M349.337,321.6c0.215,0.215,0.322,0.495,0.322,0.84c0,0.149-0.021,0.307-0.063,0.47s-0.128,0.408-0.259,0.734
			l-0.714,1.975h-1.135l0.561-2.143c-0.205-0.084-0.366-0.217-0.483-0.398c-0.116-0.183-0.175-0.395-0.175-0.638
			c0-0.345,0.107-0.625,0.322-0.84c0.215-0.214,0.485-0.321,0.812-0.321C348.852,321.279,349.122,321.386,349.337,321.6z"/>
		<path d="M358.017,313.705v1.218l-3.808,8.582h-1.946l3.682-8.26h-3.85v1.666H350.4v-3.206H358.017z"/>
	</g>
	<g>
		<path d="M388.043,257.74c0.514,0.247,0.915,0.6,1.204,1.057c0.289,0.458,0.435,0.985,0.435,1.582c0,0.635-0.159,1.192-0.477,1.673
			c-0.317,0.481-0.747,0.852-1.288,1.113c-0.541,0.261-1.147,0.392-1.819,0.392c-1.345,0-2.388-0.42-3.13-1.26
			c-0.741-0.84-1.112-2.044-1.112-3.612c0-1.101,0.2-2.041,0.602-2.82c0.401-0.779,0.964-1.372,1.688-1.778
			c0.723-0.406,1.561-0.609,2.513-0.609c0.504,0,0.978,0.055,1.421,0.161c0.443,0.107,0.828,0.264,1.155,0.47l-0.672,1.371
			c-0.485-0.316-1.106-0.476-1.862-0.476c-0.942,0-1.68,0.289-2.212,0.868c-0.532,0.579-0.798,1.414-0.798,2.506v0.014
			c0.289-0.336,0.658-0.59,1.105-0.763c0.448-0.173,0.952-0.259,1.513-0.259C386.951,257.369,387.53,257.493,388.043,257.74z
			 M387.386,261.673c0.354-0.303,0.531-0.707,0.531-1.211c0-0.513-0.177-0.919-0.531-1.218c-0.355-0.299-0.831-0.448-1.429-0.448
			c-0.588,0-1.066,0.159-1.435,0.477c-0.369,0.317-0.553,0.719-0.553,1.203c0,0.477,0.179,0.871,0.538,1.184
			s0.856,0.469,1.491,0.469C386.568,262.129,387.03,261.977,387.386,261.673z"/>
		<path d="M392.691,261.512c0.215,0.215,0.322,0.495,0.322,0.84c0,0.149-0.021,0.307-0.063,0.47s-0.128,0.408-0.259,0.734
			l-0.714,1.975h-1.135l0.561-2.143c-0.205-0.084-0.366-0.217-0.483-0.398c-0.116-0.183-0.175-0.395-0.175-0.638
			c0-0.345,0.107-0.625,0.322-0.84c0.215-0.214,0.485-0.321,0.812-0.321C392.206,261.191,392.477,261.298,392.691,261.512z"/>
		<path d="M401.428,261.877v1.54h-7.224v-1.218l3.892-3.696c0.438-0.42,0.735-0.786,0.89-1.099c0.153-0.313,0.23-0.623,0.23-0.932
			c0-0.457-0.154-0.807-0.462-1.05c-0.308-0.242-0.761-0.364-1.358-0.364c-0.998,0-1.764,0.341-2.296,1.022l-1.273-0.98
			c0.382-0.513,0.897-0.912,1.547-1.196c0.648-0.285,1.374-0.428,2.177-0.428c1.064,0,1.913,0.252,2.548,0.757
			c0.635,0.504,0.952,1.189,0.952,2.058c0,0.532-0.112,1.031-0.336,1.498s-0.653,0.999-1.288,1.596l-2.618,2.492H401.428z"/>
	</g>
</g>
<g>
</g>
<g>
</g>
<g>
</g>
<g>
</g>
<g>
</g>
<g>
</g>
</svg>
