<?xml version="1.0" encoding="utf-8"?>
<!-- Generator: Adobe Illustrator 23.0.2, SVG Export Plug-In . SVG Version: 6.00 Build 0)  -->
<svg version="1.1" id="plan" xmlns="http://www.w3.org/2000/svg" xmlns:xlink="http://www.w3.org/1999/xlink" x="0px" y="0px"
	 viewBox="0 0 510 380" enable-background="new 0 0 510 380" xml:space="preserve">
<g id="back">
	<rect x="6.273" y="4.083" fill="#FFFFFF" width="471.209" height="372.551"/>
</g>
<g id="walls">
	
		<rect x="129.36" y="4.083" fill="#828282" stroke="#000000" stroke-linecap="round" stroke-linejoin="round" stroke-miterlimit="10" width="315.236" height="16.443"/>
	<polygon fill="#828282" stroke="#000000" stroke-linecap="round" stroke-linejoin="round" stroke-miterlimit="10" points="
		14.26,189.654 14.26,202.809 109.629,202.809 109.629,189.654 18.488,189.654 	"/>
	
		<line fill="#828282" stroke="#000000" stroke-linecap="round" stroke-linejoin="round" stroke-miterlimit="10" x1="14.26" y1="104.62" x2="14.26" y2="131.869"/>
	
		<rect x="14.26" y="104.621" fill="#828282" stroke="#000000" stroke-linecap="round" stroke-linejoin="round" stroke-miterlimit="10" width="13.154" height="27.248"/>
	<polygon fill="#828282" stroke="#000000" stroke-linecap="round" stroke-linejoin="round" stroke-miterlimit="10" points="
		14.26,4.083 14.26,47.305 27.414,47.305 27.414,20.526 96.475,20.526 96.475,4.083 27.414,4.083 	"/>
	<polygon fill="#828282" stroke="#000000" stroke-linecap="round" stroke-linejoin="round" stroke-miterlimit="10" points="
		96.475,309.453 96.475,360.191 109.629,360.191 109.629,309.453 100.233,309.453 	"/>
	<polygon fill="#828282" stroke="#000000" stroke-linecap="round" stroke-linejoin="round" stroke-miterlimit="10" points="
		109.629,202.809 109.629,216.433 100.233,216.433 96.475,216.433 96.475,202.809 	"/>
	
		<rect x="339.831" y="20.526" fill="#C7C7C7" stroke="#000000" stroke-linecap="round" stroke-linejoin="round" stroke-miterlimit="10" width="5.168" height="108.524"/>
	
		<rect x="339.831" y="249.788" fill="#C7C7C7" stroke="#000000" stroke-linecap="round" stroke-linejoin="round" stroke-miterlimit="10" width="5.168" height="7.517"/>
	
		<line fill="#C7C7C7" stroke="#000000" stroke-linecap="round" stroke-linejoin="round" stroke-miterlimit="10" x1="339.831" y1="257.305" x2="344.998" y2="257.305"/>
	<polygon fill="#C7C7C7" stroke="#000000" stroke-linecap="round" stroke-linejoin="round" stroke-miterlimit="10" points="
		109.629,194.822 339.831,194.822 339.831,200.46 344.998,200.46 344.998,178.379 339.831,178.379 339.831,189.654 109.629,189.654 
			"/>
	
		<rect x="411.146" y="257.305" fill="#C7C7C7" stroke="#000000" stroke-linecap="round" stroke-linejoin="round" stroke-miterlimit="10" width="49.893" height="5.638"/>
	
		<rect x="400.905" y="118.245" fill="#C7C7C7" stroke="#000000" stroke-linecap="round" stroke-linejoin="round" stroke-miterlimit="10" width="60.134" height="5.638"/>
	<polyline fill="#828282" stroke="#000000" stroke-linecap="round" stroke-linejoin="round" stroke-miterlimit="10" points="
		450.234,376.634 450.234,365.829 309.864,365.829 309.864,360.191 124.193,360.191 124.193,376.634 450.234,376.634 	"/>
	
		<line fill="#828282" stroke="#000000" stroke-linecap="round" stroke-linejoin="round" stroke-miterlimit="10" x1="96.475" y1="370.997" x2="96.475" y2="360.191"/>
	
		<rect x="96.475" y="360.191" fill="#828282" stroke="#000000" stroke-linecap="round" stroke-linejoin="round" stroke-miterlimit="10" width="27.718" height="16.443"/>
	<polyline fill="#828282" stroke="#000000" stroke-linecap="round" stroke-linejoin="round" stroke-miterlimit="10" points="
		450.233,376.634 477.482,376.634 477.482,360.191 450.233,360.191 450.233,376.634 	"/>
	
		<rect x="461.039" y="36.969" fill="#828282" stroke="#000000" stroke-linecap="round" stroke-linejoin="round" stroke-miterlimit="10" width="16.443" height="131.544"/>
	
		<rect x="461.039" y="223.48" fill="#828282" stroke="#000000" stroke-linecap="round" stroke-linejoin="round" stroke-miterlimit="10" width="16.443" height="136.712"/>
	<polygon fill="#828282" stroke="#000000" stroke-linecap="round" stroke-linejoin="round" stroke-miterlimit="10" points="
		14.26,4.083 14.26,47.931 14.26,50.124 6.273,50.124 6.273,4.083 	"/>
	<polyline fill="#828282" stroke="#000000" stroke-linecap="round" stroke-linejoin="round" stroke-miterlimit="10" points="
		6.273,134.688 14.26,134.688 14.26,101.802 6.273,101.802 6.273,134.688 	"/>
	
		<rect x="6.273" y="370.997" fill="#828282" stroke="#000000" stroke-linecap="round" stroke-linejoin="round" stroke-miterlimit="10" width="7.987" height="5.638"/>
	<g>
		
			<line fill="none" stroke="#000000" stroke-width="0.5" stroke-linecap="round" stroke-linejoin="round" stroke-miterlimit="10" x1="25.535" y1="210.795" x2="25.535" y2="370.997"/>
		
			<line fill="none" stroke="#000000" stroke-width="0.5" stroke-linecap="round" stroke-linejoin="round" stroke-miterlimit="10" x1="6.273" y1="370.997" x2="6.273" y2="210.795"/>
		
			<rect x="16.609" y="213.614" fill="none" stroke="#000000" stroke-width="0.5" stroke-linecap="round" stroke-linejoin="round" stroke-miterlimit="10" width="1.409" height="155.034"/>
		
			<path fill="none" stroke="#000000" stroke-width="0.5" stroke-linecap="round" stroke-linejoin="round" stroke-miterlimit="10" d="
			M19.897,368.648V213.614 M14.26,368.648V213.614"/>
		
			<rect x="14.26" y="368.648" fill="none" stroke="#000000" stroke-width="0.5" stroke-linecap="round" stroke-linejoin="round" stroke-miterlimit="10" width="5.638" height="2.349"/>
		
			<rect x="14.26" y="210.795" fill="none" stroke="#000000" stroke-width="0.5" stroke-linecap="round" stroke-linejoin="round" stroke-miterlimit="10" width="5.638" height="2.819"/>
	</g>
	<g>
		
			<line fill="none" stroke="#000000" stroke-width="1.5" stroke-linecap="round" stroke-linejoin="round" stroke-miterlimit="10" x1="411.146" y1="257.305" x2="373.092" y2="235.225"/>
		
			<path fill="none" stroke="#000000" stroke-width="1.5" stroke-linecap="round" stroke-linejoin="round" stroke-miterlimit="10" d="
			M339.831,178.379l-24.899-42.282 M339.831,200.46l-24.899,42.752"/>
		
			<line fill="none" stroke="#000000" stroke-width="1.5" stroke-linecap="round" stroke-linejoin="round" stroke-miterlimit="10" x1="477.482" y1="223.48" x2="505.2" y2="176.03"/>
		
			<line fill="none" stroke="#000000" stroke-width="1.5" stroke-linecap="round" stroke-linejoin="round" stroke-miterlimit="10" x1="100.233" y1="221.6" x2="122.313" y2="259.654"/>
	</g>
	
		<line fill="none" stroke="#000000" stroke-linecap="round" stroke-linejoin="round" stroke-miterlimit="10" x1="96.474" y1="221.6" x2="100.233" y2="221.6"/>
	
		<line fill="none" stroke="#000000" stroke-linecap="round" stroke-linejoin="round" stroke-miterlimit="10" x1="100.233" y1="309.453" x2="96.475" y2="309.453"/>
	
		<rect x="96.475" y="4.083" fill="#828282" stroke="#000000" stroke-linecap="round" stroke-linejoin="round" stroke-miterlimit="10" width="32.886" height="32.886"/>
	
		<rect x="444.596" y="4.083" fill="#828282" stroke="#000000" stroke-linecap="round" stroke-linejoin="round" stroke-miterlimit="10" width="32.886" height="32.886"/>
	<g>
		
			<line fill="none" stroke="#000000" stroke-width="0.5" stroke-linecap="round" stroke-linejoin="round" stroke-miterlimit="10" x1="27.414" y1="131.869" x2="27.414" y2="189.654"/>
		
			<line fill="none" stroke="#000000" stroke-width="0.5" stroke-linecap="round" stroke-linejoin="round" stroke-miterlimit="10" x1="27.414" y1="47.305" x2="27.414" y2="104.62"/>
		
			<line fill="none" stroke="#000000" stroke-width="0.5" stroke-linecap="round" stroke-linejoin="round" stroke-miterlimit="10" x1="6.273" y1="101.802" x2="6.273" y2="50.124"/>
		
			<line fill="none" stroke="#000000" stroke-width="0.5" stroke-linecap="round" stroke-linejoin="round" stroke-miterlimit="10" x1="6.273" y1="186.835" x2="6.273" y2="134.688"/>
		
			<line fill="none" stroke="#000000" stroke-width="0.5" stroke-linecap="round" stroke-linejoin="round" stroke-miterlimit="10" x1="18.488" y1="47.305" x2="18.488" y2="104.62"/>
		
			<line fill="none" stroke="#000000" stroke-width="0.5" stroke-linecap="round" stroke-linejoin="round" stroke-miterlimit="10" x1="14.259" y1="101.802" x2="18.488" y2="101.802"/>
		
			<line fill="none" stroke="#000000" stroke-width="0.5" stroke-linecap="round" stroke-linejoin="round" stroke-miterlimit="10" x1="14.259" y1="50.124" x2="18.488" y2="50.124"/>
		
			<line fill="none" stroke="#000000" stroke-width="0.5" stroke-linecap="round" stroke-linejoin="round" stroke-miterlimit="10" x1="14.259" y1="52.473" x2="18.488" y2="52.473"/>
		
			<line fill="none" stroke="#000000" stroke-width="0.5" stroke-linecap="round" stroke-linejoin="round" stroke-miterlimit="10" x1="14.259" y1="98.983" x2="18.488" y2="98.983"/>
		
			<polyline fill="none" stroke="#000000" stroke-width="0.5" stroke-linecap="round" stroke-linejoin="round" stroke-miterlimit="10" points="
			14.26,47.305 14.26,104.62 18.488,104.62 		"/>
		
			<path fill="none" stroke="#000000" stroke-width="0.5" stroke-linecap="round" stroke-linejoin="round" stroke-miterlimit="10" d="
			M18.488,131.869v57.785 M14.259,186.835h4.228 M14.259,134.688h4.228 M14.259,137.506h4.228 M14.259,184.017h4.228 M14.259,47.305
			h4.228"/>
		
			<polyline fill="none" stroke="#000000" stroke-width="0.5" stroke-linecap="round" stroke-linejoin="round" stroke-miterlimit="10" points="
			14.26,131.869 14.26,189.654 18.488,189.654 		"/>
	</g>
	
		<line fill="none" stroke="#000000" stroke-linecap="round" stroke-linejoin="round" stroke-miterlimit="10" x1="14.259" y1="131.869" x2="18.488" y2="131.869"/>
	<polyline fill="#828282" stroke="#000000" stroke-linecap="round" stroke-linejoin="round" stroke-miterlimit="10" points="
		96.475,370.997 96.475,306.634 88.488,306.634 88.488,370.997 	"/>
	<polygon fill="#828282" stroke="#000000" stroke-linecap="round" stroke-linejoin="round" stroke-miterlimit="10" points="
		96.475,202.809 96.475,219.252 88.488,219.252 88.488,210.795 14.26,210.795 14.26,202.809 	"/>
	
		<rect x="6.273" y="186.835" fill="#828282" stroke="#000000" stroke-linecap="round" stroke-linejoin="round" stroke-miterlimit="10" width="7.987" height="23.96"/>
	
		<rect x="14.26" y="370.997" fill="#828282" stroke="#000000" stroke-linecap="round" stroke-linejoin="round" stroke-miterlimit="10" width="82.215" height="5.638"/>
	<g>
		
			<polyline fill="none" stroke="#000000" stroke-width="0.5" stroke-linecap="round" stroke-linejoin="round" stroke-miterlimit="10" points="
			109.629,309.453 109.629,268.111 100.233,268.111 		"/>
		
			<polyline fill="none" stroke="#000000" stroke-width="0.5" stroke-linecap="round" stroke-linejoin="round" stroke-miterlimit="10" points="
			88.488,306.634 88.488,268.111 96.475,268.111 		"/>
		
			<line fill="none" stroke="#000000" stroke-width="0.5" stroke-linecap="round" stroke-linejoin="round" stroke-miterlimit="10" x1="100.233" y1="265.762" x2="100.233" y2="309.453"/>
		
			<line fill="none" stroke="#000000" stroke-width="0.5" stroke-linecap="round" stroke-linejoin="round" stroke-miterlimit="10" x1="96.474" y1="219.252" x2="100.233" y2="219.252"/>
		
			<line fill="none" stroke="#000000" stroke-width="0.5" stroke-linecap="round" stroke-linejoin="round" stroke-miterlimit="10" x1="96.474" y1="306.634" x2="100.233" y2="306.634"/>
		
			<line fill="none" stroke="#000000" stroke-width="0.5" stroke-linecap="round" stroke-linejoin="round" stroke-miterlimit="10" x1="96.474" y1="303.815" x2="100.233" y2="303.815"/>
		
			<line fill="none" stroke="#000000" stroke-width="0.5" stroke-linecap="round" stroke-linejoin="round" stroke-miterlimit="10" x1="96.474" y1="270.929" x2="100.233" y2="270.929"/>
		
			<line fill="none" stroke="#000000" stroke-width="0.5" stroke-linecap="round" stroke-linejoin="round" stroke-miterlimit="10" x1="96.474" y1="268.111" x2="100.233" y2="268.111"/>
		
			<line fill="none" stroke="#000000" stroke-width="0.5" stroke-linecap="round" stroke-linejoin="round" stroke-miterlimit="10" x1="96.474" y1="265.762" x2="100.233" y2="265.762"/>
		
			<polyline fill="none" stroke="#000000" stroke-width="0.5" stroke-linecap="round" stroke-linejoin="round" stroke-miterlimit="10" points="
			96.475,309.453 96.475,265.762 100.233,265.762 		"/>
		
			<rect x="96.474" y="216.433" fill="none" stroke="#000000" stroke-width="0.5" stroke-linecap="round" stroke-linejoin="round" stroke-miterlimit="10" width="3.758" height="5.168"/>
	</g>
	<polygon fill="#C7C7C7" stroke="#000000" stroke-linecap="round" stroke-linejoin="round" stroke-miterlimit="10" points="
		450.234,365.829 450.234,361.131 315.502,361.131 315.502,262.943 367.455,262.943 367.455,257.305 344.998,257.305 
		353.831,257.305 309.864,257.305 309.864,365.829 	"/>
	<polygon fill="#C7C7C7" stroke="#000000" stroke-linecap="round" stroke-linejoin="round" stroke-miterlimit="10" points="
		287.706,360.191 287.706,311.567 309.864,311.567 309.864,317.613 293.353,317.613 293.353,360.191 	"/>
</g>
<g id="furniture">
	<g>
		<polygon fill="#F3F3F3" stroke="#595959" stroke-width="0.5" stroke-miterlimit="10" points="287.213,324.514 287.197,359.108 
			160.558,359.108 158.106,359.108 152,359.108 152,324.514 		"/>
	</g>
	<g>
		<path fill-rule="evenodd" clip-rule="evenodd" fill="#F3F3F3" stroke="#595959" stroke-width="0.5" stroke-miterlimit="10" d="
			M338.326,338.694c0-1.276-1.258-2.261-2.715-2.319c-1.391,0-2.584,1.044-2.584,2.319c0,1.276,1.193,2.203,2.584,2.203
			C337.135,340.898,338.326,339.97,338.326,338.694z"/>
		<path fill-rule="evenodd" clip-rule="evenodd" fill="#F3F3F3" stroke="#595959" stroke-width="0.5" stroke-miterlimit="10" d="
			M338.326,338.694c0-1.276-1.258-2.261-2.715-2.319c-1.391,0-2.584,1.044-2.584,2.319c0,1.276,1.193,2.203,2.584,2.203
			C337.135,340.898,338.326,339.97,338.326,338.694z"/>
		
			<polygon fill-rule="evenodd" clip-rule="evenodd" fill="#F3F3F3" stroke="#595959" stroke-width="0.5" stroke-miterlimit="10" points="
			354.665,359.896 316.689,359.896 316.689,264.749 354.665,264.749 354.665,359.896 		"/>
		<path fill-rule="evenodd" clip-rule="evenodd" fill="#F3F3F3" stroke="#595959" stroke-width="0.5" stroke-miterlimit="10" d="
			M319.841,346.268h31.67c0,0,0-65.466,0-65.802c0-9.263-5.578-10.815-12.394-10.815h-6.882c-6.817,0-12.395,1.552-12.395,10.815
			C319.841,280.803,319.841,346.268,319.841,346.268L319.841,346.268z"/>
		<path fill-rule="evenodd" clip-rule="evenodd" fill="#F3F3F3" stroke="#595959" stroke-width="0.5" stroke-miterlimit="10" d="
			M324.222,350.989c0-1.014,0.913-1.859,2.04-1.859c0.967,0,1.825,0.563,2.04,1.408h2.845c0.322,0,0.537,0.225,0.537,0.563
			c0,0.394-0.214,0.619-0.537,0.619h-2.953c-0.322,0.676-1.074,1.183-1.933,1.183C325.135,352.848,324.222,352.003,324.222,350.989
			L324.222,350.989z"/>
		
			<polyline fill-rule="evenodd" clip-rule="evenodd" fill="#F3F3F3" stroke="#595959" stroke-width="0.5" stroke-miterlimit="10" points="
			331.417,351.102 344.41,351.158 344.41,347.779 336.088,347.779 		"/>
		<path fill-rule="evenodd" clip-rule="evenodd" fill="#F3F3F3" stroke="#595959" stroke-width="0.5" stroke-miterlimit="10" d="
			M334.51,348.63v-6.81v-0.058h1.815v0.058v6.81c0,0.458-0.41,0.859-0.878,0.859C334.92,349.488,334.51,349.088,334.51,348.63z"/>
		<path fill-rule="evenodd" clip-rule="evenodd" fill="#F3F3F3" stroke="#595959" stroke-width="0.5" stroke-miterlimit="10" d="
			M334.51,348.63v-6.81v-0.058h1.815v0.058v6.81c0,0.458-0.41,0.859-0.878,0.859C334.92,349.488,334.51,349.088,334.51,348.63z"/>
	</g>
	<g>
		<path fill-rule="evenodd" clip-rule="evenodd" fill="#F3F3F3" stroke="#595959" stroke-width="0.5" stroke-miterlimit="10" d="
			M445.904,349.326c0.834-2.363,1.391-5.144,1.391-8.132c0-9.592-5.008-17.307-11.755-17.307c-6.676,0-11.754,7.715-11.754,17.307
			c0,2.92,0.557,5.7,1.461,8.132H445.904z"/>
		<path fill-rule="evenodd" clip-rule="evenodd" fill="#F3F3F3" stroke="#595959" stroke-width="0.5" stroke-miterlimit="10" d="
			M446.191,359.948v-6.069c0-1.411-1.114-2.54-2.437-2.54h-15.874c-1.323-0.071-2.437,1.059-2.437,2.54v6.069H446.191z"/>
		<path fill-rule="evenodd" clip-rule="evenodd" fill="#F3F3F3" stroke="#595959" stroke-width="0.5" stroke-miterlimit="10" d="
			M438.259,355.645c0,1.296-1.079,2.303-2.375,2.303s-2.303-1.08-2.303-2.303c0-1.367,1.08-2.375,2.303-2.375
			C437.251,353.27,438.259,354.278,438.259,355.645z"/>
		<path fill-rule="evenodd" clip-rule="evenodd" fill="#F3F3F3" stroke="#595959" stroke-width="0.5" stroke-miterlimit="10" d="
			M425.304,350.39v-1.064h20.6c0.08-0.227,0.144-0.474,0.218-0.708v1.772c0,0.574-0.487,1.005-0.905,1.005h-18.939
			C425.723,351.395,425.304,350.964,425.304,350.39z"/>
	</g>
	<g>
		
			<rect x="115.562" y="356.723" fill-rule="evenodd" clip-rule="evenodd" fill="#F3F3F3" stroke="#595959" stroke-width="0.5" stroke-miterlimit="10" width="30.487" height="2.158"/>
		
			<rect x="115.562" y="356.723" fill-rule="evenodd" clip-rule="evenodd" fill="#F3F3F3" stroke="#595959" stroke-width="0.5" stroke-miterlimit="10" width="30.487" height="2.158"/>
		
			<rect x="115.295" y="321.796" fill-rule="evenodd" clip-rule="evenodd" fill="#F3F3F3" stroke="#595959" stroke-width="0.5" stroke-miterlimit="10" width="10.023" height="2.958"/>
		
			<rect x="115.295" y="321.796" fill-rule="evenodd" clip-rule="evenodd" fill="#F3F3F3" stroke="#595959" stroke-width="0.5" stroke-miterlimit="10" width="10.023" height="2.958"/>
		
			<rect x="113.962" y="323.529" fill-rule="evenodd" clip-rule="evenodd" fill="#F3F3F3" stroke="#595959" stroke-width="0.5" stroke-miterlimit="10" width="33.486" height="33.42"/>
		
			<rect x="113.962" y="323.529" fill-rule="evenodd" clip-rule="evenodd" fill="#F3F3F3" stroke="#595959" stroke-width="0.5" stroke-miterlimit="10" width="33.486" height="33.42"/>
		<path fill-rule="evenodd" clip-rule="evenodd" fill="#F3F3F3" stroke="#595959" stroke-width="0.5" stroke-miterlimit="10" d="
			M147.448,326.528l-33.486,0L147.448,326.528z"/>
		<path fill-rule="evenodd" clip-rule="evenodd" fill="#F3F3F3" stroke="#595959" stroke-width="0.5" stroke-miterlimit="10" d="
			M149.048,326.646c0,0.653-0.584,1.307-1.312,1.307c-0.802,0-1.313-0.654-1.313-1.307c0-0.799,0.583-1.451,1.313-1.451
			C148.464,325.195,149.048,325.848,149.048,326.646z"/>
		<path fill-rule="evenodd" clip-rule="evenodd" fill="#F3F3F3" stroke="#595959" stroke-width="0.5" stroke-miterlimit="10" d="
			M149.048,326.646c0,0.653-0.584,1.307-1.312,1.307c-0.802,0-1.313-0.654-1.313-1.307c0-0.799,0.583-1.451,1.313-1.451
			C148.464,325.195,149.048,325.848,149.048,326.646z"/>
		<path fill-rule="evenodd" clip-rule="evenodd" fill="#F3F3F3" stroke="#595959" stroke-width="0.5" stroke-miterlimit="10" d="
			M130.525,343.75v-5.891V343.75z"/>
		<path fill-rule="evenodd" clip-rule="evenodd" fill="#F3F3F3" stroke="#595959" stroke-width="0.5" stroke-miterlimit="10" d="
			M133.384,340.866l-5.89,0L133.384,340.866z"/>
		<path fill-rule="evenodd" clip-rule="evenodd" fill="#F3F3F3" stroke="#595959" stroke-width="0.5" stroke-miterlimit="10" d="
			M132.584,338.66l-4.291,4.291L132.584,338.66z"/>
		<path fill-rule="evenodd" clip-rule="evenodd" fill="#F3F3F3" stroke="#595959" stroke-width="0.5" stroke-miterlimit="10" d="
			M128.36,338.66l4.29,4.29L128.36,338.66z"/>
		<path fill-rule="evenodd" clip-rule="evenodd" fill="#F3F3F3" stroke="#595959" stroke-width="0.5" stroke-miterlimit="10" d="
			M139.193,343.95v-5.89V343.95z"/>
		<path fill-rule="evenodd" clip-rule="evenodd" fill="#F3F3F3" stroke="#595959" stroke-width="0.5" stroke-miterlimit="10" d="
			M142.116,341.066h-5.89H142.116z"/>
		<path fill-rule="evenodd" clip-rule="evenodd" fill="#F3F3F3" stroke="#595959" stroke-width="0.5" stroke-miterlimit="10" d="
			M141.249,338.86l-4.291,4.291L141.249,338.86z"/>
		<path fill-rule="evenodd" clip-rule="evenodd" fill="#F3F3F3" stroke="#595959" stroke-width="0.5" stroke-miterlimit="10" d="
			M137.025,338.86l4.291,4.291L137.025,338.86z"/>
		<path fill-rule="evenodd" clip-rule="evenodd" fill="#F3F3F3" stroke="#595959" stroke-width="0.5" stroke-miterlimit="10" d="
			M122.056,343.75v-5.891V343.75z"/>
		<path fill-rule="evenodd" clip-rule="evenodd" fill="#F3F3F3" stroke="#595959" stroke-width="0.5" stroke-miterlimit="10" d="
			M124.919,340.866h-5.89H124.919z"/>
		<path fill-rule="evenodd" clip-rule="evenodd" fill="#F3F3F3" stroke="#595959" stroke-width="0.5" stroke-miterlimit="10" d="
			M124.119,338.66l-4.291,4.29L124.119,338.66z"/>
		<path fill-rule="evenodd" clip-rule="evenodd" fill="#F3F3F3" stroke="#595959" stroke-width="0.5" stroke-miterlimit="10" d="
			M119.894,338.66l4.291,4.29L119.894,338.66z"/>
	</g>
	<g>
		
			<rect x="173.763" y="180.079" fill-rule="evenodd" clip-rule="evenodd" fill="#F3F3F3" stroke="#595959" stroke-width="0.5" stroke-miterlimit="10" width="55.37" height="3.118"/>
		
			<polygon fill-rule="evenodd" clip-rule="evenodd" fill="#F3F3F3" stroke="#595959" stroke-width="0.5" stroke-miterlimit="10" points="
			224.436,183.053 215.537,185.62 187.415,185.62 178.515,183.053 		"/>
		
			<rect x="200.115" y="182.261" transform="matrix(4.546123e-11 1 -1 4.546123e-11 388.4555 -14.4954)" fill-rule="evenodd" clip-rule="evenodd" fill="#F3F3F3" stroke="#595959" stroke-width="0.5" stroke-miterlimit="10" width="2.721" height="9.438"/>
	</g>
	<g>
		<g>
			
				<rect x="149.219" y="33.578" transform="matrix(-1.836970e-16 1 -1 -1.836970e-16 275.5673 -127.3283)" fill-rule="evenodd" clip-rule="evenodd" fill="#F3F3F3" stroke="#595959" stroke-width="0.5" stroke-miterlimit="10" width="104.458" height="81.082"/>
			
				<rect x="152.808" y="36.063" transform="matrix(-1.836970e-16 1 -1 -1.836970e-16 276.2319 -126.7488)" fill-rule="evenodd" clip-rule="evenodd" fill="#F3F3F3" stroke="#595959" stroke-width="0.5" stroke-miterlimit="10" width="97.365" height="77.358"/>
			
				<rect x="169.146" y="24.529" transform="matrix(-1.836970e-16 1 -1 -1.836970e-16 219.6841 -140.5729)" fill-rule="evenodd" clip-rule="evenodd" fill="#F3F3F3" stroke="#595959" stroke-width="0.5" stroke-miterlimit="10" width="21.965" height="30.054"/>
			
				<rect x="211.646" y="24.529" transform="matrix(-1.836970e-16 1 -1 -1.836970e-16 262.1843 -183.0731)" fill-rule="evenodd" clip-rule="evenodd" fill="#F3F3F3" stroke="#595959" stroke-width="0.5" stroke-miterlimit="10" width="21.965" height="30.054"/>
			
				<polygon fill-rule="evenodd" clip-rule="evenodd" fill="#F3F3F3" stroke="#595959" stroke-width="0.5" stroke-miterlimit="10" points="
				162.811,61.75 185.889,48.313 217.091,48.313 185.889,48.313 217.091,48.313 240.169,61.75 240.169,123.424 240.084,123.424 
				162.811,123.424 			"/>
			
				<polyline fill-rule="evenodd" clip-rule="evenodd" fill="#F3F3F3" stroke="#595959" stroke-width="0.5" stroke-miterlimit="10" points="
				162.811,61.75 179.007,71.554 185.889,48.313 			"/>
			
				<line fill-rule="evenodd" clip-rule="evenodd" fill="#F3F3F3" stroke="#595959" stroke-width="0.5" stroke-miterlimit="10" x1="185.889" y1="48.313" x2="162.811" y2="61.75"/>
			
				<polyline fill-rule="evenodd" clip-rule="evenodd" fill="#F3F3F3" stroke="#595959" stroke-width="0.5" stroke-miterlimit="10" points="
				240.169,61.75 223.974,71.554 217.091,48.313 			"/>
			
				<line fill-rule="evenodd" clip-rule="evenodd" fill="#F3F3F3" stroke="#595959" stroke-width="0.5" stroke-miterlimit="10" x1="217.091" y1="48.313" x2="240.169" y2="61.75"/>
		</g>
		<g>
			
				<rect x="243.499" y="21.89" fill="#F3F3F3" stroke="#595959" stroke-width="0.5" stroke-miterlimit="10" width="28.537" height="20.733"/>
			
				<rect x="251.674" y="42.624" fill="#F3F3F3" stroke="#595959" stroke-width="0.5" stroke-miterlimit="10" width="11.965" height="1.351"/>
		</g>
		<g>
			
				<rect x="130.781" y="21.89" fill="#F3F3F3" stroke="#595959" stroke-width="0.5" stroke-miterlimit="10" width="28.537" height="20.733"/>
			
				<rect x="138.956" y="42.624" fill="#F3F3F3" stroke="#595959" stroke-width="0.5" stroke-miterlimit="10" width="11.965" height="1.351"/>
		</g>
	</g>
	<g>
		<path fill-rule="evenodd" clip-rule="evenodd" fill="#F3F3F3" stroke="#595959" stroke-width="0.5" stroke-miterlimit="10" d="
			M381.107,356.486v-1.033V356.486z"/>
		
			<line fill-rule="evenodd" clip-rule="evenodd" fill="#F3F3F3" stroke="#595959" stroke-width="0.5" stroke-miterlimit="10" x1="381.107" y1="356.486" x2="381.107" y2="355.453"/>
		<path fill-rule="evenodd" clip-rule="evenodd" fill="#F3F3F3" stroke="#595959" stroke-width="0.5" stroke-miterlimit="10" d="
			M380.317,348.887v0.061v6.747c0,0.487,0.425,0.852,0.851,0.852c0.487,0,0.851-0.365,0.851-0.852v-6.747v-0.061H380.317z"/>
		
			<rect x="365.728" y="355.391" fill-rule="evenodd" clip-rule="evenodd" fill="#F3F3F3" stroke="#595959" stroke-width="0.5" stroke-miterlimit="10" width="30.82" height="4.438"/>
		<path fill-rule="evenodd" clip-rule="evenodd" fill="#F3F3F3" stroke="#595959" stroke-width="0.5" stroke-miterlimit="10" d="
			M396.486,356.486h-30.698H396.486z"/>
		<path fill-rule="evenodd" clip-rule="evenodd" fill="#F3F3F3" stroke="#595959" stroke-width="0.5" stroke-miterlimit="10" d="
			M396.547,355.391v-15.501c0-0.79-0.547-1.459-1.338-1.459h-28.205c-0.668,0-1.276,0.668-1.276,1.459v15.501H396.547z"/>
		<path fill-rule="evenodd" clip-rule="evenodd" fill="#F3F3F3" stroke="#595959" stroke-width="0.5" stroke-miterlimit="10" d="
			M381.046,352.899c5.714,0,10.394-2.918,10.456-6.504c0.061-3.647-4.438-6.565-10.213-6.626c-5.714,0-10.395,2.857-10.455,6.504
			C370.773,349.86,375.393,352.839,381.046,352.899z"/>
		<path fill-rule="evenodd" clip-rule="evenodd" fill="#F3F3F3" stroke="#595959" stroke-width="0.5" stroke-miterlimit="10" d="
			M382.87,346.213c0-0.973-0.79-1.763-1.763-1.763c-0.911,0-1.641,0.79-1.641,1.763c0,0.973,0.73,1.702,1.641,1.702
			C382.08,347.854,382.87,347.125,382.87,346.213z"/>
		<path fill-rule="evenodd" clip-rule="evenodd" fill="#F3F3F3" stroke="#595959" stroke-width="0.5" stroke-miterlimit="10" d="
			M380.317,348.887v0.061v6.747c0,0.487,0.425,0.852,0.851,0.852c0.487,0,0.851-0.365,0.851-0.852v-6.747v-0.061H380.317z"/>
	</g>
	<g>
		
			<rect x="274.244" y="53.045" transform="matrix(-4.488670e-11 -1 1 -4.488670e-11 252.6179 391.8322)" fill-rule="evenodd" clip-rule="evenodd" fill="#F3F3F3" stroke="#595959" stroke-width="0.5" stroke-miterlimit="10" width="95.962" height="33.124"/>
		
			<line fill="#F3F3F3" stroke="#595959" stroke-width="0.5" stroke-miterlimit="10" x1="305.663" y1="114.115" x2="338.844" y2="114.115"/>
		
			<line fill="#F3F3F3" stroke="#595959" stroke-width="0.5" stroke-miterlimit="10" x1="305.663" y1="25.202" x2="338.787" y2="25.202"/>
		
			<line fill="#F3F3F3" stroke="#595959" stroke-width="0.5" stroke-miterlimit="10" x1="337.258" y1="114.115" x2="337.258" y2="25.202"/>
		
			<line fill="#F3F3F3" stroke="#595959" stroke-width="0.5" stroke-miterlimit="10" x1="321.987" y1="28.3" x2="321.987" y2="111.02"/>
		
			<rect x="321.122" y="96.625" transform="matrix(0.162 -0.9868 0.9868 0.162 164.6658 407.3438)" fill="#F3F3F3" stroke="#595959" stroke-width="0.5" stroke-miterlimit="10" width="2.075" height="20.197"/>
		
			<rect x="321.122" y="89.191" transform="matrix(0.0882 -0.9961 0.9961 0.0882 194.8571 411.4423)" fill="#F3F3F3" stroke="#595959" stroke-width="0.5" stroke-miterlimit="10" width="2.075" height="20.197"/>
		
			<rect x="320.949" y="81.664" transform="matrix(0.229 -0.9734 0.9734 0.229 158.927 384.1797)" fill="#F3F3F3" stroke="#595959" stroke-width="0.5" stroke-miterlimit="10" width="2.075" height="20.197"/>
		
			<rect x="321.175" y="73.266" transform="matrix(0.152 -0.9884 0.9884 0.152 190.8275 389.1558)" fill="#F3F3F3" stroke="#595959" stroke-width="0.5" stroke-miterlimit="10" width="2.075" height="20.197"/>
		
			<rect x="321.062" y="65.941" transform="matrix(0.0451 -0.999 0.999 0.0451 231.6072 394.3808)" fill="#F3F3F3" stroke="#595959" stroke-width="0.5" stroke-miterlimit="10" width="2.075" height="20.197"/>
		
			<rect x="321.062" y="58.526" transform="matrix(0.152 -0.9884 0.9884 0.152 205.3009 376.5453)" fill="#F3F3F3" stroke="#595959" stroke-width="0.5" stroke-miterlimit="10" width="2.075" height="20.197"/>
		
			<rect x="320.949" y="50.996" transform="matrix(0.0451 -0.999 0.999 0.0451 246.4296 379.9973)" fill="#F3F3F3" stroke="#595959" stroke-width="0.5" stroke-miterlimit="10" width="2.075" height="20.197"/>
		
			<rect x="320.949" y="43.613" transform="matrix(0.2052 -0.9787 0.9787 0.2052 203.3577 357.8289)" fill="#F3F3F3" stroke="#595959" stroke-width="0.5" stroke-miterlimit="10" width="2.075" height="20.197"/>
		
			<rect x="320.971" y="36.23" transform="matrix(0.152 -0.9884 0.9884 0.152 227.26 357.5488)" fill="#F3F3F3" stroke="#595959" stroke-width="0.5" stroke-miterlimit="10" width="2.075" height="20.197"/>
		
			<rect x="320.949" y="28.847" transform="matrix(0.0847 -0.9964 0.9964 0.0847 255.8973 356.4738)" fill="#F3F3F3" stroke="#595959" stroke-width="0.5" stroke-miterlimit="10" width="2.075" height="20.197"/>
		
			<rect x="321.196" y="21.464" transform="matrix(0.2379 -0.9713 0.9713 0.2379 214.9115 337.033)" fill="#F3F3F3" stroke="#595959" stroke-width="0.5" stroke-miterlimit="10" width="2.075" height="20.197"/>
	</g>
	<path fill-rule="evenodd" clip-rule="evenodd" fill="#F3F3F3" stroke="#595959" stroke-width="0.5" stroke-miterlimit="10" d="
		M229.353,329.38h28.662c1.282,0,2.29,1.31,2.29,2.919v21.685c0,1.608-1.008,2.919-2.29,2.919h-28.662
		c-1.191,0-2.244-1.311-2.244-2.919v-21.685C227.11,330.691,228.163,329.38,229.353,329.38L229.353,329.38z M245.343,341.15
		c0,0.715-0.568,1.251-1.326,1.251c-0.757,0-1.389-0.536-1.389-1.251c0-0.714,0.632-1.311,1.389-1.311
		C244.775,339.839,245.343,340.435,245.343,341.15z M231.453,331.393h24.47c1.094,0,1.955,0.969,1.955,2.159v16.037
		c0,1.189-0.86,2.159-1.955,2.159h-24.47c-1.017,0-1.915-0.969-1.915-2.159v-16.037
		C229.538,332.362,230.436,331.393,231.453,331.393L231.453,331.393z M244.938,346.838v6.906h-2.182v-6.906H244.938z"/>
	<g>
		
			<rect x="172.744" y="324.514" fill-rule="evenodd" clip-rule="evenodd" fill="#F3F3F3" stroke="#595959" stroke-width="0.5" stroke-miterlimit="10" width="34.462" height="34.592"/>
		
			<rect x="172.744" y="324.514" fill-rule="evenodd" clip-rule="evenodd" fill="#F3F3F3" stroke="#595959" stroke-width="0.5" stroke-miterlimit="10" width="34.462" height="34.592"/>
		<path fill-rule="evenodd" clip-rule="evenodd" fill="#F3F3F3" stroke="#595959" stroke-width="0.5" stroke-miterlimit="10" d="
			M188.262,350.924c0-3.315-2.652-6.034-6.034-6.034c-3.315,0-6.034,2.719-6.034,6.034c0,3.315,2.719,6.034,6.034,6.034
			C185.676,357.025,188.262,354.239,188.262,350.924z"/>
		<path fill-rule="evenodd" clip-rule="evenodd" fill="#F3F3F3" stroke="#595959" stroke-width="0.5" stroke-miterlimit="10" d="
			M188.262,350.924c0-3.315-2.652-6.034-6.034-6.034c-3.315,0-6.034,2.719-6.034,6.034c0,3.315,2.719,6.034,6.034,6.034
			C185.676,357.025,188.262,354.239,188.262,350.924z"/>
		<path fill-rule="evenodd" clip-rule="evenodd" fill="#F3F3F3" stroke="#595959" stroke-width="0.5" stroke-miterlimit="10" d="
			M186.439,350.923c0-2.273-1.872-4.144-4.212-4.144c-2.273,0-4.144,1.871-4.144,4.144c0,2.34,1.871,4.212,4.144,4.212
			C184.635,355.202,186.439,353.329,186.439,350.923z"/>
		<path fill-rule="evenodd" clip-rule="evenodd" fill="#F3F3F3" stroke="#595959" stroke-width="0.5" stroke-miterlimit="10" d="
			M186.439,350.923c0-2.273-1.872-4.144-4.212-4.144c-2.273,0-4.144,1.871-4.144,4.144c0,2.34,1.871,4.212,4.144,4.212
			C184.635,355.202,186.439,353.329,186.439,350.923z"/>
		<path fill-rule="evenodd" clip-rule="evenodd" fill="#F3F3F3" stroke="#595959" stroke-width="0.5" stroke-miterlimit="10" d="
			M203.431,350.924c0-3.315-2.652-6.034-6.034-6.034c-3.315,0-6.034,2.719-6.034,6.034c0,3.315,2.719,6.034,6.034,6.034
			C200.779,357.025,203.431,354.239,203.431,350.924z"/>
		<path fill-rule="evenodd" clip-rule="evenodd" fill="#F3F3F3" stroke="#595959" stroke-width="0.5" stroke-miterlimit="10" d="
			M203.431,350.924c0-3.315-2.652-6.034-6.034-6.034c-3.315,0-6.034,2.719-6.034,6.034c0,3.315,2.719,6.034,6.034,6.034
			C200.779,357.025,203.431,354.239,203.431,350.924z"/>
		<path fill-rule="evenodd" clip-rule="evenodd" fill="#F3F3F3" stroke="#595959" stroke-width="0.5" stroke-miterlimit="10" d="
			M201.543,350.923c0-2.273-1.872-4.144-4.145-4.144c-2.274,0-4.146,1.871-4.146,4.144c0,2.34,1.872,4.212,4.146,4.212
			C199.67,355.202,201.543,353.329,201.543,350.923z"/>
		<path fill-rule="evenodd" clip-rule="evenodd" fill="#F3F3F3" stroke="#595959" stroke-width="0.5" stroke-miterlimit="10" d="
			M201.543,350.923c0-2.273-1.872-4.144-4.145-4.144c-2.274,0-4.146,1.871-4.146,4.144c0,2.34,1.872,4.212,4.146,4.212
			C199.67,355.202,201.543,353.329,201.543,350.923z"/>
		<path fill-rule="evenodd" clip-rule="evenodd" fill="#F3F3F3" stroke="#595959" stroke-width="0.5" stroke-miterlimit="10" d="
			M203.431,337.123c0-3.315-2.652-6.034-6.034-6.034c-3.315,0-6.034,2.719-6.034,6.034c0,3.315,2.719,6.034,6.034,6.034
			C200.779,343.156,203.431,340.438,203.431,337.123z"/>
		<path fill-rule="evenodd" clip-rule="evenodd" fill="#F3F3F3" stroke="#595959" stroke-width="0.5" stroke-miterlimit="10" d="
			M203.431,337.123c0-3.315-2.652-6.034-6.034-6.034c-3.315,0-6.034,2.719-6.034,6.034c0,3.315,2.719,6.034,6.034,6.034
			C200.779,343.156,203.431,340.438,203.431,337.123z"/>
		<path fill-rule="evenodd" clip-rule="evenodd" fill="#F3F3F3" stroke="#595959" stroke-width="0.5" stroke-miterlimit="10" d="
			M182.729,327.745c0-0.505-0.505-1.082-1.154-1.082c-0.506,0-1.084,0.505-1.084,1.082c0,0.65,0.506,1.154,1.084,1.154
			C182.224,328.899,182.729,328.322,182.729,327.745z"/>
		<path fill-rule="evenodd" clip-rule="evenodd" fill="#F3F3F3" stroke="#595959" stroke-width="0.5" stroke-miterlimit="10" d="
			M182.729,327.745c0-0.505-0.505-1.082-1.154-1.082c-0.506,0-1.084,0.505-1.084,1.082c0,0.65,0.506,1.154,1.084,1.154
			C182.224,328.899,182.729,328.322,182.729,327.745z"/>
		<path fill-rule="evenodd" clip-rule="evenodd" fill="#F3F3F3" stroke="#595959" stroke-width="0.5" stroke-miterlimit="10" d="
			M187.221,327.745c0-0.505-0.434-1.082-1.087-1.082c-0.652,0-1.085,0.505-1.085,1.082c0,0.65,0.434,1.154,1.085,1.154
			C186.786,328.899,187.221,328.322,187.221,327.745z"/>
		<path fill-rule="evenodd" clip-rule="evenodd" fill="#F3F3F3" stroke="#595959" stroke-width="0.5" stroke-miterlimit="10" d="
			M187.221,327.745c0-0.505-0.434-1.082-1.087-1.082c-0.652,0-1.085,0.505-1.085,1.082c0,0.65,0.434,1.154,1.085,1.154
			C186.786,328.899,187.221,328.322,187.221,327.745z"/>
		<path fill-rule="evenodd" clip-rule="evenodd" fill="#F3F3F3" stroke="#595959" stroke-width="0.5" stroke-miterlimit="10" d="
			M191.843,327.745c0-0.505-0.505-1.082-1.155-1.082c-0.505,0-1.083,0.505-1.083,1.082c0,0.65,0.506,1.154,1.083,1.154
			C191.338,328.899,191.843,328.322,191.843,327.745z"/>
		<path fill-rule="evenodd" clip-rule="evenodd" fill="#F3F3F3" stroke="#595959" stroke-width="0.5" stroke-miterlimit="10" d="
			M191.843,327.745c0-0.505-0.505-1.082-1.155-1.082c-0.505,0-1.083,0.505-1.083,1.082c0,0.65,0.506,1.154,1.083,1.154
			C191.338,328.899,191.843,328.322,191.843,327.745z"/>
		<path fill-rule="evenodd" clip-rule="evenodd" fill="#F3F3F3" stroke="#595959" stroke-width="0.5" stroke-miterlimit="10" d="
			M186.915,337.123c0-2.575-2.06-4.687-4.687-4.687c-2.575,0-4.686,2.112-4.686,4.687c0,2.575,2.111,4.687,4.686,4.687
			C184.906,341.809,186.915,339.698,186.915,337.123z"/>
		<path fill-rule="evenodd" clip-rule="evenodd" fill="#F3F3F3" stroke="#595959" stroke-width="0.5" stroke-miterlimit="10" d="
			M186.915,337.123c0-2.575-2.06-4.687-4.687-4.687c-2.575,0-4.686,2.112-4.686,4.687c0,2.575,2.111,4.687,4.686,4.687
			C184.906,341.809,186.915,339.698,186.915,337.123z"/>
		<path fill-rule="evenodd" clip-rule="evenodd" fill="#F3F3F3" stroke="#595959" stroke-width="0.5" stroke-miterlimit="10" d="
			M185.607,337.122c0-1.769-1.457-3.227-3.228-3.227c-1.822,0-3.279,1.458-3.279,3.227c0,1.769,1.457,3.279,3.279,3.279
			C184.15,340.401,185.607,338.891,185.607,337.122z"/>
		<path fill-rule="evenodd" clip-rule="evenodd" fill="#F3F3F3" stroke="#595959" stroke-width="0.5" stroke-miterlimit="10" d="
			M185.607,337.122c0-1.769-1.457-3.227-3.228-3.227c-1.822,0-3.279,1.458-3.279,3.227c0,1.769,1.457,3.279,3.279,3.279
			C184.15,340.401,185.607,338.891,185.607,337.122z"/>
	</g>
	<g>
		<path fill="#F3F3F3" stroke="#595959" stroke-width="0.5" stroke-miterlimit="10" d="M414.209,229.535V256.3h45.851v-26.766
			H414.209z"/>
		
			<rect x="452.375" y="253.706" transform="matrix(-5.455253e-13 1 -1 -5.455253e-13 708.6758 -199.4095)" fill="#F3F3F3" stroke="#595959" stroke-width="0.5" stroke-miterlimit="10" width="3.335" height="1.854"/>
		
			<rect x="441.04" y="253.706" transform="matrix(-5.455253e-13 1 -1 -5.455253e-13 697.3405 -188.0741)" fill="#F3F3F3" stroke="#595959" stroke-width="0.5" stroke-miterlimit="10" width="3.335" height="1.854"/>
		
			<rect x="429.82" y="253.706" transform="matrix(-1.836970e-16 1 -1 -1.836970e-16 686.121 -176.8547)" fill="#F3F3F3" stroke="#595959" stroke-width="0.5" stroke-miterlimit="10" width="3.335" height="1.854"/>
		
			<rect x="418.485" y="253.706" transform="matrix(-5.455253e-13 1 -1 -5.455253e-13 674.7856 -165.5193)" fill="#F3F3F3" stroke="#595959" stroke-width="0.5" stroke-miterlimit="10" width="3.335" height="1.854"/>
		
			<rect x="453.765" y="253.788" transform="matrix(-1.836970e-16 1 -1 -1.836970e-16 710.079 -198.0063)" fill="#F3F3F3" stroke="#595959" stroke-width="0.5" stroke-miterlimit="10" width="0.556" height="4.497"/>
		
			<rect x="442.476" y="253.788" transform="matrix(-1.836970e-16 1 -1 -1.836970e-16 698.79 -186.7173)" fill="#F3F3F3" stroke="#595959" stroke-width="0.5" stroke-miterlimit="10" width="0.556" height="4.497"/>
		
			<rect x="431.21" y="253.788" transform="matrix(-1.836970e-16 1 -1 -1.836970e-16 687.5242 -175.4515)" fill="#F3F3F3" stroke="#595959" stroke-width="0.5" stroke-miterlimit="10" width="0.556" height="4.497"/>
		
			<rect x="419.874" y="253.788" transform="matrix(-1.836970e-16 1 -1 -1.836970e-16 676.1888 -164.1161)" fill="#F3F3F3" stroke="#595959" stroke-width="0.5" stroke-miterlimit="10" width="0.556" height="4.497"/>
	</g>
	<g>
		<g>
			<path fill="#F3F3F3" stroke="#595959" stroke-width="0.5" stroke-miterlimit="10" d="M201.442,253.623
				c-6.94,0-12.556,2.077-12.556,4.654c0,2.565,5.617,4.654,12.556,4.654s12.568-2.089,12.568-4.654
				C214.01,255.7,208.382,253.623,201.442,253.623z"/>
			<path fill="#F3F3F3" stroke="#595959" stroke-width="0.5" stroke-miterlimit="10" d="M201.442,232.607
				c-6.94,0-12.556,5.628-12.556,12.568s5.617,12.568,12.556,12.568s12.568-5.628,12.568-12.568S208.382,232.607,201.442,232.607z"
				/>
		</g>
		<g>
			<path fill="#F3F3F3" stroke="#595959" stroke-width="0.5" stroke-miterlimit="10" d="M171.729,221.441
				c0-6.94-2.077-12.556-4.654-12.556c-2.565,0-4.654,5.617-4.654,12.556s2.089,12.568,4.654,12.568
				C169.652,234.009,171.729,228.38,171.729,221.441z"/>
			<path fill="#F3F3F3" stroke="#595959" stroke-width="0.5" stroke-miterlimit="10" d="M192.745,221.441
				c0-6.94-5.628-12.556-12.568-12.556s-12.568,5.617-12.568,12.556s5.628,12.568,12.568,12.568S192.745,228.38,192.745,221.441z"/>
		</g>
		<g>
			<path fill="#F3F3F3" stroke="#595959" stroke-width="0.5" stroke-miterlimit="10" d="M231.167,221.441
				c0,6.951,2.077,12.568,4.653,12.568c2.565,0,4.654-5.617,4.654-12.568c0-6.94-2.089-12.556-4.654-12.556
				C233.244,208.884,231.167,214.501,231.167,221.441z"/>
			<path fill="#F3F3F3" stroke="#595959" stroke-width="0.5" stroke-miterlimit="10" d="M210.15,221.441
				c0,6.951,5.628,12.568,12.568,12.568s12.568-5.617,12.568-12.568c0-6.94-5.628-12.556-12.568-12.556
				S210.15,214.501,210.15,221.441z"/>
		</g>
		
			<rect x="176.141" y="196.14" transform="matrix(-4.488759e-11 -1 1 -4.488759e-11 -19.9988 422.8944)" fill="#F3F3F3" stroke="#595959" stroke-width="0.5" stroke-miterlimit="10" width="50.613" height="50.613"/>
	</g>
	<g>
		
			<rect x="427.8" y="264.049" fill-rule="evenodd" clip-rule="evenodd" fill="#F3F3F3" stroke="#595959" stroke-width="0.5" stroke-miterlimit="10" width="31.701" height="31.64"/>
		<path fill-rule="evenodd" clip-rule="evenodd" fill="#F3F3F3" stroke="#595959" stroke-width="0.5" stroke-miterlimit="10" d="
			M456.199,268.344c0,1.072-0.882,1.954-1.952,1.954c-1.133,0-2.015-0.882-2.015-1.954c0-1.071,0.882-1.954,2.015-1.954
			C455.317,266.39,456.199,267.273,456.199,268.344z"/>
		<path fill-rule="evenodd" clip-rule="evenodd" fill="#F3F3F3" stroke="#595959" stroke-width="0.5" stroke-miterlimit="10" d="
			M456.199,268.379c0-1.052-0.847-1.919-1.874-1.919c-1.088,0-1.935,0.867-1.935,1.919c0,1.052,0.847,1.919,1.935,1.919
			C455.352,270.298,456.199,269.431,456.199,268.379L456.199,268.379z M442.172,264.109v3.218c0,0.743-0.666,1.299-1.391,1.299
			h-8.949c-0.725,0-1.391-0.557-1.391-1.299v-3.218H442.172z"/>
		<path fill-rule="evenodd" clip-rule="evenodd" fill="#F3F3F3" stroke="#595959" stroke-width="0.5" stroke-miterlimit="10" d="
			M452.297,280.71c0,4.733-3.823,8.617-8.617,8.617c-4.734,0-8.557-3.884-8.557-8.617c0-4.733,3.823-8.617,8.557-8.617
			C448.535,272.093,452.297,275.976,452.297,280.71z"/>
		<path fill-rule="evenodd" clip-rule="evenodd" fill="#F3F3F3" stroke="#595959" stroke-width="0.5" stroke-miterlimit="10" d="
			M452.297,280.71c0,4.733-3.823,8.617-8.617,8.617c-4.734,0-8.557-3.884-8.557-8.617c0-4.733,3.823-8.617,8.557-8.617
			C448.535,272.093,452.297,275.976,452.297,280.71z"/>
		<path fill-rule="evenodd" clip-rule="evenodd" fill="#F3F3F3" stroke="#595959" stroke-width="0.5" stroke-miterlimit="10" d="
			M450.016,280.71c0,3.533-2.802,6.335-6.335,6.335c-3.473,0-6.336-2.802-6.336-6.335c0-3.472,2.924-6.335,6.336-6.335
			C447.214,274.374,450.016,277.237,450.016,280.71z"/>
		<path fill-rule="evenodd" clip-rule="evenodd" fill="#F3F3F3" stroke="#595959" stroke-width="0.5" stroke-miterlimit="10" d="
			M450.016,280.71c0,3.533-2.802,6.335-6.335,6.335c-3.473,0-6.336-2.802-6.336-6.335c0-3.472,2.924-6.335,6.336-6.335
			C447.214,274.374,450.016,277.237,450.016,280.71z"/>
	</g>
	<g>
		<path fill="#F3F3F3" stroke="#595959" stroke-width="0.5" stroke-miterlimit="10" d="M49.252,337.194
			c1.723,0.521,2.878,1.639,3.105,1.599c0.817-0.145-1.126-1.389,0.179-5.077c0.979-2.769,1.756-6.754,1.756-6.754
			s2.875,3.083,4.255,5.741c1.587,3.056,0.042,6.092,0.294,6.225c0.333,0.175,1.176-2.073,3.826-2.612
			c3.242-0.659,7.699,2.431,7.699,2.431s-3.373,0.067-5.673,2.381c-2.202,2.215-4.64,1.791-4.501,2.257
			c0.084,0.282,2.736,1.059,4.704,2.454c1.736,1.23,2.786,4.711,2.786,4.711s-1.672-1.469-6.18-1.064
			c-4.081,0.367-4.984-4.401-5.251-4.356c-0.385,0.065,0.49,2.381-0.662,5.673c-1.074,3.069-5.582,6.213-5.582,6.213
			s-0.628-4.647-0.763-6.693c-0.261-3.967,2.55-5.941,2.144-6.544c-0.307-0.456-3.177,1.076-5.84-0.776
			c-1.555-1.082-5.979-2.939-5.979-2.939s4.332-2.434,6.737-2.989C47.398,336.824,48.395,336.935,49.252,337.194"/>
		<path fill="#F3F3F3" stroke="#595959" stroke-width="0.5" stroke-miterlimit="10" d="M52.072,336.164
			c0.003-0.206,0.012-0.529,0.045-0.926c0.043-0.529,0.091-0.708,0.094-1.044c0.003-0.272-0.029-0.593-0.131-1.145
			c-0.293-1.583-1.977-2.501-2.629-2.929c-0.526-0.346-2.747-1.616-2.747-1.616s-1.333,3.418-0.841,5.802
			c0.449,1.313,3.391,2.889,3.391,2.889l3.347,1.78L52.072,336.164z"/>
		<path fill="#F3F3F3" stroke="#595959" stroke-width="0.5" stroke-miterlimit="10" d="M60.942,337.012c0,0,1.929-1.145,2.939-2.519
			c1.636-2.227,1.691-4.594,1.672-5.42c0,0-3.851,0.072-5.243,2.33c-0.943,1.531-1.017,3.047-1.038,3.579
			c-0.008,0.192-0.025,0.377-0.055,0.567l-0.681,3.637L60.942,337.012z"/>
		<path fill="#F3F3F3" stroke="#595959" stroke-width="0.5" stroke-miterlimit="10" d="M62.912,344.691c0,0,2.383,1.263,3.098,1.452
			c0.828,0.219,1.305,0.221,1.548,0.207c0.909-0.05,1.548-0.401,1.967-0.53c0.504-0.155,2.842-0.59,2.842-0.59
			s-2.284-2.83-4.654-3.699c-2.464-0.563-3.356,0.12-4.062,0.457c-0.205,0.098-0.412,0.178-0.631,0.24l-3.379,0.899L62.912,344.691z
			"/>
		<path fill="#F3F3F3" stroke="#595959" stroke-width="0.5" stroke-miterlimit="10" d="M56.113,348.901c0,0-0.23,2.941,0.253,3.863
			c0.181,0.346,0.405,1.385,2.197,2.048c1.729,0.64,2.764,1.856,2.764,1.856s0.602-2.403,0.135-3.942
			c-0.214-0.706-0.355-1.094-0.681-1.762c-0.369-0.756-1.443-1.491-2.226-2.123c-0.82-0.662-1.378-1.704-1.378-1.704l-0.92-2.186
			L56.113,348.901z"/>
		<path fill="#F3F3F3" stroke="#595959" stroke-width="0.5" stroke-miterlimit="10" d="M48.423,343.668c0,0-2.135-0.023-3.638,0.507
			c-1.078,0.381-1.588,1.328-2.702,2.91c-0.351,0.498-1.621,2.594-1.621,2.594s3.872,1.044,6.484,0.473
			c1.985-0.435,3.12-3.316,3.12-3.316l1.643-3.285L48.423,343.668z"/>
	</g>
	<g>
		
			<rect x="346.416" y="21.662" transform="matrix(-1 4.489108e-11 -4.489108e-11 -1 789.7164 76.766)" fill-rule="evenodd" clip-rule="evenodd" fill="#F3F3F3" stroke="#595959" stroke-width="0.5" stroke-miterlimit="10" width="96.884" height="33.442"/>
		
			<line fill="#F3F3F3" stroke="#595959" stroke-width="0.5" stroke-miterlimit="10" x1="439.794" y1="55.104" x2="439.794" y2="21.604"/>
		
			<line fill="#F3F3F3" stroke="#595959" stroke-width="0.5" stroke-miterlimit="10" x1="350.026" y1="55.104" x2="350.026" y2="21.662"/>
		
			<line fill="#F3F3F3" stroke="#595959" stroke-width="0.5" stroke-miterlimit="10" x1="439.794" y1="23.205" x2="350.026" y2="23.205"/>
		
			<line fill="#F3F3F3" stroke="#595959" stroke-width="0.5" stroke-miterlimit="10" x1="353.154" y1="38.623" x2="436.669" y2="38.623"/>
		
			<rect x="431.284" y="28.254" transform="matrix(-0.9868 -0.162 0.162 -0.9868 852.7269 146.414)" fill="#F3F3F3" stroke="#595959" stroke-width="0.5" stroke-miterlimit="10" width="2.095" height="20.391"/>
		
			<rect x="423.778" y="28.254" transform="matrix(-0.9961 -0.0882 0.0882 -0.9961 844.6086 114.1983)" fill="#F3F3F3" stroke="#595959" stroke-width="0.5" stroke-miterlimit="10" width="2.095" height="20.391"/>
		
			<rect x="416.18" y="28.428" transform="matrix(-0.9734 -0.229 0.229 -0.9734 814.5218 171.7658)" fill="#F3F3F3" stroke="#595959" stroke-width="0.5" stroke-miterlimit="10" width="2.095" height="20.391"/>
		
			<rect x="407.7" y="28.2" transform="matrix(-0.9884 -0.152 0.152 -0.9884 806.9054 138.4919)" fill="#F3F3F3" stroke="#595959" stroke-width="0.5" stroke-miterlimit="10" width="2.095" height="20.391"/>
		
			<rect x="400.305" y="28.314" transform="matrix(-0.999 -0.0451 0.0451 -0.999 800.5587 95.0857)" fill="#F3F3F3" stroke="#595959" stroke-width="0.5" stroke-miterlimit="10" width="2.095" height="20.391"/>
		
			<rect x="392.818" y="28.314" transform="matrix(-0.9884 -0.152 0.152 -0.9884 777.2973 136.4554)" fill="#F3F3F3" stroke="#595959" stroke-width="0.5" stroke-miterlimit="10" width="2.095" height="20.391"/>
		
			<rect x="385.216" y="28.428" transform="matrix(-0.999 -0.0451 0.0451 -0.999 770.3914 94.6323)" fill="#F3F3F3" stroke="#595959" stroke-width="0.5" stroke-miterlimit="10" width="2.095" height="20.391"/>
		
			<rect x="377.762" y="28.428" transform="matrix(-0.9787 -0.2052 0.2052 -0.9787 741.6365 154.1438)" fill="#F3F3F3" stroke="#595959" stroke-width="0.5" stroke-miterlimit="10" width="2.095" height="20.391"/>
		
			<rect x="370.308" y="28.406" transform="matrix(-0.9884 -0.152 0.152 -0.9884 732.5247 133.2167)" fill="#F3F3F3" stroke="#595959" stroke-width="0.5" stroke-miterlimit="10" width="2.095" height="20.391"/>
		
			<rect x="362.854" y="28.428" transform="matrix(-0.9964 -0.0847 0.0847 -0.9964 723.2214 107.9442)" fill="#F3F3F3" stroke="#595959" stroke-width="0.5" stroke-miterlimit="10" width="2.095" height="20.391"/>
		
			<rect x="355.4" y="28.179" transform="matrix(-0.9713 -0.2379 0.2379 -0.9713 693.5294 160.4536)" fill="#F3F3F3" stroke="#595959" stroke-width="0.5" stroke-miterlimit="10" width="2.095" height="20.391"/>
	</g>
	<g>
		<g>
			<path fill="#F3F3F3" stroke="#595959" stroke-width="0.5" stroke-miterlimit="10" d="M80.713,143.988l-23.46,0.033
				c-1.1,0.002-1.999,0.903-1.997,2.003l0.03,21.12c0.002,1.1,0.903,1.999,2.003,1.997l23.46-0.033
				c1.1-0.002,1.999-0.903,1.997-2.003l-0.03-21.12C82.714,144.885,81.813,143.987,80.713,143.988z"/>
			<path fill="#F3F3F3" stroke="#595959" stroke-width="0.5" stroke-miterlimit="10" d="M81.33,143.987l-24.694,0.035
				c-0.761,0.001-1.384-0.62-1.385-1.381l-0.005-3.229c-0.001-0.761,0.62-1.384,1.381-1.385l24.694-0.035
				c0.761-0.001,1.384,0.62,1.385,1.381l0.005,3.229C82.712,143.363,82.09,143.986,81.33,143.987z"/>
		</g>
		
			<rect x="28.118" y="159.168" fill-rule="evenodd" clip-rule="evenodd" fill="#F3F3F3" stroke="#595959" stroke-width="0.5" stroke-miterlimit="10" width="81.755" height="29.473"/>
	</g>
</g>
<g id="numbers">
	<g>
		<path d="M61.745,63.719c-0.724-0.399-1.292-0.951-1.703-1.658c-0.412-0.706-0.618-1.497-0.618-2.372s0.206-1.666,0.618-2.373
			c0.412-0.706,0.981-1.259,1.709-1.657s1.542-0.598,2.444-0.598c0.676,0,1.3,0.112,1.872,0.338
			c0.572,0.226,1.057,0.555,1.456,0.988l-0.611,0.61c-0.711-0.719-1.608-1.079-2.691-1.079c-0.719,0-1.374,0.165-1.963,0.494
			c-0.589,0.33-1.051,0.78-1.384,1.353c-0.334,0.571-0.5,1.213-0.5,1.924s0.167,1.352,0.5,1.924
			c0.333,0.572,0.795,1.022,1.384,1.352c0.589,0.33,1.244,0.494,1.963,0.494c1.092,0,1.989-0.363,2.691-1.092l0.611,0.611
			c-0.399,0.434-0.886,0.765-1.462,0.994c-0.577,0.229-1.203,0.345-1.878,0.345C63.28,64.317,62.468,64.118,61.745,63.719z"/>
		<path d="M75.427,57.401v6.838h-0.923V58.22h-4.29v6.019h-0.923v-6.838H75.427z"/>
		<path d="M82.46,58.018c0.476,0.446,0.715,1.107,0.715,1.982v4.238h-0.884v-1.066c-0.208,0.355-0.513,0.633-0.917,0.832
			c-0.403,0.2-0.882,0.3-1.436,0.3c-0.763,0-1.37-0.183-1.82-0.547c-0.451-0.363-0.676-0.845-0.676-1.442
			c0-0.581,0.21-1.049,0.63-1.404s1.09-0.533,2.008-0.533h2.171v-0.416c0-0.589-0.165-1.037-0.494-1.345
			c-0.33-0.308-0.811-0.462-1.443-0.462c-0.434,0-0.85,0.071-1.248,0.215c-0.399,0.143-0.741,0.34-1.027,0.591l-0.416-0.688
			c0.347-0.295,0.763-0.522,1.248-0.683s0.997-0.24,1.534-0.24C81.298,57.349,81.983,57.572,82.46,58.018z M81.42,63.218
			c0.373-0.238,0.65-0.583,0.832-1.033v-1.118h-2.145c-1.17,0-1.755,0.407-1.755,1.222c0,0.399,0.152,0.713,0.455,0.942
			c0.303,0.23,0.728,0.345,1.274,0.345C80.601,63.576,81.047,63.456,81.42,63.218z"/>
		<path d="M91.222,57.401v6.838h-0.923V58.22h-3.276l-0.091,1.689c-0.069,1.422-0.234,2.514-0.494,3.276
			c-0.26,0.763-0.724,1.144-1.391,1.144c-0.182,0-0.403-0.034-0.663-0.104l0.065-0.793c0.156,0.034,0.264,0.052,0.325,0.052
			c0.355,0,0.624-0.165,0.806-0.494c0.182-0.329,0.303-0.736,0.364-1.222s0.112-1.127,0.156-1.924l0.117-2.444H91.222z"/>
		<path d="M98.742,60.391c0.446,0.372,0.669,0.909,0.669,1.611c0,0.729-0.24,1.287-0.722,1.678c-0.481,0.39-1.176,0.58-2.086,0.571
			l-2.756-0.013v-6.838h0.923v2.392l2.015,0.026C97.644,59.827,98.296,60.018,98.742,60.391z M97.988,63.166
			c0.325-0.265,0.487-0.652,0.487-1.164c0-0.502-0.16-0.875-0.481-1.117c-0.321-0.243-0.802-0.369-1.443-0.378l-1.781-0.025v3.042
			l1.781,0.025C97.184,63.558,97.663,63.431,97.988,63.166z"/>
		<path d="M101.167,57.401h0.923v3.029h4.303v-3.029h0.923v6.838h-0.923v-3.016h-4.303v3.016h-0.923V57.401z"/>
		<path d="M115.193,57.401v6.838h-0.845v-2.262h-2.145h-0.26l-1.586,2.262h-1.001l1.703-2.392c-0.529-0.147-0.936-0.399-1.222-0.755
			c-0.286-0.354-0.429-0.806-0.429-1.352c0-0.763,0.26-1.343,0.78-1.742c0.52-0.398,1.23-0.598,2.132-0.598H115.193z
			 M112.281,61.287h2.067V58.22h-2.002c-1.334,0-2.002,0.516-2.002,1.547C110.344,60.781,110.989,61.287,112.281,61.287z"/>
		<path d="M62.674,71.239v9.8h-1.82v-8.274h-2.072v-1.525H62.674z"/>
		<path d="M72.012,71.239v1.218l-3.808,8.582h-1.946l3.682-8.26h-3.85v1.666h-1.694v-3.206H72.012z"/>
		<path d="M74.35,79.134c0.214,0.215,0.322,0.495,0.322,0.84c0,0.149-0.021,0.307-0.063,0.47s-0.128,0.408-0.259,0.734l-0.714,1.975
			h-1.134l0.56-2.143c-0.206-0.084-0.367-0.217-0.483-0.398c-0.117-0.183-0.175-0.395-0.175-0.638c0-0.345,0.107-0.625,0.322-0.84
			c0.214-0.214,0.485-0.321,0.812-0.321C73.865,78.813,74.135,78.92,74.35,79.134z"/>
		<path d="M84.514,78.813h-1.736v2.226h-1.764v-2.226h-5.376v-1.261l4.83-6.313h1.946l-4.55,6.034h3.206v-1.975h1.708v1.975h1.736
			V78.813z"/>
	</g>
	<g>
		<path d="M134.988,270.202h-2.08v4.173h-0.936v-9.1h0.936v4.082h2.08l3.081-4.082h1.04l-3.38,4.42l3.575,4.68H138.2
			L134.988,270.202z"/>
		<path d="M146.364,267.536l-3.419,7.657c-0.277,0.642-0.598,1.096-0.962,1.365c-0.364,0.269-0.802,0.402-1.313,0.402
			c-0.33,0-0.637-0.052-0.923-0.155c-0.286-0.104-0.533-0.261-0.741-0.469l0.429-0.688c0.347,0.347,0.763,0.52,1.248,0.52
			c0.312,0,0.579-0.087,0.8-0.26c0.221-0.174,0.427-0.468,0.617-0.884l0.299-0.663l-3.055-6.825h0.962l2.574,5.812l2.574-5.812
			H146.364z"/>
		<path d="M151.693,274.374l-2.171-2.859l-2.184,2.859h-1.04l2.704-3.51l-2.574-3.328h1.04l2.054,2.678l2.054-2.678h1.014
			l-2.574,3.328l2.73,3.51H151.693z"/>
		<path d="M154.254,267.536h0.923v3.029h4.303v-3.029h0.923v6.838h-0.923v-3.016h-4.303v3.016h-0.923V267.536z"/>
		<path d="M168.281,267.536v6.838h-0.845v-2.262h-2.145h-0.26l-1.586,2.262h-1.001l1.703-2.392
			c-0.529-0.147-0.936-0.398-1.222-0.754s-0.429-0.807-0.429-1.353c0-0.763,0.26-1.343,0.78-1.742
			c0.52-0.398,1.23-0.598,2.132-0.598H168.281z M165.369,271.423h2.067v-3.067h-2.002c-1.334,0-2.002,0.516-2.002,1.547
			C163.432,270.916,164.078,271.423,165.369,271.423z"/>
		<path d="M170.374,270.449h3.406v0.806h-3.406V270.449z"/>
		<path d="M132.798,289.598c-0.533-0.295-0.951-0.709-1.254-1.242c-0.303-0.532-0.455-1.133-0.455-1.8
			c0-0.668,0.152-1.266,0.455-1.794c0.303-0.529,0.722-0.94,1.254-1.235c0.533-0.295,1.138-0.442,1.813-0.442
			c0.589,0,1.116,0.115,1.58,0.345c0.463,0.229,0.83,0.565,1.099,1.008l-0.689,0.468c-0.226-0.338-0.512-0.592-0.858-0.761
			c-0.347-0.169-0.724-0.253-1.131-0.253c-0.494,0-0.938,0.11-1.333,0.331s-0.702,0.535-0.923,0.942
			c-0.221,0.408-0.332,0.871-0.332,1.392c0,0.528,0.11,0.994,0.332,1.397c0.221,0.402,0.528,0.715,0.923,0.936
			c0.395,0.222,0.839,0.332,1.333,0.332c0.407,0,0.784-0.083,1.131-0.247c0.346-0.165,0.632-0.416,0.858-0.754l0.689,0.468
			c-0.269,0.441-0.637,0.778-1.105,1.008c-0.468,0.229-0.993,0.344-1.573,0.344C133.936,290.039,133.331,289.893,132.798,289.598z"
			/>
		<path d="M143.75,283.955h-2.587v6.02h-0.923v-6.02h-2.587v-0.818h6.097V283.955z"/>
		<path d="M145.817,289.591c-0.529-0.299-0.945-0.713-1.248-1.241s-0.455-1.127-0.455-1.794c0-0.668,0.152-1.266,0.455-1.794
			c0.303-0.529,0.719-0.94,1.248-1.235c0.528-0.295,1.122-0.442,1.781-0.442s1.252,0.147,1.781,0.442
			c0.528,0.295,0.942,0.706,1.242,1.235c0.299,0.528,0.448,1.126,0.448,1.794c0,0.667-0.149,1.266-0.448,1.794
			c-0.299,0.528-0.713,0.942-1.242,1.241c-0.529,0.299-1.123,0.448-1.781,0.448S146.346,289.89,145.817,289.591z M148.905,288.889
			c0.386-0.221,0.687-0.535,0.904-0.942c0.216-0.407,0.325-0.871,0.325-1.391c0-0.521-0.108-0.983-0.325-1.392
			c-0.217-0.407-0.518-0.722-0.904-0.942s-0.821-0.331-1.307-0.331s-0.921,0.11-1.306,0.331c-0.386,0.221-0.689,0.535-0.91,0.942
			c-0.221,0.408-0.332,0.871-0.332,1.392c0,0.52,0.11,0.983,0.332,1.391s0.524,0.722,0.91,0.942
			c0.385,0.222,0.821,0.332,1.306,0.332S148.519,289.111,148.905,288.889z"/>
		<path d="M158.596,283.137v6.838h-0.923v-6.02h-3.276l-0.091,1.69c-0.069,1.421-0.234,2.514-0.494,3.275
			c-0.26,0.764-0.724,1.145-1.391,1.145c-0.182,0-0.403-0.035-0.663-0.104l0.065-0.793c0.156,0.035,0.264,0.053,0.325,0.053
			c0.355,0,0.624-0.165,0.806-0.494c0.182-0.329,0.303-0.736,0.364-1.223c0.061-0.484,0.112-1.126,0.156-1.924l0.117-2.443H158.596z
			"/>
		<path d="M162.262,289.591c-0.529-0.299-0.945-0.713-1.248-1.241s-0.455-1.127-0.455-1.794c0-0.668,0.152-1.266,0.455-1.794
			c0.303-0.529,0.719-0.94,1.248-1.235c0.528-0.295,1.122-0.442,1.781-0.442s1.252,0.147,1.781,0.442
			c0.528,0.295,0.942,0.706,1.242,1.235c0.299,0.528,0.448,1.126,0.448,1.794c0,0.667-0.149,1.266-0.448,1.794
			c-0.299,0.528-0.713,0.942-1.242,1.241c-0.529,0.299-1.123,0.448-1.781,0.448S162.791,289.89,162.262,289.591z M165.35,288.889
			c0.386-0.221,0.687-0.535,0.904-0.942c0.216-0.407,0.325-0.871,0.325-1.391c0-0.521-0.108-0.983-0.325-1.392
			c-0.217-0.407-0.518-0.722-0.904-0.942s-0.821-0.331-1.307-0.331s-0.921,0.11-1.306,0.331c-0.386,0.221-0.689,0.535-0.91,0.942
			c-0.221,0.408-0.332,0.871-0.332,1.392c0,0.52,0.11,0.983,0.332,1.391s0.524,0.722,0.91,0.942
			c0.385,0.222,0.821,0.332,1.306,0.332S164.964,289.111,165.35,288.889z"/>
		<path d="M175.236,288.116c0,0.598-0.221,1.058-0.663,1.378c-0.442,0.321-1.101,0.481-1.976,0.481h-3.107v-6.838h3.016
			c0.78,0,1.391,0.151,1.833,0.455c0.442,0.303,0.663,0.736,0.663,1.3c0,0.372-0.102,0.691-0.306,0.955
			c-0.204,0.265-0.487,0.462-0.852,0.592C174.772,286.656,175.236,287.214,175.236,288.116z M170.387,286.179h2.054
			c0.528,0,0.934-0.1,1.215-0.3c0.282-0.199,0.422-0.489,0.422-0.87c0-0.382-0.141-0.668-0.422-0.858s-0.687-0.286-1.215-0.286
			h-2.054V286.179z M173.884,288.96c0.294-0.19,0.442-0.489,0.442-0.896s-0.134-0.709-0.403-0.903
			c-0.269-0.195-0.693-0.293-1.274-0.293h-2.262v2.379h2.171C173.147,289.246,173.589,289.152,173.884,288.96z"/>
		<path d="M181.801,283.754c0.476,0.446,0.715,1.107,0.715,1.982v4.238h-0.884v-1.066c-0.208,0.355-0.513,0.633-0.917,0.832
			c-0.403,0.199-0.882,0.299-1.436,0.299c-0.763,0-1.37-0.182-1.82-0.546s-0.676-0.845-0.676-1.442c0-0.581,0.21-1.049,0.63-1.404
			s1.09-0.533,2.008-0.533h2.171v-0.416c0-0.589-0.165-1.038-0.494-1.346c-0.33-0.308-0.811-0.461-1.443-0.461
			c-0.434,0-0.85,0.071-1.248,0.214c-0.399,0.144-0.741,0.341-1.027,0.592l-0.416-0.688c0.347-0.295,0.763-0.522,1.248-0.683
			s0.997-0.241,1.534-0.241C180.64,283.084,181.324,283.308,181.801,283.754z M180.761,288.954c0.373-0.238,0.65-0.583,0.832-1.034
			v-1.117h-2.145c-1.17,0-1.755,0.407-1.755,1.222c0,0.398,0.152,0.713,0.455,0.942s0.728,0.345,1.274,0.345
			C179.942,289.312,180.388,289.193,180.761,288.954z"/>
		<path d="M190.225,283.137v6.838h-0.845v-2.263h-2.145h-0.26l-1.586,2.263h-1.001l1.703-2.393
			c-0.529-0.146-0.936-0.398-1.222-0.754s-0.429-0.806-0.429-1.352c0-0.763,0.26-1.344,0.78-1.742s1.23-0.598,2.132-0.598H190.225z
			 M187.313,287.024h2.067v-3.068h-2.002c-1.334,0-2.002,0.516-2.002,1.547C185.375,286.517,186.021,287.024,187.313,287.024z"/>
		<path d="M134.442,296.975v9.8h-1.82V298.5h-2.072v-1.525H134.442z"/>
		<path d="M138.376,306.32c-0.616-0.396-1.102-0.976-1.456-1.736c-0.355-0.761-0.532-1.663-0.532-2.709
			c0-1.045,0.177-1.948,0.532-2.709c0.354-0.761,0.84-1.339,1.456-1.736c0.616-0.396,1.316-0.595,2.1-0.595
			c0.784,0,1.486,0.198,2.107,0.595c0.621,0.397,1.108,0.976,1.463,1.736c0.354,0.761,0.532,1.664,0.532,2.709
			c0,1.046-0.178,1.948-0.532,2.709c-0.355,0.761-0.842,1.34-1.463,1.736s-1.323,0.595-2.107,0.595
			C139.692,306.914,138.993,306.716,138.376,306.32z M142.135,304.464c0.406-0.578,0.609-1.441,0.609-2.59
			c0-1.147-0.203-2.011-0.609-2.59c-0.406-0.578-0.959-0.868-1.659-0.868c-0.691,0-1.239,0.29-1.645,0.868
			c-0.406,0.579-0.609,1.442-0.609,2.59c0,1.148,0.203,2.012,0.609,2.59c0.406,0.579,0.954,0.868,1.645,0.868
			C141.176,305.332,141.729,305.043,142.135,304.464z"/>
		<path d="M147.561,304.87c0.214,0.215,0.322,0.495,0.322,0.84c0,0.149-0.021,0.306-0.063,0.469
			c-0.042,0.164-0.128,0.409-0.259,0.735l-0.714,1.974h-1.134l0.56-2.142c-0.206-0.084-0.367-0.217-0.483-0.398
			c-0.117-0.183-0.175-0.395-0.175-0.638c0-0.345,0.107-0.625,0.322-0.84c0.214-0.215,0.485-0.322,0.812-0.322
			C147.075,304.548,147.346,304.656,147.561,304.87z"/>
		<path d="M156.737,302.568c0.275,0.396,0.413,0.86,0.413,1.393c0,0.598-0.166,1.12-0.497,1.568c-0.331,0.448-0.8,0.791-1.407,1.029
			c-0.607,0.237-1.312,0.356-2.114,0.356s-1.505-0.119-2.107-0.356c-0.602-0.238-1.066-0.581-1.393-1.029s-0.49-0.971-0.49-1.568
			c0-0.532,0.135-0.996,0.406-1.393c0.271-0.396,0.658-0.712,1.162-0.945c-0.392-0.215-0.693-0.497-0.903-0.847
			c-0.21-0.351-0.315-0.754-0.315-1.211c0-0.551,0.151-1.031,0.455-1.442c0.303-0.41,0.73-0.728,1.281-0.952
			c0.551-0.224,1.185-0.336,1.904-0.336c0.728,0,1.367,0.112,1.918,0.336c0.551,0.225,0.98,0.542,1.288,0.952
			c0.308,0.411,0.462,0.892,0.462,1.442c0,0.457-0.107,0.858-0.322,1.204c-0.215,0.345-0.523,0.63-0.924,0.854
			C156.067,301.856,156.461,302.171,156.737,302.568z M154.728,305.067c0.392-0.28,0.588-0.667,0.588-1.162
			c0-0.485-0.196-0.868-0.588-1.148c-0.392-0.279-0.924-0.42-1.596-0.42c-0.672,0-1.199,0.141-1.582,0.42
			c-0.383,0.28-0.574,0.663-0.574,1.148c0,0.495,0.191,0.882,0.574,1.162c0.383,0.279,0.91,0.42,1.582,0.42
			C153.804,305.487,154.336,305.346,154.728,305.067z M151.781,298.626c-0.332,0.243-0.497,0.584-0.497,1.022
			c0,0.42,0.166,0.754,0.497,1.001c0.331,0.247,0.781,0.371,1.351,0.371c0.579,0,1.036-0.124,1.372-0.371s0.504-0.581,0.504-1.001
			c0-0.438-0.17-0.779-0.511-1.022c-0.341-0.242-0.796-0.364-1.365-0.364S152.112,298.384,151.781,298.626z"/>
	</g>
	<g>
		<path d="M50.27,274.994h9.1v0.948h-8.268v4.395l3.042,0.104c1.257,0.044,2.269,0.146,3.036,0.306
			c0.767,0.161,1.339,0.405,1.716,0.734c0.377,0.33,0.565,0.768,0.565,1.313c0,0.233-0.03,0.477-0.091,0.728l-0.858-0.078
			c0.035-0.146,0.052-0.29,0.052-0.429c0-0.381-0.151-0.69-0.455-0.93c-0.303-0.238-0.773-0.418-1.41-0.539
			c-0.637-0.121-1.48-0.204-2.529-0.247l-3.9-0.13V274.994z"/>
		<path d="M58.987,271.107c-0.299,0.529-0.713,0.945-1.242,1.248c-0.528,0.304-1.126,0.455-1.794,0.455s-1.265-0.151-1.794-0.455
			c-0.529-0.303-0.94-0.719-1.235-1.248c-0.294-0.528-0.442-1.122-0.442-1.78c0-0.659,0.147-1.253,0.442-1.781
			c0.295-0.528,0.707-0.942,1.235-1.242c0.529-0.299,1.126-0.448,1.794-0.448s1.266,0.149,1.794,0.448
			c0.529,0.3,0.942,0.714,1.242,1.242c0.299,0.528,0.448,1.122,0.448,1.781C59.435,269.985,59.286,270.578,58.987,271.107z
			 M58.285,268.02c-0.221-0.386-0.535-0.688-0.942-0.904c-0.407-0.216-0.871-0.324-1.391-0.324s-0.983,0.108-1.391,0.324
			c-0.407,0.217-0.722,0.519-0.942,0.904c-0.221,0.386-0.332,0.821-0.332,1.307s0.11,0.921,0.332,1.306
			c0.221,0.386,0.535,0.689,0.942,0.91c0.408,0.222,0.871,0.332,1.391,0.332s0.984-0.11,1.391-0.332
			c0.407-0.221,0.721-0.524,0.942-0.91c0.221-0.385,0.332-0.82,0.332-1.306S58.506,268.406,58.285,268.02z"/>
		<path d="M58.564,257.249h2.457v0.871H59.37v6.123h1.651v0.871h-2.457v-0.39c-0.026-0.46-0.364-0.771-1.014-0.937
			c-0.65-0.164-1.56-0.277-2.73-0.338l-2.288-0.091v-5.044h6.032V257.249z M57.271,262.853c0.628,0.121,1.06,0.338,1.293,0.649
			v-4.264h-5.213v3.289l1.521,0.078C55.843,262.649,56.643,262.731,57.271,262.853z"/>
		<path d="M56.328,249.462v1.482h3.042v0.923h-3.042v1.482l3.042,2.093v1.105l-3.523-2.457l-3.315,2.263v-1.001l3.003-2.002v-1.482
			h-3.003v-0.923h3.003v-1.482l-3.003-2.015v-1.001l3.328,2.262l3.51-2.457v1.105L56.328,249.462z"/>
		<path d="M52.532,244.718v-0.923h5.434l-5.434-4.563v-0.819h6.838v0.924h-5.434l5.434,4.55v0.832H52.532z"/>
		<path d="M52.532,230.522h6.838v0.845h-2.262v2.146v0.26l2.262,1.586v1.001l-2.392-1.703c-0.147,0.529-0.398,0.937-0.754,1.223
			s-0.806,0.429-1.352,0.429c-0.763,0-1.343-0.26-1.742-0.78c-0.398-0.52-0.598-1.23-0.598-2.132V230.522z M56.419,233.434v-2.067
			h-3.068v2.003c0,1.334,0.516,2.002,1.547,2.002C55.912,235.371,56.419,234.726,56.419,233.434z"/>
	</g>
	<g>
		<path d="M52.005,308.33c0.476,0.504,0.714,1.134,0.714,1.89c0,0.569-0.145,1.088-0.434,1.554c-0.29,0.468-0.726,0.838-1.309,1.113
			c-0.583,0.275-1.295,0.413-2.135,0.413c-0.7,0-1.374-0.101-2.023-0.301c-0.648-0.201-1.202-0.479-1.659-0.833l0.784-1.414
			c0.355,0.299,0.786,0.534,1.295,0.707s1.034,0.259,1.575,0.259c0.644,0,1.15-0.133,1.519-0.398
			c0.369-0.267,0.553-0.628,0.553-1.085c0-0.458-0.175-0.814-0.525-1.071c-0.35-0.257-0.884-0.385-1.603-0.385h-0.896v-1.246
			l2.226-2.646h-4.452v-1.525h6.678v1.218l-2.38,2.828C50.839,307.518,51.529,307.827,52.005,308.33z"/>
		<path d="M55.828,311.256c0.214,0.215,0.322,0.495,0.322,0.84c0,0.149-0.021,0.306-0.063,0.469
			c-0.042,0.164-0.128,0.409-0.259,0.735l-0.714,1.974h-1.134l0.56-2.142c-0.206-0.084-0.367-0.217-0.483-0.398
			c-0.117-0.183-0.175-0.395-0.175-0.638c0-0.345,0.107-0.625,0.322-0.84c0.214-0.215,0.485-0.322,0.812-0.322
			C55.342,310.934,55.613,311.041,55.828,311.256z"/>
		<path d="M65.991,310.934h-1.736v2.227h-1.764v-2.227h-5.376v-1.26l4.83-6.313h1.946l-4.55,6.033h3.206v-1.974h1.708v1.974h1.736
			V310.934z"/>
	</g>
	<g>
		<path d="M397.646,81.468c0.476,0.504,0.714,1.134,0.714,1.89c0,0.57-0.146,1.088-0.435,1.555s-0.726,0.838-1.309,1.112
			c-0.583,0.275-1.295,0.413-2.135,0.413c-0.7,0-1.375-0.1-2.023-0.301c-0.648-0.2-1.202-0.479-1.659-0.833l0.784-1.414
			c0.354,0.299,0.786,0.534,1.295,0.707s1.034,0.259,1.575,0.259c0.644,0,1.15-0.133,1.519-0.398
			c0.369-0.267,0.554-0.628,0.554-1.085s-0.175-0.814-0.525-1.071c-0.35-0.257-0.884-0.385-1.603-0.385h-0.896V80.67l2.227-2.646
			h-4.452v-1.525h6.678v1.218l-2.38,2.828C396.479,80.657,397.17,80.964,397.646,81.468z"/>
		<path d="M401.468,84.394c0.215,0.215,0.322,0.495,0.322,0.84c0,0.149-0.021,0.307-0.063,0.47s-0.128,0.408-0.259,0.734
			l-0.714,1.975h-1.135l0.561-2.143c-0.205-0.084-0.366-0.217-0.483-0.398c-0.116-0.183-0.175-0.395-0.175-0.638
			c0-0.345,0.107-0.625,0.322-0.84c0.215-0.214,0.485-0.321,0.812-0.321C400.982,84.073,401.253,84.18,401.468,84.394z"/>
		<path d="M410.645,82.091c0.275,0.396,0.413,0.861,0.413,1.393c0,0.598-0.166,1.12-0.497,1.568
			c-0.332,0.448-0.801,0.791-1.407,1.029s-1.312,0.356-2.114,0.356s-1.505-0.118-2.106-0.356c-0.603-0.238-1.066-0.581-1.394-1.029
			c-0.326-0.448-0.49-0.971-0.49-1.568c0-0.531,0.136-0.996,0.406-1.393s0.658-0.712,1.162-0.945
			c-0.392-0.214-0.693-0.497-0.903-0.847s-0.314-0.754-0.314-1.211c0-0.551,0.151-1.031,0.455-1.442
			c0.303-0.41,0.729-0.728,1.281-0.951c0.55-0.225,1.185-0.337,1.903-0.337c0.729,0,1.367,0.112,1.918,0.337
			c0.551,0.224,0.98,0.541,1.288,0.951c0.309,0.411,0.462,0.892,0.462,1.442c0,0.457-0.107,0.858-0.321,1.204
			c-0.215,0.346-0.523,0.63-0.925,0.854C409.975,81.379,410.369,81.695,410.645,82.091z M408.636,84.59
			c0.392-0.28,0.588-0.667,0.588-1.162c0-0.485-0.196-0.868-0.588-1.147c-0.393-0.28-0.925-0.421-1.597-0.421
			s-1.199,0.141-1.582,0.421c-0.383,0.279-0.574,0.662-0.574,1.147c0,0.495,0.191,0.882,0.574,1.162s0.91,0.42,1.582,0.42
			S408.243,84.87,408.636,84.59z M405.688,78.15c-0.332,0.243-0.497,0.584-0.497,1.022c0,0.42,0.165,0.754,0.497,1.001
			c0.331,0.247,0.781,0.371,1.351,0.371c0.579,0,1.036-0.124,1.372-0.371s0.504-0.581,0.504-1.001c0-0.438-0.17-0.779-0.511-1.022
			c-0.341-0.242-0.796-0.363-1.365-0.363S406.02,77.908,405.688,78.15z"/>
	</g>
	<g>
		<path d="M397.534,181.779c0.662,0.537,0.994,1.267,0.994,2.191c0,0.588-0.145,1.12-0.435,1.596
			c-0.289,0.476-0.723,0.854-1.302,1.134c-0.579,0.28-1.293,0.42-2.142,0.42c-0.7,0-1.377-0.101-2.03-0.301
			s-1.204-0.478-1.652-0.833l0.771-1.414c0.364,0.299,0.8,0.535,1.309,0.707c0.509,0.173,1.034,0.259,1.575,0.259
			c0.645,0,1.15-0.133,1.52-0.399c0.368-0.266,0.553-0.632,0.553-1.099c0-0.504-0.198-0.884-0.595-1.141
			c-0.397-0.256-1.076-0.385-2.037-0.385h-2.366l0.504-5.334h5.754v1.526h-4.214l-0.21,2.268h0.938
			C395.85,180.974,396.871,181.242,397.534,181.779z"/>
		<path d="M401.496,185.076c0.215,0.215,0.322,0.495,0.322,0.84c0,0.149-0.021,0.306-0.063,0.469
			c-0.042,0.164-0.128,0.409-0.259,0.735l-0.714,1.974h-1.135l0.561-2.142c-0.205-0.084-0.366-0.217-0.483-0.399
			c-0.116-0.182-0.175-0.395-0.175-0.637c0-0.345,0.107-0.625,0.322-0.84s0.485-0.322,0.812-0.322
			C401.011,184.754,401.281,184.861,401.496,185.076z"/>
		<path d="M410.231,185.44v1.54h-7.224v-1.218l3.892-3.696c0.438-0.42,0.735-0.786,0.89-1.099c0.153-0.313,0.23-0.623,0.23-0.931
			c0-0.458-0.154-0.807-0.462-1.05c-0.308-0.243-0.761-0.364-1.358-0.364c-0.998,0-1.764,0.341-2.296,1.022l-1.273-0.98
			c0.382-0.513,0.897-0.912,1.547-1.197c0.648-0.284,1.374-0.427,2.177-0.427c1.064,0,1.913,0.252,2.548,0.756
			s0.952,1.19,0.952,2.058c0,0.532-0.112,1.031-0.336,1.498s-0.653,0.999-1.288,1.596l-2.618,2.492H410.231z"/>
	</g>
	<g>
		<path d="M362.751,305.734h-1.735v2.227h-1.765v-2.227h-5.376v-1.26l4.83-6.313h1.946l-4.55,6.033h3.206v-1.974h1.708v1.974h1.735
			V305.734z"/>
		<path d="M365.719,306.056c0.215,0.215,0.322,0.495,0.322,0.84c0,0.149-0.021,0.306-0.063,0.469
			c-0.042,0.164-0.128,0.409-0.259,0.735l-0.714,1.974h-1.135l0.561-2.142c-0.205-0.084-0.366-0.217-0.483-0.398
			c-0.116-0.183-0.175-0.395-0.175-0.638c0-0.345,0.107-0.625,0.322-0.84s0.485-0.322,0.812-0.322
			C365.233,305.734,365.504,305.841,365.719,306.056z"/>
		<path d="M374.398,298.16v1.218l-3.808,8.582h-1.946l3.682-8.26h-3.85v1.665h-1.694v-3.205H374.398z"/>
	</g>
</g>
<g>
</g>
<g>
</g>
<g>
</g>
<g>
</g>
<g>
</g>
<g>
</g>
</svg>
