<svg id="Слой_1" data-name="Слой 1" xmlns="http://www.w3.org/2000/svg" viewBox="0 0 210.52941 200.9259"><title>1.06.15</title><polygon points="0 6.217 210.529 6.217 210.529 200.926 33.774 200.926 33.774 163.2 0 163.2 0 6.217" style="fill:#fff;fill-rule:evenodd"/><path d="M265.7869,290.75591v2.5432H258.827v-2.5432Zm0-4.33621v2.5433H258.827v-2.5433Zm-4.068-4.44159v2.54329H258.827V281.9781Zm4.068,0v2.54329H262.895V281.9781Zm-7.0708,13.15649h6.9928v2.539h-6.9928Zm-1.33078-14.6673h10.92157v18.7696H257.38531Z" transform="translate(-107.3339 -108.4754)" style="fill:#003915;fill-rule:evenodd"/><path d="M159.1985,268.64079h-2.5432v6.9599h2.5432Zm4.3362,0h-2.5433v6.9599h2.5433Zm4.4416,4.068H165.433v2.89189h2.5433Zm0-4.068H165.433v2.89191h2.5433Zm-12.9597,6.9599v-6.9599h-2.484v6.9599Zm14.09689,1.32011v-9.58131H151.1317v9.58131Z" transform="translate(-107.3339 -108.4754)" style="fill:#003915;fill-rule:evenodd"/><path d="M191.46561,193.4193a.37407.37407,0,0,0-.3748-.64749l-13.92011,8.0399a.37407.37407,0,0,0,.3748.64749Z" transform="translate(-107.3339 -108.4754)" style="fill:#003915"/><path d="M184.12579,257.86321a.374.374,0,1,0-.37469-.6474l-13.9201,8.0399a.374.374,0,1,0,.37471.6474Z" transform="translate(-107.3339 -108.4754)" style="fill:#003915"/><path d="M158.05791,227.27879a.374.374,0,0,0-.3748-.6474L143.763,234.6713a.374.374,0,1,0,.3748.6474Z" transform="translate(-107.3339 -108.4754)" style="fill:#003915"/><path d="M306.65649,143.26761a.37406.37406,0,1,0-.37469-.64752L292.36169,150.66a.374.374,0,0,0,.37469.64749Z" transform="translate(-107.3339 -108.4754)" style="fill:#003915"/><path d="M240.83771,293.40289a.37407.37407,0,0,0,.64749-.37479L233.4453,279.108a.37407.37407,0,0,0-.64749.3748Z" transform="translate(-107.3339 -108.4754)" style="fill:#003915"/><path d="M170.68961,222.761a.374.374,0,0,0,.6474-.3748l-8.0399-13.92011a.374.374,0,0,0-.6474.3748Z" transform="translate(-107.3339 -108.4754)" style="fill:#003915"/><rect x="63.6874" y="12.22049" width="2.6022" height="84.1575" style="fill:#003915"/><rect x="127.7169" y="12.22049" width="2.6022" height="112.03961" style="fill:#003915"/><rect x="57.859" y="113.6852" width="2.6022" height="45.5547" style="fill:#003915"/><rect x="98.0452" y="156.7744" width="2.60229" height="41.2256" style="fill:#003915"/><rect x="158.88519" y="156.7744" width="2.60233" height="41.2256" style="fill:#003915"/><rect x="133.52061" y="156.7744" width="2.60219" height="11.94569" style="fill:#003915"/><rect x="133.52061" y="184.4306" width="2.60219" height="11.94569" style="fill:#003915"/><rect y="113.6852" width="3.4401" height="2.6022" style="fill:#003915"/><rect y="113.6852" width="34.2839" height="4.6349" style="fill:#003915"/><rect x="49.5136" y="113.6852" width="14.53859" height="4.6349" style="fill:#003915"/><rect y="110.59149" width="3.4401" height="2.6022" style="fill:#003915"/><rect x="20.0695" y="156.7744" width="42.5379" height="2.6022" style="fill:#003915"/><rect x="78.0584" y="156.7744" width="22.5891" height="2.6022" style="fill:#003915"/><rect x="133.52061" y="156.7744" width="27.9669" height="2.6022" style="fill:#003915"/><rect x="88.5265" y="123.8672" width="47.46471" height="2.60219" style="fill:#003915"/><rect x="88.5265" y="92.19769" width="41.28101" height="2.6022" style="fill:#003915"/><rect x="63.6874" y="92.19769" width="6.495" height="2.6022" style="fill:#003915"/><rect y="9.63779" width="5.002" height="151.58211" style="fill:#003915"/><rect x="205.5274" y="9.63779" width="5.00201" height="188.84331" style="fill:#003915"/><rect x="34.78809" y="194.5004" width="73.53391" height="6.4255" style="fill:#003915"/><rect x="127.6007" y="194.5004" width="82.92871" height="6.4255" style="fill:#003915"/><polygon points="40.2 200.926 33.774 200.926 33.774 163.2 33.774 156.774 40.2 156.774 40.2 200.926" style="fill:#003915;fill-rule:evenodd"/><polygon points="39.328 156.774 39.328 163.2 33.774 163.2 0 163.2 0 156.774 39.328 156.774" style="fill:#003915;fill-rule:evenodd"/><rect x="132.6852" y="30.89429" width="28.20871" height="8.1601" style="fill:#003915"/><rect x="198.57909" y="30.89429" width="11.95032" height="8.1601" style="fill:#003915"/><rect y="5.5199" width="17.5356" height="8.1601" style="fill:#003915"/><rect x="46.3081" y="5.5199" width="34.9926" height="8.1601" style="fill:#003915"/><rect x="110.1166" y="5.5199" width="23.7988" height="8.1601" style="fill:#003915"/><rect x="205.5274" y="5.5199" width="5.00201" height="8.1601" style="fill:#003915"/><rect x="57.859" y="113.6852" width="8.1601" height="12.78419" style="fill:#003915"/><rect x="127.83109" y="113.6852" width="8.16011" height="12.78419" style="fill:#003915"/><rect x="127.7169" width="8.16011" height="39.05438" style="fill:#003915"/><rect x="202.29101" width="8.1601" height="39.05438" style="fill:#003915"/><rect x="125.255" width="10.62201" height="13.67999" style="fill:#003915"/><rect x="202.29101" width="8.2384" height="39.05438" style="fill:#003915"/><rect x="31.14561" y="8.52179" width="0.50179" height="2.29861" style="fill:#003915"/><rect x="32.3444" y="8.52179" width="0.50121" height="2.29861" style="fill:#003915"/><rect x="44.9815" y="8.52179" width="0.5015" height="2.29861" style="fill:#003915"/><rect x="46.18" y="8.52179" width="0.50121" height="2.29861" style="fill:#003915"/><rect x="17.0339" y="8.52179" width="0.5017" height="2.29861" style="fill:#003915"/><rect x="18.2324" y="8.52179" width="0.5012" height="2.29861" style="fill:#003915"/><rect x="14.6443" y="5.5199" width="34.0937" height="0.5015" style="fill:#003915"/><rect x="14.6443" y="8.367" width="34.0937" height="0.5015" style="fill:#003915"/><rect x="14.6443" y="10.53839" width="34.0937" height="0.5014" style="fill:#003915"/><rect x="14.6443" y="13.17938" width="34.0937" height="0.50153" style="fill:#003915"/><rect x="94.9107" y="8.52179" width="0.50171" height="2.29861" style="fill:#003915"/><rect x="96.1095" y="8.52179" width="0.5011" height="2.29861" style="fill:#003915"/><rect x="108.7466" y="8.52179" width="0.5015" height="2.29861" style="fill:#003915"/><rect x="109.94511" y="8.52179" width="0.50119" height="2.29861" style="fill:#003915"/><rect x="80.799" y="8.52179" width="0.50169" height="2.29861" style="fill:#003915"/><rect x="81.99751" y="8.52179" width="0.5011" height="2.29861" style="fill:#003915"/><rect x="78.4094" y="5.5199" width="34.0937" height="0.5015" style="fill:#003915"/><rect x="78.4094" y="8.367" width="34.0937" height="0.5015" style="fill:#003915"/><rect x="78.4094" y="10.53839" width="34.0937" height="0.5014" style="fill:#003915"/><rect x="78.4094" y="13.17938" width="34.0937" height="0.50153" style="fill:#003915"/><path d="M286.65161,142.71741v1.66989h.697v-1.66989Zm-17.22562,0v1.66989h16.72409v-1.66989Zm-1.19818,0v1.66989h.697v-1.66989Zm-.5018,1.66989v-1.66989h-2.133v-.5015H287.3486V139.8703H265.593v-.5015h22.25681v8.161H265.593v-.5015H287.3486V144.8887H265.64029v-.5014Z" transform="translate(-107.3339 -108.4754)" style="fill:#003915;fill-rule:evenodd"/><rect x="148.9305" y="3.84009" width="0.44708" height="1.29712" style="fill:#003915"/><rect x="149.99859" y="3.84009" width="0.44681" height="1.29712" style="fill:#003915"/><rect x="167.53259" y="3.84009" width="0.44702" height="1.29712" style="fill:#003915"/><rect x="168.6007" y="3.84009" width="0.44681" height="1.29712" style="fill:#003915"/><rect x="186.135" y="3.84009" width="0.44699" height="1.29712" style="fill:#003915"/><rect x="187.20309" y="3.84009" width="0.44672" height="1.29712" style="fill:#003915"/><rect x="204.73791" y="3.84009" width="0.44699" height="1.29712" style="fill:#003915"/><rect x="205.80599" y="3.84009" width="0.44672" height="1.29712" style="fill:#003915"/><rect x="130.32819" y="3.84009" width="0.44701" height="1.29712" style="fill:#003915"/><rect x="131.39629" y="3.84009" width="0.4467" height="1.29712" style="fill:#003915"/><rect x="128.8953" y="2.61069" width="79.00551" height="0.44681" style="fill:#003915"/><rect x="128.8953" y="3.70209" width="79.00551" height="0.44672" style="fill:#003915"/><rect x="128.8953" y="4.7829" width="79.00551" height="0.44681" style="fill:#003915"/><path d="M131.4281,265.0286h9.8223a.90521.90521,0,0,0,.90541-.9039V259.5144a4.59576,4.59576,0,0,0-4.58961-4.591H135.114a4.59575,4.59575,0,0,0-4.5905,4.591v4.61029a.9047.9047,0,0,0,.9046.9039m6.13809-9.8606a4.351,4.351,0,0,1,4.34491,4.34641v4.61029a.66137.66137,0,0,1-.66071.65991h-9.8223a.66068.66068,0,0,1-.6599-.65991V259.5144A4.35141,4.35141,0,0,1,135.114,255.168Z" transform="translate(-107.3339 -108.4754)" style="fill:#003915"/><path d="M137.5659,256.2583a3.25877,3.25877,0,0,1,3.2545,3.2561v2.6881a.56785.56785,0,0,1-.5672.5675H136.6778v.24519h3.57541a.814.814,0,0,0,.81239-.8127v-2.6881a3.50408,3.50408,0,0,0-3.49969-3.50081h-2.45221a3.50469,3.50469,0,0,0-3.50079,3.50081v2.6881a.81446.81446,0,0,0,.81351.8127h3.57539V262.77h-3.57539a.56822.56822,0,0,1-.56831-.5675v-2.6881a3.25933,3.25933,0,0,1,3.2556-3.2561Z" transform="translate(-107.3339 -108.4754)" style="fill:#003915"/><path d="M136.3391,259.86189a.78349.78349,0,1,0-.7838-.78349.78474.78474,0,0,0,.7838.78349m0-1.3223a.5387.5387,0,1,1-.5392.5388A.53969.53969,0,0,1,136.3391,258.5396Z" transform="translate(-107.3339 -108.4754)" style="fill:#003915"/><rect x="28.8827" y="150.0452" width="0.2449" height="1.11661" style="fill:#003915"/><rect x="28.44759" y="150.48059" width="1.11601" height="0.2455" style="fill:#003915"/><path d="M136.0018,263.8463h-.4037a.17363.17363,0,0,1-.1729-.174v-.3793a.17372.17372,0,0,1,.1729-.1741h.4037v-.2449h-.4037a.4187.4187,0,0,0-.41811.419v.3793a.41855.41855,0,0,0,.41811.41859h.40559l-.00189-.0374Zm1.0771-.7274a.17457.17457,0,0,1,.1741.1741v.3793a.17447.17447,0,0,1-.1741.174h-.40111v.2072l-.0022.0374h.40331a.41848.41848,0,0,0,.4187-.41859v-.3793a.41863.41863,0,0,0-.4187-.419h-.40111v.2449Z" transform="translate(-107.3339 -108.4754)" style="fill:#003915"/><path d="M136.3391,264.5139a.461.461,0,0,0,.4612-.4604v-3.0804a.4605.4605,0,0,0-.921,0v3.0804a.46062.46062,0,0,0,.45979.4604m0-3.75681a.21677.21677,0,0,1,.21631.216v3.0804a.2156.2156,0,0,1-.4312,0v-3.0804A.21608.21608,0,0,1,136.3391,260.7571Z" transform="translate(-107.3339 -108.4754)" style="fill:#003915"/><path d="M183.29359,302.9092h-9.82239a.90526.90526,0,0,1-.9053-.904v-4.6103a4.59567,4.59567,0,0,1,4.58949-4.591h2.4523a4.59574,4.59574,0,0,1,4.59041,4.591v4.6103a.90471.90471,0,0,1-.90451.904m-6.1382-9.8606a4.351,4.351,0,0,0-4.34489,4.3463v4.6103a.66143.66143,0,0,0,.66071.6599h9.82239a.66075.66075,0,0,0,.65991-.6599v-4.6103a4.35139,4.35139,0,0,0-4.34581-4.3463Z" transform="translate(-107.3339 -108.4754)" style="fill:#003915"/><path d="M177.1557,294.13879a3.25868,3.25868,0,0,0-3.25439,3.2561v2.6881a.56778.56778,0,0,0,.5672.5675h3.57529v.2452h-3.57529a.814.814,0,0,1-.81241-.8127v-2.6881a3.50406,3.50406,0,0,1,3.4996-3.50079h2.4523a3.50469,3.50469,0,0,1,3.50079,3.50079v2.6881a.81448.81448,0,0,1-.8136.8127h-3.5753v-.2452h3.5753a.5683.5683,0,0,0,.56841-.5675v-2.6881a3.25939,3.25939,0,0,0-3.2556-3.2561Z" transform="translate(-107.3339 -108.4754)" style="fill:#003915"/><path d="M178.3826,297.7424a.78345.78345,0,1,1,.78371-.78351.78467.78467,0,0,1-.78371.78351m0-1.3223a.5387.5387,0,1,0,.53911.53879A.53968.53968,0,0,0,178.3826,296.4201Z" transform="translate(-107.3339 -108.4754)" style="fill:#003915"/><rect x="70.9262" y="187.92569" width="0.2449" height="1.11661" style="fill:#003915"/><rect x="70.4902" y="188.3611" width="1.116" height="0.2455" style="fill:#003915"/><path d="M178.71989,301.7268h.40361a.17357.17357,0,0,0,.1729-.174v-.3793a.17357.17357,0,0,0-.1729-.174h-.40361v-.245h.40361a.41868.41868,0,0,1,.41809.419v.3793a.41862.41862,0,0,1-.41809.41869h-.40561l.002-.0375Zm-1.07719-.7273a.17438.17438,0,0,0-.174.174v.3793a.17438.17438,0,0,0,.174.174h.40109v.2072l.0023.0375h-.4034a.41862.41862,0,0,1-.4187-.41869v-.3793a.41869.41869,0,0,1,.4187-.419h.40109v.245Z" transform="translate(-107.3339 -108.4754)" style="fill:#003915"/><path d="M178.3826,302.3944a.461.461,0,0,1-.4612-.4604v-3.0804a.46045.46045,0,0,1,.9209,0v3.0804a.46054.46054,0,0,1-.4597.4604m0-3.75681a.2167.2167,0,0,0-.21629.216v3.0804a.21555.21555,0,0,0,.43109,0v-3.0804A.21606.21606,0,0,0,178.3826,298.6376Z" transform="translate(-107.3339 -108.4754)" style="fill:#003915"/><path d="M161.68111,286.25591a3.91689,3.91689,0,0,1-3.9129,3.9115H152.1028a.67729.67729,0,0,1-.63921-.4561,1.24882,1.24882,0,0,1-.20489.2036.94578.94578,0,0,0,.8441.5215h5.66541a4.1808,4.1808,0,1,0,0-8.3616H152.1028a.94552.94552,0,0,0-.8436.521,1.23808,1.23808,0,0,1,.2047.2032.67639.67639,0,0,1,.6389-.45549h5.66541a3.91708,3.91708,0,0,1,3.9129,3.9124" transform="translate(-107.3339 -108.4754)" style="fill:#003915"/><path d="M153.1837,283.4521v5.609a.20391.20391,0,0,0,.20149.2012h4.27071a3.00655,3.00655,0,1,0,0-6.01309h-4.27071a.20465.20465,0,0,0-.20149.2029m.2681,5.5415v-5.476h4.2041a2.738,2.738,0,0,1,0,5.476Z" transform="translate(-107.3339 -108.4754)" style="fill:#003915"/><path d="M155.9146,286.2562a1.00815,1.00815,0,1,0,1.008-1.0089,1.01006,1.01006,0,0,0-1.008,1.0089m1.7475,0a.7394.7394,0,1,1-.73949-.7399A.74037.74037,0,0,1,157.66209,286.2562Z" transform="translate(-107.3339 -108.4754)" style="fill:#003915"/><rect x="153.71728" y="287.74331" width="2.24224" height="0.26853" transform="translate(-248.74229 41.24911) rotate(-36.72415)" style="fill:#003915"/><rect x="154.70403" y="283.55673" width="0.26914" height="2.24309" transform="translate(-273.18983 129.60104) rotate(-53.18983)" style="fill:#003915"/><path d="M147.6819,283.5553v5.4006a1.35508,1.35508,0,0,0,1.35381,1.3524H150.51a1.35353,1.35353,0,0,0,1.35251-1.3524v-5.4006a1.35321,1.35321,0,0,0-1.35251-1.35179h-1.47429a1.35476,1.35476,0,0,0-1.35381,1.35179m3.91209,5.4006a1.08542,1.08542,0,0,1-1.084,1.0842h-1.47429a1.08591,1.08591,0,0,1-1.0851-1.0842v-5.4006a1.086,1.086,0,0,1,1.0851-1.08369H150.51a1.0855,1.0855,0,0,1,1.084,1.08369Z" transform="translate(-107.3339 -108.4754)" style="fill:#003915"/><path d="M149.0842,286.2562a.6881.6881,0,1,0,.68741-.68829.68809.68809,0,0,0-.68741.68829m1.10721,0a.41925.41925,0,1,1-.4198-.4196A.41935.41935,0,0,1,150.19141,286.2562Z" transform="translate(-107.3339 -108.4754)" style="fill:#003915"/><path d="M157.1465,251.0295a3.91689,3.91689,0,0,1,3.9115,3.9129v5.6653a.67713.67713,0,0,1-.456.63921,1.24108,1.24108,0,0,1,.20349.205.94584.94584,0,0,0,.52161-.84421v-5.6653a4.18085,4.18085,0,1,0-8.36171,0v5.6653a.94529.94529,0,0,0,.521.8436,1.24154,1.24154,0,0,1,.20329-.20459.67639.67639,0,0,1-.4556-.639v-5.6653a3.91715,3.91715,0,0,1,3.9124-3.9129" transform="translate(-107.3339 -108.4754)" style="fill:#003915"/><path d="M154.3428,259.5269h5.6089a.20391.20391,0,0,0,.20119-.2016v-4.2706a3.00655,3.00655,0,1,0-6.01309,0v4.2706a.20469.20469,0,0,0,.203.2016m5.5414-.2682h-5.47591v-4.204a2.738,2.738,0,0,1,5.47591,0Z" transform="translate(-107.3339 -108.4754)" style="fill:#003915"/><path d="M157.1468,256.796a1.00816,1.00816,0,1,0-1.0088-1.008,1.01007,1.01007,0,0,0,1.0088,1.008m0-1.7476a.73945.73945,0,1,1-.73981.73959A.74045.74045,0,0,1,157.1468,255.0484Z" transform="translate(-107.3339 -108.4754)" style="fill:#003915"/><rect x="158.63394" y="256.75108" width="0.26857" height="2.24219" transform="translate(-230.02923 37.6664) rotate(-36.72878)" style="fill:#003915"/><rect x="154.44739" y="257.73732" width="2.24302" height="0.26921" transform="translate(-251.43555 119.44371) rotate(-53.19038)" style="fill:#003915"/><path d="M154.446,265.0286h5.4005a1.355,1.355,0,0,0,1.3524-1.35379v-1.4743a1.3535,1.3535,0,0,0-1.3524-1.3524H154.446a1.3532,1.3532,0,0,0-1.3519,1.3524v1.4743a1.35472,1.35472,0,0,0,1.3519,1.35379m5.4005-3.912a1.08549,1.08549,0,0,1,1.0843,1.08391v1.4743a1.08594,1.08594,0,0,1-1.0843,1.0851H154.446a1.08594,1.08594,0,0,1-1.08369-1.0851v-1.4743a1.08549,1.08549,0,0,1,1.08369-1.08391Z" transform="translate(-107.3339 -108.4754)" style="fill:#003915"/><path d="M157.1468,263.6263a.6881.6881,0,1,0-.6882-.68739.68809.68809,0,0,0,.6882.68739m0-1.10719a.41925.41925,0,1,1-.41951.4198A.41949.41949,0,0,1,157.1468,262.5191Z" transform="translate(-107.3339 -108.4754)" style="fill:#003915"/><path d="M127.3938,262.8774V232.7925a2.161,2.161,0,0,0-2.1657-2.15149H114.8168a2.16089,2.16089,0,0,0-2.166,2.15149v30.0849a2.16083,2.16083,0,0,0,2.166,2.1512h10.4113a2.161,2.161,0,0,0,2.1657-2.1512m-14.5131-30.0849a1.9311,1.9311,0,0,1,1.9361-1.92189h10.4113a1.931,1.931,0,0,1,1.93549,1.92189v30.0849a1.93143,1.93143,0,0,1-1.93549,1.92221H114.8168a1.93156,1.93156,0,0,1-1.9361-1.92221Z" transform="translate(-107.3339 -108.4754)" style="fill:#003915"/><path d="M114.1427,235.7782a2.577,2.577,0,0,1,2.5821-2.56529h6.5948a2.57657,2.57657,0,0,1,2.58179,2.56529V259.8914a2.57709,2.57709,0,0,1-2.58179,2.5659h-2.062a.3967.3967,0,0,1,.1421.2282h1.91991a2.80639,2.80639,0,0,0,2.8125-2.7941V235.7782a2.80665,2.80665,0,0,0-2.8125-2.7944h-6.5948a2.80661,2.80661,0,0,0-2.8123,2.7944V259.8914a2.80635,2.80635,0,0,0,2.8123,2.7941h1.9201a.39586.39586,0,0,1,.1415-.2282h-2.0616a2.57748,2.57748,0,0,1-2.5821-2.5659Z" transform="translate(-107.3339 -108.4754)" style="fill:#003915"/><path d="M115.456,237.3257a1.26668,1.26668,0,0,1,1.2688-1.2612h6.5948a1.26642,1.26642,0,0,1,1.2682,1.2612v22.5657a1.26621,1.26621,0,0,1-1.2682,1.2614h-2.8449v.22879h2.8449a1.49618,1.49618,0,0,0,1.49889-1.49019V237.3257a1.4957,1.4957,0,0,0-1.49889-1.4894h-6.5948a1.49534,1.49534,0,0,0-1.499,1.4894v22.5657a1.49583,1.49583,0,0,0,1.499,1.49019h2.8451v-.22879h-2.8451a1.26646,1.26646,0,0,1-1.2688-1.2614Z" transform="translate(-107.3339 -108.4754)" style="fill:#003915"/><path d="M120.7551,257.9863a.73336.73336,0,1,0-.7337.7299.73162.73162,0,0,0,.7337-.7299m-1.2365,0a.50331.50331,0,1,1,.5028.50031A.50183.50183,0,0,1,119.5186,257.9863Z" transform="translate(-107.3339 -108.4754)" style="fill:#003915"/><rect x="12.1651" y="149.39659" width="1.0457" height="0.22931" style="fill:#003915"/><rect x="12.5722" y="148.9924" width="0.23071" height="1.0378" style="fill:#003915"/><path d="M120.4747,262.4863h.5375a.27989.27989,0,0,1,.2803.27859V263.27a.28032.28032,0,0,1-.2803.27919h-.5375v.22881h.5375a.51033.51033,0,0,0,.511-.508v-.50511a.50969.50969,0,0,0-.511-.5074h-.5375Zm-1.722.27859a.27976.27976,0,0,1,.28-.27859h.5372v-.22881h-.5372a.50933.50933,0,0,0-.5108.5074V263.27a.51.51,0,0,0,.5108.508h.5372v-.22881h-.5372a.28019.28019,0,0,1-.28-.27919Z" transform="translate(-107.3339 -108.4754)" style="fill:#003915"/><path d="M120.5901,263.776v-3.2011a.56766.56766,0,0,0-1.1353,0v3.2011a.56766.56766,0,0,0,1.1353,0m-.90511-3.2011a.33715.33715,0,0,1,.6743,0v3.2011a.33716.33716,0,0,1-.6743,0Z" transform="translate(-107.3339 -108.4754)" style="fill:#003915"/><path d="M190.3833,300.7579V270.673a2.161,2.161,0,0,1,2.1657-2.1515h10.4113a2.16089,2.16089,0,0,1,2.166,2.1515V300.7579a2.16092,2.16092,0,0,1-2.166,2.15131H192.549a2.161,2.161,0,0,1-2.1657-2.15131M204.89639,270.673a1.9311,1.9311,0,0,0-1.9361-1.92191H192.549a1.931,1.931,0,0,0-1.9355,1.92191V300.7579a1.93142,1.93142,0,0,0,1.9355,1.9222h10.4113a1.93155,1.93155,0,0,0,1.9361-1.9222Z" transform="translate(-107.3339 -108.4754)" style="fill:#003915"/><path d="M203.6344,273.65871a2.577,2.577,0,0,0-2.58209-2.56531h-6.5948a2.57659,2.57659,0,0,0-2.5818,2.56531V297.7719a2.5771,2.5771,0,0,0,2.5818,2.5659h2.062a.39684.39684,0,0,0-.14211.2282H194.4575a2.80638,2.80638,0,0,1-2.8125-2.79411V273.65871a2.80663,2.80663,0,0,1,2.8125-2.7944h6.5948a2.80658,2.80658,0,0,1,2.81229,2.7944V297.7719a2.80633,2.80633,0,0,1-2.81229,2.79411H199.1322a.39594.39594,0,0,0-.14149-.2282h2.0616a2.57748,2.57748,0,0,0,2.58209-2.5659Z" transform="translate(-107.3339 -108.4754)" style="fill:#003915"/><path d="M202.32111,275.20619a1.26668,1.26668,0,0,0-1.2688-1.2612h-6.5948a1.26642,1.26642,0,0,0-1.2682,1.2612v22.5657a1.2662,1.2662,0,0,0,1.2682,1.26141h2.84489v.2288H194.4575a1.49619,1.49619,0,0,1-1.4989-1.4902v-22.5657a1.49571,1.49571,0,0,1,1.4989-1.4894h6.5948a1.49535,1.49535,0,0,1,1.499,1.4894v22.5657a1.49583,1.49583,0,0,1-1.499,1.4902H198.2072v-.2288h2.84511a1.26647,1.26647,0,0,0,1.2688-1.26141Z" transform="translate(-107.3339 -108.4754)" style="fill:#003915"/><path d="M197.022,295.86681a.73335.73335,0,1,1,.7337.72989.73161.73161,0,0,1-.7337-.72989m1.2365,0a.5033.5033,0,1,0-.50279.50029A.50184.50184,0,0,0,198.2585,295.86681Z" transform="translate(-107.3339 -108.4754)" style="fill:#003915"/><rect x="89.89851" y="187.2771" width="1.0457" height="0.22929" style="fill:#003915"/><rect x="90.3064" y="186.87289" width="0.2307" height="1.0378" style="fill:#003915"/><path d="M197.3024,300.3668h-.53751a.27988.27988,0,0,0-.28029.2786v.5051a.28042.28042,0,0,0,.28029.2793h.53751v.2287h-.53751a.51032.51032,0,0,1-.511-.508v-.5051a.50968.50968,0,0,1,.511-.5074h.53751Zm1.722.2786a.27975.27975,0,0,0-.28-.2786h-.5372v-.2288h.5372a.50933.50933,0,0,1,.5108.5074v.5051a.51.51,0,0,1-.5108.508h-.5372v-.2287h.5372a.28029.28029,0,0,0,.28-.2793Z" transform="translate(-107.3339 -108.4754)" style="fill:#003915"/><path d="M197.187,301.6565v-3.2011a.56766.56766,0,0,1,1.1353,0v3.2011a.56766.56766,0,0,1-1.1353,0m.90511-3.2011a.33715.33715,0,0,0-.6743,0v3.2011a.33716.33716,0,0,0,.6743,0Z" transform="translate(-107.3339 -108.4754)" style="fill:#003915"/><path d="M274.9657,291.032h11.7692v11.7689H274.9657Zm11.51971.2494H275.2149V302.552h11.27051Z" transform="translate(-107.3339 -108.4754)" style="fill:#003915"/><path d="M280.85019,301.7027a3.91958,3.91958,0,0,0,.9816-7.7142.3.3,0,0,0,.07431-.1976v-.0405a4.16848,4.16848,0,1,1-2.11151-.00029v.04079a.29837.29837,0,0,0,.07391.19731,3.91974,3.91974,0,0,0,.98169,7.71449" transform="translate(-107.3339 -108.4754)" style="fill:#003915"/><path d="M280.85019,294.302a3.48155,3.48155,0,1,1-3.48129,3.4818,3.48576,3.48576,0,0,1,3.48129-3.4818m0,6.7136a3.2319,3.2319,0,1,0-3.23178-3.2318A3.2355,3.2355,0,0,0,280.85019,301.0156Z" transform="translate(-107.3339 -108.4754)" style="fill:#003915"/><path d="M280.85019,296.8813a.90225.90225,0,1,1-.90259.9025.9033.9033,0,0,1,.90259-.9025m0,1.5556a.653.653,0,1,0-.65308-.6531A.65425.65425,0,0,0,280.85019,298.4369Z" transform="translate(-107.3339 -108.4754)" style="fill:#003915"/><rect x="173.3915" y="188.65109" width="0.24951" height="1.3138" style="fill:#003915"/><rect x="172.85949" y="189.1831" width="1.3136" height="0.2498" style="fill:#003915"/><path d="M280.09641,292.9771h1.50751a.427.427,0,0,1,.42657.42661v.38719a.42687.42687,0,0,1-.42657.42671h-1.50751a.427.427,0,0,1-.42661-.42671v-.38719a.42713.42713,0,0,1,.42661-.42661m1.50751.991a.17767.17767,0,0,0,.17749-.1772v-.38719a.17746.17746,0,0,0-.17749-.17711h-1.50751a.1771.1771,0,0,0-.17709.17711v.38719a.17731.17731,0,0,0,.17709.1772Z" transform="translate(-107.3339 -108.4754)" style="fill:#003915"/><path d="M281.0701,293.10181v-.08641a.21965.21965,0,1,0-.4393,0v.08641H280.381v-.08641a.46944.46944,0,0,1,.93887,0v.08641Zm-.21991,2.59009a.2205.2205,0,0,0,.21991-.2206V294.0928h.24979v1.37849a.46944.46944,0,1,1-.93887,0V294.0928h.24979v1.37849A.22008.22008,0,0,0,280.85019,295.69189Z" transform="translate(-107.3339 -108.4754)" style="fill:#003915"/><path d="M303.63049,291.51331h-7.15659a1.49611,1.49611,0,0,0-1.4942,1.49469v8.29871a1.496,1.496,0,0,0,1.4942,1.49419h7.15659a1.4957,1.4957,0,0,0,1.4942-1.49419V293.008a1.4958,1.4958,0,0,0-1.4942-1.49469m-7.15659,11.0546a1.26264,1.26264,0,0,1-1.26111-1.2612V293.008a1.26276,1.26276,0,0,1,1.26111-1.2617h7.15659a1.26308,1.26308,0,0,1,1.26172,1.2617v8.29871a1.263,1.263,0,0,1-1.26172,1.2612Z" transform="translate(-107.3339 -108.4754)" style="fill:#003915"/><path d="M303.63049,292.3322h-7.15659a.67623.67623,0,0,0-.67581.6758v7.0107a.67634.67634,0,0,0,.67581.6757h7.15659a.6765.6765,0,0,0,.67639-.6757V293.008a.6764.6764,0,0,0-.67639-.6758m-7.15659,8.1292a.44324.44324,0,0,1-.44312-.4427V293.008a.44349.44349,0,0,1,.44312-.443h7.15659a.44385.44385,0,0,1,.44391.443v7.0107a.44361.44361,0,0,1-.44391.4427Z" transform="translate(-107.3339 -108.4754)" style="fill:#003915"/><path d="M297.174,301.1131a.47425.47425,0,1,0,.47427.4743.47513.47513,0,0,0-.47427-.4743m0,.7155a.24125.24125,0,1,1,.24158-.2412A.24183.24183,0,0,1,297.174,301.8286Z" transform="translate(-107.3339 -108.4754)" style="fill:#003915"/><path d="M298.77481,301.1131a.47425.47425,0,1,0,.47479.4743.475.475,0,0,0-.47479-.4743m0,.7155a.24125.24125,0,1,1,.24179-.2412A.24162.24162,0,0,1,298.77481,301.8286Z" transform="translate(-107.3339 -108.4754)" style="fill:#003915"/><rect x="189.39339" y="185.9993" width="2.7196" height="0.2327" style="fill:#003915"/><rect x="190.63699" y="184.7551" width="0.23273" height="2.7196" style="fill:#003915"/><path d="M298.0871,293.694a.8969.8969,0,1,0,.89661.8969.898.898,0,0,0-.89661-.8969m0,1.561a.6643.6643,0,1,1,.66391-.66411A.66549.66549,0,0,1,298.0871,295.255Z" transform="translate(-107.3339 -108.4754)" style="fill:#003915"/><rect x="189.39339" y="189.8445" width="2.7196" height="0.2324" style="fill:#003915"/><rect x="190.63699" y="188.6001" width="0.23273" height="2.7204" style="fill:#003915"/><path d="M298.0871,297.5383a.8972.8972,0,1,0,.89661.8975.89867.89867,0,0,0-.89661-.8975m0,1.5619a.6647.6647,0,1,1,.66391-.6644A.66542.66542,0,0,1,298.0871,299.1002Z" transform="translate(-107.3339 -108.4754)" style="fill:#003915"/><rect x="193.32421" y="185.9993" width="2.7193" height="0.2327" style="fill:#003915"/><rect x="194.5678" y="184.7551" width="0.233" height="2.7196" style="fill:#003915"/><path d="M302.01819,293.694a.8969.8969,0,1,0,.89691.8969.89783.89783,0,0,0-.89691-.8969m0,1.561a.6643.6643,0,1,1,.66382-.66411A.666.666,0,0,1,302.01819,295.255Z" transform="translate(-107.3339 -108.4754)" style="fill:#003915"/><rect x="193.32421" y="189.8445" width="2.7193" height="0.2324" style="fill:#003915"/><rect x="194.5678" y="188.6001" width="0.233" height="2.7204" style="fill:#003915"/><path d="M302.01819,297.5383a.8972.8972,0,1,0,.89691.8975.89853.89853,0,0,0-.89691-.8975m0,1.5619a.6647.6647,0,1,1,.66382-.6644A.66592.66592,0,0,1,302.01819,299.1002Z" transform="translate(-107.3339 -108.4754)" style="fill:#003915"/><path d="M301.4884,301.1131a.47425.47425,0,1,0,.47449.4743.47481.47481,0,0,0-.47449-.4743m0,.7155a.24125.24125,0,1,1,.24179-.2412A.24161.24161,0,0,1,301.4884,301.8286Z" transform="translate(-107.3339 -108.4754)" style="fill:#003915"/><path d="M303.09,301.1131a.47425.47425,0,1,0,.47391.4743.4747.4747,0,0,0-.47391-.4743m0,.7155a.24125.24125,0,1,1,.24152-.2412A.24169.24169,0,0,1,303.09,301.8286Z" transform="translate(-107.3339 -108.4754)" style="fill:#003915"/><path d="M149.8394,269.1239a.80927.80927,0,1,0,.2347.57089.8098.8098,0,0,0-.2347-.57089m-.5726-1.03641a1.60726,1.60726,0,1,1-1.1364.47061A1.60274,1.60274,0,0,1,149.2668,268.08749Z" transform="translate(-107.3339 -108.4754)" style="fill:#003915"/><path d="M148.6409,244.012c-.7319,0-1.2359-.61789-1.2359-1.7399s.504-1.7399,1.2359-1.7399,1.2359.618,1.2359,1.7399-.504,1.7399-1.2359,1.7399m0,.396c.972,0,1.67979-.79791,1.67979-2.13591s-.70779-2.13589-1.67979-2.13589-1.6739.798-1.6739,2.13589S147.6689,244.408,148.6409,244.408Zm-3.97189-.396c-.7319,0-1.2359-.61789-1.2359-1.7399s.504-1.7399,1.2359-1.7399,1.2359.618,1.2359,1.7399S145.40089,244.012,144.669,244.012Zm0,.396c.972,0,1.67979-.79791,1.67979-2.13591s-.70779-2.13589-1.67979-2.13589-1.6739.798-1.6739,2.13589S143.697,244.408,144.669,244.408Zm-2.5498-.65991a.31407.31407,0,0,0-.318.324.30316.30316,0,0,0,.216.30591l-.2041.86989h.288l.252-.828a.976.976,0,0,0,.0842-.34781A.314.314,0,0,0,142.1192,243.74809Zm-2.622-1.8541h-.54l.144-1.338h1.91991v-.3838H138.7233l-.216,2.10591h.8941c1.06779,0,1.4037.33589,1.4037.8759,0,.50989-.3779.858-1.0919.858a1.82188,1.82188,0,0,1-1.2901-.48579l-.2097.3418a2.16813,2.16813,0,0,0,1.50571.54c1.0262,0,1.5239-.5578,1.5239-1.27191C141.243,242.392,140.76311,241.894,139.49719,241.894Z" transform="translate(-107.3339 -108.4754)" style="fill:#83746c;fill-rule:evenodd"/><path d="M181.641,284.2121c-.7319,0-1.2359-.6179-1.2359-1.7399s.504-1.7399,1.2359-1.7399,1.2359.618,1.2359,1.7399-.504,1.7399-1.2359,1.7399m0,.396c.972,0,1.67979-.7979,1.67979-2.13589s-.70779-2.13589-1.67979-2.13589-1.6739.798-1.6739,2.13589S180.669,284.60809,181.641,284.60809Zm-3.97191-.396c-.7319,0-1.2359-.6179-1.2359-1.7399s.504-1.7399,1.2359-1.7399,1.2359.618,1.2359,1.7399S178.401,284.2121,177.6691,284.2121Zm0,.396c.972,0,1.67981-.7979,1.67981-2.13589s-.70781-2.13589-1.67981-2.13589-1.6739.798-1.6739,2.13589S176.6971,284.60809,177.6691,284.60809Zm-2.5498-.6599a.31406.31406,0,0,0-.318.324.30311.30311,0,0,0,.216.30589l-.2041.8699h.288l.252-.828a.97556.97556,0,0,0,.0842-.34779A.314.314,0,0,0,175.11929,283.9482Zm-2.622-1.8541h-.54l.144-1.338h1.91989v-.3838H171.7234l-.216,2.1059h.894c1.0679,0,1.40381.33591,1.40381.8759,0,.5099-.3779.858-1.0919.858a1.82185,1.82185,0,0,1-1.2901-.48579l-.20981.3418a2.1682,2.1682,0,0,0,1.5058.54c1.02621,0,1.52391-.5578,1.52391-1.2719C174.2431,282.5921,173.7632,282.0941,172.4973,282.0941Z" transform="translate(-107.3339 -108.4754)" style="fill:#83746c;fill-rule:evenodd"/><path d="M229.02921,284.2121c-.7319,0-1.2359-.6179-1.2359-1.7399s.504-1.7399,1.2359-1.7399,1.2359.618,1.2359,1.7399-.504,1.7399-1.2359,1.7399m0,.396c.972,0,1.67979-.7979,1.67979-2.13589s-.70779-2.13589-1.67979-2.13589-1.6739.798-1.6739,2.13589S228.05721,284.60809,229.02921,284.60809Zm-3.97191-.396c-.7319,0-1.2359-.6179-1.2359-1.7399s.504-1.7399,1.2359-1.7399,1.2359.618,1.2359,1.7399S225.7892,284.2121,225.0573,284.2121Zm0,.396c.972,0,1.67981-.7979,1.67981-2.13589s-.70781-2.13589-1.67981-2.13589-1.67389.798-1.67389,2.13589S224.0853,284.60809,225.0573,284.60809Zm-2.54979-.6599a.31414.31414,0,0,0-.3181.324.30322.30322,0,0,0,.216.30589l-.204.8699h.288l.252-.828a.977.977,0,0,0,.08411-.34779A.314.314,0,0,0,222.50751,283.9482Zm-2.2861-1.77589,1.188-1.49411v-.30589h-2.7v.3838h2.148l-1.16391,1.45819v.318h.2999c.77991,0,1.13391.33,1.13391.834,0,.52179-.3838.84579-1.08.84579a1.84145,1.84145,0,0,1-1.3019-.48579l-.21011.3418a2.1845,2.1845,0,0,0,1.512.54c1.014,0,1.5239-.54,1.5239-1.24179C221.5712,282.6942,221.1214,282.2202,220.22141,282.1723Z" transform="translate(-107.3339 -108.4754)" style="fill:#83746c;fill-rule:evenodd"/><path d="M257.00119,277.837c-.7319,0-1.23589-.618-1.23589-1.7399s.504-1.73991,1.23589-1.73991,1.2359.6179,1.2359,1.73991-.504,1.7399-1.2359,1.7399m0,.396c.972,0,1.67981-.798,1.67981-2.13589s-.70779-2.13591-1.67981-2.13591-1.67389.7979-1.67389,2.13591S256.02921,278.233,257.00119,278.233Zm-3.966-2.5141h-.54l.144-1.33791h1.91989v-.3838h-2.2977l-.216,2.1058h.894c1.06779,0,1.40369.33591,1.40369.8759,0,.51-.37779.85811-1.09189.85811a1.821,1.821,0,0,1-1.29-.4859l-.20979.34189a2.16858,2.16858,0,0,0,1.5058.54c1.02609,0,1.5239-.55791,1.5239-1.2719C254.7811,276.217,254.30119,275.7189,253.0352,275.7189Zm-2.04581,1.8542a.314.314,0,0,0-.318.324.30312.30312,0,0,0,.216.3058l-.2041.87h.288l.252-.828a.976.976,0,0,0,.0842-.34781A.314.314,0,0,0,250.9894,277.5731Zm-2.75409-3.57591v.3838h.9901v3.816h.432v-4.19981Z" transform="translate(-107.3339 -108.4754)" style="fill:#83746c;fill-rule:evenodd"/><path d="M208.4669,166.3121c-.7319,0-1.2359-.61789-1.2359-1.7399s.504-1.7399,1.2359-1.7399,1.2359.618,1.2359,1.7399-.504,1.7399-1.2359,1.7399m0,.396c.972,0,1.67979-.79791,1.67979-2.13589s-.70779-2.13589-1.67979-2.13589-1.6738.798-1.6738,2.13589S207.4949,166.7081,208.4669,166.7081Zm-4.098-4.23581v.38382h.9901v3.816h.432v-4.1998Zm-.61169,3.5759a.31415.31415,0,0,0-.3181.324.30325.30325,0,0,0,.216.30591l-.2041.8699h.288l.252-.828a.97563.97563,0,0,0,.0842-.34781A.314.314,0,0,0,203.7572,166.04819Zm-3.24.23981,1.4281-1.40369a1.729,1.729,0,0,0,.6899-1.31412c0-.7019-.54-1.13388-1.39209-1.13388a1.88743,1.88743,0,0,0-1.4879.59979l.30589.26419a1.42634,1.42634,0,0,1,1.146-.468c.64209,0,.98389.2999.98389.786,0,.28781-.0898.56982-.5638,1.03781l-1.74609,1.71021v.30579h2.946V166.288Zm-2.9821-3.8157v.38382h.9902v3.816h.432v-4.1998Z" transform="translate(-107.3339 -108.4754)" style="fill:#83746c;fill-rule:evenodd"/><path d="M219.29221,219.1131c-.7319,0-1.2359-.618-1.2359-1.7399s.504-1.74,1.2359-1.74,1.2359.618,1.2359,1.74-.504,1.7399-1.2359,1.7399m0,.396c.972,0,1.67979-.798,1.67979-2.13589s-.70779-2.136-1.67979-2.136-1.6739.798-1.6739,2.136S218.32021,219.50909,219.29221,219.50909Zm-3.966-2.5141h-.54l.144-1.33789h1.91989v-.38391h-2.29779l-.216,2.10591h.89409c1.06781,0,1.4037.33589,1.4037.8759,0,.51-.37779.85809-1.09189.85809a1.821,1.821,0,0,1-1.29-.4859l-.20979.3419a2.16864,2.16864,0,0,0,1.5058.54c1.02609,0,1.5239-.55789,1.5239-1.2719C217.0721,217.4931,216.59219,216.995,215.3262,216.995Zm-2.04581,1.8542a.314.314,0,0,0-.318.324.30313.30313,0,0,0,.216.3058l-.2041.87h.288l.252-.828a.97605.97605,0,0,0,.0842-.34779A.314.314,0,0,0,213.2804,218.8492Zm-.8461-.864h-.83989v-.972h-.4198v.972h-1.82411l2.1481-2.712h-.48019l-2.2258,2.784v.3118h2.3698v1.1041h.432V218.369h.83989Z" transform="translate(-107.3339 -108.4754)" style="fill:#83746c;fill-rule:evenodd"/><path d="M240.1622,252.4133c-.7319,0-1.2359-.6179-1.2359-1.7399s.504-1.7399,1.2359-1.7399,1.2359.618,1.2359,1.7399-.504,1.7399-1.2359,1.7399m0,.396c.972,0,1.67979-.7979,1.67979-2.13589s-.70779-2.13589-1.67979-2.13589-1.6738.798-1.6738,2.13589S239.1902,252.8093,240.1622,252.8093Zm-4.5-.42009,1.4281-1.4037a1.72917,1.72917,0,0,0,.69-1.3141c0-.7019-.54-1.1339-1.39211-1.1339a1.88724,1.88724,0,0,0-1.4879.59979l.3058.26421a1.42648,1.42648,0,0,1,1.1461-.468c.642,0,.9839.2999.9839.7861,0,.28769-.0899.5697-.56381,1.03769l-1.7462,1.71021v.3058h2.94611v-.38409Zm-1.55991-.23981a.31406.31406,0,0,0-.318.324.30311.30311,0,0,0,.216.30589l-.2041.8699h.288l.252-.828a.97556.97556,0,0,0,.0842-.34779A.314.314,0,0,0,234.10229,252.1494Zm-2.622-1.8541h-.54l.144-1.338h1.91989v-.3838h-2.29779l-.216,2.1059h.8941c1.06779,0,1.40369.33591,1.40369.8759,0,.5099-.3779.858-1.09189.858a1.82185,1.82185,0,0,1-1.2901-.48579l-.2097.3418a2.16806,2.16806,0,0,0,1.50569.54c1.0262,0,1.52391-.5578,1.52391-1.2719C233.2261,250.7933,232.7462,250.2953,231.4803,250.2953Z" transform="translate(-107.3339 -108.4754)" style="fill:#83746c;fill-rule:evenodd"/><path d="M147.3327,166.3121c-.7319,0-1.2359-.61789-1.2359-1.7399s.504-1.7399,1.2359-1.7399,1.2359.618,1.2359,1.7399-.504,1.7399-1.2359,1.7399m0,.396c.972,0,1.67979-.79791,1.67979-2.13589s-.70779-2.13589-1.67979-2.13589-1.6739.798-1.6739,2.13589S146.3607,166.7081,147.3327,166.7081Zm-5.20781-4.23581v1.16992h.426v-.7861h2.16l-1.728,3.816h.468l1.7581-3.89389v-.30591Zm-.74979,3.5759a.31408.31408,0,0,0-.318.324.30313.30313,0,0,0,.216.30591l-.2041.8699h.288l.252-.828a.97572.97572,0,0,0,.08421-.34781A.31405.31405,0,0,0,141.37511,166.04819Zm-.8461-.864h-.8399v-.972h-.4198v.972h-1.8241l2.1481-2.71191h-.48021l-2.2258,2.78391v.3118h2.3698v1.1041h.432V165.568h.8399Zm-5.99391-2.71191v.38382h.9902v3.816h.432v-4.1998Z" transform="translate(-107.3339 -108.4754)" style="fill:#83746c;fill-rule:evenodd"/><path d="M296.51639,275.47121c-.7319,0-1.2359-.618-1.2359-1.73991s.504-1.7399,1.2359-1.7399,1.2359.6179,1.2359,1.7399-.504,1.73991-1.2359,1.73991m0,.396c.972,0,1.67981-.798,1.67981-2.13591s-.70779-2.13589-1.67981-2.13589-1.6738.7979-1.6738,2.13589S295.5444,275.8672,296.51639,275.8672Zm-3.97189-.396c-.7319,0-1.2359-.618-1.2359-1.73991s.504-1.7399,1.2359-1.7399,1.2359.6179,1.2359,1.7399S293.2764,275.47121,292.54449,275.47121Zm0,.396c.972,0,1.67981-.798,1.67981-2.13591s-.70779-2.13589-1.67981-2.13589-1.67389.7979-1.67389,2.13589S291.57251,275.8672,292.54449,275.8672Zm-2.5498-.6599a.314.314,0,0,0-.318.324.30326.30326,0,0,0,.216.30591l-.2041.86989h.288l.252-.828a.97638.97638,0,0,0,.0842-.34781A.314.314,0,0,0,289.99469,275.20731Zm-2.56189.2639c-.7319,0-1.2359-.618-1.2359-1.73991s.504-1.7399,1.2359-1.7399,1.2359.6179,1.2359,1.7399S288.1647,275.47121,287.4328,275.47121Zm0,.396c.972,0,1.67981-.798,1.67981-2.13591s-.70782-2.13589-1.67981-2.13589-1.67389.7979-1.67389,2.13589S286.46078,275.8672,287.4328,275.8672Zm-4.09811-4.23581v.3838h.9902v3.816h.432v-4.1998Z" transform="translate(-107.3339 -108.4754)" style="fill:#83746c;fill-rule:evenodd"/><path d="M283.40219,196.3132c-.7319,0-1.2359-.618-1.2359-1.74s.504-1.7399,1.2359-1.7399,1.2359.618,1.2359,1.7399-.504,1.74-1.2359,1.74m0,.396c.972,0,1.67981-.798,1.67981-2.136s-.70779-2.13589-1.67981-2.13589-1.67389.798-1.67389,2.13589S282.43021,196.7092,283.40219,196.7092Zm-4.098-4.2359v.3839h.99011v3.816h.432V192.4733Zm-.61179,3.5759a.31407.31407,0,0,0-.318.324.30314.30314,0,0,0,.216.30589l-.2041.87h.288l.252-.828a.97684.97684,0,0,0,.0842-.3479A.314.314,0,0,0,278.69241,196.04919Zm-2.34.294c-.72589,0-1.11-.438-1.11-.9a.97207.97207,0,0,1,1.08-.91791c.648,0,1.05591.35381,1.05591.906A.91885.91885,0,0,1,276.35239,196.3432Zm.036-2.1841a1.34266,1.34266,0,0,0-1.28409.72c-.0119-.1259-.01782-.2458-.01782-.3419,0-1.14.58191-1.722,1.48792-1.722a1.47052,1.47052,0,0,1,.8158.1981l.1741-.3481a1.92865,1.92865,0,0,0-.99591-.22791c-1.14008,0-1.91989.7439-1.91989,2.17189,0,1.32611.6058,2.1,1.7218,2.1a1.30851,1.30851,0,0,0,1.434-1.2901A1.2716,1.2716,0,0,0,276.3884,194.1591Zm-4.16409-1.68581v.3839h.9902v3.816h.432V192.4733Z" transform="translate(-107.3339 -108.4754)" style="fill:#83746c;fill-rule:evenodd"/><path d="M281.884,128.812c-.7319,0-1.2359-.61792-1.2359-1.7399s.504-1.7399,1.2359-1.7399,1.2359.618,1.2359,1.7399-.504,1.7399-1.2359,1.7399m0,.396c.972,0,1.67981-.79791,1.67981-2.13589s-.70782-2.13593-1.67981-2.13593-1.67389.798-1.67389,2.13593S280.912,129.208,281.884,129.208Zm-3.97189-.396c-.7319,0-1.2359-.61792-1.2359-1.7399s.504-1.7399,1.2359-1.7399,1.2359.618,1.2359,1.7399S278.644,128.812,277.91211,128.812Zm0,.396c.972,0,1.67978-.79791,1.67978-2.13589s-.70779-2.13593-1.67978-2.13593-1.67392.798-1.67392,2.13593S276.94009,129.208,277.91211,129.208Zm-2.5498-.65991a.31406.31406,0,0,0-.318.324.30314.30314,0,0,0,.216.30591l-.2041.8699h.288l.252-.828a.97475.97475,0,0,0,.08411-.34781A.314.314,0,0,0,275.3623,128.5481Zm-.8461-.864h-.8399v-.972h-.41989v.972h-1.8241l2.1481-2.71191h-.4801l-2.2258,2.7839v.3118h2.36978v1.1041h.432v-1.1041h.8399Z" transform="translate(-107.3339 -108.4754)" style="fill:#83746c;fill-rule:evenodd"/><path d="M229.409,305.4935a3.90784,3.90784,0,1,0-3.90759,3.9078,3.908,3.908,0,0,0,3.90759-3.9078" transform="translate(-107.3339 -108.4754)" style="fill:#558e42;fill-rule:evenodd"/><polygon points="118.168 194.614 118.546 195.929 118.924 197.244 118.168 197.244 117.411 197.244 117.789 195.929 118.168 194.614" style="fill:#fdfdfd;fill-rule:evenodd"/><rect x="117.9623" y="197.14079" width="0.38409" height="2.2814" style="fill:#fdfdfd"/><path d="M264.68869,300.5258a.80923.80923,0,1,1-.57089-.2347.80978.80978,0,0,1,.57089.2347m1.03641.57259a1.60708,1.60708,0,1,0-.47061,1.13641A1.60253,1.60253,0,0,0,265.7251,301.0984Z" transform="translate(-107.3339 -108.4754)" style="fill:#003915"/><path d="M280.6174,118.7536h-.49011v-.567h-.2449v.567H278.8183l1.2529-1.58209h-.27979l-1.29852,1.624v.182h1.38242v.644h.252v-.644h.49011Zm-3.22351-.5321.69281-.8714v-.17859h-1.575v.224h1.253l-.67892.85068v.1853h.17493c.4552,0,.66159.1925.66159.48651,0,.30441-.224.4935-.62991.4935a1.07428,1.07428,0,0,1-.75967-.28351l-.12241.19962a1.2748,1.2748,0,0,0,.88208.31488c.59131,0,.889-.31488.889-.72449C278.1814,118.52591,277.91891,118.2496,277.39389,118.2215Zm-1.4176,1.0361a.18315.18315,0,0,0-.18539.189.17658.17658,0,0,0,.12592.17831l-.11911.50769h.16809l.14713-.483a.574.574,0,0,0,.04907-.203A.18317.18317,0,0,0,275.97629,119.2576Zm-1.33337-1.0361.69278-.8714v-.17859h-1.575v.224h1.2529l-.67892.85068v.1853h.17493c.45529,0,.66159.1925.66159.48651,0,.30441-.22391.4935-.62979.4935a1.07436,1.07436,0,0,1-.7597-.28351l-.1225.19962a1.27523,1.27523,0,0,0,.8822.31488c.59128,0,.88889-.31488.88889-.72449C275.4303,118.52591,275.16779,118.2496,274.64291,118.2215Z" transform="translate(-107.3339 -108.4754)" style="fill:#434242"/><path d="M205.6156,128.6615c-.4269,0-.72121-.3606-.72121-1.0148,0-.65451.29431-1.01511.72121-1.01511s.72079.3606.72079,1.01511c0,.65421-.2939,1.0148-.72079,1.0148m0,.231c.56689,0,.9799-.46539.9799-1.24579,0-.7807-.413-1.24609-.9799-1.24609s-.97659.46539-.97659,1.24609C204.639,128.42709,205.0486,128.89249,205.6156,128.89249Zm-2.3905-2.47089v.22391h.57741v2.226h.252V126.4216Zm-.3569,2.086a.18315.18315,0,0,0-.18539.189.1767.1767,0,0,0,.1259.17831l-.11909.50769h.16809l.1472-.483a.57525.57525,0,0,0,.049-.203A.18317.18317,0,0,0,202.86819,128.5076Zm-1.33339-1.0361.69279-.8714v-.1785h-1.57491v.22391h1.2529l-.67889.85068v.18542h.1749c.4552,0,.66161.19238.66161.48639,0,.30441-.224.4935-.6299.4935a1.07438,1.07438,0,0,1-.7597-.28351l-.12241.19962a1.27447,1.27447,0,0,0,.88211.31488c.59129,0,.889-.31488.889-.72449C202.3223,127.776,202.0598,127.4996,201.53481,127.4715Z" transform="translate(-107.3339 -108.4754)" style="fill:#434242"/><path d="M141.9554,128.67911c-.42349,0-.64771-.2554-.64771-.525a.56725.56725,0,0,1,.63011-.53552c.3779,0,.616.20642.616.52841a.53613.53613,0,0,1-.5984.5321m.0209-1.2739a.78362.78362,0,0,0-.74921.4198c-.00679-.07343-.01039-.1434-.01039-.19962,0-.6647.3396-1.0043.86789-1.0043a.86089.86089,0,0,1,.4763.11542l.10139-.203a1.12528,1.12528,0,0,0-.58109-.1329c-.665,0-1.1199.434-1.1199,1.26709,0,.77332.35339,1.22479,1.00459,1.22479a.76332.76332,0,0,0,.8365-.75259A.7417.7417,0,0,0,141.9763,127.40521Zm-2.3555.26929c-.3779,0-.616-.20639-.616-.52841a.53637.53637,0,0,1,.59869-.53207c.42349,0,.6474.25568.6474.525A.56706.56706,0,0,1,139.6208,127.6745Zm-.0278-1.2739a.76317.76317,0,0,0-.8365.75259.74153.74153,0,0,0,.826.73471.78262.78262,0,0,0,.7489-.4198c.0071.07339.0105.1434.0105.19958,0,.665-.3396,1.0043-.868,1.0043a.85886.85886,0,0,1-.47591-.11539l-.1015.203a1.124,1.124,0,0,0,.5808.13287c.665,0,1.12-.434,1.12-1.26709C140.59731,126.85211,140.2438,126.4006,139.593,126.4006Zm-1.3127,2.107a.18315.18315,0,0,0-.18541.189.17662.17662,0,0,0,.12581.17831l-.119.50769h.16811l.14709-.483a.57525.57525,0,0,0,.049-.203A.18316.18316,0,0,0,138.2803,128.5076Zm-1.8902.14.8331-.81891a1.00773,1.00773,0,0,0,.4025-.76651c0-.40961-.3149-.66159-.8121-.66159a1.101,1.101,0,0,0-.868.3501l.1786.1539a.83215.83215,0,0,1,.6684-.273c.3745,0,.574.1749.574.4584,0,.16809-.0524.33249-.3288.6055l-1.01849.9975v.1785h1.7184v-.22388Z" transform="translate(-107.3339 -108.4754)" style="fill:#434242"/><path d="M141.9361,251.6795c-.42349,0-.64769-.25551-.64769-.525a.56723.56723,0,0,1,.6301-.53549c.3779,0,.616.20639.616.5284a.53613.53613,0,0,1-.5984.5321m.021-1.27391a.78346.78346,0,0,0-.74921.4198c-.00681-.07339-.0105-.14349-.0105-.1996,0-.66469.3396-1.00429.868-1.00429a.861.861,0,0,1,.4762.11539l.1015-.203a1.12571,1.12571,0,0,0-.5811-.1329c-.6651,0-1.12.4339-1.12,1.267,0,.7733.3535,1.2249,1.00459,1.2249a.76339.76339,0,0,0,.8365-.75259A.74168.74168,0,0,0,141.95711,250.40559Zm-2.1524,1.27391c-.42351,0-.64771-.25551-.64771-.525a.56724.56724,0,0,1,.6301-.53549c.3779,0,.616.20639.616.5284A.53613.53613,0,0,1,139.8047,251.6795Zm.021-1.27391a.78345.78345,0,0,0-.74919.4198c-.00681-.07339-.01051-.14349-.01051-.1996,0-.66469.3396-1.00429.868-1.00429a.86057.86057,0,0,1,.4762.11539l.1015-.203a1.12578,1.12578,0,0,0-.5811-.1329c-.665,0-1.12.4339-1.12,1.267,0,.7733.3535,1.2249,1.00461,1.2249a.76339.76339,0,0,0,.8365-.75259A.74169.74169,0,0,0,139.8257,250.40559Zm-1.5262,1.1024a.18314.18314,0,0,0-.18539.189.17677.17677,0,0,0,.1259.1783l-.11911.50769h.16811l.1472-.483a.57567.57567,0,0,0,.049-.203A.18319.18319,0,0,0,138.2995,251.508Zm-1.89011.14.8331-.81889a1.00791,1.00791,0,0,0,.40251-.76649c0-.40961-.31491-.66161-.8121-.66161a1.10129,1.10129,0,0,0-.868.35l.17859.154a.832.832,0,0,1,.66841-.273c.3745,0,.574.1749.574.4583,0,.16809-.0524.3326-.3288.6055l-1.01849.9975v.1786h1.7184V251.648Z" transform="translate(-107.3339 -108.4754)" style="fill:#434242"/><path d="M162.6055,298.7419l.69279-.8713v-.1786h-1.575v.2239h1.253l-.67891.8507v.18539h.17491c.4552,0,.66159.1925.66159.4864,0,.3045-.224.4935-.6299.4935a1.07434,1.07434,0,0,1-.7597-.2834l-.12239.1995a1.27428,1.27428,0,0,0,.8821.3149c.59131,0,.8889-.3149.8889-.7245,0-.392-.26241-.6684-.7874-.6965m-2.13879.203c-.37781,0-.61591-.2064-.61591-.5284a.53627.53627,0,0,1,.5986-.532c.42349,0,.64749.2556.64749.5249A.56709.56709,0,0,1,160.46671,298.9449Zm-.02771-1.2739a.76319.76319,0,0,0-.8365.7526.74154.74154,0,0,0,.826.7347.78258.78258,0,0,0,.7489-.4198c.0071.07349.0105.14349.0105.1996,0,.665-.3396,1.0043-.868,1.0043a.85883.85883,0,0,1-.47591-.1154l-.1015.203a1.124,1.124,0,0,0,.58081.1329c.665,0,1.12-.43391,1.12-1.267C161.4433,298.1226,161.0898,297.671,160.439,297.671Zm-1.31279,2.107a.18314.18314,0,0,0-.1853.1891.17669.17669,0,0,0,.12579.1783l-.119.5077h.168l.14719-.4831a.575.575,0,0,0,.049-.2029A.18321.18321,0,0,0,159.12621,299.778Zm-1.89011.14.8331-.8189a1.00773,1.00773,0,0,0,.4025-.7665c0-.4096-.3149-.6616-.81209-.6616a1.10134,1.10134,0,0,0-.868.35011l.1786.1539a.832.832,0,0,1,.6684-.273c.37451,0,.574.1749.574.4584,0,.1681-.0524.3325-.3288.6055l-1.01851.99751v.1786h1.7184v-.224Z" transform="translate(-107.3339 -108.4754)" style="fill:#434242"/><path d="M256.25681,272.17931c-.434,0-.68941-.189-.68941-.4935,0-.301.2554-.49011.68941-.49011s.69308.1891.69308.49011c0,.30449-.25909.4935-.69308.4935m-.6055-1.6239c0-.273.2347-.4411.6055-.4411.36758,0,.60919.16809.60919.44449,0,.26611-.22769.43761-.60919.43761C255.8755,270.9964,255.65131,270.82491,255.65131,270.5554Zm1.078.532a.555.555,0,0,0,.39209-.53911c0-.3989-.3464-.64749-.86459-.64749-.5179,0-.8575.2486-.8575.64749a.55289.55289,0,0,0,.38519.53911.611.611,0,0,0-.4725.60179c0,.434.3569.70361.94481.70361.5845,0,.95209-.26961.95209-.70361A.61684.61684,0,0,0,256.72931,271.0874Zm-2.81731-1.1656v.224h.57739v2.226h.252v-2.45Zm-.3569,2.086a.18317.18317,0,0,0-.18539.1891.17664.17664,0,0,0,.1259.1783l-.11911.50771h.16811l.14709-.483a.57443.57443,0,0,0,.0491-.203A.18322.18322,0,0,0,253.5551,272.0078Zm-1.6064-2.086v.224h.57739v2.226h.252v-2.45Z" transform="translate(-107.3339 -108.4754)" style="fill:#434242"/><path d="M293.0961,287.5374c-.42691,0-.7211-.3605-.7211-1.0148,0-.6545.29419-1.01511.7211-1.01511s.72089.36061.72089,1.01511c0,.6543-.294,1.0148-.72089,1.0148m0,.23109c.567,0,.98-.4655.98-1.2459,0-.78059-.413-1.24609-.98-1.24609s-.9765.4655-.9765,1.24609C292.1196,287.303,292.52921,287.76849,293.0961,287.76849Zm-2.62509-.245.8331-.81889a1.00762,1.00762,0,0,0,.4025-.76651c0-.40959-.31491-.66159-.8121-.66159a1.10133,1.10133,0,0,0-.868.3501l.17862.1539a.832.832,0,0,1,.6684-.273c.37439,0,.574.17491.574.4584,0,.16811-.0524.3325-.3288.6055l-1.01852.9975v.1786h1.71841v-.224Zm-.91-.14a.18316.18316,0,0,0-.1853.1891.17668.17668,0,0,0,.12579.1783l-.119.50771h.16809l.14709-.48311a.57462.57462,0,0,0,.049-.2029A.18322.18322,0,0,0,289.561,287.3835Zm-1.89011.14.8331-.81889a1.00762,1.00762,0,0,0,.4025-.76651c0-.40959-.31488-.66159-.8121-.66159a1.10127,1.10127,0,0,0-.868.3501l.17859.1539a.83212.83212,0,0,1,.6684-.273c.37451,0,.574.17491.574.4584,0,.16811-.0524.3325-.3288.6055l-1.01849.9975v.1786h1.71838v-.224Z" transform="translate(-107.3339 -108.4754)" style="fill:#434242"/><path d="M227.344,297.1772h-.315l.08389-.78059h1.12v-.224h-1.3405l-.12579,1.22861h.52119c.62311,0,.81931.1958.81931.511,0,.2974-.2206.5004-.6373.5004a1.06141,1.06141,0,0,1-.7523-.2835l-.12241.1995a1.26406,1.26406,0,0,0,.8784.315c.5984,0,.889-.3254.889-.7418,0-.4343-.28011-.7246-1.01851-.7246m-1.7813,1.2529c-.42349,0-.64771-.2554-.64771-.5249a.56718.56718,0,0,1,.63011-.5355c.3779,0,.616.2063.616.5284A.53605.53605,0,0,1,225.5627,298.4301Zm.021-1.2739a.78359.78359,0,0,0-.74919.41979c-.00681-.07339-.0105-.14339-.0105-.19949,0-.66471.3396-1.00431.86789-1.00431a.861.861,0,0,1,.4763.11531l.10141-.2029a1.12554,1.12554,0,0,0-.5811-.133c-.665,0-1.1199.434-1.1199,1.26711,0,.7733.35339,1.2249,1.00459,1.2249a.76339.76339,0,0,0,.8365-.7526A.74175.74175,0,0,0,225.58369,297.1562Zm-1.5262,1.10239a.18317.18317,0,0,0-.18539.1891.17666.17666,0,0,0,.1259.1783l-.11909.5077h.16809l.14711-.483a.57372.57372,0,0,0,.049-.203A.18319.18319,0,0,0,224.0575,298.2586Zm-1.6064-2.086v.224h.57741v2.226h.252v-2.45Z" transform="translate(-107.3339 -108.4754)" style="fill:#434242"/><path d="M216.8983,208.0545c-.434,0-.68941-.189-.68941-.4935,0-.301.2554-.49011.68941-.49011s.6931.1891.6931.49011c0,.30449-.25909.4935-.6931.4935m-.6055-1.6239c0-.273.2347-.4411.6055-.4411.36771,0,.60921.16809.60921.4445,0,.2661-.22771.43759-.60921.43759C216.517,206.8716,216.2928,206.7001,216.2928,206.4306Zm1.078.532a.55487.55487,0,0,0,.39209-.53911c0-.3989-.34639-.64749-.86459-.64749-.5179,0-.8575.2486-.8575.64749a.55281.55281,0,0,0,.38519.53911.611.611,0,0,0-.47249.60179c0,.434.35689.70361.94479.70361.5845,0,.95219-.26961.95219-.70361A.61693.61693,0,0,0,217.3708,206.9626Zm-2.7439.0873c-.37791,0-.616-.2063-.616-.52829a.53634.53634,0,0,1,.59871-.5321c.42349,0,.6474.25569.6474.525A.56705.56705,0,0,1,214.62691,207.0499Zm-.0278-1.2739a.76322.76322,0,0,0-.8365.75259.74159.74159,0,0,0,.826.7348.78246.78246,0,0,0,.7489-.4198c.00711.07339.01051.1434.01051.19951,0,.665-.3396,1.00439-.8679,1.00439a.85929.85929,0,0,1-.476-.1154l-.1015.2029a1.12424,1.12424,0,0,0,.5809.133c.665,0,1.11989-.434,1.11989-1.26711C215.60339,206.2276,215.25,205.776,214.59911,205.776Zm-1.3127,2.107a.18318.18318,0,0,0-.18541.1891.17664.17664,0,0,0,.1259.1783l-.11909.50771h.16809l.14711-.483a.57443.57443,0,0,0,.0491-.203A.18322.18322,0,0,0,213.28641,207.883ZM211.68,205.797v.224h.57741v2.226h.252v-2.45Z" transform="translate(-107.3339 -108.4754)" style="fill:#434242"/><path d="M278.41461,153.5545c-.4339,0-.6893-.18912-.6893-.4935,0-.301.2554-.49011.6893-.49011s.69308.18912.69308.49011c0,.30438-.25909.4935-.69308.4935m-.60541-1.624c0-.27292.23471-.441.60541-.441.36768,0,.60919.16809.60919.4444,0,.2662-.2276.43771-.60919.43771C278.03339,152.37161,277.8092,152.2001,277.8092,151.93051Zm1.078.53207a.55493.55493,0,0,0,.392-.53909c0-.3989-.34641-.64749-.86459-.64749-.51782,0-.85742.2486-.85742.64749a.55293.55293,0,0,0,.38522.53909.61093.61093,0,0,0-.4725.60181c0,.434.35678.70361.9447.70361.5845,0,.95218-.26959.95218-.70361A.61687.61687,0,0,0,278.88721,152.46259ZM275.4187,151.297v.68262h.2486v-.45871h1.26l-1.008,2.2261h.273l1.0253-2.27142V151.297Zm-.43741,2.086a.18318.18318,0,0,0-.18539.18912.17675.17675,0,0,0,.12592.17828l-.11911.50769h.16809l.14722-.48309a.57512.57512,0,0,0,.049-.20288A.1832.1832,0,0,0,274.98129,153.383Zm-1.3334-1.0361.69281-.87131V151.297h-1.57489v.22391h1.2529l-.67889.85071v.18539h.1749c.4552,0,.66159.1925.66159.48639,0,.3045-.224.4935-.62991.4935a1.07428,1.07428,0,0,1-.75967-.28339l-.12241.19949a1.27445,1.27445,0,0,0,.88208.315c.59131,0,.889-.315.889-.72461C274.43539,152.6514,274.17291,152.375,273.64789,152.34689Z" transform="translate(-107.3339 -108.4754)" style="fill:#434242"/><line x1="165.12881" y1="9.98621" x2="135.87701" y2="9.98621" style="fill:none;stroke:#b1b2b2;stroke-miterlimit:22.92558479309082;stroke-width:0.2160000056028366px"/><line x1="91.6287" y1="19.23621" x2="66.2896" y2="19.23621" style="fill:none;stroke:#b1b2b2;stroke-miterlimit:22.92558479309082;stroke-width:0.2160000056028366px"/><line x1="27.3787" y1="19.23621" x2="5.002" y2="19.23621" style="fill:none;stroke:#b1b2b2;stroke-miterlimit:22.92558479309082;stroke-width:0.2160000056028366px"/><line x1="27.3787" y1="142.2366" x2="5.3169" y2="142.2366" style="fill:none;stroke:#b1b2b2;stroke-miterlimit:22.92558479309082;stroke-width:0.2160000056028366px"/><line x1="48.12859" y1="190.5066" x2="41.3801" y2="190.5066" style="fill:none;stroke:#b1b2b2;stroke-miterlimit:22.92558479309082;stroke-width:0.2160000056028366px"/><line x1="142.62881" y1="162.7365" x2="135.88039" y2="162.7365" style="fill:none;stroke:#b1b2b2;stroke-miterlimit:22.92558479309082;stroke-width:0.2160000056028366px"/><line x1="178.69091" y1="178.11209" x2="161.48751" y2="178.11209" style="fill:none;stroke:#b1b2b2;stroke-miterlimit:22.92558479309082;stroke-width:0.2160000056028366px"/><line x1="113.44109" y1="188.9873" x2="100.6475" y2="188.9873" style="fill:none;stroke:#b1b2b2;stroke-miterlimit:22.92558479309082;stroke-width:0.2160000056028366px"/><line x1="102.81541" y1="98.61169" x2="88.7513" y2="98.61169" style="fill:none;stroke:#b1b2b2;stroke-miterlimit:22.92558479309082;stroke-width:0.2160000056028366px"/><line x1="164.06561" y1="44.1116" x2="130.3191" y2="44.1116" style="fill:none;stroke:#b1b2b2;stroke-miterlimit:22.92558479309082;stroke-width:0.2160000056028366px"/><line x1="202.29101" y1="9.98621" x2="174.56789" y2="9.98621" style="fill:none;stroke:#b1b2b2;stroke-miterlimit:22.92558479309082;stroke-width:0.2160000056028366px"/><line x1="127.7169" y1="19.23621" x2="101.0678" y2="19.23621" style="fill:none;stroke:#b1b2b2;stroke-miterlimit:22.92558479309082;stroke-width:0.2160000056028366px"/><line x1="63.6874" y1="19.23621" x2="36.8178" y2="19.23621" style="fill:none;stroke:#b1b2b2;stroke-miterlimit:22.92558479309082;stroke-width:0.2160000056028366px"/><line x1="57.859" y1="142.2366" x2="36.8178" y2="142.2366" style="fill:none;stroke:#b1b2b2;stroke-miterlimit:22.92558479309082;stroke-width:0.2160000056028366px"/><line x1="97.56249" y1="190.5066" x2="57.5676" y2="190.5066" style="fill:none;stroke:#b1b2b2;stroke-miterlimit:22.92558479309082;stroke-width:0.2160000056028366px"/><line x1="158.8164" y1="162.7365" x2="152.06789" y2="162.7365" style="fill:none;stroke:#b1b2b2;stroke-miterlimit:22.92558479309082;stroke-width:0.2160000056028366px"/><line x1="204.75179" y1="178.11209" x2="188.13" y2="178.11209" style="fill:none;stroke:#b1b2b2;stroke-miterlimit:22.92558479309082;stroke-width:0.2160000056028366px"/><line x1="133.52061" y1="188.9873" x2="122.8801" y2="188.9873" style="fill:none;stroke:#b1b2b2;stroke-miterlimit:22.92558479309082;stroke-width:0.2160000056028366px"/><line x1="127.0014" y1="98.61169" x2="112.25449" y2="98.61169" style="fill:none;stroke:#b1b2b2;stroke-miterlimit:22.92558479309082;stroke-width:0.2160000056028366px"/><line x1="205.5274" y1="44.1116" x2="173.50469" y2="44.1116" style="fill:none;stroke:#b1b2b2;stroke-miterlimit:22.92558479309082;stroke-width:0.2160000056028366px"/><path d="M309.60541,218.8259c0,.4269-.3606.7211-1.0148.7211-.65451,0-1.01511-.2942-1.01511-.7211s.3606-.72079,1.01511-.72079c.65421,0,1.0148.2939,1.0148.72079m.231,0c0-.56689-.46539-.9799-1.24579-.9799-.7807,0-1.24609.413-1.24609.9799s.46539.9765,1.24609.9765C309.371,219.8024,309.8364,219.39281,309.8364,218.8259Zm-.21341,2.2785c0,.434-.18909.68939-.49359.68939-.301,0-.49008-.25539-.49008-.68939s.18909-.6931.49008-.6931C309.4339,220.4113,309.623,220.67039,309.623,221.1044Zm-1.624.6055c-.273,0-.4411-.2347-.4411-.6055,0-.36771.16812-.60921.44452-.60921.26617,0,.43768.22771.43768.60921C308.44009,221.4857,308.26859,221.7099,307.999,221.7099Zm.5321-1.078a.55507.55507,0,0,0-.53918-.39211c-.3988,0-.6474.34641-.6474.86461,0,.5179.2486.8575.6474.8575a.55309.55309,0,0,0,.53918-.3853.61086.61086,0,0,0,.60181.4726c.4339,0,.70349-.35689.70349-.94479,0-.5845-.26959-.95219-.70349-.95219A.61678.61678,0,0,0,308.5311,220.6319Zm.92041,1.9879a.18315.18315,0,0,0,.189.18541.17664.17664,0,0,0,.17828-.1259l.50772.11909v-.16811l-.483-.14709a.574.574,0,0,0-.203-.0491A.18318.18318,0,0,0,309.45151,222.6198Zm-2.08612,2.1385h.68262v-.2486h-.45862v-1.26l2.226,1.008v-.273l-2.27139-1.0253h-.17862Z" transform="translate(-107.3339 -108.4754)" style="fill:#434242"/><path d="M247.85519,124.7616c0,.42691-.3606.7211-1.0148.7211-.6545,0-1.01509-.29419-1.01509-.7211s.3606-.72089,1.01509-.72089c.65421,0,1.0148.294,1.0148.72089m.231,0c0-.56689-.46539-.97989-1.2458-.97989-.7807,0-1.24609.413-1.24609.97989s.46539.9765,1.24609.9765C247.6208,125.7381,248.0862,125.32849,248.0862,124.7616Zm-.2449,2.62521-.81889-.8331a1.0081,1.0081,0,0,0-.76649-.40262c-.40961,0-.66161.315-.66161.81219a1.101,1.101,0,0,0,.35.86792l.154-.17862a.832.832,0,0,1-.273-.6684c0-.37439.1749-.574.4584-.574.168,0,.33249.05252.60539.32883l.9975,1.01849h.1786v-1.71832h-.22391Zm-.14.90988a.18313.18313,0,0,0,.189.18539.17669.17669,0,0,0,.1783-.12589l.50769.11911v-.16812l-.483-.14719a.57583.57583,0,0,0-.203-.049A.1832.1832,0,0,0,247.70129,128.29669Zm-2.08609,1.60641h.224v-.57739h2.226v-.252h-2.45Z" transform="translate(-107.3339 -108.4754)" style="fill:#434242"/><path d="M114.8854,170.3719h.2239v-.57741h2.226v-.252h-2.4499Zm2.2399,1.18289c0,.42691-.3606.7211-1.0148.7211-.6545,0-1.0151-.29419-1.0151-.7211s.3606-.7209,1.0151-.7209C116.7647,170.83389,117.1253,171.1279,117.1253,171.55479Zm.231,0c0-.56689-.4654-.97989-1.2458-.97989-.78069,0-1.24609.413-1.24609.97989s.4654.9765,1.24609.9765C116.8909,172.5313,117.3563,172.1217,117.3563,171.55479Zm-.3849,1.48761a.18315.18315,0,0,0,.189.18539.17656.17656,0,0,0,.1783-.1259l.5077.11909v-.16809l-.483-.14711a.57388.57388,0,0,0-.203-.04909A.18318.18318,0,0,0,116.9714,173.0424Zm-1.0814,1.5293v.3149l-.7807-.08389v-1.1199h-.2239v1.3405l1.2285.12579v-.5213c0-.623.1959-.8192.5111-.8192.2973,0,.5003.22061.5003.63721a1.06161,1.06161,0,0,1-.2835.7524l.1996.12241a1.26437,1.26437,0,0,0,.3149-.8784c0-.5984-.3254-.889-.7418-.889C116.1802,173.55319,115.89,173.8333,115.89,174.5717Z" transform="translate(-107.3339 -108.4754)" style="fill:#434242"/><path d="M231.893,216.2719c0,.42351-.2554.64771-.525.64771a.56723.56723,0,0,1-.5354-.6301c0-.3779.2063-.616.52831-.616a.53608.53608,0,0,1,.5321.5984m-1.27391-.021a.78349.78349,0,0,0,.4198.74921c-.07339.00679-.1434.0105-.19949.0105-.66479,0-1.0043-.3396-1.0043-.868a.86078.86078,0,0,1,.1153-.4762l-.2029-.1015a1.126,1.126,0,0,0-.133.5811c0,.665.434,1.12,1.26711,1.12.7733,0,1.2249-.3535,1.2249-1.00461a.7634.7634,0,0,0-.75261-.8365A.74176.74176,0,0,0,230.61909,216.2509Zm.5984,1.2458v.49019h-.56689v.2449h.56689v1.0641l-1.582-1.2529v.2798l1.624,1.29849h.1819v-1.38239h.64409v-.252h-.64409v-.49019Zm.504,2.5867a.18314.18314,0,0,0,.1891.18529.17668.17668,0,0,0,.1783-.12579l.50771.119v-.16811l-.48311-.14709a.57487.57487,0,0,0-.2029-.049A.18321.18321,0,0,0,231.7215,220.0834Zm-2.086,1.6064h.22391v-.5775h2.22609v-.252h-2.45Z" transform="translate(-107.3339 -108.4754)" style="fill:#434242"/><path d="M230.64011,162.2597v.31488l-.7807-.08389v-1.1199h-.22391v1.34052l1.2285.12579v-.5213c0-.623.19591-.81918.51111-.81918.29739,0,.50029.22058.50029.63718a1.06167,1.06167,0,0,1-.2834.75241l.19951.12241a1.2645,1.2645,0,0,0,.315-.87842c0-.59839-.3255-.889-.74191-.889-.43419,0-.72449.28009-.72449,1.01849m.24829,1.9845c0,.3779-.20639.616-.5284.616a.53631.53631,0,0,1-.532-.59869c0-.42349.25569-.6474.5249-.6474A.56706.56706,0,0,1,230.8884,164.2442Zm-1.2739.0278a.76322.76322,0,0,0,.75259.83649.74159.74159,0,0,0,.7348-.826.78259.78259,0,0,0-.41989-.7489c.07349-.00711.14349-.0105.1996-.0105.665,0,1.00429.3396,1.00429.868a.85872.85872,0,0,1-.1153.47589l.2029.1015a1.124,1.124,0,0,0,.133-.58081c0-.665-.434-1.12-1.26711-1.12C230.0661,163.2677,229.6145,163.62119,229.6145,164.272Zm2.107,1.31268a.18318.18318,0,0,0,.1891.18542.17667.17667,0,0,0,.1783-.12582l.50771.119v-.16812l-.48311-.14709a.57308.57308,0,0,0-.2029-.049A.18318.18318,0,0,0,231.7215,165.58469Zm-1.0361,1.33353-.87129-.69281h-.1786v1.57489h.22391v-1.2529l.85069.67889h.18539v-.1749c0-.45529.1925-.66159.4864-.66159.3045,0,.4935.22391.4935.62979a1.07415,1.07415,0,0,1-.2834.7597l.19951.1225a1.27478,1.27478,0,0,0,.315-.8822c0-.59128-.315-.88889-.72461-.88889C230.9899,166.13071,230.7135,166.39319,230.68539,166.91821Z" transform="translate(-107.3339 -108.4754)" style="fill:#434242"/><path d="M188.1113,285.8692l-.81889-.8331a1.00775,1.00775,0,0,0-.76651-.4025c-.40959,0-.66159.315-.66159.81219a1.10123,1.10123,0,0,0,.3501.8679l.1539-.1786a.832.832,0,0,1-.273-.6684c0-.3744.1749-.574.45839-.574.16811,0,.3325.05251.6055.3288l.9975,1.01851h.1786V284.5217h-.224Zm.03151,1.6274c0,.434-.1891.68941-.4935.68941-.301,0-.49011-.2554-.49011-.68941s.1891-.6931.49011-.6931C187.9537,286.8035,188.14281,287.06261,188.14281,287.4966Zm-1.624.6055c-.2729,0-.441-.2347-.441-.6055,0-.3676.16809-.6091.4444-.6091.2662,0,.4377.2276.4377.6091C186.9599,287.8779,186.78841,288.1021,186.5188,288.1021Zm.5321-1.078a.55507.55507,0,0,0-.5392-.39209c-.3988,0-.6474.34639-.6474.86459,0,.5179.2486.8575.6474.8575a.553.553,0,0,0,.5392-.38519.61094.61094,0,0,0,.60179.4725c.434,0,.7036-.3569.7036-.94481,0-.5845-.26959-.9521-.7036-.9521A.61687.61687,0,0,0,187.0509,287.02409Zm.92039,1.9879a.18318.18318,0,0,0,.1891.18541.17664.17664,0,0,0,.1783-.1259l.50771.11909v-.16809l-.48311-.14711a.57348.57348,0,0,0-.2029-.0491A.18328.18328,0,0,0,187.9713,289.012Zm-2.086,1.6064h.22391V290.041h2.22609v-.252h-2.45Z" transform="translate(-107.3339 -108.4754)" style="fill:#434242"/><path d="M160.9673,241.0929v.4901h-.56689v.2449h.56689v1.0641l-1.582-1.2529v.2798l1.624,1.2986h.182V241.835h.644v-.252h-.644v-.4901Zm-.3291,3.42311c0,.3779-.2063.616-.52831.616a.53633.53633,0,0,1-.53209-.59871c0-.42349.25569-.6474.525-.6474A.56706.56706,0,0,1,160.6382,244.516Zm-1.2739.02779a.76322.76322,0,0,0,.75259.8365.74159.74159,0,0,0,.7348-.826.78264.78264,0,0,0-.4198-.7489c.07339-.00711.1434-.0105.19949-.0105.665,0,1.0043.3396,1.0043.868a.85925.85925,0,0,1-.1153.47589l.2029.1015a1.12409,1.12409,0,0,0,.133-.5808c0-.6651-.434-1.12-1.26709-1.12C159.8159,243.53951,159.3643,243.893,159.3643,244.54379Zm2.107,1.31271a.18318.18318,0,0,0,.1891.18539.17664.17664,0,0,0,.1783-.1259l.50771.11909V245.867l-.483-.14711a.57379.57379,0,0,0-.203-.049A.1832.1832,0,0,0,161.4713,245.85651Zm-2.086,1.6064h.224v-.57741h2.226v-.252h-2.45Z" transform="translate(-107.3339 -108.4754)" style="fill:#434242"/><line x1="201.32159" y1="117.4774" x2="201.32159" y2="194.84589" style="fill:none;stroke:#b1b2b2;stroke-miterlimit:22.92558479309082;stroke-width:0.2160000056028366px"/><line x1="139.5714" y1="22.97769" x2="139.5714" y2="29.7261" style="fill:none;stroke:#b1b2b2;stroke-miterlimit:22.92558479309082;stroke-width:0.2160000056028366px"/><line x1="8.8415" y1="68.47769" x2="8.8415" y2="114.0307" style="fill:none;stroke:#b1b2b2;stroke-miterlimit:22.92558479309082;stroke-width:0.2160000056028366px"/><line x1="123.59161" y1="114.7278" x2="123.59161" y2="124.2128" style="fill:none;stroke:#b1b2b2;stroke-miterlimit:22.92558479309082;stroke-width:0.2160000056028366px"/><line x1="123.59451" y1="60.7278" x2="123.59451" y2="92.54329" style="fill:none;stroke:#b1b2b2;stroke-miterlimit:22.92558479309082;stroke-width:0.2160000056028366px"/><line x1="79.84139" y1="183.7281" x2="79.84139" y2="194.84589" style="fill:none;stroke:#b1b2b2;stroke-miterlimit:22.92558479309082;stroke-width:0.2160000056028366px"/><line x1="53.3415" y1="140.478" x2="53.3415" y2="156.6301" style="fill:none;stroke:#b1b2b2;stroke-miterlimit:22.92558479309082;stroke-width:0.2160000056028366px"/><line x1="201.32159" y1="39.3999" x2="201.32159" y2="108.03859" style="fill:none;stroke:#b1b2b2;stroke-miterlimit:22.92558479309082;stroke-width:0.2160000056028366px"/><line x1="139.5714" y1="6.7901" x2="139.5714" y2="13.5386" style="fill:none;stroke:#b1b2b2;stroke-miterlimit:22.92558479309082;stroke-width:0.2160000056028366px"/><line x1="8.8415" y1="14.0264" x2="8.8415" y2="59.0386" style="fill:none;stroke:#b1b2b2;stroke-miterlimit:22.92558479309082;stroke-width:0.2160000056028366px"/><line x1="123.59161" y1="95.14549" x2="123.59161" y2="105.2887" style="fill:none;stroke:#b1b2b2;stroke-miterlimit:22.92558479309082;stroke-width:0.2160000056028366px"/><line x1="123.59161" y1="14.0256" x2="123.59161" y2="51.2887" style="fill:none;stroke:#b1b2b2;stroke-miterlimit:22.92558479309082;stroke-width:0.2160000056028366px"/><line x1="79.84139" y1="159.72209" x2="79.84139" y2="174.28909" style="fill:none;stroke:#b1b2b2;stroke-miterlimit:22.92558479309082;stroke-width:0.2160000056028366px"/><line x1="53.3415" y1="118.6657" x2="53.3415" y2="131.03889" style="fill:none;stroke:#b1b2b2;stroke-miterlimit:22.92558479309082;stroke-width:0.2160000056028366px"/></svg>