<svg id="Слой_1" data-name="Слой 1" xmlns="http://www.w3.org/2000/svg" viewBox="0 0 163.4267 137.00722"><title>1.08.15</title><polygon points="157.329 0 157.329 4.893 157.329 70.149 160.529 70.149 160.529 137.007 0 137.007 0 0 157.329 0" style="fill:#fff;fill-rule:evenodd"/><path d="M148.5332,224.7325h-2.5433v6.9599h2.5433Zm4.33609,0h-2.5432v6.9599h2.5432Zm4.4416,4.068h-2.5432v2.89189h2.5432Zm0-4.068h-2.5432v2.89191h2.5432Zm-13.1564,7.07069v-6.9928h-2.539v6.9928Zm15.74561,2.40921V222.21249H135.61481V234.2124Z" transform="translate(-130.88519 -144.38779)" style="fill:#003915;fill-rule:evenodd"/><path d="M137.8553,160.7012V158.158h6.82021v2.54321Zm3.9283,4.44159v-2.54318h2.89191v2.54318Zm-3.96111,0v-2.54318h2.89191v2.54318Zm.03281-10.80368h6.82021v2.54327H137.8553Zm-1.239-1.48672h9.2415V166.1857h-9.2415Z" transform="translate(-130.88519 -144.38779)" style="fill:#003915;fill-rule:evenodd"/><path d="M177.07491,194.4258a.37406.37406,0,0,1-.37471.64751l-13.92009-8.0399a.37405.37405,0,0,1,.37469-.64751Z" transform="translate(-130.88519 -144.38779)" style="fill:#003915"/><path d="M204.1557,207.5202a.374.374,0,1,1-.6474-.37471l8.0399-13.92009a.374.374,0,1,1,.6474.37469Z" transform="translate(-130.88519 -144.38779)" style="fill:#003915"/><path d="M259.56509,221.7708a.374.374,0,0,1,.6474.3748l-8.03989,13.9201a.374.374,0,0,1-.6474-.3748Z" transform="translate(-130.88519 -144.38779)" style="fill:#003915"/><rect x="68.62651" width="2.6022" height="0.62622" style="fill:#003915"/><rect x="67.0921" y="4.05331" width="2.6022" height="38.7468" style="fill:#003915"/><rect x="70.63121" y="4.05331" width="2.6022" height="41.7319" style="fill:#003915"/><rect x="70.63121" y="62.91701" width="2.6022" height="4.76671" style="fill:#003915"/><rect x="47.74681" y="40.21201" width="23.4819" height="2.6022" style="fill:#003915"/><rect x="70.63121" y="65.08151" width="56.03981" height="2.6022" style="fill:#003915"/><rect x="4.90681" y="40.21201" width="27.39259" height="2.6022" style="fill:#003915"/><rect x="5.36661" width="147.68219" height="4.50513" style="fill:#003915"/><rect x="6.1067" y="132.00522" width="157.31999" height="5.002" style="fill:#003915"/><rect width="6.42561" height="45.37141" style="fill:#003915"/><rect y="64.53981" width="6.42561" height="72.2052" style="fill:#003915"/><rect x="6.3468" y="134.34521" width="6.4256" height="2.662" style="fill:#003915"/><rect x="124.41771" y="107.52982" width="8.16011" height="28.01529" style="fill:#003915"/><rect x="124.41771" y="131.79741" width="8.16011" height="5.20981" style="fill:#003915"/><rect x="124.41771" y="65.08151" width="38.87999" height="8.1601" style="fill:#003915"/><rect x="124.41771" y="66.97081" width="8.16011" height="10.50211" style="fill:#003915"/><rect x="149.6282" width="8.1601" height="12.5708" style="fill:#003915"/><rect x="149.6282" y="41.17981" width="8.1601" height="30.0787" style="fill:#003915"/><rect x="149.6282" y="62.61961" width="13.79849" height="10.62199" style="fill:#003915"/><rect x="152.6301" y="27.10352" width="2.29861" height="0.50169" style="fill:#003915"/><rect x="152.6301" y="25.90532" width="2.29861" height="0.50119" style="fill:#003915"/><rect x="152.6301" y="13.26791" width="2.29861" height="0.5014" style="fill:#003915"/><rect x="152.6301" y="12.0697" width="2.29861" height="0.5011" style="fill:#003915"/><rect x="152.6301" y="41.21521" width="2.29861" height="0.50171" style="fill:#003915"/><rect x="152.6301" y="40.01732" width="2.29861" height="0.50119" style="fill:#003915"/><rect x="149.6282" y="10.01282" width="0.5015" height="34.09369" style="fill:#003915"/><rect x="152.47531" y="10.01282" width="0.5015" height="34.09369" style="fill:#003915"/><rect x="154.6467" y="10.01282" width="0.5014" height="34.09369" style="fill:#003915"/><rect x="157.28772" y="10.01282" width="0.5015" height="34.09369" style="fill:#003915"/><path d="M260.1153,240.81509H258.4454v-.697h1.66989Zm0,13.5692H258.4454V241.3166h1.66989Zm0,1.19821H258.4454v-.6971h1.66989Zm-1.66989.50169h1.66989v5.7895h.5015V240.1181h2.34561v21.7556h.5015V239.6169h-8.161V261.8737h.5015V240.1181h2.1396v18.0518h.5014Z" transform="translate(-130.88519 -144.38779)" style="fill:#003915;fill-rule:evenodd"/><rect x="158.27161" y="112.33171" width="1.29721" height="0.44701" style="fill:#003915"/><rect x="158.27161" y="111.26381" width="1.29721" height="0.44681" style="fill:#003915"/><rect x="158.27161" y="93.72961" width="1.29721" height="0.44699" style="fill:#003915"/><rect x="158.27161" y="92.66182" width="1.29721" height="0.44669" style="fill:#003915"/><rect x="158.27161" y="75.12721" width="1.29721" height="0.44701" style="fill:#003915"/><rect x="158.27161" y="74.05942" width="1.29721" height="0.4467" style="fill:#003915"/><rect x="158.27161" y="130.93401" width="1.29721" height="0.44701" style="fill:#003915"/><rect x="158.27161" y="129.86621" width="1.29721" height="0.4467" style="fill:#003915"/><rect x="160.35141" y="71.99271" width="0.44669" height="60.8213" style="fill:#003915"/><rect x="159.2601" y="71.99271" width="0.44672" height="60.8213" style="fill:#003915"/><rect x="158.1792" y="71.99271" width="0.44672" height="60.8213" style="fill:#003915"/><rect x="158.27161" y="136.40352" width="1.29721" height="0.4467" style="fill:#003915"/><rect x="160.35141" y="134.33672" width="0.44669" height="2.6705" style="fill:#003915"/><rect x="159.2601" y="134.33672" width="0.44672" height="2.6705" style="fill:#003915"/><rect x="158.1792" y="134.33672" width="0.44672" height="2.6705" style="fill:#003915"/><path d="M178.9673,149.2478H169.145a.90527.90527,0,0,0-.90541.904v4.61029a4.59575,4.59575,0,0,0,4.5896,4.591h2.45221a4.59574,4.59574,0,0,0,4.5905-4.591v-4.61029a.90478.90478,0,0,0-.9046-.904m-6.13811,9.8606a4.35093,4.35093,0,0,1-4.34489-4.34631v-4.61029a.66134.66134,0,0,1,.66071-.65988h9.8223a.66065.66065,0,0,1,.6599.65988v4.61029a4.35132,4.35132,0,0,1-4.34579,4.34631Z" transform="translate(-130.88519 -144.38779)" style="fill:#003915"/><path d="M172.8295,158.01819a3.25876,3.25876,0,0,1-3.2545-3.2561V152.074a.56784.56784,0,0,1,.5672-.5675h3.57541v-.24521H170.1422a.814.814,0,0,0-.81239.81271v2.68808a3.50416,3.50416,0,0,0,3.49969,3.50082h2.45219a3.50478,3.50478,0,0,0,3.50081-3.50082V152.074a.81448.81448,0,0,0-.81351-.81271H174.3936v.24521H177.969a.56819.56819,0,0,1,.5683.5675v2.68808a3.25931,3.25931,0,0,1-3.2556,3.2561Z" transform="translate(-130.88519 -144.38779)" style="fill:#003915"/><path d="M174.0563,154.41449a.78351.78351,0,1,0,.7838.78351.78482.78482,0,0,0-.7838-.78351m0,1.32242a.53871.53871,0,1,1,.5392-.53891A.53971.53971,0,0,1,174.0563,155.73691Z" transform="translate(-130.88519 -144.38779)" style="fill:#003915"/><rect x="43.04871" y="10.25153" width="0.2449" height="1.11658" style="fill:#003915"/><rect x="42.6127" y="10.68723" width="1.11601" height="0.24548" style="fill:#003915"/><path d="M174.3936,150.43021h.4037a.17362.17362,0,0,1,.1729.174v.3793a.17364.17364,0,0,1-.1729.174h-.4037v.2449h.4037a.41861.41861,0,0,0,.41809-.41891v-.3793a.41862.41862,0,0,0-.41809-.4187h-.40561l.00191.03741Zm-1.0771.72729a.17449.17449,0,0,1-.1741-.174v-.3793a.17446.17446,0,0,1,.1741-.174h.40111v-.20731l.0022-.03741h-.40331a.41857.41857,0,0,0-.4187.4187v.3793a.41856.41856,0,0,0,.4187.41891h.40111v-.2449Z" transform="translate(-130.88519 -144.38779)" style="fill:#003915"/><path d="M174.0563,149.7626a.461.461,0,0,0-.46121.4603v3.08051a.4605.4605,0,0,0,.921,0V150.2229a.46059.46059,0,0,0-.45979-.4603m0,3.75681a.21683.21683,0,0,1-.21631-.216V150.2229a.2156.2156,0,0,1,.4312,0v3.08051A.21614.21614,0,0,1,174.0563,153.51941Z" transform="translate(-130.88519 -144.38779)" style="fill:#003915"/><path d="M153.2489,163.247a3.9169,3.9169,0,0,1-3.9115-3.9129V153.6687a.67729.67729,0,0,1,.456-.63919,1.24062,1.24062,0,0,1-.20349-.20493.94581.94581,0,0,0-.52161.84412v5.66541a4.18085,4.18085,0,1,0,8.36169,0V153.6687a.94527.94527,0,0,0-.521-.84351,1.2451,1.2451,0,0,1-.20329.20459.67638.67638,0,0,1,.4556.63892v5.66541a3.91715,3.91715,0,0,1-3.9124,3.9129" transform="translate(-130.88519 -144.38779)" style="fill:#003915"/><path d="M156.0526,154.7496h-5.6089a.20391.20391,0,0,0-.2012.20151v4.27069a3.00655,3.00655,0,1,0,6.01311,0v-4.27069a.20467.20467,0,0,0-.203-.20151m-5.5414.26819h5.47591v4.204a2.738,2.738,0,0,1-5.47591,0Z" transform="translate(-130.88519 -144.38779)" style="fill:#003915"/><path d="M153.2486,157.4805a1.00815,1.00815,0,1,0,1.0088,1.008,1.01007,1.01007,0,0,0-1.0088-1.008m0,1.7475a.7394.7394,0,1,1,.73981-.7395A.74038.74038,0,0,1,153.2486,159.228Z" transform="translate(-130.88519 -144.38779)" style="fill:#003915"/><rect x="151.49291" y="155.28319" width="0.26853" height="2.24222" transform="translate(-194.30811 -22.7191) rotate(-36.71314)" style="fill:#003915"/><rect x="153.70496" y="156.26992" width="2.24307" height="0.26917" transform="translate(-194.04563 42.27077) rotate(-53.19201)" style="fill:#003915"/><path d="M155.9494,149.2478h-5.4005a1.3551,1.3551,0,0,0-1.3524,1.35388v1.4743a1.35351,1.35351,0,0,0,1.3524,1.35242h5.4005a1.35321,1.35321,0,0,0,1.3519-1.35242v-1.4743a1.35479,1.35479,0,0,0-1.3519-1.35388m-5.4005,3.91211a1.0855,1.0855,0,0,1-1.0843-1.08392v-1.4743a1.08593,1.08593,0,0,1,1.0843-1.08508h5.4005a1.08593,1.08593,0,0,1,1.08369,1.08508v1.4743a1.0855,1.0855,0,0,1-1.08369,1.08392Z" transform="translate(-130.88519 -144.38779)" style="fill:#003915"/><path d="M153.2486,150.65009a.68811.68811,0,1,0,.68831.68741.68817.68817,0,0,0-.68831-.68741m0,1.10721a.4192.4192,0,1,1,.41951-.4198A.41942.41942,0,0,1,153.2486,151.75729Z" transform="translate(-130.88519 -144.38779)" style="fill:#003915"/><path d="M138.0932,176.1747h0v7.83951h11.3479V176.1747Zm-.3308,8.1709V175.843h12.0098v8.50259Z" transform="translate(-130.88519 -144.38779)" style="fill:#003915"/><path d="M140.48759,175.9502a.6044.6044,0,0,1,.59361-.61259h5.37219a.604.604,0,0,1,.5938.61259h-.3308a.26967.26967,0,0,0-.263-.2809h-5.37219a.26951.26951,0,0,0-.2628.2809Z" transform="translate(-130.88519 -144.38779)" style="fill:#003915"/><path d="M142.74541,178.5768h0v2.7076l1.59729.6217a2.47409,2.47409,0,0,0-.0918-1.6747,4.15143,4.15143,0,0,1-.2413-1.2408,2.44738,2.44738,0,0,1,.18831-.93651Zm-.33081,2.9341V178.344l2.48-.892-.22481.39061a2.26685,2.26685,0,0,0-.32941,1.148,3.8904,3.8904,0,0,0,.22681,1.1438,3.89734,3.89734,0,0,1,.2282,1.1441,2.0159,2.0159,0,0,1-.218.9124l-.0674.1358Z" transform="translate(-130.88519 -144.38779)" style="fill:#003915"/><path d="M183.0016,151.399v30.085a2.161,2.161,0,0,0,2.1657,2.1515h10.4113a2.1609,2.1609,0,0,0,2.166-2.1515V151.399a2.16084,2.16084,0,0,0-2.166-2.15118H185.1673a2.161,2.161,0,0,0-2.1657,2.15118m14.51309,30.085a1.9311,1.9311,0,0,1-1.9361,1.92191H185.1673a1.931,1.931,0,0,1-1.9355-1.92191V151.399a1.9314,1.9314,0,0,1,1.9355-1.92209h10.4113a1.93153,1.93153,0,0,1,1.9361,1.92209Z" transform="translate(-130.88519 -144.38779)" style="fill:#003915"/><path d="M196.2527,178.49831a2.577,2.577,0,0,1-2.58211,2.56529h-6.59479a2.57657,2.57657,0,0,1-2.5818-2.56529V154.3851a2.57717,2.57717,0,0,1,2.5818-2.566h2.062a.39618.39618,0,0,1-.14211-.22818h-1.91989a2.80638,2.80638,0,0,0-2.8125,2.79419v24.1132a2.80655,2.80655,0,0,0,2.8125,2.7943h6.59479a2.80651,2.80651,0,0,0,2.8123-2.7943V154.3851a2.80634,2.80634,0,0,0-2.8123-2.79419H191.7505a.39523.39523,0,0,1-.14151.22818h2.0616a2.57757,2.57757,0,0,1,2.58211,2.566Z" transform="translate(-130.88519 -144.38779)" style="fill:#003915"/><path d="M194.93941,176.95081a1.26669,1.26669,0,0,1-1.26881,1.2612h-6.59479a1.26642,1.26642,0,0,1-1.2682-1.2612V154.3851a1.26628,1.26628,0,0,1,1.2682-1.26151h2.84489v-.2287h-2.84489a1.49619,1.49619,0,0,0-1.4989,1.4902v22.5657a1.49562,1.49562,0,0,0,1.4989,1.48929h6.59479a1.49526,1.49526,0,0,0,1.499-1.48929V154.3851a1.49583,1.49583,0,0,0-1.499-1.4902H190.8255v.2287h2.84509a1.26655,1.26655,0,0,1,1.26881,1.26151Z" transform="translate(-130.88519 -144.38779)" style="fill:#003915"/><path d="M189.6403,156.29019a.73335.73335,0,1,0,.73369-.72989.73154.73154,0,0,0-.73369.72989m1.2365,0a.50331.50331,0,1,1-.50281-.50031A.50185.50185,0,0,1,190.8768,156.29019Z" transform="translate(-130.88519 -144.38779)" style="fill:#003915"/><rect x="58.9655" y="11.78732" width="1.0457" height="0.2294" style="fill:#003915"/><rect x="59.37341" y="11.38312" width="0.2307" height="1.03778" style="fill:#003915"/><path d="M189.9207,151.79019h-.53751a.27988.27988,0,0,1-.28029-.27859v-.50519a.2804.2804,0,0,1,.28029-.27921h.53751v-.2287h-.53751a.51032.51032,0,0,0-.511.5079v.50519a.50971.50971,0,0,0,.511.50742h.53751Zm1.722-.27859a.27975.27975,0,0,1-.28.27859h-.5372v.22882h.5372a.50934.50934,0,0,0,.5108-.50742v-.50519a.51.51,0,0,0-.5108-.5079h-.5372v.2287h.5372a.28027.28027,0,0,1,.28.27921Z" transform="translate(-130.88519 -144.38779)" style="fill:#003915"/><path d="M189.8053,150.50049v3.20111a.56766.56766,0,0,0,1.1353,0v-3.20111a.56766.56766,0,0,0-1.1353,0m.90511,3.20111a.33715.33715,0,0,1-.6743,0v-3.20111a.33716.33716,0,0,1,.6743,0Z" transform="translate(-130.88519 -144.38779)" style="fill:#003915"/><path d="M137.7164,236.2749V248.044h11.76891V236.2749Zm.2495,11.5197V236.524H149.2364v11.2706Z" transform="translate(-130.88519 -144.38779)" style="fill:#003915"/><path d="M148.38721,242.1593a3.91956,3.91956,0,0,1-7.7142.9816.30008.30008,0,0,1-.1976.0743h-.0405a4.16846,4.16846,0,1,0-.00031-2.1115h.0408a.29843.29843,0,0,1,.1973.074,3.91973,3.91973,0,0,1,7.71451.9816" transform="translate(-130.88519 -144.38779)" style="fill:#003915"/><path d="M140.9865,242.1593a3.4815,3.4815,0,1,0,3.48181-3.4812,3.48578,3.48578,0,0,0-3.48181,3.4812m6.71361,0a3.23195,3.23195,0,1,1-3.2318-3.2318A3.23549,3.23549,0,0,1,147.7001,242.1593Z" transform="translate(-130.88519 -144.38779)" style="fill:#003915"/><path d="M143.5657,242.1593a.9023.9023,0,1,0,.9026-.9026.90334.90334,0,0,0-.9026.9026m1.55569,0a.65295.65295,0,1,1-.65309-.65311A.65425.65425,0,0,1,145.1214,242.1593Z" transform="translate(-130.88519 -144.38779)" style="fill:#003915"/><rect x="12.9257" y="97.64682" width="1.3139" height="0.24939" style="fill:#003915"/><rect x="13.45781" y="97.11472" width="0.24969" height="1.3136" style="fill:#003915"/><path d="M139.66161,241.40559v1.5074a.427.427,0,0,0,.42659.42661h.38721a.42679.42679,0,0,0,.42659-.42661v-1.5074a.42688.42688,0,0,0-.42659-.4267h-.38721a.42708.42708,0,0,0-.42659.4267m.991,1.5074a.17773.17773,0,0,1-.1772.17751h-.38721a.17754.17754,0,0,1-.1772-.17751v-1.5074a.17729.17729,0,0,1,.1772-.1772h.38721a.17748.17748,0,0,1,.1772.1772Z" transform="translate(-130.88519 -144.38779)" style="fill:#003915"/><path d="M139.7863,242.3793h-.0865a.2197.2197,0,0,1,0-.43941h.0865v-.24969h-.0865a.4694.4694,0,0,0,0,.9388h.0865Zm2.59-.22a.22049.22049,0,0,1-.22049.22H140.7773v.24969h1.37851a.4694.4694,0,1,0,0-.9388H140.7773v.24969h1.37851A.22.22,0,0,1,142.3763,242.1593Z" transform="translate(-130.88519 -144.38779)" style="fill:#003915"/><path d="M138.1978,264.93961V257.783a1.49612,1.49612,0,0,1,1.49471-1.49411h8.29869a1.496,1.496,0,0,1,1.49411,1.49411v7.1566a1.49563,1.49563,0,0,1-1.49411,1.49419H139.6925a1.49574,1.49574,0,0,1-1.49471-1.49419m11.0545-7.1566a1.26263,1.26263,0,0,0-1.26111-1.26111H139.6925a1.26275,1.26275,0,0,0-1.2617,1.26111v7.1566a1.263,1.263,0,0,0,1.2617,1.26169h8.29869a1.26288,1.26288,0,0,0,1.26111-1.26169Z" transform="translate(-130.88519 -144.38779)" style="fill:#003915"/><path d="M139.01669,264.93961V257.783a.67624.67624,0,0,1,.67581-.67581h7.01059a.67643.67643,0,0,1,.67581.67581v7.1566a.67649.67649,0,0,1-.67581.67639H139.6925a.67629.67629,0,0,1-.67581-.67639m8.12921-7.1566a.44324.44324,0,0,0-.44281-.443H139.6925a.44342.44342,0,0,0-.4431.443v7.1566a.4438.4438,0,0,0,.4431.44389h7.01059a.44362.44362,0,0,0,.44281-.44389Z" transform="translate(-130.88519 -144.38779)" style="fill:#003915"/><path d="M147.79761,258.4832a.4742.4742,0,1,1,.4742.4742.475.475,0,0,1-.4742-.4742m.71539,0a.2412.2412,0,1,0-.2412.2415A.2418.2418,0,0,0,148.513,258.4832Z" transform="translate(-130.88519 -144.38779)" style="fill:#003915"/><path d="M147.79761,260.08389a.4742.4742,0,1,1,.4742.47481.47494.47494,0,0,1-.4742-.47481m.71539,0a.2412.2412,0,1,0-.2412.24181A.24147.24147,0,0,0,148.513,260.08389Z" transform="translate(-130.88519 -144.38779)" style="fill:#003915"/><rect x="10.27391" y="113.64861" width="0.2327" height="2.7196" style="fill:#003915"/><rect x="9.0298" y="114.89221" width="2.7196" height="0.2327" style="fill:#003915"/><path d="M140.37849,259.39619a.89685.89685,0,1,1,.8968.89661.89788.89788,0,0,1-.8968-.89661m1.561,0a.6643.6643,0,1,0-.6642.66391A.66555.66555,0,0,0,141.9395,259.39619Z" transform="translate(-130.88519 -144.38779)" style="fill:#003915"/><rect x="14.11911" y="113.64861" width="0.2325" height="2.7196" style="fill:#003915"/><rect x="12.87471" y="114.89221" width="2.7204" height="0.2327" style="fill:#003915"/><path d="M144.22279,259.39619a.89716.89716,0,1,1,.89751.89661.89861.89861,0,0,1-.89751-.89661m1.5619,0a.66475.66475,0,1,0-.6644.66391A.6654.6654,0,0,0,145.7847,259.39619Z" transform="translate(-130.88519 -144.38779)" style="fill:#003915"/><rect x="10.27391" y="117.57941" width="0.2327" height="2.7193" style="fill:#003915"/><rect x="9.0298" y="118.82301" width="2.7196" height="0.233" style="fill:#003915"/><path d="M140.37849,263.3273a.89685.89685,0,1,1,.8968.8969.89775.89775,0,0,1-.8968-.8969m1.561,0a.6643.6643,0,1,0-.6642.66389A.66607.66607,0,0,0,141.9395,263.3273Z" transform="translate(-130.88519 -144.38779)" style="fill:#003915"/><rect x="14.11911" y="117.57941" width="0.2325" height="2.7193" style="fill:#003915"/><rect x="12.87471" y="118.82301" width="2.7204" height="0.233" style="fill:#003915"/><path d="M144.22279,263.3273a.89716.89716,0,1,1,.89751.8969.89848.89848,0,0,1-.89751-.8969m1.5619,0a.66475.66475,0,1,0-.6644.66389A.66592.66592,0,0,0,145.7847,263.3273Z" transform="translate(-130.88519 -144.38779)" style="fill:#003915"/><path d="M147.79761,262.7975a.4742.4742,0,1,1,.4742.4745.47483.47483,0,0,1-.4742-.4745m.71539,0a.2412.2412,0,1,0-.2412.24181A.2416.2416,0,0,0,148.513,262.7975Z" transform="translate(-130.88519 -144.38779)" style="fill:#003915"/><path d="M147.79761,264.39909a.4742.4742,0,1,1,.4742.47391.47463.47463,0,0,1-.4742-.47391m.71539,0a.2412.2412,0,1,0-.2412.2415A.24153.24153,0,0,0,148.513,264.39909Z" transform="translate(-130.88519 -144.38779)" style="fill:#003915"/><path d="M139.26981,150.30151a.80923.80923,0,1,0,.2347.57089.80981.80981,0,0,0-.2347-.57089m-.5726-1.03641a1.60706,1.60706,0,1,1-1.1364.47058A1.60265,1.60265,0,0,1,138.6972,149.26511Z" transform="translate(-130.88519 -144.38779)" style="fill:#003915"/><rect x="65.49171" width="4.66379" height="0.62622" style="fill:#003915"/><path d="M249.0528,182.27969c-.73189,0-1.2359-.618-1.2359-1.7399s.504-1.7399,1.2359-1.7399,1.2359.6179,1.2359,1.7399-.504,1.7399-1.2359,1.7399m0,.396c.972,0,1.67981-.798,1.67981-2.13591s-.70781-2.13589-1.67981-2.13589-1.6738.7979-1.6738,2.13589S248.0808,182.67571,249.0528,182.67571ZM243.845,178.4399v1.1698h.4261v-.786h2.16l-1.728,3.816h.468l1.758-3.894v-.3058Zm-.7498,3.5759a.314.314,0,0,0-.318.324.30311.30311,0,0,0,.216.3058l-.2041.87h.288l.252-.828a.97605.97605,0,0,0,.0842-.34781A.314.314,0,0,0,243.0952,182.01579Zm-2.7541-3.5759v.3838h.99011v3.816h.432v-4.1998Zm-2.166,0v.3838h.9902v3.816h.432v-4.1998Z" transform="translate(-130.88519 -144.38779)" style="fill:#83746c;fill-rule:evenodd"/><path d="M212.3481,252.1109c-.7319,0-1.2359-.618-1.2359-1.7399s.504-1.7399,1.2359-1.7399,1.2359.61789,1.2359,1.7399-.504,1.7399-1.2359,1.7399m0,.396c.972,0,1.67979-.798,1.67979-2.13589s-.70779-2.13591-1.67979-2.13591-1.6738.79791-1.6738,2.13591S211.3761,252.5069,212.3481,252.5069Zm-3.9659-2.5141h-.54l.144-1.33791h1.91989v-.38379h-2.29779l-.216,2.10579h.8941c1.06779,0,1.40369.33591,1.40369.8759,0,.51-.3779.85811-1.09189.85811a1.8214,1.8214,0,0,1-1.2901-.4859l-.2097.3419a2.16855,2.16855,0,0,0,1.50569.54c1.0262,0,1.52391-.55789,1.52391-1.2719C210.128,250.49091,209.6481,249.9928,208.3822,249.9928Zm-2.04581,1.8542a.314.314,0,0,0-.318.324.303.303,0,0,0,.216.3058l-.2041.87h.288l.252-.828a.97605.97605,0,0,0,.0842-.34779A.314.314,0,0,0,206.3364,251.847Zm-2.56189.2639c-.7319,0-1.2359-.618-1.2359-1.7399s.504-1.7399,1.2359-1.7399,1.2359.61789,1.2359,1.7399S204.50639,252.1109,203.77451,252.1109Zm0,.396c.972,0,1.67979-.798,1.67979-2.13589s-.70779-2.13591-1.67979-2.13591-1.6739.79791-1.6739,2.13591S202.80251,252.5069,203.77451,252.5069Zm-4.5-.42011,1.4281-1.40369a1.729,1.729,0,0,0,.6899-1.31421c0-.7018-.54-1.1338-1.39211-1.1338a1.88741,1.88741,0,0,0-1.4879.59981l.30591.26421a1.426,1.426,0,0,1,1.146-.468c.64211,0,.9839.2999.9839.786,0,.2877-.0898.56979-.5638,1.0378l-1.74611,1.7101v.30591h2.946v-.38411Z" transform="translate(-130.88519 -144.38779)" style="fill:#83746c;fill-rule:evenodd"/><path d="M150.529,203.1313c-.7319,0-1.2359-.6179-1.2359-1.7399s.504-1.7399,1.2359-1.7399,1.23589.618,1.23589,1.7399-.504,1.7399-1.23589,1.7399m0,.396c.972,0,1.67989-.7979,1.67989-2.13589s-.70789-2.13591-1.67989-2.13591-1.67381.798-1.67381,2.13591S149.557,203.5273,150.529,203.5273Zm-3.96591-2.514h-.54l.144-1.338H148.087v-.38379H145.7892l-.216,2.1059h.8941c1.06779,0,1.4037.33591,1.4037.8759,0,.5099-.3779.858-1.0919.858a1.82182,1.82182,0,0,1-1.2901-.48581l-.2097.34181a2.16812,2.16812,0,0,0,1.50571.54c1.0262,0,1.5239-.5578,1.5239-1.2719C148.3089,201.51131,147.829,201.01331,146.5631,201.01331Zm-2.04579,1.8541a.31406.31406,0,0,0-.318.324.30311.30311,0,0,0,.216.30589l-.2041.8699h.288l.252-.828a.97589.97589,0,0,0,.0842-.34779A.314.314,0,0,0,144.5173,202.8674Zm-2.7541-3.5759v.38379h.9901v3.816h.432v-4.1998Z" transform="translate(-130.88519 -144.38779)" style="fill:#83746c;fill-rule:evenodd"/><path d="M281.05139,249.6317c-.7319,0-1.2359-.6179-1.2359-1.7399s.504-1.7399,1.2359-1.7399,1.2359.6179,1.2359,1.7399-.504,1.7399-1.2359,1.7399m0,.396c.972,0,1.67981-.7979,1.67981-2.13589s-.70779-2.13589-1.67981-2.13589-1.6738.7979-1.6738,2.13589S280.07941,250.02769,281.05139,250.02769Zm-2.0701-1.5239h-.8399v-.972h-.4198v.972h-1.8241l2.1481-2.7119h-.48019l-2.2258,2.78391v.3118h2.36981v1.1041h.432v-1.1041h.8399Zm-4.43369.864a.314.314,0,0,0-.318.324.3031.3031,0,0,0,.216.30589l-.2041.8699h.288l.252-.828a.97572.97572,0,0,0,.0842-.34779A.314.314,0,0,0,274.54761,249.3678Zm-2.2861-1.77589,1.188-1.49411v-.30589h-2.7v.3838h2.1481l-1.16391,1.4581v.3181h.2999c.77979,0,1.13379.32989,1.13379.83389,0,.5219-.38379.8459-1.08.8459a1.8411,1.8411,0,0,1-1.30191-.4859l-.21008.3419a2.18463,2.18463,0,0,0,1.512.54c1.014,0,1.5239-.54,1.5239-1.2419C273.6113,248.1138,273.1615,247.6398,272.26151,247.5919Z" transform="translate(-130.88519 -144.38779)" style="fill:#83746c;fill-rule:evenodd"/><path d="M173.2309,172.6796c-.7319,0-1.2359-.618-1.2359-1.7399s.504-1.7399,1.2359-1.7399,1.2359.6179,1.2359,1.7399-.504,1.7399-1.2359,1.7399m0,.396c.972,0,1.67981-.798,1.67981-2.13589s-.70781-2.13589-1.67981-2.13589-1.67389.7979-1.67389,2.13589S172.2589,173.07559,173.2309,173.07559Zm-3.97189-.396c-.7319,0-1.2359-.618-1.2359-1.7399s.504-1.7399,1.2359-1.7399,1.2359.6179,1.2359,1.7399S169.99091,172.6796,169.259,172.6796Zm0,.396c.972,0,1.67979-.798,1.67979-2.13589s-.70779-2.13589-1.67979-2.13589-1.6739.7979-1.6739,2.13589S168.287,173.07559,169.259,173.07559Zm-2.5498-.6599a.31409.31409,0,0,0-.3181.324.30312.30312,0,0,0,.216.3058l-.204.87h.288l.252-.828a.97778.97778,0,0,0,.08411-.34779A.314.314,0,0,0,166.7092,172.4157Zm-2.6221-1.8542h-.54l.144-1.33789h1.92v-.38379h-2.29781l-.216,2.10579h.894c1.06779,0,1.40379.33589,1.40379.8759,0,.51-.3779.85809-1.092.85809a1.821,1.821,0,0,1-1.29-.4859l-.20981.3419a2.16867,2.16867,0,0,0,1.5058.54c1.02611,0,1.5239-.55789,1.5239-1.2719C165.833,171.0596,165.3531,170.56149,164.0871,170.56149Z" transform="translate(-130.88519 -144.38779)" style="fill:#83746c;fill-rule:evenodd"/><path d="M134.765,195.5676a3.90785,3.90785,0,1,1-3.87981,4.3759v-.93629a3.90882,3.90882,0,0,1,3.87981-3.43961" transform="translate(-130.88519 -144.38779)" style="fill:#558e42;fill-rule:evenodd"/><polygon points="6.284 55.087 4.969 54.709 3.654 54.331 3.654 55.087 3.654 55.844 4.969 55.466 6.284 55.087" style="fill:#fdfdfd;fill-rule:evenodd"/><rect x="1.47571" y="54.90851" width="2.2814" height="0.38411" style="fill:#fdfdfd"/><path d="M242.9935,153.4913c-.42349,0-.64771-.2554-.64771-.525a.56716.56716,0,0,1,.63011-.5354c.3779,0,.616.2063.616.52829a.53613.53613,0,0,1-.5984.5321m.021-1.2739a.7834.7834,0,0,0-.74919.4198c-.00681-.07339-.0105-.1434-.0105-.19949,0-.66483.3396-1.00442.86789-1.00442a.86115.86115,0,0,1,.4763.11542l.10139-.20291a1.12561,1.12561,0,0,0-.5811-.133c-.665,0-1.11989.434-1.11989,1.26709,0,.77332.3535,1.22482,1.00459,1.22482a.76335.76335,0,0,0,.8365-.75262A.74173.74173,0,0,0,243.0145,152.21741Zm-2.31709,1.2739c-.434,0-.68941-.18912-.68941-.4935,0-.30112.2554-.49011.68941-.49011s.6931.189.6931.49011C241.3905,153.30219,241.13139,153.4913,240.6974,153.4913Zm-.6055-1.624c0-.273.2347-.441.6055-.441.36769,0,.60919.168.60919.4444,0,.2662-.2276.43771-.60919.43771C240.31619,152.30841,240.0919,152.1369,240.0919,151.86731Zm1.07809.5321a.555.555,0,0,0,.392-.53922c0-.3988-.34639-.6474-.86459-.6474-.5179,0-.8575.2486-.8575.6474a.55311.55311,0,0,0,.3853.53922.6109.6109,0,0,0-.47261.60178c0,.434.3569.70352.94481.70352.5845,0,.95219-.2695.95219-.70352A.61683.61683,0,0,0,241.17,152.39941Zm-1.988.92038a.18318.18318,0,0,0-.18541.18912.17674.17674,0,0,0,.1259.17828l-.11909.50769h.16809l.14711-.48309a.57348.57348,0,0,0,.0491-.20288A.18321.18321,0,0,0,239.182,153.31979Zm-1.3334-1.0361.69279-.87128v-.17862h-1.57489v.22391h1.2529l-.67891.85071v.18539h.1749c.4552,0,.66161.1925.66161.48639,0,.30441-.224.4935-.6299.4935a1.07433,1.07433,0,0,1-.7597-.28339l-.12239.19949a1.27425,1.27425,0,0,0,.8821.31491c.59129,0,.889-.31491.889-.72452C238.63609,152.5882,238.3736,152.3118,237.8486,152.28369Z" transform="translate(-130.88519 -144.38779)" style="fill:#434242"/><path d="M168.5455,181.4868c-.3779,0-.616-.2063-.616-.5284a.5363.5363,0,0,1,.59869-.532c.42351,0,.6474.25569.6474.525a.56705.56705,0,0,1-.6301.5354m-.0278-1.2739a.76323.76323,0,0,0-.8365.75259.7416.7416,0,0,0,.826.7348.78267.78267,0,0,0,.7489-.4198c.0071.07339.0105.1434.0105.19949,0,.665-.3396,1.0043-.868,1.0043a.8593.8593,0,0,1-.47591-.1153l-.1015.2029a1.12391,1.12391,0,0,0,.5808.133c.6651,0,1.12-.434,1.12-1.26709C169.522,180.66451,169.1685,180.21291,168.5177,180.21291Zm-2.10361,2.26089c-.4269,0-.7211-.3605-.7211-1.0148,0-.6545.2942-1.015.7211-1.015s.7209.3605.7209,1.015C167.135,182.1133,166.841,182.4738,166.41409,182.4738Zm0,.23109c.56691,0,.9799-.4655.9799-1.2459,0-.78059-.413-1.24609-.9799-1.24609s-.97649.4655-.97649,1.24609C165.43761,182.2394,165.8472,182.7049,166.41409,182.7049Zm-1.48759-.385a.18317.18317,0,0,0-.18539.1891.17664.17664,0,0,0,.1259.1783l-.11911.50769h.16811l.14709-.483a.57409.57409,0,0,0,.0491-.203A.18321.18321,0,0,0,164.9265,182.3199Zm-1.3334-1.036.69281-.8714v-.1786h-1.575v.22389h1.2529l-.67891.85071v.18539h.1749c.45531,0,.66161.1925.66161.4864,0,.3045-.22389.4935-.62981.4935a1.0743,1.0743,0,0,1-.75969-.2834l-.1225.19949a1.27473,1.27473,0,0,0,.88219.315c.59131,0,.8889-.315.8889-.72459C164.38049,181.5883,164.118,181.3119,163.59309,181.28391Z" transform="translate(-130.88519 -144.38779)" style="fill:#434242"/><path d="M199.06841,273.72389c-.42691,0-.72121-.36049-.72121-1.01479,0-.65451.2943-1.01511.72121-1.01511s.72079.3606.72079,1.01511c0,.6543-.2939,1.01479-.72079,1.01479m0,.231c.56689,0,.97989-.46539.97989-1.24579,0-.78061-.413-1.24611-.97989-1.24611s-.97661.4655-.97661,1.24611C198.0918,273.4895,198.5014,273.9549,199.06841,273.9549Zm-2.31711-1.218c-.37779,0-.61589-.20639-.61589-.5284a.53627.53627,0,0,1,.59859-.532c.42351,0,.64751.2556.64751.5249A.56709.56709,0,0,1,196.7513,272.73689Zm-.02769-1.2739a.76318.76318,0,0,0-.8365.75261.74153.74153,0,0,0,.826.7347.78262.78262,0,0,0,.7489-.4198c.0071.0735.0105.14349.0105.1996,0,.665-.3396,1.0043-.868,1.0043a.85886.85886,0,0,1-.47591-.1154l-.1015.203a1.124,1.124,0,0,0,.5808.13289c.665,0,1.12-.4339,1.12-1.267C197.72791,271.9146,197.3744,271.463,196.7236,271.463Zm-1.31281,2.107a.18323.18323,0,0,0-.18539.1891.17675.17675,0,0,0,.1259.1783l-.119.50771h.168l.1472-.48309a.57493.57493,0,0,0,.049-.20291A.18322.18322,0,0,0,195.4108,273.57Zm-1.5293-1.08139h-.3149l.08389-.7807h1.12V271.484H193.43l-.1259,1.2285h.5213c.62311,0,.81921.19591.81921.51111,0,.29739-.2205.50029-.63721.50029a1.06139,1.06139,0,0,1-.7523-.28339l-.1225.19949a1.26442,1.26442,0,0,0,.87849.3149c.5984,0,.8889-.32539.8889-.74179C194.9,272.7789,194.62,272.4886,193.8815,272.4886Z" transform="translate(-130.88519 -144.38779)" style="fill:#434242"/><path d="M278.3985,273.72389c-.42691,0-.7211-.36049-.7211-1.01479,0-.65451.29419-1.01511.7211-1.01511s.72079.3606.72079,1.01511c0,.6543-.29388,1.01479-.72079,1.01479m0,.231c.56689,0,.97989-.46539.97989-1.24579,0-.78061-.413-1.24611-.97989-1.24611s-.9765.4655-.9765,1.24611C277.422,273.4895,277.8316,273.9549,278.3985,273.9549Zm-2.62521-.24489.83313-.81891a1.00785,1.00785,0,0,0,.4025-.76649c0-.40961-.31491-.66161-.8121-.66161a1.10118,1.10118,0,0,0-.86792.3501l.1785.1539a.83223.83223,0,0,1,.66843-.273c.37448,0,.5741.1749.5741.4584,0,.16809-.05252.33249-.32892.6055l-1.0184.9975v.1786h1.71832v-.224Zm-.90988-.14a.18318.18318,0,0,0-.18539.1891.17675.17675,0,0,0,.12589.1783l-.11908.50771h.16809L275,273.962a.5732.5732,0,0,0,.0491-.20291A.18323.18323,0,0,0,274.8634,273.57Zm-1.60641-2.086v.22391h.57742v2.2261h.252v-2.45Z" transform="translate(-130.88519 -144.38779)" style="fill:#434242"/><line x1="104.82181" y1="8.13602" x2="73.34541" y2="8.13602" style="fill:none;stroke:#b1b2b2;stroke-miterlimit:22.92558479309082;stroke-width:0.2160000056028366px"/><line x1="30.5717" y1="37.13622" x2="7.0025" y2="37.13622" style="fill:none;stroke:#b1b2b2;stroke-miterlimit:22.92558479309082;stroke-width:0.2160000056028366px"/><line x1="61.07191" y1="128.38622" x2="6.53761" y2="128.38622" style="fill:none;stroke:#b1b2b2;stroke-miterlimit:22.92558479309082;stroke-width:0.2160000056028366px"/><line x1="140.82181" y1="128.38622" x2="134.07339" y2="128.38622" style="fill:none;stroke:#b1b2b2;stroke-miterlimit:22.92558479309082;stroke-width:0.2160000056028366px"/><line x1="149.7402" y1="8.13602" x2="114.26091" y2="8.13602" style="fill:none;stroke:#b1b2b2;stroke-miterlimit:22.92558479309082;stroke-width:0.2160000056028366px"/><line x1="67.2041" y1="37.13622" x2="40.0108" y2="37.13622" style="fill:none;stroke:#b1b2b2;stroke-miterlimit:22.92558479309082;stroke-width:0.2160000056028366px"/><line x1="124.52971" y1="128.38622" x2="70.511" y2="128.38622" style="fill:none;stroke:#b1b2b2;stroke-miterlimit:22.92558479309082;stroke-width:0.2160000056028366px"/><line x1="157.0094" y1="128.38622" x2="150.26089" y2="128.38622" style="fill:none;stroke:#b1b2b2;stroke-miterlimit:22.92558479309082;stroke-width:0.2160000056028366px"/><path d="M285.4729,254.7468l-.8714-.69279h-.1785v1.575h.22391v-1.253l.85068.67891h.18542V254.88c0-.4552.19238-.66161.48639-.66161.30438,0,.4935.224.4935.6299a1.07438,1.07438,0,0,1-.28351.7597l.19962.12239a1.27424,1.27424,0,0,0,.31488-.8821c0-.59129-.31488-.8889-.72449-.8889-.392,0-.6684.26241-.6965.7874m.203,2.13881c0,.37779-.20639.61589-.52841.61589a.53636.53636,0,0,1-.5321-.5986c0-.42349.25571-.64749.525-.64749A.56711.56711,0,0,1,285.6759,256.8856Zm-1.2739.02769a.76311.76311,0,0,0,.75259.8365.74154.74154,0,0,0,.73471-.826.78261.78261,0,0,0-.4198-.7489c.07339-.0071.1434-.0105.19959-.0105.665,0,1.0043.3396,1.0043.868a.85889.85889,0,0,1-.11539.47591l.203.1015a1.12374,1.12374,0,0,0,.1329-.5808c0-.665-.434-1.12-1.26709-1.12C284.85349,255.909,284.402,256.2625,284.402,256.9133Zm2.107,1.31281a.1832.1832,0,0,0,.189.18539.1767.1767,0,0,0,.17831-.1259l.50769.119v-.168l-.483-.1472a.5754.5754,0,0,0-.203-.049A.18317.18317,0,0,0,286.509,258.2261Zm.14,1.89009-.81888-.8331a1.00777,1.00777,0,0,0-.76651-.4025c-.40961,0-.66159.3149-.66159.8121a1.101,1.101,0,0,0,.3501.868l.1539-.1786a.832.832,0,0,1-.273-.6684c0-.3745.1749-.574.4584-.574.16809,0,.33249.0524.6055.32881l.9975,1.01849h.1785v-1.7184H286.649Z" transform="translate(-130.88519 -144.38779)" style="fill:#434242"/><path d="M252.163,245.3432c0,.4269-.3606.7211-1.0148.7211-.6545,0-1.01509-.2942-1.01509-.7211s.3606-.7209,1.01509-.7209c.65421,0,1.0148.294,1.0148.7209m.231,0c0-.567-.46539-.98-1.2458-.98-.7807,0-1.24609.413-1.24609.98s.46539.9765,1.24609.9765C251.9286,246.3197,252.394,245.9101,252.394,245.3432Zm-.2449,2.62509-.81889-.8331a1.0078,1.0078,0,0,0-.76649-.4025c-.40961,0-.66161.3149-.66161.8121a1.101,1.101,0,0,0,.3501.868l.1539-.1786a.832.832,0,0,1-.273-.6684c0-.37439.1749-.574.4584-.574.16809,0,.33249.0524.60539.3288l.9976,1.01849h.1785v-1.7184h-.22391Zm-.14.91a.18313.18313,0,0,0,.189.1853.17662.17662,0,0,0,.1783-.12579l.50769.119v-.16809l-.483-.14711a.5756.5756,0,0,0-.203-.049A.18319.18319,0,0,0,252.00909,248.8783Zm-1.03609,1.3334-.87141-.69279h-.1785v1.57489h.22391v-1.2529l.85069.67891h.18541v-.17491c0-.4552.1924-.66159.48639-.66159.30441,0,.4935.22389.4935.6299a1.07407,1.07407,0,0,1-.28349.7596l.1996.1225a1.27463,1.27463,0,0,0,.3149-.8821c0-.5914-.3149-.889-.7245-.889C251.2774,249.42419,251.0011,249.68671,250.973,250.2117Z" transform="translate(-130.88519 -144.38779)" style="fill:#434242"/><path d="M153.9128,251.2126c0,.4269-.3606.7211-1.0148.7211-.6546,0-1.01509-.2942-1.01509-.7211s.36049-.7209,1.01509-.7209c.65421,0,1.0148.294,1.0148.7209m.231,0c0-.56689-.4655-.98-1.2458-.98-.7807,0-1.2462.4131-1.2462.98s.4655.9765,1.2462.9765C153.6783,252.1891,154.1438,251.7795,154.1438,251.2126Zm-2.471,2.3904h.224v-.57739h2.226v-.252h-2.45Zm2.086.3569a.18316.18316,0,0,0,.1891.18539.1767.1767,0,0,0,.1783-.12579l.50769.119v-.16811l-.483-.14709a.57381.57381,0,0,0-.203-.049A.18319.18319,0,0,0,153.7588,253.9599Zm.14009,1.8902-.819-.8331a1.00777,1.00777,0,0,0-.76649-.4026c-.40961,0-.66161.315-.66161.81221a1.10107,1.10107,0,0,0,.35011.86789l.1539-.1785a.83259.83259,0,0,1-.2729-.6685c0-.37439.1749-.574.4583-.574.16809,0,.3325.05249.6055.3288l.9975,1.01849h.1786V254.5025h-.22391Z" transform="translate(-130.88519 -144.38779)" style="fill:#434242"/><path d="M141.42419,207.868c0,.42351-.2554.64771-.525.64771a.56724.56724,0,0,1-.53551-.6301c0-.3779.20641-.616.52841-.616a.53612.53612,0,0,1,.53209.5984m-1.2739-.021a.78346.78346,0,0,0,.4198.74921c-.07339.00679-.14349.0105-.1996.0105-.6647,0-1.0043-.3396-1.0043-.8679a.86114.86114,0,0,1,.1154-.4763l-.203-.10139a1.12564,1.12564,0,0,0-.13289.5811c0,.665.434,1.1199,1.26709,1.1199.77321,0,1.22481-.3535,1.22481-1.00461a.76334.76334,0,0,0-.75261-.8365A.74168.74168,0,0,0,140.1503,207.847Zm-.9837,3.07649h.6826v-.2486h-.4586v-1.26l2.226,1.008v-.273l-2.27139-1.0253h-.1786Zm2.08611.43741a.18314.18314,0,0,0,.189.18539.17666.17666,0,0,0,.1783-.1259l.50771.11911v-.16811l-.483-.1472a.57532.57532,0,0,0-.203-.049A.18318.18318,0,0,0,141.2527,211.3609Zm-2.08611,1.6064h.224v-.5775h2.226v-.252h-2.45Z" transform="translate(-130.88519 -144.38779)" style="fill:#434242"/><path d="M277.20059,176.09821c0,.42349-.2554.64769-.525.64769a.56726.56726,0,0,1-.53549-.6302c0-.37779.20639-.61589.52838-.61589a.53613.53613,0,0,1,.5321.5984m-1.2739-.021a.78358.78358,0,0,0,.4198.74921c-.07339.00681-.1434.0105-.19959.0105-.6647,0-1.0043-.3396-1.0043-.868a.86054.86054,0,0,1,.11539-.4762l-.203-.1015a1.12586,1.12586,0,0,0-.1329.5811c0,.665.434,1.12,1.26712,1.12.77328,0,1.22479-.3535,1.22479-1.00461a.76328.76328,0,0,0-.75259-.83649A.74168.74168,0,0,0,275.9267,176.07719Zm1.25632,2.35561c0,.4269-.36063.7211-1.0148.7211-.65451,0-1.01511-.2942-1.01511-.7211s.3606-.7209,1.01511-.7209C276.82239,177.7119,277.183,178.00591,277.183,178.4328Zm.231,0c0-.567-.46539-.98-1.24579-.98-.7807,0-1.24612.413-1.24612.98s.46542.9765,1.24612.9765C276.94861,179.4093,277.414,178.99969,277.414,178.4328Zm-.38489,1.48759a.18313.18313,0,0,0,.189.18541.17667.17667,0,0,0,.17828-.1259l.50772.11909v-.16811l-.483-.14709a.574.574,0,0,0-.203-.0491A.18318.18318,0,0,0,277.02911,179.92039Zm-1.0361,1.3334-.8714-.69279h-.1785v1.575h.22388v-1.253l.85071.67891h.18539V181.387c0-.4552.19241-.66159.48642-.66159.30438,0,.4935.224.4935.6299a1.07438,1.07438,0,0,1-.28351.7597l.19959.12239a1.27425,1.27425,0,0,0,.31491-.8821c0-.59131-.31491-.889-.72449-.889C276.29739,180.46629,276.02109,180.72881,275.993,181.2538Z" transform="translate(-130.88519 -144.38779)" style="fill:#434242"/><path d="M150.933,170.8192c0,.4269-.3606.7211-1.0148.7211-.6545,0-1.01509-.2942-1.01509-.7211s.3606-.7209,1.01509-.7209c.65421,0,1.0148.294,1.0148.7209m.231,0c0-.56689-.46541-.9799-1.2458-.9799-.7807,0-1.24609.413-1.24609.9799s.46539.9765,1.24609.9765C150.69859,171.7957,151.164,171.38609,151.164,170.8192Zm-.21339,2.2785c0,.434-.1891.68939-.49361.68939-.301,0-.4901-.2554-.4901-.68939s.1891-.6931.4901-.6931C150.76151,172.4046,150.95061,172.6637,150.95061,173.0977Zm-1.624.6055c-.273,0-.4411-.2347-.4411-.6055,0-.36771.16811-.60921.4445-.60921.2662,0,.4377.2276.4377.60921C149.7677,173.4789,149.59621,173.7032,149.3266,173.7032Zm.532-1.078a.55487.55487,0,0,0-.53909-.39211c-.3988,0-.6474.34641-.6474.86461,0,.5179.2486.8575.6474.8575a.55289.55289,0,0,0,.53909-.3853.611.611,0,0,0,.60181.4726c.434,0,.7036-.3569.7036-.94479,0-.5845-.26961-.95221-.7036-.95221A.617.617,0,0,0,149.8586,172.6252Zm.9205,1.9879a.18314.18314,0,0,0,.189.18539.17675.17675,0,0,0,.1783-.1259l.50771.11911v-.16811l-.483-.14709a.57393.57393,0,0,0-.203-.0491A.18319.18319,0,0,0,150.7791,174.6131Zm-2.08611,1.6064h.224v-.57739h2.226v-.252h-2.45Z" transform="translate(-130.88519 -144.38779)" style="fill:#434242"/><line x1="154.82581" y1="117.50201" x2="154.82581" y2="131.96071" style="fill:none;stroke:#b1b2b2;stroke-miterlimit:22.92558479309082;stroke-width:0.2160000056028366px"/><line x1="120.32791" y1="108.00201" x2="120.32791" y2="131.96071" style="fill:none;stroke:#b1b2b2;stroke-miterlimit:22.92558479309082;stroke-width:0.2160000056028366px"/><line x1="22.07771" y1="113.50211" x2="22.07771" y2="131.96071" style="fill:none;stroke:#b1b2b2;stroke-miterlimit:22.92558479309082;stroke-width:0.2160000056028366px"/><line x1="9.5715" y1="70.25221" x2="9.5715" y2="77.00061" style="fill:none;stroke:#b1b2b2;stroke-miterlimit:22.92558479309082;stroke-width:0.2160000056028366px"/><line x1="145.3479" y1="39.00221" x2="145.3479" y2="65.03702" style="fill:none;stroke:#b1b2b2;stroke-miterlimit:22.92558479309082;stroke-width:0.2160000056028366px"/><line x1="19.0979" y1="33.25211" x2="19.0979" y2="40.00061" style="fill:none;stroke:#b1b2b2;stroke-miterlimit:22.92558479309082;stroke-width:0.2160000056028366px"/><line x1="154.82782" y1="74.01491" x2="154.82782" y2="108.06302" style="fill:none;stroke:#b1b2b2;stroke-miterlimit:22.92558479309082;stroke-width:0.2160000056028366px"/><line x1="120.32791" y1="69.11691" x2="120.32791" y2="98.56291" style="fill:none;stroke:#b1b2b2;stroke-miterlimit:22.92558479309082;stroke-width:0.2160000056028366px"/><line x1="22.07771" y1="90.04681" x2="22.07771" y2="104.06302" style="fill:none;stroke:#b1b2b2;stroke-miterlimit:22.92558479309082;stroke-width:0.2160000056028366px"/><line x1="9.5715" y1="42.76971" x2="9.5715" y2="60.81311" style="fill:none;stroke:#b1b2b2;stroke-miterlimit:22.92558479309082;stroke-width:0.2160000056028366px"/><line x1="145.3479" y1="4.4606" x2="145.3479" y2="29.56311" style="fill:none;stroke:#b1b2b2;stroke-miterlimit:22.92558479309082;stroke-width:0.2160000056028366px"/><line x1="19.0979" y1="5.0842" x2="19.0979" y2="23.81302" style="fill:none;stroke:#b1b2b2;stroke-miterlimit:22.92558479309082;stroke-width:0.2160000056028366px"/></svg>