<svg id="Слой_1" data-name="Слой 1" xmlns="http://www.w3.org/2000/svg" viewBox="0 0 163.71719 201.7247"><title>1.09.15</title><polygon points="160.529 0 160.529 69.633 157.531 69.633 157.531 192.883 160.337 192.883 160.337 198.751 163.717 198.751 163.717 201.725 0 201.725 0 52.14 11.011 52.14 11.011 0 160.529 0" style="fill:#fff;fill-rule:evenodd"/><path d="M154.66879,159.7587H152.1255v6.9599h2.54329Zm4.33611,0h-2.5432v6.9599h2.5432Zm4.4416,4.068h-2.5432v2.89191h2.5432Zm0-4.068h-2.5432v2.89191h2.5432Zm-13.1564,7.07071v-6.9928h-2.539v6.9928Zm15.74561,2.4092V157.23871H141.7504V169.2386Z" transform="translate(-130.73981 -111.0986)" style="fill:#003915;fill-rule:evenodd"/><path d="M171.83681,254.52969v-2.3443h-6.9599v2.3443Zm0,3.99681V256.1823h-6.9599v2.34421Zm-4.068,4.0938v-2.34421h-2.89189v2.34421Zm4.068,0v-2.34421H168.9449v2.34421Zm-8.35571-11.82361h10.8757v14.1342h-10.8757Z" transform="translate(-130.73981 -111.0986)" style="fill:#003915;fill-rule:evenodd"/><path d="M137.6909,230.2271v2.5433h6.82019v-2.5433Zm3.9283-4.4416v2.5433h2.89189v-2.5433Zm-3.9612,0v2.5433h2.892v-2.5433Zm.0329,8.3744h6.82019v2.5433H137.6909Zm-4.15471-9.3036H145.7711V238.2276H133.53619Z" transform="translate(-130.73981 -111.0986)" style="fill:#003915;fill-rule:evenodd"/><path d="M161.6774,200.5036a.374.374,0,1,0-.37469-.6474l-13.92011,8.0399a.374.374,0,1,0,.37469.6474Z" transform="translate(-130.73981 -111.0986)" style="fill:#003915"/><path d="M208.1812,223.06461a.374.374,0,1,1,.6474.37469l-8.0399,13.92011a.374.374,0,0,1-.6474-.3748Z" transform="translate(-130.73981 -111.0986)" style="fill:#003915"/><path d="M207.9371,265.4921a.374.374,0,1,0,.64749-.37469l-8.0399-13.92011a.374.374,0,1,0-.64749.37471Z" transform="translate(-130.73981 -111.0986)" style="fill:#003915"/><path d="M182.00439,268.1405a.374.374,0,1,1,.6474.3748l-8.0399,13.92009a.374.374,0,1,1-.6474-.3748Z" transform="translate(-130.73981 -111.0986)" style="fill:#003915"/><path d="M259.41971,169.3143a.374.374,0,0,0,.6474-.37479l-8.0399-13.92a.374.374,0,1,0-.6474.37469Z" transform="translate(-130.73981 -111.0986)" style="fill:#003915"/><rect x="41.5999" y="171.1658" width="2.60219" height="30.5589" style="fill:#003915"/><rect x="44.76959" y="173.8145" width="2.6022" height="27.9102" style="fill:#003915"/><rect x="41.5999" y="97.12889" width="2.60219" height="58.08011" style="fill:#003915"/><rect x="67.8575" y="67.71429" width="2.60219" height="40.3347" style="fill:#003915"/><rect x="67.8575" y="125.7908" width="2.60219" height="14.79999" style="fill:#003915"/><rect x="67.8575" y="158.8847" width="2.60219" height="14.79999" style="fill:#003915"/><rect x="67.8575" y="67.71429" width="58.81349" height="2.6022" style="fill:#003915"/><rect x="71.29189" y="196.72269" width="90.7679" height="3.3639" style="fill:#003915"/><rect x="4.9068" y="97.12889" width="12.1456" height="2.6022" style="fill:#003915"/><rect x="32.05649" y="97.12889" width="12.1456" height="2.6022" style="fill:#003915"/><rect x="43.37599" y="172.7751" width="27.08369" height="2.6022" style="fill:#003915"/><rect x="4.9068" y="197.1493" width="43.577" height="2.6022" style="fill:#003915"/><rect x="5.36659" y="131.0896" width="38.1801" height="5.002" style="fill:#003915"/><rect x="67.9323" y="131.0896" width="85.1165" height="5.002" style="fill:#003915"/><rect x="67.9323" y="196.72269" width="85.1165" height="5.00201" style="fill:#003915"/><rect x="6.34679" width="157.07991" height="3.9118" style="fill:#003915"/><rect y="50.7648" width="6.4256" height="19.66539" style="fill:#003915"/><rect y="90.59669" width="6.4256" height="111.12801" style="fill:#003915"/><rect x="6.34679" y="1.24979" width="6.42561" height="56.89021" style="fill:#003915"/><rect y="130.06349" width="2.20139" height="6.42551" style="fill:#003915"/><rect x="124.41769" width="8.1601" height="26.71741" style="fill:#003915"/><rect x="3.79219" y="196.72269" width="120.4679" height="5.00201" style="fill:#003915"/><rect x="124.41769" y="62.1564" width="38.88" height="8.1601" style="fill:#003915"/><rect x="124.41769" y="58.12579" width="8.1601" height="10.50211" style="fill:#003915"/><rect x="149.6282" y="62.4557" width="8.1601" height="23.51369" style="fill:#003915"/><rect x="149.6282" y="115.4767" width="8.1601" height="36.4929" style="fill:#003915"/><rect x="149.6282" y="182.23709" width="8.1601" height="19.48761" style="fill:#003915"/><rect x="155.5571" y="192.8276" width="8.1601" height="8.8971" style="fill:#003915"/><rect x="39.4614" y="197.1493" width="12.78419" height="4.5754" style="fill:#003915"/><rect x="149.6282" y="192.8276" width="13.79849" height="8.8971" style="fill:#003915"/><rect x="149.6282" y="62.1564" width="13.79849" height="10.62199" style="fill:#003915"/><rect x="152.6301" y="100.9678" width="2.29858" height="0.50169" style="fill:#003915"/><rect x="152.6301" y="99.76959" width="2.29858" height="0.50121" style="fill:#003915"/><rect x="152.6301" y="87.1322" width="2.29858" height="0.50139" style="fill:#003915"/><rect x="152.6301" y="85.93399" width="2.29858" height="0.50121" style="fill:#003915"/><rect x="152.6301" y="115.0795" width="2.29858" height="0.5018" style="fill:#003915"/><rect x="152.6301" y="113.88159" width="2.29858" height="0.50121" style="fill:#003915"/><rect x="149.6282" y="83.8772" width="0.50137" height="34.0937" style="fill:#003915"/><rect x="152.47528" y="83.8772" width="0.50153" height="34.0937" style="fill:#003915"/><rect x="154.6467" y="83.8772" width="0.5014" height="34.0937" style="fill:#003915"/><rect x="157.28769" y="83.8772" width="0.5014" height="34.0937" style="fill:#003915"/><rect x="152.6301" y="167.74609" width="2.29858" height="0.50171" style="fill:#003915"/><rect x="152.6301" y="166.5479" width="2.29858" height="0.50121" style="fill:#003915"/><rect x="152.6301" y="153.91049" width="2.29858" height="0.5014" style="fill:#003915"/><rect x="152.6301" y="152.7123" width="2.29858" height="0.5011" style="fill:#003915"/><rect x="152.6301" y="181.8578" width="2.29858" height="0.5018" style="fill:#003915"/><rect x="152.6301" y="180.6599" width="2.29858" height="0.50121" style="fill:#003915"/><rect x="149.6282" y="150.6555" width="0.50137" height="34.09369" style="fill:#003915"/><rect x="152.47528" y="150.6555" width="0.50153" height="34.09369" style="fill:#003915"/><rect x="154.6467" y="150.6555" width="0.5014" height="34.09369" style="fill:#003915"/><rect x="157.28769" y="150.6555" width="0.5014" height="34.09369" style="fill:#003915"/><path d="M259.96991,150.27H258.3v.697h1.66992Zm0-13.56918H258.3v13.06778h1.66992Zm0-1.19821H258.3v.69711h1.66992ZM258.3,135.00089h1.66992V129.2114h.5014V150.967H262.817V129.2114h.50153V151.4682h-8.161V129.2114h.5015V150.967h2.13962V132.91519H258.3Z" transform="translate(-130.73981 -111.0986)" style="fill:#003915;fill-rule:evenodd"/><rect x="158.27161" y="41.58029" width="1.29709" height="0.44699" style="fill:#003915"/><rect x="158.27161" y="40.51251" width="1.29709" height="0.44669" style="fill:#003915"/><rect x="158.27161" y="22.97821" width="1.29709" height="0.44699" style="fill:#003915"/><rect x="158.27161" y="21.9104" width="1.29709" height="0.44669" style="fill:#003915"/><rect x="158.27161" y="4.37579" width="1.29709" height="0.44711" style="fill:#003915"/><rect x="158.27161" y="3.30798" width="1.29709" height="0.44681" style="fill:#003915"/><rect x="158.27161" y="60.1826" width="1.29709" height="0.4471" style="fill:#003915"/><rect x="158.27161" y="59.11479" width="1.29709" height="0.44681" style="fill:#003915"/><rect x="160.35138" y="1.2413" width="0.44672" height="60.82129" style="fill:#003915"/><rect x="159.25998" y="1.2413" width="0.44681" height="60.82129" style="fill:#003915"/><rect x="158.1792" y="1.2413" width="0.44669" height="60.82129" style="fill:#003915"/><path d="M172.04491,212.0789v9.8223a.90528.90528,0,0,1-.904.9054h-4.61031a4.59575,4.59575,0,0,1-4.591-4.5896V215.7648a4.59574,4.59574,0,0,1,4.591-4.5905h4.61031a.90479.90479,0,0,1,.904.9046M162.1843,218.217a4.351,4.351,0,0,0,4.3463,4.345h4.61031a.66144.66144,0,0,0,.6599-.6608v-9.8223a.66067.66067,0,0,0-.6599-.6599h-4.61031a4.35132,4.35132,0,0,0-4.3463,4.34579Z" transform="translate(-130.73981 -111.0986)" style="fill:#003915"/><path d="M163.27451,218.21671a3.2587,3.2587,0,0,0,3.25609,3.2545h2.68811a.56785.56785,0,0,0,.56749-.5672V217.3286h.24521V220.904a.814.814,0,0,1-.8127.81239h-2.68811a3.50407,3.50407,0,0,1-3.50079-3.49969V215.7645a3.50469,3.50469,0,0,1,3.50079-3.50079h2.68811a.81446.81446,0,0,1,.8127.81349v3.57541h-.24521v-3.57541a.56828.56828,0,0,0-.56749-.5683h-2.68811a3.25931,3.25931,0,0,0-3.25609,3.2556Z" transform="translate(-130.73981 -111.0986)" style="fill:#003915"/><path d="M166.8781,216.9899a.7835.7835,0,1,1-.78349-.7838.78474.78474,0,0,1,.78349.7838m-1.3223,0a.5387.5387,0,1,0,.5388-.53909A.53969.53969,0,0,0,165.5558,216.9899Z" transform="translate(-130.73981 -111.0986)" style="fill:#003915"/><rect x="34.797" y="105.76889" width="1.11659" height="0.2449" style="fill:#003915"/><rect x="35.23239" y="105.33369" width="0.2455" height="1.116" style="fill:#003915"/><path d="M170.8625,216.6526v-.4037a.17363.17363,0,0,0-.174-.1729h-.3793a.17371.17371,0,0,0-.1741.1729v.4037h-.2449v-.4037a.41876.41876,0,0,1,.419-.41811h.3793a.4186.4186,0,0,1,.41859.41811v.4057l-.0374-.002Zm-.7274,1.07719a.17446.17446,0,0,0,.1741.174h.3793a.17438.17438,0,0,0,.174-.174v-.4012h.2072l.0374-.0022v.4034a.41846.41846,0,0,1-.41859.41861h-.3793a.41861.41861,0,0,1-.419-.41861v-.4012h.2449Z" transform="translate(-130.73981 -111.0986)" style="fill:#003915"/><path d="M171.53011,216.9899a.461.461,0,0,1-.4604.4612h-3.0804a.4605.4605,0,0,1,0-.921h3.0804a.46062.46062,0,0,1,.4604.45979m-3.75681,0a.21676.21676,0,0,0,.216.21629h3.0804a.2156.2156,0,0,0,0-.4312h-3.0804A.21609.21609,0,0,0,167.7733,216.9899Z" transform="translate(-130.73981 -111.0986)" style="fill:#003915"/><path d="M137.38139,276.98289v9.82231a.90528.90528,0,0,0,.904.9054h4.6102a4.59567,4.59567,0,0,0,4.591-4.58951v-2.4523a4.59573,4.59573,0,0,0-4.591-4.59039h-4.6102a.90471.90471,0,0,0-.904.9045m9.86061,6.1382a4.35109,4.35109,0,0,1-4.34641,4.34491h-4.6102a.66153.66153,0,0,1-.66-.6608v-9.82231a.66076.66076,0,0,1,.66-.6599h4.6102a4.35148,4.35148,0,0,1,4.34641,4.34579Z" transform="translate(-130.73981 -111.0986)" style="fill:#003915"/><path d="M146.15179,283.1208a3.25869,3.25869,0,0,1-3.25619,3.25439h-2.6881a.56785.56785,0,0,1-.5675-.5672v-3.5753h-.24519v3.5753a.814.814,0,0,0,.8127.81239h2.6881a3.50405,3.50405,0,0,0,3.50079-3.49959v-2.4523a3.5047,3.5047,0,0,0-3.50079-3.50081h-2.6881a.81449.81449,0,0,0-.8127.8136v3.5753H139.64v-3.5753a.56836.56836,0,0,1,.5675-.56839h2.6881a3.25934,3.25934,0,0,1,3.25619,3.2556Z" transform="translate(-130.73981 -111.0986)" style="fill:#003915"/><path d="M142.5481,281.89391a.7835.7835,0,1,0,.78351-.78371.78474.78474,0,0,0-.78351.78371m1.3224,0a.53875.53875,0,1,1-.53889-.53911A.53969.53969,0,0,1,143.8705,281.89391Z" transform="translate(-130.73981 -111.0986)" style="fill:#003915"/><rect x="12.0331" y="170.6729" width="1.1165" height="0.2449" style="fill:#003915"/><rect x="12.4688" y="170.23779" width="0.24539" height="1.116" style="fill:#003915"/><path d="M138.56371,281.55659V281.153a.17374.17374,0,0,1,.17409-.173h.37921a.17369.17369,0,0,1,.1741.173v.40359h.24489V281.153a.41869.41869,0,0,0-.419-.41811h-.37921a.41862.41862,0,0,0-.41869.41811v.40559l.0374-.002Zm.7274,1.07721a.1744.1744,0,0,1-.1741.174h-.37921a.17446.17446,0,0,1-.17409-.174v-.40111h-.2072l-.0374-.0023v.40341a.41862.41862,0,0,0,.41869.4187h.37921a.41869.41869,0,0,0,.419-.4187v-.40111h-.24489Z" transform="translate(-130.73981 -111.0986)" style="fill:#003915"/><path d="M137.89619,281.89391a.461.461,0,0,0,.46031.4612h3.0804a.46045.46045,0,0,0,0-.9209h-3.0804a.46045.46045,0,0,0-.46031.4597m3.7567,0a.21668.21668,0,0,1-.216.21629h-3.0804a.21555.21555,0,0,1,0-.43111h3.0804A.21606.21606,0,0,1,141.65289,281.89391Z" transform="translate(-130.73981 -111.0986)" style="fill:#003915"/><path d="M153.1035,227.75481a3.917,3.917,0,0,0-3.91161,3.91289v5.6653a.67723.67723,0,0,0,.4561.63921,1.24109,1.24109,0,0,0-.20349.205.946.946,0,0,1-.52161-.84421v-5.6653a4.18085,4.18085,0,1,1,8.36171,0v5.6653a.94543.94543,0,0,1-.521.84361,1.24164,1.24164,0,0,0-.20329-.20461.67628.67628,0,0,0,.45549-.639v-5.6653a3.917,3.917,0,0,0-3.91229-3.91289" transform="translate(-130.73981 -111.0986)" style="fill:#003915"/><path d="M155.9072,236.2522h-5.6089a.20407.20407,0,0,1-.20129-.2016V231.78a3.0066,3.0066,0,1,1,6.0132,0v4.2706a.20475.20475,0,0,1-.203.2016m-5.5414-.2682h5.47591V231.78a2.738,2.738,0,0,0-5.47591,0Z" transform="translate(-130.73981 -111.0986)" style="fill:#003915"/><path d="M153.1032,233.5213a1.00815,1.00815,0,1,1,1.0088-1.008,1.01007,1.01007,0,0,1-1.0088,1.008m0-1.7476a.73945.73945,0,1,0,.73981.73961A.74039.74039,0,0,0,153.1032,231.7737Z" transform="translate(-130.73981 -111.0986)" style="fill:#003915"/><rect x="150.3607" y="234.46318" width="2.24215" height="0.26854" transform="matrix(0.59781, -0.80164, 0.80164, 0.59781, -257.87757, 104.688)" style="fill:#003915"/><rect x="154.5465" y="233.47571" width="0.26921" height="2.24303" transform="translate(-240.46159 28.35023) rotate(-36.80939)" style="fill:#003915"/><path d="M155.804,241.75391h-5.4005a1.355,1.355,0,0,1-1.3524-1.35381v-1.4743a1.35351,1.35351,0,0,1,1.3524-1.3524h5.4005a1.35327,1.35327,0,0,1,1.3519,1.3524v1.4743a1.35479,1.35479,0,0,1-1.3519,1.35381m-5.4005-3.91211a1.08551,1.08551,0,0,0-1.0843,1.084v1.4743a1.08587,1.08587,0,0,0,1.0843,1.0851h5.4005a1.08593,1.08593,0,0,0,1.08369-1.0851v-1.4743a1.08557,1.08557,0,0,0-1.08369-1.084Z" transform="translate(-130.73981 -111.0986)" style="fill:#003915"/><path d="M153.1032,240.35159a.6881.6881,0,1,1,.6882-.68739.68809.68809,0,0,1-.6882.68739m0-1.10719a.41925.41925,0,1,0,.41951.4198A.41949.41949,0,0,0,153.1032,239.2444Z" transform="translate(-130.73981 -111.0986)" style="fill:#003915"/><path d="M157.4552,261.3065a3.91691,3.91691,0,0,1-3.9115-3.913v-5.6653a.67726.67726,0,0,1,.4561-.63919,1.24118,1.24118,0,0,1-.20351-.205.94593.94593,0,0,0-.52159.84419v5.6653a4.1808,4.1808,0,1,0,8.3616,0v-5.6653a.94543.94543,0,0,0-.521-.8436,1.23689,1.23689,0,0,1-.2032.2047.6764.6764,0,0,1,.45551.6389v5.6653a3.9171,3.9171,0,0,1-3.9124,3.913" transform="translate(-130.73981 -111.0986)" style="fill:#003915"/><path d="M160.259,252.8091H154.65a.2039.2039,0,0,0-.20119.20151v4.27069a3.00655,3.00655,0,1,0,6.01309,0V253.0106a.20465.20465,0,0,0-.2029-.20151m-5.5415.2681h5.476v4.2041a2.738,2.738,0,0,1-5.476,0Z" transform="translate(-130.73981 -111.0986)" style="fill:#003915"/><path d="M157.4549,255.54a1.0081,1.0081,0,1,0,1.00891,1.008,1.01006,1.01006,0,0,0-1.00891-1.008m0,1.74751a.7394.7394,0,1,1,.7399-.7395A.7403.7403,0,0,1,157.4549,257.28751Z" transform="translate(-130.73981 -111.0986)" style="fill:#003915"/><rect x="155.69926" y="253.34268" width="0.26853" height="2.24223" transform="translate(-251.97049 32.58912) rotate(-36.72415)" style="fill:#003915"/><rect x="157.91128" y="254.32943" width="2.24309" height="0.26914" transform="translate(-270.72424 118.22493) rotate(-53.18983)" style="fill:#003915"/><path d="M160.15581,247.3073h-5.4006a1.355,1.355,0,0,0-1.3524,1.35381v1.4743a1.35343,1.35343,0,0,0,1.3524,1.35239h5.4006a1.3531,1.3531,0,0,0,1.35179-1.35239v-1.4743a1.3547,1.3547,0,0,0-1.35179-1.35381m-5.4006,3.91211a1.08542,1.08542,0,0,1-1.0842-1.084v-1.4743a1.08584,1.08584,0,0,1,1.0842-1.0851h5.4006a1.08593,1.08593,0,0,1,1.08369,1.0851v1.4743a1.08551,1.08551,0,0,1-1.08369,1.084Z" transform="translate(-130.73981 -111.0986)" style="fill:#003915"/><path d="M157.4549,248.70959a.6881.6881,0,1,0,.68831.68741.68816.68816,0,0,0-.68831-.68741m0,1.10721a.41925.41925,0,1,1,.4196-.4198A.41936.41936,0,0,1,157.4549,249.8168Z" transform="translate(-130.73981 -111.0986)" style="fill:#003915"/><path d="M145.4698,223.947h-7.83951V212.599h7.83951Zm-8.1709.3308h8.5025V212.268h-8.5025Z" transform="translate(-130.73981 -111.0986)" style="fill:#003915"/><path d="M145.69431,221.5526a.60436.60436,0,0,0,.61249-.5936v-5.37221a.604.604,0,0,0-.61249-.59389v.3308a.26975.26975,0,0,1,.2809.26309V220.959a.26952.26952,0,0,1-.2809.2628Z" transform="translate(-130.73981 -111.0986)" style="fill:#003915"/><path d="M143.0677,219.2948H140.36l-.6216-1.5974a2.47352,2.47352,0,0,1,1.6747.0919,4.15469,4.15469,0,0,0,1.24069.2412,2.44924,2.44924,0,0,0,.9366-.1882Zm-2.9342.3308h3.1669l.89211-2.4801-.39061.22481a2.26612,2.26612,0,0,1-1.1481.32941,3.89178,3.89178,0,0,1-1.1438-.22681,3.89939,3.89939,0,0,0-1.144-.2282,2.01812,2.01812,0,0,0-.91249.218l-.1358.0675Z" transform="translate(-130.73981 -111.0986)" style="fill:#003915"/><path d="M145.55231,273.53259H137.7128v-11.348h7.83951Zm-8.17091.33081h8.5025V261.85359h-8.5025Z" transform="translate(-130.73981 -111.0986)" style="fill:#003915"/><path d="M145.77679,271.1382a.60438.60438,0,0,0,.6125-.5936v-5.37221a.604.604,0,0,0-.6125-.59389v.3308a.26974.26974,0,0,1,.2809.26309v5.37221a.26951.26951,0,0,1-.2809.2628Z" transform="translate(-130.73981 -111.0986)" style="fill:#003915"/><path d="M143.15021,268.8804h-2.7077l-.6216-1.5974a2.47424,2.47424,0,0,1,1.6747.09189,4.15127,4.15127,0,0,0,1.24069.24121,2.44929,2.44929,0,0,0,.9366-.1882Zm-2.9342.3308h3.1669l.89209-2.4801-.3907.22481a2.26552,2.26552,0,0,1-1.148.32939,3.89166,3.89166,0,0,1-1.1438-.22679,3.90009,3.90009,0,0,0-1.144-.2282,2.01823,2.01823,0,0,0-.91251.218l-.13579.0675Z" transform="translate(-130.73981 -111.0986)" style="fill:#003915"/><path d="M139.53259,291.98531h30.0849a2.161,2.161,0,0,1,2.1515,2.16559V304.5623a2.161,2.161,0,0,1-2.1515,2.166h-30.0849a2.1609,2.1609,0,0,1-2.1512-2.166V294.15089a2.16094,2.16094,0,0,1,2.1512-2.16559m30.0849,14.51309a1.93116,1.93116,0,0,0,1.92191-1.9361V294.15089a1.931,1.931,0,0,0-1.92191-1.93539h-30.0849a1.9314,1.9314,0,0,0-1.9222,1.93539V304.5623a1.93162,1.93162,0,0,0,1.9222,1.9361Z" transform="translate(-130.73981 -111.0986)" style="fill:#003915"/><path d="M166.63181,305.2364a2.57705,2.57705,0,0,0,2.5654-2.5821v-6.5948a2.57666,2.57666,0,0,0-2.5654-2.58179H142.5186a2.57709,2.57709,0,0,0-2.5659,2.58179v2.0619a.39651.39651,0,0,0-.2282-.142v-1.91991a2.80639,2.80639,0,0,1,2.7941-2.8125h24.1132a2.80664,2.80664,0,0,1,2.79439,2.8125v6.5948a2.80659,2.80659,0,0,1-2.79439,2.8123H142.5186a2.80634,2.80634,0,0,1-2.7941-2.8123v-1.9202a.3951.3951,0,0,0,.2282-.1414v2.0616a2.57748,2.57748,0,0,0,2.5659,2.5821Z" transform="translate(-130.73981 -111.0986)" style="fill:#003915"/><path d="M165.0844,303.9231a1.26665,1.26665,0,0,0,1.26111-1.2688v-6.5948a1.26633,1.26633,0,0,0-1.26111-1.26819H142.5186a1.26619,1.26619,0,0,0-1.2614,1.26819v2.8449h-.22881v-2.8449a1.4962,1.4962,0,0,1,1.4902-1.4989h22.5658a1.49556,1.49556,0,0,1,1.4893,1.4989v6.5948a1.49526,1.49526,0,0,1-1.4893,1.499H142.5186a1.4959,1.4959,0,0,1-1.4902-1.499v-2.8451h.22881v2.8451a1.26652,1.26652,0,0,0,1.2614,1.2688Z" transform="translate(-130.73981 -111.0986)" style="fill:#003915"/><path d="M144.4238,298.624a.73336.73336,0,1,1-.7299.7336.73151.73151,0,0,1,.7299-.7336m0,1.2365a.50331.50331,0,1,0-.50031-.5029A.50184.50184,0,0,0,144.4238,299.8605Z" transform="translate(-130.73981 -111.0986)" style="fill:#003915"/><rect x="13.56889" y="187.73569" width="0.22929" height="1.0457" style="fill:#003915"/><rect x="13.16469" y="188.1437" width="1.0377" height="0.2307" style="fill:#003915"/><path d="M139.9238,298.9044v-.5375a.27984.27984,0,0,0-.2787-.2803H139.14a.28034.28034,0,0,0-.27921.2803v.5375H138.632v-.5375a.51034.51034,0,0,1,.508-.5111h.5051a.50964.50964,0,0,1,.5074.5111v.5375Zm-.2787,1.722a.27979.27979,0,0,0,.2787-.2801v-.5371h.2287v.5371a.50928.50928,0,0,1-.5074.5109H139.14a.51.51,0,0,1-.508-.5109v-.5371h.22879v.5371a.28029.28029,0,0,0,.27921.2801Z" transform="translate(-130.73981 -111.0986)" style="fill:#003915"/><path d="M138.634,298.789h3.2012a.56766.56766,0,0,1,0,1.1353H138.634a.56766.56766,0,0,1,0-1.1353m3.2012.9051a.3372.3372,0,0,0,0-.6744H138.634a.33721.33721,0,0,0,0,.6744Z" transform="translate(-130.73981 -111.0986)" style="fill:#003915"/><path d="M143.82111,153.79941V142.0303H155.59v11.7691Zm.2495-11.51971v11.2706H155.3411v-11.2706Z" transform="translate(-130.73981 -111.0986)" style="fill:#003915"/><path d="M154.4919,147.915a3.91958,3.91958,0,0,0-7.7142-.98172.29992.29992,0,0,0-.1976-.07419h-.0405a4.16848,4.16848,0,1,1-.00029,2.11151h.04079a.29844.29844,0,0,0,.19731-.074,3.91974,3.91974,0,0,0,7.71449-.9816" transform="translate(-130.73981 -111.0986)" style="fill:#003915"/><path d="M147.0912,147.915a3.4815,3.4815,0,1,1,3.4818,3.4812,3.4857,3.4857,0,0,1-3.4818-3.4812m6.71359,0a3.23195,3.23195,0,1,0-3.2318,3.23178A3.23548,3.23548,0,0,0,153.80479,147.915Z" transform="translate(-130.73981 -111.0986)" style="fill:#003915"/><path d="M149.67039,147.915a.90231.90231,0,1,1,.9026.9025.90338.90338,0,0,1-.9026-.9025m1.55571,0a.653.653,0,1,0-.65311.65308A.65426.65426,0,0,0,151.2261,147.915Z" transform="translate(-130.73981 -111.0986)" style="fill:#003915"/><rect x="19.1758" y="36.69171" width="1.3139" height="0.24939" style="fill:#003915"/><rect x="19.70789" y="36.15961" width="0.24971" height="1.3136" style="fill:#003915"/><path d="M145.7663,148.6687v-1.50751a.42706.42706,0,0,1,.42661-.42661h.38719a.42686.42686,0,0,1,.42661.42661v1.50751a.42681.42681,0,0,1-.42661.42661h-.38719a.427.427,0,0,1-.42661-.42661m.991-1.50751a.17772.17772,0,0,0-.1772-.1774h-.38719a.17752.17752,0,0,0-.1772.1774v1.50751a.17726.17726,0,0,0,.1772.17719h.38719a.17746.17746,0,0,0,.1772-.17719Z" transform="translate(-130.73981 -111.0986)" style="fill:#003915"/><path d="M145.891,147.695h-.0865a.2197.2197,0,0,0,0,.43939h.0865v.24969h-.0865a.46939.46939,0,0,1,0-.93878h.0865Zm2.59.22a.2205.2205,0,0,0-.2205-.22H146.882v-.24969h1.37849a.46939.46939,0,1,1,0,.93878H146.882v-.24969h1.37849A.22.22,0,0,0,148.481,147.915Z" transform="translate(-130.73981 -111.0986)" style="fill:#003915"/><path d="M144.30251,125.13461v7.15668a1.49612,1.49612,0,0,0,1.49469,1.49411h8.29871a1.496,1.496,0,0,0,1.49409-1.49411v-7.15668a1.4956,1.4956,0,0,0-1.49409-1.49411H145.7972a1.49572,1.49572,0,0,0-1.49469,1.49411m11.05449,7.15668a1.26262,1.26262,0,0,1-1.26109,1.26111H145.7972a1.26274,1.26274,0,0,1-1.26169-1.26111v-7.15668a1.26307,1.26307,0,0,1,1.26169-1.26172h8.29871a1.26294,1.26294,0,0,1,1.26109,1.26172Z" transform="translate(-130.73981 -111.0986)" style="fill:#003915"/><path d="M145.1214,125.13461v7.15668a.67615.67615,0,0,0,.6758.67572h7.0106a.67634.67634,0,0,0,.6758-.67572v-7.15668a.67644.67644,0,0,0-.6758-.6763h-7.0106a.67626.67626,0,0,0-.6758.6763m8.1292,7.15668a.4433.4433,0,0,1-.44279.443h-7.0106a.4435.4435,0,0,1-.4431-.443v-7.15668a.44388.44388,0,0,1,.4431-.44391h7.0106a.44368.44368,0,0,1,.44279.44391Z" transform="translate(-130.73981 -111.0986)" style="fill:#003915"/><path d="M153.9023,131.5911a.4742.4742,0,1,0,.4742-.47418.47508.47508,0,0,0-.4742.47418m.71541,0a.2412.2412,0,1,1-.24121-.24149A.24191.24191,0,0,1,154.61771,131.5911Z" transform="translate(-130.73981 -111.0986)" style="fill:#003915"/><path d="M153.9023,129.99039a.4742.4742,0,1,0,.4742-.47479.475.475,0,0,0-.4742.47479m.71541,0a.2412.2412,0,1,1-.24121-.24179A.24161.24161,0,0,1,154.61771,129.99039Z" transform="translate(-130.73981 -111.0986)" style="fill:#003915"/><rect x="16.52399" y="18.2197" width="0.23271" height="2.71951" style="fill:#003915"/><rect x="15.27989" y="19.46298" width="2.7195" height="0.23273" style="fill:#003915"/><path d="M146.48309,130.6781a.8969.8969,0,1,0,.89691-.89661.898.898,0,0,0-.89691.89661m1.56111,0a.6643.6643,0,1,1-.6642-.66391A.66558.66558,0,0,1,148.0442,130.6781Z" transform="translate(-130.73981 -111.0986)" style="fill:#003915"/><rect x="20.36919" y="18.2197" width="0.23241" height="2.71951" style="fill:#003915"/><rect x="19.12479" y="19.46298" width="2.72041" height="0.23273" style="fill:#003915"/><path d="M150.3275,130.6781a.89715.89715,0,1,0,.8974-.89661.89858.89858,0,0,0-.8974.89661m1.5619,0a.66475.66475,0,1,1-.6645-.66391A.66545.66545,0,0,1,151.8894,130.6781Z" transform="translate(-130.73981 -111.0986)" style="fill:#003915"/><rect x="16.52399" y="14.28918" width="0.23271" height="2.71921" style="fill:#003915"/><rect x="15.27989" y="15.53189" width="2.7195" height="0.233" style="fill:#003915"/><path d="M146.48309,126.747a.8969.8969,0,1,0,.89691-.89691.89783.89783,0,0,0-.89691.89691m1.56111,0a.6643.6643,0,1,1-.6642-.66391A.66608.66608,0,0,1,148.0442,126.747Z" transform="translate(-130.73981 -111.0986)" style="fill:#003915"/><rect x="20.36919" y="14.28918" width="0.23241" height="2.71921" style="fill:#003915"/><rect x="19.12479" y="15.53189" width="2.72041" height="0.233" style="fill:#003915"/><path d="M150.3275,126.747a.89715.89715,0,1,0,.8974-.89691.89844.89844,0,0,0-.8974.89691m1.5619,0a.66475.66475,0,1,1-.6645-.66391A.66594.66594,0,0,1,151.8894,126.747Z" transform="translate(-130.73981 -111.0986)" style="fill:#003915"/><path d="M153.9023,127.27679a.4742.4742,0,1,0,.4742-.47449.47485.47485,0,0,0-.4742.47449m.71541,0a.2412.2412,0,1,1-.24121-.24179A.24168.24168,0,0,1,154.61771,127.27679Z" transform="translate(-130.73981 -111.0986)" style="fill:#003915"/><path d="M153.9023,125.6752a.4742.4742,0,1,0,.4742-.474.47463.47463,0,0,0-.4742.474m.71541,0a.2412.2412,0,1,1-.24121-.24152A.24165.24165,0,0,1,154.61771,125.6752Z" transform="translate(-130.73981 -111.0986)" style="fill:#003915"/><path d="M139.5499,239.6367a.80936.80936,0,1,0,.23471.57089.81019.81019,0,0,0-.23471-.57089m-.5726-1.0363a1.60705,1.60705,0,1,1-1.1364.47049A1.60315,1.60315,0,0,1,138.97729,238.6004Z" transform="translate(-130.73981 -111.0986)" style="fill:#003915"/><path d="M171.1644,248.4567a.8094.8094,0,1,0,.2347.57091.81021.81021,0,0,0-.2347-.57091m-.5726-1.0363a1.6069,1.6069,0,1,1-1.1364.4705A1.60293,1.60293,0,0,1,170.5918,247.42039Z" transform="translate(-130.73981 -111.0986)" style="fill:#003915"/><path d="M245.0959,153.42331c-.7319,0-1.2359-.618-1.2359-1.7399s.504-1.7399,1.2359-1.7399,1.2359.61789,1.2359,1.7399-.504,1.7399-1.2359,1.7399m0,.396c.972,0,1.67979-.798,1.67979-2.13589s-.70779-2.13593-1.67979-2.13593-1.6738.79791-1.6738,2.13593S244.1239,153.81931,245.0959,153.81931Zm-3.97191-.396c-.73189,0-1.23589-.618-1.23589-1.7399s.504-1.7399,1.23589-1.7399,1.2359.61789,1.2359,1.7399S241.8559,153.42331,241.124,153.42331Zm0,.396c.972,0,1.67981-.798,1.67981-2.13589s-.70781-2.13593-1.67981-2.13593-1.6738.79791-1.6738,2.13593S240.152,153.81931,241.124,153.81931Zm-2.5497-.65991a.31409.31409,0,0,0-.3181.324.30307.30307,0,0,0,.216.30579l-.2041.87h.288l.252-.828a.97652.97652,0,0,0,.0842-.34781A.314.314,0,0,0,238.5743,153.15939Zm-2.562-1.4281c-.648,0-1.05589-.3541-1.05589-.906a.919.919,0,0,1,1.02589-.9119c.72591,0,1.11.438,1.11.9A.97208.97208,0,0,1,236.0123,151.73129Zm-.0479-2.18381a1.30847,1.30847,0,0,0-1.434,1.2897,1.27145,1.27145,0,0,0,1.41591,1.26,1.34222,1.34222,0,0,0,1.28409-.72c.0119.12619.01781.24609.01781.34219,0,1.1398-.58189,1.722-1.4879,1.722a1.47185,1.47185,0,0,1-.8158-.19812l-.174.34811a1.928,1.928,0,0,0,.9958.22791c1.14011,0,1.91991-.74411,1.91991-2.17191C237.6862,150.32129,237.0804,149.54749,235.9644,149.54749Zm-3.7321.036v.38379h.9902v3.816h.432v-4.1998Z" transform="translate(-130.73981 -111.0986)" style="fill:#83746c;fill-rule:evenodd"/><path d="M245.0735,214.60429c-.7319,0-1.2359-.618-1.2359-1.7399s.504-1.7399,1.2359-1.7399,1.2359.6179,1.2359,1.7399-.504,1.7399-1.2359,1.7399m0,.396c.972,0,1.6799-.798,1.6799-2.13591s-.7079-2.13589-1.6799-2.13589-1.6738.7979-1.6738,2.13589S244.1015,215.00031,245.0735,215.00031Zm-3.97191-.396c-.73189,0-1.23589-.618-1.23589-1.7399s.504-1.7399,1.23589-1.7399,1.2359.6179,1.2359,1.7399S241.8335,214.60429,241.10159,214.60429Zm0,.396c.972,0,1.67981-.798,1.67981-2.13591s-.70781-2.13589-1.67981-2.13589-1.6738.7979-1.6738,2.13589S240.12959,215.00031,241.10159,215.00031Zm-2.5497-.65991a.31409.31409,0,0,0-.3181.324.30312.30312,0,0,0,.216.3058l-.2041.87h.288l.252-.828a.97638.97638,0,0,0,.0842-.34781A.314.314,0,0,0,238.5519,214.34039Zm-3.24.23981,1.4281-1.4037a1.729,1.729,0,0,0,.6899-1.31419c0-.70181-.54-1.1338-1.39211-1.1338a1.88745,1.88745,0,0,0-1.4879.59979l.30591.26421a1.426,1.426,0,0,1,1.146-.468c.64211,0,.9839.2999.9839.786,0,.2877-.0898.56981-.5638,1.03781l-1.74611,1.7101v.30589h2.946v-.38409Zm-2.9821-3.8157v.3838h.9902v3.816h.432v-4.1998Z" transform="translate(-130.73981 -111.0986)" style="fill:#83746c;fill-rule:evenodd"/><path d="M158.5647,222.3548c-.7319,0-1.2359-.618-1.2359-1.7399s.504-1.74,1.2359-1.74,1.2359.618,1.2359,1.74-.504,1.7399-1.2359,1.7399m0,.396c.972,0,1.67981-.798,1.67981-2.13589s-.70781-2.136-1.67981-2.136-1.6739.798-1.6739,2.136S157.5927,222.75079,158.5647,222.75079Zm-2.0701-1.5239h-.84v-.972h-.4198v.972h-1.8241l2.1481-2.712h-.48021l-2.22569,2.784v.3118h2.36969v1.1041h.432v-1.1041h.84Zm-4.4337.864a.31409.31409,0,0,0-.3181.324.30313.30313,0,0,0,.216.3058l-.2041.87h.288l.252-.828a.97607.97607,0,0,0,.08421-.34779A.314.314,0,0,0,152.0609,222.0909Zm-3.24.23981,1.42809-1.40381a1.72865,1.72865,0,0,0,.68991-1.3141c0-.70189-.54-1.1339-1.39211-1.1339a1.88716,1.88716,0,0,0-1.4879.5999l.30591.2641a1.4263,1.4263,0,0,1,1.146-.468c.64209,0,.9839.3.9839.7861,0,.2877-.0898.56981-.56381,1.03781l-1.74609,1.7101v.30589h2.946v-.38409Z" transform="translate(-130.73981 -111.0986)" style="fill:#83746c;fill-rule:evenodd"/><path d="M154.69479,190.34711c-.73189,0-1.2359-.618-1.2359-1.73991s.504-1.7399,1.2359-1.7399,1.2359.6179,1.2359,1.7399-.504,1.73991-1.2359,1.73991m0,.396c.972,0,1.67981-.798,1.67981-2.13591s-.70781-2.13589-1.67981-2.13589-1.6738.7979-1.6738,2.13589S153.72279,190.7431,154.69479,190.7431Zm-3.62379-.366c-.72591,0-1.11-.43791-1.11-.9a.97207.97207,0,0,1,1.08-.9178c.648,0,1.05589.3537,1.05589.9059A.91885.91885,0,0,1,151.071,190.37711Zm.036-2.18411a1.34287,1.34287,0,0,0-1.28409.72c-.0119-.12579-.01781-.2457-.01781-.3418,0-1.14009.58189-1.72209,1.4879-1.72209a1.47067,1.47067,0,0,1,.8158.1982l.174-.3481a1.92693,1.92693,0,0,0-.9958-.22791c-1.14011,0-1.91991.7438-1.91991,2.17191,0,1.326.6058,2.0999,1.7218,2.0999a1.30852,1.30852,0,0,0,1.434-1.2901A1.27163,1.27163,0,0,0,151.107,188.193Zm-2.6158,1.89021a.314.314,0,0,0-.318.324.303.303,0,0,0,.216.3058l-.2041.87h.288l.252-.828a.97605.97605,0,0,0,.0842-.34781A.314.314,0,0,0,148.4912,190.08321Zm-3.24.23979,1.4281-1.4037a1.72916,1.72916,0,0,0,.69-1.31419c0-.7018-.54-1.1338-1.39209-1.1338a1.88723,1.88723,0,0,0-1.4879.59981l.3058.26419a1.42618,1.42618,0,0,1,1.14609-.468c.642,0,.9839.29991.9839.786,0,.28769-.08989.56979-.5638,1.0378l-1.7462,1.7101v.30589h2.94611V190.323Z" transform="translate(-130.73981 -111.0986)" style="fill:#83746c;fill-rule:evenodd"/><path d="M244.47971,284.5455c-.7319,0-1.2359-.618-1.2359-1.7399s.504-1.7399,1.2359-1.7399,1.2359.61789,1.2359,1.7399-.504,1.7399-1.2359,1.7399m0,.396c.972,0,1.67979-.798,1.67979-2.13589s-.70779-2.13591-1.67979-2.13591-1.6739.79791-1.6739,2.13591S243.50771,284.9415,244.47971,284.9415Zm-3.966-2.5141h-.54l.144-1.33791h1.91989v-.38379h-2.2977l-.216,2.10579h.894c1.06781,0,1.4037.33591,1.4037.8759,0,.51-.37779.85811-1.09189.85811a1.821,1.821,0,0,1-1.29-.4859l-.20979.3419a2.16864,2.16864,0,0,0,1.5058.54c1.02609,0,1.5239-.55789,1.5239-1.2719C242.2596,282.92551,241.77969,282.4274,240.5137,282.4274Zm-2.0457,1.8542a.31408.31408,0,0,0-.3181.324.3031.3031,0,0,0,.216.30579l-.2041.87h.288l.252-.828a.97605.97605,0,0,0,.0842-.34779A.314.314,0,0,0,238.468,284.2816Zm-2.28621-1.77589,1.188-1.4942v-.3058h-2.7v.38379h2.1481l-1.16389,1.4581v.3181h.2999c.7798,0,1.1339.32991,1.1339.83391,0,.5219-.3838.8459-1.08.8459a1.84133,1.84133,0,0,1-1.302-.4859l-.21.3419a2.18493,2.18493,0,0,0,1.512.54c1.0139,0,1.5239-.54,1.5239-1.2419C237.53169,283.0275,237.0818,282.5536,236.18179,282.50571Zm-3.852-1.8v.38379h.9902v3.816h.432v-4.1998Z" transform="translate(-130.73981 -111.0986)" style="fill:#83746c;fill-rule:evenodd"/><path d="M280.906,149.54581c-.7319,0-1.2359-.618-1.2359-1.74s.504-1.7399,1.2359-1.7399,1.2359.618,1.2359,1.7399-.504,1.74-1.2359,1.74m0,.396c.972,0,1.67978-.798,1.67978-2.136s-.70779-2.13589-1.67978-2.13589-1.6738.798-1.6738,2.13589S279.934,149.9418,280.906,149.9418Zm-2.0701-1.524h-.8399v-.972h-.4198v.972h-1.8241l2.1481-2.71188H277.42l-2.2258,2.78391v.31189H277.564v1.1041h.432v-1.1041h.8399Zm-4.43372.864a.31406.31406,0,0,0-.318.324.30307.30307,0,0,0,.216.30591l-.2041.87h.288l.252-.828a.97692.97692,0,0,0,.0842-.3479A.31406.31406,0,0,0,274.40219,149.2818Zm-2.2861-1.77591,1.188-1.49408v-.30591h-2.7v.38391h2.1481l-1.16391,1.4581v.318h.29993c.77979,0,1.13379.33,1.13379.834,0,.52191-.38379.84592-1.08.84592a1.841,1.841,0,0,1-1.30188-.4859l-.21011.34189a2.18519,2.18519,0,0,0,1.512.54c1.014,0,1.52393-.54,1.52393-1.24191C273.46591,148.0278,273.01611,147.5538,272.11609,147.50589Z" transform="translate(-130.73981 -111.0986)" style="fill:#83746c;fill-rule:evenodd"/><path d="M165.46761,284.5455c-.7319,0-1.2359-.618-1.2359-1.7399s.504-1.7399,1.2359-1.7399,1.2359.61789,1.2359,1.7399-.504,1.7399-1.2359,1.7399m0,.396c.972,0,1.67979-.798,1.67979-2.13589s-.70779-2.13591-1.67979-2.13591-1.67381.79791-1.67381,2.13591S164.49561,284.9415,165.46761,284.9415Zm-3.97191-.396c-.7319,0-1.2359-.618-1.2359-1.7399s.504-1.7399,1.2359-1.7399,1.2359.61789,1.2359,1.7399S162.2276,284.5455,161.4957,284.5455Zm0,.396c.972,0,1.67981-.798,1.67981-2.13589s-.70781-2.13591-1.67981-2.13591-1.6738.79791-1.6738,2.13591S160.5237,284.9415,161.4957,284.9415Zm-2.5497-.6599a.31409.31409,0,0,0-.3181.324.3031.3031,0,0,0,.216.30579l-.2041.87h.288l.252-.828a.97615.97615,0,0,0,.08421-.34779A.314.314,0,0,0,158.946,284.2816Zm-2.6221-1.8542h-.54l.144-1.33791h1.91989v-.38379H155.55l-.216,2.10579h.8941c1.06779,0,1.4037.33591,1.4037.8759,0,.51-.37781.85811-1.0919.85811a1.821,1.821,0,0,1-1.29-.4859l-.20979.3419a2.16867,2.16867,0,0,0,1.5058.54c1.02611,0,1.5239-.55789,1.5239-1.2719C158.06979,282.92551,157.5899,282.4274,156.3239,282.4274Z" transform="translate(-130.73981 -111.0986)" style="fill:#83746c;fill-rule:evenodd"/><path d="M192.1958,254.9767c-.7319,0-1.2359-.6179-1.2359-1.7399s.504-1.7399,1.2359-1.7399,1.2359.618,1.2359,1.7399-.504,1.7399-1.2359,1.7399m0,.396c.972,0,1.67979-.7979,1.67979-2.13589s-.70779-2.13589-1.67979-2.13589-1.6739.798-1.6739,2.13589S191.2238,255.3727,192.1958,255.3727Zm-3.966-2.514h-.54l.144-1.338h1.91989v-.3838H187.456l-.216,2.1059h.894c1.06779,0,1.4037.33591,1.4037.8759,0,.5099-.37781.858-1.0919.858a1.82141,1.82141,0,0,1-1.29-.48579l-.20981.3418a2.16817,2.16817,0,0,0,1.5058.54c1.02611,0,1.5239-.5578,1.5239-1.2719C189.97569,253.3567,189.4958,252.8587,188.2298,252.8587Zm-2.0457,1.8541a.31415.31415,0,0,0-.3181.324.30323.30323,0,0,0,.216.30589l-.2041.8699h.288l.252-.828a.97566.97566,0,0,0,.08421-.34779A.314.314,0,0,0,186.1841,254.7128Zm-.84619-.864h-.8399v-.972h-.4198v.972h-1.8241l2.1481-2.7119H183.922l-2.22569,2.78391v.3118H184.066v1.1041h.432v-1.1041h.8399Z" transform="translate(-130.73981 -111.0986)" style="fill:#83746c;fill-rule:evenodd"/><path d="M134.6196,186.78619a3.90785,3.90785,0,1,1-3.87979,4.37581v-.9362a3.90871,3.90871,0,0,1,3.87979-3.43961" transform="translate(-130.73981 -111.0986)" style="fill:#558e42;fill-rule:evenodd"/><polygon points="6.284 79.595 4.969 79.217 3.654 78.839 3.654 79.595 3.654 80.352 4.969 79.974 6.284 79.595" style="fill:#fdfdfd;fill-rule:evenodd"/><rect x="1.47569" y="79.41629" width="2.2814" height="0.38411" style="fill:#fdfdfd"/><path d="M277.8157,120.1218c-.42691,0-.7211-.3605-.7211-1.0148,0-.65448.29419-1.015.7211-1.015s.72079.3605.72079,1.015c0,.6543-.29388,1.0148-.72079,1.0148m0,.23111c.56689,0,.97989-.46552.97989-1.24591,0-.78061-.413-1.24609-.97989-1.24609s-.97659.46548-.97659,1.24609C276.83911,119.88739,277.24881,120.35291,277.8157,120.35291Zm-2.62521-.2449.8331-.819a1.0076,1.0076,0,0,0,.4025-.76651c0-.40961-.31488-.66159-.81207-.66159a1.10142,1.10142,0,0,0-.868.3501l.17859.1539a.83213.83213,0,0,1,.6684-.27289c.37451,0,.57413.1749.57413.45828,0,.16812-.05252.33252-.32892.6055l-1.01849.9975v.17862h1.71838V120.108Zm-.90988-.14011a.18316.18316,0,0,0-.18539.18912.17676.17676,0,0,0,.12589.17828l-.11911.50769h.16812l.14709-.483a.57464.57464,0,0,0,.0491-.203A.18322.18322,0,0,0,274.28061,119.9679Zm-1.60641-2.086v.22391h.57739v2.2261h.252v-2.45Z" transform="translate(-130.73981 -111.0986)" style="fill:#434242"/><path d="M202.716,119.8718c-.42691,0-.7211-.3605-.7211-1.0148,0-.65448.29419-1.01511.7211-1.01511s.7209.36063.7209,1.01511c0,.6543-.294,1.0148-.7209,1.0148m0,.23111c.56689,0,.9799-.46552.9799-1.24591,0-.78061-.413-1.24609-.9799-1.24609s-.9765.46548-.9765,1.24609C201.7395,119.63739,202.14909,120.10291,202.716,120.10291Zm-2.1138-.2135c-.42351,0-.64771-.2554-.64771-.525a.56722.56722,0,0,1,.6301-.5354c.3779,0,.616.2063.616.52829A.53608.53608,0,0,1,200.6022,119.8894Zm.021-1.2739a.78344.78344,0,0,0-.74921.4198c-.00679-.07339-.0105-.1434-.0105-.19952,0-.66479.3396-1.00427.868-1.00427a.86072.86072,0,0,1,.4762.1153l.1015-.20291a1.126,1.126,0,0,0-.5811-.133c-.665,0-1.12.434-1.12,1.26709,0,.77332.3535,1.22491,1.00461,1.22491a.7634.7634,0,0,0,.8365-.75259A.74175.74175,0,0,0,200.6232,118.61551Zm-1.5262,1.10239a.18317.18317,0,0,0-.18539.18912.17675.17675,0,0,0,.1259.17828l-.11911.50769h.16811l.14709-.48309a.57348.57348,0,0,0,.0491-.20288A.18321.18321,0,0,0,199.097,119.7179Zm-1.5293-1.08139h-.3149l.08389-.7807h1.12v-.22391h-1.3405l-.1259,1.22852h.5213c.623,0,.8192.19589.8192.51108,0,.29739-.22049.50031-.63719.50031a1.0612,1.0612,0,0,1-.7523-.28339l-.1225.19949a1.26447,1.26447,0,0,0,.87849.315c.5984,0,.8889-.3255.8889-.74191C198.5862,118.92679,198.30611,118.63651,197.5677,118.63651Z" transform="translate(-130.73981 -111.0986)" style="fill:#434242"/><path d="M242.4787,185.6396c-.434,0-.68939-.1891-.68939-.4935,0-.3011.25539-.4901.68939-.4901s.6931.189.6931.4901c0,.3044-.25909.4935-.6931.4935m-.6055-1.624c0-.273.2347-.4411.6055-.4411.36771,0,.60921.16811.60921.4445,0,.2662-.2276.4377-.60921.4377C242.0974,184.4567,241.8732,184.2852,241.8732,184.01559Zm1.078.5321a.55507.55507,0,0,0,.39211-.5392c0-.3988-.34641-.6474-.86461-.6474-.5179,0-.8575.2486-.8575.6474a.5531.5531,0,0,0,.3853.5392.61093.61093,0,0,0-.4726.60181c0,.434.35689.70349.94479.70349.5845,0,.95219-.2695.95219-.70349A.61685.61685,0,0,0,242.9512,184.5477Zm-2.7439.0873c-.3779,0-.616-.20639-.616-.5284a.53639.53639,0,0,1,.59871-.5321c.42349,0,.6474.25571.6474.525A.56706.56706,0,0,1,240.20731,184.635Zm-.0278-1.2739a.76317.76317,0,0,0-.8365.75259.74153.74153,0,0,0,.826.73471.78275.78275,0,0,0,.749-.4198c.007.07339.01041.1434.01041.1996,0,.665-.33951,1.00429-.8679,1.00429a.85941.85941,0,0,1-.476-.11539l-.10141.203a1.12369,1.12369,0,0,0,.58081.1329c.665,0,1.1199-.434,1.1199-1.26709C241.18381,183.81261,240.8304,183.3611,240.1795,183.3611Zm-1.3127,2.107a.18318.18318,0,0,0-.18541.1891.17685.17685,0,0,0,.1259.1783l-.11909.5076h.16809l.14711-.483a.5739.5739,0,0,0,.0491-.2029A.18322.18322,0,0,0,238.86681,185.46809Zm-1.3334-1.03609.69279-.87141v-.1785h-1.575v.22391h1.253l-.67891.85069v.18541h.17491c.45519,0,.66159.1924.66159.48639,0,.3044-.224.4935-.6299.4935a1.07438,1.07438,0,0,1-.7597-.28349l-.12239.1996a1.27424,1.27424,0,0,0,.8821.3149c.59129,0,.889-.3149.889-.7245C238.32091,184.7365,238.0584,184.4601,237.5334,184.432Z" transform="translate(-130.73981 -111.0986)" style="fill:#434242"/><path d="M231.8661,303.6368h-.315l.084-.7807h1.1199v-.2239h-1.3405l-.12581,1.2285h.5213c.623,0,.8192.1959.8192.51109,0,.2974-.2206.50031-.6373.50031a1.0614,1.0614,0,0,1-.7523-.2834l-.12239.1995a1.26426,1.26426,0,0,0,.8784.315c.59839,0,.889-.3254.889-.74191,0-.4342-.28009-.72449-1.01849-.72449m-2.058-1.0046v.2239h.57739v2.2261h.252v-2.45Zm-.3569,2.086a.18315.18315,0,0,0-.1853.1891.17669.17669,0,0,0,.12579.1783l-.119.5077h.16809l.14711-.483a.57614.57614,0,0,0,.049-.203A.18321.18321,0,0,0,229.4512,304.7182Zm-1.52921-1.0814h-.315l.08391-.7807h1.12v-.2239h-1.3405l-.1259,1.2285h.5213c.62311,0,.8192.1959.8192.51109,0,.2974-.2205.50031-.63719.50031a1.06137,1.06137,0,0,1-.7523-.2834l-.1225.1995a1.2645,1.2645,0,0,0,.87849.315c.5984,0,.8889-.3254.8889-.74191C228.9404,303.9271,228.6604,303.6368,227.922,303.6368Z" transform="translate(-130.73981 -111.0986)" style="fill:#434242"/><path d="M158.19479,290.4772c-.4269,0-.72119-.3605-.72119-1.0148,0-.65451.2943-1.015.72119-1.015s.72081.36049.72081,1.015c0,.6543-.2939,1.0148-.72081,1.0148m0,.23109c.56691,0,.9799-.4655.9799-1.2459,0-.78061-.413-1.24611-.9799-1.24611s-.97659.4655-.97659,1.24611C157.2182,290.2428,157.62781,290.7083,158.19479,290.7083Zm-2.27849-.2135c-.434,0-.68941-.189-.68941-.4935,0-.301.2554-.4901.68941-.4901s.6931.1891.6931.4901C156.60941,290.3058,156.3503,290.4948,155.91631,290.4948Zm-.6055-1.6239c0-.273.2347-.4411.6055-.4411.3676,0,.6091.16811.6091.4445,0,.2661-.2276.43761-.6091.43761C155.535,289.3119,155.31081,289.1404,155.31081,288.8709Zm1.078.532a.555.555,0,0,0,.39211-.53909c0-.3989-.34641-.64751-.86459-.64751-.5179,0-.8575.24861-.8575.64751a.55287.55287,0,0,0,.38519.53909.611.611,0,0,0-.4725.60181c0,.434.3569.7036.94481.7036.58449,0,.95209-.26959.95209-.7036A.61687.61687,0,0,0,156.38879,289.40289Zm-1.9879.92041a.18317.18317,0,0,0-.18539.1891.17667.17667,0,0,0,.1259.1783l-.11909.50769h.16809l.14711-.483a.57427.57427,0,0,0,.04909-.203A.18326.18326,0,0,0,154.40089,290.3233Zm-1.6064-2.086v.22389h.57741v2.2261h.252v-2.45Z" transform="translate(-130.73981 -111.0986)" style="fill:#434242"/><line x1="140.3844" y1="8.07339" x2="133.63599" y2="8.07339" style="fill:none;stroke:#b1b2b2;stroke-miterlimit:22.92558479309082;stroke-width:0.2160000056028366px"/><line x1="64.88419" y1="7.8233" x2="13.57709" y2="7.8233" style="fill:none;stroke:#b1b2b2;stroke-miterlimit:22.92558479309082;stroke-width:0.2160000056028366px"/><line x1="104.6344" y1="73.5735" x2="71.2029" y2="73.5735" style="fill:none;stroke:#b1b2b2;stroke-miterlimit:22.92558479309082;stroke-width:0.2160000056028366px"/><line x1="94.6344" y1="192.8237" x2="47.3718" y2="192.8237" style="fill:none;stroke:#b1b2b2;stroke-miterlimit:22.92558479309082;stroke-width:0.2160000056028366px"/><line x1="20.63419" y1="178.4288" x2="7.20259" y2="178.4288" style="fill:none;stroke:#b1b2b2;stroke-miterlimit:22.92558479309082;stroke-width:0.2160000056028366px"/><line x1="156.5719" y1="8.07339" x2="149.82349" y2="8.07339" style="fill:none;stroke:#b1b2b2;stroke-miterlimit:22.92558479309082;stroke-width:0.2160000056028366px"/><line x1="124.41769" y1="7.8233" x2="74.32329" y2="7.8233" style="fill:none;stroke:#b1b2b2;stroke-miterlimit:22.92558479309082;stroke-width:0.2160000056028366px"/><line x1="149.6282" y1="73.5735" x2="114.07349" y2="73.5735" style="fill:none;stroke:#b1b2b2;stroke-miterlimit:22.92558479309082;stroke-width:0.2160000056028366px"/><line x1="149.6282" y1="192.8237" x2="104.07349" y2="192.8237" style="fill:none;stroke:#b1b2b2;stroke-miterlimit:22.92558479309082;stroke-width:0.2160000056028366px"/><line x1="41.5999" y1="178.4288" x2="30.07329" y2="178.4288" style="fill:none;stroke:#b1b2b2;stroke-miterlimit:22.92558479309082;stroke-width:0.2160000056028366px"/><path d="M276.35641,210.22639c0,.42351-.2554.64781-.525.64781a.56727.56727,0,0,1-.5354-.6302c0-.37781.2063-.616.52832-.616a.53612.53612,0,0,1,.5321.59839m-1.27393-.02089a.78355.78355,0,0,0,.4198.74919c-.07339.00681-.1434.0105-.19949.0105-.66479,0-1.0043-.3396-1.0043-.868a.86055.86055,0,0,1,.1153-.4762l-.20288-.1015a1.12539,1.12539,0,0,0-.133.5811c0,.665.434,1.12,1.26709,1.12.77328,0,1.22488-.3535,1.22488-1.00459a.76333.76333,0,0,0-.75259-.8365A.7417.7417,0,0,0,275.08249,210.20551Zm1.25632,2.35559c0,.42691-.3605.7211-1.0148.7211-.65451,0-1.01511-.29419-1.01511-.7211s.3606-.7209,1.01511-.7209C275.9783,211.84019,276.33881,212.1342,276.33881,212.5611Zm.23108,0c0-.567-.46548-.98-1.24588-.98-.78061,0-1.24609.413-1.24609.98s.46548.9765,1.24609.9765C276.1044,213.5376,276.56989,213.128,276.56989,212.5611Zm-.385,1.48761a.18317.18317,0,0,0,.18909.18539.17678.17678,0,0,0,.17831-.1259l.50769.11909v-.16809l-.48309-.1472a.57486.57486,0,0,0-.20291-.049A.1832.1832,0,0,0,276.18491,214.04871Zm-1.036,1.33339-.8714-.69279h-.17859v1.57491h.22391v-1.2529l.85068.67889h.18539v-.1749c0-.4552.1925-.66161.48642-.66161.3045,0,.4935.224.4935.6299a1.07434,1.07434,0,0,1-.28342.7597l.19952.12239a1.27459,1.27459,0,0,0,.315-.8821c0-.59129-.315-.889-.72458-.889C275.45331,214.5946,275.17691,214.8571,275.1489,215.3821Z" transform="translate(-130.73981 -111.0986)" style="fill:#434242"/><path d="M285.1489,144.37509l-.8714-.69278h-.1785v1.57489h.22391v-1.2529l.85071.67889h.18539v-.1749c0-.4552.19238-.66159.48639-.66159.30441,0,.4935.22388.4935.62988a1.07412,1.07412,0,0,1-.28351.75961l.19962.1225a1.27469,1.27469,0,0,0,.31488-.88211c0-.5914-.31488-.889-.72449-.889-.392,0-.6684.26251-.6965.78751m.203,2.1387c0,.3779-.20639.616-.52841.616a.53636.53636,0,0,1-.53207-.59869c0-.42349.25568-.6474.525-.6474A.56706.56706,0,0,1,285.3519,146.51379Zm-1.2739.0278a.76318.76318,0,0,0,.75259.83652.74155.74155,0,0,0,.73471-.826.78252.78252,0,0,0-.4198-.7489c.07339-.00708.1434-.0105.19958-.0105.665,0,1.0043.3396,1.0043.86792a.85939.85939,0,0,1-.11539.476l.203.1015a1.12437,1.12437,0,0,0,.13287-.5809c0-.665-.434-1.1199-1.26709-1.1199C284.52951,145.53729,284.078,145.89081,284.078,146.5416Zm2.107,1.31271a.18315.18315,0,0,0,.189.18539.17658.17658,0,0,0,.17831-.12592l.50769.11911v-.16809l-.483-.14709a.57352.57352,0,0,0-.203-.0491A.18323.18323,0,0,0,286.185,147.85431Zm.14,1.8902-.81891-.8331a1.008,1.008,0,0,0-.76651-.40262c-.40961,0-.66159.315-.66159.81223a1.10076,1.10076,0,0,0,.3501.86789l.1539-.17862a.832.832,0,0,1-.273-.6684c0-.37439.1749-.574.4584-.574.16809,0,.33252.05249.6055.3288l.9975,1.01849h.1785v-1.71829H286.325Z" transform="translate(-130.73981 -111.0986)" style="fill:#434242"/><path d="M276.85641,277.22639c0,.42351-.2554.6477-.5249.6477a.56725.56725,0,0,1-.53552-.6301c0-.3779.20642-.616.52841-.616a.536.536,0,0,1,.532.59839m-1.2738-.021a.78343.78343,0,0,0,.4198.74921c-.07352.00679-.14352.0105-.19962.0105-.6647,0-1.0043-.3396-1.0043-.8679a.86092.86092,0,0,1,.11542-.4763l-.203-.10139a1.12538,1.12538,0,0,0-.1329.5811c0,.665.4339,1.1199,1.267,1.1199.77328,0,1.22488-.3535,1.22488-1.00461a.76338.76338,0,0,0-.75259-.8365A.74167.74167,0,0,0,275.58261,277.2054Zm1.25629,2.35561c0,.4269-.3606.72119-1.0148.72119-.6546,0-1.01511-.2943-1.01511-.72119s.3605-.72081,1.01511-.72081C276.4783,278.84019,276.8389,279.13409,276.8389,279.561Zm.231,0c0-.56691-.46548-.9799-1.24579-.9799-.7807,0-1.24609.413-1.24609.9799s.46539.97659,1.24609.97659C276.6044,280.5376,277.06989,280.128,277.06989,279.561Zm-.385,1.48759a.18316.18316,0,0,0,.18909.18539.1767.1767,0,0,0,.17831-.12579l.50769.119v-.16811l-.483-.14709a.57568.57568,0,0,0-.203-.049A.18323.18323,0,0,0,276.68491,281.0486Zm-1.036,1.3335-.8714-.69279h-.17859v1.57491h.224v-1.2529l.85059.67889h.18539v-.1749c0-.45531.1925-.66161.48651-.66161.30441,0,.4935.22391.4935.62981a1.07415,1.07415,0,0,1-.28351.75969l.19962.1225a1.27522,1.27522,0,0,0,.31488-.88219c0-.59131-.31488-.8889-.72449-.8889C275.95331,281.5946,275.67691,281.8571,275.6489,282.3821Z" transform="translate(-130.73981 -111.0986)" style="fill:#434242"/><path d="M169.58859,228.03481c0,.4269-.36049.72119-1.01479.72119-.65451,0-1.01511-.2943-1.01511-.72119s.3606-.72081,1.01511-.72081c.6543,0,1.01479.2939,1.01479.72081m.23111,0c0-.56691-.4655-.9799-1.2459-.9799-.78061,0-1.24611.413-1.24611.9799s.4655.97659,1.24611.97659C169.3542,229.0114,169.8197,228.60181,169.8197,228.03481Zm-.2135,2.1138c0,.42349-.2554.64769-.525.64769a.56721.56721,0,0,1-.5354-.6301c0-.3779.2063-.616.52829-.616A.53608.53608,0,0,1,169.6062,230.14861Zm-1.2739-.021a.78344.78344,0,0,0,.4198.74921c-.07341.00681-.1434.0105-.19951.0105-.66479,0-1.0043-.3396-1.0043-.8679a.86094.86094,0,0,1,.11531-.47629l-.20291-.10141a1.12569,1.12569,0,0,0-.133.5811c0,.665.434,1.1199,1.26711,1.1199.7733,0,1.2249-.3535,1.2249-1.00461a.76339.76339,0,0,0-.75261-.83649A.74175.74175,0,0,0,168.33231,230.12759Zm1.10239,1.5262a.18318.18318,0,0,0,.1891.18541.17664.17664,0,0,0,.1783-.1259l.50771.11909v-.16809l-.48309-.14711a.57354.57354,0,0,0-.20291-.0491A.18322.18322,0,0,0,169.43469,231.65379Zm-2.086,1.6064h.22391v-.57739h2.2261v-.252h-2.45Z" transform="translate(-130.73981 -111.0986)" style="fill:#434242"/><path d="M150.35609,269.9765c0,.42349-.2554.64771-.525.64771a.56717.56717,0,0,1-.5354-.63011c0-.3779.2063-.616.5284-.616a.536.536,0,0,1,.532.5984m-1.2739-.021a.7836.7836,0,0,0,.4198.74919c-.07339.00681-.1434.0105-.19949.0105-.6647,0-1.0043-.3396-1.0043-.86789a.86109.86109,0,0,1,.1153-.4763l-.2029-.10141a1.12554,1.12554,0,0,0-.133.5811c0,.665.434,1.1199,1.26709,1.1199.7733,0,1.2249-.35339,1.2249-1.00459a.76339.76339,0,0,0-.75259-.8365A.74175.74175,0,0,0,149.0822,269.95551Zm1.25639,2.35559c0,.42691-.3606.72121-1.01489.72121-.6545,0-1.015-.2943-1.015-.72121s.3605-.72079,1.015-.72079C149.978,271.5903,150.33859,271.8842,150.33859,272.3111Zm.231,0c0-.56689-.4655-.9799-1.2459-.9799-.78059,0-1.24609.413-1.24609.9799s.4655.97661,1.24609.97661C150.1041,273.2877,150.5696,272.8781,150.5696,272.3111Zm-.385,1.4877a.18316.18316,0,0,0,.1891.1853.17668.17668,0,0,0,.1783-.12579l.50769.119v-.16809l-.483-.14711a.57617.57617,0,0,0-.203-.049A.18321.18321,0,0,0,150.1846,273.7988Zm-1.036,1.3334-.8714-.69281h-.1786v1.57491h.224v-1.2529l.8506.67889h.18539v-.1749c0-.4552.1925-.66159.4864-.66159.3045,0,.49359.22389.49359.6299a1.07413,1.07413,0,0,1-.28349.7596l.19949.1225a1.27468,1.27468,0,0,0,.315-.8821c0-.5914-.315-.889-.72459-.889C149.453,274.3447,149.17661,274.60719,149.14861,275.1322Z" transform="translate(-130.73981 -111.0986)" style="fill:#434242"/><path d="M161.0887,135.84079c0,.42691-.3606.7211-1.0148.7211-.6546,0-1.01509-.29419-1.01509-.7211s.36049-.72079,1.01509-.72079c.65421,0,1.0148.29391,1.0148.72079m.231,0c0-.56689-.4655-.97989-1.2458-.97989-.7807,0-1.2462.413-1.2462.97989s.4655.9765,1.2462.9765C160.8542,136.81729,161.3197,136.40768,161.3197,135.84079Zm-2.471,2.3905h.224v-.57748h2.226v-.252h-2.45Zm2.086.35681a.18318.18318,0,0,0,.1891.18539.17668.17668,0,0,0,.1783-.12579l.50771.119v-.16809l-.483-.14709a.57347.57347,0,0,0-.203-.049A.18321.18321,0,0,0,160.93469,138.5881Zm.14011,1.8902-.819-.8331a1.00756,1.00756,0,0,0-.7664-.4025c-.4097,0-.6617.31488-.6617.8121a1.10145,1.10145,0,0,0,.3501.868l.1539-.17859a.83238.83238,0,0,1-.27289-.6684c0-.37451.1749-.574.4583-.574.16809,0,.33249.0524.6055.3288l.9975,1.01849h.1786v-1.71838h-.22391Z" transform="translate(-130.73981 -111.0986)" style="fill:#434242"/><path d="M142.8562,188.9054c0,.42351-.2554.64771-.525.64771a.56726.56726,0,0,1-.5354-.6302c0-.37779.2063-.61589.5284-.61589a.536.536,0,0,1,.532.59839m-1.2739-.021a.78361.78361,0,0,0,.4198.74921c-.07341.00679-.1434.0105-.19951.0105-.6647,0-1.0043-.3396-1.0043-.868a.86042.86042,0,0,1,.11531-.4762l-.20291-.1015a1.126,1.126,0,0,0-.133.5811c0,.665.434,1.12,1.26711,1.12.7733,0,1.2249-.3535,1.2249-1.00461a.76335.76335,0,0,0-.75261-.8365A.74175.74175,0,0,0,141.58231,188.8844Zm.26929,2.35561c0,.37779-.2063.616-.5284.616a.53632.53632,0,0,1-.532-.59871c0-.42349.25571-.64749.525-.64749A.56708.56708,0,0,1,141.85159,191.24Zm-1.2739.0278a.76323.76323,0,0,0,.75261.83649.74159.74159,0,0,0,.73479-.826.78282.78282,0,0,0-.4198-.749c.07341-.007.1434-.01039.19951-.01039.665,0,1.0043.33949,1.0043.86789a.85927.85927,0,0,1-.11531.476l.20291.10141a1.12382,1.12382,0,0,0,.133-.58081c0-.665-.434-1.11989-1.26711-1.11989C141.0293,190.2635,140.5777,190.6169,140.5777,191.26781Zm2.107,1.3127a.18318.18318,0,0,0,.1891.18539.17676.17676,0,0,0,.1783-.1259l.50771.11909V192.591l-.483-.14711a.57427.57427,0,0,0-.203-.04909A.18321.18321,0,0,0,142.68469,192.58051Zm-2.086,1.6064h.22391v-.57741h2.2261v-.252h-2.45Z" transform="translate(-130.73981 -111.0986)" style="fill:#434242"/><line x1="144.64908" y1="106.41969" x2="144.64908" y2="129.98489" style="fill:none;stroke:#b1b2b2;stroke-miterlimit:22.92558479309082;stroke-width:0.2160000056028366px"/><line x1="154.6492" y1="40.41949" x2="154.6492" y2="62.1564" style="fill:none;stroke:#b1b2b2;stroke-miterlimit:22.92558479309082;stroke-width:0.2160000056028366px"/><line x1="145.1492" y1="173.41969" x2="145.1492" y2="196.72269" style="fill:none;stroke:#b1b2b2;stroke-miterlimit:22.92558479309082;stroke-width:0.2160000056028366px"/><line x1="37.8989" y1="123.6696" x2="37.8989" y2="130.41809" style="fill:none;stroke:#b1b2b2;stroke-miterlimit:22.92558479309082;stroke-width:0.2160000056028366px"/><line x1="18.6489" y1="166.1698" x2="18.6489" y2="196.72269" style="fill:none;stroke:#b1b2b2;stroke-miterlimit:22.92558479309082;stroke-width:0.2160000056028366px"/><line x1="29.39899" y1="31.41949" x2="29.39899" y2="45.48331" style="fill:none;stroke:#b1b2b2;stroke-miterlimit:22.92558479309082;stroke-width:0.2160000056028366px"/><line x1="11.14699" y1="84.66969" x2="11.14699" y2="97.12889" style="fill:none;stroke:#b1b2b2;stroke-miterlimit:22.92558479309082;stroke-width:0.2160000056028366px"/><line x1="144.64908" y1="70.3165" x2="144.64908" y2="96.98059" style="fill:none;stroke:#b1b2b2;stroke-miterlimit:22.92558479309082;stroke-width:0.2160000056028366px"/><line x1="154.6492" y1="3.9118" x2="154.6492" y2="30.98041" style="fill:none;stroke:#b1b2b2;stroke-miterlimit:22.92558479309082;stroke-width:0.2160000056028366px"/><line x1="145.1492" y1="136.7348" x2="145.1492" y2="163.98059" style="fill:none;stroke:#b1b2b2;stroke-miterlimit:22.92558479309082;stroke-width:0.2160000056028366px"/><line x1="37.8989" y1="100.3204" x2="37.8989" y2="114.23059" style="fill:none;stroke:#b1b2b2;stroke-miterlimit:22.92558479309082;stroke-width:0.2160000056028366px"/><line x1="18.6489" y1="137.5625" x2="18.6489" y2="156.7307" style="fill:none;stroke:#b1b2b2;stroke-miterlimit:22.92558479309082;stroke-width:0.2160000056028366px"/><line x1="29.39899" y1="3.9118" x2="29.39899" y2="21.98041" style="fill:none;stroke:#b1b2b2;stroke-miterlimit:22.92558479309082;stroke-width:0.2160000056028366px"/><line x1="11.14899" y1="58.14" x2="11.14899" y2="75.23059" style="fill:none;stroke:#b1b2b2;stroke-miterlimit:22.92558479309082;stroke-width:0.2160000056028366px"/></svg>