<?xml version="1.0" encoding="utf-8"?>
<!-- Generator: Adobe Illustrator 23.0.2, SVG Export Plug-In . SVG Version: 6.00 Build 0)  -->
<svg version="1.1" id="Слой_1" xmlns="http://www.w3.org/2000/svg" xmlns:xlink="http://www.w3.org/1999/xlink" x="0px" y="0px"
	 viewBox="0 0 617.5 800" enable-background="new 0 0 617.5 800" xml:space="preserve">
<rect x="16.3" y="141.2" fill="#F3F3F3" stroke="#838383" width="29.5" height="118.9"/>
<g id="moyka_2_12_">
	<path fill="#F3F3F3" stroke="#838383" d="M40.9,222.9c0.9,0,1.6,0.7,1.6,1.6v23c0,0.9-0.7,1.6-1.6,1.6H21.8c-0.9,0-1.6-0.7-1.6-1.6
		v-23c0-0.9,0.7-1.6,1.6-1.6H40.9z"/>
	<path fill="#F3F3F3" stroke="#838383" d="M39.3,224.5c0.9,0,1.6,0.7,1.6,1.6v19.9c0,0.9-0.7,1.6-1.6,1.6H25.8
		c-0.9,0-1.6-0.7-1.6-1.6V226c0-0.9,0.7-1.6,1.6-1.6H39.3z"/>
	<rect x="22.6" y="234.8" fill="#F3F3F3" stroke="#838383" width="6.4" height="1.6"/>
	<circle fill="#F3F3F3" stroke="#838383" cx="33.3" cy="236" r="1.2"/>
</g>
<g id="plita_12_">
	<rect x="17.2" y="178.9" fill="#F3F3F3" stroke="#838383" width="28.6" height="27.8"/>
	<circle fill="#F3F3F3" stroke="#838383" cx="38.7" cy="198.8" r="4.8"/>
	<circle fill="#F3F3F3" stroke="#838383" cx="26.7" cy="186.9" r="4.8"/>
	<circle fill="#F3F3F3" stroke="#838383" cx="38.7" cy="186.9" r="4"/>
	<circle fill="#F3F3F3" stroke="#838383" cx="26.7" cy="198.8" r="4"/>
</g>
<g id="stirka_10_">
	<rect x="561.5" y="318.6" fill="#F3F3F3" stroke="#838383" width="23.8" height="23.8"/>
	<path fill="#F3F3F3" stroke="#838383" d="M583.8,321c0,0.9-0.7,1.6-1.6,1.6h-5.6c-0.9,0-1.6-0.7-1.6-1.6v-2.4h8.7V321z"/>
	<circle fill="#F3F3F3" stroke="#838383" cx="573.4" cy="331.3" r="6.4"/>
	<circle fill="#F3F3F3" stroke="#838383" cx="573.4" cy="331.3" r="4.8"/>
	<circle fill="#F3F3F3" stroke="#838383" cx="565.5" cy="322.6" r="1.6"/>
</g>
<g id="unitaz_15_">
	<path fill="#F3F3F3" stroke="#838383" d="M582.2,399.9h-5.6c-0.9,0-1.6-0.7-1.6-1.6V384c0-0.9,0.7-1.6,1.6-1.6h5.6V399.9z"/>
	<path fill="#F3F3F3" stroke="#838383" d="M575,398.3c0,0.9-0.7,1.6-1.6,1.6v-17.5c0.9,0,1.6,0.7,1.6,1.6V398.3z"/>
	<path fill="#F3F3F3" stroke="#838383" d="M552.8,391.1c0-12.3,20.7-8.7,20.7-8.7v17.5C573.5,399.9,552.8,403.5,552.8,391.1z"/>
	<circle fill="#F3F3F3" stroke="#838383" cx="579" cy="391.1" r="1.6"/>
</g>
<g id="moyka_14_">
	<path fill="#F3F3F3" stroke="#838383" d="M582.2,450.1c0,0.5-0.4,0.9-0.9,0.9H564c-0.5,0-0.9-0.4-0.9-0.9v-26
		c0-0.5,0.4-0.9,0.9-0.9h17.3c0.5,0,0.9,0.4,0.9,0.9V450.1z"/>
	<rect x="577.9" y="423.3" fill="#F3F3F3" stroke="#838383" width="1.7" height="27.7"/>
	<ellipse fill="#F3F3F3" stroke="#838383" cx="570.5" cy="437.6" rx="5.6" ry="9.1"/>
	<rect x="572.7" y="436.3" fill="#F3F3F3" stroke="#838383" width="6.9" height="1.7"/>
	<circle fill="#F3F3F3" stroke="#838383" cx="569.6" cy="436.7" r="1.3"/>
</g>
<g id="vanna_12_">
	<rect x="506.7" y="466.2" fill="#F3F3F3" stroke="#838383" width="73.5" height="30.2"/>
	<path fill="#F3F3F3" stroke="#838383" d="M511.3,476.5c0-4.4,3.4-7.9,7.6-7.9h50.8V494h-50.8c-4.2,0-7.6-3.6-7.6-7.9V476.5z"/>
	<path fill="#F3F3F3" stroke="#838383" d="M573.4,484.8v-10.7h-2.7v6.4"/>
	<path id="Union_12_" fill="#F3F3F3" stroke="#838383" d="M574.1,485.2c0-0.4-0.3-0.8-0.8-0.8s-0.8,0.4-0.8,0.8v0.9
		c-0.9,0.3-1.5,1.2-1.5,2.2c0,1.3,1,2.4,2.3,2.4c1.3,0,2.3-1.1,2.3-2.4c0-1-0.6-1.9-1.5-2.2V485.2z"/>
	<rect x="565.8" y="480.5" fill="#F3F3F3" stroke="#838383" width="6.1" height="1.6"/>
</g>
<g id="unitaz_18_">
	<path fill="#F3F3F3" stroke="#838383" d="M364.7,427.9v-5.6c0-0.9-0.7-1.6-1.6-1.6h-14.3c-0.9,0-1.6,0.7-1.6,1.6v5.6H364.7z"/>
	<path fill="#F3F3F3" stroke="#838383" d="M363.1,420.7c0.9,0,1.6-0.7,1.6-1.6h-17.5c0,0.9,0.7,1.6,1.6,1.6H363.1z"/>
	<path fill="#F3F3F3" stroke="#838383" d="M356,398.5c-12.3,0-8.7,20.7-8.7,20.7h17.5C364.7,419.2,368.3,398.5,356,398.5z"/>
	<circle fill="#F3F3F3" stroke="#838383" cx="356" cy="424.7" r="1.6"/>
</g>
<g id="moyka_18_">
	<path fill="#F3F3F3" stroke="#838383" d="M404.2,427.9c0.5,0,0.9-0.4,0.9-0.9v-17.3c0-0.5-0.4-0.9-0.9-0.9h-26
		c-0.5,0-0.9,0.4-0.9,0.9V427c0,0.5,0.4,0.9,0.9,0.9H404.2z"/>
	<rect x="377.3" y="423.6" fill="#F3F3F3" stroke="#838383" width="27.7" height="1.7"/>
	<ellipse fill="#F3F3F3" stroke="#838383" cx="391.6" cy="416.2" rx="9.1" ry="5.6"/>
	<rect x="390.3" y="418.4" fill="#F3F3F3" stroke="#838383" width="1.7" height="6.9"/>
	<circle fill="#F3F3F3" stroke="#838383" cx="390.7" cy="415.3" r="1.3"/>
</g>
<g id="vanna_13_">
	<rect x="416.6" y="354.4" fill="#F3F3F3" stroke="#838383" width="30.2" height="73.5"/>
	<path fill="#F3F3F3" stroke="#838383" d="M426.9,359c-4.4,0-7.9,3.4-7.9,7.6v50.8h25.4v-50.8c0-4.2-3.6-7.6-7.9-7.6H426.9z"/>
	<path fill="#F3F3F3" stroke="#838383" d="M435.2,421.1h-10.7v-2.7h6.4"/>
	<path id="Union_13_" fill="#F3F3F3" stroke="#838383" d="M435.6,421.8c-0.4,0-0.8-0.3-0.8-0.8s0.4-0.8,0.8-0.8h0.9
		c0.3-0.9,1.2-1.5,2.2-1.5c1.3,0,2.4,1,2.4,2.3c0,1.3-1.1,2.3-2.4,2.3c-1,0-1.9-0.6-2.2-1.5H435.6z"/>
	<rect x="430.9" y="413.5" fill="#F3F3F3" stroke="#838383" width="1.6" height="6.1"/>
</g>
<rect x="492.2" y="785.8" fill="#FFFFFF" stroke="#000000" stroke-miterlimit="10" width="70.5" height="3.7"/>
<rect x="492.2" y="785.8" fill="#FFFFFF" stroke="#000000" stroke-miterlimit="10" width="6.8" height="3.7"/>
<rect x="525.5" y="785.8" fill="#FFFFFF" stroke="#000000" stroke-miterlimit="10" width="3.7" height="3.7"/>
<rect x="555.8" y="785.8" fill="#FFFFFF" stroke="#000000" stroke-miterlimit="10" width="6.9" height="3.7"/>
<rect x="492.2" y="777.6" fill="#FFFFFF" stroke="#000000" stroke-miterlimit="10" width="70.5" height="8.2"/>
<rect x="495.6" y="789.5" fill="#FFFFFF" stroke="#000000" stroke-miterlimit="10" width="63.9" height="6.6"/>
<rect x="340.8" y="12.6" fill="#FFFFFF" stroke="#000000" stroke-miterlimit="10" width="70.3" height="3.8"/>
<rect x="340.8" y="12.6" fill="#FFFFFF" stroke="#000000" stroke-miterlimit="10" width="4.8" height="3.8"/>
<rect x="374.5" y="12.6" fill="#FFFFFF" stroke="#000000" stroke-miterlimit="10" width="3.3" height="3.8"/>
<rect x="406.2" y="12.6" fill="#FFFFFF" stroke="#000000" stroke-miterlimit="10" width="4.9" height="3.8"/>
<rect x="342.5" y="6.3" fill="#FFFFFF" stroke="#000000" stroke-miterlimit="10" width="65.6" height="6.4"/>
<rect x="340.8" y="16.4" fill="#FFFFFF" stroke="#000000" stroke-miterlimit="10" width="70.3" height="6.4"/>
<rect x="197.9" y="12.6" fill="#FFFFFF" stroke="#000000" stroke-miterlimit="10" width="68.8" height="3.8"/>
<rect x="197.9" y="12.6" fill="#FFFFFF" stroke="#000000" stroke-miterlimit="10" width="6.5" height="3.8"/>
<rect x="231.5" y="12.5" fill="#FFFFFF" stroke="#000000" stroke-miterlimit="10" width="3.3" height="3.9"/>
<rect x="260.3" y="12.6" fill="#FFFFFF" stroke="#000000" stroke-miterlimit="10" width="6.5" height="3.8"/>
<rect x="199.8" y="6.3" fill="#FFFFFF" stroke="#000000" stroke-miterlimit="10" width="64.5" height="6.2"/>
<rect x="197.9" y="16.4" fill="#FFFFFF" stroke="#000000" stroke-miterlimit="10" width="68.8" height="6.9"/>
<g>
	
		<rect x="505.4" y="-50.2" transform="matrix(-1.836970e-16 1 -1 -1.836970e-16 526.7435 -498.7591)" fill="#FFFFFF" stroke="#000000" stroke-miterlimit="10" width="14.6" height="128.3"/>
	
		<rect x="510.2" y="-48.8" transform="matrix(-1.836970e-16 1 -1 -1.836970e-16 528.1196 -497.3829)" fill="#FFFFFF" stroke="#000000" stroke-miterlimit="10" width="5.1" height="128.3"/>
	
		<rect x="513" y="-47.6" transform="matrix(-1.836970e-16 1 -1 -1.836970e-16 529.3028 -498.4602)" fill="#FFFFFF" stroke="#000000" stroke-miterlimit="10" width="1.8" height="126.1"/>
</g>
<g>
	
		<rect x="76.2" y="-48.8" transform="matrix(-1.836970e-16 1 -1 -1.836970e-16 97.4915 -69.5071)" fill="#FFFFFF" stroke="#000000" stroke-miterlimit="10" width="14.6" height="125.5"/>
	
		<rect x="81" y="-47.4" transform="matrix(-1.836970e-16 1 -1 -1.836970e-16 98.8676 -68.1309)" fill="#FFFFFF" stroke="#000000" stroke-miterlimit="10" width="5.1" height="125.5"/>
	
		<rect x="83.7" y="-46.2" transform="matrix(-1.836970e-16 1 -1 -1.836970e-16 100.0257 -69.1832)" fill="#FFFFFF" stroke="#000000" stroke-miterlimit="10" width="1.8" height="123.3"/>
</g>
<line fill="#FFFFFF" stroke="#000000" stroke-miterlimit="10" x1="78.7" y1="102.7" x2="48.2" y2="85.9"/>
<line fill="#FFFFFF" stroke="#000000" stroke-miterlimit="10" x1="230.5" y1="358" x2="192" y2="380.3"/>
<line fill="#FFFFFF" stroke="#000000" stroke-miterlimit="10" x1="424.9" y1="276.9" x2="394" y2="259.6"/>
<line fill="#FFFFFF" stroke="#000000" stroke-miterlimit="10" x1="500.7" y1="396.4" x2="482.9" y2="426.9"/>
<rect x="44.2" y="81.4" fill="#FFFFFF" stroke="#000000" stroke-miterlimit="10" width="80.7" height="4.4"/>
<rect x="121" y="81.4" fill="#FFFFFF" stroke="#000000" stroke-miterlimit="10" width="3.9" height="4.4"/>
<rect x="44.2" y="81.4" fill="#FFFFFF" stroke="#000000" stroke-miterlimit="10" width="4" height="4.4"/>
<rect x="84" y="81.4" fill="#FFFFFF" stroke="#000000" stroke-miterlimit="10" width="4.4" height="4.4"/>
<rect x="86.2" y="74.6" fill="#FFFFFF" stroke="#000000" stroke-miterlimit="10" width="36.4" height="6.8"/>
<rect x="86.2" y="85.9" fill="#FFFFFF" stroke="#000000" stroke-miterlimit="10" width="38.7" height="6.8"/>
<line fill="#FFFFFF" stroke="#000000" stroke-miterlimit="10" x1="500.7" y1="337.7" x2="481.1" y2="305"/>
<line fill="#FFFFFF" stroke="#000000" stroke-miterlimit="10" x1="458.4" y1="278.8" x2="491.8" y2="259.6"/>
<line fill="#FFFFFF" stroke="#000000" stroke-miterlimit="10" x1="400.7" y1="344.4" x2="368.7" y2="327.5"/>
<line fill="#FFFFFF" stroke="#000000" stroke-miterlimit="10" x1="105.4" y1="324.3" x2="124.8" y2="294.5"/>
<line fill="#FFFFFF" stroke="#000000" stroke-miterlimit="10" x1="456.9" y1="348.6" x2="491.8" y2="368.8"/>
<rect x="453" y="81" fill="#FFFFFF" stroke="#000000" stroke-miterlimit="10" width="71.8" height="3.8"/>
<rect x="521.1" y="81" fill="#FFFFFF" stroke="#000000" stroke-miterlimit="10" width="3.7" height="3.8"/>
<rect x="496.2" y="81" fill="#FFFFFF" stroke="#000000" stroke-miterlimit="10" width="3.8" height="3.8"/>
<rect x="453" y="81" fill="#FFFFFF" stroke="#000000" stroke-miterlimit="10" width="3.7" height="3.8"/>
<rect x="498" y="74.6" fill="#FFFFFF" stroke="#000000" stroke-miterlimit="10" width="24.9" height="6.4"/>
<rect x="498" y="84.8" fill="#FFFFFF" stroke="#000000" stroke-miterlimit="10" width="26.8" height="6.4"/>
<line fill="#FFFFFF" stroke="#000000" stroke-miterlimit="10" x1="456.6" y1="84.8" x2="488.9" y2="102.2"/>
<rect x="439.7" y="789.7" fill="#838383" stroke="#000000" stroke-miterlimit="10" width="55.9" height="6.6"/>
<rect x="439.7" y="438.6" fill="#838383" stroke="#000000" stroke-miterlimit="10" width="14" height="351.1"/>
<rect x="453.7" y="777.8" fill="#838383" stroke="#000000" stroke-miterlimit="10" width="38.5" height="11.9"/>
<rect x="559.5" y="789.7" fill="#838383" stroke="#000000" stroke-miterlimit="10" width="51.9" height="6.6"/>
<rect x="562.7" y="777.8" fill="#838383" stroke="#000000" stroke-miterlimit="10" width="24.8" height="11.9"/>
<rect x="587.5" y="6.3" fill="#838383" stroke="#000000" stroke-miterlimit="10" width="23.9" height="783.4"/>
<rect x="522.5" y="74.6" fill="#838383" stroke="#000000" stroke-miterlimit="10" width="64.9" height="6.4"/>
<rect x="524.8" y="81" fill="#838383" stroke="#000000" stroke-miterlimit="10" width="62.7" height="10.2"/>
<rect x="448.6" y="74.6" fill="#838383" stroke="#000000" stroke-miterlimit="10" width="6.4" height="6.4"/>
<rect x="448.6" y="81" fill="#838383" stroke="#000000" stroke-miterlimit="10" width="4.4" height="10.2"/>
<rect x="408.1" y="6.3" fill="#838383" stroke="#000000" stroke-miterlimit="10" width="40.4" height="6.4"/>
<rect x="436.7" y="12.6" fill="#838383" stroke="#000000" stroke-miterlimit="10" width="11.9" height="89.6"/>
<rect x="411.1" y="12.6" fill="#838383" stroke="#000000" stroke-miterlimit="10" width="25.6" height="10.2"/>
<rect x="265" y="6.3" fill="#838383" stroke="#000000" stroke-miterlimit="10" width="77.5" height="6.4"/>
<rect x="308.6" y="12.6" fill="#838383" stroke="#000000" stroke-miterlimit="10" width="32.2" height="10.2"/>
<rect x="298.3" y="12.6" fill="#838383" stroke="#000000" stroke-miterlimit="10" width="10.4" height="77.5"/>
<rect x="266.7" y="12.6" fill="#838383" stroke="#000000" stroke-miterlimit="10" width="31.5" height="10.2"/>
<rect x="146.3" y="6.3" fill="#838383" stroke="#000000" stroke-miterlimit="10" width="53.6" height="6.4"/>
<rect x="166.2" y="12.6" fill="#838383" stroke="#000000" stroke-miterlimit="10" width="31.8" height="10.2"/>
<rect x="153.5" y="12.6" fill="#838383" stroke="#000000" stroke-miterlimit="10" width="12.7" height="80"/>
<rect x="154.9" y="260.1" fill="#838383" stroke="#000000" stroke-miterlimit="10" width="22.2" height="21.7"/>
<rect x="301.6" y="428.5" fill="#838383" stroke="#000000" stroke-miterlimit="10" width="152" height="10.1"/>
<rect x="298.3" y="260.1" fill="#838383" stroke="#000000" stroke-miterlimit="10" width="21.7" height="21.7"/>
<rect x="436.7" y="260.1" fill="#838383" stroke="#000000" stroke-miterlimit="10" width="21.7" height="21.7"/>
<rect x="5.7" y="13.7" fill="#838383" stroke="#000000" stroke-miterlimit="10" width="10.6" height="344"/>
<rect x="5.7" y="6.3" fill="#838383" stroke="#000000" stroke-miterlimit="10" width="15.2" height="7.4"/>
<rect x="122.5" y="74.6" fill="#838383" stroke="#000000" stroke-miterlimit="10" width="30.9" height="6.8"/>
<rect x="146.3" y="12.6" fill="#838383" stroke="#000000" stroke-miterlimit="10" width="7.2" height="62"/>
<rect x="124.9" y="81.4" fill="#838383" stroke="#000000" stroke-miterlimit="10" width="28.6" height="11.2"/>
<rect x="17.1" y="81.4" fill="#838383" stroke="#000000" stroke-miterlimit="10" width="27.1" height="11.2"/>
<rect x="17.1" y="74.6" fill="#838383" stroke="#000000" stroke-miterlimit="10" width="29.9" height="6.8"/>
<rect x="16.3" y="13.7" fill="#838383" stroke="#000000" stroke-miterlimit="10" width="4.7" height="61"/>
<rect x="577.1" y="6.3" fill="#838383" stroke="#000000" stroke-miterlimit="10" width="10.3" height="68.4"/>
<rect x="16.3" y="344.4" fill="#838383" stroke="#000000" stroke-miterlimit="10" width="168.8" height="13.3"/>
<rect x="230.5" y="344.4" fill="#838383" stroke="#000000" stroke-miterlimit="10" width="79.9" height="13.3"/>
<rect x="301.6" y="357.7" fill="#838383" stroke="#000000" stroke-miterlimit="10" width="8.7" height="70.8"/>
<rect x="500.7" y="348.6" fill="#C6C6C6" stroke="#000000" stroke-miterlimit="10" width="4.1" height="47.8"/>
<rect x="500.7" y="337.7" fill="#C6C6C6" stroke="#000000" stroke-miterlimit="10" width="4.1" height="6.7"/>
<rect x="500.7" y="432" fill="#C6C6C6" stroke="#000000" stroke-miterlimit="10" width="4.1" height="71.8"/>
<rect x="504.8" y="499.6" fill="#C6C6C6" stroke="#000000" stroke-miterlimit="10" width="82.7" height="4.1"/>
<rect x="583.3" y="348.6" fill="#C6C6C6" stroke="#000000" stroke-miterlimit="10" width="4.1" height="151"/>
<rect x="531.8" y="348.6" fill="#C6C6C6" stroke="#000000" stroke-miterlimit="10" width="4.1" height="25.7"/>
<rect x="535.9" y="370.2" fill="#C6C6C6" stroke="#000000" stroke-miterlimit="10" width="29.8" height="4.1"/>
<rect x="565.8" y="372.7" fill="#C6C6C6" stroke="#000000" stroke-miterlimit="10" width="17.6" height="1.6"/>
<rect x="424.9" y="276.4" fill="#C6C6C6" stroke="#000000" stroke-miterlimit="10" width="11.9" height="5.4"/>
<rect x="320" y="276.4" fill="#C6C6C6" stroke="#000000" stroke-miterlimit="10" width="66.4" height="5.4"/>
<rect x="436.7" y="102.2" fill="#C6C6C6" stroke="#000000" stroke-miterlimit="10" width="5.4" height="157.9"/>
<rect x="298.3" y="90.1" fill="#C6C6C6" stroke="#000000" stroke-miterlimit="10" width="5.4" height="170"/>
<rect x="16.3" y="260.1" fill="#C6C6C6" stroke="#000000" stroke-miterlimit="10" width="89.1" height="5.4"/>
<rect x="100" y="265.5" fill="#C6C6C6" stroke="#000000" stroke-miterlimit="10" width="5.4" height="22.8"/>
<rect x="100" y="324.3" fill="#C6C6C6" stroke="#000000" stroke-miterlimit="10" width="5.4" height="20.1"/>
<rect x="58.4" y="265.5" fill="#C6C6C6" stroke="#000000" stroke-miterlimit="10" width="4.1" height="24.7"/>
<rect x="27.5" y="286" fill="#C6C6C6" stroke="#000000" stroke-miterlimit="10" width="31" height="4.1"/>
<rect x="16.3" y="288.5" fill="#C6C6C6" stroke="#000000" stroke-miterlimit="10" width="11.2" height="1.6"/>
<rect x="310.4" y="344.4" fill="#C6C6C6" stroke="#000000" stroke-miterlimit="10" width="51.8" height="4.1"/>
<rect x="400.7" y="344.4" fill="#C6C6C6" stroke="#000000" stroke-miterlimit="10" width="56.2" height="4.1"/>
<rect x="496.3" y="344.4" fill="#C6C6C6" stroke="#000000" stroke-miterlimit="10" width="91.1" height="4.1"/>
<rect x="449.5" y="348.6" fill="#C6C6C6" stroke="#000000" stroke-miterlimit="10" width="4.1" height="79.9"/>
<rect x="500.7" y="276.4" fill="#C6C6C6" stroke="#000000" stroke-miterlimit="10" width="86.8" height="5.4"/>
<rect x="500.7" y="281.8" fill="#C6C6C6" stroke="#000000" stroke-miterlimit="10" width="4.1" height="18.3"/>
<rect x="504.8" y="284.1" fill="#C6C6C6" stroke="#000000" stroke-miterlimit="10" width="82.7" height="4.1"/>
<rect x="333.7" y="380.4" fill="#C6C6C6" stroke="#000000" stroke-miterlimit="10" width="4.1" height="29.6"/>
<rect x="336.2" y="410" fill="#C6C6C6" stroke="#000000" stroke-miterlimit="10" width="1.7" height="18.6"/>
<rect x="310.4" y="380.4" fill="#C6C6C6" stroke="#000000" stroke-miterlimit="10" width="23.3" height="4.1"/>
<g>
	<path d="M187.8,140.7H186v3.6h-0.8v-7.9h0.8v3.6h1.8l2.7-3.6h0.9l-2.9,3.8l3.1,4.1h-1L187.8,140.7z"/>
	<path d="M197.7,138.3l-3,6.7c-0.2,0.6-0.5,1-0.8,1.2c-0.3,0.2-0.7,0.4-1.1,0.4c-0.3,0-0.6,0-0.8-0.1c-0.2-0.1-0.5-0.2-0.6-0.4
		l0.4-0.6c0.3,0.3,0.7,0.5,1.1,0.5c0.3,0,0.5-0.1,0.7-0.2s0.4-0.4,0.5-0.8l0.3-0.6l-2.7-5.9h0.8l2.2,5.1l2.2-5.1H197.7z"/>
	<path d="M202.4,144.3l-1.9-2.5l-1.9,2.5h-0.9l2.4-3.1l-2.2-2.9h0.9l1.8,2.3l1.8-2.3h0.9l-2.2,2.9l2.4,3.1H202.4z"/>
	<path d="M204.6,138.3h0.8v2.6h3.7v-2.6h0.8v5.9h-0.8v-2.6h-3.7v2.6h-0.8V138.3z"/>
	<path d="M216.8,138.3v5.9h-0.7v-2h-1.9H214l-1.4,2h-0.9l1.5-2.1c-0.5-0.1-0.8-0.3-1.1-0.7c-0.2-0.3-0.4-0.7-0.4-1.2
		c0-0.7,0.2-1.2,0.7-1.5c0.5-0.3,1.1-0.5,1.9-0.5H216.8z M214.3,141.7h1.8V139h-1.7c-1.2,0-1.7,0.4-1.7,1.3
		C212.6,141.3,213.1,141.7,214.3,141.7z"/>
	<path d="M218.6,140.9h3v0.7h-3V140.9z"/>
	<path d="M185.9,157.5c-0.5-0.3-0.8-0.6-1.1-1.1c-0.3-0.5-0.4-1-0.4-1.6s0.1-1.1,0.4-1.6c0.3-0.5,0.6-0.8,1.1-1.1
		c0.5-0.3,1-0.4,1.6-0.4c0.5,0,1,0.1,1.4,0.3c0.4,0.2,0.7,0.5,1,0.9l-0.6,0.4c-0.2-0.3-0.4-0.5-0.7-0.7c-0.3-0.1-0.6-0.2-1-0.2
		c-0.4,0-0.8,0.1-1.2,0.3c-0.3,0.2-0.6,0.5-0.8,0.8s-0.3,0.8-0.3,1.2c0,0.5,0.1,0.9,0.3,1.2s0.5,0.6,0.8,0.8
		c0.3,0.2,0.7,0.3,1.2,0.3c0.4,0,0.7-0.1,1-0.2c0.3-0.1,0.6-0.4,0.7-0.7l0.6,0.4c-0.2,0.4-0.6,0.7-1,0.9s-0.9,0.3-1.4,0.3
		C186.9,157.9,186.4,157.8,185.9,157.5z"/>
	<path d="M195.5,152.6h-2.3v5.2h-0.8v-5.2h-2.3v-0.7h5.3V152.6z"/>
	<path d="M197.3,157.5c-0.5-0.3-0.8-0.6-1.1-1.1c-0.3-0.5-0.4-1-0.4-1.6s0.1-1.1,0.4-1.6c0.3-0.5,0.6-0.8,1.1-1.1s1-0.4,1.5-0.4
		c0.6,0,1.1,0.1,1.5,0.4s0.8,0.6,1.1,1.1c0.3,0.5,0.4,1,0.4,1.6s-0.1,1.1-0.4,1.6c-0.3,0.5-0.6,0.8-1.1,1.1c-0.5,0.3-1,0.4-1.5,0.4
		C198.2,157.9,197.7,157.8,197.3,157.5z M199.9,156.9c0.3-0.2,0.6-0.5,0.8-0.8c0.2-0.4,0.3-0.8,0.3-1.2c0-0.5-0.1-0.9-0.3-1.2
		s-0.5-0.6-0.8-0.8c-0.3-0.2-0.7-0.3-1.1-0.3s-0.8,0.1-1.1,0.3c-0.3,0.2-0.6,0.5-0.8,0.8s-0.3,0.8-0.3,1.2c0,0.5,0.1,0.9,0.3,1.2
		c0.2,0.4,0.5,0.6,0.8,0.8s0.7,0.3,1.1,0.3S199.6,157.1,199.9,156.9z"/>
	<path d="M208.4,151.9v5.9h-0.8v-5.2h-2.9l-0.1,1.5c-0.1,1.2-0.2,2.2-0.4,2.9s-0.6,1-1.2,1c-0.2,0-0.4,0-0.6-0.1l0.1-0.7
		c0.1,0,0.2,0,0.3,0c0.3,0,0.5-0.1,0.7-0.4s0.3-0.6,0.3-1.1c0.1-0.4,0.1-1,0.1-1.7l0.1-2.1H208.4z"/>
	<path d="M211.6,157.5c-0.5-0.3-0.8-0.6-1.1-1.1c-0.3-0.5-0.4-1-0.4-1.6s0.1-1.1,0.4-1.6c0.3-0.5,0.6-0.8,1.1-1.1s1-0.4,1.5-0.4
		c0.6,0,1.1,0.1,1.5,0.4s0.8,0.6,1.1,1.1c0.3,0.5,0.4,1,0.4,1.6s-0.1,1.1-0.4,1.6c-0.3,0.5-0.6,0.8-1.1,1.1c-0.5,0.3-1,0.4-1.5,0.4
		C212.5,157.9,212,157.8,211.6,157.5z M214.3,156.9c0.3-0.2,0.6-0.5,0.8-0.8c0.2-0.4,0.3-0.8,0.3-1.2c0-0.5-0.1-0.9-0.3-1.2
		s-0.5-0.6-0.8-0.8c-0.3-0.2-0.7-0.3-1.1-0.3s-0.8,0.1-1.1,0.3c-0.3,0.2-0.6,0.5-0.8,0.8s-0.3,0.8-0.3,1.2c0,0.5,0.1,0.9,0.3,1.2
		c0.2,0.4,0.5,0.6,0.8,0.8s0.7,0.3,1.1,0.3S213.9,157.1,214.3,156.9z"/>
	<path d="M222.9,156.2c0,0.5-0.2,0.9-0.6,1.2c-0.4,0.3-1,0.4-1.7,0.4h-2.7v-5.9h2.6c0.7,0,1.2,0.1,1.6,0.4c0.4,0.3,0.6,0.6,0.6,1.1
		c0,0.3-0.1,0.6-0.3,0.8s-0.4,0.4-0.7,0.5C222.4,155,222.9,155.5,222.9,156.2z M218.6,154.6h1.8c0.5,0,0.8-0.1,1.1-0.3
		s0.4-0.4,0.4-0.8c0-0.3-0.1-0.6-0.4-0.7c-0.2-0.2-0.6-0.2-1.1-0.2h-1.8V154.6z M221.7,157c0.3-0.2,0.4-0.4,0.4-0.8
		s-0.1-0.6-0.4-0.8c-0.2-0.2-0.6-0.3-1.1-0.3h-2v2.1h1.9C221,157.2,221.4,157.1,221.7,157z"/>
	<path d="M228.6,152.4c0.4,0.4,0.6,1,0.6,1.7v3.7h-0.8v-0.9c-0.2,0.3-0.4,0.6-0.8,0.7s-0.8,0.3-1.2,0.3c-0.7,0-1.2-0.2-1.6-0.5
		s-0.6-0.7-0.6-1.3c0-0.5,0.2-0.9,0.5-1.2s0.9-0.5,1.7-0.5h1.9v-0.4c0-0.5-0.1-0.9-0.4-1.2c-0.3-0.3-0.7-0.4-1.3-0.4
		c-0.4,0-0.7,0.1-1.1,0.2c-0.3,0.1-0.6,0.3-0.9,0.5l-0.4-0.6c0.3-0.3,0.7-0.5,1.1-0.6c0.4-0.1,0.9-0.2,1.3-0.2
		C227.6,151.9,228.1,152.1,228.6,152.4z M227.7,157c0.3-0.2,0.6-0.5,0.7-0.9v-1h-1.9c-1,0-1.5,0.4-1.5,1.1c0,0.3,0.1,0.6,0.4,0.8
		s0.6,0.3,1.1,0.3C226.9,157.3,227.3,157.2,227.7,157z"/>
	<path d="M235.9,151.9v5.9h-0.7v-2h-1.9h-0.2l-1.4,2h-0.9l1.5-2.1c-0.5-0.1-0.8-0.3-1.1-0.7c-0.2-0.3-0.4-0.7-0.4-1.2
		c0-0.7,0.2-1.2,0.7-1.5s1.1-0.5,1.9-0.5H235.9z M233.4,155.3h1.8v-2.7h-1.7c-1.2,0-1.7,0.4-1.7,1.3
		C231.7,154.8,232.2,155.3,233.4,155.3z"/>
	<path d="M191.5,173.6v1.2h-7.1v-1l4-3.9c0.5-0.5,0.8-0.9,1-1.2c0.2-0.3,0.3-0.7,0.3-1c0-0.5-0.2-0.9-0.5-1.2
		c-0.4-0.3-0.9-0.4-1.6-0.4c-1.1,0-1.9,0.4-2.5,1.1l-1-0.8c0.4-0.5,0.9-0.8,1.5-1.1s1.3-0.4,2.1-0.4c1,0,1.9,0.2,2.5,0.7
		c0.6,0.5,0.9,1.2,0.9,2c0,0.5-0.1,1-0.3,1.5c-0.2,0.5-0.7,1-1.3,1.6l-3,2.9H191.5z"/>
	<path d="M199,166.1c0.7,0.9,1.1,2.1,1.1,3.6c0,1.1-0.2,2-0.6,2.8c-0.4,0.8-0.9,1.4-1.6,1.8c-0.7,0.4-1.5,0.6-2.5,0.6
		c-0.5,0-0.9,0-1.4-0.1c-0.4-0.1-0.8-0.2-1.1-0.4l0.5-1.1c0.5,0.3,1.1,0.5,1.9,0.5c1,0,1.8-0.3,2.4-1c0.6-0.6,0.9-1.6,0.9-2.8v-0.4
		c-0.3,0.4-0.7,0.7-1.2,1c-0.5,0.2-1.1,0.3-1.7,0.3c-0.7,0-1.2-0.1-1.7-0.4s-0.9-0.6-1.2-1.1c-0.3-0.5-0.4-1-0.4-1.6
		c0-0.6,0.2-1.2,0.5-1.6c0.3-0.5,0.7-0.8,1.3-1.1c0.5-0.3,1.1-0.4,1.8-0.4C197.2,164.8,198.2,165.2,199,166.1z M197.2,169.5
		c0.3-0.2,0.6-0.4,0.8-0.7c0.2-0.3,0.3-0.6,0.3-1c0-0.3-0.1-0.7-0.3-1c-0.2-0.3-0.5-0.5-0.8-0.7c-0.4-0.2-0.8-0.3-1.3-0.3
		c-0.7,0-1.2,0.2-1.6,0.5c-0.4,0.3-0.6,0.8-0.6,1.4s0.2,1,0.6,1.4c0.4,0.3,1,0.5,1.6,0.5C196.4,169.8,196.8,169.7,197.2,169.5z"/>
	<path d="M202.8,173.2c0.2,0.2,0.3,0.4,0.3,0.7c0,0.1,0,0.3,0,0.4c0,0.1-0.1,0.3-0.2,0.6l-0.7,2h-0.9l0.5-2.1
		c-0.2-0.1-0.3-0.2-0.4-0.3c-0.1-0.2-0.2-0.3-0.2-0.5c0-0.3,0.1-0.5,0.3-0.7s0.4-0.3,0.7-0.3C202.4,173,202.7,173.1,202.8,173.2z"/>
	<path d="M210.3,169.2c0.5,0.2,0.9,0.6,1.2,1.1c0.3,0.5,0.4,1,0.4,1.6c0,0.6-0.2,1.2-0.5,1.6c-0.3,0.5-0.7,0.8-1.3,1.1
		c-0.5,0.3-1.1,0.4-1.8,0.4c-1.3,0-2.4-0.4-3.1-1.3c-0.7-0.9-1.1-2.1-1.1-3.6c0-1.1,0.2-2,0.6-2.8c0.4-0.8,0.9-1.4,1.6-1.8
		c0.7-0.4,1.5-0.6,2.5-0.6c0.5,0,0.9,0,1.4,0.1s0.8,0.2,1.1,0.4l-0.5,1.1c-0.5-0.3-1.1-0.5-1.9-0.5c-1,0-1.8,0.3-2.4,1
		c-0.6,0.6-0.9,1.6-0.9,2.8c0,0.2,0,0.3,0,0.4c0.3-0.4,0.7-0.7,1.2-1c0.5-0.2,1.1-0.3,1.7-0.3C209.2,168.8,209.8,168.9,210.3,169.2z
		 M209.9,173.3c0.4-0.3,0.6-0.8,0.6-1.4s-0.2-1-0.6-1.4c-0.4-0.3-1-0.5-1.6-0.5c-0.4,0-0.8,0.1-1.2,0.3c-0.3,0.2-0.6,0.4-0.8,0.7
		c-0.2,0.3-0.3,0.6-0.3,1c0,0.3,0.1,0.7,0.3,1c0.2,0.3,0.5,0.5,0.8,0.7s0.8,0.3,1.3,0.3C209,173.8,209.5,173.6,209.9,173.3z"/>
</g>
<g>
	<path d="M513.9,674c-0.6-0.3-1.1-0.8-1.5-1.4s-0.5-1.3-0.5-2.1s0.2-1.4,0.5-2.1c0.4-0.6,0.9-1.1,1.5-1.4c0.6-0.3,1.3-0.5,2.1-0.5
		c0.6,0,1.1,0.1,1.6,0.3c0.5,0.2,0.9,0.5,1.3,0.9l-0.5,0.5c-0.6-0.6-1.4-0.9-2.3-0.9c-0.6,0-1.2,0.1-1.7,0.4
		c-0.5,0.3-0.9,0.7-1.2,1.2s-0.4,1.1-0.4,1.7s0.1,1.2,0.4,1.7c0.3,0.5,0.7,0.9,1.2,1.2s1.1,0.4,1.7,0.4c1,0,1.7-0.3,2.3-1l0.5,0.5
		c-0.3,0.4-0.8,0.7-1.3,0.9c-0.5,0.2-1,0.3-1.6,0.3C515.3,674.6,514.6,674.4,513.9,674z"/>
	<path d="M525.8,668.6v5.9H525v-5.2h-3.7v5.2h-0.8v-5.9H525.8z"/>
	<path d="M532,669.1c0.4,0.4,0.6,1,0.6,1.7v3.7h-0.8v-0.9c-0.2,0.3-0.4,0.6-0.8,0.7c-0.4,0.2-0.8,0.3-1.3,0.3
		c-0.7,0-1.2-0.2-1.6-0.5c-0.4-0.3-0.6-0.7-0.6-1.3c0-0.5,0.2-0.9,0.5-1.2c0.4-0.3,0.9-0.5,1.7-0.5h1.9v-0.4c0-0.5-0.1-0.9-0.4-1.2
		c-0.3-0.3-0.7-0.4-1.3-0.4c-0.4,0-0.7,0.1-1.1,0.2c-0.3,0.1-0.6,0.3-0.9,0.5l-0.4-0.6c0.3-0.3,0.7-0.5,1.1-0.6
		c0.4-0.1,0.9-0.2,1.3-0.2C530.9,668.5,531.5,668.7,532,669.1z M531.1,673.6c0.3-0.2,0.6-0.5,0.7-0.9v-1h-1.9c-1,0-1.5,0.4-1.5,1.1
		c0,0.3,0.1,0.6,0.4,0.8c0.3,0.2,0.6,0.3,1.1,0.3C530.3,673.9,530.7,673.8,531.1,673.6z"/>
	<path d="M539.6,668.6v5.9h-0.8v-5.2h-2.9l-0.1,1.5c-0.1,1.2-0.2,2.2-0.4,2.9c-0.2,0.7-0.6,1-1.2,1c-0.2,0-0.4,0-0.6-0.1l0.1-0.7
		c0.1,0,0.2,0,0.3,0c0.3,0,0.5-0.1,0.7-0.4c0.2-0.3,0.3-0.6,0.3-1.1c0.1-0.4,0.1-1,0.1-1.7l0.1-2.1H539.6z"/>
	<path d="M546.1,671.2c0.4,0.3,0.6,0.8,0.6,1.4c0,0.6-0.2,1.1-0.6,1.5c-0.4,0.3-1,0.5-1.8,0.5l-2.4,0v-5.9h0.8v2.1l1.8,0
		C545.2,670.7,545.7,670.8,546.1,671.2z M545.5,673.6c0.3-0.2,0.4-0.6,0.4-1c0-0.4-0.1-0.8-0.4-1c-0.3-0.2-0.7-0.3-1.3-0.3l-1.5,0
		v2.6l1.5,0C544.8,673.9,545.2,673.8,545.5,673.6z"/>
	<path d="M548.2,668.6h0.8v2.6h3.7v-2.6h0.8v5.9h-0.8v-2.6H549v2.6h-0.8V668.6z"/>
	<path d="M560.4,668.6v5.9h-0.7v-2h-1.9h-0.2l-1.4,2h-0.9l1.5-2.1c-0.5-0.1-0.8-0.3-1.1-0.7c-0.2-0.3-0.4-0.7-0.4-1.2
		c0-0.7,0.2-1.2,0.7-1.5c0.5-0.3,1.1-0.5,1.9-0.5H560.4z M557.9,671.9h1.8v-2.7H558c-1.2,0-1.7,0.4-1.7,1.3
		C556.2,671.5,556.8,671.9,557.9,671.9z"/>
	<path d="M518.9,690.2v1.2h-7.1v-1l4-3.9c0.5-0.5,0.8-0.9,1-1.2c0.2-0.3,0.3-0.7,0.3-1c0-0.5-0.2-0.9-0.5-1.2
		c-0.4-0.3-0.9-0.4-1.6-0.4c-1.1,0-1.9,0.4-2.5,1.1l-1-0.8c0.4-0.5,0.9-0.8,1.5-1.1s1.3-0.4,2.1-0.4c1,0,1.9,0.2,2.5,0.7
		c0.6,0.5,0.9,1.2,0.9,2c0,0.5-0.1,1-0.3,1.5c-0.2,0.5-0.7,1-1.3,1.6l-3,2.9H518.9z"/>
	<path d="M523.1,681.6v9.9h-1.4v-8.7h-2.2v-1.2H523.1z"/>
	<path d="M526.9,689.9c0.2,0.2,0.3,0.4,0.3,0.7c0,0.1,0,0.3,0,0.4s-0.1,0.3-0.2,0.6l-0.7,2h-0.9l0.5-2.1c-0.2-0.1-0.3-0.2-0.4-0.3
		c-0.1-0.2-0.2-0.3-0.2-0.5c0-0.3,0.1-0.5,0.3-0.7c0.2-0.2,0.4-0.3,0.7-0.3C526.5,689.6,526.7,689.7,526.9,689.9z"/>
	<path d="M534.4,686.3c0.7,0.5,1,1.3,1,2.2c0,0.6-0.1,1.1-0.4,1.6c-0.3,0.5-0.7,0.8-1.3,1.1s-1.3,0.4-2.1,0.4c-0.7,0-1.4-0.1-2-0.3
		s-1.2-0.5-1.6-0.9l0.7-1.1c0.3,0.3,0.8,0.6,1.3,0.8c0.5,0.2,1.1,0.3,1.7,0.3c0.7,0,1.3-0.2,1.7-0.5c0.4-0.3,0.6-0.7,0.6-1.3
		c0-0.6-0.2-1-0.7-1.4s-1.2-0.5-2.3-0.5h-2.2l0.5-5.2h5.6v1.2h-4.4l-0.3,2.7h1.1C532.7,685.5,533.8,685.8,534.4,686.3z"/>
</g>
<g>
	<path d="M503.8,111.5c-0.6-0.3-1.1-0.8-1.5-1.4s-0.5-1.3-0.5-2.1c0-0.8,0.2-1.4,0.5-2.1s0.9-1.1,1.5-1.4c0.6-0.3,1.3-0.5,2.1-0.5
		c0.6,0,1.1,0.1,1.6,0.3c0.5,0.2,0.9,0.5,1.3,0.9l-0.5,0.5c-0.6-0.6-1.4-0.9-2.3-0.9c-0.6,0-1.2,0.1-1.7,0.4s-0.9,0.7-1.2,1.2
		s-0.4,1.1-0.4,1.7c0,0.6,0.1,1.2,0.4,1.7c0.3,0.5,0.7,0.9,1.2,1.2s1.1,0.4,1.7,0.4c1,0,1.7-0.3,2.3-1l0.5,0.5
		c-0.3,0.4-0.8,0.7-1.3,0.9c-0.5,0.2-1,0.3-1.6,0.3C505.1,112,504.4,111.8,503.8,111.5z"/>
	<path d="M515.7,106v5.9h-0.8v-5.2h-3.7v5.2h-0.8V106H515.7z"/>
	<path d="M521.8,106.5c0.4,0.4,0.6,1,0.6,1.7v3.7h-0.8V111c-0.2,0.3-0.4,0.6-0.8,0.7s-0.8,0.3-1.3,0.3c-0.7,0-1.2-0.2-1.6-0.5
		c-0.4-0.3-0.6-0.7-0.6-1.3c0-0.5,0.2-0.9,0.5-1.2c0.4-0.3,0.9-0.5,1.7-0.5h1.9v-0.4c0-0.5-0.1-0.9-0.4-1.2
		c-0.3-0.3-0.7-0.4-1.3-0.4c-0.4,0-0.7,0.1-1.1,0.2s-0.6,0.3-0.9,0.5l-0.4-0.6c0.3-0.3,0.7-0.5,1.1-0.6c0.4-0.1,0.9-0.2,1.3-0.2
		C520.8,105.9,521.4,106.1,521.8,106.5z M520.9,111c0.3-0.2,0.6-0.5,0.7-0.9v-1h-1.9c-1,0-1.5,0.4-1.5,1.1c0,0.3,0.1,0.6,0.4,0.8
		c0.3,0.2,0.6,0.3,1.1,0.3C520.2,111.3,520.6,111.2,520.9,111z"/>
	<path d="M529.4,106v5.9h-0.8v-5.2h-2.9l-0.1,1.5c-0.1,1.2-0.2,2.2-0.4,2.9s-0.6,1-1.2,1c-0.2,0-0.4,0-0.6-0.1l0.1-0.7
		c0.1,0,0.2,0,0.3,0c0.3,0,0.5-0.1,0.7-0.4c0.2-0.3,0.3-0.6,0.3-1.1s0.1-1,0.1-1.7l0.1-2.1H529.4z"/>
	<path d="M536,108.6c0.4,0.3,0.6,0.8,0.6,1.4c0,0.6-0.2,1.1-0.6,1.5c-0.4,0.3-1,0.5-1.8,0.5l-2.4,0V106h0.8v2.1l1.8,0
		C535,108.1,535.6,108.2,536,108.6z M535.3,111c0.3-0.2,0.4-0.6,0.4-1c0-0.4-0.1-0.8-0.4-1c-0.3-0.2-0.7-0.3-1.3-0.3l-1.5,0v2.6
		l1.5,0C534.6,111.3,535,111.2,535.3,111z"/>
	<path d="M538.1,106h0.8v2.6h3.7V106h0.8v5.9h-0.8v-2.6h-3.7v2.6h-0.8V106z"/>
	<path d="M550.3,106v5.9h-0.7v-2h-1.9h-0.2l-1.4,2h-0.9l1.5-2.1c-0.5-0.1-0.8-0.3-1.1-0.7c-0.2-0.3-0.4-0.7-0.4-1.2
		c0-0.7,0.2-1.2,0.7-1.5s1.1-0.5,1.9-0.5H550.3z M547.7,109.3h1.8v-2.7h-1.7c-1.2,0-1.7,0.4-1.7,1.3
		C546,108.9,546.6,109.3,547.7,109.3z"/>
	<path d="M504.8,119v9.9h-1.4v-8.7h-2.2V119H504.8z"/>
	<path d="M513,124c0.5,0.5,0.8,1.1,0.8,1.9c0,0.6-0.1,1.1-0.4,1.5c-0.3,0.5-0.7,0.8-1.3,1.1c-0.6,0.3-1.2,0.4-2.1,0.4
		c-0.7,0-1.4-0.1-2-0.3s-1.2-0.5-1.6-0.9l0.7-1.1c0.3,0.3,0.8,0.6,1.3,0.8c0.5,0.2,1.1,0.3,1.7,0.3c0.7,0,1.3-0.2,1.7-0.5
		s0.6-0.7,0.6-1.3c0-0.5-0.2-1-0.6-1.3c-0.4-0.3-1-0.5-1.8-0.5h-0.8v-1l2.5-3.1h-4.8V119h6.5v1l-2.6,3.2
		C511.8,123.2,512.5,123.5,513,124z"/>
	<path d="M516.7,127.3c0.2,0.2,0.3,0.4,0.3,0.7c0,0.1,0,0.3,0,0.4c0,0.1-0.1,0.3-0.2,0.6l-0.7,2h-0.9l0.5-2.1
		c-0.2-0.1-0.3-0.2-0.4-0.3c-0.1-0.2-0.2-0.3-0.2-0.5c0-0.3,0.1-0.5,0.3-0.7s0.4-0.3,0.7-0.3C516.3,127,516.5,127.1,516.7,127.3z"/>
	<path d="M520.1,128.4c-0.6-0.4-1.1-1-1.4-1.7c-0.3-0.8-0.5-1.7-0.5-2.7c0-1,0.2-2,0.5-2.7c0.3-0.8,0.8-1.3,1.4-1.7
		c0.6-0.4,1.3-0.6,2.1-0.6c0.8,0,1.5,0.2,2.1,0.6c0.6,0.4,1.1,1,1.4,1.7c0.3,0.8,0.5,1.7,0.5,2.7c0,1-0.2,2-0.5,2.7
		s-0.8,1.3-1.4,1.7c-0.6,0.4-1.3,0.6-2.1,0.6C521.4,129,520.7,128.8,520.1,128.4z M524.1,126.8c0.5-0.7,0.7-1.6,0.7-2.8
		c0-1.2-0.2-2.2-0.7-2.8c-0.5-0.7-1.1-1-1.9-1c-0.8,0-1.4,0.3-1.9,1c-0.5,0.7-0.7,1.6-0.7,2.8c0,1.2,0.2,2.2,0.7,2.8
		c0.5,0.7,1.1,1,1.9,1C523,127.7,523.6,127.4,524.1,126.8z"/>
</g>
<g>
	<path d="M364.9,88.8c-0.6-0.3-1.1-0.8-1.5-1.4s-0.5-1.3-0.5-2.1c0-0.8,0.2-1.4,0.5-2.1s0.9-1.1,1.5-1.4c0.6-0.3,1.3-0.5,2.1-0.5
		c0.6,0,1.1,0.1,1.6,0.3c0.5,0.2,0.9,0.5,1.3,0.9l-0.5,0.5c-0.6-0.6-1.4-0.9-2.3-0.9c-0.6,0-1.2,0.1-1.7,0.4s-0.9,0.7-1.2,1.2
		s-0.4,1.1-0.4,1.7c0,0.6,0.1,1.2,0.4,1.7c0.3,0.5,0.7,0.9,1.2,1.2s1.1,0.4,1.7,0.4c1,0,1.7-0.3,2.3-1l0.5,0.5
		c-0.3,0.4-0.8,0.7-1.3,0.9c-0.5,0.2-1,0.3-1.6,0.3C366.2,89.3,365.5,89.1,364.9,88.8z"/>
	<path d="M376.8,83.3v5.9H376V84h-3.7v5.2h-0.8v-5.9H376.8z"/>
	<path d="M382.9,83.8c0.4,0.4,0.6,1,0.6,1.7v3.7h-0.8v-0.9c-0.2,0.3-0.4,0.6-0.8,0.7s-0.8,0.3-1.3,0.3c-0.7,0-1.2-0.2-1.6-0.5
		c-0.4-0.3-0.6-0.7-0.6-1.3c0-0.5,0.2-0.9,0.5-1.2c0.4-0.3,0.9-0.5,1.7-0.5h1.9v-0.4c0-0.5-0.1-0.9-0.4-1.2
		c-0.3-0.3-0.7-0.4-1.3-0.4c-0.4,0-0.7,0.1-1.1,0.2s-0.6,0.3-0.9,0.5l-0.4-0.6c0.3-0.3,0.7-0.5,1.1-0.6c0.4-0.1,0.9-0.2,1.3-0.2
		C381.9,83.3,382.5,83.5,382.9,83.8z M382,88.4c0.3-0.2,0.6-0.5,0.7-0.9v-1h-1.9c-1,0-1.5,0.4-1.5,1.1c0,0.3,0.1,0.6,0.4,0.8
		c0.3,0.2,0.6,0.3,1.1,0.3C381.3,88.7,381.7,88.6,382,88.4z"/>
	<path d="M390.5,83.3v5.9h-0.8V84h-2.9l-0.1,1.5c-0.1,1.2-0.2,2.2-0.4,2.9s-0.6,1-1.2,1c-0.2,0-0.4,0-0.6-0.1l0.1-0.7
		c0.1,0,0.2,0,0.3,0c0.3,0,0.5-0.1,0.7-0.4c0.2-0.3,0.3-0.6,0.3-1.1s0.1-1,0.1-1.7l0.1-2.1H390.5z"/>
	<path d="M397.1,85.9c0.4,0.3,0.6,0.8,0.6,1.4c0,0.6-0.2,1.1-0.6,1.5c-0.4,0.3-1,0.5-1.8,0.5l-2.4,0v-5.9h0.8v2.1l1.8,0
		C396.1,85.4,396.7,85.6,397.1,85.9z M396.4,88.3c0.3-0.2,0.4-0.6,0.4-1c0-0.4-0.1-0.8-0.4-1c-0.3-0.2-0.7-0.3-1.3-0.3l-1.5,0v2.6
		l1.5,0C395.7,88.7,396.1,88.6,396.4,88.3z"/>
	<path d="M399.2,83.3h0.8v2.6h3.7v-2.6h0.8v5.9h-0.8v-2.6H400v2.6h-0.8V83.3z"/>
	<path d="M411.4,83.3v5.9h-0.7v-2h-1.9h-0.2l-1.4,2h-0.9l1.5-2.1c-0.5-0.1-0.8-0.3-1.1-0.7c-0.2-0.3-0.4-0.7-0.4-1.2
		c0-0.7,0.2-1.2,0.7-1.5s1.1-0.5,1.9-0.5H411.4z M408.8,86.7h1.8V84h-1.7c-1.2,0-1.7,0.4-1.7,1.3C407.2,86.2,407.7,86.7,408.8,86.7z
		"/>
	<path d="M365.9,96.3v9.9h-1.4v-8.7h-2.2v-1.2H365.9z"/>
	<path d="M374.1,100.6c0.5,0.2,0.9,0.6,1.2,1.1s0.4,1,0.4,1.6c0,0.6-0.2,1.2-0.5,1.6c-0.3,0.5-0.7,0.8-1.3,1.1
		c-0.5,0.3-1.1,0.4-1.8,0.4c-1.3,0-2.4-0.4-3.1-1.3c-0.7-0.9-1.1-2.1-1.1-3.6c0-1.1,0.2-2,0.6-2.8c0.4-0.8,0.9-1.4,1.6-1.8
		c0.7-0.4,1.5-0.6,2.5-0.6c0.5,0,0.9,0,1.4,0.1s0.8,0.2,1.1,0.4l-0.5,1.1c-0.5-0.3-1.1-0.5-1.9-0.5c-1,0-1.8,0.3-2.4,1
		c-0.6,0.6-0.9,1.6-0.9,2.8c0,0.2,0,0.3,0,0.4c0.3-0.4,0.7-0.7,1.2-1c0.5-0.2,1.1-0.3,1.7-0.3C373,100.2,373.6,100.3,374.1,100.6z
		 M373.8,104.7c0.4-0.3,0.6-0.8,0.6-1.4s-0.2-1-0.6-1.4c-0.4-0.3-1-0.5-1.6-0.5c-0.4,0-0.8,0.1-1.2,0.3c-0.3,0.2-0.6,0.4-0.8,0.7
		c-0.2,0.3-0.3,0.6-0.3,1c0,0.3,0.1,0.7,0.3,1c0.2,0.3,0.5,0.5,0.8,0.7s0.8,0.3,1.3,0.3C372.9,105.2,373.4,105,373.8,104.7z"/>
	<path d="M378.6,104.6c0.2,0.2,0.3,0.4,0.3,0.7c0,0.1,0,0.3,0,0.4c0,0.1-0.1,0.3-0.2,0.6l-0.7,2H377l0.5-2.1
		c-0.2-0.1-0.3-0.2-0.4-0.3c-0.1-0.2-0.2-0.3-0.2-0.5c0-0.3,0.1-0.5,0.3-0.7s0.4-0.3,0.7-0.3C378.2,104.4,378.4,104.5,378.6,104.6z"
		/>
	<path d="M387.3,105v1.2h-7.1v-1l4-3.9c0.5-0.5,0.8-0.9,1-1.2c0.2-0.3,0.3-0.7,0.3-1c0-0.5-0.2-0.9-0.5-1.2
		c-0.4-0.3-0.9-0.4-1.6-0.4c-1.1,0-1.9,0.4-2.5,1.1l-1-0.8c0.4-0.5,0.9-0.8,1.5-1.1s1.3-0.4,2.1-0.4c1,0,1.9,0.2,2.5,0.7
		c0.6,0.5,0.9,1.2,0.9,2c0,0.5-0.1,1-0.3,1.5c-0.2,0.5-0.7,1-1.3,1.6l-3,2.9H387.3z"/>
</g>
<g>
	<path d="M532.6,435.7c0.7,0.5,1,1.3,1,2.2c0,0.6-0.1,1.1-0.4,1.6c-0.3,0.5-0.7,0.8-1.3,1.1s-1.3,0.4-2.1,0.4c-0.7,0-1.4-0.1-2-0.3
		s-1.2-0.5-1.6-0.9l0.7-1.1c0.3,0.3,0.8,0.6,1.3,0.8c0.5,0.2,1.1,0.3,1.7,0.3c0.7,0,1.3-0.2,1.7-0.5c0.4-0.3,0.6-0.7,0.6-1.3
		c0-0.6-0.2-1-0.7-1.4s-1.2-0.5-2.3-0.5h-2.2l0.5-5.2h5.6v1.2h-4.4l-0.3,2.7h1.1C530.8,434.9,531.9,435.2,532.6,435.7z"/>
	<path d="M536.3,439.3c0.2,0.2,0.3,0.4,0.3,0.7c0,0.1,0,0.3,0,0.4s-0.1,0.3-0.2,0.6l-0.7,2h-0.9l0.5-2.1c-0.2-0.1-0.3-0.2-0.4-0.3
		c-0.1-0.2-0.2-0.3-0.2-0.5c0-0.3,0.1-0.5,0.3-0.7c0.2-0.2,0.4-0.3,0.7-0.3C535.9,439,536.2,439.1,536.3,439.3z"/>
	<path d="M544.1,436c0.5,0.5,0.8,1.1,0.8,1.9c0,0.6-0.1,1.1-0.4,1.5c-0.3,0.5-0.7,0.8-1.3,1.1c-0.6,0.3-1.2,0.4-2.1,0.4
		c-0.7,0-1.4-0.1-2-0.3s-1.2-0.5-1.6-0.9l0.7-1.1c0.3,0.3,0.8,0.6,1.3,0.8c0.5,0.2,1.1,0.3,1.7,0.3c0.7,0,1.3-0.2,1.7-0.5
		c0.4-0.3,0.6-0.7,0.6-1.3s-0.2-1-0.6-1.3c-0.4-0.3-1-0.5-1.8-0.5h-0.8v-1l2.5-3.1h-4.8V431h6.5v1l-2.6,3.2
		C542.8,435.2,543.6,435.5,544.1,436z"/>
</g>
<g>
	<path d="M381.2,387.4h-1.9v2.4h-1.4v-2.4h-5.5v-1l5.1-6.5h1.5l-4.8,6.2h3.8V384h1.3v2.1h1.9V387.4z"/>
	<path d="M383.9,388.3c0.2,0.2,0.3,0.4,0.3,0.7c0,0.1,0,0.3,0,0.4c0,0.1-0.1,0.3-0.2,0.6l-0.7,2h-0.9l0.5-2.1
		c-0.2-0.1-0.3-0.2-0.4-0.3c-0.1-0.2-0.2-0.3-0.2-0.5c0-0.3,0.1-0.5,0.3-0.7s0.4-0.3,0.7-0.3C383.5,388,383.8,388.1,383.9,388.3z"/>
	<path d="M392.6,379.9v1l-4,8.9h-1.5l3.9-8.7h-4.5v1.8h-1.4v-3H392.6z"/>
</g>
<g>
	<path d="M530,324.9v1.2h-7.1v-1l4-3.9c0.5-0.5,0.8-0.9,1-1.2c0.2-0.3,0.3-0.7,0.3-1c0-0.5-0.2-0.9-0.5-1.2
		c-0.4-0.3-0.9-0.4-1.6-0.4c-1.1,0-1.9,0.4-2.5,1.1l-1-0.8c0.4-0.5,0.9-0.8,1.5-1.1s1.3-0.4,2.1-0.4c1,0,1.9,0.2,2.5,0.7
		c0.6,0.5,0.9,1.2,0.9,2c0,0.5-0.1,1-0.3,1.5c-0.2,0.5-0.7,1-1.3,1.6l-3,2.9H530z"/>
	<path d="M532.9,324.6c0.2,0.2,0.3,0.4,0.3,0.7c0,0.1,0,0.3,0,0.4c0,0.1-0.1,0.3-0.2,0.6l-0.7,2h-0.9l0.5-2.1
		c-0.2-0.1-0.3-0.2-0.4-0.3c-0.1-0.2-0.2-0.3-0.2-0.5c0-0.3,0.1-0.5,0.3-0.7s0.4-0.3,0.7-0.3C532.5,324.3,532.8,324.4,532.9,324.6z"
		/>
	<path d="M541.6,324.9v1.2h-7.1v-1l4-3.9c0.5-0.5,0.8-0.9,1-1.2c0.2-0.3,0.3-0.7,0.3-1c0-0.5-0.2-0.9-0.5-1.2
		c-0.4-0.3-0.9-0.4-1.6-0.4c-1.1,0-1.9,0.4-2.5,1.1l-1-0.8c0.4-0.5,0.9-0.8,1.5-1.1s1.3-0.4,2.1-0.4c1,0,1.9,0.2,2.5,0.7
		c0.6,0.5,0.9,1.2,0.9,2c0,0.5-0.1,1-0.3,1.5c-0.2,0.5-0.7,1-1.3,1.6l-3,2.9H541.6z"/>
</g>
<g>
	<path d="M404.5,313.8c0.5,0.2,0.9,0.6,1.2,1.1s0.4,1,0.4,1.6c0,0.6-0.2,1.2-0.5,1.6c-0.3,0.5-0.7,0.8-1.3,1.1
		c-0.5,0.3-1.1,0.4-1.8,0.4c-1.3,0-2.4-0.4-3.1-1.3c-0.7-0.9-1.1-2.1-1.1-3.6c0-1.1,0.2-2,0.6-2.8c0.4-0.8,0.9-1.4,1.6-1.8
		c0.7-0.4,1.5-0.6,2.5-0.6c0.5,0,0.9,0,1.4,0.1s0.8,0.2,1.1,0.4l-0.5,1.1c-0.5-0.3-1.1-0.5-1.9-0.5c-1,0-1.8,0.3-2.4,1
		c-0.6,0.6-0.9,1.6-0.9,2.8c0,0.2,0,0.3,0,0.4c0.3-0.4,0.7-0.7,1.2-1c0.5-0.2,1.1-0.3,1.7-0.3C403.4,313.5,403.9,313.6,404.5,313.8z
		 M404.1,317.9c0.4-0.3,0.6-0.8,0.6-1.4s-0.2-1-0.6-1.4c-0.4-0.3-1-0.5-1.6-0.5c-0.4,0-0.8,0.1-1.2,0.3c-0.3,0.2-0.6,0.4-0.8,0.7
		c-0.2,0.3-0.3,0.6-0.3,1c0,0.3,0.1,0.7,0.3,1c0.2,0.3,0.5,0.5,0.8,0.7s0.8,0.3,1.3,0.3C403.2,318.4,403.7,318.3,404.1,317.9z"/>
	<path d="M408.9,317.9c0.2,0.2,0.3,0.4,0.3,0.7c0,0.1,0,0.3,0,0.4c0,0.1-0.1,0.3-0.2,0.6l-0.7,2h-0.9l0.5-2.1
		c-0.2-0.1-0.3-0.2-0.4-0.3c-0.1-0.2-0.2-0.3-0.2-0.5c0-0.3,0.1-0.5,0.3-0.7s0.4-0.3,0.7-0.3C408.5,317.6,408.7,317.7,408.9,317.9z"
		/>
	<path d="M412.3,319c-0.6-0.4-1.1-1-1.4-1.7c-0.3-0.8-0.5-1.7-0.5-2.7c0-1,0.2-2,0.5-2.7c0.3-0.8,0.8-1.3,1.4-1.7
		c0.6-0.4,1.3-0.6,2.1-0.6c0.8,0,1.5,0.2,2.1,0.6c0.6,0.4,1.1,1,1.4,1.7c0.3,0.8,0.5,1.7,0.5,2.7c0,1-0.2,2-0.5,2.7
		s-0.8,1.3-1.4,1.7c-0.6,0.4-1.3,0.6-2.1,0.6C413.6,319.6,412.9,319.4,412.3,319z M416.3,317.4c0.5-0.7,0.7-1.6,0.7-2.8
		c0-1.2-0.2-2.2-0.7-2.8c-0.5-0.7-1.1-1-1.9-1c-0.8,0-1.4,0.3-1.9,1c-0.5,0.7-0.7,1.6-0.7,2.8c0,1.2,0.2,2.2,0.7,2.8
		c0.5,0.7,1.1,1,1.9,1C415.2,318.3,415.8,318,416.3,317.4z"/>
</g>
<g>
	<path d="M194.4,308.8c0.7,0.5,1,1.3,1,2.2c0,0.6-0.1,1.1-0.4,1.6c-0.3,0.5-0.7,0.8-1.3,1.1c-0.6,0.3-1.3,0.4-2.1,0.4
		c-0.7,0-1.4-0.1-2-0.3s-1.2-0.5-1.6-0.9l0.7-1.1c0.3,0.3,0.8,0.6,1.3,0.8c0.5,0.2,1.1,0.3,1.7,0.3c0.7,0,1.3-0.2,1.7-0.5
		s0.6-0.7,0.6-1.3c0-0.6-0.2-1-0.7-1.4s-1.2-0.5-2.3-0.5h-2.2l0.5-5.2h5.6v1.2h-4.4l-0.3,2.7h1.1C192.7,308,193.7,308.3,194.4,308.8
		z"/>
	<path d="M198.2,312.4c0.2,0.2,0.3,0.4,0.3,0.7c0,0.1,0,0.3,0,0.4c0,0.1-0.1,0.3-0.2,0.6l-0.7,2h-0.9l0.5-2.1
		c-0.2-0.1-0.3-0.2-0.4-0.3c-0.1-0.2-0.2-0.3-0.2-0.5c0-0.3,0.1-0.5,0.3-0.7s0.4-0.3,0.7-0.3C197.8,312.1,198,312.2,198.2,312.4z"/>
	<path d="M206.8,304.1v1l-4,8.9h-1.5l3.9-8.7h-4.5v1.8h-1.4v-3H206.8z"/>
</g>
<g>
	<path d="M52.1,307.7v1.2h-7.1v-1l4-3.9c0.5-0.5,0.8-0.9,1-1.2c0.2-0.3,0.3-0.7,0.3-1c0-0.5-0.2-0.9-0.5-1.2
		c-0.4-0.3-0.9-0.4-1.6-0.4c-1.1,0-1.9,0.4-2.5,1.1l-1-0.8c0.4-0.5,0.9-0.8,1.5-1.1s1.3-0.4,2.1-0.4c1,0,1.9,0.2,2.5,0.7
		c0.6,0.5,0.9,1.2,0.9,2c0,0.5-0.1,1-0.3,1.5c-0.2,0.5-0.7,1-1.3,1.6l-3,2.9H52.1z"/>
	<path d="M55,307.4c0.2,0.2,0.3,0.4,0.3,0.7c0,0.1,0,0.3,0,0.4c0,0.1-0.1,0.3-0.2,0.6l-0.7,2h-0.9l0.5-2.1c-0.2-0.1-0.3-0.2-0.4-0.3
		c-0.1-0.2-0.2-0.3-0.2-0.5c0-0.3,0.1-0.5,0.3-0.7s0.4-0.3,0.7-0.3C54.6,307.1,54.8,307.2,55,307.4z"/>
	<path d="M62.4,303.3c0.5,0.2,0.9,0.6,1.2,1.1c0.3,0.5,0.4,1,0.4,1.6c0,0.6-0.2,1.2-0.5,1.6c-0.3,0.5-0.7,0.8-1.3,1.1
		c-0.5,0.3-1.1,0.4-1.8,0.4c-1.3,0-2.4-0.4-3.1-1.3c-0.7-0.9-1.1-2.1-1.1-3.6c0-1.1,0.2-2,0.6-2.8c0.4-0.8,0.9-1.4,1.6-1.8
		c0.7-0.4,1.5-0.6,2.5-0.6c0.5,0,0.9,0,1.4,0.1s0.8,0.2,1.1,0.4l-0.5,1.1c-0.5-0.3-1.1-0.5-1.9-0.5c-1,0-1.8,0.3-2.4,1
		c-0.6,0.6-0.9,1.6-0.9,2.8c0,0.2,0,0.3,0,0.4c0.3-0.4,0.7-0.7,1.2-1c0.5-0.2,1.1-0.3,1.7-0.3C61.3,303,61.9,303.1,62.4,303.3z
		 M62.1,307.4c0.4-0.3,0.6-0.8,0.6-1.4s-0.2-1-0.6-1.4c-0.4-0.3-1-0.5-1.6-0.5c-0.4,0-0.8,0.1-1.2,0.3c-0.3,0.2-0.6,0.4-0.8,0.7
		c-0.2,0.3-0.3,0.6-0.3,1c0,0.3,0.1,0.7,0.3,1c0.2,0.3,0.5,0.5,0.8,0.7s0.8,0.3,1.3,0.3C61.1,307.9,61.7,307.8,62.1,307.4z"/>
</g>
<g>
	<path d="M72.1,48c0.5,0.5,0.8,1.1,0.8,1.9c0,0.6-0.1,1.1-0.4,1.5s-0.7,0.8-1.3,1.1c-0.6,0.3-1.2,0.4-2.1,0.4c-0.7,0-1.4-0.1-2-0.3
		s-1.2-0.5-1.6-0.9l0.7-1.1c0.3,0.3,0.8,0.6,1.3,0.8c0.5,0.2,1.1,0.3,1.7,0.3c0.7,0,1.3-0.2,1.7-0.5c0.4-0.3,0.6-0.7,0.6-1.3
		c0-0.5-0.2-1-0.6-1.3s-1-0.5-1.8-0.5h-0.8v-1l2.5-3.1h-4.8v-1.2h6.5v1l-2.6,3.2C70.8,47.2,71.6,47.5,72.1,48z"/>
	<path d="M75.7,51.2c0.2,0.2,0.3,0.4,0.3,0.7c0,0.1,0,0.3,0,0.4c0,0.1-0.1,0.3-0.2,0.6l-0.7,2h-0.9l0.5-2.1
		c-0.2-0.1-0.3-0.2-0.4-0.3c-0.1-0.2-0.2-0.3-0.2-0.5c0-0.3,0.1-0.5,0.3-0.7s0.4-0.3,0.7-0.3C75.4,51,75.6,51.1,75.7,51.2z"/>
	<path d="M84.4,51.6v1.2h-7.1v-1l4-3.9c0.5-0.5,0.8-0.9,1-1.2c0.2-0.3,0.3-0.7,0.3-1c0-0.5-0.2-0.9-0.5-1.2
		c-0.4-0.3-0.9-0.4-1.6-0.4c-1.1,0-1.9,0.4-2.5,1.1l-1-0.8c0.4-0.5,0.9-0.8,1.5-1.1s1.3-0.4,2.1-0.4c1,0,1.9,0.2,2.5,0.7
		c0.6,0.5,0.9,1.2,0.9,2c0,0.5-0.1,1-0.3,1.5c-0.2,0.5-0.7,1-1.3,1.6l-3,2.9H84.4z"/>
</g>
<g>
	<path d="M511.9,44.9c0.5,0.5,0.8,1.1,0.8,1.9c0,0.6-0.1,1.1-0.4,1.5c-0.3,0.5-0.7,0.8-1.3,1.1c-0.6,0.3-1.2,0.4-2.1,0.4
		c-0.7,0-1.4-0.1-2-0.3s-1.2-0.5-1.6-0.9l0.7-1.1c0.3,0.3,0.8,0.6,1.3,0.8c0.5,0.2,1.1,0.3,1.7,0.3c0.7,0,1.3-0.2,1.7-0.5
		c0.4-0.3,0.6-0.7,0.6-1.3c0-0.5-0.2-1-0.6-1.3s-1-0.5-1.8-0.5H508v-1l2.5-3.1h-4.8v-1.2h6.5v1l-2.6,3.2
		C510.6,44.1,511.4,44.4,511.9,44.9z"/>
	<path d="M515.5,48.1c0.2,0.2,0.3,0.4,0.3,0.7c0,0.1,0,0.3,0,0.4c0,0.1-0.1,0.3-0.2,0.6l-0.7,2H514l0.5-2.1
		c-0.2-0.1-0.3-0.2-0.4-0.3c-0.1-0.2-0.2-0.3-0.2-0.5c0-0.3,0.1-0.5,0.3-0.7c0.2-0.2,0.4-0.3,0.7-0.3
		C515.2,47.9,515.4,48,515.5,48.1z"/>
	<path d="M524.2,48.5v1.2h-7.1v-1l4-3.9c0.5-0.5,0.8-0.9,1-1.2c0.2-0.3,0.3-0.7,0.3-1c0-0.5-0.2-0.9-0.5-1.2
		c-0.4-0.3-0.9-0.4-1.6-0.4c-1.1,0-1.9,0.4-2.5,1.1l-1-0.8c0.4-0.5,0.9-0.8,1.5-1.1s1.3-0.4,2.1-0.4c1,0,1.9,0.2,2.5,0.7
		c0.6,0.5,0.9,1.2,0.9,2c0,0.5-0.1,1-0.3,1.5s-0.7,1-1.3,1.6l-3,2.9H524.2z"/>
</g>
<g>
	
		<rect x="17" y="112" fill-rule="evenodd" clip-rule="evenodd" fill="#F1F2F2" stroke="#848484" stroke-miterlimit="10" width="1.9" height="26.4"/>
	
		<rect x="17" y="112" fill-rule="evenodd" clip-rule="evenodd" fill="#F1F2F2" stroke="#848484" stroke-miterlimit="10" width="1.9" height="26.4"/>
	
		<rect x="46.5" y="111.8" fill-rule="evenodd" clip-rule="evenodd" fill="#F1F2F2" stroke="#848484" stroke-miterlimit="10" width="2.6" height="8.7"/>
	
		<rect x="46.5" y="111.8" fill-rule="evenodd" clip-rule="evenodd" fill="#F1F2F2" stroke="#848484" stroke-miterlimit="10" width="2.6" height="8.7"/>
	
		<rect x="18.7" y="110.6" fill-rule="evenodd" clip-rule="evenodd" fill="#F1F2F2" stroke="#848484" stroke-miterlimit="10" width="28.9" height="29"/>
	
		<rect x="18.7" y="110.6" fill-rule="evenodd" clip-rule="evenodd" fill="#F1F2F2" stroke="#848484" stroke-miterlimit="10" width="28.9" height="29"/>
	<path fill-rule="evenodd" clip-rule="evenodd" fill="#F1F2F2" stroke="#848484" stroke-miterlimit="10" d="M45,139.6l0-29L45,139.6
		z"/>
	<path fill-rule="evenodd" clip-rule="evenodd" fill="#F1F2F2" stroke="#848484" stroke-miterlimit="10" d="M44.9,141
		c-0.6,0-1.1-0.5-1.1-1.1c0-0.7,0.6-1.1,1.1-1.1c0.7,0,1.3,0.5,1.3,1.1C46.1,140.5,45.6,141,44.9,141z"/>
	<path fill-rule="evenodd" clip-rule="evenodd" fill="#F1F2F2" stroke="#848484" stroke-miterlimit="10" d="M44.9,141
		c-0.6,0-1.1-0.5-1.1-1.1c0-0.7,0.6-1.1,1.1-1.1c0.7,0,1.3,0.5,1.3,1.1C46.1,140.5,45.6,141,44.9,141z"/>
	<path fill-rule="evenodd" clip-rule="evenodd" fill="#F1F2F2" stroke="#848484" stroke-miterlimit="10" d="M30.1,124.9h5.1H30.1z"
		/>
	<path fill-rule="evenodd" clip-rule="evenodd" fill="#F1F2F2" stroke="#848484" stroke-miterlimit="10" d="M32.6,127.4l0-5.1
		L32.6,127.4z"/>
	<path fill-rule="evenodd" clip-rule="evenodd" fill="#F1F2F2" stroke="#848484" stroke-miterlimit="10" d="M34.5,126.7l-3.7-3.7
		L34.5,126.7z"/>
	<path fill-rule="evenodd" clip-rule="evenodd" fill="#F1F2F2" stroke="#848484" stroke-miterlimit="10" d="M34.5,123.1l-3.7,3.7
		L34.5,123.1z"/>
	<path fill-rule="evenodd" clip-rule="evenodd" fill="#F1F2F2" stroke="#848484" stroke-miterlimit="10" d="M29.9,132.4H35H29.9z"/>
	<path fill-rule="evenodd" clip-rule="evenodd" fill="#F1F2F2" stroke="#848484" stroke-miterlimit="10" d="M32.4,135l0-5.1
		L32.4,135z"/>
	<path fill-rule="evenodd" clip-rule="evenodd" fill="#F1F2F2" stroke="#848484" stroke-miterlimit="10" d="M34.3,134.2l-3.7-3.7
		L34.3,134.2z"/>
	<path fill-rule="evenodd" clip-rule="evenodd" fill="#F1F2F2" stroke="#848484" stroke-miterlimit="10" d="M34.3,130.6l-3.7,3.7
		L34.3,130.6z"/>
	<path fill-rule="evenodd" clip-rule="evenodd" fill="#F1F2F2" stroke="#848484" stroke-miterlimit="10" d="M30.1,117.6l5.1,0
		L30.1,117.6z"/>
	<path fill-rule="evenodd" clip-rule="evenodd" fill="#F1F2F2" stroke="#848484" stroke-miterlimit="10" d="M32.6,120.1l0-5.1
		L32.6,120.1z"/>
	<path fill-rule="evenodd" clip-rule="evenodd" fill="#F1F2F2" stroke="#848484" stroke-miterlimit="10" d="M34.5,119.4l-3.7-3.7
		L34.5,119.4z"/>
	<path fill-rule="evenodd" clip-rule="evenodd" fill="#F1F2F2" stroke="#848484" stroke-miterlimit="10" d="M34.5,115.7l-3.7,3.7
		L34.5,115.7z"/>
</g>
<g>
	
		<rect x="17.3" y="319.6" transform="matrix(-1 -4.488821e-11 4.488821e-11 -1 102.026 662.5288)" fill-rule="evenodd" clip-rule="evenodd" fill="#F1F2F2" stroke="#848484" stroke-miterlimit="10" width="67.5" height="23.3"/>
	<line fill="#F1F2F2" stroke="#848484" stroke-miterlimit="10" x1="82.3" y1="319.6" x2="82.3" y2="343"/>
	<line fill="#F1F2F2" stroke="#848484" stroke-miterlimit="10" x1="19.8" y1="319.6" x2="19.8" y2="342.9"/>
	<line fill="#F1F2F2" stroke="#848484" stroke-miterlimit="10" x1="82.3" y1="341.8" x2="19.8" y2="341.8"/>
	<line fill="#F1F2F2" stroke="#848484" stroke-miterlimit="10" x1="22" y1="331.1" x2="80.1" y2="331.1"/>
	
		<rect x="76.4" y="324.1" transform="matrix(-0.9868 0.162 -0.162 -0.9868 206.8786 645.5715)" fill="#F1F2F2" stroke="#848484" stroke-miterlimit="10" width="1.5" height="14.2"/>
	
		<rect x="71.2" y="324.1" transform="matrix(-0.9961 8.815246e-02 -8.815246e-02 -0.9961 172.7084 654.8093)" fill="#F1F2F2" stroke="#848484" stroke-miterlimit="10" width="1.5" height="14.2"/>
	
		<rect x="65.9" y="324" transform="matrix(-0.9734 0.229 -0.229 -0.9734 207.2521 638.1438)" fill="#F1F2F2" stroke="#848484" stroke-miterlimit="10" width="1.5" height="14.2"/>
	
		<rect x="60" y="324.2" transform="matrix(-0.9884 0.152 -0.152 -0.9884 171.0419 649.4321)" fill="#F1F2F2" stroke="#848484" stroke-miterlimit="10" width="1.5" height="14.2"/>
	
		<rect x="54.8" y="324.1" transform="matrix(-0.999 4.511170e-02 -4.511170e-02 -0.999 125.9598 659.5098)" fill="#F1F2F2" stroke="#848484" stroke-miterlimit="10" width="1.5" height="14.2"/>
	
		<rect x="49.6" y="324.1" transform="matrix(-0.9884 0.152 -0.152 -0.9884 150.4102 650.8512)" fill="#F1F2F2" stroke="#848484" stroke-miterlimit="10" width="1.5" height="14.2"/>
	
		<rect x="44.3" y="324" transform="matrix(-0.999 4.511170e-02 -4.511170e-02 -0.999 104.9385 659.8257)" fill="#F1F2F2" stroke="#848484" stroke-miterlimit="10" width="1.5" height="14.2"/>
	
		<rect x="39.1" y="324" transform="matrix(-0.9787 0.2052 -0.2052 -0.9787 146.7422 646.9788)" fill="#F1F2F2" stroke="#848484" stroke-miterlimit="10" width="1.5" height="14.2"/>
	
		<rect x="33.9" y="324" transform="matrix(-0.9884 0.152 -0.152 -0.9884 119.2114 653.108)" fill="#F1F2F2" stroke="#848484" stroke-miterlimit="10" width="1.5" height="14.2"/>
	
		<rect x="28.7" y="324" transform="matrix(-0.9964 8.473843e-02 -8.473843e-02 -0.9964 86.8339 658.5082)" fill="#F1F2F2" stroke="#848484" stroke-miterlimit="10" width="1.5" height="14.2"/>
	
		<rect x="23.5" y="324.2" transform="matrix(-0.9713 0.2379 -0.2379 -0.9713 126.6148 647.259)" fill="#F1F2F2" stroke="#848484" stroke-miterlimit="10" width="1.5" height="14.2"/>
</g>
<g>
	
		<rect x="320.6" y="253.7" transform="matrix(-1 -4.488733e-11 4.488733e-11 -1 705.9132 529.7365)" fill-rule="evenodd" clip-rule="evenodd" fill="#F1F2F2" stroke="#848484" stroke-miterlimit="10" width="64.7" height="22.3"/>
	<line fill="#F1F2F2" stroke="#848484" stroke-miterlimit="10" x1="383" y1="253.7" x2="383" y2="276.1"/>
	<line fill="#F1F2F2" stroke="#848484" stroke-miterlimit="10" x1="323" y1="253.7" x2="323" y2="276"/>
	<line fill="#F1F2F2" stroke="#848484" stroke-miterlimit="10" x1="383" y1="275" x2="323" y2="275"/>
	<line fill="#F1F2F2" stroke="#848484" stroke-miterlimit="10" x1="325.1" y1="264.7" x2="380.9" y2="264.7"/>
	
		<rect x="377.3" y="258" transform="matrix(-0.9868 0.162 -0.162 -0.9868 793.8464 464.9325)" fill="#F1F2F2" stroke="#848484" stroke-miterlimit="10" width="1.4" height="13.6"/>
	
		<rect x="372.3" y="258" transform="matrix(-0.9961 8.815246e-02 -8.815246e-02 -0.9961 767.8167 495.7395)" fill="#F1F2F2" stroke="#848484" stroke-miterlimit="10" width="1.4" height="13.6"/>
	
		<rect x="367.2" y="257.9" transform="matrix(-0.9734 0.229 -0.229 -0.9734 786.6204 438.1342)" fill="#F1F2F2" stroke="#848484" stroke-miterlimit="10" width="1.4" height="13.6"/>
	
		<rect x="361.5" y="258.1" transform="matrix(-0.9884 0.152 -0.152 -0.9884 760.5156 471.5663)" fill="#F1F2F2" stroke="#848484" stroke-miterlimit="10" width="1.4" height="13.6"/>
	
		<rect x="356.6" y="258" transform="matrix(-0.999 4.511170e-02 -4.511170e-02 -0.999 726.1647 513.1798)" fill="#F1F2F2" stroke="#848484" stroke-miterlimit="10" width="1.4" height="13.6"/>
	
		<rect x="351.6" y="258" transform="matrix(-0.9884 0.152 -0.152 -0.9884 740.7505 472.9258)" fill="#F1F2F2" stroke="#848484" stroke-miterlimit="10" width="1.4" height="13.6"/>
	
		<rect x="346.5" y="257.9" transform="matrix(-0.999 4.511170e-02 -4.511170e-02 -0.999 706.0262 513.4824)" fill="#F1F2F2" stroke="#848484" stroke-miterlimit="10" width="1.4" height="13.6"/>
	
		<rect x="341.5" y="257.9" transform="matrix(-0.9787 0.2052 -0.2052 -0.9787 731.5148 453.5679)" fill="#F1F2F2" stroke="#848484" stroke-miterlimit="10" width="1.4" height="13.6"/>
	
		<rect x="336.6" y="257.9" transform="matrix(-0.9884 0.152 -0.152 -0.9884 710.862 475.0878)" fill="#F1F2F2" stroke="#848484" stroke-miterlimit="10" width="1.4" height="13.6"/>
	
		<rect x="331.6" y="257.9" transform="matrix(-0.9964 8.473843e-02 -8.473843e-02 -0.9964 685.8181 500.3057)" fill="#F1F2F2" stroke="#848484" stroke-miterlimit="10" width="1.4" height="13.6"/>
	
		<rect x="326.6" y="258.1" transform="matrix(-0.9713 0.2379 -0.2379 -0.9713 708.2505 444.2665)" fill="#F1F2F2" stroke="#848484" stroke-miterlimit="10" width="1.4" height="13.6"/>
</g>
<g>
	
		<rect x="503" y="247" transform="matrix(-1 -4.488377e-11 4.488377e-11 -1 1088.9318 522.5916)" fill-rule="evenodd" clip-rule="evenodd" fill="#F1F2F2" stroke="#848484" stroke-miterlimit="10" width="82.9" height="28.6"/>
	<line fill="#F1F2F2" stroke="#848484" stroke-miterlimit="10" x1="582.9" y1="247" x2="582.9" y2="275.6"/>
	<line fill="#F1F2F2" stroke="#848484" stroke-miterlimit="10" x1="506.1" y1="247" x2="506.1" y2="275.6"/>
	<line fill="#F1F2F2" stroke="#848484" stroke-miterlimit="10" x1="582.9" y1="274.3" x2="506.1" y2="274.3"/>
	<line fill="#F1F2F2" stroke="#848484" stroke-miterlimit="10" x1="508.8" y1="261.1" x2="580.2" y2="261.1"/>
	
		<rect x="575.6" y="252.5" transform="matrix(-0.9868 0.162 -0.162 -0.9868 1187.7275 425.653)" fill="#F1F2F2" stroke="#848484" stroke-miterlimit="10" width="1.8" height="17.4"/>
	
		<rect x="569.2" y="252.5" transform="matrix(-0.9961 8.815246e-02 -8.815246e-02 -0.9961 1160.9994 471.206)" fill="#F1F2F2" stroke="#848484" stroke-miterlimit="10" width="1.8" height="17.4"/>
	
		<rect x="562.7" y="252.4" transform="matrix(-0.9734 0.229 -0.229 -0.9734 1172.0054 386.1781)" fill="#F1F2F2" stroke="#848484" stroke-miterlimit="10" width="1.8" height="17.4"/>
	
		<rect x="555.4" y="252.6" transform="matrix(-0.9884 0.152 -0.152 -0.9884 1145.9469 434.9445)" fill="#F1F2F2" stroke="#848484" stroke-miterlimit="10" width="1.8" height="17.4"/>
	
		<rect x="549.1" y="252.5" transform="matrix(-0.999 4.511170e-02 -4.511170e-02 -0.999 1111.2621 497.2968)" fill="#F1F2F2" stroke="#848484" stroke-miterlimit="10" width="1.8" height="17.4"/>
	
		<rect x="542.7" y="252.5" transform="matrix(-0.9884 0.152 -0.152 -0.9884 1120.6254 436.6862)" fill="#F1F2F2" stroke="#848484" stroke-miterlimit="10" width="1.8" height="17.4"/>
	
		<rect x="536.2" y="252.4" transform="matrix(-0.999 4.511170e-02 -4.511170e-02 -0.999 1085.4624 497.6845)" fill="#F1F2F2" stroke="#848484" stroke-miterlimit="10" width="1.8" height="17.4"/>
	
		<rect x="529.8" y="252.4" transform="matrix(-0.9787 0.2052 -0.2052 -0.9787 1103.7578 407.7366)" fill="#F1F2F2" stroke="#848484" stroke-miterlimit="10" width="1.8" height="17.4"/>
	
		<rect x="523.5" y="252.4" transform="matrix(-0.9884 0.152 -0.152 -0.9884 1082.3347 439.456)" fill="#F1F2F2" stroke="#848484" stroke-miterlimit="10" width="1.8" height="17.4"/>
	
		<rect x="517.1" y="252.4" transform="matrix(-0.9964 8.473843e-02 -8.473843e-02 -0.9964 1056.2433 477.3477)" fill="#F1F2F2" stroke="#848484" stroke-miterlimit="10" width="1.8" height="17.4"/>
	
		<rect x="510.7" y="252.6" transform="matrix(-0.9713 0.2379 -0.2379 -0.9713 1070.7106 393.3783)" fill="#F1F2F2" stroke="#848484" stroke-miterlimit="10" width="1.8" height="17.4"/>
</g>
<g>
	<g>
		
			<rect x="515.1" y="505" transform="matrix(-1 -4.493484e-11 4.493484e-11 -1 1059.0171 1030.9771)" fill="#F1F2F2" stroke="#848484" stroke-miterlimit="10" width="28.8" height="20.9"/>
		
			<rect x="523.6" y="525.9" transform="matrix(-1 -4.491975e-11 4.491975e-11 -1 1059.2419 1053.2502)" fill="#F1F2F2" stroke="#848484" stroke-miterlimit="10" width="12.1" height="1.4"/>
	</g>
	<g>
		
			<rect x="545.4" y="505" fill-rule="evenodd" clip-rule="evenodd" fill="#F1F2F2" stroke="#848484" stroke-miterlimit="10" width="40.9" height="105.4"/>
		<polyline fill-rule="evenodd" clip-rule="evenodd" fill="#F1F2F2" stroke="#848484" stroke-miterlimit="10" points="584.6,534.4 
			584.6,510.1 547.1,510.1 547.1,546.9 		"/>
		
			<rect x="554.6" y="507.6" transform="matrix(-4.498464e-11 1 -1 -4.498464e-11 1089.8531 -41.8799)" fill-rule="evenodd" clip-rule="evenodd" fill="#F1F2F2" stroke="#848484" stroke-miterlimit="10" width="22.4" height="32.8"/>
		<polygon fill-rule="evenodd" clip-rule="evenodd" fill="#F1F2F2" stroke="#848484" stroke-miterlimit="10" points="584.6,533.4 
			569.5,533.4 569.5,533.4 547.1,546.6 547.1,607.4 547.2,607.4 584.6,607.4 		"/>
		<polygon fill-rule="evenodd" clip-rule="evenodd" fill="#F1F2F2" stroke="#848484" stroke-miterlimit="10" points="547.5,546.7 
			562.3,556 568.6,533.9 		"/>
	</g>
</g>
<g>
	<g>
		<path fill="#F1F2F2" stroke="#848484" stroke-miterlimit="10" d="M569.8,733.7l-22.5,0c-1.1,0-2,0.9-2,2l0,20.2c0,1.1,0.9,2,2,2
			l22.5,0c1.1,0,2-0.9,2-2l0-20.2C571.8,734.6,570.9,733.7,569.8,733.7z"/>
		<path fill="#F1F2F2" stroke="#848484" stroke-miterlimit="10" d="M570.4,733.7l-23.7,0c-0.8,0-1.4-0.6-1.4-1.4l0-3
			c0-0.8,0.6-1.4,1.4-1.4l23.7,0c0.8,0,1.4,0.6,1.4,1.4l0,3C571.8,733.1,571.2,733.7,570.4,733.7z"/>
	</g>
	
		<rect x="531.5" y="747.5" fill-rule="evenodd" clip-rule="evenodd" fill="#F1F2F2" stroke="#848484" stroke-miterlimit="10" width="54.1" height="28.4"/>
	
		<rect x="455.3" y="747.5" fill-rule="evenodd" clip-rule="evenodd" fill="#F1F2F2" stroke="#848484" stroke-miterlimit="10" width="76.2" height="28.4"/>
</g>
<g>
	<g>
		<path fill="#F1F2F2" stroke="#848484" stroke-miterlimit="10" d="M325.7,65.9l22.5,0c1.1,0,2-0.9,2-2l0-20.2c0-1.1-0.9-2-2-2
			l-22.5,0c-1.1,0-2,0.9-2,2l0,20.2C323.7,65,324.6,65.9,325.7,65.9z"/>
		<path fill="#F1F2F2" stroke="#848484" stroke-miterlimit="10" d="M325.1,65.9l23.7,0c0.8,0,1.4,0.6,1.4,1.4l0,3
			c0,0.8-0.6,1.4-1.4,1.4l-23.7,0c-0.8,0-1.4-0.6-1.4-1.4l0-3C323.7,66.5,324.3,65.9,325.1,65.9z"/>
	</g>
	
		<rect x="309.9" y="23.7" transform="matrix(-1 2.065580e-11 -2.065580e-11 -1 673.8347 75.9095)" fill-rule="evenodd" clip-rule="evenodd" fill="#F1F2F2" stroke="#848484" stroke-miterlimit="10" width="54.1" height="28.4"/>
</g>
<g>
	
		<rect x="422.1" y="678.6" transform="matrix(-4.487806e-11 1 -1 -4.487806e-11 1169.0664 223.2808)" fill-rule="evenodd" clip-rule="evenodd" fill="#F1F2F2" stroke="#848484" stroke-miterlimit="10" width="101.7" height="35.1"/>
	<line fill="#F1F2F2" stroke="#848484" stroke-miterlimit="10" x1="455.3" y1="649" x2="490.5" y2="649"/>
	<line fill="#F1F2F2" stroke="#848484" stroke-miterlimit="10" x1="455.3" y1="743.2" x2="490.4" y2="743.2"/>
	<line fill="#F1F2F2" stroke="#848484" stroke-miterlimit="10" x1="488.8" y1="649" x2="488.8" y2="743.2"/>
	<line fill="#F1F2F2" stroke="#848484" stroke-miterlimit="10" x1="472.6" y1="739.9" x2="472.6" y2="652.3"/>
	
		<rect x="471.7" y="646.2" transform="matrix(0.162 0.9868 -0.9868 0.162 1044.4244 83.8867)" fill="#F1F2F2" stroke="#848484" stroke-miterlimit="10" width="2.2" height="21.4"/>
	
		<rect x="471.7" y="654" transform="matrix(8.815246e-02 0.9961 -0.9961 8.815246e-02 1093.2855 135.1503)" fill="#F1F2F2" stroke="#848484" stroke-miterlimit="10" width="2.2" height="21.4"/>
	
		<rect x="471.5" y="662" transform="matrix(0.229 0.9734 -0.9734 0.229 1019.2327 58.5728)" fill="#F1F2F2" stroke="#848484" stroke-miterlimit="10" width="2.2" height="21.4"/>
	
		<rect x="471.8" y="670.9" transform="matrix(0.152 0.9884 -0.9884 0.152 1074.6583 110.5872)" fill="#F1F2F2" stroke="#848484" stroke-miterlimit="10" width="2.2" height="21.4"/>
	
		<rect x="471.7" y="678.7" transform="matrix(4.511170e-02 0.999 -0.999 4.511170e-02 1140.0911 185.9829)" fill="#F1F2F2" stroke="#848484" stroke-miterlimit="10" width="2.2" height="21.4"/>
	
		<rect x="471.7" y="686.5" transform="matrix(0.152 0.9884 -0.9884 0.152 1089.9902 123.9457)" fill="#F1F2F2" stroke="#848484" stroke-miterlimit="10" width="2.2" height="21.4"/>
	
		<rect x="471.5" y="694.5" transform="matrix(4.511170e-02 0.999 -0.999 4.511170e-02 1155.7926 201.2195)" fill="#F1F2F2" stroke="#848484" stroke-miterlimit="10" width="2.2" height="21.4"/>
	
		<rect x="471.5" y="702.3" transform="matrix(0.2052 0.9787 -0.9787 0.2052 1073.5156 104.1403)" fill="#F1F2F2" stroke="#848484" stroke-miterlimit="10" width="2.2" height="21.4"/>
	
		<rect x="471.6" y="710.1" transform="matrix(0.152 0.9884 -0.9884 0.152 1113.2517 144.0689)" fill="#F1F2F2" stroke="#848484" stroke-miterlimit="10" width="2.2" height="21.4"/>
	
		<rect x="471.5" y="718" transform="matrix(8.473843e-02 0.9964 -0.9964 8.473843e-02 1158.6234 195.9686)" fill="#F1F2F2" stroke="#848484" stroke-miterlimit="10" width="2.2" height="21.4"/>
	
		<rect x="471.8" y="725.8" transform="matrix(0.2379 0.9713 -0.9713 0.2379 1075.7155 101.9303)" fill="#F1F2F2" stroke="#848484" stroke-miterlimit="10" width="2.2" height="21.4"/>
</g>
<g>
	<g>
		<path fill="#F1F2F2" stroke="#848484" stroke-miterlimit="10" d="M158.3,220.2c0,5.2,1.6,9.4,3.5,9.4c1.9,0,3.5-4.2,3.5-9.4
			s-1.6-9.4-3.5-9.4C159.8,210.7,158.3,215,158.3,220.2z"/>
		<path fill="#F1F2F2" stroke="#848484" stroke-miterlimit="10" d="M142.5,220.2c0,5.2,4.2,9.4,9.4,9.4s9.4-4.2,9.4-9.4
			s-4.2-9.4-9.4-9.4S142.5,215,142.5,220.2z"/>
	</g>
	<g>
		<path fill="#F1F2F2" stroke="#848484" stroke-miterlimit="10" d="M112.6,191.8c0-5.2-1.6-9.4-3.5-9.4c-1.9,0-3.5,4.2-3.5,9.4
			s1.6,9.4,3.5,9.4C111.1,201.3,112.6,197,112.6,191.8z"/>
		<path fill="#F1F2F2" stroke="#848484" stroke-miterlimit="10" d="M128.4,191.8c0-5.2-4.2-9.4-9.4-9.4c-5.2,0-9.4,4.2-9.4,9.4
			s4.2,9.4,9.4,9.4C124.2,201.3,128.4,197,128.4,191.8z"/>
	</g>
	<g>
		<path fill="#F1F2F2" stroke="#848484" stroke-miterlimit="10" d="M111.8,220.1c0-5.2-1.6-9.4-3.5-9.4c-1.9,0-3.5,4.2-3.5,9.4
			s1.6,9.4,3.5,9.4C110.3,229.6,111.8,225.3,111.8,220.1z"/>
		<path fill="#F1F2F2" stroke="#848484" stroke-miterlimit="10" d="M127.6,220.1c0-5.2-4.2-9.4-9.4-9.4c-5.2,0-9.4,4.2-9.4,9.4
			s4.2,9.4,9.4,9.4C123.4,229.6,127.6,225.3,127.6,220.1z"/>
	</g>
	<g>
		<path fill="#F1F2F2" stroke="#848484" stroke-miterlimit="10" d="M157.2,191.8c0,5.2,1.6,9.4,3.5,9.4c1.9,0,3.5-4.2,3.5-9.4
			c0-5.2-1.6-9.4-3.5-9.4C158.7,182.4,157.2,186.6,157.2,191.8z"/>
		<path fill="#F1F2F2" stroke="#848484" stroke-miterlimit="10" d="M141.4,191.8c0,5.2,4.2,9.4,9.4,9.4s9.4-4.2,9.4-9.4
			c0-5.2-4.2-9.4-9.4-9.4S141.4,186.6,141.4,191.8z"/>
	</g>
	
		<rect x="102" y="186.8" transform="matrix(6.123234e-17 -1 1 6.123234e-17 -70.8287 340.6384)" fill="#F1F2F2" stroke="#848484" stroke-miterlimit="10" width="65.7" height="37.9"/>
</g>
<g>
	<g>
		
			<rect x="305.1" y="141.5" fill-rule="evenodd" clip-rule="evenodd" fill="#F1F2F2" stroke="#848484" stroke-miterlimit="10" width="83.1" height="64.5"/>
		
			<rect x="308.4" y="143" fill-rule="evenodd" clip-rule="evenodd" fill="#F1F2F2" stroke="#848484" stroke-miterlimit="10" width="77.4" height="61.5"/>
		
			<rect x="310.4" y="144.8" fill-rule="evenodd" clip-rule="evenodd" fill="#F1F2F2" stroke="#848484" stroke-miterlimit="10" width="17.5" height="23.9"/>
		
			<rect x="310.4" y="178.6" fill-rule="evenodd" clip-rule="evenodd" fill="#F1F2F2" stroke="#848484" stroke-miterlimit="10" width="17.5" height="23.9"/>
		<polygon fill-rule="evenodd" clip-rule="evenodd" fill="#F1F2F2" stroke="#848484" stroke-miterlimit="10" points="336.8,143 
			326.1,161.4 326.1,186.2 326.1,161.4 326.1,186.2 336.8,204.5 385.8,204.5 385.8,204.5 385.8,143 		"/>
		<polyline fill-rule="evenodd" clip-rule="evenodd" fill="#F1F2F2" stroke="#848484" stroke-miterlimit="10" points="336.8,143 
			344.6,155.9 326.1,161.4 		"/>
		
			<line fill-rule="evenodd" clip-rule="evenodd" fill="#F1F2F2" stroke="#848484" stroke-miterlimit="10" x1="326.1" y1="161.4" x2="336.8" y2="143"/>
		<polyline fill-rule="evenodd" clip-rule="evenodd" fill="#F1F2F2" stroke="#848484" stroke-miterlimit="10" points="336.8,204.5 
			344.6,191.7 326.1,186.2 		"/>
		
			<line fill-rule="evenodd" clip-rule="evenodd" fill="#F1F2F2" stroke="#848484" stroke-miterlimit="10" x1="326.1" y1="186.2" x2="336.8" y2="204.5"/>
	</g>
	<g>
		
			<rect x="302" y="210.3" transform="matrix(-1.836970e-16 1 -1 -1.836970e-16 531.8528 -94.7594)" fill="#F1F2F2" stroke="#848484" stroke-miterlimit="10" width="22.7" height="16.5"/>
		
			<rect x="317.3" y="217.9" transform="matrix(-1.836970e-16 1 -1 -1.836970e-16 540.5472 -103.6312)" fill="#F1F2F2" stroke="#848484" stroke-miterlimit="10" width="9.5" height="1.1"/>
	</g>
	<g>
		
			<rect x="302" y="120.6" transform="matrix(-1.836970e-16 1 -1 -1.836970e-16 442.1947 -184.4175)" fill="#F1F2F2" stroke="#848484" stroke-miterlimit="10" width="22.7" height="16.5"/>
		
			<rect x="317.3" y="128.3" transform="matrix(1.907747e-13 1 -1 1.907747e-13 450.8891 -193.2892)" fill="#F1F2F2" stroke="#848484" stroke-miterlimit="10" width="9.5" height="1.1"/>
	</g>
</g>
<g>
	<path fill-rule="evenodd" clip-rule="evenodd" fill="#F1F2F2" stroke="#848484" stroke-miterlimit="10" d="M435.3,136.2v12.7h-10.5
		v-12.7H435.3L435.3,136.2z M435.3,196.1h-15.7v-47.2h15.7V196.1z"/>
	<path fill-rule="evenodd" clip-rule="evenodd" fill="#F1F2F2" stroke="#848484" stroke-miterlimit="10" d="M429.7,177.2
		c2.7,0,3-2.5,3-5.6c0-3-0.3-5.5-3-5.5c-2.7,0-5,2.5-5,5.5C424.7,174.7,426.9,177.2,429.7,177.2z"/>
	
		<rect x="427.1" y="153.1" fill-rule="evenodd" clip-rule="evenodd" fill="#F1F2F2" stroke="#848484" stroke-miterlimit="10" width="2.1" height="37.1"/>
	
		<rect x="427.1" y="153.1" fill-rule="evenodd" clip-rule="evenodd" fill="#F1F2F2" stroke="#848484" stroke-miterlimit="10" width="2.1" height="37.1"/>
	<polygon fill-rule="evenodd" clip-rule="evenodd" fill="#F1F2F2" stroke="#848484" stroke-miterlimit="10" points="429.1,187 
		430.8,181 430.8,162.2 429.1,156.3 	"/>
	<polygon fill-rule="evenodd" clip-rule="evenodd" fill="#F1F2F2" stroke="#848484" stroke-miterlimit="10" points="429.1,187 
		430.8,181 430.8,162.2 429.1,156.3 	"/>
	<path fill-rule="evenodd" clip-rule="evenodd" fill="#F1F2F2" stroke="#848484" stroke-miterlimit="10" d="M423.6,137.3v10.5h-1
		v-10.5H423.6L423.6,137.3z M435.3,196.1v12.7h-10.5v-12.7H435.3L435.3,196.1z M423.6,207.7h-1v-10.5h1V207.7z"/>
</g>
<g>
	<g>
		
			<rect x="500.6" y="140.7" transform="matrix(-1 -1.224647e-16 1.224647e-16 -1 1086.9138 347.9286)" fill-rule="evenodd" clip-rule="evenodd" fill="#F1F2F2" stroke="#848484" stroke-miterlimit="10" width="85.6" height="66.5"/>
		
			<rect x="503" y="142.2" transform="matrix(-1 -1.224647e-16 1.224647e-16 -1 1085.8938 347.8588)" fill-rule="evenodd" clip-rule="evenodd" fill="#F1F2F2" stroke="#848484" stroke-miterlimit="10" width="79.8" height="63.4"/>
		
			<rect x="562.8" y="179.1" transform="matrix(-1 -2.021831e-13 2.021831e-13 -1 1143.5841 382.8833)" fill-rule="evenodd" clip-rule="evenodd" fill="#F1F2F2" stroke="#848484" stroke-miterlimit="10" width="18" height="24.6"/>
		
			<rect x="562.8" y="144.3" transform="matrix(-1 -1.009307e-13 1.009307e-13 -1 1143.5841 313.2007)" fill-rule="evenodd" clip-rule="evenodd" fill="#F1F2F2" stroke="#848484" stroke-miterlimit="10" width="18" height="24.6"/>
		<polygon fill-rule="evenodd" clip-rule="evenodd" fill="#F1F2F2" stroke="#848484" stroke-miterlimit="10" points="553.6,205.6 
			564.6,186.7 564.6,161.1 564.6,186.7 564.6,161.1 553.6,142.2 503,142.2 503,142.3 503,205.6 		"/>
		<polyline fill-rule="evenodd" clip-rule="evenodd" fill="#F1F2F2" stroke="#848484" stroke-miterlimit="10" points="553.6,205.6 
			545.6,192.4 564.6,186.7 		"/>
		
			<line fill-rule="evenodd" clip-rule="evenodd" fill="#F1F2F2" stroke="#848484" stroke-miterlimit="10" x1="564.6" y1="186.7" x2="553.6" y2="205.6"/>
		<polyline fill-rule="evenodd" clip-rule="evenodd" fill="#F1F2F2" stroke="#848484" stroke-miterlimit="10" points="553.6,142.2 
			545.6,155.5 564.6,161.1 		"/>
		
			<line fill-rule="evenodd" clip-rule="evenodd" fill="#F1F2F2" stroke="#848484" stroke-miterlimit="10" x1="564.6" y1="161.1" x2="553.6" y2="142.2"/>
	</g>
	<g>
		
			<rect x="566.1" y="119.3" transform="matrix(6.123234e-17 -1 1 6.123234e-17 449.9815 705.5692)" fill="#F1F2F2" stroke="#848484" stroke-miterlimit="10" width="23.4" height="17"/>
		
			<rect x="563.8" y="127.3" transform="matrix(6.123234e-17 -1 1 6.123234e-17 440.838 696.6083)" fill="#F1F2F2" stroke="#848484" stroke-miterlimit="10" width="9.8" height="1.1"/>
	</g>
	<g>
		
			<rect x="566.1" y="211.7" transform="matrix(6.123234e-17 -1 1 6.123234e-17 357.5764 797.9742)" fill="#F1F2F2" stroke="#848484" stroke-miterlimit="10" width="23.4" height="17"/>
		
			<rect x="563.8" y="219.7" transform="matrix(-1.855681e-13 -1 1 -1.855681e-13 348.4329 789.0134)" fill="#F1F2F2" stroke="#848484" stroke-miterlimit="10" width="9.8" height="1.1"/>
	</g>
</g>
<g>
	<path fill-rule="evenodd" clip-rule="evenodd" fill="#F1F2F2" stroke="#848484" stroke-miterlimit="10" d="M444.1,224v-12.7h10.5
		V224H444.1L444.1,224z M444.1,164.1h15.7v47.2h-15.7V164.1z"/>
	<path fill-rule="evenodd" clip-rule="evenodd" fill="#F1F2F2" stroke="#848484" stroke-miterlimit="10" d="M449.7,183
		c-2.7,0-3,2.5-3,5.6c0,3,0.3,5.5,3,5.5s5-2.5,5-5.5C454.6,185.5,452.4,183,449.7,183z"/>
	
		<rect x="450.2" y="170.1" fill-rule="evenodd" clip-rule="evenodd" fill="#F1F2F2" stroke="#848484" stroke-miterlimit="10" width="2.1" height="37.1"/>
	
		<rect x="450.2" y="170.1" fill-rule="evenodd" clip-rule="evenodd" fill="#F1F2F2" stroke="#848484" stroke-miterlimit="10" width="2.1" height="37.1"/>
	<polygon fill-rule="evenodd" clip-rule="evenodd" fill="#F1F2F2" stroke="#848484" stroke-miterlimit="10" points="450.3,173.2 
		448.6,179.2 448.6,198 450.3,204 	"/>
	<polygon fill-rule="evenodd" clip-rule="evenodd" fill="#F1F2F2" stroke="#848484" stroke-miterlimit="10" points="450.3,173.2 
		448.6,179.2 448.6,198 450.3,204 	"/>
	<path fill-rule="evenodd" clip-rule="evenodd" fill="#F1F2F2" stroke="#848484" stroke-miterlimit="10" d="M455.7,222.9v-10.5h1
		v10.5H455.7L455.7,222.9z M444.1,164.1v-12.7h10.5v12.7H444.1L444.1,164.1z M455.7,152.5h1V163h-1V152.5z"/>
</g>
<g>
	<path fill="#F1F2F2" stroke="#848484" stroke-miterlimit="10" d="M231.7,343.3c-0.2-2.3-0.3-8.9,3-13.5c2.9-4.2,8.1-7.4,10.5-8.3
		h47.8v21.9h-47.8C240.7,343.3,236.2,343.3,231.7,343.3z M245.2,321.4v21.9"/>
	
		<rect x="285.3" y="340.9" transform="matrix(2.003547e-12 1 -1 2.003547e-12 628.5759 55.2392)" fill="#F1F2F2" stroke="#848484" stroke-miterlimit="10" width="2.7" height="1.9"/>
	
		<rect x="273.5" y="340.9" transform="matrix(1.001682e-12 1 -1 1.001682e-12 616.7627 67.0524)" fill="#F1F2F2" stroke="#848484" stroke-miterlimit="10" width="2.7" height="1.9"/>
	
		<rect x="261.8" y="340.9" transform="matrix(2.338390e-12 1 -1 2.338390e-12 605.0703 78.7447)" fill="#F1F2F2" stroke="#848484" stroke-miterlimit="10" width="2.7" height="1.9"/>
	
		<rect x="250" y="340.9" transform="matrix(2.003547e-12 1 -1 2.003547e-12 593.2571 90.5579)" fill="#F1F2F2" stroke="#848484" stroke-miterlimit="10" width="2.7" height="1.9"/>
	
		<rect x="286.4" y="340.7" transform="matrix(-1.836970e-16 1 -1 -1.836970e-16 629.7216 56.3849)" fill="#F1F2F2" stroke="#848484" stroke-miterlimit="10" width="0.5" height="4.7"/>
	
		<rect x="274.7" y="340.7" transform="matrix(6.011008e-12 1 -1 6.011008e-12 617.9567 68.1498)" fill="#F1F2F2" stroke="#848484" stroke-miterlimit="10" width="0.5" height="4.7"/>
	
		<rect x="262.9" y="340.7" transform="matrix(4.007277e-12 1 -1 4.007277e-12 606.216 79.8905)" fill="#F1F2F2" stroke="#848484" stroke-miterlimit="10" width="0.5" height="4.7"/>
	
		<rect x="251.1" y="340.7" transform="matrix(4.007277e-12 1 -1 4.007277e-12 594.4029 91.7036)" fill="#F1F2F2" stroke="#848484" stroke-miterlimit="10" width="0.5" height="4.7"/>
</g>
<g>
	<path fill-rule="evenodd" clip-rule="evenodd" fill="#F1F2F2" stroke="#848484" stroke-miterlimit="10" d="M235.7,23.9h32.8h26.4
		c1.8,0,3.2,1.4,3.2,3.2v26.4v79.9c0,1.8-1.4,3.2-3.2,3.2h-26.4c-1.8,0-3.2-1.4-3.2-3.2V59.9c0-1.8-1.4-3.2-3.2-3.2h-26.4
		c-1.8,0-3.2-1.4-3.2-3.2V27.1C232.5,25.3,233.9,23.9,235.7,23.9z"/>
	<g>
		<path fill-rule="evenodd" clip-rule="evenodd" fill="#F1F2F2" stroke="#848484" stroke-miterlimit="10" d="M270.6,56.7
			c-3.7,0-5.3-0.2-5.3-4.9V37.7c0-4.7,1.6-4.9,5.3-4.9h14c3.7,0,5.3,0.2,5.3,4.9v14.1c0,4.7-1.6,4.9-5.3,4.9H270.6z"/>
		<path fill-rule="evenodd" clip-rule="evenodd" fill="#F1F2F2" stroke="#848484" stroke-miterlimit="10" d="M270.6,56.7
			c-3.7,0-5.3-0.2-5.3-4.9V37.7c0-4.7,1.6-4.9,5.3-4.9h14c3.7,0,5.3,0.2,5.3,4.9v14.1c0,4.7-1.6,4.9-5.3,4.9H270.6z"/>
		<path fill-rule="evenodd" clip-rule="evenodd" fill="#F1F2F2" stroke="#848484" stroke-miterlimit="10" d="M270.6,80.4
			c-3.7,0-5.3-0.2-5.3-4.9V61.4c0-4.7,1.6-4.9,5.3-4.9h14c3.7,0,5.3,0.2,5.3,4.9v14.1c0,4.7-1.6,4.9-5.3,4.9H270.6z"/>
		<path fill-rule="evenodd" clip-rule="evenodd" fill="#F1F2F2" stroke="#848484" stroke-miterlimit="10" d="M270.6,80.4
			c-3.7,0-5.3-0.2-5.3-4.9V61.4c0-4.7,1.6-4.9,5.3-4.9h14c3.7,0,5.3,0.2,5.3,4.9v14.1c0,4.7-1.6,4.9-5.3,4.9H270.6z"/>
		<path fill-rule="evenodd" clip-rule="evenodd" fill="#F1F2F2" stroke="#848484" stroke-miterlimit="10" d="M270.6,104.1
			c-3.7,0-5.3-0.2-5.3-4.9V85.1c0-4.7,1.6-4.9,5.3-4.9h14c3.7,0,5.3,0.2,5.3,4.9v14.1c0,4.7-1.6,4.9-5.3,4.9H270.6z"/>
		<path fill-rule="evenodd" clip-rule="evenodd" fill="#F1F2F2" stroke="#848484" stroke-miterlimit="10" d="M270.6,104.1
			c-3.7,0-5.3-0.2-5.3-4.9V85.1c0-4.7,1.6-4.9,5.3-4.9h14c3.7,0,5.3,0.2,5.3,4.9v14.1c0,4.7-1.6,4.9-5.3,4.9H270.6z"/>
		<path fill-rule="evenodd" clip-rule="evenodd" fill="#F1F2F2" stroke="#848484" stroke-miterlimit="10" d="M246,56.7
			c-3.7,0-5.3-0.2-5.3-4.9V37.7c0-4.7,1.6-4.9,5.3-4.9h14c3.7,0,5.3,0.2,5.3,4.9v14.1c0,4.7-1.6,4.9-5.3,4.9H246z"/>
		<path fill-rule="evenodd" clip-rule="evenodd" fill="#F1F2F2" stroke="#848484" stroke-miterlimit="10" d="M270.6,127.8
			c-3.7,0-5.3-0.2-5.3-4.9v-14.1c0-4.7,1.6-4.9,5.3-4.9h14c3.7,0,5.3,0.2,5.3,4.9v14.1c0,4.7-1.6,4.9-5.3,4.9H270.6z"/>
		<path fill-rule="evenodd" clip-rule="evenodd" fill="#F1F2F2" stroke="#848484" stroke-miterlimit="10" d="M294.7,23.9h-57.3h-1.4
			c-1.9,0-3.4,1.6-3.4,3.6V29v24c0,2,1.5,3.6,3.4,3.6h1.4c1.9,0,3.4-1.6,3.4-3.6V32.7h49.2v95.1h-21.2c-1.9,0-3.4,1.6-3.4,3.6v1.5
			c0,2,1.5,3.6,3.4,3.6h24.6h1.4c1.9,0,3.4-1.6,3.4-3.6v-1.5V29v-1.5v0C298,25.5,296.5,23.9,294.7,23.9z"/>
	</g>
</g>
<g>
	<g>
		
			<rect x="171.9" y="34.6" fill-rule="evenodd" clip-rule="evenodd" fill="#F1F2F2" stroke="#848484" stroke-miterlimit="10" width="2.7" height="53.5"/>
		<polygon fill-rule="evenodd" clip-rule="evenodd" fill="#F1F2F2" stroke="#848484" stroke-miterlimit="10" points="171.9,39.2 
			169.8,47.8 169.8,75 171.9,83.6 		"/>
		
			<rect x="167.5" y="56.8" transform="matrix(-1 -5.109658e-11 5.109658e-11 -1 337.2839 122.7325)" fill-rule="evenodd" clip-rule="evenodd" fill="#F1F2F2" stroke="#848484" stroke-miterlimit="10" width="2.3" height="9.1"/>
	</g>
</g>
<g>
</g>
<g>
</g>
<g>
</g>
<g>
</g>
<g>
</g>
<g>
</g>
</svg>
