<?xml version="1.0" encoding="utf-8"?>
<!-- Generator: Adobe Illustrator 23.0.2, SVG Export Plug-In . SVG Version: 6.00 Build 0)  -->
<svg version="1.1" id="Слой_1" xmlns="http://www.w3.org/2000/svg" xmlns:xlink="http://www.w3.org/1999/xlink" x="0px" y="0px"
	 viewBox="0 0 381 800" enable-background="new 0 0 381 800" xml:space="preserve">
<polygon fill="#F3F3F3" stroke="#838383" points="204.1,286.2 204.1,339 293.2,339 293.2,400.3 348.7,400.3 348.7,286.2 "/>
<g>
	
		<rect x="343.7" y="410" fill-rule="evenodd" clip-rule="evenodd" fill="#F1F2F2" stroke="#848484" stroke-miterlimit="10" width="3.5" height="48.9"/>
	
		<rect x="343.7" y="410" fill-rule="evenodd" clip-rule="evenodd" fill="#F1F2F2" stroke="#848484" stroke-miterlimit="10" width="3.5" height="48.9"/>
	
		<rect x="287.7" y="443.3" fill-rule="evenodd" clip-rule="evenodd" fill="#F1F2F2" stroke="#848484" stroke-miterlimit="10" width="4.7" height="16.1"/>
	
		<rect x="287.7" y="443.3" fill-rule="evenodd" clip-rule="evenodd" fill="#F1F2F2" stroke="#848484" stroke-miterlimit="10" width="4.7" height="16.1"/>
	
		<rect x="290.5" y="407.8" fill-rule="evenodd" clip-rule="evenodd" fill="#F1F2F2" stroke="#848484" stroke-miterlimit="10" width="53.6" height="53.7"/>
	
		<rect x="290.5" y="407.8" fill-rule="evenodd" clip-rule="evenodd" fill="#F1F2F2" stroke="#848484" stroke-miterlimit="10" width="53.6" height="53.7"/>
	<path fill-rule="evenodd" clip-rule="evenodd" fill="#F1F2F2" stroke="#848484" stroke-miterlimit="10" d="M295.3,407.8l0,53.7
		L295.3,407.8z"/>
	<path fill-rule="evenodd" clip-rule="evenodd" fill="#F1F2F2" stroke="#848484" stroke-miterlimit="10" d="M295.5,405.2
		c1,0,2.1,0.9,2.1,2.1c0,1.3-1,2.1-2.1,2.1c-1.3,0-2.3-0.9-2.3-2.1C293.2,406.2,294.2,405.2,295.5,405.2z"/>
	<path fill-rule="evenodd" clip-rule="evenodd" fill="#F1F2F2" stroke="#848484" stroke-miterlimit="10" d="M295.5,405.2
		c1,0,2.1,0.9,2.1,2.1c0,1.3-1,2.1-2.1,2.1c-1.3,0-2.3-0.9-2.3-2.1C293.2,406.2,294.2,405.2,295.5,405.2z"/>
	<path fill-rule="evenodd" clip-rule="evenodd" fill="#F1F2F2" stroke="#848484" stroke-miterlimit="10" d="M322.9,434.9h-9.4H322.9
		z"/>
	<path fill-rule="evenodd" clip-rule="evenodd" fill="#F1F2F2" stroke="#848484" stroke-miterlimit="10" d="M318.3,430.3l0,9.4
		L318.3,430.3z"/>
	<path fill-rule="evenodd" clip-rule="evenodd" fill="#F1F2F2" stroke="#848484" stroke-miterlimit="10" d="M314.8,431.6l6.9,6.9
		L314.8,431.6z"/>
	<path fill-rule="evenodd" clip-rule="evenodd" fill="#F1F2F2" stroke="#848484" stroke-miterlimit="10" d="M314.8,438.4l6.9-6.9
		L314.8,438.4z"/>
	<path fill-rule="evenodd" clip-rule="evenodd" fill="#F1F2F2" stroke="#848484" stroke-miterlimit="10" d="M323.2,421h-9.4H323.2z"
		/>
	<path fill-rule="evenodd" clip-rule="evenodd" fill="#F1F2F2" stroke="#848484" stroke-miterlimit="10" d="M318.6,416.3v9.4V416.3z
		"/>
	<path fill-rule="evenodd" clip-rule="evenodd" fill="#F1F2F2" stroke="#848484" stroke-miterlimit="10" d="M315.1,417.7l6.9,6.9
		L315.1,417.7z"/>
	<path fill-rule="evenodd" clip-rule="evenodd" fill="#F1F2F2" stroke="#848484" stroke-miterlimit="10" d="M315.1,424.5l6.9-6.9
		L315.1,424.5z"/>
	<path fill-rule="evenodd" clip-rule="evenodd" fill="#F1F2F2" stroke="#848484" stroke-miterlimit="10" d="M322.9,448.5h-9.4H322.9
		z"/>
	<path fill-rule="evenodd" clip-rule="evenodd" fill="#F1F2F2" stroke="#848484" stroke-miterlimit="10" d="M318.3,443.9v9.4V443.9z
		"/>
	<path fill-rule="evenodd" clip-rule="evenodd" fill="#F1F2F2" stroke="#848484" stroke-miterlimit="10" d="M314.8,445.2l6.9,6.9
		L314.8,445.2z"/>
	<path fill-rule="evenodd" clip-rule="evenodd" fill="#F1F2F2" stroke="#848484" stroke-miterlimit="10" d="M314.8,451.9l6.9-6.9
		L314.8,451.9z"/>
</g>
<g>
	<path fill-rule="evenodd" clip-rule="evenodd" fill="#F1F2F2" stroke="#848484" stroke-miterlimit="10" d="M141.6,760.2H84.3H38
		c-3.1,0-5.6-2.5-5.6-5.6v-46.3v-140c0-3.1,2.5-5.6,5.6-5.6h46.2c3.1,0,5.6,2.5,5.6,5.6v128.8c0,3.1,2.5,5.6,5.6,5.6h46.2
		c3.1,0,5.6,2.5,5.6,5.6v46.3C147.2,757.7,144.7,760.2,141.6,760.2z"/>
	<g>
		<path fill-rule="evenodd" clip-rule="evenodd" fill="#F1F2F2" stroke="#848484" stroke-miterlimit="10" d="M80.6,702.7
			c6.5,0,9.3,0.3,9.3,8.6V736c0,8.3-2.8,8.6-9.3,8.6H56.1c-6.5,0-9.3-0.3-9.3-8.6v-24.6c0-8.3,2.8-8.6,9.3-8.6H80.6z"/>
		<path fill-rule="evenodd" clip-rule="evenodd" fill="#F1F2F2" stroke="#848484" stroke-miterlimit="10" d="M80.6,702.7
			c6.5,0,9.3,0.3,9.3,8.6V736c0,8.3-2.8,8.6-9.3,8.6H56.1c-6.5,0-9.3-0.3-9.3-8.6v-24.6c0-8.3,2.8-8.6,9.3-8.6H80.6z"/>
		<path fill-rule="evenodd" clip-rule="evenodd" fill="#F1F2F2" stroke="#848484" stroke-miterlimit="10" d="M80.6,661.1
			c6.5,0,9.3,0.3,9.3,8.6v24.6c0,8.3-2.8,8.6-9.3,8.6H56.1c-6.5,0-9.3-0.3-9.3-8.6v-24.6c0-8.3,2.8-8.6,9.3-8.6H80.6z"/>
		<path fill-rule="evenodd" clip-rule="evenodd" fill="#F1F2F2" stroke="#848484" stroke-miterlimit="10" d="M80.6,661.1
			c6.5,0,9.3,0.3,9.3,8.6v24.6c0,8.3-2.8,8.6-9.3,8.6H56.1c-6.5,0-9.3-0.3-9.3-8.6v-24.6c0-8.3,2.8-8.6,9.3-8.6H80.6z"/>
		<path fill-rule="evenodd" clip-rule="evenodd" fill="#F1F2F2" stroke="#848484" stroke-miterlimit="10" d="M80.6,619.7
			c6.5,0,9.3,0.3,9.3,8.5v24.7c0,8.3-2.8,8.5-9.3,8.5H56.1c-6.5,0-9.3-0.3-9.3-8.5v-24.7c0-8.3,2.8-8.5,9.3-8.5H80.6z"/>
		<path fill-rule="evenodd" clip-rule="evenodd" fill="#F1F2F2" stroke="#848484" stroke-miterlimit="10" d="M80.6,619.7
			c6.5,0,9.3,0.3,9.3,8.5v24.7c0,8.3-2.8,8.5-9.3,8.5H56.1c-6.5,0-9.3-0.3-9.3-8.5v-24.7c0-8.3,2.8-8.5,9.3-8.5H80.6z"/>
		<path fill-rule="evenodd" clip-rule="evenodd" fill="#F1F2F2" stroke="#848484" stroke-miterlimit="10" d="M123.6,702.7
			c6.5,0,9.3,0.3,9.3,8.6V736c0,8.3-2.8,8.6-9.3,8.6H99.1c-6.5,0-9.3-0.3-9.3-8.6v-24.6c0-8.3,2.8-8.6,9.3-8.6H123.6z"/>
		<path fill-rule="evenodd" clip-rule="evenodd" fill="#F1F2F2" stroke="#848484" stroke-miterlimit="10" d="M80.5,578.2
			c6.5,0,9.3,0.3,9.3,8.5v24.7c0,8.3-2.8,8.5-9.3,8.5H55.9c-6.5,0-9.3-0.3-9.3-8.5v-24.7c0-8.3,2.8-8.5,9.3-8.5H80.5z"/>
		<path fill-rule="evenodd" clip-rule="evenodd" fill="#F1F2F2" stroke="#848484" stroke-miterlimit="10" d="M38.4,760.2h100.4h2.5
			c3.3,0,5.9-2.9,5.9-6.4v-2.6v-42c0-3.5-2.7-6.4-5.9-6.4h-2.5c-3.3,0-5.9,2.9-5.9,6.4v35.7H46.8V578.2h37.1c3.3,0,5.9-2.9,5.9-6.4
			v-2.6c0-3.5-2.7-6.4-5.9-6.4H40.9h-2.5c-3.3,0-5.9,2.9-5.9,6.4v2.6v179.4v2.6v0C32.5,757.3,35.1,760.2,38.4,760.2z"/>
	</g>
</g>
<g>
	<path fill-rule="evenodd" clip-rule="evenodd" fill="#F1F2F2" stroke="#848484" stroke-miterlimit="10" d="M347.2,535.7V560h-20.1
		v-24.2H347.2L347.2,535.7z M347.2,650.3h-30.1V560h30.1V650.3z"/>
	<path fill-rule="evenodd" clip-rule="evenodd" fill="#F1F2F2" stroke="#848484" stroke-miterlimit="10" d="M336.5,614.1
		c5.2,0,5.7-4.7,5.7-10.6c0-5.8-0.5-10.6-5.7-10.6s-9.5,4.7-9.5,10.6C327,609.4,331.2,614.1,336.5,614.1z"/>
	
		<rect x="331.5" y="568" fill-rule="evenodd" clip-rule="evenodd" fill="#F1F2F2" stroke="#848484" stroke-miterlimit="10" width="4" height="70.9"/>
	
		<rect x="331.5" y="568" fill-rule="evenodd" clip-rule="evenodd" fill="#F1F2F2" stroke="#848484" stroke-miterlimit="10" width="4" height="70.9"/>
	<polygon fill-rule="evenodd" clip-rule="evenodd" fill="#F1F2F2" stroke="#848484" stroke-miterlimit="10" points="335.3,632.9 
		338.6,621.5 338.6,585.5 335.3,574.1 	"/>
	<polygon fill-rule="evenodd" clip-rule="evenodd" fill="#F1F2F2" stroke="#848484" stroke-miterlimit="10" points="335.3,632.9 
		338.6,621.5 338.6,585.5 335.3,574.1 	"/>
	<path fill-rule="evenodd" clip-rule="evenodd" fill="#F1F2F2" stroke="#848484" stroke-miterlimit="10" d="M324.9,537.8v20h-2v-20
		H324.9L324.9,537.8z M347.2,650.3v24.2H327v-24.2H347.2L347.2,650.3z M324.9,672.5h-2v-20h2V672.5z"/>
</g>
<g>
	<g>
		<path fill="#F1F2F2" stroke="#848484" stroke-miterlimit="10" d="M183.2,431.4c8.1,0,14.7-2.4,14.7-5.4c0-3-6.6-5.4-14.7-5.4
			s-14.7,2.4-14.7,5.4C168.5,428.9,175.1,431.4,183.2,431.4z"/>
		<path fill="#F1F2F2" stroke="#848484" stroke-miterlimit="10" d="M183.2,455.9c8.1,0,14.7-6.6,14.7-14.7s-6.6-14.7-14.7-14.7
			s-14.7,6.6-14.7,14.7S175.1,455.9,183.2,455.9z"/>
	</g>
	<g>
		<path fill="#F1F2F2" stroke="#848484" stroke-miterlimit="10" d="M183.2,505.4c-8.1,0-14.7,2.4-14.7,5.4c0,3,6.6,5.4,14.7,5.4
			c8.1,0,14.7-2.4,14.7-5.4C197.9,507.8,191.3,505.4,183.2,505.4z"/>
		<path fill="#F1F2F2" stroke="#848484" stroke-miterlimit="10" d="M183.2,480.8c-8.1,0-14.7,6.6-14.7,14.7
			c0,8.1,6.6,14.7,14.7,14.7c8.1,0,14.7-6.6,14.7-14.7C197.9,487.4,191.3,480.8,183.2,480.8z"/>
	</g>
	<g>
		<path fill="#F1F2F2" stroke="#848484" stroke-miterlimit="10" d="M148.5,467.8c0-8.1-2.4-14.7-5.4-14.7c-3,0-5.4,6.6-5.4,14.7
			c0,8.1,2.4,14.7,5.4,14.7C146.1,482.5,148.5,475.9,148.5,467.8z"/>
		<path fill="#F1F2F2" stroke="#848484" stroke-miterlimit="10" d="M173,467.8c0-8.1-6.6-14.7-14.7-14.7c-8.1,0-14.7,6.6-14.7,14.7
			c0,8.1,6.6,14.7,14.7,14.7C166.5,482.5,173,475.9,173,467.8z"/>
	</g>
	<g>
		<path fill="#F1F2F2" stroke="#848484" stroke-miterlimit="10" d="M217.9,467.8c0,8.1,2.4,14.7,5.4,14.7c3,0,5.4-6.6,5.4-14.7
			c0-8.1-2.4-14.7-5.4-14.7C220.4,453.1,217.9,459.7,217.9,467.8z"/>
		<path fill="#F1F2F2" stroke="#848484" stroke-miterlimit="10" d="M193.4,467.8c0,8.1,6.6,14.7,14.7,14.7s14.7-6.6,14.7-14.7
			c0-8.1-6.6-14.7-14.7-14.7S193.4,459.7,193.4,467.8z"/>
	</g>
	
		<rect x="153.6" y="438.2" transform="matrix(6.123234e-17 -1 1 6.123234e-17 -284.577 651.0032)" fill="#F1F2F2" stroke="#848484" stroke-miterlimit="10" width="59.2" height="59.2"/>
</g>
<g id="moyka_2_8_">
	<path fill="#F3F3F3" stroke="#838383" d="M295.1,295c0-1.6,1.3-2.9,2.9-2.9H340c1.6,0,2.9,1.3,2.9,2.9v34.7c0,1.6-1.3,2.9-2.9,2.9
		H298c-1.6,0-2.9-1.3-2.9-2.9V295z"/>
	<path fill="#F3F3F3" stroke="#838383" d="M298,302.3c0-1.6,1.3-2.9,2.9-2.9h36.2c1.6,0,2.9,1.3,2.9,2.9v24.6c0,1.6-1.3,2.9-2.9,2.9
		h-36.2c-1.6,0-2.9-1.3-2.9-2.9V302.3z"/>
	<rect x="316.8" y="296.5" fill="#F3F3F3" stroke="#838383" width="2.9" height="11.6"/>
	<circle fill="#F3F3F3" stroke="#838383" cx="319" cy="316" r="2.2"/>
</g>
<g id="plita_8_">
	<rect x="211.5" y="287.2" fill="#F3F3F3" stroke="#838383" width="50.6" height="52.1"/>
	<circle fill="#F3F3F3" stroke="#838383" cx="247.7" cy="326.2" r="8.7"/>
	<circle fill="#F3F3F3" stroke="#838383" cx="226" cy="304.5" r="8.7"/>
	<circle fill="#F3F3F3" stroke="#838383" cx="226" cy="326.2" r="7.2"/>
	<circle fill="#F3F3F3" stroke="#838383" cx="247.7" cy="304.5" r="7.2"/>
</g>
<g id="unitaz_10_">
	<path fill="#F3F3F3" stroke="#838383" d="M346.9,253.7h-10.1c-1.6,0-2.9-1.3-2.9-2.9v-26c0-1.6,1.3-2.9,2.9-2.9h10.1V253.7z"/>
	<path fill="#F3F3F3" stroke="#838383" d="M333.9,250.8c0,1.6-1.3,2.9-2.9,2.9v-31.8c1.6,0,2.9,1.3,2.9,2.9V250.8z"/>
	<path fill="#F3F3F3" stroke="#838383" d="M331,221.8v31.8c0,0-37.6,6.5-37.6-15.9C293.4,215.3,331,221.8,331,221.8z"/>
	<circle fill="#F3F3F3" stroke="#838383" cx="341.2" cy="237.7" r="2.9"/>
</g>
<g id="moyka_10_">
	<path fill="#F3F3F3" stroke="#838383" d="M347.4,144.9c0,0.9-0.7,1.6-1.6,1.6h-31.6c-0.9,0-1.6-0.7-1.6-1.6V97.6
		c0-0.9,0.7-1.6,1.6-1.6h31.6c0.9,0,1.6,0.7,1.6,1.6V144.9z"/>
	<rect x="339.5" y="96" fill="#F3F3F3" stroke="#838383" width="3.2" height="50.5"/>
	<ellipse fill="#F3F3F3" stroke="#838383" cx="326.1" cy="120.5" rx="10.3" ry="16.6"/>
	<rect x="330.1" y="119.7" fill="#F3F3F3" stroke="#838383" width="12.6" height="3.2"/>
	<circle fill="#F3F3F3" stroke="#838383" cx="324.6" cy="122" r="2.4"/>
</g>
<g id="vanna_8_">
	<rect x="210.3" y="29.8" fill="#F3F3F3" stroke="#838383" width="137.7" height="55"/>
	<path fill="#F3F3F3" stroke="#838383" d="M218.8,48.6c0-8,6.4-14.5,14.2-14.5h95.1v46.3H233c-7.8,0-14.2-6.5-14.2-14.5V48.6z"/>
	<path fill="#F3F3F3" stroke="#838383" d="M330.2,58.8v11.6h5V50.8"/>
	<path id="Union_8_" fill="#F3F3F3" stroke="#838383" d="M336.6,48.4c1.7-0.6,2.8-2.2,2.8-4.1c0-2.4-1.9-4.3-4.3-4.3
		c-2.4,0-4.3,1.9-4.3,4.3c0,1.9,1.2,3.5,2.8,4.1v1.7c0,0.8,0.6,1.4,1.4,1.4c0.8,0,1.4-0.6,1.4-1.4V48.4z"/>
	<rect x="321" y="55.9" fill="#F3F3F3" stroke="#838383" width="11.4" height="2.9"/>
</g>
<rect x="86.9" y="773.4" fill="#FFFFFF" stroke="#000000" stroke-miterlimit="10" width="206.6" height="9.6"/>
<rect x="86.9" y="773.4" fill="#FFFFFF" stroke="#000000" stroke-miterlimit="10" width="10" height="9.6"/>
<rect x="154.4" y="773.4" fill="#FFFFFF" stroke="#000000" stroke-miterlimit="10" width="6.6" height="9.6"/>
<rect x="222.2" y="773.4" fill="#FFFFFF" stroke="#000000" stroke-miterlimit="10" width="4" height="9.6"/>
<rect x="286.6" y="773.4" fill="#FFFFFF" stroke="#000000" stroke-miterlimit="10" width="6.2" height="9.6"/>
<rect x="86.9" y="761.5" fill="#FFFFFF" stroke="#000000" stroke-miterlimit="10" width="206.6" height="11.9"/>
<rect x="94.2" y="783.1" fill="#FFFFFF" stroke="#000000" stroke-miterlimit="10" width="195.4" height="11.9"/>
<line fill="#FFFFFF" stroke="#000000" stroke-miterlimit="10" x1="203.7" y1="201.4" x2="169.8" y2="259.6"/>
<line fill="#FFFFFF" stroke="#000000" stroke-miterlimit="10" x1="169.8" y1="153" x2="101.2" y2="111"/>
<rect x="8.1" y="783.1" fill="#838383" stroke="#000000" stroke-miterlimit="10" width="86.2" height="11.9"/>
<rect x="8.1" y="761.5" fill="#838383" stroke="#000000" stroke-miterlimit="10" width="78.8" height="21.6"/>
<rect x="289.7" y="783.1" fill="#838383" stroke="#000000" stroke-miterlimit="10" width="79.4" height="11.9"/>
<rect x="293.5" y="761.5" fill="#838383" stroke="#000000" stroke-miterlimit="10" width="56.7" height="21.6"/>
<rect x="350.2" y="5" fill="#838383" stroke="#000000" stroke-miterlimit="10" width="18.9" height="778.1"/>
<rect x="8.1" y="407.4" fill="#838383" stroke="#000000" stroke-miterlimit="10" width="23.7" height="354"/>
<rect x="13.7" y="153" fill="#838383" stroke="#000000" stroke-miterlimit="10" width="18.1" height="254.4"/>
<rect x="31.8" y="153" fill="#838383" stroke="#000000" stroke-miterlimit="10" width="55.5" height="23.7"/>
<rect x="169.8" y="153" fill="#838383" stroke="#000000" stroke-miterlimit="10" width="33.9" height="23.7"/>
<rect x="184.8" y="5" fill="#838383" stroke="#000000" stroke-miterlimit="10" width="165.4" height="15.6"/>
<rect x="184.8" y="20.6" fill="#838383" stroke="#000000" stroke-miterlimit="10" width="18.9" height="132.4"/>
<rect x="203.7" y="20.6" fill="#C6C6C6" stroke="#000000" stroke-miterlimit="10" width="7.5" height="180.8"/>
<rect x="203.7" y="275" fill="#C6C6C6" stroke="#000000" stroke-miterlimit="10" width="146.5" height="9.8"/>
<rect x="203.7" y="268.1" fill="#C6C6C6" stroke="#000000" stroke-miterlimit="10" width="7.5" height="6.9"/>
<rect x="301.5" y="194.8" fill="#C6C6C6" stroke="#000000" stroke-miterlimit="10" width="48.7" height="7.5"/>
<rect x="301.5" y="153" fill="#C6C6C6" stroke="#000000" stroke-miterlimit="10" width="7.5" height="41.8"/>
<rect x="309.1" y="153" fill="#C6C6C6" stroke="#000000" stroke-miterlimit="10" width="17" height="7.5"/>
<rect x="326" y="153" fill="#C6C6C6" stroke="#000000" stroke-miterlimit="10" width="24.2" height="2.9"/>
<rect x="211.2" y="20.6" fill="#C6C6C6" stroke="#000000" stroke-miterlimit="10" width="138.9" height="7.5"/>
<g>
	<path d="M250.5,231.5h-3.4v4.4h-2.5v-4.4h-10v-1.8l9.2-11.8h2.8l-8.8,11.4h6.9v-3.9h2.4v3.9h3.4V231.5z"/>
	<path d="M255.5,233.1c0.3,0.3,0.5,0.8,0.5,1.2c0,0.3,0,0.5-0.1,0.7c-0.1,0.2-0.2,0.6-0.3,1.1l-1.2,3.6h-1.6l1-3.8
		c-0.3-0.1-0.6-0.3-0.8-0.6s-0.3-0.6-0.3-1c0-0.5,0.2-0.9,0.5-1.3c0.3-0.3,0.7-0.5,1.2-0.5C254.8,232.6,255.2,232.8,255.5,233.1z"/>
	<path d="M271.2,218v1.8L264,236h-2.7l7.1-15.8h-8.2v3.2h-2.5V218H271.2z"/>
</g>
<g>
	<path d="M258.3,725.8v2.2h-12.9v-1.8l7.3-7.1c0.9-0.9,1.5-1.6,1.8-2.2c0.3-0.6,0.5-1.3,0.5-1.9c0-0.9-0.3-1.7-1-2.2
		c-0.7-0.5-1.6-0.8-2.8-0.8c-2,0-3.5,0.7-4.6,2l-1.8-1.5c0.7-0.9,1.6-1.5,2.8-2c1.1-0.5,2.4-0.7,3.8-0.7c1.9,0,3.4,0.5,4.5,1.4
		c1.1,0.9,1.7,2.1,1.7,3.7c0,1-0.2,1.9-0.6,2.7c-0.4,0.9-1.2,1.8-2.3,2.9l-5.5,5.3H258.3z"/>
	<path d="M271.2,718.6c1.2,1,1.8,2.3,1.8,4c0,1.1-0.3,2-0.8,2.9c-0.5,0.8-1.3,1.5-2.3,2c-1,0.5-2.3,0.7-3.8,0.7
		c-1.3,0-2.5-0.2-3.7-0.6c-1.2-0.4-2.2-0.9-2.9-1.6l1.2-2c0.6,0.6,1.4,1.1,2.4,1.4c1,0.4,2,0.5,3,0.5c1.4,0,2.4-0.3,3.2-0.9
		c0.7-0.6,1.1-1.4,1.1-2.4c0-1.1-0.4-1.9-1.2-2.5c-0.8-0.6-2.2-0.8-4.2-0.8h-4.1l1-9.4H272v2.2h-8l-0.5,4.9h2
		C268.1,717.2,270,717.7,271.2,718.6z"/>
	<path d="M278.1,725.1c0.3,0.3,0.5,0.8,0.5,1.2c0,0.3,0,0.5-0.1,0.7c-0.1,0.2-0.2,0.6-0.3,1.1l-1.2,3.6h-1.6l1-3.8
		c-0.3-0.1-0.6-0.3-0.8-0.6c-0.2-0.3-0.3-0.6-0.3-1c0-0.5,0.2-0.9,0.5-1.3s0.7-0.5,1.2-0.5C277.4,724.6,277.8,724.8,278.1,725.1z"/>
	<path d="M294,725.8v2.2H281v-1.8l7.3-7.1c0.9-0.9,1.5-1.6,1.8-2.2c0.3-0.6,0.5-1.3,0.5-1.9c0-0.9-0.3-1.7-1-2.2
		c-0.7-0.5-1.6-0.8-2.8-0.8c-2,0-3.5,0.7-4.6,2l-1.8-1.5c0.7-0.9,1.6-1.5,2.8-2c1.1-0.5,2.4-0.7,3.8-0.7c1.9,0,3.4,0.5,4.5,1.4
		c1.1,0.9,1.7,2.1,1.7,3.7c0,1-0.2,1.9-0.6,2.7c-0.4,0.9-1.2,1.8-2.3,2.9l-5.5,5.3H294z"/>
</g>
<g>
</g>
<g>
</g>
<g>
</g>
<g>
</g>
<g>
</g>
<g>
</g>
</svg>
