<?xml version="1.0" encoding="utf-8"?>
<!-- Generator: Adobe Illustrator 23.0.2, SVG Export Plug-In . SVG Version: 6.00 Build 0)  -->
<svg version="1.1" id="Слой_1" xmlns="http://www.w3.org/2000/svg" xmlns:xlink="http://www.w3.org/1999/xlink" x="0px" y="0px"
	 viewBox="0 0 570.9 800" enable-background="new 0 0 570.9 800" xml:space="preserve">
<polygon fill="#F3F3F3" stroke="#838383" points="82.8,20.8 82.8,65.7 268.8,65.7 268.8,152 315.3,152 315.3,20.8 "/>
<g id="moyka_2_7_">
	<path fill="#F3F3F3" stroke="#838383" d="M307.9,81.4c1.3,0,2.4,1.1,2.4,2.4v35.3c0,1.3-1.1,2.4-2.4,2.4h-29.2
		c-1.3,0-2.4-1.1-2.4-2.4V83.9c0-1.3,1.1-2.4,2.4-2.4H307.9z"/>
	<path fill="#F3F3F3" stroke="#838383" d="M301.9,83.9c1.3,0,2.4,1.1,2.4,2.4v30.4c0,1.3-1.1,2.4-2.4,2.4h-20.7
		c-1.3,0-2.4-1.1-2.4-2.4V86.3c0-1.3,1.1-2.4,2.4-2.4H301.9z"/>
	<rect x="297" y="99.7" fill="#F3F3F3" stroke="#838383" width="9.7" height="2.4"/>
	<circle fill="#F3F3F3" stroke="#838383" cx="290.3" cy="101.5" r="1.8"/>
</g>
<g id="plita_7_">
	<rect x="207" y="22" fill="#F3F3F3" stroke="#838383" width="42.6" height="43.8"/>
	<circle fill="#F3F3F3" stroke="#838383" cx="237.4" cy="54.8" r="7.3"/>
	<circle fill="#F3F3F3" stroke="#838383" cx="219.1" cy="36.6" r="7.3"/>
	<circle fill="#F3F3F3" stroke="#838383" cx="219.1" cy="54.8" r="6.1"/>
	<circle fill="#F3F3F3" stroke="#838383" cx="237.4" cy="36.6" r="6.1"/>
</g>
<g id="unitaz_8_">
	<path fill="#F3F3F3" stroke="#838383" d="M545.4,342.3h-8.5c-1.3,0-2.4-1.1-2.4-2.4V318c0-1.3,1.1-2.4,2.4-2.4h8.5V342.3z"/>
	<path fill="#F3F3F3" stroke="#838383" d="M534.5,339.9c0,1.3-1.1,2.4-2.4,2.4v-26.7c1.3,0,2.4,1.1,2.4,2.4V339.9z"/>
	<path fill="#F3F3F3" stroke="#838383" d="M532.1,315.6v26.7c0,0-31.6,5.5-31.6-13.4C500.5,310.1,532.1,315.6,532.1,315.6z"/>
	<circle fill="#F3F3F3" stroke="#838383" cx="540.6" cy="328.9" r="2.4"/>
</g>
<g id="unitaz_9_">
	<path fill="#F3F3F3" stroke="#838383" d="M496.1,21.7v8.5c0,1.3-1.1,2.4-2.4,2.4h-21.9c-1.3,0-2.4-1.1-2.4-2.4v-8.5H496.1z"/>
	<path fill="#F3F3F3" stroke="#838383" d="M493.7,32.7c1.3,0,2.4,1.1,2.4,2.4h-26.7c0-1.3,1.1-2.4,2.4-2.4H493.7z"/>
	<path fill="#F3F3F3" stroke="#838383" d="M469.3,35.1h26.7c0,0,5.5,31.6-13.4,31.6C463.9,66.7,469.3,35.1,469.3,35.1z"/>
	<circle fill="#F3F3F3" stroke="#838383" cx="482.7" cy="26.6" r="2.4"/>
</g>
<g id="moyka_8_">
	<path fill="#F3F3F3" stroke="#838383" d="M544.8,397.1c0,0.7-0.6,1.3-1.3,1.3H517c-0.7,0-1.3-0.6-1.3-1.3v-39.8
		c0-0.7,0.6-1.3,1.3-1.3h26.5c0.7,0,1.3,0.6,1.3,1.3V397.1z"/>
	<rect x="538.2" y="356" fill="#F3F3F3" stroke="#838383" width="2.7" height="42.4"/>
	<ellipse fill="#F3F3F3" stroke="#838383" cx="526.9" cy="376.6" rx="8.6" ry="13.9"/>
	<rect x="530.2" y="375.9" fill="#F3F3F3" stroke="#838383" width="10.6" height="2.7"/>
	<circle fill="#F3F3F3" stroke="#838383" cx="525.6" cy="377.9" r="2"/>
</g>
<g id="moyka_9_">
	<path fill="#F3F3F3" stroke="#838383" d="M425.6,90.3c0-0.7,0.6-1.3,1.3-1.3h26.5c0.7,0,1.3,0.6,1.3,1.3v39.8
		c0,0.7-0.6,1.3-1.3,1.3h-26.5c-0.7,0-1.3-0.6-1.3-1.3V90.3z"/>
	<rect x="429.6" y="89" fill="#F3F3F3" stroke="#838383" width="2.7" height="42.4"/>
	<ellipse fill="#F3F3F3" stroke="#838383" cx="443.5" cy="110.9" rx="8.6" ry="13.9"/>
	<rect x="429.6" y="108.9" fill="#F3F3F3" stroke="#838383" width="10.6" height="2.7"/>
	<circle fill="#F3F3F3" stroke="#838383" cx="444.8" cy="109.6" r="2"/>
</g>
<g id="stirka_7_">
	<rect x="419.5" y="284.2" fill="#F3F3F3" stroke="#838383" width="36.5" height="36.5"/>
	<path fill="#F3F3F3" stroke="#838383" d="M453.6,287.9c0,1.3-1.1,2.4-2.4,2.4h-8.5c-1.3,0-2.4-1.1-2.4-2.4v-3.6h13.4V287.9z"/>
	<circle fill="#F3F3F3" stroke="#838383" cx="437.8" cy="303.7" r="9.7"/>
	<circle fill="#F3F3F3" stroke="#838383" cx="437.8" cy="303.7" r="7.3"/>
	<circle fill="#F3F3F3" stroke="#838383" cx="425.6" cy="290.3" r="2.4"/>
</g>
<g id="vanna_7_">
	<rect x="426.9" y="415.1" fill="#F3F3F3" stroke="#838383" width="117.9" height="46.2"/>
	<path fill="#F3F3F3" stroke="#838383" d="M434.2,430.9c0-6.7,5.4-12.2,12.2-12.2h81.5v38.9h-81.5c-6.7,0-12.2-5.4-12.2-12.2V430.9z
		"/>
	<path fill="#F3F3F3" stroke="#838383" d="M529.6,439.4v9.7h4.3v-16.4"/>
	<path id="Union_7_" fill="#F3F3F3" stroke="#838383" d="M535.1,430.7c1.4-0.5,2.4-1.9,2.4-3.4c0-2-1.6-3.6-3.6-3.6
		c-2,0-3.6,1.6-3.6,3.6c0,1.6,1,2.9,2.4,3.4v1.4c0,0.7,0.5,1.2,1.2,1.2s1.2-0.5,1.2-1.2V430.7z"/>
	<rect x="521.7" y="437" fill="#F3F3F3" stroke="#838383" width="9.7" height="2.4"/>
</g>
<rect x="16.6" y="75.2" fill="#FFFFFF" stroke="#000000" stroke-miterlimit="10" width="5.2" height="107.6"/>
<rect x="16.6" y="75.2" fill="#FFFFFF" stroke="#000000" stroke-miterlimit="10" width="5.2" height="9.7"/>
<rect x="16.6" y="172.3" fill="#FFFFFF" stroke="#000000" stroke-miterlimit="10" width="5.2" height="10.5"/>
<rect x="16.6" y="126.1" fill="#FFFFFF" stroke="#000000" stroke-miterlimit="10" width="5.2" height="5.2"/>
<rect x="21.8" y="74.6" fill="#FFFFFF" stroke="#000000" stroke-miterlimit="10" width="10.4" height="108.2"/>
<rect x="6.9" y="79.4" fill="#FFFFFF" stroke="#000000" stroke-miterlimit="10" width="9.7" height="97.9"/>
<rect x="16.6" y="278.7" fill="#FFFFFF" stroke="#000000" stroke-miterlimit="10" width="5.2" height="107.6"/>
<rect x="21.8" y="278.7" fill="#FFFFFF" stroke="#000000" stroke-miterlimit="10" width="10.4" height="107.6"/>
<rect x="6.9" y="283.3" fill="#FFFFFF" stroke="#000000" stroke-miterlimit="10" width="9.7" height="97.5"/>
<rect x="17.2" y="278.7" fill="#FFFFFF" stroke="#000000" stroke-miterlimit="10" width="4.5" height="9.9"/>
<rect x="16.6" y="329.4" fill="#FFFFFF" stroke="#000000" stroke-miterlimit="10" width="5.2" height="5.2"/>
<rect x="16.6" y="375.9" fill="#FFFFFF" stroke="#000000" stroke-miterlimit="10" width="5.2" height="10.4"/>
<rect x="16.6" y="481.9" fill="#FFFFFF" stroke="#000000" stroke-miterlimit="10" width="5" height="104.3"/>
<rect x="21.6" y="481.9" fill="#FFFFFF" stroke="#000000" stroke-miterlimit="10" width="10.5" height="104.3"/>
<rect x="6.9" y="484.5" fill="#FFFFFF" stroke="#000000" stroke-miterlimit="10" width="9.7" height="99.8"/>
<rect x="16.6" y="481.9" fill="#FFFFFF" stroke="#000000" stroke-miterlimit="10" width="5" height="7.8"/>
<rect x="16.6" y="577.2" fill="#FFFFFF" stroke="#000000" stroke-miterlimit="10" width="5" height="9.1"/>
<rect x="16.6" y="532.8" fill="#FFFFFF" stroke="#000000" stroke-miterlimit="10" width="5" height="5"/>
<rect x="159.2" y="677" fill="#FFFFFF" stroke="#000000" stroke-miterlimit="10" width="123.1" height="5.2"/>
<rect x="159.2" y="664" fill="#FFFFFF" stroke="#000000" stroke-miterlimit="10" width="55.7" height="13"/>
<rect x="161.4" y="682.1" fill="#FFFFFF" stroke="#000000" stroke-miterlimit="10" width="53.5" height="10.7"/>
<rect x="159.2" y="677" fill="#FFFFFF" stroke="#000000" stroke-miterlimit="10" width="4.5" height="5.2"/>
<rect x="212.5" y="677" fill="#FFFFFF" stroke="#000000" stroke-miterlimit="10" width="8.3" height="5.2"/>
<rect x="274.5" y="677" fill="#FFFFFF" stroke="#000000" stroke-miterlimit="10" width="7.8" height="5.2"/>
<rect x="379.8" y="779.8" fill="#FFFFFF" stroke="#000000" stroke-miterlimit="10" width="107.9" height="5.3"/>
<rect x="383.7" y="785.2" fill="#FFFFFF" stroke="#000000" stroke-miterlimit="10" width="99.2" height="10"/>
<rect x="379.8" y="767" fill="#FFFFFF" stroke="#000000" stroke-miterlimit="10" width="107.9" height="12.8"/>
<rect x="379.8" y="779.8" fill="#FFFFFF" stroke="#000000" stroke-miterlimit="10" width="10.7" height="5.3"/>
<rect x="477.4" y="779.8" fill="#FFFFFF" stroke="#000000" stroke-miterlimit="10" width="10.4" height="5.3"/>
<rect x="431.4" y="779.8" fill="#FFFFFF" stroke="#000000" stroke-miterlimit="10" width="5.3" height="5.3"/>
<polygon fill="#FFFFFF" stroke="#000000" stroke-miterlimit="10" points="29.5,769.6 29.5,692.8 6.9,692.8 6.9,795.2 25.4,795.2 
	29.5,795.2 305.6,795.2 305.6,769.6 "/>
<rect x="16.6" y="780.2" fill="#FFFFFF" stroke="#000000" stroke-miterlimit="10" width="7.8" height="4.9"/>
<rect x="16.6" y="692.8" fill="#FFFFFF" stroke="#000000" stroke-miterlimit="10" width="7.8" height="87.4"/>
<rect x="19.1" y="692.8" fill="#FFFFFF" stroke="#000000" stroke-miterlimit="10" width="2.6" height="87.4"/>
<rect x="24.4" y="777.3" fill="#FFFFFF" stroke="#000000" stroke-miterlimit="10" width="2.8" height="7.9"/>
<rect x="27.1" y="777.3" transform="matrix(-1 -1.224647e-16 1.224647e-16 -1 332.7404 1562.5225)" fill="#FFFFFF" stroke="#000000" stroke-miterlimit="10" width="278.5" height="7.9"/>
<rect x="27.1" y="780.2" transform="matrix(-1 -1.224647e-16 1.224647e-16 -1 332.7404 1562.968)" fill="#FFFFFF" stroke="#000000" stroke-miterlimit="10" width="278.5" height="2.5"/>
<line fill="#FFFFFF" stroke="#000000" stroke-miterlimit="10" x1="542.3" y1="239.8" x2="508.1" y2="180.5"/>
<line fill="#FFFFFF" stroke="#000000" stroke-miterlimit="10" x1="513.7" y1="152" x2="464.7" y2="177.3"/>
<line fill="#FFFFFF" stroke="#000000" stroke-miterlimit="10" x1="405.8" y1="152" x2="360.1" y2="177.3"/>
<line fill="#FFFFFF" stroke="#000000" stroke-miterlimit="10" x1="411.1" y1="344.7" x2="382.7" y2="393.1"/>
<line fill="#FFFFFF" stroke="#000000" stroke-miterlimit="10" x1="341.6" y1="479.1" x2="396.9" y2="510.7"/>
<line fill="#FFFFFF" stroke="#000000" stroke-miterlimit="10" x1="325.8" y1="399.6" x2="295.3" y2="453.7"/>
<line fill="#FFFFFF" stroke="#000000" stroke-miterlimit="10" x1="274.5" y1="677" x2="224.6" y2="648.4"/>
<rect x="6.9" y="5.2" fill="#838383" stroke="#000000" stroke-miterlimit="10" width="9.7" height="74.2"/>
<rect x="16.6" y="5.2" fill="#838383" stroke="#000000" stroke-miterlimit="10" width="545.7" height="15.6"/>
<rect x="16.6" y="20.8" fill="#838383" stroke="#000000" stroke-miterlimit="10" width="15.6" height="53.8"/>
<rect x="6.9" y="177.3" fill="#838383" stroke="#000000" stroke-miterlimit="10" width="9.7" height="106"/>
<rect x="16.6" y="182.8" fill="#838383" stroke="#000000" stroke-miterlimit="10" width="15.6" height="95.9"/>
<rect x="6.9" y="380.8" fill="#838383" stroke="#000000" stroke-miterlimit="10" width="9.7" height="103.7"/>
<rect x="16.6" y="386.3" fill="#838383" stroke="#000000" stroke-miterlimit="10" width="15.6" height="95.6"/>
<rect x="32.1" y="391.2" fill="#838383" stroke="#000000" stroke-miterlimit="10" width="36.6" height="36.6"/>
<rect x="6.9" y="584.3" fill="#838383" stroke="#000000" stroke-miterlimit="10" width="9.7" height="108.6"/>
<rect x="16.6" y="586.2" fill="#838383" stroke="#000000" stroke-miterlimit="10" width="15.6" height="77.8"/>
<rect x="16.6" y="682.1" fill="#838383" stroke="#000000" stroke-miterlimit="10" width="144.8" height="10.7"/>
<rect x="16.6" y="664" fill="#838383" stroke="#000000" stroke-miterlimit="10" width="142.6" height="18.1"/>
<rect x="282.3" y="664" fill="#838383" stroke="#000000" stroke-miterlimit="10" width="33.4" height="18.1"/>
<rect x="277.1" y="682.1" fill="#838383" stroke="#000000" stroke-miterlimit="10" width="38.6" height="10.7"/>
<rect x="315.7" y="664" fill="#838383" stroke="#000000" stroke-miterlimit="10" width="16.2" height="121.2"/>
<rect x="305.6" y="692.8" fill="#838383" stroke="#000000" stroke-miterlimit="10" width="10" height="102.4"/>
<rect x="315.7" y="785.2" fill="#838383" stroke="#000000" stroke-miterlimit="10" width="68" height="10"/>
<rect x="331.9" y="767" fill="#838383" stroke="#000000" stroke-miterlimit="10" width="48" height="18.1"/>
<rect x="482.9" y="785.2" fill="#838383" stroke="#000000" stroke-miterlimit="10" width="79.4" height="10"/>
<rect x="487.7" y="767" fill="#838383" stroke="#000000" stroke-miterlimit="10" width="74.5" height="18.1"/>
<rect x="529.5" y="664" fill="#838383" stroke="#000000" stroke-miterlimit="10" width="32.7" height="33.4"/>
<rect x="542.5" y="697.4" fill="#838383" stroke="#000000" stroke-miterlimit="10" width="19.8" height="69.7"/>
<rect x="547" y="20.8" fill="#838383" stroke="#000000" stroke-miterlimit="10" width="15.2" height="131.2"/>
<rect x="542.3" y="152" fill="#838383" stroke="#000000" stroke-miterlimit="10" width="19.9" height="20.7"/>
<rect x="542.3" y="239.8" fill="#838383" stroke="#000000" stroke-miterlimit="10" width="19.9" height="35.6"/>
<rect x="315.3" y="275.8" fill="#838383" stroke="#000000" stroke-miterlimit="10" width="16.5" height="123.6"/>
<rect x="542.3" y="469.4" fill="#838383" stroke="#000000" stroke-miterlimit="10" width="19.9" height="194.6"/>
<rect x="547" y="275.5" fill="#838383" stroke="#000000" stroke-miterlimit="10" width="15.2" height="193.9"/>
<rect x="315.3" y="20.8" fill="#C6C6C6" stroke="#000000" stroke-miterlimit="10" width="8.3" height="131.2"/>
<rect x="513.7" y="143.8" fill="#C6C6C6" stroke="#000000" stroke-miterlimit="10" width="33.4" height="8.3"/>
<rect x="405.8" y="143.8" fill="#C6C6C6" stroke="#000000" stroke-miterlimit="10" width="54" height="8.3"/>
<rect x="323.6" y="143.8" fill="#C6C6C6" stroke="#000000" stroke-miterlimit="10" width="28.4" height="8.3"/>
<rect x="415.7" y="20.8" fill="#C6C6C6" stroke="#000000" stroke-miterlimit="10" width="8.3" height="123"/>
<rect x="511" y="56.3" fill="#C6C6C6" stroke="#000000" stroke-miterlimit="10" width="36" height="6.3"/>
<rect x="511" y="41.4" fill="#C6C6C6" stroke="#000000" stroke-miterlimit="10" width="6.3" height="14.8"/>
<rect x="511" y="20.8" fill="#C6C6C6" stroke="#000000" stroke-miterlimit="10" width="2.7" height="20.7"/>
<rect x="411.1" y="275.8" fill="#C6C6C6" stroke="#000000" stroke-miterlimit="10" width="135.9" height="8.3"/>
<rect x="411.1" y="284.1" fill="#C6C6C6" stroke="#000000" stroke-miterlimit="10" width="8.3" height="60.7"/>
<rect x="411.1" y="399.6" fill="#C6C6C6" stroke="#000000" stroke-miterlimit="10" width="8.3" height="72.3"/>
<rect x="403.3" y="471.8" fill="#C6C6C6" stroke="#000000" stroke-miterlimit="10" width="139" height="8.3"/>
<rect x="419.4" y="463" fill="#C6C6C6" stroke="#000000" stroke-miterlimit="10" width="127.7" height="6.3"/>
<rect x="68.8" y="391.2" fill="#C6C6C6" stroke="#000000" stroke-miterlimit="10" width="246.6" height="8.3"/>
<rect x="331.9" y="471.8" fill="#C6C6C6" stroke="#000000" stroke-miterlimit="10" width="9.7" height="8.3"/>
<rect x="323.6" y="460.7" fill="#C6C6C6" stroke="#000000" stroke-miterlimit="10" width="8.3" height="203.3"/>
<rect x="491.5" y="297.4" fill="#C6C6C6" stroke="#000000" stroke-miterlimit="10" width="30.4" height="6.3"/>
<rect x="521.9" y="301" fill="#C6C6C6" stroke="#000000" stroke-miterlimit="10" width="24.8" height="2.7"/>
<rect x="491.5" y="284.2" fill="#C6C6C6" stroke="#000000" stroke-miterlimit="10" width="6.3" height="13.1"/>
<g>
	<path d="M77.6,106h-2.8v5.6h-1.2V99.5h1.2v5.4h2.8l4.1-5.4h1.4l-4.5,5.9l4.8,6.2h-1.5L77.6,106z"/>
	<path d="M92.8,102.5l-4.6,10.2c-0.4,0.9-0.8,1.5-1.3,1.8c-0.5,0.4-1.1,0.5-1.7,0.5c-0.4,0-0.8-0.1-1.2-0.2s-0.7-0.3-1-0.6l0.6-0.9
		c0.5,0.5,1,0.7,1.7,0.7c0.4,0,0.8-0.1,1.1-0.3c0.3-0.2,0.6-0.6,0.8-1.2l0.4-0.9l-4.1-9.1h1.3l3.4,7.7l3.4-7.7H92.8z"/>
	<path d="M99.9,111.6l-2.9-3.8l-2.9,3.8h-1.4l3.6-4.7l-3.4-4.4h1.4L97,106l2.7-3.6h1.4l-3.4,4.4l3.6,4.7H99.9z"/>
	<path d="M103.3,102.5h1.2v4h5.7v-4h1.2v9.1h-1.2v-4h-5.7v4h-1.2V102.5z"/>
	<path d="M122,102.5v9.1h-1.1v-3H118h-0.3l-2.1,3h-1.3l2.3-3.2c-0.7-0.2-1.2-0.5-1.6-1s-0.6-1.1-0.6-1.8c0-1,0.3-1.8,1-2.3
		c0.7-0.5,1.6-0.8,2.8-0.8H122z M118.1,107.6h2.8v-4.1h-2.7c-1.8,0-2.7,0.7-2.7,2.1C115.5,107,116.4,107.6,118.1,107.6z"/>
	<path d="M124.7,106.3h4.5v1.1h-4.5V106.3z"/>
	<path d="M74.7,131.8c-0.7-0.4-1.3-0.9-1.7-1.7c-0.4-0.7-0.6-1.5-0.6-2.4c0-0.9,0.2-1.7,0.6-2.4c0.4-0.7,1-1.3,1.7-1.6
		c0.7-0.4,1.5-0.6,2.4-0.6c0.8,0,1.5,0.2,2.1,0.5c0.6,0.3,1.1,0.8,1.5,1.3l-0.9,0.6c-0.3-0.4-0.7-0.8-1.1-1c-0.5-0.2-1-0.3-1.5-0.3
		c-0.7,0-1.2,0.1-1.8,0.4c-0.5,0.3-0.9,0.7-1.2,1.3c-0.3,0.5-0.4,1.2-0.4,1.9c0,0.7,0.1,1.3,0.4,1.9c0.3,0.5,0.7,1,1.2,1.2
		c0.5,0.3,1.1,0.4,1.8,0.4c0.5,0,1-0.1,1.5-0.3c0.5-0.2,0.8-0.6,1.1-1l0.9,0.6c-0.4,0.6-0.8,1-1.5,1.3c-0.6,0.3-1.3,0.5-2.1,0.5
		C76.2,132.4,75.4,132.2,74.7,131.8z"/>
	<path d="M89.3,124.3h-3.4v8h-1.2v-8h-3.4v-1.1h8.1V124.3z"/>
	<path d="M92,131.8c-0.7-0.4-1.3-0.9-1.7-1.7c-0.4-0.7-0.6-1.5-0.6-2.4c0-0.9,0.2-1.7,0.6-2.4c0.4-0.7,1-1.3,1.7-1.6
		c0.7-0.4,1.5-0.6,2.4-0.6c0.9,0,1.7,0.2,2.4,0.6c0.7,0.4,1.3,0.9,1.7,1.6c0.4,0.7,0.6,1.5,0.6,2.4c0,0.9-0.2,1.7-0.6,2.4
		c-0.4,0.7-0.9,1.3-1.7,1.7c-0.7,0.4-1.5,0.6-2.4,0.6C93.5,132.4,92.7,132.2,92,131.8z M96.2,130.9c0.5-0.3,0.9-0.7,1.2-1.3
		s0.4-1.2,0.4-1.9s-0.1-1.3-0.4-1.9s-0.7-1-1.2-1.3c-0.5-0.3-1.1-0.4-1.7-0.4c-0.6,0-1.2,0.1-1.7,0.4c-0.5,0.3-0.9,0.7-1.2,1.3
		c-0.3,0.5-0.4,1.2-0.4,1.9s0.1,1.3,0.4,1.9c0.3,0.5,0.7,1,1.2,1.3c0.5,0.3,1.1,0.4,1.7,0.4C95.1,131.3,95.6,131.2,96.2,130.9z"/>
	<path d="M109.1,123.2v9.1h-1.2v-8h-4.4l-0.1,2.3c-0.1,1.9-0.3,3.3-0.7,4.4s-1,1.5-1.9,1.5c-0.2,0-0.5,0-0.9-0.1l0.1-1.1
		c0.2,0,0.4,0.1,0.4,0.1c0.5,0,0.8-0.2,1.1-0.7c0.2-0.4,0.4-1,0.5-1.6c0.1-0.6,0.1-1.5,0.2-2.6l0.2-3.3H109.1z"/>
	<path d="M113.9,131.8c-0.7-0.4-1.3-0.9-1.7-1.7c-0.4-0.7-0.6-1.5-0.6-2.4c0-0.9,0.2-1.7,0.6-2.4c0.4-0.7,1-1.3,1.7-1.6
		c0.7-0.4,1.5-0.6,2.4-0.6c0.9,0,1.7,0.2,2.4,0.6c0.7,0.4,1.3,0.9,1.7,1.6c0.4,0.7,0.6,1.5,0.6,2.4c0,0.9-0.2,1.7-0.6,2.4
		c-0.4,0.7-0.9,1.3-1.7,1.7c-0.7,0.4-1.5,0.6-2.4,0.6C115.4,132.4,114.6,132.2,113.9,131.8z M118.1,130.9c0.5-0.3,0.9-0.7,1.2-1.3
		s0.4-1.2,0.4-1.9s-0.1-1.3-0.4-1.9s-0.7-1-1.2-1.3c-0.5-0.3-1.1-0.4-1.7-0.4c-0.6,0-1.2,0.1-1.7,0.4c-0.5,0.3-0.9,0.7-1.2,1.3
		c-0.3,0.5-0.4,1.2-0.4,1.9s0.1,1.3,0.4,1.9c0.3,0.5,0.7,1,1.2,1.3c0.5,0.3,1.1,0.4,1.7,0.4C117,131.3,117.5,131.2,118.1,130.9z"/>
	<path d="M131.2,129.9c0,0.8-0.3,1.4-0.9,1.8c-0.6,0.4-1.5,0.6-2.6,0.6h-4.1v-9.1h4c1,0,1.9,0.2,2.4,0.6c0.6,0.4,0.9,1,0.9,1.7
		c0,0.5-0.1,0.9-0.4,1.3c-0.3,0.4-0.6,0.6-1.1,0.8C130.6,127.9,131.2,128.7,131.2,129.9z M124.8,127.3h2.7c0.7,0,1.2-0.1,1.6-0.4
		s0.6-0.7,0.6-1.2s-0.2-0.9-0.6-1.1s-0.9-0.4-1.6-0.4h-2.7V127.3z M129.4,131c0.4-0.3,0.6-0.7,0.6-1.2s-0.2-0.9-0.5-1.2
		s-0.9-0.4-1.7-0.4h-3v3.2h2.9C128.4,131.4,129,131.2,129.4,131z"/>
	<path d="M140,124.1c0.6,0.6,1,1.5,1,2.6v5.6h-1.2v-1.4c-0.3,0.5-0.7,0.8-1.2,1.1s-1.2,0.4-1.9,0.4c-1,0-1.8-0.2-2.4-0.7
		s-0.9-1.1-0.9-1.9c0-0.8,0.3-1.4,0.8-1.9c0.6-0.5,1.5-0.7,2.7-0.7h2.9v-0.6c0-0.8-0.2-1.4-0.7-1.8c-0.4-0.4-1.1-0.6-1.9-0.6
		c-0.6,0-1.1,0.1-1.7,0.3s-1,0.5-1.4,0.8l-0.6-0.9c0.5-0.4,1-0.7,1.7-0.9c0.6-0.2,1.3-0.3,2-0.3C138.4,123.2,139.3,123.5,140,124.1z
		 M138.6,131c0.5-0.3,0.9-0.8,1.1-1.4v-1.5h-2.9c-1.6,0-2.3,0.5-2.3,1.6c0,0.5,0.2,0.9,0.6,1.3c0.4,0.3,1,0.5,1.7,0.5
		C137.5,131.5,138.1,131.3,138.6,131z"/>
	<path d="M151.2,123.2v9.1h-1.1v-3h-2.9h-0.3l-2.1,3h-1.3l2.3-3.2c-0.7-0.2-1.2-0.5-1.6-1s-0.6-1.1-0.6-1.8c0-1,0.3-1.8,1-2.3
		c0.7-0.5,1.6-0.8,2.8-0.8H151.2z M147.3,128.4h2.8v-4.1h-2.7c-1.8,0-2.7,0.7-2.7,2.1C144.7,127.7,145.6,128.4,147.3,128.4z"/>
	<path d="M83.2,156.4v1.9H72.4v-1.5l6.2-6c0.8-0.7,1.3-1.3,1.5-1.9c0.3-0.5,0.4-1.1,0.4-1.6c0-0.8-0.3-1.4-0.8-1.9
		c-0.6-0.4-1.4-0.7-2.4-0.7c-1.7,0-3,0.5-3.9,1.6l-1.5-1.3c0.6-0.7,1.4-1.3,2.3-1.7c1-0.4,2-0.6,3.2-0.6c1.6,0,2.8,0.4,3.8,1.1
		c0.9,0.8,1.4,1.8,1.4,3.1c0,0.8-0.2,1.6-0.5,2.3c-0.3,0.7-1,1.5-2,2.5l-4.6,4.5H83.2z"/>
	<path d="M95.7,156.4v1.9H84.8v-1.5l6.2-6c0.8-0.7,1.3-1.3,1.5-1.9c0.3-0.5,0.4-1.1,0.4-1.6c0-0.8-0.3-1.4-0.8-1.9
		c-0.6-0.4-1.4-0.7-2.4-0.7c-1.7,0-3,0.5-3.9,1.6l-1.5-1.3c0.6-0.7,1.4-1.3,2.3-1.7c1-0.4,2-0.6,3.2-0.6c1.6,0,2.8,0.4,3.8,1.1
		c0.9,0.8,1.4,1.8,1.4,3.1c0,0.8-0.2,1.6-0.5,2.3c-0.3,0.7-1,1.5-2,2.5l-4.6,4.5H95.7z"/>
	<path d="M100.1,155.9c0.3,0.3,0.4,0.6,0.4,1c0,0.2,0,0.4-0.1,0.6c-0.1,0.2-0.1,0.5-0.3,0.9l-1,3h-1.4l0.8-3.2
		c-0.3-0.1-0.5-0.3-0.7-0.5c-0.2-0.2-0.2-0.5-0.2-0.8c0-0.4,0.1-0.8,0.4-1.1c0.3-0.3,0.6-0.4,1-0.4
		C99.5,155.5,99.8,155.6,100.1,155.9z"/>
	<path d="M105.3,157.6c-0.9-0.6-1.7-1.5-2.2-2.7c-0.5-1.2-0.8-2.6-0.8-4.2c0-1.6,0.3-3,0.8-4.2s1.3-2.1,2.2-2.7
		c0.9-0.6,2-0.9,3.2-0.9c1.2,0,2.2,0.3,3.2,0.9c0.9,0.6,1.7,1.5,2.2,2.7c0.5,1.2,0.8,2.6,0.8,4.2c0,1.6-0.3,3-0.8,4.2
		c-0.5,1.2-1.3,2.1-2.2,2.7c-0.9,0.6-2,0.9-3.2,0.9C107.3,158.5,106.2,158.2,105.3,157.6z M111.4,155.1c0.7-1,1.1-2.4,1.1-4.3
		c0-1.9-0.4-3.3-1.1-4.3c-0.7-1-1.7-1.5-2.9-1.5c-1.2,0-2.2,0.5-2.9,1.5c-0.7,1-1.1,2.4-1.1,4.3c0,1.9,0.4,3.3,1.1,4.3
		s1.7,1.5,2.9,1.5C109.7,156.6,110.7,156.1,111.4,155.1z"/>
</g>
<g>
	<path d="M85.4,480.8c-1-0.5-1.7-1.3-2.3-2.2c-0.5-0.9-0.8-2-0.8-3.2c0-1.2,0.3-2.2,0.8-3.2c0.5-0.9,1.3-1.7,2.3-2.2
		c1-0.5,2.1-0.8,3.3-0.8c0.9,0,1.7,0.2,2.5,0.5c0.8,0.3,1.4,0.7,1.9,1.3l-0.8,0.8c-0.9-1-2.1-1.4-3.6-1.4c-1,0-1.8,0.2-2.6,0.7
		c-0.8,0.4-1.4,1-1.8,1.8c-0.4,0.8-0.7,1.6-0.7,2.6c0,0.9,0.2,1.8,0.7,2.6c0.4,0.8,1.1,1.4,1.8,1.8c0.8,0.4,1.7,0.7,2.6,0.7
		c1.5,0,2.6-0.5,3.6-1.5l0.8,0.8c-0.5,0.6-1.2,1-1.9,1.3s-1.6,0.5-2.5,0.5C87.5,481.6,86.4,481.4,85.4,480.8z"/>
	<path d="M103.6,472.4v9.1h-1.2v-8h-5.7v8h-1.2v-9.1H103.6z"/>
	<path d="M113,473.3c0.6,0.6,1,1.5,1,2.6v5.6h-1.2v-1.4c-0.3,0.5-0.7,0.8-1.2,1.1s-1.2,0.4-1.9,0.4c-1,0-1.8-0.2-2.4-0.7
		s-0.9-1.1-0.9-1.9c0-0.8,0.3-1.4,0.8-1.9c0.6-0.5,1.5-0.7,2.7-0.7h2.9v-0.6c0-0.8-0.2-1.4-0.7-1.8c-0.4-0.4-1.1-0.6-1.9-0.6
		c-0.6,0-1.1,0.1-1.7,0.3s-1,0.5-1.4,0.8l-0.6-0.9c0.5-0.4,1-0.7,1.7-0.9c0.6-0.2,1.3-0.3,2-0.3C111.5,472.4,112.4,472.7,113,473.3z
		 M111.6,480.2c0.5-0.3,0.9-0.8,1.1-1.4v-1.5h-2.9c-1.6,0-2.3,0.5-2.3,1.6c0,0.5,0.2,0.9,0.6,1.3s1,0.5,1.7,0.5
		C110.5,480.7,111.1,480.5,111.6,480.2z"/>
	<path d="M124.7,472.4v9.1h-1.2v-8h-4.4l-0.1,2.3c-0.1,1.9-0.3,3.3-0.7,4.4s-1,1.5-1.9,1.5c-0.2,0-0.5,0-0.9-0.1l0.1-1.1
		c0.2,0,0.4,0.1,0.4,0.1c0.5,0,0.8-0.2,1.1-0.7c0.2-0.4,0.4-1,0.5-1.6c0.1-0.6,0.1-1.5,0.2-2.6l0.2-3.3H124.7z"/>
	<path d="M134.7,476.4c0.6,0.5,0.9,1.2,0.9,2.1c0,1-0.3,1.7-1,2.2s-1.6,0.8-2.8,0.8l-3.7,0v-9.1h1.2v3.2l2.7,0
		C133.2,475.7,134.1,475.9,134.7,476.4z M133.7,480.1c0.4-0.4,0.6-0.9,0.6-1.5c0-0.7-0.2-1.2-0.6-1.5c-0.4-0.3-1.1-0.5-1.9-0.5
		l-2.4,0v4.1l2.4,0C132.6,480.6,133.3,480.5,133.7,480.1z"/>
	<path d="M137.9,472.4h1.2v4h5.7v-4h1.2v9.1h-1.2v-4h-5.7v4h-1.2V472.4z"/>
	<path d="M156.6,472.4v9.1h-1.1v-3h-2.9h-0.3l-2.1,3h-1.3l2.3-3.2c-0.7-0.2-1.2-0.5-1.6-1s-0.6-1.1-0.6-1.8c0-1,0.3-1.8,1-2.3
		c0.7-0.5,1.6-0.8,2.8-0.8H156.6z M152.7,477.6h2.8v-4.1h-2.7c-1.8,0-2.7,0.7-2.7,2.1C150.1,476.9,151,477.6,152.7,477.6z"/>
	<path d="M87.1,492.4v15.1h-2.1v-13.3h-3.4v-1.9H87.1z"/>
	<path d="M99.6,498.9c0.8,0.4,1.4,0.9,1.9,1.6c0.4,0.7,0.7,1.5,0.7,2.4c0,1-0.2,1.8-0.7,2.5c-0.5,0.7-1.1,1.3-1.9,1.7
		s-1.7,0.6-2.7,0.6c-2,0-3.6-0.7-4.7-2c-1.1-1.3-1.7-3.2-1.7-5.6c0-1.7,0.3-3.1,0.9-4.3c0.6-1.2,1.4-2.1,2.5-2.7
		c1.1-0.6,2.3-0.9,3.8-0.9c0.7,0,1.4,0.1,2.1,0.2c0.6,0.2,1.2,0.4,1.7,0.7l-0.8,1.7c-0.7-0.5-1.7-0.7-2.9-0.7
		c-1.6,0-2.8,0.5-3.7,1.5c-0.9,1-1.3,2.4-1.3,4.3c0,0.2,0,0.4,0,0.5c0.4-0.6,1-1.1,1.8-1.5s1.6-0.5,2.6-0.5
		C97.9,498.3,98.8,498.5,99.6,498.9z M99.1,505.1c0.6-0.5,0.9-1.2,0.9-2.1s-0.3-1.6-0.9-2.1c-0.6-0.5-1.5-0.8-2.5-0.8
		c-0.7,0-1.3,0.1-1.8,0.4c-0.5,0.3-0.9,0.6-1.2,1.1s-0.4,0.9-0.4,1.5c0,0.5,0.1,1,0.4,1.5c0.3,0.4,0.7,0.8,1.2,1.1
		c0.5,0.3,1.2,0.4,1.9,0.4C97.7,505.9,98.5,505.7,99.1,505.1z"/>
	<path d="M106.4,505.1c0.3,0.3,0.4,0.6,0.4,1c0,0.2,0,0.4-0.1,0.6c-0.1,0.2-0.1,0.5-0.3,0.9l-1,3h-1.4l0.8-3.2
		c-0.3-0.1-0.5-0.3-0.7-0.5c-0.2-0.2-0.2-0.5-0.2-0.8c0-0.4,0.1-0.8,0.4-1.1c0.3-0.3,0.6-0.4,1-0.4
		C105.8,504.7,106.1,504.8,106.4,505.1z"/>
	<path d="M111.6,506.8c-0.9-0.6-1.7-1.5-2.2-2.7c-0.5-1.2-0.8-2.6-0.8-4.2s0.3-3,0.8-4.2c0.5-1.2,1.3-2.1,2.2-2.7
		c0.9-0.6,2-0.9,3.2-0.9c1.2,0,2.2,0.3,3.2,0.9c0.9,0.6,1.7,1.5,2.2,2.7c0.5,1.2,0.8,2.6,0.8,4.2s-0.3,3-0.8,4.2
		c-0.5,1.2-1.3,2.1-2.2,2.7c-0.9,0.6-2,0.9-3.2,0.9C113.6,507.7,112.5,507.4,111.6,506.8z M117.7,504.3c0.7-1,1.1-2.4,1.1-4.3
		c0-1.9-0.4-3.3-1.1-4.3c-0.7-1-1.7-1.5-2.9-1.5c-1.2,0-2.2,0.5-2.9,1.5c-0.7,1-1.1,2.4-1.1,4.3c0,1.9,0.4,3.3,1.1,4.3
		s1.7,1.5,2.9,1.5C116,505.8,117,505.3,117.7,504.3z"/>
</g>
<g>
	<path d="M357.6,692.7c-1-0.5-1.7-1.3-2.3-2.2s-0.8-2-0.8-3.2c0-1.2,0.3-2.2,0.8-3.2s1.3-1.7,2.3-2.2c1-0.5,2.1-0.8,3.3-0.8
		c0.9,0,1.7,0.2,2.5,0.5c0.8,0.3,1.4,0.7,1.9,1.3l-0.8,0.8c-0.9-1-2.1-1.4-3.6-1.4c-1,0-1.8,0.2-2.6,0.7c-0.8,0.4-1.4,1-1.8,1.8
		s-0.7,1.6-0.7,2.6c0,0.9,0.2,1.8,0.7,2.6s1.1,1.4,1.8,1.8c0.8,0.4,1.7,0.7,2.6,0.7c1.5,0,2.6-0.5,3.6-1.5l0.8,0.8
		c-0.5,0.6-1.2,1-1.9,1.3s-1.6,0.5-2.5,0.5C359.6,693.5,358.5,693.2,357.6,692.7z"/>
	<path d="M375.8,684.3v9.1h-1.2v-8h-5.7v8h-1.2v-9.1H375.8z"/>
	<path d="M385.2,685.1c0.6,0.6,1,1.5,1,2.6v5.6h-1.2V692c-0.3,0.5-0.7,0.8-1.2,1.1c-0.5,0.3-1.2,0.4-1.9,0.4c-1,0-1.8-0.2-2.4-0.7
		s-0.9-1.1-0.9-1.9c0-0.8,0.3-1.4,0.8-1.9c0.6-0.5,1.5-0.7,2.7-0.7h2.9v-0.6c0-0.8-0.2-1.4-0.7-1.8c-0.4-0.4-1.1-0.6-1.9-0.6
		c-0.6,0-1.1,0.1-1.7,0.3c-0.5,0.2-1,0.5-1.4,0.8l-0.6-0.9c0.5-0.4,1-0.7,1.7-0.9c0.6-0.2,1.3-0.3,2-0.3
		C383.6,684.2,384.5,684.5,385.2,685.1z M383.8,692c0.5-0.3,0.9-0.8,1.1-1.4v-1.5H382c-1.6,0-2.3,0.5-2.3,1.6c0,0.5,0.2,0.9,0.6,1.3
		c0.4,0.3,1,0.5,1.7,0.5C382.7,692.5,383.3,692.4,383.8,692z"/>
	<path d="M396.8,684.3v9.1h-1.2v-8h-4.4l-0.1,2.3c-0.1,1.9-0.3,3.3-0.7,4.4c-0.3,1-1,1.5-1.9,1.5c-0.2,0-0.5,0-0.9-0.1l0.1-1.1
		c0.2,0,0.4,0.1,0.4,0.1c0.5,0,0.8-0.2,1.1-0.7c0.2-0.4,0.4-1,0.5-1.6c0.1-0.6,0.1-1.5,0.2-2.6l0.2-3.3H396.8z"/>
	<path d="M406.8,688.3c0.6,0.5,0.9,1.2,0.9,2.1c0,1-0.3,1.7-1,2.2s-1.6,0.8-2.8,0.8l-3.7,0v-9.1h1.2v3.2l2.7,0
		C405.4,687.5,406.2,687.8,406.8,688.3z M405.8,692c0.4-0.4,0.6-0.9,0.6-1.5c0-0.7-0.2-1.2-0.6-1.5c-0.4-0.3-1.1-0.5-1.9-0.5l-2.4,0
		v4.1l2.4,0C404.8,692.5,405.4,692.3,405.8,692z"/>
	<path d="M410.1,684.3h1.2v4h5.7v-4h1.2v9.1H417v-4h-5.7v4h-1.2V684.3z"/>
	<path d="M428.7,684.3v9.1h-1.1v-3h-2.9h-0.3l-2.1,3H421l2.3-3.2c-0.7-0.2-1.2-0.5-1.6-1s-0.6-1.1-0.6-1.8c0-1,0.3-1.8,1-2.3
		c0.7-0.5,1.6-0.8,2.8-0.8H428.7z M424.9,689.5h2.8v-4.1H425c-1.8,0-2.7,0.7-2.7,2.1C422.3,688.8,423.1,689.5,424.9,689.5z"/>
	<path d="M359.2,704.2v15.1h-2.1v-13.3h-3.4v-1.9H359.2z"/>
	<path d="M373.2,717.5v1.9h-10.9v-1.5l6.2-6c0.8-0.7,1.3-1.3,1.5-1.9c0.3-0.5,0.4-1.1,0.4-1.6c0-0.8-0.3-1.4-0.8-1.9
		c-0.6-0.4-1.4-0.7-2.4-0.7c-1.7,0-3,0.5-3.9,1.6l-1.5-1.3c0.6-0.7,1.4-1.3,2.3-1.7c1-0.4,2-0.6,3.2-0.6c1.6,0,2.8,0.4,3.8,1.1
		c0.9,0.8,1.4,1.8,1.4,3.1c0,0.8-0.2,1.6-0.5,2.3c-0.3,0.7-1,1.5-2,2.5l-4.6,4.5H373.2z"/>
	<path d="M377.6,717c0.3,0.3,0.4,0.6,0.4,1c0,0.2,0,0.4-0.1,0.6s-0.1,0.5-0.3,0.9l-1,3h-1.4l0.8-3.2c-0.3-0.1-0.5-0.3-0.7-0.5
		s-0.2-0.5-0.2-0.8c0-0.4,0.1-0.8,0.4-1.1c0.3-0.3,0.6-0.4,1-0.4C377,716.5,377.3,716.7,377.6,717z"/>
	<path d="M390.8,704.2v1.5l-6.1,13.7h-2.3l6-13.3h-6.9v2.7h-2.1v-4.6H390.8z"/>
</g>
<g>
	<path d="M364.7,109.6v1.9h-10.9V110l6.2-6c0.8-0.7,1.3-1.3,1.5-1.9c0.3-0.5,0.4-1.1,0.4-1.6c0-0.8-0.3-1.4-0.8-1.9
		c-0.6-0.4-1.4-0.7-2.4-0.7c-1.7,0-3,0.5-3.9,1.6l-1.5-1.3c0.6-0.7,1.4-1.3,2.3-1.7c1-0.4,2-0.6,3.2-0.6c1.6,0,2.8,0.4,3.8,1.1
		s1.4,1.8,1.4,3.1c0,0.8-0.2,1.6-0.5,2.3c-0.3,0.7-1,1.5-2,2.5l-4.6,4.5H364.7z"/>
	<path d="M369.1,109.1c0.3,0.3,0.4,0.6,0.4,1c0,0.2,0,0.4-0.1,0.6c-0.1,0.2-0.1,0.5-0.3,0.9l-1,3h-1.4l0.8-3.2
		c-0.3-0.1-0.5-0.3-0.7-0.5c-0.2-0.2-0.2-0.5-0.2-0.8c0-0.4,0.1-0.8,0.4-1.1c0.3-0.3,0.6-0.4,1-0.4
		C368.5,108.6,368.8,108.8,369.1,109.1z"/>
	<path d="M384.5,107.8h-2.9v3.7h-2.1v-3.7h-8.4v-1.5l7.7-9.9h2.3l-7.4,9.6h5.8v-3.3h2v3.3h2.9V107.8z"/>
</g>
<g>
	<path d="M488.2,111.9v1.9h-10.9v-1.5l6.2-6c0.8-0.7,1.3-1.3,1.5-1.9c0.3-0.5,0.4-1.1,0.4-1.6c0-0.8-0.3-1.4-0.8-1.9
		c-0.6-0.4-1.4-0.7-2.4-0.7c-1.7,0-3,0.5-3.9,1.6l-1.5-1.3c0.6-0.7,1.4-1.3,2.3-1.7c1-0.4,2-0.6,3.2-0.6c1.6,0,2.8,0.4,3.8,1.1
		s1.4,1.8,1.4,3.1c0,0.8-0.2,1.6-0.5,2.3c-0.3,0.7-1,1.5-2,2.5l-4.6,4.5H488.2z"/>
	<path d="M492.6,111.4c0.3,0.3,0.4,0.6,0.4,1c0,0.2,0,0.4-0.1,0.6c-0.1,0.2-0.1,0.5-0.3,0.9l-1,3h-1.4l0.8-3.2
		c-0.3-0.1-0.5-0.3-0.7-0.5c-0.2-0.2-0.2-0.5-0.2-0.8c0-0.4,0.1-0.8,0.4-1.1c0.3-0.3,0.6-0.4,1-0.4C492,111,492.4,111.1,492.6,111.4
		z"/>
	<path d="M505.9,98.7v1.5l-6.1,13.7h-2.3l6-13.3h-6.9v2.7h-2.1v-4.6H505.9z"/>
</g>
<g>
	<path d="M449.5,225.2c1,0.8,1.5,1.9,1.5,3.3c0,0.9-0.2,1.7-0.6,2.4c-0.4,0.7-1.1,1.3-1.9,1.7c-0.9,0.4-1.9,0.6-3.2,0.6
		c-1.1,0-2.1-0.2-3.1-0.5c-1-0.3-1.8-0.8-2.5-1.4l1-1.7c0.5,0.5,1.2,0.9,2,1.2c0.8,0.3,1.7,0.4,2.6,0.4c1.1,0,2-0.2,2.7-0.7
		c0.6-0.5,0.9-1.1,0.9-2c0-0.9-0.3-1.6-1-2.1s-1.9-0.7-3.5-0.7h-3.4l0.8-7.9h8.5v1.9h-6.7l-0.4,4.2h1.7
		C446.9,224,448.5,224.4,449.5,225.2z"/>
	<path d="M455.3,230.7c0.3,0.3,0.4,0.6,0.4,1c0,0.2,0,0.4-0.1,0.6c-0.1,0.2-0.1,0.5-0.3,0.9l-1,3H453l0.8-3.2
		c-0.3-0.1-0.5-0.3-0.7-0.5c-0.2-0.2-0.2-0.5-0.2-0.8c0-0.4,0.1-0.8,0.4-1.1c0.3-0.3,0.6-0.4,1-0.4
		C454.7,230.2,455.1,230.4,455.3,230.7z"/>
	<path d="M469.2,226.6c0.5,0.6,0.7,1.4,0.7,2.2c0,0.9-0.2,1.7-0.7,2.4s-1.2,1.2-2.1,1.5c-0.9,0.4-2,0.5-3.2,0.5
		c-1.2,0-2.3-0.2-3.2-0.5c-0.9-0.4-1.6-0.9-2.1-1.5s-0.7-1.5-0.7-2.4c0-0.9,0.2-1.6,0.7-2.2c0.5-0.6,1.1-1.1,2-1.4
		c-0.7-0.3-1.2-0.8-1.6-1.3c-0.4-0.5-0.5-1.2-0.5-1.9c0-0.8,0.2-1.6,0.7-2.2c0.5-0.6,1.1-1.1,1.9-1.4c0.8-0.3,1.8-0.5,2.9-0.5
		c1.1,0,2.1,0.2,2.9,0.5c0.8,0.3,1.5,0.8,1.9,1.4c0.5,0.6,0.7,1.3,0.7,2.2c0,0.7-0.2,1.4-0.6,1.9c-0.4,0.6-0.9,1-1.6,1.3
		C468.1,225.5,468.8,225.9,469.2,226.6z M466.7,230.7c0.7-0.5,1-1.2,1-2c0-0.8-0.3-1.5-1-2s-1.6-0.7-2.8-0.7s-2.1,0.2-2.8,0.7
		c-0.7,0.5-1,1.1-1,2c0,0.9,0.3,1.5,1,2c0.7,0.5,1.6,0.7,2.8,0.7S466,231.2,466.7,230.7z M461.5,220.2c-0.6,0.4-0.9,1-0.9,1.8
		c0,0.8,0.3,1.3,0.9,1.8c0.6,0.4,1.4,0.6,2.4,0.6c1.1,0,1.9-0.2,2.5-0.6c0.6-0.4,0.9-1,0.9-1.8c0-0.8-0.3-1.3-0.9-1.8
		s-1.4-0.7-2.5-0.7S462.1,219.7,461.5,220.2z"/>
</g>
<g>
	<path d="M465.7,376.1h-2.9v3.7h-2.1v-3.7h-8.4v-1.5l7.7-9.9h2.3l-7.4,9.6h5.8V371h2v3.3h2.9V376.1z"/>
	<path d="M469.9,377.4c0.3,0.3,0.4,0.6,0.4,1c0,0.2,0,0.4-0.1,0.6s-0.1,0.5-0.3,0.9l-1,3h-1.4l0.8-3.2c-0.3-0.1-0.5-0.3-0.7-0.5
		s-0.2-0.5-0.2-0.8c0-0.4,0.1-0.8,0.4-1.1c0.3-0.3,0.6-0.4,1-0.4C469.3,377,469.6,377.2,469.9,377.4z"/>
	<path d="M483.1,364.7v1.5l-6.1,13.7h-2.3l6-13.3h-6.9v2.7h-2.1v-4.6H483.1z"/>
</g>
<g>
	<path d="M167.7,734.8h-2.9v3.7h-2.1v-3.7h-8.4v-1.5l7.7-9.9h2.3l-7.4,9.6h5.8v-3.3h2v3.3h2.9V734.8z"/>
	<path d="M171.9,736.1c0.3,0.3,0.4,0.6,0.4,1c0,0.2,0,0.4-0.1,0.6c-0.1,0.2-0.1,0.5-0.3,0.9l-1,3h-1.4l0.8-3.2
		c-0.3-0.1-0.5-0.3-0.7-0.5c-0.2-0.2-0.2-0.5-0.2-0.8c0-0.4,0.1-0.8,0.4-1.1c0.3-0.3,0.6-0.4,1-0.4
		C171.3,735.7,171.6,735.8,171.9,736.1z"/>
	<path d="M187.3,734.8h-2.9v3.7h-2.1v-3.7h-8.4v-1.5l7.7-9.9h2.3l-7.4,9.6h5.8v-3.3h2v3.3h2.9V734.8z"/>
</g>
<g>
	<path d="M364.3,425.3c0.8,0.8,1.2,1.8,1.2,3c0,0.9-0.2,1.6-0.6,2.3c-0.4,0.7-1.1,1.3-1.9,1.7s-1.9,0.6-3.1,0.6
		c-1.1,0-2.1-0.2-3.1-0.5c-1-0.3-1.8-0.8-2.4-1.4l1-1.7c0.5,0.5,1.2,0.9,2,1.2c0.8,0.3,1.7,0.4,2.6,0.4c1.1,0,2-0.2,2.6-0.7
		c0.6-0.5,0.9-1.1,0.9-2c0-0.8-0.3-1.5-0.9-1.9s-1.6-0.7-2.8-0.7h-1.2v-1.5l3.8-4.7h-7.3v-1.9h10v1.5l-4,4.9
		C362.4,424.1,363.5,424.5,364.3,425.3z"/>
	<path d="M369.9,430.3c0.3,0.3,0.4,0.6,0.4,1c0,0.2,0,0.4-0.1,0.6s-0.1,0.5-0.3,0.9l-1,3h-1.4l0.8-3.2c-0.3-0.1-0.5-0.3-0.7-0.5
		s-0.2-0.5-0.2-0.8c0-0.4,0.1-0.8,0.4-1.1c0.3-0.3,0.6-0.4,1-0.4C369.3,429.9,369.7,430,369.9,430.3z"/>
	<path d="M383.2,430.8v1.9h-10.9v-1.5l6.2-6c0.8-0.7,1.3-1.3,1.5-1.9c0.3-0.5,0.4-1.1,0.4-1.6c0-0.8-0.3-1.4-0.8-1.9
		c-0.6-0.4-1.4-0.7-2.4-0.7c-1.7,0-3,0.5-3.9,1.6l-1.5-1.3c0.6-0.7,1.4-1.3,2.3-1.7c1-0.4,2-0.6,3.2-0.6c1.6,0,2.8,0.4,3.8,1.1
		c0.9,0.8,1.4,1.8,1.4,3.1c0,0.8-0.2,1.6-0.5,2.3c-0.3,0.7-1,1.5-2,2.5l-4.6,4.5H383.2z"/>
</g>
<g>
	<path fill-rule="evenodd" clip-rule="evenodd" fill="#F1F2F2" stroke="#848484" stroke-miterlimit="10" d="M313.1,294.2v49.4v39.8
		c0,2.6-2.2,4.8-4.8,4.8h-39.8H147.9c-2.6,0-4.8-2.2-4.8-4.8v-39.8c0-2.6,2.2-4.8,4.8-4.8h110.9c2.7,0,4.8-2.2,4.8-4.8v-39.8
		c0-2.6,2.2-4.8,4.8-4.8h39.8C310.9,289.4,313.1,291.6,313.1,294.2z"/>
	<g>
		<path fill-rule="evenodd" clip-rule="evenodd" fill="#F1F2F2" stroke="#848484" stroke-miterlimit="10" d="M263.6,346.8
			c0-5.6,0.3-8,7.4-8h21.2c7.1,0,7.4,2.4,7.4,8v21.1c0,5.6-0.3,8-7.4,8H271c-7.1,0-7.4-2.4-7.4-8V346.8z"/>
		<path fill-rule="evenodd" clip-rule="evenodd" fill="#F1F2F2" stroke="#848484" stroke-miterlimit="10" d="M263.6,346.8
			c0-5.6,0.3-8,7.4-8h21.2c7.1,0,7.4,2.4,7.4,8v21.1c0,5.6-0.3,8-7.4,8H271c-7.1,0-7.4-2.4-7.4-8V346.8z"/>
		<path fill-rule="evenodd" clip-rule="evenodd" fill="#F1F2F2" stroke="#848484" stroke-miterlimit="10" d="M227.8,346.8
			c0-5.6,0.3-8,7.4-8h21.2c7.1,0,7.4,2.4,7.4,8v21.1c0,5.6-0.3,8-7.4,8h-21.2c-7.1,0-7.4-2.4-7.4-8V346.8z"/>
		<path fill-rule="evenodd" clip-rule="evenodd" fill="#F1F2F2" stroke="#848484" stroke-miterlimit="10" d="M227.8,346.8
			c0-5.6,0.3-8,7.4-8h21.2c7.1,0,7.4,2.4,7.4,8v21.1c0,5.6-0.3,8-7.4,8h-21.2c-7.1,0-7.4-2.4-7.4-8V346.8z"/>
		<path fill-rule="evenodd" clip-rule="evenodd" fill="#F1F2F2" stroke="#848484" stroke-miterlimit="10" d="M192.1,346.8
			c0-5.6,0.3-8,7.4-8h21.3c7.1,0,7.4,2.4,7.4,8v21.1c0,5.6-0.3,8-7.4,8h-21.3c-7.1,0-7.4-2.4-7.4-8V346.8z"/>
		<path fill-rule="evenodd" clip-rule="evenodd" fill="#F1F2F2" stroke="#848484" stroke-miterlimit="10" d="M192.1,346.8
			c0-5.6,0.3-8,7.4-8h21.3c7.1,0,7.4,2.4,7.4,8v21.1c0,5.6-0.3,8-7.4,8h-21.3c-7.1,0-7.4-2.4-7.4-8V346.8z"/>
		<path fill-rule="evenodd" clip-rule="evenodd" fill="#F1F2F2" stroke="#848484" stroke-miterlimit="10" d="M263.6,309.7
			c0-5.6,0.3-8,7.4-8h21.2c7.1,0,7.4,2.4,7.4,8v21.1c0,5.6-0.3,8-7.4,8H271c-7.1,0-7.4-2.4-7.4-8V309.7z"/>
		<path fill-rule="evenodd" clip-rule="evenodd" fill="#F1F2F2" stroke="#848484" stroke-miterlimit="10" d="M156.4,346.9
			c0-5.6,0.3-8,7.4-8H185c7.1,0,7.4,2.4,7.4,8V368c0,5.6-0.3,8-7.4,8h-21.3c-7.1,0-7.4-2.4-7.4-8V346.9z"/>
		<path fill-rule="evenodd" clip-rule="evenodd" fill="#F1F2F2" stroke="#848484" stroke-miterlimit="10" d="M313.1,383.1v-86.5
			v-2.1c0-2.8-2.5-5.1-5.5-5.1h-2.3h-36.2c-3,0-5.5,2.3-5.5,5.1v2.1c0,2.8,2.5,5.1,5.5,5.1h30.7v74.1H156.4v-31.9
			c0-2.8-2.5-5.1-5.5-5.1h-2.3c-3,0-5.5,2.3-5.5,5.1V381v2.1c0,2.8,2.5,5.1,5.5,5.1h2.3h154.4h2.3h0
			C310.6,388.2,313.1,385.9,313.1,383.1z"/>
	</g>
</g>
<g>
	<g>
		
			<rect x="41.4" y="194.6" fill-rule="evenodd" clip-rule="evenodd" fill="#F1F2F2" stroke="#848484" stroke-miterlimit="10" width="4.2" height="83.1"/>
		<polygon fill-rule="evenodd" clip-rule="evenodd" fill="#F1F2F2" stroke="#848484" stroke-miterlimit="10" points="41.4,201.7 
			38.1,215 38.1,257.2 41.4,270.6 		"/>
		
			<rect x="34.5" y="229" transform="matrix(-1 -5.137503e-11 5.137503e-11 -1 72.5896 472.227)" fill-rule="evenodd" clip-rule="evenodd" fill="#F1F2F2" stroke="#848484" stroke-miterlimit="10" width="3.6" height="14.2"/>
	</g>
</g>
<g>
	<g>
		<path fill="#F1F2F2" stroke="#848484" stroke-miterlimit="10" d="M138,267c-7.4,0-13.4,2.2-13.4,5c0,2.7,6,5,13.4,5
			s13.4-2.2,13.4-5C151.4,269.2,145.4,267,138,267z"/>
		<path fill="#F1F2F2" stroke="#848484" stroke-miterlimit="10" d="M138,244.5c-7.4,0-13.4,6-13.4,13.4c0,7.4,6,13.4,13.4,13.4
			s13.4-6,13.4-13.4C151.4,250.6,145.4,244.5,138,244.5z"/>
	</g>
	<g>
		<path fill="#F1F2F2" stroke="#848484" stroke-miterlimit="10" d="M178.4,201.9c7.4,0,13.4-2.2,13.4-5c0-2.7-6-5-13.4-5
			s-13.4,2.2-13.4,5C165,199.7,171,201.9,178.4,201.9z"/>
		<path fill="#F1F2F2" stroke="#848484" stroke-miterlimit="10" d="M178.4,224.4c7.4,0,13.4-6,13.4-13.4s-6-13.4-13.4-13.4
			s-13.4,6-13.4,13.4S171,224.4,178.4,224.4z"/>
	</g>
	<g>
		<path fill="#F1F2F2" stroke="#848484" stroke-miterlimit="10" d="M138,200.8c7.4,0,13.4-2.2,13.4-5c0-2.7-6-5-13.4-5
			s-13.4,2.2-13.4,5C124.6,198.5,130.6,200.8,138,200.8z"/>
		<path fill="#F1F2F2" stroke="#848484" stroke-miterlimit="10" d="M138,223.2c7.4,0,13.4-6,13.4-13.4s-6-13.4-13.4-13.4
			s-13.4,6-13.4,13.4S130.6,223.2,138,223.2z"/>
	</g>
	<g>
		<path fill="#F1F2F2" stroke="#848484" stroke-miterlimit="10" d="M178.4,265.5c-7.4,0-13.4,2.2-13.4,5c0,2.7,6,5,13.4,5
			c7.4,0,13.4-2.2,13.4-5C191.8,267.7,185.8,265.5,178.4,265.5z"/>
		<path fill="#F1F2F2" stroke="#848484" stroke-miterlimit="10" d="M178.4,243c-7.4,0-13.4,6-13.4,13.4s6,13.4,13.4,13.4
			c7.4,0,13.4-6,13.4-13.4S185.8,243,178.4,243z"/>
	</g>
	<rect x="111.7" y="206.6" fill="#F1F2F2" stroke="#848484" stroke-miterlimit="10" width="93.8" height="54.1"/>
</g>
<g>
	
		<rect x="42.2" y="21.2" fill-rule="evenodd" clip-rule="evenodd" fill="#F1F2F2" stroke="#848484" stroke-miterlimit="10" width="37.2" height="2.6"/>
	
		<rect x="42.2" y="21.2" fill-rule="evenodd" clip-rule="evenodd" fill="#F1F2F2" stroke="#848484" stroke-miterlimit="10" width="37.2" height="2.6"/>
	
		<rect x="67.5" y="62.9" fill-rule="evenodd" clip-rule="evenodd" fill="#F1F2F2" stroke="#848484" stroke-miterlimit="10" width="12.2" height="3.6"/>
	
		<rect x="67.5" y="62.9" fill-rule="evenodd" clip-rule="evenodd" fill="#F1F2F2" stroke="#848484" stroke-miterlimit="10" width="12.2" height="3.6"/>
	
		<rect x="40.5" y="23.6" fill-rule="evenodd" clip-rule="evenodd" fill="#F1F2F2" stroke="#848484" stroke-miterlimit="10" width="40.9" height="40.8"/>
	
		<rect x="40.5" y="23.6" fill-rule="evenodd" clip-rule="evenodd" fill="#F1F2F2" stroke="#848484" stroke-miterlimit="10" width="40.9" height="40.8"/>
	<path fill-rule="evenodd" clip-rule="evenodd" fill="#F1F2F2" stroke="#848484" stroke-miterlimit="10" d="M40.5,60.7l40.9,0
		L40.5,60.7z"/>
	<path fill-rule="evenodd" clip-rule="evenodd" fill="#F1F2F2" stroke="#848484" stroke-miterlimit="10" d="M38.5,60.6
		c0-0.8,0.7-1.6,1.6-1.6c1,0,1.6,0.8,1.6,1.6c0,1-0.7,1.8-1.6,1.8C39.2,62.3,38.5,61.5,38.5,60.6z"/>
	<path fill-rule="evenodd" clip-rule="evenodd" fill="#F1F2F2" stroke="#848484" stroke-miterlimit="10" d="M38.5,60.6
		c0-0.8,0.7-1.6,1.6-1.6c1,0,1.6,0.8,1.6,1.6c0,1-0.7,1.8-1.6,1.8C39.2,62.3,38.5,61.5,38.5,60.6z"/>
	<path fill-rule="evenodd" clip-rule="evenodd" fill="#F1F2F2" stroke="#848484" stroke-miterlimit="10" d="M61.1,39.7l0,7.2
		L61.1,39.7z"/>
	<path fill-rule="evenodd" clip-rule="evenodd" fill="#F1F2F2" stroke="#848484" stroke-miterlimit="10" d="M57.6,43.2l7.2,0
		L57.6,43.2z"/>
	<path fill-rule="evenodd" clip-rule="evenodd" fill="#F1F2F2" stroke="#848484" stroke-miterlimit="10" d="M58.6,45.9l5.2-5.2
		L58.6,45.9z"/>
	<path fill-rule="evenodd" clip-rule="evenodd" fill="#F1F2F2" stroke="#848484" stroke-miterlimit="10" d="M63.8,45.9l-5.2-5.2
		L63.8,45.9z"/>
	<path fill-rule="evenodd" clip-rule="evenodd" fill="#F1F2F2" stroke="#848484" stroke-miterlimit="10" d="M50.5,39.5l0,7.2
		L50.5,39.5z"/>
	<path fill-rule="evenodd" clip-rule="evenodd" fill="#F1F2F2" stroke="#848484" stroke-miterlimit="10" d="M47,43l7.2,0L47,43z"/>
	<path fill-rule="evenodd" clip-rule="evenodd" fill="#F1F2F2" stroke="#848484" stroke-miterlimit="10" d="M48,45.7l5.2-5.2
		L48,45.7z"/>
	<path fill-rule="evenodd" clip-rule="evenodd" fill="#F1F2F2" stroke="#848484" stroke-miterlimit="10" d="M53.2,45.7L48,40.4
		L53.2,45.7z"/>
	<path fill-rule="evenodd" clip-rule="evenodd" fill="#F1F2F2" stroke="#848484" stroke-miterlimit="10" d="M71.5,39.7l0,7.2
		L71.5,39.7z"/>
	<path fill-rule="evenodd" clip-rule="evenodd" fill="#F1F2F2" stroke="#848484" stroke-miterlimit="10" d="M68,43.2l7.2,0L68,43.2z
		"/>
	<path fill-rule="evenodd" clip-rule="evenodd" fill="#F1F2F2" stroke="#848484" stroke-miterlimit="10" d="M68.9,45.9l5.2-5.2
		L68.9,45.9z"/>
	<path fill-rule="evenodd" clip-rule="evenodd" fill="#F1F2F2" stroke="#848484" stroke-miterlimit="10" d="M74.1,45.9l-5.2-5.2
		L74.1,45.9z"/>
</g>
<g>
	
		<rect x="323.7" y="22.2" transform="matrix(-1 -4.489132e-11 4.489132e-11 -1 739.4312 76.1547)" fill-rule="evenodd" clip-rule="evenodd" fill="#F1F2F2" stroke="#848484" stroke-miterlimit="10" width="92" height="31.8"/>
	<line fill="#F1F2F2" stroke="#848484" stroke-miterlimit="10" x1="412.4" y1="22.2" x2="412.4" y2="54"/>
	<line fill="#F1F2F2" stroke="#848484" stroke-miterlimit="10" x1="327.1" y1="22.2" x2="327.1" y2="54"/>
	<line fill="#F1F2F2" stroke="#848484" stroke-miterlimit="10" x1="412.4" y1="52.5" x2="327.1" y2="52.5"/>
	<line fill="#F1F2F2" stroke="#848484" stroke-miterlimit="10" x1="330.1" y1="37.8" x2="409.4" y2="37.8"/>
	
		<rect x="404.3" y="28.3" transform="matrix(-0.9868 0.162 -0.162 -0.9868 811.4059 9.8819)" fill="#F1F2F2" stroke="#848484" stroke-miterlimit="10" width="2" height="19.4"/>
	
		<rect x="397.2" y="28.3" transform="matrix(-0.9961 8.815246e-02 -8.815246e-02 -0.9961 798.1469 40.781)" fill="#F1F2F2" stroke="#848484" stroke-miterlimit="10" width="2" height="19.4"/>
	
		<rect x="390" y="28.2" transform="matrix(-0.9734 0.229 -0.229 -0.9734 780.1922 -14.8371)" fill="#F1F2F2" stroke="#848484" stroke-miterlimit="10" width="2" height="19.4"/>
	
		<rect x="381.9" y="28.4" transform="matrix(-0.9884 0.152 -0.152 -0.9884 767.1458 17.4703)" fill="#F1F2F2" stroke="#848484" stroke-miterlimit="10" width="2" height="19.4"/>
	
		<rect x="374.9" y="28.3" transform="matrix(-0.999 4.511170e-02 -4.511170e-02 -0.999 753.0943 58.9189)" fill="#F1F2F2" stroke="#848484" stroke-miterlimit="10" width="2" height="19.4"/>
	
		<rect x="367.8" y="28.3" transform="matrix(-0.9884 0.152 -0.152 -0.9884 739.0299 19.4042)" fill="#F1F2F2" stroke="#848484" stroke-miterlimit="10" width="2" height="19.4"/>
	
		<rect x="360.6" y="28.2" transform="matrix(-0.999 4.511170e-02 -4.511170e-02 -0.999 724.4474 59.3494)" fill="#F1F2F2" stroke="#848484" stroke-miterlimit="10" width="2" height="19.4"/>
	
		<rect x="353.5" y="28.2" transform="matrix(-0.9787 0.2052 -0.2052 -0.9787 709.1761 2.1668)" fill="#F1F2F2" stroke="#848484" stroke-miterlimit="10" width="2" height="19.4"/>
	
		<rect x="346.4" y="28.2" transform="matrix(-0.9884 0.152 -0.152 -0.9884 696.5137 22.4797)" fill="#F1F2F2" stroke="#848484" stroke-miterlimit="10" width="2" height="19.4"/>
	
		<rect x="339.3" y="28.2" transform="matrix(-0.9964 8.473843e-02 -8.473843e-02 -0.9964 682.6214 46.724)" fill="#F1F2F2" stroke="#848484" stroke-miterlimit="10" width="2" height="19.4"/>
	
		<rect x="332.2" y="28.4" transform="matrix(-0.9713 0.2379 -0.2379 -0.9713 665.9737 -4.2079)" fill="#F1F2F2" stroke="#848484" stroke-miterlimit="10" width="2" height="19.4"/>
</g>
<g>
	<path fill="#F1F2F2" stroke="#848484" stroke-miterlimit="10" d="M449.6,274.6c-0.3-3.4-0.4-13.2,4.4-20.2c4.3-6.2,12-11,15.7-12.4
		h71.1v32.5h-71.1C463,274.6,456.3,274.6,449.6,274.6z M469.7,242.1v32.5"/>
	
		<rect x="529.5" y="271.2" transform="matrix(1.794825e-12 1 -1 1.794825e-12 804.0909 -258.8932)" fill="#F1F2F2" stroke="#848484" stroke-miterlimit="10" width="4.1" height="2.9"/>
	
		<rect x="511.9" y="271.2" transform="matrix(1.346295e-12 1 -1 1.346295e-12 786.5056 -241.308)" fill="#F1F2F2" stroke="#848484" stroke-miterlimit="10" width="4.1" height="2.9"/>
	
		<rect x="494.5" y="271.2" transform="matrix(2.692773e-12 1 -1 2.692773e-12 769.1002 -223.9025)" fill="#F1F2F2" stroke="#848484" stroke-miterlimit="10" width="4.1" height="2.9"/>
	
		<rect x="476.9" y="271.2" transform="matrix(2.243355e-12 1 -1 2.243355e-12 751.515 -206.3173)" fill="#F1F2F2" stroke="#848484" stroke-miterlimit="10" width="4.1" height="2.9"/>
	
		<rect x="531.2" y="270.8" transform="matrix(-1.836970e-16 1 -1 -1.836970e-16 805.7964 -257.1877)" fill="#F1F2F2" stroke="#848484" stroke-miterlimit="10" width="0.7" height="7"/>
	
		<rect x="513.6" y="270.8" transform="matrix(5.383954e-12 1 -1 5.383954e-12 788.2831 -239.6743)" fill="#F1F2F2" stroke="#848484" stroke-miterlimit="10" width="0.7" height="7"/>
	
		<rect x="496.2" y="270.8" transform="matrix(5.383954e-12 1 -1 5.383954e-12 770.8057 -222.197)" fill="#F1F2F2" stroke="#848484" stroke-miterlimit="10" width="0.7" height="7"/>
	
		<rect x="478.6" y="270.8" transform="matrix(5.383954e-12 1 -1 5.383954e-12 753.2205 -204.6118)" fill="#F1F2F2" stroke="#848484" stroke-miterlimit="10" width="0.7" height="7"/>
</g>
<g>
	<g>
		
			<rect x="407.3" y="554.2" transform="matrix(-1 -1.224647e-16 1.224647e-16 -1 946.6872 1210.8962)" fill-rule="evenodd" clip-rule="evenodd" fill="#F1F2F2" stroke="#848484" stroke-miterlimit="10" width="132.1" height="102.5"/>
		
			<rect x="411" y="556.5" transform="matrix(-1 -1.224647e-16 1.224647e-16 -1 945.114 1210.7886)" fill-rule="evenodd" clip-rule="evenodd" fill="#F1F2F2" stroke="#848484" stroke-miterlimit="10" width="123.1" height="97.8"/>
		
			<rect x="503.2" y="613.4" transform="matrix(-1 -2.621351e-13 2.621351e-13 -1 1034.0989 1264.8125)" fill-rule="evenodd" clip-rule="evenodd" fill="#F1F2F2" stroke="#848484" stroke-miterlimit="10" width="27.8" height="38"/>
		
			<rect x="503.2" y="559.7" transform="matrix(-1 -1.964099e-13 1.964099e-13 -1 1034.0989 1157.33)" fill-rule="evenodd" clip-rule="evenodd" fill="#F1F2F2" stroke="#848484" stroke-miterlimit="10" width="27.8" height="38"/>
		<polygon fill-rule="evenodd" clip-rule="evenodd" fill="#F1F2F2" stroke="#848484" stroke-miterlimit="10" points="489,654.3 
			506,625.1 506,585.7 506,625.1 506,585.7 489,556.5 411,556.5 411,556.6 411,654.3 		"/>
		<polyline fill-rule="evenodd" clip-rule="evenodd" fill="#F1F2F2" stroke="#848484" stroke-miterlimit="10" points="489,654.3 
			476.6,633.8 506,625.1 		"/>
		
			<line fill-rule="evenodd" clip-rule="evenodd" fill="#F1F2F2" stroke="#848484" stroke-miterlimit="10" x1="506" y1="625.1" x2="489" y2="654.3"/>
		<polyline fill-rule="evenodd" clip-rule="evenodd" fill="#F1F2F2" stroke="#848484" stroke-miterlimit="10" points="489,556.5 
			476.6,577 506,585.7 		"/>
		
			<line fill-rule="evenodd" clip-rule="evenodd" fill="#F1F2F2" stroke="#848484" stroke-miterlimit="10" x1="506" y1="585.7" x2="489" y2="556.5"/>
	</g>
</g>
<g>
	
		<rect x="423.4" y="481.5" fill-rule="evenodd" clip-rule="evenodd" fill="#F1F2F2" stroke="#848484" stroke-miterlimit="10" width="116.8" height="40.3"/>
	<line fill="#F1F2F2" stroke="#848484" stroke-miterlimit="10" x1="427.6" y1="521.8" x2="427.6" y2="481.4"/>
	<line fill="#F1F2F2" stroke="#848484" stroke-miterlimit="10" x1="535.9" y1="521.8" x2="535.9" y2="481.5"/>
	<line fill="#F1F2F2" stroke="#848484" stroke-miterlimit="10" x1="427.6" y1="483.4" x2="535.9" y2="483.4"/>
	<line fill="#F1F2F2" stroke="#848484" stroke-miterlimit="10" x1="532.1" y1="502" x2="431.4" y2="502"/>
	
		<rect x="435.4" y="489.5" transform="matrix(0.9868 -0.162 0.162 0.9868 -75.5031 77.3472)" fill="#F1F2F2" stroke="#848484" stroke-miterlimit="10" width="2.5" height="24.6"/>
	
		<rect x="444.4" y="489.5" transform="matrix(0.9961 -8.815246e-02 8.815246e-02 0.9961 -42.4964 41.2427)" fill="#F1F2F2" stroke="#848484" stroke-miterlimit="10" width="2.5" height="24.6"/>
	
		<rect x="453.6" y="489.7" transform="matrix(0.9734 -0.229 0.229 0.9734 -102.8646 117.5031)" fill="#F1F2F2" stroke="#848484" stroke-miterlimit="10" width="2.5" height="24.6"/>
	
		<rect x="463.8" y="489.4" transform="matrix(0.9884 -0.152 0.152 0.9884 -70.8717 76.5451)" fill="#F1F2F2" stroke="#848484" stroke-miterlimit="10" width="2.5" height="24.6"/>
	
		<rect x="472.7" y="489.5" transform="matrix(0.999 -4.511170e-02 4.511170e-02 0.999 -22.156 21.8941)" fill="#F1F2F2" stroke="#848484" stroke-miterlimit="10" width="2.5" height="24.6"/>
	
		<rect x="481.8" y="489.5" transform="matrix(0.9884 -0.152 0.152 0.9884 -70.6839 79.2753)" fill="#F1F2F2" stroke="#848484" stroke-miterlimit="10" width="2.5" height="24.6"/>
	
		<rect x="490.9" y="489.7" transform="matrix(0.999 -4.511170e-02 4.511170e-02 0.999 -22.1437 22.715)" fill="#F1F2F2" stroke="#848484" stroke-miterlimit="10" width="2.5" height="24.6"/>
	
		<rect x="499.9" y="489.7" transform="matrix(0.9787 -0.2052 0.2052 0.9787 -92.3256 113.5053)" fill="#F1F2F2" stroke="#848484" stroke-miterlimit="10" width="2.5" height="24.6"/>
	
		<rect x="508.9" y="489.7" transform="matrix(0.9884 -0.152 0.152 0.9884 -70.3852 83.4038)" fill="#F1F2F2" stroke="#848484" stroke-miterlimit="10" width="2.5" height="24.6"/>
	
		<rect x="517.9" y="489.7" transform="matrix(0.9964 -8.473843e-02 8.473843e-02 0.9964 -40.6689 45.7989)" fill="#F1F2F2" stroke="#848484" stroke-miterlimit="10" width="2.5" height="24.6"/>
	
		<rect x="526.9" y="489.4" transform="matrix(0.9713 -0.2379 0.2379 0.9713 -104.1919 140.0653)" fill="#F1F2F2" stroke="#848484" stroke-miterlimit="10" width="2.5" height="24.6"/>
</g>
<g>
	<g>
		<path fill="#F1F2F2" stroke="#848484" stroke-miterlimit="10" d="M523.4,714.9l-27.5,0c-1.1,0-2,0.9-2,2l0,24.8c0,1.1,0.9,2,2,2
			l27.5,0c1.1,0,2-0.9,2-2l0-24.8C525.4,715.8,524.5,714.9,523.4,714.9z"/>
		<path fill="#F1F2F2" stroke="#848484" stroke-miterlimit="10" d="M524,714.9l-28.8,0c-0.8,0-1.4-0.6-1.4-1.4l0-4.1
			c0-0.8,0.6-1.4,1.4-1.4l28.8,0c0.8,0,1.4,0.6,1.4,1.4l0,4.1C525.4,714.3,524.8,714.9,524,714.9z"/>
	</g>
	
		<rect x="477.5" y="731.2" fill-rule="evenodd" clip-rule="evenodd" fill="#F1F2F2" stroke="#848484" stroke-miterlimit="10" width="64.4" height="33.8"/>
	
		<rect x="412.2" y="731.2" fill-rule="evenodd" clip-rule="evenodd" fill="#F1F2F2" stroke="#848484" stroke-miterlimit="10" width="65.3" height="33.8"/>
</g>
<g>
	<g>
		
			<rect x="341.8" y="544.6" fill-rule="evenodd" clip-rule="evenodd" fill="#F1F2F2" stroke="#848484" stroke-miterlimit="10" width="4.4" height="87.8"/>
		<polygon fill-rule="evenodd" clip-rule="evenodd" fill="#F1F2F2" stroke="#848484" stroke-miterlimit="10" points="341.8,552 
			338.3,566.1 338.3,610.7 341.8,624.9 		"/>
		
			<rect x="334.5" y="581" transform="matrix(-1 -5.094515e-11 5.094515e-11 -1 672.7853 1176.876)" fill-rule="evenodd" clip-rule="evenodd" fill="#F1F2F2" stroke="#848484" stroke-miterlimit="10" width="3.9" height="15"/>
	</g>
</g>
<g>
	<g>
		
			<rect x="57.1" y="547.9" transform="matrix(6.123234e-17 -1 1 6.123234e-17 -476.2764 720.3685)" fill-rule="evenodd" clip-rule="evenodd" fill="#F1F2F2" stroke="#848484" stroke-miterlimit="10" width="129.8" height="100.7"/>
		
			<rect x="61.6" y="549.5" transform="matrix(6.123234e-17 -1 1 6.123234e-17 -475.4506 719.6484)" fill-rule="evenodd" clip-rule="evenodd" fill="#F1F2F2" stroke="#848484" stroke-miterlimit="10" width="121" height="96.1"/>
		
			<rect x="81.9" y="622.6" transform="matrix(1.999014e-13 -1 1 1.999014e-13 -545.7147 736.8257)" fill-rule="evenodd" clip-rule="evenodd" fill="#F1F2F2" stroke="#848484" stroke-miterlimit="10" width="27.3" height="37.3"/>
		
			<rect x="134.7" y="622.6" transform="matrix(1.332880e-13 -1 1 1.332880e-13 -492.9056 789.6348)" fill-rule="evenodd" clip-rule="evenodd" fill="#F1F2F2" stroke="#848484" stroke-miterlimit="10" width="27.3" height="37.3"/>
		<polygon fill-rule="evenodd" clip-rule="evenodd" fill="#F1F2F2" stroke="#848484" stroke-miterlimit="10" points="74,613.7 
			102.7,630.4 141.5,630.4 102.7,630.4 141.5,630.4 170.2,613.7 170.2,537.1 170.1,537.1 74,537.1 		"/>
		<polyline fill-rule="evenodd" clip-rule="evenodd" fill="#F1F2F2" stroke="#848484" stroke-miterlimit="10" points="74,613.7 
			94.2,601.5 102.7,630.4 		"/>
		
			<line fill-rule="evenodd" clip-rule="evenodd" fill="#F1F2F2" stroke="#848484" stroke-miterlimit="10" x1="102.7" y1="630.4" x2="74" y2="613.7"/>
		<polyline fill-rule="evenodd" clip-rule="evenodd" fill="#F1F2F2" stroke="#848484" stroke-miterlimit="10" points="170.2,613.7 
			150,601.5 141.5,630.4 		"/>
		
			<line fill-rule="evenodd" clip-rule="evenodd" fill="#F1F2F2" stroke="#848484" stroke-miterlimit="10" x1="141.5" y1="630.4" x2="170.2" y2="613.7"/>
	</g>
	<g>
		<rect x="174.3" y="637.5" fill="#F1F2F2" stroke="#848484" stroke-miterlimit="10" width="35.5" height="25.8"/>
		<rect x="184.5" y="635.8" fill="#F1F2F2" stroke="#848484" stroke-miterlimit="10" width="14.9" height="1.7"/>
	</g>
	<g>
		<rect x="34.2" y="637.5" fill="#F1F2F2" stroke="#848484" stroke-miterlimit="10" width="35.5" height="25.8"/>
		<rect x="44.4" y="635.8" fill="#F1F2F2" stroke="#848484" stroke-miterlimit="10" width="14.9" height="1.7"/>
	</g>
</g>
<g>
	
		<rect x="249.8" y="590.2" transform="matrix(-4.489139e-11 1 -1 -4.489139e-11 913.2305 304.745)" fill-rule="evenodd" clip-rule="evenodd" fill="#F1F2F2" stroke="#848484" stroke-miterlimit="10" width="108.9" height="37.6"/>
	<line fill="#F1F2F2" stroke="#848484" stroke-miterlimit="10" x1="285.4" y1="558.5" x2="323.1" y2="558.5"/>
	<line fill="#F1F2F2" stroke="#848484" stroke-miterlimit="10" x1="285.4" y1="659.4" x2="323" y2="659.4"/>
	<line fill="#F1F2F2" stroke="#848484" stroke-miterlimit="10" x1="321.3" y1="558.5" x2="321.3" y2="659.4"/>
	<line fill="#F1F2F2" stroke="#848484" stroke-miterlimit="10" x1="304" y1="655.9" x2="304" y2="562"/>
	
		<rect x="303" y="555.4" transform="matrix(0.162 0.9868 -0.9868 0.162 814.2707 174.8889)" fill="#F1F2F2" stroke="#848484" stroke-miterlimit="10" width="2.4" height="22.9"/>
	
		<rect x="303" y="563.8" transform="matrix(8.815246e-02 0.9961 -0.9961 8.815246e-02 850.4069 221.5939)" fill="#F1F2F2" stroke="#848484" stroke-miterlimit="10" width="2.4" height="22.9"/>
	
		<rect x="302.8" y="572.4" transform="matrix(0.229 0.9734 -0.9734 0.229 802.6835 154.2419)" fill="#F1F2F2" stroke="#848484" stroke-miterlimit="10" width="2.4" height="22.9"/>
	
		<rect x="303.1" y="581.9" transform="matrix(0.152 0.9884 -0.9884 0.152 844.4448 202.462)" fill="#F1F2F2" stroke="#848484" stroke-miterlimit="10" width="2.4" height="22.9"/>
	
		<rect x="302.9" y="590.2" transform="matrix(4.511170e-02 0.999 -0.999 4.511170e-02 891.455 270.7518)" fill="#F1F2F2" stroke="#848484" stroke-miterlimit="10" width="2.4" height="22.9"/>
	
		<rect x="302.9" y="598.6" transform="matrix(0.152 0.9884 -0.9884 0.152 860.8753 216.7777)" fill="#F1F2F2" stroke="#848484" stroke-miterlimit="10" width="2.4" height="22.9"/>
	
		<rect x="302.8" y="607.2" transform="matrix(4.511170e-02 0.999 -0.999 4.511170e-02 908.2818 287.0803)" fill="#F1F2F2" stroke="#848484" stroke-miterlimit="10" width="2.4" height="22.9"/>
	
		<rect x="302.8" y="615.6" transform="matrix(0.2052 0.9787 -0.9787 0.2052 855.3023 200.8813)" fill="#F1F2F2" stroke="#848484" stroke-miterlimit="10" width="2.4" height="22.9"/>
	
		<rect x="302.8" y="624" transform="matrix(0.152 0.9884 -0.9884 0.152 885.8038 238.3431)" fill="#F1F2F2" stroke="#848484" stroke-miterlimit="10" width="2.4" height="22.9"/>
	
		<rect x="302.8" y="632.3" transform="matrix(8.473843e-02 0.9964 -0.9964 8.473843e-02 919.6949 286.3626)" fill="#F1F2F2" stroke="#848484" stroke-miterlimit="10" width="2.4" height="22.9"/>
	
		<rect x="303.1" y="640.7" transform="matrix(0.2379 0.9713 -0.9713 0.2379 865.3141 201.4953)" fill="#F1F2F2" stroke="#848484" stroke-miterlimit="10" width="2.4" height="22.9"/>
</g>
<g>
	
		<rect x="274.4" y="504.9" transform="matrix(-1.836970e-16 1 -1 -1.836970e-16 827.3814 209.0031)" fill-rule="evenodd" clip-rule="evenodd" fill="#F1F2F2" stroke="#848484" stroke-miterlimit="10" width="69.6" height="26.6"/>
	
		<rect x="293.8" y="512.8" transform="matrix(-1.836970e-16 1 -1 -1.836970e-16 808.721 219.4194)" fill-rule="evenodd" clip-rule="evenodd" fill="#F1F2F2" stroke="#848484" stroke-miterlimit="10" width="1.7" height="2.5"/>
	
		<rect x="293.8" y="521.2" transform="matrix(-1.836970e-16 1 -1 -1.836970e-16 817.0663 227.7647)" fill-rule="evenodd" clip-rule="evenodd" fill="#F1F2F2" stroke="#848484" stroke-miterlimit="10" width="1.7" height="2.5"/>
</g>
<g>
	<path fill-rule="evenodd" clip-rule="evenodd" fill="#F1F2F2" stroke="#848484" stroke-miterlimit="10" d="M118.3,401.4h19.6v16.3
		h-19.6V401.4L118.3,401.4z M210.9,401.4v24.3h-73v-24.3H210.9z"/>
	<path fill-rule="evenodd" clip-rule="evenodd" fill="#F1F2F2" stroke="#848484" stroke-miterlimit="10" d="M181.7,410
		c0-4.2-3.8-4.6-8.6-4.6c-4.7,0-8.5,0.4-8.5,4.6s3.8,7.7,8.5,7.7C177.9,417.7,181.7,414.3,181.7,410z"/>
	
		<rect x="144.4" y="410.8" fill-rule="evenodd" clip-rule="evenodd" fill="#F1F2F2" stroke="#848484" stroke-miterlimit="10" width="57.3" height="3.2"/>
	
		<rect x="144.4" y="410.8" fill-rule="evenodd" clip-rule="evenodd" fill="#F1F2F2" stroke="#848484" stroke-miterlimit="10" width="57.3" height="3.2"/>
	<polygon fill-rule="evenodd" clip-rule="evenodd" fill="#F1F2F2" stroke="#848484" stroke-miterlimit="10" points="196.9,411 
		187.7,408.3 158.5,408.3 149.3,411 	"/>
	<polygon fill-rule="evenodd" clip-rule="evenodd" fill="#F1F2F2" stroke="#848484" stroke-miterlimit="10" points="196.9,411 
		187.7,408.3 158.5,408.3 149.3,411 	"/>
	<path fill-rule="evenodd" clip-rule="evenodd" fill="#F1F2F2" stroke="#848484" stroke-miterlimit="10" d="M120,419.4h16.2v1.6H120
		V419.4L120,419.4z M210.9,401.4h19.6v16.3h-19.6V401.4L210.9,401.4z M228.8,419.4v1.6h-16.2v-1.6H228.8z"/>
</g>
<g>
</g>
<g>
</g>
<g>
</g>
<g>
</g>
<g>
</g>
<g>
</g>
</svg>
