<?xml version="1.0" encoding="utf-8"?>
<!-- Generator: Adobe Illustrator 23.0.2, SVG Export Plug-In . SVG Version: 6.00 Build 0)  -->
<svg version="1.1" id="Слой_1" xmlns="http://www.w3.org/2000/svg" xmlns:xlink="http://www.w3.org/1999/xlink" x="0px" y="0px"
	 viewBox="0 0 800 641.5" enable-background="new 0 0 800 641.5" xml:space="preserve">
<polygon fill-rule="evenodd" clip-rule="evenodd" fill="#F1F2F2" stroke="#848484" stroke-miterlimit="10" points="730.3,609.6 
	730.3,415.3 670.1,415.3 670.1,555.2 529.4,555.2 529.4,609.6 "/>
<g>
	<g>
		
			<rect x="108.1" y="47.8" transform="matrix(-1.836970e-16 1 -1 -1.836970e-16 317.1919 -80.5922)" fill-rule="evenodd" clip-rule="evenodd" fill="#F1F2F2" stroke="#848484" stroke-miterlimit="10" width="181.7" height="141"/>
		
			<rect x="114.3" y="52.1" transform="matrix(-1.836970e-16 1 -1 -1.836970e-16 318.3477 -79.5844)" fill-rule="evenodd" clip-rule="evenodd" fill="#F1F2F2" stroke="#848484" stroke-miterlimit="10" width="169.3" height="134.5"/>
		
			<rect x="142.7" y="32.1" transform="matrix(2.138673e-13 1 -1 2.138673e-13 220.0091 -103.6251)" fill-rule="evenodd" clip-rule="evenodd" fill="#F1F2F2" stroke="#848484" stroke-miterlimit="10" width="38.2" height="52.3"/>
		
			<rect x="216.6" y="32.1" transform="matrix(-1.836970e-16 1 -1 -1.836970e-16 293.9185 -177.5344)" fill-rule="evenodd" clip-rule="evenodd" fill="#F1F2F2" stroke="#848484" stroke-miterlimit="10" width="38.2" height="52.3"/>
		<polygon fill-rule="evenodd" clip-rule="evenodd" fill="#F1F2F2" stroke="#848484" stroke-miterlimit="10" points="131.7,96.8 
			171.8,73.4 226.1,73.4 171.8,73.4 226.1,73.4 266.2,96.8 266.2,204 266.1,204 131.7,204 		"/>
		<polyline fill-rule="evenodd" clip-rule="evenodd" fill="#F1F2F2" stroke="#848484" stroke-miterlimit="10" points="131.7,96.8 
			159.9,113.8 171.8,73.4 		"/>
		
			<line fill-rule="evenodd" clip-rule="evenodd" fill="#F1F2F2" stroke="#848484" stroke-miterlimit="10" x1="171.8" y1="73.4" x2="131.7" y2="96.8"/>
		<polyline fill-rule="evenodd" clip-rule="evenodd" fill="#F1F2F2" stroke="#848484" stroke-miterlimit="10" points="266.2,96.8 
			238.1,113.8 226.1,73.4 		"/>
		
			<line fill-rule="evenodd" clip-rule="evenodd" fill="#F1F2F2" stroke="#848484" stroke-miterlimit="10" x1="226.1" y1="73.4" x2="266.2" y2="96.8"/>
	</g>
	<g>
		<rect x="272" y="27.5" fill="#F1F2F2" stroke="#848484" stroke-miterlimit="10" width="49.6" height="36.1"/>
		<rect x="286.2" y="63.5" fill="#F1F2F2" stroke="#848484" stroke-miterlimit="10" width="20.8" height="2.3"/>
	</g>
	<g>
		<rect x="76" y="27.5" fill="#F1F2F2" stroke="#848484" stroke-miterlimit="10" width="49.6" height="36.1"/>
		<rect x="90.2" y="63.5" fill="#F1F2F2" stroke="#848484" stroke-miterlimit="10" width="20.8" height="2.3"/>
	</g>
</g>
<g>
	
		<rect x="313.8" y="77.3" transform="matrix(-4.489292e-11 -1 1 -4.489292e-11 285.9858 492.8629)" fill-rule="evenodd" clip-rule="evenodd" fill="#F1F2F2" stroke="#848484" stroke-miterlimit="10" width="151.3" height="52.2"/>
	<line fill="#F1F2F2" stroke="#848484" stroke-miterlimit="10" x1="363.3" y1="173.6" x2="415.6" y2="173.6"/>
	<line fill="#F1F2F2" stroke="#848484" stroke-miterlimit="10" x1="363.3" y1="33.4" x2="415.5" y2="33.4"/>
	<line fill="#F1F2F2" stroke="#848484" stroke-miterlimit="10" x1="413.1" y1="173.6" x2="413.1" y2="33.4"/>
	<line fill="#F1F2F2" stroke="#848484" stroke-miterlimit="10" x1="389" y1="38.3" x2="389" y2="168.7"/>
	
		<rect x="387.7" y="146" transform="matrix(0.162 -0.9868 0.9868 0.162 166.4295 519.9193)" fill="#F1F2F2" stroke="#848484" stroke-miterlimit="10" width="3.3" height="31.9"/>
	
		<rect x="387.7" y="134.3" transform="matrix(8.815246e-02 -0.9961 0.9961 8.815246e-02 205.337 524.8097)" fill="#F1F2F2" stroke="#848484" stroke-miterlimit="10" width="3.3" height="31.9"/>
	
		<rect x="387.4" y="122.5" transform="matrix(0.229 -0.9734 0.9734 0.229 165.2542 485.4008)" fill="#F1F2F2" stroke="#848484" stroke-miterlimit="10" width="3.3" height="31.9"/>
	
		<rect x="387.8" y="109.2" transform="matrix(0.152 -0.9884 0.9884 0.152 206.5192 490.9858)" fill="#F1F2F2" stroke="#848484" stroke-miterlimit="10" width="3.3" height="31.9"/>
	
		<rect x="387.6" y="97.7" transform="matrix(4.511170e-02 -0.999 0.999 4.511170e-02 258.2011 497.289)" fill="#F1F2F2" stroke="#848484" stroke-miterlimit="10" width="3.3" height="31.9"/>
	
		<rect x="387.6" y="86" transform="matrix(0.152 -0.9884 0.9884 0.152 229.3444 471.0985)" fill="#F1F2F2" stroke="#848484" stroke-miterlimit="10" width="3.3" height="31.9"/>
	
		<rect x="387.4" y="74.1" transform="matrix(4.511170e-02 -0.999 0.999 4.511170e-02 281.5767 474.6056)" fill="#F1F2F2" stroke="#848484" stroke-miterlimit="10" width="3.3" height="31.9"/>
	
		<rect x="387.4" y="62.4" transform="matrix(0.2052 -0.9787 0.9787 0.2052 232.5267 443.0639)" fill="#F1F2F2" stroke="#848484" stroke-miterlimit="10" width="3.3" height="31.9"/>
	
		<rect x="387.4" y="50.8" transform="matrix(0.152 -0.9884 0.9884 0.152 263.9749 441.1402)" fill="#F1F2F2" stroke="#848484" stroke-miterlimit="10" width="3.3" height="31.9"/>
	
		<rect x="387.4" y="39.2" transform="matrix(8.473843e-02 -0.9964 0.9964 8.473843e-02 301.1966 438.0651)" fill="#F1F2F2" stroke="#848484" stroke-miterlimit="10" width="3.3" height="31.9"/>
	
		<rect x="387.8" y="27.5" transform="matrix(0.2379 -0.9713 0.9713 0.2379 254.5899 411.3591)" fill="#F1F2F2" stroke="#848484" stroke-miterlimit="10" width="3.3" height="31.9"/>
</g>
<g>
	<g>
		
			<rect x="201.4" y="291.2" fill-rule="evenodd" clip-rule="evenodd" fill="#F1F2F2" stroke="#848484" stroke-miterlimit="10" width="102.4" height="5.2"/>
		<polygon fill-rule="evenodd" clip-rule="evenodd" fill="#F1F2F2" stroke="#848484" stroke-miterlimit="10" points="295.1,296.3 
			278.6,300.3 226.6,300.3 210.1,296.3 		"/>
		
			<rect x="250.4" y="293.8" transform="matrix(5.139071e-11 1 -1 5.139071e-11 555.17 49.9548)" fill-rule="evenodd" clip-rule="evenodd" fill="#F1F2F2" stroke="#848484" stroke-miterlimit="10" width="4.5" height="17.5"/>
	</g>
</g>
<g>
	
		<rect x="475.1" y="606.2" fill-rule="evenodd" clip-rule="evenodd" fill="#F1F2F2" stroke="#848484" stroke-miterlimit="10" width="48.2" height="3.4"/>
	
		<rect x="475.1" y="606.2" fill-rule="evenodd" clip-rule="evenodd" fill="#F1F2F2" stroke="#848484" stroke-miterlimit="10" width="48.2" height="3.4"/>
	
		<rect x="507.9" y="551" fill-rule="evenodd" clip-rule="evenodd" fill="#F1F2F2" stroke="#848484" stroke-miterlimit="10" width="15.8" height="4.7"/>
	
		<rect x="507.9" y="551" fill-rule="evenodd" clip-rule="evenodd" fill="#F1F2F2" stroke="#848484" stroke-miterlimit="10" width="15.8" height="4.7"/>
	
		<rect x="472.9" y="553.7" fill-rule="evenodd" clip-rule="evenodd" fill="#F1F2F2" stroke="#848484" stroke-miterlimit="10" width="52.9" height="52.8"/>
	
		<rect x="472.9" y="553.7" fill-rule="evenodd" clip-rule="evenodd" fill="#F1F2F2" stroke="#848484" stroke-miterlimit="10" width="52.9" height="52.8"/>
	<path fill-rule="evenodd" clip-rule="evenodd" fill="#F1F2F2" stroke="#848484" stroke-miterlimit="10" d="M472.9,558.5h52.9H472.9
		z"/>
	<path fill-rule="evenodd" clip-rule="evenodd" fill="#F1F2F2" stroke="#848484" stroke-miterlimit="10" d="M470.4,558.7
		c0,1,0.9,2.1,2.1,2.1c1.3,0,2.1-1,2.1-2.1c0-1.3-0.9-2.3-2.1-2.3C471.3,556.4,470.4,557.4,470.4,558.7z"/>
	<path fill-rule="evenodd" clip-rule="evenodd" fill="#F1F2F2" stroke="#848484" stroke-miterlimit="10" d="M470.4,558.7
		c0,1,0.9,2.1,2.1,2.1c1.3,0,2.1-1,2.1-2.1c0-1.3-0.9-2.3-2.1-2.3C471.3,556.4,470.4,557.4,470.4,558.7z"/>
	<path fill-rule="evenodd" clip-rule="evenodd" fill="#F1F2F2" stroke="#848484" stroke-miterlimit="10" d="M499.6,585.7v-9.3V585.7
		z"/>
	<path fill-rule="evenodd" clip-rule="evenodd" fill="#F1F2F2" stroke="#848484" stroke-miterlimit="10" d="M495.1,581.1h9.3H495.1z
		"/>
	<path fill-rule="evenodd" clip-rule="evenodd" fill="#F1F2F2" stroke="#848484" stroke-miterlimit="10" d="M496.4,577.7l6.8,6.8
		L496.4,577.7z"/>
	<path fill-rule="evenodd" clip-rule="evenodd" fill="#F1F2F2" stroke="#848484" stroke-miterlimit="10" d="M503,577.7l-6.8,6.8
		L503,577.7z"/>
	<path fill-rule="evenodd" clip-rule="evenodd" fill="#F1F2F2" stroke="#848484" stroke-miterlimit="10" d="M485.9,586v-9.3V586z"/>
	<path fill-rule="evenodd" clip-rule="evenodd" fill="#F1F2F2" stroke="#848484" stroke-miterlimit="10" d="M481.3,581.5h9.3H481.3z
		"/>
	<path fill-rule="evenodd" clip-rule="evenodd" fill="#F1F2F2" stroke="#848484" stroke-miterlimit="10" d="M482.7,578l6.8,6.8
		L482.7,578z"/>
	<path fill-rule="evenodd" clip-rule="evenodd" fill="#F1F2F2" stroke="#848484" stroke-miterlimit="10" d="M489.4,578l-6.8,6.8
		L489.4,578z"/>
	<path fill-rule="evenodd" clip-rule="evenodd" fill="#F1F2F2" stroke="#848484" stroke-miterlimit="10" d="M513,585.7v-9.3V585.7z"
		/>
	<path fill-rule="evenodd" clip-rule="evenodd" fill="#F1F2F2" stroke="#848484" stroke-miterlimit="10" d="M508.5,581.1h9.3H508.5z
		"/>
	<path fill-rule="evenodd" clip-rule="evenodd" fill="#F1F2F2" stroke="#848484" stroke-miterlimit="10" d="M509.7,577.7l6.8,6.8
		L509.7,577.7z"/>
	<path fill-rule="evenodd" clip-rule="evenodd" fill="#F1F2F2" stroke="#848484" stroke-miterlimit="10" d="M516.4,577.7l-6.8,6.8
		L516.4,577.7z"/>
</g>
<g>
	<path fill-rule="evenodd" clip-rule="evenodd" fill="#F1F2F2" stroke="#848484" stroke-miterlimit="10" d="M178.4,494.3v59.4v47.8
		c0,3.2,2.6,5.8,5.8,5.8h47.9H377c3.2,0,5.8-2.6,5.8-5.8v-47.8c0-3.2-2.6-5.8-5.8-5.8H243.7c-3.2,0-5.8-2.6-5.8-5.8v-47.9
		c0-3.2-2.6-5.8-5.8-5.8h-47.9C181,488.5,178.4,491.1,178.4,494.3z"/>
	<g>
		<path fill-rule="evenodd" clip-rule="evenodd" fill="#F1F2F2" stroke="#848484" stroke-miterlimit="10" d="M237.9,557.6
			c0-6.8-0.3-9.6-8.9-9.6h-25.5c-8.6,0-8.9,2.9-8.9,9.6v25.4c0,6.8,0.3,9.6,8.9,9.6H229c8.6,0,8.9-2.9,8.9-9.6V557.6z"/>
		<path fill-rule="evenodd" clip-rule="evenodd" fill="#F1F2F2" stroke="#848484" stroke-miterlimit="10" d="M237.9,557.6
			c0-6.8-0.3-9.6-8.9-9.6h-25.5c-8.6,0-8.9,2.9-8.9,9.6v25.4c0,6.8,0.3,9.6,8.9,9.6H229c8.6,0,8.9-2.9,8.9-9.6V557.6z"/>
		<path fill-rule="evenodd" clip-rule="evenodd" fill="#F1F2F2" stroke="#848484" stroke-miterlimit="10" d="M280.9,557.6
			c0-6.8-0.3-9.6-8.9-9.6h-25.5c-8.6,0-8.9,2.9-8.9,9.6v25.4c0,6.8,0.3,9.6,8.9,9.6H272c8.6,0,8.9-2.9,8.9-9.6V557.6z"/>
		<path fill-rule="evenodd" clip-rule="evenodd" fill="#F1F2F2" stroke="#848484" stroke-miterlimit="10" d="M280.9,557.6
			c0-6.8-0.3-9.6-8.9-9.6h-25.5c-8.6,0-8.9,2.9-8.9,9.6v25.4c0,6.8,0.3,9.6,8.9,9.6H272c8.6,0,8.9-2.9,8.9-9.6V557.6z"/>
		<path fill-rule="evenodd" clip-rule="evenodd" fill="#F1F2F2" stroke="#848484" stroke-miterlimit="10" d="M323.9,557.6
			c0-6.8-0.3-9.6-8.9-9.6h-25.6c-8.6,0-8.9,2.9-8.9,9.6v25.4c0,6.8,0.3,9.6,8.9,9.6h25.6c8.6,0,8.9-2.9,8.9-9.6V557.6z"/>
		<path fill-rule="evenodd" clip-rule="evenodd" fill="#F1F2F2" stroke="#848484" stroke-miterlimit="10" d="M323.9,557.6
			c0-6.8-0.3-9.6-8.9-9.6h-25.6c-8.6,0-8.9,2.9-8.9,9.6v25.4c0,6.8,0.3,9.6,8.9,9.6h25.6c8.6,0,8.9-2.9,8.9-9.6V557.6z"/>
		<path fill-rule="evenodd" clip-rule="evenodd" fill="#F1F2F2" stroke="#848484" stroke-miterlimit="10" d="M237.9,513
			c0-6.8-0.3-9.6-8.9-9.6h-25.5c-8.6,0-8.9,2.9-8.9,9.6v25.4c0,6.8,0.3,9.6,8.9,9.6H229c8.6,0,8.9-2.9,8.9-9.6V513z"/>
		<path fill-rule="evenodd" clip-rule="evenodd" fill="#F1F2F2" stroke="#848484" stroke-miterlimit="10" d="M366.9,557.7
			c0-6.8-0.3-9.6-8.9-9.6h-25.6c-8.6,0-8.9,2.9-8.9,9.6v25.4c0,6.8,0.3,9.6,8.9,9.6H358c8.6,0,8.9-2.9,8.9-9.6V557.7z"/>
		<path fill-rule="evenodd" clip-rule="evenodd" fill="#F1F2F2" stroke="#848484" stroke-miterlimit="10" d="M178.4,601.2v-104v-2.5
			c0-3.4,3-6.1,6.6-6.1h2.7h43.5c3.6,0,6.6,2.8,6.6,6.1v2.5c0,3.4-3,6.1-6.6,6.1h-36.9v89.2h172.5v-38.4c0-3.4,3-6.1,6.6-6.1h2.7
			c3.6,0,6.6,2.8,6.6,6.1v44.6v2.5c0,3.4-3,6.1-6.6,6.1h-2.7H187.7H185h0C181.4,607.4,178.4,604.6,178.4,601.2z"/>
	</g>
</g>
<g>
	<g>
		<path fill="#F1F2F2" stroke="#848484" stroke-miterlimit="10" d="M304.3,360.2c-8.7,0-15.7-2.6-15.7-5.8c0-3.2,7-5.8,15.7-5.8
			c8.7,0,15.7,2.6,15.7,5.8C320,357.6,312.9,360.2,304.3,360.2z"/>
		<path fill="#F1F2F2" stroke="#848484" stroke-miterlimit="10" d="M304.3,386.5c-8.7,0-15.7-7-15.7-15.7c0-8.7,7-15.7,15.7-15.7
			c8.7,0,15.7,7,15.7,15.7C320,379.5,312.9,386.5,304.3,386.5z"/>
	</g>
	<g>
		<path fill="#F1F2F2" stroke="#848484" stroke-miterlimit="10" d="M351.5,436.3c8.7,0,15.7,2.6,15.7,5.8c0,3.2-7,5.8-15.7,5.8
			s-15.7-2.6-15.7-5.8C335.8,438.9,342.8,436.3,351.5,436.3z"/>
		<path fill="#F1F2F2" stroke="#848484" stroke-miterlimit="10" d="M351.5,410c8.7,0,15.7,7,15.7,15.7c0,8.7-7,15.7-15.7,15.7
			s-15.7-7-15.7-15.7C335.8,417.1,342.8,410,351.5,410z"/>
	</g>
	<g>
		<path fill="#F1F2F2" stroke="#848484" stroke-miterlimit="10" d="M304.3,437.6c8.7,0,15.7,2.6,15.7,5.8c0,3.2-7,5.8-15.7,5.8
			c-8.7,0-15.7-2.6-15.7-5.8C288.6,440.2,295.6,437.6,304.3,437.6z"/>
		<path fill="#F1F2F2" stroke="#848484" stroke-miterlimit="10" d="M304.3,411.4c8.7,0,15.7,7,15.7,15.7c0,8.7-7,15.7-15.7,15.7
			c-8.7,0-15.7-7-15.7-15.7C288.6,418.4,295.6,411.4,304.3,411.4z"/>
	</g>
	<g>
		<path fill="#F1F2F2" stroke="#848484" stroke-miterlimit="10" d="M351.5,362c-8.7,0-15.7-2.6-15.7-5.8c0-3.2,7-5.8,15.7-5.8
			c8.7,0,15.7,2.6,15.7,5.8C367.1,359.4,360.1,362,351.5,362z"/>
		<path fill="#F1F2F2" stroke="#848484" stroke-miterlimit="10" d="M351.5,388.3c-8.7,0-15.7-7-15.7-15.7c0-8.7,7-15.7,15.7-15.7
			c8.7,0,15.7,7,15.7,15.7C367.1,381.3,360.1,388.3,351.5,388.3z"/>
	</g>
	<rect x="273.5" y="367.5" fill="#F1F2F2" stroke="#848484" stroke-miterlimit="10" width="109.5" height="63.2"/>
</g>
<g>
	<g>
		
			<rect x="275.4" y="328.7" fill-rule="evenodd" clip-rule="evenodd" fill="#F1F2F2" stroke="#848484" stroke-miterlimit="10" width="102.4" height="5.2"/>
		<polygon fill-rule="evenodd" clip-rule="evenodd" fill="#F1F2F2" stroke="#848484" stroke-miterlimit="10" points="284,328.7 
			300.5,324.7 352.5,324.7 369,328.7 		"/>
		
			<rect x="324.3" y="313.7" transform="matrix(-5.139083e-11 -1 1 -5.139083e-11 4.0972 648.9136)" fill-rule="evenodd" clip-rule="evenodd" fill="#F1F2F2" stroke="#848484" stroke-miterlimit="10" width="4.5" height="17.5"/>
	</g>
</g>
<g id="moyka_2_5_">
	<path fill="#F3F3F3" stroke="#838383" d="M681.9,475.4c-1.8,0-3.2-1.5-3.2-3.2v-47c0-1.8,1.5-3.2,3.2-3.2h38.9
		c1.8,0,3.2,1.5,3.2,3.2v47c0,1.8-1.5,3.2-3.2,3.2H681.9z"/>
	<path fill="#F3F3F3" stroke="#838383" d="M685.2,472.1c-1.8,0-3.2-1.5-3.2-3.2v-40.5c0-1.8,1.5-3.2,3.2-3.2h27.6
		c1.8,0,3.2,1.5,3.2,3.2v40.5c0,1.8-1.5,3.2-3.2,3.2H685.2z"/>
	<rect x="706.3" y="447.8" fill="#F3F3F3" stroke="#838383" width="13" height="3.2"/>
	<circle fill="#F3F3F3" stroke="#838383" cx="697.3" cy="448.6" r="2.4"/>
</g>
<g id="plita_5_">
	<rect x="670.5" y="496.8" fill="#F3F3F3" stroke="#838383" width="58.4" height="56.8"/>
	<circle fill="#F3F3F3" stroke="#838383" cx="685.1" cy="513" r="9.7"/>
	<circle fill="#F3F3F3" stroke="#838383" cx="709.4" cy="537.3" r="9.7"/>
	<circle fill="#F3F3F3" stroke="#838383" cx="685.1" cy="537.3" r="8.1"/>
	<circle fill="#F3F3F3" stroke="#838383" cx="709.4" cy="513" r="8.1"/>
</g>
<g id="unitaz_5_">
	<path fill="#F3F3F3" stroke="#838383" d="M660.4,26.2v11.4c0,1.8-1.5,3.2-3.2,3.2H628c-1.8,0-3.2-1.5-3.2-3.2V26.2H660.4z"/>
	<path fill="#F3F3F3" stroke="#838383" d="M657.2,40.8c1.8,0,3.2,1.5,3.2,3.2h-35.7c0-1.8,1.5-3.2,3.2-3.2H657.2z"/>
	<path fill="#F3F3F3" stroke="#838383" d="M642.6,86.2c-25.1,0-17.8-42.2-17.8-42.2h35.7C660.4,44.1,667.7,86.2,642.6,86.2z"/>
	<circle fill="#F3F3F3" stroke="#838383" cx="642.6" cy="32.7" r="3.2"/>
</g>
<g id="moyka_5_">
	<path fill="#F3F3F3" stroke="#838383" d="M582.6,27c1,0,1.8,0.8,1.8,1.8v35.4c0,1-0.8,1.8-1.8,1.8h-53.1c-1,0-1.8-0.8-1.8-1.8V28.8
		c0-1,0.8-1.8,1.8-1.8H582.6z"/>
	<rect x="527.8" y="32.3" fill="#F3F3F3" stroke="#838383" width="56.6" height="3.5"/>
	<ellipse fill="#F3F3F3" stroke="#838383" cx="557" cy="50.9" rx="18.6" ry="11.5"/>
	<rect x="554.3" y="32.3" fill="#F3F3F3" stroke="#838383" width="3.5" height="14.2"/>
	<circle fill="#F3F3F3" stroke="#838383" cx="555.2" cy="52.7" r="2.7"/>
</g>
<g id="stirka_4_">
	<rect x="671.9" y="138.2" fill="#F3F3F3" stroke="#838383" width="48.6" height="48.6"/>
	<path fill="#F3F3F3" stroke="#838383" d="M720.5,141.4v17.8h-4.9c-1.8,0-3.2-1.5-3.2-3.2v-11.4c0-1.8,1.5-3.2,3.2-3.2H720.5z"/>
	<circle fill="#F3F3F3" stroke="#838383" cx="694.6" cy="162.5" r="13"/>
	<circle fill="#F3F3F3" stroke="#838383" cx="694.6" cy="162.5" r="9.7"/>
	<circle fill="#F3F3F3" stroke="#838383" cx="712.4" cy="178.7" r="3.2"/>
</g>
<g id="vanna_4_">
	<rect x="444" y="27" fill="#F3F3F3" stroke="#838383" width="61.6" height="157.3"/>
	<path fill="#F3F3F3" stroke="#838383" d="M465,174.6c-9,0-16.2-7.3-16.2-16.2V49.7h51.9v108.6c0,9-7.3,16.2-16.2,16.2H465z"/>
	<path fill="#F3F3F3" stroke="#838383" d="M482.1,41.6h-21.9v5.7h13"/>
	<path id="Union_4_" fill="#F3F3F3" stroke="#838383" d="M482.9,40c-0.9,0-1.6,0.7-1.6,1.6c0,0.9,0.7,1.6,1.6,1.6h1.9
		c0.7,1.9,2.5,3.2,4.6,3.2c2.7,0,4.9-2.2,4.9-4.9c0-2.7-2.2-4.9-4.9-4.9c-2.1,0-3.9,1.4-4.6,3.2H482.9z"/>
	<rect x="473.2" y="44.9" fill="#F3F3F3" stroke="#838383" width="3.2" height="13"/>
</g>
<rect x="19.2" y="97.7" fill="#FFFFFF" stroke="#000000" stroke-miterlimit="10" width="6.9" height="140.7"/>
<rect x="6.3" y="101.5" fill="#FFFFFF" stroke="#000000" stroke-miterlimit="10" width="13" height="133.5"/>
<rect x="26.1" y="97.7" fill="#FFFFFF" stroke="#000000" stroke-miterlimit="10" width="13.8" height="140.7"/>
<rect x="19.2" y="228.6" fill="#FFFFFF" stroke="#000000" stroke-miterlimit="10" width="6.9" height="9.7"/>
<rect x="19.2" y="98.5" fill="#FFFFFF" stroke="#000000" stroke-miterlimit="10" width="6.9" height="12.7"/>
<rect x="19.2" y="162.9" fill="#FFFFFF" stroke="#000000" stroke-miterlimit="10" width="6.9" height="6.9"/>
<rect x="157.4" y="355.3" fill="#FFFFFF" stroke="#000000" stroke-miterlimit="10" width="6.8" height="146.8"/>
<rect x="157.4" y="492.4" fill="#FFFFFF" stroke="#000000" stroke-miterlimit="10" width="6.8" height="9.7"/>
<rect x="157.4" y="438" fill="#FFFFFF" stroke="#000000" stroke-miterlimit="10" width="6.8" height="9.5"/>
<rect x="157.4" y="355.3" fill="#FFFFFF" stroke="#000000" stroke-miterlimit="10" width="6.8" height="10.3"/>
<rect x="143.8" y="443.8" fill="#FFFFFF" stroke="#000000" stroke-miterlimit="10" width="13.6" height="55.7"/>
<rect x="164.2" y="443.8" fill="#FFFFFF" stroke="#000000" stroke-miterlimit="10" width="13.9" height="58.3"/>
<g>
	<rect x="6.7" y="346.9" fill="#FFFFFF" stroke="#000000" stroke-miterlimit="10" width="29.8" height="283"/>
	<rect x="19.2" y="346.9" fill="#FFFFFF" stroke="#000000" stroke-miterlimit="10" width="10.4" height="264.4"/>
	<rect x="22.7" y="346.9" fill="#FFFFFF" stroke="#000000" stroke-miterlimit="10" width="3.7" height="259.8"/>
</g>
<line fill="#FFFFFF" stroke="#000000" stroke-miterlimit="10" x1="603.4" y1="200.7" x2="540.4" y2="237.7"/>
<line fill="#FFFFFF" stroke="#000000" stroke-miterlimit="10" x1="747" y1="216.5" x2="796.3" y2="296"/>
<line fill="#FFFFFF" stroke="#000000" stroke-miterlimit="10" x1="417" y1="300.2" x2="377.1" y2="227.3"/>
<line fill="#FFFFFF" stroke="#000000" stroke-miterlimit="10" x1="164.2" y1="365.6" x2="201.6" y2="426.5"/>
<rect x="6.3" y="5.3" fill="#838383" stroke="#000000" stroke-miterlimit="10" width="13" height="96.3"/>
<rect x="19.2" y="5.3" fill="#838383" stroke="#000000" stroke-miterlimit="10" width="727.8" height="19.8"/>
<rect x="19.2" y="25" fill="#838383" stroke="#000000" stroke-miterlimit="10" width="20.7" height="72.6"/>
<rect x="6.3" y="235.1" fill="#838383" stroke="#000000" stroke-miterlimit="10" width="13" height="109.6"/>
<rect x="19.2" y="238.3" fill="#838383" stroke="#000000" stroke-miterlimit="10" width="20.7" height="69"/>
<rect x="19.2" y="307.4" fill="#838383" stroke="#000000" stroke-miterlimit="10" width="158.9" height="24"/>
<rect x="157.4" y="331.3" fill="#838383" stroke="#000000" stroke-miterlimit="10" width="20.7" height="24"/>
<rect x="143.8" y="331.3" fill="#838383" stroke="#000000" stroke-miterlimit="10" width="13.6" height="31.1"/>
<rect x="19.2" y="331.3" fill="#838383" stroke="#000000" stroke-miterlimit="10" width="124.6" height="13.3"/>
<rect x="143.8" y="499.6" fill="#838383" stroke="#000000" stroke-miterlimit="10" width="13.6" height="134.5"/>
<rect x="157.4" y="503.5" fill="#838383" stroke="#000000" stroke-miterlimit="10" width="20.7" height="108.6"/>
<rect x="16.4" y="612" fill="#838383" stroke="#000000" stroke-miterlimit="10" width="127.4" height="17.8"/>
<rect x="157.4" y="612" fill="#838383" stroke="#000000" stroke-miterlimit="10" width="573.2" height="22"/>
<rect x="730.6" y="25" fill="#838383" stroke="#000000" stroke-miterlimit="10" width="16.4" height="191.4"/>
<rect x="730.6" y="306.8" fill="#838383" stroke="#000000" stroke-miterlimit="10" width="16.4" height="327.3"/>
<rect x="417" y="25" fill="#C6C6C6" stroke="#000000" stroke-miterlimit="10" width="11" height="192.9"/>
<rect x="428.1" y="191.8" fill="#C6C6C6" stroke="#000000" stroke-miterlimit="10" width="103.4" height="11"/>
<rect x="431.6" y="25" fill="#C6C6C6" stroke="#000000" stroke-miterlimit="10" width="8.4" height="166.8"/>
<rect x="603.4" y="191.8" fill="#C6C6C6" stroke="#000000" stroke-miterlimit="10" width="118.7" height="11"/>
<rect x="722.1" y="25" fill="#C6C6C6" stroke="#000000" stroke-miterlimit="10" width="8.4" height="191.4"/>
<rect x="675.4" y="53.6" fill="#C6C6C6" stroke="#000000" stroke-miterlimit="10" width="8.4" height="72.1"/>
<rect x="683.8" y="117.2" fill="#C6C6C6" stroke="#000000" stroke-miterlimit="10" width="38.3" height="8.4"/>
<rect x="675.4" y="25" fill="#C6C6C6" stroke="#000000" stroke-miterlimit="10" width="3.4" height="28.5"/>
<rect x="722.1" y="306.8" fill="#C6C6C6" stroke="#000000" stroke-miterlimit="10" width="8.4" height="55.3"/>
<rect x="178.2" y="307.4" fill="#C6C6C6" stroke="#000000" stroke-miterlimit="10" width="249.9" height="11"/>
<rect x="417" y="300.2" fill="#C6C6C6" stroke="#000000" stroke-miterlimit="10" width="11" height="7.1"/>
<rect x="620.3" y="406.5" fill="#C6C6C6" stroke="#000000" stroke-miterlimit="10" width="110.3" height="8.4"/>
<rect x="620.3" y="358.6" fill="#C6C6C6" stroke="#000000" stroke-miterlimit="10" width="64.9" height="8.4"/>
<rect x="685.2" y="358.6" fill="#C6C6C6" stroke="#000000" stroke-miterlimit="10" width="36.9" height="3.6"/>
<rect x="620.3" y="367" fill="#C6C6C6" stroke="#000000" stroke-miterlimit="10" width="8.4" height="39.5"/>
<g>
	<path d="M468.3,399.1h-3.7v7.4h-1.7v-16.2h1.7v7.3h3.7l5.5-7.3h1.8l-6,7.9l6.3,8.3h-2L468.3,399.1z"/>
	<path d="M488.5,394.4l-6.1,13.6c-0.5,1.1-1.1,1.9-1.7,2.4c-0.6,0.5-1.4,0.7-2.3,0.7c-0.6,0-1.1-0.1-1.6-0.3s-0.9-0.5-1.3-0.8
		l0.8-1.2c0.6,0.6,1.4,0.9,2.2,0.9c0.6,0,1-0.2,1.4-0.5c0.4-0.3,0.8-0.8,1.1-1.6l0.5-1.2l-5.4-12.1h1.7l4.6,10.3l4.6-10.3H488.5z"/>
	<path d="M497.9,406.5l-3.9-5.1l-3.9,5.1h-1.8l4.8-6.2l-4.6-5.9h1.8l3.6,4.8l3.6-4.8h1.8l-4.6,5.9l4.8,6.2H497.9z"/>
	<path d="M502.5,394.4h1.6v5.4h7.6v-5.4h1.6v12.1h-1.6v-5.4h-7.6v5.4h-1.6V394.4z"/>
	<path d="M527.4,394.4v12.1h-1.5v-4h-3.8h-0.5l-2.8,4H517l3-4.2c-0.9-0.3-1.7-0.7-2.2-1.3s-0.8-1.4-0.8-2.4c0-1.4,0.5-2.4,1.4-3.1
		c0.9-0.7,2.2-1.1,3.8-1.1H527.4z M522.2,401.3h3.7v-5.4h-3.6c-2.4,0-3.6,0.9-3.6,2.7C518.8,400.4,519.9,401.3,522.2,401.3z"/>
	<path d="M531.1,399.6h6v1.4h-6V399.6z"/>
	<path d="M464.4,433.6c-0.9-0.5-1.7-1.3-2.2-2.2c-0.5-0.9-0.8-2-0.8-3.2c0-1.2,0.3-2.2,0.8-3.2c0.5-0.9,1.3-1.7,2.2-2.2
		c0.9-0.5,2-0.8,3.2-0.8c1,0,2,0.2,2.8,0.6c0.8,0.4,1.5,1,2,1.8l-1.2,0.8c-0.4-0.6-0.9-1.1-1.5-1.4c-0.6-0.3-1.3-0.5-2-0.5
		c-0.9,0-1.7,0.2-2.4,0.6s-1.2,1-1.6,1.7s-0.6,1.5-0.6,2.5c0,0.9,0.2,1.8,0.6,2.5s0.9,1.3,1.6,1.7c0.7,0.4,1.5,0.6,2.4,0.6
		c0.7,0,1.4-0.1,2-0.4c0.6-0.3,1.1-0.7,1.5-1.3l1.2,0.8c-0.5,0.8-1.1,1.4-2,1.8c-0.8,0.4-1.8,0.6-2.8,0.6
		C466.4,434.4,465.3,434.1,464.4,433.6z"/>
	<path d="M483.8,423.5h-4.6v10.7h-1.6v-10.7H473v-1.5h10.8V423.5z"/>
	<path d="M487.5,433.6c-0.9-0.5-1.7-1.3-2.2-2.2c-0.5-0.9-0.8-2-0.8-3.2c0-1.2,0.3-2.2,0.8-3.2c0.5-0.9,1.3-1.7,2.2-2.2
		s2-0.8,3.2-0.8s2.2,0.3,3.2,0.8c0.9,0.5,1.7,1.3,2.2,2.2c0.5,0.9,0.8,2,0.8,3.2c0,1.2-0.3,2.2-0.8,3.2c-0.5,0.9-1.3,1.7-2.2,2.2
		c-0.9,0.5-2,0.8-3.2,0.8S488.4,434.1,487.5,433.6z M493,432.3c0.7-0.4,1.2-1,1.6-1.7c0.4-0.7,0.6-1.5,0.6-2.5
		c0-0.9-0.2-1.7-0.6-2.5c-0.4-0.7-0.9-1.3-1.6-1.7c-0.7-0.4-1.5-0.6-2.3-0.6s-1.6,0.2-2.3,0.6s-1.2,1-1.6,1.7s-0.6,1.5-0.6,2.5
		c0,0.9,0.2,1.7,0.6,2.5c0.4,0.7,0.9,1.3,1.6,1.7c0.7,0.4,1.5,0.6,2.3,0.6S492.3,432.7,493,432.3z"/>
	<path d="M510.2,422.1v12.1h-1.6v-10.7h-5.8l-0.2,3c-0.1,2.5-0.4,4.5-0.9,5.8c-0.5,1.4-1.3,2-2.5,2c-0.3,0-0.7-0.1-1.2-0.2l0.1-1.4
		c0.3,0.1,0.5,0.1,0.6,0.1c0.6,0,1.1-0.3,1.4-0.9s0.5-1.3,0.6-2.2c0.1-0.9,0.2-2,0.3-3.4l0.2-4.3H510.2z"/>
	<path d="M516.7,433.6c-0.9-0.5-1.7-1.3-2.2-2.2c-0.5-0.9-0.8-2-0.8-3.2c0-1.2,0.3-2.2,0.8-3.2c0.5-0.9,1.3-1.7,2.2-2.2
		c0.9-0.5,2-0.8,3.2-0.8s2.2,0.3,3.2,0.8c0.9,0.5,1.7,1.3,2.2,2.2s0.8,2,0.8,3.2c0,1.2-0.3,2.2-0.8,3.2c-0.5,0.9-1.3,1.7-2.2,2.2
		c-0.9,0.5-2,0.8-3.2,0.8S517.6,434.1,516.7,433.6z M522.2,432.3c0.7-0.4,1.2-1,1.6-1.7c0.4-0.7,0.6-1.5,0.6-2.5
		c0-0.9-0.2-1.7-0.6-2.5s-0.9-1.3-1.6-1.7c-0.7-0.4-1.5-0.6-2.3-0.6c-0.9,0-1.6,0.2-2.3,0.6c-0.7,0.4-1.2,1-1.6,1.7
		s-0.6,1.5-0.6,2.5c0,0.9,0.2,1.7,0.6,2.5c0.4,0.7,0.9,1.3,1.6,1.7c0.7,0.4,1.5,0.6,2.3,0.6C520.7,432.9,521.5,432.7,522.2,432.3z"
		/>
	<path d="M539.7,430.9c0,1.1-0.4,1.9-1.2,2.4s-2,0.9-3.5,0.9h-5.5v-12.1h5.4c1.4,0,2.5,0.3,3.3,0.8s1.2,1.3,1.2,2.3
		c0,0.7-0.2,1.2-0.5,1.7c-0.4,0.5-0.9,0.8-1.5,1.1C538.9,428.3,539.7,429.3,539.7,430.9z M531.1,427.5h3.6c0.9,0,1.7-0.2,2.2-0.5
		c0.5-0.4,0.8-0.9,0.8-1.5c0-0.7-0.3-1.2-0.8-1.5c-0.5-0.3-1.2-0.5-2.2-0.5h-3.6V427.5z M537.3,432.4c0.5-0.3,0.8-0.9,0.8-1.6
		s-0.2-1.3-0.7-1.6c-0.5-0.3-1.2-0.5-2.3-0.5h-4v4.2h3.9C536,432.9,536.8,432.8,537.3,432.4z"/>
	<path d="M551.4,423.2c0.8,0.8,1.3,2,1.3,3.5v7.5h-1.6v-1.9c-0.4,0.6-0.9,1.1-1.6,1.5c-0.7,0.4-1.6,0.5-2.6,0.5
		c-1.4,0-2.4-0.3-3.2-1c-0.8-0.6-1.2-1.5-1.2-2.6c0-1,0.4-1.9,1.1-2.5c0.7-0.6,1.9-0.9,3.6-0.9h3.9v-0.7c0-1-0.3-1.8-0.9-2.4
		c-0.6-0.5-1.4-0.8-2.6-0.8c-0.8,0-1.5,0.1-2.2,0.4s-1.3,0.6-1.8,1.1l-0.7-1.2c0.6-0.5,1.4-0.9,2.2-1.2c0.9-0.3,1.8-0.4,2.7-0.4
		C549.3,422,550.6,422.4,551.4,423.2z M549.6,432.4c0.7-0.4,1.2-1,1.5-1.8v-2h-3.8c-2.1,0-3.1,0.7-3.1,2.2c0,0.7,0.3,1.3,0.8,1.7
		c0.5,0.4,1.3,0.6,2.3,0.6C548.1,433.1,548.9,432.8,549.6,432.4z"/>
	<path d="M566.4,422.1v12.1h-1.5v-4h-3.8h-0.5l-2.8,4H556l3-4.2c-0.9-0.3-1.7-0.7-2.2-1.3c-0.5-0.6-0.8-1.4-0.8-2.4
		c0-1.4,0.5-2.4,1.4-3.1s2.2-1.1,3.8-1.1H566.4z M561.2,429h3.7v-5.4h-3.6c-2.4,0-3.6,0.9-3.6,2.7C557.8,428.1,558.9,429,561.2,429z
		"/>
	<path d="M467.8,448.7v20.2H465v-17.7h-4.6v-2.5H467.8z"/>
	<path d="M487,448.7v2l-8.2,18.2h-3.1l8-17.7h-9.2v3.6h-2.8v-6.1H487z"/>
	<path d="M491.3,465.7c0.4,0.4,0.5,0.8,0.5,1.4c0,0.3,0,0.6-0.1,0.8s-0.2,0.7-0.4,1.2l-1.4,4h-1.8l1.1-4.3c-0.4-0.1-0.7-0.4-0.9-0.7
		c-0.2-0.3-0.3-0.7-0.3-1.1c0-0.6,0.2-1,0.5-1.4c0.4-0.4,0.8-0.5,1.4-0.5C490.5,465.1,490.9,465.3,491.3,465.7z"/>
	<path d="M506.5,457.4c1,0.5,1.9,1.2,2.5,2.2c0.6,0.9,0.9,2,0.9,3.2c0,1.3-0.3,2.4-0.9,3.3c-0.6,1-1.5,1.7-2.6,2.2s-2.3,0.8-3.7,0.8
		c-2.7,0-4.8-0.9-6.3-2.6c-1.5-1.8-2.2-4.2-2.2-7.4c0-2.3,0.4-4.2,1.2-5.8c0.8-1.6,1.9-2.8,3.3-3.6s3.1-1.2,5-1.2
		c1,0,1.9,0.1,2.8,0.3s1.6,0.5,2.3,0.9l-1.1,2.3c-1-0.6-2.3-1-3.9-1c-2.1,0-3.7,0.6-4.9,1.9s-1.8,3.2-1.8,5.7c0,0.3,0,0.5,0,0.7
		c0.6-0.9,1.4-1.5,2.4-2c1-0.5,2.1-0.7,3.4-0.7C504.3,456.6,505.4,456.9,506.5,457.4z M505.8,465.7c0.8-0.7,1.2-1.7,1.2-2.9
		c0-1.2-0.4-2.1-1.3-2.8c-0.8-0.7-2-1.1-3.4-1.1c-0.9,0-1.7,0.2-2.4,0.5c-0.7,0.3-1.3,0.8-1.6,1.4c-0.4,0.6-0.6,1.3-0.6,2
		c0,0.7,0.2,1.4,0.6,1.9c0.4,0.6,0.9,1.1,1.6,1.4s1.6,0.5,2.6,0.5C503.9,466.8,505,466.4,505.8,465.7z"/>
</g>
<g>
	<path d="M74.5,246.3c-1.3-0.7-2.3-1.7-3-2.9c-0.7-1.3-1.1-2.7-1.1-4.2s0.4-3,1.1-4.2c0.7-1.3,1.7-2.2,3-2.9s2.7-1.1,4.3-1.1
		c1.2,0,2.3,0.2,3.3,0.6c1,0.4,1.9,1,2.6,1.8l-1.1,1.1c-1.3-1.3-2.9-1.9-4.8-1.9c-1.3,0-2.4,0.3-3.5,0.9c-1,0.6-1.9,1.4-2.5,2.4
		c-0.6,1-0.9,2.2-0.9,3.4s0.3,2.4,0.9,3.4c0.6,1,1.4,1.8,2.5,2.4s2.2,0.9,3.5,0.9c1.9,0,3.5-0.6,4.8-1.9l1.1,1.1
		c-0.7,0.8-1.6,1.4-2.6,1.8c-1,0.4-2.1,0.6-3.3,0.6C77.2,247.4,75.7,247.1,74.5,246.3z"/>
	<path d="M98.8,235.1v12.1h-1.6v-10.7h-7.6v10.7h-1.6v-12.1H98.8z"/>
	<path d="M111.2,236.2c0.8,0.8,1.3,2,1.3,3.5v7.5h-1.6v-1.9c-0.4,0.6-0.9,1.1-1.6,1.5s-1.6,0.5-2.6,0.5c-1.4,0-2.4-0.3-3.2-1
		s-1.2-1.5-1.2-2.6c0-1,0.4-1.9,1.1-2.5c0.7-0.6,1.9-0.9,3.6-0.9h3.9v-0.7c0-1-0.3-1.8-0.9-2.4c-0.6-0.5-1.4-0.8-2.6-0.8
		c-0.8,0-1.5,0.1-2.2,0.4s-1.3,0.6-1.8,1.1l-0.7-1.2c0.6-0.5,1.4-0.9,2.2-1.2c0.9-0.3,1.8-0.4,2.7-0.4
		C109.2,235,110.4,235.4,111.2,236.2z M109.4,245.5c0.7-0.4,1.2-1,1.5-1.8v-2h-3.8c-2.1,0-3.1,0.7-3.1,2.2c0,0.7,0.3,1.3,0.8,1.7
		c0.5,0.4,1.3,0.6,2.3,0.6C107.9,246.1,108.7,245.9,109.4,245.5z"/>
	<path d="M126.8,235.1v12.1h-1.6v-10.7h-5.8l-0.2,3c-0.1,2.5-0.4,4.5-0.9,5.8c-0.5,1.4-1.3,2-2.5,2c-0.3,0-0.7-0.1-1.2-0.2l0.1-1.4
		c0.3,0.1,0.5,0.1,0.6,0.1c0.6,0,1.1-0.3,1.4-0.9c0.3-0.6,0.5-1.3,0.6-2.2c0.1-0.9,0.2-2,0.3-3.4l0.2-4.3H126.8z"/>
	<path d="M140.2,240.4c0.8,0.7,1.2,1.6,1.2,2.9c0,1.3-0.4,2.3-1.3,3c-0.9,0.7-2.1,1-3.7,1l-4.9,0v-12.1h1.6v4.2l3.6,0
		C138.2,239.4,139.4,239.8,140.2,240.4z M138.8,245.4c0.6-0.5,0.9-1.2,0.9-2.1c0-0.9-0.3-1.6-0.9-2c-0.6-0.4-1.4-0.7-2.6-0.7l-3.2,0
		v5.4l3.2,0C137.4,246.1,138.3,245.8,138.8,245.4z"/>
	<path d="M144.5,235.1h1.6v5.4h7.6v-5.4h1.6v12.1h-1.6v-5.4h-7.6v5.4h-1.6V235.1z"/>
	<path d="M169.4,235.1v12.1h-1.5v-4h-3.8h-0.5l-2.8,4H159l3-4.2c-0.9-0.3-1.7-0.7-2.2-1.3c-0.5-0.6-0.8-1.4-0.8-2.4
		c0-1.4,0.5-2.4,1.4-3.1c0.9-0.7,2.2-1.1,3.8-1.1H169.4z M164.2,242h3.7v-5.4h-3.6c-2.4,0-3.6,0.9-3.6,2.7
		C160.8,241.1,161.9,242,164.2,242z"/>
	<path d="M76.6,261.7v20.2h-2.9v-17.7h-4.6v-2.5H76.6z"/>
	<path d="M95.3,279.4v2.5H80.7v-2L89,272c1-1,1.7-1.8,2-2.5c0.3-0.7,0.5-1.4,0.5-2.1c0-1.1-0.4-1.9-1.1-2.5
		c-0.7-0.6-1.8-0.9-3.2-0.9c-2.2,0-4,0.7-5.2,2.2l-2-1.7c0.8-1,1.8-1.7,3.1-2.3c1.3-0.5,2.7-0.8,4.3-0.8c2.1,0,3.8,0.5,5.1,1.5
		c1.3,1,1.9,2.4,1.9,4.1c0,1.1-0.2,2.1-0.7,3.1c-0.5,1-1.3,2.1-2.6,3.3l-6.2,5.9H95.3z"/>
	<path d="M101.2,278.7c0.4,0.4,0.5,0.8,0.5,1.4c0,0.3,0,0.6-0.1,0.8c-0.1,0.3-0.2,0.7-0.4,1.2l-1.4,4h-1.8l1.1-4.3
		c-0.4-0.1-0.7-0.4-0.9-0.7c-0.2-0.3-0.3-0.7-0.3-1.1c0-0.6,0.2-1,0.5-1.4c0.4-0.4,0.8-0.5,1.4-0.5
		C100.4,278.1,100.8,278.3,101.2,278.7z"/>
	<path d="M116.6,271.4c1.4,1.1,2,2.6,2,4.5c0,1.2-0.3,2.3-0.9,3.2c-0.6,1-1.4,1.7-2.6,2.3c-1.1,0.5-2.6,0.8-4.2,0.8
		c-1.4,0-2.8-0.2-4.1-0.6s-2.4-1-3.3-1.8l1.3-2.3c0.7,0.7,1.6,1.2,2.7,1.6c1.1,0.4,2.2,0.6,3.4,0.6c1.5,0,2.7-0.3,3.5-1
		c0.8-0.6,1.3-1.5,1.3-2.6c0-1.2-0.5-2.1-1.4-2.8c-0.9-0.6-2.5-0.9-4.7-0.9H105l1.1-10.6h11.4v2.5h-9l-0.5,5.5h2.3
		C113.1,269.8,115.2,270.3,116.6,271.4z"/>
</g>
<g>
	<path d="M92.4,486.8c1,1,1.6,2.3,1.6,3.9c0,1.2-0.3,2.2-0.9,3.1c-0.6,0.9-1.4,1.7-2.6,2.2c-1.1,0.5-2.5,0.8-4.2,0.8
		c-1.4,0-2.8-0.2-4.2-0.6c-1.3-0.4-2.4-1-3.3-1.8l1.3-2.3c0.7,0.7,1.6,1.2,2.7,1.6c1.1,0.4,2.2,0.6,3.4,0.6c1.5,0,2.7-0.3,3.5-1
		s1.3-1.5,1.3-2.6c0-1.1-0.4-2-1.2-2.6c-0.8-0.6-2.1-0.9-3.8-0.9h-1.6v-2l5.1-6.2h-9.7v-2.5h13.3v2l-5.3,6.5
		C89.9,485.2,91.4,485.8,92.4,486.8z"/>
	<path d="M99.9,493.5c0.4,0.4,0.5,0.8,0.5,1.4c0,0.3,0,0.6-0.1,0.8c-0.1,0.3-0.2,0.7-0.4,1.2l-1.4,4h-1.8l1.1-4.3
		c-0.4-0.1-0.7-0.4-0.9-0.7c-0.2-0.3-0.3-0.7-0.3-1.1c0-0.6,0.2-1,0.5-1.4c0.4-0.4,0.8-0.5,1.4-0.5
		C99.1,492.9,99.6,493.1,99.9,493.5z"/>
	<path d="M117.7,494.2v2.5h-14.5v-2l8.2-7.9c1-1,1.7-1.8,2-2.5c0.3-0.7,0.5-1.4,0.5-2.1c0-1.1-0.4-1.9-1.1-2.5
		c-0.7-0.6-1.8-0.9-3.2-0.9c-2.2,0-4,0.7-5.2,2.2l-2-1.7c0.8-1,1.8-1.7,3.1-2.3c1.3-0.5,2.7-0.8,4.3-0.8c2.1,0,3.8,0.5,5.1,1.5
		c1.3,1,1.9,2.4,1.9,4.1c0,1.1-0.2,2.1-0.7,3.1c-0.5,1-1.3,2.1-2.6,3.3l-6.2,5.9H117.7z"/>
</g>
<g>
	<path d="M579.1,153.5c1.4,1.1,2,2.6,2,4.5c0,1.2-0.3,2.3-0.9,3.2c-0.6,1-1.4,1.7-2.6,2.3c-1.1,0.5-2.6,0.8-4.2,0.8
		c-1.4,0-2.8-0.2-4.1-0.6c-1.3-0.4-2.4-1-3.3-1.8l1.3-2.3c0.7,0.7,1.6,1.2,2.7,1.6c1.1,0.4,2.2,0.6,3.4,0.6c1.5,0,2.7-0.3,3.5-1
		c0.8-0.6,1.3-1.5,1.3-2.6c0-1.2-0.5-2.1-1.4-2.8c-0.9-0.6-2.5-0.9-4.7-0.9h-4.6l1.1-10.6H580v2.5h-9l-0.5,5.5h2.3
		C575.7,151.9,577.8,152.4,579.1,153.5z"/>
	<path d="M586.8,160.8c0.4,0.4,0.5,0.8,0.5,1.4c0,0.3,0,0.6-0.1,0.8c-0.1,0.3-0.2,0.7-0.4,1.2l-1.4,4h-1.8l1.1-4.3
		c-0.4-0.1-0.7-0.4-0.9-0.7c-0.2-0.3-0.3-0.7-0.3-1.1c0-0.6,0.2-1,0.5-1.4c0.4-0.4,0.8-0.5,1.4-0.5
		C586,160.2,586.5,160.4,586.8,160.8z"/>
	<path d="M593.8,163c-1.2-0.8-2.2-2-2.9-3.6s-1.1-3.4-1.1-5.5s0.4-4,1.1-5.5s1.7-2.7,2.9-3.6c1.2-0.8,2.7-1.2,4.3-1.2
		c1.6,0,3,0.4,4.2,1.2c1.2,0.8,2.2,2,2.9,3.6c0.7,1.6,1.1,3.4,1.1,5.5s-0.4,4-1.1,5.5c-0.7,1.6-1.7,2.7-2.9,3.6s-2.7,1.2-4.2,1.2
		C596.4,164.3,595,163.8,593.8,163z M601.9,159.7c1-1.3,1.5-3.3,1.5-5.8c0-2.5-0.5-4.4-1.5-5.8s-2.3-2-3.9-2c-1.6,0-2.9,0.7-3.9,2
		s-1.5,3.3-1.5,5.8c0,2.5,0.5,4.4,1.5,5.8s2.3,2,3.9,2C599.6,161.7,600.9,161,601.9,159.7z"/>
</g>
<g>
	<path d="M661.7,286.3h-3.8v5h-2.8v-5h-11.2v-2l10.3-13.2h3.1l-9.9,12.8h7.8v-4.4h2.7v4.4h3.8V286.3z"/>
	<path d="M667.3,288.1c0.4,0.4,0.5,0.8,0.5,1.4c0,0.3,0,0.6-0.1,0.8c-0.1,0.3-0.2,0.7-0.4,1.2l-1.4,4h-1.8l1.1-4.3
		c-0.4-0.1-0.7-0.4-0.9-0.7c-0.2-0.3-0.3-0.7-0.3-1.1c0-0.6,0.2-1,0.5-1.4c0.4-0.4,0.8-0.5,1.4-0.5
		C666.5,287.5,666.9,287.7,667.3,288.1z"/>
	<path d="M683.1,281.4c1,1,1.6,2.3,1.6,3.9c0,1.2-0.3,2.2-0.9,3.1c-0.6,0.9-1.4,1.7-2.6,2.2s-2.5,0.8-4.2,0.8
		c-1.4,0-2.8-0.2-4.2-0.6c-1.3-0.4-2.4-1-3.3-1.8l1.3-2.3c0.7,0.7,1.6,1.2,2.7,1.6s2.2,0.6,3.4,0.6c1.5,0,2.7-0.3,3.5-1
		c0.8-0.6,1.3-1.5,1.3-2.6c0-1.1-0.4-2-1.2-2.6c-0.8-0.6-2.1-0.9-3.8-0.9h-1.6v-2l5.1-6.2h-9.7v-2.5h13.3v2l-5.3,6.5
		C680.6,279.8,682.1,280.4,683.1,281.4z"/>
</g>
<g>
</g>
<g>
</g>
<g>
</g>
<g>
</g>
<g>
</g>
<g>
</g>
</svg>
