<?xml version="1.0" encoding="utf-8"?>
<!-- Generator: Adobe Illustrator 23.0.2, SVG Export Plug-In . SVG Version: 6.00 Build 0)  -->
<svg version="1.1" id="Слой_1" xmlns="http://www.w3.org/2000/svg" xmlns:xlink="http://www.w3.org/1999/xlink" x="0px" y="0px"
	 viewBox="0 0 800 639.4" enable-background="new 0 0 800 639.4" xml:space="preserve">
<polygon fill-rule="evenodd" clip-rule="evenodd" fill="#F1F2F2" stroke="#848484" stroke-miterlimit="10" points="719.3,27.5 
	719.3,240.8 659.1,240.8 659.1,81.9 518.4,81.9 518.4,27.5 "/>
<g>
	
		<rect x="464.1" y="27.5" fill-rule="evenodd" clip-rule="evenodd" fill="#F1F2F2" stroke="#848484" stroke-miterlimit="10" width="48.2" height="3.4"/>
	
		<rect x="464.1" y="27.5" fill-rule="evenodd" clip-rule="evenodd" fill="#F1F2F2" stroke="#848484" stroke-miterlimit="10" width="48.2" height="3.4"/>
	
		<rect x="496.9" y="81.4" fill-rule="evenodd" clip-rule="evenodd" fill="#F1F2F2" stroke="#848484" stroke-miterlimit="10" width="15.8" height="4.7"/>
	
		<rect x="496.9" y="81.4" fill-rule="evenodd" clip-rule="evenodd" fill="#F1F2F2" stroke="#848484" stroke-miterlimit="10" width="15.8" height="4.7"/>
	
		<rect x="461.9" y="30.5" fill-rule="evenodd" clip-rule="evenodd" fill="#F1F2F2" stroke="#848484" stroke-miterlimit="10" width="52.9" height="52.8"/>
	
		<rect x="461.9" y="30.5" fill-rule="evenodd" clip-rule="evenodd" fill="#F1F2F2" stroke="#848484" stroke-miterlimit="10" width="52.9" height="52.8"/>
	<path fill-rule="evenodd" clip-rule="evenodd" fill="#F1F2F2" stroke="#848484" stroke-miterlimit="10" d="M461.9,78.6l52.9,0
		L461.9,78.6z"/>
	<path fill-rule="evenodd" clip-rule="evenodd" fill="#F1F2F2" stroke="#848484" stroke-miterlimit="10" d="M459.4,78.4
		c0-1,0.9-2.1,2.1-2.1c1.3,0,2.1,1,2.1,2.1c0,1.3-0.9,2.3-2.1,2.3C460.3,80.7,459.4,79.7,459.4,78.4z"/>
	<path fill-rule="evenodd" clip-rule="evenodd" fill="#F1F2F2" stroke="#848484" stroke-miterlimit="10" d="M459.4,78.4
		c0-1,0.9-2.1,2.1-2.1c1.3,0,2.1,1,2.1,2.1c0,1.3-0.9,2.3-2.1,2.3C460.3,80.7,459.4,79.7,459.4,78.4z"/>
	<path fill-rule="evenodd" clip-rule="evenodd" fill="#F1F2F2" stroke="#848484" stroke-miterlimit="10" d="M488.6,51.4v9.3V51.4z"
		/>
	<path fill-rule="evenodd" clip-rule="evenodd" fill="#F1F2F2" stroke="#848484" stroke-miterlimit="10" d="M484.1,55.9l9.3,0
		L484.1,55.9z"/>
	<path fill-rule="evenodd" clip-rule="evenodd" fill="#F1F2F2" stroke="#848484" stroke-miterlimit="10" d="M485.4,59.4l6.8-6.8
		L485.4,59.4z"/>
	<path fill-rule="evenodd" clip-rule="evenodd" fill="#F1F2F2" stroke="#848484" stroke-miterlimit="10" d="M492,59.4l-6.8-6.8
		L492,59.4z"/>
	<path fill-rule="evenodd" clip-rule="evenodd" fill="#F1F2F2" stroke="#848484" stroke-miterlimit="10" d="M474.9,51.1v9.3V51.1z"
		/>
	<path fill-rule="evenodd" clip-rule="evenodd" fill="#F1F2F2" stroke="#848484" stroke-miterlimit="10" d="M470.3,55.6l9.3,0
		L470.3,55.6z"/>
	<path fill-rule="evenodd" clip-rule="evenodd" fill="#F1F2F2" stroke="#848484" stroke-miterlimit="10" d="M471.7,59.1l6.8-6.8
		L471.7,59.1z"/>
	<path fill-rule="evenodd" clip-rule="evenodd" fill="#F1F2F2" stroke="#848484" stroke-miterlimit="10" d="M478.4,59.1l-6.8-6.8
		L478.4,59.1z"/>
	<path fill-rule="evenodd" clip-rule="evenodd" fill="#F1F2F2" stroke="#848484" stroke-miterlimit="10" d="M502,51.4v9.3V51.4z"/>
	<path fill-rule="evenodd" clip-rule="evenodd" fill="#F1F2F2" stroke="#848484" stroke-miterlimit="10" d="M497.5,55.9l9.3,0
		L497.5,55.9z"/>
	<path fill-rule="evenodd" clip-rule="evenodd" fill="#F1F2F2" stroke="#848484" stroke-miterlimit="10" d="M498.7,59.4l6.8-6.8
		L498.7,59.4z"/>
	<path fill-rule="evenodd" clip-rule="evenodd" fill="#F1F2F2" stroke="#848484" stroke-miterlimit="10" d="M505.4,59.4l-6.8-6.8
		L505.4,59.4z"/>
</g>
<g id="moyka_2_4_">
	<path fill="#F3F3F3" stroke="#838383" d="M707.3,172.8c1.8,0,3.2,1.5,3.2,3.2v47.1c0,1.8-1.5,3.2-3.2,3.2h-39
		c-1.8,0-3.2-1.5-3.2-3.2v-47.1c0-1.8,1.5-3.2,3.2-3.2H707.3z"/>
	<path fill="#F3F3F3" stroke="#838383" d="M699.2,176.1c1.8,0,3.2,1.5,3.2,3.2v40.6c0,1.8-1.5,3.2-3.2,3.2h-27.6
		c-1.8,0-3.2-1.5-3.2-3.2v-40.6c0-1.8,1.5-3.2,3.2-3.2H699.2z"/>
	<rect x="692.7" y="197.2" fill="#F3F3F3" stroke="#838383" width="13" height="3.2"/>
	<circle fill="#F3F3F3" stroke="#838383" cx="683.8" cy="199.6" r="2.4"/>
</g>
<g id="plita_4_">
	<rect x="659.9" y="82.6" fill="#F3F3F3" stroke="#838383" width="58.4" height="56.8"/>
	<circle fill="#F3F3F3" stroke="#838383" cx="674.5" cy="123.2" r="9.7"/>
	<circle fill="#F3F3F3" stroke="#838383" cx="698.8" cy="98.8" r="9.7"/>
	<circle fill="#F3F3F3" stroke="#838383" cx="674.5" cy="98.8" r="8.1"/>
	<circle fill="#F3F3F3" stroke="#838383" cx="698.8" cy="123.2" r="8.1"/>
</g>
<g id="unitaz_4_">
	<path fill="#F3F3F3" stroke="#838383" d="M624.2,609v-11.4c0-1.8,1.5-3.2,3.2-3.2h29.2c1.8,0,3.2,1.5,3.2,3.2V609H624.2z"/>
	<path fill="#F3F3F3" stroke="#838383" d="M627.4,594.4c-1.8,0-3.2-1.5-3.2-3.2h35.7c0,1.8-1.5,3.2-3.2,3.2H627.4z"/>
	<path fill="#F3F3F3" stroke="#838383" d="M659.9,591.1h-35.7c0,0-7.3-42.2,17.9-42.2C667.2,548.9,659.9,591.1,659.9,591.1z"/>
	<circle fill="#F3F3F3" stroke="#838383" cx="642" cy="602.5" r="3.2"/>
</g>
<g id="moyka_4_">
	<path fill="#F3F3F3" stroke="#838383" d="M528.9,608.2c-1,0-1.8-0.8-1.8-1.8V571c0-1,0.8-1.8,1.8-1.8H582c1,0,1.8,0.8,1.8,1.8v35.4
		c0,1-0.8,1.8-1.8,1.8H528.9z"/>
	<rect x="527.1" y="599.3" fill="#F3F3F3" stroke="#838383" width="56.7" height="3.5"/>
	<ellipse fill="#F3F3F3" stroke="#838383" cx="556.3" cy="584.3" rx="18.6" ry="11.5"/>
	<rect x="553.7" y="588.7" fill="#F3F3F3" stroke="#838383" width="3.5" height="14.2"/>
	<circle fill="#F3F3F3" stroke="#838383" cx="554.5" cy="582.5" r="2.7"/>
</g>
<g id="stirka_3_">
	<rect x="671.4" y="448.2" fill="#F3F3F3" stroke="#838383" width="48.7" height="48.7"/>
	<path fill="#F3F3F3" stroke="#838383" d="M715.2,493.7c-1.8,0-3.2-1.5-3.2-3.2v-11.4c0-1.8,1.5-3.2,3.2-3.2h4.9v17.9H715.2z"/>
	<circle fill="#F3F3F3" stroke="#838383" cx="694.1" cy="472.6" r="13"/>
	<circle fill="#F3F3F3" stroke="#838383" cx="694.1" cy="472.6" r="9.7"/>
	<circle fill="#F3F3F3" stroke="#838383" cx="711.9" cy="456.4" r="3.2"/>
</g>
<g id="vanna_3_">
	<rect x="443.2" y="450.7" fill="#F3F3F3" stroke="#838383" width="61.7" height="157.5"/>
	<path fill="#F3F3F3" stroke="#838383" d="M483.8,460.5c9,0,16.2,7.3,16.2,16.2v108.8h-51.9V476.7c0-9,7.3-16.2,16.2-16.2H483.8z"/>
	<path fill="#F3F3F3" stroke="#838383" d="M472.4,587.9h-13v5.7h21.9"/>
	<path id="Union_3_" fill="#F3F3F3" stroke="#838383" d="M484,595.2c0.7,1.9,2.5,3.2,4.6,3.2c2.7,0,4.9-2.2,4.9-4.9
		c0-2.7-2.2-4.9-4.9-4.9c-2.1,0-3.9,1.4-4.6,3.2h-1.9c-0.9,0-1.6,0.7-1.6,1.6s0.7,1.6,1.6,1.6H484z"/>
	<rect x="472.4" y="577.3" fill="#F3F3F3" stroke="#838383" width="3.2" height="13"/>
</g>
<rect x="156" y="136.9" fill="#FFFFFF" stroke="#000000" stroke-miterlimit="10" width="6.7" height="144.5"/>
<rect x="162.7" y="136.9" fill="#FFFFFF" stroke="#000000" stroke-miterlimit="10" width="14.5" height="58.8"/>
<rect x="142.6" y="139.9" fill="#FFFFFF" stroke="#000000" stroke-miterlimit="10" width="13.4" height="55.8"/>
<rect x="156" y="136.9" fill="#FFFFFF" stroke="#000000" stroke-miterlimit="10" width="6.7" height="7.4"/>
<rect x="156.2" y="191.4" fill="#FFFFFF" stroke="#000000" stroke-miterlimit="10" width="6.5" height="8"/>
<rect x="156" y="274.2" fill="#FFFFFF" stroke="#000000" stroke-miterlimit="10" width="6.7" height="7.1"/>
<rect x="18" y="399.5" fill="#FFFFFF" stroke="#000000" stroke-miterlimit="10" width="7.1" height="143.2"/>
<rect x="18" y="399.5" fill="#FFFFFF" stroke="#000000" stroke-miterlimit="10" width="7.1" height="8.4"/>
<rect x="18" y="466.5" fill="#FFFFFF" stroke="#000000" stroke-miterlimit="10" width="7.1" height="7.1"/>
<rect x="25.1" y="399.5" fill="#FFFFFF" stroke="#000000" stroke-miterlimit="10" width="13.6" height="143.2"/>
<rect x="5" y="405.5" fill="#FFFFFF" stroke="#000000" stroke-miterlimit="10" width="13" height="133.7"/>
<g>
	<rect x="5.4" y="5.8" fill="#FFFFFF" stroke="#000000" stroke-miterlimit="10" width="29.9" height="289.7"/>
	<rect x="18" y="23.3" fill="#FFFFFF" stroke="#000000" stroke-miterlimit="10" width="10.4" height="272.2"/>
	<rect x="21.4" y="23.3" fill="#FFFFFF" stroke="#000000" stroke-miterlimit="10" width="3.7" height="267.4"/>
</g>
<line fill="#FFFFFF" stroke="#000000" stroke-miterlimit="10" x1="162.7" y1="274.2" x2="200.6" y2="209.1"/>
<line fill="#FFFFFF" stroke="#000000" stroke-miterlimit="10" x1="416.2" y1="338.9" x2="376.6" y2="410.7"/>
<line fill="#FFFFFF" stroke="#000000" stroke-miterlimit="10" x1="603.4" y1="434.9" x2="539.7" y2="400.8"/>
<line fill="#FFFFFF" stroke="#000000" stroke-miterlimit="10" x1="746.5" y1="341.9" x2="795" y2="425.4"/>
<rect x="142.6" y="5.8" fill="#838383" stroke="#000000" stroke-miterlimit="10" width="13.4" height="134.1"/>
<rect x="14.5" y="5.8" fill="#838383" stroke="#000000" stroke-miterlimit="10" width="128.1" height="18.2"/>
<rect x="156" y="27.4" fill="#838383" stroke="#000000" stroke-miterlimit="10" width="21.2" height="109.5"/>
<rect x="156" y="5.8" fill="#838383" stroke="#000000" stroke-miterlimit="10" width="590.6" height="21.6"/>
<rect x="156" y="281.4" fill="#838383" stroke="#000000" stroke-miterlimit="10" width="21.2" height="27.3"/>
<rect x="142.6" y="277.9" fill="#838383" stroke="#000000" stroke-miterlimit="10" width="13.4" height="30.7"/>
<rect x="5" y="295" fill="#838383" stroke="#000000" stroke-miterlimit="10" width="137.6" height="13.6"/>
<rect x="5" y="308.6" fill="#838383" stroke="#000000" stroke-miterlimit="10" width="13" height="96.9"/>
<rect x="18" y="330.2" fill="#838383" stroke="#000000" stroke-miterlimit="10" width="20.8" height="69.2"/>
<rect x="18" y="308.6" fill="#838383" stroke="#000000" stroke-miterlimit="10" width="159.2" height="21.6"/>
<rect x="5" y="538.5" fill="#838383" stroke="#000000" stroke-miterlimit="10" width="13" height="92.5"/>
<rect x="18" y="611.1" fill="#838383" stroke="#000000" stroke-miterlimit="10" width="728.6" height="19.8"/>
<rect x="18" y="542.7" fill="#838383" stroke="#000000" stroke-miterlimit="10" width="20.8" height="68.5"/>
<rect x="720.2" y="27.4" fill="#838383" stroke="#000000" stroke-miterlimit="10" width="26.4" height="314.5"/>
<rect x="523.7" y="291.3" fill="#838383" stroke="#000000" stroke-miterlimit="10" width="44.6" height="44.6"/>
<rect x="730.1" y="434.9" fill="#838383" stroke="#000000" stroke-miterlimit="10" width="16.4" height="176.2"/>
<rect x="568.3" y="291.3" fill="#C6C6C6" stroke="#000000" stroke-miterlimit="10" width="124.1" height="8.5"/>
<rect x="619.7" y="242.4" fill="#C6C6C6" stroke="#000000" stroke-miterlimit="10" width="100.5" height="8.5"/>
<rect x="619.7" y="250.8" fill="#C6C6C6" stroke="#000000" stroke-miterlimit="10" width="8.5" height="40.5"/>
<rect x="692.4" y="296.1" fill="#C6C6C6" stroke="#000000" stroke-miterlimit="10" width="27.4" height="3.6"/>
<rect x="603.4" y="434.9" fill="#C6C6C6" stroke="#000000" stroke-miterlimit="10" width="126.7" height="11"/>
<rect x="721.6" y="446.3" fill="#C6C6C6" stroke="#000000" stroke-miterlimit="10" width="8.5" height="164.8"/>
<rect x="674.8" y="510.5" fill="#C6C6C6" stroke="#000000" stroke-miterlimit="10" width="46.8" height="8.5"/>
<rect x="674.8" y="519" fill="#C6C6C6" stroke="#000000" stroke-miterlimit="10" width="8.5" height="64.9"/>
<rect x="674.8" y="583.9" fill="#C6C6C6" stroke="#000000" stroke-miterlimit="10" width="3.4" height="27.3"/>
<rect x="177.2" y="319.2" fill="#C6C6C6" stroke="#000000" stroke-miterlimit="10" width="250.1" height="11"/>
<rect x="416.2" y="330.2" fill="#C6C6C6" stroke="#000000" stroke-miterlimit="10" width="11" height="8.7"/>
<rect x="416.2" y="422.6" fill="#C6C6C6" stroke="#000000" stroke-miterlimit="10" width="11" height="188.5"/>
<rect x="427.3" y="434.9" fill="#C6C6C6" stroke="#000000" stroke-miterlimit="10" width="103.5" height="11"/>
<rect x="430.8" y="446.3" fill="#C6C6C6" stroke="#000000" stroke-miterlimit="10" width="8.5" height="164.8"/>
<g>
	<path d="M447.4,136.8h-3.7v7.4H442V128h1.7v7.3h3.7l5.5-7.3h1.8l-6,7.9l6.4,8.3h-2L447.4,136.8z"/>
	<path d="M467.6,132.1l-6.1,13.6c-0.5,1.1-1.1,1.9-1.7,2.4c-0.6,0.5-1.4,0.7-2.3,0.7c-0.6,0-1.1-0.1-1.6-0.3
		c-0.5-0.2-0.9-0.5-1.3-0.8l0.8-1.2c0.6,0.6,1.4,0.9,2.2,0.9c0.6,0,1-0.2,1.4-0.5c0.4-0.3,0.8-0.8,1.1-1.6l0.5-1.2l-5.4-12.1h1.7
		l4.6,10.3l4.6-10.3H467.6z"/>
	<path d="M477.1,144.2l-3.9-5.1l-3.9,5.1h-1.8l4.8-6.2l-4.6-5.9h1.8l3.7,4.8l3.7-4.8h1.8l-4.6,5.9l4.9,6.2H477.1z"/>
	<path d="M481.6,132.1h1.6v5.4h7.7v-5.4h1.6v12.2h-1.6v-5.4h-7.7v5.4h-1.6V132.1z"/>
	<path d="M506.6,132.1v12.2h-1.5v-4h-3.8h-0.5l-2.8,4h-1.8l3-4.3c-0.9-0.3-1.7-0.7-2.2-1.3c-0.5-0.6-0.8-1.4-0.8-2.4
		c0-1.4,0.5-2.4,1.4-3.1s2.2-1.1,3.8-1.1H506.6z M501.4,139h3.7v-5.5h-3.6c-2.4,0-3.6,0.9-3.6,2.8C497.9,138.1,499.1,139,501.4,139z
		"/>
	<path d="M510.3,137.2h6.1v1.4h-6.1V137.2z"/>
	<path d="M443.5,171.3c-0.9-0.5-1.7-1.3-2.2-2.2s-0.8-2-0.8-3.2c0-1.2,0.3-2.2,0.8-3.2c0.5-0.9,1.3-1.7,2.2-2.2
		c0.9-0.5,2-0.8,3.2-0.8c1,0,2,0.2,2.8,0.6c0.8,0.4,1.5,1,2,1.8l-1.2,0.8c-0.4-0.6-0.9-1.1-1.5-1.4c-0.6-0.3-1.3-0.5-2-0.5
		c-0.9,0-1.7,0.2-2.4,0.6s-1.2,1-1.6,1.7c-0.4,0.7-0.6,1.5-0.6,2.5c0,0.9,0.2,1.8,0.6,2.5c0.4,0.7,0.9,1.3,1.6,1.7s1.5,0.6,2.4,0.6
		c0.7,0,1.4-0.1,2-0.4c0.6-0.3,1.1-0.7,1.5-1.3l1.2,0.8c-0.5,0.8-1.1,1.4-2,1.8c-0.8,0.4-1.8,0.6-2.8,0.6
		C445.5,172.1,444.4,171.8,443.5,171.3z"/>
	<path d="M462.9,161.2h-4.6v10.7h-1.6v-10.7h-4.6v-1.5h10.8V161.2z"/>
	<path d="M466.6,171.3c-0.9-0.5-1.7-1.3-2.2-2.2c-0.5-0.9-0.8-2-0.8-3.2c0-1.2,0.3-2.2,0.8-3.2c0.5-0.9,1.3-1.7,2.2-2.2
		c0.9-0.5,2-0.8,3.2-0.8c1.2,0,2.2,0.3,3.2,0.8c0.9,0.5,1.7,1.3,2.2,2.2c0.5,0.9,0.8,2,0.8,3.2c0,1.2-0.3,2.3-0.8,3.2
		c-0.5,0.9-1.3,1.7-2.2,2.2c-0.9,0.5-2,0.8-3.2,0.8C468.6,172.1,467.6,171.8,466.6,171.3z M472.1,170c0.7-0.4,1.2-1,1.6-1.7
		c0.4-0.7,0.6-1.5,0.6-2.5s-0.2-1.7-0.6-2.5c-0.4-0.7-0.9-1.3-1.6-1.7s-1.5-0.6-2.3-0.6c-0.9,0-1.6,0.2-2.3,0.6
		c-0.7,0.4-1.2,1-1.6,1.7c-0.4,0.7-0.6,1.5-0.6,2.5s0.2,1.7,0.6,2.5c0.4,0.7,0.9,1.3,1.6,1.7c0.7,0.4,1.5,0.6,2.3,0.6
		C470.6,170.6,471.4,170.4,472.1,170z"/>
	<path d="M489.3,159.8v12.2h-1.6v-10.7h-5.8l-0.2,3c-0.1,2.5-0.4,4.5-0.9,5.8c-0.5,1.4-1.3,2-2.5,2c-0.3,0-0.7-0.1-1.2-0.2l0.1-1.4
		c0.3,0.1,0.5,0.1,0.6,0.1c0.6,0,1.1-0.3,1.4-0.9c0.3-0.6,0.5-1.3,0.6-2.2c0.1-0.9,0.2-2,0.3-3.4l0.2-4.3H489.3z"/>
	<path d="M495.9,171.3c-0.9-0.5-1.7-1.3-2.2-2.2c-0.5-0.9-0.8-2-0.8-3.2c0-1.2,0.3-2.2,0.8-3.2c0.5-0.9,1.3-1.7,2.2-2.2
		c0.9-0.5,2-0.8,3.2-0.8c1.2,0,2.2,0.3,3.2,0.8c0.9,0.5,1.7,1.3,2.2,2.2c0.5,0.9,0.8,2,0.8,3.2c0,1.2-0.3,2.3-0.8,3.2
		c-0.5,0.9-1.3,1.7-2.2,2.2c-0.9,0.5-2,0.8-3.2,0.8C497.9,172.1,496.8,171.8,495.9,171.3z M501.3,170c0.7-0.4,1.2-1,1.6-1.7
		c0.4-0.7,0.6-1.5,0.6-2.5s-0.2-1.7-0.6-2.5c-0.4-0.7-0.9-1.3-1.6-1.7s-1.5-0.6-2.3-0.6c-0.9,0-1.6,0.2-2.3,0.6
		c-0.7,0.4-1.2,1-1.6,1.7c-0.4,0.7-0.6,1.5-0.6,2.5s0.2,1.7,0.6,2.5c0.4,0.7,0.9,1.3,1.6,1.7c0.7,0.4,1.5,0.6,2.3,0.6
		C499.9,170.6,500.7,170.4,501.3,170z"/>
	<path d="M518.9,168.6c0,1.1-0.4,1.9-1.2,2.4c-0.8,0.6-2,0.9-3.5,0.9h-5.5v-12.2h5.4c1.4,0,2.5,0.3,3.3,0.8c0.8,0.5,1.2,1.3,1.2,2.3
		c0,0.7-0.2,1.2-0.5,1.7c-0.4,0.5-0.9,0.8-1.5,1.1C518.1,166,518.9,167,518.9,168.6z M510.3,165.2h3.7c0.9,0,1.7-0.2,2.2-0.5
		c0.5-0.4,0.8-0.9,0.8-1.5s-0.3-1.2-0.8-1.5c-0.5-0.3-1.2-0.5-2.2-0.5h-3.7V165.2z M516.5,170.1c0.5-0.3,0.8-0.9,0.8-1.6
		c0-0.7-0.2-1.3-0.7-1.6s-1.2-0.5-2.3-0.5h-4v4.2h3.9C515.2,170.7,516,170.5,516.5,170.1z"/>
	<path d="M530.6,160.9c0.8,0.8,1.3,2,1.3,3.5v7.5h-1.6v-1.9c-0.4,0.6-0.9,1.1-1.6,1.5s-1.6,0.5-2.6,0.5c-1.4,0-2.4-0.3-3.2-1
		c-0.8-0.6-1.2-1.5-1.2-2.6c0-1,0.4-1.9,1.1-2.5c0.7-0.6,1.9-0.9,3.6-0.9h3.9v-0.7c0-1-0.3-1.8-0.9-2.4c-0.6-0.5-1.4-0.8-2.6-0.8
		c-0.8,0-1.5,0.1-2.2,0.4c-0.7,0.3-1.3,0.6-1.8,1.1l-0.7-1.2c0.6-0.5,1.4-0.9,2.2-1.2c0.9-0.3,1.8-0.4,2.7-0.4
		C528.5,159.7,529.7,160.1,530.6,160.9z M528.7,170.1c0.7-0.4,1.2-1,1.5-1.8v-2h-3.8c-2.1,0-3.1,0.7-3.1,2.2c0,0.7,0.3,1.3,0.8,1.7
		c0.5,0.4,1.3,0.6,2.3,0.6C527.3,170.8,528.1,170.6,528.7,170.1z"/>
	<path d="M545.6,159.8v12.2h-1.5v-4h-3.8h-0.5l-2.8,4h-1.8l3-4.3c-0.9-0.3-1.7-0.7-2.2-1.3c-0.5-0.6-0.8-1.4-0.8-2.4
		c0-1.4,0.5-2.4,1.4-3.1s2.2-1.1,3.8-1.1H545.6z M540.4,166.7h3.7v-5.5h-3.6c-2.4,0-3.6,0.9-3.6,2.8
		C537,165.8,538.1,166.7,540.4,166.7z"/>
	<path d="M446.9,186.4v20.2h-2.9v-17.7h-4.6v-2.5H446.9z"/>
	<path d="M466.1,186.4v2l-8.2,18.3h-3.1l8-17.7h-9.2v3.6h-2.8v-6.1H466.1z"/>
	<path d="M470.4,203.4c0.4,0.4,0.5,0.8,0.5,1.4c0,0.3,0,0.6-0.1,0.8c-0.1,0.3-0.2,0.7-0.4,1.2l-1.4,4h-1.8l1.1-4.3
		c-0.4-0.1-0.7-0.4-0.9-0.7c-0.2-0.3-0.3-0.7-0.3-1.1c0-0.6,0.2-1,0.5-1.4c0.4-0.4,0.8-0.5,1.4-0.5C469.6,202.8,470,203,470.4,203.4
		z"/>
	<path d="M491,201.6h-3.8v5h-2.8v-5h-11.2v-2l10.3-13.2h3.1l-9.9,12.8h7.8v-4.4h2.7v4.4h3.8V201.6z"/>
</g>
<g>
	<path d="M64.9,373.9c-1.3-0.7-2.3-1.7-3-2.9c-0.7-1.3-1.1-2.7-1.1-4.2s0.4-3,1.1-4.2s1.7-2.2,3-2.9c1.3-0.7,2.7-1.1,4.3-1.1
		c1.2,0,2.3,0.2,3.3,0.6c1,0.4,1.9,1,2.6,1.8l-1.1,1.1c-1.3-1.3-2.9-1.9-4.8-1.9c-1.3,0-2.4,0.3-3.5,0.9c-1,0.6-1.9,1.4-2.5,2.4
		c-0.6,1-0.9,2.2-0.9,3.4s0.3,2.4,0.9,3.4c0.6,1,1.4,1.8,2.5,2.4c1,0.6,2.2,0.9,3.5,0.9c1.9,0,3.5-0.6,4.8-1.9l1.1,1.1
		c-0.7,0.8-1.6,1.4-2.6,1.8c-1,0.4-2.1,0.6-3.3,0.6C67.6,374.9,66.2,374.6,64.9,373.9z"/>
	<path d="M89.2,362.6v12.2h-1.6v-10.7H80v10.7h-1.6v-12.2H89.2z"/>
	<path d="M101.7,363.7c0.8,0.8,1.3,2,1.3,3.5v7.5h-1.6v-1.9c-0.4,0.6-0.9,1.1-1.6,1.5c-0.7,0.4-1.6,0.5-2.6,0.5
		c-1.4,0-2.4-0.3-3.2-1c-0.8-0.6-1.2-1.5-1.2-2.6c0-1,0.4-1.9,1.1-2.5s1.9-0.9,3.6-0.9h3.9v-0.7c0-1-0.3-1.8-0.9-2.4
		c-0.6-0.5-1.4-0.8-2.6-0.8c-0.8,0-1.5,0.1-2.2,0.4c-0.7,0.3-1.3,0.6-1.8,1.1l-0.7-1.2c0.6-0.5,1.4-0.9,2.2-1.2
		c0.9-0.3,1.8-0.4,2.7-0.4C99.7,362.6,100.9,363,101.7,363.7z M99.9,373c0.7-0.4,1.2-1,1.5-1.8v-2h-3.8c-2.1,0-3.1,0.7-3.1,2.2
		c0,0.7,0.3,1.3,0.8,1.7c0.5,0.4,1.3,0.6,2.3,0.6C98.4,373.6,99.2,373.4,99.9,373z"/>
	<path d="M117.3,362.6v12.2h-1.6v-10.7h-5.8l-0.2,3c-0.1,2.5-0.4,4.5-0.9,5.8s-1.3,2-2.5,2c-0.3,0-0.7-0.1-1.2-0.2l0.1-1.4
		c0.3,0.1,0.5,0.1,0.6,0.1c0.6,0,1.1-0.3,1.4-0.9s0.5-1.3,0.6-2.2s0.2-2,0.3-3.4l0.2-4.3H117.3z"/>
	<path d="M130.7,368c0.8,0.7,1.2,1.6,1.2,2.9c0,1.3-0.4,2.3-1.3,3c-0.9,0.7-2.1,1-3.7,1l-4.9,0v-12.2h1.6v4.3l3.6,0
		C128.7,367,129.9,367.3,130.7,368z M129.4,372.9c0.6-0.5,0.9-1.2,0.9-2.1c0-0.9-0.3-1.6-0.9-2c-0.6-0.4-1.4-0.7-2.6-0.7l-3.2,0v5.4
		l3.2,0C127.9,373.6,128.8,373.4,129.4,372.9z"/>
	<path d="M135,362.6h1.6v5.4h7.7v-5.4h1.6v12.2h-1.6v-5.4h-7.7v5.4H135V362.6z"/>
	<path d="M159.9,362.6v12.2h-1.5v-4h-3.8h-0.5l-2.8,4h-1.8l3-4.3c-0.9-0.3-1.7-0.7-2.2-1.3c-0.5-0.6-0.8-1.4-0.8-2.4
		c0-1.4,0.5-2.4,1.4-3.1c0.9-0.7,2.2-1.1,3.8-1.1H159.9z M154.8,369.6h3.7v-5.5h-3.6c-2.4,0-3.6,0.9-3.6,2.8
		C151.3,368.7,152.5,369.6,154.8,369.6z"/>
	<path d="M67.1,389.3v20.2h-2.9v-17.7h-4.6v-2.5H67.1z"/>
	<path d="M85.7,407v2.5H71.2v-2l8.2-7.9c1-1,1.7-1.8,2-2.5s0.5-1.4,0.5-2.1c0-1.1-0.4-1.9-1.1-2.5c-0.7-0.6-1.8-0.9-3.2-0.9
		c-2.2,0-4,0.7-5.2,2.2l-2-1.7c0.8-1,1.8-1.7,3.1-2.3c1.3-0.5,2.7-0.8,4.3-0.8c2.1,0,3.8,0.5,5.1,1.5c1.3,1,1.9,2.4,1.9,4.1
		c0,1.1-0.2,2.1-0.7,3.1c-0.5,1-1.3,2.1-2.6,3.3l-6.2,6H85.7z"/>
	<path d="M91.7,406.3c0.4,0.4,0.5,0.8,0.5,1.4c0,0.3,0,0.6-0.1,0.8c-0.1,0.3-0.2,0.7-0.4,1.2l-1.4,4h-1.8l1.1-4.3
		c-0.4-0.1-0.7-0.4-0.9-0.7c-0.2-0.3-0.3-0.7-0.3-1.1c0-0.6,0.2-1,0.5-1.4c0.4-0.4,0.8-0.5,1.4-0.5
		C90.9,405.7,91.3,405.9,91.7,406.3z"/>
	<path d="M107.5,399.6c1,1,1.6,2.3,1.6,3.9c0,1.2-0.3,2.2-0.9,3.1c-0.6,0.9-1.4,1.7-2.6,2.2c-1.1,0.5-2.5,0.8-4.2,0.8
		c-1.4,0-2.8-0.2-4.2-0.7s-2.4-1-3.3-1.8l1.3-2.3c0.7,0.7,1.6,1.2,2.7,1.6c1.1,0.4,2.2,0.6,3.4,0.6c1.5,0,2.7-0.3,3.5-1
		s1.3-1.5,1.3-2.6s-0.4-2-1.2-2.6c-0.8-0.6-2.1-0.9-3.8-0.9h-1.6v-2l5.1-6.2h-9.7v-2.5h13.3v2l-5.3,6.5
		C105,397.9,106.5,398.6,107.5,399.6z"/>
</g>
<g>
	<path d="M83.5,157.6c1,1,1.6,2.3,1.6,3.9c0,1.2-0.3,2.2-0.9,3.1c-0.6,0.9-1.4,1.7-2.6,2.2c-1.1,0.5-2.5,0.8-4.2,0.8
		c-1.4,0-2.8-0.2-4.2-0.6s-2.4-1-3.3-1.8l1.3-2.3c0.7,0.7,1.6,1.2,2.7,1.6c1.1,0.4,2.2,0.6,3.4,0.6c1.5,0,2.7-0.3,3.5-1
		s1.3-1.5,1.3-2.6s-0.4-2-1.2-2.6c-0.8-0.6-2.1-0.9-3.8-0.9h-1.6v-2l5.1-6.2h-9.7v-2.5h13.3v2l-5.3,6.5
		C81,156,82.5,156.6,83.5,157.6z"/>
	<path d="M91,164.3c0.4,0.4,0.5,0.8,0.5,1.4c0,0.3,0,0.6-0.1,0.8c-0.1,0.3-0.2,0.7-0.4,1.2l-1.4,4h-1.8l1.1-4.3
		c-0.4-0.1-0.7-0.4-0.9-0.7c-0.2-0.3-0.3-0.7-0.3-1.1c0-0.6,0.2-1,0.5-1.4c0.4-0.4,0.8-0.5,1.4-0.5C90.2,163.8,90.7,163.9,91,164.3z
		"/>
	<path d="M108.8,165v2.5H94.3v-2l8.2-7.9c1-1,1.7-1.8,2-2.5c0.3-0.7,0.5-1.4,0.5-2.1c0-1.1-0.4-1.9-1.1-2.5
		c-0.7-0.6-1.8-0.9-3.2-0.9c-2.2,0-4,0.7-5.2,2.2l-2-1.7c0.8-1,1.8-1.7,3.1-2.3c1.3-0.5,2.7-0.8,4.3-0.8c2.1,0,3.8,0.5,5.1,1.5
		c1.3,1,1.9,2.4,1.9,4.1c0,1.1-0.2,2.1-0.7,3.1s-1.3,2.1-2.6,3.3l-6.2,6H108.8z"/>
</g>
<g>
	<path d="M571.9,529.1c1.4,1.1,2,2.6,2,4.5c0,1.2-0.3,2.3-0.9,3.2c-0.6,1-1.4,1.7-2.6,2.3c-1.1,0.5-2.6,0.8-4.2,0.8
		c-1.4,0-2.8-0.2-4.1-0.7s-2.4-1-3.3-1.8l1.3-2.3c0.7,0.7,1.6,1.2,2.7,1.6c1.1,0.4,2.2,0.6,3.4,0.6c1.5,0,2.7-0.3,3.5-1
		c0.8-0.6,1.3-1.5,1.3-2.6c0-1.2-0.5-2.1-1.4-2.8c-0.9-0.6-2.5-0.9-4.7-0.9h-4.6l1.1-10.6h11.4v2.5h-9l-0.5,5.5h2.3
		C568.4,527.5,570.5,528,571.9,529.1z"/>
	<path d="M579.6,536.4c0.4,0.4,0.5,0.8,0.5,1.4c0,0.3,0,0.6-0.1,0.8c-0.1,0.3-0.2,0.7-0.4,1.2l-1.4,4h-1.8l1.1-4.3
		c-0.4-0.1-0.7-0.4-0.9-0.7c-0.2-0.3-0.3-0.7-0.3-1.1c0-0.6,0.2-1,0.5-1.4c0.4-0.4,0.8-0.5,1.4-0.5
		C578.8,535.9,579.3,536.1,579.6,536.4z"/>
	<path d="M586.6,538.7c-1.2-0.8-2.2-2-2.9-3.6c-0.7-1.6-1.1-3.4-1.1-5.5c0-2.1,0.4-4,1.1-5.5c0.7-1.6,1.7-2.7,2.9-3.6
		c1.2-0.8,2.7-1.2,4.3-1.2c1.6,0,3,0.4,4.2,1.2c1.2,0.8,2.2,2,2.9,3.6s1.1,3.4,1.1,5.5c0,2.1-0.4,4-1.1,5.5
		c-0.7,1.6-1.7,2.8-2.9,3.6c-1.2,0.8-2.7,1.2-4.2,1.2C589.2,539.9,587.8,539.5,586.6,538.7z M594.7,535.3c1-1.3,1.5-3.3,1.5-5.8
		s-0.5-4.5-1.5-5.8s-2.3-2-3.9-2c-1.6,0-2.9,0.7-3.9,2s-1.5,3.3-1.5,5.8s0.5,4.4,1.5,5.8s2.3,2,3.9,2
		C592.4,537.3,593.7,536.7,594.7,535.3z"/>
</g>
<g>
	<path d="M637.5,373.3h-3.8v5h-2.8v-5h-11.2v-2l10.3-13.2h3.1l-9.9,12.8h7.8v-4.4h2.7v4.4h3.8V373.3z"/>
	<path d="M643.1,375.1c0.4,0.4,0.5,0.8,0.5,1.4c0,0.3,0,0.6-0.1,0.8c-0.1,0.3-0.2,0.7-0.4,1.2l-1.4,4h-1.8l1.1-4.3
		c-0.4-0.1-0.7-0.4-0.9-0.7c-0.2-0.3-0.3-0.7-0.3-1.1c0-0.6,0.2-1,0.5-1.4c0.4-0.4,0.8-0.5,1.4-0.5
		C642.3,374.5,642.7,374.7,643.1,375.1z"/>
	<path d="M660.8,375.8v2.5h-14.5v-2l8.2-7.9c1-1,1.7-1.8,2-2.5s0.5-1.4,0.5-2.1c0-1.1-0.4-1.9-1.1-2.5c-0.7-0.6-1.8-0.9-3.2-0.9
		c-2.2,0-4,0.7-5.2,2.2l-2-1.7c0.8-1,1.8-1.7,3.1-2.3c1.3-0.5,2.7-0.8,4.3-0.8c2.1,0,3.8,0.5,5.1,1.5c1.3,1,1.9,2.4,1.9,4.1
		c0,1.1-0.2,2.1-0.7,3.1c-0.5,1-1.3,2.1-2.6,3.3l-6.2,6H660.8z"/>
</g>
<g>
	<g>
		
			<rect x="107.1" y="447.3" transform="matrix(6.123234e-17 -1 1 6.123234e-17 -319.8888 715.673)" fill-rule="evenodd" clip-rule="evenodd" fill="#F1F2F2" stroke="#848484" stroke-miterlimit="10" width="181.7" height="141"/>
		
			<rect x="113.3" y="449.4" transform="matrix(6.123234e-17 -1 1 6.123234e-17 -318.733 714.6652)" fill-rule="evenodd" clip-rule="evenodd" fill="#F1F2F2" stroke="#848484" stroke-miterlimit="10" width="169.3" height="134.5"/>
		
			<rect x="141.7" y="551.8" transform="matrix(2.141122e-13 -1 1 2.141122e-13 -417.0716 738.7057)" fill-rule="evenodd" clip-rule="evenodd" fill="#F1F2F2" stroke="#848484" stroke-miterlimit="10" width="38.2" height="52.3"/>
		
			<rect x="215.6" y="551.8" transform="matrix(6.123234e-17 -1 1 6.123234e-17 -343.1623 812.6152)" fill-rule="evenodd" clip-rule="evenodd" fill="#F1F2F2" stroke="#848484" stroke-miterlimit="10" width="38.2" height="52.3"/>
		<polygon fill-rule="evenodd" clip-rule="evenodd" fill="#F1F2F2" stroke="#848484" stroke-miterlimit="10" points="130.7,539.3 
			170.8,562.7 225.1,562.7 170.8,562.7 225.1,562.7 265.2,539.3 265.2,432 265.1,432 130.7,432 		"/>
		<polyline fill-rule="evenodd" clip-rule="evenodd" fill="#F1F2F2" stroke="#848484" stroke-miterlimit="10" points="130.7,539.3 
			158.9,522.2 170.8,562.7 		"/>
		
			<line fill-rule="evenodd" clip-rule="evenodd" fill="#F1F2F2" stroke="#848484" stroke-miterlimit="10" x1="170.8" y1="562.7" x2="130.7" y2="539.3"/>
		<polyline fill-rule="evenodd" clip-rule="evenodd" fill="#F1F2F2" stroke="#848484" stroke-miterlimit="10" points="265.2,539.3 
			237.1,522.2 225.1,562.7 		"/>
		
			<line fill-rule="evenodd" clip-rule="evenodd" fill="#F1F2F2" stroke="#848484" stroke-miterlimit="10" x1="225.1" y1="562.7" x2="265.2" y2="539.3"/>
	</g>
	<g>
		<rect x="271" y="572.6" fill="#F1F2F2" stroke="#848484" stroke-miterlimit="10" width="49.6" height="36.1"/>
		<rect x="285.2" y="570.2" fill="#F1F2F2" stroke="#848484" stroke-miterlimit="10" width="20.8" height="2.3"/>
	</g>
	<g>
		<rect x="75" y="572.6" fill="#F1F2F2" stroke="#848484" stroke-miterlimit="10" width="49.6" height="36.1"/>
		<rect x="89.2" y="570.2" fill="#F1F2F2" stroke="#848484" stroke-miterlimit="10" width="20.8" height="2.3"/>
	</g>
</g>
<g>
	
		<rect x="311.8" y="506.5" transform="matrix(-4.489316e-11 1 -1 -4.489316e-11 920.0665 145.2178)" fill-rule="evenodd" clip-rule="evenodd" fill="#F1F2F2" stroke="#848484" stroke-miterlimit="10" width="151.3" height="52.2"/>
	<line fill="#F1F2F2" stroke="#848484" stroke-miterlimit="10" x1="361.3" y1="462.5" x2="413.6" y2="462.5"/>
	<line fill="#F1F2F2" stroke="#848484" stroke-miterlimit="10" x1="361.3" y1="602.7" x2="413.5" y2="602.7"/>
	<line fill="#F1F2F2" stroke="#848484" stroke-miterlimit="10" x1="411.1" y1="462.5" x2="411.1" y2="602.7"/>
	<line fill="#F1F2F2" stroke="#848484" stroke-miterlimit="10" x1="387" y1="597.8" x2="387" y2="467.3"/>
	
		<rect x="385.7" y="458.2" transform="matrix(0.162 0.9868 -0.9868 0.162 792.4355 15.1112)" fill="#F1F2F2" stroke="#848484" stroke-miterlimit="10" width="3.3" height="31.9"/>
	
		<rect x="385.7" y="469.9" transform="matrix(8.815246e-02 0.9961 -0.9961 8.815246e-02 837.1178 57.1912)" fill="#F1F2F2" stroke="#848484" stroke-miterlimit="10" width="3.3" height="31.9"/>
	
		<rect x="385.4" y="481.8" transform="matrix(0.229 0.9734 -0.9734 0.229 782.8898 6.9635)" fill="#F1F2F2" stroke="#848484" stroke-miterlimit="10" width="3.3" height="31.9"/>
	
		<rect x="385.8" y="495" transform="matrix(0.152 0.9884 -0.9884 0.152 833.509 50.361)" fill="#F1F2F2" stroke="#848484" stroke-miterlimit="10" width="3.3" height="31.9"/>
	
		<rect x="385.6" y="506.6" transform="matrix(4.511170e-02 0.999 -0.999 4.511170e-02 891.7245 112.095)" fill="#F1F2F2" stroke="#848484" stroke-miterlimit="10" width="3.3" height="31.9"/>
	
		<rect x="385.6" y="518.3" transform="matrix(0.152 0.9884 -0.9884 0.152 856.3342 70.2483)" fill="#F1F2F2" stroke="#848484" stroke-miterlimit="10" width="3.3" height="31.9"/>
	
		<rect x="385.4" y="530.1" transform="matrix(4.511170e-02 0.999 -0.999 4.511170e-02 915.1 134.7784)" fill="#F1F2F2" stroke="#848484" stroke-miterlimit="10" width="3.3" height="31.9"/>
	
		<rect x="385.4" y="541.8" transform="matrix(0.2052 0.9787 -0.9787 0.2052 853.4866 64.4722)" fill="#F1F2F2" stroke="#848484" stroke-miterlimit="10" width="3.3" height="31.9"/>
	
		<rect x="385.4" y="553.4" transform="matrix(0.152 0.9884 -0.9884 0.152 890.9647 100.2067)" fill="#F1F2F2" stroke="#848484" stroke-miterlimit="10" width="3.3" height="31.9"/>
	
		<rect x="385.4" y="565.1" transform="matrix(8.473843e-02 0.9964 -0.9964 8.473843e-02 933.159 146.1079)" fill="#F1F2F2" stroke="#848484" stroke-miterlimit="10" width="3.3" height="31.9"/>
	
		<rect x="385.8" y="576.7" transform="matrix(0.2379 0.9713 -0.9713 0.2379 870.881 75.3272)" fill="#F1F2F2" stroke="#848484" stroke-miterlimit="10" width="3.3" height="31.9"/>
</g>
<g>
	<g>
		
			<rect x="200.4" y="340.8" fill-rule="evenodd" clip-rule="evenodd" fill="#F1F2F2" stroke="#848484" stroke-miterlimit="10" width="102.4" height="5.2"/>
		<polygon fill-rule="evenodd" clip-rule="evenodd" fill="#F1F2F2" stroke="#848484" stroke-miterlimit="10" points="294.1,340.8 
			277.6,336.8 225.6,336.8 209.1,340.8 		"/>
		
			<rect x="249.4" y="325.8" transform="matrix(5.139095e-11 -1 1 5.139095e-11 -82.9107 586.1259)" fill-rule="evenodd" clip-rule="evenodd" fill="#F1F2F2" stroke="#848484" stroke-miterlimit="10" width="4.5" height="17.5"/>
	</g>
</g>
<g>
	<path fill-rule="evenodd" clip-rule="evenodd" fill="#F1F2F2" stroke="#848484" stroke-miterlimit="10" d="M178.4,142.8V83.3V35.5
		c0-3.2,2.6-5.8,5.8-5.8h47.9H377c3.2,0,5.8,2.6,5.8,5.8v47.8c0,3.2-2.6,5.8-5.8,5.8H243.7c-3.2,0-5.8,2.6-5.8,5.8v47.9
		c0,3.2-2.6,5.8-5.8,5.8h-47.9C181,148.5,178.4,145.9,178.4,142.8z"/>
	<g>
		<path fill-rule="evenodd" clip-rule="evenodd" fill="#F1F2F2" stroke="#848484" stroke-miterlimit="10" d="M237.9,79.5
			c0,6.8-0.3,9.6-8.9,9.6h-25.5c-8.6,0-8.9-2.9-8.9-9.6V54.1c0-6.8,0.3-9.6,8.9-9.6H229c8.6,0,8.9,2.9,8.9,9.6V79.5z"/>
		<path fill-rule="evenodd" clip-rule="evenodd" fill="#F1F2F2" stroke="#848484" stroke-miterlimit="10" d="M237.9,79.5
			c0,6.8-0.3,9.6-8.9,9.6h-25.5c-8.6,0-8.9-2.9-8.9-9.6V54.1c0-6.8,0.3-9.6,8.9-9.6H229c8.6,0,8.9,2.9,8.9,9.6V79.5z"/>
		<path fill-rule="evenodd" clip-rule="evenodd" fill="#F1F2F2" stroke="#848484" stroke-miterlimit="10" d="M280.9,79.5
			c0,6.8-0.3,9.6-8.9,9.6h-25.5c-8.6,0-8.9-2.9-8.9-9.6V54.1c0-6.8,0.3-9.6,8.9-9.6H272c8.6,0,8.9,2.9,8.9,9.6V79.5z"/>
		<path fill-rule="evenodd" clip-rule="evenodd" fill="#F1F2F2" stroke="#848484" stroke-miterlimit="10" d="M280.9,79.5
			c0,6.8-0.3,9.6-8.9,9.6h-25.5c-8.6,0-8.9-2.9-8.9-9.6V54.1c0-6.8,0.3-9.6,8.9-9.6H272c8.6,0,8.9,2.9,8.9,9.6V79.5z"/>
		<path fill-rule="evenodd" clip-rule="evenodd" fill="#F1F2F2" stroke="#848484" stroke-miterlimit="10" d="M323.9,79.5
			c0,6.8-0.3,9.6-8.9,9.6h-25.6c-8.6,0-8.9-2.9-8.9-9.6V54.1c0-6.8,0.3-9.6,8.9-9.6h25.6c8.6,0,8.9,2.9,8.9,9.6V79.5z"/>
		<path fill-rule="evenodd" clip-rule="evenodd" fill="#F1F2F2" stroke="#848484" stroke-miterlimit="10" d="M323.9,79.5
			c0,6.8-0.3,9.6-8.9,9.6h-25.6c-8.6,0-8.9-2.9-8.9-9.6V54.1c0-6.8,0.3-9.6,8.9-9.6h25.6c8.6,0,8.9,2.9,8.9,9.6V79.5z"/>
		<path fill-rule="evenodd" clip-rule="evenodd" fill="#F1F2F2" stroke="#848484" stroke-miterlimit="10" d="M237.9,124.1
			c0,6.8-0.3,9.6-8.9,9.6h-25.5c-8.6,0-8.9-2.9-8.9-9.6V98.7c0-6.8,0.3-9.6,8.9-9.6H229c8.6,0,8.9,2.9,8.9,9.6V124.1z"/>
		<path fill-rule="evenodd" clip-rule="evenodd" fill="#F1F2F2" stroke="#848484" stroke-miterlimit="10" d="M366.9,79.4
			c0,6.8-0.3,9.6-8.9,9.6h-25.6c-8.6,0-8.9-2.9-8.9-9.6V54c0-6.8,0.3-9.6,8.9-9.6H358c8.6,0,8.9,2.9,8.9,9.6V79.4z"/>
		<path fill-rule="evenodd" clip-rule="evenodd" fill="#F1F2F2" stroke="#848484" stroke-miterlimit="10" d="M178.4,35.8v104v2.5
			c0,3.4,3,6.1,6.6,6.1h2.7h43.5c3.6,0,6.6-2.8,6.6-6.1v-2.5c0-3.4-3-6.1-6.6-6.1h-36.9V44.5h172.5V83c0,3.4,3,6.1,6.6,6.1h2.7
			c3.6,0,6.6-2.8,6.6-6.1V38.4v-2.5c0-3.4-3-6.1-6.6-6.1h-2.7H187.7H185h0C181.4,29.7,178.4,32.5,178.4,35.8z"/>
	</g>
</g>
<g>
	<g>
		<path fill="#F1F2F2" stroke="#848484" stroke-miterlimit="10" d="M303.3,276.8c-8.7,0-15.7,2.6-15.7,5.8c0,3.2,7,5.8,15.7,5.8
			c8.7,0,15.7-2.6,15.7-5.8C319,279.4,311.9,276.8,303.3,276.8z"/>
		<path fill="#F1F2F2" stroke="#848484" stroke-miterlimit="10" d="M303.3,250.6c-8.7,0-15.7,7-15.7,15.7c0,8.7,7,15.7,15.7,15.7
			c8.7,0,15.7-7,15.7-15.7C319,257.6,311.9,250.6,303.3,250.6z"/>
	</g>
	<g>
		<path fill="#F1F2F2" stroke="#848484" stroke-miterlimit="10" d="M350.5,200.8c8.7,0,15.7-2.6,15.7-5.8c0-3.2-7-5.8-15.7-5.8
			s-15.7,2.6-15.7,5.8C334.8,198.2,341.8,200.8,350.5,200.8z"/>
		<path fill="#F1F2F2" stroke="#848484" stroke-miterlimit="10" d="M350.5,227.1c8.7,0,15.7-7,15.7-15.7s-7-15.7-15.7-15.7
			s-15.7,7-15.7,15.7S341.8,227.1,350.5,227.1z"/>
	</g>
	<g>
		<path fill="#F1F2F2" stroke="#848484" stroke-miterlimit="10" d="M303.3,199.5c8.7,0,15.7-2.6,15.7-5.8c0-3.2-7-5.8-15.7-5.8
			c-8.7,0-15.7,2.6-15.7,5.8C287.6,196.9,294.6,199.5,303.3,199.5z"/>
		<path fill="#F1F2F2" stroke="#848484" stroke-miterlimit="10" d="M303.3,225.7c8.7,0,15.7-7,15.7-15.7c0-8.7-7-15.7-15.7-15.7
			c-8.7,0-15.7,7-15.7,15.7C287.6,218.7,294.6,225.7,303.3,225.7z"/>
	</g>
	<g>
		<path fill="#F1F2F2" stroke="#848484" stroke-miterlimit="10" d="M350.5,275c-8.7,0-15.7,2.6-15.7,5.8c0,3.2,7,5.8,15.7,5.8
			c8.7,0,15.7-2.6,15.7-5.8C366.1,277.6,359.1,275,350.5,275z"/>
		<path fill="#F1F2F2" stroke="#848484" stroke-miterlimit="10" d="M350.5,248.8c-8.7,0-15.7,7-15.7,15.7c0,8.7,7,15.7,15.7,15.7
			c8.7,0,15.7-7,15.7-15.7C366.1,255.8,359.1,248.8,350.5,248.8z"/>
	</g>
	<rect x="272.5" y="206.3" fill="#F1F2F2" stroke="#848484" stroke-miterlimit="10" width="109.5" height="63.2"/>
</g>
<g>
	<g>
		
			<rect x="274.4" y="303.3" fill-rule="evenodd" clip-rule="evenodd" fill="#F1F2F2" stroke="#848484" stroke-miterlimit="10" width="102.4" height="5.2"/>
		<polygon fill-rule="evenodd" clip-rule="evenodd" fill="#F1F2F2" stroke="#848484" stroke-miterlimit="10" points="283,308.4 
			299.5,312.4 351.5,312.4 368,308.4 		"/>
		
			<rect x="323.3" y="305.9" transform="matrix(-5.139108e-11 1 -1 -5.139108e-11 640.1779 -10.833)" fill-rule="evenodd" clip-rule="evenodd" fill="#F1F2F2" stroke="#848484" stroke-miterlimit="10" width="4.5" height="17.5"/>
	</g>
</g>
<g>
</g>
<g>
</g>
<g>
</g>
<g>
</g>
<g>
</g>
<g>
</g>
</svg>
