<?xml version="1.0" encoding="utf-8"?>
<!-- Generator: Adobe Illustrator 23.0.2, SVG Export Plug-In . SVG Version: 6.00 Build 0)  -->
<svg version="1.1" xmlns="http://www.w3.org/2000/svg" xmlns:xlink="http://www.w3.org/1999/xlink" x="0px" y="0px"
	 viewBox="0 0 800 572.3" enable-background="new 0 0 800 572.3" xml:space="preserve">
<g id="Слой_1">
	<polygon fill="#F2F3F3" stroke="#858585" points="769.9,216 769.9,38.6 605.2,38.6 605.2,86.4 718.3,86.4 718.3,216 	"/>
	<g id="unitaz">
		<path fill="#F2F3F3" stroke="#858585" d="M543.7,544.9V535c0-1.6,1.3-2.8,2.8-2.8H572c1.6,0,2.8,1.3,2.8,2.8v9.9H543.7z"/>
		<path fill="#F2F3F3" stroke="#858585" d="M546.5,532.2c-1.6,0-2.8-1.3-2.8-2.8h31.1c0,1.6-1.3,2.8-2.8,2.8H546.5z"/>
		<path fill="#F2F3F3" stroke="#858585" d="M574.8,529.4h-31.1c0,0-6.4-36.8,15.6-36.8C581.2,492.6,574.8,529.4,574.8,529.4z"/>
		<circle fill="#F2F3F3" stroke="#858585" cx="559.2" cy="539.3" r="2.8"/>
	</g>
	<g id="moyka">
		<path fill="#F2F3F3" stroke="#858585" d="M460.6,544.2c-0.9,0-1.5-0.7-1.5-1.5v-30.9c0-0.9,0.7-1.5,1.5-1.5h46.3
			c0.9,0,1.5,0.7,1.5,1.5v30.9c0,0.9-0.7,1.5-1.5,1.5H460.6z"/>
		<rect x="459.1" y="536.5" fill="#F2F3F3" stroke="#858585" width="49.4" height="3.1"/>
		<ellipse fill="#F2F3F3" stroke="#858585" cx="484.5" cy="523.4" rx="16.2" ry="10"/>
		<rect x="482.2" y="527.2" fill="#F2F3F3" stroke="#858585" width="3.1" height="12.3"/>
		<circle fill="#F2F3F3" stroke="#858585" cx="483" cy="521.8" r="2.3"/>
	</g>
	<g id="stirka">
		<rect x="584.8" y="404.8" fill="#F2F3F3" stroke="#858585" width="42.4" height="42.4"/>
		<path fill="#F2F3F3" stroke="#858585" d="M623,444.4c-1.6,0-2.8-1.3-2.8-2.8v-9.9c0-1.6,1.3-2.8,2.8-2.8h4.2v15.6H623z"/>
		<circle fill="#F2F3F3" stroke="#858585" cx="604.6" cy="426" r="11.3"/>
		<circle fill="#F2F3F3" stroke="#858585" cx="604.6" cy="426" r="8.5"/>
		<circle fill="#F2F3F3" stroke="#858585" cx="620.2" cy="411.9" r="2.8"/>
	</g>
	<g id="moyka_2">
		<path fill="#F2F3F3" stroke="#858585" d="M728.1,210.2c-1.6,0-2.8-1.3-2.8-2.8v-41c0-1.6,1.3-2.8,2.8-2.8h34
			c1.6,0,2.8,1.3,2.8,2.8v41c0,1.6-1.3,2.8-2.8,2.8H728.1z"/>
		<path fill="#F2F3F3" stroke="#858585" d="M730.9,207.4c-1.6,0-2.8-1.3-2.8-2.8v-35.4c0-1.6,1.3-2.8,2.8-2.8H755
			c1.6,0,2.8,1.3,2.8,2.8v35.4c0,1.6-1.3,2.8-2.8,2.8H730.9z"/>
		<rect x="749.3" y="186.1" fill="#F2F3F3" stroke="#858585" width="11.3" height="2.8"/>
		<circle fill="#F2F3F3" stroke="#858585" cx="741.5" cy="186.9" r="2.1"/>
	</g>
	<g id="plita">
		<rect x="719" y="98.5" fill="#F2F3F3" stroke="#858585" width="50.9" height="49.5"/>
		<circle fill="#F2F3F3" stroke="#858585" cx="731.7" cy="112.7" r="8.5"/>
		<circle fill="#F2F3F3" stroke="#858585" cx="752.9" cy="133.9" r="8.5"/>
		<circle fill="#F2F3F3" stroke="#858585" cx="731.7" cy="133.9" r="7.1"/>
		<circle fill="#F2F3F3" stroke="#858585" cx="752.9" cy="112.7" r="7.1"/>
	</g>
	<g id="vanna">
		<rect x="385.9" y="407" fill="#F2F3F3" stroke="#858585" width="53.8" height="137.2"/>
		<path fill="#F2F3F3" stroke="#858585" d="M421.3,415.5c7.8,0,14.1,6.3,14.1,14.1v94.8h-45.3v-94.8c0-7.8,6.3-14.1,14.1-14.1H421.3
			z"/>
		<path fill="#F2F3F3" stroke="#858585" d="M411.4,526.5h-11.3v5h19.1"/>
		<path id="Union" fill="#F2F3F3" stroke="#858585" d="M421.5,532.9c0.6,1.6,2.2,2.8,4,2.8c2.3,0,4.2-1.9,4.2-4.2
			c0-2.3-1.9-4.2-4.2-4.2c-1.8,0-3.4,1.2-4,2.8h-1.7c-0.8,0-1.4,0.6-1.4,1.4s0.6,1.4,1.4,1.4H421.5z"/>
		<rect x="411.4" y="517.3" fill="#F2F3F3" stroke="#858585" width="2.8" height="11.3"/>
	</g>
	<rect x="15.9" y="362.3" fill="#FFFFFF" stroke="#000105" stroke-miterlimit="10" width="6.6" height="123.3"/>
	<rect x="22.5" y="362.3" fill="#FFFFFF" stroke="#000105" stroke-miterlimit="10" width="11.5" height="123.3"/>
	<rect x="5" y="366.4" fill="#FFFFFF" stroke="#000105" stroke-miterlimit="10" width="10.9" height="116.1"/>
	<rect x="15.9" y="362.3" fill="#FFFFFF" stroke="#000105" stroke-miterlimit="10" width="6.6" height="6.8"/>
	<rect x="15.9" y="419.4" fill="#FFFFFF" stroke="#000105" stroke-miterlimit="10" width="6.6" height="6.6"/>
	<rect x="15.9" y="476.8" fill="#FFFFFF" stroke="#000105" stroke-miterlimit="10" width="6.6" height="8.8"/>
	<rect x="136.2" y="144" fill="#FFFFFF" stroke="#000105" stroke-miterlimit="10" width="5.7" height="121"/>
	<rect x="141.9" y="144" fill="#FFFFFF" stroke="#000105" stroke-miterlimit="10" width="12.1" height="45.3"/>
	<rect x="124.2" y="150" fill="#FFFFFF" stroke="#000105" stroke-miterlimit="10" width="12.1" height="39.2"/>
	<rect x="136.2" y="186.9" fill="#FFFFFF" stroke="#000105" stroke-miterlimit="10" width="5.7" height="5.9"/>
	<rect x="136.2" y="144" fill="#FFFFFF" stroke="#000105" stroke-miterlimit="10" width="5.7" height="9.4"/>
	<rect x="136.2" y="257.8" fill="#FFFFFF" stroke="#000105" stroke-miterlimit="10" width="5.7" height="7.2"/>
	<g>
		<rect x="5" y="48.9" fill="#FFFFFF" stroke="#000105" stroke-miterlimit="10" width="26" height="221.4"/>
		<rect x="15.9" y="48.9" fill="#FFFFFF" stroke="#000105" stroke-miterlimit="10" width="9.1" height="221.4"/>
		<rect x="19" y="48.9" fill="#FFFFFF" stroke="#000105" stroke-miterlimit="10" width="3.2" height="217.5"/>
	</g>
	<rect x="15.9" y="264.5" fill="#FFFFFF" stroke="#000105" stroke-miterlimit="10" width="9.1" height="3.9"/>
	<line fill="#FFFFFF" stroke="#000105" stroke-miterlimit="10" x1="141.9" y1="257.8" x2="175.4" y2="201.3"/>
	<line fill="#FFFFFF" stroke="#000105" stroke-miterlimit="10" x1="372.7" y1="381" x2="409.6" y2="318.2"/>
	<line fill="#FFFFFF" stroke="#000105" stroke-miterlimit="10" x1="525.9" y1="392.5" x2="471.1" y2="361.9"/>
	<line fill="#FFFFFF" stroke="#000105" stroke-miterlimit="10" x1="753.9" y1="476.6" x2="684.1" y2="515.4"/>
	<rect x="5" y="7.5" fill="#828281" stroke="#000105" stroke-miterlimit="10" width="790" height="29.6"/>
	<rect x="136.2" y="37.1" fill="#828281" stroke="#000105" stroke-miterlimit="10" width="17.7" height="106.9"/>
	<rect x="124.2" y="37.1" fill="#828281" stroke="#000105" stroke-miterlimit="10" width="12.1" height="112.9"/>
	<rect x="5" y="37.1" fill="#828281" stroke="#000105" stroke-miterlimit="10" width="119.2" height="11.9"/>
	<rect x="136.2" y="265" fill="#828281" stroke="#000105" stroke-miterlimit="10" width="17.7" height="17.7"/>
	<rect x="124.2" y="261.2" fill="#828281" stroke="#000105" stroke-miterlimit="10" width="12.1" height="21.5"/>
	<rect x="5" y="270.3" fill="#828281" stroke="#000105" stroke-miterlimit="10" width="119.2" height="12.4"/>
	<rect x="15.9" y="282.7" fill="#828281" stroke="#000105" stroke-miterlimit="10" width="138" height="16.2"/>
	<rect x="5" y="282.7" fill="#828281" stroke="#000105" stroke-miterlimit="10" width="10.9" height="83.7"/>
	<rect x="15.9" y="298.9" fill="#828281" stroke="#000105" stroke-miterlimit="10" width="18.1" height="63.4"/>
	<rect x="5" y="482.6" fill="#828281" stroke="#000105" stroke-miterlimit="10" width="10.9" height="80.7"/>
	<rect x="15.9" y="546.3" fill="#828281" stroke="#000105" stroke-miterlimit="10" width="635" height="17"/>
	<rect x="15.9" y="485.6" fill="#828281" stroke="#000105" stroke-miterlimit="10" width="18.1" height="60.7"/>
	<rect x="772.4" y="37.1" fill="#828281" stroke="#000105" stroke-miterlimit="10" width="22.6" height="263"/>
	<rect x="772.4" y="300.1" fill="#828281" stroke="#000105" stroke-miterlimit="10" width="17" height="176.5"/>
	<rect x="753.9" y="452.8" fill="#828281" stroke="#000105" stroke-miterlimit="10" width="18.5" height="23.8"/>
	<rect x="636.6" y="392.5" fill="#828281" stroke="#000105" stroke-miterlimit="10" width="14.3" height="153.9"/>
	<rect x="456.4" y="267.3" fill="#828281" stroke="#000105" stroke-miterlimit="10" width="39" height="39"/>
	<rect x="651" y="452.8" fill="#828281" stroke="#000105" stroke-miterlimit="10" width="21.2" height="23.8"/>
	<rect x="153.9" y="289.3" fill="#C5C5C5" stroke="#000105" stroke-miterlimit="10" width="219" height="9.6"/>
	<rect x="363.3" y="298.9" fill="#C5C5C5" stroke="#000105" stroke-miterlimit="10" width="9.6" height="10.2"/>
	<rect x="363.3" y="381" fill="#C5C5C5" stroke="#000105" stroke-miterlimit="10" width="9.6" height="165.4"/>
	<rect x="525.9" y="392.5" fill="#C5C5C5" stroke="#000105" stroke-miterlimit="10" width="110.7" height="9.6"/>
	<rect x="372.9" y="392.5" fill="#C5C5C5" stroke="#000105" stroke-miterlimit="10" width="90.2" height="9.6"/>
	<rect x="374.6" y="402.1" fill="#C5C5C5" stroke="#000105" stroke-miterlimit="10" width="7.4" height="144.2"/>
	<rect x="629.3" y="401.9" fill="#C5C5C5" stroke="#000105" stroke-miterlimit="10" width="7.4" height="144.4"/>
	<rect x="588.2" y="458" fill="#C5C5C5" stroke="#000105" stroke-miterlimit="10" width="41.1" height="7.4"/>
	<rect x="588.2" y="465.4" fill="#C5C5C5" stroke="#000105" stroke-miterlimit="10" width="7.4" height="57"/>
	<rect x="588.2" y="522.4" fill="#C5C5C5" stroke="#000105" stroke-miterlimit="10" width="3" height="23.9"/>
	<rect x="651.8" y="216.9" fill="#C5C5C5" stroke="#000105" stroke-miterlimit="10" width="120.6" height="7.4"/>
	<rect x="651.8" y="256.8" fill="#C5C5C5" stroke="#000105" stroke-miterlimit="10" width="95.6" height="7.4"/>
	<rect x="651.8" y="224.3" fill="#C5C5C5" stroke="#000105" stroke-miterlimit="10" width="7.4" height="32.5"/>
	<rect x="747.4" y="261.2" fill="#C5C5C5" stroke="#000105" stroke-miterlimit="10" width="25" height="3"/>
	<g>
		<path fill="#000105" d="M293.7,146.9h-3.2v6.5H289v-14.1h1.5v6.3h3.2l4.8-6.3h1.6l-5.2,6.8l5.5,7.3h-1.7L293.7,146.9z"/>
		<path fill="#000105" d="M311.3,142.8l-5.3,11.9c-0.4,1-0.9,1.7-1.5,2.1c-0.6,0.4-1.2,0.6-2,0.6c-0.5,0-1-0.1-1.4-0.2
			s-0.8-0.4-1.1-0.7l0.7-1.1c0.5,0.5,1.2,0.8,1.9,0.8c0.5,0,0.9-0.1,1.2-0.4c0.3-0.3,0.7-0.7,1-1.4l0.5-1l-4.7-10.6h1.5l4,9l4-9
			H311.3z"/>
		<path fill="#000105" d="M319.6,153.4l-3.4-4.4l-3.4,4.4h-1.6l4.2-5.4l-4-5.2h1.6l3.2,4.2l3.2-4.2h1.6l-4,5.2l4.2,5.4H319.6z"/>
		<path fill="#000105" d="M323.6,142.8h1.4v4.7h6.7v-4.7h1.4v10.6h-1.4v-4.7H325v4.7h-1.4V142.8z"/>
		<path fill="#000105" d="M345.3,142.8v10.6H344v-3.5h-3.3h-0.4l-2.5,3.5h-1.6l2.6-3.7c-0.8-0.2-1.5-0.6-1.9-1.2s-0.7-1.2-0.7-2.1
			c0-1.2,0.4-2.1,1.2-2.7c0.8-0.6,1.9-0.9,3.3-0.9H345.3z M340.8,148.8h3.2v-4.8h-3.1c-2.1,0-3.1,0.8-3.1,2.4
			C337.8,148,338.8,148.8,340.8,148.8z"/>
		<path fill="#000105" d="M348.6,147.3h5.3v1.2h-5.3V147.3z"/>
		<path fill="#000105" d="M296.2,168.2h-6.1v9.3h-1.4V167h7.5V168.2z"/>
		<path fill="#000105" d="M299.4,177c-0.8-0.5-1.5-1.1-1.9-1.9c-0.5-0.8-0.7-1.7-0.7-2.8s0.2-2,0.7-2.8s1.1-1.5,1.9-1.9
			s1.7-0.7,2.8-0.7c1,0,1.9,0.2,2.8,0.7s1.5,1.1,1.9,1.9s0.7,1.7,0.7,2.8s-0.2,2-0.7,2.8c-0.5,0.8-1.1,1.5-1.9,1.9s-1.7,0.7-2.8,0.7
			C301.1,177.7,300.2,177.4,299.4,177z M304.2,175.9c0.6-0.3,1.1-0.8,1.4-1.5c0.3-0.6,0.5-1.3,0.5-2.2c0-0.8-0.2-1.5-0.5-2.2
			c-0.3-0.6-0.8-1.1-1.4-1.5c-0.6-0.3-1.3-0.5-2-0.5c-0.8,0-1.4,0.2-2,0.5c-0.6,0.3-1.1,0.8-1.4,1.5c-0.3,0.6-0.5,1.3-0.5,2.2
			c0,0.8,0.2,1.5,0.5,2.2c0.3,0.6,0.8,1.1,1.4,1.5c0.6,0.3,1.3,0.5,2,0.5C302.9,176.4,303.6,176.2,304.2,175.9z"/>
		<path fill="#000105" d="M312.2,177c-0.8-0.5-1.5-1.1-1.9-1.9s-0.7-1.8-0.7-2.8s0.2-2,0.7-2.8s1.1-1.5,1.9-1.9
			c0.8-0.5,1.8-0.7,2.8-0.7c0.9,0,1.7,0.2,2.4,0.5c0.7,0.4,1.3,0.9,1.7,1.6l-1.1,0.7c-0.3-0.5-0.8-0.9-1.3-1.2
			c-0.5-0.3-1.1-0.4-1.8-0.4c-0.8,0-1.5,0.2-2.1,0.5c-0.6,0.3-1.1,0.8-1.4,1.5c-0.3,0.6-0.5,1.3-0.5,2.2c0,0.8,0.2,1.5,0.5,2.2
			c0.3,0.6,0.8,1.1,1.4,1.5c0.6,0.3,1.3,0.5,2.1,0.5c0.6,0,1.2-0.1,1.8-0.4c0.5-0.3,1-0.6,1.3-1.2l1.1,0.7c-0.4,0.7-1,1.2-1.7,1.6
			s-1.5,0.5-2.4,0.5C314,177.7,313,177.4,312.2,177z"/>
		<path fill="#000105" d="M329.2,168.2h-4v9.3h-1.4v-9.3h-4V167h9.4V168.2z"/>
		<path fill="#000105" d="M331.3,167h1.4v8.4l7.1-8.4h1.3v10.6h-1.4v-8.4l-7.1,8.4h-1.3V167z"/>
		<path fill="#000105" d="M345.1,167h1.4v4.7h6.7V167h1.4v10.6h-1.4v-4.7h-6.7v4.7h-1.4V167z"/>
		<path fill="#000105" d="M365.6,167.9c0.7,0.7,1.1,1.7,1.1,3.1v6.6h-1.4v-1.7c-0.3,0.6-0.8,1-1.4,1.3c-0.6,0.3-1.4,0.5-2.2,0.5
			c-1.2,0-2.1-0.3-2.8-0.8c-0.7-0.6-1-1.3-1-2.2c0-0.9,0.3-1.6,1-2.2c0.7-0.6,1.7-0.8,3.1-0.8h3.4v-0.6c0-0.9-0.3-1.6-0.8-2.1
			c-0.5-0.5-1.3-0.7-2.2-0.7c-0.7,0-1.3,0.1-1.9,0.3c-0.6,0.2-1.1,0.5-1.6,0.9l-0.6-1.1c0.5-0.5,1.2-0.8,1.9-1.1
			c0.8-0.2,1.5-0.4,2.4-0.4C363.8,166.9,364.8,167.2,365.6,167.9z M363.9,176c0.6-0.4,1-0.9,1.3-1.6v-1.7h-3.3
			c-1.8,0-2.7,0.6-2.7,1.9c0,0.6,0.2,1.1,0.7,1.5c0.5,0.4,1.1,0.5,2,0.5C362.7,176.5,363.4,176.4,363.9,176z"/>
		<path fill="#000105" d="M378.6,167v10.6h-1.3v-3.5H374h-0.4l-2.5,3.5h-1.6l2.6-3.7c-0.8-0.2-1.5-0.6-1.9-1.2s-0.7-1.2-0.7-2.1
			c0-1.2,0.4-2.1,1.2-2.7c0.8-0.6,1.9-0.9,3.3-0.9H378.6z M374.1,173h3.2v-4.8h-3.1c-2.1,0-3.1,0.8-3.1,2.4
			C371.1,172.2,372.1,173,374.1,173z"/>
		<path fill="#000105" d="M300.3,205.6v2.2h-12.7v-1.7l7.2-6.9c0.9-0.8,1.5-1.6,1.8-2.2c0.3-0.6,0.5-1.2,0.5-1.9
			c0-0.9-0.3-1.6-1-2.2c-0.6-0.5-1.6-0.8-2.8-0.8c-1.9,0-3.5,0.6-4.5,1.9l-1.7-1.5c0.7-0.8,1.6-1.5,2.7-2c1.1-0.5,2.4-0.7,3.7-0.7
			c1.8,0,3.3,0.4,4.4,1.3c1.1,0.9,1.6,2.1,1.6,3.6c0,0.9-0.2,1.8-0.6,2.7c-0.4,0.8-1.2,1.8-2.3,2.9l-5.4,5.2H300.3z"/>
		<path fill="#000105" d="M313,199.2c0.9,0.9,1.4,2,1.4,3.4c0,1-0.3,1.9-0.8,2.7c-0.5,0.8-1.3,1.5-2.3,1.9c-1,0.5-2.2,0.7-3.7,0.7
			c-1.3,0-2.5-0.2-3.6-0.6c-1.2-0.4-2.1-0.9-2.8-1.6l1.2-2c0.6,0.6,1.4,1,2.3,1.4c0.9,0.3,1.9,0.5,3,0.5c1.3,0,2.3-0.3,3.1-0.8
			c0.7-0.6,1.1-1.3,1.1-2.3c0-1-0.4-1.7-1.1-2.3c-0.7-0.5-1.8-0.8-3.3-0.8h-1.4v-1.8l4.4-5.4H302v-2.2h11.6v1.7l-4.6,5.7
			C310.8,197.7,312.1,198.3,313,199.2z"/>
		<path fill="#000105" d="M319.6,205c0.3,0.3,0.5,0.7,0.5,1.2c0,0.3,0,0.5-0.1,0.7c-0.1,0.2-0.2,0.6-0.3,1.1l-1.2,3.5h-1.6l0.9-3.8
			c-0.3-0.1-0.6-0.3-0.8-0.6c-0.2-0.3-0.3-0.6-0.3-1c0-0.5,0.2-0.9,0.5-1.2c0.3-0.3,0.7-0.5,1.2-0.5
			C318.9,204.5,319.3,204.7,319.6,205z"/>
		<path fill="#000105" d="M333.6,192.2c1.3,1.5,1.9,3.7,1.9,6.5c0,2-0.3,3.6-1,5c-0.7,1.4-1.7,2.4-2.9,3.1c-1.3,0.7-2.7,1.1-4.4,1.1
			c-0.9,0-1.7-0.1-2.4-0.3c-0.8-0.2-1.4-0.4-2-0.8l1-2c0.9,0.6,2,0.8,3.4,0.8c1.8,0,3.3-0.6,4.3-1.7c1-1.1,1.5-2.8,1.5-4.9v-0.6
			c-0.5,0.8-1.2,1.3-2.1,1.7c-0.9,0.4-1.9,0.6-3,0.6c-1.2,0-2.2-0.2-3.1-0.7s-1.6-1.1-2.1-1.9s-0.8-1.8-0.8-2.8
			c0-1.1,0.3-2.1,0.8-2.9c0.5-0.8,1.3-1.5,2.2-2c0.9-0.5,2-0.7,3.2-0.7C330.5,190,332.4,190.7,333.6,192.2z M330.5,198.4
			c0.6-0.3,1.1-0.7,1.4-1.2s0.5-1.1,0.5-1.7c0-0.6-0.2-1.2-0.5-1.7c-0.3-0.5-0.8-0.9-1.4-1.2s-1.4-0.5-2.3-0.5
			c-1.2,0-2.1,0.3-2.8,0.9c-0.7,0.6-1.1,1.5-1.1,2.5s0.4,1.9,1.1,2.5c0.7,0.6,1.7,0.9,2.9,0.9C329.2,198.8,329.9,198.7,330.5,198.4z
			"/>
	</g>
	<g>
		<path fill="#000105" d="M58,349.7c-1.1-0.6-2-1.5-2.6-2.6c-0.6-1.1-1-2.3-1-3.7c0-1.4,0.3-2.6,1-3.7c0.6-1.1,1.5-2,2.6-2.6
			c1.1-0.6,2.4-0.9,3.8-0.9c1,0,2,0.2,2.9,0.5c0.9,0.3,1.6,0.9,2.3,1.5l-0.9,0.9c-1.1-1.1-2.5-1.7-4.2-1.7c-1.1,0-2.1,0.3-3,0.8
			c-0.9,0.5-1.6,1.2-2.1,2.1c-0.5,0.9-0.8,1.9-0.8,3c0,1.1,0.3,2.1,0.8,3c0.5,0.9,1.2,1.6,2.1,2.1c0.9,0.5,1.9,0.8,3,0.8
			c1.7,0,3.1-0.6,4.2-1.7l0.9,0.9c-0.6,0.7-1.4,1.2-2.3,1.5c-0.9,0.4-1.9,0.5-2.9,0.5C60.4,350.6,59.2,350.3,58,349.7z"/>
		<path fill="#000105" d="M79.2,339.9v10.6h-1.4v-9.3h-6.6v9.3h-1.4v-10.6H79.2z"/>
		<path fill="#000105" d="M90.1,340.8c0.7,0.7,1.1,1.7,1.1,3.1v6.6h-1.4v-1.7c-0.3,0.6-0.8,1-1.4,1.3c-0.6,0.3-1.4,0.5-2.2,0.5
			c-1.2,0-2.1-0.3-2.8-0.8c-0.7-0.6-1-1.3-1-2.2c0-0.9,0.3-1.6,1-2.2c0.7-0.6,1.7-0.8,3.1-0.8h3.4v-0.6c0-0.9-0.3-1.6-0.8-2.1
			c-0.5-0.5-1.3-0.7-2.2-0.7c-0.7,0-1.3,0.1-1.9,0.3c-0.6,0.2-1.1,0.5-1.6,0.9l-0.6-1.1c0.5-0.5,1.2-0.8,1.9-1.1
			c0.8-0.2,1.5-0.4,2.4-0.4C88.3,339.8,89.4,340.1,90.1,340.8z M88.5,348.9c0.6-0.4,1-0.9,1.3-1.6v-1.7h-3.3c-1.8,0-2.7,0.6-2.7,1.9
			c0,0.6,0.2,1.1,0.7,1.5c0.5,0.4,1.1,0.5,2,0.5C87.3,349.4,87.9,349.3,88.5,348.9z"/>
		<path fill="#000105" d="M103.7,339.9v10.6h-1.4v-9.3h-5.1l-0.1,2.6c-0.1,2.2-0.4,3.9-0.8,5.1c-0.4,1.2-1.1,1.8-2.2,1.8
			c-0.3,0-0.6-0.1-1-0.2l0.1-1.2c0.2,0.1,0.4,0.1,0.5,0.1c0.6,0,1-0.3,1.2-0.8c0.3-0.5,0.5-1.1,0.6-1.9c0.1-0.8,0.2-1.7,0.2-3
			l0.2-3.8H103.7z"/>
		<path fill="#000105" d="M115.4,344.5c0.7,0.6,1,1.4,1,2.5c0,1.1-0.4,2-1.1,2.6c-0.7,0.6-1.8,0.9-3.2,0.9l-4.3,0v-10.6h1.4v3.7
			l3.1,0C113.7,343.6,114.7,343.9,115.4,344.5z M114.2,348.8c0.5-0.4,0.8-1,0.8-1.8c0-0.8-0.2-1.4-0.7-1.7s-1.2-0.6-2.2-0.6l-2.8,0
			v4.7l2.8,0C113,349.4,113.7,349.2,114.2,348.8z"/>
		<path fill="#000105" d="M119.1,339.9h1.4v4.7h6.7v-4.7h1.4v10.6h-1.4v-4.7h-6.7v4.7h-1.4V339.9z"/>
		<path fill="#000105" d="M140.9,339.9v10.6h-1.3V347h-3.3h-0.4l-2.5,3.5h-1.6l2.6-3.7c-0.8-0.2-1.5-0.6-1.9-1.2s-0.7-1.2-0.7-2.1
			c0-1.2,0.4-2.1,1.2-2.7c0.8-0.6,1.9-0.9,3.3-0.9H140.9z M136.3,345.9h3.2v-4.8h-3.1c-2.1,0-3.1,0.8-3.1,2.4
			C133.3,345.1,134.3,345.9,136.3,345.9z"/>
		<path fill="#000105" d="M59.9,363.1v17.6h-2.5v-15.4h-4v-2.2H59.9z"/>
		<path fill="#000105" d="M76.2,378.5v2.2H63.5V379l7.2-6.9c0.9-0.8,1.5-1.6,1.8-2.2c0.3-0.6,0.5-1.2,0.5-1.9c0-0.9-0.3-1.6-1-2.2
			c-0.6-0.5-1.6-0.8-2.8-0.8c-1.9,0-3.5,0.6-4.5,1.9l-1.7-1.5c0.7-0.8,1.6-1.5,2.7-2c1.1-0.5,2.4-0.7,3.7-0.7c1.8,0,3.3,0.4,4.4,1.3
			c1.1,0.9,1.6,2.1,1.6,3.6c0,0.9-0.2,1.8-0.6,2.7c-0.4,0.8-1.2,1.8-2.3,2.9l-5.4,5.2H76.2z"/>
		<path fill="#000105" d="M81.4,377.9c0.3,0.3,0.5,0.7,0.5,1.2c0,0.3,0,0.5-0.1,0.7c-0.1,0.2-0.2,0.6-0.3,1.1l-1.2,3.5h-1.6l0.9-3.8
			c-0.3-0.1-0.6-0.3-0.8-0.6c-0.2-0.3-0.3-0.6-0.3-1c0-0.5,0.2-0.9,0.5-1.2c0.3-0.3,0.7-0.5,1.2-0.5C80.7,377.4,81,377.6,81.4,377.9
			z"/>
		<path fill="#000105" d="M96.9,378.5v2.2H84.2V379l7.2-6.9c0.9-0.8,1.5-1.6,1.8-2.2c0.3-0.6,0.5-1.2,0.5-1.9c0-0.9-0.3-1.6-1-2.2
			c-0.6-0.5-1.6-0.8-2.8-0.8c-1.9,0-3.5,0.6-4.5,1.9l-1.7-1.5c0.7-0.8,1.6-1.5,2.7-2c1.1-0.5,2.4-0.7,3.7-0.7c1.8,0,3.3,0.4,4.4,1.3
			c1.1,0.9,1.6,2.1,1.6,3.6c0,0.9-0.2,1.8-0.6,2.7c-0.4,0.8-1.2,1.8-2.3,2.9l-5.4,5.2H96.9z"/>
	</g>
	<g>
		<path fill="#000105" d="M65.2,154.9c0.9,0.9,1.4,2,1.4,3.4c0,1-0.3,1.9-0.8,2.7c-0.5,0.8-1.3,1.5-2.3,1.9c-1,0.5-2.2,0.7-3.7,0.7
			c-1.3,0-2.5-0.2-3.6-0.6c-1.2-0.4-2.1-0.9-2.8-1.6l1.2-2c0.6,0.6,1.4,1,2.3,1.4c0.9,0.3,1.9,0.5,3,0.5c1.3,0,2.3-0.3,3.1-0.8
			c0.7-0.6,1.1-1.3,1.1-2.3c0-1-0.4-1.7-1.1-2.3c-0.7-0.5-1.8-0.8-3.3-0.8h-1.4v-1.8l4.4-5.4h-8.5v-2.2h11.6v1.7l-4.6,5.7
			C63,153.5,64.3,154,65.2,154.9z"/>
		<path fill="#000105" d="M71.7,160.7c0.3,0.3,0.5,0.7,0.5,1.2c0,0.3,0,0.5-0.1,0.7c-0.1,0.2-0.2,0.6-0.3,1.1l-1.2,3.5H69l0.9-3.8
			c-0.3-0.1-0.6-0.3-0.8-0.6c-0.2-0.3-0.3-0.6-0.3-1c0-0.5,0.2-0.9,0.5-1.2c0.3-0.3,0.7-0.5,1.2-0.5C71,160.2,71.4,160.4,71.7,160.7
			z"/>
		<path fill="#000105" d="M77.8,162.7c-1.1-0.7-1.9-1.8-2.6-3.1c-0.6-1.4-0.9-3-0.9-4.8c0-1.9,0.3-3.5,0.9-4.8
			c0.6-1.4,1.5-2.4,2.6-3.1c1.1-0.7,2.3-1.1,3.7-1.1c1.4,0,2.6,0.4,3.7,1.1c1.1,0.7,1.9,1.8,2.6,3.1c0.6,1.4,0.9,3,0.9,4.8
			c0,1.9-0.3,3.5-0.9,4.8c-0.6,1.4-1.5,2.4-2.6,3.1s-2.3,1.1-3.7,1.1C80.1,163.7,78.9,163.4,77.8,162.7z M84.9,159.8
			c0.8-1.2,1.3-2.8,1.3-5s-0.4-3.9-1.3-5c-0.8-1.2-2-1.7-3.4-1.7c-1.4,0-2.6,0.6-3.4,1.7c-0.8,1.2-1.3,2.8-1.3,5s0.4,3.9,1.3,5
			c0.8,1.2,2,1.7,3.4,1.7C82.9,161.5,84,160.9,84.9,159.8z"/>
	</g>
	<g>
		<path fill="#000105" d="M697.6,383.5c0.9,0.4,1.6,1.1,2.2,1.9s0.8,1.8,0.8,2.8c0,1.1-0.3,2.1-0.8,2.9c-0.5,0.8-1.3,1.5-2.2,2
			c-0.9,0.5-2,0.7-3.2,0.7c-2.4,0-4.2-0.8-5.5-2.3c-1.3-1.5-1.9-3.7-1.9-6.5c0-2,0.3-3.6,1-5c0.7-1.4,1.7-2.4,2.9-3.1
			c1.3-0.7,2.7-1.1,4.4-1.1c0.9,0,1.7,0.1,2.4,0.3c0.8,0.2,1.4,0.4,2,0.8l-1,2c-0.8-0.6-2-0.8-3.4-0.8c-1.8,0-3.3,0.6-4.3,1.7
			c-1,1.1-1.6,2.8-1.6,4.9c0,0.3,0,0.5,0,0.6c0.5-0.8,1.2-1.3,2.1-1.7c0.9-0.4,1.9-0.6,3-0.6C695.7,382.9,696.7,383.1,697.6,383.5z
			 M697,390.8c0.7-0.6,1.1-1.5,1.1-2.5c0-1-0.4-1.9-1.1-2.5c-0.7-0.6-1.7-0.9-2.9-0.9c-0.8,0-1.5,0.2-2.1,0.5
			c-0.6,0.3-1.1,0.7-1.4,1.2s-0.5,1.1-0.5,1.7c0,0.6,0.2,1.2,0.5,1.7c0.3,0.5,0.8,0.9,1.4,1.2c0.6,0.3,1.4,0.5,2.3,0.5
			C695.4,391.7,696.3,391.4,697,390.8z"/>
		<path fill="#000105" d="M705.6,390.8c0.3,0.3,0.5,0.7,0.5,1.2c0,0.3,0,0.5-0.1,0.7c-0.1,0.2-0.2,0.6-0.3,1.1l-1.2,3.5h-1.6
			l0.9-3.8c-0.3-0.1-0.6-0.3-0.8-0.6c-0.2-0.3-0.3-0.6-0.3-1c0-0.5,0.2-0.9,0.5-1.2c0.3-0.3,0.7-0.5,1.2-0.5
			C704.9,390.3,705.2,390.4,705.6,390.8z"/>
		<path fill="#000105" d="M719,384.4c1.2,0.9,1.8,2.2,1.8,3.9c0,1-0.2,2-0.7,2.8c-0.5,0.8-1.2,1.5-2.2,2c-1,0.5-2.2,0.7-3.7,0.7
			c-1.2,0-2.4-0.2-3.6-0.6s-2.1-0.9-2.9-1.6l1.2-2c0.6,0.6,1.4,1,2.3,1.4c0.9,0.3,1.9,0.5,3,0.5c1.3,0,2.4-0.3,3.1-0.8
			c0.7-0.6,1.1-1.3,1.1-2.3c0-1.1-0.4-1.9-1.2-2.4c-0.8-0.5-2.2-0.8-4.1-0.8h-4l0.9-9.2h9.9v2.2H712l-0.5,4.8h2
			C716,383,717.8,383.4,719,384.4z"/>
	</g>
	<g>
		<path fill="#000105" d="M506.4,458.9c1.2,0.9,1.8,2.2,1.8,3.9c0,1-0.2,2-0.7,2.8c-0.5,0.8-1.2,1.5-2.2,2c-1,0.5-2.2,0.7-3.7,0.7
			c-1.2,0-2.4-0.2-3.6-0.6s-2.1-0.9-2.9-1.6l1.2-2c0.6,0.6,1.4,1,2.3,1.4c0.9,0.3,1.9,0.5,3,0.5c1.3,0,2.4-0.3,3.1-0.8
			c0.7-0.6,1.1-1.3,1.1-2.3c0-1.1-0.4-1.9-1.2-2.4c-0.8-0.5-2.2-0.8-4.1-0.8h-4l0.9-9.2h9.9v2.2h-7.8l-0.5,4.8h2
			C503.4,457.5,505.2,457.9,506.4,458.9z"/>
		<path fill="#000105" d="M513.2,465.3c0.3,0.3,0.5,0.7,0.5,1.2c0,0.3,0,0.5-0.1,0.7c-0.1,0.2-0.2,0.6-0.3,1.1l-1.2,3.5h-1.6
			l0.9-3.8c-0.3-0.1-0.6-0.3-0.8-0.6c-0.2-0.3-0.3-0.6-0.3-1c0-0.5,0.2-0.9,0.5-1.2c0.3-0.3,0.7-0.5,1.2-0.5
			C512.5,464.8,512.8,464.9,513.2,465.3z"/>
		<path fill="#000105" d="M519.2,467.2c-1.1-0.7-1.9-1.8-2.6-3.1c-0.6-1.4-0.9-3-0.9-4.8c0-1.9,0.3-3.5,0.9-4.8
			c0.6-1.4,1.5-2.4,2.6-3.1c1.1-0.7,2.3-1.1,3.7-1.1c1.4,0,2.6,0.4,3.7,1.1c1.1,0.7,1.9,1.8,2.6,3.1c0.6,1.4,0.9,3,0.9,4.8
			c0,1.9-0.3,3.5-0.9,4.8c-0.6,1.4-1.5,2.4-2.6,3.1c-1.1,0.7-2.3,1.1-3.7,1.1C521.5,468.3,520.3,467.9,519.2,467.2z M526.3,464.3
			c0.8-1.2,1.3-2.8,1.3-5c0-2.2-0.4-3.9-1.3-5s-2-1.7-3.4-1.7c-1.4,0-2.6,0.6-3.4,1.7s-1.3,2.8-1.3,5c0,2.2,0.4,3.9,1.3,5
			s2,1.7,3.4,1.7C524.3,466,525.5,465.4,526.3,464.3z"/>
	</g>
	<g>
		
			<rect x="266.6" y="449.7" transform="matrix(-4.488872e-11 1 -1 -4.488872e-11 811.9583 136.5111)" fill-rule="evenodd" clip-rule="evenodd" fill="#F1F2F2" stroke="#848484" stroke-miterlimit="10" width="142.3" height="49.1"/>
		<line fill="#F1F2F2" stroke="#848484" stroke-miterlimit="10" x1="313.2" y1="408.2" x2="362.4" y2="408.2"/>
		<line fill="#F1F2F2" stroke="#848484" stroke-miterlimit="10" x1="313.2" y1="540.1" x2="362.3" y2="540.1"/>
		<line fill="#F1F2F2" stroke="#848484" stroke-miterlimit="10" x1="360" y1="408.2" x2="360" y2="540.1"/>
		<line fill="#F1F2F2" stroke="#848484" stroke-miterlimit="10" x1="337.4" y1="535.5" x2="337.4" y2="412.8"/>
		
			<rect x="336.1" y="404.2" transform="matrix(0.162 0.9868 -0.9868 0.162 696.6048 18.1332)" fill="#F1F2F2" stroke="#848484" stroke-miterlimit="10" width="3.1" height="29.9"/>
		
			<rect x="336.1" y="415.2" transform="matrix(8.815246e-02 0.9961 -0.9961 8.815246e-02 736.4098 55.9839)" fill="#F1F2F2" stroke="#848484" stroke-miterlimit="10" width="3.1" height="29.9"/>
		
			<rect x="335.8" y="426.4" transform="matrix(0.229 0.9734 -0.9734 0.229 689.7647 11.8992)" fill="#F1F2F2" stroke="#848484" stroke-miterlimit="10" width="3.1" height="29.9"/>
		
			<rect x="336.2" y="438.9" transform="matrix(0.152 0.9884 -0.9884 0.152 734.9186 51.0549)" fill="#F1F2F2" stroke="#848484" stroke-miterlimit="10" width="3.1" height="29.9"/>
		
			<rect x="336" y="449.7" transform="matrix(4.511170e-02 0.999 -0.999 4.511170e-02 786.5345 106.5395)" fill="#F1F2F2" stroke="#848484" stroke-miterlimit="10" width="3.1" height="29.9"/>
		
			<rect x="336" y="460.7" transform="matrix(0.152 0.9884 -0.9884 0.152 756.38 69.7539)" fill="#F1F2F2" stroke="#848484" stroke-miterlimit="10" width="3.1" height="29.9"/>
		
			<rect x="335.8" y="471.9" transform="matrix(4.511170e-02 0.999 -0.999 4.511170e-02 808.5134 127.8676)" fill="#F1F2F2" stroke="#848484" stroke-miterlimit="10" width="3.1" height="29.9"/>
		
			<rect x="335.8" y="482.8" transform="matrix(0.2052 0.9787 -0.9787 0.2052 755.3695 65.479)" fill="#F1F2F2" stroke="#848484" stroke-miterlimit="10" width="3.1" height="29.9"/>
		
			<rect x="335.9" y="493.8" transform="matrix(0.152 0.9884 -0.9884 0.152 788.9414 97.9223)" fill="#F1F2F2" stroke="#848484" stroke-miterlimit="10" width="3.1" height="29.9"/>
		
			<rect x="335.8" y="504.7" transform="matrix(8.473843e-02 0.9964 -0.9964 8.473843e-02 826.6141 139.5051)" fill="#F1F2F2" stroke="#848484" stroke-miterlimit="10" width="3.1" height="29.9"/>
		
			<rect x="336.2" y="515.7" transform="matrix(0.2379 0.9713 -0.9713 0.2379 772.7923 76.3585)" fill="#F1F2F2" stroke="#848484" stroke-miterlimit="10" width="3.1" height="29.9"/>
	</g>
	<g>
		<g>
			
				<rect x="158.2" y="309.7" fill-rule="evenodd" clip-rule="evenodd" fill="#F1F2F2" stroke="#848484" stroke-miterlimit="10" width="94.1" height="4.7"/>
			<polygon fill-rule="evenodd" clip-rule="evenodd" fill="#F1F2F2" stroke="#848484" stroke-miterlimit="10" points="244.3,309.7 
				229.1,306 181.4,306 166.2,309.7 			"/>
			
				<rect x="203.2" y="295.9" transform="matrix(5.064400e-11 -1 1 5.064400e-11 -98.6694 509.1738)" fill-rule="evenodd" clip-rule="evenodd" fill="#F1F2F2" stroke="#848484" stroke-miterlimit="10" width="4.1" height="16"/>
		</g>
	</g>
	<g>
		
			<rect x="553.7" y="38.6" fill-rule="evenodd" clip-rule="evenodd" fill="#F1F2F2" stroke="#848484" stroke-miterlimit="10" width="44.2" height="3.1"/>
		
			<rect x="553.7" y="38.6" fill-rule="evenodd" clip-rule="evenodd" fill="#F1F2F2" stroke="#848484" stroke-miterlimit="10" width="44.2" height="3.1"/>
		
			<rect x="583.8" y="88.1" fill-rule="evenodd" clip-rule="evenodd" fill="#F1F2F2" stroke="#848484" stroke-miterlimit="10" width="14.5" height="4.3"/>
		
			<rect x="583.8" y="88.1" fill-rule="evenodd" clip-rule="evenodd" fill="#F1F2F2" stroke="#848484" stroke-miterlimit="10" width="14.5" height="4.3"/>
		
			<rect x="551.7" y="41.4" fill-rule="evenodd" clip-rule="evenodd" fill="#F1F2F2" stroke="#848484" stroke-miterlimit="10" width="48.6" height="48.5"/>
		
			<rect x="551.7" y="41.4" fill-rule="evenodd" clip-rule="evenodd" fill="#F1F2F2" stroke="#848484" stroke-miterlimit="10" width="48.6" height="48.5"/>
		<path fill-rule="evenodd" clip-rule="evenodd" fill="#F1F2F2" stroke="#848484" stroke-miterlimit="10" d="M551.7,85.5l48.6,0
			L551.7,85.5z"/>
		<path fill-rule="evenodd" clip-rule="evenodd" fill="#F1F2F2" stroke="#848484" stroke-miterlimit="10" d="M549.3,85.3
			c0-0.9,0.8-1.9,1.9-1.9c1.2,0,1.9,0.9,1.9,1.9c0,1.2-0.8,2.1-1.9,2.1C550.2,87.4,549.3,86.5,549.3,85.3z"/>
		<path fill-rule="evenodd" clip-rule="evenodd" fill="#F1F2F2" stroke="#848484" stroke-miterlimit="10" d="M549.3,85.3
			c0-0.9,0.8-1.9,1.9-1.9c1.2,0,1.9,0.9,1.9,1.9c0,1.2-0.8,2.1-1.9,2.1C550.2,87.4,549.3,86.5,549.3,85.3z"/>
		<path fill-rule="evenodd" clip-rule="evenodd" fill="#F1F2F2" stroke="#848484" stroke-miterlimit="10" d="M576.2,60.5v8.5V60.5z"
			/>
		<path fill-rule="evenodd" clip-rule="evenodd" fill="#F1F2F2" stroke="#848484" stroke-miterlimit="10" d="M572.1,64.7l8.5,0
			L572.1,64.7z"/>
		<path fill-rule="evenodd" clip-rule="evenodd" fill="#F1F2F2" stroke="#848484" stroke-miterlimit="10" d="M573.2,67.9l6.2-6.2
			L573.2,67.9z"/>
		<path fill-rule="evenodd" clip-rule="evenodd" fill="#F1F2F2" stroke="#848484" stroke-miterlimit="10" d="M579.4,67.9l-6.2-6.2
			L579.4,67.9z"/>
		<path fill-rule="evenodd" clip-rule="evenodd" fill="#F1F2F2" stroke="#848484" stroke-miterlimit="10" d="M563.6,60.2v8.5V60.2z"
			/>
		<path fill-rule="evenodd" clip-rule="evenodd" fill="#F1F2F2" stroke="#848484" stroke-miterlimit="10" d="M559.4,64.4l8.5,0
			L559.4,64.4z"/>
		<path fill-rule="evenodd" clip-rule="evenodd" fill="#F1F2F2" stroke="#848484" stroke-miterlimit="10" d="M560.7,67.6l6.2-6.2
			L560.7,67.6z"/>
		<path fill-rule="evenodd" clip-rule="evenodd" fill="#F1F2F2" stroke="#848484" stroke-miterlimit="10" d="M566.8,67.6l-6.2-6.2
			L566.8,67.6z"/>
		<path fill-rule="evenodd" clip-rule="evenodd" fill="#F1F2F2" stroke="#848484" stroke-miterlimit="10" d="M588.5,60.5l0,8.5
			L588.5,60.5z"/>
		<path fill-rule="evenodd" clip-rule="evenodd" fill="#F1F2F2" stroke="#848484" stroke-miterlimit="10" d="M584.3,64.7l8.5,0
			L584.3,64.7z"/>
		<path fill-rule="evenodd" clip-rule="evenodd" fill="#F1F2F2" stroke="#848484" stroke-miterlimit="10" d="M585.5,67.9l6.2-6.2
			L585.5,67.9z"/>
		<path fill-rule="evenodd" clip-rule="evenodd" fill="#F1F2F2" stroke="#848484" stroke-miterlimit="10" d="M591.6,67.9l-6.2-6.2
			L591.6,67.9z"/>
	</g>
	<g>
		<g>
			<path fill="#F1F2F2" stroke="#848484" stroke-miterlimit="10" d="M489.9,144.8c8.7,0,15.8-2.6,15.8-5.9c0-3.2-7.1-5.9-15.8-5.9
				c-8.7,0-15.8,2.6-15.8,5.9C474,142.2,481.1,144.8,489.9,144.8z"/>
			<path fill="#F1F2F2" stroke="#848484" stroke-miterlimit="10" d="M489.9,171.3c8.7,0,15.8-7.1,15.8-15.8
				c0-8.7-7.1-15.8-15.8-15.8c-8.7,0-15.8,7.1-15.8,15.8C474,164.2,481.1,171.3,489.9,171.3z"/>
		</g>
		<g>
			<path fill="#F1F2F2" stroke="#848484" stroke-miterlimit="10" d="M489.8,224.6c-8.7,0-15.8,2.6-15.8,5.9c0,3.2,7.1,5.9,15.8,5.9
				c8.7,0,15.8-2.6,15.8-5.9C505.7,227.2,498.6,224.6,489.8,224.6z"/>
			<path fill="#F1F2F2" stroke="#848484" stroke-miterlimit="10" d="M489.8,198.2c-8.7,0-15.8,7.1-15.8,15.8s7.1,15.8,15.8,15.8
				c8.7,0,15.8-7.1,15.8-15.8S498.6,198.2,489.8,198.2z"/>
		</g>
		<g>
			<path fill="#F1F2F2" stroke="#848484" stroke-miterlimit="10" d="M452.4,184.1c0-8.7-2.6-15.8-5.9-15.8c-3.2,0-5.9,7.1-5.9,15.8
				c0,8.7,2.6,15.8,5.9,15.8C449.8,199.9,452.4,192.8,452.4,184.1z"/>
			<path fill="#F1F2F2" stroke="#848484" stroke-miterlimit="10" d="M478.9,184.1c0-8.7-7.1-15.8-15.8-15.8
				c-8.7,0-15.8,7.1-15.8,15.8c0,8.7,7.1,15.8,15.8,15.8C471.8,199.9,478.9,192.8,478.9,184.1z"/>
		</g>
		<g>
			<path fill="#F1F2F2" stroke="#848484" stroke-miterlimit="10" d="M527.3,184.1c0,8.8,2.6,15.8,5.9,15.8c3.2,0,5.9-7.1,5.9-15.8
				c0-8.7-2.6-15.8-5.9-15.8C529.9,168.3,527.3,175.3,527.3,184.1z"/>
			<path fill="#F1F2F2" stroke="#848484" stroke-miterlimit="10" d="M500.8,184.1c0,8.8,7.1,15.8,15.8,15.8s15.8-7.1,15.8-15.8
				c0-8.7-7.1-15.8-15.8-15.8S500.8,175.3,500.8,184.1z"/>
		</g>
		
			<rect x="458" y="152.2" transform="matrix(6.123234e-17 -1 1 6.123234e-17 305.7487 673.9384)" fill="#F1F2F2" stroke="#848484" stroke-miterlimit="10" width="63.8" height="63.8"/>
	</g>
	<g>
		<path fill-rule="evenodd" clip-rule="evenodd" fill="#F1F2F2" stroke="#848484" stroke-miterlimit="10" d="M155.8,159.8V96.1V44.8
			c0-3.4,2.8-6.2,6.2-6.2h51.4h155.4c3.4,0,6.2,2.8,6.2,6.2v51.3c0,3.4-2.8,6.2-6.2,6.2h-143c-3.4,0-6.2,2.8-6.2,6.2v51.3
			c0,3.4-2.8,6.2-6.2,6.2H162C158.6,166,155.8,163.2,155.8,159.8z"/>
		<g>
			<path fill-rule="evenodd" clip-rule="evenodd" fill="#F1F2F2" stroke="#848484" stroke-miterlimit="10" d="M219.6,92
				c0,7.3-0.4,10.3-9.6,10.3h-27.4c-9.2,0-9.6-3.1-9.6-10.3V64.8c0-7.3,0.4-10.3,9.6-10.3H210c9.2,0,9.6,3.1,9.6,10.3V92z"/>
			<path fill-rule="evenodd" clip-rule="evenodd" fill="#F1F2F2" stroke="#848484" stroke-miterlimit="10" d="M219.6,92
				c0,7.3-0.4,10.3-9.6,10.3h-27.4c-9.2,0-9.6-3.1-9.6-10.3V64.8c0-7.3,0.4-10.3,9.6-10.3H210c9.2,0,9.6,3.1,9.6,10.3V92z"/>
			<path fill-rule="evenodd" clip-rule="evenodd" fill="#F1F2F2" stroke="#848484" stroke-miterlimit="10" d="M265.7,92
				c0,7.3-0.4,10.3-9.6,10.3h-27.4c-9.2,0-9.6-3.1-9.6-10.3V64.8c0-7.3,0.4-10.3,9.6-10.3h27.4c9.2,0,9.6,3.1,9.6,10.3V92z"/>
			<path fill-rule="evenodd" clip-rule="evenodd" fill="#F1F2F2" stroke="#848484" stroke-miterlimit="10" d="M265.7,92
				c0,7.3-0.4,10.3-9.6,10.3h-27.4c-9.2,0-9.6-3.1-9.6-10.3V64.8c0-7.3,0.4-10.3,9.6-10.3h27.4c9.2,0,9.6,3.1,9.6,10.3V92z"/>
			<path fill-rule="evenodd" clip-rule="evenodd" fill="#F1F2F2" stroke="#848484" stroke-miterlimit="10" d="M311.8,92
				c0,7.3-0.4,10.3-9.5,10.3h-27.4c-9.2,0-9.5-3.1-9.5-10.3V64.8c0-7.3,0.4-10.3,9.5-10.3h27.4c9.2,0,9.5,3.1,9.5,10.3V92z"/>
			<path fill-rule="evenodd" clip-rule="evenodd" fill="#F1F2F2" stroke="#848484" stroke-miterlimit="10" d="M311.8,92
				c0,7.3-0.4,10.3-9.5,10.3h-27.4c-9.2,0-9.5-3.1-9.5-10.3V64.8c0-7.3,0.4-10.3,9.5-10.3h27.4c9.2,0,9.5,3.1,9.5,10.3V92z"/>
			<path fill-rule="evenodd" clip-rule="evenodd" fill="#F1F2F2" stroke="#848484" stroke-miterlimit="10" d="M219.6,139.8
				c0,7.3-0.4,10.3-9.6,10.3h-27.4c-9.2,0-9.6-3.1-9.6-10.3v-27.2c0-7.3,0.4-10.3,9.6-10.3H210c9.2,0,9.6,3.1,9.6,10.3V139.8z"/>
			<path fill-rule="evenodd" clip-rule="evenodd" fill="#F1F2F2" stroke="#848484" stroke-miterlimit="10" d="M357.9,91.9
				c0,7.3-0.4,10.3-9.5,10.3h-27.4c-9.2,0-9.5-3.1-9.5-10.3V64.6c0-7.3,0.4-10.3,9.5-10.3h27.4c9.2,0,9.5,3.1,9.5,10.3V91.9z"/>
			<path fill-rule="evenodd" clip-rule="evenodd" fill="#F1F2F2" stroke="#848484" stroke-miterlimit="10" d="M155.8,45.2v111.5v2.7
				c0,3.6,3.2,6.6,7.1,6.6h2.9h46.7c3.9,0,7.1-3,7.1-6.6v-2.7c0-3.6-3.2-6.6-7.1-6.6h-39.6V54.5h185v41.2c0,3.6,3.2,6.6,7.1,6.6h2.9
				c3.9,0,7.1-3,7.1-6.6V47.9v-2.7c0-3.6-3.2-6.6-7.1-6.6H365H165.8h-2.9h0C159,38.6,155.8,41.5,155.8,45.2z"/>
		</g>
	</g>
	<g>
		<path fill-rule="evenodd" clip-rule="evenodd" fill="#F1F2F2" stroke="#848484" stroke-miterlimit="10" d="M338.4,289h-23.5v-19.5
			h23.5V289L338.4,289z M227.3,289v-29.2h87.6V289H227.3z"/>
		<path fill-rule="evenodd" clip-rule="evenodd" fill="#F1F2F2" stroke="#848484" stroke-miterlimit="10" d="M262.4,278.6
			c0,5.1,4.6,5.6,10.3,5.6c5.6,0,10.2-0.5,10.2-5.6s-4.6-9.3-10.2-9.3C267,269.4,262.4,273.5,262.4,278.6z"/>
		
			<rect x="238.3" y="273.7" fill-rule="evenodd" clip-rule="evenodd" fill="#F1F2F2" stroke="#848484" stroke-miterlimit="10" width="68.8" height="3.9"/>
		
			<rect x="238.3" y="273.7" fill-rule="evenodd" clip-rule="evenodd" fill="#F1F2F2" stroke="#848484" stroke-miterlimit="10" width="68.8" height="3.9"/>
		<polygon fill-rule="evenodd" clip-rule="evenodd" fill="#F1F2F2" stroke="#848484" stroke-miterlimit="10" points="244.1,277.4 
			255.2,280.6 290.1,280.6 301.2,277.4 		"/>
		<polygon fill-rule="evenodd" clip-rule="evenodd" fill="#F1F2F2" stroke="#848484" stroke-miterlimit="10" points="244.1,277.4 
			255.2,280.6 290.1,280.6 301.2,277.4 		"/>
		<path fill-rule="evenodd" clip-rule="evenodd" fill="#F1F2F2" stroke="#848484" stroke-miterlimit="10" d="M336.4,267.3H317v-1.9
			h19.4V267.3L336.4,267.3z M227.3,289h-23.5v-19.6h23.5V289L227.3,289z M205.8,267.3v-1.9h19.4v1.9H205.8z"/>
	</g>
	<g>
		<path fill="#F1F2F2" stroke="#848484" stroke-miterlimit="10" d="M679.6,265.4h90.8v41.5h-90.8c-4.6-1.7-14.6-7.9-20-15.8
			c-6.1-8.9-6-21.3-5.6-25.7C662.5,265.4,671.1,265.4,679.6,265.4z M679.6,265.4v41.5"/>
		
			<rect x="755.9" y="266.2" transform="matrix(4.819174e-11 -1 1 4.819174e-11 490.4554 1026.4364)" fill="#F1F2F2" stroke="#848484" stroke-miterlimit="10" width="5.2" height="3.7"/>
		
			<rect x="733.4" y="266.2" transform="matrix(4.678397e-11 -1 1 4.678397e-11 468.0196 1004.0005)" fill="#F1F2F2" stroke="#848484" stroke-miterlimit="10" width="5.2" height="3.7"/>
		
			<rect x="711.2" y="266.2" transform="matrix(4.784002e-11 -1 1 4.784002e-11 445.8132 981.7941)" fill="#F1F2F2" stroke="#848484" stroke-miterlimit="10" width="5.2" height="3.7"/>
		
			<rect x="688.8" y="266.2" transform="matrix(4.784002e-11 -1 1 4.784002e-11 423.3773 959.3583)" fill="#F1F2F2" stroke="#848484" stroke-miterlimit="10" width="5.2" height="3.7"/>
		
			<rect x="758" y="261.4" transform="matrix(4.220097e-11 -1 1 4.220097e-11 492.6314 1024.2604)" fill="#F1F2F2" stroke="#848484" stroke-miterlimit="10" width="0.9" height="8.9"/>
		
			<rect x="735.7" y="261.4" transform="matrix(5.064044e-11 -1 1 5.064044e-11 470.2873 1001.9164)" fill="#F1F2F2" stroke="#848484" stroke-miterlimit="10" width="0.9" height="8.9"/>
		
			<rect x="713.4" y="261.4" transform="matrix(5.275076e-11 -1 1 5.275076e-11 447.9892 979.6182)" fill="#F1F2F2" stroke="#848484" stroke-miterlimit="10" width="0.9" height="8.9"/>
		
			<rect x="690.9" y="261.4" transform="matrix(5.275076e-11 -1 1 5.275076e-11 425.5533 957.1824)" fill="#F1F2F2" stroke="#848484" stroke-miterlimit="10" width="0.9" height="8.9"/>
	</g>
</g>
<g id="Слой_2">
	<g>
		<g>
			
				<rect x="106.7" y="421.2" transform="matrix(6.123234e-17 -1 1 6.123234e-17 -298.9159 652.2845)" fill-rule="evenodd" clip-rule="evenodd" fill="#F1F2F2" stroke="#848484" stroke-miterlimit="10" width="140.1" height="108.7"/>
			
				<rect x="111.5" y="422.9" transform="matrix(6.123234e-17 -1 1 6.123234e-17 -298.0247 651.5075)" fill-rule="evenodd" clip-rule="evenodd" fill="#F1F2F2" stroke="#848484" stroke-miterlimit="10" width="130.6" height="103.7"/>
			
				<rect x="133.4" y="501.8" transform="matrix(2.167768e-13 -1 1 2.167768e-13 -373.8487 670.044)" fill-rule="evenodd" clip-rule="evenodd" fill="#F1F2F2" stroke="#848484" stroke-miterlimit="10" width="29.5" height="40.3"/>
			
				<rect x="190.4" y="501.8" transform="matrix(6.123234e-17 -1 1 6.123234e-17 -316.8609 727.0318)" fill-rule="evenodd" clip-rule="evenodd" fill="#F1F2F2" stroke="#848484" stroke-miterlimit="10" width="29.5" height="40.3"/>
			<polygon fill-rule="evenodd" clip-rule="evenodd" fill="#F1F2F2" stroke="#848484" stroke-miterlimit="10" points="124.9,492.2 
				155.8,510.2 197.7,510.2 155.8,510.2 197.7,510.2 228.6,492.2 228.6,409.5 228.5,409.5 124.9,409.5 			"/>
			<polyline fill-rule="evenodd" clip-rule="evenodd" fill="#F1F2F2" stroke="#848484" stroke-miterlimit="10" points="124.9,492.2 
				146.6,479 155.8,510.2 			"/>
			
				<line fill-rule="evenodd" clip-rule="evenodd" fill="#F1F2F2" stroke="#848484" stroke-miterlimit="10" x1="155.8" y1="510.2" x2="124.9" y2="492.2"/>
			<polyline fill-rule="evenodd" clip-rule="evenodd" fill="#F1F2F2" stroke="#848484" stroke-miterlimit="10" points="228.6,492.2 
				206.9,479 197.7,510.2 			"/>
			
				<line fill-rule="evenodd" clip-rule="evenodd" fill="#F1F2F2" stroke="#848484" stroke-miterlimit="10" x1="197.7" y1="510.2" x2="228.6" y2="492.2"/>
		</g>
		<g>
			<rect x="233.1" y="517.8" fill="#F1F2F2" stroke="#848484" stroke-miterlimit="10" width="38.3" height="27.8"/>
			<rect x="244" y="516" fill="#F1F2F2" stroke="#848484" stroke-miterlimit="10" width="16" height="1.8"/>
		</g>
		<g>
			<rect x="81.9" y="517.8" fill="#F1F2F2" stroke="#848484" stroke-miterlimit="10" width="38.3" height="27.8"/>
			<rect x="92.9" y="516" fill="#F1F2F2" stroke="#848484" stroke-miterlimit="10" width="16" height="1.8"/>
		</g>
	</g>
	<g>
	</g>
	<g>
	</g>
	<g>
	</g>
	<g>
	</g>
	<g>
	</g>
	<g>
	</g>
</g>
</svg>
