<?xml version="1.0" encoding="utf-8"?>
<!-- Generator: Adobe Illustrator 23.0.2, SVG Export Plug-In . SVG Version: 6.00 Build 0)  -->
<svg version="1.1" id="Слой_1" xmlns="http://www.w3.org/2000/svg" xmlns:xlink="http://www.w3.org/1999/xlink" x="0px" y="0px"
	 viewBox="0 0 679.6 800" enable-background="new 0 0 679.6 800" xml:space="preserve">
<rect x="91" y="76.8" fill="#F3F3F3" stroke="#838383" width="48.6" height="139.7"/>
<g id="moyka_2_2_">
	<path fill="#F3F3F3" stroke="#838383" d="M131.5,161.4c1.5,0,2.7,1.2,2.7,2.7v39.8c0,1.5-1.2,2.7-2.7,2.7H98.5
		c-1.5,0-2.7-1.2-2.7-2.7v-39.8c0-1.5,1.2-2.7,2.7-2.7H131.5z"/>
	<path fill="#F3F3F3" stroke="#838383" d="M128.7,164.1c1.5,0,2.7,1.2,2.7,2.7v34.3c0,1.5-1.2,2.7-2.7,2.7h-23.3
		c-1.5,0-2.7-1.2-2.7-2.7v-34.3c0-1.5,1.2-2.7,2.7-2.7H128.7z"/>
	<rect x="99.9" y="182" fill="#F3F3F3" stroke="#838383" width="11" height="2.7"/>
	<circle fill="#F3F3F3" stroke="#838383" cx="118.4" cy="184" r="2.1"/>
</g>
<g id="plita_2_">
	<rect x="91" y="100.2" fill="#F3F3F3" stroke="#838383" width="47.4" height="46.1"/>
	<circle fill="#F3F3F3" stroke="#838383" cx="126.5" cy="133.1" r="7.9"/>
	<circle fill="#F3F3F3" stroke="#838383" cx="106.8" cy="113.4" r="7.9"/>
	<circle fill="#F3F3F3" stroke="#838383" cx="126.5" cy="113.4" r="6.6"/>
	<circle fill="#F3F3F3" stroke="#838383" cx="106.8" cy="133.1" r="6.6"/>
</g>
<g id="unitaz_6_">
	<path fill="#F3F3F3" stroke="#838383" d="M69.1,604.5h9.6c1.5,0,2.7,1.2,2.7,2.7V632c0,1.5-1.2,2.7-2.7,2.7h-9.6V604.5z"/>
	<path fill="#F3F3F3" stroke="#838383" d="M81.5,607.3c0-1.5,1.2-2.7,2.7-2.7v30.2c-1.5,0-2.7-1.2-2.7-2.7V607.3z"/>
	<path fill="#F3F3F3" stroke="#838383" d="M119.9,619.6c0,21.3-35.7,15.1-35.7,15.1v-30.2C84.2,604.5,119.9,598.3,119.9,619.6z"/>
	<circle fill="#F3F3F3" stroke="#838383" cx="74.6" cy="619.6" r="2.7"/>
</g>
<g id="unitaz_17_">
	<path fill="#F3F3F3" stroke="#838383" d="M67.7,466.3h9.6c1.5,0,2.7,1.2,2.7,2.7v24.7c0,1.5-1.2,2.7-2.7,2.7h-9.6V466.3z"/>
	<path fill="#F3F3F3" stroke="#838383" d="M80,469c0-1.5,1.2-2.7,2.7-2.7v30.2c-1.5,0-2.7-1.2-2.7-2.7V469z"/>
	<path fill="#F3F3F3" stroke="#838383" d="M118.4,481.4c0,21.3-35.7,15.1-35.7,15.1v-30.2C82.8,466.3,118.4,460.1,118.4,481.4z"/>
	<circle fill="#F3F3F3" stroke="#838383" cx="73.2" cy="481.4" r="2.7"/>
</g>
<g id="moyka_6_">
	<path fill="#F3F3F3" stroke="#838383" d="M69.8,654.8c0-0.8,0.7-1.5,1.5-1.5h29.9c0.8,0,1.5,0.7,1.5,1.5v44.9
		c0,0.8-0.7,1.5-1.5,1.5H71.3c-0.8,0-1.5-0.7-1.5-1.5V654.8z"/>
	<rect x="74.3" y="653.3" fill="#F3F3F3" stroke="#838383" width="3" height="47.9"/>
	<ellipse fill="#F3F3F3" stroke="#838383" cx="90" cy="676.5" rx="9.7" ry="15.7"/>
	<rect x="74.3" y="675.8" fill="#F3F3F3" stroke="#838383" width="12" height="3"/>
	<circle fill="#F3F3F3" stroke="#838383" cx="91.5" cy="678" r="2.2"/>
</g>
<g id="moyka_16_">
	<path fill="#F3F3F3" stroke="#838383" d="M211.4,495c0,0.8-0.7,1.5-1.5,1.5h-29.9c-0.8,0-1.5-0.7-1.5-1.5V450
		c0-0.8,0.7-1.5,1.5-1.5h29.9c0.8,0,1.5,0.7,1.5,1.5V495z"/>
	<rect x="203.9" y="448.5" fill="#F3F3F3" stroke="#838383" width="3" height="47.9"/>
	<ellipse fill="#F3F3F3" stroke="#838383" cx="191.2" cy="473.2" rx="9.7" ry="15.7"/>
	<rect x="194.9" y="471" fill="#F3F3F3" stroke="#838383" width="12" height="3"/>
	<circle fill="#F3F3F3" stroke="#838383" cx="189.7" cy="471.7" r="2.2"/>
</g>
<g id="stirka_5_">
	<rect x="163.9" y="544.3" fill="#F3F3F3" stroke="#838383" width="41.2" height="41.2"/>
	<path fill="#F3F3F3" stroke="#838383" d="M166.6,544.3h15.1v4.1c0,1.5-1.2,2.7-2.7,2.7h-9.6c-1.5,0-2.7-1.2-2.7-2.7V544.3z"/>
	<circle fill="#F3F3F3" stroke="#838383" cx="184.4" cy="566.3" r="11"/>
	<circle fill="#F3F3F3" stroke="#838383" cx="184.4" cy="566.3" r="8.2"/>
	<circle fill="#F3F3F3" stroke="#838383" cx="198.2" cy="551.2" r="2.7"/>
</g>
<g id="vanna_5_">
	<rect x="69.8" y="720" fill="#F3F3F3" stroke="#838383" width="133.1" height="52.1"/>
	<path fill="#F3F3F3" stroke="#838383" d="M194.7,754.3c0,7.6-6.1,13.7-13.7,13.7H89v-43.9H181c7.6,0,13.7,6.1,13.7,13.7V754.3z"/>
	<path fill="#F3F3F3" stroke="#838383" d="M82.2,739.9v18.5H87v-11"/>
	<path id="Union_5_" fill="#F3F3F3" stroke="#838383" d="M80.8,739.2c0,0.8,0.6,1.4,1.4,1.4c0.8,0,1.4-0.6,1.4-1.4v-1.6
		c1.6-0.6,2.7-2.1,2.7-3.9c0-2.3-1.8-4.1-4.1-4.1c-2.3,0-4.1,1.8-4.1,4.1c0,1.8,1.1,3.3,2.7,3.9V739.2z"/>
	<rect x="84.9" y="744.7" fill="#F3F3F3" stroke="#838383" width="11" height="2.7"/>
</g>
<rect x="652.8" y="537.5" fill="#FFFFFF" stroke="#000000" stroke-miterlimit="10" width="6.2" height="121.1"/>
<rect x="659" y="543.7" fill="#FFFFFF" stroke="#000000" stroke-miterlimit="10" width="11.3" height="109.4"/>
<rect x="641.1" y="537.5" fill="#FFFFFF" stroke="#000000" stroke-miterlimit="10" width="11.7" height="121.1"/>
<rect x="652.8" y="537.5" fill="#FFFFFF" stroke="#000000" stroke-miterlimit="10" width="6.2" height="7.1"/>
<rect x="652.8" y="594.9" fill="#FFFFFF" stroke="#000000" stroke-miterlimit="10" width="6.2" height="6.2"/>
<rect x="652.8" y="650.9" fill="#FFFFFF" stroke="#000000" stroke-miterlimit="10" width="6.2" height="7.7"/>
<rect x="653" y="339.3" fill="#FFFFFF" stroke="#000000" stroke-miterlimit="10" width="6" height="122.2"/>
<rect x="641.8" y="339.3" fill="#FFFFFF" stroke="#000000" stroke-miterlimit="10" width="11.2" height="122.2"/>
<rect x="659" y="342.9" fill="#FFFFFF" stroke="#000000" stroke-miterlimit="10" width="11.3" height="112.6"/>
<rect x="653" y="339.3" fill="#FFFFFF" stroke="#000000" stroke-miterlimit="10" width="6" height="9"/>
<rect x="653" y="397.6" fill="#FFFFFF" stroke="#000000" stroke-miterlimit="10" width="6" height="6"/>
<rect x="653" y="453" fill="#FFFFFF" stroke="#000000" stroke-miterlimit="10" width="6" height="8.4"/>
<rect x="533.6" y="130.1" fill="#FFFFFF" stroke="#000000" stroke-miterlimit="10" width="6.2" height="115.6"/>
<rect x="533.6" y="130.1" fill="#FFFFFF" stroke="#000000" stroke-miterlimit="10" width="6.2" height="8.8"/>
<rect x="533.6" y="241.1" fill="#FFFFFF" stroke="#000000" stroke-miterlimit="10" width="6.2" height="4.6"/>
<rect x="533.6" y="167.8" fill="#FFFFFF" stroke="#000000" stroke-miterlimit="10" width="6.2" height="9.1"/>
<rect x="539.8" y="133.7" fill="#FFFFFF" stroke="#000000" stroke-miterlimit="10" width="11" height="39.9"/>
<rect x="518.9" y="130.1" fill="#FFFFFF" stroke="#000000" stroke-miterlimit="10" width="14.6" height="43.5"/>
<g>
	
		<rect x="645.2" y="38.1" transform="matrix(-1 -1.224647e-16 1.224647e-16 -1 1315.6392 289.0602)" fill="#FFFFFF" stroke="#000000" stroke-miterlimit="10" width="25.2" height="212.9"/>
	
		<rect x="651.1" y="38.1" transform="matrix(-1 -1.224647e-16 1.224647e-16 -1 1310.8845 289.0602)" fill="#FFFFFF" stroke="#000000" stroke-miterlimit="10" width="8.8" height="212.9"/>
	
		<rect x="653.8" y="41.8" transform="matrix(-1 -1.224647e-16 1.224647e-16 -1 1310.7017 292.809)" fill="#FFFFFF" stroke="#000000" stroke-miterlimit="10" width="3.1" height="209.1"/>
</g>
<line fill="#FFFFFF" stroke="#000000" stroke-miterlimit="10" x1="45.7" y1="311.1" x2="7.6" y2="378.4"/>
<line fill="#FFFFFF" stroke="#000000" stroke-miterlimit="10" x1="112.7" y1="429.6" x2="167.8" y2="398.2"/>
<line fill="#FFFFFF" stroke="#000000" stroke-miterlimit="10" x1="321.4" y1="502" x2="356.9" y2="445.4"/>
<line fill="#FFFFFF" stroke="#000000" stroke-miterlimit="10" x1="321.4" y1="554.3" x2="356.9" y2="613.6"/>
<line fill="#FFFFFF" stroke="#000000" stroke-miterlimit="10" x1="219.8" y1="655.3" x2="251.6" y2="603.7"/>
<line fill="#FFFFFF" stroke="#000000" stroke-miterlimit="10" x1="533.6" y1="241.1" x2="500.6" y2="184.6"/>
<rect x="45.7" y="781.5" fill="#838383" stroke="#000000" stroke-miterlimit="10" width="174.1" height="13.5"/>
<rect x="219.8" y="772.3" fill="#838383" stroke="#000000" stroke-miterlimit="10" width="439.3" height="22.7"/>
<rect x="659" y="653.1" fill="#838383" stroke="#000000" stroke-miterlimit="10" width="11.3" height="141.9"/>
<rect x="641.8" y="658.6" fill="#838383" stroke="#000000" stroke-miterlimit="10" width="17.2" height="113.7"/>
<rect x="45.7" y="389.4" fill="#838383" stroke="#000000" stroke-miterlimit="10" width="16.8" height="392.1"/>
<rect x="659" y="455.6" fill="#838383" stroke="#000000" stroke-miterlimit="10" width="11.3" height="87.4"/>
<rect x="315.2" y="519.6" fill="#838383" stroke="#000000" stroke-miterlimit="10" width="343.8" height="17.9"/>
<rect x="641.8" y="461.4" fill="#838383" stroke="#000000" stroke-miterlimit="10" width="17.2" height="58.2"/>
<rect x="659" y="251.9" fill="#838383" stroke="#000000" stroke-miterlimit="10" width="11.3" height="91.1"/>
<rect x="641.8" y="281.5" fill="#838383" stroke="#000000" stroke-miterlimit="10" width="17.2" height="57.8"/>
<rect x="518.9" y="263.9" fill="#838383" stroke="#000000" stroke-miterlimit="10" width="140.1" height="17.6"/>
<rect x="539.8" y="243.8" fill="#838383" stroke="#000000" stroke-miterlimit="10" width="11" height="20.1"/>
<rect x="518.9" y="245.7" fill="#838383" stroke="#000000" stroke-miterlimit="10" width="20.8" height="18.3"/>
<rect x="550.7" y="251.9" fill="#838383" stroke="#000000" stroke-miterlimit="10" width="108.3" height="12.1"/>
<rect x="518.9" y="5" fill="#838383" stroke="#000000" stroke-miterlimit="10" width="20.8" height="125.1"/>
<rect x="539.8" y="26.2" fill="#838383" stroke="#000000" stroke-miterlimit="10" width="11" height="107.5"/>
<rect x="550.7" y="26.2" fill="#838383" stroke="#000000" stroke-miterlimit="10" width="119.6" height="11"/>
<rect x="539.8" y="5" fill="#838383" stroke="#000000" stroke-miterlimit="10" width="130.7" height="21.2"/>
<rect x="68.7" y="5" fill="#838383" stroke="#000000" stroke-miterlimit="10" width="450.2" height="21.2"/>
<rect x="68.7" y="26.2" fill="#838383" stroke="#000000" stroke-miterlimit="10" width="22.3" height="236.5"/>
<rect x="45.7" y="244.6" fill="#838383" stroke="#000000" stroke-miterlimit="10" width="23" height="66.6"/>
<rect x="62.5" y="389.4" fill="#838383" stroke="#000000" stroke-miterlimit="10" width="7.2" height="40.2"/>
<rect x="181.7" y="255.5" fill="#838383" stroke="#000000" stroke-miterlimit="10" width="38" height="41"/>
<rect x="181.7" y="505" fill="#838383" stroke="#000000" stroke-miterlimit="10" width="38" height="38"/>
<rect x="212.6" y="655.3" fill="#C6C6C6" stroke="#000000" stroke-miterlimit="10" width="7.2" height="126.2"/>
<rect x="62.5" y="774.3" fill="#C6C6C6" stroke="#000000" stroke-miterlimit="10" width="150.1" height="7.2"/>
<rect x="315.2" y="537.5" fill="#C6C6C6" stroke="#000000" stroke-miterlimit="10" width="9.3" height="16.8"/>
<rect x="315.2" y="624.6" fill="#C6C6C6" stroke="#000000" stroke-miterlimit="10" width="9.3" height="46.4"/>
<rect x="219.8" y="661.7" fill="#C6C6C6" stroke="#000000" stroke-miterlimit="10" width="95.5" height="9.3"/>
<rect x="315.2" y="502" fill="#C6C6C6" stroke="#000000" stroke-miterlimit="10" width="9.3" height="17.6"/>
<rect x="212.6" y="543" fill="#C6C6C6" stroke="#000000" stroke-miterlimit="10" width="7.2" height="52.4"/>
<rect x="62.5" y="535.9" fill="#C6C6C6" stroke="#000000" stroke-miterlimit="10" width="119.2" height="7.2"/>
<rect x="152.2" y="543" fill="#C6C6C6" stroke="#000000" stroke-miterlimit="10" width="7.2" height="40.3"/>
<rect x="62.5" y="543" fill="#C6C6C6" stroke="#000000" stroke-miterlimit="10" width="7.2" height="231.3"/>
<rect x="212.6" y="429.6" fill="#C6C6C6" stroke="#000000" stroke-miterlimit="10" width="7.2" height="75.3"/>
<rect x="62.5" y="429.6" fill="#C6C6C6" stroke="#000000" stroke-miterlimit="10" width="50.2" height="7.2"/>
<rect x="172.8" y="429.6" fill="#C6C6C6" stroke="#000000" stroke-miterlimit="10" width="39.8" height="7.2"/>
<rect x="62.5" y="436.8" fill="#C6C6C6" stroke="#000000" stroke-miterlimit="10" width="7.2" height="99.1"/>
<rect x="96.7" y="576.2" fill="#C6C6C6" stroke="#000000" stroke-miterlimit="10" width="55.5" height="7.2"/>
<rect x="69.6" y="580.4" fill="#C6C6C6" stroke="#000000" stroke-miterlimit="10" width="27" height="2.9"/>
<rect x="315.2" y="272.2" fill="#C6C6C6" stroke="#000000" stroke-miterlimit="10" width="9.3" height="160.5"/>
<rect x="324.5" y="272.2" fill="#C6C6C6" stroke="#000000" stroke-miterlimit="10" width="194.4" height="9.3"/>
<rect x="115.7" y="255.5" fill="#C6C6C6" stroke="#000000" stroke-miterlimit="10" width="66" height="7.2"/>
<rect x="91" y="216.4" fill="#C6C6C6" stroke="#000000" stroke-miterlimit="10" width="48.6" height="7.2"/>
<rect x="132.5" y="223.6" fill="#C6C6C6" stroke="#000000" stroke-miterlimit="10" width="7.2" height="31.9"/>
<rect x="91" y="259.7" fill="#C6C6C6" stroke="#000000" stroke-miterlimit="10" width="24.7" height="3"/>
<g>
	<path d="M541.7,473.2c-1.1-0.6-1.9-1.4-2.6-2.5c-0.6-1.1-0.9-2.3-0.9-3.6s0.3-2.5,0.9-3.6c0.6-1.1,1.5-1.9,2.6-2.5
		c1.1-0.6,2.3-0.9,3.7-0.9c1,0,2,0.2,2.8,0.5c0.9,0.3,1.6,0.8,2.2,1.5l-0.9,0.9c-1.1-1.1-2.4-1.6-4-1.6c-1.1,0-2.1,0.2-3,0.7
		c-0.9,0.5-1.6,1.2-2.1,2c-0.5,0.9-0.8,1.8-0.8,2.9s0.3,2,0.8,2.9c0.5,0.9,1.2,1.5,2.1,2c0.9,0.5,1.9,0.7,3,0.7c1.6,0,3-0.5,4-1.6
		l0.9,0.9c-0.6,0.7-1.3,1.2-2.2,1.5s-1.8,0.5-2.8,0.5C544,474.1,542.8,473.8,541.7,473.2z"/>
	<path d="M562.3,463.7V474h-1.4v-9h-6.4v9h-1.4v-10.3H562.3z"/>
	<path d="M572.9,464.6c0.7,0.7,1.1,1.7,1.1,3v6.4h-1.3v-1.6c-0.3,0.5-0.8,1-1.4,1.3c-0.6,0.3-1.3,0.4-2.2,0.4
		c-1.1,0-2.1-0.3-2.7-0.8c-0.7-0.5-1-1.3-1-2.2c0-0.9,0.3-1.6,0.9-2.1s1.6-0.8,3-0.8h3.3v-0.6c0-0.9-0.2-1.6-0.7-2
		c-0.5-0.5-1.2-0.7-2.2-0.7c-0.7,0-1.3,0.1-1.9,0.3c-0.6,0.2-1.1,0.5-1.5,0.9l-0.6-1c0.5-0.4,1.1-0.8,1.9-1c0.7-0.2,1.5-0.4,2.3-0.4
		C571.1,463.6,572.1,464,572.9,464.6z M571.3,472.5c0.6-0.4,1-0.9,1.3-1.6v-1.7h-3.2c-1.8,0-2.6,0.6-2.6,1.8c0,0.6,0.2,1.1,0.7,1.4
		c0.5,0.3,1.1,0.5,1.9,0.5C570.1,473,570.7,472.8,571.3,472.5z"/>
	<path d="M586,463.7V474h-1.4v-9h-4.9l-0.1,2.5c-0.1,2.1-0.4,3.8-0.7,4.9c-0.4,1.1-1.1,1.7-2.1,1.7c-0.3,0-0.6-0.1-1-0.2l0.1-1.2
		c0.2,0.1,0.4,0.1,0.5,0.1c0.5,0,0.9-0.2,1.2-0.7s0.5-1.1,0.5-1.8s0.2-1.7,0.2-2.9l0.2-3.7H586z"/>
	<path d="M597.3,468.2c0.7,0.6,1,1.4,1,2.4c0,1.1-0.4,1.9-1.1,2.5c-0.7,0.6-1.8,0.9-3.1,0.9l-4.1,0v-10.3h1.4v3.6l3,0
		C595.7,467.4,596.7,467.7,597.3,468.2z M596.2,472.4c0.5-0.4,0.7-1,0.7-1.7c0-0.8-0.2-1.3-0.7-1.7c-0.5-0.4-1.2-0.6-2.2-0.6l-2.7,0
		v4.6l2.7,0C595,473,595.7,472.8,596.2,472.4z"/>
	<path d="M601,463.7h1.4v4.6h6.5v-4.6h1.4V474h-1.4v-4.5h-6.5v4.5H601V463.7z"/>
	<path d="M622.1,463.7V474h-1.3v-3.4h-3.2h-0.4l-2.4,3.4h-1.5l2.6-3.6c-0.8-0.2-1.4-0.6-1.8-1.1s-0.6-1.2-0.6-2c0-1.1,0.4-2,1.2-2.6
		c0.8-0.6,1.8-0.9,3.2-0.9H622.1z M617.7,469.6h3.1v-4.6h-3c-2,0-3,0.8-3,2.3C614.8,468.8,615.7,469.6,617.7,469.6z"/>
	<path d="M543.6,486.2v17.1h-2.4v-15h-3.9v-2.1H543.6z"/>
	<path d="M559.3,501.2v2.1H547v-1.7l7-6.7c0.8-0.8,1.4-1.5,1.7-2.1c0.3-0.6,0.4-1.2,0.4-1.8c0-0.9-0.3-1.6-0.9-2.1
		c-0.6-0.5-1.5-0.7-2.7-0.7c-1.9,0-3.3,0.6-4.4,1.9l-1.7-1.4c0.7-0.8,1.5-1.4,2.6-1.9c1.1-0.5,2.3-0.7,3.6-0.7
		c1.8,0,3.2,0.4,4.3,1.3s1.6,2,1.6,3.5c0,0.9-0.2,1.8-0.6,2.6c-0.4,0.8-1.1,1.7-2.2,2.8l-5.2,5H559.3z"/>
	<path d="M564.3,500.6c0.3,0.3,0.5,0.7,0.5,1.2c0,0.2,0,0.5-0.1,0.7c-0.1,0.2-0.2,0.6-0.3,1l-1.1,3.4h-1.5l0.9-3.6
		c-0.3-0.1-0.6-0.3-0.7-0.6s-0.3-0.6-0.3-0.9c0-0.5,0.2-0.9,0.5-1.2c0.3-0.3,0.7-0.5,1.2-0.5C563.7,500.1,564,500.3,564.3,500.6z"/>
	<path d="M581.8,499.1h-3.2v4.2h-2.4v-4.2h-9.5v-1.7l8.7-11.2h2.6l-8.4,10.8h6.6v-3.7h2.3v3.7h3.2V499.1z"/>
</g>
<g>
	<path d="M523.6,616.1c-1.1-0.6-1.9-1.4-2.6-2.5c-0.6-1.1-0.9-2.3-0.9-3.6s0.3-2.5,0.9-3.6c0.6-1.1,1.5-1.9,2.6-2.5
		c1.1-0.6,2.3-0.9,3.7-0.9c1,0,2,0.2,2.8,0.5s1.6,0.8,2.2,1.5l-0.9,0.9c-1.1-1.1-2.4-1.6-4-1.6c-1.1,0-2.1,0.2-3,0.7
		c-0.9,0.5-1.6,1.2-2.1,2c-0.5,0.9-0.8,1.8-0.8,2.9s0.3,2,0.8,2.9c0.5,0.9,1.2,1.5,2.1,2s1.9,0.7,3,0.7c1.6,0,3-0.5,4-1.6l0.9,0.9
		c-0.6,0.7-1.3,1.2-2.2,1.5s-1.8,0.5-2.8,0.5C525.9,617,524.6,616.7,523.6,616.1z"/>
	<path d="M544.1,606.6v10.3h-1.4v-9h-6.4v9h-1.4v-10.3H544.1z"/>
	<path d="M554.7,607.5c0.7,0.7,1.1,1.7,1.1,3v6.4h-1.3v-1.6c-0.3,0.5-0.8,1-1.4,1.3c-0.6,0.3-1.3,0.4-2.2,0.4
		c-1.1,0-2.1-0.3-2.7-0.8c-0.7-0.5-1-1.3-1-2.2c0-0.9,0.3-1.6,0.9-2.1s1.6-0.8,3-0.8h3.3v-0.6c0-0.9-0.2-1.6-0.7-2
		c-0.5-0.5-1.2-0.7-2.2-0.7c-0.7,0-1.3,0.1-1.9,0.3c-0.6,0.2-1.1,0.5-1.5,0.9l-0.6-1c0.5-0.4,1.1-0.8,1.9-1c0.7-0.2,1.5-0.4,2.3-0.4
		C552.9,606.5,554,606.8,554.7,607.5z M553.1,615.3c0.6-0.4,1-0.9,1.3-1.6v-1.7h-3.2c-1.8,0-2.6,0.6-2.6,1.8c0,0.6,0.2,1.1,0.7,1.4
		c0.5,0.3,1.1,0.5,1.9,0.5C551.9,615.9,552.6,615.7,553.1,615.3z"/>
	<path d="M567.9,606.6v10.3h-1.4v-9h-4.9l-0.1,2.5c-0.1,2.1-0.4,3.8-0.7,4.9c-0.4,1.1-1.1,1.7-2.1,1.7c-0.3,0-0.6-0.1-1-0.2l0.1-1.2
		c0.2,0.1,0.4,0.1,0.5,0.1c0.5,0,0.9-0.2,1.2-0.7s0.5-1.1,0.5-1.8c0.1-0.7,0.2-1.7,0.2-2.9l0.2-3.7H567.9z"/>
	<path d="M579.2,611.1c0.7,0.6,1,1.4,1,2.4c0,1.1-0.4,1.9-1.1,2.5c-0.7,0.6-1.8,0.9-3.1,0.9l-4.1,0v-10.3h1.4v3.6l3,0
		C577.5,610.2,578.5,610.5,579.2,611.1z M578,615.2c0.5-0.4,0.7-1,0.7-1.7c0-0.8-0.2-1.3-0.7-1.7c-0.5-0.4-1.2-0.6-2.2-0.6l-2.7,0
		v4.6l2.7,0C576.8,615.8,577.5,615.6,578,615.2z"/>
	<path d="M582.8,606.6h1.4v4.6h6.5v-4.6h1.4v10.3h-1.4v-4.5h-6.5v4.5h-1.4V606.6z"/>
	<path d="M603.9,606.6v10.3h-1.3v-3.4h-3.2H599l-2.4,3.4h-1.5l2.6-3.6c-0.8-0.2-1.4-0.6-1.8-1.1s-0.6-1.2-0.6-2c0-1.1,0.4-2,1.2-2.6
		c0.8-0.6,1.8-0.9,3.2-0.9H603.9z M599.5,612.4h3.1v-4.6h-3c-2,0-3,0.8-3,2.3C596.6,611.7,597.6,612.4,599.5,612.4z"/>
	<path d="M525.4,629.1v17.1H523v-15h-3.9v-2.1H525.4z"/>
	<path d="M544,642h-3.2v4.2h-2.4V642h-9.5v-1.7l8.7-11.2h2.6l-8.4,10.8h6.6v-3.7h2.3v3.7h3.2V642z"/>
	<path d="M548.7,643.4c0.3,0.3,0.5,0.7,0.5,1.2c0,0.2,0,0.5-0.1,0.7c-0.1,0.2-0.2,0.6-0.3,1l-1.1,3.4h-1.5l0.9-3.6
		c-0.3-0.1-0.6-0.3-0.7-0.6c-0.2-0.3-0.3-0.6-0.3-0.9c0-0.5,0.2-0.9,0.5-1.2s0.7-0.5,1.2-0.5C548.1,643,548.4,643.1,548.7,643.4z"/>
	<path d="M554.6,645.3c-1-0.7-1.9-1.7-2.5-3c-0.6-1.3-0.9-2.9-0.9-4.7s0.3-3.4,0.9-4.7c0.6-1.3,1.4-2.3,2.5-3c1.1-0.7,2.3-1,3.6-1
		c1.3,0,2.5,0.3,3.6,1c1,0.7,1.9,1.7,2.5,3c0.6,1.3,0.9,2.9,0.9,4.7s-0.3,3.4-0.9,4.7c-0.6,1.3-1.4,2.3-2.5,3c-1.1,0.7-2.2,1-3.6,1
		C556.9,646.4,555.7,646,554.6,645.3z M561.5,642.5c0.8-1.1,1.2-2.8,1.2-4.9c0-2.1-0.4-3.8-1.2-4.9c-0.8-1.1-1.9-1.7-3.3-1.7
		c-1.4,0-2.5,0.6-3.3,1.7c-0.8,1.1-1.2,2.8-1.2,4.9c0,2.1,0.4,3.8,1.2,4.9c0.8,1.1,1.9,1.7,3.3,1.7
		C559.6,644.2,560.7,643.6,561.5,642.5z"/>
</g>
<g>
	<path d="M335,134.7h-3.1v6.3h-1.4v-13.7h1.4v6.1h3.1l4.6-6.1h1.6l-5.1,6.6l5.4,7h-1.7L335,134.7z"/>
	<path d="M352.1,130.7l-5.1,11.5c-0.4,1-0.9,1.6-1.4,2.1s-1.2,0.6-2,0.6c-0.5,0-1-0.1-1.4-0.2c-0.4-0.2-0.8-0.4-1.1-0.7l0.6-1
		c0.5,0.5,1.1,0.8,1.9,0.8c0.5,0,0.9-0.1,1.2-0.4c0.3-0.3,0.6-0.7,0.9-1.3l0.4-1l-4.6-10.3h1.4l3.9,8.7l3.9-8.7H352.1z"/>
	<path d="M360.1,141l-3.3-4.3l-3.3,4.3H352l4.1-5.3l-3.9-5h1.6l3.1,4l3.1-4h1.5l-3.9,5l4.1,5.3H360.1z"/>
	<path d="M364,130.7h1.4v4.6h6.5v-4.6h1.4V141h-1.4v-4.5h-6.5v4.5H364V130.7z"/>
	<path d="M385.1,130.7V141h-1.3v-3.4h-3.2h-0.4l-2.4,3.4h-1.5l2.6-3.6c-0.8-0.2-1.4-0.6-1.8-1.1s-0.6-1.2-0.6-2c0-1.1,0.4-2,1.2-2.6
		c0.8-0.6,1.8-0.9,3.2-0.9H385.1z M380.7,136.6h3.1v-4.6h-3c-2,0-3,0.8-3,2.3C377.8,135.8,378.8,136.6,380.7,136.6z"/>
	<path d="M388.2,135.1h5.1v1.2h-5.1V135.1z"/>
	<path d="M331.7,163.9c-0.8-0.4-1.4-1.1-1.9-1.9c-0.5-0.8-0.7-1.7-0.7-2.7c0-1,0.2-1.9,0.7-2.7s1.1-1.4,1.9-1.9
		c0.8-0.4,1.7-0.7,2.7-0.7c0.9,0,1.7,0.2,2.4,0.5s1.2,0.8,1.7,1.5l-1,0.7c-0.3-0.5-0.8-0.9-1.3-1.1c-0.5-0.3-1.1-0.4-1.7-0.4
		c-0.7,0-1.4,0.2-2,0.5s-1.1,0.8-1.4,1.4c-0.3,0.6-0.5,1.3-0.5,2.1c0,0.8,0.2,1.5,0.5,2.1c0.3,0.6,0.8,1.1,1.4,1.4
		c0.6,0.3,1.3,0.5,2,0.5c0.6,0,1.2-0.1,1.7-0.4c0.5-0.2,1-0.6,1.3-1.1l1,0.7c-0.4,0.7-1,1.2-1.7,1.5s-1.5,0.5-2.4,0.5
		C333.4,164.5,332.5,164.3,331.7,163.9z"/>
	<path d="M348.2,155.4h-3.9v9h-1.4v-9H339v-1.2h9.2V155.4z"/>
	<path d="M351.3,163.9c-0.8-0.4-1.4-1.1-1.9-1.9s-0.7-1.7-0.7-2.7c0-1,0.2-1.9,0.7-2.7s1.1-1.4,1.9-1.9c0.8-0.4,1.7-0.7,2.7-0.7
		s1.9,0.2,2.7,0.7s1.4,1.1,1.9,1.9s0.7,1.7,0.7,2.7c0,1-0.2,1.9-0.7,2.7s-1.1,1.4-1.9,1.9c-0.8,0.4-1.7,0.7-2.7,0.7
		S352.1,164.3,351.3,163.9z M355.9,162.8c0.6-0.3,1-0.8,1.4-1.4c0.3-0.6,0.5-1.3,0.5-2.1s-0.2-1.5-0.5-2.1c-0.3-0.6-0.8-1.1-1.4-1.4
		c-0.6-0.3-1.2-0.5-2-0.5s-1.4,0.2-2,0.5c-0.6,0.3-1,0.8-1.4,1.4c-0.3,0.6-0.5,1.3-0.5,2.1s0.2,1.5,0.5,2.1c0.3,0.6,0.8,1.1,1.4,1.4
		c0.6,0.3,1.2,0.5,2,0.5S355.4,163.1,355.9,162.8z"/>
	<path d="M370.5,154.2v10.3h-1.4v-9h-4.9l-0.1,2.5c-0.1,2.1-0.4,3.8-0.7,4.9c-0.4,1.1-1.1,1.7-2.1,1.7c-0.3,0-0.6-0.1-1-0.2l0.1-1.2
		c0.2,0.1,0.4,0.1,0.5,0.1c0.5,0,0.9-0.2,1.2-0.7c0.3-0.5,0.5-1.1,0.5-1.8c0.1-0.7,0.2-1.7,0.2-2.9l0.2-3.7H370.5z"/>
	<path d="M376,163.9c-0.8-0.4-1.4-1.1-1.9-1.9s-0.7-1.7-0.7-2.7c0-1,0.2-1.9,0.7-2.7s1.1-1.4,1.9-1.9c0.8-0.4,1.7-0.7,2.7-0.7
		s1.9,0.2,2.7,0.7s1.4,1.1,1.9,1.9s0.7,1.7,0.7,2.7c0,1-0.2,1.9-0.7,2.7s-1.1,1.4-1.9,1.9c-0.8,0.4-1.7,0.7-2.7,0.7
		S376.8,164.3,376,163.9z M380.7,162.8c0.6-0.3,1-0.8,1.4-1.4c0.3-0.6,0.5-1.3,0.5-2.1s-0.2-1.5-0.5-2.1c-0.3-0.6-0.8-1.1-1.4-1.4
		c-0.6-0.3-1.2-0.5-2-0.5s-1.4,0.2-2,0.5c-0.6,0.3-1,0.8-1.4,1.4c-0.3,0.6-0.5,1.3-0.5,2.1s0.2,1.5,0.5,2.1c0.3,0.6,0.8,1.1,1.4,1.4
		c0.6,0.3,1.2,0.5,2,0.5S380.1,163.1,380.7,162.8z"/>
	<path d="M395.5,161.7c0,0.9-0.3,1.6-1,2.1c-0.7,0.5-1.7,0.7-3,0.7h-4.7v-10.3h4.5c1.2,0,2.1,0.2,2.8,0.7c0.7,0.5,1,1.1,1,2
		c0,0.6-0.2,1-0.5,1.4c-0.3,0.4-0.7,0.7-1.3,0.9C394.8,159.5,395.5,160.3,395.5,161.7z M388.2,158.7h3.1c0.8,0,1.4-0.1,1.8-0.4
		c0.4-0.3,0.6-0.7,0.6-1.3s-0.2-1-0.6-1.3c-0.4-0.3-1-0.4-1.8-0.4h-3.1V158.7z M393.5,162.9c0.4-0.3,0.7-0.7,0.7-1.3
		c0-0.6-0.2-1.1-0.6-1.4c-0.4-0.3-1-0.4-1.9-0.4h-3.4v3.6h3.3C392.4,163.4,393,163.2,393.5,162.9z"/>
	<path d="M405.4,155.1c0.7,0.7,1.1,1.7,1.1,3v6.4h-1.3v-1.6c-0.3,0.5-0.8,1-1.4,1.3c-0.6,0.3-1.3,0.4-2.2,0.4
		c-1.1,0-2.1-0.3-2.7-0.8c-0.7-0.5-1-1.3-1-2.2c0-0.9,0.3-1.6,0.9-2.1c0.6-0.5,1.6-0.8,3-0.8h3.3V158c0-0.9-0.2-1.6-0.7-2
		c-0.5-0.5-1.2-0.7-2.2-0.7c-0.7,0-1.3,0.1-1.9,0.3c-0.6,0.2-1.1,0.5-1.5,0.9l-0.6-1c0.5-0.4,1.1-0.8,1.9-1c0.7-0.2,1.5-0.4,2.3-0.4
		C403.6,154.1,404.7,154.4,405.4,155.1z M403.8,162.9c0.6-0.4,1-0.9,1.3-1.6v-1.7h-3.2c-1.8,0-2.6,0.6-2.6,1.8
		c0,0.6,0.2,1.1,0.7,1.4s1.1,0.5,1.9,0.5C402.6,163.4,403.3,163.3,403.8,162.9z"/>
	<path d="M418.1,154.2v10.3h-1.3V161h-3.2h-0.4l-2.4,3.4h-1.5l2.6-3.6c-0.8-0.2-1.4-0.6-1.8-1.1s-0.6-1.2-0.6-2c0-1.1,0.4-2,1.2-2.6
		c0.8-0.6,1.8-0.9,3.2-0.9H418.1z M413.7,160h3.1v-4.6h-3c-2,0-3,0.8-3,2.3C410.8,159.2,411.7,160,413.7,160z"/>
	<path d="M334.7,176.7v17.1h-2.4v-15h-3.9v-2.1H334.7z"/>
	<path d="M348.8,184c0.9,0.4,1.6,1,2.1,1.8c0.5,0.8,0.8,1.7,0.8,2.7c0,1.1-0.3,2-0.8,2.8c-0.5,0.8-1.3,1.4-2.2,1.9s-2,0.7-3.1,0.7
		c-2.3,0-4.1-0.7-5.3-2.2c-1.2-1.5-1.9-3.6-1.9-6.3c0-1.9,0.3-3.5,1-4.9c0.7-1.3,1.6-2.4,2.8-3.1s2.6-1,4.2-1c0.8,0,1.6,0.1,2.3,0.3
		c0.7,0.2,1.4,0.4,1.9,0.7l-0.9,1.9c-0.8-0.5-1.9-0.8-3.3-0.8c-1.8,0-3.2,0.5-4.2,1.6s-1.5,2.7-1.5,4.8c0,0.3,0,0.5,0,0.6
		c0.5-0.7,1.2-1.3,2-1.7c0.9-0.4,1.8-0.6,2.9-0.6C346.9,183.4,347.9,183.6,348.8,184z M348.2,191.1c0.7-0.6,1.1-1.4,1.1-2.4
		c0-1-0.4-1.8-1.1-2.4c-0.7-0.6-1.7-0.9-2.8-0.9c-0.8,0-1.4,0.1-2,0.4c-0.6,0.3-1.1,0.7-1.4,1.2c-0.3,0.5-0.5,1.1-0.5,1.7
		c0,0.6,0.2,1.2,0.5,1.6s0.8,0.9,1.4,1.2c0.6,0.3,1.3,0.5,2.2,0.5C346.6,192,347.5,191.7,348.2,191.1z"/>
	<path d="M356.5,191c0.3,0.3,0.5,0.7,0.5,1.2c0,0.2,0,0.5-0.1,0.7c-0.1,0.2-0.2,0.6-0.3,1.1l-1.1,3.4h-1.5l0.9-3.6
		c-0.3-0.1-0.6-0.3-0.7-0.6c-0.2-0.3-0.3-0.6-0.3-0.9c0-0.5,0.2-0.9,0.5-1.2c0.3-0.3,0.7-0.5,1.2-0.5
		C355.8,190.6,356.2,190.7,356.5,191z"/>
	<path d="M371.4,176.7v1.7l-6.9,15.4h-2.6l6.8-15h-7.8v3.1h-2.3v-5.2H371.4z"/>
</g>
<g>
	<path d="M590,107c0.9,0.9,1.3,2,1.3,3.3c0,1-0.2,1.9-0.7,2.7c-0.5,0.8-1.2,1.4-2.2,1.9c-1,0.5-2.2,0.7-3.6,0.7
		c-1.2,0-2.4-0.2-3.5-0.5c-1.1-0.4-2-0.9-2.8-1.5l1.1-1.9c0.6,0.6,1.3,1,2.2,1.3c0.9,0.3,1.9,0.5,2.9,0.5c1.3,0,2.3-0.3,3-0.8
		c0.7-0.5,1.1-1.3,1.1-2.2c0-0.9-0.4-1.7-1.1-2.2c-0.7-0.5-1.8-0.8-3.2-0.8h-1.4v-1.7l4.3-5.3h-8.2v-2.1h11.3v1.7l-4.5,5.5
		C587.8,105.7,589.1,106.2,590,107z"/>
	<path d="M596.3,112.7c0.3,0.3,0.5,0.7,0.5,1.2c0,0.2,0,0.5-0.1,0.7c-0.1,0.2-0.2,0.6-0.3,1.1l-1.1,3.4h-1.5l0.9-3.6
		c-0.3-0.1-0.6-0.3-0.7-0.6c-0.2-0.3-0.3-0.6-0.3-0.9c0-0.5,0.2-0.9,0.5-1.2c0.3-0.3,0.7-0.5,1.2-0.5
		C595.7,112.2,596,112.4,596.3,112.7z"/>
	<path d="M611.4,113.3v2.1h-12.3v-1.7l7-6.7c0.8-0.8,1.4-1.5,1.7-2.1c0.3-0.6,0.4-1.2,0.4-1.8c0-0.9-0.3-1.6-0.9-2.1
		c-0.6-0.5-1.5-0.7-2.7-0.7c-1.9,0-3.3,0.6-4.4,1.9l-1.7-1.4c0.7-0.8,1.5-1.4,2.6-1.9c1.1-0.5,2.3-0.7,3.6-0.7
		c1.8,0,3.2,0.4,4.3,1.3s1.6,2,1.6,3.5c0,0.9-0.2,1.8-0.6,2.6c-0.4,0.8-1.1,1.7-2.2,2.8l-5.2,5H611.4z"/>
</g>
<g>
	<path d="M137.9,466.3v2.1h-12.3v-1.7l7-6.7c0.8-0.8,1.4-1.5,1.7-2.1c0.3-0.6,0.4-1.2,0.4-1.8c0-0.9-0.3-1.6-0.9-2.1
		c-0.6-0.5-1.5-0.7-2.7-0.7c-1.9,0-3.3,0.6-4.4,1.9l-1.7-1.4c0.7-0.8,1.5-1.4,2.6-1.9c1.1-0.5,2.3-0.7,3.6-0.7
		c1.8,0,3.2,0.4,4.3,1.3s1.6,2,1.6,3.5c0,0.9-0.2,1.8-0.6,2.6c-0.4,0.8-1.1,1.7-2.2,2.8l-5.2,5H137.9z"/>
	<path d="M142.9,465.7c0.3,0.3,0.5,0.7,0.5,1.2c0,0.2,0,0.5-0.1,0.7c-0.1,0.2-0.2,0.6-0.3,1l-1.1,3.4h-1.5l0.9-3.6
		c-0.3-0.1-0.6-0.3-0.7-0.6s-0.3-0.6-0.3-0.9c0-0.5,0.2-0.9,0.5-1.2c0.3-0.3,0.7-0.5,1.2-0.5C142.3,465.2,142.6,465.4,142.9,465.7z"
		/>
	<path d="M148.8,467.6c-1.1-0.7-1.9-1.7-2.5-3c-0.6-1.3-0.9-2.9-0.9-4.7s0.3-3.4,0.9-4.7c0.6-1.3,1.4-2.3,2.5-3s2.3-1,3.6-1
		c1.3,0,2.5,0.3,3.6,1s1.9,1.7,2.5,3c0.6,1.3,0.9,2.9,0.9,4.7s-0.3,3.4-0.9,4.7c-0.6,1.3-1.4,2.3-2.5,3c-1.1,0.7-2.2,1-3.6,1
		C151.1,468.6,149.9,468.3,148.8,467.6z M155.7,464.8c0.8-1.1,1.2-2.8,1.2-4.9c0-2.1-0.4-3.8-1.2-4.9c-0.8-1.1-1.9-1.7-3.3-1.7
		c-1.4,0-2.5,0.6-3.3,1.7c-0.8,1.1-1.2,2.8-1.2,4.9c0,2.1,0.4,3.8,1.2,4.9c0.8,1.1,1.9,1.7,3.3,1.7
		C153.8,466.4,154.9,465.9,155.7,464.8z"/>
</g>
<g>
	<path d="M155.7,683.4h-3.2v4.2H150v-4.2h-9.5v-1.7l8.7-11.2h2.6l-8.4,10.8h6.6v-3.7h2.3v3.7h3.2V683.4z"/>
	<path d="M160.4,684.9c0.3,0.3,0.5,0.7,0.5,1.2c0,0.2,0,0.5-0.1,0.7c-0.1,0.2-0.2,0.6-0.3,1l-1.1,3.4h-1.5l0.9-3.6
		c-0.3-0.1-0.6-0.3-0.7-0.6s-0.3-0.6-0.3-0.9c0-0.5,0.2-0.9,0.5-1.2c0.3-0.3,0.7-0.5,1.2-0.5C159.7,684.4,160.1,684.6,160.4,684.9z"
		/>
	<path d="M174,672.5c1.2,1.5,1.9,3.6,1.9,6.3c0,1.9-0.3,3.5-1,4.9c-0.7,1.3-1.6,2.4-2.8,3.1c-1.2,0.7-2.6,1-4.2,1
		c-0.8,0-1.6-0.1-2.3-0.3c-0.7-0.2-1.4-0.4-1.9-0.7l0.9-1.9c0.8,0.5,1.9,0.8,3.3,0.8c1.8,0,3.2-0.5,4.2-1.6c1-1.1,1.5-2.7,1.5-4.8
		v-0.6c-0.5,0.7-1.2,1.3-2,1.7c-0.9,0.4-1.8,0.6-2.9,0.6c-1.1,0-2.1-0.2-3-0.6c-0.9-0.4-1.6-1-2.1-1.8c-0.5-0.8-0.7-1.7-0.7-2.7
		c0-1.1,0.3-2,0.8-2.8s1.2-1.4,2.2-1.9c0.9-0.4,1.9-0.7,3.1-0.7C171,670.3,172.8,671.1,174,672.5z M171,678.5
		c0.6-0.3,1.1-0.7,1.4-1.2c0.3-0.5,0.5-1.1,0.5-1.7c0-0.6-0.2-1.2-0.5-1.6c-0.3-0.5-0.8-0.9-1.4-1.2c-0.6-0.3-1.3-0.5-2.2-0.5
		c-1.1,0-2,0.3-2.7,0.9c-0.7,0.6-1,1.4-1,2.4c0,1,0.4,1.8,1.1,2.4c0.7,0.6,1.6,0.9,2.8,0.9C169.7,678.9,170.4,678.8,171,678.5z"/>
</g>
<g>
	<path d="M256.7,495.2c0.9,0.4,1.6,1,2.1,1.8c0.5,0.8,0.8,1.7,0.8,2.7c0,1.1-0.3,2-0.8,2.8c-0.5,0.8-1.3,1.4-2.2,1.9
		c-0.9,0.4-2,0.7-3.1,0.7c-2.3,0-4.1-0.7-5.3-2.2c-1.2-1.5-1.9-3.6-1.9-6.3c0-1.9,0.3-3.5,1-4.9c0.7-1.3,1.6-2.4,2.8-3.1
		c1.2-0.7,2.6-1,4.2-1c0.8,0,1.6,0.1,2.3,0.3c0.7,0.2,1.4,0.4,1.9,0.7l-0.9,1.9c-0.8-0.5-1.9-0.8-3.3-0.8c-1.8,0-3.2,0.5-4.2,1.6
		c-1,1.1-1.5,2.7-1.5,4.8c0,0.3,0,0.5,0,0.6c0.5-0.7,1.2-1.3,2-1.7c0.9-0.4,1.8-0.6,2.9-0.6C254.8,494.5,255.8,494.7,256.7,495.2z
		 M256.1,502.2c0.7-0.6,1.1-1.4,1.1-2.4s-0.4-1.8-1.1-2.4c-0.7-0.6-1.7-0.9-2.8-0.9c-0.8,0-1.4,0.1-2,0.4c-0.6,0.3-1.1,0.7-1.4,1.2
		c-0.3,0.5-0.5,1.1-0.5,1.7c0,0.6,0.2,1.2,0.5,1.6c0.3,0.5,0.8,0.9,1.4,1.2c0.6,0.3,1.3,0.5,2.2,0.5
		C254.5,503.1,255.4,502.8,256.1,502.2z"/>
	<path d="M264.4,502.2c0.3,0.3,0.5,0.7,0.5,1.2c0,0.2,0,0.5-0.1,0.7c-0.1,0.2-0.2,0.6-0.3,1l-1.1,3.4h-1.5l0.9-3.6
		c-0.3-0.1-0.6-0.3-0.7-0.6s-0.3-0.6-0.3-0.9c0-0.5,0.2-0.9,0.5-1.2c0.3-0.3,0.7-0.5,1.2-0.5C263.7,501.7,264.1,501.9,264.4,502.2z"
		/>
	<path d="M270.2,504.1c-1.1-0.7-1.9-1.7-2.5-3c-0.6-1.3-0.9-2.9-0.9-4.7s0.3-3.4,0.9-4.7c0.6-1.3,1.4-2.3,2.5-3s2.3-1,3.6-1
		c1.3,0,2.5,0.3,3.6,1s1.9,1.7,2.5,3c0.6,1.3,0.9,2.9,0.9,4.7s-0.3,3.4-0.9,4.7c-0.6,1.3-1.4,2.3-2.5,3c-1.1,0.7-2.2,1-3.6,1
		C272.5,505.1,271.3,504.8,270.2,504.1z M277.1,501.3c0.8-1.1,1.2-2.8,1.2-4.9c0-2.1-0.4-3.8-1.2-4.9c-0.8-1.1-1.9-1.7-3.3-1.7
		c-1.4,0-2.5,0.6-3.3,1.7c-0.8,1.1-1.2,2.8-1.2,4.9c0,2.1,0.4,3.8,1.2,4.9c0.8,1.1,1.9,1.7,3.3,1.7
		C275.2,502.9,276.3,502.4,277.1,501.3z"/>
</g>
<g>
	<path d="M130.7,353.1c0.9,0.9,1.3,2,1.3,3.3c0,1-0.2,1.9-0.7,2.6c-0.5,0.8-1.2,1.4-2.2,1.9s-2.2,0.7-3.6,0.7
		c-1.2,0-2.4-0.2-3.5-0.5c-1.1-0.4-2-0.9-2.8-1.5l1.1-1.9c0.6,0.6,1.3,1,2.2,1.3c0.9,0.3,1.9,0.5,2.9,0.5c1.3,0,2.3-0.3,3-0.8
		c0.7-0.5,1.1-1.3,1.1-2.2s-0.4-1.7-1.1-2.2c-0.7-0.5-1.8-0.8-3.2-0.8H124v-1.7l4.3-5.3H120v-2.1h11.3v1.7l-4.5,5.5
		C128.5,351.7,129.8,352.2,130.7,353.1z"/>
	<path d="M137.1,358.7c0.3,0.3,0.5,0.7,0.5,1.2c0,0.2,0,0.5-0.1,0.7c-0.1,0.2-0.2,0.6-0.3,1l-1.1,3.4h-1.5l0.9-3.6
		c-0.3-0.1-0.6-0.3-0.7-0.6s-0.3-0.6-0.3-0.9c0-0.5,0.2-0.9,0.5-1.2c0.3-0.3,0.7-0.5,1.2-0.5C136.4,358.2,136.8,358.4,137.1,358.7z"
		/>
	<path d="M152,344.3v1.7l-6.9,15.4h-2.6l6.8-15h-7.8v3.1h-2.3v-5.2H152z"/>
</g>
<g>
	<g>
		
			<rect x="433.2" y="299.8" transform="matrix(-1.836970e-16 1 -1 -1.836970e-16 862.5546 -149.6929)" fill-rule="evenodd" clip-rule="evenodd" fill="#F1F2F2" stroke="#848484" stroke-miterlimit="10" width="145.9" height="113.3"/>
		
			<rect x="438.1" y="303.3" transform="matrix(-1.836970e-16 1 -1 -1.836970e-16 863.3641 -148.7645)" fill-rule="evenodd" clip-rule="evenodd" fill="#F1F2F2" stroke="#848484" stroke-miterlimit="10" width="136" height="108.1"/>
		
			<rect x="520.6" y="287.2" transform="matrix(-1.778194e-13 1 -1 -1.778194e-13 844.0538 -227.7536)" fill-rule="evenodd" clip-rule="evenodd" fill="#F1F2F2" stroke="#848484" stroke-miterlimit="10" width="30.7" height="42"/>
		
			<rect x="461.2" y="287.2" transform="matrix(-1.836970e-16 1 -1 -1.836970e-16 784.6871 -168.3869)" fill-rule="evenodd" clip-rule="evenodd" fill="#F1F2F2" stroke="#848484" stroke-miterlimit="10" width="30.7" height="42"/>
		<polygon fill-rule="evenodd" clip-rule="evenodd" fill="#F1F2F2" stroke="#848484" stroke-miterlimit="10" points="560.1,339.2 
			527.9,320.4 484.3,320.4 527.9,320.4 484.3,320.4 452,339.2 452,425.3 452.2,425.3 560.1,425.3 		"/>
		<polyline fill-rule="evenodd" clip-rule="evenodd" fill="#F1F2F2" stroke="#848484" stroke-miterlimit="10" points="560.1,339.2 
			537.5,352.8 527.9,320.4 		"/>
		
			<line fill-rule="evenodd" clip-rule="evenodd" fill="#F1F2F2" stroke="#848484" stroke-miterlimit="10" x1="527.9" y1="320.4" x2="560.1" y2="339.2"/>
		<polyline fill-rule="evenodd" clip-rule="evenodd" fill="#F1F2F2" stroke="#848484" stroke-miterlimit="10" points="452,339.2 
			474.7,352.8 484.3,320.4 		"/>
		
			<line fill-rule="evenodd" clip-rule="evenodd" fill="#F1F2F2" stroke="#848484" stroke-miterlimit="10" x1="484.3" y1="320.4" x2="452" y2="339.2"/>
	</g>
	<g>
		
			<rect x="407.5" y="283.5" transform="matrix(-1 -1.224647e-16 1.224647e-16 -1 854.906 595.9101)" fill="#F1F2F2" stroke="#848484" stroke-miterlimit="10" width="39.9" height="29"/>
		
			<rect x="419.3" y="312.4" transform="matrix(-1 -1.224647e-16 1.224647e-16 -1 855.2175 626.7584)" fill="#F1F2F2" stroke="#848484" stroke-miterlimit="10" width="16.7" height="1.9"/>
	</g>
	<g>
		
			<rect x="565" y="283.5" transform="matrix(-1 -1.224647e-16 1.224647e-16 -1 1169.8075 595.9101)" fill="#F1F2F2" stroke="#848484" stroke-miterlimit="10" width="39.9" height="29"/>
		
			<rect x="576.7" y="312.4" transform="matrix(-1 2.174813e-13 -2.174813e-13 -1 1170.1189 626.7584)" fill="#F1F2F2" stroke="#848484" stroke-miterlimit="10" width="16.7" height="1.9"/>
	</g>
</g>
<g>
	<path fill="#F1F2F2" stroke="#848484" stroke-miterlimit="10" d="M178.4,297.4H70.6v-34.5h107.9 M178.4,297.4v-34.5"/>
	
		<rect x="78.4" y="263.8" transform="matrix(-2.120909e-12 -1 1 -2.120909e-12 -184.5475 347.3154)" fill="#F1F2F2" stroke="#848484" stroke-miterlimit="10" width="6" height="4.3"/>
	
		<rect x="104.4" y="263.8" transform="matrix(-1.363293e-12 -1 1 -1.363293e-12 -158.4948 373.3681)" fill="#F1F2F2" stroke="#848484" stroke-miterlimit="10" width="6" height="4.3"/>
	
		<rect x="130.2" y="263.8" transform="matrix(-2.574768e-12 -1 1 -2.574768e-12 -132.7084 399.1544)" fill="#F1F2F2" stroke="#848484" stroke-miterlimit="10" width="6" height="4.3"/>
	
		<rect x="156.3" y="263.8" transform="matrix(-1.969030e-12 -1 1 -1.969030e-12 -106.6557 425.2071)" fill="#F1F2F2" stroke="#848484" stroke-miterlimit="10" width="6" height="4.3"/>
	
		<rect x="80.9" y="258.2" transform="matrix(6.123234e-17 -1 1 6.123234e-17 -182.0207 344.7886)" fill="#F1F2F2" stroke="#848484" stroke-miterlimit="10" width="1" height="10.3"/>
	
		<rect x="106.8" y="258.2" transform="matrix(-4.542083e-12 -1 1 -4.542083e-12 -156.0746 370.7348)" fill="#F1F2F2" stroke="#848484" stroke-miterlimit="10" width="1" height="10.3"/>
	
		<rect x="132.7" y="258.2" transform="matrix(-4.542083e-12 -1 1 -4.542083e-12 -130.1817 396.6277)" fill="#F1F2F2" stroke="#848484" stroke-miterlimit="10" width="1" height="10.3"/>
	
		<rect x="158.8" y="258.2" transform="matrix(-4.542083e-12 -1 1 -4.542083e-12 -104.129 422.6804)" fill="#F1F2F2" stroke="#848484" stroke-miterlimit="10" width="1" height="10.3"/>
</g>
<g>
	<g>
		
			<rect x="221.2" y="714.2" fill-rule="evenodd" clip-rule="evenodd" fill="#F1F2F2" stroke="#848484" stroke-miterlimit="10" width="143.9" height="55.9"/>
		<polyline fill-rule="evenodd" clip-rule="evenodd" fill="#F1F2F2" stroke="#848484" stroke-miterlimit="10" points="261.3,716.5 
			228.2,716.5 228.2,767.7 278.4,767.7 		"/>
		
			<rect x="231.7" y="719.7" fill-rule="evenodd" clip-rule="evenodd" fill="#F1F2F2" stroke="#848484" stroke-miterlimit="10" width="30.7" height="44.8"/>
		<polygon fill-rule="evenodd" clip-rule="evenodd" fill="#F1F2F2" stroke="#848484" stroke-miterlimit="10" points="259.9,716.5 
			259.9,737.2 259.9,737.2 278,767.7 361,767.7 361,767.6 361,716.5 		"/>
		<polygon fill-rule="evenodd" clip-rule="evenodd" fill="#F1F2F2" stroke="#848484" stroke-miterlimit="10" points="278.1,767.2 
			290.8,746.9 260.6,738.4 		"/>
	</g>
	<g>
		
			<rect x="215.8" y="678" transform="matrix(-4.489405e-11 1 -1 -4.489405e-11 927.7681 456.8346)" fill="#F1F2F2" stroke="#848484" stroke-miterlimit="10" width="39.3" height="28.6"/>
		
			<rect x="242.4" y="691.2" transform="matrix(-4.534613e-11 1 -1 -4.534613e-11 942.8297 441.4659)" fill="#F1F2F2" stroke="#848484" stroke-miterlimit="10" width="16.5" height="1.9"/>
	</g>
</g>
<g>
	<path fill-rule="evenodd" clip-rule="evenodd" fill="#F1F2F2" stroke="#848484" stroke-miterlimit="10" d="M372.8,418.4V284.1
		c0-0.8-0.7-1.5-1.5-1.5h-44.4c-0.8,0-1.5,0.7-1.5,1.5v134.2c0,0.8,0.7,1.5,1.5,1.5h44.4C372.1,419.8,372.8,419.2,372.8,418.4z"/>
	<line fill="#F1F2F2" stroke="#848484" stroke-miterlimit="10" x1="325.4" y1="287.6" x2="372.9" y2="287.6"/>
	<line fill="#F1F2F2" stroke="#848484" stroke-miterlimit="10" x1="325.4" y1="414.7" x2="372.8" y2="414.7"/>
	<line fill="#F1F2F2" stroke="#848484" stroke-miterlimit="10" x1="370.6" y1="287.6" x2="370.6" y2="414.7"/>
	<line fill="#F1F2F2" stroke="#848484" stroke-miterlimit="10" x1="348.8" y1="410.3" x2="348.8" y2="292"/>
	<path fill="#F1F2F2" stroke="#848484" stroke-miterlimit="10" d="M363.3,295.8L363.3,295.8c-0.1-0.8-0.9-1.4-1.7-1.2l-25.6,4.2
		c-0.8,0.1-1.4,0.9-1.2,1.7l0,0c0.1,0.8,0.9,1.4,1.7,1.2l25.6-4.2C362.8,297.4,363.4,296.7,363.3,295.8z"/>
	<path fill="#F1F2F2" stroke="#848484" stroke-miterlimit="10" d="M363.4,307.5L363.4,307.5c-0.1-0.8-0.8-1.4-1.6-1.3l-25.8,2.3
		c-0.8,0.1-1.4,0.8-1.3,1.6l0,0c0.1,0.8,0.8,1.4,1.6,1.3l25.8-2.3C362.9,309.1,363.5,308.4,363.4,307.5z"/>
	<path fill="#F1F2F2" stroke="#848484" stroke-miterlimit="10" d="M362.8,316.3L362.8,316.3c-0.2-0.8-1-1.3-1.8-1.1l-25.2,5.9
		c-0.8,0.2-1.3,1-1.1,1.8l0,0c0.2,0.8,1,1.3,1.8,1.1l25.2-5.9C362.5,317.9,363,317.1,362.8,316.3z"/>
	<path fill="#F1F2F2" stroke="#848484" stroke-miterlimit="10" d="M363.4,329.4L363.4,329.4c-0.1-0.8-0.9-1.4-1.7-1.2l-25.6,3.9
		c-0.8,0.1-1.4,0.9-1.2,1.7l0,0c0.1,0.8,0.9,1.4,1.7,1.2l25.6-3.9C362.9,331,363.5,330.2,363.4,329.4z"/>
	<path fill="#F1F2F2" stroke="#848484" stroke-miterlimit="10" d="M363.3,341.4L363.3,341.4c0-0.8-0.7-1.5-1.5-1.4l-25.9,1.2
		c-0.8,0-1.5,0.7-1.4,1.5l0,0c0,0.8,0.7,1.5,1.5,1.4l25.9-1.2C362.8,342.9,363.4,342.2,363.3,341.4z"/>
	<path fill="#F1F2F2" stroke="#848484" stroke-miterlimit="10" d="M363.2,350.5L363.2,350.5c-0.1-0.8-0.9-1.4-1.7-1.2l-25.6,3.9
		c-0.8,0.1-1.4,0.9-1.2,1.7l0,0c0.1,0.8,0.9,1.4,1.7,1.2l25.6-3.9C362.8,352,363.3,351.3,363.2,350.5z"/>
	<path fill="#F1F2F2" stroke="#848484" stroke-miterlimit="10" d="M363.2,362.8L363.2,362.8c0-0.8-0.7-1.5-1.5-1.4l-25.9,1.2
		c-0.8,0-1.5,0.7-1.4,1.5l0,0c0,0.8,0.7,1.5,1.5,1.4l25.9-1.2C362.6,364.3,363.2,363.6,363.2,362.8z"/>
	<path fill="#F1F2F2" stroke="#848484" stroke-miterlimit="10" d="M362.9,371L362.9,371c-0.2-0.8-1-1.3-1.8-1.1l-25.4,5.3
		c-0.8,0.2-1.3,1-1.1,1.8l0,0c0.2,0.8,1,1.3,1.8,1.1l25.4-5.3C362.5,372.6,363.1,371.8,362.9,371z"/>
	<path fill="#F1F2F2" stroke="#848484" stroke-miterlimit="10" d="M363.1,382.3L363.1,382.3c-0.1-0.8-0.9-1.4-1.7-1.2l-25.6,3.9
		c-0.8,0.1-1.4,0.9-1.2,1.7l0,0c0.1,0.8,0.9,1.4,1.7,1.2l25.6-3.9C362.6,383.9,363.2,383.1,363.1,382.3z"/>
	<path fill="#F1F2F2" stroke="#848484" stroke-miterlimit="10" d="M363.2,393.9L363.2,393.9c-0.1-0.8-0.8-1.4-1.6-1.4l-25.8,2.2
		c-0.8,0.1-1.4,0.8-1.4,1.6v0c0.1,0.8,0.8,1.4,1.6,1.4l25.8-2.2C362.6,395.4,363.2,394.7,363.2,393.9z"/>
	<path fill="#F1F2F2" stroke="#848484" stroke-miterlimit="10" d="M363.1,402.2L363.1,402.2c-0.2-0.8-1-1.3-1.8-1.1l-25.2,6.2
		c-0.8,0.2-1.3,1-1.1,1.8l0,0c0.2,0.8,1,1.3,1.8,1.1l25.2-6.2C362.8,403.8,363.3,403,363.1,402.2z"/>
</g>
<g>
	<path fill-rule="evenodd" clip-rule="evenodd" fill="#F1F2F2" stroke="#848484" stroke-miterlimit="10" d="M409.4,586.5h134.2
		c0.8,0,1.5-0.7,1.5-1.5v-44.4c0-0.8-0.7-1.5-1.5-1.5H409.4c-0.8,0-1.5,0.7-1.5,1.5v44.4C407.9,585.9,408.6,586.5,409.4,586.5z"/>
	<line fill="#F1F2F2" stroke="#848484" stroke-miterlimit="10" x1="540.2" y1="539.2" x2="540.2" y2="586.6"/>
	<line fill="#F1F2F2" stroke="#848484" stroke-miterlimit="10" x1="413.1" y1="539.2" x2="413.1" y2="586.5"/>
	<line fill="#F1F2F2" stroke="#848484" stroke-miterlimit="10" x1="540.2" y1="584.4" x2="413.1" y2="584.4"/>
	<line fill="#F1F2F2" stroke="#848484" stroke-miterlimit="10" x1="417.5" y1="562.5" x2="535.7" y2="562.5"/>
	<path fill="#F1F2F2" stroke="#848484" stroke-miterlimit="10" d="M531.9,577L531.9,577c0.8-0.1,1.4-0.9,1.2-1.7l-4.2-25.6
		c-0.1-0.8-0.9-1.4-1.7-1.2l0,0c-0.8,0.1-1.4,0.9-1.2,1.7l4.2,25.6C530.4,576.6,531.1,577.2,531.9,577z"/>
	<path fill="#F1F2F2" stroke="#848484" stroke-miterlimit="10" d="M520.2,577.2L520.2,577.2c0.8-0.1,1.4-0.8,1.3-1.6l-2.3-25.8
		c-0.1-0.8-0.8-1.4-1.6-1.3l0,0c-0.8,0.1-1.4,0.8-1.3,1.6l2.3,25.8C518.7,576.6,519.4,577.2,520.2,577.2z"/>
	<path fill="#F1F2F2" stroke="#848484" stroke-miterlimit="10" d="M511.5,576.6L511.5,576.6c0.8-0.2,1.3-1,1.1-1.8l-5.9-25.2
		c-0.2-0.8-1-1.3-1.8-1.1l0,0c-0.8,0.2-1.3,1-1.1,1.8l5.9,25.2C509.9,576.3,510.7,576.8,511.5,576.6z"/>
	<path fill="#F1F2F2" stroke="#848484" stroke-miterlimit="10" d="M498.4,577.1L498.4,577.1c0.8-0.1,1.4-0.9,1.2-1.7l-3.9-25.6
		c-0.1-0.8-0.9-1.4-1.7-1.2l0,0c-0.8,0.1-1.4,0.9-1.2,1.7l3.9,25.6C496.8,576.7,497.6,577.2,498.4,577.1z"/>
	<path fill="#F1F2F2" stroke="#848484" stroke-miterlimit="10" d="M486.4,577.1L486.4,577.1c0.8,0,1.5-0.7,1.4-1.5l-1.2-25.9
		c0-0.8-0.7-1.5-1.5-1.4l0,0c-0.8,0-1.5,0.7-1.4,1.5l1.2,25.9C484.9,576.5,485.6,577.1,486.4,577.1z"/>
	<path fill="#F1F2F2" stroke="#848484" stroke-miterlimit="10" d="M477.3,577L477.3,577c0.8-0.1,1.4-0.9,1.2-1.7l-3.9-25.6
		c-0.1-0.8-0.9-1.4-1.7-1.2l0,0c-0.8,0.1-1.4,0.9-1.2,1.7l3.9,25.6C475.8,576.5,476.5,577.1,477.3,577z"/>
	<path fill="#F1F2F2" stroke="#848484" stroke-miterlimit="10" d="M465,576.9L465,576.9c0.8,0,1.5-0.7,1.4-1.5l-1.2-25.9
		c0-0.8-0.7-1.5-1.5-1.4h0c-0.8,0-1.5,0.7-1.4,1.5l1.2,25.9C463.5,576.4,464.2,577,465,576.9z"/>
	<path fill="#F1F2F2" stroke="#848484" stroke-miterlimit="10" d="M456.8,576.7L456.8,576.7c0.8-0.2,1.3-1,1.1-1.8l-5.3-25.4
		c-0.2-0.8-1-1.3-1.8-1.1l0,0c-0.8,0.2-1.3,1-1.1,1.8l5.3,25.4C455.2,576.3,456,576.8,456.8,576.7z"/>
	<path fill="#F1F2F2" stroke="#848484" stroke-miterlimit="10" d="M445.5,576.8L445.5,576.8c0.8-0.1,1.4-0.9,1.2-1.7l-3.9-25.6
		c-0.1-0.8-0.9-1.4-1.7-1.2l0,0c-0.8,0.1-1.4,0.9-1.2,1.7l3.9,25.6C443.9,576.4,444.6,577,445.5,576.8z"/>
	<path fill="#F1F2F2" stroke="#848484" stroke-miterlimit="10" d="M433.9,576.9L433.9,576.9c0.8-0.1,1.4-0.8,1.4-1.6l-2.2-25.8
		c-0.1-0.8-0.8-1.4-1.6-1.4l0,0c-0.8,0.1-1.4,0.8-1.4,1.6l2.2,25.8C432.4,576.4,433.1,577,433.9,576.9z"/>
	<path fill="#F1F2F2" stroke="#848484" stroke-miterlimit="10" d="M425.6,576.9L425.6,576.9c0.8-0.2,1.3-1,1.1-1.8l-6.2-25.2
		c-0.2-0.8-1-1.3-1.8-1.1l0,0c-0.8,0.2-1.3,1-1.1,1.8l6.2,25.2C424,576.6,424.8,577.1,425.6,576.9z"/>
</g>
<g>
	<g>
		<path fill="#F1F2F2" stroke="#848484" stroke-miterlimit="10" d="M616.8,708.8l-34.2,0c-1.1,0-2,0.9-2,2l0,31c0,1.1,0.9,2,2,2
			l34.2,0c1.1,0,2-0.9,2-2l0-31C618.8,709.7,617.9,708.8,616.8,708.8z"/>
		<path fill="#F1F2F2" stroke="#848484" stroke-miterlimit="10" d="M617.4,708.8l-35.5,0c-0.8,0-1.4-0.6-1.4-1.4l0-5.6
			c0-0.8,0.6-1.4,1.4-1.4l35.5,0c0.8,0,1.4,0.6,1.4,1.4l0,5.6C618.8,708.2,618.2,708.8,617.4,708.8z"/>
	</g>
	
		<rect x="560.7" y="728.7" fill-rule="evenodd" clip-rule="evenodd" fill="#F1F2F2" stroke="#848484" stroke-miterlimit="10" width="78" height="41"/>
	
		<rect x="481.5" y="728.7" fill-rule="evenodd" clip-rule="evenodd" fill="#F1F2F2" stroke="#848484" stroke-miterlimit="10" width="79.2" height="41"/>
</g>
<g>
	<g>
		
			<rect x="421.9" y="504.9" fill-rule="evenodd" clip-rule="evenodd" fill="#F1F2F2" stroke="#848484" stroke-miterlimit="10" width="88.2" height="4.4"/>
		<polygon fill-rule="evenodd" clip-rule="evenodd" fill="#F1F2F2" stroke="#848484" stroke-miterlimit="10" points="429.4,509.4 
			443.6,512.8 488.4,512.8 502.6,509.4 		"/>
		
			<rect x="464.1" y="507.2" transform="matrix(-5.121610e-11 1 -1 -5.121610e-11 980.7524 48.7699)" fill-rule="evenodd" clip-rule="evenodd" fill="#F1F2F2" stroke="#848484" stroke-miterlimit="10" width="3.9" height="15"/>
	</g>
</g>
<g>
	
		<rect x="92.1" y="30.4" fill-rule="evenodd" clip-rule="evenodd" fill="#F1F2F2" stroke="#848484" stroke-miterlimit="10" width="2.9" height="41.1"/>
	
		<rect x="92.1" y="30.4" fill-rule="evenodd" clip-rule="evenodd" fill="#F1F2F2" stroke="#848484" stroke-miterlimit="10" width="2.9" height="41.1"/>
	
		<rect x="138.1" y="30" fill-rule="evenodd" clip-rule="evenodd" fill="#F1F2F2" stroke="#848484" stroke-miterlimit="10" width="4" height="13.5"/>
	
		<rect x="138.1" y="30" fill-rule="evenodd" clip-rule="evenodd" fill="#F1F2F2" stroke="#848484" stroke-miterlimit="10" width="4" height="13.5"/>
	
		<rect x="94.7" y="28.2" fill-rule="evenodd" clip-rule="evenodd" fill="#F1F2F2" stroke="#848484" stroke-miterlimit="10" width="45" height="45.1"/>
	
		<rect x="94.7" y="28.2" fill-rule="evenodd" clip-rule="evenodd" fill="#F1F2F2" stroke="#848484" stroke-miterlimit="10" width="45" height="45.1"/>
	<path fill-rule="evenodd" clip-rule="evenodd" fill="#F1F2F2" stroke="#848484" stroke-miterlimit="10" d="M135.7,73.4l0-45.1
		L135.7,73.4z"/>
	<path fill-rule="evenodd" clip-rule="evenodd" fill="#F1F2F2" stroke="#848484" stroke-miterlimit="10" d="M135.5,75.5
		c-0.9,0-1.8-0.8-1.8-1.8c0-1.1,0.9-1.8,1.8-1.8c1.1,0,2,0.8,2,1.8C137.5,74.7,136.6,75.5,135.5,75.5z"/>
	<path fill-rule="evenodd" clip-rule="evenodd" fill="#F1F2F2" stroke="#848484" stroke-miterlimit="10" d="M135.5,75.5
		c-0.9,0-1.8-0.8-1.8-1.8c0-1.1,0.9-1.8,1.8-1.8c1.1,0,2,0.8,2,1.8C137.5,74.7,136.6,75.5,135.5,75.5z"/>
	<path fill-rule="evenodd" clip-rule="evenodd" fill="#F1F2F2" stroke="#848484" stroke-miterlimit="10" d="M112.5,50.5l7.9,0
		L112.5,50.5z"/>
	<path fill-rule="evenodd" clip-rule="evenodd" fill="#F1F2F2" stroke="#848484" stroke-miterlimit="10" d="M116.3,54.4l0-7.9
		L116.3,54.4z"/>
	<path fill-rule="evenodd" clip-rule="evenodd" fill="#F1F2F2" stroke="#848484" stroke-miterlimit="10" d="M119.3,53.3l-5.8-5.8
		L119.3,53.3z"/>
	<path fill-rule="evenodd" clip-rule="evenodd" fill="#F1F2F2" stroke="#848484" stroke-miterlimit="10" d="M119.3,47.6l-5.8,5.8
		L119.3,47.6z"/>
	<path fill-rule="evenodd" clip-rule="evenodd" fill="#F1F2F2" stroke="#848484" stroke-miterlimit="10" d="M112.2,62.2l7.9,0
		L112.2,62.2z"/>
	<path fill-rule="evenodd" clip-rule="evenodd" fill="#F1F2F2" stroke="#848484" stroke-miterlimit="10" d="M116.1,66.2l0-7.9
		L116.1,66.2z"/>
	<path fill-rule="evenodd" clip-rule="evenodd" fill="#F1F2F2" stroke="#848484" stroke-miterlimit="10" d="M119.1,65l-5.8-5.8
		L119.1,65z"/>
	<path fill-rule="evenodd" clip-rule="evenodd" fill="#F1F2F2" stroke="#848484" stroke-miterlimit="10" d="M119.1,59.3l-5.8,5.8
		L119.1,59.3z"/>
	<path fill-rule="evenodd" clip-rule="evenodd" fill="#F1F2F2" stroke="#848484" stroke-miterlimit="10" d="M112.5,39.1l7.9,0
		L112.5,39.1z"/>
	<path fill-rule="evenodd" clip-rule="evenodd" fill="#F1F2F2" stroke="#848484" stroke-miterlimit="10" d="M116.3,43l0-7.9
		L116.3,43z"/>
	<path fill-rule="evenodd" clip-rule="evenodd" fill="#F1F2F2" stroke="#848484" stroke-miterlimit="10" d="M119.3,41.9l-5.8-5.8
		L119.3,41.9z"/>
	<path fill-rule="evenodd" clip-rule="evenodd" fill="#F1F2F2" stroke="#848484" stroke-miterlimit="10" d="M119.3,36.2l-5.8,5.8
		L119.3,36.2z"/>
</g>
<g>
	<path fill-rule="evenodd" clip-rule="evenodd" fill="#F1F2F2" stroke="#848484" stroke-miterlimit="10" d="M476.8,270.8h-22.3
		v-18.5h22.3V270.8L476.8,270.8z M371.2,270.8V243h83.2v27.7H371.2z"/>
	<path fill-rule="evenodd" clip-rule="evenodd" fill="#F1F2F2" stroke="#848484" stroke-miterlimit="10" d="M404.5,260.9
		c0,4.8,4.3,5.3,9.8,5.3c5.3,0,9.7-0.5,9.7-5.3c0-4.8-4.3-8.8-9.7-8.8C408.9,252.1,404.5,256,404.5,260.9z"/>
	
		<rect x="381.7" y="256.3" fill-rule="evenodd" clip-rule="evenodd" fill="#F1F2F2" stroke="#848484" stroke-miterlimit="10" width="65.4" height="3.7"/>
	
		<rect x="381.7" y="256.3" fill-rule="evenodd" clip-rule="evenodd" fill="#F1F2F2" stroke="#848484" stroke-miterlimit="10" width="65.4" height="3.7"/>
	<polygon fill-rule="evenodd" clip-rule="evenodd" fill="#F1F2F2" stroke="#848484" stroke-miterlimit="10" points="387.2,259.8 
		397.7,262.8 430.9,262.8 441.4,259.8 	"/>
	<polygon fill-rule="evenodd" clip-rule="evenodd" fill="#F1F2F2" stroke="#848484" stroke-miterlimit="10" points="387.2,259.8 
		397.7,262.8 430.9,262.8 441.4,259.8 	"/>
	<path fill-rule="evenodd" clip-rule="evenodd" fill="#F1F2F2" stroke="#848484" stroke-miterlimit="10" d="M474.8,250.2h-18.4v-1.8
		h18.4V250.2L474.8,250.2z M371.2,270.8h-22.3v-18.6h22.3V270.8L371.2,270.8z M350.8,250.2v-1.8h18.4v1.8H350.8z"/>
</g>
<g>
	<path fill-rule="evenodd" clip-rule="evenodd" fill="#F1F2F2" stroke="#848484" stroke-miterlimit="10" d="M517.5,119.1v-48V32.4
		c0-2.6-2.1-4.7-4.7-4.7h-38.7H357.1c-2.6,0-4.7,2.1-4.7,4.7v38.7c0,2.6,2.1,4.7,4.7,4.7h107.7c2.6,0,4.7,2.1,4.7,4.7v38.7
		c0,2.6,2.1,4.7,4.7,4.7h38.7C515.4,123.8,517.5,121.7,517.5,119.1z"/>
	<g>
		<path fill-rule="evenodd" clip-rule="evenodd" fill="#F1F2F2" stroke="#848484" stroke-miterlimit="10" d="M469.5,68
			c0,5.5,0.3,7.8,7.2,7.8h20.6c6.9,0,7.2-2.3,7.2-7.8V47.5c0-5.5-0.3-7.8-7.2-7.8h-20.6c-6.9,0-7.2,2.3-7.2,7.8V68z"/>
		<path fill-rule="evenodd" clip-rule="evenodd" fill="#F1F2F2" stroke="#848484" stroke-miterlimit="10" d="M469.5,68
			c0,5.5,0.3,7.8,7.2,7.8h20.6c6.9,0,7.2-2.3,7.2-7.8V47.5c0-5.5-0.3-7.8-7.2-7.8h-20.6c-6.9,0-7.2,2.3-7.2,7.8V68z"/>
		<path fill-rule="evenodd" clip-rule="evenodd" fill="#F1F2F2" stroke="#848484" stroke-miterlimit="10" d="M434.7,68
			c0,5.5,0.3,7.8,7.2,7.8h20.6c6.9,0,7.2-2.3,7.2-7.8V47.5c0-5.5-0.3-7.8-7.2-7.8h-20.6c-6.9,0-7.2,2.3-7.2,7.8V68z"/>
		<path fill-rule="evenodd" clip-rule="evenodd" fill="#F1F2F2" stroke="#848484" stroke-miterlimit="10" d="M434.7,68
			c0,5.5,0.3,7.8,7.2,7.8h20.6c6.9,0,7.2-2.3,7.2-7.8V47.5c0-5.5-0.3-7.8-7.2-7.8h-20.6c-6.9,0-7.2,2.3-7.2,7.8V68z"/>
		<path fill-rule="evenodd" clip-rule="evenodd" fill="#F1F2F2" stroke="#848484" stroke-miterlimit="10" d="M400,68
			c0,5.5,0.3,7.8,7.2,7.8h20.7c6.9,0,7.2-2.3,7.2-7.8V47.5c0-5.5-0.3-7.8-7.2-7.8h-20.7c-6.9,0-7.2,2.3-7.2,7.8V68z"/>
		<path fill-rule="evenodd" clip-rule="evenodd" fill="#F1F2F2" stroke="#848484" stroke-miterlimit="10" d="M400,68
			c0,5.5,0.3,7.8,7.2,7.8h20.7c6.9,0,7.2-2.3,7.2-7.8V47.5c0-5.5-0.3-7.8-7.2-7.8h-20.7c-6.9,0-7.2,2.3-7.2,7.8V68z"/>
		<path fill-rule="evenodd" clip-rule="evenodd" fill="#F1F2F2" stroke="#848484" stroke-miterlimit="10" d="M469.5,104
			c0,5.5,0.3,7.8,7.2,7.8h20.6c6.9,0,7.2-2.3,7.2-7.8V83.5c0-5.5-0.3-7.8-7.2-7.8h-20.6c-6.9,0-7.2,2.3-7.2,7.8V104z"/>
		<path fill-rule="evenodd" clip-rule="evenodd" fill="#F1F2F2" stroke="#848484" stroke-miterlimit="10" d="M365.3,67.9
			c0,5.5,0.3,7.8,7.2,7.8h20.7c6.9,0,7.2-2.3,7.2-7.8V47.4c0-5.5-0.3-7.8-7.2-7.8h-20.7c-6.9,0-7.2,2.3-7.2,7.8V67.9z"/>
		<path fill-rule="evenodd" clip-rule="evenodd" fill="#F1F2F2" stroke="#848484" stroke-miterlimit="10" d="M517.5,32.7v84v2.1
			c0,2.7-2.4,5-5.3,5H510h-35.2c-2.9,0-5.3-2.2-5.3-5v-2.1c0-2.7,2.4-5,5.3-5h29.8v-72H365.3v31c0,2.7-2.4,5-5.3,5h-2.2
			c-2.9,0-5.3-2.2-5.3-5v-36v-2.1c0-2.7,2.4-5,5.3-5h2.2H510h2.2h0C515.1,27.8,517.5,30,517.5,32.7z"/>
	</g>
</g>
<g>
	<g>
		<path fill="#F1F2F2" stroke="#848484" stroke-miterlimit="10" d="M257.6,112c7.9,0,14.3-2.4,14.3-5.3c0-2.9-6.4-5.3-14.3-5.3
			c-7.9,0-14.3,2.4-14.3,5.3C243.3,109.7,249.7,112,257.6,112z"/>
		<path fill="#F1F2F2" stroke="#848484" stroke-miterlimit="10" d="M257.6,135.9c7.9,0,14.3-6.4,14.3-14.3s-6.4-14.3-14.3-14.3
			c-7.9,0-14.3,6.4-14.3,14.3S249.7,135.9,257.6,135.9z"/>
	</g>
	<g>
		<path fill="#F1F2F2" stroke="#848484" stroke-miterlimit="10" d="M257.6,184c-7.9,0-14.3,2.4-14.3,5.3c0,2.9,6.4,5.3,14.3,5.3
			c7.9,0,14.3-2.4,14.3-5.3C271.9,186.3,265.5,184,257.6,184z"/>
		<path fill="#F1F2F2" stroke="#848484" stroke-miterlimit="10" d="M257.6,160.1c-7.9,0-14.3,6.4-14.3,14.3
			c0,7.9,6.4,14.3,14.3,14.3c7.9,0,14.3-6.4,14.3-14.3C271.9,166.5,265.5,160.1,257.6,160.1z"/>
	</g>
	<g>
		<path fill="#F1F2F2" stroke="#848484" stroke-miterlimit="10" d="M223.9,147.4c0-7.9-2.4-14.3-5.3-14.3c-2.9,0-5.3,6.4-5.3,14.3
			c0,7.9,2.4,14.3,5.3,14.3C221.5,161.7,223.9,155.3,223.9,147.4z"/>
		<path fill="#F1F2F2" stroke="#848484" stroke-miterlimit="10" d="M247.7,147.4c0-7.9-6.4-14.3-14.3-14.3s-14.3,6.4-14.3,14.3
			c0,7.9,6.4,14.3,14.3,14.3S247.7,155.3,247.7,147.4z"/>
	</g>
	<g>
		<path fill="#F1F2F2" stroke="#848484" stroke-miterlimit="10" d="M291.4,147.4c0,7.9,2.4,14.3,5.3,14.3c2.9,0,5.3-6.4,5.3-14.3
			c0-7.9-2.4-14.3-5.3-14.3C293.7,133.1,291.4,139.5,291.4,147.4z"/>
		<path fill="#F1F2F2" stroke="#848484" stroke-miterlimit="10" d="M267.5,147.4c0,7.9,6.4,14.3,14.3,14.3s14.3-6.4,14.3-14.3
			c0-7.9-6.4-14.3-14.3-14.3S267.5,139.5,267.5,147.4z"/>
	</g>
	
		<rect x="228.9" y="118.7" transform="matrix(6.123234e-17 -1 1 6.123234e-17 110.1972 405.0262)" fill="#F1F2F2" stroke="#848484" stroke-miterlimit="10" width="57.5" height="57.5"/>
</g>
<g>
</g>
<g>
</g>
<g>
</g>
<g>
</g>
<g>
</g>
<g>
</g>
</svg>
