<?xml version="1.0" encoding="utf-8"?>
<!-- Generator: Adobe Illustrator 23.0.2, SVG Export Plug-In . SVG Version: 6.00 Build 0)  -->
<svg version="1.1" id="plan" xmlns="http://www.w3.org/2000/svg" xmlns:xlink="http://www.w3.org/1999/xlink" x="0px" y="0px"
	 viewBox="0 0 550 350" enable-background="new 0 0 550 350" xml:space="preserve">
<g id="back">
	<rect x="8" y="27.594" fill-rule="evenodd" clip-rule="evenodd" fill="#FFFFFF" width="536.567" height="314.529"/>
</g>
<g id="walls">
	
		<rect x="14.628" y="38.139" fill="#828282" stroke="#000000" stroke-linecap="round" stroke-linejoin="round" stroke-miterlimit="10" width="10.545" height="75.62"/>
	<polygon fill="#828282" stroke="#000000" stroke-linecap="round" stroke-linejoin="round" stroke-miterlimit="10" points="
		80.908,313.201 80.908,335.495 107.42,335.495 107.42,313.201 83.921,313.201 	"/>
	
		<rect x="453.281" y="27.594" fill="#828282" stroke="#000000" stroke-linecap="round" stroke-linejoin="round" stroke-miterlimit="10" width="91.286" height="10.545"/>
	
		<rect x="14.628" y="27.594" fill="#828282" stroke="#000000" stroke-linecap="round" stroke-linejoin="round" stroke-miterlimit="10" width="394.366" height="10.545"/>
	
		<line fill="none" stroke="#000000" stroke-linecap="round" stroke-linejoin="round" stroke-miterlimit="10" x1="508.716" y1="324.951" x2="508.716" y2="332.482"/>
	
		<line fill="none" stroke="#000000" stroke-linecap="round" stroke-linejoin="round" stroke-miterlimit="10" x1="14.628" y1="335.495" x2="23.365" y2="335.495"/>
	<polyline fill="#828282" stroke="#000000" stroke-linecap="round" stroke-linejoin="round" stroke-miterlimit="10" points="
		74.28,326.457 74.28,311.092 80.908,311.092 80.908,326.457 	"/>
	<polygon fill="#828282" stroke="#000000" stroke-linecap="round" stroke-linejoin="round" stroke-miterlimit="10" points="
		170.547,324.649 170.547,334.692 170.547,335.495 107.42,335.495 107.42,324.649 168.576,324.649 	"/>
	
		<rect x="8" y="173.41" fill="#828282" stroke="#000000" stroke-linecap="round" stroke-linejoin="round" stroke-miterlimit="10" width="6.628" height="18.378"/>
	
		<line fill="#828282" stroke="#000000" stroke-linecap="round" stroke-linejoin="round" stroke-miterlimit="10" x1="14.628" y1="192.993" x2="14.628" y2="186.365"/>
	<polygon fill="#828282" stroke="#000000" stroke-linecap="round" stroke-linejoin="round" stroke-miterlimit="10" points="
		14.628,27.594 14.628,33.761 14.628,43.571 14.628,116.168 8,116.168 8,27.594 	"/>
	
		<line fill="none" stroke="#000000" stroke-linecap="round" stroke-linejoin="round" stroke-miterlimit="10" x1="388.508" y1="335.495" x2="361.996" y2="335.495"/>
	
		<line fill="#828282" stroke="#000000" stroke-linecap="round" stroke-linejoin="round" stroke-miterlimit="10" x1="107.42" y1="335.495" x2="80.908" y2="335.495"/>
	<polygon fill="#828282" stroke="#000000" stroke-linecap="round" stroke-linejoin="round" stroke-miterlimit="10" points="
		14.628,335.495 14.628,326.457 8,326.457 8,342.123 172.656,342.123 172.656,335.495 	"/>
	
		<line fill="#828282" stroke="#000000" stroke-linecap="round" stroke-linejoin="round" stroke-miterlimit="10" x1="80.908" y1="335.495" x2="23.365" y2="335.495"/>
	<polygon fill="#828282" stroke="#000000" stroke-linecap="round" stroke-linejoin="round" stroke-miterlimit="10" points="
		535.192,38.139 535.192,313.201 544.567,313.201 544.567,165.276 544.567,38.139 	"/>
	
		<line fill="none" stroke="#000000" stroke-linecap="round" stroke-linejoin="round" stroke-miterlimit="10" x1="14.628" y1="113.758" x2="17.641" y2="113.758"/>
	
		<line fill="none" stroke="#000000" stroke-linecap="round" stroke-linejoin="round" stroke-miterlimit="10" x1="170.547" y1="335.495" x2="170.547" y2="332.181"/>
	
		<rect x="361.996" y="313.201" fill="#828282" stroke="#000000" stroke-linecap="round" stroke-linejoin="round" stroke-miterlimit="10" width="26.512" height="22.294"/>
	
		<rect x="533.721" y="313.201" fill="#828282" stroke="#000000" stroke-linecap="round" stroke-linejoin="round" stroke-miterlimit="10" width="10.846" height="22.294"/>
	
		<rect x="14.628" y="175.82" fill="#828282" stroke="#000000" stroke-linecap="round" stroke-linejoin="round" stroke-miterlimit="10" width="76.825" height="10.545"/>
	<g>
		
			<line fill="none" stroke="#000000" stroke-width="1.5" stroke-linecap="round" stroke-linejoin="round" stroke-miterlimit="10" x1="322.228" y1="125.809" x2="291.799" y2="143.584"/>
		
			<line fill="none" stroke="#000000" stroke-width="1.5" stroke-linecap="round" stroke-linejoin="round" stroke-miterlimit="10" x1="453.281" y1="132.457" x2="435.506" y2="163.187"/>
		
			<line fill="none" stroke="#000000" stroke-width="1.5" stroke-linecap="round" stroke-linejoin="round" stroke-miterlimit="10" x1="453.281" y1="27.594" x2="415.02" y2="5.601"/>
		
			<path fill="none" stroke="#000000" stroke-width="1.5" stroke-linecap="round" stroke-linejoin="round" stroke-miterlimit="10" d="
			M283.363,180.038l-34.345,20.185 M233.051,167.686l-19.884-34.345"/>
		
			<line fill="none" stroke="#000000" stroke-width="1.5" stroke-linecap="round" stroke-linejoin="round" stroke-miterlimit="10" x1="83.921" y1="308.983" x2="101.696" y2="278.253"/>
	</g>
	
		<line fill="none" stroke="#000000" stroke-linecap="round" stroke-linejoin="round" stroke-miterlimit="10" x1="80.908" y1="308.983" x2="83.921" y2="308.983"/>
	
		<line fill="none" stroke="#000000" stroke-linecap="round" stroke-linejoin="round" stroke-miterlimit="10" x1="80.908" y1="251.44" x2="83.921" y2="251.44"/>
	
		<rect x="462.32" y="335.495" fill="#828282" stroke="#000000" stroke-linecap="round" stroke-linejoin="round" stroke-miterlimit="10" width="82.247" height="6.628"/>
	<polygon fill="#828282" stroke="#000000" stroke-linecap="round" stroke-linejoin="round" stroke-miterlimit="10" points="
		307.469,335.495 307.469,342.123 278.523,342.123 278.945,342.123 232.61,342.123 232.61,335.495 282.404,335.495 	"/>
	<polygon fill="#828282" stroke="#000000" stroke-linecap="round" stroke-linejoin="round" stroke-miterlimit="10" points="
		402.613,335.495 402.613,342.123 388.388,342.123 388.595,342.123 349.607,342.123 349.607,335.495 390.295,335.495 	"/>
	<polyline fill="#828282" stroke="#000000" stroke-linecap="round" stroke-linejoin="round" stroke-miterlimit="10" points="
		464.73,335.093 464.73,325.051 464.73,324.649 533.721,324.649 533.721,335.495 464.73,335.495 	"/>
	<polygon fill="#828282" stroke="#000000" stroke-linecap="round" stroke-linejoin="round" stroke-miterlimit="10" points="
		305.32,335.495 305.32,324.649 296.751,324.649 299.088,324.649 234.719,324.649 234.719,335.495 	"/>
	
		<rect x="388.508" y="324.649" fill="#828282" stroke="#000000" stroke-linecap="round" stroke-linejoin="round" stroke-miterlimit="10" width="11.996" height="10.846"/>
	
		<rect x="351.462" y="325.227" fill="#828282" stroke="#000000" stroke-linecap="round" stroke-linejoin="round" stroke-miterlimit="10" width="10.534" height="10.269"/>
	<polygon fill="#828282" stroke="#000000" stroke-linecap="round" stroke-linejoin="round" stroke-miterlimit="10" points="
		14.628,335.495 14.628,326.457 23.365,326.457 80.908,326.457 80.908,335.495 	"/>
	<polygon fill="#828282" stroke="#000000" stroke-linecap="round" stroke-linejoin="round" stroke-miterlimit="10" points="
		14.628,186.365 14.628,192.993 74.28,192.993 74.28,253.549 80.908,253.549 80.908,186.365 	"/>
	
		<rect x="80.908" y="186.365" fill="#828282" stroke="#000000" stroke-linecap="round" stroke-linejoin="round" stroke-miterlimit="10" width="10.545" height="65.075"/>
	<g>
	</g>
	<g>
		<g>
			
				<line fill="none" stroke="#000000" stroke-width="0.5" stroke-linecap="round" stroke-linejoin="round" stroke-miterlimit="10" x1="23.365" y1="192.993" x2="23.365" y2="326.457"/>
			
				<line fill="none" stroke="#000000" stroke-width="0.5" stroke-linecap="round" stroke-linejoin="round" stroke-miterlimit="10" x1="8" y1="326.457" x2="8" y2="191.788"/>
			
				<rect x="16.134" y="195.289" fill="none" stroke="#000000" stroke-width="0.5" stroke-linecap="round" stroke-linejoin="round" stroke-miterlimit="10" width="1.205" height="129.059"/>
			
				<path fill="none" stroke="#000000" stroke-width="0.5" stroke-linecap="round" stroke-linejoin="round" stroke-miterlimit="10" d="
				M18.846,324.348V193.897 M14.628,324.348V193.897"/>
			
				<rect x="14.628" y="324.348" fill="none" stroke="#000000" stroke-width="0.5" stroke-linecap="round" stroke-linejoin="round" stroke-miterlimit="10" width="4.218" height="2.109"/>
			
				<rect x="14.628" y="193.18" fill="none" stroke="#000000" stroke-width="0.5" stroke-linecap="round" stroke-linejoin="round" stroke-miterlimit="10" width="4.218" height="2.109"/>
		</g>
		<g>
			
				<line fill="none" stroke="#000000" stroke-width="0.5" stroke-linecap="round" stroke-linejoin="round" stroke-miterlimit="10" x1="25.173" y1="113.758" x2="25.173" y2="175.82"/>
			
				<line fill="none" stroke="#000000" stroke-width="0.5" stroke-linecap="round" stroke-linejoin="round" stroke-miterlimit="10" x1="8" y1="173.41" x2="8" y2="116.168"/>
			
				<line fill="none" stroke="#000000" stroke-width="0.5" stroke-linecap="round" stroke-linejoin="round" stroke-miterlimit="10" x1="17.641" y1="113.758" x2="17.641" y2="175.821"/>
			
				<line fill="none" stroke="#000000" stroke-width="0.5" stroke-linecap="round" stroke-linejoin="round" stroke-miterlimit="10" x1="14.628" y1="173.41" x2="17.641" y2="173.41"/>
			
				<line fill="none" stroke="#000000" stroke-width="0.5" stroke-linecap="round" stroke-linejoin="round" stroke-miterlimit="10" x1="14.628" y1="116.169" x2="17.641" y2="116.169"/>
			
				<line fill="none" stroke="#000000" stroke-width="0.5" stroke-linecap="round" stroke-linejoin="round" stroke-miterlimit="10" x1="14.628" y1="118.277" x2="17.641" y2="118.277"/>
			
				<line fill="none" stroke="#000000" stroke-width="0.5" stroke-linecap="round" stroke-linejoin="round" stroke-miterlimit="10" x1="14.628" y1="143.283" x2="17.641" y2="143.283"/>
			
				<line fill="none" stroke="#000000" stroke-width="0.5" stroke-linecap="round" stroke-linejoin="round" stroke-miterlimit="10" x1="14.628" y1="144.789" x2="17.641" y2="144.789"/>
			
				<line fill="none" stroke="#000000" stroke-width="0.5" stroke-linecap="round" stroke-linejoin="round" stroke-miterlimit="10" x1="14.628" y1="146.296" x2="17.641" y2="146.296"/>
			
				<line fill="none" stroke="#000000" stroke-width="0.5" stroke-linecap="round" stroke-linejoin="round" stroke-miterlimit="10" x1="14.628" y1="171.301" x2="17.641" y2="171.301"/>
			
				<polyline fill="none" stroke="#000000" stroke-width="0.5" stroke-linecap="round" stroke-linejoin="round" stroke-miterlimit="10" points="
				14.628,113.758 14.628,175.82 17.641,175.82 			"/>
		</g>
		<g>
			
				<line fill="none" stroke="#000000" stroke-width="0.5" stroke-linecap="round" stroke-linejoin="round" stroke-miterlimit="10" x1="170.547" y1="324.649" x2="234.719" y2="324.649"/>
			
				<line fill="none" stroke="#000000" stroke-width="0.5" stroke-linecap="round" stroke-linejoin="round" stroke-miterlimit="10" x1="233.556" y1="342.123" x2="172.656" y2="342.123"/>
			
				<path fill="none" stroke="#000000" stroke-width="0.5" stroke-linecap="round" stroke-linejoin="round" stroke-miterlimit="10" d="
				M170.547,332.181h64.171 M232.61,335.495v-3.314 M172.656,335.495v-3.314 M175.067,335.495v-3.314 M200.976,335.495v-3.314
				 M202.482,335.495v-3.314 M204.29,335.495v-3.314 M230.199,335.495v-3.314"/>
			
				<polyline fill="none" stroke="#000000" stroke-width="0.5" stroke-linecap="round" stroke-linejoin="round" stroke-miterlimit="10" points="
				170.547,335.495 234.719,335.495 234.719,332.181 			"/>
		</g>
		<g>
			
				<line fill="none" stroke="#000000" stroke-width="0.5" stroke-linecap="round" stroke-linejoin="round" stroke-miterlimit="10" x1="400.504" y1="324.746" x2="464.675" y2="324.746"/>
			
				<line fill="none" stroke="#000000" stroke-width="0.5" stroke-linecap="round" stroke-linejoin="round" stroke-miterlimit="10" x1="463.513" y1="342.219" x2="399.613" y2="342.219"/>
			
				<path fill="none" stroke="#000000" stroke-width="0.5" stroke-linecap="round" stroke-linejoin="round" stroke-miterlimit="10" d="
				M400.504,332.277h64.171 M462.566,335.591v-3.314 M402.613,335.591v-3.314 M405.023,335.591v-3.314 M430.933,335.591v-3.314
				 M432.439,335.591v-3.314 M434.247,335.591v-3.314 M460.156,335.591v-3.314"/>
			
				<polyline fill="none" stroke="#000000" stroke-width="0.5" stroke-linecap="round" stroke-linejoin="round" stroke-miterlimit="10" points="
				400.504,335.591 464.675,335.591 464.675,332.277 			"/>
		</g>
		<g>
			
				<line fill="#828282" stroke="#000000" stroke-width="0.5" stroke-linecap="round" stroke-linejoin="round" stroke-miterlimit="10" x1="383.607" y1="342.123" x2="277.559" y2="342.123"/>
			
				<path fill="none" stroke="#000000" stroke-width="0.5" stroke-linecap="round" stroke-linejoin="round" stroke-miterlimit="10" d="
				M305.32,332.482h46.396 M349.607,335.495v-3.013 M307.73,335.495v-3.013 M309.839,335.495v-3.013 M347.498,335.495v-3.013"/>
			
				<polyline fill="none" stroke="#000000" stroke-width="0.5" stroke-linecap="round" stroke-linejoin="round" stroke-miterlimit="10" points="
				305.32,335.495 351.716,335.495 351.716,332.482 			"/>
			
				<line fill="none" stroke="#000000" stroke-width="0.5" stroke-linecap="round" stroke-linejoin="round" stroke-miterlimit="10" x1="305.32" y1="324.951" x2="351.716" y2="324.951"/>
		</g>
		<g>
			
				<polyline fill="none" stroke="#000000" stroke-width="0.5" stroke-linecap="round" stroke-linejoin="round" stroke-miterlimit="10" points="
				91.453,251.44 91.453,271.324 83.921,271.324 			"/>
			
				<polyline fill="none" stroke="#000000" stroke-width="0.5" stroke-linecap="round" stroke-linejoin="round" stroke-miterlimit="10" points="
				74.28,253.549 74.28,271.324 80.908,271.324 			"/>
			
				<line fill="none" stroke="#000000" stroke-width="0.5" stroke-linecap="round" stroke-linejoin="round" stroke-miterlimit="10" x1="83.921" y1="251.44" x2="83.921" y2="273.433"/>
			
				<line fill="none" stroke="#000000" stroke-width="0.5" stroke-linecap="round" stroke-linejoin="round" stroke-miterlimit="10" x1="80.908" y1="311.092" x2="83.921" y2="311.092"/>
			
				<line fill="none" stroke="#000000" stroke-width="0.5" stroke-linecap="round" stroke-linejoin="round" stroke-miterlimit="10" x1="80.908" y1="253.549" x2="83.921" y2="253.549"/>
			
				<line fill="none" stroke="#000000" stroke-width="0.5" stroke-linecap="round" stroke-linejoin="round" stroke-miterlimit="10" x1="80.908" y1="255.658" x2="83.921" y2="255.658"/>
			
				<line fill="none" stroke="#000000" stroke-width="0.5" stroke-linecap="round" stroke-linejoin="round" stroke-miterlimit="10" x1="80.908" y1="269.215" x2="83.921" y2="269.215"/>
			
				<line fill="none" stroke="#000000" stroke-width="0.5" stroke-linecap="round" stroke-linejoin="round" stroke-miterlimit="10" x1="80.908" y1="271.324" x2="83.921" y2="271.324"/>
			
				<line fill="none" stroke="#000000" stroke-width="0.5" stroke-linecap="round" stroke-linejoin="round" stroke-miterlimit="10" x1="80.908" y1="273.433" x2="83.921" y2="273.433"/>
			
				<polyline fill="none" stroke="#000000" stroke-width="0.5" stroke-linecap="round" stroke-linejoin="round" stroke-miterlimit="10" points="
				80.908,251.44 80.908,273.433 83.921,273.433 			"/>
			
				<rect x="80.908" y="308.983" fill="none" stroke="#000000" stroke-width="0.5" stroke-linecap="round" stroke-linejoin="round" stroke-miterlimit="10" width="3.013" height="4.218"/>
		</g>
	</g>
	<g>
		<polygon fill="#C7C7C7" stroke="#000000" stroke-linecap="round" stroke-linejoin="round" stroke-miterlimit="10" points="
			292.101,324.649 292.101,175.82 283.363,175.82 283.363,180.038 287.883,180.038 287.883,324.649 		"/>
		<polygon fill="#C7C7C7" stroke="#000000" stroke-linecap="round" stroke-linejoin="round" stroke-miterlimit="10" points="
			535.192,211.672 453.281,211.672 453.281,167.706 457.499,167.706 457.499,207.153 457.577,207.153 535.192,207.153 		"/>
		<polygon fill="#C7C7C7" stroke="#000000" stroke-linecap="round" stroke-linejoin="round" stroke-miterlimit="10" points="
			535.192,106.829 457.499,106.829 457.499,132.457 453.281,132.457 453.281,102.31 535.192,102.31 		"/>
		<polygon fill="#C7C7C7" stroke="#000000" stroke-linecap="round" stroke-linejoin="round" stroke-miterlimit="10" points="
			91.453,180.038 243.596,180.038 243.596,175.82 237.269,175.82 237.269,167.686 233.051,167.686 233.051,175.82 91.453,175.82 		
			"/>
		
			<rect x="233.051" y="38.139" fill="#C7C7C7" stroke="#000000" stroke-linecap="round" stroke-linejoin="round" stroke-miterlimit="10" width="4.218" height="89.779"/>
		
			<rect x="513.529" y="189.314" fill="#C7C7C7" stroke="#000000" stroke-linecap="round" stroke-linejoin="round" stroke-miterlimit="10" width="21.663" height="3.615"/>
		
			<rect x="513.529" y="192.93" fill="#C7C7C7" stroke="#000000" stroke-linecap="round" stroke-linejoin="round" stroke-miterlimit="10" width="3.615" height="14.213"/>
		
			<rect x="261.573" y="41.754" fill="#C7C7C7" stroke="#000000" stroke-linecap="round" stroke-linejoin="round" stroke-miterlimit="10" width="2.109" height="51.775"/>
		
			<rect x="242.692" y="91.42" fill="#C7C7C7" stroke="#000000" stroke-linecap="round" stroke-linejoin="round" stroke-miterlimit="10" width="18.881" height="2.109"/>
		
			<rect x="361.996" y="175.82" fill="#C7C7C7" stroke="#000000" stroke-linecap="round" stroke-linejoin="round" stroke-miterlimit="10" width="26.512" height="21.993"/>
		<polygon fill="#C7C7C7" stroke="#000000" stroke-linecap="round" stroke-linejoin="round" stroke-miterlimit="10" points="
			322.228,121.29 322.228,125.809 379.771,125.809 379.771,38.139 237.269,38.139 237.269,125.809 286.979,125.809 286.979,121.29 
			242.692,121.29 242.692,41.754 375.252,41.754 375.252,121.29 		"/>
		
			<rect x="525.797" y="106.829" fill="#C7C7C7" stroke="#000000" stroke-linecap="round" stroke-linejoin="round" stroke-miterlimit="10" width="9.395" height="9.908"/>
	</g>
</g>
<g id="furniture">
	<path fill="#F3F3F3" stroke="#595959" stroke-width="0.5" stroke-miterlimit="10" d="M506.899,238.25
		c0,4.895,0.004,55.405,0.004,55.405l27.198,0c0,0,0-80.866,0-80.866h-21.128v-0.012h-59.517v25.473H506.899z"/>
	<g>
		<path fill-rule="evenodd" clip-rule="evenodd" fill="#F3F3F3" stroke="#595959" stroke-width="0.5" stroke-miterlimit="10" d="
			M360.85,60.49c0,1.039-1.06,1.842-2.287,1.889c-1.172,0-2.176-0.85-2.176-1.889c0-1.039,1.004-1.795,2.176-1.795
			C359.846,58.695,360.85,59.451,360.85,60.49z"/>
		<path fill-rule="evenodd" clip-rule="evenodd" fill="#F3F3F3" stroke="#595959" stroke-width="0.5" stroke-miterlimit="10" d="
			M360.85,60.49c0,1.039-1.06,1.842-2.287,1.889c-1.172,0-2.176-0.85-2.176-1.889c0-1.039,1.004-1.795,2.176-1.795
			C359.846,58.695,360.85,59.451,360.85,60.49z"/>
		
			<polygon fill-rule="evenodd" clip-rule="evenodd" fill="#F3F3F3" stroke="#595959" stroke-width="0.5" stroke-miterlimit="10" points="
			374.61,43.218 342.627,43.218 342.627,120.73 374.61,120.73 374.61,43.218 		"/>
		<path fill-rule="evenodd" clip-rule="evenodd" fill="#F3F3F3" stroke="#595959" stroke-width="0.5" stroke-miterlimit="10" d="
			M345.282,54.32l26.672,0c0,0,0,53.332,0,53.606c0,7.546-4.697,8.811-10.438,8.811l-5.796,0c-5.741,0-10.439-1.264-10.439-8.811
			C345.282,107.651,345.282,54.32,345.282,54.32L345.282,54.32z"/>
		<path fill-rule="evenodd" clip-rule="evenodd" fill="#F3F3F3" stroke="#595959" stroke-width="0.5" stroke-miterlimit="10" d="
			M348.971,50.474c0,0.826,0.769,1.514,1.718,1.514c0.814,0,1.537-0.459,1.718-1.147h2.396c0.272,0,0.452-0.183,0.452-0.459
			c0-0.321-0.181-0.504-0.452-0.504h-2.487c-0.271-0.551-0.904-0.964-1.628-0.964C349.74,48.96,348.971,49.648,348.971,50.474
			L348.971,50.474z"/>
		
			<polyline fill-rule="evenodd" clip-rule="evenodd" fill="#F3F3F3" stroke="#595959" stroke-width="0.5" stroke-miterlimit="10" points="
			355.031,50.382 365.973,50.337 365.973,53.089 358.965,53.089 		"/>
		<path fill-rule="evenodd" clip-rule="evenodd" fill="#F3F3F3" stroke="#595959" stroke-width="0.5" stroke-miterlimit="10" d="
			M357.636,52.396v5.548v0.047h1.529v-0.047v-5.548c0-0.373-0.345-0.699-0.74-0.699C357.981,51.697,357.636,52.023,357.636,52.396z"
			/>
		<path fill-rule="evenodd" clip-rule="evenodd" fill="#F3F3F3" stroke="#595959" stroke-width="0.5" stroke-miterlimit="10" d="
			M357.636,52.396v5.548v0.047h1.529v-0.047v-5.548c0-0.373-0.345-0.699-0.74-0.699C357.981,51.697,357.636,52.023,357.636,52.396z"
			/>
	</g>
	<g>
		<path fill-rule="evenodd" clip-rule="evenodd" fill="#F3F3F3" stroke="#595959" stroke-width="0.5" stroke-miterlimit="10" d="
			M295.595,51.305c0.702,1.99,1.172,4.332,1.172,6.849c0,8.078-4.217,14.576-9.9,14.576c-5.623,0-9.899-6.498-9.899-14.576
			c0-2.459,0.469-4.8,1.23-6.849H295.595z"/>
		<path fill-rule="evenodd" clip-rule="evenodd" fill="#F3F3F3" stroke="#595959" stroke-width="0.5" stroke-miterlimit="10" d="
			M295.837,42.359v5.111c0,1.188-0.938,2.139-2.053,2.139h-13.369c-1.114,0.059-2.053-0.892-2.053-2.139v-5.111H295.837z"/>
		<path fill-rule="evenodd" clip-rule="evenodd" fill="#F3F3F3" stroke="#595959" stroke-width="0.5" stroke-miterlimit="10" d="
			M289.156,45.983c0-1.091-0.909-1.94-2-1.94s-1.94,0.909-1.94,1.94c0,1.151,0.91,2,1.94,2
			C288.308,47.983,289.156,47.134,289.156,45.983z"/>
		<path fill-rule="evenodd" clip-rule="evenodd" fill="#F3F3F3" stroke="#595959" stroke-width="0.5" stroke-miterlimit="10" d="
			M278.246,50.409v0.896h17.349c0.067,0.191,0.121,0.399,0.184,0.597v-1.493c0-0.483-0.41-0.846-0.762-0.846h-15.95
			C278.598,49.563,278.246,49.925,278.246,50.409z"/>
	</g>
	<g>
		
			<rect x="243.809" y="95.462" fill-rule="evenodd" clip-rule="evenodd" fill="#F3F3F3" stroke="#595959" stroke-width="0.5" stroke-miterlimit="10" width="24.873" height="24.92"/>
		<path fill-rule="evenodd" clip-rule="evenodd" fill="#F3F3F3" stroke="#595959" stroke-width="0.5" stroke-miterlimit="10" d="
			M247.185,117.787c0.843,0,1.536-0.693,1.536-1.535c0-0.891-0.693-1.584-1.536-1.584c-0.842,0-1.536,0.693-1.536,1.584
			C245.649,117.094,246.343,117.787,247.185,117.787z"/>
		<path fill-rule="evenodd" clip-rule="evenodd" fill="#F3F3F3" stroke="#595959" stroke-width="0.5" stroke-miterlimit="10" d="
			M247.213,117.787c0.827,0,1.508-0.666,1.508-1.473c0-0.855-0.681-1.521-1.508-1.521c-0.827,0-1.508,0.666-1.508,1.521
			C245.704,117.121,246.386,117.787,247.213,117.787L247.213,117.787z M243.856,97.538h2.53c0.584,0,1.022,0.523,1.022,1.093v7.035
			c0,0.57-0.438,1.093-1.022,1.093h-2.53V97.538z"/>
		<path fill-rule="evenodd" clip-rule="evenodd" fill="#F3F3F3" stroke="#595959" stroke-width="0.5" stroke-miterlimit="10" d="
			M256.906,114.72c3.721,0,6.774-3.005,6.774-6.774c0-3.722-3.053-6.727-6.774-6.727c-3.721,0-6.774,3.005-6.774,6.727
			C250.132,111.762,253.185,114.72,256.906,114.72z"/>
		<path fill-rule="evenodd" clip-rule="evenodd" fill="#F3F3F3" stroke="#595959" stroke-width="0.5" stroke-miterlimit="10" d="
			M256.906,114.72c3.721,0,6.774-3.005,6.774-6.774c0-3.722-3.053-6.727-6.774-6.727c-3.721,0-6.774,3.005-6.774,6.727
			C250.132,111.762,253.185,114.72,256.906,114.72z"/>
		<path fill-rule="evenodd" clip-rule="evenodd" fill="#F3F3F3" stroke="#595959" stroke-width="0.5" stroke-miterlimit="10" d="
			M256.906,112.926c2.777,0,4.98-2.203,4.98-4.98c0-2.73-2.203-4.981-4.98-4.981c-2.73,0-4.98,2.299-4.98,4.981
			C251.926,110.723,254.176,112.926,256.906,112.926z"/>
		<path fill-rule="evenodd" clip-rule="evenodd" fill="#F3F3F3" stroke="#595959" stroke-width="0.5" stroke-miterlimit="10" d="
			M256.906,112.926c2.777,0,4.98-2.203,4.98-4.98c0-2.73-2.203-4.981-4.98-4.981c-2.73,0-4.98,2.299-4.98,4.981
			C251.926,110.723,254.176,112.926,256.906,112.926z"/>
	</g>
	<g>
		<path fill-rule="evenodd" clip-rule="evenodd" fill="#F3F3F3" stroke="#595959" stroke-width="0.5" stroke-miterlimit="10" d="
			M525.225,163.868c-1.987,0.701-4.325,1.17-6.838,1.17c-8.065,0-14.553-4.211-14.553-9.884c0-5.614,6.488-9.883,14.553-9.883
			c2.455,0,4.793,0.468,6.838,1.228V163.868z"/>
		<path fill-rule="evenodd" clip-rule="evenodd" fill="#F3F3F3" stroke="#595959" stroke-width="0.5" stroke-miterlimit="10" d="
			M534.157,164.11h-5.103c-1.186,0-2.136-0.937-2.136-2.05v-13.348c-0.059-1.113,0.89-2.05,2.136-2.05h5.103V164.11z"/>
		<path fill-rule="evenodd" clip-rule="evenodd" fill="#F3F3F3" stroke="#595959" stroke-width="0.5" stroke-miterlimit="10" d="
			M530.538,157.44c1.089,0,1.937-0.907,1.937-1.997c0-1.089-0.908-1.937-1.937-1.937c-1.15,0-1.997,0.908-1.997,1.937
			C528.541,156.593,529.389,157.44,530.538,157.44z"/>
		<path fill-rule="evenodd" clip-rule="evenodd" fill="#F3F3F3" stroke="#595959" stroke-width="0.5" stroke-miterlimit="10" d="
			M526.119,146.547h-0.895v17.322c-0.19,0.067-0.399,0.121-0.596,0.184h1.49c0.483,0,0.845-0.41,0.845-0.761v-15.925
			C526.964,146.898,526.602,146.547,526.119,146.547z"/>
	</g>
	<g>
		
			<rect x="531.16" y="297.342" fill-rule="evenodd" clip-rule="evenodd" fill="#F3F3F3" stroke="#595959" stroke-width="0.5" stroke-miterlimit="10" width="1.66" height="23.456"/>
		
			<rect x="531.16" y="297.342" fill-rule="evenodd" clip-rule="evenodd" fill="#F3F3F3" stroke="#595959" stroke-width="0.5" stroke-miterlimit="10" width="1.66" height="23.456"/>
		
			<rect x="504.288" y="313.291" fill-rule="evenodd" clip-rule="evenodd" fill="#F3F3F3" stroke="#595959" stroke-width="0.5" stroke-miterlimit="10" width="2.276" height="7.712"/>
		
			<rect x="504.288" y="313.291" fill-rule="evenodd" clip-rule="evenodd" fill="#F3F3F3" stroke="#595959" stroke-width="0.5" stroke-miterlimit="10" width="2.276" height="7.712"/>
		
			<rect x="505.621" y="296.265" fill-rule="evenodd" clip-rule="evenodd" fill="#F3F3F3" stroke="#595959" stroke-width="0.5" stroke-miterlimit="10" width="25.713" height="25.764"/>
		
			<rect x="505.621" y="296.265" fill-rule="evenodd" clip-rule="evenodd" fill="#F3F3F3" stroke="#595959" stroke-width="0.5" stroke-miterlimit="10" width="25.713" height="25.764"/>
		<path fill-rule="evenodd" clip-rule="evenodd" fill="#F3F3F3" stroke="#595959" stroke-width="0.5" stroke-miterlimit="10" d="
			M507.929,296.265v25.764V296.265z"/>
		<path fill-rule="evenodd" clip-rule="evenodd" fill="#F3F3F3" stroke="#595959" stroke-width="0.5" stroke-miterlimit="10" d="
			M508.02,295.034c0.503,0,1.005,0.449,1.005,1.009c0,0.617-0.503,1.01-1.005,1.01c-0.614,0-1.117-0.449-1.117-1.01
			C506.903,295.483,507.405,295.034,508.02,295.034z"/>
		<path fill-rule="evenodd" clip-rule="evenodd" fill="#F3F3F3" stroke="#595959" stroke-width="0.5" stroke-miterlimit="10" d="
			M508.02,295.034c0.503,0,1.005,0.449,1.005,1.009c0,0.617-0.503,1.01-1.005,1.01c-0.614,0-1.117-0.449-1.117-1.01
			C506.903,295.483,507.405,295.034,508.02,295.034z"/>
		<path fill-rule="evenodd" clip-rule="evenodd" fill="#F3F3F3" stroke="#595959" stroke-width="0.5" stroke-miterlimit="10" d="
			M521.179,309.286h-4.532H521.179z"/>
		<path fill-rule="evenodd" clip-rule="evenodd" fill="#F3F3F3" stroke="#595959" stroke-width="0.5" stroke-miterlimit="10" d="
			M518.96,307.086v4.532V307.086z"/>
		<path fill-rule="evenodd" clip-rule="evenodd" fill="#F3F3F3" stroke="#595959" stroke-width="0.5" stroke-miterlimit="10" d="
			M517.263,307.701l3.301,3.301L517.263,307.701z"/>
		<path fill-rule="evenodd" clip-rule="evenodd" fill="#F3F3F3" stroke="#595959" stroke-width="0.5" stroke-miterlimit="10" d="
			M517.263,310.951l3.301-3.301L517.263,310.951z"/>
		<path fill-rule="evenodd" clip-rule="evenodd" fill="#F3F3F3" stroke="#595959" stroke-width="0.5" stroke-miterlimit="10" d="
			M521.333,302.616h-4.531H521.333z"/>
		<path fill-rule="evenodd" clip-rule="evenodd" fill="#F3F3F3" stroke="#595959" stroke-width="0.5" stroke-miterlimit="10" d="
			M519.114,300.367v4.532V300.367z"/>
		<path fill-rule="evenodd" clip-rule="evenodd" fill="#F3F3F3" stroke="#595959" stroke-width="0.5" stroke-miterlimit="10" d="
			M517.416,301.034l3.301,3.301L517.416,301.034z"/>
		<path fill-rule="evenodd" clip-rule="evenodd" fill="#F3F3F3" stroke="#595959" stroke-width="0.5" stroke-miterlimit="10" d="
			M517.416,304.284l3.301-3.301L517.416,304.284z"/>
		<path fill-rule="evenodd" clip-rule="evenodd" fill="#F3F3F3" stroke="#595959" stroke-width="0.5" stroke-miterlimit="10" d="
			M521.179,315.801h-4.532H521.179z"/>
		<path fill-rule="evenodd" clip-rule="evenodd" fill="#F3F3F3" stroke="#595959" stroke-width="0.5" stroke-miterlimit="10" d="
			M518.96,313.599v4.532V313.599z"/>
		<path fill-rule="evenodd" clip-rule="evenodd" fill="#F3F3F3" stroke="#595959" stroke-width="0.5" stroke-miterlimit="10" d="
			M517.263,314.214l3.301,3.301L517.263,314.214z"/>
		<path fill-rule="evenodd" clip-rule="evenodd" fill="#F3F3F3" stroke="#595959" stroke-width="0.5" stroke-miterlimit="10" d="
			M517.263,317.464l3.301-3.301L517.263,317.464z"/>
	</g>
	<g>
		<path fill-rule="evenodd" clip-rule="evenodd" fill="#F3F3F3" stroke="#595959" stroke-width="0.5" stroke-miterlimit="10" d="
			M357.393,322.805h-33.622h-27.075c-1.8,0-3.273-1.473-3.273-3.273V292.41v-82.005c0-1.8,1.473-3.273,3.273-3.273h27.075
			c1.8,0,3.273,1.473,3.273,3.273v75.459c0,1.808,1.465,3.273,3.273,3.273h27.076c1.8,0,3.273,1.473,3.273,3.273v27.121
			C360.667,321.332,359.194,322.805,357.393,322.805z"/>
		<g>
			<path fill-rule="evenodd" clip-rule="evenodd" fill="#F3F3F3" stroke="#595959" stroke-width="0.5" stroke-miterlimit="10" d="
				M321.616,289.137c3.832,0,5.428,0.196,5.428,5.057v14.435c0,4.861-1.642,5.057-5.428,5.057h-14.368
				c-3.832,0-5.428-0.196-5.428-5.057v-14.435c0-4.861,1.642-5.057,5.428-5.057H321.616z"/>
			<path fill-rule="evenodd" clip-rule="evenodd" fill="#F3F3F3" stroke="#595959" stroke-width="0.5" stroke-miterlimit="10" d="
				M321.616,289.137c3.832,0,5.428,0.196,5.428,5.057v14.435c0,4.861-1.642,5.057-5.428,5.057h-14.368
				c-3.832,0-5.428-0.196-5.428-5.057v-14.435c0-4.861,1.642-5.057,5.428-5.057H321.616z"/>
			<path fill-rule="evenodd" clip-rule="evenodd" fill="#F3F3F3" stroke="#595959" stroke-width="0.5" stroke-miterlimit="10" d="
				M321.616,264.781c3.832,0,5.428,0.196,5.428,5.057v14.435c0,4.861-1.642,5.057-5.428,5.057h-14.368
				c-3.832,0-5.428-0.196-5.428-5.057v-14.435c0-4.861,1.642-5.057,5.428-5.057H321.616z"/>
			<path fill-rule="evenodd" clip-rule="evenodd" fill="#F3F3F3" stroke="#595959" stroke-width="0.5" stroke-miterlimit="10" d="
				M321.616,264.781c3.832,0,5.428,0.196,5.428,5.057v14.435c0,4.861-1.642,5.057-5.428,5.057h-14.368
				c-3.832,0-5.428-0.196-5.428-5.057v-14.435c0-4.861,1.642-5.057,5.428-5.057H321.616z"/>
			<path fill-rule="evenodd" clip-rule="evenodd" fill="#F3F3F3" stroke="#595959" stroke-width="0.5" stroke-miterlimit="10" d="
				M321.616,240.473c3.832,0,5.428,0.197,5.428,5.008v14.484c0,4.861-1.642,5.009-5.428,5.009h-14.368
				c-3.832,0-5.428-0.197-5.428-5.009v-14.484c0-4.861,1.642-5.008,5.428-5.008H321.616z"/>
			<path fill-rule="evenodd" clip-rule="evenodd" fill="#F3F3F3" stroke="#595959" stroke-width="0.5" stroke-miterlimit="10" d="
				M321.616,240.473c3.832,0,5.428,0.197,5.428,5.008v14.484c0,4.861-1.642,5.009-5.428,5.009h-14.368
				c-3.832,0-5.428-0.197-5.428-5.009v-14.484c0-4.861,1.642-5.008,5.428-5.008H321.616z"/>
			<path fill-rule="evenodd" clip-rule="evenodd" fill="#F3F3F3" stroke="#595959" stroke-width="0.5" stroke-miterlimit="10" d="
				M346.841,289.137c3.832,0,5.428,0.196,5.428,5.057v14.435c0,4.861-1.642,5.057-5.428,5.057h-14.368
				c-3.832,0-5.428-0.196-5.428-5.057v-14.435c0-4.861,1.642-5.057,5.428-5.057H346.841z"/>
			<path fill-rule="evenodd" clip-rule="evenodd" fill="#F3F3F3" stroke="#595959" stroke-width="0.5" stroke-miterlimit="10" d="
				M321.543,216.164c3.832,0,5.428,0.197,5.428,5.008v14.484c0,4.861-1.642,5.009-5.428,5.009h-14.368
				c-3.832,0-5.428-0.197-5.428-5.009v-14.484c0-4.861,1.642-5.008,5.428-5.008H321.543z"/>
			<path fill-rule="evenodd" clip-rule="evenodd" fill="#F3F3F3" stroke="#595959" stroke-width="0.5" stroke-miterlimit="10" d="
				M296.902,322.805h58.847h1.439c1.914,0,3.48-1.684,3.48-3.743v-1.547V292.88c0-2.059-1.566-3.743-3.48-3.743h-1.439
				c-1.914,0-3.48,1.684-3.48,3.743v20.893H301.82v-97.608h21.745c1.914,0,3.48-1.684,3.48-3.743v-1.547
				c0-2.059-1.566-3.743-3.48-3.743H298.34h-1.439c-1.914,0-3.48,1.684-3.48,3.743v1.547v105.093v1.547v0
				C293.422,321.121,294.988,322.805,296.902,322.805z"/>
		</g>
	</g>
	<g>
		
			<rect x="108.208" y="310.912" fill-rule="evenodd" clip-rule="evenodd" fill="#F3F3F3" stroke="#595959" stroke-width="0.5" stroke-miterlimit="10" width="65.583" height="12.583"/>
		<g>
			
				<rect x="119.137" y="314.946" fill-rule="evenodd" clip-rule="evenodd" fill="#F3F3F3" stroke="#595959" stroke-width="0.5" stroke-miterlimit="10" width="43.68" height="2.459"/>
			
				<polygon fill-rule="evenodd" clip-rule="evenodd" fill="#F3F3F3" stroke="#595959" stroke-width="0.5" stroke-miterlimit="10" points="
				122.842,317.292 129.862,319.317 152.048,319.317 159.068,317.292 			"/>
			
				<rect x="139.882" y="316.667" transform="matrix(-1.836970e-16 1 -1 -1.836970e-16 461.3451 179.4346)" fill-rule="evenodd" clip-rule="evenodd" fill="#F3F3F3" stroke="#595959" stroke-width="0.5" stroke-miterlimit="10" width="2.146" height="7.445"/>
		</g>
	</g>
	<g>
		<g>
			
				<rect x="128.707" y="190.529" transform="matrix(4.490256e-11 1 -1 4.490256e-11 390.6137 52.8296)" fill-rule="evenodd" clip-rule="evenodd" fill="#F3F3F3" stroke="#595959" stroke-width="0.5" stroke-miterlimit="10" width="80.37" height="62.385"/>
			
				<rect x="131.403" y="192.441" transform="matrix(4.488391e-11 1 -1 4.488391e-11 391.0596 53.341)" fill-rule="evenodd" clip-rule="evenodd" fill="#F3F3F3" stroke="#595959" stroke-width="0.5" stroke-miterlimit="10" width="74.913" height="59.519"/>
			
				<rect x="176.845" y="183.567" transform="matrix(4.488214e-11 1 -1 4.488214e-11 380.4233 9.8331)" fill-rule="evenodd" clip-rule="evenodd" fill="#F3F3F3" stroke="#595959" stroke-width="0.5" stroke-miterlimit="10" width="16.9" height="23.123"/>
			
				<rect x="144.145" y="183.567" transform="matrix(4.488214e-11 1 -1 4.488214e-11 347.7237 42.5328)" fill-rule="evenodd" clip-rule="evenodd" fill="#F3F3F3" stroke="#595959" stroke-width="0.5" stroke-miterlimit="10" width="16.9" height="23.123"/>
			
				<polygon fill-rule="evenodd" clip-rule="evenodd" fill="#F3F3F3" stroke="#595959" stroke-width="0.5" stroke-miterlimit="10" points="
				198.619,212.205 180.863,201.866 156.856,201.866 180.863,201.866 156.856,201.866 139.1,212.205 139.1,259.657 139.165,259.657 
				198.619,259.657 			"/>
			
				<polyline fill-rule="evenodd" clip-rule="evenodd" fill="#F3F3F3" stroke="#595959" stroke-width="0.5" stroke-miterlimit="10" points="
				198.619,212.205 186.158,219.748 180.863,201.866 			"/>
			
				<line fill-rule="evenodd" clip-rule="evenodd" fill="#F3F3F3" stroke="#595959" stroke-width="0.5" stroke-miterlimit="10" x1="180.863" y1="201.866" x2="198.619" y2="212.205"/>
			
				<polyline fill-rule="evenodd" clip-rule="evenodd" fill="#F3F3F3" stroke="#595959" stroke-width="0.5" stroke-miterlimit="10" points="
				139.1,212.205 151.56,219.748 156.856,201.866 			"/>
			
				<line fill-rule="evenodd" clip-rule="evenodd" fill="#F3F3F3" stroke="#595959" stroke-width="0.5" stroke-miterlimit="10" x1="156.856" y1="201.866" x2="139.1" y2="212.205"/>
		</g>
		<g>
			
				<rect x="114.581" y="181.537" transform="matrix(-1 4.490174e-11 -4.490174e-11 -1 251.1191 379.0255)" fill="#F3F3F3" stroke="#595959" stroke-width="0.5" stroke-miterlimit="10" width="21.957" height="15.952"/>
			
				<rect x="121.042" y="197.489" transform="matrix(-1 4.485333e-11 -4.485333e-11 -1 251.2907 396.017)" fill="#F3F3F3" stroke="#595959" stroke-width="0.5" stroke-miterlimit="10" width="9.206" height="1.039"/>
		</g>
		<g>
			
				<rect x="201.306" y="181.537" transform="matrix(-1 4.490174e-11 -4.490174e-11 -1 424.5695 379.0255)" fill="#F3F3F3" stroke="#595959" stroke-width="0.5" stroke-miterlimit="10" width="21.957" height="15.952"/>
			
				<rect x="207.768" y="197.489" transform="matrix(-1 4.505095e-11 -4.505095e-11 -1 424.741 396.017)" fill="#F3F3F3" stroke="#595959" stroke-width="0.5" stroke-miterlimit="10" width="9.206" height="1.039"/>
		</g>
	</g>
	<g>
		<path fill-rule="evenodd" clip-rule="evenodd" fill="#F3F3F3" stroke="#595959" stroke-width="0.5" stroke-miterlimit="10" d="
			M319.966,45.443v0.87V45.443z"/>
		
			<line fill-rule="evenodd" clip-rule="evenodd" fill="#F3F3F3" stroke="#595959" stroke-width="0.5" stroke-miterlimit="10" x1="319.966" y1="45.443" x2="319.966" y2="46.314"/>
		<path fill-rule="evenodd" clip-rule="evenodd" fill="#F3F3F3" stroke="#595959" stroke-width="0.5" stroke-miterlimit="10" d="
			M319.3,51.843v-0.051V46.11c0-0.41,0.358-0.717,0.717-0.717c0.41,0,0.716,0.307,0.716,0.717v5.682v0.051H319.3z"/>
		
			<rect x="307.014" y="42.628" fill-rule="evenodd" clip-rule="evenodd" fill="#F3F3F3" stroke="#595959" stroke-width="0.5" stroke-miterlimit="10" width="25.956" height="3.737"/>
		<path fill-rule="evenodd" clip-rule="evenodd" fill="#F3F3F3" stroke="#595959" stroke-width="0.5" stroke-miterlimit="10" d="
			M332.918,45.443h-25.853H332.918z"/>
		<path fill-rule="evenodd" clip-rule="evenodd" fill="#F3F3F3" stroke="#595959" stroke-width="0.5" stroke-miterlimit="10" d="
			M332.969,46.365V59.42c0,0.666-0.461,1.228-1.127,1.228h-23.754c-0.563,0-1.075-0.563-1.075-1.228V46.365H332.969z"/>
		<path fill-rule="evenodd" clip-rule="evenodd" fill="#F3F3F3" stroke="#595959" stroke-width="0.5" stroke-miterlimit="10" d="
			M319.915,48.464c4.812,0,8.754,2.457,8.806,5.478c0.051,3.072-3.737,5.529-8.601,5.58c-4.812,0-8.754-2.406-8.805-5.478
			C311.262,51.024,315.153,48.515,319.915,48.464z"/>
		<path fill-rule="evenodd" clip-rule="evenodd" fill="#F3F3F3" stroke="#595959" stroke-width="0.5" stroke-miterlimit="10" d="
			M321.451,54.095c0,0.819-0.666,1.485-1.485,1.485c-0.767,0-1.382-0.666-1.382-1.485c0-0.819,0.615-1.433,1.382-1.433
			C320.785,52.713,321.451,53.327,321.451,54.095z"/>
		<path fill-rule="evenodd" clip-rule="evenodd" fill="#F3F3F3" stroke="#595959" stroke-width="0.5" stroke-miterlimit="10" d="
			M319.3,51.843v-0.051V46.11c0-0.41,0.358-0.717,0.717-0.717c0.41,0,0.716,0.307,0.716,0.717v5.682v0.051H319.3z"/>
	</g>
	<g>
		<path fill-rule="evenodd" clip-rule="evenodd" fill="#F3F3F3" stroke="#595959" stroke-width="0.5" stroke-miterlimit="10" d="
			M477.106,110.949v0.869V110.949z"/>
		
			<line fill-rule="evenodd" clip-rule="evenodd" fill="#F3F3F3" stroke="#595959" stroke-width="0.5" stroke-miterlimit="10" x1="477.106" y1="110.949" x2="477.106" y2="111.818"/>
		<path fill-rule="evenodd" clip-rule="evenodd" fill="#F3F3F3" stroke="#595959" stroke-width="0.5" stroke-miterlimit="10" d="
			M476.442,117.338v-0.051v-5.673c0-0.41,0.358-0.716,0.716-0.716c0.409,0,0.715,0.307,0.715,0.716v5.673v0.051H476.442z"/>
		
			<rect x="464.174" y="108.138" fill-rule="evenodd" clip-rule="evenodd" fill="#F3F3F3" stroke="#595959" stroke-width="0.5" stroke-miterlimit="10" width="25.915" height="3.731"/>
		<path fill-rule="evenodd" clip-rule="evenodd" fill="#F3F3F3" stroke="#595959" stroke-width="0.5" stroke-miterlimit="10" d="
			M490.038,110.949h-25.813H490.038z"/>
		<path fill-rule="evenodd" clip-rule="evenodd" fill="#F3F3F3" stroke="#595959" stroke-width="0.5" stroke-miterlimit="10" d="
			M490.09,111.869v13.034c0,0.665-0.46,1.227-1.125,1.227h-23.717c-0.562,0-1.073-0.562-1.073-1.227v-13.034H490.09z"/>
		<path fill-rule="evenodd" clip-rule="evenodd" fill="#F3F3F3" stroke="#595959" stroke-width="0.5" stroke-miterlimit="10" d="
			M477.055,113.964c4.805,0,8.74,2.453,8.792,5.469c0.051,3.067-3.731,5.52-8.588,5.572c-4.805,0-8.74-2.402-8.791-5.469
			C468.416,116.52,472.301,114.015,477.055,113.964z"/>
		<path fill-rule="evenodd" clip-rule="evenodd" fill="#F3F3F3" stroke="#595959" stroke-width="0.5" stroke-miterlimit="10" d="
			M478.589,119.587c0,0.818-0.665,1.483-1.483,1.483c-0.766,0-1.38-0.665-1.38-1.483c0-0.818,0.614-1.431,1.38-1.431
			C477.924,118.207,478.589,118.82,478.589,119.587z"/>
		<path fill-rule="evenodd" clip-rule="evenodd" fill="#F3F3F3" stroke="#595959" stroke-width="0.5" stroke-miterlimit="10" d="
			M476.442,117.338v-0.051v-5.673c0-0.41,0.358-0.716,0.716-0.716c0.409,0,0.715,0.307,0.715,0.716v5.673v0.051H476.442z"/>
	</g>
	<g>
		
			<rect x="231.118" y="267.946" transform="matrix(-2.238816e-14 1 -1 -2.238816e-14 554.2913 9.9432)" fill-rule="evenodd" clip-rule="evenodd" fill="#F3F3F3" stroke="#595959" stroke-width="0.5" stroke-miterlimit="10" width="82.112" height="28.343"/>
		
			<line fill="#F3F3F3" stroke="#595959" stroke-width="0.5" stroke-miterlimit="10" x1="258.002" y1="244.033" x2="286.395" y2="244.033"/>
		
			<line fill="#F3F3F3" stroke="#595959" stroke-width="0.5" stroke-miterlimit="10" x1="258.002" y1="320.114" x2="286.346" y2="320.114"/>
		
			<line fill="#F3F3F3" stroke="#595959" stroke-width="0.5" stroke-miterlimit="10" x1="285.037" y1="244.033" x2="285.037" y2="320.114"/>
		
			<line fill="#F3F3F3" stroke="#595959" stroke-width="0.5" stroke-miterlimit="10" x1="271.97" y1="317.463" x2="271.97" y2="246.681"/>
		
			<rect x="271.23" y="241.716" transform="matrix(0.162 0.9868 -0.9868 0.162 475.0957 -58.717)" fill="#F3F3F3" stroke="#595959" stroke-width="0.5" stroke-miterlimit="10" width="1.775" height="17.282"/>
		
			<rect x="271.23" y="248.078" transform="matrix(0.0882 0.9961 -0.9961 0.0882 503.8492 -36.9703)" fill="#F3F3F3" stroke="#595959" stroke-width="0.5" stroke-miterlimit="10" width="1.775" height="17.282"/>
		
			<rect x="271.083" y="254.518" transform="matrix(0.229 0.9734 -0.9734 0.229 465.8546 -61.8478)" fill="#F3F3F3" stroke="#595959" stroke-width="0.5" stroke-miterlimit="10" width="1.775" height="17.282"/>
		
			<rect x="271.275" y="261.704" transform="matrix(0.152 0.9884 -0.9884 0.152 497.9856 -39.7572)" fill="#F3F3F3" stroke="#595959" stroke-width="0.5" stroke-miterlimit="10" width="1.775" height="17.282"/>
		
			<rect x="271.179" y="267.972" transform="matrix(0.0451 0.999 -0.999 0.0451 536.125 -7.6549)" fill="#F3F3F3" stroke="#595959" stroke-width="0.5" stroke-miterlimit="10" width="1.775" height="17.282"/>
		
			<rect x="271.179" y="274.317" transform="matrix(0.152 0.9884 -0.9884 0.152 510.3701 -28.9667)" fill="#F3F3F3" stroke="#595959" stroke-width="0.5" stroke-miterlimit="10" width="1.775" height="17.282"/>
		
			<rect x="271.083" y="280.76" transform="matrix(0.0451 0.999 -0.999 0.0451 548.8082 4.6527)" fill="#F3F3F3" stroke="#595959" stroke-width="0.5" stroke-miterlimit="10" width="1.775" height="17.282"/>
		
			<rect x="271.083" y="287.078" transform="matrix(0.2052 0.9787 -0.9787 0.2052 505.5996 -31.1372)" fill="#F3F3F3" stroke="#595959" stroke-width="0.5" stroke-miterlimit="10" width="1.775" height="17.282"/>
		
			<rect x="271.101" y="293.395" transform="matrix(0.152 0.9884 -0.9884 0.152 529.16 -12.7118)" fill="#F3F3F3" stroke="#595959" stroke-width="0.5" stroke-miterlimit="10" width="1.775" height="17.282"/>
		
			<rect x="271.083" y="299.713" transform="matrix(0.0847 0.9964 -0.9964 0.0847 556.1689 11.2324)" fill="#F3F3F3" stroke="#595959" stroke-width="0.5" stroke-miterlimit="10" width="1.775" height="17.282"/>
		
			<rect x="271.293" y="306.03" transform="matrix(0.2379 0.9713 -0.9713 0.2379 513.0591 -24.5608)" fill="#F3F3F3" stroke="#595959" stroke-width="0.5" stroke-miterlimit="10" width="1.775" height="17.282"/>
	</g>
	<path fill-rule="evenodd" clip-rule="evenodd" fill="#F3F3F3" stroke="#595959" stroke-width="0.5" stroke-miterlimit="10" d="
		M490.234,235.933h-22.538c-1.008,0-1.8-1.03-1.8-2.295v-17.052c0-1.265,0.792-2.295,1.8-2.295h22.538
		c0.936,0,1.764,1.031,1.764,2.295v17.052C491.999,234.902,491.171,235.933,490.234,235.933L490.234,235.933z M477.661,226.678
		c0-0.562,0.446-0.984,1.042-0.984c0.595,0,1.092,0.422,1.092,0.984c0,0.562-0.497,1.031-1.092,1.031
		C478.108,227.709,477.661,227.24,477.661,226.678z M488.583,234.35h-19.241c-0.861,0-1.537-0.762-1.537-1.697v-12.611
		c0-0.935,0.676-1.697,1.537-1.697h19.241c0.799,0,1.506,0.762,1.506,1.697v12.611C490.09,233.588,489.383,234.35,488.583,234.35
		L488.583,234.35z M477.98,222.205v-5.43h1.715v5.43H477.98z"/>
	<g>
		
			<rect x="506.899" y="250.944" fill-rule="evenodd" clip-rule="evenodd" fill="#F3F3F3" stroke="#595959" stroke-width="0.5" stroke-miterlimit="10" width="27.201" height="27.099"/>
		
			<rect x="506.899" y="250.944" fill-rule="evenodd" clip-rule="evenodd" fill="#F3F3F3" stroke="#595959" stroke-width="0.5" stroke-miterlimit="10" width="27.201" height="27.099"/>
		<path fill-rule="evenodd" clip-rule="evenodd" fill="#F3F3F3" stroke="#595959" stroke-width="0.5" stroke-miterlimit="10" d="
			M527.666,265.841c-2.607,0-4.745,2.085-4.745,4.744c0,2.607,2.138,4.745,4.745,4.745c2.607,0,4.744-2.138,4.744-4.745
			C532.463,267.874,530.273,265.841,527.666,265.841z"/>
		<path fill-rule="evenodd" clip-rule="evenodd" fill="#F3F3F3" stroke="#595959" stroke-width="0.5" stroke-miterlimit="10" d="
			M527.666,265.841c-2.607,0-4.745,2.085-4.745,4.744c0,2.607,2.138,4.745,4.745,4.745c2.607,0,4.744-2.138,4.744-4.745
			C532.463,267.874,530.273,265.841,527.666,265.841z"/>
		<path fill-rule="evenodd" clip-rule="evenodd" fill="#F3F3F3" stroke="#595959" stroke-width="0.5" stroke-miterlimit="10" d="
			M527.665,267.274c-1.787,0-3.259,1.472-3.259,3.312c0,1.787,1.471,3.259,3.259,3.259c1.84,0,3.312-1.471,3.312-3.259
			C531.03,268.693,529.558,267.274,527.665,267.274z"/>
		<path fill-rule="evenodd" clip-rule="evenodd" fill="#F3F3F3" stroke="#595959" stroke-width="0.5" stroke-miterlimit="10" d="
			M527.665,267.274c-1.787,0-3.259,1.472-3.259,3.312c0,1.787,1.471,3.259,3.259,3.259c1.84,0,3.312-1.471,3.312-3.259
			C531.03,268.693,529.558,267.274,527.665,267.274z"/>
		<path fill-rule="evenodd" clip-rule="evenodd" fill="#F3F3F3" stroke="#595959" stroke-width="0.5" stroke-miterlimit="10" d="
			M527.666,253.913c-2.607,0-4.745,2.085-4.745,4.745c0,2.607,2.138,4.745,4.745,4.745c2.607,0,4.744-2.138,4.744-4.745
			C532.463,255.998,530.273,253.913,527.666,253.913z"/>
		<path fill-rule="evenodd" clip-rule="evenodd" fill="#F3F3F3" stroke="#595959" stroke-width="0.5" stroke-miterlimit="10" d="
			M527.666,253.913c-2.607,0-4.745,2.085-4.745,4.745c0,2.607,2.138,4.745,4.745,4.745c2.607,0,4.744-2.138,4.744-4.745
			C532.463,255.998,530.273,253.913,527.666,253.913z"/>
		<path fill-rule="evenodd" clip-rule="evenodd" fill="#F3F3F3" stroke="#595959" stroke-width="0.5" stroke-miterlimit="10" d="
			M527.665,255.398c-1.787,0-3.259,1.472-3.259,3.26c0,1.788,1.471,3.26,3.259,3.26c1.84,0,3.312-1.472,3.312-3.26
			C531.03,256.87,529.558,255.398,527.665,255.398z"/>
		<path fill-rule="evenodd" clip-rule="evenodd" fill="#F3F3F3" stroke="#595959" stroke-width="0.5" stroke-miterlimit="10" d="
			M527.665,255.398c-1.787,0-3.259,1.472-3.259,3.26c0,1.788,1.471,3.26,3.259,3.26c1.84,0,3.312-1.472,3.312-3.26
			C531.03,256.87,529.558,255.398,527.665,255.398z"/>
		<path fill-rule="evenodd" clip-rule="evenodd" fill="#F3F3F3" stroke="#595959" stroke-width="0.5" stroke-miterlimit="10" d="
			M516.814,253.913c-2.607,0-4.745,2.085-4.745,4.745c0,2.607,2.138,4.745,4.745,4.745c2.607,0,4.744-2.138,4.744-4.745
			C521.558,255.998,519.42,253.913,516.814,253.913z"/>
		<path fill-rule="evenodd" clip-rule="evenodd" fill="#F3F3F3" stroke="#595959" stroke-width="0.5" stroke-miterlimit="10" d="
			M516.814,253.913c-2.607,0-4.745,2.085-4.745,4.745c0,2.607,2.138,4.745,4.745,4.745c2.607,0,4.744-2.138,4.744-4.745
			C521.558,255.998,519.42,253.913,516.814,253.913z"/>
		<path fill-rule="evenodd" clip-rule="evenodd" fill="#F3F3F3" stroke="#595959" stroke-width="0.5" stroke-miterlimit="10" d="
			M509.439,270.192c-0.397,0-0.851,0.397-0.851,0.908c0,0.398,0.397,0.852,0.851,0.852c0.511,0,0.908-0.398,0.908-0.852
			C510.347,270.589,509.894,270.192,509.439,270.192z"/>
		<path fill-rule="evenodd" clip-rule="evenodd" fill="#F3F3F3" stroke="#595959" stroke-width="0.5" stroke-miterlimit="10" d="
			M509.439,270.192c-0.397,0-0.851,0.397-0.851,0.908c0,0.398,0.397,0.852,0.851,0.852c0.511,0,0.908-0.398,0.908-0.852
			C510.347,270.589,509.894,270.192,509.439,270.192z"/>
		<path fill-rule="evenodd" clip-rule="evenodd" fill="#F3F3F3" stroke="#595959" stroke-width="0.5" stroke-miterlimit="10" d="
			M509.439,266.66c-0.397,0-0.851,0.341-0.851,0.854c0,0.512,0.397,0.854,0.851,0.854c0.511,0,0.908-0.341,0.908-0.854
			C510.347,267.001,509.894,266.66,509.439,266.66z"/>
		<path fill-rule="evenodd" clip-rule="evenodd" fill="#F3F3F3" stroke="#595959" stroke-width="0.5" stroke-miterlimit="10" d="
			M509.439,266.66c-0.397,0-0.851,0.341-0.851,0.854c0,0.512,0.397,0.854,0.851,0.854c0.511,0,0.908-0.341,0.908-0.854
			C510.347,267.001,509.894,266.66,509.439,266.66z"/>
		<path fill-rule="evenodd" clip-rule="evenodd" fill="#F3F3F3" stroke="#595959" stroke-width="0.5" stroke-miterlimit="10" d="
			M509.439,263.025c-0.397,0-0.851,0.397-0.851,0.909c0,0.397,0.397,0.851,0.851,0.851c0.511,0,0.908-0.398,0.908-0.851
			C510.347,263.422,509.894,263.025,509.439,263.025z"/>
		<path fill-rule="evenodd" clip-rule="evenodd" fill="#F3F3F3" stroke="#595959" stroke-width="0.5" stroke-miterlimit="10" d="
			M509.439,263.025c-0.397,0-0.851,0.397-0.851,0.909c0,0.397,0.397,0.851,0.851,0.851c0.511,0,0.908-0.398,0.908-0.851
			C510.347,263.422,509.894,263.025,509.439,263.025z"/>
		<path fill-rule="evenodd" clip-rule="evenodd" fill="#F3F3F3" stroke="#595959" stroke-width="0.5" stroke-miterlimit="10" d="
			M516.814,266.9c-2.025,0-3.685,1.62-3.685,3.685c0,2.025,1.66,3.685,3.685,3.685c2.025,0,3.685-1.66,3.685-3.685
			C520.499,268.48,518.839,266.9,516.814,266.9z"/>
		<path fill-rule="evenodd" clip-rule="evenodd" fill="#F3F3F3" stroke="#595959" stroke-width="0.5" stroke-miterlimit="10" d="
			M516.814,266.9c-2.025,0-3.685,1.62-3.685,3.685c0,2.025,1.66,3.685,3.685,3.685c2.025,0,3.685-1.66,3.685-3.685
			C520.499,268.48,518.839,266.9,516.814,266.9z"/>
		<path fill-rule="evenodd" clip-rule="evenodd" fill="#F3F3F3" stroke="#595959" stroke-width="0.5" stroke-miterlimit="10" d="
			M516.813,267.928c-1.391,0-2.538,1.146-2.538,2.538c0,1.432,1.147,2.578,2.538,2.578c1.391,0,2.578-1.146,2.578-2.578
			C519.391,269.074,518.204,267.928,516.813,267.928z"/>
		<path fill-rule="evenodd" clip-rule="evenodd" fill="#F3F3F3" stroke="#595959" stroke-width="0.5" stroke-miterlimit="10" d="
			M516.813,267.928c-1.391,0-2.538,1.146-2.538,2.538c0,1.432,1.147,2.578,2.538,2.578c1.391,0,2.578-1.146,2.578-2.578
			C519.391,269.074,518.204,267.928,516.813,267.928z"/>
	</g>
	<g>
		<path fill="#F3F3F3" stroke="#595959" stroke-width="0.5" stroke-miterlimit="10" d="M380.982,80.303V39.257H404v41.046
			c-0.965,2.1-4.377,6.582-8.75,9.044c-4.939,2.78-11.833,2.717-14.268,2.555C380.982,88.036,380.982,84.17,380.982,80.303z
			 M380.982,80.303H404"/>
		
			<rect x="380.982" y="43.814" transform="matrix(-1 -5.232893e-11 5.232893e-11 -1 764.8316 89.2889)" fill="#F3F3F3" stroke="#595959" stroke-width="0.5" stroke-miterlimit="10" width="2.868" height="1.66"/>
		
			<rect x="380.982" y="53.962" transform="matrix(-1 -5.264601e-11 5.264601e-11 -1 764.8316 109.5836)" fill="#F3F3F3" stroke="#595959" stroke-width="0.5" stroke-miterlimit="10" width="2.868" height="1.66"/>
		
			<rect x="380.982" y="64.005" transform="matrix(-1 -5.296309e-11 5.296309e-11 -1 764.8316 129.6709)" fill="#F3F3F3" stroke="#595959" stroke-width="0.5" stroke-miterlimit="10" width="2.868" height="1.66"/>
		
			<rect x="380.982" y="74.153" transform="matrix(-1 -5.232893e-11 5.232893e-11 -1 764.8316 149.9657)" fill="#F3F3F3" stroke="#595959" stroke-width="0.5" stroke-miterlimit="10" width="2.868" height="1.66"/>
		
			<rect x="380.97" y="42.632" transform="matrix(-1 -5.326685e-11 5.326685e-11 -1 762.4182 89.2889)" fill="#F3F3F3" stroke="#595959" stroke-width="0.5" stroke-miterlimit="10" width="0.478" height="4.026"/>
		
			<rect x="380.97" y="52.737" transform="matrix(-1 -5.326685e-11 5.326685e-11 -1 762.4182 109.5006)" fill="#F3F3F3" stroke="#595959" stroke-width="0.5" stroke-miterlimit="10" width="0.478" height="4.026"/>
		
			<rect x="380.97" y="62.823" transform="matrix(-1 -5.136437e-11 5.136437e-11 -1 762.4182 129.6709)" fill="#F3F3F3" stroke="#595959" stroke-width="0.5" stroke-miterlimit="10" width="0.478" height="4.026"/>
		
			<rect x="380.97" y="72.97" transform="matrix(-1 -5.326685e-11 5.326685e-11 -1 762.4182 149.9657)" fill="#F3F3F3" stroke="#595959" stroke-width="0.5" stroke-miterlimit="10" width="0.478" height="4.026"/>
	</g>
	<g>
		<g>
			<path fill="#F3F3F3" stroke="#595959" stroke-width="0.5" stroke-miterlimit="10" d="M433.059,276.301
				c5.594,0,10.122-1.675,10.122-3.751c0-2.067-4.528-3.751-10.122-3.751c-5.594,0-10.132,1.684-10.132,3.751
				C422.928,274.626,427.465,276.301,433.059,276.301z"/>
			<path fill="#F3F3F3" stroke="#595959" stroke-width="0.5" stroke-miterlimit="10" d="M433.059,293.243
				c5.594,0,10.122-4.537,10.122-10.132c0-5.594-4.528-10.132-10.122-10.132c-5.594,0-10.132,4.537-10.132,10.132
				C422.928,288.706,427.465,293.243,433.059,293.243z"/>
		</g>
		<g>
			<path fill="#F3F3F3" stroke="#595959" stroke-width="0.5" stroke-miterlimit="10" d="M457.012,302.244
				c0,5.594,1.675,10.122,3.751,10.122c2.067,0,3.751-4.528,3.751-10.122s-1.684-10.132-3.751-10.132
				C458.687,292.112,457.012,296.65,457.012,302.244z"/>
			<path fill="#F3F3F3" stroke="#595959" stroke-width="0.5" stroke-miterlimit="10" d="M440.07,302.244
				c0,5.594,4.537,10.122,10.132,10.122c5.594,0,10.132-4.528,10.132-10.122s-4.537-10.132-10.132-10.132
				C444.607,292.112,440.07,296.65,440.07,302.244z"/>
		</g>
		<g>
			<path fill="#F3F3F3" stroke="#595959" stroke-width="0.5" stroke-miterlimit="10" d="M409.097,302.244
				c0-5.604-1.675-10.132-3.751-10.132c-2.067,0-3.751,4.528-3.751,10.132c0,5.594,1.684,10.122,3.751,10.122
				C407.422,312.366,409.097,307.838,409.097,302.244z"/>
			<path fill="#F3F3F3" stroke="#595959" stroke-width="0.5" stroke-miterlimit="10" d="M426.039,302.244
				c0-5.604-4.537-10.132-10.132-10.132c-5.594,0-10.132,4.528-10.132,10.132c0,5.594,4.537,10.122,10.132,10.122
				C421.502,312.366,426.039,307.838,426.039,302.244z"/>
		</g>
		
			<rect x="412.654" y="281.839" transform="matrix(4.498250e-11 1 -1 4.498250e-11 735.2939 -130.8152)" fill="#F3F3F3" stroke="#595959" stroke-width="0.5" stroke-miterlimit="10" width="40.802" height="40.802"/>
	</g>
	<g>
		
			<rect x="488.382" y="55.574" transform="matrix(5.843608e-14 1 -1 5.843608e-14 589.5272 -448.972)" fill-rule="evenodd" clip-rule="evenodd" fill="#F3F3F3" stroke="#595959" stroke-width="0.5" stroke-miterlimit="10" width="61.735" height="29.408"/>
		
			<line fill="#F3F3F3" stroke="#595959" stroke-width="0.5" stroke-miterlimit="10" x1="504.546" y1="42.583" x2="534.004" y2="42.583"/>
		
			<line fill="#F3F3F3" stroke="#595959" stroke-width="0.5" stroke-miterlimit="10" x1="504.546" y1="97.971" x2="533.953" y2="97.971"/>
		
			<line fill="#F3F3F3" stroke="#595959" stroke-width="0.5" stroke-miterlimit="10" x1="532.596" y1="42.583" x2="532.596" y2="97.971"/>
		
			<line fill="#F3F3F3" stroke="#595959" stroke-width="0.5" stroke-miterlimit="10" x1="519.038" y1="95.221" x2="519.038" y2="44.333"/>
		
			<rect x="518.317" y="37.368" transform="matrix(0.152 0.9884 -0.9884 0.152 486.0879 -473.9124)" fill="#F3F3F3" stroke="#595959" stroke-width="0.5" stroke-miterlimit="10" width="1.842" height="17.931"/>
		
			<rect x="518.217" y="43.872" transform="matrix(0.0451 0.999 -0.999 0.0451 548.5024 -468.1562)" fill="#F3F3F3" stroke="#595959" stroke-width="0.5" stroke-miterlimit="10" width="1.842" height="17.931"/>
		
			<rect x="518.217" y="50.455" transform="matrix(0.152 0.9884 -0.9884 0.152 498.9374 -462.7167)" fill="#F3F3F3" stroke="#595959" stroke-width="0.5" stroke-miterlimit="10" width="1.842" height="17.931"/>
		
			<rect x="518.117" y="57.14" transform="matrix(0.0451 0.999 -0.999 0.0451 561.6617 -455.3865)" fill="#F3F3F3" stroke="#595959" stroke-width="0.5" stroke-miterlimit="10" width="1.842" height="17.931"/>
		
			<rect x="518.117" y="63.695" transform="matrix(0.2052 0.9787 -0.9787 0.2052 483.6639 -450.2441)" fill="#F3F3F3" stroke="#595959" stroke-width="0.5" stroke-miterlimit="10" width="1.842" height="17.931"/>
		
			<rect x="518.136" y="70.249" transform="matrix(0.152 0.9884 -0.9884 0.152 518.4328 -445.8515)" fill="#F3F3F3" stroke="#595959" stroke-width="0.5" stroke-miterlimit="10" width="1.842" height="17.931"/>
		
			<rect x="518.117" y="76.804" transform="matrix(0.0847 0.9964 -0.9964 0.0847 560.5168 -438.6698)" fill="#F3F3F3" stroke="#595959" stroke-width="0.5" stroke-miterlimit="10" width="1.842" height="17.931"/>
		
			<rect x="518.336" y="83.359" transform="matrix(0.2379 0.9713 -0.9713 0.2379 485.388 -433.9879)" fill="#F3F3F3" stroke="#595959" stroke-width="0.5" stroke-miterlimit="10" width="1.842" height="17.931"/>
	</g>
	<g>
		<path fill="#F3F3F3" stroke="#595959" stroke-width="0.5" stroke-miterlimit="10" d="M302.598,187.456
			c1.233,0.373,2.059,1.173,2.222,1.144c0.585-0.104-0.806-0.994,0.128-3.633c0.701-1.981,1.257-4.833,1.257-4.833
			s2.057,2.206,3.045,4.108c1.136,2.187,0.03,4.359,0.211,4.454c0.239,0.125,0.841-1.484,2.737-1.869
			c2.32-0.471,5.509,1.74,5.509,1.74s-2.414,0.048-4.06,1.704c-1.576,1.585-3.32,1.282-3.221,1.615
			c0.06,0.202,1.958,0.758,3.366,1.756c1.242,0.88,1.993,3.371,1.993,3.371s-1.196-1.051-4.422-0.761
			c-2.92,0.262-3.567-3.149-3.758-3.117c-0.276,0.047,0.35,1.704-0.474,4.06c-0.768,2.196-3.994,4.446-3.994,4.446
			s-0.45-3.325-0.546-4.789c-0.187-2.839,1.825-4.251,1.534-4.683c-0.22-0.326-2.273,0.77-4.179-0.555
			c-1.113-0.774-4.278-2.103-4.278-2.103s3.1-1.741,4.821-2.138C301.272,187.191,301.985,187.271,302.598,187.456"/>
		<path fill="#F3F3F3" stroke="#595959" stroke-width="0.5" stroke-miterlimit="10" d="M304.616,186.719
			c0.002-0.148,0.009-0.379,0.032-0.663c0.031-0.379,0.065-0.506,0.067-0.747c0.002-0.195-0.021-0.425-0.094-0.819
			c-0.21-1.133-1.415-1.789-1.881-2.096c-0.376-0.247-1.966-1.156-1.966-1.156s-0.954,2.446-0.602,4.152
			c0.322,0.94,2.427,2.067,2.427,2.067l2.395,1.273L304.616,186.719z"/>
		<path fill="#F3F3F3" stroke="#595959" stroke-width="0.5" stroke-miterlimit="10" d="M310.963,187.326
			c0,0,1.381-0.819,2.103-1.803c1.171-1.594,1.21-3.287,1.196-3.878c0,0-2.755,0.051-3.751,1.667
			c-0.675,1.095-0.728,2.181-0.743,2.561c-0.006,0.138-0.018,0.27-0.039,0.406l-0.487,2.603L310.963,187.326z"/>
		<path fill="#F3F3F3" stroke="#595959" stroke-width="0.5" stroke-miterlimit="10" d="M312.373,192.821
			c0,0,1.705,0.904,2.216,1.039c0.592,0.157,0.934,0.158,1.108,0.148c0.65-0.036,1.108-0.287,1.407-0.379
			c0.361-0.111,2.034-0.422,2.034-0.422s-1.634-2.025-3.33-2.647c-1.763-0.403-2.401,0.086-2.907,0.327
			c-0.147,0.07-0.295,0.127-0.451,0.172l-2.418,0.643L312.373,192.821z"/>
		<path fill="#F3F3F3" stroke="#595959" stroke-width="0.5" stroke-miterlimit="10" d="M307.508,195.834
			c0,0-0.164,2.105,0.181,2.764c0.13,0.247,0.29,0.991,1.572,1.465c1.237,0.458,1.978,1.328,1.978,1.328s0.431-1.72,0.097-2.821
			c-0.153-0.506-0.254-0.783-0.488-1.261c-0.264-0.541-1.032-1.067-1.593-1.519c-0.587-0.473-0.986-1.219-0.986-1.219l-0.658-1.564
			L307.508,195.834z"/>
		<path fill="#F3F3F3" stroke="#595959" stroke-width="0.5" stroke-miterlimit="10" d="M302.005,192.089
			c0,0-1.528-0.017-2.603,0.363c-0.771,0.272-1.136,0.95-1.933,2.082c-0.251,0.357-1.16,1.856-1.16,1.856s2.77,0.747,4.639,0.338
			c1.421-0.311,2.232-2.373,2.232-2.373l1.175-2.351L302.005,192.089z"/>
	</g>
	<g>
		
			<rect x="353.02" y="202.834" fill-rule="evenodd" clip-rule="evenodd" fill="#F3F3F3" stroke="#595959" stroke-width="0.5" stroke-miterlimit="10" width="44.463" height="2.504"/>
		
			<polygon fill-rule="evenodd" clip-rule="evenodd" fill="#F3F3F3" stroke="#595959" stroke-width="0.5" stroke-miterlimit="10" points="
			393.711,202.95 386.566,200.889 363.983,200.889 356.837,202.95 		"/>
		
			<rect x="374.182" y="196.007" transform="matrix(6.123234e-17 -1 1 6.123234e-17 175.4778 575.0701)" fill-rule="evenodd" clip-rule="evenodd" fill="#F3F3F3" stroke="#595959" stroke-width="0.5" stroke-miterlimit="10" width="2.185" height="7.579"/>
	</g>
	<g>
		
			<rect x="175.084" y="66.376" transform="matrix(6.123234e-17 -1 1 6.123234e-17 135.4402 296.3745)" fill-rule="evenodd" clip-rule="evenodd" fill="#F3F3F3" stroke="#595959" stroke-width="0.5" stroke-miterlimit="10" width="81.646" height="28.182"/>
		
			<line fill="#F3F3F3" stroke="#595959" stroke-width="0.5" stroke-miterlimit="10" x1="201.816" y1="118.336" x2="230.047" y2="118.336"/>
		
			<line fill="#F3F3F3" stroke="#595959" stroke-width="0.5" stroke-miterlimit="10" x1="201.816" y1="42.686" x2="229.999" y2="42.686"/>
		
			<line fill="#F3F3F3" stroke="#595959" stroke-width="0.5" stroke-miterlimit="10" x1="228.698" y1="118.336" x2="228.698" y2="42.686"/>
		
			<line fill="#F3F3F3" stroke="#595959" stroke-width="0.5" stroke-miterlimit="10" x1="215.705" y1="45.322" x2="215.705" y2="115.702"/>
		
			<rect x="214.969" y="103.455" transform="matrix(0.162 -0.9868 0.9868 0.162 70.3236 306.9003)" fill="#F3F3F3" stroke="#595959" stroke-width="0.5" stroke-miterlimit="10" width="1.765" height="17.184"/>
		
			<rect x="214.969" y="97.13" transform="matrix(0.0882 -0.9961 0.9961 0.0882 91.5137 311.4132)" fill="#F3F3F3" stroke="#595959" stroke-width="0.5" stroke-miterlimit="10" width="1.765" height="17.184"/>
		
			<rect x="214.822" y="90.726" transform="matrix(0.229 -0.9734 0.9734 0.229 69.6296 286.5466)" fill="#F3F3F3" stroke="#595959" stroke-width="0.5" stroke-miterlimit="10" width="1.765" height="17.184"/>
		
			<rect x="215.014" y="83.58" transform="matrix(0.152 -0.9884 0.9884 0.152 91.9708 291.5446)" fill="#F3F3F3" stroke="#595959" stroke-width="0.5" stroke-miterlimit="10" width="1.765" height="17.184"/>
		
			<rect x="214.918" y="77.348" transform="matrix(0.0451 -0.999 0.999 0.0451 120.2132 297.6439)" fill="#F3F3F3" stroke="#595959" stroke-width="0.5" stroke-miterlimit="10" width="1.765" height="17.184"/>
		
			<rect x="214.918" y="71.039" transform="matrix(0.152 -0.9884 0.9884 0.152 104.2851 280.8153)" fill="#F3F3F3" stroke="#595959" stroke-width="0.5" stroke-miterlimit="10" width="1.765" height="17.184"/>
		
			<rect x="214.822" y="64.632" transform="matrix(0.0451 -0.999 0.999 0.0451 132.8244 285.4061)" fill="#F3F3F3" stroke="#595959" stroke-width="0.5" stroke-miterlimit="10" width="1.765" height="17.184"/>
		
			<rect x="214.822" y="58.351" transform="matrix(0.2052 -0.9787 0.9787 0.2052 105.9311 264.3244)" fill="#F3F3F3" stroke="#595959" stroke-width="0.5" stroke-miterlimit="10" width="1.765" height="17.184"/>
		
			<rect x="214.84" y="52.069" transform="matrix(0.152 -0.9884 0.9884 0.152 122.9683 264.6527)" fill="#F3F3F3" stroke="#595959" stroke-width="0.5" stroke-miterlimit="10" width="1.765" height="17.184"/>
		
			<rect x="214.822" y="45.787" transform="matrix(0.0847 -0.9964 0.9964 0.0847 143.2427 264.7002)" fill="#F3F3F3" stroke="#595959" stroke-width="0.5" stroke-miterlimit="10" width="1.765" height="17.184"/>
		
			<rect x="215.032" y="39.506" transform="matrix(0.2379 -0.9713 0.9713 0.2379 117.8274 246.3685)" fill="#F3F3F3" stroke="#595959" stroke-width="0.5" stroke-miterlimit="10" width="1.765" height="17.184"/>
	</g>
	<g>
		<g>
			
				<rect x="23.401" y="79.418" transform="matrix(-1.836970e-16 1 -1 -1.836970e-16 124.1507 52.6379)" fill="#F3F3F3" stroke="#595959" stroke-width="0.5" stroke-miterlimit="10" width="24.71" height="17.952"/>
			
				<rect x="40.137" y="87.713" transform="matrix(8.774597e-14 1 -1 8.774597e-14 133.6153 42.9803)" fill="#F3F3F3" stroke="#595959" stroke-width="0.5" stroke-miterlimit="10" width="10.36" height="1.17"/>
		</g>
		<g>
			
				<rect x="26.78" y="39.628" fill-rule="evenodd" clip-rule="evenodd" fill="#F3F3F3" stroke="#595959" stroke-width="0.5" stroke-miterlimit="10" width="90.448" height="35.104"/>
			
				<polyline fill-rule="evenodd" clip-rule="evenodd" fill="#F3F3F3" stroke="#595959" stroke-width="0.5" stroke-miterlimit="10" points="
				51.972,41.102 31.169,41.102 31.169,73.258 62.727,73.258 			"/>
			
				<rect x="33.419" y="43.107" fill-rule="evenodd" clip-rule="evenodd" fill="#F3F3F3" stroke="#595959" stroke-width="0.5" stroke-miterlimit="10" width="19.267" height="28.146"/>
			
				<polygon fill-rule="evenodd" clip-rule="evenodd" fill="#F3F3F3" stroke="#595959" stroke-width="0.5" stroke-miterlimit="10" points="
				51.092,41.102 51.092,54.093 51.092,54.093 62.466,73.258 114.668,73.258 114.668,73.187 114.668,41.102 			"/>
			
				<polygon fill-rule="evenodd" clip-rule="evenodd" fill="#F3F3F3" stroke="#595959" stroke-width="0.5" stroke-miterlimit="10" points="
				62.529,72.913 70.544,60.21 51.544,54.813 			"/>
		</g>
	</g>
	<g>
		<g>
			<path fill="#F3F3F3" stroke="#595959" stroke-width="0.5" stroke-miterlimit="10" d="M49.476,139.835l17.328,0.024
				c1.1,0.002,1.999,0.903,1.997,2.003l-0.022,15.51c-0.002,1.1-0.903,1.999-2.003,1.997l-17.328-0.024
				c-1.1-0.002-1.999-0.903-1.997-2.003l0.022-15.51C47.474,140.732,48.376,139.833,49.476,139.835z"/>
			<path fill="#F3F3F3" stroke="#595959" stroke-width="0.5" stroke-miterlimit="10" d="M48.859,139.834l18.562,0.026
				c0.761,0.001,1.384-0.62,1.385-1.381l0.003-1.891c0.001-0.761-0.62-1.384-1.381-1.385l-18.562-0.026
				c-0.761-0.001-1.384,0.62-1.385,1.381l-0.003,1.891C47.476,139.209,48.098,139.833,48.859,139.834z"/>
		</g>
		
			<rect x="26.38" y="151.624" transform="matrix(-1 -1.224647e-16 1.224647e-16 -1 116.2595 326.139)" fill-rule="evenodd" clip-rule="evenodd" fill="#F3F3F3" stroke="#595959" stroke-width="0.5" stroke-miterlimit="10" width="63.499" height="22.891"/>
	</g>
</g>
<g id="numbers">
	<g>
		<path d="M61.269,100.656c-0.724-0.398-1.292-0.951-1.703-1.658c-0.412-0.706-0.618-1.497-0.618-2.372s0.206-1.666,0.618-2.373
			s0.981-1.259,1.709-1.658c0.728-0.398,1.542-0.598,2.444-0.598c0.676,0,1.3,0.113,1.872,0.338
			c0.572,0.225,1.057,0.555,1.456,0.988l-0.611,0.611c-0.711-0.719-1.608-1.079-2.691-1.079c-0.719,0-1.374,0.165-1.963,0.494
			c-0.589,0.33-1.051,0.78-1.384,1.352c-0.334,0.572-0.5,1.213-0.5,1.924c0,0.71,0.167,1.352,0.5,1.924
			c0.333,0.572,0.795,1.023,1.384,1.352c0.589,0.33,1.244,0.494,1.963,0.494c1.092,0,1.989-0.364,2.691-1.092l0.611,0.611
			c-0.399,0.434-0.886,0.765-1.462,0.995c-0.577,0.23-1.203,0.345-1.878,0.345C62.804,101.254,61.992,101.055,61.269,100.656z"/>
		<path d="M74.951,94.338v6.838h-0.923v-6.019h-4.29v6.019h-0.923v-6.838H74.951z"/>
		<path d="M81.983,94.955c0.476,0.447,0.715,1.107,0.715,1.983v4.238h-0.884v-1.066c-0.208,0.355-0.513,0.633-0.917,0.832
			c-0.403,0.199-0.882,0.299-1.436,0.299c-0.763,0-1.37-0.182-1.82-0.546c-0.451-0.364-0.676-0.845-0.676-1.443
			c0-0.581,0.21-1.049,0.63-1.404c0.42-0.355,1.09-0.533,2.008-0.533h2.171v-0.416c0-0.589-0.165-1.038-0.494-1.346
			c-0.33-0.308-0.811-0.461-1.443-0.461c-0.434,0-0.85,0.071-1.248,0.214c-0.399,0.143-0.741,0.34-1.027,0.592l-0.416-0.689
			c0.347-0.295,0.763-0.522,1.248-0.683s0.997-0.241,1.534-0.241C80.822,94.286,81.506,94.509,81.983,94.955z M80.943,100.156
			c0.373-0.238,0.65-0.583,0.832-1.034v-1.118H79.63c-1.17,0-1.755,0.407-1.755,1.222c0,0.399,0.152,0.713,0.455,0.943
			s0.728,0.344,1.274,0.344C80.124,100.513,80.57,100.394,80.943,100.156z"/>
		<path d="M90.745,94.338v6.838h-0.923v-6.019h-3.276l-0.091,1.69c-0.069,1.421-0.234,2.514-0.494,3.276
			c-0.26,0.763-0.724,1.144-1.391,1.144c-0.182,0-0.403-0.035-0.663-0.104l0.065-0.793c0.156,0.035,0.264,0.052,0.325,0.052
			c0.355,0,0.624-0.165,0.806-0.494c0.182-0.329,0.303-0.736,0.364-1.222c0.061-0.485,0.112-1.126,0.156-1.924l0.117-2.444H90.745z"
			/>
		<path d="M98.266,97.328c0.446,0.373,0.669,0.91,0.669,1.612c0,0.728-0.24,1.287-0.722,1.677c-0.481,0.39-1.176,0.581-2.086,0.572
			l-2.756-0.013v-6.838h0.923v2.392l2.015,0.026C97.167,96.765,97.819,96.955,98.266,97.328z M97.512,100.104
			c0.325-0.265,0.487-0.652,0.487-1.164c0-0.503-0.16-0.875-0.481-1.118s-0.802-0.368-1.443-0.377l-1.781-0.026v3.042l1.781,0.026
			C96.708,100.496,97.187,100.368,97.512,100.104z"/>
		<path d="M100.69,94.338h0.923v3.029h4.303v-3.029h0.923v6.838h-0.923V98.16h-4.303v3.016h-0.923V94.338z"/>
		<path d="M114.717,94.338v6.838h-0.845v-2.262h-2.145h-0.26l-1.586,2.262h-1.001l1.703-2.392c-0.529-0.147-0.936-0.398-1.222-0.754
			s-0.429-0.806-0.429-1.352c0-0.763,0.26-1.343,0.78-1.742c0.52-0.398,1.23-0.598,2.132-0.598H114.717z M111.805,98.225h2.067
			v-3.068h-2.002c-1.334,0-2.002,0.516-2.002,1.547C109.868,97.718,110.513,98.225,111.805,98.225z"/>
		<path d="M62.198,108.176v9.8h-1.82v-8.274h-2.072v-1.526H62.198z"/>
		<path d="M72.88,115.75h-1.736v2.226H69.38v-2.226h-5.376v-1.26l4.83-6.314h1.946l-4.55,6.034h3.206v-1.974h1.708v1.974h1.736
			V115.75z"/>
		<path d="M75.848,116.072c0.214,0.215,0.322,0.495,0.322,0.84c0,0.149-0.021,0.306-0.063,0.469
			c-0.042,0.164-0.128,0.409-0.259,0.735l-0.714,1.974H74l0.56-2.142c-0.206-0.084-0.367-0.217-0.483-0.399
			c-0.117-0.182-0.175-0.395-0.175-0.637c0-0.345,0.107-0.625,0.322-0.84c0.214-0.215,0.485-0.322,0.812-0.322
			C75.362,115.75,75.633,115.857,75.848,116.072z"/>
		<path d="M83.366,112.299c0.513,0.247,0.915,0.6,1.204,1.057c0.29,0.458,0.434,0.985,0.434,1.582c0,0.635-0.159,1.192-0.476,1.673
			c-0.317,0.481-0.747,0.852-1.288,1.113c-0.542,0.261-1.148,0.392-1.82,0.392c-1.344,0-2.387-0.42-3.129-1.26
			c-0.742-0.84-1.113-2.044-1.113-3.612c0-1.101,0.2-2.042,0.602-2.821c0.401-0.779,0.964-1.372,1.687-1.778
			c0.724-0.406,1.561-0.609,2.513-0.609c0.504,0,0.978,0.054,1.421,0.161s0.828,0.264,1.155,0.469l-0.672,1.372
			c-0.485-0.317-1.106-0.476-1.862-0.476c-0.943,0-1.68,0.29-2.212,0.868c-0.532,0.579-0.798,1.414-0.798,2.506v0.014
			c0.289-0.336,0.658-0.59,1.106-0.763c0.448-0.172,0.952-0.259,1.512-0.259C82.273,111.928,82.852,112.052,83.366,112.299z
			 M82.708,116.233c0.354-0.303,0.532-0.707,0.532-1.211c0-0.513-0.178-0.919-0.532-1.218c-0.355-0.299-0.831-0.448-1.428-0.448
			c-0.588,0-1.066,0.159-1.435,0.476c-0.369,0.317-0.553,0.719-0.553,1.204c0,0.476,0.18,0.87,0.539,1.183
			c0.359,0.313,0.856,0.469,1.491,0.469C81.891,116.688,82.353,116.536,82.708,116.233z"/>
	</g>
	<g>
		<path d="M117.977,281.419c-0.724-0.399-1.292-0.951-1.703-1.658c-0.412-0.706-0.618-1.497-0.618-2.372s0.206-1.666,0.618-2.373
			c0.412-0.706,0.981-1.259,1.709-1.657s1.542-0.599,2.444-0.599c0.676,0,1.3,0.113,1.872,0.339
			c0.572,0.225,1.057,0.555,1.456,0.987l-0.611,0.611c-0.711-0.72-1.608-1.079-2.691-1.079c-0.719,0-1.374,0.165-1.963,0.494
			s-1.051,0.78-1.384,1.352c-0.334,0.572-0.5,1.214-0.5,1.925s0.167,1.352,0.5,1.924c0.333,0.572,0.795,1.022,1.384,1.352
			c0.589,0.33,1.244,0.494,1.963,0.494c1.092,0,1.989-0.363,2.691-1.092l0.611,0.611c-0.399,0.434-0.886,0.765-1.462,0.994
			c-0.577,0.229-1.203,0.345-1.878,0.345C119.512,282.017,118.7,281.818,117.977,281.419z"/>
		<path d="M131.659,275.101v6.838h-0.923v-6.02h-4.29v6.02h-0.923v-6.838H131.659z"/>
		<path d="M138.691,275.718c0.476,0.446,0.715,1.107,0.715,1.982v4.238h-0.884v-1.066c-0.208,0.355-0.513,0.633-0.917,0.832
			c-0.403,0.2-0.882,0.3-1.436,0.3c-0.763,0-1.37-0.183-1.82-0.547c-0.451-0.363-0.676-0.845-0.676-1.442
			c0-0.581,0.21-1.049,0.63-1.404s1.09-0.533,2.008-0.533h2.171v-0.416c0-0.589-0.165-1.038-0.494-1.345
			c-0.33-0.309-0.811-0.462-1.443-0.462c-0.434,0-0.85,0.071-1.248,0.214c-0.399,0.144-0.741,0.341-1.027,0.592l-0.416-0.688
			c0.347-0.295,0.763-0.522,1.248-0.683s0.997-0.241,1.534-0.241C137.53,275.048,138.214,275.272,138.691,275.718z M137.651,280.918
			c0.373-0.238,0.65-0.583,0.832-1.033v-1.118h-2.145c-1.17,0-1.755,0.407-1.755,1.222c0,0.399,0.152,0.713,0.455,0.942
			c0.303,0.23,0.728,0.345,1.274,0.345C136.832,281.276,137.278,281.157,137.651,280.918z"/>
		<path d="M147.453,275.101v6.838h-0.923v-6.02h-3.276l-0.091,1.69c-0.069,1.422-0.234,2.514-0.494,3.276
			c-0.26,0.763-0.724,1.144-1.391,1.144c-0.182,0-0.403-0.034-0.663-0.104l0.065-0.793c0.156,0.034,0.264,0.052,0.325,0.052
			c0.355,0,0.624-0.165,0.806-0.494c0.182-0.329,0.303-0.736,0.364-1.222s0.112-1.127,0.156-1.924l0.117-2.444H147.453z"/>
		<path d="M154.974,278.091c0.446,0.372,0.669,0.909,0.669,1.611c0,0.729-0.24,1.287-0.722,1.678
			c-0.481,0.39-1.176,0.58-2.086,0.571l-2.756-0.013v-6.838h0.923v2.392l2.015,0.026
			C153.875,277.528,154.527,277.718,154.974,278.091z M154.22,280.867c0.325-0.265,0.487-0.652,0.487-1.164
			c0-0.502-0.16-0.875-0.481-1.117c-0.321-0.243-0.802-0.369-1.443-0.378l-1.781-0.025v3.042l1.781,0.025
			C153.416,281.258,153.895,281.131,154.22,280.867z"/>
		<path d="M157.398,275.101h0.923v3.029h4.303v-3.029h0.923v6.838h-0.923v-3.016h-4.303v3.016h-0.923V275.101z"/>
		<path d="M171.425,275.101v6.838h-0.845v-2.262h-2.145h-0.26l-1.586,2.262h-1.001l1.703-2.392
			c-0.529-0.147-0.936-0.399-1.222-0.755c-0.286-0.354-0.429-0.806-0.429-1.352c0-0.763,0.26-1.343,0.78-1.742
			c0.52-0.398,1.23-0.598,2.132-0.598H171.425z M168.513,278.988h2.067v-3.068h-2.002c-1.334,0-2.002,0.517-2.002,1.548
			C166.576,278.481,167.221,278.988,168.513,278.988z"/>
		<path d="M118.906,288.939v9.8h-1.82v-8.274h-2.072v-1.525H118.906z"/>
		<path d="M129.588,296.513h-1.736v2.226h-1.764v-2.226h-5.376v-1.261l4.83-6.313h1.946l-4.55,6.034h3.206v-1.975h1.708v1.975h1.736
			V296.513z"/>
		<path d="M132.556,296.834c0.214,0.215,0.322,0.495,0.322,0.84c0,0.149-0.021,0.307-0.063,0.47s-0.128,0.408-0.259,0.734
			l-0.714,1.975h-1.134l0.56-2.143c-0.206-0.084-0.367-0.217-0.483-0.398c-0.117-0.183-0.175-0.395-0.175-0.638
			c0-0.345,0.107-0.625,0.322-0.84c0.214-0.214,0.485-0.321,0.812-0.321C132.07,296.513,132.341,296.62,132.556,296.834z"/>
		<path d="M142.72,296.513h-1.736v2.226h-1.764v-2.226h-5.376v-1.261l4.83-6.313h1.946l-4.55,6.034h3.206v-1.975h1.708v1.975h1.736
			V296.513z"/>
	</g>
	<g>
		<path d="M39.916,264.482h9.1v0.949h-8.268v4.394l3.042,0.104c1.257,0.043,2.269,0.145,3.036,0.305
			c0.767,0.161,1.339,0.405,1.716,0.735c0.377,0.329,0.565,0.767,0.565,1.313c0,0.234-0.03,0.477-0.091,0.729l-0.858-0.078
			c0.035-0.147,0.052-0.291,0.052-0.43c0-0.381-0.151-0.69-0.455-0.929c-0.303-0.238-0.773-0.418-1.41-0.54
			c-0.637-0.121-1.48-0.203-2.529-0.247l-3.9-0.13V264.482z"/>
		<path d="M48.633,260.595c-0.299,0.528-0.713,0.944-1.242,1.247c-0.528,0.304-1.126,0.455-1.794,0.455s-1.265-0.151-1.794-0.455
			c-0.529-0.303-0.94-0.719-1.235-1.247c-0.294-0.529-0.442-1.123-0.442-1.781c0-0.659,0.147-1.253,0.442-1.781
			c0.295-0.528,0.707-0.942,1.235-1.241c0.529-0.299,1.126-0.449,1.794-0.449s1.266,0.15,1.794,0.449
			c0.529,0.299,0.942,0.713,1.242,1.241c0.299,0.528,0.448,1.122,0.448,1.781C49.081,259.472,48.932,260.066,48.633,260.595z
			 M47.931,257.507c-0.221-0.386-0.535-0.687-0.942-0.903s-0.871-0.325-1.391-0.325s-0.983,0.108-1.391,0.325
			c-0.407,0.217-0.722,0.518-0.942,0.903c-0.221,0.386-0.332,0.821-0.332,1.307s0.11,0.921,0.332,1.307
			c0.221,0.386,0.535,0.688,0.942,0.909c0.408,0.222,0.871,0.332,1.391,0.332s0.984-0.11,1.391-0.332
			c0.407-0.221,0.721-0.523,0.942-0.909s0.332-0.821,0.332-1.307S48.152,257.893,47.931,257.507z"/>
		<path d="M48.21,246.737h2.457v0.871h-1.651v6.123h1.651v0.871H48.21v-0.39c-0.026-0.459-0.364-0.771-1.014-0.937
			c-0.65-0.164-1.56-0.277-2.73-0.338l-2.288-0.091v-5.044h6.032V246.737z M46.917,252.34c0.628,0.121,1.06,0.338,1.293,0.65v-4.265
			h-5.213v3.289l1.521,0.078C45.489,252.136,46.289,252.219,46.917,252.34z"/>
		<path d="M45.974,238.951v1.481h3.042v0.923h-3.042v1.482l3.042,2.093v1.105l-3.523-2.457l-3.315,2.262v-1.001l3.003-2.002v-1.482
			h-3.003v-0.923h3.003v-1.481l-3.003-2.016v-1.001l3.328,2.263l3.51-2.457v1.104L45.974,238.951z"/>
		<path d="M42.178,234.204v-0.923h5.434l-5.434-4.563V227.9h6.838v0.923h-5.434l5.434,4.551v0.831H42.178z"/>
		<path d="M42.178,220.008h6.838v0.846h-2.262v2.145v0.26l2.262,1.587v1.001l-2.392-1.703c-0.147,0.528-0.398,0.936-0.754,1.222
			s-0.806,0.429-1.352,0.429c-0.763,0-1.343-0.26-1.742-0.779c-0.398-0.521-0.598-1.231-0.598-2.133V220.008z M46.065,222.92v-2.066
			h-3.068v2.002c0,1.335,0.516,2.002,1.547,2.002C45.558,224.858,46.065,224.212,46.065,222.92z"/>
	</g>
	<g>
		<path d="M361.123,232.323h-2.08v4.173h-0.936v-9.1h0.936v4.082h2.08l3.081-4.082h1.04l-3.38,4.42l3.575,4.68h-1.105
			L361.123,232.323z"/>
		<path d="M372.498,229.658l-3.419,7.657c-0.277,0.641-0.598,1.096-0.962,1.364s-0.802,0.403-1.313,0.403
			c-0.329,0-0.637-0.052-0.923-0.156c-0.286-0.104-0.533-0.26-0.741-0.468l0.43-0.688c0.347,0.346,0.763,0.52,1.248,0.52
			c0.312,0,0.578-0.087,0.799-0.26c0.222-0.174,0.427-0.468,0.618-0.884l0.299-0.663l-3.056-6.825h0.963l2.573,5.811l2.574-5.811
			H372.498z"/>
		<path d="M377.828,236.495l-2.171-2.86l-2.184,2.86h-1.04l2.704-3.51l-2.574-3.328h1.04l2.054,2.678l2.054-2.678h1.015
			l-2.574,3.328l2.729,3.51H377.828z"/>
		<path d="M380.39,229.658h0.923v3.029h4.303v-3.029h0.923v6.838h-0.923v-3.016h-4.303v3.016h-0.923V229.658z"/>
		<path d="M394.416,229.658v6.838h-0.846v-2.262h-2.145h-0.26l-1.587,2.262h-1.001l1.703-2.392
			c-0.528-0.147-0.936-0.399-1.222-0.755c-0.286-0.354-0.429-0.806-0.429-1.352c0-0.763,0.26-1.343,0.779-1.742
			c0.521-0.398,1.231-0.598,2.133-0.598H394.416z M391.504,233.544h2.066v-3.067h-2.002c-1.335,0-2.002,0.516-2.002,1.547
			C389.566,233.037,390.212,233.544,391.504,233.544z"/>
		<path d="M396.509,232.57h3.405v0.806h-3.405V232.57z"/>
		<path d="M358.933,251.718c-0.533-0.295-0.951-0.709-1.254-1.241c-0.304-0.533-0.455-1.134-0.455-1.801s0.151-1.266,0.455-1.794
			c0.303-0.528,0.721-0.94,1.254-1.235c0.533-0.294,1.138-0.441,1.813-0.441c0.59,0,1.116,0.114,1.58,0.344
			c0.463,0.23,0.829,0.565,1.098,1.008l-0.688,0.468c-0.226-0.338-0.512-0.591-0.858-0.76s-0.724-0.254-1.131-0.254
			c-0.494,0-0.938,0.11-1.332,0.331c-0.395,0.222-0.702,0.536-0.923,0.943c-0.222,0.407-0.332,0.87-0.332,1.391
			c0,0.528,0.11,0.994,0.332,1.397c0.221,0.403,0.528,0.715,0.923,0.936c0.394,0.222,0.838,0.332,1.332,0.332
			c0.407,0,0.784-0.082,1.131-0.247s0.633-0.416,0.858-0.754l0.688,0.468c-0.269,0.442-0.637,0.778-1.104,1.008
			s-0.992,0.345-1.573,0.345C360.07,252.16,359.466,252.013,358.933,251.718z"/>
		<path d="M369.886,246.076h-2.587v6.019h-0.923v-6.019h-2.587v-0.819h6.097V246.076z"/>
		<path d="M371.952,251.711c-0.528-0.299-0.944-0.713-1.247-1.241c-0.304-0.528-0.455-1.127-0.455-1.794s0.151-1.266,0.455-1.794
			c0.303-0.528,0.719-0.94,1.247-1.235c0.529-0.294,1.123-0.441,1.781-0.441c0.659,0,1.253,0.147,1.781,0.441
			c0.528,0.295,0.942,0.707,1.241,1.235s0.449,1.127,0.449,1.794s-0.15,1.266-0.449,1.794s-0.713,0.942-1.241,1.241
			s-1.122,0.449-1.781,0.449C373.075,252.16,372.481,252.01,371.952,251.711z M375.04,251.009c0.386-0.221,0.687-0.534,0.903-0.942
			c0.217-0.407,0.325-0.871,0.325-1.391c0-0.521-0.108-0.983-0.325-1.391s-0.518-0.722-0.903-0.943
			c-0.386-0.221-0.821-0.331-1.307-0.331s-0.921,0.11-1.307,0.331c-0.386,0.222-0.688,0.536-0.909,0.943
			c-0.222,0.407-0.332,0.87-0.332,1.391c0,0.52,0.11,0.983,0.332,1.391c0.221,0.408,0.523,0.722,0.909,0.942
			c0.386,0.222,0.821,0.332,1.307,0.332S374.654,251.231,375.04,251.009z"/>
		<path d="M384.731,245.257v6.838h-0.923v-6.019h-3.276l-0.091,1.689c-0.069,1.422-0.234,2.514-0.494,3.276
			s-0.724,1.144-1.392,1.144c-0.182,0-0.402-0.034-0.662-0.104l0.064-0.793c0.156,0.034,0.265,0.052,0.325,0.052
			c0.355,0,0.624-0.165,0.806-0.494c0.183-0.329,0.304-0.736,0.364-1.222s0.112-1.127,0.156-1.924l0.117-2.444H384.731z"/>
		<path d="M388.396,251.711c-0.528-0.299-0.944-0.713-1.247-1.241c-0.304-0.528-0.455-1.127-0.455-1.794s0.151-1.266,0.455-1.794
			c0.303-0.528,0.719-0.94,1.247-1.235c0.529-0.294,1.123-0.441,1.781-0.441c0.659,0,1.253,0.147,1.781,0.441
			c0.528,0.295,0.942,0.707,1.241,1.235s0.449,1.127,0.449,1.794s-0.15,1.266-0.449,1.794s-0.713,0.942-1.241,1.241
			s-1.122,0.449-1.781,0.449C389.52,252.16,388.926,252.01,388.396,251.711z M391.484,251.009c0.386-0.221,0.687-0.534,0.903-0.942
			c0.217-0.407,0.325-0.871,0.325-1.391c0-0.521-0.108-0.983-0.325-1.391s-0.518-0.722-0.903-0.943
			c-0.386-0.221-0.821-0.331-1.307-0.331s-0.921,0.11-1.307,0.331c-0.386,0.222-0.688,0.536-0.909,0.943
			c-0.222,0.407-0.332,0.87-0.332,1.391c0,0.52,0.11,0.983,0.332,1.391c0.221,0.408,0.523,0.722,0.909,0.942
			c0.386,0.222,0.821,0.332,1.307,0.332S391.099,251.231,391.484,251.009z"/>
		<path d="M401.37,250.236c0,0.599-0.221,1.058-0.662,1.378c-0.442,0.321-1.102,0.481-1.977,0.481h-3.106v-6.838h3.016
			c0.78,0,1.391,0.151,1.833,0.455c0.441,0.304,0.663,0.736,0.663,1.3c0,0.373-0.103,0.691-0.306,0.955
			c-0.204,0.265-0.487,0.462-0.852,0.592C400.907,248.776,401.37,249.334,401.37,250.236z M396.521,248.299h2.054
			c0.529,0,0.935-0.1,1.216-0.299s0.423-0.49,0.423-0.871c0-0.382-0.142-0.667-0.423-0.858c-0.281-0.19-0.687-0.286-1.216-0.286
			h-2.054V248.299z M400.019,251.081c0.295-0.19,0.442-0.49,0.442-0.897s-0.135-0.708-0.403-0.903s-0.693-0.293-1.274-0.293h-2.262
			v2.38h2.171C399.282,251.368,399.724,251.272,400.019,251.081z"/>
		<path d="M407.936,245.874c0.477,0.446,0.715,1.107,0.715,1.982v4.238h-0.884v-1.066c-0.208,0.355-0.514,0.633-0.916,0.832
			c-0.403,0.2-0.882,0.3-1.437,0.3c-0.763,0-1.37-0.183-1.82-0.547c-0.45-0.363-0.676-0.845-0.676-1.442
			c0-0.581,0.21-1.049,0.63-1.404c0.421-0.355,1.09-0.533,2.009-0.533h2.171v-0.416c0-0.589-0.164-1.037-0.494-1.345
			c-0.329-0.308-0.81-0.462-1.442-0.462c-0.434,0-0.85,0.071-1.248,0.215c-0.398,0.143-0.741,0.34-1.027,0.591l-0.416-0.688
			c0.347-0.295,0.763-0.522,1.248-0.683s0.997-0.24,1.534-0.24C406.774,245.205,407.459,245.428,407.936,245.874z M406.896,251.075
			c0.373-0.238,0.65-0.583,0.832-1.033v-1.118h-2.145c-1.17,0-1.755,0.407-1.755,1.222c0,0.399,0.151,0.713,0.455,0.942
			c0.303,0.23,0.728,0.345,1.273,0.345C406.077,251.432,406.523,251.313,406.896,251.075z"/>
		<path d="M416.36,245.257v6.838h-0.846v-2.262h-2.145h-0.26l-1.587,2.262h-1.001l1.703-2.392c-0.528-0.147-0.936-0.399-1.222-0.755
			c-0.286-0.354-0.429-0.806-0.429-1.352c0-0.763,0.26-1.343,0.779-1.742c0.521-0.398,1.231-0.598,2.133-0.598H416.36z
			 M413.448,249.144h2.066v-3.067h-2.002c-1.335,0-2.002,0.516-2.002,1.547C411.511,248.637,412.156,249.144,413.448,249.144z"/>
		<path d="M364.287,267.356v1.54h-7.224v-1.218l3.892-3.696c0.438-0.42,0.735-0.786,0.89-1.099c0.153-0.313,0.23-0.623,0.23-0.932
			c0-0.457-0.154-0.807-0.462-1.05c-0.308-0.242-0.761-0.364-1.358-0.364c-0.998,0-1.764,0.341-2.296,1.022l-1.273-0.98
			c0.382-0.513,0.897-0.912,1.547-1.196c0.648-0.285,1.374-0.428,2.177-0.428c1.064,0,1.913,0.252,2.548,0.757
			c0.635,0.504,0.952,1.189,0.952,2.058c0,0.532-0.112,1.031-0.336,1.498s-0.653,0.999-1.288,1.596l-2.618,2.492H364.287z"/>
		<path d="M372.435,267.356v1.54h-7.224v-1.218l3.892-3.696c0.438-0.42,0.735-0.786,0.89-1.099c0.153-0.313,0.23-0.623,0.23-0.932
			c0-0.457-0.154-0.807-0.462-1.05c-0.308-0.242-0.761-0.364-1.358-0.364c-0.998,0-1.764,0.341-2.296,1.022l-1.273-0.98
			c0.382-0.513,0.897-0.912,1.547-1.196c0.648-0.285,1.374-0.428,2.177-0.428c1.064,0,1.913,0.252,2.548,0.757
			c0.635,0.504,0.952,1.189,0.952,2.058c0,0.532-0.112,1.031-0.336,1.498s-0.653,0.999-1.288,1.596l-2.618,2.492H372.435z"/>
		<path d="M375.542,266.992c0.215,0.215,0.322,0.495,0.322,0.84c0,0.149-0.021,0.307-0.063,0.47s-0.128,0.408-0.259,0.734
			l-0.714,1.975h-1.135l0.561-2.143c-0.205-0.084-0.366-0.217-0.483-0.398c-0.116-0.183-0.175-0.395-0.175-0.638
			c0-0.345,0.107-0.625,0.322-0.84c0.215-0.214,0.485-0.321,0.812-0.321C375.057,266.67,375.327,266.778,375.542,266.992z"/>
		<path d="M383.473,260.216c0.742,0.84,1.113,2.044,1.113,3.611c0,1.102-0.201,2.042-0.603,2.821s-0.964,1.372-1.687,1.778
			c-0.724,0.405-1.562,0.608-2.513,0.608c-0.504,0-0.979-0.054-1.421-0.161c-0.444-0.106-0.829-0.263-1.155-0.469l0.672-1.372
			c0.485,0.317,1.105,0.477,1.862,0.477c0.942,0,1.68-0.289,2.212-0.868c0.531-0.579,0.798-1.414,0.798-2.506v-0.015
			c-0.289,0.336-0.658,0.591-1.106,0.764c-0.447,0.173-0.952,0.259-1.512,0.259c-0.644,0-1.223-0.124-1.736-0.371
			c-0.513-0.247-0.914-0.6-1.204-1.057c-0.289-0.457-0.434-0.985-0.434-1.582c0-0.635,0.158-1.192,0.476-1.673
			c0.317-0.481,0.747-0.852,1.288-1.113c0.542-0.262,1.148-0.393,1.82-0.393C381.688,258.955,382.73,259.376,383.473,260.216z
			 M381.919,263.24c0.368-0.317,0.553-0.719,0.553-1.204c0-0.476-0.18-0.87-0.539-1.183s-0.856-0.469-1.491-0.469
			c-0.569,0-1.031,0.151-1.386,0.455c-0.354,0.303-0.532,0.707-0.532,1.211c0,0.513,0.178,0.919,0.532,1.218
			s0.831,0.448,1.428,0.448C381.072,263.716,381.55,263.557,381.919,263.24z"/>
	</g>
	<g>
		<path d="M39.457,295.04c0.476,0.504,0.714,1.134,0.714,1.89c0,0.57-0.145,1.088-0.434,1.555c-0.29,0.467-0.726,0.838-1.309,1.112
			c-0.583,0.275-1.295,0.413-2.135,0.413c-0.7,0-1.374-0.1-2.023-0.301c-0.648-0.2-1.202-0.479-1.659-0.833l0.784-1.414
			c0.355,0.299,0.786,0.534,1.295,0.707s1.034,0.259,1.575,0.259c0.644,0,1.15-0.133,1.519-0.398
			c0.369-0.267,0.553-0.628,0.553-1.085s-0.175-0.814-0.525-1.071c-0.35-0.257-0.884-0.385-1.603-0.385h-0.896v-1.246l2.226-2.646
			h-4.452v-1.525h6.678v1.218l-2.38,2.828C38.29,294.229,38.98,294.536,39.457,295.04z"/>
		<path d="M43.279,297.966c0.214,0.215,0.322,0.495,0.322,0.84c0,0.149-0.021,0.307-0.063,0.47s-0.128,0.408-0.259,0.734
			l-0.714,1.975h-1.134l0.56-2.143c-0.206-0.084-0.367-0.217-0.483-0.398c-0.117-0.183-0.175-0.395-0.175-0.638
			c0-0.345,0.107-0.625,0.322-0.84c0.214-0.214,0.485-0.321,0.812-0.321C42.793,297.645,43.064,297.752,43.279,297.966z"/>
		<path d="M53.443,297.645h-1.736v2.226h-1.764v-2.226h-5.376v-1.261l4.83-6.313h1.946l-4.55,6.034h3.206v-1.975h1.708v1.975h1.736
			V297.645z"/>
	</g>
	<g>
		<path d="M444.882,66.68c0.662,0.537,0.994,1.267,0.994,2.191c0,0.588-0.145,1.12-0.435,1.596
			c-0.289,0.476-0.723,0.854-1.302,1.134c-0.579,0.28-1.293,0.42-2.142,0.42c-0.7,0-1.377-0.101-2.03-0.301
			s-1.204-0.478-1.652-0.833l0.771-1.414c0.364,0.299,0.8,0.535,1.309,0.707c0.509,0.173,1.034,0.259,1.575,0.259
			c0.645,0,1.15-0.133,1.52-0.399c0.368-0.266,0.553-0.632,0.553-1.099c0-0.504-0.198-0.884-0.595-1.141
			c-0.397-0.256-1.076-0.385-2.037-0.385h-2.366l0.504-5.334h5.754v1.526h-4.214l-0.21,2.268h0.938
			C443.197,65.875,444.219,66.143,444.882,66.68z"/>
		<path d="M448.844,69.977c0.215,0.215,0.322,0.495,0.322,0.84c0,0.149-0.021,0.306-0.063,0.469
			c-0.042,0.164-0.128,0.409-0.259,0.735l-0.714,1.974h-1.135l0.561-2.142c-0.205-0.084-0.366-0.217-0.483-0.399
			c-0.116-0.182-0.175-0.395-0.175-0.637c0-0.345,0.107-0.625,0.322-0.84s0.485-0.322,0.812-0.322
			C448.358,69.655,448.629,69.763,448.844,69.977z"/>
		<path d="M452.161,71.426c-0.615-0.396-1.101-0.975-1.455-1.736c-0.355-0.761-0.532-1.664-0.532-2.709s0.177-1.948,0.532-2.709
			c0.354-0.761,0.84-1.339,1.455-1.736c0.616-0.396,1.316-0.595,2.101-0.595s1.486,0.198,2.106,0.595
			c0.621,0.397,1.108,0.976,1.464,1.736c0.354,0.761,0.531,1.664,0.531,2.709s-0.177,1.948-0.531,2.709
			c-0.355,0.761-0.843,1.339-1.464,1.736c-0.62,0.397-1.322,0.595-2.106,0.595S452.777,71.823,452.161,71.426z M455.921,69.571
			c0.405-0.579,0.608-1.442,0.608-2.59s-0.203-2.011-0.608-2.59c-0.406-0.578-0.959-0.868-1.659-0.868
			c-0.69,0-1.239,0.29-1.646,0.868c-0.405,0.579-0.608,1.442-0.608,2.59s0.203,2.011,0.608,2.59
			c0.406,0.579,0.955,0.868,1.646,0.868C454.962,70.439,455.515,70.15,455.921,69.571z"/>
	</g>
	<g>
		<path d="M301.545,83.873h-1.735v2.226h-1.765v-2.226h-5.376v-1.26l4.83-6.314h1.946l-4.55,6.034h3.206v-1.974h1.708v1.974h1.735
			V83.873z"/>
		<path d="M304.514,84.195c0.215,0.215,0.322,0.495,0.322,0.84c0,0.149-0.021,0.306-0.063,0.469
			c-0.042,0.164-0.128,0.409-0.259,0.735l-0.714,1.974h-1.135l0.561-2.142c-0.205-0.084-0.366-0.217-0.483-0.399
			c-0.116-0.182-0.175-0.395-0.175-0.637c0-0.345,0.107-0.625,0.322-0.84s0.485-0.322,0.812-0.322
			C304.028,83.873,304.299,83.98,304.514,84.195z"/>
		<path d="M312.031,80.422c0.514,0.247,0.915,0.6,1.204,1.057c0.289,0.458,0.435,0.985,0.435,1.582c0,0.635-0.159,1.192-0.477,1.673
			c-0.317,0.481-0.747,0.852-1.288,1.113s-1.147,0.392-1.819,0.392c-1.345,0-2.388-0.42-3.13-1.26
			c-0.741-0.84-1.112-2.044-1.112-3.612c0-1.101,0.2-2.042,0.602-2.821c0.401-0.779,0.964-1.372,1.688-1.778
			c0.723-0.406,1.561-0.609,2.513-0.609c0.504,0,0.978,0.054,1.421,0.161s0.828,0.264,1.155,0.469l-0.672,1.372
			c-0.485-0.317-1.106-0.476-1.862-0.476c-0.942,0-1.68,0.29-2.212,0.868s-0.798,1.414-0.798,2.506v0.014
			c0.289-0.336,0.658-0.59,1.105-0.763c0.448-0.172,0.952-0.259,1.513-0.259C310.939,80.051,311.519,80.175,312.031,80.422z
			 M311.374,84.356c0.354-0.303,0.531-0.707,0.531-1.211c0-0.513-0.177-0.919-0.531-1.218c-0.355-0.299-0.831-0.448-1.429-0.448
			c-0.588,0-1.066,0.159-1.435,0.476c-0.369,0.317-0.553,0.719-0.553,1.204c0,0.476,0.179,0.87,0.538,1.183
			c0.359,0.313,0.856,0.469,1.491,0.469C310.557,84.811,311.019,84.66,311.374,84.356z"/>
	</g>
	<g>
		<path d="M480.391,170.09v1.54h-7.224v-1.218l3.892-3.696c0.438-0.42,0.735-0.786,0.89-1.099c0.153-0.313,0.23-0.623,0.23-0.931
			c0-0.458-0.154-0.807-0.462-1.05c-0.308-0.243-0.761-0.364-1.358-0.364c-0.998,0-1.764,0.341-2.296,1.022l-1.273-0.98
			c0.382-0.513,0.897-0.912,1.547-1.197c0.648-0.284,1.374-0.427,2.177-0.427c1.064,0,1.913,0.252,2.548,0.756
			s0.952,1.19,0.952,2.058c0,0.532-0.112,1.031-0.336,1.498s-0.653,0.999-1.288,1.596l-2.618,2.492H480.391z"/>
		<path d="M483.498,169.726c0.215,0.215,0.322,0.495,0.322,0.84c0,0.149-0.021,0.306-0.063,0.469
			c-0.042,0.164-0.128,0.409-0.259,0.735l-0.714,1.974h-1.135l0.561-2.142c-0.205-0.084-0.366-0.217-0.483-0.399
			c-0.116-0.182-0.175-0.395-0.175-0.637c0-0.345,0.107-0.625,0.322-0.84s0.485-0.322,0.812-0.322
			C483.013,169.404,483.283,169.512,483.498,169.726z"/>
		<path d="M491.016,165.953c0.514,0.247,0.915,0.6,1.204,1.057c0.289,0.458,0.435,0.985,0.435,1.582
			c0,0.635-0.159,1.192-0.477,1.673c-0.317,0.481-0.747,0.852-1.288,1.113s-1.147,0.392-1.819,0.392c-1.345,0-2.388-0.42-3.13-1.26
			c-0.741-0.84-1.112-2.044-1.112-3.612c0-1.101,0.2-2.042,0.602-2.821c0.401-0.779,0.964-1.372,1.688-1.778
			c0.723-0.406,1.561-0.609,2.513-0.609c0.504,0,0.978,0.054,1.421,0.161s0.828,0.264,1.155,0.469l-0.672,1.372
			c-0.485-0.317-1.106-0.476-1.862-0.476c-0.942,0-1.68,0.29-2.212,0.868s-0.798,1.414-0.798,2.506v0.014
			c0.289-0.336,0.658-0.59,1.105-0.763c0.448-0.172,0.952-0.259,1.513-0.259C489.924,165.582,490.503,165.706,491.016,165.953z
			 M490.358,169.887c0.354-0.303,0.531-0.707,0.531-1.211c0-0.513-0.177-0.919-0.531-1.218c-0.355-0.299-0.831-0.448-1.429-0.448
			c-0.588,0-1.066,0.159-1.435,0.476c-0.369,0.317-0.553,0.719-0.553,1.204c0,0.476,0.179,0.87,0.538,1.183
			c0.359,0.313,0.856,0.469,1.491,0.469C489.541,170.342,490.003,170.191,490.358,169.887z"/>
	</g>
</g>
<g>
</g>
<g>
</g>
<g>
</g>
<g>
</g>
<g>
</g>
<g>
</g>
</svg>
