<svg id="Слой_1" data-name="Слой 1" xmlns="http://www.w3.org/2000/svg" viewBox="0 0 130.57091 163.19991"><title>1.05.02</title><path d="M159.1707,280.20509h-2.5432v6.8201h2.5432Zm4.4416,3.92821h-2.5432v2.89189h2.5432Zm0-3.96111h-2.5432v2.89191h2.5432Zm1.14839-1.1483h-9.08249V289.7227h9.08249Z" transform="translate(-147.3131 -130.4332)" style="fill:#003915;fill-rule:evenodd"/><path d="M227.0659,274.09039v2.5433H220.106v-2.5433Zm0-4.33609v2.5432H220.106v-2.5432Zm-4.068-4.4416v2.5432H220.106v-2.5432Zm4.068,0v2.5432H224.174v-2.5432Zm-9.72571-2.5892H230.0168V283.915H217.34019Z" transform="translate(-147.3131 -130.4332)" style="fill:#003915;fill-rule:evenodd"/><path d="M194.864,216.9165a.374.374,0,0,1,.3748-.6474l13.92011,8.0399a.374.374,0,0,1-.3748.6474Z" transform="translate(-147.3131 -130.4332)" style="fill:#003915"/><path d="M218.8145,165.22531a.374.374,0,0,1,.3748-.6474l13.92011,8.03989a.374.374,0,0,1-.3748.6474Z" transform="translate(-147.3131 -130.4332)" style="fill:#003915"/><path d="M190.1546,267.5526a.37405.37405,0,0,1-.64751-.37469l8.0399-13.92011a.37405.37405,0,0,1,.64751.37469Z" transform="translate(-147.3131 -130.4332)" style="fill:#003915"/><rect x="61.1459" y="28.3558" width="2.6022" height="67.6442" style="fill:#003915"/><rect x="1.07721" y="93.3978" width="42.68469" height="2.6022" style="fill:#003915"/><rect x="2.39531" y="96.7308" width="39.4308" height="2.6022" style="fill:#003915"/><rect x="40.01331" y="94.782" width="2.6022" height="25.617" style="fill:#003915"/><rect x="70.0271" y="113.6851" width="2.6022" height="18.8652" style="fill:#003915"/><rect x="39.94391" y="136.34731" width="2.6022" height="25.6169" style="fill:#003915"/><rect x="125.56889" width="5.00201" height="157.32001" style="fill:#003915"/><rect y="9.6377" width="4.5204" height="147.68231" style="fill:#003915"/><rect y="156.77431" width="42.54611" height="6.4256" style="fill:#003915"/><rect x="62.7186" y="156.77431" width="13.5462" height="6.4256" style="fill:#003915"/><rect x="70.0271" y="150.96581" width="60.54381" height="6.4256" style="fill:#003915"/><rect x="100.8562" y="30.8942" width="27.39232" height="8.16011" style="fill:#003915"/><rect x="61.1459" y="30.8942" width="10.50211" height="8.16011" style="fill:#003915"/><rect y="5.5199" width="17.5507" height="8.1601" style="fill:#003915"/><rect x="46.38451" y="5.5199" width="22.92149" height="8.1601" style="fill:#003915"/><rect x="63.7861" y="113.6851" width="8.1601" height="12.7843" style="fill:#003915"/><rect x="61.1459" width="8.1601" height="39.05431" style="fill:#003915"/><rect x="58.68401" width="10.62199" height="13.67999" style="fill:#003915"/><rect x="31.02611" y="8.5217" width="0.50169" height="2.29871" style="fill:#003915"/><rect x="32.2249" y="8.5217" width="0.5011" height="2.29871" style="fill:#003915"/><rect x="44.862" y="8.5217" width="0.5014" height="2.29871" style="fill:#003915"/><rect x="46.0605" y="8.5217" width="0.5011" height="2.29871" style="fill:#003915"/><rect x="16.9144" y="8.5217" width="0.50171" height="2.29871" style="fill:#003915"/><rect x="18.1129" y="8.5217" width="0.5011" height="2.29871" style="fill:#003915"/><rect x="14.52481" y="5.5199" width="34.09369" height="0.5014" style="fill:#003915"/><rect x="14.52481" y="8.367" width="34.09369" height="0.5014" style="fill:#003915"/><rect x="14.52481" y="10.5383" width="34.09369" height="0.5015" style="fill:#003915"/><rect x="14.52481" y="13.17941" width="34.09369" height="0.5014" style="fill:#003915"/><path d="M238.2392,164.67511V166.345h-.697v-1.66989Zm13.5692,0V166.345H238.74071v-1.66989Zm1.19821,0V166.345h-.69711v-1.66989Zm.50169,1.66989v-1.66989h5.78949v-.5014H237.54221V161.828h21.75558v-.5015H237.041v8.161h22.25679V168.986H237.54221v-2.13959H255.594v-.5014Z" transform="translate(-147.3131 -130.4332)" style="fill:#003915;fill-rule:evenodd"/><rect x="87.20001" y="3.84" width="0.44699" height="1.29721" style="fill:#003915"/><rect x="88.26811" y="3.84" width="0.44669" height="1.29721" style="fill:#003915"/><rect x="105.802" y="3.84" width="0.4471" height="1.29721" style="fill:#003915"/><rect x="106.8701" y="3.84" width="0.44681" height="1.29721" style="fill:#003915"/><rect x="124.4044" y="3.84" width="0.44699" height="1.29721" style="fill:#003915"/><rect x="125.47252" y="3.84" width="0.44669" height="1.29721" style="fill:#003915"/><rect x="68.59761" y="3.84" width="0.44699" height="1.29721" style="fill:#003915"/><rect x="69.66571" y="3.84" width="0.4467" height="1.29721" style="fill:#003915"/><rect x="67.1647" y="2.61069" width="60.8213" height="0.44672" style="fill:#003915"/><rect x="67.1647" y="3.702" width="60.8213" height="0.44672" style="fill:#003915"/><rect x="67.1647" y="4.78281" width="60.8213" height="0.44681" style="fill:#003915"/><rect x="129.45012" y="3.84" width="0.44699" height="1.29721" style="fill:#003915"/><rect x="130.5182" y="3.84" width="0.0527" height="1.29721" style="fill:#003915"/><rect x="128.0172" y="2.61069" width="2.55371" height="0.44672" style="fill:#003915"/><rect x="128.0172" y="3.702" width="2.55371" height="0.44672" style="fill:#003915"/><rect x="128.0172" y="4.78281" width="2.55371" height="0.44681" style="fill:#003915"/><path d="M152.2267,257.63451v-9.8224a.90526.90526,0,0,1,.904-.9053h4.6102a4.5956,4.5956,0,0,1,4.591,4.58949v2.4523a4.59566,4.59566,0,0,1-4.591,4.59041h-4.6102a.90471.90471,0,0,1-.904-.9045m9.8606-6.13821a4.351,4.351,0,0,0-4.34639-4.34489h-4.6102a.66143.66143,0,0,0-.65991.66071v9.8224a.66075.66075,0,0,0,.65991.6599h4.6102a4.35141,4.35141,0,0,0,4.34639-4.34581Z" transform="translate(-147.3131 -130.4332)" style="fill:#003915"/><path d="M160.9971,251.4966a3.2587,3.2587,0,0,0-3.25619-3.25439h-2.688a.56778.56778,0,0,0-.5675.5672v3.5753h-.24519v-3.5753a.814.814,0,0,1,.8127-.81241h2.688a3.50406,3.50406,0,0,1,3.50079,3.4996v2.4523a3.5047,3.5047,0,0,1-3.50079,3.50081h-2.688a.81449.81449,0,0,1-.8127-.81361v-3.57529h.24519v3.57529a.5683.5683,0,0,0,.5675.56841h2.688a3.2594,3.2594,0,0,0,3.25619-3.2556Z" transform="translate(-147.3131 -130.4332)" style="fill:#003915"/><path d="M157.3934,252.7235a.7835.7835,0,1,1,.78349.78371.78473.78473,0,0,1-.78349-.78371m1.3224,0a.53875.53875,0,1,0-.53891.53911A.53971.53971,0,0,0,158.71581,252.7235Z" transform="translate(-147.3131 -130.4332)" style="fill:#003915"/><rect x="10.3051" y="122.1678" width="1.11661" height="0.2449" style="fill:#003915"/><rect x="10.7408" y="121.7318" width="0.2455" height="1.11601" style="fill:#003915"/><path d="M153.409,253.06081v.40359a.17366.17366,0,0,0,.1741.1729h.3793a.17357.17357,0,0,0,.174-.1729v-.40359h.2449v.40359a.41867.41867,0,0,1-.4189.41809h-.3793a.41862.41862,0,0,1-.4187-.41809v-.40561l.0374.002Zm.7274-1.07721a.17438.17438,0,0,0-.174-.174h-.3793a.17447.17447,0,0,0-.1741.174v.40111h-.2072l-.0374.00229v-.4034a.41863.41863,0,0,1,.4187-.4187h.3793a.41867.41867,0,0,1,.4189.4187v.40111h-.2449Z" transform="translate(-147.3131 -130.4332)" style="fill:#003915"/><path d="M152.7415,252.7235a.461.461,0,0,1,.4603-.4612h3.0804a.46045.46045,0,0,1,0,.9209h-3.0804a.46052.46052,0,0,1-.4603-.4597m3.7567,0a.2167.2167,0,0,0-.216-.21629h-3.0804a.21555.21555,0,0,0,0,.43109h3.0804A.21606.21606,0,0,0,156.4982,252.7235Z" transform="translate(-147.3131 -130.4332)" style="fill:#003915"/><path d="M166.22591,271.5092a3.91691,3.91691,0,0,0-3.913-3.9115h-5.6653a.67726.67726,0,0,0-.63919.4561,1.24476,1.24476,0,0,0-.20491-.20351.94567.94567,0,0,1,.8441-.52159h5.6653a4.18079,4.18079,0,1,1,0,8.36159h-5.6653a.94552.94552,0,0,1-.8436-.521,1.2369,1.2369,0,0,0,.2047-.2032.6764.6764,0,0,0,.6389.45551h5.6653a3.9171,3.9171,0,0,0,3.913-3.9124" transform="translate(-147.3131 -130.4332)" style="fill:#003915"/><path d="M157.7285,274.313v-5.609a.20391.20391,0,0,1,.20149-.2012h4.27071a3.00655,3.00655,0,1,1,0,6.01311H157.93a.20465.20465,0,0,1-.20149-.2029m.2681-5.5415v5.476h4.2041a2.738,2.738,0,0,0,0-5.476Z" transform="translate(-147.3131 -130.4332)" style="fill:#003915"/><path d="M160.4594,271.5089a1.00815,1.00815,0,1,1,1.008,1.00891,1.01006,1.01006,0,0,1-1.008-1.00891m1.7475,0a.7394.7394,0,1,0-.73949.7399A.74027.74027,0,0,0,162.20689,271.5089Z" transform="translate(-147.3131 -130.4332)" style="fill:#003915"/><rect x="159.24893" y="268.76641" width="0.26853" height="2.24223" transform="translate(-299.5564 105.82098) rotate(-53.27585)" style="fill:#003915"/><rect x="158.26187" y="272.95229" width="2.24306" height="0.2691" transform="translate(-279.15562 19.49947) rotate(-36.80799)" style="fill:#003915"/><path d="M152.2267,274.20979V268.8092a1.355,1.355,0,0,1,1.35381-1.3524h1.47429a1.35344,1.35344,0,0,1,1.3524,1.3524v5.40059a1.35312,1.35312,0,0,1-1.3524,1.35181h-1.47429a1.3547,1.3547,0,0,1-1.35381-1.35181m3.91209-5.40059a1.08541,1.08541,0,0,0-1.084-1.0842h-1.47429a1.08584,1.08584,0,0,0-1.0851,1.0842v5.40059a1.08594,1.08594,0,0,0,1.0851,1.08371h1.47429a1.08551,1.08551,0,0,0,1.084-1.08371Z" transform="translate(-147.3131 -130.4332)" style="fill:#003915"/><path d="M153.629,271.5089a.6881.6881,0,1,1,.68741.68831.68816.68816,0,0,1-.68741-.68831m1.10721,0a.41925.41925,0,1,0-.4198.4196A.41935.41935,0,0,0,154.73621,271.5089Z" transform="translate(-147.3131 -130.4332)" style="fill:#003915"/><path d="M175.4566,278.7699h0v7.83951h11.348V278.7699Zm-.33081,8.17081v-8.5025h12.0099v8.5025Z" transform="translate(-147.3131 -130.4332)" style="fill:#003915"/><path d="M177.8511,278.54539a.60437.60437,0,0,1,.59349-.61259h5.3723a.60411.60411,0,0,1,.59381.61259h-.33081a.26961.26961,0,0,0-.263-.2809h-5.3723a.26937.26937,0,0,0-.2627.2809Z" transform="translate(-147.3131 -130.4332)" style="fill:#003915"/><path d="M180.1089,281.172h0v2.7076l1.59731.62161a2.47377,2.47377,0,0,0-.0919-1.67471,4.15461,4.15461,0,0,1-.24121-1.24069,2.44992,2.44992,0,0,1,.1882-.9366Zm-.3309,2.9341v-3.1669l2.4801-.892-.22481.39061a2.26577,2.26577,0,0,0-.32939,1.148,3.89039,3.89039,0,0,0,.22679,1.1438,3.90011,3.90011,0,0,1,.22821,1.1441,2.01728,2.01728,0,0,1-.218.9124l-.0675.1358Z" transform="translate(-147.3131 -130.4332)" style="fill:#003915"/><path d="M154.3779,244.5838h30.085a2.16115,2.16115,0,0,0,2.15149-2.1657V232.0067a2.16093,2.16093,0,0,0-2.15149-2.16589h-30.085a2.16081,2.16081,0,0,0-2.1512,2.16589v10.41141a2.161,2.161,0,0,0,2.1512,2.1657m30.085-14.51311a1.93114,1.93114,0,0,1,1.92189,1.936v10.41141a1.931,1.931,0,0,1-1.92189,1.93549h-30.085a1.93141,1.93141,0,0,1-1.9222-1.93549V232.0067a1.93152,1.93152,0,0,1,1.9222-1.936Z" transform="translate(-147.3131 -130.4332)" style="fill:#003915"/><path d="M181.4771,231.3326a2.57712,2.57712,0,0,1,2.5654,2.58211v6.5948a2.5766,2.5766,0,0,1-2.5654,2.58179H157.36391a2.577,2.577,0,0,1-2.5659-2.58179v-2.0619a.39605.39605,0,0,1-.22821.142v1.91991a2.80641,2.80641,0,0,0,2.79411,2.81259H181.4771a2.80666,2.80666,0,0,0,2.7944-2.81259v-6.5948a2.80658,2.80658,0,0,0-2.7944-2.81221H157.36391a2.80633,2.80633,0,0,0-2.79411,2.81221v1.9202a.39531.39531,0,0,1,.22821.14149V233.9147a2.57755,2.57755,0,0,1,2.5659-2.58211Z" transform="translate(-147.3131 -130.4332)" style="fill:#003915"/><path d="M179.9297,232.6459a1.26665,1.26665,0,0,1,1.26109,1.2688v6.5948a1.26635,1.26635,0,0,1-1.26109,1.2683h-22.5658a1.26628,1.26628,0,0,1-1.26141-1.2683v-2.8448h-.2287v2.8448a1.4962,1.4962,0,0,0,1.49011,1.499h22.5658a1.49564,1.49564,0,0,0,1.4893-1.499v-6.5948a1.49524,1.49524,0,0,0-1.4893-1.4989h-22.5658a1.4958,1.4958,0,0,0-1.49011,1.4989v2.8452h.2287v-2.8452a1.26659,1.26659,0,0,1,1.26141-1.2688Z" transform="translate(-147.3131 -130.4332)" style="fill:#003915"/><path d="M159.2691,237.945a.73331.73331,0,1,0-.7299-.7336.73144.73144,0,0,0,.7299.7336m0-1.23639a.50326.50326,0,1,1-.50031.50279A.50189.50189,0,0,1,159.2691,236.7086Z" transform="translate(-147.3131 -130.4332)" style="fill:#003915"/><rect x="11.84091" y="106.2558" width="0.22929" height="1.0457" style="fill:#003915"/><rect x="11.43671" y="106.6628" width="1.0378" height="0.2308" style="fill:#003915"/><path d="M154.7691,237.6647v.5374a.27991.27991,0,0,1-.27861.2804h-.50519a.28042.28042,0,0,1-.27921-.2804v-.5374h-.2287v.5374a.51033.51033,0,0,0,.5079.51109h.50519a.50971.50971,0,0,0,.5074-.51109v-.5374Zm-.27861-1.72211a.27985.27985,0,0,1,.27861.28011v.5372h.22879v-.5372a.50926.50926,0,0,0-.5074-.5108h-.50519a.50988.50988,0,0,0-.5079.5108v.5372h.2287v-.5372a.28035.28035,0,0,1,.27921-.28011Z" transform="translate(-147.3131 -130.4332)" style="fill:#003915"/><path d="M153.47929,237.78h3.2012a.56761.56761,0,0,0,0-1.13519h-3.2012a.56761.56761,0,0,0,0,1.13519m3.2012-.90511a.33721.33721,0,0,1,0,.67441h-3.2012a.33721.33721,0,0,1,0-.67441Z" transform="translate(-147.3131 -130.4332)" style="fill:#003915"/><path d="M236.5217,269.2713h11.7692v11.7688H236.5217Zm11.5197.2494H236.7709v11.2706H248.0414Z" transform="translate(-147.3131 -130.4332)" style="fill:#003915"/><path d="M242.4061,279.942a3.91958,3.91958,0,0,0,.9817-7.7142.29994.29994,0,0,0,.0742-.1976v-.0405a4.16847,4.16847,0,1,1-2.11151-.00031v.0408a.29837.29837,0,0,0,.074.1973,3.91975,3.91975,0,0,0,.9816,7.71451" transform="translate(-147.3131 -130.4332)" style="fill:#003915"/><path d="M242.4061,272.54131a3.4815,3.4815,0,1,1-3.4812,3.4818,3.48579,3.48579,0,0,1,3.4812-3.4818m0,6.71359a3.23195,3.23195,0,1,0-3.2317-3.2318A3.23547,3.23547,0,0,0,242.4061,279.2549Z" transform="translate(-147.3131 -130.4332)" style="fill:#003915"/><path d="M242.4061,275.12061a.90224.90224,0,1,1-.9025.9025.90334.90334,0,0,1,.9025-.9025m0,1.55559a.65295.65295,0,1,0-.65309-.65309A.65424.65424,0,0,0,242.4061,276.67619Z" transform="translate(-147.3131 -130.4332)" style="fill:#003915"/><rect x="94.96831" y="144.9326" width="0.2495" height="1.3138" style="fill:#003915"/><rect x="94.43631" y="145.4646" width="1.31349" height="0.24971" style="fill:#003915"/><path d="M241.6524,271.2164h1.50749a.42706.42706,0,0,1,.42661.42661v.38719a.42687.42687,0,0,1-.42661.42661H241.6524a.42681.42681,0,0,1-.42661-.42661V271.643a.427.427,0,0,1,.42661-.42661m1.50749.991a.17764.17764,0,0,0,.1774-.1772V271.643a.17744.17744,0,0,0-.1774-.1772H241.6524a.17727.17727,0,0,0-.1772.1772v.38719a.17747.17747,0,0,0,.1772.1772Z" transform="translate(-147.3131 -130.4332)" style="fill:#003915"/><path d="M242.6261,271.3411v-.0864a.2197.2197,0,1,0-.43939,0v.0864H241.937v-.0864a.4694.4694,0,0,1,.9388,0v.0864Zm-.22,2.59a.22044.22044,0,0,0,.22-.2205v-1.37851h.24969v1.37851a.4694.4694,0,1,1-.9388,0v-1.37851h.24971v1.37851A.22.22,0,0,0,242.4061,273.93111Z" transform="translate(-147.3131 -130.4332)" style="fill:#003915"/><path d="M265.18649,269.75259h-7.15659a1.49613,1.49613,0,0,0-1.4942,1.49471V279.546a1.49593,1.49593,0,0,0,1.4942,1.49409h7.15659a1.49554,1.49554,0,0,0,1.49411-1.49409V271.2473a1.49574,1.49574,0,0,0-1.49411-1.49471m-7.15659,11.0545a1.26264,1.26264,0,0,1-1.2612-1.26109V271.2473a1.26278,1.26278,0,0,1,1.2612-1.2617h7.15659a1.26308,1.26308,0,0,1,1.26172,1.2617V279.546a1.26294,1.26294,0,0,1-1.26172,1.26109Z" transform="translate(-147.3131 -130.4332)" style="fill:#003915"/><path d="M265.18649,270.5715h-7.15659a.67623.67623,0,0,0-.67581.6758v7.0106a.67636.67636,0,0,0,.67581.6758h7.15659a.67644.67644,0,0,0,.6763-.6758v-7.0106a.67632.67632,0,0,0-.6763-.6758m-7.15659,8.1292a.44326.44326,0,0,1-.44312-.44279v-7.0106a.44358.44358,0,0,1,.44312-.4431h7.15659a.44394.44394,0,0,1,.44391.4431v7.0106a.44362.44362,0,0,1-.44391.44279Z" transform="translate(-147.3131 -130.4332)" style="fill:#003915"/><path d="M258.73,279.3524a.47425.47425,0,1,0,.4743.4742.47511.47511,0,0,0-.4743-.4742m0,.7155a.24125.24125,0,1,1,.24149-.2413A.242.242,0,0,1,258.73,280.0679Z" transform="translate(-147.3131 -130.4332)" style="fill:#003915"/><path d="M260.33069,279.3524a.47425.47425,0,1,0,.47482.4742.475.475,0,0,0-.47482-.4742m0,.7155a.24125.24125,0,1,1,.24182-.2413A.24163.24163,0,0,1,260.33069,280.0679Z" transform="translate(-147.3131 -130.4332)" style="fill:#003915"/><rect x="110.9702" y="142.2807" width="2.71951" height="0.2328" style="fill:#003915"/><rect x="112.2137" y="141.03661" width="0.23282" height="2.71959" style="fill:#003915"/><path d="M259.6431,271.9333a.89685.89685,0,1,0,.89661.8969.89791.89791,0,0,0-.89661-.8969m0,1.561a.6643.6643,0,1,1,.66379-.66409A.66555.66555,0,0,1,259.6431,273.49429Z" transform="translate(-147.3131 -130.4332)" style="fill:#003915"/><rect x="110.9702" y="146.1259" width="2.71951" height="0.2325" style="fill:#003915"/><rect x="112.2137" y="144.8815" width="0.23282" height="2.7204" style="fill:#003915"/><path d="M259.6431,275.7776a.8972.8972,0,1,0,.89661.89749.89862.89862,0,0,0-.89661-.89749m0,1.56189a.6647.6647,0,1,1,.66379-.6644A.66541.66541,0,0,1,259.6431,277.33949Z" transform="translate(-147.3131 -130.4332)" style="fill:#003915"/><rect x="114.90102" y="142.2807" width="2.7193" height="0.2328" style="fill:#003915"/><rect x="116.14452" y="141.03661" width="0.233" height="2.71959" style="fill:#003915"/><path d="M263.5741,271.9333a.89685.89685,0,1,0,.89691.8969.89778.89778,0,0,0-.89691-.8969m0,1.561a.6643.6643,0,1,1,.66391-.66409A.666.666,0,0,1,263.5741,273.49429Z" transform="translate(-147.3131 -130.4332)" style="fill:#003915"/><rect x="114.90102" y="146.1259" width="2.7193" height="0.2325" style="fill:#003915"/><rect x="116.14452" y="144.8815" width="0.233" height="2.7204" style="fill:#003915"/><path d="M263.5741,275.7776a.8972.8972,0,1,0,.89691.89749.89849.89849,0,0,0-.89691-.89749m0,1.56189a.6647.6647,0,1,1,.66391-.6644A.66583.66583,0,0,1,263.5741,277.33949Z" transform="translate(-147.3131 -130.4332)" style="fill:#003915"/><path d="M263.04431,279.3524a.47425.47425,0,1,0,.47458.4742.47485.47485,0,0,0-.47458-.4742m0,.7155a.24125.24125,0,1,1,.24179-.2413A.2417.2417,0,0,1,263.04431,280.0679Z" transform="translate(-147.3131 -130.4332)" style="fill:#003915"/><path d="M264.6459,279.3524a.47425.47425,0,1,0,.474.4742.47465.47465,0,0,0-.474-.4742m0,.7155a.24125.24125,0,1,1,.24149-.2413A.2417.2417,0,0,1,264.6459,280.0679Z" transform="translate(-147.3131 -130.4332)" style="fill:#003915"/><path d="M154.3737,284.99159a.80938.80938,0,1,0,.2347.57091.81023.81023,0,0,0-.2347-.57091m-.5726-1.03629a1.60705,1.60705,0,1,1-1.1364.47049A1.60311,1.60311,0,0,1,153.8011,283.95531Z" transform="translate(-147.3131 -130.4332)" style="fill:#003915"/><path d="M199.89439,289.9509v2.17841h-.38409V289.9509h-.55161l.37811-1.3148.37869-1.3147.3782,1.3147.3784,1.3148Zm3.7287-.22569a3.90784,3.90784,0,1,0-3.90759,3.9079A3.908,3.908,0,0,0,203.62309,289.7252Z" transform="translate(-147.3131 -130.4332)" style="fill:#558e42;fill-rule:evenodd"/><path d="M178.68221,261.4698c-.7319,0-1.2359-.618-1.2359-1.74s.504-1.7399,1.2359-1.7399,1.2359.618,1.2359,1.7399-.504,1.74-1.2359,1.74m0,.396c.972,0,1.67979-.798,1.67979-2.136s-.70779-2.13589-1.67979-2.13589-1.6739.798-1.6739,2.13589S177.71021,261.8658,178.68221,261.8658Zm-3.97191-.396c-.7319,0-1.2359-.618-1.2359-1.74s.504-1.7399,1.2359-1.7399,1.2359.618,1.2359,1.7399S175.4422,261.4698,174.7103,261.4698Zm0,.396c.972,0,1.67981-.798,1.67981-2.136s-.70781-2.13589-1.67981-2.13589-1.67389.798-1.67389,2.13589S173.7383,261.8658,174.7103,261.8658Zm-2.54979-.66a.31407.31407,0,0,0-.318.324.303.303,0,0,0,.216.30589l-.2041.87h.288l.252-.828a.9766.9766,0,0,0,.08421-.3479A.314.314,0,0,0,172.16051,261.2058Zm-2.622-1.8541h-.54l.144-1.33791h1.91989v-.3839H168.7646l-.216,2.1059h.894c1.0679,0,1.40381.33591,1.40381.8759,0,.51-.3779.85811-1.0919.85811a1.82143,1.82143,0,0,1-1.2901-.4859l-.20981.3419a2.16871,2.16871,0,0,0,1.50581.54c1.0262,0,1.5239-.55791,1.5239-1.272C171.2843,259.84979,170.8044,259.3517,169.5385,259.3517Z" transform="translate(-147.3131 -130.4332)" style="fill:#6e6e6e;fill-rule:evenodd"/><path d="M183.3559,188.26981c-.7319,0-1.2359-.6179-1.2359-1.73991s.504-1.7399,1.2359-1.7399,1.2359.618,1.2359,1.7399-.504,1.73991-1.2359,1.73991m0,.396c.972,0,1.67981-.7979,1.67981-2.13591s-.70781-2.13589-1.67981-2.13589-1.6738.798-1.6738,2.13589S182.3839,188.6658,183.3559,188.6658Zm-3.63-2.43581,1.188-1.49409V184.43h-2.7v.3838h2.1481L179.1981,186.272v.318h.2999c.7798,0,1.1338.33,1.1338.834,0,.5218-.3838.84581-1.08.84581a1.84106,1.84106,0,0,1-1.30191-.48581l-.2101.3418a2.1847,2.1847,0,0,0,1.512.54c1.014,0,1.5239-.54,1.5239-1.24181C181.0757,186.75189,180.6259,186.27789,179.72591,186.23Zm-2.4299,1.77591a.31405.31405,0,0,0-.318.324.30314.30314,0,0,0,.216.30591l-.2041.87h.288l.252-.828a.9767.9767,0,0,0,.0842-.3479A.314.314,0,0,0,177.296,188.00591ZM174.5419,184.43v.3838h.9901v3.816h.432V184.43Zm-2.166,0v.3838h.9902v3.816h.432V184.43Z" transform="translate(-147.3131 -130.4332)" style="fill:#6e6e6e;fill-rule:evenodd"/><path d="M209.3363,275.2699c-.7319,0-1.2359-.6179-1.2359-1.7399s.504-1.7399,1.2359-1.7399,1.2359.618,1.2359,1.7399-.504,1.7399-1.2359,1.7399m0,.396c.972,0,1.67979-.7979,1.67979-2.13589s-.70779-2.13589-1.67979-2.13589-1.6738.798-1.6738,2.13589S208.3643,275.66589,209.3363,275.66589Zm-2.0701-1.5239h-.8399v-.972h-.4198v.972h-1.8241l2.1481-2.7119h-.48021l-2.2258,2.78391v.3118h2.3698v1.1041h.432v-1.1041h.8399Zm-4.4337.864a.31407.31407,0,0,0-.318.324.30311.30311,0,0,0,.216.30589l-.2041.8699h.288l.252-.828a.97589.97589,0,0,0,.0842-.34779A.314.314,0,0,0,202.8325,275.006Zm-3.24.23981,1.4281-1.4037a1.72917,1.72917,0,0,0,.69-1.3141c0-.7019-.54-1.1339-1.39211-1.1339a1.88727,1.88727,0,0,0-1.4879.59979l.3058.26421a1.42637,1.42637,0,0,1,1.1461-.468c.642,0,.9839.2999.9839.7861,0,.2877-.0899.5697-.5638,1.0377l-1.7462,1.71019v.3058h2.94609v-.38409Z" transform="translate(-147.3131 -130.4332)" style="fill:#6e6e6e;fill-rule:evenodd"/><path d="M252.05611,258.76981c-.7319,0-1.2359-.618-1.2359-1.74s.504-1.7399,1.2359-1.7399,1.2359.618,1.2359,1.7399-.504,1.74-1.2359,1.74m0,.396c.972,0,1.67979-.798,1.67979-2.136s-.70779-2.13589-1.67979-2.13589-1.67381.798-1.67381,2.13589S251.08411,259.1658,252.05611,259.1658Zm-4.098-4.2359v.3839h.9901v3.816h.432V254.9299Zm-.61169,3.5759a.31414.31414,0,0,0-.3181.324.30314.30314,0,0,0,.216.30589l-.20409.87h.288l.252-.828a.97651.97651,0,0,0,.0842-.3479A.314.314,0,0,0,247.34641,258.5058Zm-3.66611-3.5759v1.16989h.4261v-.786h2.16l-1.728,3.816h.468l1.758-3.894v-.30589Zm-2.304,0v.3839h.9902v3.816h.432V254.9299Z" transform="translate(-147.3131 -130.4332)" style="fill:#6e6e6e;fill-rule:evenodd"/><path d="M247.5085,150.76981c-.7319,0-1.2359-.618-1.2359-1.74s.504-1.7399,1.2359-1.7399,1.2359.618,1.2359,1.7399-.504,1.74-1.2359,1.74m0,.396c.972,0,1.67979-.798,1.67979-2.136s-.70779-2.13589-1.67979-2.13589-1.6739.798-1.6739,2.13589S246.5365,151.1658,247.5085,151.1658Zm-4.5-.42011,1.4281-1.40381a1.72885,1.72885,0,0,0,.69-1.31409c0-.7019-.54-1.13391-1.39211-1.13391a1.887,1.887,0,0,0-1.4879.59991l.3058.2641a1.42643,1.42643,0,0,1,1.1461-.468c.642,0,.9839.29993.9839.7861,0,.28772-.0899.56982-.5638,1.03781l-1.7462,1.71011v.30588h2.94609v-.38409Zm-1.55991-.2399a.31406.31406,0,0,0-.318.324.30305.30305,0,0,0,.216.30591l-.2041.87h.288l.252-.828a.976.976,0,0,0,.08411-.3479A.314.314,0,0,0,241.44859,150.5058Zm-2.28609-1.77591,1.188-1.49408v-.30591h-2.7v.38391h2.1481l-1.164,1.4581v.318h.3c.7798,0,1.1338.33,1.1338.834,0,.52191-.3838.84592-1.08.84592a1.8411,1.8411,0,0,1-1.30191-.4859l-.2101.34189a2.185,2.185,0,0,0,1.512.54c1.014,0,1.5239-.54,1.5239-1.24191C240.5123,149.2518,240.0625,148.7778,239.16251,148.72989Z" transform="translate(-147.3131 -130.4332)" style="fill:#6e6e6e;fill-rule:evenodd"/><rect x="88.75171" y="96.6035" width="28.40541" height="17.267" style="fill:#fff"/><path d="M248.0083,139.90939l.6927-.8714v-.17859H247.1261v.224h1.2529l-.67889.85059v.18539h.1749c.45531,0,.66161.1925.66161.48642,0,.3045-.22391.49359-.62981.49359a1.07438,1.07438,0,0,1-.7597-.28351l-.1225.19962a1.2753,1.2753,0,0,0,.8822.31491c.59129,0,.8889-.31491.8889-.72461,0-.392-.2625-.6684-.7874-.69641m-2.1351,1.20752c-.434,0-.68939-.189-.68939-.4935,0-.301.25539-.49011.68939-.49011s.6931.18909.6931.49011C246.5663,140.92789,246.30721,141.11691,245.8732,141.11691Zm-.6055-1.6239c0-.273.2347-.4411.6055-.4411.36771,0,.60921.16809.60921.44449,0,.26611-.22771.43759-.60921.43759C245.4919,139.934,245.2677,139.76251,245.2677,139.493Zm1.078.532a.55492.55492,0,0,0,.39209-.53909c0-.3989-.34639-.64749-.86459-.64749-.5179,0-.8575.2486-.8575.64749a.55286.55286,0,0,0,.38519.53909.611.611,0,0,0-.47249.60181c0,.434.35689.70361.94479.70361.5845,0,.95219-.26962.95219-.70361A.617.617,0,0,0,246.3457,140.025Zm-1.9879.92041a.18318.18318,0,0,0-.18541.18909.17678.17678,0,0,0,.1259.17831l-.11909.50769h.16811l.14709-.483a.57429.57429,0,0,0,.0491-.203A.1832.1832,0,0,0,244.3578,140.9454Zm-1.89011.14011.8331-.819a1.00765,1.00765,0,0,0,.4025-.76651c0-.40961-.315-.66159-.81219-.66159a1.10123,1.10123,0,0,0-.8679.3501l.1786.1539a.83226.83226,0,0,1,.6684-.27292c.3744,0,.574.1749.574.45831,0,.16809-.05251.33249-.3288.6055l-1.01851.9975v.17859h1.71831v-.22388Z" transform="translate(-147.3131 -130.4332)" style="fill:#434242"/><path d="M182.088,148.94141h-.4901v-.56689h-.2449v.56689h-1.0641l1.2529-1.582h-.2798l-1.2986,1.624v.18192h1.38251v.64407h.252v-.64407h.4901Zm-3.3846.67551c-.434,0-.68939-.18912-.68939-.4935,0-.30112.25539-.49011.68939-.49011s.6931.189.6931.49011C179.3965,149.4278,179.13741,149.61691,178.7034,149.61691Zm-.60539-1.624c0-.27289.2347-.441.60539-.441.36771,0,.60921.16809.60921.4444,0,.2662-.2276.43768-.60921.43768C178.3222,148.434,178.098,148.26251,178.098,147.99289Zm1.078.5321a.555.555,0,0,0,.392-.53918c0-.3988-.34639-.6474-.86459-.6474-.5179,0-.85741.2486-.85741.6474a.553.553,0,0,0,.38521.53918.611.611,0,0,0-.4726.60181c0,.434.35689.70349.94479.70349.5845,0,.95219-.2695.95219-.70349A.61686.61686,0,0,0,179.176,148.525Zm-1.988.92041a.18318.18318,0,0,0-.18541.18909.17678.17678,0,0,0,.1259.17831l-.11909.50769h.16811l.1472-.48309a.5752.5752,0,0,0,.049-.20291A.1832.1832,0,0,0,177.188,149.4454Zm-1.89011.14.8331-.81888a1.00777,1.00777,0,0,0,.4025-.76651c0-.40961-.3149-.66159-.81209-.66159a1.10131,1.10131,0,0,0-.868.3501l.1786.1539a.832.832,0,0,1,.6684-.273c.37451,0,.574.1749.574.4584,0,.16809-.0524.33249-.3288.6055l-1.01851.9975v.17859h1.7184v-.224Z" transform="translate(-147.3131 -130.4332)" style="fill:#434242"/><path d="M175.8501,249.6198c-.4269,0-.72119-.3606-.72119-1.0148,0-.6545.2943-1.01509.72119-1.01509s.72081.3606.72081,1.01509c0,.65421-.29391,1.0148-.72081,1.0148m0,.231c.56691,0,.9799-.46539.9799-1.2458,0-.7807-.413-1.24609-.9799-1.24609s-.97659.46539-.97659,1.24609C174.8735,249.38541,175.2831,249.8508,175.8501,249.8508Zm-2.2785-.21339c-.434,0-.68939-.1891-.68939-.4935,0-.3011.2554-.49011.68939-.49011s.6931.189.6931.49011C174.26469,249.4483,174.0056,249.63741,173.57159,249.63741Zm-.6055-1.624c0-.273.23471-.4411.6055-.4411.3676,0,.60921.16811.60921.4445,0,.2662-.22771.4377-.60921.4377C173.19031,248.4545,172.9661,248.283,172.9661,248.0134Zm1.078.5321a.55509.55509,0,0,0,.39211-.5392c0-.3988-.34641-.6474-.86461-.6474-.5179,0-.8575.2486-.8575.6474a.553.553,0,0,0,.38521.5392.61086.61086,0,0,0-.4725.60179c0,.4339.3569.70351.94479.70351.5845,0,.9521-.26961.9521-.70351A.61667.61667,0,0,0,174.0441,248.5455Zm-1.9879.92039a.18314.18314,0,0,0-.18539.189.17659.17659,0,0,0,.1259.17831l-.11911.50769h.16811l.14709-.483a.5736.5736,0,0,0,.0491-.203A.18319.18319,0,0,0,172.0562,249.4659Zm-1.6064-2.086v.22391h.57741v2.226h.252V247.3799Z" transform="translate(-147.3131 -130.4332)" style="fill:#434242"/><path d="M253.8176,264.88721c-.42349,0-.64769-.2554-.64769-.525a.56717.56717,0,0,1,.6301-.5354c.3779,0,.616.2063.616.5283a.53608.53608,0,0,1-.5984.5321m.021-1.27391a.78342.78342,0,0,0-.74919.4198c-.00681-.07339-.0105-.1434-.0105-.19949,0-.66481.3396-1.00441.86789-1.00441a.86111.86111,0,0,1,.4763.1154l.10141-.2029a1.12554,1.12554,0,0,0-.5811-.133c-.665,0-1.1199.434-1.1199,1.26709,0,.7733.35339,1.22481,1.00459,1.22481a.76334.76334,0,0,0,.8365-.75261A.74173.74173,0,0,0,253.83859,263.6133Zm-2.42909-.9836v.22389h.5775v2.2261h.252v-2.45Zm-.3568,2.086a.18318.18318,0,0,0-.18541.1891.17667.17667,0,0,0,.12581.1783l-.119.50771h.16811l.14709-.48311a.57283.57283,0,0,0,.049-.2029A.18319.18319,0,0,0,251.0527,264.7157Zm-1.8902.14.8331-.81889a1.00775,1.00775,0,0,0,.4025-.76651c0-.40959-.3149-.66159-.8121-.66159a1.10143,1.10143,0,0,0-.868.3501l.1786.1539a.83209.83209,0,0,1,.6684-.273c.3745,0,.5741.1749.5741.45839,0,.16811-.05251.3325-.3289.6055l-1.01849.9975v.1786h1.7184v-.224Z" transform="translate(-147.3131 -130.4332)" style="fill:#434242"/><path d="M246.6825,175.84959c-.4269,0-.7211-.3606-.7211-1.0148,0-.65459.2942-1.01509.7211-1.01509s.72081.3605.72081,1.01509c0,.65421-.2939,1.0148-.72081,1.0148m0,.231c.56691,0,.9799-.4655.9799-1.2458,0-.7807-.413-1.2462-.9799-1.2462s-.9765.4655-.9765,1.2462C245.706,175.6151,246.1156,176.0806,246.6825,176.0806Zm-2.39049-2.471v.224h.57739v2.226h.252v-2.45Zm-.3569,2.086a.18315.18315,0,0,0-.1853.1891.1767.1767,0,0,0,.12579.1783l-.119.50769h.16809l.14709-.483a.57585.57585,0,0,0,.049-.203A.18321.18321,0,0,0,243.9351,175.6956Zm-1.3334-1.036.69279-.87141v-.17859H241.7196v.224h1.2529l-.67891.8506v.18539h.17491c.4552,0,.66159.1925.66159.4864,0,.30449-.22389.49359-.62979.49359a1.07416,1.07416,0,0,1-.7597-.28349l-.1225.1996a1.27522,1.27522,0,0,0,.8822.3149c.59129,0,.8889-.3149.8889-.72459C243.38921,174.964,243.12669,174.68761,242.6017,174.65961Z" transform="translate(-147.3131 -130.4332)" style="fill:#434242"/><path d="M205.2173,282.36729c-.434,0-.68941-.189-.68941-.4935,0-.301.2554-.4901.68941-.4901s.6931.1891.6931.4901c0,.3045-.25909.4935-.6931.4935m-.6055-1.6239c0-.273.2347-.4411.6055-.4411.3676,0,.60921.16811.60921.4445,0,.2661-.22771.43761-.60921.43761C204.836,281.1844,204.6118,281.01289,204.6118,280.74339Zm1.078.532a.555.555,0,0,0,.39209-.53911c0-.3989-.34639-.64749-.86459-.64749-.5179,0-.8575.2486-.8575.64749a.5529.5529,0,0,0,.38519.53911.611.611,0,0,0-.47249.60179c0,.434.35689.7036.94479.7036.5845,0,.9521-.26959.9521-.7036A.61675.61675,0,0,0,205.6898,281.27541Zm-2.5444-.1156.69279-.8714v-.1786h-1.57489v.224h1.2529l-.67891.8506v.18539h.17491c.45529,0,.66159.1925.66159.4864,0,.3045-.22389.49359-.62979.49359a1.07435,1.07435,0,0,1-.7597-.28349l-.1225.19949a1.27477,1.27477,0,0,0,.8822.315c.59129,0,.8889-.315.8889-.72459C203.93291,281.4642,203.67039,281.18781,203.1454,281.15981Zm-1.4176,1.036a.18316.18316,0,0,0-.1853.1891.17667.17667,0,0,0,.12581.1783l-.119.50769h.16811l.14709-.483a.5759.5759,0,0,0,.049-.203A.18321.18321,0,0,0,201.7278,282.1958Zm-1.6064-2.086v.224h.5775v2.226h.252v-2.45Z" transform="translate(-147.3131 -130.4332)" style="fill:#434242"/><line x1="93.46651" y1="9.71631" x2="69.306" y2="9.71631" style="fill:none;stroke:#b1b2b2;stroke-miterlimit:22.92558479309082;stroke-width:0.2160000056028366px"/><line x1="26.46631" y1="18.21622" x2="4.5204" y2="18.21622" style="fill:none;stroke:#b1b2b2;stroke-miterlimit:22.92558479309082;stroke-width:0.2160000056028366px"/><line x1="21.71631" y1="118.23671" x2="4.9136" y2="118.23671" style="fill:none;stroke:#b1b2b2;stroke-miterlimit:22.92558479309082;stroke-width:0.2160000056028366px"/><line x1="99.7166" y1="133.4865" x2="82.7037" y2="133.4865" style="fill:none;stroke:#b1b2b2;stroke-miterlimit:22.92558479309082;stroke-width:0.2160000056028366px"/><line x1="92.71651" y1="44.46651" x2="63.74811" y2="44.46651" style="fill:none;stroke:#b1b2b2;stroke-miterlimit:22.92558479309082;stroke-width:0.2160000056028366px"/><line x1="51.2164" y1="150.96671" x2="44.468" y2="150.96671" style="fill:none;stroke:#b1b2b2;stroke-miterlimit:22.92558479309082;stroke-width:0.2160000056028366px"/><line x1="125.56889" y1="9.71631" x2="102.90561" y2="9.71631" style="fill:none;stroke:#b1b2b2;stroke-miterlimit:22.92558479309082;stroke-width:0.2160000056028366px"/><line x1="61.1459" y1="18.21622" x2="35.90541" y2="18.21622" style="fill:none;stroke:#b1b2b2;stroke-miterlimit:22.92558479309082;stroke-width:0.2160000056028366px"/><line x1="40.01331" y1="118.23671" x2="31.1553" y2="118.23671" style="fill:none;stroke:#b1b2b2;stroke-miterlimit:22.92558479309082;stroke-width:0.2160000056028366px"/><line x1="125.15129" y1="133.4865" x2="109.15572" y2="133.4865" style="fill:none;stroke:#b1b2b2;stroke-miterlimit:22.92558479309082;stroke-width:0.2160000056028366px"/><line x1="125.56889" y1="44.46651" x2="102.15561" y2="44.46651" style="fill:none;stroke:#b1b2b2;stroke-miterlimit:22.92558479309082;stroke-width:0.2160000056028366px"/><line x1="67.4039" y1="150.96671" x2="60.6555" y2="150.96671" style="fill:none;stroke:#b1b2b2;stroke-miterlimit:22.92558479309082;stroke-width:0.2160000056028366px"/><path d="M153.74519,182.9832h.224v-.57741h2.226v-.252h-2.45Zm2.24,1.18289c0,.42691-.3606.72121-1.0148.72121-.6546,0-1.01509-.2943-1.01509-.72121s.36049-.72079,1.01509-.72079C155.6246,183.4453,155.9852,183.7392,155.9852,184.16609Zm.231,0c0-.56689-.4655-.97989-1.2458-.97989-.7807,0-1.24609.413-1.24609.97989s.46539.97661,1.24609.97661C155.7507,185.1427,156.2162,184.73309,156.2162,184.16609Zm-.385,1.4877a.18313.18313,0,0,0,.18909.1853.17668.17668,0,0,0,.1783-.12579l.50771.119v-.16811l-.483-.14709a.57585.57585,0,0,0-.203-.049A.1832.1832,0,0,0,155.83121,185.65379Zm-.504.49321v.4901h-.56689v.2449h.56689v1.0641l-1.582-1.2529v.27979l1.624,1.29851h.182v-1.3824h.644v-.252h-.644v-.4901Z" transform="translate(-147.3131 -130.4332)" style="fill:#434242"/><path d="M269.75311,146.60761c0,.42349-.2554.6478-.525.6478a.56727.56727,0,0,1-.5354-.63019c0-.37781.2063-.616.52832-.616a.53614.53614,0,0,1,.5321.59842m-1.27393-.0209a.78358.78358,0,0,0,.4198.74921c-.07339.00681-.14337.01041-.19949.01041-.66479,0-1.00439-.33951-1.00439-.86792a.86054.86054,0,0,1,.11539-.4762l-.20288-.1015a1.12571,1.12571,0,0,0-.133.58112c0,.665.434,1.12,1.26709,1.12.77332,0,1.22491-.35352,1.22491-1.00461a.76343.76343,0,0,0-.75262-.83661A.74181.74181,0,0,0,268.47919,146.5867Zm-.98358,2.429h.22391v-.57739h2.22607v-.252h-2.45Zm2.086.3569a.18315.18315,0,0,0,.18909.1853.1767.1767,0,0,0,.17831-.12579l.50769.119V149.383l-.48309-.14709a.57529.57529,0,0,0-.20291-.049A.18321.18321,0,0,0,269.5816,149.37259Zm-2.086,1.60632h.22391v-.57742h2.22607v-.252h-2.45Z" transform="translate(-147.3131 -130.4332)" style="fill:#434242"/><path d="M269.7355,223.42371c0,.4269-.3605.7211-1.0148.7211-.65451,0-1.01511-.2942-1.01511-.7211s.3606-.72081,1.01511-.72081c.6543,0,1.0148.2939,1.0148.72081m.23111,0c0-.56691-.46552-.9799-1.24591-.9799-.78061,0-1.24609.413-1.24609.9799s.46548.97649,1.24609.97649C269.5011,224.40019,269.96661,223.9906,269.96661,223.42371Zm-.2135,2.1138c0,.42349-.2554.64769-.525.64769a.56723.56723,0,0,1-.5354-.6301c0-.3779.2063-.616.52832-.616A.53608.53608,0,0,1,269.75311,225.53751Zm-1.27393-.021a.78347.78347,0,0,0,.4198.74921c-.07339.00681-.14337.0105-.19949.0105-.66479,0-1.00439-.3396-1.00439-.868a.861.861,0,0,1,.11539-.4762l-.20288-.1015a1.12587,1.12587,0,0,0-.133.5811c0,.665.434,1.12,1.26709,1.12.77332,0,1.22491-.3535,1.22491-1.00461a.76339.76339,0,0,0-.75262-.83649A.74176.74176,0,0,0,268.47919,225.51649Zm1.10242,1.5262a.18318.18318,0,0,0,.18909.18541.17678.17678,0,0,0,.17831-.1259l.50769.11909v-.16811l-.48309-.14709a.57347.57347,0,0,0-.20291-.0491A.1832.1832,0,0,0,269.5816,227.04269Zm-1.08139,1.52931v.3149l-.7807-.08391v-1.12h-.22391v1.3405l1.22849.1259v-.5213c0-.623.19592-.8192.51111-.8192.29739,0,.50031.2205.50031.63721a1.0612,1.0612,0,0,1-.28342.75229l.19952.1225a1.26461,1.26461,0,0,0,.315-.87849c0-.5984-.3255-.8889-.74191-.8889C268.7905,227.5535,268.50021,227.8336,268.50021,228.572Z" transform="translate(-147.3131 -130.4332)" style="fill:#434242"/><path d="M184.07739,256.2753v.4901h-.567v.2449h.567v1.0641l-1.58209-1.2529v.2798l1.624,1.29849h.182v-1.3824h.644v-.252h-.644v-.4901Zm-.32909,3.4231c0,.37781-.20641.61591-.52841.61591a.53629.53629,0,0,1-.53209-.5986c0-.42349.25569-.64749.525-.64749A.56715.56715,0,0,1,183.74831,259.69839Zm-1.27391.0278a.76318.76318,0,0,0,.75261.8365.74161.74161,0,0,0,.7347-.8261.78259.78259,0,0,0-.4198-.7489c.07339-.0071.1434-.0105.19949-.0105.6651,0,1.00441.3396,1.00441.868a.85941.85941,0,0,1-.1154.476l.203.10139a1.12491,1.12491,0,0,0,.13289-.5808c0-.665-.434-1.12-1.26709-1.12C182.9259,258.7218,182.4744,259.0753,182.4744,259.7262Zm2.107,1.3127a.18314.18314,0,0,0,.189.18541.17676.17676,0,0,0,.1783-.1259l.50771.11909v-.16811l-.483-.14709a.57393.57393,0,0,0-.203-.0491A.18318.18318,0,0,0,184.58141,261.03889Zm.14,1.89011-.81891-.8331a1.00786,1.00786,0,0,0-.76649-.4025c-.40961,0-.66161.3149-.66161.81209a1.10126,1.10126,0,0,0,.35.868l.154-.1786a.832.832,0,0,1-.273-.6684c0-.37451.1749-.574.4583-.574.16811,0,.33261.0524.6055.3288l.9975,1.01851h.1786v-1.7184h-.22389Z" transform="translate(-147.3131 -130.4332)" style="fill:#434242"/><line x1="7.7222" y1="59.3325" x2="7.7222" y2="93.3978" style="fill:none;stroke:#b1b2b2;stroke-miterlimit:22.92558479309082;stroke-width:0.2160000056028366px"/><line x1="121.47252" y1="22.5824" x2="121.47252" y2="29.3309" style="fill:none;stroke:#b1b2b2;stroke-miterlimit:22.92558479309082;stroke-width:0.2160000056028366px"/><line x1="121.47252" y1="100.0825" x2="121.47252" y2="150.96581" style="fill:none;stroke:#b1b2b2;stroke-miterlimit:22.92558479309082;stroke-width:0.2160000056028366px"/><line x1="36.47231" y1="134.0824" x2="36.47231" y2="156.77431" style="fill:none;stroke:#b1b2b2;stroke-miterlimit:22.92558479309082;stroke-width:0.2160000056028366px"/><line x1="7.7222" y1="13.67999" x2="7.7222" y2="49.8934" style="fill:none;stroke:#b1b2b2;stroke-miterlimit:22.92558479309082;stroke-width:0.2160000056028366px"/><line x1="121.47252" y1="6.3949" x2="121.47252" y2="13.1434" style="fill:none;stroke:#b1b2b2;stroke-miterlimit:22.92558479309082;stroke-width:0.2160000056028366px"/><line x1="121.47252" y1="39.05431" x2="121.47252" y2="90.6434" style="fill:none;stroke:#b1b2b2;stroke-miterlimit:22.92558479309082;stroke-width:0.2160000056028366px"/><line x1="36.47231" y1="99.33301" x2="36.47231" y2="124.6433" style="fill:none;stroke:#b1b2b2;stroke-miterlimit:22.92558479309082;stroke-width:0.2160000056028366px"/></svg>