<svg id="Слой_1" data-name="Слой 1" xmlns="http://www.w3.org/2000/svg" viewBox="0 0 131.33589 164.33038"><title>1.04.09</title><polygon points="0 5.23 64.647 5.23 64.647 2.611 131.336 2.611 131.336 157.428 76.922 157.428 76.922 163.022 0 163.022 0 5.23" style="fill:#fff;fill-rule:evenodd"/><rect x="89.6122" y="96.60359" width="28.4054" height="17.267" style="fill:#fff"/><path d="M264.57309,227.412h-27.6554v16.517h27.6554Zm-28.0304-.75h28.7804v18.017h-29.1554V226.662Z" transform="translate(-146.9305 -130.43341)" style="fill:#fff"/><rect x="75.73691" y="96.22859" width="13.88719" height="18.01669" style="fill:#fff"/><polygon points="80.726 99.464 80.726 100.52 83.447 100.52 83.447 111.01 84.635 111.01 84.635 99.464 80.726 99.464" style="fill:#fff;fill-rule:evenodd"/><path d="M259.1705,237.9532c-.57739,0-.9816-.4762-.9816-1.6239s.40421-1.624.9816-1.624c.5845,0,.98871.4762.98871,1.624s-.40421,1.6239-.98871,1.6239m0,.98911c1.24869,0,2.16541-.94571,2.16541-2.613s-.91672-2.613-2.16541-2.613c-1.24161,0-2.16541.9456-2.16541,2.613S257.92889,238.94231,259.1705,238.94231Zm-2.51181-2.10051h-.82289v-.94569h-1.10429v.94569h-1.357l2.2088-3.0388h-1.2271l-2.382,3.20461v.7869h2.7213v1.061h1.1403v-1.061h.82289Zm-5.84639.6712a.66883.66883,0,0,0-.7002.69279.62656.62656,0,0,0,.3898.61371l-.3175,1.14749h.7146l.4113-1.0392a1.67913,1.67913,0,0,0,.1951-.722A.66325.66325,0,0,0,250.8123,237.513Zm-4.8864-3.71v1.77571h1.03949v-.82291h1.67441l-1.8116,4.0997h1.2702l1.8768-4.29449v-.758Zm-1.7541,2.0571,1.1407-1.29909v-.758h-3.5368v.93831h2.15091l-1.0394,1.1767v.77209h.534c.6642,0,.94569.2381.94569.6208,0,.4113-.3609.6497-.94569.6497a2.45327,2.45327,0,0,1-1.44341-.45489l-.4547.8951a3.474,3.474,0,0,0,1.927.5415c1.4364,0,2.09309-.7796,2.09309-1.63141A1.4351,1.4351,0,0,0,244.1718,235.86009Z" transform="translate(-146.9305 -130.43341)" style="fill:#fff;fill-rule:evenodd"/><path d="M159.6487,280.20531h-2.5433v6.82019h2.5433Zm4.4416,3.9283H161.547v2.89189h2.5433Zm0-3.96111H161.547v2.89189h2.5433Zm1.1483-1.14841h-9.0825V289.7229h9.0825Z" transform="translate(-146.9305 -130.43341)" style="fill:#fff;fill-rule:evenodd"/><path d="M227.54379,274.0907v2.5433h-6.9599v-2.5433Zm0-4.33611v2.54321h-6.9599v-2.54321Zm-4.068-4.44159v2.5432h-2.89191V265.313Zm4.068,0v2.5432H224.6519V265.313Zm-9.72569-2.5892h12.67661v21.1915H217.8181Z" transform="translate(-146.9305 -130.43341)" style="fill:#fff;fill-rule:evenodd"/><path d="M195.342,216.91679a.374.374,0,1,1,.37471-.64749l13.92009,8.0399a.37407.37407,0,0,1-.3748.64749Z" transform="translate(-146.9305 -130.43341)" style="fill:#fff"/><path d="M219.2924,165.22559a.374.374,0,0,1,.3748-.6474l13.92009,8.03992a.374.374,0,1,1-.3748.6474Z" transform="translate(-146.9305 -130.43341)" style="fill:#fff"/><path d="M190.63251,267.5529a.37406.37406,0,0,1-.64751-.37471l8.0399-13.92009a.374.374,0,0,1,.64749.37469Z" transform="translate(-146.9305 -130.43341)" style="fill:#fff"/><rect x="62.00641" y="28.35577" width="2.60219" height="67.64432" style="fill:#fff"/><rect y="93.39789" width="1.45041" height="2.6022" style="fill:#fff"/><rect x="1.9377" y="93.39789" width="42.68471" height="2.6022" style="fill:#fff"/><rect y="96.7309" width="1.45041" height="2.60219" style="fill:#fff"/><rect x="3.2558" y="96.7309" width="39.4308" height="2.60219" style="fill:#fff"/><rect x="40.87381" y="94.78209" width="2.60229" height="25.617" style="fill:#fff"/><rect x="70.8876" y="113.6852" width="2.6022" height="18.8651" style="fill:#fff"/><rect x="40.8044" y="136.34729" width="2.6022" height="25.617" style="fill:#fff"/><rect x="126.4294" width="4.90649" height="157.31999" style="fill:#fff"/><rect x="0.37891" y="9.63779" width="5.00209" height="147.68221" style="fill:#fff"/><rect y="156.77438" width="43.4066" height="6.42551" style="fill:#fff"/><rect x="63.5791" y="156.77438" width="13.5462" height="6.42551" style="fill:#fff"/><rect x="70.8876" y="150.96588" width="60.44829" height="6.42561" style="fill:#fff"/><rect x="101.71671" y="30.89429" width="27.39229" height="8.1601" style="fill:#fff"/><rect x="128.6512" y="30.89429" width="2.68469" height="8.1601" style="fill:#fff"/><rect x="62.00641" y="30.89429" width="10.50209" height="8.1601" style="fill:#fff"/><rect y="5.5199" width="18.4113" height="8.1601" style="fill:#fff"/><rect x="47.24501" y="5.5199" width="22.92149" height="8.1601" style="fill:#fff"/><rect x="64.64661" y="113.6852" width="8.1601" height="12.78429" style="fill:#fff"/><rect x="62.00641" width="8.1601" height="39.05438" style="fill:#fff"/><rect x="59.54451" width="10.62199" height="13.67999" style="fill:#fff"/><rect x="31.8866" y="8.52179" width="0.50171" height="2.29858" style="fill:#fff"/><rect x="33.0854" y="8.52179" width="0.5011" height="2.29858" style="fill:#fff"/><rect x="45.7225" y="8.52179" width="0.5015" height="2.29858" style="fill:#fff"/><rect x="46.92101" y="8.52179" width="0.50121" height="2.29858" style="fill:#fff"/><rect x="17.7749" y="8.52179" width="0.50171" height="2.29858" style="fill:#fff"/><rect x="18.9734" y="8.52179" width="0.5011" height="2.29858" style="fill:#fff"/><rect x="15.3853" y="5.5199" width="34.0937" height="0.5015" style="fill:#fff"/><rect x="15.3853" y="8.3671" width="34.0937" height="0.5014" style="fill:#fff"/><rect x="15.3853" y="10.53839" width="34.0937" height="0.5014" style="fill:#fff"/><rect x="15.3853" y="13.17938" width="34.0937" height="0.5015" style="fill:#fff"/><path d="M238.7171,164.67538v1.66992h-.697v-1.66992Zm13.5692,0v1.66992H239.2186v-1.66992Zm1.1982,0v1.66992h-.697v-1.66992Zm.50171,1.66992v-1.66992h5.78949v-.5015H238.0201v-2.34558h21.7556v-.5015H237.51891v8.161H259.7757v-.5015H238.0201v-2.13959H256.072v-.5014Z" transform="translate(-146.9305 -130.43341)" style="fill:#fff;fill-rule:evenodd"/><rect x="88.0605" y="3.84009" width="0.44701" height="1.29721" style="fill:#fff"/><rect x="89.1286" y="3.84009" width="0.4467" height="1.29721" style="fill:#fff"/><rect x="106.6626" y="3.84009" width="0.44701" height="1.29721" style="fill:#fff"/><rect x="107.7307" y="3.84009" width="0.4467" height="1.29721" style="fill:#fff"/><rect x="125.26491" y="3.84009" width="0.44708" height="1.29721" style="fill:#fff"/><rect x="126.33299" y="3.84009" width="0.44681" height="1.29721" style="fill:#fff"/><rect x="69.4581" y="3.84009" width="0.4471" height="1.29721" style="fill:#fff"/><rect x="70.5262" y="3.84009" width="0.44681" height="1.29721" style="fill:#fff"/><rect x="68.02521" y="2.61069" width="60.8213" height="0.44681" style="fill:#fff"/><rect x="68.02521" y="3.70209" width="60.8213" height="0.44672" style="fill:#fff"/><rect x="68.02521" y="4.7829" width="60.8213" height="0.44678" style="fill:#fff"/><rect x="130.31059" y="3.84009" width="0.44702" height="1.29721" style="fill:#fff"/><rect x="128.8777" y="2.61069" width="2.45819" height="0.44681" style="fill:#fff"/><rect x="128.8777" y="3.70209" width="2.45819" height="0.44672" style="fill:#fff"/><rect x="128.8777" y="4.7829" width="2.45819" height="0.44678" style="fill:#fff"/><path d="M146.9305,258.1906V247.2563a.90225.90225,0,0,1,.191.55609v9.8224a.90161.90161,0,0,1-.191.5558" transform="translate(-146.9305 -130.43341)" style="fill:#fff"/><path d="M152.70461,257.6348v-9.8224a.90534.90534,0,0,1,.904-.9054h4.61031a4.59576,4.59576,0,0,1,4.591,4.5896v2.4523a4.59575,4.59575,0,0,1-4.591,4.59041H153.6086a.90477.90477,0,0,1-.904-.90451m9.8606-6.1382a4.351,4.351,0,0,0-4.3463-4.34489H153.6086a.66142.66142,0,0,0-.6599.66069v9.8224a.66073.66073,0,0,0,.6599.6599h4.61031a4.35137,4.35137,0,0,0,4.3463-4.34579Z" transform="translate(-146.9305 -130.43341)" style="fill:#fff"/><path d="M161.475,251.4969a3.25877,3.25877,0,0,0-3.2561-3.2545h-2.6881a.56787.56787,0,0,0-.5675.56729v3.5753h-.24521v-3.5753a.81414.81414,0,0,1,.81271-.8125h2.6881a3.50421,3.50421,0,0,1,3.50079,3.49971v2.4523a3.50467,3.50467,0,0,1-3.50079,3.5007h-2.6881a.81449.81449,0,0,1-.81271-.81351v-3.5753h.24521v3.5753a.56821.56821,0,0,0,.5675.5683h2.6881a3.2593,3.2593,0,0,0,3.2561-3.25549Z" transform="translate(-146.9305 -130.43341)" style="fill:#fff"/><path d="M157.87131,252.72369a.78349.78349,0,1,1,.78349.7838.78479.78479,0,0,1-.78349-.7838m1.32239,0a.5387.5387,0,1,0-.53889.5392A.53961.53961,0,0,0,159.1937,252.72369Z" transform="translate(-146.9305 -130.43341)" style="fill:#fff"/><rect x="11.1656" y="122.16789" width="1.11661" height="0.2449" style="fill:#fff"/><rect x="11.6013" y="121.73189" width="0.2455" height="1.116" style="fill:#fff"/><path d="M153.887,253.0611v.40361a.17364.17364,0,0,0,.174.1729h.3793a.17364.17364,0,0,0,.174-.1729v-.40361h.2449v.40361a.41861.41861,0,0,1-.4189.41809h-.3793a.41862.41862,0,0,1-.4187-.41809v-.40561l.0374.002Zm.72731-1.07719a.17446.17446,0,0,0-.174-.1741h-.3793a.17447.17447,0,0,0-.174.1741v.40109h-.20729l-.0374.0023v-.4034a.41863.41863,0,0,1,.4187-.4187h.3793a.41861.41861,0,0,1,.4189.4187v.40109h-.2449Z" transform="translate(-146.9305 -130.43341)" style="fill:#fff"/><path d="M153.21941,252.72369a.46109.46109,0,0,1,.4603-.4612h3.08049a.4605.4605,0,0,1,0,.921H153.6797a.46054.46054,0,0,1-.4603-.45981m3.75679,0a.21675.21675,0,0,0-.216-.2162H153.6797a.21555.21555,0,0,0,0,.43111h3.08049A.21615.21615,0,0,0,156.9762,252.72369Z" transform="translate(-146.9305 -130.43341)" style="fill:#fff"/><path d="M146.9305,274.9014v-6.7836a1.34146,1.34146,0,0,1,.191.6917v5.4006a1.34024,1.34024,0,0,1-.191.6913" transform="translate(-146.9305 -130.43341)" style="fill:#fff"/><path d="M166.7038,271.50951a3.91689,3.91689,0,0,0-3.9129-3.91151H157.1255a.67731.67731,0,0,0-.63921.4561,1.24525,1.24525,0,0,0-.20489-.2036.94571.94571,0,0,1,.8441-.5215h5.66539a4.1808,4.1808,0,1,1,0,8.3616H157.1255a.94526.94526,0,0,1-.84351-.521,1.23755,1.23755,0,0,0,.20461-.20331.67632.67632,0,0,0,.6389.45561h5.66539a3.91714,3.91714,0,0,0,3.9129-3.9124" transform="translate(-146.9305 -130.43341)" style="fill:#fff"/><path d="M158.20641,274.3132v-5.6089a.2039.2039,0,0,1,.20149-.2012h4.27071a3.00655,3.00655,0,1,1,0,6.01311H158.4079a.20467.20467,0,0,1-.20149-.203m.26819-5.5414v5.476h4.204a2.738,2.738,0,0,0,0-5.476Z" transform="translate(-146.9305 -130.43341)" style="fill:#fff"/><path d="M160.9373,271.5092a1.00815,1.00815,0,1,1,1.008,1.0089,1.01,1.01,0,0,1-1.008-1.0089m1.7476,0a.73946.73946,0,1,0-.73961.7399A.74047.74047,0,0,0,162.68491,271.5092Z" transform="translate(-146.9305 -130.43341)" style="fill:#fff"/><rect x="159.72683" y="268.76671" width="0.26854" height="2.24223" transform="translate(-298.98152 106.20033) rotate(-53.27519)" style="fill:#fff"/><rect x="158.73976" y="272.95255" width="2.24309" height="0.26914" transform="translate(-278.68261 19.79676) rotate(-36.81017)" style="fill:#fff"/><path d="M152.70461,274.2101v-5.4006a1.35511,1.35511,0,0,1,1.3539-1.3524h1.4743a1.3535,1.3535,0,0,1,1.35239,1.3524v5.4006a1.35318,1.35318,0,0,1-1.35239,1.35181h-1.4743a1.35479,1.35479,0,0,1-1.3539-1.35181m3.91209-5.4006a1.08548,1.08548,0,0,0-1.08389-1.08429h-1.4743a1.08593,1.08593,0,0,0-1.0851,1.08429v5.4006a1.086,1.086,0,0,0,1.0851,1.08369h1.4743a1.08555,1.08555,0,0,0,1.08389-1.08369Z" transform="translate(-146.9305 -130.43341)" style="fill:#fff"/><path d="M154.1069,271.5092a.6881.6881,0,1,1,.68739.68829.68815.68815,0,0,1-.68739-.68829m1.10719,0a.4192.4192,0,1,0-.4198.41949A.41934.41934,0,0,0,155.2141,271.5092Z" transform="translate(-146.9305 -130.43341)" style="fill:#fff"/><path d="M175.9346,278.7702h0v7.83949h11.3479V278.7702Zm-.3309,8.17079v-8.5025h12.0099v8.5025Z" transform="translate(-146.9305 -130.43341)" style="fill:#fff"/><path d="M178.329,278.5457a.60433.60433,0,0,1,.59361-.61259h5.37219a.604.604,0,0,1,.5938.61259h-.3308a.2697.2697,0,0,0-.263-.281h-5.37219a.26948.26948,0,0,0-.2628.281Z" transform="translate(-146.9305 -130.43341)" style="fill:#fff"/><path d="M180.58681,281.1722h0v2.7077l1.59729.6216a2.47411,2.47411,0,0,0-.0918-1.6747,4.15139,4.15139,0,0,1-.2413-1.24069,2.44924,2.44924,0,0,1,.1882-.9366Zm-.33081,2.9342v-3.1669l2.48-.892-.22479.39059a2.26669,2.26669,0,0,0-.32941,1.148,3.89167,3.89167,0,0,0,.22681,1.1438,3.89664,3.89664,0,0,1,.2282,1.144,2.01761,2.01761,0,0,1-.218.91249l-.06749.1358Z" transform="translate(-146.9305 -130.43341)" style="fill:#fff"/><path d="M146.9305,243.31039V231.1147a2.16541,2.16541,0,0,1,.191.8923V242.4184a2.16505,2.16505,0,0,1-.191.892" transform="translate(-146.9305 -130.43341)" style="fill:#fff"/><path d="M154.8558,244.584h30.085a2.161,2.161,0,0,0,2.1515-2.1656V232.007a2.16088,2.16088,0,0,0-2.1515-2.16591h-30.085a2.16081,2.16081,0,0,0-2.1512,2.16591V242.4184a2.16093,2.16093,0,0,0,2.1512,2.1656m30.085-14.51311a1.93117,1.93117,0,0,1,1.92191,1.93611V242.4184a1.931,1.931,0,0,1-1.92191,1.9355h-30.085a1.93145,1.93145,0,0,1-1.9221-1.9355V232.007a1.9316,1.9316,0,0,1,1.9221-1.93611Z" transform="translate(-146.9305 -130.43341)" style="fill:#fff"/><path d="M181.95509,231.3329a2.577,2.577,0,0,1,2.56531,2.58209v6.5948a2.57652,2.57652,0,0,1-2.56531,2.5818H157.8419a2.57712,2.57712,0,0,1-2.566-2.5818v-2.06189a.39655.39655,0,0,1-.2282.142v1.91989a2.80641,2.80641,0,0,0,2.7942,2.8125h24.11319a2.80656,2.80656,0,0,0,2.79431-2.8125V233.915a2.8065,2.8065,0,0,0-2.79431-2.81219H157.8419a2.80635,2.80635,0,0,0-2.7942,2.81219v1.92021a.39558.39558,0,0,1,.2282.14139V233.915a2.57763,2.57763,0,0,1,2.566-2.58209Z" transform="translate(-146.9305 -130.43341)" style="fill:#fff"/><path d="M180.40759,232.64619a1.26667,1.26667,0,0,1,1.2612,1.2688v6.5948a1.26635,1.26635,0,0,1-1.2612,1.2682H157.8419a1.26622,1.26622,0,0,1-1.26151-1.2682V237.665h-.2287v2.8448a1.49622,1.49622,0,0,0,1.4902,1.499h22.56569a1.49565,1.49565,0,0,0,1.4893-1.499V233.915a1.49533,1.49533,0,0,0-1.4893-1.499H157.8419a1.4959,1.4959,0,0,0-1.4902,1.499v2.84511h.2287V233.915a1.26655,1.26655,0,0,1,1.26151-1.2688Z" transform="translate(-146.9305 -130.43341)" style="fill:#fff"/><path d="M159.747,237.9453a.73331.73331,0,1,0-.72989-.7336.73144.73144,0,0,0,.72989.7336m0-1.2365a.5033.5033,0,1,1-.50029.5029A.50193.50193,0,0,1,159.747,236.7088Z" transform="translate(-146.9305 -130.43341)" style="fill:#fff"/><rect x="12.7014" y="106.25589" width="0.2294" height="1.0457" style="fill:#fff"/><rect x="12.29721" y="106.66289" width="1.0378" height="0.2308" style="fill:#fff"/><path d="M155.247,237.665v.5374a.27991.27991,0,0,1-.27859.28041h-.5052a.28042.28042,0,0,1-.27919-.28041v-.5374h-.2287v.5374a.51032.51032,0,0,0,.50789.51111h.5052a.50971.50971,0,0,0,.5074-.51111v-.5374Zm-.27859-1.72209a.27984.27984,0,0,1,.27859.28009v.53711h.22881V236.223a.50925.50925,0,0,0-.5074-.51079h-.5052a.50986.50986,0,0,0-.50789.51079v.53711h.2287V236.223a.28035.28035,0,0,1,.27919-.28009Z" transform="translate(-146.9305 -130.43341)" style="fill:#fff"/><path d="M153.95731,237.7803h3.2011a.56761.56761,0,0,0,0-1.13521h-3.2011a.56761.56761,0,0,0,0,1.13521m3.2011-.90511a.33721.33721,0,0,1,0,.67441h-3.2011a.33721.33721,0,0,1,0-.67441Z" transform="translate(-146.9305 -130.43341)" style="fill:#fff"/><path d="M236.9996,269.2715h11.7692v11.76891H236.9996Zm11.5197.2495H237.24879V280.7915H248.5193Z" transform="translate(-146.9305 -130.43341)" style="fill:#fff"/><path d="M242.88409,279.94231a3.91958,3.91958,0,0,0,.98161-7.7142.30015.30015,0,0,0,.0743-.1976V271.99a4.16852,4.16852,0,1,1-2.1116-.00031v.0408a.29843.29843,0,0,0,.074.1973,3.91975,3.91975,0,0,0,.98169,7.71451" transform="translate(-146.9305 -130.43341)" style="fill:#fff"/><path d="M242.88409,272.5416a3.4815,3.4815,0,1,1-3.48129,3.48181,3.48577,3.48577,0,0,1,3.48129-3.48181m0,6.71361a3.23195,3.23195,0,1,0-3.2318-3.2318A3.23547,3.23547,0,0,0,242.88409,279.2552Z" transform="translate(-146.9305 -130.43341)" style="fill:#fff"/><path d="M242.88409,275.1208a.9023.9023,0,1,1-.90259.9026.90334.90334,0,0,1,.90259-.9026m0,1.55569a.65295.65295,0,1,0-.65309-.65309A.65417.65417,0,0,0,242.88409,276.6765Z" transform="translate(-146.9305 -130.43341)" style="fill:#fff"/><rect x="95.8288" y="144.93259" width="0.24951" height="1.3139" style="fill:#fff"/><rect x="95.2968" y="145.46469" width="1.3136" height="0.24969" style="fill:#fff"/><path d="M242.13029,271.21671h1.50751a.427.427,0,0,1,.42661.42659v.38721a.4268.4268,0,0,1-.42661.42659h-1.50751a.42685.42685,0,0,1-.42659-.42659v-.38721a.427.427,0,0,1,.42659-.42659m1.50751.991a.17765.17765,0,0,0,.1774-.1772v-.38721a.17746.17746,0,0,0-.1774-.1772h-1.50751a.1772.1772,0,0,0-.17709.1772v.38721a.17739.17739,0,0,0,.17709.1772Z" transform="translate(-146.9305 -130.43341)" style="fill:#fff"/><path d="M243.104,271.3414v-.0865a.21965.21965,0,0,0-.4393,0v.0865h-.2498v-.0865a.46945.46945,0,0,1,.9389,0v.0865Zm-.21991,2.59a.22041.22041,0,0,0,.21991-.22049V272.3324h.2498v1.37851a.46945.46945,0,1,1-.9389,0V272.3324h.2498v1.37851A.21991.21991,0,0,0,242.88409,273.9314Z" transform="translate(-146.9305 -130.43341)" style="fill:#fff"/><path d="M265.6644,269.7529h-7.15659a1.49612,1.49612,0,0,0-1.4942,1.49471v8.29869a1.496,1.496,0,0,0,1.4942,1.49411h7.15659a1.49569,1.49569,0,0,0,1.4942-1.49411V271.2476a1.4958,1.4958,0,0,0-1.4942-1.49471m-7.15659,11.0545a1.26265,1.26265,0,0,1-1.2612-1.26111V271.2476a1.26277,1.26277,0,0,1,1.2612-1.2617h7.15659a1.26307,1.26307,0,0,1,1.26169,1.2617v8.29869a1.263,1.263,0,0,1-1.26169,1.26111Z" transform="translate(-146.9305 -130.43341)" style="fill:#fff"/><path d="M265.6644,270.57179h-7.15659a.67618.67618,0,0,0-.67581.67581v7.01059a.67637.67637,0,0,0,.67581.67581h7.15659a.67656.67656,0,0,0,.67639-.67581V271.2476a.67636.67636,0,0,0-.67639-.67581m-7.15659,8.12921a.44326.44326,0,0,1-.44312-.44281V271.2476a.44351.44351,0,0,1,.44312-.4431h7.15659a.44388.44388,0,0,1,.44391.4431v7.01059a.44363.44363,0,0,1-.44391.44281Z" transform="translate(-146.9305 -130.43341)" style="fill:#fff"/><path d="M259.20789,279.35271a.47424.47424,0,1,0,.4743.4742.47508.47508,0,0,0-.4743-.4742m0,.71539a.2412.2412,0,1,1,.24152-.2412A.24186.24186,0,0,1,259.20789,280.0681Z" transform="translate(-146.9305 -130.43341)" style="fill:#fff"/><path d="M260.80869,279.35271a.47424.47424,0,1,0,.47482.4742.475.475,0,0,0-.47482-.4742m0,.71539a.2412.2412,0,1,1,.24182-.2412A.24153.24153,0,0,1,260.80869,280.0681Z" transform="translate(-146.9305 -130.43341)" style="fill:#fff"/><rect x="111.8307" y="142.28079" width="2.7196" height="0.2327" style="fill:#fff"/><rect x="113.0743" y="141.03668" width="0.2327" height="2.7196" style="fill:#fff"/><path d="M260.121,271.93359a.89685.89685,0,1,0,.89661.8968.8979.8979,0,0,0-.89661-.8968m0,1.561a.6643.6643,0,1,1,.66391-.6642A.66555.66555,0,0,1,260.121,273.4946Z" transform="translate(-146.9305 -130.43341)" style="fill:#fff"/><rect x="111.8307" y="146.12599" width="2.7196" height="0.2325" style="fill:#fff"/><rect x="113.0743" y="144.88159" width="0.2327" height="2.7204" style="fill:#fff"/><path d="M260.121,275.77789a.89716.89716,0,1,0,.89661.89751.89863.89863,0,0,0-.89661-.89751m0,1.5619a.66475.66475,0,1,1,.66391-.6644A.6654.6654,0,0,1,260.121,277.3398Z" transform="translate(-146.9305 -130.43341)" style="fill:#fff"/><rect x="115.76149" y="142.28079" width="2.7193" height="0.2327" style="fill:#fff"/><rect x="117.00511" y="141.03668" width="0.233" height="2.7196" style="fill:#fff"/><path d="M264.05209,271.93359a.89685.89685,0,1,0,.89682.8968.89785.89785,0,0,0-.89682-.8968m0,1.561a.6643.6643,0,1,1,.66382-.6642A.666.666,0,0,1,264.05209,273.4946Z" transform="translate(-146.9305 -130.43341)" style="fill:#fff"/><rect x="115.76149" y="146.12599" width="2.7193" height="0.2325" style="fill:#fff"/><rect x="117.00511" y="144.88159" width="0.233" height="2.7204" style="fill:#fff"/><path d="M264.05209,275.77789a.89716.89716,0,1,0,.89682.89751.89858.89858,0,0,0-.89682-.89751m0,1.5619a.66475.66475,0,1,1,.66382-.6644A.66584.66584,0,0,1,264.05209,277.3398Z" transform="translate(-146.9305 -130.43341)" style="fill:#fff"/><path d="M263.52231,279.35271a.47424.47424,0,1,0,.47449.4742.47484.47484,0,0,0-.47449-.4742m0,.71539a.2412.2412,0,1,1,.24179-.2412A.24155.24155,0,0,1,263.52231,280.0681Z" transform="translate(-146.9305 -130.43341)" style="fill:#fff"/><path d="M265.12381,279.35271a.47424.47424,0,1,0,.474.4742.47464.47464,0,0,0-.474-.4742m0,.71539a.2412.2412,0,1,1,.24158-.2412A.24161.24161,0,0,1,265.12381,280.0681Z" transform="translate(-146.9305 -130.43341)" style="fill:#fff"/><path d="M146.9305,285.28419a1.61569,1.61569,0,0,1,0,.55841Z" transform="translate(-146.9305 -130.43341)" style="fill:#fff"/><path d="M154.85159,284.9919a.80923.80923,0,1,0,.23471.57091.81018.81018,0,0,0-.23471-.57091m-.57259-1.0363a1.60705,1.60705,0,1,1-1.13641.4705A1.60309,1.60309,0,0,1,154.279,283.9556Z" transform="translate(-146.9305 -130.43341)" style="fill:#fff"/><path d="M204.101,290.856a3.90785,3.90785,0,1,0-3.90759,3.90779A3.90806,3.90806,0,0,0,204.101,290.856" transform="translate(-146.9305 -130.43341)" style="fill:#fff;fill-rule:evenodd"/><polygon points="53.263 158.019 53.641 159.333 54.02 160.648 53.263 160.648 52.506 160.648 52.884 159.333 53.263 158.019" style="fill:#fff;fill-rule:evenodd"/><rect x="53.05771" y="160.54529" width="0.38409" height="2.2813" style="fill:#fff"/><path d="M179.1601,261.47c-.73189,0-1.2359-.6179-1.2359-1.7399s.504-1.7399,1.2359-1.7399,1.2359.618,1.2359,1.7399-.504,1.7399-1.2359,1.7399m0,.396c.972,0,1.67981-.7979,1.67981-2.13589s-.70781-2.13591-1.67981-2.13591-1.67389.798-1.67389,2.13591S178.1881,261.866,179.1601,261.866Zm-3.97189-.396c-.7319,0-1.2359-.6179-1.2359-1.7399s.504-1.7399,1.2359-1.7399,1.2359.618,1.2359,1.7399S175.92011,261.47,175.1882,261.47Zm0,.396c.972,0,1.67979-.7979,1.67979-2.13589s-.70779-2.13591-1.67979-2.13591-1.6739.798-1.6739,2.13591S174.2162,261.866,175.1882,261.866Zm-2.5498-.6599a.31406.31406,0,0,0-.318.324.30311.30311,0,0,0,.216.30589l-.2041.8699h.288l.252-.828a.97556.97556,0,0,0,.0842-.34779A.314.314,0,0,0,172.6384,261.2061Zm-2.622-1.8541h-.54l.144-1.338h1.91989v-.38379h-2.29781l-.216,2.1059h.89409c1.06781,0,1.4037.33591,1.4037.8759,0,.5099-.3779.858-1.09189.858a1.82176,1.82176,0,0,1-1.2901-.48581l-.2097.34181a2.16806,2.16806,0,0,0,1.50569.54c1.0262,0,1.52391-.5578,1.52391-1.2719C171.76221,259.85,171.2823,259.352,170.0164,259.352Z" transform="translate(-146.9305 -130.43341)" style="fill:#fff;fill-rule:evenodd"/><path d="M183.83389,188.2701c-.73189,0-1.23589-.61789-1.23589-1.7399s.504-1.7399,1.23589-1.7399,1.2359.618,1.2359,1.7399-.504,1.7399-1.2359,1.7399m0,.396c.972,0,1.67981-.7979,1.67981-2.13589s-.70781-2.13589-1.67981-2.13589-1.67389.798-1.67389,2.13589S182.86189,188.66609,183.83389,188.66609Zm-3.6301-2.43579,1.188-1.49409v-.30591h-2.7v.3838h2.1481l-1.16391,1.45819v.318h.29991c.7798,0,1.1339.33,1.1339.834,0,.5218-.3838.84579-1.08.84579a1.84173,1.84173,0,0,1-1.302-.48579l-.21.3418a2.18443,2.18443,0,0,0,1.512.54c1.0139,0,1.5239-.54,1.5239-1.24179C181.5537,186.7522,181.10381,186.2782,180.2038,186.2303ZM177.774,188.0062a.31414.31414,0,0,0-.3181.324.30323.30323,0,0,0,.216.30589l-.2041.8699h.288l.252-.828a.97556.97556,0,0,0,.0842-.34779A.314.314,0,0,0,177.774,188.0062Zm-2.7542-3.5759v.3838H176.01v3.816h.432v-4.1998Zm-2.16591,0v.3838h.9901v3.816h.432v-4.1998Z" transform="translate(-146.9305 -130.43341)" style="fill:#fff;fill-rule:evenodd"/><path d="M209.81419,275.2702c-.73189,0-1.2359-.6179-1.2359-1.7399s.504-1.7399,1.2359-1.7399,1.2359.618,1.2359,1.7399-.504,1.7399-1.2359,1.7399m0,.396c.972,0,1.67981-.7979,1.67981-2.13589s-.70781-2.13591-1.67981-2.13591-1.6738.798-1.6738,2.13591S208.84219,275.6662,209.81419,275.6662Zm-2.0701-1.5239h-.83989v-.972h-.4198v.972h-1.82411l2.1481-2.7119h-.48019l-2.2258,2.78389v.3118h2.3698v1.10411h.432v-1.10411h.83989Zm-4.4337.864a.31406.31406,0,0,0-.318.324.30311.30311,0,0,0,.216.30589l-.2041.8699h.288l.252-.828a.97556.97556,0,0,0,.0842-.34779A.314.314,0,0,0,203.31039,275.0063Zm-3.24.23979,1.4281-1.4037a1.72913,1.72913,0,0,0,.69-1.31409c0-.7019-.54-1.13391-1.39211-1.13391a1.88725,1.88725,0,0,0-1.4879.59981l.3058.26419a1.42651,1.42651,0,0,1,1.1461-.468c.642,0,.98389.2999.98389.78609,0,.2877-.08989.5697-.5638,1.0377l-1.7462,1.71021v.3058h2.94611v-.38411Z" transform="translate(-146.9305 -130.43341)" style="fill:#fff;fill-rule:evenodd"/><path d="M252.534,258.77c-.7319,0-1.2359-.6179-1.2359-1.7399s.504-1.7399,1.2359-1.7399,1.236.618,1.236,1.7399-.504,1.7399-1.236,1.7399m0,.396c.972,0,1.6799-.7979,1.6799-2.13589s-.7079-2.13591-1.6799-2.13591-1.6738.798-1.6738,2.13591S251.562,259.166,252.534,259.166Zm-4.098-4.23579v.38379h.9901v3.816h.432v-4.1998Zm-.61171,3.5759a.31414.31414,0,0,0-.3181.324.30325.30325,0,0,0,.216.30591l-.2041.8699h.288l.252-.828a.97589.97589,0,0,0,.0842-.34781A.314.314,0,0,0,247.8243,258.5061Zm-3.66609-3.5759v1.16989h.4261v-.7861h2.16l-1.728,3.816h.468l1.758-3.89391v-.30589Zm-2.304,0v.38379h.9902v3.816h.432v-4.1998Z" transform="translate(-146.9305 -130.43341)" style="fill:#fff;fill-rule:evenodd"/><path d="M247.9864,150.77c-.7319,0-1.2359-.61789-1.2359-1.7399s.504-1.7399,1.2359-1.7399,1.2359.618,1.2359,1.7399-.504,1.7399-1.2359,1.7399m0,.396c.972,0,1.67979-.79788,1.67979-2.13589s-.70779-2.13589-1.67979-2.13589-1.6738.798-1.6738,2.13589S247.0144,151.166,247.9864,151.166Zm-4.5-.42007,1.4281-1.40372a1.72915,1.72915,0,0,0,.69-1.31409c0-.7019-.54-1.13391-1.39211-1.13391a1.88727,1.88727,0,0,0-1.4879.59979l.3058.26422a1.42644,1.42644,0,0,1,1.1461-.468c.642,0,.98389.2999.98389.7861,0,.28772-.08989.5697-.5638,1.03772l-1.7462,1.71017V151.13h2.94611v-.38409Zm-1.55991-.23981a.31406.31406,0,0,0-.318.324.3031.3031,0,0,0,.216.30588l-.20409.8699h.288l.252-.828a.9755.9755,0,0,0,.0842-.34778A.314.314,0,0,0,241.9265,150.5061Zm-2.2861-1.77591,1.188-1.49408v-.30591h-2.7v.38379h2.1481l-1.16391,1.45819v.318h.29991c.7798,0,1.13379.33,1.13379.834,0,.52182-.38379.84579-1.08.84579a1.84151,1.84151,0,0,1-1.3019-.48578l-.2101.3418a2.18472,2.18472,0,0,0,1.512.54c1.014,0,1.52391-.54,1.52391-1.24179C240.9902,149.25211,240.54041,148.77811,239.6404,148.73019Z" transform="translate(-146.9305 -130.43341)" style="fill:#fff;fill-rule:evenodd"/><path d="M163.95081,280.20531h-2.54321v6.82019h2.54321Zm4.44159,3.9283h-2.5432v2.89189h2.5432Zm0-3.96111h-2.5432v2.89189h2.5432Zm-10.8521.03281h2.5432v6.82019h-2.5432Zm-1.6617-1.18121h13.79V289.7229h-13.79Z" transform="translate(-146.9305 -130.43341)" style="fill:#003915;fill-rule:evenodd"/><path d="M227.4483,274.0907v2.5433h-6.9599v-2.5433Zm0-4.33611v2.54321h-6.9599v-2.54321Zm-4.068-4.44159v2.5432H220.4884V265.313Zm4.068,0v2.5432H224.5564V265.313Zm-9.72571-2.5892h12.6765v21.1915H217.7226Z" transform="translate(-146.9305 -130.43341)" style="fill:#003915;fill-rule:evenodd"/><path d="M195.2464,216.91679a.37407.37407,0,0,1,.3748-.64749l13.9201,8.0399a.37407.37407,0,0,1-.3748.64749Z" transform="translate(-146.9305 -130.43341)" style="fill:#003915"/><path d="M219.1969,165.22559a.374.374,0,0,1,.3748-.6474l13.92,8.03992a.374.374,0,1,1-.37469.6474Z" transform="translate(-146.9305 -130.43341)" style="fill:#003915"/><path d="M190.5369,267.5529a.374.374,0,0,1-.6474-.37471l8.0399-13.92009a.37405.37405,0,0,1,.64751.37469Z" transform="translate(-146.9305 -130.43341)" style="fill:#003915"/><rect x="61.9109" y="28.35577" width="2.6022" height="67.64432" style="fill:#003915"/><rect x="1.84221" y="93.39789" width="42.68469" height="2.6022" style="fill:#003915"/><rect x="0.2352" y="113.84879" width="1.11971" height="2.6022" style="fill:#003915"/><rect x="0.2352" y="119.59879" width="1.11971" height="2.6022" style="fill:#003915"/><rect x="3.16031" y="96.7309" width="39.4308" height="2.60219" style="fill:#003915"/><rect x="40.77831" y="94.78209" width="2.6022" height="25.617" style="fill:#003915"/><rect x="70.7921" y="113.6852" width="2.6022" height="18.8651" style="fill:#003915"/><rect x="40.70891" y="136.34729" width="2.60219" height="25.617" style="fill:#003915"/><rect x="126.33391" width="5.00198" height="157.31999" style="fill:#003915"/><rect x="0.2352" y="9.63779" width="5.002" height="147.68221" style="fill:#003915"/><rect x="0.2352" y="156.77438" width="43.0759" height="6.42551" style="fill:#003915"/><rect x="63.48351" y="156.77438" width="13.5463" height="6.42551" style="fill:#003915"/><rect x="70.7921" y="150.96588" width="60.54379" height="6.42561" style="fill:#003915"/><rect x="101.6212" y="30.89429" width="27.3923" height="8.1601" style="fill:#003915"/><rect x="128.55571" y="30.89429" width="2.78018" height="8.1601" style="fill:#003915"/><rect x="61.9109" y="30.89429" width="10.50211" height="8.1601" style="fill:#003915"/><rect x="0.2352" y="5.5199" width="18.08051" height="8.1601" style="fill:#003915"/><rect x="47.14951" y="5.5199" width="22.92149" height="8.1601" style="fill:#003915"/><rect x="64.5511" y="113.6852" width="8.1601" height="12.78429" style="fill:#003915"/><rect x="61.9109" width="8.1601" height="39.05438" style="fill:#003915"/><rect x="59.44901" width="10.62199" height="13.67999" style="fill:#003915"/><rect x="31.79111" y="8.52179" width="0.50169" height="2.29858" style="fill:#003915"/><rect x="32.98981" y="8.52179" width="0.50119" height="2.29858" style="fill:#003915"/><rect x="45.627" y="8.52179" width="0.5014" height="2.29858" style="fill:#003915"/><rect x="46.8255" y="8.52179" width="0.5011" height="2.29858" style="fill:#003915"/><rect x="17.6794" y="8.52179" width="0.50171" height="2.29858" style="fill:#003915"/><rect x="18.87781" y="8.52179" width="0.50119" height="2.29858" style="fill:#003915"/><rect x="15.28981" y="5.5199" width="34.09369" height="0.5015" style="fill:#003915"/><rect x="15.28981" y="8.3671" width="34.09369" height="0.5014" style="fill:#003915"/><rect x="15.28981" y="10.53839" width="34.09369" height="0.5014" style="fill:#003915"/><rect x="15.28981" y="13.17938" width="34.09369" height="0.5015" style="fill:#003915"/><path d="M238.6216,164.67538v1.66992h-.697v-1.66992Zm13.5692,0v1.66992h-13.0677v-1.66992Zm1.19821,0v1.66992h-.69711v-1.66992Zm.50169,1.66992v-1.66992h5.78951v-.5015h-21.7556v-2.34558h21.7556v-.5015H237.4234v8.161h22.25681v-.5015h-21.7556v-2.13959h18.05179v-.5014Z" transform="translate(-146.9305 -130.43341)" style="fill:#003915;fill-rule:evenodd"/><rect x="87.965" y="3.84009" width="0.44701" height="1.29721" style="fill:#003915"/><rect x="89.0331" y="3.84009" width="0.4467" height="1.29721" style="fill:#003915"/><rect x="106.567" y="3.84009" width="0.4471" height="1.29721" style="fill:#003915"/><rect x="107.6351" y="3.84009" width="0.44681" height="1.29721" style="fill:#003915"/><rect x="125.16942" y="3.84009" width="0.44699" height="1.29721" style="fill:#003915"/><rect x="126.2375" y="3.84009" width="0.44669" height="1.29721" style="fill:#003915"/><rect x="69.36261" y="3.84009" width="0.44699" height="1.29721" style="fill:#003915"/><rect x="70.43071" y="3.84009" width="0.4467" height="1.29721" style="fill:#003915"/><rect x="67.9297" y="2.61069" width="60.82129" height="0.44681" style="fill:#003915"/><rect x="67.9297" y="3.70209" width="60.82129" height="0.44672" style="fill:#003915"/><rect x="67.9297" y="4.7829" width="60.82129" height="0.44678" style="fill:#003915"/><rect x="130.2151" y="3.84009" width="0.44699" height="1.29721" style="fill:#003915"/><rect x="131.28322" y="3.84009" width="0.05267" height="1.29721" style="fill:#003915"/><rect x="128.78221" y="2.61069" width="2.55368" height="0.44681" style="fill:#003915"/><rect x="128.78221" y="3.70209" width="2.55368" height="0.44672" style="fill:#003915"/><rect x="128.78221" y="4.7829" width="2.55368" height="0.44678" style="fill:#003915"/><path d="M152.6091,257.6348v-9.8224a.90535.90535,0,0,1,.904-.9054h4.6102a4.59569,4.59569,0,0,1,4.591,4.5896v2.4523a4.59567,4.59567,0,0,1-4.591,4.59041h-4.6102a.90478.90478,0,0,1-.904-.90451m9.8606-6.1382a4.351,4.351,0,0,0-4.34639-4.34489h-4.6102a.66142.66142,0,0,0-.65991.66069v9.8224a.66074.66074,0,0,0,.65991.6599h4.6102a4.35139,4.35139,0,0,0,4.34639-4.34579Z" transform="translate(-146.9305 -130.43341)" style="fill:#003915"/><path d="M161.3795,251.4969a3.25879,3.25879,0,0,0-3.25619-3.2545H155.4352a.56793.56793,0,0,0-.56749.56729v3.5753h-.2451v-3.5753a.81411.81411,0,0,1,.81259-.8125h2.68811a3.50415,3.50415,0,0,1,3.50079,3.49971v2.4523a3.50461,3.50461,0,0,1-3.50079,3.5007H155.4352a.81445.81445,0,0,1-.81259-.81351v-3.5753h.2451v3.5753a.56827.56827,0,0,0,.56749.5683h2.68811a3.25932,3.25932,0,0,0,3.25619-3.25549Z" transform="translate(-146.9305 -130.43341)" style="fill:#003915"/><path d="M157.7758,252.72369a.7835.7835,0,1,1,.78349.7838.78479.78479,0,0,1-.78349-.7838m1.3224,0a.53875.53875,0,1,0-.53891.5392A.53963.53963,0,0,0,159.09821,252.72369Z" transform="translate(-146.9305 -130.43341)" style="fill:#003915"/><rect x="11.0701" y="122.16789" width="1.11661" height="0.2449" style="fill:#003915"/><rect x="11.5058" y="121.73189" width="0.2455" height="1.116" style="fill:#003915"/><path d="M153.7914,253.0611v.40361a.17373.17373,0,0,0,.1741.1729h.3793a.17364.17364,0,0,0,.174-.1729v-.40361h.2449v.40361a.41867.41867,0,0,1-.4189.41809h-.3793a.41862.41862,0,0,1-.4187-.41809v-.40561l.0374.002Zm.7274-1.07719a.17446.17446,0,0,0-.174-.1741h-.3793a.17456.17456,0,0,0-.1741.1741v.40109h-.2072l-.0374.0023v-.4034a.41863.41863,0,0,1,.4187-.4187h.3793a.41867.41867,0,0,1,.4189.4187v.40109h-.2449Z" transform="translate(-146.9305 -130.43341)" style="fill:#003915"/><path d="M153.1239,252.72369a.46109.46109,0,0,1,.4603-.4612h3.0804a.4605.4605,0,0,1,0,.921h-3.0804a.46054.46054,0,0,1-.4603-.45981m3.7567,0a.21669.21669,0,0,0-.216-.2162h-3.0804a.21555.21555,0,0,0,0,.43111h3.0804A.21609.21609,0,0,0,156.8806,252.72369Z" transform="translate(-146.9305 -130.43341)" style="fill:#003915"/><path d="M166.60831,271.50951a3.91692,3.91692,0,0,0-3.913-3.91151H157.03a.67731.67731,0,0,0-.63921.4561,1.24882,1.24882,0,0,0-.2049-.2036.94558.94558,0,0,1,.8441-.5215h5.6653a4.1808,4.1808,0,1,1,0,8.3616H157.03a.9454.9454,0,0,1-.8436-.521,1.23458,1.23458,0,0,0,.2047-.20331.67635.67635,0,0,0,.6389.45561h5.6653a3.91717,3.91717,0,0,0,3.913-3.9124" transform="translate(-146.9305 -130.43341)" style="fill:#003915"/><path d="M158.1109,274.3132v-5.6089a.20391.20391,0,0,1,.20149-.2012h4.27071a3.00655,3.00655,0,1,1,0,6.01311h-4.27071a.20468.20468,0,0,1-.20149-.203m.2681-5.5414v5.476h4.2041a2.738,2.738,0,0,0,0-5.476Z" transform="translate(-146.9305 -130.43341)" style="fill:#003915"/><path d="M160.8418,271.5092a1.0081,1.0081,0,1,1,1.008,1.0089,1.01,1.01,0,0,1-1.008-1.0089m1.7475,0a.7394.7394,0,1,0-.7395.7399A.74037.74037,0,0,0,162.58929,271.5092Z" transform="translate(-146.9305 -130.43341)" style="fill:#003915"/><rect x="159.63133" y="268.76671" width="0.26854" height="2.24223" transform="translate(-299.02143 106.13798) rotate(-53.2778)" style="fill:#003915"/><rect x="158.64425" y="272.95255" width="2.24309" height="0.26914" transform="translate(-278.70165 19.73954) rotate(-36.81017)" style="fill:#003915"/><path d="M152.6091,274.2101v-5.4006a1.355,1.355,0,0,1,1.35381-1.3524h1.47429a1.35345,1.35345,0,0,1,1.3524,1.3524v5.4006a1.35313,1.35313,0,0,1-1.3524,1.35181h-1.47429a1.35471,1.35471,0,0,1-1.35381-1.35181m3.91209-5.4006a1.0855,1.0855,0,0,0-1.084-1.08429h-1.47429a1.08593,1.08593,0,0,0-1.0851,1.08429v5.4006a1.086,1.086,0,0,0,1.0851,1.08369h1.47429a1.08556,1.08556,0,0,0,1.084-1.08369Z" transform="translate(-146.9305 -130.43341)" style="fill:#003915"/><path d="M154.0114,271.5092a.6881.6881,0,1,1,.68741.68829.68809.68809,0,0,1-.68741-.68829m1.10721,0a.41925.41925,0,1,0-.4198.41949A.41935.41935,0,0,0,155.11861,271.5092Z" transform="translate(-146.9305 -130.43341)" style="fill:#003915"/><path d="M175.839,278.7702h0v7.83949h11.348V278.7702Zm-.33081,8.17079v-8.5025H187.518v8.5025Z" transform="translate(-146.9305 -130.43341)" style="fill:#003915"/><path d="M178.2334,278.5457a.60439.60439,0,0,1,.5936-.61259h5.37221a.60406.60406,0,0,1,.5939.61259h-.33081a.26978.26978,0,0,0-.26309-.281H178.827a.26946.26946,0,0,0-.2627.281Z" transform="translate(-146.9305 -130.43341)" style="fill:#003915"/><path d="M180.4912,281.1722h0v2.7077l1.5974.6216a2.4736,2.4736,0,0,0-.09189-1.6747,4.1547,4.1547,0,0,1-.24121-1.24069,2.44952,2.44952,0,0,1,.1882-.9366Zm-.3308,2.9342v-3.1669l2.4801-.892-.22481.39059a2.26561,2.26561,0,0,0-.32939,1.148,3.89166,3.89166,0,0,0,.22679,1.1438,3.9001,3.9001,0,0,1,.22821,1.144,2.01781,2.01781,0,0,1-.218.91249l-.0675.1358Z" transform="translate(-146.9305 -130.43341)" style="fill:#003915"/><path d="M154.7603,244.584h30.085a2.16106,2.16106,0,0,0,2.15149-2.1656V232.007a2.16094,2.16094,0,0,0-2.15149-2.16591h-30.085a2.16082,2.16082,0,0,0-2.1512,2.16591V242.4184a2.16094,2.16094,0,0,0,2.1512,2.1656m30.085-14.51311a1.93115,1.93115,0,0,1,1.9218,1.93611V242.4184a1.931,1.931,0,0,1-1.9218,1.9355h-30.085a1.93147,1.93147,0,0,1-1.9222-1.9355V232.007a1.93162,1.93162,0,0,1,1.9222-1.93611Z" transform="translate(-146.9305 -130.43341)" style="fill:#003915"/><path d="M181.8595,231.3329a2.57712,2.57712,0,0,1,2.5654,2.58209v6.5948a2.5766,2.5766,0,0,1-2.5654,2.5818H157.74631a2.577,2.577,0,0,1-2.5659-2.5818v-2.06189a.39664.39664,0,0,1-.22821.142v1.91989a2.80639,2.80639,0,0,0,2.79411,2.8125H181.8595a2.80664,2.80664,0,0,0,2.7944-2.8125V233.915a2.80657,2.80657,0,0,0-2.7944-2.81219H157.74631a2.80633,2.80633,0,0,0-2.79411,2.81219v1.92021a.39567.39567,0,0,1,.22821.14139V233.915a2.57754,2.57754,0,0,1,2.5659-2.58209Z" transform="translate(-146.9305 -130.43341)" style="fill:#003915"/><path d="M180.3121,232.64619a1.26659,1.26659,0,0,1,1.26109,1.2688v6.5948a1.26627,1.26627,0,0,1-1.26109,1.2682h-22.5658a1.26621,1.26621,0,0,1-1.26141-1.2682V237.665h-.2287v2.8448a1.49621,1.49621,0,0,0,1.49011,1.499h22.5658a1.49565,1.49565,0,0,0,1.4893-1.499V233.915a1.49533,1.49533,0,0,0-1.4893-1.499h-22.5658a1.49589,1.49589,0,0,0-1.49011,1.499v2.84511h.2287V233.915a1.26653,1.26653,0,0,1,1.26141-1.2688Z" transform="translate(-146.9305 -130.43341)" style="fill:#003915"/><path d="M159.6515,237.9453a.73331.73331,0,1,0-.7299-.7336.73144.73144,0,0,0,.7299.7336m0-1.2365a.5033.5033,0,1,1-.50031.5029A.502.502,0,0,1,159.6515,236.7088Z" transform="translate(-146.9305 -130.43341)" style="fill:#003915"/><rect x="12.60591" y="106.25589" width="0.22929" height="1.0457" style="fill:#003915"/><rect x="12.20171" y="106.66289" width="1.0378" height="0.2308" style="fill:#003915"/><path d="M155.1515,237.665v.5374a.27991.27991,0,0,1-.27861.28041h-.50519a.28042.28042,0,0,1-.27921-.28041v-.5374h-.22881v.5374a.51042.51042,0,0,0,.508.51111h.50519a.50971.50971,0,0,0,.5074-.51111v-.5374Zm-.27861-1.72209a.27984.27984,0,0,1,.27861.28009v.53711h.22879V236.223a.50925.50925,0,0,0-.5074-.51079h-.50519a.51.51,0,0,0-.508.51079v.53711h.22881V236.223a.28035.28035,0,0,1,.27921-.28009Z" transform="translate(-146.9305 -130.43341)" style="fill:#003915"/><path d="M153.86169,237.7803h3.2012a.56761.56761,0,0,0,0-1.13521h-3.2012a.56762.56762,0,0,0,0,1.13521m3.2012-.90511a.33721.33721,0,0,1,0,.67441h-3.2012a.33721.33721,0,0,1,0-.67441Z" transform="translate(-146.9305 -130.43341)" style="fill:#003915"/><path d="M236.9041,269.2715h11.7692v11.76891H236.9041Zm11.5197.2495H237.15331V280.7915H248.4238Z" transform="translate(-146.9305 -130.43341)" style="fill:#003915"/><path d="M242.7885,279.94231a3.91958,3.91958,0,0,0,.9817-7.7142.3.3,0,0,0,.0742-.1976V271.99a4.16847,4.16847,0,1,1-2.11151-.00031v.0408a.29843.29843,0,0,0,.074.1973,3.91975,3.91975,0,0,0,.9816,7.71451" transform="translate(-146.9305 -130.43341)" style="fill:#003915"/><path d="M242.7885,272.5416a3.4815,3.4815,0,1,1-3.4812,3.48181,3.48581,3.48581,0,0,1,3.4812-3.48181m0,6.71361a3.23195,3.23195,0,1,0-3.2317-3.2318A3.23548,3.23548,0,0,0,242.7885,279.2552Z" transform="translate(-146.9305 -130.43341)" style="fill:#003915"/><path d="M242.7885,275.1208a.9023.9023,0,1,1-.9025.9026.90336.90336,0,0,1,.9025-.9026m0,1.55569a.65295.65295,0,1,0-.65309-.65309A.65425.65425,0,0,0,242.7885,276.6765Z" transform="translate(-146.9305 -130.43341)" style="fill:#003915"/><rect x="95.73331" y="144.93259" width="0.2495" height="1.3139" style="fill:#003915"/><rect x="95.2012" y="145.46469" width="1.3136" height="0.24969" style="fill:#003915"/><path d="M242.03481,271.21671h1.50749a.42706.42706,0,0,1,.42661.42659v.38721a.42686.42686,0,0,1-.42661.42659h-1.50749a.42679.42679,0,0,1-.42661-.42659v-.38721a.427.427,0,0,1,.42661-.42659m1.50749.991a.17764.17764,0,0,0,.1774-.1772v-.38721a.17745.17745,0,0,0-.1774-.1772h-1.50749a.17728.17728,0,0,0-.1772.1772v.38721a.17747.17747,0,0,0,.1772.1772Z" transform="translate(-146.9305 -130.43341)" style="fill:#003915"/><path d="M243.0085,271.3414v-.0865a.2197.2197,0,0,0-.43939,0v.0865h-.24971v-.0865a.4694.4694,0,0,1,.9388,0v.0865Zm-.22,2.59a.22043.22043,0,0,0,.22-.22049V272.3324h.24969v1.37851a.4694.4694,0,1,1-.9388,0V272.3324h.24971v1.37851A.22.22,0,0,0,242.7885,273.9314Z" transform="translate(-146.9305 -130.43341)" style="fill:#003915"/><path d="M265.56891,269.7529h-7.15662a1.49614,1.49614,0,0,0-1.4942,1.49471v8.29869a1.496,1.496,0,0,0,1.4942,1.49411h7.15662a1.4956,1.4956,0,0,0,1.49408-1.49411V271.2476a1.49572,1.49572,0,0,0-1.49408-1.49471m-7.15662,11.0545a1.26265,1.26265,0,0,1-1.2612-1.26111V271.2476a1.26277,1.26277,0,0,1,1.2612-1.2617h7.15662a1.26307,1.26307,0,0,1,1.26169,1.2617v8.29869a1.263,1.263,0,0,1-1.26169,1.26111Z" transform="translate(-146.9305 -130.43341)" style="fill:#003915"/><path d="M265.56891,270.57179h-7.15662a.67615.67615,0,0,0-.67578.67581v7.01059a.67635.67635,0,0,0,.67578.67581h7.15662a.67648.67648,0,0,0,.6763-.67581V271.2476a.67628.67628,0,0,0-.6763-.67581m-7.15662,8.12921a.44326.44326,0,0,1-.44308-.44281V271.2476a.4435.4435,0,0,1,.44308-.4431h7.15662a.44385.44385,0,0,1,.44388.4431v7.01059a.4436.4436,0,0,1-.44388.44281Z" transform="translate(-146.9305 -130.43341)" style="fill:#003915"/><path d="M259.1124,279.35271a.47424.47424,0,1,0,.47421.4742.47508.47508,0,0,0-.47421-.4742m0,.71539a.2412.2412,0,1,1,.24152-.2412A.24184.24184,0,0,1,259.1124,280.0681Z" transform="translate(-146.9305 -130.43341)" style="fill:#003915"/><path d="M260.7131,279.35271a.47424.47424,0,1,0,.47479.4742.475.475,0,0,0-.47479-.4742m0,.71539a.2412.2412,0,1,1,.24179-.2412A.24154.24154,0,0,1,260.7131,280.0681Z" transform="translate(-146.9305 -130.43341)" style="fill:#003915"/><rect x="111.73521" y="142.28079" width="2.71948" height="0.2327" style="fill:#003915"/><rect x="112.97871" y="141.03668" width="0.23279" height="2.7196" style="fill:#003915"/><path d="M260.02539,271.93359a.89685.89685,0,1,0,.89661.8968.89789.89789,0,0,0-.89661-.8968m0,1.561a.6643.6643,0,1,1,.66391-.6642A.66557.66557,0,0,1,260.02539,273.4946Z" transform="translate(-146.9305 -130.43341)" style="fill:#003915"/><rect x="111.73521" y="146.12599" width="2.71948" height="0.2325" style="fill:#003915"/><rect x="112.97871" y="144.88159" width="0.23279" height="2.7204" style="fill:#003915"/><path d="M260.02539,275.77789a.89716.89716,0,1,0,.89661.89751.89861.89861,0,0,0-.89661-.89751m0,1.5619a.66475.66475,0,1,1,.66391-.6644A.66542.66542,0,0,1,260.02539,277.3398Z" transform="translate(-146.9305 -130.43341)" style="fill:#003915"/><rect x="115.666" y="142.28079" width="2.71921" height="0.2327" style="fill:#003915"/><rect x="116.9095" y="141.03668" width="0.233" height="2.7196" style="fill:#003915"/><path d="M263.95651,271.93359a.89685.89685,0,1,0,.89688.8968.89775.89775,0,0,0-.89688-.8968m0,1.561a.6643.6643,0,1,1,.66388-.6642A.66607.66607,0,0,1,263.95651,273.4946Z" transform="translate(-146.9305 -130.43341)" style="fill:#003915"/><rect x="115.666" y="146.12599" width="2.71921" height="0.2325" style="fill:#003915"/><rect x="116.9095" y="144.88159" width="0.233" height="2.7204" style="fill:#003915"/><path d="M263.95651,275.77789a.89716.89716,0,1,0,.89688.89751.89848.89848,0,0,0-.89688-.89751m0,1.5619a.66475.66475,0,1,1,.66388-.6644A.66593.66593,0,0,1,263.95651,277.3398Z" transform="translate(-146.9305 -130.43341)" style="fill:#003915"/><path d="M263.4267,279.35271a.47424.47424,0,1,0,.47461.4742.47481.47481,0,0,0-.47461-.4742m0,.71539a.2412.2412,0,1,1,.24179-.2412A.24158.24158,0,0,1,263.4267,280.0681Z" transform="translate(-146.9305 -130.43341)" style="fill:#003915"/><path d="M265.02829,279.35271a.47424.47424,0,1,0,.474.4742.47462.47462,0,0,0-.474-.4742m0,.71539a.2412.2412,0,1,1,.24152-.2412A.2416.2416,0,0,1,265.02829,280.0681Z" transform="translate(-146.9305 -130.43341)" style="fill:#003915"/><path d="M154.5695,284.9514a.809.809,0,1,0,.2348.57089.80961.80961,0,0,0-.2348-.57089m-.5726-1.03641a1.60711,1.60711,0,1,1-1.1364.47061A1.60258,1.60258,0,0,1,153.9969,283.915Z" transform="translate(-146.9305 -130.43341)" style="fill:#003915"/><path d="M179.73669,261.47c-.73189,0-1.2359-.6179-1.2359-1.7399s.504-1.7399,1.2359-1.7399,1.2359.618,1.2359,1.7399-.504,1.7399-1.2359,1.7399m0,.396c.972,0,1.67981-.7979,1.67981-2.13589s-.70781-2.13591-1.67981-2.13591-1.67389.798-1.67389,2.13591S178.76469,261.866,179.73669,261.866Zm-3.9059-.36589c-.74409,0-1.182-.324-1.182-.84621,0-.5159.4379-.8399,1.182-.8399.7438,0,1.188.324,1.188.8399C177.0188,261.1761,176.5746,261.50011,175.8308,261.50011Zm-1.038-2.78391c0-.468.4019-.756,1.038-.756.6299,0,1.044.288,1.044.7619,0,.45609-.39.75009-1.044.75009S174.7928,259.17819,174.7928,258.7162Zm1.8479.9119a.95117.95117,0,0,0,.6721-.9238c0-.684-.59421-1.11011-1.482-1.11011-.88809,0-1.47.4261-1.47,1.11011a.94773.94773,0,0,0,.65991.9238,1.04819,1.04819,0,0,0-.80991,1.0321c0,.7438.612,1.2058,1.62,1.2058,1.00211,0,1.63191-.462,1.63191-1.2058A1.05754,1.05754,0,0,0,176.6407,259.6281Zm-3.40781,1.578a.31414.31414,0,0,0-.3181.324.30323.30323,0,0,0,.216.30589l-.2041.8699h.288l.252-.828a.9759.9759,0,0,0,.0842-.34779A.314.314,0,0,0,173.23289,261.2061Zm-.84619-.864h-.8399v-.972h-.4198v.972h-1.8241l2.1481-2.7119h-.48021l-2.2258,2.78389v.31181h2.36981V261.83h.432v-1.1041h.8399Z" transform="translate(-146.9305 -130.43341)" style="fill:#6e6e6e;fill-rule:evenodd"/><path d="M183.7383,188.2701c-.7319,0-1.2359-.61789-1.2359-1.7399s.504-1.7399,1.2359-1.7399,1.2359.618,1.2359,1.7399-.504,1.7399-1.2359,1.7399m0,.396c.972,0,1.67981-.7979,1.67981-2.13589s-.70781-2.13589-1.67981-2.13589-1.6738.798-1.6738,2.13589S182.7663,188.66609,183.7383,188.66609Zm-3.63-2.43579,1.188-1.49409v-.30591h-2.7v.3838h2.1481l-1.16389,1.45819v.318h.2999c.7798,0,1.1338.33,1.1338.834,0,.5218-.3838.84579-1.08.84579a1.84152,1.84152,0,0,1-1.30191-.48579l-.2101.3418a2.18469,2.18469,0,0,0,1.512.54c1.014,0,1.5239-.54,1.5239-1.24179C181.4581,186.7522,181.0083,186.2782,180.10831,186.2303Zm-2.4299,1.77589a.31407.31407,0,0,0-.318.324.30311.30311,0,0,0,.216.30589l-.2041.8699h.288l.252-.828a.97565.97565,0,0,0,.08421-.34779A.314.314,0,0,0,177.67841,188.0062Zm-2.7541-3.5759v.3838h.9901v3.816h.432v-4.1998Zm-2.166,0v.3838h.9902v3.816h.432v-4.1998Z" transform="translate(-146.9305 -130.43341)" style="fill:#6e6e6e;fill-rule:evenodd"/><path d="M209.7187,275.2702c-.7319,0-1.2359-.6179-1.2359-1.7399s.504-1.7399,1.2359-1.7399,1.2359.618,1.2359,1.7399-.504,1.7399-1.2359,1.7399m0,.396c.972,0,1.67979-.7979,1.67979-2.13589s-.70779-2.13591-1.67979-2.13591-1.6738.798-1.6738,2.13591S208.7467,275.6662,209.7187,275.6662Zm-2.0701-1.5239h-.8399v-.972h-.4198v.972h-1.8241l2.1481-2.7119h-.48021l-2.2258,2.78389v.3118h2.3698v1.10411h.432v-1.10411h.8399Zm-4.4337.864a.31406.31406,0,0,0-.318.324.30311.30311,0,0,0,.216.30589l-.2041.8699h.288l.252-.828a.97526.97526,0,0,0,.08409-.34779A.314.314,0,0,0,203.2149,275.0063Zm-3.24.23979,1.4281-1.4037a1.72893,1.72893,0,0,0,.6899-1.31409c0-.7019-.54-1.13391-1.392-1.13391a1.88745,1.88745,0,0,0-1.488.59981l.30589.26419a1.42641,1.42641,0,0,1,1.1461-.468c.642,0,.9839.2999.9839.78609,0,.2877-.0899.5697-.5639,1.0377l-1.74609,1.71021v.3058h2.94609v-.38411Z" transform="translate(-146.9305 -130.43341)" style="fill:#6e6e6e;fill-rule:evenodd"/><path d="M252.43851,258.77c-.7319,0-1.2359-.6179-1.2359-1.7399s.504-1.7399,1.2359-1.7399,1.23589.618,1.23589,1.7399-.504,1.7399-1.23589,1.7399m0,.396c.972,0,1.67979-.7979,1.67979-2.13589s-.70779-2.13591-1.67979-2.13591-1.67381.798-1.67381,2.13591S251.46651,259.166,252.43851,259.166Zm-4.098-4.23579v.38379h.9901v3.816h.432v-4.1998Zm-.61169,3.5759a.31413.31413,0,0,0-.3181.324.30324.30324,0,0,0,.216.30591l-.20409.8699h.288l.252-.828a.97556.97556,0,0,0,.0842-.34781A.314.314,0,0,0,247.72881,258.5061Zm-3.66611-3.5759v1.16989h.4261v-.7861h2.16l-1.728,3.816h.468l1.758-3.89391v-.30589Zm-2.304,0v.38379h.9902v3.816h.432v-4.1998Z" transform="translate(-146.9305 -130.43341)" style="fill:#6e6e6e;fill-rule:evenodd"/><path d="M247.8909,150.77c-.7319,0-1.2359-.61789-1.2359-1.7399s.504-1.7399,1.2359-1.7399,1.2359.618,1.2359,1.7399-.504,1.7399-1.2359,1.7399m0,.396c.972,0,1.67979-.79788,1.67979-2.13589s-.70779-2.13589-1.67979-2.13589-1.6739.798-1.6739,2.13589S246.9189,151.166,247.8909,151.166Zm-4.5-.42007,1.4281-1.40372a1.729,1.729,0,0,0,.6899-1.31409c0-.7019-.54-1.13391-1.392-1.13391a1.88747,1.88747,0,0,0-1.488.59979l.30589.26422a1.42633,1.42633,0,0,1,1.1461-.468c.642,0,.9839.2999.9839.7861,0,.28772-.0899.5697-.5639,1.03772l-1.74609,1.71017V151.13h2.94609v-.38409Zm-1.55991-.23981a.31414.31414,0,0,0-.3181.324.30321.30321,0,0,0,.216.30588l-.204.8699h.288l.252-.828a.97729.97729,0,0,0,.08411-.34778A.314.314,0,0,0,241.831,150.5061Zm-2.28609-1.77591,1.188-1.49408v-.30591h-2.7v.38379h2.148l-1.16389,1.45819v.318h.2999c.77991,0,1.13391.33,1.13391.834,0,.52182-.3838.84579-1.08.84579a1.84158,1.84158,0,0,1-1.30191-.48578l-.2101.3418a2.18456,2.18456,0,0,0,1.512.54c1.014,0,1.5239-.54,1.5239-1.24179C240.8947,149.25211,240.4449,148.77811,239.54491,148.73019Z" transform="translate(-146.9305 -130.43341)" style="fill:#6e6e6e;fill-rule:evenodd"/><path d="M204.00549,288.8839a3.90784,3.90784,0,1,0-3.90759,3.90781,3.90812,3.90812,0,0,0,3.90759-3.90781" transform="translate(-146.9305 -130.43341)" style="fill:#558e42;fill-rule:evenodd"/><polygon points="53.167 156.047 53.546 157.361 53.924 158.676 53.167 158.676 52.411 158.676 52.789 157.361 53.167 156.047" style="fill:#fdfdfd;fill-rule:evenodd"/><rect x="52.9622" y="158.57318" width="0.38409" height="2.2814" style="fill:#fdfdfd"/><path d="M248.51711,140.06271l.69279-.87131v-.17862h-1.575v.22391h1.2529l-.67891.85071v.18539h.17491c.45529,0,.66159.19241.66159.48639,0,.30441-.22389.4935-.62979.4935a1.074,1.074,0,0,1-.7597-.28348l-.1225.19958a1.27473,1.27473,0,0,0,.8822.31491c.59129,0,.8889-.31491.8889-.72452,0-.392-.2625-.6684-.7874-.69647m-2.1351,1.20758c-.434,0-.68941-.18909-.68941-.4935,0-.30109.2554-.49008.68941-.49008s.6931.189.6931.49008C247.0751,141.08121,246.816,141.27029,246.382,141.27029Zm-.6055-1.624c0-.273.2347-.4411.6055-.4411.36769,0,.60919.16809.60919.44449,0,.2662-.2276.43771-.60919.43771C246.00079,140.0874,245.7765,139.91589,245.7765,139.6463Zm1.07809.5321a.555.555,0,0,0,.392-.53922c0-.3988-.34639-.6474-.86459-.6474-.5179,0-.8575.2486-.8575.6474a.55311.55311,0,0,0,.3853.53922.61093.61093,0,0,0-.47261.60181c0,.434.3569.70349.94481.70349.5845,0,.95219-.2695.95219-.70349A.61686.61686,0,0,0,246.8546,140.17841Zm-1.988.92038a.18318.18318,0,0,0-.18539.18912.17674.17674,0,0,0,.1259.17828l-.11909.5076h.16809l.14711-.483a.574.574,0,0,0,.0491-.20291A.18323.18323,0,0,0,244.86659,141.09879Zm-1.89009.14.8331-.81891a1.00772,1.00772,0,0,0,.4025-.76648c0-.40961-.3149-.66162-.8121-.66162a1.101,1.101,0,0,0-.868.3501l.1786.1539a.832.832,0,0,1,.6684-.273c.3744,0,.574.1749.574.4584,0,.16809-.0524.33249-.3288.6055l-1.01851.9975v.17859h1.7184v-.224Z" transform="translate(-146.9305 -130.43341)" style="fill:#434242"/><path d="M182.5968,149.09479h-.4901v-.567h-.2449v.567h-1.0641l1.2529-1.58209h-.2798l-1.29849,1.624v.182h1.3824v.644h.252v-.644h.4901Zm-3.38451.67551c-.434,0-.68939-.18909-.68939-.49359,0-.301.2554-.49011.68939-.49011s.693.18912.693.49011C179.9053,149.58121,179.64619,149.77029,179.2123,149.77029Zm-.6055-1.624c0-.273.23471-.4411.6055-.4411.3676,0,.6091.16809.6091.44449,0,.2662-.2276.43771-.6091.43771C178.831,148.5874,178.6068,148.41589,178.6068,148.1463Zm1.078.532a.55482.55482,0,0,0,.392-.53912c0-.3988-.34641-.6474-.8645-.6474-.5179,0-.8575.2486-.8575.6474a.55284.55284,0,0,0,.38521.53912.611.611,0,0,0-.4725.60178c0,.434.3568.70361.94479.70361.5845,0,.9521-.26959.9521-.70361A.6169.6169,0,0,0,179.6848,148.67831Zm-1.9879.92047a.18315.18315,0,0,0-.18539.189.17661.17661,0,0,0,.12579.17828l-.119.50769h.16811l.14709-.483a.57549.57549,0,0,0,.049-.203A.18319.18319,0,0,0,177.6969,149.59879Zm-1.8902.14.8331-.81891a1.00785,1.00785,0,0,0,.4025-.76648c0-.40961-.3149-.66162-.8121-.66162a1.10125,1.10125,0,0,0-.868.35l.1786.154a.83213.83213,0,0,1,.6684-.273c.3745,0,.574.1749.574.4584,0,.168-.0524.33249-.3288.60538l-1.01851.9975v.17862h1.7184v-.22391Z" transform="translate(-146.9305 -130.43341)" style="fill:#434242"/><path d="M176.3589,249.77319c-.4269,0-.7211-.3606-.7211-1.01489,0-.6545.2942-1.015.7211-1.015s.72079.3605.72079,1.015c0,.6543-.2939,1.01489-.72079,1.01489m0,.231c.56689,0,.9799-.4655.9799-1.2459,0-.78059-.413-1.24609-.9799-1.24609s-.9765.4655-.9765,1.24609C175.3824,249.5387,175.792,250.0042,176.3589,250.0042Zm-2.2785-.2135c-.434,0-.68939-.189-.68939-.4935,0-.301.25539-.4901.68939-.4901s.6931.1891.6931.4901C174.7735,249.6017,174.5144,249.7907,174.0804,249.7907Zm-.6055-1.6239c0-.273.2347-.4411.6055-.4411.36771,0,.60921.16811.60921.4445,0,.2661-.2276.43761-.60921.43761C173.6991,248.6078,173.4749,248.43629,173.4749,248.16679Zm1.078.532a.555.555,0,0,0,.39211-.53911c0-.3989-.3464-.64749-.86461-.64749-.5179,0-.8575.2486-.8575.64749a.553.553,0,0,0,.3853.53911.611.611,0,0,0-.4726.60179c0,.434.35689.7036.94479.7036.5845,0,.95219-.26959.95219-.7036A.61683.61683,0,0,0,174.5529,248.69881Zm-1.9879.92039a.18318.18318,0,0,0-.18541.1891.17677.17677,0,0,0,.1259.1783l-.11909.50769h.16811l.14709-.483a.5745.5745,0,0,0,.0491-.203A.18321.18321,0,0,0,172.565,249.6192Zm-1.6064-2.086v.224h.57739v2.226h.252v-2.45Z" transform="translate(-146.9305 -130.43341)" style="fill:#434242"/><path d="M254.3264,265.0406c-.42351,0-.64771-.2554-.64771-.525a.56724.56724,0,0,1,.63011-.53549c.3779,0,.616.20639.616.5284a.53613.53613,0,0,1-.5984.5321m.021-1.27391a.78345.78345,0,0,0-.74919.4198c-.00681-.07339-.0105-.14349-.0105-.1996,0-.66469.3396-1.00429.868-1.00429a.861.861,0,0,1,.4762.11539l.1015-.203a1.126,1.126,0,0,0-.5811-.1329c-.6651,0-1.12.4339-1.12,1.26711,0,.77319.3535,1.22479,1.00459,1.22479a.76339.76339,0,0,0,.8365-.75259A.74169.74169,0,0,0,254.3474,263.76669Zm-2.429-.98369v.224h.57741v2.226h.252v-2.45Zm-.3569,2.08609a.18315.18315,0,0,0-.18539.189.17658.17658,0,0,0,.1259.1783l-.11909.50769h.16809l.14711-.483a.57322.57322,0,0,0,.049-.203A.18317.18317,0,0,0,251.56149,264.86909Zm-1.8902.14.8331-.81889a1.00808,1.00808,0,0,0,.4026-.76649c0-.40961-.315-.66161-.81219-.66161a1.101,1.101,0,0,0-.8679.35l.1785.154a.83239.83239,0,0,1,.6685-.273c.3744,0,.574.1749.574.45839,0,.168-.05251.3325-.3288.60541l-1.01851.9975v.1786h1.71831v-.22391Z" transform="translate(-146.9305 -130.43341)" style="fill:#434242"/><path d="M247.1913,176.0029c-.4269,0-.7211-.3606-.7211-1.0148,0-.6545.2942-1.01511.7211-1.01511s.7209.36061.7209,1.01511c0,.65421-.294,1.0148-.7209,1.0148m0,.231c.56689,0,.9799-.46541.9799-1.2458,0-.78059-.413-1.24609-.9799-1.24609s-.9765.4655-.9765,1.24609C246.2148,175.76849,246.6244,176.2339,247.1913,176.2339Zm-2.3904-2.4709v.22389h.57739v2.2261h.252v-2.45Zm-.3569,2.086a.18317.18317,0,0,0-.18539.1891.17668.17668,0,0,0,.12579.1783l-.119.5076h.16811l.14709-.483a.57333.57333,0,0,0,.049-.2029A.18318.18318,0,0,0,244.444,175.849Zm-1.3334-1.0361.6927-.87129v-.1786h-1.57491v.22389h1.2529l-.67889.85071v.18539h.1749c.45531,0,.66161.1925.66161.4864,0,.3044-.22391.4935-.62981.4935a1.0743,1.0743,0,0,1-.75969-.2834l-.1225.19951a1.27472,1.27472,0,0,0,.88219.3149c.59131,0,.8889-.3149.8889-.7245C243.898,175.1174,243.6355,174.841,243.1106,174.8129Z" transform="translate(-146.9305 -130.43341)" style="fill:#434242"/><path d="M205.7261,282.52071c-.434,0-.68941-.1891-.68941-.4935,0-.3011.2554-.49011.68941-.49011s.6931.189.6931.49011c0,.3044-.25911.4935-.6931.4935m-.6055-1.624c0-.273.2347-.4411.6055-.4411.36769,0,.60919.16811.60919.4445,0,.2662-.2276.4377-.60919.4377C205.34489,281.3378,205.12061,281.16631,205.12061,280.8967Zm1.078.5321a.55507.55507,0,0,0,.39211-.5392c0-.3988-.34641-.6474-.86459-.6474-.5179,0-.8575.2486-.8575.6474a.55309.55309,0,0,0,.3853.5392.61093.61093,0,0,0-.47261.60179c0,.434.3569.70351.94481.70351.58449,0,.95219-.2695.95219-.70351A.61684.61684,0,0,0,206.19859,281.4288Zm-2.5443-.11571.69281-.87129v-.1786h-1.575v.22391h1.2529l-.67889.85069v.18539h.1749c.45531,0,.66161.19241.66161.4864,0,.3044-.22391.4935-.62981.4935a1.07434,1.07434,0,0,1-.75969-.28349l-.12251.1996a1.27479,1.27479,0,0,0,.8822.3149c.59131,0,.8889-.3149.8889-.7245C204.4417,281.6176,204.1792,281.3412,203.6543,281.3131Zm-1.4176,1.0361a.18318.18318,0,0,0-.18539.1891.17677.17677,0,0,0,.12579.1783l-.119.5076h.16809l.14711-.483a.57333.57333,0,0,0,.049-.2029A.1832.1832,0,0,0,202.23669,282.3492Zm-1.6064-2.086v.22391h.57741v2.22609h.252v-2.45Z" transform="translate(-146.9305 -130.43341)" style="fill:#434242"/><line x1="94.35791" y1="9.86938" x2="70.1974" y2="9.86938" style="fill:none;stroke:#b1b2b2;stroke-miterlimit:22.92558479309082;stroke-width:0.2160000056028366px"/><line x1="27.3577" y1="18.36938" x2="5.41191" y2="18.36938" style="fill:none;stroke:#b1b2b2;stroke-miterlimit:22.92558479309082;stroke-width:0.2160000056028366px"/><line x1="22.6077" y1="118.38989" x2="5.80501" y2="118.38989" style="fill:none;stroke:#b1b2b2;stroke-miterlimit:22.92558479309082;stroke-width:0.2160000056028366px"/><line x1="100.60811" y1="133.63969" x2="83.59511" y2="133.63969" style="fill:none;stroke:#b1b2b2;stroke-miterlimit:22.92558479309082;stroke-width:0.2160000056028366px"/><line x1="93.60791" y1="44.61958" x2="64.63951" y2="44.61958" style="fill:none;stroke:#b1b2b2;stroke-miterlimit:22.92558479309082;stroke-width:0.2160000056028366px"/><line x1="52.1078" y1="151.11978" x2="45.35941" y2="151.11978" style="fill:none;stroke:#b1b2b2;stroke-miterlimit:22.92558479309082;stroke-width:0.2160000056028366px"/><line x1="126.46031" y1="9.86938" x2="103.797" y2="9.86938" style="fill:none;stroke:#b1b2b2;stroke-miterlimit:22.92558479309082;stroke-width:0.2160000056028366px"/><line x1="62.03731" y1="18.36938" x2="36.7968" y2="18.36938" style="fill:none;stroke:#b1b2b2;stroke-miterlimit:22.92558479309082;stroke-width:0.2160000056028366px"/><line x1="40.90471" y1="118.38989" x2="32.0468" y2="118.38989" style="fill:none;stroke:#b1b2b2;stroke-miterlimit:22.92558479309082;stroke-width:0.2160000056028366px"/><line x1="126.0428" y1="133.63969" x2="110.0471" y2="133.63969" style="fill:none;stroke:#b1b2b2;stroke-miterlimit:22.92558479309082;stroke-width:0.2160000056028366px"/><line x1="126.46031" y1="44.61958" x2="103.047" y2="44.61958" style="fill:none;stroke:#b1b2b2;stroke-miterlimit:22.92558479309082;stroke-width:0.2160000056028366px"/><line x1="68.29541" y1="151.11978" x2="61.54691" y2="151.11978" style="fill:none;stroke:#b1b2b2;stroke-miterlimit:22.92558479309082;stroke-width:0.2160000056028366px"/><path d="M154.254,183.1366h.224v-.57739h2.226v-.252h-2.45Zm2.24,1.18291c0,.4269-.3606.7211-1.0148.7211-.6545,0-1.01511-.2942-1.01511-.7211s.36061-.7209,1.01511-.7209C156.13341,183.5986,156.494,183.89259,156.494,184.3195Zm.231,0c0-.56691-.46541-.98-1.2458-.98-.7807,0-1.24611.4131-1.24611.98s.46541.9765,1.24611.9765C156.2596,185.296,156.725,184.8864,156.725,184.3195Zm-.3849,1.48759a.18313.18313,0,0,0,.189.18539.17667.17667,0,0,0,.1783-.1259l.50771.11911v-.16811l-.483-.14709a.57393.57393,0,0,0-.203-.0491A.18318.18318,0,0,0,156.3401,185.8071Zm-.504.49319v.49011h-.567v.245h.567v1.0641l-1.58211-1.2529v.27969l1.624,1.2986h.182V187.0424h.644v-.252h-.644v-.49011Z" transform="translate(-146.9305 -130.43341)" style="fill:#434242"/><path d="M270.2619,146.761c0,.42352-.2554.64771-.525.64771a.56722.56722,0,0,1-.5354-.6301c0-.3779.2063-.616.52838-.616a.53605.53605,0,0,1,.532.59839m-1.2739-.021a.78364.78364,0,0,0,.4198.74921c-.07339.00681-.1434.0105-.19949.0105-.6647,0-1.0043-.3396-1.0043-.868a.86109.86109,0,0,1,.1153-.47623l-.20291-.1015a1.126,1.126,0,0,0-.133.58112c0,.665.434,1.12,1.26709,1.12.77332,0,1.22491-.35349,1.22491-1.00461a.76339.76339,0,0,0-.75259-.83649A.74175.74175,0,0,0,268.988,146.74Zm-.98361,2.429h.22391v-.57739h2.2261v-.252h-2.45Zm2.086.3569a.18318.18318,0,0,0,.18912.18539.17662.17662,0,0,0,.17828-.12592l.50772.11911v-.16809l-.483-.14709a.57424.57424,0,0,0-.203-.0491A.1832.1832,0,0,0,270.09039,149.52591Zm-2.086,1.60638h.22391v-.57739h2.2261v-.252h-2.45Z" transform="translate(-146.9305 -130.43341)" style="fill:#434242"/><path d="M270.24429,223.5771c0,.4269-.3605.7211-1.0148.7211-.65448,0-1.015-.2942-1.015-.7211s.3605-.7209,1.015-.7209c.6543,0,1.0148.294,1.0148.7209m.23111,0c0-.567-.46552-.98-1.24591-.98-.78058,0-1.24609.413-1.24609.98s.46552.9765,1.24609.9765C270.00989,224.5536,270.4754,224.144,270.4754,223.5771Zm-.2135,2.1138c0,.4234-.2554.64769-.525.64769a.56724.56724,0,0,1-.5354-.63019c0-.37781.2063-.61591.52838-.61591A.53606.53606,0,0,1,270.2619,225.6909Zm-1.2739-.021a.7837.7837,0,0,0,.4198.74919c-.07339.00681-.1434.0105-.19949.0105-.6647,0-1.0043-.3396-1.0043-.868a.86051.86051,0,0,1,.1153-.4762l-.20291-.1015a1.12587,1.12587,0,0,0-.133.5811c0,.665.434,1.12,1.26709,1.12.77332,0,1.22491-.3535,1.22491-1.00459a.76334.76334,0,0,0-.75259-.8365A.74175.74175,0,0,0,268.988,225.66991Zm1.10239,1.52609a.18317.18317,0,0,0,.18912.18539.17666.17666,0,0,0,.17828-.12579l.50772.119v-.16811l-.483-.14709a.576.576,0,0,0-.203-.049A.18318.18318,0,0,0,270.09039,227.196Zm-1.08139,1.5293v.315l-.7807-.08389v-1.12h-.22391v1.3405l1.22852.1259v-.5213c0-.62309.19589-.8192.51108-.8192.29742,0,.50031.2205.50031.63721a1.06139,1.06139,0,0,1-.28339.7523l.19949.1225a1.26454,1.26454,0,0,0,.315-.87851c0-.59839-.32541-.8889-.74191-.8889C269.29929,227.70689,269.009,227.98689,269.009,228.7253Z" transform="translate(-146.9305 -130.43341)" style="fill:#434242"/><path d="M184.5862,256.4286v.4901h-.567v.2449h.567v1.06419l-1.582-1.2529v.27969l1.6239,1.2986h.182V257.1707h.644v-.252h-.644v-.4901Zm-.3291,3.4231c0,.3779-.20639.616-.5284.616a.53638.53638,0,0,1-.5321-.59869c0-.42351.25571-.6474.525-.6474A.56712.56712,0,0,1,184.2571,259.8517Zm-1.2739.0278a.76318.76318,0,0,0,.75259.8365.74154.74154,0,0,0,.73471-.826.78252.78252,0,0,0-.4198-.7489c.07339-.0071.1434-.0105.1996-.0105.665,0,1.00429.3396,1.00429.868a.85909.85909,0,0,1-.11539.47591l.203.1015a1.12391,1.12391,0,0,0,.1329-.58081c0-.665-.434-1.12-1.26711-1.12C183.43469,258.8752,182.9832,259.2287,182.9832,259.8795Zm2.107,1.3127a.18314.18314,0,0,0,.189.18539.17662.17662,0,0,0,.1783-.12579l.50769.119v-.16811l-.483-.14709a.57332.57332,0,0,0-.203-.049A.18317.18317,0,0,0,185.09019,261.1922Zm.14,1.8902-.81889-.8331a1.00775,1.00775,0,0,0-.76649-.4025c-.40961,0-.66161.3149-.66161.8121a1.10115,1.10115,0,0,0,.3501.868l.1539-.1786a.83214.83214,0,0,1-.273-.6684c0-.3745.1749-.5741.4584-.5741.16809,0,.33249.05249.60539.32889l.9976,1.01851h.1785v-1.7184h-.22391Z" transform="translate(-146.9305 -130.43341)" style="fill:#434242"/><line x1="122.364" y1="22.7356" x2="122.364" y2="29.48398" style="fill:none;stroke:#b1b2b2;stroke-miterlimit:22.92558479309082;stroke-width:0.2160000056028366px"/><line x1="122.364" y1="100.23569" x2="122.364" y2="151.11899" style="fill:none;stroke:#b1b2b2;stroke-miterlimit:22.92558479309082;stroke-width:0.2160000056028366px"/><line x1="37.36371" y1="134.23549" x2="37.36371" y2="156.92738" style="fill:none;stroke:#b1b2b2;stroke-miterlimit:22.92558479309082;stroke-width:0.2160000056028366px"/><line x1="8.6136" y1="13.8331" x2="8.6136" y2="50.04659" style="fill:none;stroke:#b1b2b2;stroke-miterlimit:22.92558479309082;stroke-width:0.2160000056028366px"/><line x1="122.364" y1="6.5481" x2="122.364" y2="13.29648" style="fill:none;stroke:#b1b2b2;stroke-miterlimit:22.92558479309082;stroke-width:0.2160000056028366px"/><line x1="122.364" y1="39.20738" x2="122.364" y2="90.79659" style="fill:none;stroke:#b1b2b2;stroke-miterlimit:22.92558479309082;stroke-width:0.2160000056028366px"/><line x1="37.36371" y1="99.48619" x2="37.36371" y2="124.79639" style="fill:none;stroke:#b1b2b2;stroke-miterlimit:22.92558479309082;stroke-width:0.2160000056028366px"/><line x1="8.6136" y1="59.83319" x2="8.6136" y2="93.24319" style="fill:none;stroke:#b1b2b2;stroke-miterlimit:22.92558479309082;stroke-width:0.2160000056028366px"/></svg>