<?xml version="1.0" encoding="utf-8"?>
<!-- Generator: Adobe Illustrator 23.0.2, SVG Export Plug-In . SVG Version: 6.00 Build 0)  -->
<svg version="1.1" id="plan" xmlns="http://www.w3.org/2000/svg" xmlns:xlink="http://www.w3.org/1999/xlink" x="0px" y="0px"
	 viewBox="0 0 840 424.493" enable-background="new 0 0 840 424.493" xml:space="preserve">
<g id="back">
	<polygon fill-rule="evenodd" clip-rule="evenodd" fill="#FFFFFF" points="493.084,115.823 493.084,249.476 835.085,249.476 
		835.085,417.85 6.127,417.85 6.127,39.509 76.788,39.509 76.788,30.222 568.912,30.222 568.912,115.823 	"/>
</g>
<g id="walls">
	
		<rect x="493.084" y="115.822" fill="#828282" stroke="#000000" stroke-linecap="round" stroke-linejoin="round" stroke-miterlimit="10" width="89.828" height="14.132"/>
	<polygon fill="#828282" stroke="#000000" stroke-linecap="round" stroke-linejoin="round" stroke-miterlimit="10" points="
		824.99,401.699 12.991,401.699 12.991,413.004 828.221,413.004 828.221,401.699 	"/>
	<polygon fill="#828282" stroke="#000000" stroke-linecap="round" stroke-linejoin="round" stroke-miterlimit="10" points="
		12.991,67.773 22.682,67.773 22.682,49.199 83.652,49.199 83.652,39.509 12.991,39.509 	"/>
	
		<line fill="#828282" stroke="#000000" stroke-linecap="round" stroke-linejoin="round" stroke-miterlimit="10" x1="83.652" y1="39.509" x2="83.652" y2="30.222"/>
	<polyline fill="#828282" stroke="#000000" stroke-linecap="round" stroke-linejoin="round" stroke-miterlimit="10" points="
		828.221,260.78 828.221,333.864 824.99,333.864 816.915,333.864 816.915,260.78 	"/>
	
		<line fill="none" stroke="#000000" stroke-linecap="round" stroke-linejoin="round" stroke-miterlimit="10" x1="816.915" y1="401.699" x2="816.915" y2="333.864"/>
	<polyline fill="#828282" stroke="#000000" stroke-linecap="round" stroke-linejoin="round" stroke-miterlimit="10" points="
		94.958,49.199 94.958,77.464 86.882,77.464 83.652,77.464 83.652,49.199 	"/>
	<polygon fill="#828282" stroke="#000000" stroke-linecap="round" stroke-linejoin="round" stroke-miterlimit="10" points="
		83.652,191.699 83.652,241.802 94.958,241.802 94.958,191.699 86.882,191.699 	"/>
	<polygon fill="#828282" stroke="#000000" stroke-linecap="round" stroke-linejoin="round" stroke-miterlimit="10" points="
		86.882,274.912 94.958,274.912 94.958,260.78 83.652,260.78 83.652,274.912 	"/>
	<polygon fill="#828282" stroke="#000000" stroke-linecap="round" stroke-linejoin="round" stroke-miterlimit="10" points="
		94.958,401.699 94.958,364.147 86.882,364.147 83.652,364.147 83.652,401.699 	"/>
	
		<rect x="76.788" y="189.276" fill="#828282" stroke="#000000" stroke-linecap="round" stroke-linejoin="round" stroke-miterlimit="10" width="6.864" height="88.058"/>
	
		<line fill="#828282" stroke="#000000" stroke-linecap="round" stroke-linejoin="round" stroke-miterlimit="10" x1="83.652" y1="260.78" x2="83.652" y2="241.802"/>
	
		<rect x="83.652" y="241.802" fill="#828282" stroke="#000000" stroke-linecap="round" stroke-linejoin="round" stroke-miterlimit="10" width="23.823" height="18.978"/>
	
		<rect x="83.652" y="30.222" fill="#828282" stroke="#000000" stroke-linecap="round" stroke-linejoin="round" stroke-miterlimit="10" width="23.823" height="18.978"/>
	
		<rect x="387.698" y="30.222" fill="#828282" stroke="#000000" stroke-linecap="round" stroke-linejoin="round" stroke-miterlimit="10" width="23.419" height="18.978"/>
	
		<rect x="568.571" y="43.705" fill="#828282" stroke="#000000" stroke-linecap="round" stroke-linejoin="round" stroke-miterlimit="10" width="13.882" height="72.118"/>
	
		<rect x="468.794" y="29.823" fill="#828282" stroke="#000000" stroke-linecap="round" stroke-linejoin="round" stroke-miterlimit="10" width="113.659" height="13.882"/>
	
		<rect x="828.221" y="249.476" fill="#828282" stroke="#000000" stroke-linecap="round" stroke-linejoin="round" stroke-miterlimit="10" width="6.864" height="86.407"/>
	
		<line fill="none" stroke="#000000" stroke-linecap="round" stroke-linejoin="round" stroke-miterlimit="10" x1="828.221" y1="413.004" x2="828.221" y2="417.85"/>
	
		<line fill="none" stroke="#000000" stroke-linecap="round" stroke-linejoin="round" stroke-miterlimit="10" x1="835.085" y1="335.883" x2="835.085" y2="399.68"/>
	
		<line fill="none" stroke="#000000" stroke-linecap="round" stroke-linejoin="round" stroke-miterlimit="10" x1="6.127" y1="394.834" x2="6.127" y2="417.85"/>
	
		<rect x="6.127" y="39.509" fill="#828282" stroke="#000000" stroke-linecap="round" stroke-linejoin="round" stroke-miterlimit="10" width="6.864" height="28.265"/>
	
		<line fill="none" stroke="#000000" stroke-linecap="round" stroke-linejoin="round" stroke-miterlimit="10" x1="12.991" y1="401.697" x2="12.991" y2="417.85"/>
	<g>
		
			<line fill="none" stroke="#000000" stroke-width="0.5" stroke-linecap="round" stroke-linejoin="round" stroke-miterlimit="10" x1="22.682" y1="67.773" x2="22.682" y2="394.834"/>
		
			<line fill="none" stroke="#000000" stroke-width="0.5" stroke-linecap="round" stroke-linejoin="round" stroke-miterlimit="10" x1="6.127" y1="394.834" x2="6.127" y2="67.773"/>
		
			<rect x="15.01" y="70.196" fill="none" stroke="#000000" stroke-width="0.5" stroke-linecap="round" stroke-linejoin="round" stroke-miterlimit="10" width="1.211" height="322.216"/>
		
			<path fill="none" stroke="#000000" stroke-width="0.5" stroke-linecap="round" stroke-linejoin="round" stroke-miterlimit="10" d="
			M12.991,70.196v322.216 M17.836,70.196v322.216"/>
		
			<rect x="12.991" y="67.773" fill="none" stroke="#000000" stroke-width="0.5" stroke-linecap="round" stroke-linejoin="round" stroke-miterlimit="10" width="4.845" height="2.423"/>
		
			<rect x="12.991" y="392.412" fill="none" stroke="#000000" stroke-width="0.5" stroke-linecap="round" stroke-linejoin="round" stroke-miterlimit="10" width="4.845" height="2.423"/>
	</g>
	<path fill="none" stroke="#000000" stroke-linecap="round" stroke-linejoin="round" stroke-miterlimit="10" d="M824.99,401.699
		v-67.835 M828.221,335.883h-3.23 M828.221,399.68h-3.23 M828.221,397.257h-3.23 M828.221,369.396h-3.23 M828.221,367.781h-3.23
		 M828.221,366.166h-3.23 M828.221,338.305h-3.23"/>
	<polyline fill="none" stroke="#000000" stroke-linecap="round" stroke-linejoin="round" stroke-miterlimit="10" points="
		828.221,401.699 828.221,333.864 824.99,333.864 	"/>
	
		<line fill="none" stroke="#000000" stroke-linecap="round" stroke-linejoin="round" stroke-miterlimit="10" x1="828.221" y1="401.699" x2="824.99" y2="401.699"/>
	
		<line fill="none" stroke="#000000" stroke-linecap="round" stroke-linejoin="round" stroke-miterlimit="10" x1="83.652" y1="317.309" x2="86.882" y2="317.309"/>
	
		<line fill="none" stroke="#000000" stroke-linecap="round" stroke-linejoin="round" stroke-miterlimit="10" x1="83.652" y1="279.757" x2="86.882" y2="279.757"/>
	<g>
		
			<line fill="none" stroke="#000000" stroke-width="1.5" stroke-linecap="round" stroke-linejoin="round" stroke-miterlimit="10" x1="411.117" y1="29.823" x2="451.899" y2="6.404"/>
		
			<line fill="none" stroke="#000000" stroke-width="1.5" stroke-linecap="round" stroke-linejoin="round" stroke-miterlimit="10" x1="473.703" y1="308.829" x2="441.4" y2="289.852"/>
		
			<line fill="none" stroke="#000000" stroke-width="1.5" stroke-linecap="round" stroke-linejoin="round" stroke-miterlimit="10" x1="538.711" y1="260.78" x2="560.111" y2="297.524"/>
		
			<line fill="none" stroke="#000000" stroke-width="1.5" stroke-linecap="round" stroke-linejoin="round" stroke-miterlimit="10" x1="296.04" y1="260.78" x2="274.64" y2="297.524"/>
		
			<line fill="none" stroke="#000000" stroke-width="1.5" stroke-linecap="round" stroke-linejoin="round" stroke-miterlimit="10" x1="372.354" y1="308.829" x2="339.648" y2="289.852"/>
		
			<line fill="none" stroke="#000000" stroke-width="1.5" stroke-linecap="round" stroke-linejoin="round" stroke-miterlimit="10" x1="86.882" y1="279.757" x2="105.86" y2="312.06"/>
		
			<line fill="none" stroke="#000000" stroke-width="1.5" stroke-linecap="round" stroke-linejoin="round" stroke-miterlimit="10" x1="86.882" y1="81.906" x2="105.86" y2="114.612"/>
	</g>
	
		<line fill="none" stroke="#000000" stroke-linecap="round" stroke-linejoin="round" stroke-miterlimit="10" x1="83.652" y1="81.906" x2="86.882" y2="81.906"/>
	
		<line fill="none" stroke="#000000" stroke-linecap="round" stroke-linejoin="round" stroke-miterlimit="10" x1="86.882" y1="364.147" x2="83.652" y2="364.147"/>
	
		<line fill="none" stroke="#000000" stroke-linecap="round" stroke-linejoin="round" stroke-miterlimit="10" x1="86.882" y1="191.699" x2="83.652" y2="191.699"/>
	
		<line fill="none" stroke="#000000" stroke-linecap="round" stroke-linejoin="round" stroke-miterlimit="10" x1="396.985" y1="232.919" x2="396.985" y2="241.802"/>
	<polygon fill="#828282" stroke="#000000" stroke-linecap="round" stroke-linejoin="round" stroke-miterlimit="10" points="
		83.652,401.699 83.652,361.724 76.788,361.724 76.788,394.834 12.991,394.834 12.991,401.699 	"/>
	
		<rect x="6.127" y="394.834" fill="#828282" stroke="#000000" stroke-linecap="round" stroke-linejoin="round" stroke-miterlimit="10" width="6.865" height="23.015"/>
	
		<rect x="76.788" y="49.199" fill="#828282" stroke="#000000" stroke-linecap="round" stroke-linejoin="round" stroke-miterlimit="10" width="6.864" height="30.283"/>
	
		<rect x="76.788" y="30.222" fill="#828282" stroke="#000000" stroke-linecap="round" stroke-linejoin="round" stroke-miterlimit="10" width="6.864" height="9.287"/>
	<polygon fill="#828282" stroke="#000000" stroke-linecap="round" stroke-linejoin="round" stroke-miterlimit="10" points="
		828.221,249.476 828.221,260.78 481.778,260.78 481.778,115.823 493.084,115.823 493.084,249.474 	"/>
	
		<rect x="828.221" y="399.68" fill="#828282" stroke="#000000" stroke-linecap="round" stroke-linejoin="round" stroke-miterlimit="10" width="6.864" height="18.17"/>
	
		<rect x="12.991" y="413.004" fill="#828282" stroke="#000000" stroke-linecap="round" stroke-linejoin="round" stroke-miterlimit="10" width="815.229" height="4.845"/>
	
		<rect x="107.475" y="30.222" fill="#828282" stroke="#000000" stroke-linecap="round" stroke-linejoin="round" stroke-miterlimit="10" width="280.223" height="14.132"/>
	<g>
		
			<rect x="403.445" y="379.491" fill="#C7C7C7" stroke="#000000" stroke-linecap="round" stroke-linejoin="round" stroke-miterlimit="10" width="2.019" height="18.574"/>
		
			<rect x="533.866" y="303.176" fill="#C7C7C7" stroke="#000000" stroke-linecap="round" stroke-linejoin="round" stroke-miterlimit="10" width="4.845" height="98.522"/>
		
			<rect x="387.698" y="241.802" fill="#C7C7C7" stroke="#000000" stroke-linecap="round" stroke-linejoin="round" stroke-miterlimit="10" width="23.419" height="18.978"/>
		
			<rect x="296.04" y="303.176" fill="#C7C7C7" stroke="#000000" stroke-linecap="round" stroke-linejoin="round" stroke-miterlimit="10" width="4.442" height="98.522"/>
		<polygon fill="#C7C7C7" stroke="#000000" stroke-linecap="round" stroke-linejoin="round" stroke-miterlimit="10" points="
			300.482,241.802 107.475,241.802 107.475,246.647 296.04,246.647 296.04,260.78 300.482,260.78 		"/>
		
			<rect x="383.758" y="44.354" fill="#C7C7C7" stroke="#000000" stroke-linecap="round" stroke-linejoin="round" stroke-miterlimit="10" width="3.634" height="50.601"/>
		<polygon fill="#C7C7C7" stroke="#000000" stroke-linecap="round" stroke-linejoin="round" stroke-miterlimit="10" points="
			387.392,92.533 399.985,92.533 399.985,48.847 402.985,48.847 402.985,94.955 387.392,94.955 		"/>
		
			<rect x="411.117" y="241.802" fill="#C7C7C7" stroke="#000000" stroke-linecap="round" stroke-linejoin="round" stroke-miterlimit="10" width="70.661" height="4.845"/>
		<polygon fill="#C7C7C7" stroke="#000000" stroke-linecap="round" stroke-linejoin="round" stroke-miterlimit="10" points="
			533.866,401.699 300.482,401.699 300.482,313.271 300.482,308.829 334.399,308.829 334.399,313.271 306.942,313.271 
			306.942,398.065 377.2,398.065 377.2,313.271 372.354,313.271 372.354,308.829 436.151,308.829 436.151,313.271 405.464,313.271 
			405.464,379.491 401.83,379.491 401.83,313.271 381.237,313.271 381.237,398.065 527.809,398.065 527.809,313.271 
			473.703,313.271 473.703,308.829 533.866,308.829 		"/>
	</g>
	<g>
		
			<polyline fill="none" stroke="#000000" stroke-width="0.5" stroke-linecap="round" stroke-linejoin="round" stroke-miterlimit="10" points="
			94.958,191.699 94.958,121.88 86.882,121.88 		"/>
		
			<polyline fill="none" stroke="#000000" stroke-width="0.5" stroke-linecap="round" stroke-linejoin="round" stroke-miterlimit="10" points="
			76.788,189.276 76.788,121.88 83.652,121.88 		"/>
		
			<line fill="none" stroke="#000000" stroke-width="0.5" stroke-linecap="round" stroke-linejoin="round" stroke-miterlimit="10" x1="86.882" y1="119.457" x2="86.882" y2="191.699"/>
		
			<line fill="none" stroke="#000000" stroke-width="0.5" stroke-linecap="round" stroke-linejoin="round" stroke-miterlimit="10" x1="83.652" y1="79.483" x2="86.882" y2="79.483"/>
		
			<line fill="none" stroke="#000000" stroke-width="0.5" stroke-linecap="round" stroke-linejoin="round" stroke-miterlimit="10" x1="83.652" y1="189.276" x2="86.882" y2="189.276"/>
		
			<line fill="none" stroke="#000000" stroke-width="0.5" stroke-linecap="round" stroke-linejoin="round" stroke-miterlimit="10" x1="83.652" y1="186.854" x2="86.882" y2="186.854"/>
		
			<line fill="none" stroke="#000000" stroke-width="0.5" stroke-linecap="round" stroke-linejoin="round" stroke-miterlimit="10" x1="83.652" y1="124.302" x2="86.882" y2="124.302"/>
		
			<line fill="none" stroke="#000000" stroke-width="0.5" stroke-linecap="round" stroke-linejoin="round" stroke-miterlimit="10" x1="83.652" y1="121.88" x2="86.882" y2="121.88"/>
		
			<line fill="none" stroke="#000000" stroke-width="0.5" stroke-linecap="round" stroke-linejoin="round" stroke-miterlimit="10" x1="83.652" y1="119.457" x2="86.882" y2="119.457"/>
		
			<polyline fill="none" stroke="#000000" stroke-width="0.5" stroke-linecap="round" stroke-linejoin="round" stroke-miterlimit="10" points="
			83.652,191.699 83.652,119.457 86.882,119.457 		"/>
		
			<rect x="83.652" y="77.464" fill="none" stroke="#000000" stroke-width="0.5" stroke-linecap="round" stroke-linejoin="round" stroke-miterlimit="10" width="3.23" height="4.442"/>
	</g>
	<g>
		
			<polyline fill="none" stroke="#000000" stroke-width="0.5" stroke-linecap="round" stroke-linejoin="round" stroke-miterlimit="10" points="
			94.958,364.147 94.958,319.731 86.882,319.731 		"/>
		
			<line fill="none" stroke="#000000" stroke-width="0.5" stroke-linecap="round" stroke-linejoin="round" stroke-miterlimit="10" x1="76.788" y1="361.724" x2="76.788" y2="319.731"/>
		
			<line fill="none" stroke="#000000" stroke-width="0.5" stroke-linecap="round" stroke-linejoin="round" stroke-miterlimit="10" x1="76.788" y1="319.731" x2="83.652" y2="319.731"/>
		
			<line fill="none" stroke="#000000" stroke-width="0.5" stroke-linecap="round" stroke-linejoin="round" stroke-miterlimit="10" x1="86.882" y1="317.309" x2="86.882" y2="364.147"/>
		
			<line fill="none" stroke="#000000" stroke-width="0.5" stroke-linecap="round" stroke-linejoin="round" stroke-miterlimit="10" x1="83.652" y1="277.335" x2="86.882" y2="277.335"/>
		
			<line fill="none" stroke="#000000" stroke-width="0.5" stroke-linecap="round" stroke-linejoin="round" stroke-miterlimit="10" x1="83.652" y1="361.724" x2="86.882" y2="361.724"/>
		
			<line fill="none" stroke="#000000" stroke-width="0.5" stroke-linecap="round" stroke-linejoin="round" stroke-miterlimit="10" x1="83.652" y1="359.706" x2="86.882" y2="359.706"/>
		
			<line fill="none" stroke="#000000" stroke-width="0.5" stroke-linecap="round" stroke-linejoin="round" stroke-miterlimit="10" x1="83.652" y1="321.75" x2="86.882" y2="321.75"/>
		
			<line fill="none" stroke="#000000" stroke-width="0.5" stroke-linecap="round" stroke-linejoin="round" stroke-miterlimit="10" x1="83.652" y1="319.731" x2="86.882" y2="319.731"/>
		
			<polyline fill="none" stroke="#000000" stroke-width="0.5" stroke-linecap="round" stroke-linejoin="round" stroke-miterlimit="10" points="
			83.652,364.147 83.652,317.309 86.882,317.309 		"/>
		
			<rect x="83.652" y="274.912" fill="none" stroke="#000000" stroke-width="0.5" stroke-linecap="round" stroke-linejoin="round" stroke-miterlimit="10" width="3.23" height="4.845"/>
	</g>
</g>
<g id="furniture">
	<path fill="#F3F3F3" stroke="#595959" stroke-width="0.5" stroke-miterlimit="10" d="M382.761,45.321H280.12h-1.307h-11.39v30.053
		h12.697v-0.002c7.419,0.001,57.602,0.003,72.821,0.004v19.58h29.835L382.761,45.321z"/>
	<g>
		<path fill-rule="evenodd" clip-rule="evenodd" fill="#F3F3F3" stroke="#595959" stroke-width="0.5" stroke-miterlimit="10" d="
			M508.617,379.2c0-1.06,1.046-1.879,2.256-1.927c1.156,0,2.147,0.867,2.147,1.927c0,1.06-0.991,1.831-2.147,1.831
			C509.607,381.031,508.617,380.26,508.617,379.2z"/>
		<path fill-rule="evenodd" clip-rule="evenodd" fill="#F3F3F3" stroke="#595959" stroke-width="0.5" stroke-miterlimit="10" d="
			M508.617,379.2c0-1.06,1.046-1.879,2.256-1.927c1.156,0,2.147,0.867,2.147,1.927c0,1.06-0.991,1.831-2.147,1.831
			C509.607,381.031,508.617,380.26,508.617,379.2z"/>
		
			<polygon fill-rule="evenodd" clip-rule="evenodd" fill="#F3F3F3" stroke="#595959" stroke-width="0.5" stroke-miterlimit="10" points="
			495.042,396.815 526.594,396.815 526.594,317.764 495.042,317.764 495.042,396.815 		"/>
		<path fill-rule="evenodd" clip-rule="evenodd" fill="#F3F3F3" stroke="#595959" stroke-width="0.5" stroke-miterlimit="10" d="
			M523.975,385.493h-26.313c0,0,0-54.391,0-54.671c0-7.696,4.634-8.986,10.297-8.986h5.718c5.664,0,10.298,1.289,10.298,8.986
			C523.975,331.102,523.975,385.493,523.975,385.493L523.975,385.493z"/>
		<path fill-rule="evenodd" clip-rule="evenodd" fill="#F3F3F3" stroke="#595959" stroke-width="0.5" stroke-miterlimit="10" d="
			M520.336,389.415c0-0.842-0.758-1.544-1.695-1.544c-0.803,0-1.516,0.468-1.695,1.17h-2.364c-0.268,0-0.446,0.187-0.446,0.468
			c0,0.327,0.178,0.514,0.446,0.514h2.453c0.268,0.562,0.892,0.983,1.606,0.983C519.577,390.96,520.336,390.258,520.336,389.415
			L520.336,389.415z"/>
		
			<polyline fill-rule="evenodd" clip-rule="evenodd" fill="#F3F3F3" stroke="#595959" stroke-width="0.5" stroke-miterlimit="10" points="
			514.358,389.509 503.563,389.555 503.563,386.748 510.477,386.748 		"/>
		<path fill-rule="evenodd" clip-rule="evenodd" fill="#F3F3F3" stroke="#595959" stroke-width="0.5" stroke-miterlimit="10" d="
			M511.788,387.455v-5.658v-0.048h-1.508v0.048v5.658c0,0.381,0.341,0.713,0.73,0.713
			C511.447,388.168,511.788,387.836,511.788,387.455z"/>
		<path fill-rule="evenodd" clip-rule="evenodd" fill="#F3F3F3" stroke="#595959" stroke-width="0.5" stroke-miterlimit="10" d="
			M511.788,387.455v-5.658v-0.048h-1.508v0.048v5.658c0,0.381,0.341,0.713,0.73,0.713
			C511.447,388.168,511.788,387.836,511.788,387.455z"/>
	</g>
	<g>
		<path fill-rule="evenodd" clip-rule="evenodd" fill="#F3F3F3" stroke="#595959" stroke-width="0.5" stroke-miterlimit="10" d="
			M421.838,387.953c-0.721-2.042-1.202-4.445-1.202-7.028c0-8.289,4.328-14.957,10.159-14.957c5.77,0,10.158,6.668,10.158,14.957
			c0,2.523-0.481,4.926-1.263,7.028H421.838z"/>
		<path fill-rule="evenodd" clip-rule="evenodd" fill="#F3F3F3" stroke="#595959" stroke-width="0.5" stroke-miterlimit="10" d="
			M421.59,397.133v-5.245c0-1.219,0.963-2.195,2.106-2.195h13.719c1.144-0.061,2.106,0.915,2.106,2.195v5.245H421.59z"/>
		<path fill-rule="evenodd" clip-rule="evenodd" fill="#F3F3F3" stroke="#595959" stroke-width="0.5" stroke-miterlimit="10" d="
			M428.445,393.414c0,1.12,0.933,1.99,2.052,1.99c1.12,0,1.991-0.933,1.991-1.99c0-1.181-0.934-2.052-1.991-2.052
			C429.316,391.362,428.445,392.233,428.445,393.414z"/>
		<path fill-rule="evenodd" clip-rule="evenodd" fill="#F3F3F3" stroke="#595959" stroke-width="0.5" stroke-miterlimit="10" d="
			M439.641,388.873v-0.92h-17.803c-0.069-0.196-0.124-0.41-0.189-0.612v1.532c0,0.496,0.421,0.868,0.782,0.868h16.367
			C439.279,389.741,439.641,389.369,439.641,388.873z"/>
	</g>
	<g>
		
			<rect x="406.522" y="314.296" fill-rule="evenodd" clip-rule="evenodd" fill="#F3F3F3" stroke="#595959" stroke-width="0.5" stroke-miterlimit="10" width="25.598" height="25.549"/>
		<path fill-rule="evenodd" clip-rule="evenodd" fill="#F3F3F3" stroke="#595959" stroke-width="0.5" stroke-miterlimit="10" d="
			M409.188,317.764c0,0.865,0.712,1.578,1.576,1.578c0.915,0,1.627-0.712,1.627-1.578c0-0.865-0.712-1.578-1.627-1.578
			C409.9,316.186,409.188,316.899,409.188,317.764z"/>
		<path fill-rule="evenodd" clip-rule="evenodd" fill="#F3F3F3" stroke="#595959" stroke-width="0.5" stroke-miterlimit="10" d="
			M409.188,317.793c0,0.85,0.684,1.549,1.513,1.549c0.879,0,1.563-0.7,1.563-1.549c0-0.85-0.684-1.549-1.563-1.549
			C409.872,316.243,409.188,316.943,409.188,317.793L409.188,317.793z M429.988,314.344v2.599c0,0.6-0.537,1.049-1.123,1.049h-7.226
			c-0.586,0-1.123-0.45-1.123-1.049v-2.599H429.988z"/>
		<path fill-rule="evenodd" clip-rule="evenodd" fill="#F3F3F3" stroke="#595959" stroke-width="0.5" stroke-miterlimit="10" d="
			M412.339,327.75c0,3.822,3.087,6.958,6.958,6.958c3.823,0,6.91-3.136,6.91-6.958c0-3.822-3.087-6.958-6.91-6.958
			C415.377,320.791,412.339,323.927,412.339,327.75z"/>
		<path fill-rule="evenodd" clip-rule="evenodd" fill="#F3F3F3" stroke="#595959" stroke-width="0.5" stroke-miterlimit="10" d="
			M412.339,327.75c0,3.822,3.087,6.958,6.958,6.958c3.823,0,6.91-3.136,6.91-6.958c0-3.822-3.087-6.958-6.91-6.958
			C415.377,320.791,412.339,323.927,412.339,327.75z"/>
		<path fill-rule="evenodd" clip-rule="evenodd" fill="#F3F3F3" stroke="#595959" stroke-width="0.5" stroke-miterlimit="10" d="
			M414.181,327.75c0,2.853,2.263,5.116,5.116,5.116c2.804,0,5.117-2.263,5.117-5.116c0-2.804-2.361-5.116-5.117-5.116
			C416.444,322.634,414.181,324.946,414.181,327.75z"/>
		<path fill-rule="evenodd" clip-rule="evenodd" fill="#F3F3F3" stroke="#595959" stroke-width="0.5" stroke-miterlimit="10" d="
			M414.181,327.75c0,2.853,2.263,5.116,5.116,5.116c2.804,0,5.117-2.263,5.117-5.116c0-2.804-2.361-5.116-5.117-5.116
			C416.444,322.634,414.181,324.946,414.181,327.75z"/>
	</g>
	<g>
		<path fill-rule="evenodd" clip-rule="evenodd" fill="#F3F3F3" stroke="#595959" stroke-width="0.5" stroke-miterlimit="10" d="
			M335.485,387.956c-0.721-2.042-1.202-4.446-1.202-7.029c0-8.29,4.328-14.959,10.16-14.959c5.77,0,10.159,6.669,10.159,14.959
			c0,2.524-0.481,4.926-1.263,7.029H335.485z"/>
		<path fill-rule="evenodd" clip-rule="evenodd" fill="#F3F3F3" stroke="#595959" stroke-width="0.5" stroke-miterlimit="10" d="
			M335.237,397.137v-5.246c0-1.219,0.963-2.195,2.107-2.195h13.72c1.144-0.061,2.107,0.915,2.107,2.195v5.246H335.237z"/>
		<path fill-rule="evenodd" clip-rule="evenodd" fill="#F3F3F3" stroke="#595959" stroke-width="0.5" stroke-miterlimit="10" d="
			M342.092,393.418c0,1.12,0.933,1.991,2.053,1.991c1.12,0,1.991-0.933,1.991-1.991c0-1.182-0.934-2.053-1.991-2.053
			C342.963,391.365,342.092,392.236,342.092,393.418z"/>
		<path fill-rule="evenodd" clip-rule="evenodd" fill="#F3F3F3" stroke="#595959" stroke-width="0.5" stroke-miterlimit="10" d="
			M353.289,388.875v-0.92h-17.805c-0.069-0.196-0.124-0.41-0.189-0.612v1.532c0,0.496,0.421,0.868,0.782,0.868h16.369
			C352.928,389.744,353.289,389.372,353.289,388.875z"/>
	</g>
	<g>
		
			<rect x="234.277" y="45.588" fill-rule="evenodd" clip-rule="evenodd" fill="#F3F3F3" stroke="#595959" stroke-width="0.5" stroke-miterlimit="10" width="28.343" height="2.006"/>
		
			<rect x="234.277" y="45.588" fill-rule="evenodd" clip-rule="evenodd" fill="#F3F3F3" stroke="#595959" stroke-width="0.5" stroke-miterlimit="10" width="28.343" height="2.006"/>
		
			<rect x="234.029" y="77.316" fill-rule="evenodd" clip-rule="evenodd" fill="#F3F3F3" stroke="#595959" stroke-width="0.5" stroke-miterlimit="10" width="9.318" height="2.75"/>
		
			<rect x="234.029" y="77.316" fill-rule="evenodd" clip-rule="evenodd" fill="#F3F3F3" stroke="#595959" stroke-width="0.5" stroke-miterlimit="10" width="9.318" height="2.75"/>
		
			<rect x="232.79" y="47.385" fill-rule="evenodd" clip-rule="evenodd" fill="#F3F3F3" stroke="#595959" stroke-width="0.5" stroke-miterlimit="10" width="31.132" height="31.07"/>
		
			<rect x="232.79" y="47.385" fill-rule="evenodd" clip-rule="evenodd" fill="#F3F3F3" stroke="#595959" stroke-width="0.5" stroke-miterlimit="10" width="31.132" height="31.07"/>
		<path fill-rule="evenodd" clip-rule="evenodd" fill="#F3F3F3" stroke="#595959" stroke-width="0.5" stroke-miterlimit="10" d="
			M263.921,75.666l-31.132,0L263.921,75.666z"/>
		<path fill-rule="evenodd" clip-rule="evenodd" fill="#F3F3F3" stroke="#595959" stroke-width="0.5" stroke-miterlimit="10" d="
			M265.408,75.557c0-0.607-0.543-1.215-1.22-1.215c-0.745,0-1.221,0.608-1.221,1.215c0,0.742,0.542,1.349,1.221,1.349
			C264.866,76.906,265.408,76.299,265.408,75.557z"/>
		<path fill-rule="evenodd" clip-rule="evenodd" fill="#F3F3F3" stroke="#595959" stroke-width="0.5" stroke-miterlimit="10" d="
			M265.408,75.557c0-0.607-0.543-1.215-1.22-1.215c-0.745,0-1.221,0.608-1.221,1.215c0,0.742,0.542,1.349,1.221,1.349
			C264.866,76.906,265.408,76.299,265.408,75.557z"/>
		<path fill-rule="evenodd" clip-rule="evenodd" fill="#F3F3F3" stroke="#595959" stroke-width="0.5" stroke-miterlimit="10" d="
			M248.187,59.655l0,5.477L248.187,59.655z"/>
		<path fill-rule="evenodd" clip-rule="evenodd" fill="#F3F3F3" stroke="#595959" stroke-width="0.5" stroke-miterlimit="10" d="
			M250.845,62.337l-5.476,0L250.845,62.337z"/>
		<path fill-rule="evenodd" clip-rule="evenodd" fill="#F3F3F3" stroke="#595959" stroke-width="0.5" stroke-miterlimit="10" d="
			M250.102,64.388l-3.989-3.989L250.102,64.388z"/>
		<path fill-rule="evenodd" clip-rule="evenodd" fill="#F3F3F3" stroke="#595959" stroke-width="0.5" stroke-miterlimit="10" d="
			M246.175,64.388l3.989-3.989L246.175,64.388z"/>
		<path fill-rule="evenodd" clip-rule="evenodd" fill="#F3F3F3" stroke="#595959" stroke-width="0.5" stroke-miterlimit="10" d="
			M256.246,59.469v5.476V59.469z"/>
		<path fill-rule="evenodd" clip-rule="evenodd" fill="#F3F3F3" stroke="#595959" stroke-width="0.5" stroke-miterlimit="10" d="
			M258.964,62.151l-5.476,0L258.964,62.151z"/>
		<path fill-rule="evenodd" clip-rule="evenodd" fill="#F3F3F3" stroke="#595959" stroke-width="0.5" stroke-miterlimit="10" d="
			M258.158,64.202l-3.989-3.989L258.158,64.202z"/>
		<path fill-rule="evenodd" clip-rule="evenodd" fill="#F3F3F3" stroke="#595959" stroke-width="0.5" stroke-miterlimit="10" d="
			M254.231,64.202l3.989-3.989L254.231,64.202z"/>
		<path fill-rule="evenodd" clip-rule="evenodd" fill="#F3F3F3" stroke="#595959" stroke-width="0.5" stroke-miterlimit="10" d="
			M240.314,59.655v5.477V59.655z"/>
		<path fill-rule="evenodd" clip-rule="evenodd" fill="#F3F3F3" stroke="#595959" stroke-width="0.5" stroke-miterlimit="10" d="
			M242.976,62.337l-5.476,0L242.976,62.337z"/>
		<path fill-rule="evenodd" clip-rule="evenodd" fill="#F3F3F3" stroke="#595959" stroke-width="0.5" stroke-miterlimit="10" d="
			M242.232,64.388l-3.989-3.989L242.232,64.388z"/>
		<path fill-rule="evenodd" clip-rule="evenodd" fill="#F3F3F3" stroke="#595959" stroke-width="0.5" stroke-miterlimit="10" d="
			M238.305,64.388l3.989-3.989L238.305,64.388z"/>
	</g>
	<g>
		<path fill-rule="evenodd" clip-rule="evenodd" fill="#F3F3F3" stroke="#595959" stroke-width="0.5" stroke-miterlimit="10" d="
			M122.458,46.647h14.347v11.912h-14.347V46.647L122.458,46.647z M190.261,46.647v17.804h-53.455V46.647H190.261z"/>
		<path fill-rule="evenodd" clip-rule="evenodd" fill="#F3F3F3" stroke="#595959" stroke-width="0.5" stroke-miterlimit="10" d="
			M168.851,53.006c0-3.098-2.788-3.395-6.294-3.395c-3.422,0-6.252,0.297-6.252,3.395c0,3.098,2.788,5.645,6.252,5.645
			C166.063,58.608,168.851,56.104,168.851,53.006z"/>
		
			<rect x="141.573" y="53.575" fill-rule="evenodd" clip-rule="evenodd" fill="#F3F3F3" stroke="#595959" stroke-width="0.5" stroke-miterlimit="10" width="41.968" height="2.363"/>
		
			<rect x="141.573" y="53.575" fill-rule="evenodd" clip-rule="evenodd" fill="#F3F3F3" stroke="#595959" stroke-width="0.5" stroke-miterlimit="10" width="41.968" height="2.363"/>
		
			<polygon fill-rule="evenodd" clip-rule="evenodd" fill="#F3F3F3" stroke="#595959" stroke-width="0.5" stroke-miterlimit="10" points="
			179.981,53.684 173.236,51.739 151.92,51.739 145.175,53.684 		"/>
		
			<polygon fill-rule="evenodd" clip-rule="evenodd" fill="#F3F3F3" stroke="#595959" stroke-width="0.5" stroke-miterlimit="10" points="
			179.981,53.684 173.236,51.739 151.92,51.739 145.175,53.684 		"/>
		<path fill-rule="evenodd" clip-rule="evenodd" fill="#F3F3F3" stroke="#595959" stroke-width="0.5" stroke-miterlimit="10" d="
			M123.711,59.848h11.832v1.181h-11.832V59.848L123.711,59.848z M190.234,46.647h14.342v11.936h-14.342V46.647L190.234,46.647z
			 M203.362,59.848v1.181H191.53v-1.181H203.362z"/>
	</g>
	<g>
		
			<rect x="171.809" y="227.965" transform="matrix(-1.836970e-16 1 -1 -1.836970e-16 435.6331 76.0723)" fill-rule="evenodd" clip-rule="evenodd" fill="#F3F3F3" stroke="#595959" stroke-width="0.5" stroke-miterlimit="10" width="15.943" height="55.776"/>
		<g>
			
				<rect x="158.518" y="254.861" fill-rule="evenodd" clip-rule="evenodd" fill="#F3F3F3" stroke="#595959" stroke-width="0.5" stroke-miterlimit="10" width="42.524" height="2.139"/>
			
				<polygon fill-rule="evenodd" clip-rule="evenodd" fill="#F3F3F3" stroke="#595959" stroke-width="0.5" stroke-miterlimit="10" points="
				197.435,254.861 190.601,253.199 169.003,253.199 162.168,254.861 			"/>
			
				<rect x="178.868" y="248.642" transform="matrix(5.164853e-11 -1 1 5.164853e-11 -72.464 432.0672)" fill-rule="evenodd" clip-rule="evenodd" fill="#F3F3F3" stroke="#595959" stroke-width="0.5" stroke-miterlimit="10" width="1.867" height="7.248"/>
		</g>
	</g>
	<g>
		<g>
			
				<rect x="135.262" y="321.322" transform="matrix(6.123234e-17 -1 1 6.123234e-17 -176.0968 535.6575)" fill-rule="evenodd" clip-rule="evenodd" fill="#F3F3F3" stroke="#595959" stroke-width="0.5" stroke-miterlimit="10" width="89.036" height="69.111"/>
			
				<rect x="138.322" y="322.378" transform="matrix(6.123234e-17 -1 1 6.123234e-17 -175.5303 535.1636)" fill-rule="evenodd" clip-rule="evenodd" fill="#F3F3F3" stroke="#595959" stroke-width="0.5" stroke-miterlimit="10" width="82.99" height="65.937"/>
			
				<rect x="152.247" y="372.53" transform="matrix(6.123234e-17 -1 1 6.123234e-17 -223.7293 546.9467)" fill-rule="evenodd" clip-rule="evenodd" fill="#F3F3F3" stroke="#595959" stroke-width="0.5" stroke-miterlimit="10" width="18.722" height="25.617"/>
			
				<rect x="188.473" y="372.53" transform="matrix(6.123234e-17 -1 1 6.123234e-17 -187.5039 583.1722)" fill-rule="evenodd" clip-rule="evenodd" fill="#F3F3F3" stroke="#595959" stroke-width="0.5" stroke-miterlimit="10" width="18.722" height="25.617"/>
			
				<polygon fill-rule="evenodd" clip-rule="evenodd" fill="#F3F3F3" stroke="#595959" stroke-width="0.5" stroke-miterlimit="10" points="
				146.848,366.42 166.519,377.874 193.114,377.874 166.519,377.874 193.114,377.874 212.785,366.42 212.785,313.852 
				212.713,313.852 146.848,313.852 			"/>
			
				<polyline fill-rule="evenodd" clip-rule="evenodd" fill="#F3F3F3" stroke="#595959" stroke-width="0.5" stroke-miterlimit="10" points="
				146.848,366.42 160.653,358.064 166.519,377.874 			"/>
			
				<line fill-rule="evenodd" clip-rule="evenodd" fill="#F3F3F3" stroke="#595959" stroke-width="0.5" stroke-miterlimit="10" x1="166.519" y1="377.874" x2="146.848" y2="366.42"/>
			
				<polyline fill-rule="evenodd" clip-rule="evenodd" fill="#F3F3F3" stroke="#595959" stroke-width="0.5" stroke-miterlimit="10" points="
				212.785,366.42 198.981,358.064 193.114,377.874 			"/>
			
				<line fill-rule="evenodd" clip-rule="evenodd" fill="#F3F3F3" stroke="#595959" stroke-width="0.5" stroke-miterlimit="10" x1="193.114" y1="377.874" x2="212.785" y2="366.42"/>
		</g>
		<g>
			
				<rect x="215.623" y="382.723" fill="#F3F3F3" stroke="#595959" stroke-width="0.5" stroke-miterlimit="10" width="24.324" height="17.672"/>
			
				<rect x="222.591" y="381.572" fill="#F3F3F3" stroke="#595959" stroke-width="0.5" stroke-miterlimit="10" width="10.198" height="1.151"/>
		</g>
		<g>
			
				<rect x="119.547" y="382.723" fill="#F3F3F3" stroke="#595959" stroke-width="0.5" stroke-miterlimit="10" width="24.324" height="17.672"/>
			
				<rect x="126.515" y="381.572" fill="#F3F3F3" stroke="#595959" stroke-width="0.5" stroke-miterlimit="10" width="10.198" height="1.151"/>
		</g>
	</g>
	<g>
		<path fill-rule="evenodd" clip-rule="evenodd" fill="#F3F3F3" stroke="#595959" stroke-width="0.5" stroke-miterlimit="10" d="
			M470.923,393.868v-0.893V393.868z"/>
		
			<line fill-rule="evenodd" clip-rule="evenodd" fill="#F3F3F3" stroke="#595959" stroke-width="0.5" stroke-miterlimit="10" x1="470.923" y1="393.868" x2="470.923" y2="392.975"/>
		<path fill-rule="evenodd" clip-rule="evenodd" fill="#F3F3F3" stroke="#595959" stroke-width="0.5" stroke-miterlimit="10" d="
			M471.606,387.301v0.052v5.831c0,0.421-0.368,0.736-0.735,0.736c-0.421,0-0.735-0.315-0.735-0.736v-5.831v-0.052H471.606z"/>
		
			<rect x="457.579" y="392.922" fill-rule="evenodd" clip-rule="evenodd" fill="#F3F3F3" stroke="#595959" stroke-width="0.5" stroke-miterlimit="10" width="26.635" height="3.835"/>
		<path fill-rule="evenodd" clip-rule="evenodd" fill="#F3F3F3" stroke="#595959" stroke-width="0.5" stroke-miterlimit="10" d="
			M457.632,393.868h26.529H457.632z"/>
		<path fill-rule="evenodd" clip-rule="evenodd" fill="#F3F3F3" stroke="#595959" stroke-width="0.5" stroke-miterlimit="10" d="
			M457.579,392.922v-13.396c0-0.683,0.473-1.261,1.156-1.261h24.376c0.578,0,1.103,0.578,1.103,1.261v13.396H457.579z"/>
		<path fill-rule="evenodd" clip-rule="evenodd" fill="#F3F3F3" stroke="#595959" stroke-width="0.5" stroke-miterlimit="10" d="
			M470.975,390.769c-4.938,0-8.983-2.521-9.036-5.621c-0.052-3.152,3.835-5.673,8.826-5.726c4.938,0,8.983,2.469,9.035,5.621
			C479.854,388.142,475.861,390.717,470.975,390.769z"/>
		<path fill-rule="evenodd" clip-rule="evenodd" fill="#F3F3F3" stroke="#595959" stroke-width="0.5" stroke-miterlimit="10" d="
			M469.399,384.99c0-0.841,0.683-1.524,1.524-1.524c0.788,0,1.418,0.683,1.418,1.524c0,0.841-0.631,1.471-1.418,1.471
			C470.082,386.408,469.399,385.779,469.399,384.99z"/>
		<path fill-rule="evenodd" clip-rule="evenodd" fill="#F3F3F3" stroke="#595959" stroke-width="0.5" stroke-miterlimit="10" d="
			M471.606,387.301v0.052v5.831c0,0.421-0.368,0.736-0.735,0.736c-0.421,0-0.735-0.315-0.735-0.736v-5.831v-0.052H471.606z"/>
	</g>
	<g>
		<path fill-rule="evenodd" clip-rule="evenodd" fill="#F3F3F3" stroke="#595959" stroke-width="0.5" stroke-miterlimit="10" d="
			M310.952,334.174h0.917H310.952z"/>
		
			<line fill-rule="evenodd" clip-rule="evenodd" fill="#F3F3F3" stroke="#595959" stroke-width="0.5" stroke-miterlimit="10" x1="310.952" y1="334.174" x2="311.869" y2="334.174"/>
		<path fill-rule="evenodd" clip-rule="evenodd" fill="#F3F3F3" stroke="#595959" stroke-width="0.5" stroke-miterlimit="10" d="
			M317.698,334.876h-0.054h-5.99c-0.432,0-0.756-0.378-0.756-0.755c0-0.432,0.324-0.755,0.756-0.755h5.99h0.054V334.876z"/>
		
			<rect x="307.984" y="320.466" fill-rule="evenodd" clip-rule="evenodd" fill="#F3F3F3" stroke="#595959" stroke-width="0.5" stroke-miterlimit="10" width="3.94" height="27.362"/>
		<path fill-rule="evenodd" clip-rule="evenodd" fill="#F3F3F3" stroke="#595959" stroke-width="0.5" stroke-miterlimit="10" d="
			M310.952,320.52v27.253V320.52z"/>
		<path fill-rule="evenodd" clip-rule="evenodd" fill="#F3F3F3" stroke="#595959" stroke-width="0.5" stroke-miterlimit="10" d="
			M311.923,320.466h13.762c0.702,0,1.295,0.486,1.295,1.188v25.041c0,0.593-0.593,1.133-1.295,1.133h-13.762V320.466z"/>
		<path fill-rule="evenodd" clip-rule="evenodd" fill="#F3F3F3" stroke="#595959" stroke-width="0.5" stroke-miterlimit="10" d="
			M314.136,334.228c0-5.073,2.59-9.228,5.775-9.283c3.238-0.054,5.828,3.94,5.883,9.067c0,5.073-2.536,9.228-5.774,9.282
			C316.834,343.349,314.189,339.247,314.136,334.228z"/>
		<path fill-rule="evenodd" clip-rule="evenodd" fill="#F3F3F3" stroke="#595959" stroke-width="0.5" stroke-miterlimit="10" d="
			M320.072,332.609c0.864,0,1.565,0.702,1.565,1.565c0,0.809-0.702,1.457-1.565,1.457c-0.864,0-1.511-0.648-1.511-1.457
			C318.615,333.311,319.262,332.609,320.072,332.609z"/>
		<path fill-rule="evenodd" clip-rule="evenodd" fill="#F3F3F3" stroke="#595959" stroke-width="0.5" stroke-miterlimit="10" d="
			M317.698,334.876h-0.054h-5.99c-0.432,0-0.756-0.378-0.756-0.755c0-0.432,0.324-0.755,0.756-0.755h5.99h0.054V334.876z"/>
	</g>
	<path fill-rule="evenodd" clip-rule="evenodd" fill="#F3F3F3" stroke="#595959" stroke-width="0.5" stroke-miterlimit="10" d="
		M355.064,60.33c0-1.107,1.218-2.086,2.714-2.086h20.161c1.495,0,2.714,0.979,2.714,2.086v26.647c0,1.192-1.219,2.129-2.714,2.129
		h-20.161c-1.495,0-2.714-0.937-2.714-2.129V60.33L355.064,60.33z M364.787,73.963c0-0.704,0.554-1.291,1.219-1.291
		c0.664,0,1.163,0.588,1.163,1.291c0,0.705-0.499,1.232-1.163,1.232C365.341,75.195,364.787,74.668,364.787,73.963z M356.935,62.282
		c0-0.945,0.901-1.781,2.007-1.781h14.91c1.106,0,2.007,0.836,2.007,1.781v22.749c0,1.018-0.901,1.817-2.007,1.817h-14.91
		c-1.106,0-2.007-0.8-2.007-1.817V62.282L356.935,62.282z M371.294,72.79h6.42v2.028h-6.42V72.79z"/>
	<g>
		
			<rect x="292.804" y="45.322" fill-rule="evenodd" clip-rule="evenodd" fill="#F3F3F3" stroke="#595959" stroke-width="0.5" stroke-miterlimit="10" width="29.768" height="30.052"/>
		
			<rect x="292.804" y="45.322" fill-rule="evenodd" clip-rule="evenodd" fill="#F3F3F3" stroke="#595959" stroke-width="0.5" stroke-miterlimit="10" width="29.768" height="30.052"/>
		<path fill-rule="evenodd" clip-rule="evenodd" fill="#F3F3F3" stroke="#595959" stroke-width="0.5" stroke-miterlimit="10" d="
			M306.209,52.43c0,2.88-2.291,5.242-5.212,5.242c-2.864,0-5.212-2.362-5.212-5.242c0-2.88,2.348-5.242,5.212-5.242
			C303.975,47.131,306.209,49.55,306.209,52.43z"/>
		<path fill-rule="evenodd" clip-rule="evenodd" fill="#F3F3F3" stroke="#595959" stroke-width="0.5" stroke-miterlimit="10" d="
			M306.209,52.43c0,2.88-2.291,5.242-5.212,5.242c-2.864,0-5.212-2.362-5.212-5.242c0-2.88,2.348-5.242,5.212-5.242
			C303.975,47.131,306.209,49.55,306.209,52.43z"/>
		<path fill-rule="evenodd" clip-rule="evenodd" fill="#F3F3F3" stroke="#595959" stroke-width="0.5" stroke-miterlimit="10" d="
			M304.634,52.431c0,1.975-1.617,3.6-3.638,3.6c-1.964,0-3.58-1.626-3.58-3.6c0-2.033,1.616-3.659,3.58-3.659
			C303.076,48.714,304.634,50.341,304.634,52.431z"/>
		<path fill-rule="evenodd" clip-rule="evenodd" fill="#F3F3F3" stroke="#595959" stroke-width="0.5" stroke-miterlimit="10" d="
			M304.634,52.431c0,1.975-1.617,3.6-3.638,3.6c-1.964,0-3.58-1.626-3.58-3.6c0-2.033,1.616-3.659,3.58-3.659
			C303.076,48.714,304.634,50.341,304.634,52.431z"/>
		<path fill-rule="evenodd" clip-rule="evenodd" fill="#F3F3F3" stroke="#595959" stroke-width="0.5" stroke-miterlimit="10" d="
			M319.311,52.43c0,2.88-2.291,5.242-5.212,5.242c-2.864,0-5.212-2.362-5.212-5.242c0-2.88,2.348-5.242,5.212-5.242
			C317.02,47.131,319.311,49.55,319.311,52.43z"/>
		<path fill-rule="evenodd" clip-rule="evenodd" fill="#F3F3F3" stroke="#595959" stroke-width="0.5" stroke-miterlimit="10" d="
			M319.311,52.43c0,2.88-2.291,5.242-5.212,5.242c-2.864,0-5.212-2.362-5.212-5.242c0-2.88,2.348-5.242,5.212-5.242
			C317.02,47.131,319.311,49.55,319.311,52.43z"/>
		<path fill-rule="evenodd" clip-rule="evenodd" fill="#F3F3F3" stroke="#595959" stroke-width="0.5" stroke-miterlimit="10" d="
			M317.68,52.431c0,1.975-1.617,3.6-3.581,3.6c-1.964,0-3.582-1.626-3.582-3.6c0-2.033,1.617-3.659,3.582-3.659
			C316.063,48.714,317.68,50.341,317.68,52.431z"/>
		<path fill-rule="evenodd" clip-rule="evenodd" fill="#F3F3F3" stroke="#595959" stroke-width="0.5" stroke-miterlimit="10" d="
			M317.68,52.431c0,1.975-1.617,3.6-3.581,3.6c-1.964,0-3.582-1.626-3.582-3.6c0-2.033,1.617-3.659,3.582-3.659
			C316.063,48.714,317.68,50.341,317.68,52.431z"/>
		<path fill-rule="evenodd" clip-rule="evenodd" fill="#F3F3F3" stroke="#595959" stroke-width="0.5" stroke-miterlimit="10" d="
			M319.311,64.42c0,2.88-2.291,5.242-5.212,5.242c-2.864,0-5.212-2.362-5.212-5.242c0-2.88,2.348-5.242,5.212-5.242
			C317.02,59.178,319.311,61.54,319.311,64.42z"/>
		<path fill-rule="evenodd" clip-rule="evenodd" fill="#F3F3F3" stroke="#595959" stroke-width="0.5" stroke-miterlimit="10" d="
			M319.311,64.42c0,2.88-2.291,5.242-5.212,5.242c-2.864,0-5.212-2.362-5.212-5.242c0-2.88,2.348-5.242,5.212-5.242
			C317.02,59.178,319.311,61.54,319.311,64.42z"/>
		<path fill-rule="evenodd" clip-rule="evenodd" fill="#F3F3F3" stroke="#595959" stroke-width="0.5" stroke-miterlimit="10" d="
			M301.429,72.567c0,0.438-0.436,0.94-0.997,0.94c-0.437,0-0.936-0.439-0.936-0.94c0-0.564,0.437-1.003,0.936-1.003
			C300.993,71.564,301.429,72.065,301.429,72.567z"/>
		<path fill-rule="evenodd" clip-rule="evenodd" fill="#F3F3F3" stroke="#595959" stroke-width="0.5" stroke-miterlimit="10" d="
			M301.429,72.567c0,0.438-0.436,0.94-0.997,0.94c-0.437,0-0.936-0.439-0.936-0.94c0-0.564,0.437-1.003,0.936-1.003
			C300.993,71.564,301.429,72.065,301.429,72.567z"/>
		<path fill-rule="evenodd" clip-rule="evenodd" fill="#F3F3F3" stroke="#595959" stroke-width="0.5" stroke-miterlimit="10" d="
			M305.309,72.567c0,0.438-0.375,0.94-0.939,0.94c-0.563,0-0.938-0.439-0.938-0.94c0-0.564,0.375-1.003,0.938-1.003
			C304.934,71.564,305.309,72.065,305.309,72.567z"/>
		<path fill-rule="evenodd" clip-rule="evenodd" fill="#F3F3F3" stroke="#595959" stroke-width="0.5" stroke-miterlimit="10" d="
			M305.309,72.567c0,0.438-0.375,0.94-0.939,0.94c-0.563,0-0.938-0.439-0.938-0.94c0-0.564,0.375-1.003,0.938-1.003
			C304.934,71.564,305.309,72.065,305.309,72.567z"/>
		<path fill-rule="evenodd" clip-rule="evenodd" fill="#F3F3F3" stroke="#595959" stroke-width="0.5" stroke-miterlimit="10" d="
			M309.302,72.567c0,0.438-0.436,0.94-0.998,0.94c-0.436,0-0.935-0.439-0.935-0.94c0-0.564,0.437-1.003,0.935-1.003
			C308.865,71.564,309.302,72.065,309.302,72.567z"/>
		<path fill-rule="evenodd" clip-rule="evenodd" fill="#F3F3F3" stroke="#595959" stroke-width="0.5" stroke-miterlimit="10" d="
			M309.302,72.567c0,0.438-0.436,0.94-0.998,0.94c-0.436,0-0.935-0.439-0.935-0.94c0-0.564,0.437-1.003,0.935-1.003
			C308.865,71.564,309.302,72.065,309.302,72.567z"/>
		<path fill-rule="evenodd" clip-rule="evenodd" fill="#F3F3F3" stroke="#595959" stroke-width="0.5" stroke-miterlimit="10" d="
			M305.045,64.42c0,2.237-1.78,4.072-4.048,4.072c-2.224,0-4.048-1.835-4.048-4.072c0-2.237,1.823-4.071,4.048-4.071
			C303.31,60.349,305.045,62.183,305.045,64.42z"/>
		<path fill-rule="evenodd" clip-rule="evenodd" fill="#F3F3F3" stroke="#595959" stroke-width="0.5" stroke-miterlimit="10" d="
			M305.045,64.42c0,2.237-1.78,4.072-4.048,4.072c-2.224,0-4.048-1.835-4.048-4.072c0-2.237,1.823-4.071,4.048-4.071
			C303.31,60.349,305.045,62.183,305.045,64.42z"/>
		<path fill-rule="evenodd" clip-rule="evenodd" fill="#F3F3F3" stroke="#595959" stroke-width="0.5" stroke-miterlimit="10" d="
			M303.915,64.421c0,1.537-1.259,2.804-2.788,2.804c-1.574,0-2.832-1.267-2.832-2.804c0-1.537,1.259-2.848,2.832-2.848
			C302.657,61.573,303.915,62.884,303.915,64.421z"/>
		<path fill-rule="evenodd" clip-rule="evenodd" fill="#F3F3F3" stroke="#595959" stroke-width="0.5" stroke-miterlimit="10" d="
			M303.915,64.421c0,1.537-1.259,2.804-2.788,2.804c-1.574,0-2.832-1.267-2.832-2.804c0-1.537,1.259-2.848,2.832-2.848
			C302.657,61.573,303.915,62.884,303.915,64.421z"/>
	</g>
	<g>
		
			<rect x="387.698" y="208.732" transform="matrix(-1 -4.489354e-11 4.489354e-11 -1 868.5462 449.6174)" fill-rule="evenodd" clip-rule="evenodd" fill="#F3F3F3" stroke="#595959" stroke-width="0.5" stroke-miterlimit="10" width="93.151" height="32.154"/>
		
			<line fill="#F3F3F3" stroke="#595959" stroke-width="0.5" stroke-miterlimit="10" x1="477.477" y1="208.732" x2="477.477" y2="240.941"/>
		
			<line fill="#F3F3F3" stroke="#595959" stroke-width="0.5" stroke-miterlimit="10" x1="391.169" y1="208.732" x2="391.169" y2="240.886"/>
		
			<line fill="#F3F3F3" stroke="#595959" stroke-width="0.5" stroke-miterlimit="10" x1="477.477" y1="239.401" x2="391.169" y2="239.401"/>
		
			<line fill="#F3F3F3" stroke="#595959" stroke-width="0.5" stroke-miterlimit="10" x1="394.176" y1="224.578" x2="474.473" y2="224.578"/>
		
			<rect x="469.295" y="214.942" transform="matrix(-0.9868 0.162 -0.162 -0.9868 970.7962 370.3494)" fill="#F3F3F3" stroke="#595959" stroke-width="0.5" stroke-miterlimit="10" width="2.014" height="19.605"/>
		
			<rect x="462.079" y="214.942" transform="matrix(-0.9961 0.0882 -0.0882 -0.9961 944.1812 407.7929)" fill="#F3F3F3" stroke="#595959" stroke-width="0.5" stroke-miterlimit="10" width="2.014" height="19.605"/>
		
			<rect x="454.773" y="214.775" transform="matrix(-0.9734 0.229 -0.229 -0.9734 950.8766 338.8132)" fill="#F3F3F3" stroke="#595959" stroke-width="0.5" stroke-miterlimit="10" width="2.014" height="19.605"/>
		
			<rect x="446.62" y="214.994" transform="matrix(-0.9884 0.152 -0.152 -0.9884 924.2289 378.9213)" fill="#F3F3F3" stroke="#595959" stroke-width="0.5" stroke-miterlimit="10" width="2.014" height="19.605"/>
		
			<rect x="439.51" y="214.884" transform="matrix(-0.999 0.0451 -0.0451 -0.999 890.7214 429.2728)" fill="#F3F3F3" stroke="#595959" stroke-width="0.5" stroke-miterlimit="10" width="2.014" height="19.605"/>
		
			<rect x="432.312" y="214.884" transform="matrix(-0.9884 0.152 -0.152 -0.9884 895.7617 380.8794)" fill="#F3F3F3" stroke="#595959" stroke-width="0.5" stroke-miterlimit="10" width="2.014" height="19.605"/>
		
			<rect x="425.002" y="214.775" transform="matrix(-0.999 0.0451 -0.0451 -0.999 861.7165 429.7086)" fill="#F3F3F3" stroke="#595959" stroke-width="0.5" stroke-miterlimit="10" width="2.014" height="19.605"/>
		
			<rect x="417.836" y="214.775" transform="matrix(-0.9787 0.2052 -0.2052 -0.9787 874.8513 358.4457)" fill="#F3F3F3" stroke="#595959" stroke-width="0.5" stroke-miterlimit="10" width="2.014" height="19.605"/>
		
			<rect x="410.669" y="214.795" transform="matrix(-0.9884 0.152 -0.152 -0.9884 852.7142 383.9933)" fill="#F3F3F3" stroke="#595959" stroke-width="0.5" stroke-miterlimit="10" width="2.014" height="19.605"/>
		
			<rect x="403.502" y="214.775" transform="matrix(-0.9964 0.0847 -0.0847 -0.9964 826.5939 414.0701)" fill="#F3F3F3" stroke="#595959" stroke-width="0.5" stroke-miterlimit="10" width="2.014" height="19.605"/>
		
			<rect x="396.335" y="215.014" transform="matrix(-0.9713 0.2379 -0.2379 -0.9713 836.7637 348.6418)" fill="#F3F3F3" stroke="#595959" stroke-width="0.5" stroke-miterlimit="10" width="2.014" height="19.605"/>
	</g>
	<g>
		<path fill="#F3F3F3" stroke="#595959" stroke-width="0.5" stroke-miterlimit="10" d="M44.36,72.415
			c1.53,0.462,2.555,1.455,2.757,1.42c0.725-0.129-0.999-1.233,0.158-4.507c0.869-2.458,1.559-5.996,1.559-5.996
			s2.552,2.737,3.778,5.097c1.409,2.713,0.037,5.409,0.261,5.526c0.296,0.156,1.044-1.841,3.396-2.319
			c2.878-0.585,6.835,2.159,6.835,2.159s-2.995,0.06-5.037,2.114c-1.955,1.966-4.119,1.59-3.996,2.004
			c0.075,0.251,2.429,0.941,4.176,2.178c1.541,1.092,2.473,4.182,2.473,4.182s-1.484-1.304-5.486-0.944
			c-3.623,0.326-4.425-3.907-4.662-3.867c-0.342,0.058,0.435,2.114-0.588,5.037c-0.953,2.724-4.955,5.516-4.955,5.516
			s-0.558-4.126-0.678-5.942c-0.232-3.522,2.264-5.275,1.904-5.81c-0.273-0.405-2.821,0.956-5.185-0.689
			c-1.381-0.96-5.308-2.609-5.308-2.609s3.846-2.161,5.981-2.653C42.714,72.087,43.599,72.186,44.36,72.415"/>
		<path fill="#F3F3F3" stroke="#595959" stroke-width="0.5" stroke-miterlimit="10" d="M46.863,71.501
			c0.003-0.183,0.011-0.47,0.04-0.822c0.038-0.47,0.08-0.628,0.084-0.927c0.003-0.241-0.026-0.527-0.116-1.016
			c-0.261-1.405-1.755-2.22-2.334-2.601c-0.467-0.307-2.439-1.434-2.439-1.434s-1.184,3.035-0.747,5.151
			c0.399,1.166,3.011,2.565,3.011,2.565l2.972,1.58L46.863,71.501z"/>
		<path fill="#F3F3F3" stroke="#595959" stroke-width="0.5" stroke-miterlimit="10" d="M54.739,72.254c0,0,1.713-1.016,2.61-2.236
			c1.453-1.977,1.501-4.078,1.484-4.812c0,0-3.419,0.064-4.654,2.069c-0.838,1.359-0.903,2.706-0.922,3.177
			c-0.007,0.171-0.022,0.335-0.049,0.504l-0.604,3.229L54.739,72.254z"/>
		<path fill="#F3F3F3" stroke="#595959" stroke-width="0.5" stroke-miterlimit="10" d="M56.487,79.071c0,0,2.116,1.122,2.75,1.289
			c0.735,0.194,1.159,0.196,1.374,0.184c0.807-0.045,1.374-0.356,1.746-0.47c0.448-0.137,2.523-0.523,2.523-0.523
			s-2.027-2.513-4.132-3.284c-2.188-0.5-2.979,0.107-3.607,0.406c-0.182,0.087-0.366,0.158-0.56,0.213l-3,0.798L56.487,79.071z"/>
		<path fill="#F3F3F3" stroke="#595959" stroke-width="0.5" stroke-miterlimit="10" d="M50.451,82.81c0,0-0.204,2.611,0.225,3.43
			c0.161,0.307,0.359,1.23,1.951,1.818c1.535,0.568,2.454,1.647,2.454,1.647s0.534-2.133,0.12-3.5
			c-0.19-0.627-0.315-0.971-0.605-1.564c-0.328-0.671-1.281-1.324-1.976-1.885c-0.728-0.587-1.224-1.513-1.224-1.513l-0.817-1.941
			L50.451,82.81z"/>
		<path fill="#F3F3F3" stroke="#595959" stroke-width="0.5" stroke-miterlimit="10" d="M43.624,78.163c0,0-1.896-0.021-3.23,0.45
			c-0.957,0.338-1.41,1.179-2.398,2.584c-0.311,0.442-1.439,2.303-1.439,2.303s3.437,0.927,5.756,0.42
			c1.763-0.386,2.77-2.944,2.77-2.944l1.458-2.917L43.624,78.163z"/>
	</g>
	<g>
		
			<rect x="234.738" y="340.621" transform="matrix(-4.489760e-11 1 -1 -4.489760e-11 635.4716 76.6213)" fill-rule="evenodd" clip-rule="evenodd" fill="#F3F3F3" stroke="#595959" stroke-width="0.5" stroke-miterlimit="10" width="89.375" height="30.85"/>
		
			<line fill="#F3F3F3" stroke="#595959" stroke-width="0.5" stroke-miterlimit="10" x1="264" y1="314.593" x2="294.903" y2="314.593"/>
		
			<line fill="#F3F3F3" stroke="#595959" stroke-width="0.5" stroke-miterlimit="10" x1="264" y1="397.403" x2="294.85" y2="397.403"/>
		
			<line fill="#F3F3F3" stroke="#595959" stroke-width="0.5" stroke-miterlimit="10" x1="293.426" y1="314.593" x2="293.426" y2="397.403"/>
		
			<line fill="#F3F3F3" stroke="#595959" stroke-width="0.5" stroke-miterlimit="10" x1="279.203" y1="394.519" x2="279.203" y2="317.477"/>
		
			<rect x="278.398" y="312.072" transform="matrix(0.162 0.9868 -0.9868 0.162 551.3494 -6.2663)" fill="#F3F3F3" stroke="#595959" stroke-width="0.5" stroke-miterlimit="10" width="1.933" height="18.811"/>
		
			<rect x="278.398" y="318.996" transform="matrix(0.0882 0.9961 -0.9961 0.0882 581.8604 21.1756)" fill="#F3F3F3" stroke="#595959" stroke-width="0.5" stroke-miterlimit="10" width="1.933" height="18.811"/>
		
			<rect x="278.237" y="326.006" transform="matrix(0.229 0.9734 -0.9734 0.229 541.7637 -13.1821)" fill="#F3F3F3" stroke="#595959" stroke-width="0.5" stroke-miterlimit="10" width="1.933" height="18.811"/>
		
			<rect x="278.447" y="333.828" transform="matrix(0.152 0.9884 -0.9884 0.152 576.1741 14.8831)" fill="#F3F3F3" stroke="#595959" stroke-width="0.5" stroke-miterlimit="10" width="1.933" height="18.811"/>
		
			<rect x="278.342" y="340.65" transform="matrix(0.0451 0.999 -0.999 0.0451 616.4076 55.2401)" fill="#F3F3F3" stroke="#595959" stroke-width="0.5" stroke-miterlimit="10" width="1.933" height="18.811"/>
		
			<rect x="278.342" y="347.557" transform="matrix(0.152 0.9884 -0.9884 0.152 589.6539 26.6279)" fill="#F3F3F3" stroke="#595959" stroke-width="0.5" stroke-miterlimit="10" width="1.933" height="18.811"/>
		
			<rect x="278.237" y="354.57" transform="matrix(0.0451 0.999 -0.999 0.0451 630.2125 68.6363)" fill="#F3F3F3" stroke="#595959" stroke-width="0.5" stroke-miterlimit="10" width="1.933" height="18.811"/>
		
			<rect x="278.237" y="361.446" transform="matrix(0.2052 0.9787 -0.9787 0.2052 584.8827 21.5013)" fill="#F3F3F3" stroke="#595959" stroke-width="0.5" stroke-miterlimit="10" width="1.933" height="18.811"/>
		
			<rect x="278.257" y="368.322" transform="matrix(0.152 0.9884 -0.9884 0.152 610.1057 44.3205)" fill="#F3F3F3" stroke="#595959" stroke-width="0.5" stroke-miterlimit="10" width="1.933" height="18.811"/>
		
			<rect x="278.237" y="375.198" transform="matrix(0.0847 0.9964 -0.9964 0.0847 638.7646 73.8139)" fill="#F3F3F3" stroke="#595959" stroke-width="0.5" stroke-miterlimit="10" width="1.933" height="18.811"/>
		
			<rect x="278.467" y="382.075" transform="matrix(0.2379 0.9713 -0.9713 0.2379 593.1884 26.9299)" fill="#F3F3F3" stroke="#595959" stroke-width="0.5" stroke-miterlimit="10" width="1.933" height="18.811"/>
	</g>
	<g>
		<g>
			
				<rect x="796.416" y="348.095" transform="matrix(4.486728e-11 -1 1 4.486728e-11 451.403 1163.9707)" fill="#F3F3F3" stroke="#595959" stroke-width="0.5" stroke-miterlimit="10" width="22.541" height="16.377"/>
			
				<rect x="794.239" y="355.838" transform="matrix(4.465234e-11 -1 1 4.465234e-11 442.593 1155.3368)" fill="#F3F3F3" stroke="#595959" stroke-width="0.5" stroke-miterlimit="10" width="9.451" height="1.067"/>
		</g>
		<g>
			
				<rect x="733.365" y="368.747" fill-rule="evenodd" clip-rule="evenodd" fill="#F3F3F3" stroke="#595959" stroke-width="0.5" stroke-miterlimit="10" width="82.51" height="32.023"/>
			
				<polyline fill-rule="evenodd" clip-rule="evenodd" fill="#F3F3F3" stroke="#595959" stroke-width="0.5" stroke-miterlimit="10" points="
				792.894,399.426 811.872,399.426 811.872,370.092 783.083,370.092 			"/>
			
				<rect x="792.243" y="371.921" transform="matrix(-1 -4.491575e-11 4.491575e-11 -1 1602.0626 769.5173)" fill-rule="evenodd" clip-rule="evenodd" fill="#F3F3F3" stroke="#595959" stroke-width="0.5" stroke-miterlimit="10" width="17.576" height="25.676"/>
			
				<polygon fill-rule="evenodd" clip-rule="evenodd" fill="#F3F3F3" stroke="#595959" stroke-width="0.5" stroke-miterlimit="10" points="
				793.697,399.426 793.697,387.574 793.697,387.574 783.321,370.092 735.701,370.092 735.701,370.156 735.701,399.426 			"/>
			
				<polygon fill-rule="evenodd" clip-rule="evenodd" fill="#F3F3F3" stroke="#595959" stroke-width="0.5" stroke-miterlimit="10" points="
				783.264,370.407 775.953,381.994 793.285,386.918 			"/>
		</g>
	</g>
	<g>
		<g>
			<path fill="#F3F3F3" stroke="#595959" stroke-width="0.5" stroke-miterlimit="10" d="M672.37,367.131l16.688,0.023
				c1.1,0.002,1.999,0.903,1.997,2.003l-0.021,14.925c-0.002,1.1-0.903,1.999-2.003,1.997l-16.688-0.023
				c-1.1-0.002-1.999-0.903-1.997-2.003l0.021-14.925C670.368,368.028,671.27,367.129,672.37,367.131z"/>
			<path fill="#F3F3F3" stroke="#595959" stroke-width="0.5" stroke-miterlimit="10" d="M671.753,367.13l17.922,0.025
				c0.761,0.001,1.384-0.62,1.385-1.381l0.003-1.751c0.001-0.761-0.62-1.384-1.381-1.385l-17.922-0.025
				c-0.761-0.001-1.384,0.62-1.385,1.381l-0.002,1.751C670.37,366.506,670.992,367.129,671.753,367.13z"/>
		</g>
		
			<rect x="649.908" y="378.566" transform="matrix(-1 -4.488999e-11 4.488999e-11 -1 1361.4077 779.3362)" fill-rule="evenodd" clip-rule="evenodd" fill="#F3F3F3" stroke="#595959" stroke-width="0.5" stroke-miterlimit="10" width="61.592" height="22.204"/>
	</g>
	<g>
		
			<rect x="510.448" y="340.572" transform="matrix(4.489748e-11 -1 1 4.489748e-11 199.1384 911.1331)" fill-rule="evenodd" clip-rule="evenodd" fill="#F3F3F3" stroke="#595959" stroke-width="0.5" stroke-miterlimit="10" width="89.375" height="30.85"/>
		
			<line fill="#F3F3F3" stroke="#595959" stroke-width="0.5" stroke-miterlimit="10" x1="570.561" y1="397.45" x2="539.657" y2="397.45"/>
		
			<line fill="#F3F3F3" stroke="#595959" stroke-width="0.5" stroke-miterlimit="10" x1="570.561" y1="314.64" x2="539.711" y2="314.64"/>
		
			<line fill="#F3F3F3" stroke="#595959" stroke-width="0.5" stroke-miterlimit="10" x1="541.135" y1="397.45" x2="541.135" y2="314.64"/>
		
			<line fill="#F3F3F3" stroke="#595959" stroke-width="0.5" stroke-miterlimit="10" x1="555.357" y1="317.525" x2="555.357" y2="394.567"/>
		
			<rect x="554.231" y="381.161" transform="matrix(-0.162 -0.9868 0.9868 -0.162 259.7109 1001.691)" fill="#F3F3F3" stroke="#595959" stroke-width="0.5" stroke-miterlimit="10" width="1.933" height="18.811"/>
		
			<rect x="554.231" y="374.237" transform="matrix(-0.0882 -0.9961 0.9961 -0.0882 221.99 970.4969)" fill="#F3F3F3" stroke="#595959" stroke-width="0.5" stroke-miterlimit="10" width="1.933" height="18.811"/>
		
			<rect x="554.391" y="367.227" transform="matrix(-0.229 -0.9734 0.9734 -0.229 315.9112 1003.4811)" fill="#F3F3F3" stroke="#595959" stroke-width="0.5" stroke-miterlimit="10" width="1.933" height="18.811"/>
		
			<rect x="554.181" y="359.405" transform="matrix(-0.152 -0.9884 0.9884 -0.152 275.0305 973.5782)" fill="#F3F3F3" stroke="#595959" stroke-width="0.5" stroke-miterlimit="10" width="1.933" height="18.811"/>
		
			<rect x="554.286" y="352.583" transform="matrix(-0.0451 -0.999 0.999 -0.0451 218.6814 933.0052)" fill="#F3F3F3" stroke="#595959" stroke-width="0.5" stroke-miterlimit="10" width="1.933" height="18.811"/>
		
			<rect x="554.286" y="345.676" transform="matrix(-0.152 -0.9884 0.9884 -0.152 288.7202 957.8661)" fill="#F3F3F3" stroke="#595959" stroke-width="0.5" stroke-miterlimit="10" width="1.933" height="18.811"/>
		
			<rect x="554.391" y="338.663" transform="matrix(-0.0451 -0.999 0.999 -0.0451 232.6961 918.5628)" fill="#F3F3F3" stroke="#595959" stroke-width="0.5" stroke-miterlimit="10" width="1.933" height="18.811"/>
		
			<rect x="554.391" y="331.787" transform="matrix(-0.2052 -0.9787 0.9787 -0.2052 335.3634 954.737)" fill="#F3F3F3" stroke="#595959" stroke-width="0.5" stroke-miterlimit="10" width="1.933" height="18.811"/>
		
			<rect x="554.372" y="324.911" transform="matrix(-0.152 -0.9884 0.9884 -0.152 309.3426 934.0277)" fill="#F3F3F3" stroke="#595959" stroke-width="0.5" stroke-miterlimit="10" width="1.933" height="18.811"/>
		
			<rect x="554.391" y="318.035" transform="matrix(-0.0847 -0.9964 0.9964 -0.0847 276.1553 908.5467)" fill="#F3F3F3" stroke="#595959" stroke-width="0.5" stroke-miterlimit="10" width="1.933" height="18.811"/>
		
			<rect x="554.162" y="311.158" transform="matrix(-0.2379 -0.9713 0.9713 -0.2379 375.846 936.0198)" fill="#F3F3F3" stroke="#595959" stroke-width="0.5" stroke-miterlimit="10" width="1.933" height="18.811"/>
	</g>
	<g>
		<g>
			
				<rect x="796.39" y="298.378" transform="matrix(4.486704e-11 1 -1 4.486704e-11 1114.2267 -501.0945)" fill="#F3F3F3" stroke="#595959" stroke-width="0.5" stroke-miterlimit="10" width="22.541" height="16.377"/>
			
				<rect x="794.213" y="305.945" transform="matrix(4.465210e-11 1 -1 4.465210e-11 1105.4167 -492.4606)" fill="#F3F3F3" stroke="#595959" stroke-width="0.5" stroke-miterlimit="10" width="9.451" height="1.067"/>
		</g>
		<g>
			
				<rect x="733.339" y="262.08" fill-rule="evenodd" clip-rule="evenodd" fill="#F3F3F3" stroke="#595959" stroke-width="0.5" stroke-miterlimit="10" width="82.51" height="32.023"/>
			
				<polyline fill-rule="evenodd" clip-rule="evenodd" fill="#F3F3F3" stroke="#595959" stroke-width="0.5" stroke-miterlimit="10" points="
				792.868,263.424 811.846,263.424 811.846,292.758 783.057,292.758 			"/>
			
				<rect x="792.217" y="265.253" transform="matrix(-1 4.491551e-11 -4.491551e-11 -1 1602.0101 556.1826)" fill-rule="evenodd" clip-rule="evenodd" fill="#F3F3F3" stroke="#595959" stroke-width="0.5" stroke-miterlimit="10" width="17.576" height="25.676"/>
			
				<polygon fill-rule="evenodd" clip-rule="evenodd" fill="#F3F3F3" stroke="#595959" stroke-width="0.5" stroke-miterlimit="10" points="
				793.671,263.424 793.671,275.275 793.671,275.275 783.295,292.758 735.674,292.758 735.674,292.694 735.674,263.424 			"/>
			
				<polygon fill-rule="evenodd" clip-rule="evenodd" fill="#F3F3F3" stroke="#595959" stroke-width="0.5" stroke-miterlimit="10" points="
				783.238,292.443 775.926,280.856 793.259,275.932 			"/>
		</g>
	</g>
	<g>
		<g>
			<path fill="#F3F3F3" stroke="#595959" stroke-width="0.5" stroke-miterlimit="10" d="M672.343,295.719l16.688-0.023
				c1.1-0.002,1.999-0.903,1.997-2.003l-0.021-14.925c-0.002-1.1-0.903-1.999-2.003-1.997l-16.688,0.023
				c-1.1,0.002-1.999,0.903-1.997,2.003l0.021,14.925C670.342,294.822,671.243,295.72,672.343,295.719z"/>
			<path fill="#F3F3F3" stroke="#595959" stroke-width="0.5" stroke-miterlimit="10" d="M671.726,295.72l17.922-0.025
				c0.761-0.001,1.384,0.62,1.385,1.381l0.002,1.751c0.001,0.761-0.62,1.384-1.381,1.385l-17.922,0.025
				c-0.761,0.001-1.384-0.62-1.385-1.381l-0.002-1.751C670.344,296.344,670.966,295.721,671.726,295.72z"/>
		</g>
		
			<rect x="649.881" y="262.08" transform="matrix(-1 4.488975e-11 -4.488975e-11 -1 1361.3552 546.3636)" fill-rule="evenodd" clip-rule="evenodd" fill="#F3F3F3" stroke="#595959" stroke-width="0.5" stroke-miterlimit="10" width="61.592" height="22.204"/>
	</g>
	<g>
		<path fill-rule="evenodd" clip-rule="evenodd" fill="#F3F3F3" stroke="#595959" stroke-width="0.5" stroke-miterlimit="10" d="
			M96.543,173.217v35.409v28.514c0,1.896,1.551,3.447,3.447,3.447h28.562h86.362c1.896,0,3.447-1.551,3.447-3.447v-28.514
			c0-1.896-1.551-3.447-3.447-3.447h-79.468c-1.904,0-3.447-1.543-3.447-3.447v-28.515c0-1.896-1.551-3.447-3.447-3.447H99.991
			C98.095,169.77,96.543,171.321,96.543,173.217z"/>
		<g>
			<path fill-rule="evenodd" clip-rule="evenodd" fill="#F3F3F3" stroke="#595959" stroke-width="0.5" stroke-miterlimit="10" d="
				M132,210.895c0-4.035-0.207-5.717-5.326-5.717h-15.202c-5.119,0-5.326,1.729-5.326,5.717v15.132c0,4.035,0.207,5.717,5.326,5.717
				h15.202c5.119,0,5.326-1.729,5.326-5.717V210.895z"/>
			<path fill-rule="evenodd" clip-rule="evenodd" fill="#F3F3F3" stroke="#595959" stroke-width="0.5" stroke-miterlimit="10" d="
				M132,210.895c0-4.035-0.207-5.717-5.326-5.717h-15.202c-5.119,0-5.326,1.729-5.326,5.717v15.132c0,4.035,0.207,5.717,5.326,5.717
				h15.202c5.119,0,5.326-1.729,5.326-5.717V210.895z"/>
			<path fill-rule="evenodd" clip-rule="evenodd" fill="#F3F3F3" stroke="#595959" stroke-width="0.5" stroke-miterlimit="10" d="
				M157.651,210.895c0-4.035-0.207-5.717-5.326-5.717h-15.201c-5.119,0-5.326,1.729-5.326,5.717v15.132
				c0,4.035,0.207,5.717,5.326,5.717h15.201c5.119,0,5.326-1.729,5.326-5.717V210.895z"/>
			<path fill-rule="evenodd" clip-rule="evenodd" fill="#F3F3F3" stroke="#595959" stroke-width="0.5" stroke-miterlimit="10" d="
				M157.651,210.895c0-4.035-0.207-5.717-5.326-5.717h-15.201c-5.119,0-5.326,1.729-5.326,5.717v15.132
				c0,4.035,0.207,5.717,5.326,5.717h15.201c5.119,0,5.326-1.729,5.326-5.717V210.895z"/>
			<path fill-rule="evenodd" clip-rule="evenodd" fill="#F3F3F3" stroke="#595959" stroke-width="0.5" stroke-miterlimit="10" d="
				M183.25,210.895c0-4.035-0.207-5.717-5.274-5.717h-15.254c-5.119,0-5.275,1.729-5.275,5.717v15.132
				c0,4.035,0.207,5.717,5.275,5.717h15.254c5.119,0,5.274-1.729,5.274-5.717V210.895z"/>
			<path fill-rule="evenodd" clip-rule="evenodd" fill="#F3F3F3" stroke="#595959" stroke-width="0.5" stroke-miterlimit="10" d="
				M183.25,210.895c0-4.035-0.207-5.717-5.274-5.717h-15.254c-5.119,0-5.275,1.729-5.275,5.717v15.132
				c0,4.035,0.207,5.717,5.275,5.717h15.254c5.119,0,5.274-1.729,5.274-5.717V210.895z"/>
			<path fill-rule="evenodd" clip-rule="evenodd" fill="#F3F3F3" stroke="#595959" stroke-width="0.5" stroke-miterlimit="10" d="
				M132,184.33c0-4.035-0.207-5.717-5.326-5.717h-15.202c-5.119,0-5.326,1.729-5.326,5.717v15.132c0,4.035,0.207,5.717,5.326,5.717
				h15.202c5.119,0,5.326-1.729,5.326-5.717V184.33z"/>
			<path fill-rule="evenodd" clip-rule="evenodd" fill="#F3F3F3" stroke="#595959" stroke-width="0.5" stroke-miterlimit="10" d="
				M208.85,210.972c0-4.035-0.207-5.717-5.274-5.717h-15.254c-5.119,0-5.275,1.729-5.275,5.717v15.132
				c0,4.035,0.207,5.717,5.275,5.717h15.254c5.119,0,5.274-1.729,5.274-5.717V210.972z"/>
			<path fill-rule="evenodd" clip-rule="evenodd" fill="#F3F3F3" stroke="#595959" stroke-width="0.5" stroke-miterlimit="10" d="
				M96.543,236.923v-61.973v-1.515c0-2.016,1.774-3.665,3.942-3.665h1.63h25.944c2.168,0,3.942,1.649,3.942,3.665v1.515
				c0,2.016-1.774,3.665-3.942,3.665h-22.003v53.129H208.85v-22.9c0-2.015,1.774-3.665,3.942-3.665h1.63
				c2.168,0,3.942,1.649,3.942,3.665v26.565v1.515c0,2.016-1.774,3.665-3.942,3.665h-1.63H102.114h-1.629h0
				C98.317,240.587,96.543,238.938,96.543,236.923z"/>
		</g>
	</g>
	<g>
		<g>
			<path fill="#F3F3F3" stroke="#595959" stroke-width="0.5" stroke-miterlimit="10" d="M229.759,114.727
				c-5.97,0-10.802-1.787-10.802-4.003c0-2.206,4.832-4.003,10.802-4.003c5.97,0,10.812,1.797,10.812,4.003
				C240.571,112.94,235.729,114.727,229.759,114.727z"/>
			<path fill="#F3F3F3" stroke="#595959" stroke-width="0.5" stroke-miterlimit="10" d="M229.759,132.806
				c-5.97,0-10.802-4.842-10.802-10.812c0-5.97,4.832-10.812,10.802-10.812c5.97,0,10.812,4.842,10.812,10.812
				C240.571,127.965,235.729,132.806,229.759,132.806z"/>
		</g>
		<g>
			<path fill="#F3F3F3" stroke="#595959" stroke-width="0.5" stroke-miterlimit="10" d="M261.956,165.854
				c5.97,0,10.812,1.797,10.812,4.003c0,2.216-4.842,4.003-10.812,4.003s-10.802-1.787-10.802-4.003
				C251.154,167.651,255.986,165.854,261.956,165.854z"/>
			<path fill="#F3F3F3" stroke="#595959" stroke-width="0.5" stroke-miterlimit="10" d="M261.956,147.785
				c5.97,0,10.812,4.842,10.812,10.812s-4.842,10.812-10.812,10.812s-10.802-4.842-10.802-10.812S255.986,147.785,261.956,147.785z"
				/>
		</g>
		<g>
			<path fill="#F3F3F3" stroke="#595959" stroke-width="0.5" stroke-miterlimit="10" d="M229.759,165.859
				c5.98,0,10.812,1.787,10.812,4.003c0,2.206-4.832,4.003-10.812,4.003c-5.97,0-10.802-1.797-10.802-4.003
				C218.957,167.646,223.789,165.859,229.759,165.859z"/>
			<path fill="#F3F3F3" stroke="#595959" stroke-width="0.5" stroke-miterlimit="10" d="M229.759,147.78
				c5.98,0,10.812,4.842,10.812,10.812s-4.832,10.812-10.812,10.812c-5.97,0-10.802-4.842-10.802-10.812
				S223.789,147.78,229.759,147.78z"/>
		</g>
		<g>
			<path fill="#F3F3F3" stroke="#595959" stroke-width="0.5" stroke-miterlimit="10" d="M261.966,114.727
				c-5.98,0-10.812-1.787-10.812-4.003c0-2.206,4.832-4.003,10.812-4.003c5.97,0,10.802,1.797,10.802,4.003
				C272.767,112.94,267.935,114.727,261.966,114.727z"/>
			<path fill="#F3F3F3" stroke="#595959" stroke-width="0.5" stroke-miterlimit="10" d="M261.966,132.806
				c-5.98,0-10.812-4.842-10.812-10.812c0-5.97,4.832-10.812,10.812-10.812c5.97,0,10.802,4.842,10.802,10.812
				C272.767,127.965,267.935,132.806,261.966,132.806z"/>
		</g>
		<polygon fill="#F3F3F3" stroke="#595959" stroke-width="0.5" points="279.452,160.823 279.452,119.763 211.907,119.763 
			211.907,160.823 		"/>
	</g>
</g>
<g id="numbers">
	<g>
		<path d="M117.599,282.119c-0.724-0.399-1.292-0.951-1.703-1.658c-0.412-0.706-0.618-1.497-0.618-2.372s0.206-1.666,0.618-2.373
			c0.412-0.706,0.981-1.259,1.709-1.657s1.542-0.598,2.444-0.598c0.676,0,1.3,0.112,1.872,0.338
			c0.572,0.226,1.057,0.555,1.456,0.988l-0.611,0.61c-0.711-0.719-1.608-1.079-2.691-1.079c-0.719,0-1.374,0.165-1.963,0.494
			c-0.589,0.33-1.051,0.78-1.384,1.353c-0.334,0.571-0.5,1.213-0.5,1.924s0.167,1.352,0.5,1.924
			c0.333,0.572,0.795,1.022,1.384,1.352c0.589,0.33,1.244,0.494,1.963,0.494c1.092,0,1.989-0.363,2.691-1.092l0.611,0.611
			c-0.399,0.434-0.886,0.765-1.462,0.994c-0.577,0.229-1.203,0.345-1.878,0.345C119.134,282.717,118.322,282.518,117.599,282.119z"
			/>
		<path d="M131.281,275.801v6.838h-0.923v-6.019h-4.29v6.019h-0.923v-6.838H131.281z"/>
		<path d="M138.314,276.418c0.476,0.446,0.715,1.107,0.715,1.982v4.238h-0.884v-1.066c-0.208,0.355-0.513,0.633-0.917,0.832
			c-0.403,0.2-0.882,0.3-1.436,0.3c-0.763,0-1.37-0.183-1.82-0.547c-0.451-0.363-0.676-0.845-0.676-1.442
			c0-0.581,0.21-1.049,0.63-1.404s1.09-0.533,2.008-0.533h2.171v-0.416c0-0.589-0.165-1.037-0.494-1.345
			c-0.33-0.308-0.811-0.462-1.443-0.462c-0.434,0-0.85,0.071-1.248,0.215c-0.399,0.143-0.741,0.34-1.027,0.591l-0.416-0.688
			c0.347-0.295,0.763-0.522,1.248-0.683s0.997-0.24,1.534-0.24C137.152,275.749,137.837,275.972,138.314,276.418z M137.274,281.618
			c0.373-0.238,0.65-0.583,0.832-1.033v-1.118h-2.145c-1.17,0-1.755,0.407-1.755,1.222c0,0.399,0.152,0.713,0.455,0.942
			c0.303,0.23,0.728,0.345,1.274,0.345C136.455,281.976,136.901,281.857,137.274,281.618z"/>
		<path d="M147.076,275.801v6.838h-0.923v-6.019h-3.276l-0.091,1.689c-0.069,1.422-0.234,2.514-0.494,3.276
			c-0.26,0.763-0.724,1.144-1.391,1.144c-0.182,0-0.403-0.034-0.663-0.104l0.065-0.793c0.156,0.034,0.264,0.052,0.325,0.052
			c0.355,0,0.624-0.165,0.806-0.494c0.182-0.329,0.303-0.736,0.364-1.222s0.112-1.127,0.156-1.924l0.117-2.444H147.076z"/>
		<path d="M154.596,278.791c0.446,0.372,0.669,0.909,0.669,1.611c0,0.729-0.24,1.287-0.722,1.678
			c-0.481,0.39-1.176,0.58-2.086,0.571l-2.756-0.013v-6.838h0.923v2.392l2.015,0.026
			C153.498,278.228,154.15,278.418,154.596,278.791z M153.842,281.567c0.325-0.265,0.487-0.652,0.487-1.164
			c0-0.502-0.16-0.875-0.481-1.117c-0.321-0.243-0.802-0.369-1.443-0.378l-1.781-0.025v3.042l1.781,0.025
			C153.038,281.958,153.517,281.831,153.842,281.567z"/>
		<path d="M157.021,275.801h0.923v3.029h4.303v-3.029h0.923v6.838h-0.923v-3.016h-4.303v3.016h-0.923V275.801z"/>
		<path d="M171.047,275.801v6.838h-0.845v-2.262h-2.145h-0.26l-1.586,2.262h-1.001l1.703-2.392
			c-0.529-0.147-0.936-0.399-1.222-0.755c-0.286-0.354-0.429-0.806-0.429-1.352c0-0.763,0.26-1.343,0.78-1.742
			c0.52-0.398,1.23-0.598,2.132-0.598H171.047z M168.135,279.688h2.067v-3.067H168.2c-1.334,0-2.002,0.516-2.002,1.547
			C166.198,279.181,166.843,279.688,168.135,279.688z"/>
		<path d="M118.528,289.639v9.8h-1.82v-8.274h-2.072v-1.525H118.528z"/>
		<path d="M129.21,297.213h-1.736v2.226h-1.764v-2.226h-5.376v-1.261l4.83-6.313h1.946l-4.55,6.034h3.206v-1.975h1.708v1.975h1.736
			V297.213z"/>
		<path d="M132.178,297.534c0.214,0.215,0.322,0.495,0.322,0.84c0,0.149-0.021,0.307-0.063,0.47s-0.128,0.408-0.259,0.734
			l-0.714,1.975h-1.134l0.56-2.143c-0.206-0.084-0.367-0.217-0.483-0.398c-0.117-0.183-0.175-0.395-0.175-0.638
			c0-0.345,0.107-0.625,0.322-0.84c0.214-0.214,0.485-0.321,0.812-0.321C131.692,297.213,131.963,297.32,132.178,297.534z"/>
		<path d="M135.496,298.984c-0.616-0.396-1.102-0.976-1.456-1.736c-0.355-0.76-0.532-1.663-0.532-2.709
			c0-1.045,0.177-1.948,0.532-2.709c0.354-0.76,0.84-1.339,1.456-1.735s1.316-0.596,2.1-0.596c0.784,0,1.486,0.199,2.107,0.596
			s1.108,0.976,1.463,1.735c0.354,0.761,0.532,1.664,0.532,2.709c0,1.046-0.178,1.949-0.532,2.709
			c-0.355,0.761-0.842,1.34-1.463,1.736s-1.323,0.595-2.107,0.595C136.812,299.578,136.112,299.38,135.496,298.984z
			 M139.254,297.129c0.406-0.579,0.609-1.442,0.609-2.591c0-1.147-0.203-2.011-0.609-2.59c-0.406-0.578-0.959-0.868-1.659-0.868
			c-0.691,0-1.239,0.29-1.645,0.868c-0.406,0.579-0.609,1.442-0.609,2.59c0,1.148,0.203,2.012,0.609,2.591
			c0.406,0.578,0.954,0.867,1.645,0.867C138.295,297.996,138.849,297.707,139.254,297.129z"/>
	</g>
	<g>
		<path d="M581.146,282.119c-0.724-0.399-1.291-0.951-1.703-1.658c-0.411-0.706-0.617-1.497-0.617-2.372s0.206-1.666,0.617-2.373
			c0.412-0.706,0.981-1.259,1.71-1.657c0.728-0.398,1.542-0.598,2.444-0.598c0.676,0,1.3,0.112,1.872,0.338
			c0.571,0.226,1.057,0.555,1.455,0.988l-0.61,0.61c-0.711-0.719-1.608-1.079-2.691-1.079c-0.72,0-1.373,0.165-1.963,0.494
			c-0.59,0.33-1.051,0.78-1.385,1.353c-0.333,0.571-0.5,1.213-0.5,1.924s0.167,1.352,0.5,1.924c0.334,0.572,0.795,1.022,1.385,1.352
			c0.59,0.33,1.243,0.494,1.963,0.494c1.092,0,1.989-0.363,2.691-1.092l0.61,0.611c-0.398,0.434-0.886,0.765-1.462,0.994
			s-1.202,0.345-1.879,0.345C582.683,282.717,581.87,282.518,581.146,282.119z"/>
		<path d="M594.829,275.801v6.838h-0.923v-6.019h-4.29v6.019h-0.923v-6.838H594.829z"/>
		<path d="M601.861,276.418c0.477,0.446,0.715,1.107,0.715,1.982v4.238h-0.884v-1.066c-0.208,0.355-0.514,0.633-0.916,0.832
			c-0.403,0.2-0.882,0.3-1.437,0.3c-0.763,0-1.37-0.183-1.82-0.547c-0.45-0.363-0.676-0.845-0.676-1.442
			c0-0.581,0.21-1.049,0.63-1.404c0.421-0.355,1.09-0.533,2.009-0.533h2.171v-0.416c0-0.589-0.164-1.037-0.494-1.345
			c-0.329-0.308-0.81-0.462-1.442-0.462c-0.434,0-0.85,0.071-1.248,0.215c-0.398,0.143-0.741,0.34-1.027,0.591l-0.416-0.688
			c0.347-0.295,0.763-0.522,1.248-0.683s0.997-0.24,1.534-0.24C600.7,275.749,601.385,275.972,601.861,276.418z M600.821,281.618
			c0.373-0.238,0.65-0.583,0.832-1.033v-1.118h-2.145c-1.17,0-1.755,0.407-1.755,1.222c0,0.399,0.151,0.713,0.455,0.942
			c0.303,0.23,0.728,0.345,1.273,0.345C600.003,281.976,600.449,281.857,600.821,281.618z"/>
		<path d="M610.624,275.801v6.838h-0.923v-6.019h-3.276l-0.091,1.689c-0.069,1.422-0.234,2.514-0.494,3.276
			s-0.724,1.144-1.392,1.144c-0.182,0-0.402-0.034-0.662-0.104l0.064-0.793c0.156,0.034,0.265,0.052,0.325,0.052
			c0.355,0,0.624-0.165,0.806-0.494c0.183-0.329,0.304-0.736,0.364-1.222s0.112-1.127,0.156-1.924l0.117-2.444H610.624z"/>
		<path d="M618.144,278.791c0.446,0.372,0.67,0.909,0.67,1.611c0,0.729-0.24,1.287-0.722,1.678c-0.48,0.39-1.177,0.58-2.086,0.571
			l-2.756-0.013v-6.838h0.923v2.392l2.015,0.026C617.046,278.228,617.697,278.418,618.144,278.791z M617.39,281.567
			c0.325-0.265,0.488-0.652,0.488-1.164c0-0.502-0.161-0.875-0.481-1.117c-0.32-0.243-0.802-0.369-1.443-0.378l-1.78-0.025v3.042
			l1.78,0.025C616.586,281.958,617.065,281.831,617.39,281.567z"/>
		<path d="M620.569,275.801h0.923v3.029h4.303v-3.029h0.923v6.838h-0.923v-3.016h-4.303v3.016h-0.923V275.801z"/>
		<path d="M634.596,275.801v6.838h-0.846v-2.262h-2.145h-0.26l-1.587,2.262h-1.001l1.703-2.392
			c-0.528-0.147-0.936-0.399-1.222-0.755c-0.286-0.354-0.429-0.806-0.429-1.352c0-0.763,0.26-1.343,0.779-1.742
			c0.521-0.398,1.231-0.598,2.133-0.598H634.596z M631.684,279.688h2.066v-3.067h-2.002c-1.335,0-2.002,0.516-2.002,1.547
			C629.746,279.181,630.392,279.688,631.684,279.688z"/>
		<path d="M582.076,289.639v9.8h-1.82v-8.274h-2.071v-1.525H582.076z"/>
		<path d="M591.414,289.639v1.218l-3.808,8.582h-1.946l3.682-8.26h-3.85v1.666h-1.694v-3.206H591.414z"/>
		<path d="M593.752,297.534c0.215,0.215,0.322,0.495,0.322,0.84c0,0.149-0.021,0.307-0.063,0.47s-0.128,0.408-0.259,0.734
			l-0.714,1.975h-1.135l0.561-2.143c-0.205-0.084-0.366-0.217-0.483-0.398c-0.116-0.183-0.175-0.395-0.175-0.638
			c0-0.345,0.107-0.625,0.322-0.84c0.215-0.214,0.485-0.321,0.812-0.321C593.267,297.213,593.537,297.32,593.752,297.534z"/>
		<path d="M602.432,289.639v1.218l-3.808,8.582h-1.946l3.682-8.26h-3.85v1.666h-1.694v-3.206H602.432z"/>
	</g>
	<g>
		<path d="M125.264,91.877h-2.08v4.173h-0.936v-9.1h0.936v4.082h2.08l3.081-4.082h1.04l-3.38,4.42l3.575,4.68h-1.105L125.264,91.877
			z"/>
		<path d="M136.639,89.212l-3.419,7.657c-0.277,0.642-0.598,1.096-0.962,1.365c-0.364,0.269-0.802,0.403-1.313,0.403
			c-0.33,0-0.637-0.052-0.923-0.156c-0.286-0.104-0.533-0.26-0.741-0.468l0.429-0.689c0.347,0.347,0.763,0.52,1.248,0.52
			c0.312,0,0.579-0.087,0.8-0.26c0.221-0.174,0.427-0.468,0.617-0.884l0.299-0.663l-3.055-6.825h0.962l2.574,5.811l2.574-5.811
			H136.639z"/>
		<path d="M141.969,96.05l-2.171-2.86l-2.184,2.86h-1.04l2.704-3.51l-2.574-3.328h1.04l2.054,2.678l2.054-2.678h1.014l-2.574,3.328
			l2.73,3.51H141.969z"/>
		<path d="M144.53,89.212h0.923v3.029h4.303v-3.029h0.923v6.838h-0.923v-3.016h-4.303v3.016h-0.923V89.212z"/>
		<path d="M158.557,89.212v6.838h-0.845v-2.262h-2.145h-0.26l-1.586,2.262h-1.001l1.703-2.392c-0.529-0.147-0.936-0.398-1.222-0.754
			s-0.429-0.806-0.429-1.352c0-0.763,0.26-1.343,0.78-1.742c0.52-0.398,1.23-0.598,2.132-0.598H158.557z M155.645,93.099h2.067
			v-3.068h-2.002c-1.334,0-2.002,0.516-2.002,1.547C153.708,92.592,154.353,93.099,155.645,93.099z"/>
		<path d="M160.649,92.124h3.406v0.806h-3.406V92.124z"/>
		<path d="M126.863,105.631h-3.913v6.019h-0.923v-6.838h4.836V105.631z"/>
		<path d="M128.93,111.267c-0.529-0.299-0.945-0.713-1.248-1.242c-0.303-0.528-0.455-1.126-0.455-1.794s0.152-1.265,0.455-1.794
			s0.719-0.94,1.248-1.235c0.528-0.294,1.122-0.442,1.781-0.442s1.252,0.147,1.781,0.442c0.528,0.295,0.942,0.707,1.242,1.235
			c0.299,0.529,0.448,1.126,0.448,1.794s-0.149,1.266-0.448,1.794c-0.299,0.529-0.713,0.942-1.242,1.242
			c-0.529,0.299-1.123,0.448-1.781,0.448S129.458,111.566,128.93,111.267z M132.018,110.565c0.386-0.221,0.687-0.535,0.904-0.942
			c0.216-0.407,0.325-0.871,0.325-1.391s-0.108-0.983-0.325-1.391c-0.217-0.407-0.518-0.722-0.904-0.942
			c-0.386-0.221-0.821-0.332-1.307-0.332s-0.921,0.11-1.306,0.332c-0.386,0.221-0.689,0.535-0.91,0.942
			c-0.221,0.408-0.332,0.871-0.332,1.391s0.11,0.984,0.332,1.391s0.524,0.721,0.91,0.942c0.385,0.221,0.821,0.332,1.306,0.332
			S131.632,110.786,132.018,110.565z"/>
		<path d="M137.204,111.273c-0.533-0.294-0.951-0.708-1.254-1.242c-0.303-0.533-0.455-1.133-0.455-1.8s0.152-1.265,0.455-1.794
			s0.722-0.94,1.254-1.235c0.533-0.294,1.138-0.442,1.813-0.442c0.589,0,1.116,0.115,1.58,0.345c0.463,0.229,0.83,0.565,1.099,1.007
			l-0.689,0.468c-0.226-0.338-0.512-0.592-0.858-0.761c-0.347-0.169-0.724-0.253-1.131-0.253c-0.494,0-0.938,0.11-1.333,0.332
			c-0.395,0.221-0.702,0.535-0.923,0.942c-0.221,0.408-0.332,0.871-0.332,1.391c0,0.529,0.11,0.995,0.332,1.397
			s0.528,0.715,0.923,0.936s0.839,0.332,1.333,0.332c0.407,0,0.784-0.083,1.131-0.247c0.346-0.165,0.632-0.416,0.858-0.754
			l0.689,0.468c-0.269,0.442-0.637,0.778-1.105,1.008c-0.468,0.229-0.993,0.344-1.573,0.344
			C138.342,111.715,137.737,111.568,137.204,111.273z"/>
		<path d="M148.157,105.631h-2.587v6.019h-0.923v-6.019h-2.587v-0.819h6.097V105.631z"/>
		<path d="M149.496,104.812h0.923v5.434l4.563-5.434h0.819v6.838h-0.923v-5.434l-4.55,5.434h-0.832V104.812z"/>
		<path d="M158.439,104.812h0.923v3.029h4.303v-3.029h0.923v6.838h-0.923v-3.016h-4.303v3.016h-0.923V104.812z"/>
		<path d="M171.622,105.429c0.476,0.447,0.715,1.107,0.715,1.983v4.238h-0.884v-1.066c-0.208,0.355-0.513,0.633-0.917,0.832
			c-0.403,0.199-0.882,0.299-1.436,0.299c-0.763,0-1.37-0.182-1.82-0.546c-0.451-0.364-0.676-0.845-0.676-1.443
			c0-0.581,0.21-1.049,0.63-1.404c0.42-0.355,1.09-0.533,2.008-0.533h2.171v-0.416c0-0.589-0.165-1.038-0.494-1.346
			c-0.33-0.308-0.811-0.461-1.443-0.461c-0.434,0-0.85,0.071-1.248,0.214c-0.399,0.143-0.741,0.34-1.027,0.592l-0.416-0.689
			c0.347-0.295,0.763-0.522,1.248-0.683s0.997-0.241,1.534-0.241C170.46,104.76,171.145,104.983,171.622,105.429z M170.582,110.63
			c0.373-0.238,0.65-0.583,0.832-1.034v-1.118h-2.145c-1.17,0-1.755,0.407-1.755,1.222c0,0.399,0.152,0.713,0.455,0.943
			s0.728,0.344,1.274,0.344C169.762,110.987,170.208,110.868,170.582,110.63z"/>
		<path d="M180.045,104.812v6.838H179.2v-2.262h-2.145h-0.26l-1.586,2.262h-1.001l1.703-2.392c-0.529-0.147-0.936-0.398-1.222-0.754
			s-0.429-0.806-0.429-1.352c0-0.763,0.26-1.343,0.78-1.742c0.52-0.398,1.23-0.598,2.132-0.598H180.045z M177.133,108.699h2.067
			v-3.068h-2.002c-1.334,0-2.002,0.516-2.002,1.547C175.196,108.192,175.841,108.699,177.133,108.699z"/>
		<path d="M128.428,126.91v1.54h-7.224v-1.218l3.892-3.696c0.439-0.42,0.735-0.786,0.889-1.099c0.154-0.313,0.231-0.623,0.231-0.931
			c0-0.458-0.154-0.807-0.462-1.05c-0.308-0.243-0.761-0.364-1.358-0.364c-0.999,0-1.764,0.341-2.296,1.022l-1.274-0.98
			c0.383-0.513,0.898-0.912,1.547-1.197c0.648-0.284,1.374-0.427,2.177-0.427c1.064,0,1.913,0.252,2.548,0.756
			s0.952,1.19,0.952,2.058c0,0.532-0.112,1.031-0.336,1.498s-0.653,0.999-1.288,1.596l-2.618,2.492H128.428z"/>
		<path d="M135.61,123.249c0.663,0.537,0.994,1.267,0.994,2.191c0,0.588-0.145,1.12-0.434,1.596
			c-0.29,0.476-0.724,0.854-1.302,1.134c-0.579,0.28-1.292,0.42-2.142,0.42c-0.7,0-1.376-0.101-2.03-0.301s-1.204-0.478-1.652-0.833
			l0.77-1.414c0.364,0.299,0.8,0.535,1.309,0.707c0.508,0.173,1.033,0.259,1.575,0.259c0.644,0,1.15-0.133,1.519-0.399
			c0.369-0.266,0.553-0.632,0.553-1.099c0-0.504-0.199-0.884-0.595-1.141c-0.397-0.256-1.076-0.385-2.037-0.385h-2.366l0.504-5.334
			h5.754v1.526h-4.214l-0.21,2.268h0.938C133.925,122.444,134.947,122.712,135.61,123.249z"/>
		<path d="M139.572,126.546c0.214,0.215,0.322,0.495,0.322,0.84c0,0.149-0.021,0.306-0.063,0.469
			c-0.042,0.164-0.128,0.409-0.259,0.735l-0.714,1.974h-1.134l0.56-2.142c-0.206-0.084-0.367-0.217-0.483-0.399
			c-0.117-0.182-0.175-0.395-0.175-0.637c0-0.345,0.107-0.625,0.322-0.84c0.214-0.215,0.485-0.322,0.812-0.322
			C139.086,126.224,139.357,126.331,139.572,126.546z"/>
		<path d="M147.202,123.249c0.663,0.537,0.994,1.267,0.994,2.191c0,0.588-0.145,1.12-0.434,1.596
			c-0.29,0.476-0.724,0.854-1.302,1.134c-0.579,0.28-1.292,0.42-2.142,0.42c-0.7,0-1.376-0.101-2.03-0.301s-1.204-0.478-1.652-0.833
			l0.77-1.414c0.364,0.299,0.8,0.535,1.309,0.707c0.508,0.173,1.033,0.259,1.575,0.259c0.644,0,1.15-0.133,1.519-0.399
			c0.369-0.266,0.553-0.632,0.553-1.099c0-0.504-0.199-0.884-0.595-1.141c-0.397-0.256-1.076-0.385-2.037-0.385h-2.366l0.504-5.334
			h5.754v1.526h-4.214l-0.21,2.268h0.938C145.517,122.444,146.539,122.712,147.202,123.249z"/>
	</g>
	<g>
		<path d="M43.813,219.095h9.1v0.949h-8.268v4.394l3.042,0.104c1.257,0.043,2.269,0.146,3.036,0.306s1.339,0.405,1.716,0.734
			s0.565,0.767,0.565,1.313c0,0.234-0.03,0.477-0.091,0.729l-0.858-0.078c0.035-0.147,0.052-0.291,0.052-0.43
			c0-0.381-0.151-0.69-0.455-0.929c-0.303-0.238-0.773-0.418-1.41-0.54c-0.637-0.121-1.48-0.203-2.529-0.247l-3.9-0.13V219.095z"/>
		<path d="M52.53,215.208c-0.299,0.528-0.713,0.944-1.242,1.248c-0.528,0.303-1.126,0.455-1.794,0.455s-1.265-0.152-1.794-0.455
			c-0.529-0.304-0.94-0.72-1.235-1.248c-0.294-0.528-0.442-1.122-0.442-1.781s0.147-1.252,0.442-1.781
			c0.295-0.528,0.707-0.942,1.235-1.242c0.529-0.299,1.126-0.448,1.794-0.448s1.266,0.149,1.794,0.448
			c0.529,0.299,0.942,0.713,1.242,1.242c0.299,0.529,0.448,1.123,0.448,1.781S52.829,214.68,52.53,215.208z M51.828,212.121
			c-0.221-0.386-0.535-0.687-0.942-0.904c-0.407-0.216-0.871-0.325-1.391-0.325s-0.983,0.108-1.391,0.325
			c-0.407,0.217-0.722,0.518-0.942,0.904c-0.221,0.386-0.332,0.821-0.332,1.307s0.11,0.92,0.332,1.306
			c0.221,0.386,0.535,0.688,0.942,0.91c0.408,0.221,0.871,0.331,1.391,0.331s0.984-0.11,1.391-0.331
			c0.407-0.222,0.721-0.524,0.942-0.91s0.332-0.821,0.332-1.306S52.049,212.506,51.828,212.121z"/>
		<path d="M52.107,201.351h2.457v0.871h-1.651v6.123h1.651v0.871h-2.457v-0.39c-0.026-0.459-0.364-0.771-1.014-0.936
			c-0.65-0.165-1.56-0.277-2.73-0.338l-2.288-0.091v-5.044h6.032V201.351z M50.814,206.954c0.628,0.122,1.06,0.338,1.293,0.65
			v-4.264h-5.213v3.289l1.521,0.078C49.386,206.75,50.186,206.832,50.814,206.954z"/>
		<path d="M49.872,193.564v1.482h3.042v0.923h-3.042v1.482l3.042,2.093v1.105l-3.523-2.457l-3.315,2.262v-1.001l3.003-2.002v-1.482
			h-3.003v-0.923h3.003v-1.482l-3.003-2.015v-1.001l3.328,2.262l3.51-2.457v1.105L49.872,193.564z"/>
		<path d="M46.076,188.819v-0.923h5.434l-5.434-4.563v-0.819h6.838v0.923h-5.434l5.434,4.55v0.832H46.076z"/>
		<path d="M46.076,174.623h6.838v0.845h-2.262v2.145v0.26l2.262,1.586v1.001l-2.392-1.703c-0.147,0.529-0.398,0.936-0.754,1.222
			s-0.806,0.429-1.352,0.429c-0.763,0-1.343-0.26-1.742-0.78c-0.398-0.52-0.598-1.23-0.598-2.132V174.623z M49.962,177.535v-2.067
			h-3.068v2.002c0,1.334,0.516,2.002,1.547,2.002C49.456,179.472,49.962,178.827,49.962,177.535z"/>
	</g>
	<g>
		<path d="M44.523,256.474c0.275,0.396,0.413,0.861,0.413,1.393c0,0.598-0.166,1.12-0.497,1.568c-0.331,0.448-0.8,0.791-1.407,1.029
			c-0.607,0.238-1.312,0.356-2.114,0.356s-1.505-0.118-2.107-0.356s-1.066-0.581-1.393-1.029s-0.49-0.971-0.49-1.568
			c0-0.531,0.135-0.996,0.406-1.393c0.271-0.396,0.658-0.712,1.162-0.945c-0.392-0.214-0.693-0.497-0.903-0.847
			s-0.315-0.754-0.315-1.211c0-0.551,0.151-1.031,0.455-1.442c0.303-0.41,0.73-0.728,1.281-0.951
			c0.551-0.225,1.185-0.337,1.904-0.337c0.728,0,1.367,0.112,1.918,0.337c0.551,0.224,0.98,0.541,1.288,0.951
			c0.308,0.411,0.462,0.892,0.462,1.442c0,0.457-0.107,0.858-0.322,1.204c-0.215,0.346-0.523,0.63-0.924,0.854
			C43.854,255.762,44.248,256.077,44.523,256.474z M42.515,258.973c0.392-0.28,0.588-0.667,0.588-1.162
			c0-0.485-0.196-0.868-0.588-1.147c-0.392-0.28-0.924-0.421-1.596-0.421c-0.672,0-1.199,0.141-1.582,0.421
			c-0.383,0.279-0.574,0.662-0.574,1.147c0,0.495,0.191,0.882,0.574,1.162s0.91,0.42,1.582,0.42
			C41.591,259.393,42.123,259.253,42.515,258.973z M39.568,252.532c-0.332,0.243-0.497,0.584-0.497,1.022
			c0,0.42,0.166,0.754,0.497,1.001c0.331,0.247,0.781,0.371,1.351,0.371c0.579,0,1.036-0.124,1.372-0.371s0.504-0.581,0.504-1.001
			c0-0.438-0.17-0.779-0.511-1.022c-0.341-0.242-0.796-0.363-1.365-0.363S39.899,252.29,39.568,252.532z"/>
		<path d="M48.17,258.777c0.214,0.215,0.322,0.495,0.322,0.84c0,0.149-0.021,0.307-0.063,0.47s-0.128,0.408-0.259,0.734
			l-0.714,1.975h-1.134l0.56-2.143c-0.206-0.084-0.367-0.217-0.483-0.398c-0.117-0.183-0.175-0.395-0.175-0.638
			c0-0.345,0.107-0.625,0.322-0.84c0.214-0.214,0.485-0.321,0.812-0.321C47.685,258.455,47.956,258.563,48.17,258.777z"/>
		<path d="M58.334,258.455h-1.736v2.226h-1.764v-2.226h-5.376v-1.261l4.83-6.313h1.946l-4.55,6.034h3.206v-1.975h1.708v1.975h1.736
			V258.455z"/>
	</g>
	<g>
		<path d="M434.523,171.799h-1.735v2.226h-1.765v-2.226h-5.376v-1.26l4.83-6.314h1.946l-4.55,6.034h3.206v-1.974h1.708v1.974h1.735
			V171.799z"/>
		<path d="M437.491,172.121c0.215,0.215,0.322,0.495,0.322,0.84c0,0.149-0.021,0.306-0.063,0.469
			c-0.042,0.164-0.128,0.409-0.259,0.735l-0.714,1.974h-1.135l0.561-2.142c-0.205-0.084-0.366-0.217-0.483-0.399
			c-0.116-0.182-0.175-0.395-0.175-0.637c0-0.345,0.107-0.625,0.322-0.84s0.485-0.322,0.812-0.322
			C437.006,171.799,437.276,171.906,437.491,172.121z"/>
		<path d="M446.669,169.818c0.275,0.397,0.413,0.861,0.413,1.393c0,0.597-0.166,1.12-0.497,1.568
			c-0.332,0.448-0.801,0.791-1.407,1.029c-0.606,0.238-1.312,0.357-2.114,0.357s-1.505-0.119-2.106-0.357
			c-0.603-0.238-1.066-0.581-1.394-1.029c-0.326-0.448-0.49-0.971-0.49-1.568c0-0.532,0.136-0.996,0.406-1.393
			c0.271-0.396,0.658-0.711,1.162-0.945c-0.392-0.215-0.693-0.497-0.903-0.847s-0.314-0.753-0.314-1.211
			c0-0.551,0.151-1.031,0.455-1.442c0.303-0.411,0.729-0.728,1.281-0.952c0.55-0.224,1.185-0.336,1.903-0.336
			c0.729,0,1.367,0.112,1.918,0.336s0.98,0.542,1.288,0.952c0.309,0.411,0.462,0.891,0.462,1.442c0,0.458-0.107,0.859-0.321,1.204
			c-0.215,0.345-0.523,0.63-0.925,0.854C445.999,169.107,446.394,169.422,446.669,169.818z M444.66,172.317
			c0.392-0.28,0.588-0.667,0.588-1.162c0-0.485-0.196-0.868-0.588-1.148c-0.393-0.28-0.925-0.42-1.597-0.42s-1.199,0.14-1.582,0.42
			c-0.383,0.28-0.574,0.663-0.574,1.148c0,0.495,0.191,0.882,0.574,1.162s0.91,0.42,1.582,0.42S444.268,172.597,444.66,172.317z
			 M441.713,165.877c-0.332,0.243-0.497,0.583-0.497,1.022c0,0.42,0.165,0.754,0.497,1.001c0.331,0.248,0.781,0.371,1.351,0.371
			c0.579,0,1.036-0.124,1.372-0.371c0.336-0.247,0.504-0.581,0.504-1.001c0-0.438-0.17-0.779-0.511-1.022s-0.796-0.364-1.365-0.364
			S442.044,165.634,441.713,165.877z"/>
	</g>
	<g>
		<path d="M457.012,345.772h-1.735v2.226h-1.765v-2.226h-5.376v-1.261l4.83-6.313h1.946l-4.55,6.034h3.206v-1.975h1.708v1.975h1.735
			V345.772z"/>
		<path d="M459.979,346.093c0.215,0.215,0.322,0.495,0.322,0.84c0,0.149-0.021,0.307-0.063,0.47s-0.128,0.408-0.259,0.734
			l-0.714,1.975h-1.135l0.561-2.143c-0.205-0.084-0.366-0.217-0.483-0.398c-0.116-0.183-0.175-0.395-0.175-0.638
			c0-0.345,0.107-0.625,0.322-0.84c0.215-0.214,0.485-0.321,0.812-0.321C459.494,345.772,459.765,345.879,459.979,346.093z"/>
		<path d="M468.659,338.197v1.218l-3.808,8.582h-1.946l3.682-8.26h-3.85v1.666h-1.694v-3.206H468.659z"/>
	</g>
	<g>
		<path d="M346.229,346.457v1.54h-7.224v-1.218l3.892-3.696c0.438-0.42,0.735-0.786,0.89-1.099c0.153-0.313,0.23-0.623,0.23-0.932
			c0-0.457-0.154-0.807-0.462-1.05c-0.308-0.242-0.761-0.364-1.358-0.364c-0.998,0-1.764,0.341-2.296,1.022l-1.273-0.98
			c0.382-0.513,0.897-0.912,1.547-1.196c0.648-0.285,1.374-0.428,2.177-0.428c1.064,0,1.913,0.252,2.548,0.757
			c0.635,0.504,0.952,1.189,0.952,2.058c0,0.532-0.112,1.031-0.336,1.498s-0.653,0.999-1.288,1.596l-2.618,2.492H346.229z"/>
		<path d="M349.338,346.093c0.215,0.215,0.322,0.495,0.322,0.84c0,0.149-0.021,0.307-0.063,0.47s-0.128,0.408-0.259,0.734
			l-0.714,1.975h-1.135l0.561-2.143c-0.205-0.084-0.366-0.217-0.483-0.398c-0.116-0.183-0.175-0.395-0.175-0.638
			c0-0.345,0.107-0.625,0.322-0.84c0.215-0.214,0.485-0.321,0.812-0.321C348.853,345.772,349.123,345.879,349.338,346.093z"/>
		<path d="M358.017,338.197v1.218l-3.808,8.582h-1.946l3.682-8.26h-3.85v1.666H350.4v-3.206H358.017z"/>
	</g>
	<g>
		<path d="M388.043,282.233c0.514,0.247,0.915,0.6,1.204,1.057c0.289,0.458,0.435,0.985,0.435,1.582
			c0,0.635-0.159,1.192-0.477,1.673c-0.317,0.481-0.747,0.852-1.288,1.113c-0.541,0.261-1.147,0.392-1.819,0.392
			c-1.345,0-2.388-0.42-3.13-1.26c-0.741-0.84-1.112-2.044-1.112-3.612c0-1.101,0.2-2.041,0.602-2.82s0.964-1.372,1.688-1.778
			c0.723-0.406,1.561-0.609,2.513-0.609c0.504,0,0.978,0.055,1.421,0.161c0.443,0.107,0.828,0.264,1.155,0.47l-0.672,1.371
			c-0.485-0.316-1.106-0.476-1.862-0.476c-0.942,0-1.68,0.289-2.212,0.868s-0.798,1.414-0.798,2.506v0.014
			c0.289-0.336,0.658-0.59,1.105-0.763c0.448-0.173,0.952-0.259,1.513-0.259C386.951,281.861,387.53,281.986,388.043,282.233z
			 M387.386,286.166c0.354-0.303,0.531-0.707,0.531-1.211c0-0.513-0.177-0.919-0.531-1.218c-0.355-0.299-0.831-0.448-1.429-0.448
			c-0.588,0-1.066,0.159-1.435,0.477c-0.369,0.317-0.553,0.719-0.553,1.203c0,0.477,0.179,0.871,0.538,1.184
			s0.856,0.469,1.491,0.469C386.568,286.621,387.03,286.47,387.386,286.166z"/>
		<path d="M392.691,286.005c0.215,0.215,0.322,0.495,0.322,0.84c0,0.149-0.021,0.307-0.063,0.47s-0.128,0.408-0.259,0.734
			l-0.714,1.975h-1.135l0.561-2.143c-0.205-0.084-0.366-0.217-0.483-0.398c-0.116-0.183-0.175-0.395-0.175-0.638
			c0-0.345,0.107-0.625,0.322-0.84c0.215-0.214,0.485-0.321,0.812-0.321C392.206,285.684,392.477,285.791,392.691,286.005z"/>
		<path d="M401.427,286.369v1.54h-7.224v-1.218l3.892-3.696c0.438-0.42,0.735-0.786,0.89-1.099c0.153-0.313,0.23-0.623,0.23-0.932
			c0-0.457-0.154-0.807-0.462-1.05c-0.308-0.242-0.761-0.364-1.358-0.364c-0.998,0-1.764,0.341-2.296,1.022l-1.273-0.98
			c0.382-0.513,0.897-0.912,1.547-1.196c0.648-0.285,1.374-0.428,2.177-0.428c1.064,0,1.913,0.252,2.548,0.757
			c0.635,0.504,0.952,1.189,0.952,2.058c0,0.532-0.112,1.031-0.336,1.498s-0.653,0.999-1.288,1.596l-2.618,2.492H401.427z"/>
	</g>
</g>
<g>
</g>
<g>
</g>
<g>
</g>
<g>
</g>
<g>
</g>
<g>
</g>
</svg>
