<svg id="Слой_1" data-name="Слой 1" xmlns="http://www.w3.org/2000/svg" viewBox="0 0 161.83099 137.55652"><title>2.09.02</title><polygon points="3.655 137.557 3.655 67.998 0.303 67.998 0.303 0.083 161.831 0.083 161.831 77.194 156.482 77.194 156.482 137.557 3.655 137.557" style="fill:#fff;fill-rule:evenodd"/><path d="M179.22929,152.22559l.6927-.87128v-.17862h-1.57489v.22391H179.6l-.67891.85071v.18539h.1749c.45531,0,.66161.19241.66161.48639,0,.30441-.22389.4935-.62979.4935a1.07394,1.07394,0,0,1-.7597-.28348l-.1225.19958a1.2747,1.2747,0,0,0,.8822.31491c.59129,0,.88889-.31491.88889-.72452,0-.392-.2625-.6684-.7874-.6965m-2.4957,1.17612.8331-.81891a1.00793,1.00793,0,0,0,.4026-.76651c0-.40958-.315-.66159-.81219-.66159a1.10077,1.10077,0,0,0-.8679.3501l.1785.1539a.83238.83238,0,0,1,.6685-.273c.3744,0,.574.1749.574.45837,0,.16812-.05251.33252-.32881.6055l-1.01849.99753v.17859h1.71831v-.224Zm-.9099-.14a.18317.18317,0,0,0-.18539.18912.17673.17673,0,0,0,.1259.17828l-.11911.5076h.16811l.14709-.483a.57391.57391,0,0,0,.0491-.20288A.18323.18323,0,0,0,175.8237,153.26169Zm-.49319-.504h-.49011v-.56689h-.24489v.56689H173.5313l1.253-1.582h-.2798l-1.2986,1.6239v.182h1.38249v.6441h.252v-.6441h.49011Z" transform="translate(-127.823 -143.77869)" style="fill:#434242"/><path d="M219.1277,274.1658c-.4268,0-.7211-.3605-.7211-1.0148,0-.6545.2943-1.015.7211-1.015s.7209.3605.7209,1.015c0,.6543-.294,1.0148-.7209,1.0148m0,.23109c.567,0,.98-.4655.98-1.2459,0-.78061-.413-1.24611-.98-1.24611s-.9765.4655-.9765,1.24611C218.1512,273.9314,218.56081,274.3969,219.1277,274.3969Zm-2.317-.23109c-.4269,0-.7211-.3605-.7211-1.0148,0-.6545.2942-1.015.7211-1.015s.7209.3605.7209,1.015C217.5316,273.8053,217.23759,274.1658,216.8107,274.1658Zm0,.23109c.56689,0,.9799-.4655.9799-1.2459,0-.78061-.413-1.24611-.9799-1.24611s-.9765.4655-.9765,1.24611C215.8342,273.9314,216.2438,274.3969,216.8107,274.3969Zm-1.48759-.385a.18317.18317,0,0,0-.18541.1891.17666.17666,0,0,0,.1259.1783l-.11909.50769h.16811l.14709-.483a.5745.5745,0,0,0,.0491-.203A.18321.18321,0,0,0,215.3231,274.0119Zm-1.52931-1.08141h-.3149l.08391-.7807h1.11989v-.22389h-1.3405l-.12579,1.2285h.5213c.623,0,.8192.19589.8192.51109,0,.29741-.2206.50031-.63721.50031a1.06166,1.06166,0,0,1-.7524-.2834l-.12239.19949a1.26438,1.26438,0,0,0,.87839.315c.5984,0,.889-.32539.889-.7419C214.8123,273.22079,214.5322,272.9305,213.79379,272.9305Z" transform="translate(-127.823 -143.77869)" style="fill:#434242"/><path d="M148.14771,273.1788c-.3779,0-.616-.2063-.616-.5284a.53632.53632,0,0,1,.59871-.532c.42349,0,.6474.25571.6474.525a.56705.56705,0,0,1-.6301.5354m-.0278-1.27391a.76324.76324,0,0,0-.8365.75261.7416.7416,0,0,0,.826.7348.78278.78278,0,0,0,.7489-.4198c.0071.07339.0105.1434.0105.19949,0,.665-.3396,1.0043-.868,1.0043a.85882.85882,0,0,1-.47589-.1153l-.1015.2029a1.12391,1.12391,0,0,0,.5808.133c.665,0,1.12-.434,1.12-1.26709C149.12421,272.35651,148.77071,271.90489,148.1199,271.90489Zm-2.177.021v.22389h.57739v2.2261h.252v-2.45Zm-.3569,2.086a.18316.18316,0,0,0-.18539.1891.17666.17666,0,0,0,.1259.1783l-.11911.50769h.16811l.14709-.483a.57417.57417,0,0,0,.0491-.203A.18321.18321,0,0,0,145.586,274.0119Zm-1.6064-2.086v.22389h.57741v2.2261h.252v-2.45Z" transform="translate(-127.823 -143.77869)" style="fill:#434242"/><path d="M257.07541,182.6655c-.42691,0-.7211-.3606-.7211-1.0148,0-.6546.29419-1.01509.7211-1.01509s.72089.36049.72089,1.01509c0,.65421-.294,1.0148-.72089,1.0148m0,.231c.567,0,.98-.4655.98-1.2458,0-.7807-.413-1.24609-.98-1.24609s-.9765.46539-.9765,1.24609C256.09891,182.431,256.50851,182.8965,257.07541,182.8965Zm-2.317-1.21809c-.37791,0-.616-.2063-.616-.52831a.53634.53634,0,0,1,.59871-.5321c.42349,0,.6474.25571.6474.525A.56705.56705,0,0,1,254.75841,181.67841Zm-.0278-1.2738a.76317.76317,0,0,0-.8365.75259.74158.74158,0,0,0,.826.73471.78249.78249,0,0,0,.7489-.4198c.00711.07339.01051.14339.01051.19949,0,.665-.33961,1.00439-.8679,1.00439a.85929.85929,0,0,1-.476-.1154l-.1015.20291a1.12439,1.12439,0,0,0,.5809.133c.665,0,1.11989-.434,1.11989-1.26711C255.73489,180.85609,255.38139,180.4046,254.73061,180.4046Zm-1.31271,2.1069a.18316.18316,0,0,0-.18539.18909.17668.17668,0,0,0,.1259.17831l-.11909.50769h.16809l.14711-.483a.57436.57436,0,0,0,.0491-.203A.18327.18327,0,0,0,253.41789,182.51151Zm-1.8902.14009.83321-.819a1.00756,1.00756,0,0,0,.4025-.7664c0-.40959-.315-.66159-.81219-.66159a1.10107,1.10107,0,0,0-.8679.35l.1786.154a.832.832,0,0,1,.6684-.273c.3744,0,.574.1749.574.4583,0,.16809-.05251.3325-.3288.6055l-1.01851.9975v.1786h1.71831v-.22391Z" transform="translate(-127.823 -143.77869)" style="fill:#434242"/><line x1="44.1198" y1="8.68701" x2="8.4628" y2="8.68701" style="fill:none;stroke:#b1b2b2;stroke-miterlimit:22.92558479309082;stroke-width:0.2160000056028366px"/><line x1="84.1198" y1="129.43732" x2="40.68001" y2="129.43732" style="fill:none;stroke:#b1b2b2;stroke-miterlimit:22.92558479309082;stroke-width:0.2160000056028366px"/><line x1="14.1199" y1="129.43732" x2="7.37151" y2="129.43732" style="fill:none;stroke:#b1b2b2;stroke-miterlimit:22.92558479309082;stroke-width:0.2160000056028366px"/><line x1="122.1199" y1="37.93692" x2="99.6808" y2="37.93692" style="fill:none;stroke:#b1b2b2;stroke-miterlimit:22.92558479309082;stroke-width:0.2160000056028366px"/><line x1="92.30591" y1="8.68701" x2="53.5589" y2="8.68701" style="fill:none;stroke:#b1b2b2;stroke-miterlimit:22.92558479309082;stroke-width:0.2160000056028366px"/><line x1="150.0567" y1="129.43732" x2="93.5589" y2="129.43732" style="fill:none;stroke:#b1b2b2;stroke-miterlimit:22.92558479309082;stroke-width:0.2160000056028366px"/><line x1="30.3074" y1="129.43732" x2="23.55901" y2="129.43732" style="fill:none;stroke:#b1b2b2;stroke-miterlimit:22.92558479309082;stroke-width:0.2160000056028366px"/><line x1="154.43121" y1="37.93692" x2="131.55899" y2="37.93692" style="fill:none;stroke:#b1b2b2;stroke-miterlimit:22.92558479309082;stroke-width:0.2160000056028366px"/><path d="M263.22211,243.77049c0,.42351-.2554.64771-.525.64771a.5673.5673,0,0,1-.53552-.6301c0-.3779.20642-.616.52841-.616a.53611.53611,0,0,1,.5321.59839m-1.2739-.021a.78343.78343,0,0,0,.4198.74921c-.07343.00679-.1434.0105-.19962.0105-.6647,0-1.0043-.3396-1.0043-.868a.8608.8608,0,0,1,.11542-.47621l-.203-.1015a1.12589,1.12589,0,0,0-.1329.5811c0,.6651.434,1.12,1.26709,1.12.77332,0,1.22479-.3535,1.22479-1.00461a.76333.76333,0,0,0-.75259-.8365A.74173.74173,0,0,0,261.94821,243.7495Zm.59839,1.2459v.49011h-.56689v.24489h.56689v1.0641l-1.582-1.2529v.2798l1.6239,1.29851h.182v-1.3824h.6441v-.252h-.6441v-.49011Zm.504,2.58661a.18316.18316,0,0,0,.18909.18539.17684.17684,0,0,0,.17831-.1259l.5076.11911v-.16811l-.483-.1472a.57529.57529,0,0,0-.20291-.049A.1832.1832,0,0,0,263.0506,247.582Zm.14,1.89011-.81891-.83311a1.00778,1.00778,0,0,0-.76651-.4025c-.40961,0-.66159.31491-.66159.8121a1.101,1.101,0,0,0,.3501.868l.1539-.17859a.83206.83206,0,0,1-.273-.66841c0-.3745.1749-.574.4584-.574.16809,0,.33252.0524.6055.3288l.9975,1.01849h.17862v-1.7184h-.224Z" transform="translate(-127.823 -143.77869)" style="fill:#434242"/><path d="M173.1487,249.535c0,.4269-.3606.72119-1.0148.72119-.6546,0-1.01509-.2943-1.01509-.72119s.36049-.72081,1.01509-.72081c.65421,0,1.0148.2939,1.0148.72081m.231,0c0-.56691-.4655-.9799-1.2458-.9799-.7807,0-1.2462.413-1.2462.9799s.4655.97659,1.2462.97659C172.9142,250.5116,173.3797,250.102,173.3797,249.535Zm-.2449,2.6252-.819-.8331a1.00756,1.00756,0,0,0-.7664-.4025c-.4097,0-.6617.3149-.6617.81209a1.10136,1.10136,0,0,0,.3501.868l.1539-.1786a.83228.83228,0,0,1-.27289-.6684c0-.37451.1749-.574.4583-.574.16809,0,.3325.0524.6055.3288l.9975,1.01851h.1786v-1.7184h-.22391Zm-.14009.9099a.18316.18316,0,0,0,.1891.18539.1767.1767,0,0,0,.1783-.12579l.50769.119v-.16811l-.483-.14709a.57372.57372,0,0,0-.203-.049A.18318.18318,0,0,0,172.99471,253.0701Zm-1.036,1.3334-.8714-.6927h-.17859v1.57491h.224v-1.2529l.8506.67889h.18539v-.1749c0-.45531.1925-.66161.4864-.66161.30449,0,.49359.22391.49359.62981a1.07434,1.07434,0,0,1-.28349.75969l.1996.12251a1.27522,1.27522,0,0,0,.3149-.8822c0-.59131-.3149-.8889-.72459-.8889C172.26311,253.6161,171.98669,253.8786,171.95869,254.4035Z" transform="translate(-127.823 -143.77869)" style="fill:#434242"/><path d="M138.1657,235.83949c0,.4234-.2554.64771-.5249.64771a.56727.56727,0,0,1-.53549-.6302c0-.37779.20641-.61589.5284-.61589a.536.536,0,0,1,.532.59839m-1.2739-.021a.78363.78363,0,0,0,.41991.74921c-.0735.00679-.14351.0105-.1996.0105-.6647,0-1.0043-.3396-1.0043-.868a.86057.86057,0,0,1,.1153-.47621l-.2029-.1015a1.1258,1.1258,0,0,0-.133.5811c0,.665.434,1.12,1.26709,1.12.7733,0,1.2249-.3535,1.2249-1.00461a.76334.76334,0,0,0-.75259-.8365A.74171.74171,0,0,0,136.8918,235.8185Zm.2693,2.35561c0,.37779-.2063.61589-.52831.61589a.53629.53629,0,0,1-.5321-.59859c0-.42351.25571-.64751.525-.64751A.56709.56709,0,0,1,137.1611,238.1741Zm-1.2739.02769a.76317.76317,0,0,0,.75259.8365.7416.7416,0,0,0,.7348-.826.78278.78278,0,0,0-.4198-.7489c.07339-.0071.1434-.0105.19949-.0105.665,0,1.0043.3396,1.0043.868a.85884.85884,0,0,1-.1153.47591l.2029.1015a1.12391,1.12391,0,0,0,.133-.5808c0-.665-.434-1.12-1.26709-1.12C136.33881,237.19749,135.88721,237.551,135.88721,238.2018Zm2.107,1.31281a.18317.18317,0,0,0,.1891.18539.17675.17675,0,0,0,.1783-.1259l.50769.11911v-.16811l-.483-.1472a.5759.5759,0,0,0-.203-.049A.18321.18321,0,0,0,137.9942,239.5146Zm.14009,1.89009-.819-.8331a1.0076,1.0076,0,0,0-.7664-.4025c-.4097,0-.6617.3149-.6617.8121a1.1013,1.1013,0,0,0,.3501.868l.1539-.1786a.83225.83225,0,0,1-.2729-.6684c0-.3745.1749-.574.4583-.574.16811,0,.3325.05241.6055.32881l.9975,1.01849h.1786v-1.7184h-.22391Z" transform="translate(-127.823 -143.77869)" style="fill:#434242"/><path d="M141.1347,177.16541l-.81891-.8331a1.00773,1.00773,0,0,0-.76649-.40251c-.40961,0-.66161.31491-.66161.8121a1.10133,1.10133,0,0,0,.3501.868l.1539-.17859a.832.832,0,0,1-.273-.66841c0-.3745.1749-.574.4584-.574.16809,0,.3325.0524.6055.3288l.9975,1.01849h.1786v-1.7184h-.224Zm-2.226,1.73929h.22389v-.57739h2.2261v-.252h-2.45Zm2.086.3569a.18317.18317,0,0,0,.1891.18541.17672.17672,0,0,0,.1783-.12581l.50769.119v-.16811l-.48309-.14709a.5729.5729,0,0,0-.2029-.049A.18318.18318,0,0,0,140.99471,179.2616Zm-1.0361,1.3334-.87131-.6927h-.17859v1.57491h.22389v-1.2529l.85071.67889h.18539v-.1749c0-.45531.1925-.66161.4864-.66161.30449,0,.4935.22391.4935.62981a1.07427,1.07427,0,0,1-.2834.75969l.19949.12251a1.27477,1.27477,0,0,0,.315-.8822c0-.59131-.315-.8889-.72459-.8889C140.26311,179.8076,139.98669,180.0701,139.9586,180.595Z" transform="translate(-127.823 -143.77869)" style="fill:#434242"/><path d="M246.6488,166.0108c0,.42691-.36061.7211-1.0148.7211-.6546,0-1.01511-.29419-1.01511-.7211s.3605-.72092,1.01511-.72092c.65419,0,1.0148.294,1.0148.72092m.231,0c0-.56689-.4655-.97989-1.2458-.97989-.7807,0-1.2462.413-1.2462.97989s.4655.9765,1.2462.9765C246.41431,166.9873,246.87981,166.5777,246.87981,166.0108Zm-.2135,2.2785c0,.434-.189.68939-.4935.68939-.301,0-.49011-.2554-.49011-.68939s.1891-.69312.49011-.69312C246.47729,167.59619,246.66631,167.85529,246.66631,168.28931Zm-1.6239.6055c-.273,0-.4411-.2348-.4411-.6055,0-.36771.16809-.60922.4445-.60922.2661,0,.43759.2276.43759.60922C245.4834,168.6705,245.3119,168.89481,245.0424,168.89481Zm.532-1.07809a.55485.55485,0,0,0-.53911-.392c-.3989,0-.64749.34637-.64749.86459,0,.51788.2486.85748.64749.85748a.553.553,0,0,0,.53911-.38528.611.611,0,0,0,.60179.4726c.434,0,.70361-.3569.70361-.94479,0-.5845-.26961-.95221-.70361-.95221A.617.617,0,0,0,245.5744,167.81671Zm.92039,1.988a.18317.18317,0,0,0,.1891.18539.17675.17675,0,0,0,.1783-.1259l.50771.11911v-.16811l-.483-.1472a.57583.57583,0,0,0-.203-.049A.18322.18322,0,0,0,246.4948,169.8047Zm-2.086,1.6064h.224v-.57741h2.226v-.252h-2.45Z" transform="translate(-127.823 -143.77869)" style="fill:#434242"/><path d="M276.7088,198.7589l-.8714-.69279h-.17859V199.641h.22388v-1.25291l.85071.67891h.18539v-.1749c0-.4552.1925-.66161.48642-.66161.30447,0,.4935.22391.4935.6299a1.074,1.074,0,0,1-.28342.7596l.19949.1225a1.27463,1.27463,0,0,0,.315-.8821c0-.59129-.315-.889-.72458-.889-.392,0-.66843.2625-.69641.78749m.532,1.0114v.49011h-.56692v.24489h.56692v1.0641l-1.582-1.2529v.2798l1.624,1.2986h.182v-1.38249h.644v-.252h-.644v-.49011Zm.504,2.58661a.18315.18315,0,0,0,.18909.18539.17681.17681,0,0,0,.17831-.1259l.50769.11909v-.16809l-.483-.14709a.57409.57409,0,0,0-.203-.0491A.1832.1832,0,0,0,277.74481,202.3569Zm-2.086,1.6064h.22388v-.57741h2.2261v-.252h-2.45Z" transform="translate(-127.823 -143.77869)" style="fill:#434242"/><line x1="134.43359" y1="107.30292" x2="134.43359" y2="131.74152" style="fill:none;stroke:#b1b2b2;stroke-miterlimit:22.92558479309082;stroke-width:0.2160000056028366px"/><line x1="44.37581" y1="112.80301" x2="44.37581" y2="131.49271" style="fill:none;stroke:#b1b2b2;stroke-miterlimit:22.92558479309082;stroke-width:0.2160000056028366px"/><line x1="9.37531" y1="99.30362" x2="9.37531" y2="131.24152" style="fill:none;stroke:#b1b2b2;stroke-miterlimit:22.92558479309082;stroke-width:0.2160000056028366px"/><line x1="12.3757" y1="39.55292" x2="12.3757" y2="64.11681" style="fill:none;stroke:#b1b2b2;stroke-miterlimit:22.92558479309082;stroke-width:0.2160000056028366px"/><line x1="117.8759" y1="29.05281" x2="117.8759" y2="39.49202" style="fill:none;stroke:#b1b2b2;stroke-miterlimit:22.92558479309082;stroke-width:0.2160000056028366px"/><line x1="149.12592" y1="61.80292" x2="149.12592" y2="68.55132" style="fill:none;stroke:#b1b2b2;stroke-miterlimit:22.92558479309082;stroke-width:0.2160000056028366px"/><line x1="134.43161" y1="84.74451" x2="134.43161" y2="97.86382" style="fill:none;stroke:#b1b2b2;stroke-miterlimit:22.92558479309082;stroke-width:0.2160000056028366px"/><line x1="44.37581" y1="68.99242" x2="44.37581" y2="103.36391" style="fill:none;stroke:#b1b2b2;stroke-miterlimit:22.92558479309082;stroke-width:0.2160000056028366px"/><line x1="9.37531" y1="74.36632" x2="9.37531" y2="89.86452" style="fill:none;stroke:#b1b2b2;stroke-miterlimit:22.92558479309082;stroke-width:0.2160000056028366px"/><line x1="12.3757" y1="5.24182" x2="12.3757" y2="30.11382" style="fill:none;stroke:#b1b2b2;stroke-miterlimit:22.92558479309082;stroke-width:0.2160000056028366px"/><line x1="117.8759" y1="4.52432" x2="117.8759" y2="19.61371" style="fill:none;stroke:#b1b2b2;stroke-miterlimit:22.92558479309082;stroke-width:0.2160000056028366px"/><line x1="149.12592" y1="45.61542" x2="149.12592" y2="52.36382" style="fill:none;stroke:#b1b2b2;stroke-miterlimit:22.92558479309082;stroke-width:0.2160000056028366px"/><path d="M260.6272,220.1925h2.77521V217.014H260.6272Zm8.90649,3.89049h2.77512v-7.069h-2.77512Zm-4.4252,0h2.77521v-7.069h-2.77521Zm-4.48129,0h2.77521V220.9046H260.6272Zm11.90869-8.4563H260.16861v-.7126h-1.76682V226.8766H278.206v-2.4375h-.01871v-9.525h-5.6514Z" transform="translate(-127.823 -143.77869)" style="fill:#003915;fill-rule:evenodd"/><path d="M260.28339,186.6581a.374.374,0,0,0-.37469-.64749l-13.92009,8.0399a.374.374,0,1,0,.37469.64749Z" transform="translate(-127.823 -143.77869)" style="fill:#003915"/><path d="M163.1608,221.4601a.374.374,0,0,0-.6474.3748l8.0399,13.9201a.374.374,0,0,0,.6474-.3748Z" transform="translate(-127.823 -143.77869)" style="fill:#003915"/><rect x="93.069" width="2.6022" height="45.96912" style="fill:#003915"/><rect x="96.05251" width="2.6022" height="41.99472" style="fill:#003915"/><rect x="117.13631" y="134.52602" width="2.60219" height="2.94749" style="fill:#003915"/><rect x="127.2821" y="134.52602" width="2.6022" height="2.94749" style="fill:#003915"/><rect x="117.0739" y="70.48711" width="34.75731" height="2.6022" style="fill:#003915"/><rect x="132.32071" y="40.29451" width="29.37448" height="2.6022" style="fill:#003915"/><rect x="93.069" y="40.29451" width="22.9697" height="2.6022" style="fill:#003915"/><rect x="5.58281" width="156.11238" height="4.388" style="fill:#003915"/><polygon points="161.695 132.515 161.695 137.474 0.176 137.474 0.176 132.472 156.18 132.472 156.18 132.515 161.695 132.515" style="fill:#003915;fill-rule:evenodd"/><polygon points="155.27 137.474 155.27 132.472 156.18 132.472 156.18 132.515 161.695 132.515 161.695 137.474 155.27 137.474" style="fill:#003915;fill-rule:evenodd"/><polygon points="161.695 77.111 156.18 77.111 155.27 77.111 155.27 62.534 161.695 62.534 161.695 77.111" style="fill:#003915;fill-rule:evenodd"/><rect x="155.26971" width="6.42548" height="41.27242" style="fill:#003915"/><polygon points="156.18 134.577 149.754 134.577 149.754 70.487 156.18 70.487 156.18 77.111 156.18 132.515 156.18 134.577" style="fill:#003915;fill-rule:evenodd"/><rect y="65.31871" width="39.34311" height="8.1601" style="fill:#003915"/><rect width="8.1601" height="20.79382" style="fill:#003915"/><rect y="50.74892" width="8.1601" height="22.66409" style="fill:#003915"/><rect x="31.183" y="134.58582" width="8.16011" height="2.8877" style="fill:#003915"/><rect x="31.183" y="107.76331" width="8.16011" height="27.44391" style="fill:#003915"/><rect x="31.183" y="67.64851" width="8.16011" height="9.99609" style="fill:#003915"/><rect x="3.00191" y="34.89452" width="2.2986" height="0.50169" style="fill:#003915"/><rect x="3.00191" y="33.69621" width="2.2986" height="0.50121" style="fill:#003915"/><rect x="3.00191" y="21.05881" width="2.2986" height="0.5015" style="fill:#003915"/><rect x="3.00191" y="19.86063" width="2.2986" height="0.50119" style="fill:#003915"/><rect x="3.00191" y="49.00621" width="2.2986" height="0.50171" style="fill:#003915"/><rect x="3.00191" y="47.80821" width="2.2986" height="0.50121" style="fill:#003915"/><rect y="17.8038" width="0.5014" height="34.0937" style="fill:#003915"/><rect x="2.84711" y="17.8038" width="0.50139" height="34.0937" style="fill:#003915"/><rect x="5.0184" y="17.8038" width="0.5015" height="34.0937" style="fill:#003915"/><rect x="7.6595" y="17.8038" width="0.5014" height="34.0937" style="fill:#003915"/><path d="M162.3546,240.50439h1.66991v-.697H162.3546Zm0,13.5692h1.66991V241.00591H162.3546Zm0,1.19821h1.66991v-.697H162.3546Zm1.66991.50169H162.3546v5.7895h-.5014V239.8074h-2.34569V261.563H159.006V239.3062h8.161V261.563h-.50151V239.8074H164.526v18.0519h-.5015Z" transform="translate(-127.823 -143.77869)" style="fill:#003915;fill-rule:evenodd"/><rect x="4.1351" y="112.08841" width="1.2972" height="0.44701" style="fill:#003915"/><rect x="4.1351" y="111.02061" width="1.2972" height="0.4467" style="fill:#003915"/><rect x="4.1351" y="93.48631" width="1.2972" height="0.44701" style="fill:#003915"/><rect x="4.1351" y="92.41852" width="1.2972" height="0.4467" style="fill:#003915"/><rect x="4.1351" y="74.88391" width="1.2972" height="0.4471" style="fill:#003915"/><rect x="4.1351" y="73.81612" width="1.2972" height="0.44679" style="fill:#003915"/><rect x="4.1351" y="130.69072" width="1.2972" height="0.4471" style="fill:#003915"/><rect x="4.1351" y="129.62291" width="1.2972" height="0.44681" style="fill:#003915"/><rect x="2.90581" y="71.74942" width="0.4467" height="60.82129" style="fill:#003915"/><rect x="3.9971" y="71.74942" width="0.4467" height="60.82129" style="fill:#003915"/><rect x="5.0779" y="71.74942" width="0.44681" height="60.82129" style="fill:#003915"/><rect x="4.1351" y="136.78471" width="1.2972" height="0.4467" style="fill:#003915"/><rect x="2.90581" y="134.71791" width="0.4467" height="2.7556" style="fill:#003915"/><rect x="3.9971" y="134.71791" width="0.4467" height="2.7556" style="fill:#003915"/><rect x="5.0779" y="134.71791" width="0.44681" height="2.7556" style="fill:#003915"/><path d="M256.33249,148.22H246.5101a.90525.90525,0,0,0-.9053.904v4.6102a4.59566,4.59566,0,0,0,4.58951,4.591h2.4523a4.59572,4.59572,0,0,0,4.59039-4.591V149.124a.9047.9047,0,0,0-.90451-.904m-6.13818,9.8606a4.35108,4.35108,0,0,1-4.34491-4.3464V149.124a.66151.66151,0,0,1,.66071-.66h9.82239a.66082.66082,0,0,1,.65991.66v4.6102a4.35147,4.35147,0,0,1-4.34579,4.3464Z" transform="translate(-127.823 -143.77869)" style="fill:#003915"/><path d="M250.1946,156.99039a3.25869,3.25869,0,0,1-3.25439-3.2562v-2.68808a.56783.56783,0,0,1,.5672-.5675h3.5753v-.24521h-3.5753a.814.814,0,0,0-.81239.81271v2.68808a3.50405,3.50405,0,0,0,3.49959,3.50079h2.4523a3.5047,3.5047,0,0,0,3.50081-3.50079v-2.68808a.8145.8145,0,0,0-.8136-.81271h-3.5753v.24521h3.5753a.56834.56834,0,0,1,.56839.5675v2.68808a3.25939,3.25939,0,0,1-3.2556,3.2562Z" transform="translate(-127.823 -143.77869)" style="fill:#003915"/><path d="M251.4214,153.38669a.78351.78351,0,1,0,.7838.78351.78472.78472,0,0,0-.7838-.78351m0,1.32242a.53876.53876,0,1,1,.5392-.53891A.53968.53968,0,0,1,251.4214,154.70911Z" transform="translate(-127.823 -143.77869)" style="fill:#003915"/><rect x="123.476" y="9.83282" width="0.2449" height="1.11649" style="fill:#003915"/><rect x="123.04001" y="10.26852" width="1.116" height="0.24539" style="fill:#003915"/><path d="M251.7588,149.40231h.40359a.17364.17364,0,0,1,.1729.17407v.37921a.17359.17359,0,0,1-.1729.1741h-.40359v.2449h.40359a.4187.4187,0,0,0,.41811-.419v-.37921a.41864.41864,0,0,0-.41811-.4187h-.40559l.002.03741Zm-1.07721.72739a.1744.1744,0,0,1-.174-.1741v-.37921a.17445.17445,0,0,1,.174-.17407h.40111v-.20721l.0023-.03741h-.40341a.41864.41864,0,0,0-.4187.4187v.37921a.4187.4187,0,0,0,.4187.419h.40111v-.2449Z" transform="translate(-127.823 -143.77869)" style="fill:#003915"/><path d="M251.4214,148.7348a.46094.46094,0,0,0-.46111.4603v3.08041a.46045.46045,0,0,0,.9209,0V149.1951a.46046.46046,0,0,0-.45979-.4603m0,3.75668a.21665.21665,0,0,1-.2162-.216V149.1951a.21555.21555,0,0,1,.43111,0v3.08041A.21606.21606,0,0,1,251.4214,152.49149Z" transform="translate(-127.823 -143.77869)" style="fill:#003915"/><path d="M267.81171,162.21921a3.917,3.917,0,0,1-3.91162-3.913V152.6409a.67738.67738,0,0,1,.45612-.63919,1.24,1.24,0,0,1-.20349-.205.94592.94592,0,0,0-.52161.84421v5.66531a4.18085,4.18085,0,1,0,8.36169,0V152.6409a.94552.94552,0,0,0-.52109-.8436,1.23885,1.23885,0,0,1-.20322.20471.67612.67612,0,0,1,.45551.63889v5.66531a3.91707,3.91707,0,0,1-3.91229,3.913" transform="translate(-127.823 -143.77869)" style="fill:#003915"/><path d="M270.61539,153.7218H265.0065a.204.204,0,0,0-.20129.20151V158.194a3.00659,3.00659,0,1,0,6.01318,0v-4.27069a.20466.20466,0,0,0-.203-.20151m-5.54138.2681h5.47589v4.2041a2.73795,2.73795,0,0,1-5.47589,0Z" transform="translate(-127.823 -143.77869)" style="fill:#003915"/><path d="M267.8114,156.45261a1.00815,1.00815,0,1,0,1.00879,1.008,1.01006,1.01006,0,0,0-1.00879-1.008m0,1.74759a.7394.7394,0,1,1,.73981-.73959A.74032.74032,0,0,1,267.8114,158.2002Z" transform="translate(-127.823 -143.77869)" style="fill:#003915"/><rect x="266.05564" y="154.25539" width="0.26858" height="2.24218" transform="translate(-167.89842 46.24553) rotate(-36.72676)" style="fill:#003915"/><rect x="268.26775" y="155.24213" width="2.24305" height="0.26915" transform="translate(-144.23635 134.1923) rotate(-53.19201)" style="fill:#003915"/><path d="M270.51221,148.22h-5.40051a1.35512,1.35512,0,0,0-1.35251,1.35379v1.4743a1.35355,1.35355,0,0,0,1.35251,1.35242h5.40051a1.35323,1.35323,0,0,0,1.3519-1.35242v-1.4743a1.35479,1.35479,0,0,0-1.3519-1.35379m-5.40051,3.91211a1.08545,1.08545,0,0,1-1.08429-1.084v-1.4743a1.08586,1.08586,0,0,1,1.08429-1.08508h5.40051a1.08592,1.08592,0,0,1,1.08368,1.08508v1.4743a1.08552,1.08552,0,0,1-1.08368,1.084Z" transform="translate(-127.823 -143.77869)" style="fill:#003915"/><path d="M267.8114,149.62231a.6881.6881,0,1,0,.6882.68738.68808.68808,0,0,0-.6882-.68738m0,1.10718a.41925.41925,0,1,1,.41949-.4198A.41943.41943,0,0,1,267.8114,150.72949Z" transform="translate(-127.823 -143.77869)" style="fill:#003915"/><path d="M282.53448,176.4769h0v7.83951H271.18662V176.4769Zm.33081,8.17081v-8.5025H270.8555v8.5025Z" transform="translate(-127.823 -143.77869)" style="fill:#003915"/><path d="M280.14011,176.2524a.60439.60439,0,0,0-.5936-.61259h-5.37222a.6041.6041,0,0,0-.59387.61259h.33078a.26968.26968,0,0,1,.26309-.2809h5.37222a.26944.26944,0,0,1,.26279.2809Z" transform="translate(-127.823 -143.77869)" style="fill:#003915"/><path d="M277.88229,178.87891h0v2.70769l-1.59729.62161a2.47355,2.47355,0,0,1,.0918-1.67471,4.15127,4.15127,0,0,0,.24121-1.24069,2.44757,2.44757,0,0,0-.1882-.9366Zm.33081,2.93419v-3.1669l-2.48-.892.22479.39061a2.26616,2.26616,0,0,1,.32932,1.148,3.89386,3.89386,0,0,1-.22672,1.1438,3.89761,3.89761,0,0,0-.22818,1.144,2.01671,2.01671,0,0,0,.218.91251l.06741.1358Z" transform="translate(-127.823 -143.77869)" style="fill:#003915"/><path d="M241.3959,150.37119V180.4561a2.161,2.161,0,0,1-2.16571,2.1515H228.8188a2.16088,2.16088,0,0,1-2.16591-2.1515V150.37119A2.16082,2.16082,0,0,1,228.8188,148.22h10.41139a2.161,2.161,0,0,1,2.16571,2.15118M226.8828,180.4561a1.93108,1.93108,0,0,0,1.936,1.92191h10.41139a1.931,1.931,0,0,0,1.9355-1.92191V150.37119a1.9314,1.9314,0,0,0-1.9355-1.92218H228.8188a1.93151,1.93151,0,0,0-1.936,1.92218Z" transform="translate(-127.823 -143.77869)" style="fill:#003915"/><path d="M228.14481,177.4704a2.577,2.577,0,0,0,2.582,2.5654h6.59479a2.5766,2.5766,0,0,0,2.5818-2.5654V153.35721a2.577,2.577,0,0,0-2.5818-2.56592H235.2597a.39549.39549,0,0,0,.142-.22818h1.91989a2.80639,2.80639,0,0,1,2.81261,2.7941V177.4704a2.80666,2.80666,0,0,1-2.81261,2.7944h-6.59479a2.80658,2.80658,0,0,1-2.81221-2.7944V153.35721a2.80631,2.80631,0,0,1,2.81221-2.7941h1.9202a.39529.39529,0,0,0,.14149.22818h-2.06169a2.57746,2.57746,0,0,0-2.582,2.56592Z" transform="translate(-127.823 -143.77869)" style="fill:#003915"/><path d="M229.458,175.923a1.26665,1.26665,0,0,0,1.26881,1.26109h6.59479a1.26636,1.26636,0,0,0,1.26831-1.26109v-22.5658a1.2663,1.2663,0,0,0-1.26831-1.26141h-2.84479V151.867h2.84479a1.49628,1.49628,0,0,1,1.499,1.4902V175.923a1.49564,1.49564,0,0,1-1.499,1.48929h-6.59479a1.49522,1.49522,0,0,1-1.4989-1.48929v-22.5658a1.49587,1.49587,0,0,1,1.4989-1.4902h2.8452v.22879h-2.8452a1.26659,1.26659,0,0,0-1.26881,1.26141Z" transform="translate(-127.823 -143.77869)" style="fill:#003915"/><path d="M234.7571,155.26239a.73331.73331,0,1,1-.7336-.72989.73145.73145,0,0,1,.7336.72989m-1.23639,0a.50326.50326,0,1,0,.50279-.50031A.50182.50182,0,0,0,233.52071,155.26239Z" transform="translate(-127.823 -143.77869)" style="fill:#003915"/><rect x="105.6781" y="11.36862" width="1.0457" height="0.22928" style="fill:#003915"/><rect x="106.08521" y="10.96442" width="0.2307" height="1.03769" style="fill:#003915"/><path d="M234.47681,150.76239h.5374a.27992.27992,0,0,0,.2804-.27869v-.5051a.28042.28042,0,0,0-.2804-.27921h-.5374v-.22879h.5374a.51033.51033,0,0,1,.51109.508v.5051a.50963.50963,0,0,1-.51109.50739h-.5374Zm-1.72211-.27869a.27986.27986,0,0,0,.28011.27869h.5372v.2287h-.5372a.50919.50919,0,0,1-.5108-.50739v-.5051a.50988.50988,0,0,1,.5108-.508h.5372v.22879h-.5372a.28036.28036,0,0,0-.28011.27921Z" transform="translate(-127.823 -143.77869)" style="fill:#003915"/><path d="M234.59219,149.4726v3.2012a.56766.56766,0,0,1-1.1353,0v-3.2012a.56766.56766,0,0,1,1.1353,0m-.90509,3.2012a.33715.33715,0,0,0,.6743,0v-3.2012a.33716.33716,0,0,0-.6743,0Z" transform="translate(-127.823 -143.77869)" style="fill:#003915"/><path d="M277.12119,230.0925v11.7692H265.35229V230.0925Zm-.24948,11.5197V230.34171H265.6012V241.6122Z" transform="translate(-127.823 -143.77869)" style="fill:#003915"/><path d="M266.4505,235.9769a3.91958,3.91958,0,0,0,7.7142.9817.29973.29973,0,0,0,.19751.0742h.04059a4.16847,4.16847,0,1,1,.00031-2.11151h-.04089a.29872.29872,0,0,0-.19733.074,3.91968,3.91968,0,0,0-7.71439.9816" transform="translate(-127.823 -143.77869)" style="fill:#003915"/><path d="M273.8511,235.9769a3.48151,3.48151,0,1,1-3.48172-3.4812,3.48572,3.48572,0,0,1,3.48172,3.4812m-6.7135,0a3.2319,3.2319,0,1,0,3.23178-3.2317A3.2354,3.2354,0,0,0,267.1376,235.9769Z" transform="translate(-127.823 -143.77869)" style="fill:#003915"/><path d="M271.27191,235.9769a.90225.90225,0,1,1-.90253-.9025.90335.90335,0,0,1,.90253.9025m-1.5556,0a.65294.65294,0,1,0,.65308-.65309A.65424.65424,0,0,0,269.71631,235.9769Z" transform="translate(-127.823 -143.77869)" style="fill:#003915"/><rect x="141.88989" y="92.07352" width="1.31381" height="0.2495" style="fill:#003915"/><rect x="142.42191" y="91.54141" width="0.24969" height="1.3136" style="fill:#003915"/><path d="M275.17609,235.22321v1.50749a.42713.42713,0,0,1-.4267.42661h-.38718a.42693.42693,0,0,1-.42661-.42661v-1.50749a.42686.42686,0,0,1,.42661-.42661h.38718a.42706.42706,0,0,1,.4267.42661m-.991,1.50749a.17757.17757,0,0,0,.17712.1774h.38718a.17745.17745,0,0,0,.17722-.1774v-1.50749a.17729.17729,0,0,0-.17722-.1772h-.38718a.1774.1774,0,0,0-.17712.1772Z" transform="translate(-127.823 -143.77869)" style="fill:#003915"/><path d="M275.0513,236.1969h.08649a.2197.2197,0,1,0,0-.43941h-.08649v-.24969h.08649a.4694.4694,0,0,1,0,.9388h-.08649Zm-2.59-.22a.22051.22051,0,0,0,.22058.22h1.37842v.24969h-1.37842a.4694.4694,0,1,1,0-.9388h1.37842v.24969h-1.37842A.22008.22008,0,0,0,272.4613,235.9769Z" transform="translate(-127.823 -143.77869)" style="fill:#003915"/><path d="M276.63989,258.75729V251.6006a1.49609,1.49609,0,0,0-1.49469-1.49409H266.8465a1.496,1.496,0,0,0-1.4942,1.49409v7.15669a1.49563,1.49563,0,0,0,1.4942,1.49411h8.29871a1.49571,1.49571,0,0,0,1.49469-1.49411m-11.0546-7.15669a1.26265,1.26265,0,0,1,1.2612-1.26111h8.29871a1.26275,1.26275,0,0,1,1.26169,1.26111v7.15669a1.26307,1.26307,0,0,1-1.26169,1.2617H266.8465a1.263,1.263,0,0,1-1.2612-1.2617Z" transform="translate(-127.823 -143.77869)" style="fill:#003915"/><path d="M275.82089,258.75729V251.6006a.67613.67613,0,0,0-.67569-.6757h-7.01071a.6764.6764,0,0,0-.67578.6757v7.15669a.67652.67652,0,0,0,.67578.6763h7.01071a.67625.67625,0,0,0,.67569-.6763m-8.12918-7.15669a.44328.44328,0,0,1,.44278-.443h7.01071a.44346.44346,0,0,1,.443.443v7.15669a.44385.44385,0,0,1-.443.44391h-7.01071a.44367.44367,0,0,1-.44278-.44391Z" transform="translate(-127.823 -143.77869)" style="fill:#003915"/><path d="M267.0401,252.3008a.47424.47424,0,1,0-.4743.4742.4751.4751,0,0,0,.4743-.4742m-.71552,0a.24126.24126,0,1,1,.24121.2415A.24192.24192,0,0,1,266.32459,252.3008Z" transform="translate(-127.823 -143.77869)" style="fill:#003915"/><path d="M267.0401,253.9015a.47424.47424,0,1,0-.4743.47479.475.475,0,0,0,.4743-.47479m-.71552,0a.24126.24126,0,1,1,.24121.24179A.24161.24161,0,0,1,266.32459,253.9015Z" transform="translate(-127.823 -143.77869)" style="fill:#003915"/><rect x="145.6228" y="108.07541" width="0.2327" height="2.7195" style="fill:#003915"/><rect x="144.3801" y="109.31891" width="2.71951" height="0.23271" style="fill:#003915"/><path d="M274.4592,253.21381a.8969.8969,0,1,0-.89691.89659.898.898,0,0,0,.89691-.89659m-1.5611,0a.66431.66431,0,1,1,.66418.66389A.66556.66556,0,0,1,272.8981,253.21381Z" transform="translate(-127.823 -143.77869)" style="fill:#003915"/><rect x="141.77789" y="108.07541" width="0.23242" height="2.7195" style="fill:#003915"/><rect x="140.5343" y="109.31891" width="2.7204" height="0.23271" style="fill:#003915"/><path d="M270.61481,253.21381a.89716.89716,0,1,0-.8974.89659.89858.89858,0,0,0,.8974-.89659m-1.56192,0a.66475.66475,0,1,1,.66452.66389A.66545.66545,0,0,1,269.05289,253.21381Z" transform="translate(-127.823 -143.77869)" style="fill:#003915"/><rect x="145.6228" y="112.00621" width="0.2327" height="2.71921" style="fill:#003915"/><rect x="144.3801" y="113.24971" width="2.71951" height="0.233" style="fill:#003915"/><path d="M274.4592,257.1449a.8969.8969,0,1,0-.89691.8969.89783.89783,0,0,0,.89691-.8969m-1.5611,0a.66431.66431,0,1,1,.66418.66389A.66607.66607,0,0,1,272.8981,257.1449Z" transform="translate(-127.823 -143.77869)" style="fill:#003915"/><rect x="141.77789" y="112.00621" width="0.23242" height="2.71921" style="fill:#003915"/><rect x="140.5343" y="113.24971" width="2.7204" height="0.233" style="fill:#003915"/><path d="M270.61481,257.1449a.89716.89716,0,1,0-.8974.8969.89845.89845,0,0,0,.8974-.8969m-1.56192,0a.66475.66475,0,1,1,.66452.66389A.666.666,0,0,1,269.05289,257.1449Z" transform="translate(-127.823 -143.77869)" style="fill:#003915"/><path d="M267.0401,256.6151a.47424.47424,0,1,0-.4743.47461.47485.47485,0,0,0,.4743-.47461m-.71552,0a.24126.24126,0,1,1,.24121.24181A.24167.24167,0,0,1,266.32459,256.6151Z" transform="translate(-127.823 -143.77869)" style="fill:#003915"/><path d="M267.0401,258.21671a.47424.47424,0,1,0-.4743.474.47465.47465,0,0,0,.4743-.474m-.71552,0a.24126.24126,0,1,1,.24121.2415A.24166.24166,0,0,1,266.32459,258.21671Z" transform="translate(-127.823 -143.77869)" style="fill:#003915"/><path d="M281.51089,150.40979a.80934.80934,0,1,1,.23471-.57089.81017.81017,0,0,1-.23471.57089m-.5726,1.03632a1.60713,1.60713,0,1,0-1.13638-.47061A1.60256,1.60256,0,0,0,280.93829,151.44611Z" transform="translate(-127.823 -143.77869)" style="fill:#003915"/><path d="M253.2722,281.2522a1.60946,1.60946,0,0,1,.60519,0Z" transform="translate(-127.823 -143.77869)" style="fill:#003915"/><rect x="117.0739" y="64.20161" width="8.5782" height="8.76579" style="fill:#003915"/><path d="M275.85779,156.82309v2.98041h3.07281v-2.98041Zm0-4.28928v2.98029h6.95731v-2.98029Zm3.88461,4.28928v2.98041h3.07269v-2.98041Zm-4.89691,3.99921h9.56442v-8.93741h-9.56442Z" transform="translate(-127.823 -143.77869)" style="fill:#003915;fill-rule:evenodd"/><path d="M213.2289,192.8589a.374.374,0,0,0-.64749.37469l8.0399,13.92011a.37407.37407,0,0,0,.64749-.3748Z" transform="translate(-127.823 -143.77869)" style="fill:#003915"/><rect x="93.069" y="62.74141" width="2.6022" height="5.1738" style="fill:#003915"/><rect x="36.34241" y="65.31871" width="58.76979" height="2.6022" style="fill:#003915"/><path d="M150.83659,265.98531c-.73189,0-1.2359-.6179-1.2359-1.73991s.504-1.7399,1.2359-1.7399,1.2359.618,1.2359,1.7399-.504,1.73991-1.2359,1.73991m0,.396c.972,0,1.67981-.7979,1.67981-2.13591s-.70781-2.13589-1.67981-2.13589-1.67389.798-1.67389,2.13589S149.86459,266.3813,150.83659,266.3813Zm-2.0701-1.5239h-.83989v-.972h-.41991v.972h-1.8241l2.1481-2.71191h-.4801l-2.2258,2.78391v.3118h2.3698v1.10411h.432V265.2412h.83989Zm-4.4337.864a.31414.31414,0,0,0-.3181.324.30326.30326,0,0,0,.216.30591l-.2041.8699h.288l.252-.828a.97589.97589,0,0,0,.0842-.34781A.314.314,0,0,0,144.33279,265.72141Zm-2.28619-1.77591,1.188-1.49409v-.30591h-2.7v.3838h2.14809l-1.16389,1.45821v.318h.2999c.77991,0,1.13391.33,1.13391.834,0,.5218-.3838.84581-1.08.84581a1.84167,1.84167,0,0,1-1.302-.48581l-.21.3418a2.18451,2.18451,0,0,0,1.512.54c1.014,0,1.5239-.54,1.5239-1.24181C143.3965,264.46739,142.94659,263.99339,142.0466,263.9455Z" transform="translate(-127.823 -143.77869)" style="fill:#6e6e6e;fill-rule:evenodd"/><path d="M250.8129,259.9852c-.732,0-1.236-.6179-1.236-1.7399s.504-1.7399,1.236-1.7399,1.2359.618,1.2359,1.7399-.504,1.7399-1.2359,1.7399m0,.396c.972,0,1.67981-.7979,1.67981-2.13589s-.70781-2.13589-1.67981-2.13589-1.67389.798-1.67389,2.13589S249.8409,260.3812,250.8129,260.3812Zm-4.5-.42,1.428-1.40379a1.72884,1.72884,0,0,0,.69-1.3141c0-.7019-.54-1.1339-1.39209-1.1339a1.88738,1.88738,0,0,0-1.4879.59979l.30589.26421a1.4263,1.4263,0,0,1,1.146-.468c.64209,0,.98389.2999.98389.7861,0,.28769-.0898.5697-.5638,1.03769l-1.74609,1.71021v.3058h2.946v-.384Zm-1.56-.2399a.31406.31406,0,0,0-.318.324.30322.30322,0,0,0,.216.30589l-.2041.87h.288l.252-.828a.97651.97651,0,0,0,.0842-.3479A.314.314,0,0,0,244.7529,259.7213Zm-2.622.294c-.74411,0-1.182-.324-1.182-.8461,0-.516.4379-.84,1.182-.84.74379,0,1.188.324,1.188.84C243.31889,259.6913,242.87469,260.0153,242.13091,260.0153Zm-1.038-2.78391c0-.468.4019-.756,1.038-.756.6299,0,1.044.288,1.044.7619,0,.4561-.39.75009-1.044.75009S241.0929,257.69341,241.0929,257.2314Zm1.8479.9119a.95115.95115,0,0,0,.6721-.9238c0-.684-.59419-1.11009-1.482-1.11009-.88811,0-1.47.42609-1.47,1.11009a.94774.94774,0,0,0,.6599.9238,1.04822,1.04822,0,0,0-.80991,1.0321c0,.7438.612,1.2058,1.62,1.2058,1.002,0,1.6319-.462,1.6319-1.2058A1.05754,1.05754,0,0,0,242.9408,258.1433Zm-4.83-1.99789v.3838h.99011v3.816h.432v-4.1998Z" transform="translate(-127.823 -143.77869)" style="fill:#6e6e6e;fill-rule:evenodd"/><path d="M273.2309,203.84821c-.7319,0-1.2359-.6179-1.2359-1.7399s.504-1.73991,1.2359-1.73991,1.2359.6179,1.2359,1.73991-.504,1.7399-1.2359,1.7399m0,.396c.972,0,1.67981-.7979,1.67981-2.13589s-.70779-2.13591-1.67981-2.13591-1.6738.7979-1.6738,2.13591S272.25891,204.2442,273.2309,204.2442Zm-3.96588-2.514h-.54l.144-1.338h1.91992v-.3838h-2.29782l-.216,2.10591h.8941c1.06781,0,1.40372.33589,1.40372.8759,0,.5099-.3779.858-1.09192.858a1.82149,1.82149,0,0,1-1.2901-.4859l-.20969.34189a2.1681,2.1681,0,0,0,1.50571.54c1.02618,0,1.5239-.55791,1.5239-1.2719C271.0108,202.2282,270.53091,201.73019,269.265,201.73019Zm-2.04581,1.85411a.314.314,0,0,0-.318.324.30314.30314,0,0,0,.216.30591l-.2041.8699h.288l.252-.828a.97572.97572,0,0,0,.0842-.34781A.314.314,0,0,0,267.21921,203.5843Zm-3.24.23979,1.4281-1.4037a1.72912,1.72912,0,0,0,.69-1.3141c0-.70189-.54-1.1339-1.39209-1.1339a1.88731,1.88731,0,0,0-1.48791.59981l.30582.26419a1.42618,1.42618,0,0,1,1.14609-.468c.642,0,.98392.29991.98392.786,0,.2878-.0899.56979-.56381,1.0378l-1.74619,1.7101v.30591h2.94611v-.38411Z" transform="translate(-127.823 -143.77869)" style="fill:#6e6e6e;fill-rule:evenodd"/><path d="M262.7453,172.7229c-.7319,0-1.2359-.6179-1.2359-1.7399s.504-1.7399,1.2359-1.7399,1.2359.618,1.2359,1.7399-.504,1.7399-1.2359,1.7399m0,.396c.972,0,1.67981-.7979,1.67981-2.13589s-.70782-2.13589-1.67981-2.13589-1.67389.798-1.67389,2.13589S261.77328,173.1189,262.7453,173.1189Zm-3.90591-.36589c-.74408,0-1.182-.324-1.182-.8461,0-.516.4379-.84,1.182-.84.7438,0,1.188.324,1.188.84C260.0274,172.429,259.58319,172.753,258.83939,172.753Zm-1.038-2.78391c0-.468.40192-.756,1.038-.756.62991,0,1.044.288,1.044.7619,0,.4561-.39.75009-1.044.75009S257.80139,170.43111,257.80139,169.9691Zm1.8479.9119a.95117.95117,0,0,0,.67212-.9238c0-.684-.59421-1.11009-1.482-1.11009-.88809,0-1.47.42609-1.47,1.11009a.94773.94773,0,0,0,.65991.9238,1.04819,1.04819,0,0,0-.80991,1.0321c0,.7438.612,1.2058,1.62,1.2058,1.00211,0,1.63193-.462,1.63193-1.2058A1.05754,1.05754,0,0,0,259.64929,170.881Zm-3.40781,1.578a.31414.31414,0,0,0-.31808.324.30323.30323,0,0,0,.216.30589l-.2041.87h.288l.252-.828a.97685.97685,0,0,0,.0842-.3479A.314.314,0,0,0,256.24149,172.459Zm-.84619-.864h-.83989v-.972h-.4198v.972h-1.82411l2.1481-2.71191h-.48019l-2.22571,2.78391v.3119h2.36971v1.104h.432v-1.104h.83989Z" transform="translate(-127.823 -143.77869)" style="fill:#6e6e6e;fill-rule:evenodd"/><path d="M182.7085,192.2352c-.7319,0-1.2359-.6179-1.2359-1.7399s.504-1.7399,1.2359-1.7399,1.2359.618,1.2359,1.7399-.504,1.7399-1.2359,1.7399m0,.396c.972,0,1.67981-.7979,1.67981-2.13589s-.70781-2.13589-1.67981-2.13589-1.67389.798-1.67389,2.13589S181.7365,192.6312,182.7085,192.6312Zm-4.098-4.23579v.3838h.9901v3.816h.432v-4.1998Zm-.6118,3.5759a.31407.31407,0,0,0-.318.324.30323.30323,0,0,0,.216.30589l-.2041.8699h.288l.252-.828a.9759.9759,0,0,0,.0842-.34779A.314.314,0,0,0,177.9987,191.9713Zm-2.2861-1.77589,1.188-1.49411v-.30589h-2.7v.3838h2.14809l-1.16389,1.45819v.318h.2999c.7798,0,1.13391.33,1.13391.834,0,.52179-.38391.84579-1.08.84579a1.84154,1.84154,0,0,1-1.302-.48579l-.21.3418a2.1845,2.1845,0,0,0,1.512.54c1.0139,0,1.5239-.54,1.5239-1.24179C177.0625,190.7173,176.61259,190.2433,175.7126,190.1954Zm-3.852-1.8v.3838h.9901v3.816h.432v-4.1998Z" transform="translate(-127.823 -143.77869)" style="fill:#6e6e6e;fill-rule:evenodd"/><path d="M285.46271,193.64771a3.90784,3.90784,0,1,0,3.9079,3.90759,3.90809,3.90809,0,0,0-3.9079-3.90759" transform="translate(-127.823 -143.77869)" style="fill:#558e42;fill-rule:evenodd"/><polygon points="155.236 53.777 156.551 53.399 157.865 53.02 157.865 53.777 157.865 54.533 156.551 54.155 155.236 53.777" style="fill:#fdfdfd;fill-rule:evenodd"/><rect x="157.76239" y="53.59772" width="2.2814" height="0.38409" style="fill:#fdfdfd"/><path d="M288.45779,220.88921V216.3575h1.06039v4.53171Zm0,60.363v-4.959h1.06039v4.959Z" transform="translate(-127.823 -143.77869)" style="fill:#003915;fill-rule:evenodd"/></svg>