<svg xmlns="http://www.w3.org/2000/svg" id="Слой_1" data-name="Слой 1" viewBox="0 0 161.81 88.17"><title>2.11.03</title><polygon points="3.79 88.17 3.79 48.66 0.44 48.66 0.44 0 161.69 0 161.69 88.17 3.79 88.17" style="fill:#fefefe;fill-rule:evenodd"/><path d="M258.9,228.19a.37.37,0,0,0,.37.65l13.92-8a.37.37,0,0,0-.37-.65Z" transform="translate(-127.64 -168.51)" style="fill:#134228"/><path d="M163,212.71a.37.37,0,1,0-.65.37l8,13.92a.37.37,0,0,0,.65-.37Z" transform="translate(-127.64 -168.51)" style="fill:#134228"/><rect x="145.07" y="49.64" width="16.33" height="2.6" style="fill:#134228"/><rect x="107.14" y="49.64" width="21.01" height="2.6" style="fill:#134228"/><rect x="8.08" width="153.72" height="5" style="fill:#134228"/><rect x="104.31" y="2.09" width="5" height="50.15" style="fill:#134228"/><rect x="156.8" y="2.09" width="5" height="50.15" style="fill:#134228"/><rect x="120.96" width="5" height="4.24" style="fill:#134228"/><rect x="149.41" y="85.67" width="6.43" height="2.5" style="fill:#134228"/><rect x="155.38" y="72.36" width="6.43" height="14.11" style="fill:#134228"/><rect width="8.16" height="11.46" style="fill:#134228"/><rect y="28.83" width="8.16" height="19.4" style="fill:#134228"/><rect x="1.13" y="35.72" width="38.21" height="8.16" style="fill:#134228"/><rect x="31.18" y="60.33" width="8.16" height="27.84" style="fill:#134228"/><rect x="3" y="13.54" width="2.3" height="0.5" style="fill:#134228"/><rect x="3" y="12.34" width="2.3" height="0.5" style="fill:#134228"/><rect x="3" width="2.3" height="0.2" style="fill:#134228"/><rect x="3" y="27.65" width="2.3" height="0.5" style="fill:#134228"/><rect x="3" y="26.45" width="2.3" height="0.5" style="fill:#134228"/><rect width="0.5" height="30.54" style="fill:#134228"/><rect x="2.85" width="0.5" height="30.54" style="fill:#134228"/><rect x="5.02" width="0.5" height="30.54" style="fill:#134228"/><rect x="7.66" width="0.5" height="30.54" style="fill:#134228"/><rect x="2.91" y="87.62" width="0.45" height="0.55" style="fill:#134228"/><rect x="4" y="87.62" width="0.45" height="0.55" style="fill:#134228"/><rect x="5.08" y="87.62" width="0.45" height="0.55" style="fill:#134228"/><rect x="4.14" y="82.81" width="1.3" height="0.45" style="fill:#134228"/><rect x="4.14" y="81.74" width="1.3" height="0.45" style="fill:#134228"/><rect x="4.14" y="64.21" width="1.3" height="0.45" style="fill:#134228"/><rect x="4.14" y="63.14" width="1.3" height="0.45" style="fill:#134228"/><rect x="4.14" y="45.6" width="1.3" height="0.45" style="fill:#134228"/><rect x="4.14" y="44.54" width="1.3" height="0.45" style="fill:#134228"/><rect x="2.91" y="42.47" width="0.45" height="41.33" style="fill:#134228"/><rect x="4" y="42.47" width="0.45" height="41.33" style="fill:#134228"/><rect x="5.08" y="42.47" width="0.45" height="41.33" style="fill:#134228"/><path d="M267.11,173.72h-9.82a.91.91,0,0,0-.91.9v4.61a4.6,4.6,0,0,0,4.59,4.59h2.45a4.6,4.6,0,0,0,4.59-4.59v-4.61a.9.9,0,0,0-.9-.9M261,183.58a4.35,4.35,0,0,1-4.35-4.35v-4.61a.66.66,0,0,1,.66-.66h9.82a.66.66,0,0,1,.66.66v4.61a4.35,4.35,0,0,1-4.35,4.35Z" transform="translate(-127.64 -168.51)" style="fill:#134228"/><path d="M261,182.49a3.26,3.26,0,0,1-3.25-3.26v-2.69a.57.57,0,0,1,.57-.57h3.58v-.25h-3.58a.81.81,0,0,0-.81.81v2.69a3.5,3.5,0,0,0,3.5,3.5h2.45a3.5,3.5,0,0,0,3.5-3.5v-2.69a.81.81,0,0,0-.81-.81h-3.58V176h3.58a.57.57,0,0,1,.57.57v2.69a3.26,3.26,0,0,1-3.26,3.26Z" transform="translate(-127.64 -168.51)" style="fill:#134228"/><path d="M262.2,178.89a.78.78,0,1,0,.78.78.78.78,0,0,0-.78-.78m0,1.32a.54.54,0,1,1,.54-.54A.54.54,0,0,1,262.2,180.21Z" transform="translate(-127.64 -168.51)" style="fill:#134228"/><rect x="134.44" y="10.6" width="0.24" height="1.12" style="fill:#134228"/><rect x="134.01" y="11.04" width="1.12" height="0.25" style="fill:#134228"/><path d="M262.54,174.9h.4a.17.17,0,0,1,.17.17v.38a.17.17,0,0,1-.17.17h-.4v.24h.4a.42.42,0,0,0,.42-.42v-.38a.42.42,0,0,0-.42-.42h-.41v.24Zm-1.08.73a.17.17,0,0,1-.17-.17v-.38a.17.17,0,0,1,.17-.17h.4v-.24h-.4a.42.42,0,0,0-.42.42v.38a.42.42,0,0,0,.42.42h.4v-.24Z" transform="translate(-127.64 -168.51)" style="fill:#134228"/><path d="M262.2,174.24a.46.46,0,0,0-.46.46v3.08a.46.46,0,0,0,.92,0V174.7a.46.46,0,0,0-.46-.46m0,3.76a.22.22,0,0,1-.22-.22V174.7a.22.22,0,0,1,.43,0v3.08A.22.22,0,0,1,262.2,178Z" transform="translate(-127.64 -168.51)" style="fill:#134228"/><path d="M255.78,203.12a3.92,3.92,0,0,1-3.91,3.91H246.2a.68.68,0,0,1-.64-.46,1.24,1.24,0,0,1-.2.2,1,1,0,0,0,.84.52h5.67a4.18,4.18,0,1,0,0-8.36H246.2a1,1,0,0,0-.84.52,1.24,1.24,0,0,1,.2.2.68.68,0,0,1,.64-.46h5.67a3.92,3.92,0,0,1,3.91,3.91" transform="translate(-127.64 -168.51)" style="fill:#134228"/><path d="M247.28,200.32v5.61a.2.2,0,0,0,.2.2h4.27a3,3,0,1,0,0-6h-4.27a.2.2,0,0,0-.2.2m.27,5.54v-5.48h4.2a2.74,2.74,0,0,1,0,5.48Z" transform="translate(-127.64 -168.51)" style="fill:#134228"/><path d="M250,203.12a1,1,0,1,0,1-1,1,1,0,0,0-1,1m1.75,0a.74.74,0,1,1-.74-.74A.74.74,0,0,1,251.76,203.12Z" transform="translate(-127.64 -168.51)" style="fill:#134228"/><rect x="247.81" y="204.61" width="2.24" height="0.27" transform="translate(-200.66 20.98) rotate(-36.72)" style="fill:#134228"/><rect x="248.8" y="200.42" width="0.27" height="2.24" transform="translate(-189.22 111.58) rotate(-53.19)" style="fill:#134228"/><path d="M241.78,200.42v5.4a1.36,1.36,0,0,0,1.35,1.35h1.47a1.35,1.35,0,0,0,1.35-1.35v-5.4a1.35,1.35,0,0,0-1.35-1.35h-1.47a1.35,1.35,0,0,0-1.35,1.35m3.91,5.4a1.09,1.09,0,0,1-1.08,1.08h-1.47a1.09,1.09,0,0,1-1.09-1.08v-5.4a1.09,1.09,0,0,1,1.09-1.08h1.47a1.09,1.09,0,0,1,1.08,1.08Z" transform="translate(-127.64 -168.51)" style="fill:#134228"/><path d="M243.18,203.12a.69.69,0,1,0,.69-.69.69.69,0,0,0-.69.69m1.11,0a.42.42,0,1,1-.42-.42A.42.42,0,0,1,244.29,203.12Z" transform="translate(-127.64 -168.51)" style="fill:#134228"/><path d="M254.37,181.89h0v-7.84H243v7.84Zm.33-8.17v8.5h-12v-8.5Z" transform="translate(-127.64 -168.51)" style="fill:#134228"/><path d="M252,182.12a.6.6,0,0,1-.59.61H246a.6.6,0,0,1-.59-.61h.33a.27.27,0,0,0,.26.28h5.37a.27.27,0,0,0,.26-.28Z" transform="translate(-127.64 -168.51)" style="fill:#134228"/><path d="M249.72,179.49h0v-2.71l-1.6-.62a2.47,2.47,0,0,0,.09,1.67,4.15,4.15,0,0,1,.24,1.24,2.45,2.45,0,0,1-.19.94Zm.33-2.93v3.17l-2.48.89.22-.39a2.27,2.27,0,0,0,.33-1.15,3.89,3.89,0,0,0-.23-1.14,3.9,3.9,0,0,1-.23-1.14,2,2,0,0,1,.22-.91l.07-.14Z" transform="translate(-127.64 -168.51)" style="fill:#134228"/><path d="M284.12,175.87V206a2.16,2.16,0,0,1-2.17,2.15H271.54a2.16,2.16,0,0,1-2.17-2.15V175.87a2.16,2.16,0,0,1,2.17-2.15H282a2.16,2.16,0,0,1,2.17,2.15M269.61,206a1.93,1.93,0,0,0,1.94,1.92H282a1.93,1.93,0,0,0,1.94-1.92V175.87A1.93,1.93,0,0,0,282,174H271.54a1.93,1.93,0,0,0-1.94,1.92Z" transform="translate(-127.64 -168.51)" style="fill:#134228"/><path d="M270.87,203a2.58,2.58,0,0,0,2.58,2.57H280a2.58,2.58,0,0,0,2.58-2.57V178.86a2.58,2.58,0,0,0-2.58-2.57H278a.4.4,0,0,0,.14-.23H280a2.81,2.81,0,0,1,2.81,2.79V203a2.81,2.81,0,0,1-2.81,2.79h-6.59a2.81,2.81,0,0,1-2.81-2.79V178.86a2.81,2.81,0,0,1,2.81-2.79h1.92a.4.4,0,0,0,.14.23h-2.06a2.58,2.58,0,0,0-2.58,2.57Z" transform="translate(-127.64 -168.51)" style="fill:#134228"/><path d="M272.18,201.42a1.27,1.27,0,0,0,1.27,1.26H280a1.27,1.27,0,0,0,1.27-1.26V178.86A1.27,1.27,0,0,0,280,177.6H277.2v-.23H280a1.5,1.5,0,0,1,1.5,1.49v22.57a1.5,1.5,0,0,1-1.5,1.49h-6.59a1.5,1.5,0,0,1-1.5-1.49V178.86a1.5,1.5,0,0,1,1.5-1.49h2.85v.23h-2.85a1.27,1.27,0,0,0-1.27,1.26Z" transform="translate(-127.64 -168.51)" style="fill:#134228"/><path d="M277.48,180.76a.73.73,0,1,1-.73-.73.73.73,0,0,1,.73.73m-1.24,0a.5.5,0,1,0,.5-.5A.5.5,0,0,0,276.25,180.76Z" transform="translate(-127.64 -168.51)" style="fill:#134228"/><rect x="148.59" y="12.14" width="1.05" height="0.23" style="fill:#134228"/><rect x="149" y="11.73" width="0.23" height="1.04" style="fill:#134228"/><path d="M277.2,176.26h.54A.28.28,0,0,0,278,176v-.51a.28.28,0,0,0-.28-.28h-.54V175h.54a.51.51,0,0,1,.51.51V176a.51.51,0,0,1-.51.51h-.54Zm-1.72-.28a.28.28,0,0,0,.28.28h.54v.23h-.54a.51.51,0,0,1-.51-.51v-.51a.51.51,0,0,1,.51-.51h.54v.23h-.54a.28.28,0,0,0-.28.28Z" transform="translate(-127.64 -168.51)" style="fill:#134228"/><path d="M277.32,175v3.2a.57.57,0,0,1-1.14,0V175a.57.57,0,0,1,1.14,0m-.91,3.2a.34.34,0,0,0,.67,0V175a.34.34,0,0,0-.67,0Z" transform="translate(-127.64 -168.51)" style="fill:#134228"/><path d="M239.13,176a.81.81,0,1,0,.23.57.81.81,0,0,0-.23-.57m-.57-1a1.61,1.61,0,1,1-1.14.47A1.6,1.6,0,0,1,238.56,174.91Z" transform="translate(-127.64 -168.51)" style="fill:#134228"/><path d="M237,189.34h3v7.41h-3Zm0,17.12h3v7.41h-3Zm0-8.53h3V201h-3Zm0,4.26h3v3.07h-3Zm-2.2-14.46h6.63v27.56h-6.63Z" transform="translate(-127.64 -168.51)" style="fill:#134228;fill-rule:evenodd"/><rect x="112.4" y="3.66" width="1.43" height="46.35" style="fill:#134228"/><path d="M150.73,231.32c-.73,0-1.24-.62-1.24-1.74s.5-1.74,1.24-1.74,1.24.62,1.24,1.74-.5,1.74-1.24,1.74m0,.4c1,0,1.68-.8,1.68-2.14s-.71-2.14-1.68-2.14-1.67.8-1.67,2.14S149.76,231.71,150.73,231.71Zm-2.07-1.52h-.84v-1h-.42v1h-1.82l2.15-2.71h-.48L145,230.26v.31h2.37v1.1h.43v-1.1h.84Zm-4.43.86a.31.31,0,0,0-.32.32.3.3,0,0,0,.22.31l-.2.87h.29l.25-.83a1,1,0,0,0,.08-.35A.31.31,0,0,0,144.23,231.05Zm-3.24.24,1.43-1.4a1.73,1.73,0,0,0,.69-1.31c0-.7-.54-1.13-1.39-1.13a1.89,1.89,0,0,0-1.49.6l.31.26a1.43,1.43,0,0,1,1.15-.47c.64,0,1,.3,1,.79,0,.29-.09.57-.56,1l-1.75,1.71v.31h2.95v-.38Z" transform="translate(-127.64 -168.51)" style="fill:#727271;fill-rule:evenodd"/><path d="M260,211.47a.31.31,0,0,0-.32.32.3.3,0,0,0,.22.31l-.2.87H260l.25-.83a1,1,0,0,0,.08-.35.31.31,0,0,0-.32-.32m6,.26c-.73,0-1.24-.62-1.24-1.74s.5-1.74,1.24-1.74,1.24.62,1.24,1.74S266.74,211.74,266,211.74Zm0,.4c1,0,1.68-.8,1.68-2.14s-.71-2.14-1.68-2.14-1.67.8-1.67,2.14S265,212.13,266,212.13Zm-3.63-2.44,1.19-1.49v-.31h-2.7v.38H263l-1.16,1.46v.32h.3c.78,0,1.13.33,1.13.83s-.38.85-1.08.85a1.84,1.84,0,0,1-1.3-.49l-.21.34a2.18,2.18,0,0,0,1.51.54c1,0,1.52-.54,1.52-1.24S263.28,209.74,262.38,209.7Zm-3.1.91h-.84v-1H258v1H256.2l2.15-2.71h-.48l-2.23,2.78V211H258v1.1h.43V211h.84Z" transform="translate(-127.64 -168.51)" style="fill:#727271;fill-rule:evenodd"/><path d="M214.79,231.82c-.73,0-1.24-.62-1.24-1.74s.5-1.74,1.24-1.74,1.24.62,1.24,1.74-.5,1.74-1.24,1.74m0,.4c1,0,1.68-.8,1.68-2.14s-.71-2.14-1.68-2.14-1.67.8-1.67,2.14S213.82,232.21,214.79,232.21Zm-3.91-.37c-.74,0-1.18-.32-1.18-.85s.44-.84,1.18-.84,1.19.32,1.19.84S211.63,231.85,210.89,231.85Zm-1-2.78c0-.47.4-.76,1-.76s1,.29,1,.76-.39.75-1,.75S209.85,229.53,209.85,229.06Zm1.85.91a1,1,0,0,0,.67-.92c0-.68-.59-1.11-1.48-1.11s-1.47.43-1.47,1.11a1,1,0,0,0,.66.92,1,1,0,0,0-.81,1c0,.74.61,1.21,1.62,1.21s1.63-.46,1.63-1.21A1.06,1.06,0,0,0,211.7,230Zm-3.41,1.58a.31.31,0,0,0-.32.32.3.3,0,0,0,.22.31l-.2.87h.29l.25-.83a1,1,0,0,0,.08-.35A.31.31,0,0,0,208.29,231.55Zm-2.56-1.43c-.65,0-1.06-.35-1.06-.91a.92.92,0,0,1,1-.91c.73,0,1.11.44,1.11.9A1,1,0,0,1,205.73,230.13Zm0-2.18a1.31,1.31,0,0,0-1.43,1.29,1.27,1.27,0,0,0,1.42,1.26,1.34,1.34,0,0,0,1.28-.72c0,.13,0,.25,0,.34,0,1.14-.58,1.72-1.49,1.72a1.47,1.47,0,0,1-.82-.2l-.17.35a1.93,1.93,0,0,0,1,.23c1.14,0,1.92-.74,1.92-2.17S206.79,227.94,205.68,227.94Zm-3.73,0v.38h1v3.82h.43V228Z" transform="translate(-127.64 -168.51)" style="fill:#727271;fill-rule:evenodd"/><path d="M285.28,227.32a3.91,3.91,0,1,0,3.91,3.91,3.91,3.91,0,0,0-3.91-3.91" transform="translate(-127.64 -168.51)" style="fill:#599149;fill-rule:evenodd"/><polygon points="155.24 62.72 156.55 62.34 157.87 61.96 157.87 62.72 157.87 63.47 156.55 63.09 155.24 62.72" style="fill:#fefefe;fill-rule:evenodd"/><rect x="157.76" y="62.54" width="2.28" height="0.38" style="fill:#fefefe"/><rect x="160.63" y="82.03" width="1.06" height="6.15" style="fill:#134228"/><rect x="2.91" y="83.17" width="158.79" height="5" style="fill:#134228"/><path d="M156.1,229.24l-.82-.83a1,1,0,0,0-.77-.4c-.41,0-.66.31-.66.81a1.1,1.1,0,0,0,.35.87l.15-.18a.83.83,0,0,1-.27-.67c0-.37.17-.57.46-.57s.33.05.61.33l1,1h.18v-1.72h-.22Zm0,1.66c0,.43-.36.72-1,.72s-1-.29-1-.72.36-.72,1-.72S156.12,230.47,156.12,230.9Zm.23,0c0-.57-.47-1-1.25-1s-1.25.41-1.25,1,.47,1,1.25,1S156.35,231.47,156.35,230.9Zm-.38,1.49a.18.18,0,0,0,.19.19.18.18,0,0,0,.18-.13l.51.12v-.17l-.48-.15a.57.57,0,0,0-.2,0A.18.18,0,0,0,156,232.39Zm.14,1.89-.82-.83a1,1,0,0,0-.77-.4c-.41,0-.66.32-.66.81a1.1,1.1,0,0,0,.35.87l.15-.18a.83.83,0,0,1-.27-.67c0-.37.17-.57.46-.57s.33.05.61.33l1,1h.18v-1.72h-.22Z" transform="translate(-127.64 -168.51)" style="fill:#434242"/><path d="M139.13,186.87c0,.38-.21.62-.53.62a.54.54,0,0,1-.53-.6c0-.42.26-.65.52-.65a.57.57,0,0,1,.54.63m-1.27,0a.76.76,0,0,0,.75.84.74.74,0,0,0,.73-.83.78.78,0,0,0-.42-.75h.2c.66,0,1,.34,1,.87a.86.86,0,0,1-.12.48l.2.1a1.12,1.12,0,0,0,.13-.58c0-.66-.43-1.12-1.27-1.12S137.86,186.25,137.86,186.9Zm1,2.1v.31l-.78-.08v-1.12h-.22v1.34l1.23.13v-.52c0-.62.2-.82.51-.82s.5.22.5.64a1.06,1.06,0,0,1-.28.75l.2.12a1.26,1.26,0,0,0,.31-.88c0-.6-.33-.89-.74-.89S138.88,188.26,138.88,189Zm1.08,1.19a.18.18,0,0,0,.19.19.18.18,0,0,0,.18-.13l.51.12v-.17l-.48-.15a.57.57,0,0,0-.2,0A.18.18,0,0,0,140,190.19Zm-2.09,1.61h.22v-.58h2.23V191h-2.45Z" transform="translate(-127.64 -168.51)" style="fill:#434242"/><path d="M247.62,188.38c0,.43-.36.72-1,.72s-1-.29-1-.72.36-.72,1-.72,1,.29,1,.72m.23,0c0-.57-.47-1-1.25-1s-1.25.41-1.25,1,.47,1,1.25,1S247.85,189,247.85,188.38ZM247.6,191l-.82-.83a1,1,0,0,0-.77-.4c-.41,0-.66.31-.66.81a1.1,1.1,0,0,0,.35.87l.15-.18a.83.83,0,0,1-.27-.67c0-.37.17-.57.46-.57s.33.05.61.33l1,1h.18v-1.72h-.22Zm-.14.91a.18.18,0,0,0,.19.19.18.18,0,0,0,.18-.13l.51.12v-.17l-.48-.15a.58.58,0,0,0-.2,0A.18.18,0,0,0,247.46,191.92Zm.14,1.89-.82-.83a1,1,0,0,0-.77-.4c-.41,0-.66.31-.66.81a1.1,1.1,0,0,0,.35.87l.15-.18a.83.83,0,0,1-.27-.67c0-.37.17-.57.46-.57s.33.05.61.33l1,1h.18v-1.72h-.22Z" transform="translate(-127.64 -168.51)" style="fill:#434242"/><path d="M277.38,234.07h.22v-.58h2.23v-.25h-2.45Zm2.26,1c0,.42-.26.65-.52.65a.57.57,0,0,1-.54-.63c0-.38.21-.62.53-.62A.54.54,0,0,1,279.63,235.06Zm-1.27,0a.78.78,0,0,0,.42.75h-.2c-.66,0-1-.34-1-.87a.86.86,0,0,1,.12-.48l-.2-.1a1.13,1.13,0,0,0-.13.58c0,.67.43,1.12,1.27,1.12s1.22-.35,1.22-1a.76.76,0,0,0-.75-.84A.74.74,0,0,0,278.36,235Zm1.1,1.53a.18.18,0,0,0,.19.19.18.18,0,0,0,.18-.13l.51.12v-.17l-.48-.15a.58.58,0,0,0-.2,0A.18.18,0,0,0,279.46,236.56Zm-2.09,1.61h.22v-.58h2.23v-.25h-2.45Z" transform="translate(-127.64 -168.51)" style="fill:#434242"/><line x1="27.53" y1="67.44" x2="27.53" y2="74.19" style="fill:none;stroke:#b2b3b3;stroke-miterlimit:22.92558479309082;stroke-width:0.2160000056028366px"/><line x1="11.53" y1="24.94" x2="11.53" y2="35.72" style="fill:none;stroke:#b2b3b3;stroke-miterlimit:22.92558479309082;stroke-width:0.2160000056028366px"/><line x1="119.03" y1="26.94" x2="119.03" y2="49.64" style="fill:none;stroke:#b2b3b3;stroke-miterlimit:22.92558479309082;stroke-width:0.2160000056028366px"/><line x1="151.03" y1="71.69" x2="151.03" y2="83.17" style="fill:none;stroke:#b2b3b3;stroke-miterlimit:22.92558479309082;stroke-width:0.2160000056028366px"/><line x1="27.53" y1="51.26" x2="27.53" y2="58" style="fill:none;stroke:#b2b3b3;stroke-miterlimit:22.92558479309082;stroke-width:0.2160000056028366px"/><line x1="11.53" y1="5" x2="11.53" y2="15.5" style="fill:none;stroke:#b2b3b3;stroke-miterlimit:22.92558479309082;stroke-width:0.2160000056028366px"/><line x1="119.03" y1="5" x2="119.03" y2="17.5" style="fill:none;stroke:#b2b3b3;stroke-miterlimit:22.92558479309082;stroke-width:0.2160000056028366px"/><line x1="151.03" y1="52.24" x2="151.03" y2="62.25" style="fill:none;stroke:#b2b3b3;stroke-miterlimit:22.92558479309082;stroke-width:0.2160000056028366px"/><path d="M184.48,177.78l.83-.82a1,1,0,0,0,.4-.77c0-.41-.32-.66-.81-.66a1.1,1.1,0,0,0-.87.35l.18.15a.83.83,0,0,1,.67-.27c.37,0,.57.17.57.46s-.05.33-.33.61l-1,1V178h1.72v-.22Zm-1.66-1c-.38,0-.62-.21-.62-.53a.54.54,0,0,1,.6-.53c.42,0,.65.26.65.52A.57.57,0,0,1,182.82,176.8Zm0-1.27a.76.76,0,0,0-.84.75.74.74,0,0,0,.83.73.78.78,0,0,0,.75-.42c0,.07,0,.14,0,.2,0,.66-.34,1-.87,1a.86.86,0,0,1-.48-.12l-.1.2a1.12,1.12,0,0,0,.58.13c.66,0,1.12-.43,1.12-1.27S183.45,175.53,182.8,175.53Zm-1.31,2.11a.18.18,0,0,0-.19.19.18.18,0,0,0,.13.18l-.12.51h.17l.15-.48a.58.58,0,0,0,0-.2A.18.18,0,0,0,181.48,177.64Zm-.49-.5h-.49v-.57h-.24v.57h-1.06l1.25-1.58h-.28l-1.3,1.62v.18h1.38V178h.25v-.64H181Z" transform="translate(-127.64 -168.51)" style="fill:#434242"/><path d="M227.84,249.54c-.43,0-.72-.36-.72-1s.29-1,.72-1,.72.36.72,1-.29,1-.72,1m0,.23c.57,0,1-.47,1-1.25s-.41-1.25-1-1.25-1,.47-1,1.25S227.27,249.77,227.84,249.77Zm-2.28-.21c-.43,0-.69-.19-.69-.49s.26-.49.69-.49.69.19.69.49S226,249.56,225.56,249.56Zm-.61-1.62c0-.27.23-.44.61-.44s.61.17.61.44-.23.44-.61.44S225,248.2,225,247.93Zm1.08.53a.56.56,0,0,0,.39-.54c0-.4-.35-.65-.86-.65s-.86.25-.86.65a.55.55,0,0,0,.39.54.61.61,0,0,0-.47.6c0,.43.36.7.94.7s1-.27,1-.7A.62.62,0,0,0,226,248.46Zm-2,.92a.18.18,0,0,0-.19.19.18.18,0,0,0,.13.18l-.12.51H224l.15-.48a.57.57,0,0,0,0-.2A.18.18,0,0,0,224,249.39Zm-1.53-1.08h-.31l.08-.78h1.12v-.22h-1.34l-.13,1.23h.52c.62,0,.82.2.82.51s-.22.5-.64.5a1.06,1.06,0,0,1-.75-.28l-.12.2a1.26,1.26,0,0,0,.88.31c.6,0,.89-.33.89-.74S223.26,248.3,222.52,248.3Z" transform="translate(-127.64 -168.51)" style="fill:#434242"/><path d="M147.12,248.55c-.38,0-.62-.21-.62-.53a.54.54,0,0,1,.6-.53c.42,0,.65.26.65.52a.57.57,0,0,1-.63.54m0-1.27a.76.76,0,0,0-.84.75.74.74,0,0,0,.83.73.78.78,0,0,0,.75-.42c0,.07,0,.14,0,.2,0,.66-.34,1-.87,1a.86.86,0,0,1-.48-.12l-.1.2a1.12,1.12,0,0,0,.58.13c.67,0,1.12-.43,1.12-1.27S147.74,247.28,147.09,247.28Zm-2.18,0v.22h.58v2.23h.25V247.3Zm-.36,2.09a.18.18,0,0,0-.19.19.18.18,0,0,0,.13.18l-.12.51h.17l.15-.48a.57.57,0,0,0,0-.2A.18.18,0,0,0,144.55,249.39Zm-1.61-2.09v.22h.58v2.23h.25V247.3Z" transform="translate(-127.64 -168.51)" style="fill:#434242"/><path d="M266.48,215.9H266v-.57h-.24v.57h-1.06l1.25-1.58h-.28l-1.3,1.62v.18h1.38v.64H266v-.64h.49Zm-3.42.66c-.43,0-.72-.36-.72-1s.29-1,.72-1,.72.36.72,1S263.48,216.56,263.05,216.56Zm0,.23c.57,0,1-.47,1-1.25s-.41-1.25-1-1.25-1,.47-1,1.25S262.49,216.79,263.05,216.79Zm-1.49-.38a.18.18,0,0,0-.19.19.18.18,0,0,0,.13.18l-.12.51h.17l.15-.48a.57.57,0,0,0,0-.2A.18.18,0,0,0,261.56,216.41Zm-1.89.14.83-.82a1,1,0,0,0,.4-.77c0-.41-.31-.66-.81-.66a1.1,1.1,0,0,0-.87.35l.18.15a.83.83,0,0,1,.67-.27c.37,0,.57.17.57.46s-.05.33-.33.61l-1,1v.18H261v-.22Z" transform="translate(-127.64 -168.51)" style="fill:#434242"/><line x1="50.03" y1="8.33" x2="8.16" y2="8.33" style="fill:none;stroke:#b2b3b3;stroke-miterlimit:22.92558479309082;stroke-width:0.2160000056028366px"/><line x1="93.03" y1="80.08" x2="39.34" y2="80.08" style="fill:none;stroke:#b2b3b3;stroke-miterlimit:22.92558479309082;stroke-width:0.2160000056028366px"/><line x1="13.28" y1="80.08" x2="6.53" y2="80.08" style="fill:none;stroke:#b2b3b3;stroke-miterlimit:22.92558479309082;stroke-width:0.2160000056028366px"/><line x1="130.53" y1="47.1" x2="113.83" y2="47.1" style="fill:none;stroke:#b2b3b3;stroke-miterlimit:22.92558479309082;stroke-width:0.2160000056028366px"/><line x1="104.31" y1="8.33" x2="59.46" y2="8.33" style="fill:none;stroke:#b2b3b3;stroke-miterlimit:22.92558479309082;stroke-width:0.2160000056028366px"/><line x1="155.38" y1="80.08" x2="102.46" y2="80.08" style="fill:none;stroke:#b2b3b3;stroke-miterlimit:22.92558479309082;stroke-width:0.2160000056028366px"/><line x1="29.46" y1="80.08" x2="22.71" y2="80.08" style="fill:none;stroke:#b2b3b3;stroke-miterlimit:22.92558479309082;stroke-width:0.2160000056028366px"/><line x1="156.8" y1="47.1" x2="139.96" y2="47.1" style="fill:none;stroke:#b2b3b3;stroke-miterlimit:22.92558479309082;stroke-width:0.2160000056028366px"/></svg>